{
  "name": "JazzVocal.S264.sty",
  "tempo": 192,
  "timeSignature": "4/4",
  "ticksPerQuarter": 1920,
  "sffType": "SFF1",
  "division": "EIGHTH_SHUFFLE",
  "parts": {
    "Main_A": {
      "type": "Main_A",
      "sizeInBeats": 16,
      "channels": {
        "0": {
          "ctab": {
            "srcChannel": 0,
            "name": "CC_Crash",
            "accType": "RHYTHM",
            "editable": false,
            "mutedNotes": [],
            "mutedChords": [
              "1+2+5",
              "sus4",
              "1+5",
              "1+8",
              "7aug",
              "Maj7aug",
              "7(#9)",
              "7(b13)",
              "7(b9)",
              "7(13)",
              "7#11",
              "7(9)",
              "7b5",
              "7sus4",
              "7th",
              "dim7",
              "dim",
              "minMaj7(9)",
              "minMaj7",
              "min7(11)",
              "min7(9)",
              "min(9)",
              "m7b5",
              "min7",
              "min6",
              "min",
              "aug",
              "Maj6(9)",
              "Maj7(9)",
              "Maj(9)",
              "Maj7#11",
              "Maj7",
              "Maj6",
              "Maj"
            ],
            "autoStart": true,
            "sourceChordNote": 0,
            "sourceChordType": "Maj",
            "ctb2Low": null,
            "ctb2Main": {
              "ntr": "ROOT_FIXED",
              "ntt": "BYPASS",
              "bassOn": false,
              "chordRootUpperLimit": 0,
              "noteLowLimit": 0,
              "noteHighLimit": 127,
              "rtr": "RETRIGGER"
            },
            "ctb2High": null
          },
          "notes": []
        },
        "2": {
          "ctab": {
            "srcChannel": 2,
            "name": "VocalRoo",
            "accType": "CHORD2",
            "editable": true,
            "mutedNotes": [],
            "mutedChords": [
              "1+2+5",
              "sus4",
              "1+5",
              "1+8",
              "Maj7aug",
              "dim",
              "minMaj7(9)",
              "minMaj7",
              "min6",
              "min",
              "aug",
              "Maj6(9)",
              "Maj7(9)",
              "Maj(9)",
              "Maj7#11",
              "Maj7",
              "Maj6",
              "Maj"
            ],
            "autoStart": false,
            "sourceChordNote": 0,
            "sourceChordType": "Maj7",
            "ctb2Low": null,
            "ctb2Main": {
              "ntr": "ROOT_TRANSPOSITION",
              "ntt": "CHORD",
              "bassOn": false,
              "chordRootUpperLimit": 3,
              "noteLowLimit": 0,
              "noteHighLimit": 127,
              "rtr": "PITCH_SHIFT"
            },
            "ctb2High": null
          },
          "notes": [
            {
              "pitch": 60,
              "velocity": 51,
              "position": 0.6666666666666666,
              "duration": 0.2875
            },
            {
              "pitch": 60,
              "velocity": 83,
              "position": 2,
              "duration": 0.43125
            },
            {
              "pitch": 60,
              "velocity": 57,
              "position": 4,
              "duration": 1.3604166666666666
            },
            {
              "pitch": 60,
              "velocity": 89,
              "position": 5.666666666666667,
              "duration": 0.33541666666666664
            },
            {
              "pitch": 60,
              "velocity": 59,
              "position": 8.666666666666666,
              "duration": 0.3229166666666667
            },
            {
              "pitch": 60,
              "velocity": 87,
              "position": 10,
              "duration": 0.48125
            },
            {
              "pitch": 60,
              "velocity": 65,
              "position": 12,
              "duration": 1.3666666666666667
            },
            {
              "pitch": 60,
              "velocity": 92,
              "position": 13.666666666666666,
              "duration": 0.38958333333333334
            }
          ]
        },
        "8": {
          "ctab": {
            "srcChannel": 8,
            "name": "snips",
            "accType": "SUBRHYTHM",
            "editable": false,
            "mutedNotes": [],
            "mutedChords": [],
            "autoStart": true,
            "sourceChordNote": 0,
            "sourceChordType": "Maj7",
            "ctb2Low": null,
            "ctb2Main": {
              "ntr": "ROOT_FIXED",
              "ntt": "BYPASS",
              "bassOn": false,
              "chordRootUpperLimit": 6,
              "noteLowLimit": 0,
              "noteHighLimit": 127,
              "rtr": "PITCH_SHIFT"
            },
            "ctb2High": null
          },
          "notes": [
            {
              "pitch": 19,
              "velocity": 100,
              "position": 1,
              "duration": 0.24583333333333332
            },
            {
              "pitch": 19,
              "velocity": 100,
              "position": 3,
              "duration": 0.24583333333333332
            },
            {
              "pitch": 19,
              "velocity": 100,
              "position": 5,
              "duration": 0.24583333333333332
            },
            {
              "pitch": 19,
              "velocity": 100,
              "position": 7,
              "duration": 0.24583333333333332
            },
            {
              "pitch": 19,
              "velocity": 100,
              "position": 9,
              "duration": 0.24583333333333332
            },
            {
              "pitch": 19,
              "velocity": 100,
              "position": 11,
              "duration": 0.24583333333333332
            },
            {
              "pitch": 19,
              "velocity": 100,
              "position": 13,
              "duration": 0.24583333333333332
            },
            {
              "pitch": 19,
              "velocity": 100,
              "position": 15,
              "duration": 0.24583333333333332
            }
          ]
        },
        "9": {
          "ctab": {
            "srcChannel": 9,
            "name": "drums",
            "accType": "RHYTHM",
            "editable": false,
            "mutedNotes": [],
            "mutedChords": [],
            "autoStart": true,
            "sourceChordNote": 0,
            "sourceChordType": "Maj7",
            "ctb2Low": null,
            "ctb2Main": {
              "ntr": "ROOT_FIXED",
              "ntt": "BYPASS",
              "bassOn": false,
              "chordRootUpperLimit": 6,
              "noteLowLimit": 0,
              "noteHighLimit": 127,
              "rtr": "PITCH_SHIFT"
            },
            "ctb2High": null
          },
          "notes": [
            {
              "pitch": 25,
              "velocity": 58,
              "position": 0,
              "duration": 0.016666666666666666
            },
            {
              "pitch": 33,
              "velocity": 72,
              "position": 0,
              "duration": 0.12083333333333333
            },
            {
              "pitch": 28,
              "velocity": 50,
              "position": 0,
              "duration": 0.9854166666666667
            },
            {
              "pitch": 25,
              "velocity": 74,
              "position": 1,
              "duration": 0.016666666666666666
            },
            {
              "pitch": 44,
              "velocity": 76,
              "position": 1,
              "duration": 0.016666666666666666
            },
            {
              "pitch": 25,
              "velocity": 30,
              "position": 1.71875,
              "duration": 0.016666666666666666
            },
            {
              "pitch": 25,
              "velocity": 58,
              "position": 2,
              "duration": 0.016666666666666666
            },
            {
              "pitch": 33,
              "velocity": 72,
              "position": 2,
              "duration": 0.12083333333333333
            },
            {
              "pitch": 28,
              "velocity": 50,
              "position": 2,
              "duration": 0.9854166666666667
            },
            {
              "pitch": 25,
              "velocity": 74,
              "position": 3,
              "duration": 0.016666666666666666
            },
            {
              "pitch": 44,
              "velocity": 80,
              "position": 3,
              "duration": 0.016666666666666666
            },
            {
              "pitch": 25,
              "velocity": 30,
              "position": 3.71875,
              "duration": 0.016666666666666666
            },
            {
              "pitch": 25,
              "velocity": 58,
              "position": 4,
              "duration": 0.016666666666666666
            },
            {
              "pitch": 33,
              "velocity": 72,
              "position": 4,
              "duration": 0.12083333333333333
            },
            {
              "pitch": 28,
              "velocity": 50,
              "position": 4,
              "duration": 0.9854166666666667
            },
            {
              "pitch": 25,
              "velocity": 74,
              "position": 5,
              "duration": 0.016666666666666666
            },
            {
              "pitch": 44,
              "velocity": 76,
              "position": 5,
              "duration": 0.016666666666666666
            },
            {
              "pitch": 25,
              "velocity": 30,
              "position": 5.71875,
              "duration": 0.016666666666666666
            },
            {
              "pitch": 25,
              "velocity": 58,
              "position": 6,
              "duration": 0.016666666666666666
            },
            {
              "pitch": 33,
              "velocity": 72,
              "position": 6,
              "duration": 0.12083333333333333
            },
            {
              "pitch": 28,
              "velocity": 50,
              "position": 6,
              "duration": 0.9854166666666667
            },
            {
              "pitch": 25,
              "velocity": 74,
              "position": 7,
              "duration": 0.016666666666666666
            },
            {
              "pitch": 44,
              "velocity": 84,
              "position": 7,
              "duration": 0.016666666666666666
            },
            {
              "pitch": 25,
              "velocity": 30,
              "position": 7.71875,
              "duration": 0.016666666666666666
            },
            {
              "pitch": 25,
              "velocity": 58,
              "position": 8,
              "duration": 0.016666666666666666
            },
            {
              "pitch": 33,
              "velocity": 72,
              "position": 8,
              "duration": 0.12083333333333333
            },
            {
              "pitch": 28,
              "velocity": 50,
              "position": 8,
              "duration": 0.9854166666666667
            },
            {
              "pitch": 25,
              "velocity": 74,
              "position": 9,
              "duration": 0.016666666666666666
            },
            {
              "pitch": 44,
              "velocity": 76,
              "position": 9,
              "duration": 0.016666666666666666
            },
            {
              "pitch": 25,
              "velocity": 30,
              "position": 9.71875,
              "duration": 0.016666666666666666
            },
            {
              "pitch": 25,
              "velocity": 58,
              "position": 10,
              "duration": 0.016666666666666666
            },
            {
              "pitch": 33,
              "velocity": 72,
              "position": 10,
              "duration": 0.12083333333333333
            },
            {
              "pitch": 28,
              "velocity": 50,
              "position": 10,
              "duration": 0.9854166666666667
            },
            {
              "pitch": 25,
              "velocity": 74,
              "position": 11,
              "duration": 0.016666666666666666
            },
            {
              "pitch": 44,
              "velocity": 80,
              "position": 11,
              "duration": 0.016666666666666666
            },
            {
              "pitch": 25,
              "velocity": 30,
              "position": 11.71875,
              "duration": 0.016666666666666666
            },
            {
              "pitch": 25,
              "velocity": 58,
              "position": 12,
              "duration": 0.016666666666666666
            },
            {
              "pitch": 33,
              "velocity": 72,
              "position": 12,
              "duration": 0.12083333333333333
            },
            {
              "pitch": 28,
              "velocity": 50,
              "position": 12,
              "duration": 0.9854166666666667
            },
            {
              "pitch": 25,
              "velocity": 74,
              "position": 13,
              "duration": 0.016666666666666666
            },
            {
              "pitch": 44,
              "velocity": 76,
              "position": 13,
              "duration": 0.016666666666666666
            },
            {
              "pitch": 25,
              "velocity": 30,
              "position": 13.71875,
              "duration": 0.016666666666666666
            },
            {
              "pitch": 25,
              "velocity": 58,
              "position": 14,
              "duration": 0.016666666666666666
            },
            {
              "pitch": 33,
              "velocity": 72,
              "position": 14,
              "duration": 0.12083333333333333
            },
            {
              "pitch": 28,
              "velocity": 50,
              "position": 14,
              "duration": 0.9854166666666667
            },
            {
              "pitch": 25,
              "velocity": 74,
              "position": 15,
              "duration": 0.016666666666666666
            },
            {
              "pitch": 44,
              "velocity": 84,
              "position": 15,
              "duration": 0.016666666666666666
            },
            {
              "pitch": 25,
              "velocity": 30,
              "position": 15.71875,
              "duration": 0.016666666666666666
            }
          ]
        },
        "10": {
          "ctab": {
            "srcChannel": 10,
            "name": "Bass",
            "accType": "BASS",
            "editable": false,
            "mutedNotes": [],
            "mutedChords": [],
            "autoStart": false,
            "sourceChordNote": 0,
            "sourceChordType": "Maj7",
            "ctb2Low": null,
            "ctb2Main": {
              "ntr": "ROOT_TRANSPOSITION",
              "ntt": "MELODY",
              "bassOn": true,
              "chordRootUpperLimit": 3,
              "noteLowLimit": 28,
              "noteHighLimit": 127,
              "rtr": "PITCH_SHIFT_TO_ROOT"
            },
            "ctb2High": null
          },
          "notes": [
            {
              "pitch": 24,
              "velocity": 117,
              "position": 0,
              "duration": 1.7875
            },
            {
              "pitch": 31,
              "velocity": 117,
              "position": 2,
              "duration": 1.7875
            },
            {
              "pitch": 24,
              "velocity": 117,
              "position": 4,
              "duration": 1.7875
            },
            {
              "pitch": 31,
              "velocity": 117,
              "position": 6,
              "duration": 1.7875
            },
            {
              "pitch": 24,
              "velocity": 117,
              "position": 8,
              "duration": 1.7875
            },
            {
              "pitch": 31,
              "velocity": 117,
              "position": 10,
              "duration": 1.7875
            },
            {
              "pitch": 24,
              "velocity": 117,
              "position": 12,
              "duration": 1.7875
            },
            {
              "pitch": 31,
              "velocity": 117,
              "position": 14,
              "duration": 1.7875
            }
          ]
        },
        "11": {
          "ctab": {
            "srcChannel": 11,
            "name": "J Gtr",
            "accType": "CHORD1",
            "editable": false,
            "mutedNotes": [],
            "mutedChords": [],
            "autoStart": false,
            "sourceChordNote": 0,
            "sourceChordType": "Maj7",
            "ctb2Low": null,
            "ctb2Main": {
              "ntr": "ROOT_FIXED",
              "ntt": "CHORD",
              "bassOn": false,
              "chordRootUpperLimit": 7,
              "noteLowLimit": 0,
              "noteHighLimit": 127,
              "rtr": "PITCH_SHIFT"
            },
            "ctb2High": null
          },
          "notes": [
            {
              "pitch": 52,
              "velocity": 36,
              "position": 0,
              "duration": 0.9854166666666667
            },
            {
              "pitch": 55,
              "velocity": 36,
              "position": 0,
              "duration": 0.9854166666666667
            },
            {
              "pitch": 59,
              "velocity": 36,
              "position": 0,
              "duration": 0.9854166666666667
            },
            {
              "pitch": 52,
              "velocity": 86,
              "position": 1,
              "duration": 0.20416666666666666
            },
            {
              "pitch": 55,
              "velocity": 86,
              "position": 1,
              "duration": 0.20416666666666666
            },
            {
              "pitch": 59,
              "velocity": 86,
              "position": 1,
              "duration": 0.20416666666666666
            },
            {
              "pitch": 52,
              "velocity": 38,
              "position": 2,
              "duration": 0.9854166666666667
            },
            {
              "pitch": 55,
              "velocity": 38,
              "position": 2,
              "duration": 0.9854166666666667
            },
            {
              "pitch": 59,
              "velocity": 38,
              "position": 2,
              "duration": 0.9854166666666667
            },
            {
              "pitch": 52,
              "velocity": 80,
              "position": 3,
              "duration": 0.20416666666666666
            },
            {
              "pitch": 55,
              "velocity": 80,
              "position": 3,
              "duration": 0.20416666666666666
            },
            {
              "pitch": 59,
              "velocity": 80,
              "position": 3,
              "duration": 0.20416666666666666
            },
            {
              "pitch": 52,
              "velocity": 38,
              "position": 4,
              "duration": 0.9854166666666667
            },
            {
              "pitch": 55,
              "velocity": 38,
              "position": 4,
              "duration": 0.9854166666666667
            },
            {
              "pitch": 59,
              "velocity": 38,
              "position": 4,
              "duration": 0.9854166666666667
            },
            {
              "pitch": 52,
              "velocity": 80,
              "position": 5,
              "duration": 0.20416666666666666
            },
            {
              "pitch": 55,
              "velocity": 80,
              "position": 5,
              "duration": 0.20416666666666666
            },
            {
              "pitch": 59,
              "velocity": 80,
              "position": 5,
              "duration": 0.20416666666666666
            },
            {
              "pitch": 52,
              "velocity": 36,
              "position": 6,
              "duration": 0.9854166666666667
            },
            {
              "pitch": 55,
              "velocity": 36,
              "position": 6,
              "duration": 0.9854166666666667
            },
            {
              "pitch": 59,
              "velocity": 36,
              "position": 6,
              "duration": 0.9854166666666667
            },
            {
              "pitch": 52,
              "velocity": 80,
              "position": 7,
              "duration": 0.20416666666666666
            },
            {
              "pitch": 55,
              "velocity": 80,
              "position": 7,
              "duration": 0.20416666666666666
            },
            {
              "pitch": 59,
              "velocity": 80,
              "position": 7,
              "duration": 0.20416666666666666
            },
            {
              "pitch": 52,
              "velocity": 46,
              "position": 8,
              "duration": 0.9854166666666667
            },
            {
              "pitch": 55,
              "velocity": 46,
              "position": 8,
              "duration": 0.9854166666666667
            },
            {
              "pitch": 59,
              "velocity": 46,
              "position": 8,
              "duration": 0.9854166666666667
            },
            {
              "pitch": 52,
              "velocity": 90,
              "position": 9,
              "duration": 0.20416666666666666
            },
            {
              "pitch": 55,
              "velocity": 90,
              "position": 9,
              "duration": 0.20416666666666666
            },
            {
              "pitch": 59,
              "velocity": 90,
              "position": 9,
              "duration": 0.20416666666666666
            },
            {
              "pitch": 52,
              "velocity": 32,
              "position": 10,
              "duration": 0.9854166666666667
            },
            {
              "pitch": 55,
              "velocity": 32,
              "position": 10,
              "duration": 0.9854166666666667
            },
            {
              "pitch": 59,
              "velocity": 32,
              "position": 10,
              "duration": 0.9854166666666667
            },
            {
              "pitch": 52,
              "velocity": 80,
              "position": 11,
              "duration": 0.20416666666666666
            },
            {
              "pitch": 55,
              "velocity": 80,
              "position": 11,
              "duration": 0.20416666666666666
            },
            {
              "pitch": 59,
              "velocity": 80,
              "position": 11,
              "duration": 0.20416666666666666
            },
            {
              "pitch": 52,
              "velocity": 38,
              "position": 12,
              "duration": 0.9854166666666667
            },
            {
              "pitch": 55,
              "velocity": 38,
              "position": 12,
              "duration": 0.9854166666666667
            },
            {
              "pitch": 59,
              "velocity": 38,
              "position": 12,
              "duration": 0.9854166666666667
            },
            {
              "pitch": 52,
              "velocity": 80,
              "position": 13,
              "duration": 0.20416666666666666
            },
            {
              "pitch": 55,
              "velocity": 80,
              "position": 13,
              "duration": 0.20416666666666666
            },
            {
              "pitch": 59,
              "velocity": 80,
              "position": 13,
              "duration": 0.20416666666666666
            },
            {
              "pitch": 52,
              "velocity": 27,
              "position": 14,
              "duration": 0.9854166666666667
            },
            {
              "pitch": 55,
              "velocity": 27,
              "position": 14,
              "duration": 0.9854166666666667
            },
            {
              "pitch": 59,
              "velocity": 27,
              "position": 14,
              "duration": 0.9854166666666667
            },
            {
              "pitch": 52,
              "velocity": 80,
              "position": 15,
              "duration": 0.20416666666666666
            },
            {
              "pitch": 55,
              "velocity": 80,
              "position": 15,
              "duration": 0.20416666666666666
            },
            {
              "pitch": 59,
              "velocity": 80,
              "position": 15,
              "duration": 0.20416666666666666
            }
          ]
        },
        "12": {
          "ctab": {
            "srcChannel": 12,
            "name": "Vocal",
            "accType": "CHORD2",
            "editable": false,
            "mutedNotes": [],
            "mutedChords": [],
            "autoStart": false,
            "sourceChordNote": 0,
            "sourceChordType": "Maj7",
            "ctb2Low": null,
            "ctb2Main": {
              "ntr": "ROOT_FIXED",
              "ntt": "CHORD",
              "bassOn": false,
              "chordRootUpperLimit": 7,
              "noteLowLimit": 0,
              "noteHighLimit": 127,
              "rtr": "PITCH_SHIFT"
            },
            "ctb2High": null
          },
          "notes": [
            {
              "pitch": 55,
              "velocity": 56,
              "position": 0.6666666666666666,
              "duration": 0.2604166666666667
            },
            {
              "pitch": 52,
              "velocity": 46,
              "position": 0.6666666666666666,
              "duration": 0.28125
            },
            {
              "pitch": 59,
              "velocity": 51,
              "position": 0.6666666666666666,
              "duration": 0.2875
            },
            {
              "pitch": 59,
              "velocity": 83,
              "position": 2,
              "duration": 0.43125
            },
            {
              "pitch": 55,
              "velocity": 79,
              "position": 2,
              "duration": 0.4479166666666667
            },
            {
              "pitch": 52,
              "velocity": 83,
              "position": 2,
              "duration": 0.45416666666666666
            },
            {
              "pitch": 52,
              "velocity": 59,
              "position": 4,
              "duration": 1.35625
            },
            {
              "pitch": 59,
              "velocity": 57,
              "position": 4,
              "duration": 1.3604166666666666
            },
            {
              "pitch": 55,
              "velocity": 59,
              "position": 4,
              "duration": 1.36875
            },
            {
              "pitch": 59,
              "velocity": 89,
              "position": 5.666666666666667,
              "duration": 0.33541666666666664
            },
            {
              "pitch": 55,
              "velocity": 83,
              "position": 5.666666666666667,
              "duration": 0.3645833333333333
            },
            {
              "pitch": 52,
              "velocity": 85,
              "position": 5.666666666666667,
              "duration": 0.46041666666666664
            },
            {
              "pitch": 55,
              "velocity": 62,
              "position": 8.666666666666666,
              "duration": 0.31875
            },
            {
              "pitch": 59,
              "velocity": 59,
              "position": 8.666666666666666,
              "duration": 0.3229166666666667
            },
            {
              "pitch": 52,
              "velocity": 55,
              "position": 8.666666666666666,
              "duration": 0.33541666666666664
            },
            {
              "pitch": 59,
              "velocity": 87,
              "position": 10,
              "duration": 0.48125
            },
            {
              "pitch": 55,
              "velocity": 85,
              "position": 10,
              "duration": 0.5041666666666667
            },
            {
              "pitch": 52,
              "velocity": 85,
              "position": 10,
              "duration": 0.5208333333333334
            },
            {
              "pitch": 64,
              "velocity": 63,
              "position": 12,
              "duration": 1.3145833333333334
            },
            {
              "pitch": 55,
              "velocity": 66,
              "position": 12,
              "duration": 1.3270833333333334
            },
            {
              "pitch": 59,
              "velocity": 65,
              "position": 12,
              "duration": 1.3666666666666667
            },
            {
              "pitch": 59,
              "velocity": 92,
              "position": 13.666666666666666,
              "duration": 0.38958333333333334
            },
            {
              "pitch": 55,
              "velocity": 94,
              "position": 13.666666666666666,
              "duration": 0.42291666666666666
            },
            {
              "pitch": 52,
              "velocity": 92,
              "position": 13.666666666666666,
              "duration": 0.4708333333333333
            }
          ]
        },
        "14": {
          "ctab": {
            "srcChannel": 14,
            "name": "DOM",
            "accType": "PHRASE1",
            "editable": false,
            "mutedNotes": [],
            "mutedChords": [],
            "autoStart": false,
            "sourceChordNote": 0,
            "sourceChordType": "Maj7",
            "ctb2Low": null,
            "ctb2Main": {
              "ntr": "ROOT_TRANSPOSITION",
              "ntt": "MELODY",
              "bassOn": true,
              "chordRootUpperLimit": 0,
              "noteLowLimit": 35,
              "noteHighLimit": 127,
              "rtr": "PITCH_SHIFT_TO_ROOT"
            },
            "ctb2High": null
          },
          "notes": []
        }
      }
    },
    "Main_B": {
      "type": "Main_B",
      "sizeInBeats": 16,
      "channels": {
        "0": {
          "ctab": {
            "srcChannel": 0,
            "name": "CC_Crash",
            "accType": "RHYTHM",
            "editable": false,
            "mutedNotes": [],
            "mutedChords": [
              "1+2+5",
              "sus4",
              "1+5",
              "1+8",
              "7aug",
              "Maj7aug",
              "7(#9)",
              "7(b13)",
              "7(b9)",
              "7(13)",
              "7#11",
              "7(9)",
              "7b5",
              "7sus4",
              "7th",
              "dim7",
              "dim",
              "minMaj7(9)",
              "minMaj7",
              "min7(11)",
              "min7(9)",
              "min(9)",
              "m7b5",
              "min7",
              "min6",
              "min",
              "aug",
              "Maj6(9)",
              "Maj7(9)",
              "Maj(9)",
              "Maj7#11",
              "Maj7",
              "Maj6",
              "Maj"
            ],
            "autoStart": true,
            "sourceChordNote": 0,
            "sourceChordType": "Maj",
            "ctb2Low": null,
            "ctb2Main": {
              "ntr": "ROOT_FIXED",
              "ntt": "BYPASS",
              "bassOn": false,
              "chordRootUpperLimit": 0,
              "noteLowLimit": 0,
              "noteHighLimit": 127,
              "rtr": "RETRIGGER"
            },
            "ctb2High": null
          },
          "notes": []
        },
        "2": {
          "ctab": {
            "srcChannel": 2,
            "name": "VocalRoo",
            "accType": "CHORD2",
            "editable": true,
            "mutedNotes": [],
            "mutedChords": [
              "1+2+5",
              "sus4",
              "1+5",
              "1+8",
              "Maj7aug",
              "dim",
              "minMaj7(9)",
              "minMaj7",
              "min6",
              "min",
              "aug",
              "Maj6(9)",
              "Maj7(9)",
              "Maj(9)",
              "Maj7#11",
              "Maj7",
              "Maj6",
              "Maj"
            ],
            "autoStart": false,
            "sourceChordNote": 0,
            "sourceChordType": "Maj7",
            "ctb2Low": null,
            "ctb2Main": {
              "ntr": "ROOT_TRANSPOSITION",
              "ntt": "CHORD",
              "bassOn": false,
              "chordRootUpperLimit": 3,
              "noteLowLimit": 0,
              "noteHighLimit": 127,
              "rtr": "PITCH_SHIFT"
            },
            "ctb2High": null
          },
          "notes": [
            {
              "pitch": 60,
              "velocity": 69,
              "position": 0.6666666666666666,
              "duration": 0.49583333333333335
            },
            {
              "pitch": 60,
              "velocity": 95,
              "position": 2,
              "duration": 0.49583333333333335
            },
            {
              "pitch": 60,
              "velocity": 60,
              "position": 4,
              "duration": 0.49583333333333335
            },
            {
              "pitch": 60,
              "velocity": 99,
              "position": 5.666666666666667,
              "duration": 0.49583333333333335
            },
            {
              "pitch": 60,
              "velocity": 60,
              "position": 8.666666666666666,
              "duration": 0.49583333333333335
            },
            {
              "pitch": 60,
              "velocity": 95,
              "position": 10,
              "duration": 0.49583333333333335
            },
            {
              "pitch": 60,
              "velocity": 57,
              "position": 12,
              "duration": 0.49583333333333335
            },
            {
              "pitch": 60,
              "velocity": 84,
              "position": 13.666666666666666,
              "duration": 0.49583333333333335
            },
            {
              "pitch": 60,
              "velocity": 111,
              "position": 15,
              "duration": 0.9895833333333334
            }
          ]
        },
        "8": {
          "ctab": {
            "srcChannel": 8,
            "name": "snips",
            "accType": "SUBRHYTHM",
            "editable": false,
            "mutedNotes": [],
            "mutedChords": [],
            "autoStart": true,
            "sourceChordNote": 0,
            "sourceChordType": "Maj7",
            "ctb2Low": null,
            "ctb2Main": {
              "ntr": "ROOT_FIXED",
              "ntt": "BYPASS",
              "bassOn": false,
              "chordRootUpperLimit": 6,
              "noteLowLimit": 0,
              "noteHighLimit": 127,
              "rtr": "PITCH_SHIFT"
            },
            "ctb2High": null
          },
          "notes": [
            {
              "pitch": 19,
              "velocity": 100,
              "position": 1,
              "duration": 0.24583333333333332
            },
            {
              "pitch": 19,
              "velocity": 100,
              "position": 3,
              "duration": 0.24583333333333332
            },
            {
              "pitch": 19,
              "velocity": 100,
              "position": 5,
              "duration": 0.24583333333333332
            },
            {
              "pitch": 19,
              "velocity": 100,
              "position": 7,
              "duration": 0.24583333333333332
            },
            {
              "pitch": 19,
              "velocity": 100,
              "position": 9,
              "duration": 0.24583333333333332
            },
            {
              "pitch": 19,
              "velocity": 100,
              "position": 11,
              "duration": 0.24583333333333332
            },
            {
              "pitch": 19,
              "velocity": 100,
              "position": 13,
              "duration": 0.24583333333333332
            },
            {
              "pitch": 19,
              "velocity": 100,
              "position": 15,
              "duration": 0.24583333333333332
            }
          ]
        },
        "9": {
          "ctab": {
            "srcChannel": 9,
            "name": "drums",
            "accType": "RHYTHM",
            "editable": false,
            "mutedNotes": [],
            "mutedChords": [],
            "autoStart": true,
            "sourceChordNote": 0,
            "sourceChordType": "Maj7",
            "ctb2Low": null,
            "ctb2Main": {
              "ntr": "ROOT_FIXED",
              "ntt": "BYPASS",
              "bassOn": false,
              "chordRootUpperLimit": 6,
              "noteLowLimit": 0,
              "noteHighLimit": 127,
              "rtr": "PITCH_SHIFT"
            },
            "ctb2High": null
          },
          "notes": [
            {
              "pitch": 33,
              "velocity": 72,
              "position": 0,
              "duration": 0.12083333333333333
            },
            {
              "pitch": 27,
              "velocity": 84,
              "position": 0.71875,
              "duration": 0.016666666666666666
            },
            {
              "pitch": 26,
              "velocity": 52,
              "position": 0,
              "duration": 0.90625
            },
            {
              "pitch": 44,
              "velocity": 76,
              "position": 1,
              "duration": 0.016666666666666666
            },
            {
              "pitch": 25,
              "velocity": 38,
              "position": 1.71875,
              "duration": 0.016666666666666666
            },
            {
              "pitch": 28,
              "velocity": 44,
              "position": 1,
              "duration": 0.90625
            },
            {
              "pitch": 27,
              "velocity": 95,
              "position": 2,
              "duration": 0.016666666666666666
            },
            {
              "pitch": 33,
              "velocity": 72,
              "position": 2,
              "duration": 0.12083333333333333
            },
            {
              "pitch": 27,
              "velocity": 63,
              "position": 2.71875,
              "duration": 0.016666666666666666
            },
            {
              "pitch": 26,
              "velocity": 52,
              "position": 2,
              "duration": 0.90625
            },
            {
              "pitch": 44,
              "velocity": 80,
              "position": 3,
              "duration": 0.016666666666666666
            },
            {
              "pitch": 28,
              "velocity": 44,
              "position": 3,
              "duration": 0.90625
            },
            {
              "pitch": 27,
              "velocity": 112,
              "position": 4,
              "duration": 0.016666666666666666
            },
            {
              "pitch": 33,
              "velocity": 72,
              "position": 4,
              "duration": 0.12083333333333333
            },
            {
              "pitch": 26,
              "velocity": 52,
              "position": 4,
              "duration": 0.90625
            },
            {
              "pitch": 44,
              "velocity": 76,
              "position": 5,
              "duration": 0.016666666666666666
            },
            {
              "pitch": 27,
              "velocity": 89,
              "position": 5.71875,
              "duration": 0.016666666666666666
            },
            {
              "pitch": 28,
              "velocity": 44,
              "position": 5,
              "duration": 0.90625
            },
            {
              "pitch": 33,
              "velocity": 72,
              "position": 6,
              "duration": 0.12083333333333333
            },
            {
              "pitch": 25,
              "velocity": 38,
              "position": 6.71875,
              "duration": 0.016666666666666666
            },
            {
              "pitch": 26,
              "velocity": 52,
              "position": 6,
              "duration": 0.90625
            },
            {
              "pitch": 27,
              "velocity": 121,
              "position": 7,
              "duration": 0.016666666666666666
            },
            {
              "pitch": 44,
              "velocity": 84,
              "position": 7,
              "duration": 0.016666666666666666
            },
            {
              "pitch": 28,
              "velocity": 44,
              "position": 7,
              "duration": 0.90625
            },
            {
              "pitch": 33,
              "velocity": 72,
              "position": 8,
              "duration": 0.12083333333333333
            },
            {
              "pitch": 27,
              "velocity": 84,
              "position": 8.71875,
              "duration": 0.016666666666666666
            },
            {
              "pitch": 26,
              "velocity": 52,
              "position": 8,
              "duration": 0.90625
            },
            {
              "pitch": 44,
              "velocity": 76,
              "position": 9,
              "duration": 0.016666666666666666
            },
            {
              "pitch": 25,
              "velocity": 38,
              "position": 9.71875,
              "duration": 0.016666666666666666
            },
            {
              "pitch": 28,
              "velocity": 44,
              "position": 9,
              "duration": 0.90625
            },
            {
              "pitch": 27,
              "velocity": 95,
              "position": 10,
              "duration": 0.016666666666666666
            },
            {
              "pitch": 33,
              "velocity": 72,
              "position": 10,
              "duration": 0.12083333333333333
            },
            {
              "pitch": 27,
              "velocity": 63,
              "position": 10.71875,
              "duration": 0.016666666666666666
            },
            {
              "pitch": 26,
              "velocity": 52,
              "position": 10,
              "duration": 0.90625
            },
            {
              "pitch": 44,
              "velocity": 80,
              "position": 11,
              "duration": 0.016666666666666666
            },
            {
              "pitch": 28,
              "velocity": 44,
              "position": 11,
              "duration": 0.90625
            },
            {
              "pitch": 27,
              "velocity": 112,
              "position": 12,
              "duration": 0.016666666666666666
            },
            {
              "pitch": 33,
              "velocity": 72,
              "position": 12,
              "duration": 0.12083333333333333
            },
            {
              "pitch": 26,
              "velocity": 52,
              "position": 12,
              "duration": 0.90625
            },
            {
              "pitch": 44,
              "velocity": 76,
              "position": 13,
              "duration": 0.016666666666666666
            },
            {
              "pitch": 27,
              "velocity": 89,
              "position": 13.71875,
              "duration": 0.016666666666666666
            },
            {
              "pitch": 28,
              "velocity": 44,
              "position": 13,
              "duration": 0.90625
            },
            {
              "pitch": 33,
              "velocity": 72,
              "position": 14,
              "duration": 0.12083333333333333
            },
            {
              "pitch": 25,
              "velocity": 38,
              "position": 14.71875,
              "duration": 0.016666666666666666
            },
            {
              "pitch": 26,
              "velocity": 52,
              "position": 14,
              "duration": 0.90625
            },
            {
              "pitch": 27,
              "velocity": 121,
              "position": 15,
              "duration": 0.016666666666666666
            },
            {
              "pitch": 44,
              "velocity": 83,
              "position": 15,
              "duration": 0.016666666666666666
            },
            {
              "pitch": 28,
              "velocity": 44,
              "position": 15,
              "duration": 0.90625
            }
          ]
        },
        "10": {
          "ctab": {
            "srcChannel": 10,
            "name": "Bass",
            "accType": "BASS",
            "editable": false,
            "mutedNotes": [],
            "mutedChords": [],
            "autoStart": false,
            "sourceChordNote": 0,
            "sourceChordType": "Maj7",
            "ctb2Low": null,
            "ctb2Main": {
              "ntr": "ROOT_TRANSPOSITION",
              "ntt": "MELODY",
              "bassOn": true,
              "chordRootUpperLimit": 3,
              "noteLowLimit": 28,
              "noteHighLimit": 127,
              "rtr": "PITCH_SHIFT_TO_ROOT"
            },
            "ctb2High": null
          },
          "notes": [
            {
              "pitch": 24,
              "velocity": 117,
              "position": 0,
              "duration": 1.7875
            },
            {
              "pitch": 31,
              "velocity": 117,
              "position": 2,
              "duration": 1.7875
            },
            {
              "pitch": 24,
              "velocity": 117,
              "position": 4,
              "duration": 1.7875
            },
            {
              "pitch": 31,
              "velocity": 117,
              "position": 6,
              "duration": 1.7875
            },
            {
              "pitch": 24,
              "velocity": 117,
              "position": 8,
              "duration": 1.7875
            },
            {
              "pitch": 31,
              "velocity": 117,
              "position": 10,
              "duration": 1.7875
            },
            {
              "pitch": 24,
              "velocity": 117,
              "position": 12,
              "duration": 1.7875
            },
            {
              "pitch": 31,
              "velocity": 117,
              "position": 14,
              "duration": 1.7875
            }
          ]
        },
        "11": {
          "ctab": {
            "srcChannel": 11,
            "name": "J Gtr",
            "accType": "CHORD1",
            "editable": false,
            "mutedNotes": [],
            "mutedChords": [],
            "autoStart": false,
            "sourceChordNote": 0,
            "sourceChordType": "Maj7",
            "ctb2Low": null,
            "ctb2Main": {
              "ntr": "ROOT_FIXED",
              "ntt": "CHORD",
              "bassOn": false,
              "chordRootUpperLimit": 7,
              "noteLowLimit": 0,
              "noteHighLimit": 127,
              "rtr": "PITCH_SHIFT"
            },
            "ctb2High": null
          },
          "notes": [
            {
              "pitch": 52,
              "velocity": 36,
              "position": 0,
              "duration": 0.9854166666666667
            },
            {
              "pitch": 55,
              "velocity": 36,
              "position": 0,
              "duration": 0.9854166666666667
            },
            {
              "pitch": 59,
              "velocity": 36,
              "position": 0,
              "duration": 0.9854166666666667
            },
            {
              "pitch": 52,
              "velocity": 86,
              "position": 1,
              "duration": 0.20416666666666666
            },
            {
              "pitch": 55,
              "velocity": 86,
              "position": 1,
              "duration": 0.20416666666666666
            },
            {
              "pitch": 59,
              "velocity": 86,
              "position": 1,
              "duration": 0.20416666666666666
            },
            {
              "pitch": 52,
              "velocity": 38,
              "position": 2,
              "duration": 0.9854166666666667
            },
            {
              "pitch": 55,
              "velocity": 38,
              "position": 2,
              "duration": 0.9854166666666667
            },
            {
              "pitch": 59,
              "velocity": 38,
              "position": 2,
              "duration": 0.9854166666666667
            },
            {
              "pitch": 52,
              "velocity": 80,
              "position": 3,
              "duration": 0.20416666666666666
            },
            {
              "pitch": 55,
              "velocity": 80,
              "position": 3,
              "duration": 0.20416666666666666
            },
            {
              "pitch": 59,
              "velocity": 80,
              "position": 3,
              "duration": 0.20416666666666666
            },
            {
              "pitch": 52,
              "velocity": 38,
              "position": 4,
              "duration": 0.9854166666666667
            },
            {
              "pitch": 55,
              "velocity": 38,
              "position": 4,
              "duration": 0.9854166666666667
            },
            {
              "pitch": 59,
              "velocity": 38,
              "position": 4,
              "duration": 0.9854166666666667
            },
            {
              "pitch": 52,
              "velocity": 80,
              "position": 5,
              "duration": 0.20416666666666666
            },
            {
              "pitch": 55,
              "velocity": 80,
              "position": 5,
              "duration": 0.20416666666666666
            },
            {
              "pitch": 59,
              "velocity": 80,
              "position": 5,
              "duration": 0.20416666666666666
            },
            {
              "pitch": 52,
              "velocity": 36,
              "position": 6,
              "duration": 0.9854166666666667
            },
            {
              "pitch": 55,
              "velocity": 36,
              "position": 6,
              "duration": 0.9854166666666667
            },
            {
              "pitch": 59,
              "velocity": 36,
              "position": 6,
              "duration": 0.9854166666666667
            },
            {
              "pitch": 52,
              "velocity": 80,
              "position": 7,
              "duration": 0.20416666666666666
            },
            {
              "pitch": 55,
              "velocity": 80,
              "position": 7,
              "duration": 0.20416666666666666
            },
            {
              "pitch": 59,
              "velocity": 80,
              "position": 7,
              "duration": 0.20416666666666666
            },
            {
              "pitch": 52,
              "velocity": 38,
              "position": 7.708333333333333,
              "duration": 0.27708333333333335
            },
            {
              "pitch": 55,
              "velocity": 38,
              "position": 7.708333333333333,
              "duration": 0.27708333333333335
            },
            {
              "pitch": 59,
              "velocity": 38,
              "position": 7.708333333333333,
              "duration": 0.27708333333333335
            },
            {
              "pitch": 52,
              "velocity": 67,
              "position": 8,
              "duration": 0.69375
            },
            {
              "pitch": 55,
              "velocity": 67,
              "position": 8,
              "duration": 0.69375
            },
            {
              "pitch": 59,
              "velocity": 67,
              "position": 8,
              "duration": 0.69375
            },
            {
              "pitch": 52,
              "velocity": 53,
              "position": 8.708333333333334,
              "duration": 0.27708333333333335
            },
            {
              "pitch": 55,
              "velocity": 53,
              "position": 8.708333333333334,
              "duration": 0.27708333333333335
            },
            {
              "pitch": 59,
              "velocity": 53,
              "position": 8.708333333333334,
              "duration": 0.27708333333333335
            },
            {
              "pitch": 52,
              "velocity": 90,
              "position": 9,
              "duration": 0.20416666666666666
            },
            {
              "pitch": 55,
              "velocity": 90,
              "position": 9,
              "duration": 0.20416666666666666
            },
            {
              "pitch": 59,
              "velocity": 90,
              "position": 9,
              "duration": 0.20416666666666666
            },
            {
              "pitch": 52,
              "velocity": 32,
              "position": 10,
              "duration": 0.9854166666666667
            },
            {
              "pitch": 55,
              "velocity": 32,
              "position": 10,
              "duration": 0.9854166666666667
            },
            {
              "pitch": 59,
              "velocity": 32,
              "position": 10,
              "duration": 0.9854166666666667
            },
            {
              "pitch": 52,
              "velocity": 80,
              "position": 11,
              "duration": 0.20416666666666666
            },
            {
              "pitch": 55,
              "velocity": 80,
              "position": 11,
              "duration": 0.20416666666666666
            },
            {
              "pitch": 59,
              "velocity": 80,
              "position": 11,
              "duration": 0.20416666666666666
            },
            {
              "pitch": 52,
              "velocity": 38,
              "position": 12,
              "duration": 0.9854166666666667
            },
            {
              "pitch": 55,
              "velocity": 38,
              "position": 12,
              "duration": 0.9854166666666667
            },
            {
              "pitch": 59,
              "velocity": 38,
              "position": 12,
              "duration": 0.9854166666666667
            },
            {
              "pitch": 52,
              "velocity": 80,
              "position": 13,
              "duration": 0.20416666666666666
            },
            {
              "pitch": 55,
              "velocity": 80,
              "position": 13,
              "duration": 0.20416666666666666
            },
            {
              "pitch": 59,
              "velocity": 80,
              "position": 13,
              "duration": 0.20416666666666666
            },
            {
              "pitch": 52,
              "velocity": 27,
              "position": 14,
              "duration": 0.9854166666666667
            },
            {
              "pitch": 55,
              "velocity": 27,
              "position": 14,
              "duration": 0.9854166666666667
            },
            {
              "pitch": 59,
              "velocity": 27,
              "position": 14,
              "duration": 0.9854166666666667
            },
            {
              "pitch": 52,
              "velocity": 80,
              "position": 15,
              "duration": 0.20416666666666666
            },
            {
              "pitch": 55,
              "velocity": 80,
              "position": 15,
              "duration": 0.20416666666666666
            },
            {
              "pitch": 59,
              "velocity": 80,
              "position": 15,
              "duration": 0.20416666666666666
            }
          ]
        },
        "12": {
          "ctab": {
            "srcChannel": 12,
            "name": "Vocal",
            "accType": "CHORD2",
            "editable": false,
            "mutedNotes": [],
            "mutedChords": [],
            "autoStart": false,
            "sourceChordNote": 0,
            "sourceChordType": "Maj7",
            "ctb2Low": null,
            "ctb2Main": {
              "ntr": "ROOT_FIXED",
              "ntt": "CHORD",
              "bassOn": false,
              "chordRootUpperLimit": 7,
              "noteLowLimit": 0,
              "noteHighLimit": 127,
              "rtr": "PITCH_SHIFT"
            },
            "ctb2High": null
          },
          "notes": [
            {
              "pitch": 52,
              "velocity": 69,
              "position": 0.6666666666666666,
              "duration": 0.49583333333333335
            },
            {
              "pitch": 55,
              "velocity": 69,
              "position": 0.6666666666666666,
              "duration": 0.49583333333333335
            },
            {
              "pitch": 59,
              "velocity": 69,
              "position": 0.6666666666666666,
              "duration": 0.49583333333333335
            },
            {
              "pitch": 52,
              "velocity": 95,
              "position": 2,
              "duration": 0.49583333333333335
            },
            {
              "pitch": 55,
              "velocity": 95,
              "position": 2,
              "duration": 0.49583333333333335
            },
            {
              "pitch": 59,
              "velocity": 95,
              "position": 2,
              "duration": 0.49583333333333335
            },
            {
              "pitch": 52,
              "velocity": 60,
              "position": 4,
              "duration": 0.49583333333333335
            },
            {
              "pitch": 55,
              "velocity": 60,
              "position": 4,
              "duration": 0.49583333333333335
            },
            {
              "pitch": 59,
              "velocity": 60,
              "position": 4,
              "duration": 0.49583333333333335
            },
            {
              "pitch": 52,
              "velocity": 99,
              "position": 5.666666666666667,
              "duration": 0.49583333333333335
            },
            {
              "pitch": 55,
              "velocity": 99,
              "position": 5.666666666666667,
              "duration": 0.49583333333333335
            },
            {
              "pitch": 59,
              "velocity": 99,
              "position": 5.666666666666667,
              "duration": 0.49583333333333335
            },
            {
              "pitch": 52,
              "velocity": 60,
              "position": 8.666666666666666,
              "duration": 0.49583333333333335
            },
            {
              "pitch": 55,
              "velocity": 60,
              "position": 8.666666666666666,
              "duration": 0.49583333333333335
            },
            {
              "pitch": 59,
              "velocity": 60,
              "position": 8.666666666666666,
              "duration": 0.49583333333333335
            },
            {
              "pitch": 52,
              "velocity": 95,
              "position": 10,
              "duration": 0.49583333333333335
            },
            {
              "pitch": 55,
              "velocity": 95,
              "position": 10,
              "duration": 0.49583333333333335
            },
            {
              "pitch": 59,
              "velocity": 95,
              "position": 10,
              "duration": 0.49583333333333335
            },
            {
              "pitch": 52,
              "velocity": 57,
              "position": 12,
              "duration": 0.49583333333333335
            },
            {
              "pitch": 55,
              "velocity": 57,
              "position": 12,
              "duration": 0.49583333333333335
            },
            {
              "pitch": 59,
              "velocity": 57,
              "position": 12,
              "duration": 0.49583333333333335
            },
            {
              "pitch": 52,
              "velocity": 84,
              "position": 13.666666666666666,
              "duration": 0.49583333333333335
            },
            {
              "pitch": 55,
              "velocity": 84,
              "position": 13.666666666666666,
              "duration": 0.49583333333333335
            },
            {
              "pitch": 59,
              "velocity": 84,
              "position": 13.666666666666666,
              "duration": 0.49583333333333335
            },
            {
              "pitch": 55,
              "velocity": 104,
              "position": 15,
              "duration": 0.9895833333333334
            },
            {
              "pitch": 59,
              "velocity": 104,
              "position": 15,
              "duration": 0.9895833333333334
            },
            {
              "pitch": 64,
              "velocity": 104,
              "position": 15,
              "duration": 0.9895833333333334
            }
          ]
        },
        "14": {
          "ctab": {
            "srcChannel": 14,
            "name": "DOM",
            "accType": "PHRASE1",
            "editable": false,
            "mutedNotes": [],
            "mutedChords": [],
            "autoStart": false,
            "sourceChordNote": 0,
            "sourceChordType": "Maj7",
            "ctb2Low": null,
            "ctb2Main": {
              "ntr": "ROOT_TRANSPOSITION",
              "ntt": "MELODY",
              "bassOn": true,
              "chordRootUpperLimit": 0,
              "noteLowLimit": 35,
              "noteHighLimit": 127,
              "rtr": "PITCH_SHIFT_TO_ROOT"
            },
            "ctb2High": null
          },
          "notes": [
            {
              "pitch": 36,
              "velocity": 83,
              "position": 0,
              "duration": 1.1041666666666667
            },
            {
              "pitch": 43,
              "velocity": 94,
              "position": 2,
              "duration": 0.9791666666666666
            },
            {
              "pitch": 36,
              "velocity": 91,
              "position": 4,
              "duration": 1.0020833333333334
            },
            {
              "pitch": 40,
              "velocity": 91,
              "position": 5.666666666666667,
              "duration": 0.40208333333333335
            },
            {
              "pitch": 45,
              "velocity": 82,
              "position": 6.729166666666667,
              "duration": 0.27291666666666664
            },
            {
              "pitch": 43,
              "velocity": 83,
              "position": 7,
              "duration": 0.7104166666666667
            },
            {
              "pitch": 36,
              "velocity": 89,
              "position": 8,
              "duration": 1.2229166666666667
            },
            {
              "pitch": 43,
              "velocity": 85,
              "position": 10,
              "duration": 1.1
            },
            {
              "pitch": 36,
              "velocity": 91,
              "position": 12,
              "duration": 1.3229166666666667
            },
            {
              "pitch": 43,
              "velocity": 82,
              "position": 13.677083333333334,
              "duration": 1.2625
            },
            {
              "pitch": 43,
              "velocity": 92,
              "position": 15.729166666666666,
              "duration": 0.25625
            }
          ]
        }
      }
    },
    "Main_C": {
      "type": "Main_C",
      "sizeInBeats": 16,
      "channels": {
        "0": {
          "ctab": {
            "srcChannel": 0,
            "name": "CC_Crash",
            "accType": "RHYTHM",
            "editable": false,
            "mutedNotes": [],
            "mutedChords": [
              "1+2+5",
              "sus4",
              "1+5",
              "1+8",
              "7aug",
              "Maj7aug",
              "7(#9)",
              "7(b13)",
              "7(b9)",
              "7(13)",
              "7#11",
              "7(9)",
              "7b5",
              "7sus4",
              "7th",
              "dim7",
              "dim",
              "minMaj7(9)",
              "minMaj7",
              "min7(11)",
              "min7(9)",
              "min(9)",
              "m7b5",
              "min7",
              "min6",
              "min",
              "aug",
              "Maj6(9)",
              "Maj7(9)",
              "Maj(9)",
              "Maj7#11",
              "Maj7",
              "Maj6",
              "Maj"
            ],
            "autoStart": true,
            "sourceChordNote": 0,
            "sourceChordType": "Maj",
            "ctb2Low": null,
            "ctb2Main": {
              "ntr": "ROOT_FIXED",
              "ntt": "BYPASS",
              "bassOn": false,
              "chordRootUpperLimit": 0,
              "noteLowLimit": 0,
              "noteHighLimit": 127,
              "rtr": "RETRIGGER"
            },
            "ctb2High": null
          },
          "notes": []
        },
        "2": {
          "ctab": {
            "srcChannel": 2,
            "name": "VocalRoo",
            "accType": "CHORD2",
            "editable": true,
            "mutedNotes": [],
            "mutedChords": [
              "1+2+5",
              "sus4",
              "1+5",
              "1+8",
              "Maj7aug",
              "dim",
              "minMaj7(9)",
              "minMaj7",
              "min6",
              "min",
              "aug",
              "Maj6(9)",
              "Maj7(9)",
              "Maj(9)",
              "Maj7#11",
              "Maj7",
              "Maj6",
              "Maj"
            ],
            "autoStart": false,
            "sourceChordNote": 0,
            "sourceChordType": "Maj7",
            "ctb2Low": null,
            "ctb2Main": {
              "ntr": "ROOT_TRANSPOSITION",
              "ntt": "CHORD",
              "bassOn": false,
              "chordRootUpperLimit": 3,
              "noteLowLimit": 0,
              "noteHighLimit": 127,
              "rtr": "PITCH_SHIFT"
            },
            "ctb2High": null
          },
          "notes": [
            {
              "pitch": 60,
              "velocity": 69,
              "position": 0.6666666666666666,
              "duration": 0.31875
            },
            {
              "pitch": 60,
              "velocity": 86,
              "position": 2,
              "duration": 0.31875
            },
            {
              "pitch": 60,
              "velocity": 59,
              "position": 4,
              "duration": 0.31875
            },
            {
              "pitch": 60,
              "velocity": 65,
              "position": 5.666666666666667,
              "duration": 0.31875
            },
            {
              "pitch": 60,
              "velocity": 64,
              "position": 7.166666666666667,
              "duration": 0.31875
            },
            {
              "pitch": 60,
              "velocity": 107,
              "position": 7.666666666666667,
              "duration": 1.31875
            },
            {
              "pitch": 60,
              "velocity": 49,
              "position": 9,
              "duration": 0.31875
            },
            {
              "pitch": 60,
              "velocity": 79,
              "position": 10.666666666666666,
              "duration": 0.31875
            },
            {
              "pitch": 60,
              "velocity": 62,
              "position": 12,
              "duration": 0.31875
            },
            {
              "pitch": 60,
              "velocity": 83,
              "position": 13.666666666666666,
              "duration": 0.31875
            },
            {
              "pitch": 60,
              "velocity": 55,
              "position": 14.833333333333334,
              "duration": 0.15
            },
            {
              "pitch": 60,
              "velocity": 81,
              "position": 15,
              "duration": 0.31875
            }
          ]
        },
        "8": {
          "ctab": {
            "srcChannel": 8,
            "name": "snips",
            "accType": "SUBRHYTHM",
            "editable": false,
            "mutedNotes": [],
            "mutedChords": [],
            "autoStart": true,
            "sourceChordNote": 0,
            "sourceChordType": "Maj7",
            "ctb2Low": null,
            "ctb2Main": {
              "ntr": "ROOT_FIXED",
              "ntt": "BYPASS",
              "bassOn": false,
              "chordRootUpperLimit": 6,
              "noteLowLimit": 0,
              "noteHighLimit": 127,
              "rtr": "PITCH_SHIFT"
            },
            "ctb2High": null
          },
          "notes": [
            {
              "pitch": 19,
              "velocity": 100,
              "position": 1,
              "duration": 0.24583333333333332
            },
            {
              "pitch": 19,
              "velocity": 100,
              "position": 3,
              "duration": 0.24583333333333332
            },
            {
              "pitch": 19,
              "velocity": 100,
              "position": 5,
              "duration": 0.24583333333333332
            },
            {
              "pitch": 19,
              "velocity": 100,
              "position": 7,
              "duration": 0.24583333333333332
            },
            {
              "pitch": 19,
              "velocity": 100,
              "position": 9,
              "duration": 0.24583333333333332
            },
            {
              "pitch": 19,
              "velocity": 100,
              "position": 11,
              "duration": 0.24583333333333332
            },
            {
              "pitch": 19,
              "velocity": 100,
              "position": 13,
              "duration": 0.24583333333333332
            },
            {
              "pitch": 19,
              "velocity": 100,
              "position": 15,
              "duration": 0.24583333333333332
            }
          ]
        },
        "9": {
          "ctab": {
            "srcChannel": 9,
            "name": "drums",
            "accType": "RHYTHM",
            "editable": false,
            "mutedNotes": [],
            "mutedChords": [],
            "autoStart": true,
            "sourceChordNote": 0,
            "sourceChordType": "Maj7",
            "ctb2Low": null,
            "ctb2Main": {
              "ntr": "ROOT_FIXED",
              "ntt": "BYPASS",
              "bassOn": false,
              "chordRootUpperLimit": 6,
              "noteLowLimit": 0,
              "noteHighLimit": 127,
              "rtr": "PITCH_SHIFT"
            },
            "ctb2High": null
          },
          "notes": [
            {
              "pitch": 25,
              "velocity": 58,
              "position": 0,
              "duration": 0.016666666666666666
            },
            {
              "pitch": 51,
              "velocity": 70,
              "position": 0,
              "duration": 0.0375
            },
            {
              "pitch": 33,
              "velocity": 67,
              "position": 0,
              "duration": 0.12083333333333333
            },
            {
              "pitch": 26,
              "velocity": 58,
              "position": 0,
              "duration": 0.75
            },
            {
              "pitch": 44,
              "velocity": 82,
              "position": 1,
              "duration": 0.016666666666666666
            },
            {
              "pitch": 51,
              "velocity": 70,
              "position": 1,
              "duration": 0.0375
            },
            {
              "pitch": 27,
              "velocity": 119,
              "position": 1,
              "duration": 0.12083333333333333
            },
            {
              "pitch": 25,
              "velocity": 22,
              "position": 1.71875,
              "duration": 0.016666666666666666
            },
            {
              "pitch": 25,
              "velocity": 58,
              "position": 2,
              "duration": 0.016666666666666666
            },
            {
              "pitch": 51,
              "velocity": 70,
              "position": 2,
              "duration": 0.0375
            },
            {
              "pitch": 33,
              "velocity": 67,
              "position": 2,
              "duration": 0.12083333333333333
            },
            {
              "pitch": 26,
              "velocity": 52,
              "position": 2,
              "duration": 0.75
            },
            {
              "pitch": 44,
              "velocity": 82,
              "position": 3,
              "duration": 0.016666666666666666
            },
            {
              "pitch": 51,
              "velocity": 70,
              "position": 3,
              "duration": 0.0375
            },
            {
              "pitch": 27,
              "velocity": 119,
              "position": 3,
              "duration": 0.12083333333333333
            },
            {
              "pitch": 25,
              "velocity": 22,
              "position": 3.71875,
              "duration": 0.016666666666666666
            },
            {
              "pitch": 25,
              "velocity": 58,
              "position": 4,
              "duration": 0.016666666666666666
            },
            {
              "pitch": 51,
              "velocity": 70,
              "position": 4,
              "duration": 0.0375
            },
            {
              "pitch": 33,
              "velocity": 67,
              "position": 4,
              "duration": 0.12083333333333333
            },
            {
              "pitch": 26,
              "velocity": 52,
              "position": 4,
              "duration": 0.75
            },
            {
              "pitch": 44,
              "velocity": 82,
              "position": 5,
              "duration": 0.016666666666666666
            },
            {
              "pitch": 51,
              "velocity": 70,
              "position": 5,
              "duration": 0.0375
            },
            {
              "pitch": 27,
              "velocity": 119,
              "position": 5,
              "duration": 0.12083333333333333
            },
            {
              "pitch": 25,
              "velocity": 22,
              "position": 5.71875,
              "duration": 0.016666666666666666
            },
            {
              "pitch": 25,
              "velocity": 58,
              "position": 6,
              "duration": 0.016666666666666666
            },
            {
              "pitch": 51,
              "velocity": 70,
              "position": 6,
              "duration": 0.0375
            },
            {
              "pitch": 33,
              "velocity": 67,
              "position": 6,
              "duration": 0.12083333333333333
            },
            {
              "pitch": 26,
              "velocity": 52,
              "position": 6,
              "duration": 0.75
            },
            {
              "pitch": 44,
              "velocity": 82,
              "position": 7,
              "duration": 0.016666666666666666
            },
            {
              "pitch": 51,
              "velocity": 70,
              "position": 7,
              "duration": 0.0375
            },
            {
              "pitch": 27,
              "velocity": 119,
              "position": 7,
              "duration": 0.12083333333333333
            },
            {
              "pitch": 25,
              "velocity": 22,
              "position": 7.71875,
              "duration": 0.016666666666666666
            },
            {
              "pitch": 25,
              "velocity": 58,
              "position": 8,
              "duration": 0.016666666666666666
            },
            {
              "pitch": 51,
              "velocity": 70,
              "position": 8,
              "duration": 0.0375
            },
            {
              "pitch": 33,
              "velocity": 67,
              "position": 8,
              "duration": 0.12083333333333333
            },
            {
              "pitch": 26,
              "velocity": 52,
              "position": 8,
              "duration": 0.75
            },
            {
              "pitch": 44,
              "velocity": 82,
              "position": 9,
              "duration": 0.016666666666666666
            },
            {
              "pitch": 51,
              "velocity": 70,
              "position": 9,
              "duration": 0.0375
            },
            {
              "pitch": 27,
              "velocity": 119,
              "position": 9,
              "duration": 0.12083333333333333
            },
            {
              "pitch": 25,
              "velocity": 22,
              "position": 9.71875,
              "duration": 0.016666666666666666
            },
            {
              "pitch": 25,
              "velocity": 58,
              "position": 10,
              "duration": 0.016666666666666666
            },
            {
              "pitch": 51,
              "velocity": 70,
              "position": 10,
              "duration": 0.0375
            },
            {
              "pitch": 33,
              "velocity": 67,
              "position": 10,
              "duration": 0.12083333333333333
            },
            {
              "pitch": 26,
              "velocity": 52,
              "position": 10,
              "duration": 0.75
            },
            {
              "pitch": 44,
              "velocity": 82,
              "position": 11,
              "duration": 0.016666666666666666
            },
            {
              "pitch": 51,
              "velocity": 70,
              "position": 11,
              "duration": 0.0375
            },
            {
              "pitch": 27,
              "velocity": 119,
              "position": 11,
              "duration": 0.12083333333333333
            },
            {
              "pitch": 25,
              "velocity": 22,
              "position": 11.71875,
              "duration": 0.016666666666666666
            },
            {
              "pitch": 25,
              "velocity": 58,
              "position": 12,
              "duration": 0.016666666666666666
            },
            {
              "pitch": 51,
              "velocity": 70,
              "position": 12,
              "duration": 0.0375
            },
            {
              "pitch": 33,
              "velocity": 67,
              "position": 12,
              "duration": 0.12083333333333333
            },
            {
              "pitch": 26,
              "velocity": 52,
              "position": 12,
              "duration": 0.75
            },
            {
              "pitch": 44,
              "velocity": 82,
              "position": 13,
              "duration": 0.016666666666666666
            },
            {
              "pitch": 51,
              "velocity": 70,
              "position": 13,
              "duration": 0.0375
            },
            {
              "pitch": 27,
              "velocity": 119,
              "position": 13,
              "duration": 0.12083333333333333
            },
            {
              "pitch": 25,
              "velocity": 22,
              "position": 13.71875,
              "duration": 0.016666666666666666
            },
            {
              "pitch": 25,
              "velocity": 58,
              "position": 14,
              "duration": 0.016666666666666666
            },
            {
              "pitch": 51,
              "velocity": 70,
              "position": 14,
              "duration": 0.0375
            },
            {
              "pitch": 33,
              "velocity": 67,
              "position": 14,
              "duration": 0.12083333333333333
            },
            {
              "pitch": 26,
              "velocity": 52,
              "position": 14,
              "duration": 0.75
            },
            {
              "pitch": 44,
              "velocity": 82,
              "position": 15,
              "duration": 0.016666666666666666
            },
            {
              "pitch": 51,
              "velocity": 70,
              "position": 15,
              "duration": 0.0375
            },
            {
              "pitch": 27,
              "velocity": 119,
              "position": 15,
              "duration": 0.12083333333333333
            },
            {
              "pitch": 25,
              "velocity": 22,
              "position": 15.71875,
              "duration": 0.016666666666666666
            }
          ]
        },
        "10": {
          "ctab": {
            "srcChannel": 10,
            "name": "Bass",
            "accType": "BASS",
            "editable": false,
            "mutedNotes": [],
            "mutedChords": [],
            "autoStart": false,
            "sourceChordNote": 0,
            "sourceChordType": "Maj7",
            "ctb2Low": null,
            "ctb2Main": {
              "ntr": "ROOT_TRANSPOSITION",
              "ntt": "MELODY",
              "bassOn": true,
              "chordRootUpperLimit": 3,
              "noteLowLimit": 28,
              "noteHighLimit": 127,
              "rtr": "PITCH_SHIFT_TO_ROOT"
            },
            "ctb2High": null
          },
          "notes": [
            {
              "pitch": 24,
              "velocity": 117,
              "position": 0,
              "duration": 1.7875
            },
            {
              "pitch": 31,
              "velocity": 117,
              "position": 2,
              "duration": 1.7875
            },
            {
              "pitch": 24,
              "velocity": 117,
              "position": 4,
              "duration": 1.7875
            },
            {
              "pitch": 31,
              "velocity": 117,
              "position": 6,
              "duration": 1.5020833333333334
            },
            {
              "pitch": 31,
              "velocity": 86,
              "position": 7.645833333333333,
              "duration": 0.24583333333333332
            },
            {
              "pitch": 24,
              "velocity": 117,
              "position": 8,
              "duration": 1.7875
            },
            {
              "pitch": 31,
              "velocity": 117,
              "position": 10,
              "duration": 1.7875
            },
            {
              "pitch": 24,
              "velocity": 117,
              "position": 12,
              "duration": 1.7875
            },
            {
              "pitch": 31,
              "velocity": 117,
              "position": 14,
              "duration": 1.7875
            }
          ]
        },
        "11": {
          "ctab": {
            "srcChannel": 11,
            "name": "J Gtr",
            "accType": "CHORD1",
            "editable": false,
            "mutedNotes": [],
            "mutedChords": [],
            "autoStart": false,
            "sourceChordNote": 0,
            "sourceChordType": "Maj7",
            "ctb2Low": null,
            "ctb2Main": {
              "ntr": "ROOT_FIXED",
              "ntt": "CHORD",
              "bassOn": false,
              "chordRootUpperLimit": 7,
              "noteLowLimit": 0,
              "noteHighLimit": 127,
              "rtr": "PITCH_SHIFT"
            },
            "ctb2High": null
          },
          "notes": [
            {
              "pitch": 55,
              "velocity": 46,
              "position": 0,
              "duration": 0.9854166666666667
            },
            {
              "pitch": 59,
              "velocity": 46,
              "position": 0,
              "duration": 0.9854166666666667
            },
            {
              "pitch": 64,
              "velocity": 46,
              "position": 0,
              "duration": 0.9854166666666667
            },
            {
              "pitch": 55,
              "velocity": 95,
              "position": 1,
              "duration": 0.20416666666666666
            },
            {
              "pitch": 59,
              "velocity": 95,
              "position": 1,
              "duration": 0.20416666666666666
            },
            {
              "pitch": 64,
              "velocity": 95,
              "position": 1,
              "duration": 0.20416666666666666
            },
            {
              "pitch": 55,
              "velocity": 48,
              "position": 2,
              "duration": 0.9854166666666667
            },
            {
              "pitch": 59,
              "velocity": 48,
              "position": 2,
              "duration": 0.9854166666666667
            },
            {
              "pitch": 64,
              "velocity": 48,
              "position": 2,
              "duration": 0.9854166666666667
            },
            {
              "pitch": 55,
              "velocity": 89,
              "position": 3,
              "duration": 0.20416666666666666
            },
            {
              "pitch": 59,
              "velocity": 89,
              "position": 3,
              "duration": 0.20416666666666666
            },
            {
              "pitch": 64,
              "velocity": 89,
              "position": 3,
              "duration": 0.20416666666666666
            },
            {
              "pitch": 55,
              "velocity": 48,
              "position": 4,
              "duration": 0.9854166666666667
            },
            {
              "pitch": 59,
              "velocity": 48,
              "position": 4,
              "duration": 0.9854166666666667
            },
            {
              "pitch": 64,
              "velocity": 48,
              "position": 4,
              "duration": 0.9854166666666667
            },
            {
              "pitch": 55,
              "velocity": 89,
              "position": 5,
              "duration": 0.20416666666666666
            },
            {
              "pitch": 59,
              "velocity": 89,
              "position": 5,
              "duration": 0.20416666666666666
            },
            {
              "pitch": 64,
              "velocity": 89,
              "position": 5,
              "duration": 0.20416666666666666
            },
            {
              "pitch": 55,
              "velocity": 46,
              "position": 6,
              "duration": 0.9854166666666667
            },
            {
              "pitch": 59,
              "velocity": 46,
              "position": 6,
              "duration": 0.9854166666666667
            },
            {
              "pitch": 64,
              "velocity": 46,
              "position": 6,
              "duration": 0.9854166666666667
            },
            {
              "pitch": 55,
              "velocity": 89,
              "position": 7,
              "duration": 0.20416666666666666
            },
            {
              "pitch": 59,
              "velocity": 89,
              "position": 7,
              "duration": 0.20416666666666666
            },
            {
              "pitch": 64,
              "velocity": 89,
              "position": 7,
              "duration": 0.20416666666666666
            },
            {
              "pitch": 55,
              "velocity": 48,
              "position": 7.708333333333333,
              "duration": 0.27708333333333335
            },
            {
              "pitch": 59,
              "velocity": 48,
              "position": 7.708333333333333,
              "duration": 0.27708333333333335
            },
            {
              "pitch": 64,
              "velocity": 48,
              "position": 7.708333333333333,
              "duration": 0.27708333333333335
            },
            {
              "pitch": 55,
              "velocity": 75,
              "position": 8,
              "duration": 0.69375
            },
            {
              "pitch": 59,
              "velocity": 75,
              "position": 8,
              "duration": 0.69375
            },
            {
              "pitch": 64,
              "velocity": 75,
              "position": 8,
              "duration": 0.69375
            },
            {
              "pitch": 55,
              "velocity": 62,
              "position": 8.708333333333334,
              "duration": 0.27708333333333335
            },
            {
              "pitch": 59,
              "velocity": 62,
              "position": 8.708333333333334,
              "duration": 0.27708333333333335
            },
            {
              "pitch": 64,
              "velocity": 62,
              "position": 8.708333333333334,
              "duration": 0.27708333333333335
            },
            {
              "pitch": 55,
              "velocity": 99,
              "position": 9,
              "duration": 0.20416666666666666
            },
            {
              "pitch": 59,
              "velocity": 99,
              "position": 9,
              "duration": 0.20416666666666666
            },
            {
              "pitch": 64,
              "velocity": 99,
              "position": 9,
              "duration": 0.20416666666666666
            },
            {
              "pitch": 55,
              "velocity": 42,
              "position": 10,
              "duration": 0.9854166666666667
            },
            {
              "pitch": 59,
              "velocity": 42,
              "position": 10,
              "duration": 0.9854166666666667
            },
            {
              "pitch": 64,
              "velocity": 42,
              "position": 10,
              "duration": 0.9854166666666667
            },
            {
              "pitch": 55,
              "velocity": 89,
              "position": 11,
              "duration": 0.20416666666666666
            },
            {
              "pitch": 59,
              "velocity": 89,
              "position": 11,
              "duration": 0.20416666666666666
            },
            {
              "pitch": 64,
              "velocity": 89,
              "position": 11,
              "duration": 0.20416666666666666
            },
            {
              "pitch": 55,
              "velocity": 48,
              "position": 12,
              "duration": 0.9854166666666667
            },
            {
              "pitch": 59,
              "velocity": 48,
              "position": 12,
              "duration": 0.9854166666666667
            },
            {
              "pitch": 64,
              "velocity": 48,
              "position": 12,
              "duration": 0.9854166666666667
            },
            {
              "pitch": 55,
              "velocity": 89,
              "position": 13,
              "duration": 0.20416666666666666
            },
            {
              "pitch": 59,
              "velocity": 89,
              "position": 13,
              "duration": 0.20416666666666666
            },
            {
              "pitch": 64,
              "velocity": 89,
              "position": 13,
              "duration": 0.20416666666666666
            },
            {
              "pitch": 55,
              "velocity": 38,
              "position": 14,
              "duration": 0.9854166666666667
            },
            {
              "pitch": 59,
              "velocity": 38,
              "position": 14,
              "duration": 0.9854166666666667
            },
            {
              "pitch": 64,
              "velocity": 38,
              "position": 14,
              "duration": 0.9854166666666667
            },
            {
              "pitch": 55,
              "velocity": 89,
              "position": 15,
              "duration": 0.20416666666666666
            },
            {
              "pitch": 59,
              "velocity": 89,
              "position": 15,
              "duration": 0.20416666666666666
            },
            {
              "pitch": 64,
              "velocity": 89,
              "position": 15,
              "duration": 0.20416666666666666
            }
          ]
        },
        "12": {
          "ctab": {
            "srcChannel": 12,
            "name": "Vocal",
            "accType": "CHORD2",
            "editable": false,
            "mutedNotes": [],
            "mutedChords": [],
            "autoStart": false,
            "sourceChordNote": 0,
            "sourceChordType": "Maj7",
            "ctb2Low": null,
            "ctb2Main": {
              "ntr": "ROOT_FIXED",
              "ntt": "CHORD",
              "bassOn": false,
              "chordRootUpperLimit": 7,
              "noteLowLimit": 0,
              "noteHighLimit": 127,
              "rtr": "PITCH_SHIFT"
            },
            "ctb2High": null
          },
          "notes": [
            {
              "pitch": 52,
              "velocity": 68,
              "position": 0.6666666666666666,
              "duration": 0.31875
            },
            {
              "pitch": 55,
              "velocity": 62,
              "position": 0.6666666666666666,
              "duration": 0.31875
            },
            {
              "pitch": 59,
              "velocity": 69,
              "position": 0.6666666666666666,
              "duration": 0.31875
            },
            {
              "pitch": 52,
              "velocity": 86,
              "position": 2,
              "duration": 0.31875
            },
            {
              "pitch": 55,
              "velocity": 86,
              "position": 2,
              "duration": 0.31875
            },
            {
              "pitch": 59,
              "velocity": 86,
              "position": 2,
              "duration": 0.31875
            },
            {
              "pitch": 52,
              "velocity": 56,
              "position": 4,
              "duration": 0.31875
            },
            {
              "pitch": 55,
              "velocity": 59,
              "position": 4,
              "duration": 0.31875
            },
            {
              "pitch": 59,
              "velocity": 59,
              "position": 4,
              "duration": 0.31875
            },
            {
              "pitch": 52,
              "velocity": 56,
              "position": 5.666666666666667,
              "duration": 0.31875
            },
            {
              "pitch": 55,
              "velocity": 61,
              "position": 5.666666666666667,
              "duration": 0.31875
            },
            {
              "pitch": 59,
              "velocity": 65,
              "position": 5.666666666666667,
              "duration": 0.31875
            },
            {
              "pitch": 52,
              "velocity": 64,
              "position": 7.166666666666667,
              "duration": 0.31875
            },
            {
              "pitch": 55,
              "velocity": 64,
              "position": 7.166666666666667,
              "duration": 0.31875
            },
            {
              "pitch": 59,
              "velocity": 64,
              "position": 7.166666666666667,
              "duration": 0.31875
            },
            {
              "pitch": 55,
              "velocity": 103,
              "position": 7.666666666666667,
              "duration": 1.31875
            },
            {
              "pitch": 59,
              "velocity": 104,
              "position": 7.666666666666667,
              "duration": 1.31875
            },
            {
              "pitch": 64,
              "velocity": 104,
              "position": 7.666666666666667,
              "duration": 1.31875
            },
            {
              "pitch": 52,
              "velocity": 42,
              "position": 9,
              "duration": 0.31875
            },
            {
              "pitch": 55,
              "velocity": 54,
              "position": 9,
              "duration": 0.31875
            },
            {
              "pitch": 59,
              "velocity": 49,
              "position": 9,
              "duration": 0.31875
            },
            {
              "pitch": 52,
              "velocity": 79,
              "position": 10.666666666666666,
              "duration": 0.31875
            },
            {
              "pitch": 55,
              "velocity": 79,
              "position": 10.666666666666666,
              "duration": 0.31875
            },
            {
              "pitch": 59,
              "velocity": 79,
              "position": 10.666666666666666,
              "duration": 0.31875
            },
            {
              "pitch": 52,
              "velocity": 62,
              "position": 12,
              "duration": 0.31875
            },
            {
              "pitch": 55,
              "velocity": 62,
              "position": 12,
              "duration": 0.31875
            },
            {
              "pitch": 59,
              "velocity": 62,
              "position": 12,
              "duration": 0.31875
            },
            {
              "pitch": 52,
              "velocity": 76,
              "position": 13.666666666666666,
              "duration": 0.31875
            },
            {
              "pitch": 55,
              "velocity": 76,
              "position": 13.666666666666666,
              "duration": 0.31875
            },
            {
              "pitch": 59,
              "velocity": 76,
              "position": 13.666666666666666,
              "duration": 0.31875
            },
            {
              "pitch": 52,
              "velocity": 77,
              "position": 15,
              "duration": 0.31875
            },
            {
              "pitch": 55,
              "velocity": 77,
              "position": 15,
              "duration": 0.31875
            },
            {
              "pitch": 59,
              "velocity": 77,
              "position": 15,
              "duration": 0.31875
            }
          ]
        },
        "14": {
          "ctab": {
            "srcChannel": 14,
            "name": "DOM",
            "accType": "PHRASE1",
            "editable": false,
            "mutedNotes": [],
            "mutedChords": [],
            "autoStart": false,
            "sourceChordNote": 0,
            "sourceChordType": "Maj7",
            "ctb2Low": null,
            "ctb2Main": {
              "ntr": "ROOT_TRANSPOSITION",
              "ntt": "MELODY",
              "bassOn": true,
              "chordRootUpperLimit": 0,
              "noteLowLimit": 35,
              "noteHighLimit": 127,
              "rtr": "PITCH_SHIFT_TO_ROOT"
            },
            "ctb2High": null
          },
          "notes": [
            {
              "pitch": 36,
              "velocity": 127,
              "position": 0,
              "duration": 0.9854166666666667
            },
            {
              "pitch": 43,
              "velocity": 90,
              "position": 2,
              "duration": 0.9854166666666667
            },
            {
              "pitch": 36,
              "velocity": 109,
              "position": 4,
              "duration": 0.8083333333333333
            },
            {
              "pitch": 36,
              "velocity": 89,
              "position": 5,
              "duration": 0.11458333333333333
            },
            {
              "pitch": 48,
              "velocity": 73,
              "position": 5.71875,
              "duration": 0.9833333333333333
            },
            {
              "pitch": 43,
              "velocity": 70,
              "position": 6.71875,
              "duration": 0.20416666666666666
            },
            {
              "pitch": 45,
              "velocity": 89,
              "position": 7,
              "duration": 0.9854166666666667
            },
            {
              "pitch": 36,
              "velocity": 111,
              "position": 8,
              "duration": 0.9854166666666667
            },
            {
              "pitch": 43,
              "velocity": 108,
              "position": 10,
              "duration": 0.9854166666666667
            },
            {
              "pitch": 36,
              "velocity": 113,
              "position": 12,
              "duration": 1.7041666666666666
            },
            {
              "pitch": 43,
              "velocity": 112,
              "position": 13.71875,
              "duration": 0.9854166666666667
            },
            {
              "pitch": 45,
              "velocity": 91,
              "position": 14.71875,
              "duration": 0.20416666666666666
            },
            {
              "pitch": 43,
              "velocity": 109,
              "position": 15,
              "duration": 0.49583333333333335
            }
          ]
        }
      }
    },
    "Fill_In_AA": {
      "type": "Fill_In_AA",
      "sizeInBeats": 4,
      "channels": {
        "0": {
          "ctab": {
            "srcChannel": 0,
            "name": "CC_Crash",
            "accType": "RHYTHM",
            "editable": false,
            "mutedNotes": [],
            "mutedChords": [
              "1+2+5",
              "sus4",
              "1+5",
              "1+8",
              "7aug",
              "Maj7aug",
              "7(#9)",
              "7(b13)",
              "7(b9)",
              "7(13)",
              "7#11",
              "7(9)",
              "7b5",
              "7sus4",
              "7th",
              "dim7",
              "dim",
              "minMaj7(9)",
              "minMaj7",
              "min7(11)",
              "min7(9)",
              "min(9)",
              "m7b5",
              "min7",
              "min6",
              "min",
              "aug",
              "Maj6(9)",
              "Maj7(9)",
              "Maj(9)",
              "Maj7#11",
              "Maj7",
              "Maj6",
              "Maj"
            ],
            "autoStart": true,
            "sourceChordNote": 0,
            "sourceChordType": "Maj",
            "ctb2Low": null,
            "ctb2Main": {
              "ntr": "ROOT_FIXED",
              "ntt": "BYPASS",
              "bassOn": false,
              "chordRootUpperLimit": 0,
              "noteLowLimit": 0,
              "noteHighLimit": 127,
              "rtr": "RETRIGGER"
            },
            "ctb2High": null
          },
          "notes": []
        },
        "2": {
          "ctab": {
            "srcChannel": 2,
            "name": "VocalRoo",
            "accType": "CHORD2",
            "editable": true,
            "mutedNotes": [],
            "mutedChords": [
              "1+2+5",
              "sus4",
              "1+5",
              "1+8",
              "Maj7aug",
              "dim",
              "minMaj7(9)",
              "minMaj7",
              "min6",
              "min",
              "aug",
              "Maj6(9)",
              "Maj7(9)",
              "Maj(9)",
              "Maj7#11",
              "Maj7",
              "Maj6",
              "Maj"
            ],
            "autoStart": false,
            "sourceChordNote": 0,
            "sourceChordType": "Maj7",
            "ctb2Low": null,
            "ctb2Main": {
              "ntr": "ROOT_TRANSPOSITION",
              "ntt": "CHORD",
              "bassOn": false,
              "chordRootUpperLimit": 3,
              "noteLowLimit": 0,
              "noteHighLimit": 127,
              "rtr": "PITCH_SHIFT"
            },
            "ctb2High": null
          },
          "notes": []
        },
        "8": {
          "ctab": {
            "srcChannel": 8,
            "name": "snips",
            "accType": "SUBRHYTHM",
            "editable": false,
            "mutedNotes": [],
            "mutedChords": [],
            "autoStart": true,
            "sourceChordNote": 0,
            "sourceChordType": "Maj7",
            "ctb2Low": null,
            "ctb2Main": {
              "ntr": "ROOT_FIXED",
              "ntt": "BYPASS",
              "bassOn": false,
              "chordRootUpperLimit": 6,
              "noteLowLimit": 0,
              "noteHighLimit": 127,
              "rtr": "PITCH_SHIFT"
            },
            "ctb2High": null
          },
          "notes": [
            {
              "pitch": 19,
              "velocity": 100,
              "position": 1,
              "duration": 0.24583333333333332
            },
            {
              "pitch": 19,
              "velocity": 100,
              "position": 3,
              "duration": 0.24583333333333332
            }
          ]
        },
        "9": {
          "ctab": {
            "srcChannel": 9,
            "name": "drums",
            "accType": "RHYTHM",
            "editable": false,
            "mutedNotes": [],
            "mutedChords": [],
            "autoStart": true,
            "sourceChordNote": 0,
            "sourceChordType": "Maj7",
            "ctb2Low": null,
            "ctb2Main": {
              "ntr": "ROOT_FIXED",
              "ntt": "BYPASS",
              "bassOn": false,
              "chordRootUpperLimit": 6,
              "noteLowLimit": 0,
              "noteHighLimit": 127,
              "rtr": "PITCH_SHIFT"
            },
            "ctb2High": null
          },
          "notes": [
            {
              "pitch": 25,
              "velocity": 58,
              "position": 0,
              "duration": 0.016666666666666666
            },
            {
              "pitch": 33,
              "velocity": 72,
              "position": 0,
              "duration": 0.12083333333333333
            },
            {
              "pitch": 28,
              "velocity": 50,
              "position": 0,
              "duration": 0.9854166666666667
            },
            {
              "pitch": 25,
              "velocity": 74,
              "position": 1,
              "duration": 0.016666666666666666
            },
            {
              "pitch": 44,
              "velocity": 76,
              "position": 1,
              "duration": 0.016666666666666666
            },
            {
              "pitch": 25,
              "velocity": 30,
              "position": 1.71875,
              "duration": 0.016666666666666666
            },
            {
              "pitch": 25,
              "velocity": 58,
              "position": 2,
              "duration": 0.016666666666666666
            },
            {
              "pitch": 33,
              "velocity": 72,
              "position": 2,
              "duration": 0.12083333333333333
            },
            {
              "pitch": 28,
              "velocity": 50,
              "position": 2,
              "duration": 0.5
            },
            {
              "pitch": 25,
              "velocity": 18,
              "position": 2.5,
              "duration": 0.016666666666666666
            },
            {
              "pitch": 25,
              "velocity": 26,
              "position": 2.6666666666666665,
              "duration": 0.016666666666666666
            },
            {
              "pitch": 25,
              "velocity": 42,
              "position": 2.8333333333333335,
              "duration": 0.016666666666666666
            },
            {
              "pitch": 27,
              "velocity": 114,
              "position": 3,
              "duration": 0.016666666666666666
            },
            {
              "pitch": 44,
              "velocity": 84,
              "position": 3,
              "duration": 0.016666666666666666
            },
            {
              "pitch": 25,
              "velocity": 30,
              "position": 3.71875,
              "duration": 0.016666666666666666
            },
            {
              "pitch": 57,
              "velocity": 54,
              "position": 3.9895833333333335,
              "duration": 0.00625
            }
          ]
        },
        "10": {
          "ctab": {
            "srcChannel": 10,
            "name": "Bass",
            "accType": "BASS",
            "editable": false,
            "mutedNotes": [],
            "mutedChords": [],
            "autoStart": false,
            "sourceChordNote": 0,
            "sourceChordType": "Maj7",
            "ctb2Low": null,
            "ctb2Main": {
              "ntr": "ROOT_TRANSPOSITION",
              "ntt": "MELODY",
              "bassOn": true,
              "chordRootUpperLimit": 3,
              "noteLowLimit": 28,
              "noteHighLimit": 127,
              "rtr": "PITCH_SHIFT_TO_ROOT"
            },
            "ctb2High": null
          },
          "notes": [
            {
              "pitch": 24,
              "velocity": 117,
              "position": 0,
              "duration": 1.7875
            },
            {
              "pitch": 31,
              "velocity": 117,
              "position": 2,
              "duration": 1.7875
            }
          ]
        },
        "11": {
          "ctab": {
            "srcChannel": 11,
            "name": "J Gtr",
            "accType": "CHORD1",
            "editable": false,
            "mutedNotes": [],
            "mutedChords": [],
            "autoStart": false,
            "sourceChordNote": 0,
            "sourceChordType": "Maj7",
            "ctb2Low": null,
            "ctb2Main": {
              "ntr": "ROOT_FIXED",
              "ntt": "CHORD",
              "bassOn": false,
              "chordRootUpperLimit": 7,
              "noteLowLimit": 0,
              "noteHighLimit": 127,
              "rtr": "PITCH_SHIFT"
            },
            "ctb2High": null
          },
          "notes": [
            {
              "pitch": 52,
              "velocity": 38,
              "position": 0,
              "duration": 0.9854166666666667
            },
            {
              "pitch": 55,
              "velocity": 38,
              "position": 0,
              "duration": 0.9854166666666667
            },
            {
              "pitch": 59,
              "velocity": 38,
              "position": 0,
              "duration": 0.9854166666666667
            },
            {
              "pitch": 52,
              "velocity": 80,
              "position": 1,
              "duration": 0.20416666666666666
            },
            {
              "pitch": 55,
              "velocity": 80,
              "position": 1,
              "duration": 0.20416666666666666
            },
            {
              "pitch": 59,
              "velocity": 80,
              "position": 1,
              "duration": 0.20416666666666666
            },
            {
              "pitch": 52,
              "velocity": 27,
              "position": 2,
              "duration": 0.9854166666666667
            },
            {
              "pitch": 55,
              "velocity": 27,
              "position": 2,
              "duration": 0.9854166666666667
            },
            {
              "pitch": 59,
              "velocity": 27,
              "position": 2,
              "duration": 0.9854166666666667
            },
            {
              "pitch": 52,
              "velocity": 80,
              "position": 3,
              "duration": 0.20416666666666666
            },
            {
              "pitch": 55,
              "velocity": 80,
              "position": 3,
              "duration": 0.20416666666666666
            },
            {
              "pitch": 59,
              "velocity": 80,
              "position": 3,
              "duration": 0.20416666666666666
            }
          ]
        },
        "12": {
          "ctab": {
            "srcChannel": 12,
            "name": "Vocal",
            "accType": "CHORD2",
            "editable": false,
            "mutedNotes": [],
            "mutedChords": [],
            "autoStart": false,
            "sourceChordNote": 0,
            "sourceChordType": "Maj7",
            "ctb2Low": null,
            "ctb2Main": {
              "ntr": "ROOT_FIXED",
              "ntt": "CHORD",
              "bassOn": false,
              "chordRootUpperLimit": 7,
              "noteLowLimit": 0,
              "noteHighLimit": 127,
              "rtr": "PITCH_SHIFT"
            },
            "ctb2High": null
          },
          "notes": [
            {
              "pitch": 64,
              "velocity": 63,
              "position": 0,
              "duration": 1.3145833333333334
            },
            {
              "pitch": 55,
              "velocity": 66,
              "position": 0,
              "duration": 1.3270833333333334
            },
            {
              "pitch": 59,
              "velocity": 65,
              "position": 0,
              "duration": 1.3666666666666667
            },
            {
              "pitch": 59,
              "velocity": 92,
              "position": 1.6666666666666667,
              "duration": 0.38958333333333334
            },
            {
              "pitch": 55,
              "velocity": 94,
              "position": 1.6666666666666667,
              "duration": 0.42291666666666666
            },
            {
              "pitch": 52,
              "velocity": 92,
              "position": 1.6666666666666667,
              "duration": 0.4708333333333333
            }
          ]
        },
        "14": {
          "ctab": {
            "srcChannel": 14,
            "name": "DOM",
            "accType": "PHRASE1",
            "editable": false,
            "mutedNotes": [],
            "mutedChords": [],
            "autoStart": false,
            "sourceChordNote": 0,
            "sourceChordType": "Maj7",
            "ctb2Low": null,
            "ctb2Main": {
              "ntr": "ROOT_TRANSPOSITION",
              "ntt": "MELODY",
              "bassOn": true,
              "chordRootUpperLimit": 0,
              "noteLowLimit": 35,
              "noteHighLimit": 127,
              "rtr": "PITCH_SHIFT_TO_ROOT"
            },
            "ctb2High": null
          },
          "notes": []
        }
      }
    },
    "Fill_In_BB": {
      "type": "Fill_In_BB",
      "sizeInBeats": 4,
      "channels": {
        "0": {
          "ctab": {
            "srcChannel": 0,
            "name": "CC_Crash",
            "accType": "RHYTHM",
            "editable": false,
            "mutedNotes": [],
            "mutedChords": [
              "1+2+5",
              "sus4",
              "1+5",
              "1+8",
              "7aug",
              "Maj7aug",
              "7(#9)",
              "7(b13)",
              "7(b9)",
              "7(13)",
              "7#11",
              "7(9)",
              "7b5",
              "7sus4",
              "7th",
              "dim7",
              "dim",
              "minMaj7(9)",
              "minMaj7",
              "min7(11)",
              "min7(9)",
              "min(9)",
              "m7b5",
              "min7",
              "min6",
              "min",
              "aug",
              "Maj6(9)",
              "Maj7(9)",
              "Maj(9)",
              "Maj7#11",
              "Maj7",
              "Maj6",
              "Maj"
            ],
            "autoStart": true,
            "sourceChordNote": 0,
            "sourceChordType": "Maj",
            "ctb2Low": null,
            "ctb2Main": {
              "ntr": "ROOT_FIXED",
              "ntt": "BYPASS",
              "bassOn": false,
              "chordRootUpperLimit": 0,
              "noteLowLimit": 0,
              "noteHighLimit": 127,
              "rtr": "RETRIGGER"
            },
            "ctb2High": null
          },
          "notes": []
        },
        "2": {
          "ctab": {
            "srcChannel": 2,
            "name": "VocalRoo",
            "accType": "CHORD2",
            "editable": true,
            "mutedNotes": [],
            "mutedChords": [
              "1+2+5",
              "sus4",
              "1+5",
              "1+8",
              "Maj7aug",
              "dim",
              "minMaj7(9)",
              "minMaj7",
              "min6",
              "min",
              "aug",
              "Maj6(9)",
              "Maj7(9)",
              "Maj(9)",
              "Maj7#11",
              "Maj7",
              "Maj6",
              "Maj"
            ],
            "autoStart": false,
            "sourceChordNote": 0,
            "sourceChordType": "Maj7",
            "ctb2Low": null,
            "ctb2Main": {
              "ntr": "ROOT_TRANSPOSITION",
              "ntt": "CHORD",
              "bassOn": false,
              "chordRootUpperLimit": 3,
              "noteLowLimit": 0,
              "noteHighLimit": 127,
              "rtr": "PITCH_SHIFT"
            },
            "ctb2High": null
          },
          "notes": [
            {
              "pitch": 60,
              "velocity": 62,
              "position": 0,
              "duration": 0.31875
            },
            {
              "pitch": 60,
              "velocity": 76,
              "position": 1.6666666666666667,
              "duration": 0.31875
            },
            {
              "pitch": 60,
              "velocity": 71,
              "position": 3,
              "duration": 0.46458333333333335
            }
          ]
        },
        "8": {
          "ctab": {
            "srcChannel": 8,
            "name": "snips",
            "accType": "SUBRHYTHM",
            "editable": false,
            "mutedNotes": [],
            "mutedChords": [],
            "autoStart": true,
            "sourceChordNote": 0,
            "sourceChordType": "Maj7",
            "ctb2Low": null,
            "ctb2Main": {
              "ntr": "ROOT_FIXED",
              "ntt": "BYPASS",
              "bassOn": false,
              "chordRootUpperLimit": 6,
              "noteLowLimit": 0,
              "noteHighLimit": 127,
              "rtr": "PITCH_SHIFT"
            },
            "ctb2High": null
          },
          "notes": [
            {
              "pitch": 19,
              "velocity": 100,
              "position": 1,
              "duration": 0.24583333333333332
            },
            {
              "pitch": 19,
              "velocity": 100,
              "position": 3,
              "duration": 0.24583333333333332
            }
          ]
        },
        "9": {
          "ctab": {
            "srcChannel": 9,
            "name": "drums",
            "accType": "RHYTHM",
            "editable": false,
            "mutedNotes": [],
            "mutedChords": [],
            "autoStart": true,
            "sourceChordNote": 0,
            "sourceChordType": "Maj7",
            "ctb2Low": null,
            "ctb2Main": {
              "ntr": "ROOT_FIXED",
              "ntt": "BYPASS",
              "bassOn": false,
              "chordRootUpperLimit": 6,
              "noteLowLimit": 0,
              "noteHighLimit": 127,
              "rtr": "PITCH_SHIFT"
            },
            "ctb2High": null
          },
          "notes": [
            {
              "pitch": 27,
              "velocity": 112,
              "position": 0,
              "duration": 0.016666666666666666
            },
            {
              "pitch": 33,
              "velocity": 72,
              "position": 0,
              "duration": 0.12083333333333333
            },
            {
              "pitch": 28,
              "velocity": 44,
              "position": 0,
              "duration": 0.90625
            },
            {
              "pitch": 44,
              "velocity": 76,
              "position": 1,
              "duration": 0.016666666666666666
            },
            {
              "pitch": 33,
              "velocity": 61,
              "position": 1,
              "duration": 0.1625
            },
            {
              "pitch": 25,
              "velocity": 30,
              "position": 1.71875,
              "duration": 0.016666666666666666
            },
            {
              "pitch": 27,
              "velocity": 91,
              "position": 1.7083333333333333,
              "duration": 0.1625
            },
            {
              "pitch": 33,
              "velocity": 72,
              "position": 2,
              "duration": 0.12083333333333333
            },
            {
              "pitch": 25,
              "velocity": 48,
              "position": 2,
              "duration": 0.1625
            },
            {
              "pitch": 27,
              "velocity": 41,
              "position": 2.3333333333333335,
              "duration": 0.1625
            },
            {
              "pitch": 27,
              "velocity": 63,
              "position": 2.7083333333333335,
              "duration": 0.1625
            },
            {
              "pitch": 27,
              "velocity": 108,
              "position": 3,
              "duration": 0.016666666666666666
            },
            {
              "pitch": 44,
              "velocity": 84,
              "position": 3,
              "duration": 0.016666666666666666
            },
            {
              "pitch": 27,
              "velocity": 111,
              "position": 3.3333333333333335,
              "duration": 0.1625
            },
            {
              "pitch": 27,
              "velocity": 121,
              "position": 3.7083333333333335,
              "duration": 0.1625
            },
            {
              "pitch": 49,
              "velocity": 54,
              "position": 3.9895833333333335,
              "duration": 0.00625
            }
          ]
        },
        "10": {
          "ctab": {
            "srcChannel": 10,
            "name": "Bass",
            "accType": "BASS",
            "editable": false,
            "mutedNotes": [],
            "mutedChords": [],
            "autoStart": false,
            "sourceChordNote": 0,
            "sourceChordType": "Maj7",
            "ctb2Low": null,
            "ctb2Main": {
              "ntr": "ROOT_TRANSPOSITION",
              "ntt": "MELODY",
              "bassOn": true,
              "chordRootUpperLimit": 3,
              "noteLowLimit": 28,
              "noteHighLimit": 127,
              "rtr": "PITCH_SHIFT_TO_ROOT"
            },
            "ctb2High": null
          },
          "notes": [
            {
              "pitch": 24,
              "velocity": 117,
              "position": 0,
              "duration": 1.7875
            },
            {
              "pitch": 31,
              "velocity": 117,
              "position": 2,
              "duration": 1.7875
            }
          ]
        },
        "11": {
          "ctab": {
            "srcChannel": 11,
            "name": "J Gtr",
            "accType": "CHORD1",
            "editable": false,
            "mutedNotes": [],
            "mutedChords": [],
            "autoStart": false,
            "sourceChordNote": 0,
            "sourceChordType": "Maj7",
            "ctb2Low": null,
            "ctb2Main": {
              "ntr": "ROOT_FIXED",
              "ntt": "CHORD",
              "bassOn": false,
              "chordRootUpperLimit": 7,
              "noteLowLimit": 0,
              "noteHighLimit": 127,
              "rtr": "PITCH_SHIFT"
            },
            "ctb2High": null
          },
          "notes": [
            {
              "pitch": 52,
              "velocity": 38,
              "position": 0,
              "duration": 0.9854166666666667
            },
            {
              "pitch": 55,
              "velocity": 38,
              "position": 0,
              "duration": 0.9854166666666667
            },
            {
              "pitch": 59,
              "velocity": 38,
              "position": 0,
              "duration": 0.9854166666666667
            },
            {
              "pitch": 52,
              "velocity": 80,
              "position": 1,
              "duration": 0.20416666666666666
            },
            {
              "pitch": 55,
              "velocity": 80,
              "position": 1,
              "duration": 0.20416666666666666
            },
            {
              "pitch": 59,
              "velocity": 80,
              "position": 1,
              "duration": 0.20416666666666666
            },
            {
              "pitch": 52,
              "velocity": 27,
              "position": 2,
              "duration": 0.9854166666666667
            },
            {
              "pitch": 55,
              "velocity": 27,
              "position": 2,
              "duration": 0.9854166666666667
            },
            {
              "pitch": 59,
              "velocity": 27,
              "position": 2,
              "duration": 0.9854166666666667
            },
            {
              "pitch": 52,
              "velocity": 80,
              "position": 3,
              "duration": 0.20416666666666666
            },
            {
              "pitch": 55,
              "velocity": 80,
              "position": 3,
              "duration": 0.20416666666666666
            },
            {
              "pitch": 59,
              "velocity": 80,
              "position": 3,
              "duration": 0.20416666666666666
            }
          ]
        },
        "12": {
          "ctab": {
            "srcChannel": 12,
            "name": "Vocal",
            "accType": "CHORD2",
            "editable": false,
            "mutedNotes": [],
            "mutedChords": [],
            "autoStart": false,
            "sourceChordNote": 0,
            "sourceChordType": "Maj7",
            "ctb2Low": null,
            "ctb2Main": {
              "ntr": "ROOT_FIXED",
              "ntt": "CHORD",
              "bassOn": false,
              "chordRootUpperLimit": 7,
              "noteLowLimit": 0,
              "noteHighLimit": 127,
              "rtr": "PITCH_SHIFT"
            },
            "ctb2High": null
          },
          "notes": [
            {
              "pitch": 52,
              "velocity": 57,
              "position": 0,
              "duration": 0.49583333333333335
            },
            {
              "pitch": 55,
              "velocity": 57,
              "position": 0,
              "duration": 0.49583333333333335
            },
            {
              "pitch": 59,
              "velocity": 57,
              "position": 0,
              "duration": 0.49583333333333335
            },
            {
              "pitch": 52,
              "velocity": 84,
              "position": 1.6666666666666667,
              "duration": 0.49583333333333335
            },
            {
              "pitch": 55,
              "velocity": 84,
              "position": 1.6666666666666667,
              "duration": 0.49583333333333335
            },
            {
              "pitch": 59,
              "velocity": 84,
              "position": 1.6666666666666667,
              "duration": 0.49583333333333335
            },
            {
              "pitch": 55,
              "velocity": 81,
              "position": 3,
              "duration": 0.4395833333333333
            },
            {
              "pitch": 52,
              "velocity": 81,
              "position": 3,
              "duration": 0.46458333333333335
            },
            {
              "pitch": 59,
              "velocity": 81,
              "position": 3,
              "duration": 0.4791666666666667
            }
          ]
        },
        "14": {
          "ctab": {
            "srcChannel": 14,
            "name": "DOM",
            "accType": "PHRASE1",
            "editable": false,
            "mutedNotes": [],
            "mutedChords": [],
            "autoStart": false,
            "sourceChordNote": 0,
            "sourceChordType": "Maj7",
            "ctb2Low": null,
            "ctb2Main": {
              "ntr": "ROOT_TRANSPOSITION",
              "ntt": "MELODY",
              "bassOn": true,
              "chordRootUpperLimit": 0,
              "noteLowLimit": 35,
              "noteHighLimit": 127,
              "rtr": "PITCH_SHIFT_TO_ROOT"
            },
            "ctb2High": null
          },
          "notes": [
            {
              "pitch": 36,
              "velocity": 91,
              "position": 0,
              "duration": 1.3229166666666667
            },
            {
              "pitch": 43,
              "velocity": 82,
              "position": 1.6770833333333333,
              "duration": 1.2625
            },
            {
              "pitch": 43,
              "velocity": 92,
              "position": 3.7291666666666665,
              "duration": 0.25625
            }
          ]
        }
      }
    },
    "Fill_In_CC": {
      "type": "Fill_In_CC",
      "sizeInBeats": 4,
      "channels": {
        "0": {
          "ctab": {
            "srcChannel": 0,
            "name": "CC_Crash",
            "accType": "RHYTHM",
            "editable": false,
            "mutedNotes": [],
            "mutedChords": [
              "1+2+5",
              "sus4",
              "1+5",
              "1+8",
              "7aug",
              "Maj7aug",
              "7(#9)",
              "7(b13)",
              "7(b9)",
              "7(13)",
              "7#11",
              "7(9)",
              "7b5",
              "7sus4",
              "7th",
              "dim7",
              "dim",
              "minMaj7(9)",
              "minMaj7",
              "min7(11)",
              "min7(9)",
              "min(9)",
              "m7b5",
              "min7",
              "min6",
              "min",
              "aug",
              "Maj6(9)",
              "Maj7(9)",
              "Maj(9)",
              "Maj7#11",
              "Maj7",
              "Maj6",
              "Maj"
            ],
            "autoStart": true,
            "sourceChordNote": 0,
            "sourceChordType": "Maj",
            "ctb2Low": null,
            "ctb2Main": {
              "ntr": "ROOT_FIXED",
              "ntt": "BYPASS",
              "bassOn": false,
              "chordRootUpperLimit": 0,
              "noteLowLimit": 0,
              "noteHighLimit": 127,
              "rtr": "RETRIGGER"
            },
            "ctb2High": null
          },
          "notes": []
        },
        "2": {
          "ctab": {
            "srcChannel": 2,
            "name": "VocalRoo",
            "accType": "CHORD2",
            "editable": true,
            "mutedNotes": [],
            "mutedChords": [
              "1+2+5",
              "sus4",
              "1+5",
              "1+8",
              "Maj7aug",
              "dim",
              "minMaj7(9)",
              "minMaj7",
              "min6",
              "min",
              "aug",
              "Maj6(9)",
              "Maj7(9)",
              "Maj(9)",
              "Maj7#11",
              "Maj7",
              "Maj6",
              "Maj"
            ],
            "autoStart": false,
            "sourceChordNote": 0,
            "sourceChordType": "Maj7",
            "ctb2Low": null,
            "ctb2Main": {
              "ntr": "ROOT_TRANSPOSITION",
              "ntt": "CHORD",
              "bassOn": false,
              "chordRootUpperLimit": 3,
              "noteLowLimit": 0,
              "noteHighLimit": 127,
              "rtr": "PITCH_SHIFT"
            },
            "ctb2High": null
          },
          "notes": [
            {
              "pitch": 60,
              "velocity": 71,
              "position": 0,
              "duration": 0.46458333333333335
            },
            {
              "pitch": 60,
              "velocity": 88,
              "position": 1,
              "duration": 0.46458333333333335
            }
          ]
        },
        "8": {
          "ctab": {
            "srcChannel": 8,
            "name": "snips",
            "accType": "SUBRHYTHM",
            "editable": false,
            "mutedNotes": [],
            "mutedChords": [],
            "autoStart": true,
            "sourceChordNote": 0,
            "sourceChordType": "Maj7",
            "ctb2Low": null,
            "ctb2Main": {
              "ntr": "ROOT_FIXED",
              "ntt": "BYPASS",
              "bassOn": false,
              "chordRootUpperLimit": 6,
              "noteLowLimit": 0,
              "noteHighLimit": 127,
              "rtr": "PITCH_SHIFT"
            },
            "ctb2High": null
          },
          "notes": [
            {
              "pitch": 19,
              "velocity": 100,
              "position": 1,
              "duration": 0.24583333333333332
            },
            {
              "pitch": 19,
              "velocity": 100,
              "position": 3,
              "duration": 0.24583333333333332
            }
          ]
        },
        "9": {
          "ctab": {
            "srcChannel": 9,
            "name": "drums",
            "accType": "RHYTHM",
            "editable": false,
            "mutedNotes": [],
            "mutedChords": [],
            "autoStart": true,
            "sourceChordNote": 0,
            "sourceChordType": "Maj7",
            "ctb2Low": null,
            "ctb2Main": {
              "ntr": "ROOT_FIXED",
              "ntt": "BYPASS",
              "bassOn": false,
              "chordRootUpperLimit": 6,
              "noteLowLimit": 0,
              "noteHighLimit": 127,
              "rtr": "PITCH_SHIFT"
            },
            "ctb2High": null
          },
          "notes": [
            {
              "pitch": 40,
              "velocity": 59,
              "position": 0,
              "duration": 0.027083333333333334
            },
            {
              "pitch": 33,
              "velocity": 67,
              "position": 0,
              "duration": 0.12083333333333333
            },
            {
              "pitch": 27,
              "velocity": 80,
              "position": 0.3333333333333333,
              "duration": 0.027083333333333334
            },
            {
              "pitch": 27,
              "velocity": 119,
              "position": 0.6666666666666666,
              "duration": 0.027083333333333334
            },
            {
              "pitch": 44,
              "velocity": 82,
              "position": 1,
              "duration": 0.016666666666666666
            },
            {
              "pitch": 40,
              "velocity": 59,
              "position": 1,
              "duration": 0.027083333333333334
            },
            {
              "pitch": 27,
              "velocity": 95,
              "position": 1.71875,
              "duration": 0.016666666666666666
            },
            {
              "pitch": 40,
              "velocity": 74,
              "position": 1.7083333333333333,
              "duration": 0.027083333333333334
            },
            {
              "pitch": 57,
              "velocity": 54,
              "position": 1.7083333333333333,
              "duration": 0.027083333333333334
            },
            {
              "pitch": 33,
              "velocity": 67,
              "position": 2,
              "duration": 0.12083333333333333
            },
            {
              "pitch": 27,
              "velocity": 85,
              "position": 2.71875,
              "duration": 0.016666666666666666
            },
            {
              "pitch": 44,
              "velocity": 82,
              "position": 3,
              "duration": 0.016666666666666666
            },
            {
              "pitch": 40,
              "velocity": 59,
              "position": 3,
              "duration": 0.027083333333333334
            },
            {
              "pitch": 40,
              "velocity": 74,
              "position": 3.7083333333333335,
              "duration": 0.027083333333333334
            },
            {
              "pitch": 49,
              "velocity": 54,
              "position": 3.9895833333333335,
              "duration": 0.010416666666666666
            }
          ]
        },
        "10": {
          "ctab": {
            "srcChannel": 10,
            "name": "Bass",
            "accType": "BASS",
            "editable": false,
            "mutedNotes": [],
            "mutedChords": [],
            "autoStart": false,
            "sourceChordNote": 0,
            "sourceChordType": "Maj7",
            "ctb2Low": null,
            "ctb2Main": {
              "ntr": "ROOT_TRANSPOSITION",
              "ntt": "MELODY",
              "bassOn": true,
              "chordRootUpperLimit": 3,
              "noteLowLimit": 28,
              "noteHighLimit": 127,
              "rtr": "PITCH_SHIFT_TO_ROOT"
            },
            "ctb2High": null
          },
          "notes": [
            {
              "pitch": 24,
              "velocity": 117,
              "position": 0,
              "duration": 1.7875
            },
            {
              "pitch": 31,
              "velocity": 117,
              "position": 2,
              "duration": 1.7875
            }
          ]
        },
        "11": {
          "ctab": {
            "srcChannel": 11,
            "name": "J Gtr",
            "accType": "CHORD1",
            "editable": false,
            "mutedNotes": [],
            "mutedChords": [],
            "autoStart": false,
            "sourceChordNote": 0,
            "sourceChordType": "Maj7",
            "ctb2Low": null,
            "ctb2Main": {
              "ntr": "ROOT_FIXED",
              "ntt": "CHORD",
              "bassOn": false,
              "chordRootUpperLimit": 7,
              "noteLowLimit": 0,
              "noteHighLimit": 127,
              "rtr": "PITCH_SHIFT"
            },
            "ctb2High": null
          },
          "notes": [
            {
              "pitch": 55,
              "velocity": 62,
              "position": 0,
              "duration": 0.9854166666666667
            },
            {
              "pitch": 59,
              "velocity": 62,
              "position": 0,
              "duration": 0.9854166666666667
            },
            {
              "pitch": 64,
              "velocity": 62,
              "position": 0,
              "duration": 0.9854166666666667
            },
            {
              "pitch": 55,
              "velocity": 87,
              "position": 1,
              "duration": 0.20416666666666666
            },
            {
              "pitch": 59,
              "velocity": 87,
              "position": 1,
              "duration": 0.20416666666666666
            },
            {
              "pitch": 64,
              "velocity": 87,
              "position": 1,
              "duration": 0.20416666666666666
            },
            {
              "pitch": 55,
              "velocity": 59,
              "position": 1.6666666666666667,
              "duration": 1.0479166666666666
            },
            {
              "pitch": 59,
              "velocity": 59,
              "position": 1.6666666666666667,
              "duration": 1.0479166666666666
            },
            {
              "pitch": 64,
              "velocity": 59,
              "position": 1.6666666666666667,
              "duration": 1.0479166666666666
            },
            {
              "pitch": 55,
              "velocity": 59,
              "position": 2.7291666666666665,
              "duration": 0.25625
            },
            {
              "pitch": 59,
              "velocity": 59,
              "position": 2.7291666666666665,
              "duration": 0.25625
            },
            {
              "pitch": 64,
              "velocity": 59,
              "position": 2.7291666666666665,
              "duration": 0.25625
            },
            {
              "pitch": 55,
              "velocity": 113,
              "position": 3,
              "duration": 0.20416666666666666
            },
            {
              "pitch": 59,
              "velocity": 113,
              "position": 3,
              "duration": 0.20416666666666666
            },
            {
              "pitch": 64,
              "velocity": 113,
              "position": 3,
              "duration": 0.20416666666666666
            }
          ]
        },
        "12": {
          "ctab": {
            "srcChannel": 12,
            "name": "Vocal",
            "accType": "CHORD2",
            "editable": false,
            "mutedNotes": [],
            "mutedChords": [],
            "autoStart": false,
            "sourceChordNote": 0,
            "sourceChordType": "Maj7",
            "ctb2Low": null,
            "ctb2Main": {
              "ntr": "ROOT_FIXED",
              "ntt": "CHORD",
              "bassOn": false,
              "chordRootUpperLimit": 7,
              "noteLowLimit": 0,
              "noteHighLimit": 127,
              "rtr": "PITCH_SHIFT"
            },
            "ctb2High": null
          },
          "notes": [
            {
              "pitch": 52,
              "velocity": 71,
              "position": 0,
              "duration": 0.46458333333333335
            },
            {
              "pitch": 55,
              "velocity": 71,
              "position": 0,
              "duration": 0.46458333333333335
            },
            {
              "pitch": 59,
              "velocity": 71,
              "position": 0,
              "duration": 0.46458333333333335
            },
            {
              "pitch": 52,
              "velocity": 88,
              "position": 1,
              "duration": 0.46458333333333335
            },
            {
              "pitch": 55,
              "velocity": 88,
              "position": 1,
              "duration": 0.46458333333333335
            },
            {
              "pitch": 59,
              "velocity": 88,
              "position": 1,
              "duration": 0.46458333333333335
            }
          ]
        },
        "14": {
          "ctab": {
            "srcChannel": 14,
            "name": "DOM",
            "accType": "PHRASE1",
            "editable": false,
            "mutedNotes": [],
            "mutedChords": [],
            "autoStart": false,
            "sourceChordNote": 0,
            "sourceChordType": "Maj7",
            "ctb2Low": null,
            "ctb2Main": {
              "ntr": "ROOT_TRANSPOSITION",
              "ntt": "MELODY",
              "bassOn": true,
              "chordRootUpperLimit": 0,
              "noteLowLimit": 35,
              "noteHighLimit": 127,
              "rtr": "PITCH_SHIFT_TO_ROOT"
            },
            "ctb2High": null
          },
          "notes": [
            {
              "pitch": 36,
              "velocity": 113,
              "position": 0,
              "duration": 0.9958333333333333
            },
            {
              "pitch": 43,
              "velocity": 113,
              "position": 2,
              "duration": 0.9958333333333333
            }
          ]
        }
      }
    },
    "Intro_A": {
      "type": "Intro_A",
      "sizeInBeats": 8,
      "channels": {
        "0": {
          "ctab": {
            "srcChannel": 0,
            "name": "CC_Crash",
            "accType": "RHYTHM",
            "editable": false,
            "mutedNotes": [],
            "mutedChords": [
              "1+2+5",
              "sus4",
              "1+5",
              "1+8",
              "7aug",
              "Maj7aug",
              "7(#9)",
              "7(b13)",
              "7(b9)",
              "7(13)",
              "7#11",
              "7(9)",
              "7b5",
              "7sus4",
              "7th",
              "dim7",
              "dim",
              "minMaj7(9)",
              "minMaj7",
              "min7(11)",
              "min7(9)",
              "min(9)",
              "m7b5",
              "min7",
              "min6",
              "min",
              "aug",
              "Maj6(9)",
              "Maj7(9)",
              "Maj(9)",
              "Maj7#11",
              "Maj7",
              "Maj6",
              "Maj"
            ],
            "autoStart": true,
            "sourceChordNote": 0,
            "sourceChordType": "Maj",
            "ctb2Low": null,
            "ctb2Main": {
              "ntr": "ROOT_FIXED",
              "ntt": "BYPASS",
              "bassOn": false,
              "chordRootUpperLimit": 0,
              "noteLowLimit": 0,
              "noteHighLimit": 127,
              "rtr": "RETRIGGER"
            },
            "ctb2High": null
          },
          "notes": []
        },
        "2": {
          "ctab": {
            "srcChannel": 2,
            "name": "VocalRoo",
            "accType": "CHORD2",
            "editable": true,
            "mutedNotes": [],
            "mutedChords": [
              "1+2+5",
              "sus4",
              "1+5",
              "1+8",
              "Maj7aug",
              "dim",
              "minMaj7(9)",
              "minMaj7",
              "min6",
              "min",
              "aug",
              "Maj6(9)",
              "Maj7(9)",
              "Maj(9)",
              "Maj7#11",
              "Maj7",
              "Maj6",
              "Maj"
            ],
            "autoStart": false,
            "sourceChordNote": 0,
            "sourceChordType": "Maj7",
            "ctb2Low": null,
            "ctb2Main": {
              "ntr": "ROOT_TRANSPOSITION",
              "ntt": "CHORD",
              "bassOn": false,
              "chordRootUpperLimit": 3,
              "noteLowLimit": 0,
              "noteHighLimit": 127,
              "rtr": "PITCH_SHIFT"
            },
            "ctb2High": null
          },
          "notes": []
        },
        "8": {
          "ctab": {
            "srcChannel": 8,
            "name": "snips",
            "accType": "SUBRHYTHM",
            "editable": false,
            "mutedNotes": [],
            "mutedChords": [],
            "autoStart": true,
            "sourceChordNote": 0,
            "sourceChordType": "Maj7",
            "ctb2Low": null,
            "ctb2Main": {
              "ntr": "ROOT_FIXED",
              "ntt": "BYPASS",
              "bassOn": false,
              "chordRootUpperLimit": 6,
              "noteLowLimit": 0,
              "noteHighLimit": 127,
              "rtr": "PITCH_SHIFT"
            },
            "ctb2High": null
          },
          "notes": []
        },
        "9": {
          "ctab": {
            "srcChannel": 9,
            "name": "drums",
            "accType": "RHYTHM",
            "editable": false,
            "mutedNotes": [],
            "mutedChords": [],
            "autoStart": true,
            "sourceChordNote": 0,
            "sourceChordType": "Maj7",
            "ctb2Low": null,
            "ctb2Main": {
              "ntr": "ROOT_FIXED",
              "ntt": "BYPASS",
              "bassOn": false,
              "chordRootUpperLimit": 6,
              "noteLowLimit": 0,
              "noteHighLimit": 127,
              "rtr": "PITCH_SHIFT"
            },
            "ctb2High": null
          },
          "notes": [
            {
              "pitch": 42,
              "velocity": 72,
              "position": 0,
              "duration": 0.016666666666666666
            },
            {
              "pitch": 42,
              "velocity": 66,
              "position": 2,
              "duration": 0.016666666666666666
            },
            {
              "pitch": 42,
              "velocity": 72,
              "position": 4,
              "duration": 0.016666666666666666
            },
            {
              "pitch": 42,
              "velocity": 68,
              "position": 5,
              "duration": 0.016666666666666666
            },
            {
              "pitch": 27,
              "velocity": 104,
              "position": 6,
              "duration": 0.12083333333333333
            },
            {
              "pitch": 25,
              "velocity": 26,
              "position": 6.385416666666667,
              "duration": 0.12083333333333333
            },
            {
              "pitch": 25,
              "velocity": 34,
              "position": 6.666666666666667,
              "duration": 0.12083333333333333
            },
            {
              "pitch": 27,
              "velocity": 127,
              "position": 7,
              "duration": 0.12083333333333333
            },
            {
              "pitch": 25,
              "velocity": 30,
              "position": 7.71875,
              "duration": 0.12083333333333333
            },
            {
              "pitch": 49,
              "velocity": 54,
              "position": 7.989583333333333,
              "duration": 0.010416666666666666
            }
          ]
        },
        "10": {
          "ctab": {
            "srcChannel": 10,
            "name": "Bass",
            "accType": "BASS",
            "editable": false,
            "mutedNotes": [],
            "mutedChords": [],
            "autoStart": false,
            "sourceChordNote": 0,
            "sourceChordType": "Maj7",
            "ctb2Low": null,
            "ctb2Main": {
              "ntr": "ROOT_TRANSPOSITION",
              "ntt": "MELODY",
              "bassOn": true,
              "chordRootUpperLimit": 3,
              "noteLowLimit": 28,
              "noteHighLimit": 127,
              "rtr": "PITCH_SHIFT_TO_ROOT"
            },
            "ctb2High": null
          },
          "notes": []
        },
        "11": {
          "ctab": {
            "srcChannel": 11,
            "name": "J Gtr",
            "accType": "CHORD1",
            "editable": false,
            "mutedNotes": [],
            "mutedChords": [],
            "autoStart": false,
            "sourceChordNote": 0,
            "sourceChordType": "Maj7",
            "ctb2Low": null,
            "ctb2Main": {
              "ntr": "ROOT_FIXED",
              "ntt": "CHORD",
              "bassOn": false,
              "chordRootUpperLimit": 7,
              "noteLowLimit": 0,
              "noteHighLimit": 127,
              "rtr": "PITCH_SHIFT"
            },
            "ctb2High": null
          },
          "notes": []
        },
        "12": {
          "ctab": {
            "srcChannel": 12,
            "name": "Vocal",
            "accType": "CHORD2",
            "editable": false,
            "mutedNotes": [],
            "mutedChords": [],
            "autoStart": false,
            "sourceChordNote": 0,
            "sourceChordType": "Maj7",
            "ctb2Low": null,
            "ctb2Main": {
              "ntr": "ROOT_FIXED",
              "ntt": "CHORD",
              "bassOn": false,
              "chordRootUpperLimit": 7,
              "noteLowLimit": 0,
              "noteHighLimit": 127,
              "rtr": "PITCH_SHIFT"
            },
            "ctb2High": null
          },
          "notes": []
        },
        "14": {
          "ctab": {
            "srcChannel": 14,
            "name": "DOM",
            "accType": "PHRASE1",
            "editable": false,
            "mutedNotes": [],
            "mutedChords": [],
            "autoStart": false,
            "sourceChordNote": 0,
            "sourceChordType": "Maj7",
            "ctb2Low": null,
            "ctb2Main": {
              "ntr": "ROOT_TRANSPOSITION",
              "ntt": "MELODY",
              "bassOn": true,
              "chordRootUpperLimit": 0,
              "noteLowLimit": 35,
              "noteHighLimit": 127,
              "rtr": "PITCH_SHIFT_TO_ROOT"
            },
            "ctb2High": null
          },
          "notes": []
        }
      }
    },
    "Main_D": {
      "type": "Main_D",
      "sizeInBeats": 16,
      "channels": {
        "0": {
          "ctab": {
            "srcChannel": 0,
            "name": "CC_Crash",
            "accType": "RHYTHM",
            "editable": false,
            "mutedNotes": [],
            "mutedChords": [
              "1+2+5",
              "sus4",
              "1+5",
              "1+8",
              "7aug",
              "Maj7aug",
              "7(#9)",
              "7(b13)",
              "7(b9)",
              "7(13)",
              "7#11",
              "7(9)",
              "7b5",
              "7sus4",
              "7th",
              "dim7",
              "dim",
              "minMaj7(9)",
              "minMaj7",
              "min7(11)",
              "min7(9)",
              "min(9)",
              "m7b5",
              "min7",
              "min6",
              "min",
              "aug",
              "Maj6(9)",
              "Maj7(9)",
              "Maj(9)",
              "Maj7#11",
              "Maj7",
              "Maj6",
              "Maj"
            ],
            "autoStart": true,
            "sourceChordNote": 0,
            "sourceChordType": "Maj",
            "ctb2Low": null,
            "ctb2Main": {
              "ntr": "ROOT_FIXED",
              "ntt": "BYPASS",
              "bassOn": false,
              "chordRootUpperLimit": 0,
              "noteLowLimit": 0,
              "noteHighLimit": 127,
              "rtr": "RETRIGGER"
            },
            "ctb2High": null
          },
          "notes": []
        },
        "2": {
          "ctab": {
            "srcChannel": 2,
            "name": "VocalRoo",
            "accType": "CHORD2",
            "editable": false,
            "mutedNotes": [],
            "mutedChords": [
              "1+2+5",
              "sus4",
              "1+5",
              "1+8",
              "Maj7aug",
              "dim",
              "minMaj7(9)",
              "minMaj7",
              "min6",
              "min",
              "aug",
              "Maj6(9)",
              "Maj7(9)",
              "Maj(9)",
              "Maj7#11",
              "Maj7",
              "Maj6",
              "Maj"
            ],
            "autoStart": false,
            "sourceChordNote": 0,
            "sourceChordType": "Maj7",
            "ctb2Low": null,
            "ctb2Main": {
              "ntr": "ROOT_TRANSPOSITION",
              "ntt": "CHORD",
              "bassOn": false,
              "chordRootUpperLimit": 6,
              "noteLowLimit": 0,
              "noteHighLimit": 127,
              "rtr": "PITCH_SHIFT"
            },
            "ctb2High": null
          },
          "notes": [
            {
              "pitch": 60,
              "velocity": 114,
              "position": 0,
              "duration": 1.4604166666666667
            },
            {
              "pitch": 60,
              "velocity": 74,
              "position": 1.6666666666666667,
              "duration": 0.36041666666666666
            },
            {
              "pitch": 60,
              "velocity": 68,
              "position": 3,
              "duration": 1.4020833333333333
            },
            {
              "pitch": 60,
              "velocity": 77,
              "position": 4.666666666666667,
              "duration": 0.36041666666666666
            },
            {
              "pitch": 60,
              "velocity": 46,
              "position": 5.729166666666667,
              "duration": 0.25625
            },
            {
              "pitch": 60,
              "velocity": 62,
              "position": 6,
              "duration": 0.48541666666666666
            },
            {
              "pitch": 60,
              "velocity": 111,
              "position": 6.666666666666667,
              "duration": 0.36041666666666666
            },
            {
              "pitch": 60,
              "velocity": 111,
              "position": 8,
              "duration": 1.475
            },
            {
              "pitch": 60,
              "velocity": 67,
              "position": 9.666666666666666,
              "duration": 0.36041666666666666
            },
            {
              "pitch": 60,
              "velocity": 67,
              "position": 11,
              "duration": 1.29375
            },
            {
              "pitch": 60,
              "velocity": 86,
              "position": 12.666666666666666,
              "duration": 0.36041666666666666
            },
            {
              "pitch": 60,
              "velocity": 48,
              "position": 13.729166666666666,
              "duration": 0.25625
            },
            {
              "pitch": 60,
              "velocity": 67,
              "position": 14,
              "duration": 0.36041666666666666
            },
            {
              "pitch": 60,
              "velocity": 88,
              "position": 14.666666666666666,
              "duration": 0.36041666666666666
            }
          ]
        },
        "4": {
          "ctab": {
            "srcChannel": 4,
            "name": "DOM",
            "accType": "PHRASE1",
            "editable": false,
            "mutedNotes": [],
            "mutedChords": [
              "1+5",
              "1+8",
              "7(#9)",
              "7(b13)",
              "7(b9)",
              "7(13)",
              "7#11",
              "7(9)",
              "7b5",
              "7sus4",
              "7th",
              "dim7",
              "min7(11)",
              "min7(9)",
              "min7",
              "min6",
              "Maj6(9)",
              "Maj7(9)",
              "Maj(9)",
              "Maj7#11",
              "Maj7",
              "Maj6",
              "Maj"
            ],
            "autoStart": false,
            "sourceChordNote": 0,
            "sourceChordType": "Maj7",
            "ctb2Low": null,
            "ctb2Main": {
              "ntr": "ROOT_TRANSPOSITION",
              "ntt": "MELODY",
              "bassOn": true,
              "chordRootUpperLimit": 0,
              "noteLowLimit": 35,
              "noteHighLimit": 127,
              "rtr": "PITCH_SHIFT_TO_ROOT"
            },
            "ctb2High": null
          },
          "notes": [
            {
              "pitch": 36,
              "velocity": 127,
              "position": 0.0020833333333333333,
              "duration": 0.9854166666666667
            },
            {
              "pitch": 40,
              "velocity": 104,
              "position": 1,
              "duration": 0.9854166666666667
            },
            {
              "pitch": 43,
              "velocity": 121,
              "position": 2,
              "duration": 0.9854166666666667
            },
            {
              "pitch": 40,
              "velocity": 104,
              "position": 3,
              "duration": 0.7145833333333333
            },
            {
              "pitch": 43,
              "velocity": 69,
              "position": 3.7291666666666665,
              "duration": 0.25625
            },
            {
              "pitch": 48,
              "velocity": 127,
              "position": 4,
              "duration": 0.9854166666666667
            },
            {
              "pitch": 43,
              "velocity": 106,
              "position": 5,
              "duration": 0.9854166666666667
            },
            {
              "pitch": 40,
              "velocity": 121,
              "position": 6,
              "duration": 0.9854166666666667
            },
            {
              "pitch": 43,
              "velocity": 104,
              "position": 7,
              "duration": 0.9854166666666667
            },
            {
              "pitch": 36,
              "velocity": 119,
              "position": 8,
              "duration": 0.9854166666666667
            },
            {
              "pitch": 40,
              "velocity": 105,
              "position": 9,
              "duration": 0.9854166666666667
            },
            {
              "pitch": 43,
              "velocity": 117,
              "position": 10,
              "duration": 0.9854166666666667
            },
            {
              "pitch": 40,
              "velocity": 104,
              "position": 11,
              "duration": 0.7145833333333333
            },
            {
              "pitch": 43,
              "velocity": 71,
              "position": 11.729166666666666,
              "duration": 0.25625
            },
            {
              "pitch": 48,
              "velocity": 121,
              "position": 12,
              "duration": 0.9854166666666667
            },
            {
              "pitch": 43,
              "velocity": 97,
              "position": 13,
              "duration": 0.9854166666666667
            },
            {
              "pitch": 40,
              "velocity": 119,
              "position": 14,
              "duration": 0.9854166666666667
            },
            {
              "pitch": 43,
              "velocity": 119,
              "position": 15,
              "duration": 0.9958333333333333
            }
          ]
        },
        "5": {
          "ctab": {
            "srcChannel": 5,
            "name": "Bass",
            "accType": "BASS",
            "editable": false,
            "mutedNotes": [],
            "mutedChords": [
              "1+5",
              "1+8",
              "7(#9)",
              "7(b13)",
              "7(b9)",
              "7(13)",
              "7#11",
              "7(9)",
              "7b5",
              "7sus4",
              "7th",
              "dim7",
              "min7(11)",
              "min7(9)",
              "min7",
              "min6",
              "Maj6(9)",
              "Maj7(9)",
              "Maj(9)",
              "Maj7#11",
              "Maj7",
              "Maj6",
              "Maj"
            ],
            "autoStart": false,
            "sourceChordNote": 0,
            "sourceChordType": "Maj7",
            "ctb2Low": null,
            "ctb2Main": {
              "ntr": "ROOT_TRANSPOSITION",
              "ntt": "MELODY",
              "bassOn": true,
              "chordRootUpperLimit": 3,
              "noteLowLimit": 28,
              "noteHighLimit": 127,
              "rtr": "PITCH_SHIFT_TO_ROOT"
            },
            "ctb2High": null
          },
          "notes": [
            {
              "pitch": 24,
              "velocity": 127,
              "position": 0,
              "duration": 0.9854166666666667
            },
            {
              "pitch": 28,
              "velocity": 104,
              "position": 1,
              "duration": 0.9854166666666667
            },
            {
              "pitch": 31,
              "velocity": 125,
              "position": 2,
              "duration": 0.9854166666666667
            },
            {
              "pitch": 28,
              "velocity": 104,
              "position": 3,
              "duration": 0.7145833333333333
            },
            {
              "pitch": 31,
              "velocity": 69,
              "position": 3.7291666666666665,
              "duration": 0.25625
            },
            {
              "pitch": 36,
              "velocity": 127,
              "position": 4,
              "duration": 0.9854166666666667
            },
            {
              "pitch": 31,
              "velocity": 109,
              "position": 5,
              "duration": 0.9854166666666667
            },
            {
              "pitch": 28,
              "velocity": 125,
              "position": 6,
              "duration": 0.9854166666666667
            },
            {
              "pitch": 31,
              "velocity": 104,
              "position": 7,
              "duration": 0.9854166666666667
            },
            {
              "pitch": 24,
              "velocity": 123,
              "position": 8,
              "duration": 0.9854166666666667
            },
            {
              "pitch": 28,
              "velocity": 105,
              "position": 9,
              "duration": 0.9854166666666667
            },
            {
              "pitch": 31,
              "velocity": 121,
              "position": 10,
              "duration": 0.9854166666666667
            },
            {
              "pitch": 28,
              "velocity": 104,
              "position": 11,
              "duration": 0.7145833333333333
            },
            {
              "pitch": 31,
              "velocity": 70,
              "position": 11.729166666666666,
              "duration": 0.25625
            },
            {
              "pitch": 36,
              "velocity": 125,
              "position": 12,
              "duration": 0.9854166666666667
            },
            {
              "pitch": 31,
              "velocity": 97,
              "position": 13,
              "duration": 0.9854166666666667
            },
            {
              "pitch": 28,
              "velocity": 123,
              "position": 14,
              "duration": 0.9854166666666667
            },
            {
              "pitch": 31,
              "velocity": 123,
              "position": 15,
              "duration": 0.9958333333333333
            }
          ]
        },
        "8": {
          "ctab": {
            "srcChannel": 8,
            "name": "snips",
            "accType": "SUBRHYTHM",
            "editable": false,
            "mutedNotes": [],
            "mutedChords": [],
            "autoStart": true,
            "sourceChordNote": 0,
            "sourceChordType": "Maj7",
            "ctb2Low": null,
            "ctb2Main": {
              "ntr": "ROOT_FIXED",
              "ntt": "BYPASS",
              "bassOn": false,
              "chordRootUpperLimit": 6,
              "noteLowLimit": 0,
              "noteHighLimit": 127,
              "rtr": "PITCH_SHIFT"
            },
            "ctb2High": null
          },
          "notes": [
            {
              "pitch": 19,
              "velocity": 100,
              "position": 1,
              "duration": 0.24583333333333332
            },
            {
              "pitch": 19,
              "velocity": 100,
              "position": 3,
              "duration": 0.24583333333333332
            },
            {
              "pitch": 19,
              "velocity": 100,
              "position": 5,
              "duration": 0.24583333333333332
            },
            {
              "pitch": 19,
              "velocity": 100,
              "position": 7,
              "duration": 0.24583333333333332
            },
            {
              "pitch": 19,
              "velocity": 100,
              "position": 9,
              "duration": 0.24583333333333332
            },
            {
              "pitch": 19,
              "velocity": 100,
              "position": 11,
              "duration": 0.24583333333333332
            },
            {
              "pitch": 19,
              "velocity": 100,
              "position": 13,
              "duration": 0.24583333333333332
            },
            {
              "pitch": 19,
              "velocity": 100,
              "position": 15,
              "duration": 0.24583333333333332
            }
          ]
        },
        "9": {
          "ctab": {
            "srcChannel": 9,
            "name": "drums",
            "accType": "RHYTHM",
            "editable": false,
            "mutedNotes": [],
            "mutedChords": [],
            "autoStart": true,
            "sourceChordNote": 0,
            "sourceChordType": "Maj7",
            "ctb2Low": null,
            "ctb2Main": {
              "ntr": "ROOT_FIXED",
              "ntt": "BYPASS",
              "bassOn": false,
              "chordRootUpperLimit": 6,
              "noteLowLimit": 0,
              "noteHighLimit": 127,
              "rtr": "PITCH_SHIFT"
            },
            "ctb2High": null
          },
          "notes": [
            {
              "pitch": 59,
              "velocity": 72,
              "position": 0,
              "duration": 0.0375
            },
            {
              "pitch": 33,
              "velocity": 80,
              "position": 0,
              "duration": 0.12083333333333333
            },
            {
              "pitch": 44,
              "velocity": 82,
              "position": 1,
              "duration": 0.016666666666666666
            },
            {
              "pitch": 40,
              "velocity": 76,
              "position": 1,
              "duration": 0.027083333333333334
            },
            {
              "pitch": 59,
              "velocity": 72,
              "position": 1,
              "duration": 0.0375
            },
            {
              "pitch": 33,
              "velocity": 54,
              "position": 1,
              "duration": 0.12083333333333333
            },
            {
              "pitch": 59,
              "velocity": 72,
              "position": 2,
              "duration": 0.0375
            },
            {
              "pitch": 33,
              "velocity": 80,
              "position": 2,
              "duration": 0.12083333333333333
            },
            {
              "pitch": 44,
              "velocity": 82,
              "position": 3,
              "duration": 0.016666666666666666
            },
            {
              "pitch": 40,
              "velocity": 78,
              "position": 3,
              "duration": 0.027083333333333334
            },
            {
              "pitch": 59,
              "velocity": 72,
              "position": 3,
              "duration": 0.0375
            },
            {
              "pitch": 33,
              "velocity": 54,
              "position": 3,
              "duration": 0.12083333333333333
            },
            {
              "pitch": 59,
              "velocity": 28,
              "position": 3.7291666666666665,
              "duration": 0.0375
            },
            {
              "pitch": 40,
              "velocity": 36,
              "position": 3.6666666666666665,
              "duration": 0.1625
            },
            {
              "pitch": 59,
              "velocity": 72,
              "position": 4,
              "duration": 0.0375
            },
            {
              "pitch": 33,
              "velocity": 80,
              "position": 4,
              "duration": 0.12083333333333333
            },
            {
              "pitch": 44,
              "velocity": 82,
              "position": 5,
              "duration": 0.016666666666666666
            },
            {
              "pitch": 40,
              "velocity": 76,
              "position": 5,
              "duration": 0.027083333333333334
            },
            {
              "pitch": 59,
              "velocity": 72,
              "position": 5,
              "duration": 0.0375
            },
            {
              "pitch": 33,
              "velocity": 54,
              "position": 5,
              "duration": 0.12083333333333333
            },
            {
              "pitch": 59,
              "velocity": 72,
              "position": 6,
              "duration": 0.0375
            },
            {
              "pitch": 33,
              "velocity": 80,
              "position": 6,
              "duration": 0.12083333333333333
            },
            {
              "pitch": 44,
              "velocity": 82,
              "position": 7,
              "duration": 0.016666666666666666
            },
            {
              "pitch": 40,
              "velocity": 78,
              "position": 7,
              "duration": 0.027083333333333334
            },
            {
              "pitch": 59,
              "velocity": 72,
              "position": 7,
              "duration": 0.0375
            },
            {
              "pitch": 33,
              "velocity": 54,
              "position": 7,
              "duration": 0.12083333333333333
            },
            {
              "pitch": 59,
              "velocity": 28,
              "position": 7.729166666666667,
              "duration": 0.0375
            },
            {
              "pitch": 40,
              "velocity": 38,
              "position": 7.666666666666667,
              "duration": 0.1625
            },
            {
              "pitch": 59,
              "velocity": 72,
              "position": 8,
              "duration": 0.0375
            },
            {
              "pitch": 33,
              "velocity": 80,
              "position": 8,
              "duration": 0.12083333333333333
            },
            {
              "pitch": 44,
              "velocity": 82,
              "position": 9,
              "duration": 0.016666666666666666
            },
            {
              "pitch": 40,
              "velocity": 76,
              "position": 9,
              "duration": 0.027083333333333334
            },
            {
              "pitch": 59,
              "velocity": 72,
              "position": 9,
              "duration": 0.0375
            },
            {
              "pitch": 33,
              "velocity": 54,
              "position": 9,
              "duration": 0.12083333333333333
            },
            {
              "pitch": 59,
              "velocity": 72,
              "position": 10,
              "duration": 0.0375
            },
            {
              "pitch": 33,
              "velocity": 80,
              "position": 10,
              "duration": 0.12083333333333333
            },
            {
              "pitch": 44,
              "velocity": 82,
              "position": 11,
              "duration": 0.016666666666666666
            },
            {
              "pitch": 40,
              "velocity": 76,
              "position": 11,
              "duration": 0.027083333333333334
            },
            {
              "pitch": 59,
              "velocity": 72,
              "position": 11,
              "duration": 0.0375
            },
            {
              "pitch": 33,
              "velocity": 54,
              "position": 11,
              "duration": 0.12083333333333333
            },
            {
              "pitch": 59,
              "velocity": 28,
              "position": 11.729166666666666,
              "duration": 0.0375
            },
            {
              "pitch": 59,
              "velocity": 72,
              "position": 12,
              "duration": 0.0375
            },
            {
              "pitch": 33,
              "velocity": 80,
              "position": 12,
              "duration": 0.12083333333333333
            },
            {
              "pitch": 44,
              "velocity": 82,
              "position": 13,
              "duration": 0.016666666666666666
            },
            {
              "pitch": 40,
              "velocity": 78,
              "position": 13,
              "duration": 0.027083333333333334
            },
            {
              "pitch": 59,
              "velocity": 72,
              "position": 13,
              "duration": 0.0375
            },
            {
              "pitch": 33,
              "velocity": 54,
              "position": 13,
              "duration": 0.12083333333333333
            },
            {
              "pitch": 59,
              "velocity": 72,
              "position": 14,
              "duration": 0.0375
            },
            {
              "pitch": 33,
              "velocity": 80,
              "position": 14,
              "duration": 0.12083333333333333
            },
            {
              "pitch": 44,
              "velocity": 82,
              "position": 15,
              "duration": 0.016666666666666666
            },
            {
              "pitch": 40,
              "velocity": 74,
              "position": 15,
              "duration": 0.027083333333333334
            },
            {
              "pitch": 59,
              "velocity": 72,
              "position": 15,
              "duration": 0.0375
            },
            {
              "pitch": 33,
              "velocity": 54,
              "position": 15,
              "duration": 0.12083333333333333
            },
            {
              "pitch": 40,
              "velocity": 35,
              "position": 15.729166666666666,
              "duration": 0.027083333333333334
            },
            {
              "pitch": 59,
              "velocity": 28,
              "position": 15.729166666666666,
              "duration": 0.0375
            }
          ]
        },
        "10": {
          "ctab": {
            "srcChannel": 10,
            "name": "Bass",
            "accType": "BASS",
            "editable": false,
            "mutedNotes": [],
            "mutedChords": [
              "1+2+5",
              "sus4",
              "7aug",
              "Maj7aug",
              "dim",
              "minMaj7(9)",
              "minMaj7",
              "min(9)",
              "m7b5",
              "min",
              "aug"
            ],
            "autoStart": false,
            "sourceChordNote": 0,
            "sourceChordType": "Maj7",
            "ctb2Low": null,
            "ctb2Main": {
              "ntr": "ROOT_TRANSPOSITION",
              "ntt": "MELODY",
              "bassOn": true,
              "chordRootUpperLimit": 3,
              "noteLowLimit": 28,
              "noteHighLimit": 127,
              "rtr": "PITCH_SHIFT_TO_ROOT"
            },
            "ctb2High": null
          },
          "notes": [
            {
              "pitch": 24,
              "velocity": 127,
              "position": 0,
              "duration": 0.9854166666666667
            },
            {
              "pitch": 28,
              "velocity": 104,
              "position": 1,
              "duration": 0.9854166666666667
            },
            {
              "pitch": 31,
              "velocity": 125,
              "position": 2,
              "duration": 0.9854166666666667
            },
            {
              "pitch": 33,
              "velocity": 104,
              "position": 3,
              "duration": 0.7145833333333333
            },
            {
              "pitch": 31,
              "velocity": 69,
              "position": 3.7291666666666665,
              "duration": 0.25625
            },
            {
              "pitch": 36,
              "velocity": 127,
              "position": 4,
              "duration": 0.9854166666666667
            },
            {
              "pitch": 33,
              "velocity": 109,
              "position": 5,
              "duration": 0.9854166666666667
            },
            {
              "pitch": 31,
              "velocity": 125,
              "position": 6,
              "duration": 0.9854166666666667
            },
            {
              "pitch": 28,
              "velocity": 104,
              "position": 7,
              "duration": 0.9854166666666667
            },
            {
              "pitch": 24,
              "velocity": 123,
              "position": 8,
              "duration": 0.9854166666666667
            },
            {
              "pitch": 28,
              "velocity": 105,
              "position": 9,
              "duration": 0.9854166666666667
            },
            {
              "pitch": 31,
              "velocity": 121,
              "position": 10,
              "duration": 0.9854166666666667
            },
            {
              "pitch": 33,
              "velocity": 104,
              "position": 11,
              "duration": 0.7145833333333333
            },
            {
              "pitch": 31,
              "velocity": 70,
              "position": 11.729166666666666,
              "duration": 0.25625
            },
            {
              "pitch": 36,
              "velocity": 125,
              "position": 12,
              "duration": 0.9854166666666667
            },
            {
              "pitch": 28,
              "velocity": 97,
              "position": 13,
              "duration": 0.9854166666666667
            },
            {
              "pitch": 33,
              "velocity": 123,
              "position": 14,
              "duration": 0.9854166666666667
            },
            {
              "pitch": 31,
              "velocity": 123,
              "position": 15,
              "duration": 0.9958333333333333
            }
          ]
        },
        "11": {
          "ctab": {
            "srcChannel": 11,
            "name": "J Gtr",
            "accType": "CHORD1",
            "editable": false,
            "mutedNotes": [],
            "mutedChords": [],
            "autoStart": false,
            "sourceChordNote": 0,
            "sourceChordType": "Maj7",
            "ctb2Low": null,
            "ctb2Main": {
              "ntr": "ROOT_FIXED",
              "ntt": "CHORD",
              "bassOn": false,
              "chordRootUpperLimit": 7,
              "noteLowLimit": 0,
              "noteHighLimit": 127,
              "rtr": "PITCH_SHIFT"
            },
            "ctb2High": null
          },
          "notes": [
            {
              "pitch": 55,
              "velocity": 73,
              "position": 0,
              "duration": 0.69375
            },
            {
              "pitch": 59,
              "velocity": 65,
              "position": 0,
              "duration": 0.69375
            },
            {
              "pitch": 64,
              "velocity": 65,
              "position": 0,
              "duration": 0.69375
            },
            {
              "pitch": 55,
              "velocity": 50,
              "position": 0.7083333333333334,
              "duration": 0.27708333333333335
            },
            {
              "pitch": 59,
              "velocity": 50,
              "position": 0.7083333333333334,
              "duration": 0.27708333333333335
            },
            {
              "pitch": 64,
              "velocity": 50,
              "position": 0.7083333333333334,
              "duration": 0.27708333333333335
            },
            {
              "pitch": 55,
              "velocity": 80,
              "position": 1,
              "duration": 0.69375
            },
            {
              "pitch": 59,
              "velocity": 95,
              "position": 1,
              "duration": 0.69375
            },
            {
              "pitch": 64,
              "velocity": 95,
              "position": 1,
              "duration": 0.69375
            },
            {
              "pitch": 55,
              "velocity": 62,
              "position": 1.7083333333333333,
              "duration": 0.20416666666666666
            },
            {
              "pitch": 59,
              "velocity": 62,
              "position": 1.7083333333333333,
              "duration": 0.20416666666666666
            },
            {
              "pitch": 64,
              "velocity": 62,
              "position": 1.7083333333333333,
              "duration": 0.20416666666666666
            },
            {
              "pitch": 55,
              "velocity": 59,
              "position": 2,
              "duration": 0.9854166666666667
            },
            {
              "pitch": 59,
              "velocity": 59,
              "position": 2,
              "duration": 0.9854166666666667
            },
            {
              "pitch": 64,
              "velocity": 59,
              "position": 2,
              "duration": 0.9854166666666667
            },
            {
              "pitch": 55,
              "velocity": 115,
              "position": 3,
              "duration": 0.20416666666666666
            },
            {
              "pitch": 59,
              "velocity": 115,
              "position": 3,
              "duration": 0.20416666666666666
            },
            {
              "pitch": 64,
              "velocity": 115,
              "position": 3,
              "duration": 0.20416666666666666
            },
            {
              "pitch": 55,
              "velocity": 59,
              "position": 4,
              "duration": 0.9854166666666667
            },
            {
              "pitch": 59,
              "velocity": 59,
              "position": 4,
              "duration": 0.9854166666666667
            },
            {
              "pitch": 64,
              "velocity": 59,
              "position": 4,
              "duration": 0.9854166666666667
            },
            {
              "pitch": 55,
              "velocity": 99,
              "position": 5,
              "duration": 0.20416666666666666
            },
            {
              "pitch": 59,
              "velocity": 99,
              "position": 5,
              "duration": 0.20416666666666666
            },
            {
              "pitch": 64,
              "velocity": 99,
              "position": 5,
              "duration": 0.20416666666666666
            },
            {
              "pitch": 55,
              "velocity": 57,
              "position": 6,
              "duration": 0.9854166666666667
            },
            {
              "pitch": 59,
              "velocity": 57,
              "position": 6,
              "duration": 0.9854166666666667
            },
            {
              "pitch": 64,
              "velocity": 57,
              "position": 6,
              "duration": 0.9854166666666667
            },
            {
              "pitch": 55,
              "velocity": 99,
              "position": 7,
              "duration": 0.20416666666666666
            },
            {
              "pitch": 59,
              "velocity": 99,
              "position": 7,
              "duration": 0.20416666666666666
            },
            {
              "pitch": 64,
              "velocity": 99,
              "position": 7,
              "duration": 0.20416666666666666
            },
            {
              "pitch": 55,
              "velocity": 59,
              "position": 7.708333333333333,
              "duration": 0.27708333333333335
            },
            {
              "pitch": 59,
              "velocity": 59,
              "position": 7.708333333333333,
              "duration": 0.27708333333333335
            },
            {
              "pitch": 64,
              "velocity": 59,
              "position": 7.708333333333333,
              "duration": 0.27708333333333335
            },
            {
              "pitch": 55,
              "velocity": 85,
              "position": 8,
              "duration": 0.69375
            },
            {
              "pitch": 59,
              "velocity": 85,
              "position": 8,
              "duration": 0.69375
            },
            {
              "pitch": 64,
              "velocity": 85,
              "position": 8,
              "duration": 0.69375
            },
            {
              "pitch": 55,
              "velocity": 72,
              "position": 8.708333333333334,
              "duration": 0.27708333333333335
            },
            {
              "pitch": 59,
              "velocity": 72,
              "position": 8.708333333333334,
              "duration": 0.27708333333333335
            },
            {
              "pitch": 64,
              "velocity": 72,
              "position": 8.708333333333334,
              "duration": 0.27708333333333335
            },
            {
              "pitch": 55,
              "velocity": 109,
              "position": 9,
              "duration": 0.20416666666666666
            },
            {
              "pitch": 59,
              "velocity": 109,
              "position": 9,
              "duration": 0.20416666666666666
            },
            {
              "pitch": 64,
              "velocity": 109,
              "position": 9,
              "duration": 0.20416666666666666
            },
            {
              "pitch": 55,
              "velocity": 53,
              "position": 10,
              "duration": 0.9854166666666667
            },
            {
              "pitch": 59,
              "velocity": 53,
              "position": 10,
              "duration": 0.9854166666666667
            },
            {
              "pitch": 64,
              "velocity": 53,
              "position": 10,
              "duration": 0.9854166666666667
            },
            {
              "pitch": 55,
              "velocity": 99,
              "position": 11,
              "duration": 0.20416666666666666
            },
            {
              "pitch": 59,
              "velocity": 99,
              "position": 11,
              "duration": 0.20416666666666666
            },
            {
              "pitch": 64,
              "velocity": 99,
              "position": 11,
              "duration": 0.20416666666666666
            },
            {
              "pitch": 55,
              "velocity": 59,
              "position": 12,
              "duration": 0.9854166666666667
            },
            {
              "pitch": 59,
              "velocity": 59,
              "position": 12,
              "duration": 0.9854166666666667
            },
            {
              "pitch": 64,
              "velocity": 59,
              "position": 12,
              "duration": 0.9854166666666667
            },
            {
              "pitch": 55,
              "velocity": 99,
              "position": 13,
              "duration": 0.20416666666666666
            },
            {
              "pitch": 59,
              "velocity": 99,
              "position": 13,
              "duration": 0.20416666666666666
            },
            {
              "pitch": 64,
              "velocity": 99,
              "position": 13,
              "duration": 0.20416666666666666
            },
            {
              "pitch": 55,
              "velocity": 50,
              "position": 14,
              "duration": 0.9854166666666667
            },
            {
              "pitch": 59,
              "velocity": 50,
              "position": 14,
              "duration": 0.9854166666666667
            },
            {
              "pitch": 64,
              "velocity": 50,
              "position": 14,
              "duration": 0.9854166666666667
            },
            {
              "pitch": 55,
              "velocity": 99,
              "position": 15,
              "duration": 0.20416666666666666
            },
            {
              "pitch": 59,
              "velocity": 99,
              "position": 15,
              "duration": 0.20416666666666666
            },
            {
              "pitch": 64,
              "velocity": 99,
              "position": 15,
              "duration": 0.20416666666666666
            }
          ]
        },
        "12": {
          "ctab": {
            "srcChannel": 12,
            "name": "Vocal",
            "accType": "CHORD2",
            "editable": false,
            "mutedNotes": [],
            "mutedChords": [],
            "autoStart": false,
            "sourceChordNote": 0,
            "sourceChordType": "Maj7",
            "ctb2Low": null,
            "ctb2Main": {
              "ntr": "ROOT_FIXED",
              "ntt": "CHORD",
              "bassOn": false,
              "chordRootUpperLimit": 7,
              "noteLowLimit": 0,
              "noteHighLimit": 127,
              "rtr": "PITCH_SHIFT"
            },
            "ctb2High": null
          },
          "notes": [
            {
              "pitch": 55,
              "velocity": 105,
              "position": 0,
              "duration": 1.4604166666666667
            },
            {
              "pitch": 59,
              "velocity": 104,
              "position": 0,
              "duration": 1.4604166666666667
            },
            {
              "pitch": 64,
              "velocity": 105,
              "position": 0,
              "duration": 1.4604166666666667
            },
            {
              "pitch": 55,
              "velocity": 77,
              "position": 1.6666666666666667,
              "duration": 0.36041666666666666
            },
            {
              "pitch": 59,
              "velocity": 77,
              "position": 1.6666666666666667,
              "duration": 0.36041666666666666
            },
            {
              "pitch": 64,
              "velocity": 77,
              "position": 1.6666666666666667,
              "duration": 0.36041666666666666
            },
            {
              "pitch": 55,
              "velocity": 68,
              "position": 3,
              "duration": 1.3895833333333334
            },
            {
              "pitch": 59,
              "velocity": 68,
              "position": 3,
              "duration": 1.4020833333333333
            },
            {
              "pitch": 64,
              "velocity": 68,
              "position": 3,
              "duration": 1.4020833333333333
            },
            {
              "pitch": 55,
              "velocity": 77,
              "position": 4.666666666666667,
              "duration": 0.36041666666666666
            },
            {
              "pitch": 59,
              "velocity": 77,
              "position": 4.666666666666667,
              "duration": 0.36041666666666666
            },
            {
              "pitch": 64,
              "velocity": 77,
              "position": 4.666666666666667,
              "duration": 0.36041666666666666
            },
            {
              "pitch": 55,
              "velocity": 46,
              "position": 5.729166666666667,
              "duration": 0.25625
            },
            {
              "pitch": 59,
              "velocity": 46,
              "position": 5.729166666666667,
              "duration": 0.25625
            },
            {
              "pitch": 64,
              "velocity": 46,
              "position": 5.729166666666667,
              "duration": 0.25625
            },
            {
              "pitch": 55,
              "velocity": 62,
              "position": 6,
              "duration": 0.4625
            },
            {
              "pitch": 59,
              "velocity": 62,
              "position": 6,
              "duration": 0.48541666666666666
            },
            {
              "pitch": 64,
              "velocity": 62,
              "position": 6,
              "duration": 0.5770833333333333
            },
            {
              "pitch": 59,
              "velocity": 111,
              "position": 6.666666666666667,
              "duration": 0.36041666666666666
            },
            {
              "pitch": 64,
              "velocity": 111,
              "position": 6.666666666666667,
              "duration": 0.36041666666666666
            },
            {
              "pitch": 67,
              "velocity": 111,
              "position": 6.666666666666667,
              "duration": 0.36041666666666666
            },
            {
              "pitch": 55,
              "velocity": 111,
              "position": 8,
              "duration": 1.4708333333333334
            },
            {
              "pitch": 59,
              "velocity": 111,
              "position": 8,
              "duration": 1.475
            },
            {
              "pitch": 64,
              "velocity": 111,
              "position": 8,
              "duration": 1.5166666666666666
            },
            {
              "pitch": 55,
              "velocity": 67,
              "position": 9.666666666666666,
              "duration": 0.36041666666666666
            },
            {
              "pitch": 59,
              "velocity": 67,
              "position": 9.666666666666666,
              "duration": 0.36041666666666666
            },
            {
              "pitch": 64,
              "velocity": 67,
              "position": 9.666666666666666,
              "duration": 0.36041666666666666
            },
            {
              "pitch": 55,
              "velocity": 67,
              "position": 11,
              "duration": 1.2875
            },
            {
              "pitch": 59,
              "velocity": 67,
              "position": 11,
              "duration": 1.29375
            },
            {
              "pitch": 64,
              "velocity": 67,
              "position": 11,
              "duration": 1.3270833333333334
            },
            {
              "pitch": 55,
              "velocity": 86,
              "position": 12.666666666666666,
              "duration": 0.36041666666666666
            },
            {
              "pitch": 59,
              "velocity": 86,
              "position": 12.666666666666666,
              "duration": 0.36041666666666666
            },
            {
              "pitch": 64,
              "velocity": 86,
              "position": 12.666666666666666,
              "duration": 0.36041666666666666
            },
            {
              "pitch": 55,
              "velocity": 48,
              "position": 13.729166666666666,
              "duration": 0.25625
            },
            {
              "pitch": 59,
              "velocity": 48,
              "position": 13.729166666666666,
              "duration": 0.25625
            },
            {
              "pitch": 64,
              "velocity": 48,
              "position": 13.729166666666666,
              "duration": 0.25625
            },
            {
              "pitch": 55,
              "velocity": 67,
              "position": 14,
              "duration": 0.36041666666666666
            },
            {
              "pitch": 59,
              "velocity": 67,
              "position": 14,
              "duration": 0.36041666666666666
            },
            {
              "pitch": 64,
              "velocity": 67,
              "position": 14,
              "duration": 0.36041666666666666
            },
            {
              "pitch": 52,
              "velocity": 88,
              "position": 14.666666666666666,
              "duration": 0.36041666666666666
            },
            {
              "pitch": 55,
              "velocity": 88,
              "position": 14.666666666666666,
              "duration": 0.36041666666666666
            },
            {
              "pitch": 59,
              "velocity": 88,
              "position": 14.666666666666666,
              "duration": 0.36041666666666666
            }
          ]
        },
        "14": {
          "ctab": {
            "srcChannel": 14,
            "name": "DOM",
            "accType": "PHRASE1",
            "editable": false,
            "mutedNotes": [],
            "mutedChords": [
              "1+2+5",
              "sus4",
              "7aug",
              "Maj7aug",
              "dim",
              "minMaj7(9)",
              "minMaj7",
              "min(9)",
              "m7b5",
              "min",
              "aug"
            ],
            "autoStart": false,
            "sourceChordNote": 0,
            "sourceChordType": "Maj7",
            "ctb2Low": null,
            "ctb2Main": {
              "ntr": "ROOT_TRANSPOSITION",
              "ntt": "MELODY",
              "bassOn": true,
              "chordRootUpperLimit": 0,
              "noteLowLimit": 35,
              "noteHighLimit": 127,
              "rtr": "PITCH_SHIFT_TO_ROOT"
            },
            "ctb2High": null
          },
          "notes": [
            {
              "pitch": 36,
              "velocity": 127,
              "position": 0,
              "duration": 0.9854166666666667
            },
            {
              "pitch": 40,
              "velocity": 104,
              "position": 1,
              "duration": 0.9854166666666667
            },
            {
              "pitch": 43,
              "velocity": 121,
              "position": 2,
              "duration": 0.9854166666666667
            },
            {
              "pitch": 45,
              "velocity": 104,
              "position": 3,
              "duration": 0.7145833333333333
            },
            {
              "pitch": 43,
              "velocity": 69,
              "position": 3.7291666666666665,
              "duration": 0.25625
            },
            {
              "pitch": 48,
              "velocity": 127,
              "position": 4,
              "duration": 0.9854166666666667
            },
            {
              "pitch": 45,
              "velocity": 106,
              "position": 5,
              "duration": 0.9854166666666667
            },
            {
              "pitch": 43,
              "velocity": 121,
              "position": 6,
              "duration": 0.9854166666666667
            },
            {
              "pitch": 40,
              "velocity": 104,
              "position": 7,
              "duration": 0.9854166666666667
            },
            {
              "pitch": 36,
              "velocity": 119,
              "position": 8,
              "duration": 0.9854166666666667
            },
            {
              "pitch": 40,
              "velocity": 105,
              "position": 9,
              "duration": 0.9854166666666667
            },
            {
              "pitch": 43,
              "velocity": 117,
              "position": 10,
              "duration": 0.9854166666666667
            },
            {
              "pitch": 45,
              "velocity": 104,
              "position": 11,
              "duration": 0.7145833333333333
            },
            {
              "pitch": 43,
              "velocity": 71,
              "position": 11.729166666666666,
              "duration": 0.25625
            },
            {
              "pitch": 48,
              "velocity": 121,
              "position": 12,
              "duration": 0.9854166666666667
            },
            {
              "pitch": 40,
              "velocity": 97,
              "position": 13,
              "duration": 0.9854166666666667
            },
            {
              "pitch": 45,
              "velocity": 119,
              "position": 14,
              "duration": 0.9854166666666667
            },
            {
              "pitch": 43,
              "velocity": 119,
              "position": 15,
              "duration": 0.9958333333333333
            }
          ]
        }
      }
    },
    "Fill_In_DD": {
      "type": "Fill_In_DD",
      "sizeInBeats": 4,
      "channels": {
        "0": {
          "ctab": {
            "srcChannel": 0,
            "name": "CC_Crash",
            "accType": "RHYTHM",
            "editable": false,
            "mutedNotes": [],
            "mutedChords": [
              "1+2+5",
              "sus4",
              "1+5",
              "1+8",
              "7aug",
              "Maj7aug",
              "7(#9)",
              "7(b13)",
              "7(b9)",
              "7(13)",
              "7#11",
              "7(9)",
              "7b5",
              "7sus4",
              "7th",
              "dim7",
              "dim",
              "minMaj7(9)",
              "minMaj7",
              "min7(11)",
              "min7(9)",
              "min(9)",
              "m7b5",
              "min7",
              "min6",
              "min",
              "aug",
              "Maj6(9)",
              "Maj7(9)",
              "Maj(9)",
              "Maj7#11",
              "Maj7",
              "Maj6",
              "Maj"
            ],
            "autoStart": true,
            "sourceChordNote": 0,
            "sourceChordType": "Maj",
            "ctb2Low": null,
            "ctb2Main": {
              "ntr": "ROOT_FIXED",
              "ntt": "BYPASS",
              "bassOn": false,
              "chordRootUpperLimit": 0,
              "noteLowLimit": 0,
              "noteHighLimit": 127,
              "rtr": "RETRIGGER"
            },
            "ctb2High": null
          },
          "notes": []
        },
        "2": {
          "ctab": {
            "srcChannel": 2,
            "name": "VocalRoo",
            "accType": "CHORD2",
            "editable": false,
            "mutedNotes": [],
            "mutedChords": [
              "1+2+5",
              "sus4",
              "1+5",
              "1+8",
              "Maj7aug",
              "dim",
              "minMaj7(9)",
              "minMaj7",
              "min6",
              "min",
              "aug",
              "Maj6(9)",
              "Maj7(9)",
              "Maj(9)",
              "Maj7#11",
              "Maj7",
              "Maj6",
              "Maj"
            ],
            "autoStart": false,
            "sourceChordNote": 0,
            "sourceChordType": "Maj7",
            "ctb2Low": null,
            "ctb2Main": {
              "ntr": "ROOT_TRANSPOSITION",
              "ntt": "CHORD",
              "bassOn": false,
              "chordRootUpperLimit": 6,
              "noteLowLimit": 0,
              "noteHighLimit": 127,
              "rtr": "PITCH_SHIFT"
            },
            "ctb2High": null
          },
          "notes": [
            {
              "pitch": 60,
              "velocity": 86,
              "position": 0.6666666666666666,
              "duration": 0.36041666666666666
            },
            {
              "pitch": 60,
              "velocity": 67,
              "position": 2,
              "duration": 0.36041666666666666
            }
          ]
        },
        "4": {
          "ctab": {
            "srcChannel": 4,
            "name": "DOM",
            "accType": "PHRASE1",
            "editable": false,
            "mutedNotes": [],
            "mutedChords": [
              "1+5",
              "1+8",
              "7(#9)",
              "7(b13)",
              "7(b9)",
              "7(13)",
              "7#11",
              "7(9)",
              "7b5",
              "7sus4",
              "7th",
              "dim7",
              "min7(11)",
              "min7(9)",
              "min7",
              "min6",
              "Maj6(9)",
              "Maj7(9)",
              "Maj(9)",
              "Maj7#11",
              "Maj7",
              "Maj6",
              "Maj"
            ],
            "autoStart": false,
            "sourceChordNote": 0,
            "sourceChordType": "Maj7",
            "ctb2Low": null,
            "ctb2Main": {
              "ntr": "ROOT_TRANSPOSITION",
              "ntt": "MELODY",
              "bassOn": true,
              "chordRootUpperLimit": 0,
              "noteLowLimit": 35,
              "noteHighLimit": 127,
              "rtr": "PITCH_SHIFT_TO_ROOT"
            },
            "ctb2High": null
          },
          "notes": [
            {
              "pitch": 48,
              "velocity": 121,
              "position": 0.0020833333333333333,
              "duration": 0.9854166666666667
            },
            {
              "pitch": 43,
              "velocity": 97,
              "position": 1,
              "duration": 0.9854166666666667
            },
            {
              "pitch": 40,
              "velocity": 119,
              "position": 2,
              "duration": 0.9854166666666667
            },
            {
              "pitch": 43,
              "velocity": 119,
              "position": 3,
              "duration": 0.9958333333333333
            }
          ]
        },
        "5": {
          "ctab": {
            "srcChannel": 5,
            "name": "Bass",
            "accType": "BASS",
            "editable": false,
            "mutedNotes": [],
            "mutedChords": [
              "1+5",
              "1+8",
              "7(#9)",
              "7(b13)",
              "7(b9)",
              "7(13)",
              "7#11",
              "7(9)",
              "7b5",
              "7sus4",
              "7th",
              "dim7",
              "min7(11)",
              "min7(9)",
              "min7",
              "min6",
              "Maj6(9)",
              "Maj7(9)",
              "Maj(9)",
              "Maj7#11",
              "Maj7",
              "Maj6",
              "Maj"
            ],
            "autoStart": false,
            "sourceChordNote": 0,
            "sourceChordType": "Maj7",
            "ctb2Low": null,
            "ctb2Main": {
              "ntr": "ROOT_TRANSPOSITION",
              "ntt": "MELODY",
              "bassOn": true,
              "chordRootUpperLimit": 3,
              "noteLowLimit": 28,
              "noteHighLimit": 127,
              "rtr": "PITCH_SHIFT_TO_ROOT"
            },
            "ctb2High": null
          },
          "notes": [
            {
              "pitch": 36,
              "velocity": 125,
              "position": 0,
              "duration": 0.9854166666666667
            },
            {
              "pitch": 31,
              "velocity": 97,
              "position": 1,
              "duration": 0.9854166666666667
            },
            {
              "pitch": 28,
              "velocity": 123,
              "position": 2,
              "duration": 0.9854166666666667
            },
            {
              "pitch": 31,
              "velocity": 123,
              "position": 3,
              "duration": 0.9958333333333333
            }
          ]
        },
        "8": {
          "ctab": {
            "srcChannel": 8,
            "name": "snips",
            "accType": "SUBRHYTHM",
            "editable": false,
            "mutedNotes": [],
            "mutedChords": [],
            "autoStart": true,
            "sourceChordNote": 0,
            "sourceChordType": "Maj7",
            "ctb2Low": null,
            "ctb2Main": {
              "ntr": "ROOT_FIXED",
              "ntt": "BYPASS",
              "bassOn": false,
              "chordRootUpperLimit": 6,
              "noteLowLimit": 0,
              "noteHighLimit": 127,
              "rtr": "PITCH_SHIFT"
            },
            "ctb2High": null
          },
          "notes": [
            {
              "pitch": 19,
              "velocity": 100,
              "position": 1,
              "duration": 0.24583333333333332
            },
            {
              "pitch": 19,
              "velocity": 100,
              "position": 3,
              "duration": 0.24583333333333332
            }
          ]
        },
        "9": {
          "ctab": {
            "srcChannel": 9,
            "name": "drums",
            "accType": "RHYTHM",
            "editable": false,
            "mutedNotes": [],
            "mutedChords": [],
            "autoStart": true,
            "sourceChordNote": 0,
            "sourceChordType": "Maj7",
            "ctb2Low": null,
            "ctb2Main": {
              "ntr": "ROOT_FIXED",
              "ntt": "BYPASS",
              "bassOn": false,
              "chordRootUpperLimit": 6,
              "noteLowLimit": 0,
              "noteHighLimit": 127,
              "rtr": "PITCH_SHIFT"
            },
            "ctb2High": null
          },
          "notes": [
            {
              "pitch": 40,
              "velocity": 82,
              "position": 0,
              "duration": 0.0375
            },
            {
              "pitch": 33,
              "velocity": 80,
              "position": 0,
              "duration": 0.12083333333333333
            },
            {
              "pitch": 40,
              "velocity": 28,
              "position": 0.3333333333333333,
              "duration": 0.0375
            },
            {
              "pitch": 40,
              "velocity": 34,
              "position": 0.6666666666666666,
              "duration": 0.0375
            },
            {
              "pitch": 44,
              "velocity": 82,
              "position": 1,
              "duration": 0.016666666666666666
            },
            {
              "pitch": 40,
              "velocity": 57,
              "position": 1,
              "duration": 0.0375
            },
            {
              "pitch": 33,
              "velocity": 54,
              "position": 1,
              "duration": 0.12083333333333333
            },
            {
              "pitch": 40,
              "velocity": 32,
              "position": 1.3333333333333333,
              "duration": 0.0375
            },
            {
              "pitch": 40,
              "velocity": 67,
              "position": 1.6666666666666667,
              "duration": 0.0375
            },
            {
              "pitch": 40,
              "velocity": 86,
              "position": 2,
              "duration": 0.0375
            },
            {
              "pitch": 33,
              "velocity": 80,
              "position": 2,
              "duration": 0.12083333333333333
            },
            {
              "pitch": 40,
              "velocity": 68,
              "position": 2.3333333333333335,
              "duration": 0.0375
            },
            {
              "pitch": 40,
              "velocity": 46,
              "position": 2.6666666666666665,
              "duration": 0.0375
            },
            {
              "pitch": 44,
              "velocity": 82,
              "position": 3,
              "duration": 0.016666666666666666
            },
            {
              "pitch": 40,
              "velocity": 67,
              "position": 3,
              "duration": 0.0375
            },
            {
              "pitch": 33,
              "velocity": 54,
              "position": 3,
              "duration": 0.12083333333333333
            },
            {
              "pitch": 40,
              "velocity": 80,
              "position": 3.3333333333333335,
              "duration": 0.0375
            },
            {
              "pitch": 40,
              "velocity": 86,
              "position": 3.6666666666666665,
              "duration": 0.0375
            },
            {
              "pitch": 57,
              "velocity": 54,
              "position": 3.9895833333333335,
              "duration": 0.010416666666666666
            }
          ]
        },
        "10": {
          "ctab": {
            "srcChannel": 10,
            "name": "Bass",
            "accType": "BASS",
            "editable": false,
            "mutedNotes": [],
            "mutedChords": [
              "1+2+5",
              "sus4",
              "7aug",
              "Maj7aug",
              "dim",
              "minMaj7(9)",
              "minMaj7",
              "min(9)",
              "m7b5",
              "min",
              "aug"
            ],
            "autoStart": false,
            "sourceChordNote": 0,
            "sourceChordType": "Maj7",
            "ctb2Low": null,
            "ctb2Main": {
              "ntr": "ROOT_TRANSPOSITION",
              "ntt": "MELODY",
              "bassOn": true,
              "chordRootUpperLimit": 3,
              "noteLowLimit": 28,
              "noteHighLimit": 127,
              "rtr": "PITCH_SHIFT_TO_ROOT"
            },
            "ctb2High": null
          },
          "notes": [
            {
              "pitch": 36,
              "velocity": 125,
              "position": 0,
              "duration": 0.9854166666666667
            },
            {
              "pitch": 28,
              "velocity": 97,
              "position": 1,
              "duration": 0.9854166666666667
            },
            {
              "pitch": 33,
              "velocity": 123,
              "position": 2,
              "duration": 0.9854166666666667
            },
            {
              "pitch": 31,
              "velocity": 123,
              "position": 3,
              "duration": 0.9958333333333333
            }
          ]
        },
        "11": {
          "ctab": {
            "srcChannel": 11,
            "name": "J Gtr",
            "accType": "CHORD1",
            "editable": false,
            "mutedNotes": [],
            "mutedChords": [],
            "autoStart": false,
            "sourceChordNote": 0,
            "sourceChordType": "Maj7",
            "ctb2Low": null,
            "ctb2Main": {
              "ntr": "ROOT_FIXED",
              "ntt": "CHORD",
              "bassOn": false,
              "chordRootUpperLimit": 7,
              "noteLowLimit": 0,
              "noteHighLimit": 127,
              "rtr": "PITCH_SHIFT"
            },
            "ctb2High": null
          },
          "notes": [
            {
              "pitch": 55,
              "velocity": 27,
              "position": 0,
              "duration": 0.9854166666666667
            },
            {
              "pitch": 59,
              "velocity": 27,
              "position": 0,
              "duration": 0.9854166666666667
            },
            {
              "pitch": 64,
              "velocity": 27,
              "position": 0,
              "duration": 0.9854166666666667
            },
            {
              "pitch": 55,
              "velocity": 72,
              "position": 1,
              "duration": 0.20416666666666666
            },
            {
              "pitch": 59,
              "velocity": 72,
              "position": 1,
              "duration": 0.20416666666666666
            },
            {
              "pitch": 64,
              "velocity": 72,
              "position": 1,
              "duration": 0.20416666666666666
            },
            {
              "pitch": 55,
              "velocity": 16,
              "position": 2,
              "duration": 0.9854166666666667
            },
            {
              "pitch": 59,
              "velocity": 16,
              "position": 2,
              "duration": 0.9854166666666667
            },
            {
              "pitch": 64,
              "velocity": 16,
              "position": 2,
              "duration": 0.9854166666666667
            },
            {
              "pitch": 55,
              "velocity": 72,
              "position": 3,
              "duration": 0.20416666666666666
            },
            {
              "pitch": 59,
              "velocity": 72,
              "position": 3,
              "duration": 0.20416666666666666
            },
            {
              "pitch": 64,
              "velocity": 72,
              "position": 3,
              "duration": 0.20416666666666666
            }
          ]
        },
        "12": {
          "ctab": {
            "srcChannel": 12,
            "name": "Vocal",
            "accType": "CHORD2",
            "editable": false,
            "mutedNotes": [],
            "mutedChords": [],
            "autoStart": false,
            "sourceChordNote": 0,
            "sourceChordType": "Maj7",
            "ctb2Low": null,
            "ctb2Main": {
              "ntr": "ROOT_FIXED",
              "ntt": "CHORD",
              "bassOn": false,
              "chordRootUpperLimit": 7,
              "noteLowLimit": 0,
              "noteHighLimit": 127,
              "rtr": "PITCH_SHIFT"
            },
            "ctb2High": null
          },
          "notes": [
            {
              "pitch": 55,
              "velocity": 86,
              "position": 0.6666666666666666,
              "duration": 0.36041666666666666
            },
            {
              "pitch": 59,
              "velocity": 86,
              "position": 0.6666666666666666,
              "duration": 0.36041666666666666
            },
            {
              "pitch": 64,
              "velocity": 86,
              "position": 0.6666666666666666,
              "duration": 0.36041666666666666
            },
            {
              "pitch": 55,
              "velocity": 67,
              "position": 2,
              "duration": 0.36041666666666666
            },
            {
              "pitch": 59,
              "velocity": 67,
              "position": 2,
              "duration": 0.36041666666666666
            },
            {
              "pitch": 64,
              "velocity": 67,
              "position": 2,
              "duration": 0.36041666666666666
            }
          ]
        },
        "14": {
          "ctab": {
            "srcChannel": 14,
            "name": "DOM",
            "accType": "PHRASE1",
            "editable": false,
            "mutedNotes": [],
            "mutedChords": [
              "1+2+5",
              "sus4",
              "7aug",
              "Maj7aug",
              "dim",
              "minMaj7(9)",
              "minMaj7",
              "min(9)",
              "m7b5",
              "min",
              "aug"
            ],
            "autoStart": false,
            "sourceChordNote": 0,
            "sourceChordType": "Maj7",
            "ctb2Low": null,
            "ctb2Main": {
              "ntr": "ROOT_TRANSPOSITION",
              "ntt": "MELODY",
              "bassOn": true,
              "chordRootUpperLimit": 0,
              "noteLowLimit": 35,
              "noteHighLimit": 127,
              "rtr": "PITCH_SHIFT_TO_ROOT"
            },
            "ctb2High": null
          },
          "notes": [
            {
              "pitch": 48,
              "velocity": 121,
              "position": 0,
              "duration": 0.9854166666666667
            },
            {
              "pitch": 40,
              "velocity": 97,
              "position": 1,
              "duration": 0.9854166666666667
            },
            {
              "pitch": 45,
              "velocity": 119,
              "position": 2,
              "duration": 0.9854166666666667
            },
            {
              "pitch": 43,
              "velocity": 119,
              "position": 3,
              "duration": 0.9958333333333333
            }
          ]
        }
      }
    },
    "Intro_B": {
      "type": "Intro_B",
      "sizeInBeats": 16,
      "channels": {
        "1": {
          "ctab": {
            "srcChannel": 1,
            "name": "j.gtr",
            "accType": "CHORD1",
            "editable": false,
            "mutedNotes": [],
            "mutedChords": [
              "1+2+5",
              "sus4",
              "1+5",
              "1+8",
              "7aug",
              "Maj7aug",
              "7(#9)",
              "7(b13)",
              "7(b9)",
              "7(13)",
              "7#11",
              "7(9)",
              "7b5",
              "7sus4",
              "7th",
              "aug",
              "Maj6(9)",
              "Maj7(9)",
              "Maj(9)",
              "Maj7#11",
              "Maj7",
              "Maj6",
              "Maj"
            ],
            "autoStart": false,
            "sourceChordNote": 0,
            "sourceChordType": "min",
            "ctb2Low": null,
            "ctb2Main": {
              "ntr": "ROOT_TRANSPOSITION",
              "ntt": "BYPASS",
              "bassOn": false,
              "chordRootUpperLimit": 7,
              "noteLowLimit": 54,
              "noteHighLimit": 65,
              "rtr": "PITCH_SHIFT"
            },
            "ctb2High": null
          },
          "notes": [
            {
              "pitch": 55,
              "velocity": 39,
              "position": 0,
              "duration": 0.9854166666666667
            },
            {
              "pitch": 60,
              "velocity": 54,
              "position": 0,
              "duration": 0.9854166666666667
            },
            {
              "pitch": 63,
              "velocity": 39,
              "position": 0,
              "duration": 0.9854166666666667
            },
            {
              "pitch": 55,
              "velocity": 76,
              "position": 1,
              "duration": 0.30833333333333335
            },
            {
              "pitch": 60,
              "velocity": 76,
              "position": 1,
              "duration": 0.30833333333333335
            },
            {
              "pitch": 63,
              "velocity": 76,
              "position": 1,
              "duration": 0.30833333333333335
            },
            {
              "pitch": 55,
              "velocity": 36,
              "position": 2,
              "duration": 0.9854166666666667
            },
            {
              "pitch": 60,
              "velocity": 36,
              "position": 2,
              "duration": 0.9854166666666667
            },
            {
              "pitch": 63,
              "velocity": 36,
              "position": 2,
              "duration": 0.9854166666666667
            },
            {
              "pitch": 55,
              "velocity": 83,
              "position": 3,
              "duration": 0.30833333333333335
            },
            {
              "pitch": 60,
              "velocity": 83,
              "position": 3,
              "duration": 0.30833333333333335
            },
            {
              "pitch": 63,
              "velocity": 83,
              "position": 3,
              "duration": 0.30833333333333335
            },
            {
              "pitch": 56,
              "velocity": 38,
              "position": 4,
              "duration": 0.9854166666666667
            },
            {
              "pitch": 60,
              "velocity": 38,
              "position": 4,
              "duration": 0.9854166666666667
            },
            {
              "pitch": 65,
              "velocity": 38,
              "position": 4,
              "duration": 0.9854166666666667
            },
            {
              "pitch": 56,
              "velocity": 79,
              "position": 5,
              "duration": 0.30833333333333335
            },
            {
              "pitch": 60,
              "velocity": 79,
              "position": 5,
              "duration": 0.30833333333333335
            },
            {
              "pitch": 65,
              "velocity": 79,
              "position": 5,
              "duration": 0.30833333333333335
            },
            {
              "pitch": 56,
              "velocity": 36,
              "position": 6,
              "duration": 0.9854166666666667
            },
            {
              "pitch": 60,
              "velocity": 36,
              "position": 6,
              "duration": 0.9854166666666667
            },
            {
              "pitch": 65,
              "velocity": 36,
              "position": 6,
              "duration": 0.9854166666666667
            },
            {
              "pitch": 56,
              "velocity": 81,
              "position": 7,
              "duration": 0.30833333333333335
            },
            {
              "pitch": 60,
              "velocity": 81,
              "position": 7,
              "duration": 0.30833333333333335
            },
            {
              "pitch": 65,
              "velocity": 81,
              "position": 7,
              "duration": 0.30833333333333335
            },
            {
              "pitch": 54,
              "velocity": 35,
              "position": 7.729166666666667,
              "duration": 0.23541666666666666
            },
            {
              "pitch": 60,
              "velocity": 35,
              "position": 7.729166666666667,
              "duration": 0.23541666666666666
            },
            {
              "pitch": 63,
              "velocity": 35,
              "position": 7.729166666666667,
              "duration": 0.23541666666666666
            },
            {
              "pitch": 54,
              "velocity": 36,
              "position": 8,
              "duration": 0.9854166666666667
            },
            {
              "pitch": 60,
              "velocity": 36,
              "position": 8,
              "duration": 0.9854166666666667
            },
            {
              "pitch": 63,
              "velocity": 36,
              "position": 8,
              "duration": 0.9854166666666667
            },
            {
              "pitch": 54,
              "velocity": 77,
              "position": 9,
              "duration": 0.30833333333333335
            },
            {
              "pitch": 60,
              "velocity": 77,
              "position": 9,
              "duration": 0.30833333333333335
            },
            {
              "pitch": 63,
              "velocity": 77,
              "position": 9,
              "duration": 0.30833333333333335
            },
            {
              "pitch": 54,
              "velocity": 34,
              "position": 10,
              "duration": 0.9854166666666667
            },
            {
              "pitch": 60,
              "velocity": 34,
              "position": 10,
              "duration": 0.9854166666666667
            },
            {
              "pitch": 63,
              "velocity": 34,
              "position": 10,
              "duration": 0.9854166666666667
            },
            {
              "pitch": 54,
              "velocity": 88,
              "position": 11,
              "duration": 0.30833333333333335
            },
            {
              "pitch": 60,
              "velocity": 88,
              "position": 11,
              "duration": 0.30833333333333335
            },
            {
              "pitch": 63,
              "velocity": 88,
              "position": 11,
              "duration": 0.30833333333333335
            },
            {
              "pitch": 54,
              "velocity": 65,
              "position": 11.666666666666666,
              "duration": 1.9854166666666666
            },
            {
              "pitch": 60,
              "velocity": 65,
              "position": 11.666666666666666,
              "duration": 1.9854166666666666
            },
            {
              "pitch": 63,
              "velocity": 65,
              "position": 11.666666666666666,
              "duration": 1.9854166666666666
            },
            {
              "pitch": 55,
              "velocity": 76,
              "position": 13.666666666666666,
              "duration": 2.3291666666666666
            },
            {
              "pitch": 59,
              "velocity": 76,
              "position": 13.666666666666666,
              "duration": 2.3291666666666666
            },
            {
              "pitch": 63,
              "velocity": 76,
              "position": 13.666666666666666,
              "duration": 2.3291666666666666
            }
          ]
        },
        "2": {
          "ctab": {
            "srcChannel": 2,
            "name": "vocal",
            "accType": "CHORD2",
            "editable": false,
            "mutedNotes": [],
            "mutedChords": [
              "1+2+5",
              "sus4",
              "1+5",
              "1+8",
              "7aug",
              "Maj7aug",
              "7(#9)",
              "7(b13)",
              "7(b9)",
              "7(13)",
              "7#11",
              "7(9)",
              "7b5",
              "7sus4",
              "7th",
              "aug",
              "Maj6(9)",
              "Maj7(9)",
              "Maj(9)",
              "Maj7#11",
              "Maj7",
              "Maj6",
              "Maj"
            ],
            "autoStart": false,
            "sourceChordNote": 0,
            "sourceChordType": "min",
            "ctb2Low": null,
            "ctb2Main": {
              "ntr": "ROOT_TRANSPOSITION",
              "ntt": "BYPASS",
              "bassOn": false,
              "chordRootUpperLimit": 9,
              "noteLowLimit": 0,
              "noteHighLimit": 127,
              "rtr": "PITCH_SHIFT"
            },
            "ctb2High": null
          },
          "notes": [
            {
              "pitch": 51,
              "velocity": 67,
              "position": 0.6666666666666666,
              "duration": 0.8666666666666667
            },
            {
              "pitch": 55,
              "velocity": 67,
              "position": 0.6666666666666666,
              "duration": 0.8666666666666667
            },
            {
              "pitch": 60,
              "velocity": 67,
              "position": 0.6666666666666666,
              "duration": 0.8666666666666667
            },
            {
              "pitch": 51,
              "velocity": 71,
              "position": 1.7291666666666667,
              "duration": 0.25625
            },
            {
              "pitch": 55,
              "velocity": 71,
              "position": 1.7291666666666667,
              "duration": 0.25625
            },
            {
              "pitch": 60,
              "velocity": 71,
              "position": 1.7291666666666667,
              "duration": 0.25625
            },
            {
              "pitch": 53,
              "velocity": 88,
              "position": 2,
              "duration": 0.49583333333333335
            },
            {
              "pitch": 56,
              "velocity": 88,
              "position": 2,
              "duration": 0.49583333333333335
            },
            {
              "pitch": 62,
              "velocity": 88,
              "position": 2,
              "duration": 0.49583333333333335
            },
            {
              "pitch": 55,
              "velocity": 79,
              "position": 3,
              "duration": 0.49583333333333335
            },
            {
              "pitch": 60,
              "velocity": 79,
              "position": 3,
              "duration": 0.49583333333333335
            },
            {
              "pitch": 63,
              "velocity": 79,
              "position": 3,
              "duration": 0.49583333333333335
            },
            {
              "pitch": 53,
              "velocity": 74,
              "position": 4,
              "duration": 0.9958333333333333
            },
            {
              "pitch": 56,
              "velocity": 74,
              "position": 4,
              "duration": 0.9958333333333333
            },
            {
              "pitch": 62,
              "velocity": 74,
              "position": 4,
              "duration": 0.9958333333333333
            },
            {
              "pitch": 62,
              "velocity": 67,
              "position": 5,
              "duration": 0.5791666666666667
            },
            {
              "pitch": 56,
              "velocity": 67,
              "position": 5,
              "duration": 0.5875
            },
            {
              "pitch": 65,
              "velocity": 67,
              "position": 5,
              "duration": 0.5875
            },
            {
              "pitch": 62,
              "velocity": 109,
              "position": 5.666666666666667,
              "duration": 0.5791666666666667
            },
            {
              "pitch": 56,
              "velocity": 109,
              "position": 5.666666666666667,
              "duration": 0.5875
            },
            {
              "pitch": 65,
              "velocity": 109,
              "position": 5.666666666666667,
              "duration": 0.5875
            },
            {
              "pitch": 60,
              "velocity": 71,
              "position": 8,
              "duration": 0.5479166666666667
            },
            {
              "pitch": 63,
              "velocity": 71,
              "position": 8,
              "duration": 0.5479166666666667
            },
            {
              "pitch": 66,
              "velocity": 71,
              "position": 8,
              "duration": 0.5479166666666667
            },
            {
              "pitch": 60,
              "velocity": 91,
              "position": 8.666666666666666,
              "duration": 0.6625
            },
            {
              "pitch": 63,
              "velocity": 91,
              "position": 8.666666666666666,
              "duration": 0.6625
            },
            {
              "pitch": 66,
              "velocity": 91,
              "position": 8.666666666666666,
              "duration": 0.6625
            },
            {
              "pitch": 60,
              "velocity": 38,
              "position": 9.729166666666666,
              "duration": 0.25625
            },
            {
              "pitch": 63,
              "velocity": 59,
              "position": 9.729166666666666,
              "duration": 0.25625
            },
            {
              "pitch": 66,
              "velocity": 54,
              "position": 9.729166666666666,
              "duration": 0.25625
            },
            {
              "pitch": 58,
              "velocity": 93,
              "position": 10,
              "duration": 0.5166666666666667
            },
            {
              "pitch": 63,
              "velocity": 93,
              "position": 10,
              "duration": 0.5166666666666667
            },
            {
              "pitch": 65,
              "velocity": 93,
              "position": 10,
              "duration": 0.5166666666666667
            },
            {
              "pitch": 56,
              "velocity": 79,
              "position": 10.666666666666666,
              "duration": 0.8541666666666666
            },
            {
              "pitch": 63,
              "velocity": 79,
              "position": 10.666666666666666,
              "duration": 0.8541666666666666
            },
            {
              "pitch": 54,
              "velocity": 83,
              "position": 11.66875,
              "duration": 0.9979166666666667
            },
            {
              "pitch": 58,
              "velocity": 83,
              "position": 11.66875,
              "duration": 0.9979166666666667
            },
            {
              "pitch": 60,
              "velocity": 83,
              "position": 11.66875,
              "duration": 0.9979166666666667
            },
            {
              "pitch": 63,
              "velocity": 83,
              "position": 11.66875,
              "duration": 0.9979166666666667
            },
            {
              "pitch": 53,
              "velocity": 117,
              "position": 13.666666666666666,
              "duration": 2.3291666666666666
            },
            {
              "pitch": 55,
              "velocity": 117,
              "position": 13.666666666666666,
              "duration": 2.3291666666666666
            },
            {
              "pitch": 59,
              "velocity": 117,
              "position": 13.666666666666666,
              "duration": 2.3291666666666666
            },
            {
              "pitch": 63,
              "velocity": 117,
              "position": 13.666666666666666,
              "duration": 2.3291666666666666
            }
          ]
        },
        "4": {
          "ctab": {
            "srcChannel": 4,
            "name": "doo",
            "accType": "PHRASE1",
            "editable": false,
            "mutedNotes": [],
            "mutedChords": [
              "1+2+5",
              "sus4",
              "1+5",
              "1+8",
              "7aug",
              "Maj7aug",
              "7(#9)",
              "7(b13)",
              "7(b9)",
              "7(13)",
              "7#11",
              "7(9)",
              "7b5",
              "7sus4",
              "7th",
              "aug",
              "Maj6(9)",
              "Maj7(9)",
              "Maj(9)",
              "Maj7#11",
              "Maj7",
              "Maj6",
              "Maj"
            ],
            "autoStart": false,
            "sourceChordNote": 0,
            "sourceChordType": "min",
            "ctb2Low": null,
            "ctb2Main": {
              "ntr": "ROOT_TRANSPOSITION",
              "ntt": "BYPASS",
              "bassOn": false,
              "chordRootUpperLimit": 5,
              "noteLowLimit": 36,
              "noteHighLimit": 127,
              "rtr": "PITCH_SHIFT"
            },
            "ctb2High": null
          },
          "notes": [
            {
              "pitch": 36,
              "velocity": 116,
              "position": 0.0020833333333333333,
              "duration": 0.9854166666666667
            },
            {
              "pitch": 39,
              "velocity": 127,
              "position": 2,
              "duration": 0.9854166666666667
            },
            {
              "pitch": 38,
              "velocity": 114,
              "position": 4,
              "duration": 0.9854166666666667
            },
            {
              "pitch": 43,
              "velocity": 127,
              "position": 5.666666666666667,
              "duration": 1.0479166666666666
            },
            {
              "pitch": 41,
              "velocity": 110,
              "position": 6.729166666666667,
              "duration": 0.25416666666666665
            },
            {
              "pitch": 43,
              "velocity": 103,
              "position": 7,
              "duration": 0.5979166666666667
            },
            {
              "pitch": 44,
              "velocity": 114,
              "position": 8,
              "duration": 0.9854166666666667
            },
            {
              "pitch": 44,
              "velocity": 112,
              "position": 10.027083333333334,
              "duration": 0.9875
            },
            {
              "pitch": 44,
              "velocity": 114,
              "position": 11.666666666666666,
              "duration": 1.0479166666666666
            },
            {
              "pitch": 46,
              "velocity": 121,
              "position": 12.729166666666666,
              "duration": 0.3375
            },
            {
              "pitch": 44,
              "velocity": 119,
              "position": 13,
              "duration": 0.6520833333333333
            },
            {
              "pitch": 43,
              "velocity": 121,
              "position": 13.666666666666666,
              "duration": 1.8541666666666667
            }
          ]
        },
        "5": {
          "ctab": {
            "srcChannel": 5,
            "name": "Bass",
            "accType": "BASS",
            "editable": false,
            "mutedNotes": [],
            "mutedChords": [
              "1+2+5",
              "sus4",
              "1+5",
              "1+8",
              "7aug",
              "Maj7aug",
              "7(#9)",
              "7(b13)",
              "7(b9)",
              "7(13)",
              "7#11",
              "7(9)",
              "7b5",
              "7sus4",
              "7th",
              "aug",
              "Maj6(9)",
              "Maj7(9)",
              "Maj(9)",
              "Maj7#11",
              "Maj7",
              "Maj6",
              "Maj"
            ],
            "autoStart": false,
            "sourceChordNote": 0,
            "sourceChordType": "min",
            "ctb2Low": null,
            "ctb2Main": {
              "ntr": "ROOT_TRANSPOSITION",
              "ntt": "BYPASS",
              "bassOn": false,
              "chordRootUpperLimit": 3,
              "noteLowLimit": 28,
              "noteHighLimit": 127,
              "rtr": "PITCH_SHIFT"
            },
            "ctb2High": null
          },
          "notes": [
            {
              "pitch": 24,
              "velocity": 113,
              "position": 0,
              "duration": 1.4958333333333333
            },
            {
              "pitch": 27,
              "velocity": 111,
              "position": 2,
              "duration": 1.4958333333333333
            },
            {
              "pitch": 26,
              "velocity": 113,
              "position": 4,
              "duration": 1.6520833333333333
            },
            {
              "pitch": 31,
              "velocity": 113,
              "position": 5.666666666666667,
              "duration": 1.0458333333333334
            },
            {
              "pitch": 30,
              "velocity": 100,
              "position": 6.729166666666667,
              "duration": 0.25625
            },
            {
              "pitch": 31,
              "velocity": 94,
              "position": 7,
              "duration": 0.9854166666666667
            },
            {
              "pitch": 32,
              "velocity": 103,
              "position": 8,
              "duration": 1.4958333333333333
            },
            {
              "pitch": 32,
              "velocity": 115,
              "position": 10.104166666666666,
              "duration": 1.2458333333333333
            },
            {
              "pitch": 32,
              "velocity": 127,
              "position": 11.666666666666666,
              "duration": 1.9625
            },
            {
              "pitch": 31,
              "velocity": 122,
              "position": 13.641666666666667,
              "duration": 2.3520833333333333
            }
          ]
        },
        "8": {
          "ctab": {
            "srcChannel": 8,
            "name": "snips",
            "accType": "SUBRHYTHM",
            "editable": false,
            "mutedNotes": [],
            "mutedChords": [],
            "autoStart": true,
            "sourceChordNote": 0,
            "sourceChordType": "Maj7",
            "ctb2Low": null,
            "ctb2Main": {
              "ntr": "ROOT_FIXED",
              "ntt": "BYPASS",
              "bassOn": false,
              "chordRootUpperLimit": 6,
              "noteLowLimit": 0,
              "noteHighLimit": 127,
              "rtr": "PITCH_SHIFT"
            },
            "ctb2High": null
          },
          "notes": [
            {
              "pitch": 19,
              "velocity": 100,
              "position": 1,
              "duration": 0.24583333333333332
            },
            {
              "pitch": 19,
              "velocity": 100,
              "position": 3,
              "duration": 0.24583333333333332
            },
            {
              "pitch": 19,
              "velocity": 100,
              "position": 5,
              "duration": 0.24583333333333332
            },
            {
              "pitch": 19,
              "velocity": 100,
              "position": 7,
              "duration": 0.24583333333333332
            },
            {
              "pitch": 19,
              "velocity": 100,
              "position": 9,
              "duration": 0.24583333333333332
            },
            {
              "pitch": 19,
              "velocity": 100,
              "position": 11,
              "duration": 0.24583333333333332
            },
            {
              "pitch": 19,
              "velocity": 100,
              "position": 13,
              "duration": 0.24583333333333332
            },
            {
              "pitch": 19,
              "velocity": 100,
              "position": 15,
              "duration": 0.24583333333333332
            }
          ]
        },
        "9": {
          "ctab": {
            "srcChannel": 9,
            "name": "Rhyth2",
            "accType": "RHYTHM",
            "editable": false,
            "mutedNotes": [],
            "mutedChords": [],
            "autoStart": true,
            "sourceChordNote": 0,
            "sourceChordType": "Maj7",
            "ctb2Low": null,
            "ctb2Main": {
              "ntr": "ROOT_FIXED",
              "ntt": "BYPASS",
              "bassOn": false,
              "chordRootUpperLimit": 6,
              "noteLowLimit": 0,
              "noteHighLimit": 127,
              "rtr": "PITCH_SHIFT"
            },
            "ctb2High": null
          },
          "notes": [
            {
              "pitch": 51,
              "velocity": 74,
              "position": 0,
              "duration": 0.0375
            },
            {
              "pitch": 33,
              "velocity": 78,
              "position": 0,
              "duration": 0.12083333333333333
            },
            {
              "pitch": 40,
              "velocity": 49,
              "position": 0.7291666666666666,
              "duration": 0.00625
            },
            {
              "pitch": 44,
              "velocity": 82,
              "position": 1,
              "duration": 0.016666666666666666
            },
            {
              "pitch": 51,
              "velocity": 74,
              "position": 1,
              "duration": 0.0375
            },
            {
              "pitch": 51,
              "velocity": 41,
              "position": 1.7395833333333333,
              "duration": 0.0375
            },
            {
              "pitch": 40,
              "velocity": 51,
              "position": 2,
              "duration": 0.00625
            },
            {
              "pitch": 51,
              "velocity": 74,
              "position": 2,
              "duration": 0.0375
            },
            {
              "pitch": 33,
              "velocity": 78,
              "position": 2,
              "duration": 0.12083333333333333
            },
            {
              "pitch": 40,
              "velocity": 52,
              "position": 3,
              "duration": 0.00625
            },
            {
              "pitch": 44,
              "velocity": 82,
              "position": 3,
              "duration": 0.016666666666666666
            },
            {
              "pitch": 51,
              "velocity": 74,
              "position": 3,
              "duration": 0.0375
            },
            {
              "pitch": 51,
              "velocity": 41,
              "position": 3.7395833333333335,
              "duration": 0.0375
            },
            {
              "pitch": 40,
              "velocity": 26,
              "position": 3.7291666666666665,
              "duration": 0.12083333333333333
            },
            {
              "pitch": 40,
              "velocity": 79,
              "position": 4,
              "duration": 0.00625
            },
            {
              "pitch": 49,
              "velocity": 54,
              "position": 4,
              "duration": 0.00625
            },
            {
              "pitch": 33,
              "velocity": 78,
              "position": 4,
              "duration": 0.12083333333333333
            },
            {
              "pitch": 40,
              "velocity": 45,
              "position": 5,
              "duration": 0.00625
            },
            {
              "pitch": 44,
              "velocity": 82,
              "position": 5,
              "duration": 0.016666666666666666
            },
            {
              "pitch": 51,
              "velocity": 74,
              "position": 5,
              "duration": 0.0375
            },
            {
              "pitch": 51,
              "velocity": 74,
              "position": 6,
              "duration": 0.0375
            },
            {
              "pitch": 33,
              "velocity": 78,
              "position": 6,
              "duration": 0.12083333333333333
            },
            {
              "pitch": 40,
              "velocity": 39,
              "position": 6.729166666666667,
              "duration": 0.00625
            },
            {
              "pitch": 44,
              "velocity": 82,
              "position": 7,
              "duration": 0.016666666666666666
            },
            {
              "pitch": 51,
              "velocity": 74,
              "position": 7,
              "duration": 0.0375
            },
            {
              "pitch": 40,
              "velocity": 35,
              "position": 8,
              "duration": 0.00625
            },
            {
              "pitch": 51,
              "velocity": 74,
              "position": 8,
              "duration": 0.0375
            },
            {
              "pitch": 33,
              "velocity": 78,
              "position": 8,
              "duration": 0.12083333333333333
            },
            {
              "pitch": 40,
              "velocity": 35,
              "position": 8.754166666666666,
              "duration": 0.008333333333333333
            },
            {
              "pitch": 44,
              "velocity": 82,
              "position": 9,
              "duration": 0.016666666666666666
            },
            {
              "pitch": 51,
              "velocity": 74,
              "position": 9,
              "duration": 0.0375
            },
            {
              "pitch": 40,
              "velocity": 36,
              "position": 9.5,
              "duration": 0.00625
            },
            {
              "pitch": 40,
              "velocity": 38,
              "position": 9.754166666666666,
              "duration": 0.008333333333333333
            },
            {
              "pitch": 40,
              "velocity": 87,
              "position": 10,
              "duration": 0.00625
            },
            {
              "pitch": 33,
              "velocity": 78,
              "position": 10,
              "duration": 0.12083333333333333
            },
            {
              "pitch": 40,
              "velocity": 82,
              "position": 10.666666666666666,
              "duration": 0.00625
            },
            {
              "pitch": 44,
              "velocity": 82,
              "position": 11,
              "duration": 0.016666666666666666
            },
            {
              "pitch": 40,
              "velocity": 82,
              "position": 11.729166666666666,
              "duration": 0.00625
            },
            {
              "pitch": 49,
              "velocity": 54,
              "position": 11.708333333333334,
              "duration": 0.12083333333333333
            },
            {
              "pitch": 33,
              "velocity": 78,
              "position": 11.729166666666666,
              "duration": 0.12083333333333333
            },
            {
              "pitch": 40,
              "velocity": 65,
              "position": 13,
              "duration": 0.00625
            },
            {
              "pitch": 40,
              "velocity": 79,
              "position": 13.729166666666666,
              "duration": 0.00625
            },
            {
              "pitch": 33,
              "velocity": 78,
              "position": 13.754166666666666,
              "duration": 0.12291666666666666
            },
            {
              "pitch": 40,
              "velocity": 23,
              "position": 14,
              "duration": 0.00625
            },
            {
              "pitch": 40,
              "velocity": 36,
              "position": 14.333333333333334,
              "duration": 0.00625
            },
            {
              "pitch": 40,
              "velocity": 60,
              "position": 14.666666666666666,
              "duration": 0.00625
            },
            {
              "pitch": 40,
              "velocity": 95,
              "position": 15,
              "duration": 0.00625
            },
            {
              "pitch": 57,
              "velocity": 54,
              "position": 15.989583333333334,
              "duration": 0.00625
            }
          ]
        },
        "10": {
          "ctab": {
            "srcChannel": 10,
            "name": "Bass",
            "accType": "BASS",
            "editable": false,
            "mutedNotes": [],
            "mutedChords": [
              "dim7",
              "dim",
              "minMaj7(9)",
              "minMaj7",
              "min7(11)",
              "min7(9)",
              "min(9)",
              "m7b5",
              "min7",
              "min6",
              "min"
            ],
            "autoStart": false,
            "sourceChordNote": 0,
            "sourceChordType": "Maj",
            "ctb2Low": null,
            "ctb2Main": {
              "ntr": "ROOT_TRANSPOSITION",
              "ntt": "BYPASS",
              "bassOn": false,
              "chordRootUpperLimit": 3,
              "noteLowLimit": 28,
              "noteHighLimit": 127,
              "rtr": "PITCH_SHIFT"
            },
            "ctb2High": null
          },
          "notes": [
            {
              "pitch": 26,
              "velocity": 97,
              "position": 0,
              "duration": 1.9854166666666666
            },
            {
              "pitch": 27,
              "velocity": 88,
              "position": 2,
              "duration": 1.9854166666666666
            },
            {
              "pitch": 28,
              "velocity": 90,
              "position": 4,
              "duration": 0.9854166666666667
            },
            {
              "pitch": 32,
              "velocity": 85,
              "position": 5,
              "duration": 0.9854166666666667
            },
            {
              "pitch": 33,
              "velocity": 94,
              "position": 6,
              "duration": 0.9854166666666667
            },
            {
              "pitch": 33,
              "velocity": 90,
              "position": 7,
              "duration": 0.9854166666666667
            },
            {
              "pitch": 32,
              "velocity": 88,
              "position": 8,
              "duration": 1.9854166666666666
            },
            {
              "pitch": 31,
              "velocity": 94,
              "position": 10,
              "duration": 1.7145833333333333
            },
            {
              "pitch": 24,
              "velocity": 86,
              "position": 11.729166666666666,
              "duration": 1.9854166666666666
            },
            {
              "pitch": 31,
              "velocity": 97,
              "position": 13.729166666666666,
              "duration": 1.2666666666666666
            }
          ]
        },
        "11": {
          "ctab": {
            "srcChannel": 11,
            "name": "j.gtr",
            "accType": "CHORD1",
            "editable": false,
            "mutedNotes": [],
            "mutedChords": [
              "dim7",
              "dim",
              "minMaj7(9)",
              "minMaj7",
              "min7(11)",
              "min7(9)",
              "min(9)",
              "m7b5",
              "min7",
              "min6",
              "min"
            ],
            "autoStart": false,
            "sourceChordNote": 0,
            "sourceChordType": "Maj",
            "ctb2Low": null,
            "ctb2Main": {
              "ntr": "ROOT_TRANSPOSITION",
              "ntt": "BYPASS",
              "bassOn": false,
              "chordRootUpperLimit": 7,
              "noteLowLimit": 50,
              "noteHighLimit": 61,
              "rtr": "PITCH_SHIFT"
            },
            "ctb2High": null
          },
          "notes": [
            {
              "pitch": 50,
              "velocity": 36,
              "position": 0,
              "duration": 0.9854166666666667
            },
            {
              "pitch": 53,
              "velocity": 42,
              "position": 0,
              "duration": 0.9854166666666667
            },
            {
              "pitch": 60,
              "velocity": 50,
              "position": 0,
              "duration": 0.9854166666666667
            },
            {
              "pitch": 50,
              "velocity": 97,
              "position": 1,
              "duration": 0.20416666666666666
            },
            {
              "pitch": 53,
              "velocity": 97,
              "position": 1,
              "duration": 0.20416666666666666
            },
            {
              "pitch": 60,
              "velocity": 97,
              "position": 1,
              "duration": 0.20416666666666666
            },
            {
              "pitch": 51,
              "velocity": 44,
              "position": 2,
              "duration": 0.9854166666666667
            },
            {
              "pitch": 54,
              "velocity": 44,
              "position": 2,
              "duration": 0.9854166666666667
            },
            {
              "pitch": 60,
              "velocity": 44,
              "position": 2,
              "duration": 0.9854166666666667
            },
            {
              "pitch": 51,
              "velocity": 102,
              "position": 3,
              "duration": 0.20416666666666666
            },
            {
              "pitch": 54,
              "velocity": 102,
              "position": 3,
              "duration": 0.20416666666666666
            },
            {
              "pitch": 60,
              "velocity": 102,
              "position": 3,
              "duration": 0.20416666666666666
            },
            {
              "pitch": 52,
              "velocity": 42,
              "position": 4,
              "duration": 0.9854166666666667
            },
            {
              "pitch": 55,
              "velocity": 42,
              "position": 4,
              "duration": 0.9854166666666667
            },
            {
              "pitch": 60,
              "velocity": 42,
              "position": 4,
              "duration": 0.9854166666666667
            },
            {
              "pitch": 52,
              "velocity": 104,
              "position": 5,
              "duration": 0.20416666666666666
            },
            {
              "pitch": 55,
              "velocity": 104,
              "position": 5,
              "duration": 0.20416666666666666
            },
            {
              "pitch": 60,
              "velocity": 104,
              "position": 5,
              "duration": 0.20416666666666666
            },
            {
              "pitch": 53,
              "velocity": 48,
              "position": 6,
              "duration": 0.9854166666666667
            },
            {
              "pitch": 55,
              "velocity": 48,
              "position": 6,
              "duration": 0.9854166666666667
            },
            {
              "pitch": 61,
              "velocity": 48,
              "position": 6,
              "duration": 0.9854166666666667
            },
            {
              "pitch": 53,
              "velocity": 102,
              "position": 7,
              "duration": 0.20416666666666666
            },
            {
              "pitch": 55,
              "velocity": 102,
              "position": 7,
              "duration": 0.20416666666666666
            },
            {
              "pitch": 61,
              "velocity": 102,
              "position": 7,
              "duration": 0.20416666666666666
            },
            {
              "pitch": 51,
              "velocity": 50,
              "position": 8,
              "duration": 0.9854166666666667
            },
            {
              "pitch": 54,
              "velocity": 50,
              "position": 8,
              "duration": 0.9854166666666667
            },
            {
              "pitch": 60,
              "velocity": 50,
              "position": 8,
              "duration": 0.9854166666666667
            },
            {
              "pitch": 51,
              "velocity": 90,
              "position": 9,
              "duration": 0.20416666666666666
            },
            {
              "pitch": 54,
              "velocity": 90,
              "position": 9,
              "duration": 0.20416666666666666
            },
            {
              "pitch": 60,
              "velocity": 90,
              "position": 9,
              "duration": 0.20416666666666666
            },
            {
              "pitch": 53,
              "velocity": 55,
              "position": 10,
              "duration": 0.9854166666666667
            },
            {
              "pitch": 59,
              "velocity": 55,
              "position": 10,
              "duration": 0.9854166666666667
            },
            {
              "pitch": 53,
              "velocity": 100,
              "position": 11,
              "duration": 0.20416666666666666
            },
            {
              "pitch": 59,
              "velocity": 100,
              "position": 11,
              "duration": 0.20416666666666666
            },
            {
              "pitch": 50,
              "velocity": 95,
              "position": 11.666666666666666,
              "duration": 1.9854166666666666
            },
            {
              "pitch": 55,
              "velocity": 95,
              "position": 11.666666666666666,
              "duration": 1.9854166666666666
            },
            {
              "pitch": 60,
              "velocity": 95,
              "position": 11.666666666666666,
              "duration": 1.9854166666666666
            },
            {
              "pitch": 50,
              "velocity": 95,
              "position": 13.666666666666666,
              "duration": 1.2541666666666667
            },
            {
              "pitch": 55,
              "velocity": 95,
              "position": 13.666666666666666,
              "duration": 1.2541666666666667
            }
          ]
        },
        "12": {
          "ctab": {
            "srcChannel": 12,
            "name": "vocal",
            "accType": "CHORD2",
            "editable": false,
            "mutedNotes": [],
            "mutedChords": [
              "dim7",
              "dim",
              "minMaj7(9)",
              "minMaj7",
              "min7(11)",
              "min7(9)",
              "min(9)",
              "m7b5",
              "min7",
              "min6",
              "min"
            ],
            "autoStart": false,
            "sourceChordNote": 0,
            "sourceChordType": "Maj",
            "ctb2Low": null,
            "ctb2Main": {
              "ntr": "ROOT_TRANSPOSITION",
              "ntt": "BYPASS",
              "bassOn": false,
              "chordRootUpperLimit": 10,
              "noteLowLimit": 0,
              "noteHighLimit": 127,
              "rtr": "PITCH_SHIFT"
            },
            "ctb2High": null
          },
          "notes": [
            {
              "pitch": 50,
              "velocity": 73,
              "position": 0.7291666666666666,
              "duration": 1.0229166666666667
            },
            {
              "pitch": 53,
              "velocity": 73,
              "position": 0.7291666666666666,
              "duration": 1.0229166666666667
            },
            {
              "pitch": 57,
              "velocity": 73,
              "position": 0.7291666666666666,
              "duration": 1.0229166666666667
            },
            {
              "pitch": 60,
              "velocity": 73,
              "position": 0.7291666666666666,
              "duration": 1.0229166666666667
            },
            {
              "pitch": 51,
              "velocity": 67,
              "position": 2,
              "duration": 0.49583333333333335
            },
            {
              "pitch": 54,
              "velocity": 67,
              "position": 2,
              "duration": 0.49583333333333335
            },
            {
              "pitch": 57,
              "velocity": 67,
              "position": 2,
              "duration": 0.49583333333333335
            },
            {
              "pitch": 60,
              "velocity": 67,
              "position": 2,
              "duration": 0.49583333333333335
            },
            {
              "pitch": 51,
              "velocity": 77,
              "position": 3,
              "duration": 0.49583333333333335
            },
            {
              "pitch": 54,
              "velocity": 77,
              "position": 3,
              "duration": 0.49583333333333335
            },
            {
              "pitch": 57,
              "velocity": 77,
              "position": 3,
              "duration": 0.49583333333333335
            },
            {
              "pitch": 60,
              "velocity": 77,
              "position": 3,
              "duration": 0.49583333333333335
            },
            {
              "pitch": 52,
              "velocity": 111,
              "position": 4,
              "duration": 0.9958333333333333
            },
            {
              "pitch": 55,
              "velocity": 111,
              "position": 4,
              "duration": 0.9958333333333333
            },
            {
              "pitch": 57,
              "velocity": 111,
              "position": 4,
              "duration": 0.9958333333333333
            },
            {
              "pitch": 60,
              "velocity": 111,
              "position": 4,
              "duration": 0.9958333333333333
            },
            {
              "pitch": 55,
              "velocity": 94,
              "position": 6.729166666666667,
              "duration": 1.0229166666666667
            },
            {
              "pitch": 57,
              "velocity": 82,
              "position": 6.729166666666667,
              "duration": 1.0229166666666667
            },
            {
              "pitch": 61,
              "velocity": 99,
              "position": 6.729166666666667,
              "duration": 1.0229166666666667
            },
            {
              "pitch": 65,
              "velocity": 92,
              "position": 6.729166666666667,
              "duration": 1.0229166666666667
            },
            {
              "pitch": 54,
              "velocity": 96,
              "position": 8,
              "duration": 0.9958333333333333
            },
            {
              "pitch": 58,
              "velocity": 85,
              "position": 8,
              "duration": 0.9958333333333333
            },
            {
              "pitch": 60,
              "velocity": 89,
              "position": 8,
              "duration": 0.9958333333333333
            },
            {
              "pitch": 63,
              "velocity": 87,
              "position": 8,
              "duration": 0.9958333333333333
            },
            {
              "pitch": 53,
              "velocity": 88,
              "position": 10,
              "duration": 0.9958333333333333
            },
            {
              "pitch": 56,
              "velocity": 88,
              "position": 10,
              "duration": 0.9958333333333333
            },
            {
              "pitch": 59,
              "velocity": 88,
              "position": 10,
              "duration": 0.9958333333333333
            },
            {
              "pitch": 64,
              "velocity": 88,
              "position": 10,
              "duration": 0.9958333333333333
            },
            {
              "pitch": 52,
              "velocity": 97,
              "position": 11.729166666666666,
              "duration": 0.7666666666666667
            },
            {
              "pitch": 55,
              "velocity": 97,
              "position": 11.729166666666666,
              "duration": 0.7666666666666667
            },
            {
              "pitch": 57,
              "velocity": 97,
              "position": 11.729166666666666,
              "duration": 0.7666666666666667
            },
            {
              "pitch": 60,
              "velocity": 97,
              "position": 11.729166666666666,
              "duration": 0.7666666666666667
            },
            {
              "pitch": 59,
              "velocity": 114,
              "position": 13.666666666666666,
              "duration": 2.29375
            },
            {
              "pitch": 63,
              "velocity": 114,
              "position": 13.666666666666666,
              "duration": 2.29375
            },
            {
              "pitch": 67,
              "velocity": 107,
              "position": 13.666666666666666,
              "duration": 2.29375
            }
          ]
        },
        "14": {
          "ctab": {
            "srcChannel": 14,
            "name": "doo",
            "accType": "PHRASE1",
            "editable": false,
            "mutedNotes": [],
            "mutedChords": [
              "dim7",
              "dim",
              "minMaj7(9)",
              "minMaj7",
              "min7(11)",
              "min7(9)",
              "min(9)",
              "m7b5",
              "min7",
              "min6",
              "min"
            ],
            "autoStart": false,
            "sourceChordNote": 0,
            "sourceChordType": "Maj",
            "ctb2Low": null,
            "ctb2Main": {
              "ntr": "ROOT_TRANSPOSITION",
              "ntt": "BYPASS",
              "bassOn": false,
              "chordRootUpperLimit": 3,
              "noteLowLimit": 36,
              "noteHighLimit": 127,
              "rtr": "PITCH_SHIFT"
            },
            "ctb2High": null
          },
          "notes": [
            {
              "pitch": 38,
              "velocity": 104,
              "position": 0,
              "duration": 1.7145833333333333
            },
            {
              "pitch": 38,
              "velocity": 57,
              "position": 1.7291666666666667,
              "duration": 0.25416666666666665
            },
            {
              "pitch": 39,
              "velocity": 111,
              "position": 2,
              "duration": 1.7145833333333333
            },
            {
              "pitch": 39,
              "velocity": 67,
              "position": 3.7291666666666665,
              "duration": 0.25625
            },
            {
              "pitch": 40,
              "velocity": 109,
              "position": 4,
              "duration": 0.9854166666666667
            },
            {
              "pitch": 44,
              "velocity": 104,
              "position": 5,
              "duration": 0.9854166666666667
            },
            {
              "pitch": 45,
              "velocity": 93,
              "position": 6,
              "duration": 0.9854166666666667
            },
            {
              "pitch": 45,
              "velocity": 106,
              "position": 7,
              "duration": 0.9854166666666667
            },
            {
              "pitch": 44,
              "velocity": 100,
              "position": 8,
              "duration": 0.9958333333333333
            },
            {
              "pitch": 43,
              "velocity": 102,
              "position": 10,
              "duration": 0.9958333333333333
            },
            {
              "pitch": 36,
              "velocity": 99,
              "position": 11.729166666666666,
              "duration": 1.9854166666666666
            },
            {
              "pitch": 43,
              "velocity": 100,
              "position": 13.729166666666666,
              "duration": 0.9854166666666667
            },
            {
              "pitch": 45,
              "velocity": 79,
              "position": 14.729166666666666,
              "duration": 0.25625
            },
            {
              "pitch": 43,
              "velocity": 111,
              "position": 15,
              "duration": 0.9958333333333333
            }
          ]
        }
      }
    },
    "Ending_C": {
      "type": "Ending_C",
      "sizeInBeats": 16,
      "channels": {
        "1": {
          "ctab": {
            "srcChannel": 1,
            "name": "j.gtr",
            "accType": "CHORD1",
            "editable": false,
            "mutedNotes": [],
            "mutedChords": [
              "1+2+5",
              "sus4",
              "1+5",
              "1+8",
              "7aug",
              "Maj7aug",
              "7(#9)",
              "7(b13)",
              "7(b9)",
              "7(13)",
              "7#11",
              "7(9)",
              "7b5",
              "7sus4",
              "7th",
              "aug",
              "Maj6(9)",
              "Maj7(9)",
              "Maj(9)",
              "Maj7#11",
              "Maj7",
              "Maj6",
              "Maj"
            ],
            "autoStart": false,
            "sourceChordNote": 0,
            "sourceChordType": "min",
            "ctb2Low": null,
            "ctb2Main": {
              "ntr": "ROOT_TRANSPOSITION",
              "ntt": "BYPASS",
              "bassOn": false,
              "chordRootUpperLimit": 7,
              "noteLowLimit": 54,
              "noteHighLimit": 65,
              "rtr": "PITCH_SHIFT"
            },
            "ctb2High": null
          },
          "notes": [
            {
              "pitch": 55,
              "velocity": 39,
              "position": 0,
              "duration": 0.9854166666666667
            },
            {
              "pitch": 60,
              "velocity": 54,
              "position": 0,
              "duration": 0.9854166666666667
            },
            {
              "pitch": 63,
              "velocity": 39,
              "position": 0,
              "duration": 0.9854166666666667
            },
            {
              "pitch": 55,
              "velocity": 76,
              "position": 1,
              "duration": 0.30833333333333335
            },
            {
              "pitch": 60,
              "velocity": 76,
              "position": 1,
              "duration": 0.30833333333333335
            },
            {
              "pitch": 63,
              "velocity": 76,
              "position": 1,
              "duration": 0.30833333333333335
            },
            {
              "pitch": 55,
              "velocity": 36,
              "position": 2,
              "duration": 0.9854166666666667
            },
            {
              "pitch": 60,
              "velocity": 36,
              "position": 2,
              "duration": 0.9854166666666667
            },
            {
              "pitch": 63,
              "velocity": 36,
              "position": 2,
              "duration": 0.9854166666666667
            },
            {
              "pitch": 55,
              "velocity": 83,
              "position": 3,
              "duration": 0.30833333333333335
            },
            {
              "pitch": 60,
              "velocity": 83,
              "position": 3,
              "duration": 0.30833333333333335
            },
            {
              "pitch": 63,
              "velocity": 83,
              "position": 3,
              "duration": 0.30833333333333335
            },
            {
              "pitch": 56,
              "velocity": 38,
              "position": 4,
              "duration": 0.9854166666666667
            },
            {
              "pitch": 60,
              "velocity": 38,
              "position": 4,
              "duration": 0.9854166666666667
            },
            {
              "pitch": 65,
              "velocity": 38,
              "position": 4,
              "duration": 0.9854166666666667
            },
            {
              "pitch": 56,
              "velocity": 79,
              "position": 5,
              "duration": 0.30833333333333335
            },
            {
              "pitch": 60,
              "velocity": 79,
              "position": 5,
              "duration": 0.30833333333333335
            },
            {
              "pitch": 65,
              "velocity": 79,
              "position": 5,
              "duration": 0.30833333333333335
            },
            {
              "pitch": 56,
              "velocity": 36,
              "position": 6,
              "duration": 0.9854166666666667
            },
            {
              "pitch": 60,
              "velocity": 36,
              "position": 6,
              "duration": 0.9854166666666667
            },
            {
              "pitch": 65,
              "velocity": 36,
              "position": 6,
              "duration": 0.9854166666666667
            },
            {
              "pitch": 56,
              "velocity": 81,
              "position": 7,
              "duration": 0.30833333333333335
            },
            {
              "pitch": 60,
              "velocity": 81,
              "position": 7,
              "duration": 0.30833333333333335
            },
            {
              "pitch": 65,
              "velocity": 81,
              "position": 7,
              "duration": 0.30833333333333335
            },
            {
              "pitch": 54,
              "velocity": 35,
              "position": 7.729166666666667,
              "duration": 0.23541666666666666
            },
            {
              "pitch": 60,
              "velocity": 35,
              "position": 7.729166666666667,
              "duration": 0.23541666666666666
            },
            {
              "pitch": 63,
              "velocity": 35,
              "position": 7.729166666666667,
              "duration": 0.23541666666666666
            },
            {
              "pitch": 54,
              "velocity": 36,
              "position": 8,
              "duration": 0.9854166666666667
            },
            {
              "pitch": 60,
              "velocity": 36,
              "position": 8,
              "duration": 0.9854166666666667
            },
            {
              "pitch": 63,
              "velocity": 36,
              "position": 8,
              "duration": 0.9854166666666667
            },
            {
              "pitch": 54,
              "velocity": 77,
              "position": 9,
              "duration": 0.30833333333333335
            },
            {
              "pitch": 60,
              "velocity": 77,
              "position": 9,
              "duration": 0.30833333333333335
            },
            {
              "pitch": 63,
              "velocity": 77,
              "position": 9,
              "duration": 0.30833333333333335
            },
            {
              "pitch": 55,
              "velocity": 34,
              "position": 10,
              "duration": 0.9854166666666667
            },
            {
              "pitch": 59,
              "velocity": 34,
              "position": 10,
              "duration": 0.9854166666666667
            },
            {
              "pitch": 63,
              "velocity": 34,
              "position": 10,
              "duration": 0.9854166666666667
            },
            {
              "pitch": 55,
              "velocity": 88,
              "position": 11,
              "duration": 0.30833333333333335
            },
            {
              "pitch": 59,
              "velocity": 88,
              "position": 11,
              "duration": 0.30833333333333335
            },
            {
              "pitch": 63,
              "velocity": 88,
              "position": 11,
              "duration": 0.30833333333333335
            },
            {
              "pitch": 55,
              "velocity": 65,
              "position": 11.666666666666666,
              "duration": 2.0833333333333335
            },
            {
              "pitch": 60,
              "velocity": 65,
              "position": 11.666666666666666,
              "duration": 2.0833333333333335
            },
            {
              "pitch": 63,
              "velocity": 65,
              "position": 11.666666666666666,
              "duration": 2.0833333333333335
            }
          ]
        },
        "2": {
          "ctab": {
            "srcChannel": 2,
            "name": "vocal",
            "accType": "CHORD2",
            "editable": false,
            "mutedNotes": [],
            "mutedChords": [
              "1+2+5",
              "sus4",
              "1+5",
              "1+8",
              "7aug",
              "Maj7aug",
              "7(#9)",
              "7(b13)",
              "7(b9)",
              "7(13)",
              "7#11",
              "7(9)",
              "7b5",
              "7sus4",
              "7th",
              "aug",
              "Maj6(9)",
              "Maj7(9)",
              "Maj(9)",
              "Maj7#11",
              "Maj7",
              "Maj6",
              "Maj"
            ],
            "autoStart": false,
            "sourceChordNote": 0,
            "sourceChordType": "min",
            "ctb2Low": null,
            "ctb2Main": {
              "ntr": "ROOT_TRANSPOSITION",
              "ntt": "BYPASS",
              "bassOn": false,
              "chordRootUpperLimit": 9,
              "noteLowLimit": 0,
              "noteHighLimit": 127,
              "rtr": "PITCH_SHIFT"
            },
            "ctb2High": null
          },
          "notes": [
            {
              "pitch": 51,
              "velocity": 88,
              "position": 0.6666666666666666,
              "duration": 0.9958333333333333
            },
            {
              "pitch": 55,
              "velocity": 88,
              "position": 0.6666666666666666,
              "duration": 0.9958333333333333
            },
            {
              "pitch": 60,
              "velocity": 88,
              "position": 0.6666666666666666,
              "duration": 0.9958333333333333
            },
            {
              "pitch": 53,
              "velocity": 69,
              "position": 2,
              "duration": 0.6729166666666667
            },
            {
              "pitch": 56,
              "velocity": 69,
              "position": 2,
              "duration": 0.6729166666666667
            },
            {
              "pitch": 62,
              "velocity": 69,
              "position": 2,
              "duration": 0.6729166666666667
            },
            {
              "pitch": 55,
              "velocity": 73,
              "position": 3,
              "duration": 0.6729166666666667
            },
            {
              "pitch": 58,
              "velocity": 79,
              "position": 3,
              "duration": 0.6729166666666667
            },
            {
              "pitch": 63,
              "velocity": 91,
              "position": 3,
              "duration": 0.6729166666666667
            },
            {
              "pitch": 53,
              "velocity": 71,
              "position": 4,
              "duration": 1.5583333333333333
            },
            {
              "pitch": 56,
              "velocity": 71,
              "position": 4,
              "duration": 1.5583333333333333
            },
            {
              "pitch": 62,
              "velocity": 71,
              "position": 4,
              "duration": 1.5583333333333333
            },
            {
              "pitch": 56,
              "velocity": 111,
              "position": 5.666666666666667,
              "duration": 1.3291666666666666
            },
            {
              "pitch": 60,
              "velocity": 111,
              "position": 5.666666666666667,
              "duration": 1.3291666666666666
            },
            {
              "pitch": 62,
              "velocity": 111,
              "position": 5.666666666666667,
              "duration": 1.3291666666666666
            },
            {
              "pitch": 65,
              "velocity": 111,
              "position": 5.666666666666667,
              "duration": 1.3291666666666666
            },
            {
              "pitch": 54,
              "velocity": 68,
              "position": 8,
              "duration": 0.6166666666666667
            },
            {
              "pitch": 58,
              "velocity": 68,
              "position": 8,
              "duration": 0.6166666666666667
            },
            {
              "pitch": 60,
              "velocity": 68,
              "position": 8,
              "duration": 0.6166666666666667
            },
            {
              "pitch": 63,
              "velocity": 68,
              "position": 8,
              "duration": 0.6166666666666667
            },
            {
              "pitch": 66,
              "velocity": 68,
              "position": 8,
              "duration": 0.6166666666666667
            },
            {
              "pitch": 54,
              "velocity": 77,
              "position": 8.666666666666666,
              "duration": 0.29375
            },
            {
              "pitch": 58,
              "velocity": 77,
              "position": 8.666666666666666,
              "duration": 0.29375
            },
            {
              "pitch": 60,
              "velocity": 77,
              "position": 8.666666666666666,
              "duration": 0.29375
            },
            {
              "pitch": 65,
              "velocity": 77,
              "position": 8.666666666666666,
              "duration": 0.29791666666666666
            },
            {
              "pitch": 54,
              "velocity": 73,
              "position": 9,
              "duration": 0.6166666666666667
            },
            {
              "pitch": 58,
              "velocity": 73,
              "position": 9,
              "duration": 0.6166666666666667
            },
            {
              "pitch": 60,
              "velocity": 73,
              "position": 9,
              "duration": 0.6166666666666667
            },
            {
              "pitch": 63,
              "velocity": 73,
              "position": 9,
              "duration": 0.6166666666666667
            },
            {
              "pitch": 54,
              "velocity": 72,
              "position": 9.666666666666666,
              "duration": 0.2833333333333333
            },
            {
              "pitch": 58,
              "velocity": 72,
              "position": 9.666666666666666,
              "duration": 0.2833333333333333
            },
            {
              "pitch": 60,
              "velocity": 72,
              "position": 9.666666666666666,
              "duration": 0.2833333333333333
            },
            {
              "pitch": 53,
              "velocity": 86,
              "position": 10,
              "duration": 0.6208333333333333
            },
            {
              "pitch": 59,
              "velocity": 86,
              "position": 10,
              "duration": 0.6208333333333333
            },
            {
              "pitch": 65,
              "velocity": 86,
              "position": 10,
              "duration": 0.6208333333333333
            },
            {
              "pitch": 53,
              "velocity": 71,
              "position": 10.729166666666666,
              "duration": 0.8291666666666667
            },
            {
              "pitch": 59,
              "velocity": 71,
              "position": 10.729166666666666,
              "duration": 0.8291666666666667
            },
            {
              "pitch": 63,
              "velocity": 71,
              "position": 10.729166666666666,
              "duration": 0.8291666666666667
            },
            {
              "pitch": 51,
              "velocity": 117,
              "position": 11.666666666666666,
              "duration": 2.0833333333333335
            },
            {
              "pitch": 55,
              "velocity": 117,
              "position": 11.666666666666666,
              "duration": 2.0833333333333335
            },
            {
              "pitch": 60,
              "velocity": 117,
              "position": 11.666666666666666,
              "duration": 2.0833333333333335
            }
          ]
        },
        "4": {
          "ctab": {
            "srcChannel": 4,
            "name": "doo",
            "accType": "PHRASE1",
            "editable": false,
            "mutedNotes": [],
            "mutedChords": [
              "1+2+5",
              "sus4",
              "1+5",
              "1+8",
              "7aug",
              "Maj7aug",
              "7(#9)",
              "7(b13)",
              "7(b9)",
              "7(13)",
              "7#11",
              "7(9)",
              "7b5",
              "7sus4",
              "7th",
              "aug",
              "Maj6(9)",
              "Maj7(9)",
              "Maj(9)",
              "Maj7#11",
              "Maj7",
              "Maj6",
              "Maj"
            ],
            "autoStart": false,
            "sourceChordNote": 0,
            "sourceChordType": "min",
            "ctb2Low": null,
            "ctb2Main": {
              "ntr": "ROOT_TRANSPOSITION",
              "ntt": "BYPASS",
              "bassOn": false,
              "chordRootUpperLimit": 5,
              "noteLowLimit": 36,
              "noteHighLimit": 127,
              "rtr": "PITCH_SHIFT"
            },
            "ctb2High": null
          },
          "notes": [
            {
              "pitch": 24,
              "velocity": 99,
              "position": 0.0020833333333333333,
              "duration": 0.9958333333333333
            },
            {
              "pitch": 27,
              "velocity": 94,
              "position": 2,
              "duration": 0.9958333333333333
            },
            {
              "pitch": 26,
              "velocity": 95,
              "position": 4,
              "duration": 0.9958333333333333
            },
            {
              "pitch": 31,
              "velocity": 106,
              "position": 5.666666666666667,
              "duration": 1.0479166666666666
            },
            {
              "pitch": 29,
              "velocity": 77,
              "position": 6.729166666666667,
              "duration": 0.25625
            },
            {
              "pitch": 31,
              "velocity": 99,
              "position": 7,
              "duration": 0.9854166666666667
            },
            {
              "pitch": 32,
              "velocity": 99,
              "position": 8,
              "duration": 1.4541666666666666
            },
            {
              "pitch": 31,
              "velocity": 100,
              "position": 10,
              "duration": 0.5166666666666667
            },
            {
              "pitch": 31,
              "velocity": 92,
              "position": 11,
              "duration": 0.5166666666666667
            },
            {
              "pitch": 24,
              "velocity": 100,
              "position": 11.666666666666666,
              "duration": 2.0833333333333335
            }
          ]
        },
        "5": {
          "ctab": {
            "srcChannel": 5,
            "name": "Bass",
            "accType": "BASS",
            "editable": false,
            "mutedNotes": [],
            "mutedChords": [
              "1+2+5",
              "sus4",
              "1+5",
              "1+8",
              "7aug",
              "Maj7aug",
              "7(#9)",
              "7(b13)",
              "7(b9)",
              "7(13)",
              "7#11",
              "7(9)",
              "7b5",
              "7sus4",
              "7th",
              "aug",
              "Maj6(9)",
              "Maj7(9)",
              "Maj(9)",
              "Maj7#11",
              "Maj7",
              "Maj6",
              "Maj"
            ],
            "autoStart": false,
            "sourceChordNote": 0,
            "sourceChordType": "min",
            "ctb2Low": null,
            "ctb2Main": {
              "ntr": "ROOT_TRANSPOSITION",
              "ntt": "BYPASS",
              "bassOn": false,
              "chordRootUpperLimit": 3,
              "noteLowLimit": 28,
              "noteHighLimit": 127,
              "rtr": "PITCH_SHIFT"
            },
            "ctb2High": null
          },
          "notes": [
            {
              "pitch": 24,
              "velocity": 117,
              "position": 0,
              "duration": 1.9854166666666666
            },
            {
              "pitch": 27,
              "velocity": 103,
              "position": 2,
              "duration": 1.9854166666666666
            },
            {
              "pitch": 26,
              "velocity": 99,
              "position": 4,
              "duration": 1.9854166666666666
            },
            {
              "pitch": 31,
              "velocity": 111,
              "position": 6,
              "duration": 0.7145833333333333
            },
            {
              "pitch": 29,
              "velocity": 77,
              "position": 6.729166666666667,
              "duration": 0.25625
            },
            {
              "pitch": 31,
              "velocity": 97,
              "position": 7,
              "duration": 0.9854166666666667
            },
            {
              "pitch": 32,
              "velocity": 100,
              "position": 8,
              "duration": 1.9854166666666666
            },
            {
              "pitch": 31,
              "velocity": 111,
              "position": 10,
              "duration": 1.6520833333333333
            },
            {
              "pitch": 24,
              "velocity": 113,
              "position": 11.666666666666666,
              "duration": 2.0833333333333335
            }
          ]
        },
        "8": {
          "ctab": {
            "srcChannel": 8,
            "name": "snips",
            "accType": "SUBRHYTHM",
            "editable": false,
            "mutedNotes": [],
            "mutedChords": [],
            "autoStart": true,
            "sourceChordNote": 0,
            "sourceChordType": "Maj7",
            "ctb2Low": null,
            "ctb2Main": {
              "ntr": "ROOT_FIXED",
              "ntt": "BYPASS",
              "bassOn": false,
              "chordRootUpperLimit": 6,
              "noteLowLimit": 0,
              "noteHighLimit": 127,
              "rtr": "PITCH_SHIFT"
            },
            "ctb2High": null
          },
          "notes": [
            {
              "pitch": 19,
              "velocity": 100,
              "position": 1,
              "duration": 0.24583333333333332
            },
            {
              "pitch": 19,
              "velocity": 100,
              "position": 3,
              "duration": 0.24583333333333332
            },
            {
              "pitch": 19,
              "velocity": 100,
              "position": 5,
              "duration": 0.24583333333333332
            },
            {
              "pitch": 19,
              "velocity": 100,
              "position": 7,
              "duration": 0.24583333333333332
            },
            {
              "pitch": 19,
              "velocity": 100,
              "position": 9,
              "duration": 0.24583333333333332
            },
            {
              "pitch": 19,
              "velocity": 100,
              "position": 11,
              "duration": 0.24583333333333332
            }
          ]
        },
        "9": {
          "ctab": {
            "srcChannel": 9,
            "name": "Rhyth2",
            "accType": "RHYTHM",
            "editable": false,
            "mutedNotes": [],
            "mutedChords": [],
            "autoStart": true,
            "sourceChordNote": 0,
            "sourceChordType": "Maj7",
            "ctb2Low": null,
            "ctb2Main": {
              "ntr": "ROOT_FIXED",
              "ntt": "BYPASS",
              "bassOn": false,
              "chordRootUpperLimit": 6,
              "noteLowLimit": 0,
              "noteHighLimit": 127,
              "rtr": "PITCH_SHIFT"
            },
            "ctb2High": null
          },
          "notes": [
            {
              "pitch": 51,
              "velocity": 74,
              "position": 0,
              "duration": 0.0375
            },
            {
              "pitch": 33,
              "velocity": 78,
              "position": 0,
              "duration": 0.12083333333333333
            },
            {
              "pitch": 40,
              "velocity": 60,
              "position": 0.7291666666666666,
              "duration": 0.00625
            },
            {
              "pitch": 44,
              "velocity": 82,
              "position": 1,
              "duration": 0.016666666666666666
            },
            {
              "pitch": 51,
              "velocity": 74,
              "position": 1,
              "duration": 0.0375
            },
            {
              "pitch": 51,
              "velocity": 41,
              "position": 1.7395833333333333,
              "duration": 0.0375
            },
            {
              "pitch": 40,
              "velocity": 62,
              "position": 2,
              "duration": 0.00625
            },
            {
              "pitch": 51,
              "velocity": 74,
              "position": 2,
              "duration": 0.0375
            },
            {
              "pitch": 33,
              "velocity": 78,
              "position": 2,
              "duration": 0.12083333333333333
            },
            {
              "pitch": 40,
              "velocity": 63,
              "position": 3,
              "duration": 0.00625
            },
            {
              "pitch": 44,
              "velocity": 82,
              "position": 3,
              "duration": 0.016666666666666666
            },
            {
              "pitch": 51,
              "velocity": 74,
              "position": 3,
              "duration": 0.0375
            },
            {
              "pitch": 51,
              "velocity": 41,
              "position": 3.7395833333333335,
              "duration": 0.0375
            },
            {
              "pitch": 40,
              "velocity": 32,
              "position": 3.7291666666666665,
              "duration": 0.12083333333333333
            },
            {
              "pitch": 40,
              "velocity": 81,
              "position": 4,
              "duration": 0.00625
            },
            {
              "pitch": 49,
              "velocity": 54,
              "position": 4,
              "duration": 0.00625
            },
            {
              "pitch": 33,
              "velocity": 78,
              "position": 4,
              "duration": 0.12083333333333333
            },
            {
              "pitch": 40,
              "velocity": 55,
              "position": 5,
              "duration": 0.00625
            },
            {
              "pitch": 44,
              "velocity": 82,
              "position": 5,
              "duration": 0.016666666666666666
            },
            {
              "pitch": 51,
              "velocity": 74,
              "position": 5,
              "duration": 0.0375
            },
            {
              "pitch": 51,
              "velocity": 74,
              "position": 6,
              "duration": 0.0375
            },
            {
              "pitch": 33,
              "velocity": 78,
              "position": 6,
              "duration": 0.12083333333333333
            },
            {
              "pitch": 40,
              "velocity": 48,
              "position": 6.729166666666667,
              "duration": 0.00625
            },
            {
              "pitch": 44,
              "velocity": 82,
              "position": 7,
              "duration": 0.016666666666666666
            },
            {
              "pitch": 51,
              "velocity": 74,
              "position": 7,
              "duration": 0.0375
            },
            {
              "pitch": 40,
              "velocity": 43,
              "position": 8,
              "duration": 0.00625
            },
            {
              "pitch": 51,
              "velocity": 74,
              "position": 8,
              "duration": 0.0375
            },
            {
              "pitch": 33,
              "velocity": 78,
              "position": 8,
              "duration": 0.12083333333333333
            },
            {
              "pitch": 40,
              "velocity": 43,
              "position": 8.754166666666666,
              "duration": 0.008333333333333333
            },
            {
              "pitch": 44,
              "velocity": 82,
              "position": 9,
              "duration": 0.016666666666666666
            },
            {
              "pitch": 51,
              "velocity": 74,
              "position": 9,
              "duration": 0.0375
            },
            {
              "pitch": 40,
              "velocity": 30,
              "position": 9.5,
              "duration": 0.00625
            },
            {
              "pitch": 40,
              "velocity": 32,
              "position": 9.754166666666666,
              "duration": 0.008333333333333333
            },
            {
              "pitch": 40,
              "velocity": 73,
              "position": 10,
              "duration": 0.00625
            },
            {
              "pitch": 33,
              "velocity": 78,
              "position": 10,
              "duration": 0.12083333333333333
            },
            {
              "pitch": 40,
              "velocity": 71,
              "position": 10.666666666666666,
              "duration": 0.00625
            },
            {
              "pitch": 44,
              "velocity": 82,
              "position": 11,
              "duration": 0.016666666666666666
            },
            {
              "pitch": 51,
              "velocity": 74,
              "position": 11,
              "duration": 0.0375
            },
            {
              "pitch": 40,
              "velocity": 87,
              "position": 11.729166666666666,
              "duration": 0.00625
            },
            {
              "pitch": 49,
              "velocity": 54,
              "position": 11.708333333333334,
              "duration": 0.12083333333333333
            },
            {
              "pitch": 33,
              "velocity": 78,
              "position": 11.729166666666666,
              "duration": 0.12083333333333333
            }
          ]
        },
        "10": {
          "ctab": {
            "srcChannel": 10,
            "name": "Bass",
            "accType": "BASS",
            "editable": false,
            "mutedNotes": [],
            "mutedChords": [
              "dim7",
              "dim",
              "minMaj7(9)",
              "minMaj7",
              "min7(11)",
              "min7(9)",
              "min(9)",
              "m7b5",
              "min7",
              "min6",
              "min"
            ],
            "autoStart": false,
            "sourceChordNote": 0,
            "sourceChordType": "Maj",
            "ctb2Low": null,
            "ctb2Main": {
              "ntr": "ROOT_TRANSPOSITION",
              "ntt": "BYPASS",
              "bassOn": false,
              "chordRootUpperLimit": 3,
              "noteLowLimit": 28,
              "noteHighLimit": 127,
              "rtr": "PITCH_SHIFT"
            },
            "ctb2High": null
          },
          "notes": [
            {
              "pitch": 26,
              "velocity": 97,
              "position": 0,
              "duration": 1.9854166666666666
            },
            {
              "pitch": 27,
              "velocity": 88,
              "position": 2,
              "duration": 1.9854166666666666
            },
            {
              "pitch": 28,
              "velocity": 90,
              "position": 4,
              "duration": 0.9854166666666667
            },
            {
              "pitch": 32,
              "velocity": 85,
              "position": 5,
              "duration": 0.9854166666666667
            },
            {
              "pitch": 33,
              "velocity": 94,
              "position": 6,
              "duration": 0.9854166666666667
            },
            {
              "pitch": 33,
              "velocity": 90,
              "position": 7,
              "duration": 0.9854166666666667
            },
            {
              "pitch": 32,
              "velocity": 88,
              "position": 8,
              "duration": 1.9854166666666666
            },
            {
              "pitch": 31,
              "velocity": 94,
              "position": 10,
              "duration": 1.7145833333333333
            },
            {
              "pitch": 24,
              "velocity": 86,
              "position": 11.729166666666666,
              "duration": 2.0208333333333335
            }
          ]
        },
        "11": {
          "ctab": {
            "srcChannel": 11,
            "name": "j.gtr",
            "accType": "CHORD1",
            "editable": false,
            "mutedNotes": [],
            "mutedChords": [
              "dim7",
              "dim",
              "minMaj7(9)",
              "minMaj7",
              "min7(11)",
              "min7(9)",
              "min(9)",
              "m7b5",
              "min7",
              "min6",
              "min"
            ],
            "autoStart": false,
            "sourceChordNote": 0,
            "sourceChordType": "Maj",
            "ctb2Low": null,
            "ctb2Main": {
              "ntr": "ROOT_TRANSPOSITION",
              "ntt": "BYPASS",
              "bassOn": false,
              "chordRootUpperLimit": 7,
              "noteLowLimit": 50,
              "noteHighLimit": 61,
              "rtr": "PITCH_SHIFT"
            },
            "ctb2High": null
          },
          "notes": [
            {
              "pitch": 50,
              "velocity": 36,
              "position": 0,
              "duration": 0.9854166666666667
            },
            {
              "pitch": 53,
              "velocity": 42,
              "position": 0,
              "duration": 0.9854166666666667
            },
            {
              "pitch": 60,
              "velocity": 50,
              "position": 0,
              "duration": 0.9854166666666667
            },
            {
              "pitch": 50,
              "velocity": 97,
              "position": 1,
              "duration": 0.20416666666666666
            },
            {
              "pitch": 53,
              "velocity": 97,
              "position": 1,
              "duration": 0.20416666666666666
            },
            {
              "pitch": 60,
              "velocity": 97,
              "position": 1,
              "duration": 0.20416666666666666
            },
            {
              "pitch": 51,
              "velocity": 44,
              "position": 2,
              "duration": 0.9854166666666667
            },
            {
              "pitch": 54,
              "velocity": 44,
              "position": 2,
              "duration": 0.9854166666666667
            },
            {
              "pitch": 60,
              "velocity": 44,
              "position": 2,
              "duration": 0.9854166666666667
            },
            {
              "pitch": 51,
              "velocity": 102,
              "position": 3,
              "duration": 0.20416666666666666
            },
            {
              "pitch": 54,
              "velocity": 102,
              "position": 3,
              "duration": 0.20416666666666666
            },
            {
              "pitch": 60,
              "velocity": 102,
              "position": 3,
              "duration": 0.20416666666666666
            },
            {
              "pitch": 52,
              "velocity": 42,
              "position": 4,
              "duration": 0.9854166666666667
            },
            {
              "pitch": 55,
              "velocity": 42,
              "position": 4,
              "duration": 0.9854166666666667
            },
            {
              "pitch": 60,
              "velocity": 42,
              "position": 4,
              "duration": 0.9854166666666667
            },
            {
              "pitch": 52,
              "velocity": 104,
              "position": 5,
              "duration": 0.20416666666666666
            },
            {
              "pitch": 55,
              "velocity": 104,
              "position": 5,
              "duration": 0.20416666666666666
            },
            {
              "pitch": 60,
              "velocity": 104,
              "position": 5,
              "duration": 0.20416666666666666
            },
            {
              "pitch": 53,
              "velocity": 48,
              "position": 6,
              "duration": 0.9854166666666667
            },
            {
              "pitch": 55,
              "velocity": 48,
              "position": 6,
              "duration": 0.9854166666666667
            },
            {
              "pitch": 61,
              "velocity": 48,
              "position": 6,
              "duration": 0.9854166666666667
            },
            {
              "pitch": 53,
              "velocity": 102,
              "position": 7,
              "duration": 0.20416666666666666
            },
            {
              "pitch": 55,
              "velocity": 102,
              "position": 7,
              "duration": 0.20416666666666666
            },
            {
              "pitch": 61,
              "velocity": 102,
              "position": 7,
              "duration": 0.20416666666666666
            },
            {
              "pitch": 51,
              "velocity": 50,
              "position": 8,
              "duration": 0.9854166666666667
            },
            {
              "pitch": 54,
              "velocity": 50,
              "position": 8,
              "duration": 0.9854166666666667
            },
            {
              "pitch": 60,
              "velocity": 50,
              "position": 8,
              "duration": 0.9854166666666667
            },
            {
              "pitch": 51,
              "velocity": 90,
              "position": 9,
              "duration": 0.20416666666666666
            },
            {
              "pitch": 54,
              "velocity": 90,
              "position": 9,
              "duration": 0.20416666666666666
            },
            {
              "pitch": 60,
              "velocity": 90,
              "position": 9,
              "duration": 0.20416666666666666
            },
            {
              "pitch": 53,
              "velocity": 55,
              "position": 10,
              "duration": 0.9854166666666667
            },
            {
              "pitch": 59,
              "velocity": 55,
              "position": 10,
              "duration": 0.9854166666666667
            },
            {
              "pitch": 53,
              "velocity": 100,
              "position": 11,
              "duration": 0.20416666666666666
            },
            {
              "pitch": 59,
              "velocity": 100,
              "position": 11,
              "duration": 0.20416666666666666
            },
            {
              "pitch": 50,
              "velocity": 95,
              "position": 11.666666666666666,
              "duration": 2.0833333333333335
            },
            {
              "pitch": 55,
              "velocity": 95,
              "position": 11.666666666666666,
              "duration": 2.0833333333333335
            },
            {
              "pitch": 60,
              "velocity": 95,
              "position": 11.666666666666666,
              "duration": 2.0833333333333335
            }
          ]
        },
        "12": {
          "ctab": {
            "srcChannel": 12,
            "name": "vocal",
            "accType": "CHORD2",
            "editable": false,
            "mutedNotes": [],
            "mutedChords": [
              "dim7",
              "dim",
              "minMaj7(9)",
              "minMaj7",
              "min7(11)",
              "min7(9)",
              "min(9)",
              "m7b5",
              "min7",
              "min6",
              "min"
            ],
            "autoStart": false,
            "sourceChordNote": 0,
            "sourceChordType": "Maj",
            "ctb2Low": null,
            "ctb2Main": {
              "ntr": "ROOT_TRANSPOSITION",
              "ntt": "BYPASS",
              "bassOn": false,
              "chordRootUpperLimit": 10,
              "noteLowLimit": 0,
              "noteHighLimit": 127,
              "rtr": "PITCH_SHIFT"
            },
            "ctb2High": null
          },
          "notes": [
            {
              "pitch": 50,
              "velocity": 73,
              "position": 0.7291666666666666,
              "duration": 1.0229166666666667
            },
            {
              "pitch": 53,
              "velocity": 73,
              "position": 0.7291666666666666,
              "duration": 1.0229166666666667
            },
            {
              "pitch": 57,
              "velocity": 73,
              "position": 0.7291666666666666,
              "duration": 1.0229166666666667
            },
            {
              "pitch": 60,
              "velocity": 73,
              "position": 0.7291666666666666,
              "duration": 1.0229166666666667
            },
            {
              "pitch": 51,
              "velocity": 67,
              "position": 2,
              "duration": 0.49583333333333335
            },
            {
              "pitch": 54,
              "velocity": 67,
              "position": 2,
              "duration": 0.49583333333333335
            },
            {
              "pitch": 57,
              "velocity": 67,
              "position": 2,
              "duration": 0.49583333333333335
            },
            {
              "pitch": 60,
              "velocity": 67,
              "position": 2,
              "duration": 0.49583333333333335
            },
            {
              "pitch": 51,
              "velocity": 77,
              "position": 3,
              "duration": 0.49583333333333335
            },
            {
              "pitch": 54,
              "velocity": 77,
              "position": 3,
              "duration": 0.49583333333333335
            },
            {
              "pitch": 57,
              "velocity": 77,
              "position": 3,
              "duration": 0.49583333333333335
            },
            {
              "pitch": 60,
              "velocity": 77,
              "position": 3,
              "duration": 0.49583333333333335
            },
            {
              "pitch": 52,
              "velocity": 111,
              "position": 4,
              "duration": 1.5583333333333333
            },
            {
              "pitch": 55,
              "velocity": 111,
              "position": 4,
              "duration": 1.5583333333333333
            },
            {
              "pitch": 57,
              "velocity": 111,
              "position": 4,
              "duration": 1.5583333333333333
            },
            {
              "pitch": 60,
              "velocity": 111,
              "position": 4,
              "duration": 1.5583333333333333
            },
            {
              "pitch": 55,
              "velocity": 74,
              "position": 6.729166666666667,
              "duration": 1.0229166666666667
            },
            {
              "pitch": 57,
              "velocity": 74,
              "position": 6.729166666666667,
              "duration": 1.0229166666666667
            },
            {
              "pitch": 61,
              "velocity": 74,
              "position": 6.729166666666667,
              "duration": 1.0229166666666667
            },
            {
              "pitch": 65,
              "velocity": 74,
              "position": 6.729166666666667,
              "duration": 1.0229166666666667
            },
            {
              "pitch": 54,
              "velocity": 59,
              "position": 8,
              "duration": 0.7354166666666667
            },
            {
              "pitch": 58,
              "velocity": 59,
              "position": 8,
              "duration": 0.7354166666666667
            },
            {
              "pitch": 60,
              "velocity": 59,
              "position": 8,
              "duration": 0.7354166666666667
            },
            {
              "pitch": 63,
              "velocity": 59,
              "position": 8,
              "duration": 0.7354166666666667
            },
            {
              "pitch": 54,
              "velocity": 81,
              "position": 8.75,
              "duration": 0.48541666666666666
            },
            {
              "pitch": 58,
              "velocity": 81,
              "position": 8.75,
              "duration": 0.48541666666666666
            },
            {
              "pitch": 60,
              "velocity": 81,
              "position": 8.75,
              "duration": 0.48541666666666666
            },
            {
              "pitch": 63,
              "velocity": 81,
              "position": 8.75,
              "duration": 0.48541666666666666
            },
            {
              "pitch": 57,
              "velocity": 69,
              "position": 9.75,
              "duration": 0.23541666666666666
            },
            {
              "pitch": 50,
              "velocity": 67,
              "position": 10,
              "duration": 0.9854166666666667
            },
            {
              "pitch": 53,
              "velocity": 70,
              "position": 10,
              "duration": 0.9854166666666667
            },
            {
              "pitch": 56,
              "velocity": 70,
              "position": 10,
              "duration": 0.9854166666666667
            },
            {
              "pitch": 59,
              "velocity": 70,
              "position": 10,
              "duration": 0.9854166666666667
            },
            {
              "pitch": 50,
              "velocity": 86,
              "position": 11,
              "duration": 0.7354166666666667
            },
            {
              "pitch": 52,
              "velocity": 86,
              "position": 11,
              "duration": 0.7354166666666667
            },
            {
              "pitch": 55,
              "velocity": 86,
              "position": 11,
              "duration": 0.7354166666666667
            },
            {
              "pitch": 59,
              "velocity": 86,
              "position": 11,
              "duration": 0.7354166666666667
            },
            {
              "pitch": 52,
              "velocity": 115,
              "position": 11.75,
              "duration": 2
            },
            {
              "pitch": 55,
              "velocity": 115,
              "position": 11.75,
              "duration": 2
            },
            {
              "pitch": 57,
              "velocity": 115,
              "position": 11.75,
              "duration": 2
            },
            {
              "pitch": 60,
              "velocity": 115,
              "position": 11.75,
              "duration": 2
            }
          ]
        },
        "14": {
          "ctab": {
            "srcChannel": 14,
            "name": "doo",
            "accType": "PHRASE1",
            "editable": false,
            "mutedNotes": [],
            "mutedChords": [
              "dim7",
              "dim",
              "minMaj7(9)",
              "minMaj7",
              "min7(11)",
              "min7(9)",
              "min(9)",
              "m7b5",
              "min7",
              "min6",
              "min"
            ],
            "autoStart": false,
            "sourceChordNote": 0,
            "sourceChordType": "Maj",
            "ctb2Low": null,
            "ctb2Main": {
              "ntr": "ROOT_TRANSPOSITION",
              "ntt": "BYPASS",
              "bassOn": false,
              "chordRootUpperLimit": 3,
              "noteLowLimit": 36,
              "noteHighLimit": 127,
              "rtr": "PITCH_SHIFT"
            },
            "ctb2High": null
          },
          "notes": [
            {
              "pitch": 38,
              "velocity": 104,
              "position": 0,
              "duration": 1.7145833333333333
            },
            {
              "pitch": 38,
              "velocity": 57,
              "position": 1.7291666666666667,
              "duration": 0.25416666666666665
            },
            {
              "pitch": 39,
              "velocity": 111,
              "position": 2,
              "duration": 1.7145833333333333
            },
            {
              "pitch": 39,
              "velocity": 67,
              "position": 3.7291666666666665,
              "duration": 0.25625
            },
            {
              "pitch": 40,
              "velocity": 109,
              "position": 4,
              "duration": 0.9854166666666667
            },
            {
              "pitch": 44,
              "velocity": 104,
              "position": 5,
              "duration": 0.9854166666666667
            },
            {
              "pitch": 45,
              "velocity": 93,
              "position": 6,
              "duration": 0.9854166666666667
            },
            {
              "pitch": 45,
              "velocity": 106,
              "position": 7,
              "duration": 0.9854166666666667
            },
            {
              "pitch": 44,
              "velocity": 100,
              "position": 8,
              "duration": 0.9958333333333333
            },
            {
              "pitch": 43,
              "velocity": 102,
              "position": 10,
              "duration": 0.9958333333333333
            },
            {
              "pitch": 36,
              "velocity": 99,
              "position": 11.729166666666666,
              "duration": 2.0208333333333335
            }
          ]
        }
      }
    },
    "Intro_C": {
      "type": "Intro_C",
      "sizeInBeats": 32,
      "channels": {
        "1": {
          "ctab": {
            "srcChannel": 1,
            "name": "j.gtr",
            "accType": "CHORD1",
            "editable": false,
            "mutedNotes": [],
            "mutedChords": [
              "1+2+5",
              "sus4",
              "1+5",
              "1+8",
              "7aug",
              "Maj7aug",
              "7(#9)",
              "7(b13)",
              "7(b9)",
              "7(13)",
              "7#11",
              "7(9)",
              "7b5",
              "7sus4",
              "7th",
              "aug",
              "Maj6(9)",
              "Maj7(9)",
              "Maj(9)",
              "Maj7#11",
              "Maj7",
              "Maj6",
              "Maj"
            ],
            "autoStart": false,
            "sourceChordNote": 0,
            "sourceChordType": "min",
            "ctb2Low": null,
            "ctb2Main": {
              "ntr": "ROOT_TRANSPOSITION",
              "ntt": "BYPASS",
              "bassOn": false,
              "chordRootUpperLimit": 7,
              "noteLowLimit": 50,
              "noteHighLimit": 61,
              "rtr": "PITCH_SHIFT"
            },
            "ctb2High": null
          },
          "notes": [
            {
              "pitch": 51,
              "velocity": 88,
              "position": 1,
              "duration": 0.9958333333333333
            },
            {
              "pitch": 55,
              "velocity": 88,
              "position": 1,
              "duration": 0.9958333333333333
            },
            {
              "pitch": 60,
              "velocity": 88,
              "position": 1,
              "duration": 0.9958333333333333
            },
            {
              "pitch": 50,
              "velocity": 97,
              "position": 5,
              "duration": 0.9958333333333333
            },
            {
              "pitch": 56,
              "velocity": 97,
              "position": 5,
              "duration": 0.9958333333333333
            },
            {
              "pitch": 60,
              "velocity": 97,
              "position": 5,
              "duration": 0.9958333333333333
            },
            {
              "pitch": 51,
              "velocity": 93,
              "position": 9,
              "duration": 0.9958333333333333
            },
            {
              "pitch": 55,
              "velocity": 93,
              "position": 9,
              "duration": 0.9958333333333333
            },
            {
              "pitch": 60,
              "velocity": 93,
              "position": 9,
              "duration": 0.9958333333333333
            },
            {
              "pitch": 51,
              "velocity": 91,
              "position": 13,
              "duration": 0.9958333333333333
            },
            {
              "pitch": 56,
              "velocity": 91,
              "position": 13,
              "duration": 0.9958333333333333
            },
            {
              "pitch": 60,
              "velocity": 91,
              "position": 13,
              "duration": 0.9958333333333333
            },
            {
              "pitch": 50,
              "velocity": 53,
              "position": 16,
              "duration": 0.9854166666666667
            },
            {
              "pitch": 56,
              "velocity": 53,
              "position": 16,
              "duration": 0.9854166666666667
            },
            {
              "pitch": 60,
              "velocity": 53,
              "position": 16,
              "duration": 0.9854166666666667
            },
            {
              "pitch": 50,
              "velocity": 90,
              "position": 17,
              "duration": 0.30833333333333335
            },
            {
              "pitch": 56,
              "velocity": 90,
              "position": 17,
              "duration": 0.30833333333333335
            },
            {
              "pitch": 60,
              "velocity": 90,
              "position": 17,
              "duration": 0.30833333333333335
            },
            {
              "pitch": 50,
              "velocity": 55,
              "position": 18,
              "duration": 0.9854166666666667
            },
            {
              "pitch": 56,
              "velocity": 55,
              "position": 18,
              "duration": 0.9854166666666667
            },
            {
              "pitch": 60,
              "velocity": 55,
              "position": 18,
              "duration": 0.9854166666666667
            },
            {
              "pitch": 50,
              "velocity": 84,
              "position": 19,
              "duration": 0.30833333333333335
            },
            {
              "pitch": 56,
              "velocity": 84,
              "position": 19,
              "duration": 0.30833333333333335
            },
            {
              "pitch": 60,
              "velocity": 84,
              "position": 19,
              "duration": 0.30833333333333335
            },
            {
              "pitch": 50,
              "velocity": 46,
              "position": 20,
              "duration": 0.9854166666666667
            },
            {
              "pitch": 56,
              "velocity": 46,
              "position": 20,
              "duration": 0.9854166666666667
            },
            {
              "pitch": 60,
              "velocity": 46,
              "position": 20,
              "duration": 0.9854166666666667
            },
            {
              "pitch": 50,
              "velocity": 90,
              "position": 21,
              "duration": 0.30833333333333335
            },
            {
              "pitch": 56,
              "velocity": 90,
              "position": 21,
              "duration": 0.30833333333333335
            },
            {
              "pitch": 60,
              "velocity": 90,
              "position": 21,
              "duration": 0.30833333333333335
            },
            {
              "pitch": 50,
              "velocity": 46,
              "position": 22,
              "duration": 0.9854166666666667
            },
            {
              "pitch": 56,
              "velocity": 46,
              "position": 22,
              "duration": 0.9854166666666667
            },
            {
              "pitch": 60,
              "velocity": 46,
              "position": 22,
              "duration": 0.9854166666666667
            },
            {
              "pitch": 50,
              "velocity": 90,
              "position": 23,
              "duration": 0.30833333333333335
            },
            {
              "pitch": 56,
              "velocity": 90,
              "position": 23,
              "duration": 0.30833333333333335
            },
            {
              "pitch": 60,
              "velocity": 90,
              "position": 23,
              "duration": 0.30833333333333335
            },
            {
              "pitch": 51,
              "velocity": 50,
              "position": 24,
              "duration": 0.9854166666666667
            },
            {
              "pitch": 54,
              "velocity": 50,
              "position": 24,
              "duration": 0.9854166666666667
            },
            {
              "pitch": 60,
              "velocity": 50,
              "position": 24,
              "duration": 0.9854166666666667
            },
            {
              "pitch": 51,
              "velocity": 88,
              "position": 25,
              "duration": 0.30833333333333335
            },
            {
              "pitch": 54,
              "velocity": 88,
              "position": 25,
              "duration": 0.30833333333333335
            },
            {
              "pitch": 60,
              "velocity": 88,
              "position": 25,
              "duration": 0.30833333333333335
            },
            {
              "pitch": 51,
              "velocity": 44,
              "position": 26,
              "duration": 0.9854166666666667
            },
            {
              "pitch": 54,
              "velocity": 44,
              "position": 26,
              "duration": 0.9854166666666667
            },
            {
              "pitch": 60,
              "velocity": 44,
              "position": 26,
              "duration": 0.9854166666666667
            },
            {
              "pitch": 51,
              "velocity": 84,
              "position": 27,
              "duration": 0.30833333333333335
            },
            {
              "pitch": 54,
              "velocity": 84,
              "position": 27,
              "duration": 0.30833333333333335
            },
            {
              "pitch": 60,
              "velocity": 84,
              "position": 27,
              "duration": 0.30833333333333335
            },
            {
              "pitch": 51,
              "velocity": 50,
              "position": 28,
              "duration": 0.9854166666666667
            },
            {
              "pitch": 53,
              "velocity": 50,
              "position": 28,
              "duration": 0.9854166666666667
            },
            {
              "pitch": 59,
              "velocity": 50,
              "position": 28,
              "duration": 0.9854166666666667
            },
            {
              "pitch": 51,
              "velocity": 88,
              "position": 29,
              "duration": 0.30833333333333335
            },
            {
              "pitch": 53,
              "velocity": 88,
              "position": 29,
              "duration": 0.30833333333333335
            },
            {
              "pitch": 59,
              "velocity": 88,
              "position": 29,
              "duration": 0.30833333333333335
            },
            {
              "pitch": 51,
              "velocity": 57,
              "position": 30,
              "duration": 0.9854166666666667
            },
            {
              "pitch": 53,
              "velocity": 57,
              "position": 30,
              "duration": 0.9854166666666667
            },
            {
              "pitch": 59,
              "velocity": 57,
              "position": 30,
              "duration": 0.9854166666666667
            },
            {
              "pitch": 51,
              "velocity": 81,
              "position": 31,
              "duration": 0.30833333333333335
            },
            {
              "pitch": 53,
              "velocity": 81,
              "position": 31,
              "duration": 0.30833333333333335
            },
            {
              "pitch": 59,
              "velocity": 81,
              "position": 31,
              "duration": 0.30833333333333335
            }
          ]
        },
        "2": {
          "ctab": {
            "srcChannel": 2,
            "name": "vocal",
            "accType": "CHORD2",
            "editable": false,
            "mutedNotes": [],
            "mutedChords": [
              "1+2+5",
              "sus4",
              "1+5",
              "1+8",
              "7aug",
              "Maj7aug",
              "7(#9)",
              "7(b13)",
              "7(b9)",
              "7(13)",
              "7#11",
              "7(9)",
              "7b5",
              "7sus4",
              "7th",
              "aug",
              "Maj6(9)",
              "Maj7(9)",
              "Maj(9)",
              "Maj7#11",
              "Maj7",
              "Maj6",
              "Maj"
            ],
            "autoStart": false,
            "sourceChordNote": 0,
            "sourceChordType": "min",
            "ctb2Low": null,
            "ctb2Main": {
              "ntr": "ROOT_TRANSPOSITION",
              "ntt": "BYPASS",
              "bassOn": false,
              "chordRootUpperLimit": 4,
              "noteLowLimit": 0,
              "noteHighLimit": 127,
              "rtr": "PITCH_SHIFT"
            },
            "ctb2High": null
          },
          "notes": [
            {
              "pitch": 60,
              "velocity": 127,
              "position": 0,
              "duration": 1.5583333333333333
            },
            {
              "pitch": 63,
              "velocity": 127,
              "position": 0,
              "duration": 1.5583333333333333
            },
            {
              "pitch": 67,
              "velocity": 127,
              "position": 0,
              "duration": 1.5583333333333333
            },
            {
              "pitch": 72,
              "velocity": 120,
              "position": 0,
              "duration": 1.5583333333333333
            },
            {
              "pitch": 55,
              "velocity": 71,
              "position": 2,
              "duration": 0.6520833333333333
            },
            {
              "pitch": 67,
              "velocity": 91,
              "position": 2,
              "duration": 0.6520833333333333
            },
            {
              "pitch": 57,
              "velocity": 24,
              "position": 2.6666666666666665,
              "duration": 0.31875
            },
            {
              "pitch": 69,
              "velocity": 60,
              "position": 2.6666666666666665,
              "duration": 0.31875
            },
            {
              "pitch": 60,
              "velocity": 72,
              "position": 3,
              "duration": 0.6520833333333333
            },
            {
              "pitch": 72,
              "velocity": 92,
              "position": 3,
              "duration": 0.6520833333333333
            },
            {
              "pitch": 60,
              "velocity": 107,
              "position": 3.6666666666666665,
              "duration": 1.5583333333333333
            },
            {
              "pitch": 65,
              "velocity": 107,
              "position": 3.6666666666666665,
              "duration": 1.5583333333333333
            },
            {
              "pitch": 68,
              "velocity": 120,
              "position": 3.6666666666666665,
              "duration": 1.5583333333333333
            },
            {
              "pitch": 72,
              "velocity": 107,
              "position": 3.6666666666666665,
              "duration": 1.5583333333333333
            },
            {
              "pitch": 55,
              "velocity": 66,
              "position": 6,
              "duration": 0.6520833333333333
            },
            {
              "pitch": 67,
              "velocity": 84,
              "position": 6,
              "duration": 0.6520833333333333
            },
            {
              "pitch": 57,
              "velocity": 24,
              "position": 6.666666666666667,
              "duration": 0.31875
            },
            {
              "pitch": 69,
              "velocity": 60,
              "position": 6.666666666666667,
              "duration": 0.31875
            },
            {
              "pitch": 60,
              "velocity": 66,
              "position": 7,
              "duration": 0.6520833333333333
            },
            {
              "pitch": 72,
              "velocity": 84,
              "position": 7,
              "duration": 0.6520833333333333
            },
            {
              "pitch": 60,
              "velocity": 104,
              "position": 7.666666666666667,
              "duration": 1.5583333333333333
            },
            {
              "pitch": 63,
              "velocity": 120,
              "position": 7.666666666666667,
              "duration": 1.5583333333333333
            },
            {
              "pitch": 67,
              "velocity": 104,
              "position": 7.666666666666667,
              "duration": 1.5583333333333333
            },
            {
              "pitch": 72,
              "velocity": 104,
              "position": 7.666666666666667,
              "duration": 1.5583333333333333
            },
            {
              "pitch": 55,
              "velocity": 69,
              "position": 10,
              "duration": 0.6520833333333333
            },
            {
              "pitch": 67,
              "velocity": 88,
              "position": 10,
              "duration": 0.6520833333333333
            },
            {
              "pitch": 57,
              "velocity": 24,
              "position": 10.666666666666666,
              "duration": 0.31875
            },
            {
              "pitch": 69,
              "velocity": 54,
              "position": 10.666666666666666,
              "duration": 0.31875
            },
            {
              "pitch": 60,
              "velocity": 68,
              "position": 11,
              "duration": 0.6520833333333333
            },
            {
              "pitch": 72,
              "velocity": 86,
              "position": 11,
              "duration": 0.6520833333333333
            },
            {
              "pitch": 60,
              "velocity": 104,
              "position": 11.666666666666666,
              "duration": 1.5583333333333333
            },
            {
              "pitch": 65,
              "velocity": 104,
              "position": 11.666666666666666,
              "duration": 1.5583333333333333
            },
            {
              "pitch": 68,
              "velocity": 120,
              "position": 11.666666666666666,
              "duration": 1.5583333333333333
            },
            {
              "pitch": 72,
              "velocity": 114,
              "position": 11.666666666666666,
              "duration": 1.5583333333333333
            },
            {
              "pitch": 60,
              "velocity": 61,
              "position": 14,
              "duration": 0.5583333333333333
            },
            {
              "pitch": 72,
              "velocity": 77,
              "position": 14,
              "duration": 0.5583333333333333
            },
            {
              "pitch": 63,
              "velocity": 61,
              "position": 14.666666666666666,
              "duration": 0.5625
            },
            {
              "pitch": 75,
              "velocity": 77,
              "position": 14.666666666666666,
              "duration": 0.5625
            },
            {
              "pitch": 65,
              "velocity": 92,
              "position": 16,
              "duration": 0.60625
            },
            {
              "pitch": 68,
              "velocity": 92,
              "position": 16,
              "duration": 0.60625
            },
            {
              "pitch": 75,
              "velocity": 92,
              "position": 16,
              "duration": 0.60625
            },
            {
              "pitch": 65,
              "velocity": 90,
              "position": 17,
              "duration": 0.60625
            },
            {
              "pitch": 68,
              "velocity": 90,
              "position": 17,
              "duration": 0.60625
            },
            {
              "pitch": 74,
              "velocity": 90,
              "position": 17,
              "duration": 0.60625
            },
            {
              "pitch": 65,
              "velocity": 70,
              "position": 18,
              "duration": 0.60625
            },
            {
              "pitch": 68,
              "velocity": 70,
              "position": 18,
              "duration": 0.60625
            },
            {
              "pitch": 72,
              "velocity": 70,
              "position": 18,
              "duration": 0.60625
            },
            {
              "pitch": 68,
              "velocity": 83,
              "position": 18.666666666666668,
              "duration": 0.49583333333333335
            },
            {
              "pitch": 63,
              "velocity": 104,
              "position": 19.666666666666668,
              "duration": 1.9854166666666666
            },
            {
              "pitch": 65,
              "velocity": 104,
              "position": 19.666666666666668,
              "duration": 1.9854166666666666
            },
            {
              "pitch": 68,
              "velocity": 104,
              "position": 19.666666666666668,
              "duration": 1.9854166666666666
            },
            {
              "pitch": 75,
              "velocity": 104,
              "position": 19.666666666666668,
              "duration": 1.9854166666666666
            },
            {
              "pitch": 62,
              "velocity": 86,
              "position": 21.666666666666668,
              "duration": 0.49583333333333335
            },
            {
              "pitch": 65,
              "velocity": 86,
              "position": 21.666666666666668,
              "duration": 0.49583333333333335
            },
            {
              "pitch": 68,
              "velocity": 86,
              "position": 21.666666666666668,
              "duration": 0.49583333333333335
            },
            {
              "pitch": 74,
              "velocity": 86,
              "position": 21.666666666666668,
              "duration": 0.49583333333333335
            },
            {
              "pitch": 66,
              "velocity": 81,
              "position": 23.666666666666668,
              "duration": 0.60625
            },
            {
              "pitch": 70,
              "velocity": 81,
              "position": 23.666666666666668,
              "duration": 0.60625
            },
            {
              "pitch": 75,
              "velocity": 81,
              "position": 23.666666666666668,
              "duration": 0.60625
            },
            {
              "pitch": 66,
              "velocity": 96,
              "position": 25,
              "duration": 0.60625
            },
            {
              "pitch": 70,
              "velocity": 98,
              "position": 25,
              "duration": 0.60625
            },
            {
              "pitch": 74,
              "velocity": 96,
              "position": 25,
              "duration": 0.60625
            },
            {
              "pitch": 72,
              "velocity": 70,
              "position": 26,
              "duration": 0.60625
            },
            {
              "pitch": 70,
              "velocity": 80,
              "position": 26.666666666666668,
              "duration": 0.60625
            },
            {
              "pitch": 63,
              "velocity": 115,
              "position": 27.666666666666668,
              "duration": 1.5583333333333333
            },
            {
              "pitch": 65,
              "velocity": 115,
              "position": 27.666666666666668,
              "duration": 1.5583333333333333
            },
            {
              "pitch": 70,
              "velocity": 115,
              "position": 27.666666666666668,
              "duration": 1.5583333333333333
            },
            {
              "pitch": 75,
              "velocity": 115,
              "position": 27.666666666666668,
              "duration": 1.5583333333333333
            },
            {
              "pitch": 63,
              "velocity": 115,
              "position": 29.666666666666668,
              "duration": 2.3291666666666666
            },
            {
              "pitch": 65,
              "velocity": 115,
              "position": 29.666666666666668,
              "duration": 2.3291666666666666
            },
            {
              "pitch": 71,
              "velocity": 115,
              "position": 29.666666666666668,
              "duration": 2.3291666666666666
            },
            {
              "pitch": 75,
              "velocity": 115,
              "position": 29.666666666666668,
              "duration": 2.3291666666666666
            }
          ]
        },
        "4": {
          "ctab": {
            "srcChannel": 4,
            "name": "doo",
            "accType": "PHRASE1",
            "editable": false,
            "mutedNotes": [],
            "mutedChords": [
              "1+2+5",
              "sus4",
              "1+5",
              "1+8",
              "7aug",
              "Maj7aug",
              "7(#9)",
              "7(b13)",
              "7(b9)",
              "7(13)",
              "7#11",
              "7(9)",
              "7b5",
              "7sus4",
              "7th",
              "aug",
              "Maj6(9)",
              "Maj7(9)",
              "Maj(9)",
              "Maj7#11",
              "Maj7",
              "Maj6",
              "Maj"
            ],
            "autoStart": false,
            "sourceChordNote": 0,
            "sourceChordType": "min",
            "ctb2Low": null,
            "ctb2Main": {
              "ntr": "ROOT_TRANSPOSITION",
              "ntt": "BYPASS",
              "bassOn": false,
              "chordRootUpperLimit": 7,
              "noteLowLimit": 36,
              "noteHighLimit": 127,
              "rtr": "PITCH_SHIFT"
            },
            "ctb2High": null
          },
          "notes": [
            {
              "pitch": 24,
              "velocity": 107,
              "position": 1.0020833333333334,
              "duration": 0.9958333333333333
            },
            {
              "pitch": 26,
              "velocity": 104,
              "position": 5,
              "duration": 0.9958333333333333
            },
            {
              "pitch": 27,
              "velocity": 114,
              "position": 9,
              "duration": 0.9958333333333333
            },
            {
              "pitch": 29,
              "velocity": 114,
              "position": 13,
              "duration": 0.9958333333333333
            }
          ]
        },
        "5": {
          "ctab": {
            "srcChannel": 5,
            "name": "Bass",
            "accType": "BASS",
            "editable": false,
            "mutedNotes": [],
            "mutedChords": [
              "1+2+5",
              "sus4",
              "1+5",
              "1+8",
              "7aug",
              "Maj7aug",
              "7(#9)",
              "7(b13)",
              "7(b9)",
              "7(13)",
              "7#11",
              "7(9)",
              "7b5",
              "7sus4",
              "7th",
              "aug",
              "Maj6(9)",
              "Maj7(9)",
              "Maj(9)",
              "Maj7#11",
              "Maj7",
              "Maj6",
              "Maj"
            ],
            "autoStart": false,
            "sourceChordNote": 0,
            "sourceChordType": "min",
            "ctb2Low": null,
            "ctb2Main": {
              "ntr": "ROOT_TRANSPOSITION",
              "ntt": "BYPASS",
              "bassOn": false,
              "chordRootUpperLimit": 3,
              "noteLowLimit": 28,
              "noteHighLimit": 127,
              "rtr": "PITCH_SHIFT"
            },
            "ctb2High": null
          },
          "notes": [
            {
              "pitch": 24,
              "velocity": 127,
              "position": 1,
              "duration": 0.9958333333333333
            },
            {
              "pitch": 26,
              "velocity": 120,
              "position": 5,
              "duration": 0.9958333333333333
            },
            {
              "pitch": 27,
              "velocity": 127,
              "position": 9,
              "duration": 0.9958333333333333
            },
            {
              "pitch": 29,
              "velocity": 120,
              "position": 13,
              "duration": 0.9958333333333333
            },
            {
              "pitch": 27,
              "velocity": 112,
              "position": 15,
              "duration": 0.9854166666666667
            },
            {
              "pitch": 26,
              "velocity": 124,
              "position": 16,
              "duration": 1.9854166666666666
            },
            {
              "pitch": 32,
              "velocity": 112,
              "position": 18,
              "duration": 1.9854166666666666
            },
            {
              "pitch": 26,
              "velocity": 124,
              "position": 20,
              "duration": 1.7145833333333333
            },
            {
              "pitch": 26,
              "velocity": 104,
              "position": 21.729166666666668,
              "duration": 0.25625
            },
            {
              "pitch": 30,
              "velocity": 120,
              "position": 22,
              "duration": 0.9854166666666667
            },
            {
              "pitch": 31,
              "velocity": 118,
              "position": 23,
              "duration": 0.9854166666666667
            },
            {
              "pitch": 32,
              "velocity": 118,
              "position": 24,
              "duration": 1.9854166666666666
            },
            {
              "pitch": 32,
              "velocity": 120,
              "position": 26,
              "duration": 1.9854166666666666
            },
            {
              "pitch": 31,
              "velocity": 120,
              "position": 28,
              "duration": 1.9854166666666666
            },
            {
              "pitch": 34,
              "velocity": 112,
              "position": 30,
              "duration": 0.9854166666666667
            },
            {
              "pitch": 35,
              "velocity": 100,
              "position": 31,
              "duration": 0.9958333333333333
            }
          ]
        },
        "6": {
          "ctab": {
            "srcChannel": 6,
            "name": "piano",
            "accType": "PHRASE2",
            "editable": true,
            "mutedNotes": [],
            "mutedChords": [
              "1+2+5",
              "sus4",
              "1+5",
              "1+8",
              "7aug",
              "Maj7aug",
              "7(#9)",
              "7(b13)",
              "7(b9)",
              "7(13)",
              "7#11",
              "7(9)",
              "7b5",
              "7sus4",
              "7th",
              "aug",
              "Maj6(9)",
              "Maj7(9)",
              "Maj(9)",
              "Maj7#11",
              "Maj7",
              "Maj6",
              "Maj"
            ],
            "autoStart": false,
            "sourceChordNote": 0,
            "sourceChordType": "min",
            "ctb2Low": null,
            "ctb2Main": {
              "ntr": "ROOT_TRANSPOSITION",
              "ntt": "BYPASS",
              "bassOn": false,
              "chordRootUpperLimit": 8,
              "noteLowLimit": 0,
              "noteHighLimit": 127,
              "rtr": "PITCH_SHIFT"
            },
            "ctb2High": null
          },
          "notes": [
            {
              "pitch": 55,
              "velocity": 94,
              "position": 1,
              "duration": 0.49583333333333335
            },
            {
              "pitch": 58,
              "velocity": 94,
              "position": 1,
              "duration": 0.49583333333333335
            },
            {
              "pitch": 63,
              "velocity": 94,
              "position": 1,
              "duration": 0.49583333333333335
            },
            {
              "pitch": 72,
              "velocity": 101,
              "position": 1,
              "duration": 0.49583333333333335
            },
            {
              "pitch": 75,
              "velocity": 101,
              "position": 1,
              "duration": 0.49583333333333335
            },
            {
              "pitch": 84,
              "velocity": 101,
              "position": 1,
              "duration": 0.49583333333333335
            },
            {
              "pitch": 50,
              "velocity": 91,
              "position": 5,
              "duration": 0.49583333333333335
            },
            {
              "pitch": 56,
              "velocity": 91,
              "position": 5,
              "duration": 0.49583333333333335
            },
            {
              "pitch": 60,
              "velocity": 91,
              "position": 5,
              "duration": 0.49583333333333335
            },
            {
              "pitch": 72,
              "velocity": 98,
              "position": 5,
              "duration": 0.49583333333333335
            },
            {
              "pitch": 77,
              "velocity": 98,
              "position": 5,
              "duration": 0.49583333333333335
            },
            {
              "pitch": 84,
              "velocity": 98,
              "position": 5,
              "duration": 0.49583333333333335
            },
            {
              "pitch": 51,
              "velocity": 94,
              "position": 9,
              "duration": 0.49583333333333335
            },
            {
              "pitch": 58,
              "velocity": 94,
              "position": 9,
              "duration": 0.49583333333333335
            },
            {
              "pitch": 60,
              "velocity": 94,
              "position": 9,
              "duration": 0.49583333333333335
            },
            {
              "pitch": 72,
              "velocity": 101,
              "position": 9,
              "duration": 0.49583333333333335
            },
            {
              "pitch": 75,
              "velocity": 101,
              "position": 9,
              "duration": 0.49583333333333335
            },
            {
              "pitch": 84,
              "velocity": 101,
              "position": 9,
              "duration": 0.49583333333333335
            },
            {
              "pitch": 53,
              "velocity": 87,
              "position": 13,
              "duration": 0.49583333333333335
            },
            {
              "pitch": 56,
              "velocity": 87,
              "position": 13,
              "duration": 0.49583333333333335
            },
            {
              "pitch": 63,
              "velocity": 87,
              "position": 13,
              "duration": 0.49583333333333335
            },
            {
              "pitch": 72,
              "velocity": 94,
              "position": 13,
              "duration": 0.49583333333333335
            },
            {
              "pitch": 77,
              "velocity": 94,
              "position": 13,
              "duration": 0.49583333333333335
            },
            {
              "pitch": 84,
              "velocity": 94,
              "position": 13,
              "duration": 0.49583333333333335
            },
            {
              "pitch": 53,
              "velocity": 75,
              "position": 15,
              "duration": 0.9854166666666667
            },
            {
              "pitch": 56,
              "velocity": 75,
              "position": 15,
              "duration": 0.9854166666666667
            },
            {
              "pitch": 63,
              "velocity": 75,
              "position": 15,
              "duration": 0.9854166666666667
            },
            {
              "pitch": 60,
              "velocity": 72,
              "position": 16,
              "duration": 6.302083333333333
            },
            {
              "pitch": 54,
              "velocity": 72,
              "position": 16,
              "duration": 6.485416666666667
            },
            {
              "pitch": 54,
              "velocity": 67,
              "position": 22.666666666666668,
              "duration": 1.31875
            },
            {
              "pitch": 60,
              "velocity": 67,
              "position": 22.666666666666668,
              "duration": 1.31875
            },
            {
              "pitch": 54,
              "velocity": 82,
              "position": 24,
              "duration": 4.985416666666667
            },
            {
              "pitch": 58,
              "velocity": 82,
              "position": 24,
              "duration": 4.985416666666667
            },
            {
              "pitch": 63,
              "velocity": 82,
              "position": 24,
              "duration": 4.985416666666667
            },
            {
              "pitch": 54,
              "velocity": 83,
              "position": 29,
              "duration": 1.6520833333333333
            },
            {
              "pitch": 58,
              "velocity": 83,
              "position": 29,
              "duration": 1.6520833333333333
            },
            {
              "pitch": 63,
              "velocity": 83,
              "position": 29,
              "duration": 1.6520833333333333
            },
            {
              "pitch": 66,
              "velocity": 83,
              "position": 29,
              "duration": 1.6520833333333333
            },
            {
              "pitch": 78,
              "velocity": 83,
              "position": 29,
              "duration": 1.6520833333333333
            },
            {
              "pitch": 53,
              "velocity": 87,
              "position": 30.666666666666668,
              "duration": 1.3291666666666666
            },
            {
              "pitch": 59,
              "velocity": 87,
              "position": 30.666666666666668,
              "duration": 1.3291666666666666
            },
            {
              "pitch": 63,
              "velocity": 87,
              "position": 30.666666666666668,
              "duration": 1.3291666666666666
            },
            {
              "pitch": 67,
              "velocity": 87,
              "position": 30.666666666666668,
              "duration": 1.3291666666666666
            },
            {
              "pitch": 79,
              "velocity": 87,
              "position": 30.666666666666668,
              "duration": 1.3291666666666666
            }
          ]
        },
        "8": {
          "ctab": {
            "srcChannel": 8,
            "name": "snips",
            "accType": "SUBRHYTHM",
            "editable": false,
            "mutedNotes": [],
            "mutedChords": [],
            "autoStart": true,
            "sourceChordNote": 0,
            "sourceChordType": "Maj7",
            "ctb2Low": null,
            "ctb2Main": {
              "ntr": "ROOT_FIXED",
              "ntt": "BYPASS",
              "bassOn": false,
              "chordRootUpperLimit": 6,
              "noteLowLimit": 0,
              "noteHighLimit": 127,
              "rtr": "PITCH_SHIFT"
            },
            "ctb2High": null
          },
          "notes": [
            {
              "pitch": 19,
              "velocity": 100,
              "position": 1,
              "duration": 0.24583333333333332
            },
            {
              "pitch": 19,
              "velocity": 100,
              "position": 3,
              "duration": 0.24583333333333332
            },
            {
              "pitch": 19,
              "velocity": 100,
              "position": 5,
              "duration": 0.24583333333333332
            },
            {
              "pitch": 19,
              "velocity": 100,
              "position": 7,
              "duration": 0.24583333333333332
            },
            {
              "pitch": 19,
              "velocity": 100,
              "position": 9,
              "duration": 0.24583333333333332
            },
            {
              "pitch": 19,
              "velocity": 100,
              "position": 11,
              "duration": 0.24583333333333332
            },
            {
              "pitch": 19,
              "velocity": 100,
              "position": 13,
              "duration": 0.24583333333333332
            },
            {
              "pitch": 19,
              "velocity": 100,
              "position": 15,
              "duration": 0.24583333333333332
            },
            {
              "pitch": 19,
              "velocity": 100,
              "position": 17,
              "duration": 0.24583333333333332
            },
            {
              "pitch": 19,
              "velocity": 100,
              "position": 19,
              "duration": 0.24583333333333332
            },
            {
              "pitch": 19,
              "velocity": 100,
              "position": 21,
              "duration": 0.24583333333333332
            },
            {
              "pitch": 19,
              "velocity": 100,
              "position": 23,
              "duration": 0.24583333333333332
            },
            {
              "pitch": 19,
              "velocity": 100,
              "position": 25,
              "duration": 0.24583333333333332
            },
            {
              "pitch": 19,
              "velocity": 100,
              "position": 27,
              "duration": 0.24583333333333332
            },
            {
              "pitch": 19,
              "velocity": 100,
              "position": 29,
              "duration": 0.24583333333333332
            },
            {
              "pitch": 19,
              "velocity": 100,
              "position": 31,
              "duration": 0.24583333333333332
            }
          ]
        },
        "9": {
          "ctab": {
            "srcChannel": 9,
            "name": "Rhyth2",
            "accType": "RHYTHM",
            "editable": false,
            "mutedNotes": [],
            "mutedChords": [],
            "autoStart": true,
            "sourceChordNote": 0,
            "sourceChordType": "Maj7",
            "ctb2Low": null,
            "ctb2Main": {
              "ntr": "ROOT_FIXED",
              "ntt": "BYPASS",
              "bassOn": false,
              "chordRootUpperLimit": 6,
              "noteLowLimit": 0,
              "noteHighLimit": 127,
              "rtr": "PITCH_SHIFT"
            },
            "ctb2High": null
          },
          "notes": [
            {
              "pitch": 51,
              "velocity": 70,
              "position": 0,
              "duration": 0.0375
            },
            {
              "pitch": 44,
              "velocity": 82,
              "position": 1,
              "duration": 0.016666666666666666
            },
            {
              "pitch": 40,
              "velocity": 84,
              "position": 1,
              "duration": 0.0375
            },
            {
              "pitch": 33,
              "velocity": 92,
              "position": 1,
              "duration": 0.12083333333333333
            },
            {
              "pitch": 49,
              "velocity": 54,
              "position": 1,
              "duration": 0.12083333333333333
            },
            {
              "pitch": 51,
              "velocity": 70,
              "position": 2,
              "duration": 0.0375
            },
            {
              "pitch": 44,
              "velocity": 82,
              "position": 3,
              "duration": 0.016666666666666666
            },
            {
              "pitch": 51,
              "velocity": 70,
              "position": 3,
              "duration": 0.0375
            },
            {
              "pitch": 51,
              "velocity": 23,
              "position": 3.7291666666666665,
              "duration": 0.0375
            },
            {
              "pitch": 51,
              "velocity": 70,
              "position": 4,
              "duration": 0.0375
            },
            {
              "pitch": 44,
              "velocity": 82,
              "position": 5,
              "duration": 0.016666666666666666
            },
            {
              "pitch": 40,
              "velocity": 80,
              "position": 5,
              "duration": 0.0375
            },
            {
              "pitch": 33,
              "velocity": 92,
              "position": 5,
              "duration": 0.12083333333333333
            },
            {
              "pitch": 57,
              "velocity": 54,
              "position": 5,
              "duration": 0.12083333333333333
            },
            {
              "pitch": 51,
              "velocity": 23,
              "position": 5.729166666666667,
              "duration": 0.0375
            },
            {
              "pitch": 51,
              "velocity": 70,
              "position": 6,
              "duration": 0.0375
            },
            {
              "pitch": 44,
              "velocity": 82,
              "position": 7,
              "duration": 0.016666666666666666
            },
            {
              "pitch": 51,
              "velocity": 70,
              "position": 7,
              "duration": 0.0375
            },
            {
              "pitch": 51,
              "velocity": 70,
              "position": 8,
              "duration": 0.0375
            },
            {
              "pitch": 44,
              "velocity": 82,
              "position": 9,
              "duration": 0.016666666666666666
            },
            {
              "pitch": 40,
              "velocity": 88,
              "position": 9,
              "duration": 0.0375
            },
            {
              "pitch": 33,
              "velocity": 92,
              "position": 9,
              "duration": 0.12083333333333333
            },
            {
              "pitch": 49,
              "velocity": 54,
              "position": 9,
              "duration": 0.12083333333333333
            },
            {
              "pitch": 51,
              "velocity": 23,
              "position": 9.729166666666666,
              "duration": 0.0375
            },
            {
              "pitch": 51,
              "velocity": 70,
              "position": 10,
              "duration": 0.0375
            },
            {
              "pitch": 44,
              "velocity": 82,
              "position": 11,
              "duration": 0.016666666666666666
            },
            {
              "pitch": 51,
              "velocity": 70,
              "position": 11,
              "duration": 0.0375
            },
            {
              "pitch": 51,
              "velocity": 23,
              "position": 11.729166666666666,
              "duration": 0.0375
            },
            {
              "pitch": 51,
              "velocity": 70,
              "position": 12,
              "duration": 0.0375
            },
            {
              "pitch": 33,
              "velocity": 80,
              "position": 12,
              "duration": 0.12083333333333333
            },
            {
              "pitch": 44,
              "velocity": 82,
              "position": 13,
              "duration": 0.016666666666666666
            },
            {
              "pitch": 51,
              "velocity": 70,
              "position": 13,
              "duration": 0.0375
            },
            {
              "pitch": 51,
              "velocity": 23,
              "position": 13.729166666666666,
              "duration": 0.0375
            },
            {
              "pitch": 51,
              "velocity": 70,
              "position": 14,
              "duration": 0.0375
            },
            {
              "pitch": 33,
              "velocity": 80,
              "position": 14,
              "duration": 0.12083333333333333
            },
            {
              "pitch": 40,
              "velocity": 49,
              "position": 14.729166666666666,
              "duration": 0.0375
            },
            {
              "pitch": 44,
              "velocity": 82,
              "position": 15,
              "duration": 0.016666666666666666
            },
            {
              "pitch": 40,
              "velocity": 87,
              "position": 15,
              "duration": 0.0375
            },
            {
              "pitch": 51,
              "velocity": 70,
              "position": 15,
              "duration": 0.0375
            },
            {
              "pitch": 51,
              "velocity": 66,
              "position": 16,
              "duration": 0.0375
            },
            {
              "pitch": 33,
              "velocity": 67,
              "position": 16,
              "duration": 0.12083333333333333
            },
            {
              "pitch": 44,
              "velocity": 82,
              "position": 17,
              "duration": 0.016666666666666666
            },
            {
              "pitch": 40,
              "velocity": 63,
              "position": 17,
              "duration": 0.0375
            },
            {
              "pitch": 51,
              "velocity": 66,
              "position": 17,
              "duration": 0.0375
            },
            {
              "pitch": 40,
              "velocity": 88,
              "position": 18,
              "duration": 0.0375
            },
            {
              "pitch": 51,
              "velocity": 66,
              "position": 18,
              "duration": 0.0375
            },
            {
              "pitch": 33,
              "velocity": 67,
              "position": 18,
              "duration": 0.12083333333333333
            },
            {
              "pitch": 40,
              "velocity": 44,
              "position": 18.666666666666668,
              "duration": 0.0375
            },
            {
              "pitch": 44,
              "velocity": 82,
              "position": 19,
              "duration": 0.016666666666666666
            },
            {
              "pitch": 51,
              "velocity": 66,
              "position": 19,
              "duration": 0.0375
            },
            {
              "pitch": 40,
              "velocity": 67,
              "position": 20,
              "duration": 0.0375
            },
            {
              "pitch": 51,
              "velocity": 66,
              "position": 20,
              "duration": 0.0375
            },
            {
              "pitch": 33,
              "velocity": 67,
              "position": 20,
              "duration": 0.12083333333333333
            },
            {
              "pitch": 44,
              "velocity": 82,
              "position": 21,
              "duration": 0.016666666666666666
            },
            {
              "pitch": 51,
              "velocity": 66,
              "position": 21,
              "duration": 0.0375
            },
            {
              "pitch": 40,
              "velocity": 49,
              "position": 21.666666666666668,
              "duration": 0.0375
            },
            {
              "pitch": 51,
              "velocity": 66,
              "position": 22,
              "duration": 0.0375
            },
            {
              "pitch": 33,
              "velocity": 67,
              "position": 22,
              "duration": 0.12083333333333333
            },
            {
              "pitch": 40,
              "velocity": 37,
              "position": 22.729166666666668,
              "duration": 0.12083333333333333
            },
            {
              "pitch": 44,
              "velocity": 82,
              "position": 23,
              "duration": 0.016666666666666666
            },
            {
              "pitch": 40,
              "velocity": 85,
              "position": 23,
              "duration": 0.0375
            },
            {
              "pitch": 51,
              "velocity": 66,
              "position": 23,
              "duration": 0.0375
            },
            {
              "pitch": 40,
              "velocity": 87,
              "position": 24,
              "duration": 0.0375
            },
            {
              "pitch": 51,
              "velocity": 66,
              "position": 24,
              "duration": 0.0375
            },
            {
              "pitch": 33,
              "velocity": 67,
              "position": 24,
              "duration": 0.12083333333333333
            },
            {
              "pitch": 57,
              "velocity": 54,
              "position": 24,
              "duration": 0.12083333333333333
            },
            {
              "pitch": 44,
              "velocity": 82,
              "position": 25,
              "duration": 0.016666666666666666
            },
            {
              "pitch": 51,
              "velocity": 66,
              "position": 25,
              "duration": 0.0375
            },
            {
              "pitch": 40,
              "velocity": 54,
              "position": 26,
              "duration": 0.0375
            },
            {
              "pitch": 51,
              "velocity": 66,
              "position": 26,
              "duration": 0.0375
            },
            {
              "pitch": 33,
              "velocity": 67,
              "position": 26,
              "duration": 0.12083333333333333
            },
            {
              "pitch": 40,
              "velocity": 30,
              "position": 26.739583333333332,
              "duration": 0.0375
            },
            {
              "pitch": 44,
              "velocity": 82,
              "position": 27,
              "duration": 0.016666666666666666
            },
            {
              "pitch": 40,
              "velocity": 73,
              "position": 27,
              "duration": 0.0375
            },
            {
              "pitch": 51,
              "velocity": 66,
              "position": 27,
              "duration": 0.0375
            },
            {
              "pitch": 40,
              "velocity": 85,
              "position": 27.666666666666668,
              "duration": 0.0375
            },
            {
              "pitch": 49,
              "velocity": 54,
              "position": 27.666666666666668,
              "duration": 0.12083333333333333
            },
            {
              "pitch": 33,
              "velocity": 67,
              "position": 28,
              "duration": 0.12083333333333333
            },
            {
              "pitch": 44,
              "velocity": 82,
              "position": 29,
              "duration": 0.016666666666666666
            },
            {
              "pitch": 40,
              "velocity": 75,
              "position": 29,
              "duration": 0.0375
            },
            {
              "pitch": 40,
              "velocity": 39,
              "position": 29.333333333333332,
              "duration": 0.0375
            },
            {
              "pitch": 40,
              "velocity": 44,
              "position": 29.666666666666668,
              "duration": 0.0375
            },
            {
              "pitch": 40,
              "velocity": 80,
              "position": 30,
              "duration": 0.0375
            },
            {
              "pitch": 33,
              "velocity": 67,
              "position": 30,
              "duration": 0.12083333333333333
            },
            {
              "pitch": 33,
              "velocity": 108,
              "position": 30.666666666666668,
              "duration": 0.12083333333333333
            },
            {
              "pitch": 40,
              "velocity": 96,
              "position": 30.666666666666668,
              "duration": 0.12083333333333333
            },
            {
              "pitch": 44,
              "velocity": 82,
              "position": 31,
              "duration": 0.016666666666666666
            },
            {
              "pitch": 57,
              "velocity": 54,
              "position": 31.989583333333332,
              "duration": 0.00625
            }
          ]
        },
        "10": {
          "ctab": {
            "srcChannel": 10,
            "name": "Bass",
            "accType": "BASS",
            "editable": false,
            "mutedNotes": [],
            "mutedChords": [
              "dim7",
              "dim",
              "minMaj7(9)",
              "minMaj7",
              "min7(11)",
              "min7(9)",
              "min(9)",
              "m7b5",
              "min7",
              "min6",
              "min"
            ],
            "autoStart": false,
            "sourceChordNote": 0,
            "sourceChordType": "Maj",
            "ctb2Low": null,
            "ctb2Main": {
              "ntr": "ROOT_TRANSPOSITION",
              "ntt": "BYPASS",
              "bassOn": false,
              "chordRootUpperLimit": 3,
              "noteLowLimit": 28,
              "noteHighLimit": 127,
              "rtr": "PITCH_SHIFT"
            },
            "ctb2High": null
          },
          "notes": [
            {
              "pitch": 24,
              "velocity": 124,
              "position": 1,
              "duration": 0.9958333333333333
            },
            {
              "pitch": 26,
              "velocity": 111,
              "position": 5,
              "duration": 0.9958333333333333
            },
            {
              "pitch": 27,
              "velocity": 104,
              "position": 9,
              "duration": 0.9958333333333333
            },
            {
              "pitch": 28,
              "velocity": 92,
              "position": 12,
              "duration": 1.7145833333333333
            },
            {
              "pitch": 32,
              "velocity": 89,
              "position": 13.729166666666666,
              "duration": 0.25416666666666665
            },
            {
              "pitch": 33,
              "velocity": 68,
              "position": 14,
              "duration": 0.9854166666666667
            },
            {
              "pitch": 27,
              "velocity": 76,
              "position": 15,
              "duration": 0.9854166666666667
            },
            {
              "pitch": 26,
              "velocity": 83,
              "position": 16,
              "duration": 1.9854166666666666
            },
            {
              "pitch": 33,
              "velocity": 94,
              "position": 18,
              "duration": 1.7145833333333333
            },
            {
              "pitch": 26,
              "velocity": 85,
              "position": 19.729166666666668,
              "duration": 0.25416666666666665
            },
            {
              "pitch": 38,
              "velocity": 115,
              "position": 20,
              "duration": 1.7145833333333333
            },
            {
              "pitch": 26,
              "velocity": 74,
              "position": 21.729166666666668,
              "duration": 0.25416666666666665
            },
            {
              "pitch": 30,
              "velocity": 109,
              "position": 22,
              "duration": 0.9854166666666667
            },
            {
              "pitch": 31,
              "velocity": 97,
              "position": 23,
              "duration": 0.9854166666666667
            },
            {
              "pitch": 32,
              "velocity": 94,
              "position": 24,
              "duration": 1.6625
            },
            {
              "pitch": 32,
              "velocity": 96,
              "position": 26,
              "duration": 1.3291666666666666
            },
            {
              "pitch": 31,
              "velocity": 99,
              "position": 27.666666666666668,
              "duration": 2.0479166666666666
            },
            {
              "pitch": 31,
              "velocity": 68,
              "position": 29.729166666666668,
              "duration": 0.25416666666666665
            },
            {
              "pitch": 34,
              "velocity": 87,
              "position": 30,
              "duration": 0.9854166666666667
            },
            {
              "pitch": 35,
              "velocity": 89,
              "position": 31,
              "duration": 0.9958333333333333
            }
          ]
        },
        "11": {
          "ctab": {
            "srcChannel": 11,
            "name": "j.gtr",
            "accType": "CHORD1",
            "editable": false,
            "mutedNotes": [],
            "mutedChords": [
              "dim7",
              "dim",
              "minMaj7(9)",
              "minMaj7",
              "min7(11)",
              "min7(9)",
              "min(9)",
              "m7b5",
              "min7",
              "min6",
              "min"
            ],
            "autoStart": false,
            "sourceChordNote": 0,
            "sourceChordType": "Maj",
            "ctb2Low": null,
            "ctb2Main": {
              "ntr": "ROOT_TRANSPOSITION",
              "ntt": "BYPASS",
              "bassOn": false,
              "chordRootUpperLimit": 7,
              "noteLowLimit": 50,
              "noteHighLimit": 61,
              "rtr": "PITCH_SHIFT"
            },
            "ctb2High": null
          },
          "notes": [
            {
              "pitch": 52,
              "velocity": 84,
              "position": 1,
              "duration": 0.9958333333333333
            },
            {
              "pitch": 55,
              "velocity": 84,
              "position": 1,
              "duration": 0.9958333333333333
            },
            {
              "pitch": 60,
              "velocity": 84,
              "position": 1,
              "duration": 0.9958333333333333
            },
            {
              "pitch": 50,
              "velocity": 83,
              "position": 5,
              "duration": 0.9958333333333333
            },
            {
              "pitch": 53,
              "velocity": 83,
              "position": 5,
              "duration": 0.9958333333333333
            },
            {
              "pitch": 60,
              "velocity": 83,
              "position": 5,
              "duration": 0.9958333333333333
            },
            {
              "pitch": 51,
              "velocity": 83,
              "position": 9,
              "duration": 0.9958333333333333
            },
            {
              "pitch": 54,
              "velocity": 83,
              "position": 9,
              "duration": 0.9958333333333333
            },
            {
              "pitch": 60,
              "velocity": 83,
              "position": 9,
              "duration": 0.9958333333333333
            },
            {
              "pitch": 52,
              "velocity": 48,
              "position": 12,
              "duration": 0.9854166666666667
            },
            {
              "pitch": 55,
              "velocity": 48,
              "position": 12,
              "duration": 0.9854166666666667
            },
            {
              "pitch": 60,
              "velocity": 48,
              "position": 12,
              "duration": 0.9854166666666667
            },
            {
              "pitch": 52,
              "velocity": 102,
              "position": 13,
              "duration": 0.30833333333333335
            },
            {
              "pitch": 55,
              "velocity": 102,
              "position": 13,
              "duration": 0.30833333333333335
            },
            {
              "pitch": 60,
              "velocity": 102,
              "position": 13,
              "duration": 0.30833333333333335
            },
            {
              "pitch": 52,
              "velocity": 51,
              "position": 14,
              "duration": 0.9854166666666667
            },
            {
              "pitch": 55,
              "velocity": 51,
              "position": 14,
              "duration": 0.9854166666666667
            },
            {
              "pitch": 60,
              "velocity": 51,
              "position": 14,
              "duration": 0.9854166666666667
            },
            {
              "pitch": 52,
              "velocity": 97,
              "position": 15,
              "duration": 0.30833333333333335
            },
            {
              "pitch": 55,
              "velocity": 97,
              "position": 15,
              "duration": 0.30833333333333335
            },
            {
              "pitch": 60,
              "velocity": 97,
              "position": 15,
              "duration": 0.30833333333333335
            },
            {
              "pitch": 52,
              "velocity": 40,
              "position": 16,
              "duration": 0.9854166666666667
            },
            {
              "pitch": 54,
              "velocity": 40,
              "position": 16,
              "duration": 0.9854166666666667
            },
            {
              "pitch": 60,
              "velocity": 40,
              "position": 16,
              "duration": 0.9854166666666667
            },
            {
              "pitch": 52,
              "velocity": 97,
              "position": 17,
              "duration": 0.30833333333333335
            },
            {
              "pitch": 54,
              "velocity": 97,
              "position": 17,
              "duration": 0.30833333333333335
            },
            {
              "pitch": 60,
              "velocity": 97,
              "position": 17,
              "duration": 0.30833333333333335
            },
            {
              "pitch": 52,
              "velocity": 57,
              "position": 18,
              "duration": 0.9854166666666667
            },
            {
              "pitch": 54,
              "velocity": 57,
              "position": 18,
              "duration": 0.9854166666666667
            },
            {
              "pitch": 60,
              "velocity": 57,
              "position": 18,
              "duration": 0.9854166666666667
            },
            {
              "pitch": 52,
              "velocity": 97,
              "position": 19,
              "duration": 0.30833333333333335
            },
            {
              "pitch": 54,
              "velocity": 97,
              "position": 19,
              "duration": 0.30833333333333335
            },
            {
              "pitch": 60,
              "velocity": 97,
              "position": 19,
              "duration": 0.30833333333333335
            },
            {
              "pitch": 52,
              "velocity": 36,
              "position": 20,
              "duration": 0.9854166666666667
            },
            {
              "pitch": 54,
              "velocity": 36,
              "position": 20,
              "duration": 0.9854166666666667
            },
            {
              "pitch": 60,
              "velocity": 36,
              "position": 20,
              "duration": 0.9854166666666667
            },
            {
              "pitch": 52,
              "velocity": 95,
              "position": 21,
              "duration": 0.30833333333333335
            },
            {
              "pitch": 54,
              "velocity": 95,
              "position": 21,
              "duration": 0.30833333333333335
            },
            {
              "pitch": 60,
              "velocity": 95,
              "position": 21,
              "duration": 0.30833333333333335
            },
            {
              "pitch": 52,
              "velocity": 62,
              "position": 22,
              "duration": 0.9854166666666667
            },
            {
              "pitch": 54,
              "velocity": 62,
              "position": 22,
              "duration": 0.9854166666666667
            },
            {
              "pitch": 60,
              "velocity": 62,
              "position": 22,
              "duration": 0.9854166666666667
            },
            {
              "pitch": 52,
              "velocity": 107,
              "position": 23,
              "duration": 0.30833333333333335
            },
            {
              "pitch": 54,
              "velocity": 107,
              "position": 23,
              "duration": 0.30833333333333335
            },
            {
              "pitch": 60,
              "velocity": 107,
              "position": 23,
              "duration": 0.30833333333333335
            },
            {
              "pitch": 54,
              "velocity": 90,
              "position": 24,
              "duration": 1.9854166666666666
            },
            {
              "pitch": 60,
              "velocity": 90,
              "position": 24,
              "duration": 1.9854166666666666
            },
            {
              "pitch": 54,
              "velocity": 86,
              "position": 26,
              "duration": 1.4854166666666666
            },
            {
              "pitch": 60,
              "velocity": 86,
              "position": 26,
              "duration": 1.4854166666666666
            },
            {
              "pitch": 53,
              "velocity": 90,
              "position": 27.666666666666668,
              "duration": 1.4958333333333333
            },
            {
              "pitch": 59,
              "velocity": 90,
              "position": 27.666666666666668,
              "duration": 1.4958333333333333
            }
          ]
        },
        "12": {
          "ctab": {
            "srcChannel": 12,
            "name": "vocal",
            "accType": "CHORD2",
            "editable": false,
            "mutedNotes": [],
            "mutedChords": [
              "dim7",
              "dim",
              "minMaj7(9)",
              "minMaj7",
              "min7(11)",
              "min7(9)",
              "min(9)",
              "m7b5",
              "min7",
              "min6",
              "min"
            ],
            "autoStart": false,
            "sourceChordNote": 0,
            "sourceChordType": "Maj",
            "ctb2Low": null,
            "ctb2Main": {
              "ntr": "ROOT_TRANSPOSITION",
              "ntt": "BYPASS",
              "bassOn": false,
              "chordRootUpperLimit": 4,
              "noteLowLimit": 0,
              "noteHighLimit": 127,
              "rtr": "PITCH_SHIFT"
            },
            "ctb2High": null
          },
          "notes": [
            {
              "pitch": 60,
              "velocity": 115,
              "position": 0,
              "duration": 1.5583333333333333
            },
            {
              "pitch": 64,
              "velocity": 114,
              "position": 0,
              "duration": 1.5583333333333333
            },
            {
              "pitch": 69,
              "velocity": 120,
              "position": 0,
              "duration": 1.5583333333333333
            },
            {
              "pitch": 72,
              "velocity": 107,
              "position": 0,
              "duration": 1.5583333333333333
            },
            {
              "pitch": 55,
              "velocity": 56,
              "position": 2,
              "duration": 0.7145833333333333
            },
            {
              "pitch": 67,
              "velocity": 83,
              "position": 2,
              "duration": 0.7145833333333333
            },
            {
              "pitch": 57,
              "velocity": 24,
              "position": 2.7291666666666665,
              "duration": 0.25625
            },
            {
              "pitch": 69,
              "velocity": 56,
              "position": 2.7291666666666665,
              "duration": 0.25625
            },
            {
              "pitch": 60,
              "velocity": 62,
              "position": 3,
              "duration": 0.48541666666666666
            },
            {
              "pitch": 72,
              "velocity": 89,
              "position": 3,
              "duration": 0.48541666666666666
            },
            {
              "pitch": 60,
              "velocity": 115,
              "position": 3.6666666666666665,
              "duration": 1.5583333333333333
            },
            {
              "pitch": 65,
              "velocity": 115,
              "position": 3.6666666666666665,
              "duration": 1.5583333333333333
            },
            {
              "pitch": 69,
              "velocity": 115,
              "position": 3.6666666666666665,
              "duration": 1.5583333333333333
            },
            {
              "pitch": 72,
              "velocity": 115,
              "position": 3.6666666666666665,
              "duration": 1.5583333333333333
            },
            {
              "pitch": 55,
              "velocity": 51,
              "position": 6,
              "duration": 0.7145833333333333
            },
            {
              "pitch": 67,
              "velocity": 77,
              "position": 6,
              "duration": 0.7145833333333333
            },
            {
              "pitch": 57,
              "velocity": 20,
              "position": 6.729166666666667,
              "duration": 0.25625
            },
            {
              "pitch": 69,
              "velocity": 53,
              "position": 6.729166666666667,
              "duration": 0.25625
            },
            {
              "pitch": 60,
              "velocity": 39,
              "position": 7,
              "duration": 0.48541666666666666
            },
            {
              "pitch": 72,
              "velocity": 69,
              "position": 7,
              "duration": 0.48541666666666666
            },
            {
              "pitch": 60,
              "velocity": 111,
              "position": 7.666666666666667,
              "duration": 1.5583333333333333
            },
            {
              "pitch": 63,
              "velocity": 111,
              "position": 7.666666666666667,
              "duration": 1.5583333333333333
            },
            {
              "pitch": 66,
              "velocity": 111,
              "position": 7.666666666666667,
              "duration": 1.5583333333333333
            },
            {
              "pitch": 69,
              "velocity": 111,
              "position": 7.666666666666667,
              "duration": 1.5583333333333333
            },
            {
              "pitch": 72,
              "velocity": 111,
              "position": 7.666666666666667,
              "duration": 1.5583333333333333
            },
            {
              "pitch": 55,
              "velocity": 51,
              "position": 10,
              "duration": 0.7145833333333333
            },
            {
              "pitch": 67,
              "velocity": 77,
              "position": 10,
              "duration": 0.7145833333333333
            },
            {
              "pitch": 57,
              "velocity": 25,
              "position": 10.729166666666666,
              "duration": 0.25625
            },
            {
              "pitch": 69,
              "velocity": 57,
              "position": 10.729166666666666,
              "duration": 0.25625
            },
            {
              "pitch": 60,
              "velocity": 51,
              "position": 11,
              "duration": 0.48541666666666666
            },
            {
              "pitch": 72,
              "velocity": 77,
              "position": 11,
              "duration": 0.48541666666666666
            },
            {
              "pitch": 60,
              "velocity": 111,
              "position": 11.666666666666666,
              "duration": 1.5583333333333333
            },
            {
              "pitch": 64,
              "velocity": 111,
              "position": 11.666666666666666,
              "duration": 1.5583333333333333
            },
            {
              "pitch": 69,
              "velocity": 111,
              "position": 11.666666666666666,
              "duration": 1.5583333333333333
            },
            {
              "pitch": 72,
              "velocity": 111,
              "position": 11.666666666666666,
              "duration": 1.5583333333333333
            },
            {
              "pitch": 55,
              "velocity": 72,
              "position": 16,
              "duration": 0.6520833333333333
            },
            {
              "pitch": 57,
              "velocity": 72,
              "position": 16,
              "duration": 0.6520833333333333
            },
            {
              "pitch": 60,
              "velocity": 72,
              "position": 16,
              "duration": 0.6520833333333333
            },
            {
              "pitch": 57,
              "velocity": 72,
              "position": 16.666666666666668,
              "duration": 0.31875
            },
            {
              "pitch": 59,
              "velocity": 72,
              "position": 16.666666666666668,
              "duration": 0.31875
            },
            {
              "pitch": 62,
              "velocity": 72,
              "position": 16.666666666666668,
              "duration": 0.31875
            },
            {
              "pitch": 55,
              "velocity": 72,
              "position": 17,
              "duration": 0.6520833333333333
            },
            {
              "pitch": 57,
              "velocity": 72,
              "position": 17,
              "duration": 0.6520833333333333
            },
            {
              "pitch": 60,
              "velocity": 72,
              "position": 17,
              "duration": 0.6520833333333333
            },
            {
              "pitch": 57,
              "velocity": 72,
              "position": 17.666666666666668,
              "duration": 0.31875
            },
            {
              "pitch": 59,
              "velocity": 72,
              "position": 17.666666666666668,
              "duration": 0.31875
            },
            {
              "pitch": 62,
              "velocity": 72,
              "position": 17.666666666666668,
              "duration": 0.31875
            },
            {
              "pitch": 55,
              "velocity": 86,
              "position": 18,
              "duration": 0.6520833333333333
            },
            {
              "pitch": 57,
              "velocity": 86,
              "position": 18,
              "duration": 0.6520833333333333
            },
            {
              "pitch": 60,
              "velocity": 86,
              "position": 18,
              "duration": 0.6520833333333333
            },
            {
              "pitch": 64,
              "velocity": 86,
              "position": 18,
              "duration": 0.6520833333333333
            },
            {
              "pitch": 57,
              "velocity": 72,
              "position": 18.666666666666668,
              "duration": 0.31875
            },
            {
              "pitch": 60,
              "velocity": 72,
              "position": 18.666666666666668,
              "duration": 0.31875
            },
            {
              "pitch": 64,
              "velocity": 72,
              "position": 18.666666666666668,
              "duration": 0.31875
            },
            {
              "pitch": 67,
              "velocity": 72,
              "position": 18.666666666666668,
              "duration": 0.31875
            },
            {
              "pitch": 60,
              "velocity": 72,
              "position": 19,
              "duration": 0.6520833333333333
            },
            {
              "pitch": 64,
              "velocity": 72,
              "position": 19,
              "duration": 0.6520833333333333
            },
            {
              "pitch": 67,
              "velocity": 72,
              "position": 19,
              "duration": 0.6520833333333333
            },
            {
              "pitch": 69,
              "velocity": 72,
              "position": 19,
              "duration": 0.6520833333333333
            },
            {
              "pitch": 60,
              "velocity": 71,
              "position": 19.666666666666668,
              "duration": 0.31875
            },
            {
              "pitch": 64,
              "velocity": 71,
              "position": 19.666666666666668,
              "duration": 0.31875
            },
            {
              "pitch": 67,
              "velocity": 71,
              "position": 19.666666666666668,
              "duration": 0.31875
            },
            {
              "pitch": 71,
              "velocity": 71,
              "position": 19.666666666666668,
              "duration": 0.31875
            },
            {
              "pitch": 64,
              "velocity": 90,
              "position": 20,
              "duration": 0.6520833333333333
            },
            {
              "pitch": 67,
              "velocity": 90,
              "position": 20,
              "duration": 0.6520833333333333
            },
            {
              "pitch": 69,
              "velocity": 90,
              "position": 20,
              "duration": 0.6520833333333333
            },
            {
              "pitch": 74,
              "velocity": 90,
              "position": 20,
              "duration": 0.6520833333333333
            },
            {
              "pitch": 64,
              "velocity": 72,
              "position": 20.666666666666668,
              "duration": 0.31875
            },
            {
              "pitch": 67,
              "velocity": 72,
              "position": 20.666666666666668,
              "duration": 0.31875
            },
            {
              "pitch": 69,
              "velocity": 72,
              "position": 20.666666666666668,
              "duration": 0.31875
            },
            {
              "pitch": 73,
              "velocity": 72,
              "position": 20.666666666666668,
              "duration": 0.31875
            },
            {
              "pitch": 64,
              "velocity": 72,
              "position": 21,
              "duration": 0.6520833333333333
            },
            {
              "pitch": 67,
              "velocity": 72,
              "position": 21,
              "duration": 0.6520833333333333
            },
            {
              "pitch": 69,
              "velocity": 72,
              "position": 21,
              "duration": 0.6520833333333333
            },
            {
              "pitch": 72,
              "velocity": 72,
              "position": 21,
              "duration": 0.6520833333333333
            },
            {
              "pitch": 64,
              "velocity": 69,
              "position": 21.666666666666668,
              "duration": 0.31875
            },
            {
              "pitch": 67,
              "velocity": 69,
              "position": 21.666666666666668,
              "duration": 0.31875
            },
            {
              "pitch": 69,
              "velocity": 69,
              "position": 21.666666666666668,
              "duration": 0.31875
            },
            {
              "pitch": 74,
              "velocity": 69,
              "position": 21.666666666666668,
              "duration": 0.31875
            },
            {
              "pitch": 64,
              "velocity": 88,
              "position": 22,
              "duration": 0.6520833333333333
            },
            {
              "pitch": 67,
              "velocity": 88,
              "position": 22,
              "duration": 0.6520833333333333
            },
            {
              "pitch": 69,
              "velocity": 88,
              "position": 22,
              "duration": 0.6520833333333333
            },
            {
              "pitch": 71,
              "velocity": 88,
              "position": 22,
              "duration": 0.6520833333333333
            },
            {
              "pitch": 57,
              "velocity": 64,
              "position": 22.666666666666668,
              "duration": 0.3458333333333333
            },
            {
              "pitch": 60,
              "velocity": 64,
              "position": 22.666666666666668,
              "duration": 0.3458333333333333
            },
            {
              "pitch": 64,
              "velocity": 64,
              "position": 22.666666666666668,
              "duration": 0.3458333333333333
            },
            {
              "pitch": 67,
              "velocity": 64,
              "position": 22.666666666666668,
              "duration": 0.3458333333333333
            },
            {
              "pitch": 58,
              "velocity": 109,
              "position": 24,
              "duration": 1.9854166666666666
            },
            {
              "pitch": 60,
              "velocity": 109,
              "position": 24,
              "duration": 1.9854166666666666
            },
            {
              "pitch": 63,
              "velocity": 109,
              "position": 24,
              "duration": 1.9854166666666666
            },
            {
              "pitch": 68,
              "velocity": 109,
              "position": 24,
              "duration": 1.9854166666666666
            },
            {
              "pitch": 58,
              "velocity": 102,
              "position": 26,
              "duration": 1.5770833333333334
            },
            {
              "pitch": 60,
              "velocity": 102,
              "position": 26,
              "duration": 1.5770833333333334
            },
            {
              "pitch": 63,
              "velocity": 102,
              "position": 26,
              "duration": 1.5770833333333334
            },
            {
              "pitch": 70,
              "velocity": 102,
              "position": 26,
              "duration": 1.5770833333333334
            },
            {
              "pitch": 59,
              "velocity": 127,
              "position": 27.666666666666668,
              "duration": 3.1625
            },
            {
              "pitch": 64,
              "velocity": 114,
              "position": 27.666666666666668,
              "duration": 3.1625
            },
            {
              "pitch": 67,
              "velocity": 127,
              "position": 27.666666666666668,
              "duration": 3.1625
            }
          ]
        },
        "14": {
          "ctab": {
            "srcChannel": 14,
            "name": "doo",
            "accType": "PHRASE1",
            "editable": false,
            "mutedNotes": [],
            "mutedChords": [
              "dim7",
              "dim",
              "minMaj7(9)",
              "minMaj7",
              "min7(11)",
              "min7(9)",
              "min(9)",
              "m7b5",
              "min7",
              "min6",
              "min"
            ],
            "autoStart": false,
            "sourceChordNote": 0,
            "sourceChordType": "Maj",
            "ctb2Low": null,
            "ctb2Main": {
              "ntr": "ROOT_TRANSPOSITION",
              "ntt": "BYPASS",
              "bassOn": false,
              "chordRootUpperLimit": 3,
              "noteLowLimit": 36,
              "noteHighLimit": 127,
              "rtr": "PITCH_SHIFT"
            },
            "ctb2High": null
          },
          "notes": [
            {
              "pitch": 24,
              "velocity": 107,
              "position": 1.0020833333333334,
              "duration": 0.9958333333333333
            },
            {
              "pitch": 26,
              "velocity": 104,
              "position": 5,
              "duration": 0.9958333333333333
            },
            {
              "pitch": 27,
              "velocity": 114,
              "position": 9,
              "duration": 0.9958333333333333
            },
            {
              "pitch": 43,
              "velocity": 127,
              "position": 13.729166666666666,
              "duration": 0.3229166666666667
            },
            {
              "pitch": 45,
              "velocity": 127,
              "position": 14,
              "duration": 0.6
            },
            {
              "pitch": 40,
              "velocity": 127,
              "position": 14.729166666666666,
              "duration": 0.2
            },
            {
              "pitch": 39,
              "velocity": 127,
              "position": 15,
              "duration": 0.9854166666666667
            },
            {
              "pitch": 38,
              "velocity": 127,
              "position": 16,
              "duration": 0.9958333333333333
            }
          ]
        },
        "15": {
          "ctab": {
            "srcChannel": 15,
            "name": "piano",
            "accType": "PHRASE2",
            "editable": true,
            "mutedNotes": [],
            "mutedChords": [
              "dim7",
              "dim",
              "minMaj7(9)",
              "minMaj7",
              "min7(11)",
              "min7(9)",
              "min(9)",
              "m7b5",
              "min7",
              "min6",
              "min"
            ],
            "autoStart": false,
            "sourceChordNote": 0,
            "sourceChordType": "Maj",
            "ctb2Low": null,
            "ctb2Main": {
              "ntr": "ROOT_TRANSPOSITION",
              "ntt": "BYPASS",
              "bassOn": false,
              "chordRootUpperLimit": 8,
              "noteLowLimit": 0,
              "noteHighLimit": 127,
              "rtr": "PITCH_SHIFT"
            },
            "ctb2High": null
          },
          "notes": [
            {
              "pitch": 48,
              "velocity": 91,
              "position": 1,
              "duration": 0.49583333333333335
            },
            {
              "pitch": 60,
              "velocity": 96,
              "position": 1,
              "duration": 0.49583333333333335
            },
            {
              "pitch": 72,
              "velocity": 88,
              "position": 1,
              "duration": 0.49583333333333335
            },
            {
              "pitch": 76,
              "velocity": 96,
              "position": 1,
              "duration": 0.49583333333333335
            },
            {
              "pitch": 84,
              "velocity": 92,
              "position": 1,
              "duration": 0.49583333333333335
            },
            {
              "pitch": 50,
              "velocity": 107,
              "position": 5,
              "duration": 0.49583333333333335
            },
            {
              "pitch": 74,
              "velocity": 107,
              "position": 5,
              "duration": 0.49583333333333335
            },
            {
              "pitch": 77,
              "velocity": 107,
              "position": 5,
              "duration": 0.49583333333333335
            },
            {
              "pitch": 84,
              "velocity": 107,
              "position": 5,
              "duration": 0.49583333333333335
            },
            {
              "pitch": 51,
              "velocity": 99,
              "position": 9,
              "duration": 0.49583333333333335
            },
            {
              "pitch": 75,
              "velocity": 107,
              "position": 9,
              "duration": 0.49583333333333335
            },
            {
              "pitch": 78,
              "velocity": 99,
              "position": 9,
              "duration": 0.49583333333333335
            },
            {
              "pitch": 84,
              "velocity": 99,
              "position": 9,
              "duration": 0.49583333333333335
            },
            {
              "pitch": 88,
              "velocity": 98,
              "position": 13,
              "duration": 0.3145833333333333
            },
            {
              "pitch": 84,
              "velocity": 61,
              "position": 13.327083333333333,
              "duration": 0.35
            },
            {
              "pitch": 81,
              "velocity": 61,
              "position": 13.689583333333333,
              "duration": 0.29375
            },
            {
              "pitch": 79,
              "velocity": 83,
              "position": 14,
              "duration": 0.31875
            },
            {
              "pitch": 76,
              "velocity": 58,
              "position": 14.333333333333334,
              "duration": 0.31875
            },
            {
              "pitch": 72,
              "velocity": 59,
              "position": 14.666666666666666,
              "duration": 0.31875
            },
            {
              "pitch": 69,
              "velocity": 73,
              "position": 15,
              "duration": 0.31875
            },
            {
              "pitch": 67,
              "velocity": 53,
              "position": 15.333333333333334,
              "duration": 0.31875
            },
            {
              "pitch": 64,
              "velocity": 53,
              "position": 15.666666666666666,
              "duration": 0.30416666666666664
            },
            {
              "pitch": 54,
              "velocity": 67,
              "position": 16,
              "duration": 2.9854166666666666
            },
            {
              "pitch": 60,
              "velocity": 67,
              "position": 16,
              "duration": 2.9854166666666666
            },
            {
              "pitch": 64,
              "velocity": 67,
              "position": 16,
              "duration": 2.9854166666666666
            },
            {
              "pitch": 54,
              "velocity": 81,
              "position": 19,
              "duration": 0.49583333333333335
            },
            {
              "pitch": 60,
              "velocity": 81,
              "position": 19,
              "duration": 0.49583333333333335
            },
            {
              "pitch": 64,
              "velocity": 81,
              "position": 19,
              "duration": 0.49583333333333335
            },
            {
              "pitch": 76,
              "velocity": 81,
              "position": 19,
              "duration": 0.49583333333333335
            },
            {
              "pitch": 54,
              "velocity": 76,
              "position": 20.666666666666668,
              "duration": 0.49583333333333335
            },
            {
              "pitch": 60,
              "velocity": 76,
              "position": 20.666666666666668,
              "duration": 0.49583333333333335
            },
            {
              "pitch": 64,
              "velocity": 76,
              "position": 20.666666666666668,
              "duration": 0.49583333333333335
            },
            {
              "pitch": 72,
              "velocity": 76,
              "position": 20.666666666666668,
              "duration": 0.49583333333333335
            },
            {
              "pitch": 53,
              "velocity": 74,
              "position": 27.666666666666668,
              "duration": 1.3291666666666666
            },
            {
              "pitch": 59,
              "velocity": 74,
              "position": 27.666666666666668,
              "duration": 1.3291666666666666
            },
            {
              "pitch": 71,
              "velocity": 74,
              "position": 27.666666666666668,
              "duration": 1.3291666666666666
            },
            {
              "pitch": 79,
              "velocity": 74,
              "position": 27.666666666666668,
              "duration": 1.3291666666666666
            }
          ]
        }
      }
    },
    "Ending_A": {
      "type": "Ending_A",
      "sizeInBeats": 8,
      "channels": {
        "0": {
          "ctab": {
            "srcChannel": 0,
            "name": "CC_Crash",
            "accType": "RHYTHM",
            "editable": false,
            "mutedNotes": [],
            "mutedChords": [
              "1+2+5",
              "sus4",
              "1+5",
              "1+8",
              "7aug",
              "Maj7aug",
              "7(#9)",
              "7(b13)",
              "7(b9)",
              "7(13)",
              "7#11",
              "7(9)",
              "7b5",
              "7sus4",
              "7th",
              "dim7",
              "dim",
              "minMaj7(9)",
              "minMaj7",
              "min7(11)",
              "min7(9)",
              "min(9)",
              "m7b5",
              "min7",
              "min6",
              "min",
              "aug",
              "Maj6(9)",
              "Maj7(9)",
              "Maj(9)",
              "Maj7#11",
              "Maj7",
              "Maj6",
              "Maj"
            ],
            "autoStart": true,
            "sourceChordNote": 0,
            "sourceChordType": "Maj",
            "ctb2Low": null,
            "ctb2Main": {
              "ntr": "ROOT_FIXED",
              "ntt": "BYPASS",
              "bassOn": false,
              "chordRootUpperLimit": 0,
              "noteLowLimit": 0,
              "noteHighLimit": 127,
              "rtr": "RETRIGGER"
            },
            "ctb2High": null
          },
          "notes": []
        },
        "2": {
          "ctab": {
            "srcChannel": 2,
            "name": "VocalRoo",
            "accType": "CHORD2",
            "editable": false,
            "mutedNotes": [],
            "mutedChords": [
              "1+2+5",
              "sus4",
              "1+5",
              "1+8",
              "Maj7aug",
              "dim",
              "minMaj7(9)",
              "minMaj7",
              "min6",
              "min",
              "aug",
              "Maj6(9)",
              "Maj7(9)",
              "Maj(9)",
              "Maj7#11",
              "Maj7",
              "Maj6",
              "Maj"
            ],
            "autoStart": false,
            "sourceChordNote": 0,
            "sourceChordType": "Maj7",
            "ctb2Low": null,
            "ctb2Main": {
              "ntr": "ROOT_TRANSPOSITION",
              "ntt": "CHORD",
              "bassOn": false,
              "chordRootUpperLimit": 6,
              "noteLowLimit": 0,
              "noteHighLimit": 127,
              "rtr": "PITCH_SHIFT"
            },
            "ctb2High": null
          },
          "notes": [
            {
              "pitch": 60,
              "velocity": 86,
              "position": 0,
              "duration": 7.829166666666667
            }
          ]
        },
        "8": {
          "ctab": {
            "srcChannel": 8,
            "name": "snips",
            "accType": "SUBRHYTHM",
            "editable": false,
            "mutedNotes": [],
            "mutedChords": [],
            "autoStart": true,
            "sourceChordNote": 0,
            "sourceChordType": "Maj7",
            "ctb2Low": null,
            "ctb2Main": {
              "ntr": "ROOT_FIXED",
              "ntt": "BYPASS",
              "bassOn": false,
              "chordRootUpperLimit": 6,
              "noteLowLimit": 0,
              "noteHighLimit": 127,
              "rtr": "PITCH_SHIFT"
            },
            "ctb2High": null
          },
          "notes": []
        },
        "9": {
          "ctab": {
            "srcChannel": 9,
            "name": "drums",
            "accType": "RHYTHM",
            "editable": false,
            "mutedNotes": [],
            "mutedChords": [],
            "autoStart": true,
            "sourceChordNote": 0,
            "sourceChordType": "Maj7",
            "ctb2Low": null,
            "ctb2Main": {
              "ntr": "ROOT_FIXED",
              "ntt": "BYPASS",
              "bassOn": false,
              "chordRootUpperLimit": 6,
              "noteLowLimit": 0,
              "noteHighLimit": 127,
              "rtr": "PITCH_SHIFT"
            },
            "ctb2High": null
          },
          "notes": [
            {
              "pitch": 33,
              "velocity": 83,
              "position": 0,
              "duration": 0.027083333333333334
            }
          ]
        },
        "10": {
          "ctab": {
            "srcChannel": 10,
            "name": "Bass",
            "accType": "BASS",
            "editable": false,
            "mutedNotes": [],
            "mutedChords": [],
            "autoStart": false,
            "sourceChordNote": 0,
            "sourceChordType": "Maj7",
            "ctb2Low": null,
            "ctb2Main": {
              "ntr": "ROOT_TRANSPOSITION",
              "ntt": "MELODY",
              "bassOn": true,
              "chordRootUpperLimit": 3,
              "noteLowLimit": 28,
              "noteHighLimit": 127,
              "rtr": "PITCH_SHIFT_TO_ROOT"
            },
            "ctb2High": null
          },
          "notes": [
            {
              "pitch": 24,
              "velocity": 125,
              "position": 0,
              "duration": 7.985416666666667
            }
          ]
        },
        "11": {
          "ctab": {
            "srcChannel": 11,
            "name": "J Gtr",
            "accType": "CHORD1",
            "editable": false,
            "mutedNotes": [],
            "mutedChords": [],
            "autoStart": false,
            "sourceChordNote": 0,
            "sourceChordType": "Maj7",
            "ctb2Low": null,
            "ctb2Main": {
              "ntr": "ROOT_FIXED",
              "ntt": "CHORD",
              "bassOn": false,
              "chordRootUpperLimit": 7,
              "noteLowLimit": 0,
              "noteHighLimit": 127,
              "rtr": "PITCH_SHIFT"
            },
            "ctb2High": null
          },
          "notes": [
            {
              "pitch": 55,
              "velocity": 59,
              "position": 0,
              "duration": 7.985416666666667
            },
            {
              "pitch": 59,
              "velocity": 59,
              "position": 0,
              "duration": 7.985416666666667
            },
            {
              "pitch": 64,
              "velocity": 59,
              "position": 0,
              "duration": 7.985416666666667
            }
          ]
        },
        "12": {
          "ctab": {
            "srcChannel": 12,
            "name": "Vocal",
            "accType": "CHORD2",
            "editable": false,
            "mutedNotes": [],
            "mutedChords": [],
            "autoStart": false,
            "sourceChordNote": 0,
            "sourceChordType": "Maj7",
            "ctb2Low": null,
            "ctb2Main": {
              "ntr": "ROOT_FIXED",
              "ntt": "CHORD",
              "bassOn": false,
              "chordRootUpperLimit": 7,
              "noteLowLimit": 0,
              "noteHighLimit": 127,
              "rtr": "PITCH_SHIFT"
            },
            "ctb2High": null
          },
          "notes": [
            {
              "pitch": 55,
              "velocity": 86,
              "position": 0,
              "duration": 7.829166666666667
            },
            {
              "pitch": 59,
              "velocity": 86,
              "position": 0,
              "duration": 7.829166666666667
            },
            {
              "pitch": 64,
              "velocity": 86,
              "position": 0,
              "duration": 7.829166666666667
            }
          ]
        },
        "14": {
          "ctab": {
            "srcChannel": 14,
            "name": "DOM",
            "accType": "PHRASE1",
            "editable": false,
            "mutedNotes": [],
            "mutedChords": [],
            "autoStart": false,
            "sourceChordNote": 0,
            "sourceChordType": "Maj7",
            "ctb2Low": null,
            "ctb2Main": {
              "ntr": "ROOT_TRANSPOSITION",
              "ntt": "MELODY",
              "bassOn": true,
              "chordRootUpperLimit": 0,
              "noteLowLimit": 35,
              "noteHighLimit": 127,
              "rtr": "PITCH_SHIFT_TO_ROOT"
            },
            "ctb2High": null
          },
          "notes": [
            {
              "pitch": 36,
              "velocity": 121,
              "position": 0,
              "duration": 7.985416666666667
            }
          ]
        }
      }
    },
    "Ending_B": {
      "type": "Ending_B",
      "sizeInBeats": 8,
      "channels": {
        "0": {
          "ctab": {
            "srcChannel": 0,
            "name": "CC_Crash",
            "accType": "RHYTHM",
            "editable": false,
            "mutedNotes": [],
            "mutedChords": [
              "1+2+5",
              "sus4",
              "1+5",
              "1+8",
              "7aug",
              "Maj7aug",
              "7(#9)",
              "7(b13)",
              "7(b9)",
              "7(13)",
              "7#11",
              "7(9)",
              "7b5",
              "7sus4",
              "7th",
              "dim7",
              "dim",
              "minMaj7(9)",
              "minMaj7",
              "min7(11)",
              "min7(9)",
              "min(9)",
              "m7b5",
              "min7",
              "min6",
              "min",
              "aug",
              "Maj6(9)",
              "Maj7(9)",
              "Maj(9)",
              "Maj7#11",
              "Maj7",
              "Maj6",
              "Maj"
            ],
            "autoStart": true,
            "sourceChordNote": 0,
            "sourceChordType": "Maj",
            "ctb2Low": null,
            "ctb2Main": {
              "ntr": "ROOT_FIXED",
              "ntt": "BYPASS",
              "bassOn": false,
              "chordRootUpperLimit": 0,
              "noteLowLimit": 0,
              "noteHighLimit": 127,
              "rtr": "RETRIGGER"
            },
            "ctb2High": null
          },
          "notes": []
        },
        "2": {
          "ctab": {
            "srcChannel": 2,
            "name": "VocalRoo",
            "accType": "CHORD2",
            "editable": false,
            "mutedNotes": [],
            "mutedChords": [
              "1+2+5",
              "sus4",
              "1+5",
              "1+8",
              "Maj7aug",
              "dim",
              "minMaj7(9)",
              "minMaj7",
              "min6",
              "min",
              "aug",
              "Maj6(9)",
              "Maj7(9)",
              "Maj(9)",
              "Maj7#11",
              "Maj7",
              "Maj6",
              "Maj"
            ],
            "autoStart": false,
            "sourceChordNote": 0,
            "sourceChordType": "Maj7",
            "ctb2Low": null,
            "ctb2Main": {
              "ntr": "ROOT_TRANSPOSITION",
              "ntt": "CHORD",
              "bassOn": false,
              "chordRootUpperLimit": 6,
              "noteLowLimit": 0,
              "noteHighLimit": 127,
              "rtr": "PITCH_SHIFT"
            },
            "ctb2High": null
          },
          "notes": [
            {
              "pitch": 60,
              "velocity": 67,
              "position": 0,
              "duration": 0.6520833333333333
            },
            {
              "pitch": 60,
              "velocity": 95,
              "position": 0.6666666666666666,
              "duration": 0.30833333333333335
            },
            {
              "pitch": 60,
              "velocity": 93,
              "position": 2,
              "duration": 0.30833333333333335
            },
            {
              "pitch": 60,
              "velocity": 64,
              "position": 4,
              "duration": 0.69375
            },
            {
              "pitch": 60,
              "velocity": 64,
              "position": 4.708333333333333,
              "duration": 0.25625
            },
            {
              "pitch": 60,
              "velocity": 74,
              "position": 5,
              "duration": 0.5791666666666667
            },
            {
              "pitch": 60,
              "velocity": 109,
              "position": 5.666666666666667,
              "duration": 1.5583333333333333
            }
          ]
        },
        "8": {
          "ctab": {
            "srcChannel": 8,
            "name": "snips",
            "accType": "SUBRHYTHM",
            "editable": false,
            "mutedNotes": [],
            "mutedChords": [],
            "autoStart": true,
            "sourceChordNote": 0,
            "sourceChordType": "Maj7",
            "ctb2Low": null,
            "ctb2Main": {
              "ntr": "ROOT_FIXED",
              "ntt": "BYPASS",
              "bassOn": false,
              "chordRootUpperLimit": 6,
              "noteLowLimit": 0,
              "noteHighLimit": 127,
              "rtr": "PITCH_SHIFT"
            },
            "ctb2High": null
          },
          "notes": []
        },
        "9": {
          "ctab": {
            "srcChannel": 9,
            "name": "drums",
            "accType": "RHYTHM",
            "editable": false,
            "mutedNotes": [],
            "mutedChords": [],
            "autoStart": true,
            "sourceChordNote": 0,
            "sourceChordType": "Maj7",
            "ctb2Low": null,
            "ctb2Main": {
              "ntr": "ROOT_FIXED",
              "ntt": "BYPASS",
              "bassOn": false,
              "chordRootUpperLimit": 6,
              "noteLowLimit": 0,
              "noteHighLimit": 127,
              "rtr": "PITCH_SHIFT"
            },
            "ctb2High": null
          },
          "notes": [
            {
              "pitch": 51,
              "velocity": 66,
              "position": 0,
              "duration": 0.0375
            },
            {
              "pitch": 33,
              "velocity": 67,
              "position": 0,
              "duration": 0.12083333333333333
            },
            {
              "pitch": 40,
              "velocity": 73,
              "position": 0.6666666666666666,
              "duration": 0.027083333333333334
            },
            {
              "pitch": 44,
              "velocity": 82,
              "position": 1,
              "duration": 0.016666666666666666
            },
            {
              "pitch": 33,
              "velocity": 53,
              "position": 1,
              "duration": 0.027083333333333334
            },
            {
              "pitch": 40,
              "velocity": 20,
              "position": 1,
              "duration": 0.027083333333333334
            },
            {
              "pitch": 40,
              "velocity": 22,
              "position": 1.3333333333333333,
              "duration": 0.027083333333333334
            },
            {
              "pitch": 40,
              "velocity": 20,
              "position": 1.7083333333333333,
              "duration": 0.027083333333333334
            },
            {
              "pitch": 40,
              "velocity": 94,
              "position": 2,
              "duration": 0.027083333333333334
            },
            {
              "pitch": 33,
              "velocity": 67,
              "position": 2,
              "duration": 0.12083333333333333
            },
            {
              "pitch": 40,
              "velocity": 18,
              "position": 2.3333333333333335,
              "duration": 0.027083333333333334
            },
            {
              "pitch": 40,
              "velocity": 24,
              "position": 2.7083333333333335,
              "duration": 0.027083333333333334
            },
            {
              "pitch": 44,
              "velocity": 82,
              "position": 3,
              "duration": 0.016666666666666666
            },
            {
              "pitch": 40,
              "velocity": 50,
              "position": 3,
              "duration": 0.027083333333333334
            },
            {
              "pitch": 40,
              "velocity": 88,
              "position": 4,
              "duration": 0.027083333333333334
            },
            {
              "pitch": 33,
              "velocity": 67,
              "position": 4,
              "duration": 0.12083333333333333
            },
            {
              "pitch": 40,
              "velocity": 32,
              "position": 4.333333333333333,
              "duration": 0.027083333333333334
            },
            {
              "pitch": 40,
              "velocity": 48,
              "position": 4.708333333333333,
              "duration": 0.027083333333333334
            },
            {
              "pitch": 44,
              "velocity": 82,
              "position": 5,
              "duration": 0.016666666666666666
            },
            {
              "pitch": 40,
              "velocity": 69,
              "position": 5,
              "duration": 0.027083333333333334
            },
            {
              "pitch": 40,
              "velocity": 100,
              "position": 5.708333333333333,
              "duration": 0.027083333333333334
            },
            {
              "pitch": 33,
              "velocity": 81,
              "position": 5.729166666666667,
              "duration": 0.12083333333333333
            },
            {
              "pitch": 46,
              "velocity": 80,
              "position": 7,
              "duration": 0.0375
            },
            {
              "pitch": 33,
              "velocity": 109,
              "position": 7,
              "duration": 0.12083333333333333
            },
            {
              "pitch": 44,
              "velocity": 16,
              "position": 7.604166666666667,
              "duration": 0.0375
            }
          ]
        },
        "10": {
          "ctab": {
            "srcChannel": 10,
            "name": "Bass",
            "accType": "BASS",
            "editable": false,
            "mutedNotes": [],
            "mutedChords": [],
            "autoStart": false,
            "sourceChordNote": 0,
            "sourceChordType": "Maj7",
            "ctb2Low": null,
            "ctb2Main": {
              "ntr": "ROOT_TRANSPOSITION",
              "ntt": "MELODY",
              "bassOn": true,
              "chordRootUpperLimit": 3,
              "noteLowLimit": 28,
              "noteHighLimit": 127,
              "rtr": "PITCH_SHIFT_TO_ROOT"
            },
            "ctb2High": null
          },
          "notes": [
            {
              "pitch": 24,
              "velocity": 119,
              "position": 0,
              "duration": 1.5583333333333333
            },
            {
              "pitch": 31,
              "velocity": 95,
              "position": 2,
              "duration": 1.5583333333333333
            },
            {
              "pitch": 24,
              "velocity": 115,
              "position": 4,
              "duration": 0.69375
            },
            {
              "pitch": 31,
              "velocity": 114,
              "position": 4.708333333333333,
              "duration": 0.27708333333333335
            },
            {
              "pitch": 33,
              "velocity": 114,
              "position": 5,
              "duration": 0.69375
            },
            {
              "pitch": 24,
              "velocity": 114,
              "position": 5.708333333333333,
              "duration": 1.2770833333333333
            },
            {
              "pitch": 24,
              "velocity": 110,
              "position": 7,
              "duration": 0.49583333333333335
            }
          ]
        },
        "11": {
          "ctab": {
            "srcChannel": 11,
            "name": "J Gtr",
            "accType": "CHORD1",
            "editable": false,
            "mutedNotes": [],
            "mutedChords": [],
            "autoStart": false,
            "sourceChordNote": 0,
            "sourceChordType": "Maj7",
            "ctb2Low": null,
            "ctb2Main": {
              "ntr": "ROOT_FIXED",
              "ntt": "CHORD",
              "bassOn": false,
              "chordRootUpperLimit": 7,
              "noteLowLimit": 0,
              "noteHighLimit": 127,
              "rtr": "PITCH_SHIFT"
            },
            "ctb2High": null
          },
          "notes": [
            {
              "pitch": 55,
              "velocity": 46,
              "position": 0,
              "duration": 0.9854166666666667
            },
            {
              "pitch": 59,
              "velocity": 46,
              "position": 0,
              "duration": 0.9854166666666667
            },
            {
              "pitch": 64,
              "velocity": 46,
              "position": 0,
              "duration": 0.9854166666666667
            },
            {
              "pitch": 55,
              "velocity": 95,
              "position": 1,
              "duration": 0.20416666666666666
            },
            {
              "pitch": 59,
              "velocity": 95,
              "position": 1,
              "duration": 0.20416666666666666
            },
            {
              "pitch": 64,
              "velocity": 95,
              "position": 1,
              "duration": 0.20416666666666666
            },
            {
              "pitch": 55,
              "velocity": 48,
              "position": 2,
              "duration": 0.9854166666666667
            },
            {
              "pitch": 59,
              "velocity": 48,
              "position": 2,
              "duration": 0.9854166666666667
            },
            {
              "pitch": 64,
              "velocity": 48,
              "position": 2,
              "duration": 0.9854166666666667
            },
            {
              "pitch": 55,
              "velocity": 89,
              "position": 3,
              "duration": 0.20416666666666666
            },
            {
              "pitch": 59,
              "velocity": 89,
              "position": 3,
              "duration": 0.20416666666666666
            },
            {
              "pitch": 64,
              "velocity": 89,
              "position": 3,
              "duration": 0.20416666666666666
            },
            {
              "pitch": 55,
              "velocity": 55,
              "position": 4,
              "duration": 1.6520833333333333
            },
            {
              "pitch": 59,
              "velocity": 55,
              "position": 4,
              "duration": 1.6520833333333333
            },
            {
              "pitch": 64,
              "velocity": 55,
              "position": 4,
              "duration": 1.6520833333333333
            },
            {
              "pitch": 55,
              "velocity": 77,
              "position": 5.666666666666667,
              "duration": 1.31875
            },
            {
              "pitch": 59,
              "velocity": 77,
              "position": 5.666666666666667,
              "duration": 1.31875
            },
            {
              "pitch": 64,
              "velocity": 77,
              "position": 5.666666666666667,
              "duration": 1.31875
            }
          ]
        },
        "12": {
          "ctab": {
            "srcChannel": 12,
            "name": "Vocal",
            "accType": "CHORD2",
            "editable": false,
            "mutedNotes": [],
            "mutedChords": [],
            "autoStart": false,
            "sourceChordNote": 0,
            "sourceChordType": "Maj7",
            "ctb2Low": null,
            "ctb2Main": {
              "ntr": "ROOT_FIXED",
              "ntt": "CHORD",
              "bassOn": false,
              "chordRootUpperLimit": 7,
              "noteLowLimit": 0,
              "noteHighLimit": 127,
              "rtr": "PITCH_SHIFT"
            },
            "ctb2High": null
          },
          "notes": [
            {
              "pitch": 55,
              "velocity": 67,
              "position": 0,
              "duration": 0.6520833333333333
            },
            {
              "pitch": 59,
              "velocity": 67,
              "position": 0,
              "duration": 0.6520833333333333
            },
            {
              "pitch": 64,
              "velocity": 67,
              "position": 0,
              "duration": 0.6520833333333333
            },
            {
              "pitch": 55,
              "velocity": 95,
              "position": 0.6666666666666666,
              "duration": 0.30833333333333335
            },
            {
              "pitch": 59,
              "velocity": 95,
              "position": 0.6666666666666666,
              "duration": 0.30833333333333335
            },
            {
              "pitch": 64,
              "velocity": 95,
              "position": 0.6666666666666666,
              "duration": 0.30833333333333335
            },
            {
              "pitch": 55,
              "velocity": 93,
              "position": 2,
              "duration": 0.30833333333333335
            },
            {
              "pitch": 59,
              "velocity": 93,
              "position": 2,
              "duration": 0.30833333333333335
            },
            {
              "pitch": 64,
              "velocity": 93,
              "position": 2,
              "duration": 0.30833333333333335
            },
            {
              "pitch": 55,
              "velocity": 64,
              "position": 4,
              "duration": 0.69375
            },
            {
              "pitch": 59,
              "velocity": 64,
              "position": 4,
              "duration": 0.69375
            },
            {
              "pitch": 64,
              "velocity": 64,
              "position": 4,
              "duration": 0.69375
            },
            {
              "pitch": 55,
              "velocity": 64,
              "position": 4.708333333333333,
              "duration": 0.25625
            },
            {
              "pitch": 59,
              "velocity": 64,
              "position": 4.708333333333333,
              "duration": 0.25625
            },
            {
              "pitch": 64,
              "velocity": 64,
              "position": 4.708333333333333,
              "duration": 0.25625
            },
            {
              "pitch": 59,
              "velocity": 74,
              "position": 5,
              "duration": 0.5791666666666667
            },
            {
              "pitch": 64,
              "velocity": 74,
              "position": 5,
              "duration": 0.5791666666666667
            },
            {
              "pitch": 67,
              "velocity": 74,
              "position": 5,
              "duration": 0.5791666666666667
            },
            {
              "pitch": 55,
              "velocity": 109,
              "position": 5.666666666666667,
              "duration": 1.5583333333333333
            },
            {
              "pitch": 59,
              "velocity": 109,
              "position": 5.666666666666667,
              "duration": 1.5583333333333333
            },
            {
              "pitch": 64,
              "velocity": 109,
              "position": 5.666666666666667,
              "duration": 1.5583333333333333
            }
          ]
        },
        "14": {
          "ctab": {
            "srcChannel": 14,
            "name": "DOM",
            "accType": "PHRASE1",
            "editable": false,
            "mutedNotes": [],
            "mutedChords": [],
            "autoStart": false,
            "sourceChordNote": 0,
            "sourceChordType": "Maj7",
            "ctb2Low": null,
            "ctb2Main": {
              "ntr": "ROOT_TRANSPOSITION",
              "ntt": "MELODY",
              "bassOn": true,
              "chordRootUpperLimit": 0,
              "noteLowLimit": 35,
              "noteHighLimit": 127,
              "rtr": "PITCH_SHIFT_TO_ROOT"
            },
            "ctb2High": null
          },
          "notes": [
            {
              "pitch": 36,
              "velocity": 107,
              "position": 0,
              "duration": 1.5583333333333333
            },
            {
              "pitch": 43,
              "velocity": 107,
              "position": 2,
              "duration": 1.5583333333333333
            },
            {
              "pitch": 36,
              "velocity": 107,
              "position": 4,
              "duration": 1.5583333333333333
            },
            {
              "pitch": 36,
              "velocity": 127,
              "position": 7,
              "duration": 0.9854166666666667
            },
            {
              "pitch": 48,
              "velocity": 107,
              "position": 7,
              "duration": 0.9854166666666667
            }
          ]
        }
      }
    },
    "Fill_In_BA": {
      "type": "Fill_In_BA",
      "sizeInBeats": 4,
      "channels": {
        "0": {
          "ctab": {
            "srcChannel": 0,
            "name": "CC_Crash",
            "accType": "RHYTHM",
            "editable": false,
            "mutedNotes": [],
            "mutedChords": [
              "1+2+5",
              "sus4",
              "1+5",
              "1+8",
              "7aug",
              "Maj7aug",
              "7(#9)",
              "7(b13)",
              "7(b9)",
              "7(13)",
              "7#11",
              "7(9)",
              "7b5",
              "7sus4",
              "7th",
              "dim7",
              "dim",
              "minMaj7(9)",
              "minMaj7",
              "min7(11)",
              "min7(9)",
              "min(9)",
              "m7b5",
              "min7",
              "min6",
              "min",
              "aug",
              "Maj6(9)",
              "Maj7(9)",
              "Maj(9)",
              "Maj7#11",
              "Maj7",
              "Maj6",
              "Maj"
            ],
            "autoStart": true,
            "sourceChordNote": 0,
            "sourceChordType": "Maj",
            "ctb2Low": null,
            "ctb2Main": {
              "ntr": "ROOT_FIXED",
              "ntt": "BYPASS",
              "bassOn": false,
              "chordRootUpperLimit": 0,
              "noteLowLimit": 0,
              "noteHighLimit": 127,
              "rtr": "RETRIGGER"
            },
            "ctb2High": null
          },
          "notes": []
        },
        "2": {
          "ctab": {
            "srcChannel": 2,
            "name": "VocalRoo",
            "accType": "CHORD2",
            "editable": false,
            "mutedNotes": [],
            "mutedChords": [
              "1+2+5",
              "sus4",
              "1+5",
              "1+8",
              "Maj7aug",
              "dim",
              "minMaj7(9)",
              "minMaj7",
              "min6",
              "min",
              "aug",
              "Maj6(9)",
              "Maj7(9)",
              "Maj(9)",
              "Maj7#11",
              "Maj7",
              "Maj6",
              "Maj"
            ],
            "autoStart": false,
            "sourceChordNote": 0,
            "sourceChordType": "Maj7",
            "ctb2Low": null,
            "ctb2Main": {
              "ntr": "ROOT_TRANSPOSITION",
              "ntt": "CHORD",
              "bassOn": false,
              "chordRootUpperLimit": 6,
              "noteLowLimit": 0,
              "noteHighLimit": 127,
              "rtr": "PITCH_SHIFT"
            },
            "ctb2High": null
          },
          "notes": [
            {
              "pitch": 60,
              "velocity": 86,
              "position": 0,
              "duration": 0.36041666666666666
            },
            {
              "pitch": 60,
              "velocity": 97,
              "position": 1,
              "duration": 0.36041666666666666
            }
          ]
        },
        "8": {
          "ctab": {
            "srcChannel": 8,
            "name": "snips",
            "accType": "SUBRHYTHM",
            "editable": false,
            "mutedNotes": [],
            "mutedChords": [],
            "autoStart": true,
            "sourceChordNote": 0,
            "sourceChordType": "Maj7",
            "ctb2Low": null,
            "ctb2Main": {
              "ntr": "ROOT_FIXED",
              "ntt": "BYPASS",
              "bassOn": false,
              "chordRootUpperLimit": 6,
              "noteLowLimit": 0,
              "noteHighLimit": 127,
              "rtr": "PITCH_SHIFT"
            },
            "ctb2High": null
          },
          "notes": [
            {
              "pitch": 19,
              "velocity": 100,
              "position": 1,
              "duration": 0.24583333333333332
            },
            {
              "pitch": 19,
              "velocity": 100,
              "position": 3,
              "duration": 0.24583333333333332
            },
            {
              "pitch": 49,
              "velocity": 100,
              "position": 3.9895833333333335,
              "duration": 0.00625
            }
          ]
        },
        "9": {
          "ctab": {
            "srcChannel": 9,
            "name": "drums",
            "accType": "RHYTHM",
            "editable": false,
            "mutedNotes": [],
            "mutedChords": [],
            "autoStart": true,
            "sourceChordNote": 0,
            "sourceChordType": "Maj7",
            "ctb2Low": null,
            "ctb2Main": {
              "ntr": "ROOT_FIXED",
              "ntt": "BYPASS",
              "bassOn": false,
              "chordRootUpperLimit": 6,
              "noteLowLimit": 0,
              "noteHighLimit": 127,
              "rtr": "PITCH_SHIFT"
            },
            "ctb2High": null
          },
          "notes": [
            {
              "pitch": 40,
              "velocity": 69,
              "position": 0,
              "duration": 0.027083333333333334
            },
            {
              "pitch": 59,
              "velocity": 79,
              "position": 0,
              "duration": 0.0375
            },
            {
              "pitch": 33,
              "velocity": 80,
              "position": 0,
              "duration": 0.12083333333333333
            },
            {
              "pitch": 40,
              "velocity": 48,
              "position": 0.7291666666666666,
              "duration": 0.027083333333333334
            },
            {
              "pitch": 44,
              "velocity": 82,
              "position": 1,
              "duration": 0.016666666666666666
            },
            {
              "pitch": 40,
              "velocity": 99,
              "position": 1,
              "duration": 0.027083333333333334
            },
            {
              "pitch": 57,
              "velocity": 54,
              "position": 1,
              "duration": 0.0375
            },
            {
              "pitch": 33,
              "velocity": 54,
              "position": 1,
              "duration": 0.12083333333333333
            }
          ]
        },
        "10": {
          "ctab": {
            "srcChannel": 10,
            "name": "Bass",
            "accType": "BASS",
            "editable": false,
            "mutedNotes": [],
            "mutedChords": [],
            "autoStart": false,
            "sourceChordNote": 0,
            "sourceChordType": "Maj7",
            "ctb2Low": null,
            "ctb2Main": {
              "ntr": "ROOT_TRANSPOSITION",
              "ntt": "MELODY",
              "bassOn": true,
              "chordRootUpperLimit": 3,
              "noteLowLimit": 28,
              "noteHighLimit": 127,
              "rtr": "PITCH_SHIFT_TO_ROOT"
            },
            "ctb2High": null
          },
          "notes": [
            {
              "pitch": 24,
              "velocity": 125,
              "position": 0,
              "duration": 0.9854166666666667
            },
            {
              "pitch": 24,
              "velocity": 97,
              "position": 1,
              "duration": 0.49583333333333335
            }
          ]
        },
        "11": {
          "ctab": {
            "srcChannel": 11,
            "name": "J Gtr",
            "accType": "CHORD1",
            "editable": false,
            "mutedNotes": [],
            "mutedChords": [],
            "autoStart": false,
            "sourceChordNote": 0,
            "sourceChordType": "Maj7",
            "ctb2Low": null,
            "ctb2Main": {
              "ntr": "ROOT_FIXED",
              "ntt": "CHORD",
              "bassOn": false,
              "chordRootUpperLimit": 7,
              "noteLowLimit": 0,
              "noteHighLimit": 127,
              "rtr": "PITCH_SHIFT"
            },
            "ctb2High": null
          },
          "notes": [
            {
              "pitch": 55,
              "velocity": 59,
              "position": 0,
              "duration": 0.9854166666666667
            },
            {
              "pitch": 59,
              "velocity": 59,
              "position": 0,
              "duration": 0.9854166666666667
            },
            {
              "pitch": 64,
              "velocity": 59,
              "position": 0,
              "duration": 0.9854166666666667
            },
            {
              "pitch": 55,
              "velocity": 99,
              "position": 1,
              "duration": 0.49583333333333335
            },
            {
              "pitch": 59,
              "velocity": 99,
              "position": 1,
              "duration": 0.49583333333333335
            },
            {
              "pitch": 64,
              "velocity": 99,
              "position": 1,
              "duration": 0.49583333333333335
            }
          ]
        },
        "12": {
          "ctab": {
            "srcChannel": 12,
            "name": "Vocal",
            "accType": "CHORD2",
            "editable": false,
            "mutedNotes": [],
            "mutedChords": [],
            "autoStart": false,
            "sourceChordNote": 0,
            "sourceChordType": "Maj7",
            "ctb2Low": null,
            "ctb2Main": {
              "ntr": "ROOT_FIXED",
              "ntt": "CHORD",
              "bassOn": false,
              "chordRootUpperLimit": 7,
              "noteLowLimit": 0,
              "noteHighLimit": 127,
              "rtr": "PITCH_SHIFT"
            },
            "ctb2High": null
          },
          "notes": [
            {
              "pitch": 55,
              "velocity": 86,
              "position": 0,
              "duration": 0.36041666666666666
            },
            {
              "pitch": 59,
              "velocity": 86,
              "position": 0,
              "duration": 0.36041666666666666
            },
            {
              "pitch": 64,
              "velocity": 86,
              "position": 0,
              "duration": 0.36041666666666666
            },
            {
              "pitch": 55,
              "velocity": 97,
              "position": 1,
              "duration": 0.36041666666666666
            },
            {
              "pitch": 59,
              "velocity": 97,
              "position": 1,
              "duration": 0.36041666666666666
            },
            {
              "pitch": 64,
              "velocity": 97,
              "position": 1,
              "duration": 0.36041666666666666
            }
          ]
        },
        "14": {
          "ctab": {
            "srcChannel": 14,
            "name": "DOM",
            "accType": "PHRASE1",
            "editable": false,
            "mutedNotes": [],
            "mutedChords": [],
            "autoStart": false,
            "sourceChordNote": 0,
            "sourceChordType": "Maj7",
            "ctb2Low": null,
            "ctb2Main": {
              "ntr": "ROOT_TRANSPOSITION",
              "ntt": "MELODY",
              "bassOn": true,
              "chordRootUpperLimit": 0,
              "noteLowLimit": 35,
              "noteHighLimit": 127,
              "rtr": "PITCH_SHIFT_TO_ROOT"
            },
            "ctb2High": null
          },
          "notes": [
            {
              "pitch": 36,
              "velocity": 121,
              "position": 0,
              "duration": 0.9854166666666667
            },
            {
              "pitch": 36,
              "velocity": 97,
              "position": 1,
              "duration": 0.49583333333333335
            }
          ]
        }
      }
    }
  }
}