{
  "name": "JazzWaltzFast.S733.prs",
  "tempo": 194,
  "timeSignature": "3/4",
  "ticksPerQuarter": 1920,
  "sffType": "SFF1",
  "division": "EIGHTH_SHUFFLE",
  "parts": {
    "Main_A": {
      "type": "Main_A",
      "sizeInBeats": 12,
      "channels": {
        "0": {
          "ctab": {
            "srcChannel": 0,
            "name": "gt 3 & 7",
            "accType": "CHORD1",
            "editable": false,
            "mutedNotes": [],
            "mutedChords": [],
            "autoStart": false,
            "sourceChordNote": 0,
            "sourceChordType": "Maj7",
            "ctb2Low": null,
            "ctb2Main": {
              "ntr": "ROOT_TRANSPOSITION",
              "ntt": "MELODY",
              "bassOn": false,
              "chordRootUpperLimit": 8,
              "noteLowLimit": 54,
              "noteHighLimit": 65,
              "rtr": "PITCH_SHIFT"
            },
            "ctb2High": null
          },
          "notes": [
            {
              "pitch": 59,
              "velocity": 30,
              "position": 0.6770833333333334,
              "duration": 0.3541666666666667
            },
            {
              "pitch": 64,
              "velocity": 30,
              "position": 0.6875,
              "duration": 0.3541666666666667
            },
            {
              "pitch": 59,
              "velocity": 40,
              "position": 2.0104166666666665,
              "duration": 0.9791666666666666
            },
            {
              "pitch": 64,
              "velocity": 40,
              "position": 2.0208333333333335,
              "duration": 0.9791666666666666
            },
            {
              "pitch": 59,
              "velocity": 30,
              "position": 3.6770833333333335,
              "duration": 0.3541666666666667
            },
            {
              "pitch": 64,
              "velocity": 30,
              "position": 3.6875,
              "duration": 0.3541666666666667
            },
            {
              "pitch": 59,
              "velocity": 40,
              "position": 5.010416666666667,
              "duration": 0.9791666666666666
            },
            {
              "pitch": 64,
              "velocity": 40,
              "position": 5.020833333333333,
              "duration": 0.9791666666666666
            },
            {
              "pitch": 59,
              "velocity": 30,
              "position": 6.677083333333333,
              "duration": 0.3541666666666667
            },
            {
              "pitch": 64,
              "velocity": 30,
              "position": 6.6875,
              "duration": 0.3541666666666667
            },
            {
              "pitch": 59,
              "velocity": 40,
              "position": 8.010416666666666,
              "duration": 0.9791666666666666
            },
            {
              "pitch": 64,
              "velocity": 40,
              "position": 8.020833333333334,
              "duration": 0.9791666666666666
            },
            {
              "pitch": 59,
              "velocity": 30,
              "position": 9.677083333333334,
              "duration": 0.3541666666666667
            },
            {
              "pitch": 64,
              "velocity": 30,
              "position": 9.6875,
              "duration": 0.3541666666666667
            },
            {
              "pitch": 59,
              "velocity": 40,
              "position": 11.010416666666666,
              "duration": 0.9791666666666666
            },
            {
              "pitch": 64,
              "velocity": 40,
              "position": 11.020833333333334,
              "duration": 0.9791666666666666
            }
          ]
        },
        "1": {
          "ctab": {
            "srcChannel": 1,
            "name": "gt 5",
            "accType": "CHORD1",
            "editable": false,
            "mutedNotes": [],
            "mutedChords": [
              "1+5",
              "1+8",
              "7(#9)",
              "7(b9)",
              "7(13)",
              "7(9)",
              "minMaj7(9)",
              "min7(9)",
              "Maj7(9)"
            ],
            "autoStart": false,
            "sourceChordNote": 0,
            "sourceChordType": "Maj7",
            "ctb2Low": null,
            "ctb2Main": {
              "ntr": "ROOT_TRANSPOSITION",
              "ntt": "CHORD",
              "bassOn": false,
              "chordRootUpperLimit": 8,
              "noteLowLimit": 54,
              "noteHighLimit": 65,
              "rtr": "PITCH_SHIFT"
            },
            "ctb2High": null
          },
          "notes": [
            {
              "pitch": 55,
              "velocity": 30,
              "position": 0.6666666666666666,
              "duration": 0.3541666666666667
            },
            {
              "pitch": 55,
              "velocity": 40,
              "position": 2,
              "duration": 0.9791666666666666
            },
            {
              "pitch": 55,
              "velocity": 30,
              "position": 3.6666666666666665,
              "duration": 0.3541666666666667
            },
            {
              "pitch": 55,
              "velocity": 40,
              "position": 5,
              "duration": 0.9791666666666666
            },
            {
              "pitch": 55,
              "velocity": 30,
              "position": 6.666666666666667,
              "duration": 0.3541666666666667
            },
            {
              "pitch": 55,
              "velocity": 40,
              "position": 8,
              "duration": 0.9791666666666666
            },
            {
              "pitch": 55,
              "velocity": 30,
              "position": 9.666666666666666,
              "duration": 0.3541666666666667
            },
            {
              "pitch": 55,
              "velocity": 40,
              "position": 11,
              "duration": 0.9791666666666666
            }
          ]
        },
        "2": {
          "ctab": {
            "srcChannel": 2,
            "name": "gt 5 & 9",
            "accType": "CHORD1",
            "editable": false,
            "mutedNotes": [],
            "mutedChords": [
              "1+2+5",
              "sus4",
              "1+5",
              "1+8",
              "7aug",
              "Maj7aug",
              "7(b13)",
              "7(13)",
              "7#11",
              "7b5",
              "7sus4",
              "7th",
              "dim7",
              "dim",
              "minMaj7",
              "min7(11)",
              "min(9)",
              "m7b5",
              "min7",
              "min6",
              "min",
              "aug",
              "Maj6(9)",
              "Maj(9)",
              "Maj7#11",
              "Maj7",
              "Maj6",
              "Maj"
            ],
            "autoStart": false,
            "sourceChordNote": 0,
            "sourceChordType": "Maj7",
            "ctb2Low": null,
            "ctb2Main": {
              "ntr": "ROOT_TRANSPOSITION",
              "ntt": "MELODY",
              "bassOn": false,
              "chordRootUpperLimit": 8,
              "noteLowLimit": 62,
              "noteHighLimit": 73,
              "rtr": "PITCH_SHIFT"
            },
            "ctb2High": null
          },
          "notes": [
            {
              "pitch": 67,
              "velocity": 30,
              "position": 0.6770833333333334,
              "duration": 0.3541666666666667
            },
            {
              "pitch": 62,
              "velocity": 30,
              "position": 0.6875,
              "duration": 0.3541666666666667
            },
            {
              "pitch": 67,
              "velocity": 40,
              "position": 2.0104166666666665,
              "duration": 0.9791666666666666
            },
            {
              "pitch": 62,
              "velocity": 40,
              "position": 2.0208333333333335,
              "duration": 0.9791666666666666
            },
            {
              "pitch": 67,
              "velocity": 30,
              "position": 3.6770833333333335,
              "duration": 0.3541666666666667
            },
            {
              "pitch": 62,
              "velocity": 30,
              "position": 3.6875,
              "duration": 0.3541666666666667
            },
            {
              "pitch": 67,
              "velocity": 40,
              "position": 5.010416666666667,
              "duration": 0.9791666666666666
            },
            {
              "pitch": 62,
              "velocity": 40,
              "position": 5.020833333333333,
              "duration": 0.9791666666666666
            },
            {
              "pitch": 67,
              "velocity": 30,
              "position": 6.677083333333333,
              "duration": 0.3541666666666667
            },
            {
              "pitch": 62,
              "velocity": 30,
              "position": 6.6875,
              "duration": 0.3541666666666667
            },
            {
              "pitch": 67,
              "velocity": 40,
              "position": 8.010416666666666,
              "duration": 0.9791666666666666
            },
            {
              "pitch": 62,
              "velocity": 40,
              "position": 8.020833333333334,
              "duration": 0.9791666666666666
            },
            {
              "pitch": 67,
              "velocity": 30,
              "position": 9.677083333333334,
              "duration": 0.3541666666666667
            },
            {
              "pitch": 62,
              "velocity": 30,
              "position": 9.6875,
              "duration": 0.3541666666666667
            },
            {
              "pitch": 67,
              "velocity": 40,
              "position": 11.010416666666666,
              "duration": 0.9791666666666666
            },
            {
              "pitch": 62,
              "velocity": 40,
              "position": 11.020833333333334,
              "duration": 0.9791666666666666
            }
          ]
        },
        "3": {
          "ctab": {
            "srcChannel": 3,
            "name": "gt 6 & 9",
            "accType": "CHORD1",
            "editable": false,
            "mutedNotes": [],
            "mutedChords": [
              "1+2+5",
              "sus4",
              "1+5",
              "1+8",
              "7aug",
              "Maj7aug",
              "7(#9)",
              "7(b13)",
              "7(b9)",
              "7#11",
              "7(9)",
              "7b5",
              "7sus4",
              "7th",
              "dim7",
              "dim",
              "minMaj7(9)",
              "minMaj7",
              "min7(11)",
              "min7(9)",
              "min(9)",
              "m7b5",
              "min7",
              "min6",
              "min",
              "aug",
              "Maj6(9)",
              "Maj7(9)",
              "Maj(9)",
              "Maj7#11",
              "Maj7",
              "Maj6",
              "Maj"
            ],
            "autoStart": false,
            "sourceChordNote": 0,
            "sourceChordType": "Maj7",
            "ctb2Low": null,
            "ctb2Main": {
              "ntr": "ROOT_TRANSPOSITION",
              "ntt": "MELODY",
              "bassOn": false,
              "chordRootUpperLimit": 8,
              "noteLowLimit": 62,
              "noteHighLimit": 73,
              "rtr": "PITCH_SHIFT"
            },
            "ctb2High": null
          },
          "notes": [
            {
              "pitch": 62,
              "velocity": 30,
              "position": 0.6770833333333334,
              "duration": 0.3541666666666667
            },
            {
              "pitch": 69,
              "velocity": 30,
              "position": 0.6875,
              "duration": 0.3541666666666667
            },
            {
              "pitch": 62,
              "velocity": 40,
              "position": 2.0104166666666665,
              "duration": 0.9791666666666666
            },
            {
              "pitch": 69,
              "velocity": 40,
              "position": 2.0208333333333335,
              "duration": 0.9791666666666666
            },
            {
              "pitch": 62,
              "velocity": 30,
              "position": 3.6770833333333335,
              "duration": 0.3541666666666667
            },
            {
              "pitch": 69,
              "velocity": 30,
              "position": 3.6875,
              "duration": 0.3541666666666667
            },
            {
              "pitch": 62,
              "velocity": 40,
              "position": 5.010416666666667,
              "duration": 0.9791666666666666
            },
            {
              "pitch": 69,
              "velocity": 40,
              "position": 5.020833333333333,
              "duration": 0.9791666666666666
            },
            {
              "pitch": 62,
              "velocity": 30,
              "position": 6.677083333333333,
              "duration": 0.3541666666666667
            },
            {
              "pitch": 69,
              "velocity": 30,
              "position": 6.6875,
              "duration": 0.3541666666666667
            },
            {
              "pitch": 62,
              "velocity": 40,
              "position": 8.010416666666666,
              "duration": 0.9791666666666666
            },
            {
              "pitch": 69,
              "velocity": 40,
              "position": 8.020833333333334,
              "duration": 0.9791666666666666
            },
            {
              "pitch": 62,
              "velocity": 30,
              "position": 9.677083333333334,
              "duration": 0.3541666666666667
            },
            {
              "pitch": 69,
              "velocity": 30,
              "position": 9.6875,
              "duration": 0.3541666666666667
            },
            {
              "pitch": 62,
              "velocity": 40,
              "position": 11.010416666666666,
              "duration": 0.9791666666666666
            },
            {
              "pitch": 69,
              "velocity": 40,
              "position": 11.020833333333334,
              "duration": 0.9791666666666666
            }
          ]
        },
        "4": {
          "ctab": {
            "srcChannel": 4,
            "name": "pf",
            "accType": "CHORD2",
            "editable": false,
            "mutedNotes": [],
            "mutedChords": [],
            "autoStart": false,
            "sourceChordNote": 0,
            "sourceChordType": "Maj7",
            "ctb2Low": null,
            "ctb2Main": {
              "ntr": "ROOT_TRANSPOSITION",
              "ntt": "CHORD",
              "bassOn": false,
              "chordRootUpperLimit": 11,
              "noteLowLimit": 52,
              "noteHighLimit": 127,
              "rtr": "PITCH_SHIFT"
            },
            "ctb2High": null
          },
          "notes": [
            {
              "pitch": 40,
              "velocity": 60,
              "position": 0,
              "duration": 5.902083333333334
            },
            {
              "pitch": 47,
              "velocity": 60,
              "position": 0,
              "duration": 5.902083333333334
            },
            {
              "pitch": 43,
              "velocity": 60,
              "position": 0,
              "duration": 5.902083333333334
            },
            {
              "pitch": 40,
              "velocity": 60,
              "position": 6,
              "duration": 2.902083333333333
            },
            {
              "pitch": 47,
              "velocity": 60,
              "position": 6,
              "duration": 2.902083333333333
            },
            {
              "pitch": 43,
              "velocity": 60,
              "position": 6,
              "duration": 2.902083333333333
            },
            {
              "pitch": 40,
              "velocity": 55,
              "position": 9,
              "duration": 2.902083333333333
            },
            {
              "pitch": 47,
              "velocity": 55,
              "position": 9,
              "duration": 2.902083333333333
            },
            {
              "pitch": 43,
              "velocity": 55,
              "position": 9,
              "duration": 2.902083333333333
            }
          ]
        },
        "5": {
          "ctab": {
            "srcChannel": 5,
            "name": "pf 1",
            "accType": "CHORD2",
            "editable": false,
            "mutedNotes": [],
            "mutedChords": [
              "1+2+5",
              "sus4",
              "1+5",
              "1+8",
              "7aug",
              "Maj7aug",
              "7(#9)",
              "7(b13)",
              "7(b9)",
              "7(13)",
              "7#11",
              "7(9)",
              "7b5",
              "7sus4",
              "7th",
              "dim",
              "minMaj7(9)",
              "minMaj7",
              "min7(11)",
              "min7(9)",
              "min6",
              "min",
              "aug",
              "Maj6(9)",
              "Maj7(9)",
              "Maj7#11",
              "Maj7",
              "Maj6",
              "Maj"
            ],
            "autoStart": false,
            "sourceChordNote": 0,
            "sourceChordType": "Maj7",
            "ctb2Low": null,
            "ctb2Main": {
              "ntr": "ROOT_TRANSPOSITION",
              "ntt": "MELODY",
              "bassOn": false,
              "chordRootUpperLimit": 8,
              "noteLowLimit": 52,
              "noteHighLimit": 63,
              "rtr": "PITCH_SHIFT"
            },
            "ctb2High": null
          },
          "notes": [
            {
              "pitch": 48,
              "velocity": 60,
              "position": 0,
              "duration": 5.902083333333334
            },
            {
              "pitch": 48,
              "velocity": 60,
              "position": 6,
              "duration": 2.902083333333333
            },
            {
              "pitch": 48,
              "velocity": 55,
              "position": 9,
              "duration": 2.902083333333333
            }
          ]
        },
        "6": {
          "ctab": {
            "srcChannel": 6,
            "name": "pf 5",
            "accType": "CHORD2",
            "editable": false,
            "mutedNotes": [],
            "mutedChords": [
              "1+2+5",
              "sus4",
              "1+5",
              "1+8",
              "7aug",
              "Maj7aug",
              "7(#9)",
              "7(b13)",
              "7(b9)",
              "7(13)",
              "7#11",
              "7b5",
              "7sus4",
              "7th",
              "dim7",
              "dim",
              "minMaj7",
              "min7(11)",
              "min(9)",
              "m7b5",
              "min7",
              "min",
              "aug",
              "Maj(9)",
              "Maj7#11",
              "Maj7",
              "Maj"
            ],
            "autoStart": false,
            "sourceChordNote": 0,
            "sourceChordType": "Maj7",
            "ctb2Low": null,
            "ctb2Main": {
              "ntr": "ROOT_TRANSPOSITION",
              "ntt": "MELODY",
              "bassOn": false,
              "chordRootUpperLimit": 8,
              "noteLowLimit": 52,
              "noteHighLimit": 63,
              "rtr": "PITCH_SHIFT"
            },
            "ctb2High": null
          },
          "notes": [
            {
              "pitch": 43,
              "velocity": 60,
              "position": 0,
              "duration": 5.902083333333334
            },
            {
              "pitch": 43,
              "velocity": 60,
              "position": 6,
              "duration": 2.902083333333333
            },
            {
              "pitch": 43,
              "velocity": 55,
              "position": 9,
              "duration": 2.902083333333333
            }
          ]
        },
        "7": {
          "ctab": {
            "srcChannel": 7,
            "name": "pf 9",
            "accType": "CHORD2",
            "editable": false,
            "mutedNotes": [],
            "mutedChords": [
              "1+2+5",
              "sus4",
              "1+5",
              "1+8",
              "7aug",
              "Maj7aug",
              "7(#9)",
              "7(b9)",
              "7(9)",
              "7b5",
              "7sus4",
              "7th",
              "dim7",
              "dim",
              "minMaj7(9)",
              "minMaj7",
              "min7(9)",
              "min(9)",
              "m7b5",
              "min7",
              "min6",
              "min",
              "aug",
              "Maj6(9)",
              "Maj7(9)",
              "Maj(9)",
              "Maj7#11",
              "Maj7",
              "Maj6",
              "Maj"
            ],
            "autoStart": false,
            "sourceChordNote": 0,
            "sourceChordType": "Maj7",
            "ctb2Low": null,
            "ctb2Main": {
              "ntr": "ROOT_TRANSPOSITION",
              "ntt": "MELODY",
              "bassOn": false,
              "chordRootUpperLimit": 8,
              "noteLowLimit": 56,
              "noteHighLimit": 67,
              "rtr": "PITCH_SHIFT"
            },
            "ctb2High": null
          },
          "notes": [
            {
              "pitch": 62,
              "velocity": 60,
              "position": 0,
              "duration": 5.902083333333334
            },
            {
              "pitch": 62,
              "velocity": 60,
              "position": 6,
              "duration": 2.902083333333333
            },
            {
              "pitch": 62,
              "velocity": 55,
              "position": 9,
              "duration": 2.902083333333333
            }
          ]
        },
        "8": {
          "ctab": {
            "srcChannel": 8,
            "name": "CC Crash",
            "accType": "RHYTHM",
            "editable": true,
            "mutedNotes": [],
            "mutedChords": [
              "1+2+5",
              "sus4",
              "1+5",
              "1+8",
              "7aug",
              "Maj7aug",
              "7(#9)",
              "7(b13)",
              "7(b9)",
              "7(13)",
              "7#11",
              "7(9)",
              "7b5",
              "7sus4",
              "7th",
              "dim7",
              "dim",
              "minMaj7(9)",
              "minMaj7",
              "min7(11)",
              "min7(9)",
              "min(9)",
              "m7b5",
              "min7",
              "min6",
              "min",
              "aug",
              "Maj6(9)",
              "Maj7(9)",
              "Maj(9)",
              "Maj7#11",
              "Maj7",
              "Maj6",
              "Maj"
            ],
            "autoStart": true,
            "sourceChordNote": 0,
            "sourceChordType": "Maj7",
            "ctb2Low": null,
            "ctb2Main": {
              "ntr": "ROOT_FIXED",
              "ntt": "BYPASS",
              "bassOn": false,
              "chordRootUpperLimit": 6,
              "noteLowLimit": 0,
              "noteHighLimit": 127,
              "rtr": "RETRIGGER"
            },
            "ctb2High": null
          },
          "notes": []
        },
        "9": {
          "ctab": {
            "srcChannel": 9,
            "name": "Drs",
            "accType": "RHYTHM",
            "editable": false,
            "mutedNotes": [],
            "mutedChords": [],
            "autoStart": true,
            "sourceChordNote": 0,
            "sourceChordType": "Maj7",
            "ctb2Low": null,
            "ctb2Main": {
              "ntr": "ROOT_FIXED",
              "ntt": "BYPASS",
              "bassOn": false,
              "chordRootUpperLimit": 6,
              "noteLowLimit": 0,
              "noteHighLimit": 127,
              "rtr": "PITCH_SHIFT"
            },
            "ctb2High": null
          },
          "notes": [
            {
              "pitch": 33,
              "velocity": 34,
              "position": 0,
              "duration": 0.010416666666666666
            },
            {
              "pitch": 26,
              "velocity": 47,
              "position": 0,
              "duration": 1
            },
            {
              "pitch": 44,
              "velocity": 20,
              "position": 1,
              "duration": 0.010416666666666666
            },
            {
              "pitch": 25,
              "velocity": 20,
              "position": 1.6666666666666667,
              "duration": 0.010416666666666666
            },
            {
              "pitch": 26,
              "velocity": 47,
              "position": 1,
              "duration": 1
            },
            {
              "pitch": 44,
              "velocity": 32,
              "position": 2,
              "duration": 0.010416666666666666
            },
            {
              "pitch": 28,
              "velocity": 29,
              "position": 2,
              "duration": 1
            },
            {
              "pitch": 33,
              "velocity": 34,
              "position": 3,
              "duration": 0.010416666666666666
            },
            {
              "pitch": 25,
              "velocity": 40,
              "position": 3.6666666666666665,
              "duration": 0.010416666666666666
            },
            {
              "pitch": 26,
              "velocity": 47,
              "position": 3,
              "duration": 1
            },
            {
              "pitch": 44,
              "velocity": 20,
              "position": 4,
              "duration": 0.010416666666666666
            },
            {
              "pitch": 26,
              "velocity": 47,
              "position": 4,
              "duration": 1
            },
            {
              "pitch": 44,
              "velocity": 32,
              "position": 5,
              "duration": 0.010416666666666666
            },
            {
              "pitch": 25,
              "velocity": 20,
              "position": 5.666666666666667,
              "duration": 0.010416666666666666
            },
            {
              "pitch": 28,
              "velocity": 29,
              "position": 5,
              "duration": 1
            },
            {
              "pitch": 33,
              "velocity": 34,
              "position": 6,
              "duration": 0.010416666666666666
            },
            {
              "pitch": 26,
              "velocity": 47,
              "position": 6,
              "duration": 1
            },
            {
              "pitch": 44,
              "velocity": 20,
              "position": 7,
              "duration": 0.010416666666666666
            },
            {
              "pitch": 25,
              "velocity": 20,
              "position": 7.666666666666667,
              "duration": 0.010416666666666666
            },
            {
              "pitch": 26,
              "velocity": 47,
              "position": 7,
              "duration": 1
            },
            {
              "pitch": 44,
              "velocity": 32,
              "position": 8,
              "duration": 0.010416666666666666
            },
            {
              "pitch": 28,
              "velocity": 29,
              "position": 8,
              "duration": 1
            },
            {
              "pitch": 33,
              "velocity": 34,
              "position": 9,
              "duration": 0.010416666666666666
            },
            {
              "pitch": 25,
              "velocity": 40,
              "position": 9.666666666666666,
              "duration": 0.010416666666666666
            },
            {
              "pitch": 26,
              "velocity": 47,
              "position": 9,
              "duration": 1
            },
            {
              "pitch": 44,
              "velocity": 20,
              "position": 10,
              "duration": 0.010416666666666666
            },
            {
              "pitch": 26,
              "velocity": 47,
              "position": 10,
              "duration": 1
            },
            {
              "pitch": 44,
              "velocity": 32,
              "position": 11,
              "duration": 0.010416666666666666
            },
            {
              "pitch": 25,
              "velocity": 20,
              "position": 11.666666666666666,
              "duration": 0.010416666666666666
            },
            {
              "pitch": 28,
              "velocity": 29,
              "position": 11,
              "duration": 1
            }
          ]
        },
        "10": {
          "ctab": {
            "srcChannel": 10,
            "name": "Bass",
            "accType": "BASS",
            "editable": false,
            "mutedNotes": [],
            "mutedChords": [],
            "autoStart": false,
            "sourceChordNote": 0,
            "sourceChordType": "Maj7",
            "ctb2Low": null,
            "ctb2Main": {
              "ntr": "ROOT_TRANSPOSITION",
              "ntt": "MELODY",
              "bassOn": true,
              "chordRootUpperLimit": 8,
              "noteLowLimit": 28,
              "noteHighLimit": 127,
              "rtr": "PITCH_SHIFT_TO_ROOT"
            },
            "ctb2High": null
          },
          "notes": [
            {
              "pitch": 24,
              "velocity": 50,
              "position": 0,
              "duration": 2.65625
            },
            {
              "pitch": 31,
              "velocity": 50,
              "position": 3,
              "duration": 2.65625
            },
            {
              "pitch": 24,
              "velocity": 50,
              "position": 6,
              "duration": 2.65625
            },
            {
              "pitch": 31,
              "velocity": 50,
              "position": 9,
              "duration": 2.65625
            }
          ]
        },
        "12": {
          "ctab": {
            "srcChannel": 12,
            "name": "Str",
            "accType": "PAD",
            "editable": false,
            "mutedNotes": [],
            "mutedChords": [],
            "autoStart": false,
            "sourceChordNote": 0,
            "sourceChordType": "Maj7",
            "ctb2Low": null,
            "ctb2Main": {
              "ntr": "ROOT_FIXED",
              "ntt": "CHORD",
              "bassOn": false,
              "chordRootUpperLimit": 7,
              "noteLowLimit": 0,
              "noteHighLimit": 127,
              "rtr": "PITCH_SHIFT"
            },
            "ctb2High": null
          },
          "notes": [
            {
              "pitch": 55,
              "velocity": 62,
              "position": 0,
              "duration": 11.989583333333334
            },
            {
              "pitch": 64,
              "velocity": 62,
              "position": 0,
              "duration": 11.989583333333334
            },
            {
              "pitch": 59,
              "velocity": 62,
              "position": 0,
              "duration": 11.989583333333334
            }
          ]
        },
        "13": {
          "ctab": {
            "srcChannel": 13,
            "name": "Str Root",
            "accType": "PAD",
            "editable": false,
            "mutedNotes": [],
            "mutedChords": [
              "1+2+5",
              "sus4",
              "1+5",
              "1+8",
              "Maj7aug",
              "dim",
              "minMaj7(9)",
              "minMaj7",
              "min6",
              "min",
              "aug",
              "Maj7(9)",
              "Maj7#11",
              "Maj7",
              "Maj6",
              "Maj"
            ],
            "autoStart": false,
            "sourceChordNote": 0,
            "sourceChordType": "Maj7",
            "ctb2Low": null,
            "ctb2Main": {
              "ntr": "ROOT_TRANSPOSITION",
              "ntt": "CHORD",
              "bassOn": false,
              "chordRootUpperLimit": 6,
              "noteLowLimit": 0,
              "noteHighLimit": 127,
              "rtr": "PITCH_SHIFT_TO_ROOT"
            },
            "ctb2High": null
          },
          "notes": [
            {
              "pitch": 60,
              "velocity": 62,
              "position": 0,
              "duration": 11.989583333333334
            }
          ]
        }
      }
    },
    "Main_B": {
      "type": "Main_B",
      "sizeInBeats": 12,
      "channels": {
        "0": {
          "ctab": {
            "srcChannel": 0,
            "name": "gt 3 & 7",
            "accType": "CHORD1",
            "editable": false,
            "mutedNotes": [],
            "mutedChords": [],
            "autoStart": false,
            "sourceChordNote": 0,
            "sourceChordType": "Maj7",
            "ctb2Low": null,
            "ctb2Main": {
              "ntr": "ROOT_TRANSPOSITION",
              "ntt": "MELODY",
              "bassOn": false,
              "chordRootUpperLimit": 8,
              "noteLowLimit": 54,
              "noteHighLimit": 65,
              "rtr": "PITCH_SHIFT"
            },
            "ctb2High": null
          },
          "notes": [
            {
              "pitch": 59,
              "velocity": 40,
              "position": 0.6770833333333334,
              "duration": 1.3125
            },
            {
              "pitch": 64,
              "velocity": 40,
              "position": 0.6875,
              "duration": 1.3020833333333333
            },
            {
              "pitch": 59,
              "velocity": 35,
              "position": 2.0104166666666665,
              "duration": 0.6458333333333334
            },
            {
              "pitch": 64,
              "velocity": 35,
              "position": 2.0208333333333335,
              "duration": 0.6458333333333334
            },
            {
              "pitch": 59,
              "velocity": 40,
              "position": 3.6770833333333335,
              "duration": 1.3125
            },
            {
              "pitch": 64,
              "velocity": 40,
              "position": 3.6875,
              "duration": 1.3020833333333333
            },
            {
              "pitch": 59,
              "velocity": 35,
              "position": 5.010416666666667,
              "duration": 0.6458333333333334
            },
            {
              "pitch": 64,
              "velocity": 35,
              "position": 5.020833333333333,
              "duration": 0.6458333333333334
            },
            {
              "pitch": 59,
              "velocity": 40,
              "position": 6.677083333333333,
              "duration": 1.3125
            },
            {
              "pitch": 64,
              "velocity": 40,
              "position": 6.6875,
              "duration": 1.3020833333333333
            },
            {
              "pitch": 59,
              "velocity": 35,
              "position": 8.010416666666666,
              "duration": 0.6458333333333334
            },
            {
              "pitch": 64,
              "velocity": 35,
              "position": 8.020833333333334,
              "duration": 0.6458333333333334
            },
            {
              "pitch": 59,
              "velocity": 40,
              "position": 9.677083333333334,
              "duration": 1.3125
            },
            {
              "pitch": 64,
              "velocity": 40,
              "position": 9.6875,
              "duration": 1.3020833333333333
            },
            {
              "pitch": 59,
              "velocity": 35,
              "position": 11.010416666666666,
              "duration": 0.6458333333333334
            },
            {
              "pitch": 64,
              "velocity": 35,
              "position": 11.020833333333334,
              "duration": 0.6458333333333334
            }
          ]
        },
        "1": {
          "ctab": {
            "srcChannel": 1,
            "name": "gt 5",
            "accType": "CHORD1",
            "editable": false,
            "mutedNotes": [],
            "mutedChords": [
              "1+5",
              "1+8",
              "7(#9)",
              "7(b9)",
              "7(13)",
              "7(9)",
              "minMaj7(9)",
              "min7(9)",
              "Maj7(9)"
            ],
            "autoStart": false,
            "sourceChordNote": 0,
            "sourceChordType": "Maj7",
            "ctb2Low": null,
            "ctb2Main": {
              "ntr": "ROOT_TRANSPOSITION",
              "ntt": "CHORD",
              "bassOn": false,
              "chordRootUpperLimit": 8,
              "noteLowLimit": 54,
              "noteHighLimit": 65,
              "rtr": "PITCH_SHIFT"
            },
            "ctb2High": null
          },
          "notes": [
            {
              "pitch": 55,
              "velocity": 40,
              "position": 0.6666666666666666,
              "duration": 1.3229166666666667
            },
            {
              "pitch": 55,
              "velocity": 35,
              "position": 2,
              "duration": 0.6458333333333334
            },
            {
              "pitch": 55,
              "velocity": 40,
              "position": 3.6666666666666665,
              "duration": 1.3229166666666667
            },
            {
              "pitch": 55,
              "velocity": 35,
              "position": 5,
              "duration": 0.6458333333333334
            },
            {
              "pitch": 55,
              "velocity": 40,
              "position": 6.666666666666667,
              "duration": 1.3229166666666667
            },
            {
              "pitch": 55,
              "velocity": 35,
              "position": 8,
              "duration": 0.6458333333333334
            },
            {
              "pitch": 55,
              "velocity": 40,
              "position": 9.666666666666666,
              "duration": 1.3229166666666667
            },
            {
              "pitch": 55,
              "velocity": 35,
              "position": 11,
              "duration": 0.6458333333333334
            }
          ]
        },
        "2": {
          "ctab": {
            "srcChannel": 2,
            "name": "gt 5 & 9",
            "accType": "CHORD1",
            "editable": false,
            "mutedNotes": [],
            "mutedChords": [
              "1+2+5",
              "sus4",
              "1+5",
              "1+8",
              "7aug",
              "Maj7aug",
              "7(b13)",
              "7(13)",
              "7#11",
              "7b5",
              "7sus4",
              "7th",
              "dim7",
              "dim",
              "minMaj7",
              "min7(11)",
              "min(9)",
              "m7b5",
              "min7",
              "min6",
              "min",
              "aug",
              "Maj6(9)",
              "Maj(9)",
              "Maj7#11",
              "Maj7",
              "Maj6",
              "Maj"
            ],
            "autoStart": false,
            "sourceChordNote": 0,
            "sourceChordType": "Maj7",
            "ctb2Low": null,
            "ctb2Main": {
              "ntr": "ROOT_TRANSPOSITION",
              "ntt": "MELODY",
              "bassOn": false,
              "chordRootUpperLimit": 8,
              "noteLowLimit": 62,
              "noteHighLimit": 73,
              "rtr": "PITCH_SHIFT"
            },
            "ctb2High": null
          },
          "notes": [
            {
              "pitch": 67,
              "velocity": 40,
              "position": 0.6770833333333334,
              "duration": 1.3125
            },
            {
              "pitch": 62,
              "velocity": 40,
              "position": 0.6875,
              "duration": 1.3020833333333333
            },
            {
              "pitch": 67,
              "velocity": 35,
              "position": 2.0104166666666665,
              "duration": 0.6458333333333334
            },
            {
              "pitch": 62,
              "velocity": 35,
              "position": 2.0208333333333335,
              "duration": 0.6458333333333334
            },
            {
              "pitch": 67,
              "velocity": 40,
              "position": 3.6770833333333335,
              "duration": 1.3125
            },
            {
              "pitch": 62,
              "velocity": 40,
              "position": 3.6875,
              "duration": 1.3020833333333333
            },
            {
              "pitch": 67,
              "velocity": 35,
              "position": 5.010416666666667,
              "duration": 0.6458333333333334
            },
            {
              "pitch": 62,
              "velocity": 35,
              "position": 5.020833333333333,
              "duration": 0.6458333333333334
            },
            {
              "pitch": 67,
              "velocity": 40,
              "position": 6.677083333333333,
              "duration": 1.3125
            },
            {
              "pitch": 62,
              "velocity": 40,
              "position": 6.6875,
              "duration": 1.3020833333333333
            },
            {
              "pitch": 67,
              "velocity": 35,
              "position": 8.010416666666666,
              "duration": 0.6458333333333334
            },
            {
              "pitch": 62,
              "velocity": 35,
              "position": 8.020833333333334,
              "duration": 0.6458333333333334
            },
            {
              "pitch": 67,
              "velocity": 40,
              "position": 9.677083333333334,
              "duration": 1.3125
            },
            {
              "pitch": 62,
              "velocity": 40,
              "position": 9.6875,
              "duration": 1.3020833333333333
            },
            {
              "pitch": 67,
              "velocity": 35,
              "position": 11.010416666666666,
              "duration": 0.6458333333333334
            },
            {
              "pitch": 62,
              "velocity": 35,
              "position": 11.020833333333334,
              "duration": 0.6458333333333334
            }
          ]
        },
        "3": {
          "ctab": {
            "srcChannel": 3,
            "name": "gt 6 & 9",
            "accType": "CHORD1",
            "editable": false,
            "mutedNotes": [],
            "mutedChords": [
              "1+2+5",
              "sus4",
              "1+5",
              "1+8",
              "7aug",
              "Maj7aug",
              "7(#9)",
              "7(b13)",
              "7(b9)",
              "7#11",
              "7(9)",
              "7b5",
              "7sus4",
              "7th",
              "dim7",
              "dim",
              "minMaj7(9)",
              "minMaj7",
              "min7(11)",
              "min7(9)",
              "min(9)",
              "m7b5",
              "min7",
              "min6",
              "min",
              "aug",
              "Maj6(9)",
              "Maj7(9)",
              "Maj(9)",
              "Maj7#11",
              "Maj7",
              "Maj6",
              "Maj"
            ],
            "autoStart": false,
            "sourceChordNote": 0,
            "sourceChordType": "Maj7",
            "ctb2Low": null,
            "ctb2Main": {
              "ntr": "ROOT_TRANSPOSITION",
              "ntt": "MELODY",
              "bassOn": false,
              "chordRootUpperLimit": 8,
              "noteLowLimit": 62,
              "noteHighLimit": 73,
              "rtr": "PITCH_SHIFT"
            },
            "ctb2High": null
          },
          "notes": [
            {
              "pitch": 62,
              "velocity": 40,
              "position": 0.6770833333333334,
              "duration": 1.3125
            },
            {
              "pitch": 69,
              "velocity": 40,
              "position": 0.6875,
              "duration": 1.3020833333333333
            },
            {
              "pitch": 62,
              "velocity": 35,
              "position": 2.0104166666666665,
              "duration": 0.6458333333333334
            },
            {
              "pitch": 69,
              "velocity": 35,
              "position": 2.0208333333333335,
              "duration": 0.6458333333333334
            },
            {
              "pitch": 62,
              "velocity": 40,
              "position": 3.6770833333333335,
              "duration": 1.3125
            },
            {
              "pitch": 69,
              "velocity": 40,
              "position": 3.6875,
              "duration": 1.3020833333333333
            },
            {
              "pitch": 62,
              "velocity": 35,
              "position": 5.010416666666667,
              "duration": 0.6458333333333334
            },
            {
              "pitch": 69,
              "velocity": 35,
              "position": 5.020833333333333,
              "duration": 0.6458333333333334
            },
            {
              "pitch": 62,
              "velocity": 40,
              "position": 6.677083333333333,
              "duration": 1.3125
            },
            {
              "pitch": 69,
              "velocity": 40,
              "position": 6.6875,
              "duration": 1.3020833333333333
            },
            {
              "pitch": 62,
              "velocity": 35,
              "position": 8.010416666666666,
              "duration": 0.6458333333333334
            },
            {
              "pitch": 69,
              "velocity": 35,
              "position": 8.020833333333334,
              "duration": 0.6458333333333334
            },
            {
              "pitch": 62,
              "velocity": 40,
              "position": 9.677083333333334,
              "duration": 1.3125
            },
            {
              "pitch": 69,
              "velocity": 40,
              "position": 9.6875,
              "duration": 1.3020833333333333
            },
            {
              "pitch": 62,
              "velocity": 35,
              "position": 11.010416666666666,
              "duration": 0.6458333333333334
            },
            {
              "pitch": 69,
              "velocity": 35,
              "position": 11.020833333333334,
              "duration": 0.6458333333333334
            }
          ]
        },
        "4": {
          "ctab": {
            "srcChannel": 4,
            "name": "pf",
            "accType": "CHORD2",
            "editable": false,
            "mutedNotes": [],
            "mutedChords": [],
            "autoStart": false,
            "sourceChordNote": 0,
            "sourceChordType": "Maj7",
            "ctb2Low": null,
            "ctb2Main": {
              "ntr": "ROOT_TRANSPOSITION",
              "ntt": "CHORD",
              "bassOn": false,
              "chordRootUpperLimit": 11,
              "noteLowLimit": 52,
              "noteHighLimit": 127,
              "rtr": "PITCH_SHIFT"
            },
            "ctb2High": null
          },
          "notes": [
            {
              "pitch": 40,
              "velocity": 60,
              "position": 0,
              "duration": 4.597916666666666
            },
            {
              "pitch": 47,
              "velocity": 60,
              "position": 0,
              "duration": 4.597916666666666
            },
            {
              "pitch": 43,
              "velocity": 60,
              "position": 0,
              "duration": 4.597916666666666
            },
            {
              "pitch": 40,
              "velocity": 60,
              "position": 4.666666666666667,
              "duration": 1.2645833333333334
            },
            {
              "pitch": 47,
              "velocity": 60,
              "position": 4.666666666666667,
              "duration": 1.2645833333333334
            },
            {
              "pitch": 43,
              "velocity": 60,
              "position": 4.666666666666667,
              "duration": 1.2645833333333334
            },
            {
              "pitch": 40,
              "velocity": 60,
              "position": 6,
              "duration": 2.93125
            },
            {
              "pitch": 47,
              "velocity": 60,
              "position": 6,
              "duration": 2.93125
            },
            {
              "pitch": 43,
              "velocity": 60,
              "position": 6,
              "duration": 2.93125
            },
            {
              "pitch": 40,
              "velocity": 55,
              "position": 9,
              "duration": 1.5979166666666667
            },
            {
              "pitch": 47,
              "velocity": 55,
              "position": 9,
              "duration": 1.5979166666666667
            },
            {
              "pitch": 43,
              "velocity": 55,
              "position": 9,
              "duration": 1.5979166666666667
            },
            {
              "pitch": 40,
              "velocity": 55,
              "position": 10.666666666666666,
              "duration": 1.2645833333333334
            },
            {
              "pitch": 47,
              "velocity": 55,
              "position": 10.666666666666666,
              "duration": 1.2645833333333334
            },
            {
              "pitch": 43,
              "velocity": 55,
              "position": 10.666666666666666,
              "duration": 1.2645833333333334
            }
          ]
        },
        "5": {
          "ctab": {
            "srcChannel": 5,
            "name": "pf 1",
            "accType": "CHORD2",
            "editable": false,
            "mutedNotes": [],
            "mutedChords": [
              "1+2+5",
              "sus4",
              "1+5",
              "1+8",
              "7aug",
              "Maj7aug",
              "7(#9)",
              "7(b13)",
              "7(b9)",
              "7(13)",
              "7#11",
              "7(9)",
              "7b5",
              "7sus4",
              "7th",
              "dim",
              "minMaj7(9)",
              "minMaj7",
              "min7(11)",
              "min7(9)",
              "min6",
              "min",
              "aug",
              "Maj6(9)",
              "Maj7(9)",
              "Maj7#11",
              "Maj7",
              "Maj6",
              "Maj"
            ],
            "autoStart": false,
            "sourceChordNote": 0,
            "sourceChordType": "Maj7",
            "ctb2Low": null,
            "ctb2Main": {
              "ntr": "ROOT_TRANSPOSITION",
              "ntt": "MELODY",
              "bassOn": false,
              "chordRootUpperLimit": 8,
              "noteLowLimit": 52,
              "noteHighLimit": 63,
              "rtr": "PITCH_SHIFT"
            },
            "ctb2High": null
          },
          "notes": [
            {
              "pitch": 48,
              "velocity": 60,
              "position": 0,
              "duration": 4.597916666666666
            },
            {
              "pitch": 48,
              "velocity": 60,
              "position": 4.666666666666667,
              "duration": 1.2645833333333334
            },
            {
              "pitch": 48,
              "velocity": 60,
              "position": 6,
              "duration": 2.93125
            },
            {
              "pitch": 48,
              "velocity": 55,
              "position": 9,
              "duration": 1.5979166666666667
            },
            {
              "pitch": 48,
              "velocity": 55,
              "position": 10.666666666666666,
              "duration": 1.2645833333333334
            }
          ]
        },
        "6": {
          "ctab": {
            "srcChannel": 6,
            "name": "pf 5",
            "accType": "CHORD2",
            "editable": false,
            "mutedNotes": [],
            "mutedChords": [
              "1+2+5",
              "sus4",
              "1+5",
              "1+8",
              "7aug",
              "Maj7aug",
              "7(#9)",
              "7(b13)",
              "7(b9)",
              "7(13)",
              "7#11",
              "7b5",
              "7sus4",
              "7th",
              "dim7",
              "dim",
              "minMaj7",
              "min7(11)",
              "min(9)",
              "m7b5",
              "min7",
              "min",
              "aug",
              "Maj(9)",
              "Maj7#11",
              "Maj7",
              "Maj"
            ],
            "autoStart": false,
            "sourceChordNote": 0,
            "sourceChordType": "Maj7",
            "ctb2Low": null,
            "ctb2Main": {
              "ntr": "ROOT_TRANSPOSITION",
              "ntt": "MELODY",
              "bassOn": false,
              "chordRootUpperLimit": 8,
              "noteLowLimit": 52,
              "noteHighLimit": 63,
              "rtr": "PITCH_SHIFT"
            },
            "ctb2High": null
          },
          "notes": [
            {
              "pitch": 43,
              "velocity": 60,
              "position": 0,
              "duration": 4.597916666666666
            },
            {
              "pitch": 43,
              "velocity": 60,
              "position": 4.666666666666667,
              "duration": 1.2645833333333334
            },
            {
              "pitch": 43,
              "velocity": 60,
              "position": 6,
              "duration": 2.93125
            },
            {
              "pitch": 43,
              "velocity": 55,
              "position": 9,
              "duration": 1.5979166666666667
            },
            {
              "pitch": 43,
              "velocity": 55,
              "position": 10.666666666666666,
              "duration": 1.2645833333333334
            }
          ]
        },
        "7": {
          "ctab": {
            "srcChannel": 7,
            "name": "pf 9",
            "accType": "CHORD2",
            "editable": false,
            "mutedNotes": [],
            "mutedChords": [
              "1+2+5",
              "sus4",
              "1+5",
              "1+8",
              "7aug",
              "Maj7aug",
              "7(#9)",
              "7(b9)",
              "7(9)",
              "7b5",
              "7sus4",
              "7th",
              "dim7",
              "dim",
              "minMaj7(9)",
              "minMaj7",
              "min7(9)",
              "min(9)",
              "m7b5",
              "min7",
              "min6",
              "min",
              "aug",
              "Maj6(9)",
              "Maj7(9)",
              "Maj(9)",
              "Maj7#11",
              "Maj7",
              "Maj6",
              "Maj"
            ],
            "autoStart": false,
            "sourceChordNote": 0,
            "sourceChordType": "Maj7",
            "ctb2Low": null,
            "ctb2Main": {
              "ntr": "ROOT_TRANSPOSITION",
              "ntt": "MELODY",
              "bassOn": false,
              "chordRootUpperLimit": 8,
              "noteLowLimit": 56,
              "noteHighLimit": 67,
              "rtr": "PITCH_SHIFT"
            },
            "ctb2High": null
          },
          "notes": [
            {
              "pitch": 62,
              "velocity": 60,
              "position": 0,
              "duration": 4.597916666666666
            },
            {
              "pitch": 62,
              "velocity": 60,
              "position": 4.666666666666667,
              "duration": 1.2645833333333334
            },
            {
              "pitch": 62,
              "velocity": 60,
              "position": 6,
              "duration": 2.93125
            },
            {
              "pitch": 62,
              "velocity": 55,
              "position": 9,
              "duration": 1.5979166666666667
            },
            {
              "pitch": 62,
              "velocity": 55,
              "position": 10.666666666666666,
              "duration": 1.2645833333333334
            }
          ]
        },
        "8": {
          "ctab": {
            "srcChannel": 8,
            "name": "CC Crash",
            "accType": "RHYTHM",
            "editable": true,
            "mutedNotes": [],
            "mutedChords": [
              "1+2+5",
              "sus4",
              "1+5",
              "1+8",
              "7aug",
              "Maj7aug",
              "7(#9)",
              "7(b13)",
              "7(b9)",
              "7(13)",
              "7#11",
              "7(9)",
              "7b5",
              "7sus4",
              "7th",
              "dim7",
              "dim",
              "minMaj7(9)",
              "minMaj7",
              "min7(11)",
              "min7(9)",
              "min(9)",
              "m7b5",
              "min7",
              "min6",
              "min",
              "aug",
              "Maj6(9)",
              "Maj7(9)",
              "Maj(9)",
              "Maj7#11",
              "Maj7",
              "Maj6",
              "Maj"
            ],
            "autoStart": true,
            "sourceChordNote": 0,
            "sourceChordType": "Maj7",
            "ctb2Low": null,
            "ctb2Main": {
              "ntr": "ROOT_FIXED",
              "ntt": "BYPASS",
              "bassOn": false,
              "chordRootUpperLimit": 6,
              "noteLowLimit": 0,
              "noteHighLimit": 127,
              "rtr": "RETRIGGER"
            },
            "ctb2High": null
          },
          "notes": []
        },
        "9": {
          "ctab": {
            "srcChannel": 9,
            "name": "Drs",
            "accType": "RHYTHM",
            "editable": false,
            "mutedNotes": [],
            "mutedChords": [],
            "autoStart": true,
            "sourceChordNote": 0,
            "sourceChordType": "Maj7",
            "ctb2Low": null,
            "ctb2Main": {
              "ntr": "ROOT_FIXED",
              "ntt": "BYPASS",
              "bassOn": false,
              "chordRootUpperLimit": 6,
              "noteLowLimit": 0,
              "noteHighLimit": 127,
              "rtr": "PITCH_SHIFT"
            },
            "ctb2High": null
          },
          "notes": [
            {
              "pitch": 33,
              "velocity": 34,
              "position": 0,
              "duration": 0.010416666666666666
            },
            {
              "pitch": 25,
              "velocity": 50,
              "position": 0.6666666666666666,
              "duration": 0.010416666666666666
            },
            {
              "pitch": 26,
              "velocity": 47,
              "position": 0,
              "duration": 1
            },
            {
              "pitch": 44,
              "velocity": 26,
              "position": 1,
              "duration": 0.010416666666666666
            },
            {
              "pitch": 25,
              "velocity": 20,
              "position": 1.6666666666666667,
              "duration": 0.010416666666666666
            },
            {
              "pitch": 26,
              "velocity": 27,
              "position": 1,
              "duration": 1
            },
            {
              "pitch": 44,
              "velocity": 33,
              "position": 2,
              "duration": 0.010416666666666666
            },
            {
              "pitch": 28,
              "velocity": 29,
              "position": 2,
              "duration": 1
            },
            {
              "pitch": 33,
              "velocity": 34,
              "position": 3,
              "duration": 0.010416666666666666
            },
            {
              "pitch": 25,
              "velocity": 50,
              "position": 3.6666666666666665,
              "duration": 0.010416666666666666
            },
            {
              "pitch": 26,
              "velocity": 47,
              "position": 3,
              "duration": 1
            },
            {
              "pitch": 44,
              "velocity": 26,
              "position": 4,
              "duration": 0.010416666666666666
            },
            {
              "pitch": 25,
              "velocity": 20,
              "position": 4.666666666666667,
              "duration": 0.010416666666666666
            },
            {
              "pitch": 26,
              "velocity": 27,
              "position": 4,
              "duration": 1
            },
            {
              "pitch": 44,
              "velocity": 33,
              "position": 5,
              "duration": 0.010416666666666666
            },
            {
              "pitch": 25,
              "velocity": 20,
              "position": 5.666666666666667,
              "duration": 0.010416666666666666
            },
            {
              "pitch": 28,
              "velocity": 29,
              "position": 5,
              "duration": 1
            },
            {
              "pitch": 33,
              "velocity": 34,
              "position": 6,
              "duration": 0.010416666666666666
            },
            {
              "pitch": 25,
              "velocity": 50,
              "position": 6.666666666666667,
              "duration": 0.010416666666666666
            },
            {
              "pitch": 26,
              "velocity": 47,
              "position": 6,
              "duration": 1
            },
            {
              "pitch": 44,
              "velocity": 26,
              "position": 7,
              "duration": 0.010416666666666666
            },
            {
              "pitch": 26,
              "velocity": 27,
              "position": 7,
              "duration": 1
            },
            {
              "pitch": 44,
              "velocity": 33,
              "position": 8,
              "duration": 0.010416666666666666
            },
            {
              "pitch": 28,
              "velocity": 29,
              "position": 8,
              "duration": 1
            },
            {
              "pitch": 33,
              "velocity": 34,
              "position": 9,
              "duration": 0.010416666666666666
            },
            {
              "pitch": 25,
              "velocity": 50,
              "position": 9.666666666666666,
              "duration": 0.010416666666666666
            },
            {
              "pitch": 26,
              "velocity": 47,
              "position": 9,
              "duration": 1
            },
            {
              "pitch": 44,
              "velocity": 26,
              "position": 10,
              "duration": 0.010416666666666666
            },
            {
              "pitch": 25,
              "velocity": 20,
              "position": 10.666666666666666,
              "duration": 0.010416666666666666
            },
            {
              "pitch": 26,
              "velocity": 27,
              "position": 10,
              "duration": 1
            },
            {
              "pitch": 44,
              "velocity": 33,
              "position": 11,
              "duration": 0.010416666666666666
            },
            {
              "pitch": 25,
              "velocity": 20,
              "position": 11.666666666666666,
              "duration": 0.010416666666666666
            },
            {
              "pitch": 28,
              "velocity": 29,
              "position": 11,
              "duration": 1
            }
          ]
        },
        "10": {
          "ctab": {
            "srcChannel": 10,
            "name": "Bass",
            "accType": "BASS",
            "editable": false,
            "mutedNotes": [],
            "mutedChords": [],
            "autoStart": false,
            "sourceChordNote": 0,
            "sourceChordType": "Maj7",
            "ctb2Low": null,
            "ctb2Main": {
              "ntr": "ROOT_TRANSPOSITION",
              "ntt": "MELODY",
              "bassOn": true,
              "chordRootUpperLimit": 8,
              "noteLowLimit": 28,
              "noteHighLimit": 127,
              "rtr": "PITCH_SHIFT_TO_ROOT"
            },
            "ctb2High": null
          },
          "notes": [
            {
              "pitch": 24,
              "velocity": 50,
              "position": 0,
              "duration": 2.65625
            },
            {
              "pitch": 24,
              "velocity": 100,
              "position": 2.6666666666666665,
              "duration": 0.3229166666666667
            },
            {
              "pitch": 31,
              "velocity": 50,
              "position": 3,
              "duration": 2.65625
            },
            {
              "pitch": 31,
              "velocity": 100,
              "position": 5.666666666666667,
              "duration": 0.3229166666666667
            },
            {
              "pitch": 36,
              "velocity": 50,
              "position": 6,
              "duration": 2.65625
            },
            {
              "pitch": 36,
              "velocity": 100,
              "position": 8.666666666666666,
              "duration": 0.3229166666666667
            },
            {
              "pitch": 31,
              "velocity": 50,
              "position": 9,
              "duration": 1.65625
            },
            {
              "pitch": 31,
              "velocity": 100,
              "position": 10.666666666666666,
              "duration": 0.3229166666666667
            },
            {
              "pitch": 28,
              "velocity": 40,
              "position": 11,
              "duration": 0.9895833333333334
            }
          ]
        },
        "12": {
          "ctab": {
            "srcChannel": 12,
            "name": "Str",
            "accType": "PAD",
            "editable": false,
            "mutedNotes": [],
            "mutedChords": [],
            "autoStart": false,
            "sourceChordNote": 0,
            "sourceChordType": "Maj7",
            "ctb2Low": null,
            "ctb2Main": {
              "ntr": "ROOT_FIXED",
              "ntt": "CHORD",
              "bassOn": false,
              "chordRootUpperLimit": 7,
              "noteLowLimit": 0,
              "noteHighLimit": 127,
              "rtr": "PITCH_SHIFT"
            },
            "ctb2High": null
          },
          "notes": [
            {
              "pitch": 55,
              "velocity": 62,
              "position": 0,
              "duration": 11.989583333333334
            },
            {
              "pitch": 64,
              "velocity": 62,
              "position": 0,
              "duration": 11.989583333333334
            },
            {
              "pitch": 59,
              "velocity": 62,
              "position": 0,
              "duration": 11.989583333333334
            }
          ]
        },
        "13": {
          "ctab": {
            "srcChannel": 13,
            "name": "Str Root",
            "accType": "PAD",
            "editable": false,
            "mutedNotes": [],
            "mutedChords": [
              "1+2+5",
              "sus4",
              "1+5",
              "1+8",
              "Maj7aug",
              "dim",
              "minMaj7(9)",
              "minMaj7",
              "min6",
              "min",
              "aug",
              "Maj7(9)",
              "Maj7#11",
              "Maj7",
              "Maj6",
              "Maj"
            ],
            "autoStart": false,
            "sourceChordNote": 0,
            "sourceChordType": "Maj7",
            "ctb2Low": null,
            "ctb2Main": {
              "ntr": "ROOT_TRANSPOSITION",
              "ntt": "CHORD",
              "bassOn": false,
              "chordRootUpperLimit": 6,
              "noteLowLimit": 0,
              "noteHighLimit": 127,
              "rtr": "PITCH_SHIFT_TO_ROOT"
            },
            "ctb2High": null
          },
          "notes": [
            {
              "pitch": 60,
              "velocity": 62,
              "position": 0,
              "duration": 11.989583333333334
            }
          ]
        }
      }
    },
    "Main_C": {
      "type": "Main_C",
      "sizeInBeats": 12,
      "channels": {
        "0": {
          "ctab": {
            "srcChannel": 0,
            "name": "gt 3 & 7",
            "accType": "CHORD1",
            "editable": false,
            "mutedNotes": [],
            "mutedChords": [],
            "autoStart": false,
            "sourceChordNote": 0,
            "sourceChordType": "Maj7",
            "ctb2Low": null,
            "ctb2Main": {
              "ntr": "ROOT_TRANSPOSITION",
              "ntt": "MELODY",
              "bassOn": false,
              "chordRootUpperLimit": 8,
              "noteLowLimit": 54,
              "noteHighLimit": 65,
              "rtr": "PITCH_SHIFT"
            },
            "ctb2High": null
          },
          "notes": [
            {
              "pitch": 59,
              "velocity": 40,
              "position": 0.010416666666666666,
              "duration": 1.3125
            },
            {
              "pitch": 64,
              "velocity": 40,
              "position": 0.020833333333333332,
              "duration": 1.3020833333333333
            },
            {
              "pitch": 59,
              "velocity": 35,
              "position": 1.6770833333333333,
              "duration": 0.9791666666666666
            },
            {
              "pitch": 64,
              "velocity": 35,
              "position": 1.6875,
              "duration": 0.9791666666666666
            },
            {
              "pitch": 59,
              "velocity": 40,
              "position": 3.0104166666666665,
              "duration": 2.6458333333333335
            },
            {
              "pitch": 64,
              "velocity": 40,
              "position": 3.0208333333333335,
              "duration": 2.6354166666666665
            },
            {
              "pitch": 59,
              "velocity": 40,
              "position": 6.010416666666667,
              "duration": 1.3125
            },
            {
              "pitch": 64,
              "velocity": 40,
              "position": 6.020833333333333,
              "duration": 1.3020833333333333
            },
            {
              "pitch": 59,
              "velocity": 35,
              "position": 7.677083333333333,
              "duration": 0.9791666666666666
            },
            {
              "pitch": 64,
              "velocity": 35,
              "position": 7.6875,
              "duration": 0.9791666666666666
            },
            {
              "pitch": 59,
              "velocity": 40,
              "position": 9.010416666666666,
              "duration": 1.3125
            },
            {
              "pitch": 64,
              "velocity": 40,
              "position": 9.020833333333334,
              "duration": 1.3020833333333333
            },
            {
              "pitch": 59,
              "velocity": 35,
              "position": 10.677083333333334,
              "duration": 0.9791666666666666
            },
            {
              "pitch": 64,
              "velocity": 35,
              "position": 10.6875,
              "duration": 0.9791666666666666
            }
          ]
        },
        "1": {
          "ctab": {
            "srcChannel": 1,
            "name": "gt 5",
            "accType": "CHORD1",
            "editable": false,
            "mutedNotes": [],
            "mutedChords": [
              "1+5",
              "1+8",
              "7(#9)",
              "7(b9)",
              "7(13)",
              "7(9)",
              "minMaj7(9)",
              "min7(9)",
              "Maj7(9)"
            ],
            "autoStart": false,
            "sourceChordNote": 0,
            "sourceChordType": "Maj7",
            "ctb2Low": null,
            "ctb2Main": {
              "ntr": "ROOT_TRANSPOSITION",
              "ntt": "CHORD",
              "bassOn": false,
              "chordRootUpperLimit": 8,
              "noteLowLimit": 54,
              "noteHighLimit": 65,
              "rtr": "PITCH_SHIFT"
            },
            "ctb2High": null
          },
          "notes": [
            {
              "pitch": 55,
              "velocity": 40,
              "position": 0,
              "duration": 1.3229166666666667
            },
            {
              "pitch": 55,
              "velocity": 35,
              "position": 1.6666666666666667,
              "duration": 0.9791666666666666
            },
            {
              "pitch": 55,
              "velocity": 40,
              "position": 3,
              "duration": 2.65625
            },
            {
              "pitch": 55,
              "velocity": 40,
              "position": 6,
              "duration": 1.3229166666666667
            },
            {
              "pitch": 55,
              "velocity": 35,
              "position": 7.666666666666667,
              "duration": 0.9791666666666666
            },
            {
              "pitch": 55,
              "velocity": 40,
              "position": 9,
              "duration": 1.3229166666666667
            },
            {
              "pitch": 55,
              "velocity": 35,
              "position": 10.666666666666666,
              "duration": 0.9791666666666666
            }
          ]
        },
        "2": {
          "ctab": {
            "srcChannel": 2,
            "name": "gt 5 & 9",
            "accType": "CHORD1",
            "editable": false,
            "mutedNotes": [],
            "mutedChords": [
              "1+2+5",
              "sus4",
              "1+5",
              "1+8",
              "7aug",
              "Maj7aug",
              "7(b13)",
              "7(13)",
              "7#11",
              "7b5",
              "7sus4",
              "7th",
              "dim7",
              "dim",
              "minMaj7",
              "min7(11)",
              "min(9)",
              "m7b5",
              "min7",
              "min6",
              "min",
              "aug",
              "Maj6(9)",
              "Maj(9)",
              "Maj7#11",
              "Maj7",
              "Maj6",
              "Maj"
            ],
            "autoStart": false,
            "sourceChordNote": 0,
            "sourceChordType": "Maj7",
            "ctb2Low": null,
            "ctb2Main": {
              "ntr": "ROOT_TRANSPOSITION",
              "ntt": "MELODY",
              "bassOn": false,
              "chordRootUpperLimit": 8,
              "noteLowLimit": 62,
              "noteHighLimit": 73,
              "rtr": "PITCH_SHIFT"
            },
            "ctb2High": null
          },
          "notes": [
            {
              "pitch": 67,
              "velocity": 40,
              "position": 0.010416666666666666,
              "duration": 1.3125
            },
            {
              "pitch": 62,
              "velocity": 40,
              "position": 0.020833333333333332,
              "duration": 1.3020833333333333
            },
            {
              "pitch": 67,
              "velocity": 35,
              "position": 1.6770833333333333,
              "duration": 0.9791666666666666
            },
            {
              "pitch": 62,
              "velocity": 35,
              "position": 1.6875,
              "duration": 0.9791666666666666
            },
            {
              "pitch": 67,
              "velocity": 40,
              "position": 3.0104166666666665,
              "duration": 2.6458333333333335
            },
            {
              "pitch": 62,
              "velocity": 40,
              "position": 3.0208333333333335,
              "duration": 2.6354166666666665
            },
            {
              "pitch": 67,
              "velocity": 40,
              "position": 6.010416666666667,
              "duration": 1.3125
            },
            {
              "pitch": 62,
              "velocity": 40,
              "position": 6.020833333333333,
              "duration": 1.3020833333333333
            },
            {
              "pitch": 67,
              "velocity": 35,
              "position": 7.677083333333333,
              "duration": 0.9791666666666666
            },
            {
              "pitch": 62,
              "velocity": 35,
              "position": 7.6875,
              "duration": 0.9791666666666666
            },
            {
              "pitch": 67,
              "velocity": 40,
              "position": 9.010416666666666,
              "duration": 1.3125
            },
            {
              "pitch": 62,
              "velocity": 40,
              "position": 9.020833333333334,
              "duration": 1.3020833333333333
            },
            {
              "pitch": 67,
              "velocity": 35,
              "position": 10.677083333333334,
              "duration": 0.9791666666666666
            },
            {
              "pitch": 62,
              "velocity": 35,
              "position": 10.6875,
              "duration": 0.9791666666666666
            }
          ]
        },
        "3": {
          "ctab": {
            "srcChannel": 3,
            "name": "gt 6 & 9",
            "accType": "CHORD1",
            "editable": false,
            "mutedNotes": [],
            "mutedChords": [
              "1+2+5",
              "sus4",
              "1+5",
              "1+8",
              "7aug",
              "Maj7aug",
              "7(#9)",
              "7(b13)",
              "7(b9)",
              "7#11",
              "7(9)",
              "7b5",
              "7sus4",
              "7th",
              "dim7",
              "dim",
              "minMaj7(9)",
              "minMaj7",
              "min7(11)",
              "min7(9)",
              "min(9)",
              "m7b5",
              "min7",
              "min6",
              "min",
              "aug",
              "Maj6(9)",
              "Maj7(9)",
              "Maj(9)",
              "Maj7#11",
              "Maj7",
              "Maj6",
              "Maj"
            ],
            "autoStart": false,
            "sourceChordNote": 0,
            "sourceChordType": "Maj7",
            "ctb2Low": null,
            "ctb2Main": {
              "ntr": "ROOT_TRANSPOSITION",
              "ntt": "MELODY",
              "bassOn": false,
              "chordRootUpperLimit": 8,
              "noteLowLimit": 62,
              "noteHighLimit": 73,
              "rtr": "PITCH_SHIFT"
            },
            "ctb2High": null
          },
          "notes": [
            {
              "pitch": 62,
              "velocity": 40,
              "position": 0.010416666666666666,
              "duration": 1.3125
            },
            {
              "pitch": 69,
              "velocity": 40,
              "position": 0.020833333333333332,
              "duration": 1.3020833333333333
            },
            {
              "pitch": 62,
              "velocity": 35,
              "position": 1.6770833333333333,
              "duration": 0.9791666666666666
            },
            {
              "pitch": 69,
              "velocity": 35,
              "position": 1.6875,
              "duration": 0.9791666666666666
            },
            {
              "pitch": 62,
              "velocity": 40,
              "position": 3.0104166666666665,
              "duration": 2.6458333333333335
            },
            {
              "pitch": 69,
              "velocity": 40,
              "position": 3.0208333333333335,
              "duration": 2.6354166666666665
            },
            {
              "pitch": 62,
              "velocity": 40,
              "position": 6.010416666666667,
              "duration": 1.3125
            },
            {
              "pitch": 69,
              "velocity": 40,
              "position": 6.020833333333333,
              "duration": 1.3020833333333333
            },
            {
              "pitch": 62,
              "velocity": 35,
              "position": 7.677083333333333,
              "duration": 0.9791666666666666
            },
            {
              "pitch": 69,
              "velocity": 35,
              "position": 7.6875,
              "duration": 0.9791666666666666
            },
            {
              "pitch": 62,
              "velocity": 40,
              "position": 9.010416666666666,
              "duration": 1.3125
            },
            {
              "pitch": 69,
              "velocity": 40,
              "position": 9.020833333333334,
              "duration": 1.3020833333333333
            },
            {
              "pitch": 62,
              "velocity": 35,
              "position": 10.677083333333334,
              "duration": 0.9791666666666666
            },
            {
              "pitch": 69,
              "velocity": 35,
              "position": 10.6875,
              "duration": 0.9791666666666666
            }
          ]
        },
        "4": {
          "ctab": {
            "srcChannel": 4,
            "name": "pf",
            "accType": "CHORD2",
            "editable": false,
            "mutedNotes": [],
            "mutedChords": [],
            "autoStart": false,
            "sourceChordNote": 0,
            "sourceChordType": "Maj7",
            "ctb2Low": null,
            "ctb2Main": {
              "ntr": "ROOT_TRANSPOSITION",
              "ntt": "CHORD",
              "bassOn": false,
              "chordRootUpperLimit": 11,
              "noteLowLimit": 52,
              "noteHighLimit": 127,
              "rtr": "PITCH_SHIFT"
            },
            "ctb2High": null
          },
          "notes": [
            {
              "pitch": 40,
              "velocity": 55,
              "position": 0.6666666666666666,
              "duration": 0.26458333333333334
            },
            {
              "pitch": 47,
              "velocity": 55,
              "position": 0.6666666666666666,
              "duration": 0.26458333333333334
            },
            {
              "pitch": 43,
              "velocity": 55,
              "position": 0.6666666666666666,
              "duration": 0.26458333333333334
            },
            {
              "pitch": 40,
              "velocity": 60,
              "position": 2,
              "duration": 0.93125
            },
            {
              "pitch": 47,
              "velocity": 60,
              "position": 2,
              "duration": 0.93125
            },
            {
              "pitch": 43,
              "velocity": 60,
              "position": 2,
              "duration": 0.93125
            },
            {
              "pitch": 40,
              "velocity": 55,
              "position": 3.6666666666666665,
              "duration": 0.26458333333333334
            },
            {
              "pitch": 47,
              "velocity": 55,
              "position": 3.6666666666666665,
              "duration": 0.26458333333333334
            },
            {
              "pitch": 43,
              "velocity": 55,
              "position": 3.6666666666666665,
              "duration": 0.26458333333333334
            },
            {
              "pitch": 40,
              "velocity": 60,
              "position": 5,
              "duration": 0.93125
            },
            {
              "pitch": 47,
              "velocity": 60,
              "position": 5,
              "duration": 0.93125
            },
            {
              "pitch": 43,
              "velocity": 60,
              "position": 5,
              "duration": 0.93125
            },
            {
              "pitch": 40,
              "velocity": 55,
              "position": 6.666666666666667,
              "duration": 0.26458333333333334
            },
            {
              "pitch": 47,
              "velocity": 55,
              "position": 6.666666666666667,
              "duration": 0.26458333333333334
            },
            {
              "pitch": 43,
              "velocity": 55,
              "position": 6.666666666666667,
              "duration": 0.26458333333333334
            },
            {
              "pitch": 40,
              "velocity": 60,
              "position": 8,
              "duration": 0.93125
            },
            {
              "pitch": 47,
              "velocity": 60,
              "position": 8,
              "duration": 0.93125
            },
            {
              "pitch": 43,
              "velocity": 60,
              "position": 8,
              "duration": 0.93125
            },
            {
              "pitch": 40,
              "velocity": 55,
              "position": 9.666666666666666,
              "duration": 0.26458333333333334
            },
            {
              "pitch": 47,
              "velocity": 55,
              "position": 9.666666666666666,
              "duration": 0.26458333333333334
            },
            {
              "pitch": 43,
              "velocity": 55,
              "position": 9.666666666666666,
              "duration": 0.26458333333333334
            },
            {
              "pitch": 40,
              "velocity": 60,
              "position": 11,
              "duration": 0.93125
            },
            {
              "pitch": 47,
              "velocity": 60,
              "position": 11,
              "duration": 0.93125
            },
            {
              "pitch": 43,
              "velocity": 60,
              "position": 11,
              "duration": 0.93125
            }
          ]
        },
        "5": {
          "ctab": {
            "srcChannel": 5,
            "name": "pf 1",
            "accType": "CHORD2",
            "editable": false,
            "mutedNotes": [],
            "mutedChords": [
              "1+2+5",
              "sus4",
              "1+5",
              "1+8",
              "7aug",
              "Maj7aug",
              "7(#9)",
              "7(b13)",
              "7(b9)",
              "7(13)",
              "7#11",
              "7(9)",
              "7b5",
              "7sus4",
              "7th",
              "dim",
              "minMaj7(9)",
              "minMaj7",
              "min7(11)",
              "min7(9)",
              "min6",
              "min",
              "aug",
              "Maj6(9)",
              "Maj7(9)",
              "Maj7#11",
              "Maj7",
              "Maj6",
              "Maj"
            ],
            "autoStart": false,
            "sourceChordNote": 0,
            "sourceChordType": "Maj7",
            "ctb2Low": null,
            "ctb2Main": {
              "ntr": "ROOT_TRANSPOSITION",
              "ntt": "MELODY",
              "bassOn": false,
              "chordRootUpperLimit": 8,
              "noteLowLimit": 52,
              "noteHighLimit": 63,
              "rtr": "PITCH_SHIFT"
            },
            "ctb2High": null
          },
          "notes": [
            {
              "pitch": 48,
              "velocity": 55,
              "position": 0.6666666666666666,
              "duration": 0.26458333333333334
            },
            {
              "pitch": 48,
              "velocity": 60,
              "position": 2,
              "duration": 0.93125
            },
            {
              "pitch": 48,
              "velocity": 55,
              "position": 3.6666666666666665,
              "duration": 0.26458333333333334
            },
            {
              "pitch": 48,
              "velocity": 60,
              "position": 5,
              "duration": 0.93125
            },
            {
              "pitch": 48,
              "velocity": 55,
              "position": 6.666666666666667,
              "duration": 0.26458333333333334
            },
            {
              "pitch": 48,
              "velocity": 60,
              "position": 8,
              "duration": 0.93125
            },
            {
              "pitch": 48,
              "velocity": 55,
              "position": 9.666666666666666,
              "duration": 0.26458333333333334
            },
            {
              "pitch": 48,
              "velocity": 60,
              "position": 11,
              "duration": 0.93125
            }
          ]
        },
        "6": {
          "ctab": {
            "srcChannel": 6,
            "name": "pf 5",
            "accType": "CHORD2",
            "editable": false,
            "mutedNotes": [],
            "mutedChords": [
              "1+2+5",
              "sus4",
              "1+5",
              "1+8",
              "7aug",
              "Maj7aug",
              "7(#9)",
              "7(b13)",
              "7(b9)",
              "7(13)",
              "7#11",
              "7b5",
              "7sus4",
              "7th",
              "dim7",
              "dim",
              "minMaj7",
              "min7(11)",
              "min(9)",
              "m7b5",
              "min7",
              "min",
              "aug",
              "Maj(9)",
              "Maj7#11",
              "Maj7",
              "Maj"
            ],
            "autoStart": false,
            "sourceChordNote": 0,
            "sourceChordType": "Maj7",
            "ctb2Low": null,
            "ctb2Main": {
              "ntr": "ROOT_TRANSPOSITION",
              "ntt": "MELODY",
              "bassOn": false,
              "chordRootUpperLimit": 8,
              "noteLowLimit": 52,
              "noteHighLimit": 63,
              "rtr": "PITCH_SHIFT"
            },
            "ctb2High": null
          },
          "notes": [
            {
              "pitch": 43,
              "velocity": 55,
              "position": 0.6666666666666666,
              "duration": 0.26458333333333334
            },
            {
              "pitch": 43,
              "velocity": 60,
              "position": 2,
              "duration": 0.93125
            },
            {
              "pitch": 43,
              "velocity": 55,
              "position": 3.6666666666666665,
              "duration": 0.26458333333333334
            },
            {
              "pitch": 43,
              "velocity": 60,
              "position": 5,
              "duration": 0.93125
            },
            {
              "pitch": 43,
              "velocity": 55,
              "position": 6.666666666666667,
              "duration": 0.26458333333333334
            },
            {
              "pitch": 43,
              "velocity": 60,
              "position": 8,
              "duration": 0.93125
            },
            {
              "pitch": 43,
              "velocity": 55,
              "position": 9.666666666666666,
              "duration": 0.26458333333333334
            },
            {
              "pitch": 43,
              "velocity": 60,
              "position": 11,
              "duration": 0.93125
            }
          ]
        },
        "7": {
          "ctab": {
            "srcChannel": 7,
            "name": "pf 9",
            "accType": "CHORD2",
            "editable": false,
            "mutedNotes": [],
            "mutedChords": [
              "1+2+5",
              "sus4",
              "1+5",
              "1+8",
              "7aug",
              "Maj7aug",
              "7(#9)",
              "7(b9)",
              "7(9)",
              "7b5",
              "7sus4",
              "7th",
              "dim7",
              "dim",
              "minMaj7(9)",
              "minMaj7",
              "min7(9)",
              "min(9)",
              "m7b5",
              "min7",
              "min6",
              "min",
              "aug",
              "Maj6(9)",
              "Maj7(9)",
              "Maj(9)",
              "Maj7#11",
              "Maj7",
              "Maj6",
              "Maj"
            ],
            "autoStart": false,
            "sourceChordNote": 0,
            "sourceChordType": "Maj7",
            "ctb2Low": null,
            "ctb2Main": {
              "ntr": "ROOT_TRANSPOSITION",
              "ntt": "MELODY",
              "bassOn": false,
              "chordRootUpperLimit": 8,
              "noteLowLimit": 56,
              "noteHighLimit": 67,
              "rtr": "PITCH_SHIFT"
            },
            "ctb2High": null
          },
          "notes": [
            {
              "pitch": 62,
              "velocity": 55,
              "position": 0.6666666666666666,
              "duration": 0.26458333333333334
            },
            {
              "pitch": 62,
              "velocity": 60,
              "position": 2,
              "duration": 0.93125
            },
            {
              "pitch": 62,
              "velocity": 55,
              "position": 3.6666666666666665,
              "duration": 0.26458333333333334
            },
            {
              "pitch": 62,
              "velocity": 60,
              "position": 5,
              "duration": 0.93125
            },
            {
              "pitch": 62,
              "velocity": 55,
              "position": 6.666666666666667,
              "duration": 0.26458333333333334
            },
            {
              "pitch": 62,
              "velocity": 60,
              "position": 8,
              "duration": 0.93125
            },
            {
              "pitch": 62,
              "velocity": 55,
              "position": 9.666666666666666,
              "duration": 0.26458333333333334
            },
            {
              "pitch": 62,
              "velocity": 60,
              "position": 11,
              "duration": 0.93125
            }
          ]
        },
        "8": {
          "ctab": {
            "srcChannel": 8,
            "name": "CC Crash",
            "accType": "RHYTHM",
            "editable": true,
            "mutedNotes": [],
            "mutedChords": [
              "1+2+5",
              "sus4",
              "1+5",
              "1+8",
              "7aug",
              "Maj7aug",
              "7(#9)",
              "7(b13)",
              "7(b9)",
              "7(13)",
              "7#11",
              "7(9)",
              "7b5",
              "7sus4",
              "7th",
              "dim7",
              "dim",
              "minMaj7(9)",
              "minMaj7",
              "min7(11)",
              "min7(9)",
              "min(9)",
              "m7b5",
              "min7",
              "min6",
              "min",
              "aug",
              "Maj6(9)",
              "Maj7(9)",
              "Maj(9)",
              "Maj7#11",
              "Maj7",
              "Maj6",
              "Maj"
            ],
            "autoStart": true,
            "sourceChordNote": 0,
            "sourceChordType": "Maj7",
            "ctb2Low": null,
            "ctb2Main": {
              "ntr": "ROOT_FIXED",
              "ntt": "BYPASS",
              "bassOn": false,
              "chordRootUpperLimit": 6,
              "noteLowLimit": 0,
              "noteHighLimit": 127,
              "rtr": "RETRIGGER"
            },
            "ctb2High": null
          },
          "notes": []
        },
        "9": {
          "ctab": {
            "srcChannel": 9,
            "name": "Drs",
            "accType": "RHYTHM",
            "editable": false,
            "mutedNotes": [],
            "mutedChords": [],
            "autoStart": true,
            "sourceChordNote": 0,
            "sourceChordType": "Maj7",
            "ctb2Low": null,
            "ctb2Main": {
              "ntr": "ROOT_FIXED",
              "ntt": "BYPASS",
              "bassOn": false,
              "chordRootUpperLimit": 6,
              "noteLowLimit": 0,
              "noteHighLimit": 127,
              "rtr": "PITCH_SHIFT"
            },
            "ctb2High": null
          },
          "notes": [
            {
              "pitch": 33,
              "velocity": 34,
              "position": 0,
              "duration": 0.010416666666666666
            },
            {
              "pitch": 59,
              "velocity": 36,
              "position": 0,
              "duration": 0.010416666666666666
            },
            {
              "pitch": 27,
              "velocity": 70,
              "position": 0.6666666666666666,
              "duration": 0.010416666666666666
            },
            {
              "pitch": 26,
              "velocity": 47,
              "position": 0,
              "duration": 1
            },
            {
              "pitch": 44,
              "velocity": 30,
              "position": 1,
              "duration": 0.010416666666666666
            },
            {
              "pitch": 59,
              "velocity": 36,
              "position": 1,
              "duration": 0.010416666666666666
            },
            {
              "pitch": 25,
              "velocity": 20,
              "position": 1.6666666666666667,
              "duration": 0.010416666666666666
            },
            {
              "pitch": 53,
              "velocity": 18,
              "position": 1.6666666666666667,
              "duration": 0.010416666666666666
            },
            {
              "pitch": 26,
              "velocity": 27,
              "position": 1,
              "duration": 1
            },
            {
              "pitch": 44,
              "velocity": 37,
              "position": 2,
              "duration": 0.010416666666666666
            },
            {
              "pitch": 59,
              "velocity": 36,
              "position": 2,
              "duration": 0.010416666666666666
            },
            {
              "pitch": 33,
              "velocity": 34,
              "position": 2.6666666666666665,
              "duration": 0.010416666666666666
            },
            {
              "pitch": 28,
              "velocity": 29,
              "position": 2,
              "duration": 1
            },
            {
              "pitch": 33,
              "velocity": 34,
              "position": 3,
              "duration": 0.010416666666666666
            },
            {
              "pitch": 53,
              "velocity": 30,
              "position": 3,
              "duration": 0.010416666666666666
            },
            {
              "pitch": 25,
              "velocity": 70,
              "position": 3.6666666666666665,
              "duration": 0.010416666666666666
            },
            {
              "pitch": 26,
              "velocity": 47,
              "position": 3,
              "duration": 1
            },
            {
              "pitch": 44,
              "velocity": 30,
              "position": 4,
              "duration": 0.010416666666666666
            },
            {
              "pitch": 59,
              "velocity": 36,
              "position": 4,
              "duration": 0.010416666666666666
            },
            {
              "pitch": 25,
              "velocity": 20,
              "position": 4.666666666666667,
              "duration": 0.010416666666666666
            },
            {
              "pitch": 53,
              "velocity": 18,
              "position": 4.666666666666667,
              "duration": 0.010416666666666666
            },
            {
              "pitch": 26,
              "velocity": 27,
              "position": 4,
              "duration": 1
            },
            {
              "pitch": 44,
              "velocity": 37,
              "position": 5,
              "duration": 0.010416666666666666
            },
            {
              "pitch": 59,
              "velocity": 36,
              "position": 5,
              "duration": 0.010416666666666666
            },
            {
              "pitch": 25,
              "velocity": 20,
              "position": 5.666666666666667,
              "duration": 0.010416666666666666
            },
            {
              "pitch": 28,
              "velocity": 29,
              "position": 5,
              "duration": 1
            },
            {
              "pitch": 33,
              "velocity": 34,
              "position": 6,
              "duration": 0.010416666666666666
            },
            {
              "pitch": 59,
              "velocity": 36,
              "position": 6,
              "duration": 0.010416666666666666
            },
            {
              "pitch": 25,
              "velocity": 70,
              "position": 6.666666666666667,
              "duration": 0.010416666666666666
            },
            {
              "pitch": 27,
              "velocity": 70,
              "position": 6.666666666666667,
              "duration": 0.010416666666666666
            },
            {
              "pitch": 26,
              "velocity": 47,
              "position": 6,
              "duration": 1
            },
            {
              "pitch": 44,
              "velocity": 30,
              "position": 7,
              "duration": 0.010416666666666666
            },
            {
              "pitch": 59,
              "velocity": 36,
              "position": 7,
              "duration": 0.010416666666666666
            },
            {
              "pitch": 53,
              "velocity": 18,
              "position": 7.666666666666667,
              "duration": 0.010416666666666666
            },
            {
              "pitch": 26,
              "velocity": 27,
              "position": 7,
              "duration": 1
            },
            {
              "pitch": 44,
              "velocity": 37,
              "position": 8,
              "duration": 0.010416666666666666
            },
            {
              "pitch": 59,
              "velocity": 36,
              "position": 8,
              "duration": 0.010416666666666666
            },
            {
              "pitch": 33,
              "velocity": 34,
              "position": 8.666666666666666,
              "duration": 0.010416666666666666
            },
            {
              "pitch": 28,
              "velocity": 29,
              "position": 8,
              "duration": 1
            },
            {
              "pitch": 33,
              "velocity": 34,
              "position": 9,
              "duration": 0.010416666666666666
            },
            {
              "pitch": 53,
              "velocity": 30,
              "position": 9,
              "duration": 0.010416666666666666
            },
            {
              "pitch": 25,
              "velocity": 70,
              "position": 9.666666666666666,
              "duration": 0.010416666666666666
            },
            {
              "pitch": 26,
              "velocity": 47,
              "position": 9,
              "duration": 1
            },
            {
              "pitch": 44,
              "velocity": 30,
              "position": 10,
              "duration": 0.010416666666666666
            },
            {
              "pitch": 59,
              "velocity": 36,
              "position": 10,
              "duration": 0.010416666666666666
            },
            {
              "pitch": 25,
              "velocity": 20,
              "position": 10.666666666666666,
              "duration": 0.010416666666666666
            },
            {
              "pitch": 53,
              "velocity": 18,
              "position": 10.666666666666666,
              "duration": 0.010416666666666666
            },
            {
              "pitch": 26,
              "velocity": 27,
              "position": 10,
              "duration": 1
            },
            {
              "pitch": 44,
              "velocity": 37,
              "position": 11,
              "duration": 0.010416666666666666
            },
            {
              "pitch": 59,
              "velocity": 36,
              "position": 11,
              "duration": 0.010416666666666666
            },
            {
              "pitch": 25,
              "velocity": 20,
              "position": 11.666666666666666,
              "duration": 0.010416666666666666
            },
            {
              "pitch": 28,
              "velocity": 29,
              "position": 11,
              "duration": 1
            }
          ]
        },
        "10": {
          "ctab": {
            "srcChannel": 10,
            "name": "Bass",
            "accType": "BASS",
            "editable": false,
            "mutedNotes": [],
            "mutedChords": [],
            "autoStart": false,
            "sourceChordNote": 0,
            "sourceChordType": "Maj7",
            "ctb2Low": null,
            "ctb2Main": {
              "ntr": "ROOT_TRANSPOSITION",
              "ntt": "MELODY",
              "bassOn": true,
              "chordRootUpperLimit": 8,
              "noteLowLimit": 28,
              "noteHighLimit": 127,
              "rtr": "PITCH_SHIFT_TO_ROOT"
            },
            "ctb2High": null
          },
          "notes": [
            {
              "pitch": 24,
              "velocity": 50,
              "position": 0,
              "duration": 1.5729166666666667
            },
            {
              "pitch": 24,
              "velocity": 50,
              "position": 1.5833333333333333,
              "duration": 1.0729166666666667
            },
            {
              "pitch": 24,
              "velocity": 100,
              "position": 2.6666666666666665,
              "duration": 0.3229166666666667
            },
            {
              "pitch": 31,
              "velocity": 50,
              "position": 3,
              "duration": 2.65625
            },
            {
              "pitch": 31,
              "velocity": 100,
              "position": 5.666666666666667,
              "duration": 0.3229166666666667
            },
            {
              "pitch": 36,
              "velocity": 50,
              "position": 6,
              "duration": 1.5729166666666667
            },
            {
              "pitch": 36,
              "velocity": 50,
              "position": 7.583333333333333,
              "duration": 1.0729166666666667
            },
            {
              "pitch": 36,
              "velocity": 100,
              "position": 8.666666666666666,
              "duration": 0.3229166666666667
            },
            {
              "pitch": 31,
              "velocity": 50,
              "position": 9,
              "duration": 1.65625
            },
            {
              "pitch": 31,
              "velocity": 100,
              "position": 10.666666666666666,
              "duration": 0.3229166666666667
            },
            {
              "pitch": 28,
              "velocity": 40,
              "position": 11,
              "duration": 0.9895833333333334
            }
          ]
        },
        "12": {
          "ctab": {
            "srcChannel": 12,
            "name": "Str",
            "accType": "PAD",
            "editable": false,
            "mutedNotes": [],
            "mutedChords": [],
            "autoStart": false,
            "sourceChordNote": 0,
            "sourceChordType": "Maj7",
            "ctb2Low": null,
            "ctb2Main": {
              "ntr": "ROOT_FIXED",
              "ntt": "CHORD",
              "bassOn": false,
              "chordRootUpperLimit": 7,
              "noteLowLimit": 0,
              "noteHighLimit": 127,
              "rtr": "PITCH_SHIFT"
            },
            "ctb2High": null
          },
          "notes": [
            {
              "pitch": 55,
              "velocity": 62,
              "position": 0,
              "duration": 11.989583333333334
            },
            {
              "pitch": 64,
              "velocity": 62,
              "position": 0,
              "duration": 11.989583333333334
            },
            {
              "pitch": 59,
              "velocity": 62,
              "position": 0,
              "duration": 11.989583333333334
            }
          ]
        },
        "13": {
          "ctab": {
            "srcChannel": 13,
            "name": "Str Root",
            "accType": "PAD",
            "editable": false,
            "mutedNotes": [],
            "mutedChords": [
              "1+2+5",
              "sus4",
              "1+5",
              "1+8",
              "Maj7aug",
              "dim",
              "minMaj7(9)",
              "minMaj7",
              "min6",
              "min",
              "aug",
              "Maj7(9)",
              "Maj7#11",
              "Maj7",
              "Maj6",
              "Maj"
            ],
            "autoStart": false,
            "sourceChordNote": 0,
            "sourceChordType": "Maj7",
            "ctb2Low": null,
            "ctb2Main": {
              "ntr": "ROOT_TRANSPOSITION",
              "ntt": "CHORD",
              "bassOn": false,
              "chordRootUpperLimit": 6,
              "noteLowLimit": 0,
              "noteHighLimit": 127,
              "rtr": "PITCH_SHIFT_TO_ROOT"
            },
            "ctb2High": null
          },
          "notes": [
            {
              "pitch": 60,
              "velocity": 62,
              "position": 0,
              "duration": 11.989583333333334
            }
          ]
        }
      }
    },
    "Main_D": {
      "type": "Main_D",
      "sizeInBeats": 12,
      "channels": {
        "0": {
          "ctab": {
            "srcChannel": 0,
            "name": "gt 3 & 7",
            "accType": "CHORD1",
            "editable": false,
            "mutedNotes": [],
            "mutedChords": [],
            "autoStart": false,
            "sourceChordNote": 0,
            "sourceChordType": "Maj7",
            "ctb2Low": null,
            "ctb2Main": {
              "ntr": "ROOT_TRANSPOSITION",
              "ntt": "MELODY",
              "bassOn": false,
              "chordRootUpperLimit": 8,
              "noteLowLimit": 54,
              "noteHighLimit": 65,
              "rtr": "PITCH_SHIFT"
            },
            "ctb2High": null
          },
          "notes": [
            {
              "pitch": 59,
              "velocity": 40,
              "position": 0.010416666666666666,
              "duration": 0.6458333333333334
            },
            {
              "pitch": 64,
              "velocity": 40,
              "position": 0.020833333333333332,
              "duration": 0.6354166666666666
            },
            {
              "pitch": 59,
              "velocity": 40,
              "position": 1.0104166666666667,
              "duration": 0.6458333333333334
            },
            {
              "pitch": 64,
              "velocity": 40,
              "position": 1.0208333333333333,
              "duration": 0.6354166666666666
            },
            {
              "pitch": 59,
              "velocity": 35,
              "position": 2.0104166666666665,
              "duration": 0.6458333333333334
            },
            {
              "pitch": 64,
              "velocity": 35,
              "position": 2.0208333333333335,
              "duration": 0.6458333333333334
            },
            {
              "pitch": 59,
              "velocity": 40,
              "position": 3.0104166666666665,
              "duration": 0.6458333333333334
            },
            {
              "pitch": 64,
              "velocity": 40,
              "position": 3.0208333333333335,
              "duration": 0.6354166666666666
            },
            {
              "pitch": 59,
              "velocity": 40,
              "position": 4.010416666666667,
              "duration": 0.6458333333333334
            },
            {
              "pitch": 64,
              "velocity": 40,
              "position": 4.020833333333333,
              "duration": 0.6354166666666666
            },
            {
              "pitch": 59,
              "velocity": 35,
              "position": 5.010416666666667,
              "duration": 0.6458333333333334
            },
            {
              "pitch": 64,
              "velocity": 35,
              "position": 5.020833333333333,
              "duration": 0.6458333333333334
            },
            {
              "pitch": 59,
              "velocity": 40,
              "position": 6.010416666666667,
              "duration": 0.6458333333333334
            },
            {
              "pitch": 64,
              "velocity": 40,
              "position": 6.020833333333333,
              "duration": 0.6354166666666666
            },
            {
              "pitch": 59,
              "velocity": 40,
              "position": 7.010416666666667,
              "duration": 0.6458333333333334
            },
            {
              "pitch": 64,
              "velocity": 40,
              "position": 7.020833333333333,
              "duration": 0.6354166666666666
            },
            {
              "pitch": 59,
              "velocity": 35,
              "position": 8.010416666666666,
              "duration": 0.6458333333333334
            },
            {
              "pitch": 64,
              "velocity": 35,
              "position": 8.020833333333334,
              "duration": 0.6458333333333334
            },
            {
              "pitch": 59,
              "velocity": 40,
              "position": 9.010416666666666,
              "duration": 0.6458333333333334
            },
            {
              "pitch": 64,
              "velocity": 40,
              "position": 9.020833333333334,
              "duration": 0.6354166666666666
            },
            {
              "pitch": 59,
              "velocity": 40,
              "position": 10.010416666666666,
              "duration": 0.6458333333333334
            },
            {
              "pitch": 64,
              "velocity": 40,
              "position": 10.020833333333334,
              "duration": 0.6354166666666666
            },
            {
              "pitch": 59,
              "velocity": 35,
              "position": 11.010416666666666,
              "duration": 0.6458333333333334
            },
            {
              "pitch": 64,
              "velocity": 35,
              "position": 11.020833333333334,
              "duration": 0.6458333333333334
            }
          ]
        },
        "1": {
          "ctab": {
            "srcChannel": 1,
            "name": "gt 5",
            "accType": "CHORD1",
            "editable": false,
            "mutedNotes": [],
            "mutedChords": [
              "1+5",
              "1+8",
              "7(#9)",
              "7(b9)",
              "7(13)",
              "7(9)",
              "minMaj7(9)",
              "min7(9)",
              "Maj7(9)"
            ],
            "autoStart": false,
            "sourceChordNote": 0,
            "sourceChordType": "Maj7",
            "ctb2Low": null,
            "ctb2Main": {
              "ntr": "ROOT_TRANSPOSITION",
              "ntt": "CHORD",
              "bassOn": false,
              "chordRootUpperLimit": 8,
              "noteLowLimit": 54,
              "noteHighLimit": 65,
              "rtr": "PITCH_SHIFT"
            },
            "ctb2High": null
          },
          "notes": [
            {
              "pitch": 55,
              "velocity": 40,
              "position": 0,
              "duration": 0.65625
            },
            {
              "pitch": 55,
              "velocity": 40,
              "position": 1,
              "duration": 0.65625
            },
            {
              "pitch": 55,
              "velocity": 35,
              "position": 2,
              "duration": 0.6458333333333334
            },
            {
              "pitch": 55,
              "velocity": 40,
              "position": 3,
              "duration": 0.65625
            },
            {
              "pitch": 55,
              "velocity": 40,
              "position": 4,
              "duration": 0.65625
            },
            {
              "pitch": 55,
              "velocity": 35,
              "position": 5,
              "duration": 0.6458333333333334
            },
            {
              "pitch": 55,
              "velocity": 40,
              "position": 6,
              "duration": 0.65625
            },
            {
              "pitch": 55,
              "velocity": 40,
              "position": 7,
              "duration": 0.65625
            },
            {
              "pitch": 55,
              "velocity": 35,
              "position": 8,
              "duration": 0.6458333333333334
            },
            {
              "pitch": 55,
              "velocity": 40,
              "position": 9,
              "duration": 0.65625
            },
            {
              "pitch": 55,
              "velocity": 40,
              "position": 10,
              "duration": 0.65625
            },
            {
              "pitch": 55,
              "velocity": 35,
              "position": 11,
              "duration": 0.6458333333333334
            }
          ]
        },
        "2": {
          "ctab": {
            "srcChannel": 2,
            "name": "gt 5 & 9",
            "accType": "CHORD1",
            "editable": false,
            "mutedNotes": [],
            "mutedChords": [
              "1+2+5",
              "sus4",
              "1+5",
              "1+8",
              "7aug",
              "Maj7aug",
              "7(b13)",
              "7(13)",
              "7#11",
              "7b5",
              "7sus4",
              "7th",
              "dim7",
              "dim",
              "minMaj7",
              "min7(11)",
              "min(9)",
              "m7b5",
              "min7",
              "min6",
              "min",
              "aug",
              "Maj6(9)",
              "Maj(9)",
              "Maj7#11",
              "Maj7",
              "Maj6",
              "Maj"
            ],
            "autoStart": false,
            "sourceChordNote": 0,
            "sourceChordType": "Maj7",
            "ctb2Low": null,
            "ctb2Main": {
              "ntr": "ROOT_TRANSPOSITION",
              "ntt": "MELODY",
              "bassOn": false,
              "chordRootUpperLimit": 8,
              "noteLowLimit": 62,
              "noteHighLimit": 73,
              "rtr": "PITCH_SHIFT"
            },
            "ctb2High": null
          },
          "notes": [
            {
              "pitch": 67,
              "velocity": 40,
              "position": 0.010416666666666666,
              "duration": 0.6458333333333334
            },
            {
              "pitch": 62,
              "velocity": 40,
              "position": 0.020833333333333332,
              "duration": 0.6354166666666666
            },
            {
              "pitch": 67,
              "velocity": 40,
              "position": 1.0104166666666667,
              "duration": 0.6458333333333334
            },
            {
              "pitch": 62,
              "velocity": 40,
              "position": 1.0208333333333333,
              "duration": 0.6354166666666666
            },
            {
              "pitch": 67,
              "velocity": 35,
              "position": 2.0104166666666665,
              "duration": 0.6458333333333334
            },
            {
              "pitch": 62,
              "velocity": 35,
              "position": 2.0208333333333335,
              "duration": 0.6458333333333334
            },
            {
              "pitch": 67,
              "velocity": 40,
              "position": 3.0104166666666665,
              "duration": 0.6458333333333334
            },
            {
              "pitch": 62,
              "velocity": 40,
              "position": 3.0208333333333335,
              "duration": 0.6354166666666666
            },
            {
              "pitch": 67,
              "velocity": 40,
              "position": 4.010416666666667,
              "duration": 0.6458333333333334
            },
            {
              "pitch": 62,
              "velocity": 40,
              "position": 4.020833333333333,
              "duration": 0.6354166666666666
            },
            {
              "pitch": 67,
              "velocity": 35,
              "position": 5.010416666666667,
              "duration": 0.6458333333333334
            },
            {
              "pitch": 62,
              "velocity": 35,
              "position": 5.020833333333333,
              "duration": 0.6458333333333334
            },
            {
              "pitch": 67,
              "velocity": 40,
              "position": 6.010416666666667,
              "duration": 0.6458333333333334
            },
            {
              "pitch": 62,
              "velocity": 40,
              "position": 6.020833333333333,
              "duration": 0.6354166666666666
            },
            {
              "pitch": 67,
              "velocity": 40,
              "position": 7.010416666666667,
              "duration": 0.6458333333333334
            },
            {
              "pitch": 62,
              "velocity": 40,
              "position": 7.020833333333333,
              "duration": 0.6354166666666666
            },
            {
              "pitch": 67,
              "velocity": 35,
              "position": 8.010416666666666,
              "duration": 0.6458333333333334
            },
            {
              "pitch": 62,
              "velocity": 35,
              "position": 8.020833333333334,
              "duration": 0.6458333333333334
            },
            {
              "pitch": 67,
              "velocity": 40,
              "position": 9.010416666666666,
              "duration": 0.6458333333333334
            },
            {
              "pitch": 62,
              "velocity": 40,
              "position": 9.020833333333334,
              "duration": 0.6354166666666666
            },
            {
              "pitch": 67,
              "velocity": 40,
              "position": 10.010416666666666,
              "duration": 0.6458333333333334
            },
            {
              "pitch": 62,
              "velocity": 40,
              "position": 10.020833333333334,
              "duration": 0.6354166666666666
            },
            {
              "pitch": 67,
              "velocity": 35,
              "position": 11.010416666666666,
              "duration": 0.6458333333333334
            },
            {
              "pitch": 62,
              "velocity": 35,
              "position": 11.020833333333334,
              "duration": 0.6458333333333334
            }
          ]
        },
        "3": {
          "ctab": {
            "srcChannel": 3,
            "name": "gt 6 & 9",
            "accType": "CHORD1",
            "editable": false,
            "mutedNotes": [],
            "mutedChords": [
              "1+2+5",
              "sus4",
              "1+5",
              "1+8",
              "7aug",
              "Maj7aug",
              "7(#9)",
              "7(b13)",
              "7(b9)",
              "7#11",
              "7(9)",
              "7b5",
              "7sus4",
              "7th",
              "dim7",
              "dim",
              "minMaj7(9)",
              "minMaj7",
              "min7(11)",
              "min7(9)",
              "min(9)",
              "m7b5",
              "min7",
              "min6",
              "min",
              "aug",
              "Maj6(9)",
              "Maj7(9)",
              "Maj(9)",
              "Maj7#11",
              "Maj7",
              "Maj6",
              "Maj"
            ],
            "autoStart": false,
            "sourceChordNote": 0,
            "sourceChordType": "Maj7",
            "ctb2Low": null,
            "ctb2Main": {
              "ntr": "ROOT_TRANSPOSITION",
              "ntt": "MELODY",
              "bassOn": false,
              "chordRootUpperLimit": 8,
              "noteLowLimit": 62,
              "noteHighLimit": 73,
              "rtr": "PITCH_SHIFT"
            },
            "ctb2High": null
          },
          "notes": [
            {
              "pitch": 62,
              "velocity": 40,
              "position": 0.010416666666666666,
              "duration": 0.6458333333333334
            },
            {
              "pitch": 69,
              "velocity": 40,
              "position": 0.020833333333333332,
              "duration": 0.6354166666666666
            },
            {
              "pitch": 62,
              "velocity": 40,
              "position": 1.0104166666666667,
              "duration": 0.6458333333333334
            },
            {
              "pitch": 69,
              "velocity": 40,
              "position": 1.0208333333333333,
              "duration": 0.6354166666666666
            },
            {
              "pitch": 62,
              "velocity": 35,
              "position": 2.0104166666666665,
              "duration": 0.6458333333333334
            },
            {
              "pitch": 69,
              "velocity": 35,
              "position": 2.0208333333333335,
              "duration": 0.6458333333333334
            },
            {
              "pitch": 62,
              "velocity": 40,
              "position": 3.0104166666666665,
              "duration": 0.6458333333333334
            },
            {
              "pitch": 69,
              "velocity": 40,
              "position": 3.0208333333333335,
              "duration": 0.6354166666666666
            },
            {
              "pitch": 62,
              "velocity": 40,
              "position": 4.010416666666667,
              "duration": 0.6458333333333334
            },
            {
              "pitch": 69,
              "velocity": 40,
              "position": 4.020833333333333,
              "duration": 0.6354166666666666
            },
            {
              "pitch": 62,
              "velocity": 35,
              "position": 5.010416666666667,
              "duration": 0.6458333333333334
            },
            {
              "pitch": 69,
              "velocity": 35,
              "position": 5.020833333333333,
              "duration": 0.6458333333333334
            },
            {
              "pitch": 62,
              "velocity": 40,
              "position": 6.010416666666667,
              "duration": 0.6458333333333334
            },
            {
              "pitch": 69,
              "velocity": 40,
              "position": 6.020833333333333,
              "duration": 0.6354166666666666
            },
            {
              "pitch": 62,
              "velocity": 40,
              "position": 7.010416666666667,
              "duration": 0.6458333333333334
            },
            {
              "pitch": 69,
              "velocity": 40,
              "position": 7.020833333333333,
              "duration": 0.6354166666666666
            },
            {
              "pitch": 62,
              "velocity": 35,
              "position": 8.010416666666666,
              "duration": 0.6458333333333334
            },
            {
              "pitch": 69,
              "velocity": 35,
              "position": 8.020833333333334,
              "duration": 0.6458333333333334
            },
            {
              "pitch": 62,
              "velocity": 40,
              "position": 9.010416666666666,
              "duration": 0.6458333333333334
            },
            {
              "pitch": 69,
              "velocity": 40,
              "position": 9.020833333333334,
              "duration": 0.6354166666666666
            },
            {
              "pitch": 62,
              "velocity": 40,
              "position": 10.010416666666666,
              "duration": 0.6458333333333334
            },
            {
              "pitch": 69,
              "velocity": 40,
              "position": 10.020833333333334,
              "duration": 0.6354166666666666
            },
            {
              "pitch": 62,
              "velocity": 35,
              "position": 11.010416666666666,
              "duration": 0.6458333333333334
            },
            {
              "pitch": 69,
              "velocity": 35,
              "position": 11.020833333333334,
              "duration": 0.6458333333333334
            }
          ]
        },
        "4": {
          "ctab": {
            "srcChannel": 4,
            "name": "pf",
            "accType": "CHORD2",
            "editable": false,
            "mutedNotes": [],
            "mutedChords": [],
            "autoStart": false,
            "sourceChordNote": 0,
            "sourceChordType": "Maj7",
            "ctb2Low": null,
            "ctb2Main": {
              "ntr": "ROOT_TRANSPOSITION",
              "ntt": "CHORD",
              "bassOn": false,
              "chordRootUpperLimit": 11,
              "noteLowLimit": 52,
              "noteHighLimit": 127,
              "rtr": "PITCH_SHIFT"
            },
            "ctb2High": null
          },
          "notes": [
            {
              "pitch": 40,
              "velocity": 50,
              "position": 0,
              "duration": 0.65625
            },
            {
              "pitch": 47,
              "velocity": 50,
              "position": 0,
              "duration": 0.65625
            },
            {
              "pitch": 43,
              "velocity": 50,
              "position": 0,
              "duration": 0.65625
            },
            {
              "pitch": 40,
              "velocity": 55,
              "position": 0.6666666666666666,
              "duration": 0.26458333333333334
            },
            {
              "pitch": 47,
              "velocity": 55,
              "position": 0.6666666666666666,
              "duration": 0.26458333333333334
            },
            {
              "pitch": 43,
              "velocity": 55,
              "position": 0.6666666666666666,
              "duration": 0.26458333333333334
            },
            {
              "pitch": 40,
              "velocity": 60,
              "position": 1.6666666666666667,
              "duration": 1.2645833333333334
            },
            {
              "pitch": 47,
              "velocity": 60,
              "position": 1.6666666666666667,
              "duration": 1.2645833333333334
            },
            {
              "pitch": 43,
              "velocity": 60,
              "position": 1.6666666666666667,
              "duration": 1.2645833333333334
            },
            {
              "pitch": 40,
              "velocity": 55,
              "position": 3,
              "duration": 1.5979166666666667
            },
            {
              "pitch": 47,
              "velocity": 55,
              "position": 3,
              "duration": 1.5979166666666667
            },
            {
              "pitch": 43,
              "velocity": 55,
              "position": 3,
              "duration": 1.5979166666666667
            },
            {
              "pitch": 40,
              "velocity": 60,
              "position": 4.666666666666667,
              "duration": 1.2645833333333334
            },
            {
              "pitch": 47,
              "velocity": 60,
              "position": 4.666666666666667,
              "duration": 1.2645833333333334
            },
            {
              "pitch": 43,
              "velocity": 60,
              "position": 4.666666666666667,
              "duration": 1.2645833333333334
            },
            {
              "pitch": 40,
              "velocity": 55,
              "position": 6,
              "duration": 1.5979166666666667
            },
            {
              "pitch": 47,
              "velocity": 55,
              "position": 6,
              "duration": 1.5979166666666667
            },
            {
              "pitch": 43,
              "velocity": 55,
              "position": 6,
              "duration": 1.5979166666666667
            },
            {
              "pitch": 40,
              "velocity": 60,
              "position": 7.666666666666667,
              "duration": 1.3229166666666667
            },
            {
              "pitch": 47,
              "velocity": 60,
              "position": 7.666666666666667,
              "duration": 1.3229166666666667
            },
            {
              "pitch": 43,
              "velocity": 60,
              "position": 7.666666666666667,
              "duration": 1.3229166666666667
            },
            {
              "pitch": 40,
              "velocity": 50,
              "position": 9,
              "duration": 0.65625
            },
            {
              "pitch": 47,
              "velocity": 50,
              "position": 9,
              "duration": 0.65625
            },
            {
              "pitch": 43,
              "velocity": 50,
              "position": 9,
              "duration": 0.65625
            },
            {
              "pitch": 40,
              "velocity": 55,
              "position": 9.666666666666666,
              "duration": 0.26458333333333334
            },
            {
              "pitch": 47,
              "velocity": 55,
              "position": 9.666666666666666,
              "duration": 0.26458333333333334
            },
            {
              "pitch": 43,
              "velocity": 55,
              "position": 9.666666666666666,
              "duration": 0.26458333333333334
            },
            {
              "pitch": 40,
              "velocity": 60,
              "position": 10.666666666666666,
              "duration": 1.2645833333333334
            },
            {
              "pitch": 47,
              "velocity": 60,
              "position": 10.666666666666666,
              "duration": 1.2645833333333334
            },
            {
              "pitch": 43,
              "velocity": 60,
              "position": 10.666666666666666,
              "duration": 1.2645833333333334
            }
          ]
        },
        "5": {
          "ctab": {
            "srcChannel": 5,
            "name": "pf 1",
            "accType": "CHORD2",
            "editable": false,
            "mutedNotes": [],
            "mutedChords": [
              "1+2+5",
              "sus4",
              "1+5",
              "1+8",
              "7aug",
              "Maj7aug",
              "7(#9)",
              "7(b13)",
              "7(b9)",
              "7(13)",
              "7#11",
              "7(9)",
              "7b5",
              "7sus4",
              "7th",
              "dim",
              "minMaj7(9)",
              "minMaj7",
              "min7(11)",
              "min7(9)",
              "min6",
              "min",
              "aug",
              "Maj6(9)",
              "Maj7(9)",
              "Maj7#11",
              "Maj7",
              "Maj6",
              "Maj"
            ],
            "autoStart": false,
            "sourceChordNote": 0,
            "sourceChordType": "Maj7",
            "ctb2Low": null,
            "ctb2Main": {
              "ntr": "ROOT_TRANSPOSITION",
              "ntt": "MELODY",
              "bassOn": false,
              "chordRootUpperLimit": 8,
              "noteLowLimit": 52,
              "noteHighLimit": 63,
              "rtr": "PITCH_SHIFT"
            },
            "ctb2High": null
          },
          "notes": [
            {
              "pitch": 48,
              "velocity": 50,
              "position": 0,
              "duration": 0.65625
            },
            {
              "pitch": 48,
              "velocity": 55,
              "position": 0.6666666666666666,
              "duration": 0.26458333333333334
            },
            {
              "pitch": 48,
              "velocity": 60,
              "position": 1.6666666666666667,
              "duration": 1.2645833333333334
            },
            {
              "pitch": 48,
              "velocity": 55,
              "position": 3,
              "duration": 1.5979166666666667
            },
            {
              "pitch": 48,
              "velocity": 60,
              "position": 4.666666666666667,
              "duration": 1.2645833333333334
            },
            {
              "pitch": 48,
              "velocity": 55,
              "position": 6,
              "duration": 1.5979166666666667
            },
            {
              "pitch": 48,
              "velocity": 60,
              "position": 7.666666666666667,
              "duration": 1.3229166666666667
            },
            {
              "pitch": 48,
              "velocity": 50,
              "position": 9,
              "duration": 0.65625
            },
            {
              "pitch": 48,
              "velocity": 55,
              "position": 9.666666666666666,
              "duration": 0.26458333333333334
            },
            {
              "pitch": 48,
              "velocity": 60,
              "position": 10.666666666666666,
              "duration": 1.2645833333333334
            }
          ]
        },
        "6": {
          "ctab": {
            "srcChannel": 6,
            "name": "pf 5",
            "accType": "CHORD2",
            "editable": false,
            "mutedNotes": [],
            "mutedChords": [
              "1+2+5",
              "sus4",
              "1+5",
              "1+8",
              "7aug",
              "Maj7aug",
              "7(#9)",
              "7(b13)",
              "7(b9)",
              "7(13)",
              "7#11",
              "7b5",
              "7sus4",
              "7th",
              "dim7",
              "dim",
              "minMaj7",
              "min7(11)",
              "min(9)",
              "m7b5",
              "min7",
              "min",
              "aug",
              "Maj(9)",
              "Maj7#11",
              "Maj7",
              "Maj"
            ],
            "autoStart": false,
            "sourceChordNote": 0,
            "sourceChordType": "Maj7",
            "ctb2Low": null,
            "ctb2Main": {
              "ntr": "ROOT_TRANSPOSITION",
              "ntt": "MELODY",
              "bassOn": false,
              "chordRootUpperLimit": 8,
              "noteLowLimit": 52,
              "noteHighLimit": 63,
              "rtr": "PITCH_SHIFT"
            },
            "ctb2High": null
          },
          "notes": [
            {
              "pitch": 43,
              "velocity": 50,
              "position": 0,
              "duration": 0.65625
            },
            {
              "pitch": 43,
              "velocity": 55,
              "position": 0.6666666666666666,
              "duration": 0.26458333333333334
            },
            {
              "pitch": 43,
              "velocity": 60,
              "position": 1.6666666666666667,
              "duration": 1.2645833333333334
            },
            {
              "pitch": 43,
              "velocity": 55,
              "position": 3,
              "duration": 1.5979166666666667
            },
            {
              "pitch": 43,
              "velocity": 60,
              "position": 4.666666666666667,
              "duration": 1.2645833333333334
            },
            {
              "pitch": 43,
              "velocity": 55,
              "position": 6,
              "duration": 1.5979166666666667
            },
            {
              "pitch": 43,
              "velocity": 60,
              "position": 7.666666666666667,
              "duration": 1.3229166666666667
            },
            {
              "pitch": 43,
              "velocity": 50,
              "position": 9,
              "duration": 0.65625
            },
            {
              "pitch": 43,
              "velocity": 55,
              "position": 9.666666666666666,
              "duration": 0.26458333333333334
            },
            {
              "pitch": 43,
              "velocity": 60,
              "position": 10.666666666666666,
              "duration": 1.2645833333333334
            }
          ]
        },
        "7": {
          "ctab": {
            "srcChannel": 7,
            "name": "pf 9",
            "accType": "CHORD2",
            "editable": false,
            "mutedNotes": [],
            "mutedChords": [
              "1+2+5",
              "sus4",
              "1+5",
              "1+8",
              "7aug",
              "Maj7aug",
              "7(#9)",
              "7(b9)",
              "7(9)",
              "7b5",
              "7sus4",
              "7th",
              "dim7",
              "dim",
              "minMaj7(9)",
              "minMaj7",
              "min7(9)",
              "min(9)",
              "m7b5",
              "min7",
              "min6",
              "min",
              "aug",
              "Maj6(9)",
              "Maj7(9)",
              "Maj(9)",
              "Maj7#11",
              "Maj7",
              "Maj6",
              "Maj"
            ],
            "autoStart": false,
            "sourceChordNote": 0,
            "sourceChordType": "Maj7",
            "ctb2Low": null,
            "ctb2Main": {
              "ntr": "ROOT_TRANSPOSITION",
              "ntt": "MELODY",
              "bassOn": false,
              "chordRootUpperLimit": 8,
              "noteLowLimit": 56,
              "noteHighLimit": 67,
              "rtr": "PITCH_SHIFT"
            },
            "ctb2High": null
          },
          "notes": [
            {
              "pitch": 62,
              "velocity": 50,
              "position": 0,
              "duration": 0.65625
            },
            {
              "pitch": 62,
              "velocity": 55,
              "position": 0.6666666666666666,
              "duration": 0.26458333333333334
            },
            {
              "pitch": 62,
              "velocity": 60,
              "position": 1.6666666666666667,
              "duration": 1.2645833333333334
            },
            {
              "pitch": 62,
              "velocity": 55,
              "position": 3,
              "duration": 1.5979166666666667
            },
            {
              "pitch": 62,
              "velocity": 60,
              "position": 4.666666666666667,
              "duration": 1.2645833333333334
            },
            {
              "pitch": 62,
              "velocity": 55,
              "position": 6,
              "duration": 1.5979166666666667
            },
            {
              "pitch": 62,
              "velocity": 60,
              "position": 7.666666666666667,
              "duration": 1.3229166666666667
            },
            {
              "pitch": 62,
              "velocity": 50,
              "position": 9,
              "duration": 0.65625
            },
            {
              "pitch": 62,
              "velocity": 55,
              "position": 9.666666666666666,
              "duration": 0.26458333333333334
            },
            {
              "pitch": 62,
              "velocity": 60,
              "position": 10.666666666666666,
              "duration": 1.2645833333333334
            }
          ]
        },
        "8": {
          "ctab": {
            "srcChannel": 8,
            "name": "CC Crash",
            "accType": "RHYTHM",
            "editable": true,
            "mutedNotes": [],
            "mutedChords": [
              "1+2+5",
              "sus4",
              "1+5",
              "1+8",
              "7aug",
              "Maj7aug",
              "7(#9)",
              "7(b13)",
              "7(b9)",
              "7(13)",
              "7#11",
              "7(9)",
              "7b5",
              "7sus4",
              "7th",
              "dim7",
              "dim",
              "minMaj7(9)",
              "minMaj7",
              "min7(11)",
              "min7(9)",
              "min(9)",
              "m7b5",
              "min7",
              "min6",
              "min",
              "aug",
              "Maj6(9)",
              "Maj7(9)",
              "Maj(9)",
              "Maj7#11",
              "Maj7",
              "Maj6",
              "Maj"
            ],
            "autoStart": true,
            "sourceChordNote": 0,
            "sourceChordType": "Maj7",
            "ctb2Low": null,
            "ctb2Main": {
              "ntr": "ROOT_FIXED",
              "ntt": "BYPASS",
              "bassOn": false,
              "chordRootUpperLimit": 6,
              "noteLowLimit": 0,
              "noteHighLimit": 127,
              "rtr": "RETRIGGER"
            },
            "ctb2High": null
          },
          "notes": []
        },
        "9": {
          "ctab": {
            "srcChannel": 9,
            "name": "Drs",
            "accType": "RHYTHM",
            "editable": false,
            "mutedNotes": [],
            "mutedChords": [],
            "autoStart": true,
            "sourceChordNote": 0,
            "sourceChordType": "Maj7",
            "ctb2Low": null,
            "ctb2Main": {
              "ntr": "ROOT_FIXED",
              "ntt": "BYPASS",
              "bassOn": false,
              "chordRootUpperLimit": 6,
              "noteLowLimit": 0,
              "noteHighLimit": 127,
              "rtr": "PITCH_SHIFT"
            },
            "ctb2High": null
          },
          "notes": [
            {
              "pitch": 33,
              "velocity": 34,
              "position": 0,
              "duration": 0.010416666666666666
            },
            {
              "pitch": 59,
              "velocity": 36,
              "position": 0,
              "duration": 0.010416666666666666
            },
            {
              "pitch": 25,
              "velocity": 25,
              "position": 0.3333333333333333,
              "duration": 0.010416666666666666
            },
            {
              "pitch": 38,
              "velocity": 40,
              "position": 0.6666666666666666,
              "duration": 0.010416666666666666
            },
            {
              "pitch": 26,
              "velocity": 51,
              "position": 0,
              "duration": 1
            },
            {
              "pitch": 44,
              "velocity": 30,
              "position": 1,
              "duration": 0.010416666666666666
            },
            {
              "pitch": 59,
              "velocity": 36,
              "position": 1,
              "duration": 0.010416666666666666
            },
            {
              "pitch": 25,
              "velocity": 25,
              "position": 1.3333333333333333,
              "duration": 0.010416666666666666
            },
            {
              "pitch": 38,
              "velocity": 20,
              "position": 1.6666666666666667,
              "duration": 0.010416666666666666
            },
            {
              "pitch": 53,
              "velocity": 26,
              "position": 1.6666666666666667,
              "duration": 0.010416666666666666
            },
            {
              "pitch": 26,
              "velocity": 31,
              "position": 1,
              "duration": 1
            },
            {
              "pitch": 44,
              "velocity": 37,
              "position": 2,
              "duration": 0.010416666666666666
            },
            {
              "pitch": 59,
              "velocity": 36,
              "position": 2,
              "duration": 0.010416666666666666
            },
            {
              "pitch": 25,
              "velocity": 25,
              "position": 2.3333333333333335,
              "duration": 0.010416666666666666
            },
            {
              "pitch": 33,
              "velocity": 34,
              "position": 2.6666666666666665,
              "duration": 0.010416666666666666
            },
            {
              "pitch": 28,
              "velocity": 29,
              "position": 2,
              "duration": 1
            },
            {
              "pitch": 33,
              "velocity": 34,
              "position": 3,
              "duration": 0.010416666666666666
            },
            {
              "pitch": 53,
              "velocity": 33,
              "position": 3,
              "duration": 0.010416666666666666
            },
            {
              "pitch": 25,
              "velocity": 40,
              "position": 3.6666666666666665,
              "duration": 0.010416666666666666
            },
            {
              "pitch": 59,
              "velocity": 26,
              "position": 3.6666666666666665,
              "duration": 0.010416666666666666
            },
            {
              "pitch": 26,
              "velocity": 51,
              "position": 3,
              "duration": 1
            },
            {
              "pitch": 44,
              "velocity": 30,
              "position": 4,
              "duration": 0.010416666666666666
            },
            {
              "pitch": 59,
              "velocity": 36,
              "position": 4,
              "duration": 0.010416666666666666
            },
            {
              "pitch": 25,
              "velocity": 25,
              "position": 4.333333333333333,
              "duration": 0.010416666666666666
            },
            {
              "pitch": 38,
              "velocity": 40,
              "position": 4.666666666666667,
              "duration": 0.010416666666666666
            },
            {
              "pitch": 26,
              "velocity": 31,
              "position": 4,
              "duration": 1
            },
            {
              "pitch": 44,
              "velocity": 37,
              "position": 5,
              "duration": 0.010416666666666666
            },
            {
              "pitch": 59,
              "velocity": 36,
              "position": 5,
              "duration": 0.010416666666666666
            },
            {
              "pitch": 25,
              "velocity": 25,
              "position": 5.333333333333333,
              "duration": 0.010416666666666666
            },
            {
              "pitch": 33,
              "velocity": 34,
              "position": 5.666666666666667,
              "duration": 0.010416666666666666
            },
            {
              "pitch": 53,
              "velocity": 26,
              "position": 5.666666666666667,
              "duration": 0.010416666666666666
            },
            {
              "pitch": 28,
              "velocity": 29,
              "position": 5,
              "duration": 1
            },
            {
              "pitch": 33,
              "velocity": 34,
              "position": 6,
              "duration": 0.010416666666666666
            },
            {
              "pitch": 59,
              "velocity": 36,
              "position": 6,
              "duration": 0.010416666666666666
            },
            {
              "pitch": 25,
              "velocity": 40,
              "position": 6.666666666666667,
              "duration": 0.010416666666666666
            },
            {
              "pitch": 26,
              "velocity": 51,
              "position": 6,
              "duration": 1
            },
            {
              "pitch": 44,
              "velocity": 30,
              "position": 7,
              "duration": 0.010416666666666666
            },
            {
              "pitch": 59,
              "velocity": 36,
              "position": 7,
              "duration": 0.010416666666666666
            },
            {
              "pitch": 25,
              "velocity": 25,
              "position": 7.333333333333333,
              "duration": 0.010416666666666666
            },
            {
              "pitch": 38,
              "velocity": 25,
              "position": 7.666666666666667,
              "duration": 0.010416666666666666
            },
            {
              "pitch": 53,
              "velocity": 26,
              "position": 7.666666666666667,
              "duration": 0.010416666666666666
            },
            {
              "pitch": 26,
              "velocity": 31,
              "position": 7,
              "duration": 1
            },
            {
              "pitch": 44,
              "velocity": 37,
              "position": 8,
              "duration": 0.010416666666666666
            },
            {
              "pitch": 59,
              "velocity": 36,
              "position": 8,
              "duration": 0.010416666666666666
            },
            {
              "pitch": 25,
              "velocity": 25,
              "position": 8.333333333333334,
              "duration": 0.010416666666666666
            },
            {
              "pitch": 33,
              "velocity": 34,
              "position": 8.666666666666666,
              "duration": 0.010416666666666666
            },
            {
              "pitch": 38,
              "velocity": 40,
              "position": 8.666666666666666,
              "duration": 0.010416666666666666
            },
            {
              "pitch": 28,
              "velocity": 29,
              "position": 8,
              "duration": 1
            },
            {
              "pitch": 33,
              "velocity": 34,
              "position": 9,
              "duration": 0.010416666666666666
            },
            {
              "pitch": 53,
              "velocity": 33,
              "position": 9,
              "duration": 0.010416666666666666
            },
            {
              "pitch": 59,
              "velocity": 26,
              "position": 9.666666666666666,
              "duration": 0.010416666666666666
            },
            {
              "pitch": 26,
              "velocity": 51,
              "position": 9,
              "duration": 1
            },
            {
              "pitch": 44,
              "velocity": 30,
              "position": 10,
              "duration": 0.010416666666666666
            },
            {
              "pitch": 59,
              "velocity": 36,
              "position": 10,
              "duration": 0.010416666666666666
            },
            {
              "pitch": 25,
              "velocity": 25,
              "position": 10.333333333333334,
              "duration": 0.010416666666666666
            },
            {
              "pitch": 38,
              "velocity": 40,
              "position": 10.666666666666666,
              "duration": 0.010416666666666666
            },
            {
              "pitch": 26,
              "velocity": 31,
              "position": 10,
              "duration": 1
            },
            {
              "pitch": 44,
              "velocity": 37,
              "position": 11,
              "duration": 0.010416666666666666
            },
            {
              "pitch": 59,
              "velocity": 36,
              "position": 11,
              "duration": 0.010416666666666666
            },
            {
              "pitch": 33,
              "velocity": 34,
              "position": 11.666666666666666,
              "duration": 0.010416666666666666
            },
            {
              "pitch": 53,
              "velocity": 26,
              "position": 11.666666666666666,
              "duration": 0.010416666666666666
            },
            {
              "pitch": 28,
              "velocity": 29,
              "position": 11,
              "duration": 1
            }
          ]
        },
        "10": {
          "ctab": {
            "srcChannel": 10,
            "name": "Bass",
            "accType": "BASS",
            "editable": false,
            "mutedNotes": [],
            "mutedChords": [],
            "autoStart": false,
            "sourceChordNote": 0,
            "sourceChordType": "Maj7",
            "ctb2Low": null,
            "ctb2Main": {
              "ntr": "ROOT_TRANSPOSITION",
              "ntt": "MELODY",
              "bassOn": true,
              "chordRootUpperLimit": 8,
              "noteLowLimit": 28,
              "noteHighLimit": 127,
              "rtr": "PITCH_SHIFT_TO_ROOT"
            },
            "ctb2High": null
          },
          "notes": [
            {
              "pitch": 36,
              "velocity": 50,
              "position": 0,
              "duration": 1.5729166666666667
            },
            {
              "pitch": 24,
              "velocity": 50,
              "position": 1.5833333333333333,
              "duration": 1.40625
            },
            {
              "pitch": 31,
              "velocity": 50,
              "position": 3,
              "duration": 1.5729166666666667
            },
            {
              "pitch": 31,
              "velocity": 50,
              "position": 4.583333333333333,
              "duration": 1.40625
            },
            {
              "pitch": 36,
              "velocity": 50,
              "position": 6,
              "duration": 1.5729166666666667
            },
            {
              "pitch": 36,
              "velocity": 50,
              "position": 7.583333333333333,
              "duration": 1.40625
            },
            {
              "pitch": 28,
              "velocity": 50,
              "position": 9,
              "duration": 1.5729166666666667
            },
            {
              "pitch": 31,
              "velocity": 50,
              "position": 10.583333333333334,
              "duration": 1.40625
            }
          ]
        },
        "12": {
          "ctab": {
            "srcChannel": 12,
            "name": "Str",
            "accType": "PAD",
            "editable": false,
            "mutedNotes": [],
            "mutedChords": [],
            "autoStart": false,
            "sourceChordNote": 0,
            "sourceChordType": "Maj7",
            "ctb2Low": null,
            "ctb2Main": {
              "ntr": "ROOT_FIXED",
              "ntt": "CHORD",
              "bassOn": false,
              "chordRootUpperLimit": 7,
              "noteLowLimit": 0,
              "noteHighLimit": 127,
              "rtr": "PITCH_SHIFT"
            },
            "ctb2High": null
          },
          "notes": [
            {
              "pitch": 55,
              "velocity": 62,
              "position": 0,
              "duration": 11.989583333333334
            },
            {
              "pitch": 64,
              "velocity": 62,
              "position": 0,
              "duration": 11.989583333333334
            },
            {
              "pitch": 59,
              "velocity": 62,
              "position": 0,
              "duration": 11.989583333333334
            }
          ]
        },
        "13": {
          "ctab": {
            "srcChannel": 13,
            "name": "Str Root",
            "accType": "PAD",
            "editable": false,
            "mutedNotes": [],
            "mutedChords": [
              "1+2+5",
              "sus4",
              "1+5",
              "1+8",
              "Maj7aug",
              "dim",
              "minMaj7(9)",
              "minMaj7",
              "min6",
              "min",
              "aug",
              "Maj7(9)",
              "Maj7#11",
              "Maj7",
              "Maj6",
              "Maj"
            ],
            "autoStart": false,
            "sourceChordNote": 0,
            "sourceChordType": "Maj7",
            "ctb2Low": null,
            "ctb2Main": {
              "ntr": "ROOT_TRANSPOSITION",
              "ntt": "CHORD",
              "bassOn": false,
              "chordRootUpperLimit": 6,
              "noteLowLimit": 0,
              "noteHighLimit": 127,
              "rtr": "PITCH_SHIFT_TO_ROOT"
            },
            "ctb2High": null
          },
          "notes": [
            {
              "pitch": 60,
              "velocity": 62,
              "position": 0,
              "duration": 11.989583333333334
            }
          ]
        }
      }
    },
    "Fill_In_AA": {
      "type": "Fill_In_AA",
      "sizeInBeats": 3,
      "channels": {
        "0": {
          "ctab": {
            "srcChannel": 0,
            "name": "gt 3 & 7",
            "accType": "CHORD1",
            "editable": false,
            "mutedNotes": [],
            "mutedChords": [],
            "autoStart": false,
            "sourceChordNote": 0,
            "sourceChordType": "Maj7",
            "ctb2Low": null,
            "ctb2Main": {
              "ntr": "ROOT_TRANSPOSITION",
              "ntt": "MELODY",
              "bassOn": false,
              "chordRootUpperLimit": 8,
              "noteLowLimit": 54,
              "noteHighLimit": 65,
              "rtr": "PITCH_SHIFT"
            },
            "ctb2High": null
          },
          "notes": [
            {
              "pitch": 59,
              "velocity": 30,
              "position": 0.6770833333333334,
              "duration": 0.3541666666666667
            },
            {
              "pitch": 64,
              "velocity": 30,
              "position": 0.6875,
              "duration": 0.3541666666666667
            },
            {
              "pitch": 59,
              "velocity": 40,
              "position": 2.0104166666666665,
              "duration": 0.9791666666666666
            },
            {
              "pitch": 64,
              "velocity": 40,
              "position": 2.0208333333333335,
              "duration": 0.9791666666666666
            }
          ]
        },
        "1": {
          "ctab": {
            "srcChannel": 1,
            "name": "gt 5",
            "accType": "CHORD1",
            "editable": false,
            "mutedNotes": [],
            "mutedChords": [
              "1+5",
              "1+8",
              "7(#9)",
              "7(b9)",
              "7(13)",
              "7(9)",
              "minMaj7(9)",
              "min7(9)",
              "Maj7(9)"
            ],
            "autoStart": false,
            "sourceChordNote": 0,
            "sourceChordType": "Maj7",
            "ctb2Low": null,
            "ctb2Main": {
              "ntr": "ROOT_TRANSPOSITION",
              "ntt": "CHORD",
              "bassOn": false,
              "chordRootUpperLimit": 8,
              "noteLowLimit": 54,
              "noteHighLimit": 65,
              "rtr": "PITCH_SHIFT"
            },
            "ctb2High": null
          },
          "notes": [
            {
              "pitch": 55,
              "velocity": 30,
              "position": 0.6666666666666666,
              "duration": 0.3541666666666667
            },
            {
              "pitch": 55,
              "velocity": 40,
              "position": 2,
              "duration": 0.9791666666666666
            }
          ]
        },
        "2": {
          "ctab": {
            "srcChannel": 2,
            "name": "gt 5 & 9",
            "accType": "CHORD1",
            "editable": false,
            "mutedNotes": [],
            "mutedChords": [
              "1+2+5",
              "sus4",
              "1+5",
              "1+8",
              "7aug",
              "Maj7aug",
              "7(b13)",
              "7(13)",
              "7#11",
              "7b5",
              "7sus4",
              "7th",
              "dim7",
              "dim",
              "minMaj7",
              "min7(11)",
              "min(9)",
              "m7b5",
              "min7",
              "min6",
              "min",
              "aug",
              "Maj6(9)",
              "Maj(9)",
              "Maj7#11",
              "Maj7",
              "Maj6",
              "Maj"
            ],
            "autoStart": false,
            "sourceChordNote": 0,
            "sourceChordType": "Maj7",
            "ctb2Low": null,
            "ctb2Main": {
              "ntr": "ROOT_TRANSPOSITION",
              "ntt": "MELODY",
              "bassOn": false,
              "chordRootUpperLimit": 8,
              "noteLowLimit": 62,
              "noteHighLimit": 73,
              "rtr": "PITCH_SHIFT"
            },
            "ctb2High": null
          },
          "notes": [
            {
              "pitch": 67,
              "velocity": 30,
              "position": 0.6770833333333334,
              "duration": 0.3541666666666667
            },
            {
              "pitch": 62,
              "velocity": 30,
              "position": 0.6875,
              "duration": 0.3541666666666667
            },
            {
              "pitch": 67,
              "velocity": 40,
              "position": 2.0104166666666665,
              "duration": 0.9791666666666666
            },
            {
              "pitch": 62,
              "velocity": 40,
              "position": 2.0208333333333335,
              "duration": 0.9791666666666666
            }
          ]
        },
        "3": {
          "ctab": {
            "srcChannel": 3,
            "name": "gt 6 & 9",
            "accType": "CHORD1",
            "editable": false,
            "mutedNotes": [],
            "mutedChords": [
              "1+2+5",
              "sus4",
              "1+5",
              "1+8",
              "7aug",
              "Maj7aug",
              "7(#9)",
              "7(b13)",
              "7(b9)",
              "7#11",
              "7(9)",
              "7b5",
              "7sus4",
              "7th",
              "dim7",
              "dim",
              "minMaj7(9)",
              "minMaj7",
              "min7(11)",
              "min7(9)",
              "min(9)",
              "m7b5",
              "min7",
              "min6",
              "min",
              "aug",
              "Maj6(9)",
              "Maj7(9)",
              "Maj(9)",
              "Maj7#11",
              "Maj7",
              "Maj6",
              "Maj"
            ],
            "autoStart": false,
            "sourceChordNote": 0,
            "sourceChordType": "Maj7",
            "ctb2Low": null,
            "ctb2Main": {
              "ntr": "ROOT_TRANSPOSITION",
              "ntt": "MELODY",
              "bassOn": false,
              "chordRootUpperLimit": 8,
              "noteLowLimit": 62,
              "noteHighLimit": 73,
              "rtr": "PITCH_SHIFT"
            },
            "ctb2High": null
          },
          "notes": [
            {
              "pitch": 62,
              "velocity": 30,
              "position": 0.6770833333333334,
              "duration": 0.3541666666666667
            },
            {
              "pitch": 69,
              "velocity": 30,
              "position": 0.6875,
              "duration": 0.3541666666666667
            },
            {
              "pitch": 62,
              "velocity": 40,
              "position": 2.0104166666666665,
              "duration": 0.9791666666666666
            },
            {
              "pitch": 69,
              "velocity": 40,
              "position": 2.0208333333333335,
              "duration": 0.9791666666666666
            }
          ]
        },
        "4": {
          "ctab": {
            "srcChannel": 4,
            "name": "pf",
            "accType": "CHORD2",
            "editable": false,
            "mutedNotes": [],
            "mutedChords": [],
            "autoStart": false,
            "sourceChordNote": 0,
            "sourceChordType": "Maj7",
            "ctb2Low": null,
            "ctb2Main": {
              "ntr": "ROOT_TRANSPOSITION",
              "ntt": "CHORD",
              "bassOn": false,
              "chordRootUpperLimit": 11,
              "noteLowLimit": 52,
              "noteHighLimit": 127,
              "rtr": "PITCH_SHIFT"
            },
            "ctb2High": null
          },
          "notes": [
            {
              "pitch": 40,
              "velocity": 55,
              "position": 0,
              "duration": 2.902083333333333
            },
            {
              "pitch": 47,
              "velocity": 55,
              "position": 0,
              "duration": 2.902083333333333
            },
            {
              "pitch": 43,
              "velocity": 55,
              "position": 0,
              "duration": 2.902083333333333
            }
          ]
        },
        "5": {
          "ctab": {
            "srcChannel": 5,
            "name": "pf 1",
            "accType": "CHORD2",
            "editable": false,
            "mutedNotes": [],
            "mutedChords": [
              "1+2+5",
              "sus4",
              "1+5",
              "1+8",
              "7aug",
              "Maj7aug",
              "7(#9)",
              "7(b13)",
              "7(b9)",
              "7(13)",
              "7#11",
              "7(9)",
              "7b5",
              "7sus4",
              "7th",
              "dim",
              "minMaj7(9)",
              "minMaj7",
              "min7(11)",
              "min7(9)",
              "min6",
              "min",
              "aug",
              "Maj6(9)",
              "Maj7(9)",
              "Maj7#11",
              "Maj7",
              "Maj6",
              "Maj"
            ],
            "autoStart": false,
            "sourceChordNote": 0,
            "sourceChordType": "Maj7",
            "ctb2Low": null,
            "ctb2Main": {
              "ntr": "ROOT_TRANSPOSITION",
              "ntt": "MELODY",
              "bassOn": false,
              "chordRootUpperLimit": 8,
              "noteLowLimit": 52,
              "noteHighLimit": 63,
              "rtr": "PITCH_SHIFT"
            },
            "ctb2High": null
          },
          "notes": [
            {
              "pitch": 48,
              "velocity": 55,
              "position": 0,
              "duration": 2.902083333333333
            }
          ]
        },
        "6": {
          "ctab": {
            "srcChannel": 6,
            "name": "pf 5",
            "accType": "CHORD2",
            "editable": false,
            "mutedNotes": [],
            "mutedChords": [
              "1+2+5",
              "sus4",
              "1+5",
              "1+8",
              "7aug",
              "Maj7aug",
              "7(#9)",
              "7(b13)",
              "7(b9)",
              "7(13)",
              "7#11",
              "7b5",
              "7sus4",
              "7th",
              "dim7",
              "dim",
              "minMaj7",
              "min7(11)",
              "min(9)",
              "m7b5",
              "min7",
              "min",
              "aug",
              "Maj(9)",
              "Maj7#11",
              "Maj7",
              "Maj"
            ],
            "autoStart": false,
            "sourceChordNote": 0,
            "sourceChordType": "Maj7",
            "ctb2Low": null,
            "ctb2Main": {
              "ntr": "ROOT_TRANSPOSITION",
              "ntt": "MELODY",
              "bassOn": false,
              "chordRootUpperLimit": 8,
              "noteLowLimit": 52,
              "noteHighLimit": 63,
              "rtr": "PITCH_SHIFT"
            },
            "ctb2High": null
          },
          "notes": [
            {
              "pitch": 43,
              "velocity": 55,
              "position": 0,
              "duration": 2.902083333333333
            }
          ]
        },
        "7": {
          "ctab": {
            "srcChannel": 7,
            "name": "pf 9",
            "accType": "CHORD2",
            "editable": false,
            "mutedNotes": [],
            "mutedChords": [
              "1+2+5",
              "sus4",
              "1+5",
              "1+8",
              "7aug",
              "Maj7aug",
              "7(#9)",
              "7(b9)",
              "7(9)",
              "7b5",
              "7sus4",
              "7th",
              "dim7",
              "dim",
              "minMaj7(9)",
              "minMaj7",
              "min7(9)",
              "min(9)",
              "m7b5",
              "min7",
              "min6",
              "min",
              "aug",
              "Maj6(9)",
              "Maj7(9)",
              "Maj(9)",
              "Maj7#11",
              "Maj7",
              "Maj6",
              "Maj"
            ],
            "autoStart": false,
            "sourceChordNote": 0,
            "sourceChordType": "Maj7",
            "ctb2Low": null,
            "ctb2Main": {
              "ntr": "ROOT_TRANSPOSITION",
              "ntt": "MELODY",
              "bassOn": false,
              "chordRootUpperLimit": 8,
              "noteLowLimit": 56,
              "noteHighLimit": 67,
              "rtr": "PITCH_SHIFT"
            },
            "ctb2High": null
          },
          "notes": [
            {
              "pitch": 62,
              "velocity": 55,
              "position": 0,
              "duration": 2.902083333333333
            }
          ]
        },
        "8": {
          "ctab": {
            "srcChannel": 8,
            "name": "CC Crash",
            "accType": "RHYTHM",
            "editable": true,
            "mutedNotes": [],
            "mutedChords": [
              "1+2+5",
              "sus4",
              "1+5",
              "1+8",
              "7aug",
              "Maj7aug",
              "7(#9)",
              "7(b13)",
              "7(b9)",
              "7(13)",
              "7#11",
              "7(9)",
              "7b5",
              "7sus4",
              "7th",
              "dim7",
              "dim",
              "minMaj7(9)",
              "minMaj7",
              "min7(11)",
              "min7(9)",
              "min(9)",
              "m7b5",
              "min7",
              "min6",
              "min",
              "aug",
              "Maj6(9)",
              "Maj7(9)",
              "Maj(9)",
              "Maj7#11",
              "Maj7",
              "Maj6",
              "Maj"
            ],
            "autoStart": true,
            "sourceChordNote": 0,
            "sourceChordType": "Maj7",
            "ctb2Low": null,
            "ctb2Main": {
              "ntr": "ROOT_FIXED",
              "ntt": "BYPASS",
              "bassOn": false,
              "chordRootUpperLimit": 6,
              "noteLowLimit": 0,
              "noteHighLimit": 127,
              "rtr": "RETRIGGER"
            },
            "ctb2High": null
          },
          "notes": []
        },
        "9": {
          "ctab": {
            "srcChannel": 9,
            "name": "Drs",
            "accType": "RHYTHM",
            "editable": false,
            "mutedNotes": [],
            "mutedChords": [],
            "autoStart": true,
            "sourceChordNote": 0,
            "sourceChordType": "Maj7",
            "ctb2Low": null,
            "ctb2Main": {
              "ntr": "ROOT_FIXED",
              "ntt": "BYPASS",
              "bassOn": false,
              "chordRootUpperLimit": 6,
              "noteLowLimit": 0,
              "noteHighLimit": 127,
              "rtr": "PITCH_SHIFT"
            },
            "ctb2High": null
          },
          "notes": [
            {
              "pitch": 33,
              "velocity": 34,
              "position": 0,
              "duration": 0.010416666666666666
            },
            {
              "pitch": 40,
              "velocity": 68,
              "position": 0.6666666666666666,
              "duration": 0.010416666666666666
            },
            {
              "pitch": 26,
              "velocity": 47,
              "position": 0,
              "duration": 1
            },
            {
              "pitch": 44,
              "velocity": 20,
              "position": 1,
              "duration": 0.010416666666666666
            },
            {
              "pitch": 25,
              "velocity": 30,
              "position": 1.3333333333333333,
              "duration": 0.010416666666666666
            },
            {
              "pitch": 33,
              "velocity": 46,
              "position": 1.6666666666666667,
              "duration": 0.010416666666666666
            },
            {
              "pitch": 26,
              "velocity": 47,
              "position": 1,
              "duration": 1
            },
            {
              "pitch": 33,
              "velocity": 66,
              "position": 2,
              "duration": 0.010416666666666666
            },
            {
              "pitch": 44,
              "velocity": 32,
              "position": 2,
              "duration": 0.010416666666666666
            },
            {
              "pitch": 28,
              "velocity": 29,
              "position": 2,
              "duration": 1
            },
            {
              "pitch": 57,
              "velocity": 36,
              "position": 2.9895833333333335,
              "duration": 0.010416666666666666
            }
          ]
        },
        "10": {
          "ctab": {
            "srcChannel": 10,
            "name": "Bass",
            "accType": "BASS",
            "editable": false,
            "mutedNotes": [],
            "mutedChords": [],
            "autoStart": false,
            "sourceChordNote": 0,
            "sourceChordType": "Maj7",
            "ctb2Low": null,
            "ctb2Main": {
              "ntr": "ROOT_TRANSPOSITION",
              "ntt": "MELODY",
              "bassOn": true,
              "chordRootUpperLimit": 8,
              "noteLowLimit": 28,
              "noteHighLimit": 127,
              "rtr": "PITCH_SHIFT_TO_ROOT"
            },
            "ctb2High": null
          },
          "notes": [
            {
              "pitch": 31,
              "velocity": 50,
              "position": 0,
              "duration": 1.9895833333333333
            },
            {
              "pitch": 28,
              "velocity": 40,
              "position": 2,
              "duration": 0.9895833333333334
            }
          ]
        },
        "12": {
          "ctab": {
            "srcChannel": 12,
            "name": "Str",
            "accType": "PAD",
            "editable": false,
            "mutedNotes": [],
            "mutedChords": [],
            "autoStart": false,
            "sourceChordNote": 0,
            "sourceChordType": "Maj7",
            "ctb2Low": null,
            "ctb2Main": {
              "ntr": "ROOT_FIXED",
              "ntt": "CHORD",
              "bassOn": false,
              "chordRootUpperLimit": 7,
              "noteLowLimit": 0,
              "noteHighLimit": 127,
              "rtr": "PITCH_SHIFT"
            },
            "ctb2High": null
          },
          "notes": [
            {
              "pitch": 55,
              "velocity": 62,
              "position": 0,
              "duration": 2.9895833333333335
            },
            {
              "pitch": 64,
              "velocity": 62,
              "position": 0,
              "duration": 2.9895833333333335
            },
            {
              "pitch": 59,
              "velocity": 62,
              "position": 0,
              "duration": 2.9895833333333335
            }
          ]
        },
        "13": {
          "ctab": {
            "srcChannel": 13,
            "name": "Str Root",
            "accType": "PAD",
            "editable": false,
            "mutedNotes": [],
            "mutedChords": [
              "1+2+5",
              "sus4",
              "1+5",
              "1+8",
              "Maj7aug",
              "dim",
              "minMaj7(9)",
              "minMaj7",
              "min6",
              "min",
              "aug",
              "Maj7(9)",
              "Maj7#11",
              "Maj7",
              "Maj6",
              "Maj"
            ],
            "autoStart": false,
            "sourceChordNote": 0,
            "sourceChordType": "Maj7",
            "ctb2Low": null,
            "ctb2Main": {
              "ntr": "ROOT_TRANSPOSITION",
              "ntt": "CHORD",
              "bassOn": false,
              "chordRootUpperLimit": 6,
              "noteLowLimit": 0,
              "noteHighLimit": 127,
              "rtr": "PITCH_SHIFT_TO_ROOT"
            },
            "ctb2High": null
          },
          "notes": [
            {
              "pitch": 60,
              "velocity": 62,
              "position": 0,
              "duration": 2.9895833333333335
            }
          ]
        }
      }
    },
    "Fill_In_BB": {
      "type": "Fill_In_BB",
      "sizeInBeats": 3,
      "channels": {
        "0": {
          "ctab": {
            "srcChannel": 0,
            "name": "gt 3 & 7",
            "accType": "CHORD1",
            "editable": false,
            "mutedNotes": [],
            "mutedChords": [],
            "autoStart": false,
            "sourceChordNote": 0,
            "sourceChordType": "Maj7",
            "ctb2Low": null,
            "ctb2Main": {
              "ntr": "ROOT_TRANSPOSITION",
              "ntt": "MELODY",
              "bassOn": false,
              "chordRootUpperLimit": 8,
              "noteLowLimit": 54,
              "noteHighLimit": 65,
              "rtr": "PITCH_SHIFT"
            },
            "ctb2High": null
          },
          "notes": [
            {
              "pitch": 59,
              "velocity": 40,
              "position": 0.6770833333333334,
              "duration": 0.9791666666666666
            },
            {
              "pitch": 64,
              "velocity": 40,
              "position": 0.6875,
              "duration": 0.96875
            },
            {
              "pitch": 59,
              "velocity": 30,
              "position": 1.6770833333333333,
              "duration": 0.3125
            },
            {
              "pitch": 64,
              "velocity": 30,
              "position": 1.6875,
              "duration": 0.3020833333333333
            },
            {
              "pitch": 59,
              "velocity": 35,
              "position": 2.0104166666666665,
              "duration": 0.6458333333333334
            },
            {
              "pitch": 64,
              "velocity": 35,
              "position": 2.0208333333333335,
              "duration": 0.6354166666666666
            },
            {
              "pitch": 59,
              "velocity": 30,
              "position": 2.6770833333333335,
              "duration": 0.3125
            },
            {
              "pitch": 64,
              "velocity": 30,
              "position": 2.6875,
              "duration": 0.3125
            }
          ]
        },
        "1": {
          "ctab": {
            "srcChannel": 1,
            "name": "gt 5",
            "accType": "CHORD1",
            "editable": false,
            "mutedNotes": [],
            "mutedChords": [
              "1+5",
              "1+8",
              "7(#9)",
              "7(b9)",
              "7(13)",
              "7(9)",
              "minMaj7(9)",
              "min7(9)",
              "Maj7(9)"
            ],
            "autoStart": false,
            "sourceChordNote": 0,
            "sourceChordType": "Maj7",
            "ctb2Low": null,
            "ctb2Main": {
              "ntr": "ROOT_TRANSPOSITION",
              "ntt": "CHORD",
              "bassOn": false,
              "chordRootUpperLimit": 8,
              "noteLowLimit": 54,
              "noteHighLimit": 65,
              "rtr": "PITCH_SHIFT"
            },
            "ctb2High": null
          },
          "notes": [
            {
              "pitch": 55,
              "velocity": 40,
              "position": 0.6666666666666666,
              "duration": 0.9895833333333334
            },
            {
              "pitch": 55,
              "velocity": 30,
              "position": 1.6666666666666667,
              "duration": 0.3125
            },
            {
              "pitch": 55,
              "velocity": 35,
              "position": 2,
              "duration": 0.6458333333333334
            },
            {
              "pitch": 55,
              "velocity": 30,
              "position": 2.6666666666666665,
              "duration": 0.3125
            }
          ]
        },
        "2": {
          "ctab": {
            "srcChannel": 2,
            "name": "gt 5 & 9",
            "accType": "CHORD1",
            "editable": false,
            "mutedNotes": [],
            "mutedChords": [
              "1+2+5",
              "sus4",
              "1+5",
              "1+8",
              "7aug",
              "Maj7aug",
              "7(b13)",
              "7(13)",
              "7#11",
              "7b5",
              "7sus4",
              "7th",
              "dim7",
              "dim",
              "minMaj7",
              "min7(11)",
              "min(9)",
              "m7b5",
              "min7",
              "min6",
              "min",
              "aug",
              "Maj6(9)",
              "Maj(9)",
              "Maj7#11",
              "Maj7",
              "Maj6",
              "Maj"
            ],
            "autoStart": false,
            "sourceChordNote": 0,
            "sourceChordType": "Maj7",
            "ctb2Low": null,
            "ctb2Main": {
              "ntr": "ROOT_TRANSPOSITION",
              "ntt": "MELODY",
              "bassOn": false,
              "chordRootUpperLimit": 8,
              "noteLowLimit": 62,
              "noteHighLimit": 73,
              "rtr": "PITCH_SHIFT"
            },
            "ctb2High": null
          },
          "notes": [
            {
              "pitch": 67,
              "velocity": 40,
              "position": 0.6770833333333334,
              "duration": 0.9791666666666666
            },
            {
              "pitch": 62,
              "velocity": 40,
              "position": 0.6875,
              "duration": 0.96875
            },
            {
              "pitch": 67,
              "velocity": 30,
              "position": 1.6770833333333333,
              "duration": 0.3125
            },
            {
              "pitch": 62,
              "velocity": 30,
              "position": 1.6875,
              "duration": 0.3020833333333333
            },
            {
              "pitch": 67,
              "velocity": 35,
              "position": 2.0104166666666665,
              "duration": 0.6458333333333334
            },
            {
              "pitch": 62,
              "velocity": 35,
              "position": 2.0208333333333335,
              "duration": 0.6354166666666666
            },
            {
              "pitch": 67,
              "velocity": 30,
              "position": 2.6770833333333335,
              "duration": 0.3125
            },
            {
              "pitch": 62,
              "velocity": 30,
              "position": 2.6875,
              "duration": 0.3125
            }
          ]
        },
        "3": {
          "ctab": {
            "srcChannel": 3,
            "name": "gt 6 & 9",
            "accType": "CHORD1",
            "editable": false,
            "mutedNotes": [],
            "mutedChords": [
              "1+2+5",
              "sus4",
              "1+5",
              "1+8",
              "7aug",
              "Maj7aug",
              "7(#9)",
              "7(b13)",
              "7(b9)",
              "7#11",
              "7(9)",
              "7b5",
              "7sus4",
              "7th",
              "dim7",
              "dim",
              "minMaj7(9)",
              "minMaj7",
              "min7(11)",
              "min7(9)",
              "min(9)",
              "m7b5",
              "min7",
              "min6",
              "min",
              "aug",
              "Maj6(9)",
              "Maj7(9)",
              "Maj(9)",
              "Maj7#11",
              "Maj7",
              "Maj6",
              "Maj"
            ],
            "autoStart": false,
            "sourceChordNote": 0,
            "sourceChordType": "Maj7",
            "ctb2Low": null,
            "ctb2Main": {
              "ntr": "ROOT_TRANSPOSITION",
              "ntt": "MELODY",
              "bassOn": false,
              "chordRootUpperLimit": 8,
              "noteLowLimit": 62,
              "noteHighLimit": 73,
              "rtr": "PITCH_SHIFT"
            },
            "ctb2High": null
          },
          "notes": [
            {
              "pitch": 62,
              "velocity": 40,
              "position": 0.6770833333333334,
              "duration": 0.9791666666666666
            },
            {
              "pitch": 69,
              "velocity": 40,
              "position": 0.6875,
              "duration": 0.96875
            },
            {
              "pitch": 62,
              "velocity": 30,
              "position": 1.6770833333333333,
              "duration": 0.3125
            },
            {
              "pitch": 69,
              "velocity": 30,
              "position": 1.6875,
              "duration": 0.3020833333333333
            },
            {
              "pitch": 62,
              "velocity": 35,
              "position": 2.0104166666666665,
              "duration": 0.6458333333333334
            },
            {
              "pitch": 69,
              "velocity": 35,
              "position": 2.0208333333333335,
              "duration": 0.6354166666666666
            },
            {
              "pitch": 62,
              "velocity": 30,
              "position": 2.6770833333333335,
              "duration": 0.3125
            },
            {
              "pitch": 69,
              "velocity": 30,
              "position": 2.6875,
              "duration": 0.3125
            }
          ]
        },
        "4": {
          "ctab": {
            "srcChannel": 4,
            "name": "pf",
            "accType": "CHORD2",
            "editable": false,
            "mutedNotes": [],
            "mutedChords": [],
            "autoStart": false,
            "sourceChordNote": 0,
            "sourceChordType": "Maj7",
            "ctb2Low": null,
            "ctb2Main": {
              "ntr": "ROOT_TRANSPOSITION",
              "ntt": "CHORD",
              "bassOn": false,
              "chordRootUpperLimit": 11,
              "noteLowLimit": 52,
              "noteHighLimit": 127,
              "rtr": "PITCH_SHIFT"
            },
            "ctb2High": null
          },
          "notes": [
            {
              "pitch": 64,
              "velocity": 55,
              "position": 0,
              "duration": 1.5979166666666667
            },
            {
              "pitch": 71,
              "velocity": 55,
              "position": 0,
              "duration": 1.5979166666666667
            },
            {
              "pitch": 67,
              "velocity": 55,
              "position": 0,
              "duration": 1.5979166666666667
            },
            {
              "pitch": 59,
              "velocity": 55,
              "position": 1.6666666666666667,
              "duration": 1.2645833333333334
            },
            {
              "pitch": 67,
              "velocity": 55,
              "position": 1.6666666666666667,
              "duration": 1.2645833333333334
            },
            {
              "pitch": 64,
              "velocity": 55,
              "position": 1.6666666666666667,
              "duration": 1.2645833333333334
            }
          ]
        },
        "5": {
          "ctab": {
            "srcChannel": 5,
            "name": "pf 1",
            "accType": "CHORD2",
            "editable": false,
            "mutedNotes": [],
            "mutedChords": [
              "1+2+5",
              "sus4",
              "1+5",
              "1+8",
              "7aug",
              "Maj7aug",
              "7(#9)",
              "7(b13)",
              "7(b9)",
              "7(13)",
              "7#11",
              "7(9)",
              "7b5",
              "7sus4",
              "7th",
              "dim",
              "minMaj7(9)",
              "minMaj7",
              "min7(11)",
              "min7(9)",
              "min6",
              "min",
              "aug",
              "Maj6(9)",
              "Maj7(9)",
              "Maj7#11",
              "Maj7",
              "Maj6",
              "Maj"
            ],
            "autoStart": false,
            "sourceChordNote": 0,
            "sourceChordType": "Maj7",
            "ctb2Low": null,
            "ctb2Main": {
              "ntr": "ROOT_TRANSPOSITION",
              "ntt": "MELODY",
              "bassOn": false,
              "chordRootUpperLimit": 8,
              "noteLowLimit": 52,
              "noteHighLimit": 63,
              "rtr": "PITCH_SHIFT"
            },
            "ctb2High": null
          },
          "notes": []
        },
        "6": {
          "ctab": {
            "srcChannel": 6,
            "name": "pf 5",
            "accType": "CHORD2",
            "editable": false,
            "mutedNotes": [],
            "mutedChords": [
              "1+2+5",
              "sus4",
              "1+5",
              "1+8",
              "7aug",
              "Maj7aug",
              "7(#9)",
              "7(b13)",
              "7(b9)",
              "7(13)",
              "7#11",
              "7b5",
              "7sus4",
              "7th",
              "dim7",
              "dim",
              "minMaj7",
              "min7(11)",
              "min(9)",
              "m7b5",
              "min7",
              "min",
              "aug",
              "Maj(9)",
              "Maj7#11",
              "Maj7",
              "Maj"
            ],
            "autoStart": false,
            "sourceChordNote": 0,
            "sourceChordType": "Maj7",
            "ctb2Low": null,
            "ctb2Main": {
              "ntr": "ROOT_TRANSPOSITION",
              "ntt": "MELODY",
              "bassOn": false,
              "chordRootUpperLimit": 8,
              "noteLowLimit": 52,
              "noteHighLimit": 63,
              "rtr": "PITCH_SHIFT"
            },
            "ctb2High": null
          },
          "notes": []
        },
        "7": {
          "ctab": {
            "srcChannel": 7,
            "name": "pf 9",
            "accType": "CHORD2",
            "editable": false,
            "mutedNotes": [],
            "mutedChords": [
              "1+2+5",
              "sus4",
              "1+5",
              "1+8",
              "7aug",
              "Maj7aug",
              "7(#9)",
              "7(b9)",
              "7(9)",
              "7b5",
              "7sus4",
              "7th",
              "dim7",
              "dim",
              "minMaj7(9)",
              "minMaj7",
              "min7(9)",
              "min(9)",
              "m7b5",
              "min7",
              "min6",
              "min",
              "aug",
              "Maj6(9)",
              "Maj7(9)",
              "Maj(9)",
              "Maj7#11",
              "Maj7",
              "Maj6",
              "Maj"
            ],
            "autoStart": false,
            "sourceChordNote": 0,
            "sourceChordType": "Maj7",
            "ctb2Low": null,
            "ctb2Main": {
              "ntr": "ROOT_TRANSPOSITION",
              "ntt": "MELODY",
              "bassOn": false,
              "chordRootUpperLimit": 8,
              "noteLowLimit": 56,
              "noteHighLimit": 67,
              "rtr": "PITCH_SHIFT"
            },
            "ctb2High": null
          },
          "notes": []
        },
        "8": {
          "ctab": {
            "srcChannel": 8,
            "name": "CC Crash",
            "accType": "RHYTHM",
            "editable": true,
            "mutedNotes": [],
            "mutedChords": [
              "1+2+5",
              "sus4",
              "1+5",
              "1+8",
              "7aug",
              "Maj7aug",
              "7(#9)",
              "7(b13)",
              "7(b9)",
              "7(13)",
              "7#11",
              "7(9)",
              "7b5",
              "7sus4",
              "7th",
              "dim7",
              "dim",
              "minMaj7(9)",
              "minMaj7",
              "min7(11)",
              "min7(9)",
              "min(9)",
              "m7b5",
              "min7",
              "min6",
              "min",
              "aug",
              "Maj6(9)",
              "Maj7(9)",
              "Maj(9)",
              "Maj7#11",
              "Maj7",
              "Maj6",
              "Maj"
            ],
            "autoStart": true,
            "sourceChordNote": 0,
            "sourceChordType": "Maj7",
            "ctb2Low": null,
            "ctb2Main": {
              "ntr": "ROOT_FIXED",
              "ntt": "BYPASS",
              "bassOn": false,
              "chordRootUpperLimit": 6,
              "noteLowLimit": 0,
              "noteHighLimit": 127,
              "rtr": "RETRIGGER"
            },
            "ctb2High": null
          },
          "notes": []
        },
        "9": {
          "ctab": {
            "srcChannel": 9,
            "name": "Drs",
            "accType": "RHYTHM",
            "editable": false,
            "mutedNotes": [],
            "mutedChords": [],
            "autoStart": true,
            "sourceChordNote": 0,
            "sourceChordType": "Maj7",
            "ctb2Low": null,
            "ctb2Main": {
              "ntr": "ROOT_FIXED",
              "ntt": "BYPASS",
              "bassOn": false,
              "chordRootUpperLimit": 6,
              "noteLowLimit": 0,
              "noteHighLimit": 127,
              "rtr": "PITCH_SHIFT"
            },
            "ctb2High": null
          },
          "notes": [
            {
              "pitch": 33,
              "velocity": 34,
              "position": 0,
              "duration": 0.010416666666666666
            },
            {
              "pitch": 40,
              "velocity": 64,
              "position": 0.6666666666666666,
              "duration": 0.010416666666666666
            },
            {
              "pitch": 26,
              "velocity": 47,
              "position": 0,
              "duration": 1
            },
            {
              "pitch": 44,
              "velocity": 26,
              "position": 1,
              "duration": 0.010416666666666666
            },
            {
              "pitch": 25,
              "velocity": 40,
              "position": 1.3333333333333333,
              "duration": 0.010416666666666666
            },
            {
              "pitch": 27,
              "velocity": 40,
              "position": 1.6666666666666667,
              "duration": 0.010416666666666666
            },
            {
              "pitch": 26,
              "velocity": 27,
              "position": 1,
              "duration": 1
            },
            {
              "pitch": 44,
              "velocity": 33,
              "position": 2,
              "duration": 0.010416666666666666
            },
            {
              "pitch": 38,
              "velocity": 40,
              "position": 2.3333333333333335,
              "duration": 0.010416666666666666
            },
            {
              "pitch": 40,
              "velocity": 80,
              "position": 2.6666666666666665,
              "duration": 0.010416666666666666
            },
            {
              "pitch": 28,
              "velocity": 29,
              "position": 2,
              "duration": 1
            },
            {
              "pitch": 57,
              "velocity": 36,
              "position": 2.9895833333333335,
              "duration": 0.010416666666666666
            }
          ]
        },
        "10": {
          "ctab": {
            "srcChannel": 10,
            "name": "Bass",
            "accType": "BASS",
            "editable": false,
            "mutedNotes": [],
            "mutedChords": [],
            "autoStart": false,
            "sourceChordNote": 0,
            "sourceChordType": "Maj7",
            "ctb2Low": null,
            "ctb2Main": {
              "ntr": "ROOT_TRANSPOSITION",
              "ntt": "MELODY",
              "bassOn": true,
              "chordRootUpperLimit": 8,
              "noteLowLimit": 28,
              "noteHighLimit": 127,
              "rtr": "PITCH_SHIFT_TO_ROOT"
            },
            "ctb2High": null
          },
          "notes": [
            {
              "pitch": 36,
              "velocity": 50,
              "position": 0,
              "duration": 0.9895833333333334
            },
            {
              "pitch": 31,
              "velocity": 50,
              "position": 1,
              "duration": 0.9895833333333334
            },
            {
              "pitch": 28,
              "velocity": 40,
              "position": 2,
              "duration": 0.9895833333333334
            }
          ]
        },
        "12": {
          "ctab": {
            "srcChannel": 12,
            "name": "Str",
            "accType": "PAD",
            "editable": false,
            "mutedNotes": [],
            "mutedChords": [],
            "autoStart": false,
            "sourceChordNote": 0,
            "sourceChordType": "Maj7",
            "ctb2Low": null,
            "ctb2Main": {
              "ntr": "ROOT_FIXED",
              "ntt": "CHORD",
              "bassOn": false,
              "chordRootUpperLimit": 7,
              "noteLowLimit": 0,
              "noteHighLimit": 127,
              "rtr": "PITCH_SHIFT"
            },
            "ctb2High": null
          },
          "notes": [
            {
              "pitch": 55,
              "velocity": 62,
              "position": 0,
              "duration": 2.9895833333333335
            },
            {
              "pitch": 64,
              "velocity": 62,
              "position": 0,
              "duration": 2.9895833333333335
            },
            {
              "pitch": 59,
              "velocity": 62,
              "position": 0,
              "duration": 2.9895833333333335
            }
          ]
        },
        "13": {
          "ctab": {
            "srcChannel": 13,
            "name": "Str Root",
            "accType": "PAD",
            "editable": false,
            "mutedNotes": [],
            "mutedChords": [
              "1+2+5",
              "sus4",
              "1+5",
              "1+8",
              "Maj7aug",
              "dim",
              "minMaj7(9)",
              "minMaj7",
              "min6",
              "min",
              "aug",
              "Maj7(9)",
              "Maj7#11",
              "Maj7",
              "Maj6",
              "Maj"
            ],
            "autoStart": false,
            "sourceChordNote": 0,
            "sourceChordType": "Maj7",
            "ctb2Low": null,
            "ctb2Main": {
              "ntr": "ROOT_TRANSPOSITION",
              "ntt": "CHORD",
              "bassOn": false,
              "chordRootUpperLimit": 6,
              "noteLowLimit": 0,
              "noteHighLimit": 127,
              "rtr": "PITCH_SHIFT_TO_ROOT"
            },
            "ctb2High": null
          },
          "notes": [
            {
              "pitch": 60,
              "velocity": 62,
              "position": 0,
              "duration": 2.9895833333333335
            }
          ]
        }
      }
    },
    "Fill_In_CC": {
      "type": "Fill_In_CC",
      "sizeInBeats": 3,
      "channels": {
        "0": {
          "ctab": {
            "srcChannel": 0,
            "name": "gt 3 & 7",
            "accType": "CHORD1",
            "editable": false,
            "mutedNotes": [],
            "mutedChords": [],
            "autoStart": false,
            "sourceChordNote": 0,
            "sourceChordType": "Maj7",
            "ctb2Low": null,
            "ctb2Main": {
              "ntr": "ROOT_TRANSPOSITION",
              "ntt": "MELODY",
              "bassOn": false,
              "chordRootUpperLimit": 8,
              "noteLowLimit": 54,
              "noteHighLimit": 65,
              "rtr": "PITCH_SHIFT"
            },
            "ctb2High": null
          },
          "notes": [
            {
              "pitch": 59,
              "velocity": 40,
              "position": 0.6770833333333334,
              "duration": 0.3125
            },
            {
              "pitch": 64,
              "velocity": 40,
              "position": 0.6875,
              "duration": 0.3020833333333333
            },
            {
              "pitch": 59,
              "velocity": 35,
              "position": 1.6770833333333333,
              "duration": 0.3125
            },
            {
              "pitch": 64,
              "velocity": 35,
              "position": 1.6875,
              "duration": 0.3125
            }
          ]
        },
        "1": {
          "ctab": {
            "srcChannel": 1,
            "name": "gt 5",
            "accType": "CHORD1",
            "editable": false,
            "mutedNotes": [],
            "mutedChords": [
              "1+5",
              "1+8",
              "7(#9)",
              "7(b9)",
              "7(13)",
              "7(9)",
              "minMaj7(9)",
              "min7(9)",
              "Maj7(9)"
            ],
            "autoStart": false,
            "sourceChordNote": 0,
            "sourceChordType": "Maj7",
            "ctb2Low": null,
            "ctb2Main": {
              "ntr": "ROOT_TRANSPOSITION",
              "ntt": "CHORD",
              "bassOn": false,
              "chordRootUpperLimit": 8,
              "noteLowLimit": 54,
              "noteHighLimit": 65,
              "rtr": "PITCH_SHIFT"
            },
            "ctb2High": null
          },
          "notes": [
            {
              "pitch": 55,
              "velocity": 40,
              "position": 0.6666666666666666,
              "duration": 0.3229166666666667
            },
            {
              "pitch": 55,
              "velocity": 35,
              "position": 1.6666666666666667,
              "duration": 0.3125
            }
          ]
        },
        "2": {
          "ctab": {
            "srcChannel": 2,
            "name": "gt 5 & 9",
            "accType": "CHORD1",
            "editable": false,
            "mutedNotes": [],
            "mutedChords": [
              "1+2+5",
              "sus4",
              "1+5",
              "1+8",
              "7aug",
              "Maj7aug",
              "7(b13)",
              "7(13)",
              "7#11",
              "7b5",
              "7sus4",
              "7th",
              "dim7",
              "dim",
              "minMaj7",
              "min7(11)",
              "min(9)",
              "m7b5",
              "min7",
              "min6",
              "min",
              "aug",
              "Maj6(9)",
              "Maj(9)",
              "Maj7#11",
              "Maj7",
              "Maj6",
              "Maj"
            ],
            "autoStart": false,
            "sourceChordNote": 0,
            "sourceChordType": "Maj7",
            "ctb2Low": null,
            "ctb2Main": {
              "ntr": "ROOT_TRANSPOSITION",
              "ntt": "MELODY",
              "bassOn": false,
              "chordRootUpperLimit": 8,
              "noteLowLimit": 62,
              "noteHighLimit": 73,
              "rtr": "PITCH_SHIFT"
            },
            "ctb2High": null
          },
          "notes": [
            {
              "pitch": 67,
              "velocity": 40,
              "position": 0.6770833333333334,
              "duration": 0.3125
            },
            {
              "pitch": 62,
              "velocity": 40,
              "position": 0.6875,
              "duration": 0.3020833333333333
            },
            {
              "pitch": 67,
              "velocity": 35,
              "position": 1.6770833333333333,
              "duration": 0.3125
            },
            {
              "pitch": 62,
              "velocity": 35,
              "position": 1.6875,
              "duration": 0.3125
            }
          ]
        },
        "3": {
          "ctab": {
            "srcChannel": 3,
            "name": "gt 6 & 9",
            "accType": "CHORD1",
            "editable": false,
            "mutedNotes": [],
            "mutedChords": [
              "1+2+5",
              "sus4",
              "1+5",
              "1+8",
              "7aug",
              "Maj7aug",
              "7(#9)",
              "7(b13)",
              "7(b9)",
              "7#11",
              "7(9)",
              "7b5",
              "7sus4",
              "7th",
              "dim7",
              "dim",
              "minMaj7(9)",
              "minMaj7",
              "min7(11)",
              "min7(9)",
              "min(9)",
              "m7b5",
              "min7",
              "min6",
              "min",
              "aug",
              "Maj6(9)",
              "Maj7(9)",
              "Maj(9)",
              "Maj7#11",
              "Maj7",
              "Maj6",
              "Maj"
            ],
            "autoStart": false,
            "sourceChordNote": 0,
            "sourceChordType": "Maj7",
            "ctb2Low": null,
            "ctb2Main": {
              "ntr": "ROOT_TRANSPOSITION",
              "ntt": "MELODY",
              "bassOn": false,
              "chordRootUpperLimit": 8,
              "noteLowLimit": 62,
              "noteHighLimit": 73,
              "rtr": "PITCH_SHIFT"
            },
            "ctb2High": null
          },
          "notes": [
            {
              "pitch": 62,
              "velocity": 40,
              "position": 0.6770833333333334,
              "duration": 0.3125
            },
            {
              "pitch": 69,
              "velocity": 40,
              "position": 0.6875,
              "duration": 0.3020833333333333
            },
            {
              "pitch": 62,
              "velocity": 35,
              "position": 1.6770833333333333,
              "duration": 0.3125
            },
            {
              "pitch": 69,
              "velocity": 35,
              "position": 1.6875,
              "duration": 0.3125
            }
          ]
        },
        "4": {
          "ctab": {
            "srcChannel": 4,
            "name": "pf",
            "accType": "CHORD2",
            "editable": false,
            "mutedNotes": [],
            "mutedChords": [],
            "autoStart": false,
            "sourceChordNote": 0,
            "sourceChordType": "Maj7",
            "ctb2Low": null,
            "ctb2Main": {
              "ntr": "ROOT_TRANSPOSITION",
              "ntt": "CHORD",
              "bassOn": false,
              "chordRootUpperLimit": 11,
              "noteLowLimit": 52,
              "noteHighLimit": 127,
              "rtr": "PITCH_SHIFT"
            },
            "ctb2High": null
          },
          "notes": [
            {
              "pitch": 40,
              "velocity": 55,
              "position": 0.6666666666666666,
              "duration": 0.26458333333333334
            },
            {
              "pitch": 47,
              "velocity": 55,
              "position": 0.6666666666666666,
              "duration": 0.26458333333333334
            },
            {
              "pitch": 43,
              "velocity": 55,
              "position": 0.6666666666666666,
              "duration": 0.26458333333333334
            },
            {
              "pitch": 59,
              "velocity": 60,
              "position": 1.6666666666666667,
              "duration": 1.2645833333333334
            },
            {
              "pitch": 67,
              "velocity": 60,
              "position": 1.6666666666666667,
              "duration": 1.2645833333333334
            },
            {
              "pitch": 64,
              "velocity": 60,
              "position": 1.6666666666666667,
              "duration": 1.2645833333333334
            }
          ]
        },
        "5": {
          "ctab": {
            "srcChannel": 5,
            "name": "pf 1",
            "accType": "CHORD2",
            "editable": false,
            "mutedNotes": [],
            "mutedChords": [
              "1+2+5",
              "sus4",
              "1+5",
              "1+8",
              "7aug",
              "Maj7aug",
              "7(#9)",
              "7(b13)",
              "7(b9)",
              "7(13)",
              "7#11",
              "7(9)",
              "7b5",
              "7sus4",
              "7th",
              "dim",
              "minMaj7(9)",
              "minMaj7",
              "min7(11)",
              "min7(9)",
              "min6",
              "min",
              "aug",
              "Maj6(9)",
              "Maj7(9)",
              "Maj7#11",
              "Maj7",
              "Maj6",
              "Maj"
            ],
            "autoStart": false,
            "sourceChordNote": 0,
            "sourceChordType": "Maj7",
            "ctb2Low": null,
            "ctb2Main": {
              "ntr": "ROOT_TRANSPOSITION",
              "ntt": "MELODY",
              "bassOn": false,
              "chordRootUpperLimit": 8,
              "noteLowLimit": 52,
              "noteHighLimit": 63,
              "rtr": "PITCH_SHIFT"
            },
            "ctb2High": null
          },
          "notes": [
            {
              "pitch": 48,
              "velocity": 55,
              "position": 0.6666666666666666,
              "duration": 0.26458333333333334
            }
          ]
        },
        "6": {
          "ctab": {
            "srcChannel": 6,
            "name": "pf 5",
            "accType": "CHORD2",
            "editable": false,
            "mutedNotes": [],
            "mutedChords": [
              "1+2+5",
              "sus4",
              "1+5",
              "1+8",
              "7aug",
              "Maj7aug",
              "7(#9)",
              "7(b13)",
              "7(b9)",
              "7(13)",
              "7#11",
              "7b5",
              "7sus4",
              "7th",
              "dim7",
              "dim",
              "minMaj7",
              "min7(11)",
              "min(9)",
              "m7b5",
              "min7",
              "min",
              "aug",
              "Maj(9)",
              "Maj7#11",
              "Maj7",
              "Maj"
            ],
            "autoStart": false,
            "sourceChordNote": 0,
            "sourceChordType": "Maj7",
            "ctb2Low": null,
            "ctb2Main": {
              "ntr": "ROOT_TRANSPOSITION",
              "ntt": "MELODY",
              "bassOn": false,
              "chordRootUpperLimit": 8,
              "noteLowLimit": 52,
              "noteHighLimit": 63,
              "rtr": "PITCH_SHIFT"
            },
            "ctb2High": null
          },
          "notes": [
            {
              "pitch": 43,
              "velocity": 55,
              "position": 0.6666666666666666,
              "duration": 0.26458333333333334
            }
          ]
        },
        "7": {
          "ctab": {
            "srcChannel": 7,
            "name": "pf 9",
            "accType": "CHORD2",
            "editable": false,
            "mutedNotes": [],
            "mutedChords": [
              "1+2+5",
              "sus4",
              "1+5",
              "1+8",
              "7aug",
              "Maj7aug",
              "7(#9)",
              "7(b9)",
              "7(9)",
              "7b5",
              "7sus4",
              "7th",
              "dim7",
              "dim",
              "minMaj7(9)",
              "minMaj7",
              "min7(9)",
              "min(9)",
              "m7b5",
              "min7",
              "min6",
              "min",
              "aug",
              "Maj6(9)",
              "Maj7(9)",
              "Maj(9)",
              "Maj7#11",
              "Maj7",
              "Maj6",
              "Maj"
            ],
            "autoStart": false,
            "sourceChordNote": 0,
            "sourceChordType": "Maj7",
            "ctb2Low": null,
            "ctb2Main": {
              "ntr": "ROOT_TRANSPOSITION",
              "ntt": "MELODY",
              "bassOn": false,
              "chordRootUpperLimit": 8,
              "noteLowLimit": 56,
              "noteHighLimit": 67,
              "rtr": "PITCH_SHIFT"
            },
            "ctb2High": null
          },
          "notes": [
            {
              "pitch": 62,
              "velocity": 55,
              "position": 0.6666666666666666,
              "duration": 0.26458333333333334
            }
          ]
        },
        "8": {
          "ctab": {
            "srcChannel": 8,
            "name": "CC Crash",
            "accType": "RHYTHM",
            "editable": true,
            "mutedNotes": [],
            "mutedChords": [
              "1+2+5",
              "sus4",
              "1+5",
              "1+8",
              "7aug",
              "Maj7aug",
              "7(#9)",
              "7(b13)",
              "7(b9)",
              "7(13)",
              "7#11",
              "7(9)",
              "7b5",
              "7sus4",
              "7th",
              "dim7",
              "dim",
              "minMaj7(9)",
              "minMaj7",
              "min7(11)",
              "min7(9)",
              "min(9)",
              "m7b5",
              "min7",
              "min6",
              "min",
              "aug",
              "Maj6(9)",
              "Maj7(9)",
              "Maj(9)",
              "Maj7#11",
              "Maj7",
              "Maj6",
              "Maj"
            ],
            "autoStart": true,
            "sourceChordNote": 0,
            "sourceChordType": "Maj7",
            "ctb2Low": null,
            "ctb2Main": {
              "ntr": "ROOT_FIXED",
              "ntt": "BYPASS",
              "bassOn": false,
              "chordRootUpperLimit": 6,
              "noteLowLimit": 0,
              "noteHighLimit": 127,
              "rtr": "RETRIGGER"
            },
            "ctb2High": null
          },
          "notes": []
        },
        "9": {
          "ctab": {
            "srcChannel": 9,
            "name": "Drs",
            "accType": "RHYTHM",
            "editable": false,
            "mutedNotes": [],
            "mutedChords": [],
            "autoStart": true,
            "sourceChordNote": 0,
            "sourceChordType": "Maj7",
            "ctb2Low": null,
            "ctb2Main": {
              "ntr": "ROOT_FIXED",
              "ntt": "BYPASS",
              "bassOn": false,
              "chordRootUpperLimit": 6,
              "noteLowLimit": 0,
              "noteHighLimit": 127,
              "rtr": "PITCH_SHIFT"
            },
            "ctb2High": null
          },
          "notes": [
            {
              "pitch": 33,
              "velocity": 34,
              "position": 0,
              "duration": 0.010416666666666666
            },
            {
              "pitch": 53,
              "velocity": 33,
              "position": 0,
              "duration": 0.010416666666666666
            },
            {
              "pitch": 47,
              "velocity": 36,
              "position": 0.6666666666666666,
              "duration": 0.010416666666666666
            },
            {
              "pitch": 26,
              "velocity": 47,
              "position": 0,
              "duration": 1
            },
            {
              "pitch": 44,
              "velocity": 30,
              "position": 1,
              "duration": 0.010416666666666666
            },
            {
              "pitch": 59,
              "velocity": 22,
              "position": 1,
              "duration": 0.010416666666666666
            },
            {
              "pitch": 25,
              "velocity": 40,
              "position": 1.3333333333333333,
              "duration": 0.010416666666666666
            },
            {
              "pitch": 26,
              "velocity": 27,
              "position": 1,
              "duration": 0.6666666666666666
            },
            {
              "pitch": 38,
              "velocity": 40,
              "position": 1.6666666666666667,
              "duration": 0.010416666666666666
            },
            {
              "pitch": 33,
              "velocity": 49,
              "position": 2,
              "duration": 0.010416666666666666
            },
            {
              "pitch": 44,
              "velocity": 37,
              "position": 2,
              "duration": 0.010416666666666666
            },
            {
              "pitch": 40,
              "velocity": 70,
              "position": 2,
              "duration": 0.010416666666666666
            },
            {
              "pitch": 25,
              "velocity": 40,
              "position": 2.3333333333333335,
              "duration": 0.010416666666666666
            },
            {
              "pitch": 33,
              "velocity": 34,
              "position": 2.6666666666666665,
              "duration": 0.010416666666666666
            },
            {
              "pitch": 28,
              "velocity": 29,
              "position": 2.5,
              "duration": 0.5
            },
            {
              "pitch": 57,
              "velocity": 36,
              "position": 2.9895833333333335,
              "duration": 0.010416666666666666
            }
          ]
        },
        "10": {
          "ctab": {
            "srcChannel": 10,
            "name": "Bass",
            "accType": "BASS",
            "editable": false,
            "mutedNotes": [],
            "mutedChords": [],
            "autoStart": false,
            "sourceChordNote": 0,
            "sourceChordType": "Maj7",
            "ctb2Low": null,
            "ctb2Main": {
              "ntr": "ROOT_TRANSPOSITION",
              "ntt": "MELODY",
              "bassOn": true,
              "chordRootUpperLimit": 8,
              "noteLowLimit": 28,
              "noteHighLimit": 127,
              "rtr": "PITCH_SHIFT_TO_ROOT"
            },
            "ctb2High": null
          },
          "notes": [
            {
              "pitch": 31,
              "velocity": 50,
              "position": 0,
              "duration": 0.9895833333333334
            },
            {
              "pitch": 36,
              "velocity": 50,
              "position": 1,
              "duration": 0.9895833333333334
            },
            {
              "pitch": 28,
              "velocity": 40,
              "position": 2,
              "duration": 0.9895833333333334
            }
          ]
        },
        "12": {
          "ctab": {
            "srcChannel": 12,
            "name": "Str",
            "accType": "PAD",
            "editable": false,
            "mutedNotes": [],
            "mutedChords": [],
            "autoStart": false,
            "sourceChordNote": 0,
            "sourceChordType": "Maj7",
            "ctb2Low": null,
            "ctb2Main": {
              "ntr": "ROOT_FIXED",
              "ntt": "CHORD",
              "bassOn": false,
              "chordRootUpperLimit": 7,
              "noteLowLimit": 0,
              "noteHighLimit": 127,
              "rtr": "PITCH_SHIFT"
            },
            "ctb2High": null
          },
          "notes": [
            {
              "pitch": 55,
              "velocity": 62,
              "position": 0,
              "duration": 2.9895833333333335
            },
            {
              "pitch": 64,
              "velocity": 62,
              "position": 0,
              "duration": 2.9895833333333335
            },
            {
              "pitch": 59,
              "velocity": 62,
              "position": 0,
              "duration": 2.9895833333333335
            }
          ]
        },
        "13": {
          "ctab": {
            "srcChannel": 13,
            "name": "Str Root",
            "accType": "PAD",
            "editable": false,
            "mutedNotes": [],
            "mutedChords": [
              "1+2+5",
              "sus4",
              "1+5",
              "1+8",
              "Maj7aug",
              "dim",
              "minMaj7(9)",
              "minMaj7",
              "min6",
              "min",
              "aug",
              "Maj7(9)",
              "Maj7#11",
              "Maj7",
              "Maj6",
              "Maj"
            ],
            "autoStart": false,
            "sourceChordNote": 0,
            "sourceChordType": "Maj7",
            "ctb2Low": null,
            "ctb2Main": {
              "ntr": "ROOT_TRANSPOSITION",
              "ntt": "CHORD",
              "bassOn": false,
              "chordRootUpperLimit": 6,
              "noteLowLimit": 0,
              "noteHighLimit": 127,
              "rtr": "PITCH_SHIFT_TO_ROOT"
            },
            "ctb2High": null
          },
          "notes": [
            {
              "pitch": 60,
              "velocity": 62,
              "position": 0,
              "duration": 2.9895833333333335
            }
          ]
        }
      }
    },
    "Fill_In_DD": {
      "type": "Fill_In_DD",
      "sizeInBeats": 3,
      "channels": {
        "0": {
          "ctab": {
            "srcChannel": 0,
            "name": "gt 3 & 7",
            "accType": "CHORD1",
            "editable": false,
            "mutedNotes": [],
            "mutedChords": [],
            "autoStart": false,
            "sourceChordNote": 0,
            "sourceChordType": "Maj7",
            "ctb2Low": null,
            "ctb2Main": {
              "ntr": "ROOT_TRANSPOSITION",
              "ntt": "MELODY",
              "bassOn": false,
              "chordRootUpperLimit": 8,
              "noteLowLimit": 54,
              "noteHighLimit": 65,
              "rtr": "PITCH_SHIFT"
            },
            "ctb2High": null
          },
          "notes": [
            {
              "pitch": 59,
              "velocity": 40,
              "position": 0.010416666666666666,
              "duration": 0.6458333333333334
            },
            {
              "pitch": 64,
              "velocity": 40,
              "position": 0.020833333333333332,
              "duration": 0.6354166666666666
            },
            {
              "pitch": 59,
              "velocity": 35,
              "position": 0.6770833333333334,
              "duration": 0.3229166666666667
            },
            {
              "pitch": 64,
              "velocity": 35,
              "position": 0.6875,
              "duration": 0.3125
            },
            {
              "pitch": 59,
              "velocity": 40,
              "position": 1.0104166666666667,
              "duration": 0.6458333333333334
            },
            {
              "pitch": 64,
              "velocity": 40,
              "position": 1.0208333333333333,
              "duration": 0.6354166666666666
            },
            {
              "pitch": 59,
              "velocity": 35,
              "position": 2.0104166666666665,
              "duration": 0.6458333333333334
            },
            {
              "pitch": 64,
              "velocity": 35,
              "position": 2.0208333333333335,
              "duration": 0.6354166666666666
            },
            {
              "pitch": 59,
              "velocity": 35,
              "position": 2.6770833333333335,
              "duration": 0.3229166666666667
            },
            {
              "pitch": 64,
              "velocity": 35,
              "position": 2.6875,
              "duration": 0.3125
            }
          ]
        },
        "1": {
          "ctab": {
            "srcChannel": 1,
            "name": "gt 5",
            "accType": "CHORD1",
            "editable": false,
            "mutedNotes": [],
            "mutedChords": [
              "1+5",
              "1+8",
              "7(#9)",
              "7(b9)",
              "7(13)",
              "7(9)",
              "minMaj7(9)",
              "min7(9)",
              "Maj7(9)"
            ],
            "autoStart": false,
            "sourceChordNote": 0,
            "sourceChordType": "Maj7",
            "ctb2Low": null,
            "ctb2Main": {
              "ntr": "ROOT_TRANSPOSITION",
              "ntt": "CHORD",
              "bassOn": false,
              "chordRootUpperLimit": 8,
              "noteLowLimit": 54,
              "noteHighLimit": 65,
              "rtr": "PITCH_SHIFT"
            },
            "ctb2High": null
          },
          "notes": [
            {
              "pitch": 55,
              "velocity": 40,
              "position": 0,
              "duration": 0.65625
            },
            {
              "pitch": 55,
              "velocity": 35,
              "position": 0.6666666666666666,
              "duration": 0.3229166666666667
            },
            {
              "pitch": 55,
              "velocity": 40,
              "position": 1,
              "duration": 0.65625
            },
            {
              "pitch": 55,
              "velocity": 35,
              "position": 2,
              "duration": 0.65625
            },
            {
              "pitch": 55,
              "velocity": 35,
              "position": 2.6666666666666665,
              "duration": 0.3229166666666667
            }
          ]
        },
        "2": {
          "ctab": {
            "srcChannel": 2,
            "name": "gt 5 & 9",
            "accType": "CHORD1",
            "editable": false,
            "mutedNotes": [],
            "mutedChords": [
              "1+2+5",
              "sus4",
              "1+5",
              "1+8",
              "7aug",
              "Maj7aug",
              "7(b13)",
              "7(13)",
              "7#11",
              "7b5",
              "7sus4",
              "7th",
              "dim7",
              "dim",
              "minMaj7",
              "min7(11)",
              "min(9)",
              "m7b5",
              "min7",
              "min6",
              "min",
              "aug",
              "Maj6(9)",
              "Maj(9)",
              "Maj7#11",
              "Maj7",
              "Maj6",
              "Maj"
            ],
            "autoStart": false,
            "sourceChordNote": 0,
            "sourceChordType": "Maj7",
            "ctb2Low": null,
            "ctb2Main": {
              "ntr": "ROOT_TRANSPOSITION",
              "ntt": "MELODY",
              "bassOn": false,
              "chordRootUpperLimit": 8,
              "noteLowLimit": 62,
              "noteHighLimit": 73,
              "rtr": "PITCH_SHIFT"
            },
            "ctb2High": null
          },
          "notes": [
            {
              "pitch": 67,
              "velocity": 40,
              "position": 0.010416666666666666,
              "duration": 0.6458333333333334
            },
            {
              "pitch": 62,
              "velocity": 40,
              "position": 0.020833333333333332,
              "duration": 0.6354166666666666
            },
            {
              "pitch": 67,
              "velocity": 35,
              "position": 0.6770833333333334,
              "duration": 0.3229166666666667
            },
            {
              "pitch": 62,
              "velocity": 35,
              "position": 0.6875,
              "duration": 0.3125
            },
            {
              "pitch": 67,
              "velocity": 40,
              "position": 1.0104166666666667,
              "duration": 0.6458333333333334
            },
            {
              "pitch": 62,
              "velocity": 40,
              "position": 1.0208333333333333,
              "duration": 0.6354166666666666
            },
            {
              "pitch": 67,
              "velocity": 35,
              "position": 2.0104166666666665,
              "duration": 0.6458333333333334
            },
            {
              "pitch": 62,
              "velocity": 35,
              "position": 2.0208333333333335,
              "duration": 0.6354166666666666
            },
            {
              "pitch": 62,
              "velocity": 35,
              "position": 2.6875,
              "duration": 0.3125
            },
            {
              "pitch": 67,
              "velocity": 35,
              "position": 2.6770833333333335,
              "duration": 0.3229166666666667
            }
          ]
        },
        "3": {
          "ctab": {
            "srcChannel": 3,
            "name": "gt 6 & 9",
            "accType": "CHORD1",
            "editable": false,
            "mutedNotes": [],
            "mutedChords": [
              "1+2+5",
              "sus4",
              "1+5",
              "1+8",
              "7aug",
              "Maj7aug",
              "7(#9)",
              "7(b13)",
              "7(b9)",
              "7#11",
              "7(9)",
              "7b5",
              "7sus4",
              "7th",
              "dim7",
              "dim",
              "minMaj7(9)",
              "minMaj7",
              "min7(11)",
              "min7(9)",
              "min(9)",
              "m7b5",
              "min7",
              "min6",
              "min",
              "aug",
              "Maj6(9)",
              "Maj7(9)",
              "Maj(9)",
              "Maj7#11",
              "Maj7",
              "Maj6",
              "Maj"
            ],
            "autoStart": false,
            "sourceChordNote": 0,
            "sourceChordType": "Maj7",
            "ctb2Low": null,
            "ctb2Main": {
              "ntr": "ROOT_TRANSPOSITION",
              "ntt": "MELODY",
              "bassOn": false,
              "chordRootUpperLimit": 8,
              "noteLowLimit": 62,
              "noteHighLimit": 73,
              "rtr": "PITCH_SHIFT"
            },
            "ctb2High": null
          },
          "notes": [
            {
              "pitch": 62,
              "velocity": 40,
              "position": 0.010416666666666666,
              "duration": 0.6458333333333334
            },
            {
              "pitch": 69,
              "velocity": 40,
              "position": 0.020833333333333332,
              "duration": 0.6354166666666666
            },
            {
              "pitch": 62,
              "velocity": 35,
              "position": 0.6770833333333334,
              "duration": 0.3229166666666667
            },
            {
              "pitch": 69,
              "velocity": 35,
              "position": 0.6875,
              "duration": 0.3125
            },
            {
              "pitch": 62,
              "velocity": 40,
              "position": 1.0104166666666667,
              "duration": 0.6458333333333334
            },
            {
              "pitch": 69,
              "velocity": 40,
              "position": 1.0208333333333333,
              "duration": 0.6354166666666666
            },
            {
              "pitch": 62,
              "velocity": 35,
              "position": 2.0104166666666665,
              "duration": 0.6458333333333334
            },
            {
              "pitch": 69,
              "velocity": 35,
              "position": 2.0208333333333335,
              "duration": 0.6354166666666666
            },
            {
              "pitch": 62,
              "velocity": 35,
              "position": 2.6770833333333335,
              "duration": 0.3229166666666667
            },
            {
              "pitch": 69,
              "velocity": 35,
              "position": 2.6875,
              "duration": 0.3125
            }
          ]
        },
        "4": {
          "ctab": {
            "srcChannel": 4,
            "name": "pf",
            "accType": "CHORD2",
            "editable": false,
            "mutedNotes": [],
            "mutedChords": [],
            "autoStart": false,
            "sourceChordNote": 0,
            "sourceChordType": "Maj7",
            "ctb2Low": null,
            "ctb2Main": {
              "ntr": "ROOT_TRANSPOSITION",
              "ntt": "CHORD",
              "bassOn": false,
              "chordRootUpperLimit": 11,
              "noteLowLimit": 52,
              "noteHighLimit": 127,
              "rtr": "PITCH_SHIFT"
            },
            "ctb2High": null
          },
          "notes": [
            {
              "pitch": 59,
              "velocity": 55,
              "position": 0,
              "duration": 1.5979166666666667
            },
            {
              "pitch": 67,
              "velocity": 55,
              "position": 0,
              "duration": 1.5979166666666667
            },
            {
              "pitch": 64,
              "velocity": 55,
              "position": 0,
              "duration": 1.5979166666666667
            },
            {
              "pitch": 64,
              "velocity": 60,
              "position": 1.6666666666666667,
              "duration": 1.3229166666666667
            },
            {
              "pitch": 71,
              "velocity": 60,
              "position": 1.6666666666666667,
              "duration": 1.3229166666666667
            },
            {
              "pitch": 67,
              "velocity": 60,
              "position": 1.6666666666666667,
              "duration": 1.3229166666666667
            }
          ]
        },
        "5": {
          "ctab": {
            "srcChannel": 5,
            "name": "pf 1",
            "accType": "CHORD2",
            "editable": false,
            "mutedNotes": [],
            "mutedChords": [
              "1+2+5",
              "sus4",
              "1+5",
              "1+8",
              "7aug",
              "Maj7aug",
              "7(#9)",
              "7(b13)",
              "7(b9)",
              "7(13)",
              "7#11",
              "7(9)",
              "7b5",
              "7sus4",
              "7th",
              "dim",
              "minMaj7(9)",
              "minMaj7",
              "min7(11)",
              "min7(9)",
              "min6",
              "min",
              "aug",
              "Maj6(9)",
              "Maj7(9)",
              "Maj7#11",
              "Maj7",
              "Maj6",
              "Maj"
            ],
            "autoStart": false,
            "sourceChordNote": 0,
            "sourceChordType": "Maj7",
            "ctb2Low": null,
            "ctb2Main": {
              "ntr": "ROOT_TRANSPOSITION",
              "ntt": "MELODY",
              "bassOn": false,
              "chordRootUpperLimit": 8,
              "noteLowLimit": 52,
              "noteHighLimit": 63,
              "rtr": "PITCH_SHIFT"
            },
            "ctb2High": null
          },
          "notes": []
        },
        "6": {
          "ctab": {
            "srcChannel": 6,
            "name": "pf 5",
            "accType": "CHORD2",
            "editable": false,
            "mutedNotes": [],
            "mutedChords": [
              "1+2+5",
              "sus4",
              "1+5",
              "1+8",
              "7aug",
              "Maj7aug",
              "7(#9)",
              "7(b13)",
              "7(b9)",
              "7(13)",
              "7#11",
              "7b5",
              "7sus4",
              "7th",
              "dim7",
              "dim",
              "minMaj7",
              "min7(11)",
              "min(9)",
              "m7b5",
              "min7",
              "min",
              "aug",
              "Maj(9)",
              "Maj7#11",
              "Maj7",
              "Maj"
            ],
            "autoStart": false,
            "sourceChordNote": 0,
            "sourceChordType": "Maj7",
            "ctb2Low": null,
            "ctb2Main": {
              "ntr": "ROOT_TRANSPOSITION",
              "ntt": "MELODY",
              "bassOn": false,
              "chordRootUpperLimit": 8,
              "noteLowLimit": 52,
              "noteHighLimit": 63,
              "rtr": "PITCH_SHIFT"
            },
            "ctb2High": null
          },
          "notes": []
        },
        "7": {
          "ctab": {
            "srcChannel": 7,
            "name": "pf 9",
            "accType": "CHORD2",
            "editable": false,
            "mutedNotes": [],
            "mutedChords": [
              "1+2+5",
              "sus4",
              "1+5",
              "1+8",
              "7aug",
              "Maj7aug",
              "7(#9)",
              "7(b9)",
              "7(9)",
              "7b5",
              "7sus4",
              "7th",
              "dim7",
              "dim",
              "minMaj7(9)",
              "minMaj7",
              "min7(9)",
              "min(9)",
              "m7b5",
              "min7",
              "min6",
              "min",
              "aug",
              "Maj6(9)",
              "Maj7(9)",
              "Maj(9)",
              "Maj7#11",
              "Maj7",
              "Maj6",
              "Maj"
            ],
            "autoStart": false,
            "sourceChordNote": 0,
            "sourceChordType": "Maj7",
            "ctb2Low": null,
            "ctb2Main": {
              "ntr": "ROOT_TRANSPOSITION",
              "ntt": "MELODY",
              "bassOn": false,
              "chordRootUpperLimit": 8,
              "noteLowLimit": 56,
              "noteHighLimit": 67,
              "rtr": "PITCH_SHIFT"
            },
            "ctb2High": null
          },
          "notes": []
        },
        "8": {
          "ctab": {
            "srcChannel": 8,
            "name": "CC Crash",
            "accType": "RHYTHM",
            "editable": true,
            "mutedNotes": [],
            "mutedChords": [
              "1+2+5",
              "sus4",
              "1+5",
              "1+8",
              "7aug",
              "Maj7aug",
              "7(#9)",
              "7(b13)",
              "7(b9)",
              "7(13)",
              "7#11",
              "7(9)",
              "7b5",
              "7sus4",
              "7th",
              "dim7",
              "dim",
              "minMaj7(9)",
              "minMaj7",
              "min7(11)",
              "min7(9)",
              "min(9)",
              "m7b5",
              "min7",
              "min6",
              "min",
              "aug",
              "Maj6(9)",
              "Maj7(9)",
              "Maj(9)",
              "Maj7#11",
              "Maj7",
              "Maj6",
              "Maj"
            ],
            "autoStart": true,
            "sourceChordNote": 0,
            "sourceChordType": "Maj7",
            "ctb2Low": null,
            "ctb2Main": {
              "ntr": "ROOT_FIXED",
              "ntt": "BYPASS",
              "bassOn": false,
              "chordRootUpperLimit": 6,
              "noteLowLimit": 0,
              "noteHighLimit": 127,
              "rtr": "RETRIGGER"
            },
            "ctb2High": null
          },
          "notes": []
        },
        "9": {
          "ctab": {
            "srcChannel": 9,
            "name": "Drs",
            "accType": "RHYTHM",
            "editable": false,
            "mutedNotes": [],
            "mutedChords": [],
            "autoStart": true,
            "sourceChordNote": 0,
            "sourceChordType": "Maj7",
            "ctb2Low": null,
            "ctb2Main": {
              "ntr": "ROOT_FIXED",
              "ntt": "BYPASS",
              "bassOn": false,
              "chordRootUpperLimit": 6,
              "noteLowLimit": 0,
              "noteHighLimit": 127,
              "rtr": "PITCH_SHIFT"
            },
            "ctb2High": null
          },
          "notes": [
            {
              "pitch": 53,
              "velocity": 33,
              "position": 0,
              "duration": 0.010416666666666666
            },
            {
              "pitch": 26,
              "velocity": 51,
              "position": 0,
              "duration": 0.5
            },
            {
              "pitch": 45,
              "velocity": 45,
              "position": 0.6666666666666666,
              "duration": 0.010416666666666666
            },
            {
              "pitch": 44,
              "velocity": 30,
              "position": 1,
              "duration": 0.010416666666666666
            },
            {
              "pitch": 59,
              "velocity": 36,
              "position": 1,
              "duration": 0.010416666666666666
            },
            {
              "pitch": 25,
              "velocity": 49,
              "position": 1.3333333333333333,
              "duration": 0.010416666666666666
            },
            {
              "pitch": 40,
              "velocity": 91,
              "position": 1.6666666666666667,
              "duration": 0.010416666666666666
            },
            {
              "pitch": 26,
              "velocity": 31,
              "position": 1.5,
              "duration": 0.5
            },
            {
              "pitch": 33,
              "velocity": 46,
              "position": 2,
              "duration": 0.010416666666666666
            },
            {
              "pitch": 44,
              "velocity": 37,
              "position": 2,
              "duration": 0.010416666666666666
            },
            {
              "pitch": 43,
              "velocity": 31,
              "position": 2,
              "duration": 0.010416666666666666
            },
            {
              "pitch": 33,
              "velocity": 34,
              "position": 2.6666666666666665,
              "duration": 0.010416666666666666
            },
            {
              "pitch": 53,
              "velocity": 26,
              "position": 2.6666666666666665,
              "duration": 0.010416666666666666
            },
            {
              "pitch": 38,
              "velocity": 45,
              "position": 2.6666666666666665,
              "duration": 0.010416666666666666
            },
            {
              "pitch": 28,
              "velocity": 29,
              "position": 2,
              "duration": 1
            },
            {
              "pitch": 57,
              "velocity": 36,
              "position": 2.9895833333333335,
              "duration": 0.010416666666666666
            }
          ]
        },
        "10": {
          "ctab": {
            "srcChannel": 10,
            "name": "Bass",
            "accType": "BASS",
            "editable": false,
            "mutedNotes": [],
            "mutedChords": [],
            "autoStart": false,
            "sourceChordNote": 0,
            "sourceChordType": "Maj7",
            "ctb2Low": null,
            "ctb2Main": {
              "ntr": "ROOT_TRANSPOSITION",
              "ntt": "MELODY",
              "bassOn": true,
              "chordRootUpperLimit": 8,
              "noteLowLimit": 28,
              "noteHighLimit": 127,
              "rtr": "PITCH_SHIFT_TO_ROOT"
            },
            "ctb2High": null
          },
          "notes": [
            {
              "pitch": 31,
              "velocity": 50,
              "position": 0,
              "duration": 0.90625
            },
            {
              "pitch": 36,
              "velocity": 50,
              "position": 1,
              "duration": 0.90625
            },
            {
              "pitch": 31,
              "velocity": 50,
              "position": 2,
              "duration": 0.90625
            }
          ]
        },
        "12": {
          "ctab": {
            "srcChannel": 12,
            "name": "Str",
            "accType": "PAD",
            "editable": false,
            "mutedNotes": [],
            "mutedChords": [],
            "autoStart": false,
            "sourceChordNote": 0,
            "sourceChordType": "Maj7",
            "ctb2Low": null,
            "ctb2Main": {
              "ntr": "ROOT_FIXED",
              "ntt": "CHORD",
              "bassOn": false,
              "chordRootUpperLimit": 7,
              "noteLowLimit": 0,
              "noteHighLimit": 127,
              "rtr": "PITCH_SHIFT"
            },
            "ctb2High": null
          },
          "notes": [
            {
              "pitch": 55,
              "velocity": 62,
              "position": 0,
              "duration": 2.9895833333333335
            },
            {
              "pitch": 64,
              "velocity": 62,
              "position": 0,
              "duration": 2.9895833333333335
            },
            {
              "pitch": 59,
              "velocity": 62,
              "position": 0,
              "duration": 2.9895833333333335
            }
          ]
        },
        "13": {
          "ctab": {
            "srcChannel": 13,
            "name": "Str Root",
            "accType": "PAD",
            "editable": false,
            "mutedNotes": [],
            "mutedChords": [
              "1+2+5",
              "sus4",
              "1+5",
              "1+8",
              "Maj7aug",
              "dim",
              "minMaj7(9)",
              "minMaj7",
              "min6",
              "min",
              "aug",
              "Maj7(9)",
              "Maj7#11",
              "Maj7",
              "Maj6",
              "Maj"
            ],
            "autoStart": false,
            "sourceChordNote": 0,
            "sourceChordType": "Maj7",
            "ctb2Low": null,
            "ctb2Main": {
              "ntr": "ROOT_TRANSPOSITION",
              "ntt": "CHORD",
              "bassOn": false,
              "chordRootUpperLimit": 6,
              "noteLowLimit": 0,
              "noteHighLimit": 127,
              "rtr": "PITCH_SHIFT_TO_ROOT"
            },
            "ctb2High": null
          },
          "notes": [
            {
              "pitch": 60,
              "velocity": 62,
              "position": 0,
              "duration": 2.9895833333333335
            }
          ]
        }
      }
    },
    "Intro_A": {
      "type": "Intro_A",
      "sizeInBeats": 6,
      "channels": {
        "0": {
          "ctab": {
            "srcChannel": 0,
            "name": "gt 3 & 7",
            "accType": "CHORD1",
            "editable": false,
            "mutedNotes": [],
            "mutedChords": [],
            "autoStart": false,
            "sourceChordNote": 0,
            "sourceChordType": "Maj7",
            "ctb2Low": null,
            "ctb2Main": {
              "ntr": "ROOT_TRANSPOSITION",
              "ntt": "MELODY",
              "bassOn": false,
              "chordRootUpperLimit": 8,
              "noteLowLimit": 54,
              "noteHighLimit": 65,
              "rtr": "PITCH_SHIFT"
            },
            "ctb2High": null
          },
          "notes": []
        },
        "1": {
          "ctab": {
            "srcChannel": 1,
            "name": "gt 5",
            "accType": "CHORD1",
            "editable": false,
            "mutedNotes": [],
            "mutedChords": [
              "1+5",
              "1+8",
              "7(#9)",
              "7(b9)",
              "7(13)",
              "7(9)",
              "minMaj7(9)",
              "min7(9)",
              "Maj7(9)"
            ],
            "autoStart": false,
            "sourceChordNote": 0,
            "sourceChordType": "Maj7",
            "ctb2Low": null,
            "ctb2Main": {
              "ntr": "ROOT_TRANSPOSITION",
              "ntt": "CHORD",
              "bassOn": false,
              "chordRootUpperLimit": 8,
              "noteLowLimit": 54,
              "noteHighLimit": 65,
              "rtr": "PITCH_SHIFT"
            },
            "ctb2High": null
          },
          "notes": []
        },
        "2": {
          "ctab": {
            "srcChannel": 2,
            "name": "gt 5 & 9",
            "accType": "CHORD1",
            "editable": false,
            "mutedNotes": [],
            "mutedChords": [
              "1+2+5",
              "sus4",
              "1+5",
              "1+8",
              "7aug",
              "Maj7aug",
              "7(b13)",
              "7(13)",
              "7#11",
              "7b5",
              "7sus4",
              "7th",
              "dim7",
              "dim",
              "minMaj7",
              "min7(11)",
              "min(9)",
              "m7b5",
              "min7",
              "min6",
              "min",
              "aug",
              "Maj6(9)",
              "Maj(9)",
              "Maj7#11",
              "Maj7",
              "Maj6",
              "Maj"
            ],
            "autoStart": false,
            "sourceChordNote": 0,
            "sourceChordType": "Maj7",
            "ctb2Low": null,
            "ctb2Main": {
              "ntr": "ROOT_TRANSPOSITION",
              "ntt": "MELODY",
              "bassOn": false,
              "chordRootUpperLimit": 8,
              "noteLowLimit": 62,
              "noteHighLimit": 73,
              "rtr": "PITCH_SHIFT"
            },
            "ctb2High": null
          },
          "notes": []
        },
        "3": {
          "ctab": {
            "srcChannel": 3,
            "name": "gt 6 & 9",
            "accType": "CHORD1",
            "editable": false,
            "mutedNotes": [],
            "mutedChords": [
              "1+2+5",
              "sus4",
              "1+5",
              "1+8",
              "7aug",
              "Maj7aug",
              "7(#9)",
              "7(b13)",
              "7(b9)",
              "7#11",
              "7(9)",
              "7b5",
              "7sus4",
              "7th",
              "dim7",
              "dim",
              "minMaj7(9)",
              "minMaj7",
              "min7(11)",
              "min7(9)",
              "min(9)",
              "m7b5",
              "min7",
              "min6",
              "min",
              "aug",
              "Maj6(9)",
              "Maj7(9)",
              "Maj(9)",
              "Maj7#11",
              "Maj7",
              "Maj6",
              "Maj"
            ],
            "autoStart": false,
            "sourceChordNote": 0,
            "sourceChordType": "Maj7",
            "ctb2Low": null,
            "ctb2Main": {
              "ntr": "ROOT_TRANSPOSITION",
              "ntt": "MELODY",
              "bassOn": false,
              "chordRootUpperLimit": 8,
              "noteLowLimit": 62,
              "noteHighLimit": 73,
              "rtr": "PITCH_SHIFT"
            },
            "ctb2High": null
          },
          "notes": []
        },
        "4": {
          "ctab": {
            "srcChannel": 4,
            "name": "pf",
            "accType": "CHORD2",
            "editable": false,
            "mutedNotes": [],
            "mutedChords": [],
            "autoStart": false,
            "sourceChordNote": 0,
            "sourceChordType": "Maj7",
            "ctb2Low": null,
            "ctb2Main": {
              "ntr": "ROOT_TRANSPOSITION",
              "ntt": "CHORD",
              "bassOn": false,
              "chordRootUpperLimit": 11,
              "noteLowLimit": 52,
              "noteHighLimit": 127,
              "rtr": "PITCH_SHIFT"
            },
            "ctb2High": null
          },
          "notes": []
        },
        "5": {
          "ctab": {
            "srcChannel": 5,
            "name": "pf 1",
            "accType": "CHORD2",
            "editable": false,
            "mutedNotes": [],
            "mutedChords": [
              "1+2+5",
              "sus4",
              "1+5",
              "1+8",
              "7aug",
              "Maj7aug",
              "7(#9)",
              "7(b13)",
              "7(b9)",
              "7(13)",
              "7#11",
              "7(9)",
              "7b5",
              "7sus4",
              "7th",
              "dim",
              "minMaj7(9)",
              "minMaj7",
              "min7(11)",
              "min7(9)",
              "min6",
              "min",
              "aug",
              "Maj6(9)",
              "Maj7(9)",
              "Maj7#11",
              "Maj7",
              "Maj6",
              "Maj"
            ],
            "autoStart": false,
            "sourceChordNote": 0,
            "sourceChordType": "Maj7",
            "ctb2Low": null,
            "ctb2Main": {
              "ntr": "ROOT_TRANSPOSITION",
              "ntt": "MELODY",
              "bassOn": false,
              "chordRootUpperLimit": 8,
              "noteLowLimit": 52,
              "noteHighLimit": 63,
              "rtr": "PITCH_SHIFT"
            },
            "ctb2High": null
          },
          "notes": []
        },
        "6": {
          "ctab": {
            "srcChannel": 6,
            "name": "pf 5",
            "accType": "CHORD2",
            "editable": false,
            "mutedNotes": [],
            "mutedChords": [
              "1+2+5",
              "sus4",
              "1+5",
              "1+8",
              "7aug",
              "Maj7aug",
              "7(#9)",
              "7(b13)",
              "7(b9)",
              "7(13)",
              "7#11",
              "7b5",
              "7sus4",
              "7th",
              "dim7",
              "dim",
              "minMaj7",
              "min7(11)",
              "min(9)",
              "m7b5",
              "min7",
              "min",
              "aug",
              "Maj(9)",
              "Maj7#11",
              "Maj7",
              "Maj"
            ],
            "autoStart": false,
            "sourceChordNote": 0,
            "sourceChordType": "Maj7",
            "ctb2Low": null,
            "ctb2Main": {
              "ntr": "ROOT_TRANSPOSITION",
              "ntt": "MELODY",
              "bassOn": false,
              "chordRootUpperLimit": 8,
              "noteLowLimit": 52,
              "noteHighLimit": 63,
              "rtr": "PITCH_SHIFT"
            },
            "ctb2High": null
          },
          "notes": []
        },
        "7": {
          "ctab": {
            "srcChannel": 7,
            "name": "pf 9",
            "accType": "CHORD2",
            "editable": false,
            "mutedNotes": [],
            "mutedChords": [
              "1+2+5",
              "sus4",
              "1+5",
              "1+8",
              "7aug",
              "Maj7aug",
              "7(#9)",
              "7(b9)",
              "7(9)",
              "7b5",
              "7sus4",
              "7th",
              "dim7",
              "dim",
              "minMaj7(9)",
              "minMaj7",
              "min7(9)",
              "min(9)",
              "m7b5",
              "min7",
              "min6",
              "min",
              "aug",
              "Maj6(9)",
              "Maj7(9)",
              "Maj(9)",
              "Maj7#11",
              "Maj7",
              "Maj6",
              "Maj"
            ],
            "autoStart": false,
            "sourceChordNote": 0,
            "sourceChordType": "Maj7",
            "ctb2Low": null,
            "ctb2Main": {
              "ntr": "ROOT_TRANSPOSITION",
              "ntt": "MELODY",
              "bassOn": false,
              "chordRootUpperLimit": 8,
              "noteLowLimit": 56,
              "noteHighLimit": 67,
              "rtr": "PITCH_SHIFT"
            },
            "ctb2High": null
          },
          "notes": []
        },
        "8": {
          "ctab": {
            "srcChannel": 8,
            "name": "CC Crash",
            "accType": "RHYTHM",
            "editable": true,
            "mutedNotes": [],
            "mutedChords": [
              "1+2+5",
              "sus4",
              "1+5",
              "1+8",
              "7aug",
              "Maj7aug",
              "7(#9)",
              "7(b13)",
              "7(b9)",
              "7(13)",
              "7#11",
              "7(9)",
              "7b5",
              "7sus4",
              "7th",
              "dim7",
              "dim",
              "minMaj7(9)",
              "minMaj7",
              "min7(11)",
              "min7(9)",
              "min(9)",
              "m7b5",
              "min7",
              "min6",
              "min",
              "aug",
              "Maj6(9)",
              "Maj7(9)",
              "Maj(9)",
              "Maj7#11",
              "Maj7",
              "Maj6",
              "Maj"
            ],
            "autoStart": true,
            "sourceChordNote": 0,
            "sourceChordType": "Maj7",
            "ctb2Low": null,
            "ctb2Main": {
              "ntr": "ROOT_FIXED",
              "ntt": "BYPASS",
              "bassOn": false,
              "chordRootUpperLimit": 6,
              "noteLowLimit": 0,
              "noteHighLimit": 127,
              "rtr": "RETRIGGER"
            },
            "ctb2High": null
          },
          "notes": []
        },
        "9": {
          "ctab": {
            "srcChannel": 9,
            "name": "Drs",
            "accType": "RHYTHM",
            "editable": false,
            "mutedNotes": [],
            "mutedChords": [],
            "autoStart": true,
            "sourceChordNote": 0,
            "sourceChordType": "Maj7",
            "ctb2Low": null,
            "ctb2Main": {
              "ntr": "ROOT_FIXED",
              "ntt": "BYPASS",
              "bassOn": false,
              "chordRootUpperLimit": 6,
              "noteLowLimit": 0,
              "noteHighLimit": 127,
              "rtr": "PITCH_SHIFT"
            },
            "ctb2High": null
          },
          "notes": [
            {
              "pitch": 44,
              "velocity": 37,
              "position": 0,
              "duration": 0.010416666666666666
            },
            {
              "pitch": 25,
              "velocity": 29,
              "position": 0.6666666666666666,
              "duration": 0.010416666666666666
            },
            {
              "pitch": 44,
              "velocity": 24,
              "position": 1,
              "duration": 0.010416666666666666
            },
            {
              "pitch": 33,
              "velocity": 34,
              "position": 1.6666666666666667,
              "duration": 0.010416666666666666
            },
            {
              "pitch": 27,
              "velocity": 29,
              "position": 2,
              "duration": 0.010416666666666666
            },
            {
              "pitch": 44,
              "velocity": 34,
              "position": 2,
              "duration": 0.010416666666666666
            },
            {
              "pitch": 33,
              "velocity": 46,
              "position": 3,
              "duration": 0.010416666666666666
            },
            {
              "pitch": 44,
              "velocity": 37,
              "position": 3,
              "duration": 0.010416666666666666
            },
            {
              "pitch": 25,
              "velocity": 29,
              "position": 3.3333333333333335,
              "duration": 0.010416666666666666
            },
            {
              "pitch": 40,
              "velocity": 68,
              "position": 3.6666666666666665,
              "duration": 0.010416666666666666
            },
            {
              "pitch": 25,
              "velocity": 29,
              "position": 4.333333333333333,
              "duration": 0.010416666666666666
            },
            {
              "pitch": 38,
              "velocity": 30,
              "position": 4.666666666666667,
              "duration": 0.010416666666666666
            },
            {
              "pitch": 38,
              "velocity": 60,
              "position": 5,
              "duration": 0.010416666666666666
            },
            {
              "pitch": 25,
              "velocity": 29,
              "position": 5.333333333333333,
              "duration": 0.010416666666666666
            },
            {
              "pitch": 33,
              "velocity": 46,
              "position": 5.666666666666667,
              "duration": 0.010416666666666666
            },
            {
              "pitch": 57,
              "velocity": 36,
              "position": 5.989583333333333,
              "duration": 0.010416666666666666
            }
          ]
        },
        "10": {
          "ctab": {
            "srcChannel": 10,
            "name": "Bass",
            "accType": "BASS",
            "editable": false,
            "mutedNotes": [],
            "mutedChords": [],
            "autoStart": false,
            "sourceChordNote": 0,
            "sourceChordType": "Maj7",
            "ctb2Low": null,
            "ctb2Main": {
              "ntr": "ROOT_TRANSPOSITION",
              "ntt": "MELODY",
              "bassOn": true,
              "chordRootUpperLimit": 8,
              "noteLowLimit": 28,
              "noteHighLimit": 127,
              "rtr": "PITCH_SHIFT_TO_ROOT"
            },
            "ctb2High": null
          },
          "notes": []
        },
        "12": {
          "ctab": {
            "srcChannel": 12,
            "name": "Str",
            "accType": "PAD",
            "editable": false,
            "mutedNotes": [],
            "mutedChords": [],
            "autoStart": false,
            "sourceChordNote": 0,
            "sourceChordType": "Maj7",
            "ctb2Low": null,
            "ctb2Main": {
              "ntr": "ROOT_FIXED",
              "ntt": "CHORD",
              "bassOn": false,
              "chordRootUpperLimit": 7,
              "noteLowLimit": 0,
              "noteHighLimit": 127,
              "rtr": "PITCH_SHIFT"
            },
            "ctb2High": null
          },
          "notes": []
        },
        "13": {
          "ctab": {
            "srcChannel": 13,
            "name": "Str Root",
            "accType": "PAD",
            "editable": false,
            "mutedNotes": [],
            "mutedChords": [
              "1+2+5",
              "sus4",
              "1+5",
              "1+8",
              "Maj7aug",
              "dim",
              "minMaj7(9)",
              "minMaj7",
              "min6",
              "min",
              "aug",
              "Maj7(9)",
              "Maj7#11",
              "Maj7",
              "Maj6",
              "Maj"
            ],
            "autoStart": false,
            "sourceChordNote": 0,
            "sourceChordType": "Maj7",
            "ctb2Low": null,
            "ctb2Main": {
              "ntr": "ROOT_TRANSPOSITION",
              "ntt": "CHORD",
              "bassOn": false,
              "chordRootUpperLimit": 6,
              "noteLowLimit": 0,
              "noteHighLimit": 127,
              "rtr": "PITCH_SHIFT_TO_ROOT"
            },
            "ctb2High": null
          },
          "notes": []
        }
      }
    },
    "Ending_A": {
      "type": "Ending_A",
      "sizeInBeats": 6,
      "channels": {
        "0": {
          "ctab": {
            "srcChannel": 0,
            "name": "gt 3 & 7",
            "accType": "CHORD1",
            "editable": false,
            "mutedNotes": [],
            "mutedChords": [],
            "autoStart": false,
            "sourceChordNote": 0,
            "sourceChordType": "Maj7",
            "ctb2Low": null,
            "ctb2Main": {
              "ntr": "ROOT_TRANSPOSITION",
              "ntt": "MELODY",
              "bassOn": false,
              "chordRootUpperLimit": 8,
              "noteLowLimit": 54,
              "noteHighLimit": 65,
              "rtr": "PITCH_SHIFT"
            },
            "ctb2High": null
          },
          "notes": [
            {
              "pitch": 59,
              "velocity": 40,
              "position": 0.010416666666666666,
              "duration": 4.979166666666667
            },
            {
              "pitch": 64,
              "velocity": 40,
              "position": 0.020833333333333332,
              "duration": 4.96875
            }
          ]
        },
        "1": {
          "ctab": {
            "srcChannel": 1,
            "name": "gt 5",
            "accType": "CHORD1",
            "editable": false,
            "mutedNotes": [],
            "mutedChords": [
              "1+5",
              "1+8",
              "7(#9)",
              "7(b9)",
              "7(13)",
              "7(9)",
              "minMaj7(9)",
              "min7(9)",
              "Maj7(9)"
            ],
            "autoStart": false,
            "sourceChordNote": 0,
            "sourceChordType": "Maj7",
            "ctb2Low": null,
            "ctb2Main": {
              "ntr": "ROOT_TRANSPOSITION",
              "ntt": "CHORD",
              "bassOn": false,
              "chordRootUpperLimit": 8,
              "noteLowLimit": 54,
              "noteHighLimit": 65,
              "rtr": "PITCH_SHIFT"
            },
            "ctb2High": null
          },
          "notes": [
            {
              "pitch": 55,
              "velocity": 40,
              "position": 0,
              "duration": 4.989583333333333
            }
          ]
        },
        "2": {
          "ctab": {
            "srcChannel": 2,
            "name": "gt 5 & 9",
            "accType": "CHORD1",
            "editable": false,
            "mutedNotes": [],
            "mutedChords": [
              "1+2+5",
              "sus4",
              "1+5",
              "1+8",
              "7aug",
              "Maj7aug",
              "7(b13)",
              "7(13)",
              "7#11",
              "7b5",
              "7sus4",
              "7th",
              "dim7",
              "dim",
              "minMaj7",
              "min7(11)",
              "min(9)",
              "m7b5",
              "min7",
              "min6",
              "min",
              "aug",
              "Maj6(9)",
              "Maj(9)",
              "Maj7#11",
              "Maj7",
              "Maj6",
              "Maj"
            ],
            "autoStart": false,
            "sourceChordNote": 0,
            "sourceChordType": "Maj7",
            "ctb2Low": null,
            "ctb2Main": {
              "ntr": "ROOT_TRANSPOSITION",
              "ntt": "MELODY",
              "bassOn": false,
              "chordRootUpperLimit": 8,
              "noteLowLimit": 62,
              "noteHighLimit": 73,
              "rtr": "PITCH_SHIFT"
            },
            "ctb2High": null
          },
          "notes": [
            {
              "pitch": 67,
              "velocity": 40,
              "position": 0.010416666666666666,
              "duration": 4.979166666666667
            },
            {
              "pitch": 62,
              "velocity": 40,
              "position": 0.020833333333333332,
              "duration": 4.96875
            }
          ]
        },
        "3": {
          "ctab": {
            "srcChannel": 3,
            "name": "gt 6 & 9",
            "accType": "CHORD1",
            "editable": false,
            "mutedNotes": [],
            "mutedChords": [
              "1+2+5",
              "sus4",
              "1+5",
              "1+8",
              "7aug",
              "Maj7aug",
              "7(#9)",
              "7(b13)",
              "7(b9)",
              "7#11",
              "7(9)",
              "7b5",
              "7sus4",
              "7th",
              "dim7",
              "dim",
              "minMaj7(9)",
              "minMaj7",
              "min7(11)",
              "min7(9)",
              "min(9)",
              "m7b5",
              "min7",
              "min6",
              "min",
              "aug",
              "Maj6(9)",
              "Maj7(9)",
              "Maj(9)",
              "Maj7#11",
              "Maj7",
              "Maj6",
              "Maj"
            ],
            "autoStart": false,
            "sourceChordNote": 0,
            "sourceChordType": "Maj7",
            "ctb2Low": null,
            "ctb2Main": {
              "ntr": "ROOT_TRANSPOSITION",
              "ntt": "MELODY",
              "bassOn": false,
              "chordRootUpperLimit": 8,
              "noteLowLimit": 62,
              "noteHighLimit": 73,
              "rtr": "PITCH_SHIFT"
            },
            "ctb2High": null
          },
          "notes": [
            {
              "pitch": 62,
              "velocity": 40,
              "position": 0.010416666666666666,
              "duration": 4.979166666666667
            },
            {
              "pitch": 69,
              "velocity": 40,
              "position": 0.020833333333333332,
              "duration": 4.96875
            }
          ]
        },
        "4": {
          "ctab": {
            "srcChannel": 4,
            "name": "pf",
            "accType": "CHORD2",
            "editable": false,
            "mutedNotes": [],
            "mutedChords": [],
            "autoStart": false,
            "sourceChordNote": 0,
            "sourceChordType": "Maj7",
            "ctb2Low": null,
            "ctb2Main": {
              "ntr": "ROOT_TRANSPOSITION",
              "ntt": "CHORD",
              "bassOn": false,
              "chordRootUpperLimit": 11,
              "noteLowLimit": 52,
              "noteHighLimit": 127,
              "rtr": "PITCH_SHIFT"
            },
            "ctb2High": null
          },
          "notes": [
            {
              "pitch": 40,
              "velocity": 50,
              "position": 0,
              "duration": 4.989583333333333
            },
            {
              "pitch": 47,
              "velocity": 50,
              "position": 0,
              "duration": 4.989583333333333
            },
            {
              "pitch": 43,
              "velocity": 50,
              "position": 0,
              "duration": 4.989583333333333
            }
          ]
        },
        "5": {
          "ctab": {
            "srcChannel": 5,
            "name": "pf 1",
            "accType": "CHORD2",
            "editable": false,
            "mutedNotes": [],
            "mutedChords": [
              "1+2+5",
              "sus4",
              "1+5",
              "1+8",
              "7aug",
              "Maj7aug",
              "7(#9)",
              "7(b13)",
              "7(b9)",
              "7(13)",
              "7#11",
              "7(9)",
              "7b5",
              "7sus4",
              "7th",
              "dim",
              "minMaj7(9)",
              "minMaj7",
              "min7(11)",
              "min7(9)",
              "min6",
              "min",
              "aug",
              "Maj6(9)",
              "Maj7(9)",
              "Maj7#11",
              "Maj7",
              "Maj6",
              "Maj"
            ],
            "autoStart": false,
            "sourceChordNote": 0,
            "sourceChordType": "Maj7",
            "ctb2Low": null,
            "ctb2Main": {
              "ntr": "ROOT_TRANSPOSITION",
              "ntt": "MELODY",
              "bassOn": false,
              "chordRootUpperLimit": 8,
              "noteLowLimit": 52,
              "noteHighLimit": 63,
              "rtr": "PITCH_SHIFT"
            },
            "ctb2High": null
          },
          "notes": [
            {
              "pitch": 48,
              "velocity": 50,
              "position": 0,
              "duration": 4.989583333333333
            }
          ]
        },
        "6": {
          "ctab": {
            "srcChannel": 6,
            "name": "pf 5",
            "accType": "CHORD2",
            "editable": false,
            "mutedNotes": [],
            "mutedChords": [
              "1+2+5",
              "sus4",
              "1+5",
              "1+8",
              "7aug",
              "Maj7aug",
              "7(#9)",
              "7(b13)",
              "7(b9)",
              "7(13)",
              "7#11",
              "7b5",
              "7sus4",
              "7th",
              "dim7",
              "dim",
              "minMaj7",
              "min7(11)",
              "min(9)",
              "m7b5",
              "min7",
              "min",
              "aug",
              "Maj(9)",
              "Maj7#11",
              "Maj7",
              "Maj"
            ],
            "autoStart": false,
            "sourceChordNote": 0,
            "sourceChordType": "Maj7",
            "ctb2Low": null,
            "ctb2Main": {
              "ntr": "ROOT_TRANSPOSITION",
              "ntt": "MELODY",
              "bassOn": false,
              "chordRootUpperLimit": 8,
              "noteLowLimit": 52,
              "noteHighLimit": 63,
              "rtr": "PITCH_SHIFT"
            },
            "ctb2High": null
          },
          "notes": [
            {
              "pitch": 43,
              "velocity": 50,
              "position": 0,
              "duration": 4.989583333333333
            }
          ]
        },
        "7": {
          "ctab": {
            "srcChannel": 7,
            "name": "pf 9",
            "accType": "CHORD2",
            "editable": false,
            "mutedNotes": [],
            "mutedChords": [
              "1+2+5",
              "sus4",
              "1+5",
              "1+8",
              "7aug",
              "Maj7aug",
              "7(#9)",
              "7(b9)",
              "7(9)",
              "7b5",
              "7sus4",
              "7th",
              "dim7",
              "dim",
              "minMaj7(9)",
              "minMaj7",
              "min7(9)",
              "min(9)",
              "m7b5",
              "min7",
              "min6",
              "min",
              "aug",
              "Maj6(9)",
              "Maj7(9)",
              "Maj(9)",
              "Maj7#11",
              "Maj7",
              "Maj6",
              "Maj"
            ],
            "autoStart": false,
            "sourceChordNote": 0,
            "sourceChordType": "Maj7",
            "ctb2Low": null,
            "ctb2Main": {
              "ntr": "ROOT_TRANSPOSITION",
              "ntt": "MELODY",
              "bassOn": false,
              "chordRootUpperLimit": 8,
              "noteLowLimit": 56,
              "noteHighLimit": 67,
              "rtr": "PITCH_SHIFT"
            },
            "ctb2High": null
          },
          "notes": [
            {
              "pitch": 62,
              "velocity": 50,
              "position": 0,
              "duration": 4.989583333333333
            }
          ]
        },
        "8": {
          "ctab": {
            "srcChannel": 8,
            "name": "CC Crash",
            "accType": "RHYTHM",
            "editable": true,
            "mutedNotes": [],
            "mutedChords": [
              "1+2+5",
              "sus4",
              "1+5",
              "1+8",
              "7aug",
              "Maj7aug",
              "7(#9)",
              "7(b13)",
              "7(b9)",
              "7(13)",
              "7#11",
              "7(9)",
              "7b5",
              "7sus4",
              "7th",
              "dim7",
              "dim",
              "minMaj7(9)",
              "minMaj7",
              "min7(11)",
              "min7(9)",
              "min(9)",
              "m7b5",
              "min7",
              "min6",
              "min",
              "aug",
              "Maj6(9)",
              "Maj7(9)",
              "Maj(9)",
              "Maj7#11",
              "Maj7",
              "Maj6",
              "Maj"
            ],
            "autoStart": true,
            "sourceChordNote": 0,
            "sourceChordType": "Maj7",
            "ctb2Low": null,
            "ctb2Main": {
              "ntr": "ROOT_FIXED",
              "ntt": "BYPASS",
              "bassOn": false,
              "chordRootUpperLimit": 6,
              "noteLowLimit": 0,
              "noteHighLimit": 127,
              "rtr": "RETRIGGER"
            },
            "ctb2High": null
          },
          "notes": []
        },
        "9": {
          "ctab": {
            "srcChannel": 9,
            "name": "Drs",
            "accType": "RHYTHM",
            "editable": false,
            "mutedNotes": [],
            "mutedChords": [],
            "autoStart": true,
            "sourceChordNote": 0,
            "sourceChordType": "Maj7",
            "ctb2Low": null,
            "ctb2Main": {
              "ntr": "ROOT_FIXED",
              "ntt": "BYPASS",
              "bassOn": false,
              "chordRootUpperLimit": 6,
              "noteLowLimit": 0,
              "noteHighLimit": 127,
              "rtr": "PITCH_SHIFT"
            },
            "ctb2High": null
          },
          "notes": [
            {
              "pitch": 33,
              "velocity": 46,
              "position": 0,
              "duration": 0.010416666666666666
            }
          ]
        },
        "10": {
          "ctab": {
            "srcChannel": 10,
            "name": "Bass",
            "accType": "BASS",
            "editable": false,
            "mutedNotes": [],
            "mutedChords": [],
            "autoStart": false,
            "sourceChordNote": 0,
            "sourceChordType": "Maj7",
            "ctb2Low": null,
            "ctb2Main": {
              "ntr": "ROOT_TRANSPOSITION",
              "ntt": "MELODY",
              "bassOn": true,
              "chordRootUpperLimit": 8,
              "noteLowLimit": 28,
              "noteHighLimit": 127,
              "rtr": "PITCH_SHIFT_TO_ROOT"
            },
            "ctb2High": null
          },
          "notes": [
            {
              "pitch": 24,
              "velocity": 50,
              "position": 0,
              "duration": 4.989583333333333
            }
          ]
        },
        "12": {
          "ctab": {
            "srcChannel": 12,
            "name": "Str",
            "accType": "PAD",
            "editable": false,
            "mutedNotes": [],
            "mutedChords": [],
            "autoStart": false,
            "sourceChordNote": 0,
            "sourceChordType": "Maj7",
            "ctb2Low": null,
            "ctb2Main": {
              "ntr": "ROOT_FIXED",
              "ntt": "CHORD",
              "bassOn": false,
              "chordRootUpperLimit": 7,
              "noteLowLimit": 0,
              "noteHighLimit": 127,
              "rtr": "PITCH_SHIFT"
            },
            "ctb2High": null
          },
          "notes": [
            {
              "pitch": 55,
              "velocity": 62,
              "position": 0,
              "duration": 4.989583333333333
            },
            {
              "pitch": 64,
              "velocity": 62,
              "position": 0,
              "duration": 4.989583333333333
            },
            {
              "pitch": 59,
              "velocity": 62,
              "position": 0,
              "duration": 4.989583333333333
            }
          ]
        },
        "13": {
          "ctab": {
            "srcChannel": 13,
            "name": "Str Root",
            "accType": "PAD",
            "editable": false,
            "mutedNotes": [],
            "mutedChords": [
              "1+2+5",
              "sus4",
              "1+5",
              "1+8",
              "Maj7aug",
              "dim",
              "minMaj7(9)",
              "minMaj7",
              "min6",
              "min",
              "aug",
              "Maj7(9)",
              "Maj7#11",
              "Maj7",
              "Maj6",
              "Maj"
            ],
            "autoStart": false,
            "sourceChordNote": 0,
            "sourceChordType": "Maj7",
            "ctb2Low": null,
            "ctb2Main": {
              "ntr": "ROOT_TRANSPOSITION",
              "ntt": "CHORD",
              "bassOn": false,
              "chordRootUpperLimit": 6,
              "noteLowLimit": 0,
              "noteHighLimit": 127,
              "rtr": "PITCH_SHIFT_TO_ROOT"
            },
            "ctb2High": null
          },
          "notes": [
            {
              "pitch": 60,
              "velocity": 62,
              "position": 0,
              "duration": 4.989583333333333
            }
          ]
        }
      }
    },
    "Fill_In_BA": {
      "type": "Fill_In_BA",
      "sizeInBeats": 3,
      "channels": {
        "0": {
          "ctab": {
            "srcChannel": 0,
            "name": "gt 3 & 7",
            "accType": "CHORD1",
            "editable": false,
            "mutedNotes": [],
            "mutedChords": [],
            "autoStart": false,
            "sourceChordNote": 0,
            "sourceChordType": "Maj7",
            "ctb2Low": null,
            "ctb2Main": {
              "ntr": "ROOT_TRANSPOSITION",
              "ntt": "MELODY",
              "bassOn": false,
              "chordRootUpperLimit": 8,
              "noteLowLimit": 54,
              "noteHighLimit": 65,
              "rtr": "PITCH_SHIFT"
            },
            "ctb2High": null
          },
          "notes": [
            {
              "pitch": 59,
              "velocity": 40,
              "position": 0.010416666666666666,
              "duration": 0.6458333333333334
            },
            {
              "pitch": 64,
              "velocity": 40,
              "position": 0.020833333333333332,
              "duration": 0.6354166666666666
            }
          ]
        },
        "1": {
          "ctab": {
            "srcChannel": 1,
            "name": "gt 5",
            "accType": "CHORD1",
            "editable": false,
            "mutedNotes": [],
            "mutedChords": [
              "1+5",
              "1+8",
              "7(#9)",
              "7(b9)",
              "7(13)",
              "7(9)",
              "minMaj7(9)",
              "min7(9)",
              "Maj7(9)"
            ],
            "autoStart": false,
            "sourceChordNote": 0,
            "sourceChordType": "Maj7",
            "ctb2Low": null,
            "ctb2Main": {
              "ntr": "ROOT_TRANSPOSITION",
              "ntt": "CHORD",
              "bassOn": false,
              "chordRootUpperLimit": 8,
              "noteLowLimit": 54,
              "noteHighLimit": 65,
              "rtr": "PITCH_SHIFT"
            },
            "ctb2High": null
          },
          "notes": [
            {
              "pitch": 55,
              "velocity": 40,
              "position": 0,
              "duration": 0.65625
            }
          ]
        },
        "2": {
          "ctab": {
            "srcChannel": 2,
            "name": "gt 5 & 9",
            "accType": "CHORD1",
            "editable": false,
            "mutedNotes": [],
            "mutedChords": [
              "1+2+5",
              "sus4",
              "1+5",
              "1+8",
              "7aug",
              "Maj7aug",
              "7(b13)",
              "7(13)",
              "7#11",
              "7b5",
              "7sus4",
              "7th",
              "dim7",
              "dim",
              "minMaj7",
              "min7(11)",
              "min(9)",
              "m7b5",
              "min7",
              "min6",
              "min",
              "aug",
              "Maj6(9)",
              "Maj(9)",
              "Maj7#11",
              "Maj7",
              "Maj6",
              "Maj"
            ],
            "autoStart": false,
            "sourceChordNote": 0,
            "sourceChordType": "Maj7",
            "ctb2Low": null,
            "ctb2Main": {
              "ntr": "ROOT_TRANSPOSITION",
              "ntt": "MELODY",
              "bassOn": false,
              "chordRootUpperLimit": 8,
              "noteLowLimit": 62,
              "noteHighLimit": 73,
              "rtr": "PITCH_SHIFT"
            },
            "ctb2High": null
          },
          "notes": [
            {
              "pitch": 67,
              "velocity": 40,
              "position": 0.010416666666666666,
              "duration": 0.6458333333333334
            },
            {
              "pitch": 62,
              "velocity": 40,
              "position": 0.020833333333333332,
              "duration": 0.6354166666666666
            }
          ]
        },
        "3": {
          "ctab": {
            "srcChannel": 3,
            "name": "gt 6 & 9",
            "accType": "CHORD1",
            "editable": false,
            "mutedNotes": [],
            "mutedChords": [
              "1+2+5",
              "sus4",
              "1+5",
              "1+8",
              "7aug",
              "Maj7aug",
              "7(#9)",
              "7(b13)",
              "7(b9)",
              "7#11",
              "7(9)",
              "7b5",
              "7sus4",
              "7th",
              "dim7",
              "dim",
              "minMaj7(9)",
              "minMaj7",
              "min7(11)",
              "min7(9)",
              "min(9)",
              "m7b5",
              "min7",
              "min6",
              "min",
              "aug",
              "Maj6(9)",
              "Maj7(9)",
              "Maj(9)",
              "Maj7#11",
              "Maj7",
              "Maj6",
              "Maj"
            ],
            "autoStart": false,
            "sourceChordNote": 0,
            "sourceChordType": "Maj7",
            "ctb2Low": null,
            "ctb2Main": {
              "ntr": "ROOT_TRANSPOSITION",
              "ntt": "MELODY",
              "bassOn": false,
              "chordRootUpperLimit": 8,
              "noteLowLimit": 62,
              "noteHighLimit": 73,
              "rtr": "PITCH_SHIFT"
            },
            "ctb2High": null
          },
          "notes": [
            {
              "pitch": 62,
              "velocity": 40,
              "position": 0.010416666666666666,
              "duration": 0.6458333333333334
            },
            {
              "pitch": 69,
              "velocity": 40,
              "position": 0.020833333333333332,
              "duration": 0.6354166666666666
            }
          ]
        },
        "4": {
          "ctab": {
            "srcChannel": 4,
            "name": "pf",
            "accType": "CHORD2",
            "editable": false,
            "mutedNotes": [],
            "mutedChords": [],
            "autoStart": false,
            "sourceChordNote": 0,
            "sourceChordType": "Maj7",
            "ctb2Low": null,
            "ctb2Main": {
              "ntr": "ROOT_TRANSPOSITION",
              "ntt": "CHORD",
              "bassOn": false,
              "chordRootUpperLimit": 11,
              "noteLowLimit": 52,
              "noteHighLimit": 127,
              "rtr": "PITCH_SHIFT"
            },
            "ctb2High": null
          },
          "notes": [
            {
              "pitch": 40,
              "velocity": 50,
              "position": 0,
              "duration": 0.65625
            },
            {
              "pitch": 47,
              "velocity": 50,
              "position": 0,
              "duration": 0.65625
            },
            {
              "pitch": 43,
              "velocity": 50,
              "position": 0,
              "duration": 0.65625
            }
          ]
        },
        "5": {
          "ctab": {
            "srcChannel": 5,
            "name": "pf 1",
            "accType": "CHORD2",
            "editable": false,
            "mutedNotes": [],
            "mutedChords": [
              "1+2+5",
              "sus4",
              "1+5",
              "1+8",
              "7aug",
              "Maj7aug",
              "7(#9)",
              "7(b13)",
              "7(b9)",
              "7(13)",
              "7#11",
              "7(9)",
              "7b5",
              "7sus4",
              "7th",
              "dim",
              "minMaj7(9)",
              "minMaj7",
              "min7(11)",
              "min7(9)",
              "min6",
              "min",
              "aug",
              "Maj6(9)",
              "Maj7(9)",
              "Maj7#11",
              "Maj7",
              "Maj6",
              "Maj"
            ],
            "autoStart": false,
            "sourceChordNote": 0,
            "sourceChordType": "Maj7",
            "ctb2Low": null,
            "ctb2Main": {
              "ntr": "ROOT_TRANSPOSITION",
              "ntt": "MELODY",
              "bassOn": false,
              "chordRootUpperLimit": 8,
              "noteLowLimit": 52,
              "noteHighLimit": 63,
              "rtr": "PITCH_SHIFT"
            },
            "ctb2High": null
          },
          "notes": [
            {
              "pitch": 48,
              "velocity": 50,
              "position": 0,
              "duration": 0.65625
            }
          ]
        },
        "6": {
          "ctab": {
            "srcChannel": 6,
            "name": "pf 5",
            "accType": "CHORD2",
            "editable": false,
            "mutedNotes": [],
            "mutedChords": [
              "1+2+5",
              "sus4",
              "1+5",
              "1+8",
              "7aug",
              "Maj7aug",
              "7(#9)",
              "7(b13)",
              "7(b9)",
              "7(13)",
              "7#11",
              "7b5",
              "7sus4",
              "7th",
              "dim7",
              "dim",
              "minMaj7",
              "min7(11)",
              "min(9)",
              "m7b5",
              "min7",
              "min",
              "aug",
              "Maj(9)",
              "Maj7#11",
              "Maj7",
              "Maj"
            ],
            "autoStart": false,
            "sourceChordNote": 0,
            "sourceChordType": "Maj7",
            "ctb2Low": null,
            "ctb2Main": {
              "ntr": "ROOT_TRANSPOSITION",
              "ntt": "MELODY",
              "bassOn": false,
              "chordRootUpperLimit": 8,
              "noteLowLimit": 52,
              "noteHighLimit": 63,
              "rtr": "PITCH_SHIFT"
            },
            "ctb2High": null
          },
          "notes": [
            {
              "pitch": 43,
              "velocity": 50,
              "position": 0,
              "duration": 0.65625
            }
          ]
        },
        "7": {
          "ctab": {
            "srcChannel": 7,
            "name": "pf 9",
            "accType": "CHORD2",
            "editable": false,
            "mutedNotes": [],
            "mutedChords": [
              "1+2+5",
              "sus4",
              "1+5",
              "1+8",
              "7aug",
              "Maj7aug",
              "7(#9)",
              "7(b9)",
              "7(9)",
              "7b5",
              "7sus4",
              "7th",
              "dim7",
              "dim",
              "minMaj7(9)",
              "minMaj7",
              "min7(9)",
              "min(9)",
              "m7b5",
              "min7",
              "min6",
              "min",
              "aug",
              "Maj6(9)",
              "Maj7(9)",
              "Maj(9)",
              "Maj7#11",
              "Maj7",
              "Maj6",
              "Maj"
            ],
            "autoStart": false,
            "sourceChordNote": 0,
            "sourceChordType": "Maj7",
            "ctb2Low": null,
            "ctb2Main": {
              "ntr": "ROOT_TRANSPOSITION",
              "ntt": "MELODY",
              "bassOn": false,
              "chordRootUpperLimit": 8,
              "noteLowLimit": 56,
              "noteHighLimit": 67,
              "rtr": "PITCH_SHIFT"
            },
            "ctb2High": null
          },
          "notes": [
            {
              "pitch": 62,
              "velocity": 50,
              "position": 0,
              "duration": 0.65625
            }
          ]
        },
        "8": {
          "ctab": {
            "srcChannel": 8,
            "name": "CC Crash",
            "accType": "RHYTHM",
            "editable": true,
            "mutedNotes": [],
            "mutedChords": [
              "1+2+5",
              "sus4",
              "1+5",
              "1+8",
              "7aug",
              "Maj7aug",
              "7(#9)",
              "7(b13)",
              "7(b9)",
              "7(13)",
              "7#11",
              "7(9)",
              "7b5",
              "7sus4",
              "7th",
              "dim7",
              "dim",
              "minMaj7(9)",
              "minMaj7",
              "min7(11)",
              "min7(9)",
              "min(9)",
              "m7b5",
              "min7",
              "min6",
              "min",
              "aug",
              "Maj6(9)",
              "Maj7(9)",
              "Maj(9)",
              "Maj7#11",
              "Maj7",
              "Maj6",
              "Maj"
            ],
            "autoStart": true,
            "sourceChordNote": 0,
            "sourceChordType": "Maj7",
            "ctb2Low": null,
            "ctb2Main": {
              "ntr": "ROOT_FIXED",
              "ntt": "BYPASS",
              "bassOn": false,
              "chordRootUpperLimit": 6,
              "noteLowLimit": 0,
              "noteHighLimit": 127,
              "rtr": "RETRIGGER"
            },
            "ctb2High": null
          },
          "notes": []
        },
        "9": {
          "ctab": {
            "srcChannel": 9,
            "name": "Drs",
            "accType": "RHYTHM",
            "editable": false,
            "mutedNotes": [],
            "mutedChords": [],
            "autoStart": true,
            "sourceChordNote": 0,
            "sourceChordType": "Maj7",
            "ctb2Low": null,
            "ctb2Main": {
              "ntr": "ROOT_FIXED",
              "ntt": "BYPASS",
              "bassOn": false,
              "chordRootUpperLimit": 6,
              "noteLowLimit": 0,
              "noteHighLimit": 127,
              "rtr": "PITCH_SHIFT"
            },
            "ctb2High": null
          },
          "notes": [
            {
              "pitch": 33,
              "velocity": 34,
              "position": 0,
              "duration": 0.010416666666666666
            },
            {
              "pitch": 57,
              "velocity": 36,
              "position": 0,
              "duration": 0.010416666666666666
            },
            {
              "pitch": 25,
              "velocity": 42,
              "position": 0.3333333333333333,
              "duration": 0.010416666666666666
            },
            {
              "pitch": 45,
              "velocity": 38,
              "position": 0.6666666666666666,
              "duration": 0.010416666666666666
            },
            {
              "pitch": 26,
              "velocity": 60,
              "position": 0,
              "duration": 1
            },
            {
              "pitch": 44,
              "velocity": 30,
              "position": 1,
              "duration": 0.010416666666666666
            },
            {
              "pitch": 25,
              "velocity": 42,
              "position": 1.3333333333333333,
              "duration": 0.010416666666666666
            },
            {
              "pitch": 40,
              "velocity": 72,
              "position": 1.6666666666666667,
              "duration": 0.010416666666666666
            },
            {
              "pitch": 26,
              "velocity": 40,
              "position": 1,
              "duration": 1
            },
            {
              "pitch": 44,
              "velocity": 37,
              "position": 2,
              "duration": 0.010416666666666666
            },
            {
              "pitch": 25,
              "velocity": 42,
              "position": 2.3333333333333335,
              "duration": 0.010416666666666666
            },
            {
              "pitch": 33,
              "velocity": 34,
              "position": 2.6666666666666665,
              "duration": 0.010416666666666666
            },
            {
              "pitch": 28,
              "velocity": 29,
              "position": 2,
              "duration": 1
            },
            {
              "pitch": 57,
              "velocity": 36,
              "position": 2.9895833333333335,
              "duration": 0.010416666666666666
            }
          ]
        },
        "10": {
          "ctab": {
            "srcChannel": 10,
            "name": "Bass",
            "accType": "BASS",
            "editable": false,
            "mutedNotes": [],
            "mutedChords": [],
            "autoStart": false,
            "sourceChordNote": 0,
            "sourceChordType": "Maj7",
            "ctb2Low": null,
            "ctb2Main": {
              "ntr": "ROOT_TRANSPOSITION",
              "ntt": "MELODY",
              "bassOn": true,
              "chordRootUpperLimit": 8,
              "noteLowLimit": 28,
              "noteHighLimit": 127,
              "rtr": "PITCH_SHIFT_TO_ROOT"
            },
            "ctb2High": null
          },
          "notes": [
            {
              "pitch": 24,
              "velocity": 50,
              "position": 0,
              "duration": 1.2395833333333333
            }
          ]
        },
        "12": {
          "ctab": {
            "srcChannel": 12,
            "name": "Str",
            "accType": "PAD",
            "editable": false,
            "mutedNotes": [],
            "mutedChords": [],
            "autoStart": false,
            "sourceChordNote": 0,
            "sourceChordType": "Maj7",
            "ctb2Low": null,
            "ctb2Main": {
              "ntr": "ROOT_FIXED",
              "ntt": "CHORD",
              "bassOn": false,
              "chordRootUpperLimit": 7,
              "noteLowLimit": 0,
              "noteHighLimit": 127,
              "rtr": "PITCH_SHIFT"
            },
            "ctb2High": null
          },
          "notes": [
            {
              "pitch": 55,
              "velocity": 62,
              "position": 0,
              "duration": 0.65625
            },
            {
              "pitch": 64,
              "velocity": 62,
              "position": 0,
              "duration": 0.65625
            },
            {
              "pitch": 59,
              "velocity": 62,
              "position": 0,
              "duration": 0.65625
            }
          ]
        },
        "13": {
          "ctab": {
            "srcChannel": 13,
            "name": "Str Root",
            "accType": "PAD",
            "editable": false,
            "mutedNotes": [],
            "mutedChords": [
              "1+2+5",
              "sus4",
              "1+5",
              "1+8",
              "Maj7aug",
              "dim",
              "minMaj7(9)",
              "minMaj7",
              "min6",
              "min",
              "aug",
              "Maj7(9)",
              "Maj7#11",
              "Maj7",
              "Maj6",
              "Maj"
            ],
            "autoStart": false,
            "sourceChordNote": 0,
            "sourceChordType": "Maj7",
            "ctb2Low": null,
            "ctb2Main": {
              "ntr": "ROOT_TRANSPOSITION",
              "ntt": "CHORD",
              "bassOn": false,
              "chordRootUpperLimit": 6,
              "noteLowLimit": 0,
              "noteHighLimit": 127,
              "rtr": "PITCH_SHIFT_TO_ROOT"
            },
            "ctb2High": null
          },
          "notes": [
            {
              "pitch": 60,
              "velocity": 62,
              "position": 0,
              "duration": 0.65625
            }
          ]
        }
      }
    },
    "Intro_B": {
      "type": "Intro_B",
      "sizeInBeats": 12,
      "channels": {
        "0": {
          "ctab": {
            "srcChannel": 0,
            "name": "C1",
            "accType": "CHORD1",
            "editable": false,
            "mutedNotes": [],
            "mutedChords": [
              "dim7",
              "dim",
              "minMaj7(9)",
              "minMaj7",
              "min7(11)",
              "min7(9)",
              "min(9)",
              "m7b5",
              "min7",
              "min6",
              "min"
            ],
            "autoStart": false,
            "sourceChordNote": 0,
            "sourceChordType": "Maj",
            "ctb2Low": null,
            "ctb2Main": {
              "ntr": "ROOT_TRANSPOSITION",
              "ntt": "BYPASS",
              "bassOn": false,
              "chordRootUpperLimit": 8,
              "noteLowLimit": 0,
              "noteHighLimit": 127,
              "rtr": "PITCH_SHIFT"
            },
            "ctb2High": null
          },
          "notes": [
            {
              "pitch": 59,
              "velocity": 40,
              "position": 0,
              "duration": 2.6458333333333335
            },
            {
              "pitch": 64,
              "velocity": 40,
              "position": 0.10416666666666667,
              "duration": 2.6458333333333335
            },
            {
              "pitch": 67,
              "velocity": 40,
              "position": 0.20833333333333334,
              "duration": 2.6458333333333335
            },
            {
              "pitch": 60,
              "velocity": 40,
              "position": 3,
              "duration": 2.6458333333333335
            },
            {
              "pitch": 65,
              "velocity": 40,
              "position": 3.1041666666666665,
              "duration": 2.6458333333333335
            },
            {
              "pitch": 69,
              "velocity": 40,
              "position": 3.2083333333333335,
              "duration": 2.6458333333333335
            },
            {
              "pitch": 62,
              "velocity": 40,
              "position": 6,
              "duration": 2.6458333333333335
            },
            {
              "pitch": 67,
              "velocity": 40,
              "position": 6.104166666666667,
              "duration": 2.6458333333333335
            },
            {
              "pitch": 71,
              "velocity": 40,
              "position": 6.208333333333333,
              "duration": 2.6458333333333335
            },
            {
              "pitch": 60,
              "velocity": 40,
              "position": 9,
              "duration": 2.6458333333333335
            },
            {
              "pitch": 65,
              "velocity": 40,
              "position": 9.104166666666666,
              "duration": 2.6458333333333335
            },
            {
              "pitch": 69,
              "velocity": 40,
              "position": 9.208333333333334,
              "duration": 2.6458333333333335
            }
          ]
        },
        "1": {
          "ctab": {
            "srcChannel": 1,
            "name": "C1",
            "accType": "CHORD1",
            "editable": false,
            "mutedNotes": [],
            "mutedChords": [
              "1+2+5",
              "sus4",
              "1+5",
              "1+8",
              "7aug",
              "Maj7aug",
              "7(#9)",
              "7(b13)",
              "7(b9)",
              "7(13)",
              "7#11",
              "7(9)",
              "7b5",
              "7sus4",
              "7th",
              "aug",
              "Maj6(9)",
              "Maj7(9)",
              "Maj(9)",
              "Maj7#11",
              "Maj7",
              "Maj6",
              "Maj"
            ],
            "autoStart": false,
            "sourceChordNote": 0,
            "sourceChordType": "min",
            "ctb2Low": null,
            "ctb2Main": {
              "ntr": "ROOT_TRANSPOSITION",
              "ntt": "BYPASS",
              "bassOn": false,
              "chordRootUpperLimit": 8,
              "noteLowLimit": 0,
              "noteHighLimit": 127,
              "rtr": "PITCH_SHIFT"
            },
            "ctb2High": null
          },
          "notes": [
            {
              "pitch": 58,
              "velocity": 40,
              "position": 0,
              "duration": 2.6458333333333335
            },
            {
              "pitch": 63,
              "velocity": 40,
              "position": 0.10416666666666667,
              "duration": 2.6458333333333335
            },
            {
              "pitch": 67,
              "velocity": 40,
              "position": 0.20833333333333334,
              "duration": 2.6458333333333335
            },
            {
              "pitch": 60,
              "velocity": 40,
              "position": 3,
              "duration": 2.6458333333333335
            },
            {
              "pitch": 65,
              "velocity": 40,
              "position": 3.1041666666666665,
              "duration": 2.6458333333333335
            },
            {
              "pitch": 69,
              "velocity": 40,
              "position": 3.2083333333333335,
              "duration": 2.6458333333333335
            },
            {
              "pitch": 62,
              "velocity": 40,
              "position": 6,
              "duration": 2.6458333333333335
            },
            {
              "pitch": 67,
              "velocity": 40,
              "position": 6.104166666666667,
              "duration": 2.6458333333333335
            },
            {
              "pitch": 70,
              "velocity": 40,
              "position": 6.208333333333333,
              "duration": 2.6458333333333335
            },
            {
              "pitch": 60,
              "velocity": 40,
              "position": 9,
              "duration": 2.6458333333333335
            },
            {
              "pitch": 65,
              "velocity": 40,
              "position": 9.104166666666666,
              "duration": 2.6458333333333335
            },
            {
              "pitch": 69,
              "velocity": 40,
              "position": 9.208333333333334,
              "duration": 2.6458333333333335
            }
          ]
        },
        "4": {
          "ctab": {
            "srcChannel": 4,
            "name": "C2",
            "accType": "CHORD2",
            "editable": false,
            "mutedNotes": [],
            "mutedChords": [
              "dim7",
              "dim",
              "minMaj7(9)",
              "minMaj7",
              "min7(11)",
              "min7(9)",
              "min(9)",
              "m7b5",
              "min7",
              "min6",
              "min"
            ],
            "autoStart": false,
            "sourceChordNote": 0,
            "sourceChordType": "Maj",
            "ctb2Low": null,
            "ctb2Main": {
              "ntr": "ROOT_TRANSPOSITION",
              "ntt": "BYPASS",
              "bassOn": false,
              "chordRootUpperLimit": 8,
              "noteLowLimit": 54,
              "noteHighLimit": 127,
              "rtr": "PITCH_SHIFT"
            },
            "ctb2High": null
          },
          "notes": [
            {
              "pitch": 40,
              "velocity": 70,
              "position": 0.6666666666666666,
              "duration": 0.23541666666666666
            },
            {
              "pitch": 79,
              "velocity": 70,
              "position": 0.6666666666666666,
              "duration": 0.23541666666666666
            },
            {
              "pitch": 67,
              "velocity": 70,
              "position": 0.6666666666666666,
              "duration": 0.23541666666666666
            },
            {
              "pitch": 50,
              "velocity": 70,
              "position": 0.6666666666666666,
              "duration": 0.23541666666666666
            },
            {
              "pitch": 47,
              "velocity": 70,
              "position": 0.6666666666666666,
              "duration": 0.23541666666666666
            },
            {
              "pitch": 40,
              "velocity": 80,
              "position": 2,
              "duration": 0.9020833333333333
            },
            {
              "pitch": 79,
              "velocity": 80,
              "position": 2,
              "duration": 0.9020833333333333
            },
            {
              "pitch": 67,
              "velocity": 80,
              "position": 2,
              "duration": 0.9020833333333333
            },
            {
              "pitch": 50,
              "velocity": 80,
              "position": 2,
              "duration": 0.9020833333333333
            },
            {
              "pitch": 47,
              "velocity": 80,
              "position": 2,
              "duration": 0.9020833333333333
            },
            {
              "pitch": 45,
              "velocity": 70,
              "position": 3.6666666666666665,
              "duration": 0.23541666666666666
            },
            {
              "pitch": 77,
              "velocity": 70,
              "position": 3.6666666666666665,
              "duration": 0.23541666666666666
            },
            {
              "pitch": 65,
              "velocity": 70,
              "position": 3.6666666666666665,
              "duration": 0.23541666666666666
            },
            {
              "pitch": 50,
              "velocity": 40,
              "position": 3.6666666666666665,
              "duration": 0.23541666666666666
            },
            {
              "pitch": 48,
              "velocity": 70,
              "position": 3.6666666666666665,
              "duration": 0.23541666666666666
            },
            {
              "pitch": 45,
              "velocity": 80,
              "position": 5,
              "duration": 0.9020833333333333
            },
            {
              "pitch": 77,
              "velocity": 80,
              "position": 5,
              "duration": 0.9020833333333333
            },
            {
              "pitch": 65,
              "velocity": 80,
              "position": 5,
              "duration": 0.9020833333333333
            },
            {
              "pitch": 50,
              "velocity": 50,
              "position": 5,
              "duration": 0.9020833333333333
            },
            {
              "pitch": 48,
              "velocity": 80,
              "position": 5,
              "duration": 0.9020833333333333
            },
            {
              "pitch": 43,
              "velocity": 70,
              "position": 6.666666666666667,
              "duration": 1.2354166666666666
            },
            {
              "pitch": 76,
              "velocity": 70,
              "position": 6.666666666666667,
              "duration": 1.2354166666666666
            },
            {
              "pitch": 64,
              "velocity": 70,
              "position": 6.666666666666667,
              "duration": 1.2354166666666666
            },
            {
              "pitch": 50,
              "velocity": 70,
              "position": 6.666666666666667,
              "duration": 1.2354166666666666
            },
            {
              "pitch": 47,
              "velocity": 70,
              "position": 6.666666666666667,
              "duration": 1.2354166666666666
            },
            {
              "pitch": 43,
              "velocity": 60,
              "position": 8,
              "duration": 0.9020833333333333
            },
            {
              "pitch": 76,
              "velocity": 60,
              "position": 8,
              "duration": 0.9020833333333333
            },
            {
              "pitch": 64,
              "velocity": 60,
              "position": 8,
              "duration": 0.9020833333333333
            },
            {
              "pitch": 50,
              "velocity": 60,
              "position": 8,
              "duration": 0.9020833333333333
            },
            {
              "pitch": 47,
              "velocity": 60,
              "position": 8,
              "duration": 0.9020833333333333
            },
            {
              "pitch": 41,
              "velocity": 55,
              "position": 9,
              "duration": 2.902083333333333
            },
            {
              "pitch": 74,
              "velocity": 55,
              "position": 9,
              "duration": 2.902083333333333
            },
            {
              "pitch": 62,
              "velocity": 55,
              "position": 9,
              "duration": 2.902083333333333
            },
            {
              "pitch": 48,
              "velocity": 55,
              "position": 9,
              "duration": 2.902083333333333
            },
            {
              "pitch": 45,
              "velocity": 55,
              "position": 9,
              "duration": 2.902083333333333
            }
          ]
        },
        "5": {
          "ctab": {
            "srcChannel": 5,
            "name": "C2",
            "accType": "CHORD2",
            "editable": false,
            "mutedNotes": [],
            "mutedChords": [
              "1+2+5",
              "sus4",
              "1+5",
              "1+8",
              "7aug",
              "Maj7aug",
              "7(#9)",
              "7(b13)",
              "7(b9)",
              "7(13)",
              "7#11",
              "7(9)",
              "7b5",
              "7sus4",
              "7th",
              "aug",
              "Maj6(9)",
              "Maj7(9)",
              "Maj(9)",
              "Maj7#11",
              "Maj7",
              "Maj6",
              "Maj"
            ],
            "autoStart": false,
            "sourceChordNote": 0,
            "sourceChordType": "min",
            "ctb2Low": null,
            "ctb2Main": {
              "ntr": "ROOT_TRANSPOSITION",
              "ntt": "BYPASS",
              "bassOn": false,
              "chordRootUpperLimit": 8,
              "noteLowLimit": 54,
              "noteHighLimit": 127,
              "rtr": "PITCH_SHIFT"
            },
            "ctb2High": null
          },
          "notes": [
            {
              "pitch": 39,
              "velocity": 70,
              "position": 0.6666666666666666,
              "duration": 0.23541666666666666
            },
            {
              "pitch": 79,
              "velocity": 70,
              "position": 0.6666666666666666,
              "duration": 0.23541666666666666
            },
            {
              "pitch": 67,
              "velocity": 70,
              "position": 0.6666666666666666,
              "duration": 0.23541666666666666
            },
            {
              "pitch": 50,
              "velocity": 70,
              "position": 0.6666666666666666,
              "duration": 0.23541666666666666
            },
            {
              "pitch": 46,
              "velocity": 70,
              "position": 0.6666666666666666,
              "duration": 0.23541666666666666
            },
            {
              "pitch": 39,
              "velocity": 80,
              "position": 2,
              "duration": 0.9020833333333333
            },
            {
              "pitch": 79,
              "velocity": 80,
              "position": 2,
              "duration": 0.9020833333333333
            },
            {
              "pitch": 67,
              "velocity": 80,
              "position": 2,
              "duration": 0.9020833333333333
            },
            {
              "pitch": 50,
              "velocity": 80,
              "position": 2,
              "duration": 0.9020833333333333
            },
            {
              "pitch": 46,
              "velocity": 80,
              "position": 2,
              "duration": 0.9020833333333333
            },
            {
              "pitch": 45,
              "velocity": 70,
              "position": 3.6666666666666665,
              "duration": 0.23541666666666666
            },
            {
              "pitch": 77,
              "velocity": 70,
              "position": 3.6666666666666665,
              "duration": 0.23541666666666666
            },
            {
              "pitch": 65,
              "velocity": 70,
              "position": 3.6666666666666665,
              "duration": 0.23541666666666666
            },
            {
              "pitch": 50,
              "velocity": 40,
              "position": 3.6666666666666665,
              "duration": 0.23541666666666666
            },
            {
              "pitch": 48,
              "velocity": 70,
              "position": 3.6666666666666665,
              "duration": 0.23541666666666666
            },
            {
              "pitch": 45,
              "velocity": 80,
              "position": 5,
              "duration": 0.9020833333333333
            },
            {
              "pitch": 77,
              "velocity": 80,
              "position": 5,
              "duration": 0.9020833333333333
            },
            {
              "pitch": 65,
              "velocity": 80,
              "position": 5,
              "duration": 0.9020833333333333
            },
            {
              "pitch": 50,
              "velocity": 50,
              "position": 5,
              "duration": 0.9020833333333333
            },
            {
              "pitch": 48,
              "velocity": 80,
              "position": 5,
              "duration": 0.9020833333333333
            },
            {
              "pitch": 43,
              "velocity": 70,
              "position": 6.666666666666667,
              "duration": 1.2354166666666666
            },
            {
              "pitch": 75,
              "velocity": 70,
              "position": 6.666666666666667,
              "duration": 1.2354166666666666
            },
            {
              "pitch": 63,
              "velocity": 70,
              "position": 6.666666666666667,
              "duration": 1.2354166666666666
            },
            {
              "pitch": 50,
              "velocity": 70,
              "position": 6.666666666666667,
              "duration": 1.2354166666666666
            },
            {
              "pitch": 46,
              "velocity": 70,
              "position": 6.666666666666667,
              "duration": 1.2354166666666666
            },
            {
              "pitch": 43,
              "velocity": 60,
              "position": 8,
              "duration": 0.9020833333333333
            },
            {
              "pitch": 75,
              "velocity": 60,
              "position": 8,
              "duration": 0.9020833333333333
            },
            {
              "pitch": 63,
              "velocity": 60,
              "position": 8,
              "duration": 0.9020833333333333
            },
            {
              "pitch": 50,
              "velocity": 60,
              "position": 8,
              "duration": 0.9020833333333333
            },
            {
              "pitch": 46,
              "velocity": 60,
              "position": 8,
              "duration": 0.9020833333333333
            },
            {
              "pitch": 41,
              "velocity": 55,
              "position": 9,
              "duration": 2.902083333333333
            },
            {
              "pitch": 74,
              "velocity": 55,
              "position": 9,
              "duration": 2.902083333333333
            },
            {
              "pitch": 62,
              "velocity": 55,
              "position": 9,
              "duration": 2.902083333333333
            },
            {
              "pitch": 48,
              "velocity": 55,
              "position": 9,
              "duration": 2.902083333333333
            },
            {
              "pitch": 45,
              "velocity": 55,
              "position": 9,
              "duration": 2.902083333333333
            }
          ]
        },
        "9": {
          "ctab": {
            "srcChannel": 9,
            "name": "Drs",
            "accType": "RHYTHM",
            "editable": false,
            "mutedNotes": [],
            "mutedChords": [],
            "autoStart": true,
            "sourceChordNote": 0,
            "sourceChordType": "Maj7",
            "ctb2Low": null,
            "ctb2Main": {
              "ntr": "ROOT_FIXED",
              "ntt": "BYPASS",
              "bassOn": false,
              "chordRootUpperLimit": 6,
              "noteLowLimit": 0,
              "noteHighLimit": 127,
              "rtr": "PITCH_SHIFT"
            },
            "ctb2High": null
          },
          "notes": [
            {
              "pitch": 33,
              "velocity": 34,
              "position": 0,
              "duration": 0.010416666666666666
            },
            {
              "pitch": 53,
              "velocity": 33,
              "position": 0,
              "duration": 0.010416666666666666
            },
            {
              "pitch": 25,
              "velocity": 50,
              "position": 0.6666666666666666,
              "duration": 0.010416666666666666
            },
            {
              "pitch": 26,
              "velocity": 36,
              "position": 0,
              "duration": 1
            },
            {
              "pitch": 44,
              "velocity": 37,
              "position": 1,
              "duration": 0.010416666666666666
            },
            {
              "pitch": 25,
              "velocity": 20,
              "position": 1.6666666666666667,
              "duration": 0.010416666666666666
            },
            {
              "pitch": 26,
              "velocity": 16,
              "position": 1,
              "duration": 1
            },
            {
              "pitch": 44,
              "velocity": 37,
              "position": 2,
              "duration": 0.010416666666666666
            },
            {
              "pitch": 59,
              "velocity": 36,
              "position": 2,
              "duration": 0.010416666666666666
            },
            {
              "pitch": 53,
              "velocity": 21,
              "position": 2.6666666666666665,
              "duration": 0.010416666666666666
            },
            {
              "pitch": 28,
              "velocity": 29,
              "position": 2,
              "duration": 1
            },
            {
              "pitch": 33,
              "velocity": 34,
              "position": 3,
              "duration": 0.010416666666666666
            },
            {
              "pitch": 59,
              "velocity": 38,
              "position": 3,
              "duration": 0.010416666666666666
            },
            {
              "pitch": 25,
              "velocity": 50,
              "position": 3.6666666666666665,
              "duration": 0.010416666666666666
            },
            {
              "pitch": 26,
              "velocity": 36,
              "position": 3,
              "duration": 1
            },
            {
              "pitch": 44,
              "velocity": 37,
              "position": 4,
              "duration": 0.010416666666666666
            },
            {
              "pitch": 25,
              "velocity": 20,
              "position": 4.666666666666667,
              "duration": 0.010416666666666666
            },
            {
              "pitch": 26,
              "velocity": 16,
              "position": 4,
              "duration": 1
            },
            {
              "pitch": 44,
              "velocity": 37,
              "position": 5,
              "duration": 0.010416666666666666
            },
            {
              "pitch": 59,
              "velocity": 36,
              "position": 5,
              "duration": 0.010416666666666666
            },
            {
              "pitch": 25,
              "velocity": 20,
              "position": 5.666666666666667,
              "duration": 0.010416666666666666
            },
            {
              "pitch": 53,
              "velocity": 21,
              "position": 5.666666666666667,
              "duration": 0.010416666666666666
            },
            {
              "pitch": 28,
              "velocity": 29,
              "position": 5,
              "duration": 1
            },
            {
              "pitch": 33,
              "velocity": 34,
              "position": 6,
              "duration": 0.010416666666666666
            },
            {
              "pitch": 59,
              "velocity": 38,
              "position": 6,
              "duration": 0.010416666666666666
            },
            {
              "pitch": 25,
              "velocity": 50,
              "position": 6.666666666666667,
              "duration": 0.010416666666666666
            },
            {
              "pitch": 26,
              "velocity": 36,
              "position": 6,
              "duration": 1
            },
            {
              "pitch": 44,
              "velocity": 37,
              "position": 7,
              "duration": 0.010416666666666666
            },
            {
              "pitch": 26,
              "velocity": 16,
              "position": 7,
              "duration": 1
            },
            {
              "pitch": 44,
              "velocity": 37,
              "position": 8,
              "duration": 0.010416666666666666
            },
            {
              "pitch": 59,
              "velocity": 36,
              "position": 8,
              "duration": 0.010416666666666666
            },
            {
              "pitch": 53,
              "velocity": 21,
              "position": 8.666666666666666,
              "duration": 0.010416666666666666
            },
            {
              "pitch": 28,
              "velocity": 29,
              "position": 8,
              "duration": 1
            },
            {
              "pitch": 33,
              "velocity": 34,
              "position": 9,
              "duration": 0.010416666666666666
            },
            {
              "pitch": 59,
              "velocity": 38,
              "position": 9,
              "duration": 0.010416666666666666
            },
            {
              "pitch": 40,
              "velocity": 79,
              "position": 9.666666666666666,
              "duration": 0.010416666666666666
            },
            {
              "pitch": 26,
              "velocity": 36,
              "position": 9,
              "duration": 1
            },
            {
              "pitch": 44,
              "velocity": 37,
              "position": 10,
              "duration": 0.010416666666666666
            },
            {
              "pitch": 25,
              "velocity": 20,
              "position": 10.333333333333334,
              "duration": 0.010416666666666666
            },
            {
              "pitch": 33,
              "velocity": 34,
              "position": 10.666666666666666,
              "duration": 0.010416666666666666
            },
            {
              "pitch": 26,
              "velocity": 16,
              "position": 10,
              "duration": 1
            },
            {
              "pitch": 33,
              "velocity": 59,
              "position": 11,
              "duration": 0.010416666666666666
            },
            {
              "pitch": 53,
              "velocity": 33,
              "position": 11,
              "duration": 0.010416666666666666
            },
            {
              "pitch": 44,
              "velocity": 37,
              "position": 11,
              "duration": 0.010416666666666666
            },
            {
              "pitch": 59,
              "velocity": 30,
              "position": 11.666666666666666,
              "duration": 0.010416666666666666
            },
            {
              "pitch": 28,
              "velocity": 29,
              "position": 11,
              "duration": 1
            },
            {
              "pitch": 57,
              "velocity": 36,
              "position": 11.989583333333334,
              "duration": 0.010416666666666666
            }
          ]
        },
        "10": {
          "ctab": {
            "srcChannel": 10,
            "name": "Bass",
            "accType": "BASS",
            "editable": false,
            "mutedNotes": [],
            "mutedChords": [
              "dim7",
              "dim",
              "minMaj7(9)",
              "minMaj7",
              "min7(11)",
              "min7(9)",
              "min(9)",
              "m7b5",
              "min7",
              "min6",
              "min"
            ],
            "autoStart": false,
            "sourceChordNote": 0,
            "sourceChordType": "Maj",
            "ctb2Low": null,
            "ctb2Main": {
              "ntr": "ROOT_TRANSPOSITION",
              "ntt": "BYPASS",
              "bassOn": false,
              "chordRootUpperLimit": 8,
              "noteLowLimit": 28,
              "noteHighLimit": 127,
              "rtr": "PITCH_SHIFT"
            },
            "ctb2High": null
          },
          "notes": [
            {
              "pitch": 24,
              "velocity": 50,
              "position": 0,
              "duration": 2.65625
            },
            {
              "pitch": 31,
              "velocity": 50,
              "position": 3,
              "duration": 2.65625
            },
            {
              "pitch": 24,
              "velocity": 50,
              "position": 6,
              "duration": 2.65625
            },
            {
              "pitch": 24,
              "velocity": 100,
              "position": 8.666666666666666,
              "duration": 0.3229166666666667
            },
            {
              "pitch": 31,
              "velocity": 50,
              "position": 9,
              "duration": 1.65625
            },
            {
              "pitch": 43,
              "velocity": 110,
              "position": 10.666666666666666,
              "duration": 0.3229166666666667
            },
            {
              "pitch": 31,
              "velocity": 50,
              "position": 11,
              "duration": 0.9895833333333334
            }
          ]
        },
        "11": {
          "ctab": {
            "srcChannel": 11,
            "name": "Bass",
            "accType": "BASS",
            "editable": false,
            "mutedNotes": [],
            "mutedChords": [
              "1+2+5",
              "sus4",
              "1+5",
              "1+8",
              "7aug",
              "Maj7aug",
              "7(#9)",
              "7(b13)",
              "7(b9)",
              "7(13)",
              "7#11",
              "7(9)",
              "7b5",
              "7sus4",
              "7th",
              "aug",
              "Maj6(9)",
              "Maj7(9)",
              "Maj(9)",
              "Maj7#11",
              "Maj7",
              "Maj6",
              "Maj"
            ],
            "autoStart": false,
            "sourceChordNote": 0,
            "sourceChordType": "min",
            "ctb2Low": null,
            "ctb2Main": {
              "ntr": "ROOT_TRANSPOSITION",
              "ntt": "BYPASS",
              "bassOn": false,
              "chordRootUpperLimit": 8,
              "noteLowLimit": 28,
              "noteHighLimit": 127,
              "rtr": "PITCH_SHIFT"
            },
            "ctb2High": null
          },
          "notes": [
            {
              "pitch": 24,
              "velocity": 50,
              "position": 0,
              "duration": 2.65625
            },
            {
              "pitch": 31,
              "velocity": 50,
              "position": 3,
              "duration": 2.65625
            },
            {
              "pitch": 24,
              "velocity": 50,
              "position": 6,
              "duration": 2.65625
            },
            {
              "pitch": 24,
              "velocity": 100,
              "position": 8.666666666666666,
              "duration": 0.3229166666666667
            },
            {
              "pitch": 31,
              "velocity": 50,
              "position": 9,
              "duration": 1.65625
            },
            {
              "pitch": 43,
              "velocity": 110,
              "position": 10.666666666666666,
              "duration": 0.3229166666666667
            },
            {
              "pitch": 31,
              "velocity": 50,
              "position": 11,
              "duration": 0.9895833333333334
            }
          ]
        },
        "12": {
          "ctab": {
            "srcChannel": 12,
            "name": "Pad",
            "accType": "PAD",
            "editable": false,
            "mutedNotes": [],
            "mutedChords": [
              "dim7",
              "dim",
              "minMaj7(9)",
              "minMaj7",
              "min7(11)",
              "min7(9)",
              "min(9)",
              "m7b5",
              "min7",
              "min6",
              "min"
            ],
            "autoStart": false,
            "sourceChordNote": 0,
            "sourceChordType": "Maj",
            "ctb2Low": null,
            "ctb2Main": {
              "ntr": "ROOT_TRANSPOSITION",
              "ntt": "BYPASS",
              "bassOn": false,
              "chordRootUpperLimit": 8,
              "noteLowLimit": 54,
              "noteHighLimit": 127,
              "rtr": "PITCH_SHIFT"
            },
            "ctb2High": null
          },
          "notes": [
            {
              "pitch": 79,
              "velocity": 70,
              "position": 0,
              "duration": 10.989583333333334
            }
          ]
        },
        "13": {
          "ctab": {
            "srcChannel": 13,
            "name": "Pad",
            "accType": "PAD",
            "editable": false,
            "mutedNotes": [],
            "mutedChords": [
              "1+2+5",
              "sus4",
              "1+5",
              "1+8",
              "7aug",
              "Maj7aug",
              "7(#9)",
              "7(b13)",
              "7(b9)",
              "7(13)",
              "7#11",
              "7(9)",
              "7b5",
              "7sus4",
              "7th",
              "aug",
              "Maj6(9)",
              "Maj7(9)",
              "Maj(9)",
              "Maj7#11",
              "Maj7",
              "Maj6",
              "Maj"
            ],
            "autoStart": false,
            "sourceChordNote": 0,
            "sourceChordType": "min",
            "ctb2Low": null,
            "ctb2Main": {
              "ntr": "ROOT_TRANSPOSITION",
              "ntt": "BYPASS",
              "bassOn": false,
              "chordRootUpperLimit": 8,
              "noteLowLimit": 54,
              "noteHighLimit": 127,
              "rtr": "PITCH_SHIFT"
            },
            "ctb2High": null
          },
          "notes": [
            {
              "pitch": 79,
              "velocity": 62,
              "position": 0,
              "duration": 10.989583333333334
            }
          ]
        }
      }
    },
    "Ending_B": {
      "type": "Ending_B",
      "sizeInBeats": 24,
      "channels": {
        "0": {
          "ctab": {
            "srcChannel": 0,
            "name": "C1",
            "accType": "CHORD1",
            "editable": false,
            "mutedNotes": [],
            "mutedChords": [
              "dim7",
              "dim",
              "minMaj7(9)",
              "minMaj7",
              "min7(11)",
              "min7(9)",
              "min(9)",
              "m7b5",
              "min7",
              "min6",
              "min"
            ],
            "autoStart": false,
            "sourceChordNote": 0,
            "sourceChordType": "Maj",
            "ctb2Low": null,
            "ctb2Main": {
              "ntr": "ROOT_TRANSPOSITION",
              "ntt": "BYPASS",
              "bassOn": false,
              "chordRootUpperLimit": 8,
              "noteLowLimit": 0,
              "noteHighLimit": 127,
              "rtr": "PITCH_SHIFT"
            },
            "ctb2High": null
          },
          "notes": [
            {
              "pitch": 59,
              "velocity": 40,
              "position": 0,
              "duration": 2.6458333333333335
            },
            {
              "pitch": 64,
              "velocity": 40,
              "position": 0.10416666666666667,
              "duration": 2.6458333333333335
            },
            {
              "pitch": 67,
              "velocity": 40,
              "position": 0.20833333333333334,
              "duration": 2.6458333333333335
            },
            {
              "pitch": 60,
              "velocity": 40,
              "position": 3,
              "duration": 2.6458333333333335
            },
            {
              "pitch": 65,
              "velocity": 40,
              "position": 3.1041666666666665,
              "duration": 2.6458333333333335
            },
            {
              "pitch": 69,
              "velocity": 40,
              "position": 3.2083333333333335,
              "duration": 2.6458333333333335
            },
            {
              "pitch": 62,
              "velocity": 40,
              "position": 6,
              "duration": 2.6458333333333335
            },
            {
              "pitch": 67,
              "velocity": 40,
              "position": 6.104166666666667,
              "duration": 2.6458333333333335
            },
            {
              "pitch": 71,
              "velocity": 40,
              "position": 6.208333333333333,
              "duration": 2.6458333333333335
            },
            {
              "pitch": 60,
              "velocity": 40,
              "position": 9,
              "duration": 1.3125
            },
            {
              "pitch": 65,
              "velocity": 40,
              "position": 9.104166666666666,
              "duration": 1.3125
            },
            {
              "pitch": 69,
              "velocity": 40,
              "position": 9.208333333333334,
              "duration": 1.3125
            },
            {
              "pitch": 60,
              "velocity": 40,
              "position": 10.625,
              "duration": 1.3125
            },
            {
              "pitch": 69,
              "velocity": 40,
              "position": 10.833333333333334,
              "duration": 1.15625
            },
            {
              "pitch": 65,
              "velocity": 40,
              "position": 10.729166666666666,
              "duration": 1.2604166666666667
            },
            {
              "pitch": 59,
              "velocity": 40,
              "position": 12,
              "duration": 10
            },
            {
              "pitch": 67,
              "velocity": 40,
              "position": 12.208333333333334,
              "duration": 9.791666666666666
            },
            {
              "pitch": 64,
              "velocity": 40,
              "position": 12.104166666666666,
              "duration": 9.895833333333334
            }
          ]
        },
        "1": {
          "ctab": {
            "srcChannel": 1,
            "name": "C1",
            "accType": "CHORD1",
            "editable": false,
            "mutedNotes": [],
            "mutedChords": [
              "1+2+5",
              "sus4",
              "1+5",
              "1+8",
              "7aug",
              "Maj7aug",
              "7(#9)",
              "7(b13)",
              "7(b9)",
              "7(13)",
              "7#11",
              "7(9)",
              "7b5",
              "7sus4",
              "7th",
              "aug",
              "Maj6(9)",
              "Maj7(9)",
              "Maj(9)",
              "Maj7#11",
              "Maj7",
              "Maj6",
              "Maj"
            ],
            "autoStart": false,
            "sourceChordNote": 0,
            "sourceChordType": "min",
            "ctb2Low": null,
            "ctb2Main": {
              "ntr": "ROOT_TRANSPOSITION",
              "ntt": "BYPASS",
              "bassOn": false,
              "chordRootUpperLimit": 8,
              "noteLowLimit": 0,
              "noteHighLimit": 127,
              "rtr": "PITCH_SHIFT"
            },
            "ctb2High": null
          },
          "notes": [
            {
              "pitch": 58,
              "velocity": 40,
              "position": 0,
              "duration": 2.6458333333333335
            },
            {
              "pitch": 63,
              "velocity": 40,
              "position": 0.10416666666666667,
              "duration": 2.6458333333333335
            },
            {
              "pitch": 67,
              "velocity": 40,
              "position": 0.20833333333333334,
              "duration": 2.6458333333333335
            },
            {
              "pitch": 60,
              "velocity": 40,
              "position": 3,
              "duration": 2.6458333333333335
            },
            {
              "pitch": 65,
              "velocity": 40,
              "position": 3.1041666666666665,
              "duration": 2.6458333333333335
            },
            {
              "pitch": 69,
              "velocity": 40,
              "position": 3.2083333333333335,
              "duration": 2.6458333333333335
            },
            {
              "pitch": 62,
              "velocity": 40,
              "position": 6,
              "duration": 2.6458333333333335
            },
            {
              "pitch": 67,
              "velocity": 40,
              "position": 6.104166666666667,
              "duration": 2.6458333333333335
            },
            {
              "pitch": 70,
              "velocity": 40,
              "position": 6.208333333333333,
              "duration": 2.6458333333333335
            },
            {
              "pitch": 60,
              "velocity": 40,
              "position": 9,
              "duration": 1.3125
            },
            {
              "pitch": 65,
              "velocity": 40,
              "position": 9.104166666666666,
              "duration": 1.3125
            },
            {
              "pitch": 69,
              "velocity": 40,
              "position": 9.208333333333334,
              "duration": 1.3125
            },
            {
              "pitch": 60,
              "velocity": 40,
              "position": 10.625,
              "duration": 1.3125
            },
            {
              "pitch": 69,
              "velocity": 40,
              "position": 10.833333333333334,
              "duration": 1.15625
            },
            {
              "pitch": 65,
              "velocity": 40,
              "position": 10.729166666666666,
              "duration": 1.2604166666666667
            },
            {
              "pitch": 58,
              "velocity": 40,
              "position": 12,
              "duration": 10
            },
            {
              "pitch": 67,
              "velocity": 40,
              "position": 12.208333333333334,
              "duration": 9.791666666666666
            },
            {
              "pitch": 63,
              "velocity": 40,
              "position": 12.104166666666666,
              "duration": 9.895833333333334
            }
          ]
        },
        "4": {
          "ctab": {
            "srcChannel": 4,
            "name": "C2",
            "accType": "CHORD2",
            "editable": false,
            "mutedNotes": [],
            "mutedChords": [
              "dim7",
              "dim",
              "minMaj7(9)",
              "minMaj7",
              "min7(11)",
              "min7(9)",
              "min(9)",
              "m7b5",
              "min7",
              "min6",
              "min"
            ],
            "autoStart": false,
            "sourceChordNote": 0,
            "sourceChordType": "Maj",
            "ctb2Low": null,
            "ctb2Main": {
              "ntr": "ROOT_TRANSPOSITION",
              "ntt": "BYPASS",
              "bassOn": false,
              "chordRootUpperLimit": 8,
              "noteLowLimit": 54,
              "noteHighLimit": 127,
              "rtr": "PITCH_SHIFT"
            },
            "ctb2High": null
          },
          "notes": [
            {
              "pitch": 40,
              "velocity": 70,
              "position": 0.6666666666666666,
              "duration": 0.23541666666666666
            },
            {
              "pitch": 67,
              "velocity": 70,
              "position": 0.6666666666666666,
              "duration": 0.23541666666666666
            },
            {
              "pitch": 55,
              "velocity": 70,
              "position": 0.6666666666666666,
              "duration": 0.23541666666666666
            },
            {
              "pitch": 50,
              "velocity": 70,
              "position": 0.6666666666666666,
              "duration": 0.23541666666666666
            },
            {
              "pitch": 47,
              "velocity": 70,
              "position": 0.6666666666666666,
              "duration": 0.23541666666666666
            },
            {
              "pitch": 40,
              "velocity": 80,
              "position": 2,
              "duration": 0.9020833333333333
            },
            {
              "pitch": 67,
              "velocity": 80,
              "position": 2,
              "duration": 0.9020833333333333
            },
            {
              "pitch": 55,
              "velocity": 80,
              "position": 2,
              "duration": 0.9020833333333333
            },
            {
              "pitch": 50,
              "velocity": 80,
              "position": 2,
              "duration": 0.9020833333333333
            },
            {
              "pitch": 47,
              "velocity": 80,
              "position": 2,
              "duration": 0.9020833333333333
            },
            {
              "pitch": 41,
              "velocity": 70,
              "position": 3.6666666666666665,
              "duration": 0.23541666666666666
            },
            {
              "pitch": 69,
              "velocity": 70,
              "position": 3.6666666666666665,
              "duration": 0.23541666666666666
            },
            {
              "pitch": 57,
              "velocity": 70,
              "position": 3.6666666666666665,
              "duration": 0.23541666666666666
            },
            {
              "pitch": 50,
              "velocity": 40,
              "position": 3.6666666666666665,
              "duration": 0.23541666666666666
            },
            {
              "pitch": 48,
              "velocity": 70,
              "position": 3.6666666666666665,
              "duration": 0.23541666666666666
            },
            {
              "pitch": 41,
              "velocity": 80,
              "position": 5,
              "duration": 0.9020833333333333
            },
            {
              "pitch": 69,
              "velocity": 80,
              "position": 5,
              "duration": 0.9020833333333333
            },
            {
              "pitch": 57,
              "velocity": 80,
              "position": 5,
              "duration": 0.9020833333333333
            },
            {
              "pitch": 50,
              "velocity": 50,
              "position": 5,
              "duration": 0.9020833333333333
            },
            {
              "pitch": 48,
              "velocity": 80,
              "position": 5,
              "duration": 0.9020833333333333
            },
            {
              "pitch": 40,
              "velocity": 80,
              "position": 6.666666666666667,
              "duration": 1.2354166666666666
            },
            {
              "pitch": 71,
              "velocity": 80,
              "position": 6.666666666666667,
              "duration": 1.2354166666666666
            },
            {
              "pitch": 59,
              "velocity": 80,
              "position": 6.666666666666667,
              "duration": 1.2354166666666666
            },
            {
              "pitch": 50,
              "velocity": 80,
              "position": 6.666666666666667,
              "duration": 1.2354166666666666
            },
            {
              "pitch": 43,
              "velocity": 80,
              "position": 6.666666666666667,
              "duration": 1.2354166666666666
            },
            {
              "pitch": 40,
              "velocity": 70,
              "position": 8,
              "duration": 0.9020833333333333
            },
            {
              "pitch": 72,
              "velocity": 70,
              "position": 8,
              "duration": 0.9020833333333333
            },
            {
              "pitch": 60,
              "velocity": 70,
              "position": 8,
              "duration": 0.9020833333333333
            },
            {
              "pitch": 50,
              "velocity": 70,
              "position": 8,
              "duration": 0.9020833333333333
            },
            {
              "pitch": 43,
              "velocity": 70,
              "position": 8,
              "duration": 0.9020833333333333
            },
            {
              "pitch": 41,
              "velocity": 65,
              "position": 9,
              "duration": 1.5125
            },
            {
              "pitch": 74,
              "velocity": 65,
              "position": 9,
              "duration": 1.5125
            },
            {
              "pitch": 62,
              "velocity": 65,
              "position": 9,
              "duration": 1.5125
            },
            {
              "pitch": 48,
              "velocity": 65,
              "position": 9,
              "duration": 1.5125
            },
            {
              "pitch": 45,
              "velocity": 65,
              "position": 9,
              "duration": 1.5125
            },
            {
              "pitch": 41,
              "velocity": 65,
              "position": 10.625,
              "duration": 1.2625
            },
            {
              "pitch": 76,
              "velocity": 65,
              "position": 10.625,
              "duration": 1.2625
            },
            {
              "pitch": 64,
              "velocity": 65,
              "position": 10.625,
              "duration": 1.2625
            },
            {
              "pitch": 48,
              "velocity": 65,
              "position": 10.625,
              "duration": 1.2625
            },
            {
              "pitch": 45,
              "velocity": 65,
              "position": 10.625,
              "duration": 1.2625
            },
            {
              "pitch": 43,
              "velocity": 69,
              "position": 12,
              "duration": 10
            },
            {
              "pitch": 79,
              "velocity": 69,
              "position": 12,
              "duration": 10
            },
            {
              "pitch": 67,
              "velocity": 69,
              "position": 12,
              "duration": 10
            },
            {
              "pitch": 52,
              "velocity": 69,
              "position": 12,
              "duration": 10
            },
            {
              "pitch": 47,
              "velocity": 69,
              "position": 12,
              "duration": 10
            }
          ]
        },
        "5": {
          "ctab": {
            "srcChannel": 5,
            "name": "C2",
            "accType": "CHORD2",
            "editable": false,
            "mutedNotes": [],
            "mutedChords": [
              "1+2+5",
              "sus4",
              "1+5",
              "1+8",
              "7aug",
              "Maj7aug",
              "7(#9)",
              "7(b13)",
              "7(b9)",
              "7(13)",
              "7#11",
              "7(9)",
              "7b5",
              "7sus4",
              "7th",
              "aug",
              "Maj6(9)",
              "Maj7(9)",
              "Maj(9)",
              "Maj7#11",
              "Maj7",
              "Maj6",
              "Maj"
            ],
            "autoStart": false,
            "sourceChordNote": 0,
            "sourceChordType": "min",
            "ctb2Low": null,
            "ctb2Main": {
              "ntr": "ROOT_TRANSPOSITION",
              "ntt": "BYPASS",
              "bassOn": false,
              "chordRootUpperLimit": 8,
              "noteLowLimit": 54,
              "noteHighLimit": 127,
              "rtr": "PITCH_SHIFT"
            },
            "ctb2High": null
          },
          "notes": [
            {
              "pitch": 39,
              "velocity": 70,
              "position": 0.6666666666666666,
              "duration": 0.23541666666666666
            },
            {
              "pitch": 67,
              "velocity": 70,
              "position": 0.6666666666666666,
              "duration": 0.23541666666666666
            },
            {
              "pitch": 55,
              "velocity": 70,
              "position": 0.6666666666666666,
              "duration": 0.23541666666666666
            },
            {
              "pitch": 50,
              "velocity": 70,
              "position": 0.6666666666666666,
              "duration": 0.23541666666666666
            },
            {
              "pitch": 46,
              "velocity": 70,
              "position": 0.6666666666666666,
              "duration": 0.23541666666666666
            },
            {
              "pitch": 39,
              "velocity": 80,
              "position": 2,
              "duration": 0.9020833333333333
            },
            {
              "pitch": 67,
              "velocity": 80,
              "position": 2,
              "duration": 0.9020833333333333
            },
            {
              "pitch": 55,
              "velocity": 80,
              "position": 2,
              "duration": 0.9020833333333333
            },
            {
              "pitch": 50,
              "velocity": 80,
              "position": 2,
              "duration": 0.9020833333333333
            },
            {
              "pitch": 46,
              "velocity": 80,
              "position": 2,
              "duration": 0.9020833333333333
            },
            {
              "pitch": 41,
              "velocity": 70,
              "position": 3.6666666666666665,
              "duration": 0.23541666666666666
            },
            {
              "pitch": 69,
              "velocity": 70,
              "position": 3.6666666666666665,
              "duration": 0.23541666666666666
            },
            {
              "pitch": 57,
              "velocity": 70,
              "position": 3.6666666666666665,
              "duration": 0.23541666666666666
            },
            {
              "pitch": 50,
              "velocity": 40,
              "position": 3.6666666666666665,
              "duration": 0.23541666666666666
            },
            {
              "pitch": 48,
              "velocity": 70,
              "position": 3.6666666666666665,
              "duration": 0.23541666666666666
            },
            {
              "pitch": 41,
              "velocity": 80,
              "position": 5,
              "duration": 0.9020833333333333
            },
            {
              "pitch": 69,
              "velocity": 80,
              "position": 5,
              "duration": 0.9020833333333333
            },
            {
              "pitch": 57,
              "velocity": 80,
              "position": 5,
              "duration": 0.9020833333333333
            },
            {
              "pitch": 50,
              "velocity": 50,
              "position": 5,
              "duration": 0.9020833333333333
            },
            {
              "pitch": 48,
              "velocity": 80,
              "position": 5,
              "duration": 0.9020833333333333
            },
            {
              "pitch": 39,
              "velocity": 80,
              "position": 6.666666666666667,
              "duration": 1.2354166666666666
            },
            {
              "pitch": 70,
              "velocity": 80,
              "position": 6.666666666666667,
              "duration": 1.2354166666666666
            },
            {
              "pitch": 58,
              "velocity": 80,
              "position": 6.666666666666667,
              "duration": 1.2354166666666666
            },
            {
              "pitch": 50,
              "velocity": 80,
              "position": 6.666666666666667,
              "duration": 1.2354166666666666
            },
            {
              "pitch": 43,
              "velocity": 80,
              "position": 6.666666666666667,
              "duration": 1.2354166666666666
            },
            {
              "pitch": 39,
              "velocity": 70,
              "position": 8,
              "duration": 0.9020833333333333
            },
            {
              "pitch": 72,
              "velocity": 70,
              "position": 8,
              "duration": 0.9020833333333333
            },
            {
              "pitch": 60,
              "velocity": 70,
              "position": 8,
              "duration": 0.9020833333333333
            },
            {
              "pitch": 50,
              "velocity": 70,
              "position": 8,
              "duration": 0.9020833333333333
            },
            {
              "pitch": 43,
              "velocity": 70,
              "position": 8,
              "duration": 0.9020833333333333
            },
            {
              "pitch": 41,
              "velocity": 65,
              "position": 9,
              "duration": 1.5125
            },
            {
              "pitch": 74,
              "velocity": 65,
              "position": 9,
              "duration": 1.5125
            },
            {
              "pitch": 62,
              "velocity": 65,
              "position": 9,
              "duration": 1.5125
            },
            {
              "pitch": 48,
              "velocity": 65,
              "position": 9,
              "duration": 1.5125
            },
            {
              "pitch": 45,
              "velocity": 65,
              "position": 9,
              "duration": 1.5125
            },
            {
              "pitch": 41,
              "velocity": 65,
              "position": 10.625,
              "duration": 1.2625
            },
            {
              "pitch": 75,
              "velocity": 65,
              "position": 10.625,
              "duration": 1.2625
            },
            {
              "pitch": 63,
              "velocity": 65,
              "position": 10.625,
              "duration": 1.2625
            },
            {
              "pitch": 48,
              "velocity": 65,
              "position": 10.625,
              "duration": 1.2625
            },
            {
              "pitch": 45,
              "velocity": 65,
              "position": 10.625,
              "duration": 1.2625
            },
            {
              "pitch": 43,
              "velocity": 69,
              "position": 12,
              "duration": 10
            },
            {
              "pitch": 72,
              "velocity": 69,
              "position": 12,
              "duration": 10
            },
            {
              "pitch": 60,
              "velocity": 69,
              "position": 12,
              "duration": 10
            },
            {
              "pitch": 51,
              "velocity": 69,
              "position": 12,
              "duration": 10
            },
            {
              "pitch": 46,
              "velocity": 69,
              "position": 12,
              "duration": 10
            }
          ]
        },
        "9": {
          "ctab": {
            "srcChannel": 9,
            "name": "Drs",
            "accType": "RHYTHM",
            "editable": false,
            "mutedNotes": [],
            "mutedChords": [],
            "autoStart": true,
            "sourceChordNote": 0,
            "sourceChordType": "Maj7",
            "ctb2Low": null,
            "ctb2Main": {
              "ntr": "ROOT_FIXED",
              "ntt": "BYPASS",
              "bassOn": false,
              "chordRootUpperLimit": 6,
              "noteLowLimit": 0,
              "noteHighLimit": 127,
              "rtr": "PITCH_SHIFT"
            },
            "ctb2High": null
          },
          "notes": [
            {
              "pitch": 33,
              "velocity": 34,
              "position": 0,
              "duration": 0.010416666666666666
            },
            {
              "pitch": 53,
              "velocity": 33,
              "position": 0,
              "duration": 0.010416666666666666
            },
            {
              "pitch": 25,
              "velocity": 50,
              "position": 0.6666666666666666,
              "duration": 0.010416666666666666
            },
            {
              "pitch": 26,
              "velocity": 36,
              "position": 0,
              "duration": 1
            },
            {
              "pitch": 44,
              "velocity": 37,
              "position": 1,
              "duration": 0.010416666666666666
            },
            {
              "pitch": 25,
              "velocity": 20,
              "position": 1.6666666666666667,
              "duration": 0.010416666666666666
            },
            {
              "pitch": 26,
              "velocity": 16,
              "position": 1,
              "duration": 1
            },
            {
              "pitch": 44,
              "velocity": 37,
              "position": 2,
              "duration": 0.010416666666666666
            },
            {
              "pitch": 59,
              "velocity": 33,
              "position": 2,
              "duration": 0.010416666666666666
            },
            {
              "pitch": 53,
              "velocity": 24,
              "position": 2.6666666666666665,
              "duration": 0.010416666666666666
            },
            {
              "pitch": 28,
              "velocity": 29,
              "position": 2,
              "duration": 1
            },
            {
              "pitch": 33,
              "velocity": 34,
              "position": 3,
              "duration": 0.010416666666666666
            },
            {
              "pitch": 59,
              "velocity": 41,
              "position": 3,
              "duration": 0.010416666666666666
            },
            {
              "pitch": 25,
              "velocity": 50,
              "position": 3.6666666666666665,
              "duration": 0.010416666666666666
            },
            {
              "pitch": 26,
              "velocity": 36,
              "position": 3,
              "duration": 1
            },
            {
              "pitch": 44,
              "velocity": 37,
              "position": 4,
              "duration": 0.010416666666666666
            },
            {
              "pitch": 25,
              "velocity": 20,
              "position": 4.666666666666667,
              "duration": 0.010416666666666666
            },
            {
              "pitch": 26,
              "velocity": 16,
              "position": 4,
              "duration": 1
            },
            {
              "pitch": 44,
              "velocity": 37,
              "position": 5,
              "duration": 0.010416666666666666
            },
            {
              "pitch": 59,
              "velocity": 33,
              "position": 5,
              "duration": 0.010416666666666666
            },
            {
              "pitch": 25,
              "velocity": 20,
              "position": 5.666666666666667,
              "duration": 0.010416666666666666
            },
            {
              "pitch": 53,
              "velocity": 24,
              "position": 5.666666666666667,
              "duration": 0.010416666666666666
            },
            {
              "pitch": 28,
              "velocity": 29,
              "position": 5,
              "duration": 1
            },
            {
              "pitch": 33,
              "velocity": 34,
              "position": 6,
              "duration": 0.010416666666666666
            },
            {
              "pitch": 59,
              "velocity": 41,
              "position": 6,
              "duration": 0.010416666666666666
            },
            {
              "pitch": 25,
              "velocity": 50,
              "position": 6.666666666666667,
              "duration": 0.010416666666666666
            },
            {
              "pitch": 26,
              "velocity": 36,
              "position": 6,
              "duration": 1
            },
            {
              "pitch": 44,
              "velocity": 37,
              "position": 7,
              "duration": 0.010416666666666666
            },
            {
              "pitch": 26,
              "velocity": 16,
              "position": 7,
              "duration": 1
            },
            {
              "pitch": 44,
              "velocity": 37,
              "position": 8,
              "duration": 0.010416666666666666
            },
            {
              "pitch": 59,
              "velocity": 33,
              "position": 8,
              "duration": 0.010416666666666666
            },
            {
              "pitch": 53,
              "velocity": 24,
              "position": 8.666666666666666,
              "duration": 0.010416666666666666
            },
            {
              "pitch": 28,
              "velocity": 29,
              "position": 8,
              "duration": 1
            },
            {
              "pitch": 33,
              "velocity": 34,
              "position": 9,
              "duration": 0.010416666666666666
            },
            {
              "pitch": 59,
              "velocity": 41,
              "position": 9,
              "duration": 0.010416666666666666
            },
            {
              "pitch": 40,
              "velocity": 79,
              "position": 9.666666666666666,
              "duration": 0.010416666666666666
            },
            {
              "pitch": 26,
              "velocity": 36,
              "position": 9,
              "duration": 1
            },
            {
              "pitch": 44,
              "velocity": 37,
              "position": 10,
              "duration": 0.010416666666666666
            },
            {
              "pitch": 25,
              "velocity": 20,
              "position": 10.333333333333334,
              "duration": 0.010416666666666666
            },
            {
              "pitch": 33,
              "velocity": 59,
              "position": 10.625,
              "duration": 0.010416666666666666
            },
            {
              "pitch": 59,
              "velocity": 33,
              "position": 10.625,
              "duration": 0.010416666666666666
            },
            {
              "pitch": 26,
              "velocity": 16,
              "position": 10,
              "duration": 1
            },
            {
              "pitch": 44,
              "velocity": 37,
              "position": 11,
              "duration": 0.010416666666666666
            },
            {
              "pitch": 53,
              "velocity": 24,
              "position": 11.666666666666666,
              "duration": 0.010416666666666666
            },
            {
              "pitch": 28,
              "velocity": 29,
              "position": 11,
              "duration": 1.0104166666666667
            },
            {
              "pitch": 59,
              "velocity": 45,
              "position": 12,
              "duration": 0.010416666666666666
            },
            {
              "pitch": 53,
              "velocity": 33,
              "position": 12,
              "duration": 0.010416666666666666
            },
            {
              "pitch": 33,
              "velocity": 56,
              "position": 12,
              "duration": 0.010416666666666666
            }
          ]
        },
        "10": {
          "ctab": {
            "srcChannel": 10,
            "name": "Bass",
            "accType": "BASS",
            "editable": false,
            "mutedNotes": [],
            "mutedChords": [
              "dim7",
              "dim",
              "minMaj7(9)",
              "minMaj7",
              "min7(11)",
              "min7(9)",
              "min(9)",
              "m7b5",
              "min7",
              "min6",
              "min"
            ],
            "autoStart": false,
            "sourceChordNote": 0,
            "sourceChordType": "Maj",
            "ctb2Low": null,
            "ctb2Main": {
              "ntr": "ROOT_TRANSPOSITION",
              "ntt": "BYPASS",
              "bassOn": false,
              "chordRootUpperLimit": 8,
              "noteLowLimit": 28,
              "noteHighLimit": 127,
              "rtr": "PITCH_SHIFT"
            },
            "ctb2High": null
          },
          "notes": [
            {
              "pitch": 24,
              "velocity": 50,
              "position": 0,
              "duration": 2.65625
            },
            {
              "pitch": 31,
              "velocity": 50,
              "position": 3,
              "duration": 2.65625
            },
            {
              "pitch": 24,
              "velocity": 50,
              "position": 6,
              "duration": 2.65625
            },
            {
              "pitch": 24,
              "velocity": 100,
              "position": 8.666666666666666,
              "duration": 0.3229166666666667
            },
            {
              "pitch": 31,
              "velocity": 50,
              "position": 9,
              "duration": 1.65625
            },
            {
              "pitch": 43,
              "velocity": 110,
              "position": 10.666666666666666,
              "duration": 0.3229166666666667
            },
            {
              "pitch": 31,
              "velocity": 50,
              "position": 11,
              "duration": 0.9895833333333334
            },
            {
              "pitch": 24,
              "velocity": 50,
              "position": 12,
              "duration": 10
            }
          ]
        },
        "11": {
          "ctab": {
            "srcChannel": 11,
            "name": "Bass",
            "accType": "BASS",
            "editable": false,
            "mutedNotes": [],
            "mutedChords": [
              "1+2+5",
              "sus4",
              "1+5",
              "1+8",
              "7aug",
              "Maj7aug",
              "7(#9)",
              "7(b13)",
              "7(b9)",
              "7(13)",
              "7#11",
              "7(9)",
              "7b5",
              "7sus4",
              "7th",
              "aug",
              "Maj6(9)",
              "Maj7(9)",
              "Maj(9)",
              "Maj7#11",
              "Maj7",
              "Maj6",
              "Maj"
            ],
            "autoStart": false,
            "sourceChordNote": 0,
            "sourceChordType": "min",
            "ctb2Low": null,
            "ctb2Main": {
              "ntr": "ROOT_TRANSPOSITION",
              "ntt": "BYPASS",
              "bassOn": false,
              "chordRootUpperLimit": 8,
              "noteLowLimit": 28,
              "noteHighLimit": 127,
              "rtr": "PITCH_SHIFT"
            },
            "ctb2High": null
          },
          "notes": [
            {
              "pitch": 24,
              "velocity": 50,
              "position": 0,
              "duration": 2.65625
            },
            {
              "pitch": 31,
              "velocity": 50,
              "position": 3,
              "duration": 2.65625
            },
            {
              "pitch": 24,
              "velocity": 50,
              "position": 6,
              "duration": 2.65625
            },
            {
              "pitch": 24,
              "velocity": 100,
              "position": 8.666666666666666,
              "duration": 0.3229166666666667
            },
            {
              "pitch": 31,
              "velocity": 50,
              "position": 9,
              "duration": 1.65625
            },
            {
              "pitch": 43,
              "velocity": 110,
              "position": 10.666666666666666,
              "duration": 0.3229166666666667
            },
            {
              "pitch": 31,
              "velocity": 50,
              "position": 11,
              "duration": 0.9895833333333334
            },
            {
              "pitch": 24,
              "velocity": 50,
              "position": 12,
              "duration": 10
            }
          ]
        },
        "12": {
          "ctab": {
            "srcChannel": 12,
            "name": "Pad",
            "accType": "PAD",
            "editable": false,
            "mutedNotes": [],
            "mutedChords": [
              "dim7",
              "dim",
              "minMaj7(9)",
              "minMaj7",
              "min7(11)",
              "min7(9)",
              "min(9)",
              "m7b5",
              "min7",
              "min6",
              "min"
            ],
            "autoStart": false,
            "sourceChordNote": 0,
            "sourceChordType": "Maj",
            "ctb2Low": null,
            "ctb2Main": {
              "ntr": "ROOT_TRANSPOSITION",
              "ntt": "BYPASS",
              "bassOn": false,
              "chordRootUpperLimit": 8,
              "noteLowLimit": 54,
              "noteHighLimit": 127,
              "rtr": "PITCH_SHIFT"
            },
            "ctb2High": null
          },
          "notes": [
            {
              "pitch": 55,
              "velocity": 70,
              "position": 0,
              "duration": 2.9895833333333335
            },
            {
              "pitch": 59,
              "velocity": 70,
              "position": 0,
              "duration": 2.9895833333333335
            },
            {
              "pitch": 64,
              "velocity": 70,
              "position": 0,
              "duration": 2.9895833333333335
            },
            {
              "pitch": 57,
              "velocity": 70,
              "position": 3,
              "duration": 2.9895833333333335
            },
            {
              "pitch": 65,
              "velocity": 70,
              "position": 3,
              "duration": 2.9895833333333335
            },
            {
              "pitch": 60,
              "velocity": 70,
              "position": 3,
              "duration": 2.9895833333333335
            },
            {
              "pitch": 55,
              "velocity": 70,
              "position": 6,
              "duration": 2.9895833333333335
            },
            {
              "pitch": 64,
              "velocity": 70,
              "position": 6,
              "duration": 2.9895833333333335
            },
            {
              "pitch": 59,
              "velocity": 70,
              "position": 6,
              "duration": 2.9895833333333335
            },
            {
              "pitch": 79,
              "velocity": 70,
              "position": 0,
              "duration": 11.989583333333334
            },
            {
              "pitch": 65,
              "velocity": 70,
              "position": 9,
              "duration": 2.9895833333333335
            },
            {
              "pitch": 60,
              "velocity": 70,
              "position": 9,
              "duration": 2.9895833333333335
            },
            {
              "pitch": 57,
              "velocity": 70,
              "position": 9,
              "duration": 2.9895833333333335
            },
            {
              "pitch": 55,
              "velocity": 70,
              "position": 12,
              "duration": 10
            },
            {
              "pitch": 64,
              "velocity": 70,
              "position": 12,
              "duration": 10
            },
            {
              "pitch": 59,
              "velocity": 70,
              "position": 12,
              "duration": 10
            }
          ]
        },
        "13": {
          "ctab": {
            "srcChannel": 13,
            "name": "Pad",
            "accType": "PAD",
            "editable": false,
            "mutedNotes": [],
            "mutedChords": [
              "1+2+5",
              "sus4",
              "1+5",
              "1+8",
              "7aug",
              "Maj7aug",
              "7(#9)",
              "7(b13)",
              "7(b9)",
              "7(13)",
              "7#11",
              "7(9)",
              "7b5",
              "7sus4",
              "7th",
              "aug",
              "Maj6(9)",
              "Maj7(9)",
              "Maj(9)",
              "Maj7#11",
              "Maj7",
              "Maj6",
              "Maj"
            ],
            "autoStart": false,
            "sourceChordNote": 0,
            "sourceChordType": "min",
            "ctb2Low": null,
            "ctb2Main": {
              "ntr": "ROOT_TRANSPOSITION",
              "ntt": "BYPASS",
              "bassOn": false,
              "chordRootUpperLimit": 8,
              "noteLowLimit": 54,
              "noteHighLimit": 127,
              "rtr": "PITCH_SHIFT"
            },
            "ctb2High": null
          },
          "notes": [
            {
              "pitch": 55,
              "velocity": 62,
              "position": 0,
              "duration": 2.9895833333333335
            },
            {
              "pitch": 58,
              "velocity": 62,
              "position": 0,
              "duration": 2.9895833333333335
            },
            {
              "pitch": 63,
              "velocity": 62,
              "position": 0,
              "duration": 2.9895833333333335
            },
            {
              "pitch": 57,
              "velocity": 62,
              "position": 3,
              "duration": 2.9895833333333335
            },
            {
              "pitch": 65,
              "velocity": 62,
              "position": 3,
              "duration": 2.9895833333333335
            },
            {
              "pitch": 60,
              "velocity": 62,
              "position": 3,
              "duration": 2.9895833333333335
            },
            {
              "pitch": 55,
              "velocity": 62,
              "position": 6,
              "duration": 2.9895833333333335
            },
            {
              "pitch": 63,
              "velocity": 62,
              "position": 6,
              "duration": 2.9895833333333335
            },
            {
              "pitch": 58,
              "velocity": 62,
              "position": 6,
              "duration": 2.9895833333333335
            },
            {
              "pitch": 79,
              "velocity": 62,
              "position": 0,
              "duration": 11.989583333333334
            },
            {
              "pitch": 65,
              "velocity": 62,
              "position": 9,
              "duration": 2.9895833333333335
            },
            {
              "pitch": 60,
              "velocity": 62,
              "position": 9,
              "duration": 2.9895833333333335
            },
            {
              "pitch": 57,
              "velocity": 62,
              "position": 9,
              "duration": 2.9895833333333335
            },
            {
              "pitch": 55,
              "velocity": 62,
              "position": 12,
              "duration": 10
            },
            {
              "pitch": 63,
              "velocity": 62,
              "position": 12,
              "duration": 10
            },
            {
              "pitch": 58,
              "velocity": 62,
              "position": 12,
              "duration": 10
            }
          ]
        }
      }
    },
    "Intro_C": {
      "type": "Intro_C",
      "sizeInBeats": 24,
      "channels": {
        "0": {
          "ctab": {
            "srcChannel": 0,
            "name": "Gt a",
            "accType": "CHORD1",
            "editable": false,
            "mutedNotes": [
              7,
              6,
              5,
              4,
              3,
              2
            ],
            "mutedChords": [
              "dim7",
              "dim",
              "minMaj7(9)",
              "minMaj7",
              "min7(11)",
              "min7(9)",
              "min(9)",
              "m7b5",
              "min7",
              "min6",
              "min"
            ],
            "autoStart": false,
            "sourceChordNote": 0,
            "sourceChordType": "Maj",
            "ctb2Low": null,
            "ctb2Main": {
              "ntr": "ROOT_TRANSPOSITION",
              "ntt": "BYPASS",
              "bassOn": false,
              "chordRootUpperLimit": 7,
              "noteLowLimit": 0,
              "noteHighLimit": 127,
              "rtr": "PITCH_SHIFT"
            },
            "ctb2High": null
          },
          "notes": [
            {
              "pitch": 74,
              "velocity": 104,
              "position": 0.00625,
              "duration": 2.8958333333333335
            },
            {
              "pitch": 69,
              "velocity": 77,
              "position": 0.06458333333333334,
              "duration": 2.8375
            },
            {
              "pitch": 64,
              "velocity": 60,
              "position": 0.041666666666666664,
              "duration": 2.8604166666666666
            },
            {
              "pitch": 59,
              "velocity": 41,
              "position": 0.020833333333333332,
              "duration": 2.88125
            },
            {
              "pitch": 71,
              "velocity": 101,
              "position": 3.0479166666666666,
              "duration": 1.96875
            },
            {
              "pitch": 62,
              "velocity": 63,
              "position": 3.035416666666667,
              "duration": 2.404166666666667
            },
            {
              "pitch": 67,
              "velocity": 80,
              "position": 3.00625,
              "duration": 2.433333333333333
            },
            {
              "pitch": 56,
              "velocity": 44,
              "position": 3.0375,
              "duration": 2.4229166666666666
            },
            {
              "pitch": 72,
              "velocity": 82,
              "position": 5.114583333333333,
              "duration": 0.46875
            },
            {
              "pitch": 62,
              "velocity": 64,
              "position": 5.96875,
              "duration": 2.0729166666666665
            },
            {
              "pitch": 67,
              "velocity": 82,
              "position": 6.0375,
              "duration": 2.004166666666667
            },
            {
              "pitch": 71,
              "velocity": 104,
              "position": 6.027083333333334,
              "duration": 2.0145833333333334
            },
            {
              "pitch": 57,
              "velocity": 37,
              "position": 5.983333333333333,
              "duration": 2.058333333333333
            },
            {
              "pitch": 65,
              "velocity": 62,
              "position": 8.10625,
              "duration": 0.80625
            },
            {
              "pitch": 57,
              "velocity": 33,
              "position": 8.1625,
              "duration": 0.75
            },
            {
              "pitch": 69,
              "velocity": 84,
              "position": 8.125,
              "duration": 0.7916666666666666
            },
            {
              "pitch": 60,
              "velocity": 49,
              "position": 8.09375,
              "duration": 0.8229166666666666
            },
            {
              "pitch": 65,
              "velocity": 83,
              "position": 9,
              "duration": 2.7958333333333334
            },
            {
              "pitch": 69,
              "velocity": 96,
              "position": 9.03125,
              "duration": 2.7645833333333334
            },
            {
              "pitch": 55,
              "velocity": 37,
              "position": 9.025,
              "duration": 2.7708333333333335
            },
            {
              "pitch": 61,
              "velocity": 62,
              "position": 9.004166666666666,
              "duration": 2.7916666666666665
            },
            {
              "pitch": 67,
              "velocity": 102,
              "position": 12.014583333333333,
              "duration": 1.9854166666666666
            },
            {
              "pitch": 67,
              "velocity": 60,
              "position": 14.010416666666666,
              "duration": 0.6625
            },
            {
              "pitch": 57,
              "velocity": 57,
              "position": 12.025,
              "duration": 2.6625
            },
            {
              "pitch": 50,
              "velocity": 43,
              "position": 11.958333333333334,
              "duration": 2.7291666666666665
            },
            {
              "pitch": 60,
              "velocity": 82,
              "position": 12.020833333333334,
              "duration": 2.6666666666666665
            },
            {
              "pitch": 72,
              "velocity": 78,
              "position": 12.989583333333334,
              "duration": 1.71875
            },
            {
              "pitch": 67,
              "velocity": 99,
              "position": 15.03125,
              "duration": 1.9479166666666667
            },
            {
              "pitch": 67,
              "velocity": 58,
              "position": 16.989583333333332,
              "duration": 0.66875
            },
            {
              "pitch": 74,
              "velocity": 79,
              "position": 16.0125,
              "duration": 1.675
            },
            {
              "pitch": 52,
              "velocity": 44,
              "position": 15.020833333333334,
              "duration": 2.691666666666667
            },
            {
              "pitch": 62,
              "velocity": 80,
              "position": 15.03125,
              "duration": 2.68125
            },
            {
              "pitch": 59,
              "velocity": 60,
              "position": 14.972916666666666,
              "duration": 2.7395833333333335
            },
            {
              "pitch": 67,
              "velocity": 60,
              "position": 17.958333333333332,
              "duration": 1.3479166666666667
            },
            {
              "pitch": 72,
              "velocity": 81,
              "position": 18.016666666666666,
              "duration": 1.2895833333333333
            },
            {
              "pitch": 76,
              "velocity": 104,
              "position": 17.99375,
              "duration": 1.3125
            },
            {
              "pitch": 62,
              "velocity": 36,
              "position": 17.96875,
              "duration": 1.3375
            },
            {
              "pitch": 53,
              "velocity": 38,
              "position": 17.9625,
              "duration": 1.34375
            },
            {
              "pitch": 62,
              "velocity": 35,
              "position": 19.60625,
              "duration": 0.68125
            },
            {
              "pitch": 69,
              "velocity": 47,
              "position": 19.65,
              "duration": 0.6375
            },
            {
              "pitch": 53,
              "velocity": 29,
              "position": 19.645833333333332,
              "duration": 0.6416666666666667
            },
            {
              "pitch": 77,
              "velocity": 78,
              "position": 19.616666666666667,
              "duration": 0.6708333333333333
            },
            {
              "pitch": 72,
              "velocity": 60,
              "position": 19.625,
              "duration": 0.6666666666666666
            },
            {
              "pitch": 69,
              "velocity": 61,
              "position": 21.125,
              "duration": 2.6979166666666665
            },
            {
              "pitch": 59,
              "velocity": 41,
              "position": 20.875,
              "duration": 2.9791666666666665
            },
            {
              "pitch": 79,
              "velocity": 97,
              "position": 21.375,
              "duration": 2.4791666666666665
            },
            {
              "pitch": 53,
              "velocity": 44,
              "position": 20.75,
              "duration": 3.158333333333333
            },
            {
              "pitch": 64,
              "velocity": 37,
              "position": 21,
              "duration": 2.93125
            },
            {
              "pitch": 74,
              "velocity": 77,
              "position": 21.25,
              "duration": 2.689583333333333
            }
          ]
        },
        "1": {
          "ctab": {
            "srcChannel": 1,
            "name": "Gt b",
            "accType": "CHORD1",
            "editable": false,
            "mutedNotes": [
              11,
              10,
              9,
              8,
              1,
              0
            ],
            "mutedChords": [
              "dim7",
              "dim",
              "minMaj7(9)",
              "minMaj7",
              "min7(11)",
              "min7(9)",
              "min(9)",
              "m7b5",
              "min7",
              "min6",
              "min"
            ],
            "autoStart": false,
            "sourceChordNote": 0,
            "sourceChordType": "Maj",
            "ctb2Low": null,
            "ctb2Main": {
              "ntr": "ROOT_TRANSPOSITION",
              "ntt": "BYPASS",
              "bassOn": false,
              "chordRootUpperLimit": 8,
              "noteLowLimit": 0,
              "noteHighLimit": 127,
              "rtr": "PITCH_SHIFT"
            },
            "ctb2High": null
          },
          "notes": [
            {
              "pitch": 67,
              "velocity": 77,
              "position": 0.08958333333333333,
              "duration": 2.7020833333333334
            },
            {
              "pitch": 59,
              "velocity": 48,
              "position": 0.15208333333333332,
              "duration": 2.6395833333333334
            },
            {
              "pitch": 62,
              "velocity": 66,
              "position": 0.12916666666666668,
              "duration": 2.6625
            },
            {
              "pitch": 52,
              "velocity": 31,
              "position": 0.11458333333333333,
              "duration": 2.6770833333333335
            },
            {
              "pitch": 65,
              "velocity": 101,
              "position": 3.0520833333333335,
              "duration": 1.84375
            },
            {
              "pitch": 64,
              "velocity": 84,
              "position": 5.033333333333333,
              "duration": 0.8229166666666666
            },
            {
              "pitch": 60,
              "velocity": 80,
              "position": 3.0104166666666665,
              "duration": 2.902083333333333
            },
            {
              "pitch": 50,
              "velocity": 44,
              "position": 3.0416666666666665,
              "duration": 2.870833333333333
            },
            {
              "pitch": 56,
              "velocity": 63,
              "position": 3.0375,
              "duration": 2.875
            },
            {
              "pitch": 64,
              "velocity": 104,
              "position": 6.0625,
              "duration": 1.84375
            },
            {
              "pitch": 62,
              "velocity": 84,
              "position": 8.03125,
              "duration": 0.8666666666666667
            },
            {
              "pitch": 53,
              "velocity": 37,
              "position": 6.020833333333333,
              "duration": 2.8854166666666665
            },
            {
              "pitch": 57,
              "velocity": 64,
              "position": 6.002083333333333,
              "duration": 2.904166666666667
            },
            {
              "pitch": 60,
              "velocity": 82,
              "position": 6.072916666666667,
              "duration": 2.8333333333333335
            },
            {
              "pitch": 60,
              "velocity": 83,
              "position": 9,
              "duration": 1.7729166666666667
            },
            {
              "pitch": 65,
              "velocity": 96,
              "position": 9.03125,
              "duration": 1.7416666666666667
            },
            {
              "pitch": 49,
              "velocity": 37,
              "position": 9.025,
              "duration": 2.747916666666667
            },
            {
              "pitch": 55,
              "velocity": 62,
              "position": 9.004166666666666,
              "duration": 2.76875
            },
            {
              "pitch": 58,
              "velocity": 61,
              "position": 10.929166666666667,
              "duration": 1.0625
            },
            {
              "pitch": 64,
              "velocity": 83,
              "position": 10.952083333333333,
              "duration": 1.0395833333333333
            },
            {
              "pitch": 62,
              "velocity": 102,
              "position": 12.014583333333333,
              "duration": 1.9854166666666666
            },
            {
              "pitch": 57,
              "velocity": 82,
              "position": 12.020833333333334,
              "duration": 1.9791666666666667
            },
            {
              "pitch": 60,
              "velocity": 60,
              "position": 14.010416666666666,
              "duration": 0.6625
            },
            {
              "pitch": 48,
              "velocity": 43,
              "position": 11.958333333333334,
              "duration": 2.7291666666666665
            },
            {
              "pitch": 53,
              "velocity": 57,
              "position": 12.025,
              "duration": 2.6625
            },
            {
              "pitch": 67,
              "velocity": 78,
              "position": 12.989583333333334,
              "duration": 1.71875
            },
            {
              "pitch": 59,
              "velocity": 99,
              "position": 15.03125,
              "duration": 1.9479166666666667
            },
            {
              "pitch": 55,
              "velocity": 58,
              "position": 16.989583333333332,
              "duration": 0.66875
            },
            {
              "pitch": 64,
              "velocity": 79,
              "position": 16.0125,
              "duration": 1.675
            },
            {
              "pitch": 40,
              "velocity": 44,
              "position": 15.020833333333334,
              "duration": 2.691666666666667
            },
            {
              "pitch": 50,
              "velocity": 80,
              "position": 15.03125,
              "duration": 2.68125
            },
            {
              "pitch": 47,
              "velocity": 60,
              "position": 14.972916666666666,
              "duration": 2.7395833333333335
            },
            {
              "pitch": 52,
              "velocity": 60,
              "position": 17.958333333333332,
              "duration": 1.3479166666666667
            },
            {
              "pitch": 57,
              "velocity": 81,
              "position": 18.016666666666666,
              "duration": 1.2895833333333333
            },
            {
              "pitch": 60,
              "velocity": 104,
              "position": 17.99375,
              "duration": 1.3125
            },
            {
              "pitch": 48,
              "velocity": 36,
              "position": 17.96875,
              "duration": 1.3375
            },
            {
              "pitch": 41,
              "velocity": 38,
              "position": 17.9625,
              "duration": 1.34375
            },
            {
              "pitch": 53,
              "velocity": 35,
              "position": 19.60625,
              "duration": 0.68125
            },
            {
              "pitch": 57,
              "velocity": 47,
              "position": 19.65,
              "duration": 0.6375
            },
            {
              "pitch": 64,
              "velocity": 78,
              "position": 19.616666666666667,
              "duration": 0.6708333333333333
            },
            {
              "pitch": 60,
              "velocity": 60,
              "position": 19.625,
              "duration": 0.6666666666666666
            },
            {
              "pitch": 59,
              "velocity": 61,
              "position": 21.125,
              "duration": 2.6979166666666665
            },
            {
              "pitch": 67,
              "velocity": 97,
              "position": 21.375,
              "duration": 2.4791666666666665
            },
            {
              "pitch": 43,
              "velocity": 41,
              "position": 20.875,
              "duration": 2.9791666666666665
            },
            {
              "pitch": 53,
              "velocity": 37,
              "position": 21,
              "duration": 2.93125
            },
            {
              "pitch": 64,
              "velocity": 77,
              "position": 21.25,
              "duration": 2.689583333333333
            }
          ]
        },
        "2": {
          "ctab": {
            "srcChannel": 2,
            "name": "Gt a",
            "accType": "CHORD1",
            "editable": false,
            "mutedNotes": [
              7,
              6,
              5,
              4,
              3,
              2
            ],
            "mutedChords": [
              "1+2+5",
              "sus4",
              "1+5",
              "1+8",
              "7aug",
              "Maj7aug",
              "7(#9)",
              "7(b13)",
              "7(b9)",
              "7(13)",
              "7#11",
              "7(9)",
              "7b5",
              "7sus4",
              "7th",
              "aug",
              "Maj6(9)",
              "Maj7(9)",
              "Maj(9)",
              "Maj7#11",
              "Maj7",
              "Maj6",
              "Maj"
            ],
            "autoStart": false,
            "sourceChordNote": 0,
            "sourceChordType": "min",
            "ctb2Low": null,
            "ctb2Main": {
              "ntr": "ROOT_TRANSPOSITION",
              "ntt": "BYPASS",
              "bassOn": false,
              "chordRootUpperLimit": 7,
              "noteLowLimit": 0,
              "noteHighLimit": 127,
              "rtr": "PITCH_SHIFT"
            },
            "ctb2High": null
          },
          "notes": [
            {
              "pitch": 60,
              "velocity": 41,
              "position": 0.010416666666666666,
              "duration": 2.38125
            },
            {
              "pitch": 70,
              "velocity": 77,
              "position": 0.05625,
              "duration": 2.3354166666666667
            },
            {
              "pitch": 67,
              "velocity": 60,
              "position": 0.03333333333333333,
              "duration": 2.3583333333333334
            },
            {
              "pitch": 75,
              "velocity": 104,
              "position": 0,
              "duration": 2.3958333333333335
            },
            {
              "pitch": 70,
              "velocity": 101,
              "position": 3.0416666666666665,
              "duration": 1.96875
            },
            {
              "pitch": 72,
              "velocity": 82,
              "position": 5,
              "duration": 0.8854166666666666
            },
            {
              "pitch": 61,
              "velocity": 63,
              "position": 3.027083333333333,
              "duration": 2.875
            },
            {
              "pitch": 65,
              "velocity": 80,
              "position": 3,
              "duration": 2.902083333333333
            },
            {
              "pitch": 55,
              "velocity": 44,
              "position": 3.03125,
              "duration": 2.8916666666666666
            },
            {
              "pitch": 60,
              "velocity": 64,
              "position": 5.96875,
              "duration": 1.8229166666666667
            },
            {
              "pitch": 65,
              "velocity": 82,
              "position": 6.0375,
              "duration": 1.7541666666666667
            },
            {
              "pitch": 70,
              "velocity": 104,
              "position": 6.027083333333334,
              "duration": 1.7645833333333334
            },
            {
              "pitch": 54,
              "velocity": 37,
              "position": 5.983333333333333,
              "duration": 1.8083333333333333
            },
            {
              "pitch": 60,
              "velocity": 49,
              "position": 8,
              "duration": 0.8541666666666666
            },
            {
              "pitch": 54,
              "velocity": 33,
              "position": 8.06875,
              "duration": 0.7854166666666667
            },
            {
              "pitch": 68,
              "velocity": 84,
              "position": 8.03125,
              "duration": 0.8229166666666666
            },
            {
              "pitch": 65,
              "velocity": 62,
              "position": 8.010416666666666,
              "duration": 0.84375
            },
            {
              "pitch": 63,
              "velocity": 83,
              "position": 9,
              "duration": 1.7958333333333334
            },
            {
              "pitch": 68,
              "velocity": 96,
              "position": 9.03125,
              "duration": 1.7645833333333334
            },
            {
              "pitch": 53,
              "velocity": 37,
              "position": 9.025,
              "duration": 1.7708333333333333
            },
            {
              "pitch": 59,
              "velocity": 62,
              "position": 9.004166666666666,
              "duration": 1.7916666666666667
            },
            {
              "pitch": 62,
              "velocity": 61,
              "position": 11,
              "duration": 0.8083333333333333
            },
            {
              "pitch": 59,
              "velocity": 50,
              "position": 11.0625,
              "duration": 0.7458333333333333
            },
            {
              "pitch": 67,
              "velocity": 83,
              "position": 11.020833333333334,
              "duration": 0.7875
            },
            {
              "pitch": 53,
              "velocity": 28,
              "position": 11.010416666666666,
              "duration": 0.7979166666666667
            },
            {
              "pitch": 67,
              "velocity": 102,
              "position": 12.014583333333333,
              "duration": 1.9854166666666666
            },
            {
              "pitch": 67,
              "velocity": 60,
              "position": 14.010416666666666,
              "duration": 0.6625
            },
            {
              "pitch": 58,
              "velocity": 57,
              "position": 12.025,
              "duration": 2.6625
            },
            {
              "pitch": 53,
              "velocity": 43,
              "position": 11.958333333333334,
              "duration": 2.7291666666666665
            },
            {
              "pitch": 62,
              "velocity": 82,
              "position": 12.020833333333334,
              "duration": 2.6666666666666665
            },
            {
              "pitch": 72,
              "velocity": 78,
              "position": 12.989583333333334,
              "duration": 1.71875
            },
            {
              "pitch": 70,
              "velocity": 99,
              "position": 15.03125,
              "duration": 1.9479166666666667
            },
            {
              "pitch": 70,
              "velocity": 58,
              "position": 16.989583333333332,
              "duration": 0.66875
            },
            {
              "pitch": 75,
              "velocity": 79,
              "position": 16.0125,
              "duration": 1.675
            },
            {
              "pitch": 55,
              "velocity": 44,
              "position": 15.020833333333334,
              "duration": 2.691666666666667
            },
            {
              "pitch": 65,
              "velocity": 80,
              "position": 15.03125,
              "duration": 2.68125
            },
            {
              "pitch": 60,
              "velocity": 60,
              "position": 14.972916666666666,
              "duration": 2.7395833333333335
            },
            {
              "pitch": 66,
              "velocity": 60,
              "position": 17.958333333333332,
              "duration": 1.3479166666666667
            },
            {
              "pitch": 70,
              "velocity": 81,
              "position": 18.016666666666666,
              "duration": 1.2895833333333333
            },
            {
              "pitch": 77,
              "velocity": 104,
              "position": 17.99375,
              "duration": 1.3125
            },
            {
              "pitch": 60,
              "velocity": 36,
              "position": 17.96875,
              "duration": 1.3375
            },
            {
              "pitch": 56,
              "velocity": 38,
              "position": 17.9625,
              "duration": 1.34375
            },
            {
              "pitch": 60,
              "velocity": 35,
              "position": 19.60625,
              "duration": 0.68125
            },
            {
              "pitch": 65,
              "velocity": 47,
              "position": 19.65,
              "duration": 0.6375
            },
            {
              "pitch": 54,
              "velocity": 29,
              "position": 19.645833333333332,
              "duration": 0.6416666666666667
            },
            {
              "pitch": 75,
              "velocity": 78,
              "position": 19.616666666666667,
              "duration": 0.6708333333333333
            },
            {
              "pitch": 68,
              "velocity": 60,
              "position": 19.625,
              "duration": 0.6666666666666666
            },
            {
              "pitch": 71,
              "velocity": 61,
              "position": 21.125,
              "duration": 2.6979166666666665
            },
            {
              "pitch": 59,
              "velocity": 41,
              "position": 20.875,
              "duration": 2.9791666666666665
            },
            {
              "pitch": 79,
              "velocity": 97,
              "position": 21.375,
              "duration": 2.4791666666666665
            },
            {
              "pitch": 55,
              "velocity": 44,
              "position": 20.75,
              "duration": 3.158333333333333
            },
            {
              "pitch": 65,
              "velocity": 37,
              "position": 21,
              "duration": 2.93125
            },
            {
              "pitch": 74,
              "velocity": 77,
              "position": 21.25,
              "duration": 2.689583333333333
            }
          ]
        },
        "3": {
          "ctab": {
            "srcChannel": 3,
            "name": "Gt b",
            "accType": "CHORD1",
            "editable": false,
            "mutedNotes": [
              11,
              10,
              9,
              8,
              1,
              0
            ],
            "mutedChords": [
              "1+2+5",
              "sus4",
              "1+5",
              "1+8",
              "7aug",
              "Maj7aug",
              "7(#9)",
              "7(b13)",
              "7(b9)",
              "7(13)",
              "7#11",
              "7(9)",
              "7b5",
              "7sus4",
              "7th",
              "aug",
              "Maj6(9)",
              "Maj7(9)",
              "Maj(9)",
              "Maj7#11",
              "Maj7",
              "Maj6",
              "Maj"
            ],
            "autoStart": false,
            "sourceChordNote": 0,
            "sourceChordType": "min",
            "ctb2Low": null,
            "ctb2Main": {
              "ntr": "ROOT_TRANSPOSITION",
              "ntt": "BYPASS",
              "bassOn": false,
              "chordRootUpperLimit": 8,
              "noteLowLimit": 0,
              "noteHighLimit": 127,
              "rtr": "PITCH_SHIFT"
            },
            "ctb2High": null
          },
          "notes": [
            {
              "pitch": 55,
              "velocity": 41,
              "position": 0.010416666666666666,
              "duration": 2.714583333333333
            },
            {
              "pitch": 65,
              "velocity": 77,
              "position": 0.05625,
              "duration": 2.66875
            },
            {
              "pitch": 60,
              "velocity": 60,
              "position": 0.03333333333333333,
              "duration": 2.691666666666667
            },
            {
              "pitch": 70,
              "velocity": 104,
              "position": 0,
              "duration": 2.7291666666666665
            },
            {
              "pitch": 65,
              "velocity": 101,
              "position": 3.0416666666666665,
              "duration": 1.84375
            },
            {
              "pitch": 63,
              "velocity": 84,
              "position": 5,
              "duration": 0.5270833333333333
            },
            {
              "pitch": 60,
              "velocity": 80,
              "position": 3,
              "duration": 2.5791666666666666
            },
            {
              "pitch": 49,
              "velocity": 44,
              "position": 3.03125,
              "duration": 2.5479166666666666
            },
            {
              "pitch": 55,
              "velocity": 63,
              "position": 3.027083333333333,
              "duration": 2.5520833333333335
            },
            {
              "pitch": 65,
              "velocity": 104,
              "position": 6.05625,
              "duration": 1.8604166666666666
            },
            {
              "pitch": 63,
              "velocity": 84,
              "position": 8.03125,
              "duration": 0.5270833333333333
            },
            {
              "pitch": 48,
              "velocity": 37,
              "position": 6.014583333333333,
              "duration": 2.56875
            },
            {
              "pitch": 54,
              "velocity": 64,
              "position": 6,
              "duration": 2.5833333333333335
            },
            {
              "pitch": 58,
              "velocity": 82,
              "position": 6.066666666666666,
              "duration": 2.5166666666666666
            },
            {
              "pitch": 63,
              "velocity": 96,
              "position": 9.03125,
              "duration": 1.8604166666666666
            },
            {
              "pitch": 62,
              "velocity": 83,
              "position": 11.022916666666667,
              "duration": 0.8270833333333333
            },
            {
              "pitch": 59,
              "velocity": 62,
              "position": 9.004166666666666,
              "duration": 2.8875
            },
            {
              "pitch": 53,
              "velocity": 37,
              "position": 9.025,
              "duration": 2.8666666666666667
            },
            {
              "pitch": 43,
              "velocity": 37,
              "position": 9.025,
              "duration": 2.8666666666666667
            },
            {
              "pitch": 62,
              "velocity": 102,
              "position": 12.014583333333333,
              "duration": 1.9854166666666666
            },
            {
              "pitch": 58,
              "velocity": 82,
              "position": 12.020833333333334,
              "duration": 1.9791666666666667
            },
            {
              "pitch": 58,
              "velocity": 60,
              "position": 14.010416666666666,
              "duration": 0.6625
            },
            {
              "pitch": 51,
              "velocity": 43,
              "position": 11.958333333333334,
              "duration": 2.7291666666666665
            },
            {
              "pitch": 55,
              "velocity": 57,
              "position": 12.025,
              "duration": 2.6625
            },
            {
              "pitch": 65,
              "velocity": 78,
              "position": 12.989583333333334,
              "duration": 1.71875
            },
            {
              "pitch": 55,
              "velocity": 80,
              "position": 15.03125,
              "duration": 1.9479166666666667
            },
            {
              "pitch": 60,
              "velocity": 99,
              "position": 15.03125,
              "duration": 1.9479166666666667
            },
            {
              "pitch": 55,
              "velocity": 58,
              "position": 16.989583333333332,
              "duration": 0.66875
            },
            {
              "pitch": 63,
              "velocity": 79,
              "position": 16.0125,
              "duration": 1.675
            },
            {
              "pitch": 51,
              "velocity": 60,
              "position": 14.972916666666666,
              "duration": 2.7395833333333335
            },
            {
              "pitch": 44,
              "velocity": 44,
              "position": 15.020833333333334,
              "duration": 2.691666666666667
            },
            {
              "pitch": 54,
              "velocity": 60,
              "position": 17.958333333333332,
              "duration": 1.3479166666666667
            },
            {
              "pitch": 58,
              "velocity": 81,
              "position": 18.016666666666666,
              "duration": 1.2895833333333333
            },
            {
              "pitch": 62,
              "velocity": 104,
              "position": 17.99375,
              "duration": 1.3125
            },
            {
              "pitch": 48,
              "velocity": 36,
              "position": 17.96875,
              "duration": 1.3375
            },
            {
              "pitch": 54,
              "velocity": 35,
              "position": 19.60625,
              "duration": 0.68125
            },
            {
              "pitch": 58,
              "velocity": 47,
              "position": 19.65,
              "duration": 0.6375
            },
            {
              "pitch": 65,
              "velocity": 78,
              "position": 19.616666666666667,
              "duration": 0.6708333333333333
            },
            {
              "pitch": 48,
              "velocity": 60,
              "position": 19.625,
              "duration": 0.6666666666666666
            },
            {
              "pitch": 59,
              "velocity": 61,
              "position": 21.125,
              "duration": 2.6979166666666665
            },
            {
              "pitch": 67,
              "velocity": 97,
              "position": 21.375,
              "duration": 2.4791666666666665
            },
            {
              "pitch": 43,
              "velocity": 41,
              "position": 20.875,
              "duration": 2.9791666666666665
            },
            {
              "pitch": 53,
              "velocity": 37,
              "position": 21,
              "duration": 2.93125
            },
            {
              "pitch": 63,
              "velocity": 77,
              "position": 21.25,
              "duration": 2.689583333333333
            }
          ]
        },
        "4": {
          "ctab": {
            "srcChannel": 4,
            "name": "pf a",
            "accType": "CHORD2",
            "editable": false,
            "mutedNotes": [
              7,
              6,
              5,
              4,
              3,
              2
            ],
            "mutedChords": [
              "dim7",
              "dim",
              "minMaj7(9)",
              "minMaj7",
              "min7(11)",
              "min7(9)",
              "min(9)",
              "m7b5",
              "min7",
              "min6",
              "min"
            ],
            "autoStart": false,
            "sourceChordNote": 0,
            "sourceChordType": "Maj",
            "ctb2Low": null,
            "ctb2Main": {
              "ntr": "ROOT_TRANSPOSITION",
              "ntt": "BYPASS",
              "bassOn": false,
              "chordRootUpperLimit": 7,
              "noteLowLimit": 0,
              "noteHighLimit": 127,
              "rtr": "PITCH_SHIFT"
            },
            "ctb2High": null
          },
          "notes": [
            {
              "pitch": 55,
              "velocity": 60,
              "position": 0,
              "duration": 2.845833333333333
            },
            {
              "pitch": 79,
              "velocity": 60,
              "position": 0,
              "duration": 2.845833333333333
            },
            {
              "pitch": 74,
              "velocity": 60,
              "position": 0,
              "duration": 2.845833333333333
            },
            {
              "pitch": 69,
              "velocity": 60,
              "position": 0,
              "duration": 2.845833333333333
            },
            {
              "pitch": 64,
              "velocity": 60,
              "position": 0,
              "duration": 2.845833333333333
            },
            {
              "pitch": 59,
              "velocity": 60,
              "position": 0,
              "duration": 2.845833333333333
            },
            {
              "pitch": 56,
              "velocity": 60,
              "position": 3,
              "duration": 2.845833333333333
            },
            {
              "pitch": 76,
              "velocity": 60,
              "position": 3,
              "duration": 2.845833333333333
            },
            {
              "pitch": 62,
              "velocity": 60,
              "position": 3,
              "duration": 2.845833333333333
            },
            {
              "pitch": 67,
              "velocity": 60,
              "position": 3,
              "duration": 2.845833333333333
            },
            {
              "pitch": 71,
              "velocity": 60,
              "position": 3,
              "duration": 2.8645833333333335
            },
            {
              "pitch": 62,
              "velocity": 60,
              "position": 6,
              "duration": 1.9708333333333334
            },
            {
              "pitch": 71,
              "velocity": 60,
              "position": 6,
              "duration": 1.9708333333333334
            },
            {
              "pitch": 67,
              "velocity": 60,
              "position": 6,
              "duration": 1.9708333333333334
            },
            {
              "pitch": 60,
              "velocity": 50,
              "position": 8,
              "duration": 0.79375
            },
            {
              "pitch": 69,
              "velocity": 50,
              "position": 8,
              "duration": 0.79375
            },
            {
              "pitch": 65,
              "velocity": 50,
              "position": 8,
              "duration": 0.79375
            },
            {
              "pitch": 41,
              "velocity": 60,
              "position": 6,
              "duration": 2.845833333333333
            },
            {
              "pitch": 57,
              "velocity": 60,
              "position": 6,
              "duration": 2.845833333333333
            },
            {
              "pitch": 65,
              "velocity": 60,
              "position": 9,
              "duration": 1.8645833333333333
            },
            {
              "pitch": 69,
              "velocity": 60,
              "position": 9,
              "duration": 1.8645833333333333
            },
            {
              "pitch": 55,
              "velocity": 60,
              "position": 9,
              "duration": 2.845833333333333
            },
            {
              "pitch": 67,
              "velocity": 60,
              "position": 11,
              "duration": 0.8458333333333333
            },
            {
              "pitch": 64,
              "velocity": 60,
              "position": 11,
              "duration": 0.8458333333333333
            },
            {
              "pitch": 61,
              "velocity": 60,
              "position": 9,
              "duration": 2.845833333333333
            },
            {
              "pitch": 45,
              "velocity": 60,
              "position": 9,
              "duration": 2.845833333333333
            },
            {
              "pitch": 38,
              "velocity": 60,
              "position": 12,
              "duration": 2.845833333333333
            },
            {
              "pitch": 67,
              "velocity": 60,
              "position": 12,
              "duration": 2.845833333333333
            },
            {
              "pitch": 65,
              "velocity": 60,
              "position": 12,
              "duration": 2.845833333333333
            },
            {
              "pitch": 60,
              "velocity": 60,
              "position": 12,
              "duration": 2.845833333333333
            },
            {
              "pitch": 57,
              "velocity": 60,
              "position": 12,
              "duration": 2.845833333333333
            },
            {
              "pitch": 53,
              "velocity": 60,
              "position": 12,
              "duration": 2.845833333333333
            },
            {
              "pitch": 40,
              "velocity": 60,
              "position": 15,
              "duration": 2.845833333333333
            },
            {
              "pitch": 67,
              "velocity": 60,
              "position": 15,
              "duration": 2.845833333333333
            },
            {
              "pitch": 62,
              "velocity": 60,
              "position": 15,
              "duration": 2.845833333333333
            },
            {
              "pitch": 59,
              "velocity": 60,
              "position": 15,
              "duration": 2.845833333333333
            },
            {
              "pitch": 52,
              "velocity": 60,
              "position": 15,
              "duration": 2.845833333333333
            },
            {
              "pitch": 41,
              "velocity": 60,
              "position": 18.666666666666668,
              "duration": 0.8458333333333333
            },
            {
              "pitch": 67,
              "velocity": 60,
              "position": 18.666666666666668,
              "duration": 0.8458333333333333
            },
            {
              "pitch": 64,
              "velocity": 60,
              "position": 18.666666666666668,
              "duration": 0.8458333333333333
            },
            {
              "pitch": 60,
              "velocity": 60,
              "position": 18.666666666666668,
              "duration": 0.8458333333333333
            },
            {
              "pitch": 57,
              "velocity": 60,
              "position": 18.666666666666668,
              "duration": 0.8458333333333333
            },
            {
              "pitch": 72,
              "velocity": 60,
              "position": 19.625,
              "duration": 1.2208333333333334
            },
            {
              "pitch": 43,
              "velocity": 60,
              "position": 21,
              "duration": 2.877083333333333
            },
            {
              "pitch": 74,
              "velocity": 60,
              "position": 21,
              "duration": 2.877083333333333
            },
            {
              "pitch": 69,
              "velocity": 60,
              "position": 21,
              "duration": 2.877083333333333
            },
            {
              "pitch": 64,
              "velocity": 60,
              "position": 21,
              "duration": 2.877083333333333
            },
            {
              "pitch": 59,
              "velocity": 60,
              "position": 21,
              "duration": 2.877083333333333
            },
            {
              "pitch": 53,
              "velocity": 60,
              "position": 21,
              "duration": 2.877083333333333
            }
          ]
        },
        "5": {
          "ctab": {
            "srcChannel": 5,
            "name": "pf b",
            "accType": "CHORD2",
            "editable": false,
            "mutedNotes": [
              11,
              10,
              9,
              8,
              1,
              0
            ],
            "mutedChords": [
              "dim7",
              "dim",
              "minMaj7(9)",
              "minMaj7",
              "min7(11)",
              "min7(9)",
              "min(9)",
              "m7b5",
              "min7",
              "min6",
              "min"
            ],
            "autoStart": false,
            "sourceChordNote": 0,
            "sourceChordType": "Maj",
            "ctb2Low": null,
            "ctb2Main": {
              "ntr": "ROOT_TRANSPOSITION",
              "ntt": "BYPASS",
              "bassOn": false,
              "chordRootUpperLimit": 8,
              "noteLowLimit": 0,
              "noteHighLimit": 127,
              "rtr": "PITCH_SHIFT"
            },
            "ctb2High": null
          },
          "notes": [
            {
              "pitch": 36,
              "velocity": 60,
              "position": 0,
              "duration": 2.8666666666666667
            },
            {
              "pitch": 71,
              "velocity": 60,
              "position": 0,
              "duration": 2.8666666666666667
            },
            {
              "pitch": 67,
              "velocity": 60,
              "position": 0,
              "duration": 2.8666666666666667
            },
            {
              "pitch": 62,
              "velocity": 60,
              "position": 0,
              "duration": 2.8666666666666667
            },
            {
              "pitch": 57,
              "velocity": 60,
              "position": 0,
              "duration": 2.8666666666666667
            },
            {
              "pitch": 52,
              "velocity": 60,
              "position": 0,
              "duration": 2.8666666666666667
            },
            {
              "pitch": 65,
              "velocity": 60,
              "position": 3,
              "duration": 1.9479166666666667
            },
            {
              "pitch": 56,
              "velocity": 60,
              "position": 3,
              "duration": 2.8666666666666667
            },
            {
              "pitch": 50,
              "velocity": 60,
              "position": 3,
              "duration": 2.8666666666666667
            },
            {
              "pitch": 62,
              "velocity": 60,
              "position": 3,
              "duration": 2.8666666666666667
            },
            {
              "pitch": 60,
              "velocity": 60,
              "position": 3,
              "duration": 2.8666666666666667
            },
            {
              "pitch": 40,
              "velocity": 60,
              "position": 3,
              "duration": 2.8666666666666667
            },
            {
              "pitch": 64,
              "velocity": 60,
              "position": 5,
              "duration": 0.9083333333333333
            },
            {
              "pitch": 57,
              "velocity": 60,
              "position": 6,
              "duration": 2.825
            },
            {
              "pitch": 67,
              "velocity": 60,
              "position": 6,
              "duration": 2.825
            },
            {
              "pitch": 64,
              "velocity": 60,
              "position": 6,
              "duration": 2.825
            },
            {
              "pitch": 60,
              "velocity": 60,
              "position": 6,
              "duration": 2.825
            },
            {
              "pitch": 41,
              "velocity": 60,
              "position": 6,
              "duration": 2.8666666666666667
            },
            {
              "pitch": 65,
              "velocity": 60,
              "position": 9,
              "duration": 1.9479166666666667
            },
            {
              "pitch": 72,
              "velocity": 60,
              "position": 9,
              "duration": 1.9479166666666667
            },
            {
              "pitch": 55,
              "velocity": 60,
              "position": 9,
              "duration": 2.8666666666666667
            },
            {
              "pitch": 45,
              "velocity": 60,
              "position": 9,
              "duration": 2.8666666666666667
            },
            {
              "pitch": 61,
              "velocity": 60,
              "position": 9,
              "duration": 2.8666666666666667
            },
            {
              "pitch": 64,
              "velocity": 60,
              "position": 11,
              "duration": 0.9083333333333333
            },
            {
              "pitch": 70,
              "velocity": 60,
              "position": 11,
              "duration": 0.9083333333333333
            },
            {
              "pitch": 38,
              "velocity": 60,
              "position": 12,
              "duration": 2.8666666666666667
            },
            {
              "pitch": 67,
              "velocity": 60,
              "position": 12,
              "duration": 2.8666666666666667
            },
            {
              "pitch": 62,
              "velocity": 60,
              "position": 12,
              "duration": 2.8666666666666667
            },
            {
              "pitch": 57,
              "velocity": 60,
              "position": 12,
              "duration": 2.8666666666666667
            },
            {
              "pitch": 53,
              "velocity": 60,
              "position": 12,
              "duration": 2.8666666666666667
            },
            {
              "pitch": 40,
              "velocity": 60,
              "position": 15,
              "duration": 2.8666666666666667
            },
            {
              "pitch": 67,
              "velocity": 60,
              "position": 15,
              "duration": 2.8666666666666667
            },
            {
              "pitch": 62,
              "velocity": 60,
              "position": 15,
              "duration": 2.8666666666666667
            },
            {
              "pitch": 59,
              "velocity": 60,
              "position": 15,
              "duration": 2.8666666666666667
            },
            {
              "pitch": 55,
              "velocity": 60,
              "position": 15,
              "duration": 2.8666666666666667
            },
            {
              "pitch": 55,
              "velocity": 60,
              "position": 18,
              "duration": 1.4916666666666667
            },
            {
              "pitch": 64,
              "velocity": 60,
              "position": 18,
              "duration": 1.4916666666666667
            },
            {
              "pitch": 60,
              "velocity": 60,
              "position": 18,
              "duration": 1.4916666666666667
            },
            {
              "pitch": 57,
              "velocity": 60,
              "position": 18,
              "duration": 1.4916666666666667
            },
            {
              "pitch": 41,
              "velocity": 60,
              "position": 18,
              "duration": 2.8666666666666667
            },
            {
              "pitch": 67,
              "velocity": 60,
              "position": 19.625,
              "duration": 1.2416666666666667
            },
            {
              "pitch": 64,
              "velocity": 60,
              "position": 19.625,
              "duration": 1.2416666666666667
            },
            {
              "pitch": 60,
              "velocity": 60,
              "position": 19.625,
              "duration": 1.2416666666666667
            },
            {
              "pitch": 57,
              "velocity": 60,
              "position": 19.625,
              "duration": 1.2416666666666667
            },
            {
              "pitch": 43,
              "velocity": 60,
              "position": 21,
              "duration": 2.85625
            },
            {
              "pitch": 67,
              "velocity": 60,
              "position": 21,
              "duration": 2.8666666666666667
            },
            {
              "pitch": 64,
              "velocity": 60,
              "position": 21,
              "duration": 2.8666666666666667
            },
            {
              "pitch": 59,
              "velocity": 60,
              "position": 21,
              "duration": 2.8666666666666667
            },
            {
              "pitch": 53,
              "velocity": 60,
              "position": 21,
              "duration": 2.8666666666666667
            }
          ]
        },
        "6": {
          "ctab": {
            "srcChannel": 6,
            "name": "pf a",
            "accType": "CHORD2",
            "editable": false,
            "mutedNotes": [
              7,
              6,
              5,
              4,
              3,
              2
            ],
            "mutedChords": [
              "1+2+5",
              "sus4",
              "1+5",
              "1+8",
              "7aug",
              "Maj7aug",
              "7(#9)",
              "7(b13)",
              "7(b9)",
              "7(13)",
              "7#11",
              "7(9)",
              "7b5",
              "7sus4",
              "7th",
              "aug",
              "Maj6(9)",
              "Maj7(9)",
              "Maj(9)",
              "Maj7#11",
              "Maj7",
              "Maj6",
              "Maj"
            ],
            "autoStart": false,
            "sourceChordNote": 0,
            "sourceChordType": "min",
            "ctb2Low": null,
            "ctb2Main": {
              "ntr": "ROOT_TRANSPOSITION",
              "ntt": "BYPASS",
              "bassOn": false,
              "chordRootUpperLimit": 7,
              "noteLowLimit": 0,
              "noteHighLimit": 127,
              "rtr": "PITCH_SHIFT"
            },
            "ctb2High": null
          },
          "notes": [
            {
              "pitch": 48,
              "velocity": 60,
              "position": 0,
              "duration": 2.8666666666666667
            },
            {
              "pitch": 75,
              "velocity": 60,
              "position": 0,
              "duration": 2.8666666666666667
            },
            {
              "pitch": 70,
              "velocity": 60,
              "position": 0,
              "duration": 2.8666666666666667
            },
            {
              "pitch": 67,
              "velocity": 60,
              "position": 0,
              "duration": 2.8666666666666667
            },
            {
              "pitch": 63,
              "velocity": 60,
              "position": 0,
              "duration": 2.8666666666666667
            },
            {
              "pitch": 58,
              "velocity": 60,
              "position": 0,
              "duration": 2.8666666666666667
            },
            {
              "pitch": 39,
              "velocity": 60,
              "position": 3,
              "duration": 2.8666666666666667
            },
            {
              "pitch": 72,
              "velocity": 60,
              "position": 3,
              "duration": 2.8666666666666667
            },
            {
              "pitch": 55,
              "velocity": 60,
              "position": 3,
              "duration": 2.8666666666666667
            },
            {
              "pitch": 61,
              "velocity": 60,
              "position": 3,
              "duration": 2.8666666666666667
            },
            {
              "pitch": 65,
              "velocity": 60,
              "position": 3,
              "duration": 2.9479166666666665
            },
            {
              "pitch": 70,
              "velocity": 60,
              "position": 6,
              "duration": 1.9895833333333333
            },
            {
              "pitch": 65,
              "velocity": 60,
              "position": 6,
              "duration": 2.825
            },
            {
              "pitch": 54,
              "velocity": 60,
              "position": 6,
              "duration": 2.825
            },
            {
              "pitch": 60,
              "velocity": 60,
              "position": 6,
              "duration": 2.825
            },
            {
              "pitch": 44,
              "velocity": 60,
              "position": 6,
              "duration": 2.8666666666666667
            },
            {
              "pitch": 68,
              "velocity": 50,
              "position": 8,
              "duration": 0.9083333333333333
            },
            {
              "pitch": 63,
              "velocity": 60,
              "position": 9,
              "duration": 1.9479166666666667
            },
            {
              "pitch": 68,
              "velocity": 60,
              "position": 9,
              "duration": 1.9479166666666667
            },
            {
              "pitch": 53,
              "velocity": 60,
              "position": 9,
              "duration": 2.8666666666666667
            },
            {
              "pitch": 43,
              "velocity": 60,
              "position": 9,
              "duration": 2.8666666666666667
            },
            {
              "pitch": 59,
              "velocity": 60,
              "position": 9,
              "duration": 2.8666666666666667
            },
            {
              "pitch": 62,
              "velocity": 50,
              "position": 11,
              "duration": 0.9083333333333333
            },
            {
              "pitch": 67,
              "velocity": 50,
              "position": 11,
              "duration": 0.9083333333333333
            },
            {
              "pitch": 39,
              "velocity": 60,
              "position": 12,
              "duration": 2.8666666666666667
            },
            {
              "pitch": 65,
              "velocity": 60,
              "position": 12,
              "duration": 2.8666666666666667
            },
            {
              "pitch": 62,
              "velocity": 60,
              "position": 12,
              "duration": 2.8666666666666667
            },
            {
              "pitch": 58,
              "velocity": 60,
              "position": 12,
              "duration": 2.8666666666666667
            },
            {
              "pitch": 55,
              "velocity": 60,
              "position": 12,
              "duration": 2.8666666666666667
            },
            {
              "pitch": 44,
              "velocity": 60,
              "position": 15,
              "duration": 2.8666666666666667
            },
            {
              "pitch": 67,
              "velocity": 60,
              "position": 15,
              "duration": 2.8666666666666667
            },
            {
              "pitch": 63,
              "velocity": 60,
              "position": 15,
              "duration": 2.8666666666666667
            },
            {
              "pitch": 60,
              "velocity": 60,
              "position": 15,
              "duration": 2.8666666666666667
            },
            {
              "pitch": 58,
              "velocity": 60,
              "position": 15,
              "duration": 2.8666666666666667
            },
            {
              "pitch": 54,
              "velocity": 60,
              "position": 18,
              "duration": 1.4916666666666667
            },
            {
              "pitch": 70,
              "velocity": 60,
              "position": 18,
              "duration": 1.4916666666666667
            },
            {
              "pitch": 65,
              "velocity": 60,
              "position": 18,
              "duration": 1.4916666666666667
            },
            {
              "pitch": 60,
              "velocity": 60,
              "position": 18,
              "duration": 1.4916666666666667
            },
            {
              "pitch": 38,
              "velocity": 60,
              "position": 18,
              "duration": 2.8666666666666667
            },
            {
              "pitch": 68,
              "velocity": 60,
              "position": 19.625,
              "duration": 1.2416666666666667
            },
            {
              "pitch": 63,
              "velocity": 60,
              "position": 19.625,
              "duration": 1.2416666666666667
            },
            {
              "pitch": 60,
              "velocity": 60,
              "position": 19.625,
              "duration": 1.2416666666666667
            },
            {
              "pitch": 54,
              "velocity": 60,
              "position": 19.625,
              "duration": 1.2416666666666667
            },
            {
              "pitch": 43,
              "velocity": 60,
              "position": 21,
              "duration": 2.85625
            },
            {
              "pitch": 67,
              "velocity": 60,
              "position": 21,
              "duration": 2.8666666666666667
            },
            {
              "pitch": 62,
              "velocity": 60,
              "position": 21,
              "duration": 2.8666666666666667
            },
            {
              "pitch": 59,
              "velocity": 60,
              "position": 21,
              "duration": 2.8666666666666667
            },
            {
              "pitch": 53,
              "velocity": 60,
              "position": 21,
              "duration": 2.8666666666666667
            }
          ]
        },
        "7": {
          "ctab": {
            "srcChannel": 7,
            "name": "pf b",
            "accType": "CHORD2",
            "editable": false,
            "mutedNotes": [
              11,
              10,
              9,
              8,
              1,
              0
            ],
            "mutedChords": [
              "1+2+5",
              "sus4",
              "1+5",
              "1+8",
              "7aug",
              "Maj7aug",
              "7(#9)",
              "7(b13)",
              "7(b9)",
              "7(13)",
              "7#11",
              "7(9)",
              "7b5",
              "7sus4",
              "7th",
              "aug",
              "Maj6(9)",
              "Maj7(9)",
              "Maj(9)",
              "Maj7#11",
              "Maj7",
              "Maj6",
              "Maj"
            ],
            "autoStart": false,
            "sourceChordNote": 0,
            "sourceChordType": "min",
            "ctb2Low": null,
            "ctb2Main": {
              "ntr": "ROOT_TRANSPOSITION",
              "ntt": "BYPASS",
              "bassOn": false,
              "chordRootUpperLimit": 8,
              "noteLowLimit": 0,
              "noteHighLimit": 127,
              "rtr": "PITCH_SHIFT"
            },
            "ctb2High": null
          },
          "notes": [
            {
              "pitch": 36,
              "velocity": 60,
              "position": 0,
              "duration": 2.8666666666666667
            },
            {
              "pitch": 70,
              "velocity": 60,
              "position": 0,
              "duration": 2.8666666666666667
            },
            {
              "pitch": 67,
              "velocity": 60,
              "position": 0,
              "duration": 2.8666666666666667
            },
            {
              "pitch": 62,
              "velocity": 60,
              "position": 0,
              "duration": 2.8666666666666667
            },
            {
              "pitch": 58,
              "velocity": 60,
              "position": 0,
              "duration": 2.8666666666666667
            },
            {
              "pitch": 51,
              "velocity": 60,
              "position": 0,
              "duration": 2.8666666666666667
            },
            {
              "pitch": 39,
              "velocity": 60,
              "position": 3,
              "duration": 2.8666666666666667
            },
            {
              "pitch": 49,
              "velocity": 60,
              "position": 3,
              "duration": 2.8666666666666667
            },
            {
              "pitch": 60,
              "velocity": 60,
              "position": 3,
              "duration": 2.8666666666666667
            },
            {
              "pitch": 55,
              "velocity": 60,
              "position": 3,
              "duration": 2.8666666666666667
            },
            {
              "pitch": 65,
              "velocity": 60,
              "position": 3,
              "duration": 2.9479166666666665
            },
            {
              "pitch": 65,
              "velocity": 60,
              "position": 6,
              "duration": 1.825
            },
            {
              "pitch": 60,
              "velocity": 60,
              "position": 6,
              "duration": 2.825
            },
            {
              "pitch": 54,
              "velocity": 60,
              "position": 6,
              "duration": 2.825
            },
            {
              "pitch": 58,
              "velocity": 60,
              "position": 6,
              "duration": 2.825
            },
            {
              "pitch": 44,
              "velocity": 60,
              "position": 6,
              "duration": 2.8666666666666667
            },
            {
              "pitch": 63,
              "velocity": 60,
              "position": 8,
              "duration": 0.9895833333333334
            },
            {
              "pitch": 63,
              "velocity": 60,
              "position": 9,
              "duration": 1.6145833333333333
            },
            {
              "pitch": 43,
              "velocity": 60,
              "position": 9,
              "duration": 2.8666666666666667
            },
            {
              "pitch": 53,
              "velocity": 60,
              "position": 9,
              "duration": 2.8666666666666667
            },
            {
              "pitch": 59,
              "velocity": 60,
              "position": 9,
              "duration": 2.8666666666666667
            },
            {
              "pitch": 67,
              "velocity": 60,
              "position": 9,
              "duration": 2.9479166666666665
            },
            {
              "pitch": 62,
              "velocity": 60,
              "position": 11,
              "duration": 0.9895833333333334
            },
            {
              "pitch": 39,
              "velocity": 60,
              "position": 12,
              "duration": 2.8666666666666667
            },
            {
              "pitch": 67,
              "velocity": 60,
              "position": 12,
              "duration": 2.8666666666666667
            },
            {
              "pitch": 62,
              "velocity": 60,
              "position": 12,
              "duration": 2.8666666666666667
            },
            {
              "pitch": 58,
              "velocity": 60,
              "position": 12,
              "duration": 2.8666666666666667
            },
            {
              "pitch": 53,
              "velocity": 60,
              "position": 12,
              "duration": 2.8666666666666667
            },
            {
              "pitch": 44,
              "velocity": 60,
              "position": 15,
              "duration": 2.8666666666666667
            },
            {
              "pitch": 67,
              "velocity": 60,
              "position": 15,
              "duration": 2.8666666666666667
            },
            {
              "pitch": 63,
              "velocity": 60,
              "position": 15,
              "duration": 2.8666666666666667
            },
            {
              "pitch": 60,
              "velocity": 60,
              "position": 15,
              "duration": 2.8666666666666667
            },
            {
              "pitch": 55,
              "velocity": 60,
              "position": 15,
              "duration": 2.8666666666666667
            },
            {
              "pitch": 54,
              "velocity": 60,
              "position": 18,
              "duration": 1.4916666666666667
            },
            {
              "pitch": 65,
              "velocity": 60,
              "position": 18,
              "duration": 1.4916666666666667
            },
            {
              "pitch": 62,
              "velocity": 60,
              "position": 18,
              "duration": 1.4916666666666667
            },
            {
              "pitch": 58,
              "velocity": 60,
              "position": 18,
              "duration": 1.4916666666666667
            },
            {
              "pitch": 38,
              "velocity": 60,
              "position": 18,
              "duration": 2.8666666666666667
            },
            {
              "pitch": 65,
              "velocity": 60,
              "position": 19.625,
              "duration": 1.2416666666666667
            },
            {
              "pitch": 60,
              "velocity": 60,
              "position": 19.625,
              "duration": 1.2416666666666667
            },
            {
              "pitch": 58,
              "velocity": 60,
              "position": 19.625,
              "duration": 1.2416666666666667
            },
            {
              "pitch": 54,
              "velocity": 60,
              "position": 19.625,
              "duration": 1.2416666666666667
            },
            {
              "pitch": 43,
              "velocity": 60,
              "position": 21,
              "duration": 2.85625
            },
            {
              "pitch": 67,
              "velocity": 60,
              "position": 21,
              "duration": 2.8666666666666667
            },
            {
              "pitch": 62,
              "velocity": 60,
              "position": 21,
              "duration": 2.8666666666666667
            },
            {
              "pitch": 59,
              "velocity": 60,
              "position": 21,
              "duration": 2.8666666666666667
            },
            {
              "pitch": 53,
              "velocity": 60,
              "position": 21,
              "duration": 2.8666666666666667
            }
          ]
        },
        "9": {
          "ctab": {
            "srcChannel": 9,
            "name": "Drs",
            "accType": "RHYTHM",
            "editable": false,
            "mutedNotes": [],
            "mutedChords": [],
            "autoStart": true,
            "sourceChordNote": 0,
            "sourceChordType": "Maj7",
            "ctb2Low": null,
            "ctb2Main": {
              "ntr": "ROOT_FIXED",
              "ntt": "BYPASS",
              "bassOn": false,
              "chordRootUpperLimit": 6,
              "noteLowLimit": 0,
              "noteHighLimit": 127,
              "rtr": "PITCH_SHIFT"
            },
            "ctb2High": null
          },
          "notes": [
            {
              "pitch": 33,
              "velocity": 34,
              "position": 0,
              "duration": 0.010416666666666666
            },
            {
              "pitch": 53,
              "velocity": 29,
              "position": 0,
              "duration": 0.010416666666666666
            },
            {
              "pitch": 27,
              "velocity": 70,
              "position": 0.6666666666666666,
              "duration": 0.010416666666666666
            },
            {
              "pitch": 26,
              "velocity": 36,
              "position": 0,
              "duration": 1
            },
            {
              "pitch": 44,
              "velocity": 30,
              "position": 1,
              "duration": 0.010416666666666666
            },
            {
              "pitch": 59,
              "velocity": 33,
              "position": 1,
              "duration": 0.010416666666666666
            },
            {
              "pitch": 25,
              "velocity": 20,
              "position": 1.6666666666666667,
              "duration": 0.010416666666666666
            },
            {
              "pitch": 53,
              "velocity": 20,
              "position": 1.6666666666666667,
              "duration": 0.010416666666666666
            },
            {
              "pitch": 26,
              "velocity": 16,
              "position": 1,
              "duration": 1
            },
            {
              "pitch": 44,
              "velocity": 37,
              "position": 2,
              "duration": 0.010416666666666666
            },
            {
              "pitch": 59,
              "velocity": 33,
              "position": 2,
              "duration": 0.010416666666666666
            },
            {
              "pitch": 33,
              "velocity": 34,
              "position": 2.6666666666666665,
              "duration": 0.010416666666666666
            },
            {
              "pitch": 28,
              "velocity": 29,
              "position": 2,
              "duration": 1
            },
            {
              "pitch": 33,
              "velocity": 34,
              "position": 3,
              "duration": 0.010416666666666666
            },
            {
              "pitch": 53,
              "velocity": 33,
              "position": 3,
              "duration": 0.010416666666666666
            },
            {
              "pitch": 25,
              "velocity": 70,
              "position": 3.6666666666666665,
              "duration": 0.010416666666666666
            },
            {
              "pitch": 26,
              "velocity": 36,
              "position": 3,
              "duration": 1
            },
            {
              "pitch": 44,
              "velocity": 30,
              "position": 4,
              "duration": 0.010416666666666666
            },
            {
              "pitch": 59,
              "velocity": 33,
              "position": 4,
              "duration": 0.010416666666666666
            },
            {
              "pitch": 25,
              "velocity": 20,
              "position": 4.666666666666667,
              "duration": 0.010416666666666666
            },
            {
              "pitch": 53,
              "velocity": 20,
              "position": 4.666666666666667,
              "duration": 0.010416666666666666
            },
            {
              "pitch": 26,
              "velocity": 16,
              "position": 4,
              "duration": 1
            },
            {
              "pitch": 44,
              "velocity": 37,
              "position": 5,
              "duration": 0.010416666666666666
            },
            {
              "pitch": 59,
              "velocity": 33,
              "position": 5,
              "duration": 0.010416666666666666
            },
            {
              "pitch": 25,
              "velocity": 20,
              "position": 5.666666666666667,
              "duration": 0.010416666666666666
            },
            {
              "pitch": 28,
              "velocity": 29,
              "position": 5,
              "duration": 1
            },
            {
              "pitch": 33,
              "velocity": 34,
              "position": 6,
              "duration": 0.010416666666666666
            },
            {
              "pitch": 59,
              "velocity": 33,
              "position": 6,
              "duration": 0.010416666666666666
            },
            {
              "pitch": 25,
              "velocity": 70,
              "position": 6.666666666666667,
              "duration": 0.010416666666666666
            },
            {
              "pitch": 27,
              "velocity": 70,
              "position": 6.666666666666667,
              "duration": 0.010416666666666666
            },
            {
              "pitch": 26,
              "velocity": 36,
              "position": 6,
              "duration": 1
            },
            {
              "pitch": 44,
              "velocity": 30,
              "position": 7,
              "duration": 0.010416666666666666
            },
            {
              "pitch": 59,
              "velocity": 33,
              "position": 7,
              "duration": 0.010416666666666666
            },
            {
              "pitch": 53,
              "velocity": 20,
              "position": 7.666666666666667,
              "duration": 0.010416666666666666
            },
            {
              "pitch": 26,
              "velocity": 16,
              "position": 7,
              "duration": 1
            },
            {
              "pitch": 44,
              "velocity": 37,
              "position": 8,
              "duration": 0.010416666666666666
            },
            {
              "pitch": 59,
              "velocity": 33,
              "position": 8,
              "duration": 0.010416666666666666
            },
            {
              "pitch": 33,
              "velocity": 34,
              "position": 8.666666666666666,
              "duration": 0.010416666666666666
            },
            {
              "pitch": 28,
              "velocity": 29,
              "position": 8,
              "duration": 1
            },
            {
              "pitch": 33,
              "velocity": 34,
              "position": 9,
              "duration": 0.010416666666666666
            },
            {
              "pitch": 53,
              "velocity": 33,
              "position": 9,
              "duration": 0.010416666666666666
            },
            {
              "pitch": 25,
              "velocity": 70,
              "position": 9.666666666666666,
              "duration": 0.010416666666666666
            },
            {
              "pitch": 26,
              "velocity": 36,
              "position": 9,
              "duration": 1
            },
            {
              "pitch": 44,
              "velocity": 30,
              "position": 10,
              "duration": 0.010416666666666666
            },
            {
              "pitch": 59,
              "velocity": 33,
              "position": 10,
              "duration": 0.010416666666666666
            },
            {
              "pitch": 25,
              "velocity": 20,
              "position": 10.666666666666666,
              "duration": 0.010416666666666666
            },
            {
              "pitch": 53,
              "velocity": 20,
              "position": 10.666666666666666,
              "duration": 0.010416666666666666
            },
            {
              "pitch": 26,
              "velocity": 16,
              "position": 10,
              "duration": 1
            },
            {
              "pitch": 44,
              "velocity": 37,
              "position": 11,
              "duration": 0.010416666666666666
            },
            {
              "pitch": 59,
              "velocity": 33,
              "position": 11,
              "duration": 0.010416666666666666
            },
            {
              "pitch": 25,
              "velocity": 20,
              "position": 11.666666666666666,
              "duration": 0.010416666666666666
            },
            {
              "pitch": 28,
              "velocity": 29,
              "position": 11,
              "duration": 1
            },
            {
              "pitch": 33,
              "velocity": 34,
              "position": 12,
              "duration": 0.010416666666666666
            },
            {
              "pitch": 59,
              "velocity": 33,
              "position": 12,
              "duration": 0.010416666666666666
            },
            {
              "pitch": 27,
              "velocity": 70,
              "position": 12.666666666666666,
              "duration": 0.010416666666666666
            },
            {
              "pitch": 26,
              "velocity": 36,
              "position": 12,
              "duration": 1
            },
            {
              "pitch": 44,
              "velocity": 30,
              "position": 13,
              "duration": 0.010416666666666666
            },
            {
              "pitch": 59,
              "velocity": 33,
              "position": 13,
              "duration": 0.010416666666666666
            },
            {
              "pitch": 25,
              "velocity": 20,
              "position": 13.666666666666666,
              "duration": 0.010416666666666666
            },
            {
              "pitch": 53,
              "velocity": 20,
              "position": 13.666666666666666,
              "duration": 0.010416666666666666
            },
            {
              "pitch": 26,
              "velocity": 16,
              "position": 13,
              "duration": 1
            },
            {
              "pitch": 44,
              "velocity": 37,
              "position": 14,
              "duration": 0.010416666666666666
            },
            {
              "pitch": 59,
              "velocity": 33,
              "position": 14,
              "duration": 0.010416666666666666
            },
            {
              "pitch": 33,
              "velocity": 34,
              "position": 14.666666666666666,
              "duration": 0.010416666666666666
            },
            {
              "pitch": 28,
              "velocity": 29,
              "position": 14,
              "duration": 1
            },
            {
              "pitch": 33,
              "velocity": 34,
              "position": 15,
              "duration": 0.010416666666666666
            },
            {
              "pitch": 53,
              "velocity": 33,
              "position": 15,
              "duration": 0.010416666666666666
            },
            {
              "pitch": 25,
              "velocity": 70,
              "position": 15.666666666666666,
              "duration": 0.010416666666666666
            },
            {
              "pitch": 26,
              "velocity": 36,
              "position": 15,
              "duration": 1
            },
            {
              "pitch": 44,
              "velocity": 30,
              "position": 16,
              "duration": 0.010416666666666666
            },
            {
              "pitch": 59,
              "velocity": 33,
              "position": 16,
              "duration": 0.010416666666666666
            },
            {
              "pitch": 25,
              "velocity": 20,
              "position": 16.666666666666668,
              "duration": 0.010416666666666666
            },
            {
              "pitch": 53,
              "velocity": 20,
              "position": 16.666666666666668,
              "duration": 0.010416666666666666
            },
            {
              "pitch": 26,
              "velocity": 16,
              "position": 16,
              "duration": 1
            },
            {
              "pitch": 44,
              "velocity": 37,
              "position": 17,
              "duration": 0.010416666666666666
            },
            {
              "pitch": 59,
              "velocity": 33,
              "position": 17,
              "duration": 0.010416666666666666
            },
            {
              "pitch": 25,
              "velocity": 20,
              "position": 17.666666666666668,
              "duration": 0.010416666666666666
            },
            {
              "pitch": 28,
              "velocity": 29,
              "position": 17,
              "duration": 1
            },
            {
              "pitch": 33,
              "velocity": 34,
              "position": 18,
              "duration": 0.010416666666666666
            },
            {
              "pitch": 59,
              "velocity": 33,
              "position": 18,
              "duration": 0.010416666666666666
            },
            {
              "pitch": 25,
              "velocity": 70,
              "position": 18.666666666666668,
              "duration": 0.010416666666666666
            },
            {
              "pitch": 26,
              "velocity": 36,
              "position": 18,
              "duration": 1
            },
            {
              "pitch": 44,
              "velocity": 30,
              "position": 19,
              "duration": 0.010416666666666666
            },
            {
              "pitch": 59,
              "velocity": 33,
              "position": 19,
              "duration": 0.010416666666666666
            },
            {
              "pitch": 25,
              "velocity": 20,
              "position": 19.333333333333332,
              "duration": 0.010416666666666666
            },
            {
              "pitch": 40,
              "velocity": 70,
              "position": 19.666666666666668,
              "duration": 0.010416666666666666
            },
            {
              "pitch": 51,
              "velocity": 56,
              "position": 19.666666666666668,
              "duration": 0.010416666666666666
            },
            {
              "pitch": 26,
              "velocity": 16,
              "position": 19,
              "duration": 1
            },
            {
              "pitch": 44,
              "velocity": 37,
              "position": 20,
              "duration": 0.010416666666666666
            },
            {
              "pitch": 25,
              "velocity": 47,
              "position": 20.333333333333332,
              "duration": 0.010416666666666666
            },
            {
              "pitch": 33,
              "velocity": 34,
              "position": 20.666666666666668,
              "duration": 0.010416666666666666
            },
            {
              "pitch": 28,
              "velocity": 29,
              "position": 20,
              "duration": 1
            },
            {
              "pitch": 33,
              "velocity": 50,
              "position": 21,
              "duration": 0.010416666666666666
            },
            {
              "pitch": 57,
              "velocity": 36,
              "position": 21,
              "duration": 0.010416666666666666
            },
            {
              "pitch": 26,
              "velocity": 36,
              "position": 21,
              "duration": 1
            },
            {
              "pitch": 44,
              "velocity": 30,
              "position": 22,
              "duration": 0.010416666666666666
            },
            {
              "pitch": 47,
              "velocity": 43,
              "position": 22.666666666666668,
              "duration": 0.010416666666666666
            },
            {
              "pitch": 26,
              "velocity": 16,
              "position": 22,
              "duration": 1
            },
            {
              "pitch": 44,
              "velocity": 37,
              "position": 23,
              "duration": 0.010416666666666666
            },
            {
              "pitch": 25,
              "velocity": 45,
              "position": 23.333333333333332,
              "duration": 0.010416666666666666
            },
            {
              "pitch": 40,
              "velocity": 70,
              "position": 23.666666666666668,
              "duration": 0.010416666666666666
            },
            {
              "pitch": 28,
              "velocity": 29,
              "position": 23,
              "duration": 1
            },
            {
              "pitch": 57,
              "velocity": 36,
              "position": 23.989583333333332,
              "duration": 0.010416666666666666
            }
          ]
        },
        "10": {
          "ctab": {
            "srcChannel": 10,
            "name": "Bass",
            "accType": "BASS",
            "editable": false,
            "mutedNotes": [],
            "mutedChords": [
              "dim7",
              "dim",
              "minMaj7(9)",
              "minMaj7",
              "min7(11)",
              "min7(9)",
              "min(9)",
              "m7b5",
              "min7",
              "min6",
              "min"
            ],
            "autoStart": false,
            "sourceChordNote": 0,
            "sourceChordType": "Maj",
            "ctb2Low": null,
            "ctb2Main": {
              "ntr": "ROOT_TRANSPOSITION",
              "ntt": "BYPASS",
              "bassOn": false,
              "chordRootUpperLimit": 8,
              "noteLowLimit": 28,
              "noteHighLimit": 127,
              "rtr": "PITCH_SHIFT"
            },
            "ctb2High": null
          },
          "notes": [
            {
              "pitch": 24,
              "velocity": 50,
              "position": 0.010416666666666666,
              "duration": 2.3125
            },
            {
              "pitch": 26,
              "velocity": 100,
              "position": 2.3333333333333335,
              "duration": 0.3229166666666667
            },
            {
              "pitch": 27,
              "velocity": 100,
              "position": 2.6666666666666665,
              "duration": 0.3229166666666667
            },
            {
              "pitch": 28,
              "velocity": 50,
              "position": 3,
              "duration": 2.65625
            },
            {
              "pitch": 28,
              "velocity": 100,
              "position": 5.666666666666667,
              "duration": 0.3229166666666667
            },
            {
              "pitch": 29,
              "velocity": 50,
              "position": 6,
              "duration": 1.65625
            },
            {
              "pitch": 29,
              "velocity": 100,
              "position": 7.666666666666667,
              "duration": 0.40625
            },
            {
              "pitch": 31,
              "velocity": 50,
              "position": 8,
              "duration": 0.9895833333333334
            },
            {
              "pitch": 33,
              "velocity": 50,
              "position": 9,
              "duration": 1.5729166666666667
            },
            {
              "pitch": 25,
              "velocity": 50,
              "position": 10.583333333333334,
              "duration": 1.40625
            },
            {
              "pitch": 26,
              "velocity": 50,
              "position": 12,
              "duration": 2.65625
            },
            {
              "pitch": 26,
              "velocity": 100,
              "position": 14.666666666666666,
              "duration": 0.3229166666666667
            },
            {
              "pitch": 28,
              "velocity": 50,
              "position": 15,
              "duration": 2.65625
            },
            {
              "pitch": 28,
              "velocity": 100,
              "position": 17.666666666666668,
              "duration": 0.3229166666666667
            },
            {
              "pitch": 29,
              "velocity": 50,
              "position": 18,
              "duration": 1.5729166666666667
            },
            {
              "pitch": 29,
              "velocity": 50,
              "position": 19.583333333333332,
              "duration": 1.0729166666666667
            },
            {
              "pitch": 29,
              "velocity": 100,
              "position": 20.666666666666668,
              "duration": 0.3229166666666667
            },
            {
              "pitch": 31,
              "velocity": 50,
              "position": 21,
              "duration": 1.65625
            },
            {
              "pitch": 26,
              "velocity": 100,
              "position": 22.666666666666668,
              "duration": 0.3229166666666667
            },
            {
              "pitch": 31,
              "velocity": 40,
              "position": 23,
              "duration": 0.9895833333333334
            }
          ]
        },
        "11": {
          "ctab": {
            "srcChannel": 11,
            "name": "Bass",
            "accType": "BASS",
            "editable": false,
            "mutedNotes": [],
            "mutedChords": [
              "1+2+5",
              "sus4",
              "1+5",
              "1+8",
              "7aug",
              "Maj7aug",
              "7(#9)",
              "7(b13)",
              "7(b9)",
              "7(13)",
              "7#11",
              "7(9)",
              "7b5",
              "7sus4",
              "7th",
              "aug",
              "Maj6(9)",
              "Maj7(9)",
              "Maj(9)",
              "Maj7#11",
              "Maj7",
              "Maj6",
              "Maj"
            ],
            "autoStart": false,
            "sourceChordNote": 0,
            "sourceChordType": "min",
            "ctb2Low": null,
            "ctb2Main": {
              "ntr": "ROOT_TRANSPOSITION",
              "ntt": "BYPASS",
              "bassOn": false,
              "chordRootUpperLimit": 8,
              "noteLowLimit": 28,
              "noteHighLimit": 127,
              "rtr": "PITCH_SHIFT"
            },
            "ctb2High": null
          },
          "notes": [
            {
              "pitch": 24,
              "velocity": 50,
              "position": 0.010416666666666666,
              "duration": 2.3125
            },
            {
              "pitch": 25,
              "velocity": 100,
              "position": 2.3333333333333335,
              "duration": 0.3229166666666667
            },
            {
              "pitch": 26,
              "velocity": 100,
              "position": 2.6666666666666665,
              "duration": 0.3229166666666667
            },
            {
              "pitch": 27,
              "velocity": 50,
              "position": 3,
              "duration": 2.65625
            },
            {
              "pitch": 27,
              "velocity": 100,
              "position": 5.666666666666667,
              "duration": 0.3229166666666667
            },
            {
              "pitch": 32,
              "velocity": 50,
              "position": 6,
              "duration": 1.65625
            },
            {
              "pitch": 32,
              "velocity": 100,
              "position": 7.666666666666667,
              "duration": 0.3229166666666667
            },
            {
              "pitch": 27,
              "velocity": 50,
              "position": 8,
              "duration": 0.9895833333333334
            },
            {
              "pitch": 31,
              "velocity": 50,
              "position": 9,
              "duration": 1.65625
            },
            {
              "pitch": 26,
              "velocity": 100,
              "position": 10.666666666666666,
              "duration": 0.3229166666666667
            },
            {
              "pitch": 29,
              "velocity": 50,
              "position": 11,
              "duration": 0.9895833333333334
            },
            {
              "pitch": 27,
              "velocity": 50,
              "position": 12,
              "duration": 1.5729166666666667
            },
            {
              "pitch": 31,
              "velocity": 50,
              "position": 13.583333333333334,
              "duration": 1.0729166666666667
            },
            {
              "pitch": 31,
              "velocity": 100,
              "position": 14.666666666666666,
              "duration": 0.3229166666666667
            },
            {
              "pitch": 32,
              "velocity": 50,
              "position": 15,
              "duration": 1.5729166666666667
            },
            {
              "pitch": 27,
              "velocity": 50,
              "position": 16.583333333333332,
              "duration": 1.0729166666666667
            },
            {
              "pitch": 27,
              "velocity": 100,
              "position": 17.666666666666668,
              "duration": 0.3229166666666667
            },
            {
              "pitch": 26,
              "velocity": 50,
              "position": 18,
              "duration": 1.5729166666666667
            },
            {
              "pitch": 32,
              "velocity": 50,
              "position": 19.583333333333332,
              "duration": 1.0729166666666667
            },
            {
              "pitch": 32,
              "velocity": 100,
              "position": 20.666666666666668,
              "duration": 0.3229166666666667
            },
            {
              "pitch": 31,
              "velocity": 50,
              "position": 21,
              "duration": 1.65625
            },
            {
              "pitch": 26,
              "velocity": 100,
              "position": 22.666666666666668,
              "duration": 0.3229166666666667
            },
            {
              "pitch": 31,
              "velocity": 40,
              "position": 23,
              "duration": 0.9895833333333334
            }
          ]
        },
        "12": {
          "ctab": {
            "srcChannel": 12,
            "name": "Pad",
            "accType": "PAD",
            "editable": false,
            "mutedNotes": [],
            "mutedChords": [
              "dim7",
              "dim",
              "minMaj7(9)",
              "minMaj7",
              "min7(11)",
              "min7(9)",
              "min(9)",
              "m7b5",
              "min7",
              "min6",
              "min"
            ],
            "autoStart": false,
            "sourceChordNote": 0,
            "sourceChordType": "Maj",
            "ctb2Low": null,
            "ctb2Main": {
              "ntr": "ROOT_TRANSPOSITION",
              "ntt": "BYPASS",
              "bassOn": false,
              "chordRootUpperLimit": 8,
              "noteLowLimit": 54,
              "noteHighLimit": 65,
              "rtr": "PITCH_SHIFT"
            },
            "ctb2High": null
          },
          "notes": []
        },
        "13": {
          "ctab": {
            "srcChannel": 13,
            "name": "Pad",
            "accType": "PAD",
            "editable": false,
            "mutedNotes": [],
            "mutedChords": [
              "1+2+5",
              "sus4",
              "1+5",
              "1+8",
              "7aug",
              "Maj7aug",
              "7(#9)",
              "7(b13)",
              "7(b9)",
              "7(13)",
              "7#11",
              "7(9)",
              "7b5",
              "7sus4",
              "7th",
              "aug",
              "Maj6(9)",
              "Maj7(9)",
              "Maj(9)",
              "Maj7#11",
              "Maj7",
              "Maj6",
              "Maj"
            ],
            "autoStart": false,
            "sourceChordNote": 0,
            "sourceChordType": "min",
            "ctb2Low": null,
            "ctb2Main": {
              "ntr": "ROOT_TRANSPOSITION",
              "ntt": "BYPASS",
              "bassOn": false,
              "chordRootUpperLimit": 8,
              "noteLowLimit": 54,
              "noteHighLimit": 65,
              "rtr": "PITCH_SHIFT"
            },
            "ctb2High": null
          },
          "notes": []
        }
      }
    },
    "Ending_C": {
      "type": "Ending_C",
      "sizeInBeats": 24,
      "channels": {
        "0": {
          "ctab": {
            "srcChannel": 0,
            "name": "Gt a",
            "accType": "CHORD1",
            "editable": false,
            "mutedNotes": [
              7,
              6,
              5,
              4,
              3,
              2
            ],
            "mutedChords": [
              "dim7",
              "dim",
              "minMaj7(9)",
              "minMaj7",
              "min7(11)",
              "min7(9)",
              "min(9)",
              "m7b5",
              "min7",
              "min6",
              "min"
            ],
            "autoStart": false,
            "sourceChordNote": 0,
            "sourceChordType": "Maj",
            "ctb2Low": null,
            "ctb2Main": {
              "ntr": "ROOT_TRANSPOSITION",
              "ntt": "BYPASS",
              "bassOn": false,
              "chordRootUpperLimit": 7,
              "noteLowLimit": 0,
              "noteHighLimit": 127,
              "rtr": "PITCH_SHIFT"
            },
            "ctb2High": null
          },
          "notes": [
            {
              "pitch": 59,
              "velocity": 41,
              "position": 0.010416666666666666,
              "duration": 2.714583333333333
            },
            {
              "pitch": 69,
              "velocity": 77,
              "position": 0.05625,
              "duration": 2.66875
            },
            {
              "pitch": 64,
              "velocity": 60,
              "position": 0.03333333333333333,
              "duration": 2.691666666666667
            },
            {
              "pitch": 74,
              "velocity": 104,
              "position": 0,
              "duration": 2.7291666666666665
            },
            {
              "pitch": 71,
              "velocity": 101,
              "position": 3.0416666666666665,
              "duration": 1.96875
            },
            {
              "pitch": 72,
              "velocity": 97,
              "position": 4.947916666666667,
              "duration": 0.8854166666666666
            },
            {
              "pitch": 62,
              "velocity": 63,
              "position": 3.027083333333333,
              "duration": 2.875
            },
            {
              "pitch": 67,
              "velocity": 80,
              "position": 3,
              "duration": 2.902083333333333
            },
            {
              "pitch": 56,
              "velocity": 44,
              "position": 3.03125,
              "duration": 2.8916666666666666
            },
            {
              "pitch": 62,
              "velocity": 64,
              "position": 5.96875,
              "duration": 1.3229166666666667
            },
            {
              "pitch": 67,
              "velocity": 82,
              "position": 6.0375,
              "duration": 1.2541666666666667
            },
            {
              "pitch": 71,
              "velocity": 104,
              "position": 6.027083333333334,
              "duration": 1.2645833333333334
            },
            {
              "pitch": 57,
              "velocity": 37,
              "position": 5.983333333333333,
              "duration": 1.3083333333333333
            },
            {
              "pitch": 60,
              "velocity": 49,
              "position": 7.59375,
              "duration": 1.10625
            },
            {
              "pitch": 57,
              "velocity": 33,
              "position": 7.6625,
              "duration": 1.0375
            },
            {
              "pitch": 69,
              "velocity": 84,
              "position": 7.625,
              "duration": 1.075
            },
            {
              "pitch": 65,
              "velocity": 62,
              "position": 7.60625,
              "duration": 1.09375
            },
            {
              "pitch": 67,
              "velocity": 83,
              "position": 9,
              "duration": 1.2958333333333334
            },
            {
              "pitch": 72,
              "velocity": 96,
              "position": 9.03125,
              "duration": 1.2645833333333334
            },
            {
              "pitch": 57,
              "velocity": 37,
              "position": 9.025,
              "duration": 1.2708333333333333
            },
            {
              "pitch": 64,
              "velocity": 62,
              "position": 9.004166666666666,
              "duration": 1.2916666666666667
            },
            {
              "pitch": 62,
              "velocity": 61,
              "position": 10.595833333333333,
              "duration": 1.0625
            },
            {
              "pitch": 59,
              "velocity": 50,
              "position": 10.6625,
              "duration": 0.9958333333333333
            },
            {
              "pitch": 71,
              "velocity": 83,
              "position": 10.61875,
              "duration": 1.0395833333333333
            },
            {
              "pitch": 53,
              "velocity": 28,
              "position": 10.608333333333333,
              "duration": 1.05
            },
            {
              "pitch": 67,
              "velocity": 61,
              "position": 10.595833333333333,
              "duration": 1.0625
            },
            {
              "pitch": 52,
              "velocity": 26,
              "position": 11.958333333333334,
              "duration": 10.03125
            },
            {
              "pitch": 59,
              "velocity": 57,
              "position": 12.025,
              "duration": 9.964583333333334
            },
            {
              "pitch": 62,
              "velocity": 82,
              "position": 12.020833333333334,
              "duration": 9.96875
            },
            {
              "pitch": 67,
              "velocity": 102,
              "position": 12.014583333333333,
              "duration": 9.975
            }
          ]
        },
        "1": {
          "ctab": {
            "srcChannel": 1,
            "name": "Gt b",
            "accType": "CHORD1",
            "editable": false,
            "mutedNotes": [
              11,
              10,
              9,
              8,
              1,
              0
            ],
            "mutedChords": [
              "dim7",
              "dim",
              "minMaj7(9)",
              "minMaj7",
              "min7(11)",
              "min7(9)",
              "min(9)",
              "m7b5",
              "min7",
              "min6",
              "min"
            ],
            "autoStart": false,
            "sourceChordNote": 0,
            "sourceChordType": "Maj",
            "ctb2Low": null,
            "ctb2Main": {
              "ntr": "ROOT_TRANSPOSITION",
              "ntt": "BYPASS",
              "bassOn": false,
              "chordRootUpperLimit": 8,
              "noteLowLimit": 0,
              "noteHighLimit": 127,
              "rtr": "PITCH_SHIFT"
            },
            "ctb2High": null
          },
          "notes": [
            {
              "pitch": 55,
              "velocity": 41,
              "position": 0.010416666666666666,
              "duration": 2.38125
            },
            {
              "pitch": 62,
              "velocity": 77,
              "position": 0.05625,
              "duration": 2.3354166666666667
            },
            {
              "pitch": 59,
              "velocity": 60,
              "position": 0.03333333333333333,
              "duration": 2.3583333333333334
            },
            {
              "pitch": 67,
              "velocity": 104,
              "position": 0,
              "duration": 2.3958333333333335
            },
            {
              "pitch": 65,
              "velocity": 101,
              "position": 3.0416666666666665,
              "duration": 1.84375
            },
            {
              "pitch": 56,
              "velocity": 63,
              "position": 3.027083333333333,
              "duration": 2.5416666666666665
            },
            {
              "pitch": 60,
              "velocity": 80,
              "position": 3,
              "duration": 2.56875
            },
            {
              "pitch": 50,
              "velocity": 44,
              "position": 3.03125,
              "duration": 2.5375
            },
            {
              "pitch": 64,
              "velocity": 84,
              "position": 4.958333333333333,
              "duration": 0.7416666666666667
            },
            {
              "pitch": 57,
              "velocity": 64,
              "position": 5.96875,
              "duration": 1.3229166666666667
            },
            {
              "pitch": 60,
              "velocity": 82,
              "position": 6.0375,
              "duration": 1.2541666666666667
            },
            {
              "pitch": 64,
              "velocity": 104,
              "position": 6.027083333333334,
              "duration": 1.2645833333333334
            },
            {
              "pitch": 53,
              "velocity": 37,
              "position": 5.983333333333333,
              "duration": 1.3083333333333333
            },
            {
              "pitch": 57,
              "velocity": 49,
              "position": 7.59375,
              "duration": 1.10625
            },
            {
              "pitch": 53,
              "velocity": 33,
              "position": 7.6625,
              "duration": 1.0375
            },
            {
              "pitch": 65,
              "velocity": 84,
              "position": 7.625,
              "duration": 1.075
            },
            {
              "pitch": 62,
              "velocity": 62,
              "position": 7.60625,
              "duration": 1.09375
            },
            {
              "pitch": 62,
              "velocity": 83,
              "position": 9,
              "duration": 1.2958333333333334
            },
            {
              "pitch": 67,
              "velocity": 96,
              "position": 9.03125,
              "duration": 1.2645833333333334
            },
            {
              "pitch": 53,
              "velocity": 37,
              "position": 9.025,
              "duration": 1.2708333333333333
            },
            {
              "pitch": 60,
              "velocity": 62,
              "position": 9.004166666666666,
              "duration": 1.2916666666666667
            },
            {
              "pitch": 59,
              "velocity": 61,
              "position": 10.595833333333333,
              "duration": 1.0625
            },
            {
              "pitch": 53,
              "velocity": 50,
              "position": 10.6625,
              "duration": 0.9958333333333333
            },
            {
              "pitch": 64,
              "velocity": 83,
              "position": 10.61875,
              "duration": 1.0395833333333333
            },
            {
              "pitch": 43,
              "velocity": 28,
              "position": 10.608333333333333,
              "duration": 1.05
            },
            {
              "pitch": 48,
              "velocity": 27,
              "position": 11.958333333333334,
              "duration": 10.03125
            },
            {
              "pitch": 52,
              "velocity": 41,
              "position": 12.025,
              "duration": 9.964583333333334
            },
            {
              "pitch": 57,
              "velocity": 82,
              "position": 12.020833333333334,
              "duration": 9.96875
            },
            {
              "pitch": 62,
              "velocity": 102,
              "position": 12.014583333333333,
              "duration": 9.975
            }
          ]
        },
        "2": {
          "ctab": {
            "srcChannel": 2,
            "name": "Gt a",
            "accType": "CHORD1",
            "editable": false,
            "mutedNotes": [
              7,
              6,
              5,
              4,
              3,
              2
            ],
            "mutedChords": [
              "1+2+5",
              "sus4",
              "1+5",
              "1+8",
              "7aug",
              "Maj7aug",
              "7(#9)",
              "7(b13)",
              "7(b9)",
              "7(13)",
              "7#11",
              "7(9)",
              "7b5",
              "7sus4",
              "7th",
              "aug",
              "Maj6(9)",
              "Maj7(9)",
              "Maj(9)",
              "Maj7#11",
              "Maj7",
              "Maj6",
              "Maj"
            ],
            "autoStart": false,
            "sourceChordNote": 0,
            "sourceChordType": "min",
            "ctb2Low": null,
            "ctb2Main": {
              "ntr": "ROOT_TRANSPOSITION",
              "ntt": "BYPASS",
              "bassOn": false,
              "chordRootUpperLimit": 7,
              "noteLowLimit": 0,
              "noteHighLimit": 127,
              "rtr": "PITCH_SHIFT"
            },
            "ctb2High": null
          },
          "notes": [
            {
              "pitch": 60,
              "velocity": 41,
              "position": 0.010416666666666666,
              "duration": 2.714583333333333
            },
            {
              "pitch": 70,
              "velocity": 77,
              "position": 0.05625,
              "duration": 2.66875
            },
            {
              "pitch": 67,
              "velocity": 60,
              "position": 0.03333333333333333,
              "duration": 2.691666666666667
            },
            {
              "pitch": 75,
              "velocity": 104,
              "position": 0,
              "duration": 2.7291666666666665
            },
            {
              "pitch": 70,
              "velocity": 101,
              "position": 3.0416666666666665,
              "duration": 1.96875
            },
            {
              "pitch": 72,
              "velocity": 82,
              "position": 4.947916666666667,
              "duration": 0.8854166666666666
            },
            {
              "pitch": 61,
              "velocity": 63,
              "position": 3.027083333333333,
              "duration": 2.875
            },
            {
              "pitch": 65,
              "velocity": 80,
              "position": 3,
              "duration": 2.902083333333333
            },
            {
              "pitch": 55,
              "velocity": 44,
              "position": 3.03125,
              "duration": 2.8916666666666666
            },
            {
              "pitch": 60,
              "velocity": 64,
              "position": 5.96875,
              "duration": 1.3229166666666667
            },
            {
              "pitch": 65,
              "velocity": 82,
              "position": 6.0375,
              "duration": 1.2541666666666667
            },
            {
              "pitch": 70,
              "velocity": 104,
              "position": 6.027083333333334,
              "duration": 1.2645833333333334
            },
            {
              "pitch": 54,
              "velocity": 37,
              "position": 5.983333333333333,
              "duration": 1.3083333333333333
            },
            {
              "pitch": 60,
              "velocity": 49,
              "position": 7.59375,
              "duration": 1.10625
            },
            {
              "pitch": 54,
              "velocity": 33,
              "position": 7.6625,
              "duration": 1.0375
            },
            {
              "pitch": 68,
              "velocity": 84,
              "position": 7.625,
              "duration": 1.075
            },
            {
              "pitch": 65,
              "velocity": 62,
              "position": 7.60625,
              "duration": 1.09375
            },
            {
              "pitch": 63,
              "velocity": 83,
              "position": 9,
              "duration": 1.2958333333333334
            },
            {
              "pitch": 67,
              "velocity": 96,
              "position": 9.03125,
              "duration": 1.2645833333333334
            },
            {
              "pitch": 53,
              "velocity": 37,
              "position": 9.025,
              "duration": 1.2708333333333333
            },
            {
              "pitch": 59,
              "velocity": 62,
              "position": 9.004166666666666,
              "duration": 1.2916666666666667
            },
            {
              "pitch": 65,
              "velocity": 61,
              "position": 10.595833333333333,
              "duration": 1.0625
            },
            {
              "pitch": 62,
              "velocity": 50,
              "position": 10.6625,
              "duration": 0.9958333333333333
            },
            {
              "pitch": 71,
              "velocity": 83,
              "position": 10.61875,
              "duration": 1.0395833333333333
            },
            {
              "pitch": 55,
              "velocity": 28,
              "position": 10.608333333333333,
              "duration": 1.05
            },
            {
              "pitch": 55,
              "velocity": 43,
              "position": 11.958333333333334,
              "duration": 10.03125
            },
            {
              "pitch": 63,
              "velocity": 57,
              "position": 12.025,
              "duration": 9.964583333333334
            },
            {
              "pitch": 67,
              "velocity": 82,
              "position": 12.020833333333334,
              "duration": 9.96875
            },
            {
              "pitch": 72,
              "velocity": 102,
              "position": 12.014583333333333,
              "duration": 9.975
            }
          ]
        },
        "3": {
          "ctab": {
            "srcChannel": 3,
            "name": "Gt b",
            "accType": "CHORD1",
            "editable": false,
            "mutedNotes": [
              11,
              10,
              9,
              8,
              1,
              0
            ],
            "mutedChords": [
              "1+2+5",
              "sus4",
              "1+5",
              "1+8",
              "7aug",
              "Maj7aug",
              "7(#9)",
              "7(b13)",
              "7(b9)",
              "7(13)",
              "7#11",
              "7(9)",
              "7b5",
              "7sus4",
              "7th",
              "aug",
              "Maj6(9)",
              "Maj7(9)",
              "Maj(9)",
              "Maj7#11",
              "Maj7",
              "Maj6",
              "Maj"
            ],
            "autoStart": false,
            "sourceChordNote": 0,
            "sourceChordType": "min",
            "ctb2Low": null,
            "ctb2Main": {
              "ntr": "ROOT_TRANSPOSITION",
              "ntt": "BYPASS",
              "bassOn": false,
              "chordRootUpperLimit": 8,
              "noteLowLimit": 0,
              "noteHighLimit": 127,
              "rtr": "PITCH_SHIFT"
            },
            "ctb2High": null
          },
          "notes": [
            {
              "pitch": 55,
              "velocity": 41,
              "position": 0.010416666666666666,
              "duration": 2.714583333333333
            },
            {
              "pitch": 65,
              "velocity": 77,
              "position": 0.05625,
              "duration": 2.66875
            },
            {
              "pitch": 60,
              "velocity": 60,
              "position": 0.03333333333333333,
              "duration": 2.691666666666667
            },
            {
              "pitch": 70,
              "velocity": 104,
              "position": 0,
              "duration": 2.7291666666666665
            },
            {
              "pitch": 65,
              "velocity": 101,
              "position": 3.0416666666666665,
              "duration": 1.84375
            },
            {
              "pitch": 63,
              "velocity": 84,
              "position": 5.03125,
              "duration": 0.7395833333333334
            },
            {
              "pitch": 60,
              "velocity": 80,
              "position": 3,
              "duration": 2.7916666666666665
            },
            {
              "pitch": 49,
              "velocity": 44,
              "position": 3.03125,
              "duration": 2.7604166666666665
            },
            {
              "pitch": 55,
              "velocity": 63,
              "position": 3.027083333333333,
              "duration": 2.7645833333333334
            },
            {
              "pitch": 54,
              "velocity": 64,
              "position": 5.96875,
              "duration": 1.3229166666666667
            },
            {
              "pitch": 58,
              "velocity": 82,
              "position": 6.0375,
              "duration": 1.2541666666666667
            },
            {
              "pitch": 65,
              "velocity": 104,
              "position": 6.027083333333334,
              "duration": 1.2645833333333334
            },
            {
              "pitch": 48,
              "velocity": 37,
              "position": 5.983333333333333,
              "duration": 1.3083333333333333
            },
            {
              "pitch": 54,
              "velocity": 49,
              "position": 7.59375,
              "duration": 1.10625
            },
            {
              "pitch": 48,
              "velocity": 33,
              "position": 7.6625,
              "duration": 1.0375
            },
            {
              "pitch": 63,
              "velocity": 84,
              "position": 7.625,
              "duration": 1.075
            },
            {
              "pitch": 58,
              "velocity": 62,
              "position": 7.60625,
              "duration": 1.09375
            },
            {
              "pitch": 59,
              "velocity": 62,
              "position": 9.004166666666666,
              "duration": 1.2916666666666667
            },
            {
              "pitch": 63,
              "velocity": 96,
              "position": 9.03125,
              "duration": 1.2645833333333334
            },
            {
              "pitch": 53,
              "velocity": 37,
              "position": 9.025,
              "duration": 1.2708333333333333
            },
            {
              "pitch": 43,
              "velocity": 37,
              "position": 9.025,
              "duration": 1.2708333333333333
            },
            {
              "pitch": 43,
              "velocity": 28,
              "position": 10.608333333333333,
              "duration": 1.05
            },
            {
              "pitch": 62,
              "velocity": 50,
              "position": 10.6625,
              "duration": 0.9958333333333333
            },
            {
              "pitch": 59,
              "velocity": 50,
              "position": 10.6625,
              "duration": 0.9958333333333333
            },
            {
              "pitch": 53,
              "velocity": 28,
              "position": 10.608333333333333,
              "duration": 1.05
            },
            {
              "pitch": 51,
              "velocity": 43,
              "position": 11.958333333333334,
              "duration": 10.03125
            },
            {
              "pitch": 55,
              "velocity": 57,
              "position": 12.025,
              "duration": 9.964583333333334
            },
            {
              "pitch": 60,
              "velocity": 102,
              "position": 12.014583333333333,
              "duration": 9.975
            }
          ]
        },
        "4": {
          "ctab": {
            "srcChannel": 4,
            "name": "pf a",
            "accType": "CHORD2",
            "editable": false,
            "mutedNotes": [
              7,
              6,
              5,
              4,
              3,
              2
            ],
            "mutedChords": [
              "dim7",
              "dim",
              "minMaj7(9)",
              "minMaj7",
              "min7(11)",
              "min7(9)",
              "min(9)",
              "m7b5",
              "min7",
              "min6",
              "min"
            ],
            "autoStart": false,
            "sourceChordNote": 0,
            "sourceChordType": "Maj",
            "ctb2Low": null,
            "ctb2Main": {
              "ntr": "ROOT_TRANSPOSITION",
              "ntt": "BYPASS",
              "bassOn": false,
              "chordRootUpperLimit": 7,
              "noteLowLimit": 0,
              "noteHighLimit": 127,
              "rtr": "PITCH_SHIFT"
            },
            "ctb2High": null
          },
          "notes": [
            {
              "pitch": 55,
              "velocity": 60,
              "position": 0,
              "duration": 2.845833333333333
            },
            {
              "pitch": 79,
              "velocity": 60,
              "position": 0,
              "duration": 2.845833333333333
            },
            {
              "pitch": 74,
              "velocity": 60,
              "position": 0,
              "duration": 2.845833333333333
            },
            {
              "pitch": 69,
              "velocity": 60,
              "position": 0,
              "duration": 2.845833333333333
            },
            {
              "pitch": 64,
              "velocity": 60,
              "position": 0,
              "duration": 2.845833333333333
            },
            {
              "pitch": 59,
              "velocity": 60,
              "position": 0,
              "duration": 2.845833333333333
            },
            {
              "pitch": 71,
              "velocity": 60,
              "position": 3,
              "duration": 1.9479166666666667
            },
            {
              "pitch": 76,
              "velocity": 60,
              "position": 3,
              "duration": 2.845833333333333
            },
            {
              "pitch": 72,
              "velocity": 60,
              "position": 4.958333333333333,
              "duration": 0.8875
            },
            {
              "pitch": 62,
              "velocity": 60,
              "position": 3,
              "duration": 2.845833333333333
            },
            {
              "pitch": 67,
              "velocity": 60,
              "position": 3,
              "duration": 2.845833333333333
            },
            {
              "pitch": 56,
              "velocity": 60,
              "position": 3,
              "duration": 2.845833333333333
            },
            {
              "pitch": 62,
              "velocity": 60,
              "position": 6,
              "duration": 1.4708333333333334
            },
            {
              "pitch": 71,
              "velocity": 60,
              "position": 6,
              "duration": 1.4708333333333334
            },
            {
              "pitch": 67,
              "velocity": 60,
              "position": 6,
              "duration": 1.4708333333333334
            },
            {
              "pitch": 41,
              "velocity": 60,
              "position": 6,
              "duration": 2.845833333333333
            },
            {
              "pitch": 69,
              "velocity": 60,
              "position": 7.625,
              "duration": 1.2208333333333334
            },
            {
              "pitch": 65,
              "velocity": 60,
              "position": 7.625,
              "duration": 1.2208333333333334
            },
            {
              "pitch": 60,
              "velocity": 60,
              "position": 7.625,
              "duration": 1.2208333333333334
            },
            {
              "pitch": 57,
              "velocity": 60,
              "position": 6,
              "duration": 2.845833333333333
            },
            {
              "pitch": 60,
              "velocity": 60,
              "position": 9,
              "duration": 1.5125
            },
            {
              "pitch": 69,
              "velocity": 60,
              "position": 9,
              "duration": 1.6145833333333333
            },
            {
              "pitch": 64,
              "velocity": 60,
              "position": 9,
              "duration": 2.845833333333333
            },
            {
              "pitch": 67,
              "velocity": 60,
              "position": 10.625,
              "duration": 1.2208333333333334
            },
            {
              "pitch": 59,
              "velocity": 60,
              "position": 10.625,
              "duration": 1.2208333333333334
            },
            {
              "pitch": 43,
              "velocity": 60,
              "position": 9,
              "duration": 2.845833333333333
            },
            {
              "pitch": 53,
              "velocity": 60,
              "position": 9,
              "duration": 2.845833333333333
            },
            {
              "pitch": 36,
              "velocity": 60,
              "position": 12,
              "duration": 9.989583333333334
            },
            {
              "pitch": 71,
              "velocity": 60,
              "position": 12,
              "duration": 9.989583333333334
            },
            {
              "pitch": 67,
              "velocity": 60,
              "position": 12,
              "duration": 9.989583333333334
            },
            {
              "pitch": 62,
              "velocity": 60,
              "position": 12,
              "duration": 9.989583333333334
            },
            {
              "pitch": 59,
              "velocity": 60,
              "position": 12,
              "duration": 9.989583333333334
            },
            {
              "pitch": 52,
              "velocity": 60,
              "position": 12,
              "duration": 9.989583333333334
            }
          ]
        },
        "5": {
          "ctab": {
            "srcChannel": 5,
            "name": "pf b",
            "accType": "CHORD2",
            "editable": false,
            "mutedNotes": [
              11,
              10,
              9,
              8,
              1,
              0
            ],
            "mutedChords": [
              "dim7",
              "dim",
              "minMaj7(9)",
              "minMaj7",
              "min7(11)",
              "min7(9)",
              "min(9)",
              "m7b5",
              "min7",
              "min6",
              "min"
            ],
            "autoStart": false,
            "sourceChordNote": 0,
            "sourceChordType": "Maj",
            "ctb2Low": null,
            "ctb2Main": {
              "ntr": "ROOT_TRANSPOSITION",
              "ntt": "BYPASS",
              "bassOn": false,
              "chordRootUpperLimit": 8,
              "noteLowLimit": 0,
              "noteHighLimit": 127,
              "rtr": "PITCH_SHIFT"
            },
            "ctb2High": null
          },
          "notes": [
            {
              "pitch": 36,
              "velocity": 60,
              "position": 0,
              "duration": 2.8666666666666667
            },
            {
              "pitch": 71,
              "velocity": 60,
              "position": 0,
              "duration": 2.8666666666666667
            },
            {
              "pitch": 67,
              "velocity": 60,
              "position": 0,
              "duration": 2.8666666666666667
            },
            {
              "pitch": 62,
              "velocity": 60,
              "position": 0,
              "duration": 2.8666666666666667
            },
            {
              "pitch": 57,
              "velocity": 60,
              "position": 0,
              "duration": 2.8666666666666667
            },
            {
              "pitch": 52,
              "velocity": 60,
              "position": 0,
              "duration": 2.8666666666666667
            },
            {
              "pitch": 65,
              "velocity": 60,
              "position": 3,
              "duration": 1.9479166666666667
            },
            {
              "pitch": 56,
              "velocity": 60,
              "position": 3,
              "duration": 2.8666666666666667
            },
            {
              "pitch": 64,
              "velocity": 60,
              "position": 4.958333333333333,
              "duration": 0.9083333333333333
            },
            {
              "pitch": 62,
              "velocity": 60,
              "position": 3,
              "duration": 2.8666666666666667
            },
            {
              "pitch": 60,
              "velocity": 60,
              "position": 3,
              "duration": 2.8666666666666667
            },
            {
              "pitch": 40,
              "velocity": 60,
              "position": 3,
              "duration": 2.8666666666666667
            },
            {
              "pitch": 50,
              "velocity": 60,
              "position": 3,
              "duration": 2.8666666666666667
            },
            {
              "pitch": 55,
              "velocity": 60,
              "position": 6,
              "duration": 1.4916666666666667
            },
            {
              "pitch": 64,
              "velocity": 60,
              "position": 6,
              "duration": 1.4916666666666667
            },
            {
              "pitch": 60,
              "velocity": 60,
              "position": 6,
              "duration": 1.4916666666666667
            },
            {
              "pitch": 57,
              "velocity": 60,
              "position": 6,
              "duration": 1.4916666666666667
            },
            {
              "pitch": 41,
              "velocity": 60,
              "position": 6,
              "duration": 2.8666666666666667
            },
            {
              "pitch": 65,
              "velocity": 60,
              "position": 7.625,
              "duration": 1.2416666666666667
            },
            {
              "pitch": 62,
              "velocity": 60,
              "position": 7.625,
              "duration": 1.2416666666666667
            },
            {
              "pitch": 59,
              "velocity": 60,
              "position": 7.625,
              "duration": 1.2416666666666667
            },
            {
              "pitch": 55,
              "velocity": 60,
              "position": 7.625,
              "duration": 1.2416666666666667
            },
            {
              "pitch": 60,
              "velocity": 60,
              "position": 9,
              "duration": 1.6145833333333333
            },
            {
              "pitch": 72,
              "velocity": 60,
              "position": 9,
              "duration": 2.8666666666666667
            },
            {
              "pitch": 59,
              "velocity": 60,
              "position": 10.625,
              "duration": 1.2416666666666667
            },
            {
              "pitch": 53,
              "velocity": 60,
              "position": 9,
              "duration": 2.8666666666666667
            },
            {
              "pitch": 62,
              "velocity": 60,
              "position": 9,
              "duration": 2.8666666666666667
            },
            {
              "pitch": 43,
              "velocity": 60,
              "position": 9,
              "duration": 2.8666666666666667
            },
            {
              "pitch": 67,
              "velocity": 60,
              "position": 9,
              "duration": 2.9479166666666665
            },
            {
              "pitch": 36,
              "velocity": 60,
              "position": 12,
              "duration": 9.989583333333334
            },
            {
              "pitch": 67,
              "velocity": 60,
              "position": 12,
              "duration": 9.989583333333334
            },
            {
              "pitch": 62,
              "velocity": 60,
              "position": 12,
              "duration": 9.989583333333334
            },
            {
              "pitch": 59,
              "velocity": 60,
              "position": 12,
              "duration": 9.989583333333334
            },
            {
              "pitch": 52,
              "velocity": 60,
              "position": 12,
              "duration": 9.989583333333334
            }
          ]
        },
        "6": {
          "ctab": {
            "srcChannel": 6,
            "name": "pf a",
            "accType": "CHORD2",
            "editable": false,
            "mutedNotes": [
              7,
              6,
              5,
              4,
              3,
              2
            ],
            "mutedChords": [
              "1+2+5",
              "sus4",
              "1+5",
              "1+8",
              "7aug",
              "Maj7aug",
              "7(#9)",
              "7(b13)",
              "7(b9)",
              "7(13)",
              "7#11",
              "7(9)",
              "7b5",
              "7sus4",
              "7th",
              "aug",
              "Maj6(9)",
              "Maj7(9)",
              "Maj(9)",
              "Maj7#11",
              "Maj7",
              "Maj6",
              "Maj"
            ],
            "autoStart": false,
            "sourceChordNote": 0,
            "sourceChordType": "min",
            "ctb2Low": null,
            "ctb2Main": {
              "ntr": "ROOT_TRANSPOSITION",
              "ntt": "BYPASS",
              "bassOn": false,
              "chordRootUpperLimit": 7,
              "noteLowLimit": 0,
              "noteHighLimit": 127,
              "rtr": "PITCH_SHIFT"
            },
            "ctb2High": null
          },
          "notes": [
            {
              "pitch": 48,
              "velocity": 60,
              "position": 0,
              "duration": 2.8666666666666667
            },
            {
              "pitch": 74,
              "velocity": 60,
              "position": 0,
              "duration": 2.8666666666666667
            },
            {
              "pitch": 70,
              "velocity": 60,
              "position": 0,
              "duration": 2.8666666666666667
            },
            {
              "pitch": 67,
              "velocity": 60,
              "position": 0,
              "duration": 2.8666666666666667
            },
            {
              "pitch": 63,
              "velocity": 60,
              "position": 0,
              "duration": 2.8666666666666667
            },
            {
              "pitch": 58,
              "velocity": 60,
              "position": 0,
              "duration": 2.8666666666666667
            },
            {
              "pitch": 39,
              "velocity": 60,
              "position": 3,
              "duration": 2.8666666666666667
            },
            {
              "pitch": 72,
              "velocity": 60,
              "position": 3,
              "duration": 2.8666666666666667
            },
            {
              "pitch": 55,
              "velocity": 60,
              "position": 3,
              "duration": 2.8666666666666667
            },
            {
              "pitch": 61,
              "velocity": 60,
              "position": 3,
              "duration": 2.8666666666666667
            },
            {
              "pitch": 65,
              "velocity": 60,
              "position": 3,
              "duration": 2.9479166666666665
            },
            {
              "pitch": 54,
              "velocity": 60,
              "position": 6,
              "duration": 1.4916666666666667
            },
            {
              "pitch": 70,
              "velocity": 60,
              "position": 6,
              "duration": 1.4916666666666667
            },
            {
              "pitch": 65,
              "velocity": 60,
              "position": 6,
              "duration": 1.4916666666666667
            },
            {
              "pitch": 60,
              "velocity": 60,
              "position": 6,
              "duration": 1.4916666666666667
            },
            {
              "pitch": 44,
              "velocity": 60,
              "position": 6,
              "duration": 2.8666666666666667
            },
            {
              "pitch": 68,
              "velocity": 60,
              "position": 7.625,
              "duration": 1.2416666666666667
            },
            {
              "pitch": 65,
              "velocity": 60,
              "position": 7.625,
              "duration": 1.2416666666666667
            },
            {
              "pitch": 60,
              "velocity": 60,
              "position": 7.625,
              "duration": 1.2416666666666667
            },
            {
              "pitch": 54,
              "velocity": 60,
              "position": 7.625,
              "duration": 1.2416666666666667
            },
            {
              "pitch": 63,
              "velocity": 60,
              "position": 9,
              "duration": 1.4791666666666667
            },
            {
              "pitch": 67,
              "velocity": 60,
              "position": 9,
              "duration": 1.4791666666666667
            },
            {
              "pitch": 53,
              "velocity": 60,
              "position": 9,
              "duration": 2.8666666666666667
            },
            {
              "pitch": 71,
              "velocity": 60,
              "position": 10.625,
              "duration": 1.2416666666666667
            },
            {
              "pitch": 65,
              "velocity": 60,
              "position": 10.625,
              "duration": 1.2416666666666667
            },
            {
              "pitch": 62,
              "velocity": 60,
              "position": 10.625,
              "duration": 1.2416666666666667
            },
            {
              "pitch": 59,
              "velocity": 60,
              "position": 9,
              "duration": 2.8666666666666667
            },
            {
              "pitch": 43,
              "velocity": 60,
              "position": 9,
              "duration": 2.8666666666666667
            },
            {
              "pitch": 48,
              "velocity": 60,
              "position": 12,
              "duration": 9.989583333333334
            },
            {
              "pitch": 72,
              "velocity": 60,
              "position": 12,
              "duration": 9.989583333333334
            },
            {
              "pitch": 67,
              "velocity": 60,
              "position": 12,
              "duration": 9.989583333333334
            },
            {
              "pitch": 63,
              "velocity": 60,
              "position": 12,
              "duration": 9.989583333333334
            },
            {
              "pitch": 58,
              "velocity": 60,
              "position": 12,
              "duration": 9.989583333333334
            }
          ]
        },
        "7": {
          "ctab": {
            "srcChannel": 7,
            "name": "pf b",
            "accType": "CHORD2",
            "editable": false,
            "mutedNotes": [
              11,
              10,
              9,
              8,
              1,
              0
            ],
            "mutedChords": [
              "1+2+5",
              "sus4",
              "1+5",
              "1+8",
              "7aug",
              "Maj7aug",
              "7(#9)",
              "7(b13)",
              "7(b9)",
              "7(13)",
              "7#11",
              "7(9)",
              "7b5",
              "7sus4",
              "7th",
              "aug",
              "Maj6(9)",
              "Maj7(9)",
              "Maj(9)",
              "Maj7#11",
              "Maj7",
              "Maj6",
              "Maj"
            ],
            "autoStart": false,
            "sourceChordNote": 0,
            "sourceChordType": "min",
            "ctb2Low": null,
            "ctb2Main": {
              "ntr": "ROOT_TRANSPOSITION",
              "ntt": "BYPASS",
              "bassOn": false,
              "chordRootUpperLimit": 8,
              "noteLowLimit": 0,
              "noteHighLimit": 127,
              "rtr": "PITCH_SHIFT"
            },
            "ctb2High": null
          },
          "notes": [
            {
              "pitch": 36,
              "velocity": 60,
              "position": 0,
              "duration": 2.8666666666666667
            },
            {
              "pitch": 70,
              "velocity": 60,
              "position": 0,
              "duration": 2.8666666666666667
            },
            {
              "pitch": 67,
              "velocity": 60,
              "position": 0,
              "duration": 2.8666666666666667
            },
            {
              "pitch": 62,
              "velocity": 60,
              "position": 0,
              "duration": 2.8666666666666667
            },
            {
              "pitch": 58,
              "velocity": 60,
              "position": 0,
              "duration": 2.8666666666666667
            },
            {
              "pitch": 51,
              "velocity": 60,
              "position": 0,
              "duration": 2.8666666666666667
            },
            {
              "pitch": 39,
              "velocity": 60,
              "position": 3,
              "duration": 2.8666666666666667
            },
            {
              "pitch": 49,
              "velocity": 60,
              "position": 3,
              "duration": 2.8666666666666667
            },
            {
              "pitch": 60,
              "velocity": 60,
              "position": 3,
              "duration": 2.8666666666666667
            },
            {
              "pitch": 55,
              "velocity": 60,
              "position": 3,
              "duration": 2.8666666666666667
            },
            {
              "pitch": 65,
              "velocity": 60,
              "position": 3,
              "duration": 2.9479166666666665
            },
            {
              "pitch": 54,
              "velocity": 60,
              "position": 6,
              "duration": 1.4916666666666667
            },
            {
              "pitch": 65,
              "velocity": 60,
              "position": 6,
              "duration": 1.4916666666666667
            },
            {
              "pitch": 60,
              "velocity": 60,
              "position": 6,
              "duration": 1.4916666666666667
            },
            {
              "pitch": 58,
              "velocity": 60,
              "position": 6,
              "duration": 1.4916666666666667
            },
            {
              "pitch": 44,
              "velocity": 60,
              "position": 6,
              "duration": 2.8666666666666667
            },
            {
              "pitch": 63,
              "velocity": 60,
              "position": 7.625,
              "duration": 1.2416666666666667
            },
            {
              "pitch": 60,
              "velocity": 60,
              "position": 7.625,
              "duration": 1.2416666666666667
            },
            {
              "pitch": 58,
              "velocity": 60,
              "position": 7.625,
              "duration": 1.2416666666666667
            },
            {
              "pitch": 54,
              "velocity": 60,
              "position": 7.625,
              "duration": 1.2416666666666667
            },
            {
              "pitch": 63,
              "velocity": 60,
              "position": 9,
              "duration": 1.6145833333333333
            },
            {
              "pitch": 67,
              "velocity": 60,
              "position": 9,
              "duration": 1.6145833333333333
            },
            {
              "pitch": 53,
              "velocity": 60,
              "position": 9,
              "duration": 2.8666666666666667
            },
            {
              "pitch": 65,
              "velocity": 60,
              "position": 10.625,
              "duration": 1.2416666666666667
            },
            {
              "pitch": 62,
              "velocity": 60,
              "position": 10.625,
              "duration": 1.2416666666666667
            },
            {
              "pitch": 59,
              "velocity": 60,
              "position": 9,
              "duration": 2.8666666666666667
            },
            {
              "pitch": 43,
              "velocity": 60,
              "position": 9,
              "duration": 2.8666666666666667
            },
            {
              "pitch": 36,
              "velocity": 60,
              "position": 12,
              "duration": 9.989583333333334
            },
            {
              "pitch": 67,
              "velocity": 60,
              "position": 12,
              "duration": 9.989583333333334
            },
            {
              "pitch": 62,
              "velocity": 60,
              "position": 12,
              "duration": 9.989583333333334
            },
            {
              "pitch": 58,
              "velocity": 60,
              "position": 12,
              "duration": 9.989583333333334
            },
            {
              "pitch": 51,
              "velocity": 60,
              "position": 12,
              "duration": 9.989583333333334
            }
          ]
        },
        "9": {
          "ctab": {
            "srcChannel": 9,
            "name": "Drs",
            "accType": "RHYTHM",
            "editable": false,
            "mutedNotes": [],
            "mutedChords": [],
            "autoStart": true,
            "sourceChordNote": 0,
            "sourceChordType": "Maj7",
            "ctb2Low": null,
            "ctb2Main": {
              "ntr": "ROOT_FIXED",
              "ntt": "BYPASS",
              "bassOn": false,
              "chordRootUpperLimit": 6,
              "noteLowLimit": 0,
              "noteHighLimit": 127,
              "rtr": "PITCH_SHIFT"
            },
            "ctb2High": null
          },
          "notes": [
            {
              "pitch": 33,
              "velocity": 34,
              "position": 0,
              "duration": 0.010416666666666666
            },
            {
              "pitch": 59,
              "velocity": 33,
              "position": 0,
              "duration": 0.010416666666666666
            },
            {
              "pitch": 27,
              "velocity": 70,
              "position": 0.6666666666666666,
              "duration": 0.010416666666666666
            },
            {
              "pitch": 26,
              "velocity": 34,
              "position": 0,
              "duration": 1
            },
            {
              "pitch": 44,
              "velocity": 30,
              "position": 1,
              "duration": 0.010416666666666666
            },
            {
              "pitch": 59,
              "velocity": 33,
              "position": 1,
              "duration": 0.010416666666666666
            },
            {
              "pitch": 25,
              "velocity": 20,
              "position": 1.6666666666666667,
              "duration": 0.010416666666666666
            },
            {
              "pitch": 53,
              "velocity": 17,
              "position": 1.6666666666666667,
              "duration": 0.010416666666666666
            },
            {
              "pitch": 26,
              "velocity": 14,
              "position": 1,
              "duration": 1
            },
            {
              "pitch": 44,
              "velocity": 37,
              "position": 2,
              "duration": 0.010416666666666666
            },
            {
              "pitch": 59,
              "velocity": 33,
              "position": 2,
              "duration": 0.010416666666666666
            },
            {
              "pitch": 33,
              "velocity": 34,
              "position": 2.6666666666666665,
              "duration": 0.010416666666666666
            },
            {
              "pitch": 28,
              "velocity": 29,
              "position": 2,
              "duration": 1
            },
            {
              "pitch": 33,
              "velocity": 34,
              "position": 3,
              "duration": 0.010416666666666666
            },
            {
              "pitch": 53,
              "velocity": 33,
              "position": 3,
              "duration": 0.010416666666666666
            },
            {
              "pitch": 25,
              "velocity": 70,
              "position": 3.6666666666666665,
              "duration": 0.010416666666666666
            },
            {
              "pitch": 26,
              "velocity": 34,
              "position": 3,
              "duration": 1
            },
            {
              "pitch": 44,
              "velocity": 30,
              "position": 4,
              "duration": 0.010416666666666666
            },
            {
              "pitch": 59,
              "velocity": 33,
              "position": 4,
              "duration": 0.010416666666666666
            },
            {
              "pitch": 25,
              "velocity": 20,
              "position": 4.666666666666667,
              "duration": 0.010416666666666666
            },
            {
              "pitch": 53,
              "velocity": 17,
              "position": 4.666666666666667,
              "duration": 0.010416666666666666
            },
            {
              "pitch": 26,
              "velocity": 14,
              "position": 4,
              "duration": 1
            },
            {
              "pitch": 44,
              "velocity": 37,
              "position": 5,
              "duration": 0.010416666666666666
            },
            {
              "pitch": 59,
              "velocity": 33,
              "position": 5,
              "duration": 0.010416666666666666
            },
            {
              "pitch": 25,
              "velocity": 20,
              "position": 5.666666666666667,
              "duration": 0.010416666666666666
            },
            {
              "pitch": 28,
              "velocity": 29,
              "position": 5,
              "duration": 1
            },
            {
              "pitch": 33,
              "velocity": 34,
              "position": 6,
              "duration": 0.010416666666666666
            },
            {
              "pitch": 59,
              "velocity": 33,
              "position": 6,
              "duration": 0.010416666666666666
            },
            {
              "pitch": 25,
              "velocity": 70,
              "position": 6.666666666666667,
              "duration": 0.010416666666666666
            },
            {
              "pitch": 27,
              "velocity": 70,
              "position": 6.666666666666667,
              "duration": 0.010416666666666666
            },
            {
              "pitch": 26,
              "velocity": 34,
              "position": 6,
              "duration": 1
            },
            {
              "pitch": 44,
              "velocity": 30,
              "position": 7,
              "duration": 0.010416666666666666
            },
            {
              "pitch": 59,
              "velocity": 33,
              "position": 7,
              "duration": 0.010416666666666666
            },
            {
              "pitch": 53,
              "velocity": 32,
              "position": 7.666666666666667,
              "duration": 0.010416666666666666
            },
            {
              "pitch": 26,
              "velocity": 14,
              "position": 7,
              "duration": 1
            },
            {
              "pitch": 44,
              "velocity": 37,
              "position": 8,
              "duration": 0.010416666666666666
            },
            {
              "pitch": 33,
              "velocity": 34,
              "position": 8.666666666666666,
              "duration": 0.010416666666666666
            },
            {
              "pitch": 28,
              "velocity": 29,
              "position": 8,
              "duration": 1
            },
            {
              "pitch": 33,
              "velocity": 34,
              "position": 9,
              "duration": 0.010416666666666666
            },
            {
              "pitch": 53,
              "velocity": 32,
              "position": 9,
              "duration": 0.010416666666666666
            },
            {
              "pitch": 44,
              "velocity": 30,
              "position": 9,
              "duration": 0.010416666666666666
            },
            {
              "pitch": 25,
              "velocity": 33,
              "position": 9.5,
              "duration": 0.010416666666666666
            },
            {
              "pitch": 38,
              "velocity": 30,
              "position": 9.729166666666666,
              "duration": 0.010416666666666666
            },
            {
              "pitch": 40,
              "velocity": 70,
              "position": 10,
              "duration": 0.010416666666666666
            },
            {
              "pitch": 33,
              "velocity": 46,
              "position": 10.541666666666666,
              "duration": 0.010416666666666666
            },
            {
              "pitch": 49,
              "velocity": 40,
              "position": 10.541666666666666,
              "duration": 0.010416666666666666
            },
            {
              "pitch": 44,
              "velocity": 37,
              "position": 10.541666666666666,
              "duration": 0.010416666666666666
            },
            {
              "pitch": 25,
              "velocity": 33,
              "position": 11.041666666666666,
              "duration": 0.010416666666666666
            },
            {
              "pitch": 38,
              "velocity": 30,
              "position": 11.270833333333334,
              "duration": 0.010416666666666666
            },
            {
              "pitch": 40,
              "velocity": 70,
              "position": 11.541666666666666,
              "duration": 0.010416666666666666
            },
            {
              "pitch": 26,
              "velocity": 34,
              "position": 9,
              "duration": 3.0104166666666665
            },
            {
              "pitch": 57,
              "velocity": 36,
              "position": 12,
              "duration": 0.010416666666666666
            },
            {
              "pitch": 33,
              "velocity": 46,
              "position": 12,
              "duration": 0.010416666666666666
            },
            {
              "pitch": 38,
              "velocity": 24,
              "position": 21.520833333333332,
              "duration": 0.010416666666666666
            },
            {
              "pitch": 40,
              "velocity": 38,
              "position": 21.791666666666668,
              "duration": 0.010416666666666666
            },
            {
              "pitch": 33,
              "velocity": 46,
              "position": 22,
              "duration": 0.010416666666666666
            },
            {
              "pitch": 44,
              "velocity": 37,
              "position": 22,
              "duration": 0.010416666666666666
            }
          ]
        },
        "10": {
          "ctab": {
            "srcChannel": 10,
            "name": "Bass",
            "accType": "BASS",
            "editable": false,
            "mutedNotes": [],
            "mutedChords": [
              "dim7",
              "dim",
              "minMaj7(9)",
              "minMaj7",
              "min7(11)",
              "min7(9)",
              "min(9)",
              "m7b5",
              "min7",
              "min6",
              "min"
            ],
            "autoStart": false,
            "sourceChordNote": 0,
            "sourceChordType": "Maj",
            "ctb2Low": null,
            "ctb2Main": {
              "ntr": "ROOT_TRANSPOSITION",
              "ntt": "BYPASS",
              "bassOn": false,
              "chordRootUpperLimit": 8,
              "noteLowLimit": 28,
              "noteHighLimit": 127,
              "rtr": "PITCH_SHIFT"
            },
            "ctb2High": null
          },
          "notes": [
            {
              "pitch": 24,
              "velocity": 50,
              "position": 0,
              "duration": 2.3229166666666665
            },
            {
              "pitch": 26,
              "velocity": 100,
              "position": 2.3333333333333335,
              "duration": 0.3229166666666667
            },
            {
              "pitch": 27,
              "velocity": 100,
              "position": 2.6666666666666665,
              "duration": 0.3229166666666667
            },
            {
              "pitch": 28,
              "velocity": 50,
              "position": 3,
              "duration": 2.65625
            },
            {
              "pitch": 28,
              "velocity": 100,
              "position": 5.666666666666667,
              "duration": 0.3229166666666667
            },
            {
              "pitch": 29,
              "velocity": 50,
              "position": 6,
              "duration": 1.5729166666666667
            },
            {
              "pitch": 36,
              "velocity": 50,
              "position": 7.583333333333333,
              "duration": 1.0729166666666667
            },
            {
              "pitch": 36,
              "velocity": 100,
              "position": 8.666666666666666,
              "duration": 0.3229166666666667
            },
            {
              "pitch": 31,
              "velocity": 50,
              "position": 9,
              "duration": 1.5729166666666667
            },
            {
              "pitch": 31,
              "velocity": 50,
              "position": 10.583333333333334,
              "duration": 1.0729166666666667
            },
            {
              "pitch": 31,
              "velocity": 100,
              "position": 11.666666666666666,
              "duration": 0.3229166666666667
            },
            {
              "pitch": 24,
              "velocity": 50,
              "position": 12,
              "duration": 9.989583333333334
            }
          ]
        },
        "11": {
          "ctab": {
            "srcChannel": 11,
            "name": "Bass",
            "accType": "BASS",
            "editable": false,
            "mutedNotes": [],
            "mutedChords": [
              "1+2+5",
              "sus4",
              "1+5",
              "1+8",
              "7aug",
              "Maj7aug",
              "7(#9)",
              "7(b13)",
              "7(b9)",
              "7(13)",
              "7#11",
              "7(9)",
              "7b5",
              "7sus4",
              "7th",
              "aug",
              "Maj6(9)",
              "Maj7(9)",
              "Maj(9)",
              "Maj7#11",
              "Maj7",
              "Maj6",
              "Maj"
            ],
            "autoStart": false,
            "sourceChordNote": 0,
            "sourceChordType": "min",
            "ctb2Low": null,
            "ctb2Main": {
              "ntr": "ROOT_TRANSPOSITION",
              "ntt": "BYPASS",
              "bassOn": false,
              "chordRootUpperLimit": 8,
              "noteLowLimit": 28,
              "noteHighLimit": 127,
              "rtr": "PITCH_SHIFT"
            },
            "ctb2High": null
          },
          "notes": [
            {
              "pitch": 24,
              "velocity": 50,
              "position": 0,
              "duration": 2.3229166666666665
            },
            {
              "pitch": 25,
              "velocity": 100,
              "position": 2.3333333333333335,
              "duration": 0.3229166666666667
            },
            {
              "pitch": 26,
              "velocity": 100,
              "position": 2.6666666666666665,
              "duration": 0.3229166666666667
            },
            {
              "pitch": 27,
              "velocity": 50,
              "position": 3,
              "duration": 2.65625
            },
            {
              "pitch": 27,
              "velocity": 100,
              "position": 5.666666666666667,
              "duration": 0.3229166666666667
            },
            {
              "pitch": 32,
              "velocity": 50,
              "position": 6,
              "duration": 1.5729166666666667
            },
            {
              "pitch": 27,
              "velocity": 50,
              "position": 7.583333333333333,
              "duration": 1.0729166666666667
            },
            {
              "pitch": 27,
              "velocity": 100,
              "position": 8.666666666666666,
              "duration": 0.3229166666666667
            },
            {
              "pitch": 31,
              "velocity": 50,
              "position": 9,
              "duration": 1.5729166666666667
            },
            {
              "pitch": 31,
              "velocity": 50,
              "position": 10.583333333333334,
              "duration": 1.0729166666666667
            },
            {
              "pitch": 31,
              "velocity": 100,
              "position": 11.666666666666666,
              "duration": 0.3229166666666667
            },
            {
              "pitch": 24,
              "velocity": 50,
              "position": 12,
              "duration": 9.989583333333334
            }
          ]
        },
        "12": {
          "ctab": {
            "srcChannel": 12,
            "name": "Pad",
            "accType": "PAD",
            "editable": false,
            "mutedNotes": [],
            "mutedChords": [
              "dim7",
              "dim",
              "minMaj7(9)",
              "minMaj7",
              "min7(11)",
              "min7(9)",
              "min(9)",
              "m7b5",
              "min7",
              "min6",
              "min"
            ],
            "autoStart": false,
            "sourceChordNote": 0,
            "sourceChordType": "Maj",
            "ctb2Low": null,
            "ctb2Main": {
              "ntr": "ROOT_TRANSPOSITION",
              "ntt": "BYPASS",
              "bassOn": false,
              "chordRootUpperLimit": 8,
              "noteLowLimit": 54,
              "noteHighLimit": 65,
              "rtr": "PITCH_SHIFT"
            },
            "ctb2High": null
          },
          "notes": [
            {
              "pitch": 55,
              "velocity": 60,
              "position": 0,
              "duration": 2.9895833333333335
            },
            {
              "pitch": 64,
              "velocity": 60,
              "position": 0,
              "duration": 2.9895833333333335
            },
            {
              "pitch": 59,
              "velocity": 60,
              "position": 0,
              "duration": 4.614583333333333
            },
            {
              "pitch": 56,
              "velocity": 60,
              "position": 3,
              "duration": 2.9895833333333335
            },
            {
              "pitch": 60,
              "velocity": 60,
              "position": 4.625,
              "duration": 1.3645833333333333
            },
            {
              "pitch": 62,
              "velocity": 60,
              "position": 3,
              "duration": 4.614583333333333
            },
            {
              "pitch": 60,
              "velocity": 60,
              "position": 7.625,
              "duration": 2.9895833333333335
            },
            {
              "pitch": 64,
              "velocity": 60,
              "position": 9,
              "duration": 2.9895833333333335
            },
            {
              "pitch": 53,
              "velocity": 60,
              "position": 6,
              "duration": 5.989583333333333
            },
            {
              "pitch": 57,
              "velocity": 60,
              "position": 6,
              "duration": 5.989583333333333
            },
            {
              "pitch": 59,
              "velocity": 60,
              "position": 10.625,
              "duration": 11.364583333333334
            },
            {
              "pitch": 62,
              "velocity": 60,
              "position": 12,
              "duration": 9.989583333333334
            },
            {
              "pitch": 55,
              "velocity": 60,
              "position": 12,
              "duration": 9.989583333333334
            },
            {
              "pitch": 52,
              "velocity": 60,
              "position": 12,
              "duration": 9.989583333333334
            }
          ]
        },
        "13": {
          "ctab": {
            "srcChannel": 13,
            "name": "Pad",
            "accType": "PAD",
            "editable": false,
            "mutedNotes": [],
            "mutedChords": [
              "1+2+5",
              "sus4",
              "1+5",
              "1+8",
              "7aug",
              "Maj7aug",
              "7(#9)",
              "7(b13)",
              "7(b9)",
              "7(13)",
              "7#11",
              "7(9)",
              "7b5",
              "7sus4",
              "7th",
              "aug",
              "Maj6(9)",
              "Maj7(9)",
              "Maj(9)",
              "Maj7#11",
              "Maj7",
              "Maj6",
              "Maj"
            ],
            "autoStart": false,
            "sourceChordNote": 0,
            "sourceChordType": "min",
            "ctb2Low": null,
            "ctb2Main": {
              "ntr": "ROOT_TRANSPOSITION",
              "ntt": "BYPASS",
              "bassOn": false,
              "chordRootUpperLimit": 8,
              "noteLowLimit": 54,
              "noteHighLimit": 65,
              "rtr": "PITCH_SHIFT"
            },
            "ctb2High": null
          },
          "notes": [
            {
              "pitch": 63,
              "velocity": 60,
              "position": 0,
              "duration": 2.9895833333333335
            },
            {
              "pitch": 55,
              "velocity": 60,
              "position": 0,
              "duration": 5.989583333333333
            },
            {
              "pitch": 61,
              "velocity": 60,
              "position": 3,
              "duration": 2.9895833333333335
            },
            {
              "pitch": 58,
              "velocity": 60,
              "position": 0,
              "duration": 5.989583333333333
            },
            {
              "pitch": 54,
              "velocity": 60,
              "position": 6,
              "duration": 2.9895833333333335
            },
            {
              "pitch": 60,
              "velocity": 60,
              "position": 6,
              "duration": 2.9895833333333335
            },
            {
              "pitch": 63,
              "velocity": 60,
              "position": 6,
              "duration": 4.614583333333333
            },
            {
              "pitch": 59,
              "velocity": 60,
              "position": 9,
              "duration": 2.9895833333333335
            },
            {
              "pitch": 62,
              "velocity": 60,
              "position": 10.625,
              "duration": 1.3645833333333333
            },
            {
              "pitch": 53,
              "velocity": 60,
              "position": 9,
              "duration": 2.9895833333333335
            },
            {
              "pitch": 55,
              "velocity": 60,
              "position": 12,
              "duration": 9.989583333333334
            },
            {
              "pitch": 63,
              "velocity": 60,
              "position": 12,
              "duration": 9.989583333333334
            },
            {
              "pitch": 60,
              "velocity": 60,
              "position": 12,
              "duration": 9.989583333333334
            }
          ]
        }
      }
    }
  }
}