{
  "name": "LACoolSwing.S004.STY",
  "tempo": 126,
  "timeSignature": "4/4",
  "ticksPerQuarter": 1920,
  "sffType": "SFF1",
  "division": "EIGHTH_SHUFFLE",
  "parts": {
    "Main_A": {
      "type": "Main_A",
      "sizeInBeats": 16,
      "channels": {
        "4": {
          "ctab": {
            "srcChannel": 4,
            "name": "Str  rt",
            "accType": "PAD",
            "editable": false,
            "mutedNotes": [],
            "mutedChords": [
              "1+2+5",
              "sus4",
              "1+5",
              "1+8",
              "Maj7aug",
              "dim",
              "minMaj7(9)",
              "minMaj7",
              "min6",
              "min",
              "aug",
              "Maj7(9)",
              "Maj7#11",
              "Maj7",
              "Maj6",
              "Maj"
            ],
            "autoStart": false,
            "sourceChordNote": 0,
            "sourceChordType": "Maj7",
            "ctb2Low": null,
            "ctb2Main": {
              "ntr": "ROOT_TRANSPOSITION",
              "ntt": "CHORD",
              "bassOn": false,
              "chordRootUpperLimit": 6,
              "noteLowLimit": 0,
              "noteHighLimit": 127,
              "rtr": "PITCH_SHIFT"
            },
            "ctb2High": null
          },
          "notes": []
        },
        "8": {
          "ctab": {
            "srcChannel": 8,
            "name": "AddDrum",
            "accType": "SUBRHYTHM",
            "editable": false,
            "mutedNotes": [],
            "mutedChords": [],
            "autoStart": true,
            "sourceChordNote": 0,
            "sourceChordType": "Maj7",
            "ctb2Low": null,
            "ctb2Main": {
              "ntr": "ROOT_FIXED",
              "ntt": "BYPASS",
              "bassOn": false,
              "chordRootUpperLimit": 6,
              "noteLowLimit": 0,
              "noteHighLimit": 127,
              "rtr": "PITCH_SHIFT"
            },
            "ctb2High": null
          },
          "notes": []
        },
        "9": {
          "ctab": {
            "srcChannel": 9,
            "name": "MainDrum",
            "accType": "RHYTHM",
            "editable": false,
            "mutedNotes": [],
            "mutedChords": [],
            "autoStart": true,
            "sourceChordNote": 0,
            "sourceChordType": "Maj7",
            "ctb2Low": null,
            "ctb2Main": {
              "ntr": "ROOT_FIXED",
              "ntt": "BYPASS",
              "bassOn": false,
              "chordRootUpperLimit": 6,
              "noteLowLimit": 0,
              "noteHighLimit": 127,
              "rtr": "PITCH_SHIFT"
            },
            "ctb2High": null
          },
          "notes": [
            {
              "pitch": 33,
              "velocity": 70,
              "position": 0,
              "duration": 0.020833333333333332
            },
            {
              "pitch": 51,
              "velocity": 50,
              "position": 0,
              "duration": 0.020833333333333332
            },
            {
              "pitch": 44,
              "velocity": 40,
              "position": 1,
              "duration": 0.020833333333333332
            },
            {
              "pitch": 51,
              "velocity": 50,
              "position": 2,
              "duration": 0.020833333333333332
            },
            {
              "pitch": 44,
              "velocity": 40,
              "position": 3,
              "duration": 0.020833333333333332
            },
            {
              "pitch": 51,
              "velocity": 50,
              "position": 4,
              "duration": 0.020833333333333332
            },
            {
              "pitch": 44,
              "velocity": 40,
              "position": 5,
              "duration": 0.020833333333333332
            },
            {
              "pitch": 51,
              "velocity": 30,
              "position": 5.666666666666667,
              "duration": 0.020833333333333332
            },
            {
              "pitch": 51,
              "velocity": 50,
              "position": 6,
              "duration": 0.020833333333333332
            },
            {
              "pitch": 44,
              "velocity": 40,
              "position": 7,
              "duration": 0.020833333333333332
            },
            {
              "pitch": 33,
              "velocity": 40,
              "position": 7.666666666666667,
              "duration": 0.020833333333333332
            },
            {
              "pitch": 51,
              "velocity": 30,
              "position": 7.666666666666667,
              "duration": 0.020833333333333332
            },
            {
              "pitch": 33,
              "velocity": 70,
              "position": 8,
              "duration": 0.020833333333333332
            },
            {
              "pitch": 51,
              "velocity": 50,
              "position": 8,
              "duration": 0.020833333333333332
            },
            {
              "pitch": 44,
              "velocity": 40,
              "position": 9,
              "duration": 0.020833333333333332
            },
            {
              "pitch": 51,
              "velocity": 50,
              "position": 10,
              "duration": 0.020833333333333332
            },
            {
              "pitch": 44,
              "velocity": 40,
              "position": 11,
              "duration": 0.020833333333333332
            },
            {
              "pitch": 51,
              "velocity": 50,
              "position": 12,
              "duration": 0.020833333333333332
            },
            {
              "pitch": 44,
              "velocity": 40,
              "position": 13,
              "duration": 0.020833333333333332
            },
            {
              "pitch": 51,
              "velocity": 50,
              "position": 14,
              "duration": 0.020833333333333332
            },
            {
              "pitch": 44,
              "velocity": 40,
              "position": 15,
              "duration": 0.020833333333333332
            },
            {
              "pitch": 51,
              "velocity": 30,
              "position": 15.666666666666666,
              "duration": 0.020833333333333332
            }
          ]
        },
        "10": {
          "ctab": {
            "srcChannel": 10,
            "name": "Bass",
            "accType": "BASS",
            "editable": false,
            "mutedNotes": [],
            "mutedChords": [],
            "autoStart": false,
            "sourceChordNote": 0,
            "sourceChordType": "Maj7",
            "ctb2Low": null,
            "ctb2Main": {
              "ntr": "ROOT_TRANSPOSITION",
              "ntt": "MELODY",
              "bassOn": true,
              "chordRootUpperLimit": 1,
              "noteLowLimit": 26,
              "noteHighLimit": 127,
              "rtr": "PITCH_SHIFT_TO_ROOT"
            },
            "ctb2High": null
          },
          "notes": [
            {
              "pitch": 48,
              "velocity": 60,
              "position": 0,
              "duration": 1.5083333333333333
            },
            {
              "pitch": 43,
              "velocity": 40,
              "position": 1.6666666666666667,
              "duration": 0.125
            },
            {
              "pitch": 36,
              "velocity": 60,
              "position": 2,
              "duration": 1.8416666666666666
            },
            {
              "pitch": 36,
              "velocity": 60,
              "position": 4,
              "duration": 2.5083333333333333
            },
            {
              "pitch": 48,
              "velocity": 61,
              "position": 6.666666666666667,
              "duration": 0.325
            },
            {
              "pitch": 40,
              "velocity": 50,
              "position": 7,
              "duration": 0.8416666666666667
            },
            {
              "pitch": 48,
              "velocity": 60,
              "position": 8,
              "duration": 1.5083333333333333
            },
            {
              "pitch": 43,
              "velocity": 40,
              "position": 9.666666666666666,
              "duration": 0.125
            },
            {
              "pitch": 36,
              "velocity": 60,
              "position": 10,
              "duration": 1.5083333333333333
            },
            {
              "pitch": 36,
              "velocity": 40,
              "position": 11.666666666666666,
              "duration": 0.125
            },
            {
              "pitch": 36,
              "velocity": 60,
              "position": 12,
              "duration": 2.5083333333333333
            },
            {
              "pitch": 48,
              "velocity": 61,
              "position": 14.666666666666666,
              "duration": 0.125
            },
            {
              "pitch": 36,
              "velocity": 90,
              "position": 15,
              "duration": 0.175
            },
            {
              "pitch": 48,
              "velocity": 90,
              "position": 15.333333333333334,
              "duration": 0.175
            },
            {
              "pitch": 48,
              "velocity": 50,
              "position": 15.666666666666666,
              "duration": 0.325
            }
          ]
        },
        "11": {
          "ctab": {
            "srcChannel": 11,
            "name": "E.Piano",
            "accType": "CHORD1",
            "editable": false,
            "mutedNotes": [],
            "mutedChords": [],
            "autoStart": false,
            "sourceChordNote": 0,
            "sourceChordType": "Maj7",
            "ctb2Low": null,
            "ctb2Main": {
              "ntr": "ROOT_FIXED",
              "ntt": "CHORD",
              "bassOn": false,
              "chordRootUpperLimit": 7,
              "noteLowLimit": 0,
              "noteHighLimit": 127,
              "rtr": "PITCH_SHIFT"
            },
            "ctb2High": null
          },
          "notes": [
            {
              "pitch": 59,
              "velocity": 90,
              "position": 0.0020833333333333333,
              "duration": 3.9291666666666667
            },
            {
              "pitch": 55,
              "velocity": 90,
              "position": 0.00625,
              "duration": 3.941666666666667
            },
            {
              "pitch": 64,
              "velocity": 90,
              "position": 0.00625,
              "duration": 3.9458333333333333
            },
            {
              "pitch": 71,
              "velocity": 90,
              "position": 0,
              "duration": 3.966666666666667
            },
            {
              "pitch": 36,
              "velocity": 52,
              "position": 0.004166666666666667,
              "duration": 3.9625
            },
            {
              "pitch": 67,
              "velocity": 90,
              "position": 0.010416666666666666,
              "duration": 3.96875
            },
            {
              "pitch": 55,
              "velocity": 60,
              "position": 4,
              "duration": 2.6125
            },
            {
              "pitch": 64,
              "velocity": 60,
              "position": 4,
              "duration": 2.6125
            },
            {
              "pitch": 52,
              "velocity": 24,
              "position": 4.010416666666667,
              "duration": 2.6083333333333334
            },
            {
              "pitch": 48,
              "velocity": 40,
              "position": 4.00625,
              "duration": 2.61875
            },
            {
              "pitch": 59,
              "velocity": 60,
              "position": 4.016666666666667,
              "duration": 2.622916666666667
            },
            {
              "pitch": 64,
              "velocity": 80,
              "position": 6.660416666666666,
              "duration": 1.2645833333333334
            },
            {
              "pitch": 67,
              "velocity": 80,
              "position": 6.658333333333333,
              "duration": 1.2958333333333334
            },
            {
              "pitch": 59,
              "velocity": 80,
              "position": 6.666666666666667,
              "duration": 1.2958333333333334
            },
            {
              "pitch": 55,
              "velocity": 80,
              "position": 6.670833333333333,
              "duration": 1.3020833333333333
            },
            {
              "pitch": 59,
              "velocity": 65,
              "position": 8.004166666666666,
              "duration": 3.9375
            },
            {
              "pitch": 64,
              "velocity": 65,
              "position": 8,
              "duration": 3.94375
            },
            {
              "pitch": 52,
              "velocity": 25,
              "position": 8.016666666666667,
              "duration": 3.9520833333333334
            },
            {
              "pitch": 36,
              "velocity": 44,
              "position": 8.016666666666667,
              "duration": 3.9541666666666666
            },
            {
              "pitch": 55,
              "velocity": 65,
              "position": 8.016666666666667,
              "duration": 3.9583333333333335
            },
            {
              "pitch": 48,
              "velocity": 36,
              "position": 12.002083333333333,
              "duration": 3.60625
            },
            {
              "pitch": 67,
              "velocity": 70,
              "position": 12.016666666666667,
              "duration": 3.6020833333333333
            },
            {
              "pitch": 64,
              "velocity": 70,
              "position": 12.008333333333333,
              "duration": 3.620833333333333
            },
            {
              "pitch": 55,
              "velocity": 70,
              "position": 12,
              "duration": 3.6333333333333333
            },
            {
              "pitch": 59,
              "velocity": 70,
              "position": 12.014583333333333,
              "duration": 3.625
            }
          ]
        },
        "12": {
          "ctab": {
            "srcChannel": 12,
            "name": "JazzGtr",
            "accType": "CHORD2",
            "editable": false,
            "mutedNotes": [],
            "mutedChords": [],
            "autoStart": false,
            "sourceChordNote": 0,
            "sourceChordType": "Maj7",
            "ctb2Low": null,
            "ctb2Main": {
              "ntr": "ROOT_TRANSPOSITION",
              "ntt": "MELODY",
              "bassOn": false,
              "chordRootUpperLimit": 7,
              "noteLowLimit": 0,
              "noteHighLimit": 127,
              "rtr": "PITCH_SHIFT"
            },
            "ctb2High": null
          },
          "notes": [
            {
              "pitch": 55,
              "velocity": 39,
              "position": 0,
              "duration": 3.575
            },
            {
              "pitch": 59,
              "velocity": 39,
              "position": 0,
              "duration": 3.575
            },
            {
              "pitch": 64,
              "velocity": 43,
              "position": 0.0375,
              "duration": 3.5625
            },
            {
              "pitch": 60,
              "velocity": 41,
              "position": 0.029166666666666667,
              "duration": 3.5854166666666667
            },
            {
              "pitch": 67,
              "velocity": 43,
              "position": 0.08541666666666667,
              "duration": 3.5791666666666666
            },
            {
              "pitch": 71,
              "velocity": 43,
              "position": 0.08541666666666667,
              "duration": 3.5791666666666666
            },
            {
              "pitch": 55,
              "velocity": 16,
              "position": 4.00625,
              "duration": 3.589583333333333
            },
            {
              "pitch": 59,
              "velocity": 16,
              "position": 4.00625,
              "duration": 3.589583333333333
            },
            {
              "pitch": 60,
              "velocity": 16,
              "position": 4.03125,
              "duration": 3.5729166666666665
            },
            {
              "pitch": 64,
              "velocity": 16,
              "position": 4.033333333333333,
              "duration": 3.58125
            },
            {
              "pitch": 67,
              "velocity": 15,
              "position": 4.075,
              "duration": 3.5708333333333333
            },
            {
              "pitch": 71,
              "velocity": 15,
              "position": 4.075,
              "duration": 3.5708333333333333
            },
            {
              "pitch": 55,
              "velocity": 41,
              "position": 8,
              "duration": 3.560416666666667
            },
            {
              "pitch": 59,
              "velocity": 41,
              "position": 8,
              "duration": 3.560416666666667
            },
            {
              "pitch": 60,
              "velocity": 42,
              "position": 8.027083333333334,
              "duration": 3.58125
            },
            {
              "pitch": 67,
              "velocity": 41,
              "position": 8.058333333333334,
              "duration": 3.560416666666667
            },
            {
              "pitch": 71,
              "velocity": 41,
              "position": 8.058333333333334,
              "duration": 3.560416666666667
            },
            {
              "pitch": 64,
              "velocity": 43,
              "position": 8.054166666666667,
              "duration": 3.5770833333333334
            },
            {
              "pitch": 55,
              "velocity": 17,
              "position": 12,
              "duration": 3.5770833333333334
            },
            {
              "pitch": 59,
              "velocity": 17,
              "position": 12,
              "duration": 3.5770833333333334
            },
            {
              "pitch": 60,
              "velocity": 16,
              "position": 12.014583333333333,
              "duration": 3.56875
            },
            {
              "pitch": 64,
              "velocity": 17,
              "position": 12.0375,
              "duration": 3.558333333333333
            },
            {
              "pitch": 67,
              "velocity": 17,
              "position": 12.085416666666667,
              "duration": 3.5708333333333333
            },
            {
              "pitch": 71,
              "velocity": 17,
              "position": 12.085416666666667,
              "duration": 3.5708333333333333
            }
          ]
        },
        "13": {
          "ctab": {
            "srcChannel": 13,
            "name": "Strings",
            "accType": "PAD",
            "editable": false,
            "mutedNotes": [],
            "mutedChords": [],
            "autoStart": false,
            "sourceChordNote": 0,
            "sourceChordType": "Maj7",
            "ctb2Low": null,
            "ctb2Main": {
              "ntr": "ROOT_FIXED",
              "ntt": "CHORD",
              "bassOn": false,
              "chordRootUpperLimit": 7,
              "noteLowLimit": 0,
              "noteHighLimit": 127,
              "rtr": "PITCH_SHIFT"
            },
            "ctb2High": null
          },
          "notes": []
        },
        "15": {
          "ctab": {
            "srcChannel": 15,
            "name": "BalladDX",
            "accType": "PHRASE2",
            "editable": false,
            "mutedNotes": [],
            "mutedChords": [],
            "autoStart": false,
            "sourceChordNote": 0,
            "sourceChordType": "Maj7",
            "ctb2Low": null,
            "ctb2Main": {
              "ntr": "ROOT_FIXED",
              "ntt": "CHORD",
              "bassOn": false,
              "chordRootUpperLimit": 7,
              "noteLowLimit": 0,
              "noteHighLimit": 127,
              "rtr": "PITCH_SHIFT"
            },
            "ctb2High": null
          },
          "notes": [
            {
              "pitch": 59,
              "velocity": 110,
              "position": 0.0020833333333333333,
              "duration": 3.9291666666666667
            },
            {
              "pitch": 55,
              "velocity": 110,
              "position": 0.00625,
              "duration": 3.941666666666667
            },
            {
              "pitch": 64,
              "velocity": 110,
              "position": 0.00625,
              "duration": 3.9458333333333333
            },
            {
              "pitch": 71,
              "velocity": 110,
              "position": 0,
              "duration": 3.966666666666667
            },
            {
              "pitch": 36,
              "velocity": 30,
              "position": 0.004166666666666667,
              "duration": 3.9625
            },
            {
              "pitch": 67,
              "velocity": 110,
              "position": 0.010416666666666666,
              "duration": 3.96875
            },
            {
              "pitch": 55,
              "velocity": 24,
              "position": 4,
              "duration": 2.6125
            },
            {
              "pitch": 64,
              "velocity": 24,
              "position": 4,
              "duration": 2.6125
            },
            {
              "pitch": 52,
              "velocity": 24,
              "position": 4.010416666666667,
              "duration": 2.6083333333333334
            },
            {
              "pitch": 48,
              "velocity": 24,
              "position": 4.00625,
              "duration": 2.61875
            },
            {
              "pitch": 59,
              "velocity": 24,
              "position": 4.016666666666667,
              "duration": 2.622916666666667
            },
            {
              "pitch": 64,
              "velocity": 79,
              "position": 6.660416666666666,
              "duration": 1.2645833333333334
            },
            {
              "pitch": 67,
              "velocity": 79,
              "position": 6.658333333333333,
              "duration": 1.2958333333333334
            },
            {
              "pitch": 59,
              "velocity": 79,
              "position": 6.666666666666667,
              "duration": 1.2958333333333334
            },
            {
              "pitch": 55,
              "velocity": 79,
              "position": 6.670833333333333,
              "duration": 1.3020833333333333
            },
            {
              "pitch": 59,
              "velocity": 27,
              "position": 8.004166666666666,
              "duration": 3.9375
            },
            {
              "pitch": 64,
              "velocity": 27,
              "position": 8,
              "duration": 3.94375
            },
            {
              "pitch": 52,
              "velocity": 24,
              "position": 8.016666666666667,
              "duration": 3.9520833333333334
            },
            {
              "pitch": 36,
              "velocity": 30,
              "position": 8.016666666666667,
              "duration": 3.9541666666666666
            },
            {
              "pitch": 55,
              "velocity": 27,
              "position": 8.016666666666667,
              "duration": 3.9583333333333335
            },
            {
              "pitch": 48,
              "velocity": 24,
              "position": 12.002083333333333,
              "duration": 3.60625
            },
            {
              "pitch": 67,
              "velocity": 44,
              "position": 12.016666666666667,
              "duration": 3.6020833333333333
            },
            {
              "pitch": 64,
              "velocity": 44,
              "position": 12.008333333333333,
              "duration": 3.620833333333333
            },
            {
              "pitch": 55,
              "velocity": 44,
              "position": 12,
              "duration": 3.6333333333333333
            },
            {
              "pitch": 59,
              "velocity": 44,
              "position": 12.014583333333333,
              "duration": 3.625
            }
          ]
        }
      }
    },
    "Main_B": {
      "type": "Main_B",
      "sizeInBeats": 16,
      "channels": {
        "4": {
          "ctab": {
            "srcChannel": 4,
            "name": "Str  rt",
            "accType": "PAD",
            "editable": false,
            "mutedNotes": [],
            "mutedChords": [
              "1+2+5",
              "sus4",
              "1+5",
              "1+8",
              "Maj7aug",
              "dim",
              "minMaj7(9)",
              "minMaj7",
              "min6",
              "min",
              "aug",
              "Maj7(9)",
              "Maj7#11",
              "Maj7",
              "Maj6",
              "Maj"
            ],
            "autoStart": false,
            "sourceChordNote": 0,
            "sourceChordType": "Maj7",
            "ctb2Low": null,
            "ctb2Main": {
              "ntr": "ROOT_TRANSPOSITION",
              "ntt": "CHORD",
              "bassOn": false,
              "chordRootUpperLimit": 6,
              "noteLowLimit": 0,
              "noteHighLimit": 127,
              "rtr": "PITCH_SHIFT"
            },
            "ctb2High": null
          },
          "notes": [
            {
              "pitch": 60,
              "velocity": 25,
              "position": 0.010416666666666666,
              "duration": 15.958333333333334
            }
          ]
        },
        "8": {
          "ctab": {
            "srcChannel": 8,
            "name": "AddDrum",
            "accType": "SUBRHYTHM",
            "editable": false,
            "mutedNotes": [],
            "mutedChords": [],
            "autoStart": true,
            "sourceChordNote": 0,
            "sourceChordType": "Maj7",
            "ctb2Low": null,
            "ctb2Main": {
              "ntr": "ROOT_FIXED",
              "ntt": "BYPASS",
              "bassOn": false,
              "chordRootUpperLimit": 6,
              "noteLowLimit": 0,
              "noteHighLimit": 127,
              "rtr": "PITCH_SHIFT"
            },
            "ctb2High": null
          },
          "notes": [
            {
              "pitch": 73,
              "velocity": 46,
              "position": 1,
              "duration": 0.020833333333333332
            },
            {
              "pitch": 73,
              "velocity": 46,
              "position": 3,
              "duration": 0.020833333333333332
            },
            {
              "pitch": 73,
              "velocity": 46,
              "position": 5,
              "duration": 0.020833333333333332
            },
            {
              "pitch": 73,
              "velocity": 46,
              "position": 7,
              "duration": 0.020833333333333332
            },
            {
              "pitch": 73,
              "velocity": 46,
              "position": 9,
              "duration": 0.020833333333333332
            },
            {
              "pitch": 73,
              "velocity": 46,
              "position": 11,
              "duration": 0.020833333333333332
            },
            {
              "pitch": 73,
              "velocity": 46,
              "position": 13,
              "duration": 0.020833333333333332
            },
            {
              "pitch": 73,
              "velocity": 46,
              "position": 15,
              "duration": 0.020833333333333332
            }
          ]
        },
        "9": {
          "ctab": {
            "srcChannel": 9,
            "name": "MainDrum",
            "accType": "RHYTHM",
            "editable": false,
            "mutedNotes": [],
            "mutedChords": [],
            "autoStart": true,
            "sourceChordNote": 0,
            "sourceChordType": "Maj7",
            "ctb2Low": null,
            "ctb2Main": {
              "ntr": "ROOT_FIXED",
              "ntt": "BYPASS",
              "bassOn": false,
              "chordRootUpperLimit": 6,
              "noteLowLimit": 0,
              "noteHighLimit": 127,
              "rtr": "PITCH_SHIFT"
            },
            "ctb2High": null
          },
          "notes": [
            {
              "pitch": 33,
              "velocity": 70,
              "position": 0,
              "duration": 0.020833333333333332
            },
            {
              "pitch": 51,
              "velocity": 50,
              "position": 0,
              "duration": 0.020833333333333332
            },
            {
              "pitch": 44,
              "velocity": 30,
              "position": 0,
              "duration": 0.020833333333333332
            },
            {
              "pitch": 44,
              "velocity": 50,
              "position": 1,
              "duration": 0.020833333333333332
            },
            {
              "pitch": 51,
              "velocity": 50,
              "position": 1,
              "duration": 0.020833333333333332
            },
            {
              "pitch": 44,
              "velocity": 30,
              "position": 2,
              "duration": 0.020833333333333332
            },
            {
              "pitch": 51,
              "velocity": 50,
              "position": 2,
              "duration": 0.020833333333333332
            },
            {
              "pitch": 37,
              "velocity": 70,
              "position": 3,
              "duration": 0.020833333333333332
            },
            {
              "pitch": 51,
              "velocity": 50,
              "position": 3,
              "duration": 0.020833333333333332
            },
            {
              "pitch": 44,
              "velocity": 50,
              "position": 3,
              "duration": 0.020833333333333332
            },
            {
              "pitch": 33,
              "velocity": 70,
              "position": 4,
              "duration": 0.020833333333333332
            },
            {
              "pitch": 51,
              "velocity": 50,
              "position": 4,
              "duration": 0.020833333333333332
            },
            {
              "pitch": 44,
              "velocity": 30,
              "position": 4,
              "duration": 0.020833333333333332
            },
            {
              "pitch": 44,
              "velocity": 50,
              "position": 5,
              "duration": 0.020833333333333332
            },
            {
              "pitch": 51,
              "velocity": 50,
              "position": 5,
              "duration": 0.020833333333333332
            },
            {
              "pitch": 44,
              "velocity": 30,
              "position": 6,
              "duration": 0.020833333333333332
            },
            {
              "pitch": 51,
              "velocity": 50,
              "position": 6,
              "duration": 0.020833333333333332
            },
            {
              "pitch": 37,
              "velocity": 70,
              "position": 7,
              "duration": 0.020833333333333332
            },
            {
              "pitch": 51,
              "velocity": 50,
              "position": 7,
              "duration": 0.020833333333333332
            },
            {
              "pitch": 44,
              "velocity": 50,
              "position": 7,
              "duration": 0.020833333333333332
            },
            {
              "pitch": 33,
              "velocity": 40,
              "position": 7.666666666666667,
              "duration": 0.020833333333333332
            },
            {
              "pitch": 51,
              "velocity": 30,
              "position": 7.666666666666667,
              "duration": 0.020833333333333332
            },
            {
              "pitch": 33,
              "velocity": 70,
              "position": 8,
              "duration": 0.020833333333333332
            },
            {
              "pitch": 51,
              "velocity": 50,
              "position": 8,
              "duration": 0.020833333333333332
            },
            {
              "pitch": 44,
              "velocity": 30,
              "position": 8,
              "duration": 0.020833333333333332
            },
            {
              "pitch": 44,
              "velocity": 50,
              "position": 9,
              "duration": 0.020833333333333332
            },
            {
              "pitch": 51,
              "velocity": 50,
              "position": 9,
              "duration": 0.020833333333333332
            },
            {
              "pitch": 44,
              "velocity": 30,
              "position": 10,
              "duration": 0.020833333333333332
            },
            {
              "pitch": 51,
              "velocity": 50,
              "position": 10,
              "duration": 0.020833333333333332
            },
            {
              "pitch": 37,
              "velocity": 70,
              "position": 11,
              "duration": 0.020833333333333332
            },
            {
              "pitch": 51,
              "velocity": 50,
              "position": 11,
              "duration": 0.020833333333333332
            },
            {
              "pitch": 44,
              "velocity": 50,
              "position": 11,
              "duration": 0.020833333333333332
            },
            {
              "pitch": 33,
              "velocity": 70,
              "position": 12,
              "duration": 0.020833333333333332
            },
            {
              "pitch": 51,
              "velocity": 50,
              "position": 12,
              "duration": 0.020833333333333332
            },
            {
              "pitch": 44,
              "velocity": 30,
              "position": 12,
              "duration": 0.020833333333333332
            },
            {
              "pitch": 44,
              "velocity": 50,
              "position": 13,
              "duration": 0.020833333333333332
            },
            {
              "pitch": 51,
              "velocity": 50,
              "position": 13,
              "duration": 0.020833333333333332
            },
            {
              "pitch": 44,
              "velocity": 30,
              "position": 14,
              "duration": 0.020833333333333332
            },
            {
              "pitch": 51,
              "velocity": 50,
              "position": 14,
              "duration": 0.020833333333333332
            },
            {
              "pitch": 37,
              "velocity": 70,
              "position": 15,
              "duration": 0.020833333333333332
            },
            {
              "pitch": 51,
              "velocity": 50,
              "position": 15,
              "duration": 0.020833333333333332
            },
            {
              "pitch": 44,
              "velocity": 50,
              "position": 15,
              "duration": 0.020833333333333332
            },
            {
              "pitch": 33,
              "velocity": 40,
              "position": 15.666666666666666,
              "duration": 0.020833333333333332
            },
            {
              "pitch": 51,
              "velocity": 30,
              "position": 15.666666666666666,
              "duration": 0.020833333333333332
            }
          ]
        },
        "10": {
          "ctab": {
            "srcChannel": 10,
            "name": "Bass",
            "accType": "BASS",
            "editable": false,
            "mutedNotes": [],
            "mutedChords": [],
            "autoStart": false,
            "sourceChordNote": 0,
            "sourceChordType": "Maj7",
            "ctb2Low": null,
            "ctb2Main": {
              "ntr": "ROOT_TRANSPOSITION",
              "ntt": "MELODY",
              "bassOn": true,
              "chordRootUpperLimit": 1,
              "noteLowLimit": 26,
              "noteHighLimit": 127,
              "rtr": "PITCH_SHIFT_TO_ROOT"
            },
            "ctb2High": null
          },
          "notes": [
            {
              "pitch": 36,
              "velocity": 60,
              "position": 0,
              "duration": 1.5083333333333333
            },
            {
              "pitch": 48,
              "velocity": 61,
              "position": 1.7083333333333333,
              "duration": 0.08333333333333333
            },
            {
              "pitch": 43,
              "velocity": 60,
              "position": 2,
              "duration": 1.5083333333333333
            },
            {
              "pitch": 48,
              "velocity": 60,
              "position": 3.7083333333333335,
              "duration": 0.08333333333333333
            },
            {
              "pitch": 36,
              "velocity": 60,
              "position": 4,
              "duration": 1.5
            },
            {
              "pitch": 48,
              "velocity": 50,
              "position": 5.708333333333333,
              "duration": 0.08333333333333333
            },
            {
              "pitch": 43,
              "velocity": 60,
              "position": 6,
              "duration": 1.5083333333333333
            },
            {
              "pitch": 48,
              "velocity": 40,
              "position": 7.708333333333333,
              "duration": 0.08333333333333333
            },
            {
              "pitch": 36,
              "velocity": 60,
              "position": 8,
              "duration": 1.5083333333333333
            },
            {
              "pitch": 48,
              "velocity": 61,
              "position": 9.708333333333334,
              "duration": 0.08333333333333333
            },
            {
              "pitch": 43,
              "velocity": 60,
              "position": 10,
              "duration": 1.5083333333333333
            },
            {
              "pitch": 48,
              "velocity": 50,
              "position": 11.708333333333334,
              "duration": 0.08333333333333333
            },
            {
              "pitch": 36,
              "velocity": 60,
              "position": 12,
              "duration": 1.5083333333333333
            },
            {
              "pitch": 48,
              "velocity": 61,
              "position": 13.708333333333334,
              "duration": 0.08333333333333333
            },
            {
              "pitch": 48,
              "velocity": 40,
              "position": 14.708333333333334,
              "duration": 0.08333333333333333
            },
            {
              "pitch": 40,
              "velocity": 60,
              "position": 14,
              "duration": 0.8333333333333334
            },
            {
              "pitch": 43,
              "velocity": 60,
              "position": 15,
              "duration": 0.8333333333333334
            }
          ]
        },
        "11": {
          "ctab": {
            "srcChannel": 11,
            "name": "E.Piano",
            "accType": "CHORD1",
            "editable": false,
            "mutedNotes": [],
            "mutedChords": [],
            "autoStart": false,
            "sourceChordNote": 0,
            "sourceChordType": "Maj7",
            "ctb2Low": null,
            "ctb2Main": {
              "ntr": "ROOT_FIXED",
              "ntt": "CHORD",
              "bassOn": false,
              "chordRootUpperLimit": 7,
              "noteLowLimit": 0,
              "noteHighLimit": 127,
              "rtr": "PITCH_SHIFT"
            },
            "ctb2High": null
          },
          "notes": [
            {
              "pitch": 55,
              "velocity": 79,
              "position": 0,
              "duration": 1.94375
            },
            {
              "pitch": 59,
              "velocity": 79,
              "position": 0.004166666666666667,
              "duration": 1.9541666666666666
            },
            {
              "pitch": 64,
              "velocity": 79,
              "position": 0.010416666666666666,
              "duration": 1.9520833333333334
            },
            {
              "pitch": 36,
              "velocity": 41,
              "position": 0,
              "duration": 1.9625
            },
            {
              "pitch": 52,
              "velocity": 32,
              "position": 0.0125,
              "duration": 1.9645833333333333
            },
            {
              "pitch": 43,
              "velocity": 38,
              "position": 2.0166666666666666,
              "duration": 1.93125
            },
            {
              "pitch": 59,
              "velocity": 70,
              "position": 2.0083333333333333,
              "duration": 1.95
            },
            {
              "pitch": 64,
              "velocity": 70,
              "position": 2,
              "duration": 1.9604166666666667
            },
            {
              "pitch": 55,
              "velocity": 70,
              "position": 2,
              "duration": 1.9625
            },
            {
              "pitch": 52,
              "velocity": 28,
              "position": 2.0083333333333333,
              "duration": 1.9625
            },
            {
              "pitch": 64,
              "velocity": 70,
              "position": 4,
              "duration": 1.9333333333333333
            },
            {
              "pitch": 59,
              "velocity": 70,
              "position": 4.00625,
              "duration": 1.9333333333333333
            },
            {
              "pitch": 55,
              "velocity": 70,
              "position": 4.002083333333333,
              "duration": 1.9416666666666667
            },
            {
              "pitch": 67,
              "velocity": 70,
              "position": 4.008333333333334,
              "duration": 1.95
            },
            {
              "pitch": 36,
              "velocity": 36,
              "position": 4,
              "duration": 1.9645833333333333
            },
            {
              "pitch": 59,
              "velocity": 75,
              "position": 6,
              "duration": 1.93125
            },
            {
              "pitch": 55,
              "velocity": 75,
              "position": 6.00625,
              "duration": 1.9333333333333333
            },
            {
              "pitch": 43,
              "velocity": 41,
              "position": 6.008333333333334,
              "duration": 1.9520833333333334
            },
            {
              "pitch": 64,
              "velocity": 75,
              "position": 6,
              "duration": 1.9604166666666667
            },
            {
              "pitch": 67,
              "velocity": 75,
              "position": 6.0125,
              "duration": 1.95
            },
            {
              "pitch": 67,
              "velocity": 80,
              "position": 8,
              "duration": 1.9333333333333333
            },
            {
              "pitch": 64,
              "velocity": 80,
              "position": 8.002083333333333,
              "duration": 1.93125
            },
            {
              "pitch": 36,
              "velocity": 35,
              "position": 8.004166666666666,
              "duration": 1.9479166666666667
            },
            {
              "pitch": 71,
              "velocity": 80,
              "position": 8.002083333333333,
              "duration": 1.9520833333333334
            },
            {
              "pitch": 59,
              "velocity": 80,
              "position": 8.008333333333333,
              "duration": 1.9645833333333333
            },
            {
              "pitch": 55,
              "velocity": 70,
              "position": 10,
              "duration": 1.93125
            },
            {
              "pitch": 64,
              "velocity": 70,
              "position": 10,
              "duration": 1.9354166666666666
            },
            {
              "pitch": 67,
              "velocity": 70,
              "position": 10.008333333333333,
              "duration": 1.95
            },
            {
              "pitch": 59,
              "velocity": 70,
              "position": 10.002083333333333,
              "duration": 1.95625
            },
            {
              "pitch": 43,
              "velocity": 38,
              "position": 10.00625,
              "duration": 1.9645833333333333
            },
            {
              "pitch": 52,
              "velocity": 28,
              "position": 12.002083333333333,
              "duration": 1.9333333333333333
            },
            {
              "pitch": 64,
              "velocity": 70,
              "position": 12,
              "duration": 1.9479166666666667
            },
            {
              "pitch": 59,
              "velocity": 70,
              "position": 12.010416666666666,
              "duration": 1.9458333333333333
            },
            {
              "pitch": 55,
              "velocity": 70,
              "position": 12.00625,
              "duration": 1.95625
            },
            {
              "pitch": 36,
              "velocity": 41,
              "position": 12,
              "duration": 1.96875
            },
            {
              "pitch": 55,
              "velocity": 75,
              "position": 14.00625,
              "duration": 1.95
            },
            {
              "pitch": 52,
              "velocity": 30,
              "position": 14,
              "duration": 1.9583333333333333
            },
            {
              "pitch": 59,
              "velocity": 75,
              "position": 14.00625,
              "duration": 1.9541666666666666
            },
            {
              "pitch": 43,
              "velocity": 36,
              "position": 14.014583333333333,
              "duration": 1.9458333333333333
            },
            {
              "pitch": 64,
              "velocity": 75,
              "position": 14.002083333333333,
              "duration": 1.9645833333333333
            }
          ]
        },
        "12": {
          "ctab": {
            "srcChannel": 12,
            "name": "JazzGtr",
            "accType": "CHORD2",
            "editable": false,
            "mutedNotes": [],
            "mutedChords": [],
            "autoStart": false,
            "sourceChordNote": 0,
            "sourceChordType": "Maj7",
            "ctb2Low": null,
            "ctb2Main": {
              "ntr": "ROOT_TRANSPOSITION",
              "ntt": "MELODY",
              "bassOn": false,
              "chordRootUpperLimit": 7,
              "noteLowLimit": 0,
              "noteHighLimit": 127,
              "rtr": "PITCH_SHIFT"
            },
            "ctb2High": null
          },
          "notes": [
            {
              "pitch": 64,
              "velocity": 28,
              "position": 0.7,
              "duration": 0.26458333333333334
            },
            {
              "pitch": 67,
              "velocity": 29,
              "position": 0.7,
              "duration": 0.26666666666666666
            },
            {
              "pitch": 71,
              "velocity": 29,
              "position": 0.7,
              "duration": 0.26666666666666666
            },
            {
              "pitch": 55,
              "velocity": 30,
              "position": 0.7020833333333333,
              "duration": 0.26666666666666666
            },
            {
              "pitch": 59,
              "velocity": 30,
              "position": 0.7020833333333333,
              "duration": 0.26666666666666666
            },
            {
              "pitch": 60,
              "velocity": 30,
              "position": 0.7229166666666667,
              "duration": 0.25625
            },
            {
              "pitch": 67,
              "velocity": 41,
              "position": 2,
              "duration": 1.7145833333333333
            },
            {
              "pitch": 71,
              "velocity": 41,
              "position": 2,
              "duration": 1.7145833333333333
            },
            {
              "pitch": 60,
              "velocity": 41,
              "position": 2.01875,
              "duration": 1.7041666666666666
            },
            {
              "pitch": 64,
              "velocity": 42,
              "position": 2.0145833333333334,
              "duration": 1.7125
            },
            {
              "pitch": 55,
              "velocity": 41,
              "position": 2.0083333333333333,
              "duration": 1.7208333333333334
            },
            {
              "pitch": 59,
              "velocity": 41,
              "position": 2.0083333333333333,
              "duration": 1.7208333333333334
            },
            {
              "pitch": 67,
              "velocity": 31,
              "position": 4.025,
              "duration": 1.90625
            },
            {
              "pitch": 71,
              "velocity": 31,
              "position": 4.025,
              "duration": 1.90625
            },
            {
              "pitch": 60,
              "velocity": 31,
              "position": 4.054166666666666,
              "duration": 1.9104166666666667
            },
            {
              "pitch": 64,
              "velocity": 30,
              "position": 4.052083333333333,
              "duration": 1.9125
            },
            {
              "pitch": 55,
              "velocity": 28,
              "position": 4.0375,
              "duration": 1.9375
            },
            {
              "pitch": 59,
              "velocity": 28,
              "position": 4.0375,
              "duration": 1.9375
            },
            {
              "pitch": 64,
              "velocity": 43,
              "position": 6.708333333333333,
              "duration": 1.0375
            },
            {
              "pitch": 60,
              "velocity": 41,
              "position": 6.729166666666667,
              "duration": 1.0416666666666667
            },
            {
              "pitch": 67,
              "velocity": 40,
              "position": 6.725,
              "duration": 1.0520833333333333
            },
            {
              "pitch": 71,
              "velocity": 40,
              "position": 6.725,
              "duration": 1.0520833333333333
            },
            {
              "pitch": 55,
              "velocity": 42,
              "position": 6.733333333333333,
              "duration": 1.0520833333333333
            },
            {
              "pitch": 59,
              "velocity": 42,
              "position": 6.733333333333333,
              "duration": 1.0520833333333333
            },
            {
              "pitch": 64,
              "velocity": 30,
              "position": 8.689583333333333,
              "duration": 0.23541666666666666
            },
            {
              "pitch": 67,
              "velocity": 30,
              "position": 8.691666666666666,
              "duration": 0.2520833333333333
            },
            {
              "pitch": 71,
              "velocity": 30,
              "position": 8.691666666666666,
              "duration": 0.2520833333333333
            },
            {
              "pitch": 55,
              "velocity": 30,
              "position": 8.704166666666667,
              "duration": 0.25625
            },
            {
              "pitch": 59,
              "velocity": 30,
              "position": 8.704166666666667,
              "duration": 0.25625
            },
            {
              "pitch": 60,
              "velocity": 30,
              "position": 8.702083333333333,
              "duration": 0.2625
            },
            {
              "pitch": 64,
              "velocity": 39,
              "position": 9.989583333333334,
              "duration": 1.7
            },
            {
              "pitch": 60,
              "velocity": 39,
              "position": 9.997916666666667,
              "duration": 1.70625
            },
            {
              "pitch": 55,
              "velocity": 39,
              "position": 10.010416666666666,
              "duration": 1.7020833333333334
            },
            {
              "pitch": 59,
              "velocity": 39,
              "position": 10.010416666666666,
              "duration": 1.7020833333333334
            },
            {
              "pitch": 67,
              "velocity": 39,
              "position": 10.01875,
              "duration": 1.7166666666666666
            },
            {
              "pitch": 71,
              "velocity": 39,
              "position": 10.01875,
              "duration": 1.7166666666666666
            },
            {
              "pitch": 60,
              "velocity": 30,
              "position": 12.035416666666666,
              "duration": 1.9229166666666666
            },
            {
              "pitch": 55,
              "velocity": 31,
              "position": 12.03125,
              "duration": 1.9291666666666667
            },
            {
              "pitch": 59,
              "velocity": 31,
              "position": 12.03125,
              "duration": 1.9291666666666667
            },
            {
              "pitch": 64,
              "velocity": 30,
              "position": 12.029166666666667,
              "duration": 1.93125
            },
            {
              "pitch": 67,
              "velocity": 32,
              "position": 12.041666666666666,
              "duration": 1.9416666666666667
            },
            {
              "pitch": 71,
              "velocity": 32,
              "position": 12.041666666666666,
              "duration": 1.9416666666666667
            },
            {
              "pitch": 67,
              "velocity": 40,
              "position": 14.695833333333333,
              "duration": 1.0416666666666667
            },
            {
              "pitch": 71,
              "velocity": 40,
              "position": 14.695833333333333,
              "duration": 1.0416666666666667
            },
            {
              "pitch": 64,
              "velocity": 41,
              "position": 14.702083333333333,
              "duration": 1.0416666666666667
            },
            {
              "pitch": 60,
              "velocity": 41,
              "position": 14.71875,
              "duration": 1.0270833333333333
            },
            {
              "pitch": 55,
              "velocity": 42,
              "position": 14.710416666666667,
              "duration": 1.0479166666666666
            },
            {
              "pitch": 59,
              "velocity": 42,
              "position": 14.710416666666667,
              "duration": 1.0479166666666666
            }
          ]
        },
        "13": {
          "ctab": {
            "srcChannel": 13,
            "name": "Strings",
            "accType": "PAD",
            "editable": false,
            "mutedNotes": [],
            "mutedChords": [],
            "autoStart": false,
            "sourceChordNote": 0,
            "sourceChordType": "Maj7",
            "ctb2Low": null,
            "ctb2Main": {
              "ntr": "ROOT_FIXED",
              "ntt": "CHORD",
              "bassOn": false,
              "chordRootUpperLimit": 7,
              "noteLowLimit": 0,
              "noteHighLimit": 127,
              "rtr": "PITCH_SHIFT"
            },
            "ctb2High": null
          },
          "notes": [
            {
              "pitch": 55,
              "velocity": 25,
              "position": 0.010416666666666666,
              "duration": 15.958333333333334
            },
            {
              "pitch": 76,
              "velocity": 21,
              "position": 0.010416666666666666,
              "duration": 15.958333333333334
            },
            {
              "pitch": 64,
              "velocity": 25,
              "position": 0.010416666666666666,
              "duration": 15.958333333333334
            },
            {
              "pitch": 59,
              "velocity": 25,
              "position": 0.010416666666666666,
              "duration": 15.958333333333334
            }
          ]
        },
        "15": {
          "ctab": {
            "srcChannel": 15,
            "name": "BalladDX",
            "accType": "PHRASE2",
            "editable": false,
            "mutedNotes": [],
            "mutedChords": [],
            "autoStart": false,
            "sourceChordNote": 0,
            "sourceChordType": "Maj7",
            "ctb2Low": null,
            "ctb2Main": {
              "ntr": "ROOT_FIXED",
              "ntt": "CHORD",
              "bassOn": false,
              "chordRootUpperLimit": 7,
              "noteLowLimit": 0,
              "noteHighLimit": 127,
              "rtr": "PITCH_SHIFT"
            },
            "ctb2High": null
          },
          "notes": [
            {
              "pitch": 55,
              "velocity": 76,
              "position": 0,
              "duration": 1.94375
            },
            {
              "pitch": 59,
              "velocity": 76,
              "position": 0.004166666666666667,
              "duration": 1.9541666666666666
            },
            {
              "pitch": 64,
              "velocity": 76,
              "position": 0.010416666666666666,
              "duration": 1.9520833333333334
            },
            {
              "pitch": 36,
              "velocity": 30,
              "position": 0,
              "duration": 1.9625
            },
            {
              "pitch": 52,
              "velocity": 24,
              "position": 0.0125,
              "duration": 1.9645833333333333
            },
            {
              "pitch": 43,
              "velocity": 30,
              "position": 2.0166666666666666,
              "duration": 1.93125
            },
            {
              "pitch": 59,
              "velocity": 44,
              "position": 2.0083333333333333,
              "duration": 1.95
            },
            {
              "pitch": 64,
              "velocity": 44,
              "position": 2,
              "duration": 1.9604166666666667
            },
            {
              "pitch": 55,
              "velocity": 44,
              "position": 2,
              "duration": 1.9625
            },
            {
              "pitch": 52,
              "velocity": 24,
              "position": 2.0083333333333333,
              "duration": 1.9625
            },
            {
              "pitch": 64,
              "velocity": 44,
              "position": 4,
              "duration": 1.9333333333333333
            },
            {
              "pitch": 59,
              "velocity": 44,
              "position": 4.00625,
              "duration": 1.9333333333333333
            },
            {
              "pitch": 55,
              "velocity": 44,
              "position": 4.002083333333333,
              "duration": 1.9416666666666667
            },
            {
              "pitch": 67,
              "velocity": 44,
              "position": 4.008333333333334,
              "duration": 1.95
            },
            {
              "pitch": 36,
              "velocity": 30,
              "position": 4,
              "duration": 1.9645833333333333
            },
            {
              "pitch": 59,
              "velocity": 62,
              "position": 6,
              "duration": 1.93125
            },
            {
              "pitch": 55,
              "velocity": 62,
              "position": 6.00625,
              "duration": 1.9333333333333333
            },
            {
              "pitch": 43,
              "velocity": 30,
              "position": 6.008333333333334,
              "duration": 1.9520833333333334
            },
            {
              "pitch": 64,
              "velocity": 62,
              "position": 6,
              "duration": 1.9604166666666667
            },
            {
              "pitch": 67,
              "velocity": 62,
              "position": 6.0125,
              "duration": 1.95
            },
            {
              "pitch": 67,
              "velocity": 79,
              "position": 8,
              "duration": 1.9333333333333333
            },
            {
              "pitch": 64,
              "velocity": 79,
              "position": 8.002083333333333,
              "duration": 1.93125
            },
            {
              "pitch": 36,
              "velocity": 30,
              "position": 8.004166666666666,
              "duration": 1.9479166666666667
            },
            {
              "pitch": 71,
              "velocity": 79,
              "position": 8.002083333333333,
              "duration": 1.9520833333333334
            },
            {
              "pitch": 59,
              "velocity": 79,
              "position": 8.008333333333333,
              "duration": 1.9645833333333333
            },
            {
              "pitch": 55,
              "velocity": 44,
              "position": 10,
              "duration": 1.93125
            },
            {
              "pitch": 64,
              "velocity": 44,
              "position": 10,
              "duration": 1.9354166666666666
            },
            {
              "pitch": 67,
              "velocity": 44,
              "position": 10.008333333333333,
              "duration": 1.95
            },
            {
              "pitch": 59,
              "velocity": 44,
              "position": 10.002083333333333,
              "duration": 1.95625
            },
            {
              "pitch": 43,
              "velocity": 30,
              "position": 10.00625,
              "duration": 1.9645833333333333
            },
            {
              "pitch": 52,
              "velocity": 24,
              "position": 12.002083333333333,
              "duration": 1.9333333333333333
            },
            {
              "pitch": 64,
              "velocity": 44,
              "position": 12,
              "duration": 1.9479166666666667
            },
            {
              "pitch": 59,
              "velocity": 44,
              "position": 12.010416666666666,
              "duration": 1.9458333333333333
            },
            {
              "pitch": 55,
              "velocity": 44,
              "position": 12.00625,
              "duration": 1.95625
            },
            {
              "pitch": 36,
              "velocity": 30,
              "position": 12,
              "duration": 1.96875
            },
            {
              "pitch": 55,
              "velocity": 62,
              "position": 14.00625,
              "duration": 1.95
            },
            {
              "pitch": 52,
              "velocity": 24,
              "position": 14,
              "duration": 1.9583333333333333
            },
            {
              "pitch": 59,
              "velocity": 62,
              "position": 14.00625,
              "duration": 1.9541666666666666
            },
            {
              "pitch": 43,
              "velocity": 30,
              "position": 14.014583333333333,
              "duration": 1.9458333333333333
            },
            {
              "pitch": 64,
              "velocity": 62,
              "position": 14.002083333333333,
              "duration": 1.9645833333333333
            }
          ]
        }
      }
    },
    "Fill_In_AA": {
      "type": "Fill_In_AA",
      "sizeInBeats": 4,
      "channels": {
        "4": {
          "ctab": {
            "srcChannel": 4,
            "name": "Str  rt",
            "accType": "PAD",
            "editable": false,
            "mutedNotes": [],
            "mutedChords": [
              "1+2+5",
              "sus4",
              "1+5",
              "1+8",
              "Maj7aug",
              "dim",
              "minMaj7(9)",
              "minMaj7",
              "min6",
              "min",
              "aug",
              "Maj7(9)",
              "Maj7#11",
              "Maj7",
              "Maj6",
              "Maj"
            ],
            "autoStart": false,
            "sourceChordNote": 0,
            "sourceChordType": "Maj7",
            "ctb2Low": null,
            "ctb2Main": {
              "ntr": "ROOT_TRANSPOSITION",
              "ntt": "CHORD",
              "bassOn": false,
              "chordRootUpperLimit": 6,
              "noteLowLimit": 0,
              "noteHighLimit": 127,
              "rtr": "PITCH_SHIFT"
            },
            "ctb2High": null
          },
          "notes": []
        },
        "8": {
          "ctab": {
            "srcChannel": 8,
            "name": "AddDrum",
            "accType": "SUBRHYTHM",
            "editable": false,
            "mutedNotes": [],
            "mutedChords": [],
            "autoStart": true,
            "sourceChordNote": 0,
            "sourceChordType": "Maj7",
            "ctb2Low": null,
            "ctb2Main": {
              "ntr": "ROOT_FIXED",
              "ntt": "BYPASS",
              "bassOn": false,
              "chordRootUpperLimit": 6,
              "noteLowLimit": 0,
              "noteHighLimit": 127,
              "rtr": "PITCH_SHIFT"
            },
            "ctb2High": null
          },
          "notes": []
        },
        "9": {
          "ctab": {
            "srcChannel": 9,
            "name": "MainDrum",
            "accType": "RHYTHM",
            "editable": false,
            "mutedNotes": [],
            "mutedChords": [],
            "autoStart": true,
            "sourceChordNote": 0,
            "sourceChordType": "Maj7",
            "ctb2Low": null,
            "ctb2Main": {
              "ntr": "ROOT_FIXED",
              "ntt": "BYPASS",
              "bassOn": false,
              "chordRootUpperLimit": 6,
              "noteLowLimit": 0,
              "noteHighLimit": 127,
              "rtr": "PITCH_SHIFT"
            },
            "ctb2High": null
          },
          "notes": [
            {
              "pitch": 33,
              "velocity": 70,
              "position": 0,
              "duration": 0.020833333333333332
            },
            {
              "pitch": 51,
              "velocity": 50,
              "position": 0,
              "duration": 0.020833333333333332
            },
            {
              "pitch": 44,
              "velocity": 40,
              "position": 1,
              "duration": 0.020833333333333332
            },
            {
              "pitch": 33,
              "velocity": 70,
              "position": 1.6666666666666667,
              "duration": 0.020833333333333332
            },
            {
              "pitch": 51,
              "velocity": 50,
              "position": 1.6666666666666667,
              "duration": 0.020833333333333332
            },
            {
              "pitch": 40,
              "velocity": 41,
              "position": 2.6666666666666665,
              "duration": 0.020833333333333332
            },
            {
              "pitch": 51,
              "velocity": 30,
              "position": 2.7083333333333335,
              "duration": 0.020833333333333332
            },
            {
              "pitch": 44,
              "velocity": 40,
              "position": 3,
              "duration": 0.020833333333333332
            },
            {
              "pitch": 51,
              "velocity": 50,
              "position": 3,
              "duration": 0.020833333333333332
            },
            {
              "pitch": 31,
              "velocity": 20,
              "position": 3.3333333333333335,
              "duration": 0.020833333333333332
            },
            {
              "pitch": 33,
              "velocity": 40,
              "position": 3.6666666666666665,
              "duration": 0.020833333333333332
            },
            {
              "pitch": 49,
              "velocity": 60,
              "position": 3.9895833333333335,
              "duration": 0.004166666666666667
            }
          ]
        },
        "10": {
          "ctab": {
            "srcChannel": 10,
            "name": "Bass",
            "accType": "BASS",
            "editable": false,
            "mutedNotes": [],
            "mutedChords": [],
            "autoStart": false,
            "sourceChordNote": 0,
            "sourceChordType": "Maj7",
            "ctb2Low": null,
            "ctb2Main": {
              "ntr": "ROOT_TRANSPOSITION",
              "ntt": "MELODY",
              "bassOn": true,
              "chordRootUpperLimit": 1,
              "noteLowLimit": 26,
              "noteHighLimit": 127,
              "rtr": "PITCH_SHIFT_TO_ROOT"
            },
            "ctb2High": null
          },
          "notes": [
            {
              "pitch": 36,
              "velocity": 60,
              "position": 0,
              "duration": 1.5083333333333333
            },
            {
              "pitch": 36,
              "velocity": 60,
              "position": 1.6666666666666667,
              "duration": 2.158333333333333
            }
          ]
        },
        "11": {
          "ctab": {
            "srcChannel": 11,
            "name": "E.Piano",
            "accType": "CHORD1",
            "editable": false,
            "mutedNotes": [],
            "mutedChords": [],
            "autoStart": false,
            "sourceChordNote": 0,
            "sourceChordType": "Maj7",
            "ctb2Low": null,
            "ctb2Main": {
              "ntr": "ROOT_FIXED",
              "ntt": "CHORD",
              "bassOn": false,
              "chordRootUpperLimit": 7,
              "noteLowLimit": 0,
              "noteHighLimit": 127,
              "rtr": "PITCH_SHIFT"
            },
            "ctb2High": null
          },
          "notes": [
            {
              "pitch": 36,
              "velocity": 52,
              "position": 0.004166666666666667,
              "duration": 1.4208333333333334
            },
            {
              "pitch": 64,
              "velocity": 70,
              "position": 0,
              "duration": 1.43125
            },
            {
              "pitch": 59,
              "velocity": 70,
              "position": 0,
              "duration": 1.4625
            },
            {
              "pitch": 67,
              "velocity": 70,
              "position": 0,
              "duration": 1.4625
            },
            {
              "pitch": 55,
              "velocity": 70,
              "position": 0.004166666666666667,
              "duration": 1.46875
            },
            {
              "pitch": 59,
              "velocity": 85,
              "position": 1.66875,
              "duration": 1.9291666666666667
            },
            {
              "pitch": 55,
              "velocity": 85,
              "position": 1.6729166666666666,
              "duration": 1.9416666666666667
            },
            {
              "pitch": 64,
              "velocity": 85,
              "position": 1.6729166666666666,
              "duration": 1.9458333333333333
            },
            {
              "pitch": 67,
              "velocity": 85,
              "position": 1.6770833333333333,
              "duration": 1.96875
            },
            {
              "pitch": 36,
              "velocity": 52,
              "position": 1.6708333333333334,
              "duration": 2.0125
            }
          ]
        },
        "12": {
          "ctab": {
            "srcChannel": 12,
            "name": "JazzGtr",
            "accType": "CHORD2",
            "editable": false,
            "mutedNotes": [],
            "mutedChords": [],
            "autoStart": false,
            "sourceChordNote": 0,
            "sourceChordType": "Maj7",
            "ctb2Low": null,
            "ctb2Main": {
              "ntr": "ROOT_TRANSPOSITION",
              "ntt": "MELODY",
              "bassOn": false,
              "chordRootUpperLimit": 7,
              "noteLowLimit": 0,
              "noteHighLimit": 127,
              "rtr": "PITCH_SHIFT"
            },
            "ctb2High": null
          },
          "notes": [
            {
              "pitch": 55,
              "velocity": 17,
              "position": 0,
              "duration": 0.9104166666666667
            },
            {
              "pitch": 59,
              "velocity": 17,
              "position": 0,
              "duration": 0.9104166666666667
            },
            {
              "pitch": 60,
              "velocity": 16,
              "position": 0.014583333333333334,
              "duration": 0.9020833333333333
            },
            {
              "pitch": 64,
              "velocity": 17,
              "position": 0.0375,
              "duration": 0.8916666666666667
            },
            {
              "pitch": 67,
              "velocity": 17,
              "position": 0.08541666666666667,
              "duration": 0.9041666666666667
            },
            {
              "pitch": 71,
              "velocity": 17,
              "position": 0.08541666666666667,
              "duration": 0.9041666666666667
            },
            {
              "pitch": 55,
              "velocity": 39,
              "position": 1.6666666666666667,
              "duration": 1.9083333333333334
            },
            {
              "pitch": 59,
              "velocity": 39,
              "position": 1.6666666666666667,
              "duration": 1.9083333333333334
            },
            {
              "pitch": 64,
              "velocity": 43,
              "position": 1.7041666666666666,
              "duration": 1.8958333333333333
            },
            {
              "pitch": 60,
              "velocity": 41,
              "position": 1.6958333333333333,
              "duration": 1.91875
            },
            {
              "pitch": 67,
              "velocity": 43,
              "position": 1.7520833333333334,
              "duration": 1.9125
            },
            {
              "pitch": 71,
              "velocity": 43,
              "position": 1.7520833333333334,
              "duration": 1.9125
            }
          ]
        },
        "13": {
          "ctab": {
            "srcChannel": 13,
            "name": "Strings",
            "accType": "PAD",
            "editable": false,
            "mutedNotes": [],
            "mutedChords": [],
            "autoStart": false,
            "sourceChordNote": 0,
            "sourceChordType": "Maj7",
            "ctb2Low": null,
            "ctb2Main": {
              "ntr": "ROOT_FIXED",
              "ntt": "CHORD",
              "bassOn": false,
              "chordRootUpperLimit": 7,
              "noteLowLimit": 0,
              "noteHighLimit": 127,
              "rtr": "PITCH_SHIFT"
            },
            "ctb2High": null
          },
          "notes": []
        },
        "15": {
          "ctab": {
            "srcChannel": 15,
            "name": "BalladDX",
            "accType": "PHRASE2",
            "editable": false,
            "mutedNotes": [],
            "mutedChords": [],
            "autoStart": false,
            "sourceChordNote": 0,
            "sourceChordType": "Maj7",
            "ctb2Low": null,
            "ctb2Main": {
              "ntr": "ROOT_FIXED",
              "ntt": "CHORD",
              "bassOn": false,
              "chordRootUpperLimit": 7,
              "noteLowLimit": 0,
              "noteHighLimit": 127,
              "rtr": "PITCH_SHIFT"
            },
            "ctb2High": null
          },
          "notes": [
            {
              "pitch": 36,
              "velocity": 30,
              "position": 0.004166666666666667,
              "duration": 1.4208333333333334
            },
            {
              "pitch": 64,
              "velocity": 44,
              "position": 0,
              "duration": 1.43125
            },
            {
              "pitch": 59,
              "velocity": 44,
              "position": 0,
              "duration": 1.4625
            },
            {
              "pitch": 67,
              "velocity": 44,
              "position": 0,
              "duration": 1.4625
            },
            {
              "pitch": 55,
              "velocity": 44,
              "position": 0.004166666666666667,
              "duration": 1.46875
            },
            {
              "pitch": 59,
              "velocity": 97,
              "position": 1.66875,
              "duration": 1.9291666666666667
            },
            {
              "pitch": 55,
              "velocity": 97,
              "position": 1.6729166666666666,
              "duration": 1.9416666666666667
            },
            {
              "pitch": 64,
              "velocity": 97,
              "position": 1.6729166666666666,
              "duration": 1.9458333333333333
            },
            {
              "pitch": 67,
              "velocity": 97,
              "position": 1.6770833333333333,
              "duration": 1.96875
            },
            {
              "pitch": 36,
              "velocity": 30,
              "position": 1.6708333333333334,
              "duration": 2.0125
            }
          ]
        }
      }
    },
    "Fill_In_BB": {
      "type": "Fill_In_BB",
      "sizeInBeats": 4,
      "channels": {
        "4": {
          "ctab": {
            "srcChannel": 4,
            "name": "Str  rt",
            "accType": "PAD",
            "editable": false,
            "mutedNotes": [],
            "mutedChords": [
              "1+2+5",
              "sus4",
              "1+5",
              "1+8",
              "Maj7aug",
              "dim",
              "minMaj7(9)",
              "minMaj7",
              "min6",
              "min",
              "aug",
              "Maj7(9)",
              "Maj7#11",
              "Maj7",
              "Maj6",
              "Maj"
            ],
            "autoStart": false,
            "sourceChordNote": 0,
            "sourceChordType": "Maj7",
            "ctb2Low": null,
            "ctb2Main": {
              "ntr": "ROOT_TRANSPOSITION",
              "ntt": "CHORD",
              "bassOn": false,
              "chordRootUpperLimit": 6,
              "noteLowLimit": 0,
              "noteHighLimit": 127,
              "rtr": "PITCH_SHIFT"
            },
            "ctb2High": null
          },
          "notes": [
            {
              "pitch": 60,
              "velocity": 25,
              "position": 0.010416666666666666,
              "duration": 3.9583333333333335
            }
          ]
        },
        "8": {
          "ctab": {
            "srcChannel": 8,
            "name": "AddDrum",
            "accType": "SUBRHYTHM",
            "editable": false,
            "mutedNotes": [],
            "mutedChords": [],
            "autoStart": true,
            "sourceChordNote": 0,
            "sourceChordType": "Maj7",
            "ctb2Low": null,
            "ctb2Main": {
              "ntr": "ROOT_FIXED",
              "ntt": "BYPASS",
              "bassOn": false,
              "chordRootUpperLimit": 6,
              "noteLowLimit": 0,
              "noteHighLimit": 127,
              "rtr": "PITCH_SHIFT"
            },
            "ctb2High": null
          },
          "notes": [
            {
              "pitch": 73,
              "velocity": 46,
              "position": 1,
              "duration": 0.020833333333333332
            },
            {
              "pitch": 73,
              "velocity": 46,
              "position": 3,
              "duration": 0.020833333333333332
            }
          ]
        },
        "9": {
          "ctab": {
            "srcChannel": 9,
            "name": "MainDrum",
            "accType": "RHYTHM",
            "editable": false,
            "mutedNotes": [],
            "mutedChords": [],
            "autoStart": true,
            "sourceChordNote": 0,
            "sourceChordType": "Maj7",
            "ctb2Low": null,
            "ctb2Main": {
              "ntr": "ROOT_FIXED",
              "ntt": "BYPASS",
              "bassOn": false,
              "chordRootUpperLimit": 6,
              "noteLowLimit": 0,
              "noteHighLimit": 127,
              "rtr": "PITCH_SHIFT"
            },
            "ctb2High": null
          },
          "notes": [
            {
              "pitch": 33,
              "velocity": 70,
              "position": 0,
              "duration": 0.020833333333333332
            },
            {
              "pitch": 51,
              "velocity": 50,
              "position": 0,
              "duration": 0.020833333333333332
            },
            {
              "pitch": 44,
              "velocity": 30,
              "position": 0,
              "duration": 0.020833333333333332
            },
            {
              "pitch": 31,
              "velocity": 18,
              "position": 0.6666666666666666,
              "duration": 0.020833333333333332
            },
            {
              "pitch": 40,
              "velocity": 37,
              "position": 1,
              "duration": 0.020833333333333332
            },
            {
              "pitch": 51,
              "velocity": 50,
              "position": 1,
              "duration": 0.020833333333333332
            },
            {
              "pitch": 44,
              "velocity": 50,
              "position": 1,
              "duration": 0.020833333333333332
            },
            {
              "pitch": 33,
              "velocity": 70,
              "position": 1.6666666666666667,
              "duration": 0.020833333333333332
            },
            {
              "pitch": 51,
              "velocity": 50,
              "position": 1.6666666666666667,
              "duration": 0.020833333333333332
            },
            {
              "pitch": 44,
              "velocity": 30,
              "position": 2,
              "duration": 0.020833333333333332
            },
            {
              "pitch": 40,
              "velocity": 8,
              "position": 2.3333333333333335,
              "duration": 0.020833333333333332
            },
            {
              "pitch": 40,
              "velocity": 50,
              "position": 2.6666666666666665,
              "duration": 0.020833333333333332
            },
            {
              "pitch": 44,
              "velocity": 50,
              "position": 3,
              "duration": 0.020833333333333332
            },
            {
              "pitch": 51,
              "velocity": 50,
              "position": 3,
              "duration": 0.020833333333333332
            },
            {
              "pitch": 31,
              "velocity": 14,
              "position": 3.3333333333333335,
              "duration": 0.020833333333333332
            },
            {
              "pitch": 33,
              "velocity": 40,
              "position": 3.6666666666666665,
              "duration": 0.020833333333333332
            },
            {
              "pitch": 51,
              "velocity": 30,
              "position": 3.6666666666666665,
              "duration": 0.020833333333333332
            },
            {
              "pitch": 49,
              "velocity": 60,
              "position": 3.9895833333333335,
              "duration": 0.004166666666666667
            }
          ]
        },
        "10": {
          "ctab": {
            "srcChannel": 10,
            "name": "Bass",
            "accType": "BASS",
            "editable": false,
            "mutedNotes": [],
            "mutedChords": [],
            "autoStart": false,
            "sourceChordNote": 0,
            "sourceChordType": "Maj7",
            "ctb2Low": null,
            "ctb2Main": {
              "ntr": "ROOT_TRANSPOSITION",
              "ntt": "MELODY",
              "bassOn": true,
              "chordRootUpperLimit": 1,
              "noteLowLimit": 26,
              "noteHighLimit": 127,
              "rtr": "PITCH_SHIFT_TO_ROOT"
            },
            "ctb2High": null
          },
          "notes": [
            {
              "pitch": 36,
              "velocity": 60,
              "position": 0,
              "duration": 1.0833333333333333
            },
            {
              "pitch": 36,
              "velocity": 90,
              "position": 1.3333333333333333,
              "duration": 0.175
            },
            {
              "pitch": 36,
              "velocity": 60,
              "position": 1.6666666666666667,
              "duration": 0.9583333333333334
            },
            {
              "pitch": 48,
              "velocity": 40,
              "position": 2.7083333333333335,
              "duration": 0.08333333333333333
            },
            {
              "pitch": 43,
              "velocity": 60,
              "position": 3,
              "duration": 0.8333333333333334
            }
          ]
        },
        "11": {
          "ctab": {
            "srcChannel": 11,
            "name": "E.Piano",
            "accType": "CHORD1",
            "editable": false,
            "mutedNotes": [],
            "mutedChords": [],
            "autoStart": false,
            "sourceChordNote": 0,
            "sourceChordType": "Maj7",
            "ctb2Low": null,
            "ctb2Main": {
              "ntr": "ROOT_FIXED",
              "ntt": "CHORD",
              "bassOn": false,
              "chordRootUpperLimit": 7,
              "noteLowLimit": 0,
              "noteHighLimit": 127,
              "rtr": "PITCH_SHIFT"
            },
            "ctb2High": null
          },
          "notes": [
            {
              "pitch": 52,
              "velocity": 32,
              "position": 0.0020833333333333333,
              "duration": 1.3916666666666666
            },
            {
              "pitch": 64,
              "velocity": 70,
              "position": 0,
              "duration": 1.40625
            },
            {
              "pitch": 59,
              "velocity": 70,
              "position": 0.010416666666666666,
              "duration": 1.4041666666666666
            },
            {
              "pitch": 55,
              "velocity": 70,
              "position": 0.00625,
              "duration": 1.4145833333333333
            },
            {
              "pitch": 36,
              "velocity": 41,
              "position": 0,
              "duration": 1.4270833333333333
            },
            {
              "pitch": 59,
              "velocity": 85,
              "position": 1.6729166666666666,
              "duration": 2.125
            },
            {
              "pitch": 55,
              "velocity": 85,
              "position": 1.6666666666666667,
              "duration": 2.1333333333333333
            },
            {
              "pitch": 64,
              "velocity": 85,
              "position": 1.6729166666666666,
              "duration": 2.129166666666667
            },
            {
              "pitch": 36,
              "velocity": 36,
              "position": 1.68125,
              "duration": 2.120833333333333
            },
            {
              "pitch": 67,
              "velocity": 85,
              "position": 1.66875,
              "duration": 2.1395833333333334
            }
          ]
        },
        "12": {
          "ctab": {
            "srcChannel": 12,
            "name": "JazzGtr",
            "accType": "CHORD2",
            "editable": false,
            "mutedNotes": [],
            "mutedChords": [],
            "autoStart": false,
            "sourceChordNote": 0,
            "sourceChordType": "Maj7",
            "ctb2Low": null,
            "ctb2Main": {
              "ntr": "ROOT_TRANSPOSITION",
              "ntt": "MELODY",
              "bassOn": false,
              "chordRootUpperLimit": 7,
              "noteLowLimit": 0,
              "noteHighLimit": 127,
              "rtr": "PITCH_SHIFT"
            },
            "ctb2High": null
          },
          "notes": [
            {
              "pitch": 60,
              "velocity": 30,
              "position": 0.035416666666666666,
              "duration": 0.9229166666666667
            },
            {
              "pitch": 55,
              "velocity": 31,
              "position": 0.03125,
              "duration": 0.9291666666666667
            },
            {
              "pitch": 59,
              "velocity": 31,
              "position": 0.03125,
              "duration": 0.9291666666666667
            },
            {
              "pitch": 64,
              "velocity": 30,
              "position": 0.029166666666666667,
              "duration": 0.93125
            },
            {
              "pitch": 67,
              "velocity": 32,
              "position": 0.041666666666666664,
              "duration": 0.9416666666666667
            },
            {
              "pitch": 71,
              "velocity": 32,
              "position": 0.041666666666666664,
              "duration": 0.9416666666666667
            },
            {
              "pitch": 67,
              "velocity": 40,
              "position": 1.6520833333333333,
              "duration": 2.0854166666666667
            },
            {
              "pitch": 71,
              "velocity": 40,
              "position": 1.6520833333333333,
              "duration": 2.0854166666666667
            },
            {
              "pitch": 64,
              "velocity": 41,
              "position": 1.6583333333333334,
              "duration": 2.0854166666666667
            },
            {
              "pitch": 60,
              "velocity": 41,
              "position": 1.675,
              "duration": 2.0708333333333333
            },
            {
              "pitch": 55,
              "velocity": 42,
              "position": 1.6666666666666667,
              "duration": 2.091666666666667
            },
            {
              "pitch": 59,
              "velocity": 42,
              "position": 1.6666666666666667,
              "duration": 2.091666666666667
            }
          ]
        },
        "13": {
          "ctab": {
            "srcChannel": 13,
            "name": "Strings",
            "accType": "PAD",
            "editable": false,
            "mutedNotes": [],
            "mutedChords": [],
            "autoStart": false,
            "sourceChordNote": 0,
            "sourceChordType": "Maj7",
            "ctb2Low": null,
            "ctb2Main": {
              "ntr": "ROOT_FIXED",
              "ntt": "CHORD",
              "bassOn": false,
              "chordRootUpperLimit": 7,
              "noteLowLimit": 0,
              "noteHighLimit": 127,
              "rtr": "PITCH_SHIFT"
            },
            "ctb2High": null
          },
          "notes": [
            {
              "pitch": 55,
              "velocity": 25,
              "position": 0.010416666666666666,
              "duration": 3.9583333333333335
            },
            {
              "pitch": 76,
              "velocity": 21,
              "position": 0.010416666666666666,
              "duration": 3.9583333333333335
            },
            {
              "pitch": 64,
              "velocity": 25,
              "position": 0.010416666666666666,
              "duration": 3.9583333333333335
            },
            {
              "pitch": 59,
              "velocity": 25,
              "position": 0.010416666666666666,
              "duration": 3.9583333333333335
            }
          ]
        },
        "15": {
          "ctab": {
            "srcChannel": 15,
            "name": "BalladDX",
            "accType": "PHRASE2",
            "editable": false,
            "mutedNotes": [],
            "mutedChords": [],
            "autoStart": false,
            "sourceChordNote": 0,
            "sourceChordType": "Maj7",
            "ctb2Low": null,
            "ctb2Main": {
              "ntr": "ROOT_FIXED",
              "ntt": "CHORD",
              "bassOn": false,
              "chordRootUpperLimit": 7,
              "noteLowLimit": 0,
              "noteHighLimit": 127,
              "rtr": "PITCH_SHIFT"
            },
            "ctb2High": null
          },
          "notes": [
            {
              "pitch": 52,
              "velocity": 24,
              "position": 0.0020833333333333333,
              "duration": 1.3916666666666666
            },
            {
              "pitch": 64,
              "velocity": 44,
              "position": 0,
              "duration": 1.40625
            },
            {
              "pitch": 59,
              "velocity": 44,
              "position": 0.010416666666666666,
              "duration": 1.4041666666666666
            },
            {
              "pitch": 55,
              "velocity": 44,
              "position": 0.00625,
              "duration": 1.4145833333333333
            },
            {
              "pitch": 36,
              "velocity": 30,
              "position": 0,
              "duration": 1.4270833333333333
            },
            {
              "pitch": 59,
              "velocity": 97,
              "position": 1.6729166666666666,
              "duration": 2.125
            },
            {
              "pitch": 55,
              "velocity": 97,
              "position": 1.6666666666666667,
              "duration": 2.1333333333333333
            },
            {
              "pitch": 64,
              "velocity": 97,
              "position": 1.6729166666666666,
              "duration": 2.129166666666667
            },
            {
              "pitch": 36,
              "velocity": 30,
              "position": 1.68125,
              "duration": 2.120833333333333
            },
            {
              "pitch": 67,
              "velocity": 97,
              "position": 1.66875,
              "duration": 2.1395833333333334
            }
          ]
        }
      }
    },
    "Intro_A": {
      "type": "Intro_A",
      "sizeInBeats": 4,
      "channels": {
        "4": {
          "ctab": {
            "srcChannel": 4,
            "name": "Str  rt",
            "accType": "PAD",
            "editable": false,
            "mutedNotes": [],
            "mutedChords": [
              "1+2+5",
              "sus4",
              "1+5",
              "1+8",
              "Maj7aug",
              "dim",
              "minMaj7(9)",
              "minMaj7",
              "min6",
              "min",
              "aug",
              "Maj7(9)",
              "Maj7#11",
              "Maj7",
              "Maj6",
              "Maj"
            ],
            "autoStart": false,
            "sourceChordNote": 0,
            "sourceChordType": "Maj7",
            "ctb2Low": null,
            "ctb2Main": {
              "ntr": "ROOT_TRANSPOSITION",
              "ntt": "CHORD",
              "bassOn": false,
              "chordRootUpperLimit": 6,
              "noteLowLimit": 0,
              "noteHighLimit": 127,
              "rtr": "PITCH_SHIFT"
            },
            "ctb2High": null
          },
          "notes": []
        },
        "8": {
          "ctab": {
            "srcChannel": 8,
            "name": "AddDrum",
            "accType": "SUBRHYTHM",
            "editable": false,
            "mutedNotes": [],
            "mutedChords": [],
            "autoStart": true,
            "sourceChordNote": 0,
            "sourceChordType": "Maj7",
            "ctb2Low": null,
            "ctb2Main": {
              "ntr": "ROOT_FIXED",
              "ntt": "BYPASS",
              "bassOn": false,
              "chordRootUpperLimit": 6,
              "noteLowLimit": 0,
              "noteHighLimit": 127,
              "rtr": "PITCH_SHIFT"
            },
            "ctb2High": null
          },
          "notes": []
        },
        "9": {
          "ctab": {
            "srcChannel": 9,
            "name": "MainDrum",
            "accType": "RHYTHM",
            "editable": false,
            "mutedNotes": [],
            "mutedChords": [],
            "autoStart": true,
            "sourceChordNote": 0,
            "sourceChordType": "Maj7",
            "ctb2Low": null,
            "ctb2Main": {
              "ntr": "ROOT_FIXED",
              "ntt": "BYPASS",
              "bassOn": false,
              "chordRootUpperLimit": 6,
              "noteLowLimit": 0,
              "noteHighLimit": 127,
              "rtr": "PITCH_SHIFT"
            },
            "ctb2High": null
          },
          "notes": [
            {
              "pitch": 44,
              "velocity": 40,
              "position": 0,
              "duration": 0.020833333333333332
            },
            {
              "pitch": 44,
              "velocity": 40,
              "position": 1,
              "duration": 0.020833333333333332
            },
            {
              "pitch": 44,
              "velocity": 40,
              "position": 2,
              "duration": 0.020833333333333332
            },
            {
              "pitch": 31,
              "velocity": 10,
              "position": 2.3333333333333335,
              "duration": 0.020833333333333332
            },
            {
              "pitch": 45,
              "velocity": 60,
              "position": 2.6666666666666665,
              "duration": 0.020833333333333332
            },
            {
              "pitch": 44,
              "velocity": 40,
              "position": 3,
              "duration": 0.020833333333333332
            },
            {
              "pitch": 40,
              "velocity": 20,
              "position": 3.3333333333333335,
              "duration": 0.020833333333333332
            },
            {
              "pitch": 40,
              "velocity": 70,
              "position": 3.6666666666666665,
              "duration": 0.020833333333333332
            },
            {
              "pitch": 49,
              "velocity": 60,
              "position": 3.995833333333333,
              "duration": 0.004166666666666667
            }
          ]
        },
        "10": {
          "ctab": {
            "srcChannel": 10,
            "name": "Bass",
            "accType": "BASS",
            "editable": false,
            "mutedNotes": [],
            "mutedChords": [],
            "autoStart": false,
            "sourceChordNote": 0,
            "sourceChordType": "Maj7",
            "ctb2Low": null,
            "ctb2Main": {
              "ntr": "ROOT_TRANSPOSITION",
              "ntt": "MELODY",
              "bassOn": true,
              "chordRootUpperLimit": 1,
              "noteLowLimit": 26,
              "noteHighLimit": 127,
              "rtr": "PITCH_SHIFT_TO_ROOT"
            },
            "ctb2High": null
          },
          "notes": []
        },
        "11": {
          "ctab": {
            "srcChannel": 11,
            "name": "E.Piano",
            "accType": "CHORD1",
            "editable": false,
            "mutedNotes": [],
            "mutedChords": [],
            "autoStart": false,
            "sourceChordNote": 0,
            "sourceChordType": "Maj7",
            "ctb2Low": null,
            "ctb2Main": {
              "ntr": "ROOT_FIXED",
              "ntt": "CHORD",
              "bassOn": false,
              "chordRootUpperLimit": 7,
              "noteLowLimit": 0,
              "noteHighLimit": 127,
              "rtr": "PITCH_SHIFT"
            },
            "ctb2High": null
          },
          "notes": []
        },
        "12": {
          "ctab": {
            "srcChannel": 12,
            "name": "JazzGtr",
            "accType": "CHORD2",
            "editable": false,
            "mutedNotes": [],
            "mutedChords": [],
            "autoStart": false,
            "sourceChordNote": 0,
            "sourceChordType": "Maj7",
            "ctb2Low": null,
            "ctb2Main": {
              "ntr": "ROOT_TRANSPOSITION",
              "ntt": "MELODY",
              "bassOn": false,
              "chordRootUpperLimit": 7,
              "noteLowLimit": 0,
              "noteHighLimit": 127,
              "rtr": "PITCH_SHIFT"
            },
            "ctb2High": null
          },
          "notes": []
        },
        "13": {
          "ctab": {
            "srcChannel": 13,
            "name": "Strings",
            "accType": "PAD",
            "editable": false,
            "mutedNotes": [],
            "mutedChords": [],
            "autoStart": false,
            "sourceChordNote": 0,
            "sourceChordType": "Maj7",
            "ctb2Low": null,
            "ctb2Main": {
              "ntr": "ROOT_FIXED",
              "ntt": "CHORD",
              "bassOn": false,
              "chordRootUpperLimit": 7,
              "noteLowLimit": 0,
              "noteHighLimit": 127,
              "rtr": "PITCH_SHIFT"
            },
            "ctb2High": null
          },
          "notes": []
        },
        "15": {
          "ctab": {
            "srcChannel": 15,
            "name": "BalladDX",
            "accType": "PHRASE2",
            "editable": false,
            "mutedNotes": [],
            "mutedChords": [],
            "autoStart": false,
            "sourceChordNote": 0,
            "sourceChordType": "Maj7",
            "ctb2Low": null,
            "ctb2Main": {
              "ntr": "ROOT_FIXED",
              "ntt": "CHORD",
              "bassOn": false,
              "chordRootUpperLimit": 7,
              "noteLowLimit": 0,
              "noteHighLimit": 127,
              "rtr": "PITCH_SHIFT"
            },
            "ctb2High": null
          },
          "notes": []
        }
      }
    },
    "Ending_A": {
      "type": "Ending_A",
      "sizeInBeats": 12,
      "channels": {
        "4": {
          "ctab": {
            "srcChannel": 4,
            "name": "Str  rt",
            "accType": "PAD",
            "editable": false,
            "mutedNotes": [],
            "mutedChords": [
              "1+2+5",
              "sus4",
              "1+5",
              "1+8",
              "Maj7aug",
              "dim",
              "minMaj7(9)",
              "minMaj7",
              "min6",
              "min",
              "aug",
              "Maj7(9)",
              "Maj7#11",
              "Maj7",
              "Maj6",
              "Maj"
            ],
            "autoStart": false,
            "sourceChordNote": 0,
            "sourceChordType": "Maj7",
            "ctb2Low": null,
            "ctb2Main": {
              "ntr": "ROOT_TRANSPOSITION",
              "ntt": "CHORD",
              "bassOn": false,
              "chordRootUpperLimit": 6,
              "noteLowLimit": 0,
              "noteHighLimit": 127,
              "rtr": "PITCH_SHIFT"
            },
            "ctb2High": null
          },
          "notes": [
            {
              "pitch": 60,
              "velocity": 21,
              "position": 0.010416666666666666,
              "duration": 10.98125
            }
          ]
        },
        "8": {
          "ctab": {
            "srcChannel": 8,
            "name": "AddDrum",
            "accType": "SUBRHYTHM",
            "editable": false,
            "mutedNotes": [],
            "mutedChords": [],
            "autoStart": true,
            "sourceChordNote": 0,
            "sourceChordType": "Maj7",
            "ctb2Low": null,
            "ctb2Main": {
              "ntr": "ROOT_FIXED",
              "ntt": "BYPASS",
              "bassOn": false,
              "chordRootUpperLimit": 6,
              "noteLowLimit": 0,
              "noteHighLimit": 127,
              "rtr": "PITCH_SHIFT"
            },
            "ctb2High": null
          },
          "notes": []
        },
        "9": {
          "ctab": {
            "srcChannel": 9,
            "name": "MainDrum",
            "accType": "RHYTHM",
            "editable": false,
            "mutedNotes": [],
            "mutedChords": [],
            "autoStart": true,
            "sourceChordNote": 0,
            "sourceChordType": "Maj7",
            "ctb2Low": null,
            "ctb2Main": {
              "ntr": "ROOT_FIXED",
              "ntt": "BYPASS",
              "bassOn": false,
              "chordRootUpperLimit": 6,
              "noteLowLimit": 0,
              "noteHighLimit": 127,
              "rtr": "PITCH_SHIFT"
            },
            "ctb2High": null
          },
          "notes": [
            {
              "pitch": 33,
              "velocity": 80,
              "position": 0,
              "duration": 0.020833333333333332
            }
          ]
        },
        "10": {
          "ctab": {
            "srcChannel": 10,
            "name": "Bass",
            "accType": "BASS",
            "editable": false,
            "mutedNotes": [],
            "mutedChords": [],
            "autoStart": false,
            "sourceChordNote": 0,
            "sourceChordType": "Maj7",
            "ctb2Low": null,
            "ctb2Main": {
              "ntr": "ROOT_TRANSPOSITION",
              "ntt": "MELODY",
              "bassOn": true,
              "chordRootUpperLimit": 1,
              "noteLowLimit": 26,
              "noteHighLimit": 127,
              "rtr": "PITCH_SHIFT_TO_ROOT"
            },
            "ctb2High": null
          },
          "notes": [
            {
              "pitch": 24,
              "velocity": 60,
              "position": 0,
              "duration": 10.991666666666667
            }
          ]
        },
        "11": {
          "ctab": {
            "srcChannel": 11,
            "name": "E.Piano",
            "accType": "CHORD1",
            "editable": false,
            "mutedNotes": [],
            "mutedChords": [],
            "autoStart": false,
            "sourceChordNote": 0,
            "sourceChordType": "Maj7",
            "ctb2Low": null,
            "ctb2Main": {
              "ntr": "ROOT_FIXED",
              "ntt": "CHORD",
              "bassOn": false,
              "chordRootUpperLimit": 7,
              "noteLowLimit": 0,
              "noteHighLimit": 127,
              "rtr": "PITCH_SHIFT"
            },
            "ctb2High": null
          },
          "notes": [
            {
              "pitch": 64,
              "velocity": 90,
              "position": 0.00625,
              "duration": 10.983333333333333
            },
            {
              "pitch": 71,
              "velocity": 83,
              "position": 0.008333333333333333,
              "duration": 10.98125
            },
            {
              "pitch": 59,
              "velocity": 82,
              "position": 0.008333333333333333,
              "duration": 10.98125
            },
            {
              "pitch": 55,
              "velocity": 83,
              "position": 0.008333333333333333,
              "duration": 10.98125
            },
            {
              "pitch": 36,
              "velocity": 61,
              "position": 0.008333333333333333,
              "duration": 10.98125
            },
            {
              "pitch": 67,
              "velocity": 90,
              "position": 0,
              "duration": 10.991666666666667
            }
          ]
        },
        "12": {
          "ctab": {
            "srcChannel": 12,
            "name": "JazzGtr",
            "accType": "CHORD2",
            "editable": false,
            "mutedNotes": [],
            "mutedChords": [],
            "autoStart": false,
            "sourceChordNote": 0,
            "sourceChordType": "Maj7",
            "ctb2Low": null,
            "ctb2Main": {
              "ntr": "ROOT_TRANSPOSITION",
              "ntt": "MELODY",
              "bassOn": false,
              "chordRootUpperLimit": 7,
              "noteLowLimit": 0,
              "noteHighLimit": 127,
              "rtr": "PITCH_SHIFT"
            },
            "ctb2High": null
          },
          "notes": [
            {
              "pitch": 64,
              "velocity": 43,
              "position": 0,
              "duration": 10.966666666666667
            },
            {
              "pitch": 55,
              "velocity": 43,
              "position": 0.03125,
              "duration": 10.935416666666667
            },
            {
              "pitch": 59,
              "velocity": 43,
              "position": 0.03125,
              "duration": 10.935416666666667
            },
            {
              "pitch": 67,
              "velocity": 43,
              "position": 0.014583333333333334,
              "duration": 10.952083333333333
            },
            {
              "pitch": 71,
              "velocity": 43,
              "position": 0.014583333333333334,
              "duration": 10.952083333333333
            },
            {
              "pitch": 60,
              "velocity": 40,
              "position": 0.004166666666666667,
              "duration": 10.9625
            }
          ]
        },
        "13": {
          "ctab": {
            "srcChannel": 13,
            "name": "Strings",
            "accType": "PAD",
            "editable": false,
            "mutedNotes": [],
            "mutedChords": [],
            "autoStart": false,
            "sourceChordNote": 0,
            "sourceChordType": "Maj7",
            "ctb2Low": null,
            "ctb2Main": {
              "ntr": "ROOT_FIXED",
              "ntt": "CHORD",
              "bassOn": false,
              "chordRootUpperLimit": 7,
              "noteLowLimit": 0,
              "noteHighLimit": 127,
              "rtr": "PITCH_SHIFT"
            },
            "ctb2High": null
          },
          "notes": [
            {
              "pitch": 55,
              "velocity": 21,
              "position": 0.010416666666666666,
              "duration": 10.98125
            },
            {
              "pitch": 64,
              "velocity": 21,
              "position": 0.010416666666666666,
              "duration": 10.98125
            },
            {
              "pitch": 59,
              "velocity": 21,
              "position": 0.010416666666666666,
              "duration": 10.98125
            }
          ]
        },
        "15": {
          "ctab": {
            "srcChannel": 15,
            "name": "BalladDX",
            "accType": "PHRASE2",
            "editable": false,
            "mutedNotes": [],
            "mutedChords": [],
            "autoStart": false,
            "sourceChordNote": 0,
            "sourceChordType": "Maj7",
            "ctb2Low": null,
            "ctb2Main": {
              "ntr": "ROOT_FIXED",
              "ntt": "CHORD",
              "bassOn": false,
              "chordRootUpperLimit": 7,
              "noteLowLimit": 0,
              "noteHighLimit": 127,
              "rtr": "PITCH_SHIFT"
            },
            "ctb2High": null
          },
          "notes": [
            {
              "pitch": 64,
              "velocity": 114,
              "position": 0.00625,
              "duration": 10.983333333333333
            },
            {
              "pitch": 71,
              "velocity": 90,
              "position": 0.008333333333333333,
              "duration": 10.98125
            },
            {
              "pitch": 59,
              "velocity": 86,
              "position": 0.008333333333333333,
              "duration": 10.98125
            },
            {
              "pitch": 55,
              "velocity": 90,
              "position": 0.008333333333333333,
              "duration": 10.98125
            },
            {
              "pitch": 36,
              "velocity": 30,
              "position": 0.008333333333333333,
              "duration": 10.98125
            },
            {
              "pitch": 67,
              "velocity": 114,
              "position": 0,
              "duration": 10.991666666666667
            }
          ]
        }
      }
    },
    "Fill_In_BA": {
      "type": "Fill_In_BA",
      "sizeInBeats": 4,
      "channels": {
        "4": {
          "ctab": {
            "srcChannel": 4,
            "name": "Str  rt",
            "accType": "PAD",
            "editable": false,
            "mutedNotes": [],
            "mutedChords": [
              "1+2+5",
              "sus4",
              "1+5",
              "1+8",
              "Maj7aug",
              "dim",
              "minMaj7(9)",
              "minMaj7",
              "min6",
              "min",
              "aug",
              "Maj7(9)",
              "Maj7#11",
              "Maj7",
              "Maj6",
              "Maj"
            ],
            "autoStart": false,
            "sourceChordNote": 0,
            "sourceChordType": "Maj7",
            "ctb2Low": null,
            "ctb2Main": {
              "ntr": "ROOT_TRANSPOSITION",
              "ntt": "CHORD",
              "bassOn": false,
              "chordRootUpperLimit": 6,
              "noteLowLimit": 0,
              "noteHighLimit": 127,
              "rtr": "PITCH_SHIFT"
            },
            "ctb2High": null
          },
          "notes": []
        },
        "8": {
          "ctab": {
            "srcChannel": 8,
            "name": "AddDrum",
            "accType": "SUBRHYTHM",
            "editable": false,
            "mutedNotes": [],
            "mutedChords": [],
            "autoStart": true,
            "sourceChordNote": 0,
            "sourceChordType": "Maj7",
            "ctb2Low": null,
            "ctb2Main": {
              "ntr": "ROOT_FIXED",
              "ntt": "BYPASS",
              "bassOn": false,
              "chordRootUpperLimit": 6,
              "noteLowLimit": 0,
              "noteHighLimit": 127,
              "rtr": "PITCH_SHIFT"
            },
            "ctb2High": null
          },
          "notes": []
        },
        "9": {
          "ctab": {
            "srcChannel": 9,
            "name": "MainDrum",
            "accType": "RHYTHM",
            "editable": false,
            "mutedNotes": [],
            "mutedChords": [],
            "autoStart": true,
            "sourceChordNote": 0,
            "sourceChordType": "Maj7",
            "ctb2Low": null,
            "ctb2Main": {
              "ntr": "ROOT_FIXED",
              "ntt": "BYPASS",
              "bassOn": false,
              "chordRootUpperLimit": 6,
              "noteLowLimit": 0,
              "noteHighLimit": 127,
              "rtr": "PITCH_SHIFT"
            },
            "ctb2High": null
          },
          "notes": [
            {
              "pitch": 33,
              "velocity": 80,
              "position": 0,
              "duration": 0.020833333333333332
            },
            {
              "pitch": 51,
              "velocity": 50,
              "position": 0,
              "duration": 0.020833333333333332
            },
            {
              "pitch": 33,
              "velocity": 60,
              "position": 0.6666666666666666,
              "duration": 0.020833333333333332
            },
            {
              "pitch": 46,
              "velocity": 50,
              "position": 0.6666666666666666,
              "duration": 0.020833333333333332
            },
            {
              "pitch": 44,
              "velocity": 4,
              "position": 1,
              "duration": 0.020833333333333332
            },
            {
              "pitch": 31,
              "velocity": 16,
              "position": 1.3333333333333333,
              "duration": 0.020833333333333332
            },
            {
              "pitch": 50,
              "velocity": 75,
              "position": 1.6666666666666667,
              "duration": 0.020833333333333332
            },
            {
              "pitch": 44,
              "velocity": 30,
              "position": 2,
              "duration": 0.020833333333333332
            },
            {
              "pitch": 40,
              "velocity": 16,
              "position": 2.3333333333333335,
              "duration": 0.020833333333333332
            },
            {
              "pitch": 47,
              "velocity": 60,
              "position": 2.6666666666666665,
              "duration": 0.020833333333333332
            },
            {
              "pitch": 44,
              "velocity": 50,
              "position": 3,
              "duration": 0.020833333333333332
            },
            {
              "pitch": 31,
              "velocity": 33,
              "position": 3.3333333333333335,
              "duration": 0.020833333333333332
            },
            {
              "pitch": 40,
              "velocity": 80,
              "position": 3.6666666666666665,
              "duration": 0.020833333333333332
            },
            {
              "pitch": 49,
              "velocity": 60,
              "position": 3.9895833333333335,
              "duration": 0.004166666666666667
            }
          ]
        },
        "10": {
          "ctab": {
            "srcChannel": 10,
            "name": "Bass",
            "accType": "BASS",
            "editable": false,
            "mutedNotes": [],
            "mutedChords": [],
            "autoStart": false,
            "sourceChordNote": 0,
            "sourceChordType": "Maj7",
            "ctb2Low": null,
            "ctb2Main": {
              "ntr": "ROOT_TRANSPOSITION",
              "ntt": "MELODY",
              "bassOn": true,
              "chordRootUpperLimit": 1,
              "noteLowLimit": 26,
              "noteHighLimit": 127,
              "rtr": "PITCH_SHIFT_TO_ROOT"
            },
            "ctb2High": null
          },
          "notes": [
            {
              "pitch": 24,
              "velocity": 60,
              "position": 0,
              "duration": 0.5916666666666667
            },
            {
              "pitch": 24,
              "velocity": 50,
              "position": 0.6666666666666666,
              "duration": 0.36666666666666664
            }
          ]
        },
        "11": {
          "ctab": {
            "srcChannel": 11,
            "name": "E.Piano",
            "accType": "CHORD1",
            "editable": false,
            "mutedNotes": [],
            "mutedChords": [],
            "autoStart": false,
            "sourceChordNote": 0,
            "sourceChordType": "Maj7",
            "ctb2Low": null,
            "ctb2Main": {
              "ntr": "ROOT_FIXED",
              "ntt": "CHORD",
              "bassOn": false,
              "chordRootUpperLimit": 7,
              "noteLowLimit": 0,
              "noteHighLimit": 127,
              "rtr": "PITCH_SHIFT"
            },
            "ctb2High": null
          },
          "notes": [
            {
              "pitch": 67,
              "velocity": 80,
              "position": 0,
              "duration": 0.5125
            },
            {
              "pitch": 55,
              "velocity": 73,
              "position": 0.008333333333333333,
              "duration": 0.5208333333333334
            },
            {
              "pitch": 59,
              "velocity": 72,
              "position": 0.008333333333333333,
              "duration": 0.5395833333333333
            },
            {
              "pitch": 64,
              "velocity": 80,
              "position": 0.00625,
              "duration": 0.5458333333333333
            },
            {
              "pitch": 64,
              "velocity": 65,
              "position": 0.68125,
              "duration": 0.2916666666666667
            },
            {
              "pitch": 67,
              "velocity": 55,
              "position": 0.6666666666666666,
              "duration": 0.3145833333333333
            },
            {
              "pitch": 59,
              "velocity": 54,
              "position": 0.68125,
              "duration": 0.3125
            },
            {
              "pitch": 55,
              "velocity": 11,
              "position": 0.6833333333333333,
              "duration": 0.3125
            }
          ]
        },
        "12": {
          "ctab": {
            "srcChannel": 12,
            "name": "JazzGtr",
            "accType": "CHORD2",
            "editable": false,
            "mutedNotes": [],
            "mutedChords": [],
            "autoStart": false,
            "sourceChordNote": 0,
            "sourceChordType": "Maj7",
            "ctb2Low": null,
            "ctb2Main": {
              "ntr": "ROOT_TRANSPOSITION",
              "ntt": "MELODY",
              "bassOn": false,
              "chordRootUpperLimit": 7,
              "noteLowLimit": 0,
              "noteHighLimit": 127,
              "rtr": "PITCH_SHIFT"
            },
            "ctb2High": null
          },
          "notes": [
            {
              "pitch": 64,
              "velocity": 32,
              "position": 0,
              "duration": 0.68125
            },
            {
              "pitch": 55,
              "velocity": 32,
              "position": 0.03125,
              "duration": 0.65
            },
            {
              "pitch": 59,
              "velocity": 32,
              "position": 0.03125,
              "duration": 0.65
            },
            {
              "pitch": 67,
              "velocity": 32,
              "position": 0.014583333333333334,
              "duration": 0.6666666666666666
            },
            {
              "pitch": 71,
              "velocity": 32,
              "position": 0.014583333333333334,
              "duration": 0.6666666666666666
            },
            {
              "pitch": 60,
              "velocity": 29,
              "position": 0.004166666666666667,
              "duration": 0.6770833333333334
            },
            {
              "pitch": 64,
              "velocity": 43,
              "position": 0.6895833333333333,
              "duration": 0.22708333333333333
            },
            {
              "pitch": 60,
              "velocity": 40,
              "position": 0.6958333333333333,
              "duration": 0.225
            },
            {
              "pitch": 67,
              "velocity": 43,
              "position": 0.7041666666666667,
              "duration": 0.22916666666666666
            },
            {
              "pitch": 71,
              "velocity": 43,
              "position": 0.7041666666666667,
              "duration": 0.22916666666666666
            },
            {
              "pitch": 55,
              "velocity": 43,
              "position": 0.7229166666666667,
              "duration": 0.22708333333333333
            },
            {
              "pitch": 59,
              "velocity": 43,
              "position": 0.7229166666666667,
              "duration": 0.22708333333333333
            }
          ]
        },
        "13": {
          "ctab": {
            "srcChannel": 13,
            "name": "Strings",
            "accType": "PAD",
            "editable": false,
            "mutedNotes": [],
            "mutedChords": [],
            "autoStart": false,
            "sourceChordNote": 0,
            "sourceChordType": "Maj7",
            "ctb2Low": null,
            "ctb2Main": {
              "ntr": "ROOT_FIXED",
              "ntt": "CHORD",
              "bassOn": false,
              "chordRootUpperLimit": 7,
              "noteLowLimit": 0,
              "noteHighLimit": 127,
              "rtr": "PITCH_SHIFT"
            },
            "ctb2High": null
          },
          "notes": []
        },
        "15": {
          "ctab": {
            "srcChannel": 15,
            "name": "BalladDX",
            "accType": "PHRASE2",
            "editable": false,
            "mutedNotes": [],
            "mutedChords": [],
            "autoStart": false,
            "sourceChordNote": 0,
            "sourceChordType": "Maj7",
            "ctb2Low": null,
            "ctb2Main": {
              "ntr": "ROOT_FIXED",
              "ntt": "CHORD",
              "bassOn": false,
              "chordRootUpperLimit": 7,
              "noteLowLimit": 0,
              "noteHighLimit": 127,
              "rtr": "PITCH_SHIFT"
            },
            "ctb2High": null
          },
          "notes": [
            {
              "pitch": 67,
              "velocity": 79,
              "position": 0,
              "duration": 0.5125
            },
            {
              "pitch": 55,
              "velocity": 55,
              "position": 0.008333333333333333,
              "duration": 0.5208333333333334
            },
            {
              "pitch": 59,
              "velocity": 51,
              "position": 0.008333333333333333,
              "duration": 0.5395833333333333
            },
            {
              "pitch": 64,
              "velocity": 79,
              "position": 0.00625,
              "duration": 0.5458333333333333
            },
            {
              "pitch": 64,
              "velocity": 27,
              "position": 0.68125,
              "duration": 0.2916666666666667
            },
            {
              "pitch": 67,
              "velocity": 24,
              "position": 0.6666666666666666,
              "duration": 0.3145833333333333
            },
            {
              "pitch": 59,
              "velocity": 24,
              "position": 0.68125,
              "duration": 0.3125
            },
            {
              "pitch": 55,
              "velocity": 24,
              "position": 0.6833333333333333,
              "duration": 0.3125
            }
          ]
        }
      }
    },
    "Main_C": {
      "type": "Main_C",
      "sizeInBeats": 16,
      "channels": {
        "8": {
          "ctab": {
            "srcChannel": 8,
            "name": "AddDrum",
            "accType": "SUBRHYTHM",
            "editable": false,
            "mutedNotes": [],
            "mutedChords": [],
            "autoStart": true,
            "sourceChordNote": 0,
            "sourceChordType": "Maj7",
            "ctb2Low": null,
            "ctb2Main": {
              "ntr": "ROOT_FIXED",
              "ntt": "BYPASS",
              "bassOn": false,
              "chordRootUpperLimit": 6,
              "noteLowLimit": 0,
              "noteHighLimit": 127,
              "rtr": "PITCH_SHIFT"
            },
            "ctb2High": null
          },
          "notes": [
            {
              "pitch": 73,
              "velocity": 66,
              "position": 0,
              "duration": 0.020833333333333332
            },
            {
              "pitch": 73,
              "velocity": 86,
              "position": 1,
              "duration": 0.020833333333333332
            },
            {
              "pitch": 73,
              "velocity": 66,
              "position": 2,
              "duration": 0.020833333333333332
            },
            {
              "pitch": 73,
              "velocity": 86,
              "position": 3,
              "duration": 0.020833333333333332
            },
            {
              "pitch": 73,
              "velocity": 66,
              "position": 4,
              "duration": 0.020833333333333332
            },
            {
              "pitch": 73,
              "velocity": 86,
              "position": 5,
              "duration": 0.020833333333333332
            },
            {
              "pitch": 73,
              "velocity": 66,
              "position": 6,
              "duration": 0.020833333333333332
            },
            {
              "pitch": 73,
              "velocity": 86,
              "position": 7,
              "duration": 0.020833333333333332
            },
            {
              "pitch": 73,
              "velocity": 66,
              "position": 8,
              "duration": 0.020833333333333332
            },
            {
              "pitch": 73,
              "velocity": 86,
              "position": 9,
              "duration": 0.020833333333333332
            },
            {
              "pitch": 73,
              "velocity": 66,
              "position": 10,
              "duration": 0.020833333333333332
            },
            {
              "pitch": 73,
              "velocity": 86,
              "position": 11,
              "duration": 0.020833333333333332
            },
            {
              "pitch": 73,
              "velocity": 66,
              "position": 12,
              "duration": 0.020833333333333332
            },
            {
              "pitch": 73,
              "velocity": 86,
              "position": 13,
              "duration": 0.020833333333333332
            },
            {
              "pitch": 73,
              "velocity": 66,
              "position": 14,
              "duration": 0.020833333333333332
            },
            {
              "pitch": 73,
              "velocity": 86,
              "position": 15,
              "duration": 0.020833333333333332
            }
          ]
        },
        "9": {
          "ctab": {
            "srcChannel": 9,
            "name": "MainDrum",
            "accType": "RHYTHM",
            "editable": false,
            "mutedNotes": [],
            "mutedChords": [],
            "autoStart": true,
            "sourceChordNote": 0,
            "sourceChordType": "Maj7",
            "ctb2Low": null,
            "ctb2Main": {
              "ntr": "ROOT_FIXED",
              "ntt": "BYPASS",
              "bassOn": false,
              "chordRootUpperLimit": 6,
              "noteLowLimit": 0,
              "noteHighLimit": 127,
              "rtr": "PITCH_SHIFT"
            },
            "ctb2High": null
          },
          "notes": [
            {
              "pitch": 33,
              "velocity": 80,
              "position": 0,
              "duration": 0.020833333333333332
            },
            {
              "pitch": 51,
              "velocity": 50,
              "position": 0,
              "duration": 0.020833333333333332
            },
            {
              "pitch": 44,
              "velocity": 30,
              "position": 0,
              "duration": 0.020833333333333332
            },
            {
              "pitch": 31,
              "velocity": 12,
              "position": 0.3333333333333333,
              "duration": 0.020833333333333332
            },
            {
              "pitch": 40,
              "velocity": 24,
              "position": 0.6666666666666666,
              "duration": 0.020833333333333332
            },
            {
              "pitch": 44,
              "velocity": 50,
              "position": 1,
              "duration": 0.020833333333333332
            },
            {
              "pitch": 51,
              "velocity": 50,
              "position": 1,
              "duration": 0.020833333333333332
            },
            {
              "pitch": 31,
              "velocity": 16,
              "position": 1.3333333333333333,
              "duration": 0.020833333333333332
            },
            {
              "pitch": 33,
              "velocity": 60,
              "position": 1.6666666666666667,
              "duration": 0.020833333333333332
            },
            {
              "pitch": 40,
              "velocity": 101,
              "position": 2,
              "duration": 0.020833333333333332
            },
            {
              "pitch": 51,
              "velocity": 50,
              "position": 2,
              "duration": 0.020833333333333332
            },
            {
              "pitch": 44,
              "velocity": 30,
              "position": 2,
              "duration": 0.020833333333333332
            },
            {
              "pitch": 31,
              "velocity": 16,
              "position": 2.3333333333333335,
              "duration": 0.020833333333333332
            },
            {
              "pitch": 40,
              "velocity": 15,
              "position": 2.6666666666666665,
              "duration": 0.020833333333333332
            },
            {
              "pitch": 44,
              "velocity": 50,
              "position": 3,
              "duration": 0.020833333333333332
            },
            {
              "pitch": 51,
              "velocity": 50,
              "position": 3,
              "duration": 0.020833333333333332
            },
            {
              "pitch": 31,
              "velocity": 16,
              "position": 3.3333333333333335,
              "duration": 0.020833333333333332
            },
            {
              "pitch": 33,
              "velocity": 40,
              "position": 3.6666666666666665,
              "duration": 0.020833333333333332
            },
            {
              "pitch": 51,
              "velocity": 30,
              "position": 3.6666666666666665,
              "duration": 0.020833333333333332
            },
            {
              "pitch": 33,
              "velocity": 80,
              "position": 4,
              "duration": 0.020833333333333332
            },
            {
              "pitch": 51,
              "velocity": 50,
              "position": 4,
              "duration": 0.020833333333333332
            },
            {
              "pitch": 44,
              "velocity": 30,
              "position": 4,
              "duration": 0.020833333333333332
            },
            {
              "pitch": 31,
              "velocity": 12,
              "position": 4.333333333333333,
              "duration": 0.020833333333333332
            },
            {
              "pitch": 40,
              "velocity": 24,
              "position": 4.666666666666667,
              "duration": 0.020833333333333332
            },
            {
              "pitch": 44,
              "velocity": 50,
              "position": 5,
              "duration": 0.020833333333333332
            },
            {
              "pitch": 51,
              "velocity": 50,
              "position": 5,
              "duration": 0.020833333333333332
            },
            {
              "pitch": 31,
              "velocity": 16,
              "position": 5.333333333333333,
              "duration": 0.020833333333333332
            },
            {
              "pitch": 33,
              "velocity": 60,
              "position": 5.666666666666667,
              "duration": 0.020833333333333332
            },
            {
              "pitch": 40,
              "velocity": 101,
              "position": 6,
              "duration": 0.020833333333333332
            },
            {
              "pitch": 51,
              "velocity": 50,
              "position": 6,
              "duration": 0.020833333333333332
            },
            {
              "pitch": 44,
              "velocity": 30,
              "position": 6,
              "duration": 0.020833333333333332
            },
            {
              "pitch": 31,
              "velocity": 16,
              "position": 6.333333333333333,
              "duration": 0.020833333333333332
            },
            {
              "pitch": 40,
              "velocity": 12,
              "position": 6.666666666666667,
              "duration": 0.020833333333333332
            },
            {
              "pitch": 44,
              "velocity": 50,
              "position": 7,
              "duration": 0.020833333333333332
            },
            {
              "pitch": 51,
              "velocity": 50,
              "position": 7,
              "duration": 0.020833333333333332
            },
            {
              "pitch": 31,
              "velocity": 16,
              "position": 7.333333333333333,
              "duration": 0.020833333333333332
            },
            {
              "pitch": 33,
              "velocity": 40,
              "position": 7.666666666666667,
              "duration": 0.020833333333333332
            },
            {
              "pitch": 51,
              "velocity": 30,
              "position": 7.666666666666667,
              "duration": 0.020833333333333332
            },
            {
              "pitch": 33,
              "velocity": 80,
              "position": 8,
              "duration": 0.020833333333333332
            },
            {
              "pitch": 51,
              "velocity": 50,
              "position": 8,
              "duration": 0.020833333333333332
            },
            {
              "pitch": 44,
              "velocity": 30,
              "position": 8,
              "duration": 0.020833333333333332
            },
            {
              "pitch": 31,
              "velocity": 12,
              "position": 8.333333333333334,
              "duration": 0.020833333333333332
            },
            {
              "pitch": 40,
              "velocity": 24,
              "position": 8.666666666666666,
              "duration": 0.020833333333333332
            },
            {
              "pitch": 44,
              "velocity": 50,
              "position": 9,
              "duration": 0.020833333333333332
            },
            {
              "pitch": 51,
              "velocity": 50,
              "position": 9,
              "duration": 0.020833333333333332
            },
            {
              "pitch": 31,
              "velocity": 16,
              "position": 9.333333333333334,
              "duration": 0.020833333333333332
            },
            {
              "pitch": 33,
              "velocity": 60,
              "position": 9.666666666666666,
              "duration": 0.020833333333333332
            },
            {
              "pitch": 40,
              "velocity": 101,
              "position": 10,
              "duration": 0.020833333333333332
            },
            {
              "pitch": 51,
              "velocity": 50,
              "position": 10,
              "duration": 0.020833333333333332
            },
            {
              "pitch": 44,
              "velocity": 30,
              "position": 10,
              "duration": 0.020833333333333332
            },
            {
              "pitch": 31,
              "velocity": 16,
              "position": 10.333333333333334,
              "duration": 0.020833333333333332
            },
            {
              "pitch": 40,
              "velocity": 12,
              "position": 10.666666666666666,
              "duration": 0.020833333333333332
            },
            {
              "pitch": 44,
              "velocity": 50,
              "position": 11,
              "duration": 0.020833333333333332
            },
            {
              "pitch": 51,
              "velocity": 50,
              "position": 11,
              "duration": 0.020833333333333332
            },
            {
              "pitch": 31,
              "velocity": 16,
              "position": 11.333333333333334,
              "duration": 0.020833333333333332
            },
            {
              "pitch": 33,
              "velocity": 40,
              "position": 11.666666666666666,
              "duration": 0.020833333333333332
            },
            {
              "pitch": 51,
              "velocity": 30,
              "position": 11.666666666666666,
              "duration": 0.020833333333333332
            },
            {
              "pitch": 33,
              "velocity": 80,
              "position": 12,
              "duration": 0.020833333333333332
            },
            {
              "pitch": 51,
              "velocity": 50,
              "position": 12,
              "duration": 0.020833333333333332
            },
            {
              "pitch": 44,
              "velocity": 30,
              "position": 12,
              "duration": 0.020833333333333332
            },
            {
              "pitch": 31,
              "velocity": 12,
              "position": 12.333333333333334,
              "duration": 0.020833333333333332
            },
            {
              "pitch": 40,
              "velocity": 24,
              "position": 12.666666666666666,
              "duration": 0.020833333333333332
            },
            {
              "pitch": 44,
              "velocity": 50,
              "position": 13,
              "duration": 0.020833333333333332
            },
            {
              "pitch": 51,
              "velocity": 50,
              "position": 13,
              "duration": 0.020833333333333332
            },
            {
              "pitch": 31,
              "velocity": 16,
              "position": 13.333333333333334,
              "duration": 0.020833333333333332
            },
            {
              "pitch": 33,
              "velocity": 60,
              "position": 13.666666666666666,
              "duration": 0.020833333333333332
            },
            {
              "pitch": 40,
              "velocity": 101,
              "position": 14,
              "duration": 0.020833333333333332
            },
            {
              "pitch": 51,
              "velocity": 50,
              "position": 14,
              "duration": 0.020833333333333332
            },
            {
              "pitch": 44,
              "velocity": 30,
              "position": 14,
              "duration": 0.020833333333333332
            },
            {
              "pitch": 31,
              "velocity": 16,
              "position": 14.333333333333334,
              "duration": 0.020833333333333332
            },
            {
              "pitch": 40,
              "velocity": 12,
              "position": 14.666666666666666,
              "duration": 0.020833333333333332
            },
            {
              "pitch": 44,
              "velocity": 50,
              "position": 15,
              "duration": 0.020833333333333332
            },
            {
              "pitch": 51,
              "velocity": 50,
              "position": 15,
              "duration": 0.020833333333333332
            },
            {
              "pitch": 31,
              "velocity": 16,
              "position": 15.333333333333334,
              "duration": 0.020833333333333332
            },
            {
              "pitch": 33,
              "velocity": 40,
              "position": 15.666666666666666,
              "duration": 0.020833333333333332
            },
            {
              "pitch": 51,
              "velocity": 30,
              "position": 15.666666666666666,
              "duration": 0.020833333333333332
            }
          ]
        },
        "10": {
          "ctab": {
            "srcChannel": 10,
            "name": "Bass",
            "accType": "BASS",
            "editable": false,
            "mutedNotes": [],
            "mutedChords": [],
            "autoStart": false,
            "sourceChordNote": 0,
            "sourceChordType": "Maj7",
            "ctb2Low": null,
            "ctb2Main": {
              "ntr": "ROOT_TRANSPOSITION",
              "ntt": "MELODY",
              "bassOn": true,
              "chordRootUpperLimit": 1,
              "noteLowLimit": 26,
              "noteHighLimit": 127,
              "rtr": "PITCH_SHIFT_TO_ROOT"
            },
            "ctb2High": null
          },
          "notes": [
            {
              "pitch": 36,
              "velocity": 60,
              "position": 0,
              "duration": 1.2
            },
            {
              "pitch": 43,
              "velocity": 100,
              "position": 1.3333333333333333,
              "duration": 0.175
            },
            {
              "pitch": 48,
              "velocity": 40,
              "position": 1.6666666666666667,
              "duration": 0.125
            },
            {
              "pitch": 43,
              "velocity": 60,
              "position": 2,
              "duration": 1.5083333333333333
            },
            {
              "pitch": 43,
              "velocity": 100,
              "position": 3.6666666666666665,
              "duration": 0.175
            },
            {
              "pitch": 36,
              "velocity": 60,
              "position": 4,
              "duration": 1.2
            },
            {
              "pitch": 43,
              "velocity": 100,
              "position": 5.333333333333333,
              "duration": 0.175
            },
            {
              "pitch": 48,
              "velocity": 40,
              "position": 5.666666666666667,
              "duration": 0.125
            },
            {
              "pitch": 43,
              "velocity": 60,
              "position": 6,
              "duration": 1.5083333333333333
            },
            {
              "pitch": 43,
              "velocity": 100,
              "position": 7.666666666666667,
              "duration": 0.175
            },
            {
              "pitch": 36,
              "velocity": 60,
              "position": 8,
              "duration": 1.2
            },
            {
              "pitch": 43,
              "velocity": 100,
              "position": 9.333333333333334,
              "duration": 0.175
            },
            {
              "pitch": 48,
              "velocity": 40,
              "position": 9.666666666666666,
              "duration": 0.125
            },
            {
              "pitch": 43,
              "velocity": 60,
              "position": 10,
              "duration": 1.5083333333333333
            },
            {
              "pitch": 43,
              "velocity": 100,
              "position": 11.666666666666666,
              "duration": 0.175
            },
            {
              "pitch": 36,
              "velocity": 60,
              "position": 12,
              "duration": 1.2
            },
            {
              "pitch": 43,
              "velocity": 100,
              "position": 13.333333333333334,
              "duration": 0.175
            },
            {
              "pitch": 48,
              "velocity": 40,
              "position": 13.666666666666666,
              "duration": 0.125
            },
            {
              "pitch": 43,
              "velocity": 60,
              "position": 14,
              "duration": 1.5083333333333333
            },
            {
              "pitch": 43,
              "velocity": 100,
              "position": 15.666666666666666,
              "duration": 0.175
            }
          ]
        },
        "11": {
          "ctab": {
            "srcChannel": 11,
            "name": "E.Piano",
            "accType": "CHORD1",
            "editable": false,
            "mutedNotes": [],
            "mutedChords": [],
            "autoStart": false,
            "sourceChordNote": 0,
            "sourceChordType": "Maj7",
            "ctb2Low": null,
            "ctb2Main": {
              "ntr": "ROOT_FIXED",
              "ntt": "CHORD",
              "bassOn": false,
              "chordRootUpperLimit": 7,
              "noteLowLimit": 0,
              "noteHighLimit": 127,
              "rtr": "PITCH_SHIFT"
            },
            "ctb2High": null
          },
          "notes": [
            {
              "pitch": 64,
              "velocity": 85,
              "position": 0,
              "duration": 1.93125
            },
            {
              "pitch": 36,
              "velocity": 56,
              "position": 0.00625,
              "duration": 1.94375
            },
            {
              "pitch": 67,
              "velocity": 85,
              "position": 0.008333333333333333,
              "duration": 1.9416666666666667
            },
            {
              "pitch": 59,
              "velocity": 85,
              "position": 0.016666666666666666,
              "duration": 1.9375
            },
            {
              "pitch": 55,
              "velocity": 85,
              "position": 0.0125,
              "duration": 1.9479166666666667
            },
            {
              "pitch": 43,
              "velocity": 51,
              "position": 1.9916666666666667,
              "duration": 1.9479166666666667
            },
            {
              "pitch": 55,
              "velocity": 80,
              "position": 2.6708333333333334,
              "duration": 1.2729166666666667
            },
            {
              "pitch": 59,
              "velocity": 80,
              "position": 2.6791666666666667,
              "duration": 1.26875
            },
            {
              "pitch": 67,
              "velocity": 80,
              "position": 2.68125,
              "duration": 1.275
            },
            {
              "pitch": 64,
              "velocity": 80,
              "position": 2.6666666666666665,
              "duration": 1.2958333333333334
            },
            {
              "pitch": 52,
              "velocity": 25,
              "position": 4.00625,
              "duration": 1.93125
            },
            {
              "pitch": 64,
              "velocity": 65,
              "position": 4.004166666666666,
              "duration": 1.9520833333333334
            },
            {
              "pitch": 55,
              "velocity": 65,
              "position": 4,
              "duration": 1.9583333333333333
            },
            {
              "pitch": 36,
              "velocity": 47,
              "position": 4.008333333333334,
              "duration": 1.9520833333333334
            },
            {
              "pitch": 59,
              "velocity": 65,
              "position": 4,
              "duration": 1.9625
            },
            {
              "pitch": 64,
              "velocity": 75,
              "position": 6.658333333333333,
              "duration": 1.2625
            },
            {
              "pitch": 59,
              "velocity": 75,
              "position": 6.658333333333333,
              "duration": 1.2708333333333333
            },
            {
              "pitch": 67,
              "velocity": 75,
              "position": 6.6625,
              "duration": 1.2791666666666666
            },
            {
              "pitch": 43,
              "velocity": 44,
              "position": 6.002083333333333,
              "duration": 1.94375
            },
            {
              "pitch": 55,
              "velocity": 75,
              "position": 6.672916666666667,
              "duration": 1.3
            },
            {
              "pitch": 55,
              "velocity": 65,
              "position": 8,
              "duration": 1.9416666666666667
            },
            {
              "pitch": 67,
              "velocity": 65,
              "position": 8.0125,
              "duration": 1.9333333333333333
            },
            {
              "pitch": 59,
              "velocity": 65,
              "position": 8.004166666666666,
              "duration": 1.9479166666666667
            },
            {
              "pitch": 36,
              "velocity": 36,
              "position": 8.002083333333333,
              "duration": 1.95625
            },
            {
              "pitch": 64,
              "velocity": 65,
              "position": 8.010416666666666,
              "duration": 1.9666666666666666
            },
            {
              "pitch": 52,
              "velocity": 30,
              "position": 10.6625,
              "duration": 1.2645833333333334
            },
            {
              "pitch": 59,
              "velocity": 75,
              "position": 10.6625,
              "duration": 1.2770833333333333
            },
            {
              "pitch": 55,
              "velocity": 75,
              "position": 10.65625,
              "duration": 1.2833333333333334
            },
            {
              "pitch": 64,
              "velocity": 75,
              "position": 10.658333333333333,
              "duration": 1.2833333333333334
            },
            {
              "pitch": 43,
              "velocity": 52,
              "position": 10.008333333333333,
              "duration": 1.96875
            },
            {
              "pitch": 64,
              "velocity": 65,
              "position": 12.004166666666666,
              "duration": 1.9333333333333333
            },
            {
              "pitch": 52,
              "velocity": 25,
              "position": 12.002083333333333,
              "duration": 1.9479166666666667
            },
            {
              "pitch": 55,
              "velocity": 65,
              "position": 12,
              "duration": 1.9583333333333333
            },
            {
              "pitch": 36,
              "velocity": 39,
              "position": 12.008333333333333,
              "duration": 1.95625
            },
            {
              "pitch": 59,
              "velocity": 65,
              "position": 12.010416666666666,
              "duration": 1.96875
            },
            {
              "pitch": 59,
              "velocity": 80,
              "position": 14.65625,
              "duration": 1.29375
            },
            {
              "pitch": 55,
              "velocity": 80,
              "position": 14.6625,
              "duration": 1.2958333333333334
            },
            {
              "pitch": 64,
              "velocity": 80,
              "position": 14.664583333333333,
              "duration": 1.2979166666666666
            },
            {
              "pitch": 43,
              "velocity": 56,
              "position": 14.00625,
              "duration": 1.9645833333333333
            },
            {
              "pitch": 67,
              "velocity": 80,
              "position": 14.670833333333333,
              "duration": 1.3020833333333333
            }
          ]
        },
        "12": {
          "ctab": {
            "srcChannel": 12,
            "name": "JazzGtr",
            "accType": "CHORD2",
            "editable": false,
            "mutedNotes": [],
            "mutedChords": [],
            "autoStart": false,
            "sourceChordNote": 0,
            "sourceChordType": "Maj7",
            "ctb2Low": null,
            "ctb2Main": {
              "ntr": "ROOT_TRANSPOSITION",
              "ntt": "MELODY",
              "bassOn": false,
              "chordRootUpperLimit": 7,
              "noteLowLimit": 0,
              "noteHighLimit": 127,
              "rtr": "PITCH_SHIFT"
            },
            "ctb2High": null
          },
          "notes": [
            {
              "pitch": 55,
              "velocity": 30,
              "position": 0.70625,
              "duration": 0.20625
            },
            {
              "pitch": 59,
              "velocity": 30,
              "position": 0.70625,
              "duration": 0.20625
            },
            {
              "pitch": 67,
              "velocity": 30,
              "position": 0.69375,
              "duration": 0.225
            },
            {
              "pitch": 71,
              "velocity": 30,
              "position": 0.69375,
              "duration": 0.225
            },
            {
              "pitch": 64,
              "velocity": 30,
              "position": 0.69375,
              "duration": 0.23333333333333334
            },
            {
              "pitch": 60,
              "velocity": 29,
              "position": 0.70625,
              "duration": 0.23541666666666666
            },
            {
              "pitch": 60,
              "velocity": 40,
              "position": 2.7041666666666666,
              "duration": 0.9416666666666667
            },
            {
              "pitch": 55,
              "velocity": 41,
              "position": 2.7104166666666667,
              "duration": 0.9520833333333333
            },
            {
              "pitch": 59,
              "velocity": 41,
              "position": 2.7104166666666667,
              "duration": 0.9520833333333333
            },
            {
              "pitch": 64,
              "velocity": 42,
              "position": 2.7083333333333335,
              "duration": 0.9604166666666667
            },
            {
              "pitch": 67,
              "velocity": 42,
              "position": 2.71875,
              "duration": 0.95625
            },
            {
              "pitch": 71,
              "velocity": 42,
              "position": 2.71875,
              "duration": 0.95625
            },
            {
              "pitch": 64,
              "velocity": 29,
              "position": 4.691666666666666,
              "duration": 0.20625
            },
            {
              "pitch": 55,
              "velocity": 30,
              "position": 4.70625,
              "duration": 0.21458333333333332
            },
            {
              "pitch": 59,
              "velocity": 30,
              "position": 4.70625,
              "duration": 0.21458333333333332
            },
            {
              "pitch": 60,
              "velocity": 29,
              "position": 4.697916666666667,
              "duration": 0.22916666666666666
            },
            {
              "pitch": 67,
              "velocity": 30,
              "position": 4.704166666666667,
              "duration": 0.23333333333333334
            },
            {
              "pitch": 71,
              "velocity": 30,
              "position": 4.704166666666667,
              "duration": 0.23333333333333334
            },
            {
              "pitch": 55,
              "velocity": 43,
              "position": 6.697916666666667,
              "duration": 0.925
            },
            {
              "pitch": 59,
              "velocity": 43,
              "position": 6.697916666666667,
              "duration": 0.925
            },
            {
              "pitch": 60,
              "velocity": 41,
              "position": 6.71875,
              "duration": 0.9229166666666667
            },
            {
              "pitch": 67,
              "velocity": 41,
              "position": 6.702083333333333,
              "duration": 0.9416666666666667
            },
            {
              "pitch": 71,
              "velocity": 41,
              "position": 6.702083333333333,
              "duration": 0.9416666666666667
            },
            {
              "pitch": 64,
              "velocity": 41,
              "position": 6.716666666666667,
              "duration": 0.9479166666666666
            },
            {
              "pitch": 60,
              "velocity": 30,
              "position": 8.7,
              "duration": 0.22708333333333333
            },
            {
              "pitch": 67,
              "velocity": 32,
              "position": 8.710416666666667,
              "duration": 0.22083333333333333
            },
            {
              "pitch": 71,
              "velocity": 32,
              "position": 8.710416666666667,
              "duration": 0.22083333333333333
            },
            {
              "pitch": 55,
              "velocity": 31,
              "position": 8.720833333333333,
              "duration": 0.22291666666666668
            },
            {
              "pitch": 59,
              "velocity": 31,
              "position": 8.720833333333333,
              "duration": 0.22291666666666668
            },
            {
              "pitch": 64,
              "velocity": 30,
              "position": 8.704166666666667,
              "duration": 0.24166666666666667
            },
            {
              "pitch": 55,
              "velocity": 41,
              "position": 10.704166666666667,
              "duration": 0.9229166666666667
            },
            {
              "pitch": 59,
              "velocity": 41,
              "position": 10.704166666666667,
              "duration": 0.9229166666666667
            },
            {
              "pitch": 64,
              "velocity": 43,
              "position": 10.704166666666667,
              "duration": 0.9270833333333334
            },
            {
              "pitch": 67,
              "velocity": 41,
              "position": 10.7125,
              "duration": 0.9354166666666667
            },
            {
              "pitch": 71,
              "velocity": 41,
              "position": 10.7125,
              "duration": 0.9354166666666667
            },
            {
              "pitch": 60,
              "velocity": 43,
              "position": 10.689583333333333,
              "duration": 0.9583333333333334
            },
            {
              "pitch": 67,
              "velocity": 30,
              "position": 12.69375,
              "duration": 0.22083333333333333
            },
            {
              "pitch": 71,
              "velocity": 30,
              "position": 12.69375,
              "duration": 0.22083333333333333
            },
            {
              "pitch": 60,
              "velocity": 30,
              "position": 12.708333333333334,
              "duration": 0.21666666666666667
            },
            {
              "pitch": 55,
              "velocity": 30,
              "position": 12.704166666666667,
              "duration": 0.22708333333333333
            },
            {
              "pitch": 59,
              "velocity": 30,
              "position": 12.704166666666667,
              "duration": 0.22708333333333333
            },
            {
              "pitch": 64,
              "velocity": 28,
              "position": 12.708333333333334,
              "duration": 0.22916666666666666
            },
            {
              "pitch": 60,
              "velocity": 40,
              "position": 14.70625,
              "duration": 0.9479166666666666
            },
            {
              "pitch": 67,
              "velocity": 40,
              "position": 14.71875,
              "duration": 0.9416666666666667
            },
            {
              "pitch": 71,
              "velocity": 40,
              "position": 14.71875,
              "duration": 0.9416666666666667
            },
            {
              "pitch": 64,
              "velocity": 42,
              "position": 14.71875,
              "duration": 0.9541666666666667
            },
            {
              "pitch": 55,
              "velocity": 43,
              "position": 14.722916666666666,
              "duration": 0.9604166666666667
            },
            {
              "pitch": 59,
              "velocity": 43,
              "position": 14.722916666666666,
              "duration": 0.9604166666666667
            }
          ]
        },
        "13": {
          "ctab": {
            "srcChannel": 13,
            "name": "PopVocal",
            "accType": "PAD",
            "editable": false,
            "mutedNotes": [],
            "mutedChords": [],
            "autoStart": false,
            "sourceChordNote": 0,
            "sourceChordType": "Maj7",
            "ctb2Low": null,
            "ctb2Main": {
              "ntr": "ROOT_FIXED",
              "ntt": "CHORD",
              "bassOn": false,
              "chordRootUpperLimit": 7,
              "noteLowLimit": 53,
              "noteHighLimit": 127,
              "rtr": "PITCH_SHIFT"
            },
            "ctb2High": null
          },
          "notes": [
            {
              "pitch": 64,
              "velocity": 7,
              "position": 0.010416666666666666,
              "duration": 14.947916666666666
            },
            {
              "pitch": 67,
              "velocity": 27,
              "position": 0.010416666666666666,
              "duration": 14.952083333333333
            },
            {
              "pitch": 35,
              "velocity": 27,
              "position": 0.010416666666666666,
              "duration": 14.960416666666667
            }
          ]
        },
        "15": {
          "ctab": {
            "srcChannel": 15,
            "name": "BalladDX",
            "accType": "PHRASE2",
            "editable": false,
            "mutedNotes": [],
            "mutedChords": [],
            "autoStart": false,
            "sourceChordNote": 0,
            "sourceChordType": "Maj7",
            "ctb2Low": null,
            "ctb2Main": {
              "ntr": "ROOT_FIXED",
              "ntt": "CHORD",
              "bassOn": false,
              "chordRootUpperLimit": 7,
              "noteLowLimit": 0,
              "noteHighLimit": 127,
              "rtr": "PITCH_SHIFT"
            },
            "ctb2High": null
          },
          "notes": [
            {
              "pitch": 64,
              "velocity": 97,
              "position": 0,
              "duration": 1.93125
            },
            {
              "pitch": 36,
              "velocity": 30,
              "position": 0.00625,
              "duration": 1.94375
            },
            {
              "pitch": 67,
              "velocity": 97,
              "position": 0.008333333333333333,
              "duration": 1.9416666666666667
            },
            {
              "pitch": 59,
              "velocity": 97,
              "position": 0.016666666666666666,
              "duration": 1.9375
            },
            {
              "pitch": 55,
              "velocity": 97,
              "position": 0.0125,
              "duration": 1.9479166666666667
            },
            {
              "pitch": 43,
              "velocity": 30,
              "position": 1.9916666666666667,
              "duration": 1.9479166666666667
            },
            {
              "pitch": 55,
              "velocity": 79,
              "position": 2.6708333333333334,
              "duration": 1.2729166666666667
            },
            {
              "pitch": 59,
              "velocity": 79,
              "position": 2.6791666666666667,
              "duration": 1.26875
            },
            {
              "pitch": 67,
              "velocity": 79,
              "position": 2.68125,
              "duration": 1.275
            },
            {
              "pitch": 64,
              "velocity": 79,
              "position": 2.6666666666666665,
              "duration": 1.2958333333333334
            },
            {
              "pitch": 52,
              "velocity": 24,
              "position": 4.00625,
              "duration": 1.93125
            },
            {
              "pitch": 64,
              "velocity": 27,
              "position": 4.004166666666666,
              "duration": 1.9520833333333334
            },
            {
              "pitch": 55,
              "velocity": 27,
              "position": 4,
              "duration": 1.9583333333333333
            },
            {
              "pitch": 36,
              "velocity": 30,
              "position": 4.008333333333334,
              "duration": 1.9520833333333334
            },
            {
              "pitch": 59,
              "velocity": 27,
              "position": 4,
              "duration": 1.9625
            },
            {
              "pitch": 64,
              "velocity": 62,
              "position": 6.658333333333333,
              "duration": 1.2625
            },
            {
              "pitch": 59,
              "velocity": 62,
              "position": 6.658333333333333,
              "duration": 1.2708333333333333
            },
            {
              "pitch": 67,
              "velocity": 62,
              "position": 6.6625,
              "duration": 1.2791666666666666
            },
            {
              "pitch": 43,
              "velocity": 30,
              "position": 6.002083333333333,
              "duration": 1.94375
            },
            {
              "pitch": 55,
              "velocity": 62,
              "position": 6.672916666666667,
              "duration": 1.3
            },
            {
              "pitch": 55,
              "velocity": 27,
              "position": 8,
              "duration": 1.9416666666666667
            },
            {
              "pitch": 67,
              "velocity": 27,
              "position": 8.0125,
              "duration": 1.9333333333333333
            },
            {
              "pitch": 59,
              "velocity": 27,
              "position": 8.004166666666666,
              "duration": 1.9479166666666667
            },
            {
              "pitch": 36,
              "velocity": 30,
              "position": 8.002083333333333,
              "duration": 1.95625
            },
            {
              "pitch": 64,
              "velocity": 27,
              "position": 8.010416666666666,
              "duration": 1.9666666666666666
            },
            {
              "pitch": 52,
              "velocity": 24,
              "position": 10.6625,
              "duration": 1.2645833333333334
            },
            {
              "pitch": 59,
              "velocity": 62,
              "position": 10.6625,
              "duration": 1.2770833333333333
            },
            {
              "pitch": 55,
              "velocity": 62,
              "position": 10.65625,
              "duration": 1.2833333333333334
            },
            {
              "pitch": 64,
              "velocity": 62,
              "position": 10.658333333333333,
              "duration": 1.2833333333333334
            },
            {
              "pitch": 43,
              "velocity": 30,
              "position": 10.008333333333333,
              "duration": 1.96875
            },
            {
              "pitch": 64,
              "velocity": 27,
              "position": 12.004166666666666,
              "duration": 1.9333333333333333
            },
            {
              "pitch": 52,
              "velocity": 24,
              "position": 12.002083333333333,
              "duration": 1.9479166666666667
            },
            {
              "pitch": 55,
              "velocity": 27,
              "position": 12,
              "duration": 1.9583333333333333
            },
            {
              "pitch": 36,
              "velocity": 30,
              "position": 12.008333333333333,
              "duration": 1.95625
            },
            {
              "pitch": 59,
              "velocity": 27,
              "position": 12.010416666666666,
              "duration": 1.96875
            },
            {
              "pitch": 59,
              "velocity": 79,
              "position": 14.65625,
              "duration": 1.29375
            },
            {
              "pitch": 55,
              "velocity": 79,
              "position": 14.6625,
              "duration": 1.2958333333333334
            },
            {
              "pitch": 64,
              "velocity": 79,
              "position": 14.664583333333333,
              "duration": 1.2979166666666666
            },
            {
              "pitch": 43,
              "velocity": 30,
              "position": 14.00625,
              "duration": 1.9645833333333333
            },
            {
              "pitch": 67,
              "velocity": 79,
              "position": 14.670833333333333,
              "duration": 1.3020833333333333
            }
          ]
        }
      }
    },
    "Fill_In_CC": {
      "type": "Fill_In_CC",
      "sizeInBeats": 4,
      "channels": {
        "8": {
          "ctab": {
            "srcChannel": 8,
            "name": "AddDrum",
            "accType": "SUBRHYTHM",
            "editable": false,
            "mutedNotes": [],
            "mutedChords": [],
            "autoStart": true,
            "sourceChordNote": 0,
            "sourceChordType": "Maj7",
            "ctb2Low": null,
            "ctb2Main": {
              "ntr": "ROOT_FIXED",
              "ntt": "BYPASS",
              "bassOn": false,
              "chordRootUpperLimit": 6,
              "noteLowLimit": 0,
              "noteHighLimit": 127,
              "rtr": "PITCH_SHIFT"
            },
            "ctb2High": null
          },
          "notes": [
            {
              "pitch": 73,
              "velocity": 66,
              "position": 0,
              "duration": 0.020833333333333332
            },
            {
              "pitch": 73,
              "velocity": 86,
              "position": 1,
              "duration": 0.020833333333333332
            },
            {
              "pitch": 73,
              "velocity": 66,
              "position": 2,
              "duration": 0.020833333333333332
            },
            {
              "pitch": 73,
              "velocity": 86,
              "position": 3,
              "duration": 0.020833333333333332
            }
          ]
        },
        "9": {
          "ctab": {
            "srcChannel": 9,
            "name": "MainDrum",
            "accType": "RHYTHM",
            "editable": false,
            "mutedNotes": [],
            "mutedChords": [],
            "autoStart": true,
            "sourceChordNote": 0,
            "sourceChordType": "Maj7",
            "ctb2Low": null,
            "ctb2Main": {
              "ntr": "ROOT_FIXED",
              "ntt": "BYPASS",
              "bassOn": false,
              "chordRootUpperLimit": 6,
              "noteLowLimit": 0,
              "noteHighLimit": 127,
              "rtr": "PITCH_SHIFT"
            },
            "ctb2High": null
          },
          "notes": [
            {
              "pitch": 33,
              "velocity": 80,
              "position": 0,
              "duration": 0.020833333333333332
            },
            {
              "pitch": 51,
              "velocity": 50,
              "position": 0,
              "duration": 0.020833333333333332
            },
            {
              "pitch": 44,
              "velocity": 30,
              "position": 0,
              "duration": 0.020833333333333332
            },
            {
              "pitch": 31,
              "velocity": 12,
              "position": 0.3333333333333333,
              "duration": 0.020833333333333332
            },
            {
              "pitch": 40,
              "velocity": 24,
              "position": 0.6666666666666666,
              "duration": 0.020833333333333332
            },
            {
              "pitch": 44,
              "velocity": 50,
              "position": 1,
              "duration": 0.020833333333333332
            },
            {
              "pitch": 51,
              "velocity": 50,
              "position": 1,
              "duration": 0.020833333333333332
            },
            {
              "pitch": 31,
              "velocity": 16,
              "position": 1.3333333333333333,
              "duration": 0.020833333333333332
            },
            {
              "pitch": 33,
              "velocity": 80,
              "position": 1.6666666666666667,
              "duration": 0.020833333333333332
            },
            {
              "pitch": 46,
              "velocity": 40,
              "position": 1.6666666666666667,
              "duration": 0.020833333333333332
            },
            {
              "pitch": 44,
              "velocity": 30,
              "position": 2,
              "duration": 0.020833333333333332
            },
            {
              "pitch": 31,
              "velocity": 16,
              "position": 2.3333333333333335,
              "duration": 0.020833333333333332
            },
            {
              "pitch": 33,
              "velocity": 80,
              "position": 2.6666666666666665,
              "duration": 0.020833333333333332
            },
            {
              "pitch": 55,
              "velocity": 50,
              "position": 2.6666666666666665,
              "duration": 0.020833333333333332
            },
            {
              "pitch": 44,
              "velocity": 50,
              "position": 3,
              "duration": 0.020833333333333332
            },
            {
              "pitch": 40,
              "velocity": 40,
              "position": 3.3333333333333335,
              "duration": 0.020833333333333332
            },
            {
              "pitch": 40,
              "velocity": 99,
              "position": 3.6666666666666665,
              "duration": 0.020833333333333332
            },
            {
              "pitch": 49,
              "velocity": 60,
              "position": 3.9895833333333335,
              "duration": 0.004166666666666667
            }
          ]
        },
        "10": {
          "ctab": {
            "srcChannel": 10,
            "name": "Bass",
            "accType": "BASS",
            "editable": false,
            "mutedNotes": [],
            "mutedChords": [],
            "autoStart": false,
            "sourceChordNote": 0,
            "sourceChordType": "Maj7",
            "ctb2Low": null,
            "ctb2Main": {
              "ntr": "ROOT_TRANSPOSITION",
              "ntt": "MELODY",
              "bassOn": true,
              "chordRootUpperLimit": 1,
              "noteLowLimit": 26,
              "noteHighLimit": 127,
              "rtr": "PITCH_SHIFT_TO_ROOT"
            },
            "ctb2High": null
          },
          "notes": [
            {
              "pitch": 36,
              "velocity": 60,
              "position": 0,
              "duration": 1.2
            },
            {
              "pitch": 36,
              "velocity": 60,
              "position": 1.6666666666666667,
              "duration": 0.5
            },
            {
              "pitch": 48,
              "velocity": 100,
              "position": 2.3333333333333335,
              "duration": 0.175
            },
            {
              "pitch": 36,
              "velocity": 60,
              "position": 2.6666666666666665,
              "duration": 1.125
            }
          ]
        },
        "11": {
          "ctab": {
            "srcChannel": 11,
            "name": "E.Piano",
            "accType": "CHORD1",
            "editable": false,
            "mutedNotes": [],
            "mutedChords": [],
            "autoStart": false,
            "sourceChordNote": 0,
            "sourceChordType": "Maj7",
            "ctb2Low": null,
            "ctb2Main": {
              "ntr": "ROOT_FIXED",
              "ntt": "CHORD",
              "bassOn": false,
              "chordRootUpperLimit": 7,
              "noteLowLimit": 0,
              "noteHighLimit": 127,
              "rtr": "PITCH_SHIFT"
            },
            "ctb2High": null
          },
          "notes": [
            {
              "pitch": 52,
              "velocity": 9,
              "position": 0.00625,
              "duration": 1.43125
            },
            {
              "pitch": 64,
              "velocity": 70,
              "position": 0.004166666666666667,
              "duration": 1.4520833333333334
            },
            {
              "pitch": 55,
              "velocity": 70,
              "position": 0,
              "duration": 1.4583333333333333
            },
            {
              "pitch": 59,
              "velocity": 70,
              "position": 0,
              "duration": 1.4625
            },
            {
              "pitch": 36,
              "velocity": 47,
              "position": 0.008333333333333333,
              "duration": 1.4770833333333333
            },
            {
              "pitch": 55,
              "velocity": 85,
              "position": 1.6708333333333334,
              "duration": 0.19791666666666666
            },
            {
              "pitch": 59,
              "velocity": 85,
              "position": 1.6791666666666667,
              "duration": 0.19375
            },
            {
              "pitch": 36,
              "velocity": 47,
              "position": 1.675,
              "duration": 0.20208333333333334
            },
            {
              "pitch": 67,
              "velocity": 85,
              "position": 1.68125,
              "duration": 0.2
            },
            {
              "pitch": 64,
              "velocity": 85,
              "position": 1.6666666666666667,
              "duration": 0.22083333333333333
            },
            {
              "pitch": 64,
              "velocity": 90,
              "position": 2.6666666666666665,
              "duration": 1.18125
            },
            {
              "pitch": 36,
              "velocity": 56,
              "position": 2.6729166666666666,
              "duration": 1.1833333333333333
            },
            {
              "pitch": 67,
              "velocity": 90,
              "position": 2.675,
              "duration": 1.1916666666666667
            },
            {
              "pitch": 59,
              "velocity": 90,
              "position": 2.683333333333333,
              "duration": 1.1875
            },
            {
              "pitch": 71,
              "velocity": 90,
              "position": 2.6791666666666667,
              "duration": 1.1979166666666667
            }
          ]
        },
        "12": {
          "ctab": {
            "srcChannel": 12,
            "name": "JazzGtr",
            "accType": "CHORD2",
            "editable": false,
            "mutedNotes": [],
            "mutedChords": [],
            "autoStart": false,
            "sourceChordNote": 0,
            "sourceChordType": "Maj7",
            "ctb2Low": null,
            "ctb2Main": {
              "ntr": "ROOT_TRANSPOSITION",
              "ntt": "MELODY",
              "bassOn": false,
              "chordRootUpperLimit": 7,
              "noteLowLimit": 0,
              "noteHighLimit": 127,
              "rtr": "PITCH_SHIFT"
            },
            "ctb2High": null
          },
          "notes": [
            {
              "pitch": 67,
              "velocity": 30,
              "position": 0.69375,
              "duration": 0.22083333333333333
            },
            {
              "pitch": 71,
              "velocity": 30,
              "position": 0.69375,
              "duration": 0.22083333333333333
            },
            {
              "pitch": 60,
              "velocity": 30,
              "position": 0.7083333333333334,
              "duration": 0.21666666666666667
            },
            {
              "pitch": 55,
              "velocity": 30,
              "position": 0.7041666666666667,
              "duration": 0.22708333333333333
            },
            {
              "pitch": 59,
              "velocity": 30,
              "position": 0.7041666666666667,
              "duration": 0.22708333333333333
            },
            {
              "pitch": 64,
              "velocity": 28,
              "position": 0.7083333333333334,
              "duration": 0.22916666666666666
            },
            {
              "pitch": 67,
              "velocity": 16,
              "position": 1.69375,
              "duration": 0.22083333333333333
            },
            {
              "pitch": 71,
              "velocity": 16,
              "position": 1.69375,
              "duration": 0.22083333333333333
            },
            {
              "pitch": 60,
              "velocity": 16,
              "position": 1.7083333333333333,
              "duration": 0.21666666666666667
            },
            {
              "pitch": 55,
              "velocity": 16,
              "position": 1.7041666666666666,
              "duration": 0.22708333333333333
            },
            {
              "pitch": 59,
              "velocity": 16,
              "position": 1.7041666666666666,
              "duration": 0.22708333333333333
            },
            {
              "pitch": 64,
              "velocity": 14,
              "position": 1.7083333333333333,
              "duration": 0.22916666666666666
            },
            {
              "pitch": 60,
              "velocity": 40,
              "position": 2.70625,
              "duration": 0.9479166666666666
            },
            {
              "pitch": 67,
              "velocity": 40,
              "position": 2.71875,
              "duration": 0.9416666666666667
            },
            {
              "pitch": 71,
              "velocity": 40,
              "position": 2.71875,
              "duration": 0.9416666666666667
            },
            {
              "pitch": 64,
              "velocity": 42,
              "position": 2.71875,
              "duration": 0.9541666666666667
            },
            {
              "pitch": 55,
              "velocity": 43,
              "position": 2.722916666666667,
              "duration": 0.9604166666666667
            },
            {
              "pitch": 59,
              "velocity": 43,
              "position": 2.722916666666667,
              "duration": 0.9604166666666667
            }
          ]
        },
        "13": {
          "ctab": {
            "srcChannel": 13,
            "name": "PopVocal",
            "accType": "PAD",
            "editable": false,
            "mutedNotes": [],
            "mutedChords": [],
            "autoStart": false,
            "sourceChordNote": 0,
            "sourceChordType": "Maj7",
            "ctb2Low": null,
            "ctb2Main": {
              "ntr": "ROOT_FIXED",
              "ntt": "CHORD",
              "bassOn": false,
              "chordRootUpperLimit": 7,
              "noteLowLimit": 53,
              "noteHighLimit": 127,
              "rtr": "PITCH_SHIFT"
            },
            "ctb2High": null
          },
          "notes": [
            {
              "pitch": 35,
              "velocity": 37,
              "position": 0.010416666666666666,
              "duration": 1.9583333333333333
            },
            {
              "pitch": 67,
              "velocity": 37,
              "position": 0.010416666666666666,
              "duration": 1.9583333333333333
            },
            {
              "pitch": 64,
              "velocity": 17,
              "position": 0.010416666666666666,
              "duration": 1.9583333333333333
            },
            {
              "pitch": 35,
              "velocity": 95,
              "position": 2.5770833333333334,
              "duration": 1.40625
            },
            {
              "pitch": 67,
              "velocity": 95,
              "position": 2.5770833333333334,
              "duration": 1.40625
            },
            {
              "pitch": 64,
              "velocity": 95,
              "position": 2.5770833333333334,
              "duration": 1.40625
            }
          ]
        },
        "15": {
          "ctab": {
            "srcChannel": 15,
            "name": "BalladDX",
            "accType": "PHRASE2",
            "editable": false,
            "mutedNotes": [],
            "mutedChords": [],
            "autoStart": false,
            "sourceChordNote": 0,
            "sourceChordType": "Maj7",
            "ctb2Low": null,
            "ctb2Main": {
              "ntr": "ROOT_FIXED",
              "ntt": "CHORD",
              "bassOn": false,
              "chordRootUpperLimit": 7,
              "noteLowLimit": 0,
              "noteHighLimit": 127,
              "rtr": "PITCH_SHIFT"
            },
            "ctb2High": null
          },
          "notes": [
            {
              "pitch": 52,
              "velocity": 24,
              "position": 0.00625,
              "duration": 1.43125
            },
            {
              "pitch": 64,
              "velocity": 44,
              "position": 0.004166666666666667,
              "duration": 1.4520833333333334
            },
            {
              "pitch": 55,
              "velocity": 44,
              "position": 0,
              "duration": 1.4583333333333333
            },
            {
              "pitch": 59,
              "velocity": 44,
              "position": 0,
              "duration": 1.4625
            },
            {
              "pitch": 36,
              "velocity": 30,
              "position": 0.008333333333333333,
              "duration": 1.4770833333333333
            },
            {
              "pitch": 55,
              "velocity": 97,
              "position": 1.6708333333333334,
              "duration": 0.19791666666666666
            },
            {
              "pitch": 59,
              "velocity": 97,
              "position": 1.6791666666666667,
              "duration": 0.19375
            },
            {
              "pitch": 36,
              "velocity": 30,
              "position": 1.675,
              "duration": 0.20208333333333334
            },
            {
              "pitch": 67,
              "velocity": 97,
              "position": 1.68125,
              "duration": 0.2
            },
            {
              "pitch": 64,
              "velocity": 97,
              "position": 1.6666666666666667,
              "duration": 0.22083333333333333
            },
            {
              "pitch": 64,
              "velocity": 114,
              "position": 2.6666666666666665,
              "duration": 1.18125
            },
            {
              "pitch": 36,
              "velocity": 30,
              "position": 2.6729166666666666,
              "duration": 1.1833333333333333
            },
            {
              "pitch": 67,
              "velocity": 114,
              "position": 2.675,
              "duration": 1.1916666666666667
            },
            {
              "pitch": 59,
              "velocity": 114,
              "position": 2.683333333333333,
              "duration": 1.1875
            },
            {
              "pitch": 71,
              "velocity": 114,
              "position": 2.6791666666666667,
              "duration": 1.1979166666666667
            }
          ]
        }
      }
    },
    "Main_D": {
      "type": "Main_D",
      "sizeInBeats": 16,
      "channels": {
        "0": {
          "ctab": {
            "srcChannel": 0,
            "name": "Bs CEG",
            "accType": "BASS",
            "editable": false,
            "mutedNotes": [],
            "mutedChords": [
              "7aug",
              "7(b9)",
              "7(13)",
              "7#11",
              "7(9)",
              "7b5",
              "7th",
              "dim7",
              "min7(11)",
              "min7(9)",
              "min(9)",
              "m7b5",
              "min7",
              "min6",
              "min",
              "Maj6(9)",
              "Maj7(9)",
              "Maj(9)",
              "Maj7#11",
              "Maj7",
              "Maj6",
              "Maj"
            ],
            "autoStart": false,
            "sourceChordNote": 0,
            "sourceChordType": "Maj7",
            "ctb2Low": null,
            "ctb2Main": {
              "ntr": "ROOT_TRANSPOSITION",
              "ntt": "MELODY",
              "bassOn": true,
              "chordRootUpperLimit": 3,
              "noteLowLimit": 28,
              "noteHighLimit": 55,
              "rtr": "PITCH_SHIFT_TO_ROOT"
            },
            "ctb2High": null
          },
          "notes": [
            {
              "pitch": 24,
              "velocity": 60,
              "position": 0,
              "duration": 0.8583333333333333
            },
            {
              "pitch": 48,
              "velocity": 81,
              "position": 0.7083333333333334,
              "duration": 0.2708333333333333
            },
            {
              "pitch": 28,
              "velocity": 60,
              "position": 1,
              "duration": 0.8583333333333333
            },
            {
              "pitch": 50,
              "velocity": 81,
              "position": 1.7083333333333333,
              "duration": 0.2708333333333333
            },
            {
              "pitch": 31,
              "velocity": 60,
              "position": 2,
              "duration": 0.8583333333333333
            },
            {
              "pitch": 52,
              "velocity": 81,
              "position": 2.7083333333333335,
              "duration": 0.2708333333333333
            },
            {
              "pitch": 28,
              "velocity": 60,
              "position": 3,
              "duration": 0.8583333333333333
            },
            {
              "pitch": 55,
              "velocity": 81,
              "position": 3.7083333333333335,
              "duration": 0.2708333333333333
            },
            {
              "pitch": 36,
              "velocity": 60,
              "position": 4,
              "duration": 0.8583333333333333
            },
            {
              "pitch": 60,
              "velocity": 81,
              "position": 4.708333333333333,
              "duration": 0.2708333333333333
            },
            {
              "pitch": 31,
              "velocity": 60,
              "position": 5,
              "duration": 0.8583333333333333
            },
            {
              "pitch": 57,
              "velocity": 81,
              "position": 5.708333333333333,
              "duration": 0.2708333333333333
            },
            {
              "pitch": 28,
              "velocity": 60,
              "position": 6,
              "duration": 0.8583333333333333
            },
            {
              "pitch": 55,
              "velocity": 81,
              "position": 6.708333333333333,
              "duration": 0.2708333333333333
            },
            {
              "pitch": 31,
              "velocity": 60,
              "position": 7,
              "duration": 0.8583333333333333
            },
            {
              "pitch": 52,
              "velocity": 81,
              "position": 7.708333333333333,
              "duration": 0.2708333333333333
            },
            {
              "pitch": 24,
              "velocity": 60,
              "position": 8,
              "duration": 0.8583333333333333
            },
            {
              "pitch": 48,
              "velocity": 81,
              "position": 8.708333333333334,
              "duration": 0.2708333333333333
            },
            {
              "pitch": 28,
              "velocity": 60,
              "position": 9,
              "duration": 0.8583333333333333
            },
            {
              "pitch": 50,
              "velocity": 81,
              "position": 9.708333333333334,
              "duration": 0.2708333333333333
            },
            {
              "pitch": 31,
              "velocity": 60,
              "position": 10,
              "duration": 0.8583333333333333
            },
            {
              "pitch": 52,
              "velocity": 81,
              "position": 10.708333333333334,
              "duration": 0.2708333333333333
            },
            {
              "pitch": 28,
              "velocity": 60,
              "position": 11,
              "duration": 0.8583333333333333
            },
            {
              "pitch": 55,
              "velocity": 81,
              "position": 11.708333333333334,
              "duration": 0.2708333333333333
            },
            {
              "pitch": 36,
              "velocity": 60,
              "position": 12,
              "duration": 0.8583333333333333
            },
            {
              "pitch": 60,
              "velocity": 81,
              "position": 12.708333333333334,
              "duration": 0.2708333333333333
            },
            {
              "pitch": 31,
              "velocity": 60,
              "position": 13,
              "duration": 0.8583333333333333
            },
            {
              "pitch": 57,
              "velocity": 81,
              "position": 13.708333333333334,
              "duration": 0.2708333333333333
            },
            {
              "pitch": 28,
              "velocity": 60,
              "position": 14,
              "duration": 0.8583333333333333
            },
            {
              "pitch": 55,
              "velocity": 81,
              "position": 14.708333333333334,
              "duration": 0.2708333333333333
            },
            {
              "pitch": 31,
              "velocity": 60,
              "position": 15,
              "duration": 0.8583333333333333
            },
            {
              "pitch": 52,
              "velocity": 81,
              "position": 15.708333333333334,
              "duration": 0.2708333333333333
            }
          ]
        },
        "1": {
          "ctab": {
            "srcChannel": 1,
            "name": "Bs CDEG",
            "accType": "BASS",
            "editable": false,
            "mutedNotes": [],
            "mutedChords": [
              "1+2+5",
              "sus4",
              "1+5",
              "1+8",
              "Maj7aug",
              "7(#9)",
              "7(b13)",
              "7(13)",
              "7sus4",
              "dim7",
              "dim",
              "minMaj7(9)",
              "minMaj7",
              "min6",
              "aug",
              "Maj6(9)",
              "Maj7(9)",
              "Maj(9)",
              "Maj7#11",
              "Maj7",
              "Maj6",
              "Maj"
            ],
            "autoStart": false,
            "sourceChordNote": 0,
            "sourceChordType": "Maj7",
            "ctb2Low": null,
            "ctb2Main": {
              "ntr": "ROOT_TRANSPOSITION",
              "ntt": "MELODIC_MINOR_5",
              "bassOn": true,
              "chordRootUpperLimit": 3,
              "noteLowLimit": 28,
              "noteHighLimit": 55,
              "rtr": "PITCH_SHIFT_TO_ROOT"
            },
            "ctb2High": null
          },
          "notes": [
            {
              "pitch": 24,
              "velocity": 60,
              "position": 0,
              "duration": 0.8583333333333333
            },
            {
              "pitch": 48,
              "velocity": 81,
              "position": 0.7083333333333334,
              "duration": 0.2708333333333333
            },
            {
              "pitch": 26,
              "velocity": 60,
              "position": 1,
              "duration": 0.8583333333333333
            },
            {
              "pitch": 50,
              "velocity": 81,
              "position": 1.7083333333333333,
              "duration": 0.2708333333333333
            },
            {
              "pitch": 28,
              "velocity": 60,
              "position": 2,
              "duration": 0.8583333333333333
            },
            {
              "pitch": 52,
              "velocity": 81,
              "position": 2.7083333333333335,
              "duration": 0.2708333333333333
            },
            {
              "pitch": 31,
              "velocity": 60,
              "position": 3,
              "duration": 0.8583333333333333
            },
            {
              "pitch": 55,
              "velocity": 81,
              "position": 3.7083333333333335,
              "duration": 0.2708333333333333
            },
            {
              "pitch": 36,
              "velocity": 60,
              "position": 4,
              "duration": 0.8583333333333333
            },
            {
              "pitch": 60,
              "velocity": 81,
              "position": 4.708333333333333,
              "duration": 0.2708333333333333
            },
            {
              "pitch": 31,
              "velocity": 60,
              "position": 5,
              "duration": 0.8583333333333333
            },
            {
              "pitch": 57,
              "velocity": 81,
              "position": 5.708333333333333,
              "duration": 0.2708333333333333
            },
            {
              "pitch": 28,
              "velocity": 60,
              "position": 6,
              "duration": 0.8583333333333333
            },
            {
              "pitch": 55,
              "velocity": 81,
              "position": 6.708333333333333,
              "duration": 0.2708333333333333
            },
            {
              "pitch": 26,
              "velocity": 60,
              "position": 7,
              "duration": 0.8583333333333333
            },
            {
              "pitch": 52,
              "velocity": 81,
              "position": 7.708333333333333,
              "duration": 0.2708333333333333
            },
            {
              "pitch": 24,
              "velocity": 60,
              "position": 8,
              "duration": 0.8583333333333333
            },
            {
              "pitch": 48,
              "velocity": 81,
              "position": 8.708333333333334,
              "duration": 0.2708333333333333
            },
            {
              "pitch": 26,
              "velocity": 60,
              "position": 9,
              "duration": 0.8583333333333333
            },
            {
              "pitch": 50,
              "velocity": 81,
              "position": 9.708333333333334,
              "duration": 0.2708333333333333
            },
            {
              "pitch": 28,
              "velocity": 60,
              "position": 10,
              "duration": 0.8583333333333333
            },
            {
              "pitch": 52,
              "velocity": 81,
              "position": 10.708333333333334,
              "duration": 0.2708333333333333
            },
            {
              "pitch": 31,
              "velocity": 60,
              "position": 11,
              "duration": 0.8583333333333333
            },
            {
              "pitch": 55,
              "velocity": 81,
              "position": 11.708333333333334,
              "duration": 0.2708333333333333
            },
            {
              "pitch": 36,
              "velocity": 60,
              "position": 12,
              "duration": 0.8583333333333333
            },
            {
              "pitch": 60,
              "velocity": 81,
              "position": 12.708333333333334,
              "duration": 0.2708333333333333
            },
            {
              "pitch": 31,
              "velocity": 60,
              "position": 13,
              "duration": 0.8583333333333333
            },
            {
              "pitch": 57,
              "velocity": 81,
              "position": 13.708333333333334,
              "duration": 0.2708333333333333
            },
            {
              "pitch": 28,
              "velocity": 60,
              "position": 14,
              "duration": 0.8583333333333333
            },
            {
              "pitch": 55,
              "velocity": 81,
              "position": 14.708333333333334,
              "duration": 0.2708333333333333
            },
            {
              "pitch": 26,
              "velocity": 60,
              "position": 15,
              "duration": 0.8583333333333333
            },
            {
              "pitch": 52,
              "velocity": 81,
              "position": 15.708333333333334,
              "duration": 0.2708333333333333
            }
          ]
        },
        "8": {
          "ctab": {
            "srcChannel": 8,
            "name": "AddDrum",
            "accType": "SUBRHYTHM",
            "editable": false,
            "mutedNotes": [],
            "mutedChords": [],
            "autoStart": true,
            "sourceChordNote": 0,
            "sourceChordType": "Maj7",
            "ctb2Low": null,
            "ctb2Main": {
              "ntr": "ROOT_FIXED",
              "ntt": "BYPASS",
              "bassOn": false,
              "chordRootUpperLimit": 6,
              "noteLowLimit": 0,
              "noteHighLimit": 127,
              "rtr": "PITCH_SHIFT"
            },
            "ctb2High": null
          },
          "notes": [
            {
              "pitch": 20,
              "velocity": 70,
              "position": 1,
              "duration": 0.020833333333333332
            },
            {
              "pitch": 28,
              "velocity": 85,
              "position": 1,
              "duration": 0.020833333333333332
            },
            {
              "pitch": 23,
              "velocity": 30,
              "position": 2.7083333333333335,
              "duration": 0.020833333333333332
            },
            {
              "pitch": 20,
              "velocity": 76,
              "position": 3,
              "duration": 0.020833333333333332
            },
            {
              "pitch": 31,
              "velocity": 81,
              "position": 3,
              "duration": 0.020833333333333332
            },
            {
              "pitch": 31,
              "velocity": 55,
              "position": 3.6666666666666665,
              "duration": 0.020833333333333332
            },
            {
              "pitch": 20,
              "velocity": 70,
              "position": 5,
              "duration": 0.020833333333333332
            },
            {
              "pitch": 28,
              "velocity": 75,
              "position": 5,
              "duration": 0.020833333333333332
            },
            {
              "pitch": 23,
              "velocity": 30,
              "position": 6.708333333333333,
              "duration": 0.020833333333333332
            },
            {
              "pitch": 20,
              "velocity": 76,
              "position": 7,
              "duration": 0.020833333333333332
            },
            {
              "pitch": 31,
              "velocity": 81,
              "position": 7,
              "duration": 0.020833333333333332
            },
            {
              "pitch": 31,
              "velocity": 55,
              "position": 7.666666666666667,
              "duration": 0.020833333333333332
            },
            {
              "pitch": 20,
              "velocity": 70,
              "position": 9,
              "duration": 0.020833333333333332
            },
            {
              "pitch": 28,
              "velocity": 85,
              "position": 9,
              "duration": 0.020833333333333332
            },
            {
              "pitch": 23,
              "velocity": 30,
              "position": 10.708333333333334,
              "duration": 0.020833333333333332
            },
            {
              "pitch": 20,
              "velocity": 76,
              "position": 11,
              "duration": 0.020833333333333332
            },
            {
              "pitch": 31,
              "velocity": 81,
              "position": 11,
              "duration": 0.020833333333333332
            },
            {
              "pitch": 31,
              "velocity": 55,
              "position": 11.666666666666666,
              "duration": 0.020833333333333332
            },
            {
              "pitch": 20,
              "velocity": 70,
              "position": 13,
              "duration": 0.020833333333333332
            },
            {
              "pitch": 28,
              "velocity": 75,
              "position": 13,
              "duration": 0.020833333333333332
            },
            {
              "pitch": 23,
              "velocity": 30,
              "position": 14.708333333333334,
              "duration": 0.020833333333333332
            },
            {
              "pitch": 20,
              "velocity": 76,
              "position": 15,
              "duration": 0.020833333333333332
            },
            {
              "pitch": 31,
              "velocity": 81,
              "position": 15,
              "duration": 0.020833333333333332
            },
            {
              "pitch": 31,
              "velocity": 55,
              "position": 15.666666666666666,
              "duration": 0.020833333333333332
            }
          ]
        },
        "9": {
          "ctab": {
            "srcChannel": 9,
            "name": "MainDrum",
            "accType": "RHYTHM",
            "editable": false,
            "mutedNotes": [],
            "mutedChords": [],
            "autoStart": true,
            "sourceChordNote": 0,
            "sourceChordType": "Maj7",
            "ctb2Low": null,
            "ctb2Main": {
              "ntr": "ROOT_FIXED",
              "ntt": "BYPASS",
              "bassOn": false,
              "chordRootUpperLimit": 6,
              "noteLowLimit": 0,
              "noteHighLimit": 127,
              "rtr": "PITCH_SHIFT"
            },
            "ctb2High": null
          },
          "notes": [
            {
              "pitch": 59,
              "velocity": 70,
              "position": 0,
              "duration": 0.020833333333333332
            },
            {
              "pitch": 44,
              "velocity": 70,
              "position": 1,
              "duration": 0.020833333333333332
            },
            {
              "pitch": 59,
              "velocity": 70,
              "position": 1,
              "duration": 0.020833333333333332
            },
            {
              "pitch": 19,
              "velocity": 60,
              "position": 1.0416666666666667,
              "duration": 0.020833333333333332
            },
            {
              "pitch": 59,
              "velocity": 70,
              "position": 2,
              "duration": 0.020833333333333332
            },
            {
              "pitch": 44,
              "velocity": 70,
              "position": 3,
              "duration": 0.020833333333333332
            },
            {
              "pitch": 59,
              "velocity": 70,
              "position": 3,
              "duration": 0.020833333333333332
            },
            {
              "pitch": 19,
              "velocity": 70,
              "position": 3.0416666666666665,
              "duration": 0.020833333333333332
            },
            {
              "pitch": 40,
              "velocity": 50,
              "position": 3.7083333333333335,
              "duration": 0.020833333333333332
            },
            {
              "pitch": 59,
              "velocity": 50,
              "position": 3.7083333333333335,
              "duration": 0.020833333333333332
            },
            {
              "pitch": 59,
              "velocity": 70,
              "position": 4,
              "duration": 0.020833333333333332
            },
            {
              "pitch": 44,
              "velocity": 70,
              "position": 5,
              "duration": 0.020833333333333332
            },
            {
              "pitch": 59,
              "velocity": 70,
              "position": 5,
              "duration": 0.020833333333333332
            },
            {
              "pitch": 19,
              "velocity": 60,
              "position": 5.041666666666667,
              "duration": 0.020833333333333332
            },
            {
              "pitch": 59,
              "velocity": 70,
              "position": 6,
              "duration": 0.020833333333333332
            },
            {
              "pitch": 44,
              "velocity": 70,
              "position": 7,
              "duration": 0.020833333333333332
            },
            {
              "pitch": 59,
              "velocity": 70,
              "position": 7,
              "duration": 0.020833333333333332
            },
            {
              "pitch": 19,
              "velocity": 70,
              "position": 7.041666666666667,
              "duration": 0.020833333333333332
            },
            {
              "pitch": 59,
              "velocity": 50,
              "position": 7.708333333333333,
              "duration": 0.020833333333333332
            },
            {
              "pitch": 59,
              "velocity": 70,
              "position": 8,
              "duration": 0.020833333333333332
            },
            {
              "pitch": 44,
              "velocity": 70,
              "position": 9,
              "duration": 0.020833333333333332
            },
            {
              "pitch": 59,
              "velocity": 70,
              "position": 9,
              "duration": 0.020833333333333332
            },
            {
              "pitch": 19,
              "velocity": 60,
              "position": 9.041666666666666,
              "duration": 0.020833333333333332
            },
            {
              "pitch": 59,
              "velocity": 70,
              "position": 10,
              "duration": 0.020833333333333332
            },
            {
              "pitch": 44,
              "velocity": 70,
              "position": 11,
              "duration": 0.020833333333333332
            },
            {
              "pitch": 59,
              "velocity": 70,
              "position": 11,
              "duration": 0.020833333333333332
            },
            {
              "pitch": 19,
              "velocity": 70,
              "position": 11.041666666666666,
              "duration": 0.020833333333333332
            },
            {
              "pitch": 59,
              "velocity": 50,
              "position": 11.708333333333334,
              "duration": 0.020833333333333332
            },
            {
              "pitch": 59,
              "velocity": 70,
              "position": 12,
              "duration": 0.020833333333333332
            },
            {
              "pitch": 44,
              "velocity": 70,
              "position": 13,
              "duration": 0.020833333333333332
            },
            {
              "pitch": 59,
              "velocity": 70,
              "position": 13,
              "duration": 0.020833333333333332
            },
            {
              "pitch": 19,
              "velocity": 60,
              "position": 13.041666666666666,
              "duration": 0.020833333333333332
            },
            {
              "pitch": 40,
              "velocity": 50,
              "position": 13.708333333333334,
              "duration": 0.020833333333333332
            },
            {
              "pitch": 59,
              "velocity": 70,
              "position": 14,
              "duration": 0.020833333333333332
            },
            {
              "pitch": 44,
              "velocity": 70,
              "position": 15,
              "duration": 0.020833333333333332
            },
            {
              "pitch": 59,
              "velocity": 70,
              "position": 15,
              "duration": 0.020833333333333332
            },
            {
              "pitch": 19,
              "velocity": 70,
              "position": 15.041666666666666,
              "duration": 0.020833333333333332
            },
            {
              "pitch": 59,
              "velocity": 50,
              "position": 15.708333333333334,
              "duration": 0.020833333333333332
            }
          ]
        },
        "10": {
          "ctab": {
            "srcChannel": 10,
            "name": "Bass",
            "accType": "BASS",
            "editable": false,
            "mutedNotes": [],
            "mutedChords": [
              "1+2+5",
              "sus4",
              "1+5",
              "1+8",
              "7aug",
              "Maj7aug",
              "7(#9)",
              "7(b13)",
              "7(b9)",
              "7#11",
              "7(9)",
              "7b5",
              "7sus4",
              "7th",
              "dim",
              "minMaj7(9)",
              "minMaj7",
              "min7(11)",
              "min7(9)",
              "min(9)",
              "m7b5",
              "min7",
              "min",
              "aug"
            ],
            "autoStart": false,
            "sourceChordNote": 0,
            "sourceChordType": "Maj7",
            "ctb2Low": null,
            "ctb2Main": {
              "ntr": "ROOT_TRANSPOSITION",
              "ntt": "MELODIC_MINOR_5",
              "bassOn": true,
              "chordRootUpperLimit": 3,
              "noteLowLimit": 28,
              "noteHighLimit": 55,
              "rtr": "PITCH_SHIFT_TO_ROOT"
            },
            "ctb2High": null
          },
          "notes": [
            {
              "pitch": 24,
              "velocity": 60,
              "position": 0,
              "duration": 0.8583333333333333
            },
            {
              "pitch": 48,
              "velocity": 81,
              "position": 0.7083333333333334,
              "duration": 0.2708333333333333
            },
            {
              "pitch": 26,
              "velocity": 60,
              "position": 1,
              "duration": 0.8583333333333333
            },
            {
              "pitch": 50,
              "velocity": 81,
              "position": 1.7083333333333333,
              "duration": 0.2708333333333333
            },
            {
              "pitch": 28,
              "velocity": 60,
              "position": 2,
              "duration": 0.8583333333333333
            },
            {
              "pitch": 52,
              "velocity": 81,
              "position": 2.7083333333333335,
              "duration": 0.2708333333333333
            },
            {
              "pitch": 31,
              "velocity": 60,
              "position": 3,
              "duration": 0.8583333333333333
            },
            {
              "pitch": 55,
              "velocity": 81,
              "position": 3.7083333333333335,
              "duration": 0.2708333333333333
            },
            {
              "pitch": 36,
              "velocity": 60,
              "position": 4,
              "duration": 0.8583333333333333
            },
            {
              "pitch": 60,
              "velocity": 81,
              "position": 4.708333333333333,
              "duration": 0.2708333333333333
            },
            {
              "pitch": 33,
              "velocity": 60,
              "position": 5,
              "duration": 0.8583333333333333
            },
            {
              "pitch": 57,
              "velocity": 81,
              "position": 5.708333333333333,
              "duration": 0.2708333333333333
            },
            {
              "pitch": 31,
              "velocity": 60,
              "position": 6,
              "duration": 0.8583333333333333
            },
            {
              "pitch": 55,
              "velocity": 81,
              "position": 6.708333333333333,
              "duration": 0.2708333333333333
            },
            {
              "pitch": 28,
              "velocity": 60,
              "position": 7,
              "duration": 0.8583333333333333
            },
            {
              "pitch": 52,
              "velocity": 81,
              "position": 7.708333333333333,
              "duration": 0.2708333333333333
            },
            {
              "pitch": 24,
              "velocity": 60,
              "position": 8,
              "duration": 0.8583333333333333
            },
            {
              "pitch": 48,
              "velocity": 81,
              "position": 8.708333333333334,
              "duration": 0.2708333333333333
            },
            {
              "pitch": 26,
              "velocity": 60,
              "position": 9,
              "duration": 0.8583333333333333
            },
            {
              "pitch": 50,
              "velocity": 81,
              "position": 9.708333333333334,
              "duration": 0.2708333333333333
            },
            {
              "pitch": 28,
              "velocity": 60,
              "position": 10,
              "duration": 0.8583333333333333
            },
            {
              "pitch": 52,
              "velocity": 81,
              "position": 10.708333333333334,
              "duration": 0.2708333333333333
            },
            {
              "pitch": 31,
              "velocity": 60,
              "position": 11,
              "duration": 0.8583333333333333
            },
            {
              "pitch": 55,
              "velocity": 81,
              "position": 11.708333333333334,
              "duration": 0.2708333333333333
            },
            {
              "pitch": 36,
              "velocity": 60,
              "position": 12,
              "duration": 0.8583333333333333
            },
            {
              "pitch": 60,
              "velocity": 81,
              "position": 12.708333333333334,
              "duration": 0.2708333333333333
            },
            {
              "pitch": 33,
              "velocity": 60,
              "position": 13,
              "duration": 0.8583333333333333
            },
            {
              "pitch": 57,
              "velocity": 81,
              "position": 13.708333333333334,
              "duration": 0.2708333333333333
            },
            {
              "pitch": 31,
              "velocity": 60,
              "position": 14,
              "duration": 0.8583333333333333
            },
            {
              "pitch": 55,
              "velocity": 81,
              "position": 14.708333333333334,
              "duration": 0.2708333333333333
            },
            {
              "pitch": 28,
              "velocity": 60,
              "position": 15,
              "duration": 0.8583333333333333
            },
            {
              "pitch": 52,
              "velocity": 81,
              "position": 15.708333333333334,
              "duration": 0.2708333333333333
            }
          ]
        },
        "11": {
          "ctab": {
            "srcChannel": 11,
            "name": "E.Piano",
            "accType": "CHORD1",
            "editable": false,
            "mutedNotes": [],
            "mutedChords": [],
            "autoStart": false,
            "sourceChordNote": 0,
            "sourceChordType": "Maj7",
            "ctb2Low": null,
            "ctb2Main": {
              "ntr": "ROOT_FIXED",
              "ntt": "CHORD",
              "bassOn": false,
              "chordRootUpperLimit": 7,
              "noteLowLimit": 0,
              "noteHighLimit": 127,
              "rtr": "PITCH_SHIFT"
            },
            "ctb2High": null
          },
          "notes": [
            {
              "pitch": 55,
              "velocity": 80,
              "position": 0.0020833333333333333,
              "duration": 1.95
            },
            {
              "pitch": 64,
              "velocity": 80,
              "position": 0.00625,
              "duration": 1.9541666666666666
            },
            {
              "pitch": 59,
              "velocity": 80,
              "position": 0.004166666666666667,
              "duration": 1.9625
            },
            {
              "pitch": 67,
              "velocity": 80,
              "position": 0,
              "duration": 1.96875
            },
            {
              "pitch": 64,
              "velocity": 62,
              "position": 2.6708333333333334,
              "duration": 0.9375
            },
            {
              "pitch": 55,
              "velocity": 59,
              "position": 2.6708333333333334,
              "duration": 0.95625
            },
            {
              "pitch": 52,
              "velocity": 20,
              "position": 2.660416666666667,
              "duration": 0.96875
            },
            {
              "pitch": 59,
              "velocity": 73,
              "position": 2.66875,
              "duration": 0.96875
            },
            {
              "pitch": 59,
              "velocity": 65,
              "position": 4.014583333333333,
              "duration": 1.0666666666666667
            },
            {
              "pitch": 64,
              "velocity": 55,
              "position": 4,
              "duration": 1.0895833333333333
            },
            {
              "pitch": 55,
              "velocity": 54,
              "position": 4.014583333333333,
              "duration": 1.0875
            },
            {
              "pitch": 52,
              "velocity": 11,
              "position": 4.016666666666667,
              "duration": 1.0875
            },
            {
              "pitch": 64,
              "velocity": 38,
              "position": 5.658333333333333,
              "duration": 0.15416666666666667
            },
            {
              "pitch": 52,
              "velocity": 6,
              "position": 5.658333333333333,
              "duration": 0.15625
            },
            {
              "pitch": 55,
              "velocity": 44,
              "position": 5.666666666666667,
              "duration": 0.17291666666666666
            },
            {
              "pitch": 59,
              "velocity": 40,
              "position": 5.66875,
              "duration": 0.1875
            },
            {
              "pitch": 55,
              "velocity": 67,
              "position": 6.660416666666666,
              "duration": 0.93125
            },
            {
              "pitch": 67,
              "velocity": 81,
              "position": 6.6625,
              "duration": 0.9604166666666667
            },
            {
              "pitch": 64,
              "velocity": 75,
              "position": 6.660416666666666,
              "duration": 0.9645833333333333
            },
            {
              "pitch": 59,
              "velocity": 70,
              "position": 6.672916666666667,
              "duration": 0.9645833333333333
            },
            {
              "pitch": 64,
              "velocity": 80,
              "position": 8.0125,
              "duration": 1.9375
            },
            {
              "pitch": 67,
              "velocity": 80,
              "position": 8,
              "duration": 1.9520833333333334
            },
            {
              "pitch": 55,
              "velocity": 80,
              "position": 8.0125,
              "duration": 1.94375
            },
            {
              "pitch": 59,
              "velocity": 80,
              "position": 8.014583333333333,
              "duration": 1.9625
            },
            {
              "pitch": 55,
              "velocity": 72,
              "position": 10.664583333333333,
              "duration": 0.9479166666666666
            },
            {
              "pitch": 64,
              "velocity": 75,
              "position": 10.664583333333333,
              "duration": 0.9520833333333333
            },
            {
              "pitch": 52,
              "velocity": 20,
              "position": 10.672916666666667,
              "duration": 0.9583333333333334
            },
            {
              "pitch": 59,
              "velocity": 72,
              "position": 10.672916666666667,
              "duration": 0.9604166666666667
            },
            {
              "pitch": 59,
              "velocity": 60,
              "position": 12.666666666666666,
              "duration": 1.26875
            },
            {
              "pitch": 55,
              "velocity": 67,
              "position": 12.660416666666666,
              "duration": 1.2875
            },
            {
              "pitch": 64,
              "velocity": 51,
              "position": 12.658333333333333,
              "duration": 1.2916666666666667
            },
            {
              "pitch": 52,
              "velocity": 16,
              "position": 12.675,
              "duration": 1.2854166666666667
            },
            {
              "pitch": 67,
              "velocity": 80,
              "position": 14.65625,
              "duration": 1.2625
            },
            {
              "pitch": 55,
              "velocity": 80,
              "position": 14.666666666666666,
              "duration": 1.2708333333333333
            },
            {
              "pitch": 59,
              "velocity": 80,
              "position": 14.664583333333333,
              "duration": 1.2895833333333333
            },
            {
              "pitch": 64,
              "velocity": 80,
              "position": 14.6625,
              "duration": 1.2958333333333334
            }
          ]
        },
        "12": {
          "ctab": {
            "srcChannel": 12,
            "name": "JazzGtr",
            "accType": "CHORD2",
            "editable": false,
            "mutedNotes": [],
            "mutedChords": [],
            "autoStart": false,
            "sourceChordNote": 0,
            "sourceChordType": "Maj7",
            "ctb2Low": null,
            "ctb2Main": {
              "ntr": "ROOT_TRANSPOSITION",
              "ntt": "MELODY",
              "bassOn": false,
              "chordRootUpperLimit": 7,
              "noteLowLimit": 0,
              "noteHighLimit": 127,
              "rtr": "PITCH_SHIFT"
            },
            "ctb2High": null
          },
          "notes": [
            {
              "pitch": 55,
              "velocity": 41,
              "position": 0.027083333333333334,
              "duration": 0.5541666666666667
            },
            {
              "pitch": 59,
              "velocity": 41,
              "position": 0.027083333333333334,
              "duration": 0.5541666666666667
            },
            {
              "pitch": 64,
              "velocity": 41,
              "position": 0.03958333333333333,
              "duration": 0.5541666666666667
            },
            {
              "pitch": 60,
              "velocity": 41,
              "position": 0.041666666666666664,
              "duration": 0.5541666666666667
            },
            {
              "pitch": 55,
              "velocity": 18,
              "position": 1.0395833333333333,
              "duration": 0.5625
            },
            {
              "pitch": 59,
              "velocity": 18,
              "position": 1.0395833333333333,
              "duration": 0.5625
            },
            {
              "pitch": 60,
              "velocity": 20,
              "position": 1.04375,
              "duration": 0.5583333333333333
            },
            {
              "pitch": 67,
              "velocity": 20,
              "position": 1.03125,
              "duration": 0.5770833333333333
            },
            {
              "pitch": 71,
              "velocity": 20,
              "position": 1.03125,
              "duration": 0.5770833333333333
            },
            {
              "pitch": 64,
              "velocity": 22,
              "position": 1.0520833333333333,
              "duration": 0.5729166666666666
            },
            {
              "pitch": 55,
              "velocity": 32,
              "position": 2.70625,
              "duration": 0.225
            },
            {
              "pitch": 59,
              "velocity": 32,
              "position": 2.70625,
              "duration": 0.225
            },
            {
              "pitch": 60,
              "velocity": 34,
              "position": 2.7104166666666667,
              "duration": 0.22083333333333333
            },
            {
              "pitch": 67,
              "velocity": 34,
              "position": 2.6979166666666665,
              "duration": 0.23958333333333334
            },
            {
              "pitch": 71,
              "velocity": 34,
              "position": 2.6979166666666665,
              "duration": 0.23958333333333334
            },
            {
              "pitch": 64,
              "velocity": 36,
              "position": 2.71875,
              "duration": 0.23541666666666666
            },
            {
              "pitch": 64,
              "velocity": 38,
              "position": 4.022916666666666,
              "duration": 0.5791666666666667
            },
            {
              "pitch": 67,
              "velocity": 36,
              "position": 4.020833333333333,
              "duration": 0.6041666666666666
            },
            {
              "pitch": 71,
              "velocity": 36,
              "position": 4.020833333333333,
              "duration": 0.6041666666666666
            },
            {
              "pitch": 60,
              "velocity": 39,
              "position": 4.0375,
              "duration": 0.5958333333333333
            },
            {
              "pitch": 55,
              "velocity": 37,
              "position": 4.052083333333333,
              "duration": 0.58125
            },
            {
              "pitch": 59,
              "velocity": 37,
              "position": 4.052083333333333,
              "duration": 0.58125
            },
            {
              "pitch": 67,
              "velocity": 41,
              "position": 5.689583333333333,
              "duration": 1.9145833333333333
            },
            {
              "pitch": 71,
              "velocity": 41,
              "position": 5.689583333333333,
              "duration": 1.9145833333333333
            },
            {
              "pitch": 55,
              "velocity": 43,
              "position": 5.695833333333334,
              "duration": 1.9333333333333333
            },
            {
              "pitch": 59,
              "velocity": 43,
              "position": 5.695833333333334,
              "duration": 1.9333333333333333
            },
            {
              "pitch": 60,
              "velocity": 40,
              "position": 5.695833333333334,
              "duration": 1.9375
            },
            {
              "pitch": 64,
              "velocity": 43,
              "position": 5.71875,
              "duration": 1.91875
            },
            {
              "pitch": 55,
              "velocity": 41,
              "position": 8.027083333333334,
              "duration": 0.5541666666666667
            },
            {
              "pitch": 59,
              "velocity": 41,
              "position": 8.027083333333334,
              "duration": 0.5541666666666667
            },
            {
              "pitch": 64,
              "velocity": 41,
              "position": 8.039583333333333,
              "duration": 0.5541666666666667
            },
            {
              "pitch": 60,
              "velocity": 41,
              "position": 8.041666666666666,
              "duration": 0.5541666666666667
            },
            {
              "pitch": 55,
              "velocity": 19,
              "position": 9.025,
              "duration": 0.5645833333333333
            },
            {
              "pitch": 59,
              "velocity": 19,
              "position": 9.025,
              "duration": 0.5645833333333333
            },
            {
              "pitch": 64,
              "velocity": 20,
              "position": 9.029166666666667,
              "duration": 0.5604166666666667
            },
            {
              "pitch": 67,
              "velocity": 18,
              "position": 9.05625,
              "duration": 0.5416666666666666
            },
            {
              "pitch": 71,
              "velocity": 18,
              "position": 9.05625,
              "duration": 0.5416666666666666
            },
            {
              "pitch": 60,
              "velocity": 18,
              "position": 9.05,
              "duration": 0.5625
            },
            {
              "pitch": 55,
              "velocity": 34,
              "position": 10.691666666666666,
              "duration": 0.22708333333333333
            },
            {
              "pitch": 59,
              "velocity": 34,
              "position": 10.691666666666666,
              "duration": 0.22708333333333333
            },
            {
              "pitch": 64,
              "velocity": 35,
              "position": 10.695833333333333,
              "duration": 0.22291666666666668
            },
            {
              "pitch": 67,
              "velocity": 33,
              "position": 10.722916666666666,
              "duration": 0.20416666666666666
            },
            {
              "pitch": 71,
              "velocity": 33,
              "position": 10.722916666666666,
              "duration": 0.20416666666666666
            },
            {
              "pitch": 60,
              "velocity": 33,
              "position": 10.716666666666667,
              "duration": 0.225
            },
            {
              "pitch": 64,
              "velocity": 43,
              "position": 12.689583333333333,
              "duration": 0.22708333333333333
            },
            {
              "pitch": 60,
              "velocity": 40,
              "position": 12.695833333333333,
              "duration": 0.225
            },
            {
              "pitch": 67,
              "velocity": 43,
              "position": 12.704166666666667,
              "duration": 0.22916666666666666
            },
            {
              "pitch": 71,
              "velocity": 43,
              "position": 12.704166666666667,
              "duration": 0.22916666666666666
            },
            {
              "pitch": 55,
              "velocity": 43,
              "position": 12.722916666666666,
              "duration": 0.22708333333333333
            },
            {
              "pitch": 59,
              "velocity": 43,
              "position": 12.722916666666666,
              "duration": 0.22708333333333333
            },
            {
              "pitch": 67,
              "velocity": 43,
              "position": 14.69375,
              "duration": 1.0229166666666667
            },
            {
              "pitch": 71,
              "velocity": 43,
              "position": 14.69375,
              "duration": 1.0229166666666667
            },
            {
              "pitch": 60,
              "velocity": 42,
              "position": 14.714583333333334,
              "duration": 1.0208333333333333
            },
            {
              "pitch": 64,
              "velocity": 41,
              "position": 14.704166666666667,
              "duration": 1.0416666666666667
            },
            {
              "pitch": 55,
              "velocity": 40,
              "position": 14.710416666666667,
              "duration": 1.0416666666666667
            },
            {
              "pitch": 59,
              "velocity": 40,
              "position": 14.710416666666667,
              "duration": 1.0416666666666667
            }
          ]
        },
        "13": {
          "ctab": {
            "srcChannel": 13,
            "name": "PopVocal",
            "accType": "PAD",
            "editable": false,
            "mutedNotes": [],
            "mutedChords": [],
            "autoStart": false,
            "sourceChordNote": 0,
            "sourceChordType": "Maj7",
            "ctb2Low": null,
            "ctb2Main": {
              "ntr": "ROOT_FIXED",
              "ntt": "CHORD",
              "bassOn": false,
              "chordRootUpperLimit": 7,
              "noteLowLimit": 53,
              "noteHighLimit": 127,
              "rtr": "PITCH_SHIFT"
            },
            "ctb2High": null
          },
          "notes": [
            {
              "pitch": 67,
              "velocity": 27,
              "position": 0.010416666666666666,
              "duration": 6.964583333333334
            },
            {
              "pitch": 64,
              "velocity": 7,
              "position": 0.010416666666666666,
              "duration": 6.966666666666667
            },
            {
              "pitch": 35,
              "velocity": 27,
              "position": 0.010416666666666666,
              "duration": 6.977083333333334
            },
            {
              "pitch": 64,
              "velocity": 7,
              "position": 8,
              "duration": 6.960416666666666
            },
            {
              "pitch": 67,
              "velocity": 27,
              "position": 8,
              "duration": 6.966666666666667
            },
            {
              "pitch": 35,
              "velocity": 27,
              "position": 8,
              "duration": 6.966666666666667
            }
          ]
        },
        "14": {
          "ctab": {
            "srcChannel": 14,
            "name": "Brass",
            "accType": "PHRASE1",
            "editable": false,
            "mutedNotes": [],
            "mutedChords": [],
            "autoStart": false,
            "sourceChordNote": 0,
            "sourceChordType": "Maj7",
            "ctb2Low": null,
            "ctb2Main": {
              "ntr": "ROOT_FIXED",
              "ntt": "CHORD",
              "bassOn": false,
              "chordRootUpperLimit": 7,
              "noteLowLimit": 0,
              "noteHighLimit": 127,
              "rtr": "PITCH_SHIFT"
            },
            "ctb2High": null
          },
          "notes": []
        },
        "15": {
          "ctab": {
            "srcChannel": 15,
            "name": "BalladDX",
            "accType": "PHRASE2",
            "editable": false,
            "mutedNotes": [],
            "mutedChords": [],
            "autoStart": false,
            "sourceChordNote": 0,
            "sourceChordType": "Maj7",
            "ctb2Low": null,
            "ctb2Main": {
              "ntr": "ROOT_FIXED",
              "ntt": "CHORD",
              "bassOn": false,
              "chordRootUpperLimit": 7,
              "noteLowLimit": 0,
              "noteHighLimit": 127,
              "rtr": "PITCH_SHIFT"
            },
            "ctb2High": null
          },
          "notes": [
            {
              "pitch": 55,
              "velocity": 79,
              "position": 0.0020833333333333333,
              "duration": 1.95
            },
            {
              "pitch": 64,
              "velocity": 79,
              "position": 0.00625,
              "duration": 1.9541666666666666
            },
            {
              "pitch": 59,
              "velocity": 79,
              "position": 0.004166666666666667,
              "duration": 1.9625
            },
            {
              "pitch": 67,
              "velocity": 79,
              "position": 0,
              "duration": 1.96875
            },
            {
              "pitch": 64,
              "velocity": 30,
              "position": 2.6708333333333334,
              "duration": 0.9375
            },
            {
              "pitch": 55,
              "velocity": 30,
              "position": 2.6708333333333334,
              "duration": 0.95625
            },
            {
              "pitch": 52,
              "velocity": 30,
              "position": 2.660416666666667,
              "duration": 0.96875
            },
            {
              "pitch": 59,
              "velocity": 55,
              "position": 2.66875,
              "duration": 0.96875
            },
            {
              "pitch": 59,
              "velocity": 33,
              "position": 4.014583333333333,
              "duration": 1.0666666666666667
            },
            {
              "pitch": 64,
              "velocity": 30,
              "position": 4,
              "duration": 1.0895833333333333
            },
            {
              "pitch": 55,
              "velocity": 30,
              "position": 4.014583333333333,
              "duration": 1.0875
            },
            {
              "pitch": 52,
              "velocity": 30,
              "position": 4.016666666666667,
              "duration": 1.0875
            },
            {
              "pitch": 64,
              "velocity": 30,
              "position": 5.658333333333333,
              "duration": 0.15416666666666667
            },
            {
              "pitch": 52,
              "velocity": 30,
              "position": 5.658333333333333,
              "duration": 0.15625
            },
            {
              "pitch": 55,
              "velocity": 30,
              "position": 5.666666666666667,
              "duration": 0.17291666666666666
            },
            {
              "pitch": 59,
              "velocity": 30,
              "position": 5.66875,
              "duration": 0.1875
            },
            {
              "pitch": 55,
              "velocity": 34,
              "position": 6.660416666666666,
              "duration": 0.93125
            },
            {
              "pitch": 67,
              "velocity": 83,
              "position": 6.6625,
              "duration": 0.9604166666666667
            },
            {
              "pitch": 64,
              "velocity": 62,
              "position": 6.660416666666666,
              "duration": 0.9645833333333333
            },
            {
              "pitch": 59,
              "velocity": 44,
              "position": 6.672916666666667,
              "duration": 0.9645833333333333
            },
            {
              "pitch": 64,
              "velocity": 79,
              "position": 8.0125,
              "duration": 1.9375
            },
            {
              "pitch": 67,
              "velocity": 79,
              "position": 8,
              "duration": 1.9520833333333334
            },
            {
              "pitch": 55,
              "velocity": 79,
              "position": 8.0125,
              "duration": 1.94375
            },
            {
              "pitch": 59,
              "velocity": 79,
              "position": 8.014583333333333,
              "duration": 1.9625
            },
            {
              "pitch": 55,
              "velocity": 51,
              "position": 10.664583333333333,
              "duration": 0.9479166666666666
            },
            {
              "pitch": 64,
              "velocity": 62,
              "position": 10.664583333333333,
              "duration": 0.9520833333333333
            },
            {
              "pitch": 52,
              "velocity": 30,
              "position": 10.672916666666667,
              "duration": 0.9583333333333334
            },
            {
              "pitch": 59,
              "velocity": 51,
              "position": 10.672916666666667,
              "duration": 0.9604166666666667
            },
            {
              "pitch": 59,
              "velocity": 30,
              "position": 12.666666666666666,
              "duration": 1.26875
            },
            {
              "pitch": 55,
              "velocity": 34,
              "position": 12.660416666666666,
              "duration": 1.2875
            },
            {
              "pitch": 64,
              "velocity": 30,
              "position": 12.658333333333333,
              "duration": 1.2916666666666667
            },
            {
              "pitch": 52,
              "velocity": 30,
              "position": 12.675,
              "duration": 1.2854166666666667
            },
            {
              "pitch": 67,
              "velocity": 79,
              "position": 14.65625,
              "duration": 1.2625
            },
            {
              "pitch": 55,
              "velocity": 79,
              "position": 14.666666666666666,
              "duration": 1.2708333333333333
            },
            {
              "pitch": 59,
              "velocity": 79,
              "position": 14.664583333333333,
              "duration": 1.2895833333333333
            },
            {
              "pitch": 64,
              "velocity": 79,
              "position": 14.6625,
              "duration": 1.2958333333333334
            }
          ]
        }
      }
    },
    "Fill_In_DD": {
      "type": "Fill_In_DD",
      "sizeInBeats": 4,
      "channels": {
        "0": {
          "ctab": {
            "srcChannel": 0,
            "name": "Bs CEG",
            "accType": "BASS",
            "editable": false,
            "mutedNotes": [],
            "mutedChords": [
              "7aug",
              "7(b9)",
              "7(13)",
              "7#11",
              "7(9)",
              "7b5",
              "7th",
              "dim7",
              "min7(11)",
              "min7(9)",
              "min(9)",
              "m7b5",
              "min7",
              "min6",
              "min",
              "Maj6(9)",
              "Maj7(9)",
              "Maj(9)",
              "Maj7#11",
              "Maj7",
              "Maj6",
              "Maj"
            ],
            "autoStart": false,
            "sourceChordNote": 0,
            "sourceChordType": "Maj7",
            "ctb2Low": null,
            "ctb2Main": {
              "ntr": "ROOT_TRANSPOSITION",
              "ntt": "MELODY",
              "bassOn": true,
              "chordRootUpperLimit": 3,
              "noteLowLimit": 28,
              "noteHighLimit": 55,
              "rtr": "PITCH_SHIFT_TO_ROOT"
            },
            "ctb2High": null
          },
          "notes": [
            {
              "pitch": 36,
              "velocity": 60,
              "position": 0,
              "duration": 0.8583333333333333
            },
            {
              "pitch": 60,
              "velocity": 81,
              "position": 0.7083333333333334,
              "duration": 0.2708333333333333
            },
            {
              "pitch": 31,
              "velocity": 60,
              "position": 1,
              "duration": 0.8583333333333333
            },
            {
              "pitch": 57,
              "velocity": 81,
              "position": 1.7083333333333333,
              "duration": 0.2708333333333333
            },
            {
              "pitch": 28,
              "velocity": 60,
              "position": 2,
              "duration": 0.8583333333333333
            },
            {
              "pitch": 55,
              "velocity": 81,
              "position": 2.7083333333333335,
              "duration": 0.2708333333333333
            },
            {
              "pitch": 31,
              "velocity": 60,
              "position": 3,
              "duration": 0.8583333333333333
            },
            {
              "pitch": 52,
              "velocity": 81,
              "position": 3.7083333333333335,
              "duration": 0.2708333333333333
            }
          ]
        },
        "1": {
          "ctab": {
            "srcChannel": 1,
            "name": "Bs CDEG",
            "accType": "BASS",
            "editable": false,
            "mutedNotes": [],
            "mutedChords": [
              "1+2+5",
              "sus4",
              "1+5",
              "1+8",
              "Maj7aug",
              "7(#9)",
              "7(b13)",
              "7(13)",
              "7sus4",
              "dim7",
              "dim",
              "minMaj7(9)",
              "minMaj7",
              "min6",
              "aug",
              "Maj6(9)",
              "Maj7(9)",
              "Maj(9)",
              "Maj7#11",
              "Maj7",
              "Maj6",
              "Maj"
            ],
            "autoStart": false,
            "sourceChordNote": 0,
            "sourceChordType": "Maj7",
            "ctb2Low": null,
            "ctb2Main": {
              "ntr": "ROOT_TRANSPOSITION",
              "ntt": "MELODIC_MINOR_5",
              "bassOn": true,
              "chordRootUpperLimit": 3,
              "noteLowLimit": 28,
              "noteHighLimit": 55,
              "rtr": "PITCH_SHIFT_TO_ROOT"
            },
            "ctb2High": null
          },
          "notes": [
            {
              "pitch": 36,
              "velocity": 60,
              "position": 0,
              "duration": 0.8583333333333333
            },
            {
              "pitch": 60,
              "velocity": 81,
              "position": 0.7083333333333334,
              "duration": 0.2708333333333333
            },
            {
              "pitch": 31,
              "velocity": 60,
              "position": 1,
              "duration": 0.8583333333333333
            },
            {
              "pitch": 57,
              "velocity": 81,
              "position": 1.7083333333333333,
              "duration": 0.2708333333333333
            },
            {
              "pitch": 28,
              "velocity": 60,
              "position": 2,
              "duration": 0.8583333333333333
            },
            {
              "pitch": 55,
              "velocity": 81,
              "position": 2.7083333333333335,
              "duration": 0.2708333333333333
            },
            {
              "pitch": 26,
              "velocity": 60,
              "position": 3,
              "duration": 0.8583333333333333
            },
            {
              "pitch": 52,
              "velocity": 81,
              "position": 3.7083333333333335,
              "duration": 0.2708333333333333
            }
          ]
        },
        "8": {
          "ctab": {
            "srcChannel": 8,
            "name": "AddDrum",
            "accType": "SUBRHYTHM",
            "editable": false,
            "mutedNotes": [],
            "mutedChords": [],
            "autoStart": true,
            "sourceChordNote": 0,
            "sourceChordType": "Maj7",
            "ctb2Low": null,
            "ctb2Main": {
              "ntr": "ROOT_FIXED",
              "ntt": "BYPASS",
              "bassOn": false,
              "chordRootUpperLimit": 6,
              "noteLowLimit": 0,
              "noteHighLimit": 127,
              "rtr": "PITCH_SHIFT"
            },
            "ctb2High": null
          },
          "notes": [
            {
              "pitch": 20,
              "velocity": 70,
              "position": 1,
              "duration": 0.020833333333333332
            },
            {
              "pitch": 28,
              "velocity": 75,
              "position": 1,
              "duration": 0.020833333333333332
            },
            {
              "pitch": 23,
              "velocity": 30,
              "position": 2.7083333333333335,
              "duration": 0.020833333333333332
            },
            {
              "pitch": 20,
              "velocity": 76,
              "position": 3,
              "duration": 0.020833333333333332
            },
            {
              "pitch": 31,
              "velocity": 81,
              "position": 3,
              "duration": 0.020833333333333332
            },
            {
              "pitch": 31,
              "velocity": 55,
              "position": 3.6666666666666665,
              "duration": 0.020833333333333332
            }
          ]
        },
        "9": {
          "ctab": {
            "srcChannel": 9,
            "name": "MainDrum",
            "accType": "RHYTHM",
            "editable": false,
            "mutedNotes": [],
            "mutedChords": [],
            "autoStart": true,
            "sourceChordNote": 0,
            "sourceChordType": "Maj7",
            "ctb2Low": null,
            "ctb2Main": {
              "ntr": "ROOT_FIXED",
              "ntt": "BYPASS",
              "bassOn": false,
              "chordRootUpperLimit": 6,
              "noteLowLimit": 0,
              "noteHighLimit": 127,
              "rtr": "PITCH_SHIFT"
            },
            "ctb2High": null
          },
          "notes": [
            {
              "pitch": 59,
              "velocity": 70,
              "position": 0,
              "duration": 0.020833333333333332
            },
            {
              "pitch": 31,
              "velocity": 50,
              "position": 0.7083333333333334,
              "duration": 0.020833333333333332
            },
            {
              "pitch": 44,
              "velocity": 70,
              "position": 1,
              "duration": 0.020833333333333332
            },
            {
              "pitch": 59,
              "velocity": 70,
              "position": 1,
              "duration": 0.020833333333333332
            },
            {
              "pitch": 19,
              "velocity": 60,
              "position": 1.0416666666666667,
              "duration": 0.020833333333333332
            },
            {
              "pitch": 29,
              "velocity": 50,
              "position": 0.7083333333333334,
              "duration": 0.37083333333333335
            },
            {
              "pitch": 31,
              "velocity": 16,
              "position": 1.3333333333333333,
              "duration": 0.020833333333333332
            },
            {
              "pitch": 40,
              "velocity": 61,
              "position": 1.7083333333333333,
              "duration": 0.020833333333333332
            },
            {
              "pitch": 44,
              "velocity": 70,
              "position": 2,
              "duration": 0.020833333333333332
            },
            {
              "pitch": 59,
              "velocity": 70,
              "position": 2,
              "duration": 0.020833333333333332
            },
            {
              "pitch": 31,
              "velocity": 24,
              "position": 2.3333333333333335,
              "duration": 0.020833333333333332
            },
            {
              "pitch": 48,
              "velocity": 60,
              "position": 2.6666666666666665,
              "duration": 0.020833333333333332
            },
            {
              "pitch": 59,
              "velocity": 50,
              "position": 2.7083333333333335,
              "duration": 0.020833333333333332
            },
            {
              "pitch": 44,
              "velocity": 70,
              "position": 3,
              "duration": 0.020833333333333332
            },
            {
              "pitch": 59,
              "velocity": 70,
              "position": 3,
              "duration": 0.020833333333333332
            },
            {
              "pitch": 19,
              "velocity": 70,
              "position": 3.0416666666666665,
              "duration": 0.020833333333333332
            },
            {
              "pitch": 31,
              "velocity": 33,
              "position": 3.3333333333333335,
              "duration": 0.020833333333333332
            },
            {
              "pitch": 40,
              "velocity": 80,
              "position": 3.6666666666666665,
              "duration": 0.020833333333333332
            },
            {
              "pitch": 49,
              "velocity": 60,
              "position": 3.9895833333333335,
              "duration": 0.004166666666666667
            }
          ]
        },
        "10": {
          "ctab": {
            "srcChannel": 10,
            "name": "Bass",
            "accType": "BASS",
            "editable": false,
            "mutedNotes": [],
            "mutedChords": [
              "1+2+5",
              "sus4",
              "1+5",
              "1+8",
              "7aug",
              "Maj7aug",
              "7(#9)",
              "7(b13)",
              "7(b9)",
              "7#11",
              "7(9)",
              "7b5",
              "7sus4",
              "7th",
              "dim",
              "minMaj7(9)",
              "minMaj7",
              "min7(11)",
              "min7(9)",
              "min(9)",
              "m7b5",
              "min7",
              "min",
              "aug"
            ],
            "autoStart": false,
            "sourceChordNote": 0,
            "sourceChordType": "Maj7",
            "ctb2Low": null,
            "ctb2Main": {
              "ntr": "ROOT_TRANSPOSITION",
              "ntt": "MELODIC_MINOR_5",
              "bassOn": true,
              "chordRootUpperLimit": 3,
              "noteLowLimit": 28,
              "noteHighLimit": 55,
              "rtr": "PITCH_SHIFT_TO_ROOT"
            },
            "ctb2High": null
          },
          "notes": [
            {
              "pitch": 36,
              "velocity": 60,
              "position": 0,
              "duration": 0.8583333333333333
            },
            {
              "pitch": 60,
              "velocity": 81,
              "position": 0.7083333333333334,
              "duration": 0.2708333333333333
            },
            {
              "pitch": 33,
              "velocity": 60,
              "position": 1,
              "duration": 0.8583333333333333
            },
            {
              "pitch": 57,
              "velocity": 81,
              "position": 1.7083333333333333,
              "duration": 0.2708333333333333
            },
            {
              "pitch": 31,
              "velocity": 60,
              "position": 2,
              "duration": 0.8583333333333333
            },
            {
              "pitch": 55,
              "velocity": 81,
              "position": 2.7083333333333335,
              "duration": 0.2708333333333333
            },
            {
              "pitch": 28,
              "velocity": 60,
              "position": 3,
              "duration": 0.8583333333333333
            },
            {
              "pitch": 52,
              "velocity": 81,
              "position": 3.7083333333333335,
              "duration": 0.2708333333333333
            }
          ]
        },
        "11": {
          "ctab": {
            "srcChannel": 11,
            "name": "E.Piano",
            "accType": "CHORD1",
            "editable": false,
            "mutedNotes": [],
            "mutedChords": [],
            "autoStart": false,
            "sourceChordNote": 0,
            "sourceChordType": "Maj7",
            "ctb2Low": null,
            "ctb2Main": {
              "ntr": "ROOT_FIXED",
              "ntt": "CHORD",
              "bassOn": false,
              "chordRootUpperLimit": 7,
              "noteLowLimit": 0,
              "noteHighLimit": 127,
              "rtr": "PITCH_SHIFT"
            },
            "ctb2High": null
          },
          "notes": [
            {
              "pitch": 64,
              "velocity": 80,
              "position": 0.6583333333333333,
              "duration": 0.15416666666666667
            },
            {
              "pitch": 52,
              "velocity": 32,
              "position": 0.6583333333333333,
              "duration": 0.15625
            },
            {
              "pitch": 55,
              "velocity": 80,
              "position": 0.6666666666666666,
              "duration": 0.17291666666666666
            },
            {
              "pitch": 59,
              "velocity": 80,
              "position": 0.66875,
              "duration": 0.1875
            },
            {
              "pitch": 64,
              "velocity": 85,
              "position": 1.6583333333333334,
              "duration": 0.15416666666666667
            },
            {
              "pitch": 67,
              "velocity": 85,
              "position": 1.6583333333333334,
              "duration": 0.15416666666666667
            },
            {
              "pitch": 55,
              "velocity": 85,
              "position": 1.6666666666666667,
              "duration": 0.17291666666666666
            },
            {
              "pitch": 59,
              "velocity": 85,
              "position": 1.66875,
              "duration": 0.1875
            },
            {
              "pitch": 59,
              "velocity": 90,
              "position": 2.65625,
              "duration": 1.14375
            },
            {
              "pitch": 71,
              "velocity": 90,
              "position": 2.6625,
              "duration": 1.1458333333333333
            },
            {
              "pitch": 64,
              "velocity": 90,
              "position": 2.6645833333333333,
              "duration": 1.1479166666666667
            },
            {
              "pitch": 67,
              "velocity": 90,
              "position": 2.6708333333333334,
              "duration": 1.1520833333333333
            }
          ]
        },
        "12": {
          "ctab": {
            "srcChannel": 12,
            "name": "JazzGtr",
            "accType": "CHORD2",
            "editable": false,
            "mutedNotes": [],
            "mutedChords": [],
            "autoStart": false,
            "sourceChordNote": 0,
            "sourceChordType": "Maj7",
            "ctb2Low": null,
            "ctb2Main": {
              "ntr": "ROOT_TRANSPOSITION",
              "ntt": "MELODY",
              "bassOn": false,
              "chordRootUpperLimit": 7,
              "noteLowLimit": 0,
              "noteHighLimit": 127,
              "rtr": "PITCH_SHIFT"
            },
            "ctb2High": null
          },
          "notes": [
            {
              "pitch": 64,
              "velocity": 43,
              "position": 0.6895833333333333,
              "duration": 0.22708333333333333
            },
            {
              "pitch": 60,
              "velocity": 40,
              "position": 0.6958333333333333,
              "duration": 0.225
            },
            {
              "pitch": 67,
              "velocity": 43,
              "position": 0.7041666666666667,
              "duration": 0.22916666666666666
            },
            {
              "pitch": 71,
              "velocity": 43,
              "position": 0.7041666666666667,
              "duration": 0.22916666666666666
            },
            {
              "pitch": 55,
              "velocity": 43,
              "position": 0.7229166666666667,
              "duration": 0.22708333333333333
            },
            {
              "pitch": 59,
              "velocity": 43,
              "position": 0.7229166666666667,
              "duration": 0.22708333333333333
            },
            {
              "pitch": 64,
              "velocity": 36,
              "position": 1.6895833333333334,
              "duration": 0.22708333333333333
            },
            {
              "pitch": 60,
              "velocity": 33,
              "position": 1.6958333333333333,
              "duration": 0.225
            },
            {
              "pitch": 67,
              "velocity": 36,
              "position": 1.7041666666666666,
              "duration": 0.22916666666666666
            },
            {
              "pitch": 71,
              "velocity": 36,
              "position": 1.7041666666666666,
              "duration": 0.22916666666666666
            },
            {
              "pitch": 55,
              "velocity": 36,
              "position": 1.7229166666666667,
              "duration": 0.22708333333333333
            },
            {
              "pitch": 59,
              "velocity": 36,
              "position": 1.7229166666666667,
              "duration": 0.22708333333333333
            },
            {
              "pitch": 67,
              "velocity": 43,
              "position": 2.69375,
              "duration": 0.8770833333333333
            },
            {
              "pitch": 71,
              "velocity": 43,
              "position": 2.69375,
              "duration": 0.8770833333333333
            },
            {
              "pitch": 60,
              "velocity": 42,
              "position": 2.714583333333333,
              "duration": 0.875
            },
            {
              "pitch": 64,
              "velocity": 41,
              "position": 2.7041666666666666,
              "duration": 0.8958333333333334
            },
            {
              "pitch": 55,
              "velocity": 40,
              "position": 2.7104166666666667,
              "duration": 0.8958333333333334
            },
            {
              "pitch": 59,
              "velocity": 40,
              "position": 2.7104166666666667,
              "duration": 0.8958333333333334
            }
          ]
        },
        "13": {
          "ctab": {
            "srcChannel": 13,
            "name": "PopVocal",
            "accType": "PAD",
            "editable": false,
            "mutedNotes": [],
            "mutedChords": [],
            "autoStart": false,
            "sourceChordNote": 0,
            "sourceChordType": "Maj7",
            "ctb2Low": null,
            "ctb2Main": {
              "ntr": "ROOT_FIXED",
              "ntt": "CHORD",
              "bassOn": false,
              "chordRootUpperLimit": 7,
              "noteLowLimit": 53,
              "noteHighLimit": 127,
              "rtr": "PITCH_SHIFT"
            },
            "ctb2High": null
          },
          "notes": [
            {
              "pitch": 35,
              "velocity": 37,
              "position": 0.010416666666666666,
              "duration": 1.9583333333333333
            },
            {
              "pitch": 67,
              "velocity": 37,
              "position": 0.010416666666666666,
              "duration": 1.9583333333333333
            },
            {
              "pitch": 64,
              "velocity": 17,
              "position": 0.010416666666666666,
              "duration": 1.9583333333333333
            },
            {
              "pitch": 35,
              "velocity": 95,
              "position": 2.5770833333333334,
              "duration": 1.40625
            },
            {
              "pitch": 67,
              "velocity": 95,
              "position": 2.5770833333333334,
              "duration": 1.40625
            },
            {
              "pitch": 64,
              "velocity": 95,
              "position": 2.5770833333333334,
              "duration": 1.40625
            }
          ]
        },
        "14": {
          "ctab": {
            "srcChannel": 14,
            "name": "Brass",
            "accType": "PHRASE1",
            "editable": false,
            "mutedNotes": [],
            "mutedChords": [],
            "autoStart": false,
            "sourceChordNote": 0,
            "sourceChordType": "Maj7",
            "ctb2Low": null,
            "ctb2Main": {
              "ntr": "ROOT_FIXED",
              "ntt": "CHORD",
              "bassOn": false,
              "chordRootUpperLimit": 7,
              "noteLowLimit": 0,
              "noteHighLimit": 127,
              "rtr": "PITCH_SHIFT"
            },
            "ctb2High": null
          },
          "notes": [
            {
              "pitch": 36,
              "velocity": 96,
              "position": 0.66875,
              "duration": 0.26666666666666666
            },
            {
              "pitch": 55,
              "velocity": 96,
              "position": 0.66875,
              "duration": 0.26666666666666666
            },
            {
              "pitch": 59,
              "velocity": 96,
              "position": 0.6833333333333333,
              "duration": 0.2833333333333333
            },
            {
              "pitch": 64,
              "velocity": 96,
              "position": 0.7125,
              "duration": 0.2791666666666667
            },
            {
              "pitch": 36,
              "velocity": 96,
              "position": 1.66875,
              "duration": 0.26666666666666666
            },
            {
              "pitch": 55,
              "velocity": 115,
              "position": 1.66875,
              "duration": 0.26666666666666666
            },
            {
              "pitch": 59,
              "velocity": 115,
              "position": 1.6833333333333333,
              "duration": 0.2833333333333333
            },
            {
              "pitch": 67,
              "velocity": 115,
              "position": 1.7,
              "duration": 0.2791666666666667
            },
            {
              "pitch": 64,
              "velocity": 115,
              "position": 1.7125,
              "duration": 0.2791666666666667
            },
            {
              "pitch": 36,
              "velocity": 96,
              "position": 2.6729166666666666,
              "duration": 1.2791666666666666
            },
            {
              "pitch": 59,
              "velocity": 127,
              "position": 2.6729166666666666,
              "duration": 1.2791666666666666
            },
            {
              "pitch": 71,
              "velocity": 127,
              "position": 2.6729166666666666,
              "duration": 1.2791666666666666
            },
            {
              "pitch": 67,
              "velocity": 127,
              "position": 2.7125,
              "duration": 1.2416666666666667
            },
            {
              "pitch": 64,
              "velocity": 127,
              "position": 2.725,
              "duration": 1.2291666666666667
            }
          ]
        },
        "15": {
          "ctab": {
            "srcChannel": 15,
            "name": "BalladDX",
            "accType": "PHRASE2",
            "editable": false,
            "mutedNotes": [],
            "mutedChords": [],
            "autoStart": false,
            "sourceChordNote": 0,
            "sourceChordType": "Maj7",
            "ctb2Low": null,
            "ctb2Main": {
              "ntr": "ROOT_FIXED",
              "ntt": "CHORD",
              "bassOn": false,
              "chordRootUpperLimit": 7,
              "noteLowLimit": 0,
              "noteHighLimit": 127,
              "rtr": "PITCH_SHIFT"
            },
            "ctb2High": null
          },
          "notes": [
            {
              "pitch": 64,
              "velocity": 79,
              "position": 0.6583333333333333,
              "duration": 0.15416666666666667
            },
            {
              "pitch": 52,
              "velocity": 24,
              "position": 0.6583333333333333,
              "duration": 0.15625
            },
            {
              "pitch": 55,
              "velocity": 79,
              "position": 0.6666666666666666,
              "duration": 0.17291666666666666
            },
            {
              "pitch": 59,
              "velocity": 79,
              "position": 0.66875,
              "duration": 0.1875
            },
            {
              "pitch": 64,
              "velocity": 97,
              "position": 1.6583333333333334,
              "duration": 0.15416666666666667
            },
            {
              "pitch": 67,
              "velocity": 97,
              "position": 1.6583333333333334,
              "duration": 0.15416666666666667
            },
            {
              "pitch": 55,
              "velocity": 97,
              "position": 1.6666666666666667,
              "duration": 0.17291666666666666
            },
            {
              "pitch": 59,
              "velocity": 97,
              "position": 1.66875,
              "duration": 0.1875
            },
            {
              "pitch": 59,
              "velocity": 114,
              "position": 2.65625,
              "duration": 1.14375
            },
            {
              "pitch": 71,
              "velocity": 114,
              "position": 2.6625,
              "duration": 1.1458333333333333
            },
            {
              "pitch": 64,
              "velocity": 114,
              "position": 2.6645833333333333,
              "duration": 1.1479166666666667
            },
            {
              "pitch": 67,
              "velocity": 114,
              "position": 2.6708333333333334,
              "duration": 1.1520833333333333
            }
          ]
        }
      }
    },
    "Intro_B": {
      "type": "Intro_B",
      "sizeInBeats": 16,
      "channels": {
        "1": {
          "ctab": {
            "srcChannel": 1,
            "name": "Bass",
            "accType": "BASS",
            "editable": false,
            "mutedNotes": [],
            "mutedChords": [
              "1+2+5",
              "sus4",
              "1+5",
              "1+8",
              "7aug",
              "Maj7aug",
              "7(#9)",
              "7(b13)",
              "7(b9)",
              "7(13)",
              "7#11",
              "7(9)",
              "7b5",
              "7sus4",
              "7th",
              "aug",
              "Maj6(9)",
              "Maj7(9)",
              "Maj(9)",
              "Maj7#11",
              "Maj7",
              "Maj6",
              "Maj"
            ],
            "autoStart": false,
            "sourceChordNote": 0,
            "sourceChordType": "min",
            "ctb2Low": null,
            "ctb2Main": {
              "ntr": "ROOT_TRANSPOSITION",
              "ntt": "BYPASS",
              "bassOn": false,
              "chordRootUpperLimit": 3,
              "noteLowLimit": 26,
              "noteHighLimit": 49,
              "rtr": "PITCH_SHIFT"
            },
            "ctb2High": null
          },
          "notes": [
            {
              "pitch": 24,
              "velocity": 60,
              "position": 0,
              "duration": 1.0833333333333333
            },
            {
              "pitch": 60,
              "velocity": 96,
              "position": 1.3333333333333333,
              "duration": 0.22916666666666666
            },
            {
              "pitch": 60,
              "velocity": 50,
              "position": 1.6666666666666667,
              "duration": 0.11041666666666666
            },
            {
              "pitch": 60,
              "velocity": 60,
              "position": 2,
              "duration": 1.3541666666666667
            },
            {
              "pitch": 17,
              "velocity": 60,
              "position": 3.6666666666666665,
              "duration": 2.8958333333333335
            },
            {
              "pitch": 65,
              "velocity": 70,
              "position": 6.666666666666667,
              "duration": 0.27291666666666664
            },
            {
              "pitch": 17,
              "velocity": 30,
              "position": 7,
              "duration": 0.18125
            },
            {
              "pitch": 17,
              "velocity": 95,
              "position": 7.333333333333333,
              "duration": 0.22291666666666668
            },
            {
              "pitch": 22,
              "velocity": 60,
              "position": 7.666666666666667,
              "duration": 1.65
            },
            {
              "pitch": 22,
              "velocity": 90,
              "position": 9.333333333333334,
              "duration": 0.22291666666666668
            },
            {
              "pitch": 27,
              "velocity": 60,
              "position": 9.666666666666666,
              "duration": 1.6583333333333334
            },
            {
              "pitch": 27,
              "velocity": 90,
              "position": 11.333333333333334,
              "duration": 0.22291666666666668
            },
            {
              "pitch": 20,
              "velocity": 60,
              "position": 11.666666666666666,
              "duration": 0.325
            },
            {
              "pitch": 20,
              "velocity": 90,
              "position": 12,
              "duration": 0.22291666666666668
            },
            {
              "pitch": 31,
              "velocity": 30,
              "position": 12.333333333333334,
              "duration": 0.13958333333333334
            },
            {
              "pitch": 31,
              "velocity": 20,
              "position": 12.666666666666666,
              "duration": 0.13958333333333334
            },
            {
              "pitch": 31,
              "velocity": 60,
              "position": 13,
              "duration": 2.6375
            }
          ]
        },
        "2": {
          "ctab": {
            "srcChannel": 2,
            "name": "E.Piano",
            "accType": "CHORD1",
            "editable": false,
            "mutedNotes": [],
            "mutedChords": [
              "1+2+5",
              "sus4",
              "1+5",
              "1+8",
              "7aug",
              "Maj7aug",
              "7(#9)",
              "7(b13)",
              "7(b9)",
              "7(13)",
              "7#11",
              "7(9)",
              "7b5",
              "7sus4",
              "7th",
              "aug",
              "Maj6(9)",
              "Maj7(9)",
              "Maj(9)",
              "Maj7#11",
              "Maj7",
              "Maj6",
              "Maj"
            ],
            "autoStart": false,
            "sourceChordNote": 0,
            "sourceChordType": "min",
            "ctb2Low": null,
            "ctb2Main": {
              "ntr": "ROOT_TRANSPOSITION",
              "ntt": "BYPASS",
              "bassOn": false,
              "chordRootUpperLimit": 8,
              "noteLowLimit": 54,
              "noteHighLimit": 65,
              "rtr": "PITCH_SHIFT"
            },
            "ctb2High": null
          },
          "notes": [
            {
              "pitch": 74,
              "velocity": 77,
              "position": 0,
              "duration": 3.64375
            },
            {
              "pitch": 51,
              "velocity": 79,
              "position": 0.029166666666666667,
              "duration": 3.6145833333333335
            },
            {
              "pitch": 58,
              "velocity": 72,
              "position": 0.027083333333333334,
              "duration": 3.6166666666666667
            },
            {
              "pitch": 79,
              "velocity": 74,
              "position": 0.025,
              "duration": 3.61875
            },
            {
              "pitch": 36,
              "velocity": 45,
              "position": 0.014583333333333334,
              "duration": 3.629166666666667
            },
            {
              "pitch": 51,
              "velocity": 90,
              "position": 3.652083333333333,
              "duration": 2.6458333333333335
            },
            {
              "pitch": 79,
              "velocity": 90,
              "position": 3.660416666666667,
              "duration": 2.654166666666667
            },
            {
              "pitch": 41,
              "velocity": 57,
              "position": 3.6729166666666666,
              "duration": 2.64375
            },
            {
              "pitch": 57,
              "velocity": 90,
              "position": 3.6791666666666667,
              "duration": 2.660416666666667
            },
            {
              "pitch": 74,
              "velocity": 89,
              "position": 3.6770833333333335,
              "duration": 2.6770833333333335
            },
            {
              "pitch": 51,
              "velocity": 90,
              "position": 6.708333333333333,
              "duration": 0.11666666666666667
            },
            {
              "pitch": 57,
              "velocity": 90,
              "position": 6.720833333333333,
              "duration": 0.11458333333333333
            },
            {
              "pitch": 79,
              "velocity": 90,
              "position": 6.708333333333333,
              "duration": 0.17291666666666666
            },
            {
              "pitch": 74,
              "velocity": 88,
              "position": 6.716666666666667,
              "duration": 0.18958333333333333
            },
            {
              "pitch": 51,
              "velocity": 71,
              "position": 7.6625,
              "duration": 1.9791666666666667
            },
            {
              "pitch": 79,
              "velocity": 73,
              "position": 7.679166666666666,
              "duration": 1.9625
            },
            {
              "pitch": 84,
              "velocity": 70,
              "position": 7.666666666666667,
              "duration": 1.975
            },
            {
              "pitch": 46,
              "velocity": 44,
              "position": 7.666666666666667,
              "duration": 1.975
            },
            {
              "pitch": 56,
              "velocity": 68,
              "position": 7.6625,
              "duration": 1.9791666666666667
            },
            {
              "pitch": 77,
              "velocity": 82,
              "position": 9.65,
              "duration": 1.8
            },
            {
              "pitch": 39,
              "velocity": 52,
              "position": 9.679166666666667,
              "duration": 1.7708333333333333
            },
            {
              "pitch": 82,
              "velocity": 82,
              "position": 9.675,
              "duration": 1.7770833333333333
            },
            {
              "pitch": 50,
              "velocity": 82,
              "position": 9.672916666666667,
              "duration": 1.7791666666666666
            },
            {
              "pitch": 55,
              "velocity": 80,
              "position": 9.6625,
              "duration": 1.7895833333333333
            },
            {
              "pitch": 54,
              "velocity": 71,
              "position": 11.725,
              "duration": 0.20833333333333334
            },
            {
              "pitch": 77,
              "velocity": 73,
              "position": 11.7125,
              "duration": 0.22291666666666668
            },
            {
              "pitch": 80,
              "velocity": 77,
              "position": 11.710416666666667,
              "duration": 0.22708333333333333
            },
            {
              "pitch": 44,
              "velocity": 50,
              "position": 11.714583333333334,
              "duration": 0.23541666666666666
            },
            {
              "pitch": 60,
              "velocity": 78,
              "position": 11.714583333333334,
              "duration": 0.24375
            },
            {
              "pitch": 75,
              "velocity": 90,
              "position": 12.989583333333334,
              "duration": 2.6395833333333334
            },
            {
              "pitch": 53,
              "velocity": 90,
              "position": 12.997916666666667,
              "duration": 2.6458333333333335
            },
            {
              "pitch": 43,
              "velocity": 57,
              "position": 13.0125,
              "duration": 2.6375
            },
            {
              "pitch": 59,
              "velocity": 87,
              "position": 12.995833333333334,
              "duration": 2.65625
            },
            {
              "pitch": 79,
              "velocity": 90,
              "position": 13.016666666666667,
              "duration": 2.6479166666666667
            }
          ]
        },
        "3": {
          "ctab": {
            "srcChannel": 3,
            "name": "JazzGtr",
            "accType": "CHORD2",
            "editable": false,
            "mutedNotes": [],
            "mutedChords": [
              "1+2+5",
              "sus4",
              "1+5",
              "1+8",
              "7aug",
              "Maj7aug",
              "7(#9)",
              "7(b13)",
              "7(b9)",
              "7(13)",
              "7#11",
              "7(9)",
              "7b5",
              "7sus4",
              "7th",
              "aug",
              "Maj6(9)",
              "Maj7(9)",
              "Maj(9)",
              "Maj7#11",
              "Maj7",
              "Maj6",
              "Maj"
            ],
            "autoStart": false,
            "sourceChordNote": 0,
            "sourceChordType": "min",
            "ctb2Low": null,
            "ctb2Main": {
              "ntr": "ROOT_TRANSPOSITION",
              "ntt": "BYPASS",
              "bassOn": false,
              "chordRootUpperLimit": 3,
              "noteLowLimit": 0,
              "noteHighLimit": 79,
              "rtr": "PITCH_SHIFT"
            },
            "ctb2High": null
          },
          "notes": [
            {
              "pitch": 58,
              "velocity": 41,
              "position": 0.7291666666666666,
              "duration": 0.44583333333333336
            },
            {
              "pitch": 96,
              "velocity": 76,
              "position": 0.7291666666666666,
              "duration": 0.44583333333333336
            },
            {
              "pitch": 65,
              "velocity": 85,
              "position": 0.75,
              "duration": 0.44583333333333336
            },
            {
              "pitch": 70,
              "velocity": 41,
              "position": 0.7708333333333334,
              "duration": 0.44583333333333336
            },
            {
              "pitch": 119,
              "velocity": 40,
              "position": 1.1,
              "duration": 0.22083333333333333
            },
            {
              "pitch": 122,
              "velocity": 40,
              "position": 1.1,
              "duration": 0.22083333333333333
            },
            {
              "pitch": 60,
              "velocity": 30,
              "position": 1.3958333333333333,
              "duration": 0.44583333333333336
            },
            {
              "pitch": 98,
              "velocity": 44,
              "position": 1.3958333333333333,
              "duration": 0.44583333333333336
            },
            {
              "pitch": 67,
              "velocity": 85,
              "position": 1.4166666666666667,
              "duration": 0.44583333333333336
            },
            {
              "pitch": 72,
              "velocity": 30,
              "position": 1.4375,
              "duration": 0.44583333333333336
            },
            {
              "pitch": 118,
              "velocity": 40,
              "position": 1.7666666666666666,
              "duration": 0.22083333333333333
            },
            {
              "pitch": 121,
              "velocity": 40,
              "position": 1.7666666666666666,
              "duration": 0.22083333333333333
            },
            {
              "pitch": 62,
              "velocity": 50,
              "position": 2.0458333333333334,
              "duration": 0.44583333333333336
            },
            {
              "pitch": 103,
              "velocity": 76,
              "position": 2.0458333333333334,
              "duration": 0.44583333333333336
            },
            {
              "pitch": 67,
              "velocity": 85,
              "position": 2.066666666666667,
              "duration": 0.44583333333333336
            },
            {
              "pitch": 74,
              "velocity": 50,
              "position": 2.0875,
              "duration": 0.44583333333333336
            },
            {
              "pitch": 117,
              "velocity": 40,
              "position": 2.433333333333333,
              "duration": 0.22083333333333333
            },
            {
              "pitch": 123,
              "velocity": 40,
              "position": 2.433333333333333,
              "duration": 0.22083333333333333
            },
            {
              "pitch": 63,
              "velocity": 30,
              "position": 2.7291666666666665,
              "duration": 0.44583333333333336
            },
            {
              "pitch": 102,
              "velocity": 44,
              "position": 2.7291666666666665,
              "duration": 0.44583333333333336
            },
            {
              "pitch": 70,
              "velocity": 85,
              "position": 2.75,
              "duration": 0.44583333333333336
            },
            {
              "pitch": 75,
              "velocity": 30,
              "position": 2.7708333333333335,
              "duration": 0.44583333333333336
            },
            {
              "pitch": 116,
              "velocity": 40,
              "position": 3.1,
              "duration": 0.22083333333333333
            },
            {
              "pitch": 124,
              "velocity": 40,
              "position": 3.1,
              "duration": 0.22083333333333333
            },
            {
              "pitch": 65,
              "velocity": 116,
              "position": 3.60625,
              "duration": 0.60625
            },
            {
              "pitch": 104,
              "velocity": 76,
              "position": 3.60625,
              "duration": 0.60625
            },
            {
              "pitch": 72,
              "velocity": 106,
              "position": 3.627083333333333,
              "duration": 0.60625
            },
            {
              "pitch": 77,
              "velocity": 116,
              "position": 3.6479166666666667,
              "duration": 0.60625
            },
            {
              "pitch": 115,
              "velocity": 40,
              "position": 4.308333333333334,
              "duration": 0.22083333333333333
            },
            {
              "pitch": 125,
              "velocity": 26,
              "position": 4.308333333333334,
              "duration": 0.22083333333333333
            },
            {
              "pitch": 63,
              "velocity": 30,
              "position": 4.625,
              "duration": 0.44583333333333336
            },
            {
              "pitch": 105,
              "velocity": 44,
              "position": 4.625,
              "duration": 0.44583333333333336
            },
            {
              "pitch": 70,
              "velocity": 85,
              "position": 4.645833333333333,
              "duration": 0.44583333333333336
            },
            {
              "pitch": 75,
              "velocity": 30,
              "position": 4.666666666666667,
              "duration": 0.44583333333333336
            },
            {
              "pitch": 123,
              "velocity": 26,
              "position": 5.1,
              "duration": 0.22083333333333333
            },
            {
              "pitch": 114,
              "velocity": 40,
              "position": 5.1,
              "duration": 0.22083333333333333
            },
            {
              "pitch": 62,
              "velocity": 41,
              "position": 5.633333333333334,
              "duration": 0.44583333333333336
            },
            {
              "pitch": 103,
              "velocity": 76,
              "position": 5.633333333333334,
              "duration": 0.44583333333333336
            },
            {
              "pitch": 67,
              "velocity": 85,
              "position": 5.654166666666667,
              "duration": 0.44583333333333336
            },
            {
              "pitch": 74,
              "velocity": 41,
              "position": 5.675,
              "duration": 0.44583333333333336
            },
            {
              "pitch": 122,
              "velocity": 26,
              "position": 6.1,
              "duration": 0.22083333333333333
            },
            {
              "pitch": 113,
              "velocity": 40,
              "position": 6.1,
              "duration": 0.22083333333333333
            },
            {
              "pitch": 60,
              "velocity": 30,
              "position": 6.635416666666667,
              "duration": 0.44583333333333336
            },
            {
              "pitch": 106,
              "velocity": 44,
              "position": 6.635416666666667,
              "duration": 0.44583333333333336
            },
            {
              "pitch": 65,
              "velocity": 85,
              "position": 6.65625,
              "duration": 0.44583333333333336
            },
            {
              "pitch": 72,
              "velocity": 30,
              "position": 6.677083333333333,
              "duration": 0.44583333333333336
            },
            {
              "pitch": 115,
              "velocity": 40,
              "position": 7.141666666666667,
              "duration": 0.22083333333333333
            },
            {
              "pitch": 121,
              "velocity": 26,
              "position": 7.141666666666667,
              "duration": 0.22083333333333333
            },
            {
              "pitch": 58,
              "velocity": 50,
              "position": 7.61875,
              "duration": 4.310416666666667
            },
            {
              "pitch": 98,
              "velocity": 76,
              "position": 7.61875,
              "duration": 4.310416666666667
            },
            {
              "pitch": 65,
              "velocity": 85,
              "position": 7.639583333333333,
              "duration": 4.310416666666667
            },
            {
              "pitch": 70,
              "velocity": 50,
              "position": 7.660416666666666,
              "duration": 4.310416666666667
            },
            {
              "pitch": 115,
              "velocity": 72,
              "position": 12,
              "duration": 0.22083333333333333
            },
            {
              "pitch": 121,
              "velocity": 79,
              "position": 12.666666666666666,
              "duration": 0.8875
            },
            {
              "pitch": 63,
              "velocity": 118,
              "position": 12.666666666666666,
              "duration": 1.03125
            },
            {
              "pitch": 68,
              "velocity": 40,
              "position": 13.333333333333334,
              "duration": 0.6520833333333333
            },
            {
              "pitch": 63,
              "velocity": 40,
              "position": 13.70625,
              "duration": 2.158333333333333
            },
            {
              "pitch": 67,
              "velocity": 51,
              "position": 13.997916666666667,
              "duration": 1.86875
            }
          ]
        },
        "4": {
          "ctab": {
            "srcChannel": 4,
            "name": "Strings",
            "accType": "PAD",
            "editable": false,
            "mutedNotes": [],
            "mutedChords": [
              "1+2+5",
              "sus4",
              "1+5",
              "1+8",
              "7aug",
              "Maj7aug",
              "7(#9)",
              "7(b13)",
              "7(b9)",
              "7(13)",
              "7#11",
              "7(9)",
              "7b5",
              "7sus4",
              "7th",
              "aug",
              "Maj6(9)",
              "Maj7(9)",
              "Maj(9)",
              "Maj7#11",
              "Maj7",
              "Maj6",
              "Maj"
            ],
            "autoStart": false,
            "sourceChordNote": 0,
            "sourceChordType": "min",
            "ctb2Low": null,
            "ctb2Main": {
              "ntr": "ROOT_TRANSPOSITION",
              "ntt": "BYPASS",
              "bassOn": false,
              "chordRootUpperLimit": 8,
              "noteLowLimit": 54,
              "noteHighLimit": 65,
              "rtr": "PITCH_SHIFT"
            },
            "ctb2High": null
          },
          "notes": [
            {
              "pitch": 74,
              "velocity": 114,
              "position": 0,
              "duration": 3.64375
            },
            {
              "pitch": 51,
              "velocity": 114,
              "position": 0.029166666666666667,
              "duration": 3.6145833333333335
            },
            {
              "pitch": 58,
              "velocity": 114,
              "position": 0.027083333333333334,
              "duration": 3.6166666666666667
            },
            {
              "pitch": 79,
              "velocity": 114,
              "position": 0.025,
              "duration": 3.61875
            },
            {
              "pitch": 51,
              "velocity": 114,
              "position": 3.652083333333333,
              "duration": 3.6458333333333335
            },
            {
              "pitch": 79,
              "velocity": 114,
              "position": 3.660416666666667,
              "duration": 3.654166666666667
            },
            {
              "pitch": 57,
              "velocity": 114,
              "position": 3.6791666666666667,
              "duration": 3.660416666666667
            },
            {
              "pitch": 74,
              "velocity": 114,
              "position": 3.6770833333333335,
              "duration": 3.6770833333333335
            },
            {
              "pitch": 51,
              "velocity": 114,
              "position": 7.6625,
              "duration": 1.9791666666666667
            },
            {
              "pitch": 79,
              "velocity": 114,
              "position": 7.679166666666666,
              "duration": 1.9625
            },
            {
              "pitch": 84,
              "velocity": 114,
              "position": 7.666666666666667,
              "duration": 1.975
            },
            {
              "pitch": 56,
              "velocity": 114,
              "position": 7.6625,
              "duration": 1.9791666666666667
            },
            {
              "pitch": 77,
              "velocity": 114,
              "position": 9.65,
              "duration": 1.8
            },
            {
              "pitch": 82,
              "velocity": 114,
              "position": 9.675,
              "duration": 1.7770833333333333
            },
            {
              "pitch": 50,
              "velocity": 114,
              "position": 9.672916666666667,
              "duration": 1.7791666666666666
            },
            {
              "pitch": 55,
              "velocity": 114,
              "position": 9.6625,
              "duration": 1.7895833333333333
            },
            {
              "pitch": 54,
              "velocity": 103,
              "position": 11.725,
              "duration": 0.875
            },
            {
              "pitch": 77,
              "velocity": 103,
              "position": 11.7125,
              "duration": 0.8895833333333333
            },
            {
              "pitch": 80,
              "velocity": 103,
              "position": 11.710416666666667,
              "duration": 0.89375
            },
            {
              "pitch": 60,
              "velocity": 103,
              "position": 11.714583333333334,
              "duration": 0.9104166666666667
            },
            {
              "pitch": 75,
              "velocity": 114,
              "position": 12.989583333333334,
              "duration": 2.6395833333333334
            },
            {
              "pitch": 53,
              "velocity": 114,
              "position": 12.997916666666667,
              "duration": 2.6458333333333335
            },
            {
              "pitch": 59,
              "velocity": 114,
              "position": 12.995833333333334,
              "duration": 2.65625
            },
            {
              "pitch": 79,
              "velocity": 114,
              "position": 13.016666666666667,
              "duration": 2.6479166666666667
            }
          ]
        },
        "5": {
          "ctab": {
            "srcChannel": 5,
            "name": "Piano",
            "accType": "PHRASE1",
            "editable": false,
            "mutedNotes": [],
            "mutedChords": [
              "1+2+5",
              "sus4",
              "1+5",
              "1+8",
              "7aug",
              "Maj7aug",
              "7(#9)",
              "7(b13)",
              "7(b9)",
              "7(13)",
              "7#11",
              "7(9)",
              "7b5",
              "7sus4",
              "7th",
              "aug",
              "Maj6(9)",
              "Maj7(9)",
              "Maj(9)",
              "Maj7#11",
              "Maj7",
              "Maj6",
              "Maj"
            ],
            "autoStart": false,
            "sourceChordNote": 0,
            "sourceChordType": "min",
            "ctb2Low": null,
            "ctb2Main": {
              "ntr": "ROOT_TRANSPOSITION",
              "ntt": "BYPASS",
              "bassOn": false,
              "chordRootUpperLimit": 11,
              "noteLowLimit": 54,
              "noteHighLimit": 127,
              "rtr": "PITCH_SHIFT"
            },
            "ctb2High": null
          },
          "notes": [
            {
              "pitch": 70,
              "velocity": 85,
              "position": 0.7875,
              "duration": 0.2791666666666667
            },
            {
              "pitch": 58,
              "velocity": 70,
              "position": 0.75,
              "duration": 0.32708333333333334
            },
            {
              "pitch": 72,
              "velocity": 71,
              "position": 1.4270833333333333,
              "duration": 0.2833333333333333
            },
            {
              "pitch": 60,
              "velocity": 65,
              "position": 1.4083333333333334,
              "duration": 0.3125
            },
            {
              "pitch": 62,
              "velocity": 67,
              "position": 2.058333333333333,
              "duration": 0.3229166666666667
            },
            {
              "pitch": 74,
              "velocity": 72,
              "position": 2.095833333333333,
              "duration": 0.3
            },
            {
              "pitch": 63,
              "velocity": 70,
              "position": 2.73125,
              "duration": 0.25416666666666665
            },
            {
              "pitch": 75,
              "velocity": 83,
              "position": 2.7416666666666667,
              "duration": 0.25625
            },
            {
              "pitch": 77,
              "velocity": 85,
              "position": 3.6020833333333333,
              "duration": 0.38958333333333334
            },
            {
              "pitch": 65,
              "velocity": 68,
              "position": 3.5833333333333335,
              "duration": 0.4375
            },
            {
              "pitch": 75,
              "velocity": 89,
              "position": 4.625,
              "duration": 0.5041666666666667
            },
            {
              "pitch": 63,
              "velocity": 68,
              "position": 4.608333333333333,
              "duration": 0.5791666666666667
            },
            {
              "pitch": 74,
              "velocity": 71,
              "position": 5.6375,
              "duration": 0.42291666666666666
            },
            {
              "pitch": 62,
              "velocity": 68,
              "position": 5.641666666666667,
              "duration": 0.48541666666666666
            },
            {
              "pitch": 60,
              "velocity": 71,
              "position": 6.658333333333333,
              "duration": 0.4583333333333333
            },
            {
              "pitch": 72,
              "velocity": 77,
              "position": 6.675,
              "duration": 0.4583333333333333
            },
            {
              "pitch": 72,
              "velocity": 96,
              "position": 8.658333333333333,
              "duration": 0.5666666666666667
            },
            {
              "pitch": 77,
              "velocity": 75,
              "position": 8.6625,
              "duration": 0.7520833333333333
            },
            {
              "pitch": 73,
              "velocity": 46,
              "position": 9.308333333333334,
              "duration": 0.19375
            },
            {
              "pitch": 72,
              "velocity": 58,
              "position": 9.402083333333334,
              "duration": 0.175
            },
            {
              "pitch": 58,
              "velocity": 82,
              "position": 7.741666666666666,
              "duration": 1.89375
            },
            {
              "pitch": 48,
              "velocity": 62,
              "position": 7.745833333333334,
              "duration": 1.9479166666666667
            },
            {
              "pitch": 51,
              "velocity": 65,
              "position": 7.735416666666667,
              "duration": 1.9666666666666666
            },
            {
              "pitch": 44,
              "velocity": 62,
              "position": 7.7375,
              "duration": 1.9645833333333333
            },
            {
              "pitch": 55,
              "velocity": 62,
              "position": 7.7375,
              "duration": 1.9645833333333333
            },
            {
              "pitch": 70,
              "velocity": 70,
              "position": 9.55,
              "duration": 0.225
            },
            {
              "pitch": 67,
              "velocity": 89,
              "position": 9.79375,
              "duration": 0.17083333333333334
            },
            {
              "pitch": 70,
              "velocity": 83,
              "position": 9.972916666666666,
              "duration": 0.5895833333333333
            },
            {
              "pitch": 72,
              "velocity": 79,
              "position": 10.658333333333333,
              "duration": 0.16458333333333333
            },
            {
              "pitch": 48,
              "velocity": 68,
              "position": 11.685416666666667,
              "duration": 0.13333333333333333
            },
            {
              "pitch": 46,
              "velocity": 69,
              "position": 11.68125,
              "duration": 0.15416666666666667
            },
            {
              "pitch": 53,
              "velocity": 78,
              "position": 11.683333333333334,
              "duration": 0.16041666666666668
            },
            {
              "pitch": 42,
              "velocity": 71,
              "position": 11.677083333333334,
              "duration": 0.17916666666666667
            },
            {
              "pitch": 65,
              "velocity": 92,
              "position": 11.6875,
              "duration": 0.34791666666666665
            },
            {
              "pitch": 70,
              "velocity": 73,
              "position": 11.702083333333333,
              "duration": 0.5020833333333333
            },
            {
              "pitch": 66,
              "velocity": 50,
              "position": 12.072916666666666,
              "duration": 0.18541666666666667
            },
            {
              "pitch": 65,
              "velocity": 62,
              "position": 12.227083333333333,
              "duration": 0.15625
            },
            {
              "pitch": 63,
              "velocity": 50,
              "position": 12.391666666666667,
              "duration": 0.19583333333333333
            },
            {
              "pitch": 60,
              "velocity": 82,
              "position": 12.677083333333334,
              "duration": 0.19375
            },
            {
              "pitch": 55,
              "velocity": 92,
              "position": 13,
              "duration": 2.5854166666666667
            },
            {
              "pitch": 51,
              "velocity": 77,
              "position": 13.020833333333334,
              "duration": 2.7333333333333334
            },
            {
              "pitch": 41,
              "velocity": 72,
              "position": 13.008333333333333,
              "duration": 2.745833333333333
            },
            {
              "pitch": 47,
              "velocity": 71,
              "position": 13.0125,
              "duration": 2.75
            }
          ]
        },
        "6": {
          "ctab": {
            "srcChannel": 6,
            "name": "BalladDX",
            "accType": "PHRASE2",
            "editable": false,
            "mutedNotes": [],
            "mutedChords": [
              "1+2+5",
              "sus4",
              "1+5",
              "1+8",
              "7aug",
              "Maj7aug",
              "7(#9)",
              "7(b13)",
              "7(b9)",
              "7(13)",
              "7#11",
              "7(9)",
              "7b5",
              "7sus4",
              "7th",
              "aug",
              "Maj6(9)",
              "Maj7(9)",
              "Maj(9)",
              "Maj7#11",
              "Maj7",
              "Maj6",
              "Maj"
            ],
            "autoStart": false,
            "sourceChordNote": 0,
            "sourceChordType": "min",
            "ctb2Low": null,
            "ctb2Main": {
              "ntr": "ROOT_TRANSPOSITION",
              "ntt": "BYPASS",
              "bassOn": false,
              "chordRootUpperLimit": 8,
              "noteLowLimit": 54,
              "noteHighLimit": 65,
              "rtr": "PITCH_SHIFT"
            },
            "ctb2High": null
          },
          "notes": [
            {
              "pitch": 74,
              "velocity": 69,
              "position": 0,
              "duration": 3.64375
            },
            {
              "pitch": 51,
              "velocity": 76,
              "position": 0.029166666666666667,
              "duration": 3.6145833333333335
            },
            {
              "pitch": 58,
              "velocity": 51,
              "position": 0.027083333333333334,
              "duration": 3.6166666666666667
            },
            {
              "pitch": 79,
              "velocity": 58,
              "position": 0.025,
              "duration": 3.61875
            },
            {
              "pitch": 36,
              "velocity": 30,
              "position": 0.014583333333333334,
              "duration": 3.629166666666667
            },
            {
              "pitch": 51,
              "velocity": 114,
              "position": 3.652083333333333,
              "duration": 2.6458333333333335
            },
            {
              "pitch": 79,
              "velocity": 114,
              "position": 3.660416666666667,
              "duration": 2.654166666666667
            },
            {
              "pitch": 41,
              "velocity": 30,
              "position": 3.6729166666666666,
              "duration": 2.64375
            },
            {
              "pitch": 57,
              "velocity": 114,
              "position": 3.6791666666666667,
              "duration": 2.660416666666667
            },
            {
              "pitch": 74,
              "velocity": 111,
              "position": 3.6770833333333335,
              "duration": 2.6770833333333335
            },
            {
              "pitch": 51,
              "velocity": 114,
              "position": 6.708333333333333,
              "duration": 0.11666666666666667
            },
            {
              "pitch": 57,
              "velocity": 114,
              "position": 6.720833333333333,
              "duration": 0.11458333333333333
            },
            {
              "pitch": 79,
              "velocity": 114,
              "position": 6.708333333333333,
              "duration": 0.17291666666666666
            },
            {
              "pitch": 74,
              "velocity": 107,
              "position": 6.716666666666667,
              "duration": 0.18958333333333333
            },
            {
              "pitch": 51,
              "velocity": 48,
              "position": 7.6625,
              "duration": 1.9791666666666667
            },
            {
              "pitch": 79,
              "velocity": 55,
              "position": 7.679166666666666,
              "duration": 1.9625
            },
            {
              "pitch": 84,
              "velocity": 44,
              "position": 7.666666666666667,
              "duration": 1.975
            },
            {
              "pitch": 46,
              "velocity": 30,
              "position": 7.666666666666667,
              "duration": 1.975
            },
            {
              "pitch": 56,
              "velocity": 37,
              "position": 7.6625,
              "duration": 1.9791666666666667
            },
            {
              "pitch": 77,
              "velocity": 86,
              "position": 9.65,
              "duration": 1.8
            },
            {
              "pitch": 39,
              "velocity": 30,
              "position": 9.679166666666667,
              "duration": 1.7708333333333333
            },
            {
              "pitch": 82,
              "velocity": 86,
              "position": 9.675,
              "duration": 1.7770833333333333
            },
            {
              "pitch": 50,
              "velocity": 86,
              "position": 9.672916666666667,
              "duration": 1.7791666666666666
            },
            {
              "pitch": 55,
              "velocity": 79,
              "position": 9.6625,
              "duration": 1.7895833333333333
            },
            {
              "pitch": 54,
              "velocity": 48,
              "position": 11.725,
              "duration": 0.20833333333333334
            },
            {
              "pitch": 77,
              "velocity": 55,
              "position": 11.7125,
              "duration": 0.22291666666666668
            },
            {
              "pitch": 80,
              "velocity": 69,
              "position": 11.710416666666667,
              "duration": 0.22708333333333333
            },
            {
              "pitch": 44,
              "velocity": 30,
              "position": 11.714583333333334,
              "duration": 0.23541666666666666
            },
            {
              "pitch": 60,
              "velocity": 72,
              "position": 11.714583333333334,
              "duration": 0.24375
            },
            {
              "pitch": 75,
              "velocity": 114,
              "position": 12.989583333333334,
              "duration": 2.6395833333333334
            },
            {
              "pitch": 53,
              "velocity": 114,
              "position": 12.997916666666667,
              "duration": 2.6458333333333335
            },
            {
              "pitch": 43,
              "velocity": 30,
              "position": 13.0125,
              "duration": 2.6375
            },
            {
              "pitch": 59,
              "velocity": 104,
              "position": 12.995833333333334,
              "duration": 2.65625
            },
            {
              "pitch": 79,
              "velocity": 114,
              "position": 13.016666666666667,
              "duration": 2.6479166666666667
            }
          ]
        },
        "8": {
          "ctab": {
            "srcChannel": 8,
            "name": "AddDrum",
            "accType": "SUBRHYTHM",
            "editable": false,
            "mutedNotes": [],
            "mutedChords": [],
            "autoStart": true,
            "sourceChordNote": 0,
            "sourceChordType": "Maj7",
            "ctb2Low": null,
            "ctb2Main": {
              "ntr": "ROOT_FIXED",
              "ntt": "BYPASS",
              "bassOn": false,
              "chordRootUpperLimit": 6,
              "noteLowLimit": 0,
              "noteHighLimit": 127,
              "rtr": "PITCH_SHIFT"
            },
            "ctb2High": null
          },
          "notes": []
        },
        "9": {
          "ctab": {
            "srcChannel": 9,
            "name": "MainDrum",
            "accType": "RHYTHM",
            "editable": false,
            "mutedNotes": [],
            "mutedChords": [],
            "autoStart": true,
            "sourceChordNote": 0,
            "sourceChordType": "Maj7",
            "ctb2Low": null,
            "ctb2Main": {
              "ntr": "ROOT_FIXED",
              "ntt": "BYPASS",
              "bassOn": false,
              "chordRootUpperLimit": 6,
              "noteLowLimit": 0,
              "noteHighLimit": 127,
              "rtr": "PITCH_SHIFT"
            },
            "ctb2High": null
          },
          "notes": [
            {
              "pitch": 33,
              "velocity": 70,
              "position": 0,
              "duration": 0.020833333333333332
            },
            {
              "pitch": 51,
              "velocity": 50,
              "position": 0,
              "duration": 0.020833333333333332
            },
            {
              "pitch": 44,
              "velocity": 30,
              "position": 0,
              "duration": 0.020833333333333332
            },
            {
              "pitch": 44,
              "velocity": 50,
              "position": 1,
              "duration": 0.020833333333333332
            },
            {
              "pitch": 51,
              "velocity": 50,
              "position": 1,
              "duration": 0.020833333333333332
            },
            {
              "pitch": 33,
              "velocity": 70,
              "position": 1.6666666666666667,
              "duration": 0.020833333333333332
            },
            {
              "pitch": 37,
              "velocity": 106,
              "position": 2,
              "duration": 0.020833333333333332
            },
            {
              "pitch": 51,
              "velocity": 50,
              "position": 2,
              "duration": 0.020833333333333332
            },
            {
              "pitch": 44,
              "velocity": 30,
              "position": 2,
              "duration": 0.020833333333333332
            },
            {
              "pitch": 44,
              "velocity": 50,
              "position": 3,
              "duration": 0.020833333333333332
            },
            {
              "pitch": 51,
              "velocity": 50,
              "position": 3,
              "duration": 0.020833333333333332
            },
            {
              "pitch": 33,
              "velocity": 70,
              "position": 3.6666666666666665,
              "duration": 0.020833333333333332
            },
            {
              "pitch": 44,
              "velocity": 30,
              "position": 4,
              "duration": 0.020833333333333332
            },
            {
              "pitch": 51,
              "velocity": 50,
              "position": 4,
              "duration": 0.020833333333333332
            },
            {
              "pitch": 44,
              "velocity": 50,
              "position": 5,
              "duration": 0.020833333333333332
            },
            {
              "pitch": 51,
              "velocity": 50,
              "position": 5,
              "duration": 0.020833333333333332
            },
            {
              "pitch": 33,
              "velocity": 40,
              "position": 5.666666666666667,
              "duration": 0.020833333333333332
            },
            {
              "pitch": 37,
              "velocity": 106,
              "position": 6,
              "duration": 0.020833333333333332
            },
            {
              "pitch": 51,
              "velocity": 50,
              "position": 6,
              "duration": 0.020833333333333332
            },
            {
              "pitch": 44,
              "velocity": 30,
              "position": 6,
              "duration": 0.020833333333333332
            },
            {
              "pitch": 33,
              "velocity": 40,
              "position": 6.666666666666667,
              "duration": 0.020833333333333332
            },
            {
              "pitch": 46,
              "velocity": 50,
              "position": 6.666666666666667,
              "duration": 0.020833333333333332
            },
            {
              "pitch": 44,
              "velocity": 50,
              "position": 7,
              "duration": 0.020833333333333332
            },
            {
              "pitch": 51,
              "velocity": 50,
              "position": 7,
              "duration": 0.020833333333333332
            },
            {
              "pitch": 33,
              "velocity": 70,
              "position": 7.666666666666667,
              "duration": 0.020833333333333332
            },
            {
              "pitch": 51,
              "velocity": 50,
              "position": 7.666666666666667,
              "duration": 0.020833333333333332
            },
            {
              "pitch": 44,
              "velocity": 30,
              "position": 8,
              "duration": 0.020833333333333332
            },
            {
              "pitch": 51,
              "velocity": 30,
              "position": 8.666666666666666,
              "duration": 0.020833333333333332
            },
            {
              "pitch": 44,
              "velocity": 50,
              "position": 9,
              "duration": 0.020833333333333332
            },
            {
              "pitch": 51,
              "velocity": 50,
              "position": 9,
              "duration": 0.020833333333333332
            },
            {
              "pitch": 33,
              "velocity": 70,
              "position": 9.666666666666666,
              "duration": 0.020833333333333332
            },
            {
              "pitch": 37,
              "velocity": 106,
              "position": 10,
              "duration": 0.020833333333333332
            },
            {
              "pitch": 51,
              "velocity": 50,
              "position": 10,
              "duration": 0.020833333333333332
            },
            {
              "pitch": 44,
              "velocity": 30,
              "position": 10,
              "duration": 0.020833333333333332
            },
            {
              "pitch": 44,
              "velocity": 50,
              "position": 11,
              "duration": 0.020833333333333332
            },
            {
              "pitch": 51,
              "velocity": 50,
              "position": 11,
              "duration": 0.020833333333333332
            },
            {
              "pitch": 33,
              "velocity": 70,
              "position": 11.666666666666666,
              "duration": 0.020833333333333332
            },
            {
              "pitch": 49,
              "velocity": 60,
              "position": 11.995833333333334,
              "duration": 0.004166666666666667
            },
            {
              "pitch": 44,
              "velocity": 30,
              "position": 12,
              "duration": 0.020833333333333332
            },
            {
              "pitch": 51,
              "velocity": 50,
              "position": 12,
              "duration": 0.020833333333333332
            },
            {
              "pitch": 33,
              "velocity": 70,
              "position": 13,
              "duration": 0.020833333333333332
            },
            {
              "pitch": 55,
              "velocity": 37,
              "position": 13,
              "duration": 0.020833333333333332
            },
            {
              "pitch": 44,
              "velocity": 50,
              "position": 13,
              "duration": 0.020833333333333332
            },
            {
              "pitch": 37,
              "velocity": 106,
              "position": 14,
              "duration": 0.020833333333333332
            },
            {
              "pitch": 51,
              "velocity": 50,
              "position": 14,
              "duration": 0.020833333333333332
            },
            {
              "pitch": 44,
              "velocity": 30,
              "position": 14,
              "duration": 0.020833333333333332
            },
            {
              "pitch": 45,
              "velocity": 74,
              "position": 14.666666666666666,
              "duration": 0.020833333333333332
            },
            {
              "pitch": 44,
              "velocity": 50,
              "position": 15,
              "duration": 0.020833333333333332
            },
            {
              "pitch": 51,
              "velocity": 50,
              "position": 15,
              "duration": 0.020833333333333332
            },
            {
              "pitch": 40,
              "velocity": 30,
              "position": 15.333333333333334,
              "duration": 0.020833333333333332
            },
            {
              "pitch": 40,
              "velocity": 74,
              "position": 15.666666666666666,
              "duration": 0.020833333333333332
            },
            {
              "pitch": 51,
              "velocity": 30,
              "position": 15.666666666666666,
              "duration": 0.020833333333333332
            },
            {
              "pitch": 49,
              "velocity": 60,
              "position": 15.989583333333334,
              "duration": 0.004166666666666667
            }
          ]
        },
        "10": {
          "ctab": {
            "srcChannel": 10,
            "name": "Bass",
            "accType": "BASS",
            "editable": false,
            "mutedNotes": [],
            "mutedChords": [
              "dim7",
              "dim",
              "minMaj7(9)",
              "minMaj7",
              "min7(11)",
              "min7(9)",
              "min(9)",
              "m7b5",
              "min7",
              "min6",
              "min"
            ],
            "autoStart": false,
            "sourceChordNote": 0,
            "sourceChordType": "Maj",
            "ctb2Low": null,
            "ctb2Main": {
              "ntr": "ROOT_TRANSPOSITION",
              "ntt": "BYPASS",
              "bassOn": false,
              "chordRootUpperLimit": 3,
              "noteLowLimit": 26,
              "noteHighLimit": 49,
              "rtr": "PITCH_SHIFT"
            },
            "ctb2High": null
          },
          "notes": [
            {
              "pitch": 24,
              "velocity": 60,
              "position": 0,
              "duration": 1.0833333333333333
            },
            {
              "pitch": 60,
              "velocity": 96,
              "position": 1.3333333333333333,
              "duration": 0.22916666666666666
            },
            {
              "pitch": 60,
              "velocity": 50,
              "position": 1.6666666666666667,
              "duration": 0.11041666666666666
            },
            {
              "pitch": 60,
              "velocity": 60,
              "position": 2,
              "duration": 1.3541666666666667
            },
            {
              "pitch": 19,
              "velocity": 60,
              "position": 3.6666666666666665,
              "duration": 2.8958333333333335
            },
            {
              "pitch": 67,
              "velocity": 70,
              "position": 6.666666666666667,
              "duration": 0.27291666666666664
            },
            {
              "pitch": 19,
              "velocity": 30,
              "position": 7,
              "duration": 0.18125
            },
            {
              "pitch": 26,
              "velocity": 95,
              "position": 7.333333333333333,
              "duration": 0.22291666666666668
            },
            {
              "pitch": 28,
              "velocity": 60,
              "position": 7.666666666666667,
              "duration": 1.65
            },
            {
              "pitch": 28,
              "velocity": 90,
              "position": 9.333333333333334,
              "duration": 0.22291666666666668
            },
            {
              "pitch": 21,
              "velocity": 60,
              "position": 9.666666666666666,
              "duration": 1.6583333333333334
            },
            {
              "pitch": 21,
              "velocity": 90,
              "position": 11.333333333333334,
              "duration": 0.22291666666666668
            },
            {
              "pitch": 26,
              "velocity": 60,
              "position": 11.666666666666666,
              "duration": 0.325
            },
            {
              "pitch": 26,
              "velocity": 90,
              "position": 12,
              "duration": 0.22291666666666668
            },
            {
              "pitch": 31,
              "velocity": 30,
              "position": 12.333333333333334,
              "duration": 0.13958333333333334
            },
            {
              "pitch": 31,
              "velocity": 20,
              "position": 12.666666666666666,
              "duration": 0.13958333333333334
            },
            {
              "pitch": 31,
              "velocity": 60,
              "position": 13,
              "duration": 2.6375
            }
          ]
        },
        "11": {
          "ctab": {
            "srcChannel": 11,
            "name": "E.Piano",
            "accType": "CHORD1",
            "editable": false,
            "mutedNotes": [],
            "mutedChords": [
              "dim7",
              "dim",
              "minMaj7(9)",
              "minMaj7",
              "min7(11)",
              "min7(9)",
              "min(9)",
              "m7b5",
              "min7",
              "min6",
              "min"
            ],
            "autoStart": false,
            "sourceChordNote": 0,
            "sourceChordType": "Maj",
            "ctb2Low": null,
            "ctb2Main": {
              "ntr": "ROOT_TRANSPOSITION",
              "ntt": "BYPASS",
              "bassOn": false,
              "chordRootUpperLimit": 8,
              "noteLowLimit": 54,
              "noteHighLimit": 65,
              "rtr": "PITCH_SHIFT"
            },
            "ctb2High": null
          },
          "notes": [
            {
              "pitch": 74,
              "velocity": 77,
              "position": 0,
              "duration": 3.64375
            },
            {
              "pitch": 52,
              "velocity": 79,
              "position": 0.029166666666666667,
              "duration": 3.6145833333333335
            },
            {
              "pitch": 59,
              "velocity": 72,
              "position": 0.027083333333333334,
              "duration": 3.6166666666666667
            },
            {
              "pitch": 79,
              "velocity": 74,
              "position": 0.025,
              "duration": 3.61875
            },
            {
              "pitch": 36,
              "velocity": 45,
              "position": 0.014583333333333334,
              "duration": 3.629166666666667
            },
            {
              "pitch": 53,
              "velocity": 90,
              "position": 3.652083333333333,
              "duration": 2.6458333333333335
            },
            {
              "pitch": 81,
              "velocity": 90,
              "position": 3.660416666666667,
              "duration": 2.654166666666667
            },
            {
              "pitch": 43,
              "velocity": 57,
              "position": 3.6729166666666666,
              "duration": 2.64375
            },
            {
              "pitch": 60,
              "velocity": 90,
              "position": 3.6791666666666667,
              "duration": 2.660416666666667
            },
            {
              "pitch": 74,
              "velocity": 89,
              "position": 3.6770833333333335,
              "duration": 2.6770833333333335
            },
            {
              "pitch": 53,
              "velocity": 90,
              "position": 6.708333333333333,
              "duration": 0.11666666666666667
            },
            {
              "pitch": 60,
              "velocity": 90,
              "position": 6.720833333333333,
              "duration": 0.11458333333333333
            },
            {
              "pitch": 81,
              "velocity": 90,
              "position": 6.708333333333333,
              "duration": 0.17291666666666666
            },
            {
              "pitch": 74,
              "velocity": 88,
              "position": 6.716666666666667,
              "duration": 0.18958333333333333
            },
            {
              "pitch": 50,
              "velocity": 71,
              "position": 7.6625,
              "duration": 1.9791666666666667
            },
            {
              "pitch": 83,
              "velocity": 73,
              "position": 7.679166666666666,
              "duration": 1.9625
            },
            {
              "pitch": 76,
              "velocity": 70,
              "position": 7.666666666666667,
              "duration": 1.975
            },
            {
              "pitch": 40,
              "velocity": 44,
              "position": 7.666666666666667,
              "duration": 1.975
            },
            {
              "pitch": 55,
              "velocity": 68,
              "position": 7.6625,
              "duration": 1.9791666666666667
            },
            {
              "pitch": 77,
              "velocity": 82,
              "position": 9.65,
              "duration": 1.8
            },
            {
              "pitch": 45,
              "velocity": 52,
              "position": 9.679166666666667,
              "duration": 1.7708333333333333
            },
            {
              "pitch": 82,
              "velocity": 82,
              "position": 9.675,
              "duration": 1.7770833333333333
            },
            {
              "pitch": 61,
              "velocity": 82,
              "position": 9.672916666666667,
              "duration": 1.7791666666666666
            },
            {
              "pitch": 55,
              "velocity": 80,
              "position": 9.6625,
              "duration": 1.7895833333333333
            },
            {
              "pitch": 53,
              "velocity": 71,
              "position": 11.725,
              "duration": 0.20833333333333334
            },
            {
              "pitch": 76,
              "velocity": 73,
              "position": 11.7125,
              "duration": 0.22291666666666668
            },
            {
              "pitch": 81,
              "velocity": 77,
              "position": 11.710416666666667,
              "duration": 0.22708333333333333
            },
            {
              "pitch": 38,
              "velocity": 50,
              "position": 11.714583333333334,
              "duration": 0.23541666666666666
            },
            {
              "pitch": 60,
              "velocity": 78,
              "position": 11.714583333333334,
              "duration": 0.24375
            },
            {
              "pitch": 76,
              "velocity": 90,
              "position": 12.989583333333334,
              "duration": 2.6395833333333334
            },
            {
              "pitch": 53,
              "velocity": 90,
              "position": 12.997916666666667,
              "duration": 2.6458333333333335
            },
            {
              "pitch": 43,
              "velocity": 57,
              "position": 13.0125,
              "duration": 2.6375
            },
            {
              "pitch": 60,
              "velocity": 87,
              "position": 12.995833333333334,
              "duration": 2.65625
            },
            {
              "pitch": 81,
              "velocity": 90,
              "position": 13.016666666666667,
              "duration": 2.6479166666666667
            }
          ]
        },
        "12": {
          "ctab": {
            "srcChannel": 12,
            "name": "JazzGtr",
            "accType": "CHORD2",
            "editable": false,
            "mutedNotes": [],
            "mutedChords": [
              "dim7",
              "dim",
              "minMaj7(9)",
              "minMaj7",
              "min7(11)",
              "min7(9)",
              "min(9)",
              "m7b5",
              "min7",
              "min6",
              "min"
            ],
            "autoStart": false,
            "sourceChordNote": 0,
            "sourceChordType": "Maj",
            "ctb2Low": null,
            "ctb2Main": {
              "ntr": "ROOT_TRANSPOSITION",
              "ntt": "BYPASS",
              "bassOn": false,
              "chordRootUpperLimit": 6,
              "noteLowLimit": 0,
              "noteHighLimit": 79,
              "rtr": "PITCH_SHIFT"
            },
            "ctb2High": null
          },
          "notes": [
            {
              "pitch": 55,
              "velocity": 41,
              "position": 0.7291666666666666,
              "duration": 0.44583333333333336
            },
            {
              "pitch": 96,
              "velocity": 76,
              "position": 0.7291666666666666,
              "duration": 0.44583333333333336
            },
            {
              "pitch": 62,
              "velocity": 85,
              "position": 0.75,
              "duration": 0.44583333333333336
            },
            {
              "pitch": 67,
              "velocity": 41,
              "position": 0.7708333333333334,
              "duration": 0.44583333333333336
            },
            {
              "pitch": 119,
              "velocity": 40,
              "position": 1.1,
              "duration": 0.22083333333333333
            },
            {
              "pitch": 122,
              "velocity": 40,
              "position": 1.1,
              "duration": 0.22083333333333333
            },
            {
              "pitch": 57,
              "velocity": 30,
              "position": 1.3958333333333333,
              "duration": 0.44583333333333336
            },
            {
              "pitch": 98,
              "velocity": 44,
              "position": 1.3958333333333333,
              "duration": 0.44583333333333336
            },
            {
              "pitch": 64,
              "velocity": 85,
              "position": 1.4166666666666667,
              "duration": 0.44583333333333336
            },
            {
              "pitch": 69,
              "velocity": 30,
              "position": 1.4375,
              "duration": 0.44583333333333336
            },
            {
              "pitch": 118,
              "velocity": 40,
              "position": 1.7666666666666666,
              "duration": 0.22083333333333333
            },
            {
              "pitch": 121,
              "velocity": 40,
              "position": 1.7666666666666666,
              "duration": 0.22083333333333333
            },
            {
              "pitch": 59,
              "velocity": 50,
              "position": 2.0458333333333334,
              "duration": 0.44583333333333336
            },
            {
              "pitch": 103,
              "velocity": 76,
              "position": 2.0458333333333334,
              "duration": 0.44583333333333336
            },
            {
              "pitch": 64,
              "velocity": 85,
              "position": 2.066666666666667,
              "duration": 0.44583333333333336
            },
            {
              "pitch": 71,
              "velocity": 50,
              "position": 2.0875,
              "duration": 0.44583333333333336
            },
            {
              "pitch": 117,
              "velocity": 40,
              "position": 2.433333333333333,
              "duration": 0.22083333333333333
            },
            {
              "pitch": 123,
              "velocity": 40,
              "position": 2.433333333333333,
              "duration": 0.22083333333333333
            },
            {
              "pitch": 60,
              "velocity": 30,
              "position": 2.7291666666666665,
              "duration": 0.44583333333333336
            },
            {
              "pitch": 102,
              "velocity": 44,
              "position": 2.7291666666666665,
              "duration": 0.44583333333333336
            },
            {
              "pitch": 67,
              "velocity": 85,
              "position": 2.75,
              "duration": 0.44583333333333336
            },
            {
              "pitch": 72,
              "velocity": 30,
              "position": 2.7708333333333335,
              "duration": 0.44583333333333336
            },
            {
              "pitch": 116,
              "velocity": 40,
              "position": 3.1,
              "duration": 0.22083333333333333
            },
            {
              "pitch": 124,
              "velocity": 40,
              "position": 3.1,
              "duration": 0.22083333333333333
            },
            {
              "pitch": 62,
              "velocity": 116,
              "position": 3.60625,
              "duration": 0.60625
            },
            {
              "pitch": 104,
              "velocity": 76,
              "position": 3.60625,
              "duration": 0.60625
            },
            {
              "pitch": 69,
              "velocity": 106,
              "position": 3.627083333333333,
              "duration": 0.60625
            },
            {
              "pitch": 74,
              "velocity": 116,
              "position": 3.6479166666666667,
              "duration": 0.60625
            },
            {
              "pitch": 115,
              "velocity": 40,
              "position": 4.308333333333334,
              "duration": 0.22083333333333333
            },
            {
              "pitch": 125,
              "velocity": 26,
              "position": 4.308333333333334,
              "duration": 0.22083333333333333
            },
            {
              "pitch": 60,
              "velocity": 30,
              "position": 4.625,
              "duration": 0.44583333333333336
            },
            {
              "pitch": 105,
              "velocity": 44,
              "position": 4.625,
              "duration": 0.44583333333333336
            },
            {
              "pitch": 67,
              "velocity": 85,
              "position": 4.645833333333333,
              "duration": 0.44583333333333336
            },
            {
              "pitch": 72,
              "velocity": 30,
              "position": 4.666666666666667,
              "duration": 0.44583333333333336
            },
            {
              "pitch": 123,
              "velocity": 26,
              "position": 5.1,
              "duration": 0.22083333333333333
            },
            {
              "pitch": 114,
              "velocity": 40,
              "position": 5.1,
              "duration": 0.22083333333333333
            },
            {
              "pitch": 59,
              "velocity": 41,
              "position": 5.633333333333334,
              "duration": 0.44583333333333336
            },
            {
              "pitch": 103,
              "velocity": 76,
              "position": 5.633333333333334,
              "duration": 0.44583333333333336
            },
            {
              "pitch": 64,
              "velocity": 85,
              "position": 5.654166666666667,
              "duration": 0.44583333333333336
            },
            {
              "pitch": 71,
              "velocity": 41,
              "position": 5.675,
              "duration": 0.44583333333333336
            },
            {
              "pitch": 122,
              "velocity": 26,
              "position": 6.1,
              "duration": 0.22083333333333333
            },
            {
              "pitch": 113,
              "velocity": 40,
              "position": 6.1,
              "duration": 0.22083333333333333
            },
            {
              "pitch": 57,
              "velocity": 30,
              "position": 6.635416666666667,
              "duration": 0.44583333333333336
            },
            {
              "pitch": 106,
              "velocity": 44,
              "position": 6.635416666666667,
              "duration": 0.44583333333333336
            },
            {
              "pitch": 62,
              "velocity": 85,
              "position": 6.65625,
              "duration": 0.44583333333333336
            },
            {
              "pitch": 69,
              "velocity": 30,
              "position": 6.677083333333333,
              "duration": 0.44583333333333336
            },
            {
              "pitch": 115,
              "velocity": 40,
              "position": 7.141666666666667,
              "duration": 0.22083333333333333
            },
            {
              "pitch": 121,
              "velocity": 26,
              "position": 7.141666666666667,
              "duration": 0.22083333333333333
            },
            {
              "pitch": 55,
              "velocity": 50,
              "position": 7.61875,
              "duration": 4.310416666666667
            },
            {
              "pitch": 98,
              "velocity": 76,
              "position": 7.61875,
              "duration": 4.310416666666667
            },
            {
              "pitch": 62,
              "velocity": 85,
              "position": 7.639583333333333,
              "duration": 4.310416666666667
            },
            {
              "pitch": 67,
              "velocity": 50,
              "position": 7.660416666666666,
              "duration": 4.310416666666667
            },
            {
              "pitch": 115,
              "velocity": 72,
              "position": 12,
              "duration": 0.22083333333333333
            },
            {
              "pitch": 121,
              "velocity": 79,
              "position": 12.666666666666666,
              "duration": 0.8875
            },
            {
              "pitch": 64,
              "velocity": 118,
              "position": 12.666666666666666,
              "duration": 1.03125
            },
            {
              "pitch": 69,
              "velocity": 40,
              "position": 13.333333333333334,
              "duration": 0.6520833333333333
            },
            {
              "pitch": 64,
              "velocity": 40,
              "position": 13.70625,
              "duration": 0.2833333333333333
            },
            {
              "pitch": 62,
              "velocity": 96,
              "position": 13.997916666666667,
              "duration": 1.8270833333333334
            },
            {
              "pitch": 67,
              "velocity": 51,
              "position": 13.997916666666667,
              "duration": 1.8270833333333334
            }
          ]
        },
        "13": {
          "ctab": {
            "srcChannel": 13,
            "name": "Strings",
            "accType": "PAD",
            "editable": false,
            "mutedNotes": [],
            "mutedChords": [
              "dim7",
              "dim",
              "minMaj7(9)",
              "minMaj7",
              "min7(11)",
              "min7(9)",
              "min(9)",
              "m7b5",
              "min7",
              "min6",
              "min"
            ],
            "autoStart": false,
            "sourceChordNote": 0,
            "sourceChordType": "Maj",
            "ctb2Low": null,
            "ctb2Main": {
              "ntr": "ROOT_TRANSPOSITION",
              "ntt": "BYPASS",
              "bassOn": false,
              "chordRootUpperLimit": 8,
              "noteLowLimit": 54,
              "noteHighLimit": 65,
              "rtr": "PITCH_SHIFT"
            },
            "ctb2High": null
          },
          "notes": [
            {
              "pitch": 74,
              "velocity": 114,
              "position": 0,
              "duration": 3.64375
            },
            {
              "pitch": 67,
              "velocity": 114,
              "position": 0.025,
              "duration": 3.61875
            },
            {
              "pitch": 59,
              "velocity": 114,
              "position": 0.027083333333333334,
              "duration": 3.6166666666666667
            },
            {
              "pitch": 52,
              "velocity": 112,
              "position": 0.029166666666666667,
              "duration": 3.6416666666666666
            },
            {
              "pitch": 69,
              "velocity": 114,
              "position": 3.660416666666667,
              "duration": 3.372916666666667
            },
            {
              "pitch": 60,
              "velocity": 114,
              "position": 3.6791666666666667,
              "duration": 3.3541666666666665
            },
            {
              "pitch": 53,
              "velocity": 114,
              "position": 3.6791666666666667,
              "duration": 3.3541666666666665
            },
            {
              "pitch": 74,
              "velocity": 114,
              "position": 3.6770833333333335,
              "duration": 3.35625
            },
            {
              "pitch": 50,
              "velocity": 114,
              "position": 7.6625,
              "duration": 1.9791666666666667
            },
            {
              "pitch": 71,
              "velocity": 114,
              "position": 7.679166666666666,
              "duration": 1.9625
            },
            {
              "pitch": 64,
              "velocity": 114,
              "position": 7.666666666666667,
              "duration": 1.975
            },
            {
              "pitch": 65,
              "velocity": 114,
              "position": 9.65,
              "duration": 1.6875
            },
            {
              "pitch": 70,
              "velocity": 114,
              "position": 9.675,
              "duration": 1.6645833333333333
            },
            {
              "pitch": 61,
              "velocity": 114,
              "position": 9.672916666666667,
              "duration": 1.6666666666666667
            },
            {
              "pitch": 55,
              "velocity": 114,
              "position": 7.6625,
              "duration": 3.6770833333333335
            },
            {
              "pitch": 53,
              "velocity": 103,
              "position": 11.6875,
              "duration": 1.125
            },
            {
              "pitch": 64,
              "velocity": 101,
              "position": 11.675,
              "duration": 1.1395833333333334
            },
            {
              "pitch": 69,
              "velocity": 103,
              "position": 11.672916666666667,
              "duration": 1.14375
            },
            {
              "pitch": 60,
              "velocity": 103,
              "position": 11.677083333333334,
              "duration": 1.1604166666666667
            },
            {
              "pitch": 64,
              "velocity": 112,
              "position": 12.989583333333334,
              "duration": 2.6395833333333334
            },
            {
              "pitch": 53,
              "velocity": 114,
              "position": 12.997916666666667,
              "duration": 2.6458333333333335
            },
            {
              "pitch": 60,
              "velocity": 114,
              "position": 12.995833333333334,
              "duration": 2.65625
            },
            {
              "pitch": 69,
              "velocity": 114,
              "position": 13.016666666666667,
              "duration": 2.6479166666666667
            }
          ]
        },
        "14": {
          "ctab": {
            "srcChannel": 14,
            "name": "Piano",
            "accType": "PHRASE1",
            "editable": false,
            "mutedNotes": [],
            "mutedChords": [
              "dim7",
              "dim",
              "minMaj7(9)",
              "minMaj7",
              "min7(11)",
              "min7(9)",
              "min(9)",
              "m7b5",
              "min7",
              "min6",
              "min"
            ],
            "autoStart": false,
            "sourceChordNote": 0,
            "sourceChordType": "Maj",
            "ctb2Low": null,
            "ctb2Main": {
              "ntr": "ROOT_TRANSPOSITION",
              "ntt": "BYPASS",
              "bassOn": false,
              "chordRootUpperLimit": 2,
              "noteLowLimit": 54,
              "noteHighLimit": 127,
              "rtr": "PITCH_SHIFT"
            },
            "ctb2High": null
          },
          "notes": [
            {
              "pitch": 79,
              "velocity": 85,
              "position": 0.7875,
              "duration": 0.2791666666666667
            },
            {
              "pitch": 67,
              "velocity": 70,
              "position": 0.75,
              "duration": 0.32708333333333334
            },
            {
              "pitch": 81,
              "velocity": 71,
              "position": 1.4270833333333333,
              "duration": 0.2833333333333333
            },
            {
              "pitch": 69,
              "velocity": 65,
              "position": 1.4083333333333334,
              "duration": 0.3125
            },
            {
              "pitch": 71,
              "velocity": 67,
              "position": 2.058333333333333,
              "duration": 0.3229166666666667
            },
            {
              "pitch": 83,
              "velocity": 72,
              "position": 2.095833333333333,
              "duration": 0.3
            },
            {
              "pitch": 72,
              "velocity": 70,
              "position": 2.73125,
              "duration": 0.25416666666666665
            },
            {
              "pitch": 84,
              "velocity": 83,
              "position": 2.7416666666666667,
              "duration": 0.25625
            },
            {
              "pitch": 86,
              "velocity": 85,
              "position": 3.6020833333333333,
              "duration": 0.38958333333333334
            },
            {
              "pitch": 74,
              "velocity": 68,
              "position": 3.5833333333333335,
              "duration": 0.4375
            },
            {
              "pitch": 84,
              "velocity": 89,
              "position": 4.625,
              "duration": 0.5041666666666667
            },
            {
              "pitch": 72,
              "velocity": 68,
              "position": 4.608333333333333,
              "duration": 0.5791666666666667
            },
            {
              "pitch": 83,
              "velocity": 71,
              "position": 5.6375,
              "duration": 0.42291666666666666
            },
            {
              "pitch": 71,
              "velocity": 68,
              "position": 5.641666666666667,
              "duration": 0.48541666666666666
            },
            {
              "pitch": 69,
              "velocity": 71,
              "position": 6.658333333333333,
              "duration": 0.4583333333333333
            },
            {
              "pitch": 81,
              "velocity": 77,
              "position": 6.675,
              "duration": 0.4583333333333333
            },
            {
              "pitch": 81,
              "velocity": 96,
              "position": 8.658333333333333,
              "duration": 0.5666666666666667
            },
            {
              "pitch": 86,
              "velocity": 75,
              "position": 8.6625,
              "duration": 0.7520833333333333
            },
            {
              "pitch": 82,
              "velocity": 46,
              "position": 9.308333333333334,
              "duration": 0.19375
            },
            {
              "pitch": 81,
              "velocity": 58,
              "position": 9.402083333333334,
              "duration": 0.175
            },
            {
              "pitch": 67,
              "velocity": 82,
              "position": 7.741666666666666,
              "duration": 1.89375
            },
            {
              "pitch": 59,
              "velocity": 62,
              "position": 7.745833333333334,
              "duration": 1.9479166666666667
            },
            {
              "pitch": 64,
              "velocity": 62,
              "position": 7.7375,
              "duration": 1.9645833333333333
            },
            {
              "pitch": 62,
              "velocity": 65,
              "position": 7.735416666666667,
              "duration": 1.9666666666666666
            },
            {
              "pitch": 79,
              "velocity": 70,
              "position": 9.55,
              "duration": 0.225
            },
            {
              "pitch": 76,
              "velocity": 89,
              "position": 9.79375,
              "duration": 0.17083333333333334
            },
            {
              "pitch": 79,
              "velocity": 83,
              "position": 9.972916666666666,
              "duration": 0.5895833333333333
            },
            {
              "pitch": 81,
              "velocity": 79,
              "position": 10.658333333333333,
              "duration": 0.16458333333333333
            },
            {
              "pitch": 60,
              "velocity": 68,
              "position": 11.685416666666667,
              "duration": 0.13333333333333333
            },
            {
              "pitch": 57,
              "velocity": 69,
              "position": 11.68125,
              "duration": 0.15416666666666667
            },
            {
              "pitch": 64,
              "velocity": 78,
              "position": 11.683333333333334,
              "duration": 0.16041666666666668
            },
            {
              "pitch": 53,
              "velocity": 71,
              "position": 11.677083333333334,
              "duration": 0.17916666666666667
            },
            {
              "pitch": 74,
              "velocity": 92,
              "position": 11.6875,
              "duration": 0.34791666666666665
            },
            {
              "pitch": 79,
              "velocity": 73,
              "position": 11.702083333333333,
              "duration": 0.5020833333333333
            },
            {
              "pitch": 75,
              "velocity": 50,
              "position": 12.072916666666666,
              "duration": 0.18541666666666667
            },
            {
              "pitch": 74,
              "velocity": 62,
              "position": 12.227083333333333,
              "duration": 0.15625
            },
            {
              "pitch": 72,
              "velocity": 50,
              "position": 12.391666666666667,
              "duration": 0.19583333333333333
            },
            {
              "pitch": 69,
              "velocity": 82,
              "position": 12.677083333333334,
              "duration": 0.19375
            },
            {
              "pitch": 67,
              "velocity": 92,
              "position": 13,
              "duration": 2.5854166666666667
            },
            {
              "pitch": 53,
              "velocity": 72,
              "position": 13.008333333333333,
              "duration": 2.745833333333333
            },
            {
              "pitch": 64,
              "velocity": 77,
              "position": 13.020833333333334,
              "duration": 2.7333333333333334
            },
            {
              "pitch": 60,
              "velocity": 64,
              "position": 13.027083333333334,
              "duration": 2.73125
            },
            {
              "pitch": 57,
              "velocity": 71,
              "position": 13.0125,
              "duration": 2.75
            }
          ]
        },
        "15": {
          "ctab": {
            "srcChannel": 15,
            "name": "BalladDX",
            "accType": "PHRASE2",
            "editable": false,
            "mutedNotes": [],
            "mutedChords": [
              "dim7",
              "dim",
              "minMaj7(9)",
              "minMaj7",
              "min7(11)",
              "min7(9)",
              "min(9)",
              "m7b5",
              "min7",
              "min6",
              "min"
            ],
            "autoStart": false,
            "sourceChordNote": 0,
            "sourceChordType": "Maj",
            "ctb2Low": null,
            "ctb2Main": {
              "ntr": "ROOT_TRANSPOSITION",
              "ntt": "BYPASS",
              "bassOn": false,
              "chordRootUpperLimit": 8,
              "noteLowLimit": 54,
              "noteHighLimit": 65,
              "rtr": "PITCH_SHIFT"
            },
            "ctb2High": null
          },
          "notes": [
            {
              "pitch": 74,
              "velocity": 69,
              "position": 0,
              "duration": 3.64375
            },
            {
              "pitch": 52,
              "velocity": 76,
              "position": 0.029166666666666667,
              "duration": 3.6145833333333335
            },
            {
              "pitch": 59,
              "velocity": 51,
              "position": 0.027083333333333334,
              "duration": 3.6166666666666667
            },
            {
              "pitch": 79,
              "velocity": 58,
              "position": 0.025,
              "duration": 3.61875
            },
            {
              "pitch": 36,
              "velocity": 30,
              "position": 0.014583333333333334,
              "duration": 3.629166666666667
            },
            {
              "pitch": 53,
              "velocity": 114,
              "position": 3.652083333333333,
              "duration": 2.6458333333333335
            },
            {
              "pitch": 81,
              "velocity": 114,
              "position": 3.660416666666667,
              "duration": 2.654166666666667
            },
            {
              "pitch": 43,
              "velocity": 30,
              "position": 3.6729166666666666,
              "duration": 2.64375
            },
            {
              "pitch": 60,
              "velocity": 114,
              "position": 3.6791666666666667,
              "duration": 2.660416666666667
            },
            {
              "pitch": 74,
              "velocity": 111,
              "position": 3.6770833333333335,
              "duration": 2.6770833333333335
            },
            {
              "pitch": 53,
              "velocity": 114,
              "position": 6.708333333333333,
              "duration": 0.11666666666666667
            },
            {
              "pitch": 60,
              "velocity": 114,
              "position": 6.720833333333333,
              "duration": 0.11458333333333333
            },
            {
              "pitch": 81,
              "velocity": 114,
              "position": 6.708333333333333,
              "duration": 0.17291666666666666
            },
            {
              "pitch": 74,
              "velocity": 107,
              "position": 6.716666666666667,
              "duration": 0.18958333333333333
            },
            {
              "pitch": 50,
              "velocity": 48,
              "position": 7.6625,
              "duration": 1.9791666666666667
            },
            {
              "pitch": 83,
              "velocity": 55,
              "position": 7.679166666666666,
              "duration": 1.9625
            },
            {
              "pitch": 76,
              "velocity": 44,
              "position": 7.666666666666667,
              "duration": 1.975
            },
            {
              "pitch": 40,
              "velocity": 30,
              "position": 7.666666666666667,
              "duration": 1.975
            },
            {
              "pitch": 55,
              "velocity": 37,
              "position": 7.6625,
              "duration": 1.9791666666666667
            },
            {
              "pitch": 77,
              "velocity": 86,
              "position": 9.65,
              "duration": 1.8
            },
            {
              "pitch": 45,
              "velocity": 30,
              "position": 9.679166666666667,
              "duration": 1.7708333333333333
            },
            {
              "pitch": 82,
              "velocity": 86,
              "position": 9.675,
              "duration": 1.7770833333333333
            },
            {
              "pitch": 61,
              "velocity": 86,
              "position": 9.672916666666667,
              "duration": 1.7791666666666666
            },
            {
              "pitch": 55,
              "velocity": 79,
              "position": 9.6625,
              "duration": 1.7895833333333333
            },
            {
              "pitch": 53,
              "velocity": 48,
              "position": 11.725,
              "duration": 0.20833333333333334
            },
            {
              "pitch": 76,
              "velocity": 55,
              "position": 11.7125,
              "duration": 0.22291666666666668
            },
            {
              "pitch": 81,
              "velocity": 69,
              "position": 11.710416666666667,
              "duration": 0.22708333333333333
            },
            {
              "pitch": 38,
              "velocity": 30,
              "position": 11.714583333333334,
              "duration": 0.23541666666666666
            },
            {
              "pitch": 60,
              "velocity": 72,
              "position": 11.714583333333334,
              "duration": 0.24375
            },
            {
              "pitch": 76,
              "velocity": 114,
              "position": 12.989583333333334,
              "duration": 2.6395833333333334
            },
            {
              "pitch": 53,
              "velocity": 114,
              "position": 12.997916666666667,
              "duration": 2.6458333333333335
            },
            {
              "pitch": 43,
              "velocity": 30,
              "position": 13.0125,
              "duration": 2.6375
            },
            {
              "pitch": 60,
              "velocity": 104,
              "position": 12.995833333333334,
              "duration": 2.65625
            },
            {
              "pitch": 81,
              "velocity": 114,
              "position": 13.016666666666667,
              "duration": 2.6479166666666667
            }
          ]
        }
      }
    },
    "Ending_B": {
      "type": "Ending_B",
      "sizeInBeats": 16,
      "channels": {
        "1": {
          "ctab": {
            "srcChannel": 1,
            "name": "Bass",
            "accType": "BASS",
            "editable": false,
            "mutedNotes": [],
            "mutedChords": [
              "1+2+5",
              "sus4",
              "1+5",
              "1+8",
              "7aug",
              "Maj7aug",
              "7(#9)",
              "7(b13)",
              "7(b9)",
              "7(13)",
              "7#11",
              "7(9)",
              "7b5",
              "7sus4",
              "7th",
              "aug",
              "Maj6(9)",
              "Maj7(9)",
              "Maj(9)",
              "Maj7#11",
              "Maj7",
              "Maj6",
              "Maj"
            ],
            "autoStart": false,
            "sourceChordNote": 0,
            "sourceChordType": "min",
            "ctb2Low": null,
            "ctb2Main": {
              "ntr": "ROOT_TRANSPOSITION",
              "ntt": "BYPASS",
              "bassOn": false,
              "chordRootUpperLimit": 3,
              "noteLowLimit": 26,
              "noteHighLimit": 49,
              "rtr": "PITCH_SHIFT"
            },
            "ctb2High": null
          },
          "notes": [
            {
              "pitch": 24,
              "velocity": 60,
              "position": 0,
              "duration": 1.0833333333333333
            },
            {
              "pitch": 60,
              "velocity": 96,
              "position": 1.3333333333333333,
              "duration": 0.22916666666666666
            },
            {
              "pitch": 60,
              "velocity": 50,
              "position": 1.6666666666666667,
              "duration": 0.11041666666666666
            },
            {
              "pitch": 60,
              "velocity": 60,
              "position": 2,
              "duration": 1.3541666666666667
            },
            {
              "pitch": 17,
              "velocity": 60,
              "position": 3.6666666666666665,
              "duration": 1.5625
            },
            {
              "pitch": 67,
              "velocity": 70,
              "position": 5.666666666666667,
              "duration": 0.325
            },
            {
              "pitch": 19,
              "velocity": 81,
              "position": 6,
              "duration": 0.22291666666666668
            },
            {
              "pitch": 19,
              "velocity": 54,
              "position": 6.666666666666667,
              "duration": 0.325
            },
            {
              "pitch": 19,
              "velocity": 81,
              "position": 7,
              "duration": 0.22291666666666668
            },
            {
              "pitch": 24,
              "velocity": 60,
              "position": 7.666666666666667,
              "duration": 7.333333333333333
            }
          ]
        },
        "2": {
          "ctab": {
            "srcChannel": 2,
            "name": "E.Piano",
            "accType": "CHORD1",
            "editable": false,
            "mutedNotes": [],
            "mutedChords": [
              "1+2+5",
              "sus4",
              "1+5",
              "1+8",
              "7aug",
              "Maj7aug",
              "7(#9)",
              "7(b13)",
              "7(b9)",
              "7(13)",
              "7#11",
              "7(9)",
              "7b5",
              "7sus4",
              "7th",
              "aug",
              "Maj6(9)",
              "Maj7(9)",
              "Maj(9)",
              "Maj7#11",
              "Maj7",
              "Maj6",
              "Maj"
            ],
            "autoStart": false,
            "sourceChordNote": 0,
            "sourceChordType": "min",
            "ctb2Low": null,
            "ctb2Main": {
              "ntr": "ROOT_TRANSPOSITION",
              "ntt": "BYPASS",
              "bassOn": false,
              "chordRootUpperLimit": 8,
              "noteLowLimit": 54,
              "noteHighLimit": 65,
              "rtr": "PITCH_SHIFT"
            },
            "ctb2High": null
          },
          "notes": [
            {
              "pitch": 74,
              "velocity": 77,
              "position": 0,
              "duration": 3.64375
            },
            {
              "pitch": 51,
              "velocity": 79,
              "position": 0.029166666666666667,
              "duration": 3.6145833333333335
            },
            {
              "pitch": 58,
              "velocity": 72,
              "position": 0.027083333333333334,
              "duration": 3.6166666666666667
            },
            {
              "pitch": 79,
              "velocity": 74,
              "position": 0.025,
              "duration": 3.61875
            },
            {
              "pitch": 36,
              "velocity": 45,
              "position": 0.014583333333333334,
              "duration": 3.629166666666667
            },
            {
              "pitch": 51,
              "velocity": 90,
              "position": 3.652083333333333,
              "duration": 1.6458333333333333
            },
            {
              "pitch": 79,
              "velocity": 90,
              "position": 3.660416666666667,
              "duration": 1.6541666666666666
            },
            {
              "pitch": 41,
              "velocity": 57,
              "position": 3.6729166666666666,
              "duration": 1.64375
            },
            {
              "pitch": 57,
              "velocity": 90,
              "position": 3.6791666666666667,
              "duration": 1.6604166666666667
            },
            {
              "pitch": 74,
              "velocity": 89,
              "position": 3.6770833333333335,
              "duration": 1.6770833333333333
            },
            {
              "pitch": 43,
              "velocity": 74,
              "position": 5.708333333333333,
              "duration": 0.2833333333333333
            },
            {
              "pitch": 53,
              "velocity": 90,
              "position": 5.708333333333333,
              "duration": 0.2833333333333333
            },
            {
              "pitch": 59,
              "velocity": 90,
              "position": 5.720833333333333,
              "duration": 0.28125
            },
            {
              "pitch": 82,
              "velocity": 90,
              "position": 5.708333333333333,
              "duration": 0.33958333333333335
            },
            {
              "pitch": 75,
              "velocity": 88,
              "position": 5.716666666666667,
              "duration": 0.35625
            },
            {
              "pitch": 43,
              "velocity": 74,
              "position": 6.708333333333333,
              "duration": 0.2833333333333333
            },
            {
              "pitch": 53,
              "velocity": 90,
              "position": 6.708333333333333,
              "duration": 0.2833333333333333
            },
            {
              "pitch": 59,
              "velocity": 90,
              "position": 6.720833333333333,
              "duration": 0.28125
            },
            {
              "pitch": 80,
              "velocity": 90,
              "position": 6.708333333333333,
              "duration": 0.33958333333333335
            },
            {
              "pitch": 75,
              "velocity": 88,
              "position": 6.716666666666667,
              "duration": 0.35625
            },
            {
              "pitch": 79,
              "velocity": 73,
              "position": 7.679166666666666,
              "duration": 7.31875
            },
            {
              "pitch": 58,
              "velocity": 68,
              "position": 7.6625,
              "duration": 7.3375
            },
            {
              "pitch": 74,
              "velocity": 70,
              "position": 7.666666666666667,
              "duration": 7.333333333333333
            },
            {
              "pitch": 36,
              "velocity": 44,
              "position": 7.666666666666667,
              "duration": 7.333333333333333
            },
            {
              "pitch": 51,
              "velocity": 71,
              "position": 7.6625,
              "duration": 7.3375
            }
          ]
        },
        "3": {
          "ctab": {
            "srcChannel": 3,
            "name": "JazzGtr",
            "accType": "CHORD2",
            "editable": false,
            "mutedNotes": [],
            "mutedChords": [
              "1+2+5",
              "sus4",
              "1+5",
              "1+8",
              "7aug",
              "Maj7aug",
              "7(#9)",
              "7(b13)",
              "7(b9)",
              "7(13)",
              "7#11",
              "7(9)",
              "7b5",
              "7sus4",
              "7th",
              "aug",
              "Maj6(9)",
              "Maj7(9)",
              "Maj(9)",
              "Maj7#11",
              "Maj7",
              "Maj6",
              "Maj"
            ],
            "autoStart": false,
            "sourceChordNote": 0,
            "sourceChordType": "min",
            "ctb2Low": null,
            "ctb2Main": {
              "ntr": "ROOT_TRANSPOSITION",
              "ntt": "BYPASS",
              "bassOn": false,
              "chordRootUpperLimit": 3,
              "noteLowLimit": 0,
              "noteHighLimit": 79,
              "rtr": "PITCH_SHIFT"
            },
            "ctb2High": null
          },
          "notes": [
            {
              "pitch": 58,
              "velocity": 41,
              "position": 0.7291666666666666,
              "duration": 0.44583333333333336
            },
            {
              "pitch": 96,
              "velocity": 76,
              "position": 0.7291666666666666,
              "duration": 0.44583333333333336
            },
            {
              "pitch": 65,
              "velocity": 85,
              "position": 0.75,
              "duration": 0.44583333333333336
            },
            {
              "pitch": 70,
              "velocity": 41,
              "position": 0.7708333333333334,
              "duration": 0.44583333333333336
            },
            {
              "pitch": 119,
              "velocity": 40,
              "position": 1.1,
              "duration": 0.22083333333333333
            },
            {
              "pitch": 122,
              "velocity": 40,
              "position": 1.1,
              "duration": 0.22083333333333333
            },
            {
              "pitch": 60,
              "velocity": 30,
              "position": 1.3958333333333333,
              "duration": 0.44583333333333336
            },
            {
              "pitch": 98,
              "velocity": 44,
              "position": 1.3958333333333333,
              "duration": 0.44583333333333336
            },
            {
              "pitch": 67,
              "velocity": 85,
              "position": 1.4166666666666667,
              "duration": 0.44583333333333336
            },
            {
              "pitch": 72,
              "velocity": 30,
              "position": 1.4375,
              "duration": 0.44583333333333336
            },
            {
              "pitch": 118,
              "velocity": 40,
              "position": 1.7666666666666666,
              "duration": 0.22083333333333333
            },
            {
              "pitch": 121,
              "velocity": 40,
              "position": 1.7666666666666666,
              "duration": 0.22083333333333333
            },
            {
              "pitch": 62,
              "velocity": 50,
              "position": 2.0458333333333334,
              "duration": 0.44583333333333336
            },
            {
              "pitch": 103,
              "velocity": 76,
              "position": 2.0458333333333334,
              "duration": 0.44583333333333336
            },
            {
              "pitch": 67,
              "velocity": 85,
              "position": 2.066666666666667,
              "duration": 0.44583333333333336
            },
            {
              "pitch": 74,
              "velocity": 50,
              "position": 2.0875,
              "duration": 0.44583333333333336
            },
            {
              "pitch": 117,
              "velocity": 40,
              "position": 2.433333333333333,
              "duration": 0.22083333333333333
            },
            {
              "pitch": 123,
              "velocity": 40,
              "position": 2.433333333333333,
              "duration": 0.22083333333333333
            },
            {
              "pitch": 63,
              "velocity": 30,
              "position": 2.7291666666666665,
              "duration": 0.44583333333333336
            },
            {
              "pitch": 102,
              "velocity": 44,
              "position": 2.7291666666666665,
              "duration": 0.44583333333333336
            },
            {
              "pitch": 70,
              "velocity": 85,
              "position": 2.75,
              "duration": 0.44583333333333336
            },
            {
              "pitch": 75,
              "velocity": 30,
              "position": 2.7708333333333335,
              "duration": 0.44583333333333336
            },
            {
              "pitch": 116,
              "velocity": 40,
              "position": 3.1,
              "duration": 0.22083333333333333
            },
            {
              "pitch": 124,
              "velocity": 40,
              "position": 3.1,
              "duration": 0.22083333333333333
            },
            {
              "pitch": 62,
              "velocity": 116,
              "position": 3.60625,
              "duration": 0.60625
            },
            {
              "pitch": 104,
              "velocity": 76,
              "position": 3.60625,
              "duration": 0.60625
            },
            {
              "pitch": 69,
              "velocity": 106,
              "position": 3.627083333333333,
              "duration": 0.60625
            },
            {
              "pitch": 74,
              "velocity": 116,
              "position": 3.6479166666666667,
              "duration": 0.60625
            },
            {
              "pitch": 115,
              "velocity": 40,
              "position": 4.308333333333334,
              "duration": 0.22083333333333333
            },
            {
              "pitch": 125,
              "velocity": 26,
              "position": 4.308333333333334,
              "duration": 0.22083333333333333
            },
            {
              "pitch": 60,
              "velocity": 30,
              "position": 4.625,
              "duration": 0.44583333333333336
            },
            {
              "pitch": 105,
              "velocity": 44,
              "position": 4.625,
              "duration": 0.44583333333333336
            },
            {
              "pitch": 67,
              "velocity": 85,
              "position": 4.645833333333333,
              "duration": 0.44583333333333336
            },
            {
              "pitch": 72,
              "velocity": 30,
              "position": 4.666666666666667,
              "duration": 0.44583333333333336
            },
            {
              "pitch": 123,
              "velocity": 26,
              "position": 5.1,
              "duration": 0.22083333333333333
            },
            {
              "pitch": 114,
              "velocity": 40,
              "position": 5.1,
              "duration": 0.22083333333333333
            },
            {
              "pitch": 58,
              "velocity": 41,
              "position": 5.633333333333334,
              "duration": 0.44583333333333336
            },
            {
              "pitch": 103,
              "velocity": 76,
              "position": 5.633333333333334,
              "duration": 0.44583333333333336
            },
            {
              "pitch": 63,
              "velocity": 85,
              "position": 5.654166666666667,
              "duration": 0.44583333333333336
            },
            {
              "pitch": 70,
              "velocity": 41,
              "position": 5.675,
              "duration": 0.44583333333333336
            },
            {
              "pitch": 122,
              "velocity": 26,
              "position": 6.1,
              "duration": 0.22083333333333333
            },
            {
              "pitch": 113,
              "velocity": 40,
              "position": 6.1,
              "duration": 0.22083333333333333
            },
            {
              "pitch": 56,
              "velocity": 30,
              "position": 6.635416666666667,
              "duration": 0.44583333333333336
            },
            {
              "pitch": 106,
              "velocity": 44,
              "position": 6.635416666666667,
              "duration": 0.44583333333333336
            },
            {
              "pitch": 61,
              "velocity": 85,
              "position": 6.65625,
              "duration": 0.44583333333333336
            },
            {
              "pitch": 68,
              "velocity": 30,
              "position": 6.677083333333333,
              "duration": 0.44583333333333336
            },
            {
              "pitch": 115,
              "velocity": 40,
              "position": 7.141666666666667,
              "duration": 0.22083333333333333
            },
            {
              "pitch": 121,
              "velocity": 26,
              "position": 7.141666666666667,
              "duration": 0.22083333333333333
            },
            {
              "pitch": 98,
              "velocity": 76,
              "position": 7.61875,
              "duration": 0.3104166666666667
            },
            {
              "pitch": 67,
              "velocity": 50,
              "position": 7.660416666666666,
              "duration": 7.339583333333334
            },
            {
              "pitch": 62,
              "velocity": 85,
              "position": 7.639583333333333,
              "duration": 7.360416666666667
            },
            {
              "pitch": 55,
              "velocity": 50,
              "position": 7.61875,
              "duration": 7.38125
            }
          ]
        },
        "4": {
          "ctab": {
            "srcChannel": 4,
            "name": "Strings",
            "accType": "PAD",
            "editable": false,
            "mutedNotes": [],
            "mutedChords": [
              "1+2+5",
              "sus4",
              "1+5",
              "1+8",
              "7aug",
              "Maj7aug",
              "7(#9)",
              "7(b13)",
              "7(b9)",
              "7(13)",
              "7#11",
              "7(9)",
              "7b5",
              "7sus4",
              "7th",
              "aug",
              "Maj6(9)",
              "Maj7(9)",
              "Maj(9)",
              "Maj7#11",
              "Maj7",
              "Maj6",
              "Maj"
            ],
            "autoStart": false,
            "sourceChordNote": 0,
            "sourceChordType": "min",
            "ctb2Low": null,
            "ctb2Main": {
              "ntr": "ROOT_TRANSPOSITION",
              "ntt": "BYPASS",
              "bassOn": false,
              "chordRootUpperLimit": 8,
              "noteLowLimit": 54,
              "noteHighLimit": 65,
              "rtr": "PITCH_SHIFT"
            },
            "ctb2High": null
          },
          "notes": [
            {
              "pitch": 74,
              "velocity": 114,
              "position": 0,
              "duration": 3.64375
            },
            {
              "pitch": 79,
              "velocity": 114,
              "position": 0.025,
              "duration": 3.61875
            },
            {
              "pitch": 58,
              "velocity": 114,
              "position": 0.027083333333333334,
              "duration": 3.6166666666666667
            },
            {
              "pitch": 51,
              "velocity": 112,
              "position": 0.029166666666666667,
              "duration": 3.6416666666666666
            },
            {
              "pitch": 79,
              "velocity": 114,
              "position": 3.660416666666667,
              "duration": 1.9145833333333333
            },
            {
              "pitch": 57,
              "velocity": 114,
              "position": 3.6791666666666667,
              "duration": 1.8958333333333333
            },
            {
              "pitch": 51,
              "velocity": 114,
              "position": 3.6791666666666667,
              "duration": 1.8958333333333333
            },
            {
              "pitch": 74,
              "velocity": 114,
              "position": 3.6770833333333335,
              "duration": 1.8979166666666667
            },
            {
              "pitch": 53,
              "velocity": 85,
              "position": 5.708333333333333,
              "duration": 0.6895833333333333
            },
            {
              "pitch": 82,
              "velocity": 85,
              "position": 5.708333333333333,
              "duration": 0.6895833333333333
            },
            {
              "pitch": 75,
              "velocity": 85,
              "position": 5.716666666666667,
              "duration": 0.6895833333333333
            },
            {
              "pitch": 59,
              "velocity": 85,
              "position": 5.720833333333333,
              "duration": 0.6895833333333333
            },
            {
              "pitch": 53,
              "velocity": 85,
              "position": 6.708333333333333,
              "duration": 0.6895833333333333
            },
            {
              "pitch": 80,
              "velocity": 85,
              "position": 6.708333333333333,
              "duration": 0.6895833333333333
            },
            {
              "pitch": 75,
              "velocity": 85,
              "position": 6.716666666666667,
              "duration": 0.6895833333333333
            },
            {
              "pitch": 59,
              "velocity": 85,
              "position": 6.720833333333333,
              "duration": 0.6895833333333333
            },
            {
              "pitch": 79,
              "velocity": 114,
              "position": 7.679166666666666,
              "duration": 7.31875
            },
            {
              "pitch": 58,
              "velocity": 114,
              "position": 7.6625,
              "duration": 7.3375
            },
            {
              "pitch": 72,
              "velocity": 111,
              "position": 7.666666666666667,
              "duration": 7.333333333333333
            },
            {
              "pitch": 51,
              "velocity": 114,
              "position": 7.6625,
              "duration": 7.3375
            }
          ]
        },
        "5": {
          "ctab": {
            "srcChannel": 5,
            "name": "Piano",
            "accType": "PHRASE1",
            "editable": false,
            "mutedNotes": [],
            "mutedChords": [
              "1+2+5",
              "sus4",
              "1+5",
              "1+8",
              "7aug",
              "Maj7aug",
              "7(#9)",
              "7(b13)",
              "7(b9)",
              "7(13)",
              "7#11",
              "7(9)",
              "7b5",
              "7sus4",
              "7th",
              "aug",
              "Maj6(9)",
              "Maj7(9)",
              "Maj(9)",
              "Maj7#11",
              "Maj7",
              "Maj6",
              "Maj"
            ],
            "autoStart": false,
            "sourceChordNote": 0,
            "sourceChordType": "min",
            "ctb2Low": null,
            "ctb2Main": {
              "ntr": "ROOT_TRANSPOSITION",
              "ntt": "BYPASS",
              "bassOn": false,
              "chordRootUpperLimit": 11,
              "noteLowLimit": 54,
              "noteHighLimit": 127,
              "rtr": "PITCH_SHIFT"
            },
            "ctb2High": null
          },
          "notes": [
            {
              "pitch": 70,
              "velocity": 85,
              "position": 0.7875,
              "duration": 0.2791666666666667
            },
            {
              "pitch": 58,
              "velocity": 70,
              "position": 0.75,
              "duration": 0.32708333333333334
            },
            {
              "pitch": 72,
              "velocity": 71,
              "position": 1.4270833333333333,
              "duration": 0.2833333333333333
            },
            {
              "pitch": 60,
              "velocity": 65,
              "position": 1.4083333333333334,
              "duration": 0.3125
            },
            {
              "pitch": 62,
              "velocity": 67,
              "position": 2.058333333333333,
              "duration": 0.3229166666666667
            },
            {
              "pitch": 74,
              "velocity": 72,
              "position": 2.095833333333333,
              "duration": 0.3
            },
            {
              "pitch": 63,
              "velocity": 70,
              "position": 2.73125,
              "duration": 0.25416666666666665
            },
            {
              "pitch": 75,
              "velocity": 83,
              "position": 2.7416666666666667,
              "duration": 0.25625
            },
            {
              "pitch": 74,
              "velocity": 85,
              "position": 3.6020833333333333,
              "duration": 0.38958333333333334
            },
            {
              "pitch": 62,
              "velocity": 68,
              "position": 3.5833333333333335,
              "duration": 0.4375
            },
            {
              "pitch": 72,
              "velocity": 89,
              "position": 4.625,
              "duration": 0.5041666666666667
            },
            {
              "pitch": 60,
              "velocity": 68,
              "position": 4.608333333333333,
              "duration": 0.5791666666666667
            },
            {
              "pitch": 70,
              "velocity": 71,
              "position": 5.6375,
              "duration": 0.42291666666666666
            },
            {
              "pitch": 58,
              "velocity": 68,
              "position": 5.641666666666667,
              "duration": 0.48541666666666666
            },
            {
              "pitch": 56,
              "velocity": 71,
              "position": 6.658333333333333,
              "duration": 0.4583333333333333
            },
            {
              "pitch": 68,
              "velocity": 77,
              "position": 6.675,
              "duration": 0.4583333333333333
            },
            {
              "pitch": 55,
              "velocity": 65,
              "position": 7.735416666666667,
              "duration": 7.254166666666666
            },
            {
              "pitch": 62,
              "velocity": 62,
              "position": 7.745833333333334,
              "duration": 7.24375
            },
            {
              "pitch": 67,
              "velocity": 82,
              "position": 7.741666666666666,
              "duration": 7.247916666666667
            },
            {
              "pitch": 63,
              "velocity": 82,
              "position": 7.741666666666666,
              "duration": 7.247916666666667
            },
            {
              "pitch": 58,
              "velocity": 62,
              "position": 7.7375,
              "duration": 7.252083333333333
            }
          ]
        },
        "6": {
          "ctab": {
            "srcChannel": 6,
            "name": "BalladDX",
            "accType": "PHRASE2",
            "editable": false,
            "mutedNotes": [],
            "mutedChords": [
              "1+2+5",
              "sus4",
              "1+5",
              "1+8",
              "7aug",
              "Maj7aug",
              "7(#9)",
              "7(b13)",
              "7(b9)",
              "7(13)",
              "7#11",
              "7(9)",
              "7b5",
              "7sus4",
              "7th",
              "aug",
              "Maj6(9)",
              "Maj7(9)",
              "Maj(9)",
              "Maj7#11",
              "Maj7",
              "Maj6",
              "Maj"
            ],
            "autoStart": false,
            "sourceChordNote": 0,
            "sourceChordType": "min",
            "ctb2Low": null,
            "ctb2Main": {
              "ntr": "ROOT_TRANSPOSITION",
              "ntt": "BYPASS",
              "bassOn": false,
              "chordRootUpperLimit": 8,
              "noteLowLimit": 54,
              "noteHighLimit": 65,
              "rtr": "PITCH_SHIFT"
            },
            "ctb2High": null
          },
          "notes": [
            {
              "pitch": 74,
              "velocity": 69,
              "position": 0,
              "duration": 3.64375
            },
            {
              "pitch": 51,
              "velocity": 76,
              "position": 0.029166666666666667,
              "duration": 3.6145833333333335
            },
            {
              "pitch": 58,
              "velocity": 51,
              "position": 0.027083333333333334,
              "duration": 3.6166666666666667
            },
            {
              "pitch": 79,
              "velocity": 58,
              "position": 0.025,
              "duration": 3.61875
            },
            {
              "pitch": 36,
              "velocity": 30,
              "position": 0.014583333333333334,
              "duration": 3.629166666666667
            },
            {
              "pitch": 51,
              "velocity": 114,
              "position": 3.652083333333333,
              "duration": 1.6458333333333333
            },
            {
              "pitch": 79,
              "velocity": 114,
              "position": 3.660416666666667,
              "duration": 1.6541666666666666
            },
            {
              "pitch": 41,
              "velocity": 30,
              "position": 3.6729166666666666,
              "duration": 1.64375
            },
            {
              "pitch": 57,
              "velocity": 114,
              "position": 3.6791666666666667,
              "duration": 1.6604166666666667
            },
            {
              "pitch": 74,
              "velocity": 111,
              "position": 3.6770833333333335,
              "duration": 1.6770833333333333
            },
            {
              "pitch": 43,
              "velocity": 58,
              "position": 5.708333333333333,
              "duration": 0.2833333333333333
            },
            {
              "pitch": 53,
              "velocity": 114,
              "position": 5.708333333333333,
              "duration": 0.2833333333333333
            },
            {
              "pitch": 59,
              "velocity": 114,
              "position": 5.720833333333333,
              "duration": 0.28125
            },
            {
              "pitch": 82,
              "velocity": 114,
              "position": 5.708333333333333,
              "duration": 0.33958333333333335
            },
            {
              "pitch": 75,
              "velocity": 107,
              "position": 5.716666666666667,
              "duration": 0.35625
            },
            {
              "pitch": 43,
              "velocity": 58,
              "position": 6.708333333333333,
              "duration": 0.2833333333333333
            },
            {
              "pitch": 53,
              "velocity": 114,
              "position": 6.708333333333333,
              "duration": 0.2833333333333333
            },
            {
              "pitch": 59,
              "velocity": 114,
              "position": 6.720833333333333,
              "duration": 0.28125
            },
            {
              "pitch": 80,
              "velocity": 114,
              "position": 6.708333333333333,
              "duration": 0.33958333333333335
            },
            {
              "pitch": 75,
              "velocity": 107,
              "position": 6.716666666666667,
              "duration": 0.35625
            },
            {
              "pitch": 79,
              "velocity": 55,
              "position": 7.679166666666666,
              "duration": 7.31875
            },
            {
              "pitch": 58,
              "velocity": 37,
              "position": 7.6625,
              "duration": 7.3375
            },
            {
              "pitch": 74,
              "velocity": 44,
              "position": 7.666666666666667,
              "duration": 7.333333333333333
            },
            {
              "pitch": 36,
              "velocity": 30,
              "position": 7.666666666666667,
              "duration": 7.333333333333333
            },
            {
              "pitch": 51,
              "velocity": 48,
              "position": 7.6625,
              "duration": 7.3375
            }
          ]
        },
        "8": {
          "ctab": {
            "srcChannel": 8,
            "name": "AddDrum",
            "accType": "SUBRHYTHM",
            "editable": false,
            "mutedNotes": [],
            "mutedChords": [],
            "autoStart": true,
            "sourceChordNote": 0,
            "sourceChordType": "Maj7",
            "ctb2Low": null,
            "ctb2Main": {
              "ntr": "ROOT_FIXED",
              "ntt": "BYPASS",
              "bassOn": false,
              "chordRootUpperLimit": 6,
              "noteLowLimit": 0,
              "noteHighLimit": 127,
              "rtr": "PITCH_SHIFT"
            },
            "ctb2High": null
          },
          "notes": [
            {
              "pitch": 73,
              "velocity": 70,
              "position": 1,
              "duration": 0.020833333333333332
            },
            {
              "pitch": 73,
              "velocity": 70,
              "position": 3,
              "duration": 0.020833333333333332
            },
            {
              "pitch": 73,
              "velocity": 70,
              "position": 5,
              "duration": 0.020833333333333332
            }
          ]
        },
        "9": {
          "ctab": {
            "srcChannel": 9,
            "name": "MainDrum",
            "accType": "RHYTHM",
            "editable": false,
            "mutedNotes": [],
            "mutedChords": [],
            "autoStart": true,
            "sourceChordNote": 0,
            "sourceChordType": "Maj7",
            "ctb2Low": null,
            "ctb2Main": {
              "ntr": "ROOT_FIXED",
              "ntt": "BYPASS",
              "bassOn": false,
              "chordRootUpperLimit": 6,
              "noteLowLimit": 0,
              "noteHighLimit": 127,
              "rtr": "PITCH_SHIFT"
            },
            "ctb2High": null
          },
          "notes": [
            {
              "pitch": 33,
              "velocity": 70,
              "position": 0,
              "duration": 0.020833333333333332
            },
            {
              "pitch": 51,
              "velocity": 50,
              "position": 0,
              "duration": 0.020833333333333332
            },
            {
              "pitch": 44,
              "velocity": 30,
              "position": 0,
              "duration": 0.020833333333333332
            },
            {
              "pitch": 44,
              "velocity": 50,
              "position": 1,
              "duration": 0.020833333333333332
            },
            {
              "pitch": 51,
              "velocity": 50,
              "position": 1,
              "duration": 0.020833333333333332
            },
            {
              "pitch": 44,
              "velocity": 30,
              "position": 2,
              "duration": 0.020833333333333332
            },
            {
              "pitch": 51,
              "velocity": 50,
              "position": 2,
              "duration": 0.020833333333333332
            },
            {
              "pitch": 37,
              "velocity": 70,
              "position": 3,
              "duration": 0.020833333333333332
            },
            {
              "pitch": 51,
              "velocity": 50,
              "position": 3,
              "duration": 0.020833333333333332
            },
            {
              "pitch": 44,
              "velocity": 50,
              "position": 3,
              "duration": 0.020833333333333332
            },
            {
              "pitch": 33,
              "velocity": 70,
              "position": 4,
              "duration": 0.020833333333333332
            },
            {
              "pitch": 51,
              "velocity": 50,
              "position": 4,
              "duration": 0.020833333333333332
            },
            {
              "pitch": 44,
              "velocity": 30,
              "position": 4,
              "duration": 0.020833333333333332
            },
            {
              "pitch": 31,
              "velocity": 18,
              "position": 4.333333333333333,
              "duration": 0.020833333333333332
            },
            {
              "pitch": 40,
              "velocity": 22,
              "position": 4.5,
              "duration": 0.020833333333333332
            },
            {
              "pitch": 40,
              "velocity": 54,
              "position": 4.666666666666667,
              "duration": 0.020833333333333332
            },
            {
              "pitch": 44,
              "velocity": 50,
              "position": 5,
              "duration": 0.020833333333333332
            },
            {
              "pitch": 51,
              "velocity": 50,
              "position": 5,
              "duration": 0.020833333333333332
            },
            {
              "pitch": 31,
              "velocity": 21,
              "position": 5.333333333333333,
              "duration": 0.020833333333333332
            },
            {
              "pitch": 33,
              "velocity": 70,
              "position": 5.666666666666667,
              "duration": 0.020833333333333332
            },
            {
              "pitch": 46,
              "velocity": 50,
              "position": 5.666666666666667,
              "duration": 0.020833333333333332
            },
            {
              "pitch": 44,
              "velocity": 1,
              "position": 6,
              "duration": 0.020833333333333332
            },
            {
              "pitch": 33,
              "velocity": 60,
              "position": 6.666666666666667,
              "duration": 0.020833333333333332
            },
            {
              "pitch": 46,
              "velocity": 40,
              "position": 6.666666666666667,
              "duration": 0.020833333333333332
            },
            {
              "pitch": 40,
              "velocity": 26,
              "position": 6.666666666666667,
              "duration": 0.020833333333333332
            },
            {
              "pitch": 44,
              "velocity": 14,
              "position": 7,
              "duration": 0.020833333333333332
            },
            {
              "pitch": 33,
              "velocity": 70,
              "position": 7.666666666666667,
              "duration": 0.020833333333333332
            },
            {
              "pitch": 57,
              "velocity": 50,
              "position": 7.666666666666667,
              "duration": 0.020833333333333332
            },
            {
              "pitch": 40,
              "velocity": 51,
              "position": 7.666666666666667,
              "duration": 0.020833333333333332
            }
          ]
        },
        "10": {
          "ctab": {
            "srcChannel": 10,
            "name": "Bass",
            "accType": "BASS",
            "editable": false,
            "mutedNotes": [],
            "mutedChords": [
              "dim7",
              "dim",
              "minMaj7(9)",
              "minMaj7",
              "min7(11)",
              "min7(9)",
              "min(9)",
              "m7b5",
              "min7",
              "min6",
              "min"
            ],
            "autoStart": false,
            "sourceChordNote": 0,
            "sourceChordType": "Maj",
            "ctb2Low": null,
            "ctb2Main": {
              "ntr": "ROOT_TRANSPOSITION",
              "ntt": "BYPASS",
              "bassOn": false,
              "chordRootUpperLimit": 3,
              "noteLowLimit": 26,
              "noteHighLimit": 49,
              "rtr": "PITCH_SHIFT"
            },
            "ctb2High": null
          },
          "notes": [
            {
              "pitch": 24,
              "velocity": 60,
              "position": 0,
              "duration": 1.0833333333333333
            },
            {
              "pitch": 60,
              "velocity": 96,
              "position": 1.3333333333333333,
              "duration": 0.22916666666666666
            },
            {
              "pitch": 60,
              "velocity": 50,
              "position": 1.6666666666666667,
              "duration": 0.11041666666666666
            },
            {
              "pitch": 60,
              "velocity": 60,
              "position": 2,
              "duration": 1.3541666666666667
            },
            {
              "pitch": 19,
              "velocity": 60,
              "position": 3.6666666666666665,
              "duration": 1.5625
            },
            {
              "pitch": 67,
              "velocity": 70,
              "position": 5.666666666666667,
              "duration": 0.325
            },
            {
              "pitch": 19,
              "velocity": 81,
              "position": 6,
              "duration": 0.22291666666666668
            },
            {
              "pitch": 19,
              "velocity": 54,
              "position": 6.666666666666667,
              "duration": 0.325
            },
            {
              "pitch": 19,
              "velocity": 81,
              "position": 7,
              "duration": 0.22291666666666668
            },
            {
              "pitch": 24,
              "velocity": 60,
              "position": 7.666666666666667,
              "duration": 7.333333333333333
            }
          ]
        },
        "11": {
          "ctab": {
            "srcChannel": 11,
            "name": "E.Piano",
            "accType": "CHORD1",
            "editable": false,
            "mutedNotes": [],
            "mutedChords": [
              "dim7",
              "dim",
              "minMaj7(9)",
              "minMaj7",
              "min7(11)",
              "min7(9)",
              "min(9)",
              "m7b5",
              "min7",
              "min6",
              "min"
            ],
            "autoStart": false,
            "sourceChordNote": 0,
            "sourceChordType": "Maj",
            "ctb2Low": null,
            "ctb2Main": {
              "ntr": "ROOT_TRANSPOSITION",
              "ntt": "BYPASS",
              "bassOn": false,
              "chordRootUpperLimit": 8,
              "noteLowLimit": 54,
              "noteHighLimit": 65,
              "rtr": "PITCH_SHIFT"
            },
            "ctb2High": null
          },
          "notes": [
            {
              "pitch": 74,
              "velocity": 77,
              "position": 0,
              "duration": 3.64375
            },
            {
              "pitch": 52,
              "velocity": 79,
              "position": 0.029166666666666667,
              "duration": 3.6145833333333335
            },
            {
              "pitch": 59,
              "velocity": 72,
              "position": 0.027083333333333334,
              "duration": 3.6166666666666667
            },
            {
              "pitch": 79,
              "velocity": 74,
              "position": 0.025,
              "duration": 3.61875
            },
            {
              "pitch": 36,
              "velocity": 45,
              "position": 0.014583333333333334,
              "duration": 3.629166666666667
            },
            {
              "pitch": 53,
              "velocity": 90,
              "position": 3.652083333333333,
              "duration": 1.6458333333333333
            },
            {
              "pitch": 81,
              "velocity": 90,
              "position": 3.660416666666667,
              "duration": 1.6541666666666666
            },
            {
              "pitch": 43,
              "velocity": 57,
              "position": 3.6729166666666666,
              "duration": 1.64375
            },
            {
              "pitch": 60,
              "velocity": 90,
              "position": 3.6791666666666667,
              "duration": 1.6604166666666667
            },
            {
              "pitch": 74,
              "velocity": 89,
              "position": 3.6770833333333335,
              "duration": 1.6770833333333333
            },
            {
              "pitch": 43,
              "velocity": 74,
              "position": 5.708333333333333,
              "duration": 0.2833333333333333
            },
            {
              "pitch": 53,
              "velocity": 90,
              "position": 5.708333333333333,
              "duration": 0.2833333333333333
            },
            {
              "pitch": 60,
              "velocity": 90,
              "position": 5.720833333333333,
              "duration": 0.28125
            },
            {
              "pitch": 83,
              "velocity": 90,
              "position": 5.708333333333333,
              "duration": 0.33958333333333335
            },
            {
              "pitch": 76,
              "velocity": 88,
              "position": 5.716666666666667,
              "duration": 0.35625
            },
            {
              "pitch": 43,
              "velocity": 74,
              "position": 6.708333333333333,
              "duration": 0.2833333333333333
            },
            {
              "pitch": 53,
              "velocity": 90,
              "position": 6.708333333333333,
              "duration": 0.2833333333333333
            },
            {
              "pitch": 59,
              "velocity": 90,
              "position": 6.720833333333333,
              "duration": 0.28125
            },
            {
              "pitch": 81,
              "velocity": 90,
              "position": 6.708333333333333,
              "duration": 0.33958333333333335
            },
            {
              "pitch": 75,
              "velocity": 88,
              "position": 6.716666666666667,
              "duration": 0.35625
            },
            {
              "pitch": 79,
              "velocity": 73,
              "position": 7.679166666666666,
              "duration": 7.31875
            },
            {
              "pitch": 59,
              "velocity": 68,
              "position": 7.6625,
              "duration": 7.3375
            },
            {
              "pitch": 74,
              "velocity": 70,
              "position": 7.666666666666667,
              "duration": 7.333333333333333
            },
            {
              "pitch": 36,
              "velocity": 44,
              "position": 7.666666666666667,
              "duration": 7.333333333333333
            },
            {
              "pitch": 52,
              "velocity": 71,
              "position": 7.6625,
              "duration": 7.3375
            }
          ]
        },
        "12": {
          "ctab": {
            "srcChannel": 12,
            "name": "JazzGtr",
            "accType": "CHORD2",
            "editable": false,
            "mutedNotes": [],
            "mutedChords": [
              "dim7",
              "dim",
              "minMaj7(9)",
              "minMaj7",
              "min7(11)",
              "min7(9)",
              "min(9)",
              "m7b5",
              "min7",
              "min6",
              "min"
            ],
            "autoStart": false,
            "sourceChordNote": 0,
            "sourceChordType": "Maj",
            "ctb2Low": null,
            "ctb2Main": {
              "ntr": "ROOT_TRANSPOSITION",
              "ntt": "BYPASS",
              "bassOn": false,
              "chordRootUpperLimit": 6,
              "noteLowLimit": 0,
              "noteHighLimit": 79,
              "rtr": "PITCH_SHIFT"
            },
            "ctb2High": null
          },
          "notes": [
            {
              "pitch": 55,
              "velocity": 41,
              "position": 0.7291666666666666,
              "duration": 0.44583333333333336
            },
            {
              "pitch": 96,
              "velocity": 76,
              "position": 0.7291666666666666,
              "duration": 0.44583333333333336
            },
            {
              "pitch": 62,
              "velocity": 85,
              "position": 0.75,
              "duration": 0.44583333333333336
            },
            {
              "pitch": 67,
              "velocity": 41,
              "position": 0.7708333333333334,
              "duration": 0.44583333333333336
            },
            {
              "pitch": 119,
              "velocity": 40,
              "position": 1.1,
              "duration": 0.22083333333333333
            },
            {
              "pitch": 122,
              "velocity": 40,
              "position": 1.1,
              "duration": 0.22083333333333333
            },
            {
              "pitch": 57,
              "velocity": 30,
              "position": 1.3958333333333333,
              "duration": 0.44583333333333336
            },
            {
              "pitch": 98,
              "velocity": 44,
              "position": 1.3958333333333333,
              "duration": 0.44583333333333336
            },
            {
              "pitch": 64,
              "velocity": 85,
              "position": 1.4166666666666667,
              "duration": 0.44583333333333336
            },
            {
              "pitch": 69,
              "velocity": 30,
              "position": 1.4375,
              "duration": 0.44583333333333336
            },
            {
              "pitch": 118,
              "velocity": 40,
              "position": 1.7666666666666666,
              "duration": 0.22083333333333333
            },
            {
              "pitch": 121,
              "velocity": 40,
              "position": 1.7666666666666666,
              "duration": 0.22083333333333333
            },
            {
              "pitch": 59,
              "velocity": 50,
              "position": 2.0458333333333334,
              "duration": 0.44583333333333336
            },
            {
              "pitch": 103,
              "velocity": 76,
              "position": 2.0458333333333334,
              "duration": 0.44583333333333336
            },
            {
              "pitch": 64,
              "velocity": 85,
              "position": 2.066666666666667,
              "duration": 0.44583333333333336
            },
            {
              "pitch": 71,
              "velocity": 50,
              "position": 2.0875,
              "duration": 0.44583333333333336
            },
            {
              "pitch": 117,
              "velocity": 40,
              "position": 2.433333333333333,
              "duration": 0.22083333333333333
            },
            {
              "pitch": 123,
              "velocity": 40,
              "position": 2.433333333333333,
              "duration": 0.22083333333333333
            },
            {
              "pitch": 60,
              "velocity": 30,
              "position": 2.7291666666666665,
              "duration": 0.44583333333333336
            },
            {
              "pitch": 102,
              "velocity": 44,
              "position": 2.7291666666666665,
              "duration": 0.44583333333333336
            },
            {
              "pitch": 67,
              "velocity": 85,
              "position": 2.75,
              "duration": 0.44583333333333336
            },
            {
              "pitch": 72,
              "velocity": 30,
              "position": 2.7708333333333335,
              "duration": 0.44583333333333336
            },
            {
              "pitch": 116,
              "velocity": 40,
              "position": 3.1,
              "duration": 0.22083333333333333
            },
            {
              "pitch": 124,
              "velocity": 40,
              "position": 3.1,
              "duration": 0.22083333333333333
            },
            {
              "pitch": 62,
              "velocity": 116,
              "position": 3.60625,
              "duration": 0.60625
            },
            {
              "pitch": 104,
              "velocity": 76,
              "position": 3.60625,
              "duration": 0.60625
            },
            {
              "pitch": 69,
              "velocity": 106,
              "position": 3.627083333333333,
              "duration": 0.60625
            },
            {
              "pitch": 74,
              "velocity": 116,
              "position": 3.6479166666666667,
              "duration": 0.60625
            },
            {
              "pitch": 115,
              "velocity": 40,
              "position": 4.308333333333334,
              "duration": 0.22083333333333333
            },
            {
              "pitch": 125,
              "velocity": 26,
              "position": 4.308333333333334,
              "duration": 0.22083333333333333
            },
            {
              "pitch": 60,
              "velocity": 30,
              "position": 4.625,
              "duration": 0.44583333333333336
            },
            {
              "pitch": 105,
              "velocity": 44,
              "position": 4.625,
              "duration": 0.44583333333333336
            },
            {
              "pitch": 67,
              "velocity": 85,
              "position": 4.645833333333333,
              "duration": 0.44583333333333336
            },
            {
              "pitch": 72,
              "velocity": 30,
              "position": 4.666666666666667,
              "duration": 0.44583333333333336
            },
            {
              "pitch": 123,
              "velocity": 26,
              "position": 5.1,
              "duration": 0.22083333333333333
            },
            {
              "pitch": 114,
              "velocity": 40,
              "position": 5.1,
              "duration": 0.22083333333333333
            },
            {
              "pitch": 59,
              "velocity": 41,
              "position": 5.633333333333334,
              "duration": 0.44583333333333336
            },
            {
              "pitch": 103,
              "velocity": 76,
              "position": 5.633333333333334,
              "duration": 0.44583333333333336
            },
            {
              "pitch": 64,
              "velocity": 85,
              "position": 5.654166666666667,
              "duration": 0.44583333333333336
            },
            {
              "pitch": 71,
              "velocity": 41,
              "position": 5.675,
              "duration": 0.44583333333333336
            },
            {
              "pitch": 122,
              "velocity": 26,
              "position": 6.1,
              "duration": 0.22083333333333333
            },
            {
              "pitch": 113,
              "velocity": 40,
              "position": 6.1,
              "duration": 0.22083333333333333
            },
            {
              "pitch": 57,
              "velocity": 30,
              "position": 6.635416666666667,
              "duration": 0.44583333333333336
            },
            {
              "pitch": 106,
              "velocity": 44,
              "position": 6.635416666666667,
              "duration": 0.44583333333333336
            },
            {
              "pitch": 62,
              "velocity": 85,
              "position": 6.65625,
              "duration": 0.44583333333333336
            },
            {
              "pitch": 69,
              "velocity": 30,
              "position": 6.677083333333333,
              "duration": 0.44583333333333336
            },
            {
              "pitch": 115,
              "velocity": 40,
              "position": 7.141666666666667,
              "duration": 0.22083333333333333
            },
            {
              "pitch": 121,
              "velocity": 26,
              "position": 7.141666666666667,
              "duration": 0.22083333333333333
            },
            {
              "pitch": 98,
              "velocity": 76,
              "position": 7.61875,
              "duration": 0.3104166666666667
            },
            {
              "pitch": 67,
              "velocity": 50,
              "position": 7.660416666666666,
              "duration": 7.339583333333334
            },
            {
              "pitch": 62,
              "velocity": 85,
              "position": 7.639583333333333,
              "duration": 7.360416666666667
            },
            {
              "pitch": 55,
              "velocity": 50,
              "position": 7.61875,
              "duration": 7.38125
            }
          ]
        },
        "13": {
          "ctab": {
            "srcChannel": 13,
            "name": "Strings",
            "accType": "PAD",
            "editable": false,
            "mutedNotes": [],
            "mutedChords": [
              "dim7",
              "dim",
              "minMaj7(9)",
              "minMaj7",
              "min7(11)",
              "min7(9)",
              "min(9)",
              "m7b5",
              "min7",
              "min6",
              "min"
            ],
            "autoStart": false,
            "sourceChordNote": 0,
            "sourceChordType": "Maj",
            "ctb2Low": null,
            "ctb2Main": {
              "ntr": "ROOT_TRANSPOSITION",
              "ntt": "BYPASS",
              "bassOn": false,
              "chordRootUpperLimit": 8,
              "noteLowLimit": 54,
              "noteHighLimit": 65,
              "rtr": "PITCH_SHIFT"
            },
            "ctb2High": null
          },
          "notes": [
            {
              "pitch": 74,
              "velocity": 114,
              "position": 0,
              "duration": 3.64375
            },
            {
              "pitch": 67,
              "velocity": 114,
              "position": 0.025,
              "duration": 3.61875
            },
            {
              "pitch": 59,
              "velocity": 114,
              "position": 0.027083333333333334,
              "duration": 3.6166666666666667
            },
            {
              "pitch": 52,
              "velocity": 112,
              "position": 0.029166666666666667,
              "duration": 3.6416666666666666
            },
            {
              "pitch": 69,
              "velocity": 114,
              "position": 3.660416666666667,
              "duration": 1.9145833333333333
            },
            {
              "pitch": 60,
              "velocity": 114,
              "position": 3.6791666666666667,
              "duration": 1.8958333333333333
            },
            {
              "pitch": 53,
              "velocity": 114,
              "position": 3.6791666666666667,
              "duration": 1.8958333333333333
            },
            {
              "pitch": 74,
              "velocity": 114,
              "position": 3.6770833333333335,
              "duration": 1.8979166666666667
            },
            {
              "pitch": 53,
              "velocity": 85,
              "position": 5.708333333333333,
              "duration": 0.6895833333333333
            },
            {
              "pitch": 71,
              "velocity": 85,
              "position": 5.708333333333333,
              "duration": 0.6895833333333333
            },
            {
              "pitch": 64,
              "velocity": 85,
              "position": 5.716666666666667,
              "duration": 0.6895833333333333
            },
            {
              "pitch": 60,
              "velocity": 85,
              "position": 5.720833333333333,
              "duration": 0.6895833333333333
            },
            {
              "pitch": 53,
              "velocity": 85,
              "position": 6.708333333333333,
              "duration": 0.6895833333333333
            },
            {
              "pitch": 69,
              "velocity": 85,
              "position": 6.708333333333333,
              "duration": 0.6895833333333333
            },
            {
              "pitch": 63,
              "velocity": 85,
              "position": 6.716666666666667,
              "duration": 0.6895833333333333
            },
            {
              "pitch": 59,
              "velocity": 85,
              "position": 6.720833333333333,
              "duration": 0.6895833333333333
            },
            {
              "pitch": 67,
              "velocity": 114,
              "position": 7.679166666666666,
              "duration": 7.31875
            },
            {
              "pitch": 55,
              "velocity": 114,
              "position": 7.6625,
              "duration": 7.3375
            },
            {
              "pitch": 71,
              "velocity": 114,
              "position": 7.666666666666667,
              "duration": 7.333333333333333
            },
            {
              "pitch": 52,
              "velocity": 114,
              "position": 7.6625,
              "duration": 7.3375
            }
          ]
        },
        "14": {
          "ctab": {
            "srcChannel": 14,
            "name": "Piano",
            "accType": "PHRASE1",
            "editable": false,
            "mutedNotes": [],
            "mutedChords": [
              "dim7",
              "dim",
              "minMaj7(9)",
              "minMaj7",
              "min7(11)",
              "min7(9)",
              "min(9)",
              "m7b5",
              "min7",
              "min6",
              "min"
            ],
            "autoStart": false,
            "sourceChordNote": 0,
            "sourceChordType": "Maj",
            "ctb2Low": null,
            "ctb2Main": {
              "ntr": "ROOT_TRANSPOSITION",
              "ntt": "BYPASS",
              "bassOn": false,
              "chordRootUpperLimit": 2,
              "noteLowLimit": 54,
              "noteHighLimit": 127,
              "rtr": "PITCH_SHIFT"
            },
            "ctb2High": null
          },
          "notes": [
            {
              "pitch": 79,
              "velocity": 85,
              "position": 0.7875,
              "duration": 0.2791666666666667
            },
            {
              "pitch": 67,
              "velocity": 70,
              "position": 0.75,
              "duration": 0.32708333333333334
            },
            {
              "pitch": 81,
              "velocity": 71,
              "position": 1.4270833333333333,
              "duration": 0.2833333333333333
            },
            {
              "pitch": 69,
              "velocity": 65,
              "position": 1.4083333333333334,
              "duration": 0.3125
            },
            {
              "pitch": 71,
              "velocity": 67,
              "position": 2.058333333333333,
              "duration": 0.3229166666666667
            },
            {
              "pitch": 83,
              "velocity": 72,
              "position": 2.095833333333333,
              "duration": 0.3
            },
            {
              "pitch": 72,
              "velocity": 70,
              "position": 2.73125,
              "duration": 0.25416666666666665
            },
            {
              "pitch": 84,
              "velocity": 83,
              "position": 2.7416666666666667,
              "duration": 0.25625
            },
            {
              "pitch": 86,
              "velocity": 85,
              "position": 3.6020833333333333,
              "duration": 0.38958333333333334
            },
            {
              "pitch": 74,
              "velocity": 68,
              "position": 3.5833333333333335,
              "duration": 0.4375
            },
            {
              "pitch": 84,
              "velocity": 89,
              "position": 4.625,
              "duration": 0.5041666666666667
            },
            {
              "pitch": 72,
              "velocity": 68,
              "position": 4.608333333333333,
              "duration": 0.5791666666666667
            },
            {
              "pitch": 83,
              "velocity": 71,
              "position": 5.6375,
              "duration": 0.42291666666666666
            },
            {
              "pitch": 71,
              "velocity": 68,
              "position": 5.641666666666667,
              "duration": 0.48541666666666666
            },
            {
              "pitch": 69,
              "velocity": 71,
              "position": 6.658333333333333,
              "duration": 0.4583333333333333
            },
            {
              "pitch": 81,
              "velocity": 77,
              "position": 6.675,
              "duration": 0.4583333333333333
            },
            {
              "pitch": 62,
              "velocity": 65,
              "position": 7.735416666666667,
              "duration": 7.254166666666666
            },
            {
              "pitch": 59,
              "velocity": 62,
              "position": 7.745833333333334,
              "duration": 7.24375
            },
            {
              "pitch": 79,
              "velocity": 82,
              "position": 7.741666666666666,
              "duration": 7.247916666666667
            },
            {
              "pitch": 67,
              "velocity": 82,
              "position": 7.741666666666666,
              "duration": 7.247916666666667
            },
            {
              "pitch": 64,
              "velocity": 62,
              "position": 7.7375,
              "duration": 7.252083333333333
            }
          ]
        },
        "15": {
          "ctab": {
            "srcChannel": 15,
            "name": "BalladDX",
            "accType": "PHRASE2",
            "editable": false,
            "mutedNotes": [],
            "mutedChords": [
              "dim7",
              "dim",
              "minMaj7(9)",
              "minMaj7",
              "min7(11)",
              "min7(9)",
              "min(9)",
              "m7b5",
              "min7",
              "min6",
              "min"
            ],
            "autoStart": false,
            "sourceChordNote": 0,
            "sourceChordType": "Maj",
            "ctb2Low": null,
            "ctb2Main": {
              "ntr": "ROOT_TRANSPOSITION",
              "ntt": "BYPASS",
              "bassOn": false,
              "chordRootUpperLimit": 8,
              "noteLowLimit": 54,
              "noteHighLimit": 65,
              "rtr": "PITCH_SHIFT"
            },
            "ctb2High": null
          },
          "notes": [
            {
              "pitch": 74,
              "velocity": 69,
              "position": 0,
              "duration": 3.64375
            },
            {
              "pitch": 52,
              "velocity": 76,
              "position": 0.029166666666666667,
              "duration": 3.6145833333333335
            },
            {
              "pitch": 59,
              "velocity": 51,
              "position": 0.027083333333333334,
              "duration": 3.6166666666666667
            },
            {
              "pitch": 79,
              "velocity": 58,
              "position": 0.025,
              "duration": 3.61875
            },
            {
              "pitch": 36,
              "velocity": 30,
              "position": 0.014583333333333334,
              "duration": 3.629166666666667
            },
            {
              "pitch": 53,
              "velocity": 114,
              "position": 3.652083333333333,
              "duration": 1.6458333333333333
            },
            {
              "pitch": 81,
              "velocity": 114,
              "position": 3.660416666666667,
              "duration": 1.6541666666666666
            },
            {
              "pitch": 43,
              "velocity": 30,
              "position": 3.6729166666666666,
              "duration": 1.64375
            },
            {
              "pitch": 60,
              "velocity": 114,
              "position": 3.6791666666666667,
              "duration": 1.6604166666666667
            },
            {
              "pitch": 74,
              "velocity": 111,
              "position": 3.6770833333333335,
              "duration": 1.6770833333333333
            },
            {
              "pitch": 43,
              "velocity": 58,
              "position": 5.708333333333333,
              "duration": 0.2833333333333333
            },
            {
              "pitch": 53,
              "velocity": 114,
              "position": 5.708333333333333,
              "duration": 0.2833333333333333
            },
            {
              "pitch": 60,
              "velocity": 114,
              "position": 5.720833333333333,
              "duration": 0.28125
            },
            {
              "pitch": 83,
              "velocity": 114,
              "position": 5.708333333333333,
              "duration": 0.33958333333333335
            },
            {
              "pitch": 76,
              "velocity": 107,
              "position": 5.716666666666667,
              "duration": 0.35625
            },
            {
              "pitch": 43,
              "velocity": 58,
              "position": 6.708333333333333,
              "duration": 0.2833333333333333
            },
            {
              "pitch": 53,
              "velocity": 114,
              "position": 6.708333333333333,
              "duration": 0.2833333333333333
            },
            {
              "pitch": 59,
              "velocity": 114,
              "position": 6.720833333333333,
              "duration": 0.28125
            },
            {
              "pitch": 81,
              "velocity": 114,
              "position": 6.708333333333333,
              "duration": 0.33958333333333335
            },
            {
              "pitch": 75,
              "velocity": 107,
              "position": 6.716666666666667,
              "duration": 0.35625
            },
            {
              "pitch": 79,
              "velocity": 55,
              "position": 7.679166666666666,
              "duration": 7.31875
            },
            {
              "pitch": 59,
              "velocity": 37,
              "position": 7.6625,
              "duration": 7.3375
            },
            {
              "pitch": 74,
              "velocity": 44,
              "position": 7.666666666666667,
              "duration": 7.333333333333333
            },
            {
              "pitch": 36,
              "velocity": 30,
              "position": 7.666666666666667,
              "duration": 7.333333333333333
            },
            {
              "pitch": 52,
              "velocity": 48,
              "position": 7.6625,
              "duration": 7.3375
            }
          ]
        }
      }
    },
    "Intro_C": {
      "type": "Intro_C",
      "sizeInBeats": 32,
      "channels": {
        "1": {
          "ctab": {
            "srcChannel": 1,
            "name": "Bass",
            "accType": "BASS",
            "editable": false,
            "mutedNotes": [],
            "mutedChords": [
              "1+2+5",
              "sus4",
              "1+5",
              "1+8",
              "7aug",
              "Maj7aug",
              "7(#9)",
              "7(b13)",
              "7(b9)",
              "7(13)",
              "7#11",
              "7(9)",
              "7b5",
              "7sus4",
              "7th",
              "aug",
              "Maj6(9)",
              "Maj7(9)",
              "Maj(9)",
              "Maj7#11",
              "Maj7",
              "Maj6",
              "Maj"
            ],
            "autoStart": false,
            "sourceChordNote": 0,
            "sourceChordType": "min",
            "ctb2Low": null,
            "ctb2Main": {
              "ntr": "ROOT_TRANSPOSITION",
              "ntt": "BYPASS",
              "bassOn": false,
              "chordRootUpperLimit": 1,
              "noteLowLimit": 26,
              "noteHighLimit": 127,
              "rtr": "PITCH_SHIFT"
            },
            "ctb2High": null
          },
          "notes": [
            {
              "pitch": 31,
              "velocity": 60,
              "position": 0,
              "duration": 1.2375
            },
            {
              "pitch": 31,
              "velocity": 85,
              "position": 1.3333333333333333,
              "duration": 0.2375
            },
            {
              "pitch": 31,
              "velocity": 50,
              "position": 1.6666666666666667,
              "duration": 0.1375
            },
            {
              "pitch": 43,
              "velocity": 60,
              "position": 2,
              "duration": 1.5708333333333333
            },
            {
              "pitch": 31,
              "velocity": 60,
              "position": 3.6666666666666665,
              "duration": 1.9041666666666666
            },
            {
              "pitch": 43,
              "velocity": 60,
              "position": 5.666666666666667,
              "duration": 0.9041666666666667
            },
            {
              "pitch": 45,
              "velocity": 60,
              "position": 6.666666666666667,
              "duration": 0.325
            },
            {
              "pitch": 43,
              "velocity": 50,
              "position": 7,
              "duration": 0.14166666666666666
            },
            {
              "pitch": 38,
              "velocity": 101,
              "position": 7.333333333333333,
              "duration": 0.14166666666666666
            },
            {
              "pitch": 36,
              "velocity": 101,
              "position": 7.666666666666667,
              "duration": 0.14166666666666666
            },
            {
              "pitch": 31,
              "velocity": 60,
              "position": 8,
              "duration": 1.5708333333333333
            },
            {
              "pitch": 31,
              "velocity": 101,
              "position": 9.666666666666666,
              "duration": 0.2375
            },
            {
              "pitch": 43,
              "velocity": 60,
              "position": 10,
              "duration": 1.2375
            },
            {
              "pitch": 43,
              "velocity": 90,
              "position": 11.333333333333334,
              "duration": 0.2375
            },
            {
              "pitch": 31,
              "velocity": 60,
              "position": 11.666666666666666,
              "duration": 1.9041666666666666
            },
            {
              "pitch": 30,
              "velocity": 60,
              "position": 13.666666666666666,
              "duration": 1.5708333333333333
            },
            {
              "pitch": 30,
              "velocity": 90,
              "position": 15.333333333333334,
              "duration": 0.2375
            },
            {
              "pitch": 29,
              "velocity": 60,
              "position": 15.666666666666666,
              "duration": 1.5708333333333333
            },
            {
              "pitch": 39,
              "velocity": 85,
              "position": 17.333333333333332,
              "duration": 0.2375
            },
            {
              "pitch": 40,
              "velocity": 60,
              "position": 17.666666666666668,
              "duration": 0.2375
            },
            {
              "pitch": 41,
              "velocity": 60,
              "position": 18,
              "duration": 1.5666666666666667
            },
            {
              "pitch": 29,
              "velocity": 60,
              "position": 19.666666666666668,
              "duration": 1.9041666666666666
            },
            {
              "pitch": 41,
              "velocity": 60,
              "position": 21.666666666666668,
              "duration": 0.5708333333333333
            },
            {
              "pitch": 43,
              "velocity": 60,
              "position": 22.333333333333332,
              "duration": 0.325
            },
            {
              "pitch": 41,
              "velocity": 50,
              "position": 22.666666666666668,
              "duration": 0.175
            },
            {
              "pitch": 36,
              "velocity": 101,
              "position": 23,
              "duration": 0.175
            },
            {
              "pitch": 29,
              "velocity": 101,
              "position": 23.333333333333332,
              "duration": 0.175
            },
            {
              "pitch": 29,
              "velocity": 60,
              "position": 23.666666666666668,
              "duration": 1.9041666666666666
            },
            {
              "pitch": 29,
              "velocity": 101,
              "position": 25.666666666666668,
              "duration": 0.2375
            },
            {
              "pitch": 29,
              "velocity": 60,
              "position": 26,
              "duration": 0.5375
            },
            {
              "pitch": 32,
              "velocity": 60,
              "position": 26.666666666666668,
              "duration": 0.4375
            },
            {
              "pitch": 26,
              "velocity": 90,
              "position": 27.333333333333332,
              "duration": 0.2375
            },
            {
              "pitch": 31,
              "velocity": 60,
              "position": 27.666666666666668,
              "duration": 1.5708333333333333
            },
            {
              "pitch": 31,
              "velocity": 90,
              "position": 29.333333333333332,
              "duration": 0.2375
            },
            {
              "pitch": 43,
              "velocity": 60,
              "position": 29.666666666666668,
              "duration": 1.5708333333333333
            },
            {
              "pitch": 38,
              "velocity": 101,
              "position": 31.333333333333332,
              "duration": 0.2375
            },
            {
              "pitch": 31,
              "velocity": 60,
              "position": 31.666666666666668,
              "duration": 0.2375
            }
          ]
        },
        "2": {
          "ctab": {
            "srcChannel": 2,
            "name": "E.Piano",
            "accType": "CHORD1",
            "editable": false,
            "mutedNotes": [],
            "mutedChords": [
              "1+2+5",
              "sus4",
              "1+5",
              "1+8",
              "7aug",
              "Maj7aug",
              "7(#9)",
              "7(b13)",
              "7(b9)",
              "7(13)",
              "7#11",
              "7(9)",
              "7b5",
              "7sus4",
              "7th",
              "aug",
              "Maj6(9)",
              "Maj7(9)",
              "Maj(9)",
              "Maj7#11",
              "Maj7",
              "Maj6",
              "Maj"
            ],
            "autoStart": false,
            "sourceChordNote": 0,
            "sourceChordType": "min",
            "ctb2Low": null,
            "ctb2Main": {
              "ntr": "ROOT_TRANSPOSITION",
              "ntt": "BYPASS",
              "bassOn": false,
              "chordRootUpperLimit": 7,
              "noteLowLimit": 54,
              "noteHighLimit": 65,
              "rtr": "PITCH_SHIFT"
            },
            "ctb2High": null
          },
          "notes": [
            {
              "pitch": 63,
              "velocity": 90,
              "position": 0,
              "duration": 3.658333333333333
            },
            {
              "pitch": 79,
              "velocity": 90,
              "position": 0.03125,
              "duration": 3.627083333333333
            },
            {
              "pitch": 86,
              "velocity": 90,
              "position": 0.020833333333333332,
              "duration": 3.6375
            },
            {
              "pitch": 58,
              "velocity": 90,
              "position": 0.010416666666666666,
              "duration": 3.6479166666666667
            },
            {
              "pitch": 43,
              "velocity": 57,
              "position": 0.010416666666666666,
              "duration": 3.6479166666666667
            },
            {
              "pitch": 81,
              "velocity": 75,
              "position": 3.6666666666666665,
              "duration": 4.325
            },
            {
              "pitch": 60,
              "velocity": 75,
              "position": 3.6979166666666665,
              "duration": 4.29375
            },
            {
              "pitch": 53,
              "velocity": 75,
              "position": 3.6875,
              "duration": 4.304166666666666
            },
            {
              "pitch": 43,
              "velocity": 48,
              "position": 3.6875,
              "duration": 4.304166666666666
            },
            {
              "pitch": 79,
              "velocity": 75,
              "position": 3.6770833333333335,
              "duration": 4.314583333333333
            },
            {
              "pitch": 62,
              "velocity": 80,
              "position": 8,
              "duration": 3.658333333333333
            },
            {
              "pitch": 82,
              "velocity": 80,
              "position": 8.03125,
              "duration": 3.627083333333333
            },
            {
              "pitch": 75,
              "velocity": 80,
              "position": 8.020833333333334,
              "duration": 3.6375
            },
            {
              "pitch": 55,
              "velocity": 80,
              "position": 8.010416666666666,
              "duration": 3.6479166666666667
            },
            {
              "pitch": 43,
              "velocity": 51,
              "position": 8.010416666666666,
              "duration": 3.6479166666666667
            },
            {
              "pitch": 81,
              "velocity": 75,
              "position": 11.666666666666666,
              "duration": 1.9916666666666667
            },
            {
              "pitch": 60,
              "velocity": 75,
              "position": 11.697916666666666,
              "duration": 1.9604166666666667
            },
            {
              "pitch": 53,
              "velocity": 75,
              "position": 11.6875,
              "duration": 1.9708333333333334
            },
            {
              "pitch": 43,
              "velocity": 48,
              "position": 11.6875,
              "duration": 1.9708333333333334
            },
            {
              "pitch": 79,
              "velocity": 75,
              "position": 11.677083333333334,
              "duration": 1.98125
            },
            {
              "pitch": 87,
              "velocity": 85,
              "position": 13.666666666666666,
              "duration": 1.9916666666666667
            },
            {
              "pitch": 58,
              "velocity": 85,
              "position": 13.697916666666666,
              "duration": 1.9604166666666667
            },
            {
              "pitch": 52,
              "velocity": 85,
              "position": 13.6875,
              "duration": 1.9708333333333334
            },
            {
              "pitch": 42,
              "velocity": 54,
              "position": 13.6875,
              "duration": 1.9708333333333334
            },
            {
              "pitch": 80,
              "velocity": 85,
              "position": 13.677083333333334,
              "duration": 1.98125
            },
            {
              "pitch": 84,
              "velocity": 90,
              "position": 15.666666666666666,
              "duration": 3.9916666666666667
            },
            {
              "pitch": 63,
              "velocity": 90,
              "position": 15.697916666666666,
              "duration": 3.9604166666666667
            },
            {
              "pitch": 56,
              "velocity": 90,
              "position": 15.6875,
              "duration": 3.970833333333333
            },
            {
              "pitch": 41,
              "velocity": 57,
              "position": 15.6875,
              "duration": 3.970833333333333
            },
            {
              "pitch": 79,
              "velocity": 90,
              "position": 15.677083333333334,
              "duration": 3.98125
            },
            {
              "pitch": 84,
              "velocity": 75,
              "position": 19.666666666666668,
              "duration": 3.9916666666666667
            },
            {
              "pitch": 64,
              "velocity": 75,
              "position": 19.697916666666668,
              "duration": 3.9604166666666667
            },
            {
              "pitch": 56,
              "velocity": 75,
              "position": 19.6875,
              "duration": 3.970833333333333
            },
            {
              "pitch": 41,
              "velocity": 48,
              "position": 19.6875,
              "duration": 3.970833333333333
            },
            {
              "pitch": 79,
              "velocity": 75,
              "position": 19.677083333333332,
              "duration": 3.98125
            },
            {
              "pitch": 84,
              "velocity": 80,
              "position": 23.666666666666668,
              "duration": 2.658333333333333
            },
            {
              "pitch": 63,
              "velocity": 80,
              "position": 23.697916666666668,
              "duration": 2.627083333333333
            },
            {
              "pitch": 56,
              "velocity": 80,
              "position": 23.6875,
              "duration": 2.6375
            },
            {
              "pitch": 41,
              "velocity": 51,
              "position": 23.6875,
              "duration": 2.6375
            },
            {
              "pitch": 79,
              "velocity": 80,
              "position": 23.677083333333332,
              "duration": 2.6479166666666667
            },
            {
              "pitch": 80,
              "velocity": 85,
              "position": 26.666666666666668,
              "duration": 0.325
            },
            {
              "pitch": 60,
              "velocity": 85,
              "position": 26.697916666666668,
              "duration": 0.29375
            },
            {
              "pitch": 54,
              "velocity": 85,
              "position": 26.6875,
              "duration": 0.30416666666666664
            },
            {
              "pitch": 44,
              "velocity": 54,
              "position": 26.6875,
              "duration": 0.30416666666666664
            },
            {
              "pitch": 77,
              "velocity": 85,
              "position": 26.677083333333332,
              "duration": 0.3145833333333333
            },
            {
              "pitch": 82,
              "velocity": 90,
              "position": 27.666666666666668,
              "duration": 1.9916666666666667
            },
            {
              "pitch": 59,
              "velocity": 90,
              "position": 27.697916666666668,
              "duration": 1.9604166666666667
            },
            {
              "pitch": 53,
              "velocity": 90,
              "position": 27.6875,
              "duration": 1.9708333333333334
            },
            {
              "pitch": 43,
              "velocity": 57,
              "position": 27.6875,
              "duration": 1.9708333333333334
            },
            {
              "pitch": 75,
              "velocity": 90,
              "position": 27.677083333333332,
              "duration": 1.98125
            },
            {
              "pitch": 79,
              "velocity": 85,
              "position": 29.666666666666668,
              "duration": 2.325
            },
            {
              "pitch": 59,
              "velocity": 85,
              "position": 29.697916666666668,
              "duration": 2.29375
            },
            {
              "pitch": 53,
              "velocity": 85,
              "position": 29.6875,
              "duration": 2.3041666666666667
            },
            {
              "pitch": 43,
              "velocity": 54,
              "position": 29.6875,
              "duration": 2.3041666666666667
            },
            {
              "pitch": 75,
              "velocity": 85,
              "position": 29.677083333333332,
              "duration": 2.314583333333333
            }
          ]
        },
        "3": {
          "ctab": {
            "srcChannel": 3,
            "name": "JazzGtr",
            "accType": "CHORD2",
            "editable": false,
            "mutedNotes": [],
            "mutedChords": [
              "1+2+5",
              "sus4",
              "1+5",
              "1+8",
              "7aug",
              "Maj7aug",
              "7(#9)",
              "7(b13)",
              "7(b9)",
              "7(13)",
              "7#11",
              "7(9)",
              "7b5",
              "7sus4",
              "7th",
              "aug",
              "Maj6(9)",
              "Maj7(9)",
              "Maj(9)",
              "Maj7#11",
              "Maj7",
              "Maj6",
              "Maj"
            ],
            "autoStart": false,
            "sourceChordNote": 0,
            "sourceChordType": "min",
            "ctb2Low": null,
            "ctb2Main": {
              "ntr": "ROOT_TRANSPOSITION",
              "ntt": "BYPASS",
              "bassOn": false,
              "chordRootUpperLimit": 7,
              "noteLowLimit": 60,
              "noteHighLimit": 71,
              "rtr": "PITCH_SHIFT"
            },
            "ctb2High": null
          },
          "notes": [
            {
              "pitch": 51,
              "velocity": 41,
              "position": 0.010416666666666666,
              "duration": 1.0020833333333334
            },
            {
              "pitch": 62,
              "velocity": 41,
              "position": 0.020833333333333332,
              "duration": 1.6479166666666667
            },
            {
              "pitch": 67,
              "velocity": 41,
              "position": 0.03125,
              "duration": 2.627083333333333
            },
            {
              "pitch": 46,
              "velocity": 41,
              "position": 0,
              "duration": 3.2
            },
            {
              "pitch": 67,
              "velocity": 40,
              "position": 2.6666666666666665,
              "duration": 0.5333333333333333
            },
            {
              "pitch": 62,
              "velocity": 41,
              "position": 1.6770833333333333,
              "duration": 1.5333333333333334
            },
            {
              "pitch": 51,
              "velocity": 30,
              "position": 1.0208333333333333,
              "duration": 2.2
            },
            {
              "pitch": 127,
              "velocity": 40,
              "position": 3.3333333333333335,
              "duration": 0.2916666666666667
            },
            {
              "pitch": 53,
              "velocity": 41,
              "position": 3.6875,
              "duration": 0.9708333333333333
            },
            {
              "pitch": 69,
              "velocity": 41,
              "position": 3.6666666666666665,
              "duration": 2.9916666666666667
            },
            {
              "pitch": 69,
              "velocity": 40,
              "position": 6.666666666666667,
              "duration": 0.9916666666666667
            },
            {
              "pitch": 53,
              "velocity": 30,
              "position": 4.666666666666667,
              "duration": 3.0125
            },
            {
              "pitch": 48,
              "velocity": 41,
              "position": 3.6979166666666665,
              "duration": 3.9916666666666667
            },
            {
              "pitch": 126,
              "velocity": 40,
              "position": 7.666666666666667,
              "duration": 0.2916666666666667
            },
            {
              "pitch": 55,
              "velocity": 41,
              "position": 8.010416666666666,
              "duration": 1.0020833333333334
            },
            {
              "pitch": 70,
              "velocity": 41,
              "position": 8.03125,
              "duration": 1.6270833333333334
            },
            {
              "pitch": 63,
              "velocity": 41,
              "position": 8.020833333333334,
              "duration": 1.6479166666666667
            },
            {
              "pitch": 50,
              "velocity": 41,
              "position": 8,
              "duration": 3.2
            },
            {
              "pitch": 55,
              "velocity": 30,
              "position": 9.020833333333334,
              "duration": 2.2
            },
            {
              "pitch": 70,
              "velocity": 40,
              "position": 9.666666666666666,
              "duration": 1.6583333333333334
            },
            {
              "pitch": 63,
              "velocity": 30,
              "position": 9.677083333333334,
              "duration": 1.6583333333333334
            },
            {
              "pitch": 125,
              "velocity": 40,
              "position": 11.333333333333334,
              "duration": 0.2916666666666667
            },
            {
              "pitch": 69,
              "velocity": 41,
              "position": 11.666666666666666,
              "duration": 1.6583333333333334
            },
            {
              "pitch": 53,
              "velocity": 41,
              "position": 11.6875,
              "duration": 1.6583333333333334
            },
            {
              "pitch": 48,
              "velocity": 41,
              "position": 11.697916666666666,
              "duration": 1.6583333333333334
            },
            {
              "pitch": 124,
              "velocity": 40,
              "position": 13.333333333333334,
              "duration": 0.2916666666666667
            },
            {
              "pitch": 68,
              "velocity": 40,
              "position": 13.666666666666666,
              "duration": 1.6583333333333334
            },
            {
              "pitch": 63,
              "velocity": 40,
              "position": 13.677083333333334,
              "duration": 1.6583333333333334
            },
            {
              "pitch": 52,
              "velocity": 40,
              "position": 13.6875,
              "duration": 1.6583333333333334
            },
            {
              "pitch": 46,
              "velocity": 40,
              "position": 13.697916666666666,
              "duration": 1.6583333333333334
            },
            {
              "pitch": 123,
              "velocity": 40,
              "position": 15.333333333333334,
              "duration": 0.2916666666666667
            },
            {
              "pitch": 56,
              "velocity": 41,
              "position": 15.6875,
              "duration": 1.325
            },
            {
              "pitch": 67,
              "velocity": 41,
              "position": 15.677083333333334,
              "duration": 1.9916666666666667
            },
            {
              "pitch": 72,
              "velocity": 41,
              "position": 15.666666666666666,
              "duration": 2.9916666666666667
            },
            {
              "pitch": 72,
              "velocity": 40,
              "position": 18.666666666666668,
              "duration": 0.5333333333333333
            },
            {
              "pitch": 67,
              "velocity": 41,
              "position": 17.677083333333332,
              "duration": 1.5333333333333334
            },
            {
              "pitch": 56,
              "velocity": 30,
              "position": 17.020833333333332,
              "duration": 2.2
            },
            {
              "pitch": 51,
              "velocity": 41,
              "position": 15.697916666666666,
              "duration": 3.658333333333333
            },
            {
              "pitch": 122,
              "velocity": 40,
              "position": 19.333333333333332,
              "duration": 0.2916666666666667
            },
            {
              "pitch": 72,
              "velocity": 40,
              "position": 19.666666666666668,
              "duration": 1.0020833333333334
            },
            {
              "pitch": 56,
              "velocity": 40,
              "position": 19.6875,
              "duration": 0.9916666666666667
            },
            {
              "pitch": 67,
              "velocity": 40,
              "position": 19.677083333333332,
              "duration": 1.98125
            },
            {
              "pitch": 52,
              "velocity": 40,
              "position": 19.697916666666668,
              "duration": 3.658333333333333
            },
            {
              "pitch": 67,
              "velocity": 40,
              "position": 21.666666666666668,
              "duration": 1.7
            },
            {
              "pitch": 72,
              "velocity": 41,
              "position": 20.677083333333332,
              "duration": 2.7
            },
            {
              "pitch": 56,
              "velocity": 30,
              "position": 20.6875,
              "duration": 2.7
            },
            {
              "pitch": 121,
              "velocity": 40,
              "position": 23.333333333333332,
              "duration": 0.2916666666666667
            },
            {
              "pitch": 72,
              "velocity": 41,
              "position": 23.666666666666668,
              "duration": 2.658333333333333
            },
            {
              "pitch": 67,
              "velocity": 41,
              "position": 23.677083333333332,
              "duration": 2.658333333333333
            },
            {
              "pitch": 56,
              "velocity": 41,
              "position": 23.6875,
              "duration": 2.658333333333333
            },
            {
              "pitch": 51,
              "velocity": 41,
              "position": 23.697916666666668,
              "duration": 2.658333333333333
            },
            {
              "pitch": 120,
              "velocity": 40,
              "position": 26.333333333333332,
              "duration": 0.2916666666666667
            },
            {
              "pitch": 68,
              "velocity": 30,
              "position": 26.666666666666668,
              "duration": 0.325
            },
            {
              "pitch": 65,
              "velocity": 30,
              "position": 26.677083333333332,
              "duration": 0.325
            },
            {
              "pitch": 54,
              "velocity": 30,
              "position": 26.6875,
              "duration": 0.325
            },
            {
              "pitch": 48,
              "velocity": 30,
              "position": 26.697916666666668,
              "duration": 0.325
            },
            {
              "pitch": 127,
              "velocity": 40,
              "position": 27,
              "duration": 0.2916666666666667
            },
            {
              "pitch": 70,
              "velocity": 41,
              "position": 27.666666666666668,
              "duration": 1.6583333333333334
            },
            {
              "pitch": 63,
              "velocity": 41,
              "position": 27.677083333333332,
              "duration": 1.6583333333333334
            },
            {
              "pitch": 53,
              "velocity": 41,
              "position": 27.6875,
              "duration": 1.6583333333333334
            },
            {
              "pitch": 47,
              "velocity": 41,
              "position": 27.697916666666668,
              "duration": 1.6583333333333334
            },
            {
              "pitch": 126,
              "velocity": 40,
              "position": 29.333333333333332,
              "duration": 0.2916666666666667
            },
            {
              "pitch": 67,
              "velocity": 40,
              "position": 29.666666666666668,
              "duration": 1.9916666666666667
            },
            {
              "pitch": 63,
              "velocity": 40,
              "position": 29.677083333333332,
              "duration": 1.9916666666666667
            },
            {
              "pitch": 53,
              "velocity": 40,
              "position": 29.6875,
              "duration": 1.9916666666666667
            },
            {
              "pitch": 47,
              "velocity": 40,
              "position": 29.697916666666668,
              "duration": 1.9916666666666667
            }
          ]
        },
        "4": {
          "ctab": {
            "srcChannel": 4,
            "name": "PopVocal",
            "accType": "PAD",
            "editable": false,
            "mutedNotes": [],
            "mutedChords": [
              "1+2+5",
              "sus4",
              "1+5",
              "1+8",
              "7aug",
              "Maj7aug",
              "7(#9)",
              "7(b13)",
              "7(b9)",
              "7(13)",
              "7#11",
              "7(9)",
              "7b5",
              "7sus4",
              "7th",
              "aug",
              "Maj6(9)",
              "Maj7(9)",
              "Maj(9)",
              "Maj7#11",
              "Maj7",
              "Maj6",
              "Maj"
            ],
            "autoStart": false,
            "sourceChordNote": 0,
            "sourceChordType": "Maj",
            "ctb2Low": null,
            "ctb2Main": {
              "ntr": "ROOT_TRANSPOSITION",
              "ntt": "BYPASS",
              "bassOn": false,
              "chordRootUpperLimit": 7,
              "noteLowLimit": 53,
              "noteHighLimit": 127,
              "rtr": "PITCH_SHIFT"
            },
            "ctb2High": null
          },
          "notes": [
            {
              "pitch": 31,
              "velocity": 5,
              "position": 0.041666666666666664,
              "duration": 3.6166666666666667
            },
            {
              "pitch": 34,
              "velocity": 5,
              "position": 0.041666666666666664,
              "duration": 3.6166666666666667
            },
            {
              "pitch": 63,
              "velocity": 5,
              "position": 0.041666666666666664,
              "duration": 3.6166666666666667
            },
            {
              "pitch": 62,
              "velocity": 5,
              "position": 0.041666666666666664,
              "duration": 3.6166666666666667
            },
            {
              "pitch": 67,
              "velocity": 5,
              "position": 0.041666666666666664,
              "duration": 7.283333333333333
            },
            {
              "pitch": 65,
              "velocity": 35,
              "position": 3.6666666666666665,
              "duration": 3.658333333333333
            },
            {
              "pitch": 60,
              "velocity": 15,
              "position": 3.6666666666666665,
              "duration": 3.658333333333333
            },
            {
              "pitch": 33,
              "velocity": 35,
              "position": 3.6666666666666665,
              "duration": 3.658333333333333
            },
            {
              "pitch": 29,
              "velocity": 15,
              "position": 3.6666666666666665,
              "duration": 3.658333333333333
            },
            {
              "pitch": 31,
              "velocity": 5,
              "position": 8.010416666666666,
              "duration": 3.6479166666666667
            },
            {
              "pitch": 34,
              "velocity": 5,
              "position": 8.010416666666666,
              "duration": 3.6479166666666667
            },
            {
              "pitch": 63,
              "velocity": 5,
              "position": 8.010416666666666,
              "duration": 3.6479166666666667
            },
            {
              "pitch": 62,
              "velocity": 5,
              "position": 8.010416666666666,
              "duration": 3.6479166666666667
            },
            {
              "pitch": 67,
              "velocity": 5,
              "position": 8.010416666666666,
              "duration": 5.647916666666666
            },
            {
              "pitch": 65,
              "velocity": 55,
              "position": 11.666666666666666,
              "duration": 1.9916666666666667
            },
            {
              "pitch": 60,
              "velocity": 55,
              "position": 11.666666666666666,
              "duration": 1.9916666666666667
            },
            {
              "pitch": 33,
              "velocity": 75,
              "position": 11.666666666666666,
              "duration": 1.9916666666666667
            },
            {
              "pitch": 29,
              "velocity": 55,
              "position": 11.666666666666666,
              "duration": 1.9916666666666667
            },
            {
              "pitch": 28,
              "velocity": 55,
              "position": 13.666666666666666,
              "duration": 1.6583333333333334
            },
            {
              "pitch": 68,
              "velocity": 55,
              "position": 13.666666666666666,
              "duration": 1.6583333333333334
            },
            {
              "pitch": 63,
              "velocity": 75,
              "position": 13.666666666666666,
              "duration": 1.6583333333333334
            },
            {
              "pitch": 61,
              "velocity": 55,
              "position": 13.666666666666666,
              "duration": 1.6583333333333334
            },
            {
              "pitch": 34,
              "velocity": 75,
              "position": 13.666666666666666,
              "duration": 1.6583333333333334
            },
            {
              "pitch": 63,
              "velocity": 45,
              "position": 15.677083333333334,
              "duration": 3.9791666666666665
            },
            {
              "pitch": 70,
              "velocity": 46,
              "position": 15.677083333333334,
              "duration": 7.3125
            },
            {
              "pitch": 36,
              "velocity": 45,
              "position": 15.677083333333334,
              "duration": 7.3125
            },
            {
              "pitch": 67,
              "velocity": 45,
              "position": 15.677083333333334,
              "duration": 7.3125
            },
            {
              "pitch": 32,
              "velocity": 45,
              "position": 15.677083333333334,
              "duration": 7.3125
            },
            {
              "pitch": 64,
              "velocity": 55,
              "position": 19.666666666666668,
              "duration": 3.325
            },
            {
              "pitch": 32,
              "velocity": 45,
              "position": 23.677083333333332,
              "duration": 2.6458333333333335
            },
            {
              "pitch": 70,
              "velocity": 45,
              "position": 23.677083333333332,
              "duration": 2.6458333333333335
            },
            {
              "pitch": 67,
              "velocity": 45,
              "position": 23.677083333333332,
              "duration": 2.6458333333333335
            },
            {
              "pitch": 63,
              "velocity": 45,
              "position": 23.677083333333332,
              "duration": 2.6458333333333335
            },
            {
              "pitch": 36,
              "velocity": 45,
              "position": 23.677083333333332,
              "duration": 2.6458333333333335
            },
            {
              "pitch": 30,
              "velocity": 43,
              "position": 26.677083333333332,
              "duration": 0.325
            },
            {
              "pitch": 68,
              "velocity": 43,
              "position": 26.677083333333332,
              "duration": 0.325
            },
            {
              "pitch": 65,
              "velocity": 43,
              "position": 26.677083333333332,
              "duration": 0.325
            },
            {
              "pitch": 60,
              "velocity": 43,
              "position": 26.677083333333332,
              "duration": 0.325
            },
            {
              "pitch": 34,
              "velocity": 43,
              "position": 26.677083333333332,
              "duration": 0.325
            },
            {
              "pitch": 29,
              "velocity": 45,
              "position": 27.666666666666668,
              "duration": 1.24375
            },
            {
              "pitch": 70,
              "velocity": 45,
              "position": 27.666666666666668,
              "duration": 1.24375
            },
            {
              "pitch": 67,
              "velocity": 45,
              "position": 27.666666666666668,
              "duration": 1.24375
            },
            {
              "pitch": 63,
              "velocity": 45,
              "position": 27.666666666666668,
              "duration": 1.24375
            },
            {
              "pitch": 35,
              "velocity": 45,
              "position": 27.666666666666668,
              "duration": 1.24375
            },
            {
              "pitch": 29,
              "velocity": 91,
              "position": 28.922916666666666,
              "duration": 0.65625
            },
            {
              "pitch": 68,
              "velocity": 91,
              "position": 28.922916666666666,
              "duration": 0.65625
            },
            {
              "pitch": 65,
              "velocity": 91,
              "position": 28.922916666666666,
              "duration": 0.65625
            },
            {
              "pitch": 63,
              "velocity": 91,
              "position": 28.922916666666666,
              "duration": 0.65625
            },
            {
              "pitch": 35,
              "velocity": 91,
              "position": 28.922916666666666,
              "duration": 0.65625
            },
            {
              "pitch": 29,
              "velocity": 115,
              "position": 29.589583333333334,
              "duration": 1.9916666666666667
            },
            {
              "pitch": 67,
              "velocity": 115,
              "position": 29.589583333333334,
              "duration": 1.9916666666666667
            },
            {
              "pitch": 63,
              "velocity": 115,
              "position": 29.589583333333334,
              "duration": 1.9916666666666667
            },
            {
              "pitch": 59,
              "velocity": 115,
              "position": 29.589583333333334,
              "duration": 1.9916666666666667
            },
            {
              "pitch": 35,
              "velocity": 115,
              "position": 29.589583333333334,
              "duration": 1.9916666666666667
            }
          ]
        },
        "5": {
          "ctab": {
            "srcChannel": 5,
            "name": "Sp.Sax",
            "accType": "PHRASE1",
            "editable": false,
            "mutedNotes": [],
            "mutedChords": [
              "1+2+5",
              "sus4",
              "1+5",
              "1+8",
              "7aug",
              "Maj7aug",
              "7(#9)",
              "7(b13)",
              "7(b9)",
              "7(13)",
              "7#11",
              "7(9)",
              "7b5",
              "7sus4",
              "7th",
              "aug",
              "Maj6(9)",
              "Maj7(9)",
              "Maj(9)",
              "Maj7#11",
              "Maj7",
              "Maj6",
              "Maj"
            ],
            "autoStart": false,
            "sourceChordNote": 0,
            "sourceChordType": "min",
            "ctb2Low": null,
            "ctb2Main": {
              "ntr": "ROOT_TRANSPOSITION",
              "ntt": "BYPASS",
              "bassOn": false,
              "chordRootUpperLimit": 7,
              "noteLowLimit": 0,
              "noteHighLimit": 127,
              "rtr": "PITCH_SHIFT"
            },
            "ctb2High": null
          },
          "notes": [
            {
              "pitch": 67,
              "velocity": 107,
              "position": 0.7270833333333333,
              "duration": 0.36041666666666666
            },
            {
              "pitch": 67,
              "velocity": 86,
              "position": 2.0145833333333334,
              "duration": 0.6395833333333333
            },
            {
              "pitch": 70,
              "velocity": 96,
              "position": 2.7125,
              "duration": 0.2520833333333333
            },
            {
              "pitch": 63,
              "velocity": 60,
              "position": 3.1020833333333333,
              "duration": 0.5520833333333334
            },
            {
              "pitch": 65,
              "velocity": 86,
              "position": 3.65,
              "duration": 0.39375
            },
            {
              "pitch": 67,
              "velocity": 96,
              "position": 3.995833333333333,
              "duration": 0.61875
            },
            {
              "pitch": 67,
              "velocity": 70,
              "position": 4.927083333333333,
              "duration": 0.64375
            },
            {
              "pitch": 67,
              "velocity": 96,
              "position": 5.68125,
              "duration": 2.3333333333333335
            },
            {
              "pitch": 67,
              "velocity": 96,
              "position": 8.70625,
              "duration": 0.325
            },
            {
              "pitch": 72,
              "velocity": 107,
              "position": 9.625,
              "duration": 1.0166666666666666
            },
            {
              "pitch": 70,
              "velocity": 86,
              "position": 10.65,
              "duration": 0.39375
            },
            {
              "pitch": 63,
              "velocity": 60,
              "position": 11.102083333333333,
              "duration": 0.5520833333333334
            },
            {
              "pitch": 65,
              "velocity": 86,
              "position": 11.65,
              "duration": 0.39375
            },
            {
              "pitch": 67,
              "velocity": 96,
              "position": 11.995833333333334,
              "duration": 0.64375
            },
            {
              "pitch": 63,
              "velocity": 40,
              "position": 12.647916666666667,
              "duration": 0.22083333333333333
            },
            {
              "pitch": 67,
              "velocity": 86,
              "position": 13.033333333333333,
              "duration": 0.5708333333333333
            },
            {
              "pitch": 68,
              "velocity": 96,
              "position": 13.652083333333334,
              "duration": 1.2208333333333334
            },
            {
              "pitch": 69,
              "velocity": 30,
              "position": 14.827083333333333,
              "duration": 0.25
            },
            {
              "pitch": 70,
              "velocity": 86,
              "position": 15.010416666666666,
              "duration": 0.6479166666666667
            },
            {
              "pitch": 67,
              "velocity": 96,
              "position": 15.683333333333334,
              "duration": 1.84375
            },
            {
              "pitch": 66,
              "velocity": 107,
              "position": 17.708333333333332,
              "duration": 0.11458333333333333
            },
            {
              "pitch": 67,
              "velocity": 86,
              "position": 18.114583333333332,
              "duration": 0.6020833333333333
            },
            {
              "pitch": 70,
              "velocity": 108,
              "position": 18.702083333333334,
              "duration": 0.25
            },
            {
              "pitch": 60,
              "velocity": 60,
              "position": 19.102083333333333,
              "duration": 0.5520833333333334
            },
            {
              "pitch": 64,
              "velocity": 86,
              "position": 19.65,
              "duration": 0.39375
            },
            {
              "pitch": 67,
              "velocity": 109,
              "position": 20.09375,
              "duration": 0.6520833333333333
            },
            {
              "pitch": 67,
              "velocity": 86,
              "position": 21.022916666666667,
              "duration": 0.6020833333333333
            },
            {
              "pitch": 67,
              "velocity": 96,
              "position": 21.666666666666668,
              "duration": 2.3020833333333335
            },
            {
              "pitch": 67,
              "velocity": 109,
              "position": 24.70625,
              "duration": 0.4083333333333333
            },
            {
              "pitch": 70,
              "velocity": 107,
              "position": 25.625,
              "duration": 1.0166666666666666
            },
            {
              "pitch": 68,
              "velocity": 86,
              "position": 26.65,
              "duration": 0.39375
            },
            {
              "pitch": 63,
              "velocity": 60,
              "position": 27.110416666666666,
              "duration": 0.5520833333333334
            },
            {
              "pitch": 65,
              "velocity": 86,
              "position": 27.65,
              "duration": 0.39375
            },
            {
              "pitch": 67,
              "velocity": 96,
              "position": 28.091666666666665,
              "duration": 0.54375
            },
            {
              "pitch": 68,
              "velocity": 86,
              "position": 28.977083333333333,
              "duration": 0.625
            },
            {
              "pitch": 67,
              "velocity": 96,
              "position": 29.610416666666666,
              "duration": 2.31875
            }
          ]
        },
        "6": {
          "ctab": {
            "srcChannel": 6,
            "name": "BalladDX",
            "accType": "PHRASE2",
            "editable": false,
            "mutedNotes": [],
            "mutedChords": [
              "1+2+5",
              "sus4",
              "1+5",
              "1+8",
              "7aug",
              "Maj7aug",
              "7(#9)",
              "7(b13)",
              "7(b9)",
              "7(13)",
              "7#11",
              "7(9)",
              "7b5",
              "7sus4",
              "7th",
              "aug",
              "Maj6(9)",
              "Maj7(9)",
              "Maj(9)",
              "Maj7#11",
              "Maj7",
              "Maj6",
              "Maj"
            ],
            "autoStart": false,
            "sourceChordNote": 0,
            "sourceChordType": "min",
            "ctb2Low": null,
            "ctb2Main": {
              "ntr": "ROOT_TRANSPOSITION",
              "ntt": "BYPASS",
              "bassOn": false,
              "chordRootUpperLimit": 7,
              "noteLowLimit": 54,
              "noteHighLimit": 65,
              "rtr": "PITCH_SHIFT"
            },
            "ctb2High": null
          },
          "notes": [
            {
              "pitch": 63,
              "velocity": 114,
              "position": 0,
              "duration": 3.658333333333333
            },
            {
              "pitch": 79,
              "velocity": 114,
              "position": 0.03125,
              "duration": 3.627083333333333
            },
            {
              "pitch": 86,
              "velocity": 114,
              "position": 0.020833333333333332,
              "duration": 3.6375
            },
            {
              "pitch": 58,
              "velocity": 114,
              "position": 0.010416666666666666,
              "duration": 3.6479166666666667
            },
            {
              "pitch": 43,
              "velocity": 30,
              "position": 0.010416666666666666,
              "duration": 3.6479166666666667
            },
            {
              "pitch": 81,
              "velocity": 62,
              "position": 3.6666666666666665,
              "duration": 4.325
            },
            {
              "pitch": 60,
              "velocity": 62,
              "position": 3.6979166666666665,
              "duration": 4.29375
            },
            {
              "pitch": 53,
              "velocity": 62,
              "position": 3.6875,
              "duration": 4.304166666666666
            },
            {
              "pitch": 43,
              "velocity": 30,
              "position": 3.6875,
              "duration": 4.304166666666666
            },
            {
              "pitch": 79,
              "velocity": 62,
              "position": 3.6770833333333335,
              "duration": 4.314583333333333
            },
            {
              "pitch": 62,
              "velocity": 79,
              "position": 8,
              "duration": 3.658333333333333
            },
            {
              "pitch": 82,
              "velocity": 79,
              "position": 8.03125,
              "duration": 3.627083333333333
            },
            {
              "pitch": 75,
              "velocity": 79,
              "position": 8.020833333333334,
              "duration": 3.6375
            },
            {
              "pitch": 55,
              "velocity": 79,
              "position": 8.010416666666666,
              "duration": 3.6479166666666667
            },
            {
              "pitch": 43,
              "velocity": 30,
              "position": 8.010416666666666,
              "duration": 3.6479166666666667
            },
            {
              "pitch": 81,
              "velocity": 62,
              "position": 11.666666666666666,
              "duration": 1.9916666666666667
            },
            {
              "pitch": 60,
              "velocity": 62,
              "position": 11.697916666666666,
              "duration": 1.9604166666666667
            },
            {
              "pitch": 53,
              "velocity": 62,
              "position": 11.6875,
              "duration": 1.9708333333333334
            },
            {
              "pitch": 43,
              "velocity": 30,
              "position": 11.6875,
              "duration": 1.9708333333333334
            },
            {
              "pitch": 79,
              "velocity": 62,
              "position": 11.677083333333334,
              "duration": 1.98125
            },
            {
              "pitch": 87,
              "velocity": 97,
              "position": 13.666666666666666,
              "duration": 1.9916666666666667
            },
            {
              "pitch": 58,
              "velocity": 97,
              "position": 13.697916666666666,
              "duration": 1.9604166666666667
            },
            {
              "pitch": 52,
              "velocity": 97,
              "position": 13.6875,
              "duration": 1.9708333333333334
            },
            {
              "pitch": 42,
              "velocity": 30,
              "position": 13.6875,
              "duration": 1.9708333333333334
            },
            {
              "pitch": 80,
              "velocity": 97,
              "position": 13.677083333333334,
              "duration": 1.98125
            },
            {
              "pitch": 84,
              "velocity": 114,
              "position": 15.666666666666666,
              "duration": 3.9916666666666667
            },
            {
              "pitch": 63,
              "velocity": 114,
              "position": 15.697916666666666,
              "duration": 3.9604166666666667
            },
            {
              "pitch": 56,
              "velocity": 114,
              "position": 15.6875,
              "duration": 3.970833333333333
            },
            {
              "pitch": 41,
              "velocity": 30,
              "position": 15.6875,
              "duration": 3.970833333333333
            },
            {
              "pitch": 79,
              "velocity": 114,
              "position": 15.677083333333334,
              "duration": 3.98125
            },
            {
              "pitch": 84,
              "velocity": 62,
              "position": 19.666666666666668,
              "duration": 3.9916666666666667
            },
            {
              "pitch": 64,
              "velocity": 62,
              "position": 19.697916666666668,
              "duration": 3.9604166666666667
            },
            {
              "pitch": 56,
              "velocity": 62,
              "position": 19.6875,
              "duration": 3.970833333333333
            },
            {
              "pitch": 41,
              "velocity": 30,
              "position": 19.6875,
              "duration": 3.970833333333333
            },
            {
              "pitch": 79,
              "velocity": 62,
              "position": 19.677083333333332,
              "duration": 3.98125
            },
            {
              "pitch": 84,
              "velocity": 79,
              "position": 23.666666666666668,
              "duration": 2.658333333333333
            },
            {
              "pitch": 63,
              "velocity": 79,
              "position": 23.697916666666668,
              "duration": 2.627083333333333
            },
            {
              "pitch": 56,
              "velocity": 79,
              "position": 23.6875,
              "duration": 2.6375
            },
            {
              "pitch": 41,
              "velocity": 30,
              "position": 23.6875,
              "duration": 2.6375
            },
            {
              "pitch": 79,
              "velocity": 79,
              "position": 23.677083333333332,
              "duration": 2.6479166666666667
            },
            {
              "pitch": 80,
              "velocity": 97,
              "position": 26.666666666666668,
              "duration": 0.325
            },
            {
              "pitch": 60,
              "velocity": 97,
              "position": 26.697916666666668,
              "duration": 0.29375
            },
            {
              "pitch": 54,
              "velocity": 97,
              "position": 26.6875,
              "duration": 0.30416666666666664
            },
            {
              "pitch": 44,
              "velocity": 30,
              "position": 26.6875,
              "duration": 0.30416666666666664
            },
            {
              "pitch": 77,
              "velocity": 97,
              "position": 26.677083333333332,
              "duration": 0.3145833333333333
            },
            {
              "pitch": 82,
              "velocity": 114,
              "position": 27.666666666666668,
              "duration": 1.9916666666666667
            },
            {
              "pitch": 59,
              "velocity": 114,
              "position": 27.697916666666668,
              "duration": 1.9604166666666667
            },
            {
              "pitch": 53,
              "velocity": 114,
              "position": 27.6875,
              "duration": 1.9708333333333334
            },
            {
              "pitch": 43,
              "velocity": 30,
              "position": 27.6875,
              "duration": 1.9708333333333334
            },
            {
              "pitch": 75,
              "velocity": 114,
              "position": 27.677083333333332,
              "duration": 1.98125
            },
            {
              "pitch": 79,
              "velocity": 97,
              "position": 29.666666666666668,
              "duration": 2.325
            },
            {
              "pitch": 59,
              "velocity": 97,
              "position": 29.697916666666668,
              "duration": 2.29375
            },
            {
              "pitch": 53,
              "velocity": 97,
              "position": 29.6875,
              "duration": 2.3041666666666667
            },
            {
              "pitch": 43,
              "velocity": 30,
              "position": 29.6875,
              "duration": 2.3041666666666667
            },
            {
              "pitch": 75,
              "velocity": 97,
              "position": 29.677083333333332,
              "duration": 2.314583333333333
            }
          ]
        },
        "8": {
          "ctab": {
            "srcChannel": 8,
            "name": "AddDrum",
            "accType": "SUBRHYTHM",
            "editable": false,
            "mutedNotes": [],
            "mutedChords": [],
            "autoStart": true,
            "sourceChordNote": 0,
            "sourceChordType": "Maj7",
            "ctb2Low": null,
            "ctb2Main": {
              "ntr": "ROOT_FIXED",
              "ntt": "BYPASS",
              "bassOn": false,
              "chordRootUpperLimit": 6,
              "noteLowLimit": 0,
              "noteHighLimit": 127,
              "rtr": "PITCH_SHIFT"
            },
            "ctb2High": null
          },
          "notes": [
            {
              "pitch": 73,
              "velocity": 75,
              "position": 0,
              "duration": 0.020833333333333332
            },
            {
              "pitch": 73,
              "velocity": 95,
              "position": 1,
              "duration": 0.020833333333333332
            },
            {
              "pitch": 73,
              "velocity": 75,
              "position": 2,
              "duration": 0.020833333333333332
            },
            {
              "pitch": 73,
              "velocity": 95,
              "position": 3,
              "duration": 0.020833333333333332
            },
            {
              "pitch": 73,
              "velocity": 75,
              "position": 4,
              "duration": 0.020833333333333332
            },
            {
              "pitch": 73,
              "velocity": 95,
              "position": 5,
              "duration": 0.020833333333333332
            },
            {
              "pitch": 73,
              "velocity": 75,
              "position": 6,
              "duration": 0.020833333333333332
            },
            {
              "pitch": 73,
              "velocity": 95,
              "position": 7,
              "duration": 0.020833333333333332
            },
            {
              "pitch": 73,
              "velocity": 75,
              "position": 8,
              "duration": 0.020833333333333332
            },
            {
              "pitch": 73,
              "velocity": 95,
              "position": 9,
              "duration": 0.020833333333333332
            },
            {
              "pitch": 73,
              "velocity": 75,
              "position": 10,
              "duration": 0.020833333333333332
            },
            {
              "pitch": 73,
              "velocity": 95,
              "position": 11,
              "duration": 0.020833333333333332
            },
            {
              "pitch": 73,
              "velocity": 75,
              "position": 12,
              "duration": 0.020833333333333332
            },
            {
              "pitch": 73,
              "velocity": 95,
              "position": 13,
              "duration": 0.020833333333333332
            },
            {
              "pitch": 73,
              "velocity": 75,
              "position": 14,
              "duration": 0.020833333333333332
            },
            {
              "pitch": 73,
              "velocity": 95,
              "position": 15,
              "duration": 0.020833333333333332
            },
            {
              "pitch": 73,
              "velocity": 75,
              "position": 16,
              "duration": 0.020833333333333332
            },
            {
              "pitch": 73,
              "velocity": 95,
              "position": 17,
              "duration": 0.020833333333333332
            },
            {
              "pitch": 73,
              "velocity": 75,
              "position": 18,
              "duration": 0.020833333333333332
            },
            {
              "pitch": 73,
              "velocity": 95,
              "position": 19,
              "duration": 0.020833333333333332
            },
            {
              "pitch": 73,
              "velocity": 75,
              "position": 20,
              "duration": 0.020833333333333332
            },
            {
              "pitch": 73,
              "velocity": 95,
              "position": 21,
              "duration": 0.020833333333333332
            },
            {
              "pitch": 73,
              "velocity": 75,
              "position": 22,
              "duration": 0.020833333333333332
            },
            {
              "pitch": 73,
              "velocity": 95,
              "position": 23,
              "duration": 0.020833333333333332
            },
            {
              "pitch": 73,
              "velocity": 75,
              "position": 24,
              "duration": 0.020833333333333332
            },
            {
              "pitch": 73,
              "velocity": 95,
              "position": 25,
              "duration": 0.020833333333333332
            },
            {
              "pitch": 73,
              "velocity": 75,
              "position": 26,
              "duration": 0.020833333333333332
            },
            {
              "pitch": 73,
              "velocity": 95,
              "position": 27,
              "duration": 0.020833333333333332
            },
            {
              "pitch": 73,
              "velocity": 75,
              "position": 28,
              "duration": 0.020833333333333332
            },
            {
              "pitch": 73,
              "velocity": 95,
              "position": 29,
              "duration": 0.020833333333333332
            },
            {
              "pitch": 73,
              "velocity": 75,
              "position": 30,
              "duration": 0.020833333333333332
            },
            {
              "pitch": 73,
              "velocity": 95,
              "position": 31,
              "duration": 0.020833333333333332
            }
          ]
        },
        "9": {
          "ctab": {
            "srcChannel": 9,
            "name": "MainDrum",
            "accType": "RHYTHM",
            "editable": false,
            "mutedNotes": [],
            "mutedChords": [],
            "autoStart": true,
            "sourceChordNote": 0,
            "sourceChordType": "Maj7",
            "ctb2Low": null,
            "ctb2Main": {
              "ntr": "ROOT_FIXED",
              "ntt": "BYPASS",
              "bassOn": false,
              "chordRootUpperLimit": 6,
              "noteLowLimit": 0,
              "noteHighLimit": 127,
              "rtr": "PITCH_SHIFT"
            },
            "ctb2High": null
          },
          "notes": [
            {
              "pitch": 33,
              "velocity": 80,
              "position": 0,
              "duration": 0.020833333333333332
            },
            {
              "pitch": 51,
              "velocity": 50,
              "position": 0,
              "duration": 0.020833333333333332
            },
            {
              "pitch": 44,
              "velocity": 30,
              "position": 0,
              "duration": 0.020833333333333332
            },
            {
              "pitch": 31,
              "velocity": 16,
              "position": 0.3333333333333333,
              "duration": 0.020833333333333332
            },
            {
              "pitch": 40,
              "velocity": 32,
              "position": 0.6666666666666666,
              "duration": 0.020833333333333332
            },
            {
              "pitch": 44,
              "velocity": 50,
              "position": 1,
              "duration": 0.020833333333333332
            },
            {
              "pitch": 51,
              "velocity": 50,
              "position": 1,
              "duration": 0.020833333333333332
            },
            {
              "pitch": 31,
              "velocity": 20,
              "position": 1.3333333333333333,
              "duration": 0.020833333333333332
            },
            {
              "pitch": 33,
              "velocity": 60,
              "position": 1.6666666666666667,
              "duration": 0.020833333333333332
            },
            {
              "pitch": 40,
              "velocity": 103,
              "position": 2,
              "duration": 0.020833333333333332
            },
            {
              "pitch": 51,
              "velocity": 50,
              "position": 2,
              "duration": 0.020833333333333332
            },
            {
              "pitch": 44,
              "velocity": 30,
              "position": 2,
              "duration": 0.020833333333333332
            },
            {
              "pitch": 31,
              "velocity": 20,
              "position": 2.3333333333333335,
              "duration": 0.020833333333333332
            },
            {
              "pitch": 40,
              "velocity": 23,
              "position": 2.6666666666666665,
              "duration": 0.020833333333333332
            },
            {
              "pitch": 44,
              "velocity": 50,
              "position": 3,
              "duration": 0.020833333333333332
            },
            {
              "pitch": 51,
              "velocity": 50,
              "position": 3,
              "duration": 0.020833333333333332
            },
            {
              "pitch": 31,
              "velocity": 20,
              "position": 3.3333333333333335,
              "duration": 0.020833333333333332
            },
            {
              "pitch": 33,
              "velocity": 80,
              "position": 3.6666666666666665,
              "duration": 0.020833333333333332
            },
            {
              "pitch": 51,
              "velocity": 30,
              "position": 3.6666666666666665,
              "duration": 0.020833333333333332
            },
            {
              "pitch": 44,
              "velocity": 30,
              "position": 4,
              "duration": 0.020833333333333332
            },
            {
              "pitch": 51,
              "velocity": 50,
              "position": 4,
              "duration": 0.020833333333333332
            },
            {
              "pitch": 31,
              "velocity": 16,
              "position": 4.333333333333333,
              "duration": 0.020833333333333332
            },
            {
              "pitch": 40,
              "velocity": 32,
              "position": 4.666666666666667,
              "duration": 0.020833333333333332
            },
            {
              "pitch": 44,
              "velocity": 50,
              "position": 5,
              "duration": 0.020833333333333332
            },
            {
              "pitch": 51,
              "velocity": 50,
              "position": 5,
              "duration": 0.020833333333333332
            },
            {
              "pitch": 31,
              "velocity": 20,
              "position": 5.333333333333333,
              "duration": 0.020833333333333332
            },
            {
              "pitch": 33,
              "velocity": 60,
              "position": 5.666666666666667,
              "duration": 0.020833333333333332
            },
            {
              "pitch": 40,
              "velocity": 103,
              "position": 6,
              "duration": 0.020833333333333332
            },
            {
              "pitch": 51,
              "velocity": 50,
              "position": 6,
              "duration": 0.020833333333333332
            },
            {
              "pitch": 44,
              "velocity": 30,
              "position": 6,
              "duration": 0.020833333333333332
            },
            {
              "pitch": 31,
              "velocity": 20,
              "position": 6.333333333333333,
              "duration": 0.020833333333333332
            },
            {
              "pitch": 40,
              "velocity": 20,
              "position": 6.666666666666667,
              "duration": 0.020833333333333332
            },
            {
              "pitch": 44,
              "velocity": 50,
              "position": 7,
              "duration": 0.020833333333333332
            },
            {
              "pitch": 51,
              "velocity": 50,
              "position": 7,
              "duration": 0.020833333333333332
            },
            {
              "pitch": 31,
              "velocity": 20,
              "position": 7.333333333333333,
              "duration": 0.020833333333333332
            },
            {
              "pitch": 33,
              "velocity": 40,
              "position": 7.666666666666667,
              "duration": 0.020833333333333332
            },
            {
              "pitch": 51,
              "velocity": 30,
              "position": 7.666666666666667,
              "duration": 0.020833333333333332
            },
            {
              "pitch": 33,
              "velocity": 80,
              "position": 8,
              "duration": 0.020833333333333332
            },
            {
              "pitch": 51,
              "velocity": 50,
              "position": 8,
              "duration": 0.020833333333333332
            },
            {
              "pitch": 44,
              "velocity": 30,
              "position": 8,
              "duration": 0.020833333333333332
            },
            {
              "pitch": 31,
              "velocity": 16,
              "position": 8.333333333333334,
              "duration": 0.020833333333333332
            },
            {
              "pitch": 40,
              "velocity": 32,
              "position": 8.666666666666666,
              "duration": 0.020833333333333332
            },
            {
              "pitch": 44,
              "velocity": 50,
              "position": 9,
              "duration": 0.020833333333333332
            },
            {
              "pitch": 51,
              "velocity": 50,
              "position": 9,
              "duration": 0.020833333333333332
            },
            {
              "pitch": 31,
              "velocity": 20,
              "position": 9.333333333333334,
              "duration": 0.020833333333333332
            },
            {
              "pitch": 33,
              "velocity": 60,
              "position": 9.666666666666666,
              "duration": 0.020833333333333332
            },
            {
              "pitch": 40,
              "velocity": 103,
              "position": 10,
              "duration": 0.020833333333333332
            },
            {
              "pitch": 51,
              "velocity": 50,
              "position": 10,
              "duration": 0.020833333333333332
            },
            {
              "pitch": 44,
              "velocity": 30,
              "position": 10,
              "duration": 0.020833333333333332
            },
            {
              "pitch": 31,
              "velocity": 20,
              "position": 10.333333333333334,
              "duration": 0.020833333333333332
            },
            {
              "pitch": 40,
              "velocity": 20,
              "position": 10.666666666666666,
              "duration": 0.020833333333333332
            },
            {
              "pitch": 44,
              "velocity": 50,
              "position": 11,
              "duration": 0.020833333333333332
            },
            {
              "pitch": 51,
              "velocity": 50,
              "position": 11,
              "duration": 0.020833333333333332
            },
            {
              "pitch": 31,
              "velocity": 20,
              "position": 11.333333333333334,
              "duration": 0.020833333333333332
            },
            {
              "pitch": 33,
              "velocity": 80,
              "position": 11.666666666666666,
              "duration": 0.020833333333333332
            },
            {
              "pitch": 51,
              "velocity": 30,
              "position": 11.666666666666666,
              "duration": 0.020833333333333332
            },
            {
              "pitch": 44,
              "velocity": 30,
              "position": 12,
              "duration": 0.020833333333333332
            },
            {
              "pitch": 51,
              "velocity": 50,
              "position": 12,
              "duration": 0.020833333333333332
            },
            {
              "pitch": 31,
              "velocity": 16,
              "position": 12.333333333333334,
              "duration": 0.020833333333333332
            },
            {
              "pitch": 40,
              "velocity": 32,
              "position": 12.666666666666666,
              "duration": 0.020833333333333332
            },
            {
              "pitch": 44,
              "velocity": 50,
              "position": 13,
              "duration": 0.020833333333333332
            },
            {
              "pitch": 51,
              "velocity": 50,
              "position": 13,
              "duration": 0.020833333333333332
            },
            {
              "pitch": 31,
              "velocity": 20,
              "position": 13.333333333333334,
              "duration": 0.020833333333333332
            },
            {
              "pitch": 33,
              "velocity": 80,
              "position": 13.666666666666666,
              "duration": 0.020833333333333332
            },
            {
              "pitch": 40,
              "velocity": 103,
              "position": 14,
              "duration": 0.020833333333333332
            },
            {
              "pitch": 51,
              "velocity": 50,
              "position": 14,
              "duration": 0.020833333333333332
            },
            {
              "pitch": 44,
              "velocity": 30,
              "position": 14,
              "duration": 0.020833333333333332
            },
            {
              "pitch": 31,
              "velocity": 20,
              "position": 14.333333333333334,
              "duration": 0.020833333333333332
            },
            {
              "pitch": 40,
              "velocity": 20,
              "position": 14.666666666666666,
              "duration": 0.020833333333333332
            },
            {
              "pitch": 44,
              "velocity": 50,
              "position": 15,
              "duration": 0.020833333333333332
            },
            {
              "pitch": 51,
              "velocity": 50,
              "position": 15,
              "duration": 0.020833333333333332
            },
            {
              "pitch": 31,
              "velocity": 20,
              "position": 15.333333333333334,
              "duration": 0.020833333333333332
            },
            {
              "pitch": 33,
              "velocity": 80,
              "position": 15.666666666666666,
              "duration": 0.020833333333333332
            },
            {
              "pitch": 51,
              "velocity": 30,
              "position": 15.666666666666666,
              "duration": 0.020833333333333332
            },
            {
              "pitch": 44,
              "velocity": 30,
              "position": 16,
              "duration": 0.020833333333333332
            },
            {
              "pitch": 51,
              "velocity": 50,
              "position": 16,
              "duration": 0.020833333333333332
            },
            {
              "pitch": 31,
              "velocity": 16,
              "position": 16.333333333333332,
              "duration": 0.020833333333333332
            },
            {
              "pitch": 40,
              "velocity": 32,
              "position": 16.666666666666668,
              "duration": 0.020833333333333332
            },
            {
              "pitch": 44,
              "velocity": 50,
              "position": 17,
              "duration": 0.020833333333333332
            },
            {
              "pitch": 51,
              "velocity": 50,
              "position": 17,
              "duration": 0.020833333333333332
            },
            {
              "pitch": 31,
              "velocity": 20,
              "position": 17.333333333333332,
              "duration": 0.020833333333333332
            },
            {
              "pitch": 33,
              "velocity": 60,
              "position": 17.666666666666668,
              "duration": 0.020833333333333332
            },
            {
              "pitch": 40,
              "velocity": 103,
              "position": 18,
              "duration": 0.020833333333333332
            },
            {
              "pitch": 51,
              "velocity": 50,
              "position": 18,
              "duration": 0.020833333333333332
            },
            {
              "pitch": 44,
              "velocity": 30,
              "position": 18,
              "duration": 0.020833333333333332
            },
            {
              "pitch": 31,
              "velocity": 20,
              "position": 18.333333333333332,
              "duration": 0.020833333333333332
            },
            {
              "pitch": 40,
              "velocity": 23,
              "position": 18.666666666666668,
              "duration": 0.020833333333333332
            },
            {
              "pitch": 44,
              "velocity": 50,
              "position": 19,
              "duration": 0.020833333333333332
            },
            {
              "pitch": 51,
              "velocity": 50,
              "position": 19,
              "duration": 0.020833333333333332
            },
            {
              "pitch": 31,
              "velocity": 20,
              "position": 19.333333333333332,
              "duration": 0.020833333333333332
            },
            {
              "pitch": 33,
              "velocity": 80,
              "position": 19.666666666666668,
              "duration": 0.020833333333333332
            },
            {
              "pitch": 51,
              "velocity": 30,
              "position": 19.666666666666668,
              "duration": 0.020833333333333332
            },
            {
              "pitch": 44,
              "velocity": 30,
              "position": 20,
              "duration": 0.020833333333333332
            },
            {
              "pitch": 51,
              "velocity": 50,
              "position": 20,
              "duration": 0.020833333333333332
            },
            {
              "pitch": 31,
              "velocity": 16,
              "position": 20.333333333333332,
              "duration": 0.020833333333333332
            },
            {
              "pitch": 40,
              "velocity": 32,
              "position": 20.666666666666668,
              "duration": 0.020833333333333332
            },
            {
              "pitch": 44,
              "velocity": 50,
              "position": 21,
              "duration": 0.020833333333333332
            },
            {
              "pitch": 51,
              "velocity": 50,
              "position": 21,
              "duration": 0.020833333333333332
            },
            {
              "pitch": 31,
              "velocity": 20,
              "position": 21.333333333333332,
              "duration": 0.020833333333333332
            },
            {
              "pitch": 33,
              "velocity": 60,
              "position": 21.666666666666668,
              "duration": 0.020833333333333332
            },
            {
              "pitch": 40,
              "velocity": 103,
              "position": 22,
              "duration": 0.020833333333333332
            },
            {
              "pitch": 51,
              "velocity": 50,
              "position": 22,
              "duration": 0.020833333333333332
            },
            {
              "pitch": 44,
              "velocity": 30,
              "position": 22,
              "duration": 0.020833333333333332
            },
            {
              "pitch": 31,
              "velocity": 20,
              "position": 22.333333333333332,
              "duration": 0.020833333333333332
            },
            {
              "pitch": 40,
              "velocity": 20,
              "position": 22.666666666666668,
              "duration": 0.020833333333333332
            },
            {
              "pitch": 44,
              "velocity": 50,
              "position": 23,
              "duration": 0.020833333333333332
            },
            {
              "pitch": 51,
              "velocity": 50,
              "position": 23,
              "duration": 0.020833333333333332
            },
            {
              "pitch": 31,
              "velocity": 20,
              "position": 23.333333333333332,
              "duration": 0.020833333333333332
            },
            {
              "pitch": 33,
              "velocity": 80,
              "position": 23.666666666666668,
              "duration": 0.020833333333333332
            },
            {
              "pitch": 51,
              "velocity": 30,
              "position": 23.666666666666668,
              "duration": 0.020833333333333332
            },
            {
              "pitch": 44,
              "velocity": 30,
              "position": 24,
              "duration": 0.020833333333333332
            },
            {
              "pitch": 51,
              "velocity": 50,
              "position": 24,
              "duration": 0.020833333333333332
            },
            {
              "pitch": 31,
              "velocity": 16,
              "position": 24.333333333333332,
              "duration": 0.020833333333333332
            },
            {
              "pitch": 40,
              "velocity": 32,
              "position": 24.666666666666668,
              "duration": 0.020833333333333332
            },
            {
              "pitch": 44,
              "velocity": 50,
              "position": 25,
              "duration": 0.020833333333333332
            },
            {
              "pitch": 51,
              "velocity": 50,
              "position": 25,
              "duration": 0.020833333333333332
            },
            {
              "pitch": 31,
              "velocity": 20,
              "position": 25.333333333333332,
              "duration": 0.020833333333333332
            },
            {
              "pitch": 33,
              "velocity": 60,
              "position": 25.666666666666668,
              "duration": 0.020833333333333332
            },
            {
              "pitch": 40,
              "velocity": 103,
              "position": 26,
              "duration": 0.020833333333333332
            },
            {
              "pitch": 51,
              "velocity": 50,
              "position": 26,
              "duration": 0.020833333333333332
            },
            {
              "pitch": 44,
              "velocity": 30,
              "position": 26,
              "duration": 0.020833333333333332
            },
            {
              "pitch": 31,
              "velocity": 20,
              "position": 26.333333333333332,
              "duration": 0.020833333333333332
            },
            {
              "pitch": 33,
              "velocity": 60,
              "position": 26.666666666666668,
              "duration": 0.020833333333333332
            },
            {
              "pitch": 46,
              "velocity": 50,
              "position": 26.666666666666668,
              "duration": 0.020833333333333332
            },
            {
              "pitch": 40,
              "velocity": 20,
              "position": 26.666666666666668,
              "duration": 0.020833333333333332
            },
            {
              "pitch": 44,
              "velocity": 50,
              "position": 27,
              "duration": 0.020833333333333332
            },
            {
              "pitch": 51,
              "velocity": 50,
              "position": 27,
              "duration": 0.020833333333333332
            },
            {
              "pitch": 31,
              "velocity": 20,
              "position": 27.333333333333332,
              "duration": 0.020833333333333332
            },
            {
              "pitch": 33,
              "velocity": 80,
              "position": 27.666666666666668,
              "duration": 0.020833333333333332
            },
            {
              "pitch": 55,
              "velocity": 40,
              "position": 27.666666666666668,
              "duration": 0.020833333333333332
            },
            {
              "pitch": 49,
              "velocity": 60,
              "position": 27.995833333333334,
              "duration": 0.004166666666666667
            },
            {
              "pitch": 44,
              "velocity": 30,
              "position": 28,
              "duration": 0.020833333333333332
            },
            {
              "pitch": 51,
              "velocity": 50,
              "position": 28,
              "duration": 0.020833333333333332
            },
            {
              "pitch": 31,
              "velocity": 16,
              "position": 28.333333333333332,
              "duration": 0.020833333333333332
            },
            {
              "pitch": 40,
              "velocity": 83,
              "position": 28.666666666666668,
              "duration": 0.020833333333333332
            },
            {
              "pitch": 44,
              "velocity": 50,
              "position": 29,
              "duration": 0.020833333333333332
            },
            {
              "pitch": 51,
              "velocity": 50,
              "position": 29,
              "duration": 0.020833333333333332
            },
            {
              "pitch": 31,
              "velocity": 20,
              "position": 29.333333333333332,
              "duration": 0.020833333333333332
            },
            {
              "pitch": 33,
              "velocity": 80,
              "position": 29.666666666666668,
              "duration": 0.020833333333333332
            },
            {
              "pitch": 57,
              "velocity": 50,
              "position": 29.666666666666668,
              "duration": 0.020833333333333332
            },
            {
              "pitch": 44,
              "velocity": 30,
              "position": 30,
              "duration": 0.020833333333333332
            },
            {
              "pitch": 31,
              "velocity": 20,
              "position": 30.333333333333332,
              "duration": 0.020833333333333332
            },
            {
              "pitch": 48,
              "velocity": 72,
              "position": 30.666666666666668,
              "duration": 0.020833333333333332
            },
            {
              "pitch": 44,
              "velocity": 50,
              "position": 31,
              "duration": 0.020833333333333332
            },
            {
              "pitch": 31,
              "velocity": 20,
              "position": 31.333333333333332,
              "duration": 0.020833333333333332
            },
            {
              "pitch": 33,
              "velocity": 40,
              "position": 31.666666666666668,
              "duration": 0.020833333333333332
            },
            {
              "pitch": 40,
              "velocity": 83,
              "position": 31.666666666666668,
              "duration": 0.020833333333333332
            },
            {
              "pitch": 49,
              "velocity": 60,
              "position": 31.989583333333332,
              "duration": 0.004166666666666667
            }
          ]
        },
        "10": {
          "ctab": {
            "srcChannel": 10,
            "name": "Bass",
            "accType": "BASS",
            "editable": false,
            "mutedNotes": [],
            "mutedChords": [
              "dim7",
              "dim",
              "minMaj7(9)",
              "minMaj7",
              "min7(11)",
              "min7(9)",
              "min(9)",
              "m7b5",
              "min7",
              "min6",
              "min"
            ],
            "autoStart": false,
            "sourceChordNote": 0,
            "sourceChordType": "Maj",
            "ctb2Low": null,
            "ctb2Main": {
              "ntr": "ROOT_TRANSPOSITION",
              "ntt": "BYPASS",
              "bassOn": false,
              "chordRootUpperLimit": 1,
              "noteLowLimit": 26,
              "noteHighLimit": 127,
              "rtr": "PITCH_SHIFT"
            },
            "ctb2High": null
          },
          "notes": [
            {
              "pitch": 31,
              "velocity": 60,
              "position": 0,
              "duration": 1.2375
            },
            {
              "pitch": 31,
              "velocity": 85,
              "position": 1.3333333333333333,
              "duration": 0.2375
            },
            {
              "pitch": 31,
              "velocity": 50,
              "position": 1.6666666666666667,
              "duration": 0.1375
            },
            {
              "pitch": 43,
              "velocity": 60,
              "position": 2,
              "duration": 1.5708333333333333
            },
            {
              "pitch": 31,
              "velocity": 60,
              "position": 3.6666666666666665,
              "duration": 1.9041666666666666
            },
            {
              "pitch": 43,
              "velocity": 60,
              "position": 5.666666666666667,
              "duration": 0.9041666666666667
            },
            {
              "pitch": 45,
              "velocity": 60,
              "position": 6.666666666666667,
              "duration": 0.325
            },
            {
              "pitch": 43,
              "velocity": 50,
              "position": 7,
              "duration": 0.14166666666666666
            },
            {
              "pitch": 38,
              "velocity": 101,
              "position": 7.333333333333333,
              "duration": 0.14166666666666666
            },
            {
              "pitch": 36,
              "velocity": 101,
              "position": 7.666666666666667,
              "duration": 0.14166666666666666
            },
            {
              "pitch": 31,
              "velocity": 60,
              "position": 8,
              "duration": 1.5708333333333333
            },
            {
              "pitch": 31,
              "velocity": 101,
              "position": 9.666666666666666,
              "duration": 0.2375
            },
            {
              "pitch": 43,
              "velocity": 60,
              "position": 10,
              "duration": 1.2375
            },
            {
              "pitch": 43,
              "velocity": 90,
              "position": 11.333333333333334,
              "duration": 0.2375
            },
            {
              "pitch": 31,
              "velocity": 60,
              "position": 11.666666666666666,
              "duration": 1.9041666666666666
            },
            {
              "pitch": 32,
              "velocity": 60,
              "position": 13.666666666666666,
              "duration": 1.5708333333333333
            },
            {
              "pitch": 32,
              "velocity": 90,
              "position": 15.333333333333334,
              "duration": 0.2375
            },
            {
              "pitch": 33,
              "velocity": 60,
              "position": 15.666666666666666,
              "duration": 1.5708333333333333
            },
            {
              "pitch": 43,
              "velocity": 85,
              "position": 17.333333333333332,
              "duration": 0.2375
            },
            {
              "pitch": 44,
              "velocity": 60,
              "position": 17.666666666666668,
              "duration": 0.2375
            },
            {
              "pitch": 45,
              "velocity": 60,
              "position": 18,
              "duration": 1.5666666666666667
            },
            {
              "pitch": 33,
              "velocity": 60,
              "position": 19.666666666666668,
              "duration": 1.9041666666666666
            },
            {
              "pitch": 45,
              "velocity": 60,
              "position": 21.666666666666668,
              "duration": 0.5708333333333333
            },
            {
              "pitch": 47,
              "velocity": 60,
              "position": 22.333333333333332,
              "duration": 0.325
            },
            {
              "pitch": 45,
              "velocity": 50,
              "position": 22.666666666666668,
              "duration": 0.175
            },
            {
              "pitch": 40,
              "velocity": 101,
              "position": 23,
              "duration": 0.175
            },
            {
              "pitch": 33,
              "velocity": 101,
              "position": 23.333333333333332,
              "duration": 0.175
            },
            {
              "pitch": 26,
              "velocity": 60,
              "position": 23.666666666666668,
              "duration": 1.9041666666666666
            },
            {
              "pitch": 26,
              "velocity": 101,
              "position": 25.666666666666668,
              "duration": 0.2375
            },
            {
              "pitch": 26,
              "velocity": 60,
              "position": 26,
              "duration": 0.5375
            },
            {
              "pitch": 32,
              "velocity": 60,
              "position": 26.666666666666668,
              "duration": 0.4375
            },
            {
              "pitch": 26,
              "velocity": 90,
              "position": 27.333333333333332,
              "duration": 0.2375
            },
            {
              "pitch": 31,
              "velocity": 60,
              "position": 27.666666666666668,
              "duration": 1.5708333333333333
            },
            {
              "pitch": 31,
              "velocity": 90,
              "position": 29.333333333333332,
              "duration": 0.2375
            },
            {
              "pitch": 43,
              "velocity": 60,
              "position": 29.666666666666668,
              "duration": 1.5708333333333333
            },
            {
              "pitch": 38,
              "velocity": 101,
              "position": 31.333333333333332,
              "duration": 0.2375
            },
            {
              "pitch": 31,
              "velocity": 60,
              "position": 31.666666666666668,
              "duration": 0.2375
            }
          ]
        },
        "11": {
          "ctab": {
            "srcChannel": 11,
            "name": "E.Piano",
            "accType": "CHORD1",
            "editable": false,
            "mutedNotes": [],
            "mutedChords": [
              "dim7",
              "dim",
              "minMaj7(9)",
              "minMaj7",
              "min7(11)",
              "min7(9)",
              "min(9)",
              "m7b5",
              "min7",
              "min6",
              "min"
            ],
            "autoStart": false,
            "sourceChordNote": 0,
            "sourceChordType": "Maj",
            "ctb2Low": null,
            "ctb2Main": {
              "ntr": "ROOT_TRANSPOSITION",
              "ntt": "BYPASS",
              "bassOn": false,
              "chordRootUpperLimit": 7,
              "noteLowLimit": 54,
              "noteHighLimit": 65,
              "rtr": "PITCH_SHIFT"
            },
            "ctb2High": null
          },
          "notes": [
            {
              "pitch": 62,
              "velocity": 90,
              "position": 0,
              "duration": 3.658333333333333
            },
            {
              "pitch": 83,
              "velocity": 90,
              "position": 0.03125,
              "duration": 3.627083333333333
            },
            {
              "pitch": 76,
              "velocity": 90,
              "position": 0.020833333333333332,
              "duration": 3.6375
            },
            {
              "pitch": 55,
              "velocity": 90,
              "position": 0.010416666666666666,
              "duration": 3.6479166666666667
            },
            {
              "pitch": 43,
              "velocity": 57,
              "position": 0.010416666666666666,
              "duration": 3.6479166666666667
            },
            {
              "pitch": 81,
              "velocity": 75,
              "position": 3.6666666666666665,
              "duration": 4.325
            },
            {
              "pitch": 60,
              "velocity": 75,
              "position": 3.6979166666666665,
              "duration": 4.29375
            },
            {
              "pitch": 53,
              "velocity": 75,
              "position": 3.6875,
              "duration": 4.304166666666666
            },
            {
              "pitch": 43,
              "velocity": 48,
              "position": 3.6875,
              "duration": 4.304166666666666
            },
            {
              "pitch": 76,
              "velocity": 75,
              "position": 3.6770833333333335,
              "duration": 4.314583333333333
            },
            {
              "pitch": 62,
              "velocity": 80,
              "position": 8,
              "duration": 3.658333333333333
            },
            {
              "pitch": 83,
              "velocity": 80,
              "position": 8.03125,
              "duration": 3.627083333333333
            },
            {
              "pitch": 76,
              "velocity": 80,
              "position": 8.020833333333334,
              "duration": 3.6375
            },
            {
              "pitch": 55,
              "velocity": 80,
              "position": 8.010416666666666,
              "duration": 3.6479166666666667
            },
            {
              "pitch": 43,
              "velocity": 51,
              "position": 8.010416666666666,
              "duration": 3.6479166666666667
            },
            {
              "pitch": 81,
              "velocity": 75,
              "position": 11.666666666666666,
              "duration": 1.9916666666666667
            },
            {
              "pitch": 60,
              "velocity": 75,
              "position": 11.697916666666666,
              "duration": 1.9604166666666667
            },
            {
              "pitch": 55,
              "velocity": 75,
              "position": 11.6875,
              "duration": 1.9708333333333334
            },
            {
              "pitch": 43,
              "velocity": 48,
              "position": 11.6875,
              "duration": 1.9708333333333334
            },
            {
              "pitch": 76,
              "velocity": 75,
              "position": 11.677083333333334,
              "duration": 1.98125
            },
            {
              "pitch": 82,
              "velocity": 85,
              "position": 13.666666666666666,
              "duration": 1.9916666666666667
            },
            {
              "pitch": 60,
              "velocity": 85,
              "position": 13.697916666666666,
              "duration": 1.9604166666666667
            },
            {
              "pitch": 54,
              "velocity": 85,
              "position": 13.6875,
              "duration": 1.9708333333333334
            },
            {
              "pitch": 44,
              "velocity": 54,
              "position": 13.6875,
              "duration": 1.9708333333333334
            },
            {
              "pitch": 77,
              "velocity": 85,
              "position": 13.677083333333334,
              "duration": 1.98125
            },
            {
              "pitch": 83,
              "velocity": 90,
              "position": 15.666666666666666,
              "duration": 3.9916666666666667
            },
            {
              "pitch": 62,
              "velocity": 90,
              "position": 15.697916666666666,
              "duration": 3.9604166666666667
            },
            {
              "pitch": 55,
              "velocity": 90,
              "position": 15.6875,
              "duration": 3.970833333333333
            },
            {
              "pitch": 45,
              "velocity": 57,
              "position": 15.6875,
              "duration": 3.970833333333333
            },
            {
              "pitch": 78,
              "velocity": 90,
              "position": 15.677083333333334,
              "duration": 3.98125
            },
            {
              "pitch": 83,
              "velocity": 75,
              "position": 19.666666666666668,
              "duration": 3.9916666666666667
            },
            {
              "pitch": 63,
              "velocity": 75,
              "position": 19.697916666666668,
              "duration": 3.9604166666666667
            },
            {
              "pitch": 55,
              "velocity": 75,
              "position": 19.6875,
              "duration": 3.970833333333333
            },
            {
              "pitch": 45,
              "velocity": 48,
              "position": 19.6875,
              "duration": 3.970833333333333
            },
            {
              "pitch": 78,
              "velocity": 75,
              "position": 19.677083333333332,
              "duration": 3.98125
            },
            {
              "pitch": 81,
              "velocity": 80,
              "position": 23.666666666666668,
              "duration": 2.658333333333333
            },
            {
              "pitch": 60,
              "velocity": 80,
              "position": 23.697916666666668,
              "duration": 2.627083333333333
            },
            {
              "pitch": 53,
              "velocity": 80,
              "position": 23.6875,
              "duration": 2.6375
            },
            {
              "pitch": 38,
              "velocity": 51,
              "position": 23.6875,
              "duration": 2.6375
            },
            {
              "pitch": 76,
              "velocity": 80,
              "position": 23.677083333333332,
              "duration": 2.6479166666666667
            },
            {
              "pitch": 80,
              "velocity": 85,
              "position": 26.666666666666668,
              "duration": 0.325
            },
            {
              "pitch": 60,
              "velocity": 85,
              "position": 26.697916666666668,
              "duration": 0.29375
            },
            {
              "pitch": 54,
              "velocity": 85,
              "position": 26.6875,
              "duration": 0.30416666666666664
            },
            {
              "pitch": 44,
              "velocity": 54,
              "position": 26.6875,
              "duration": 0.30416666666666664
            },
            {
              "pitch": 77,
              "velocity": 85,
              "position": 26.677083333333332,
              "duration": 0.3145833333333333
            },
            {
              "pitch": 81,
              "velocity": 90,
              "position": 27.666666666666668,
              "duration": 1.9916666666666667
            },
            {
              "pitch": 60,
              "velocity": 90,
              "position": 27.697916666666668,
              "duration": 1.9604166666666667
            },
            {
              "pitch": 53,
              "velocity": 90,
              "position": 27.6875,
              "duration": 1.9708333333333334
            },
            {
              "pitch": 43,
              "velocity": 57,
              "position": 27.6875,
              "duration": 1.9708333333333334
            },
            {
              "pitch": 76,
              "velocity": 90,
              "position": 27.677083333333332,
              "duration": 1.98125
            },
            {
              "pitch": 81,
              "velocity": 85,
              "position": 29.666666666666668,
              "duration": 2.325
            },
            {
              "pitch": 59,
              "velocity": 85,
              "position": 29.697916666666668,
              "duration": 2.29375
            },
            {
              "pitch": 53,
              "velocity": 85,
              "position": 29.6875,
              "duration": 2.3041666666666667
            },
            {
              "pitch": 43,
              "velocity": 54,
              "position": 29.6875,
              "duration": 2.3041666666666667
            },
            {
              "pitch": 76,
              "velocity": 85,
              "position": 29.677083333333332,
              "duration": 2.314583333333333
            }
          ]
        },
        "12": {
          "ctab": {
            "srcChannel": 12,
            "name": "JazzGtr",
            "accType": "CHORD2",
            "editable": false,
            "mutedNotes": [],
            "mutedChords": [
              "dim7",
              "dim",
              "minMaj7(9)",
              "minMaj7",
              "min7(11)",
              "min7(9)",
              "min(9)",
              "m7b5",
              "min7",
              "min6",
              "min"
            ],
            "autoStart": false,
            "sourceChordNote": 0,
            "sourceChordType": "Maj",
            "ctb2Low": null,
            "ctb2Main": {
              "ntr": "ROOT_TRANSPOSITION",
              "ntt": "BYPASS",
              "bassOn": false,
              "chordRootUpperLimit": 7,
              "noteLowLimit": 60,
              "noteHighLimit": 71,
              "rtr": "PITCH_SHIFT"
            },
            "ctb2High": null
          },
          "notes": [
            {
              "pitch": 55,
              "velocity": 41,
              "position": 0.010416666666666666,
              "duration": 1.0020833333333334
            },
            {
              "pitch": 64,
              "velocity": 41,
              "position": 0.020833333333333332,
              "duration": 1.6479166666666667
            },
            {
              "pitch": 71,
              "velocity": 41,
              "position": 0.03125,
              "duration": 2.627083333333333
            },
            {
              "pitch": 71,
              "velocity": 40,
              "position": 2.6666666666666665,
              "duration": 0.5333333333333333
            },
            {
              "pitch": 64,
              "velocity": 41,
              "position": 1.6770833333333333,
              "duration": 1.5333333333333334
            },
            {
              "pitch": 50,
              "velocity": 41,
              "position": 0.010416666666666666,
              "duration": 3.2
            },
            {
              "pitch": 55,
              "velocity": 30,
              "position": 1.0208333333333333,
              "duration": 2.2
            },
            {
              "pitch": 127,
              "velocity": 40,
              "position": 3.3333333333333335,
              "duration": 0.2916666666666667
            },
            {
              "pitch": 53,
              "velocity": 41,
              "position": 3.6875,
              "duration": 0.9708333333333333
            },
            {
              "pitch": 64,
              "velocity": 41,
              "position": 3.6770833333333335,
              "duration": 1.9916666666666667
            },
            {
              "pitch": 69,
              "velocity": 41,
              "position": 3.6666666666666665,
              "duration": 2.9916666666666667
            },
            {
              "pitch": 69,
              "velocity": 40,
              "position": 6.666666666666667,
              "duration": 0.9916666666666667
            },
            {
              "pitch": 64,
              "velocity": 41,
              "position": 5.677083333333333,
              "duration": 1.9916666666666667
            },
            {
              "pitch": 53,
              "velocity": 30,
              "position": 4.666666666666667,
              "duration": 3.0125
            },
            {
              "pitch": 48,
              "velocity": 41,
              "position": 3.6979166666666665,
              "duration": 3.9916666666666667
            },
            {
              "pitch": 126,
              "velocity": 40,
              "position": 7.666666666666667,
              "duration": 0.2916666666666667
            },
            {
              "pitch": 55,
              "velocity": 41,
              "position": 8.010416666666666,
              "duration": 1.0020833333333334
            },
            {
              "pitch": 71,
              "velocity": 41,
              "position": 8.03125,
              "duration": 1.6270833333333334
            },
            {
              "pitch": 64,
              "velocity": 41,
              "position": 8.020833333333334,
              "duration": 1.6479166666666667
            },
            {
              "pitch": 50,
              "velocity": 41,
              "position": 8,
              "duration": 3.2
            },
            {
              "pitch": 55,
              "velocity": 30,
              "position": 9.020833333333334,
              "duration": 2.2
            },
            {
              "pitch": 71,
              "velocity": 40,
              "position": 9.666666666666666,
              "duration": 1.6583333333333334
            },
            {
              "pitch": 64,
              "velocity": 30,
              "position": 9.677083333333334,
              "duration": 1.6583333333333334
            },
            {
              "pitch": 125,
              "velocity": 40,
              "position": 11.333333333333334,
              "duration": 0.2916666666666667
            },
            {
              "pitch": 69,
              "velocity": 41,
              "position": 11.666666666666666,
              "duration": 1.6583333333333334
            },
            {
              "pitch": 64,
              "velocity": 41,
              "position": 11.677083333333334,
              "duration": 1.6583333333333334
            },
            {
              "pitch": 55,
              "velocity": 41,
              "position": 11.6875,
              "duration": 1.6583333333333334
            },
            {
              "pitch": 48,
              "velocity": 41,
              "position": 11.697916666666666,
              "duration": 1.6583333333333334
            },
            {
              "pitch": 124,
              "velocity": 40,
              "position": 13.333333333333334,
              "duration": 0.2916666666666667
            },
            {
              "pitch": 70,
              "velocity": 40,
              "position": 13.666666666666666,
              "duration": 1.6583333333333334
            },
            {
              "pitch": 65,
              "velocity": 40,
              "position": 13.677083333333334,
              "duration": 1.6583333333333334
            },
            {
              "pitch": 54,
              "velocity": 40,
              "position": 13.6875,
              "duration": 1.6583333333333334
            },
            {
              "pitch": 48,
              "velocity": 40,
              "position": 13.697916666666666,
              "duration": 1.6583333333333334
            },
            {
              "pitch": 123,
              "velocity": 40,
              "position": 15.333333333333334,
              "duration": 0.2916666666666667
            },
            {
              "pitch": 55,
              "velocity": 41,
              "position": 15.6875,
              "duration": 1.325
            },
            {
              "pitch": 66,
              "velocity": 41,
              "position": 15.677083333333334,
              "duration": 1.9916666666666667
            },
            {
              "pitch": 71,
              "velocity": 41,
              "position": 15.666666666666666,
              "duration": 2.9916666666666667
            },
            {
              "pitch": 71,
              "velocity": 40,
              "position": 18.666666666666668,
              "duration": 0.5333333333333333
            },
            {
              "pitch": 66,
              "velocity": 41,
              "position": 17.677083333333332,
              "duration": 1.5333333333333334
            },
            {
              "pitch": 55,
              "velocity": 30,
              "position": 17.020833333333332,
              "duration": 2.2
            },
            {
              "pitch": 50,
              "velocity": 41,
              "position": 15.697916666666666,
              "duration": 3.658333333333333
            },
            {
              "pitch": 122,
              "velocity": 40,
              "position": 19.333333333333332,
              "duration": 0.2916666666666667
            },
            {
              "pitch": 71,
              "velocity": 40,
              "position": 19.666666666666668,
              "duration": 1.0020833333333334
            },
            {
              "pitch": 55,
              "velocity": 40,
              "position": 19.6875,
              "duration": 0.9916666666666667
            },
            {
              "pitch": 66,
              "velocity": 40,
              "position": 19.677083333333332,
              "duration": 1.98125
            },
            {
              "pitch": 51,
              "velocity": 40,
              "position": 19.697916666666668,
              "duration": 3.658333333333333
            },
            {
              "pitch": 66,
              "velocity": 40,
              "position": 21.666666666666668,
              "duration": 1.7
            },
            {
              "pitch": 71,
              "velocity": 41,
              "position": 20.677083333333332,
              "duration": 2.7
            },
            {
              "pitch": 55,
              "velocity": 30,
              "position": 20.6875,
              "duration": 2.7
            },
            {
              "pitch": 121,
              "velocity": 40,
              "position": 23.333333333333332,
              "duration": 0.2916666666666667
            },
            {
              "pitch": 69,
              "velocity": 41,
              "position": 23.666666666666668,
              "duration": 2.658333333333333
            },
            {
              "pitch": 64,
              "velocity": 41,
              "position": 23.677083333333332,
              "duration": 2.658333333333333
            },
            {
              "pitch": 53,
              "velocity": 41,
              "position": 23.6875,
              "duration": 2.658333333333333
            },
            {
              "pitch": 48,
              "velocity": 41,
              "position": 23.697916666666668,
              "duration": 2.658333333333333
            },
            {
              "pitch": 120,
              "velocity": 40,
              "position": 26.333333333333332,
              "duration": 0.2916666666666667
            },
            {
              "pitch": 68,
              "velocity": 30,
              "position": 26.666666666666668,
              "duration": 0.325
            },
            {
              "pitch": 65,
              "velocity": 30,
              "position": 26.677083333333332,
              "duration": 0.325
            },
            {
              "pitch": 54,
              "velocity": 30,
              "position": 26.6875,
              "duration": 0.325
            },
            {
              "pitch": 48,
              "velocity": 30,
              "position": 26.697916666666668,
              "duration": 0.325
            },
            {
              "pitch": 127,
              "velocity": 40,
              "position": 27,
              "duration": 0.2916666666666667
            },
            {
              "pitch": 69,
              "velocity": 41,
              "position": 27.666666666666668,
              "duration": 1.6583333333333334
            },
            {
              "pitch": 64,
              "velocity": 41,
              "position": 27.677083333333332,
              "duration": 1.6583333333333334
            },
            {
              "pitch": 53,
              "velocity": 41,
              "position": 27.6875,
              "duration": 1.6583333333333334
            },
            {
              "pitch": 48,
              "velocity": 41,
              "position": 27.697916666666668,
              "duration": 1.6583333333333334
            },
            {
              "pitch": 126,
              "velocity": 40,
              "position": 29.333333333333332,
              "duration": 0.2916666666666667
            },
            {
              "pitch": 69,
              "velocity": 40,
              "position": 29.666666666666668,
              "duration": 1.9916666666666667
            },
            {
              "pitch": 64,
              "velocity": 40,
              "position": 29.677083333333332,
              "duration": 1.9916666666666667
            },
            {
              "pitch": 53,
              "velocity": 40,
              "position": 29.6875,
              "duration": 1.9916666666666667
            },
            {
              "pitch": 47,
              "velocity": 40,
              "position": 29.697916666666668,
              "duration": 1.9916666666666667
            }
          ]
        },
        "13": {
          "ctab": {
            "srcChannel": 13,
            "name": "PopVocal",
            "accType": "PAD",
            "editable": false,
            "mutedNotes": [],
            "mutedChords": [
              "dim7",
              "dim",
              "minMaj7(9)",
              "minMaj7",
              "min7(11)",
              "min7(9)",
              "min(9)",
              "m7b5",
              "min7",
              "min6",
              "min"
            ],
            "autoStart": false,
            "sourceChordNote": 0,
            "sourceChordType": "Maj",
            "ctb2Low": null,
            "ctb2Main": {
              "ntr": "ROOT_TRANSPOSITION",
              "ntt": "BYPASS",
              "bassOn": false,
              "chordRootUpperLimit": 7,
              "noteLowLimit": 53,
              "noteHighLimit": 127,
              "rtr": "PITCH_SHIFT"
            },
            "ctb2High": null
          },
          "notes": [
            {
              "pitch": 31,
              "velocity": 5,
              "position": 0.041666666666666664,
              "duration": 3.6166666666666667
            },
            {
              "pitch": 35,
              "velocity": 5,
              "position": 0.041666666666666664,
              "duration": 3.6166666666666667
            },
            {
              "pitch": 64,
              "velocity": 5,
              "position": 0.041666666666666664,
              "duration": 3.6166666666666667
            },
            {
              "pitch": 62,
              "velocity": 5,
              "position": 0.041666666666666664,
              "duration": 3.6166666666666667
            },
            {
              "pitch": 67,
              "velocity": 5,
              "position": 0.041666666666666664,
              "duration": 7.283333333333333
            },
            {
              "pitch": 64,
              "velocity": 35,
              "position": 3.6666666666666665,
              "duration": 3.658333333333333
            },
            {
              "pitch": 60,
              "velocity": 15,
              "position": 3.6666666666666665,
              "duration": 3.658333333333333
            },
            {
              "pitch": 33,
              "velocity": 35,
              "position": 3.6666666666666665,
              "duration": 3.658333333333333
            },
            {
              "pitch": 29,
              "velocity": 15,
              "position": 3.6666666666666665,
              "duration": 3.658333333333333
            },
            {
              "pitch": 31,
              "velocity": 5,
              "position": 8.010416666666666,
              "duration": 3.6479166666666667
            },
            {
              "pitch": 35,
              "velocity": 5,
              "position": 8.010416666666666,
              "duration": 3.6479166666666667
            },
            {
              "pitch": 62,
              "velocity": 5,
              "position": 8.010416666666666,
              "duration": 3.6479166666666667
            },
            {
              "pitch": 64,
              "velocity": 5,
              "position": 8.010416666666666,
              "duration": 5.647916666666666
            },
            {
              "pitch": 67,
              "velocity": 5,
              "position": 8.010416666666666,
              "duration": 5.647916666666666
            },
            {
              "pitch": 33,
              "velocity": 75,
              "position": 11.666666666666666,
              "duration": 1.9916666666666667
            },
            {
              "pitch": 29,
              "velocity": 55,
              "position": 11.666666666666666,
              "duration": 1.9916666666666667
            },
            {
              "pitch": 60,
              "velocity": 55,
              "position": 11.666666666666666,
              "duration": 3.658333333333333
            },
            {
              "pitch": 68,
              "velocity": 55,
              "position": 13.666666666666666,
              "duration": 1.6583333333333334
            },
            {
              "pitch": 65,
              "velocity": 75,
              "position": 13.666666666666666,
              "duration": 1.6583333333333334
            },
            {
              "pitch": 34,
              "velocity": 75,
              "position": 13.666666666666666,
              "duration": 1.6583333333333334
            },
            {
              "pitch": 30,
              "velocity": 55,
              "position": 13.666666666666666,
              "duration": 1.6583333333333334
            },
            {
              "pitch": 62,
              "velocity": 45,
              "position": 15.677083333333334,
              "duration": 3.9791666666666665
            },
            {
              "pitch": 69,
              "velocity": 46,
              "position": 15.677083333333334,
              "duration": 7.3125
            },
            {
              "pitch": 35,
              "velocity": 45,
              "position": 15.677083333333334,
              "duration": 7.3125
            },
            {
              "pitch": 66,
              "velocity": 45,
              "position": 15.677083333333334,
              "duration": 7.3125
            },
            {
              "pitch": 31,
              "velocity": 45,
              "position": 15.677083333333334,
              "duration": 7.3125
            },
            {
              "pitch": 63,
              "velocity": 55,
              "position": 19.666666666666668,
              "duration": 3.325
            },
            {
              "pitch": 29,
              "velocity": 45,
              "position": 23.677083333333332,
              "duration": 2.6458333333333335
            },
            {
              "pitch": 67,
              "velocity": 45,
              "position": 23.677083333333332,
              "duration": 2.6458333333333335
            },
            {
              "pitch": 64,
              "velocity": 45,
              "position": 23.677083333333332,
              "duration": 2.6458333333333335
            },
            {
              "pitch": 60,
              "velocity": 45,
              "position": 23.677083333333332,
              "duration": 2.6458333333333335
            },
            {
              "pitch": 33,
              "velocity": 45,
              "position": 23.677083333333332,
              "duration": 2.6458333333333335
            },
            {
              "pitch": 30,
              "velocity": 43,
              "position": 26.677083333333332,
              "duration": 0.325
            },
            {
              "pitch": 68,
              "velocity": 43,
              "position": 26.677083333333332,
              "duration": 0.325
            },
            {
              "pitch": 65,
              "velocity": 43,
              "position": 26.677083333333332,
              "duration": 0.325
            },
            {
              "pitch": 60,
              "velocity": 43,
              "position": 26.677083333333332,
              "duration": 0.325
            },
            {
              "pitch": 34,
              "velocity": 43,
              "position": 26.677083333333332,
              "duration": 0.325
            },
            {
              "pitch": 29,
              "velocity": 45,
              "position": 27.666666666666668,
              "duration": 1.24375
            },
            {
              "pitch": 67,
              "velocity": 45,
              "position": 27.666666666666668,
              "duration": 1.24375
            },
            {
              "pitch": 64,
              "velocity": 45,
              "position": 27.666666666666668,
              "duration": 1.24375
            },
            {
              "pitch": 60,
              "velocity": 45,
              "position": 27.666666666666668,
              "duration": 1.24375
            },
            {
              "pitch": 33,
              "velocity": 45,
              "position": 27.666666666666668,
              "duration": 1.24375
            },
            {
              "pitch": 29,
              "velocity": 91,
              "position": 28.922916666666666,
              "duration": 0.65625
            },
            {
              "pitch": 69,
              "velocity": 91,
              "position": 28.922916666666666,
              "duration": 0.65625
            },
            {
              "pitch": 64,
              "velocity": 91,
              "position": 28.922916666666666,
              "duration": 0.65625
            },
            {
              "pitch": 62,
              "velocity": 91,
              "position": 28.922916666666666,
              "duration": 0.65625
            },
            {
              "pitch": 33,
              "velocity": 91,
              "position": 28.922916666666666,
              "duration": 0.65625
            },
            {
              "pitch": 29,
              "velocity": 115,
              "position": 29.589583333333334,
              "duration": 1.9916666666666667
            },
            {
              "pitch": 67,
              "velocity": 115,
              "position": 29.589583333333334,
              "duration": 1.9916666666666667
            },
            {
              "pitch": 64,
              "velocity": 115,
              "position": 29.589583333333334,
              "duration": 1.9916666666666667
            },
            {
              "pitch": 59,
              "velocity": 115,
              "position": 29.589583333333334,
              "duration": 1.9916666666666667
            },
            {
              "pitch": 33,
              "velocity": 115,
              "position": 29.589583333333334,
              "duration": 1.9916666666666667
            }
          ]
        },
        "14": {
          "ctab": {
            "srcChannel": 14,
            "name": "Sp.Sax",
            "accType": "PHRASE1",
            "editable": false,
            "mutedNotes": [],
            "mutedChords": [
              "dim7",
              "dim",
              "minMaj7(9)",
              "minMaj7",
              "min7(11)",
              "min7(9)",
              "min(9)",
              "m7b5",
              "min7",
              "min6",
              "min"
            ],
            "autoStart": false,
            "sourceChordNote": 0,
            "sourceChordType": "Maj",
            "ctb2Low": null,
            "ctb2Main": {
              "ntr": "ROOT_TRANSPOSITION",
              "ntt": "BYPASS",
              "bassOn": false,
              "chordRootUpperLimit": 7,
              "noteLowLimit": 0,
              "noteHighLimit": 127,
              "rtr": "PITCH_SHIFT"
            },
            "ctb2High": null
          },
          "notes": [
            {
              "pitch": 67,
              "velocity": 107,
              "position": 0.7270833333333333,
              "duration": 0.36041666666666666
            },
            {
              "pitch": 67,
              "velocity": 86,
              "position": 2.0145833333333334,
              "duration": 0.6395833333333333
            },
            {
              "pitch": 69,
              "velocity": 96,
              "position": 2.7125,
              "duration": 0.2520833333333333
            },
            {
              "pitch": 64,
              "velocity": 60,
              "position": 3.1020833333333333,
              "duration": 0.5520833333333334
            },
            {
              "pitch": 65,
              "velocity": 86,
              "position": 3.65,
              "duration": 0.39375
            },
            {
              "pitch": 67,
              "velocity": 96,
              "position": 3.995833333333333,
              "duration": 0.61875
            },
            {
              "pitch": 67,
              "velocity": 70,
              "position": 4.927083333333333,
              "duration": 0.64375
            },
            {
              "pitch": 67,
              "velocity": 96,
              "position": 5.68125,
              "duration": 2.3333333333333335
            },
            {
              "pitch": 72,
              "velocity": 107,
              "position": 8.625,
              "duration": 2.0166666666666666
            },
            {
              "pitch": 70,
              "velocity": 86,
              "position": 10.65,
              "duration": 0.39375
            },
            {
              "pitch": 64,
              "velocity": 60,
              "position": 11.102083333333333,
              "duration": 0.5520833333333334
            },
            {
              "pitch": 65,
              "velocity": 86,
              "position": 11.65,
              "duration": 0.39375
            },
            {
              "pitch": 67,
              "velocity": 96,
              "position": 11.995833333333334,
              "duration": 0.64375
            },
            {
              "pitch": 64,
              "velocity": 30,
              "position": 12.647916666666667,
              "duration": 0.22083333333333333
            },
            {
              "pitch": 67,
              "velocity": 86,
              "position": 13.033333333333333,
              "duration": 0.5708333333333333
            },
            {
              "pitch": 68,
              "velocity": 96,
              "position": 13.652083333333334,
              "duration": 1.0541666666666667
            },
            {
              "pitch": 69,
              "velocity": 20,
              "position": 14.639583333333333,
              "duration": 0.2520833333333333
            },
            {
              "pitch": 70,
              "velocity": 30,
              "position": 14.827083333333333,
              "duration": 0.25
            },
            {
              "pitch": 71,
              "velocity": 86,
              "position": 15.010416666666666,
              "duration": 0.6479166666666667
            },
            {
              "pitch": 69,
              "velocity": 96,
              "position": 15.683333333333334,
              "duration": 1.84375
            },
            {
              "pitch": 66,
              "velocity": 107,
              "position": 17.708333333333332,
              "duration": 0.11458333333333333
            },
            {
              "pitch": 69,
              "velocity": 86,
              "position": 18.114583333333332,
              "duration": 0.6020833333333333
            },
            {
              "pitch": 71,
              "velocity": 108,
              "position": 18.702083333333334,
              "duration": 0.25
            },
            {
              "pitch": 66,
              "velocity": 60,
              "position": 19.102083333333333,
              "duration": 0.5520833333333334
            },
            {
              "pitch": 67,
              "velocity": 86,
              "position": 19.65,
              "duration": 0.39375
            },
            {
              "pitch": 69,
              "velocity": 109,
              "position": 20.09375,
              "duration": 0.6520833333333333
            },
            {
              "pitch": 69,
              "velocity": 86,
              "position": 21.022916666666667,
              "duration": 0.6020833333333333
            },
            {
              "pitch": 69,
              "velocity": 96,
              "position": 21.666666666666668,
              "duration": 2.3020833333333335
            },
            {
              "pitch": 72,
              "velocity": 107,
              "position": 24.583333333333332,
              "duration": 2.058333333333333
            },
            {
              "pitch": 70,
              "velocity": 86,
              "position": 26.65,
              "duration": 0.39375
            },
            {
              "pitch": 67,
              "velocity": 60,
              "position": 27.110416666666666,
              "duration": 0.5520833333333334
            },
            {
              "pitch": 65,
              "velocity": 86,
              "position": 27.65,
              "duration": 0.39375
            },
            {
              "pitch": 64,
              "velocity": 96,
              "position": 28.091666666666665,
              "duration": 0.54375
            },
            {
              "pitch": 65,
              "velocity": 86,
              "position": 28.977083333333333,
              "duration": 0.625
            },
            {
              "pitch": 67,
              "velocity": 96,
              "position": 29.610416666666666,
              "duration": 2.31875
            }
          ]
        },
        "15": {
          "ctab": {
            "srcChannel": 15,
            "name": "BalladDX",
            "accType": "PHRASE2",
            "editable": false,
            "mutedNotes": [],
            "mutedChords": [
              "dim7",
              "dim",
              "minMaj7(9)",
              "minMaj7",
              "min7(11)",
              "min7(9)",
              "min(9)",
              "m7b5",
              "min7",
              "min6",
              "min"
            ],
            "autoStart": false,
            "sourceChordNote": 0,
            "sourceChordType": "Maj",
            "ctb2Low": null,
            "ctb2Main": {
              "ntr": "ROOT_TRANSPOSITION",
              "ntt": "BYPASS",
              "bassOn": false,
              "chordRootUpperLimit": 7,
              "noteLowLimit": 54,
              "noteHighLimit": 65,
              "rtr": "PITCH_SHIFT"
            },
            "ctb2High": null
          },
          "notes": [
            {
              "pitch": 62,
              "velocity": 114,
              "position": 0,
              "duration": 3.658333333333333
            },
            {
              "pitch": 83,
              "velocity": 114,
              "position": 0.03125,
              "duration": 3.627083333333333
            },
            {
              "pitch": 76,
              "velocity": 114,
              "position": 0.020833333333333332,
              "duration": 3.6375
            },
            {
              "pitch": 55,
              "velocity": 114,
              "position": 0.010416666666666666,
              "duration": 3.6479166666666667
            },
            {
              "pitch": 43,
              "velocity": 30,
              "position": 0.010416666666666666,
              "duration": 3.6479166666666667
            },
            {
              "pitch": 81,
              "velocity": 62,
              "position": 3.6666666666666665,
              "duration": 4.325
            },
            {
              "pitch": 60,
              "velocity": 62,
              "position": 3.6979166666666665,
              "duration": 4.29375
            },
            {
              "pitch": 53,
              "velocity": 62,
              "position": 3.6875,
              "duration": 4.304166666666666
            },
            {
              "pitch": 43,
              "velocity": 30,
              "position": 3.6875,
              "duration": 4.304166666666666
            },
            {
              "pitch": 76,
              "velocity": 62,
              "position": 3.6770833333333335,
              "duration": 4.314583333333333
            },
            {
              "pitch": 62,
              "velocity": 79,
              "position": 8,
              "duration": 3.658333333333333
            },
            {
              "pitch": 83,
              "velocity": 79,
              "position": 8.03125,
              "duration": 3.627083333333333
            },
            {
              "pitch": 76,
              "velocity": 79,
              "position": 8.020833333333334,
              "duration": 3.6375
            },
            {
              "pitch": 55,
              "velocity": 79,
              "position": 8.010416666666666,
              "duration": 3.6479166666666667
            },
            {
              "pitch": 43,
              "velocity": 30,
              "position": 8.010416666666666,
              "duration": 3.6479166666666667
            },
            {
              "pitch": 81,
              "velocity": 62,
              "position": 11.666666666666666,
              "duration": 1.9916666666666667
            },
            {
              "pitch": 60,
              "velocity": 62,
              "position": 11.697916666666666,
              "duration": 1.9604166666666667
            },
            {
              "pitch": 55,
              "velocity": 62,
              "position": 11.6875,
              "duration": 1.9708333333333334
            },
            {
              "pitch": 43,
              "velocity": 30,
              "position": 11.6875,
              "duration": 1.9708333333333334
            },
            {
              "pitch": 76,
              "velocity": 62,
              "position": 11.677083333333334,
              "duration": 1.98125
            },
            {
              "pitch": 82,
              "velocity": 97,
              "position": 13.666666666666666,
              "duration": 1.9916666666666667
            },
            {
              "pitch": 60,
              "velocity": 97,
              "position": 13.697916666666666,
              "duration": 1.9604166666666667
            },
            {
              "pitch": 54,
              "velocity": 97,
              "position": 13.6875,
              "duration": 1.9708333333333334
            },
            {
              "pitch": 44,
              "velocity": 30,
              "position": 13.6875,
              "duration": 1.9708333333333334
            },
            {
              "pitch": 77,
              "velocity": 97,
              "position": 13.677083333333334,
              "duration": 1.98125
            },
            {
              "pitch": 83,
              "velocity": 114,
              "position": 15.666666666666666,
              "duration": 3.9916666666666667
            },
            {
              "pitch": 62,
              "velocity": 114,
              "position": 15.697916666666666,
              "duration": 3.9604166666666667
            },
            {
              "pitch": 55,
              "velocity": 114,
              "position": 15.6875,
              "duration": 3.970833333333333
            },
            {
              "pitch": 45,
              "velocity": 30,
              "position": 15.6875,
              "duration": 3.970833333333333
            },
            {
              "pitch": 78,
              "velocity": 114,
              "position": 15.677083333333334,
              "duration": 3.98125
            },
            {
              "pitch": 83,
              "velocity": 62,
              "position": 19.666666666666668,
              "duration": 3.9916666666666667
            },
            {
              "pitch": 63,
              "velocity": 62,
              "position": 19.697916666666668,
              "duration": 3.9604166666666667
            },
            {
              "pitch": 55,
              "velocity": 62,
              "position": 19.6875,
              "duration": 3.970833333333333
            },
            {
              "pitch": 45,
              "velocity": 30,
              "position": 19.6875,
              "duration": 3.970833333333333
            },
            {
              "pitch": 78,
              "velocity": 62,
              "position": 19.677083333333332,
              "duration": 3.98125
            },
            {
              "pitch": 81,
              "velocity": 79,
              "position": 23.666666666666668,
              "duration": 2.658333333333333
            },
            {
              "pitch": 60,
              "velocity": 79,
              "position": 23.697916666666668,
              "duration": 2.627083333333333
            },
            {
              "pitch": 53,
              "velocity": 79,
              "position": 23.6875,
              "duration": 2.6375
            },
            {
              "pitch": 38,
              "velocity": 30,
              "position": 23.6875,
              "duration": 2.6375
            },
            {
              "pitch": 76,
              "velocity": 79,
              "position": 23.677083333333332,
              "duration": 2.6479166666666667
            },
            {
              "pitch": 80,
              "velocity": 97,
              "position": 26.666666666666668,
              "duration": 0.325
            },
            {
              "pitch": 60,
              "velocity": 97,
              "position": 26.697916666666668,
              "duration": 0.29375
            },
            {
              "pitch": 54,
              "velocity": 97,
              "position": 26.6875,
              "duration": 0.30416666666666664
            },
            {
              "pitch": 44,
              "velocity": 30,
              "position": 26.6875,
              "duration": 0.30416666666666664
            },
            {
              "pitch": 77,
              "velocity": 97,
              "position": 26.677083333333332,
              "duration": 0.3145833333333333
            },
            {
              "pitch": 81,
              "velocity": 114,
              "position": 27.666666666666668,
              "duration": 1.9916666666666667
            },
            {
              "pitch": 60,
              "velocity": 114,
              "position": 27.697916666666668,
              "duration": 1.9604166666666667
            },
            {
              "pitch": 53,
              "velocity": 114,
              "position": 27.6875,
              "duration": 1.9708333333333334
            },
            {
              "pitch": 43,
              "velocity": 30,
              "position": 27.6875,
              "duration": 1.9708333333333334
            },
            {
              "pitch": 76,
              "velocity": 114,
              "position": 27.677083333333332,
              "duration": 1.98125
            },
            {
              "pitch": 81,
              "velocity": 97,
              "position": 29.666666666666668,
              "duration": 2.325
            },
            {
              "pitch": 59,
              "velocity": 97,
              "position": 29.697916666666668,
              "duration": 2.29375
            },
            {
              "pitch": 53,
              "velocity": 97,
              "position": 29.6875,
              "duration": 2.3041666666666667
            },
            {
              "pitch": 43,
              "velocity": 30,
              "position": 29.6875,
              "duration": 2.3041666666666667
            },
            {
              "pitch": 76,
              "velocity": 97,
              "position": 29.677083333333332,
              "duration": 2.314583333333333
            }
          ]
        }
      }
    },
    "Ending_C": {
      "type": "Ending_C",
      "sizeInBeats": 24,
      "channels": {
        "1": {
          "ctab": {
            "srcChannel": 1,
            "name": "Bass",
            "accType": "BASS",
            "editable": false,
            "mutedNotes": [],
            "mutedChords": [
              "1+2+5",
              "sus4",
              "1+5",
              "1+8",
              "7aug",
              "Maj7aug",
              "7(#9)",
              "7(b13)",
              "7(b9)",
              "7(13)",
              "7#11",
              "7(9)",
              "7b5",
              "7sus4",
              "7th",
              "aug",
              "Maj6(9)",
              "Maj7(9)",
              "Maj(9)",
              "Maj7#11",
              "Maj7",
              "Maj6",
              "Maj"
            ],
            "autoStart": false,
            "sourceChordNote": 0,
            "sourceChordType": "min",
            "ctb2Low": null,
            "ctb2Main": {
              "ntr": "ROOT_TRANSPOSITION",
              "ntt": "BYPASS",
              "bassOn": false,
              "chordRootUpperLimit": 1,
              "noteLowLimit": 26,
              "noteHighLimit": 127,
              "rtr": "PITCH_SHIFT"
            },
            "ctb2High": null
          },
          "notes": [
            {
              "pitch": 31,
              "velocity": 60,
              "position": 0,
              "duration": 1.2375
            },
            {
              "pitch": 31,
              "velocity": 85,
              "position": 1.3333333333333333,
              "duration": 0.2375
            },
            {
              "pitch": 31,
              "velocity": 50,
              "position": 1.6666666666666667,
              "duration": 0.1375
            },
            {
              "pitch": 43,
              "velocity": 60,
              "position": 2,
              "duration": 1.5708333333333333
            },
            {
              "pitch": 31,
              "velocity": 60,
              "position": 3.6666666666666665,
              "duration": 1.9041666666666666
            },
            {
              "pitch": 43,
              "velocity": 60,
              "position": 5.666666666666667,
              "duration": 0.9041666666666667
            },
            {
              "pitch": 45,
              "velocity": 60,
              "position": 6.666666666666667,
              "duration": 0.325
            },
            {
              "pitch": 43,
              "velocity": 50,
              "position": 7,
              "duration": 0.14166666666666666
            },
            {
              "pitch": 38,
              "velocity": 101,
              "position": 7.333333333333333,
              "duration": 0.14166666666666666
            },
            {
              "pitch": 36,
              "velocity": 101,
              "position": 7.666666666666667,
              "duration": 0.14166666666666666
            },
            {
              "pitch": 31,
              "velocity": 60,
              "position": 8,
              "duration": 1.5708333333333333
            },
            {
              "pitch": 31,
              "velocity": 101,
              "position": 9.666666666666666,
              "duration": 0.2375
            },
            {
              "pitch": 43,
              "velocity": 60,
              "position": 10,
              "duration": 1.2375
            },
            {
              "pitch": 43,
              "velocity": 90,
              "position": 11.333333333333334,
              "duration": 0.2375
            },
            {
              "pitch": 31,
              "velocity": 60,
              "position": 11.666666666666666,
              "duration": 1.9041666666666666
            },
            {
              "pitch": 31,
              "velocity": 60,
              "position": 13.666666666666666,
              "duration": 1.5708333333333333
            },
            {
              "pitch": 31,
              "velocity": 90,
              "position": 15.333333333333334,
              "duration": 0.2375
            },
            {
              "pitch": 24,
              "velocity": 60,
              "position": 15.666666666666666,
              "duration": 7.325
            }
          ]
        },
        "2": {
          "ctab": {
            "srcChannel": 2,
            "name": "E.Piano",
            "accType": "CHORD1",
            "editable": false,
            "mutedNotes": [],
            "mutedChords": [
              "1+2+5",
              "sus4",
              "1+5",
              "1+8",
              "7aug",
              "Maj7aug",
              "7(#9)",
              "7(b13)",
              "7(b9)",
              "7(13)",
              "7#11",
              "7(9)",
              "7b5",
              "7sus4",
              "7th",
              "aug",
              "Maj6(9)",
              "Maj7(9)",
              "Maj(9)",
              "Maj7#11",
              "Maj7",
              "Maj6",
              "Maj"
            ],
            "autoStart": false,
            "sourceChordNote": 0,
            "sourceChordType": "min",
            "ctb2Low": null,
            "ctb2Main": {
              "ntr": "ROOT_TRANSPOSITION",
              "ntt": "BYPASS",
              "bassOn": false,
              "chordRootUpperLimit": 7,
              "noteLowLimit": 54,
              "noteHighLimit": 65,
              "rtr": "PITCH_SHIFT"
            },
            "ctb2High": null
          },
          "notes": [
            {
              "pitch": 63,
              "velocity": 90,
              "position": 0,
              "duration": 3.658333333333333
            },
            {
              "pitch": 79,
              "velocity": 90,
              "position": 0.03125,
              "duration": 3.627083333333333
            },
            {
              "pitch": 86,
              "velocity": 90,
              "position": 0.020833333333333332,
              "duration": 3.6375
            },
            {
              "pitch": 58,
              "velocity": 90,
              "position": 0.010416666666666666,
              "duration": 3.6479166666666667
            },
            {
              "pitch": 43,
              "velocity": 57,
              "position": 0.010416666666666666,
              "duration": 3.6479166666666667
            },
            {
              "pitch": 81,
              "velocity": 75,
              "position": 3.6666666666666665,
              "duration": 4.325
            },
            {
              "pitch": 60,
              "velocity": 75,
              "position": 3.6979166666666665,
              "duration": 4.29375
            },
            {
              "pitch": 53,
              "velocity": 75,
              "position": 3.6875,
              "duration": 4.304166666666666
            },
            {
              "pitch": 43,
              "velocity": 48,
              "position": 3.6875,
              "duration": 4.304166666666666
            },
            {
              "pitch": 79,
              "velocity": 75,
              "position": 3.6770833333333335,
              "duration": 4.314583333333333
            },
            {
              "pitch": 62,
              "velocity": 80,
              "position": 8,
              "duration": 3.658333333333333
            },
            {
              "pitch": 82,
              "velocity": 80,
              "position": 8.03125,
              "duration": 3.627083333333333
            },
            {
              "pitch": 75,
              "velocity": 80,
              "position": 8.020833333333334,
              "duration": 3.6375
            },
            {
              "pitch": 55,
              "velocity": 80,
              "position": 8.010416666666666,
              "duration": 3.6479166666666667
            },
            {
              "pitch": 43,
              "velocity": 51,
              "position": 8.010416666666666,
              "duration": 3.6479166666666667
            },
            {
              "pitch": 81,
              "velocity": 75,
              "position": 11.666666666666666,
              "duration": 1.9916666666666667
            },
            {
              "pitch": 60,
              "velocity": 75,
              "position": 11.697916666666666,
              "duration": 1.9604166666666667
            },
            {
              "pitch": 53,
              "velocity": 75,
              "position": 11.6875,
              "duration": 1.9708333333333334
            },
            {
              "pitch": 43,
              "velocity": 48,
              "position": 11.6875,
              "duration": 1.9708333333333334
            },
            {
              "pitch": 79,
              "velocity": 75,
              "position": 11.677083333333334,
              "duration": 1.98125
            },
            {
              "pitch": 80,
              "velocity": 90,
              "position": 13.666666666666666,
              "duration": 1.35625
            },
            {
              "pitch": 75,
              "velocity": 90,
              "position": 13.677083333333334,
              "duration": 1.3458333333333334
            },
            {
              "pitch": 53,
              "velocity": 90,
              "position": 13.6875,
              "duration": 1.6375
            },
            {
              "pitch": 59,
              "velocity": 90,
              "position": 13.697916666666666,
              "duration": 1.6270833333333334
            },
            {
              "pitch": 43,
              "velocity": 57,
              "position": 13.6875,
              "duration": 1.6375
            },
            {
              "pitch": 79,
              "velocity": 80,
              "position": 15.03125,
              "duration": 0.6270833333333333
            },
            {
              "pitch": 82,
              "velocity": 80,
              "position": 15.03125,
              "duration": 0.6270833333333333
            },
            {
              "pitch": 74,
              "velocity": 90,
              "position": 15.666666666666666,
              "duration": 7.325
            },
            {
              "pitch": 58,
              "velocity": 90,
              "position": 15.697916666666666,
              "duration": 7.29375
            },
            {
              "pitch": 51,
              "velocity": 90,
              "position": 15.6875,
              "duration": 7.304166666666666
            },
            {
              "pitch": 36,
              "velocity": 57,
              "position": 15.6875,
              "duration": 7.304166666666666
            },
            {
              "pitch": 79,
              "velocity": 90,
              "position": 15.677083333333334,
              "duration": 7.314583333333333
            }
          ]
        },
        "3": {
          "ctab": {
            "srcChannel": 3,
            "name": "JazzGtr",
            "accType": "CHORD2",
            "editable": false,
            "mutedNotes": [],
            "mutedChords": [
              "1+2+5",
              "sus4",
              "1+5",
              "1+8",
              "7aug",
              "Maj7aug",
              "7(#9)",
              "7(b13)",
              "7(b9)",
              "7(13)",
              "7#11",
              "7(9)",
              "7b5",
              "7sus4",
              "7th",
              "aug",
              "Maj6(9)",
              "Maj7(9)",
              "Maj(9)",
              "Maj7#11",
              "Maj7",
              "Maj6",
              "Maj"
            ],
            "autoStart": false,
            "sourceChordNote": 0,
            "sourceChordType": "min",
            "ctb2Low": null,
            "ctb2Main": {
              "ntr": "ROOT_TRANSPOSITION",
              "ntt": "BYPASS",
              "bassOn": false,
              "chordRootUpperLimit": 7,
              "noteLowLimit": 60,
              "noteHighLimit": 71,
              "rtr": "PITCH_SHIFT"
            },
            "ctb2High": null
          },
          "notes": [
            {
              "pitch": 51,
              "velocity": 41,
              "position": 0.010416666666666666,
              "duration": 1.0020833333333334
            },
            {
              "pitch": 62,
              "velocity": 41,
              "position": 0.020833333333333332,
              "duration": 1.6479166666666667
            },
            {
              "pitch": 67,
              "velocity": 41,
              "position": 0.03125,
              "duration": 2.627083333333333
            },
            {
              "pitch": 46,
              "velocity": 41,
              "position": 0,
              "duration": 3.2
            },
            {
              "pitch": 67,
              "velocity": 40,
              "position": 2.6666666666666665,
              "duration": 0.5333333333333333
            },
            {
              "pitch": 62,
              "velocity": 41,
              "position": 1.6770833333333333,
              "duration": 1.5333333333333334
            },
            {
              "pitch": 51,
              "velocity": 30,
              "position": 1.0208333333333333,
              "duration": 2.2
            },
            {
              "pitch": 127,
              "velocity": 40,
              "position": 3.3333333333333335,
              "duration": 0.2916666666666667
            },
            {
              "pitch": 53,
              "velocity": 41,
              "position": 3.6875,
              "duration": 0.9708333333333333
            },
            {
              "pitch": 69,
              "velocity": 41,
              "position": 3.6666666666666665,
              "duration": 2.9916666666666667
            },
            {
              "pitch": 69,
              "velocity": 40,
              "position": 6.666666666666667,
              "duration": 0.9916666666666667
            },
            {
              "pitch": 53,
              "velocity": 30,
              "position": 4.666666666666667,
              "duration": 3.0125
            },
            {
              "pitch": 48,
              "velocity": 41,
              "position": 3.6979166666666665,
              "duration": 3.9916666666666667
            },
            {
              "pitch": 126,
              "velocity": 40,
              "position": 7.666666666666667,
              "duration": 0.2916666666666667
            },
            {
              "pitch": 55,
              "velocity": 41,
              "position": 8.010416666666666,
              "duration": 1.0020833333333334
            },
            {
              "pitch": 70,
              "velocity": 41,
              "position": 8.03125,
              "duration": 1.6270833333333334
            },
            {
              "pitch": 63,
              "velocity": 41,
              "position": 8.020833333333334,
              "duration": 1.6479166666666667
            },
            {
              "pitch": 50,
              "velocity": 41,
              "position": 8,
              "duration": 3.2
            },
            {
              "pitch": 55,
              "velocity": 30,
              "position": 9.020833333333334,
              "duration": 2.2
            },
            {
              "pitch": 70,
              "velocity": 40,
              "position": 9.666666666666666,
              "duration": 1.6583333333333334
            },
            {
              "pitch": 63,
              "velocity": 30,
              "position": 9.677083333333334,
              "duration": 1.6583333333333334
            },
            {
              "pitch": 125,
              "velocity": 40,
              "position": 11.333333333333334,
              "duration": 0.2916666666666667
            },
            {
              "pitch": 69,
              "velocity": 41,
              "position": 11.666666666666666,
              "duration": 1.6583333333333334
            },
            {
              "pitch": 53,
              "velocity": 41,
              "position": 11.6875,
              "duration": 1.6583333333333334
            },
            {
              "pitch": 48,
              "velocity": 41,
              "position": 11.697916666666666,
              "duration": 1.6583333333333334
            },
            {
              "pitch": 124,
              "velocity": 40,
              "position": 13.333333333333334,
              "duration": 0.2916666666666667
            },
            {
              "pitch": 68,
              "velocity": 40,
              "position": 13.666666666666666,
              "duration": 1.325
            },
            {
              "pitch": 63,
              "velocity": 40,
              "position": 13.677083333333334,
              "duration": 1.3145833333333334
            },
            {
              "pitch": 53,
              "velocity": 40,
              "position": 13.6875,
              "duration": 1.6583333333333334
            },
            {
              "pitch": 47,
              "velocity": 40,
              "position": 13.697916666666666,
              "duration": 1.6583333333333334
            },
            {
              "pitch": 123,
              "velocity": 40,
              "position": 15.333333333333334,
              "duration": 0.2916666666666667
            },
            {
              "pitch": 67,
              "velocity": 115,
              "position": 15,
              "duration": 0.6583333333333333
            },
            {
              "pitch": 70,
              "velocity": 115,
              "position": 15,
              "duration": 0.6583333333333333
            },
            {
              "pitch": 74,
              "velocity": 41,
              "position": 15.666666666666666,
              "duration": 7.408333333333333
            },
            {
              "pitch": 46,
              "velocity": 41,
              "position": 15.697916666666666,
              "duration": 7.377083333333333
            },
            {
              "pitch": 51,
              "velocity": 41,
              "position": 15.6875,
              "duration": 7.3875
            },
            {
              "pitch": 67,
              "velocity": 41,
              "position": 15.677083333333334,
              "duration": 7.397916666666666
            }
          ]
        },
        "4": {
          "ctab": {
            "srcChannel": 4,
            "name": "PopVocal",
            "accType": "PAD",
            "editable": false,
            "mutedNotes": [],
            "mutedChords": [
              "1+2+5",
              "sus4",
              "1+5",
              "1+8",
              "7aug",
              "Maj7aug",
              "7(#9)",
              "7(b13)",
              "7(b9)",
              "7(13)",
              "7#11",
              "7(9)",
              "7b5",
              "7sus4",
              "7th",
              "aug",
              "Maj6(9)",
              "Maj7(9)",
              "Maj(9)",
              "Maj7#11",
              "Maj7",
              "Maj6",
              "Maj"
            ],
            "autoStart": false,
            "sourceChordNote": 0,
            "sourceChordType": "Maj",
            "ctb2Low": null,
            "ctb2Main": {
              "ntr": "ROOT_TRANSPOSITION",
              "ntt": "BYPASS",
              "bassOn": false,
              "chordRootUpperLimit": 7,
              "noteLowLimit": 53,
              "noteHighLimit": 127,
              "rtr": "PITCH_SHIFT"
            },
            "ctb2High": null
          },
          "notes": [
            {
              "pitch": 31,
              "velocity": 5,
              "position": 0.041666666666666664,
              "duration": 3.6166666666666667
            },
            {
              "pitch": 34,
              "velocity": 5,
              "position": 0.041666666666666664,
              "duration": 3.6166666666666667
            },
            {
              "pitch": 63,
              "velocity": 5,
              "position": 0.041666666666666664,
              "duration": 3.6166666666666667
            },
            {
              "pitch": 62,
              "velocity": 5,
              "position": 0.041666666666666664,
              "duration": 3.6166666666666667
            },
            {
              "pitch": 67,
              "velocity": 5,
              "position": 0.041666666666666664,
              "duration": 7.283333333333333
            },
            {
              "pitch": 65,
              "velocity": 35,
              "position": 3.6666666666666665,
              "duration": 3.658333333333333
            },
            {
              "pitch": 60,
              "velocity": 15,
              "position": 3.6666666666666665,
              "duration": 3.658333333333333
            },
            {
              "pitch": 33,
              "velocity": 35,
              "position": 3.6666666666666665,
              "duration": 3.658333333333333
            },
            {
              "pitch": 29,
              "velocity": 15,
              "position": 3.6666666666666665,
              "duration": 3.658333333333333
            },
            {
              "pitch": 31,
              "velocity": 5,
              "position": 8.010416666666666,
              "duration": 3.6479166666666667
            },
            {
              "pitch": 34,
              "velocity": 5,
              "position": 8.010416666666666,
              "duration": 3.6479166666666667
            },
            {
              "pitch": 63,
              "velocity": 5,
              "position": 8.010416666666666,
              "duration": 3.6479166666666667
            },
            {
              "pitch": 62,
              "velocity": 5,
              "position": 8.010416666666666,
              "duration": 3.6479166666666667
            },
            {
              "pitch": 67,
              "velocity": 5,
              "position": 8.010416666666666,
              "duration": 5.283333333333333
            },
            {
              "pitch": 65,
              "velocity": 35,
              "position": 11.666666666666666,
              "duration": 1.6583333333333334
            },
            {
              "pitch": 60,
              "velocity": 15,
              "position": 11.666666666666666,
              "duration": 1.6583333333333334
            },
            {
              "pitch": 33,
              "velocity": 35,
              "position": 11.666666666666666,
              "duration": 1.6583333333333334
            },
            {
              "pitch": 29,
              "velocity": 15,
              "position": 11.666666666666666,
              "duration": 1.6583333333333334
            },
            {
              "pitch": 29,
              "velocity": 44,
              "position": 13.666666666666666,
              "duration": 1.2583333333333333
            },
            {
              "pitch": 68,
              "velocity": 44,
              "position": 13.666666666666666,
              "duration": 1.2583333333333333
            },
            {
              "pitch": 63,
              "velocity": 44,
              "position": 13.666666666666666,
              "duration": 1.2583333333333333
            },
            {
              "pitch": 35,
              "velocity": 44,
              "position": 13.666666666666666,
              "duration": 1.2583333333333333
            },
            {
              "pitch": 29,
              "velocity": 83,
              "position": 14.9375,
              "duration": 0.65625
            },
            {
              "pitch": 70,
              "velocity": 83,
              "position": 14.9375,
              "duration": 0.65625
            },
            {
              "pitch": 63,
              "velocity": 83,
              "position": 14.9375,
              "duration": 0.65625
            },
            {
              "pitch": 35,
              "velocity": 83,
              "position": 14.9375,
              "duration": 0.65625
            },
            {
              "pitch": 31,
              "velocity": 104,
              "position": 15.604166666666666,
              "duration": 7.325
            },
            {
              "pitch": 67,
              "velocity": 104,
              "position": 15.604166666666666,
              "duration": 7.325
            },
            {
              "pitch": 63,
              "velocity": 104,
              "position": 15.604166666666666,
              "duration": 7.325
            },
            {
              "pitch": 62,
              "velocity": 104,
              "position": 15.604166666666666,
              "duration": 7.325
            },
            {
              "pitch": 34,
              "velocity": 104,
              "position": 15.604166666666666,
              "duration": 7.325
            }
          ]
        },
        "5": {
          "ctab": {
            "srcChannel": 5,
            "name": "Sp.Sax",
            "accType": "PHRASE1",
            "editable": false,
            "mutedNotes": [],
            "mutedChords": [
              "1+2+5",
              "sus4",
              "1+5",
              "1+8",
              "7aug",
              "Maj7aug",
              "7(#9)",
              "7(b13)",
              "7(b9)",
              "7(13)",
              "7#11",
              "7(9)",
              "7b5",
              "7sus4",
              "7th",
              "aug",
              "Maj6(9)",
              "Maj7(9)",
              "Maj(9)",
              "Maj7#11",
              "Maj7",
              "Maj6",
              "Maj"
            ],
            "autoStart": false,
            "sourceChordNote": 0,
            "sourceChordType": "min",
            "ctb2Low": null,
            "ctb2Main": {
              "ntr": "ROOT_TRANSPOSITION",
              "ntt": "BYPASS",
              "bassOn": false,
              "chordRootUpperLimit": 7,
              "noteLowLimit": 0,
              "noteHighLimit": 127,
              "rtr": "PITCH_SHIFT"
            },
            "ctb2High": null
          },
          "notes": [
            {
              "pitch": 67,
              "velocity": 107,
              "position": 0.7270833333333333,
              "duration": 0.36041666666666666
            },
            {
              "pitch": 67,
              "velocity": 86,
              "position": 2.0145833333333334,
              "duration": 0.6395833333333333
            },
            {
              "pitch": 70,
              "velocity": 96,
              "position": 2.7125,
              "duration": 0.2520833333333333
            },
            {
              "pitch": 63,
              "velocity": 60,
              "position": 3.1020833333333333,
              "duration": 0.5520833333333334
            },
            {
              "pitch": 65,
              "velocity": 86,
              "position": 3.65,
              "duration": 0.39375
            },
            {
              "pitch": 67,
              "velocity": 96,
              "position": 3.995833333333333,
              "duration": 0.61875
            },
            {
              "pitch": 67,
              "velocity": 70,
              "position": 4.927083333333333,
              "duration": 0.64375
            },
            {
              "pitch": 67,
              "velocity": 96,
              "position": 5.68125,
              "duration": 2.3333333333333335
            },
            {
              "pitch": 67,
              "velocity": 96,
              "position": 8.70625,
              "duration": 0.325
            },
            {
              "pitch": 72,
              "velocity": 107,
              "position": 9.625,
              "duration": 1.0166666666666666
            },
            {
              "pitch": 70,
              "velocity": 86,
              "position": 10.65,
              "duration": 0.39375
            },
            {
              "pitch": 63,
              "velocity": 60,
              "position": 11.102083333333333,
              "duration": 0.5520833333333334
            },
            {
              "pitch": 65,
              "velocity": 86,
              "position": 11.65,
              "duration": 0.39375
            },
            {
              "pitch": 67,
              "velocity": 96,
              "position": 11.995833333333334,
              "duration": 0.64375
            },
            {
              "pitch": 63,
              "velocity": 40,
              "position": 12.647916666666667,
              "duration": 0.22083333333333333
            },
            {
              "pitch": 67,
              "velocity": 86,
              "position": 13.033333333333333,
              "duration": 0.5708333333333333
            },
            {
              "pitch": 68,
              "velocity": 96,
              "position": 13.652083333333334,
              "duration": 1.1791666666666667
            },
            {
              "pitch": 69,
              "velocity": 30,
              "position": 14.827083333333333,
              "duration": 0.25
            },
            {
              "pitch": 70,
              "velocity": 86,
              "position": 15.010416666666666,
              "duration": 0.6479166666666667
            },
            {
              "pitch": 67,
              "velocity": 96,
              "position": 15.683333333333334,
              "duration": 7.30625
            }
          ]
        },
        "6": {
          "ctab": {
            "srcChannel": 6,
            "name": "BalladDX",
            "accType": "PHRASE2",
            "editable": false,
            "mutedNotes": [],
            "mutedChords": [
              "1+2+5",
              "sus4",
              "1+5",
              "1+8",
              "7aug",
              "Maj7aug",
              "7(#9)",
              "7(b13)",
              "7(b9)",
              "7(13)",
              "7#11",
              "7(9)",
              "7b5",
              "7sus4",
              "7th",
              "aug",
              "Maj6(9)",
              "Maj7(9)",
              "Maj(9)",
              "Maj7#11",
              "Maj7",
              "Maj6",
              "Maj"
            ],
            "autoStart": false,
            "sourceChordNote": 0,
            "sourceChordType": "min",
            "ctb2Low": null,
            "ctb2Main": {
              "ntr": "ROOT_TRANSPOSITION",
              "ntt": "BYPASS",
              "bassOn": false,
              "chordRootUpperLimit": 7,
              "noteLowLimit": 54,
              "noteHighLimit": 65,
              "rtr": "PITCH_SHIFT"
            },
            "ctb2High": null
          },
          "notes": [
            {
              "pitch": 63,
              "velocity": 114,
              "position": 0,
              "duration": 3.658333333333333
            },
            {
              "pitch": 79,
              "velocity": 114,
              "position": 0.03125,
              "duration": 3.627083333333333
            },
            {
              "pitch": 86,
              "velocity": 114,
              "position": 0.020833333333333332,
              "duration": 3.6375
            },
            {
              "pitch": 58,
              "velocity": 114,
              "position": 0.010416666666666666,
              "duration": 3.6479166666666667
            },
            {
              "pitch": 43,
              "velocity": 30,
              "position": 0.010416666666666666,
              "duration": 3.6479166666666667
            },
            {
              "pitch": 81,
              "velocity": 62,
              "position": 3.6666666666666665,
              "duration": 4.325
            },
            {
              "pitch": 60,
              "velocity": 62,
              "position": 3.6979166666666665,
              "duration": 4.29375
            },
            {
              "pitch": 53,
              "velocity": 62,
              "position": 3.6875,
              "duration": 4.304166666666666
            },
            {
              "pitch": 43,
              "velocity": 30,
              "position": 3.6875,
              "duration": 4.304166666666666
            },
            {
              "pitch": 79,
              "velocity": 62,
              "position": 3.6770833333333335,
              "duration": 4.314583333333333
            },
            {
              "pitch": 62,
              "velocity": 79,
              "position": 8,
              "duration": 3.658333333333333
            },
            {
              "pitch": 82,
              "velocity": 79,
              "position": 8.03125,
              "duration": 3.627083333333333
            },
            {
              "pitch": 75,
              "velocity": 79,
              "position": 8.020833333333334,
              "duration": 3.6375
            },
            {
              "pitch": 55,
              "velocity": 79,
              "position": 8.010416666666666,
              "duration": 3.6479166666666667
            },
            {
              "pitch": 43,
              "velocity": 30,
              "position": 8.010416666666666,
              "duration": 3.6479166666666667
            },
            {
              "pitch": 81,
              "velocity": 62,
              "position": 11.666666666666666,
              "duration": 1.9916666666666667
            },
            {
              "pitch": 60,
              "velocity": 62,
              "position": 11.697916666666666,
              "duration": 1.9604166666666667
            },
            {
              "pitch": 53,
              "velocity": 62,
              "position": 11.6875,
              "duration": 1.9708333333333334
            },
            {
              "pitch": 43,
              "velocity": 30,
              "position": 11.6875,
              "duration": 1.9708333333333334
            },
            {
              "pitch": 79,
              "velocity": 62,
              "position": 11.677083333333334,
              "duration": 1.98125
            },
            {
              "pitch": 80,
              "velocity": 114,
              "position": 13.666666666666666,
              "duration": 1.35625
            },
            {
              "pitch": 75,
              "velocity": 114,
              "position": 13.677083333333334,
              "duration": 1.3458333333333334
            },
            {
              "pitch": 53,
              "velocity": 114,
              "position": 13.6875,
              "duration": 1.6375
            },
            {
              "pitch": 59,
              "velocity": 114,
              "position": 13.697916666666666,
              "duration": 1.6270833333333334
            },
            {
              "pitch": 43,
              "velocity": 30,
              "position": 13.6875,
              "duration": 1.6375
            },
            {
              "pitch": 79,
              "velocity": 79,
              "position": 15.03125,
              "duration": 0.6270833333333333
            },
            {
              "pitch": 82,
              "velocity": 79,
              "position": 15.03125,
              "duration": 0.6270833333333333
            },
            {
              "pitch": 74,
              "velocity": 114,
              "position": 15.666666666666666,
              "duration": 7.325
            },
            {
              "pitch": 58,
              "velocity": 114,
              "position": 15.697916666666666,
              "duration": 7.29375
            },
            {
              "pitch": 51,
              "velocity": 114,
              "position": 15.6875,
              "duration": 7.304166666666666
            },
            {
              "pitch": 36,
              "velocity": 30,
              "position": 15.6875,
              "duration": 7.304166666666666
            },
            {
              "pitch": 79,
              "velocity": 114,
              "position": 15.677083333333334,
              "duration": 7.314583333333333
            }
          ]
        },
        "8": {
          "ctab": {
            "srcChannel": 8,
            "name": "AddDrum",
            "accType": "SUBRHYTHM",
            "editable": false,
            "mutedNotes": [],
            "mutedChords": [],
            "autoStart": true,
            "sourceChordNote": 0,
            "sourceChordType": "Maj7",
            "ctb2Low": null,
            "ctb2Main": {
              "ntr": "ROOT_FIXED",
              "ntt": "BYPASS",
              "bassOn": false,
              "chordRootUpperLimit": 6,
              "noteLowLimit": 0,
              "noteHighLimit": 127,
              "rtr": "PITCH_SHIFT"
            },
            "ctb2High": null
          },
          "notes": [
            {
              "pitch": 73,
              "velocity": 75,
              "position": 0,
              "duration": 0.020833333333333332
            },
            {
              "pitch": 73,
              "velocity": 95,
              "position": 1,
              "duration": 0.020833333333333332
            },
            {
              "pitch": 73,
              "velocity": 75,
              "position": 2,
              "duration": 0.020833333333333332
            },
            {
              "pitch": 73,
              "velocity": 95,
              "position": 3,
              "duration": 0.020833333333333332
            },
            {
              "pitch": 73,
              "velocity": 75,
              "position": 4,
              "duration": 0.020833333333333332
            },
            {
              "pitch": 73,
              "velocity": 95,
              "position": 5,
              "duration": 0.020833333333333332
            },
            {
              "pitch": 73,
              "velocity": 75,
              "position": 6,
              "duration": 0.020833333333333332
            },
            {
              "pitch": 73,
              "velocity": 95,
              "position": 7,
              "duration": 0.020833333333333332
            },
            {
              "pitch": 73,
              "velocity": 75,
              "position": 8,
              "duration": 0.020833333333333332
            },
            {
              "pitch": 73,
              "velocity": 95,
              "position": 9,
              "duration": 0.020833333333333332
            },
            {
              "pitch": 73,
              "velocity": 75,
              "position": 10,
              "duration": 0.020833333333333332
            },
            {
              "pitch": 73,
              "velocity": 95,
              "position": 11,
              "duration": 0.020833333333333332
            },
            {
              "pitch": 73,
              "velocity": 75,
              "position": 12,
              "duration": 0.020833333333333332
            },
            {
              "pitch": 73,
              "velocity": 95,
              "position": 13,
              "duration": 0.020833333333333332
            },
            {
              "pitch": 73,
              "velocity": 75,
              "position": 14,
              "duration": 0.020833333333333332
            },
            {
              "pitch": 73,
              "velocity": 95,
              "position": 15,
              "duration": 0.020833333333333332
            }
          ]
        },
        "9": {
          "ctab": {
            "srcChannel": 9,
            "name": "MainDrum",
            "accType": "RHYTHM",
            "editable": false,
            "mutedNotes": [],
            "mutedChords": [],
            "autoStart": true,
            "sourceChordNote": 0,
            "sourceChordType": "Maj7",
            "ctb2Low": null,
            "ctb2Main": {
              "ntr": "ROOT_FIXED",
              "ntt": "BYPASS",
              "bassOn": false,
              "chordRootUpperLimit": 6,
              "noteLowLimit": 0,
              "noteHighLimit": 127,
              "rtr": "PITCH_SHIFT"
            },
            "ctb2High": null
          },
          "notes": [
            {
              "pitch": 33,
              "velocity": 80,
              "position": 0,
              "duration": 0.020833333333333332
            },
            {
              "pitch": 51,
              "velocity": 50,
              "position": 0,
              "duration": 0.020833333333333332
            },
            {
              "pitch": 44,
              "velocity": 30,
              "position": 0,
              "duration": 0.020833333333333332
            },
            {
              "pitch": 31,
              "velocity": 16,
              "position": 0.3333333333333333,
              "duration": 0.020833333333333332
            },
            {
              "pitch": 40,
              "velocity": 32,
              "position": 0.6666666666666666,
              "duration": 0.020833333333333332
            },
            {
              "pitch": 44,
              "velocity": 50,
              "position": 1,
              "duration": 0.020833333333333332
            },
            {
              "pitch": 51,
              "velocity": 50,
              "position": 1,
              "duration": 0.020833333333333332
            },
            {
              "pitch": 31,
              "velocity": 20,
              "position": 1.3333333333333333,
              "duration": 0.020833333333333332
            },
            {
              "pitch": 33,
              "velocity": 60,
              "position": 1.6666666666666667,
              "duration": 0.020833333333333332
            },
            {
              "pitch": 40,
              "velocity": 103,
              "position": 2,
              "duration": 0.020833333333333332
            },
            {
              "pitch": 51,
              "velocity": 50,
              "position": 2,
              "duration": 0.020833333333333332
            },
            {
              "pitch": 44,
              "velocity": 30,
              "position": 2,
              "duration": 0.020833333333333332
            },
            {
              "pitch": 31,
              "velocity": 20,
              "position": 2.3333333333333335,
              "duration": 0.020833333333333332
            },
            {
              "pitch": 40,
              "velocity": 23,
              "position": 2.6666666666666665,
              "duration": 0.020833333333333332
            },
            {
              "pitch": 44,
              "velocity": 50,
              "position": 3,
              "duration": 0.020833333333333332
            },
            {
              "pitch": 51,
              "velocity": 50,
              "position": 3,
              "duration": 0.020833333333333332
            },
            {
              "pitch": 31,
              "velocity": 20,
              "position": 3.3333333333333335,
              "duration": 0.020833333333333332
            },
            {
              "pitch": 33,
              "velocity": 80,
              "position": 3.6666666666666665,
              "duration": 0.020833333333333332
            },
            {
              "pitch": 51,
              "velocity": 30,
              "position": 3.6666666666666665,
              "duration": 0.020833333333333332
            },
            {
              "pitch": 44,
              "velocity": 30,
              "position": 4,
              "duration": 0.020833333333333332
            },
            {
              "pitch": 51,
              "velocity": 50,
              "position": 4,
              "duration": 0.020833333333333332
            },
            {
              "pitch": 31,
              "velocity": 16,
              "position": 4.333333333333333,
              "duration": 0.020833333333333332
            },
            {
              "pitch": 40,
              "velocity": 32,
              "position": 4.666666666666667,
              "duration": 0.020833333333333332
            },
            {
              "pitch": 44,
              "velocity": 50,
              "position": 5,
              "duration": 0.020833333333333332
            },
            {
              "pitch": 51,
              "velocity": 50,
              "position": 5,
              "duration": 0.020833333333333332
            },
            {
              "pitch": 31,
              "velocity": 20,
              "position": 5.333333333333333,
              "duration": 0.020833333333333332
            },
            {
              "pitch": 33,
              "velocity": 60,
              "position": 5.666666666666667,
              "duration": 0.020833333333333332
            },
            {
              "pitch": 40,
              "velocity": 103,
              "position": 6,
              "duration": 0.020833333333333332
            },
            {
              "pitch": 51,
              "velocity": 50,
              "position": 6,
              "duration": 0.020833333333333332
            },
            {
              "pitch": 44,
              "velocity": 30,
              "position": 6,
              "duration": 0.020833333333333332
            },
            {
              "pitch": 31,
              "velocity": 20,
              "position": 6.333333333333333,
              "duration": 0.020833333333333332
            },
            {
              "pitch": 40,
              "velocity": 20,
              "position": 6.666666666666667,
              "duration": 0.020833333333333332
            },
            {
              "pitch": 44,
              "velocity": 50,
              "position": 7,
              "duration": 0.020833333333333332
            },
            {
              "pitch": 51,
              "velocity": 50,
              "position": 7,
              "duration": 0.020833333333333332
            },
            {
              "pitch": 31,
              "velocity": 20,
              "position": 7.333333333333333,
              "duration": 0.020833333333333332
            },
            {
              "pitch": 33,
              "velocity": 40,
              "position": 7.666666666666667,
              "duration": 0.020833333333333332
            },
            {
              "pitch": 51,
              "velocity": 30,
              "position": 7.666666666666667,
              "duration": 0.020833333333333332
            },
            {
              "pitch": 33,
              "velocity": 80,
              "position": 8,
              "duration": 0.020833333333333332
            },
            {
              "pitch": 51,
              "velocity": 50,
              "position": 8,
              "duration": 0.020833333333333332
            },
            {
              "pitch": 44,
              "velocity": 30,
              "position": 8,
              "duration": 0.020833333333333332
            },
            {
              "pitch": 31,
              "velocity": 16,
              "position": 8.333333333333334,
              "duration": 0.020833333333333332
            },
            {
              "pitch": 40,
              "velocity": 32,
              "position": 8.666666666666666,
              "duration": 0.020833333333333332
            },
            {
              "pitch": 44,
              "velocity": 50,
              "position": 9,
              "duration": 0.020833333333333332
            },
            {
              "pitch": 51,
              "velocity": 50,
              "position": 9,
              "duration": 0.020833333333333332
            },
            {
              "pitch": 31,
              "velocity": 20,
              "position": 9.333333333333334,
              "duration": 0.020833333333333332
            },
            {
              "pitch": 33,
              "velocity": 60,
              "position": 9.666666666666666,
              "duration": 0.020833333333333332
            },
            {
              "pitch": 40,
              "velocity": 103,
              "position": 10,
              "duration": 0.020833333333333332
            },
            {
              "pitch": 51,
              "velocity": 50,
              "position": 10,
              "duration": 0.020833333333333332
            },
            {
              "pitch": 44,
              "velocity": 30,
              "position": 10,
              "duration": 0.020833333333333332
            },
            {
              "pitch": 31,
              "velocity": 20,
              "position": 10.333333333333334,
              "duration": 0.020833333333333332
            },
            {
              "pitch": 40,
              "velocity": 20,
              "position": 10.666666666666666,
              "duration": 0.020833333333333332
            },
            {
              "pitch": 44,
              "velocity": 50,
              "position": 11,
              "duration": 0.020833333333333332
            },
            {
              "pitch": 51,
              "velocity": 50,
              "position": 11,
              "duration": 0.020833333333333332
            },
            {
              "pitch": 31,
              "velocity": 20,
              "position": 11.333333333333334,
              "duration": 0.020833333333333332
            },
            {
              "pitch": 33,
              "velocity": 80,
              "position": 11.666666666666666,
              "duration": 0.020833333333333332
            },
            {
              "pitch": 51,
              "velocity": 30,
              "position": 11.666666666666666,
              "duration": 0.020833333333333332
            },
            {
              "pitch": 44,
              "velocity": 30,
              "position": 12,
              "duration": 0.020833333333333332
            },
            {
              "pitch": 51,
              "velocity": 50,
              "position": 12,
              "duration": 0.020833333333333332
            },
            {
              "pitch": 40,
              "velocity": 35,
              "position": 12.333333333333334,
              "duration": 0.020833333333333332
            },
            {
              "pitch": 40,
              "velocity": 87,
              "position": 12.666666666666666,
              "duration": 0.020833333333333332
            },
            {
              "pitch": 44,
              "velocity": 50,
              "position": 13,
              "duration": 0.020833333333333332
            },
            {
              "pitch": 51,
              "velocity": 50,
              "position": 13,
              "duration": 0.020833333333333332
            },
            {
              "pitch": 48,
              "velocity": 87,
              "position": 13,
              "duration": 0.020833333333333332
            },
            {
              "pitch": 45,
              "velocity": 35,
              "position": 13.333333333333334,
              "duration": 0.020833333333333332
            },
            {
              "pitch": 33,
              "velocity": 80,
              "position": 13.666666666666666,
              "duration": 0.020833333333333332
            },
            {
              "pitch": 55,
              "velocity": 50,
              "position": 13.666666666666666,
              "duration": 0.020833333333333332
            },
            {
              "pitch": 44,
              "velocity": 30,
              "position": 14,
              "duration": 0.020833333333333332
            },
            {
              "pitch": 31,
              "velocity": 20,
              "position": 14.333333333333334,
              "duration": 0.020833333333333332
            },
            {
              "pitch": 40,
              "velocity": 50,
              "position": 14.666666666666666,
              "duration": 0.020833333333333332
            },
            {
              "pitch": 40,
              "velocity": 103,
              "position": 15,
              "duration": 0.020833333333333332
            },
            {
              "pitch": 44,
              "velocity": 50,
              "position": 15,
              "duration": 0.020833333333333332
            },
            {
              "pitch": 31,
              "velocity": 20,
              "position": 15.333333333333334,
              "duration": 0.020833333333333332
            },
            {
              "pitch": 33,
              "velocity": 80,
              "position": 15.666666666666666,
              "duration": 0.020833333333333332
            },
            {
              "pitch": 57,
              "velocity": 74,
              "position": 15.666666666666666,
              "duration": 0.020833333333333332
            }
          ]
        },
        "10": {
          "ctab": {
            "srcChannel": 10,
            "name": "Bass",
            "accType": "BASS",
            "editable": false,
            "mutedNotes": [],
            "mutedChords": [
              "dim7",
              "dim",
              "minMaj7(9)",
              "minMaj7",
              "min7(11)",
              "min7(9)",
              "min(9)",
              "m7b5",
              "min7",
              "min6",
              "min"
            ],
            "autoStart": false,
            "sourceChordNote": 0,
            "sourceChordType": "Maj",
            "ctb2Low": null,
            "ctb2Main": {
              "ntr": "ROOT_TRANSPOSITION",
              "ntt": "BYPASS",
              "bassOn": false,
              "chordRootUpperLimit": 1,
              "noteLowLimit": 26,
              "noteHighLimit": 127,
              "rtr": "PITCH_SHIFT"
            },
            "ctb2High": null
          },
          "notes": [
            {
              "pitch": 31,
              "velocity": 60,
              "position": 0,
              "duration": 1.2375
            },
            {
              "pitch": 31,
              "velocity": 85,
              "position": 1.3333333333333333,
              "duration": 0.2375
            },
            {
              "pitch": 31,
              "velocity": 50,
              "position": 1.6666666666666667,
              "duration": 0.1375
            },
            {
              "pitch": 43,
              "velocity": 60,
              "position": 2,
              "duration": 1.5708333333333333
            },
            {
              "pitch": 31,
              "velocity": 60,
              "position": 3.6666666666666665,
              "duration": 1.9041666666666666
            },
            {
              "pitch": 43,
              "velocity": 60,
              "position": 5.666666666666667,
              "duration": 0.9041666666666667
            },
            {
              "pitch": 45,
              "velocity": 60,
              "position": 6.666666666666667,
              "duration": 0.325
            },
            {
              "pitch": 43,
              "velocity": 50,
              "position": 7,
              "duration": 0.14166666666666666
            },
            {
              "pitch": 38,
              "velocity": 101,
              "position": 7.333333333333333,
              "duration": 0.14166666666666666
            },
            {
              "pitch": 36,
              "velocity": 101,
              "position": 7.666666666666667,
              "duration": 0.14166666666666666
            },
            {
              "pitch": 31,
              "velocity": 60,
              "position": 8,
              "duration": 1.5708333333333333
            },
            {
              "pitch": 31,
              "velocity": 101,
              "position": 9.666666666666666,
              "duration": 0.2375
            },
            {
              "pitch": 43,
              "velocity": 60,
              "position": 10,
              "duration": 1.2375
            },
            {
              "pitch": 43,
              "velocity": 90,
              "position": 11.333333333333334,
              "duration": 0.2375
            },
            {
              "pitch": 31,
              "velocity": 60,
              "position": 11.666666666666666,
              "duration": 1.9041666666666666
            },
            {
              "pitch": 31,
              "velocity": 60,
              "position": 13.666666666666666,
              "duration": 1.5708333333333333
            },
            {
              "pitch": 31,
              "velocity": 90,
              "position": 15.333333333333334,
              "duration": 0.2375
            },
            {
              "pitch": 24,
              "velocity": 60,
              "position": 15.666666666666666,
              "duration": 7.325
            }
          ]
        },
        "11": {
          "ctab": {
            "srcChannel": 11,
            "name": "E.Piano",
            "accType": "CHORD1",
            "editable": false,
            "mutedNotes": [],
            "mutedChords": [
              "dim7",
              "dim",
              "minMaj7(9)",
              "minMaj7",
              "min7(11)",
              "min7(9)",
              "min(9)",
              "m7b5",
              "min7",
              "min6",
              "min"
            ],
            "autoStart": false,
            "sourceChordNote": 0,
            "sourceChordType": "Maj",
            "ctb2Low": null,
            "ctb2Main": {
              "ntr": "ROOT_TRANSPOSITION",
              "ntt": "BYPASS",
              "bassOn": false,
              "chordRootUpperLimit": 7,
              "noteLowLimit": 54,
              "noteHighLimit": 65,
              "rtr": "PITCH_SHIFT"
            },
            "ctb2High": null
          },
          "notes": [
            {
              "pitch": 62,
              "velocity": 90,
              "position": 0,
              "duration": 3.658333333333333
            },
            {
              "pitch": 83,
              "velocity": 90,
              "position": 0.03125,
              "duration": 3.627083333333333
            },
            {
              "pitch": 76,
              "velocity": 90,
              "position": 0.020833333333333332,
              "duration": 3.6375
            },
            {
              "pitch": 55,
              "velocity": 90,
              "position": 0.010416666666666666,
              "duration": 3.6479166666666667
            },
            {
              "pitch": 43,
              "velocity": 57,
              "position": 0.010416666666666666,
              "duration": 3.6479166666666667
            },
            {
              "pitch": 81,
              "velocity": 75,
              "position": 3.6666666666666665,
              "duration": 4.325
            },
            {
              "pitch": 60,
              "velocity": 75,
              "position": 3.6979166666666665,
              "duration": 4.29375
            },
            {
              "pitch": 53,
              "velocity": 75,
              "position": 3.6875,
              "duration": 4.304166666666666
            },
            {
              "pitch": 43,
              "velocity": 48,
              "position": 3.6875,
              "duration": 4.304166666666666
            },
            {
              "pitch": 76,
              "velocity": 75,
              "position": 3.6770833333333335,
              "duration": 4.314583333333333
            },
            {
              "pitch": 62,
              "velocity": 80,
              "position": 8,
              "duration": 3.658333333333333
            },
            {
              "pitch": 83,
              "velocity": 80,
              "position": 8.03125,
              "duration": 3.627083333333333
            },
            {
              "pitch": 76,
              "velocity": 80,
              "position": 8.020833333333334,
              "duration": 3.6375
            },
            {
              "pitch": 55,
              "velocity": 80,
              "position": 8.010416666666666,
              "duration": 3.6479166666666667
            },
            {
              "pitch": 43,
              "velocity": 51,
              "position": 8.010416666666666,
              "duration": 3.6479166666666667
            },
            {
              "pitch": 81,
              "velocity": 75,
              "position": 11.666666666666666,
              "duration": 1.9916666666666667
            },
            {
              "pitch": 60,
              "velocity": 75,
              "position": 11.697916666666666,
              "duration": 1.9604166666666667
            },
            {
              "pitch": 55,
              "velocity": 75,
              "position": 11.6875,
              "duration": 1.9708333333333334
            },
            {
              "pitch": 43,
              "velocity": 48,
              "position": 11.6875,
              "duration": 1.9708333333333334
            },
            {
              "pitch": 76,
              "velocity": 75,
              "position": 11.677083333333334,
              "duration": 1.98125
            },
            {
              "pitch": 80,
              "velocity": 90,
              "position": 13.666666666666666,
              "duration": 1.35625
            },
            {
              "pitch": 75,
              "velocity": 90,
              "position": 13.677083333333334,
              "duration": 1.3458333333333334
            },
            {
              "pitch": 53,
              "velocity": 90,
              "position": 13.6875,
              "duration": 1.6375
            },
            {
              "pitch": 59,
              "velocity": 90,
              "position": 13.697916666666666,
              "duration": 1.6270833333333334
            },
            {
              "pitch": 43,
              "velocity": 57,
              "position": 13.6875,
              "duration": 1.6375
            },
            {
              "pitch": 79,
              "velocity": 80,
              "position": 15.03125,
              "duration": 0.6270833333333333
            },
            {
              "pitch": 82,
              "velocity": 80,
              "position": 15.03125,
              "duration": 0.6270833333333333
            },
            {
              "pitch": 74,
              "velocity": 90,
              "position": 15.666666666666666,
              "duration": 7.325
            },
            {
              "pitch": 59,
              "velocity": 90,
              "position": 15.697916666666666,
              "duration": 7.29375
            },
            {
              "pitch": 52,
              "velocity": 90,
              "position": 15.6875,
              "duration": 7.304166666666666
            },
            {
              "pitch": 36,
              "velocity": 57,
              "position": 15.6875,
              "duration": 7.304166666666666
            },
            {
              "pitch": 79,
              "velocity": 90,
              "position": 15.677083333333334,
              "duration": 7.314583333333333
            }
          ]
        },
        "12": {
          "ctab": {
            "srcChannel": 12,
            "name": "JazzGtr",
            "accType": "CHORD2",
            "editable": false,
            "mutedNotes": [],
            "mutedChords": [
              "dim7",
              "dim",
              "minMaj7(9)",
              "minMaj7",
              "min7(11)",
              "min7(9)",
              "min(9)",
              "m7b5",
              "min7",
              "min6",
              "min"
            ],
            "autoStart": false,
            "sourceChordNote": 0,
            "sourceChordType": "Maj",
            "ctb2Low": null,
            "ctb2Main": {
              "ntr": "ROOT_TRANSPOSITION",
              "ntt": "BYPASS",
              "bassOn": false,
              "chordRootUpperLimit": 7,
              "noteLowLimit": 60,
              "noteHighLimit": 71,
              "rtr": "PITCH_SHIFT"
            },
            "ctb2High": null
          },
          "notes": [
            {
              "pitch": 55,
              "velocity": 41,
              "position": 0.010416666666666666,
              "duration": 1.0020833333333334
            },
            {
              "pitch": 64,
              "velocity": 41,
              "position": 0.020833333333333332,
              "duration": 1.6479166666666667
            },
            {
              "pitch": 71,
              "velocity": 41,
              "position": 0.03125,
              "duration": 2.627083333333333
            },
            {
              "pitch": 71,
              "velocity": 40,
              "position": 2.6666666666666665,
              "duration": 0.5333333333333333
            },
            {
              "pitch": 64,
              "velocity": 41,
              "position": 1.6770833333333333,
              "duration": 1.5333333333333334
            },
            {
              "pitch": 50,
              "velocity": 41,
              "position": 0.010416666666666666,
              "duration": 3.2
            },
            {
              "pitch": 55,
              "velocity": 30,
              "position": 1.0208333333333333,
              "duration": 2.2
            },
            {
              "pitch": 127,
              "velocity": 40,
              "position": 3.3333333333333335,
              "duration": 0.2916666666666667
            },
            {
              "pitch": 53,
              "velocity": 41,
              "position": 3.6875,
              "duration": 0.9708333333333333
            },
            {
              "pitch": 64,
              "velocity": 41,
              "position": 3.6770833333333335,
              "duration": 1.9916666666666667
            },
            {
              "pitch": 69,
              "velocity": 41,
              "position": 3.6666666666666665,
              "duration": 2.9916666666666667
            },
            {
              "pitch": 69,
              "velocity": 40,
              "position": 6.666666666666667,
              "duration": 0.9916666666666667
            },
            {
              "pitch": 64,
              "velocity": 41,
              "position": 5.677083333333333,
              "duration": 1.9916666666666667
            },
            {
              "pitch": 53,
              "velocity": 30,
              "position": 4.666666666666667,
              "duration": 3.0125
            },
            {
              "pitch": 48,
              "velocity": 41,
              "position": 3.6979166666666665,
              "duration": 3.9916666666666667
            },
            {
              "pitch": 126,
              "velocity": 40,
              "position": 7.666666666666667,
              "duration": 0.2916666666666667
            },
            {
              "pitch": 55,
              "velocity": 41,
              "position": 8.010416666666666,
              "duration": 1.0020833333333334
            },
            {
              "pitch": 71,
              "velocity": 41,
              "position": 8.03125,
              "duration": 1.6270833333333334
            },
            {
              "pitch": 64,
              "velocity": 41,
              "position": 8.020833333333334,
              "duration": 1.6479166666666667
            },
            {
              "pitch": 50,
              "velocity": 41,
              "position": 8,
              "duration": 3.2
            },
            {
              "pitch": 55,
              "velocity": 30,
              "position": 9.020833333333334,
              "duration": 2.2
            },
            {
              "pitch": 71,
              "velocity": 40,
              "position": 9.666666666666666,
              "duration": 1.6583333333333334
            },
            {
              "pitch": 64,
              "velocity": 30,
              "position": 9.677083333333334,
              "duration": 1.6583333333333334
            },
            {
              "pitch": 125,
              "velocity": 40,
              "position": 11.333333333333334,
              "duration": 0.2916666666666667
            },
            {
              "pitch": 69,
              "velocity": 41,
              "position": 11.666666666666666,
              "duration": 1.6583333333333334
            },
            {
              "pitch": 64,
              "velocity": 41,
              "position": 11.677083333333334,
              "duration": 1.6583333333333334
            },
            {
              "pitch": 55,
              "velocity": 41,
              "position": 11.6875,
              "duration": 1.6583333333333334
            },
            {
              "pitch": 48,
              "velocity": 41,
              "position": 11.697916666666666,
              "duration": 1.6583333333333334
            },
            {
              "pitch": 124,
              "velocity": 40,
              "position": 13.333333333333334,
              "duration": 0.2916666666666667
            },
            {
              "pitch": 68,
              "velocity": 40,
              "position": 13.666666666666666,
              "duration": 1.325
            },
            {
              "pitch": 63,
              "velocity": 40,
              "position": 13.677083333333334,
              "duration": 1.3145833333333334
            },
            {
              "pitch": 53,
              "velocity": 40,
              "position": 13.6875,
              "duration": 1.6583333333333334
            },
            {
              "pitch": 47,
              "velocity": 40,
              "position": 13.697916666666666,
              "duration": 1.6583333333333334
            },
            {
              "pitch": 123,
              "velocity": 40,
              "position": 15.333333333333334,
              "duration": 0.2916666666666667
            },
            {
              "pitch": 67,
              "velocity": 115,
              "position": 15,
              "duration": 0.6583333333333333
            },
            {
              "pitch": 70,
              "velocity": 115,
              "position": 15,
              "duration": 0.6583333333333333
            },
            {
              "pitch": 74,
              "velocity": 41,
              "position": 15.666666666666666,
              "duration": 7.408333333333333
            },
            {
              "pitch": 47,
              "velocity": 41,
              "position": 15.697916666666666,
              "duration": 7.377083333333333
            },
            {
              "pitch": 52,
              "velocity": 41,
              "position": 15.6875,
              "duration": 7.3875
            },
            {
              "pitch": 67,
              "velocity": 41,
              "position": 15.677083333333334,
              "duration": 7.397916666666666
            }
          ]
        },
        "13": {
          "ctab": {
            "srcChannel": 13,
            "name": "PopVocal",
            "accType": "PAD",
            "editable": false,
            "mutedNotes": [],
            "mutedChords": [
              "dim7",
              "dim",
              "minMaj7(9)",
              "minMaj7",
              "min7(11)",
              "min7(9)",
              "min(9)",
              "m7b5",
              "min7",
              "min6",
              "min"
            ],
            "autoStart": false,
            "sourceChordNote": 0,
            "sourceChordType": "Maj",
            "ctb2Low": null,
            "ctb2Main": {
              "ntr": "ROOT_TRANSPOSITION",
              "ntt": "BYPASS",
              "bassOn": false,
              "chordRootUpperLimit": 7,
              "noteLowLimit": 53,
              "noteHighLimit": 127,
              "rtr": "PITCH_SHIFT"
            },
            "ctb2High": null
          },
          "notes": [
            {
              "pitch": 31,
              "velocity": 5,
              "position": 0.041666666666666664,
              "duration": 3.6166666666666667
            },
            {
              "pitch": 35,
              "velocity": 5,
              "position": 0.041666666666666664,
              "duration": 3.6166666666666667
            },
            {
              "pitch": 64,
              "velocity": 5,
              "position": 0.041666666666666664,
              "duration": 3.6166666666666667
            },
            {
              "pitch": 62,
              "velocity": 5,
              "position": 0.041666666666666664,
              "duration": 3.6166666666666667
            },
            {
              "pitch": 67,
              "velocity": 5,
              "position": 0.041666666666666664,
              "duration": 7.283333333333333
            },
            {
              "pitch": 64,
              "velocity": 35,
              "position": 3.6666666666666665,
              "duration": 3.658333333333333
            },
            {
              "pitch": 60,
              "velocity": 15,
              "position": 3.6666666666666665,
              "duration": 3.658333333333333
            },
            {
              "pitch": 33,
              "velocity": 35,
              "position": 3.6666666666666665,
              "duration": 3.658333333333333
            },
            {
              "pitch": 29,
              "velocity": 15,
              "position": 3.6666666666666665,
              "duration": 3.658333333333333
            },
            {
              "pitch": 31,
              "velocity": 5,
              "position": 8.010416666666666,
              "duration": 3.6479166666666667
            },
            {
              "pitch": 35,
              "velocity": 5,
              "position": 8.010416666666666,
              "duration": 3.6479166666666667
            },
            {
              "pitch": 64,
              "velocity": 5,
              "position": 8.010416666666666,
              "duration": 3.6479166666666667
            },
            {
              "pitch": 62,
              "velocity": 5,
              "position": 8.010416666666666,
              "duration": 3.6479166666666667
            },
            {
              "pitch": 67,
              "velocity": 5,
              "position": 8.010416666666666,
              "duration": 5.283333333333333
            },
            {
              "pitch": 64,
              "velocity": 35,
              "position": 11.666666666666666,
              "duration": 1.6583333333333334
            },
            {
              "pitch": 60,
              "velocity": 15,
              "position": 11.666666666666666,
              "duration": 1.6583333333333334
            },
            {
              "pitch": 33,
              "velocity": 35,
              "position": 11.666666666666666,
              "duration": 1.6583333333333334
            },
            {
              "pitch": 29,
              "velocity": 15,
              "position": 11.666666666666666,
              "duration": 1.6583333333333334
            },
            {
              "pitch": 29,
              "velocity": 44,
              "position": 13.666666666666666,
              "duration": 1.2583333333333333
            },
            {
              "pitch": 35,
              "velocity": 44,
              "position": 13.666666666666666,
              "duration": 1.2583333333333333
            },
            {
              "pitch": 63,
              "velocity": 44,
              "position": 13.666666666666666,
              "duration": 1.2583333333333333
            },
            {
              "pitch": 68,
              "velocity": 44,
              "position": 13.666666666666666,
              "duration": 1.3208333333333333
            },
            {
              "pitch": 70,
              "velocity": 83,
              "position": 14.9375,
              "duration": 0.65625
            },
            {
              "pitch": 63,
              "velocity": 83,
              "position": 14.9375,
              "duration": 0.65625
            },
            {
              "pitch": 35,
              "velocity": 83,
              "position": 14.9375,
              "duration": 0.65625
            },
            {
              "pitch": 29,
              "velocity": 83,
              "position": 14.9375,
              "duration": 0.65625
            },
            {
              "pitch": 31,
              "velocity": 104,
              "position": 15.604166666666666,
              "duration": 7.325
            },
            {
              "pitch": 67,
              "velocity": 104,
              "position": 15.604166666666666,
              "duration": 7.325
            },
            {
              "pitch": 64,
              "velocity": 104,
              "position": 15.604166666666666,
              "duration": 7.325
            },
            {
              "pitch": 62,
              "velocity": 104,
              "position": 15.604166666666666,
              "duration": 7.325
            },
            {
              "pitch": 35,
              "velocity": 104,
              "position": 15.604166666666666,
              "duration": 7.325
            }
          ]
        },
        "14": {
          "ctab": {
            "srcChannel": 14,
            "name": "Sp.Sax",
            "accType": "PHRASE1",
            "editable": false,
            "mutedNotes": [],
            "mutedChords": [
              "dim7",
              "dim",
              "minMaj7(9)",
              "minMaj7",
              "min7(11)",
              "min7(9)",
              "min(9)",
              "m7b5",
              "min7",
              "min6",
              "min"
            ],
            "autoStart": false,
            "sourceChordNote": 0,
            "sourceChordType": "Maj",
            "ctb2Low": null,
            "ctb2Main": {
              "ntr": "ROOT_TRANSPOSITION",
              "ntt": "BYPASS",
              "bassOn": false,
              "chordRootUpperLimit": 7,
              "noteLowLimit": 0,
              "noteHighLimit": 127,
              "rtr": "PITCH_SHIFT"
            },
            "ctb2High": null
          },
          "notes": [
            {
              "pitch": 67,
              "velocity": 107,
              "position": 0.7270833333333333,
              "duration": 0.36041666666666666
            },
            {
              "pitch": 67,
              "velocity": 86,
              "position": 2.0145833333333334,
              "duration": 0.6395833333333333
            },
            {
              "pitch": 69,
              "velocity": 96,
              "position": 2.7125,
              "duration": 0.2520833333333333
            },
            {
              "pitch": 64,
              "velocity": 60,
              "position": 3.1020833333333333,
              "duration": 0.5520833333333334
            },
            {
              "pitch": 65,
              "velocity": 86,
              "position": 3.65,
              "duration": 0.39375
            },
            {
              "pitch": 67,
              "velocity": 96,
              "position": 3.995833333333333,
              "duration": 0.61875
            },
            {
              "pitch": 67,
              "velocity": 70,
              "position": 4.927083333333333,
              "duration": 0.64375
            },
            {
              "pitch": 67,
              "velocity": 96,
              "position": 5.68125,
              "duration": 2.3333333333333335
            },
            {
              "pitch": 72,
              "velocity": 107,
              "position": 8.625,
              "duration": 2.0166666666666666
            },
            {
              "pitch": 70,
              "velocity": 86,
              "position": 10.65,
              "duration": 0.39375
            },
            {
              "pitch": 64,
              "velocity": 60,
              "position": 11.102083333333333,
              "duration": 0.5520833333333334
            },
            {
              "pitch": 65,
              "velocity": 86,
              "position": 11.65,
              "duration": 0.39375
            },
            {
              "pitch": 67,
              "velocity": 96,
              "position": 11.995833333333334,
              "duration": 0.64375
            },
            {
              "pitch": 64,
              "velocity": 40,
              "position": 12.647916666666667,
              "duration": 0.22083333333333333
            },
            {
              "pitch": 67,
              "velocity": 86,
              "position": 13.033333333333333,
              "duration": 0.5708333333333333
            },
            {
              "pitch": 68,
              "velocity": 96,
              "position": 13.652083333333334,
              "duration": 1.1791666666666667
            },
            {
              "pitch": 69,
              "velocity": 30,
              "position": 14.827083333333333,
              "duration": 0.25
            },
            {
              "pitch": 70,
              "velocity": 86,
              "position": 15.010416666666666,
              "duration": 0.6479166666666667
            },
            {
              "pitch": 67,
              "velocity": 96,
              "position": 15.683333333333334,
              "duration": 7.30625
            }
          ]
        },
        "15": {
          "ctab": {
            "srcChannel": 15,
            "name": "BalladDX",
            "accType": "PHRASE2",
            "editable": false,
            "mutedNotes": [],
            "mutedChords": [
              "dim7",
              "dim",
              "minMaj7(9)",
              "minMaj7",
              "min7(11)",
              "min7(9)",
              "min(9)",
              "m7b5",
              "min7",
              "min6",
              "min"
            ],
            "autoStart": false,
            "sourceChordNote": 0,
            "sourceChordType": "Maj",
            "ctb2Low": null,
            "ctb2Main": {
              "ntr": "ROOT_TRANSPOSITION",
              "ntt": "BYPASS",
              "bassOn": false,
              "chordRootUpperLimit": 7,
              "noteLowLimit": 54,
              "noteHighLimit": 65,
              "rtr": "PITCH_SHIFT"
            },
            "ctb2High": null
          },
          "notes": [
            {
              "pitch": 62,
              "velocity": 114,
              "position": 0,
              "duration": 3.658333333333333
            },
            {
              "pitch": 83,
              "velocity": 114,
              "position": 0.03125,
              "duration": 3.627083333333333
            },
            {
              "pitch": 76,
              "velocity": 114,
              "position": 0.020833333333333332,
              "duration": 3.6375
            },
            {
              "pitch": 55,
              "velocity": 114,
              "position": 0.010416666666666666,
              "duration": 3.6479166666666667
            },
            {
              "pitch": 43,
              "velocity": 30,
              "position": 0.010416666666666666,
              "duration": 3.6479166666666667
            },
            {
              "pitch": 81,
              "velocity": 62,
              "position": 3.6666666666666665,
              "duration": 4.325
            },
            {
              "pitch": 60,
              "velocity": 62,
              "position": 3.6979166666666665,
              "duration": 4.29375
            },
            {
              "pitch": 53,
              "velocity": 62,
              "position": 3.6875,
              "duration": 4.304166666666666
            },
            {
              "pitch": 43,
              "velocity": 30,
              "position": 3.6875,
              "duration": 4.304166666666666
            },
            {
              "pitch": 76,
              "velocity": 62,
              "position": 3.6770833333333335,
              "duration": 4.314583333333333
            },
            {
              "pitch": 62,
              "velocity": 79,
              "position": 8,
              "duration": 3.658333333333333
            },
            {
              "pitch": 83,
              "velocity": 79,
              "position": 8.03125,
              "duration": 3.627083333333333
            },
            {
              "pitch": 76,
              "velocity": 79,
              "position": 8.020833333333334,
              "duration": 3.6375
            },
            {
              "pitch": 55,
              "velocity": 79,
              "position": 8.010416666666666,
              "duration": 3.6479166666666667
            },
            {
              "pitch": 43,
              "velocity": 30,
              "position": 8.010416666666666,
              "duration": 3.6479166666666667
            },
            {
              "pitch": 81,
              "velocity": 62,
              "position": 11.666666666666666,
              "duration": 1.9916666666666667
            },
            {
              "pitch": 60,
              "velocity": 62,
              "position": 11.697916666666666,
              "duration": 1.9604166666666667
            },
            {
              "pitch": 55,
              "velocity": 62,
              "position": 11.6875,
              "duration": 1.9708333333333334
            },
            {
              "pitch": 43,
              "velocity": 30,
              "position": 11.6875,
              "duration": 1.9708333333333334
            },
            {
              "pitch": 76,
              "velocity": 62,
              "position": 11.677083333333334,
              "duration": 1.98125
            },
            {
              "pitch": 80,
              "velocity": 114,
              "position": 13.666666666666666,
              "duration": 1.35625
            },
            {
              "pitch": 75,
              "velocity": 114,
              "position": 13.677083333333334,
              "duration": 1.3458333333333334
            },
            {
              "pitch": 53,
              "velocity": 114,
              "position": 13.6875,
              "duration": 1.6375
            },
            {
              "pitch": 59,
              "velocity": 114,
              "position": 13.697916666666666,
              "duration": 1.6270833333333334
            },
            {
              "pitch": 43,
              "velocity": 30,
              "position": 13.6875,
              "duration": 1.6375
            },
            {
              "pitch": 79,
              "velocity": 79,
              "position": 15.03125,
              "duration": 0.6270833333333333
            },
            {
              "pitch": 82,
              "velocity": 79,
              "position": 15.03125,
              "duration": 0.6270833333333333
            },
            {
              "pitch": 74,
              "velocity": 114,
              "position": 15.666666666666666,
              "duration": 7.325
            },
            {
              "pitch": 59,
              "velocity": 114,
              "position": 15.697916666666666,
              "duration": 7.29375
            },
            {
              "pitch": 52,
              "velocity": 114,
              "position": 15.6875,
              "duration": 7.304166666666666
            },
            {
              "pitch": 36,
              "velocity": 30,
              "position": 15.6875,
              "duration": 7.304166666666666
            },
            {
              "pitch": 79,
              "velocity": 114,
              "position": 15.677083333333334,
              "duration": 7.314583333333333
            }
          ]
        }
      }
    }
  }
}