{
  "name": "JazzClub.S120.prs",
  "tempo": 164,
  "timeSignature": "4/4",
  "ticksPerQuarter": 1920,
  "sffType": "SFF1",
  "division": "EIGHTH_SHUFFLE",
  "parts": {
    "Main_A": {
      "type": "Main_A",
      "sizeInBeats": 16,
      "channels": {
        "2": {
          "ctab": {
            "srcChannel": 2,
            "name": "Gt Root",
            "accType": "CHORD1",
            "editable": false,
            "mutedNotes": [],
            "mutedChords": [
              "1+2+5",
              "sus4",
              "1+5",
              "1+8",
              "Maj7aug",
              "dim",
              "minMaj7(9)",
              "minMaj7",
              "min6",
              "min",
              "aug",
              "Maj7(9)",
              "Maj7#11",
              "Maj7",
              "Maj6",
              "Maj"
            ],
            "autoStart": false,
            "sourceChordNote": 0,
            "sourceChordType": "Maj7",
            "ctb2Low": null,
            "ctb2Main": {
              "ntr": "ROOT_TRANSPOSITION",
              "ntt": "CHORD",
              "bassOn": false,
              "chordRootUpperLimit": 6,
              "noteLowLimit": 0,
              "noteHighLimit": 127,
              "rtr": "PITCH_SHIFT"
            },
            "ctb2High": null
          },
          "notes": [
            {
              "pitch": 60,
              "velocity": 36,
              "position": 0.03125,
              "duration": 0.375
            },
            {
              "pitch": 60,
              "velocity": 36,
              "position": 1.03125,
              "duration": 0.375
            },
            {
              "pitch": 60,
              "velocity": 36,
              "position": 2.03125,
              "duration": 0.375
            },
            {
              "pitch": 60,
              "velocity": 36,
              "position": 3.03125,
              "duration": 0.375
            },
            {
              "pitch": 60,
              "velocity": 36,
              "position": 4.03125,
              "duration": 0.375
            },
            {
              "pitch": 60,
              "velocity": 36,
              "position": 5.03125,
              "duration": 0.375
            },
            {
              "pitch": 60,
              "velocity": 36,
              "position": 6.03125,
              "duration": 0.375
            },
            {
              "pitch": 60,
              "velocity": 36,
              "position": 7.03125,
              "duration": 0.375
            },
            {
              "pitch": 60,
              "velocity": 36,
              "position": 8.03125,
              "duration": 0.375
            },
            {
              "pitch": 60,
              "velocity": 36,
              "position": 9.03125,
              "duration": 0.375
            },
            {
              "pitch": 60,
              "velocity": 36,
              "position": 10.03125,
              "duration": 0.375
            },
            {
              "pitch": 60,
              "velocity": 36,
              "position": 11.03125,
              "duration": 0.375
            },
            {
              "pitch": 60,
              "velocity": 36,
              "position": 12.03125,
              "duration": 0.375
            },
            {
              "pitch": 60,
              "velocity": 36,
              "position": 13.03125,
              "duration": 0.375
            },
            {
              "pitch": 60,
              "velocity": 36,
              "position": 14.03125,
              "duration": 0.375
            },
            {
              "pitch": 60,
              "velocity": 36,
              "position": 15.03125,
              "duration": 0.375
            }
          ]
        },
        "4": {
          "ctab": {
            "srcChannel": 4,
            "name": "Vib Root",
            "accType": "PAD",
            "editable": false,
            "mutedNotes": [],
            "mutedChords": [
              "1+2+5",
              "sus4",
              "1+5",
              "1+8",
              "Maj7aug",
              "dim",
              "minMaj7(9)",
              "minMaj7",
              "min6",
              "min",
              "aug",
              "Maj7(9)",
              "Maj7#11",
              "Maj7",
              "Maj6",
              "Maj"
            ],
            "autoStart": false,
            "sourceChordNote": 0,
            "sourceChordType": "Maj7",
            "ctb2Low": null,
            "ctb2Main": {
              "ntr": "ROOT_TRANSPOSITION",
              "ntt": "CHORD",
              "bassOn": false,
              "chordRootUpperLimit": 6,
              "noteLowLimit": 0,
              "noteHighLimit": 70,
              "rtr": "PITCH_SHIFT"
            },
            "ctb2High": null
          },
          "notes": [
            {
              "pitch": 60,
              "velocity": 45,
              "position": 0,
              "duration": 3.9791666666666665
            },
            {
              "pitch": 60,
              "velocity": 34,
              "position": 6.708333333333333,
              "duration": 1.28125
            },
            {
              "pitch": 60,
              "velocity": 45,
              "position": 8,
              "duration": 3.9791666666666665
            },
            {
              "pitch": 60,
              "velocity": 34,
              "position": 14.708333333333334,
              "duration": 1.28125
            }
          ]
        },
        "8": {
          "ctab": {
            "srcChannel": 8,
            "name": "CC_Crash",
            "accType": "RHYTHM",
            "editable": false,
            "mutedNotes": [],
            "mutedChords": [
              "1+2+5",
              "sus4",
              "1+5",
              "1+8",
              "7aug",
              "Maj7aug",
              "7(#9)",
              "7(b13)",
              "7(b9)",
              "7(13)",
              "7#11",
              "7(9)",
              "7b5",
              "7sus4",
              "7th",
              "dim7",
              "dim",
              "minMaj7(9)",
              "minMaj7",
              "min7(11)",
              "min7(9)",
              "min(9)",
              "m7b5",
              "min7",
              "min6",
              "min",
              "aug",
              "Maj6(9)",
              "Maj7(9)",
              "Maj(9)",
              "Maj7#11",
              "Maj7",
              "Maj6",
              "Maj"
            ],
            "autoStart": true,
            "sourceChordNote": 0,
            "sourceChordType": "Maj",
            "ctb2Low": null,
            "ctb2Main": {
              "ntr": "ROOT_FIXED",
              "ntt": "BYPASS",
              "bassOn": false,
              "chordRootUpperLimit": 0,
              "noteLowLimit": 0,
              "noteHighLimit": 127,
              "rtr": "RETRIGGER"
            },
            "ctb2High": null
          },
          "notes": []
        },
        "9": {
          "ctab": {
            "srcChannel": 9,
            "name": "Drums",
            "accType": "RHYTHM",
            "editable": false,
            "mutedNotes": [],
            "mutedChords": [],
            "autoStart": true,
            "sourceChordNote": 0,
            "sourceChordType": "Maj7",
            "ctb2Low": null,
            "ctb2Main": {
              "ntr": "ROOT_FIXED",
              "ntt": "BYPASS",
              "bassOn": false,
              "chordRootUpperLimit": 6,
              "noteLowLimit": 0,
              "noteHighLimit": 127,
              "rtr": "PITCH_SHIFT"
            },
            "ctb2High": null
          },
          "notes": [
            {
              "pitch": 40,
              "velocity": 13,
              "position": 0,
              "duration": 0.010416666666666666
            },
            {
              "pitch": 26,
              "velocity": 30,
              "position": 0,
              "duration": 0.9895833333333334
            },
            {
              "pitch": 38,
              "velocity": 40,
              "position": 1,
              "duration": 0.010416666666666666
            },
            {
              "pitch": 44,
              "velocity": 51,
              "position": 1,
              "duration": 0.010416666666666666
            },
            {
              "pitch": 26,
              "velocity": 30,
              "position": 1,
              "duration": 0.9895833333333334
            },
            {
              "pitch": 28,
              "velocity": 40,
              "position": 1.6666666666666667,
              "duration": 0.3229166666666667
            },
            {
              "pitch": 40,
              "velocity": 13,
              "position": 2,
              "duration": 0.010416666666666666
            },
            {
              "pitch": 26,
              "velocity": 30,
              "position": 2,
              "duration": 0.9895833333333334
            },
            {
              "pitch": 38,
              "velocity": 40,
              "position": 3,
              "duration": 0.010416666666666666
            },
            {
              "pitch": 44,
              "velocity": 51,
              "position": 3,
              "duration": 0.010416666666666666
            },
            {
              "pitch": 26,
              "velocity": 30,
              "position": 3,
              "duration": 0.9895833333333334
            },
            {
              "pitch": 28,
              "velocity": 40,
              "position": 3.6666666666666665,
              "duration": 0.3229166666666667
            },
            {
              "pitch": 40,
              "velocity": 13,
              "position": 4,
              "duration": 0.010416666666666666
            },
            {
              "pitch": 26,
              "velocity": 30,
              "position": 4,
              "duration": 0.9895833333333334
            },
            {
              "pitch": 38,
              "velocity": 40,
              "position": 5,
              "duration": 0.010416666666666666
            },
            {
              "pitch": 44,
              "velocity": 51,
              "position": 5,
              "duration": 0.010416666666666666
            },
            {
              "pitch": 26,
              "velocity": 30,
              "position": 5,
              "duration": 0.9895833333333334
            },
            {
              "pitch": 28,
              "velocity": 40,
              "position": 5.666666666666667,
              "duration": 0.3229166666666667
            },
            {
              "pitch": 40,
              "velocity": 13,
              "position": 6,
              "duration": 0.010416666666666666
            },
            {
              "pitch": 26,
              "velocity": 30,
              "position": 6,
              "duration": 0.9895833333333334
            },
            {
              "pitch": 38,
              "velocity": 40,
              "position": 7,
              "duration": 0.010416666666666666
            },
            {
              "pitch": 44,
              "velocity": 51,
              "position": 7,
              "duration": 0.010416666666666666
            },
            {
              "pitch": 26,
              "velocity": 30,
              "position": 7,
              "duration": 0.9895833333333334
            },
            {
              "pitch": 28,
              "velocity": 40,
              "position": 7.666666666666667,
              "duration": 0.3229166666666667
            },
            {
              "pitch": 40,
              "velocity": 13,
              "position": 8,
              "duration": 0.010416666666666666
            },
            {
              "pitch": 26,
              "velocity": 30,
              "position": 8,
              "duration": 0.9895833333333334
            },
            {
              "pitch": 38,
              "velocity": 40,
              "position": 9,
              "duration": 0.010416666666666666
            },
            {
              "pitch": 44,
              "velocity": 51,
              "position": 9,
              "duration": 0.010416666666666666
            },
            {
              "pitch": 26,
              "velocity": 30,
              "position": 9,
              "duration": 0.9895833333333334
            },
            {
              "pitch": 28,
              "velocity": 40,
              "position": 9.666666666666666,
              "duration": 0.3229166666666667
            },
            {
              "pitch": 40,
              "velocity": 13,
              "position": 10,
              "duration": 0.010416666666666666
            },
            {
              "pitch": 26,
              "velocity": 30,
              "position": 10,
              "duration": 0.9895833333333334
            },
            {
              "pitch": 38,
              "velocity": 40,
              "position": 11,
              "duration": 0.010416666666666666
            },
            {
              "pitch": 44,
              "velocity": 51,
              "position": 11,
              "duration": 0.010416666666666666
            },
            {
              "pitch": 26,
              "velocity": 30,
              "position": 11,
              "duration": 0.9895833333333334
            },
            {
              "pitch": 28,
              "velocity": 40,
              "position": 11.666666666666666,
              "duration": 0.3229166666666667
            },
            {
              "pitch": 40,
              "velocity": 13,
              "position": 12,
              "duration": 0.010416666666666666
            },
            {
              "pitch": 26,
              "velocity": 30,
              "position": 12,
              "duration": 0.9895833333333334
            },
            {
              "pitch": 38,
              "velocity": 40,
              "position": 13,
              "duration": 0.010416666666666666
            },
            {
              "pitch": 44,
              "velocity": 51,
              "position": 13,
              "duration": 0.010416666666666666
            },
            {
              "pitch": 26,
              "velocity": 30,
              "position": 13,
              "duration": 0.9895833333333334
            },
            {
              "pitch": 28,
              "velocity": 40,
              "position": 13.666666666666666,
              "duration": 0.3229166666666667
            },
            {
              "pitch": 40,
              "velocity": 13,
              "position": 14,
              "duration": 0.010416666666666666
            },
            {
              "pitch": 26,
              "velocity": 30,
              "position": 14,
              "duration": 0.9895833333333334
            },
            {
              "pitch": 38,
              "velocity": 40,
              "position": 15,
              "duration": 0.010416666666666666
            },
            {
              "pitch": 44,
              "velocity": 51,
              "position": 15,
              "duration": 0.010416666666666666
            },
            {
              "pitch": 26,
              "velocity": 30,
              "position": 15,
              "duration": 0.9895833333333334
            },
            {
              "pitch": 28,
              "velocity": 40,
              "position": 15.666666666666666,
              "duration": 0.3229166666666667
            }
          ]
        },
        "10": {
          "ctab": {
            "srcChannel": 10,
            "name": "Bass 1",
            "accType": "BASS",
            "editable": false,
            "mutedNotes": [],
            "mutedChords": [],
            "autoStart": false,
            "sourceChordNote": 0,
            "sourceChordType": "Maj7",
            "ctb2Low": null,
            "ctb2Main": {
              "ntr": "ROOT_TRANSPOSITION",
              "ntt": "MELODY",
              "bassOn": true,
              "chordRootUpperLimit": 8,
              "noteLowLimit": 28,
              "noteHighLimit": 127,
              "rtr": "PITCH_SHIFT_TO_ROOT"
            },
            "ctb2High": null
          },
          "notes": [
            {
              "pitch": 24,
              "velocity": 50,
              "position": 0,
              "duration": 1.875
            },
            {
              "pitch": 31,
              "velocity": 50,
              "position": 2,
              "duration": 1.875
            },
            {
              "pitch": 24,
              "velocity": 50,
              "position": 4,
              "duration": 1.5416666666666667
            },
            {
              "pitch": 24,
              "velocity": 100,
              "position": 5.708333333333333,
              "duration": 0.1875
            },
            {
              "pitch": 31,
              "velocity": 50,
              "position": 6,
              "duration": 1.875
            },
            {
              "pitch": 24,
              "velocity": 50,
              "position": 8,
              "duration": 1.875
            },
            {
              "pitch": 31,
              "velocity": 50,
              "position": 10,
              "duration": 1.5416666666666667
            },
            {
              "pitch": 31,
              "velocity": 100,
              "position": 11.708333333333334,
              "duration": 0.1875
            },
            {
              "pitch": 36,
              "velocity": 50,
              "position": 12,
              "duration": 1.5416666666666667
            },
            {
              "pitch": 36,
              "velocity": 100,
              "position": 13.708333333333334,
              "duration": 0.1875
            },
            {
              "pitch": 31,
              "velocity": 50,
              "position": 14,
              "duration": 1.875
            }
          ]
        },
        "11": {
          "ctab": {
            "srcChannel": 11,
            "name": "Gt",
            "accType": "CHORD1",
            "editable": false,
            "mutedNotes": [],
            "mutedChords": [],
            "autoStart": false,
            "sourceChordNote": 0,
            "sourceChordType": "Maj7",
            "ctb2Low": null,
            "ctb2Main": {
              "ntr": "ROOT_FIXED",
              "ntt": "CHORD",
              "bassOn": false,
              "chordRootUpperLimit": 7,
              "noteLowLimit": 0,
              "noteHighLimit": 127,
              "rtr": "PITCH_SHIFT"
            },
            "ctb2High": null
          },
          "notes": [
            {
              "pitch": 55,
              "velocity": 36,
              "position": 0,
              "duration": 0.375
            },
            {
              "pitch": 59,
              "velocity": 36,
              "position": 0.03125,
              "duration": 0.375
            },
            {
              "pitch": 64,
              "velocity": 36,
              "position": 0.0625,
              "duration": 0.375
            },
            {
              "pitch": 55,
              "velocity": 36,
              "position": 1,
              "duration": 0.375
            },
            {
              "pitch": 59,
              "velocity": 36,
              "position": 1.03125,
              "duration": 0.375
            },
            {
              "pitch": 64,
              "velocity": 36,
              "position": 1.0625,
              "duration": 0.375
            },
            {
              "pitch": 55,
              "velocity": 36,
              "position": 2,
              "duration": 0.375
            },
            {
              "pitch": 59,
              "velocity": 36,
              "position": 2.03125,
              "duration": 0.375
            },
            {
              "pitch": 64,
              "velocity": 36,
              "position": 2.0625,
              "duration": 0.375
            },
            {
              "pitch": 55,
              "velocity": 36,
              "position": 3,
              "duration": 0.375
            },
            {
              "pitch": 59,
              "velocity": 36,
              "position": 3.03125,
              "duration": 0.375
            },
            {
              "pitch": 64,
              "velocity": 36,
              "position": 3.0625,
              "duration": 0.375
            },
            {
              "pitch": 55,
              "velocity": 36,
              "position": 4,
              "duration": 0.375
            },
            {
              "pitch": 59,
              "velocity": 36,
              "position": 4.03125,
              "duration": 0.375
            },
            {
              "pitch": 64,
              "velocity": 36,
              "position": 4.0625,
              "duration": 0.375
            },
            {
              "pitch": 55,
              "velocity": 36,
              "position": 5,
              "duration": 0.375
            },
            {
              "pitch": 59,
              "velocity": 36,
              "position": 5.03125,
              "duration": 0.375
            },
            {
              "pitch": 64,
              "velocity": 36,
              "position": 5.0625,
              "duration": 0.375
            },
            {
              "pitch": 55,
              "velocity": 36,
              "position": 6,
              "duration": 0.375
            },
            {
              "pitch": 59,
              "velocity": 36,
              "position": 6.03125,
              "duration": 0.375
            },
            {
              "pitch": 64,
              "velocity": 36,
              "position": 6.0625,
              "duration": 0.375
            },
            {
              "pitch": 55,
              "velocity": 36,
              "position": 7,
              "duration": 0.375
            },
            {
              "pitch": 59,
              "velocity": 36,
              "position": 7.03125,
              "duration": 0.375
            },
            {
              "pitch": 64,
              "velocity": 36,
              "position": 7.0625,
              "duration": 0.375
            },
            {
              "pitch": 55,
              "velocity": 36,
              "position": 8,
              "duration": 0.375
            },
            {
              "pitch": 59,
              "velocity": 36,
              "position": 8.03125,
              "duration": 0.375
            },
            {
              "pitch": 64,
              "velocity": 36,
              "position": 8.0625,
              "duration": 0.375
            },
            {
              "pitch": 55,
              "velocity": 36,
              "position": 9,
              "duration": 0.375
            },
            {
              "pitch": 59,
              "velocity": 36,
              "position": 9.03125,
              "duration": 0.375
            },
            {
              "pitch": 64,
              "velocity": 36,
              "position": 9.0625,
              "duration": 0.375
            },
            {
              "pitch": 55,
              "velocity": 36,
              "position": 10,
              "duration": 0.375
            },
            {
              "pitch": 59,
              "velocity": 36,
              "position": 10.03125,
              "duration": 0.375
            },
            {
              "pitch": 64,
              "velocity": 36,
              "position": 10.0625,
              "duration": 0.375
            },
            {
              "pitch": 55,
              "velocity": 36,
              "position": 11,
              "duration": 0.375
            },
            {
              "pitch": 59,
              "velocity": 36,
              "position": 11.03125,
              "duration": 0.375
            },
            {
              "pitch": 64,
              "velocity": 36,
              "position": 11.0625,
              "duration": 0.375
            },
            {
              "pitch": 55,
              "velocity": 36,
              "position": 12,
              "duration": 0.375
            },
            {
              "pitch": 59,
              "velocity": 36,
              "position": 12.03125,
              "duration": 0.375
            },
            {
              "pitch": 64,
              "velocity": 36,
              "position": 12.0625,
              "duration": 0.375
            },
            {
              "pitch": 55,
              "velocity": 36,
              "position": 13,
              "duration": 0.375
            },
            {
              "pitch": 59,
              "velocity": 36,
              "position": 13.03125,
              "duration": 0.375
            },
            {
              "pitch": 64,
              "velocity": 36,
              "position": 13.0625,
              "duration": 0.375
            },
            {
              "pitch": 55,
              "velocity": 36,
              "position": 14,
              "duration": 0.375
            },
            {
              "pitch": 59,
              "velocity": 36,
              "position": 14.03125,
              "duration": 0.375
            },
            {
              "pitch": 64,
              "velocity": 36,
              "position": 14.0625,
              "duration": 0.375
            },
            {
              "pitch": 55,
              "velocity": 36,
              "position": 15,
              "duration": 0.375
            },
            {
              "pitch": 59,
              "velocity": 36,
              "position": 15.03125,
              "duration": 0.375
            },
            {
              "pitch": 64,
              "velocity": 36,
              "position": 15.0625,
              "duration": 0.375
            }
          ]
        },
        "12": {
          "ctab": {
            "srcChannel": 12,
            "name": "Pno",
            "accType": "CHORD2",
            "editable": false,
            "mutedNotes": [],
            "mutedChords": [],
            "autoStart": false,
            "sourceChordNote": 0,
            "sourceChordType": "Maj7",
            "ctb2Low": null,
            "ctb2Main": {
              "ntr": "ROOT_FIXED",
              "ntt": "CHORD",
              "bassOn": false,
              "chordRootUpperLimit": 7,
              "noteLowLimit": 0,
              "noteHighLimit": 79,
              "rtr": "PITCH_SHIFT"
            },
            "ctb2High": null
          },
          "notes": [
            {
              "pitch": 55,
              "velocity": 73,
              "position": 2,
              "duration": 0.23958333333333334
            },
            {
              "pitch": 59,
              "velocity": 73,
              "position": 2,
              "duration": 0.23958333333333334
            },
            {
              "pitch": 64,
              "velocity": 73,
              "position": 2,
              "duration": 0.23958333333333334
            },
            {
              "pitch": 79,
              "velocity": 58,
              "position": 2,
              "duration": 0.23958333333333334
            },
            {
              "pitch": 83,
              "velocity": 58,
              "position": 2,
              "duration": 0.23958333333333334
            },
            {
              "pitch": 88,
              "velocity": 58,
              "position": 2,
              "duration": 0.23958333333333334
            },
            {
              "pitch": 55,
              "velocity": 73,
              "position": 4,
              "duration": 0.23958333333333334
            },
            {
              "pitch": 59,
              "velocity": 73,
              "position": 4,
              "duration": 0.23958333333333334
            },
            {
              "pitch": 64,
              "velocity": 73,
              "position": 4,
              "duration": 0.23958333333333334
            },
            {
              "pitch": 79,
              "velocity": 58,
              "position": 4,
              "duration": 0.23958333333333334
            },
            {
              "pitch": 83,
              "velocity": 58,
              "position": 4,
              "duration": 0.23958333333333334
            },
            {
              "pitch": 88,
              "velocity": 58,
              "position": 4,
              "duration": 0.23958333333333334
            },
            {
              "pitch": 55,
              "velocity": 73,
              "position": 5.708333333333333,
              "duration": 0.23958333333333334
            },
            {
              "pitch": 59,
              "velocity": 73,
              "position": 5.708333333333333,
              "duration": 0.23958333333333334
            },
            {
              "pitch": 64,
              "velocity": 73,
              "position": 5.708333333333333,
              "duration": 0.23958333333333334
            },
            {
              "pitch": 79,
              "velocity": 58,
              "position": 5.708333333333333,
              "duration": 0.23958333333333334
            },
            {
              "pitch": 83,
              "velocity": 58,
              "position": 5.708333333333333,
              "duration": 0.23958333333333334
            },
            {
              "pitch": 88,
              "velocity": 58,
              "position": 5.708333333333333,
              "duration": 0.23958333333333334
            },
            {
              "pitch": 55,
              "velocity": 73,
              "position": 10,
              "duration": 0.65625
            },
            {
              "pitch": 59,
              "velocity": 73,
              "position": 10,
              "duration": 0.65625
            },
            {
              "pitch": 64,
              "velocity": 73,
              "position": 10,
              "duration": 0.65625
            },
            {
              "pitch": 79,
              "velocity": 58,
              "position": 10,
              "duration": 0.65625
            },
            {
              "pitch": 83,
              "velocity": 58,
              "position": 10,
              "duration": 0.65625
            },
            {
              "pitch": 88,
              "velocity": 58,
              "position": 10,
              "duration": 0.65625
            },
            {
              "pitch": 55,
              "velocity": 63,
              "position": 10.708333333333334,
              "duration": 0.23958333333333334
            },
            {
              "pitch": 59,
              "velocity": 63,
              "position": 10.708333333333334,
              "duration": 0.23958333333333334
            },
            {
              "pitch": 64,
              "velocity": 63,
              "position": 10.708333333333334,
              "duration": 0.23958333333333334
            },
            {
              "pitch": 79,
              "velocity": 43,
              "position": 10.708333333333334,
              "duration": 0.23958333333333334
            },
            {
              "pitch": 83,
              "velocity": 43,
              "position": 10.708333333333334,
              "duration": 0.23958333333333334
            },
            {
              "pitch": 88,
              "velocity": 43,
              "position": 10.708333333333334,
              "duration": 0.23958333333333334
            },
            {
              "pitch": 55,
              "velocity": 73,
              "position": 12,
              "duration": 0.23958333333333334
            },
            {
              "pitch": 59,
              "velocity": 73,
              "position": 12,
              "duration": 0.23958333333333334
            },
            {
              "pitch": 64,
              "velocity": 73,
              "position": 12,
              "duration": 0.23958333333333334
            },
            {
              "pitch": 79,
              "velocity": 58,
              "position": 12,
              "duration": 0.23958333333333334
            },
            {
              "pitch": 83,
              "velocity": 58,
              "position": 12,
              "duration": 0.23958333333333334
            },
            {
              "pitch": 88,
              "velocity": 58,
              "position": 12,
              "duration": 0.23958333333333334
            },
            {
              "pitch": 55,
              "velocity": 73,
              "position": 13.708333333333334,
              "duration": 0.23958333333333334
            },
            {
              "pitch": 59,
              "velocity": 73,
              "position": 13.708333333333334,
              "duration": 0.23958333333333334
            },
            {
              "pitch": 64,
              "velocity": 73,
              "position": 13.708333333333334,
              "duration": 0.23958333333333334
            },
            {
              "pitch": 79,
              "velocity": 58,
              "position": 13.708333333333334,
              "duration": 0.23958333333333334
            },
            {
              "pitch": 83,
              "velocity": 58,
              "position": 13.708333333333334,
              "duration": 0.23958333333333334
            },
            {
              "pitch": 88,
              "velocity": 58,
              "position": 13.708333333333334,
              "duration": 0.23958333333333334
            }
          ]
        },
        "13": {
          "ctab": {
            "srcChannel": 13,
            "name": "Vib",
            "accType": "PAD",
            "editable": false,
            "mutedNotes": [],
            "mutedChords": [],
            "autoStart": false,
            "sourceChordNote": 0,
            "sourceChordType": "Maj7",
            "ctb2Low": null,
            "ctb2Main": {
              "ntr": "ROOT_FIXED",
              "ntt": "CHORD",
              "bassOn": false,
              "chordRootUpperLimit": 7,
              "noteLowLimit": 0,
              "noteHighLimit": 127,
              "rtr": "PITCH_SHIFT"
            },
            "ctb2High": null
          },
          "notes": [
            {
              "pitch": 55,
              "velocity": 52,
              "position": 0,
              "duration": 3.9791666666666665
            },
            {
              "pitch": 59,
              "velocity": 52,
              "position": 0,
              "duration": 3.9791666666666665
            },
            {
              "pitch": 64,
              "velocity": 52,
              "position": 0,
              "duration": 3.9791666666666665
            },
            {
              "pitch": 55,
              "velocity": 41,
              "position": 6.708333333333333,
              "duration": 1.28125
            },
            {
              "pitch": 59,
              "velocity": 41,
              "position": 6.708333333333333,
              "duration": 1.28125
            },
            {
              "pitch": 64,
              "velocity": 41,
              "position": 6.708333333333333,
              "duration": 1.28125
            },
            {
              "pitch": 55,
              "velocity": 52,
              "position": 8,
              "duration": 3.9791666666666665
            },
            {
              "pitch": 59,
              "velocity": 52,
              "position": 8,
              "duration": 3.9791666666666665
            },
            {
              "pitch": 64,
              "velocity": 52,
              "position": 8,
              "duration": 3.9791666666666665
            },
            {
              "pitch": 55,
              "velocity": 41,
              "position": 14.708333333333334,
              "duration": 1.28125
            },
            {
              "pitch": 59,
              "velocity": 41,
              "position": 14.708333333333334,
              "duration": 1.28125
            },
            {
              "pitch": 64,
              "velocity": 41,
              "position": 14.708333333333334,
              "duration": 1.28125
            }
          ]
        }
      }
    },
    "Main_B": {
      "type": "Main_B",
      "sizeInBeats": 36,
      "channels": {
        "2": {
          "ctab": {
            "srcChannel": 2,
            "name": "Gt Root",
            "accType": "CHORD1",
            "editable": false,
            "mutedNotes": [],
            "mutedChords": [
              "1+2+5",
              "sus4",
              "1+5",
              "1+8",
              "Maj7aug",
              "dim",
              "minMaj7(9)",
              "minMaj7",
              "min6",
              "min",
              "aug",
              "Maj7(9)",
              "Maj7#11",
              "Maj7",
              "Maj6",
              "Maj"
            ],
            "autoStart": false,
            "sourceChordNote": 0,
            "sourceChordType": "Maj7",
            "ctb2Low": null,
            "ctb2Main": {
              "ntr": "ROOT_TRANSPOSITION",
              "ntt": "CHORD",
              "bassOn": false,
              "chordRootUpperLimit": 6,
              "noteLowLimit": 0,
              "noteHighLimit": 127,
              "rtr": "PITCH_SHIFT"
            },
            "ctb2High": null
          },
          "notes": [
            {
              "pitch": 60,
              "velocity": 36,
              "position": 0.03125,
              "duration": 0.375
            },
            {
              "pitch": 60,
              "velocity": 36,
              "position": 1.03125,
              "duration": 0.375
            },
            {
              "pitch": 60,
              "velocity": 36,
              "position": 2.03125,
              "duration": 0.375
            },
            {
              "pitch": 60,
              "velocity": 36,
              "position": 3.03125,
              "duration": 0.375
            },
            {
              "pitch": 60,
              "velocity": 36,
              "position": 4.03125,
              "duration": 0.375
            },
            {
              "pitch": 60,
              "velocity": 36,
              "position": 5.03125,
              "duration": 0.375
            },
            {
              "pitch": 60,
              "velocity": 36,
              "position": 6.03125,
              "duration": 0.375
            },
            {
              "pitch": 60,
              "velocity": 36,
              "position": 7.03125,
              "duration": 0.375
            },
            {
              "pitch": 60,
              "velocity": 36,
              "position": 8.03125,
              "duration": 0.375
            },
            {
              "pitch": 60,
              "velocity": 36,
              "position": 9.03125,
              "duration": 0.375
            },
            {
              "pitch": 60,
              "velocity": 36,
              "position": 10.03125,
              "duration": 0.375
            },
            {
              "pitch": 60,
              "velocity": 36,
              "position": 11.03125,
              "duration": 0.375
            },
            {
              "pitch": 60,
              "velocity": 36,
              "position": 12.03125,
              "duration": 0.375
            },
            {
              "pitch": 60,
              "velocity": 36,
              "position": 13.03125,
              "duration": 0.375
            },
            {
              "pitch": 60,
              "velocity": 36,
              "position": 14.03125,
              "duration": 0.375
            },
            {
              "pitch": 60,
              "velocity": 36,
              "position": 15.03125,
              "duration": 0.375
            },
            {
              "pitch": 60,
              "velocity": 36,
              "position": 16.03125,
              "duration": 0.375
            },
            {
              "pitch": 60,
              "velocity": 36,
              "position": 17.03125,
              "duration": 0.375
            },
            {
              "pitch": 60,
              "velocity": 36,
              "position": 18.03125,
              "duration": 0.375
            },
            {
              "pitch": 60,
              "velocity": 36,
              "position": 19.03125,
              "duration": 0.375
            },
            {
              "pitch": 60,
              "velocity": 36,
              "position": 20.03125,
              "duration": 0.375
            },
            {
              "pitch": 60,
              "velocity": 36,
              "position": 21.03125,
              "duration": 0.375
            },
            {
              "pitch": 60,
              "velocity": 36,
              "position": 22.03125,
              "duration": 0.375
            },
            {
              "pitch": 60,
              "velocity": 36,
              "position": 23.03125,
              "duration": 0.375
            },
            {
              "pitch": 60,
              "velocity": 36,
              "position": 24.03125,
              "duration": 0.375
            },
            {
              "pitch": 60,
              "velocity": 36,
              "position": 25.03125,
              "duration": 0.375
            },
            {
              "pitch": 60,
              "velocity": 36,
              "position": 26.03125,
              "duration": 0.375
            },
            {
              "pitch": 60,
              "velocity": 36,
              "position": 27.03125,
              "duration": 0.375
            },
            {
              "pitch": 60,
              "velocity": 36,
              "position": 28.03125,
              "duration": 0.375
            },
            {
              "pitch": 60,
              "velocity": 36,
              "position": 29.03125,
              "duration": 0.375
            },
            {
              "pitch": 60,
              "velocity": 36,
              "position": 30.03125,
              "duration": 0.375
            },
            {
              "pitch": 60,
              "velocity": 36,
              "position": 31.03125,
              "duration": 0.375
            },
            {
              "pitch": 60,
              "velocity": 36,
              "position": 32.03125,
              "duration": 0.375
            },
            {
              "pitch": 60,
              "velocity": 36,
              "position": 33.03125,
              "duration": 0.375
            },
            {
              "pitch": 60,
              "velocity": 36,
              "position": 34.03125,
              "duration": 0.375
            },
            {
              "pitch": 60,
              "velocity": 36,
              "position": 35.03125,
              "duration": 0.375
            }
          ]
        },
        "4": {
          "ctab": {
            "srcChannel": 4,
            "name": "Vib Root",
            "accType": "PAD",
            "editable": false,
            "mutedNotes": [],
            "mutedChords": [
              "1+2+5",
              "sus4",
              "1+5",
              "1+8",
              "Maj7aug",
              "dim",
              "minMaj7(9)",
              "minMaj7",
              "min6",
              "min",
              "aug",
              "Maj7(9)",
              "Maj7#11",
              "Maj7",
              "Maj6",
              "Maj"
            ],
            "autoStart": false,
            "sourceChordNote": 0,
            "sourceChordType": "Maj7",
            "ctb2Low": null,
            "ctb2Main": {
              "ntr": "ROOT_TRANSPOSITION",
              "ntt": "CHORD",
              "bassOn": false,
              "chordRootUpperLimit": 6,
              "noteLowLimit": 0,
              "noteHighLimit": 70,
              "rtr": "PITCH_SHIFT"
            },
            "ctb2High": null
          },
          "notes": [
            {
              "pitch": 60,
              "velocity": 45,
              "position": 0.041666666666666664,
              "duration": 3.9791666666666665
            },
            {
              "pitch": 60,
              "velocity": 34,
              "position": 6.708333333333333,
              "duration": 1.28125
            },
            {
              "pitch": 60,
              "velocity": 45,
              "position": 8,
              "duration": 3.9791666666666665
            },
            {
              "pitch": 60,
              "velocity": 34,
              "position": 14.708333333333334,
              "duration": 1.28125
            },
            {
              "pitch": 60,
              "velocity": 45,
              "position": 16,
              "duration": 2.6979166666666665
            },
            {
              "pitch": 60,
              "velocity": 34,
              "position": 18.708333333333332,
              "duration": 1.28125
            },
            {
              "pitch": 60,
              "velocity": 45,
              "position": 20,
              "duration": 3.9791666666666665
            },
            {
              "pitch": 60,
              "velocity": 34,
              "position": 26.708333333333332,
              "duration": 1.28125
            },
            {
              "pitch": 60,
              "velocity": 34,
              "position": 30.708333333333332,
              "duration": 1.28125
            },
            {
              "pitch": 60,
              "velocity": 45,
              "position": 32,
              "duration": 3.9791666666666665
            }
          ]
        },
        "8": {
          "ctab": {
            "srcChannel": 8,
            "name": "CC_Crash",
            "accType": "RHYTHM",
            "editable": false,
            "mutedNotes": [],
            "mutedChords": [
              "1+2+5",
              "sus4",
              "1+5",
              "1+8",
              "7aug",
              "Maj7aug",
              "7(#9)",
              "7(b13)",
              "7(b9)",
              "7(13)",
              "7#11",
              "7(9)",
              "7b5",
              "7sus4",
              "7th",
              "dim7",
              "dim",
              "minMaj7(9)",
              "minMaj7",
              "min7(11)",
              "min7(9)",
              "min(9)",
              "m7b5",
              "min7",
              "min6",
              "min",
              "aug",
              "Maj6(9)",
              "Maj7(9)",
              "Maj(9)",
              "Maj7#11",
              "Maj7",
              "Maj6",
              "Maj"
            ],
            "autoStart": true,
            "sourceChordNote": 0,
            "sourceChordType": "Maj",
            "ctb2Low": null,
            "ctb2Main": {
              "ntr": "ROOT_FIXED",
              "ntt": "BYPASS",
              "bassOn": false,
              "chordRootUpperLimit": 0,
              "noteLowLimit": 0,
              "noteHighLimit": 127,
              "rtr": "RETRIGGER"
            },
            "ctb2High": null
          },
          "notes": []
        },
        "9": {
          "ctab": {
            "srcChannel": 9,
            "name": "Drums",
            "accType": "RHYTHM",
            "editable": false,
            "mutedNotes": [],
            "mutedChords": [],
            "autoStart": true,
            "sourceChordNote": 0,
            "sourceChordType": "Maj7",
            "ctb2Low": null,
            "ctb2Main": {
              "ntr": "ROOT_FIXED",
              "ntt": "BYPASS",
              "bassOn": false,
              "chordRootUpperLimit": 6,
              "noteLowLimit": 0,
              "noteHighLimit": 127,
              "rtr": "PITCH_SHIFT"
            },
            "ctb2High": null
          },
          "notes": [
            {
              "pitch": 36,
              "velocity": 59,
              "position": 0,
              "duration": 0.010416666666666666
            },
            {
              "pitch": 40,
              "velocity": 13,
              "position": 0,
              "duration": 0.010416666666666666
            },
            {
              "pitch": 26,
              "velocity": 30,
              "position": 0,
              "duration": 0.9895833333333334
            },
            {
              "pitch": 38,
              "velocity": 40,
              "position": 1,
              "duration": 0.010416666666666666
            },
            {
              "pitch": 44,
              "velocity": 51,
              "position": 1,
              "duration": 0.010416666666666666
            },
            {
              "pitch": 36,
              "velocity": 27,
              "position": 1.6666666666666667,
              "duration": 0.010416666666666666
            },
            {
              "pitch": 26,
              "velocity": 30,
              "position": 1,
              "duration": 0.9895833333333334
            },
            {
              "pitch": 28,
              "velocity": 40,
              "position": 1.6666666666666667,
              "duration": 0.3229166666666667
            },
            {
              "pitch": 36,
              "velocity": 40,
              "position": 2,
              "duration": 0.010416666666666666
            },
            {
              "pitch": 40,
              "velocity": 13,
              "position": 2,
              "duration": 0.010416666666666666
            },
            {
              "pitch": 26,
              "velocity": 30,
              "position": 2,
              "duration": 0.9895833333333334
            },
            {
              "pitch": 38,
              "velocity": 40,
              "position": 3,
              "duration": 0.010416666666666666
            },
            {
              "pitch": 44,
              "velocity": 51,
              "position": 3,
              "duration": 0.010416666666666666
            },
            {
              "pitch": 28,
              "velocity": 40,
              "position": 3.3333333333333335,
              "duration": 0.3229166666666667
            },
            {
              "pitch": 40,
              "velocity": 93,
              "position": 3.6666666666666665,
              "duration": 0.010416666666666666
            },
            {
              "pitch": 26,
              "velocity": 30,
              "position": 3,
              "duration": 0.9895833333333334
            },
            {
              "pitch": 26,
              "velocity": 30,
              "position": 4,
              "duration": 0.9895833333333334
            },
            {
              "pitch": 38,
              "velocity": 40,
              "position": 5,
              "duration": 0.010416666666666666
            },
            {
              "pitch": 44,
              "velocity": 51,
              "position": 5,
              "duration": 0.010416666666666666
            },
            {
              "pitch": 26,
              "velocity": 30,
              "position": 5,
              "duration": 0.9895833333333334
            },
            {
              "pitch": 28,
              "velocity": 40,
              "position": 5.666666666666667,
              "duration": 0.3229166666666667
            },
            {
              "pitch": 40,
              "velocity": 13,
              "position": 6,
              "duration": 0.010416666666666666
            },
            {
              "pitch": 40,
              "velocity": 93,
              "position": 6.666666666666667,
              "duration": 0.010416666666666666
            },
            {
              "pitch": 26,
              "velocity": 30,
              "position": 6,
              "duration": 0.9895833333333334
            },
            {
              "pitch": 38,
              "velocity": 40,
              "position": 7,
              "duration": 0.010416666666666666
            },
            {
              "pitch": 44,
              "velocity": 51,
              "position": 7,
              "duration": 0.010416666666666666
            },
            {
              "pitch": 28,
              "velocity": 40,
              "position": 7.333333333333333,
              "duration": 0.3229166666666667
            },
            {
              "pitch": 36,
              "velocity": 27,
              "position": 7.666666666666667,
              "duration": 0.010416666666666666
            },
            {
              "pitch": 26,
              "velocity": 30,
              "position": 7,
              "duration": 0.9895833333333334
            },
            {
              "pitch": 36,
              "velocity": 40,
              "position": 8,
              "duration": 0.010416666666666666
            },
            {
              "pitch": 40,
              "velocity": 13,
              "position": 8,
              "duration": 0.010416666666666666
            },
            {
              "pitch": 26,
              "velocity": 30,
              "position": 8,
              "duration": 0.9895833333333334
            },
            {
              "pitch": 38,
              "velocity": 40,
              "position": 9,
              "duration": 0.010416666666666666
            },
            {
              "pitch": 44,
              "velocity": 51,
              "position": 9,
              "duration": 0.010416666666666666
            },
            {
              "pitch": 26,
              "velocity": 30,
              "position": 9,
              "duration": 0.9895833333333334
            },
            {
              "pitch": 28,
              "velocity": 40,
              "position": 9.666666666666666,
              "duration": 0.3229166666666667
            },
            {
              "pitch": 40,
              "velocity": 13,
              "position": 10,
              "duration": 0.010416666666666666
            },
            {
              "pitch": 26,
              "velocity": 30,
              "position": 10,
              "duration": 0.9895833333333334
            },
            {
              "pitch": 38,
              "velocity": 40,
              "position": 11,
              "duration": 0.010416666666666666
            },
            {
              "pitch": 44,
              "velocity": 51,
              "position": 11,
              "duration": 0.010416666666666666
            },
            {
              "pitch": 28,
              "velocity": 40,
              "position": 11.333333333333334,
              "duration": 0.3229166666666667
            },
            {
              "pitch": 40,
              "velocity": 93,
              "position": 11.666666666666666,
              "duration": 0.010416666666666666
            },
            {
              "pitch": 26,
              "velocity": 30,
              "position": 11,
              "duration": 0.9895833333333334
            },
            {
              "pitch": 28,
              "velocity": 40,
              "position": 12.333333333333334,
              "duration": 0.3229166666666667
            },
            {
              "pitch": 36,
              "velocity": 40,
              "position": 12.666666666666666,
              "duration": 0.010416666666666666
            },
            {
              "pitch": 26,
              "velocity": 30,
              "position": 12,
              "duration": 0.9895833333333334
            },
            {
              "pitch": 38,
              "velocity": 40,
              "position": 13,
              "duration": 0.010416666666666666
            },
            {
              "pitch": 44,
              "velocity": 51,
              "position": 13,
              "duration": 0.010416666666666666
            },
            {
              "pitch": 28,
              "velocity": 40,
              "position": 13.333333333333334,
              "duration": 0.3229166666666667
            },
            {
              "pitch": 40,
              "velocity": 93,
              "position": 13.666666666666666,
              "duration": 0.010416666666666666
            },
            {
              "pitch": 26,
              "velocity": 30,
              "position": 13,
              "duration": 0.9895833333333334
            },
            {
              "pitch": 40,
              "velocity": 13,
              "position": 14,
              "duration": 0.010416666666666666
            },
            {
              "pitch": 38,
              "velocity": 40,
              "position": 14.666666666666666,
              "duration": 0.010416666666666666
            },
            {
              "pitch": 26,
              "velocity": 30,
              "position": 14,
              "duration": 0.9895833333333334
            },
            {
              "pitch": 40,
              "velocity": 93,
              "position": 15,
              "duration": 0.010416666666666666
            },
            {
              "pitch": 44,
              "velocity": 51,
              "position": 15,
              "duration": 0.010416666666666666
            },
            {
              "pitch": 26,
              "velocity": 30,
              "position": 15,
              "duration": 0.9895833333333334
            },
            {
              "pitch": 40,
              "velocity": 13,
              "position": 16,
              "duration": 0.010416666666666666
            },
            {
              "pitch": 36,
              "velocity": 40,
              "position": 16.666666666666668,
              "duration": 0.010416666666666666
            },
            {
              "pitch": 26,
              "velocity": 30,
              "position": 16,
              "duration": 0.9895833333333334
            },
            {
              "pitch": 38,
              "velocity": 40,
              "position": 17,
              "duration": 0.010416666666666666
            },
            {
              "pitch": 44,
              "velocity": 51,
              "position": 17,
              "duration": 0.010416666666666666
            },
            {
              "pitch": 26,
              "velocity": 30,
              "position": 17,
              "duration": 0.9895833333333334
            },
            {
              "pitch": 28,
              "velocity": 40,
              "position": 17.666666666666668,
              "duration": 0.3229166666666667
            },
            {
              "pitch": 36,
              "velocity": 40,
              "position": 18,
              "duration": 0.010416666666666666
            },
            {
              "pitch": 40,
              "velocity": 13,
              "position": 18,
              "duration": 0.010416666666666666
            },
            {
              "pitch": 26,
              "velocity": 30,
              "position": 18,
              "duration": 0.9895833333333334
            },
            {
              "pitch": 38,
              "velocity": 40,
              "position": 19,
              "duration": 0.010416666666666666
            },
            {
              "pitch": 44,
              "velocity": 51,
              "position": 19,
              "duration": 0.010416666666666666
            },
            {
              "pitch": 26,
              "velocity": 30,
              "position": 19,
              "duration": 0.9895833333333334
            },
            {
              "pitch": 28,
              "velocity": 40,
              "position": 19.666666666666668,
              "duration": 0.3229166666666667
            },
            {
              "pitch": 40,
              "velocity": 13,
              "position": 20,
              "duration": 0.010416666666666666
            },
            {
              "pitch": 40,
              "velocity": 93,
              "position": 20.666666666666668,
              "duration": 0.010416666666666666
            },
            {
              "pitch": 26,
              "velocity": 30,
              "position": 20,
              "duration": 0.9895833333333334
            },
            {
              "pitch": 38,
              "velocity": 40,
              "position": 21,
              "duration": 0.010416666666666666
            },
            {
              "pitch": 44,
              "velocity": 51,
              "position": 21,
              "duration": 0.010416666666666666
            },
            {
              "pitch": 26,
              "velocity": 30,
              "position": 21,
              "duration": 0.9895833333333334
            },
            {
              "pitch": 28,
              "velocity": 40,
              "position": 21.666666666666668,
              "duration": 0.3229166666666667
            },
            {
              "pitch": 40,
              "velocity": 13,
              "position": 22,
              "duration": 0.010416666666666666
            },
            {
              "pitch": 26,
              "velocity": 30,
              "position": 22,
              "duration": 0.9895833333333334
            },
            {
              "pitch": 38,
              "velocity": 40,
              "position": 23,
              "duration": 0.010416666666666666
            },
            {
              "pitch": 44,
              "velocity": 51,
              "position": 23,
              "duration": 0.010416666666666666
            },
            {
              "pitch": 28,
              "velocity": 40,
              "position": 23.333333333333332,
              "duration": 0.3229166666666667
            },
            {
              "pitch": 40,
              "velocity": 93,
              "position": 23.666666666666668,
              "duration": 0.010416666666666666
            },
            {
              "pitch": 26,
              "velocity": 30,
              "position": 23,
              "duration": 0.9895833333333334
            },
            {
              "pitch": 36,
              "velocity": 40,
              "position": 24.666666666666668,
              "duration": 0.010416666666666666
            },
            {
              "pitch": 26,
              "velocity": 30,
              "position": 24,
              "duration": 0.9895833333333334
            },
            {
              "pitch": 28,
              "velocity": 40,
              "position": 24.666666666666668,
              "duration": 0.3229166666666667
            },
            {
              "pitch": 38,
              "velocity": 40,
              "position": 25,
              "duration": 0.010416666666666666
            },
            {
              "pitch": 44,
              "velocity": 51,
              "position": 25,
              "duration": 0.010416666666666666
            },
            {
              "pitch": 26,
              "velocity": 30,
              "position": 25,
              "duration": 0.9895833333333334
            },
            {
              "pitch": 28,
              "velocity": 40,
              "position": 25.666666666666668,
              "duration": 0.3229166666666667
            },
            {
              "pitch": 36,
              "velocity": 40,
              "position": 26,
              "duration": 0.010416666666666666
            },
            {
              "pitch": 40,
              "velocity": 13,
              "position": 26,
              "duration": 0.010416666666666666
            },
            {
              "pitch": 28,
              "velocity": 40,
              "position": 26.333333333333332,
              "duration": 0.3229166666666667
            },
            {
              "pitch": 40,
              "velocity": 93,
              "position": 26.666666666666668,
              "duration": 0.010416666666666666
            },
            {
              "pitch": 26,
              "velocity": 30,
              "position": 26,
              "duration": 0.9895833333333334
            },
            {
              "pitch": 38,
              "velocity": 40,
              "position": 27,
              "duration": 0.010416666666666666
            },
            {
              "pitch": 44,
              "velocity": 51,
              "position": 27,
              "duration": 0.010416666666666666
            },
            {
              "pitch": 36,
              "velocity": 27,
              "position": 27.666666666666668,
              "duration": 0.010416666666666666
            },
            {
              "pitch": 26,
              "velocity": 30,
              "position": 27,
              "duration": 0.9895833333333334
            },
            {
              "pitch": 28,
              "velocity": 40,
              "position": 27.666666666666668,
              "duration": 0.3229166666666667
            },
            {
              "pitch": 36,
              "velocity": 40,
              "position": 28,
              "duration": 0.010416666666666666
            },
            {
              "pitch": 40,
              "velocity": 13,
              "position": 28,
              "duration": 0.010416666666666666
            },
            {
              "pitch": 26,
              "velocity": 30,
              "position": 28,
              "duration": 0.9895833333333334
            },
            {
              "pitch": 38,
              "velocity": 40,
              "position": 29,
              "duration": 0.010416666666666666
            },
            {
              "pitch": 44,
              "velocity": 51,
              "position": 29,
              "duration": 0.010416666666666666
            },
            {
              "pitch": 28,
              "velocity": 40,
              "position": 29.333333333333332,
              "duration": 0.3229166666666667
            },
            {
              "pitch": 40,
              "velocity": 93,
              "position": 29.666666666666668,
              "duration": 0.010416666666666666
            },
            {
              "pitch": 26,
              "velocity": 30,
              "position": 29,
              "duration": 0.9895833333333334
            },
            {
              "pitch": 28,
              "velocity": 40,
              "position": 30.333333333333332,
              "duration": 0.3229166666666667
            },
            {
              "pitch": 40,
              "velocity": 93,
              "position": 30.666666666666668,
              "duration": 0.010416666666666666
            },
            {
              "pitch": 26,
              "velocity": 30,
              "position": 30,
              "duration": 0.9895833333333334
            },
            {
              "pitch": 40,
              "velocity": 13,
              "position": 31,
              "duration": 0.010416666666666666
            },
            {
              "pitch": 44,
              "velocity": 51,
              "position": 31,
              "duration": 0.010416666666666666
            },
            {
              "pitch": 28,
              "velocity": 40,
              "position": 31.333333333333332,
              "duration": 0.3229166666666667
            },
            {
              "pitch": 36,
              "velocity": 27,
              "position": 31.666666666666668,
              "duration": 0.010416666666666666
            },
            {
              "pitch": 26,
              "velocity": 30,
              "position": 31,
              "duration": 0.9895833333333334
            },
            {
              "pitch": 36,
              "velocity": 40,
              "position": 32,
              "duration": 0.010416666666666666
            },
            {
              "pitch": 40,
              "velocity": 13,
              "position": 32,
              "duration": 0.010416666666666666
            },
            {
              "pitch": 26,
              "velocity": 30,
              "position": 32,
              "duration": 0.9895833333333334
            },
            {
              "pitch": 38,
              "velocity": 40,
              "position": 33,
              "duration": 0.010416666666666666
            },
            {
              "pitch": 44,
              "velocity": 51,
              "position": 33,
              "duration": 0.010416666666666666
            },
            {
              "pitch": 40,
              "velocity": 93,
              "position": 33.666666666666664,
              "duration": 0.010416666666666666
            },
            {
              "pitch": 26,
              "velocity": 30,
              "position": 33,
              "duration": 0.9895833333333334
            },
            {
              "pitch": 28,
              "velocity": 40,
              "position": 33.666666666666664,
              "duration": 0.3229166666666667
            },
            {
              "pitch": 28,
              "velocity": 40,
              "position": 34.333333333333336,
              "duration": 0.3229166666666667
            },
            {
              "pitch": 36,
              "velocity": 27,
              "position": 34.666666666666664,
              "duration": 0.010416666666666666
            },
            {
              "pitch": 26,
              "velocity": 30,
              "position": 34,
              "duration": 0.9895833333333334
            },
            {
              "pitch": 36,
              "velocity": 40,
              "position": 35,
              "duration": 0.010416666666666666
            },
            {
              "pitch": 38,
              "velocity": 40,
              "position": 35,
              "duration": 0.010416666666666666
            },
            {
              "pitch": 44,
              "velocity": 51,
              "position": 35,
              "duration": 0.010416666666666666
            },
            {
              "pitch": 28,
              "velocity": 40,
              "position": 35.333333333333336,
              "duration": 0.3229166666666667
            },
            {
              "pitch": 40,
              "velocity": 93,
              "position": 35.666666666666664,
              "duration": 0.010416666666666666
            },
            {
              "pitch": 26,
              "velocity": 30,
              "position": 35,
              "duration": 0.9895833333333334
            }
          ]
        },
        "10": {
          "ctab": {
            "srcChannel": 10,
            "name": "Bass 1",
            "accType": "BASS",
            "editable": false,
            "mutedNotes": [],
            "mutedChords": [],
            "autoStart": false,
            "sourceChordNote": 0,
            "sourceChordType": "Maj7",
            "ctb2Low": null,
            "ctb2Main": {
              "ntr": "ROOT_TRANSPOSITION",
              "ntt": "MELODY",
              "bassOn": true,
              "chordRootUpperLimit": 8,
              "noteLowLimit": 28,
              "noteHighLimit": 127,
              "rtr": "PITCH_SHIFT_TO_ROOT"
            },
            "ctb2High": null
          },
          "notes": [
            {
              "pitch": 24,
              "velocity": 50,
              "position": 0,
              "duration": 1.5416666666666667
            },
            {
              "pitch": 24,
              "velocity": 100,
              "position": 1.7083333333333333,
              "duration": 0.1875
            },
            {
              "pitch": 31,
              "velocity": 50,
              "position": 2,
              "duration": 1.5416666666666667
            },
            {
              "pitch": 31,
              "velocity": 100,
              "position": 3.7083333333333335,
              "duration": 0.1875
            },
            {
              "pitch": 36,
              "velocity": 50,
              "position": 4,
              "duration": 1.5416666666666667
            },
            {
              "pitch": 36,
              "velocity": 100,
              "position": 5.708333333333333,
              "duration": 0.1875
            },
            {
              "pitch": 31,
              "velocity": 50,
              "position": 6,
              "duration": 0.8125
            },
            {
              "pitch": 24,
              "velocity": 34,
              "position": 7,
              "duration": 0.8125
            },
            {
              "pitch": 24,
              "velocity": 50,
              "position": 8,
              "duration": 1.5416666666666667
            },
            {
              "pitch": 24,
              "velocity": 100,
              "position": 9.708333333333334,
              "duration": 0.1875
            },
            {
              "pitch": 31,
              "velocity": 50,
              "position": 10,
              "duration": 1.5416666666666667
            },
            {
              "pitch": 31,
              "velocity": 100,
              "position": 11.708333333333334,
              "duration": 0.1875
            },
            {
              "pitch": 24,
              "velocity": 50,
              "position": 12,
              "duration": 1.5416666666666667
            },
            {
              "pitch": 24,
              "velocity": 100,
              "position": 13.708333333333334,
              "duration": 0.1875
            },
            {
              "pitch": 31,
              "velocity": 50,
              "position": 14,
              "duration": 1.5416666666666667
            },
            {
              "pitch": 31,
              "velocity": 100,
              "position": 15.708333333333334,
              "duration": 0.1875
            },
            {
              "pitch": 36,
              "velocity": 50,
              "position": 16,
              "duration": 1.5416666666666667
            },
            {
              "pitch": 36,
              "velocity": 100,
              "position": 17.708333333333332,
              "duration": 0.1875
            },
            {
              "pitch": 31,
              "velocity": 50,
              "position": 18,
              "duration": 0.8125
            },
            {
              "pitch": 24,
              "velocity": 50,
              "position": 19,
              "duration": 0.8125
            },
            {
              "pitch": 31,
              "velocity": 50,
              "position": 20,
              "duration": 1.5416666666666667
            },
            {
              "pitch": 31,
              "velocity": 100,
              "position": 21.708333333333332,
              "duration": 0.1875
            },
            {
              "pitch": 24,
              "velocity": 50,
              "position": 22,
              "duration": 1.5416666666666667
            },
            {
              "pitch": 24,
              "velocity": 100,
              "position": 23.708333333333332,
              "duration": 0.1875
            },
            {
              "pitch": 28,
              "velocity": 50,
              "position": 24,
              "duration": 1.5416666666666667
            },
            {
              "pitch": 28,
              "velocity": 100,
              "position": 25.708333333333332,
              "duration": 0.1875
            },
            {
              "pitch": 31,
              "velocity": 50,
              "position": 26,
              "duration": 1.5416666666666667
            },
            {
              "pitch": 31,
              "velocity": 100,
              "position": 27.708333333333332,
              "duration": 0.1875
            },
            {
              "pitch": 36,
              "velocity": 50,
              "position": 28,
              "duration": 0.5416666666666666
            },
            {
              "pitch": 36,
              "velocity": 100,
              "position": 28.708333333333332,
              "duration": 0.13541666666666666
            },
            {
              "pitch": 31,
              "velocity": 50,
              "position": 29,
              "duration": 0.8125
            },
            {
              "pitch": 28,
              "velocity": 50,
              "position": 30,
              "duration": 1.5416666666666667
            },
            {
              "pitch": 31,
              "velocity": 100,
              "position": 31.708333333333332,
              "duration": 0.1875
            },
            {
              "pitch": 36,
              "velocity": 50,
              "position": 32,
              "duration": 1.5416666666666667
            },
            {
              "pitch": 36,
              "velocity": 100,
              "position": 33.708333333333336,
              "duration": 0.1875
            },
            {
              "pitch": 31,
              "velocity": 50,
              "position": 34,
              "duration": 0.8125
            },
            {
              "pitch": 28,
              "velocity": 40,
              "position": 35,
              "duration": 0.8125
            }
          ]
        },
        "11": {
          "ctab": {
            "srcChannel": 11,
            "name": "Gt",
            "accType": "CHORD1",
            "editable": false,
            "mutedNotes": [],
            "mutedChords": [],
            "autoStart": false,
            "sourceChordNote": 0,
            "sourceChordType": "Maj7",
            "ctb2Low": null,
            "ctb2Main": {
              "ntr": "ROOT_FIXED",
              "ntt": "CHORD",
              "bassOn": false,
              "chordRootUpperLimit": 7,
              "noteLowLimit": 0,
              "noteHighLimit": 127,
              "rtr": "PITCH_SHIFT"
            },
            "ctb2High": null
          },
          "notes": [
            {
              "pitch": 55,
              "velocity": 36,
              "position": 0,
              "duration": 0.375
            },
            {
              "pitch": 59,
              "velocity": 36,
              "position": 0.03125,
              "duration": 0.375
            },
            {
              "pitch": 64,
              "velocity": 36,
              "position": 0.0625,
              "duration": 0.375
            },
            {
              "pitch": 55,
              "velocity": 36,
              "position": 1,
              "duration": 0.375
            },
            {
              "pitch": 59,
              "velocity": 36,
              "position": 1.03125,
              "duration": 0.375
            },
            {
              "pitch": 64,
              "velocity": 36,
              "position": 1.0625,
              "duration": 0.375
            },
            {
              "pitch": 55,
              "velocity": 36,
              "position": 2,
              "duration": 0.375
            },
            {
              "pitch": 59,
              "velocity": 36,
              "position": 2.03125,
              "duration": 0.375
            },
            {
              "pitch": 64,
              "velocity": 36,
              "position": 2.0625,
              "duration": 0.375
            },
            {
              "pitch": 55,
              "velocity": 36,
              "position": 3,
              "duration": 0.375
            },
            {
              "pitch": 59,
              "velocity": 36,
              "position": 3.03125,
              "duration": 0.375
            },
            {
              "pitch": 64,
              "velocity": 36,
              "position": 3.0625,
              "duration": 0.375
            },
            {
              "pitch": 55,
              "velocity": 36,
              "position": 4,
              "duration": 0.375
            },
            {
              "pitch": 59,
              "velocity": 36,
              "position": 4.03125,
              "duration": 0.375
            },
            {
              "pitch": 64,
              "velocity": 36,
              "position": 4.0625,
              "duration": 0.375
            },
            {
              "pitch": 55,
              "velocity": 36,
              "position": 5,
              "duration": 0.375
            },
            {
              "pitch": 59,
              "velocity": 36,
              "position": 5.03125,
              "duration": 0.375
            },
            {
              "pitch": 64,
              "velocity": 36,
              "position": 5.0625,
              "duration": 0.375
            },
            {
              "pitch": 55,
              "velocity": 36,
              "position": 6,
              "duration": 0.375
            },
            {
              "pitch": 59,
              "velocity": 36,
              "position": 6.03125,
              "duration": 0.375
            },
            {
              "pitch": 64,
              "velocity": 36,
              "position": 6.0625,
              "duration": 0.375
            },
            {
              "pitch": 55,
              "velocity": 36,
              "position": 7,
              "duration": 0.375
            },
            {
              "pitch": 59,
              "velocity": 36,
              "position": 7.03125,
              "duration": 0.375
            },
            {
              "pitch": 64,
              "velocity": 36,
              "position": 7.0625,
              "duration": 0.375
            },
            {
              "pitch": 55,
              "velocity": 36,
              "position": 8,
              "duration": 0.375
            },
            {
              "pitch": 59,
              "velocity": 36,
              "position": 8.03125,
              "duration": 0.375
            },
            {
              "pitch": 64,
              "velocity": 36,
              "position": 8.0625,
              "duration": 0.375
            },
            {
              "pitch": 55,
              "velocity": 36,
              "position": 9,
              "duration": 0.375
            },
            {
              "pitch": 59,
              "velocity": 36,
              "position": 9.03125,
              "duration": 0.375
            },
            {
              "pitch": 64,
              "velocity": 36,
              "position": 9.0625,
              "duration": 0.375
            },
            {
              "pitch": 55,
              "velocity": 36,
              "position": 10,
              "duration": 0.375
            },
            {
              "pitch": 59,
              "velocity": 36,
              "position": 10.03125,
              "duration": 0.375
            },
            {
              "pitch": 64,
              "velocity": 36,
              "position": 10.0625,
              "duration": 0.375
            },
            {
              "pitch": 55,
              "velocity": 36,
              "position": 11,
              "duration": 0.375
            },
            {
              "pitch": 59,
              "velocity": 36,
              "position": 11.03125,
              "duration": 0.375
            },
            {
              "pitch": 64,
              "velocity": 36,
              "position": 11.0625,
              "duration": 0.375
            },
            {
              "pitch": 55,
              "velocity": 36,
              "position": 12,
              "duration": 0.375
            },
            {
              "pitch": 59,
              "velocity": 36,
              "position": 12.03125,
              "duration": 0.375
            },
            {
              "pitch": 64,
              "velocity": 36,
              "position": 12.0625,
              "duration": 0.375
            },
            {
              "pitch": 55,
              "velocity": 36,
              "position": 13,
              "duration": 0.375
            },
            {
              "pitch": 59,
              "velocity": 36,
              "position": 13.03125,
              "duration": 0.375
            },
            {
              "pitch": 64,
              "velocity": 36,
              "position": 13.0625,
              "duration": 0.375
            },
            {
              "pitch": 55,
              "velocity": 36,
              "position": 14,
              "duration": 0.375
            },
            {
              "pitch": 59,
              "velocity": 36,
              "position": 14.03125,
              "duration": 0.375
            },
            {
              "pitch": 64,
              "velocity": 36,
              "position": 14.0625,
              "duration": 0.375
            },
            {
              "pitch": 55,
              "velocity": 36,
              "position": 15,
              "duration": 0.375
            },
            {
              "pitch": 59,
              "velocity": 36,
              "position": 15.03125,
              "duration": 0.375
            },
            {
              "pitch": 64,
              "velocity": 36,
              "position": 15.0625,
              "duration": 0.375
            },
            {
              "pitch": 55,
              "velocity": 36,
              "position": 16,
              "duration": 0.375
            },
            {
              "pitch": 59,
              "velocity": 36,
              "position": 16.03125,
              "duration": 0.375
            },
            {
              "pitch": 64,
              "velocity": 36,
              "position": 16.0625,
              "duration": 0.375
            },
            {
              "pitch": 55,
              "velocity": 36,
              "position": 17,
              "duration": 0.375
            },
            {
              "pitch": 59,
              "velocity": 36,
              "position": 17.03125,
              "duration": 0.375
            },
            {
              "pitch": 64,
              "velocity": 36,
              "position": 17.0625,
              "duration": 0.375
            },
            {
              "pitch": 55,
              "velocity": 36,
              "position": 18,
              "duration": 0.375
            },
            {
              "pitch": 59,
              "velocity": 36,
              "position": 18.03125,
              "duration": 0.375
            },
            {
              "pitch": 64,
              "velocity": 36,
              "position": 18.0625,
              "duration": 0.375
            },
            {
              "pitch": 55,
              "velocity": 36,
              "position": 19,
              "duration": 0.375
            },
            {
              "pitch": 59,
              "velocity": 36,
              "position": 19.03125,
              "duration": 0.375
            },
            {
              "pitch": 64,
              "velocity": 36,
              "position": 19.0625,
              "duration": 0.375
            },
            {
              "pitch": 55,
              "velocity": 36,
              "position": 20,
              "duration": 0.375
            },
            {
              "pitch": 59,
              "velocity": 36,
              "position": 20.03125,
              "duration": 0.375
            },
            {
              "pitch": 64,
              "velocity": 36,
              "position": 20.0625,
              "duration": 0.375
            },
            {
              "pitch": 55,
              "velocity": 36,
              "position": 21,
              "duration": 0.375
            },
            {
              "pitch": 59,
              "velocity": 36,
              "position": 21.03125,
              "duration": 0.375
            },
            {
              "pitch": 64,
              "velocity": 36,
              "position": 21.0625,
              "duration": 0.375
            },
            {
              "pitch": 55,
              "velocity": 36,
              "position": 22,
              "duration": 0.375
            },
            {
              "pitch": 59,
              "velocity": 36,
              "position": 22.03125,
              "duration": 0.375
            },
            {
              "pitch": 64,
              "velocity": 36,
              "position": 22.0625,
              "duration": 0.375
            },
            {
              "pitch": 55,
              "velocity": 36,
              "position": 23,
              "duration": 0.375
            },
            {
              "pitch": 59,
              "velocity": 36,
              "position": 23.03125,
              "duration": 0.375
            },
            {
              "pitch": 64,
              "velocity": 36,
              "position": 23.0625,
              "duration": 0.375
            },
            {
              "pitch": 55,
              "velocity": 36,
              "position": 24,
              "duration": 0.375
            },
            {
              "pitch": 59,
              "velocity": 36,
              "position": 24.03125,
              "duration": 0.375
            },
            {
              "pitch": 64,
              "velocity": 36,
              "position": 24.0625,
              "duration": 0.375
            },
            {
              "pitch": 55,
              "velocity": 36,
              "position": 25,
              "duration": 0.375
            },
            {
              "pitch": 59,
              "velocity": 36,
              "position": 25.03125,
              "duration": 0.375
            },
            {
              "pitch": 64,
              "velocity": 36,
              "position": 25.0625,
              "duration": 0.375
            },
            {
              "pitch": 55,
              "velocity": 36,
              "position": 26,
              "duration": 0.375
            },
            {
              "pitch": 59,
              "velocity": 36,
              "position": 26.03125,
              "duration": 0.375
            },
            {
              "pitch": 64,
              "velocity": 36,
              "position": 26.0625,
              "duration": 0.375
            },
            {
              "pitch": 55,
              "velocity": 36,
              "position": 27,
              "duration": 0.375
            },
            {
              "pitch": 59,
              "velocity": 36,
              "position": 27.03125,
              "duration": 0.375
            },
            {
              "pitch": 64,
              "velocity": 36,
              "position": 27.0625,
              "duration": 0.375
            },
            {
              "pitch": 55,
              "velocity": 36,
              "position": 28,
              "duration": 0.375
            },
            {
              "pitch": 59,
              "velocity": 36,
              "position": 28.03125,
              "duration": 0.375
            },
            {
              "pitch": 64,
              "velocity": 36,
              "position": 28.0625,
              "duration": 0.375
            },
            {
              "pitch": 55,
              "velocity": 36,
              "position": 29,
              "duration": 0.375
            },
            {
              "pitch": 59,
              "velocity": 36,
              "position": 29.03125,
              "duration": 0.375
            },
            {
              "pitch": 64,
              "velocity": 36,
              "position": 29.0625,
              "duration": 0.375
            },
            {
              "pitch": 55,
              "velocity": 36,
              "position": 30,
              "duration": 0.375
            },
            {
              "pitch": 59,
              "velocity": 36,
              "position": 30.03125,
              "duration": 0.375
            },
            {
              "pitch": 64,
              "velocity": 36,
              "position": 30.0625,
              "duration": 0.375
            },
            {
              "pitch": 55,
              "velocity": 36,
              "position": 31,
              "duration": 0.375
            },
            {
              "pitch": 59,
              "velocity": 36,
              "position": 31.03125,
              "duration": 0.375
            },
            {
              "pitch": 64,
              "velocity": 36,
              "position": 31.0625,
              "duration": 0.375
            },
            {
              "pitch": 55,
              "velocity": 36,
              "position": 32,
              "duration": 0.375
            },
            {
              "pitch": 59,
              "velocity": 36,
              "position": 32.03125,
              "duration": 0.375
            },
            {
              "pitch": 64,
              "velocity": 36,
              "position": 32.0625,
              "duration": 0.375
            },
            {
              "pitch": 55,
              "velocity": 36,
              "position": 33,
              "duration": 0.375
            },
            {
              "pitch": 59,
              "velocity": 36,
              "position": 33.03125,
              "duration": 0.375
            },
            {
              "pitch": 64,
              "velocity": 36,
              "position": 33.0625,
              "duration": 0.375
            },
            {
              "pitch": 55,
              "velocity": 36,
              "position": 34,
              "duration": 0.375
            },
            {
              "pitch": 59,
              "velocity": 36,
              "position": 34.03125,
              "duration": 0.375
            },
            {
              "pitch": 64,
              "velocity": 36,
              "position": 34.0625,
              "duration": 0.375
            },
            {
              "pitch": 55,
              "velocity": 36,
              "position": 35,
              "duration": 0.375
            },
            {
              "pitch": 59,
              "velocity": 36,
              "position": 35.03125,
              "duration": 0.375
            },
            {
              "pitch": 64,
              "velocity": 36,
              "position": 35.0625,
              "duration": 0.375
            }
          ]
        },
        "12": {
          "ctab": {
            "srcChannel": 12,
            "name": "Pno",
            "accType": "CHORD2",
            "editable": false,
            "mutedNotes": [],
            "mutedChords": [],
            "autoStart": false,
            "sourceChordNote": 0,
            "sourceChordType": "Maj7",
            "ctb2Low": null,
            "ctb2Main": {
              "ntr": "ROOT_FIXED",
              "ntt": "CHORD",
              "bassOn": false,
              "chordRootUpperLimit": 7,
              "noteLowLimit": 0,
              "noteHighLimit": 79,
              "rtr": "PITCH_SHIFT"
            },
            "ctb2High": null
          },
          "notes": [
            {
              "pitch": 55,
              "velocity": 64,
              "position": 0.7083333333333334,
              "duration": 3.125
            },
            {
              "pitch": 59,
              "velocity": 64,
              "position": 0.7083333333333334,
              "duration": 3.125
            },
            {
              "pitch": 64,
              "velocity": 64,
              "position": 0.7083333333333334,
              "duration": 3.125
            },
            {
              "pitch": 59,
              "velocity": 73,
              "position": 5.708333333333333,
              "duration": 0.19791666666666666
            },
            {
              "pitch": 64,
              "velocity": 73,
              "position": 5.708333333333333,
              "duration": 0.19791666666666666
            },
            {
              "pitch": 67,
              "velocity": 73,
              "position": 5.708333333333333,
              "duration": 0.19791666666666666
            },
            {
              "pitch": 55,
              "velocity": 63,
              "position": 8.708333333333334,
              "duration": 0.19791666666666666
            },
            {
              "pitch": 59,
              "velocity": 63,
              "position": 8.708333333333334,
              "duration": 0.19791666666666666
            },
            {
              "pitch": 64,
              "velocity": 63,
              "position": 8.708333333333334,
              "duration": 0.19791666666666666
            },
            {
              "pitch": 52,
              "velocity": 73,
              "position": 10.708333333333334,
              "duration": 0.19791666666666666
            },
            {
              "pitch": 55,
              "velocity": 73,
              "position": 10.708333333333334,
              "duration": 0.19791666666666666
            },
            {
              "pitch": 59,
              "velocity": 73,
              "position": 10.708333333333334,
              "duration": 0.19791666666666666
            },
            {
              "pitch": 55,
              "velocity": 73,
              "position": 12,
              "duration": 1.65625
            },
            {
              "pitch": 59,
              "velocity": 73,
              "position": 12,
              "duration": 1.65625
            },
            {
              "pitch": 64,
              "velocity": 73,
              "position": 12,
              "duration": 1.65625
            },
            {
              "pitch": 55,
              "velocity": 63,
              "position": 13.708333333333334,
              "duration": 1.9895833333333333
            },
            {
              "pitch": 59,
              "velocity": 63,
              "position": 13.708333333333334,
              "duration": 1.9895833333333333
            },
            {
              "pitch": 64,
              "velocity": 63,
              "position": 13.708333333333334,
              "duration": 1.9895833333333333
            },
            {
              "pitch": 59,
              "velocity": 73,
              "position": 16.708333333333332,
              "duration": 0.19791666666666666
            },
            {
              "pitch": 64,
              "velocity": 73,
              "position": 16.708333333333332,
              "duration": 0.19791666666666666
            },
            {
              "pitch": 67,
              "velocity": 73,
              "position": 16.708333333333332,
              "duration": 0.19791666666666666
            },
            {
              "pitch": 55,
              "velocity": 63,
              "position": 18,
              "duration": 1.7916666666666667
            },
            {
              "pitch": 59,
              "velocity": 63,
              "position": 18,
              "duration": 1.7916666666666667
            },
            {
              "pitch": 64,
              "velocity": 63,
              "position": 18,
              "duration": 1.7916666666666667
            },
            {
              "pitch": 59,
              "velocity": 73,
              "position": 20.708333333333332,
              "duration": 0.19791666666666666
            },
            {
              "pitch": 64,
              "velocity": 73,
              "position": 20.708333333333332,
              "duration": 0.19791666666666666
            },
            {
              "pitch": 67,
              "velocity": 73,
              "position": 20.708333333333332,
              "duration": 0.19791666666666666
            },
            {
              "pitch": 55,
              "velocity": 73,
              "position": 22.708333333333332,
              "duration": 0.19791666666666666
            },
            {
              "pitch": 59,
              "velocity": 73,
              "position": 22.708333333333332,
              "duration": 0.19791666666666666
            },
            {
              "pitch": 64,
              "velocity": 73,
              "position": 22.708333333333332,
              "duration": 0.19791666666666666
            },
            {
              "pitch": 55,
              "velocity": 63,
              "position": 24,
              "duration": 3.7916666666666665
            },
            {
              "pitch": 59,
              "velocity": 63,
              "position": 24,
              "duration": 3.7916666666666665
            },
            {
              "pitch": 64,
              "velocity": 63,
              "position": 24,
              "duration": 3.7916666666666665
            },
            {
              "pitch": 55,
              "velocity": 73,
              "position": 28.708333333333332,
              "duration": 0.19791666666666666
            },
            {
              "pitch": 59,
              "velocity": 73,
              "position": 28.708333333333332,
              "duration": 0.19791666666666666
            },
            {
              "pitch": 64,
              "velocity": 73,
              "position": 28.708333333333332,
              "duration": 0.19791666666666666
            },
            {
              "pitch": 59,
              "velocity": 73,
              "position": 30.708333333333332,
              "duration": 1.28125
            },
            {
              "pitch": 64,
              "velocity": 73,
              "position": 30.708333333333332,
              "duration": 1.28125
            },
            {
              "pitch": 67,
              "velocity": 73,
              "position": 30.708333333333332,
              "duration": 1.28125
            },
            {
              "pitch": 59,
              "velocity": 63,
              "position": 32,
              "duration": 0.03125
            },
            {
              "pitch": 64,
              "velocity": 63,
              "position": 32,
              "duration": 0.03125
            },
            {
              "pitch": 55,
              "velocity": 63,
              "position": 32,
              "duration": 0.19791666666666666
            },
            {
              "pitch": 52,
              "velocity": 73,
              "position": 33.708333333333336,
              "duration": 0.19791666666666666
            },
            {
              "pitch": 55,
              "velocity": 73,
              "position": 33.708333333333336,
              "duration": 0.19791666666666666
            },
            {
              "pitch": 59,
              "velocity": 73,
              "position": 33.708333333333336,
              "duration": 0.19791666666666666
            },
            {
              "pitch": 55,
              "velocity": 73,
              "position": 35.708333333333336,
              "duration": 0.19791666666666666
            },
            {
              "pitch": 59,
              "velocity": 73,
              "position": 35.708333333333336,
              "duration": 0.19791666666666666
            },
            {
              "pitch": 64,
              "velocity": 73,
              "position": 35.708333333333336,
              "duration": 0.19791666666666666
            }
          ]
        },
        "13": {
          "ctab": {
            "srcChannel": 13,
            "name": "Vib",
            "accType": "PAD",
            "editable": false,
            "mutedNotes": [],
            "mutedChords": [],
            "autoStart": false,
            "sourceChordNote": 0,
            "sourceChordType": "Maj7",
            "ctb2Low": null,
            "ctb2Main": {
              "ntr": "ROOT_FIXED",
              "ntt": "CHORD",
              "bassOn": false,
              "chordRootUpperLimit": 7,
              "noteLowLimit": 0,
              "noteHighLimit": 127,
              "rtr": "PITCH_SHIFT"
            },
            "ctb2High": null
          },
          "notes": [
            {
              "pitch": 55,
              "velocity": 52,
              "position": 0.041666666666666664,
              "duration": 3.9791666666666665
            },
            {
              "pitch": 59,
              "velocity": 52,
              "position": 0.041666666666666664,
              "duration": 3.9791666666666665
            },
            {
              "pitch": 64,
              "velocity": 52,
              "position": 0.041666666666666664,
              "duration": 3.9791666666666665
            },
            {
              "pitch": 55,
              "velocity": 41,
              "position": 6.708333333333333,
              "duration": 1.28125
            },
            {
              "pitch": 59,
              "velocity": 41,
              "position": 6.708333333333333,
              "duration": 1.28125
            },
            {
              "pitch": 64,
              "velocity": 41,
              "position": 6.708333333333333,
              "duration": 1.28125
            },
            {
              "pitch": 55,
              "velocity": 52,
              "position": 8,
              "duration": 3.9791666666666665
            },
            {
              "pitch": 59,
              "velocity": 52,
              "position": 8,
              "duration": 3.9791666666666665
            },
            {
              "pitch": 64,
              "velocity": 52,
              "position": 8,
              "duration": 3.9791666666666665
            },
            {
              "pitch": 55,
              "velocity": 41,
              "position": 14.708333333333334,
              "duration": 1.28125
            },
            {
              "pitch": 59,
              "velocity": 41,
              "position": 14.708333333333334,
              "duration": 1.28125
            },
            {
              "pitch": 64,
              "velocity": 41,
              "position": 14.708333333333334,
              "duration": 1.28125
            },
            {
              "pitch": 55,
              "velocity": 52,
              "position": 16,
              "duration": 2.6979166666666665
            },
            {
              "pitch": 59,
              "velocity": 52,
              "position": 16,
              "duration": 2.6979166666666665
            },
            {
              "pitch": 64,
              "velocity": 52,
              "position": 16,
              "duration": 2.6979166666666665
            },
            {
              "pitch": 55,
              "velocity": 41,
              "position": 18.708333333333332,
              "duration": 1.28125
            },
            {
              "pitch": 59,
              "velocity": 41,
              "position": 18.708333333333332,
              "duration": 1.28125
            },
            {
              "pitch": 64,
              "velocity": 41,
              "position": 18.708333333333332,
              "duration": 1.28125
            },
            {
              "pitch": 55,
              "velocity": 52,
              "position": 20,
              "duration": 3.9791666666666665
            },
            {
              "pitch": 59,
              "velocity": 52,
              "position": 20,
              "duration": 3.9791666666666665
            },
            {
              "pitch": 64,
              "velocity": 52,
              "position": 20,
              "duration": 3.9791666666666665
            },
            {
              "pitch": 55,
              "velocity": 41,
              "position": 26.708333333333332,
              "duration": 1.28125
            },
            {
              "pitch": 59,
              "velocity": 41,
              "position": 26.708333333333332,
              "duration": 1.28125
            },
            {
              "pitch": 64,
              "velocity": 41,
              "position": 26.708333333333332,
              "duration": 1.28125
            },
            {
              "pitch": 55,
              "velocity": 41,
              "position": 30.708333333333332,
              "duration": 1.28125
            },
            {
              "pitch": 59,
              "velocity": 41,
              "position": 30.708333333333332,
              "duration": 1.28125
            },
            {
              "pitch": 64,
              "velocity": 41,
              "position": 30.708333333333332,
              "duration": 1.28125
            },
            {
              "pitch": 55,
              "velocity": 52,
              "position": 32,
              "duration": 3.9791666666666665
            },
            {
              "pitch": 59,
              "velocity": 52,
              "position": 32,
              "duration": 3.9791666666666665
            },
            {
              "pitch": 64,
              "velocity": 52,
              "position": 32,
              "duration": 3.9791666666666665
            }
          ]
        }
      }
    },
    "Main_C": {
      "type": "Main_C",
      "sizeInBeats": 16,
      "channels": {
        "2": {
          "ctab": {
            "srcChannel": 2,
            "name": "Gt Root",
            "accType": "CHORD1",
            "editable": false,
            "mutedNotes": [],
            "mutedChords": [
              "1+2+5",
              "sus4",
              "1+5",
              "1+8",
              "Maj7aug",
              "dim",
              "minMaj7(9)",
              "minMaj7",
              "min6",
              "min",
              "aug",
              "Maj7(9)",
              "Maj7#11",
              "Maj7",
              "Maj6",
              "Maj"
            ],
            "autoStart": false,
            "sourceChordNote": 0,
            "sourceChordType": "Maj7",
            "ctb2Low": null,
            "ctb2Main": {
              "ntr": "ROOT_TRANSPOSITION",
              "ntt": "CHORD",
              "bassOn": false,
              "chordRootUpperLimit": 6,
              "noteLowLimit": 0,
              "noteHighLimit": 127,
              "rtr": "PITCH_SHIFT"
            },
            "ctb2High": null
          },
          "notes": [
            {
              "pitch": 60,
              "velocity": 36,
              "position": 0.03125,
              "duration": 0.375
            },
            {
              "pitch": 60,
              "velocity": 36,
              "position": 1.03125,
              "duration": 0.375
            },
            {
              "pitch": 60,
              "velocity": 36,
              "position": 2.03125,
              "duration": 0.375
            },
            {
              "pitch": 60,
              "velocity": 36,
              "position": 3.03125,
              "duration": 0.375
            },
            {
              "pitch": 60,
              "velocity": 36,
              "position": 4.03125,
              "duration": 0.375
            },
            {
              "pitch": 60,
              "velocity": 36,
              "position": 5.03125,
              "duration": 0.375
            },
            {
              "pitch": 60,
              "velocity": 36,
              "position": 6.03125,
              "duration": 0.375
            },
            {
              "pitch": 60,
              "velocity": 36,
              "position": 7.03125,
              "duration": 0.375
            },
            {
              "pitch": 60,
              "velocity": 36,
              "position": 8.03125,
              "duration": 0.375
            },
            {
              "pitch": 60,
              "velocity": 36,
              "position": 9.03125,
              "duration": 0.375
            },
            {
              "pitch": 60,
              "velocity": 36,
              "position": 10.03125,
              "duration": 0.375
            },
            {
              "pitch": 60,
              "velocity": 36,
              "position": 11.03125,
              "duration": 0.375
            },
            {
              "pitch": 60,
              "velocity": 36,
              "position": 12.03125,
              "duration": 0.375
            },
            {
              "pitch": 60,
              "velocity": 36,
              "position": 13.03125,
              "duration": 0.375
            },
            {
              "pitch": 60,
              "velocity": 36,
              "position": 14.03125,
              "duration": 0.375
            },
            {
              "pitch": 60,
              "velocity": 36,
              "position": 15.03125,
              "duration": 0.375
            }
          ]
        },
        "4": {
          "ctab": {
            "srcChannel": 4,
            "name": "Vib Root",
            "accType": "PAD",
            "editable": false,
            "mutedNotes": [],
            "mutedChords": [
              "1+2+5",
              "sus4",
              "1+5",
              "1+8",
              "Maj7aug",
              "dim",
              "minMaj7(9)",
              "minMaj7",
              "min6",
              "min",
              "aug",
              "Maj7(9)",
              "Maj7#11",
              "Maj7",
              "Maj6",
              "Maj"
            ],
            "autoStart": false,
            "sourceChordNote": 0,
            "sourceChordType": "Maj7",
            "ctb2Low": null,
            "ctb2Main": {
              "ntr": "ROOT_TRANSPOSITION",
              "ntt": "CHORD",
              "bassOn": false,
              "chordRootUpperLimit": 6,
              "noteLowLimit": 0,
              "noteHighLimit": 70,
              "rtr": "PITCH_SHIFT"
            },
            "ctb2High": null
          },
          "notes": [
            {
              "pitch": 60,
              "velocity": 45,
              "position": 0.6666666666666666,
              "duration": 1.3125
            },
            {
              "pitch": 60,
              "velocity": 45,
              "position": 2,
              "duration": 1.9791666666666667
            },
            {
              "pitch": 60,
              "velocity": 34,
              "position": 6.708333333333333,
              "duration": 1.28125
            },
            {
              "pitch": 60,
              "velocity": 45,
              "position": 8.666666666666666,
              "duration": 1.3125
            },
            {
              "pitch": 60,
              "velocity": 45,
              "position": 10,
              "duration": 1.9791666666666667
            },
            {
              "pitch": 60,
              "velocity": 34,
              "position": 14.708333333333334,
              "duration": 1.28125
            }
          ]
        },
        "8": {
          "ctab": {
            "srcChannel": 8,
            "name": "CC_Crash",
            "accType": "RHYTHM",
            "editable": false,
            "mutedNotes": [],
            "mutedChords": [
              "1+2+5",
              "sus4",
              "1+5",
              "1+8",
              "7aug",
              "Maj7aug",
              "7(#9)",
              "7(b13)",
              "7(b9)",
              "7(13)",
              "7#11",
              "7(9)",
              "7b5",
              "7sus4",
              "7th",
              "dim7",
              "dim",
              "minMaj7(9)",
              "minMaj7",
              "min7(11)",
              "min7(9)",
              "min(9)",
              "m7b5",
              "min7",
              "min6",
              "min",
              "aug",
              "Maj6(9)",
              "Maj7(9)",
              "Maj(9)",
              "Maj7#11",
              "Maj7",
              "Maj6",
              "Maj"
            ],
            "autoStart": true,
            "sourceChordNote": 0,
            "sourceChordType": "Maj",
            "ctb2Low": null,
            "ctb2Main": {
              "ntr": "ROOT_FIXED",
              "ntt": "BYPASS",
              "bassOn": false,
              "chordRootUpperLimit": 0,
              "noteLowLimit": 0,
              "noteHighLimit": 127,
              "rtr": "RETRIGGER"
            },
            "ctb2High": null
          },
          "notes": []
        },
        "9": {
          "ctab": {
            "srcChannel": 9,
            "name": "Drums",
            "accType": "RHYTHM",
            "editable": false,
            "mutedNotes": [],
            "mutedChords": [],
            "autoStart": true,
            "sourceChordNote": 0,
            "sourceChordType": "Maj7",
            "ctb2Low": null,
            "ctb2Main": {
              "ntr": "ROOT_FIXED",
              "ntt": "BYPASS",
              "bassOn": false,
              "chordRootUpperLimit": 6,
              "noteLowLimit": 0,
              "noteHighLimit": 127,
              "rtr": "PITCH_SHIFT"
            },
            "ctb2High": null
          },
          "notes": [
            {
              "pitch": 59,
              "velocity": 45,
              "position": 0,
              "duration": 0.010416666666666666
            },
            {
              "pitch": 26,
              "velocity": 30,
              "position": 0,
              "duration": 0.9895833333333334
            },
            {
              "pitch": 38,
              "velocity": 40,
              "position": 1,
              "duration": 0.010416666666666666
            },
            {
              "pitch": 44,
              "velocity": 51,
              "position": 1,
              "duration": 0.010416666666666666
            },
            {
              "pitch": 59,
              "velocity": 45,
              "position": 1,
              "duration": 0.010416666666666666
            },
            {
              "pitch": 26,
              "velocity": 30,
              "position": 1,
              "duration": 0.9895833333333334
            },
            {
              "pitch": 28,
              "velocity": 40,
              "position": 1.6666666666666667,
              "duration": 0.3229166666666667
            },
            {
              "pitch": 59,
              "velocity": 45,
              "position": 2,
              "duration": 0.010416666666666666
            },
            {
              "pitch": 26,
              "velocity": 30,
              "position": 2,
              "duration": 0.9895833333333334
            },
            {
              "pitch": 37,
              "velocity": 60,
              "position": 3,
              "duration": 0.010416666666666666
            },
            {
              "pitch": 40,
              "velocity": 93,
              "position": 3,
              "duration": 0.010416666666666666
            },
            {
              "pitch": 44,
              "velocity": 51,
              "position": 3,
              "duration": 0.010416666666666666
            },
            {
              "pitch": 59,
              "velocity": 45,
              "position": 3,
              "duration": 0.010416666666666666
            },
            {
              "pitch": 26,
              "velocity": 30,
              "position": 3,
              "duration": 0.9895833333333334
            },
            {
              "pitch": 28,
              "velocity": 40,
              "position": 3.6666666666666665,
              "duration": 0.3229166666666667
            },
            {
              "pitch": 59,
              "velocity": 45,
              "position": 4,
              "duration": 0.010416666666666666
            },
            {
              "pitch": 26,
              "velocity": 30,
              "position": 4,
              "duration": 0.9895833333333334
            },
            {
              "pitch": 38,
              "velocity": 40,
              "position": 5,
              "duration": 0.010416666666666666
            },
            {
              "pitch": 44,
              "velocity": 51,
              "position": 5,
              "duration": 0.010416666666666666
            },
            {
              "pitch": 59,
              "velocity": 45,
              "position": 5,
              "duration": 0.010416666666666666
            },
            {
              "pitch": 26,
              "velocity": 30,
              "position": 5,
              "duration": 0.9895833333333334
            },
            {
              "pitch": 28,
              "velocity": 40,
              "position": 5.666666666666667,
              "duration": 0.3229166666666667
            },
            {
              "pitch": 59,
              "velocity": 45,
              "position": 6,
              "duration": 0.010416666666666666
            },
            {
              "pitch": 26,
              "velocity": 30,
              "position": 6,
              "duration": 0.9895833333333334
            },
            {
              "pitch": 37,
              "velocity": 60,
              "position": 7,
              "duration": 0.010416666666666666
            },
            {
              "pitch": 40,
              "velocity": 93,
              "position": 7,
              "duration": 0.010416666666666666
            },
            {
              "pitch": 44,
              "velocity": 51,
              "position": 7,
              "duration": 0.010416666666666666
            },
            {
              "pitch": 59,
              "velocity": 45,
              "position": 7,
              "duration": 0.010416666666666666
            },
            {
              "pitch": 26,
              "velocity": 30,
              "position": 7,
              "duration": 0.9895833333333334
            },
            {
              "pitch": 28,
              "velocity": 40,
              "position": 7.666666666666667,
              "duration": 0.3229166666666667
            },
            {
              "pitch": 59,
              "velocity": 45,
              "position": 8,
              "duration": 0.010416666666666666
            },
            {
              "pitch": 26,
              "velocity": 30,
              "position": 8,
              "duration": 0.9895833333333334
            },
            {
              "pitch": 38,
              "velocity": 40,
              "position": 9,
              "duration": 0.010416666666666666
            },
            {
              "pitch": 44,
              "velocity": 51,
              "position": 9,
              "duration": 0.010416666666666666
            },
            {
              "pitch": 59,
              "velocity": 45,
              "position": 9,
              "duration": 0.010416666666666666
            },
            {
              "pitch": 26,
              "velocity": 30,
              "position": 9,
              "duration": 0.9895833333333334
            },
            {
              "pitch": 28,
              "velocity": 40,
              "position": 9.666666666666666,
              "duration": 0.3229166666666667
            },
            {
              "pitch": 59,
              "velocity": 45,
              "position": 10,
              "duration": 0.010416666666666666
            },
            {
              "pitch": 26,
              "velocity": 30,
              "position": 10,
              "duration": 0.9895833333333334
            },
            {
              "pitch": 37,
              "velocity": 60,
              "position": 11,
              "duration": 0.010416666666666666
            },
            {
              "pitch": 40,
              "velocity": 93,
              "position": 11,
              "duration": 0.010416666666666666
            },
            {
              "pitch": 44,
              "velocity": 51,
              "position": 11,
              "duration": 0.010416666666666666
            },
            {
              "pitch": 59,
              "velocity": 45,
              "position": 11,
              "duration": 0.010416666666666666
            },
            {
              "pitch": 26,
              "velocity": 30,
              "position": 11,
              "duration": 0.9895833333333334
            },
            {
              "pitch": 28,
              "velocity": 40,
              "position": 11.666666666666666,
              "duration": 0.3229166666666667
            },
            {
              "pitch": 59,
              "velocity": 45,
              "position": 12,
              "duration": 0.010416666666666666
            },
            {
              "pitch": 26,
              "velocity": 30,
              "position": 12,
              "duration": 0.9895833333333334
            },
            {
              "pitch": 38,
              "velocity": 40,
              "position": 13,
              "duration": 0.010416666666666666
            },
            {
              "pitch": 44,
              "velocity": 51,
              "position": 13,
              "duration": 0.010416666666666666
            },
            {
              "pitch": 59,
              "velocity": 45,
              "position": 13,
              "duration": 0.010416666666666666
            },
            {
              "pitch": 26,
              "velocity": 30,
              "position": 13,
              "duration": 0.9895833333333334
            },
            {
              "pitch": 28,
              "velocity": 40,
              "position": 13.666666666666666,
              "duration": 0.3229166666666667
            },
            {
              "pitch": 59,
              "velocity": 45,
              "position": 14,
              "duration": 0.010416666666666666
            },
            {
              "pitch": 26,
              "velocity": 30,
              "position": 14,
              "duration": 0.9895833333333334
            },
            {
              "pitch": 37,
              "velocity": 60,
              "position": 15,
              "duration": 0.010416666666666666
            },
            {
              "pitch": 40,
              "velocity": 93,
              "position": 15,
              "duration": 0.010416666666666666
            },
            {
              "pitch": 44,
              "velocity": 51,
              "position": 15,
              "duration": 0.010416666666666666
            },
            {
              "pitch": 59,
              "velocity": 45,
              "position": 15,
              "duration": 0.010416666666666666
            },
            {
              "pitch": 26,
              "velocity": 30,
              "position": 15,
              "duration": 0.9895833333333334
            },
            {
              "pitch": 28,
              "velocity": 40,
              "position": 15.666666666666666,
              "duration": 0.3229166666666667
            }
          ]
        },
        "10": {
          "ctab": {
            "srcChannel": 10,
            "name": "Bass 1",
            "accType": "BASS",
            "editable": false,
            "mutedNotes": [],
            "mutedChords": [],
            "autoStart": false,
            "sourceChordNote": 0,
            "sourceChordType": "Maj7",
            "ctb2Low": null,
            "ctb2Main": {
              "ntr": "ROOT_TRANSPOSITION",
              "ntt": "MELODY",
              "bassOn": true,
              "chordRootUpperLimit": 8,
              "noteLowLimit": 28,
              "noteHighLimit": 127,
              "rtr": "PITCH_SHIFT_TO_ROOT"
            },
            "ctb2High": null
          },
          "notes": [
            {
              "pitch": 24,
              "velocity": 50,
              "position": 0,
              "duration": 0.8125
            },
            {
              "pitch": 24,
              "velocity": 46,
              "position": 1,
              "duration": 0.8125
            },
            {
              "pitch": 31,
              "velocity": 50,
              "position": 2,
              "duration": 0.8125
            },
            {
              "pitch": 31,
              "velocity": 46,
              "position": 3,
              "duration": 0.8125
            },
            {
              "pitch": 36,
              "velocity": 50,
              "position": 4,
              "duration": 0.8125
            },
            {
              "pitch": 36,
              "velocity": 46,
              "position": 5,
              "duration": 0.8125
            },
            {
              "pitch": 31,
              "velocity": 50,
              "position": 6,
              "duration": 0.8125
            },
            {
              "pitch": 31,
              "velocity": 46,
              "position": 7,
              "duration": 0.8125
            },
            {
              "pitch": 24,
              "velocity": 50,
              "position": 8,
              "duration": 0.8125
            },
            {
              "pitch": 24,
              "velocity": 46,
              "position": 9,
              "duration": 0.8125
            },
            {
              "pitch": 31,
              "velocity": 50,
              "position": 10,
              "duration": 0.8125
            },
            {
              "pitch": 31,
              "velocity": 46,
              "position": 11,
              "duration": 0.8125
            },
            {
              "pitch": 36,
              "velocity": 50,
              "position": 12,
              "duration": 0.8125
            },
            {
              "pitch": 36,
              "velocity": 46,
              "position": 13,
              "duration": 0.8125
            },
            {
              "pitch": 31,
              "velocity": 50,
              "position": 14,
              "duration": 0.8125
            },
            {
              "pitch": 31,
              "velocity": 46,
              "position": 15,
              "duration": 0.8125
            }
          ]
        },
        "11": {
          "ctab": {
            "srcChannel": 11,
            "name": "Gt",
            "accType": "CHORD1",
            "editable": false,
            "mutedNotes": [],
            "mutedChords": [],
            "autoStart": false,
            "sourceChordNote": 0,
            "sourceChordType": "Maj7",
            "ctb2Low": null,
            "ctb2Main": {
              "ntr": "ROOT_FIXED",
              "ntt": "CHORD",
              "bassOn": false,
              "chordRootUpperLimit": 7,
              "noteLowLimit": 0,
              "noteHighLimit": 127,
              "rtr": "PITCH_SHIFT"
            },
            "ctb2High": null
          },
          "notes": [
            {
              "pitch": 55,
              "velocity": 36,
              "position": 0,
              "duration": 0.375
            },
            {
              "pitch": 59,
              "velocity": 36,
              "position": 0.03125,
              "duration": 0.375
            },
            {
              "pitch": 64,
              "velocity": 36,
              "position": 0.0625,
              "duration": 0.375
            },
            {
              "pitch": 55,
              "velocity": 36,
              "position": 1,
              "duration": 0.375
            },
            {
              "pitch": 59,
              "velocity": 36,
              "position": 1.03125,
              "duration": 0.375
            },
            {
              "pitch": 64,
              "velocity": 36,
              "position": 1.0625,
              "duration": 0.375
            },
            {
              "pitch": 55,
              "velocity": 36,
              "position": 2,
              "duration": 0.375
            },
            {
              "pitch": 59,
              "velocity": 36,
              "position": 2.03125,
              "duration": 0.375
            },
            {
              "pitch": 64,
              "velocity": 36,
              "position": 2.0625,
              "duration": 0.375
            },
            {
              "pitch": 55,
              "velocity": 36,
              "position": 3,
              "duration": 0.375
            },
            {
              "pitch": 59,
              "velocity": 36,
              "position": 3.03125,
              "duration": 0.375
            },
            {
              "pitch": 64,
              "velocity": 36,
              "position": 3.0625,
              "duration": 0.375
            },
            {
              "pitch": 55,
              "velocity": 36,
              "position": 4,
              "duration": 0.375
            },
            {
              "pitch": 59,
              "velocity": 36,
              "position": 4.03125,
              "duration": 0.375
            },
            {
              "pitch": 64,
              "velocity": 36,
              "position": 4.0625,
              "duration": 0.375
            },
            {
              "pitch": 55,
              "velocity": 36,
              "position": 5,
              "duration": 0.375
            },
            {
              "pitch": 59,
              "velocity": 36,
              "position": 5.03125,
              "duration": 0.375
            },
            {
              "pitch": 64,
              "velocity": 36,
              "position": 5.0625,
              "duration": 0.375
            },
            {
              "pitch": 55,
              "velocity": 36,
              "position": 6,
              "duration": 0.375
            },
            {
              "pitch": 59,
              "velocity": 36,
              "position": 6.03125,
              "duration": 0.375
            },
            {
              "pitch": 64,
              "velocity": 36,
              "position": 6.0625,
              "duration": 0.375
            },
            {
              "pitch": 55,
              "velocity": 36,
              "position": 7,
              "duration": 0.375
            },
            {
              "pitch": 59,
              "velocity": 36,
              "position": 7.03125,
              "duration": 0.375
            },
            {
              "pitch": 64,
              "velocity": 36,
              "position": 7.0625,
              "duration": 0.375
            },
            {
              "pitch": 55,
              "velocity": 36,
              "position": 8,
              "duration": 0.375
            },
            {
              "pitch": 59,
              "velocity": 36,
              "position": 8.03125,
              "duration": 0.375
            },
            {
              "pitch": 64,
              "velocity": 36,
              "position": 8.0625,
              "duration": 0.375
            },
            {
              "pitch": 55,
              "velocity": 36,
              "position": 9,
              "duration": 0.375
            },
            {
              "pitch": 59,
              "velocity": 36,
              "position": 9.03125,
              "duration": 0.375
            },
            {
              "pitch": 64,
              "velocity": 36,
              "position": 9.0625,
              "duration": 0.375
            },
            {
              "pitch": 55,
              "velocity": 36,
              "position": 10,
              "duration": 0.375
            },
            {
              "pitch": 59,
              "velocity": 36,
              "position": 10.03125,
              "duration": 0.375
            },
            {
              "pitch": 64,
              "velocity": 36,
              "position": 10.0625,
              "duration": 0.375
            },
            {
              "pitch": 55,
              "velocity": 36,
              "position": 11,
              "duration": 0.375
            },
            {
              "pitch": 59,
              "velocity": 36,
              "position": 11.03125,
              "duration": 0.375
            },
            {
              "pitch": 64,
              "velocity": 36,
              "position": 11.0625,
              "duration": 0.375
            },
            {
              "pitch": 55,
              "velocity": 36,
              "position": 12,
              "duration": 0.375
            },
            {
              "pitch": 59,
              "velocity": 36,
              "position": 12.03125,
              "duration": 0.375
            },
            {
              "pitch": 64,
              "velocity": 36,
              "position": 12.0625,
              "duration": 0.375
            },
            {
              "pitch": 55,
              "velocity": 36,
              "position": 13,
              "duration": 0.375
            },
            {
              "pitch": 59,
              "velocity": 36,
              "position": 13.03125,
              "duration": 0.375
            },
            {
              "pitch": 64,
              "velocity": 36,
              "position": 13.0625,
              "duration": 0.375
            },
            {
              "pitch": 55,
              "velocity": 36,
              "position": 14,
              "duration": 0.375
            },
            {
              "pitch": 59,
              "velocity": 36,
              "position": 14.03125,
              "duration": 0.375
            },
            {
              "pitch": 64,
              "velocity": 36,
              "position": 14.0625,
              "duration": 0.375
            },
            {
              "pitch": 55,
              "velocity": 36,
              "position": 15,
              "duration": 0.375
            },
            {
              "pitch": 59,
              "velocity": 36,
              "position": 15.03125,
              "duration": 0.375
            },
            {
              "pitch": 64,
              "velocity": 36,
              "position": 15.0625,
              "duration": 0.375
            }
          ]
        },
        "12": {
          "ctab": {
            "srcChannel": 12,
            "name": "Pno",
            "accType": "CHORD2",
            "editable": false,
            "mutedNotes": [],
            "mutedChords": [],
            "autoStart": false,
            "sourceChordNote": 0,
            "sourceChordType": "Maj7",
            "ctb2Low": null,
            "ctb2Main": {
              "ntr": "ROOT_FIXED",
              "ntt": "CHORD",
              "bassOn": false,
              "chordRootUpperLimit": 7,
              "noteLowLimit": 0,
              "noteHighLimit": 79,
              "rtr": "PITCH_SHIFT"
            },
            "ctb2High": null
          },
          "notes": [
            {
              "pitch": 55,
              "velocity": 63,
              "position": 1.7083333333333333,
              "duration": 0.20833333333333334
            },
            {
              "pitch": 59,
              "velocity": 63,
              "position": 1.7083333333333333,
              "duration": 0.20833333333333334
            },
            {
              "pitch": 64,
              "velocity": 63,
              "position": 1.7083333333333333,
              "duration": 0.20833333333333334
            },
            {
              "pitch": 55,
              "velocity": 73,
              "position": 3.7083333333333335,
              "duration": 0.20833333333333334
            },
            {
              "pitch": 59,
              "velocity": 73,
              "position": 3.7083333333333335,
              "duration": 0.20833333333333334
            },
            {
              "pitch": 64,
              "velocity": 73,
              "position": 3.7083333333333335,
              "duration": 0.20833333333333334
            },
            {
              "pitch": 55,
              "velocity": 63,
              "position": 5.708333333333333,
              "duration": 0.20833333333333334
            },
            {
              "pitch": 59,
              "velocity": 63,
              "position": 5.708333333333333,
              "duration": 0.20833333333333334
            },
            {
              "pitch": 64,
              "velocity": 63,
              "position": 5.708333333333333,
              "duration": 0.20833333333333334
            },
            {
              "pitch": 55,
              "velocity": 73,
              "position": 7.708333333333333,
              "duration": 0.20833333333333334
            },
            {
              "pitch": 59,
              "velocity": 73,
              "position": 7.708333333333333,
              "duration": 0.20833333333333334
            },
            {
              "pitch": 64,
              "velocity": 73,
              "position": 7.708333333333333,
              "duration": 0.20833333333333334
            },
            {
              "pitch": 55,
              "velocity": 63,
              "position": 9.708333333333334,
              "duration": 0.20833333333333334
            },
            {
              "pitch": 59,
              "velocity": 63,
              "position": 9.708333333333334,
              "duration": 0.20833333333333334
            },
            {
              "pitch": 64,
              "velocity": 63,
              "position": 9.708333333333334,
              "duration": 0.20833333333333334
            },
            {
              "pitch": 55,
              "velocity": 73,
              "position": 11.708333333333334,
              "duration": 0.20833333333333334
            },
            {
              "pitch": 59,
              "velocity": 73,
              "position": 11.708333333333334,
              "duration": 0.20833333333333334
            },
            {
              "pitch": 64,
              "velocity": 73,
              "position": 11.708333333333334,
              "duration": 0.20833333333333334
            },
            {
              "pitch": 55,
              "velocity": 63,
              "position": 13.708333333333334,
              "duration": 0.20833333333333334
            },
            {
              "pitch": 59,
              "velocity": 63,
              "position": 13.708333333333334,
              "duration": 0.20833333333333334
            },
            {
              "pitch": 64,
              "velocity": 63,
              "position": 13.708333333333334,
              "duration": 0.20833333333333334
            },
            {
              "pitch": 55,
              "velocity": 73,
              "position": 15.708333333333334,
              "duration": 0.20833333333333334
            },
            {
              "pitch": 59,
              "velocity": 73,
              "position": 15.708333333333334,
              "duration": 0.20833333333333334
            },
            {
              "pitch": 64,
              "velocity": 73,
              "position": 15.708333333333334,
              "duration": 0.20833333333333334
            }
          ]
        },
        "13": {
          "ctab": {
            "srcChannel": 13,
            "name": "Vib",
            "accType": "PAD",
            "editable": false,
            "mutedNotes": [],
            "mutedChords": [],
            "autoStart": false,
            "sourceChordNote": 0,
            "sourceChordType": "Maj7",
            "ctb2Low": null,
            "ctb2Main": {
              "ntr": "ROOT_FIXED",
              "ntt": "CHORD",
              "bassOn": false,
              "chordRootUpperLimit": 7,
              "noteLowLimit": 0,
              "noteHighLimit": 127,
              "rtr": "PITCH_SHIFT"
            },
            "ctb2High": null
          },
          "notes": [
            {
              "pitch": 55,
              "velocity": 52,
              "position": 0.6666666666666666,
              "duration": 1.3125
            },
            {
              "pitch": 59,
              "velocity": 52,
              "position": 0.6666666666666666,
              "duration": 1.3125
            },
            {
              "pitch": 64,
              "velocity": 52,
              "position": 0.6666666666666666,
              "duration": 1.3125
            },
            {
              "pitch": 55,
              "velocity": 52,
              "position": 2,
              "duration": 1.9791666666666667
            },
            {
              "pitch": 59,
              "velocity": 52,
              "position": 2,
              "duration": 1.9791666666666667
            },
            {
              "pitch": 64,
              "velocity": 52,
              "position": 2,
              "duration": 1.9791666666666667
            },
            {
              "pitch": 55,
              "velocity": 41,
              "position": 6.708333333333333,
              "duration": 1.28125
            },
            {
              "pitch": 59,
              "velocity": 41,
              "position": 6.708333333333333,
              "duration": 1.28125
            },
            {
              "pitch": 64,
              "velocity": 41,
              "position": 6.708333333333333,
              "duration": 1.28125
            },
            {
              "pitch": 55,
              "velocity": 52,
              "position": 8.666666666666666,
              "duration": 1.3125
            },
            {
              "pitch": 59,
              "velocity": 52,
              "position": 8.666666666666666,
              "duration": 1.3125
            },
            {
              "pitch": 64,
              "velocity": 52,
              "position": 8.666666666666666,
              "duration": 1.3125
            },
            {
              "pitch": 55,
              "velocity": 52,
              "position": 10,
              "duration": 1.9791666666666667
            },
            {
              "pitch": 59,
              "velocity": 52,
              "position": 10,
              "duration": 1.9791666666666667
            },
            {
              "pitch": 64,
              "velocity": 52,
              "position": 10,
              "duration": 1.9791666666666667
            },
            {
              "pitch": 55,
              "velocity": 41,
              "position": 14.708333333333334,
              "duration": 1.28125
            },
            {
              "pitch": 59,
              "velocity": 41,
              "position": 14.708333333333334,
              "duration": 1.28125
            },
            {
              "pitch": 64,
              "velocity": 41,
              "position": 14.708333333333334,
              "duration": 1.28125
            }
          ]
        }
      }
    },
    "Fill_In_AA": {
      "type": "Fill_In_AA",
      "sizeInBeats": 4,
      "channels": {
        "2": {
          "ctab": {
            "srcChannel": 2,
            "name": "Gt Root",
            "accType": "CHORD1",
            "editable": false,
            "mutedNotes": [],
            "mutedChords": [
              "1+2+5",
              "sus4",
              "1+5",
              "1+8",
              "Maj7aug",
              "dim",
              "minMaj7(9)",
              "minMaj7",
              "min6",
              "min",
              "aug",
              "Maj7(9)",
              "Maj7#11",
              "Maj7",
              "Maj6",
              "Maj"
            ],
            "autoStart": false,
            "sourceChordNote": 0,
            "sourceChordType": "Maj7",
            "ctb2Low": null,
            "ctb2Main": {
              "ntr": "ROOT_TRANSPOSITION",
              "ntt": "CHORD",
              "bassOn": false,
              "chordRootUpperLimit": 6,
              "noteLowLimit": 0,
              "noteHighLimit": 127,
              "rtr": "PITCH_SHIFT"
            },
            "ctb2High": null
          },
          "notes": [
            {
              "pitch": 60,
              "velocity": 36,
              "position": 0.03125,
              "duration": 0.375
            },
            {
              "pitch": 60,
              "velocity": 25,
              "position": 1.03125,
              "duration": 0.375
            },
            {
              "pitch": 60,
              "velocity": 46,
              "position": 1.6979166666666667,
              "duration": 0.3229166666666667
            },
            {
              "pitch": 60,
              "velocity": 25,
              "position": 2.03125,
              "duration": 0.65625
            },
            {
              "pitch": 60,
              "velocity": 19,
              "position": 2.6979166666666665,
              "duration": 0.3229166666666667
            },
            {
              "pitch": 60,
              "velocity": 36,
              "position": 3.03125,
              "duration": 0.375
            }
          ]
        },
        "4": {
          "ctab": {
            "srcChannel": 4,
            "name": "Vib Root",
            "accType": "PAD",
            "editable": false,
            "mutedNotes": [],
            "mutedChords": [
              "1+2+5",
              "sus4",
              "1+5",
              "1+8",
              "Maj7aug",
              "dim",
              "minMaj7(9)",
              "minMaj7",
              "min6",
              "min",
              "aug",
              "Maj7(9)",
              "Maj7#11",
              "Maj7",
              "Maj6",
              "Maj"
            ],
            "autoStart": false,
            "sourceChordNote": 0,
            "sourceChordType": "Maj7",
            "ctb2Low": null,
            "ctb2Main": {
              "ntr": "ROOT_TRANSPOSITION",
              "ntt": "CHORD",
              "bassOn": false,
              "chordRootUpperLimit": 6,
              "noteLowLimit": 0,
              "noteHighLimit": 70,
              "rtr": "PITCH_SHIFT"
            },
            "ctb2High": null
          },
          "notes": [
            {
              "pitch": 60,
              "velocity": 34,
              "position": 2.7083333333333335,
              "duration": 1.28125
            }
          ]
        },
        "8": {
          "ctab": {
            "srcChannel": 8,
            "name": "CC_Crash",
            "accType": "RHYTHM",
            "editable": false,
            "mutedNotes": [],
            "mutedChords": [
              "1+2+5",
              "sus4",
              "1+5",
              "1+8",
              "7aug",
              "Maj7aug",
              "7(#9)",
              "7(b13)",
              "7(b9)",
              "7(13)",
              "7#11",
              "7(9)",
              "7b5",
              "7sus4",
              "7th",
              "dim7",
              "dim",
              "minMaj7(9)",
              "minMaj7",
              "min7(11)",
              "min7(9)",
              "min(9)",
              "m7b5",
              "min7",
              "min6",
              "min",
              "aug",
              "Maj6(9)",
              "Maj7(9)",
              "Maj(9)",
              "Maj7#11",
              "Maj7",
              "Maj6",
              "Maj"
            ],
            "autoStart": true,
            "sourceChordNote": 0,
            "sourceChordType": "Maj",
            "ctb2Low": null,
            "ctb2Main": {
              "ntr": "ROOT_FIXED",
              "ntt": "BYPASS",
              "bassOn": false,
              "chordRootUpperLimit": 0,
              "noteLowLimit": 0,
              "noteHighLimit": 127,
              "rtr": "RETRIGGER"
            },
            "ctb2High": null
          },
          "notes": []
        },
        "9": {
          "ctab": {
            "srcChannel": 9,
            "name": "Drums",
            "accType": "RHYTHM",
            "editable": false,
            "mutedNotes": [],
            "mutedChords": [],
            "autoStart": true,
            "sourceChordNote": 0,
            "sourceChordType": "Maj7",
            "ctb2Low": null,
            "ctb2Main": {
              "ntr": "ROOT_FIXED",
              "ntt": "BYPASS",
              "bassOn": false,
              "chordRootUpperLimit": 6,
              "noteLowLimit": 0,
              "noteHighLimit": 127,
              "rtr": "PITCH_SHIFT"
            },
            "ctb2High": null
          },
          "notes": [
            {
              "pitch": 40,
              "velocity": 13,
              "position": 0,
              "duration": 0.010416666666666666
            },
            {
              "pitch": 26,
              "velocity": 30,
              "position": 0,
              "duration": 0.9895833333333334
            },
            {
              "pitch": 38,
              "velocity": 40,
              "position": 1,
              "duration": 0.010416666666666666
            },
            {
              "pitch": 44,
              "velocity": 51,
              "position": 1,
              "duration": 0.010416666666666666
            },
            {
              "pitch": 28,
              "velocity": 40,
              "position": 1.3333333333333333,
              "duration": 0.3229166666666667
            },
            {
              "pitch": 40,
              "velocity": 93,
              "position": 1.6666666666666667,
              "duration": 0.010416666666666666
            },
            {
              "pitch": 26,
              "velocity": 30,
              "position": 1,
              "duration": 0.9895833333333334
            },
            {
              "pitch": 40,
              "velocity": 13,
              "position": 2,
              "duration": 0.010416666666666666
            },
            {
              "pitch": 28,
              "velocity": 40,
              "position": 2.3333333333333335,
              "duration": 0.3229166666666667
            },
            {
              "pitch": 36,
              "velocity": 39,
              "position": 2.6666666666666665,
              "duration": 0.010416666666666666
            },
            {
              "pitch": 26,
              "velocity": 30,
              "position": 2,
              "duration": 0.9895833333333334
            },
            {
              "pitch": 36,
              "velocity": 59,
              "position": 3,
              "duration": 0.010416666666666666
            },
            {
              "pitch": 38,
              "velocity": 40,
              "position": 3,
              "duration": 0.010416666666666666
            },
            {
              "pitch": 44,
              "velocity": 51,
              "position": 3,
              "duration": 0.010416666666666666
            },
            {
              "pitch": 26,
              "velocity": 30,
              "position": 3,
              "duration": 0.9895833333333334
            },
            {
              "pitch": 28,
              "velocity": 40,
              "position": 3.6666666666666665,
              "duration": 0.3229166666666667
            }
          ]
        },
        "10": {
          "ctab": {
            "srcChannel": 10,
            "name": "Bass 1",
            "accType": "BASS",
            "editable": false,
            "mutedNotes": [],
            "mutedChords": [],
            "autoStart": false,
            "sourceChordNote": 0,
            "sourceChordType": "Maj7",
            "ctb2Low": null,
            "ctb2Main": {
              "ntr": "ROOT_TRANSPOSITION",
              "ntt": "MELODY",
              "bassOn": true,
              "chordRootUpperLimit": 8,
              "noteLowLimit": 28,
              "noteHighLimit": 127,
              "rtr": "PITCH_SHIFT_TO_ROOT"
            },
            "ctb2High": null
          },
          "notes": [
            {
              "pitch": 36,
              "velocity": 50,
              "position": 0,
              "duration": 1.5416666666666667
            },
            {
              "pitch": 36,
              "velocity": 100,
              "position": 1.7083333333333333,
              "duration": 0.1875
            },
            {
              "pitch": 31,
              "velocity": 50,
              "position": 2,
              "duration": 0.8125
            },
            {
              "pitch": 28,
              "velocity": 44,
              "position": 3,
              "duration": 0.8125
            }
          ]
        },
        "11": {
          "ctab": {
            "srcChannel": 11,
            "name": "Gt",
            "accType": "CHORD1",
            "editable": false,
            "mutedNotes": [],
            "mutedChords": [],
            "autoStart": false,
            "sourceChordNote": 0,
            "sourceChordType": "Maj7",
            "ctb2Low": null,
            "ctb2Main": {
              "ntr": "ROOT_FIXED",
              "ntt": "CHORD",
              "bassOn": false,
              "chordRootUpperLimit": 7,
              "noteLowLimit": 0,
              "noteHighLimit": 127,
              "rtr": "PITCH_SHIFT"
            },
            "ctb2High": null
          },
          "notes": [
            {
              "pitch": 55,
              "velocity": 36,
              "position": 0,
              "duration": 0.375
            },
            {
              "pitch": 59,
              "velocity": 36,
              "position": 0.03125,
              "duration": 0.375
            },
            {
              "pitch": 64,
              "velocity": 36,
              "position": 0.0625,
              "duration": 0.375
            },
            {
              "pitch": 55,
              "velocity": 25,
              "position": 1,
              "duration": 0.375
            },
            {
              "pitch": 59,
              "velocity": 25,
              "position": 1.03125,
              "duration": 0.375
            },
            {
              "pitch": 64,
              "velocity": 25,
              "position": 1.0625,
              "duration": 0.375
            },
            {
              "pitch": 55,
              "velocity": 46,
              "position": 1.6666666666666667,
              "duration": 0.3229166666666667
            },
            {
              "pitch": 59,
              "velocity": 46,
              "position": 1.6979166666666667,
              "duration": 0.3229166666666667
            },
            {
              "pitch": 64,
              "velocity": 46,
              "position": 1.7291666666666667,
              "duration": 0.3229166666666667
            },
            {
              "pitch": 55,
              "velocity": 25,
              "position": 2,
              "duration": 0.65625
            },
            {
              "pitch": 59,
              "velocity": 25,
              "position": 2.03125,
              "duration": 0.65625
            },
            {
              "pitch": 64,
              "velocity": 25,
              "position": 2.0625,
              "duration": 0.65625
            },
            {
              "pitch": 55,
              "velocity": 19,
              "position": 2.6666666666666665,
              "duration": 0.3229166666666667
            },
            {
              "pitch": 59,
              "velocity": 19,
              "position": 2.6979166666666665,
              "duration": 0.3229166666666667
            },
            {
              "pitch": 64,
              "velocity": 19,
              "position": 2.7291666666666665,
              "duration": 0.3229166666666667
            },
            {
              "pitch": 55,
              "velocity": 36,
              "position": 3,
              "duration": 0.375
            },
            {
              "pitch": 59,
              "velocity": 36,
              "position": 3.03125,
              "duration": 0.375
            },
            {
              "pitch": 64,
              "velocity": 36,
              "position": 3.0625,
              "duration": 0.375
            }
          ]
        },
        "12": {
          "ctab": {
            "srcChannel": 12,
            "name": "Pno",
            "accType": "CHORD2",
            "editable": false,
            "mutedNotes": [],
            "mutedChords": [],
            "autoStart": false,
            "sourceChordNote": 0,
            "sourceChordType": "Maj7",
            "ctb2Low": null,
            "ctb2Main": {
              "ntr": "ROOT_FIXED",
              "ntt": "CHORD",
              "bassOn": false,
              "chordRootUpperLimit": 7,
              "noteLowLimit": 0,
              "noteHighLimit": 79,
              "rtr": "PITCH_SHIFT"
            },
            "ctb2High": null
          },
          "notes": [
            {
              "pitch": 55,
              "velocity": 73,
              "position": 0,
              "duration": 0.23958333333333334
            },
            {
              "pitch": 59,
              "velocity": 73,
              "position": 0,
              "duration": 0.23958333333333334
            },
            {
              "pitch": 64,
              "velocity": 73,
              "position": 0,
              "duration": 0.23958333333333334
            },
            {
              "pitch": 79,
              "velocity": 58,
              "position": 0,
              "duration": 0.23958333333333334
            },
            {
              "pitch": 83,
              "velocity": 58,
              "position": 0,
              "duration": 0.23958333333333334
            },
            {
              "pitch": 88,
              "velocity": 58,
              "position": 0,
              "duration": 0.23958333333333334
            },
            {
              "pitch": 55,
              "velocity": 73,
              "position": 1.7083333333333333,
              "duration": 0.23958333333333334
            },
            {
              "pitch": 59,
              "velocity": 73,
              "position": 1.7083333333333333,
              "duration": 0.23958333333333334
            },
            {
              "pitch": 64,
              "velocity": 73,
              "position": 1.7083333333333333,
              "duration": 0.23958333333333334
            },
            {
              "pitch": 79,
              "velocity": 58,
              "position": 1.7083333333333333,
              "duration": 0.23958333333333334
            },
            {
              "pitch": 83,
              "velocity": 58,
              "position": 1.7083333333333333,
              "duration": 0.23958333333333334
            },
            {
              "pitch": 88,
              "velocity": 58,
              "position": 1.7083333333333333,
              "duration": 0.23958333333333334
            },
            {
              "pitch": 55,
              "velocity": 63,
              "position": 2.7083333333333335,
              "duration": 1.2395833333333333
            },
            {
              "pitch": 59,
              "velocity": 63,
              "position": 2.7083333333333335,
              "duration": 1.2395833333333333
            },
            {
              "pitch": 64,
              "velocity": 63,
              "position": 2.7083333333333335,
              "duration": 1.2395833333333333
            }
          ]
        },
        "13": {
          "ctab": {
            "srcChannel": 13,
            "name": "Vib",
            "accType": "PAD",
            "editable": false,
            "mutedNotes": [],
            "mutedChords": [],
            "autoStart": false,
            "sourceChordNote": 0,
            "sourceChordType": "Maj7",
            "ctb2Low": null,
            "ctb2Main": {
              "ntr": "ROOT_FIXED",
              "ntt": "CHORD",
              "bassOn": false,
              "chordRootUpperLimit": 7,
              "noteLowLimit": 0,
              "noteHighLimit": 127,
              "rtr": "PITCH_SHIFT"
            },
            "ctb2High": null
          },
          "notes": [
            {
              "pitch": 55,
              "velocity": 41,
              "position": 2.7083333333333335,
              "duration": 1.28125
            },
            {
              "pitch": 59,
              "velocity": 41,
              "position": 2.7083333333333335,
              "duration": 1.28125
            },
            {
              "pitch": 64,
              "velocity": 41,
              "position": 2.7083333333333335,
              "duration": 1.28125
            }
          ]
        }
      }
    },
    "Fill_In_BB": {
      "type": "Fill_In_BB",
      "sizeInBeats": 4,
      "channels": {
        "2": {
          "ctab": {
            "srcChannel": 2,
            "name": "Gt Root",
            "accType": "CHORD1",
            "editable": false,
            "mutedNotes": [],
            "mutedChords": [
              "1+2+5",
              "sus4",
              "1+5",
              "1+8",
              "Maj7aug",
              "dim",
              "minMaj7(9)",
              "minMaj7",
              "min6",
              "min",
              "aug",
              "Maj7(9)",
              "Maj7#11",
              "Maj7",
              "Maj6",
              "Maj"
            ],
            "autoStart": false,
            "sourceChordNote": 0,
            "sourceChordType": "Maj7",
            "ctb2Low": null,
            "ctb2Main": {
              "ntr": "ROOT_TRANSPOSITION",
              "ntt": "CHORD",
              "bassOn": false,
              "chordRootUpperLimit": 6,
              "noteLowLimit": 0,
              "noteHighLimit": 127,
              "rtr": "PITCH_SHIFT"
            },
            "ctb2High": null
          },
          "notes": [
            {
              "pitch": 60,
              "velocity": 36,
              "position": 0.03125,
              "duration": 0.625
            },
            {
              "pitch": 60,
              "velocity": 25,
              "position": 0.6979166666666666,
              "duration": 0.2916666666666667
            },
            {
              "pitch": 60,
              "velocity": 36,
              "position": 1.03125,
              "duration": 0.375
            },
            {
              "pitch": 60,
              "velocity": 36,
              "position": 2.03125,
              "duration": 0.375
            },
            {
              "pitch": 60,
              "velocity": 36,
              "position": 3.03125,
              "duration": 0.625
            },
            {
              "pitch": 60,
              "velocity": 25,
              "position": 3.6979166666666665,
              "duration": 0.2916666666666667
            }
          ]
        },
        "4": {
          "ctab": {
            "srcChannel": 4,
            "name": "Vib Root",
            "accType": "PAD",
            "editable": false,
            "mutedNotes": [],
            "mutedChords": [
              "1+2+5",
              "sus4",
              "1+5",
              "1+8",
              "Maj7aug",
              "dim",
              "minMaj7(9)",
              "minMaj7",
              "min6",
              "min",
              "aug",
              "Maj7(9)",
              "Maj7#11",
              "Maj7",
              "Maj6",
              "Maj"
            ],
            "autoStart": false,
            "sourceChordNote": 0,
            "sourceChordType": "Maj7",
            "ctb2Low": null,
            "ctb2Main": {
              "ntr": "ROOT_TRANSPOSITION",
              "ntt": "CHORD",
              "bassOn": false,
              "chordRootUpperLimit": 6,
              "noteLowLimit": 0,
              "noteHighLimit": 70,
              "rtr": "PITCH_SHIFT"
            },
            "ctb2High": null
          },
          "notes": [
            {
              "pitch": 60,
              "velocity": 45,
              "position": 0,
              "duration": 3.9791666666666665
            }
          ]
        },
        "8": {
          "ctab": {
            "srcChannel": 8,
            "name": "CC_Crash",
            "accType": "RHYTHM",
            "editable": false,
            "mutedNotes": [],
            "mutedChords": [
              "1+2+5",
              "sus4",
              "1+5",
              "1+8",
              "7aug",
              "Maj7aug",
              "7(#9)",
              "7(b13)",
              "7(b9)",
              "7(13)",
              "7#11",
              "7(9)",
              "7b5",
              "7sus4",
              "7th",
              "dim7",
              "dim",
              "minMaj7(9)",
              "minMaj7",
              "min7(11)",
              "min7(9)",
              "min(9)",
              "m7b5",
              "min7",
              "min6",
              "min",
              "aug",
              "Maj6(9)",
              "Maj7(9)",
              "Maj(9)",
              "Maj7#11",
              "Maj7",
              "Maj6",
              "Maj"
            ],
            "autoStart": true,
            "sourceChordNote": 0,
            "sourceChordType": "Maj",
            "ctb2Low": null,
            "ctb2Main": {
              "ntr": "ROOT_FIXED",
              "ntt": "BYPASS",
              "bassOn": false,
              "chordRootUpperLimit": 0,
              "noteLowLimit": 0,
              "noteHighLimit": 127,
              "rtr": "RETRIGGER"
            },
            "ctb2High": null
          },
          "notes": []
        },
        "9": {
          "ctab": {
            "srcChannel": 9,
            "name": "Drums",
            "accType": "RHYTHM",
            "editable": false,
            "mutedNotes": [],
            "mutedChords": [],
            "autoStart": true,
            "sourceChordNote": 0,
            "sourceChordType": "Maj7",
            "ctb2Low": null,
            "ctb2Main": {
              "ntr": "ROOT_FIXED",
              "ntt": "BYPASS",
              "bassOn": false,
              "chordRootUpperLimit": 6,
              "noteLowLimit": 0,
              "noteHighLimit": 127,
              "rtr": "PITCH_SHIFT"
            },
            "ctb2High": null
          },
          "notes": [
            {
              "pitch": 40,
              "velocity": 13,
              "position": 0,
              "duration": 0.010416666666666666
            },
            {
              "pitch": 28,
              "velocity": 40,
              "position": 0.3333333333333333,
              "duration": 0.3229166666666667
            },
            {
              "pitch": 40,
              "velocity": 93,
              "position": 0.6666666666666666,
              "duration": 0.010416666666666666
            },
            {
              "pitch": 26,
              "velocity": 30,
              "position": 0,
              "duration": 0.9895833333333334
            },
            {
              "pitch": 38,
              "velocity": 40,
              "position": 1,
              "duration": 0.010416666666666666
            },
            {
              "pitch": 44,
              "velocity": 51,
              "position": 1,
              "duration": 0.010416666666666666
            },
            {
              "pitch": 28,
              "velocity": 40,
              "position": 1.3333333333333333,
              "duration": 0.3229166666666667
            },
            {
              "pitch": 47,
              "velocity": 70,
              "position": 1.6666666666666667,
              "duration": 0.010416666666666666
            },
            {
              "pitch": 26,
              "velocity": 30,
              "position": 1,
              "duration": 0.9895833333333334
            },
            {
              "pitch": 28,
              "velocity": 40,
              "position": 2.3333333333333335,
              "duration": 0.3229166666666667
            },
            {
              "pitch": 40,
              "velocity": 93,
              "position": 2.6666666666666665,
              "duration": 0.010416666666666666
            },
            {
              "pitch": 26,
              "velocity": 30,
              "position": 2,
              "duration": 0.9895833333333334
            },
            {
              "pitch": 38,
              "velocity": 40,
              "position": 3,
              "duration": 0.010416666666666666
            },
            {
              "pitch": 44,
              "velocity": 51,
              "position": 3,
              "duration": 0.010416666666666666
            },
            {
              "pitch": 28,
              "velocity": 40,
              "position": 3.3333333333333335,
              "duration": 0.3229166666666667
            },
            {
              "pitch": 36,
              "velocity": 49,
              "position": 3.6666666666666665,
              "duration": 0.010416666666666666
            },
            {
              "pitch": 26,
              "velocity": 30,
              "position": 3,
              "duration": 0.9895833333333334
            }
          ]
        },
        "10": {
          "ctab": {
            "srcChannel": 10,
            "name": "Bass 1",
            "accType": "BASS",
            "editable": false,
            "mutedNotes": [],
            "mutedChords": [],
            "autoStart": false,
            "sourceChordNote": 0,
            "sourceChordType": "Maj7",
            "ctb2Low": null,
            "ctb2Main": {
              "ntr": "ROOT_TRANSPOSITION",
              "ntt": "MELODY",
              "bassOn": true,
              "chordRootUpperLimit": 8,
              "noteLowLimit": 28,
              "noteHighLimit": 127,
              "rtr": "PITCH_SHIFT_TO_ROOT"
            },
            "ctb2High": null
          },
          "notes": [
            {
              "pitch": 36,
              "velocity": 50,
              "position": 0,
              "duration": 1.2083333333333333
            },
            {
              "pitch": 36,
              "velocity": 102,
              "position": 1.375,
              "duration": 0.08333333333333333
            },
            {
              "pitch": 31,
              "velocity": 100,
              "position": 1.7083333333333333,
              "duration": 0.08333333333333333
            },
            {
              "pitch": 28,
              "velocity": 50,
              "position": 2,
              "duration": 0.8125
            },
            {
              "pitch": 31,
              "velocity": 32,
              "position": 3,
              "duration": 0.8125
            }
          ]
        },
        "11": {
          "ctab": {
            "srcChannel": 11,
            "name": "Gt",
            "accType": "CHORD1",
            "editable": false,
            "mutedNotes": [],
            "mutedChords": [],
            "autoStart": false,
            "sourceChordNote": 0,
            "sourceChordType": "Maj7",
            "ctb2Low": null,
            "ctb2Main": {
              "ntr": "ROOT_FIXED",
              "ntt": "CHORD",
              "bassOn": false,
              "chordRootUpperLimit": 7,
              "noteLowLimit": 0,
              "noteHighLimit": 127,
              "rtr": "PITCH_SHIFT"
            },
            "ctb2High": null
          },
          "notes": [
            {
              "pitch": 55,
              "velocity": 36,
              "position": 0,
              "duration": 0.65625
            },
            {
              "pitch": 59,
              "velocity": 36,
              "position": 0.03125,
              "duration": 0.625
            },
            {
              "pitch": 64,
              "velocity": 36,
              "position": 0.0625,
              "duration": 0.59375
            },
            {
              "pitch": 55,
              "velocity": 25,
              "position": 0.6666666666666666,
              "duration": 0.3229166666666667
            },
            {
              "pitch": 59,
              "velocity": 25,
              "position": 0.6979166666666666,
              "duration": 0.2916666666666667
            },
            {
              "pitch": 64,
              "velocity": 25,
              "position": 0.7291666666666666,
              "duration": 0.2604166666666667
            },
            {
              "pitch": 55,
              "velocity": 36,
              "position": 1,
              "duration": 0.375
            },
            {
              "pitch": 59,
              "velocity": 36,
              "position": 1.03125,
              "duration": 0.375
            },
            {
              "pitch": 64,
              "velocity": 36,
              "position": 1.0625,
              "duration": 0.375
            },
            {
              "pitch": 55,
              "velocity": 36,
              "position": 2,
              "duration": 0.375
            },
            {
              "pitch": 59,
              "velocity": 36,
              "position": 2.03125,
              "duration": 0.375
            },
            {
              "pitch": 64,
              "velocity": 36,
              "position": 2.0625,
              "duration": 0.375
            },
            {
              "pitch": 55,
              "velocity": 36,
              "position": 3,
              "duration": 0.65625
            },
            {
              "pitch": 59,
              "velocity": 36,
              "position": 3.03125,
              "duration": 0.625
            },
            {
              "pitch": 64,
              "velocity": 36,
              "position": 3.0625,
              "duration": 0.59375
            },
            {
              "pitch": 55,
              "velocity": 25,
              "position": 3.6666666666666665,
              "duration": 0.3229166666666667
            },
            {
              "pitch": 59,
              "velocity": 25,
              "position": 3.6979166666666665,
              "duration": 0.2916666666666667
            },
            {
              "pitch": 64,
              "velocity": 25,
              "position": 3.7291666666666665,
              "duration": 0.2604166666666667
            }
          ]
        },
        "12": {
          "ctab": {
            "srcChannel": 12,
            "name": "Pno",
            "accType": "CHORD2",
            "editable": false,
            "mutedNotes": [],
            "mutedChords": [],
            "autoStart": false,
            "sourceChordNote": 0,
            "sourceChordType": "Maj7",
            "ctb2Low": null,
            "ctb2Main": {
              "ntr": "ROOT_FIXED",
              "ntt": "CHORD",
              "bassOn": false,
              "chordRootUpperLimit": 7,
              "noteLowLimit": 0,
              "noteHighLimit": 79,
              "rtr": "PITCH_SHIFT"
            },
            "ctb2High": null
          },
          "notes": [
            {
              "pitch": 64,
              "velocity": 64,
              "position": 0.7083333333333334,
              "duration": 1.1979166666666667
            },
            {
              "pitch": 67,
              "velocity": 64,
              "position": 0.7083333333333334,
              "duration": 1.1979166666666667
            },
            {
              "pitch": 71,
              "velocity": 64,
              "position": 0.7083333333333334,
              "duration": 1.1979166666666667
            },
            {
              "pitch": 59,
              "velocity": 64,
              "position": 2.0416666666666665,
              "duration": 1.8645833333333333
            },
            {
              "pitch": 64,
              "velocity": 64,
              "position": 2.0416666666666665,
              "duration": 1.8645833333333333
            },
            {
              "pitch": 67,
              "velocity": 64,
              "position": 2.0416666666666665,
              "duration": 1.8645833333333333
            }
          ]
        },
        "13": {
          "ctab": {
            "srcChannel": 13,
            "name": "Vib",
            "accType": "PAD",
            "editable": false,
            "mutedNotes": [],
            "mutedChords": [],
            "autoStart": false,
            "sourceChordNote": 0,
            "sourceChordType": "Maj7",
            "ctb2Low": null,
            "ctb2Main": {
              "ntr": "ROOT_FIXED",
              "ntt": "CHORD",
              "bassOn": false,
              "chordRootUpperLimit": 7,
              "noteLowLimit": 0,
              "noteHighLimit": 127,
              "rtr": "PITCH_SHIFT"
            },
            "ctb2High": null
          },
          "notes": [
            {
              "pitch": 55,
              "velocity": 52,
              "position": 0,
              "duration": 3.9791666666666665
            },
            {
              "pitch": 59,
              "velocity": 52,
              "position": 0,
              "duration": 3.9791666666666665
            },
            {
              "pitch": 64,
              "velocity": 52,
              "position": 0,
              "duration": 3.9791666666666665
            }
          ]
        }
      }
    },
    "Ending_A": {
      "type": "Ending_A",
      "sizeInBeats": 8,
      "channels": {
        "2": {
          "ctab": {
            "srcChannel": 2,
            "name": "Gt Root",
            "accType": "CHORD1",
            "editable": false,
            "mutedNotes": [],
            "mutedChords": [
              "1+2+5",
              "sus4",
              "1+5",
              "1+8",
              "Maj7aug",
              "dim",
              "minMaj7(9)",
              "minMaj7",
              "min6",
              "min",
              "aug",
              "Maj7(9)",
              "Maj7#11",
              "Maj7",
              "Maj6",
              "Maj"
            ],
            "autoStart": false,
            "sourceChordNote": 0,
            "sourceChordType": "Maj7",
            "ctb2Low": null,
            "ctb2Main": {
              "ntr": "ROOT_TRANSPOSITION",
              "ntt": "CHORD",
              "bassOn": false,
              "chordRootUpperLimit": 6,
              "noteLowLimit": 0,
              "noteHighLimit": 127,
              "rtr": "PITCH_SHIFT"
            },
            "ctb2High": null
          },
          "notes": [
            {
              "pitch": 60,
              "velocity": 36,
              "position": 0.03125,
              "duration": 7.958333333333333
            }
          ]
        },
        "4": {
          "ctab": {
            "srcChannel": 4,
            "name": "Vib Root",
            "accType": "PAD",
            "editable": false,
            "mutedNotes": [],
            "mutedChords": [
              "1+2+5",
              "sus4",
              "1+5",
              "1+8",
              "Maj7aug",
              "dim",
              "minMaj7(9)",
              "minMaj7",
              "min6",
              "min",
              "aug",
              "Maj7(9)",
              "Maj7#11",
              "Maj7",
              "Maj6",
              "Maj"
            ],
            "autoStart": false,
            "sourceChordNote": 0,
            "sourceChordType": "Maj7",
            "ctb2Low": null,
            "ctb2Main": {
              "ntr": "ROOT_TRANSPOSITION",
              "ntt": "CHORD",
              "bassOn": false,
              "chordRootUpperLimit": 6,
              "noteLowLimit": 0,
              "noteHighLimit": 70,
              "rtr": "PITCH_SHIFT"
            },
            "ctb2High": null
          },
          "notes": [
            {
              "pitch": 60,
              "velocity": 45,
              "position": 0,
              "duration": 7.989583333333333
            }
          ]
        },
        "8": {
          "ctab": {
            "srcChannel": 8,
            "name": "CC_Crash",
            "accType": "RHYTHM",
            "editable": false,
            "mutedNotes": [],
            "mutedChords": [
              "1+2+5",
              "sus4",
              "1+5",
              "1+8",
              "7aug",
              "Maj7aug",
              "7(#9)",
              "7(b13)",
              "7(b9)",
              "7(13)",
              "7#11",
              "7(9)",
              "7b5",
              "7sus4",
              "7th",
              "dim7",
              "dim",
              "minMaj7(9)",
              "minMaj7",
              "min7(11)",
              "min7(9)",
              "min(9)",
              "m7b5",
              "min7",
              "min6",
              "min",
              "aug",
              "Maj6(9)",
              "Maj7(9)",
              "Maj(9)",
              "Maj7#11",
              "Maj7",
              "Maj6",
              "Maj"
            ],
            "autoStart": true,
            "sourceChordNote": 0,
            "sourceChordType": "Maj",
            "ctb2Low": null,
            "ctb2Main": {
              "ntr": "ROOT_FIXED",
              "ntt": "BYPASS",
              "bassOn": false,
              "chordRootUpperLimit": 0,
              "noteLowLimit": 0,
              "noteHighLimit": 127,
              "rtr": "RETRIGGER"
            },
            "ctb2High": null
          },
          "notes": []
        },
        "9": {
          "ctab": {
            "srcChannel": 9,
            "name": "Drums",
            "accType": "RHYTHM",
            "editable": false,
            "mutedNotes": [],
            "mutedChords": [],
            "autoStart": true,
            "sourceChordNote": 0,
            "sourceChordType": "Maj7",
            "ctb2Low": null,
            "ctb2Main": {
              "ntr": "ROOT_FIXED",
              "ntt": "BYPASS",
              "bassOn": false,
              "chordRootUpperLimit": 6,
              "noteLowLimit": 0,
              "noteHighLimit": 127,
              "rtr": "PITCH_SHIFT"
            },
            "ctb2High": null
          },
          "notes": [
            {
              "pitch": 36,
              "velocity": 60,
              "position": 0,
              "duration": 0.010416666666666666
            }
          ]
        },
        "10": {
          "ctab": {
            "srcChannel": 10,
            "name": "Bass 1",
            "accType": "BASS",
            "editable": false,
            "mutedNotes": [],
            "mutedChords": [],
            "autoStart": false,
            "sourceChordNote": 0,
            "sourceChordType": "Maj7",
            "ctb2Low": null,
            "ctb2Main": {
              "ntr": "ROOT_TRANSPOSITION",
              "ntt": "MELODY",
              "bassOn": true,
              "chordRootUpperLimit": 8,
              "noteLowLimit": 28,
              "noteHighLimit": 127,
              "rtr": "PITCH_SHIFT_TO_ROOT"
            },
            "ctb2High": null
          },
          "notes": [
            {
              "pitch": 24,
              "velocity": 50,
              "position": 0,
              "duration": 7.989583333333333
            }
          ]
        },
        "11": {
          "ctab": {
            "srcChannel": 11,
            "name": "Gt",
            "accType": "CHORD1",
            "editable": false,
            "mutedNotes": [],
            "mutedChords": [],
            "autoStart": false,
            "sourceChordNote": 0,
            "sourceChordType": "Maj7",
            "ctb2Low": null,
            "ctb2Main": {
              "ntr": "ROOT_FIXED",
              "ntt": "CHORD",
              "bassOn": false,
              "chordRootUpperLimit": 7,
              "noteLowLimit": 0,
              "noteHighLimit": 127,
              "rtr": "PITCH_SHIFT"
            },
            "ctb2High": null
          },
          "notes": [
            {
              "pitch": 55,
              "velocity": 36,
              "position": 0,
              "duration": 7.989583333333333
            },
            {
              "pitch": 59,
              "velocity": 36,
              "position": 0.03125,
              "duration": 7.958333333333333
            },
            {
              "pitch": 64,
              "velocity": 36,
              "position": 0.0625,
              "duration": 7.927083333333333
            }
          ]
        },
        "12": {
          "ctab": {
            "srcChannel": 12,
            "name": "Pno",
            "accType": "CHORD2",
            "editable": false,
            "mutedNotes": [],
            "mutedChords": [],
            "autoStart": false,
            "sourceChordNote": 0,
            "sourceChordType": "Maj7",
            "ctb2Low": null,
            "ctb2Main": {
              "ntr": "ROOT_FIXED",
              "ntt": "CHORD",
              "bassOn": false,
              "chordRootUpperLimit": 7,
              "noteLowLimit": 0,
              "noteHighLimit": 79,
              "rtr": "PITCH_SHIFT"
            },
            "ctb2High": null
          },
          "notes": [
            {
              "pitch": 55,
              "velocity": 73,
              "position": 0,
              "duration": 7.989583333333333
            },
            {
              "pitch": 59,
              "velocity": 73,
              "position": 0,
              "duration": 7.989583333333333
            },
            {
              "pitch": 64,
              "velocity": 73,
              "position": 0,
              "duration": 7.989583333333333
            }
          ]
        },
        "13": {
          "ctab": {
            "srcChannel": 13,
            "name": "Vib",
            "accType": "PAD",
            "editable": false,
            "mutedNotes": [],
            "mutedChords": [],
            "autoStart": false,
            "sourceChordNote": 0,
            "sourceChordType": "Maj7",
            "ctb2Low": null,
            "ctb2Main": {
              "ntr": "ROOT_FIXED",
              "ntt": "CHORD",
              "bassOn": false,
              "chordRootUpperLimit": 7,
              "noteLowLimit": 0,
              "noteHighLimit": 127,
              "rtr": "PITCH_SHIFT"
            },
            "ctb2High": null
          },
          "notes": [
            {
              "pitch": 55,
              "velocity": 52,
              "position": 0,
              "duration": 7.989583333333333
            },
            {
              "pitch": 59,
              "velocity": 52,
              "position": 0,
              "duration": 7.989583333333333
            },
            {
              "pitch": 64,
              "velocity": 52,
              "position": 0,
              "duration": 7.989583333333333
            }
          ]
        }
      }
    },
    "Fill_In_BA": {
      "type": "Fill_In_BA",
      "sizeInBeats": 4,
      "channels": {
        "2": {
          "ctab": {
            "srcChannel": 2,
            "name": "Gt Root",
            "accType": "CHORD1",
            "editable": false,
            "mutedNotes": [],
            "mutedChords": [
              "1+2+5",
              "sus4",
              "1+5",
              "1+8",
              "Maj7aug",
              "dim",
              "minMaj7(9)",
              "minMaj7",
              "min6",
              "min",
              "aug",
              "Maj7(9)",
              "Maj7#11",
              "Maj7",
              "Maj6",
              "Maj"
            ],
            "autoStart": false,
            "sourceChordNote": 0,
            "sourceChordType": "Maj7",
            "ctb2Low": null,
            "ctb2Main": {
              "ntr": "ROOT_TRANSPOSITION",
              "ntt": "CHORD",
              "bassOn": false,
              "chordRootUpperLimit": 6,
              "noteLowLimit": 0,
              "noteHighLimit": 127,
              "rtr": "PITCH_SHIFT"
            },
            "ctb2High": null
          },
          "notes": [
            {
              "pitch": 60,
              "velocity": 36,
              "position": 0.03125,
              "duration": 0.625
            },
            {
              "pitch": 60,
              "velocity": 36,
              "position": 0.6979166666666666,
              "duration": 0.375
            }
          ]
        },
        "4": {
          "ctab": {
            "srcChannel": 4,
            "name": "Vib Root",
            "accType": "PAD",
            "editable": false,
            "mutedNotes": [],
            "mutedChords": [
              "1+2+5",
              "sus4",
              "1+5",
              "1+8",
              "Maj7aug",
              "dim",
              "minMaj7(9)",
              "minMaj7",
              "min6",
              "min",
              "aug",
              "Maj7(9)",
              "Maj7#11",
              "Maj7",
              "Maj6",
              "Maj"
            ],
            "autoStart": false,
            "sourceChordNote": 0,
            "sourceChordType": "Maj7",
            "ctb2Low": null,
            "ctb2Main": {
              "ntr": "ROOT_TRANSPOSITION",
              "ntt": "CHORD",
              "bassOn": false,
              "chordRootUpperLimit": 6,
              "noteLowLimit": 0,
              "noteHighLimit": 70,
              "rtr": "PITCH_SHIFT"
            },
            "ctb2High": null
          },
          "notes": [
            {
              "pitch": 60,
              "velocity": 34,
              "position": 0,
              "duration": 0.6979166666666666
            },
            {
              "pitch": 60,
              "velocity": 34,
              "position": 0.7083333333333334,
              "duration": 0.28125
            }
          ]
        },
        "8": {
          "ctab": {
            "srcChannel": 8,
            "name": "CC_Crash",
            "accType": "RHYTHM",
            "editable": false,
            "mutedNotes": [],
            "mutedChords": [
              "1+2+5",
              "sus4",
              "1+5",
              "1+8",
              "7aug",
              "Maj7aug",
              "7(#9)",
              "7(b13)",
              "7(b9)",
              "7(13)",
              "7#11",
              "7(9)",
              "7b5",
              "7sus4",
              "7th",
              "dim7",
              "dim",
              "minMaj7(9)",
              "minMaj7",
              "min7(11)",
              "min7(9)",
              "min(9)",
              "m7b5",
              "min7",
              "min6",
              "min",
              "aug",
              "Maj6(9)",
              "Maj7(9)",
              "Maj(9)",
              "Maj7#11",
              "Maj7",
              "Maj6",
              "Maj"
            ],
            "autoStart": true,
            "sourceChordNote": 0,
            "sourceChordType": "Maj",
            "ctb2Low": null,
            "ctb2Main": {
              "ntr": "ROOT_FIXED",
              "ntt": "BYPASS",
              "bassOn": false,
              "chordRootUpperLimit": 0,
              "noteLowLimit": 0,
              "noteHighLimit": 127,
              "rtr": "RETRIGGER"
            },
            "ctb2High": null
          },
          "notes": []
        },
        "9": {
          "ctab": {
            "srcChannel": 9,
            "name": "Drums",
            "accType": "RHYTHM",
            "editable": false,
            "mutedNotes": [],
            "mutedChords": [],
            "autoStart": true,
            "sourceChordNote": 0,
            "sourceChordType": "Maj7",
            "ctb2Low": null,
            "ctb2Main": {
              "ntr": "ROOT_FIXED",
              "ntt": "BYPASS",
              "bassOn": false,
              "chordRootUpperLimit": 6,
              "noteLowLimit": 0,
              "noteHighLimit": 127,
              "rtr": "PITCH_SHIFT"
            },
            "ctb2High": null
          },
          "notes": [
            {
              "pitch": 36,
              "velocity": 40,
              "position": 0,
              "duration": 0.010416666666666666
            },
            {
              "pitch": 51,
              "velocity": 50,
              "position": 0,
              "duration": 0.010416666666666666
            },
            {
              "pitch": 40,
              "velocity": 93,
              "position": 0.6666666666666666,
              "duration": 0.010416666666666666
            },
            {
              "pitch": 26,
              "velocity": 30,
              "position": 0,
              "duration": 0.9895833333333334
            },
            {
              "pitch": 44,
              "velocity": 51,
              "position": 1,
              "duration": 0.010416666666666666
            },
            {
              "pitch": 27,
              "velocity": 30,
              "position": 1.3333333333333333,
              "duration": 0.3125
            },
            {
              "pitch": 47,
              "velocity": 57,
              "position": 1.6666666666666667,
              "duration": 0.010416666666666666
            },
            {
              "pitch": 44,
              "velocity": 51,
              "position": 2,
              "duration": 0.010416666666666666
            },
            {
              "pitch": 27,
              "velocity": 30,
              "position": 2.3333333333333335,
              "duration": 0.3125
            },
            {
              "pitch": 36,
              "velocity": 43,
              "position": 2.6666666666666665,
              "duration": 0.010416666666666666
            },
            {
              "pitch": 45,
              "velocity": 27,
              "position": 2.6666666666666665,
              "duration": 0.010416666666666666
            },
            {
              "pitch": 36,
              "velocity": 47,
              "position": 3,
              "duration": 0.010416666666666666
            },
            {
              "pitch": 45,
              "velocity": 57,
              "position": 3,
              "duration": 0.010416666666666666
            },
            {
              "pitch": 46,
              "velocity": 40,
              "position": 3,
              "duration": 0.010416666666666666
            },
            {
              "pitch": 57,
              "velocity": 50,
              "position": 3.9895833333333335,
              "duration": 0.010416666666666666
            }
          ]
        },
        "10": {
          "ctab": {
            "srcChannel": 10,
            "name": "Bass 1",
            "accType": "BASS",
            "editable": false,
            "mutedNotes": [],
            "mutedChords": [],
            "autoStart": false,
            "sourceChordNote": 0,
            "sourceChordType": "Maj7",
            "ctb2Low": null,
            "ctb2Main": {
              "ntr": "ROOT_TRANSPOSITION",
              "ntt": "MELODY",
              "bassOn": true,
              "chordRootUpperLimit": 8,
              "noteLowLimit": 28,
              "noteHighLimit": 127,
              "rtr": "PITCH_SHIFT_TO_ROOT"
            },
            "ctb2High": null
          },
          "notes": [
            {
              "pitch": 24,
              "velocity": 50,
              "position": 0,
              "duration": 0.65625
            },
            {
              "pitch": 24,
              "velocity": 34,
              "position": 0.6666666666666666,
              "duration": 0.4083333333333333
            },
            {
              "pitch": 24,
              "velocity": 100,
              "position": 1.0833333333333333,
              "duration": 0.15625
            }
          ]
        },
        "11": {
          "ctab": {
            "srcChannel": 11,
            "name": "Gt",
            "accType": "CHORD1",
            "editable": false,
            "mutedNotes": [],
            "mutedChords": [],
            "autoStart": false,
            "sourceChordNote": 0,
            "sourceChordType": "Maj7",
            "ctb2Low": null,
            "ctb2Main": {
              "ntr": "ROOT_FIXED",
              "ntt": "CHORD",
              "bassOn": false,
              "chordRootUpperLimit": 7,
              "noteLowLimit": 0,
              "noteHighLimit": 127,
              "rtr": "PITCH_SHIFT"
            },
            "ctb2High": null
          },
          "notes": [
            {
              "pitch": 55,
              "velocity": 36,
              "position": 0,
              "duration": 0.65625
            },
            {
              "pitch": 59,
              "velocity": 36,
              "position": 0.03125,
              "duration": 0.625
            },
            {
              "pitch": 64,
              "velocity": 36,
              "position": 0.0625,
              "duration": 0.59375
            },
            {
              "pitch": 55,
              "velocity": 36,
              "position": 0.6666666666666666,
              "duration": 0.375
            },
            {
              "pitch": 59,
              "velocity": 36,
              "position": 0.6979166666666666,
              "duration": 0.375
            },
            {
              "pitch": 64,
              "velocity": 36,
              "position": 0.7291666666666666,
              "duration": 0.375
            }
          ]
        },
        "12": {
          "ctab": {
            "srcChannel": 12,
            "name": "Pno",
            "accType": "CHORD2",
            "editable": false,
            "mutedNotes": [],
            "mutedChords": [],
            "autoStart": false,
            "sourceChordNote": 0,
            "sourceChordType": "Maj7",
            "ctb2Low": null,
            "ctb2Main": {
              "ntr": "ROOT_FIXED",
              "ntt": "CHORD",
              "bassOn": false,
              "chordRootUpperLimit": 7,
              "noteLowLimit": 0,
              "noteHighLimit": 79,
              "rtr": "PITCH_SHIFT"
            },
            "ctb2High": null
          },
          "notes": [
            {
              "pitch": 55,
              "velocity": 63,
              "position": 0.7083333333333334,
              "duration": 0.20833333333333334
            },
            {
              "pitch": 59,
              "velocity": 63,
              "position": 0.7083333333333334,
              "duration": 0.20833333333333334
            },
            {
              "pitch": 64,
              "velocity": 63,
              "position": 0.7083333333333334,
              "duration": 0.20833333333333334
            }
          ]
        },
        "13": {
          "ctab": {
            "srcChannel": 13,
            "name": "Vib",
            "accType": "PAD",
            "editable": false,
            "mutedNotes": [],
            "mutedChords": [],
            "autoStart": false,
            "sourceChordNote": 0,
            "sourceChordType": "Maj7",
            "ctb2Low": null,
            "ctb2Main": {
              "ntr": "ROOT_FIXED",
              "ntt": "CHORD",
              "bassOn": false,
              "chordRootUpperLimit": 7,
              "noteLowLimit": 0,
              "noteHighLimit": 127,
              "rtr": "PITCH_SHIFT"
            },
            "ctb2High": null
          },
          "notes": [
            {
              "pitch": 55,
              "velocity": 41,
              "position": 0,
              "duration": 0.6979166666666666
            },
            {
              "pitch": 59,
              "velocity": 41,
              "position": 0,
              "duration": 0.6979166666666666
            },
            {
              "pitch": 64,
              "velocity": 41,
              "position": 0,
              "duration": 0.6979166666666666
            },
            {
              "pitch": 55,
              "velocity": 41,
              "position": 0.7083333333333334,
              "duration": 0.28125
            },
            {
              "pitch": 59,
              "velocity": 41,
              "position": 0.7083333333333334,
              "duration": 0.28125
            },
            {
              "pitch": 64,
              "velocity": 41,
              "position": 0.7083333333333334,
              "duration": 0.28125
            }
          ]
        }
      }
    },
    "Main_D": {
      "type": "Main_D",
      "sizeInBeats": 36,
      "channels": {
        "1": {
          "ctab": {
            "srcChannel": 1,
            "name": "Bass 2",
            "accType": "BASS",
            "editable": false,
            "mutedNotes": [],
            "mutedChords": [
              "1+2+5",
              "1+5",
              "1+8",
              "Maj7aug",
              "7(#9)",
              "7(b13)",
              "7(b9)",
              "7(13)",
              "7#11",
              "7(9)",
              "7b5",
              "7sus4",
              "7th",
              "dim7",
              "dim",
              "min7(11)",
              "min7(9)",
              "m7b5",
              "min7",
              "min6",
              "Maj6(9)",
              "Maj7(9)",
              "Maj(9)",
              "Maj7#11",
              "Maj7",
              "Maj6",
              "Maj"
            ],
            "autoStart": false,
            "sourceChordNote": 0,
            "sourceChordType": "Maj7",
            "ctb2Low": null,
            "ctb2Main": {
              "ntr": "ROOT_TRANSPOSITION",
              "ntt": "MELODY",
              "bassOn": true,
              "chordRootUpperLimit": 8,
              "noteLowLimit": 28,
              "noteHighLimit": 127,
              "rtr": "PITCH_SHIFT_TO_ROOT"
            },
            "ctb2High": null
          },
          "notes": [
            {
              "pitch": 24,
              "velocity": 50,
              "position": 0,
              "duration": 0.8125
            },
            {
              "pitch": 28,
              "velocity": 50,
              "position": 1,
              "duration": 0.8125
            },
            {
              "pitch": 31,
              "velocity": 50,
              "position": 2,
              "duration": 0.8125
            },
            {
              "pitch": 28,
              "velocity": 50,
              "position": 3,
              "duration": 0.8125
            },
            {
              "pitch": 36,
              "velocity": 50,
              "position": 4,
              "duration": 0.8125
            },
            {
              "pitch": 31,
              "velocity": 50,
              "position": 5,
              "duration": 0.8125
            },
            {
              "pitch": 28,
              "velocity": 50,
              "position": 6,
              "duration": 0.8125
            },
            {
              "pitch": 31,
              "velocity": 50,
              "position": 7,
              "duration": 0.8125
            },
            {
              "pitch": 24,
              "velocity": 50,
              "position": 8,
              "duration": 0.8125
            },
            {
              "pitch": 31,
              "velocity": 50,
              "position": 9,
              "duration": 0.8125
            },
            {
              "pitch": 28,
              "velocity": 50,
              "position": 10,
              "duration": 0.8125
            },
            {
              "pitch": 31,
              "velocity": 50,
              "position": 11,
              "duration": 0.8125
            },
            {
              "pitch": 36,
              "velocity": 50,
              "position": 12,
              "duration": 0.8125
            },
            {
              "pitch": 31,
              "velocity": 50,
              "position": 13,
              "duration": 0.8125
            },
            {
              "pitch": 28,
              "velocity": 50,
              "position": 14,
              "duration": 0.8125
            },
            {
              "pitch": 31,
              "velocity": 50,
              "position": 15,
              "duration": 0.8125
            },
            {
              "pitch": 28,
              "velocity": 50,
              "position": 16,
              "duration": 0.8125
            },
            {
              "pitch": 31,
              "velocity": 50,
              "position": 17,
              "duration": 0.8125
            },
            {
              "pitch": 24,
              "velocity": 50,
              "position": 18,
              "duration": 0.8125
            },
            {
              "pitch": 31,
              "velocity": 50,
              "position": 19,
              "duration": 0.8125
            },
            {
              "pitch": 36,
              "velocity": 50,
              "position": 20,
              "duration": 0.8125
            },
            {
              "pitch": 31,
              "velocity": 50,
              "position": 21,
              "duration": 0.8125
            },
            {
              "pitch": 28,
              "velocity": 50,
              "position": 22,
              "duration": 0.8125
            },
            {
              "pitch": 31,
              "velocity": 50,
              "position": 23,
              "duration": 0.8125
            },
            {
              "pitch": 24,
              "velocity": 50,
              "position": 24,
              "duration": 0.8125
            },
            {
              "pitch": 28,
              "velocity": 50,
              "position": 25,
              "duration": 0.8125
            },
            {
              "pitch": 31,
              "velocity": 50,
              "position": 26,
              "duration": 0.8125
            },
            {
              "pitch": 28,
              "velocity": 50,
              "position": 27,
              "duration": 0.8125
            },
            {
              "pitch": 36,
              "velocity": 50,
              "position": 28,
              "duration": 0.8125
            },
            {
              "pitch": 31,
              "velocity": 50,
              "position": 29,
              "duration": 0.8125
            },
            {
              "pitch": 28,
              "velocity": 50,
              "position": 30,
              "duration": 0.8125
            },
            {
              "pitch": 31,
              "velocity": 50,
              "position": 31,
              "duration": 0.8125
            },
            {
              "pitch": 24,
              "velocity": 50,
              "position": 32,
              "duration": 0.8125
            },
            {
              "pitch": 31,
              "velocity": 50,
              "position": 33,
              "duration": 0.8125
            },
            {
              "pitch": 28,
              "velocity": 50,
              "position": 34,
              "duration": 0.8125
            },
            {
              "pitch": 31,
              "velocity": 50,
              "position": 35,
              "duration": 0.8125
            }
          ]
        },
        "2": {
          "ctab": {
            "srcChannel": 2,
            "name": "Gt Root",
            "accType": "CHORD1",
            "editable": false,
            "mutedNotes": [],
            "mutedChords": [
              "1+2+5",
              "sus4",
              "1+5",
              "1+8",
              "Maj7aug",
              "dim",
              "minMaj7(9)",
              "minMaj7",
              "min6",
              "min",
              "aug",
              "Maj7(9)",
              "Maj7#11",
              "Maj7",
              "Maj6",
              "Maj"
            ],
            "autoStart": false,
            "sourceChordNote": 0,
            "sourceChordType": "Maj7",
            "ctb2Low": null,
            "ctb2Main": {
              "ntr": "ROOT_TRANSPOSITION",
              "ntt": "CHORD",
              "bassOn": false,
              "chordRootUpperLimit": 6,
              "noteLowLimit": 0,
              "noteHighLimit": 127,
              "rtr": "PITCH_SHIFT"
            },
            "ctb2High": null
          },
          "notes": [
            {
              "pitch": 60,
              "velocity": 36,
              "position": 0.03125,
              "duration": 0.375
            },
            {
              "pitch": 60,
              "velocity": 36,
              "position": 1.03125,
              "duration": 0.375
            },
            {
              "pitch": 60,
              "velocity": 36,
              "position": 2.03125,
              "duration": 0.375
            },
            {
              "pitch": 60,
              "velocity": 36,
              "position": 3.03125,
              "duration": 0.375
            },
            {
              "pitch": 60,
              "velocity": 36,
              "position": 4.03125,
              "duration": 0.375
            },
            {
              "pitch": 60,
              "velocity": 36,
              "position": 5.03125,
              "duration": 0.375
            },
            {
              "pitch": 60,
              "velocity": 36,
              "position": 6.03125,
              "duration": 0.375
            },
            {
              "pitch": 60,
              "velocity": 36,
              "position": 7.03125,
              "duration": 0.375
            },
            {
              "pitch": 60,
              "velocity": 36,
              "position": 8.03125,
              "duration": 0.375
            },
            {
              "pitch": 60,
              "velocity": 36,
              "position": 9.03125,
              "duration": 0.375
            },
            {
              "pitch": 60,
              "velocity": 36,
              "position": 10.03125,
              "duration": 0.375
            },
            {
              "pitch": 60,
              "velocity": 36,
              "position": 11.03125,
              "duration": 0.375
            },
            {
              "pitch": 60,
              "velocity": 36,
              "position": 12.03125,
              "duration": 0.375
            },
            {
              "pitch": 60,
              "velocity": 36,
              "position": 13.03125,
              "duration": 0.375
            },
            {
              "pitch": 60,
              "velocity": 36,
              "position": 14.03125,
              "duration": 0.375
            },
            {
              "pitch": 60,
              "velocity": 36,
              "position": 15.03125,
              "duration": 0.375
            },
            {
              "pitch": 60,
              "velocity": 36,
              "position": 16.03125,
              "duration": 0.375
            },
            {
              "pitch": 60,
              "velocity": 36,
              "position": 17.03125,
              "duration": 0.375
            },
            {
              "pitch": 60,
              "velocity": 36,
              "position": 18.03125,
              "duration": 0.375
            },
            {
              "pitch": 60,
              "velocity": 36,
              "position": 19.03125,
              "duration": 0.375
            },
            {
              "pitch": 60,
              "velocity": 36,
              "position": 20.03125,
              "duration": 0.375
            },
            {
              "pitch": 60,
              "velocity": 36,
              "position": 21.03125,
              "duration": 0.375
            },
            {
              "pitch": 60,
              "velocity": 36,
              "position": 22.03125,
              "duration": 0.375
            },
            {
              "pitch": 60,
              "velocity": 36,
              "position": 23.03125,
              "duration": 0.375
            },
            {
              "pitch": 60,
              "velocity": 36,
              "position": 24.03125,
              "duration": 0.375
            },
            {
              "pitch": 60,
              "velocity": 36,
              "position": 25.03125,
              "duration": 0.375
            },
            {
              "pitch": 60,
              "velocity": 36,
              "position": 26.03125,
              "duration": 0.375
            },
            {
              "pitch": 60,
              "velocity": 36,
              "position": 27.03125,
              "duration": 0.375
            },
            {
              "pitch": 60,
              "velocity": 36,
              "position": 28.03125,
              "duration": 0.375
            },
            {
              "pitch": 60,
              "velocity": 36,
              "position": 29.03125,
              "duration": 0.375
            },
            {
              "pitch": 60,
              "velocity": 36,
              "position": 30.03125,
              "duration": 0.375
            },
            {
              "pitch": 60,
              "velocity": 36,
              "position": 31.03125,
              "duration": 0.375
            },
            {
              "pitch": 60,
              "velocity": 36,
              "position": 32.03125,
              "duration": 0.375
            },
            {
              "pitch": 60,
              "velocity": 36,
              "position": 33.03125,
              "duration": 0.375
            },
            {
              "pitch": 60,
              "velocity": 36,
              "position": 34.03125,
              "duration": 0.375
            },
            {
              "pitch": 60,
              "velocity": 36,
              "position": 35.03125,
              "duration": 0.375
            }
          ]
        },
        "4": {
          "ctab": {
            "srcChannel": 4,
            "name": "Vib Root",
            "accType": "PAD",
            "editable": false,
            "mutedNotes": [],
            "mutedChords": [
              "1+2+5",
              "sus4",
              "1+5",
              "1+8",
              "Maj7aug",
              "dim",
              "minMaj7(9)",
              "minMaj7",
              "min6",
              "min",
              "aug",
              "Maj7(9)",
              "Maj7#11",
              "Maj7",
              "Maj6",
              "Maj"
            ],
            "autoStart": false,
            "sourceChordNote": 0,
            "sourceChordType": "Maj7",
            "ctb2Low": null,
            "ctb2Main": {
              "ntr": "ROOT_TRANSPOSITION",
              "ntt": "CHORD",
              "bassOn": false,
              "chordRootUpperLimit": 6,
              "noteLowLimit": 0,
              "noteHighLimit": 70,
              "rtr": "PITCH_SHIFT"
            },
            "ctb2High": null
          },
          "notes": [
            {
              "pitch": 60,
              "velocity": 45,
              "position": 0,
              "duration": 3.9895833333333335
            },
            {
              "pitch": 60,
              "velocity": 34,
              "position": 6.708333333333333,
              "duration": 1.28125
            },
            {
              "pitch": 60,
              "velocity": 45,
              "position": 8,
              "duration": 3.9895833333333335
            },
            {
              "pitch": 60,
              "velocity": 34,
              "position": 14.708333333333334,
              "duration": 1.28125
            },
            {
              "pitch": 60,
              "velocity": 45,
              "position": 16,
              "duration": 3.9895833333333335
            },
            {
              "pitch": 60,
              "velocity": 34,
              "position": 22.708333333333332,
              "duration": 1.28125
            },
            {
              "pitch": 60,
              "velocity": 45,
              "position": 24,
              "duration": 3.9895833333333335
            },
            {
              "pitch": 60,
              "velocity": 34,
              "position": 30.666666666666668,
              "duration": 1.3229166666666667
            },
            {
              "pitch": 60,
              "velocity": 45,
              "position": 32,
              "duration": 3.9895833333333335
            }
          ]
        },
        "8": {
          "ctab": {
            "srcChannel": 8,
            "name": "CC_Crash",
            "accType": "RHYTHM",
            "editable": false,
            "mutedNotes": [],
            "mutedChords": [
              "1+2+5",
              "sus4",
              "1+5",
              "1+8",
              "7aug",
              "Maj7aug",
              "7(#9)",
              "7(b13)",
              "7(b9)",
              "7(13)",
              "7#11",
              "7(9)",
              "7b5",
              "7sus4",
              "7th",
              "dim7",
              "dim",
              "minMaj7(9)",
              "minMaj7",
              "min7(11)",
              "min7(9)",
              "min(9)",
              "m7b5",
              "min7",
              "min6",
              "min",
              "aug",
              "Maj6(9)",
              "Maj7(9)",
              "Maj(9)",
              "Maj7#11",
              "Maj7",
              "Maj6",
              "Maj"
            ],
            "autoStart": true,
            "sourceChordNote": 0,
            "sourceChordType": "Maj",
            "ctb2Low": null,
            "ctb2Main": {
              "ntr": "ROOT_FIXED",
              "ntt": "BYPASS",
              "bassOn": false,
              "chordRootUpperLimit": 0,
              "noteLowLimit": 0,
              "noteHighLimit": 127,
              "rtr": "RETRIGGER"
            },
            "ctb2High": null
          },
          "notes": []
        },
        "9": {
          "ctab": {
            "srcChannel": 9,
            "name": "Drums",
            "accType": "RHYTHM",
            "editable": false,
            "mutedNotes": [],
            "mutedChords": [],
            "autoStart": true,
            "sourceChordNote": 0,
            "sourceChordType": "Maj7",
            "ctb2Low": null,
            "ctb2Main": {
              "ntr": "ROOT_FIXED",
              "ntt": "BYPASS",
              "bassOn": false,
              "chordRootUpperLimit": 6,
              "noteLowLimit": 0,
              "noteHighLimit": 127,
              "rtr": "PITCH_SHIFT"
            },
            "ctb2High": null
          },
          "notes": [
            {
              "pitch": 51,
              "velocity": 50,
              "position": 0,
              "duration": 0.010416666666666666
            },
            {
              "pitch": 26,
              "velocity": 30,
              "position": 0,
              "duration": 0.9895833333333334
            },
            {
              "pitch": 38,
              "velocity": 40,
              "position": 1,
              "duration": 0.010416666666666666
            },
            {
              "pitch": 44,
              "velocity": 51,
              "position": 1,
              "duration": 0.010416666666666666
            },
            {
              "pitch": 51,
              "velocity": 50,
              "position": 1,
              "duration": 0.010416666666666666
            },
            {
              "pitch": 36,
              "velocity": 27,
              "position": 1.6666666666666667,
              "duration": 0.010416666666666666
            },
            {
              "pitch": 51,
              "velocity": 15,
              "position": 1.6666666666666667,
              "duration": 0.010416666666666666
            },
            {
              "pitch": 26,
              "velocity": 30,
              "position": 1,
              "duration": 0.9895833333333334
            },
            {
              "pitch": 36,
              "velocity": 40,
              "position": 2,
              "duration": 0.010416666666666666
            },
            {
              "pitch": 51,
              "velocity": 50,
              "position": 2,
              "duration": 0.010416666666666666
            },
            {
              "pitch": 38,
              "velocity": 30,
              "position": 2.6666666666666665,
              "duration": 0.010416666666666666
            },
            {
              "pitch": 38,
              "velocity": 20,
              "position": 2.8333333333333335,
              "duration": 0.010416666666666666
            },
            {
              "pitch": 26,
              "velocity": 30,
              "position": 2,
              "duration": 0.9895833333333334
            },
            {
              "pitch": 44,
              "velocity": 51,
              "position": 3,
              "duration": 0.010416666666666666
            },
            {
              "pitch": 51,
              "velocity": 50,
              "position": 3,
              "duration": 0.010416666666666666
            },
            {
              "pitch": 40,
              "velocity": 93,
              "position": 3.6666666666666665,
              "duration": 0.010416666666666666
            },
            {
              "pitch": 51,
              "velocity": 15,
              "position": 3.6666666666666665,
              "duration": 0.010416666666666666
            },
            {
              "pitch": 26,
              "velocity": 30,
              "position": 3,
              "duration": 0.9895833333333334
            },
            {
              "pitch": 51,
              "velocity": 50,
              "position": 4,
              "duration": 0.010416666666666666
            },
            {
              "pitch": 26,
              "velocity": 30,
              "position": 4,
              "duration": 0.9895833333333334
            },
            {
              "pitch": 38,
              "velocity": 40,
              "position": 5,
              "duration": 0.010416666666666666
            },
            {
              "pitch": 44,
              "velocity": 51,
              "position": 5,
              "duration": 0.010416666666666666
            },
            {
              "pitch": 51,
              "velocity": 50,
              "position": 5,
              "duration": 0.010416666666666666
            },
            {
              "pitch": 51,
              "velocity": 15,
              "position": 5.666666666666667,
              "duration": 0.010416666666666666
            },
            {
              "pitch": 26,
              "velocity": 30,
              "position": 5,
              "duration": 0.9895833333333334
            },
            {
              "pitch": 51,
              "velocity": 50,
              "position": 6,
              "duration": 0.010416666666666666
            },
            {
              "pitch": 38,
              "velocity": 30,
              "position": 6.666666666666667,
              "duration": 0.010416666666666666
            },
            {
              "pitch": 38,
              "velocity": 20,
              "position": 6.833333333333333,
              "duration": 0.010416666666666666
            },
            {
              "pitch": 26,
              "velocity": 30,
              "position": 6,
              "duration": 0.9895833333333334
            },
            {
              "pitch": 44,
              "velocity": 51,
              "position": 7,
              "duration": 0.010416666666666666
            },
            {
              "pitch": 51,
              "velocity": 50,
              "position": 7,
              "duration": 0.010416666666666666
            },
            {
              "pitch": 40,
              "velocity": 93,
              "position": 7.666666666666667,
              "duration": 0.010416666666666666
            },
            {
              "pitch": 51,
              "velocity": 15,
              "position": 7.666666666666667,
              "duration": 0.010416666666666666
            },
            {
              "pitch": 26,
              "velocity": 30,
              "position": 7,
              "duration": 0.9895833333333334
            },
            {
              "pitch": 51,
              "velocity": 50,
              "position": 8,
              "duration": 0.010416666666666666
            },
            {
              "pitch": 26,
              "velocity": 30,
              "position": 8,
              "duration": 0.9895833333333334
            },
            {
              "pitch": 38,
              "velocity": 40,
              "position": 9,
              "duration": 0.010416666666666666
            },
            {
              "pitch": 44,
              "velocity": 51,
              "position": 9,
              "duration": 0.010416666666666666
            },
            {
              "pitch": 51,
              "velocity": 50,
              "position": 9,
              "duration": 0.010416666666666666
            },
            {
              "pitch": 51,
              "velocity": 15,
              "position": 9.666666666666666,
              "duration": 0.010416666666666666
            },
            {
              "pitch": 26,
              "velocity": 30,
              "position": 9,
              "duration": 0.9895833333333334
            },
            {
              "pitch": 51,
              "velocity": 50,
              "position": 10,
              "duration": 0.010416666666666666
            },
            {
              "pitch": 40,
              "velocity": 93,
              "position": 10.666666666666666,
              "duration": 0.010416666666666666
            },
            {
              "pitch": 26,
              "velocity": 30,
              "position": 10,
              "duration": 0.9895833333333334
            },
            {
              "pitch": 38,
              "velocity": 40,
              "position": 11,
              "duration": 0.010416666666666666
            },
            {
              "pitch": 44,
              "velocity": 51,
              "position": 11,
              "duration": 0.010416666666666666
            },
            {
              "pitch": 51,
              "velocity": 50,
              "position": 11,
              "duration": 0.010416666666666666
            },
            {
              "pitch": 27,
              "velocity": 40,
              "position": 11.333333333333334,
              "duration": 0.3125
            },
            {
              "pitch": 36,
              "velocity": 40,
              "position": 11.666666666666666,
              "duration": 0.010416666666666666
            },
            {
              "pitch": 51,
              "velocity": 15,
              "position": 11.666666666666666,
              "duration": 0.010416666666666666
            },
            {
              "pitch": 26,
              "velocity": 30,
              "position": 11,
              "duration": 0.9895833333333334
            },
            {
              "pitch": 51,
              "velocity": 50,
              "position": 12,
              "duration": 0.010416666666666666
            },
            {
              "pitch": 36,
              "velocity": 27,
              "position": 12.666666666666666,
              "duration": 0.010416666666666666
            },
            {
              "pitch": 26,
              "velocity": 30,
              "position": 12,
              "duration": 0.9895833333333334
            },
            {
              "pitch": 38,
              "velocity": 40,
              "position": 13,
              "duration": 0.010416666666666666
            },
            {
              "pitch": 44,
              "velocity": 51,
              "position": 13,
              "duration": 0.010416666666666666
            },
            {
              "pitch": 51,
              "velocity": 50,
              "position": 13,
              "duration": 0.010416666666666666
            },
            {
              "pitch": 51,
              "velocity": 15,
              "position": 13.666666666666666,
              "duration": 0.010416666666666666
            },
            {
              "pitch": 26,
              "velocity": 30,
              "position": 13,
              "duration": 0.9895833333333334
            },
            {
              "pitch": 36,
              "velocity": 40,
              "position": 14,
              "duration": 0.010416666666666666
            },
            {
              "pitch": 51,
              "velocity": 50,
              "position": 14,
              "duration": 0.010416666666666666
            },
            {
              "pitch": 26,
              "velocity": 30,
              "position": 14,
              "duration": 0.9895833333333334
            },
            {
              "pitch": 38,
              "velocity": 40,
              "position": 15,
              "duration": 0.010416666666666666
            },
            {
              "pitch": 44,
              "velocity": 51,
              "position": 15,
              "duration": 0.010416666666666666
            },
            {
              "pitch": 51,
              "velocity": 50,
              "position": 15,
              "duration": 0.010416666666666666
            },
            {
              "pitch": 51,
              "velocity": 15,
              "position": 15.666666666666666,
              "duration": 0.010416666666666666
            },
            {
              "pitch": 26,
              "velocity": 30,
              "position": 15,
              "duration": 0.9895833333333334
            },
            {
              "pitch": 51,
              "velocity": 50,
              "position": 16,
              "duration": 0.010416666666666666
            },
            {
              "pitch": 36,
              "velocity": 40,
              "position": 16.666666666666668,
              "duration": 0.010416666666666666
            },
            {
              "pitch": 26,
              "velocity": 30,
              "position": 16,
              "duration": 0.9895833333333334
            },
            {
              "pitch": 38,
              "velocity": 40,
              "position": 17,
              "duration": 0.010416666666666666
            },
            {
              "pitch": 44,
              "velocity": 51,
              "position": 17,
              "duration": 0.010416666666666666
            },
            {
              "pitch": 51,
              "velocity": 50,
              "position": 17,
              "duration": 0.010416666666666666
            },
            {
              "pitch": 40,
              "velocity": 93,
              "position": 17.666666666666668,
              "duration": 0.010416666666666666
            },
            {
              "pitch": 51,
              "velocity": 15,
              "position": 17.666666666666668,
              "duration": 0.010416666666666666
            },
            {
              "pitch": 26,
              "velocity": 30,
              "position": 17,
              "duration": 0.9895833333333334
            },
            {
              "pitch": 51,
              "velocity": 50,
              "position": 18,
              "duration": 0.010416666666666666
            },
            {
              "pitch": 27,
              "velocity": 40,
              "position": 18.333333333333332,
              "duration": 0.3125
            },
            {
              "pitch": 38,
              "velocity": 40,
              "position": 18.666666666666668,
              "duration": 0.010416666666666666
            },
            {
              "pitch": 26,
              "velocity": 30,
              "position": 18,
              "duration": 0.9895833333333334
            },
            {
              "pitch": 40,
              "velocity": 93,
              "position": 19,
              "duration": 0.010416666666666666
            },
            {
              "pitch": 44,
              "velocity": 51,
              "position": 19,
              "duration": 0.010416666666666666
            },
            {
              "pitch": 51,
              "velocity": 50,
              "position": 19,
              "duration": 0.010416666666666666
            },
            {
              "pitch": 51,
              "velocity": 15,
              "position": 19.666666666666668,
              "duration": 0.010416666666666666
            },
            {
              "pitch": 26,
              "velocity": 30,
              "position": 19,
              "duration": 0.9895833333333334
            },
            {
              "pitch": 51,
              "velocity": 50,
              "position": 20,
              "duration": 0.010416666666666666
            },
            {
              "pitch": 36,
              "velocity": 27,
              "position": 20.666666666666668,
              "duration": 0.010416666666666666
            },
            {
              "pitch": 26,
              "velocity": 30,
              "position": 20,
              "duration": 0.9895833333333334
            },
            {
              "pitch": 38,
              "velocity": 40,
              "position": 21,
              "duration": 0.010416666666666666
            },
            {
              "pitch": 44,
              "velocity": 51,
              "position": 21,
              "duration": 0.010416666666666666
            },
            {
              "pitch": 51,
              "velocity": 50,
              "position": 21,
              "duration": 0.010416666666666666
            },
            {
              "pitch": 51,
              "velocity": 15,
              "position": 21.666666666666668,
              "duration": 0.010416666666666666
            },
            {
              "pitch": 26,
              "velocity": 30,
              "position": 21,
              "duration": 0.9895833333333334
            },
            {
              "pitch": 36,
              "velocity": 40,
              "position": 22,
              "duration": 0.010416666666666666
            },
            {
              "pitch": 51,
              "velocity": 50,
              "position": 22,
              "duration": 0.010416666666666666
            },
            {
              "pitch": 27,
              "velocity": 40,
              "position": 22.333333333333332,
              "duration": 0.3125
            },
            {
              "pitch": 40,
              "velocity": 93,
              "position": 22.666666666666668,
              "duration": 0.010416666666666666
            },
            {
              "pitch": 26,
              "velocity": 30,
              "position": 22,
              "duration": 0.9895833333333334
            },
            {
              "pitch": 38,
              "velocity": 40,
              "position": 23,
              "duration": 0.010416666666666666
            },
            {
              "pitch": 44,
              "velocity": 51,
              "position": 23,
              "duration": 0.010416666666666666
            },
            {
              "pitch": 51,
              "velocity": 50,
              "position": 23,
              "duration": 0.010416666666666666
            },
            {
              "pitch": 27,
              "velocity": 40,
              "position": 23.333333333333332,
              "duration": 0.3125
            },
            {
              "pitch": 36,
              "velocity": 40,
              "position": 23.666666666666668,
              "duration": 0.010416666666666666
            },
            {
              "pitch": 51,
              "velocity": 15,
              "position": 23.666666666666668,
              "duration": 0.010416666666666666
            },
            {
              "pitch": 26,
              "velocity": 30,
              "position": 23,
              "duration": 0.9895833333333334
            },
            {
              "pitch": 51,
              "velocity": 50,
              "position": 24,
              "duration": 0.010416666666666666
            },
            {
              "pitch": 27,
              "velocity": 40,
              "position": 24.333333333333332,
              "duration": 0.3125
            },
            {
              "pitch": 40,
              "velocity": 93,
              "position": 24.666666666666668,
              "duration": 0.010416666666666666
            },
            {
              "pitch": 26,
              "velocity": 30,
              "position": 24,
              "duration": 0.9895833333333334
            },
            {
              "pitch": 38,
              "velocity": 40,
              "position": 25,
              "duration": 0.010416666666666666
            },
            {
              "pitch": 44,
              "velocity": 51,
              "position": 25,
              "duration": 0.010416666666666666
            },
            {
              "pitch": 51,
              "velocity": 50,
              "position": 25,
              "duration": 0.010416666666666666
            },
            {
              "pitch": 51,
              "velocity": 15,
              "position": 25.666666666666668,
              "duration": 0.010416666666666666
            },
            {
              "pitch": 26,
              "velocity": 30,
              "position": 25,
              "duration": 0.9895833333333334
            },
            {
              "pitch": 51,
              "velocity": 50,
              "position": 26,
              "duration": 0.010416666666666666
            },
            {
              "pitch": 26,
              "velocity": 30,
              "position": 26,
              "duration": 0.9895833333333334
            },
            {
              "pitch": 38,
              "velocity": 40,
              "position": 27,
              "duration": 0.010416666666666666
            },
            {
              "pitch": 44,
              "velocity": 51,
              "position": 27,
              "duration": 0.010416666666666666
            },
            {
              "pitch": 51,
              "velocity": 50,
              "position": 27,
              "duration": 0.010416666666666666
            },
            {
              "pitch": 27,
              "velocity": 40,
              "position": 27.333333333333332,
              "duration": 0.3125
            },
            {
              "pitch": 40,
              "velocity": 93,
              "position": 27.666666666666668,
              "duration": 0.010416666666666666
            },
            {
              "pitch": 51,
              "velocity": 15,
              "position": 27.666666666666668,
              "duration": 0.010416666666666666
            },
            {
              "pitch": 26,
              "velocity": 30,
              "position": 27,
              "duration": 0.9895833333333334
            },
            {
              "pitch": 51,
              "velocity": 50,
              "position": 28,
              "duration": 0.010416666666666666
            },
            {
              "pitch": 26,
              "velocity": 30,
              "position": 28,
              "duration": 0.9895833333333334
            },
            {
              "pitch": 38,
              "velocity": 40,
              "position": 29,
              "duration": 0.010416666666666666
            },
            {
              "pitch": 44,
              "velocity": 51,
              "position": 29,
              "duration": 0.010416666666666666
            },
            {
              "pitch": 51,
              "velocity": 50,
              "position": 29,
              "duration": 0.010416666666666666
            },
            {
              "pitch": 40,
              "velocity": 93,
              "position": 29.666666666666668,
              "duration": 0.010416666666666666
            },
            {
              "pitch": 51,
              "velocity": 15,
              "position": 29.666666666666668,
              "duration": 0.010416666666666666
            },
            {
              "pitch": 26,
              "velocity": 30,
              "position": 29,
              "duration": 0.9895833333333334
            },
            {
              "pitch": 51,
              "velocity": 50,
              "position": 30,
              "duration": 0.010416666666666666
            },
            {
              "pitch": 36,
              "velocity": 27,
              "position": 30.666666666666668,
              "duration": 0.010416666666666666
            },
            {
              "pitch": 26,
              "velocity": 30,
              "position": 30,
              "duration": 0.9895833333333334
            },
            {
              "pitch": 36,
              "velocity": 40,
              "position": 31,
              "duration": 0.010416666666666666
            },
            {
              "pitch": 44,
              "velocity": 51,
              "position": 31,
              "duration": 0.010416666666666666
            },
            {
              "pitch": 51,
              "velocity": 50,
              "position": 31,
              "duration": 0.010416666666666666
            },
            {
              "pitch": 27,
              "velocity": 40,
              "position": 31.333333333333332,
              "duration": 0.3125
            },
            {
              "pitch": 40,
              "velocity": 93,
              "position": 31.666666666666668,
              "duration": 0.010416666666666666
            },
            {
              "pitch": 51,
              "velocity": 15,
              "position": 31.666666666666668,
              "duration": 0.010416666666666666
            },
            {
              "pitch": 26,
              "velocity": 30,
              "position": 31,
              "duration": 0.9895833333333334
            },
            {
              "pitch": 36,
              "velocity": 40,
              "position": 32,
              "duration": 0.010416666666666666
            },
            {
              "pitch": 51,
              "velocity": 50,
              "position": 32,
              "duration": 0.010416666666666666
            },
            {
              "pitch": 26,
              "velocity": 30,
              "position": 32,
              "duration": 0.9895833333333334
            },
            {
              "pitch": 38,
              "velocity": 40,
              "position": 33,
              "duration": 0.010416666666666666
            },
            {
              "pitch": 44,
              "velocity": 51,
              "position": 33,
              "duration": 0.010416666666666666
            },
            {
              "pitch": 51,
              "velocity": 50,
              "position": 33,
              "duration": 0.010416666666666666
            },
            {
              "pitch": 40,
              "velocity": 93,
              "position": 33.666666666666664,
              "duration": 0.010416666666666666
            },
            {
              "pitch": 51,
              "velocity": 15,
              "position": 33.666666666666664,
              "duration": 0.010416666666666666
            },
            {
              "pitch": 26,
              "velocity": 30,
              "position": 33,
              "duration": 0.9895833333333334
            },
            {
              "pitch": 51,
              "velocity": 50,
              "position": 34,
              "duration": 0.010416666666666666
            },
            {
              "pitch": 40,
              "velocity": 93,
              "position": 34.666666666666664,
              "duration": 0.010416666666666666
            },
            {
              "pitch": 38,
              "velocity": 51,
              "position": 34.833333333333336,
              "duration": 0.010416666666666666
            },
            {
              "pitch": 26,
              "velocity": 30,
              "position": 34,
              "duration": 0.9895833333333334
            },
            {
              "pitch": 44,
              "velocity": 51,
              "position": 35,
              "duration": 0.010416666666666666
            },
            {
              "pitch": 51,
              "velocity": 50,
              "position": 35,
              "duration": 0.010416666666666666
            },
            {
              "pitch": 27,
              "velocity": 40,
              "position": 35.333333333333336,
              "duration": 0.3125
            },
            {
              "pitch": 36,
              "velocity": 27,
              "position": 35.666666666666664,
              "duration": 0.010416666666666666
            },
            {
              "pitch": 51,
              "velocity": 15,
              "position": 35.666666666666664,
              "duration": 0.010416666666666666
            },
            {
              "pitch": 26,
              "velocity": 30,
              "position": 35,
              "duration": 0.9895833333333334
            }
          ]
        },
        "10": {
          "ctab": {
            "srcChannel": 10,
            "name": "Bass 1",
            "accType": "BASS",
            "editable": false,
            "mutedNotes": [],
            "mutedChords": [
              "sus4",
              "7aug",
              "minMaj7(9)",
              "minMaj7",
              "min(9)",
              "min",
              "aug"
            ],
            "autoStart": false,
            "sourceChordNote": 0,
            "sourceChordType": "Maj7",
            "ctb2Low": null,
            "ctb2Main": {
              "ntr": "ROOT_TRANSPOSITION",
              "ntt": "MELODY",
              "bassOn": true,
              "chordRootUpperLimit": 8,
              "noteLowLimit": 28,
              "noteHighLimit": 127,
              "rtr": "PITCH_SHIFT_TO_ROOT"
            },
            "ctb2High": null
          },
          "notes": [
            {
              "pitch": 24,
              "velocity": 50,
              "position": 0,
              "duration": 0.8125
            },
            {
              "pitch": 28,
              "velocity": 50,
              "position": 1,
              "duration": 0.8125
            },
            {
              "pitch": 31,
              "velocity": 50,
              "position": 2,
              "duration": 0.8125
            },
            {
              "pitch": 33,
              "velocity": 50,
              "position": 3,
              "duration": 0.8125
            },
            {
              "pitch": 36,
              "velocity": 50,
              "position": 4,
              "duration": 0.8125
            },
            {
              "pitch": 33,
              "velocity": 50,
              "position": 5,
              "duration": 0.8125
            },
            {
              "pitch": 31,
              "velocity": 50,
              "position": 6,
              "duration": 0.8125
            },
            {
              "pitch": 28,
              "velocity": 50,
              "position": 7,
              "duration": 0.8125
            },
            {
              "pitch": 24,
              "velocity": 50,
              "position": 8,
              "duration": 0.8125
            },
            {
              "pitch": 31,
              "velocity": 50,
              "position": 9,
              "duration": 0.8125
            },
            {
              "pitch": 28,
              "velocity": 50,
              "position": 10,
              "duration": 0.8125
            },
            {
              "pitch": 33,
              "velocity": 50,
              "position": 11,
              "duration": 0.8125
            },
            {
              "pitch": 31,
              "velocity": 50,
              "position": 12,
              "duration": 0.8125
            },
            {
              "pitch": 36,
              "velocity": 50,
              "position": 13,
              "duration": 0.8125
            },
            {
              "pitch": 33,
              "velocity": 50,
              "position": 14,
              "duration": 0.8125
            },
            {
              "pitch": 31,
              "velocity": 50,
              "position": 15,
              "duration": 0.8125
            },
            {
              "pitch": 28,
              "velocity": 50,
              "position": 16,
              "duration": 0.8125
            },
            {
              "pitch": 31,
              "velocity": 50,
              "position": 17,
              "duration": 0.8125
            },
            {
              "pitch": 24,
              "velocity": 50,
              "position": 18,
              "duration": 0.8125
            },
            {
              "pitch": 31,
              "velocity": 50,
              "position": 19,
              "duration": 0.8125
            },
            {
              "pitch": 36,
              "velocity": 50,
              "position": 20,
              "duration": 0.8125
            },
            {
              "pitch": 33,
              "velocity": 50,
              "position": 21,
              "duration": 0.8125
            },
            {
              "pitch": 31,
              "velocity": 50,
              "position": 22,
              "duration": 0.8125
            },
            {
              "pitch": 28,
              "velocity": 50,
              "position": 23,
              "duration": 0.8125
            },
            {
              "pitch": 24,
              "velocity": 50,
              "position": 24,
              "duration": 0.8125
            },
            {
              "pitch": 28,
              "velocity": 50,
              "position": 25,
              "duration": 0.8125
            },
            {
              "pitch": 31,
              "velocity": 50,
              "position": 26,
              "duration": 0.8125
            },
            {
              "pitch": 28,
              "velocity": 50,
              "position": 27,
              "duration": 0.8125
            },
            {
              "pitch": 33,
              "velocity": 50,
              "position": 28,
              "duration": 0.8125
            },
            {
              "pitch": 31,
              "velocity": 50,
              "position": 29,
              "duration": 0.8125
            },
            {
              "pitch": 28,
              "velocity": 50,
              "position": 30,
              "duration": 0.8125
            },
            {
              "pitch": 31,
              "velocity": 50,
              "position": 31,
              "duration": 0.8125
            },
            {
              "pitch": 36,
              "velocity": 50,
              "position": 32,
              "duration": 0.8125
            },
            {
              "pitch": 33,
              "velocity": 50,
              "position": 33,
              "duration": 0.8125
            },
            {
              "pitch": 31,
              "velocity": 50,
              "position": 34,
              "duration": 0.8125
            },
            {
              "pitch": 28,
              "velocity": 50,
              "position": 35,
              "duration": 0.8125
            }
          ]
        },
        "11": {
          "ctab": {
            "srcChannel": 11,
            "name": "Gt",
            "accType": "CHORD1",
            "editable": false,
            "mutedNotes": [],
            "mutedChords": [],
            "autoStart": false,
            "sourceChordNote": 0,
            "sourceChordType": "Maj7",
            "ctb2Low": null,
            "ctb2Main": {
              "ntr": "ROOT_FIXED",
              "ntt": "CHORD",
              "bassOn": false,
              "chordRootUpperLimit": 7,
              "noteLowLimit": 0,
              "noteHighLimit": 127,
              "rtr": "PITCH_SHIFT"
            },
            "ctb2High": null
          },
          "notes": [
            {
              "pitch": 55,
              "velocity": 36,
              "position": 0,
              "duration": 0.375
            },
            {
              "pitch": 59,
              "velocity": 36,
              "position": 0.03125,
              "duration": 0.375
            },
            {
              "pitch": 64,
              "velocity": 36,
              "position": 0.0625,
              "duration": 0.375
            },
            {
              "pitch": 55,
              "velocity": 36,
              "position": 1,
              "duration": 0.375
            },
            {
              "pitch": 59,
              "velocity": 36,
              "position": 1.03125,
              "duration": 0.375
            },
            {
              "pitch": 64,
              "velocity": 36,
              "position": 1.0625,
              "duration": 0.375
            },
            {
              "pitch": 55,
              "velocity": 36,
              "position": 2,
              "duration": 0.375
            },
            {
              "pitch": 59,
              "velocity": 36,
              "position": 2.03125,
              "duration": 0.375
            },
            {
              "pitch": 64,
              "velocity": 36,
              "position": 2.0625,
              "duration": 0.375
            },
            {
              "pitch": 55,
              "velocity": 36,
              "position": 3,
              "duration": 0.375
            },
            {
              "pitch": 59,
              "velocity": 36,
              "position": 3.03125,
              "duration": 0.375
            },
            {
              "pitch": 64,
              "velocity": 36,
              "position": 3.0625,
              "duration": 0.375
            },
            {
              "pitch": 55,
              "velocity": 36,
              "position": 4,
              "duration": 0.375
            },
            {
              "pitch": 59,
              "velocity": 36,
              "position": 4.03125,
              "duration": 0.375
            },
            {
              "pitch": 64,
              "velocity": 36,
              "position": 4.0625,
              "duration": 0.375
            },
            {
              "pitch": 55,
              "velocity": 36,
              "position": 5,
              "duration": 0.375
            },
            {
              "pitch": 59,
              "velocity": 36,
              "position": 5.03125,
              "duration": 0.375
            },
            {
              "pitch": 64,
              "velocity": 36,
              "position": 5.0625,
              "duration": 0.375
            },
            {
              "pitch": 55,
              "velocity": 36,
              "position": 6,
              "duration": 0.375
            },
            {
              "pitch": 59,
              "velocity": 36,
              "position": 6.03125,
              "duration": 0.375
            },
            {
              "pitch": 64,
              "velocity": 36,
              "position": 6.0625,
              "duration": 0.375
            },
            {
              "pitch": 55,
              "velocity": 36,
              "position": 7,
              "duration": 0.375
            },
            {
              "pitch": 59,
              "velocity": 36,
              "position": 7.03125,
              "duration": 0.375
            },
            {
              "pitch": 64,
              "velocity": 36,
              "position": 7.0625,
              "duration": 0.375
            },
            {
              "pitch": 55,
              "velocity": 36,
              "position": 8,
              "duration": 0.375
            },
            {
              "pitch": 59,
              "velocity": 36,
              "position": 8.03125,
              "duration": 0.375
            },
            {
              "pitch": 64,
              "velocity": 36,
              "position": 8.0625,
              "duration": 0.375
            },
            {
              "pitch": 55,
              "velocity": 36,
              "position": 9,
              "duration": 0.375
            },
            {
              "pitch": 59,
              "velocity": 36,
              "position": 9.03125,
              "duration": 0.375
            },
            {
              "pitch": 64,
              "velocity": 36,
              "position": 9.0625,
              "duration": 0.375
            },
            {
              "pitch": 55,
              "velocity": 36,
              "position": 10,
              "duration": 0.375
            },
            {
              "pitch": 59,
              "velocity": 36,
              "position": 10.03125,
              "duration": 0.375
            },
            {
              "pitch": 64,
              "velocity": 36,
              "position": 10.0625,
              "duration": 0.375
            },
            {
              "pitch": 55,
              "velocity": 36,
              "position": 11,
              "duration": 0.375
            },
            {
              "pitch": 59,
              "velocity": 36,
              "position": 11.03125,
              "duration": 0.375
            },
            {
              "pitch": 64,
              "velocity": 36,
              "position": 11.0625,
              "duration": 0.375
            },
            {
              "pitch": 55,
              "velocity": 36,
              "position": 12,
              "duration": 0.375
            },
            {
              "pitch": 59,
              "velocity": 36,
              "position": 12.03125,
              "duration": 0.375
            },
            {
              "pitch": 64,
              "velocity": 36,
              "position": 12.0625,
              "duration": 0.375
            },
            {
              "pitch": 55,
              "velocity": 36,
              "position": 13,
              "duration": 0.375
            },
            {
              "pitch": 59,
              "velocity": 36,
              "position": 13.03125,
              "duration": 0.375
            },
            {
              "pitch": 64,
              "velocity": 36,
              "position": 13.0625,
              "duration": 0.375
            },
            {
              "pitch": 55,
              "velocity": 36,
              "position": 14,
              "duration": 0.375
            },
            {
              "pitch": 59,
              "velocity": 36,
              "position": 14.03125,
              "duration": 0.375
            },
            {
              "pitch": 64,
              "velocity": 36,
              "position": 14.0625,
              "duration": 0.375
            },
            {
              "pitch": 55,
              "velocity": 36,
              "position": 15,
              "duration": 0.375
            },
            {
              "pitch": 59,
              "velocity": 36,
              "position": 15.03125,
              "duration": 0.375
            },
            {
              "pitch": 64,
              "velocity": 36,
              "position": 15.0625,
              "duration": 0.375
            },
            {
              "pitch": 55,
              "velocity": 36,
              "position": 16,
              "duration": 0.375
            },
            {
              "pitch": 59,
              "velocity": 36,
              "position": 16.03125,
              "duration": 0.375
            },
            {
              "pitch": 64,
              "velocity": 36,
              "position": 16.0625,
              "duration": 0.375
            },
            {
              "pitch": 55,
              "velocity": 36,
              "position": 17,
              "duration": 0.375
            },
            {
              "pitch": 59,
              "velocity": 36,
              "position": 17.03125,
              "duration": 0.375
            },
            {
              "pitch": 64,
              "velocity": 36,
              "position": 17.0625,
              "duration": 0.375
            },
            {
              "pitch": 55,
              "velocity": 36,
              "position": 18,
              "duration": 0.375
            },
            {
              "pitch": 59,
              "velocity": 36,
              "position": 18.03125,
              "duration": 0.375
            },
            {
              "pitch": 64,
              "velocity": 36,
              "position": 18.0625,
              "duration": 0.375
            },
            {
              "pitch": 55,
              "velocity": 36,
              "position": 19,
              "duration": 0.375
            },
            {
              "pitch": 59,
              "velocity": 36,
              "position": 19.03125,
              "duration": 0.375
            },
            {
              "pitch": 64,
              "velocity": 36,
              "position": 19.0625,
              "duration": 0.375
            },
            {
              "pitch": 55,
              "velocity": 36,
              "position": 20,
              "duration": 0.375
            },
            {
              "pitch": 59,
              "velocity": 36,
              "position": 20.03125,
              "duration": 0.375
            },
            {
              "pitch": 64,
              "velocity": 36,
              "position": 20.0625,
              "duration": 0.375
            },
            {
              "pitch": 55,
              "velocity": 36,
              "position": 21,
              "duration": 0.375
            },
            {
              "pitch": 59,
              "velocity": 36,
              "position": 21.03125,
              "duration": 0.375
            },
            {
              "pitch": 64,
              "velocity": 36,
              "position": 21.0625,
              "duration": 0.375
            },
            {
              "pitch": 55,
              "velocity": 36,
              "position": 22,
              "duration": 0.375
            },
            {
              "pitch": 59,
              "velocity": 36,
              "position": 22.03125,
              "duration": 0.375
            },
            {
              "pitch": 64,
              "velocity": 36,
              "position": 22.0625,
              "duration": 0.375
            },
            {
              "pitch": 55,
              "velocity": 36,
              "position": 23,
              "duration": 0.375
            },
            {
              "pitch": 59,
              "velocity": 36,
              "position": 23.03125,
              "duration": 0.375
            },
            {
              "pitch": 64,
              "velocity": 36,
              "position": 23.0625,
              "duration": 0.375
            },
            {
              "pitch": 55,
              "velocity": 36,
              "position": 24,
              "duration": 0.375
            },
            {
              "pitch": 59,
              "velocity": 36,
              "position": 24.03125,
              "duration": 0.375
            },
            {
              "pitch": 64,
              "velocity": 36,
              "position": 24.0625,
              "duration": 0.375
            },
            {
              "pitch": 55,
              "velocity": 36,
              "position": 25,
              "duration": 0.375
            },
            {
              "pitch": 59,
              "velocity": 36,
              "position": 25.03125,
              "duration": 0.375
            },
            {
              "pitch": 64,
              "velocity": 36,
              "position": 25.0625,
              "duration": 0.375
            },
            {
              "pitch": 55,
              "velocity": 36,
              "position": 26,
              "duration": 0.375
            },
            {
              "pitch": 59,
              "velocity": 36,
              "position": 26.03125,
              "duration": 0.375
            },
            {
              "pitch": 64,
              "velocity": 36,
              "position": 26.0625,
              "duration": 0.375
            },
            {
              "pitch": 55,
              "velocity": 36,
              "position": 27,
              "duration": 0.375
            },
            {
              "pitch": 59,
              "velocity": 36,
              "position": 27.03125,
              "duration": 0.375
            },
            {
              "pitch": 64,
              "velocity": 36,
              "position": 27.0625,
              "duration": 0.375
            },
            {
              "pitch": 55,
              "velocity": 36,
              "position": 28,
              "duration": 0.375
            },
            {
              "pitch": 59,
              "velocity": 36,
              "position": 28.03125,
              "duration": 0.375
            },
            {
              "pitch": 64,
              "velocity": 36,
              "position": 28.0625,
              "duration": 0.375
            },
            {
              "pitch": 55,
              "velocity": 36,
              "position": 29,
              "duration": 0.375
            },
            {
              "pitch": 59,
              "velocity": 36,
              "position": 29.03125,
              "duration": 0.375
            },
            {
              "pitch": 64,
              "velocity": 36,
              "position": 29.0625,
              "duration": 0.375
            },
            {
              "pitch": 55,
              "velocity": 36,
              "position": 30,
              "duration": 0.375
            },
            {
              "pitch": 59,
              "velocity": 36,
              "position": 30.03125,
              "duration": 0.375
            },
            {
              "pitch": 64,
              "velocity": 36,
              "position": 30.0625,
              "duration": 0.375
            },
            {
              "pitch": 55,
              "velocity": 36,
              "position": 31,
              "duration": 0.375
            },
            {
              "pitch": 59,
              "velocity": 36,
              "position": 31.03125,
              "duration": 0.375
            },
            {
              "pitch": 64,
              "velocity": 36,
              "position": 31.0625,
              "duration": 0.375
            },
            {
              "pitch": 55,
              "velocity": 36,
              "position": 32,
              "duration": 0.375
            },
            {
              "pitch": 59,
              "velocity": 36,
              "position": 32.03125,
              "duration": 0.375
            },
            {
              "pitch": 64,
              "velocity": 36,
              "position": 32.0625,
              "duration": 0.375
            },
            {
              "pitch": 55,
              "velocity": 36,
              "position": 33,
              "duration": 0.375
            },
            {
              "pitch": 59,
              "velocity": 36,
              "position": 33.03125,
              "duration": 0.375
            },
            {
              "pitch": 64,
              "velocity": 36,
              "position": 33.0625,
              "duration": 0.375
            },
            {
              "pitch": 55,
              "velocity": 36,
              "position": 34,
              "duration": 0.375
            },
            {
              "pitch": 59,
              "velocity": 36,
              "position": 34.03125,
              "duration": 0.375
            },
            {
              "pitch": 64,
              "velocity": 36,
              "position": 34.0625,
              "duration": 0.375
            },
            {
              "pitch": 55,
              "velocity": 36,
              "position": 35,
              "duration": 0.375
            },
            {
              "pitch": 59,
              "velocity": 36,
              "position": 35.03125,
              "duration": 0.375
            },
            {
              "pitch": 64,
              "velocity": 36,
              "position": 35.0625,
              "duration": 0.375
            }
          ]
        },
        "12": {
          "ctab": {
            "srcChannel": 12,
            "name": "Pno",
            "accType": "CHORD2",
            "editable": false,
            "mutedNotes": [],
            "mutedChords": [],
            "autoStart": false,
            "sourceChordNote": 0,
            "sourceChordType": "Maj7",
            "ctb2Low": null,
            "ctb2Main": {
              "ntr": "ROOT_FIXED",
              "ntt": "CHORD",
              "bassOn": false,
              "chordRootUpperLimit": 7,
              "noteLowLimit": 0,
              "noteHighLimit": 127,
              "rtr": "PITCH_SHIFT"
            },
            "ctb2High": null
          },
          "notes": [
            {
              "pitch": 64,
              "velocity": 63,
              "position": 2,
              "duration": 0.20833333333333334
            },
            {
              "pitch": 67,
              "velocity": 63,
              "position": 2,
              "duration": 0.20833333333333334
            },
            {
              "pitch": 71,
              "velocity": 63,
              "position": 2,
              "duration": 0.20833333333333334
            },
            {
              "pitch": 59,
              "velocity": 73,
              "position": 3.7083333333333335,
              "duration": 0.20833333333333334
            },
            {
              "pitch": 64,
              "velocity": 73,
              "position": 3.7083333333333335,
              "duration": 0.20833333333333334
            },
            {
              "pitch": 67,
              "velocity": 73,
              "position": 3.7083333333333335,
              "duration": 0.20833333333333334
            },
            {
              "pitch": 55,
              "velocity": 73,
              "position": 5.708333333333333,
              "duration": 0.20833333333333334
            },
            {
              "pitch": 59,
              "velocity": 73,
              "position": 5.708333333333333,
              "duration": 0.20833333333333334
            },
            {
              "pitch": 64,
              "velocity": 73,
              "position": 5.708333333333333,
              "duration": 0.20833333333333334
            },
            {
              "pitch": 52,
              "velocity": 63,
              "position": 6.708333333333333,
              "duration": 1.2083333333333333
            },
            {
              "pitch": 55,
              "velocity": 63,
              "position": 6.708333333333333,
              "duration": 1.2083333333333333
            },
            {
              "pitch": 59,
              "velocity": 63,
              "position": 6.708333333333333,
              "duration": 1.2083333333333333
            },
            {
              "pitch": 55,
              "velocity": 63,
              "position": 9.708333333333334,
              "duration": 0.20833333333333334
            },
            {
              "pitch": 59,
              "velocity": 63,
              "position": 9.708333333333334,
              "duration": 0.20833333333333334
            },
            {
              "pitch": 64,
              "velocity": 63,
              "position": 9.708333333333334,
              "duration": 0.20833333333333334
            },
            {
              "pitch": 55,
              "velocity": 73,
              "position": 11.708333333333334,
              "duration": 0.20833333333333334
            },
            {
              "pitch": 59,
              "velocity": 73,
              "position": 11.708333333333334,
              "duration": 0.20833333333333334
            },
            {
              "pitch": 64,
              "velocity": 73,
              "position": 11.708333333333334,
              "duration": 0.20833333333333334
            },
            {
              "pitch": 52,
              "velocity": 63,
              "position": 12.708333333333334,
              "duration": 1.2083333333333333
            },
            {
              "pitch": 55,
              "velocity": 63,
              "position": 12.708333333333334,
              "duration": 1.2083333333333333
            },
            {
              "pitch": 59,
              "velocity": 63,
              "position": 12.708333333333334,
              "duration": 1.2083333333333333
            },
            {
              "pitch": 55,
              "velocity": 63,
              "position": 14.708333333333334,
              "duration": 1.2083333333333333
            },
            {
              "pitch": 59,
              "velocity": 63,
              "position": 14.708333333333334,
              "duration": 1.2083333333333333
            },
            {
              "pitch": 64,
              "velocity": 63,
              "position": 14.708333333333334,
              "duration": 1.2083333333333333
            },
            {
              "pitch": 59,
              "velocity": 63,
              "position": 17.708333333333332,
              "duration": 0.20833333333333334
            },
            {
              "pitch": 64,
              "velocity": 63,
              "position": 17.708333333333332,
              "duration": 0.20833333333333334
            },
            {
              "pitch": 67,
              "velocity": 63,
              "position": 17.708333333333332,
              "duration": 0.20833333333333334
            },
            {
              "pitch": 55,
              "velocity": 63,
              "position": 18.708333333333332,
              "duration": 0.20833333333333334
            },
            {
              "pitch": 59,
              "velocity": 63,
              "position": 18.708333333333332,
              "duration": 0.20833333333333334
            },
            {
              "pitch": 64,
              "velocity": 63,
              "position": 18.708333333333332,
              "duration": 0.20833333333333334
            },
            {
              "pitch": 59,
              "velocity": 73,
              "position": 19.708333333333332,
              "duration": 1.5416666666666667
            },
            {
              "pitch": 64,
              "velocity": 73,
              "position": 19.708333333333332,
              "duration": 1.5416666666666667
            },
            {
              "pitch": 67,
              "velocity": 73,
              "position": 19.708333333333332,
              "duration": 1.5416666666666667
            },
            {
              "pitch": 59,
              "velocity": 73,
              "position": 21.708333333333332,
              "duration": 0.20833333333333334
            },
            {
              "pitch": 64,
              "velocity": 73,
              "position": 21.708333333333332,
              "duration": 0.20833333333333334
            },
            {
              "pitch": 67,
              "velocity": 73,
              "position": 21.708333333333332,
              "duration": 0.20833333333333334
            },
            {
              "pitch": 55,
              "velocity": 63,
              "position": 22.708333333333332,
              "duration": 0.20833333333333334
            },
            {
              "pitch": 59,
              "velocity": 63,
              "position": 22.708333333333332,
              "duration": 0.20833333333333334
            },
            {
              "pitch": 64,
              "velocity": 63,
              "position": 22.708333333333332,
              "duration": 0.20833333333333334
            },
            {
              "pitch": 55,
              "velocity": 63,
              "position": 25.708333333333332,
              "duration": 2.2083333333333335
            },
            {
              "pitch": 59,
              "velocity": 63,
              "position": 25.708333333333332,
              "duration": 2.2083333333333335
            },
            {
              "pitch": 64,
              "velocity": 63,
              "position": 25.708333333333332,
              "duration": 2.2083333333333335
            },
            {
              "pitch": 55,
              "velocity": 63,
              "position": 28.708333333333332,
              "duration": 0.20833333333333334
            },
            {
              "pitch": 59,
              "velocity": 63,
              "position": 28.708333333333332,
              "duration": 0.20833333333333334
            },
            {
              "pitch": 64,
              "velocity": 63,
              "position": 28.708333333333332,
              "duration": 0.20833333333333334
            },
            {
              "pitch": 59,
              "velocity": 73,
              "position": 29.708333333333332,
              "duration": 0.20833333333333334
            },
            {
              "pitch": 64,
              "velocity": 73,
              "position": 29.708333333333332,
              "duration": 0.20833333333333334
            },
            {
              "pitch": 67,
              "velocity": 73,
              "position": 29.708333333333332,
              "duration": 0.20833333333333334
            },
            {
              "pitch": 64,
              "velocity": 63,
              "position": 30.708333333333332,
              "duration": 1.2083333333333333
            },
            {
              "pitch": 67,
              "velocity": 63,
              "position": 30.708333333333332,
              "duration": 1.2083333333333333
            },
            {
              "pitch": 71,
              "velocity": 63,
              "position": 30.708333333333332,
              "duration": 1.2083333333333333
            },
            {
              "pitch": 55,
              "velocity": 63,
              "position": 33.708333333333336,
              "duration": 0.20833333333333334
            },
            {
              "pitch": 59,
              "velocity": 63,
              "position": 33.708333333333336,
              "duration": 0.20833333333333334
            },
            {
              "pitch": 64,
              "velocity": 63,
              "position": 33.708333333333336,
              "duration": 0.20833333333333334
            },
            {
              "pitch": 59,
              "velocity": 73,
              "position": 35.708333333333336,
              "duration": 0.20833333333333334
            },
            {
              "pitch": 64,
              "velocity": 73,
              "position": 35.708333333333336,
              "duration": 0.20833333333333334
            },
            {
              "pitch": 67,
              "velocity": 73,
              "position": 35.708333333333336,
              "duration": 0.20833333333333334
            }
          ]
        },
        "13": {
          "ctab": {
            "srcChannel": 13,
            "name": "Vib",
            "accType": "PAD",
            "editable": false,
            "mutedNotes": [],
            "mutedChords": [],
            "autoStart": false,
            "sourceChordNote": 0,
            "sourceChordType": "Maj7",
            "ctb2Low": null,
            "ctb2Main": {
              "ntr": "ROOT_FIXED",
              "ntt": "CHORD",
              "bassOn": false,
              "chordRootUpperLimit": 7,
              "noteLowLimit": 0,
              "noteHighLimit": 127,
              "rtr": "PITCH_SHIFT"
            },
            "ctb2High": null
          },
          "notes": [
            {
              "pitch": 55,
              "velocity": 52,
              "position": 0,
              "duration": 3.9895833333333335
            },
            {
              "pitch": 59,
              "velocity": 52,
              "position": 0,
              "duration": 3.9895833333333335
            },
            {
              "pitch": 64,
              "velocity": 52,
              "position": 0,
              "duration": 3.9895833333333335
            },
            {
              "pitch": 55,
              "velocity": 41,
              "position": 6.708333333333333,
              "duration": 1.28125
            },
            {
              "pitch": 59,
              "velocity": 41,
              "position": 6.708333333333333,
              "duration": 1.28125
            },
            {
              "pitch": 64,
              "velocity": 41,
              "position": 6.708333333333333,
              "duration": 1.28125
            },
            {
              "pitch": 55,
              "velocity": 52,
              "position": 8,
              "duration": 3.9895833333333335
            },
            {
              "pitch": 59,
              "velocity": 52,
              "position": 8,
              "duration": 3.9895833333333335
            },
            {
              "pitch": 64,
              "velocity": 52,
              "position": 8,
              "duration": 3.9895833333333335
            },
            {
              "pitch": 55,
              "velocity": 41,
              "position": 14.708333333333334,
              "duration": 1.28125
            },
            {
              "pitch": 59,
              "velocity": 41,
              "position": 14.708333333333334,
              "duration": 1.28125
            },
            {
              "pitch": 64,
              "velocity": 41,
              "position": 14.708333333333334,
              "duration": 1.28125
            },
            {
              "pitch": 55,
              "velocity": 52,
              "position": 16,
              "duration": 3.9895833333333335
            },
            {
              "pitch": 59,
              "velocity": 52,
              "position": 16,
              "duration": 3.9895833333333335
            },
            {
              "pitch": 64,
              "velocity": 52,
              "position": 16,
              "duration": 3.9895833333333335
            },
            {
              "pitch": 55,
              "velocity": 41,
              "position": 22.708333333333332,
              "duration": 1.28125
            },
            {
              "pitch": 59,
              "velocity": 41,
              "position": 22.708333333333332,
              "duration": 1.28125
            },
            {
              "pitch": 64,
              "velocity": 41,
              "position": 22.708333333333332,
              "duration": 1.28125
            },
            {
              "pitch": 55,
              "velocity": 52,
              "position": 24,
              "duration": 3.9895833333333335
            },
            {
              "pitch": 59,
              "velocity": 52,
              "position": 24,
              "duration": 3.9895833333333335
            },
            {
              "pitch": 64,
              "velocity": 52,
              "position": 24,
              "duration": 3.9895833333333335
            },
            {
              "pitch": 55,
              "velocity": 41,
              "position": 30.666666666666668,
              "duration": 1.3229166666666667
            },
            {
              "pitch": 59,
              "velocity": 41,
              "position": 30.666666666666668,
              "duration": 1.3229166666666667
            },
            {
              "pitch": 64,
              "velocity": 41,
              "position": 30.666666666666668,
              "duration": 1.3229166666666667
            },
            {
              "pitch": 55,
              "velocity": 52,
              "position": 32,
              "duration": 3.9895833333333335
            },
            {
              "pitch": 59,
              "velocity": 52,
              "position": 32,
              "duration": 3.9895833333333335
            },
            {
              "pitch": 64,
              "velocity": 52,
              "position": 32,
              "duration": 3.9895833333333335
            }
          ]
        }
      }
    },
    "Fill_In_CC": {
      "type": "Fill_In_CC",
      "sizeInBeats": 4,
      "channels": {
        "1": {
          "ctab": {
            "srcChannel": 1,
            "name": "Bass 2",
            "accType": "BASS",
            "editable": false,
            "mutedNotes": [],
            "mutedChords": [
              "1+2+5",
              "1+5",
              "1+8",
              "Maj7aug",
              "7(#9)",
              "7(b13)",
              "7(b9)",
              "7(13)",
              "7#11",
              "7(9)",
              "7b5",
              "7sus4",
              "7th",
              "dim7",
              "dim",
              "min7(11)",
              "min7(9)",
              "m7b5",
              "min7",
              "min6",
              "Maj6(9)",
              "Maj7(9)",
              "Maj(9)",
              "Maj7#11",
              "Maj7",
              "Maj6",
              "Maj"
            ],
            "autoStart": false,
            "sourceChordNote": 0,
            "sourceChordType": "Maj7",
            "ctb2Low": null,
            "ctb2Main": {
              "ntr": "ROOT_TRANSPOSITION",
              "ntt": "MELODY",
              "bassOn": true,
              "chordRootUpperLimit": 8,
              "noteLowLimit": 28,
              "noteHighLimit": 127,
              "rtr": "PITCH_SHIFT_TO_ROOT"
            },
            "ctb2High": null
          },
          "notes": [
            {
              "pitch": 36,
              "velocity": 50,
              "position": 0,
              "duration": 0.6979166666666666
            },
            {
              "pitch": 28,
              "velocity": 112,
              "position": 0.7083333333333334,
              "duration": 0.08333333333333333
            },
            {
              "pitch": 31,
              "velocity": 50,
              "position": 1,
              "duration": 0.8125
            },
            {
              "pitch": 28,
              "velocity": 50,
              "position": 2,
              "duration": 0.8125
            },
            {
              "pitch": 31,
              "velocity": 50,
              "position": 3,
              "duration": 0.8125
            }
          ]
        },
        "2": {
          "ctab": {
            "srcChannel": 2,
            "name": "Gt Root",
            "accType": "CHORD1",
            "editable": false,
            "mutedNotes": [],
            "mutedChords": [
              "1+2+5",
              "sus4",
              "1+5",
              "1+8",
              "Maj7aug",
              "dim",
              "minMaj7(9)",
              "minMaj7",
              "min6",
              "min",
              "aug",
              "Maj7(9)",
              "Maj7#11",
              "Maj7",
              "Maj6",
              "Maj"
            ],
            "autoStart": false,
            "sourceChordNote": 0,
            "sourceChordType": "Maj7",
            "ctb2Low": null,
            "ctb2Main": {
              "ntr": "ROOT_TRANSPOSITION",
              "ntt": "CHORD",
              "bassOn": false,
              "chordRootUpperLimit": 6,
              "noteLowLimit": 0,
              "noteHighLimit": 127,
              "rtr": "PITCH_SHIFT"
            },
            "ctb2High": null
          },
          "notes": [
            {
              "pitch": 60,
              "velocity": 36,
              "position": 0.03125,
              "duration": 0.375
            },
            {
              "pitch": 60,
              "velocity": 36,
              "position": 1.03125,
              "duration": 0.375
            },
            {
              "pitch": 60,
              "velocity": 36,
              "position": 2.03125,
              "duration": 0.375
            },
            {
              "pitch": 60,
              "velocity": 36,
              "position": 3.03125,
              "duration": 0.375
            }
          ]
        },
        "4": {
          "ctab": {
            "srcChannel": 4,
            "name": "Vib Root",
            "accType": "PAD",
            "editable": false,
            "mutedNotes": [],
            "mutedChords": [
              "1+2+5",
              "sus4",
              "1+5",
              "1+8",
              "Maj7aug",
              "dim",
              "minMaj7(9)",
              "minMaj7",
              "min6",
              "min",
              "aug",
              "Maj7(9)",
              "Maj7#11",
              "Maj7",
              "Maj6",
              "Maj"
            ],
            "autoStart": false,
            "sourceChordNote": 0,
            "sourceChordType": "Maj7",
            "ctb2Low": null,
            "ctb2Main": {
              "ntr": "ROOT_TRANSPOSITION",
              "ntt": "CHORD",
              "bassOn": false,
              "chordRootUpperLimit": 6,
              "noteLowLimit": 0,
              "noteHighLimit": 70,
              "rtr": "PITCH_SHIFT"
            },
            "ctb2High": null
          },
          "notes": [
            {
              "pitch": 72,
              "velocity": 54,
              "position": 0.7083333333333334,
              "duration": 3.28125
            }
          ]
        },
        "8": {
          "ctab": {
            "srcChannel": 8,
            "name": "CC_Crash",
            "accType": "RHYTHM",
            "editable": false,
            "mutedNotes": [],
            "mutedChords": [
              "1+2+5",
              "sus4",
              "1+5",
              "1+8",
              "7aug",
              "Maj7aug",
              "7(#9)",
              "7(b13)",
              "7(b9)",
              "7(13)",
              "7#11",
              "7(9)",
              "7b5",
              "7sus4",
              "7th",
              "dim7",
              "dim",
              "minMaj7(9)",
              "minMaj7",
              "min7(11)",
              "min7(9)",
              "min(9)",
              "m7b5",
              "min7",
              "min6",
              "min",
              "aug",
              "Maj6(9)",
              "Maj7(9)",
              "Maj(9)",
              "Maj7#11",
              "Maj7",
              "Maj6",
              "Maj"
            ],
            "autoStart": true,
            "sourceChordNote": 0,
            "sourceChordType": "Maj",
            "ctb2Low": null,
            "ctb2Main": {
              "ntr": "ROOT_FIXED",
              "ntt": "BYPASS",
              "bassOn": false,
              "chordRootUpperLimit": 0,
              "noteLowLimit": 0,
              "noteHighLimit": 127,
              "rtr": "RETRIGGER"
            },
            "ctb2High": null
          },
          "notes": []
        },
        "9": {
          "ctab": {
            "srcChannel": 9,
            "name": "Drums",
            "accType": "RHYTHM",
            "editable": false,
            "mutedNotes": [],
            "mutedChords": [],
            "autoStart": true,
            "sourceChordNote": 0,
            "sourceChordType": "Maj7",
            "ctb2Low": null,
            "ctb2Main": {
              "ntr": "ROOT_FIXED",
              "ntt": "BYPASS",
              "bassOn": false,
              "chordRootUpperLimit": 6,
              "noteLowLimit": 0,
              "noteHighLimit": 127,
              "rtr": "PITCH_SHIFT"
            },
            "ctb2High": null
          },
          "notes": [
            {
              "pitch": 59,
              "velocity": 45,
              "position": 0,
              "duration": 0.010416666666666666
            },
            {
              "pitch": 26,
              "velocity": 30,
              "position": 0,
              "duration": 0.3229166666666667
            },
            {
              "pitch": 28,
              "velocity": 40,
              "position": 0.3333333333333333,
              "duration": 0.3229166666666667
            },
            {
              "pitch": 47,
              "velocity": 70,
              "position": 0.6666666666666666,
              "duration": 0.010416666666666666
            },
            {
              "pitch": 38,
              "velocity": 40,
              "position": 1,
              "duration": 0.010416666666666666
            },
            {
              "pitch": 44,
              "velocity": 51,
              "position": 1,
              "duration": 0.010416666666666666
            },
            {
              "pitch": 28,
              "velocity": 40,
              "position": 1.3333333333333333,
              "duration": 0.3229166666666667
            },
            {
              "pitch": 45,
              "velocity": 70,
              "position": 1.6666666666666667,
              "duration": 0.010416666666666666
            },
            {
              "pitch": 44,
              "velocity": 51,
              "position": 2,
              "duration": 0.010416666666666666
            },
            {
              "pitch": 28,
              "velocity": 40,
              "position": 2.3333333333333335,
              "duration": 0.3229166666666667
            },
            {
              "pitch": 40,
              "velocity": 93,
              "position": 2.6666666666666665,
              "duration": 0.010416666666666666
            },
            {
              "pitch": 44,
              "velocity": 51,
              "position": 3,
              "duration": 0.010416666666666666
            },
            {
              "pitch": 28,
              "velocity": 40,
              "position": 3.3333333333333335,
              "duration": 0.3229166666666667
            },
            {
              "pitch": 36,
              "velocity": 44,
              "position": 3.6666666666666665,
              "duration": 0.010416666666666666
            }
          ]
        },
        "10": {
          "ctab": {
            "srcChannel": 10,
            "name": "Bass 1",
            "accType": "BASS",
            "editable": false,
            "mutedNotes": [],
            "mutedChords": [
              "sus4",
              "7aug",
              "minMaj7(9)",
              "minMaj7",
              "min(9)",
              "min",
              "aug"
            ],
            "autoStart": false,
            "sourceChordNote": 0,
            "sourceChordType": "Maj7",
            "ctb2Low": null,
            "ctb2Main": {
              "ntr": "ROOT_TRANSPOSITION",
              "ntt": "MELODY",
              "bassOn": true,
              "chordRootUpperLimit": 8,
              "noteLowLimit": 28,
              "noteHighLimit": 127,
              "rtr": "PITCH_SHIFT_TO_ROOT"
            },
            "ctb2High": null
          },
          "notes": [
            {
              "pitch": 36,
              "velocity": 50,
              "position": 0,
              "duration": 0.6979166666666666
            },
            {
              "pitch": 28,
              "velocity": 112,
              "position": 0.7083333333333334,
              "duration": 0.08333333333333333
            },
            {
              "pitch": 33,
              "velocity": 50,
              "position": 1,
              "duration": 0.8125
            },
            {
              "pitch": 31,
              "velocity": 50,
              "position": 2,
              "duration": 0.8125
            },
            {
              "pitch": 28,
              "velocity": 50,
              "position": 3,
              "duration": 0.8125
            }
          ]
        },
        "11": {
          "ctab": {
            "srcChannel": 11,
            "name": "Gt",
            "accType": "CHORD1",
            "editable": false,
            "mutedNotes": [],
            "mutedChords": [],
            "autoStart": false,
            "sourceChordNote": 0,
            "sourceChordType": "Maj7",
            "ctb2Low": null,
            "ctb2Main": {
              "ntr": "ROOT_FIXED",
              "ntt": "CHORD",
              "bassOn": false,
              "chordRootUpperLimit": 7,
              "noteLowLimit": 0,
              "noteHighLimit": 127,
              "rtr": "PITCH_SHIFT"
            },
            "ctb2High": null
          },
          "notes": [
            {
              "pitch": 55,
              "velocity": 36,
              "position": 0,
              "duration": 0.375
            },
            {
              "pitch": 59,
              "velocity": 36,
              "position": 0.03125,
              "duration": 0.375
            },
            {
              "pitch": 64,
              "velocity": 36,
              "position": 0.0625,
              "duration": 0.375
            },
            {
              "pitch": 55,
              "velocity": 36,
              "position": 1,
              "duration": 0.375
            },
            {
              "pitch": 59,
              "velocity": 36,
              "position": 1.03125,
              "duration": 0.375
            },
            {
              "pitch": 64,
              "velocity": 36,
              "position": 1.0625,
              "duration": 0.375
            },
            {
              "pitch": 55,
              "velocity": 36,
              "position": 2,
              "duration": 0.375
            },
            {
              "pitch": 59,
              "velocity": 36,
              "position": 2.03125,
              "duration": 0.375
            },
            {
              "pitch": 64,
              "velocity": 36,
              "position": 2.0625,
              "duration": 0.375
            },
            {
              "pitch": 55,
              "velocity": 36,
              "position": 3,
              "duration": 0.375
            },
            {
              "pitch": 59,
              "velocity": 36,
              "position": 3.03125,
              "duration": 0.375
            },
            {
              "pitch": 64,
              "velocity": 36,
              "position": 3.0625,
              "duration": 0.375
            }
          ]
        },
        "12": {
          "ctab": {
            "srcChannel": 12,
            "name": "Pno",
            "accType": "CHORD2",
            "editable": false,
            "mutedNotes": [],
            "mutedChords": [],
            "autoStart": false,
            "sourceChordNote": 0,
            "sourceChordType": "Maj7",
            "ctb2Low": null,
            "ctb2Main": {
              "ntr": "ROOT_FIXED",
              "ntt": "CHORD",
              "bassOn": false,
              "chordRootUpperLimit": 7,
              "noteLowLimit": 0,
              "noteHighLimit": 127,
              "rtr": "PITCH_SHIFT"
            },
            "ctb2High": null
          },
          "notes": [
            {
              "pitch": 55,
              "velocity": 73,
              "position": 1.7083333333333333,
              "duration": 0.20833333333333334
            },
            {
              "pitch": 59,
              "velocity": 73,
              "position": 1.7083333333333333,
              "duration": 0.20833333333333334
            },
            {
              "pitch": 64,
              "velocity": 73,
              "position": 1.7083333333333333,
              "duration": 0.20833333333333334
            },
            {
              "pitch": 55,
              "velocity": 63,
              "position": 2.7083333333333335,
              "duration": 0.20833333333333334
            },
            {
              "pitch": 59,
              "velocity": 63,
              "position": 2.7083333333333335,
              "duration": 0.20833333333333334
            },
            {
              "pitch": 64,
              "velocity": 63,
              "position": 2.7083333333333335,
              "duration": 0.20833333333333334
            },
            {
              "pitch": 55,
              "velocity": 73,
              "position": 3.7083333333333335,
              "duration": 0.20833333333333334
            },
            {
              "pitch": 59,
              "velocity": 73,
              "position": 3.7083333333333335,
              "duration": 0.20833333333333334
            },
            {
              "pitch": 64,
              "velocity": 73,
              "position": 3.7083333333333335,
              "duration": 0.20833333333333334
            }
          ]
        },
        "13": {
          "ctab": {
            "srcChannel": 13,
            "name": "Vib",
            "accType": "PAD",
            "editable": false,
            "mutedNotes": [],
            "mutedChords": [],
            "autoStart": false,
            "sourceChordNote": 0,
            "sourceChordType": "Maj7",
            "ctb2Low": null,
            "ctb2Main": {
              "ntr": "ROOT_FIXED",
              "ntt": "CHORD",
              "bassOn": false,
              "chordRootUpperLimit": 7,
              "noteLowLimit": 0,
              "noteHighLimit": 127,
              "rtr": "PITCH_SHIFT"
            },
            "ctb2High": null
          },
          "notes": [
            {
              "pitch": 59,
              "velocity": 63,
              "position": 0.7083333333333334,
              "duration": 3.28125
            },
            {
              "pitch": 64,
              "velocity": 63,
              "position": 0.7083333333333334,
              "duration": 3.28125
            },
            {
              "pitch": 67,
              "velocity": 63,
              "position": 0.7083333333333334,
              "duration": 3.28125
            }
          ]
        }
      }
    },
    "Intro_A": {
      "type": "Intro_A",
      "sizeInBeats": 8,
      "channels": {
        "1": {
          "ctab": {
            "srcChannel": 1,
            "name": "Bass 2",
            "accType": "BASS",
            "editable": false,
            "mutedNotes": [],
            "mutedChords": [
              "1+2+5",
              "1+5",
              "1+8",
              "Maj7aug",
              "7(#9)",
              "7(b13)",
              "7(b9)",
              "7(13)",
              "7#11",
              "7(9)",
              "7b5",
              "7sus4",
              "7th",
              "dim7",
              "dim",
              "min7(11)",
              "min7(9)",
              "m7b5",
              "min7",
              "min6",
              "Maj6(9)",
              "Maj7(9)",
              "Maj(9)",
              "Maj7#11",
              "Maj7",
              "Maj6",
              "Maj"
            ],
            "autoStart": false,
            "sourceChordNote": 0,
            "sourceChordType": "Maj7",
            "ctb2Low": null,
            "ctb2Main": {
              "ntr": "ROOT_TRANSPOSITION",
              "ntt": "MELODY",
              "bassOn": true,
              "chordRootUpperLimit": 8,
              "noteLowLimit": 28,
              "noteHighLimit": 127,
              "rtr": "PITCH_SHIFT_TO_ROOT"
            },
            "ctb2High": null
          },
          "notes": []
        },
        "2": {
          "ctab": {
            "srcChannel": 2,
            "name": "Gt Root",
            "accType": "CHORD1",
            "editable": false,
            "mutedNotes": [],
            "mutedChords": [
              "1+2+5",
              "sus4",
              "1+5",
              "1+8",
              "Maj7aug",
              "dim",
              "minMaj7(9)",
              "minMaj7",
              "min6",
              "min",
              "aug",
              "Maj7(9)",
              "Maj7#11",
              "Maj7",
              "Maj6",
              "Maj"
            ],
            "autoStart": false,
            "sourceChordNote": 0,
            "sourceChordType": "Maj7",
            "ctb2Low": null,
            "ctb2Main": {
              "ntr": "ROOT_TRANSPOSITION",
              "ntt": "CHORD",
              "bassOn": false,
              "chordRootUpperLimit": 6,
              "noteLowLimit": 0,
              "noteHighLimit": 127,
              "rtr": "PITCH_SHIFT"
            },
            "ctb2High": null
          },
          "notes": []
        },
        "4": {
          "ctab": {
            "srcChannel": 4,
            "name": "Vib Root",
            "accType": "PAD",
            "editable": false,
            "mutedNotes": [],
            "mutedChords": [
              "1+2+5",
              "sus4",
              "1+5",
              "1+8",
              "Maj7aug",
              "dim",
              "minMaj7(9)",
              "minMaj7",
              "min6",
              "min",
              "aug",
              "Maj7(9)",
              "Maj7#11",
              "Maj7",
              "Maj6",
              "Maj"
            ],
            "autoStart": false,
            "sourceChordNote": 0,
            "sourceChordType": "Maj7",
            "ctb2Low": null,
            "ctb2Main": {
              "ntr": "ROOT_TRANSPOSITION",
              "ntt": "CHORD",
              "bassOn": false,
              "chordRootUpperLimit": 6,
              "noteLowLimit": 0,
              "noteHighLimit": 70,
              "rtr": "PITCH_SHIFT"
            },
            "ctb2High": null
          },
          "notes": []
        },
        "8": {
          "ctab": {
            "srcChannel": 8,
            "name": "CC_Crash",
            "accType": "RHYTHM",
            "editable": false,
            "mutedNotes": [],
            "mutedChords": [
              "1+2+5",
              "sus4",
              "1+5",
              "1+8",
              "7aug",
              "Maj7aug",
              "7(#9)",
              "7(b13)",
              "7(b9)",
              "7(13)",
              "7#11",
              "7(9)",
              "7b5",
              "7sus4",
              "7th",
              "dim7",
              "dim",
              "minMaj7(9)",
              "minMaj7",
              "min7(11)",
              "min7(9)",
              "min(9)",
              "m7b5",
              "min7",
              "min6",
              "min",
              "aug",
              "Maj6(9)",
              "Maj7(9)",
              "Maj(9)",
              "Maj7#11",
              "Maj7",
              "Maj6",
              "Maj"
            ],
            "autoStart": true,
            "sourceChordNote": 0,
            "sourceChordType": "Maj",
            "ctb2Low": null,
            "ctb2Main": {
              "ntr": "ROOT_FIXED",
              "ntt": "BYPASS",
              "bassOn": false,
              "chordRootUpperLimit": 0,
              "noteLowLimit": 0,
              "noteHighLimit": 127,
              "rtr": "RETRIGGER"
            },
            "ctb2High": null
          },
          "notes": []
        },
        "9": {
          "ctab": {
            "srcChannel": 9,
            "name": "Drums",
            "accType": "RHYTHM",
            "editable": false,
            "mutedNotes": [],
            "mutedChords": [],
            "autoStart": true,
            "sourceChordNote": 0,
            "sourceChordType": "Maj7",
            "ctb2Low": null,
            "ctb2Main": {
              "ntr": "ROOT_FIXED",
              "ntt": "BYPASS",
              "bassOn": false,
              "chordRootUpperLimit": 6,
              "noteLowLimit": 0,
              "noteHighLimit": 127,
              "rtr": "PITCH_SHIFT"
            },
            "ctb2High": null
          },
          "notes": [
            {
              "pitch": 40,
              "velocity": 13,
              "position": 0,
              "duration": 0.010416666666666666
            },
            {
              "pitch": 26,
              "velocity": 30,
              "position": 0,
              "duration": 0.9895833333333334
            },
            {
              "pitch": 38,
              "velocity": 40,
              "position": 1,
              "duration": 0.010416666666666666
            },
            {
              "pitch": 44,
              "velocity": 51,
              "position": 1,
              "duration": 0.010416666666666666
            },
            {
              "pitch": 26,
              "velocity": 30,
              "position": 1,
              "duration": 0.9895833333333334
            },
            {
              "pitch": 28,
              "velocity": 40,
              "position": 1.6666666666666667,
              "duration": 0.3229166666666667
            },
            {
              "pitch": 40,
              "velocity": 13,
              "position": 2,
              "duration": 0.010416666666666666
            },
            {
              "pitch": 26,
              "velocity": 30,
              "position": 2,
              "duration": 0.9895833333333334
            },
            {
              "pitch": 38,
              "velocity": 40,
              "position": 3,
              "duration": 0.010416666666666666
            },
            {
              "pitch": 44,
              "velocity": 51,
              "position": 3,
              "duration": 0.010416666666666666
            },
            {
              "pitch": 26,
              "velocity": 30,
              "position": 3,
              "duration": 0.9895833333333334
            },
            {
              "pitch": 28,
              "velocity": 40,
              "position": 3.6666666666666665,
              "duration": 0.3229166666666667
            },
            {
              "pitch": 40,
              "velocity": 13,
              "position": 4,
              "duration": 0.010416666666666666
            },
            {
              "pitch": 38,
              "velocity": 20,
              "position": 4.666666666666667,
              "duration": 0.010416666666666666
            },
            {
              "pitch": 40,
              "velocity": 13,
              "position": 4.833333333333333,
              "duration": 0.010416666666666666
            },
            {
              "pitch": 26,
              "velocity": 30,
              "position": 4,
              "duration": 0.9895833333333334
            },
            {
              "pitch": 40,
              "velocity": 93,
              "position": 5,
              "duration": 0.010416666666666666
            },
            {
              "pitch": 44,
              "velocity": 51,
              "position": 5,
              "duration": 0.010416666666666666
            },
            {
              "pitch": 28,
              "velocity": 40,
              "position": 5.333333333333333,
              "duration": 0.3229166666666667
            },
            {
              "pitch": 47,
              "velocity": 70,
              "position": 5.666666666666667,
              "duration": 0.010416666666666666
            },
            {
              "pitch": 26,
              "velocity": 30,
              "position": 5,
              "duration": 0.9895833333333334
            },
            {
              "pitch": 40,
              "velocity": 13,
              "position": 6,
              "duration": 0.010416666666666666
            },
            {
              "pitch": 28,
              "velocity": 40,
              "position": 6.333333333333333,
              "duration": 0.3229166666666667
            },
            {
              "pitch": 36,
              "velocity": 39,
              "position": 6.666666666666667,
              "duration": 0.010416666666666666
            },
            {
              "pitch": 26,
              "velocity": 30,
              "position": 6,
              "duration": 0.9895833333333334
            },
            {
              "pitch": 36,
              "velocity": 59,
              "position": 7,
              "duration": 0.010416666666666666
            },
            {
              "pitch": 38,
              "velocity": 40,
              "position": 7,
              "duration": 0.010416666666666666
            },
            {
              "pitch": 46,
              "velocity": 40,
              "position": 7,
              "duration": 0.010416666666666666
            },
            {
              "pitch": 26,
              "velocity": 30,
              "position": 7,
              "duration": 0.9895833333333334
            },
            {
              "pitch": 28,
              "velocity": 40,
              "position": 7.666666666666667,
              "duration": 0.3229166666666667
            }
          ]
        },
        "10": {
          "ctab": {
            "srcChannel": 10,
            "name": "Bass 1",
            "accType": "BASS",
            "editable": false,
            "mutedNotes": [],
            "mutedChords": [
              "sus4",
              "7aug",
              "minMaj7(9)",
              "minMaj7",
              "min(9)",
              "min",
              "aug"
            ],
            "autoStart": false,
            "sourceChordNote": 0,
            "sourceChordType": "Maj7",
            "ctb2Low": null,
            "ctb2Main": {
              "ntr": "ROOT_TRANSPOSITION",
              "ntt": "MELODY",
              "bassOn": true,
              "chordRootUpperLimit": 8,
              "noteLowLimit": 28,
              "noteHighLimit": 127,
              "rtr": "PITCH_SHIFT_TO_ROOT"
            },
            "ctb2High": null
          },
          "notes": []
        },
        "11": {
          "ctab": {
            "srcChannel": 11,
            "name": "Gt",
            "accType": "CHORD1",
            "editable": false,
            "mutedNotes": [],
            "mutedChords": [],
            "autoStart": false,
            "sourceChordNote": 0,
            "sourceChordType": "Maj7",
            "ctb2Low": null,
            "ctb2Main": {
              "ntr": "ROOT_FIXED",
              "ntt": "CHORD",
              "bassOn": false,
              "chordRootUpperLimit": 7,
              "noteLowLimit": 0,
              "noteHighLimit": 127,
              "rtr": "PITCH_SHIFT"
            },
            "ctb2High": null
          },
          "notes": []
        },
        "12": {
          "ctab": {
            "srcChannel": 12,
            "name": "Pno",
            "accType": "CHORD2",
            "editable": false,
            "mutedNotes": [],
            "mutedChords": [],
            "autoStart": false,
            "sourceChordNote": 0,
            "sourceChordType": "Maj7",
            "ctb2Low": null,
            "ctb2Main": {
              "ntr": "ROOT_FIXED",
              "ntt": "CHORD",
              "bassOn": false,
              "chordRootUpperLimit": 7,
              "noteLowLimit": 0,
              "noteHighLimit": 127,
              "rtr": "PITCH_SHIFT"
            },
            "ctb2High": null
          },
          "notes": []
        },
        "13": {
          "ctab": {
            "srcChannel": 13,
            "name": "Vib",
            "accType": "PAD",
            "editable": false,
            "mutedNotes": [],
            "mutedChords": [],
            "autoStart": false,
            "sourceChordNote": 0,
            "sourceChordType": "Maj7",
            "ctb2Low": null,
            "ctb2Main": {
              "ntr": "ROOT_FIXED",
              "ntt": "CHORD",
              "bassOn": false,
              "chordRootUpperLimit": 7,
              "noteLowLimit": 0,
              "noteHighLimit": 127,
              "rtr": "PITCH_SHIFT"
            },
            "ctb2High": null
          },
          "notes": []
        }
      }
    },
    "Fill_In_DD": {
      "type": "Fill_In_DD",
      "sizeInBeats": 4,
      "channels": {
        "1": {
          "ctab": {
            "srcChannel": 1,
            "name": "Bass 2",
            "accType": "BASS",
            "editable": false,
            "mutedNotes": [],
            "mutedChords": [
              "1+2+5",
              "1+5",
              "1+8",
              "Maj7aug",
              "7(#9)",
              "7(b13)",
              "7(b9)",
              "7(13)",
              "7#11",
              "7(9)",
              "7b5",
              "7sus4",
              "7th",
              "dim7",
              "dim",
              "min7(11)",
              "min7(9)",
              "m7b5",
              "min7",
              "min6",
              "Maj6(9)",
              "Maj7(9)",
              "Maj(9)",
              "Maj7#11",
              "Maj7",
              "Maj6",
              "Maj"
            ],
            "autoStart": false,
            "sourceChordNote": 0,
            "sourceChordType": "Maj7",
            "ctb2Low": null,
            "ctb2Main": {
              "ntr": "ROOT_TRANSPOSITION",
              "ntt": "MELODY",
              "bassOn": true,
              "chordRootUpperLimit": 8,
              "noteLowLimit": 28,
              "noteHighLimit": 127,
              "rtr": "PITCH_SHIFT_TO_ROOT"
            },
            "ctb2High": null
          },
          "notes": [
            {
              "pitch": 36,
              "velocity": 50,
              "position": 0,
              "duration": 0.8125
            },
            {
              "pitch": 24,
              "velocity": 34,
              "position": 1,
              "duration": 0.3229166666666667
            },
            {
              "pitch": 28,
              "velocity": 100,
              "position": 1.3333333333333333,
              "duration": 0.08333333333333333
            },
            {
              "pitch": 31,
              "velocity": 50,
              "position": 1.6666666666666667,
              "duration": 0.3229166666666667
            },
            {
              "pitch": 36,
              "velocity": 38,
              "position": 2,
              "duration": 0.8125
            },
            {
              "pitch": 31,
              "velocity": 50,
              "position": 3,
              "duration": 0.8125
            }
          ]
        },
        "2": {
          "ctab": {
            "srcChannel": 2,
            "name": "Gt Root",
            "accType": "CHORD1",
            "editable": false,
            "mutedNotes": [],
            "mutedChords": [
              "1+2+5",
              "sus4",
              "1+5",
              "1+8",
              "Maj7aug",
              "dim",
              "minMaj7(9)",
              "minMaj7",
              "min6",
              "min",
              "aug",
              "Maj7(9)",
              "Maj7#11",
              "Maj7",
              "Maj6",
              "Maj"
            ],
            "autoStart": false,
            "sourceChordNote": 0,
            "sourceChordType": "Maj7",
            "ctb2Low": null,
            "ctb2Main": {
              "ntr": "ROOT_TRANSPOSITION",
              "ntt": "CHORD",
              "bassOn": false,
              "chordRootUpperLimit": 6,
              "noteLowLimit": 0,
              "noteHighLimit": 127,
              "rtr": "PITCH_SHIFT"
            },
            "ctb2High": null
          },
          "notes": [
            {
              "pitch": 60,
              "velocity": 36,
              "position": 0.03125,
              "duration": 0.375
            },
            {
              "pitch": 60,
              "velocity": 36,
              "position": 1.03125,
              "duration": 0.375
            },
            {
              "pitch": 60,
              "velocity": 36,
              "position": 2.03125,
              "duration": 0.375
            },
            {
              "pitch": 60,
              "velocity": 36,
              "position": 3.03125,
              "duration": 0.375
            }
          ]
        },
        "4": {
          "ctab": {
            "srcChannel": 4,
            "name": "Vib Root",
            "accType": "PAD",
            "editable": false,
            "mutedNotes": [],
            "mutedChords": [
              "1+2+5",
              "sus4",
              "1+5",
              "1+8",
              "Maj7aug",
              "dim",
              "minMaj7(9)",
              "minMaj7",
              "min6",
              "min",
              "aug",
              "Maj7(9)",
              "Maj7#11",
              "Maj7",
              "Maj6",
              "Maj"
            ],
            "autoStart": false,
            "sourceChordNote": 0,
            "sourceChordType": "Maj7",
            "ctb2Low": null,
            "ctb2Main": {
              "ntr": "ROOT_TRANSPOSITION",
              "ntt": "CHORD",
              "bassOn": false,
              "chordRootUpperLimit": 6,
              "noteLowLimit": 0,
              "noteHighLimit": 74,
              "rtr": "PITCH_SHIFT"
            },
            "ctb2High": null
          },
          "notes": [
            {
              "pitch": 60,
              "velocity": 45,
              "position": 0,
              "duration": 1.65625
            },
            {
              "pitch": 84,
              "velocity": 45,
              "position": 1.7083333333333333,
              "duration": 1.9895833333333333
            }
          ]
        },
        "8": {
          "ctab": {
            "srcChannel": 8,
            "name": "CC_Crash",
            "accType": "RHYTHM",
            "editable": false,
            "mutedNotes": [],
            "mutedChords": [
              "1+2+5",
              "sus4",
              "1+5",
              "1+8",
              "7aug",
              "Maj7aug",
              "7(#9)",
              "7(b13)",
              "7(b9)",
              "7(13)",
              "7#11",
              "7(9)",
              "7b5",
              "7sus4",
              "7th",
              "dim7",
              "dim",
              "minMaj7(9)",
              "minMaj7",
              "min7(11)",
              "min7(9)",
              "min(9)",
              "m7b5",
              "min7",
              "min6",
              "min",
              "aug",
              "Maj6(9)",
              "Maj7(9)",
              "Maj(9)",
              "Maj7#11",
              "Maj7",
              "Maj6",
              "Maj"
            ],
            "autoStart": true,
            "sourceChordNote": 0,
            "sourceChordType": "Maj",
            "ctb2Low": null,
            "ctb2Main": {
              "ntr": "ROOT_FIXED",
              "ntt": "BYPASS",
              "bassOn": false,
              "chordRootUpperLimit": 0,
              "noteLowLimit": 0,
              "noteHighLimit": 127,
              "rtr": "RETRIGGER"
            },
            "ctb2High": null
          },
          "notes": []
        },
        "9": {
          "ctab": {
            "srcChannel": 9,
            "name": "Drums",
            "accType": "RHYTHM",
            "editable": false,
            "mutedNotes": [],
            "mutedChords": [],
            "autoStart": true,
            "sourceChordNote": 0,
            "sourceChordType": "Maj7",
            "ctb2Low": null,
            "ctb2Main": {
              "ntr": "ROOT_FIXED",
              "ntt": "BYPASS",
              "bassOn": false,
              "chordRootUpperLimit": 6,
              "noteLowLimit": 0,
              "noteHighLimit": 127,
              "rtr": "PITCH_SHIFT"
            },
            "ctb2High": null
          },
          "notes": [
            {
              "pitch": 36,
              "velocity": 59,
              "position": 0,
              "duration": 0.010416666666666666
            },
            {
              "pitch": 51,
              "velocity": 50,
              "position": 0,
              "duration": 0.010416666666666666
            },
            {
              "pitch": 28,
              "velocity": 40,
              "position": 0.3333333333333333,
              "duration": 0.3229166666666667
            },
            {
              "pitch": 40,
              "velocity": 93,
              "position": 0.6666666666666666,
              "duration": 0.010416666666666666
            },
            {
              "pitch": 26,
              "velocity": 30,
              "position": 0,
              "duration": 0.9895833333333334
            },
            {
              "pitch": 44,
              "velocity": 51,
              "position": 1,
              "duration": 0.010416666666666666
            },
            {
              "pitch": 51,
              "velocity": 50,
              "position": 1,
              "duration": 0.010416666666666666
            },
            {
              "pitch": 28,
              "velocity": 40,
              "position": 1.3333333333333333,
              "duration": 0.3229166666666667
            },
            {
              "pitch": 36,
              "velocity": 59,
              "position": 1.6666666666666667,
              "duration": 0.010416666666666666
            },
            {
              "pitch": 44,
              "velocity": 51,
              "position": 2,
              "duration": 0.010416666666666666
            },
            {
              "pitch": 47,
              "velocity": 40,
              "position": 2.3333333333333335,
              "duration": 0.010416666666666666
            },
            {
              "pitch": 47,
              "velocity": 70,
              "position": 2.6666666666666665,
              "duration": 0.010416666666666666
            },
            {
              "pitch": 44,
              "velocity": 51,
              "position": 3,
              "duration": 0.010416666666666666
            },
            {
              "pitch": 40,
              "velocity": 39,
              "position": 3.3333333333333335,
              "duration": 0.010416666666666666
            },
            {
              "pitch": 40,
              "velocity": 93,
              "position": 3.6666666666666665,
              "duration": 0.010416666666666666
            }
          ]
        },
        "10": {
          "ctab": {
            "srcChannel": 10,
            "name": "Bass 1",
            "accType": "BASS",
            "editable": false,
            "mutedNotes": [],
            "mutedChords": [
              "sus4",
              "7aug",
              "minMaj7(9)",
              "minMaj7",
              "min(9)",
              "min",
              "aug"
            ],
            "autoStart": false,
            "sourceChordNote": 0,
            "sourceChordType": "Maj7",
            "ctb2Low": null,
            "ctb2Main": {
              "ntr": "ROOT_TRANSPOSITION",
              "ntt": "MELODY",
              "bassOn": true,
              "chordRootUpperLimit": 8,
              "noteLowLimit": 28,
              "noteHighLimit": 127,
              "rtr": "PITCH_SHIFT_TO_ROOT"
            },
            "ctb2High": null
          },
          "notes": [
            {
              "pitch": 36,
              "velocity": 50,
              "position": 0,
              "duration": 0.8125
            },
            {
              "pitch": 24,
              "velocity": 34,
              "position": 1,
              "duration": 0.3229166666666667
            },
            {
              "pitch": 28,
              "velocity": 100,
              "position": 1.3333333333333333,
              "duration": 0.08333333333333333
            },
            {
              "pitch": 33,
              "velocity": 50,
              "position": 1.6666666666666667,
              "duration": 0.3333333333333333
            },
            {
              "pitch": 31,
              "velocity": 34,
              "position": 2,
              "duration": 0.8125
            },
            {
              "pitch": 28,
              "velocity": 50,
              "position": 3,
              "duration": 0.8125
            }
          ]
        },
        "11": {
          "ctab": {
            "srcChannel": 11,
            "name": "Gt",
            "accType": "CHORD1",
            "editable": false,
            "mutedNotes": [],
            "mutedChords": [],
            "autoStart": false,
            "sourceChordNote": 0,
            "sourceChordType": "Maj7",
            "ctb2Low": null,
            "ctb2Main": {
              "ntr": "ROOT_FIXED",
              "ntt": "CHORD",
              "bassOn": false,
              "chordRootUpperLimit": 7,
              "noteLowLimit": 0,
              "noteHighLimit": 127,
              "rtr": "PITCH_SHIFT"
            },
            "ctb2High": null
          },
          "notes": [
            {
              "pitch": 55,
              "velocity": 36,
              "position": 0,
              "duration": 0.375
            },
            {
              "pitch": 59,
              "velocity": 36,
              "position": 0.03125,
              "duration": 0.375
            },
            {
              "pitch": 64,
              "velocity": 36,
              "position": 0.0625,
              "duration": 0.375
            },
            {
              "pitch": 55,
              "velocity": 36,
              "position": 1,
              "duration": 0.375
            },
            {
              "pitch": 59,
              "velocity": 36,
              "position": 1.03125,
              "duration": 0.375
            },
            {
              "pitch": 64,
              "velocity": 36,
              "position": 1.0625,
              "duration": 0.375
            },
            {
              "pitch": 55,
              "velocity": 36,
              "position": 2,
              "duration": 0.375
            },
            {
              "pitch": 59,
              "velocity": 36,
              "position": 2.03125,
              "duration": 0.375
            },
            {
              "pitch": 64,
              "velocity": 36,
              "position": 2.0625,
              "duration": 0.375
            },
            {
              "pitch": 55,
              "velocity": 36,
              "position": 3,
              "duration": 0.375
            },
            {
              "pitch": 59,
              "velocity": 36,
              "position": 3.03125,
              "duration": 0.375
            },
            {
              "pitch": 64,
              "velocity": 36,
              "position": 3.0625,
              "duration": 0.375
            }
          ]
        },
        "12": {
          "ctab": {
            "srcChannel": 12,
            "name": "Pno",
            "accType": "CHORD2",
            "editable": false,
            "mutedNotes": [],
            "mutedChords": [],
            "autoStart": false,
            "sourceChordNote": 0,
            "sourceChordType": "Maj7",
            "ctb2Low": null,
            "ctb2Main": {
              "ntr": "ROOT_FIXED",
              "ntt": "CHORD",
              "bassOn": false,
              "chordRootUpperLimit": 7,
              "noteLowLimit": 0,
              "noteHighLimit": 127,
              "rtr": "PITCH_SHIFT"
            },
            "ctb2High": null
          },
          "notes": [
            {
              "pitch": 59,
              "velocity": 63,
              "position": 0.7083333333333334,
              "duration": 0.9895833333333334
            },
            {
              "pitch": 64,
              "velocity": 63,
              "position": 0.7083333333333334,
              "duration": 0.9895833333333334
            },
            {
              "pitch": 67,
              "velocity": 63,
              "position": 0.7083333333333334,
              "duration": 0.9895833333333334
            },
            {
              "pitch": 64,
              "velocity": 73,
              "position": 1.7083333333333333,
              "duration": 0.9895833333333334
            },
            {
              "pitch": 67,
              "velocity": 73,
              "position": 1.7083333333333333,
              "duration": 0.9895833333333334
            },
            {
              "pitch": 71,
              "velocity": 73,
              "position": 1.7083333333333333,
              "duration": 0.9895833333333334
            },
            {
              "pitch": 67,
              "velocity": 63,
              "position": 2.7083333333333335,
              "duration": 1.2083333333333333
            },
            {
              "pitch": 71,
              "velocity": 63,
              "position": 2.7083333333333335,
              "duration": 1.2083333333333333
            },
            {
              "pitch": 76,
              "velocity": 63,
              "position": 2.7083333333333335,
              "duration": 1.2083333333333333
            }
          ]
        },
        "13": {
          "ctab": {
            "srcChannel": 13,
            "name": "Vib",
            "accType": "PAD",
            "editable": false,
            "mutedNotes": [],
            "mutedChords": [],
            "autoStart": false,
            "sourceChordNote": 0,
            "sourceChordType": "Maj7",
            "ctb2Low": null,
            "ctb2Main": {
              "ntr": "ROOT_FIXED",
              "ntt": "CHORD",
              "bassOn": false,
              "chordRootUpperLimit": 7,
              "noteLowLimit": 0,
              "noteHighLimit": 127,
              "rtr": "PITCH_SHIFT"
            },
            "ctb2High": null
          },
          "notes": [
            {
              "pitch": 55,
              "velocity": 52,
              "position": 0,
              "duration": 1.65625
            },
            {
              "pitch": 59,
              "velocity": 52,
              "position": 0,
              "duration": 1.65625
            },
            {
              "pitch": 64,
              "velocity": 52,
              "position": 0,
              "duration": 1.65625
            },
            {
              "pitch": 64,
              "velocity": 63,
              "position": 1.7083333333333333,
              "duration": 1.9895833333333333
            },
            {
              "pitch": 67,
              "velocity": 63,
              "position": 1.7083333333333333,
              "duration": 1.9895833333333333
            },
            {
              "pitch": 71,
              "velocity": 63,
              "position": 1.7083333333333333,
              "duration": 1.9895833333333333
            }
          ]
        }
      }
    },
    "Intro_B": {
      "type": "Intro_B",
      "sizeInBeats": 16,
      "channels": {
        "0": {
          "ctab": {
            "srcChannel": 0,
            "name": "Bass Fx",
            "accType": "BASS",
            "editable": true,
            "mutedNotes": [],
            "mutedChords": [],
            "autoStart": false,
            "sourceChordNote": 0,
            "sourceChordType": "Maj7",
            "ctb2Low": null,
            "ctb2Main": {
              "ntr": "ROOT_FIXED",
              "ntt": "BYPASS",
              "bassOn": false,
              "chordRootUpperLimit": 6,
              "noteLowLimit": 0,
              "noteHighLimit": 127,
              "rtr": "PITCH_SHIFT"
            },
            "ctb2High": null
          },
          "notes": [
            {
              "pitch": 100,
              "velocity": 74,
              "position": 6.5,
              "duration": 1.4583333333333333
            },
            {
              "pitch": 106,
              "velocity": 53,
              "position": 15.760416666666666,
              "duration": 0.10416666666666667
            }
          ]
        },
        "1": {
          "ctab": {
            "srcChannel": 1,
            "name": "Bass",
            "accType": "BASS",
            "editable": false,
            "mutedNotes": [],
            "mutedChords": [
              "1+2+5",
              "sus4",
              "1+5",
              "1+8",
              "7aug",
              "Maj7aug",
              "7(#9)",
              "7(b13)",
              "7(b9)",
              "7(13)",
              "7#11",
              "7(9)",
              "7b5",
              "7sus4",
              "7th",
              "aug",
              "Maj6(9)",
              "Maj7(9)",
              "Maj(9)",
              "Maj7#11",
              "Maj7",
              "Maj6",
              "Maj"
            ],
            "autoStart": false,
            "sourceChordNote": 0,
            "sourceChordType": "min",
            "ctb2Low": null,
            "ctb2Main": {
              "ntr": "ROOT_TRANSPOSITION",
              "ntt": "BYPASS",
              "bassOn": false,
              "chordRootUpperLimit": 8,
              "noteLowLimit": 28,
              "noteHighLimit": 127,
              "rtr": "PITCH_SHIFT"
            },
            "ctb2High": null
          },
          "notes": [
            {
              "pitch": 24,
              "velocity": 50,
              "position": 0,
              "duration": 1.2083333333333333
            },
            {
              "pitch": 24,
              "velocity": 100,
              "position": 1.7083333333333333,
              "duration": 0.1875
            },
            {
              "pitch": 27,
              "velocity": 50,
              "position": 2,
              "duration": 1.2083333333333333
            },
            {
              "pitch": 27,
              "velocity": 100,
              "position": 3.7083333333333335,
              "duration": 0.1875
            },
            {
              "pitch": 29,
              "velocity": 50,
              "position": 4,
              "duration": 1.2083333333333333
            },
            {
              "pitch": 31,
              "velocity": 103,
              "position": 5.708333333333333,
              "duration": 0.3854166666666667
            },
            {
              "pitch": 36,
              "velocity": 50,
              "position": 8,
              "duration": 1.2083333333333333
            },
            {
              "pitch": 36,
              "velocity": 100,
              "position": 9.708333333333334,
              "duration": 0.1875
            },
            {
              "pitch": 27,
              "velocity": 50,
              "position": 10,
              "duration": 1.2083333333333333
            },
            {
              "pitch": 27,
              "velocity": 100,
              "position": 11.708333333333334,
              "duration": 0.1875
            },
            {
              "pitch": 29,
              "velocity": 50,
              "position": 12,
              "duration": 0.6979166666666666
            },
            {
              "pitch": 29,
              "velocity": 106,
              "position": 12.708333333333334,
              "duration": 0.13541666666666666
            },
            {
              "pitch": 32,
              "velocity": 46,
              "position": 13,
              "duration": 0.6979166666666666
            },
            {
              "pitch": 31,
              "velocity": 96,
              "position": 13.708333333333334,
              "duration": 0.34375
            },
            {
              "pitch": 31,
              "velocity": 50,
              "position": 14.708333333333334,
              "duration": 1.0729166666666667
            }
          ]
        },
        "2": {
          "ctab": {
            "srcChannel": 2,
            "name": "Gt",
            "accType": "CHORD1",
            "editable": false,
            "mutedNotes": [],
            "mutedChords": [
              "1+2+5",
              "sus4",
              "1+5",
              "1+8",
              "7aug",
              "Maj7aug",
              "7(#9)",
              "7(b13)",
              "7(b9)",
              "7(13)",
              "7#11",
              "7(9)",
              "7b5",
              "7sus4",
              "7th",
              "aug",
              "Maj6(9)",
              "Maj7(9)",
              "Maj(9)",
              "Maj7#11",
              "Maj7",
              "Maj6",
              "Maj"
            ],
            "autoStart": false,
            "sourceChordNote": 0,
            "sourceChordType": "min",
            "ctb2Low": null,
            "ctb2Main": {
              "ntr": "ROOT_TRANSPOSITION",
              "ntt": "BYPASS",
              "bassOn": false,
              "chordRootUpperLimit": 5,
              "noteLowLimit": 0,
              "noteHighLimit": 127,
              "rtr": "PITCH_SHIFT"
            },
            "ctb2High": null
          },
          "notes": [
            {
              "pitch": 66,
              "velocity": 72,
              "position": 0.052083333333333336,
              "duration": 0.4479166666666667
            },
            {
              "pitch": 67,
              "velocity": 97,
              "position": 0.6458333333333334,
              "duration": 0.40625
            },
            {
              "pitch": 66,
              "velocity": 54,
              "position": 1.0625,
              "duration": 0.4583333333333333
            },
            {
              "pitch": 67,
              "velocity": 79,
              "position": 1.6145833333333333,
              "duration": 0.34375
            },
            {
              "pitch": 63,
              "velocity": 64,
              "position": 2.03125,
              "duration": 0.90625
            },
            {
              "pitch": 60,
              "velocity": 55,
              "position": 3.03125,
              "duration": 0.6041666666666666
            },
            {
              "pitch": 55,
              "velocity": 52,
              "position": 3.6666666666666665,
              "duration": 0.1875
            },
            {
              "pitch": 57,
              "velocity": 50,
              "position": 4,
              "duration": 1.5833333333333333
            },
            {
              "pitch": 59,
              "velocity": 84,
              "position": 5.697916666666667,
              "duration": 0.4895833333333333
            },
            {
              "pitch": 66,
              "velocity": 81,
              "position": 7.697916666666667,
              "duration": 0.375
            },
            {
              "pitch": 67,
              "velocity": 97,
              "position": 8.666666666666666,
              "duration": 0.4166666666666667
            },
            {
              "pitch": 66,
              "velocity": 47,
              "position": 9.125,
              "duration": 0.3958333333333333
            },
            {
              "pitch": 67,
              "velocity": 79,
              "position": 9.677083333333334,
              "duration": 0.3645833333333333
            },
            {
              "pitch": 63,
              "velocity": 57,
              "position": 10.052083333333334,
              "duration": 0.84375
            },
            {
              "pitch": 60,
              "velocity": 55,
              "position": 11.020833333333334,
              "duration": 0.5208333333333334
            },
            {
              "pitch": 55,
              "velocity": 46,
              "position": 11.677083333333334,
              "duration": 0.1875
            },
            {
              "pitch": 57,
              "velocity": 79,
              "position": 11.979166666666666,
              "duration": 0.9375
            },
            {
              "pitch": 60,
              "velocity": 44,
              "position": 13.03125,
              "duration": 0.6145833333333334
            },
            {
              "pitch": 59,
              "velocity": 79,
              "position": 13.71875,
              "duration": 0.3020833333333333
            }
          ]
        },
        "3": {
          "ctab": {
            "srcChannel": 3,
            "name": "Pno",
            "accType": "CHORD2",
            "editable": false,
            "mutedNotes": [],
            "mutedChords": [
              "1+2+5",
              "sus4",
              "1+5",
              "1+8",
              "7aug",
              "Maj7aug",
              "7(#9)",
              "7(b13)",
              "7(b9)",
              "7(13)",
              "7#11",
              "7(9)",
              "7b5",
              "7sus4",
              "7th",
              "aug",
              "Maj6(9)",
              "Maj7(9)",
              "Maj(9)",
              "Maj7#11",
              "Maj7",
              "Maj6",
              "Maj"
            ],
            "autoStart": false,
            "sourceChordNote": 0,
            "sourceChordType": "min",
            "ctb2Low": null,
            "ctb2Main": {
              "ntr": "ROOT_TRANSPOSITION",
              "ntt": "BYPASS",
              "bassOn": false,
              "chordRootUpperLimit": 3,
              "noteLowLimit": 0,
              "noteHighLimit": 127,
              "rtr": "PITCH_SHIFT"
            },
            "ctb2High": null
          },
          "notes": [
            {
              "pitch": 71,
              "velocity": 65,
              "position": 0.052083333333333336,
              "duration": 0.4166666666666667
            },
            {
              "pitch": 66,
              "velocity": 67,
              "position": 0.052083333333333336,
              "duration": 0.4583333333333333
            },
            {
              "pitch": 68,
              "velocity": 66,
              "position": 0.041666666666666664,
              "duration": 0.4791666666666667
            },
            {
              "pitch": 78,
              "velocity": 99,
              "position": 0.041666666666666664,
              "duration": 0.4895833333333333
            },
            {
              "pitch": 74,
              "velocity": 64,
              "position": 0.052083333333333336,
              "duration": 0.4895833333333333
            },
            {
              "pitch": 69,
              "velocity": 82,
              "position": 0.6354166666666666,
              "duration": 0.22916666666666666
            },
            {
              "pitch": 67,
              "velocity": 77,
              "position": 0.6354166666666666,
              "duration": 0.2604166666666667
            },
            {
              "pitch": 72,
              "velocity": 83,
              "position": 0.6354166666666666,
              "duration": 0.28125
            },
            {
              "pitch": 75,
              "velocity": 89,
              "position": 0.6354166666666666,
              "duration": 0.2916666666666667
            },
            {
              "pitch": 79,
              "velocity": 97,
              "position": 0.6354166666666666,
              "duration": 0.2916666666666667
            },
            {
              "pitch": 71,
              "velocity": 67,
              "position": 1.0208333333333333,
              "duration": 0.5104166666666666
            },
            {
              "pitch": 74,
              "velocity": 64,
              "position": 1.0208333333333333,
              "duration": 0.5208333333333334
            },
            {
              "pitch": 68,
              "velocity": 73,
              "position": 1.0416666666666667,
              "duration": 0.5
            },
            {
              "pitch": 78,
              "velocity": 71,
              "position": 1.03125,
              "duration": 0.5208333333333334
            },
            {
              "pitch": 66,
              "velocity": 86,
              "position": 1.03125,
              "duration": 0.53125
            },
            {
              "pitch": 71,
              "velocity": 65,
              "position": 1.625,
              "duration": 0.16666666666666666
            },
            {
              "pitch": 69,
              "velocity": 74,
              "position": 1.625,
              "duration": 0.19791666666666666
            },
            {
              "pitch": 75,
              "velocity": 82,
              "position": 1.6145833333333333,
              "duration": 0.2604166666666667
            },
            {
              "pitch": 67,
              "velocity": 90,
              "position": 1.6354166666666667,
              "duration": 0.23958333333333334
            },
            {
              "pitch": 79,
              "velocity": 94,
              "position": 1.6145833333333333,
              "duration": 0.3020833333333333
            },
            {
              "pitch": 67,
              "velocity": 60,
              "position": 2.0416666666666665,
              "duration": 0.9375
            },
            {
              "pitch": 69,
              "velocity": 60,
              "position": 2.0416666666666665,
              "duration": 0.9375
            },
            {
              "pitch": 72,
              "velocity": 75,
              "position": 2.0416666666666665,
              "duration": 0.9375
            },
            {
              "pitch": 63,
              "velocity": 56,
              "position": 2.0416666666666665,
              "duration": 0.9479166666666666
            },
            {
              "pitch": 75,
              "velocity": 94,
              "position": 2.0520833333333335,
              "duration": 0.9375
            },
            {
              "pitch": 69,
              "velocity": 82,
              "position": 3.0104166666666665,
              "duration": 0.625
            },
            {
              "pitch": 72,
              "velocity": 100,
              "position": 3.0104166666666665,
              "duration": 0.625
            },
            {
              "pitch": 60,
              "velocity": 64,
              "position": 3.0208333333333335,
              "duration": 0.6145833333333334
            },
            {
              "pitch": 63,
              "velocity": 64,
              "position": 3.0208333333333335,
              "duration": 0.6145833333333334
            },
            {
              "pitch": 67,
              "velocity": 60,
              "position": 3.0208333333333335,
              "duration": 0.6145833333333334
            },
            {
              "pitch": 60,
              "velocity": 52,
              "position": 3.6666666666666665,
              "duration": 0.20833333333333334
            },
            {
              "pitch": 63,
              "velocity": 64,
              "position": 3.6458333333333335,
              "duration": 0.2916666666666667
            },
            {
              "pitch": 67,
              "velocity": 74,
              "position": 3.6458333333333335,
              "duration": 0.2916666666666667
            },
            {
              "pitch": 57,
              "velocity": 63,
              "position": 3.6666666666666665,
              "duration": 0.28125
            },
            {
              "pitch": 55,
              "velocity": 59,
              "position": 3.6666666666666665,
              "duration": 0.3125
            },
            {
              "pitch": 63,
              "velocity": 74,
              "position": 4.041666666666667,
              "duration": 1.4895833333333333
            },
            {
              "pitch": 60,
              "velocity": 68,
              "position": 4.020833333333333,
              "duration": 1.5208333333333333
            },
            {
              "pitch": 69,
              "velocity": 89,
              "position": 4.041666666666667,
              "duration": 1.5208333333333333
            },
            {
              "pitch": 67,
              "velocity": 87,
              "position": 4.03125,
              "duration": 1.5520833333333333
            },
            {
              "pitch": 57,
              "velocity": 64,
              "position": 4.03125,
              "duration": 1.65625
            },
            {
              "pitch": 65,
              "velocity": 90,
              "position": 5.729166666666667,
              "duration": 0.34375
            },
            {
              "pitch": 59,
              "velocity": 68,
              "position": 5.729166666666667,
              "duration": 0.3541666666666667
            },
            {
              "pitch": 62,
              "velocity": 69,
              "position": 5.729166666666667,
              "duration": 0.3541666666666667
            },
            {
              "pitch": 69,
              "velocity": 89,
              "position": 5.739583333333333,
              "duration": 0.34375
            },
            {
              "pitch": 71,
              "velocity": 94,
              "position": 5.729166666666667,
              "duration": 0.3854166666666667
            },
            {
              "pitch": 71,
              "velocity": 83,
              "position": 7.708333333333333,
              "duration": 0.28125
            },
            {
              "pitch": 66,
              "velocity": 77,
              "position": 7.697916666666667,
              "duration": 0.3020833333333333
            },
            {
              "pitch": 68,
              "velocity": 87,
              "position": 7.697916666666667,
              "duration": 0.3020833333333333
            },
            {
              "pitch": 74,
              "velocity": 77,
              "position": 7.677083333333333,
              "duration": 0.3541666666666667
            },
            {
              "pitch": 78,
              "velocity": 102,
              "position": 7.6875,
              "duration": 0.34375
            },
            {
              "pitch": 69,
              "velocity": 73,
              "position": 8.666666666666666,
              "duration": 0.22916666666666666
            },
            {
              "pitch": 67,
              "velocity": 74,
              "position": 8.666666666666666,
              "duration": 0.25
            },
            {
              "pitch": 72,
              "velocity": 67,
              "position": 8.666666666666666,
              "duration": 0.2708333333333333
            },
            {
              "pitch": 79,
              "velocity": 102,
              "position": 8.65625,
              "duration": 0.3229166666666667
            },
            {
              "pitch": 75,
              "velocity": 92,
              "position": 8.666666666666666,
              "duration": 0.3229166666666667
            },
            {
              "pitch": 66,
              "velocity": 77,
              "position": 9.0625,
              "duration": 0.46875
            },
            {
              "pitch": 71,
              "velocity": 64,
              "position": 9.0625,
              "duration": 0.46875
            },
            {
              "pitch": 68,
              "velocity": 80,
              "position": 9.0625,
              "duration": 0.4895833333333333
            },
            {
              "pitch": 78,
              "velocity": 70,
              "position": 9.083333333333334,
              "duration": 0.4791666666666667
            },
            {
              "pitch": 74,
              "velocity": 64,
              "position": 9.083333333333334,
              "duration": 0.4895833333333333
            },
            {
              "pitch": 67,
              "velocity": 66,
              "position": 9.645833333333334,
              "duration": 0.22916666666666666
            },
            {
              "pitch": 72,
              "velocity": 75,
              "position": 9.635416666666666,
              "duration": 0.25
            },
            {
              "pitch": 75,
              "velocity": 83,
              "position": 9.645833333333334,
              "duration": 0.25
            },
            {
              "pitch": 69,
              "velocity": 75,
              "position": 9.645833333333334,
              "duration": 0.2708333333333333
            },
            {
              "pitch": 79,
              "velocity": 87,
              "position": 9.635416666666666,
              "duration": 0.3229166666666667
            },
            {
              "pitch": 63,
              "velocity": 60,
              "position": 10.03125,
              "duration": 0.9375
            },
            {
              "pitch": 67,
              "velocity": 63,
              "position": 10.03125,
              "duration": 0.9375
            },
            {
              "pitch": 69,
              "velocity": 69,
              "position": 10.041666666666666,
              "duration": 0.9270833333333334
            },
            {
              "pitch": 72,
              "velocity": 66,
              "position": 10.041666666666666,
              "duration": 0.9270833333333334
            },
            {
              "pitch": 75,
              "velocity": 87,
              "position": 10.041666666666666,
              "duration": 0.9270833333333334
            },
            {
              "pitch": 63,
              "velocity": 64,
              "position": 11.020833333333334,
              "duration": 0.65625
            },
            {
              "pitch": 67,
              "velocity": 64,
              "position": 11.020833333333334,
              "duration": 0.65625
            },
            {
              "pitch": 69,
              "velocity": 75,
              "position": 11.020833333333334,
              "duration": 0.65625
            },
            {
              "pitch": 60,
              "velocity": 60,
              "position": 11.03125,
              "duration": 0.6458333333333334
            },
            {
              "pitch": 72,
              "velocity": 96,
              "position": 11.03125,
              "duration": 0.6458333333333334
            },
            {
              "pitch": 60,
              "velocity": 51,
              "position": 11.6875,
              "duration": 0.20833333333333334
            },
            {
              "pitch": 57,
              "velocity": 64,
              "position": 11.6875,
              "duration": 0.28125
            },
            {
              "pitch": 55,
              "velocity": 51,
              "position": 11.697916666666666,
              "duration": 0.28125
            },
            {
              "pitch": 67,
              "velocity": 76,
              "position": 11.6875,
              "duration": 0.3125
            },
            {
              "pitch": 63,
              "velocity": 63,
              "position": 11.697916666666666,
              "duration": 0.3020833333333333
            },
            {
              "pitch": 60,
              "velocity": 78,
              "position": 12.03125,
              "duration": 0.9375
            },
            {
              "pitch": 63,
              "velocity": 89,
              "position": 12.03125,
              "duration": 0.9479166666666666
            },
            {
              "pitch": 67,
              "velocity": 92,
              "position": 12.03125,
              "duration": 0.9479166666666666
            },
            {
              "pitch": 69,
              "velocity": 96,
              "position": 12.041666666666666,
              "duration": 0.9375
            },
            {
              "pitch": 57,
              "velocity": 73,
              "position": 12.03125,
              "duration": 0.9583333333333334
            },
            {
              "pitch": 60,
              "velocity": 74,
              "position": 13.03125,
              "duration": 0.5625
            },
            {
              "pitch": 69,
              "velocity": 78,
              "position": 13.03125,
              "duration": 0.5625
            },
            {
              "pitch": 72,
              "velocity": 96,
              "position": 13.020833333333334,
              "duration": 0.5833333333333334
            },
            {
              "pitch": 67,
              "velocity": 82,
              "position": 13.03125,
              "duration": 0.5729166666666666
            },
            {
              "pitch": 63,
              "velocity": 74,
              "position": 13.041666666666666,
              "duration": 0.5729166666666666
            },
            {
              "pitch": 62,
              "velocity": 82,
              "position": 13.666666666666666,
              "duration": 0.3541666666666667
            },
            {
              "pitch": 59,
              "velocity": 78,
              "position": 13.6875,
              "duration": 0.3333333333333333
            },
            {
              "pitch": 71,
              "velocity": 90,
              "position": 13.6875,
              "duration": 0.3333333333333333
            },
            {
              "pitch": 65,
              "velocity": 83,
              "position": 13.697916666666666,
              "duration": 0.3229166666666667
            },
            {
              "pitch": 69,
              "velocity": 73,
              "position": 13.697916666666666,
              "duration": 0.3229166666666667
            },
            {
              "pitch": 43,
              "velocity": 107,
              "position": 14.71875,
              "duration": 1.0520833333333333
            }
          ]
        },
        "4": {
          "ctab": {
            "srcChannel": 4,
            "name": "Vib",
            "accType": "PAD",
            "editable": false,
            "mutedNotes": [],
            "mutedChords": [
              "1+2+5",
              "sus4",
              "1+5",
              "1+8",
              "7aug",
              "Maj7aug",
              "7(#9)",
              "7(b13)",
              "7(b9)",
              "7(13)",
              "7#11",
              "7(9)",
              "7b5",
              "7sus4",
              "7th",
              "aug",
              "Maj6(9)",
              "Maj7(9)",
              "Maj(9)",
              "Maj7#11",
              "Maj7",
              "Maj6",
              "Maj"
            ],
            "autoStart": false,
            "sourceChordNote": 0,
            "sourceChordType": "min",
            "ctb2Low": null,
            "ctb2Main": {
              "ntr": "ROOT_TRANSPOSITION",
              "ntt": "BYPASS",
              "bassOn": false,
              "chordRootUpperLimit": 3,
              "noteLowLimit": 0,
              "noteHighLimit": 127,
              "rtr": "PITCH_SHIFT"
            },
            "ctb2High": null
          },
          "notes": [
            {
              "pitch": 78,
              "velocity": 69,
              "position": 0.07291666666666667,
              "duration": 0.4166666666666667
            },
            {
              "pitch": 79,
              "velocity": 78,
              "position": 0.6458333333333334,
              "duration": 0.3229166666666667
            },
            {
              "pitch": 78,
              "velocity": 69,
              "position": 1.0625,
              "duration": 0.5416666666666666
            },
            {
              "pitch": 79,
              "velocity": 73,
              "position": 1.625,
              "duration": 0.3229166666666667
            },
            {
              "pitch": 75,
              "velocity": 69,
              "position": 2.0416666666666665,
              "duration": 0.9270833333333334
            },
            {
              "pitch": 72,
              "velocity": 65,
              "position": 3.0625,
              "duration": 0.5833333333333334
            },
            {
              "pitch": 67,
              "velocity": 52,
              "position": 3.7291666666666665,
              "duration": 0.25
            },
            {
              "pitch": 69,
              "velocity": 78,
              "position": 4.052083333333333,
              "duration": 1.5520833333333333
            },
            {
              "pitch": 71,
              "velocity": 82,
              "position": 5.71875,
              "duration": 0.4270833333333333
            },
            {
              "pitch": 78,
              "velocity": 76,
              "position": 7.6875,
              "duration": 0.3958333333333333
            },
            {
              "pitch": 79,
              "velocity": 88,
              "position": 8.697916666666666,
              "duration": 0.3333333333333333
            },
            {
              "pitch": 78,
              "velocity": 51,
              "position": 9.083333333333334,
              "duration": 0.4583333333333333
            },
            {
              "pitch": 79,
              "velocity": 84,
              "position": 9.666666666666666,
              "duration": 0.2916666666666667
            },
            {
              "pitch": 75,
              "velocity": 73,
              "position": 10.072916666666666,
              "duration": 0.8229166666666666
            },
            {
              "pitch": 72,
              "velocity": 60,
              "position": 11,
              "duration": 0.6041666666666666
            },
            {
              "pitch": 67,
              "velocity": 44,
              "position": 11.697916666666666,
              "duration": 0.22916666666666666
            },
            {
              "pitch": 69,
              "velocity": 78,
              "position": 12.020833333333334,
              "duration": 0.96875
            },
            {
              "pitch": 72,
              "velocity": 51,
              "position": 13.072916666666666,
              "duration": 0.53125
            },
            {
              "pitch": 71,
              "velocity": 76,
              "position": 13.71875,
              "duration": 0.375
            }
          ]
        },
        "9": {
          "ctab": {
            "srcChannel": 9,
            "name": "Drums",
            "accType": "RHYTHM",
            "editable": false,
            "mutedNotes": [],
            "mutedChords": [],
            "autoStart": true,
            "sourceChordNote": 0,
            "sourceChordType": "Maj7",
            "ctb2Low": null,
            "ctb2Main": {
              "ntr": "ROOT_FIXED",
              "ntt": "BYPASS",
              "bassOn": false,
              "chordRootUpperLimit": 6,
              "noteLowLimit": 0,
              "noteHighLimit": 127,
              "rtr": "PITCH_SHIFT"
            },
            "ctb2High": null
          },
          "notes": [
            {
              "pitch": 40,
              "velocity": 13,
              "position": 0,
              "duration": 0.010416666666666666
            },
            {
              "pitch": 26,
              "velocity": 30,
              "position": 0,
              "duration": 0.9895833333333334
            },
            {
              "pitch": 38,
              "velocity": 40,
              "position": 1,
              "duration": 0.010416666666666666
            },
            {
              "pitch": 44,
              "velocity": 51,
              "position": 1,
              "duration": 0.010416666666666666
            },
            {
              "pitch": 26,
              "velocity": 30,
              "position": 1,
              "duration": 0.9895833333333334
            },
            {
              "pitch": 28,
              "velocity": 40,
              "position": 1.6666666666666667,
              "duration": 0.3229166666666667
            },
            {
              "pitch": 40,
              "velocity": 13,
              "position": 2,
              "duration": 0.010416666666666666
            },
            {
              "pitch": 26,
              "velocity": 30,
              "position": 2,
              "duration": 0.9895833333333334
            },
            {
              "pitch": 38,
              "velocity": 40,
              "position": 3,
              "duration": 0.010416666666666666
            },
            {
              "pitch": 44,
              "velocity": 51,
              "position": 3,
              "duration": 0.010416666666666666
            },
            {
              "pitch": 26,
              "velocity": 30,
              "position": 3,
              "duration": 0.9895833333333334
            },
            {
              "pitch": 28,
              "velocity": 40,
              "position": 3.6666666666666665,
              "duration": 0.3229166666666667
            },
            {
              "pitch": 40,
              "velocity": 13,
              "position": 4,
              "duration": 0.010416666666666666
            },
            {
              "pitch": 26,
              "velocity": 30,
              "position": 4,
              "duration": 0.9895833333333334
            },
            {
              "pitch": 38,
              "velocity": 40,
              "position": 5,
              "duration": 0.010416666666666666
            },
            {
              "pitch": 44,
              "velocity": 51,
              "position": 5,
              "duration": 0.010416666666666666
            },
            {
              "pitch": 28,
              "velocity": 40,
              "position": 5.333333333333333,
              "duration": 0.3229166666666667
            },
            {
              "pitch": 40,
              "velocity": 93,
              "position": 5.666666666666667,
              "duration": 0.010416666666666666
            },
            {
              "pitch": 26,
              "velocity": 30,
              "position": 5,
              "duration": 0.9895833333333334
            },
            {
              "pitch": 26,
              "velocity": 30,
              "position": 6,
              "duration": 0.3229166666666667
            },
            {
              "pitch": 38,
              "velocity": 20,
              "position": 6.333333333333333,
              "duration": 0.010416666666666666
            },
            {
              "pitch": 38,
              "velocity": 40,
              "position": 6.5,
              "duration": 0.010416666666666666
            },
            {
              "pitch": 40,
              "velocity": 93,
              "position": 6.666666666666667,
              "duration": 0.010416666666666666
            },
            {
              "pitch": 44,
              "velocity": 51,
              "position": 7,
              "duration": 0.010416666666666666
            },
            {
              "pitch": 28,
              "velocity": 40,
              "position": 7.333333333333333,
              "duration": 0.3229166666666667
            },
            {
              "pitch": 40,
              "velocity": 93,
              "position": 7.666666666666667,
              "duration": 0.010416666666666666
            },
            {
              "pitch": 40,
              "velocity": 13,
              "position": 8,
              "duration": 0.010416666666666666
            },
            {
              "pitch": 28,
              "velocity": 40,
              "position": 8.333333333333334,
              "duration": 0.3229166666666667
            },
            {
              "pitch": 40,
              "velocity": 93,
              "position": 8.666666666666666,
              "duration": 0.010416666666666666
            },
            {
              "pitch": 26,
              "velocity": 30,
              "position": 8,
              "duration": 0.9895833333333334
            },
            {
              "pitch": 38,
              "velocity": 40,
              "position": 9,
              "duration": 0.010416666666666666
            },
            {
              "pitch": 44,
              "velocity": 51,
              "position": 9,
              "duration": 0.010416666666666666
            },
            {
              "pitch": 26,
              "velocity": 30,
              "position": 9,
              "duration": 0.9895833333333334
            },
            {
              "pitch": 28,
              "velocity": 40,
              "position": 9.666666666666666,
              "duration": 0.3229166666666667
            },
            {
              "pitch": 40,
              "velocity": 13,
              "position": 10,
              "duration": 0.010416666666666666
            },
            {
              "pitch": 26,
              "velocity": 30,
              "position": 10,
              "duration": 0.9895833333333334
            },
            {
              "pitch": 38,
              "velocity": 40,
              "position": 11,
              "duration": 0.010416666666666666
            },
            {
              "pitch": 44,
              "velocity": 51,
              "position": 11,
              "duration": 0.010416666666666666
            },
            {
              "pitch": 26,
              "velocity": 30,
              "position": 11,
              "duration": 0.9895833333333334
            },
            {
              "pitch": 28,
              "velocity": 40,
              "position": 11.666666666666666,
              "duration": 0.3229166666666667
            },
            {
              "pitch": 40,
              "velocity": 13,
              "position": 12,
              "duration": 0.010416666666666666
            },
            {
              "pitch": 38,
              "velocity": 20,
              "position": 12.666666666666666,
              "duration": 0.010416666666666666
            },
            {
              "pitch": 38,
              "velocity": 40,
              "position": 12.833333333333334,
              "duration": 0.010416666666666666
            },
            {
              "pitch": 26,
              "velocity": 30,
              "position": 12,
              "duration": 0.9895833333333334
            },
            {
              "pitch": 40,
              "velocity": 93,
              "position": 13,
              "duration": 0.010416666666666666
            },
            {
              "pitch": 44,
              "velocity": 51,
              "position": 13,
              "duration": 0.010416666666666666
            },
            {
              "pitch": 40,
              "velocity": 93,
              "position": 13.666666666666666,
              "duration": 0.010416666666666666
            },
            {
              "pitch": 46,
              "velocity": 40,
              "position": 13.666666666666666,
              "duration": 0.010416666666666666
            },
            {
              "pitch": 44,
              "velocity": 51,
              "position": 14,
              "duration": 0.010416666666666666
            },
            {
              "pitch": 36,
              "velocity": 60,
              "position": 14.666666666666666,
              "duration": 0.010416666666666666
            },
            {
              "pitch": 46,
              "velocity": 40,
              "position": 14.666666666666666,
              "duration": 0.010416666666666666
            }
          ]
        },
        "10": {
          "ctab": {
            "srcChannel": 10,
            "name": "Bass",
            "accType": "BASS",
            "editable": false,
            "mutedNotes": [],
            "mutedChords": [
              "dim7",
              "dim",
              "minMaj7(9)",
              "minMaj7",
              "min7(11)",
              "min7(9)",
              "min(9)",
              "m7b5",
              "min7",
              "min6",
              "min"
            ],
            "autoStart": false,
            "sourceChordNote": 0,
            "sourceChordType": "Maj",
            "ctb2Low": null,
            "ctb2Main": {
              "ntr": "ROOT_TRANSPOSITION",
              "ntt": "BYPASS",
              "bassOn": false,
              "chordRootUpperLimit": 8,
              "noteLowLimit": 28,
              "noteHighLimit": 127,
              "rtr": "PITCH_SHIFT"
            },
            "ctb2High": null
          },
          "notes": [
            {
              "pitch": 24,
              "velocity": 50,
              "position": 0,
              "duration": 1.2083333333333333
            },
            {
              "pitch": 24,
              "velocity": 100,
              "position": 1.7083333333333333,
              "duration": 0.1875
            },
            {
              "pitch": 33,
              "velocity": 50,
              "position": 2,
              "duration": 1.2083333333333333
            },
            {
              "pitch": 33,
              "velocity": 100,
              "position": 3.7083333333333335,
              "duration": 0.1875
            },
            {
              "pitch": 26,
              "velocity": 50,
              "position": 4,
              "duration": 1.2083333333333333
            },
            {
              "pitch": 31,
              "velocity": 110,
              "position": 5.708333333333333,
              "duration": 0.3854166666666667
            },
            {
              "pitch": 24,
              "velocity": 50,
              "position": 8,
              "duration": 1.2083333333333333
            },
            {
              "pitch": 24,
              "velocity": 100,
              "position": 9.708333333333334,
              "duration": 0.1875
            },
            {
              "pitch": 33,
              "velocity": 50,
              "position": 10,
              "duration": 1.2083333333333333
            },
            {
              "pitch": 33,
              "velocity": 100,
              "position": 11.708333333333334,
              "duration": 0.1875
            },
            {
              "pitch": 26,
              "velocity": 50,
              "position": 12,
              "duration": 0.6979166666666666
            },
            {
              "pitch": 26,
              "velocity": 108,
              "position": 12.708333333333334,
              "duration": 0.13541666666666666
            },
            {
              "pitch": 32,
              "velocity": 34,
              "position": 13,
              "duration": 0.6979166666666666
            },
            {
              "pitch": 31,
              "velocity": 110,
              "position": 13.708333333333334,
              "duration": 0.34375
            },
            {
              "pitch": 31,
              "velocity": 50,
              "position": 14.708333333333334,
              "duration": 1.0729166666666667
            }
          ]
        },
        "11": {
          "ctab": {
            "srcChannel": 11,
            "name": "Gt",
            "accType": "CHORD1",
            "editable": false,
            "mutedNotes": [],
            "mutedChords": [
              "dim7",
              "dim",
              "minMaj7(9)",
              "minMaj7",
              "min7(11)",
              "min7(9)",
              "min(9)",
              "m7b5",
              "min7",
              "min6",
              "min"
            ],
            "autoStart": false,
            "sourceChordNote": 0,
            "sourceChordType": "Maj",
            "ctb2Low": null,
            "ctb2Main": {
              "ntr": "ROOT_TRANSPOSITION",
              "ntt": "BYPASS",
              "bassOn": false,
              "chordRootUpperLimit": 5,
              "noteLowLimit": 0,
              "noteHighLimit": 127,
              "rtr": "PITCH_SHIFT"
            },
            "ctb2High": null
          },
          "notes": [
            {
              "pitch": 63,
              "velocity": 62,
              "position": 0.052083333333333336,
              "duration": 0.4479166666666667
            },
            {
              "pitch": 64,
              "velocity": 87,
              "position": 0.6458333333333334,
              "duration": 0.40625
            },
            {
              "pitch": 63,
              "velocity": 44,
              "position": 1.0625,
              "duration": 0.4583333333333333
            },
            {
              "pitch": 64,
              "velocity": 69,
              "position": 1.6145833333333333,
              "duration": 0.34375
            },
            {
              "pitch": 60,
              "velocity": 54,
              "position": 2.03125,
              "duration": 0.90625
            },
            {
              "pitch": 57,
              "velocity": 45,
              "position": 3.03125,
              "duration": 0.6041666666666666
            },
            {
              "pitch": 55,
              "velocity": 42,
              "position": 3.6875,
              "duration": 0.16666666666666666
            },
            {
              "pitch": 60,
              "velocity": 40,
              "position": 4,
              "duration": 1.5833333333333333
            },
            {
              "pitch": 62,
              "velocity": 74,
              "position": 5.697916666666667,
              "duration": 0.4895833333333333
            },
            {
              "pitch": 63,
              "velocity": 71,
              "position": 7.697916666666667,
              "duration": 0.375
            },
            {
              "pitch": 64,
              "velocity": 87,
              "position": 8.666666666666666,
              "duration": 0.4166666666666667
            },
            {
              "pitch": 63,
              "velocity": 37,
              "position": 9.125,
              "duration": 0.3958333333333333
            },
            {
              "pitch": 64,
              "velocity": 69,
              "position": 9.677083333333334,
              "duration": 0.3645833333333333
            },
            {
              "pitch": 60,
              "velocity": 47,
              "position": 10.052083333333334,
              "duration": 0.84375
            },
            {
              "pitch": 57,
              "velocity": 45,
              "position": 11.020833333333334,
              "duration": 0.5208333333333334
            },
            {
              "pitch": 55,
              "velocity": 36,
              "position": 11.677083333333334,
              "duration": 0.1875
            },
            {
              "pitch": 60,
              "velocity": 69,
              "position": 11.979166666666666,
              "duration": 0.9375
            },
            {
              "pitch": 63,
              "velocity": 34,
              "position": 13.03125,
              "duration": 0.6145833333333334
            },
            {
              "pitch": 62,
              "velocity": 69,
              "position": 13.71875,
              "duration": 0.3020833333333333
            }
          ]
        },
        "12": {
          "ctab": {
            "srcChannel": 12,
            "name": "Pno",
            "accType": "CHORD2",
            "editable": false,
            "mutedNotes": [],
            "mutedChords": [
              "dim7",
              "dim",
              "minMaj7(9)",
              "minMaj7",
              "min7(11)",
              "min7(9)",
              "min(9)",
              "m7b5",
              "min7",
              "min6",
              "min"
            ],
            "autoStart": false,
            "sourceChordNote": 0,
            "sourceChordType": "Maj",
            "ctb2Low": null,
            "ctb2Main": {
              "ntr": "ROOT_TRANSPOSITION",
              "ntt": "BYPASS",
              "bassOn": false,
              "chordRootUpperLimit": 3,
              "noteLowLimit": 0,
              "noteHighLimit": 127,
              "rtr": "PITCH_SHIFT"
            },
            "ctb2High": null
          },
          "notes": [
            {
              "pitch": 68,
              "velocity": 65,
              "position": 0.052083333333333336,
              "duration": 0.4166666666666667
            },
            {
              "pitch": 63,
              "velocity": 67,
              "position": 0.052083333333333336,
              "duration": 0.4583333333333333
            },
            {
              "pitch": 66,
              "velocity": 66,
              "position": 0.041666666666666664,
              "duration": 0.4791666666666667
            },
            {
              "pitch": 75,
              "velocity": 92,
              "position": 0.041666666666666664,
              "duration": 0.4895833333333333
            },
            {
              "pitch": 71,
              "velocity": 64,
              "position": 0.052083333333333336,
              "duration": 0.4895833333333333
            },
            {
              "pitch": 67,
              "velocity": 82,
              "position": 0.6354166666666666,
              "duration": 0.22916666666666666
            },
            {
              "pitch": 64,
              "velocity": 77,
              "position": 0.6354166666666666,
              "duration": 0.2604166666666667
            },
            {
              "pitch": 69,
              "velocity": 83,
              "position": 0.6354166666666666,
              "duration": 0.28125
            },
            {
              "pitch": 72,
              "velocity": 89,
              "position": 0.6354166666666666,
              "duration": 0.2916666666666667
            },
            {
              "pitch": 76,
              "velocity": 90,
              "position": 0.6354166666666666,
              "duration": 0.2916666666666667
            },
            {
              "pitch": 68,
              "velocity": 67,
              "position": 1.0208333333333333,
              "duration": 0.5104166666666666
            },
            {
              "pitch": 71,
              "velocity": 64,
              "position": 1.0208333333333333,
              "duration": 0.5208333333333334
            },
            {
              "pitch": 66,
              "velocity": 73,
              "position": 1.0416666666666667,
              "duration": 0.5
            },
            {
              "pitch": 75,
              "velocity": 64,
              "position": 1.03125,
              "duration": 0.5208333333333334
            },
            {
              "pitch": 63,
              "velocity": 86,
              "position": 1.03125,
              "duration": 0.53125
            },
            {
              "pitch": 68,
              "velocity": 65,
              "position": 1.625,
              "duration": 0.16666666666666666
            },
            {
              "pitch": 69,
              "velocity": 74,
              "position": 1.625,
              "duration": 0.19791666666666666
            },
            {
              "pitch": 66,
              "velocity": 60,
              "position": 1.6354166666666667,
              "duration": 0.19791666666666666
            },
            {
              "pitch": 72,
              "velocity": 82,
              "position": 1.6145833333333333,
              "duration": 0.2604166666666667
            },
            {
              "pitch": 64,
              "velocity": 90,
              "position": 1.6354166666666667,
              "duration": 0.23958333333333334
            },
            {
              "pitch": 76,
              "velocity": 87,
              "position": 1.6145833333333333,
              "duration": 0.3020833333333333
            },
            {
              "pitch": 64,
              "velocity": 60,
              "position": 2.0416666666666665,
              "duration": 0.9375
            },
            {
              "pitch": 67,
              "velocity": 60,
              "position": 2.0416666666666665,
              "duration": 0.9375
            },
            {
              "pitch": 69,
              "velocity": 75,
              "position": 2.0416666666666665,
              "duration": 0.9375
            },
            {
              "pitch": 60,
              "velocity": 56,
              "position": 2.0416666666666665,
              "duration": 0.9479166666666666
            },
            {
              "pitch": 72,
              "velocity": 87,
              "position": 2.0520833333333335,
              "duration": 0.9375
            },
            {
              "pitch": 67,
              "velocity": 82,
              "position": 3.0104166666666665,
              "duration": 0.625
            },
            {
              "pitch": 69,
              "velocity": 93,
              "position": 3.0104166666666665,
              "duration": 0.625
            },
            {
              "pitch": 57,
              "velocity": 64,
              "position": 3.0208333333333335,
              "duration": 0.6145833333333334
            },
            {
              "pitch": 60,
              "velocity": 64,
              "position": 3.0208333333333335,
              "duration": 0.6145833333333334
            },
            {
              "pitch": 64,
              "velocity": 60,
              "position": 3.0208333333333335,
              "duration": 0.6145833333333334
            },
            {
              "pitch": 60,
              "velocity": 52,
              "position": 3.6666666666666665,
              "duration": 0.20833333333333334
            },
            {
              "pitch": 64,
              "velocity": 64,
              "position": 3.6458333333333335,
              "duration": 0.2916666666666667
            },
            {
              "pitch": 67,
              "velocity": 67,
              "position": 3.6458333333333335,
              "duration": 0.2916666666666667
            },
            {
              "pitch": 57,
              "velocity": 63,
              "position": 3.6666666666666665,
              "duration": 0.28125
            },
            {
              "pitch": 55,
              "velocity": 59,
              "position": 3.6666666666666665,
              "duration": 0.3125
            },
            {
              "pitch": 65,
              "velocity": 74,
              "position": 4.041666666666667,
              "duration": 1.4895833333333333
            },
            {
              "pitch": 64,
              "velocity": 68,
              "position": 4.020833333333333,
              "duration": 1.5208333333333333
            },
            {
              "pitch": 72,
              "velocity": 82,
              "position": 4.041666666666667,
              "duration": 1.5208333333333333
            },
            {
              "pitch": 69,
              "velocity": 87,
              "position": 4.03125,
              "duration": 1.5520833333333333
            },
            {
              "pitch": 60,
              "velocity": 64,
              "position": 4.03125,
              "duration": 1.65625
            },
            {
              "pitch": 69,
              "velocity": 90,
              "position": 5.729166666666667,
              "duration": 0.34375
            },
            {
              "pitch": 62,
              "velocity": 68,
              "position": 5.729166666666667,
              "duration": 0.3541666666666667
            },
            {
              "pitch": 65,
              "velocity": 69,
              "position": 5.729166666666667,
              "duration": 0.3541666666666667
            },
            {
              "pitch": 71,
              "velocity": 89,
              "position": 5.739583333333333,
              "duration": 0.34375
            },
            {
              "pitch": 74,
              "velocity": 87,
              "position": 5.729166666666667,
              "duration": 0.3854166666666667
            },
            {
              "pitch": 68,
              "velocity": 83,
              "position": 7.708333333333333,
              "duration": 0.28125
            },
            {
              "pitch": 63,
              "velocity": 77,
              "position": 7.697916666666667,
              "duration": 0.3020833333333333
            },
            {
              "pitch": 66,
              "velocity": 87,
              "position": 7.697916666666667,
              "duration": 0.3020833333333333
            },
            {
              "pitch": 71,
              "velocity": 77,
              "position": 7.677083333333333,
              "duration": 0.3541666666666667
            },
            {
              "pitch": 75,
              "velocity": 95,
              "position": 7.6875,
              "duration": 0.34375
            },
            {
              "pitch": 67,
              "velocity": 73,
              "position": 8.666666666666666,
              "duration": 0.22916666666666666
            },
            {
              "pitch": 64,
              "velocity": 74,
              "position": 8.666666666666666,
              "duration": 0.25
            },
            {
              "pitch": 69,
              "velocity": 67,
              "position": 8.666666666666666,
              "duration": 0.2708333333333333
            },
            {
              "pitch": 76,
              "velocity": 95,
              "position": 8.65625,
              "duration": 0.3229166666666667
            },
            {
              "pitch": 72,
              "velocity": 92,
              "position": 8.666666666666666,
              "duration": 0.3229166666666667
            },
            {
              "pitch": 63,
              "velocity": 77,
              "position": 9.0625,
              "duration": 0.46875
            },
            {
              "pitch": 68,
              "velocity": 64,
              "position": 9.0625,
              "duration": 0.46875
            },
            {
              "pitch": 66,
              "velocity": 80,
              "position": 9.0625,
              "duration": 0.4895833333333333
            },
            {
              "pitch": 75,
              "velocity": 63,
              "position": 9.083333333333334,
              "duration": 0.4791666666666667
            },
            {
              "pitch": 71,
              "velocity": 64,
              "position": 9.083333333333334,
              "duration": 0.4895833333333333
            },
            {
              "pitch": 64,
              "velocity": 66,
              "position": 9.645833333333334,
              "duration": 0.22916666666666666
            },
            {
              "pitch": 69,
              "velocity": 75,
              "position": 9.635416666666666,
              "duration": 0.25
            },
            {
              "pitch": 72,
              "velocity": 83,
              "position": 9.645833333333334,
              "duration": 0.25
            },
            {
              "pitch": 67,
              "velocity": 75,
              "position": 9.645833333333334,
              "duration": 0.2708333333333333
            },
            {
              "pitch": 76,
              "velocity": 80,
              "position": 9.635416666666666,
              "duration": 0.3229166666666667
            },
            {
              "pitch": 60,
              "velocity": 60,
              "position": 10.03125,
              "duration": 0.9375
            },
            {
              "pitch": 64,
              "velocity": 63,
              "position": 10.03125,
              "duration": 0.9375
            },
            {
              "pitch": 67,
              "velocity": 69,
              "position": 10.041666666666666,
              "duration": 0.9270833333333334
            },
            {
              "pitch": 69,
              "velocity": 66,
              "position": 10.041666666666666,
              "duration": 0.9270833333333334
            },
            {
              "pitch": 72,
              "velocity": 80,
              "position": 10.041666666666666,
              "duration": 0.9270833333333334
            },
            {
              "pitch": 60,
              "velocity": 64,
              "position": 11.020833333333334,
              "duration": 0.65625
            },
            {
              "pitch": 64,
              "velocity": 64,
              "position": 11.020833333333334,
              "duration": 0.65625
            },
            {
              "pitch": 67,
              "velocity": 75,
              "position": 11.020833333333334,
              "duration": 0.65625
            },
            {
              "pitch": 57,
              "velocity": 60,
              "position": 11.03125,
              "duration": 0.6458333333333334
            },
            {
              "pitch": 69,
              "velocity": 89,
              "position": 11.03125,
              "duration": 0.6458333333333334
            },
            {
              "pitch": 60,
              "velocity": 51,
              "position": 11.6875,
              "duration": 0.20833333333333334
            },
            {
              "pitch": 57,
              "velocity": 64,
              "position": 11.6875,
              "duration": 0.28125
            },
            {
              "pitch": 55,
              "velocity": 51,
              "position": 11.697916666666666,
              "duration": 0.28125
            },
            {
              "pitch": 67,
              "velocity": 69,
              "position": 11.6875,
              "duration": 0.3125
            },
            {
              "pitch": 64,
              "velocity": 63,
              "position": 11.697916666666666,
              "duration": 0.3020833333333333
            },
            {
              "pitch": 64,
              "velocity": 78,
              "position": 12.03125,
              "duration": 0.9375
            },
            {
              "pitch": 65,
              "velocity": 89,
              "position": 12.03125,
              "duration": 0.9479166666666666
            },
            {
              "pitch": 69,
              "velocity": 92,
              "position": 12.03125,
              "duration": 0.9479166666666666
            },
            {
              "pitch": 72,
              "velocity": 89,
              "position": 12.041666666666666,
              "duration": 0.9375
            },
            {
              "pitch": 60,
              "velocity": 73,
              "position": 12.03125,
              "duration": 0.9583333333333334
            },
            {
              "pitch": 63,
              "velocity": 74,
              "position": 13.03125,
              "duration": 0.5625
            },
            {
              "pitch": 72,
              "velocity": 78,
              "position": 13.03125,
              "duration": 0.5625
            },
            {
              "pitch": 75,
              "velocity": 89,
              "position": 13.020833333333334,
              "duration": 0.5833333333333334
            },
            {
              "pitch": 70,
              "velocity": 82,
              "position": 13.03125,
              "duration": 0.5729166666666666
            },
            {
              "pitch": 66,
              "velocity": 74,
              "position": 13.041666666666666,
              "duration": 0.5729166666666666
            },
            {
              "pitch": 71,
              "velocity": 83,
              "position": 13.6875,
              "duration": 0.3333333333333333
            },
            {
              "pitch": 74,
              "velocity": 78,
              "position": 13.6875,
              "duration": 0.3333333333333333
            },
            {
              "pitch": 65,
              "velocity": 83,
              "position": 13.697916666666666,
              "duration": 0.3229166666666667
            },
            {
              "pitch": 69,
              "velocity": 73,
              "position": 13.697916666666666,
              "duration": 0.3229166666666667
            },
            {
              "pitch": 62,
              "velocity": 82,
              "position": 13.708333333333334,
              "duration": 0.3125
            },
            {
              "pitch": 43,
              "velocity": 83,
              "position": 14.729166666666666,
              "duration": 1.2604166666666667
            }
          ]
        },
        "13": {
          "ctab": {
            "srcChannel": 13,
            "name": "Vib",
            "accType": "PAD",
            "editable": false,
            "mutedNotes": [],
            "mutedChords": [
              "dim7",
              "dim",
              "minMaj7(9)",
              "minMaj7",
              "min7(11)",
              "min7(9)",
              "min(9)",
              "m7b5",
              "min7",
              "min6",
              "min"
            ],
            "autoStart": false,
            "sourceChordNote": 0,
            "sourceChordType": "Maj",
            "ctb2Low": null,
            "ctb2Main": {
              "ntr": "ROOT_TRANSPOSITION",
              "ntt": "BYPASS",
              "bassOn": false,
              "chordRootUpperLimit": 3,
              "noteLowLimit": 0,
              "noteHighLimit": 127,
              "rtr": "PITCH_SHIFT"
            },
            "ctb2High": null
          },
          "notes": [
            {
              "pitch": 75,
              "velocity": 69,
              "position": 0.07291666666666667,
              "duration": 0.4166666666666667
            },
            {
              "pitch": 76,
              "velocity": 78,
              "position": 0.6458333333333334,
              "duration": 0.3229166666666667
            },
            {
              "pitch": 75,
              "velocity": 69,
              "position": 1.0625,
              "duration": 0.5416666666666666
            },
            {
              "pitch": 76,
              "velocity": 73,
              "position": 1.625,
              "duration": 0.3229166666666667
            },
            {
              "pitch": 72,
              "velocity": 69,
              "position": 2.0416666666666665,
              "duration": 0.9270833333333334
            },
            {
              "pitch": 69,
              "velocity": 65,
              "position": 3.0625,
              "duration": 0.5833333333333334
            },
            {
              "pitch": 67,
              "velocity": 52,
              "position": 3.7291666666666665,
              "duration": 0.25
            },
            {
              "pitch": 72,
              "velocity": 78,
              "position": 4.052083333333333,
              "duration": 1.5520833333333333
            },
            {
              "pitch": 74,
              "velocity": 82,
              "position": 5.71875,
              "duration": 0.4270833333333333
            },
            {
              "pitch": 75,
              "velocity": 76,
              "position": 7.6875,
              "duration": 0.3958333333333333
            },
            {
              "pitch": 76,
              "velocity": 88,
              "position": 8.697916666666666,
              "duration": 0.3333333333333333
            },
            {
              "pitch": 75,
              "velocity": 51,
              "position": 9.083333333333334,
              "duration": 0.4583333333333333
            },
            {
              "pitch": 76,
              "velocity": 84,
              "position": 9.666666666666666,
              "duration": 0.2916666666666667
            },
            {
              "pitch": 72,
              "velocity": 73,
              "position": 10.072916666666666,
              "duration": 0.8229166666666666
            },
            {
              "pitch": 69,
              "velocity": 60,
              "position": 11,
              "duration": 0.6041666666666666
            },
            {
              "pitch": 67,
              "velocity": 44,
              "position": 11.697916666666666,
              "duration": 0.22916666666666666
            },
            {
              "pitch": 72,
              "velocity": 78,
              "position": 12.020833333333334,
              "duration": 0.96875
            },
            {
              "pitch": 75,
              "velocity": 51,
              "position": 13.072916666666666,
              "duration": 0.53125
            },
            {
              "pitch": 74,
              "velocity": 76,
              "position": 13.71875,
              "duration": 0.375
            }
          ]
        }
      }
    },
    "Ending_B": {
      "type": "Ending_B",
      "sizeInBeats": 8,
      "channels": {
        "0": {
          "ctab": {
            "srcChannel": 0,
            "name": "Bass Fx",
            "accType": "BASS",
            "editable": true,
            "mutedNotes": [],
            "mutedChords": [],
            "autoStart": false,
            "sourceChordNote": 0,
            "sourceChordType": "Maj7",
            "ctb2Low": null,
            "ctb2Main": {
              "ntr": "ROOT_FIXED",
              "ntt": "BYPASS",
              "bassOn": false,
              "chordRootUpperLimit": 6,
              "noteLowLimit": 0,
              "noteHighLimit": 127,
              "rtr": "PITCH_SHIFT"
            },
            "ctb2High": null
          },
          "notes": [
            {
              "pitch": 107,
              "velocity": 58,
              "position": 7,
              "duration": 0.10416666666666667
            }
          ]
        },
        "1": {
          "ctab": {
            "srcChannel": 1,
            "name": "Bass",
            "accType": "BASS",
            "editable": false,
            "mutedNotes": [],
            "mutedChords": [
              "1+2+5",
              "sus4",
              "1+5",
              "1+8",
              "7aug",
              "Maj7aug",
              "7(#9)",
              "7(b13)",
              "7(b9)",
              "7(13)",
              "7#11",
              "7(9)",
              "7b5",
              "7sus4",
              "7th",
              "aug",
              "Maj6(9)",
              "Maj7(9)",
              "Maj(9)",
              "Maj7#11",
              "Maj7",
              "Maj6",
              "Maj"
            ],
            "autoStart": false,
            "sourceChordNote": 0,
            "sourceChordType": "min",
            "ctb2Low": null,
            "ctb2Main": {
              "ntr": "ROOT_TRANSPOSITION",
              "ntt": "BYPASS",
              "bassOn": false,
              "chordRootUpperLimit": 8,
              "noteLowLimit": 28,
              "noteHighLimit": 127,
              "rtr": "PITCH_SHIFT"
            },
            "ctb2High": null
          },
          "notes": [
            {
              "pitch": 24,
              "velocity": 50,
              "position": 0,
              "duration": 1.2083333333333333
            },
            {
              "pitch": 24,
              "velocity": 100,
              "position": 1.7083333333333333,
              "duration": 0.1875
            },
            {
              "pitch": 33,
              "velocity": 50,
              "position": 2,
              "duration": 1.2083333333333333
            },
            {
              "pitch": 33,
              "velocity": 100,
              "position": 3.7083333333333335,
              "duration": 0.1875
            },
            {
              "pitch": 26,
              "velocity": 50,
              "position": 4,
              "duration": 0.6458333333333334
            },
            {
              "pitch": 26,
              "velocity": 102,
              "position": 4.708333333333333,
              "duration": 0.13541666666666666
            },
            {
              "pitch": 31,
              "velocity": 46,
              "position": 5,
              "duration": 0.625
            },
            {
              "pitch": 24,
              "velocity": 100,
              "position": 5.708333333333333,
              "duration": 0.4895833333333333
            },
            {
              "pitch": 24,
              "velocity": 50,
              "position": 7,
              "duration": 0.6041666666666666
            }
          ]
        },
        "2": {
          "ctab": {
            "srcChannel": 2,
            "name": "Gt",
            "accType": "CHORD1",
            "editable": false,
            "mutedNotes": [],
            "mutedChords": [
              "1+2+5",
              "sus4",
              "1+5",
              "1+8",
              "7aug",
              "Maj7aug",
              "7(#9)",
              "7(b13)",
              "7(b9)",
              "7(13)",
              "7#11",
              "7(9)",
              "7b5",
              "7sus4",
              "7th",
              "aug",
              "Maj6(9)",
              "Maj7(9)",
              "Maj(9)",
              "Maj7#11",
              "Maj7",
              "Maj6",
              "Maj"
            ],
            "autoStart": false,
            "sourceChordNote": 0,
            "sourceChordType": "min",
            "ctb2Low": null,
            "ctb2Main": {
              "ntr": "ROOT_TRANSPOSITION",
              "ntt": "BYPASS",
              "bassOn": false,
              "chordRootUpperLimit": 5,
              "noteLowLimit": 0,
              "noteHighLimit": 127,
              "rtr": "PITCH_SHIFT"
            },
            "ctb2High": null
          },
          "notes": [
            {
              "pitch": 60,
              "velocity": 97,
              "position": 0.6770833333333334,
              "duration": 0.3229166666666667
            },
            {
              "pitch": 57,
              "velocity": 51,
              "position": 1.0625,
              "duration": 0.59375
            },
            {
              "pitch": 55,
              "velocity": 62,
              "position": 2.0625,
              "duration": 0.5104166666666666
            },
            {
              "pitch": 57,
              "velocity": 47,
              "position": 2.6041666666666665,
              "duration": 0.3020833333333333
            },
            {
              "pitch": 60,
              "velocity": 49,
              "position": 2.9791666666666665,
              "duration": 0.5729166666666666
            },
            {
              "pitch": 62,
              "velocity": 71,
              "position": 3.6354166666666665,
              "duration": 0.3229166666666667
            },
            {
              "pitch": 63,
              "velocity": 97,
              "position": 4,
              "duration": 0.6979166666666666
            },
            {
              "pitch": 60,
              "velocity": 47,
              "position": 4.708333333333333,
              "duration": 0.21875
            },
            {
              "pitch": 62,
              "velocity": 51,
              "position": 5.03125,
              "duration": 0.5833333333333334
            },
            {
              "pitch": 60,
              "velocity": 88,
              "position": 5.708333333333333,
              "duration": 0.3854166666666667
            }
          ]
        },
        "3": {
          "ctab": {
            "srcChannel": 3,
            "name": "Pno",
            "accType": "CHORD2",
            "editable": false,
            "mutedNotes": [],
            "mutedChords": [
              "1+2+5",
              "sus4",
              "1+5",
              "1+8",
              "7aug",
              "Maj7aug",
              "7(#9)",
              "7(b13)",
              "7(b9)",
              "7(13)",
              "7#11",
              "7(9)",
              "7b5",
              "7sus4",
              "7th",
              "aug",
              "Maj6(9)",
              "Maj7(9)",
              "Maj(9)",
              "Maj7#11",
              "Maj7",
              "Maj6",
              "Maj"
            ],
            "autoStart": false,
            "sourceChordNote": 0,
            "sourceChordType": "min",
            "ctb2Low": null,
            "ctb2Main": {
              "ntr": "ROOT_TRANSPOSITION",
              "ntt": "BYPASS",
              "bassOn": false,
              "chordRootUpperLimit": 3,
              "noteLowLimit": 0,
              "noteHighLimit": 127,
              "rtr": "PITCH_SHIFT"
            },
            "ctb2High": null
          },
          "notes": [
            {
              "pitch": 63,
              "velocity": 83,
              "position": 0.6666666666666666,
              "duration": 0.25
            },
            {
              "pitch": 67,
              "velocity": 89,
              "position": 0.6666666666666666,
              "duration": 0.25
            },
            {
              "pitch": 69,
              "velocity": 91,
              "position": 0.6666666666666666,
              "duration": 0.2604166666666667
            },
            {
              "pitch": 60,
              "velocity": 82,
              "position": 0.6666666666666666,
              "duration": 0.2708333333333333
            },
            {
              "pitch": 72,
              "velocity": 90,
              "position": 0.6666666666666666,
              "duration": 0.2708333333333333
            },
            {
              "pitch": 63,
              "velocity": 74,
              "position": 1.0520833333333333,
              "duration": 0.3645833333333333
            },
            {
              "pitch": 67,
              "velocity": 73,
              "position": 1.0625,
              "duration": 0.3541666666666667
            },
            {
              "pitch": 69,
              "velocity": 89,
              "position": 1.0625,
              "duration": 0.3645833333333333
            },
            {
              "pitch": 60,
              "velocity": 65,
              "position": 1.0520833333333333,
              "duration": 0.3854166666666667
            },
            {
              "pitch": 57,
              "velocity": 76,
              "position": 1.0416666666666667,
              "duration": 0.4270833333333333
            },
            {
              "pitch": 57,
              "velocity": 73,
              "position": 2.0208333333333335,
              "duration": 0.4583333333333333
            },
            {
              "pitch": 55,
              "velocity": 62,
              "position": 2.0208333333333335,
              "duration": 0.4791666666666667
            },
            {
              "pitch": 63,
              "velocity": 77,
              "position": 2.0208333333333335,
              "duration": 0.5
            },
            {
              "pitch": 67,
              "velocity": 80,
              "position": 2.0208333333333335,
              "duration": 0.5104166666666666
            },
            {
              "pitch": 60,
              "velocity": 62,
              "position": 2.0208333333333335,
              "duration": 0.5208333333333334
            },
            {
              "pitch": 60,
              "velocity": 66,
              "position": 2.6458333333333335,
              "duration": 0.2708333333333333
            },
            {
              "pitch": 63,
              "velocity": 66,
              "position": 2.6458333333333335,
              "duration": 0.2708333333333333
            },
            {
              "pitch": 67,
              "velocity": 68,
              "position": 2.6458333333333335,
              "duration": 0.2708333333333333
            },
            {
              "pitch": 69,
              "velocity": 81,
              "position": 2.65625,
              "duration": 0.28125
            },
            {
              "pitch": 55,
              "velocity": 60,
              "position": 2.6354166666666665,
              "duration": 0.3125
            },
            {
              "pitch": 57,
              "velocity": 60,
              "position": 2.6458333333333335,
              "duration": 0.3229166666666667
            },
            {
              "pitch": 63,
              "velocity": 77,
              "position": 3.0416666666666665,
              "duration": 0.3854166666666667
            },
            {
              "pitch": 67,
              "velocity": 74,
              "position": 3.0520833333333335,
              "duration": 0.3958333333333333
            },
            {
              "pitch": 69,
              "velocity": 77,
              "position": 3.0416666666666665,
              "duration": 0.4166666666666667
            },
            {
              "pitch": 72,
              "velocity": 80,
              "position": 3.0520833333333335,
              "duration": 0.40625
            },
            {
              "pitch": 60,
              "velocity": 79,
              "position": 3.0520833333333335,
              "duration": 0.4479166666666667
            },
            {
              "pitch": 74,
              "velocity": 89,
              "position": 3.6354166666666665,
              "duration": 0.2604166666666667
            },
            {
              "pitch": 69,
              "velocity": 89,
              "position": 3.6458333333333335,
              "duration": 0.25
            },
            {
              "pitch": 71,
              "velocity": 86,
              "position": 3.6458333333333335,
              "duration": 0.25
            },
            {
              "pitch": 65,
              "velocity": 71,
              "position": 3.6354166666666665,
              "duration": 0.2708333333333333
            },
            {
              "pitch": 62,
              "velocity": 81,
              "position": 3.625,
              "duration": 0.2916666666666667
            },
            {
              "pitch": 70,
              "velocity": 81,
              "position": 4.0625,
              "duration": 0.4583333333333333
            },
            {
              "pitch": 63,
              "velocity": 90,
              "position": 4.0625,
              "duration": 0.4791666666666667
            },
            {
              "pitch": 72,
              "velocity": 86,
              "position": 4.0625,
              "duration": 0.5104166666666666
            },
            {
              "pitch": 75,
              "velocity": 90,
              "position": 4.0625,
              "duration": 0.5208333333333334
            },
            {
              "pitch": 66,
              "velocity": 73,
              "position": 4.072916666666667,
              "duration": 0.5104166666666666
            },
            {
              "pitch": 72,
              "velocity": 71,
              "position": 4.697916666666667,
              "duration": 0.25
            },
            {
              "pitch": 70,
              "velocity": 64,
              "position": 4.697916666666667,
              "duration": 0.2708333333333333
            },
            {
              "pitch": 66,
              "velocity": 60,
              "position": 4.6875,
              "duration": 0.2916666666666667
            },
            {
              "pitch": 63,
              "velocity": 68,
              "position": 4.697916666666667,
              "duration": 0.28125
            },
            {
              "pitch": 60,
              "velocity": 71,
              "position": 4.697916666666667,
              "duration": 0.3020833333333333
            },
            {
              "pitch": 74,
              "velocity": 89,
              "position": 5.104166666666667,
              "duration": 0.5
            },
            {
              "pitch": 69,
              "velocity": 87,
              "position": 5.09375,
              "duration": 0.53125
            },
            {
              "pitch": 71,
              "velocity": 86,
              "position": 5.09375,
              "duration": 0.53125
            },
            {
              "pitch": 65,
              "velocity": 71,
              "position": 5.09375,
              "duration": 0.5520833333333334
            },
            {
              "pitch": 62,
              "velocity": 81,
              "position": 5.083333333333333,
              "duration": 0.5833333333333334
            },
            {
              "pitch": 67,
              "velocity": 89,
              "position": 5.75,
              "duration": 0.3125
            },
            {
              "pitch": 60,
              "velocity": 79,
              "position": 5.75,
              "duration": 0.3333333333333333
            },
            {
              "pitch": 69,
              "velocity": 87,
              "position": 5.760416666666667,
              "duration": 0.3333333333333333
            },
            {
              "pitch": 63,
              "velocity": 79,
              "position": 5.75,
              "duration": 0.3541666666666667
            },
            {
              "pitch": 72,
              "velocity": 92,
              "position": 5.75,
              "duration": 0.3541666666666667
            },
            {
              "pitch": 36,
              "velocity": 82,
              "position": 7.052083333333333,
              "duration": 0.5520833333333334
            }
          ]
        },
        "4": {
          "ctab": {
            "srcChannel": 4,
            "name": "Vib",
            "accType": "PAD",
            "editable": false,
            "mutedNotes": [],
            "mutedChords": [
              "1+2+5",
              "sus4",
              "1+5",
              "1+8",
              "7aug",
              "Maj7aug",
              "7(#9)",
              "7(b13)",
              "7(b9)",
              "7(13)",
              "7#11",
              "7(9)",
              "7b5",
              "7sus4",
              "7th",
              "aug",
              "Maj6(9)",
              "Maj7(9)",
              "Maj(9)",
              "Maj7#11",
              "Maj7",
              "Maj6",
              "Maj"
            ],
            "autoStart": false,
            "sourceChordNote": 0,
            "sourceChordType": "min",
            "ctb2Low": null,
            "ctb2Main": {
              "ntr": "ROOT_TRANSPOSITION",
              "ntt": "BYPASS",
              "bassOn": false,
              "chordRootUpperLimit": 3,
              "noteLowLimit": 0,
              "noteHighLimit": 127,
              "rtr": "PITCH_SHIFT"
            },
            "ctb2High": null
          },
          "notes": [
            {
              "pitch": 72,
              "velocity": 92,
              "position": 0.71875,
              "duration": 0.28125
            },
            {
              "pitch": 69,
              "velocity": 65,
              "position": 1.09375,
              "duration": 0.4270833333333333
            },
            {
              "pitch": 67,
              "velocity": 65,
              "position": 2.0520833333333335,
              "duration": 0.59375
            },
            {
              "pitch": 69,
              "velocity": 63,
              "position": 2.6979166666666665,
              "duration": 0.28125
            },
            {
              "pitch": 72,
              "velocity": 65,
              "position": 3.0833333333333335,
              "duration": 0.4583333333333333
            },
            {
              "pitch": 74,
              "velocity": 76,
              "position": 3.6666666666666665,
              "duration": 0.2604166666666667
            },
            {
              "pitch": 75,
              "velocity": 92,
              "position": 4.0625,
              "duration": 0.3541666666666667
            },
            {
              "pitch": 77,
              "velocity": 45,
              "position": 4.458333333333333,
              "duration": 0.23958333333333334
            },
            {
              "pitch": 75,
              "velocity": 31,
              "position": 4.65625,
              "duration": 0.17708333333333334
            },
            {
              "pitch": 72,
              "velocity": 52,
              "position": 4.833333333333333,
              "duration": 0.125
            },
            {
              "pitch": 74,
              "velocity": 88,
              "position": 5.072916666666667,
              "duration": 0.5520833333333334
            },
            {
              "pitch": 72,
              "velocity": 92,
              "position": 5.71875,
              "duration": 0.46875
            }
          ]
        },
        "9": {
          "ctab": {
            "srcChannel": 9,
            "name": "Drums",
            "accType": "RHYTHM",
            "editable": false,
            "mutedNotes": [],
            "mutedChords": [],
            "autoStart": true,
            "sourceChordNote": 0,
            "sourceChordType": "Maj7",
            "ctb2Low": null,
            "ctb2Main": {
              "ntr": "ROOT_FIXED",
              "ntt": "BYPASS",
              "bassOn": false,
              "chordRootUpperLimit": 6,
              "noteLowLimit": 0,
              "noteHighLimit": 127,
              "rtr": "PITCH_SHIFT"
            },
            "ctb2High": null
          },
          "notes": [
            {
              "pitch": 40,
              "velocity": 13,
              "position": 0,
              "duration": 0.010416666666666666
            },
            {
              "pitch": 40,
              "velocity": 93,
              "position": 0.6666666666666666,
              "duration": 0.010416666666666666
            },
            {
              "pitch": 26,
              "velocity": 30,
              "position": 0,
              "duration": 0.9895833333333334
            },
            {
              "pitch": 38,
              "velocity": 40,
              "position": 1,
              "duration": 0.010416666666666666
            },
            {
              "pitch": 44,
              "velocity": 51,
              "position": 1,
              "duration": 0.010416666666666666
            },
            {
              "pitch": 26,
              "velocity": 30,
              "position": 1,
              "duration": 0.9895833333333334
            },
            {
              "pitch": 28,
              "velocity": 40,
              "position": 1.6666666666666667,
              "duration": 0.3229166666666667
            },
            {
              "pitch": 40,
              "velocity": 13,
              "position": 2,
              "duration": 0.010416666666666666
            },
            {
              "pitch": 26,
              "velocity": 30,
              "position": 2,
              "duration": 0.9895833333333334
            },
            {
              "pitch": 38,
              "velocity": 40,
              "position": 3,
              "duration": 0.010416666666666666
            },
            {
              "pitch": 44,
              "velocity": 51,
              "position": 3,
              "duration": 0.010416666666666666
            },
            {
              "pitch": 28,
              "velocity": 40,
              "position": 3.3333333333333335,
              "duration": 0.3229166666666667
            },
            {
              "pitch": 36,
              "velocity": 49,
              "position": 3.6666666666666665,
              "duration": 0.010416666666666666
            },
            {
              "pitch": 26,
              "velocity": 30,
              "position": 3,
              "duration": 0.9895833333333334
            },
            {
              "pitch": 36,
              "velocity": 60,
              "position": 4,
              "duration": 0.010416666666666666
            },
            {
              "pitch": 46,
              "velocity": 50,
              "position": 4,
              "duration": 0.010416666666666666
            },
            {
              "pitch": 26,
              "velocity": 30,
              "position": 4,
              "duration": 0.65625
            },
            {
              "pitch": 38,
              "velocity": 20,
              "position": 4.666666666666667,
              "duration": 0.010416666666666666
            },
            {
              "pitch": 38,
              "velocity": 40,
              "position": 4.833333333333333,
              "duration": 0.010416666666666666
            },
            {
              "pitch": 40,
              "velocity": 93,
              "position": 5,
              "duration": 0.010416666666666666
            },
            {
              "pitch": 44,
              "velocity": 51,
              "position": 5,
              "duration": 0.010416666666666666
            },
            {
              "pitch": 36,
              "velocity": 60,
              "position": 5.666666666666667,
              "duration": 0.010416666666666666
            },
            {
              "pitch": 46,
              "velocity": 50,
              "position": 5.666666666666667,
              "duration": 0.010416666666666666
            },
            {
              "pitch": 44,
              "velocity": 51,
              "position": 6,
              "duration": 0.010416666666666666
            },
            {
              "pitch": 36,
              "velocity": 60,
              "position": 7,
              "duration": 0.010416666666666666
            }
          ]
        },
        "10": {
          "ctab": {
            "srcChannel": 10,
            "name": "Bass",
            "accType": "BASS",
            "editable": false,
            "mutedNotes": [],
            "mutedChords": [
              "dim7",
              "dim",
              "minMaj7(9)",
              "minMaj7",
              "min7(11)",
              "min7(9)",
              "min(9)",
              "m7b5",
              "min7",
              "min6",
              "min"
            ],
            "autoStart": false,
            "sourceChordNote": 0,
            "sourceChordType": "Maj",
            "ctb2Low": null,
            "ctb2Main": {
              "ntr": "ROOT_TRANSPOSITION",
              "ntt": "BYPASS",
              "bassOn": false,
              "chordRootUpperLimit": 8,
              "noteLowLimit": 28,
              "noteHighLimit": 127,
              "rtr": "PITCH_SHIFT"
            },
            "ctb2High": null
          },
          "notes": [
            {
              "pitch": 24,
              "velocity": 50,
              "position": 0,
              "duration": 1.2083333333333333
            },
            {
              "pitch": 24,
              "velocity": 100,
              "position": 1.7083333333333333,
              "duration": 0.1875
            },
            {
              "pitch": 33,
              "velocity": 50,
              "position": 2,
              "duration": 1.2083333333333333
            },
            {
              "pitch": 33,
              "velocity": 100,
              "position": 3.7083333333333335,
              "duration": 0.1875
            },
            {
              "pitch": 26,
              "velocity": 50,
              "position": 4,
              "duration": 0.6458333333333334
            },
            {
              "pitch": 26,
              "velocity": 104,
              "position": 4.708333333333333,
              "duration": 0.14583333333333334
            },
            {
              "pitch": 31,
              "velocity": 34,
              "position": 5,
              "duration": 0.625
            },
            {
              "pitch": 24,
              "velocity": 110,
              "position": 5.708333333333333,
              "duration": 0.4895833333333333
            },
            {
              "pitch": 24,
              "velocity": 50,
              "position": 7,
              "duration": 0.6041666666666666
            }
          ]
        },
        "11": {
          "ctab": {
            "srcChannel": 11,
            "name": "Gt",
            "accType": "CHORD1",
            "editable": false,
            "mutedNotes": [],
            "mutedChords": [
              "dim7",
              "dim",
              "minMaj7(9)",
              "minMaj7",
              "min7(11)",
              "min7(9)",
              "min(9)",
              "m7b5",
              "min7",
              "min6",
              "min"
            ],
            "autoStart": false,
            "sourceChordNote": 0,
            "sourceChordType": "Maj",
            "ctb2Low": null,
            "ctb2Main": {
              "ntr": "ROOT_TRANSPOSITION",
              "ntt": "BYPASS",
              "bassOn": false,
              "chordRootUpperLimit": 5,
              "noteLowLimit": 0,
              "noteHighLimit": 127,
              "rtr": "PITCH_SHIFT"
            },
            "ctb2High": null
          },
          "notes": [
            {
              "pitch": 60,
              "velocity": 87,
              "position": 0.6770833333333334,
              "duration": 0.3229166666666667
            },
            {
              "pitch": 57,
              "velocity": 41,
              "position": 1.0625,
              "duration": 0.59375
            },
            {
              "pitch": 55,
              "velocity": 52,
              "position": 2.0625,
              "duration": 0.5104166666666666
            },
            {
              "pitch": 57,
              "velocity": 37,
              "position": 2.6041666666666665,
              "duration": 0.3020833333333333
            },
            {
              "pitch": 60,
              "velocity": 39,
              "position": 2.9791666666666665,
              "duration": 0.5729166666666666
            },
            {
              "pitch": 62,
              "velocity": 61,
              "position": 3.6354166666666665,
              "duration": 0.3229166666666667
            },
            {
              "pitch": 63,
              "velocity": 87,
              "position": 4,
              "duration": 0.6979166666666666
            },
            {
              "pitch": 60,
              "velocity": 37,
              "position": 4.708333333333333,
              "duration": 0.21875
            },
            {
              "pitch": 62,
              "velocity": 41,
              "position": 5.03125,
              "duration": 0.5833333333333334
            },
            {
              "pitch": 60,
              "velocity": 78,
              "position": 5.708333333333333,
              "duration": 0.3854166666666667
            }
          ]
        },
        "12": {
          "ctab": {
            "srcChannel": 12,
            "name": "Pno",
            "accType": "CHORD2",
            "editable": false,
            "mutedNotes": [],
            "mutedChords": [
              "dim7",
              "dim",
              "minMaj7(9)",
              "minMaj7",
              "min7(11)",
              "min7(9)",
              "min(9)",
              "m7b5",
              "min7",
              "min6",
              "min"
            ],
            "autoStart": false,
            "sourceChordNote": 0,
            "sourceChordType": "Maj",
            "ctb2Low": null,
            "ctb2Main": {
              "ntr": "ROOT_TRANSPOSITION",
              "ntt": "BYPASS",
              "bassOn": false,
              "chordRootUpperLimit": 3,
              "noteLowLimit": 0,
              "noteHighLimit": 127,
              "rtr": "PITCH_SHIFT"
            },
            "ctb2High": null
          },
          "notes": [
            {
              "pitch": 64,
              "velocity": 83,
              "position": 0.6666666666666666,
              "duration": 0.25
            },
            {
              "pitch": 67,
              "velocity": 89,
              "position": 0.6666666666666666,
              "duration": 0.25
            },
            {
              "pitch": 69,
              "velocity": 91,
              "position": 0.6666666666666666,
              "duration": 0.2604166666666667
            },
            {
              "pitch": 60,
              "velocity": 82,
              "position": 0.6666666666666666,
              "duration": 0.2708333333333333
            },
            {
              "pitch": 72,
              "velocity": 83,
              "position": 0.6666666666666666,
              "duration": 0.2708333333333333
            },
            {
              "pitch": 64,
              "velocity": 74,
              "position": 1.0520833333333333,
              "duration": 0.3645833333333333
            },
            {
              "pitch": 67,
              "velocity": 73,
              "position": 1.0625,
              "duration": 0.3541666666666667
            },
            {
              "pitch": 69,
              "velocity": 82,
              "position": 1.0625,
              "duration": 0.3645833333333333
            },
            {
              "pitch": 60,
              "velocity": 65,
              "position": 1.0520833333333333,
              "duration": 0.3854166666666667
            },
            {
              "pitch": 57,
              "velocity": 76,
              "position": 1.0416666666666667,
              "duration": 0.4270833333333333
            },
            {
              "pitch": 57,
              "velocity": 73,
              "position": 2.0208333333333335,
              "duration": 0.4583333333333333
            },
            {
              "pitch": 55,
              "velocity": 62,
              "position": 2.0208333333333335,
              "duration": 0.4791666666666667
            },
            {
              "pitch": 64,
              "velocity": 77,
              "position": 2.0208333333333335,
              "duration": 0.5
            },
            {
              "pitch": 67,
              "velocity": 73,
              "position": 2.0208333333333335,
              "duration": 0.5104166666666666
            },
            {
              "pitch": 60,
              "velocity": 62,
              "position": 2.0208333333333335,
              "duration": 0.5208333333333334
            },
            {
              "pitch": 60,
              "velocity": 66,
              "position": 2.6458333333333335,
              "duration": 0.2708333333333333
            },
            {
              "pitch": 64,
              "velocity": 66,
              "position": 2.6458333333333335,
              "duration": 0.2708333333333333
            },
            {
              "pitch": 67,
              "velocity": 68,
              "position": 2.6458333333333335,
              "duration": 0.2708333333333333
            },
            {
              "pitch": 69,
              "velocity": 74,
              "position": 2.65625,
              "duration": 0.28125
            },
            {
              "pitch": 55,
              "velocity": 60,
              "position": 2.6354166666666665,
              "duration": 0.3125
            },
            {
              "pitch": 57,
              "velocity": 60,
              "position": 2.6458333333333335,
              "duration": 0.3229166666666667
            },
            {
              "pitch": 64,
              "velocity": 77,
              "position": 3.0416666666666665,
              "duration": 0.3854166666666667
            },
            {
              "pitch": 67,
              "velocity": 74,
              "position": 3.0520833333333335,
              "duration": 0.3958333333333333
            },
            {
              "pitch": 69,
              "velocity": 77,
              "position": 3.0416666666666665,
              "duration": 0.4166666666666667
            },
            {
              "pitch": 72,
              "velocity": 73,
              "position": 3.0520833333333335,
              "duration": 0.40625
            },
            {
              "pitch": 60,
              "velocity": 79,
              "position": 3.0520833333333335,
              "duration": 0.4479166666666667
            },
            {
              "pitch": 74,
              "velocity": 82,
              "position": 3.6354166666666665,
              "duration": 0.2604166666666667
            },
            {
              "pitch": 69,
              "velocity": 89,
              "position": 3.6458333333333335,
              "duration": 0.25
            },
            {
              "pitch": 71,
              "velocity": 86,
              "position": 3.6458333333333335,
              "duration": 0.25
            },
            {
              "pitch": 65,
              "velocity": 71,
              "position": 3.6354166666666665,
              "duration": 0.2708333333333333
            },
            {
              "pitch": 62,
              "velocity": 81,
              "position": 3.625,
              "duration": 0.2916666666666667
            },
            {
              "pitch": 70,
              "velocity": 81,
              "position": 4.0625,
              "duration": 0.4583333333333333
            },
            {
              "pitch": 63,
              "velocity": 90,
              "position": 4.0625,
              "duration": 0.4791666666666667
            },
            {
              "pitch": 72,
              "velocity": 86,
              "position": 4.0625,
              "duration": 0.5104166666666666
            },
            {
              "pitch": 75,
              "velocity": 83,
              "position": 4.0625,
              "duration": 0.5208333333333334
            },
            {
              "pitch": 66,
              "velocity": 73,
              "position": 4.072916666666667,
              "duration": 0.5104166666666666
            },
            {
              "pitch": 72,
              "velocity": 64,
              "position": 4.697916666666667,
              "duration": 0.25
            },
            {
              "pitch": 70,
              "velocity": 64,
              "position": 4.697916666666667,
              "duration": 0.2708333333333333
            },
            {
              "pitch": 66,
              "velocity": 60,
              "position": 4.6875,
              "duration": 0.2916666666666667
            },
            {
              "pitch": 63,
              "velocity": 68,
              "position": 4.697916666666667,
              "duration": 0.28125
            },
            {
              "pitch": 60,
              "velocity": 71,
              "position": 4.697916666666667,
              "duration": 0.3020833333333333
            },
            {
              "pitch": 74,
              "velocity": 82,
              "position": 5.104166666666667,
              "duration": 0.5
            },
            {
              "pitch": 69,
              "velocity": 87,
              "position": 5.09375,
              "duration": 0.53125
            },
            {
              "pitch": 71,
              "velocity": 86,
              "position": 5.09375,
              "duration": 0.53125
            },
            {
              "pitch": 65,
              "velocity": 71,
              "position": 5.09375,
              "duration": 0.5520833333333334
            },
            {
              "pitch": 62,
              "velocity": 81,
              "position": 5.083333333333333,
              "duration": 0.5833333333333334
            },
            {
              "pitch": 67,
              "velocity": 89,
              "position": 5.75,
              "duration": 0.3125
            },
            {
              "pitch": 60,
              "velocity": 79,
              "position": 5.75,
              "duration": 0.3333333333333333
            },
            {
              "pitch": 69,
              "velocity": 87,
              "position": 5.760416666666667,
              "duration": 0.3333333333333333
            },
            {
              "pitch": 64,
              "velocity": 79,
              "position": 5.75,
              "duration": 0.3541666666666667
            },
            {
              "pitch": 72,
              "velocity": 85,
              "position": 5.75,
              "duration": 0.3541666666666667
            },
            {
              "pitch": 36,
              "velocity": 82,
              "position": 7.052083333333333,
              "duration": 0.5520833333333334
            }
          ]
        },
        "13": {
          "ctab": {
            "srcChannel": 13,
            "name": "Vib",
            "accType": "PAD",
            "editable": false,
            "mutedNotes": [],
            "mutedChords": [
              "dim7",
              "dim",
              "minMaj7(9)",
              "minMaj7",
              "min7(11)",
              "min7(9)",
              "min(9)",
              "m7b5",
              "min7",
              "min6",
              "min"
            ],
            "autoStart": false,
            "sourceChordNote": 0,
            "sourceChordType": "Maj",
            "ctb2Low": null,
            "ctb2Main": {
              "ntr": "ROOT_TRANSPOSITION",
              "ntt": "BYPASS",
              "bassOn": false,
              "chordRootUpperLimit": 3,
              "noteLowLimit": 0,
              "noteHighLimit": 127,
              "rtr": "PITCH_SHIFT"
            },
            "ctb2High": null
          },
          "notes": [
            {
              "pitch": 72,
              "velocity": 92,
              "position": 0.71875,
              "duration": 0.28125
            },
            {
              "pitch": 69,
              "velocity": 65,
              "position": 1.09375,
              "duration": 0.4270833333333333
            },
            {
              "pitch": 67,
              "velocity": 65,
              "position": 2.0520833333333335,
              "duration": 0.59375
            },
            {
              "pitch": 69,
              "velocity": 63,
              "position": 2.6979166666666665,
              "duration": 0.28125
            },
            {
              "pitch": 72,
              "velocity": 65,
              "position": 3.0833333333333335,
              "duration": 0.4583333333333333
            },
            {
              "pitch": 74,
              "velocity": 76,
              "position": 3.6666666666666665,
              "duration": 0.2604166666666667
            },
            {
              "pitch": 75,
              "velocity": 92,
              "position": 4.0625,
              "duration": 0.3541666666666667
            },
            {
              "pitch": 77,
              "velocity": 45,
              "position": 4.458333333333333,
              "duration": 0.23958333333333334
            },
            {
              "pitch": 75,
              "velocity": 31,
              "position": 4.65625,
              "duration": 0.17708333333333334
            },
            {
              "pitch": 72,
              "velocity": 52,
              "position": 4.833333333333333,
              "duration": 0.125
            },
            {
              "pitch": 74,
              "velocity": 88,
              "position": 5.072916666666667,
              "duration": 0.5520833333333334
            },
            {
              "pitch": 72,
              "velocity": 92,
              "position": 5.71875,
              "duration": 0.46875
            }
          ]
        }
      }
    },
    "Intro_C": {
      "type": "Intro_C",
      "sizeInBeats": 32,
      "channels": {
        "0": {
          "ctab": {
            "srcChannel": 0,
            "name": "Bass Fx",
            "accType": "BASS",
            "editable": true,
            "mutedNotes": [],
            "mutedChords": [],
            "autoStart": false,
            "sourceChordNote": 0,
            "sourceChordType": "Maj7",
            "ctb2Low": null,
            "ctb2Main": {
              "ntr": "ROOT_FIXED",
              "ntt": "BYPASS",
              "bassOn": false,
              "chordRootUpperLimit": 6,
              "noteLowLimit": 0,
              "noteHighLimit": 127,
              "rtr": "PITCH_SHIFT"
            },
            "ctb2High": null
          },
          "notes": [
            {
              "pitch": 106,
              "velocity": 60,
              "position": 22.625,
              "duration": 0.1875
            },
            {
              "pitch": 101,
              "velocity": 92,
              "position": 23,
              "duration": 0.9791666666666666
            }
          ]
        },
        "1": {
          "ctab": {
            "srcChannel": 1,
            "name": "Bass",
            "accType": "BASS",
            "editable": false,
            "mutedNotes": [],
            "mutedChords": [
              "1+2+5",
              "sus4",
              "1+5",
              "1+8",
              "7aug",
              "Maj7aug",
              "7(#9)",
              "7(b13)",
              "7(b9)",
              "7(13)",
              "7#11",
              "7(9)",
              "7b5",
              "7sus4",
              "7th",
              "aug",
              "Maj6(9)",
              "Maj7(9)",
              "Maj(9)",
              "Maj7#11",
              "Maj7",
              "Maj6",
              "Maj"
            ],
            "autoStart": false,
            "sourceChordNote": 0,
            "sourceChordType": "min",
            "ctb2Low": null,
            "ctb2Main": {
              "ntr": "ROOT_TRANSPOSITION",
              "ntt": "BYPASS",
              "bassOn": false,
              "chordRootUpperLimit": 9,
              "noteLowLimit": 28,
              "noteHighLimit": 44,
              "rtr": "PITCH_SHIFT"
            },
            "ctb2High": null
          },
          "notes": [
            {
              "pitch": 31,
              "velocity": 50,
              "position": 1,
              "duration": 1.84375
            },
            {
              "pitch": 31,
              "velocity": 50,
              "position": 3,
              "duration": 1.8541666666666667
            },
            {
              "pitch": 31,
              "velocity": 50,
              "position": 5,
              "duration": 1.8541666666666667
            },
            {
              "pitch": 31,
              "velocity": 50,
              "position": 7,
              "duration": 1.8541666666666667
            },
            {
              "pitch": 31,
              "velocity": 50,
              "position": 9,
              "duration": 1.8541666666666667
            },
            {
              "pitch": 31,
              "velocity": 50,
              "position": 11,
              "duration": 1.8958333333333333
            },
            {
              "pitch": 31,
              "velocity": 50,
              "position": 13,
              "duration": 1.8541666666666667
            },
            {
              "pitch": 31,
              "velocity": 50,
              "position": 15,
              "duration": 1.53125
            },
            {
              "pitch": 31,
              "velocity": 100,
              "position": 16.677083333333332,
              "duration": 0.1875
            },
            {
              "pitch": 31,
              "velocity": 50,
              "position": 17,
              "duration": 1.84375
            },
            {
              "pitch": 31,
              "velocity": 50,
              "position": 19,
              "duration": 1.8854166666666667
            },
            {
              "pitch": 31,
              "velocity": 50,
              "position": 21,
              "duration": 1.8645833333333333
            },
            {
              "pitch": 36,
              "velocity": 50,
              "position": 24,
              "duration": 0.90625
            },
            {
              "pitch": 34,
              "velocity": 50,
              "position": 25,
              "duration": 0.8958333333333334
            },
            {
              "pitch": 33,
              "velocity": 50,
              "position": 26,
              "duration": 0.90625
            },
            {
              "pitch": 38,
              "velocity": 50,
              "position": 27,
              "duration": 0.8854166666666666
            },
            {
              "pitch": 38,
              "velocity": 50,
              "position": 28,
              "duration": 0.90625
            },
            {
              "pitch": 32,
              "velocity": 50,
              "position": 29,
              "duration": 0.90625
            },
            {
              "pitch": 31,
              "velocity": 50,
              "position": 30,
              "duration": 0.90625
            },
            {
              "pitch": 35,
              "velocity": 50,
              "position": 31,
              "duration": 0.8854166666666666
            }
          ]
        },
        "2": {
          "ctab": {
            "srcChannel": 2,
            "name": "Gt",
            "accType": "CHORD1",
            "editable": false,
            "mutedNotes": [],
            "mutedChords": [
              "1+2+5",
              "sus4",
              "1+5",
              "1+8",
              "7aug",
              "Maj7aug",
              "7(#9)",
              "7(b13)",
              "7(b9)",
              "7(13)",
              "7#11",
              "7(9)",
              "7b5",
              "7sus4",
              "7th",
              "aug",
              "Maj6(9)",
              "Maj7(9)",
              "Maj(9)",
              "Maj7#11",
              "Maj7",
              "Maj6",
              "Maj"
            ],
            "autoStart": false,
            "sourceChordNote": 0,
            "sourceChordType": "min",
            "ctb2Low": null,
            "ctb2Main": {
              "ntr": "ROOT_TRANSPOSITION",
              "ntt": "BYPASS",
              "bassOn": false,
              "chordRootUpperLimit": 7,
              "noteLowLimit": 0,
              "noteHighLimit": 127,
              "rtr": "PITCH_SHIFT"
            },
            "ctb2High": null
          },
          "notes": [
            {
              "pitch": 57,
              "velocity": 61,
              "position": 7.645833333333333,
              "duration": 0.71875
            },
            {
              "pitch": 60,
              "velocity": 62,
              "position": 7.666666666666667,
              "duration": 0.7395833333333334
            },
            {
              "pitch": 63,
              "velocity": 77,
              "position": 7.6875,
              "duration": 0.7291666666666666
            },
            {
              "pitch": 60,
              "velocity": 57,
              "position": 8.645833333333334,
              "duration": 0.16666666666666666
            },
            {
              "pitch": 63,
              "velocity": 47,
              "position": 8.666666666666666,
              "duration": 0.19791666666666666
            },
            {
              "pitch": 67,
              "velocity": 64,
              "position": 8.6875,
              "duration": 0.1875
            },
            {
              "pitch": 60,
              "velocity": 41,
              "position": 9.020833333333334,
              "duration": 0.3645833333333333
            },
            {
              "pitch": 63,
              "velocity": 45,
              "position": 9.041666666666666,
              "duration": 0.3645833333333333
            },
            {
              "pitch": 69,
              "velocity": 51,
              "position": 9.0625,
              "duration": 0.3541666666666667
            },
            {
              "pitch": 57,
              "velocity": 38,
              "position": 9.625,
              "duration": 0.28125
            },
            {
              "pitch": 63,
              "velocity": 54,
              "position": 9.645833333333334,
              "duration": 0.3020833333333333
            },
            {
              "pitch": 67,
              "velocity": 58,
              "position": 9.666666666666666,
              "duration": 0.3125
            },
            {
              "pitch": 72,
              "velocity": 75,
              "position": 9.6875,
              "duration": 0.3020833333333333
            },
            {
              "pitch": 57,
              "velocity": 50,
              "position": 10.625,
              "duration": 0.2916666666666667
            },
            {
              "pitch": 63,
              "velocity": 66,
              "position": 10.645833333333334,
              "duration": 0.28125
            },
            {
              "pitch": 67,
              "velocity": 73,
              "position": 10.666666666666666,
              "duration": 0.3020833333333333
            },
            {
              "pitch": 72,
              "velocity": 82,
              "position": 10.6875,
              "duration": 0.3020833333333333
            },
            {
              "pitch": 64,
              "velocity": 23,
              "position": 11.625,
              "duration": 0.09375
            },
            {
              "pitch": 69,
              "velocity": 35,
              "position": 11.645833333333334,
              "duration": 0.07291666666666667
            },
            {
              "pitch": 63,
              "velocity": 66,
              "position": 12,
              "duration": 0.3958333333333333
            },
            {
              "pitch": 66,
              "velocity": 73,
              "position": 12.020833333333334,
              "duration": 0.4270833333333333
            },
            {
              "pitch": 57,
              "velocity": 38,
              "position": 12.041666666666666,
              "duration": 0.4270833333333333
            },
            {
              "pitch": 72,
              "velocity": 81,
              "position": 12.0625,
              "duration": 0.4270833333333333
            },
            {
              "pitch": 60,
              "velocity": 35,
              "position": 12.625,
              "duration": 0.0625
            },
            {
              "pitch": 60,
              "velocity": 32,
              "position": 13,
              "duration": 0.625
            },
            {
              "pitch": 63,
              "velocity": 59,
              "position": 13.020833333333334,
              "duration": 0.6145833333333334
            },
            {
              "pitch": 66,
              "velocity": 70,
              "position": 13.041666666666666,
              "duration": 0.59375
            },
            {
              "pitch": 59,
              "velocity": 44,
              "position": 13.625,
              "duration": 0.3541666666666667
            },
            {
              "pitch": 62,
              "velocity": 48,
              "position": 13.645833333333334,
              "duration": 0.34375
            },
            {
              "pitch": 65,
              "velocity": 58,
              "position": 13.666666666666666,
              "duration": 0.3645833333333333
            },
            {
              "pitch": 59,
              "velocity": 67,
              "position": 14.645833333333334,
              "duration": 0.3541666666666667
            },
            {
              "pitch": 63,
              "velocity": 62,
              "position": 14.666666666666666,
              "duration": 0.3541666666666667
            },
            {
              "pitch": 67,
              "velocity": 89,
              "position": 14.6875,
              "duration": 0.3645833333333333
            },
            {
              "pitch": 63,
              "velocity": 103,
              "position": 23.760416666666668,
              "duration": 0.2604166666666667
            },
            {
              "pitch": 68,
              "velocity": 75,
              "position": 24.0625,
              "duration": 0.3541666666666667
            },
            {
              "pitch": 69,
              "velocity": 31,
              "position": 24.375,
              "duration": 0.2604166666666667
            },
            {
              "pitch": 74,
              "velocity": 112,
              "position": 24.71875,
              "duration": 0.34375
            },
            {
              "pitch": 69,
              "velocity": 80,
              "position": 25.09375,
              "duration": 0.5208333333333334
            },
            {
              "pitch": 62,
              "velocity": 90,
              "position": 25.6875,
              "duration": 0.4166666666666667
            },
            {
              "pitch": 67,
              "velocity": 72,
              "position": 26.114583333333332,
              "duration": 0.4375
            },
            {
              "pitch": 72,
              "velocity": 92,
              "position": 26.65625,
              "duration": 0.46875
            },
            {
              "pitch": 67,
              "velocity": 54,
              "position": 27.145833333333332,
              "duration": 0.53125
            },
            {
              "pitch": 60,
              "velocity": 94,
              "position": 27.71875,
              "duration": 0.3020833333333333
            },
            {
              "pitch": 64,
              "velocity": 71,
              "position": 28.041666666666668,
              "duration": 0.3020833333333333
            },
            {
              "pitch": 65,
              "velocity": 25,
              "position": 28.34375,
              "duration": 0.23958333333333334
            },
            {
              "pitch": 70,
              "velocity": 112,
              "position": 28.677083333333332,
              "duration": 0.3645833333333333
            },
            {
              "pitch": 65,
              "velocity": 54,
              "position": 29.0625,
              "duration": 0.5520833333333334
            },
            {
              "pitch": 59,
              "velocity": 77,
              "position": 29.677083333333332,
              "duration": 0.3645833333333333
            },
            {
              "pitch": 63,
              "velocity": 51,
              "position": 30.09375,
              "duration": 0.4895833333333333
            },
            {
              "pitch": 68,
              "velocity": 92,
              "position": 30.666666666666668,
              "duration": 0.96875
            }
          ]
        },
        "3": {
          "ctab": {
            "srcChannel": 3,
            "name": "Pno",
            "accType": "CHORD2",
            "editable": false,
            "mutedNotes": [],
            "mutedChords": [
              "1+2+5",
              "sus4",
              "1+5",
              "1+8",
              "7aug",
              "Maj7aug",
              "7(#9)",
              "7(b13)",
              "7(b9)",
              "7(13)",
              "7#11",
              "7(9)",
              "7b5",
              "7sus4",
              "7th",
              "aug",
              "Maj6(9)",
              "Maj7(9)",
              "Maj(9)",
              "Maj7#11",
              "Maj7",
              "Maj6",
              "Maj"
            ],
            "autoStart": false,
            "sourceChordNote": 0,
            "sourceChordType": "min",
            "ctb2Low": null,
            "ctb2Main": {
              "ntr": "ROOT_TRANSPOSITION",
              "ntt": "BYPASS",
              "bassOn": false,
              "chordRootUpperLimit": 10,
              "noteLowLimit": 0,
              "noteHighLimit": 127,
              "rtr": "PITCH_SHIFT"
            },
            "ctb2High": null
          },
          "notes": [
            {
              "pitch": 69,
              "velocity": 93,
              "position": 0.71875,
              "duration": 0.2604166666666667
            },
            {
              "pitch": 67,
              "velocity": 93,
              "position": 0.71875,
              "duration": 0.3958333333333333
            },
            {
              "pitch": 63,
              "velocity": 89,
              "position": 0.71875,
              "duration": 0.4375
            },
            {
              "pitch": 60,
              "velocity": 85,
              "position": 0.71875,
              "duration": 0.4583333333333333
            },
            {
              "pitch": 72,
              "velocity": 94,
              "position": 0.71875,
              "duration": 0.5833333333333334
            },
            {
              "pitch": 57,
              "velocity": 60,
              "position": 1.125,
              "duration": 0.3541666666666667
            },
            {
              "pitch": 69,
              "velocity": 71,
              "position": 1.21875,
              "duration": 0.3020833333333333
            },
            {
              "pitch": 55,
              "velocity": 55,
              "position": 1.40625,
              "duration": 0.2604166666666667
            },
            {
              "pitch": 67,
              "velocity": 60,
              "position": 1.3958333333333333,
              "duration": 0.3125
            },
            {
              "pitch": 63,
              "velocity": 67,
              "position": 1.5833333333333333,
              "duration": 0.20833333333333334
            },
            {
              "pitch": 51,
              "velocity": 60,
              "position": 1.53125,
              "duration": 0.3125
            },
            {
              "pitch": 60,
              "velocity": 67,
              "position": 1.7708333333333333,
              "duration": 0.1875
            },
            {
              "pitch": 48,
              "velocity": 55,
              "position": 1.7604166666666667,
              "duration": 0.2916666666666667
            },
            {
              "pitch": 63,
              "velocity": 96,
              "position": 2.0208333333333335,
              "duration": 0.6458333333333334
            },
            {
              "pitch": 54,
              "velocity": 82,
              "position": 2.0104166666666665,
              "duration": 0.6666666666666666
            },
            {
              "pitch": 51,
              "velocity": 82,
              "position": 2.0208333333333335,
              "duration": 0.65625
            },
            {
              "pitch": 60,
              "velocity": 82,
              "position": 2.0208333333333335,
              "duration": 0.65625
            },
            {
              "pitch": 57,
              "velocity": 76,
              "position": 2.0416666666666665,
              "duration": 0.6354166666666666
            },
            {
              "pitch": 48,
              "velocity": 59,
              "position": 2.6875,
              "duration": 0.3125
            },
            {
              "pitch": 51,
              "velocity": 53,
              "position": 2.6875,
              "duration": 0.3125
            },
            {
              "pitch": 54,
              "velocity": 53,
              "position": 2.6875,
              "duration": 0.3125
            },
            {
              "pitch": 57,
              "velocity": 53,
              "position": 2.6875,
              "duration": 0.3125
            },
            {
              "pitch": 60,
              "velocity": 60,
              "position": 2.6875,
              "duration": 0.3125
            },
            {
              "pitch": 59,
              "velocity": 74,
              "position": 2.9895833333333335,
              "duration": 0.3333333333333333
            },
            {
              "pitch": 50,
              "velocity": 73,
              "position": 3.03125,
              "duration": 0.3125
            },
            {
              "pitch": 62,
              "velocity": 92,
              "position": 3,
              "duration": 0.3541666666666667
            },
            {
              "pitch": 53,
              "velocity": 68,
              "position": 3.0104166666666665,
              "duration": 0.375
            },
            {
              "pitch": 56,
              "velocity": 72,
              "position": 2.9895833333333335,
              "duration": 0.4166666666666667
            },
            {
              "pitch": 51,
              "velocity": 86,
              "position": 3.9895833333333335,
              "duration": 0.71875
            },
            {
              "pitch": 54,
              "velocity": 77,
              "position": 3.9895833333333335,
              "duration": 0.71875
            },
            {
              "pitch": 57,
              "velocity": 79,
              "position": 4,
              "duration": 0.7083333333333334
            },
            {
              "pitch": 60,
              "velocity": 83,
              "position": 4,
              "duration": 0.7083333333333334
            },
            {
              "pitch": 63,
              "velocity": 97,
              "position": 4,
              "duration": 0.7916666666666666
            },
            {
              "pitch": 51,
              "velocity": 60,
              "position": 4.71875,
              "duration": 0.3125
            },
            {
              "pitch": 54,
              "velocity": 60,
              "position": 4.71875,
              "duration": 0.3125
            },
            {
              "pitch": 57,
              "velocity": 60,
              "position": 4.71875,
              "duration": 0.3125
            },
            {
              "pitch": 60,
              "velocity": 67,
              "position": 4.71875,
              "duration": 0.3125
            },
            {
              "pitch": 48,
              "velocity": 60,
              "position": 4.739583333333333,
              "duration": 0.3125
            },
            {
              "pitch": 59,
              "velocity": 81,
              "position": 5.010416666666667,
              "duration": 0.3645833333333333
            },
            {
              "pitch": 50,
              "velocity": 66,
              "position": 5.052083333333333,
              "duration": 0.34375
            },
            {
              "pitch": 62,
              "velocity": 88,
              "position": 5.010416666666667,
              "duration": 0.3854166666666667
            },
            {
              "pitch": 56,
              "velocity": 65,
              "position": 5.010416666666667,
              "duration": 0.4270833333333333
            },
            {
              "pitch": 53,
              "velocity": 73,
              "position": 5.041666666666667,
              "duration": 0.4166666666666667
            },
            {
              "pitch": 51,
              "velocity": 82,
              "position": 6.020833333333333,
              "duration": 0.6979166666666666
            },
            {
              "pitch": 54,
              "velocity": 77,
              "position": 6.020833333333333,
              "duration": 0.6979166666666666
            },
            {
              "pitch": 57,
              "velocity": 87,
              "position": 6.03125,
              "duration": 0.6875
            },
            {
              "pitch": 60,
              "velocity": 86,
              "position": 6.041666666666667,
              "duration": 0.6770833333333334
            },
            {
              "pitch": 63,
              "velocity": 98,
              "position": 6.03125,
              "duration": 0.78125
            },
            {
              "pitch": 51,
              "velocity": 51,
              "position": 6.729166666666667,
              "duration": 0.3125
            },
            {
              "pitch": 54,
              "velocity": 51,
              "position": 6.729166666666667,
              "duration": 0.3125
            },
            {
              "pitch": 57,
              "velocity": 51,
              "position": 6.729166666666667,
              "duration": 0.3125
            },
            {
              "pitch": 60,
              "velocity": 58,
              "position": 6.729166666666667,
              "duration": 0.3125
            },
            {
              "pitch": 48,
              "velocity": 51,
              "position": 6.739583333333333,
              "duration": 0.3125
            },
            {
              "pitch": 62,
              "velocity": 96,
              "position": 7.020833333333333,
              "duration": 0.59375
            },
            {
              "pitch": 59,
              "velocity": 83,
              "position": 7.020833333333333,
              "duration": 0.6041666666666666
            },
            {
              "pitch": 56,
              "velocity": 64,
              "position": 7.020833333333333,
              "duration": 0.6354166666666666
            },
            {
              "pitch": 53,
              "velocity": 76,
              "position": 7.020833333333333,
              "duration": 0.7083333333333334
            },
            {
              "pitch": 50,
              "velocity": 68,
              "position": 7.041666666666667,
              "duration": 0.7083333333333334
            },
            {
              "pitch": 57,
              "velocity": 86,
              "position": 7.75,
              "duration": 0.3229166666666667
            },
            {
              "pitch": 51,
              "velocity": 79,
              "position": 7.75,
              "duration": 0.34375
            },
            {
              "pitch": 55,
              "velocity": 73,
              "position": 7.75,
              "duration": 0.34375
            },
            {
              "pitch": 48,
              "velocity": 76,
              "position": 7.739583333333333,
              "duration": 0.3645833333333333
            },
            {
              "pitch": 60,
              "velocity": 97,
              "position": 7.75,
              "duration": 0.3541666666666667
            },
            {
              "pitch": 60,
              "velocity": 77,
              "position": 15.729166666666666,
              "duration": 0.2916666666666667
            },
            {
              "pitch": 69,
              "velocity": 81,
              "position": 15.729166666666666,
              "duration": 0.2916666666666667
            },
            {
              "pitch": 67,
              "velocity": 82,
              "position": 15.71875,
              "duration": 0.3125
            },
            {
              "pitch": 63,
              "velocity": 80,
              "position": 15.729166666666666,
              "duration": 0.3020833333333333
            },
            {
              "pitch": 72,
              "velocity": 78,
              "position": 15.71875,
              "duration": 0.3229166666666667
            },
            {
              "pitch": 69,
              "velocity": 83,
              "position": 16.708333333333332,
              "duration": 0.20833333333333334
            },
            {
              "pitch": 67,
              "velocity": 85,
              "position": 16.697916666666668,
              "duration": 0.3854166666666667
            },
            {
              "pitch": 63,
              "velocity": 81,
              "position": 16.697916666666668,
              "duration": 0.4166666666666667
            },
            {
              "pitch": 60,
              "velocity": 81,
              "position": 16.697916666666668,
              "duration": 0.4270833333333333
            },
            {
              "pitch": 72,
              "velocity": 87,
              "position": 16.708333333333332,
              "duration": 0.5208333333333334
            },
            {
              "pitch": 69,
              "velocity": 66,
              "position": 17.177083333333332,
              "duration": 0.2604166666666667
            },
            {
              "pitch": 57,
              "velocity": 56,
              "position": 17.083333333333332,
              "duration": 0.3541666666666667
            },
            {
              "pitch": 55,
              "velocity": 51,
              "position": 17.385416666666668,
              "duration": 0.23958333333333334
            },
            {
              "pitch": 67,
              "velocity": 54,
              "position": 17.364583333333332,
              "duration": 0.28125
            },
            {
              "pitch": 63,
              "velocity": 51,
              "position": 17.53125,
              "duration": 0.19791666666666666
            },
            {
              "pitch": 51,
              "velocity": 41,
              "position": 17.489583333333332,
              "duration": 0.3229166666666667
            },
            {
              "pitch": 60,
              "velocity": 45,
              "position": 17.739583333333332,
              "duration": 0.17708333333333334
            },
            {
              "pitch": 48,
              "velocity": 47,
              "position": 17.729166666666668,
              "duration": 0.3229166666666667
            },
            {
              "pitch": 63,
              "velocity": 92,
              "position": 18,
              "duration": 0.6666666666666666
            },
            {
              "pitch": 54,
              "velocity": 78,
              "position": 18,
              "duration": 0.6770833333333334
            },
            {
              "pitch": 60,
              "velocity": 80,
              "position": 18,
              "duration": 0.6770833333333334
            },
            {
              "pitch": 51,
              "velocity": 81,
              "position": 18.010416666666668,
              "duration": 0.6666666666666666
            },
            {
              "pitch": 57,
              "velocity": 78,
              "position": 18.010416666666668,
              "duration": 0.6666666666666666
            },
            {
              "pitch": 48,
              "velocity": 64,
              "position": 18.677083333333332,
              "duration": 0.3125
            },
            {
              "pitch": 51,
              "velocity": 52,
              "position": 18.6875,
              "duration": 0.3125
            },
            {
              "pitch": 54,
              "velocity": 52,
              "position": 18.6875,
              "duration": 0.3125
            },
            {
              "pitch": 57,
              "velocity": 52,
              "position": 18.6875,
              "duration": 0.3125
            },
            {
              "pitch": 60,
              "velocity": 59,
              "position": 18.6875,
              "duration": 0.3125
            },
            {
              "pitch": 59,
              "velocity": 66,
              "position": 19,
              "duration": 0.375
            },
            {
              "pitch": 62,
              "velocity": 92,
              "position": 19.010416666666668,
              "duration": 0.375
            },
            {
              "pitch": 53,
              "velocity": 72,
              "position": 19,
              "duration": 0.3958333333333333
            },
            {
              "pitch": 50,
              "velocity": 83,
              "position": 19.010416666666668,
              "duration": 0.3958333333333333
            },
            {
              "pitch": 56,
              "velocity": 65,
              "position": 19,
              "duration": 0.4166666666666667
            },
            {
              "pitch": 51,
              "velocity": 85,
              "position": 20,
              "duration": 0.6770833333333334
            },
            {
              "pitch": 54,
              "velocity": 82,
              "position": 20,
              "duration": 0.6770833333333334
            },
            {
              "pitch": 57,
              "velocity": 81,
              "position": 20.020833333333332,
              "duration": 0.65625
            },
            {
              "pitch": 60,
              "velocity": 87,
              "position": 20.020833333333332,
              "duration": 0.65625
            },
            {
              "pitch": 63,
              "velocity": 97,
              "position": 20.010416666666668,
              "duration": 0.7708333333333334
            },
            {
              "pitch": 48,
              "velocity": 62,
              "position": 20.6875,
              "duration": 0.3125
            },
            {
              "pitch": 51,
              "velocity": 53,
              "position": 20.708333333333332,
              "duration": 0.3125
            },
            {
              "pitch": 54,
              "velocity": 53,
              "position": 20.708333333333332,
              "duration": 0.3125
            },
            {
              "pitch": 57,
              "velocity": 53,
              "position": 20.708333333333332,
              "duration": 0.3125
            },
            {
              "pitch": 60,
              "velocity": 60,
              "position": 20.708333333333332,
              "duration": 0.3125
            },
            {
              "pitch": 59,
              "velocity": 72,
              "position": 21.020833333333332,
              "duration": 0.3229166666666667
            },
            {
              "pitch": 62,
              "velocity": 89,
              "position": 21.020833333333332,
              "duration": 0.3645833333333333
            },
            {
              "pitch": 56,
              "velocity": 65,
              "position": 21.020833333333332,
              "duration": 0.375
            },
            {
              "pitch": 53,
              "velocity": 72,
              "position": 21.020833333333332,
              "duration": 0.3958333333333333
            },
            {
              "pitch": 50,
              "velocity": 71,
              "position": 21.03125,
              "duration": 0.3958333333333333
            },
            {
              "pitch": 51,
              "velocity": 86,
              "position": 22,
              "duration": 0.6666666666666666
            },
            {
              "pitch": 54,
              "velocity": 74,
              "position": 22,
              "duration": 0.6666666666666666
            },
            {
              "pitch": 60,
              "velocity": 86,
              "position": 22.010416666666668,
              "duration": 0.65625
            },
            {
              "pitch": 57,
              "velocity": 82,
              "position": 22.020833333333332,
              "duration": 0.6458333333333334
            },
            {
              "pitch": 63,
              "velocity": 98,
              "position": 22.020833333333332,
              "duration": 0.75
            },
            {
              "pitch": 48,
              "velocity": 66,
              "position": 22.677083333333332,
              "duration": 0.3125
            },
            {
              "pitch": 51,
              "velocity": 60,
              "position": 22.6875,
              "duration": 0.3125
            },
            {
              "pitch": 54,
              "velocity": 60,
              "position": 22.6875,
              "duration": 0.3125
            },
            {
              "pitch": 57,
              "velocity": 60,
              "position": 22.6875,
              "duration": 0.3125
            },
            {
              "pitch": 60,
              "velocity": 67,
              "position": 22.6875,
              "duration": 0.3125
            },
            {
              "pitch": 59,
              "velocity": 79,
              "position": 23.041666666666668,
              "duration": 0.4791666666666667
            },
            {
              "pitch": 62,
              "velocity": 92,
              "position": 23.041666666666668,
              "duration": 0.5
            },
            {
              "pitch": 56,
              "velocity": 63,
              "position": 23.03125,
              "duration": 0.5416666666666666
            },
            {
              "pitch": 53,
              "velocity": 68,
              "position": 23.020833333333332,
              "duration": 0.5729166666666666
            },
            {
              "pitch": 50,
              "velocity": 61,
              "position": 23.041666666666668,
              "duration": 0.59375
            },
            {
              "pitch": 57,
              "velocity": 87,
              "position": 23.6875,
              "duration": 0.25
            },
            {
              "pitch": 60,
              "velocity": 90,
              "position": 23.6875,
              "duration": 0.25
            },
            {
              "pitch": 55,
              "velocity": 77,
              "position": 23.697916666666668,
              "duration": 0.23958333333333334
            },
            {
              "pitch": 63,
              "velocity": 91,
              "position": 23.6875,
              "duration": 0.2708333333333333
            },
            {
              "pitch": 67,
              "velocity": 96,
              "position": 23.677083333333332,
              "duration": 0.3020833333333333
            }
          ]
        },
        "4": {
          "ctab": {
            "srcChannel": 4,
            "name": "Vib",
            "accType": "PAD",
            "editable": false,
            "mutedNotes": [],
            "mutedChords": [
              "1+2+5",
              "sus4",
              "1+5",
              "1+8",
              "7aug",
              "Maj7aug",
              "7(#9)",
              "7(b13)",
              "7(b9)",
              "7(13)",
              "7#11",
              "7(9)",
              "7b5",
              "7sus4",
              "7th",
              "aug",
              "Maj6(9)",
              "Maj7(9)",
              "Maj(9)",
              "Maj7#11",
              "Maj7",
              "Maj6",
              "Maj"
            ],
            "autoStart": false,
            "sourceChordNote": 0,
            "sourceChordType": "min",
            "ctb2Low": null,
            "ctb2Main": {
              "ntr": "ROOT_TRANSPOSITION",
              "ntt": "BYPASS",
              "bassOn": false,
              "chordRootUpperLimit": 10,
              "noteLowLimit": 0,
              "noteHighLimit": 127,
              "rtr": "PITCH_SHIFT"
            },
            "ctb2High": null
          },
          "notes": [
            {
              "pitch": 72,
              "velocity": 84,
              "position": 0.6875,
              "duration": 0.5729166666666666
            },
            {
              "pitch": 69,
              "velocity": 26,
              "position": 1.40625,
              "duration": 0.11458333333333333
            },
            {
              "pitch": 67,
              "velocity": 58,
              "position": 1.4270833333333333,
              "duration": 0.2916666666666667
            },
            {
              "pitch": 63,
              "velocity": 50,
              "position": 1.65625,
              "duration": 0.15625
            },
            {
              "pitch": 60,
              "velocity": 63,
              "position": 1.8541666666666667,
              "duration": 0.10416666666666667
            },
            {
              "pitch": 63,
              "velocity": 76,
              "position": 2.0416666666666665,
              "duration": 0.6354166666666666
            },
            {
              "pitch": 60,
              "velocity": 42,
              "position": 2.7291666666666665,
              "duration": 0.10416666666666667
            },
            {
              "pitch": 62,
              "velocity": 82,
              "position": 3,
              "duration": 0.46875
            },
            {
              "pitch": 63,
              "velocity": 80,
              "position": 4.0625,
              "duration": 0.6041666666666666
            },
            {
              "pitch": 60,
              "velocity": 48,
              "position": 4.708333333333333,
              "duration": 0.15625
            },
            {
              "pitch": 62,
              "velocity": 76,
              "position": 5,
              "duration": 0.4270833333333333
            },
            {
              "pitch": 63,
              "velocity": 80,
              "position": 5.989583333333333,
              "duration": 0.4166666666666667
            },
            {
              "pitch": 65,
              "velocity": 43,
              "position": 6.416666666666667,
              "duration": 0.19791666666666666
            },
            {
              "pitch": 63,
              "velocity": 27,
              "position": 6.59375,
              "duration": 0.15625
            },
            {
              "pitch": 60,
              "velocity": 41,
              "position": 6.770833333333333,
              "duration": 0.052083333333333336
            },
            {
              "pitch": 62,
              "velocity": 82,
              "position": 7.052083333333333,
              "duration": 0.5520833333333334
            },
            {
              "pitch": 60,
              "velocity": 82,
              "position": 7.71875,
              "duration": 0.3125
            },
            {
              "pitch": 72,
              "velocity": 83,
              "position": 15.71875,
              "duration": 0.3333333333333333
            },
            {
              "pitch": 72,
              "velocity": 83,
              "position": 16.708333333333332,
              "duration": 0.4375
            },
            {
              "pitch": 69,
              "velocity": 41,
              "position": 17.177083333333332,
              "duration": 0.22916666666666666
            },
            {
              "pitch": 67,
              "velocity": 60,
              "position": 17.302083333333332,
              "duration": 0.2916666666666667
            },
            {
              "pitch": 63,
              "velocity": 44,
              "position": 17.583333333333332,
              "duration": 0.16666666666666666
            },
            {
              "pitch": 60,
              "velocity": 69,
              "position": 17.760416666666668,
              "duration": 0.13541666666666666
            },
            {
              "pitch": 63,
              "velocity": 73,
              "position": 18.041666666666668,
              "duration": 0.6458333333333334
            },
            {
              "pitch": 60,
              "velocity": 44,
              "position": 18.71875,
              "duration": 0.125
            },
            {
              "pitch": 62,
              "velocity": 82,
              "position": 18.989583333333332,
              "duration": 0.4583333333333333
            },
            {
              "pitch": 63,
              "velocity": 80,
              "position": 20.03125,
              "duration": 0.6979166666666666
            },
            {
              "pitch": 60,
              "velocity": 39,
              "position": 20.770833333333332,
              "duration": 0.08333333333333333
            },
            {
              "pitch": 62,
              "velocity": 82,
              "position": 21.010416666666668,
              "duration": 0.4270833333333333
            },
            {
              "pitch": 63,
              "velocity": 80,
              "position": 21.979166666666668,
              "duration": 0.4583333333333333
            },
            {
              "pitch": 65,
              "velocity": 48,
              "position": 22.447916666666668,
              "duration": 0.21875
            },
            {
              "pitch": 63,
              "velocity": 37,
              "position": 22.635416666666668,
              "duration": 0.21875
            },
            {
              "pitch": 60,
              "velocity": 49,
              "position": 22.770833333333332,
              "duration": 0.10416666666666667
            },
            {
              "pitch": 62,
              "velocity": 63,
              "position": 23.083333333333332,
              "duration": 0.5520833333333334
            },
            {
              "pitch": 67,
              "velocity": 88,
              "position": 23.760416666666668,
              "duration": 0.3645833333333333
            },
            {
              "pitch": 55,
              "velocity": 72,
              "position": 25.708333333333332,
              "duration": 1.3229166666666667
            },
            {
              "pitch": 61,
              "velocity": 72,
              "position": 25.708333333333332,
              "duration": 1.3229166666666667
            },
            {
              "pitch": 65,
              "velocity": 62,
              "position": 25.708333333333332,
              "duration": 1.3229166666666667
            },
            {
              "pitch": 72,
              "velocity": 76,
              "position": 25.708333333333332,
              "duration": 1.3229166666666667
            },
            {
              "pitch": 54,
              "velocity": 63,
              "position": 27.708333333333332,
              "duration": 1.3229166666666667
            },
            {
              "pitch": 60,
              "velocity": 67,
              "position": 27.708333333333332,
              "duration": 1.3229166666666667
            },
            {
              "pitch": 65,
              "velocity": 53,
              "position": 27.708333333333332,
              "duration": 1.3229166666666667
            },
            {
              "pitch": 70,
              "velocity": 63,
              "position": 27.708333333333332,
              "duration": 1.3229166666666667
            },
            {
              "pitch": 53,
              "velocity": 63,
              "position": 29.708333333333332,
              "duration": 1.9895833333333333
            },
            {
              "pitch": 59,
              "velocity": 60,
              "position": 29.708333333333332,
              "duration": 1.9895833333333333
            },
            {
              "pitch": 63,
              "velocity": 45,
              "position": 29.708333333333332,
              "duration": 1.9895833333333333
            },
            {
              "pitch": 68,
              "velocity": 49,
              "position": 29.708333333333332,
              "duration": 1.9895833333333333
            }
          ]
        },
        "5": {
          "ctab": {
            "srcChannel": 5,
            "name": "Pno",
            "accType": "CHORD2",
            "editable": false,
            "mutedNotes": [],
            "mutedChords": [
              "1+2+5",
              "sus4",
              "1+5",
              "1+8",
              "7aug",
              "Maj7aug",
              "7(#9)",
              "7(b13)",
              "7(b9)",
              "7(13)",
              "7#11",
              "7(9)",
              "7b5",
              "7sus4",
              "7th",
              "aug",
              "Maj6(9)",
              "Maj7(9)",
              "Maj(9)",
              "Maj7#11",
              "Maj7",
              "Maj6",
              "Maj"
            ],
            "autoStart": false,
            "sourceChordNote": 0,
            "sourceChordType": "min",
            "ctb2Low": null,
            "ctb2Main": {
              "ntr": "ROOT_TRANSPOSITION",
              "ntt": "BYPASS",
              "bassOn": false,
              "chordRootUpperLimit": 10,
              "noteLowLimit": 54,
              "noteHighLimit": 65,
              "rtr": "PITCH_SHIFT"
            },
            "ctb2High": null
          },
          "notes": [
            {
              "pitch": 43,
              "velocity": 80,
              "position": 25.708333333333332,
              "duration": 1.4166666666666667
            },
            {
              "pitch": 49,
              "velocity": 80,
              "position": 25.708333333333332,
              "duration": 1.5416666666666667
            },
            {
              "pitch": 53,
              "velocity": 71,
              "position": 25.708333333333332,
              "duration": 1.5416666666666667
            },
            {
              "pitch": 48,
              "velocity": 94,
              "position": 25.708333333333332,
              "duration": 1.65625
            },
            {
              "pitch": 46,
              "velocity": 79,
              "position": 27.708333333333332,
              "duration": 1.3645833333333333
            },
            {
              "pitch": 42,
              "velocity": 73,
              "position": 27.708333333333332,
              "duration": 1.375
            },
            {
              "pitch": 48,
              "velocity": 75,
              "position": 27.708333333333332,
              "duration": 1.375
            },
            {
              "pitch": 53,
              "velocity": 67,
              "position": 27.708333333333332,
              "duration": 1.3854166666666667
            },
            {
              "pitch": 51,
              "velocity": 59,
              "position": 29.708333333333332,
              "duration": 1.7604166666666667
            },
            {
              "pitch": 47,
              "velocity": 70,
              "position": 29.708333333333332,
              "duration": 1.78125
            },
            {
              "pitch": 53,
              "velocity": 73,
              "position": 29.708333333333332,
              "duration": 1.78125
            },
            {
              "pitch": 44,
              "velocity": 76,
              "position": 29.708333333333332,
              "duration": 1.7916666666666667
            }
          ]
        },
        "9": {
          "ctab": {
            "srcChannel": 9,
            "name": "Drums",
            "accType": "RHYTHM",
            "editable": false,
            "mutedNotes": [],
            "mutedChords": [],
            "autoStart": true,
            "sourceChordNote": 0,
            "sourceChordType": "Maj7",
            "ctb2Low": null,
            "ctb2Main": {
              "ntr": "ROOT_FIXED",
              "ntt": "BYPASS",
              "bassOn": false,
              "chordRootUpperLimit": 6,
              "noteLowLimit": 0,
              "noteHighLimit": 127,
              "rtr": "PITCH_SHIFT"
            },
            "ctb2High": null
          },
          "notes": [
            {
              "pitch": 40,
              "velocity": 13,
              "position": 0,
              "duration": 0.010416666666666666
            },
            {
              "pitch": 26,
              "velocity": 30,
              "position": 0,
              "duration": 0.9895833333333334
            },
            {
              "pitch": 36,
              "velocity": 60,
              "position": 1,
              "duration": 0.010416666666666666
            },
            {
              "pitch": 38,
              "velocity": 40,
              "position": 1,
              "duration": 0.010416666666666666
            },
            {
              "pitch": 44,
              "velocity": 51,
              "position": 1,
              "duration": 0.010416666666666666
            },
            {
              "pitch": 59,
              "velocity": 48,
              "position": 1,
              "duration": 0.010416666666666666
            },
            {
              "pitch": 26,
              "velocity": 30,
              "position": 1,
              "duration": 0.9895833333333334
            },
            {
              "pitch": 28,
              "velocity": 40,
              "position": 1.6666666666666667,
              "duration": 0.3229166666666667
            },
            {
              "pitch": 40,
              "velocity": 13,
              "position": 2,
              "duration": 0.010416666666666666
            },
            {
              "pitch": 26,
              "velocity": 30,
              "position": 2,
              "duration": 0.9895833333333334
            },
            {
              "pitch": 36,
              "velocity": 60,
              "position": 3,
              "duration": 0.010416666666666666
            },
            {
              "pitch": 38,
              "velocity": 40,
              "position": 3,
              "duration": 0.010416666666666666
            },
            {
              "pitch": 44,
              "velocity": 51,
              "position": 3,
              "duration": 0.010416666666666666
            },
            {
              "pitch": 59,
              "velocity": 46,
              "position": 3,
              "duration": 0.010416666666666666
            },
            {
              "pitch": 26,
              "velocity": 30,
              "position": 3,
              "duration": 0.9895833333333334
            },
            {
              "pitch": 28,
              "velocity": 40,
              "position": 3.6666666666666665,
              "duration": 0.3229166666666667
            },
            {
              "pitch": 40,
              "velocity": 13,
              "position": 4,
              "duration": 0.010416666666666666
            },
            {
              "pitch": 26,
              "velocity": 30,
              "position": 4,
              "duration": 0.9895833333333334
            },
            {
              "pitch": 36,
              "velocity": 60,
              "position": 5,
              "duration": 0.010416666666666666
            },
            {
              "pitch": 38,
              "velocity": 40,
              "position": 5,
              "duration": 0.010416666666666666
            },
            {
              "pitch": 44,
              "velocity": 51,
              "position": 5,
              "duration": 0.010416666666666666
            },
            {
              "pitch": 59,
              "velocity": 43,
              "position": 5,
              "duration": 0.010416666666666666
            },
            {
              "pitch": 26,
              "velocity": 30,
              "position": 5,
              "duration": 0.9895833333333334
            },
            {
              "pitch": 28,
              "velocity": 40,
              "position": 5.666666666666667,
              "duration": 0.3229166666666667
            },
            {
              "pitch": 40,
              "velocity": 13,
              "position": 6,
              "duration": 0.010416666666666666
            },
            {
              "pitch": 26,
              "velocity": 30,
              "position": 6,
              "duration": 0.9895833333333334
            },
            {
              "pitch": 36,
              "velocity": 60,
              "position": 7,
              "duration": 0.010416666666666666
            },
            {
              "pitch": 38,
              "velocity": 40,
              "position": 7,
              "duration": 0.010416666666666666
            },
            {
              "pitch": 44,
              "velocity": 51,
              "position": 7,
              "duration": 0.010416666666666666
            },
            {
              "pitch": 59,
              "velocity": 46,
              "position": 7,
              "duration": 0.010416666666666666
            },
            {
              "pitch": 40,
              "velocity": 93,
              "position": 7.666666666666667,
              "duration": 0.010416666666666666
            },
            {
              "pitch": 26,
              "velocity": 30,
              "position": 7,
              "duration": 0.9895833333333334
            },
            {
              "pitch": 28,
              "velocity": 40,
              "position": 7.666666666666667,
              "duration": 0.3229166666666667
            },
            {
              "pitch": 40,
              "velocity": 13,
              "position": 8,
              "duration": 0.010416666666666666
            },
            {
              "pitch": 26,
              "velocity": 30,
              "position": 8,
              "duration": 0.9895833333333334
            },
            {
              "pitch": 36,
              "velocity": 60,
              "position": 9,
              "duration": 0.010416666666666666
            },
            {
              "pitch": 44,
              "velocity": 51,
              "position": 9,
              "duration": 0.010416666666666666
            },
            {
              "pitch": 59,
              "velocity": 50,
              "position": 9,
              "duration": 0.010416666666666666
            },
            {
              "pitch": 28,
              "velocity": 40,
              "position": 9.333333333333334,
              "duration": 0.3229166666666667
            },
            {
              "pitch": 40,
              "velocity": 93,
              "position": 9.666666666666666,
              "duration": 0.010416666666666666
            },
            {
              "pitch": 26,
              "velocity": 30,
              "position": 9,
              "duration": 0.9895833333333334
            },
            {
              "pitch": 38,
              "velocity": 40,
              "position": 10,
              "duration": 0.010416666666666666
            },
            {
              "pitch": 28,
              "velocity": 40,
              "position": 10.333333333333334,
              "duration": 0.3229166666666667
            },
            {
              "pitch": 40,
              "velocity": 93,
              "position": 10.666666666666666,
              "duration": 0.010416666666666666
            },
            {
              "pitch": 26,
              "velocity": 30,
              "position": 10,
              "duration": 0.9895833333333334
            },
            {
              "pitch": 36,
              "velocity": 60,
              "position": 11,
              "duration": 0.010416666666666666
            },
            {
              "pitch": 44,
              "velocity": 51,
              "position": 11,
              "duration": 0.010416666666666666
            },
            {
              "pitch": 59,
              "velocity": 48,
              "position": 11,
              "duration": 0.010416666666666666
            },
            {
              "pitch": 28,
              "velocity": 40,
              "position": 11.333333333333334,
              "duration": 0.3229166666666667
            },
            {
              "pitch": 38,
              "velocity": 40,
              "position": 11.666666666666666,
              "duration": 0.010416666666666666
            },
            {
              "pitch": 26,
              "velocity": 30,
              "position": 11,
              "duration": 0.9895833333333334
            },
            {
              "pitch": 40,
              "velocity": 13,
              "position": 12,
              "duration": 0.010416666666666666
            },
            {
              "pitch": 28,
              "velocity": 40,
              "position": 12.333333333333334,
              "duration": 0.3229166666666667
            },
            {
              "pitch": 38,
              "velocity": 40,
              "position": 12.666666666666666,
              "duration": 0.010416666666666666
            },
            {
              "pitch": 26,
              "velocity": 30,
              "position": 12,
              "duration": 0.9895833333333334
            },
            {
              "pitch": 36,
              "velocity": 60,
              "position": 13,
              "duration": 0.010416666666666666
            },
            {
              "pitch": 44,
              "velocity": 51,
              "position": 13,
              "duration": 0.010416666666666666
            },
            {
              "pitch": 59,
              "velocity": 46,
              "position": 13,
              "duration": 0.010416666666666666
            },
            {
              "pitch": 28,
              "velocity": 40,
              "position": 13.333333333333334,
              "duration": 0.3229166666666667
            },
            {
              "pitch": 47,
              "velocity": 52,
              "position": 13.666666666666666,
              "duration": 0.010416666666666666
            },
            {
              "pitch": 26,
              "velocity": 30,
              "position": 13,
              "duration": 0.9895833333333334
            },
            {
              "pitch": 38,
              "velocity": 40,
              "position": 14,
              "duration": 0.010416666666666666
            },
            {
              "pitch": 28,
              "velocity": 40,
              "position": 14.333333333333334,
              "duration": 0.3229166666666667
            },
            {
              "pitch": 45,
              "velocity": 58,
              "position": 14.666666666666666,
              "duration": 0.010416666666666666
            },
            {
              "pitch": 26,
              "velocity": 30,
              "position": 14,
              "duration": 0.9895833333333334
            },
            {
              "pitch": 36,
              "velocity": 60,
              "position": 15,
              "duration": 0.010416666666666666
            },
            {
              "pitch": 44,
              "velocity": 51,
              "position": 15,
              "duration": 0.010416666666666666
            },
            {
              "pitch": 59,
              "velocity": 44,
              "position": 15,
              "duration": 0.010416666666666666
            },
            {
              "pitch": 40,
              "velocity": 13,
              "position": 15.333333333333334,
              "duration": 0.010416666666666666
            },
            {
              "pitch": 28,
              "velocity": 40,
              "position": 15.333333333333334,
              "duration": 0.3229166666666667
            },
            {
              "pitch": 40,
              "velocity": 93,
              "position": 15.666666666666666,
              "duration": 0.010416666666666666
            },
            {
              "pitch": 26,
              "velocity": 30,
              "position": 15,
              "duration": 0.9895833333333334
            },
            {
              "pitch": 40,
              "velocity": 13,
              "position": 16.333333333333332,
              "duration": 0.010416666666666666
            },
            {
              "pitch": 40,
              "velocity": 13,
              "position": 16.5,
              "duration": 0.010416666666666666
            },
            {
              "pitch": 40,
              "velocity": 93,
              "position": 16.666666666666668,
              "duration": 0.010416666666666666
            },
            {
              "pitch": 26,
              "velocity": 30,
              "position": 16,
              "duration": 0.9895833333333334
            },
            {
              "pitch": 36,
              "velocity": 60,
              "position": 17,
              "duration": 0.010416666666666666
            },
            {
              "pitch": 38,
              "velocity": 40,
              "position": 17,
              "duration": 0.010416666666666666
            },
            {
              "pitch": 44,
              "velocity": 51,
              "position": 17,
              "duration": 0.010416666666666666
            },
            {
              "pitch": 59,
              "velocity": 50,
              "position": 17,
              "duration": 0.010416666666666666
            },
            {
              "pitch": 26,
              "velocity": 30,
              "position": 17,
              "duration": 0.9895833333333334
            },
            {
              "pitch": 28,
              "velocity": 40,
              "position": 17.666666666666668,
              "duration": 0.3229166666666667
            },
            {
              "pitch": 40,
              "velocity": 13,
              "position": 18,
              "duration": 0.010416666666666666
            },
            {
              "pitch": 26,
              "velocity": 30,
              "position": 18,
              "duration": 0.9895833333333334
            },
            {
              "pitch": 36,
              "velocity": 60,
              "position": 19,
              "duration": 0.010416666666666666
            },
            {
              "pitch": 38,
              "velocity": 40,
              "position": 19,
              "duration": 0.010416666666666666
            },
            {
              "pitch": 44,
              "velocity": 51,
              "position": 19,
              "duration": 0.010416666666666666
            },
            {
              "pitch": 59,
              "velocity": 61,
              "position": 19,
              "duration": 0.010416666666666666
            },
            {
              "pitch": 26,
              "velocity": 30,
              "position": 19,
              "duration": 0.9895833333333334
            },
            {
              "pitch": 28,
              "velocity": 40,
              "position": 19.666666666666668,
              "duration": 0.3229166666666667
            },
            {
              "pitch": 40,
              "velocity": 13,
              "position": 20,
              "duration": 0.010416666666666666
            },
            {
              "pitch": 26,
              "velocity": 30,
              "position": 20,
              "duration": 0.9895833333333334
            },
            {
              "pitch": 36,
              "velocity": 60,
              "position": 21,
              "duration": 0.010416666666666666
            },
            {
              "pitch": 38,
              "velocity": 40,
              "position": 21,
              "duration": 0.010416666666666666
            },
            {
              "pitch": 44,
              "velocity": 51,
              "position": 21,
              "duration": 0.010416666666666666
            },
            {
              "pitch": 59,
              "velocity": 59,
              "position": 21,
              "duration": 0.010416666666666666
            },
            {
              "pitch": 26,
              "velocity": 30,
              "position": 21,
              "duration": 0.9895833333333334
            },
            {
              "pitch": 28,
              "velocity": 40,
              "position": 21.666666666666668,
              "duration": 0.3229166666666667
            },
            {
              "pitch": 40,
              "velocity": 13,
              "position": 22,
              "duration": 0.010416666666666666
            },
            {
              "pitch": 46,
              "velocity": 60,
              "position": 22.666666666666668,
              "duration": 0.010416666666666666
            },
            {
              "pitch": 26,
              "velocity": 30,
              "position": 22,
              "duration": 0.9895833333333334
            },
            {
              "pitch": 38,
              "velocity": 40,
              "position": 23,
              "duration": 0.010416666666666666
            },
            {
              "pitch": 40,
              "velocity": 93,
              "position": 23,
              "duration": 0.010416666666666666
            },
            {
              "pitch": 44,
              "velocity": 51,
              "position": 23,
              "duration": 0.010416666666666666
            },
            {
              "pitch": 59,
              "velocity": 54,
              "position": 23,
              "duration": 0.010416666666666666
            },
            {
              "pitch": 36,
              "velocity": 60,
              "position": 23.666666666666668,
              "duration": 0.010416666666666666
            },
            {
              "pitch": 59,
              "velocity": 62,
              "position": 23.666666666666668,
              "duration": 0.010416666666666666
            },
            {
              "pitch": 26,
              "velocity": 30,
              "position": 23,
              "duration": 0.9895833333333334
            },
            {
              "pitch": 28,
              "velocity": 40,
              "position": 23.666666666666668,
              "duration": 0.3229166666666667
            },
            {
              "pitch": 26,
              "velocity": 30,
              "position": 24,
              "duration": 0.9895833333333334
            },
            {
              "pitch": 44,
              "velocity": 51,
              "position": 25,
              "duration": 0.010416666666666666
            },
            {
              "pitch": 59,
              "velocity": 25,
              "position": 25,
              "duration": 0.010416666666666666
            },
            {
              "pitch": 40,
              "velocity": 93,
              "position": 25.666666666666668,
              "duration": 0.010416666666666666
            },
            {
              "pitch": 59,
              "velocity": 74,
              "position": 25.666666666666668,
              "duration": 0.010416666666666666
            },
            {
              "pitch": 26,
              "velocity": 30,
              "position": 25,
              "duration": 0.9895833333333334
            },
            {
              "pitch": 59,
              "velocity": 8,
              "position": 26,
              "duration": 0.010416666666666666
            },
            {
              "pitch": 26,
              "velocity": 30,
              "position": 26,
              "duration": 0.9895833333333334
            },
            {
              "pitch": 44,
              "velocity": 51,
              "position": 27,
              "duration": 0.010416666666666666
            },
            {
              "pitch": 59,
              "velocity": 23,
              "position": 27,
              "duration": 0.010416666666666666
            },
            {
              "pitch": 40,
              "velocity": 93,
              "position": 27.666666666666668,
              "duration": 0.010416666666666666
            },
            {
              "pitch": 59,
              "velocity": 74,
              "position": 27.666666666666668,
              "duration": 0.010416666666666666
            },
            {
              "pitch": 26,
              "velocity": 30,
              "position": 27,
              "duration": 0.9895833333333334
            },
            {
              "pitch": 59,
              "velocity": 5,
              "position": 28,
              "duration": 0.010416666666666666
            },
            {
              "pitch": 26,
              "velocity": 30,
              "position": 28,
              "duration": 0.9895833333333334
            },
            {
              "pitch": 44,
              "velocity": 51,
              "position": 29,
              "duration": 0.010416666666666666
            },
            {
              "pitch": 59,
              "velocity": 24,
              "position": 29,
              "duration": 0.010416666666666666
            },
            {
              "pitch": 40,
              "velocity": 93,
              "position": 29.666666666666668,
              "duration": 0.010416666666666666
            },
            {
              "pitch": 59,
              "velocity": 70,
              "position": 29.666666666666668,
              "duration": 0.010416666666666666
            },
            {
              "pitch": 26,
              "velocity": 30,
              "position": 29,
              "duration": 0.9895833333333334
            },
            {
              "pitch": 40,
              "velocity": 93,
              "position": 30.666666666666668,
              "duration": 0.010416666666666666
            },
            {
              "pitch": 38,
              "velocity": 40,
              "position": 30.833333333333332,
              "duration": 0.010416666666666666
            },
            {
              "pitch": 26,
              "velocity": 30,
              "position": 30,
              "duration": 0.9895833333333334
            },
            {
              "pitch": 38,
              "velocity": 30,
              "position": 31,
              "duration": 0.010416666666666666
            },
            {
              "pitch": 44,
              "velocity": 51,
              "position": 31,
              "duration": 0.010416666666666666
            },
            {
              "pitch": 38,
              "velocity": 20,
              "position": 31.166666666666668,
              "duration": 0.010416666666666666
            },
            {
              "pitch": 38,
              "velocity": 20,
              "position": 31.333333333333332,
              "duration": 0.010416666666666666
            },
            {
              "pitch": 29,
              "velocity": 40,
              "position": 30.666666666666668,
              "duration": 0.7395833333333334
            },
            {
              "pitch": 38,
              "velocity": 30,
              "position": 31.5,
              "duration": 0.010416666666666666
            },
            {
              "pitch": 38,
              "velocity": 40,
              "position": 31.666666666666668,
              "duration": 0.010416666666666666
            },
            {
              "pitch": 26,
              "velocity": 30,
              "position": 31,
              "duration": 0.9895833333333334
            },
            {
              "pitch": 28,
              "velocity": 40,
              "position": 31.666666666666668,
              "duration": 0.3229166666666667
            }
          ]
        },
        "10": {
          "ctab": {
            "srcChannel": 10,
            "name": "Bass",
            "accType": "BASS",
            "editable": false,
            "mutedNotes": [],
            "mutedChords": [
              "dim7",
              "dim",
              "minMaj7(9)",
              "minMaj7",
              "min7(11)",
              "min7(9)",
              "min(9)",
              "m7b5",
              "min7",
              "min6",
              "min"
            ],
            "autoStart": false,
            "sourceChordNote": 0,
            "sourceChordType": "Maj",
            "ctb2Low": null,
            "ctb2Main": {
              "ntr": "ROOT_TRANSPOSITION",
              "ntt": "BYPASS",
              "bassOn": false,
              "chordRootUpperLimit": 9,
              "noteLowLimit": 28,
              "noteHighLimit": 44,
              "rtr": "PITCH_SHIFT"
            },
            "ctb2High": null
          },
          "notes": [
            {
              "pitch": 31,
              "velocity": 50,
              "position": 1,
              "duration": 1.84375
            },
            {
              "pitch": 31,
              "velocity": 50,
              "position": 3,
              "duration": 1.8541666666666667
            },
            {
              "pitch": 31,
              "velocity": 50,
              "position": 5,
              "duration": 1.8541666666666667
            },
            {
              "pitch": 31,
              "velocity": 50,
              "position": 7,
              "duration": 1.8541666666666667
            },
            {
              "pitch": 31,
              "velocity": 50,
              "position": 9,
              "duration": 1.8541666666666667
            },
            {
              "pitch": 31,
              "velocity": 50,
              "position": 11,
              "duration": 1.8958333333333333
            },
            {
              "pitch": 31,
              "velocity": 50,
              "position": 13,
              "duration": 1.8541666666666667
            },
            {
              "pitch": 31,
              "velocity": 50,
              "position": 15,
              "duration": 1.53125
            },
            {
              "pitch": 31,
              "velocity": 100,
              "position": 16.677083333333332,
              "duration": 0.1875
            },
            {
              "pitch": 31,
              "velocity": 50,
              "position": 17,
              "duration": 1.84375
            },
            {
              "pitch": 31,
              "velocity": 50,
              "position": 19,
              "duration": 1.8854166666666667
            },
            {
              "pitch": 31,
              "velocity": 50,
              "position": 21,
              "duration": 1.8645833333333333
            },
            {
              "pitch": 40,
              "velocity": 50,
              "position": 24,
              "duration": 0.90625
            },
            {
              "pitch": 32,
              "velocity": 50,
              "position": 25,
              "duration": 0.8958333333333334
            },
            {
              "pitch": 33,
              "velocity": 50,
              "position": 26,
              "duration": 0.90625
            },
            {
              "pitch": 37,
              "velocity": 50,
              "position": 27,
              "duration": 0.8854166666666666
            },
            {
              "pitch": 37,
              "velocity": 50,
              "position": 28,
              "duration": 0.90625
            },
            {
              "pitch": 30,
              "velocity": 50,
              "position": 29,
              "duration": 0.90625
            },
            {
              "pitch": 31,
              "velocity": 50,
              "position": 30,
              "duration": 0.90625
            },
            {
              "pitch": 35,
              "velocity": 50,
              "position": 31,
              "duration": 0.8854166666666666
            }
          ]
        },
        "11": {
          "ctab": {
            "srcChannel": 11,
            "name": "Gt",
            "accType": "CHORD1",
            "editable": false,
            "mutedNotes": [],
            "mutedChords": [
              "dim7",
              "dim",
              "minMaj7(9)",
              "minMaj7",
              "min7(11)",
              "min7(9)",
              "min(9)",
              "m7b5",
              "min7",
              "min6",
              "min"
            ],
            "autoStart": false,
            "sourceChordNote": 0,
            "sourceChordType": "Maj",
            "ctb2Low": null,
            "ctb2Main": {
              "ntr": "ROOT_TRANSPOSITION",
              "ntt": "BYPASS",
              "bassOn": false,
              "chordRootUpperLimit": 7,
              "noteLowLimit": 0,
              "noteHighLimit": 127,
              "rtr": "PITCH_SHIFT"
            },
            "ctb2High": null
          },
          "notes": [
            {
              "pitch": 57,
              "velocity": 60,
              "position": 7.645833333333333,
              "duration": 0.71875
            },
            {
              "pitch": 60,
              "velocity": 61,
              "position": 7.666666666666667,
              "duration": 0.7395833333333334
            },
            {
              "pitch": 64,
              "velocity": 76,
              "position": 7.6875,
              "duration": 0.7291666666666666
            },
            {
              "pitch": 59,
              "velocity": 56,
              "position": 8.645833333333334,
              "duration": 0.16666666666666666
            },
            {
              "pitch": 64,
              "velocity": 46,
              "position": 8.666666666666666,
              "duration": 0.19791666666666666
            },
            {
              "pitch": 67,
              "velocity": 63,
              "position": 8.6875,
              "duration": 0.1875
            },
            {
              "pitch": 60,
              "velocity": 40,
              "position": 9.020833333333334,
              "duration": 0.3645833333333333
            },
            {
              "pitch": 64,
              "velocity": 44,
              "position": 9.041666666666666,
              "duration": 0.3645833333333333
            },
            {
              "pitch": 69,
              "velocity": 50,
              "position": 9.0625,
              "duration": 0.3541666666666667
            },
            {
              "pitch": 57,
              "velocity": 49,
              "position": 9.625,
              "duration": 0.28125
            },
            {
              "pitch": 63,
              "velocity": 53,
              "position": 9.645833333333334,
              "duration": 0.3020833333333333
            },
            {
              "pitch": 66,
              "velocity": 57,
              "position": 9.666666666666666,
              "duration": 0.3125
            },
            {
              "pitch": 72,
              "velocity": 74,
              "position": 9.6875,
              "duration": 0.3020833333333333
            },
            {
              "pitch": 57,
              "velocity": 65,
              "position": 10.625,
              "duration": 0.2916666666666667
            },
            {
              "pitch": 63,
              "velocity": 65,
              "position": 10.645833333333334,
              "duration": 0.28125
            },
            {
              "pitch": 66,
              "velocity": 72,
              "position": 10.666666666666666,
              "duration": 0.3020833333333333
            },
            {
              "pitch": 72,
              "velocity": 81,
              "position": 10.6875,
              "duration": 0.3020833333333333
            },
            {
              "pitch": 64,
              "velocity": 22,
              "position": 11.625,
              "duration": 0.09375
            },
            {
              "pitch": 69,
              "velocity": 34,
              "position": 11.645833333333334,
              "duration": 0.07291666666666667
            },
            {
              "pitch": 62,
              "velocity": 65,
              "position": 12,
              "duration": 0.3958333333333333
            },
            {
              "pitch": 65,
              "velocity": 72,
              "position": 12.020833333333334,
              "duration": 0.4270833333333333
            },
            {
              "pitch": 57,
              "velocity": 49,
              "position": 12.041666666666666,
              "duration": 0.4270833333333333
            },
            {
              "pitch": 72,
              "velocity": 80,
              "position": 12.0625,
              "duration": 0.4270833333333333
            },
            {
              "pitch": 60,
              "velocity": 34,
              "position": 12.625,
              "duration": 0.0625
            },
            {
              "pitch": 63,
              "velocity": 57,
              "position": 13,
              "duration": 0.625
            },
            {
              "pitch": 60,
              "velocity": 58,
              "position": 13.020833333333334,
              "duration": 0.6145833333333334
            },
            {
              "pitch": 66,
              "velocity": 69,
              "position": 13.041666666666666,
              "duration": 0.59375
            },
            {
              "pitch": 62,
              "velocity": 43,
              "position": 13.625,
              "duration": 0.3541666666666667
            },
            {
              "pitch": 59,
              "velocity": 47,
              "position": 13.645833333333334,
              "duration": 0.34375
            },
            {
              "pitch": 65,
              "velocity": 57,
              "position": 13.666666666666666,
              "duration": 0.3645833333333333
            },
            {
              "pitch": 59,
              "velocity": 66,
              "position": 14.645833333333334,
              "duration": 0.3541666666666667
            },
            {
              "pitch": 63,
              "velocity": 61,
              "position": 14.666666666666666,
              "duration": 0.3541666666666667
            },
            {
              "pitch": 67,
              "velocity": 88,
              "position": 14.6875,
              "duration": 0.3645833333333333
            },
            {
              "pitch": 67,
              "velocity": 102,
              "position": 23.760416666666668,
              "duration": 0.2604166666666667
            },
            {
              "pitch": 70,
              "velocity": 74,
              "position": 24.0625,
              "duration": 0.3541666666666667
            },
            {
              "pitch": 71,
              "velocity": 30,
              "position": 24.375,
              "duration": 0.2604166666666667
            },
            {
              "pitch": 74,
              "velocity": 111,
              "position": 24.71875,
              "duration": 0.34375
            },
            {
              "pitch": 71,
              "velocity": 79,
              "position": 25.09375,
              "duration": 0.5208333333333334
            },
            {
              "pitch": 67,
              "velocity": 89,
              "position": 25.6875,
              "duration": 0.4166666666666667
            },
            {
              "pitch": 65,
              "velocity": 71,
              "position": 26.114583333333332,
              "duration": 0.4375
            },
            {
              "pitch": 70,
              "velocity": 91,
              "position": 26.65625,
              "duration": 0.46875
            },
            {
              "pitch": 65,
              "velocity": 53,
              "position": 27.145833333333332,
              "duration": 0.53125
            },
            {
              "pitch": 60,
              "velocity": 93,
              "position": 27.71875,
              "duration": 0.3020833333333333
            },
            {
              "pitch": 63,
              "velocity": 70,
              "position": 28.041666666666668,
              "duration": 0.3020833333333333
            },
            {
              "pitch": 64,
              "velocity": 24,
              "position": 28.34375,
              "duration": 0.23958333333333334
            },
            {
              "pitch": 69,
              "velocity": 111,
              "position": 28.677083333333332,
              "duration": 0.3645833333333333
            },
            {
              "pitch": 64,
              "velocity": 53,
              "position": 29.0625,
              "duration": 0.5520833333333334
            },
            {
              "pitch": 59,
              "velocity": 76,
              "position": 29.677083333333332,
              "duration": 0.3645833333333333
            },
            {
              "pitch": 63,
              "velocity": 50,
              "position": 30.09375,
              "duration": 0.4895833333333333
            },
            {
              "pitch": 68,
              "velocity": 91,
              "position": 30.666666666666668,
              "duration": 0.96875
            }
          ]
        },
        "12": {
          "ctab": {
            "srcChannel": 12,
            "name": "Pno",
            "accType": "CHORD2",
            "editable": false,
            "mutedNotes": [],
            "mutedChords": [
              "dim7",
              "dim",
              "minMaj7(9)",
              "minMaj7",
              "min7(11)",
              "min7(9)",
              "min(9)",
              "m7b5",
              "min7",
              "min6",
              "min"
            ],
            "autoStart": false,
            "sourceChordNote": 0,
            "sourceChordType": "Maj",
            "ctb2Low": null,
            "ctb2Main": {
              "ntr": "ROOT_TRANSPOSITION",
              "ntt": "BYPASS",
              "bassOn": false,
              "chordRootUpperLimit": 10,
              "noteLowLimit": 0,
              "noteHighLimit": 127,
              "rtr": "PITCH_SHIFT"
            },
            "ctb2High": null
          },
          "notes": [
            {
              "pitch": 69,
              "velocity": 93,
              "position": 0.71875,
              "duration": 0.2604166666666667
            },
            {
              "pitch": 67,
              "velocity": 93,
              "position": 0.71875,
              "duration": 0.3958333333333333
            },
            {
              "pitch": 64,
              "velocity": 89,
              "position": 0.71875,
              "duration": 0.4375
            },
            {
              "pitch": 60,
              "velocity": 85,
              "position": 0.71875,
              "duration": 0.4583333333333333
            },
            {
              "pitch": 72,
              "velocity": 96,
              "position": 0.71875,
              "duration": 0.5833333333333334
            },
            {
              "pitch": 57,
              "velocity": 60,
              "position": 1.125,
              "duration": 0.3541666666666667
            },
            {
              "pitch": 69,
              "velocity": 72,
              "position": 1.21875,
              "duration": 0.3020833333333333
            },
            {
              "pitch": 55,
              "velocity": 55,
              "position": 1.40625,
              "duration": 0.2604166666666667
            },
            {
              "pitch": 67,
              "velocity": 69,
              "position": 1.3958333333333333,
              "duration": 0.3125
            },
            {
              "pitch": 64,
              "velocity": 69,
              "position": 1.5833333333333333,
              "duration": 0.20833333333333334
            },
            {
              "pitch": 52,
              "velocity": 60,
              "position": 1.53125,
              "duration": 0.3125
            },
            {
              "pitch": 60,
              "velocity": 60,
              "position": 1.7708333333333333,
              "duration": 0.1875
            },
            {
              "pitch": 48,
              "velocity": 55,
              "position": 1.7604166666666667,
              "duration": 0.2916666666666667
            },
            {
              "pitch": 63,
              "velocity": 98,
              "position": 2.0208333333333335,
              "duration": 0.6458333333333334
            },
            {
              "pitch": 54,
              "velocity": 82,
              "position": 2.0104166666666665,
              "duration": 0.6666666666666666
            },
            {
              "pitch": 51,
              "velocity": 82,
              "position": 2.0208333333333335,
              "duration": 0.65625
            },
            {
              "pitch": 60,
              "velocity": 82,
              "position": 2.0208333333333335,
              "duration": 0.65625
            },
            {
              "pitch": 58,
              "velocity": 76,
              "position": 2.0416666666666665,
              "duration": 0.6354166666666666
            },
            {
              "pitch": 48,
              "velocity": 59,
              "position": 2.6875,
              "duration": 0.3125
            },
            {
              "pitch": 51,
              "velocity": 53,
              "position": 2.6875,
              "duration": 0.3125
            },
            {
              "pitch": 54,
              "velocity": 53,
              "position": 2.6875,
              "duration": 0.3125
            },
            {
              "pitch": 58,
              "velocity": 53,
              "position": 2.6875,
              "duration": 0.3125
            },
            {
              "pitch": 60,
              "velocity": 61,
              "position": 2.6875,
              "duration": 0.3125
            },
            {
              "pitch": 59,
              "velocity": 74,
              "position": 2.9895833333333335,
              "duration": 0.3333333333333333
            },
            {
              "pitch": 50,
              "velocity": 73,
              "position": 3.03125,
              "duration": 0.3125
            },
            {
              "pitch": 62,
              "velocity": 94,
              "position": 3,
              "duration": 0.3541666666666667
            },
            {
              "pitch": 53,
              "velocity": 68,
              "position": 3.0104166666666665,
              "duration": 0.375
            },
            {
              "pitch": 57,
              "velocity": 72,
              "position": 2.9895833333333335,
              "duration": 0.4166666666666667
            },
            {
              "pitch": 51,
              "velocity": 86,
              "position": 3.9895833333333335,
              "duration": 0.71875
            },
            {
              "pitch": 54,
              "velocity": 77,
              "position": 3.9895833333333335,
              "duration": 0.71875
            },
            {
              "pitch": 58,
              "velocity": 79,
              "position": 4,
              "duration": 0.7083333333333334
            },
            {
              "pitch": 60,
              "velocity": 83,
              "position": 4,
              "duration": 0.7083333333333334
            },
            {
              "pitch": 63,
              "velocity": 99,
              "position": 4,
              "duration": 0.7916666666666666
            },
            {
              "pitch": 51,
              "velocity": 60,
              "position": 4.71875,
              "duration": 0.3125
            },
            {
              "pitch": 54,
              "velocity": 60,
              "position": 4.71875,
              "duration": 0.3125
            },
            {
              "pitch": 58,
              "velocity": 60,
              "position": 4.71875,
              "duration": 0.3125
            },
            {
              "pitch": 60,
              "velocity": 60,
              "position": 4.71875,
              "duration": 0.3125
            },
            {
              "pitch": 48,
              "velocity": 60,
              "position": 4.739583333333333,
              "duration": 0.3125
            },
            {
              "pitch": 59,
              "velocity": 81,
              "position": 5.010416666666667,
              "duration": 0.3645833333333333
            },
            {
              "pitch": 50,
              "velocity": 66,
              "position": 5.052083333333333,
              "duration": 0.34375
            },
            {
              "pitch": 62,
              "velocity": 90,
              "position": 5.010416666666667,
              "duration": 0.3854166666666667
            },
            {
              "pitch": 57,
              "velocity": 65,
              "position": 5.010416666666667,
              "duration": 0.4270833333333333
            },
            {
              "pitch": 53,
              "velocity": 73,
              "position": 5.041666666666667,
              "duration": 0.4166666666666667
            },
            {
              "pitch": 51,
              "velocity": 82,
              "position": 6.020833333333333,
              "duration": 0.6979166666666666
            },
            {
              "pitch": 54,
              "velocity": 77,
              "position": 6.020833333333333,
              "duration": 0.6979166666666666
            },
            {
              "pitch": 58,
              "velocity": 87,
              "position": 6.03125,
              "duration": 0.6875
            },
            {
              "pitch": 60,
              "velocity": 86,
              "position": 6.041666666666667,
              "duration": 0.6770833333333334
            },
            {
              "pitch": 63,
              "velocity": 100,
              "position": 6.03125,
              "duration": 0.78125
            },
            {
              "pitch": 51,
              "velocity": 51,
              "position": 6.729166666666667,
              "duration": 0.3125
            },
            {
              "pitch": 54,
              "velocity": 51,
              "position": 6.729166666666667,
              "duration": 0.3125
            },
            {
              "pitch": 58,
              "velocity": 51,
              "position": 6.729166666666667,
              "duration": 0.3125
            },
            {
              "pitch": 60,
              "velocity": 51,
              "position": 6.729166666666667,
              "duration": 0.3125
            },
            {
              "pitch": 48,
              "velocity": 51,
              "position": 6.739583333333333,
              "duration": 0.3125
            },
            {
              "pitch": 62,
              "velocity": 98,
              "position": 7.020833333333333,
              "duration": 0.59375
            },
            {
              "pitch": 59,
              "velocity": 83,
              "position": 7.020833333333333,
              "duration": 0.6041666666666666
            },
            {
              "pitch": 57,
              "velocity": 64,
              "position": 7.020833333333333,
              "duration": 0.6354166666666666
            },
            {
              "pitch": 53,
              "velocity": 76,
              "position": 7.020833333333333,
              "duration": 0.7083333333333334
            },
            {
              "pitch": 50,
              "velocity": 68,
              "position": 7.041666666666667,
              "duration": 0.7083333333333334
            },
            {
              "pitch": 57,
              "velocity": 86,
              "position": 7.75,
              "duration": 0.3229166666666667
            },
            {
              "pitch": 52,
              "velocity": 79,
              "position": 7.75,
              "duration": 0.34375
            },
            {
              "pitch": 55,
              "velocity": 73,
              "position": 7.75,
              "duration": 0.34375
            },
            {
              "pitch": 48,
              "velocity": 76,
              "position": 7.739583333333333,
              "duration": 0.3645833333333333
            },
            {
              "pitch": 60,
              "velocity": 99,
              "position": 7.75,
              "duration": 0.3541666666666667
            },
            {
              "pitch": 60,
              "velocity": 77,
              "position": 15.729166666666666,
              "duration": 0.2916666666666667
            },
            {
              "pitch": 69,
              "velocity": 81,
              "position": 15.729166666666666,
              "duration": 0.2916666666666667
            },
            {
              "pitch": 67,
              "velocity": 82,
              "position": 15.71875,
              "duration": 0.3125
            },
            {
              "pitch": 64,
              "velocity": 80,
              "position": 15.729166666666666,
              "duration": 0.3020833333333333
            },
            {
              "pitch": 72,
              "velocity": 79,
              "position": 15.71875,
              "duration": 0.3229166666666667
            },
            {
              "pitch": 69,
              "velocity": 83,
              "position": 16.708333333333332,
              "duration": 0.20833333333333334
            },
            {
              "pitch": 67,
              "velocity": 85,
              "position": 16.697916666666668,
              "duration": 0.3854166666666667
            },
            {
              "pitch": 64,
              "velocity": 81,
              "position": 16.697916666666668,
              "duration": 0.4166666666666667
            },
            {
              "pitch": 60,
              "velocity": 81,
              "position": 16.697916666666668,
              "duration": 0.4270833333333333
            },
            {
              "pitch": 72,
              "velocity": 88,
              "position": 16.708333333333332,
              "duration": 0.5208333333333334
            },
            {
              "pitch": 69,
              "velocity": 67,
              "position": 17.177083333333332,
              "duration": 0.2604166666666667
            },
            {
              "pitch": 57,
              "velocity": 56,
              "position": 17.083333333333332,
              "duration": 0.3541666666666667
            },
            {
              "pitch": 55,
              "velocity": 51,
              "position": 17.385416666666668,
              "duration": 0.23958333333333334
            },
            {
              "pitch": 67,
              "velocity": 55,
              "position": 17.364583333333332,
              "duration": 0.28125
            },
            {
              "pitch": 64,
              "velocity": 59,
              "position": 17.53125,
              "duration": 0.19791666666666666
            },
            {
              "pitch": 52,
              "velocity": 41,
              "position": 17.489583333333332,
              "duration": 0.3229166666666667
            },
            {
              "pitch": 60,
              "velocity": 38,
              "position": 17.739583333333332,
              "duration": 0.17708333333333334
            },
            {
              "pitch": 48,
              "velocity": 47,
              "position": 17.729166666666668,
              "duration": 0.3229166666666667
            },
            {
              "pitch": 54,
              "velocity": 78,
              "position": 18,
              "duration": 0.6666666666666666
            },
            {
              "pitch": 60,
              "velocity": 80,
              "position": 18,
              "duration": 0.6666666666666666
            },
            {
              "pitch": 63,
              "velocity": 93,
              "position": 18,
              "duration": 0.6666666666666666
            },
            {
              "pitch": 51,
              "velocity": 81,
              "position": 18.010416666666668,
              "duration": 0.65625
            },
            {
              "pitch": 58,
              "velocity": 78,
              "position": 18.010416666666668,
              "duration": 0.65625
            },
            {
              "pitch": 48,
              "velocity": 64,
              "position": 18.677083333333332,
              "duration": 0.3125
            },
            {
              "pitch": 51,
              "velocity": 52,
              "position": 18.6875,
              "duration": 0.3125
            },
            {
              "pitch": 54,
              "velocity": 52,
              "position": 18.6875,
              "duration": 0.3125
            },
            {
              "pitch": 58,
              "velocity": 52,
              "position": 18.6875,
              "duration": 0.3125
            },
            {
              "pitch": 60,
              "velocity": 60,
              "position": 18.6875,
              "duration": 0.3125
            },
            {
              "pitch": 59,
              "velocity": 66,
              "position": 19,
              "duration": 0.375
            },
            {
              "pitch": 62,
              "velocity": 93,
              "position": 19.010416666666668,
              "duration": 0.375
            },
            {
              "pitch": 53,
              "velocity": 72,
              "position": 19,
              "duration": 0.3958333333333333
            },
            {
              "pitch": 50,
              "velocity": 83,
              "position": 19.010416666666668,
              "duration": 0.3958333333333333
            },
            {
              "pitch": 57,
              "velocity": 65,
              "position": 19,
              "duration": 0.4166666666666667
            },
            {
              "pitch": 51,
              "velocity": 85,
              "position": 20,
              "duration": 0.6770833333333334
            },
            {
              "pitch": 54,
              "velocity": 82,
              "position": 20,
              "duration": 0.6770833333333334
            },
            {
              "pitch": 58,
              "velocity": 81,
              "position": 20.020833333333332,
              "duration": 0.65625
            },
            {
              "pitch": 60,
              "velocity": 87,
              "position": 20.020833333333332,
              "duration": 0.65625
            },
            {
              "pitch": 63,
              "velocity": 98,
              "position": 20.010416666666668,
              "duration": 0.7708333333333334
            },
            {
              "pitch": 48,
              "velocity": 62,
              "position": 20.6875,
              "duration": 0.3125
            },
            {
              "pitch": 51,
              "velocity": 53,
              "position": 20.708333333333332,
              "duration": 0.3125
            },
            {
              "pitch": 56,
              "velocity": 53,
              "position": 20.708333333333332,
              "duration": 0.3125
            },
            {
              "pitch": 58,
              "velocity": 53,
              "position": 20.708333333333332,
              "duration": 0.3125
            },
            {
              "pitch": 60,
              "velocity": 61,
              "position": 20.708333333333332,
              "duration": 0.3125
            },
            {
              "pitch": 59,
              "velocity": 72,
              "position": 21.020833333333332,
              "duration": 0.3229166666666667
            },
            {
              "pitch": 62,
              "velocity": 90,
              "position": 21.020833333333332,
              "duration": 0.3645833333333333
            },
            {
              "pitch": 57,
              "velocity": 65,
              "position": 21.020833333333332,
              "duration": 0.375
            },
            {
              "pitch": 53,
              "velocity": 72,
              "position": 21.020833333333332,
              "duration": 0.3958333333333333
            },
            {
              "pitch": 50,
              "velocity": 71,
              "position": 21.03125,
              "duration": 0.3958333333333333
            },
            {
              "pitch": 51,
              "velocity": 86,
              "position": 22,
              "duration": 0.6666666666666666
            },
            {
              "pitch": 54,
              "velocity": 74,
              "position": 22,
              "duration": 0.6666666666666666
            },
            {
              "pitch": 60,
              "velocity": 86,
              "position": 22.010416666666668,
              "duration": 0.65625
            },
            {
              "pitch": 58,
              "velocity": 82,
              "position": 22.020833333333332,
              "duration": 0.6458333333333334
            },
            {
              "pitch": 63,
              "velocity": 99,
              "position": 22.020833333333332,
              "duration": 0.75
            },
            {
              "pitch": 48,
              "velocity": 66,
              "position": 22.677083333333332,
              "duration": 0.3125
            },
            {
              "pitch": 51,
              "velocity": 60,
              "position": 22.6875,
              "duration": 0.3125
            },
            {
              "pitch": 54,
              "velocity": 60,
              "position": 22.6875,
              "duration": 0.3125
            },
            {
              "pitch": 58,
              "velocity": 60,
              "position": 22.6875,
              "duration": 0.3125
            },
            {
              "pitch": 60,
              "velocity": 68,
              "position": 22.6875,
              "duration": 0.3125
            },
            {
              "pitch": 59,
              "velocity": 79,
              "position": 23.041666666666668,
              "duration": 0.4791666666666667
            },
            {
              "pitch": 62,
              "velocity": 93,
              "position": 23.041666666666668,
              "duration": 0.5
            },
            {
              "pitch": 57,
              "velocity": 63,
              "position": 23.03125,
              "duration": 0.5416666666666666
            },
            {
              "pitch": 53,
              "velocity": 68,
              "position": 23.020833333333332,
              "duration": 0.5729166666666666
            },
            {
              "pitch": 50,
              "velocity": 61,
              "position": 23.041666666666668,
              "duration": 0.59375
            },
            {
              "pitch": 59,
              "velocity": 87,
              "position": 23.6875,
              "duration": 0.25
            },
            {
              "pitch": 62,
              "velocity": 90,
              "position": 23.6875,
              "duration": 0.25
            },
            {
              "pitch": 55,
              "velocity": 77,
              "position": 23.697916666666668,
              "duration": 0.23958333333333334
            },
            {
              "pitch": 64,
              "velocity": 91,
              "position": 23.6875,
              "duration": 0.2708333333333333
            },
            {
              "pitch": 67,
              "velocity": 96,
              "position": 23.677083333333332,
              "duration": 0.3020833333333333
            }
          ]
        },
        "13": {
          "ctab": {
            "srcChannel": 13,
            "name": "Vib",
            "accType": "PAD",
            "editable": false,
            "mutedNotes": [],
            "mutedChords": [
              "dim7",
              "dim",
              "minMaj7(9)",
              "minMaj7",
              "min7(11)",
              "min7(9)",
              "min(9)",
              "m7b5",
              "min7",
              "min6",
              "min"
            ],
            "autoStart": false,
            "sourceChordNote": 0,
            "sourceChordType": "Maj",
            "ctb2Low": null,
            "ctb2Main": {
              "ntr": "ROOT_TRANSPOSITION",
              "ntt": "BYPASS",
              "bassOn": false,
              "chordRootUpperLimit": 10,
              "noteLowLimit": 0,
              "noteHighLimit": 127,
              "rtr": "PITCH_SHIFT"
            },
            "ctb2High": null
          },
          "notes": [
            {
              "pitch": 72,
              "velocity": 92,
              "position": 0.6875,
              "duration": 0.5729166666666666
            },
            {
              "pitch": 69,
              "velocity": 26,
              "position": 1.40625,
              "duration": 0.11458333333333333
            },
            {
              "pitch": 67,
              "velocity": 58,
              "position": 1.4270833333333333,
              "duration": 0.2916666666666667
            },
            {
              "pitch": 64,
              "velocity": 50,
              "position": 1.65625,
              "duration": 0.15625
            },
            {
              "pitch": 60,
              "velocity": 63,
              "position": 1.8541666666666667,
              "duration": 0.10416666666666667
            },
            {
              "pitch": 63,
              "velocity": 76,
              "position": 2.0416666666666665,
              "duration": 0.6354166666666666
            },
            {
              "pitch": 60,
              "velocity": 42,
              "position": 2.7291666666666665,
              "duration": 0.10416666666666667
            },
            {
              "pitch": 62,
              "velocity": 82,
              "position": 3,
              "duration": 0.46875
            },
            {
              "pitch": 63,
              "velocity": 80,
              "position": 4.0625,
              "duration": 0.6041666666666666
            },
            {
              "pitch": 60,
              "velocity": 48,
              "position": 4.708333333333333,
              "duration": 0.15625
            },
            {
              "pitch": 62,
              "velocity": 76,
              "position": 5,
              "duration": 0.4270833333333333
            },
            {
              "pitch": 63,
              "velocity": 80,
              "position": 5.989583333333333,
              "duration": 0.4791666666666667
            },
            {
              "pitch": 65,
              "velocity": 43,
              "position": 6.541666666666667,
              "duration": 0.19791666666666666
            },
            {
              "pitch": 63,
              "velocity": 27,
              "position": 6.71875,
              "duration": 0.15625
            },
            {
              "pitch": 60,
              "velocity": 41,
              "position": 6.895833333333333,
              "duration": 0.052083333333333336
            },
            {
              "pitch": 62,
              "velocity": 82,
              "position": 7.052083333333333,
              "duration": 0.5520833333333334
            },
            {
              "pitch": 60,
              "velocity": 82,
              "position": 7.71875,
              "duration": 0.3125
            },
            {
              "pitch": 72,
              "velocity": 81,
              "position": 15.71875,
              "duration": 0.3333333333333333
            },
            {
              "pitch": 72,
              "velocity": 81,
              "position": 16.708333333333332,
              "duration": 0.4375
            },
            {
              "pitch": 69,
              "velocity": 45,
              "position": 17.177083333333332,
              "duration": 0.22916666666666666
            },
            {
              "pitch": 67,
              "velocity": 64,
              "position": 17.302083333333332,
              "duration": 0.2916666666666667
            },
            {
              "pitch": 64,
              "velocity": 48,
              "position": 17.583333333333332,
              "duration": 0.16666666666666666
            },
            {
              "pitch": 60,
              "velocity": 73,
              "position": 17.760416666666668,
              "duration": 0.13541666666666666
            },
            {
              "pitch": 63,
              "velocity": 77,
              "position": 18.041666666666668,
              "duration": 0.6458333333333334
            },
            {
              "pitch": 60,
              "velocity": 48,
              "position": 18.71875,
              "duration": 0.125
            },
            {
              "pitch": 62,
              "velocity": 86,
              "position": 18.989583333333332,
              "duration": 0.4583333333333333
            },
            {
              "pitch": 63,
              "velocity": 84,
              "position": 20.03125,
              "duration": 0.6979166666666666
            },
            {
              "pitch": 60,
              "velocity": 43,
              "position": 20.770833333333332,
              "duration": 0.08333333333333333
            },
            {
              "pitch": 62,
              "velocity": 86,
              "position": 21.010416666666668,
              "duration": 0.4270833333333333
            },
            {
              "pitch": 63,
              "velocity": 84,
              "position": 21.979166666666668,
              "duration": 0.5416666666666666
            },
            {
              "pitch": 65,
              "velocity": 52,
              "position": 22.583333333333332,
              "duration": 0.21875
            },
            {
              "pitch": 63,
              "velocity": 41,
              "position": 22.770833333333332,
              "duration": 0.21875
            },
            {
              "pitch": 60,
              "velocity": 53,
              "position": 22.90625,
              "duration": 0.10416666666666667
            },
            {
              "pitch": 62,
              "velocity": 67,
              "position": 23.083333333333332,
              "duration": 0.5520833333333334
            },
            {
              "pitch": 67,
              "velocity": 92,
              "position": 23.760416666666668,
              "duration": 0.3645833333333333
            },
            {
              "pitch": 70,
              "velocity": 76,
              "position": 25.71875,
              "duration": 1.4166666666666667
            },
            {
              "pitch": 69,
              "velocity": 78,
              "position": 27.71875,
              "duration": 1.3854166666666667
            },
            {
              "pitch": 68,
              "velocity": 76,
              "position": 29.739583333333332,
              "duration": 1.3125
            }
          ]
        },
        "14": {
          "ctab": {
            "srcChannel": 14,
            "name": "Pno",
            "accType": "CHORD2",
            "editable": false,
            "mutedNotes": [],
            "mutedChords": [
              "dim7",
              "dim",
              "minMaj7(9)",
              "minMaj7",
              "min7(11)",
              "min7(9)",
              "min(9)",
              "m7b5",
              "min7",
              "min6",
              "min"
            ],
            "autoStart": false,
            "sourceChordNote": 0,
            "sourceChordType": "Maj",
            "ctb2Low": null,
            "ctb2Main": {
              "ntr": "ROOT_TRANSPOSITION",
              "ntt": "BYPASS",
              "bassOn": false,
              "chordRootUpperLimit": 10,
              "noteLowLimit": 54,
              "noteHighLimit": 65,
              "rtr": "PITCH_SHIFT"
            },
            "ctb2High": null
          },
          "notes": [
            {
              "pitch": 67,
              "velocity": 73,
              "position": 25.708333333333332,
              "duration": 1.4166666666666667
            },
            {
              "pitch": 61,
              "velocity": 73,
              "position": 25.708333333333332,
              "duration": 1.5416666666666667
            },
            {
              "pitch": 65,
              "velocity": 64,
              "position": 25.708333333333332,
              "duration": 1.5416666666666667
            },
            {
              "pitch": 70,
              "velocity": 87,
              "position": 25.697916666666668,
              "duration": 1.65625
            },
            {
              "pitch": 69,
              "velocity": 83,
              "position": 27.760416666666668,
              "duration": 1.3645833333333333
            },
            {
              "pitch": 66,
              "velocity": 77,
              "position": 27.760416666666668,
              "duration": 1.375
            },
            {
              "pitch": 64,
              "velocity": 68,
              "position": 27.760416666666668,
              "duration": 1.3854166666666667
            },
            {
              "pitch": 60,
              "velocity": 79,
              "position": 27.770833333333332,
              "duration": 1.375
            },
            {
              "pitch": 59,
              "velocity": 85,
              "position": 29.739583333333332,
              "duration": 1.78125
            },
            {
              "pitch": 63,
              "velocity": 72,
              "position": 29.760416666666668,
              "duration": 1.7604166666666667
            },
            {
              "pitch": 65,
              "velocity": 89,
              "position": 29.75,
              "duration": 1.78125
            },
            {
              "pitch": 68,
              "velocity": 93,
              "position": 29.75,
              "duration": 1.7916666666666667
            }
          ]
        }
      }
    },
    "Ending_C": {
      "type": "Ending_C",
      "sizeInBeats": 24,
      "channels": {
        "0": {
          "ctab": {
            "srcChannel": 0,
            "name": "Bass Fx",
            "accType": "BASS",
            "editable": true,
            "mutedNotes": [],
            "mutedChords": [],
            "autoStart": false,
            "sourceChordNote": 0,
            "sourceChordType": "Maj7",
            "ctb2Low": null,
            "ctb2Main": {
              "ntr": "ROOT_FIXED",
              "ntt": "BYPASS",
              "bassOn": false,
              "chordRootUpperLimit": 6,
              "noteLowLimit": 0,
              "noteHighLimit": 127,
              "rtr": "PITCH_SHIFT"
            },
            "ctb2High": null
          },
          "notes": [
            {
              "pitch": 107,
              "velocity": 68,
              "position": 8,
              "duration": 0.10416666666666667
            },
            {
              "pitch": 104,
              "velocity": 50,
              "position": 9,
              "duration": 0.10416666666666667
            }
          ]
        },
        "1": {
          "ctab": {
            "srcChannel": 1,
            "name": "Bass",
            "accType": "BASS",
            "editable": false,
            "mutedNotes": [],
            "mutedChords": [
              "1+2+5",
              "sus4",
              "1+5",
              "1+8",
              "7aug",
              "Maj7aug",
              "7(#9)",
              "7(b13)",
              "7(b9)",
              "7(13)",
              "7#11",
              "7(9)",
              "7b5",
              "7sus4",
              "7th",
              "aug",
              "Maj6(9)",
              "Maj7(9)",
              "Maj(9)",
              "Maj7#11",
              "Maj7",
              "Maj6",
              "Maj"
            ],
            "autoStart": false,
            "sourceChordNote": 0,
            "sourceChordType": "min",
            "ctb2Low": null,
            "ctb2Main": {
              "ntr": "ROOT_TRANSPOSITION",
              "ntt": "BYPASS",
              "bassOn": false,
              "chordRootUpperLimit": 8,
              "noteLowLimit": 28,
              "noteHighLimit": 127,
              "rtr": "PITCH_SHIFT"
            },
            "ctb2High": null
          },
          "notes": [
            {
              "pitch": 36,
              "velocity": 50,
              "position": 0,
              "duration": 0.6145833333333334
            },
            {
              "pitch": 31,
              "velocity": 100,
              "position": 0.625,
              "duration": 0.1875
            },
            {
              "pitch": 36,
              "velocity": 34,
              "position": 1,
              "duration": 0.5625
            },
            {
              "pitch": 33,
              "velocity": 50,
              "position": 1.625,
              "duration": 0.3645833333333333
            },
            {
              "pitch": 33,
              "velocity": 50,
              "position": 2.625,
              "duration": 0.3645833333333333
            },
            {
              "pitch": 32,
              "velocity": 50,
              "position": 3.625,
              "duration": 1.25
            },
            {
              "pitch": 32,
              "velocity": 50,
              "position": 5,
              "duration": 0.46875
            },
            {
              "pitch": 31,
              "velocity": 50,
              "position": 6,
              "duration": 0.6145833333333334
            },
            {
              "pitch": 31,
              "velocity": 50,
              "position": 6.625,
              "duration": 1.3645833333333333
            },
            {
              "pitch": 36,
              "velocity": 50,
              "position": 10,
              "duration": 0.5
            },
            {
              "pitch": 36,
              "velocity": 50,
              "position": 11.625,
              "duration": 12.364583333333334
            }
          ]
        },
        "2": {
          "ctab": {
            "srcChannel": 2,
            "name": "Gt",
            "accType": "CHORD1",
            "editable": false,
            "mutedNotes": [],
            "mutedChords": [
              "1+2+5",
              "sus4",
              "1+5",
              "1+8",
              "7aug",
              "Maj7aug",
              "7(#9)",
              "7(b13)",
              "7(b9)",
              "7(13)",
              "7#11",
              "7(9)",
              "7b5",
              "7sus4",
              "7th",
              "aug",
              "Maj6(9)",
              "Maj7(9)",
              "Maj(9)",
              "Maj7#11",
              "Maj7",
              "Maj6",
              "Maj"
            ],
            "autoStart": false,
            "sourceChordNote": 0,
            "sourceChordType": "min",
            "ctb2Low": null,
            "ctb2Main": {
              "ntr": "ROOT_TRANSPOSITION",
              "ntt": "BYPASS",
              "bassOn": false,
              "chordRootUpperLimit": 7,
              "noteLowLimit": 55,
              "noteHighLimit": 66,
              "rtr": "PITCH_SHIFT"
            },
            "ctb2High": null
          },
          "notes": [
            {
              "pitch": 67,
              "velocity": 67,
              "position": 0,
              "duration": 0.6458333333333334
            },
            {
              "pitch": 63,
              "velocity": 60,
              "position": 0.020833333333333332,
              "duration": 0.625
            },
            {
              "pitch": 63,
              "velocity": 51,
              "position": 0.6666666666666666,
              "duration": 0.375
            },
            {
              "pitch": 63,
              "velocity": 70,
              "position": 1.0625,
              "duration": 0.4791666666666667
            },
            {
              "pitch": 61,
              "velocity": 61,
              "position": 1.71875,
              "duration": 0.3645833333333333
            },
            {
              "pitch": 67,
              "velocity": 52,
              "position": 1.7083333333333333,
              "duration": 0.4479166666666667
            },
            {
              "pitch": 61,
              "velocity": 61,
              "position": 2.7083333333333335,
              "duration": 0.34375
            },
            {
              "pitch": 67,
              "velocity": 68,
              "position": 2.7083333333333335,
              "duration": 0.3645833333333333
            },
            {
              "pitch": 65,
              "velocity": 74,
              "position": 3.7291666666666665,
              "duration": 1.1875
            },
            {
              "pitch": 60,
              "velocity": 62,
              "position": 3.7395833333333335,
              "duration": 1.2083333333333333
            },
            {
              "pitch": 60,
              "velocity": 80,
              "position": 5.09375,
              "duration": 0.3333333333333333
            },
            {
              "pitch": 65,
              "velocity": 70,
              "position": 5.104166666666667,
              "duration": 0.3333333333333333
            },
            {
              "pitch": 65,
              "velocity": 61,
              "position": 6.052083333333333,
              "duration": 0.6145833333333334
            },
            {
              "pitch": 60,
              "velocity": 60,
              "position": 6.0625,
              "duration": 0.6145833333333334
            },
            {
              "pitch": 63,
              "velocity": 74,
              "position": 6.760416666666667,
              "duration": 1.25
            },
            {
              "pitch": 59,
              "velocity": 74,
              "position": 6.760416666666667,
              "duration": 1.28125
            },
            {
              "pitch": 62,
              "velocity": 74,
              "position": 10.052083333333334,
              "duration": 0.4166666666666667
            },
            {
              "pitch": 67,
              "velocity": 65,
              "position": 10.052083333333334,
              "duration": 0.4270833333333333
            },
            {
              "pitch": 57,
              "velocity": 60,
              "position": 10.041666666666666,
              "duration": 0.4583333333333333
            },
            {
              "pitch": 62,
              "velocity": 70,
              "position": 11.729166666666666,
              "duration": 12.260416666666666
            },
            {
              "pitch": 67,
              "velocity": 60,
              "position": 11.729166666666666,
              "duration": 12.260416666666666
            },
            {
              "pitch": 57,
              "velocity": 60,
              "position": 11.760416666666666,
              "duration": 12.229166666666666
            }
          ]
        },
        "3": {
          "ctab": {
            "srcChannel": 3,
            "name": "Pno",
            "accType": "CHORD2",
            "editable": false,
            "mutedNotes": [],
            "mutedChords": [
              "1+2+5",
              "sus4",
              "1+5",
              "1+8",
              "7aug",
              "Maj7aug",
              "7(#9)",
              "7(b13)",
              "7(b9)",
              "7(13)",
              "7#11",
              "7(9)",
              "7b5",
              "7sus4",
              "7th",
              "aug",
              "Maj6(9)",
              "Maj7(9)",
              "Maj(9)",
              "Maj7#11",
              "Maj7",
              "Maj6",
              "Maj"
            ],
            "autoStart": false,
            "sourceChordNote": 0,
            "sourceChordType": "min",
            "ctb2Low": null,
            "ctb2Main": {
              "ntr": "ROOT_TRANSPOSITION",
              "ntt": "BYPASS",
              "bassOn": false,
              "chordRootUpperLimit": 10,
              "noteLowLimit": 47,
              "noteHighLimit": 127,
              "rtr": "PITCH_SHIFT"
            },
            "ctb2High": null
          },
          "notes": [
            {
              "pitch": 72,
              "velocity": 96,
              "position": 0.03125,
              "duration": 0.4375
            },
            {
              "pitch": 60,
              "velocity": 82,
              "position": 0.03125,
              "duration": 0.4791666666666667
            },
            {
              "pitch": 63,
              "velocity": 82,
              "position": 0.03125,
              "duration": 0.4791666666666667
            },
            {
              "pitch": 67,
              "velocity": 97,
              "position": 0.03125,
              "duration": 0.4791666666666667
            },
            {
              "pitch": 72,
              "velocity": 83,
              "position": 0.65625,
              "duration": 0.21875
            },
            {
              "pitch": 60,
              "velocity": 72,
              "position": 0.6458333333333334,
              "duration": 0.23958333333333334
            },
            {
              "pitch": 63,
              "velocity": 72,
              "position": 0.6458333333333334,
              "duration": 0.23958333333333334
            },
            {
              "pitch": 67,
              "velocity": 81,
              "position": 0.65625,
              "duration": 0.25
            },
            {
              "pitch": 72,
              "velocity": 84,
              "position": 1.0520833333333333,
              "duration": 0.4375
            },
            {
              "pitch": 60,
              "velocity": 68,
              "position": 1.0520833333333333,
              "duration": 0.4895833333333333
            },
            {
              "pitch": 63,
              "velocity": 68,
              "position": 1.0520833333333333,
              "duration": 0.4895833333333333
            },
            {
              "pitch": 67,
              "velocity": 77,
              "position": 1.0520833333333333,
              "duration": 0.4895833333333333
            },
            {
              "pitch": 55,
              "velocity": 72,
              "position": 1.7083333333333333,
              "duration": 0.3541666666666667
            },
            {
              "pitch": 61,
              "velocity": 85,
              "position": 1.6875,
              "duration": 0.3854166666666667
            },
            {
              "pitch": 65,
              "velocity": 90,
              "position": 1.6979166666666667,
              "duration": 0.375
            },
            {
              "pitch": 72,
              "velocity": 90,
              "position": 1.6875,
              "duration": 0.3958333333333333
            },
            {
              "pitch": 61,
              "velocity": 82,
              "position": 2.71875,
              "duration": 0.2916666666666667
            },
            {
              "pitch": 72,
              "velocity": 92,
              "position": 2.71875,
              "duration": 0.3333333333333333
            },
            {
              "pitch": 65,
              "velocity": 90,
              "position": 2.7083333333333335,
              "duration": 0.3541666666666667
            },
            {
              "pitch": 55,
              "velocity": 83,
              "position": 2.7083333333333335,
              "duration": 0.375
            },
            {
              "pitch": 72,
              "velocity": 89,
              "position": 3.6875,
              "duration": 1.1875
            },
            {
              "pitch": 54,
              "velocity": 91,
              "position": 3.6979166666666665,
              "duration": 1.1770833333333333
            },
            {
              "pitch": 65,
              "velocity": 85,
              "position": 3.6875,
              "duration": 1.1979166666666667
            },
            {
              "pitch": 60,
              "velocity": 77,
              "position": 3.6875,
              "duration": 1.2083333333333333
            },
            {
              "pitch": 60,
              "velocity": 74,
              "position": 5.041666666666667,
              "duration": 0.375
            },
            {
              "pitch": 65,
              "velocity": 82,
              "position": 5.052083333333333,
              "duration": 0.375
            },
            {
              "pitch": 54,
              "velocity": 89,
              "position": 5.072916666666667,
              "duration": 0.3645833333333333
            },
            {
              "pitch": 72,
              "velocity": 83,
              "position": 5.052083333333333,
              "duration": 0.4166666666666667
            },
            {
              "pitch": 70,
              "velocity": 85,
              "position": 6.0625,
              "duration": 0.5
            },
            {
              "pitch": 65,
              "velocity": 66,
              "position": 6.0625,
              "duration": 0.53125
            },
            {
              "pitch": 77,
              "velocity": 97,
              "position": 6.0625,
              "duration": 0.53125
            },
            {
              "pitch": 60,
              "velocity": 73,
              "position": 6.052083333333333,
              "duration": 0.5625
            },
            {
              "pitch": 54,
              "velocity": 85,
              "position": 6.0625,
              "duration": 0.5833333333333334
            },
            {
              "pitch": 65,
              "velocity": 71,
              "position": 6.6875,
              "duration": 1.25
            },
            {
              "pitch": 68,
              "velocity": 89,
              "position": 6.697916666666667,
              "duration": 1.28125
            },
            {
              "pitch": 75,
              "velocity": 93,
              "position": 6.697916666666667,
              "duration": 1.28125
            },
            {
              "pitch": 59,
              "velocity": 82,
              "position": 6.6875,
              "duration": 1.3229166666666667
            },
            {
              "pitch": 53,
              "velocity": 81,
              "position": 6.697916666666667,
              "duration": 1.3541666666666667
            },
            {
              "pitch": 57,
              "velocity": 93,
              "position": 10.052083333333334,
              "duration": 0.4166666666666667
            },
            {
              "pitch": 62,
              "velocity": 93,
              "position": 10.052083333333334,
              "duration": 0.4270833333333333
            },
            {
              "pitch": 43,
              "velocity": 83,
              "position": 10.041666666666666,
              "duration": 0.4583333333333333
            },
            {
              "pitch": 51,
              "velocity": 83,
              "position": 10.041666666666666,
              "duration": 0.4583333333333333
            },
            {
              "pitch": 36,
              "velocity": 79,
              "position": 10.083333333333334,
              "duration": 0.4375
            },
            {
              "pitch": 57,
              "velocity": 90,
              "position": 11.729166666666666,
              "duration": 12.260416666666666
            },
            {
              "pitch": 62,
              "velocity": 90,
              "position": 11.729166666666666,
              "duration": 12.260416666666666
            },
            {
              "pitch": 36,
              "velocity": 83,
              "position": 11.739583333333334,
              "duration": 12.25
            },
            {
              "pitch": 43,
              "velocity": 83,
              "position": 11.760416666666666,
              "duration": 12.229166666666666
            },
            {
              "pitch": 51,
              "velocity": 83,
              "position": 11.760416666666666,
              "duration": 12.229166666666666
            }
          ]
        },
        "4": {
          "ctab": {
            "srcChannel": 4,
            "name": "Vib",
            "accType": "PAD",
            "editable": false,
            "mutedNotes": [],
            "mutedChords": [
              "1+2+5",
              "sus4",
              "1+5",
              "1+8",
              "7aug",
              "Maj7aug",
              "7(#9)",
              "7(b13)",
              "7(b9)",
              "7(13)",
              "7#11",
              "7(9)",
              "7b5",
              "7sus4",
              "7th",
              "aug",
              "Maj6(9)",
              "Maj7(9)",
              "Maj(9)",
              "Maj7#11",
              "Maj7",
              "Maj6",
              "Maj"
            ],
            "autoStart": false,
            "sourceChordNote": 0,
            "sourceChordType": "min",
            "ctb2Low": null,
            "ctb2Main": {
              "ntr": "ROOT_TRANSPOSITION",
              "ntt": "BYPASS",
              "bassOn": false,
              "chordRootUpperLimit": 10,
              "noteLowLimit": 0,
              "noteHighLimit": 127,
              "rtr": "PITCH_SHIFT"
            },
            "ctb2High": null
          },
          "notes": [
            {
              "pitch": 72,
              "velocity": 83,
              "position": 0.09375,
              "duration": 0.5104166666666666
            },
            {
              "pitch": 72,
              "velocity": 61,
              "position": 0.75,
              "duration": 0.16666666666666666
            },
            {
              "pitch": 72,
              "velocity": 75,
              "position": 1.0416666666666667,
              "duration": 0.5
            },
            {
              "pitch": 72,
              "velocity": 73,
              "position": 1.71875,
              "duration": 0.3020833333333333
            },
            {
              "pitch": 72,
              "velocity": 79,
              "position": 2.71875,
              "duration": 0.34375
            },
            {
              "pitch": 72,
              "velocity": 79,
              "position": 3.7395833333333335,
              "duration": 1.2083333333333333
            },
            {
              "pitch": 72,
              "velocity": 79,
              "position": 5.083333333333333,
              "duration": 0.4479166666666667
            },
            {
              "pitch": 77,
              "velocity": 71,
              "position": 6.083333333333333,
              "duration": 0.53125
            },
            {
              "pitch": 75,
              "velocity": 79,
              "position": 6.708333333333333,
              "duration": 1.3020833333333333
            }
          ]
        },
        "9": {
          "ctab": {
            "srcChannel": 9,
            "name": "Drums",
            "accType": "RHYTHM",
            "editable": false,
            "mutedNotes": [],
            "mutedChords": [],
            "autoStart": true,
            "sourceChordNote": 0,
            "sourceChordType": "Maj7",
            "ctb2Low": null,
            "ctb2Main": {
              "ntr": "ROOT_FIXED",
              "ntt": "BYPASS",
              "bassOn": false,
              "chordRootUpperLimit": 6,
              "noteLowLimit": 0,
              "noteHighLimit": 127,
              "rtr": "PITCH_SHIFT"
            },
            "ctb2High": null
          },
          "notes": [
            {
              "pitch": 36,
              "velocity": 60,
              "position": 0,
              "duration": 0.010416666666666666
            },
            {
              "pitch": 59,
              "velocity": 72,
              "position": 0,
              "duration": 0.010416666666666666
            },
            {
              "pitch": 40,
              "velocity": 13,
              "position": 0.3333333333333333,
              "duration": 0.010416666666666666
            },
            {
              "pitch": 40,
              "velocity": 13,
              "position": 0.5,
              "duration": 0.010416666666666666
            },
            {
              "pitch": 40,
              "velocity": 93,
              "position": 0.6666666666666666,
              "duration": 0.010416666666666666
            },
            {
              "pitch": 26,
              "velocity": 30,
              "position": 0,
              "duration": 0.9895833333333334
            },
            {
              "pitch": 44,
              "velocity": 51,
              "position": 1,
              "duration": 0.010416666666666666
            },
            {
              "pitch": 47,
              "velocity": 70,
              "position": 1,
              "duration": 0.010416666666666666
            },
            {
              "pitch": 28,
              "velocity": 40,
              "position": 1.3333333333333333,
              "duration": 0.3229166666666667
            },
            {
              "pitch": 36,
              "velocity": 60,
              "position": 1.6666666666666667,
              "duration": 0.010416666666666666
            },
            {
              "pitch": 46,
              "velocity": 49,
              "position": 1.6666666666666667,
              "duration": 0.010416666666666666
            },
            {
              "pitch": 26,
              "velocity": 30,
              "position": 1,
              "duration": 0.9895833333333334
            },
            {
              "pitch": 44,
              "velocity": 51,
              "position": 2,
              "duration": 0.010416666666666666
            },
            {
              "pitch": 28,
              "velocity": 40,
              "position": 2.3333333333333335,
              "duration": 0.3229166666666667
            },
            {
              "pitch": 40,
              "velocity": 93,
              "position": 2.6666666666666665,
              "duration": 0.010416666666666666
            },
            {
              "pitch": 26,
              "velocity": 30,
              "position": 2,
              "duration": 0.9895833333333334
            },
            {
              "pitch": 44,
              "velocity": 51,
              "position": 3,
              "duration": 0.010416666666666666
            },
            {
              "pitch": 45,
              "velocity": 70,
              "position": 3,
              "duration": 0.010416666666666666
            },
            {
              "pitch": 28,
              "velocity": 40,
              "position": 3.3333333333333335,
              "duration": 0.3229166666666667
            },
            {
              "pitch": 36,
              "velocity": 60,
              "position": 3.6666666666666665,
              "duration": 0.010416666666666666
            },
            {
              "pitch": 57,
              "velocity": 55,
              "position": 3.6875,
              "duration": 0.010416666666666666
            },
            {
              "pitch": 26,
              "velocity": 30,
              "position": 3,
              "duration": 0.9895833333333334
            },
            {
              "pitch": 38,
              "velocity": 40,
              "position": 4.333333333333333,
              "duration": 0.010416666666666666
            },
            {
              "pitch": 36,
              "velocity": 60,
              "position": 4.666666666666667,
              "duration": 0.010416666666666666
            },
            {
              "pitch": 26,
              "velocity": 30,
              "position": 4,
              "duration": 0.9895833333333334
            },
            {
              "pitch": 36,
              "velocity": 61,
              "position": 5,
              "duration": 0.010416666666666666
            },
            {
              "pitch": 44,
              "velocity": 51,
              "position": 5,
              "duration": 0.010416666666666666
            },
            {
              "pitch": 57,
              "velocity": 55,
              "position": 5.010416666666667,
              "duration": 0.010416666666666666
            },
            {
              "pitch": 28,
              "velocity": 40,
              "position": 5.333333333333333,
              "duration": 0.3229166666666667
            },
            {
              "pitch": 26,
              "velocity": 30,
              "position": 5,
              "duration": 0.9895833333333334
            },
            {
              "pitch": 40,
              "velocity": 13,
              "position": 6,
              "duration": 0.010416666666666666
            },
            {
              "pitch": 28,
              "velocity": 40,
              "position": 6.333333333333333,
              "duration": 0.3229166666666667
            },
            {
              "pitch": 36,
              "velocity": 60,
              "position": 6.666666666666667,
              "duration": 0.010416666666666666
            },
            {
              "pitch": 49,
              "velocity": 55,
              "position": 6.666666666666667,
              "duration": 0.010416666666666666
            },
            {
              "pitch": 26,
              "velocity": 30,
              "position": 6,
              "duration": 0.9895833333333334
            },
            {
              "pitch": 26,
              "velocity": 30,
              "position": 7,
              "duration": 0.4895833333333333
            },
            {
              "pitch": 38,
              "velocity": 40,
              "position": 7.5,
              "duration": 0.010416666666666666
            },
            {
              "pitch": 40,
              "velocity": 33,
              "position": 7.666666666666667,
              "duration": 0.010416666666666666
            },
            {
              "pitch": 40,
              "velocity": 53,
              "position": 7.833333333333333,
              "duration": 0.010416666666666666
            },
            {
              "pitch": 40,
              "velocity": 93,
              "position": 8,
              "duration": 0.010416666666666666
            },
            {
              "pitch": 36,
              "velocity": 61,
              "position": 8.166666666666666,
              "duration": 0.010416666666666666
            },
            {
              "pitch": 36,
              "velocity": 61,
              "position": 9,
              "duration": 0.010416666666666666
            },
            {
              "pitch": 36,
              "velocity": 60,
              "position": 10,
              "duration": 0.010416666666666666
            },
            {
              "pitch": 59,
              "velocity": 78,
              "position": 10,
              "duration": 0.010416666666666666
            },
            {
              "pitch": 37,
              "velocity": 17,
              "position": 10.666666666666666,
              "duration": 0.010416666666666666
            },
            {
              "pitch": 40,
              "velocity": 13,
              "position": 10.666666666666666,
              "duration": 0.010416666666666666
            },
            {
              "pitch": 37,
              "velocity": 64,
              "position": 11,
              "duration": 0.010416666666666666
            },
            {
              "pitch": 40,
              "velocity": 93,
              "position": 11,
              "duration": 0.010416666666666666
            },
            {
              "pitch": 36,
              "velocity": 60,
              "position": 11.666666666666666,
              "duration": 0.010416666666666666
            },
            {
              "pitch": 59,
              "velocity": 78,
              "position": 11.729166666666666,
              "duration": 0.010416666666666666
            }
          ]
        },
        "10": {
          "ctab": {
            "srcChannel": 10,
            "name": "Bass",
            "accType": "BASS",
            "editable": false,
            "mutedNotes": [],
            "mutedChords": [
              "dim7",
              "dim",
              "minMaj7(9)",
              "minMaj7",
              "min7(11)",
              "min7(9)",
              "min(9)",
              "m7b5",
              "min7",
              "min6",
              "min"
            ],
            "autoStart": false,
            "sourceChordNote": 0,
            "sourceChordType": "Maj",
            "ctb2Low": null,
            "ctb2Main": {
              "ntr": "ROOT_TRANSPOSITION",
              "ntt": "BYPASS",
              "bassOn": false,
              "chordRootUpperLimit": 8,
              "noteLowLimit": 28,
              "noteHighLimit": 127,
              "rtr": "PITCH_SHIFT"
            },
            "ctb2High": null
          },
          "notes": [
            {
              "pitch": 36,
              "velocity": 50,
              "position": 0,
              "duration": 0.6145833333333334
            },
            {
              "pitch": 31,
              "velocity": 100,
              "position": 0.625,
              "duration": 0.1875
            },
            {
              "pitch": 36,
              "velocity": 34,
              "position": 1,
              "duration": 0.5625
            },
            {
              "pitch": 35,
              "velocity": 50,
              "position": 1.625,
              "duration": 0.3645833333333333
            },
            {
              "pitch": 35,
              "velocity": 50,
              "position": 2.625,
              "duration": 0.3645833333333333
            },
            {
              "pitch": 34,
              "velocity": 50,
              "position": 3.625,
              "duration": 1.25
            },
            {
              "pitch": 33,
              "velocity": 50,
              "position": 5,
              "duration": 0.46875
            },
            {
              "pitch": 32,
              "velocity": 50,
              "position": 6,
              "duration": 0.6145833333333334
            },
            {
              "pitch": 31,
              "velocity": 50,
              "position": 6.625,
              "duration": 1.3645833333333333
            },
            {
              "pitch": 36,
              "velocity": 50,
              "position": 10,
              "duration": 0.5
            },
            {
              "pitch": 36,
              "velocity": 50,
              "position": 11.625,
              "duration": 12.364583333333334
            }
          ]
        },
        "11": {
          "ctab": {
            "srcChannel": 11,
            "name": "Gt",
            "accType": "CHORD1",
            "editable": false,
            "mutedNotes": [],
            "mutedChords": [
              "dim7",
              "dim",
              "minMaj7(9)",
              "minMaj7",
              "min7(11)",
              "min7(9)",
              "min(9)",
              "m7b5",
              "min7",
              "min6",
              "min"
            ],
            "autoStart": false,
            "sourceChordNote": 0,
            "sourceChordType": "Maj",
            "ctb2Low": null,
            "ctb2Main": {
              "ntr": "ROOT_TRANSPOSITION",
              "ntt": "BYPASS",
              "bassOn": false,
              "chordRootUpperLimit": 7,
              "noteLowLimit": 55,
              "noteHighLimit": 66,
              "rtr": "PITCH_SHIFT"
            },
            "ctb2High": null
          },
          "notes": [
            {
              "pitch": 69,
              "velocity": 60,
              "position": 0.010416666666666666,
              "duration": 0.6354166666666666
            },
            {
              "pitch": 64,
              "velocity": 53,
              "position": 0.020833333333333332,
              "duration": 0.625
            },
            {
              "pitch": 64,
              "velocity": 44,
              "position": 0.6666666666666666,
              "duration": 0.375
            },
            {
              "pitch": 69,
              "velocity": 41,
              "position": 0.6770833333333334,
              "duration": 0.3645833333333333
            },
            {
              "pitch": 64,
              "velocity": 63,
              "position": 1.0625,
              "duration": 0.4791666666666667
            },
            {
              "pitch": 69,
              "velocity": 40,
              "position": 1.0520833333333333,
              "duration": 0.53125
            },
            {
              "pitch": 63,
              "velocity": 54,
              "position": 1.71875,
              "duration": 0.3645833333333333
            },
            {
              "pitch": 68,
              "velocity": 45,
              "position": 1.7083333333333333,
              "duration": 0.4479166666666667
            },
            {
              "pitch": 63,
              "velocity": 54,
              "position": 2.7083333333333335,
              "duration": 0.34375
            },
            {
              "pitch": 68,
              "velocity": 61,
              "position": 2.7083333333333335,
              "duration": 0.3645833333333333
            },
            {
              "pitch": 67,
              "velocity": 67,
              "position": 3.7291666666666665,
              "duration": 1.1875
            },
            {
              "pitch": 62,
              "velocity": 55,
              "position": 3.7395833333333335,
              "duration": 1.2083333333333333
            },
            {
              "pitch": 62,
              "velocity": 73,
              "position": 5.09375,
              "duration": 0.3333333333333333
            },
            {
              "pitch": 67,
              "velocity": 63,
              "position": 5.104166666666667,
              "duration": 0.3333333333333333
            },
            {
              "pitch": 65,
              "velocity": 54,
              "position": 6.052083333333333,
              "duration": 0.6145833333333334
            },
            {
              "pitch": 60,
              "velocity": 41,
              "position": 6.0625,
              "duration": 0.6145833333333334
            },
            {
              "pitch": 64,
              "velocity": 67,
              "position": 6.760416666666667,
              "duration": 1.25
            },
            {
              "pitch": 59,
              "velocity": 67,
              "position": 6.760416666666667,
              "duration": 1.28125
            },
            {
              "pitch": 57,
              "velocity": 67,
              "position": 10.052083333333334,
              "duration": 0.4166666666666667
            },
            {
              "pitch": 62,
              "velocity": 58,
              "position": 10.052083333333334,
              "duration": 0.4270833333333333
            },
            {
              "pitch": 52,
              "velocity": 53,
              "position": 10.041666666666666,
              "duration": 0.4583333333333333
            },
            {
              "pitch": 57,
              "velocity": 63,
              "position": 11.729166666666666,
              "duration": 12.260416666666666
            },
            {
              "pitch": 62,
              "velocity": 53,
              "position": 11.729166666666666,
              "duration": 12.260416666666666
            },
            {
              "pitch": 52,
              "velocity": 53,
              "position": 11.760416666666666,
              "duration": 12.229166666666666
            }
          ]
        },
        "12": {
          "ctab": {
            "srcChannel": 12,
            "name": "Pno",
            "accType": "CHORD2",
            "editable": false,
            "mutedNotes": [],
            "mutedChords": [
              "dim7",
              "dim",
              "minMaj7(9)",
              "minMaj7",
              "min7(11)",
              "min7(9)",
              "min(9)",
              "m7b5",
              "min7",
              "min6",
              "min"
            ],
            "autoStart": false,
            "sourceChordNote": 0,
            "sourceChordType": "Maj",
            "ctb2Low": null,
            "ctb2Main": {
              "ntr": "ROOT_TRANSPOSITION",
              "ntt": "BYPASS",
              "bassOn": false,
              "chordRootUpperLimit": 10,
              "noteLowLimit": 47,
              "noteHighLimit": 127,
              "rtr": "PITCH_SHIFT"
            },
            "ctb2High": null
          },
          "notes": [
            {
              "pitch": 72,
              "velocity": 96,
              "position": 0.03125,
              "duration": 0.4375
            },
            {
              "pitch": 64,
              "velocity": 82,
              "position": 0.03125,
              "duration": 0.4791666666666667
            },
            {
              "pitch": 69,
              "velocity": 97,
              "position": 0.03125,
              "duration": 0.4791666666666667
            },
            {
              "pitch": 58,
              "velocity": 91,
              "position": 0.052083333333333336,
              "duration": 0.4583333333333333
            },
            {
              "pitch": 72,
              "velocity": 83,
              "position": 0.65625,
              "duration": 0.21875
            },
            {
              "pitch": 64,
              "velocity": 72,
              "position": 0.6458333333333334,
              "duration": 0.23958333333333334
            },
            {
              "pitch": 69,
              "velocity": 81,
              "position": 0.65625,
              "duration": 0.25
            },
            {
              "pitch": 58,
              "velocity": 72,
              "position": 0.6875,
              "duration": 0.21875
            },
            {
              "pitch": 72,
              "velocity": 84,
              "position": 1.0520833333333333,
              "duration": 0.4375
            },
            {
              "pitch": 58,
              "velocity": 60,
              "position": 1.0625,
              "duration": 0.46875
            },
            {
              "pitch": 64,
              "velocity": 68,
              "position": 1.0520833333333333,
              "duration": 0.4895833333333333
            },
            {
              "pitch": 69,
              "velocity": 77,
              "position": 1.0520833333333333,
              "duration": 0.4895833333333333
            },
            {
              "pitch": 57,
              "velocity": 72,
              "position": 1.7083333333333333,
              "duration": 0.3541666666666667
            },
            {
              "pitch": 63,
              "velocity": 85,
              "position": 1.6875,
              "duration": 0.3854166666666667
            },
            {
              "pitch": 68,
              "velocity": 90,
              "position": 1.6979166666666667,
              "duration": 0.375
            },
            {
              "pitch": 72,
              "velocity": 90,
              "position": 1.6875,
              "duration": 0.3958333333333333
            },
            {
              "pitch": 63,
              "velocity": 82,
              "position": 2.71875,
              "duration": 0.2916666666666667
            },
            {
              "pitch": 72,
              "velocity": 92,
              "position": 2.71875,
              "duration": 0.3333333333333333
            },
            {
              "pitch": 68,
              "velocity": 90,
              "position": 2.7083333333333335,
              "duration": 0.3541666666666667
            },
            {
              "pitch": 57,
              "velocity": 83,
              "position": 2.7083333333333335,
              "duration": 0.375
            },
            {
              "pitch": 72,
              "velocity": 89,
              "position": 3.6875,
              "duration": 1.1875
            },
            {
              "pitch": 56,
              "velocity": 91,
              "position": 3.6979166666666665,
              "duration": 1.1770833333333333
            },
            {
              "pitch": 67,
              "velocity": 85,
              "position": 3.6875,
              "duration": 1.1979166666666667
            },
            {
              "pitch": 62,
              "velocity": 77,
              "position": 3.6875,
              "duration": 1.2083333333333333
            },
            {
              "pitch": 62,
              "velocity": 74,
              "position": 5.041666666666667,
              "duration": 0.375
            },
            {
              "pitch": 67,
              "velocity": 82,
              "position": 5.052083333333333,
              "duration": 0.375
            },
            {
              "pitch": 56,
              "velocity": 89,
              "position": 5.072916666666667,
              "duration": 0.3645833333333333
            },
            {
              "pitch": 72,
              "velocity": 83,
              "position": 5.052083333333333,
              "duration": 0.4166666666666667
            },
            {
              "pitch": 70,
              "velocity": 85,
              "position": 6.0625,
              "duration": 0.5
            },
            {
              "pitch": 65,
              "velocity": 66,
              "position": 6.0625,
              "duration": 0.53125
            },
            {
              "pitch": 75,
              "velocity": 97,
              "position": 6.0625,
              "duration": 0.53125
            },
            {
              "pitch": 60,
              "velocity": 73,
              "position": 6.052083333333333,
              "duration": 0.5625
            },
            {
              "pitch": 54,
              "velocity": 85,
              "position": 6.0625,
              "duration": 0.5833333333333334
            },
            {
              "pitch": 65,
              "velocity": 71,
              "position": 6.6875,
              "duration": 1.25
            },
            {
              "pitch": 69,
              "velocity": 89,
              "position": 6.697916666666667,
              "duration": 1.28125
            },
            {
              "pitch": 76,
              "velocity": 93,
              "position": 6.697916666666667,
              "duration": 1.28125
            },
            {
              "pitch": 59,
              "velocity": 82,
              "position": 6.6875,
              "duration": 1.3229166666666667
            },
            {
              "pitch": 53,
              "velocity": 81,
              "position": 6.697916666666667,
              "duration": 1.3541666666666667
            },
            {
              "pitch": 57,
              "velocity": 93,
              "position": 10.052083333333334,
              "duration": 0.4166666666666667
            },
            {
              "pitch": 62,
              "velocity": 93,
              "position": 10.052083333333334,
              "duration": 0.4270833333333333
            },
            {
              "pitch": 43,
              "velocity": 83,
              "position": 10.041666666666666,
              "duration": 0.4583333333333333
            },
            {
              "pitch": 52,
              "velocity": 83,
              "position": 10.041666666666666,
              "duration": 0.4583333333333333
            },
            {
              "pitch": 36,
              "velocity": 79,
              "position": 10.083333333333334,
              "duration": 0.4375
            },
            {
              "pitch": 57,
              "velocity": 90,
              "position": 11.729166666666666,
              "duration": 12.260416666666666
            },
            {
              "pitch": 62,
              "velocity": 90,
              "position": 11.729166666666666,
              "duration": 12.260416666666666
            },
            {
              "pitch": 36,
              "velocity": 83,
              "position": 11.739583333333334,
              "duration": 12.25
            },
            {
              "pitch": 43,
              "velocity": 83,
              "position": 11.760416666666666,
              "duration": 12.229166666666666
            },
            {
              "pitch": 52,
              "velocity": 83,
              "position": 11.760416666666666,
              "duration": 12.229166666666666
            }
          ]
        },
        "13": {
          "ctab": {
            "srcChannel": 13,
            "name": "Vib",
            "accType": "PAD",
            "editable": false,
            "mutedNotes": [],
            "mutedChords": [
              "dim7",
              "dim",
              "minMaj7(9)",
              "minMaj7",
              "min7(11)",
              "min7(9)",
              "min(9)",
              "m7b5",
              "min7",
              "min6",
              "min"
            ],
            "autoStart": false,
            "sourceChordNote": 0,
            "sourceChordType": "Maj",
            "ctb2Low": null,
            "ctb2Main": {
              "ntr": "ROOT_TRANSPOSITION",
              "ntt": "BYPASS",
              "bassOn": false,
              "chordRootUpperLimit": 10,
              "noteLowLimit": 0,
              "noteHighLimit": 127,
              "rtr": "PITCH_SHIFT"
            },
            "ctb2High": null
          },
          "notes": [
            {
              "pitch": 72,
              "velocity": 86,
              "position": 0.09375,
              "duration": 0.5104166666666666
            },
            {
              "pitch": 72,
              "velocity": 64,
              "position": 0.75,
              "duration": 0.16666666666666666
            },
            {
              "pitch": 72,
              "velocity": 78,
              "position": 1.0416666666666667,
              "duration": 0.5
            },
            {
              "pitch": 72,
              "velocity": 76,
              "position": 1.71875,
              "duration": 0.3020833333333333
            },
            {
              "pitch": 72,
              "velocity": 82,
              "position": 2.71875,
              "duration": 0.34375
            },
            {
              "pitch": 72,
              "velocity": 82,
              "position": 3.7395833333333335,
              "duration": 1.2083333333333333
            },
            {
              "pitch": 72,
              "velocity": 82,
              "position": 5.083333333333333,
              "duration": 0.4479166666666667
            },
            {
              "pitch": 75,
              "velocity": 74,
              "position": 6.083333333333333,
              "duration": 0.53125
            },
            {
              "pitch": 76,
              "velocity": 82,
              "position": 6.708333333333333,
              "duration": 1.3020833333333333
            }
          ]
        }
      }
    }
  }
}