{
  "name": "Train Bt.STY",
  "tempo": 80,
  "timeSignature": "4/4",
  "ticksPerQuarter": 1920,
  "sffType": "SFF1",
  "division": "BINARY",
  "parts": {
    "Main_A": {
      "type": "Main_A",
      "sizeInBeats": 16,
      "channels": {
        "9": {
          "ctab": {
            "srcChannel": 9,
            "name": "Track 10",
            "accType": "SUBRHYTHM",
            "editable": false,
            "mutedNotes": [],
            "mutedChords": [],
            "autoStart": true,
            "sourceChordNote": 0,
            "sourceChordType": "Maj7",
            "ctb2Low": null,
            "ctb2Main": {
              "ntr": "ROOT_FIXED",
              "ntt": "BYPASS",
              "bassOn": false,
              "chordRootUpperLimit": 6,
              "noteLowLimit": 0,
              "noteHighLimit": 127,
              "rtr": "PITCH_SHIFT"
            },
            "ctb2High": null
          },
          "notes": [
            {
              "pitch": 36,
              "velocity": 115,
              "position": 0,
              "duration": 0.010416666666666666
            },
            {
              "pitch": 40,
              "velocity": 52,
              "position": 0.010416666666666666,
              "duration": 0.010416666666666666
            },
            {
              "pitch": 40,
              "velocity": 28,
              "position": 0.2604166666666667,
              "duration": 0.010416666666666666
            },
            {
              "pitch": 40,
              "velocity": 113,
              "position": 0.5,
              "duration": 0.010416666666666666
            },
            {
              "pitch": 40,
              "velocity": 30,
              "position": 0.75,
              "duration": 0.010416666666666666
            },
            {
              "pitch": 36,
              "velocity": 115,
              "position": 1,
              "duration": 0.010416666666666666
            },
            {
              "pitch": 40,
              "velocity": 47,
              "position": 1.0104166666666667,
              "duration": 0.010416666666666666
            },
            {
              "pitch": 40,
              "velocity": 37,
              "position": 1.25,
              "duration": 0.010416666666666666
            },
            {
              "pitch": 40,
              "velocity": 113,
              "position": 1.5,
              "duration": 0.010416666666666666
            },
            {
              "pitch": 40,
              "velocity": 30,
              "position": 1.7604166666666667,
              "duration": 0.010416666666666666
            },
            {
              "pitch": 36,
              "velocity": 115,
              "position": 2,
              "duration": 0.010416666666666666
            },
            {
              "pitch": 40,
              "velocity": 30,
              "position": 2.0104166666666665,
              "duration": 0.010416666666666666
            },
            {
              "pitch": 40,
              "velocity": 31,
              "position": 2.25,
              "duration": 0.010416666666666666
            },
            {
              "pitch": 40,
              "velocity": 113,
              "position": 2.5,
              "duration": 0.010416666666666666
            },
            {
              "pitch": 40,
              "velocity": 30,
              "position": 2.75,
              "duration": 0.010416666666666666
            },
            {
              "pitch": 36,
              "velocity": 115,
              "position": 3,
              "duration": 0.010416666666666666
            },
            {
              "pitch": 40,
              "velocity": 49,
              "position": 3,
              "duration": 0.010416666666666666
            },
            {
              "pitch": 40,
              "velocity": 34,
              "position": 3.25,
              "duration": 0.010416666666666666
            },
            {
              "pitch": 40,
              "velocity": 113,
              "position": 3.5,
              "duration": 0.010416666666666666
            },
            {
              "pitch": 40,
              "velocity": 36,
              "position": 3.75,
              "duration": 0.010416666666666666
            },
            {
              "pitch": 36,
              "velocity": 115,
              "position": 4,
              "duration": 0.010416666666666666
            },
            {
              "pitch": 40,
              "velocity": 39,
              "position": 4.010416666666667,
              "duration": 0.010416666666666666
            },
            {
              "pitch": 40,
              "velocity": 32,
              "position": 4.260416666666667,
              "duration": 0.010416666666666666
            },
            {
              "pitch": 40,
              "velocity": 108,
              "position": 4.5,
              "duration": 0.010416666666666666
            },
            {
              "pitch": 40,
              "velocity": 36,
              "position": 4.75,
              "duration": 0.010416666666666666
            },
            {
              "pitch": 36,
              "velocity": 115,
              "position": 5,
              "duration": 0.010416666666666666
            },
            {
              "pitch": 40,
              "velocity": 45,
              "position": 5.010416666666667,
              "duration": 0.010416666666666666
            },
            {
              "pitch": 40,
              "velocity": 33,
              "position": 5.260416666666667,
              "duration": 0.010416666666666666
            },
            {
              "pitch": 40,
              "velocity": 113,
              "position": 5.510416666666667,
              "duration": 0.010416666666666666
            },
            {
              "pitch": 40,
              "velocity": 29,
              "position": 5.75,
              "duration": 0.010416666666666666
            },
            {
              "pitch": 36,
              "velocity": 115,
              "position": 6,
              "duration": 0.010416666666666666
            },
            {
              "pitch": 40,
              "velocity": 37,
              "position": 6,
              "duration": 0.010416666666666666
            },
            {
              "pitch": 40,
              "velocity": 30,
              "position": 6.25,
              "duration": 0.010416666666666666
            },
            {
              "pitch": 40,
              "velocity": 113,
              "position": 6.5,
              "duration": 0.010416666666666666
            },
            {
              "pitch": 40,
              "velocity": 30,
              "position": 6.75,
              "duration": 0.010416666666666666
            },
            {
              "pitch": 40,
              "velocity": 39,
              "position": 6.989583333333333,
              "duration": 0.010416666666666666
            },
            {
              "pitch": 36,
              "velocity": 115,
              "position": 7,
              "duration": 0.010416666666666666
            },
            {
              "pitch": 40,
              "velocity": 36,
              "position": 7.25,
              "duration": 0.010416666666666666
            },
            {
              "pitch": 40,
              "velocity": 113,
              "position": 7.5,
              "duration": 0.010416666666666666
            },
            {
              "pitch": 40,
              "velocity": 41,
              "position": 7.75,
              "duration": 0.010416666666666666
            },
            {
              "pitch": 36,
              "velocity": 115,
              "position": 8,
              "duration": 0.010416666666666666
            },
            {
              "pitch": 40,
              "velocity": 39,
              "position": 8.010416666666666,
              "duration": 0.010416666666666666
            },
            {
              "pitch": 40,
              "velocity": 32,
              "position": 8.25,
              "duration": 0.010416666666666666
            },
            {
              "pitch": 40,
              "velocity": 113,
              "position": 8.5,
              "duration": 0.010416666666666666
            },
            {
              "pitch": 40,
              "velocity": 31,
              "position": 8.75,
              "duration": 0.010416666666666666
            },
            {
              "pitch": 36,
              "velocity": 115,
              "position": 9,
              "duration": 0.010416666666666666
            },
            {
              "pitch": 40,
              "velocity": 39,
              "position": 9,
              "duration": 0.010416666666666666
            },
            {
              "pitch": 40,
              "velocity": 30,
              "position": 9.260416666666666,
              "duration": 0.010416666666666666
            },
            {
              "pitch": 40,
              "velocity": 113,
              "position": 9.5,
              "duration": 0.010416666666666666
            },
            {
              "pitch": 40,
              "velocity": 31,
              "position": 9.760416666666666,
              "duration": 0.010416666666666666
            },
            {
              "pitch": 36,
              "velocity": 115,
              "position": 10,
              "duration": 0.010416666666666666
            },
            {
              "pitch": 40,
              "velocity": 43,
              "position": 10.010416666666666,
              "duration": 0.010416666666666666
            },
            {
              "pitch": 40,
              "velocity": 30,
              "position": 10.260416666666666,
              "duration": 0.010416666666666666
            },
            {
              "pitch": 40,
              "velocity": 113,
              "position": 10.510416666666666,
              "duration": 0.010416666666666666
            },
            {
              "pitch": 40,
              "velocity": 41,
              "position": 10.760416666666666,
              "duration": 0.010416666666666666
            },
            {
              "pitch": 36,
              "velocity": 115,
              "position": 11,
              "duration": 0.010416666666666666
            },
            {
              "pitch": 40,
              "velocity": 26,
              "position": 11.020833333333334,
              "duration": 0.010416666666666666
            },
            {
              "pitch": 40,
              "velocity": 34,
              "position": 11.260416666666666,
              "duration": 0.010416666666666666
            },
            {
              "pitch": 40,
              "velocity": 113,
              "position": 11.510416666666666,
              "duration": 0.010416666666666666
            },
            {
              "pitch": 40,
              "velocity": 34,
              "position": 11.760416666666666,
              "duration": 0.010416666666666666
            },
            {
              "pitch": 36,
              "velocity": 115,
              "position": 12,
              "duration": 0.010416666666666666
            },
            {
              "pitch": 40,
              "velocity": 41,
              "position": 12.010416666666666,
              "duration": 0.010416666666666666
            },
            {
              "pitch": 40,
              "velocity": 31,
              "position": 12.260416666666666,
              "duration": 0.010416666666666666
            },
            {
              "pitch": 40,
              "velocity": 113,
              "position": 12.510416666666666,
              "duration": 0.010416666666666666
            },
            {
              "pitch": 40,
              "velocity": 33,
              "position": 12.760416666666666,
              "duration": 0.010416666666666666
            },
            {
              "pitch": 36,
              "velocity": 115,
              "position": 13,
              "duration": 0.010416666666666666
            },
            {
              "pitch": 40,
              "velocity": 45,
              "position": 13.010416666666666,
              "duration": 0.010416666666666666
            },
            {
              "pitch": 40,
              "velocity": 29,
              "position": 13.260416666666666,
              "duration": 0.010416666666666666
            },
            {
              "pitch": 40,
              "velocity": 113,
              "position": 13.510416666666666,
              "duration": 0.010416666666666666
            },
            {
              "pitch": 40,
              "velocity": 26,
              "position": 13.770833333333334,
              "duration": 0.010416666666666666
            },
            {
              "pitch": 36,
              "velocity": 115,
              "position": 14,
              "duration": 0.010416666666666666
            },
            {
              "pitch": 40,
              "velocity": 48,
              "position": 14.010416666666666,
              "duration": 0.010416666666666666
            },
            {
              "pitch": 40,
              "velocity": 28,
              "position": 14.25,
              "duration": 0.010416666666666666
            },
            {
              "pitch": 40,
              "velocity": 113,
              "position": 14.510416666666666,
              "duration": 0.010416666666666666
            },
            {
              "pitch": 40,
              "velocity": 29,
              "position": 14.760416666666666,
              "duration": 0.010416666666666666
            },
            {
              "pitch": 36,
              "velocity": 115,
              "position": 15,
              "duration": 0.010416666666666666
            },
            {
              "pitch": 40,
              "velocity": 50,
              "position": 15.010416666666666,
              "duration": 0.010416666666666666
            },
            {
              "pitch": 40,
              "velocity": 24,
              "position": 15.260416666666666,
              "duration": 0.010416666666666666
            },
            {
              "pitch": 40,
              "velocity": 111,
              "position": 15.510416666666666,
              "duration": 0.010416666666666666
            },
            {
              "pitch": 40,
              "velocity": 66,
              "position": 15.75,
              "duration": 0.010416666666666666
            }
          ]
        },
        "10": {
          "ctab": {
            "srcChannel": 10,
            "name": "Track 11",
            "accType": "BASS",
            "editable": false,
            "mutedNotes": [],
            "mutedChords": [],
            "autoStart": false,
            "sourceChordNote": 0,
            "sourceChordType": "Maj7",
            "ctb2Low": null,
            "ctb2Main": {
              "ntr": "ROOT_TRANSPOSITION",
              "ntt": "MELODY",
              "bassOn": true,
              "chordRootUpperLimit": 3,
              "noteLowLimit": 28,
              "noteHighLimit": 127,
              "rtr": "PITCH_SHIFT"
            },
            "ctb2High": null
          },
          "notes": [
            {
              "pitch": 36,
              "velocity": 114,
              "position": 0,
              "duration": 0.4375
            },
            {
              "pitch": 36,
              "velocity": 97,
              "position": 0.75,
              "duration": 0.052083333333333336
            },
            {
              "pitch": 31,
              "velocity": 119,
              "position": 1,
              "duration": 0.4791666666666667
            },
            {
              "pitch": 31,
              "velocity": 97,
              "position": 1.75,
              "duration": 0.020833333333333332
            },
            {
              "pitch": 36,
              "velocity": 119,
              "position": 2,
              "duration": 0.4895833333333333
            },
            {
              "pitch": 36,
              "velocity": 99,
              "position": 2.75,
              "duration": 0.052083333333333336
            },
            {
              "pitch": 31,
              "velocity": 119,
              "position": 3,
              "duration": 0.4791666666666667
            },
            {
              "pitch": 31,
              "velocity": 101,
              "position": 3.75,
              "duration": 0.03125
            },
            {
              "pitch": 36,
              "velocity": 121,
              "position": 4,
              "duration": 0.4791666666666667
            },
            {
              "pitch": 36,
              "velocity": 103,
              "position": 4.75,
              "duration": 0.052083333333333336
            },
            {
              "pitch": 31,
              "velocity": 122,
              "position": 5,
              "duration": 0.5
            },
            {
              "pitch": 31,
              "velocity": 107,
              "position": 5.75,
              "duration": 0.07291666666666667
            },
            {
              "pitch": 36,
              "velocity": 123,
              "position": 6,
              "duration": 0.5
            },
            {
              "pitch": 36,
              "velocity": 97,
              "position": 6.75,
              "duration": 0.0625
            },
            {
              "pitch": 31,
              "velocity": 121,
              "position": 7,
              "duration": 0.40625
            },
            {
              "pitch": 40,
              "velocity": 116,
              "position": 7.5,
              "duration": 0.4479166666666667
            },
            {
              "pitch": 36,
              "velocity": 119,
              "position": 8,
              "duration": 0.4895833333333333
            },
            {
              "pitch": 36,
              "velocity": 94,
              "position": 8.75,
              "duration": 0.041666666666666664
            },
            {
              "pitch": 31,
              "velocity": 119,
              "position": 9,
              "duration": 0.4583333333333333
            },
            {
              "pitch": 31,
              "velocity": 106,
              "position": 9.75,
              "duration": 0.08333333333333333
            },
            {
              "pitch": 36,
              "velocity": 112,
              "position": 10,
              "duration": 0.5
            },
            {
              "pitch": 36,
              "velocity": 92,
              "position": 10.75,
              "duration": 0.041666666666666664
            },
            {
              "pitch": 31,
              "velocity": 114,
              "position": 11,
              "duration": 0.5104166666666666
            },
            {
              "pitch": 31,
              "velocity": 99,
              "position": 11.75,
              "duration": 0.041666666666666664
            },
            {
              "pitch": 36,
              "velocity": 117,
              "position": 12,
              "duration": 0.5208333333333334
            },
            {
              "pitch": 36,
              "velocity": 102,
              "position": 12.75,
              "duration": 0.052083333333333336
            },
            {
              "pitch": 31,
              "velocity": 114,
              "position": 13,
              "duration": 0.5416666666666666
            },
            {
              "pitch": 31,
              "velocity": 101,
              "position": 13.75,
              "duration": 0.0625
            },
            {
              "pitch": 36,
              "velocity": 115,
              "position": 14,
              "duration": 0.5
            },
            {
              "pitch": 36,
              "velocity": 103,
              "position": 14.75,
              "duration": 0.0625
            },
            {
              "pitch": 31,
              "velocity": 116,
              "position": 15,
              "duration": 0.3333333333333333
            },
            {
              "pitch": 31,
              "velocity": 119,
              "position": 15.5,
              "duration": 0.20833333333333334
            },
            {
              "pitch": 33,
              "velocity": 90,
              "position": 15.75,
              "duration": 0.20833333333333334
            }
          ]
        },
        "12": {
          "ctab": {
            "srcChannel": 12,
            "name": "Track 13",
            "accType": "CHORD2",
            "editable": false,
            "mutedNotes": [],
            "mutedChords": [],
            "autoStart": false,
            "sourceChordNote": 0,
            "sourceChordType": "Maj7",
            "ctb2Low": null,
            "ctb2Main": {
              "ntr": "ROOT_TRANSPOSITION",
              "ntt": "CHORD",
              "bassOn": false,
              "chordRootUpperLimit": 6,
              "noteLowLimit": 0,
              "noteHighLimit": 79,
              "rtr": "STOP"
            },
            "ctb2High": null
          },
          "notes": [
            {
              "pitch": 55,
              "velocity": 70,
              "position": 0.020833333333333332,
              "duration": 0.20833333333333334
            },
            {
              "pitch": 48,
              "velocity": 67,
              "position": 0.2708333333333333,
              "duration": 0.19791666666666666
            },
            {
              "pitch": 57,
              "velocity": 67,
              "position": 0.5208333333333334,
              "duration": 0.20833333333333334
            },
            {
              "pitch": 48,
              "velocity": 43,
              "position": 0.7395833333333334,
              "duration": 0.22916666666666666
            },
            {
              "pitch": 55,
              "velocity": 55,
              "position": 1.0104166666666667,
              "duration": 0.23958333333333334
            },
            {
              "pitch": 48,
              "velocity": 64,
              "position": 1.2708333333333333,
              "duration": 0.19791666666666666
            },
            {
              "pitch": 57,
              "velocity": 73,
              "position": 1.5104166666666667,
              "duration": 0.21875
            },
            {
              "pitch": 48,
              "velocity": 61,
              "position": 1.7604166666666667,
              "duration": 0.23958333333333334
            },
            {
              "pitch": 55,
              "velocity": 58,
              "position": 2.0416666666666665,
              "duration": 0.20833333333333334
            },
            {
              "pitch": 48,
              "velocity": 55,
              "position": 2.2708333333333335,
              "duration": 0.19791666666666666
            },
            {
              "pitch": 57,
              "velocity": 67,
              "position": 2.5104166666666665,
              "duration": 0.22916666666666666
            },
            {
              "pitch": 48,
              "velocity": 58,
              "position": 2.75,
              "duration": 0.22916666666666666
            },
            {
              "pitch": 55,
              "velocity": 61,
              "position": 3.0104166666666665,
              "duration": 0.22916666666666666
            },
            {
              "pitch": 48,
              "velocity": 52,
              "position": 3.2604166666666665,
              "duration": 0.1875
            },
            {
              "pitch": 57,
              "velocity": 70,
              "position": 3.5,
              "duration": 0.22916666666666666
            },
            {
              "pitch": 48,
              "velocity": 50,
              "position": 3.75,
              "duration": 0.22916666666666666
            },
            {
              "pitch": 55,
              "velocity": 61,
              "position": 4.010416666666667,
              "duration": 0.23958333333333334
            },
            {
              "pitch": 48,
              "velocity": 55,
              "position": 4.260416666666667,
              "duration": 0.1875
            },
            {
              "pitch": 57,
              "velocity": 67,
              "position": 4.5,
              "duration": 0.21875
            },
            {
              "pitch": 48,
              "velocity": 64,
              "position": 4.75,
              "duration": 0.22916666666666666
            },
            {
              "pitch": 55,
              "velocity": 67,
              "position": 5,
              "duration": 0.22916666666666666
            },
            {
              "pitch": 48,
              "velocity": 50,
              "position": 5.260416666666667,
              "duration": 0.19791666666666666
            },
            {
              "pitch": 57,
              "velocity": 64,
              "position": 5.5,
              "duration": 0.25
            },
            {
              "pitch": 48,
              "velocity": 61,
              "position": 5.760416666666667,
              "duration": 0.21875
            },
            {
              "pitch": 75,
              "velocity": 89,
              "position": 6.010416666666667,
              "duration": 0.03125
            },
            {
              "pitch": 76,
              "velocity": 84,
              "position": 6.041666666666667,
              "duration": 0.11458333333333333
            },
            {
              "pitch": 84,
              "velocity": 81,
              "position": 6.020833333333333,
              "duration": 0.14583333333333334
            },
            {
              "pitch": 55,
              "velocity": 50,
              "position": 6.010416666666667,
              "duration": 0.22916666666666666
            },
            {
              "pitch": 48,
              "velocity": 45,
              "position": 6.260416666666667,
              "duration": 0.20833333333333334
            },
            {
              "pitch": 57,
              "velocity": 67,
              "position": 6.520833333333333,
              "duration": 0.1875
            },
            {
              "pitch": 84,
              "velocity": 81,
              "position": 6.760416666666667,
              "duration": 0.11458333333333333
            },
            {
              "pitch": 76,
              "velocity": 89,
              "position": 6.770833333333333,
              "duration": 0.10416666666666667
            },
            {
              "pitch": 48,
              "velocity": 58,
              "position": 6.75,
              "duration": 0.22916666666666666
            },
            {
              "pitch": 55,
              "velocity": 55,
              "position": 7.010416666666667,
              "duration": 0.23958333333333334
            },
            {
              "pitch": 48,
              "velocity": 39,
              "position": 7.260416666666667,
              "duration": 0.1875
            },
            {
              "pitch": 57,
              "velocity": 70,
              "position": 7.489583333333333,
              "duration": 0.2604166666666667
            },
            {
              "pitch": 48,
              "velocity": 55,
              "position": 7.760416666666667,
              "duration": 0.20833333333333334
            },
            {
              "pitch": 55,
              "velocity": 61,
              "position": 8.010416666666666,
              "duration": 0.22916666666666666
            },
            {
              "pitch": 48,
              "velocity": 47,
              "position": 8.260416666666666,
              "duration": 0.1875
            },
            {
              "pitch": 57,
              "velocity": 61,
              "position": 8.5,
              "duration": 0.2604166666666667
            },
            {
              "pitch": 48,
              "velocity": 58,
              "position": 8.75,
              "duration": 0.22916666666666666
            },
            {
              "pitch": 55,
              "velocity": 61,
              "position": 9.010416666666666,
              "duration": 0.22916666666666666
            },
            {
              "pitch": 48,
              "velocity": 45,
              "position": 9.25,
              "duration": 0.21875
            },
            {
              "pitch": 57,
              "velocity": 70,
              "position": 9.5,
              "duration": 0.23958333333333334
            },
            {
              "pitch": 48,
              "velocity": 61,
              "position": 9.75,
              "duration": 0.23958333333333334
            },
            {
              "pitch": 55,
              "velocity": 58,
              "position": 10.020833333333334,
              "duration": 0.21875
            },
            {
              "pitch": 76,
              "velocity": 70,
              "position": 10.270833333333334,
              "duration": 0.07291666666666667
            },
            {
              "pitch": 67,
              "velocity": 61,
              "position": 10.28125,
              "duration": 0.0625
            },
            {
              "pitch": 48,
              "velocity": 55,
              "position": 10.25,
              "duration": 0.19791666666666666
            },
            {
              "pitch": 57,
              "velocity": 61,
              "position": 10.5,
              "duration": 0.25
            },
            {
              "pitch": 64,
              "velocity": 19,
              "position": 10.802083333333334,
              "duration": 0.041666666666666664
            },
            {
              "pitch": 48,
              "velocity": 43,
              "position": 10.760416666666666,
              "duration": 0.20833333333333334
            },
            {
              "pitch": 71,
              "velocity": 61,
              "position": 11,
              "duration": 0.08333333333333333
            },
            {
              "pitch": 64,
              "velocity": 73,
              "position": 11.010416666666666,
              "duration": 0.08333333333333333
            },
            {
              "pitch": 55,
              "velocity": 58,
              "position": 11,
              "duration": 0.2916666666666667
            },
            {
              "pitch": 48,
              "velocity": 52,
              "position": 11.270833333333334,
              "duration": 0.1875
            },
            {
              "pitch": 57,
              "velocity": 67,
              "position": 11.5,
              "duration": 0.22916666666666666
            },
            {
              "pitch": 48,
              "velocity": 64,
              "position": 11.75,
              "duration": 0.22916666666666666
            },
            {
              "pitch": 55,
              "velocity": 58,
              "position": 12.010416666666666,
              "duration": 0.25
            },
            {
              "pitch": 48,
              "velocity": 50,
              "position": 12.270833333333334,
              "duration": 0.21875
            },
            {
              "pitch": 57,
              "velocity": 70,
              "position": 12.520833333333334,
              "duration": 0.21875
            },
            {
              "pitch": 48,
              "velocity": 47,
              "position": 12.729166666666666,
              "duration": 0.25
            },
            {
              "pitch": 55,
              "velocity": 42,
              "position": 13,
              "duration": 0.23958333333333334
            },
            {
              "pitch": 48,
              "velocity": 55,
              "position": 13.28125,
              "duration": 0.16666666666666666
            },
            {
              "pitch": 57,
              "velocity": 61,
              "position": 13.5,
              "duration": 0.23958333333333334
            },
            {
              "pitch": 48,
              "velocity": 52,
              "position": 13.75,
              "duration": 0.23958333333333334
            },
            {
              "pitch": 55,
              "velocity": 55,
              "position": 14.010416666666666,
              "duration": 0.25
            },
            {
              "pitch": 78,
              "velocity": 94,
              "position": 14.270833333333334,
              "duration": 0.052083333333333336
            },
            {
              "pitch": 71,
              "velocity": 67,
              "position": 14.28125,
              "duration": 0.08333333333333333
            },
            {
              "pitch": 84,
              "velocity": 73,
              "position": 14.260416666666666,
              "duration": 0.11458333333333333
            },
            {
              "pitch": 79,
              "velocity": 70,
              "position": 14.291666666666666,
              "duration": 0.09375
            },
            {
              "pitch": 48,
              "velocity": 47,
              "position": 14.270833333333334,
              "duration": 0.1875
            },
            {
              "pitch": 57,
              "velocity": 67,
              "position": 14.510416666666666,
              "duration": 0.25
            },
            {
              "pitch": 71,
              "velocity": 32,
              "position": 14.770833333333334,
              "duration": 0.0625
            },
            {
              "pitch": 48,
              "velocity": 67,
              "position": 14.760416666666666,
              "duration": 0.19791666666666666
            },
            {
              "pitch": 79,
              "velocity": 81,
              "position": 15,
              "duration": 0.09375
            },
            {
              "pitch": 71,
              "velocity": 61,
              "position": 15.010416666666666,
              "duration": 0.08333333333333333
            },
            {
              "pitch": 84,
              "velocity": 73,
              "position": 15,
              "duration": 0.10416666666666667
            },
            {
              "pitch": 55,
              "velocity": 58,
              "position": 15.010416666666666,
              "duration": 0.21875
            },
            {
              "pitch": 84,
              "velocity": 46,
              "position": 15.25,
              "duration": 0.09375
            },
            {
              "pitch": 79,
              "velocity": 38,
              "position": 15.25,
              "duration": 0.09375
            },
            {
              "pitch": 71,
              "velocity": 55,
              "position": 15.25,
              "duration": 0.10416666666666667
            },
            {
              "pitch": 48,
              "velocity": 55,
              "position": 15.25,
              "duration": 0.19791666666666666
            },
            {
              "pitch": 57,
              "velocity": 81,
              "position": 15.5,
              "duration": 0.1875
            },
            {
              "pitch": 48,
              "velocity": 47,
              "position": 15.75,
              "duration": 0.19791666666666666
            }
          ]
        },
        "14": {
          "ctab": {
            "srcChannel": 14,
            "name": "Track 15",
            "accType": "PHRASE1",
            "editable": false,
            "mutedNotes": [],
            "mutedChords": [],
            "autoStart": false,
            "sourceChordNote": 0,
            "sourceChordType": "Maj7",
            "ctb2Low": null,
            "ctb2Main": {
              "ntr": "ROOT_TRANSPOSITION",
              "ntt": "CHORD",
              "bassOn": false,
              "chordRootUpperLimit": 6,
              "noteLowLimit": 0,
              "noteHighLimit": 127,
              "rtr": "PITCH_SHIFT"
            },
            "ctb2High": null
          },
          "notes": [
            {
              "pitch": 55,
              "velocity": 94,
              "position": 0.020833333333333332,
              "duration": 0.17708333333333334
            },
            {
              "pitch": 55,
              "velocity": 37,
              "position": 0.2604166666666667,
              "duration": 0.125
            },
            {
              "pitch": 48,
              "velocity": 86,
              "position": 0.010416666666666666,
              "duration": 0.46875
            },
            {
              "pitch": 57,
              "velocity": 86,
              "position": 0.5104166666666666,
              "duration": 0.16666666666666666
            },
            {
              "pitch": 48,
              "velocity": 75,
              "position": 0.5104166666666666,
              "duration": 0.20833333333333334
            },
            {
              "pitch": 55,
              "velocity": 98,
              "position": 1.0104166666666667,
              "duration": 0.17708333333333334
            },
            {
              "pitch": 48,
              "velocity": 75,
              "position": 1.0104166666666667,
              "duration": 0.23958333333333334
            },
            {
              "pitch": 57,
              "velocity": 94,
              "position": 1.5208333333333333,
              "duration": 0.19791666666666666
            },
            {
              "pitch": 48,
              "velocity": 82,
              "position": 1.5208333333333333,
              "duration": 0.3125
            },
            {
              "pitch": 55,
              "velocity": 69,
              "position": 1.78125,
              "duration": 0.3854166666666667
            },
            {
              "pitch": 48,
              "velocity": 94,
              "position": 2.0208333333333335,
              "duration": 0.17708333333333334
            },
            {
              "pitch": 48,
              "velocity": 63,
              "position": 2.28125,
              "duration": 0.17708333333333334
            },
            {
              "pitch": 51,
              "velocity": 99,
              "position": 2.5104166666666665,
              "duration": 0.23958333333333334
            },
            {
              "pitch": 52,
              "velocity": 69,
              "position": 2.7708333333333335,
              "duration": 0.17708333333333334
            },
            {
              "pitch": 48,
              "velocity": 78,
              "position": 3,
              "duration": 0.16666666666666666
            },
            {
              "pitch": 55,
              "velocity": 86,
              "position": 3,
              "duration": 0.28125
            },
            {
              "pitch": 48,
              "velocity": 53,
              "position": 3.25,
              "duration": 0.10416666666666667
            },
            {
              "pitch": 57,
              "velocity": 94,
              "position": 3.5104166666666665,
              "duration": 0.21875
            },
            {
              "pitch": 48,
              "velocity": 89,
              "position": 3.5104166666666665,
              "duration": 0.28125
            },
            {
              "pitch": 55,
              "velocity": 60,
              "position": 3.7916666666666665,
              "duration": 0.15625
            },
            {
              "pitch": 48,
              "velocity": 89,
              "position": 4.020833333333333,
              "duration": 0.5104166666666666
            },
            {
              "pitch": 51,
              "velocity": 99,
              "position": 4.520833333333333,
              "duration": 0.21875
            },
            {
              "pitch": 52,
              "velocity": 58,
              "position": 4.78125,
              "duration": 0.15625
            },
            {
              "pitch": 55,
              "velocity": 86,
              "position": 5.010416666666667,
              "duration": 0.1875
            },
            {
              "pitch": 48,
              "velocity": 78,
              "position": 5.010416666666667,
              "duration": 0.20833333333333334
            },
            {
              "pitch": 57,
              "velocity": 94,
              "position": 5.520833333333333,
              "duration": 0.1875
            },
            {
              "pitch": 48,
              "velocity": 89,
              "position": 5.520833333333333,
              "duration": 0.21875
            },
            {
              "pitch": 55,
              "velocity": 66,
              "position": 5.770833333333333,
              "duration": 0.17708333333333334
            },
            {
              "pitch": 48,
              "velocity": 78,
              "position": 6,
              "duration": 0.23958333333333334
            },
            {
              "pitch": 55,
              "velocity": 82,
              "position": 6.239583333333333,
              "duration": 0.19791666666666666
            },
            {
              "pitch": 59,
              "velocity": 82,
              "position": 6.239583333333333,
              "duration": 0.21875
            },
            {
              "pitch": 48,
              "velocity": 82,
              "position": 6.5,
              "duration": 0.11458333333333333
            },
            {
              "pitch": 48,
              "velocity": 63,
              "position": 6.739583333333333,
              "duration": 0.22916666666666666
            },
            {
              "pitch": 55,
              "velocity": 94,
              "position": 6.989583333333333,
              "duration": 0.20833333333333334
            },
            {
              "pitch": 59,
              "velocity": 86,
              "position": 7,
              "duration": 0.22916666666666666
            },
            {
              "pitch": 48,
              "velocity": 60,
              "position": 7.25,
              "duration": 0.15625
            },
            {
              "pitch": 57,
              "velocity": 96,
              "position": 7.489583333333333,
              "duration": 0.1875
            },
            {
              "pitch": 48,
              "velocity": 43,
              "position": 7.5,
              "duration": 0.2708333333333333
            },
            {
              "pitch": 55,
              "velocity": 60,
              "position": 7.739583333333333,
              "duration": 0.16666666666666666
            },
            {
              "pitch": 59,
              "velocity": 92,
              "position": 7.489583333333333,
              "duration": 0.4270833333333333
            },
            {
              "pitch": 48,
              "velocity": 86,
              "position": 8.020833333333334,
              "duration": 0.19791666666666666
            },
            {
              "pitch": 48,
              "velocity": 72,
              "position": 8.260416666666666,
              "duration": 0.19791666666666666
            },
            {
              "pitch": 59,
              "velocity": 86,
              "position": 8.510416666666666,
              "duration": 0.19791666666666666
            },
            {
              "pitch": 55,
              "velocity": 66,
              "position": 8.520833333333334,
              "duration": 0.22916666666666666
            },
            {
              "pitch": 48,
              "velocity": 61,
              "position": 8.78125,
              "duration": 0.17708333333333334
            },
            {
              "pitch": 55,
              "velocity": 89,
              "position": 9.010416666666666,
              "duration": 0.16666666666666666
            },
            {
              "pitch": 48,
              "velocity": 78,
              "position": 9.020833333333334,
              "duration": 0.19791666666666666
            },
            {
              "pitch": 57,
              "velocity": 102,
              "position": 9.510416666666666,
              "duration": 0.1875
            },
            {
              "pitch": 48,
              "velocity": 75,
              "position": 9.510416666666666,
              "duration": 0.3229166666666667
            },
            {
              "pitch": 55,
              "velocity": 63,
              "position": 9.770833333333334,
              "duration": 0.21875
            },
            {
              "pitch": 48,
              "velocity": 89,
              "position": 10,
              "duration": 0.1875
            },
            {
              "pitch": 48,
              "velocity": 69,
              "position": 10.260416666666666,
              "duration": 0.19791666666666666
            },
            {
              "pitch": 51,
              "velocity": 94,
              "position": 10.510416666666666,
              "duration": 0.25
            },
            {
              "pitch": 52,
              "velocity": 72,
              "position": 10.78125,
              "duration": 0.17708333333333334
            },
            {
              "pitch": 48,
              "velocity": 75,
              "position": 11,
              "duration": 0.16666666666666666
            },
            {
              "pitch": 55,
              "velocity": 82,
              "position": 11.010416666666666,
              "duration": 0.3333333333333333
            },
            {
              "pitch": 48,
              "velocity": 63,
              "position": 11.260416666666666,
              "duration": 0.125
            },
            {
              "pitch": 57,
              "velocity": 94,
              "position": 11.520833333333334,
              "duration": 0.19791666666666666
            },
            {
              "pitch": 48,
              "velocity": 72,
              "position": 11.520833333333334,
              "duration": 0.2916666666666667
            },
            {
              "pitch": 55,
              "velocity": 69,
              "position": 11.78125,
              "duration": 0.17708333333333334
            },
            {
              "pitch": 48,
              "velocity": 89,
              "position": 12.020833333333334,
              "duration": 0.1875
            },
            {
              "pitch": 48,
              "velocity": 39,
              "position": 12.260416666666666,
              "duration": 0.14583333333333334
            },
            {
              "pitch": 57,
              "velocity": 89,
              "position": 12.53125,
              "duration": 0.1875
            },
            {
              "pitch": 48,
              "velocity": 78,
              "position": 12.53125,
              "duration": 0.20833333333333334
            },
            {
              "pitch": 55,
              "velocity": 86,
              "position": 13.010416666666666,
              "duration": 0.1875
            },
            {
              "pitch": 48,
              "velocity": 82,
              "position": 13.010416666666666,
              "duration": 0.21875
            },
            {
              "pitch": 57,
              "velocity": 98,
              "position": 13.520833333333334,
              "duration": 0.1875
            },
            {
              "pitch": 48,
              "velocity": 89,
              "position": 13.520833333333334,
              "duration": 0.23958333333333334
            },
            {
              "pitch": 55,
              "velocity": 69,
              "position": 13.78125,
              "duration": 0.16666666666666666
            },
            {
              "pitch": 48,
              "velocity": 82,
              "position": 14.010416666666666,
              "duration": 0.20833333333333334
            },
            {
              "pitch": 48,
              "velocity": 78,
              "position": 14.510416666666666,
              "duration": 0.13541666666666666
            },
            {
              "pitch": 55,
              "velocity": 82,
              "position": 14.260416666666666,
              "duration": 0.5625
            },
            {
              "pitch": 59,
              "velocity": 71,
              "position": 14.260416666666666,
              "duration": 0.5625
            },
            {
              "pitch": 48,
              "velocity": 82,
              "position": 14.770833333333334,
              "duration": 0.17708333333333334
            },
            {
              "pitch": 51,
              "velocity": 103,
              "position": 15.020833333333334,
              "duration": 0.125
            },
            {
              "pitch": 52,
              "velocity": 80,
              "position": 15.125,
              "duration": 0.125
            },
            {
              "pitch": 59,
              "velocity": 82,
              "position": 15.270833333333334,
              "duration": 0.5833333333333334
            },
            {
              "pitch": 48,
              "velocity": 82,
              "position": 15.520833333333334,
              "duration": 0.3333333333333333
            },
            {
              "pitch": 55,
              "velocity": 72,
              "position": 15.25,
              "duration": 0.625
            }
          ]
        }
      }
    },
    "Main_B": {
      "type": "Main_B",
      "sizeInBeats": 16,
      "channels": {
        "8": {
          "ctab": {
            "srcChannel": 8,
            "name": "Track 9",
            "accType": "RHYTHM",
            "editable": false,
            "mutedNotes": [],
            "mutedChords": [],
            "autoStart": true,
            "sourceChordNote": 0,
            "sourceChordType": "Maj7",
            "ctb2Low": null,
            "ctb2Main": {
              "ntr": "ROOT_FIXED",
              "ntt": "BYPASS",
              "bassOn": false,
              "chordRootUpperLimit": 6,
              "noteLowLimit": 0,
              "noteHighLimit": 127,
              "rtr": "PITCH_SHIFT"
            },
            "ctb2High": null
          },
          "notes": [
            {
              "pitch": 54,
              "velocity": 70,
              "position": 0.010416666666666666,
              "duration": 0.010416666666666666
            },
            {
              "pitch": 54,
              "velocity": 36,
              "position": 0.25,
              "duration": 0.010416666666666666
            },
            {
              "pitch": 54,
              "velocity": 82,
              "position": 0.5104166666666666,
              "duration": 0.010416666666666666
            },
            {
              "pitch": 54,
              "velocity": 36,
              "position": 0.75,
              "duration": 0.010416666666666666
            },
            {
              "pitch": 54,
              "velocity": 68,
              "position": 1,
              "duration": 0.010416666666666666
            },
            {
              "pitch": 54,
              "velocity": 38,
              "position": 1.25,
              "duration": 0.010416666666666666
            },
            {
              "pitch": 54,
              "velocity": 79,
              "position": 1.5104166666666667,
              "duration": 0.010416666666666666
            },
            {
              "pitch": 54,
              "velocity": 36,
              "position": 1.7395833333333333,
              "duration": 0.010416666666666666
            },
            {
              "pitch": 54,
              "velocity": 68,
              "position": 1.9895833333333333,
              "duration": 0.010416666666666666
            },
            {
              "pitch": 54,
              "velocity": 36,
              "position": 2.2395833333333335,
              "duration": 0.010416666666666666
            },
            {
              "pitch": 54,
              "velocity": 79,
              "position": 2.4895833333333335,
              "duration": 0.010416666666666666
            },
            {
              "pitch": 54,
              "velocity": 38,
              "position": 2.7395833333333335,
              "duration": 0.010416666666666666
            },
            {
              "pitch": 54,
              "velocity": 68,
              "position": 2.9895833333333335,
              "duration": 0.010416666666666666
            },
            {
              "pitch": 54,
              "velocity": 38,
              "position": 3.2395833333333335,
              "duration": 0.010416666666666666
            },
            {
              "pitch": 54,
              "velocity": 80,
              "position": 3.4895833333333335,
              "duration": 0.010416666666666666
            },
            {
              "pitch": 54,
              "velocity": 34,
              "position": 3.75,
              "duration": 0.010416666666666666
            },
            {
              "pitch": 54,
              "velocity": 70,
              "position": 4.010416666666667,
              "duration": 0.010416666666666666
            },
            {
              "pitch": 54,
              "velocity": 36,
              "position": 4.25,
              "duration": 0.010416666666666666
            },
            {
              "pitch": 54,
              "velocity": 82,
              "position": 4.510416666666667,
              "duration": 0.010416666666666666
            },
            {
              "pitch": 54,
              "velocity": 36,
              "position": 4.75,
              "duration": 0.010416666666666666
            },
            {
              "pitch": 54,
              "velocity": 68,
              "position": 5,
              "duration": 0.010416666666666666
            },
            {
              "pitch": 54,
              "velocity": 38,
              "position": 5.25,
              "duration": 0.010416666666666666
            },
            {
              "pitch": 54,
              "velocity": 79,
              "position": 5.510416666666667,
              "duration": 0.010416666666666666
            },
            {
              "pitch": 54,
              "velocity": 36,
              "position": 5.739583333333333,
              "duration": 0.010416666666666666
            },
            {
              "pitch": 54,
              "velocity": 68,
              "position": 5.989583333333333,
              "duration": 0.010416666666666666
            },
            {
              "pitch": 54,
              "velocity": 36,
              "position": 6.239583333333333,
              "duration": 0.010416666666666666
            },
            {
              "pitch": 54,
              "velocity": 79,
              "position": 6.489583333333333,
              "duration": 0.010416666666666666
            },
            {
              "pitch": 54,
              "velocity": 38,
              "position": 6.739583333333333,
              "duration": 0.010416666666666666
            },
            {
              "pitch": 54,
              "velocity": 68,
              "position": 6.989583333333333,
              "duration": 0.010416666666666666
            },
            {
              "pitch": 54,
              "velocity": 38,
              "position": 7.239583333333333,
              "duration": 0.010416666666666666
            },
            {
              "pitch": 54,
              "velocity": 80,
              "position": 7.489583333333333,
              "duration": 0.010416666666666666
            },
            {
              "pitch": 54,
              "velocity": 34,
              "position": 7.75,
              "duration": 0.010416666666666666
            },
            {
              "pitch": 54,
              "velocity": 70,
              "position": 8.010416666666666,
              "duration": 0.010416666666666666
            },
            {
              "pitch": 54,
              "velocity": 36,
              "position": 8.25,
              "duration": 0.010416666666666666
            },
            {
              "pitch": 54,
              "velocity": 82,
              "position": 8.510416666666666,
              "duration": 0.010416666666666666
            },
            {
              "pitch": 54,
              "velocity": 36,
              "position": 8.75,
              "duration": 0.010416666666666666
            },
            {
              "pitch": 54,
              "velocity": 68,
              "position": 9,
              "duration": 0.010416666666666666
            },
            {
              "pitch": 54,
              "velocity": 38,
              "position": 9.25,
              "duration": 0.010416666666666666
            },
            {
              "pitch": 54,
              "velocity": 79,
              "position": 9.510416666666666,
              "duration": 0.010416666666666666
            },
            {
              "pitch": 54,
              "velocity": 36,
              "position": 9.739583333333334,
              "duration": 0.010416666666666666
            },
            {
              "pitch": 54,
              "velocity": 68,
              "position": 9.989583333333334,
              "duration": 0.010416666666666666
            },
            {
              "pitch": 54,
              "velocity": 36,
              "position": 10.239583333333334,
              "duration": 0.010416666666666666
            },
            {
              "pitch": 54,
              "velocity": 79,
              "position": 10.489583333333334,
              "duration": 0.010416666666666666
            },
            {
              "pitch": 54,
              "velocity": 38,
              "position": 10.739583333333334,
              "duration": 0.010416666666666666
            },
            {
              "pitch": 54,
              "velocity": 68,
              "position": 10.989583333333334,
              "duration": 0.010416666666666666
            },
            {
              "pitch": 54,
              "velocity": 38,
              "position": 11.239583333333334,
              "duration": 0.010416666666666666
            },
            {
              "pitch": 54,
              "velocity": 80,
              "position": 11.489583333333334,
              "duration": 0.010416666666666666
            },
            {
              "pitch": 54,
              "velocity": 34,
              "position": 11.75,
              "duration": 0.010416666666666666
            },
            {
              "pitch": 54,
              "velocity": 70,
              "position": 12.010416666666666,
              "duration": 0.010416666666666666
            },
            {
              "pitch": 54,
              "velocity": 36,
              "position": 12.25,
              "duration": 0.010416666666666666
            },
            {
              "pitch": 54,
              "velocity": 82,
              "position": 12.510416666666666,
              "duration": 0.010416666666666666
            },
            {
              "pitch": 54,
              "velocity": 36,
              "position": 12.75,
              "duration": 0.010416666666666666
            },
            {
              "pitch": 54,
              "velocity": 68,
              "position": 13,
              "duration": 0.010416666666666666
            },
            {
              "pitch": 54,
              "velocity": 38,
              "position": 13.25,
              "duration": 0.010416666666666666
            },
            {
              "pitch": 54,
              "velocity": 79,
              "position": 13.510416666666666,
              "duration": 0.010416666666666666
            },
            {
              "pitch": 54,
              "velocity": 36,
              "position": 13.739583333333334,
              "duration": 0.010416666666666666
            },
            {
              "pitch": 54,
              "velocity": 68,
              "position": 13.989583333333334,
              "duration": 0.010416666666666666
            },
            {
              "pitch": 54,
              "velocity": 36,
              "position": 14.239583333333334,
              "duration": 0.010416666666666666
            },
            {
              "pitch": 54,
              "velocity": 79,
              "position": 14.489583333333334,
              "duration": 0.010416666666666666
            },
            {
              "pitch": 54,
              "velocity": 38,
              "position": 14.739583333333334,
              "duration": 0.010416666666666666
            },
            {
              "pitch": 54,
              "velocity": 68,
              "position": 14.989583333333334,
              "duration": 0.010416666666666666
            },
            {
              "pitch": 54,
              "velocity": 38,
              "position": 15.239583333333334,
              "duration": 0.010416666666666666
            },
            {
              "pitch": 54,
              "velocity": 80,
              "position": 15.489583333333334,
              "duration": 0.010416666666666666
            },
            {
              "pitch": 54,
              "velocity": 34,
              "position": 15.75,
              "duration": 0.010416666666666666
            }
          ]
        },
        "9": {
          "ctab": {
            "srcChannel": 9,
            "name": "Track 10",
            "accType": "SUBRHYTHM",
            "editable": false,
            "mutedNotes": [],
            "mutedChords": [],
            "autoStart": true,
            "sourceChordNote": 0,
            "sourceChordType": "Maj7",
            "ctb2Low": null,
            "ctb2Main": {
              "ntr": "ROOT_FIXED",
              "ntt": "BYPASS",
              "bassOn": false,
              "chordRootUpperLimit": 6,
              "noteLowLimit": 0,
              "noteHighLimit": 127,
              "rtr": "PITCH_SHIFT"
            },
            "ctb2High": null
          },
          "notes": [
            {
              "pitch": 36,
              "velocity": 115,
              "position": 0,
              "duration": 0.010416666666666666
            },
            {
              "pitch": 54,
              "velocity": 70,
              "position": 0.010416666666666666,
              "duration": 0.010416666666666666
            },
            {
              "pitch": 54,
              "velocity": 36,
              "position": 0.25,
              "duration": 0.010416666666666666
            },
            {
              "pitch": 40,
              "velocity": 28,
              "position": 0.2604166666666667,
              "duration": 0.010416666666666666
            },
            {
              "pitch": 40,
              "velocity": 113,
              "position": 0.5,
              "duration": 0.010416666666666666
            },
            {
              "pitch": 54,
              "velocity": 82,
              "position": 0.5104166666666666,
              "duration": 0.010416666666666666
            },
            {
              "pitch": 40,
              "velocity": 30,
              "position": 0.75,
              "duration": 0.010416666666666666
            },
            {
              "pitch": 54,
              "velocity": 36,
              "position": 0.75,
              "duration": 0.010416666666666666
            },
            {
              "pitch": 36,
              "velocity": 115,
              "position": 1,
              "duration": 0.010416666666666666
            },
            {
              "pitch": 54,
              "velocity": 68,
              "position": 1,
              "duration": 0.010416666666666666
            },
            {
              "pitch": 40,
              "velocity": 47,
              "position": 1.0104166666666667,
              "duration": 0.010416666666666666
            },
            {
              "pitch": 40,
              "velocity": 37,
              "position": 1.25,
              "duration": 0.010416666666666666
            },
            {
              "pitch": 54,
              "velocity": 38,
              "position": 1.25,
              "duration": 0.010416666666666666
            },
            {
              "pitch": 40,
              "velocity": 113,
              "position": 1.5,
              "duration": 0.010416666666666666
            },
            {
              "pitch": 54,
              "velocity": 79,
              "position": 1.5104166666666667,
              "duration": 0.010416666666666666
            },
            {
              "pitch": 54,
              "velocity": 36,
              "position": 1.7395833333333333,
              "duration": 0.010416666666666666
            },
            {
              "pitch": 40,
              "velocity": 30,
              "position": 1.7604166666666667,
              "duration": 0.010416666666666666
            },
            {
              "pitch": 54,
              "velocity": 68,
              "position": 1.9895833333333333,
              "duration": 0.010416666666666666
            },
            {
              "pitch": 36,
              "velocity": 115,
              "position": 2,
              "duration": 0.010416666666666666
            },
            {
              "pitch": 40,
              "velocity": 30,
              "position": 2.0104166666666665,
              "duration": 0.010416666666666666
            },
            {
              "pitch": 54,
              "velocity": 36,
              "position": 2.2395833333333335,
              "duration": 0.010416666666666666
            },
            {
              "pitch": 40,
              "velocity": 31,
              "position": 2.25,
              "duration": 0.010416666666666666
            },
            {
              "pitch": 54,
              "velocity": 79,
              "position": 2.4895833333333335,
              "duration": 0.010416666666666666
            },
            {
              "pitch": 40,
              "velocity": 113,
              "position": 2.5,
              "duration": 0.010416666666666666
            },
            {
              "pitch": 54,
              "velocity": 38,
              "position": 2.7395833333333335,
              "duration": 0.010416666666666666
            },
            {
              "pitch": 40,
              "velocity": 30,
              "position": 2.75,
              "duration": 0.010416666666666666
            },
            {
              "pitch": 54,
              "velocity": 68,
              "position": 2.9895833333333335,
              "duration": 0.010416666666666666
            },
            {
              "pitch": 36,
              "velocity": 115,
              "position": 3,
              "duration": 0.010416666666666666
            },
            {
              "pitch": 40,
              "velocity": 49,
              "position": 3,
              "duration": 0.010416666666666666
            },
            {
              "pitch": 54,
              "velocity": 38,
              "position": 3.2395833333333335,
              "duration": 0.010416666666666666
            },
            {
              "pitch": 40,
              "velocity": 34,
              "position": 3.25,
              "duration": 0.010416666666666666
            },
            {
              "pitch": 54,
              "velocity": 80,
              "position": 3.4895833333333335,
              "duration": 0.010416666666666666
            },
            {
              "pitch": 40,
              "velocity": 113,
              "position": 3.5,
              "duration": 0.010416666666666666
            },
            {
              "pitch": 40,
              "velocity": 36,
              "position": 3.75,
              "duration": 0.010416666666666666
            },
            {
              "pitch": 54,
              "velocity": 34,
              "position": 3.75,
              "duration": 0.010416666666666666
            },
            {
              "pitch": 36,
              "velocity": 115,
              "position": 4,
              "duration": 0.010416666666666666
            },
            {
              "pitch": 54,
              "velocity": 70,
              "position": 4.010416666666667,
              "duration": 0.010416666666666666
            },
            {
              "pitch": 40,
              "velocity": 39,
              "position": 4.010416666666667,
              "duration": 0.010416666666666666
            },
            {
              "pitch": 54,
              "velocity": 36,
              "position": 4.25,
              "duration": 0.010416666666666666
            },
            {
              "pitch": 40,
              "velocity": 32,
              "position": 4.260416666666667,
              "duration": 0.010416666666666666
            },
            {
              "pitch": 40,
              "velocity": 108,
              "position": 4.5,
              "duration": 0.010416666666666666
            },
            {
              "pitch": 54,
              "velocity": 82,
              "position": 4.510416666666667,
              "duration": 0.010416666666666666
            },
            {
              "pitch": 40,
              "velocity": 36,
              "position": 4.75,
              "duration": 0.010416666666666666
            },
            {
              "pitch": 54,
              "velocity": 36,
              "position": 4.75,
              "duration": 0.010416666666666666
            },
            {
              "pitch": 36,
              "velocity": 115,
              "position": 5,
              "duration": 0.010416666666666666
            },
            {
              "pitch": 54,
              "velocity": 68,
              "position": 5,
              "duration": 0.010416666666666666
            },
            {
              "pitch": 40,
              "velocity": 45,
              "position": 5.010416666666667,
              "duration": 0.010416666666666666
            },
            {
              "pitch": 54,
              "velocity": 38,
              "position": 5.25,
              "duration": 0.010416666666666666
            },
            {
              "pitch": 40,
              "velocity": 33,
              "position": 5.260416666666667,
              "duration": 0.010416666666666666
            },
            {
              "pitch": 40,
              "velocity": 113,
              "position": 5.510416666666667,
              "duration": 0.010416666666666666
            },
            {
              "pitch": 54,
              "velocity": 79,
              "position": 5.510416666666667,
              "duration": 0.010416666666666666
            },
            {
              "pitch": 54,
              "velocity": 36,
              "position": 5.739583333333333,
              "duration": 0.010416666666666666
            },
            {
              "pitch": 40,
              "velocity": 29,
              "position": 5.75,
              "duration": 0.010416666666666666
            },
            {
              "pitch": 54,
              "velocity": 68,
              "position": 5.989583333333333,
              "duration": 0.010416666666666666
            },
            {
              "pitch": 36,
              "velocity": 115,
              "position": 6,
              "duration": 0.010416666666666666
            },
            {
              "pitch": 40,
              "velocity": 37,
              "position": 6,
              "duration": 0.010416666666666666
            },
            {
              "pitch": 54,
              "velocity": 36,
              "position": 6.239583333333333,
              "duration": 0.010416666666666666
            },
            {
              "pitch": 40,
              "velocity": 30,
              "position": 6.25,
              "duration": 0.010416666666666666
            },
            {
              "pitch": 54,
              "velocity": 79,
              "position": 6.489583333333333,
              "duration": 0.010416666666666666
            },
            {
              "pitch": 40,
              "velocity": 113,
              "position": 6.5,
              "duration": 0.010416666666666666
            },
            {
              "pitch": 54,
              "velocity": 38,
              "position": 6.739583333333333,
              "duration": 0.010416666666666666
            },
            {
              "pitch": 40,
              "velocity": 30,
              "position": 6.75,
              "duration": 0.010416666666666666
            },
            {
              "pitch": 54,
              "velocity": 68,
              "position": 6.989583333333333,
              "duration": 0.010416666666666666
            },
            {
              "pitch": 40,
              "velocity": 39,
              "position": 6.989583333333333,
              "duration": 0.010416666666666666
            },
            {
              "pitch": 36,
              "velocity": 115,
              "position": 7,
              "duration": 0.010416666666666666
            },
            {
              "pitch": 54,
              "velocity": 38,
              "position": 7.239583333333333,
              "duration": 0.010416666666666666
            },
            {
              "pitch": 40,
              "velocity": 36,
              "position": 7.25,
              "duration": 0.010416666666666666
            },
            {
              "pitch": 54,
              "velocity": 80,
              "position": 7.489583333333333,
              "duration": 0.010416666666666666
            },
            {
              "pitch": 40,
              "velocity": 113,
              "position": 7.5,
              "duration": 0.010416666666666666
            },
            {
              "pitch": 54,
              "velocity": 34,
              "position": 7.75,
              "duration": 0.010416666666666666
            },
            {
              "pitch": 40,
              "velocity": 41,
              "position": 7.75,
              "duration": 0.010416666666666666
            },
            {
              "pitch": 36,
              "velocity": 115,
              "position": 8,
              "duration": 0.010416666666666666
            },
            {
              "pitch": 40,
              "velocity": 39,
              "position": 8.010416666666666,
              "duration": 0.010416666666666666
            },
            {
              "pitch": 54,
              "velocity": 70,
              "position": 8.010416666666666,
              "duration": 0.010416666666666666
            },
            {
              "pitch": 40,
              "velocity": 32,
              "position": 8.25,
              "duration": 0.010416666666666666
            },
            {
              "pitch": 54,
              "velocity": 36,
              "position": 8.25,
              "duration": 0.010416666666666666
            },
            {
              "pitch": 40,
              "velocity": 113,
              "position": 8.5,
              "duration": 0.010416666666666666
            },
            {
              "pitch": 54,
              "velocity": 82,
              "position": 8.510416666666666,
              "duration": 0.010416666666666666
            },
            {
              "pitch": 40,
              "velocity": 31,
              "position": 8.75,
              "duration": 0.010416666666666666
            },
            {
              "pitch": 54,
              "velocity": 36,
              "position": 8.75,
              "duration": 0.010416666666666666
            },
            {
              "pitch": 36,
              "velocity": 115,
              "position": 9,
              "duration": 0.010416666666666666
            },
            {
              "pitch": 40,
              "velocity": 39,
              "position": 9,
              "duration": 0.010416666666666666
            },
            {
              "pitch": 54,
              "velocity": 68,
              "position": 9,
              "duration": 0.010416666666666666
            },
            {
              "pitch": 54,
              "velocity": 38,
              "position": 9.25,
              "duration": 0.010416666666666666
            },
            {
              "pitch": 40,
              "velocity": 30,
              "position": 9.260416666666666,
              "duration": 0.010416666666666666
            },
            {
              "pitch": 40,
              "velocity": 113,
              "position": 9.5,
              "duration": 0.010416666666666666
            },
            {
              "pitch": 54,
              "velocity": 79,
              "position": 9.510416666666666,
              "duration": 0.010416666666666666
            },
            {
              "pitch": 54,
              "velocity": 36,
              "position": 9.739583333333334,
              "duration": 0.010416666666666666
            },
            {
              "pitch": 40,
              "velocity": 31,
              "position": 9.760416666666666,
              "duration": 0.010416666666666666
            },
            {
              "pitch": 54,
              "velocity": 68,
              "position": 9.989583333333334,
              "duration": 0.010416666666666666
            },
            {
              "pitch": 36,
              "velocity": 115,
              "position": 10,
              "duration": 0.010416666666666666
            },
            {
              "pitch": 40,
              "velocity": 43,
              "position": 10.010416666666666,
              "duration": 0.010416666666666666
            },
            {
              "pitch": 54,
              "velocity": 36,
              "position": 10.239583333333334,
              "duration": 0.010416666666666666
            },
            {
              "pitch": 40,
              "velocity": 30,
              "position": 10.260416666666666,
              "duration": 0.010416666666666666
            },
            {
              "pitch": 54,
              "velocity": 79,
              "position": 10.489583333333334,
              "duration": 0.010416666666666666
            },
            {
              "pitch": 40,
              "velocity": 113,
              "position": 10.510416666666666,
              "duration": 0.010416666666666666
            },
            {
              "pitch": 54,
              "velocity": 38,
              "position": 10.739583333333334,
              "duration": 0.010416666666666666
            },
            {
              "pitch": 40,
              "velocity": 41,
              "position": 10.760416666666666,
              "duration": 0.010416666666666666
            },
            {
              "pitch": 54,
              "velocity": 68,
              "position": 10.989583333333334,
              "duration": 0.010416666666666666
            },
            {
              "pitch": 36,
              "velocity": 115,
              "position": 11,
              "duration": 0.010416666666666666
            },
            {
              "pitch": 40,
              "velocity": 26,
              "position": 11.020833333333334,
              "duration": 0.010416666666666666
            },
            {
              "pitch": 54,
              "velocity": 38,
              "position": 11.239583333333334,
              "duration": 0.010416666666666666
            },
            {
              "pitch": 40,
              "velocity": 34,
              "position": 11.260416666666666,
              "duration": 0.010416666666666666
            },
            {
              "pitch": 54,
              "velocity": 80,
              "position": 11.489583333333334,
              "duration": 0.010416666666666666
            },
            {
              "pitch": 40,
              "velocity": 113,
              "position": 11.510416666666666,
              "duration": 0.010416666666666666
            },
            {
              "pitch": 54,
              "velocity": 34,
              "position": 11.75,
              "duration": 0.010416666666666666
            },
            {
              "pitch": 40,
              "velocity": 34,
              "position": 11.760416666666666,
              "duration": 0.010416666666666666
            },
            {
              "pitch": 36,
              "velocity": 115,
              "position": 12,
              "duration": 0.010416666666666666
            },
            {
              "pitch": 54,
              "velocity": 70,
              "position": 12.010416666666666,
              "duration": 0.010416666666666666
            },
            {
              "pitch": 40,
              "velocity": 41,
              "position": 12.010416666666666,
              "duration": 0.010416666666666666
            },
            {
              "pitch": 54,
              "velocity": 36,
              "position": 12.25,
              "duration": 0.010416666666666666
            },
            {
              "pitch": 40,
              "velocity": 31,
              "position": 12.260416666666666,
              "duration": 0.010416666666666666
            },
            {
              "pitch": 54,
              "velocity": 82,
              "position": 12.510416666666666,
              "duration": 0.010416666666666666
            },
            {
              "pitch": 40,
              "velocity": 113,
              "position": 12.510416666666666,
              "duration": 0.010416666666666666
            },
            {
              "pitch": 54,
              "velocity": 36,
              "position": 12.75,
              "duration": 0.010416666666666666
            },
            {
              "pitch": 40,
              "velocity": 33,
              "position": 12.760416666666666,
              "duration": 0.010416666666666666
            },
            {
              "pitch": 36,
              "velocity": 115,
              "position": 13,
              "duration": 0.010416666666666666
            },
            {
              "pitch": 54,
              "velocity": 68,
              "position": 13,
              "duration": 0.010416666666666666
            },
            {
              "pitch": 40,
              "velocity": 45,
              "position": 13.010416666666666,
              "duration": 0.010416666666666666
            },
            {
              "pitch": 54,
              "velocity": 38,
              "position": 13.25,
              "duration": 0.010416666666666666
            },
            {
              "pitch": 40,
              "velocity": 29,
              "position": 13.260416666666666,
              "duration": 0.010416666666666666
            },
            {
              "pitch": 54,
              "velocity": 79,
              "position": 13.510416666666666,
              "duration": 0.010416666666666666
            },
            {
              "pitch": 40,
              "velocity": 113,
              "position": 13.510416666666666,
              "duration": 0.010416666666666666
            },
            {
              "pitch": 54,
              "velocity": 36,
              "position": 13.739583333333334,
              "duration": 0.010416666666666666
            },
            {
              "pitch": 40,
              "velocity": 26,
              "position": 13.770833333333334,
              "duration": 0.010416666666666666
            },
            {
              "pitch": 54,
              "velocity": 68,
              "position": 13.989583333333334,
              "duration": 0.010416666666666666
            },
            {
              "pitch": 36,
              "velocity": 115,
              "position": 14,
              "duration": 0.010416666666666666
            },
            {
              "pitch": 40,
              "velocity": 48,
              "position": 14.010416666666666,
              "duration": 0.010416666666666666
            },
            {
              "pitch": 54,
              "velocity": 36,
              "position": 14.239583333333334,
              "duration": 0.010416666666666666
            },
            {
              "pitch": 40,
              "velocity": 28,
              "position": 14.25,
              "duration": 0.010416666666666666
            },
            {
              "pitch": 54,
              "velocity": 79,
              "position": 14.489583333333334,
              "duration": 0.010416666666666666
            },
            {
              "pitch": 40,
              "velocity": 113,
              "position": 14.510416666666666,
              "duration": 0.010416666666666666
            },
            {
              "pitch": 54,
              "velocity": 38,
              "position": 14.739583333333334,
              "duration": 0.010416666666666666
            },
            {
              "pitch": 40,
              "velocity": 29,
              "position": 14.760416666666666,
              "duration": 0.010416666666666666
            },
            {
              "pitch": 54,
              "velocity": 68,
              "position": 14.989583333333334,
              "duration": 0.010416666666666666
            },
            {
              "pitch": 36,
              "velocity": 115,
              "position": 15,
              "duration": 0.010416666666666666
            },
            {
              "pitch": 40,
              "velocity": 44,
              "position": 15.010416666666666,
              "duration": 0.010416666666666666
            },
            {
              "pitch": 54,
              "velocity": 38,
              "position": 15.239583333333334,
              "duration": 0.010416666666666666
            },
            {
              "pitch": 40,
              "velocity": 56,
              "position": 15.260416666666666,
              "duration": 0.010416666666666666
            },
            {
              "pitch": 54,
              "velocity": 80,
              "position": 15.489583333333334,
              "duration": 0.010416666666666666
            },
            {
              "pitch": 40,
              "velocity": 54,
              "position": 15.510416666666666,
              "duration": 0.010416666666666666
            },
            {
              "pitch": 49,
              "velocity": 60,
              "position": 15.75,
              "duration": 0.010416666666666666
            },
            {
              "pitch": 54,
              "velocity": 34,
              "position": 15.75,
              "duration": 0.010416666666666666
            },
            {
              "pitch": 40,
              "velocity": 113,
              "position": 15.75,
              "duration": 0.010416666666666666
            }
          ]
        },
        "10": {
          "ctab": {
            "srcChannel": 10,
            "name": "Track 11",
            "accType": "BASS",
            "editable": false,
            "mutedNotes": [],
            "mutedChords": [],
            "autoStart": false,
            "sourceChordNote": 0,
            "sourceChordType": "Maj7",
            "ctb2Low": null,
            "ctb2Main": {
              "ntr": "ROOT_TRANSPOSITION",
              "ntt": "MELODY",
              "bassOn": true,
              "chordRootUpperLimit": 3,
              "noteLowLimit": 28,
              "noteHighLimit": 127,
              "rtr": "PITCH_SHIFT"
            },
            "ctb2High": null
          },
          "notes": [
            {
              "pitch": 36,
              "velocity": 119,
              "position": 0,
              "duration": 0.46875
            },
            {
              "pitch": 36,
              "velocity": 95,
              "position": 0.75,
              "duration": 0.041666666666666664
            },
            {
              "pitch": 31,
              "velocity": 119,
              "position": 1,
              "duration": 0.5208333333333334
            },
            {
              "pitch": 31,
              "velocity": 95,
              "position": 1.75,
              "duration": 0.052083333333333336
            },
            {
              "pitch": 36,
              "velocity": 121,
              "position": 2,
              "duration": 0.46875
            },
            {
              "pitch": 36,
              "velocity": 96,
              "position": 2.75,
              "duration": 0.0625
            },
            {
              "pitch": 31,
              "velocity": 119,
              "position": 3,
              "duration": 0.4791666666666667
            },
            {
              "pitch": 40,
              "velocity": 117,
              "position": 3.5,
              "duration": 0.4479166666666667
            },
            {
              "pitch": 36,
              "velocity": 115,
              "position": 4,
              "duration": 0.4583333333333333
            },
            {
              "pitch": 36,
              "velocity": 95,
              "position": 4.75,
              "duration": 0.052083333333333336
            },
            {
              "pitch": 31,
              "velocity": 124,
              "position": 5,
              "duration": 0.5104166666666666
            },
            {
              "pitch": 31,
              "velocity": 94,
              "position": 5.75,
              "duration": 0.0625
            },
            {
              "pitch": 36,
              "velocity": 110,
              "position": 6,
              "duration": 0.4791666666666667
            },
            {
              "pitch": 36,
              "velocity": 101,
              "position": 6.75,
              "duration": 0.07291666666666667
            },
            {
              "pitch": 31,
              "velocity": 116,
              "position": 7,
              "duration": 0.4166666666666667
            },
            {
              "pitch": 33,
              "velocity": 116,
              "position": 7.5,
              "duration": 0.40625
            },
            {
              "pitch": 36,
              "velocity": 115,
              "position": 8,
              "duration": 0.46875
            },
            {
              "pitch": 36,
              "velocity": 94,
              "position": 8.75,
              "duration": 0.052083333333333336
            },
            {
              "pitch": 31,
              "velocity": 118,
              "position": 9,
              "duration": 0.4270833333333333
            },
            {
              "pitch": 38,
              "velocity": 117,
              "position": 9.5,
              "duration": 0.23958333333333334
            },
            {
              "pitch": 40,
              "velocity": 79,
              "position": 9.75,
              "duration": 0.21875
            },
            {
              "pitch": 36,
              "velocity": 115,
              "position": 10,
              "duration": 0.4791666666666667
            },
            {
              "pitch": 36,
              "velocity": 99,
              "position": 10.75,
              "duration": 0.0625
            },
            {
              "pitch": 31,
              "velocity": 118,
              "position": 11,
              "duration": 0.46875
            },
            {
              "pitch": 31,
              "velocity": 97,
              "position": 11.75,
              "duration": 0.020833333333333332
            },
            {
              "pitch": 36,
              "velocity": 118,
              "position": 12,
              "duration": 0.4791666666666667
            },
            {
              "pitch": 36,
              "velocity": 100,
              "position": 12.75,
              "duration": 0.052083333333333336
            },
            {
              "pitch": 31,
              "velocity": 119,
              "position": 13,
              "duration": 0.46875
            },
            {
              "pitch": 31,
              "velocity": 98,
              "position": 13.75,
              "duration": 0.03125
            },
            {
              "pitch": 36,
              "velocity": 121,
              "position": 14,
              "duration": 0.5104166666666666
            },
            {
              "pitch": 36,
              "velocity": 100,
              "position": 14.75,
              "duration": 0.052083333333333336
            },
            {
              "pitch": 31,
              "velocity": 119,
              "position": 15,
              "duration": 0.22916666666666666
            },
            {
              "pitch": 36,
              "velocity": 101,
              "position": 15.25,
              "duration": 0.1875
            },
            {
              "pitch": 33,
              "velocity": 115,
              "position": 15.5,
              "duration": 0.46875
            }
          ]
        },
        "11": {
          "ctab": {
            "srcChannel": 11,
            "name": "Track 12",
            "accType": "CHORD1",
            "editable": false,
            "mutedNotes": [],
            "mutedChords": [],
            "autoStart": false,
            "sourceChordNote": 0,
            "sourceChordType": "Maj7",
            "ctb2Low": null,
            "ctb2Main": {
              "ntr": "ROOT_FIXED",
              "ntt": "CHORD",
              "bassOn": false,
              "chordRootUpperLimit": 6,
              "noteLowLimit": 0,
              "noteHighLimit": 127,
              "rtr": "PITCH_SHIFT"
            },
            "ctb2High": null
          },
          "notes": [
            {
              "pitch": 55,
              "velocity": 107,
              "position": 0.010416666666666666,
              "duration": 0.4791666666666667
            },
            {
              "pitch": 59,
              "velocity": 107,
              "position": 0.03125,
              "duration": 0.4791666666666667
            },
            {
              "pitch": 64,
              "velocity": 107,
              "position": 0.052083333333333336,
              "duration": 0.4791666666666667
            },
            {
              "pitch": 55,
              "velocity": 111,
              "position": 0.5104166666666666,
              "duration": 0.22916666666666666
            },
            {
              "pitch": 59,
              "velocity": 111,
              "position": 0.53125,
              "duration": 0.22916666666666666
            },
            {
              "pitch": 64,
              "velocity": 111,
              "position": 0.5520833333333334,
              "duration": 0.22916666666666666
            },
            {
              "pitch": 55,
              "velocity": 88,
              "position": 0.7604166666666666,
              "duration": 0.22916666666666666
            },
            {
              "pitch": 59,
              "velocity": 88,
              "position": 0.78125,
              "duration": 0.22916666666666666
            },
            {
              "pitch": 64,
              "velocity": 88,
              "position": 0.8020833333333334,
              "duration": 0.22916666666666666
            },
            {
              "pitch": 55,
              "velocity": 101,
              "position": 1.0104166666666667,
              "duration": 0.22916666666666666
            },
            {
              "pitch": 59,
              "velocity": 101,
              "position": 1.03125,
              "duration": 0.22916666666666666
            },
            {
              "pitch": 64,
              "velocity": 101,
              "position": 1.0520833333333333,
              "duration": 0.22916666666666666
            },
            {
              "pitch": 55,
              "velocity": 76,
              "position": 1.2604166666666667,
              "duration": 0.22916666666666666
            },
            {
              "pitch": 59,
              "velocity": 82,
              "position": 1.28125,
              "duration": 0.22916666666666666
            },
            {
              "pitch": 64,
              "velocity": 85,
              "position": 1.3020833333333333,
              "duration": 0.22916666666666666
            },
            {
              "pitch": 55,
              "velocity": 111,
              "position": 1.5104166666666667,
              "duration": 0.22916666666666666
            },
            {
              "pitch": 59,
              "velocity": 111,
              "position": 1.53125,
              "duration": 0.22916666666666666
            },
            {
              "pitch": 64,
              "velocity": 111,
              "position": 1.5520833333333333,
              "duration": 0.22916666666666666
            },
            {
              "pitch": 55,
              "velocity": 90,
              "position": 1.7604166666666667,
              "duration": 0.22916666666666666
            },
            {
              "pitch": 59,
              "velocity": 90,
              "position": 1.78125,
              "duration": 0.22916666666666666
            },
            {
              "pitch": 64,
              "velocity": 90,
              "position": 1.8020833333333333,
              "duration": 0.22916666666666666
            },
            {
              "pitch": 55,
              "velocity": 105,
              "position": 2.0104166666666665,
              "duration": 0.22916666666666666
            },
            {
              "pitch": 59,
              "velocity": 105,
              "position": 2.03125,
              "duration": 0.22916666666666666
            },
            {
              "pitch": 64,
              "velocity": 105,
              "position": 2.0520833333333335,
              "duration": 0.22916666666666666
            },
            {
              "pitch": 55,
              "velocity": 88,
              "position": 2.2604166666666665,
              "duration": 0.22916666666666666
            },
            {
              "pitch": 59,
              "velocity": 88,
              "position": 2.28125,
              "duration": 0.22916666666666666
            },
            {
              "pitch": 64,
              "velocity": 88,
              "position": 2.3020833333333335,
              "duration": 0.22916666666666666
            },
            {
              "pitch": 55,
              "velocity": 111,
              "position": 2.5104166666666665,
              "duration": 0.08333333333333333
            },
            {
              "pitch": 59,
              "velocity": 111,
              "position": 2.53125,
              "duration": 0.08333333333333333
            },
            {
              "pitch": 64,
              "velocity": 111,
              "position": 2.5520833333333335,
              "duration": 0.08333333333333333
            },
            {
              "pitch": 55,
              "velocity": 103,
              "position": 2.7604166666666665,
              "duration": 0.4791666666666667
            },
            {
              "pitch": 59,
              "velocity": 103,
              "position": 2.78125,
              "duration": 0.4791666666666667
            },
            {
              "pitch": 64,
              "velocity": 103,
              "position": 2.8020833333333335,
              "duration": 0.4791666666666667
            },
            {
              "pitch": 55,
              "velocity": 90,
              "position": 3.2604166666666665,
              "duration": 0.22916666666666666
            },
            {
              "pitch": 59,
              "velocity": 90,
              "position": 3.28125,
              "duration": 0.22916666666666666
            },
            {
              "pitch": 64,
              "velocity": 90,
              "position": 3.3020833333333335,
              "duration": 0.22916666666666666
            },
            {
              "pitch": 55,
              "velocity": 100,
              "position": 3.5104166666666665,
              "duration": 0.22916666666666666
            },
            {
              "pitch": 59,
              "velocity": 100,
              "position": 3.53125,
              "duration": 0.22916666666666666
            },
            {
              "pitch": 64,
              "velocity": 100,
              "position": 3.5520833333333335,
              "duration": 0.22916666666666666
            },
            {
              "pitch": 55,
              "velocity": 79,
              "position": 3.7604166666666665,
              "duration": 0.15625
            },
            {
              "pitch": 59,
              "velocity": 85,
              "position": 3.78125,
              "duration": 0.15625
            },
            {
              "pitch": 64,
              "velocity": 89,
              "position": 3.8020833333333335,
              "duration": 0.15625
            },
            {
              "pitch": 55,
              "velocity": 94,
              "position": 4.010416666666667,
              "duration": 0.22916666666666666
            },
            {
              "pitch": 59,
              "velocity": 94,
              "position": 4.03125,
              "duration": 0.22916666666666666
            },
            {
              "pitch": 64,
              "velocity": 94,
              "position": 4.052083333333333,
              "duration": 0.22916666666666666
            },
            {
              "pitch": 55,
              "velocity": 88,
              "position": 4.260416666666667,
              "duration": 0.22916666666666666
            },
            {
              "pitch": 59,
              "velocity": 88,
              "position": 4.28125,
              "duration": 0.22916666666666666
            },
            {
              "pitch": 64,
              "velocity": 88,
              "position": 4.302083333333333,
              "duration": 0.22916666666666666
            },
            {
              "pitch": 55,
              "velocity": 116,
              "position": 4.510416666666667,
              "duration": 0.09375
            },
            {
              "pitch": 59,
              "velocity": 116,
              "position": 4.53125,
              "duration": 0.09375
            },
            {
              "pitch": 64,
              "velocity": 116,
              "position": 4.552083333333333,
              "duration": 0.09375
            },
            {
              "pitch": 55,
              "velocity": 74,
              "position": 4.760416666666667,
              "duration": 0.22916666666666666
            },
            {
              "pitch": 59,
              "velocity": 83,
              "position": 4.78125,
              "duration": 0.22916666666666666
            },
            {
              "pitch": 64,
              "velocity": 87,
              "position": 4.802083333333333,
              "duration": 0.22916666666666666
            },
            {
              "pitch": 55,
              "velocity": 102,
              "position": 5.010416666666667,
              "duration": 0.22916666666666666
            },
            {
              "pitch": 59,
              "velocity": 102,
              "position": 5.03125,
              "duration": 0.22916666666666666
            },
            {
              "pitch": 64,
              "velocity": 102,
              "position": 5.052083333333333,
              "duration": 0.22916666666666666
            },
            {
              "pitch": 55,
              "velocity": 77,
              "position": 5.260416666666667,
              "duration": 0.22916666666666666
            },
            {
              "pitch": 59,
              "velocity": 77,
              "position": 5.28125,
              "duration": 0.22916666666666666
            },
            {
              "pitch": 64,
              "velocity": 77,
              "position": 5.302083333333333,
              "duration": 0.22916666666666666
            },
            {
              "pitch": 55,
              "velocity": 112,
              "position": 5.510416666666667,
              "duration": 0.21875
            },
            {
              "pitch": 59,
              "velocity": 112,
              "position": 5.53125,
              "duration": 0.21875
            },
            {
              "pitch": 64,
              "velocity": 112,
              "position": 5.552083333333333,
              "duration": 0.21875
            },
            {
              "pitch": 55,
              "velocity": 79,
              "position": 5.760416666666667,
              "duration": 0.22916666666666666
            },
            {
              "pitch": 59,
              "velocity": 83,
              "position": 5.78125,
              "duration": 0.22916666666666666
            },
            {
              "pitch": 64,
              "velocity": 88,
              "position": 5.802083333333333,
              "duration": 0.22916666666666666
            },
            {
              "pitch": 55,
              "velocity": 104,
              "position": 6.010416666666667,
              "duration": 0.22916666666666666
            },
            {
              "pitch": 59,
              "velocity": 104,
              "position": 6.03125,
              "duration": 0.22916666666666666
            },
            {
              "pitch": 64,
              "velocity": 104,
              "position": 6.052083333333333,
              "duration": 0.22916666666666666
            },
            {
              "pitch": 55,
              "velocity": 83,
              "position": 6.260416666666667,
              "duration": 0.22916666666666666
            },
            {
              "pitch": 59,
              "velocity": 83,
              "position": 6.28125,
              "duration": 0.22916666666666666
            },
            {
              "pitch": 64,
              "velocity": 83,
              "position": 6.302083333333333,
              "duration": 0.22916666666666666
            },
            {
              "pitch": 55,
              "velocity": 103,
              "position": 6.510416666666667,
              "duration": 0.22916666666666666
            },
            {
              "pitch": 59,
              "velocity": 103,
              "position": 6.53125,
              "duration": 0.22916666666666666
            },
            {
              "pitch": 64,
              "velocity": 103,
              "position": 6.552083333333333,
              "duration": 0.22916666666666666
            },
            {
              "pitch": 55,
              "velocity": 105,
              "position": 6.760416666666667,
              "duration": 0.46875
            },
            {
              "pitch": 59,
              "velocity": 105,
              "position": 6.78125,
              "duration": 0.46875
            },
            {
              "pitch": 64,
              "velocity": 105,
              "position": 6.802083333333333,
              "duration": 0.46875
            },
            {
              "pitch": 55,
              "velocity": 82,
              "position": 7.260416666666667,
              "duration": 0.22916666666666666
            },
            {
              "pitch": 59,
              "velocity": 85,
              "position": 7.28125,
              "duration": 0.22916666666666666
            },
            {
              "pitch": 64,
              "velocity": 91,
              "position": 7.302083333333333,
              "duration": 0.22916666666666666
            },
            {
              "pitch": 55,
              "velocity": 104,
              "position": 7.510416666666667,
              "duration": 0.22916666666666666
            },
            {
              "pitch": 59,
              "velocity": 104,
              "position": 7.53125,
              "duration": 0.22916666666666666
            },
            {
              "pitch": 64,
              "velocity": 105,
              "position": 7.552083333333333,
              "duration": 0.22916666666666666
            },
            {
              "pitch": 55,
              "velocity": 87,
              "position": 7.760416666666667,
              "duration": 0.15625
            },
            {
              "pitch": 59,
              "velocity": 87,
              "position": 7.78125,
              "duration": 0.15625
            },
            {
              "pitch": 64,
              "velocity": 87,
              "position": 7.802083333333333,
              "duration": 0.15625
            },
            {
              "pitch": 55,
              "velocity": 91,
              "position": 8.010416666666666,
              "duration": 0.22916666666666666
            },
            {
              "pitch": 59,
              "velocity": 91,
              "position": 8.03125,
              "duration": 0.22916666666666666
            },
            {
              "pitch": 64,
              "velocity": 104,
              "position": 8.052083333333334,
              "duration": 0.22916666666666666
            },
            {
              "pitch": 55,
              "velocity": 87,
              "position": 8.260416666666666,
              "duration": 0.22916666666666666
            },
            {
              "pitch": 59,
              "velocity": 87,
              "position": 8.28125,
              "duration": 0.22916666666666666
            },
            {
              "pitch": 64,
              "velocity": 87,
              "position": 8.302083333333334,
              "duration": 0.22916666666666666
            },
            {
              "pitch": 55,
              "velocity": 108,
              "position": 8.510416666666666,
              "duration": 0.22916666666666666
            },
            {
              "pitch": 59,
              "velocity": 108,
              "position": 8.53125,
              "duration": 0.22916666666666666
            },
            {
              "pitch": 64,
              "velocity": 108,
              "position": 8.552083333333334,
              "duration": 0.22916666666666666
            },
            {
              "pitch": 55,
              "velocity": 96,
              "position": 8.760416666666666,
              "duration": 0.20833333333333334
            },
            {
              "pitch": 59,
              "velocity": 95,
              "position": 8.78125,
              "duration": 0.19791666666666666
            },
            {
              "pitch": 64,
              "velocity": 94,
              "position": 8.802083333333334,
              "duration": 0.1875
            },
            {
              "pitch": 55,
              "velocity": 92,
              "position": 9.020833333333334,
              "duration": 0.20833333333333334
            },
            {
              "pitch": 59,
              "velocity": 101,
              "position": 9.03125,
              "duration": 0.21875
            },
            {
              "pitch": 55,
              "velocity": 91,
              "position": 9.260416666666666,
              "duration": 0.22916666666666666
            },
            {
              "pitch": 59,
              "velocity": 91,
              "position": 9.28125,
              "duration": 0.22916666666666666
            },
            {
              "pitch": 64,
              "velocity": 91,
              "position": 9.302083333333334,
              "duration": 0.22916666666666666
            },
            {
              "pitch": 55,
              "velocity": 108,
              "position": 9.510416666666666,
              "duration": 0.22916666666666666
            },
            {
              "pitch": 59,
              "velocity": 108,
              "position": 9.53125,
              "duration": 0.22916666666666666
            },
            {
              "pitch": 64,
              "velocity": 108,
              "position": 9.552083333333334,
              "duration": 0.22916666666666666
            },
            {
              "pitch": 55,
              "velocity": 80,
              "position": 9.760416666666666,
              "duration": 0.22916666666666666
            },
            {
              "pitch": 59,
              "velocity": 85,
              "position": 9.78125,
              "duration": 0.22916666666666666
            },
            {
              "pitch": 64,
              "velocity": 93,
              "position": 9.802083333333334,
              "duration": 0.22916666666666666
            },
            {
              "pitch": 55,
              "velocity": 106,
              "position": 10.010416666666666,
              "duration": 0.22916666666666666
            },
            {
              "pitch": 59,
              "velocity": 106,
              "position": 10.03125,
              "duration": 0.22916666666666666
            },
            {
              "pitch": 64,
              "velocity": 105,
              "position": 10.052083333333334,
              "duration": 0.22916666666666666
            },
            {
              "pitch": 55,
              "velocity": 78,
              "position": 10.260416666666666,
              "duration": 0.22916666666666666
            },
            {
              "pitch": 59,
              "velocity": 85,
              "position": 10.28125,
              "duration": 0.22916666666666666
            },
            {
              "pitch": 64,
              "velocity": 78,
              "position": 10.302083333333334,
              "duration": 0.22916666666666666
            },
            {
              "pitch": 55,
              "velocity": 112,
              "position": 10.510416666666666,
              "duration": 0.09375
            },
            {
              "pitch": 59,
              "velocity": 112,
              "position": 10.53125,
              "duration": 0.09375
            },
            {
              "pitch": 64,
              "velocity": 112,
              "position": 10.552083333333334,
              "duration": 0.09375
            },
            {
              "pitch": 55,
              "velocity": 89,
              "position": 10.760416666666666,
              "duration": 0.22916666666666666
            },
            {
              "pitch": 59,
              "velocity": 89,
              "position": 10.78125,
              "duration": 0.22916666666666666
            },
            {
              "pitch": 64,
              "velocity": 89,
              "position": 10.802083333333334,
              "duration": 0.22916666666666666
            },
            {
              "pitch": 55,
              "velocity": 91,
              "position": 11.010416666666666,
              "duration": 0.22916666666666666
            },
            {
              "pitch": 59,
              "velocity": 91,
              "position": 11.03125,
              "duration": 0.22916666666666666
            },
            {
              "pitch": 64,
              "velocity": 104,
              "position": 11.052083333333334,
              "duration": 0.22916666666666666
            },
            {
              "pitch": 55,
              "velocity": 80,
              "position": 11.260416666666666,
              "duration": 0.22916666666666666
            },
            {
              "pitch": 59,
              "velocity": 87,
              "position": 11.28125,
              "duration": 0.22916666666666666
            },
            {
              "pitch": 64,
              "velocity": 91,
              "position": 11.302083333333334,
              "duration": 0.22916666666666666
            },
            {
              "pitch": 55,
              "velocity": 110,
              "position": 11.510416666666666,
              "duration": 0.22916666666666666
            },
            {
              "pitch": 59,
              "velocity": 110,
              "position": 11.53125,
              "duration": 0.22916666666666666
            },
            {
              "pitch": 64,
              "velocity": 110,
              "position": 11.552083333333334,
              "duration": 0.22916666666666666
            },
            {
              "pitch": 55,
              "velocity": 74,
              "position": 11.760416666666666,
              "duration": 0.16666666666666666
            },
            {
              "pitch": 59,
              "velocity": 80,
              "position": 11.78125,
              "duration": 0.16666666666666666
            },
            {
              "pitch": 64,
              "velocity": 85,
              "position": 11.802083333333334,
              "duration": 0.16666666666666666
            },
            {
              "pitch": 55,
              "velocity": 102,
              "position": 12.010416666666666,
              "duration": 0.22916666666666666
            },
            {
              "pitch": 59,
              "velocity": 102,
              "position": 12.03125,
              "duration": 0.22916666666666666
            },
            {
              "pitch": 64,
              "velocity": 102,
              "position": 12.052083333333334,
              "duration": 0.22916666666666666
            },
            {
              "pitch": 55,
              "velocity": 82,
              "position": 12.260416666666666,
              "duration": 0.22916666666666666
            },
            {
              "pitch": 59,
              "velocity": 82,
              "position": 12.28125,
              "duration": 0.22916666666666666
            },
            {
              "pitch": 64,
              "velocity": 81,
              "position": 12.302083333333334,
              "duration": 0.22916666666666666
            },
            {
              "pitch": 55,
              "velocity": 96,
              "position": 12.510416666666666,
              "duration": 0.22916666666666666
            },
            {
              "pitch": 59,
              "velocity": 96,
              "position": 12.53125,
              "duration": 0.22916666666666666
            },
            {
              "pitch": 64,
              "velocity": 97,
              "position": 12.552083333333334,
              "duration": 0.22916666666666666
            },
            {
              "pitch": 55,
              "velocity": 98,
              "position": 12.760416666666666,
              "duration": 0.4583333333333333
            },
            {
              "pitch": 59,
              "velocity": 98,
              "position": 12.78125,
              "duration": 0.4583333333333333
            },
            {
              "pitch": 64,
              "velocity": 98,
              "position": 12.802083333333334,
              "duration": 0.4583333333333333
            },
            {
              "pitch": 55,
              "velocity": 87,
              "position": 13.260416666666666,
              "duration": 0.22916666666666666
            },
            {
              "pitch": 59,
              "velocity": 87,
              "position": 13.28125,
              "duration": 0.22916666666666666
            },
            {
              "pitch": 64,
              "velocity": 87,
              "position": 13.302083333333334,
              "duration": 0.22916666666666666
            },
            {
              "pitch": 55,
              "velocity": 109,
              "position": 13.510416666666666,
              "duration": 0.22916666666666666
            },
            {
              "pitch": 59,
              "velocity": 110,
              "position": 13.53125,
              "duration": 0.22916666666666666
            },
            {
              "pitch": 64,
              "velocity": 110,
              "position": 13.552083333333334,
              "duration": 0.22916666666666666
            },
            {
              "pitch": 55,
              "velocity": 93,
              "position": 13.760416666666666,
              "duration": 0.4791666666666667
            },
            {
              "pitch": 59,
              "velocity": 93,
              "position": 13.78125,
              "duration": 0.4791666666666667
            },
            {
              "pitch": 64,
              "velocity": 93,
              "position": 13.802083333333334,
              "duration": 0.4791666666666667
            },
            {
              "pitch": 55,
              "velocity": 89,
              "position": 14.260416666666666,
              "duration": 0.22916666666666666
            },
            {
              "pitch": 59,
              "velocity": 89,
              "position": 14.28125,
              "duration": 0.22916666666666666
            },
            {
              "pitch": 64,
              "velocity": 89,
              "position": 14.302083333333334,
              "duration": 0.22916666666666666
            },
            {
              "pitch": 55,
              "velocity": 104,
              "position": 14.510416666666666,
              "duration": 0.08333333333333333
            },
            {
              "pitch": 59,
              "velocity": 104,
              "position": 14.53125,
              "duration": 0.08333333333333333
            },
            {
              "pitch": 64,
              "velocity": 104,
              "position": 14.552083333333334,
              "duration": 0.08333333333333333
            },
            {
              "pitch": 55,
              "velocity": 89,
              "position": 14.760416666666666,
              "duration": 0.22916666666666666
            },
            {
              "pitch": 59,
              "velocity": 89,
              "position": 14.78125,
              "duration": 0.22916666666666666
            },
            {
              "pitch": 64,
              "velocity": 89,
              "position": 14.802083333333334,
              "duration": 0.22916666666666666
            },
            {
              "pitch": 55,
              "velocity": 104,
              "position": 15.010416666666666,
              "duration": 0.22916666666666666
            },
            {
              "pitch": 59,
              "velocity": 104,
              "position": 15.03125,
              "duration": 0.22916666666666666
            },
            {
              "pitch": 64,
              "velocity": 104,
              "position": 15.052083333333334,
              "duration": 0.22916666666666666
            },
            {
              "pitch": 55,
              "velocity": 80,
              "position": 15.260416666666666,
              "duration": 0.22916666666666666
            },
            {
              "pitch": 59,
              "velocity": 80,
              "position": 15.28125,
              "duration": 0.22916666666666666
            },
            {
              "pitch": 64,
              "velocity": 90,
              "position": 15.302083333333334,
              "duration": 0.22916666666666666
            },
            {
              "pitch": 55,
              "velocity": 104,
              "position": 15.510416666666666,
              "duration": 0.4166666666666667
            },
            {
              "pitch": 59,
              "velocity": 104,
              "position": 15.53125,
              "duration": 0.4166666666666667
            },
            {
              "pitch": 64,
              "velocity": 104,
              "position": 15.552083333333334,
              "duration": 0.4166666666666667
            }
          ]
        },
        "12": {
          "ctab": {
            "srcChannel": 12,
            "name": "Track 13",
            "accType": "CHORD2",
            "editable": false,
            "mutedNotes": [],
            "mutedChords": [],
            "autoStart": false,
            "sourceChordNote": 0,
            "sourceChordType": "Maj7",
            "ctb2Low": null,
            "ctb2Main": {
              "ntr": "ROOT_TRANSPOSITION",
              "ntt": "CHORD",
              "bassOn": false,
              "chordRootUpperLimit": 6,
              "noteLowLimit": 0,
              "noteHighLimit": 79,
              "rtr": "STOP"
            },
            "ctb2High": null
          },
          "notes": [
            {
              "pitch": 55,
              "velocity": 87,
              "position": 0.010416666666666666,
              "duration": 0.10416666666666667
            },
            {
              "pitch": 48,
              "velocity": 77,
              "position": 0.010416666666666666,
              "duration": 0.14583333333333334
            },
            {
              "pitch": 48,
              "velocity": 53,
              "position": 0.2708333333333333,
              "duration": 0.09375
            },
            {
              "pitch": 55,
              "velocity": 57,
              "position": 0.25,
              "duration": 0.125
            },
            {
              "pitch": 48,
              "velocity": 77,
              "position": 0.5104166666666666,
              "duration": 0.13541666666666666
            },
            {
              "pitch": 57,
              "velocity": 79,
              "position": 0.5208333333333334,
              "duration": 0.13541666666666666
            },
            {
              "pitch": 48,
              "velocity": 53,
              "position": 0.7395833333333334,
              "duration": 0.125
            },
            {
              "pitch": 57,
              "velocity": 51,
              "position": 0.7604166666666666,
              "duration": 0.125
            },
            {
              "pitch": 55,
              "velocity": 67,
              "position": 1.0208333333333333,
              "duration": 0.07291666666666667
            },
            {
              "pitch": 48,
              "velocity": 58,
              "position": 1.0104166666666667,
              "duration": 0.10416666666666667
            },
            {
              "pitch": 64,
              "velocity": 81,
              "position": 1.0208333333333333,
              "duration": 0.10416666666666667
            },
            {
              "pitch": 71,
              "velocity": 84,
              "position": 1.0208333333333333,
              "duration": 0.10416666666666667
            },
            {
              "pitch": 48,
              "velocity": 39,
              "position": 1.2604166666666667,
              "duration": 0.0625
            },
            {
              "pitch": 55,
              "velocity": 54,
              "position": 1.25,
              "duration": 0.08333333333333333
            },
            {
              "pitch": 48,
              "velocity": 73,
              "position": 1.5104166666666667,
              "duration": 0.11458333333333333
            },
            {
              "pitch": 57,
              "velocity": 83,
              "position": 1.53125,
              "duration": 0.10416666666666667
            },
            {
              "pitch": 57,
              "velocity": 48,
              "position": 1.75,
              "duration": 0.09375
            },
            {
              "pitch": 48,
              "velocity": 55,
              "position": 1.75,
              "duration": 0.10416666666666667
            },
            {
              "pitch": 55,
              "velocity": 74,
              "position": 2.0208333333333335,
              "duration": 0.09375
            },
            {
              "pitch": 48,
              "velocity": 58,
              "position": 2.0104166666666665,
              "duration": 0.11458333333333333
            },
            {
              "pitch": 55,
              "velocity": 54,
              "position": 2.25,
              "duration": 0.09375
            },
            {
              "pitch": 48,
              "velocity": 42,
              "position": 2.2604166666666665,
              "duration": 0.08333333333333333
            },
            {
              "pitch": 48,
              "velocity": 81,
              "position": 2.5,
              "duration": 0.10416666666666667
            },
            {
              "pitch": 57,
              "velocity": 83,
              "position": 2.5208333333333335,
              "duration": 0.08333333333333333
            },
            {
              "pitch": 48,
              "velocity": 67,
              "position": 2.7395833333333335,
              "duration": 0.11458333333333333
            },
            {
              "pitch": 57,
              "velocity": 60,
              "position": 2.7395833333333335,
              "duration": 0.125
            },
            {
              "pitch": 55,
              "velocity": 63,
              "position": 3,
              "duration": 0.08333333333333333
            },
            {
              "pitch": 48,
              "velocity": 61,
              "position": 2.9895833333333335,
              "duration": 0.11458333333333333
            },
            {
              "pitch": 76,
              "velocity": 84,
              "position": 2.7395833333333335,
              "duration": 0.6145833333333334
            },
            {
              "pitch": 55,
              "velocity": 45,
              "position": 3.2708333333333335,
              "duration": 0.08333333333333333
            },
            {
              "pitch": 48,
              "velocity": 41,
              "position": 3.2708333333333335,
              "duration": 0.09375
            },
            {
              "pitch": 67,
              "velocity": 81,
              "position": 2.7395833333333335,
              "duration": 0.6458333333333334
            },
            {
              "pitch": 48,
              "velocity": 70,
              "position": 3.5,
              "duration": 0.11458333333333333
            },
            {
              "pitch": 57,
              "velocity": 87,
              "position": 3.5208333333333335,
              "duration": 0.10416666666666667
            },
            {
              "pitch": 48,
              "velocity": 46,
              "position": 3.75,
              "duration": 0.11458333333333333
            },
            {
              "pitch": 57,
              "velocity": 51,
              "position": 3.75,
              "duration": 0.125
            },
            {
              "pitch": 55,
              "velocity": 71,
              "position": 4.03125,
              "duration": 0.08333333333333333
            },
            {
              "pitch": 48,
              "velocity": 61,
              "position": 4.020833333333333,
              "duration": 0.11458333333333333
            },
            {
              "pitch": 48,
              "velocity": 32,
              "position": 4.270833333333333,
              "duration": 0.08333333333333333
            },
            {
              "pitch": 55,
              "velocity": 45,
              "position": 4.260416666666667,
              "duration": 0.10416666666666667
            },
            {
              "pitch": 48,
              "velocity": 73,
              "position": 4.520833333333333,
              "duration": 0.10416666666666667
            },
            {
              "pitch": 57,
              "velocity": 74,
              "position": 4.53125,
              "duration": 0.13541666666666666
            },
            {
              "pitch": 57,
              "velocity": 11,
              "position": 4.729166666666667,
              "duration": 0.125
            },
            {
              "pitch": 48,
              "velocity": 24,
              "position": 4.739583333333333,
              "duration": 0.11458333333333333
            },
            {
              "pitch": 82,
              "velocity": 106,
              "position": 5,
              "duration": 0.09375
            },
            {
              "pitch": 55,
              "velocity": 71,
              "position": 5.020833333333333,
              "duration": 0.07291666666666667
            },
            {
              "pitch": 84,
              "velocity": 81,
              "position": 5,
              "duration": 0.11458333333333333
            },
            {
              "pitch": 76,
              "velocity": 77,
              "position": 5,
              "duration": 0.11458333333333333
            },
            {
              "pitch": 48,
              "velocity": 64,
              "position": 5.010416666666667,
              "duration": 0.10416666666666667
            },
            {
              "pitch": 48,
              "velocity": 41,
              "position": 5.260416666666667,
              "duration": 0.08333333333333333
            },
            {
              "pitch": 55,
              "velocity": 45,
              "position": 5.260416666666667,
              "duration": 0.08333333333333333
            },
            {
              "pitch": 48,
              "velocity": 81,
              "position": 5.5,
              "duration": 0.11458333333333333
            },
            {
              "pitch": 57,
              "velocity": 79,
              "position": 5.520833333333333,
              "duration": 0.10416666666666667
            },
            {
              "pitch": 48,
              "velocity": 44,
              "position": 5.75,
              "duration": 0.10416666666666667
            },
            {
              "pitch": 57,
              "velocity": 38,
              "position": 5.760416666666667,
              "duration": 0.10416666666666667
            },
            {
              "pitch": 55,
              "velocity": 71,
              "position": 6.020833333333333,
              "duration": 0.052083333333333336
            },
            {
              "pitch": 82,
              "velocity": 113,
              "position": 6.020833333333333,
              "duration": 0.07291666666666667
            },
            {
              "pitch": 48,
              "velocity": 55,
              "position": 6,
              "duration": 0.11458333333333333
            },
            {
              "pitch": 84,
              "velocity": 73,
              "position": 6.020833333333333,
              "duration": 0.10416666666666667
            },
            {
              "pitch": 76,
              "velocity": 81,
              "position": 6.020833333333333,
              "duration": 0.11458333333333333
            },
            {
              "pitch": 55,
              "velocity": 51,
              "position": 6.270833333333333,
              "duration": 0.07291666666666667
            },
            {
              "pitch": 48,
              "velocity": 50,
              "position": 6.270833333333333,
              "duration": 0.08333333333333333
            },
            {
              "pitch": 48,
              "velocity": 67,
              "position": 6.520833333333333,
              "duration": 0.09375
            },
            {
              "pitch": 57,
              "velocity": 74,
              "position": 6.53125,
              "duration": 0.08333333333333333
            },
            {
              "pitch": 82,
              "velocity": 106,
              "position": 6.78125,
              "duration": 0.08333333333333333
            },
            {
              "pitch": 48,
              "velocity": 67,
              "position": 6.770833333333333,
              "duration": 0.10416666666666667
            },
            {
              "pitch": 57,
              "velocity": 57,
              "position": 6.770833333333333,
              "duration": 0.10416666666666667
            },
            {
              "pitch": 84,
              "velocity": 70,
              "position": 6.78125,
              "duration": 0.11458333333333333
            },
            {
              "pitch": 76,
              "velocity": 77,
              "position": 6.791666666666667,
              "duration": 0.11458333333333333
            },
            {
              "pitch": 55,
              "velocity": 63,
              "position": 7.020833333333333,
              "duration": 0.0625
            },
            {
              "pitch": 48,
              "velocity": 39,
              "position": 7,
              "duration": 0.10416666666666667
            },
            {
              "pitch": 55,
              "velocity": 34,
              "position": 7.260416666666667,
              "duration": 0.09375
            },
            {
              "pitch": 48,
              "velocity": 36,
              "position": 7.270833333333333,
              "duration": 0.09375
            },
            {
              "pitch": 48,
              "velocity": 84,
              "position": 7.510416666666667,
              "duration": 0.125
            },
            {
              "pitch": 57,
              "velocity": 79,
              "position": 7.520833333333333,
              "duration": 0.125
            },
            {
              "pitch": 48,
              "velocity": 55,
              "position": 7.75,
              "duration": 0.125
            },
            {
              "pitch": 57,
              "velocity": 54,
              "position": 7.770833333333333,
              "duration": 0.10416666666666667
            },
            {
              "pitch": 55,
              "velocity": 71,
              "position": 8.010416666666666,
              "duration": 0.10416666666666667
            },
            {
              "pitch": 48,
              "velocity": 73,
              "position": 8,
              "duration": 0.15625
            },
            {
              "pitch": 55,
              "velocity": 45,
              "position": 8.260416666666666,
              "duration": 0.09375
            },
            {
              "pitch": 48,
              "velocity": 36,
              "position": 8.270833333333334,
              "duration": 0.08333333333333333
            },
            {
              "pitch": 48,
              "velocity": 89,
              "position": 8.510416666666666,
              "duration": 0.11458333333333333
            },
            {
              "pitch": 57,
              "velocity": 83,
              "position": 8.53125,
              "duration": 0.125
            },
            {
              "pitch": 57,
              "velocity": 43,
              "position": 8.75,
              "duration": 0.09375
            },
            {
              "pitch": 48,
              "velocity": 27,
              "position": 8.75,
              "duration": 0.09375
            },
            {
              "pitch": 55,
              "velocity": 71,
              "position": 9.010416666666666,
              "duration": 0.08333333333333333
            },
            {
              "pitch": 48,
              "velocity": 73,
              "position": 9,
              "duration": 0.15625
            },
            {
              "pitch": 48,
              "velocity": 42,
              "position": 9.25,
              "duration": 0.09375
            },
            {
              "pitch": 55,
              "velocity": 48,
              "position": 9.25,
              "duration": 0.09375
            },
            {
              "pitch": 48,
              "velocity": 84,
              "position": 9.5,
              "duration": 0.11458333333333333
            },
            {
              "pitch": 57,
              "velocity": 83,
              "position": 9.510416666666666,
              "duration": 0.10416666666666667
            },
            {
              "pitch": 57,
              "velocity": 43,
              "position": 9.75,
              "duration": 0.0625
            },
            {
              "pitch": 55,
              "velocity": 63,
              "position": 9.760416666666666,
              "duration": 0.0625
            },
            {
              "pitch": 48,
              "velocity": 64,
              "position": 9.729166666666666,
              "duration": 0.11458333333333333
            },
            {
              "pitch": 67,
              "velocity": 81,
              "position": 10,
              "duration": 0.11458333333333333
            },
            {
              "pitch": 76,
              "velocity": 89,
              "position": 10.010416666666666,
              "duration": 0.16666666666666666
            },
            {
              "pitch": 66,
              "velocity": 79,
              "position": 10.28125,
              "duration": 0.03125
            },
            {
              "pitch": 48,
              "velocity": 73,
              "position": 10,
              "duration": 0.3333333333333333
            },
            {
              "pitch": 55,
              "velocity": 83,
              "position": 10.010416666666666,
              "duration": 0.375
            },
            {
              "pitch": 75,
              "velocity": 94,
              "position": 10.270833333333334,
              "duration": 0.125
            },
            {
              "pitch": 74,
              "velocity": 84,
              "position": 10.510416666666666,
              "duration": 0.10416666666666667
            },
            {
              "pitch": 48,
              "velocity": 77,
              "position": 10.5,
              "duration": 0.125
            },
            {
              "pitch": 65,
              "velocity": 89,
              "position": 10.520833333333334,
              "duration": 0.10416666666666667
            },
            {
              "pitch": 57,
              "velocity": 67,
              "position": 10.520833333333334,
              "duration": 0.11458333333333333
            },
            {
              "pitch": 48,
              "velocity": 64,
              "position": 10.760416666666666,
              "duration": 0.09375
            },
            {
              "pitch": 57,
              "velocity": 54,
              "position": 10.760416666666666,
              "duration": 0.10416666666666667
            },
            {
              "pitch": 55,
              "velocity": 57,
              "position": 11.010416666666666,
              "duration": 0.08333333333333333
            },
            {
              "pitch": 48,
              "velocity": 70,
              "position": 10.989583333333334,
              "duration": 0.15625
            },
            {
              "pitch": 55,
              "velocity": 45,
              "position": 11.25,
              "duration": 0.08333333333333333
            },
            {
              "pitch": 48,
              "velocity": 61,
              "position": 11.25,
              "duration": 0.09375
            },
            {
              "pitch": 71,
              "velocity": 73,
              "position": 10.78125,
              "duration": 0.7291666666666666
            },
            {
              "pitch": 64,
              "velocity": 97,
              "position": 10.791666666666666,
              "duration": 0.7291666666666666
            },
            {
              "pitch": 48,
              "velocity": 70,
              "position": 11.489583333333334,
              "duration": 0.11458333333333333
            },
            {
              "pitch": 57,
              "velocity": 87,
              "position": 11.5,
              "duration": 0.125
            },
            {
              "pitch": 48,
              "velocity": 58,
              "position": 11.729166666666666,
              "duration": 0.11458333333333333
            },
            {
              "pitch": 57,
              "velocity": 54,
              "position": 11.739583333333334,
              "duration": 0.10416666666666667
            },
            {
              "pitch": 55,
              "velocity": 79,
              "position": 12.010416666666666,
              "duration": 0.08333333333333333
            },
            {
              "pitch": 48,
              "velocity": 61,
              "position": 12,
              "duration": 0.15625
            },
            {
              "pitch": 55,
              "velocity": 48,
              "position": 12.25,
              "duration": 0.09375
            },
            {
              "pitch": 48,
              "velocity": 64,
              "position": 12.260416666666666,
              "duration": 0.09375
            },
            {
              "pitch": 48,
              "velocity": 84,
              "position": 12.510416666666666,
              "duration": 0.13541666666666666
            },
            {
              "pitch": 57,
              "velocity": 79,
              "position": 12.53125,
              "duration": 0.2708333333333333
            },
            {
              "pitch": 74,
              "velocity": 70,
              "position": 12.739583333333334,
              "duration": 0.09375
            },
            {
              "pitch": 48,
              "velocity": 27,
              "position": 12.75,
              "duration": 0.08333333333333333
            },
            {
              "pitch": 55,
              "velocity": 57,
              "position": 12.770833333333334,
              "duration": 0.09375
            },
            {
              "pitch": 75,
              "velocity": 79,
              "position": 12.833333333333334,
              "duration": 0.08333333333333333
            },
            {
              "pitch": 76,
              "velocity": 84,
              "position": 12.979166666666666,
              "duration": 0.25
            },
            {
              "pitch": 48,
              "velocity": 67,
              "position": 13.020833333333334,
              "duration": 0.2916666666666667
            },
            {
              "pitch": 55,
              "velocity": 79,
              "position": 13.03125,
              "duration": 0.3125
            },
            {
              "pitch": 84,
              "velocity": 102,
              "position": 13.270833333333334,
              "duration": 0.16666666666666666
            },
            {
              "pitch": 57,
              "velocity": 83,
              "position": 13.510416666666666,
              "duration": 0.14583333333333334
            },
            {
              "pitch": 48,
              "velocity": 81,
              "position": 13.510416666666666,
              "duration": 0.3229166666666667
            },
            {
              "pitch": 55,
              "velocity": 67,
              "position": 13.760416666666666,
              "duration": 0.09375
            },
            {
              "pitch": 71,
              "velocity": 73,
              "position": 13.760416666666666,
              "duration": 0.125
            },
            {
              "pitch": 75,
              "velocity": 106,
              "position": 14.020833333333334,
              "duration": 0.052083333333333336
            },
            {
              "pitch": 79,
              "velocity": 73,
              "position": 14.03125,
              "duration": 0.19791666666666666
            },
            {
              "pitch": 76,
              "velocity": 97,
              "position": 14.072916666666666,
              "duration": 0.15625
            },
            {
              "pitch": 48,
              "velocity": 41,
              "position": 14.052083333333334,
              "duration": 0.28125
            },
            {
              "pitch": 55,
              "velocity": 32,
              "position": 14.0625,
              "duration": 0.3125
            },
            {
              "pitch": 71,
              "velocity": 73,
              "position": 14.260416666666666,
              "duration": 0.11458333333333333
            },
            {
              "pitch": 48,
              "velocity": 84,
              "position": 14.520833333333334,
              "duration": 0.11458333333333333
            },
            {
              "pitch": 57,
              "velocity": 79,
              "position": 14.520833333333334,
              "duration": 0.125
            },
            {
              "pitch": 77,
              "velocity": 107,
              "position": 14.520833333333334,
              "duration": 0.13541666666666666
            },
            {
              "pitch": 81,
              "velocity": 93,
              "position": 14.520833333333334,
              "duration": 0.14583333333333334
            },
            {
              "pitch": 57,
              "velocity": 57,
              "position": 14.75,
              "duration": 0.11458333333333333
            },
            {
              "pitch": 48,
              "velocity": 67,
              "position": 14.75,
              "duration": 0.125
            },
            {
              "pitch": 71,
              "velocity": 58,
              "position": 14.770833333333334,
              "duration": 0.125
            },
            {
              "pitch": 55,
              "velocity": 74,
              "position": 15.020833333333334,
              "duration": 0.0625
            },
            {
              "pitch": 48,
              "velocity": 70,
              "position": 15,
              "duration": 0.16666666666666666
            },
            {
              "pitch": 75,
              "velocity": 106,
              "position": 15.020833333333334,
              "duration": 0.14583333333333334
            },
            {
              "pitch": 79,
              "velocity": 84,
              "position": 15.020833333333334,
              "duration": 0.15625
            },
            {
              "pitch": 48,
              "velocity": 35,
              "position": 15.229166666666666,
              "duration": 0.13541666666666666
            },
            {
              "pitch": 55,
              "velocity": 63,
              "position": 15.239583333333334,
              "duration": 0.125
            },
            {
              "pitch": 79,
              "velocity": 67,
              "position": 15.270833333333334,
              "duration": 0.11458333333333333
            },
            {
              "pitch": 76,
              "velocity": 84,
              "position": 15.270833333333334,
              "duration": 0.14583333333333334
            },
            {
              "pitch": 71,
              "velocity": 70,
              "position": 15.489583333333334,
              "duration": 0.10416666666666667
            },
            {
              "pitch": 48,
              "velocity": 61,
              "position": 15.510416666666666,
              "duration": 0.09375
            },
            {
              "pitch": 57,
              "velocity": 67,
              "position": 15.510416666666666,
              "duration": 0.10416666666666667
            },
            {
              "pitch": 48,
              "velocity": 41,
              "position": 15.75,
              "duration": 0.0625
            },
            {
              "pitch": 55,
              "velocity": 57,
              "position": 15.760416666666666,
              "duration": 0.052083333333333336
            },
            {
              "pitch": 79,
              "velocity": 97,
              "position": 15.760416666666666,
              "duration": 0.07291666666666667
            },
            {
              "pitch": 84,
              "velocity": 89,
              "position": 15.760416666666666,
              "duration": 0.09375
            },
            {
              "pitch": 71,
              "velocity": 89,
              "position": 15.760416666666666,
              "duration": 0.09375
            }
          ]
        },
        "14": {
          "ctab": {
            "srcChannel": 14,
            "name": "Track 15",
            "accType": "PHRASE1",
            "editable": false,
            "mutedNotes": [],
            "mutedChords": [],
            "autoStart": false,
            "sourceChordNote": 0,
            "sourceChordType": "Maj7",
            "ctb2Low": null,
            "ctb2Main": {
              "ntr": "ROOT_TRANSPOSITION",
              "ntt": "CHORD",
              "bassOn": false,
              "chordRootUpperLimit": 6,
              "noteLowLimit": 0,
              "noteHighLimit": 127,
              "rtr": "PITCH_SHIFT"
            },
            "ctb2High": null
          },
          "notes": [
            {
              "pitch": 55,
              "velocity": 101,
              "position": 0.020833333333333332,
              "duration": 0.23958333333333334
            },
            {
              "pitch": 48,
              "velocity": 101,
              "position": 0.020833333333333332,
              "duration": 0.2708333333333333
            },
            {
              "pitch": 48,
              "velocity": 40,
              "position": 0.3020833333333333,
              "duration": 0.17708333333333334
            },
            {
              "pitch": 55,
              "velocity": 75,
              "position": 0.2916666666666667,
              "duration": 0.20833333333333334
            },
            {
              "pitch": 57,
              "velocity": 98,
              "position": 0.5208333333333334,
              "duration": 0.1875
            },
            {
              "pitch": 48,
              "velocity": 78,
              "position": 0.5104166666666666,
              "duration": 0.22916666666666666
            },
            {
              "pitch": 55,
              "velocity": 107,
              "position": 1.0208333333333333,
              "duration": 0.16666666666666666
            },
            {
              "pitch": 48,
              "velocity": 78,
              "position": 1.0104166666666667,
              "duration": 0.25
            },
            {
              "pitch": 57,
              "velocity": 102,
              "position": 1.5208333333333333,
              "duration": 0.22916666666666666
            },
            {
              "pitch": 48,
              "velocity": 82,
              "position": 1.53125,
              "duration": 0.3229166666666667
            },
            {
              "pitch": 55,
              "velocity": 37,
              "position": 1.8125,
              "duration": 0.052083333333333336
            },
            {
              "pitch": 55,
              "velocity": 98,
              "position": 2.0104166666666665,
              "duration": 0.21875
            },
            {
              "pitch": 48,
              "velocity": 72,
              "position": 2.0104166666666665,
              "duration": 0.22916666666666666
            },
            {
              "pitch": 48,
              "velocity": 40,
              "position": 2.2916666666666665,
              "duration": 0.17708333333333334
            },
            {
              "pitch": 55,
              "velocity": 72,
              "position": 2.2708333333333335,
              "duration": 0.22916666666666666
            },
            {
              "pitch": 48,
              "velocity": 82,
              "position": 2.5104166666666665,
              "duration": 0.1875
            },
            {
              "pitch": 57,
              "velocity": 112,
              "position": 2.5104166666666665,
              "duration": 0.19791666666666666
            },
            {
              "pitch": 55,
              "velocity": 49,
              "position": 2.78125,
              "duration": 0.08333333333333333
            },
            {
              "pitch": 48,
              "velocity": 63,
              "position": 2.8020833333333335,
              "duration": 0.08333333333333333
            },
            {
              "pitch": 55,
              "velocity": 98,
              "position": 3,
              "duration": 0.22916666666666666
            },
            {
              "pitch": 48,
              "velocity": 66,
              "position": 3,
              "duration": 0.2604166666666667
            },
            {
              "pitch": 55,
              "velocity": 63,
              "position": 3.2708333333333335,
              "duration": 0.20833333333333334
            },
            {
              "pitch": 48,
              "velocity": 58,
              "position": 3.28125,
              "duration": 0.19791666666666666
            },
            {
              "pitch": 48,
              "velocity": 78,
              "position": 3.5,
              "duration": 0.19791666666666666
            },
            {
              "pitch": 57,
              "velocity": 107,
              "position": 3.5,
              "duration": 0.21875
            },
            {
              "pitch": 55,
              "velocity": 63,
              "position": 3.75,
              "duration": 0.14583333333333334
            },
            {
              "pitch": 48,
              "velocity": 46,
              "position": 3.78125,
              "duration": 0.125
            },
            {
              "pitch": 55,
              "velocity": 98,
              "position": 4,
              "duration": 0.25
            },
            {
              "pitch": 55,
              "velocity": 72,
              "position": 4.260416666666667,
              "duration": 0.15625
            },
            {
              "pitch": 48,
              "velocity": 75,
              "position": 4.010416666666667,
              "duration": 0.46875
            },
            {
              "pitch": 57,
              "velocity": 102,
              "position": 4.510416666666667,
              "duration": 0.21875
            },
            {
              "pitch": 48,
              "velocity": 82,
              "position": 4.510416666666667,
              "duration": 0.21875
            },
            {
              "pitch": 55,
              "velocity": 98,
              "position": 5.010416666666667,
              "duration": 0.1875
            },
            {
              "pitch": 48,
              "velocity": 75,
              "position": 5.010416666666667,
              "duration": 0.22916666666666666
            },
            {
              "pitch": 48,
              "velocity": 86,
              "position": 5.520833333333333,
              "duration": 0.15625
            },
            {
              "pitch": 57,
              "velocity": 98,
              "position": 5.520833333333333,
              "duration": 0.15625
            },
            {
              "pitch": 48,
              "velocity": 78,
              "position": 5.760416666666667,
              "duration": 0.46875
            },
            {
              "pitch": 55,
              "velocity": 102,
              "position": 5.760416666666667,
              "duration": 0.4791666666666667
            },
            {
              "pitch": 55,
              "velocity": 69,
              "position": 6.260416666666667,
              "duration": 0.21875
            },
            {
              "pitch": 48,
              "velocity": 60,
              "position": 6.270833333333333,
              "duration": 0.20833333333333334
            },
            {
              "pitch": 48,
              "velocity": 86,
              "position": 6.520833333333333,
              "duration": 0.17708333333333334
            },
            {
              "pitch": 57,
              "velocity": 102,
              "position": 6.520833333333333,
              "duration": 0.19791666666666666
            },
            {
              "pitch": 48,
              "velocity": 41,
              "position": 6.78125,
              "duration": 0.08333333333333333
            },
            {
              "pitch": 48,
              "velocity": 69,
              "position": 7,
              "duration": 0.4791666666666667
            },
            {
              "pitch": 55,
              "velocity": 98,
              "position": 7.010416666666667,
              "duration": 0.4895833333333333
            },
            {
              "pitch": 57,
              "velocity": 102,
              "position": 7.520833333333333,
              "duration": 0.23958333333333334
            },
            {
              "pitch": 55,
              "velocity": 66,
              "position": 7.760416666666667,
              "duration": 0.09375
            },
            {
              "pitch": 48,
              "velocity": 89,
              "position": 7.520833333333333,
              "duration": 0.4166666666666667
            },
            {
              "pitch": 55,
              "velocity": 107,
              "position": 8.010416666666666,
              "duration": 0.4479166666666667
            },
            {
              "pitch": 48,
              "velocity": 72,
              "position": 8.010416666666666,
              "duration": 0.46875
            },
            {
              "pitch": 57,
              "velocity": 102,
              "position": 8.53125,
              "duration": 0.21875
            },
            {
              "pitch": 48,
              "velocity": 78,
              "position": 8.53125,
              "duration": 0.22916666666666666
            },
            {
              "pitch": 48,
              "velocity": 78,
              "position": 9.020833333333334,
              "duration": 0.16666666666666666
            },
            {
              "pitch": 55,
              "velocity": 98,
              "position": 9.020833333333334,
              "duration": 0.3333333333333333
            },
            {
              "pitch": 48,
              "velocity": 49,
              "position": 9.291666666666666,
              "duration": 0.08333333333333333
            },
            {
              "pitch": 48,
              "velocity": 82,
              "position": 9.520833333333334,
              "duration": 0.16666666666666666
            },
            {
              "pitch": 57,
              "velocity": 107,
              "position": 9.520833333333334,
              "duration": 0.16666666666666666
            },
            {
              "pitch": 48,
              "velocity": 78,
              "position": 9.770833333333334,
              "duration": 0.3645833333333333
            },
            {
              "pitch": 55,
              "velocity": 98,
              "position": 9.770833333333334,
              "duration": 0.625
            },
            {
              "pitch": 48,
              "velocity": 82,
              "position": 10.270833333333334,
              "duration": 0.16666666666666666
            },
            {
              "pitch": 51,
              "velocity": 105,
              "position": 10.510416666666666,
              "duration": 0.10416666666666667
            },
            {
              "pitch": 52,
              "velocity": 89,
              "position": 10.625,
              "duration": 0.10416666666666667
            },
            {
              "pitch": 59,
              "velocity": 98,
              "position": 10.760416666666666,
              "duration": 0.59375
            },
            {
              "pitch": 55,
              "velocity": 89,
              "position": 10.75,
              "duration": 0.6354166666666666
            },
            {
              "pitch": 48,
              "velocity": 66,
              "position": 11.260416666666666,
              "duration": 0.13541666666666666
            },
            {
              "pitch": 57,
              "velocity": 86,
              "position": 11.5,
              "duration": 0.22916666666666666
            },
            {
              "pitch": 48,
              "velocity": 89,
              "position": 11.510416666666666,
              "duration": 0.375
            },
            {
              "pitch": 55,
              "velocity": 63,
              "position": 11.75,
              "duration": 0.13541666666666666
            },
            {
              "pitch": 48,
              "velocity": 82,
              "position": 12.010416666666666,
              "duration": 0.2604166666666667
            },
            {
              "pitch": 48,
              "velocity": 53,
              "position": 12.28125,
              "duration": 0.125
            },
            {
              "pitch": 55,
              "velocity": 94,
              "position": 12.010416666666666,
              "duration": 0.4583333333333333
            },
            {
              "pitch": 57,
              "velocity": 102,
              "position": 12.520833333333334,
              "duration": 0.17708333333333334
            },
            {
              "pitch": 48,
              "velocity": 78,
              "position": 12.510416666666666,
              "duration": 0.21875
            },
            {
              "pitch": 55,
              "velocity": 89,
              "position": 13.020833333333334,
              "duration": 0.4583333333333333
            },
            {
              "pitch": 48,
              "velocity": 72,
              "position": 13.020833333333334,
              "duration": 0.4791666666666667
            },
            {
              "pitch": 57,
              "velocity": 102,
              "position": 13.53125,
              "duration": 0.16666666666666666
            },
            {
              "pitch": 48,
              "velocity": 89,
              "position": 13.53125,
              "duration": 0.22916666666666666
            },
            {
              "pitch": 55,
              "velocity": 39,
              "position": 13.802083333333334,
              "duration": 0.052083333333333336
            },
            {
              "pitch": 55,
              "velocity": 98,
              "position": 14.020833333333334,
              "duration": 0.20833333333333334
            },
            {
              "pitch": 48,
              "velocity": 82,
              "position": 14.020833333333334,
              "duration": 0.23958333333333334
            },
            {
              "pitch": 48,
              "velocity": 51,
              "position": 14.291666666666666,
              "duration": 0.17708333333333334
            },
            {
              "pitch": 55,
              "velocity": 38,
              "position": 14.260416666666666,
              "duration": 0.23958333333333334
            },
            {
              "pitch": 48,
              "velocity": 82,
              "position": 14.510416666666666,
              "duration": 0.21875
            },
            {
              "pitch": 57,
              "velocity": 107,
              "position": 14.510416666666666,
              "duration": 0.22916666666666666
            },
            {
              "pitch": 55,
              "velocity": 72,
              "position": 14.760416666666666,
              "duration": 0.19791666666666666
            },
            {
              "pitch": 48,
              "velocity": 29,
              "position": 14.8125,
              "duration": 0.15625
            },
            {
              "pitch": 55,
              "velocity": 102,
              "position": 15.010416666666666,
              "duration": 0.22916666666666666
            },
            {
              "pitch": 48,
              "velocity": 75,
              "position": 15.020833333333334,
              "duration": 0.22916666666666666
            },
            {
              "pitch": 48,
              "velocity": 72,
              "position": 15.28125,
              "duration": 0.19791666666666666
            },
            {
              "pitch": 55,
              "velocity": 89,
              "position": 15.270833333333334,
              "duration": 0.22916666666666666
            },
            {
              "pitch": 48,
              "velocity": 82,
              "position": 15.520833333333334,
              "duration": 0.1875
            },
            {
              "pitch": 57,
              "velocity": 112,
              "position": 15.510416666666666,
              "duration": 0.22916666666666666
            },
            {
              "pitch": 55,
              "velocity": 60,
              "position": 15.760416666666666,
              "duration": 0.17708333333333334
            },
            {
              "pitch": 48,
              "velocity": 51,
              "position": 15.78125,
              "duration": 0.16666666666666666
            }
          ]
        }
      }
    },
    "Fill_In_BB": {
      "type": "Fill_In_BB",
      "sizeInBeats": 4,
      "channels": {
        "8": {
          "ctab": {
            "srcChannel": 8,
            "name": "Track 9",
            "accType": "RHYTHM",
            "editable": false,
            "mutedNotes": [],
            "mutedChords": [],
            "autoStart": true,
            "sourceChordNote": 0,
            "sourceChordType": "Maj7",
            "ctb2Low": null,
            "ctb2Main": {
              "ntr": "ROOT_FIXED",
              "ntt": "BYPASS",
              "bassOn": false,
              "chordRootUpperLimit": 6,
              "noteLowLimit": 0,
              "noteHighLimit": 127,
              "rtr": "PITCH_SHIFT"
            },
            "ctb2High": null
          },
          "notes": [
            {
              "pitch": 54,
              "velocity": 70,
              "position": 0.010416666666666666,
              "duration": 0.010416666666666666
            },
            {
              "pitch": 54,
              "velocity": 36,
              "position": 0.25,
              "duration": 0.010416666666666666
            },
            {
              "pitch": 54,
              "velocity": 87,
              "position": 0.5104166666666666,
              "duration": 0.010416666666666666
            },
            {
              "pitch": 54,
              "velocity": 36,
              "position": 0.75,
              "duration": 0.010416666666666666
            },
            {
              "pitch": 54,
              "velocity": 68,
              "position": 1,
              "duration": 0.010416666666666666
            },
            {
              "pitch": 54,
              "velocity": 38,
              "position": 1.25,
              "duration": 0.010416666666666666
            },
            {
              "pitch": 54,
              "velocity": 82,
              "position": 1.5104166666666667,
              "duration": 0.010416666666666666
            },
            {
              "pitch": 54,
              "velocity": 36,
              "position": 1.7395833333333333,
              "duration": 0.010416666666666666
            },
            {
              "pitch": 54,
              "velocity": 68,
              "position": 1.9895833333333333,
              "duration": 0.010416666666666666
            },
            {
              "pitch": 54,
              "velocity": 36,
              "position": 2.2395833333333335,
              "duration": 0.010416666666666666
            },
            {
              "pitch": 54,
              "velocity": 87,
              "position": 2.4895833333333335,
              "duration": 0.010416666666666666
            },
            {
              "pitch": 54,
              "velocity": 38,
              "position": 2.7395833333333335,
              "duration": 0.010416666666666666
            },
            {
              "pitch": 54,
              "velocity": 68,
              "position": 2.9895833333333335,
              "duration": 0.010416666666666666
            },
            {
              "pitch": 54,
              "velocity": 38,
              "position": 3.2395833333333335,
              "duration": 0.010416666666666666
            },
            {
              "pitch": 54,
              "velocity": 87,
              "position": 3.4895833333333335,
              "duration": 0.010416666666666666
            },
            {
              "pitch": 54,
              "velocity": 34,
              "position": 3.75,
              "duration": 0.010416666666666666
            }
          ]
        },
        "9": {
          "ctab": {
            "srcChannel": 9,
            "name": "Track 10",
            "accType": "SUBRHYTHM",
            "editable": false,
            "mutedNotes": [],
            "mutedChords": [],
            "autoStart": true,
            "sourceChordNote": 0,
            "sourceChordType": "Maj7",
            "ctb2Low": null,
            "ctb2Main": {
              "ntr": "ROOT_FIXED",
              "ntt": "BYPASS",
              "bassOn": false,
              "chordRootUpperLimit": 6,
              "noteLowLimit": 0,
              "noteHighLimit": 127,
              "rtr": "PITCH_SHIFT"
            },
            "ctb2High": null
          },
          "notes": [
            {
              "pitch": 36,
              "velocity": 115,
              "position": 0,
              "duration": 0.010416666666666666
            },
            {
              "pitch": 40,
              "velocity": 47,
              "position": 0.010416666666666666,
              "duration": 0.010416666666666666
            },
            {
              "pitch": 54,
              "velocity": 70,
              "position": 0.010416666666666666,
              "duration": 0.010416666666666666
            },
            {
              "pitch": 54,
              "velocity": 36,
              "position": 0.25,
              "duration": 0.010416666666666666
            },
            {
              "pitch": 40,
              "velocity": 28,
              "position": 0.2604166666666667,
              "duration": 0.010416666666666666
            },
            {
              "pitch": 40,
              "velocity": 113,
              "position": 0.5,
              "duration": 0.010416666666666666
            },
            {
              "pitch": 54,
              "velocity": 87,
              "position": 0.5104166666666666,
              "duration": 0.010416666666666666
            },
            {
              "pitch": 40,
              "velocity": 30,
              "position": 0.75,
              "duration": 0.010416666666666666
            },
            {
              "pitch": 54,
              "velocity": 36,
              "position": 0.75,
              "duration": 0.010416666666666666
            },
            {
              "pitch": 36,
              "velocity": 115,
              "position": 1,
              "duration": 0.010416666666666666
            },
            {
              "pitch": 54,
              "velocity": 68,
              "position": 1,
              "duration": 0.010416666666666666
            },
            {
              "pitch": 40,
              "velocity": 47,
              "position": 1.0104166666666667,
              "duration": 0.010416666666666666
            },
            {
              "pitch": 40,
              "velocity": 37,
              "position": 1.25,
              "duration": 0.010416666666666666
            },
            {
              "pitch": 54,
              "velocity": 38,
              "position": 1.25,
              "duration": 0.010416666666666666
            },
            {
              "pitch": 40,
              "velocity": 113,
              "position": 1.5,
              "duration": 0.010416666666666666
            },
            {
              "pitch": 54,
              "velocity": 82,
              "position": 1.5104166666666667,
              "duration": 0.010416666666666666
            },
            {
              "pitch": 54,
              "velocity": 36,
              "position": 1.7395833333333333,
              "duration": 0.010416666666666666
            },
            {
              "pitch": 40,
              "velocity": 30,
              "position": 1.7604166666666667,
              "duration": 0.010416666666666666
            },
            {
              "pitch": 54,
              "velocity": 68,
              "position": 1.9895833333333333,
              "duration": 0.010416666666666666
            },
            {
              "pitch": 36,
              "velocity": 115,
              "position": 2,
              "duration": 0.010416666666666666
            },
            {
              "pitch": 40,
              "velocity": 30,
              "position": 2.0104166666666665,
              "duration": 0.010416666666666666
            },
            {
              "pitch": 54,
              "velocity": 36,
              "position": 2.2395833333333335,
              "duration": 0.010416666666666666
            },
            {
              "pitch": 40,
              "velocity": 31,
              "position": 2.25,
              "duration": 0.010416666666666666
            },
            {
              "pitch": 54,
              "velocity": 87,
              "position": 2.4895833333333335,
              "duration": 0.010416666666666666
            },
            {
              "pitch": 40,
              "velocity": 113,
              "position": 2.5,
              "duration": 0.010416666666666666
            },
            {
              "pitch": 54,
              "velocity": 38,
              "position": 2.7395833333333335,
              "duration": 0.010416666666666666
            },
            {
              "pitch": 40,
              "velocity": 30,
              "position": 2.75,
              "duration": 0.010416666666666666
            },
            {
              "pitch": 54,
              "velocity": 68,
              "position": 2.9895833333333335,
              "duration": 0.010416666666666666
            },
            {
              "pitch": 36,
              "velocity": 115,
              "position": 3,
              "duration": 0.010416666666666666
            },
            {
              "pitch": 40,
              "velocity": 49,
              "position": 3,
              "duration": 0.010416666666666666
            },
            {
              "pitch": 54,
              "velocity": 38,
              "position": 3.2395833333333335,
              "duration": 0.010416666666666666
            },
            {
              "pitch": 47,
              "velocity": 90,
              "position": 3.25,
              "duration": 0.010416666666666666
            },
            {
              "pitch": 40,
              "velocity": 56,
              "position": 3.375,
              "duration": 0.010416666666666666
            },
            {
              "pitch": 54,
              "velocity": 87,
              "position": 3.4895833333333335,
              "duration": 0.010416666666666666
            },
            {
              "pitch": 40,
              "velocity": 113,
              "position": 3.5,
              "duration": 0.010416666666666666
            },
            {
              "pitch": 54,
              "velocity": 34,
              "position": 3.75,
              "duration": 0.010416666666666666
            },
            {
              "pitch": 43,
              "velocity": 92,
              "position": 3.7604166666666665,
              "duration": 0.010416666666666666
            }
          ]
        },
        "10": {
          "ctab": {
            "srcChannel": 10,
            "name": "Track 11",
            "accType": "BASS",
            "editable": false,
            "mutedNotes": [],
            "mutedChords": [],
            "autoStart": false,
            "sourceChordNote": 0,
            "sourceChordType": "Maj7",
            "ctb2Low": null,
            "ctb2Main": {
              "ntr": "ROOT_TRANSPOSITION",
              "ntt": "MELODY",
              "bassOn": true,
              "chordRootUpperLimit": 3,
              "noteLowLimit": 28,
              "noteHighLimit": 127,
              "rtr": "PITCH_SHIFT"
            },
            "ctb2High": null
          },
          "notes": [
            {
              "pitch": 36,
              "velocity": 117,
              "position": 0,
              "duration": 0.5104166666666666
            },
            {
              "pitch": 36,
              "velocity": 86,
              "position": 0.75,
              "duration": 0.052083333333333336
            },
            {
              "pitch": 31,
              "velocity": 119,
              "position": 1,
              "duration": 0.5208333333333334
            },
            {
              "pitch": 36,
              "velocity": 121,
              "position": 2,
              "duration": 0.46875
            },
            {
              "pitch": 36,
              "velocity": 103,
              "position": 2.75,
              "duration": 0.08333333333333333
            },
            {
              "pitch": 31,
              "velocity": 121,
              "position": 3,
              "duration": 0.4583333333333333
            },
            {
              "pitch": 33,
              "velocity": 114,
              "position": 3.5,
              "duration": 0.46875
            }
          ]
        },
        "11": {
          "ctab": {
            "srcChannel": 11,
            "name": "Track 12",
            "accType": "CHORD1",
            "editable": false,
            "mutedNotes": [],
            "mutedChords": [],
            "autoStart": false,
            "sourceChordNote": 0,
            "sourceChordType": "Maj7",
            "ctb2Low": null,
            "ctb2Main": {
              "ntr": "ROOT_FIXED",
              "ntt": "CHORD",
              "bassOn": false,
              "chordRootUpperLimit": 6,
              "noteLowLimit": 0,
              "noteHighLimit": 127,
              "rtr": "PITCH_SHIFT"
            },
            "ctb2High": null
          },
          "notes": [
            {
              "pitch": 55,
              "velocity": 107,
              "position": 0.010416666666666666,
              "duration": 0.4791666666666667
            },
            {
              "pitch": 60,
              "velocity": 107,
              "position": 0.03125,
              "duration": 0.4791666666666667
            },
            {
              "pitch": 64,
              "velocity": 107,
              "position": 0.052083333333333336,
              "duration": 0.4791666666666667
            },
            {
              "pitch": 55,
              "velocity": 111,
              "position": 0.5104166666666666,
              "duration": 0.22916666666666666
            },
            {
              "pitch": 60,
              "velocity": 111,
              "position": 0.53125,
              "duration": 0.22916666666666666
            },
            {
              "pitch": 64,
              "velocity": 111,
              "position": 0.5520833333333334,
              "duration": 0.22916666666666666
            },
            {
              "pitch": 55,
              "velocity": 88,
              "position": 0.7604166666666666,
              "duration": 0.22916666666666666
            },
            {
              "pitch": 60,
              "velocity": 88,
              "position": 0.78125,
              "duration": 0.22916666666666666
            },
            {
              "pitch": 64,
              "velocity": 88,
              "position": 0.8020833333333334,
              "duration": 0.22916666666666666
            },
            {
              "pitch": 55,
              "velocity": 101,
              "position": 1.0104166666666667,
              "duration": 0.22916666666666666
            },
            {
              "pitch": 60,
              "velocity": 101,
              "position": 1.03125,
              "duration": 0.22916666666666666
            },
            {
              "pitch": 64,
              "velocity": 101,
              "position": 1.0520833333333333,
              "duration": 0.22916666666666666
            },
            {
              "pitch": 55,
              "velocity": 76,
              "position": 1.2604166666666667,
              "duration": 0.22916666666666666
            },
            {
              "pitch": 60,
              "velocity": 82,
              "position": 1.28125,
              "duration": 0.22916666666666666
            },
            {
              "pitch": 64,
              "velocity": 85,
              "position": 1.3020833333333333,
              "duration": 0.22916666666666666
            },
            {
              "pitch": 55,
              "velocity": 111,
              "position": 1.5104166666666667,
              "duration": 0.22916666666666666
            },
            {
              "pitch": 60,
              "velocity": 111,
              "position": 1.53125,
              "duration": 0.22916666666666666
            },
            {
              "pitch": 64,
              "velocity": 111,
              "position": 1.5520833333333333,
              "duration": 0.22916666666666666
            },
            {
              "pitch": 55,
              "velocity": 90,
              "position": 1.7604166666666667,
              "duration": 0.22916666666666666
            },
            {
              "pitch": 60,
              "velocity": 90,
              "position": 1.78125,
              "duration": 0.22916666666666666
            },
            {
              "pitch": 64,
              "velocity": 90,
              "position": 1.8020833333333333,
              "duration": 0.22916666666666666
            },
            {
              "pitch": 55,
              "velocity": 105,
              "position": 2.0104166666666665,
              "duration": 0.22916666666666666
            },
            {
              "pitch": 60,
              "velocity": 105,
              "position": 2.03125,
              "duration": 0.22916666666666666
            },
            {
              "pitch": 64,
              "velocity": 105,
              "position": 2.0520833333333335,
              "duration": 0.22916666666666666
            },
            {
              "pitch": 55,
              "velocity": 88,
              "position": 2.2604166666666665,
              "duration": 0.22916666666666666
            },
            {
              "pitch": 60,
              "velocity": 88,
              "position": 2.28125,
              "duration": 0.22916666666666666
            },
            {
              "pitch": 64,
              "velocity": 88,
              "position": 2.3020833333333335,
              "duration": 0.22916666666666666
            },
            {
              "pitch": 55,
              "velocity": 111,
              "position": 2.5104166666666665,
              "duration": 0.08333333333333333
            },
            {
              "pitch": 60,
              "velocity": 111,
              "position": 2.53125,
              "duration": 0.08333333333333333
            },
            {
              "pitch": 64,
              "velocity": 111,
              "position": 2.5520833333333335,
              "duration": 0.08333333333333333
            },
            {
              "pitch": 55,
              "velocity": 103,
              "position": 2.7604166666666665,
              "duration": 0.4791666666666667
            },
            {
              "pitch": 60,
              "velocity": 103,
              "position": 2.78125,
              "duration": 0.4791666666666667
            },
            {
              "pitch": 64,
              "velocity": 103,
              "position": 2.8020833333333335,
              "duration": 0.4791666666666667
            },
            {
              "pitch": 55,
              "velocity": 90,
              "position": 3.2604166666666665,
              "duration": 0.22916666666666666
            },
            {
              "pitch": 60,
              "velocity": 90,
              "position": 3.28125,
              "duration": 0.22916666666666666
            },
            {
              "pitch": 64,
              "velocity": 90,
              "position": 3.3020833333333335,
              "duration": 0.22916666666666666
            },
            {
              "pitch": 55,
              "velocity": 100,
              "position": 3.5104166666666665,
              "duration": 0.22916666666666666
            },
            {
              "pitch": 60,
              "velocity": 100,
              "position": 3.53125,
              "duration": 0.22916666666666666
            },
            {
              "pitch": 64,
              "velocity": 100,
              "position": 3.5520833333333335,
              "duration": 0.22916666666666666
            },
            {
              "pitch": 55,
              "velocity": 79,
              "position": 3.7604166666666665,
              "duration": 0.15625
            },
            {
              "pitch": 60,
              "velocity": 85,
              "position": 3.78125,
              "duration": 0.15625
            },
            {
              "pitch": 64,
              "velocity": 89,
              "position": 3.8020833333333335,
              "duration": 0.15625
            }
          ]
        },
        "12": {
          "ctab": {
            "srcChannel": 12,
            "name": "Track 13",
            "accType": "CHORD2",
            "editable": false,
            "mutedNotes": [],
            "mutedChords": [],
            "autoStart": false,
            "sourceChordNote": 0,
            "sourceChordType": "Maj7",
            "ctb2Low": null,
            "ctb2Main": {
              "ntr": "ROOT_TRANSPOSITION",
              "ntt": "CHORD",
              "bassOn": false,
              "chordRootUpperLimit": 6,
              "noteLowLimit": 0,
              "noteHighLimit": 79,
              "rtr": "STOP"
            },
            "ctb2High": null
          },
          "notes": [
            {
              "pitch": 55,
              "velocity": 74,
              "position": 0.010416666666666666,
              "duration": 0.10416666666666667
            },
            {
              "pitch": 48,
              "velocity": 67,
              "position": 0.010416666666666666,
              "duration": 0.125
            },
            {
              "pitch": 48,
              "velocity": 36,
              "position": 0.2604166666666667,
              "duration": 0.09375
            },
            {
              "pitch": 55,
              "velocity": 51,
              "position": 0.25,
              "duration": 0.11458333333333333
            },
            {
              "pitch": 79,
              "velocity": 89,
              "position": 0.2708333333333333,
              "duration": 0.09375
            },
            {
              "pitch": 72,
              "velocity": 89,
              "position": 0.28125,
              "duration": 0.08333333333333333
            },
            {
              "pitch": 84,
              "velocity": 73,
              "position": 0.2708333333333333,
              "duration": 0.10416666666666667
            },
            {
              "pitch": 48,
              "velocity": 57,
              "position": 0.5104166666666666,
              "duration": 0.11458333333333333
            },
            {
              "pitch": 57,
              "velocity": 74,
              "position": 0.53125,
              "duration": 0.11458333333333333
            },
            {
              "pitch": 48,
              "velocity": 29,
              "position": 0.7708333333333334,
              "duration": 0.08333333333333333
            },
            {
              "pitch": 57,
              "velocity": 45,
              "position": 0.7604166666666666,
              "duration": 0.10416666666666667
            },
            {
              "pitch": 79,
              "velocity": 93,
              "position": 1.0104166666666667,
              "duration": 0.08333333333333333
            },
            {
              "pitch": 55,
              "velocity": 60,
              "position": 1.0104166666666667,
              "duration": 0.09375
            },
            {
              "pitch": 72,
              "velocity": 84,
              "position": 1.0104166666666667,
              "duration": 0.09375
            },
            {
              "pitch": 48,
              "velocity": 43,
              "position": 1,
              "duration": 0.11458333333333333
            },
            {
              "pitch": 84,
              "velocity": 84,
              "position": 1.0104166666666667,
              "duration": 0.10416666666666667
            },
            {
              "pitch": 55,
              "velocity": 40,
              "position": 1.25,
              "duration": 0.10416666666666667
            },
            {
              "pitch": 48,
              "velocity": 31,
              "position": 1.25,
              "duration": 0.10416666666666667
            },
            {
              "pitch": 48,
              "velocity": 60,
              "position": 1.5,
              "duration": 0.13541666666666666
            },
            {
              "pitch": 57,
              "velocity": 63,
              "position": 1.5208333333333333,
              "duration": 0.11458333333333333
            },
            {
              "pitch": 74,
              "velocity": 77,
              "position": 1.7291666666666667,
              "duration": 0.10416666666666667
            },
            {
              "pitch": 48,
              "velocity": 31,
              "position": 1.7604166666666667,
              "duration": 0.09375
            },
            {
              "pitch": 57,
              "velocity": 40,
              "position": 1.75,
              "duration": 0.11458333333333333
            },
            {
              "pitch": 75,
              "velocity": 79,
              "position": 1.8333333333333333,
              "duration": 0.08333333333333333
            },
            {
              "pitch": 55,
              "velocity": 67,
              "position": 2,
              "duration": 0.09375
            },
            {
              "pitch": 48,
              "velocity": 54,
              "position": 1.9895833333333333,
              "duration": 0.125
            },
            {
              "pitch": 76,
              "velocity": 73,
              "position": 1.96875,
              "duration": 0.3125
            },
            {
              "pitch": 55,
              "velocity": 51,
              "position": 2.2395833333333335,
              "duration": 0.10416666666666667
            },
            {
              "pitch": 48,
              "velocity": 31,
              "position": 2.25,
              "duration": 0.09375
            },
            {
              "pitch": 84,
              "velocity": 89,
              "position": 2.25,
              "duration": 0.21875
            },
            {
              "pitch": 48,
              "velocity": 67,
              "position": 2.5,
              "duration": 0.125
            },
            {
              "pitch": 57,
              "velocity": 71,
              "position": 2.5104166666666665,
              "duration": 0.11458333333333333
            },
            {
              "pitch": 57,
              "velocity": 29,
              "position": 2.7395833333333335,
              "duration": 0.09375
            },
            {
              "pitch": 48,
              "velocity": 27,
              "position": 2.7395833333333335,
              "duration": 0.11458333333333333
            },
            {
              "pitch": 108,
              "velocity": 89,
              "position": 3.03125,
              "duration": 0.020833333333333332
            },
            {
              "pitch": 107,
              "velocity": 93,
              "position": 3.0416666666666665,
              "duration": 0.03125
            },
            {
              "pitch": 55,
              "velocity": 57,
              "position": 3.0104166666666665,
              "duration": 0.09375
            },
            {
              "pitch": 105,
              "velocity": 93,
              "position": 3.0729166666666665,
              "duration": 0.03125
            },
            {
              "pitch": 48,
              "velocity": 54,
              "position": 3.0104166666666665,
              "duration": 0.10416666666666667
            },
            {
              "pitch": 103,
              "velocity": 81,
              "position": 3.1041666666666665,
              "duration": 0.041666666666666664
            },
            {
              "pitch": 101,
              "velocity": 77,
              "position": 3.1354166666666665,
              "duration": 0.041666666666666664
            },
            {
              "pitch": 100,
              "velocity": 61,
              "position": 3.1666666666666665,
              "duration": 0.041666666666666664
            },
            {
              "pitch": 98,
              "velocity": 55,
              "position": 3.1979166666666665,
              "duration": 0.052083333333333336
            },
            {
              "pitch": 96,
              "velocity": 50,
              "position": 3.2395833333333335,
              "duration": 0.052083333333333336
            },
            {
              "pitch": 95,
              "velocity": 61,
              "position": 3.28125,
              "duration": 0.041666666666666664
            },
            {
              "pitch": 55,
              "velocity": 57,
              "position": 3.2291666666666665,
              "duration": 0.10416666666666667
            },
            {
              "pitch": 48,
              "velocity": 40,
              "position": 3.2291666666666665,
              "duration": 0.10416666666666667
            },
            {
              "pitch": 93,
              "velocity": 63,
              "position": 3.3229166666666665,
              "duration": 0.041666666666666664
            },
            {
              "pitch": 91,
              "velocity": 62,
              "position": 3.3645833333333335,
              "duration": 0.041666666666666664
            },
            {
              "pitch": 89,
              "velocity": 61,
              "position": 3.40625,
              "duration": 0.041666666666666664
            },
            {
              "pitch": 88,
              "velocity": 59,
              "position": 3.4375,
              "duration": 0.052083333333333336
            },
            {
              "pitch": 86,
              "velocity": 58,
              "position": 3.4791666666666665,
              "duration": 0.041666666666666664
            },
            {
              "pitch": 84,
              "velocity": 56,
              "position": 3.5416666666666665,
              "duration": 0.041666666666666664
            },
            {
              "pitch": 48,
              "velocity": 47,
              "position": 3.4895833333333335,
              "duration": 0.13541666666666666
            },
            {
              "pitch": 83,
              "velocity": 54,
              "position": 3.5833333333333335,
              "duration": 0.041666666666666664
            },
            {
              "pitch": 57,
              "velocity": 47,
              "position": 3.5,
              "duration": 0.13541666666666666
            },
            {
              "pitch": 81,
              "velocity": 53,
              "position": 3.6145833333333335,
              "duration": 0.052083333333333336
            },
            {
              "pitch": 79,
              "velocity": 52,
              "position": 3.65625,
              "duration": 0.052083333333333336
            },
            {
              "pitch": 77,
              "velocity": 50,
              "position": 3.7083333333333335,
              "duration": 0.041666666666666664
            },
            {
              "pitch": 76,
              "velocity": 48,
              "position": 3.7604166666666665,
              "duration": 0.041666666666666664
            },
            {
              "pitch": 74,
              "velocity": 47,
              "position": 3.8125,
              "duration": 0.020833333333333332
            },
            {
              "pitch": 55,
              "velocity": 38,
              "position": 3.7604166666666665,
              "duration": 0.09375
            },
            {
              "pitch": 48,
              "velocity": 38,
              "position": 3.7708333333333335,
              "duration": 0.10416666666666667
            },
            {
              "pitch": 72,
              "velocity": 45,
              "position": 3.8541666666666665,
              "duration": 0.041666666666666664
            }
          ]
        },
        "14": {
          "ctab": {
            "srcChannel": 14,
            "name": "Track 15",
            "accType": "PHRASE1",
            "editable": false,
            "mutedNotes": [],
            "mutedChords": [],
            "autoStart": false,
            "sourceChordNote": 0,
            "sourceChordType": "Maj7",
            "ctb2Low": null,
            "ctb2Main": {
              "ntr": "ROOT_TRANSPOSITION",
              "ntt": "CHORD",
              "bassOn": false,
              "chordRootUpperLimit": 6,
              "noteLowLimit": 0,
              "noteHighLimit": 127,
              "rtr": "PITCH_SHIFT"
            },
            "ctb2High": null
          },
          "notes": [
            {
              "pitch": 55,
              "velocity": 101,
              "position": 0.020833333333333332,
              "duration": 0.23958333333333334
            },
            {
              "pitch": 48,
              "velocity": 101,
              "position": 0.020833333333333332,
              "duration": 0.2708333333333333
            },
            {
              "pitch": 48,
              "velocity": 40,
              "position": 0.3020833333333333,
              "duration": 0.17708333333333334
            },
            {
              "pitch": 55,
              "velocity": 75,
              "position": 0.2916666666666667,
              "duration": 0.20833333333333334
            },
            {
              "pitch": 57,
              "velocity": 98,
              "position": 0.5208333333333334,
              "duration": 0.1875
            },
            {
              "pitch": 48,
              "velocity": 78,
              "position": 0.5104166666666666,
              "duration": 0.22916666666666666
            },
            {
              "pitch": 55,
              "velocity": 107,
              "position": 1.0208333333333333,
              "duration": 0.16666666666666666
            },
            {
              "pitch": 48,
              "velocity": 78,
              "position": 1.0104166666666667,
              "duration": 0.25
            },
            {
              "pitch": 57,
              "velocity": 102,
              "position": 1.5208333333333333,
              "duration": 0.22916666666666666
            },
            {
              "pitch": 48,
              "velocity": 82,
              "position": 1.53125,
              "duration": 0.3229166666666667
            },
            {
              "pitch": 55,
              "velocity": 37,
              "position": 1.8125,
              "duration": 0.052083333333333336
            },
            {
              "pitch": 55,
              "velocity": 98,
              "position": 2.0104166666666665,
              "duration": 0.21875
            },
            {
              "pitch": 48,
              "velocity": 72,
              "position": 2.0104166666666665,
              "duration": 0.22916666666666666
            },
            {
              "pitch": 48,
              "velocity": 40,
              "position": 2.2916666666666665,
              "duration": 0.17708333333333334
            },
            {
              "pitch": 55,
              "velocity": 72,
              "position": 2.2708333333333335,
              "duration": 0.22916666666666666
            },
            {
              "pitch": 48,
              "velocity": 82,
              "position": 2.5104166666666665,
              "duration": 0.1875
            },
            {
              "pitch": 57,
              "velocity": 112,
              "position": 2.5104166666666665,
              "duration": 0.19791666666666666
            },
            {
              "pitch": 55,
              "velocity": 49,
              "position": 2.78125,
              "duration": 0.08333333333333333
            },
            {
              "pitch": 48,
              "velocity": 63,
              "position": 2.8020833333333335,
              "duration": 0.08333333333333333
            },
            {
              "pitch": 55,
              "velocity": 98,
              "position": 3,
              "duration": 0.22916666666666666
            },
            {
              "pitch": 48,
              "velocity": 66,
              "position": 3,
              "duration": 0.2604166666666667
            },
            {
              "pitch": 55,
              "velocity": 63,
              "position": 3.2708333333333335,
              "duration": 0.20833333333333334
            },
            {
              "pitch": 48,
              "velocity": 58,
              "position": 3.28125,
              "duration": 0.19791666666666666
            },
            {
              "pitch": 48,
              "velocity": 78,
              "position": 3.5,
              "duration": 0.19791666666666666
            },
            {
              "pitch": 57,
              "velocity": 107,
              "position": 3.5,
              "duration": 0.21875
            },
            {
              "pitch": 55,
              "velocity": 63,
              "position": 3.75,
              "duration": 0.14583333333333334
            },
            {
              "pitch": 48,
              "velocity": 46,
              "position": 3.78125,
              "duration": 0.125
            }
          ]
        }
      }
    },
    "Main_C": {
      "type": "Main_C",
      "sizeInBeats": 16,
      "channels": {
        "8": {
          "ctab": {
            "srcChannel": 8,
            "name": "Track 9",
            "accType": "RHYTHM",
            "editable": false,
            "mutedNotes": [],
            "mutedChords": [],
            "autoStart": true,
            "sourceChordNote": 0,
            "sourceChordType": "Maj7",
            "ctb2Low": null,
            "ctb2Main": {
              "ntr": "ROOT_FIXED",
              "ntt": "BYPASS",
              "bassOn": false,
              "chordRootUpperLimit": 6,
              "noteLowLimit": 0,
              "noteHighLimit": 127,
              "rtr": "PITCH_SHIFT"
            },
            "ctb2High": null
          },
          "notes": [
            {
              "pitch": 54,
              "velocity": 58,
              "position": 0.010416666666666666,
              "duration": 0.010416666666666666
            },
            {
              "pitch": 54,
              "velocity": 36,
              "position": 0.25,
              "duration": 0.010416666666666666
            },
            {
              "pitch": 54,
              "velocity": 88,
              "position": 0.5104166666666666,
              "duration": 0.010416666666666666
            },
            {
              "pitch": 54,
              "velocity": 36,
              "position": 0.75,
              "duration": 0.010416666666666666
            },
            {
              "pitch": 54,
              "velocity": 54,
              "position": 1,
              "duration": 0.010416666666666666
            },
            {
              "pitch": 54,
              "velocity": 38,
              "position": 1.25,
              "duration": 0.010416666666666666
            },
            {
              "pitch": 54,
              "velocity": 86,
              "position": 1.5104166666666667,
              "duration": 0.010416666666666666
            },
            {
              "pitch": 54,
              "velocity": 36,
              "position": 1.7395833333333333,
              "duration": 0.010416666666666666
            },
            {
              "pitch": 54,
              "velocity": 56,
              "position": 1.9895833333333333,
              "duration": 0.010416666666666666
            },
            {
              "pitch": 54,
              "velocity": 36,
              "position": 2.2395833333333335,
              "duration": 0.010416666666666666
            },
            {
              "pitch": 54,
              "velocity": 86,
              "position": 2.4895833333333335,
              "duration": 0.010416666666666666
            },
            {
              "pitch": 54,
              "velocity": 38,
              "position": 2.7395833333333335,
              "duration": 0.010416666666666666
            },
            {
              "pitch": 54,
              "velocity": 56,
              "position": 2.9895833333333335,
              "duration": 0.010416666666666666
            },
            {
              "pitch": 54,
              "velocity": 38,
              "position": 3.2395833333333335,
              "duration": 0.010416666666666666
            },
            {
              "pitch": 54,
              "velocity": 86,
              "position": 3.4895833333333335,
              "duration": 0.010416666666666666
            },
            {
              "pitch": 54,
              "velocity": 34,
              "position": 3.75,
              "duration": 0.010416666666666666
            },
            {
              "pitch": 54,
              "velocity": 58,
              "position": 4.010416666666667,
              "duration": 0.010416666666666666
            },
            {
              "pitch": 54,
              "velocity": 36,
              "position": 4.25,
              "duration": 0.010416666666666666
            },
            {
              "pitch": 54,
              "velocity": 88,
              "position": 4.510416666666667,
              "duration": 0.010416666666666666
            },
            {
              "pitch": 54,
              "velocity": 36,
              "position": 4.75,
              "duration": 0.010416666666666666
            },
            {
              "pitch": 54,
              "velocity": 54,
              "position": 5,
              "duration": 0.010416666666666666
            },
            {
              "pitch": 54,
              "velocity": 38,
              "position": 5.25,
              "duration": 0.010416666666666666
            },
            {
              "pitch": 54,
              "velocity": 86,
              "position": 5.510416666666667,
              "duration": 0.010416666666666666
            },
            {
              "pitch": 54,
              "velocity": 36,
              "position": 5.739583333333333,
              "duration": 0.010416666666666666
            },
            {
              "pitch": 54,
              "velocity": 56,
              "position": 5.989583333333333,
              "duration": 0.010416666666666666
            },
            {
              "pitch": 54,
              "velocity": 36,
              "position": 6.239583333333333,
              "duration": 0.010416666666666666
            },
            {
              "pitch": 54,
              "velocity": 86,
              "position": 6.489583333333333,
              "duration": 0.010416666666666666
            },
            {
              "pitch": 54,
              "velocity": 38,
              "position": 6.739583333333333,
              "duration": 0.010416666666666666
            },
            {
              "pitch": 54,
              "velocity": 56,
              "position": 6.989583333333333,
              "duration": 0.010416666666666666
            },
            {
              "pitch": 54,
              "velocity": 38,
              "position": 7.239583333333333,
              "duration": 0.010416666666666666
            },
            {
              "pitch": 54,
              "velocity": 86,
              "position": 7.489583333333333,
              "duration": 0.010416666666666666
            },
            {
              "pitch": 54,
              "velocity": 34,
              "position": 7.75,
              "duration": 0.010416666666666666
            },
            {
              "pitch": 54,
              "velocity": 58,
              "position": 8.010416666666666,
              "duration": 0.010416666666666666
            },
            {
              "pitch": 54,
              "velocity": 36,
              "position": 8.25,
              "duration": 0.010416666666666666
            },
            {
              "pitch": 54,
              "velocity": 88,
              "position": 8.510416666666666,
              "duration": 0.010416666666666666
            },
            {
              "pitch": 54,
              "velocity": 36,
              "position": 8.75,
              "duration": 0.010416666666666666
            },
            {
              "pitch": 54,
              "velocity": 54,
              "position": 9,
              "duration": 0.010416666666666666
            },
            {
              "pitch": 54,
              "velocity": 38,
              "position": 9.25,
              "duration": 0.010416666666666666
            },
            {
              "pitch": 54,
              "velocity": 86,
              "position": 9.510416666666666,
              "duration": 0.010416666666666666
            },
            {
              "pitch": 54,
              "velocity": 36,
              "position": 9.739583333333334,
              "duration": 0.010416666666666666
            },
            {
              "pitch": 54,
              "velocity": 56,
              "position": 9.989583333333334,
              "duration": 0.010416666666666666
            },
            {
              "pitch": 54,
              "velocity": 36,
              "position": 10.239583333333334,
              "duration": 0.010416666666666666
            },
            {
              "pitch": 54,
              "velocity": 86,
              "position": 10.489583333333334,
              "duration": 0.010416666666666666
            },
            {
              "pitch": 54,
              "velocity": 38,
              "position": 10.739583333333334,
              "duration": 0.010416666666666666
            },
            {
              "pitch": 54,
              "velocity": 56,
              "position": 10.989583333333334,
              "duration": 0.010416666666666666
            },
            {
              "pitch": 54,
              "velocity": 38,
              "position": 11.239583333333334,
              "duration": 0.010416666666666666
            },
            {
              "pitch": 54,
              "velocity": 86,
              "position": 11.489583333333334,
              "duration": 0.010416666666666666
            },
            {
              "pitch": 54,
              "velocity": 34,
              "position": 11.75,
              "duration": 0.010416666666666666
            },
            {
              "pitch": 54,
              "velocity": 58,
              "position": 12.010416666666666,
              "duration": 0.010416666666666666
            },
            {
              "pitch": 54,
              "velocity": 36,
              "position": 12.25,
              "duration": 0.010416666666666666
            },
            {
              "pitch": 54,
              "velocity": 88,
              "position": 12.510416666666666,
              "duration": 0.010416666666666666
            },
            {
              "pitch": 54,
              "velocity": 36,
              "position": 12.75,
              "duration": 0.010416666666666666
            },
            {
              "pitch": 54,
              "velocity": 54,
              "position": 13,
              "duration": 0.010416666666666666
            },
            {
              "pitch": 54,
              "velocity": 38,
              "position": 13.25,
              "duration": 0.010416666666666666
            },
            {
              "pitch": 54,
              "velocity": 86,
              "position": 13.510416666666666,
              "duration": 0.010416666666666666
            },
            {
              "pitch": 54,
              "velocity": 36,
              "position": 13.739583333333334,
              "duration": 0.010416666666666666
            },
            {
              "pitch": 54,
              "velocity": 56,
              "position": 13.989583333333334,
              "duration": 0.010416666666666666
            },
            {
              "pitch": 54,
              "velocity": 36,
              "position": 14.239583333333334,
              "duration": 0.010416666666666666
            },
            {
              "pitch": 54,
              "velocity": 86,
              "position": 14.489583333333334,
              "duration": 0.010416666666666666
            },
            {
              "pitch": 54,
              "velocity": 38,
              "position": 14.739583333333334,
              "duration": 0.010416666666666666
            },
            {
              "pitch": 54,
              "velocity": 56,
              "position": 14.989583333333334,
              "duration": 0.010416666666666666
            },
            {
              "pitch": 54,
              "velocity": 38,
              "position": 15.239583333333334,
              "duration": 0.010416666666666666
            },
            {
              "pitch": 54,
              "velocity": 86,
              "position": 15.489583333333334,
              "duration": 0.010416666666666666
            },
            {
              "pitch": 54,
              "velocity": 34,
              "position": 15.75,
              "duration": 0.010416666666666666
            }
          ]
        },
        "9": {
          "ctab": {
            "srcChannel": 9,
            "name": "Track 10",
            "accType": "SUBRHYTHM",
            "editable": false,
            "mutedNotes": [],
            "mutedChords": [],
            "autoStart": true,
            "sourceChordNote": 0,
            "sourceChordType": "Maj7",
            "ctb2Low": null,
            "ctb2Main": {
              "ntr": "ROOT_FIXED",
              "ntt": "BYPASS",
              "bassOn": false,
              "chordRootUpperLimit": 6,
              "noteLowLimit": 0,
              "noteHighLimit": 127,
              "rtr": "PITCH_SHIFT"
            },
            "ctb2High": null
          },
          "notes": [
            {
              "pitch": 36,
              "velocity": 115,
              "position": 0,
              "duration": 0.010416666666666666
            },
            {
              "pitch": 57,
              "velocity": 64,
              "position": 0,
              "duration": 0.010416666666666666
            },
            {
              "pitch": 54,
              "velocity": 58,
              "position": 0.010416666666666666,
              "duration": 0.010416666666666666
            },
            {
              "pitch": 54,
              "velocity": 36,
              "position": 0.25,
              "duration": 0.010416666666666666
            },
            {
              "pitch": 40,
              "velocity": 28,
              "position": 0.2604166666666667,
              "duration": 0.010416666666666666
            },
            {
              "pitch": 40,
              "velocity": 113,
              "position": 0.5,
              "duration": 0.010416666666666666
            },
            {
              "pitch": 54,
              "velocity": 88,
              "position": 0.5104166666666666,
              "duration": 0.010416666666666666
            },
            {
              "pitch": 40,
              "velocity": 30,
              "position": 0.75,
              "duration": 0.010416666666666666
            },
            {
              "pitch": 54,
              "velocity": 36,
              "position": 0.75,
              "duration": 0.010416666666666666
            },
            {
              "pitch": 36,
              "velocity": 115,
              "position": 1,
              "duration": 0.010416666666666666
            },
            {
              "pitch": 54,
              "velocity": 54,
              "position": 1,
              "duration": 0.010416666666666666
            },
            {
              "pitch": 40,
              "velocity": 47,
              "position": 1.0104166666666667,
              "duration": 0.010416666666666666
            },
            {
              "pitch": 40,
              "velocity": 37,
              "position": 1.25,
              "duration": 0.010416666666666666
            },
            {
              "pitch": 54,
              "velocity": 38,
              "position": 1.25,
              "duration": 0.010416666666666666
            },
            {
              "pitch": 40,
              "velocity": 113,
              "position": 1.5,
              "duration": 0.010416666666666666
            },
            {
              "pitch": 54,
              "velocity": 86,
              "position": 1.5104166666666667,
              "duration": 0.010416666666666666
            },
            {
              "pitch": 54,
              "velocity": 36,
              "position": 1.7395833333333333,
              "duration": 0.010416666666666666
            },
            {
              "pitch": 40,
              "velocity": 30,
              "position": 1.7604166666666667,
              "duration": 0.010416666666666666
            },
            {
              "pitch": 54,
              "velocity": 56,
              "position": 1.9895833333333333,
              "duration": 0.010416666666666666
            },
            {
              "pitch": 36,
              "velocity": 115,
              "position": 2,
              "duration": 0.010416666666666666
            },
            {
              "pitch": 40,
              "velocity": 30,
              "position": 2.0104166666666665,
              "duration": 0.010416666666666666
            },
            {
              "pitch": 54,
              "velocity": 36,
              "position": 2.2395833333333335,
              "duration": 0.010416666666666666
            },
            {
              "pitch": 40,
              "velocity": 31,
              "position": 2.25,
              "duration": 0.010416666666666666
            },
            {
              "pitch": 54,
              "velocity": 86,
              "position": 2.4895833333333335,
              "duration": 0.010416666666666666
            },
            {
              "pitch": 40,
              "velocity": 113,
              "position": 2.5,
              "duration": 0.010416666666666666
            },
            {
              "pitch": 54,
              "velocity": 38,
              "position": 2.7395833333333335,
              "duration": 0.010416666666666666
            },
            {
              "pitch": 40,
              "velocity": 30,
              "position": 2.75,
              "duration": 0.010416666666666666
            },
            {
              "pitch": 54,
              "velocity": 56,
              "position": 2.9895833333333335,
              "duration": 0.010416666666666666
            },
            {
              "pitch": 36,
              "velocity": 115,
              "position": 3,
              "duration": 0.010416666666666666
            },
            {
              "pitch": 40,
              "velocity": 49,
              "position": 3,
              "duration": 0.010416666666666666
            },
            {
              "pitch": 54,
              "velocity": 38,
              "position": 3.2395833333333335,
              "duration": 0.010416666666666666
            },
            {
              "pitch": 40,
              "velocity": 34,
              "position": 3.25,
              "duration": 0.010416666666666666
            },
            {
              "pitch": 54,
              "velocity": 86,
              "position": 3.4895833333333335,
              "duration": 0.010416666666666666
            },
            {
              "pitch": 40,
              "velocity": 113,
              "position": 3.5,
              "duration": 0.010416666666666666
            },
            {
              "pitch": 40,
              "velocity": 36,
              "position": 3.75,
              "duration": 0.010416666666666666
            },
            {
              "pitch": 54,
              "velocity": 34,
              "position": 3.75,
              "duration": 0.010416666666666666
            },
            {
              "pitch": 36,
              "velocity": 115,
              "position": 4,
              "duration": 0.010416666666666666
            },
            {
              "pitch": 54,
              "velocity": 58,
              "position": 4.010416666666667,
              "duration": 0.010416666666666666
            },
            {
              "pitch": 40,
              "velocity": 39,
              "position": 4.010416666666667,
              "duration": 0.010416666666666666
            },
            {
              "pitch": 54,
              "velocity": 36,
              "position": 4.25,
              "duration": 0.010416666666666666
            },
            {
              "pitch": 40,
              "velocity": 32,
              "position": 4.260416666666667,
              "duration": 0.010416666666666666
            },
            {
              "pitch": 40,
              "velocity": 108,
              "position": 4.5,
              "duration": 0.010416666666666666
            },
            {
              "pitch": 54,
              "velocity": 88,
              "position": 4.510416666666667,
              "duration": 0.010416666666666666
            },
            {
              "pitch": 40,
              "velocity": 36,
              "position": 4.75,
              "duration": 0.010416666666666666
            },
            {
              "pitch": 54,
              "velocity": 36,
              "position": 4.75,
              "duration": 0.010416666666666666
            },
            {
              "pitch": 36,
              "velocity": 115,
              "position": 5,
              "duration": 0.010416666666666666
            },
            {
              "pitch": 54,
              "velocity": 54,
              "position": 5,
              "duration": 0.010416666666666666
            },
            {
              "pitch": 40,
              "velocity": 45,
              "position": 5.010416666666667,
              "duration": 0.010416666666666666
            },
            {
              "pitch": 54,
              "velocity": 38,
              "position": 5.25,
              "duration": 0.010416666666666666
            },
            {
              "pitch": 40,
              "velocity": 33,
              "position": 5.260416666666667,
              "duration": 0.010416666666666666
            },
            {
              "pitch": 40,
              "velocity": 113,
              "position": 5.510416666666667,
              "duration": 0.010416666666666666
            },
            {
              "pitch": 54,
              "velocity": 86,
              "position": 5.510416666666667,
              "duration": 0.010416666666666666
            },
            {
              "pitch": 54,
              "velocity": 36,
              "position": 5.739583333333333,
              "duration": 0.010416666666666666
            },
            {
              "pitch": 40,
              "velocity": 29,
              "position": 5.75,
              "duration": 0.010416666666666666
            },
            {
              "pitch": 54,
              "velocity": 56,
              "position": 5.989583333333333,
              "duration": 0.010416666666666666
            },
            {
              "pitch": 36,
              "velocity": 115,
              "position": 6,
              "duration": 0.010416666666666666
            },
            {
              "pitch": 40,
              "velocity": 37,
              "position": 6,
              "duration": 0.010416666666666666
            },
            {
              "pitch": 54,
              "velocity": 36,
              "position": 6.239583333333333,
              "duration": 0.010416666666666666
            },
            {
              "pitch": 40,
              "velocity": 30,
              "position": 6.25,
              "duration": 0.010416666666666666
            },
            {
              "pitch": 54,
              "velocity": 86,
              "position": 6.489583333333333,
              "duration": 0.010416666666666666
            },
            {
              "pitch": 40,
              "velocity": 113,
              "position": 6.5,
              "duration": 0.010416666666666666
            },
            {
              "pitch": 54,
              "velocity": 38,
              "position": 6.739583333333333,
              "duration": 0.010416666666666666
            },
            {
              "pitch": 40,
              "velocity": 30,
              "position": 6.75,
              "duration": 0.010416666666666666
            },
            {
              "pitch": 54,
              "velocity": 56,
              "position": 6.989583333333333,
              "duration": 0.010416666666666666
            },
            {
              "pitch": 40,
              "velocity": 39,
              "position": 6.989583333333333,
              "duration": 0.010416666666666666
            },
            {
              "pitch": 36,
              "velocity": 115,
              "position": 7,
              "duration": 0.010416666666666666
            },
            {
              "pitch": 54,
              "velocity": 38,
              "position": 7.239583333333333,
              "duration": 0.010416666666666666
            },
            {
              "pitch": 40,
              "velocity": 36,
              "position": 7.25,
              "duration": 0.010416666666666666
            },
            {
              "pitch": 54,
              "velocity": 86,
              "position": 7.489583333333333,
              "duration": 0.010416666666666666
            },
            {
              "pitch": 40,
              "velocity": 113,
              "position": 7.5,
              "duration": 0.010416666666666666
            },
            {
              "pitch": 54,
              "velocity": 34,
              "position": 7.75,
              "duration": 0.010416666666666666
            },
            {
              "pitch": 40,
              "velocity": 41,
              "position": 7.75,
              "duration": 0.010416666666666666
            },
            {
              "pitch": 36,
              "velocity": 115,
              "position": 8,
              "duration": 0.010416666666666666
            },
            {
              "pitch": 40,
              "velocity": 39,
              "position": 8.010416666666666,
              "duration": 0.010416666666666666
            },
            {
              "pitch": 54,
              "velocity": 58,
              "position": 8.010416666666666,
              "duration": 0.010416666666666666
            },
            {
              "pitch": 40,
              "velocity": 32,
              "position": 8.25,
              "duration": 0.010416666666666666
            },
            {
              "pitch": 54,
              "velocity": 36,
              "position": 8.25,
              "duration": 0.010416666666666666
            },
            {
              "pitch": 40,
              "velocity": 113,
              "position": 8.5,
              "duration": 0.010416666666666666
            },
            {
              "pitch": 54,
              "velocity": 88,
              "position": 8.510416666666666,
              "duration": 0.010416666666666666
            },
            {
              "pitch": 40,
              "velocity": 31,
              "position": 8.75,
              "duration": 0.010416666666666666
            },
            {
              "pitch": 54,
              "velocity": 36,
              "position": 8.75,
              "duration": 0.010416666666666666
            },
            {
              "pitch": 36,
              "velocity": 115,
              "position": 9,
              "duration": 0.010416666666666666
            },
            {
              "pitch": 40,
              "velocity": 39,
              "position": 9,
              "duration": 0.010416666666666666
            },
            {
              "pitch": 54,
              "velocity": 54,
              "position": 9,
              "duration": 0.010416666666666666
            },
            {
              "pitch": 54,
              "velocity": 38,
              "position": 9.25,
              "duration": 0.010416666666666666
            },
            {
              "pitch": 40,
              "velocity": 30,
              "position": 9.260416666666666,
              "duration": 0.010416666666666666
            },
            {
              "pitch": 40,
              "velocity": 113,
              "position": 9.5,
              "duration": 0.010416666666666666
            },
            {
              "pitch": 54,
              "velocity": 86,
              "position": 9.510416666666666,
              "duration": 0.010416666666666666
            },
            {
              "pitch": 54,
              "velocity": 36,
              "position": 9.739583333333334,
              "duration": 0.010416666666666666
            },
            {
              "pitch": 40,
              "velocity": 31,
              "position": 9.760416666666666,
              "duration": 0.010416666666666666
            },
            {
              "pitch": 54,
              "velocity": 56,
              "position": 9.989583333333334,
              "duration": 0.010416666666666666
            },
            {
              "pitch": 36,
              "velocity": 115,
              "position": 10,
              "duration": 0.010416666666666666
            },
            {
              "pitch": 40,
              "velocity": 43,
              "position": 10.010416666666666,
              "duration": 0.010416666666666666
            },
            {
              "pitch": 54,
              "velocity": 36,
              "position": 10.239583333333334,
              "duration": 0.010416666666666666
            },
            {
              "pitch": 40,
              "velocity": 30,
              "position": 10.260416666666666,
              "duration": 0.010416666666666666
            },
            {
              "pitch": 54,
              "velocity": 86,
              "position": 10.489583333333334,
              "duration": 0.010416666666666666
            },
            {
              "pitch": 40,
              "velocity": 113,
              "position": 10.510416666666666,
              "duration": 0.010416666666666666
            },
            {
              "pitch": 54,
              "velocity": 38,
              "position": 10.739583333333334,
              "duration": 0.010416666666666666
            },
            {
              "pitch": 40,
              "velocity": 41,
              "position": 10.760416666666666,
              "duration": 0.010416666666666666
            },
            {
              "pitch": 54,
              "velocity": 56,
              "position": 10.989583333333334,
              "duration": 0.010416666666666666
            },
            {
              "pitch": 36,
              "velocity": 115,
              "position": 11,
              "duration": 0.010416666666666666
            },
            {
              "pitch": 40,
              "velocity": 26,
              "position": 11.020833333333334,
              "duration": 0.010416666666666666
            },
            {
              "pitch": 54,
              "velocity": 38,
              "position": 11.239583333333334,
              "duration": 0.010416666666666666
            },
            {
              "pitch": 40,
              "velocity": 34,
              "position": 11.260416666666666,
              "duration": 0.010416666666666666
            },
            {
              "pitch": 54,
              "velocity": 86,
              "position": 11.489583333333334,
              "duration": 0.010416666666666666
            },
            {
              "pitch": 40,
              "velocity": 113,
              "position": 11.510416666666666,
              "duration": 0.010416666666666666
            },
            {
              "pitch": 54,
              "velocity": 34,
              "position": 11.75,
              "duration": 0.010416666666666666
            },
            {
              "pitch": 40,
              "velocity": 34,
              "position": 11.760416666666666,
              "duration": 0.010416666666666666
            },
            {
              "pitch": 36,
              "velocity": 115,
              "position": 12,
              "duration": 0.010416666666666666
            },
            {
              "pitch": 54,
              "velocity": 58,
              "position": 12.010416666666666,
              "duration": 0.010416666666666666
            },
            {
              "pitch": 40,
              "velocity": 41,
              "position": 12.010416666666666,
              "duration": 0.010416666666666666
            },
            {
              "pitch": 54,
              "velocity": 36,
              "position": 12.25,
              "duration": 0.010416666666666666
            },
            {
              "pitch": 40,
              "velocity": 31,
              "position": 12.260416666666666,
              "duration": 0.010416666666666666
            },
            {
              "pitch": 54,
              "velocity": 88,
              "position": 12.510416666666666,
              "duration": 0.010416666666666666
            },
            {
              "pitch": 40,
              "velocity": 113,
              "position": 12.510416666666666,
              "duration": 0.010416666666666666
            },
            {
              "pitch": 54,
              "velocity": 36,
              "position": 12.75,
              "duration": 0.010416666666666666
            },
            {
              "pitch": 40,
              "velocity": 33,
              "position": 12.760416666666666,
              "duration": 0.010416666666666666
            },
            {
              "pitch": 36,
              "velocity": 115,
              "position": 13,
              "duration": 0.010416666666666666
            },
            {
              "pitch": 54,
              "velocity": 54,
              "position": 13,
              "duration": 0.010416666666666666
            },
            {
              "pitch": 40,
              "velocity": 45,
              "position": 13.010416666666666,
              "duration": 0.010416666666666666
            },
            {
              "pitch": 54,
              "velocity": 38,
              "position": 13.25,
              "duration": 0.010416666666666666
            },
            {
              "pitch": 40,
              "velocity": 29,
              "position": 13.260416666666666,
              "duration": 0.010416666666666666
            },
            {
              "pitch": 54,
              "velocity": 86,
              "position": 13.510416666666666,
              "duration": 0.010416666666666666
            },
            {
              "pitch": 40,
              "velocity": 113,
              "position": 13.510416666666666,
              "duration": 0.010416666666666666
            },
            {
              "pitch": 54,
              "velocity": 36,
              "position": 13.739583333333334,
              "duration": 0.010416666666666666
            },
            {
              "pitch": 40,
              "velocity": 26,
              "position": 13.770833333333334,
              "duration": 0.010416666666666666
            },
            {
              "pitch": 54,
              "velocity": 56,
              "position": 13.989583333333334,
              "duration": 0.010416666666666666
            },
            {
              "pitch": 36,
              "velocity": 115,
              "position": 14,
              "duration": 0.010416666666666666
            },
            {
              "pitch": 40,
              "velocity": 48,
              "position": 14.010416666666666,
              "duration": 0.010416666666666666
            },
            {
              "pitch": 54,
              "velocity": 36,
              "position": 14.239583333333334,
              "duration": 0.010416666666666666
            },
            {
              "pitch": 40,
              "velocity": 28,
              "position": 14.25,
              "duration": 0.010416666666666666
            },
            {
              "pitch": 54,
              "velocity": 86,
              "position": 14.489583333333334,
              "duration": 0.010416666666666666
            },
            {
              "pitch": 40,
              "velocity": 113,
              "position": 14.510416666666666,
              "duration": 0.010416666666666666
            },
            {
              "pitch": 54,
              "velocity": 38,
              "position": 14.739583333333334,
              "duration": 0.010416666666666666
            },
            {
              "pitch": 40,
              "velocity": 29,
              "position": 14.760416666666666,
              "duration": 0.010416666666666666
            },
            {
              "pitch": 54,
              "velocity": 56,
              "position": 14.989583333333334,
              "duration": 0.010416666666666666
            },
            {
              "pitch": 36,
              "velocity": 115,
              "position": 15,
              "duration": 0.010416666666666666
            },
            {
              "pitch": 40,
              "velocity": 50,
              "position": 15.010416666666666,
              "duration": 0.010416666666666666
            },
            {
              "pitch": 54,
              "velocity": 38,
              "position": 15.239583333333334,
              "duration": 0.010416666666666666
            },
            {
              "pitch": 40,
              "velocity": 46,
              "position": 15.260416666666666,
              "duration": 0.010416666666666666
            },
            {
              "pitch": 54,
              "velocity": 86,
              "position": 15.489583333333334,
              "duration": 0.010416666666666666
            },
            {
              "pitch": 40,
              "velocity": 111,
              "position": 15.510416666666666,
              "duration": 0.010416666666666666
            },
            {
              "pitch": 54,
              "velocity": 34,
              "position": 15.75,
              "duration": 0.010416666666666666
            },
            {
              "pitch": 40,
              "velocity": 64,
              "position": 15.75,
              "duration": 0.010416666666666666
            }
          ]
        },
        "10": {
          "ctab": {
            "srcChannel": 10,
            "name": "Track 11",
            "accType": "BASS",
            "editable": false,
            "mutedNotes": [],
            "mutedChords": [],
            "autoStart": false,
            "sourceChordNote": 0,
            "sourceChordType": "Maj7",
            "ctb2Low": null,
            "ctb2Main": {
              "ntr": "ROOT_TRANSPOSITION",
              "ntt": "MELODY",
              "bassOn": true,
              "chordRootUpperLimit": 3,
              "noteLowLimit": 28,
              "noteHighLimit": 127,
              "rtr": "PITCH_SHIFT"
            },
            "ctb2High": null
          },
          "notes": [
            {
              "pitch": 36,
              "velocity": 119,
              "position": 0,
              "duration": 0.46875
            },
            {
              "pitch": 36,
              "velocity": 95,
              "position": 0.75,
              "duration": 0.041666666666666664
            },
            {
              "pitch": 31,
              "velocity": 119,
              "position": 1,
              "duration": 0.5208333333333334
            },
            {
              "pitch": 31,
              "velocity": 95,
              "position": 1.75,
              "duration": 0.052083333333333336
            },
            {
              "pitch": 36,
              "velocity": 121,
              "position": 2,
              "duration": 0.46875
            },
            {
              "pitch": 36,
              "velocity": 96,
              "position": 2.75,
              "duration": 0.0625
            },
            {
              "pitch": 31,
              "velocity": 119,
              "position": 3,
              "duration": 0.4791666666666667
            },
            {
              "pitch": 40,
              "velocity": 117,
              "position": 3.5,
              "duration": 0.4479166666666667
            },
            {
              "pitch": 36,
              "velocity": 119,
              "position": 4,
              "duration": 0.4583333333333333
            },
            {
              "pitch": 36,
              "velocity": 95,
              "position": 4.75,
              "duration": 0.052083333333333336
            },
            {
              "pitch": 31,
              "velocity": 124,
              "position": 5,
              "duration": 0.5104166666666666
            },
            {
              "pitch": 31,
              "velocity": 94,
              "position": 5.75,
              "duration": 0.0625
            },
            {
              "pitch": 36,
              "velocity": 121,
              "position": 6,
              "duration": 0.4791666666666667
            },
            {
              "pitch": 36,
              "velocity": 101,
              "position": 6.75,
              "duration": 0.07291666666666667
            },
            {
              "pitch": 31,
              "velocity": 117,
              "position": 7,
              "duration": 0.4166666666666667
            },
            {
              "pitch": 33,
              "velocity": 116,
              "position": 7.5,
              "duration": 0.40625
            },
            {
              "pitch": 36,
              "velocity": 115,
              "position": 8,
              "duration": 0.46875
            },
            {
              "pitch": 36,
              "velocity": 94,
              "position": 8.75,
              "duration": 0.052083333333333336
            },
            {
              "pitch": 31,
              "velocity": 118,
              "position": 9,
              "duration": 0.4270833333333333
            },
            {
              "pitch": 38,
              "velocity": 117,
              "position": 9.5,
              "duration": 0.23958333333333334
            },
            {
              "pitch": 40,
              "velocity": 79,
              "position": 9.75,
              "duration": 0.21875
            },
            {
              "pitch": 36,
              "velocity": 115,
              "position": 10,
              "duration": 0.4791666666666667
            },
            {
              "pitch": 36,
              "velocity": 99,
              "position": 10.75,
              "duration": 0.0625
            },
            {
              "pitch": 31,
              "velocity": 118,
              "position": 11,
              "duration": 0.46875
            },
            {
              "pitch": 31,
              "velocity": 97,
              "position": 11.75,
              "duration": 0.020833333333333332
            },
            {
              "pitch": 36,
              "velocity": 118,
              "position": 12,
              "duration": 0.4791666666666667
            },
            {
              "pitch": 36,
              "velocity": 100,
              "position": 12.75,
              "duration": 0.052083333333333336
            },
            {
              "pitch": 31,
              "velocity": 119,
              "position": 13,
              "duration": 0.46875
            },
            {
              "pitch": 31,
              "velocity": 98,
              "position": 13.75,
              "duration": 0.03125
            },
            {
              "pitch": 36,
              "velocity": 119,
              "position": 14,
              "duration": 0.5104166666666666
            },
            {
              "pitch": 36,
              "velocity": 100,
              "position": 14.75,
              "duration": 0.052083333333333336
            },
            {
              "pitch": 31,
              "velocity": 119,
              "position": 15,
              "duration": 0.22916666666666666
            },
            {
              "pitch": 36,
              "velocity": 101,
              "position": 15.25,
              "duration": 0.1875
            },
            {
              "pitch": 33,
              "velocity": 115,
              "position": 15.5,
              "duration": 0.46875
            }
          ]
        },
        "12": {
          "ctab": {
            "srcChannel": 12,
            "name": "Track 13",
            "accType": "CHORD2",
            "editable": false,
            "mutedNotes": [],
            "mutedChords": [],
            "autoStart": false,
            "sourceChordNote": 0,
            "sourceChordType": "Maj7",
            "ctb2Low": null,
            "ctb2Main": {
              "ntr": "ROOT_TRANSPOSITION",
              "ntt": "CHORD",
              "bassOn": false,
              "chordRootUpperLimit": 6,
              "noteLowLimit": 0,
              "noteHighLimit": 79,
              "rtr": "STOP"
            },
            "ctb2High": null
          },
          "notes": [
            {
              "pitch": 55,
              "velocity": 73,
              "position": 0.010416666666666666,
              "duration": 0.15625
            },
            {
              "pitch": 48,
              "velocity": 73,
              "position": 0,
              "duration": 0.17708333333333334
            },
            {
              "pitch": 48,
              "velocity": 38,
              "position": 0.28125,
              "duration": 0.08333333333333333
            },
            {
              "pitch": 55,
              "velocity": 48,
              "position": 0.2708333333333333,
              "duration": 0.10416666666666667
            },
            {
              "pitch": 48,
              "velocity": 64,
              "position": 0.5104166666666666,
              "duration": 0.13541666666666666
            },
            {
              "pitch": 57,
              "velocity": 67,
              "position": 0.5208333333333334,
              "duration": 0.125
            },
            {
              "pitch": 48,
              "velocity": 48,
              "position": 0.7604166666666666,
              "duration": 0.08333333333333333
            },
            {
              "pitch": 57,
              "velocity": 55,
              "position": 0.7708333333333334,
              "duration": 0.08333333333333333
            },
            {
              "pitch": 84,
              "velocity": 84,
              "position": 1.0104166666666667,
              "duration": 0.09375
            },
            {
              "pitch": 76,
              "velocity": 102,
              "position": 1.0104166666666667,
              "duration": 0.10416666666666667
            },
            {
              "pitch": 55,
              "velocity": 84,
              "position": 1.0208333333333333,
              "duration": 0.10416666666666667
            },
            {
              "pitch": 48,
              "velocity": 58,
              "position": 1.0104166666666667,
              "duration": 0.13541666666666666
            },
            {
              "pitch": 55,
              "velocity": 44,
              "position": 1.28125,
              "duration": 0.08333333333333333
            },
            {
              "pitch": 48,
              "velocity": 29,
              "position": 1.28125,
              "duration": 0.08333333333333333
            },
            {
              "pitch": 57,
              "velocity": 73,
              "position": 1.5208333333333333,
              "duration": 0.20833333333333334
            },
            {
              "pitch": 48,
              "velocity": 55,
              "position": 1.5208333333333333,
              "duration": 0.34375
            },
            {
              "pitch": 55,
              "velocity": 31,
              "position": 1.8020833333333333,
              "duration": 0.0625
            },
            {
              "pitch": 84,
              "velocity": 89,
              "position": 2.0208333333333335,
              "duration": 0.08333333333333333
            },
            {
              "pitch": 76,
              "velocity": 102,
              "position": 2.0208333333333335,
              "duration": 0.09375
            },
            {
              "pitch": 55,
              "velocity": 73,
              "position": 2.0104166666666665,
              "duration": 0.15625
            },
            {
              "pitch": 48,
              "velocity": 61,
              "position": 2.0208333333333335,
              "duration": 0.15625
            },
            {
              "pitch": 48,
              "velocity": 39,
              "position": 2.2916666666666665,
              "duration": 0.08333333333333333
            },
            {
              "pitch": 55,
              "velocity": 55,
              "position": 2.28125,
              "duration": 0.10416666666666667
            },
            {
              "pitch": 57,
              "velocity": 84,
              "position": 2.5208333333333335,
              "duration": 0.14583333333333334
            },
            {
              "pitch": 48,
              "velocity": 64,
              "position": 2.5208333333333335,
              "duration": 0.3229166666666667
            },
            {
              "pitch": 84,
              "velocity": 93,
              "position": 2.7604166666666665,
              "duration": 0.08333333333333333
            },
            {
              "pitch": 76,
              "velocity": 102,
              "position": 2.7708333333333335,
              "duration": 0.08333333333333333
            },
            {
              "pitch": 55,
              "velocity": 50,
              "position": 2.75,
              "duration": 0.11458333333333333
            },
            {
              "pitch": 55,
              "velocity": 73,
              "position": 3.0104166666666665,
              "duration": 0.11458333333333333
            },
            {
              "pitch": 48,
              "velocity": 58,
              "position": 3.0104166666666665,
              "duration": 0.13541666666666666
            },
            {
              "pitch": 48,
              "velocity": 41,
              "position": 3.2604166666666665,
              "duration": 0.08333333333333333
            },
            {
              "pitch": 55,
              "velocity": 55,
              "position": 3.25,
              "duration": 0.10416666666666667
            },
            {
              "pitch": 57,
              "velocity": 70,
              "position": 3.5104166666666665,
              "duration": 0.13541666666666666
            },
            {
              "pitch": 48,
              "velocity": 64,
              "position": 3.5104166666666665,
              "duration": 0.16666666666666666
            },
            {
              "pitch": 48,
              "velocity": 39,
              "position": 3.78125,
              "duration": 0.11458333333333333
            },
            {
              "pitch": 57,
              "velocity": 55,
              "position": 3.78125,
              "duration": 0.11458333333333333
            },
            {
              "pitch": 48,
              "velocity": 64,
              "position": 4.010416666666667,
              "duration": 0.13541666666666666
            },
            {
              "pitch": 55,
              "velocity": 77,
              "position": 4.010416666666667,
              "duration": 0.16666666666666666
            },
            {
              "pitch": 55,
              "velocity": 58,
              "position": 4.28125,
              "duration": 0.10416666666666667
            },
            {
              "pitch": 48,
              "velocity": 55,
              "position": 4.28125,
              "duration": 0.11458333333333333
            },
            {
              "pitch": 57,
              "velocity": 67,
              "position": 4.510416666666667,
              "duration": 0.22916666666666666
            },
            {
              "pitch": 71,
              "velocity": 48,
              "position": 4.760416666666667,
              "duration": 0.07291666666666667
            },
            {
              "pitch": 55,
              "velocity": 33,
              "position": 4.78125,
              "duration": 0.07291666666666667
            },
            {
              "pitch": 48,
              "velocity": 58,
              "position": 4.520833333333333,
              "duration": 0.34375
            },
            {
              "pitch": 79,
              "velocity": 107,
              "position": 5.010416666666667,
              "duration": 0.08333333333333333
            },
            {
              "pitch": 71,
              "velocity": 93,
              "position": 5.010416666666667,
              "duration": 0.09375
            },
            {
              "pitch": 84,
              "velocity": 93,
              "position": 5,
              "duration": 0.11458333333333333
            },
            {
              "pitch": 55,
              "velocity": 81,
              "position": 5.010416666666667,
              "duration": 0.13541666666666666
            },
            {
              "pitch": 48,
              "velocity": 64,
              "position": 5.020833333333333,
              "duration": 0.125
            },
            {
              "pitch": 55,
              "velocity": 67,
              "position": 5.270833333333333,
              "duration": 0.10416666666666667
            },
            {
              "pitch": 48,
              "velocity": 53,
              "position": 5.270833333333333,
              "duration": 0.11458333333333333
            },
            {
              "pitch": 57,
              "velocity": 77,
              "position": 5.520833333333333,
              "duration": 0.14583333333333334
            },
            {
              "pitch": 55,
              "velocity": 34,
              "position": 5.78125,
              "duration": 0.08333333333333333
            },
            {
              "pitch": 48,
              "velocity": 64,
              "position": 5.510416666666667,
              "duration": 0.3645833333333333
            },
            {
              "pitch": 79,
              "velocity": 102,
              "position": 6.010416666666667,
              "duration": 0.07291666666666667
            },
            {
              "pitch": 84,
              "velocity": 89,
              "position": 6.010416666666667,
              "duration": 0.08333333333333333
            },
            {
              "pitch": 71,
              "velocity": 70,
              "position": 6.020833333333333,
              "duration": 0.08333333333333333
            },
            {
              "pitch": 55,
              "velocity": 77,
              "position": 6.020833333333333,
              "duration": 0.13541666666666666
            },
            {
              "pitch": 48,
              "velocity": 64,
              "position": 6.03125,
              "duration": 0.13541666666666666
            },
            {
              "pitch": 55,
              "velocity": 61,
              "position": 6.28125,
              "duration": 0.09375
            },
            {
              "pitch": 48,
              "velocity": 41,
              "position": 6.291666666666667,
              "duration": 0.08333333333333333
            },
            {
              "pitch": 57,
              "velocity": 73,
              "position": 6.520833333333333,
              "duration": 0.13541666666666666
            },
            {
              "pitch": 48,
              "velocity": 67,
              "position": 6.510416666666667,
              "duration": 0.3229166666666667
            },
            {
              "pitch": 79,
              "velocity": 107,
              "position": 6.770833333333333,
              "duration": 0.0625
            },
            {
              "pitch": 71,
              "velocity": 84,
              "position": 6.78125,
              "duration": 0.052083333333333336
            },
            {
              "pitch": 84,
              "velocity": 84,
              "position": 6.770833333333333,
              "duration": 0.07291666666666667
            },
            {
              "pitch": 55,
              "velocity": 58,
              "position": 6.739583333333333,
              "duration": 0.11458333333333333
            },
            {
              "pitch": 55,
              "velocity": 77,
              "position": 6.989583333333333,
              "duration": 0.13541666666666666
            },
            {
              "pitch": 48,
              "velocity": 55,
              "position": 6.989583333333333,
              "duration": 0.15625
            },
            {
              "pitch": 79,
              "velocity": 102,
              "position": 7.28125,
              "duration": 0.052083333333333336
            },
            {
              "pitch": 71,
              "velocity": 84,
              "position": 7.28125,
              "duration": 0.0625
            },
            {
              "pitch": 84,
              "velocity": 89,
              "position": 7.28125,
              "duration": 0.07291666666666667
            },
            {
              "pitch": 55,
              "velocity": 67,
              "position": 7.25,
              "duration": 0.13541666666666666
            },
            {
              "pitch": 48,
              "velocity": 67,
              "position": 7.25,
              "duration": 0.15625
            },
            {
              "pitch": 57,
              "velocity": 67,
              "position": 7.489583333333333,
              "duration": 0.14583333333333334
            },
            {
              "pitch": 48,
              "velocity": 64,
              "position": 7.489583333333333,
              "duration": 0.17708333333333334
            },
            {
              "pitch": 48,
              "velocity": 15,
              "position": 7.71875,
              "duration": 0.16666666666666666
            },
            {
              "pitch": 55,
              "velocity": 58,
              "position": 7.729166666666667,
              "duration": 0.15625
            },
            {
              "pitch": 55,
              "velocity": 70,
              "position": 8,
              "duration": 0.16666666666666666
            },
            {
              "pitch": 48,
              "velocity": 70,
              "position": 8,
              "duration": 0.17708333333333334
            },
            {
              "pitch": 71,
              "velocity": 44,
              "position": 8.28125,
              "duration": 0.041666666666666664
            },
            {
              "pitch": 48,
              "velocity": 46,
              "position": 8.260416666666666,
              "duration": 0.11458333333333333
            },
            {
              "pitch": 55,
              "velocity": 38,
              "position": 8.25,
              "duration": 0.13541666666666666
            },
            {
              "pitch": 57,
              "velocity": 67,
              "position": 8.489583333333334,
              "duration": 0.16666666666666666
            },
            {
              "pitch": 48,
              "velocity": 64,
              "position": 8.489583333333334,
              "duration": 0.1875
            },
            {
              "pitch": 55,
              "velocity": 46,
              "position": 8.760416666666666,
              "duration": 0.09375
            },
            {
              "pitch": 48,
              "velocity": 20,
              "position": 8.760416666666666,
              "duration": 0.09375
            },
            {
              "pitch": 71,
              "velocity": 84,
              "position": 8.78125,
              "duration": 0.09375
            },
            {
              "pitch": 84,
              "velocity": 53,
              "position": 8.78125,
              "duration": 0.09375
            },
            {
              "pitch": 75,
              "velocity": 89,
              "position": 9.020833333333334,
              "duration": 0.10416666666666667
            },
            {
              "pitch": 55,
              "velocity": 77,
              "position": 9,
              "duration": 0.15625
            },
            {
              "pitch": 48,
              "velocity": 73,
              "position": 9.010416666666666,
              "duration": 0.16666666666666666
            },
            {
              "pitch": 76,
              "velocity": 81,
              "position": 9.270833333333334,
              "duration": 0.09375
            },
            {
              "pitch": 55,
              "velocity": 61,
              "position": 9.270833333333334,
              "duration": 0.10416666666666667
            },
            {
              "pitch": 48,
              "velocity": 32,
              "position": 9.28125,
              "duration": 0.09375
            },
            {
              "pitch": 84,
              "velocity": 89,
              "position": 9.510416666666666,
              "duration": 0.07291666666666667
            },
            {
              "pitch": 57,
              "velocity": 67,
              "position": 9.520833333333334,
              "duration": 0.13541666666666666
            },
            {
              "pitch": 75,
              "velocity": 74,
              "position": 9.770833333333334,
              "duration": 0.08333333333333333
            },
            {
              "pitch": 48,
              "velocity": 70,
              "position": 9.510416666666666,
              "duration": 0.3645833333333333
            },
            {
              "pitch": 55,
              "velocity": 41,
              "position": 9.770833333333334,
              "duration": 0.10416666666666667
            },
            {
              "pitch": 76,
              "velocity": 77,
              "position": 10.010416666666666,
              "duration": 0.09375
            },
            {
              "pitch": 55,
              "velocity": 70,
              "position": 10.010416666666666,
              "duration": 0.14583333333333334
            },
            {
              "pitch": 48,
              "velocity": 67,
              "position": 10.020833333333334,
              "duration": 0.15625
            },
            {
              "pitch": 79,
              "velocity": 89,
              "position": 10.270833333333334,
              "duration": 0.07291666666666667
            },
            {
              "pitch": 84,
              "velocity": 81,
              "position": 10.260416666666666,
              "duration": 0.09375
            },
            {
              "pitch": 71,
              "velocity": 64,
              "position": 10.28125,
              "duration": 0.07291666666666667
            },
            {
              "pitch": 55,
              "velocity": 55,
              "position": 10.270833333333334,
              "duration": 0.09375
            },
            {
              "pitch": 48,
              "velocity": 35,
              "position": 10.28125,
              "duration": 0.08333333333333333
            },
            {
              "pitch": 75,
              "velocity": 94,
              "position": 10.520833333333334,
              "duration": 0.09375
            },
            {
              "pitch": 57,
              "velocity": 58,
              "position": 10.510416666666666,
              "duration": 0.13541666666666666
            },
            {
              "pitch": 55,
              "velocity": 30,
              "position": 10.78125,
              "duration": 0.07291666666666667
            },
            {
              "pitch": 48,
              "velocity": 67,
              "position": 10.510416666666666,
              "duration": 0.3541666666666667
            },
            {
              "pitch": 76,
              "velocity": 70,
              "position": 10.78125,
              "duration": 0.08333333333333333
            },
            {
              "pitch": 79,
              "velocity": 102,
              "position": 11.010416666666666,
              "duration": 0.09375
            },
            {
              "pitch": 84,
              "velocity": 73,
              "position": 11.020833333333334,
              "duration": 0.08333333333333333
            },
            {
              "pitch": 71,
              "velocity": 67,
              "position": 11.020833333333334,
              "duration": 0.10416666666666667
            },
            {
              "pitch": 55,
              "velocity": 73,
              "position": 11.010416666666666,
              "duration": 0.125
            },
            {
              "pitch": 48,
              "velocity": 61,
              "position": 11.010416666666666,
              "duration": 0.13541666666666666
            },
            {
              "pitch": 71,
              "velocity": 42,
              "position": 11.302083333333334,
              "duration": 0.052083333333333336
            },
            {
              "pitch": 55,
              "velocity": 55,
              "position": 11.270833333333334,
              "duration": 0.09375
            },
            {
              "pitch": 48,
              "velocity": 55,
              "position": 11.260416666666666,
              "duration": 0.11458333333333333
            },
            {
              "pitch": 79,
              "velocity": 24,
              "position": 11.520833333333334,
              "duration": 0.03125
            },
            {
              "pitch": 71,
              "velocity": 41,
              "position": 11.510416666666666,
              "duration": 0.09375
            },
            {
              "pitch": 57,
              "velocity": 67,
              "position": 11.520833333333334,
              "duration": 0.125
            },
            {
              "pitch": 48,
              "velocity": 61,
              "position": 11.510416666666666,
              "duration": 0.34375
            },
            {
              "pitch": 55,
              "velocity": 42,
              "position": 11.770833333333334,
              "duration": 0.08333333333333333
            },
            {
              "pitch": 71,
              "velocity": 55,
              "position": 11.770833333333334,
              "duration": 0.11458333333333333
            },
            {
              "pitch": 55,
              "velocity": 73,
              "position": 12.020833333333334,
              "duration": 0.11458333333333333
            },
            {
              "pitch": 48,
              "velocity": 61,
              "position": 12.020833333333334,
              "duration": 0.13541666666666666
            },
            {
              "pitch": 55,
              "velocity": 58,
              "position": 12.270833333333334,
              "duration": 0.09375
            },
            {
              "pitch": 71,
              "velocity": 50,
              "position": 12.28125,
              "duration": 0.10416666666666667
            },
            {
              "pitch": 48,
              "velocity": 53,
              "position": 12.260416666666666,
              "duration": 0.13541666666666666
            },
            {
              "pitch": 79,
              "velocity": 64,
              "position": 12.520833333333334,
              "duration": 0.08333333333333333
            },
            {
              "pitch": 76,
              "velocity": 84,
              "position": 12.520833333333334,
              "duration": 0.10416666666666667
            },
            {
              "pitch": 57,
              "velocity": 70,
              "position": 12.520833333333334,
              "duration": 0.14583333333333334
            },
            {
              "pitch": 76,
              "velocity": 81,
              "position": 12.760416666666666,
              "duration": 0.07291666666666667
            },
            {
              "pitch": 48,
              "velocity": 70,
              "position": 12.510416666666666,
              "duration": 0.3333333333333333
            },
            {
              "pitch": 81,
              "velocity": 81,
              "position": 12.760416666666666,
              "duration": 0.08333333333333333
            },
            {
              "pitch": 71,
              "velocity": 42,
              "position": 12.78125,
              "duration": 0.07291666666666667
            },
            {
              "pitch": 55,
              "velocity": 14,
              "position": 12.802083333333334,
              "duration": 0.052083333333333336
            },
            {
              "pitch": 75,
              "velocity": 94,
              "position": 13,
              "duration": 0.07291666666666667
            },
            {
              "pitch": 79,
              "velocity": 58,
              "position": 13.010416666666666,
              "duration": 0.0625
            },
            {
              "pitch": 55,
              "velocity": 64,
              "position": 13.020833333333334,
              "duration": 0.125
            },
            {
              "pitch": 48,
              "velocity": 61,
              "position": 13.020833333333334,
              "duration": 0.13541666666666666
            },
            {
              "pitch": 81,
              "velocity": 61,
              "position": 13.135416666666666,
              "duration": 0.0625
            },
            {
              "pitch": 79,
              "velocity": 58,
              "position": 13.145833333333334,
              "duration": 0.11458333333333333
            },
            {
              "pitch": 76,
              "velocity": 44,
              "position": 13.166666666666666,
              "duration": 0.13541666666666666
            },
            {
              "pitch": 55,
              "velocity": 53,
              "position": 13.270833333333334,
              "duration": 0.10416666666666667
            },
            {
              "pitch": 48,
              "velocity": 39,
              "position": 13.270833333333334,
              "duration": 0.11458333333333333
            },
            {
              "pitch": 71,
              "velocity": 55,
              "position": 13.28125,
              "duration": 0.10416666666666667
            },
            {
              "pitch": 76,
              "velocity": 37,
              "position": 13.510416666666666,
              "duration": 0.0625
            },
            {
              "pitch": 69,
              "velocity": 93,
              "position": 13.510416666666666,
              "duration": 0.13541666666666666
            },
            {
              "pitch": 57,
              "velocity": 77,
              "position": 13.510416666666666,
              "duration": 0.14583333333333334
            },
            {
              "pitch": 48,
              "velocity": 73,
              "position": 13.510416666666666,
              "duration": 0.3333333333333333
            },
            {
              "pitch": 71,
              "velocity": 81,
              "position": 13.770833333333334,
              "duration": 0.08333333333333333
            },
            {
              "pitch": 55,
              "velocity": 53,
              "position": 13.760416666666666,
              "duration": 0.10416666666666667
            },
            {
              "pitch": 55,
              "velocity": 70,
              "position": 14.010416666666666,
              "duration": 0.14583333333333334
            },
            {
              "pitch": 48,
              "velocity": 55,
              "position": 14.010416666666666,
              "duration": 0.15625
            },
            {
              "pitch": 76,
              "velocity": 73,
              "position": 14.270833333333334,
              "duration": 0.052083333333333336
            },
            {
              "pitch": 67,
              "velocity": 70,
              "position": 14.270833333333334,
              "duration": 0.0625
            },
            {
              "pitch": 55,
              "velocity": 42,
              "position": 14.260416666666666,
              "duration": 0.10416666666666667
            },
            {
              "pitch": 48,
              "velocity": 32,
              "position": 14.270833333333334,
              "duration": 0.10416666666666667
            },
            {
              "pitch": 57,
              "velocity": 61,
              "position": 14.5,
              "duration": 0.20833333333333334
            },
            {
              "pitch": 67,
              "velocity": 22,
              "position": 14.739583333333334,
              "duration": 0.0625
            },
            {
              "pitch": 55,
              "velocity": 38,
              "position": 14.75,
              "duration": 0.09375
            },
            {
              "pitch": 48,
              "velocity": 67,
              "position": 14.5,
              "duration": 0.3541666666666667
            },
            {
              "pitch": 67,
              "velocity": 64,
              "position": 15,
              "duration": 0.08333333333333333
            },
            {
              "pitch": 76,
              "velocity": 81,
              "position": 14.989583333333334,
              "duration": 0.10416666666666667
            },
            {
              "pitch": 55,
              "velocity": 67,
              "position": 15,
              "duration": 0.15625
            },
            {
              "pitch": 48,
              "velocity": 70,
              "position": 15,
              "duration": 0.16666666666666666
            },
            {
              "pitch": 71,
              "velocity": 53,
              "position": 15.260416666666666,
              "duration": 0.041666666666666664
            },
            {
              "pitch": 64,
              "velocity": 67,
              "position": 15.260416666666666,
              "duration": 0.052083333333333336
            },
            {
              "pitch": 55,
              "velocity": 44,
              "position": 15.260416666666666,
              "duration": 0.13541666666666666
            },
            {
              "pitch": 48,
              "velocity": 53,
              "position": 15.270833333333334,
              "duration": 0.125
            },
            {
              "pitch": 57,
              "velocity": 67,
              "position": 15.489583333333334,
              "duration": 0.16666666666666666
            },
            {
              "pitch": 55,
              "velocity": 61,
              "position": 15.760416666666666,
              "duration": 0.125
            },
            {
              "pitch": 48,
              "velocity": 61,
              "position": 15.489583333333334,
              "duration": 0.40625
            }
          ]
        },
        "13": {
          "ctab": {
            "srcChannel": 13,
            "name": "Track 14",
            "accType": "PAD",
            "editable": false,
            "mutedNotes": [],
            "mutedChords": [],
            "autoStart": false,
            "sourceChordNote": 0,
            "sourceChordType": "Maj7",
            "ctb2Low": null,
            "ctb2Main": {
              "ntr": "ROOT_FIXED",
              "ntt": "CHORD",
              "bassOn": false,
              "chordRootUpperLimit": 6,
              "noteLowLimit": 0,
              "noteHighLimit": 127,
              "rtr": "RETRIGGER"
            },
            "ctb2High": null
          },
          "notes": [
            {
              "pitch": 64,
              "velocity": 84,
              "position": 0.041666666666666664,
              "duration": 3.8229166666666665
            },
            {
              "pitch": 59,
              "velocity": 82,
              "position": 0.041666666666666664,
              "duration": 3.8229166666666665
            },
            {
              "pitch": 67,
              "velocity": 86,
              "position": 4.041666666666667,
              "duration": 3.2291666666666665
            },
            {
              "pitch": 64,
              "velocity": 85,
              "position": 4.041666666666667,
              "duration": 3.2291666666666665
            },
            {
              "pitch": 64,
              "velocity": 83,
              "position": 8.052083333333334,
              "duration": 3.8020833333333335
            },
            {
              "pitch": 59,
              "velocity": 80,
              "position": 8.052083333333334,
              "duration": 3.8229166666666665
            },
            {
              "pitch": 64,
              "velocity": 84,
              "position": 12.03125,
              "duration": 3.3541666666666665
            },
            {
              "pitch": 59,
              "velocity": 83,
              "position": 12.041666666666666,
              "duration": 3.34375
            }
          ]
        },
        "14": {
          "ctab": {
            "srcChannel": 14,
            "name": "Track 15",
            "accType": "PHRASE1",
            "editable": false,
            "mutedNotes": [],
            "mutedChords": [],
            "autoStart": false,
            "sourceChordNote": 0,
            "sourceChordType": "Maj7",
            "ctb2Low": null,
            "ctb2Main": {
              "ntr": "ROOT_TRANSPOSITION",
              "ntt": "CHORD",
              "bassOn": false,
              "chordRootUpperLimit": 6,
              "noteLowLimit": 0,
              "noteHighLimit": 127,
              "rtr": "PITCH_SHIFT"
            },
            "ctb2High": null
          },
          "notes": [
            {
              "pitch": 48,
              "velocity": 83,
              "position": 0,
              "duration": 0.11458333333333333
            },
            {
              "pitch": 55,
              "velocity": 86,
              "position": 0,
              "duration": 0.4166666666666667
            },
            {
              "pitch": 48,
              "velocity": 75,
              "position": 0.22916666666666666,
              "duration": 0.23958333333333334
            },
            {
              "pitch": 48,
              "velocity": 21,
              "position": 0.5208333333333334,
              "duration": 0.0625
            },
            {
              "pitch": 51,
              "velocity": 111,
              "position": 0.4895833333333333,
              "duration": 0.25
            },
            {
              "pitch": 59,
              "velocity": 72,
              "position": 0,
              "duration": 0.8020833333333334
            },
            {
              "pitch": 52,
              "velocity": 82,
              "position": 0.7708333333333334,
              "duration": 0.15625
            },
            {
              "pitch": 48,
              "velocity": 89,
              "position": 0.9895833333333334,
              "duration": 0.16666666666666666
            },
            {
              "pitch": 59,
              "velocity": 82,
              "position": 0.9895833333333334,
              "duration": 0.23958333333333334
            },
            {
              "pitch": 55,
              "velocity": 98,
              "position": 0.9895833333333334,
              "duration": 0.3333333333333333
            },
            {
              "pitch": 48,
              "velocity": 58,
              "position": 1.25,
              "duration": 0.125
            },
            {
              "pitch": 57,
              "velocity": 107,
              "position": 1.5,
              "duration": 0.17708333333333334
            },
            {
              "pitch": 48,
              "velocity": 86,
              "position": 1.5,
              "duration": 0.2604166666666667
            },
            {
              "pitch": 55,
              "velocity": 69,
              "position": 1.7708333333333333,
              "duration": 0.17708333333333334
            },
            {
              "pitch": 48,
              "velocity": 94,
              "position": 2,
              "duration": 0.15625
            },
            {
              "pitch": 55,
              "velocity": 43,
              "position": 2.0104166666666665,
              "duration": 0.34375
            },
            {
              "pitch": 48,
              "velocity": 75,
              "position": 2.2395833333333335,
              "duration": 0.1875
            },
            {
              "pitch": 51,
              "velocity": 105,
              "position": 2.4895833333333335,
              "duration": 0.23958333333333334
            },
            {
              "pitch": 59,
              "velocity": 89,
              "position": 1.5,
              "duration": 1.2395833333333333
            },
            {
              "pitch": 52,
              "velocity": 75,
              "position": 2.75,
              "duration": 0.17708333333333334
            },
            {
              "pitch": 48,
              "velocity": 86,
              "position": 2.9791666666666665,
              "duration": 0.15625
            },
            {
              "pitch": 59,
              "velocity": 86,
              "position": 2.9791666666666665,
              "duration": 0.28125
            },
            {
              "pitch": 55,
              "velocity": 82,
              "position": 2.9791666666666665,
              "duration": 0.3854166666666667
            },
            {
              "pitch": 48,
              "velocity": 69,
              "position": 3.25,
              "duration": 0.13541666666666666
            },
            {
              "pitch": 57,
              "velocity": 94,
              "position": 3.5104166666666665,
              "duration": 0.17708333333333334
            },
            {
              "pitch": 48,
              "velocity": 82,
              "position": 3.5104166666666665,
              "duration": 0.2916666666666667
            },
            {
              "pitch": 59,
              "velocity": 89,
              "position": 3.5,
              "duration": 0.4270833333333333
            },
            {
              "pitch": 55,
              "velocity": 82,
              "position": 3.7604166666666665,
              "duration": 0.16666666666666666
            },
            {
              "pitch": 48,
              "velocity": 94,
              "position": 4,
              "duration": 0.17708333333333334
            },
            {
              "pitch": 48,
              "velocity": 75,
              "position": 4.25,
              "duration": 0.21875
            },
            {
              "pitch": 51,
              "velocity": 99,
              "position": 4.5,
              "duration": 0.22916666666666666
            },
            {
              "pitch": 59,
              "velocity": 71,
              "position": 4.010416666666667,
              "duration": 0.8541666666666666
            },
            {
              "pitch": 55,
              "velocity": 71,
              "position": 4.020833333333333,
              "duration": 0.8541666666666666
            },
            {
              "pitch": 52,
              "velocity": 75,
              "position": 4.75,
              "duration": 0.1875
            },
            {
              "pitch": 48,
              "velocity": 86,
              "position": 4.979166666666667,
              "duration": 0.16666666666666666
            },
            {
              "pitch": 59,
              "velocity": 82,
              "position": 4.989583333333333,
              "duration": 0.22916666666666666
            },
            {
              "pitch": 55,
              "velocity": 78,
              "position": 4.979166666666667,
              "duration": 0.2604166666666667
            },
            {
              "pitch": 48,
              "velocity": 55,
              "position": 5.239583333333333,
              "duration": 0.14583333333333334
            },
            {
              "pitch": 57,
              "velocity": 98,
              "position": 5.510416666666667,
              "duration": 0.17708333333333334
            },
            {
              "pitch": 48,
              "velocity": 69,
              "position": 5.510416666666667,
              "duration": 0.25
            },
            {
              "pitch": 59,
              "velocity": 94,
              "position": 5.510416666666667,
              "duration": 0.4375
            },
            {
              "pitch": 55,
              "velocity": 66,
              "position": 5.770833333333333,
              "duration": 0.19791666666666666
            },
            {
              "pitch": 48,
              "velocity": 94,
              "position": 6,
              "duration": 0.34375
            },
            {
              "pitch": 55,
              "velocity": 78,
              "position": 6.25,
              "duration": 0.20833333333333334
            },
            {
              "pitch": 59,
              "velocity": 82,
              "position": 6.239583333333333,
              "duration": 0.3645833333333333
            },
            {
              "pitch": 48,
              "velocity": 78,
              "position": 6.5,
              "duration": 0.14583333333333334
            },
            {
              "pitch": 48,
              "velocity": 86,
              "position": 6.75,
              "duration": 0.19791666666666666
            },
            {
              "pitch": 51,
              "velocity": 105,
              "position": 7,
              "duration": 0.08333333333333333
            },
            {
              "pitch": 52,
              "velocity": 86,
              "position": 7.09375,
              "duration": 0.10416666666666667
            },
            {
              "pitch": 55,
              "velocity": 89,
              "position": 7.229166666666667,
              "duration": 0.34375
            },
            {
              "pitch": 59,
              "velocity": 89,
              "position": 7.229166666666667,
              "duration": 0.375
            },
            {
              "pitch": 48,
              "velocity": 94,
              "position": 7.46875,
              "duration": 0.3125
            },
            {
              "pitch": 55,
              "velocity": 78,
              "position": 7.760416666666667,
              "duration": 0.19791666666666666
            },
            {
              "pitch": 59,
              "velocity": 72,
              "position": 7.760416666666667,
              "duration": 0.19791666666666666
            },
            {
              "pitch": 48,
              "velocity": 94,
              "position": 8,
              "duration": 0.15625
            },
            {
              "pitch": 59,
              "velocity": 71,
              "position": 8.010416666666666,
              "duration": 0.4375
            },
            {
              "pitch": 55,
              "velocity": 71,
              "position": 8.020833333333334,
              "duration": 0.4375
            },
            {
              "pitch": 48,
              "velocity": 69,
              "position": 8.229166666666666,
              "duration": 0.3125
            },
            {
              "pitch": 59,
              "velocity": 32,
              "position": 8.520833333333334,
              "duration": 0.11458333333333333
            },
            {
              "pitch": 51,
              "velocity": 111,
              "position": 8.479166666666666,
              "duration": 0.22916666666666666
            },
            {
              "pitch": 52,
              "velocity": 69,
              "position": 8.739583333333334,
              "duration": 0.2916666666666667
            },
            {
              "pitch": 48,
              "velocity": 82,
              "position": 8.979166666666666,
              "duration": 0.16666666666666666
            },
            {
              "pitch": 59,
              "velocity": 69,
              "position": 8.979166666666666,
              "duration": 0.2916666666666667
            },
            {
              "pitch": 55,
              "velocity": 94,
              "position": 8.979166666666666,
              "duration": 0.34375
            },
            {
              "pitch": 48,
              "velocity": 66,
              "position": 9.25,
              "duration": 0.14583333333333334
            },
            {
              "pitch": 57,
              "velocity": 98,
              "position": 9.510416666666666,
              "duration": 0.15625
            },
            {
              "pitch": 48,
              "velocity": 75,
              "position": 9.510416666666666,
              "duration": 0.22916666666666666
            },
            {
              "pitch": 55,
              "velocity": 63,
              "position": 9.770833333333334,
              "duration": 0.1875
            },
            {
              "pitch": 48,
              "velocity": 98,
              "position": 9.989583333333334,
              "duration": 0.17708333333333334
            },
            {
              "pitch": 59,
              "velocity": 94,
              "position": 9.510416666666666,
              "duration": 0.8541666666666666
            },
            {
              "pitch": 48,
              "velocity": 72,
              "position": 10.25,
              "duration": 0.17708333333333334
            },
            {
              "pitch": 59,
              "velocity": 58,
              "position": 10.479166666666666,
              "duration": 0.19791666666666666
            },
            {
              "pitch": 51,
              "velocity": 111,
              "position": 10.5,
              "duration": 0.22916666666666666
            },
            {
              "pitch": 52,
              "velocity": 69,
              "position": 10.760416666666666,
              "duration": 0.16666666666666666
            },
            {
              "pitch": 48,
              "velocity": 78,
              "position": 10.989583333333334,
              "duration": 0.15625
            },
            {
              "pitch": 59,
              "velocity": 78,
              "position": 10.989583333333334,
              "duration": 0.3541666666666667
            },
            {
              "pitch": 55,
              "velocity": 89,
              "position": 10.989583333333334,
              "duration": 0.3958333333333333
            },
            {
              "pitch": 48,
              "velocity": 63,
              "position": 11.260416666666666,
              "duration": 0.125
            },
            {
              "pitch": 57,
              "velocity": 94,
              "position": 11.5,
              "duration": 0.1875
            },
            {
              "pitch": 48,
              "velocity": 86,
              "position": 11.5,
              "duration": 0.2708333333333333
            },
            {
              "pitch": 59,
              "velocity": 94,
              "position": 11.5,
              "duration": 0.3958333333333333
            },
            {
              "pitch": 55,
              "velocity": 66,
              "position": 11.791666666666666,
              "duration": 0.10416666666666667
            },
            {
              "pitch": 55,
              "velocity": 75,
              "position": 12.020833333333334,
              "duration": 0.13541666666666666
            },
            {
              "pitch": 48,
              "velocity": 94,
              "position": 12,
              "duration": 0.19791666666666666
            },
            {
              "pitch": 55,
              "velocity": 58,
              "position": 12.302083333333334,
              "duration": 0.08333333333333333
            },
            {
              "pitch": 48,
              "velocity": 75,
              "position": 12.270833333333334,
              "duration": 0.3958333333333333
            },
            {
              "pitch": 51,
              "velocity": 99,
              "position": 12.510416666666666,
              "duration": 0.21875
            },
            {
              "pitch": 52,
              "velocity": 75,
              "position": 12.760416666666666,
              "duration": 0.1875
            },
            {
              "pitch": 48,
              "velocity": 86,
              "position": 12.989583333333334,
              "duration": 0.15625
            },
            {
              "pitch": 55,
              "velocity": 86,
              "position": 12.989583333333334,
              "duration": 0.3541666666666667
            },
            {
              "pitch": 48,
              "velocity": 55,
              "position": 13.25,
              "duration": 0.125
            },
            {
              "pitch": 55,
              "velocity": 33,
              "position": 13.53125,
              "duration": 0.020833333333333332
            },
            {
              "pitch": 57,
              "velocity": 98,
              "position": 13.489583333333334,
              "duration": 0.1875
            },
            {
              "pitch": 48,
              "velocity": 82,
              "position": 13.5,
              "duration": 0.3020833333333333
            },
            {
              "pitch": 55,
              "velocity": 63,
              "position": 13.760416666666666,
              "duration": 0.1875
            },
            {
              "pitch": 59,
              "velocity": 86,
              "position": 13.5,
              "duration": 0.5
            },
            {
              "pitch": 48,
              "velocity": 98,
              "position": 14,
              "duration": 0.3333333333333333
            },
            {
              "pitch": 55,
              "velocity": 86,
              "position": 14.239583333333334,
              "duration": 0.19791666666666666
            },
            {
              "pitch": 59,
              "velocity": 89,
              "position": 14.25,
              "duration": 0.21875
            },
            {
              "pitch": 48,
              "velocity": 94,
              "position": 14.510416666666666,
              "duration": 0.125
            },
            {
              "pitch": 59,
              "velocity": 19,
              "position": 14.552083333333334,
              "duration": 0.20833333333333334
            },
            {
              "pitch": 48,
              "velocity": 98,
              "position": 14.770833333333334,
              "duration": 0.1875
            },
            {
              "pitch": 51,
              "velocity": 105,
              "position": 15.020833333333334,
              "duration": 0.08333333333333333
            },
            {
              "pitch": 52,
              "velocity": 86,
              "position": 15.104166666666666,
              "duration": 0.14583333333333334
            },
            {
              "pitch": 55,
              "velocity": 86,
              "position": 15.260416666666666,
              "duration": 0.3541666666666667
            },
            {
              "pitch": 59,
              "velocity": 86,
              "position": 15.260416666666666,
              "duration": 0.6666666666666666
            },
            {
              "pitch": 48,
              "velocity": 82,
              "position": 15.510416666666666,
              "duration": 0.4166666666666667
            },
            {
              "pitch": 55,
              "velocity": 78,
              "position": 15.75,
              "duration": 0.17708333333333334
            }
          ]
        }
      }
    },
    "Fill_In_CC": {
      "type": "Fill_In_CC",
      "sizeInBeats": 4,
      "channels": {
        "8": {
          "ctab": {
            "srcChannel": 8,
            "name": "Track 9",
            "accType": "RHYTHM",
            "editable": false,
            "mutedNotes": [],
            "mutedChords": [],
            "autoStart": true,
            "sourceChordNote": 0,
            "sourceChordType": "Maj7",
            "ctb2Low": null,
            "ctb2Main": {
              "ntr": "ROOT_FIXED",
              "ntt": "BYPASS",
              "bassOn": false,
              "chordRootUpperLimit": 6,
              "noteLowLimit": 0,
              "noteHighLimit": 127,
              "rtr": "PITCH_SHIFT"
            },
            "ctb2High": null
          },
          "notes": [
            {
              "pitch": 54,
              "velocity": 58,
              "position": 0.010416666666666666,
              "duration": 0.010416666666666666
            },
            {
              "pitch": 54,
              "velocity": 36,
              "position": 0.25,
              "duration": 0.010416666666666666
            },
            {
              "pitch": 54,
              "velocity": 88,
              "position": 0.5104166666666666,
              "duration": 0.010416666666666666
            },
            {
              "pitch": 54,
              "velocity": 36,
              "position": 0.75,
              "duration": 0.010416666666666666
            },
            {
              "pitch": 54,
              "velocity": 54,
              "position": 1,
              "duration": 0.010416666666666666
            },
            {
              "pitch": 54,
              "velocity": 50,
              "position": 1.25,
              "duration": 0.010416666666666666
            },
            {
              "pitch": 54,
              "velocity": 56,
              "position": 1.5104166666666667,
              "duration": 0.010416666666666666
            },
            {
              "pitch": 54,
              "velocity": 25,
              "position": 1.7395833333333333,
              "duration": 0.010416666666666666
            },
            {
              "pitch": 54,
              "velocity": 88,
              "position": 1.9895833333333333,
              "duration": 0.010416666666666666
            }
          ]
        },
        "9": {
          "ctab": {
            "srcChannel": 9,
            "name": "Track 10",
            "accType": "SUBRHYTHM",
            "editable": false,
            "mutedNotes": [],
            "mutedChords": [],
            "autoStart": true,
            "sourceChordNote": 0,
            "sourceChordType": "Maj7",
            "ctb2Low": null,
            "ctb2Main": {
              "ntr": "ROOT_FIXED",
              "ntt": "BYPASS",
              "bassOn": false,
              "chordRootUpperLimit": 6,
              "noteLowLimit": 0,
              "noteHighLimit": 127,
              "rtr": "PITCH_SHIFT"
            },
            "ctb2High": null
          },
          "notes": [
            {
              "pitch": 36,
              "velocity": 115,
              "position": 0,
              "duration": 0.010416666666666666
            },
            {
              "pitch": 40,
              "velocity": 47,
              "position": 0.010416666666666666,
              "duration": 0.010416666666666666
            },
            {
              "pitch": 54,
              "velocity": 58,
              "position": 0.010416666666666666,
              "duration": 0.010416666666666666
            },
            {
              "pitch": 54,
              "velocity": 36,
              "position": 0.25,
              "duration": 0.010416666666666666
            },
            {
              "pitch": 40,
              "velocity": 28,
              "position": 0.2604166666666667,
              "duration": 0.010416666666666666
            },
            {
              "pitch": 40,
              "velocity": 113,
              "position": 0.5,
              "duration": 0.010416666666666666
            },
            {
              "pitch": 54,
              "velocity": 88,
              "position": 0.5104166666666666,
              "duration": 0.010416666666666666
            },
            {
              "pitch": 36,
              "velocity": 56,
              "position": 0.75,
              "duration": 0.010416666666666666
            },
            {
              "pitch": 40,
              "velocity": 30,
              "position": 0.75,
              "duration": 0.010416666666666666
            },
            {
              "pitch": 54,
              "velocity": 36,
              "position": 0.75,
              "duration": 0.010416666666666666
            },
            {
              "pitch": 36,
              "velocity": 115,
              "position": 1,
              "duration": 0.010416666666666666
            },
            {
              "pitch": 54,
              "velocity": 54,
              "position": 1,
              "duration": 0.010416666666666666
            },
            {
              "pitch": 40,
              "velocity": 47,
              "position": 1.0104166666666667,
              "duration": 0.010416666666666666
            },
            {
              "pitch": 40,
              "velocity": 109,
              "position": 1.25,
              "duration": 0.010416666666666666
            },
            {
              "pitch": 54,
              "velocity": 50,
              "position": 1.25,
              "duration": 0.010416666666666666
            },
            {
              "pitch": 47,
              "velocity": 98,
              "position": 1.5104166666666667,
              "duration": 0.010416666666666666
            },
            {
              "pitch": 54,
              "velocity": 56,
              "position": 1.5104166666666667,
              "duration": 0.010416666666666666
            },
            {
              "pitch": 47,
              "velocity": 69,
              "position": 1.6354166666666667,
              "duration": 0.010416666666666666
            },
            {
              "pitch": 54,
              "velocity": 25,
              "position": 1.7395833333333333,
              "duration": 0.010416666666666666
            },
            {
              "pitch": 43,
              "velocity": 81,
              "position": 1.7604166666666667,
              "duration": 0.010416666666666666
            },
            {
              "pitch": 38,
              "velocity": 92,
              "position": 1.9895833333333333,
              "duration": 0.010416666666666666
            },
            {
              "pitch": 54,
              "velocity": 88,
              "position": 1.9895833333333333,
              "duration": 0.010416666666666666
            },
            {
              "pitch": 36,
              "velocity": 109,
              "position": 2,
              "duration": 0.010416666666666666
            },
            {
              "pitch": 40,
              "velocity": 117,
              "position": 2.03125,
              "duration": 0.010416666666666666
            },
            {
              "pitch": 36,
              "velocity": 73,
              "position": 3.25,
              "duration": 0.010416666666666666
            },
            {
              "pitch": 38,
              "velocity": 96,
              "position": 3.4791666666666665,
              "duration": 0.010416666666666666
            },
            {
              "pitch": 40,
              "velocity": 113,
              "position": 3.5104166666666665,
              "duration": 0.010416666666666666
            }
          ]
        },
        "10": {
          "ctab": {
            "srcChannel": 10,
            "name": "Track 11",
            "accType": "BASS",
            "editable": false,
            "mutedNotes": [],
            "mutedChords": [],
            "autoStart": false,
            "sourceChordNote": 0,
            "sourceChordType": "Maj7",
            "ctb2Low": null,
            "ctb2Main": {
              "ntr": "ROOT_TRANSPOSITION",
              "ntt": "MELODY",
              "bassOn": true,
              "chordRootUpperLimit": 3,
              "noteLowLimit": 28,
              "noteHighLimit": 127,
              "rtr": "PITCH_SHIFT"
            },
            "ctb2High": null
          },
          "notes": [
            {
              "pitch": 36,
              "velocity": 117,
              "position": 0,
              "duration": 0.5104166666666666
            },
            {
              "pitch": 33,
              "velocity": 111,
              "position": 0.75,
              "duration": 0.4270833333333333
            },
            {
              "pitch": 33,
              "velocity": 104,
              "position": 1.25,
              "duration": 0.052083333333333336
            },
            {
              "pitch": 31,
              "velocity": 107,
              "position": 1.5,
              "duration": 0.3958333333333333
            },
            {
              "pitch": 36,
              "velocity": 121,
              "position": 2,
              "duration": 0.46875
            },
            {
              "pitch": 31,
              "velocity": 90,
              "position": 3.5,
              "duration": 0.46875
            }
          ]
        },
        "12": {
          "ctab": {
            "srcChannel": 12,
            "name": "Track 13",
            "accType": "CHORD2",
            "editable": false,
            "mutedNotes": [],
            "mutedChords": [],
            "autoStart": false,
            "sourceChordNote": 0,
            "sourceChordType": "Maj7",
            "ctb2Low": null,
            "ctb2Main": {
              "ntr": "ROOT_TRANSPOSITION",
              "ntt": "CHORD",
              "bassOn": false,
              "chordRootUpperLimit": 6,
              "noteLowLimit": 0,
              "noteHighLimit": 79,
              "rtr": "STOP"
            },
            "ctb2High": null
          },
          "notes": [
            {
              "pitch": 79,
              "velocity": 64,
              "position": 0.020833333333333332,
              "duration": 0.11458333333333333
            },
            {
              "pitch": 75,
              "velocity": 100,
              "position": 0,
              "duration": 0.14583333333333334
            },
            {
              "pitch": 55,
              "velocity": 73,
              "position": 0.010416666666666666,
              "duration": 0.15625
            },
            {
              "pitch": 48,
              "velocity": 73,
              "position": 0,
              "duration": 0.17708333333333334
            },
            {
              "pitch": 79,
              "velocity": 58,
              "position": 0.2708333333333333,
              "duration": 0.09375
            },
            {
              "pitch": 48,
              "velocity": 38,
              "position": 0.28125,
              "duration": 0.08333333333333333
            },
            {
              "pitch": 76,
              "velocity": 77,
              "position": 0.2708333333333333,
              "duration": 0.10416666666666667
            },
            {
              "pitch": 55,
              "velocity": 48,
              "position": 0.2708333333333333,
              "duration": 0.10416666666666667
            },
            {
              "pitch": 79,
              "velocity": 70,
              "position": 0.5104166666666666,
              "duration": 0.11458333333333333
            },
            {
              "pitch": 76,
              "velocity": 84,
              "position": 0.5104166666666666,
              "duration": 0.125
            },
            {
              "pitch": 48,
              "velocity": 64,
              "position": 0.5104166666666666,
              "duration": 0.13541666666666666
            },
            {
              "pitch": 57,
              "velocity": 67,
              "position": 0.5208333333333334,
              "duration": 0.125
            },
            {
              "pitch": 48,
              "velocity": 48,
              "position": 0.7604166666666666,
              "duration": 0.08333333333333333
            },
            {
              "pitch": 57,
              "velocity": 55,
              "position": 0.7708333333333334,
              "duration": 0.08333333333333333
            },
            {
              "pitch": 76,
              "velocity": 84,
              "position": 0.7604166666666666,
              "duration": 0.125
            },
            {
              "pitch": 79,
              "velocity": 67,
              "position": 0.7604166666666666,
              "duration": 0.13541666666666666
            },
            {
              "pitch": 55,
              "velocity": 84,
              "position": 1.0208333333333333,
              "duration": 0.10416666666666667
            },
            {
              "pitch": 48,
              "velocity": 58,
              "position": 1.0104166666666667,
              "duration": 0.13541666666666666
            },
            {
              "pitch": 75,
              "velocity": 89,
              "position": 1.0208333333333333,
              "duration": 0.125
            },
            {
              "pitch": 79,
              "velocity": 48,
              "position": 1.0208333333333333,
              "duration": 0.16666666666666666
            },
            {
              "pitch": 74,
              "velocity": 70,
              "position": 1.1354166666666667,
              "duration": 0.14583333333333334
            },
            {
              "pitch": 55,
              "velocity": 44,
              "position": 1.28125,
              "duration": 0.08333333333333333
            },
            {
              "pitch": 48,
              "velocity": 29,
              "position": 1.28125,
              "duration": 0.08333333333333333
            },
            {
              "pitch": 72,
              "velocity": 73,
              "position": 1.2708333333333333,
              "duration": 0.10416666666666667
            },
            {
              "pitch": 57,
              "velocity": 73,
              "position": 1.5208333333333333,
              "duration": 0.20833333333333334
            },
            {
              "pitch": 69,
              "velocity": 89,
              "position": 1.5,
              "duration": 0.25
            },
            {
              "pitch": 76,
              "velocity": 55,
              "position": 1.5,
              "duration": 0.28125
            },
            {
              "pitch": 48,
              "velocity": 55,
              "position": 1.5208333333333333,
              "duration": 0.34375
            },
            {
              "pitch": 67,
              "velocity": 46,
              "position": 1.7604166666666667,
              "duration": 0.10416666666666667
            },
            {
              "pitch": 55,
              "velocity": 31,
              "position": 1.8020833333333333,
              "duration": 0.0625
            },
            {
              "pitch": 72,
              "velocity": 64,
              "position": 2,
              "duration": 0.25
            },
            {
              "pitch": 64,
              "velocity": 73,
              "position": 2,
              "duration": 0.25
            },
            {
              "pitch": 55,
              "velocity": 73,
              "position": 2,
              "duration": 0.25
            },
            {
              "pitch": 48,
              "velocity": 61,
              "position": 2.0104166666666665,
              "duration": 0.25
            }
          ]
        },
        "13": {
          "ctab": {
            "srcChannel": 13,
            "name": "Track 14",
            "accType": "PAD",
            "editable": false,
            "mutedNotes": [],
            "mutedChords": [],
            "autoStart": false,
            "sourceChordNote": 0,
            "sourceChordType": "Maj7",
            "ctb2Low": null,
            "ctb2Main": {
              "ntr": "ROOT_FIXED",
              "ntt": "CHORD",
              "bassOn": false,
              "chordRootUpperLimit": 6,
              "noteLowLimit": 0,
              "noteHighLimit": 127,
              "rtr": "RETRIGGER"
            },
            "ctb2High": null
          },
          "notes": [
            {
              "pitch": 64,
              "velocity": 83,
              "position": 0.041666666666666664,
              "duration": 1.5104166666666667
            },
            {
              "pitch": 59,
              "velocity": 83,
              "position": 0.041666666666666664,
              "duration": 1.5104166666666667
            },
            {
              "pitch": 64,
              "velocity": 100,
              "position": 2.0104166666666665,
              "duration": 0.3020833333333333
            },
            {
              "pitch": 59,
              "velocity": 100,
              "position": 2.0104166666666665,
              "duration": 0.3020833333333333
            }
          ]
        },
        "14": {
          "ctab": {
            "srcChannel": 14,
            "name": "Track 15",
            "accType": "PHRASE1",
            "editable": false,
            "mutedNotes": [],
            "mutedChords": [],
            "autoStart": false,
            "sourceChordNote": 0,
            "sourceChordType": "Maj7",
            "ctb2Low": null,
            "ctb2Main": {
              "ntr": "ROOT_TRANSPOSITION",
              "ntt": "CHORD",
              "bassOn": false,
              "chordRootUpperLimit": 6,
              "noteLowLimit": 0,
              "noteHighLimit": 127,
              "rtr": "PITCH_SHIFT"
            },
            "ctb2High": null
          },
          "notes": [
            {
              "pitch": 60,
              "velocity": 77,
              "position": 0.010416666666666666,
              "duration": 0.4583333333333333
            },
            {
              "pitch": 48,
              "velocity": 89,
              "position": 0.010416666666666666,
              "duration": 0.46875
            },
            {
              "pitch": 55,
              "velocity": 97,
              "position": 0.010416666666666666,
              "duration": 0.4791666666666667
            },
            {
              "pitch": 57,
              "velocity": 102,
              "position": 0.5104166666666666,
              "duration": 0.1875
            },
            {
              "pitch": 48,
              "velocity": 77,
              "position": 0.5,
              "duration": 0.21875
            },
            {
              "pitch": 60,
              "velocity": 73,
              "position": 0.5104166666666666,
              "duration": 0.3333333333333333
            },
            {
              "pitch": 55,
              "velocity": 77,
              "position": 0.7604166666666666,
              "duration": 0.10416666666666667
            },
            {
              "pitch": 48,
              "velocity": 24,
              "position": 0.7604166666666666,
              "duration": 0.11458333333333333
            },
            {
              "pitch": 57,
              "velocity": 107,
              "position": 1,
              "duration": 0.22916666666666666
            },
            {
              "pitch": 55,
              "velocity": 81,
              "position": 1.2708333333333333,
              "duration": 0.19791666666666666
            },
            {
              "pitch": 48,
              "velocity": 73,
              "position": 1,
              "duration": 0.71875
            },
            {
              "pitch": 51,
              "velocity": 100,
              "position": 1.5,
              "duration": 0.23958333333333334
            },
            {
              "pitch": 52,
              "velocity": 77,
              "position": 1.7395833333333333,
              "duration": 0.25
            },
            {
              "pitch": 60,
              "velocity": 77,
              "position": 1,
              "duration": 1.3333333333333333
            },
            {
              "pitch": 55,
              "velocity": 93,
              "position": 1.9895833333333333,
              "duration": 0.3541666666666667
            },
            {
              "pitch": 48,
              "velocity": 97,
              "position": 2,
              "duration": 0.34375
            },
            {
              "pitch": 43,
              "velocity": 92,
              "position": 2.5208333333333335,
              "duration": 0.23958333333333334
            },
            {
              "pitch": 43,
              "velocity": 77,
              "position": 2.7708333333333335,
              "duration": 0.20833333333333334
            },
            {
              "pitch": 45,
              "velocity": 94,
              "position": 3.0208333333333335,
              "duration": 0.23958333333333334
            },
            {
              "pitch": 45,
              "velocity": 84,
              "position": 3.2708333333333335,
              "duration": 0.21875
            },
            {
              "pitch": 48,
              "velocity": 86,
              "position": 3.5104166666666665,
              "duration": 0.4479166666666667
            }
          ]
        }
      }
    },
    "Main_D": {
      "type": "Main_D",
      "sizeInBeats": 16,
      "channels": {
        "8": {
          "ctab": {
            "srcChannel": 8,
            "name": "Track 9",
            "accType": "RHYTHM",
            "editable": false,
            "mutedNotes": [],
            "mutedChords": [],
            "autoStart": true,
            "sourceChordNote": 0,
            "sourceChordType": "Maj7",
            "ctb2Low": null,
            "ctb2Main": {
              "ntr": "ROOT_FIXED",
              "ntt": "BYPASS",
              "bassOn": false,
              "chordRootUpperLimit": 6,
              "noteLowLimit": 0,
              "noteHighLimit": 127,
              "rtr": "PITCH_SHIFT"
            },
            "ctb2High": null
          },
          "notes": [
            {
              "pitch": 54,
              "velocity": 70,
              "position": 0.010416666666666666,
              "duration": 0.010416666666666666
            },
            {
              "pitch": 54,
              "velocity": 36,
              "position": 0.25,
              "duration": 0.010416666666666666
            },
            {
              "pitch": 39,
              "velocity": 81,
              "position": 0.4895833333333333,
              "duration": 0.010416666666666666
            },
            {
              "pitch": 54,
              "velocity": 82,
              "position": 0.5104166666666666,
              "duration": 0.010416666666666666
            },
            {
              "pitch": 54,
              "velocity": 36,
              "position": 0.75,
              "duration": 0.010416666666666666
            },
            {
              "pitch": 39,
              "velocity": 60,
              "position": 0.7604166666666666,
              "duration": 0.010416666666666666
            },
            {
              "pitch": 54,
              "velocity": 68,
              "position": 1,
              "duration": 0.010416666666666666
            },
            {
              "pitch": 54,
              "velocity": 38,
              "position": 1.25,
              "duration": 0.010416666666666666
            },
            {
              "pitch": 39,
              "velocity": 81,
              "position": 1.5,
              "duration": 0.010416666666666666
            },
            {
              "pitch": 54,
              "velocity": 79,
              "position": 1.5104166666666667,
              "duration": 0.010416666666666666
            },
            {
              "pitch": 54,
              "velocity": 36,
              "position": 1.7395833333333333,
              "duration": 0.010416666666666666
            },
            {
              "pitch": 54,
              "velocity": 68,
              "position": 1.9895833333333333,
              "duration": 0.010416666666666666
            },
            {
              "pitch": 54,
              "velocity": 36,
              "position": 2.2395833333333335,
              "duration": 0.010416666666666666
            },
            {
              "pitch": 39,
              "velocity": 81,
              "position": 2.4895833333333335,
              "duration": 0.010416666666666666
            },
            {
              "pitch": 54,
              "velocity": 79,
              "position": 2.4895833333333335,
              "duration": 0.010416666666666666
            },
            {
              "pitch": 54,
              "velocity": 38,
              "position": 2.7395833333333335,
              "duration": 0.010416666666666666
            },
            {
              "pitch": 39,
              "velocity": 60,
              "position": 2.75,
              "duration": 0.010416666666666666
            },
            {
              "pitch": 54,
              "velocity": 68,
              "position": 2.9895833333333335,
              "duration": 0.010416666666666666
            },
            {
              "pitch": 54,
              "velocity": 38,
              "position": 3.2395833333333335,
              "duration": 0.010416666666666666
            },
            {
              "pitch": 54,
              "velocity": 80,
              "position": 3.4895833333333335,
              "duration": 0.010416666666666666
            },
            {
              "pitch": 39,
              "velocity": 81,
              "position": 3.5104166666666665,
              "duration": 0.010416666666666666
            },
            {
              "pitch": 54,
              "velocity": 34,
              "position": 3.75,
              "duration": 0.010416666666666666
            },
            {
              "pitch": 54,
              "velocity": 70,
              "position": 4.010416666666667,
              "duration": 0.010416666666666666
            },
            {
              "pitch": 54,
              "velocity": 36,
              "position": 4.25,
              "duration": 0.010416666666666666
            },
            {
              "pitch": 39,
              "velocity": 81,
              "position": 4.489583333333333,
              "duration": 0.010416666666666666
            },
            {
              "pitch": 54,
              "velocity": 87,
              "position": 4.510416666666667,
              "duration": 0.010416666666666666
            },
            {
              "pitch": 54,
              "velocity": 36,
              "position": 4.75,
              "duration": 0.010416666666666666
            },
            {
              "pitch": 39,
              "velocity": 60,
              "position": 4.760416666666667,
              "duration": 0.010416666666666666
            },
            {
              "pitch": 54,
              "velocity": 68,
              "position": 5,
              "duration": 0.010416666666666666
            },
            {
              "pitch": 54,
              "velocity": 38,
              "position": 5.25,
              "duration": 0.010416666666666666
            },
            {
              "pitch": 39,
              "velocity": 81,
              "position": 5.5,
              "duration": 0.010416666666666666
            },
            {
              "pitch": 54,
              "velocity": 82,
              "position": 5.510416666666667,
              "duration": 0.010416666666666666
            },
            {
              "pitch": 54,
              "velocity": 36,
              "position": 5.739583333333333,
              "duration": 0.010416666666666666
            },
            {
              "pitch": 54,
              "velocity": 68,
              "position": 5.989583333333333,
              "duration": 0.010416666666666666
            },
            {
              "pitch": 54,
              "velocity": 36,
              "position": 6.239583333333333,
              "duration": 0.010416666666666666
            },
            {
              "pitch": 39,
              "velocity": 81,
              "position": 6.489583333333333,
              "duration": 0.010416666666666666
            },
            {
              "pitch": 54,
              "velocity": 87,
              "position": 6.489583333333333,
              "duration": 0.010416666666666666
            },
            {
              "pitch": 54,
              "velocity": 38,
              "position": 6.739583333333333,
              "duration": 0.010416666666666666
            },
            {
              "pitch": 39,
              "velocity": 60,
              "position": 6.75,
              "duration": 0.010416666666666666
            },
            {
              "pitch": 54,
              "velocity": 68,
              "position": 6.989583333333333,
              "duration": 0.010416666666666666
            },
            {
              "pitch": 54,
              "velocity": 38,
              "position": 7.239583333333333,
              "duration": 0.010416666666666666
            },
            {
              "pitch": 54,
              "velocity": 87,
              "position": 7.489583333333333,
              "duration": 0.010416666666666666
            },
            {
              "pitch": 39,
              "velocity": 81,
              "position": 7.510416666666667,
              "duration": 0.010416666666666666
            },
            {
              "pitch": 54,
              "velocity": 34,
              "position": 7.75,
              "duration": 0.010416666666666666
            },
            {
              "pitch": 54,
              "velocity": 70,
              "position": 8.010416666666666,
              "duration": 0.010416666666666666
            },
            {
              "pitch": 54,
              "velocity": 36,
              "position": 8.25,
              "duration": 0.010416666666666666
            },
            {
              "pitch": 39,
              "velocity": 81,
              "position": 8.489583333333334,
              "duration": 0.010416666666666666
            },
            {
              "pitch": 54,
              "velocity": 87,
              "position": 8.510416666666666,
              "duration": 0.010416666666666666
            },
            {
              "pitch": 54,
              "velocity": 36,
              "position": 8.75,
              "duration": 0.010416666666666666
            },
            {
              "pitch": 39,
              "velocity": 60,
              "position": 8.760416666666666,
              "duration": 0.010416666666666666
            },
            {
              "pitch": 54,
              "velocity": 68,
              "position": 9,
              "duration": 0.010416666666666666
            },
            {
              "pitch": 54,
              "velocity": 38,
              "position": 9.25,
              "duration": 0.010416666666666666
            },
            {
              "pitch": 39,
              "velocity": 81,
              "position": 9.5,
              "duration": 0.010416666666666666
            },
            {
              "pitch": 54,
              "velocity": 82,
              "position": 9.510416666666666,
              "duration": 0.010416666666666666
            },
            {
              "pitch": 54,
              "velocity": 36,
              "position": 9.739583333333334,
              "duration": 0.010416666666666666
            },
            {
              "pitch": 54,
              "velocity": 68,
              "position": 9.989583333333334,
              "duration": 0.010416666666666666
            },
            {
              "pitch": 54,
              "velocity": 36,
              "position": 10.239583333333334,
              "duration": 0.010416666666666666
            },
            {
              "pitch": 39,
              "velocity": 81,
              "position": 10.489583333333334,
              "duration": 0.010416666666666666
            },
            {
              "pitch": 54,
              "velocity": 87,
              "position": 10.489583333333334,
              "duration": 0.010416666666666666
            },
            {
              "pitch": 54,
              "velocity": 38,
              "position": 10.739583333333334,
              "duration": 0.010416666666666666
            },
            {
              "pitch": 39,
              "velocity": 60,
              "position": 10.75,
              "duration": 0.010416666666666666
            },
            {
              "pitch": 54,
              "velocity": 68,
              "position": 10.989583333333334,
              "duration": 0.010416666666666666
            },
            {
              "pitch": 54,
              "velocity": 38,
              "position": 11.239583333333334,
              "duration": 0.010416666666666666
            },
            {
              "pitch": 54,
              "velocity": 87,
              "position": 11.489583333333334,
              "duration": 0.010416666666666666
            },
            {
              "pitch": 39,
              "velocity": 81,
              "position": 11.510416666666666,
              "duration": 0.010416666666666666
            },
            {
              "pitch": 54,
              "velocity": 34,
              "position": 11.75,
              "duration": 0.010416666666666666
            },
            {
              "pitch": 54,
              "velocity": 70,
              "position": 12.010416666666666,
              "duration": 0.010416666666666666
            },
            {
              "pitch": 54,
              "velocity": 36,
              "position": 12.25,
              "duration": 0.010416666666666666
            },
            {
              "pitch": 39,
              "velocity": 81,
              "position": 12.489583333333334,
              "duration": 0.010416666666666666
            },
            {
              "pitch": 54,
              "velocity": 87,
              "position": 12.510416666666666,
              "duration": 0.010416666666666666
            },
            {
              "pitch": 54,
              "velocity": 36,
              "position": 12.75,
              "duration": 0.010416666666666666
            },
            {
              "pitch": 39,
              "velocity": 60,
              "position": 12.760416666666666,
              "duration": 0.010416666666666666
            },
            {
              "pitch": 54,
              "velocity": 68,
              "position": 13,
              "duration": 0.010416666666666666
            },
            {
              "pitch": 54,
              "velocity": 38,
              "position": 13.25,
              "duration": 0.010416666666666666
            },
            {
              "pitch": 39,
              "velocity": 81,
              "position": 13.5,
              "duration": 0.010416666666666666
            },
            {
              "pitch": 54,
              "velocity": 82,
              "position": 13.510416666666666,
              "duration": 0.010416666666666666
            },
            {
              "pitch": 54,
              "velocity": 36,
              "position": 13.739583333333334,
              "duration": 0.010416666666666666
            },
            {
              "pitch": 54,
              "velocity": 68,
              "position": 13.989583333333334,
              "duration": 0.010416666666666666
            },
            {
              "pitch": 54,
              "velocity": 36,
              "position": 14.239583333333334,
              "duration": 0.010416666666666666
            },
            {
              "pitch": 39,
              "velocity": 81,
              "position": 14.489583333333334,
              "duration": 0.010416666666666666
            },
            {
              "pitch": 54,
              "velocity": 87,
              "position": 14.489583333333334,
              "duration": 0.010416666666666666
            },
            {
              "pitch": 54,
              "velocity": 38,
              "position": 14.739583333333334,
              "duration": 0.010416666666666666
            },
            {
              "pitch": 39,
              "velocity": 60,
              "position": 14.75,
              "duration": 0.010416666666666666
            },
            {
              "pitch": 54,
              "velocity": 68,
              "position": 14.989583333333334,
              "duration": 0.010416666666666666
            },
            {
              "pitch": 54,
              "velocity": 38,
              "position": 15.239583333333334,
              "duration": 0.010416666666666666
            },
            {
              "pitch": 54,
              "velocity": 87,
              "position": 15.489583333333334,
              "duration": 0.010416666666666666
            },
            {
              "pitch": 39,
              "velocity": 81,
              "position": 15.510416666666666,
              "duration": 0.010416666666666666
            },
            {
              "pitch": 54,
              "velocity": 34,
              "position": 15.75,
              "duration": 0.010416666666666666
            }
          ]
        },
        "9": {
          "ctab": {
            "srcChannel": 9,
            "name": "Track 10",
            "accType": "SUBRHYTHM",
            "editable": false,
            "mutedNotes": [],
            "mutedChords": [],
            "autoStart": true,
            "sourceChordNote": 0,
            "sourceChordType": "Maj7",
            "ctb2Low": null,
            "ctb2Main": {
              "ntr": "ROOT_FIXED",
              "ntt": "BYPASS",
              "bassOn": false,
              "chordRootUpperLimit": 6,
              "noteLowLimit": 0,
              "noteHighLimit": 127,
              "rtr": "PITCH_SHIFT"
            },
            "ctb2High": null
          },
          "notes": [
            {
              "pitch": 36,
              "velocity": 115,
              "position": 0,
              "duration": 0.010416666666666666
            },
            {
              "pitch": 49,
              "velocity": 67,
              "position": 0,
              "duration": 0.010416666666666666
            },
            {
              "pitch": 54,
              "velocity": 70,
              "position": 0.010416666666666666,
              "duration": 0.010416666666666666
            },
            {
              "pitch": 54,
              "velocity": 36,
              "position": 0.25,
              "duration": 0.010416666666666666
            },
            {
              "pitch": 40,
              "velocity": 28,
              "position": 0.2604166666666667,
              "duration": 0.010416666666666666
            },
            {
              "pitch": 39,
              "velocity": 81,
              "position": 0.4895833333333333,
              "duration": 0.010416666666666666
            },
            {
              "pitch": 40,
              "velocity": 113,
              "position": 0.5,
              "duration": 0.010416666666666666
            },
            {
              "pitch": 54,
              "velocity": 82,
              "position": 0.5104166666666666,
              "duration": 0.010416666666666666
            },
            {
              "pitch": 40,
              "velocity": 30,
              "position": 0.75,
              "duration": 0.010416666666666666
            },
            {
              "pitch": 54,
              "velocity": 36,
              "position": 0.75,
              "duration": 0.010416666666666666
            },
            {
              "pitch": 39,
              "velocity": 60,
              "position": 0.7604166666666666,
              "duration": 0.010416666666666666
            },
            {
              "pitch": 36,
              "velocity": 115,
              "position": 1,
              "duration": 0.010416666666666666
            },
            {
              "pitch": 54,
              "velocity": 68,
              "position": 1,
              "duration": 0.010416666666666666
            },
            {
              "pitch": 40,
              "velocity": 47,
              "position": 1.0104166666666667,
              "duration": 0.010416666666666666
            },
            {
              "pitch": 40,
              "velocity": 37,
              "position": 1.25,
              "duration": 0.010416666666666666
            },
            {
              "pitch": 54,
              "velocity": 38,
              "position": 1.25,
              "duration": 0.010416666666666666
            },
            {
              "pitch": 39,
              "velocity": 81,
              "position": 1.5,
              "duration": 0.010416666666666666
            },
            {
              "pitch": 40,
              "velocity": 113,
              "position": 1.5,
              "duration": 0.010416666666666666
            },
            {
              "pitch": 54,
              "velocity": 79,
              "position": 1.5104166666666667,
              "duration": 0.010416666666666666
            },
            {
              "pitch": 54,
              "velocity": 36,
              "position": 1.7395833333333333,
              "duration": 0.010416666666666666
            },
            {
              "pitch": 40,
              "velocity": 30,
              "position": 1.7604166666666667,
              "duration": 0.010416666666666666
            },
            {
              "pitch": 54,
              "velocity": 68,
              "position": 1.9895833333333333,
              "duration": 0.010416666666666666
            },
            {
              "pitch": 36,
              "velocity": 115,
              "position": 2,
              "duration": 0.010416666666666666
            },
            {
              "pitch": 40,
              "velocity": 30,
              "position": 2.0104166666666665,
              "duration": 0.010416666666666666
            },
            {
              "pitch": 54,
              "velocity": 36,
              "position": 2.2395833333333335,
              "duration": 0.010416666666666666
            },
            {
              "pitch": 40,
              "velocity": 31,
              "position": 2.25,
              "duration": 0.010416666666666666
            },
            {
              "pitch": 39,
              "velocity": 81,
              "position": 2.4895833333333335,
              "duration": 0.010416666666666666
            },
            {
              "pitch": 54,
              "velocity": 79,
              "position": 2.4895833333333335,
              "duration": 0.010416666666666666
            },
            {
              "pitch": 40,
              "velocity": 113,
              "position": 2.5,
              "duration": 0.010416666666666666
            },
            {
              "pitch": 54,
              "velocity": 38,
              "position": 2.7395833333333335,
              "duration": 0.010416666666666666
            },
            {
              "pitch": 39,
              "velocity": 60,
              "position": 2.75,
              "duration": 0.010416666666666666
            },
            {
              "pitch": 40,
              "velocity": 30,
              "position": 2.75,
              "duration": 0.010416666666666666
            },
            {
              "pitch": 54,
              "velocity": 68,
              "position": 2.9895833333333335,
              "duration": 0.010416666666666666
            },
            {
              "pitch": 36,
              "velocity": 115,
              "position": 3,
              "duration": 0.010416666666666666
            },
            {
              "pitch": 40,
              "velocity": 49,
              "position": 3,
              "duration": 0.010416666666666666
            },
            {
              "pitch": 54,
              "velocity": 38,
              "position": 3.2395833333333335,
              "duration": 0.010416666666666666
            },
            {
              "pitch": 40,
              "velocity": 34,
              "position": 3.25,
              "duration": 0.010416666666666666
            },
            {
              "pitch": 54,
              "velocity": 80,
              "position": 3.4895833333333335,
              "duration": 0.010416666666666666
            },
            {
              "pitch": 40,
              "velocity": 113,
              "position": 3.5,
              "duration": 0.010416666666666666
            },
            {
              "pitch": 39,
              "velocity": 81,
              "position": 3.5104166666666665,
              "duration": 0.010416666666666666
            },
            {
              "pitch": 40,
              "velocity": 36,
              "position": 3.75,
              "duration": 0.010416666666666666
            },
            {
              "pitch": 54,
              "velocity": 34,
              "position": 3.75,
              "duration": 0.010416666666666666
            },
            {
              "pitch": 38,
              "velocity": 87,
              "position": 3.7604166666666665,
              "duration": 0.010416666666666666
            },
            {
              "pitch": 36,
              "velocity": 115,
              "position": 4,
              "duration": 0.010416666666666666
            },
            {
              "pitch": 54,
              "velocity": 70,
              "position": 4.010416666666667,
              "duration": 0.010416666666666666
            },
            {
              "pitch": 40,
              "velocity": 39,
              "position": 4.010416666666667,
              "duration": 0.010416666666666666
            },
            {
              "pitch": 54,
              "velocity": 36,
              "position": 4.25,
              "duration": 0.010416666666666666
            },
            {
              "pitch": 40,
              "velocity": 32,
              "position": 4.260416666666667,
              "duration": 0.010416666666666666
            },
            {
              "pitch": 39,
              "velocity": 81,
              "position": 4.489583333333333,
              "duration": 0.010416666666666666
            },
            {
              "pitch": 40,
              "velocity": 108,
              "position": 4.5,
              "duration": 0.010416666666666666
            },
            {
              "pitch": 54,
              "velocity": 87,
              "position": 4.510416666666667,
              "duration": 0.010416666666666666
            },
            {
              "pitch": 40,
              "velocity": 36,
              "position": 4.75,
              "duration": 0.010416666666666666
            },
            {
              "pitch": 54,
              "velocity": 36,
              "position": 4.75,
              "duration": 0.010416666666666666
            },
            {
              "pitch": 39,
              "velocity": 60,
              "position": 4.760416666666667,
              "duration": 0.010416666666666666
            },
            {
              "pitch": 36,
              "velocity": 115,
              "position": 5,
              "duration": 0.010416666666666666
            },
            {
              "pitch": 54,
              "velocity": 68,
              "position": 5,
              "duration": 0.010416666666666666
            },
            {
              "pitch": 40,
              "velocity": 45,
              "position": 5.010416666666667,
              "duration": 0.010416666666666666
            },
            {
              "pitch": 54,
              "velocity": 38,
              "position": 5.25,
              "duration": 0.010416666666666666
            },
            {
              "pitch": 40,
              "velocity": 33,
              "position": 5.260416666666667,
              "duration": 0.010416666666666666
            },
            {
              "pitch": 39,
              "velocity": 81,
              "position": 5.5,
              "duration": 0.010416666666666666
            },
            {
              "pitch": 40,
              "velocity": 113,
              "position": 5.510416666666667,
              "duration": 0.010416666666666666
            },
            {
              "pitch": 54,
              "velocity": 82,
              "position": 5.510416666666667,
              "duration": 0.010416666666666666
            },
            {
              "pitch": 54,
              "velocity": 36,
              "position": 5.739583333333333,
              "duration": 0.010416666666666666
            },
            {
              "pitch": 40,
              "velocity": 29,
              "position": 5.75,
              "duration": 0.010416666666666666
            },
            {
              "pitch": 54,
              "velocity": 68,
              "position": 5.989583333333333,
              "duration": 0.010416666666666666
            },
            {
              "pitch": 36,
              "velocity": 115,
              "position": 6,
              "duration": 0.010416666666666666
            },
            {
              "pitch": 40,
              "velocity": 37,
              "position": 6,
              "duration": 0.010416666666666666
            },
            {
              "pitch": 54,
              "velocity": 36,
              "position": 6.239583333333333,
              "duration": 0.010416666666666666
            },
            {
              "pitch": 40,
              "velocity": 30,
              "position": 6.25,
              "duration": 0.010416666666666666
            },
            {
              "pitch": 39,
              "velocity": 81,
              "position": 6.489583333333333,
              "duration": 0.010416666666666666
            },
            {
              "pitch": 54,
              "velocity": 87,
              "position": 6.489583333333333,
              "duration": 0.010416666666666666
            },
            {
              "pitch": 40,
              "velocity": 113,
              "position": 6.5,
              "duration": 0.010416666666666666
            },
            {
              "pitch": 54,
              "velocity": 38,
              "position": 6.739583333333333,
              "duration": 0.010416666666666666
            },
            {
              "pitch": 40,
              "velocity": 30,
              "position": 6.75,
              "duration": 0.010416666666666666
            },
            {
              "pitch": 39,
              "velocity": 60,
              "position": 6.75,
              "duration": 0.010416666666666666
            },
            {
              "pitch": 54,
              "velocity": 68,
              "position": 6.989583333333333,
              "duration": 0.010416666666666666
            },
            {
              "pitch": 40,
              "velocity": 39,
              "position": 6.989583333333333,
              "duration": 0.010416666666666666
            },
            {
              "pitch": 36,
              "velocity": 115,
              "position": 7,
              "duration": 0.010416666666666666
            },
            {
              "pitch": 54,
              "velocity": 38,
              "position": 7.239583333333333,
              "duration": 0.010416666666666666
            },
            {
              "pitch": 40,
              "velocity": 36,
              "position": 7.25,
              "duration": 0.010416666666666666
            },
            {
              "pitch": 38,
              "velocity": 96,
              "position": 7.260416666666667,
              "duration": 0.010416666666666666
            },
            {
              "pitch": 54,
              "velocity": 87,
              "position": 7.489583333333333,
              "duration": 0.010416666666666666
            },
            {
              "pitch": 40,
              "velocity": 113,
              "position": 7.5,
              "duration": 0.010416666666666666
            },
            {
              "pitch": 39,
              "velocity": 81,
              "position": 7.510416666666667,
              "duration": 0.010416666666666666
            },
            {
              "pitch": 54,
              "velocity": 34,
              "position": 7.75,
              "duration": 0.010416666666666666
            },
            {
              "pitch": 38,
              "velocity": 91,
              "position": 7.75,
              "duration": 0.010416666666666666
            },
            {
              "pitch": 40,
              "velocity": 41,
              "position": 7.75,
              "duration": 0.010416666666666666
            },
            {
              "pitch": 36,
              "velocity": 115,
              "position": 8,
              "duration": 0.010416666666666666
            },
            {
              "pitch": 40,
              "velocity": 39,
              "position": 8.010416666666666,
              "duration": 0.010416666666666666
            },
            {
              "pitch": 54,
              "velocity": 70,
              "position": 8.010416666666666,
              "duration": 0.010416666666666666
            },
            {
              "pitch": 40,
              "velocity": 32,
              "position": 8.25,
              "duration": 0.010416666666666666
            },
            {
              "pitch": 54,
              "velocity": 36,
              "position": 8.25,
              "duration": 0.010416666666666666
            },
            {
              "pitch": 39,
              "velocity": 81,
              "position": 8.489583333333334,
              "duration": 0.010416666666666666
            },
            {
              "pitch": 40,
              "velocity": 113,
              "position": 8.5,
              "duration": 0.010416666666666666
            },
            {
              "pitch": 54,
              "velocity": 87,
              "position": 8.510416666666666,
              "duration": 0.010416666666666666
            },
            {
              "pitch": 40,
              "velocity": 31,
              "position": 8.75,
              "duration": 0.010416666666666666
            },
            {
              "pitch": 54,
              "velocity": 36,
              "position": 8.75,
              "duration": 0.010416666666666666
            },
            {
              "pitch": 39,
              "velocity": 60,
              "position": 8.760416666666666,
              "duration": 0.010416666666666666
            },
            {
              "pitch": 36,
              "velocity": 115,
              "position": 9,
              "duration": 0.010416666666666666
            },
            {
              "pitch": 40,
              "velocity": 39,
              "position": 9,
              "duration": 0.010416666666666666
            },
            {
              "pitch": 54,
              "velocity": 68,
              "position": 9,
              "duration": 0.010416666666666666
            },
            {
              "pitch": 54,
              "velocity": 38,
              "position": 9.25,
              "duration": 0.010416666666666666
            },
            {
              "pitch": 40,
              "velocity": 30,
              "position": 9.260416666666666,
              "duration": 0.010416666666666666
            },
            {
              "pitch": 39,
              "velocity": 81,
              "position": 9.5,
              "duration": 0.010416666666666666
            },
            {
              "pitch": 40,
              "velocity": 113,
              "position": 9.5,
              "duration": 0.010416666666666666
            },
            {
              "pitch": 54,
              "velocity": 82,
              "position": 9.510416666666666,
              "duration": 0.010416666666666666
            },
            {
              "pitch": 54,
              "velocity": 36,
              "position": 9.739583333333334,
              "duration": 0.010416666666666666
            },
            {
              "pitch": 40,
              "velocity": 31,
              "position": 9.760416666666666,
              "duration": 0.010416666666666666
            },
            {
              "pitch": 54,
              "velocity": 68,
              "position": 9.989583333333334,
              "duration": 0.010416666666666666
            },
            {
              "pitch": 36,
              "velocity": 115,
              "position": 10,
              "duration": 0.010416666666666666
            },
            {
              "pitch": 40,
              "velocity": 43,
              "position": 10.010416666666666,
              "duration": 0.010416666666666666
            },
            {
              "pitch": 54,
              "velocity": 36,
              "position": 10.239583333333334,
              "duration": 0.010416666666666666
            },
            {
              "pitch": 40,
              "velocity": 30,
              "position": 10.260416666666666,
              "duration": 0.010416666666666666
            },
            {
              "pitch": 39,
              "velocity": 81,
              "position": 10.489583333333334,
              "duration": 0.010416666666666666
            },
            {
              "pitch": 54,
              "velocity": 87,
              "position": 10.489583333333334,
              "duration": 0.010416666666666666
            },
            {
              "pitch": 40,
              "velocity": 113,
              "position": 10.510416666666666,
              "duration": 0.010416666666666666
            },
            {
              "pitch": 54,
              "velocity": 38,
              "position": 10.739583333333334,
              "duration": 0.010416666666666666
            },
            {
              "pitch": 39,
              "velocity": 60,
              "position": 10.75,
              "duration": 0.010416666666666666
            },
            {
              "pitch": 40,
              "velocity": 41,
              "position": 10.760416666666666,
              "duration": 0.010416666666666666
            },
            {
              "pitch": 54,
              "velocity": 68,
              "position": 10.989583333333334,
              "duration": 0.010416666666666666
            },
            {
              "pitch": 36,
              "velocity": 115,
              "position": 11,
              "duration": 0.010416666666666666
            },
            {
              "pitch": 40,
              "velocity": 26,
              "position": 11.020833333333334,
              "duration": 0.010416666666666666
            },
            {
              "pitch": 54,
              "velocity": 38,
              "position": 11.239583333333334,
              "duration": 0.010416666666666666
            },
            {
              "pitch": 40,
              "velocity": 34,
              "position": 11.260416666666666,
              "duration": 0.010416666666666666
            },
            {
              "pitch": 54,
              "velocity": 87,
              "position": 11.489583333333334,
              "duration": 0.010416666666666666
            },
            {
              "pitch": 40,
              "velocity": 113,
              "position": 11.510416666666666,
              "duration": 0.010416666666666666
            },
            {
              "pitch": 39,
              "velocity": 81,
              "position": 11.510416666666666,
              "duration": 0.010416666666666666
            },
            {
              "pitch": 36,
              "velocity": 69,
              "position": 11.75,
              "duration": 0.010416666666666666
            },
            {
              "pitch": 54,
              "velocity": 34,
              "position": 11.75,
              "duration": 0.010416666666666666
            },
            {
              "pitch": 40,
              "velocity": 34,
              "position": 11.760416666666666,
              "duration": 0.010416666666666666
            },
            {
              "pitch": 38,
              "velocity": 87,
              "position": 11.760416666666666,
              "duration": 0.010416666666666666
            },
            {
              "pitch": 36,
              "velocity": 115,
              "position": 12,
              "duration": 0.010416666666666666
            },
            {
              "pitch": 54,
              "velocity": 70,
              "position": 12.010416666666666,
              "duration": 0.010416666666666666
            },
            {
              "pitch": 40,
              "velocity": 41,
              "position": 12.010416666666666,
              "duration": 0.010416666666666666
            },
            {
              "pitch": 54,
              "velocity": 36,
              "position": 12.25,
              "duration": 0.010416666666666666
            },
            {
              "pitch": 40,
              "velocity": 31,
              "position": 12.260416666666666,
              "duration": 0.010416666666666666
            },
            {
              "pitch": 39,
              "velocity": 81,
              "position": 12.489583333333334,
              "duration": 0.010416666666666666
            },
            {
              "pitch": 54,
              "velocity": 87,
              "position": 12.510416666666666,
              "duration": 0.010416666666666666
            },
            {
              "pitch": 40,
              "velocity": 113,
              "position": 12.510416666666666,
              "duration": 0.010416666666666666
            },
            {
              "pitch": 54,
              "velocity": 36,
              "position": 12.75,
              "duration": 0.010416666666666666
            },
            {
              "pitch": 39,
              "velocity": 60,
              "position": 12.760416666666666,
              "duration": 0.010416666666666666
            },
            {
              "pitch": 40,
              "velocity": 33,
              "position": 12.760416666666666,
              "duration": 0.010416666666666666
            },
            {
              "pitch": 36,
              "velocity": 115,
              "position": 13,
              "duration": 0.010416666666666666
            },
            {
              "pitch": 54,
              "velocity": 68,
              "position": 13,
              "duration": 0.010416666666666666
            },
            {
              "pitch": 40,
              "velocity": 45,
              "position": 13.010416666666666,
              "duration": 0.010416666666666666
            },
            {
              "pitch": 54,
              "velocity": 38,
              "position": 13.25,
              "duration": 0.010416666666666666
            },
            {
              "pitch": 40,
              "velocity": 29,
              "position": 13.260416666666666,
              "duration": 0.010416666666666666
            },
            {
              "pitch": 39,
              "velocity": 81,
              "position": 13.5,
              "duration": 0.010416666666666666
            },
            {
              "pitch": 54,
              "velocity": 82,
              "position": 13.510416666666666,
              "duration": 0.010416666666666666
            },
            {
              "pitch": 40,
              "velocity": 113,
              "position": 13.510416666666666,
              "duration": 0.010416666666666666
            },
            {
              "pitch": 54,
              "velocity": 36,
              "position": 13.739583333333334,
              "duration": 0.010416666666666666
            },
            {
              "pitch": 40,
              "velocity": 26,
              "position": 13.770833333333334,
              "duration": 0.010416666666666666
            },
            {
              "pitch": 54,
              "velocity": 68,
              "position": 13.989583333333334,
              "duration": 0.010416666666666666
            },
            {
              "pitch": 36,
              "velocity": 115,
              "position": 14,
              "duration": 0.010416666666666666
            },
            {
              "pitch": 40,
              "velocity": 48,
              "position": 14.010416666666666,
              "duration": 0.010416666666666666
            },
            {
              "pitch": 54,
              "velocity": 36,
              "position": 14.239583333333334,
              "duration": 0.010416666666666666
            },
            {
              "pitch": 40,
              "velocity": 28,
              "position": 14.25,
              "duration": 0.010416666666666666
            },
            {
              "pitch": 39,
              "velocity": 81,
              "position": 14.489583333333334,
              "duration": 0.010416666666666666
            },
            {
              "pitch": 54,
              "velocity": 87,
              "position": 14.489583333333334,
              "duration": 0.010416666666666666
            },
            {
              "pitch": 40,
              "velocity": 113,
              "position": 14.510416666666666,
              "duration": 0.010416666666666666
            },
            {
              "pitch": 54,
              "velocity": 38,
              "position": 14.739583333333334,
              "duration": 0.010416666666666666
            },
            {
              "pitch": 39,
              "velocity": 60,
              "position": 14.75,
              "duration": 0.010416666666666666
            },
            {
              "pitch": 40,
              "velocity": 29,
              "position": 14.760416666666666,
              "duration": 0.010416666666666666
            },
            {
              "pitch": 54,
              "velocity": 68,
              "position": 14.989583333333334,
              "duration": 0.010416666666666666
            },
            {
              "pitch": 36,
              "velocity": 115,
              "position": 15,
              "duration": 0.010416666666666666
            },
            {
              "pitch": 40,
              "velocity": 50,
              "position": 15.010416666666666,
              "duration": 0.010416666666666666
            },
            {
              "pitch": 54,
              "velocity": 38,
              "position": 15.239583333333334,
              "duration": 0.010416666666666666
            },
            {
              "pitch": 38,
              "velocity": 91,
              "position": 15.25,
              "duration": 0.010416666666666666
            },
            {
              "pitch": 40,
              "velocity": 46,
              "position": 15.260416666666666,
              "duration": 0.010416666666666666
            },
            {
              "pitch": 54,
              "velocity": 87,
              "position": 15.489583333333334,
              "duration": 0.010416666666666666
            },
            {
              "pitch": 40,
              "velocity": 111,
              "position": 15.510416666666666,
              "duration": 0.010416666666666666
            },
            {
              "pitch": 39,
              "velocity": 81,
              "position": 15.510416666666666,
              "duration": 0.010416666666666666
            },
            {
              "pitch": 54,
              "velocity": 34,
              "position": 15.75,
              "duration": 0.010416666666666666
            },
            {
              "pitch": 40,
              "velocity": 64,
              "position": 15.75,
              "duration": 0.010416666666666666
            },
            {
              "pitch": 38,
              "velocity": 92,
              "position": 15.75,
              "duration": 0.010416666666666666
            }
          ]
        },
        "10": {
          "ctab": {
            "srcChannel": 10,
            "name": "Track 11",
            "accType": "BASS",
            "editable": false,
            "mutedNotes": [],
            "mutedChords": [],
            "autoStart": false,
            "sourceChordNote": 0,
            "sourceChordType": "Maj7",
            "ctb2Low": null,
            "ctb2Main": {
              "ntr": "ROOT_TRANSPOSITION",
              "ntt": "MELODY",
              "bassOn": true,
              "chordRootUpperLimit": 3,
              "noteLowLimit": 28,
              "noteHighLimit": 127,
              "rtr": "PITCH_SHIFT"
            },
            "ctb2High": null
          },
          "notes": [
            {
              "pitch": 36,
              "velocity": 119,
              "position": 0,
              "duration": 0.4791666666666667
            },
            {
              "pitch": 36,
              "velocity": 93,
              "position": 0.75,
              "duration": 0.052083333333333336
            },
            {
              "pitch": 31,
              "velocity": 124,
              "position": 1,
              "duration": 0.46875
            },
            {
              "pitch": 31,
              "velocity": 94,
              "position": 1.75,
              "duration": 0.052083333333333336
            },
            {
              "pitch": 36,
              "velocity": 112,
              "position": 2,
              "duration": 0.4895833333333333
            },
            {
              "pitch": 36,
              "velocity": 95,
              "position": 2.75,
              "duration": 0.052083333333333336
            },
            {
              "pitch": 31,
              "velocity": 118,
              "position": 3,
              "duration": 0.4166666666666667
            },
            {
              "pitch": 33,
              "velocity": 113,
              "position": 3.5,
              "duration": 0.40625
            },
            {
              "pitch": 36,
              "velocity": 117,
              "position": 4,
              "duration": 0.46875
            },
            {
              "pitch": 36,
              "velocity": 90,
              "position": 4.75,
              "duration": 0.041666666666666664
            },
            {
              "pitch": 31,
              "velocity": 116,
              "position": 5,
              "duration": 0.5
            },
            {
              "pitch": 31,
              "velocity": 92,
              "position": 5.75,
              "duration": 0.03125
            },
            {
              "pitch": 36,
              "velocity": 119,
              "position": 6,
              "duration": 0.4895833333333333
            },
            {
              "pitch": 36,
              "velocity": 88,
              "position": 6.75,
              "duration": 0.041666666666666664
            },
            {
              "pitch": 31,
              "velocity": 119,
              "position": 7,
              "duration": 0.3854166666666667
            },
            {
              "pitch": 40,
              "velocity": 117,
              "position": 7.5,
              "duration": 0.4166666666666667
            },
            {
              "pitch": 36,
              "velocity": 112,
              "position": 8,
              "duration": 0.4895833333333333
            },
            {
              "pitch": 36,
              "velocity": 85,
              "position": 8.75,
              "duration": 0.052083333333333336
            },
            {
              "pitch": 31,
              "velocity": 120,
              "position": 9,
              "duration": 0.4895833333333333
            },
            {
              "pitch": 31,
              "velocity": 69,
              "position": 9.75,
              "duration": 0.03125
            },
            {
              "pitch": 36,
              "velocity": 112,
              "position": 10,
              "duration": 0.4791666666666667
            },
            {
              "pitch": 36,
              "velocity": 90,
              "position": 10.75,
              "duration": 0.052083333333333336
            },
            {
              "pitch": 31,
              "velocity": 116,
              "position": 11,
              "duration": 0.22916666666666666
            },
            {
              "pitch": 36,
              "velocity": 88,
              "position": 11.25,
              "duration": 0.08333333333333333
            },
            {
              "pitch": 31,
              "velocity": 124,
              "position": 11.5,
              "duration": 0.22916666666666666
            },
            {
              "pitch": 33,
              "velocity": 96,
              "position": 11.75,
              "duration": 0.20833333333333334
            },
            {
              "pitch": 36,
              "velocity": 108,
              "position": 12,
              "duration": 0.5
            },
            {
              "pitch": 36,
              "velocity": 94,
              "position": 12.75,
              "duration": 0.041666666666666664
            },
            {
              "pitch": 31,
              "velocity": 119,
              "position": 13,
              "duration": 0.46875
            },
            {
              "pitch": 31,
              "velocity": 91,
              "position": 13.75,
              "duration": 0.03125
            },
            {
              "pitch": 36,
              "velocity": 115,
              "position": 14,
              "duration": 0.4895833333333333
            },
            {
              "pitch": 36,
              "velocity": 88,
              "position": 14.75,
              "duration": 0.041666666666666664
            },
            {
              "pitch": 31,
              "velocity": 120,
              "position": 15,
              "duration": 0.3958333333333333
            },
            {
              "pitch": 33,
              "velocity": 110,
              "position": 15.5,
              "duration": 0.4166666666666667
            }
          ]
        },
        "11": {
          "ctab": {
            "srcChannel": 11,
            "name": "Track 12",
            "accType": "CHORD1",
            "editable": false,
            "mutedNotes": [],
            "mutedChords": [],
            "autoStart": false,
            "sourceChordNote": 0,
            "sourceChordType": "Maj7",
            "ctb2Low": null,
            "ctb2Main": {
              "ntr": "ROOT_FIXED",
              "ntt": "CHORD",
              "bassOn": false,
              "chordRootUpperLimit": 6,
              "noteLowLimit": 0,
              "noteHighLimit": 127,
              "rtr": "PITCH_SHIFT"
            },
            "ctb2High": null
          },
          "notes": [
            {
              "pitch": 55,
              "velocity": 107,
              "position": 0.010416666666666666,
              "duration": 0.4791666666666667
            },
            {
              "pitch": 59,
              "velocity": 107,
              "position": 0.03125,
              "duration": 0.4791666666666667
            },
            {
              "pitch": 64,
              "velocity": 107,
              "position": 0.052083333333333336,
              "duration": 0.4791666666666667
            },
            {
              "pitch": 55,
              "velocity": 111,
              "position": 0.5104166666666666,
              "duration": 0.22916666666666666
            },
            {
              "pitch": 59,
              "velocity": 111,
              "position": 0.53125,
              "duration": 0.22916666666666666
            },
            {
              "pitch": 64,
              "velocity": 111,
              "position": 0.5520833333333334,
              "duration": 0.22916666666666666
            },
            {
              "pitch": 55,
              "velocity": 88,
              "position": 0.7604166666666666,
              "duration": 0.22916666666666666
            },
            {
              "pitch": 59,
              "velocity": 88,
              "position": 0.78125,
              "duration": 0.22916666666666666
            },
            {
              "pitch": 64,
              "velocity": 88,
              "position": 0.8020833333333334,
              "duration": 0.22916666666666666
            },
            {
              "pitch": 55,
              "velocity": 101,
              "position": 1.0104166666666667,
              "duration": 0.22916666666666666
            },
            {
              "pitch": 59,
              "velocity": 101,
              "position": 1.03125,
              "duration": 0.22916666666666666
            },
            {
              "pitch": 64,
              "velocity": 101,
              "position": 1.0520833333333333,
              "duration": 0.22916666666666666
            },
            {
              "pitch": 55,
              "velocity": 76,
              "position": 1.2604166666666667,
              "duration": 0.22916666666666666
            },
            {
              "pitch": 59,
              "velocity": 82,
              "position": 1.28125,
              "duration": 0.22916666666666666
            },
            {
              "pitch": 64,
              "velocity": 85,
              "position": 1.3020833333333333,
              "duration": 0.22916666666666666
            },
            {
              "pitch": 55,
              "velocity": 111,
              "position": 1.5104166666666667,
              "duration": 0.22916666666666666
            },
            {
              "pitch": 59,
              "velocity": 111,
              "position": 1.53125,
              "duration": 0.22916666666666666
            },
            {
              "pitch": 64,
              "velocity": 111,
              "position": 1.5520833333333333,
              "duration": 0.22916666666666666
            },
            {
              "pitch": 55,
              "velocity": 90,
              "position": 1.7604166666666667,
              "duration": 0.22916666666666666
            },
            {
              "pitch": 59,
              "velocity": 90,
              "position": 1.78125,
              "duration": 0.22916666666666666
            },
            {
              "pitch": 64,
              "velocity": 90,
              "position": 1.8020833333333333,
              "duration": 0.22916666666666666
            },
            {
              "pitch": 55,
              "velocity": 105,
              "position": 2.0104166666666665,
              "duration": 0.22916666666666666
            },
            {
              "pitch": 59,
              "velocity": 105,
              "position": 2.03125,
              "duration": 0.22916666666666666
            },
            {
              "pitch": 64,
              "velocity": 105,
              "position": 2.0520833333333335,
              "duration": 0.22916666666666666
            },
            {
              "pitch": 55,
              "velocity": 88,
              "position": 2.2604166666666665,
              "duration": 0.22916666666666666
            },
            {
              "pitch": 59,
              "velocity": 88,
              "position": 2.28125,
              "duration": 0.22916666666666666
            },
            {
              "pitch": 64,
              "velocity": 88,
              "position": 2.3020833333333335,
              "duration": 0.22916666666666666
            },
            {
              "pitch": 55,
              "velocity": 111,
              "position": 2.5104166666666665,
              "duration": 0.08333333333333333
            },
            {
              "pitch": 59,
              "velocity": 111,
              "position": 2.53125,
              "duration": 0.08333333333333333
            },
            {
              "pitch": 64,
              "velocity": 111,
              "position": 2.5520833333333335,
              "duration": 0.08333333333333333
            },
            {
              "pitch": 55,
              "velocity": 103,
              "position": 2.7604166666666665,
              "duration": 0.4791666666666667
            },
            {
              "pitch": 59,
              "velocity": 103,
              "position": 2.78125,
              "duration": 0.4791666666666667
            },
            {
              "pitch": 64,
              "velocity": 103,
              "position": 2.8020833333333335,
              "duration": 0.4791666666666667
            },
            {
              "pitch": 55,
              "velocity": 90,
              "position": 3.2604166666666665,
              "duration": 0.22916666666666666
            },
            {
              "pitch": 59,
              "velocity": 90,
              "position": 3.28125,
              "duration": 0.22916666666666666
            },
            {
              "pitch": 64,
              "velocity": 90,
              "position": 3.3020833333333335,
              "duration": 0.22916666666666666
            },
            {
              "pitch": 55,
              "velocity": 100,
              "position": 3.5104166666666665,
              "duration": 0.22916666666666666
            },
            {
              "pitch": 59,
              "velocity": 100,
              "position": 3.53125,
              "duration": 0.22916666666666666
            },
            {
              "pitch": 64,
              "velocity": 100,
              "position": 3.5520833333333335,
              "duration": 0.22916666666666666
            },
            {
              "pitch": 55,
              "velocity": 79,
              "position": 3.7604166666666665,
              "duration": 0.15625
            },
            {
              "pitch": 59,
              "velocity": 85,
              "position": 3.78125,
              "duration": 0.15625
            },
            {
              "pitch": 64,
              "velocity": 89,
              "position": 3.8020833333333335,
              "duration": 0.15625
            },
            {
              "pitch": 55,
              "velocity": 94,
              "position": 4.010416666666667,
              "duration": 0.22916666666666666
            },
            {
              "pitch": 59,
              "velocity": 94,
              "position": 4.03125,
              "duration": 0.22916666666666666
            },
            {
              "pitch": 64,
              "velocity": 94,
              "position": 4.052083333333333,
              "duration": 0.22916666666666666
            },
            {
              "pitch": 55,
              "velocity": 88,
              "position": 4.260416666666667,
              "duration": 0.22916666666666666
            },
            {
              "pitch": 59,
              "velocity": 88,
              "position": 4.28125,
              "duration": 0.22916666666666666
            },
            {
              "pitch": 64,
              "velocity": 88,
              "position": 4.302083333333333,
              "duration": 0.22916666666666666
            },
            {
              "pitch": 55,
              "velocity": 116,
              "position": 4.510416666666667,
              "duration": 0.09375
            },
            {
              "pitch": 59,
              "velocity": 116,
              "position": 4.53125,
              "duration": 0.09375
            },
            {
              "pitch": 64,
              "velocity": 116,
              "position": 4.552083333333333,
              "duration": 0.09375
            },
            {
              "pitch": 55,
              "velocity": 74,
              "position": 4.760416666666667,
              "duration": 0.22916666666666666
            },
            {
              "pitch": 59,
              "velocity": 83,
              "position": 4.78125,
              "duration": 0.22916666666666666
            },
            {
              "pitch": 64,
              "velocity": 87,
              "position": 4.802083333333333,
              "duration": 0.22916666666666666
            },
            {
              "pitch": 55,
              "velocity": 102,
              "position": 5.010416666666667,
              "duration": 0.22916666666666666
            },
            {
              "pitch": 59,
              "velocity": 102,
              "position": 5.03125,
              "duration": 0.22916666666666666
            },
            {
              "pitch": 64,
              "velocity": 102,
              "position": 5.052083333333333,
              "duration": 0.22916666666666666
            },
            {
              "pitch": 55,
              "velocity": 77,
              "position": 5.260416666666667,
              "duration": 0.22916666666666666
            },
            {
              "pitch": 59,
              "velocity": 77,
              "position": 5.28125,
              "duration": 0.22916666666666666
            },
            {
              "pitch": 64,
              "velocity": 77,
              "position": 5.302083333333333,
              "duration": 0.22916666666666666
            },
            {
              "pitch": 55,
              "velocity": 112,
              "position": 5.510416666666667,
              "duration": 0.21875
            },
            {
              "pitch": 59,
              "velocity": 112,
              "position": 5.53125,
              "duration": 0.21875
            },
            {
              "pitch": 64,
              "velocity": 112,
              "position": 5.552083333333333,
              "duration": 0.21875
            },
            {
              "pitch": 55,
              "velocity": 79,
              "position": 5.760416666666667,
              "duration": 0.22916666666666666
            },
            {
              "pitch": 59,
              "velocity": 83,
              "position": 5.78125,
              "duration": 0.22916666666666666
            },
            {
              "pitch": 64,
              "velocity": 88,
              "position": 5.802083333333333,
              "duration": 0.22916666666666666
            },
            {
              "pitch": 55,
              "velocity": 104,
              "position": 6.010416666666667,
              "duration": 0.22916666666666666
            },
            {
              "pitch": 59,
              "velocity": 104,
              "position": 6.03125,
              "duration": 0.22916666666666666
            },
            {
              "pitch": 64,
              "velocity": 104,
              "position": 6.052083333333333,
              "duration": 0.22916666666666666
            },
            {
              "pitch": 55,
              "velocity": 83,
              "position": 6.260416666666667,
              "duration": 0.22916666666666666
            },
            {
              "pitch": 59,
              "velocity": 83,
              "position": 6.28125,
              "duration": 0.22916666666666666
            },
            {
              "pitch": 64,
              "velocity": 83,
              "position": 6.302083333333333,
              "duration": 0.22916666666666666
            },
            {
              "pitch": 55,
              "velocity": 103,
              "position": 6.510416666666667,
              "duration": 0.22916666666666666
            },
            {
              "pitch": 59,
              "velocity": 103,
              "position": 6.53125,
              "duration": 0.22916666666666666
            },
            {
              "pitch": 64,
              "velocity": 103,
              "position": 6.552083333333333,
              "duration": 0.22916666666666666
            },
            {
              "pitch": 55,
              "velocity": 105,
              "position": 6.760416666666667,
              "duration": 0.46875
            },
            {
              "pitch": 59,
              "velocity": 105,
              "position": 6.78125,
              "duration": 0.46875
            },
            {
              "pitch": 64,
              "velocity": 105,
              "position": 6.802083333333333,
              "duration": 0.46875
            },
            {
              "pitch": 55,
              "velocity": 82,
              "position": 7.260416666666667,
              "duration": 0.22916666666666666
            },
            {
              "pitch": 59,
              "velocity": 85,
              "position": 7.28125,
              "duration": 0.22916666666666666
            },
            {
              "pitch": 64,
              "velocity": 91,
              "position": 7.302083333333333,
              "duration": 0.22916666666666666
            },
            {
              "pitch": 55,
              "velocity": 104,
              "position": 7.510416666666667,
              "duration": 0.22916666666666666
            },
            {
              "pitch": 59,
              "velocity": 104,
              "position": 7.53125,
              "duration": 0.22916666666666666
            },
            {
              "pitch": 64,
              "velocity": 105,
              "position": 7.552083333333333,
              "duration": 0.22916666666666666
            },
            {
              "pitch": 55,
              "velocity": 87,
              "position": 7.760416666666667,
              "duration": 0.15625
            },
            {
              "pitch": 59,
              "velocity": 87,
              "position": 7.78125,
              "duration": 0.15625
            },
            {
              "pitch": 64,
              "velocity": 87,
              "position": 7.802083333333333,
              "duration": 0.15625
            },
            {
              "pitch": 55,
              "velocity": 91,
              "position": 8.010416666666666,
              "duration": 0.22916666666666666
            },
            {
              "pitch": 59,
              "velocity": 91,
              "position": 8.03125,
              "duration": 0.22916666666666666
            },
            {
              "pitch": 64,
              "velocity": 104,
              "position": 8.052083333333334,
              "duration": 0.22916666666666666
            },
            {
              "pitch": 55,
              "velocity": 87,
              "position": 8.260416666666666,
              "duration": 0.22916666666666666
            },
            {
              "pitch": 59,
              "velocity": 87,
              "position": 8.28125,
              "duration": 0.22916666666666666
            },
            {
              "pitch": 64,
              "velocity": 87,
              "position": 8.302083333333334,
              "duration": 0.22916666666666666
            },
            {
              "pitch": 55,
              "velocity": 108,
              "position": 8.510416666666666,
              "duration": 0.22916666666666666
            },
            {
              "pitch": 59,
              "velocity": 108,
              "position": 8.53125,
              "duration": 0.22916666666666666
            },
            {
              "pitch": 64,
              "velocity": 108,
              "position": 8.552083333333334,
              "duration": 0.22916666666666666
            },
            {
              "pitch": 55,
              "velocity": 96,
              "position": 8.760416666666666,
              "duration": 0.20833333333333334
            },
            {
              "pitch": 59,
              "velocity": 95,
              "position": 8.78125,
              "duration": 0.19791666666666666
            },
            {
              "pitch": 64,
              "velocity": 94,
              "position": 8.802083333333334,
              "duration": 0.1875
            },
            {
              "pitch": 55,
              "velocity": 92,
              "position": 9.020833333333334,
              "duration": 0.20833333333333334
            },
            {
              "pitch": 59,
              "velocity": 101,
              "position": 9.03125,
              "duration": 0.21875
            },
            {
              "pitch": 55,
              "velocity": 91,
              "position": 9.260416666666666,
              "duration": 0.22916666666666666
            },
            {
              "pitch": 59,
              "velocity": 91,
              "position": 9.28125,
              "duration": 0.22916666666666666
            },
            {
              "pitch": 64,
              "velocity": 91,
              "position": 9.302083333333334,
              "duration": 0.22916666666666666
            },
            {
              "pitch": 55,
              "velocity": 108,
              "position": 9.510416666666666,
              "duration": 0.22916666666666666
            },
            {
              "pitch": 59,
              "velocity": 108,
              "position": 9.53125,
              "duration": 0.22916666666666666
            },
            {
              "pitch": 64,
              "velocity": 108,
              "position": 9.552083333333334,
              "duration": 0.22916666666666666
            },
            {
              "pitch": 55,
              "velocity": 80,
              "position": 9.760416666666666,
              "duration": 0.22916666666666666
            },
            {
              "pitch": 59,
              "velocity": 85,
              "position": 9.78125,
              "duration": 0.22916666666666666
            },
            {
              "pitch": 64,
              "velocity": 93,
              "position": 9.802083333333334,
              "duration": 0.22916666666666666
            },
            {
              "pitch": 55,
              "velocity": 106,
              "position": 10.010416666666666,
              "duration": 0.22916666666666666
            },
            {
              "pitch": 59,
              "velocity": 106,
              "position": 10.03125,
              "duration": 0.22916666666666666
            },
            {
              "pitch": 64,
              "velocity": 105,
              "position": 10.052083333333334,
              "duration": 0.22916666666666666
            },
            {
              "pitch": 55,
              "velocity": 78,
              "position": 10.260416666666666,
              "duration": 0.22916666666666666
            },
            {
              "pitch": 59,
              "velocity": 85,
              "position": 10.28125,
              "duration": 0.22916666666666666
            },
            {
              "pitch": 64,
              "velocity": 78,
              "position": 10.302083333333334,
              "duration": 0.22916666666666666
            },
            {
              "pitch": 55,
              "velocity": 112,
              "position": 10.510416666666666,
              "duration": 0.09375
            },
            {
              "pitch": 59,
              "velocity": 112,
              "position": 10.53125,
              "duration": 0.09375
            },
            {
              "pitch": 64,
              "velocity": 112,
              "position": 10.552083333333334,
              "duration": 0.09375
            },
            {
              "pitch": 55,
              "velocity": 89,
              "position": 10.760416666666666,
              "duration": 0.22916666666666666
            },
            {
              "pitch": 59,
              "velocity": 89,
              "position": 10.78125,
              "duration": 0.22916666666666666
            },
            {
              "pitch": 64,
              "velocity": 89,
              "position": 10.802083333333334,
              "duration": 0.22916666666666666
            },
            {
              "pitch": 55,
              "velocity": 91,
              "position": 11.010416666666666,
              "duration": 0.22916666666666666
            },
            {
              "pitch": 59,
              "velocity": 91,
              "position": 11.03125,
              "duration": 0.22916666666666666
            },
            {
              "pitch": 64,
              "velocity": 104,
              "position": 11.052083333333334,
              "duration": 0.22916666666666666
            },
            {
              "pitch": 55,
              "velocity": 80,
              "position": 11.260416666666666,
              "duration": 0.22916666666666666
            },
            {
              "pitch": 59,
              "velocity": 87,
              "position": 11.28125,
              "duration": 0.22916666666666666
            },
            {
              "pitch": 64,
              "velocity": 91,
              "position": 11.302083333333334,
              "duration": 0.22916666666666666
            },
            {
              "pitch": 55,
              "velocity": 110,
              "position": 11.510416666666666,
              "duration": 0.22916666666666666
            },
            {
              "pitch": 59,
              "velocity": 110,
              "position": 11.53125,
              "duration": 0.22916666666666666
            },
            {
              "pitch": 64,
              "velocity": 110,
              "position": 11.552083333333334,
              "duration": 0.22916666666666666
            },
            {
              "pitch": 55,
              "velocity": 74,
              "position": 11.760416666666666,
              "duration": 0.16666666666666666
            },
            {
              "pitch": 59,
              "velocity": 80,
              "position": 11.78125,
              "duration": 0.16666666666666666
            },
            {
              "pitch": 64,
              "velocity": 85,
              "position": 11.802083333333334,
              "duration": 0.16666666666666666
            },
            {
              "pitch": 55,
              "velocity": 102,
              "position": 12.010416666666666,
              "duration": 0.22916666666666666
            },
            {
              "pitch": 59,
              "velocity": 102,
              "position": 12.03125,
              "duration": 0.22916666666666666
            },
            {
              "pitch": 64,
              "velocity": 102,
              "position": 12.052083333333334,
              "duration": 0.22916666666666666
            },
            {
              "pitch": 55,
              "velocity": 82,
              "position": 12.260416666666666,
              "duration": 0.22916666666666666
            },
            {
              "pitch": 59,
              "velocity": 82,
              "position": 12.28125,
              "duration": 0.22916666666666666
            },
            {
              "pitch": 64,
              "velocity": 81,
              "position": 12.302083333333334,
              "duration": 0.22916666666666666
            },
            {
              "pitch": 55,
              "velocity": 96,
              "position": 12.510416666666666,
              "duration": 0.22916666666666666
            },
            {
              "pitch": 59,
              "velocity": 96,
              "position": 12.53125,
              "duration": 0.22916666666666666
            },
            {
              "pitch": 64,
              "velocity": 97,
              "position": 12.552083333333334,
              "duration": 0.22916666666666666
            },
            {
              "pitch": 55,
              "velocity": 98,
              "position": 12.760416666666666,
              "duration": 0.4583333333333333
            },
            {
              "pitch": 59,
              "velocity": 98,
              "position": 12.78125,
              "duration": 0.4583333333333333
            },
            {
              "pitch": 64,
              "velocity": 98,
              "position": 12.802083333333334,
              "duration": 0.4583333333333333
            },
            {
              "pitch": 55,
              "velocity": 87,
              "position": 13.260416666666666,
              "duration": 0.22916666666666666
            },
            {
              "pitch": 59,
              "velocity": 87,
              "position": 13.28125,
              "duration": 0.22916666666666666
            },
            {
              "pitch": 64,
              "velocity": 87,
              "position": 13.302083333333334,
              "duration": 0.22916666666666666
            },
            {
              "pitch": 55,
              "velocity": 109,
              "position": 13.510416666666666,
              "duration": 0.22916666666666666
            },
            {
              "pitch": 59,
              "velocity": 110,
              "position": 13.53125,
              "duration": 0.22916666666666666
            },
            {
              "pitch": 64,
              "velocity": 110,
              "position": 13.552083333333334,
              "duration": 0.22916666666666666
            },
            {
              "pitch": 55,
              "velocity": 93,
              "position": 13.760416666666666,
              "duration": 0.4791666666666667
            },
            {
              "pitch": 59,
              "velocity": 93,
              "position": 13.78125,
              "duration": 0.4791666666666667
            },
            {
              "pitch": 64,
              "velocity": 93,
              "position": 13.802083333333334,
              "duration": 0.4791666666666667
            },
            {
              "pitch": 55,
              "velocity": 89,
              "position": 14.260416666666666,
              "duration": 0.22916666666666666
            },
            {
              "pitch": 59,
              "velocity": 89,
              "position": 14.28125,
              "duration": 0.22916666666666666
            },
            {
              "pitch": 64,
              "velocity": 89,
              "position": 14.302083333333334,
              "duration": 0.22916666666666666
            },
            {
              "pitch": 55,
              "velocity": 104,
              "position": 14.510416666666666,
              "duration": 0.08333333333333333
            },
            {
              "pitch": 59,
              "velocity": 104,
              "position": 14.53125,
              "duration": 0.08333333333333333
            },
            {
              "pitch": 64,
              "velocity": 104,
              "position": 14.552083333333334,
              "duration": 0.08333333333333333
            },
            {
              "pitch": 55,
              "velocity": 89,
              "position": 14.760416666666666,
              "duration": 0.22916666666666666
            },
            {
              "pitch": 59,
              "velocity": 89,
              "position": 14.78125,
              "duration": 0.22916666666666666
            },
            {
              "pitch": 64,
              "velocity": 89,
              "position": 14.802083333333334,
              "duration": 0.22916666666666666
            },
            {
              "pitch": 55,
              "velocity": 104,
              "position": 15.010416666666666,
              "duration": 0.22916666666666666
            },
            {
              "pitch": 59,
              "velocity": 104,
              "position": 15.03125,
              "duration": 0.22916666666666666
            },
            {
              "pitch": 64,
              "velocity": 104,
              "position": 15.052083333333334,
              "duration": 0.22916666666666666
            },
            {
              "pitch": 55,
              "velocity": 80,
              "position": 15.260416666666666,
              "duration": 0.22916666666666666
            },
            {
              "pitch": 59,
              "velocity": 80,
              "position": 15.28125,
              "duration": 0.22916666666666666
            },
            {
              "pitch": 64,
              "velocity": 90,
              "position": 15.302083333333334,
              "duration": 0.22916666666666666
            },
            {
              "pitch": 55,
              "velocity": 104,
              "position": 15.510416666666666,
              "duration": 0.4166666666666667
            },
            {
              "pitch": 59,
              "velocity": 104,
              "position": 15.53125,
              "duration": 0.4166666666666667
            },
            {
              "pitch": 64,
              "velocity": 104,
              "position": 15.552083333333334,
              "duration": 0.4166666666666667
            }
          ]
        },
        "12": {
          "ctab": {
            "srcChannel": 12,
            "name": "Track 13",
            "accType": "CHORD2",
            "editable": false,
            "mutedNotes": [],
            "mutedChords": [],
            "autoStart": false,
            "sourceChordNote": 0,
            "sourceChordType": "Maj7",
            "ctb2Low": null,
            "ctb2Main": {
              "ntr": "ROOT_TRANSPOSITION",
              "ntt": "CHORD",
              "bassOn": false,
              "chordRootUpperLimit": 6,
              "noteLowLimit": 0,
              "noteHighLimit": 79,
              "rtr": "STOP"
            },
            "ctb2High": null
          },
          "notes": [
            {
              "pitch": 55,
              "velocity": 87,
              "position": 0.010416666666666666,
              "duration": 0.10416666666666667
            },
            {
              "pitch": 48,
              "velocity": 77,
              "position": 0.010416666666666666,
              "duration": 0.14583333333333334
            },
            {
              "pitch": 75,
              "velocity": 106,
              "position": 0.020833333333333332,
              "duration": 0.2604166666666667
            },
            {
              "pitch": 48,
              "velocity": 53,
              "position": 0.2708333333333333,
              "duration": 0.09375
            },
            {
              "pitch": 55,
              "velocity": 57,
              "position": 0.25,
              "duration": 0.125
            },
            {
              "pitch": 76,
              "velocity": 81,
              "position": 0.3020833333333333,
              "duration": 0.1875
            },
            {
              "pitch": 48,
              "velocity": 77,
              "position": 0.5104166666666666,
              "duration": 0.13541666666666666
            },
            {
              "pitch": 57,
              "velocity": 79,
              "position": 0.5208333333333334,
              "duration": 0.13541666666666666
            },
            {
              "pitch": 84,
              "velocity": 97,
              "position": 0.5520833333333334,
              "duration": 0.21875
            },
            {
              "pitch": 48,
              "velocity": 53,
              "position": 0.7395833333333334,
              "duration": 0.125
            },
            {
              "pitch": 57,
              "velocity": 51,
              "position": 0.7604166666666666,
              "duration": 0.125
            },
            {
              "pitch": 75,
              "velocity": 74,
              "position": 0.7708333333333334,
              "duration": 0.23958333333333334
            },
            {
              "pitch": 55,
              "velocity": 67,
              "position": 1.0208333333333333,
              "duration": 0.07291666666666667
            },
            {
              "pitch": 48,
              "velocity": 58,
              "position": 1.0104166666666667,
              "duration": 0.10416666666666667
            },
            {
              "pitch": 76,
              "velocity": 77,
              "position": 1.0208333333333333,
              "duration": 0.23958333333333334
            },
            {
              "pitch": 48,
              "velocity": 39,
              "position": 1.2604166666666667,
              "duration": 0.0625
            },
            {
              "pitch": 55,
              "velocity": 54,
              "position": 1.25,
              "duration": 0.08333333333333333
            },
            {
              "pitch": 84,
              "velocity": 93,
              "position": 1.2916666666666667,
              "duration": 0.23958333333333334
            },
            {
              "pitch": 48,
              "velocity": 73,
              "position": 1.5104166666666667,
              "duration": 0.11458333333333333
            },
            {
              "pitch": 57,
              "velocity": 83,
              "position": 1.53125,
              "duration": 0.10416666666666667
            },
            {
              "pitch": 75,
              "velocity": 94,
              "position": 1.5208333333333333,
              "duration": 0.23958333333333334
            },
            {
              "pitch": 57,
              "velocity": 48,
              "position": 1.75,
              "duration": 0.09375
            },
            {
              "pitch": 48,
              "velocity": 55,
              "position": 1.75,
              "duration": 0.10416666666666667
            },
            {
              "pitch": 76,
              "velocity": 89,
              "position": 1.78125,
              "duration": 0.22916666666666666
            },
            {
              "pitch": 55,
              "velocity": 74,
              "position": 2.0208333333333335,
              "duration": 0.09375
            },
            {
              "pitch": 48,
              "velocity": 58,
              "position": 2.0104166666666665,
              "duration": 0.11458333333333333
            },
            {
              "pitch": 84,
              "velocity": 93,
              "position": 2.03125,
              "duration": 0.20833333333333334
            },
            {
              "pitch": 55,
              "velocity": 54,
              "position": 2.25,
              "duration": 0.09375
            },
            {
              "pitch": 48,
              "velocity": 42,
              "position": 2.2604166666666665,
              "duration": 0.08333333333333333
            },
            {
              "pitch": 76,
              "velocity": 70,
              "position": 2.3020833333333335,
              "duration": 0.11458333333333333
            },
            {
              "pitch": 48,
              "velocity": 81,
              "position": 2.5,
              "duration": 0.10416666666666667
            },
            {
              "pitch": 57,
              "velocity": 83,
              "position": 2.5208333333333335,
              "duration": 0.08333333333333333
            },
            {
              "pitch": 79,
              "velocity": 89,
              "position": 2.53125,
              "duration": 0.09375
            },
            {
              "pitch": 84,
              "velocity": 81,
              "position": 2.5208333333333335,
              "duration": 0.19791666666666666
            },
            {
              "pitch": 81,
              "velocity": 77,
              "position": 2.625,
              "duration": 0.16666666666666666
            },
            {
              "pitch": 48,
              "velocity": 67,
              "position": 2.7395833333333335,
              "duration": 0.11458333333333333
            },
            {
              "pitch": 57,
              "velocity": 60,
              "position": 2.7395833333333335,
              "duration": 0.125
            },
            {
              "pitch": 79,
              "velocity": 81,
              "position": 3,
              "duration": 0.07291666666666667
            },
            {
              "pitch": 55,
              "velocity": 63,
              "position": 3,
              "duration": 0.08333333333333333
            },
            {
              "pitch": 48,
              "velocity": 61,
              "position": 2.9895833333333335,
              "duration": 0.11458333333333333
            },
            {
              "pitch": 84,
              "velocity": 81,
              "position": 3,
              "duration": 0.16666666666666666
            },
            {
              "pitch": 81,
              "velocity": 64,
              "position": 3.1145833333333335,
              "duration": 0.13541666666666666
            },
            {
              "pitch": 79,
              "velocity": 64,
              "position": 3.2083333333333335,
              "duration": 0.11458333333333333
            },
            {
              "pitch": 55,
              "velocity": 45,
              "position": 3.2708333333333335,
              "duration": 0.08333333333333333
            },
            {
              "pitch": 48,
              "velocity": 41,
              "position": 3.2708333333333335,
              "duration": 0.09375
            },
            {
              "pitch": 76,
              "velocity": 67,
              "position": 3.3020833333333335,
              "duration": 0.09375
            },
            {
              "pitch": 48,
              "velocity": 70,
              "position": 3.5,
              "duration": 0.11458333333333333
            },
            {
              "pitch": 57,
              "velocity": 87,
              "position": 3.5208333333333335,
              "duration": 0.10416666666666667
            },
            {
              "pitch": 74,
              "velocity": 93,
              "position": 3.5,
              "duration": 0.1875
            },
            {
              "pitch": 79,
              "velocity": 73,
              "position": 3.4895833333333335,
              "duration": 0.21875
            },
            {
              "pitch": 48,
              "velocity": 46,
              "position": 3.75,
              "duration": 0.11458333333333333
            },
            {
              "pitch": 57,
              "velocity": 51,
              "position": 3.75,
              "duration": 0.125
            },
            {
              "pitch": 71,
              "velocity": 53,
              "position": 3.78125,
              "duration": 0.14583333333333334
            },
            {
              "pitch": 55,
              "velocity": 71,
              "position": 4.03125,
              "duration": 0.08333333333333333
            },
            {
              "pitch": 48,
              "velocity": 61,
              "position": 4.020833333333333,
              "duration": 0.11458333333333333
            },
            {
              "pitch": 75,
              "velocity": 84,
              "position": 4.010416666666667,
              "duration": 0.15625
            },
            {
              "pitch": 79,
              "velocity": 46,
              "position": 4.020833333333333,
              "duration": 0.1875
            },
            {
              "pitch": 48,
              "velocity": 32,
              "position": 4.270833333333333,
              "duration": 0.08333333333333333
            },
            {
              "pitch": 55,
              "velocity": 45,
              "position": 4.260416666666667,
              "duration": 0.10416666666666667
            },
            {
              "pitch": 79,
              "velocity": 50,
              "position": 4.270833333333333,
              "duration": 0.09375
            },
            {
              "pitch": 76,
              "velocity": 64,
              "position": 4.270833333333333,
              "duration": 0.13541666666666666
            },
            {
              "pitch": 48,
              "velocity": 73,
              "position": 4.520833333333333,
              "duration": 0.10416666666666667
            },
            {
              "pitch": 57,
              "velocity": 74,
              "position": 4.53125,
              "duration": 0.13541666666666666
            },
            {
              "pitch": 79,
              "velocity": 81,
              "position": 4.510416666666667,
              "duration": 0.1875
            },
            {
              "pitch": 74,
              "velocity": 97,
              "position": 4.510416666666667,
              "duration": 0.19791666666666666
            },
            {
              "pitch": 57,
              "velocity": 11,
              "position": 4.729166666666667,
              "duration": 0.125
            },
            {
              "pitch": 48,
              "velocity": 24,
              "position": 4.739583333333333,
              "duration": 0.11458333333333333
            },
            {
              "pitch": 71,
              "velocity": 84,
              "position": 4.770833333333333,
              "duration": 0.125
            },
            {
              "pitch": 55,
              "velocity": 71,
              "position": 5.020833333333333,
              "duration": 0.07291666666666667
            },
            {
              "pitch": 48,
              "velocity": 64,
              "position": 5.010416666666667,
              "duration": 0.10416666666666667
            },
            {
              "pitch": 76,
              "velocity": 50,
              "position": 4.989583333333333,
              "duration": 0.19791666666666666
            },
            {
              "pitch": 69,
              "velocity": 93,
              "position": 5,
              "duration": 0.19791666666666666
            },
            {
              "pitch": 48,
              "velocity": 41,
              "position": 5.260416666666667,
              "duration": 0.08333333333333333
            },
            {
              "pitch": 55,
              "velocity": 45,
              "position": 5.260416666666667,
              "duration": 0.08333333333333333
            },
            {
              "pitch": 67,
              "velocity": 70,
              "position": 5.291666666666667,
              "duration": 0.13541666666666666
            },
            {
              "pitch": 48,
              "velocity": 81,
              "position": 5.5,
              "duration": 0.11458333333333333
            },
            {
              "pitch": 57,
              "velocity": 79,
              "position": 5.520833333333333,
              "duration": 0.10416666666666667
            },
            {
              "pitch": 69,
              "velocity": 84,
              "position": 5.510416666666667,
              "duration": 0.13541666666666666
            },
            {
              "pitch": 48,
              "velocity": 44,
              "position": 5.75,
              "duration": 0.10416666666666667
            },
            {
              "pitch": 57,
              "velocity": 38,
              "position": 5.760416666666667,
              "duration": 0.10416666666666667
            },
            {
              "pitch": 55,
              "velocity": 71,
              "position": 6.020833333333333,
              "duration": 0.052083333333333336
            },
            {
              "pitch": 48,
              "velocity": 55,
              "position": 6,
              "duration": 0.11458333333333333
            },
            {
              "pitch": 76,
              "velocity": 73,
              "position": 5.791666666666667,
              "duration": 0.3333333333333333
            },
            {
              "pitch": 71,
              "velocity": 73,
              "position": 5.802083333333333,
              "duration": 0.3333333333333333
            },
            {
              "pitch": 67,
              "velocity": 84,
              "position": 5.791666666666667,
              "duration": 0.3645833333333333
            },
            {
              "pitch": 55,
              "velocity": 51,
              "position": 6.270833333333333,
              "duration": 0.07291666666666667
            },
            {
              "pitch": 48,
              "velocity": 50,
              "position": 6.270833333333333,
              "duration": 0.08333333333333333
            },
            {
              "pitch": 76,
              "velocity": 77,
              "position": 6.270833333333333,
              "duration": 0.125
            },
            {
              "pitch": 67,
              "velocity": 61,
              "position": 6.28125,
              "duration": 0.11458333333333333
            },
            {
              "pitch": 71,
              "velocity": 93,
              "position": 6.28125,
              "duration": 0.125
            },
            {
              "pitch": 48,
              "velocity": 67,
              "position": 6.520833333333333,
              "duration": 0.09375
            },
            {
              "pitch": 57,
              "velocity": 74,
              "position": 6.53125,
              "duration": 0.08333333333333333
            },
            {
              "pitch": 76,
              "velocity": 55,
              "position": 6.510416666666667,
              "duration": 0.125
            },
            {
              "pitch": 69,
              "velocity": 81,
              "position": 6.510416666666667,
              "duration": 0.16666666666666666
            },
            {
              "pitch": 48,
              "velocity": 67,
              "position": 6.770833333333333,
              "duration": 0.10416666666666667
            },
            {
              "pitch": 57,
              "velocity": 57,
              "position": 6.770833333333333,
              "duration": 0.10416666666666667
            },
            {
              "pitch": 67,
              "velocity": 58,
              "position": 6.760416666666667,
              "duration": 0.14583333333333334
            },
            {
              "pitch": 55,
              "velocity": 63,
              "position": 7.020833333333333,
              "duration": 0.0625
            },
            {
              "pitch": 48,
              "velocity": 39,
              "position": 7,
              "duration": 0.10416666666666667
            },
            {
              "pitch": 69,
              "velocity": 93,
              "position": 7.010416666666667,
              "duration": 0.15625
            },
            {
              "pitch": 69,
              "velocity": 81,
              "position": 7.270833333333333,
              "duration": 0.07291666666666667
            },
            {
              "pitch": 55,
              "velocity": 34,
              "position": 7.260416666666667,
              "duration": 0.09375
            },
            {
              "pitch": 71,
              "velocity": 61,
              "position": 7.28125,
              "duration": 0.07291666666666667
            },
            {
              "pitch": 48,
              "velocity": 36,
              "position": 7.270833333333333,
              "duration": 0.09375
            },
            {
              "pitch": 67,
              "velocity": 61,
              "position": 7.270833333333333,
              "duration": 0.09375
            },
            {
              "pitch": 76,
              "velocity": 81,
              "position": 7.270833333333333,
              "duration": 0.125
            },
            {
              "pitch": 48,
              "velocity": 84,
              "position": 7.510416666666667,
              "duration": 0.125
            },
            {
              "pitch": 57,
              "velocity": 79,
              "position": 7.520833333333333,
              "duration": 0.125
            },
            {
              "pitch": 48,
              "velocity": 55,
              "position": 7.75,
              "duration": 0.125
            },
            {
              "pitch": 57,
              "velocity": 54,
              "position": 7.770833333333333,
              "duration": 0.10416666666666667
            },
            {
              "pitch": 55,
              "velocity": 71,
              "position": 8.010416666666666,
              "duration": 0.10416666666666667
            },
            {
              "pitch": 48,
              "velocity": 73,
              "position": 8,
              "duration": 0.15625
            },
            {
              "pitch": 55,
              "velocity": 45,
              "position": 8.260416666666666,
              "duration": 0.09375
            },
            {
              "pitch": 48,
              "velocity": 36,
              "position": 8.270833333333334,
              "duration": 0.08333333333333333
            },
            {
              "pitch": 79,
              "velocity": 107,
              "position": 8.28125,
              "duration": 0.08333333333333333
            },
            {
              "pitch": 84,
              "velocity": 93,
              "position": 8.270833333333334,
              "duration": 0.10416666666666667
            },
            {
              "pitch": 71,
              "velocity": 81,
              "position": 8.28125,
              "duration": 0.09375
            },
            {
              "pitch": 84,
              "velocity": 81,
              "position": 8.520833333333334,
              "duration": 0.09375
            },
            {
              "pitch": 79,
              "velocity": 93,
              "position": 8.520833333333334,
              "duration": 0.09375
            },
            {
              "pitch": 48,
              "velocity": 89,
              "position": 8.510416666666666,
              "duration": 0.11458333333333333
            },
            {
              "pitch": 71,
              "velocity": 70,
              "position": 8.520833333333334,
              "duration": 0.11458333333333333
            },
            {
              "pitch": 57,
              "velocity": 83,
              "position": 8.53125,
              "duration": 0.125
            },
            {
              "pitch": 57,
              "velocity": 43,
              "position": 8.75,
              "duration": 0.09375
            },
            {
              "pitch": 48,
              "velocity": 27,
              "position": 8.75,
              "duration": 0.09375
            },
            {
              "pitch": 84,
              "velocity": 81,
              "position": 8.760416666666666,
              "duration": 0.10416666666666667
            },
            {
              "pitch": 71,
              "velocity": 70,
              "position": 8.760416666666666,
              "duration": 0.10416666666666667
            },
            {
              "pitch": 79,
              "velocity": 89,
              "position": 8.760416666666666,
              "duration": 0.10416666666666667
            },
            {
              "pitch": 55,
              "velocity": 71,
              "position": 9.010416666666666,
              "duration": 0.08333333333333333
            },
            {
              "pitch": 84,
              "velocity": 81,
              "position": 9.041666666666666,
              "duration": 0.10416666666666667
            },
            {
              "pitch": 79,
              "velocity": 93,
              "position": 9.041666666666666,
              "duration": 0.10416666666666667
            },
            {
              "pitch": 71,
              "velocity": 70,
              "position": 9.041666666666666,
              "duration": 0.10416666666666667
            },
            {
              "pitch": 48,
              "velocity": 73,
              "position": 9,
              "duration": 0.15625
            },
            {
              "pitch": 48,
              "velocity": 42,
              "position": 9.25,
              "duration": 0.09375
            },
            {
              "pitch": 55,
              "velocity": 48,
              "position": 9.25,
              "duration": 0.09375
            },
            {
              "pitch": 84,
              "velocity": 77,
              "position": 9.28125,
              "duration": 0.10416666666666667
            },
            {
              "pitch": 71,
              "velocity": 70,
              "position": 9.28125,
              "duration": 0.10416666666666667
            },
            {
              "pitch": 79,
              "velocity": 93,
              "position": 9.28125,
              "duration": 0.10416666666666667
            },
            {
              "pitch": 48,
              "velocity": 84,
              "position": 9.5,
              "duration": 0.11458333333333333
            },
            {
              "pitch": 57,
              "velocity": 83,
              "position": 9.510416666666666,
              "duration": 0.10416666666666667
            },
            {
              "pitch": 57,
              "velocity": 43,
              "position": 9.75,
              "duration": 0.0625
            },
            {
              "pitch": 55,
              "velocity": 63,
              "position": 9.760416666666666,
              "duration": 0.0625
            },
            {
              "pitch": 48,
              "velocity": 64,
              "position": 9.729166666666666,
              "duration": 0.11458333333333333
            },
            {
              "pitch": 78,
              "velocity": 100,
              "position": 9.78125,
              "duration": 0.11458333333333333
            },
            {
              "pitch": 84,
              "velocity": 89,
              "position": 9.78125,
              "duration": 0.34375
            },
            {
              "pitch": 71,
              "velocity": 70,
              "position": 9.791666666666666,
              "duration": 0.3541666666666667
            },
            {
              "pitch": 79,
              "velocity": 73,
              "position": 9.875,
              "duration": 0.2708333333333333
            },
            {
              "pitch": 48,
              "velocity": 73,
              "position": 10,
              "duration": 0.3333333333333333
            },
            {
              "pitch": 79,
              "velocity": 84,
              "position": 10.28125,
              "duration": 0.09375
            },
            {
              "pitch": 55,
              "velocity": 83,
              "position": 10.010416666666666,
              "duration": 0.375
            },
            {
              "pitch": 71,
              "velocity": 67,
              "position": 10.28125,
              "duration": 0.10416666666666667
            },
            {
              "pitch": 84,
              "velocity": 70,
              "position": 10.28125,
              "duration": 0.10416666666666667
            },
            {
              "pitch": 48,
              "velocity": 77,
              "position": 10.5,
              "duration": 0.125
            },
            {
              "pitch": 57,
              "velocity": 67,
              "position": 10.520833333333334,
              "duration": 0.11458333333333333
            },
            {
              "pitch": 84,
              "velocity": 73,
              "position": 10.520833333333334,
              "duration": 0.11458333333333333
            },
            {
              "pitch": 71,
              "velocity": 73,
              "position": 10.53125,
              "duration": 0.10416666666666667
            },
            {
              "pitch": 79,
              "velocity": 97,
              "position": 10.53125,
              "duration": 0.10416666666666667
            },
            {
              "pitch": 48,
              "velocity": 64,
              "position": 10.760416666666666,
              "duration": 0.09375
            },
            {
              "pitch": 57,
              "velocity": 54,
              "position": 10.760416666666666,
              "duration": 0.10416666666666667
            },
            {
              "pitch": 79,
              "velocity": 84,
              "position": 10.770833333333334,
              "duration": 0.09375
            },
            {
              "pitch": 84,
              "velocity": 73,
              "position": 10.770833333333334,
              "duration": 0.11458333333333333
            },
            {
              "pitch": 71,
              "velocity": 64,
              "position": 10.770833333333334,
              "duration": 0.11458333333333333
            },
            {
              "pitch": 55,
              "velocity": 57,
              "position": 11.010416666666666,
              "duration": 0.08333333333333333
            },
            {
              "pitch": 79,
              "velocity": 84,
              "position": 11.020833333333334,
              "duration": 0.10416666666666667
            },
            {
              "pitch": 84,
              "velocity": 67,
              "position": 11.020833333333334,
              "duration": 0.11458333333333333
            },
            {
              "pitch": 71,
              "velocity": 58,
              "position": 11.020833333333334,
              "duration": 0.11458333333333333
            },
            {
              "pitch": 48,
              "velocity": 70,
              "position": 10.989583333333334,
              "duration": 0.15625
            },
            {
              "pitch": 55,
              "velocity": 45,
              "position": 11.25,
              "duration": 0.08333333333333333
            },
            {
              "pitch": 48,
              "velocity": 61,
              "position": 11.25,
              "duration": 0.09375
            },
            {
              "pitch": 71,
              "velocity": 73,
              "position": 11.270833333333334,
              "duration": 0.10416666666666667
            },
            {
              "pitch": 79,
              "velocity": 93,
              "position": 11.270833333333334,
              "duration": 0.10416666666666667
            },
            {
              "pitch": 84,
              "velocity": 81,
              "position": 11.270833333333334,
              "duration": 0.125
            },
            {
              "pitch": 48,
              "velocity": 70,
              "position": 11.489583333333334,
              "duration": 0.11458333333333333
            },
            {
              "pitch": 57,
              "velocity": 87,
              "position": 11.5,
              "duration": 0.125
            },
            {
              "pitch": 48,
              "velocity": 58,
              "position": 11.729166666666666,
              "duration": 0.11458333333333333
            },
            {
              "pitch": 57,
              "velocity": 54,
              "position": 11.739583333333334,
              "duration": 0.10416666666666667
            },
            {
              "pitch": 55,
              "velocity": 79,
              "position": 12.010416666666666,
              "duration": 0.08333333333333333
            },
            {
              "pitch": 87,
              "velocity": 93,
              "position": 12.010416666666666,
              "duration": 0.125
            },
            {
              "pitch": 48,
              "velocity": 61,
              "position": 12,
              "duration": 0.15625
            },
            {
              "pitch": 91,
              "velocity": 80,
              "position": 12.010416666666666,
              "duration": 0.2708333333333333
            },
            {
              "pitch": 55,
              "velocity": 48,
              "position": 12.25,
              "duration": 0.09375
            },
            {
              "pitch": 87,
              "velocity": 61,
              "position": 12.239583333333334,
              "duration": 0.11458333333333333
            },
            {
              "pitch": 48,
              "velocity": 64,
              "position": 12.260416666666666,
              "duration": 0.09375
            },
            {
              "pitch": 86,
              "velocity": 70,
              "position": 12.3125,
              "duration": 0.08333333333333333
            },
            {
              "pitch": 84,
              "velocity": 84,
              "position": 12.375,
              "duration": 0.0625
            },
            {
              "pitch": 88,
              "velocity": 24,
              "position": 12.520833333333334,
              "duration": 0.11458333333333333
            },
            {
              "pitch": 82,
              "velocity": 106,
              "position": 12.510416666666666,
              "duration": 0.13541666666666666
            },
            {
              "pitch": 48,
              "velocity": 84,
              "position": 12.510416666666666,
              "duration": 0.13541666666666666
            },
            {
              "pitch": 57,
              "velocity": 79,
              "position": 12.53125,
              "duration": 0.2708333333333333
            },
            {
              "pitch": 48,
              "velocity": 27,
              "position": 12.75,
              "duration": 0.08333333333333333
            },
            {
              "pitch": 55,
              "velocity": 57,
              "position": 12.770833333333334,
              "duration": 0.09375
            },
            {
              "pitch": 88,
              "velocity": 61,
              "position": 12.78125,
              "duration": 0.09375
            },
            {
              "pitch": 81,
              "velocity": 97,
              "position": 12.791666666666666,
              "duration": 0.10416666666666667
            },
            {
              "pitch": 88,
              "velocity": 39,
              "position": 13.0625,
              "duration": 0.041666666666666664
            },
            {
              "pitch": 79,
              "velocity": 81,
              "position": 13.020833333333334,
              "duration": 0.16666666666666666
            },
            {
              "pitch": 48,
              "velocity": 67,
              "position": 13.020833333333334,
              "duration": 0.2916666666666667
            },
            {
              "pitch": 55,
              "velocity": 79,
              "position": 13.03125,
              "duration": 0.3125
            },
            {
              "pitch": 88,
              "velocity": 77,
              "position": 13.291666666666666,
              "duration": 0.07291666666666667
            },
            {
              "pitch": 81,
              "velocity": 77,
              "position": 13.28125,
              "duration": 0.10416666666666667
            },
            {
              "pitch": 57,
              "velocity": 83,
              "position": 13.510416666666666,
              "duration": 0.14583333333333334
            },
            {
              "pitch": 79,
              "velocity": 102,
              "position": 13.510416666666666,
              "duration": 0.14583333333333334
            },
            {
              "pitch": 48,
              "velocity": 81,
              "position": 13.510416666666666,
              "duration": 0.3229166666666667
            },
            {
              "pitch": 55,
              "velocity": 67,
              "position": 13.760416666666666,
              "duration": 0.09375
            },
            {
              "pitch": 81,
              "velocity": 55,
              "position": 13.760416666666666,
              "duration": 0.10416666666666667
            },
            {
              "pitch": 77,
              "velocity": 97,
              "position": 13.760416666666666,
              "duration": 0.125
            },
            {
              "pitch": 75,
              "velocity": 113,
              "position": 14,
              "duration": 0.0625
            },
            {
              "pitch": 79,
              "velocity": 53,
              "position": 14.010416666666666,
              "duration": 0.16666666666666666
            },
            {
              "pitch": 76,
              "velocity": 84,
              "position": 14.083333333333334,
              "duration": 0.1875
            },
            {
              "pitch": 48,
              "velocity": 41,
              "position": 14.052083333333334,
              "duration": 0.28125
            },
            {
              "pitch": 71,
              "velocity": 61,
              "position": 14.260416666666666,
              "duration": 0.09375
            },
            {
              "pitch": 55,
              "velocity": 32,
              "position": 14.0625,
              "duration": 0.3125
            },
            {
              "pitch": 81,
              "velocity": 70,
              "position": 14.510416666666666,
              "duration": 0.10416666666666667
            },
            {
              "pitch": 77,
              "velocity": 89,
              "position": 14.510416666666666,
              "duration": 0.11458333333333333
            },
            {
              "pitch": 48,
              "velocity": 84,
              "position": 14.520833333333334,
              "duration": 0.11458333333333333
            },
            {
              "pitch": 57,
              "velocity": 79,
              "position": 14.520833333333334,
              "duration": 0.125
            },
            {
              "pitch": 57,
              "velocity": 57,
              "position": 14.75,
              "duration": 0.11458333333333333
            },
            {
              "pitch": 48,
              "velocity": 67,
              "position": 14.75,
              "duration": 0.125
            },
            {
              "pitch": 79,
              "velocity": 81,
              "position": 14.760416666666666,
              "duration": 0.11458333333333333
            },
            {
              "pitch": 75,
              "velocity": 106,
              "position": 14.760416666666666,
              "duration": 0.1875
            },
            {
              "pitch": 55,
              "velocity": 74,
              "position": 15.020833333333334,
              "duration": 0.0625
            },
            {
              "pitch": 81,
              "velocity": 44,
              "position": 15.03125,
              "duration": 0.07291666666666667
            },
            {
              "pitch": 79,
              "velocity": 77,
              "position": 15.041666666666666,
              "duration": 0.11458333333333333
            },
            {
              "pitch": 48,
              "velocity": 70,
              "position": 15,
              "duration": 0.16666666666666666
            },
            {
              "pitch": 77,
              "velocity": 73,
              "position": 15.072916666666666,
              "duration": 0.13541666666666666
            },
            {
              "pitch": 76,
              "velocity": 73,
              "position": 15.135416666666666,
              "duration": 0.13541666666666666
            },
            {
              "pitch": 48,
              "velocity": 35,
              "position": 15.229166666666666,
              "duration": 0.13541666666666666
            },
            {
              "pitch": 55,
              "velocity": 63,
              "position": 15.239583333333334,
              "duration": 0.125
            },
            {
              "pitch": 71,
              "velocity": 70,
              "position": 15.25,
              "duration": 0.125
            },
            {
              "pitch": 48,
              "velocity": 61,
              "position": 15.510416666666666,
              "duration": 0.09375
            },
            {
              "pitch": 57,
              "velocity": 67,
              "position": 15.510416666666666,
              "duration": 0.10416666666666667
            },
            {
              "pitch": 69,
              "velocity": 102,
              "position": 15.53125,
              "duration": 0.16666666666666666
            },
            {
              "pitch": 76,
              "velocity": 58,
              "position": 15.53125,
              "duration": 0.16666666666666666
            },
            {
              "pitch": 48,
              "velocity": 41,
              "position": 15.75,
              "duration": 0.0625
            },
            {
              "pitch": 55,
              "velocity": 57,
              "position": 15.760416666666666,
              "duration": 0.052083333333333336
            },
            {
              "pitch": 71,
              "velocity": 67,
              "position": 15.791666666666666,
              "duration": 0.0625
            },
            {
              "pitch": 67,
              "velocity": 58,
              "position": 15.78125,
              "duration": 0.08333333333333333
            }
          ]
        },
        "13": {
          "ctab": {
            "srcChannel": 13,
            "name": "Track 14",
            "accType": "PAD",
            "editable": false,
            "mutedNotes": [],
            "mutedChords": [],
            "autoStart": false,
            "sourceChordNote": 0,
            "sourceChordType": "Maj7",
            "ctb2Low": null,
            "ctb2Main": {
              "ntr": "ROOT_FIXED",
              "ntt": "CHORD",
              "bassOn": false,
              "chordRootUpperLimit": 6,
              "noteLowLimit": 0,
              "noteHighLimit": 127,
              "rtr": "RETRIGGER"
            },
            "ctb2High": null
          },
          "notes": [
            {
              "pitch": 64,
              "velocity": 84,
              "position": 0.041666666666666664,
              "duration": 3.8229166666666665
            },
            {
              "pitch": 59,
              "velocity": 82,
              "position": 0.041666666666666664,
              "duration": 3.8229166666666665
            },
            {
              "pitch": 67,
              "velocity": 86,
              "position": 4.041666666666667,
              "duration": 3.2291666666666665
            },
            {
              "pitch": 64,
              "velocity": 85,
              "position": 4.041666666666667,
              "duration": 3.2291666666666665
            },
            {
              "pitch": 64,
              "velocity": 83,
              "position": 8.052083333333334,
              "duration": 3.8020833333333335
            },
            {
              "pitch": 59,
              "velocity": 80,
              "position": 8.052083333333334,
              "duration": 3.8229166666666665
            },
            {
              "pitch": 64,
              "velocity": 84,
              "position": 12.03125,
              "duration": 3.3541666666666665
            },
            {
              "pitch": 59,
              "velocity": 83,
              "position": 12.041666666666666,
              "duration": 3.34375
            }
          ]
        },
        "14": {
          "ctab": {
            "srcChannel": 14,
            "name": "Track 15",
            "accType": "PHRASE1",
            "editable": false,
            "mutedNotes": [],
            "mutedChords": [],
            "autoStart": false,
            "sourceChordNote": 0,
            "sourceChordType": "Maj7",
            "ctb2Low": null,
            "ctb2Main": {
              "ntr": "ROOT_TRANSPOSITION",
              "ntt": "CHORD",
              "bassOn": false,
              "chordRootUpperLimit": 6,
              "noteLowLimit": 0,
              "noteHighLimit": 127,
              "rtr": "PITCH_SHIFT"
            },
            "ctb2High": null
          },
          "notes": [
            {
              "pitch": 48,
              "velocity": 78,
              "position": 0,
              "duration": 0.11458333333333333
            },
            {
              "pitch": 55,
              "velocity": 86,
              "position": 0,
              "duration": 0.4166666666666667
            },
            {
              "pitch": 48,
              "velocity": 75,
              "position": 0.22916666666666666,
              "duration": 0.23958333333333334
            },
            {
              "pitch": 48,
              "velocity": 21,
              "position": 0.5208333333333334,
              "duration": 0.0625
            },
            {
              "pitch": 51,
              "velocity": 111,
              "position": 0.4895833333333333,
              "duration": 0.25
            },
            {
              "pitch": 59,
              "velocity": 72,
              "position": 0,
              "duration": 0.8020833333333334
            },
            {
              "pitch": 52,
              "velocity": 82,
              "position": 0.7708333333333334,
              "duration": 0.15625
            },
            {
              "pitch": 48,
              "velocity": 89,
              "position": 0.9895833333333334,
              "duration": 0.16666666666666666
            },
            {
              "pitch": 59,
              "velocity": 82,
              "position": 0.9895833333333334,
              "duration": 0.23958333333333334
            },
            {
              "pitch": 55,
              "velocity": 98,
              "position": 0.9895833333333334,
              "duration": 0.3333333333333333
            },
            {
              "pitch": 48,
              "velocity": 58,
              "position": 1.25,
              "duration": 0.125
            },
            {
              "pitch": 57,
              "velocity": 107,
              "position": 1.5,
              "duration": 0.17708333333333334
            },
            {
              "pitch": 48,
              "velocity": 86,
              "position": 1.5,
              "duration": 0.2604166666666667
            },
            {
              "pitch": 55,
              "velocity": 69,
              "position": 1.7708333333333333,
              "duration": 0.17708333333333334
            },
            {
              "pitch": 48,
              "velocity": 94,
              "position": 2,
              "duration": 0.15625
            },
            {
              "pitch": 55,
              "velocity": 43,
              "position": 2.0104166666666665,
              "duration": 0.34375
            },
            {
              "pitch": 48,
              "velocity": 75,
              "position": 2.2395833333333335,
              "duration": 0.1875
            },
            {
              "pitch": 51,
              "velocity": 105,
              "position": 2.4895833333333335,
              "duration": 0.23958333333333334
            },
            {
              "pitch": 59,
              "velocity": 89,
              "position": 1.5,
              "duration": 1.2395833333333333
            },
            {
              "pitch": 52,
              "velocity": 75,
              "position": 2.75,
              "duration": 0.17708333333333334
            },
            {
              "pitch": 48,
              "velocity": 86,
              "position": 2.9791666666666665,
              "duration": 0.15625
            },
            {
              "pitch": 59,
              "velocity": 86,
              "position": 2.9791666666666665,
              "duration": 0.28125
            },
            {
              "pitch": 55,
              "velocity": 82,
              "position": 2.9791666666666665,
              "duration": 0.3854166666666667
            },
            {
              "pitch": 48,
              "velocity": 69,
              "position": 3.25,
              "duration": 0.13541666666666666
            },
            {
              "pitch": 57,
              "velocity": 94,
              "position": 3.5104166666666665,
              "duration": 0.17708333333333334
            },
            {
              "pitch": 48,
              "velocity": 82,
              "position": 3.5104166666666665,
              "duration": 0.2916666666666667
            },
            {
              "pitch": 59,
              "velocity": 89,
              "position": 3.5,
              "duration": 0.4270833333333333
            },
            {
              "pitch": 55,
              "velocity": 82,
              "position": 3.7604166666666665,
              "duration": 0.16666666666666666
            },
            {
              "pitch": 48,
              "velocity": 94,
              "position": 4,
              "duration": 0.17708333333333334
            },
            {
              "pitch": 48,
              "velocity": 75,
              "position": 4.25,
              "duration": 0.21875
            },
            {
              "pitch": 51,
              "velocity": 99,
              "position": 4.5,
              "duration": 0.22916666666666666
            },
            {
              "pitch": 59,
              "velocity": 71,
              "position": 4.010416666666667,
              "duration": 0.8541666666666666
            },
            {
              "pitch": 55,
              "velocity": 71,
              "position": 4.020833333333333,
              "duration": 0.8541666666666666
            },
            {
              "pitch": 52,
              "velocity": 75,
              "position": 4.75,
              "duration": 0.1875
            },
            {
              "pitch": 48,
              "velocity": 86,
              "position": 4.979166666666667,
              "duration": 0.16666666666666666
            },
            {
              "pitch": 59,
              "velocity": 82,
              "position": 4.989583333333333,
              "duration": 0.22916666666666666
            },
            {
              "pitch": 55,
              "velocity": 78,
              "position": 4.979166666666667,
              "duration": 0.2604166666666667
            },
            {
              "pitch": 48,
              "velocity": 55,
              "position": 5.239583333333333,
              "duration": 0.14583333333333334
            },
            {
              "pitch": 57,
              "velocity": 98,
              "position": 5.510416666666667,
              "duration": 0.17708333333333334
            },
            {
              "pitch": 48,
              "velocity": 69,
              "position": 5.510416666666667,
              "duration": 0.25
            },
            {
              "pitch": 59,
              "velocity": 94,
              "position": 5.510416666666667,
              "duration": 0.4375
            },
            {
              "pitch": 55,
              "velocity": 66,
              "position": 5.770833333333333,
              "duration": 0.19791666666666666
            },
            {
              "pitch": 48,
              "velocity": 94,
              "position": 6,
              "duration": 0.34375
            },
            {
              "pitch": 55,
              "velocity": 78,
              "position": 6.25,
              "duration": 0.20833333333333334
            },
            {
              "pitch": 59,
              "velocity": 82,
              "position": 6.239583333333333,
              "duration": 0.3645833333333333
            },
            {
              "pitch": 48,
              "velocity": 78,
              "position": 6.5,
              "duration": 0.14583333333333334
            },
            {
              "pitch": 48,
              "velocity": 86,
              "position": 6.75,
              "duration": 0.19791666666666666
            },
            {
              "pitch": 51,
              "velocity": 105,
              "position": 7,
              "duration": 0.08333333333333333
            },
            {
              "pitch": 52,
              "velocity": 86,
              "position": 7.09375,
              "duration": 0.10416666666666667
            },
            {
              "pitch": 55,
              "velocity": 89,
              "position": 7.229166666666667,
              "duration": 0.34375
            },
            {
              "pitch": 59,
              "velocity": 89,
              "position": 7.229166666666667,
              "duration": 0.375
            },
            {
              "pitch": 48,
              "velocity": 94,
              "position": 7.46875,
              "duration": 0.3125
            },
            {
              "pitch": 55,
              "velocity": 78,
              "position": 7.760416666666667,
              "duration": 0.19791666666666666
            },
            {
              "pitch": 59,
              "velocity": 72,
              "position": 7.760416666666667,
              "duration": 0.19791666666666666
            },
            {
              "pitch": 48,
              "velocity": 94,
              "position": 8,
              "duration": 0.15625
            },
            {
              "pitch": 59,
              "velocity": 71,
              "position": 8.010416666666666,
              "duration": 0.4375
            },
            {
              "pitch": 55,
              "velocity": 71,
              "position": 8.020833333333334,
              "duration": 0.4375
            },
            {
              "pitch": 48,
              "velocity": 69,
              "position": 8.229166666666666,
              "duration": 0.3125
            },
            {
              "pitch": 59,
              "velocity": 32,
              "position": 8.520833333333334,
              "duration": 0.11458333333333333
            },
            {
              "pitch": 51,
              "velocity": 111,
              "position": 8.479166666666666,
              "duration": 0.22916666666666666
            },
            {
              "pitch": 52,
              "velocity": 69,
              "position": 8.739583333333334,
              "duration": 0.2916666666666667
            },
            {
              "pitch": 48,
              "velocity": 82,
              "position": 8.979166666666666,
              "duration": 0.16666666666666666
            },
            {
              "pitch": 59,
              "velocity": 69,
              "position": 8.979166666666666,
              "duration": 0.2916666666666667
            },
            {
              "pitch": 55,
              "velocity": 94,
              "position": 8.979166666666666,
              "duration": 0.34375
            },
            {
              "pitch": 48,
              "velocity": 66,
              "position": 9.25,
              "duration": 0.14583333333333334
            },
            {
              "pitch": 57,
              "velocity": 98,
              "position": 9.510416666666666,
              "duration": 0.15625
            },
            {
              "pitch": 48,
              "velocity": 75,
              "position": 9.510416666666666,
              "duration": 0.22916666666666666
            },
            {
              "pitch": 55,
              "velocity": 63,
              "position": 9.770833333333334,
              "duration": 0.1875
            },
            {
              "pitch": 48,
              "velocity": 98,
              "position": 9.989583333333334,
              "duration": 0.17708333333333334
            },
            {
              "pitch": 59,
              "velocity": 94,
              "position": 9.510416666666666,
              "duration": 0.8541666666666666
            },
            {
              "pitch": 48,
              "velocity": 72,
              "position": 10.25,
              "duration": 0.17708333333333334
            },
            {
              "pitch": 59,
              "velocity": 58,
              "position": 10.479166666666666,
              "duration": 0.19791666666666666
            },
            {
              "pitch": 51,
              "velocity": 111,
              "position": 10.5,
              "duration": 0.22916666666666666
            },
            {
              "pitch": 52,
              "velocity": 69,
              "position": 10.760416666666666,
              "duration": 0.16666666666666666
            },
            {
              "pitch": 48,
              "velocity": 78,
              "position": 10.989583333333334,
              "duration": 0.15625
            },
            {
              "pitch": 59,
              "velocity": 78,
              "position": 10.989583333333334,
              "duration": 0.3541666666666667
            },
            {
              "pitch": 55,
              "velocity": 89,
              "position": 10.989583333333334,
              "duration": 0.3958333333333333
            },
            {
              "pitch": 48,
              "velocity": 63,
              "position": 11.260416666666666,
              "duration": 0.125
            },
            {
              "pitch": 57,
              "velocity": 94,
              "position": 11.5,
              "duration": 0.1875
            },
            {
              "pitch": 48,
              "velocity": 86,
              "position": 11.5,
              "duration": 0.2708333333333333
            },
            {
              "pitch": 59,
              "velocity": 94,
              "position": 11.5,
              "duration": 0.3958333333333333
            },
            {
              "pitch": 55,
              "velocity": 66,
              "position": 11.791666666666666,
              "duration": 0.10416666666666667
            },
            {
              "pitch": 55,
              "velocity": 75,
              "position": 12.020833333333334,
              "duration": 0.13541666666666666
            },
            {
              "pitch": 48,
              "velocity": 94,
              "position": 12,
              "duration": 0.19791666666666666
            },
            {
              "pitch": 55,
              "velocity": 58,
              "position": 12.302083333333334,
              "duration": 0.08333333333333333
            },
            {
              "pitch": 48,
              "velocity": 75,
              "position": 12.270833333333334,
              "duration": 0.3958333333333333
            },
            {
              "pitch": 51,
              "velocity": 99,
              "position": 12.510416666666666,
              "duration": 0.21875
            },
            {
              "pitch": 52,
              "velocity": 75,
              "position": 12.760416666666666,
              "duration": 0.1875
            },
            {
              "pitch": 48,
              "velocity": 86,
              "position": 12.989583333333334,
              "duration": 0.15625
            },
            {
              "pitch": 55,
              "velocity": 86,
              "position": 12.989583333333334,
              "duration": 0.3541666666666667
            },
            {
              "pitch": 48,
              "velocity": 55,
              "position": 13.25,
              "duration": 0.125
            },
            {
              "pitch": 55,
              "velocity": 33,
              "position": 13.53125,
              "duration": 0.020833333333333332
            },
            {
              "pitch": 57,
              "velocity": 98,
              "position": 13.489583333333334,
              "duration": 0.1875
            },
            {
              "pitch": 48,
              "velocity": 82,
              "position": 13.5,
              "duration": 0.3020833333333333
            },
            {
              "pitch": 55,
              "velocity": 63,
              "position": 13.760416666666666,
              "duration": 0.1875
            },
            {
              "pitch": 59,
              "velocity": 86,
              "position": 13.5,
              "duration": 0.5
            },
            {
              "pitch": 48,
              "velocity": 98,
              "position": 14,
              "duration": 0.3333333333333333
            },
            {
              "pitch": 55,
              "velocity": 86,
              "position": 14.239583333333334,
              "duration": 0.19791666666666666
            },
            {
              "pitch": 59,
              "velocity": 89,
              "position": 14.25,
              "duration": 0.21875
            },
            {
              "pitch": 48,
              "velocity": 94,
              "position": 14.510416666666666,
              "duration": 0.125
            },
            {
              "pitch": 59,
              "velocity": 19,
              "position": 14.552083333333334,
              "duration": 0.20833333333333334
            },
            {
              "pitch": 48,
              "velocity": 98,
              "position": 14.770833333333334,
              "duration": 0.1875
            },
            {
              "pitch": 51,
              "velocity": 105,
              "position": 15.020833333333334,
              "duration": 0.08333333333333333
            },
            {
              "pitch": 52,
              "velocity": 86,
              "position": 15.104166666666666,
              "duration": 0.14583333333333334
            },
            {
              "pitch": 55,
              "velocity": 86,
              "position": 15.260416666666666,
              "duration": 0.3541666666666667
            },
            {
              "pitch": 59,
              "velocity": 86,
              "position": 15.260416666666666,
              "duration": 0.6666666666666666
            },
            {
              "pitch": 48,
              "velocity": 82,
              "position": 15.510416666666666,
              "duration": 0.4166666666666667
            },
            {
              "pitch": 55,
              "velocity": 78,
              "position": 15.75,
              "duration": 0.17708333333333334
            }
          ]
        },
        "15": {
          "ctab": {
            "srcChannel": 15,
            "name": "Track 16",
            "accType": "PHRASE2",
            "editable": false,
            "mutedNotes": [],
            "mutedChords": [],
            "autoStart": false,
            "sourceChordNote": 0,
            "sourceChordType": "Maj7",
            "ctb2Low": null,
            "ctb2Main": {
              "ntr": "ROOT_TRANSPOSITION",
              "ntt": "CHORD",
              "bassOn": false,
              "chordRootUpperLimit": 6,
              "noteLowLimit": 0,
              "noteHighLimit": 127,
              "rtr": "PITCH_SHIFT"
            },
            "ctb2High": null
          },
          "notes": [
            {
              "pitch": 36,
              "velocity": 118,
              "position": 0.010416666666666666,
              "duration": 0.1875
            },
            {
              "pitch": 55,
              "velocity": 107,
              "position": 0.5208333333333334,
              "duration": 0.125
            },
            {
              "pitch": 59,
              "velocity": 97,
              "position": 0.5208333333333334,
              "duration": 0.125
            },
            {
              "pitch": 48,
              "velocity": 97,
              "position": 0.53125,
              "duration": 0.125
            },
            {
              "pitch": 59,
              "velocity": 97,
              "position": 1.28125,
              "duration": 0.11458333333333333
            },
            {
              "pitch": 55,
              "velocity": 107,
              "position": 1.28125,
              "duration": 0.11458333333333333
            },
            {
              "pitch": 48,
              "velocity": 102,
              "position": 1.28125,
              "duration": 0.125
            },
            {
              "pitch": 35,
              "velocity": 123,
              "position": 1.78125,
              "duration": 0.22916666666666666
            },
            {
              "pitch": 36,
              "velocity": 93,
              "position": 2.0104166666666665,
              "duration": 0.19791666666666666
            },
            {
              "pitch": 55,
              "velocity": 107,
              "position": 2.53125,
              "duration": 0.09375
            },
            {
              "pitch": 48,
              "velocity": 107,
              "position": 2.53125,
              "duration": 0.10416666666666667
            },
            {
              "pitch": 59,
              "velocity": 93,
              "position": 2.53125,
              "duration": 0.11458333333333333
            },
            {
              "pitch": 48,
              "velocity": 102,
              "position": 3.25,
              "duration": 0.125
            },
            {
              "pitch": 59,
              "velocity": 84,
              "position": 3.2395833333333335,
              "duration": 0.14583333333333334
            },
            {
              "pitch": 55,
              "velocity": 102,
              "position": 3.2395833333333335,
              "duration": 0.14583333333333334
            },
            {
              "pitch": 36,
              "velocity": 123,
              "position": 4.010416666666667,
              "duration": 0.21875
            },
            {
              "pitch": 55,
              "velocity": 107,
              "position": 4.520833333333333,
              "duration": 0.11458333333333333
            },
            {
              "pitch": 59,
              "velocity": 97,
              "position": 4.520833333333333,
              "duration": 0.13541666666666666
            },
            {
              "pitch": 48,
              "velocity": 113,
              "position": 4.53125,
              "duration": 0.125
            },
            {
              "pitch": 55,
              "velocity": 113,
              "position": 5.270833333333333,
              "duration": 0.11458333333333333
            },
            {
              "pitch": 59,
              "velocity": 93,
              "position": 5.260416666666667,
              "duration": 0.13541666666666666
            },
            {
              "pitch": 48,
              "velocity": 102,
              "position": 5.270833333333333,
              "duration": 0.125
            },
            {
              "pitch": 35,
              "velocity": 123,
              "position": 5.770833333333333,
              "duration": 0.21875
            },
            {
              "pitch": 36,
              "velocity": 97,
              "position": 6.010416666666667,
              "duration": 0.17708333333333334
            },
            {
              "pitch": 55,
              "velocity": 113,
              "position": 6.510416666666667,
              "duration": 0.11458333333333333
            },
            {
              "pitch": 48,
              "velocity": 102,
              "position": 6.520833333333333,
              "duration": 0.11458333333333333
            },
            {
              "pitch": 59,
              "velocity": 97,
              "position": 6.510416666666667,
              "duration": 0.14583333333333334
            },
            {
              "pitch": 55,
              "velocity": 113,
              "position": 7.25,
              "duration": 0.125
            },
            {
              "pitch": 48,
              "velocity": 107,
              "position": 7.260416666666667,
              "duration": 0.125
            },
            {
              "pitch": 59,
              "velocity": 93,
              "position": 7.25,
              "duration": 0.14583333333333334
            },
            {
              "pitch": 36,
              "velocity": 123,
              "position": 8,
              "duration": 0.20833333333333334
            },
            {
              "pitch": 48,
              "velocity": 107,
              "position": 8.520833333333334,
              "duration": 0.125
            },
            {
              "pitch": 55,
              "velocity": 113,
              "position": 8.520833333333334,
              "duration": 0.125
            },
            {
              "pitch": 59,
              "velocity": 93,
              "position": 8.520833333333334,
              "duration": 0.125
            },
            {
              "pitch": 55,
              "velocity": 113,
              "position": 9.260416666666666,
              "duration": 0.08333333333333333
            },
            {
              "pitch": 59,
              "velocity": 97,
              "position": 9.260416666666666,
              "duration": 0.11458333333333333
            },
            {
              "pitch": 48,
              "velocity": 102,
              "position": 9.260416666666666,
              "duration": 0.11458333333333333
            },
            {
              "pitch": 36,
              "velocity": 123,
              "position": 10,
              "duration": 0.19791666666666666
            },
            {
              "pitch": 55,
              "velocity": 113,
              "position": 10.520833333333334,
              "duration": 0.125
            },
            {
              "pitch": 48,
              "velocity": 107,
              "position": 10.53125,
              "duration": 0.125
            },
            {
              "pitch": 59,
              "velocity": 93,
              "position": 10.520833333333334,
              "duration": 0.14583333333333334
            },
            {
              "pitch": 48,
              "velocity": 107,
              "position": 11.25,
              "duration": 0.125
            },
            {
              "pitch": 59,
              "velocity": 89,
              "position": 11.239583333333334,
              "duration": 0.14583333333333334
            },
            {
              "pitch": 55,
              "velocity": 107,
              "position": 11.25,
              "duration": 0.13541666666666666
            },
            {
              "pitch": 36,
              "velocity": 123,
              "position": 12.010416666666666,
              "duration": 0.1875
            },
            {
              "pitch": 55,
              "velocity": 107,
              "position": 12.510416666666666,
              "duration": 0.14583333333333334
            },
            {
              "pitch": 59,
              "velocity": 97,
              "position": 12.510416666666666,
              "duration": 0.14583333333333334
            },
            {
              "pitch": 48,
              "velocity": 102,
              "position": 12.520833333333334,
              "duration": 0.13541666666666666
            },
            {
              "pitch": 59,
              "velocity": 70,
              "position": 13.229166666666666,
              "duration": 0.10416666666666667
            },
            {
              "pitch": 55,
              "velocity": 107,
              "position": 13.229166666666666,
              "duration": 0.125
            },
            {
              "pitch": 48,
              "velocity": 107,
              "position": 13.229166666666666,
              "duration": 0.13541666666666666
            },
            {
              "pitch": 35,
              "velocity": 127,
              "position": 13.770833333333334,
              "duration": 0.20833333333333334
            },
            {
              "pitch": 36,
              "velocity": 102,
              "position": 14.010416666666666,
              "duration": 0.16666666666666666
            },
            {
              "pitch": 55,
              "velocity": 118,
              "position": 14.5,
              "duration": 0.11458333333333333
            },
            {
              "pitch": 59,
              "velocity": 89,
              "position": 14.5,
              "duration": 0.125
            },
            {
              "pitch": 48,
              "velocity": 102,
              "position": 14.510416666666666,
              "duration": 0.11458333333333333
            },
            {
              "pitch": 55,
              "velocity": 107,
              "position": 15.229166666666666,
              "duration": 0.11458333333333333
            },
            {
              "pitch": 48,
              "velocity": 102,
              "position": 15.229166666666666,
              "duration": 0.11458333333333333
            },
            {
              "pitch": 59,
              "velocity": 97,
              "position": 15.21875,
              "duration": 0.13541666666666666
            }
          ]
        }
      }
    },
    "Fill_In_DD": {
      "type": "Fill_In_DD",
      "sizeInBeats": 4,
      "channels": {
        "8": {
          "ctab": {
            "srcChannel": 8,
            "name": "Track 9",
            "accType": "RHYTHM",
            "editable": false,
            "mutedNotes": [],
            "mutedChords": [],
            "autoStart": true,
            "sourceChordNote": 0,
            "sourceChordType": "Maj7",
            "ctb2Low": null,
            "ctb2Main": {
              "ntr": "ROOT_FIXED",
              "ntt": "BYPASS",
              "bassOn": false,
              "chordRootUpperLimit": 6,
              "noteLowLimit": 0,
              "noteHighLimit": 127,
              "rtr": "PITCH_SHIFT"
            },
            "ctb2High": null
          },
          "notes": [
            {
              "pitch": 54,
              "velocity": 58,
              "position": 0.010416666666666666,
              "duration": 0.010416666666666666
            },
            {
              "pitch": 54,
              "velocity": 36,
              "position": 0.25,
              "duration": 0.010416666666666666
            },
            {
              "pitch": 39,
              "velocity": 81,
              "position": 0.4895833333333333,
              "duration": 0.010416666666666666
            },
            {
              "pitch": 54,
              "velocity": 88,
              "position": 0.5104166666666666,
              "duration": 0.010416666666666666
            },
            {
              "pitch": 54,
              "velocity": 36,
              "position": 0.75,
              "duration": 0.010416666666666666
            },
            {
              "pitch": 39,
              "velocity": 60,
              "position": 0.7604166666666666,
              "duration": 0.010416666666666666
            },
            {
              "pitch": 54,
              "velocity": 54,
              "position": 1,
              "duration": 0.010416666666666666
            },
            {
              "pitch": 54,
              "velocity": 38,
              "position": 1.25,
              "duration": 0.010416666666666666
            },
            {
              "pitch": 39,
              "velocity": 81,
              "position": 1.5,
              "duration": 0.010416666666666666
            },
            {
              "pitch": 54,
              "velocity": 86,
              "position": 1.5104166666666667,
              "duration": 0.010416666666666666
            },
            {
              "pitch": 54,
              "velocity": 36,
              "position": 1.7395833333333333,
              "duration": 0.010416666666666666
            },
            {
              "pitch": 54,
              "velocity": 56,
              "position": 1.9895833333333333,
              "duration": 0.010416666666666666
            },
            {
              "pitch": 54,
              "velocity": 36,
              "position": 2.2395833333333335,
              "duration": 0.010416666666666666
            },
            {
              "pitch": 39,
              "velocity": 81,
              "position": 2.4895833333333335,
              "duration": 0.010416666666666666
            },
            {
              "pitch": 54,
              "velocity": 86,
              "position": 2.4895833333333335,
              "duration": 0.010416666666666666
            },
            {
              "pitch": 54,
              "velocity": 38,
              "position": 2.7395833333333335,
              "duration": 0.010416666666666666
            },
            {
              "pitch": 39,
              "velocity": 60,
              "position": 2.75,
              "duration": 0.010416666666666666
            },
            {
              "pitch": 54,
              "velocity": 56,
              "position": 2.9895833333333335,
              "duration": 0.010416666666666666
            },
            {
              "pitch": 54,
              "velocity": 38,
              "position": 3.2395833333333335,
              "duration": 0.010416666666666666
            },
            {
              "pitch": 54,
              "velocity": 86,
              "position": 3.4895833333333335,
              "duration": 0.010416666666666666
            },
            {
              "pitch": 39,
              "velocity": 81,
              "position": 3.5104166666666665,
              "duration": 0.010416666666666666
            },
            {
              "pitch": 54,
              "velocity": 34,
              "position": 3.75,
              "duration": 0.010416666666666666
            }
          ]
        },
        "9": {
          "ctab": {
            "srcChannel": 9,
            "name": "Track 10",
            "accType": "SUBRHYTHM",
            "editable": false,
            "mutedNotes": [],
            "mutedChords": [],
            "autoStart": true,
            "sourceChordNote": 0,
            "sourceChordType": "Maj7",
            "ctb2Low": null,
            "ctb2Main": {
              "ntr": "ROOT_FIXED",
              "ntt": "BYPASS",
              "bassOn": false,
              "chordRootUpperLimit": 6,
              "noteLowLimit": 0,
              "noteHighLimit": 127,
              "rtr": "PITCH_SHIFT"
            },
            "ctb2High": null
          },
          "notes": [
            {
              "pitch": 36,
              "velocity": 115,
              "position": 0,
              "duration": 0.010416666666666666
            },
            {
              "pitch": 40,
              "velocity": 47,
              "position": 0.010416666666666666,
              "duration": 0.010416666666666666
            },
            {
              "pitch": 54,
              "velocity": 58,
              "position": 0.010416666666666666,
              "duration": 0.010416666666666666
            },
            {
              "pitch": 54,
              "velocity": 36,
              "position": 0.25,
              "duration": 0.010416666666666666
            },
            {
              "pitch": 40,
              "velocity": 28,
              "position": 0.2604166666666667,
              "duration": 0.010416666666666666
            },
            {
              "pitch": 39,
              "velocity": 81,
              "position": 0.4895833333333333,
              "duration": 0.010416666666666666
            },
            {
              "pitch": 40,
              "velocity": 113,
              "position": 0.5,
              "duration": 0.010416666666666666
            },
            {
              "pitch": 54,
              "velocity": 88,
              "position": 0.5104166666666666,
              "duration": 0.010416666666666666
            },
            {
              "pitch": 40,
              "velocity": 30,
              "position": 0.75,
              "duration": 0.010416666666666666
            },
            {
              "pitch": 54,
              "velocity": 36,
              "position": 0.75,
              "duration": 0.010416666666666666
            },
            {
              "pitch": 39,
              "velocity": 60,
              "position": 0.7604166666666666,
              "duration": 0.010416666666666666
            },
            {
              "pitch": 36,
              "velocity": 115,
              "position": 1,
              "duration": 0.010416666666666666
            },
            {
              "pitch": 54,
              "velocity": 54,
              "position": 1,
              "duration": 0.010416666666666666
            },
            {
              "pitch": 40,
              "velocity": 47,
              "position": 1.0104166666666667,
              "duration": 0.010416666666666666
            },
            {
              "pitch": 40,
              "velocity": 37,
              "position": 1.25,
              "duration": 0.010416666666666666
            },
            {
              "pitch": 54,
              "velocity": 38,
              "position": 1.25,
              "duration": 0.010416666666666666
            },
            {
              "pitch": 39,
              "velocity": 81,
              "position": 1.5,
              "duration": 0.010416666666666666
            },
            {
              "pitch": 40,
              "velocity": 113,
              "position": 1.5,
              "duration": 0.010416666666666666
            },
            {
              "pitch": 54,
              "velocity": 86,
              "position": 1.5104166666666667,
              "duration": 0.010416666666666666
            },
            {
              "pitch": 54,
              "velocity": 36,
              "position": 1.7395833333333333,
              "duration": 0.010416666666666666
            },
            {
              "pitch": 40,
              "velocity": 30,
              "position": 1.7604166666666667,
              "duration": 0.010416666666666666
            },
            {
              "pitch": 54,
              "velocity": 56,
              "position": 1.9895833333333333,
              "duration": 0.010416666666666666
            },
            {
              "pitch": 36,
              "velocity": 115,
              "position": 2,
              "duration": 0.010416666666666666
            },
            {
              "pitch": 40,
              "velocity": 30,
              "position": 2.0104166666666665,
              "duration": 0.010416666666666666
            },
            {
              "pitch": 54,
              "velocity": 36,
              "position": 2.2395833333333335,
              "duration": 0.010416666666666666
            },
            {
              "pitch": 40,
              "velocity": 31,
              "position": 2.25,
              "duration": 0.010416666666666666
            },
            {
              "pitch": 39,
              "velocity": 81,
              "position": 2.4895833333333335,
              "duration": 0.010416666666666666
            },
            {
              "pitch": 54,
              "velocity": 86,
              "position": 2.4895833333333335,
              "duration": 0.010416666666666666
            },
            {
              "pitch": 40,
              "velocity": 113,
              "position": 2.5,
              "duration": 0.010416666666666666
            },
            {
              "pitch": 54,
              "velocity": 38,
              "position": 2.7395833333333335,
              "duration": 0.010416666666666666
            },
            {
              "pitch": 39,
              "velocity": 60,
              "position": 2.75,
              "duration": 0.010416666666666666
            },
            {
              "pitch": 40,
              "velocity": 30,
              "position": 2.75,
              "duration": 0.010416666666666666
            },
            {
              "pitch": 54,
              "velocity": 56,
              "position": 2.9895833333333335,
              "duration": 0.010416666666666666
            },
            {
              "pitch": 36,
              "velocity": 115,
              "position": 3,
              "duration": 0.010416666666666666
            },
            {
              "pitch": 40,
              "velocity": 49,
              "position": 3,
              "duration": 0.010416666666666666
            },
            {
              "pitch": 54,
              "velocity": 38,
              "position": 3.2395833333333335,
              "duration": 0.010416666666666666
            },
            {
              "pitch": 38,
              "velocity": 100,
              "position": 3.25,
              "duration": 0.010416666666666666
            },
            {
              "pitch": 40,
              "velocity": 37,
              "position": 3.25,
              "duration": 0.010416666666666666
            },
            {
              "pitch": 54,
              "velocity": 86,
              "position": 3.4895833333333335,
              "duration": 0.010416666666666666
            },
            {
              "pitch": 40,
              "velocity": 113,
              "position": 3.5,
              "duration": 0.010416666666666666
            },
            {
              "pitch": 39,
              "velocity": 81,
              "position": 3.5104166666666665,
              "duration": 0.010416666666666666
            },
            {
              "pitch": 40,
              "velocity": 41,
              "position": 3.75,
              "duration": 0.010416666666666666
            },
            {
              "pitch": 54,
              "velocity": 34,
              "position": 3.75,
              "duration": 0.010416666666666666
            },
            {
              "pitch": 38,
              "velocity": 108,
              "position": 3.7604166666666665,
              "duration": 0.010416666666666666
            }
          ]
        },
        "10": {
          "ctab": {
            "srcChannel": 10,
            "name": "Track 11",
            "accType": "BASS",
            "editable": false,
            "mutedNotes": [],
            "mutedChords": [],
            "autoStart": false,
            "sourceChordNote": 0,
            "sourceChordType": "Maj7",
            "ctb2Low": null,
            "ctb2Main": {
              "ntr": "ROOT_TRANSPOSITION",
              "ntt": "MELODY",
              "bassOn": true,
              "chordRootUpperLimit": 3,
              "noteLowLimit": 28,
              "noteHighLimit": 127,
              "rtr": "PITCH_SHIFT"
            },
            "ctb2High": null
          },
          "notes": [
            {
              "pitch": 36,
              "velocity": 119,
              "position": 0,
              "duration": 0.4375
            },
            {
              "pitch": 36,
              "velocity": 89,
              "position": 0.75,
              "duration": 0.052083333333333336
            },
            {
              "pitch": 31,
              "velocity": 119,
              "position": 1,
              "duration": 0.5
            },
            {
              "pitch": 31,
              "velocity": 67,
              "position": 1.75,
              "duration": 0.041666666666666664
            },
            {
              "pitch": 36,
              "velocity": 119,
              "position": 2,
              "duration": 0.4375
            },
            {
              "pitch": 31,
              "velocity": 119,
              "position": 2.5,
              "duration": 0.4375
            },
            {
              "pitch": 33,
              "velocity": 119,
              "position": 3,
              "duration": 0.4375
            },
            {
              "pitch": 35,
              "velocity": 119,
              "position": 3.5,
              "duration": 0.4375
            }
          ]
        },
        "11": {
          "ctab": {
            "srcChannel": 11,
            "name": "Track 12",
            "accType": "CHORD1",
            "editable": false,
            "mutedNotes": [],
            "mutedChords": [],
            "autoStart": false,
            "sourceChordNote": 0,
            "sourceChordType": "Maj7",
            "ctb2Low": null,
            "ctb2Main": {
              "ntr": "ROOT_FIXED",
              "ntt": "CHORD",
              "bassOn": false,
              "chordRootUpperLimit": 6,
              "noteLowLimit": 0,
              "noteHighLimit": 127,
              "rtr": "PITCH_SHIFT"
            },
            "ctb2High": null
          },
          "notes": [
            {
              "pitch": 55,
              "velocity": 107,
              "position": 0.010416666666666666,
              "duration": 0.4791666666666667
            },
            {
              "pitch": 60,
              "velocity": 107,
              "position": 0.03125,
              "duration": 0.4791666666666667
            },
            {
              "pitch": 64,
              "velocity": 107,
              "position": 0.052083333333333336,
              "duration": 0.4791666666666667
            },
            {
              "pitch": 55,
              "velocity": 111,
              "position": 0.5104166666666666,
              "duration": 0.22916666666666666
            },
            {
              "pitch": 60,
              "velocity": 111,
              "position": 0.53125,
              "duration": 0.22916666666666666
            },
            {
              "pitch": 64,
              "velocity": 111,
              "position": 0.5520833333333334,
              "duration": 0.22916666666666666
            },
            {
              "pitch": 55,
              "velocity": 88,
              "position": 0.7604166666666666,
              "duration": 0.22916666666666666
            },
            {
              "pitch": 60,
              "velocity": 88,
              "position": 0.78125,
              "duration": 0.22916666666666666
            },
            {
              "pitch": 64,
              "velocity": 88,
              "position": 0.8020833333333334,
              "duration": 0.22916666666666666
            },
            {
              "pitch": 55,
              "velocity": 101,
              "position": 1.0104166666666667,
              "duration": 0.22916666666666666
            },
            {
              "pitch": 60,
              "velocity": 101,
              "position": 1.03125,
              "duration": 0.22916666666666666
            },
            {
              "pitch": 64,
              "velocity": 101,
              "position": 1.0520833333333333,
              "duration": 0.22916666666666666
            },
            {
              "pitch": 55,
              "velocity": 76,
              "position": 1.2604166666666667,
              "duration": 0.22916666666666666
            },
            {
              "pitch": 60,
              "velocity": 82,
              "position": 1.28125,
              "duration": 0.22916666666666666
            },
            {
              "pitch": 64,
              "velocity": 85,
              "position": 1.3020833333333333,
              "duration": 0.22916666666666666
            },
            {
              "pitch": 55,
              "velocity": 111,
              "position": 1.5104166666666667,
              "duration": 0.22916666666666666
            },
            {
              "pitch": 60,
              "velocity": 111,
              "position": 1.53125,
              "duration": 0.22916666666666666
            },
            {
              "pitch": 64,
              "velocity": 111,
              "position": 1.5520833333333333,
              "duration": 0.22916666666666666
            },
            {
              "pitch": 55,
              "velocity": 90,
              "position": 1.7604166666666667,
              "duration": 0.22916666666666666
            },
            {
              "pitch": 60,
              "velocity": 90,
              "position": 1.78125,
              "duration": 0.22916666666666666
            },
            {
              "pitch": 64,
              "velocity": 90,
              "position": 1.8020833333333333,
              "duration": 0.22916666666666666
            },
            {
              "pitch": 55,
              "velocity": 105,
              "position": 2.0104166666666665,
              "duration": 0.22916666666666666
            },
            {
              "pitch": 60,
              "velocity": 105,
              "position": 2.03125,
              "duration": 0.22916666666666666
            },
            {
              "pitch": 64,
              "velocity": 105,
              "position": 2.0520833333333335,
              "duration": 0.22916666666666666
            },
            {
              "pitch": 55,
              "velocity": 88,
              "position": 2.2604166666666665,
              "duration": 0.22916666666666666
            },
            {
              "pitch": 60,
              "velocity": 88,
              "position": 2.28125,
              "duration": 0.22916666666666666
            },
            {
              "pitch": 64,
              "velocity": 88,
              "position": 2.3020833333333335,
              "duration": 0.22916666666666666
            },
            {
              "pitch": 55,
              "velocity": 111,
              "position": 2.5104166666666665,
              "duration": 0.08333333333333333
            },
            {
              "pitch": 60,
              "velocity": 111,
              "position": 2.53125,
              "duration": 0.08333333333333333
            },
            {
              "pitch": 64,
              "velocity": 111,
              "position": 2.5520833333333335,
              "duration": 0.08333333333333333
            },
            {
              "pitch": 55,
              "velocity": 103,
              "position": 2.7604166666666665,
              "duration": 0.4791666666666667
            },
            {
              "pitch": 60,
              "velocity": 103,
              "position": 2.78125,
              "duration": 0.4791666666666667
            },
            {
              "pitch": 64,
              "velocity": 103,
              "position": 2.8020833333333335,
              "duration": 0.4791666666666667
            },
            {
              "pitch": 55,
              "velocity": 90,
              "position": 3.2604166666666665,
              "duration": 0.22916666666666666
            },
            {
              "pitch": 60,
              "velocity": 90,
              "position": 3.28125,
              "duration": 0.22916666666666666
            },
            {
              "pitch": 64,
              "velocity": 90,
              "position": 3.3020833333333335,
              "duration": 0.22916666666666666
            },
            {
              "pitch": 55,
              "velocity": 100,
              "position": 3.5104166666666665,
              "duration": 0.22916666666666666
            },
            {
              "pitch": 60,
              "velocity": 100,
              "position": 3.53125,
              "duration": 0.22916666666666666
            },
            {
              "pitch": 64,
              "velocity": 100,
              "position": 3.5520833333333335,
              "duration": 0.22916666666666666
            },
            {
              "pitch": 55,
              "velocity": 79,
              "position": 3.7604166666666665,
              "duration": 0.15625
            },
            {
              "pitch": 60,
              "velocity": 85,
              "position": 3.78125,
              "duration": 0.15625
            },
            {
              "pitch": 64,
              "velocity": 89,
              "position": 3.8020833333333335,
              "duration": 0.15625
            }
          ]
        },
        "12": {
          "ctab": {
            "srcChannel": 12,
            "name": "Track 13",
            "accType": "CHORD2",
            "editable": false,
            "mutedNotes": [],
            "mutedChords": [],
            "autoStart": false,
            "sourceChordNote": 0,
            "sourceChordType": "Maj7",
            "ctb2Low": null,
            "ctb2Main": {
              "ntr": "ROOT_TRANSPOSITION",
              "ntt": "CHORD",
              "bassOn": false,
              "chordRootUpperLimit": 6,
              "noteLowLimit": 0,
              "noteHighLimit": 79,
              "rtr": "STOP"
            },
            "ctb2High": null
          },
          "notes": [
            {
              "pitch": 55,
              "velocity": 73,
              "position": 0.010416666666666666,
              "duration": 0.15625
            },
            {
              "pitch": 48,
              "velocity": 73,
              "position": 0,
              "duration": 0.17708333333333334
            },
            {
              "pitch": 75,
              "velocity": 94,
              "position": 0.010416666666666666,
              "duration": 0.23958333333333334
            },
            {
              "pitch": 48,
              "velocity": 38,
              "position": 0.28125,
              "duration": 0.08333333333333333
            },
            {
              "pitch": 55,
              "velocity": 48,
              "position": 0.2708333333333333,
              "duration": 0.10416666666666667
            },
            {
              "pitch": 76,
              "velocity": 73,
              "position": 0.2708333333333333,
              "duration": 0.20833333333333334
            },
            {
              "pitch": 48,
              "velocity": 64,
              "position": 0.5104166666666666,
              "duration": 0.13541666666666666
            },
            {
              "pitch": 57,
              "velocity": 67,
              "position": 0.5208333333333334,
              "duration": 0.125
            },
            {
              "pitch": 48,
              "velocity": 48,
              "position": 0.7604166666666666,
              "duration": 0.08333333333333333
            },
            {
              "pitch": 57,
              "velocity": 55,
              "position": 0.7708333333333334,
              "duration": 0.08333333333333333
            },
            {
              "pitch": 84,
              "velocity": 97,
              "position": 0.5208333333333334,
              "duration": 0.3854166666666667
            },
            {
              "pitch": 75,
              "velocity": 94,
              "position": 0.7395833333333334,
              "duration": 0.19791666666666666
            },
            {
              "pitch": 55,
              "velocity": 84,
              "position": 1.0208333333333333,
              "duration": 0.10416666666666667
            },
            {
              "pitch": 48,
              "velocity": 58,
              "position": 1.0104166666666667,
              "duration": 0.13541666666666666
            },
            {
              "pitch": 76,
              "velocity": 53,
              "position": 0.9895833333333334,
              "duration": 0.1875
            },
            {
              "pitch": 79,
              "velocity": 79,
              "position": 1.25,
              "duration": 0.10416666666666667
            },
            {
              "pitch": 55,
              "velocity": 44,
              "position": 1.28125,
              "duration": 0.08333333333333333
            },
            {
              "pitch": 48,
              "velocity": 29,
              "position": 1.28125,
              "duration": 0.08333333333333333
            },
            {
              "pitch": 81,
              "velocity": 77,
              "position": 1.5104166666666667,
              "duration": 0.07291666666666667
            },
            {
              "pitch": 57,
              "velocity": 73,
              "position": 1.5208333333333333,
              "duration": 0.20833333333333334
            },
            {
              "pitch": 84,
              "velocity": 78,
              "position": 1.75,
              "duration": 0.08333333333333333
            },
            {
              "pitch": 48,
              "velocity": 55,
              "position": 1.5208333333333333,
              "duration": 0.34375
            },
            {
              "pitch": 55,
              "velocity": 31,
              "position": 1.8020833333333333,
              "duration": 0.0625
            },
            {
              "pitch": 79,
              "velocity": 67,
              "position": 2.0104166666666665,
              "duration": 0.0625
            },
            {
              "pitch": 88,
              "velocity": 64,
              "position": 2,
              "duration": 0.10416666666666667
            },
            {
              "pitch": 55,
              "velocity": 73,
              "position": 2.0104166666666665,
              "duration": 0.15625
            },
            {
              "pitch": 48,
              "velocity": 61,
              "position": 2.0208333333333335,
              "duration": 0.15625
            },
            {
              "pitch": 87,
              "velocity": 100,
              "position": 2.25,
              "duration": 0.11458333333333333
            },
            {
              "pitch": 78,
              "velocity": 65,
              "position": 2.25,
              "duration": 0.125
            },
            {
              "pitch": 48,
              "velocity": 39,
              "position": 2.2916666666666665,
              "duration": 0.08333333333333333
            },
            {
              "pitch": 55,
              "velocity": 55,
              "position": 2.28125,
              "duration": 0.10416666666666667
            },
            {
              "pitch": 86,
              "velocity": 93,
              "position": 2.5,
              "duration": 0.10416666666666667
            },
            {
              "pitch": 77,
              "velocity": 93,
              "position": 2.5104166666666665,
              "duration": 0.10416666666666667
            },
            {
              "pitch": 57,
              "velocity": 84,
              "position": 2.5208333333333335,
              "duration": 0.14583333333333334
            },
            {
              "pitch": 48,
              "velocity": 64,
              "position": 2.5208333333333335,
              "duration": 0.3229166666666667
            },
            {
              "pitch": 55,
              "velocity": 50,
              "position": 2.75,
              "duration": 0.11458333333333333
            },
            {
              "pitch": 76,
              "velocity": 107,
              "position": 2.7708333333333335,
              "duration": 0.15625
            },
            {
              "pitch": 84,
              "velocity": 89,
              "position": 2.78125,
              "duration": 0.2708333333333333
            },
            {
              "pitch": 55,
              "velocity": 73,
              "position": 3.0104166666666665,
              "duration": 0.11458333333333333
            },
            {
              "pitch": 48,
              "velocity": 58,
              "position": 3.0104166666666665,
              "duration": 0.13541666666666666
            },
            {
              "pitch": 76,
              "velocity": 67,
              "position": 3.0625,
              "duration": 0.10416666666666667
            },
            {
              "pitch": 84,
              "velocity": 53,
              "position": 3.1875,
              "duration": 0.07291666666666667
            },
            {
              "pitch": 48,
              "velocity": 41,
              "position": 3.2604166666666665,
              "duration": 0.08333333333333333
            },
            {
              "pitch": 55,
              "velocity": 55,
              "position": 3.25,
              "duration": 0.10416666666666667
            },
            {
              "pitch": 76,
              "velocity": 73,
              "position": 3.2916666666666665,
              "duration": 0.09375
            },
            {
              "pitch": 84,
              "velocity": 55,
              "position": 3.3854166666666665,
              "duration": 0.052083333333333336
            },
            {
              "pitch": 84,
              "velocity": 70,
              "position": 3.5416666666666665,
              "duration": 0.0625
            },
            {
              "pitch": 57,
              "velocity": 70,
              "position": 3.5104166666666665,
              "duration": 0.13541666666666666
            },
            {
              "pitch": 76,
              "velocity": 58,
              "position": 3.4791666666666665,
              "duration": 0.1875
            },
            {
              "pitch": 48,
              "velocity": 64,
              "position": 3.5104166666666665,
              "duration": 0.16666666666666666
            },
            {
              "pitch": 48,
              "velocity": 39,
              "position": 3.78125,
              "duration": 0.11458333333333333
            },
            {
              "pitch": 57,
              "velocity": 55,
              "position": 3.78125,
              "duration": 0.11458333333333333
            }
          ]
        },
        "13": {
          "ctab": {
            "srcChannel": 13,
            "name": "Track 14",
            "accType": "PAD",
            "editable": false,
            "mutedNotes": [],
            "mutedChords": [],
            "autoStart": false,
            "sourceChordNote": 0,
            "sourceChordType": "Maj7",
            "ctb2Low": null,
            "ctb2Main": {
              "ntr": "ROOT_FIXED",
              "ntt": "CHORD",
              "bassOn": false,
              "chordRootUpperLimit": 6,
              "noteLowLimit": 0,
              "noteHighLimit": 127,
              "rtr": "RETRIGGER"
            },
            "ctb2High": null
          },
          "notes": [
            {
              "pitch": 64,
              "velocity": 83,
              "position": 0.041666666666666664,
              "duration": 1.5104166666666667
            },
            {
              "pitch": 59,
              "velocity": 83,
              "position": 0.041666666666666664,
              "duration": 1.5104166666666667
            },
            {
              "pitch": 64,
              "velocity": 83,
              "position": 2.0104166666666665,
              "duration": 0.21875
            },
            {
              "pitch": 59,
              "velocity": 98,
              "position": 2.0104166666666665,
              "duration": 0.21875
            },
            {
              "pitch": 64,
              "velocity": 98,
              "position": 2.75,
              "duration": 0.21875
            },
            {
              "pitch": 59,
              "velocity": 98,
              "position": 2.75,
              "duration": 0.21875
            }
          ]
        },
        "14": {
          "ctab": {
            "srcChannel": 14,
            "name": "Track 15",
            "accType": "PHRASE1",
            "editable": false,
            "mutedNotes": [],
            "mutedChords": [],
            "autoStart": false,
            "sourceChordNote": 0,
            "sourceChordType": "Maj7",
            "ctb2Low": null,
            "ctb2Main": {
              "ntr": "ROOT_TRANSPOSITION",
              "ntt": "CHORD",
              "bassOn": false,
              "chordRootUpperLimit": 6,
              "noteLowLimit": 0,
              "noteHighLimit": 127,
              "rtr": "PITCH_SHIFT"
            },
            "ctb2High": null
          },
          "notes": [
            {
              "pitch": 48,
              "velocity": 78,
              "position": 0,
              "duration": 0.11458333333333333
            },
            {
              "pitch": 55,
              "velocity": 86,
              "position": 0,
              "duration": 0.4166666666666667
            },
            {
              "pitch": 48,
              "velocity": 75,
              "position": 0.22916666666666666,
              "duration": 0.23958333333333334
            },
            {
              "pitch": 48,
              "velocity": 21,
              "position": 0.5208333333333334,
              "duration": 0.0625
            },
            {
              "pitch": 51,
              "velocity": 111,
              "position": 0.4895833333333333,
              "duration": 0.25
            },
            {
              "pitch": 60,
              "velocity": 72,
              "position": 0,
              "duration": 0.8020833333333334
            },
            {
              "pitch": 52,
              "velocity": 82,
              "position": 0.7708333333333334,
              "duration": 0.15625
            },
            {
              "pitch": 48,
              "velocity": 89,
              "position": 0.9895833333333334,
              "duration": 0.16666666666666666
            },
            {
              "pitch": 60,
              "velocity": 82,
              "position": 0.9895833333333334,
              "duration": 0.23958333333333334
            },
            {
              "pitch": 55,
              "velocity": 98,
              "position": 0.9895833333333334,
              "duration": 0.3333333333333333
            },
            {
              "pitch": 48,
              "velocity": 58,
              "position": 1.25,
              "duration": 0.125
            },
            {
              "pitch": 57,
              "velocity": 107,
              "position": 1.5,
              "duration": 0.17708333333333334
            },
            {
              "pitch": 48,
              "velocity": 86,
              "position": 1.5,
              "duration": 0.2604166666666667
            },
            {
              "pitch": 55,
              "velocity": 69,
              "position": 1.7708333333333333,
              "duration": 0.17708333333333334
            },
            {
              "pitch": 48,
              "velocity": 94,
              "position": 2,
              "duration": 0.15625
            },
            {
              "pitch": 55,
              "velocity": 43,
              "position": 2.0104166666666665,
              "duration": 0.34375
            },
            {
              "pitch": 48,
              "velocity": 75,
              "position": 2.2395833333333335,
              "duration": 0.1875
            },
            {
              "pitch": 51,
              "velocity": 105,
              "position": 2.4895833333333335,
              "duration": 0.23958333333333334
            },
            {
              "pitch": 60,
              "velocity": 89,
              "position": 1.5,
              "duration": 1.2395833333333333
            },
            {
              "pitch": 52,
              "velocity": 75,
              "position": 2.75,
              "duration": 0.17708333333333334
            },
            {
              "pitch": 48,
              "velocity": 86,
              "position": 2.9791666666666665,
              "duration": 0.15625
            },
            {
              "pitch": 60,
              "velocity": 86,
              "position": 2.9791666666666665,
              "duration": 0.28125
            },
            {
              "pitch": 55,
              "velocity": 82,
              "position": 2.9791666666666665,
              "duration": 0.3854166666666667
            },
            {
              "pitch": 48,
              "velocity": 69,
              "position": 3.25,
              "duration": 0.13541666666666666
            },
            {
              "pitch": 57,
              "velocity": 94,
              "position": 3.5104166666666665,
              "duration": 0.17708333333333334
            },
            {
              "pitch": 48,
              "velocity": 82,
              "position": 3.5104166666666665,
              "duration": 0.2916666666666667
            },
            {
              "pitch": 60,
              "velocity": 89,
              "position": 3.5,
              "duration": 0.4270833333333333
            },
            {
              "pitch": 55,
              "velocity": 82,
              "position": 3.7604166666666665,
              "duration": 0.16666666666666666
            }
          ]
        },
        "15": {
          "ctab": {
            "srcChannel": 15,
            "name": "Track 16",
            "accType": "PHRASE2",
            "editable": false,
            "mutedNotes": [],
            "mutedChords": [],
            "autoStart": false,
            "sourceChordNote": 0,
            "sourceChordType": "Maj7",
            "ctb2Low": null,
            "ctb2Main": {
              "ntr": "ROOT_TRANSPOSITION",
              "ntt": "CHORD",
              "bassOn": false,
              "chordRootUpperLimit": 6,
              "noteLowLimit": 0,
              "noteHighLimit": 127,
              "rtr": "PITCH_SHIFT"
            },
            "ctb2High": null
          },
          "notes": [
            {
              "pitch": 36,
              "velocity": 123,
              "position": 0,
              "duration": 0.16666666666666666
            },
            {
              "pitch": 59,
              "velocity": 102,
              "position": 0.5,
              "duration": 0.125
            },
            {
              "pitch": 48,
              "velocity": 107,
              "position": 0.5,
              "duration": 0.125
            },
            {
              "pitch": 59,
              "velocity": 97,
              "position": 1.2395833333333333,
              "duration": 0.11458333333333333
            },
            {
              "pitch": 48,
              "velocity": 102,
              "position": 1.2395833333333333,
              "duration": 0.11458333333333333
            },
            {
              "pitch": 35,
              "velocity": 121,
              "position": 1.7291666666666667,
              "duration": 0.23958333333333334
            },
            {
              "pitch": 36,
              "velocity": 113,
              "position": 1.9895833333333333,
              "duration": 0.125
            },
            {
              "pitch": 43,
              "velocity": 98,
              "position": 2.2395833333333335,
              "duration": 0.19791666666666666
            },
            {
              "pitch": 55,
              "velocity": 104,
              "position": 2.2291666666666665,
              "duration": 0.21875
            },
            {
              "pitch": 57,
              "velocity": 107,
              "position": 2.5,
              "duration": 0.08333333333333333
            },
            {
              "pitch": 45,
              "velocity": 93,
              "position": 2.5,
              "duration": 0.09375
            },
            {
              "pitch": 48,
              "velocity": 118,
              "position": 2.75,
              "duration": 0.08333333333333333
            },
            {
              "pitch": 59,
              "velocity": 119,
              "position": 2.75,
              "duration": 0.08333333333333333
            },
            {
              "pitch": 48,
              "velocity": 113,
              "position": 3.25,
              "duration": 0.08333333333333333
            },
            {
              "pitch": 59,
              "velocity": 118,
              "position": 3.25,
              "duration": 0.08333333333333333
            }
          ]
        }
      }
    },
    "Fill_In_AA": {
      "type": "Fill_In_AA",
      "sizeInBeats": 4,
      "channels": {
        "9": {
          "ctab": {
            "srcChannel": 9,
            "name": "Track 10",
            "accType": "SUBRHYTHM",
            "editable": false,
            "mutedNotes": [],
            "mutedChords": [],
            "autoStart": true,
            "sourceChordNote": 0,
            "sourceChordType": "Maj7",
            "ctb2Low": null,
            "ctb2Main": {
              "ntr": "ROOT_FIXED",
              "ntt": "BYPASS",
              "bassOn": false,
              "chordRootUpperLimit": 6,
              "noteLowLimit": 0,
              "noteHighLimit": 127,
              "rtr": "PITCH_SHIFT"
            },
            "ctb2High": null
          },
          "notes": [
            {
              "pitch": 36,
              "velocity": 115,
              "position": 0,
              "duration": 0.010416666666666666
            },
            {
              "pitch": 40,
              "velocity": 47,
              "position": 0.010416666666666666,
              "duration": 0.010416666666666666
            },
            {
              "pitch": 40,
              "velocity": 28,
              "position": 0.2604166666666667,
              "duration": 0.010416666666666666
            },
            {
              "pitch": 40,
              "velocity": 113,
              "position": 0.5,
              "duration": 0.010416666666666666
            },
            {
              "pitch": 40,
              "velocity": 30,
              "position": 0.75,
              "duration": 0.010416666666666666
            },
            {
              "pitch": 36,
              "velocity": 115,
              "position": 1,
              "duration": 0.010416666666666666
            },
            {
              "pitch": 40,
              "velocity": 47,
              "position": 1.0104166666666667,
              "duration": 0.010416666666666666
            },
            {
              "pitch": 40,
              "velocity": 37,
              "position": 1.25,
              "duration": 0.010416666666666666
            },
            {
              "pitch": 40,
              "velocity": 113,
              "position": 1.5,
              "duration": 0.010416666666666666
            },
            {
              "pitch": 40,
              "velocity": 30,
              "position": 1.7604166666666667,
              "duration": 0.010416666666666666
            },
            {
              "pitch": 36,
              "velocity": 115,
              "position": 2,
              "duration": 0.010416666666666666
            },
            {
              "pitch": 40,
              "velocity": 30,
              "position": 2.0104166666666665,
              "duration": 0.010416666666666666
            },
            {
              "pitch": 40,
              "velocity": 31,
              "position": 2.25,
              "duration": 0.010416666666666666
            },
            {
              "pitch": 40,
              "velocity": 113,
              "position": 2.5,
              "duration": 0.010416666666666666
            },
            {
              "pitch": 40,
              "velocity": 30,
              "position": 2.75,
              "duration": 0.010416666666666666
            },
            {
              "pitch": 36,
              "velocity": 115,
              "position": 3,
              "duration": 0.010416666666666666
            },
            {
              "pitch": 40,
              "velocity": 49,
              "position": 3,
              "duration": 0.010416666666666666
            },
            {
              "pitch": 40,
              "velocity": 72,
              "position": 3.25,
              "duration": 0.010416666666666666
            },
            {
              "pitch": 40,
              "velocity": 47,
              "position": 3.375,
              "duration": 0.010416666666666666
            },
            {
              "pitch": 40,
              "velocity": 113,
              "position": 3.5,
              "duration": 0.010416666666666666
            },
            {
              "pitch": 40,
              "velocity": 89,
              "position": 3.75,
              "duration": 0.010416666666666666
            }
          ]
        },
        "10": {
          "ctab": {
            "srcChannel": 10,
            "name": "Track 11",
            "accType": "BASS",
            "editable": false,
            "mutedNotes": [],
            "mutedChords": [],
            "autoStart": false,
            "sourceChordNote": 0,
            "sourceChordType": "Maj7",
            "ctb2Low": null,
            "ctb2Main": {
              "ntr": "ROOT_TRANSPOSITION",
              "ntt": "MELODY",
              "bassOn": true,
              "chordRootUpperLimit": 3,
              "noteLowLimit": 28,
              "noteHighLimit": 127,
              "rtr": "PITCH_SHIFT"
            },
            "ctb2High": null
          },
          "notes": [
            {
              "pitch": 36,
              "velocity": 117,
              "position": 0,
              "duration": 0.5104166666666666
            },
            {
              "pitch": 36,
              "velocity": 86,
              "position": 0.75,
              "duration": 0.052083333333333336
            },
            {
              "pitch": 31,
              "velocity": 119,
              "position": 1,
              "duration": 0.5208333333333334
            },
            {
              "pitch": 31,
              "velocity": 103,
              "position": 1.75,
              "duration": 0.08333333333333333
            },
            {
              "pitch": 36,
              "velocity": 121,
              "position": 2,
              "duration": 0.46875
            },
            {
              "pitch": 31,
              "velocity": 121,
              "position": 2.5,
              "duration": 0.46875
            },
            {
              "pitch": 33,
              "velocity": 121,
              "position": 3,
              "duration": 0.4583333333333333
            },
            {
              "pitch": 35,
              "velocity": 114,
              "position": 3.5,
              "duration": 0.46875
            }
          ]
        },
        "12": {
          "ctab": {
            "srcChannel": 12,
            "name": "Track 13",
            "accType": "CHORD2",
            "editable": false,
            "mutedNotes": [],
            "mutedChords": [],
            "autoStart": false,
            "sourceChordNote": 0,
            "sourceChordType": "Maj7",
            "ctb2Low": null,
            "ctb2Main": {
              "ntr": "ROOT_TRANSPOSITION",
              "ntt": "CHORD",
              "bassOn": false,
              "chordRootUpperLimit": 6,
              "noteLowLimit": 0,
              "noteHighLimit": 79,
              "rtr": "STOP"
            },
            "ctb2High": null
          },
          "notes": [
            {
              "pitch": 55,
              "velocity": 70,
              "position": 0.020833333333333332,
              "duration": 0.20833333333333334
            },
            {
              "pitch": 84,
              "velocity": 65,
              "position": 0.25,
              "duration": 0.08333333333333333
            },
            {
              "pitch": 79,
              "velocity": 88,
              "position": 0.25,
              "duration": 0.08333333333333333
            },
            {
              "pitch": 72,
              "velocity": 72,
              "position": 0.2604166666666667,
              "duration": 0.08333333333333333
            },
            {
              "pitch": 48,
              "velocity": 54,
              "position": 0.2708333333333333,
              "duration": 0.19791666666666666
            },
            {
              "pitch": 57,
              "velocity": 67,
              "position": 0.5208333333333334,
              "duration": 0.20833333333333334
            },
            {
              "pitch": 48,
              "velocity": 52,
              "position": 0.7395833333333334,
              "duration": 0.22916666666666666
            },
            {
              "pitch": 79,
              "velocity": 88,
              "position": 1.0104166666666667,
              "duration": 0.0625
            },
            {
              "pitch": 84,
              "velocity": 65,
              "position": 1,
              "duration": 0.08333333333333333
            },
            {
              "pitch": 72,
              "velocity": 65,
              "position": 1.0104166666666667,
              "duration": 0.08333333333333333
            },
            {
              "pitch": 55,
              "velocity": 55,
              "position": 1.0104166666666667,
              "duration": 0.23958333333333334
            },
            {
              "pitch": 48,
              "velocity": 64,
              "position": 1.2708333333333333,
              "duration": 0.19791666666666666
            },
            {
              "pitch": 57,
              "velocity": 73,
              "position": 1.5104166666666667,
              "duration": 0.21875
            },
            {
              "pitch": 72,
              "velocity": 59,
              "position": 1.78125,
              "duration": 0.07291666666666667
            },
            {
              "pitch": 48,
              "velocity": 61,
              "position": 1.7604166666666667,
              "duration": 0.23958333333333334
            },
            {
              "pitch": 79,
              "velocity": 81,
              "position": 2.0208333333333335,
              "duration": 0.15625
            },
            {
              "pitch": 84,
              "velocity": 75,
              "position": 2.0104166666666665,
              "duration": 0.17708333333333334
            },
            {
              "pitch": 55,
              "velocity": 58,
              "position": 2.0416666666666665,
              "duration": 0.20833333333333334
            },
            {
              "pitch": 72,
              "velocity": 59,
              "position": 2.25,
              "duration": 0.08333333333333333
            },
            {
              "pitch": 48,
              "velocity": 55,
              "position": 2.2708333333333335,
              "duration": 0.19791666666666666
            },
            {
              "pitch": 81,
              "velocity": 79,
              "position": 2.5208333333333335,
              "duration": 0.041666666666666664
            },
            {
              "pitch": 84,
              "velocity": 72,
              "position": 2.5104166666666665,
              "duration": 0.07291666666666667
            },
            {
              "pitch": 57,
              "velocity": 67,
              "position": 2.5104166666666665,
              "duration": 0.22916666666666666
            },
            {
              "pitch": 72,
              "velocity": 70,
              "position": 2.7604166666666665,
              "duration": 0.09375
            },
            {
              "pitch": 48,
              "velocity": 58,
              "position": 2.75,
              "duration": 0.22916666666666666
            },
            {
              "pitch": 75,
              "velocity": 79,
              "position": 2.9895833333333335,
              "duration": 0.08333333333333333
            },
            {
              "pitch": 84,
              "velocity": 68,
              "position": 3.0208333333333335,
              "duration": 0.14583333333333334
            },
            {
              "pitch": 81,
              "velocity": 10,
              "position": 3.09375,
              "duration": 0.07291666666666667
            },
            {
              "pitch": 55,
              "velocity": 61,
              "position": 3.0104166666666665,
              "duration": 0.22916666666666666
            },
            {
              "pitch": 79,
              "velocity": 68,
              "position": 3.1041666666666665,
              "duration": 0.14583333333333334
            },
            {
              "pitch": 76,
              "velocity": 68,
              "position": 3.1770833333333335,
              "duration": 0.125
            },
            {
              "pitch": 72,
              "velocity": 62,
              "position": 3.2708333333333335,
              "duration": 0.10416666666666667
            },
            {
              "pitch": 48,
              "velocity": 52,
              "position": 3.2604166666666665,
              "duration": 0.1875
            },
            {
              "pitch": 69,
              "velocity": 84,
              "position": 3.5,
              "duration": 0.16666666666666666
            },
            {
              "pitch": 76,
              "velocity": 53,
              "position": 3.5,
              "duration": 0.17708333333333334
            },
            {
              "pitch": 57,
              "velocity": 70,
              "position": 3.5,
              "duration": 0.22916666666666666
            },
            {
              "pitch": 72,
              "velocity": 79,
              "position": 3.75,
              "duration": 0.07291666666666667
            },
            {
              "pitch": 67,
              "velocity": 69,
              "position": 3.7395833333333335,
              "duration": 0.10416666666666667
            },
            {
              "pitch": 48,
              "velocity": 50,
              "position": 3.75,
              "duration": 0.22916666666666666
            }
          ]
        },
        "14": {
          "ctab": {
            "srcChannel": 14,
            "name": "Track 15",
            "accType": "PHRASE1",
            "editable": false,
            "mutedNotes": [],
            "mutedChords": [],
            "autoStart": false,
            "sourceChordNote": 0,
            "sourceChordType": "Maj7",
            "ctb2Low": null,
            "ctb2Main": {
              "ntr": "ROOT_TRANSPOSITION",
              "ntt": "CHORD",
              "bassOn": false,
              "chordRootUpperLimit": 6,
              "noteLowLimit": 0,
              "noteHighLimit": 127,
              "rtr": "PITCH_SHIFT"
            },
            "ctb2High": null
          },
          "notes": [
            {
              "pitch": 48,
              "velocity": 78,
              "position": 0,
              "duration": 0.19791666666666666
            },
            {
              "pitch": 55,
              "velocity": 82,
              "position": 0,
              "duration": 0.21875
            },
            {
              "pitch": 55,
              "velocity": 33,
              "position": 0.2604166666666667,
              "duration": 0.13541666666666666
            },
            {
              "pitch": 48,
              "velocity": 60,
              "position": 0.28125,
              "duration": 0.13541666666666666
            },
            {
              "pitch": 48,
              "velocity": 75,
              "position": 0.5,
              "duration": 0.20833333333333334
            },
            {
              "pitch": 57,
              "velocity": 89,
              "position": 0.5,
              "duration": 0.20833333333333334
            },
            {
              "pitch": 55,
              "velocity": 89,
              "position": 1,
              "duration": 0.16666666666666666
            },
            {
              "pitch": 48,
              "velocity": 78,
              "position": 0.9895833333333334,
              "duration": 0.20833333333333334
            },
            {
              "pitch": 57,
              "velocity": 94,
              "position": 1.5,
              "duration": 0.17708333333333334
            },
            {
              "pitch": 48,
              "velocity": 75,
              "position": 1.5104166666666667,
              "duration": 0.22916666666666666
            },
            {
              "pitch": 55,
              "velocity": 69,
              "position": 1.75,
              "duration": 0.17708333333333334
            },
            {
              "pitch": 48,
              "velocity": 82,
              "position": 1.9895833333333333,
              "duration": 0.3229166666666667
            },
            {
              "pitch": 48,
              "velocity": 66,
              "position": 2.4895833333333335,
              "duration": 0.125
            },
            {
              "pitch": 55,
              "velocity": 98,
              "position": 2.25,
              "duration": 0.4895833333333333
            },
            {
              "pitch": 60,
              "velocity": 94,
              "position": 2.25,
              "duration": 0.5729166666666666
            },
            {
              "pitch": 48,
              "velocity": 82,
              "position": 2.7395833333333335,
              "duration": 0.19791666666666666
            },
            {
              "pitch": 51,
              "velocity": 99,
              "position": 3,
              "duration": 0.0625
            },
            {
              "pitch": 52,
              "velocity": 78,
              "position": 3.0729166666666665,
              "duration": 0.20833333333333334
            },
            {
              "pitch": 48,
              "velocity": 93,
              "position": 3.2395833333333335,
              "duration": 0.6666666666666666
            },
            {
              "pitch": 55,
              "velocity": 93,
              "position": 3.2395833333333335,
              "duration": 0.6770833333333334
            }
          ]
        }
      }
    },
    "Intro_A": {
      "type": "Intro_A",
      "sizeInBeats": 4,
      "channels": {
        "9": {
          "ctab": {
            "srcChannel": 9,
            "name": "Track 10",
            "accType": "SUBRHYTHM",
            "editable": false,
            "mutedNotes": [],
            "mutedChords": [],
            "autoStart": true,
            "sourceChordNote": 0,
            "sourceChordType": "Maj7",
            "ctb2Low": null,
            "ctb2Main": {
              "ntr": "ROOT_FIXED",
              "ntt": "BYPASS",
              "bassOn": false,
              "chordRootUpperLimit": 6,
              "noteLowLimit": 0,
              "noteHighLimit": 127,
              "rtr": "PITCH_SHIFT"
            },
            "ctb2High": null
          },
          "notes": [
            {
              "pitch": 44,
              "velocity": 111,
              "position": 0,
              "duration": 0.010416666666666666
            },
            {
              "pitch": 44,
              "velocity": 111,
              "position": 1,
              "duration": 0.010416666666666666
            },
            {
              "pitch": 44,
              "velocity": 113,
              "position": 2,
              "duration": 0.010416666666666666
            },
            {
              "pitch": 38,
              "velocity": 71,
              "position": 3,
              "duration": 0.010416666666666666
            },
            {
              "pitch": 38,
              "velocity": 55,
              "position": 3.25,
              "duration": 0.010416666666666666
            },
            {
              "pitch": 38,
              "velocity": 111,
              "position": 3.5,
              "duration": 0.010416666666666666
            },
            {
              "pitch": 38,
              "velocity": 71,
              "position": 3.75,
              "duration": 0.010416666666666666
            }
          ]
        },
        "10": {
          "ctab": {
            "srcChannel": 10,
            "name": "Track 11",
            "accType": "BASS",
            "editable": false,
            "mutedNotes": [],
            "mutedChords": [],
            "autoStart": false,
            "sourceChordNote": 0,
            "sourceChordType": "Maj7",
            "ctb2Low": null,
            "ctb2Main": {
              "ntr": "ROOT_TRANSPOSITION",
              "ntt": "MELODIC_MINOR",
              "bassOn": false,
              "chordRootUpperLimit": 3,
              "noteLowLimit": 28,
              "noteHighLimit": 127,
              "rtr": "PITCH_SHIFT"
            },
            "ctb2High": null
          },
          "notes": [
            {
              "pitch": 36,
              "velocity": 88,
              "position": 2.75,
              "duration": 0.20833333333333334
            },
            {
              "pitch": 39,
              "velocity": 115,
              "position": 3,
              "duration": 0.20833333333333334
            },
            {
              "pitch": 31,
              "velocity": 99,
              "position": 3.25,
              "duration": 0.1875
            },
            {
              "pitch": 38,
              "velocity": 121,
              "position": 3.5,
              "duration": 0.3958333333333333
            }
          ]
        },
        "12": {
          "ctab": {
            "srcChannel": 12,
            "name": "Track 13",
            "accType": "CHORD2",
            "editable": false,
            "mutedNotes": [],
            "mutedChords": [],
            "autoStart": false,
            "sourceChordNote": 0,
            "sourceChordType": "Maj7",
            "ctb2Low": null,
            "ctb2Main": {
              "ntr": "ROOT_TRANSPOSITION",
              "ntt": "MELODIC_MINOR",
              "bassOn": false,
              "chordRootUpperLimit": 6,
              "noteLowLimit": 0,
              "noteHighLimit": 79,
              "rtr": "STOP"
            },
            "ctb2High": null
          },
          "notes": [
            {
              "pitch": 107,
              "velocity": 62,
              "position": 3.03125,
              "duration": 0.041666666666666664
            },
            {
              "pitch": 105,
              "velocity": 61,
              "position": 3.0520833333333335,
              "duration": 0.03125
            },
            {
              "pitch": 103,
              "velocity": 60,
              "position": 3.0729166666666665,
              "duration": 0.041666666666666664
            },
            {
              "pitch": 101,
              "velocity": 60,
              "position": 3.1041666666666665,
              "duration": 0.041666666666666664
            },
            {
              "pitch": 100,
              "velocity": 59,
              "position": 3.1354166666666665,
              "duration": 0.052083333333333336
            },
            {
              "pitch": 98,
              "velocity": 58,
              "position": 3.1770833333333335,
              "duration": 0.041666666666666664
            },
            {
              "pitch": 96,
              "velocity": 57,
              "position": 3.2083333333333335,
              "duration": 0.0625
            },
            {
              "pitch": 95,
              "velocity": 56,
              "position": 3.2395833333333335,
              "duration": 0.07291666666666667
            },
            {
              "pitch": 93,
              "velocity": 55,
              "position": 3.28125,
              "duration": 0.08333333333333333
            },
            {
              "pitch": 91,
              "velocity": 54,
              "position": 3.3229166666666665,
              "duration": 0.09375
            },
            {
              "pitch": 89,
              "velocity": 53,
              "position": 3.3645833333333335,
              "duration": 0.10416666666666667
            },
            {
              "pitch": 88,
              "velocity": 53,
              "position": 3.3958333333333335,
              "duration": 0.11458333333333333
            },
            {
              "pitch": 86,
              "velocity": 52,
              "position": 3.4375,
              "duration": 0.125
            },
            {
              "pitch": 84,
              "velocity": 51,
              "position": 3.4791666666666665,
              "duration": 0.125
            },
            {
              "pitch": 83,
              "velocity": 49,
              "position": 3.53125,
              "duration": 0.125
            },
            {
              "pitch": 81,
              "velocity": 48,
              "position": 3.5729166666666665,
              "duration": 0.125
            },
            {
              "pitch": 79,
              "velocity": 47,
              "position": 3.625,
              "duration": 0.13541666666666666
            },
            {
              "pitch": 77,
              "velocity": 46,
              "position": 3.6770833333333335,
              "duration": 0.125
            },
            {
              "pitch": 76,
              "velocity": 44,
              "position": 3.7291666666666665,
              "duration": 0.11458333333333333
            },
            {
              "pitch": 74,
              "velocity": 43,
              "position": 3.78125,
              "duration": 0.13541666666666666
            }
          ]
        },
        "14": {
          "ctab": {
            "srcChannel": 14,
            "name": "Track 15",
            "accType": "PHRASE1",
            "editable": false,
            "mutedNotes": [],
            "mutedChords": [],
            "autoStart": false,
            "sourceChordNote": 0,
            "sourceChordType": "Maj7",
            "ctb2Low": null,
            "ctb2Main": {
              "ntr": "ROOT_TRANSPOSITION",
              "ntt": "MELODIC_MINOR",
              "bassOn": false,
              "chordRootUpperLimit": 6,
              "noteLowLimit": 0,
              "noteHighLimit": 127,
              "rtr": "PITCH_SHIFT"
            },
            "ctb2High": null
          },
          "notes": [
            {
              "pitch": 54,
              "velocity": 88,
              "position": 3.2395833333333335,
              "duration": 0.7291666666666666
            },
            {
              "pitch": 47,
              "velocity": 89,
              "position": 3.2395833333333335,
              "duration": 0.7395833333333334
            }
          ]
        }
      }
    },
    "Intro_B": {
      "type": "Intro_B",
      "sizeInBeats": 8,
      "channels": {
        "9": {
          "ctab": {
            "srcChannel": 9,
            "name": "Track 10",
            "accType": "SUBRHYTHM",
            "editable": false,
            "mutedNotes": [],
            "mutedChords": [],
            "autoStart": true,
            "sourceChordNote": 0,
            "sourceChordType": "Maj7",
            "ctb2Low": null,
            "ctb2Main": {
              "ntr": "ROOT_FIXED",
              "ntt": "BYPASS",
              "bassOn": false,
              "chordRootUpperLimit": 6,
              "noteLowLimit": 0,
              "noteHighLimit": 127,
              "rtr": "PITCH_SHIFT"
            },
            "ctb2High": null
          },
          "notes": [
            {
              "pitch": 36,
              "velocity": 115,
              "position": 0,
              "duration": 0.010416666666666666
            },
            {
              "pitch": 40,
              "velocity": 102,
              "position": 0,
              "duration": 0.010416666666666666
            },
            {
              "pitch": 36,
              "velocity": 115,
              "position": 2,
              "duration": 0.010416666666666666
            },
            {
              "pitch": 40,
              "velocity": 102,
              "position": 2,
              "duration": 0.010416666666666666
            },
            {
              "pitch": 36,
              "velocity": 115,
              "position": 4,
              "duration": 0.010416666666666666
            },
            {
              "pitch": 40,
              "velocity": 115,
              "position": 4,
              "duration": 0.010416666666666666
            },
            {
              "pitch": 40,
              "velocity": 54,
              "position": 7.25,
              "duration": 0.010416666666666666
            },
            {
              "pitch": 40,
              "velocity": 98,
              "position": 7.5,
              "duration": 0.010416666666666666
            },
            {
              "pitch": 40,
              "velocity": 81,
              "position": 7.75,
              "duration": 0.010416666666666666
            }
          ]
        },
        "10": {
          "ctab": {
            "srcChannel": 10,
            "name": "Track 11",
            "accType": "BASS",
            "editable": false,
            "mutedNotes": [],
            "mutedChords": [],
            "autoStart": false,
            "sourceChordNote": 0,
            "sourceChordType": "Maj7",
            "ctb2Low": null,
            "ctb2Main": {
              "ntr": "ROOT_TRANSPOSITION",
              "ntt": "MELODIC_MINOR",
              "bassOn": false,
              "chordRootUpperLimit": 3,
              "noteLowLimit": 28,
              "noteHighLimit": 127,
              "rtr": "PITCH_SHIFT"
            },
            "ctb2High": null
          },
          "notes": [
            {
              "pitch": 36,
              "velocity": 119,
              "position": 0,
              "duration": 0.4166666666666667
            },
            {
              "pitch": 29,
              "velocity": 119,
              "position": 2,
              "duration": 0.4583333333333333
            },
            {
              "pitch": 36,
              "velocity": 121,
              "position": 4,
              "duration": 0.46875
            },
            {
              "pitch": 36,
              "velocity": 96,
              "position": 7.03125,
              "duration": 0.25
            }
          ]
        },
        "12": {
          "ctab": {
            "srcChannel": 12,
            "name": "Track 13",
            "accType": "CHORD2",
            "editable": false,
            "mutedNotes": [],
            "mutedChords": [],
            "autoStart": false,
            "sourceChordNote": 0,
            "sourceChordType": "Maj7",
            "ctb2Low": null,
            "ctb2Main": {
              "ntr": "ROOT_TRANSPOSITION",
              "ntt": "MELODIC_MINOR",
              "bassOn": false,
              "chordRootUpperLimit": 6,
              "noteLowLimit": 0,
              "noteHighLimit": 79,
              "rtr": "STOP"
            },
            "ctb2High": null
          },
          "notes": [
            {
              "pitch": 78,
              "velocity": 102,
              "position": 0.010416666666666666,
              "duration": 0.16666666666666666
            },
            {
              "pitch": 84,
              "velocity": 99,
              "position": 0.010416666666666666,
              "duration": 0.17708333333333334
            },
            {
              "pitch": 72,
              "velocity": 100,
              "position": 0.010416666666666666,
              "duration": 0.17708333333333334
            },
            {
              "pitch": 84,
              "velocity": 76,
              "position": 0.25,
              "duration": 0.125
            },
            {
              "pitch": 48,
              "velocity": 87,
              "position": 0.010416666666666666,
              "duration": 0.3854166666666667
            },
            {
              "pitch": 72,
              "velocity": 73,
              "position": 0.25,
              "duration": 0.14583333333333334
            },
            {
              "pitch": 79,
              "velocity": 77,
              "position": 0.2708333333333333,
              "duration": 0.125
            },
            {
              "pitch": 55,
              "velocity": 90,
              "position": 0.020833333333333332,
              "duration": 0.3854166666666667
            },
            {
              "pitch": 60,
              "velocity": 87,
              "position": 0.010416666666666666,
              "duration": 0.40625
            },
            {
              "pitch": 84,
              "velocity": 85,
              "position": 0.5,
              "duration": 0.14583333333333334
            },
            {
              "pitch": 72,
              "velocity": 90,
              "position": 0.5,
              "duration": 0.15625
            },
            {
              "pitch": 79,
              "velocity": 91,
              "position": 0.5,
              "duration": 0.15625
            },
            {
              "pitch": 84,
              "velocity": 61,
              "position": 0.7604166666666666,
              "duration": 0.13541666666666666
            },
            {
              "pitch": 79,
              "velocity": 73,
              "position": 0.7604166666666666,
              "duration": 0.13541666666666666
            },
            {
              "pitch": 72,
              "velocity": 71,
              "position": 0.7604166666666666,
              "duration": 0.14583333333333334
            },
            {
              "pitch": 84,
              "velocity": 68,
              "position": 1,
              "duration": 0.13541666666666666
            },
            {
              "pitch": 79,
              "velocity": 81,
              "position": 1,
              "duration": 0.14583333333333334
            },
            {
              "pitch": 72,
              "velocity": 79,
              "position": 1.0104166666666667,
              "duration": 0.13541666666666666
            },
            {
              "pitch": 79,
              "velocity": 75,
              "position": 1.25,
              "duration": 0.13541666666666666
            },
            {
              "pitch": 84,
              "velocity": 63,
              "position": 1.25,
              "duration": 0.13541666666666666
            },
            {
              "pitch": 72,
              "velocity": 68,
              "position": 1.25,
              "duration": 0.14583333333333334
            },
            {
              "pitch": 84,
              "velocity": 71,
              "position": 1.5,
              "duration": 0.10416666666666667
            },
            {
              "pitch": 79,
              "velocity": 86,
              "position": 1.4895833333333333,
              "duration": 0.14583333333333334
            },
            {
              "pitch": 72,
              "velocity": 81,
              "position": 1.4895833333333333,
              "duration": 0.16666666666666666
            },
            {
              "pitch": 84,
              "velocity": 45,
              "position": 1.7604166666666667,
              "duration": 0.052083333333333336
            },
            {
              "pitch": 79,
              "velocity": 68,
              "position": 1.7291666666666667,
              "duration": 0.15625
            },
            {
              "pitch": 72,
              "velocity": 71,
              "position": 1.75,
              "duration": 0.13541666666666666
            },
            {
              "pitch": 72,
              "velocity": 94,
              "position": 1.9895833333333333,
              "duration": 0.15625
            },
            {
              "pitch": 79,
              "velocity": 86,
              "position": 2,
              "duration": 0.15625
            },
            {
              "pitch": 75,
              "velocity": 101,
              "position": 2,
              "duration": 0.16666666666666666
            },
            {
              "pitch": 84,
              "velocity": 85,
              "position": 2.0104166666666665,
              "duration": 0.15625
            },
            {
              "pitch": 84,
              "velocity": 74,
              "position": 2.25,
              "duration": 0.13541666666666666
            },
            {
              "pitch": 79,
              "velocity": 59,
              "position": 2.2604166666666665,
              "duration": 0.125
            },
            {
              "pitch": 41,
              "velocity": 91,
              "position": 2,
              "duration": 0.3958333333333333
            },
            {
              "pitch": 72,
              "velocity": 64,
              "position": 2.25,
              "duration": 0.14583333333333334
            },
            {
              "pitch": 75,
              "velocity": 61,
              "position": 2.25,
              "duration": 0.14583333333333334
            },
            {
              "pitch": 48,
              "velocity": 80,
              "position": 2,
              "duration": 0.40625
            },
            {
              "pitch": 53,
              "velocity": 87,
              "position": 2,
              "duration": 0.4270833333333333
            },
            {
              "pitch": 84,
              "velocity": 72,
              "position": 2.5,
              "duration": 0.13541666666666666
            },
            {
              "pitch": 72,
              "velocity": 73,
              "position": 2.5104166666666665,
              "duration": 0.125
            },
            {
              "pitch": 79,
              "velocity": 76,
              "position": 2.5104166666666665,
              "duration": 0.13541666666666666
            },
            {
              "pitch": 75,
              "velocity": 66,
              "position": 2.5104166666666665,
              "duration": 0.13541666666666666
            },
            {
              "pitch": 84,
              "velocity": 68,
              "position": 2.75,
              "duration": 0.14583333333333334
            },
            {
              "pitch": 72,
              "velocity": 67,
              "position": 2.7604166666666665,
              "duration": 0.14583333333333334
            },
            {
              "pitch": 79,
              "velocity": 65,
              "position": 2.7604166666666665,
              "duration": 0.15625
            },
            {
              "pitch": 75,
              "velocity": 56,
              "position": 2.7604166666666665,
              "duration": 0.15625
            },
            {
              "pitch": 84,
              "velocity": 76,
              "position": 3.0104166666666665,
              "duration": 0.14583333333333334
            },
            {
              "pitch": 79,
              "velocity": 79,
              "position": 3.0104166666666665,
              "duration": 0.14583333333333334
            },
            {
              "pitch": 72,
              "velocity": 78,
              "position": 3.0104166666666665,
              "duration": 0.15625
            },
            {
              "pitch": 75,
              "velocity": 68,
              "position": 3.0208333333333335,
              "duration": 0.14583333333333334
            },
            {
              "pitch": 84,
              "velocity": 64,
              "position": 3.25,
              "duration": 0.13541666666666666
            },
            {
              "pitch": 72,
              "velocity": 69,
              "position": 3.25,
              "duration": 0.14583333333333334
            },
            {
              "pitch": 75,
              "velocity": 59,
              "position": 3.2604166666666665,
              "duration": 0.13541666666666666
            },
            {
              "pitch": 79,
              "velocity": 65,
              "position": 3.2604166666666665,
              "duration": 0.13541666666666666
            },
            {
              "pitch": 72,
              "velocity": 84,
              "position": 3.5,
              "duration": 0.11458333333333333
            },
            {
              "pitch": 79,
              "velocity": 81,
              "position": 3.5104166666666665,
              "duration": 0.11458333333333333
            },
            {
              "pitch": 84,
              "velocity": 78,
              "position": 3.4895833333333335,
              "duration": 0.14583333333333334
            },
            {
              "pitch": 75,
              "velocity": 81,
              "position": 3.5,
              "duration": 0.13541666666666666
            },
            {
              "pitch": 72,
              "velocity": 57,
              "position": 3.7291666666666665,
              "duration": 0.10416666666666667
            },
            {
              "pitch": 75,
              "velocity": 45,
              "position": 3.7395833333333335,
              "duration": 0.09375
            },
            {
              "pitch": 79,
              "velocity": 55,
              "position": 3.75,
              "duration": 0.11458333333333333
            },
            {
              "pitch": 84,
              "velocity": 63,
              "position": 3.7395833333333335,
              "duration": 0.14583333333333334
            },
            {
              "pitch": 82,
              "velocity": 98,
              "position": 4.010416666666667,
              "duration": 0.22916666666666666
            },
            {
              "pitch": 81,
              "velocity": 59,
              "position": 4.270833333333333,
              "duration": 0.041666666666666664
            },
            {
              "pitch": 88,
              "velocity": 82,
              "position": 4.020833333333333,
              "duration": 0.3958333333333333
            },
            {
              "pitch": 48,
              "velocity": 85,
              "position": 4.010416666666667,
              "duration": 0.4375
            },
            {
              "pitch": 60,
              "velocity": 85,
              "position": 4,
              "duration": 0.46875
            },
            {
              "pitch": 55,
              "velocity": 86,
              "position": 4.010416666666667,
              "duration": 0.4583333333333333
            },
            {
              "pitch": 82,
              "velocity": 73,
              "position": 4.354166666666667,
              "duration": 0.14583333333333334
            },
            {
              "pitch": 81,
              "velocity": 74,
              "position": 4.4375,
              "duration": 0.13541666666666666
            },
            {
              "pitch": 79,
              "velocity": 95,
              "position": 4.541666666666667,
              "duration": 0.10416666666666667
            },
            {
              "pitch": 75,
              "velocity": 101,
              "position": 4.802083333333333,
              "duration": 0.1875
            },
            {
              "pitch": 74,
              "velocity": 71,
              "position": 5.020833333333333,
              "duration": 0.09375
            },
            {
              "pitch": 81,
              "velocity": 90,
              "position": 4.802083333333333,
              "duration": 0.375
            },
            {
              "pitch": 75,
              "velocity": 63,
              "position": 5.104166666666667,
              "duration": 0.14583333333333334
            },
            {
              "pitch": 74,
              "velocity": 76,
              "position": 5.197916666666667,
              "duration": 0.125
            },
            {
              "pitch": 72,
              "velocity": 90,
              "position": 5.28125,
              "duration": 0.10416666666666667
            },
            {
              "pitch": 70,
              "velocity": 106,
              "position": 5.489583333333333,
              "duration": 0.19791666666666666
            },
            {
              "pitch": 69,
              "velocity": 65,
              "position": 5.739583333333333,
              "duration": 0.041666666666666664
            },
            {
              "pitch": 76,
              "velocity": 76,
              "position": 5.510416666666667,
              "duration": 0.3854166666666667
            },
            {
              "pitch": 70,
              "velocity": 67,
              "position": 5.791666666666667,
              "duration": 0.16666666666666666
            },
            {
              "pitch": 69,
              "velocity": 75,
              "position": 5.895833333333333,
              "duration": 0.13541666666666666
            },
            {
              "pitch": 67,
              "velocity": 93,
              "position": 6,
              "duration": 0.08333333333333333
            },
            {
              "pitch": 63,
              "velocity": 92,
              "position": 6.239583333333333,
              "duration": 0.20833333333333334
            },
            {
              "pitch": 62,
              "velocity": 89,
              "position": 6.5,
              "duration": 0.20833333333333334
            },
            {
              "pitch": 67,
              "velocity": 89,
              "position": 6.25,
              "duration": 0.6458333333333334
            },
            {
              "pitch": 60,
              "velocity": 97,
              "position": 6.760416666666667,
              "duration": 0.21875
            },
            {
              "pitch": 48,
              "velocity": 85,
              "position": 7.010416666666667,
              "duration": 0.07291666666666667
            },
            {
              "pitch": 55,
              "velocity": 86,
              "position": 7.010416666666667,
              "duration": 0.08333333333333333
            },
            {
              "pitch": 60,
              "velocity": 85,
              "position": 7,
              "duration": 0.10416666666666667
            },
            {
              "pitch": 72,
              "velocity": 89,
              "position": 7,
              "duration": 0.28125
            }
          ]
        },
        "14": {
          "ctab": {
            "srcChannel": 14,
            "name": "Track 15",
            "accType": "PHRASE1",
            "editable": false,
            "mutedNotes": [],
            "mutedChords": [],
            "autoStart": false,
            "sourceChordNote": 0,
            "sourceChordType": "Maj7",
            "ctb2Low": null,
            "ctb2Main": {
              "ntr": "ROOT_TRANSPOSITION",
              "ntt": "MELODIC_MINOR",
              "bassOn": false,
              "chordRootUpperLimit": 6,
              "noteLowLimit": 0,
              "noteHighLimit": 127,
              "rtr": "PITCH_SHIFT"
            },
            "ctb2High": null
          },
          "notes": [
            {
              "pitch": 55,
              "velocity": 107,
              "position": 0,
              "duration": 0.46875
            },
            {
              "pitch": 60,
              "velocity": 89,
              "position": 0.010416666666666666,
              "duration": 0.4583333333333333
            },
            {
              "pitch": 48,
              "velocity": 102,
              "position": 0.010416666666666666,
              "duration": 0.46875
            },
            {
              "pitch": 53,
              "velocity": 107,
              "position": 2,
              "duration": 0.4583333333333333
            },
            {
              "pitch": 60,
              "velocity": 89,
              "position": 2,
              "duration": 0.46875
            },
            {
              "pitch": 48,
              "velocity": 107,
              "position": 2,
              "duration": 0.4791666666666667
            },
            {
              "pitch": 55,
              "velocity": 102,
              "position": 4.020833333333333,
              "duration": 0.4583333333333333
            },
            {
              "pitch": 60,
              "velocity": 89,
              "position": 4.020833333333333,
              "duration": 0.46875
            },
            {
              "pitch": 48,
              "velocity": 98,
              "position": 4.020833333333333,
              "duration": 0.4791666666666667
            }
          ]
        }
      }
    },
    "Intro_C": {
      "type": "Intro_C",
      "sizeInBeats": 24,
      "channels": {
        "8": {
          "ctab": {
            "srcChannel": 8,
            "name": "Track 9",
            "accType": "RHYTHM",
            "editable": false,
            "mutedNotes": [],
            "mutedChords": [],
            "autoStart": true,
            "sourceChordNote": 0,
            "sourceChordType": "Maj7",
            "ctb2Low": null,
            "ctb2Main": {
              "ntr": "ROOT_FIXED",
              "ntt": "BYPASS",
              "bassOn": false,
              "chordRootUpperLimit": 6,
              "noteLowLimit": 0,
              "noteHighLimit": 127,
              "rtr": "PITCH_SHIFT"
            },
            "ctb2High": null
          },
          "notes": [
            {
              "pitch": 54,
              "velocity": 70,
              "position": 8.010416666666666,
              "duration": 0.010416666666666666
            },
            {
              "pitch": 54,
              "velocity": 36,
              "position": 8.25,
              "duration": 0.010416666666666666
            },
            {
              "pitch": 54,
              "velocity": 82,
              "position": 8.510416666666666,
              "duration": 0.010416666666666666
            },
            {
              "pitch": 54,
              "velocity": 36,
              "position": 8.75,
              "duration": 0.010416666666666666
            },
            {
              "pitch": 54,
              "velocity": 68,
              "position": 9,
              "duration": 0.010416666666666666
            },
            {
              "pitch": 54,
              "velocity": 38,
              "position": 9.25,
              "duration": 0.010416666666666666
            },
            {
              "pitch": 54,
              "velocity": 79,
              "position": 9.510416666666666,
              "duration": 0.010416666666666666
            },
            {
              "pitch": 54,
              "velocity": 36,
              "position": 9.739583333333334,
              "duration": 0.010416666666666666
            },
            {
              "pitch": 54,
              "velocity": 68,
              "position": 9.989583333333334,
              "duration": 0.010416666666666666
            },
            {
              "pitch": 54,
              "velocity": 36,
              "position": 10.239583333333334,
              "duration": 0.010416666666666666
            },
            {
              "pitch": 54,
              "velocity": 79,
              "position": 10.489583333333334,
              "duration": 0.010416666666666666
            },
            {
              "pitch": 54,
              "velocity": 38,
              "position": 10.739583333333334,
              "duration": 0.010416666666666666
            },
            {
              "pitch": 54,
              "velocity": 68,
              "position": 10.989583333333334,
              "duration": 0.010416666666666666
            },
            {
              "pitch": 54,
              "velocity": 38,
              "position": 11.239583333333334,
              "duration": 0.010416666666666666
            },
            {
              "pitch": 54,
              "velocity": 80,
              "position": 11.489583333333334,
              "duration": 0.010416666666666666
            },
            {
              "pitch": 54,
              "velocity": 34,
              "position": 11.75,
              "duration": 0.010416666666666666
            },
            {
              "pitch": 54,
              "velocity": 70,
              "position": 12.010416666666666,
              "duration": 0.010416666666666666
            },
            {
              "pitch": 54,
              "velocity": 36,
              "position": 12.25,
              "duration": 0.010416666666666666
            },
            {
              "pitch": 54,
              "velocity": 82,
              "position": 12.510416666666666,
              "duration": 0.010416666666666666
            },
            {
              "pitch": 54,
              "velocity": 36,
              "position": 12.75,
              "duration": 0.010416666666666666
            },
            {
              "pitch": 54,
              "velocity": 68,
              "position": 13,
              "duration": 0.010416666666666666
            },
            {
              "pitch": 54,
              "velocity": 38,
              "position": 13.25,
              "duration": 0.010416666666666666
            },
            {
              "pitch": 54,
              "velocity": 79,
              "position": 13.510416666666666,
              "duration": 0.010416666666666666
            },
            {
              "pitch": 54,
              "velocity": 36,
              "position": 13.739583333333334,
              "duration": 0.010416666666666666
            },
            {
              "pitch": 54,
              "velocity": 68,
              "position": 13.989583333333334,
              "duration": 0.010416666666666666
            },
            {
              "pitch": 54,
              "velocity": 36,
              "position": 14.239583333333334,
              "duration": 0.010416666666666666
            },
            {
              "pitch": 54,
              "velocity": 79,
              "position": 14.489583333333334,
              "duration": 0.010416666666666666
            },
            {
              "pitch": 54,
              "velocity": 38,
              "position": 14.739583333333334,
              "duration": 0.010416666666666666
            },
            {
              "pitch": 54,
              "velocity": 68,
              "position": 14.989583333333334,
              "duration": 0.010416666666666666
            },
            {
              "pitch": 54,
              "velocity": 38,
              "position": 15.239583333333334,
              "duration": 0.010416666666666666
            },
            {
              "pitch": 54,
              "velocity": 80,
              "position": 15.489583333333334,
              "duration": 0.010416666666666666
            },
            {
              "pitch": 54,
              "velocity": 34,
              "position": 15.75,
              "duration": 0.010416666666666666
            },
            {
              "pitch": 54,
              "velocity": 70,
              "position": 16.010416666666668,
              "duration": 0.010416666666666666
            },
            {
              "pitch": 54,
              "velocity": 36,
              "position": 16.25,
              "duration": 0.010416666666666666
            },
            {
              "pitch": 54,
              "velocity": 82,
              "position": 16.510416666666668,
              "duration": 0.010416666666666666
            },
            {
              "pitch": 54,
              "velocity": 36,
              "position": 16.75,
              "duration": 0.010416666666666666
            },
            {
              "pitch": 54,
              "velocity": 68,
              "position": 17,
              "duration": 0.010416666666666666
            },
            {
              "pitch": 54,
              "velocity": 38,
              "position": 17.25,
              "duration": 0.010416666666666666
            },
            {
              "pitch": 54,
              "velocity": 79,
              "position": 17.510416666666668,
              "duration": 0.010416666666666666
            },
            {
              "pitch": 54,
              "velocity": 36,
              "position": 17.739583333333332,
              "duration": 0.010416666666666666
            },
            {
              "pitch": 54,
              "velocity": 68,
              "position": 17.989583333333332,
              "duration": 0.010416666666666666
            },
            {
              "pitch": 54,
              "velocity": 36,
              "position": 18.239583333333332,
              "duration": 0.010416666666666666
            },
            {
              "pitch": 54,
              "velocity": 79,
              "position": 18.489583333333332,
              "duration": 0.010416666666666666
            },
            {
              "pitch": 54,
              "velocity": 38,
              "position": 18.739583333333332,
              "duration": 0.010416666666666666
            },
            {
              "pitch": 54,
              "velocity": 68,
              "position": 18.989583333333332,
              "duration": 0.010416666666666666
            },
            {
              "pitch": 54,
              "velocity": 38,
              "position": 19.239583333333332,
              "duration": 0.010416666666666666
            },
            {
              "pitch": 54,
              "velocity": 80,
              "position": 19.489583333333332,
              "duration": 0.010416666666666666
            },
            {
              "pitch": 54,
              "velocity": 34,
              "position": 19.75,
              "duration": 0.010416666666666666
            },
            {
              "pitch": 54,
              "velocity": 70,
              "position": 20.010416666666668,
              "duration": 0.010416666666666666
            },
            {
              "pitch": 54,
              "velocity": 36,
              "position": 20.25,
              "duration": 0.010416666666666666
            },
            {
              "pitch": 54,
              "velocity": 82,
              "position": 20.510416666666668,
              "duration": 0.010416666666666666
            },
            {
              "pitch": 54,
              "velocity": 36,
              "position": 20.75,
              "duration": 0.010416666666666666
            },
            {
              "pitch": 54,
              "velocity": 68,
              "position": 21,
              "duration": 0.010416666666666666
            },
            {
              "pitch": 54,
              "velocity": 38,
              "position": 21.25,
              "duration": 0.010416666666666666
            },
            {
              "pitch": 54,
              "velocity": 79,
              "position": 21.510416666666668,
              "duration": 0.010416666666666666
            },
            {
              "pitch": 54,
              "velocity": 36,
              "position": 21.739583333333332,
              "duration": 0.010416666666666666
            },
            {
              "pitch": 54,
              "velocity": 68,
              "position": 21.989583333333332,
              "duration": 0.010416666666666666
            },
            {
              "pitch": 54,
              "velocity": 36,
              "position": 22.239583333333332,
              "duration": 0.010416666666666666
            },
            {
              "pitch": 54,
              "velocity": 79,
              "position": 22.489583333333332,
              "duration": 0.010416666666666666
            },
            {
              "pitch": 54,
              "velocity": 38,
              "position": 22.739583333333332,
              "duration": 0.010416666666666666
            },
            {
              "pitch": 54,
              "velocity": 68,
              "position": 22.989583333333332,
              "duration": 0.010416666666666666
            },
            {
              "pitch": 54,
              "velocity": 38,
              "position": 23.239583333333332,
              "duration": 0.010416666666666666
            },
            {
              "pitch": 54,
              "velocity": 80,
              "position": 23.489583333333332,
              "duration": 0.010416666666666666
            },
            {
              "pitch": 54,
              "velocity": 34,
              "position": 23.75,
              "duration": 0.010416666666666666
            }
          ]
        },
        "9": {
          "ctab": {
            "srcChannel": 9,
            "name": "Track 10",
            "accType": "SUBRHYTHM",
            "editable": false,
            "mutedNotes": [],
            "mutedChords": [],
            "autoStart": true,
            "sourceChordNote": 0,
            "sourceChordType": "Maj7",
            "ctb2Low": null,
            "ctb2Main": {
              "ntr": "ROOT_FIXED",
              "ntt": "BYPASS",
              "bassOn": false,
              "chordRootUpperLimit": 6,
              "noteLowLimit": 0,
              "noteHighLimit": 127,
              "rtr": "PITCH_SHIFT"
            },
            "ctb2High": null
          },
          "notes": [
            {
              "pitch": 36,
              "velocity": 115,
              "position": 0,
              "duration": 0.010416666666666666
            },
            {
              "pitch": 40,
              "velocity": 102,
              "position": 0,
              "duration": 0.010416666666666666
            },
            {
              "pitch": 36,
              "velocity": 115,
              "position": 2,
              "duration": 0.010416666666666666
            },
            {
              "pitch": 40,
              "velocity": 102,
              "position": 2,
              "duration": 0.010416666666666666
            },
            {
              "pitch": 36,
              "velocity": 115,
              "position": 4,
              "duration": 0.010416666666666666
            },
            {
              "pitch": 40,
              "velocity": 115,
              "position": 4,
              "duration": 0.010416666666666666
            },
            {
              "pitch": 40,
              "velocity": 54,
              "position": 7.25,
              "duration": 0.010416666666666666
            },
            {
              "pitch": 40,
              "velocity": 98,
              "position": 7.5,
              "duration": 0.010416666666666666
            },
            {
              "pitch": 40,
              "velocity": 81,
              "position": 7.75,
              "duration": 0.010416666666666666
            },
            {
              "pitch": 36,
              "velocity": 115,
              "position": 8,
              "duration": 0.010416666666666666
            },
            {
              "pitch": 49,
              "velocity": 64,
              "position": 8,
              "duration": 0.010416666666666666
            },
            {
              "pitch": 54,
              "velocity": 70,
              "position": 8.010416666666666,
              "duration": 0.010416666666666666
            },
            {
              "pitch": 54,
              "velocity": 36,
              "position": 8.25,
              "duration": 0.010416666666666666
            },
            {
              "pitch": 40,
              "velocity": 28,
              "position": 8.260416666666666,
              "duration": 0.010416666666666666
            },
            {
              "pitch": 40,
              "velocity": 113,
              "position": 8.5,
              "duration": 0.010416666666666666
            },
            {
              "pitch": 54,
              "velocity": 82,
              "position": 8.510416666666666,
              "duration": 0.010416666666666666
            },
            {
              "pitch": 40,
              "velocity": 30,
              "position": 8.75,
              "duration": 0.010416666666666666
            },
            {
              "pitch": 54,
              "velocity": 36,
              "position": 8.75,
              "duration": 0.010416666666666666
            },
            {
              "pitch": 36,
              "velocity": 115,
              "position": 9,
              "duration": 0.010416666666666666
            },
            {
              "pitch": 54,
              "velocity": 68,
              "position": 9,
              "duration": 0.010416666666666666
            },
            {
              "pitch": 40,
              "velocity": 47,
              "position": 9.010416666666666,
              "duration": 0.010416666666666666
            },
            {
              "pitch": 40,
              "velocity": 37,
              "position": 9.25,
              "duration": 0.010416666666666666
            },
            {
              "pitch": 54,
              "velocity": 38,
              "position": 9.25,
              "duration": 0.010416666666666666
            },
            {
              "pitch": 40,
              "velocity": 113,
              "position": 9.5,
              "duration": 0.010416666666666666
            },
            {
              "pitch": 54,
              "velocity": 79,
              "position": 9.510416666666666,
              "duration": 0.010416666666666666
            },
            {
              "pitch": 54,
              "velocity": 36,
              "position": 9.739583333333334,
              "duration": 0.010416666666666666
            },
            {
              "pitch": 40,
              "velocity": 30,
              "position": 9.760416666666666,
              "duration": 0.010416666666666666
            },
            {
              "pitch": 54,
              "velocity": 68,
              "position": 9.989583333333334,
              "duration": 0.010416666666666666
            },
            {
              "pitch": 36,
              "velocity": 115,
              "position": 10,
              "duration": 0.010416666666666666
            },
            {
              "pitch": 40,
              "velocity": 30,
              "position": 10.010416666666666,
              "duration": 0.010416666666666666
            },
            {
              "pitch": 54,
              "velocity": 36,
              "position": 10.239583333333334,
              "duration": 0.010416666666666666
            },
            {
              "pitch": 40,
              "velocity": 31,
              "position": 10.25,
              "duration": 0.010416666666666666
            },
            {
              "pitch": 54,
              "velocity": 79,
              "position": 10.489583333333334,
              "duration": 0.010416666666666666
            },
            {
              "pitch": 40,
              "velocity": 113,
              "position": 10.5,
              "duration": 0.010416666666666666
            },
            {
              "pitch": 54,
              "velocity": 38,
              "position": 10.739583333333334,
              "duration": 0.010416666666666666
            },
            {
              "pitch": 40,
              "velocity": 30,
              "position": 10.75,
              "duration": 0.010416666666666666
            },
            {
              "pitch": 54,
              "velocity": 68,
              "position": 10.989583333333334,
              "duration": 0.010416666666666666
            },
            {
              "pitch": 36,
              "velocity": 115,
              "position": 11,
              "duration": 0.010416666666666666
            },
            {
              "pitch": 40,
              "velocity": 49,
              "position": 11,
              "duration": 0.010416666666666666
            },
            {
              "pitch": 54,
              "velocity": 38,
              "position": 11.239583333333334,
              "duration": 0.010416666666666666
            },
            {
              "pitch": 40,
              "velocity": 34,
              "position": 11.25,
              "duration": 0.010416666666666666
            },
            {
              "pitch": 54,
              "velocity": 80,
              "position": 11.489583333333334,
              "duration": 0.010416666666666666
            },
            {
              "pitch": 40,
              "velocity": 113,
              "position": 11.5,
              "duration": 0.010416666666666666
            },
            {
              "pitch": 40,
              "velocity": 36,
              "position": 11.75,
              "duration": 0.010416666666666666
            },
            {
              "pitch": 54,
              "velocity": 34,
              "position": 11.75,
              "duration": 0.010416666666666666
            },
            {
              "pitch": 36,
              "velocity": 115,
              "position": 12,
              "duration": 0.010416666666666666
            },
            {
              "pitch": 54,
              "velocity": 70,
              "position": 12.010416666666666,
              "duration": 0.010416666666666666
            },
            {
              "pitch": 40,
              "velocity": 39,
              "position": 12.010416666666666,
              "duration": 0.010416666666666666
            },
            {
              "pitch": 54,
              "velocity": 36,
              "position": 12.25,
              "duration": 0.010416666666666666
            },
            {
              "pitch": 40,
              "velocity": 32,
              "position": 12.260416666666666,
              "duration": 0.010416666666666666
            },
            {
              "pitch": 40,
              "velocity": 108,
              "position": 12.5,
              "duration": 0.010416666666666666
            },
            {
              "pitch": 54,
              "velocity": 82,
              "position": 12.510416666666666,
              "duration": 0.010416666666666666
            },
            {
              "pitch": 40,
              "velocity": 36,
              "position": 12.75,
              "duration": 0.010416666666666666
            },
            {
              "pitch": 54,
              "velocity": 36,
              "position": 12.75,
              "duration": 0.010416666666666666
            },
            {
              "pitch": 36,
              "velocity": 115,
              "position": 13,
              "duration": 0.010416666666666666
            },
            {
              "pitch": 54,
              "velocity": 68,
              "position": 13,
              "duration": 0.010416666666666666
            },
            {
              "pitch": 40,
              "velocity": 45,
              "position": 13.010416666666666,
              "duration": 0.010416666666666666
            },
            {
              "pitch": 54,
              "velocity": 38,
              "position": 13.25,
              "duration": 0.010416666666666666
            },
            {
              "pitch": 40,
              "velocity": 33,
              "position": 13.260416666666666,
              "duration": 0.010416666666666666
            },
            {
              "pitch": 40,
              "velocity": 113,
              "position": 13.510416666666666,
              "duration": 0.010416666666666666
            },
            {
              "pitch": 54,
              "velocity": 79,
              "position": 13.510416666666666,
              "duration": 0.010416666666666666
            },
            {
              "pitch": 54,
              "velocity": 36,
              "position": 13.739583333333334,
              "duration": 0.010416666666666666
            },
            {
              "pitch": 40,
              "velocity": 29,
              "position": 13.75,
              "duration": 0.010416666666666666
            },
            {
              "pitch": 54,
              "velocity": 68,
              "position": 13.989583333333334,
              "duration": 0.010416666666666666
            },
            {
              "pitch": 36,
              "velocity": 115,
              "position": 14,
              "duration": 0.010416666666666666
            },
            {
              "pitch": 40,
              "velocity": 37,
              "position": 14,
              "duration": 0.010416666666666666
            },
            {
              "pitch": 54,
              "velocity": 36,
              "position": 14.239583333333334,
              "duration": 0.010416666666666666
            },
            {
              "pitch": 40,
              "velocity": 30,
              "position": 14.25,
              "duration": 0.010416666666666666
            },
            {
              "pitch": 54,
              "velocity": 79,
              "position": 14.489583333333334,
              "duration": 0.010416666666666666
            },
            {
              "pitch": 40,
              "velocity": 113,
              "position": 14.5,
              "duration": 0.010416666666666666
            },
            {
              "pitch": 54,
              "velocity": 38,
              "position": 14.739583333333334,
              "duration": 0.010416666666666666
            },
            {
              "pitch": 40,
              "velocity": 30,
              "position": 14.75,
              "duration": 0.010416666666666666
            },
            {
              "pitch": 54,
              "velocity": 68,
              "position": 14.989583333333334,
              "duration": 0.010416666666666666
            },
            {
              "pitch": 40,
              "velocity": 39,
              "position": 14.989583333333334,
              "duration": 0.010416666666666666
            },
            {
              "pitch": 36,
              "velocity": 115,
              "position": 15,
              "duration": 0.010416666666666666
            },
            {
              "pitch": 54,
              "velocity": 38,
              "position": 15.239583333333334,
              "duration": 0.010416666666666666
            },
            {
              "pitch": 40,
              "velocity": 36,
              "position": 15.25,
              "duration": 0.010416666666666666
            },
            {
              "pitch": 54,
              "velocity": 80,
              "position": 15.489583333333334,
              "duration": 0.010416666666666666
            },
            {
              "pitch": 40,
              "velocity": 113,
              "position": 15.5,
              "duration": 0.010416666666666666
            },
            {
              "pitch": 54,
              "velocity": 34,
              "position": 15.75,
              "duration": 0.010416666666666666
            },
            {
              "pitch": 40,
              "velocity": 41,
              "position": 15.75,
              "duration": 0.010416666666666666
            },
            {
              "pitch": 36,
              "velocity": 115,
              "position": 16,
              "duration": 0.010416666666666666
            },
            {
              "pitch": 40,
              "velocity": 39,
              "position": 16.010416666666668,
              "duration": 0.010416666666666666
            },
            {
              "pitch": 54,
              "velocity": 70,
              "position": 16.010416666666668,
              "duration": 0.010416666666666666
            },
            {
              "pitch": 40,
              "velocity": 32,
              "position": 16.25,
              "duration": 0.010416666666666666
            },
            {
              "pitch": 54,
              "velocity": 36,
              "position": 16.25,
              "duration": 0.010416666666666666
            },
            {
              "pitch": 40,
              "velocity": 113,
              "position": 16.5,
              "duration": 0.010416666666666666
            },
            {
              "pitch": 54,
              "velocity": 82,
              "position": 16.510416666666668,
              "duration": 0.010416666666666666
            },
            {
              "pitch": 40,
              "velocity": 31,
              "position": 16.75,
              "duration": 0.010416666666666666
            },
            {
              "pitch": 54,
              "velocity": 36,
              "position": 16.75,
              "duration": 0.010416666666666666
            },
            {
              "pitch": 36,
              "velocity": 115,
              "position": 17,
              "duration": 0.010416666666666666
            },
            {
              "pitch": 40,
              "velocity": 39,
              "position": 17,
              "duration": 0.010416666666666666
            },
            {
              "pitch": 54,
              "velocity": 68,
              "position": 17,
              "duration": 0.010416666666666666
            },
            {
              "pitch": 54,
              "velocity": 38,
              "position": 17.25,
              "duration": 0.010416666666666666
            },
            {
              "pitch": 40,
              "velocity": 30,
              "position": 17.260416666666668,
              "duration": 0.010416666666666666
            },
            {
              "pitch": 40,
              "velocity": 113,
              "position": 17.5,
              "duration": 0.010416666666666666
            },
            {
              "pitch": 54,
              "velocity": 79,
              "position": 17.510416666666668,
              "duration": 0.010416666666666666
            },
            {
              "pitch": 54,
              "velocity": 36,
              "position": 17.739583333333332,
              "duration": 0.010416666666666666
            },
            {
              "pitch": 40,
              "velocity": 31,
              "position": 17.760416666666668,
              "duration": 0.010416666666666666
            },
            {
              "pitch": 54,
              "velocity": 68,
              "position": 17.989583333333332,
              "duration": 0.010416666666666666
            },
            {
              "pitch": 36,
              "velocity": 115,
              "position": 18,
              "duration": 0.010416666666666666
            },
            {
              "pitch": 40,
              "velocity": 43,
              "position": 18.010416666666668,
              "duration": 0.010416666666666666
            },
            {
              "pitch": 54,
              "velocity": 36,
              "position": 18.239583333333332,
              "duration": 0.010416666666666666
            },
            {
              "pitch": 40,
              "velocity": 30,
              "position": 18.260416666666668,
              "duration": 0.010416666666666666
            },
            {
              "pitch": 54,
              "velocity": 79,
              "position": 18.489583333333332,
              "duration": 0.010416666666666666
            },
            {
              "pitch": 40,
              "velocity": 113,
              "position": 18.510416666666668,
              "duration": 0.010416666666666666
            },
            {
              "pitch": 54,
              "velocity": 38,
              "position": 18.739583333333332,
              "duration": 0.010416666666666666
            },
            {
              "pitch": 40,
              "velocity": 41,
              "position": 18.760416666666668,
              "duration": 0.010416666666666666
            },
            {
              "pitch": 54,
              "velocity": 68,
              "position": 18.989583333333332,
              "duration": 0.010416666666666666
            },
            {
              "pitch": 36,
              "velocity": 115,
              "position": 19,
              "duration": 0.010416666666666666
            },
            {
              "pitch": 40,
              "velocity": 26,
              "position": 19.020833333333332,
              "duration": 0.010416666666666666
            },
            {
              "pitch": 54,
              "velocity": 38,
              "position": 19.239583333333332,
              "duration": 0.010416666666666666
            },
            {
              "pitch": 40,
              "velocity": 34,
              "position": 19.260416666666668,
              "duration": 0.010416666666666666
            },
            {
              "pitch": 54,
              "velocity": 80,
              "position": 19.489583333333332,
              "duration": 0.010416666666666666
            },
            {
              "pitch": 40,
              "velocity": 113,
              "position": 19.510416666666668,
              "duration": 0.010416666666666666
            },
            {
              "pitch": 54,
              "velocity": 34,
              "position": 19.75,
              "duration": 0.010416666666666666
            },
            {
              "pitch": 40,
              "velocity": 34,
              "position": 19.760416666666668,
              "duration": 0.010416666666666666
            },
            {
              "pitch": 36,
              "velocity": 115,
              "position": 20,
              "duration": 0.010416666666666666
            },
            {
              "pitch": 40,
              "velocity": 47,
              "position": 20.010416666666668,
              "duration": 0.010416666666666666
            },
            {
              "pitch": 54,
              "velocity": 70,
              "position": 20.010416666666668,
              "duration": 0.010416666666666666
            },
            {
              "pitch": 54,
              "velocity": 36,
              "position": 20.25,
              "duration": 0.010416666666666666
            },
            {
              "pitch": 40,
              "velocity": 28,
              "position": 20.260416666666668,
              "duration": 0.010416666666666666
            },
            {
              "pitch": 40,
              "velocity": 113,
              "position": 20.5,
              "duration": 0.010416666666666666
            },
            {
              "pitch": 54,
              "velocity": 82,
              "position": 20.510416666666668,
              "duration": 0.010416666666666666
            },
            {
              "pitch": 40,
              "velocity": 30,
              "position": 20.75,
              "duration": 0.010416666666666666
            },
            {
              "pitch": 54,
              "velocity": 36,
              "position": 20.75,
              "duration": 0.010416666666666666
            },
            {
              "pitch": 36,
              "velocity": 115,
              "position": 21,
              "duration": 0.010416666666666666
            },
            {
              "pitch": 54,
              "velocity": 68,
              "position": 21,
              "duration": 0.010416666666666666
            },
            {
              "pitch": 40,
              "velocity": 47,
              "position": 21.010416666666668,
              "duration": 0.010416666666666666
            },
            {
              "pitch": 40,
              "velocity": 37,
              "position": 21.25,
              "duration": 0.010416666666666666
            },
            {
              "pitch": 54,
              "velocity": 38,
              "position": 21.25,
              "duration": 0.010416666666666666
            },
            {
              "pitch": 40,
              "velocity": 113,
              "position": 21.5,
              "duration": 0.010416666666666666
            },
            {
              "pitch": 54,
              "velocity": 79,
              "position": 21.510416666666668,
              "duration": 0.010416666666666666
            },
            {
              "pitch": 54,
              "velocity": 36,
              "position": 21.739583333333332,
              "duration": 0.010416666666666666
            },
            {
              "pitch": 40,
              "velocity": 30,
              "position": 21.760416666666668,
              "duration": 0.010416666666666666
            },
            {
              "pitch": 54,
              "velocity": 68,
              "position": 21.989583333333332,
              "duration": 0.010416666666666666
            },
            {
              "pitch": 36,
              "velocity": 115,
              "position": 22,
              "duration": 0.010416666666666666
            },
            {
              "pitch": 40,
              "velocity": 30,
              "position": 22.010416666666668,
              "duration": 0.010416666666666666
            },
            {
              "pitch": 54,
              "velocity": 36,
              "position": 22.239583333333332,
              "duration": 0.010416666666666666
            },
            {
              "pitch": 40,
              "velocity": 31,
              "position": 22.25,
              "duration": 0.010416666666666666
            },
            {
              "pitch": 54,
              "velocity": 79,
              "position": 22.489583333333332,
              "duration": 0.010416666666666666
            },
            {
              "pitch": 40,
              "velocity": 113,
              "position": 22.5,
              "duration": 0.010416666666666666
            },
            {
              "pitch": 54,
              "velocity": 38,
              "position": 22.739583333333332,
              "duration": 0.010416666666666666
            },
            {
              "pitch": 40,
              "velocity": 30,
              "position": 22.75,
              "duration": 0.010416666666666666
            },
            {
              "pitch": 54,
              "velocity": 68,
              "position": 22.989583333333332,
              "duration": 0.010416666666666666
            },
            {
              "pitch": 36,
              "velocity": 115,
              "position": 23,
              "duration": 0.010416666666666666
            },
            {
              "pitch": 40,
              "velocity": 49,
              "position": 23,
              "duration": 0.010416666666666666
            },
            {
              "pitch": 54,
              "velocity": 38,
              "position": 23.239583333333332,
              "duration": 0.010416666666666666
            },
            {
              "pitch": 38,
              "velocity": 100,
              "position": 23.25,
              "duration": 0.010416666666666666
            },
            {
              "pitch": 40,
              "velocity": 37,
              "position": 23.25,
              "duration": 0.010416666666666666
            },
            {
              "pitch": 54,
              "velocity": 80,
              "position": 23.489583333333332,
              "duration": 0.010416666666666666
            },
            {
              "pitch": 40,
              "velocity": 113,
              "position": 23.5,
              "duration": 0.010416666666666666
            },
            {
              "pitch": 40,
              "velocity": 41,
              "position": 23.75,
              "duration": 0.010416666666666666
            },
            {
              "pitch": 54,
              "velocity": 34,
              "position": 23.75,
              "duration": 0.010416666666666666
            },
            {
              "pitch": 38,
              "velocity": 108,
              "position": 23.760416666666668,
              "duration": 0.010416666666666666
            }
          ]
        },
        "10": {
          "ctab": {
            "srcChannel": 10,
            "name": "Track 11",
            "accType": "BASS",
            "editable": false,
            "mutedNotes": [],
            "mutedChords": [],
            "autoStart": false,
            "sourceChordNote": 0,
            "sourceChordType": "Maj7",
            "ctb2Low": null,
            "ctb2Main": {
              "ntr": "ROOT_TRANSPOSITION",
              "ntt": "MELODIC_MINOR",
              "bassOn": false,
              "chordRootUpperLimit": 3,
              "noteLowLimit": 28,
              "noteHighLimit": 127,
              "rtr": "PITCH_SHIFT"
            },
            "ctb2High": null
          },
          "notes": [
            {
              "pitch": 36,
              "velocity": 119,
              "position": 0,
              "duration": 0.4166666666666667
            },
            {
              "pitch": 29,
              "velocity": 119,
              "position": 2,
              "duration": 0.4583333333333333
            },
            {
              "pitch": 36,
              "velocity": 121,
              "position": 4,
              "duration": 0.46875
            },
            {
              "pitch": 38,
              "velocity": 96,
              "position": 7,
              "duration": 0.4270833333333333
            },
            {
              "pitch": 40,
              "velocity": 103,
              "position": 7.5,
              "duration": 0.40625
            },
            {
              "pitch": 29,
              "velocity": 118,
              "position": 8,
              "duration": 0.4583333333333333
            },
            {
              "pitch": 29,
              "velocity": 92,
              "position": 8.75,
              "duration": 0.052083333333333336
            },
            {
              "pitch": 36,
              "velocity": 122,
              "position": 9,
              "duration": 0.4791666666666667
            },
            {
              "pitch": 36,
              "velocity": 92,
              "position": 9.75,
              "duration": 0.041666666666666664
            },
            {
              "pitch": 29,
              "velocity": 121,
              "position": 10,
              "duration": 0.4791666666666667
            },
            {
              "pitch": 29,
              "velocity": 86,
              "position": 10.75,
              "duration": 0.03125
            },
            {
              "pitch": 33,
              "velocity": 116,
              "position": 11,
              "duration": 0.4270833333333333
            },
            {
              "pitch": 35,
              "velocity": 116,
              "position": 11.5,
              "duration": 0.4375
            },
            {
              "pitch": 36,
              "velocity": 117,
              "position": 12,
              "duration": 0.4895833333333333
            },
            {
              "pitch": 36,
              "velocity": 76,
              "position": 12.75,
              "duration": 0.052083333333333336
            },
            {
              "pitch": 31,
              "velocity": 124,
              "position": 13,
              "duration": 0.5104166666666666
            },
            {
              "pitch": 31,
              "velocity": 76,
              "position": 13.75,
              "duration": 0.020833333333333332
            },
            {
              "pitch": 36,
              "velocity": 117,
              "position": 14,
              "duration": 0.5
            },
            {
              "pitch": 36,
              "velocity": 88,
              "position": 14.75,
              "duration": 0.0625
            },
            {
              "pitch": 31,
              "velocity": 119,
              "position": 15,
              "duration": 0.4166666666666667
            },
            {
              "pitch": 30,
              "velocity": 114,
              "position": 15.5,
              "duration": 0.4166666666666667
            },
            {
              "pitch": 31,
              "velocity": 119,
              "position": 16,
              "duration": 0.4375
            },
            {
              "pitch": 31,
              "velocity": 93,
              "position": 16.75,
              "duration": 0.052083333333333336
            },
            {
              "pitch": 38,
              "velocity": 115,
              "position": 17,
              "duration": 0.4791666666666667
            },
            {
              "pitch": 38,
              "velocity": 88,
              "position": 17.75,
              "duration": 0.0625
            },
            {
              "pitch": 31,
              "velocity": 112,
              "position": 18,
              "duration": 0.5
            },
            {
              "pitch": 31,
              "velocity": 91,
              "position": 18.75,
              "duration": 0.052083333333333336
            },
            {
              "pitch": 38,
              "velocity": 119,
              "position": 19,
              "duration": 0.4375
            },
            {
              "pitch": 35,
              "velocity": 104,
              "position": 19.5,
              "duration": 0.4270833333333333
            },
            {
              "pitch": 36,
              "velocity": 119,
              "position": 20,
              "duration": 0.4791666666666667
            },
            {
              "pitch": 36,
              "velocity": 85,
              "position": 20.75,
              "duration": 0.041666666666666664
            },
            {
              "pitch": 31,
              "velocity": 121,
              "position": 21,
              "duration": 0.5208333333333334
            },
            {
              "pitch": 31,
              "velocity": 97,
              "position": 21.75,
              "duration": 0.041666666666666664
            },
            {
              "pitch": 36,
              "velocity": 121,
              "position": 22,
              "duration": 0.4895833333333333
            },
            {
              "pitch": 36,
              "velocity": 95,
              "position": 22.75,
              "duration": 0.08333333333333333
            },
            {
              "pitch": 31,
              "velocity": 120,
              "position": 23,
              "duration": 0.4375
            },
            {
              "pitch": 39,
              "velocity": 117,
              "position": 23.5,
              "duration": 0.21875
            },
            {
              "pitch": 40,
              "velocity": 97,
              "position": 23.75,
              "duration": 0.23958333333333334
            }
          ]
        },
        "11": {
          "ctab": {
            "srcChannel": 11,
            "name": "Track 12",
            "accType": "CHORD1",
            "editable": false,
            "mutedNotes": [],
            "mutedChords": [],
            "autoStart": false,
            "sourceChordNote": 0,
            "sourceChordType": "Maj7",
            "ctb2Low": null,
            "ctb2Main": {
              "ntr": "ROOT_TRANSPOSITION",
              "ntt": "MELODIC_MINOR",
              "bassOn": false,
              "chordRootUpperLimit": 6,
              "noteLowLimit": 0,
              "noteHighLimit": 127,
              "rtr": "PITCH_SHIFT"
            },
            "ctb2High": null
          },
          "notes": [
            {
              "pitch": 55,
              "velocity": 107,
              "position": 0.010416666666666666,
              "duration": 0.4895833333333333
            },
            {
              "pitch": 60,
              "velocity": 107,
              "position": 0.03125,
              "duration": 0.4895833333333333
            },
            {
              "pitch": 64,
              "velocity": 107,
              "position": 0.052083333333333336,
              "duration": 0.4895833333333333
            },
            {
              "pitch": 53,
              "velocity": 105,
              "position": 2.0104166666666665,
              "duration": 0.4583333333333333
            },
            {
              "pitch": 60,
              "velocity": 105,
              "position": 2.03125,
              "duration": 0.4583333333333333
            },
            {
              "pitch": 63,
              "velocity": 105,
              "position": 2.0520833333333335,
              "duration": 0.4583333333333333
            },
            {
              "pitch": 55,
              "velocity": 102,
              "position": 4.010416666666667,
              "duration": 0.4895833333333333
            },
            {
              "pitch": 58,
              "velocity": 102,
              "position": 4.052083333333333,
              "duration": 0.4895833333333333
            },
            {
              "pitch": 64,
              "velocity": 103,
              "position": 4.083333333333333,
              "duration": 0.4895833333333333
            },
            {
              "pitch": 55,
              "velocity": 72,
              "position": 7.260416666666667,
              "duration": 0.22916666666666666
            },
            {
              "pitch": 60,
              "velocity": 75,
              "position": 7.28125,
              "duration": 0.22916666666666666
            },
            {
              "pitch": 64,
              "velocity": 81,
              "position": 7.302083333333333,
              "duration": 0.22916666666666666
            },
            {
              "pitch": 55,
              "velocity": 94,
              "position": 7.510416666666667,
              "duration": 0.22916666666666666
            },
            {
              "pitch": 60,
              "velocity": 94,
              "position": 7.53125,
              "duration": 0.22916666666666666
            },
            {
              "pitch": 64,
              "velocity": 95,
              "position": 7.552083333333333,
              "duration": 0.22916666666666666
            },
            {
              "pitch": 55,
              "velocity": 77,
              "position": 7.760416666666667,
              "duration": 0.15625
            },
            {
              "pitch": 60,
              "velocity": 77,
              "position": 7.78125,
              "duration": 0.15625
            },
            {
              "pitch": 64,
              "velocity": 77,
              "position": 7.802083333333333,
              "duration": 0.15625
            },
            {
              "pitch": 57,
              "velocity": 107,
              "position": 8.010416666666666,
              "duration": 0.4791666666666667
            },
            {
              "pitch": 60,
              "velocity": 107,
              "position": 8.03125,
              "duration": 0.4791666666666667
            },
            {
              "pitch": 65,
              "velocity": 107,
              "position": 8.052083333333334,
              "duration": 0.4791666666666667
            },
            {
              "pitch": 57,
              "velocity": 111,
              "position": 8.510416666666666,
              "duration": 0.22916666666666666
            },
            {
              "pitch": 60,
              "velocity": 111,
              "position": 8.53125,
              "duration": 0.22916666666666666
            },
            {
              "pitch": 65,
              "velocity": 111,
              "position": 8.552083333333334,
              "duration": 0.22916666666666666
            },
            {
              "pitch": 57,
              "velocity": 88,
              "position": 8.760416666666666,
              "duration": 0.22916666666666666
            },
            {
              "pitch": 60,
              "velocity": 88,
              "position": 8.78125,
              "duration": 0.22916666666666666
            },
            {
              "pitch": 65,
              "velocity": 88,
              "position": 8.802083333333334,
              "duration": 0.22916666666666666
            },
            {
              "pitch": 57,
              "velocity": 101,
              "position": 9.010416666666666,
              "duration": 0.22916666666666666
            },
            {
              "pitch": 60,
              "velocity": 101,
              "position": 9.03125,
              "duration": 0.22916666666666666
            },
            {
              "pitch": 65,
              "velocity": 101,
              "position": 9.052083333333334,
              "duration": 0.22916666666666666
            },
            {
              "pitch": 57,
              "velocity": 76,
              "position": 9.260416666666666,
              "duration": 0.22916666666666666
            },
            {
              "pitch": 60,
              "velocity": 82,
              "position": 9.28125,
              "duration": 0.22916666666666666
            },
            {
              "pitch": 65,
              "velocity": 85,
              "position": 9.302083333333334,
              "duration": 0.22916666666666666
            },
            {
              "pitch": 57,
              "velocity": 111,
              "position": 9.510416666666666,
              "duration": 0.22916666666666666
            },
            {
              "pitch": 60,
              "velocity": 111,
              "position": 9.53125,
              "duration": 0.22916666666666666
            },
            {
              "pitch": 65,
              "velocity": 111,
              "position": 9.552083333333334,
              "duration": 0.22916666666666666
            },
            {
              "pitch": 57,
              "velocity": 90,
              "position": 9.760416666666666,
              "duration": 0.22916666666666666
            },
            {
              "pitch": 60,
              "velocity": 90,
              "position": 9.78125,
              "duration": 0.22916666666666666
            },
            {
              "pitch": 65,
              "velocity": 90,
              "position": 9.802083333333334,
              "duration": 0.22916666666666666
            },
            {
              "pitch": 57,
              "velocity": 105,
              "position": 10.010416666666666,
              "duration": 0.22916666666666666
            },
            {
              "pitch": 60,
              "velocity": 105,
              "position": 10.03125,
              "duration": 0.22916666666666666
            },
            {
              "pitch": 65,
              "velocity": 105,
              "position": 10.052083333333334,
              "duration": 0.22916666666666666
            },
            {
              "pitch": 57,
              "velocity": 88,
              "position": 10.260416666666666,
              "duration": 0.22916666666666666
            },
            {
              "pitch": 60,
              "velocity": 88,
              "position": 10.28125,
              "duration": 0.22916666666666666
            },
            {
              "pitch": 65,
              "velocity": 88,
              "position": 10.302083333333334,
              "duration": 0.22916666666666666
            },
            {
              "pitch": 57,
              "velocity": 111,
              "position": 10.510416666666666,
              "duration": 0.08333333333333333
            },
            {
              "pitch": 60,
              "velocity": 111,
              "position": 10.53125,
              "duration": 0.08333333333333333
            },
            {
              "pitch": 65,
              "velocity": 111,
              "position": 10.552083333333334,
              "duration": 0.08333333333333333
            },
            {
              "pitch": 57,
              "velocity": 103,
              "position": 10.760416666666666,
              "duration": 0.4791666666666667
            },
            {
              "pitch": 60,
              "velocity": 103,
              "position": 10.78125,
              "duration": 0.4791666666666667
            },
            {
              "pitch": 65,
              "velocity": 103,
              "position": 10.802083333333334,
              "duration": 0.4791666666666667
            },
            {
              "pitch": 57,
              "velocity": 90,
              "position": 11.260416666666666,
              "duration": 0.22916666666666666
            },
            {
              "pitch": 60,
              "velocity": 90,
              "position": 11.28125,
              "duration": 0.22916666666666666
            },
            {
              "pitch": 65,
              "velocity": 90,
              "position": 11.302083333333334,
              "duration": 0.22916666666666666
            },
            {
              "pitch": 57,
              "velocity": 100,
              "position": 11.510416666666666,
              "duration": 0.22916666666666666
            },
            {
              "pitch": 60,
              "velocity": 100,
              "position": 11.53125,
              "duration": 0.22916666666666666
            },
            {
              "pitch": 65,
              "velocity": 100,
              "position": 11.552083333333334,
              "duration": 0.22916666666666666
            },
            {
              "pitch": 57,
              "velocity": 79,
              "position": 11.760416666666666,
              "duration": 0.08333333333333333
            },
            {
              "pitch": 60,
              "velocity": 85,
              "position": 11.78125,
              "duration": 0.0625
            },
            {
              "pitch": 65,
              "velocity": 89,
              "position": 11.802083333333334,
              "duration": 0.041666666666666664
            },
            {
              "pitch": 55,
              "velocity": 94,
              "position": 12.010416666666666,
              "duration": 0.22916666666666666
            },
            {
              "pitch": 60,
              "velocity": 94,
              "position": 12.03125,
              "duration": 0.22916666666666666
            },
            {
              "pitch": 64,
              "velocity": 94,
              "position": 12.052083333333334,
              "duration": 0.22916666666666666
            },
            {
              "pitch": 55,
              "velocity": 88,
              "position": 12.260416666666666,
              "duration": 0.22916666666666666
            },
            {
              "pitch": 60,
              "velocity": 88,
              "position": 12.28125,
              "duration": 0.22916666666666666
            },
            {
              "pitch": 64,
              "velocity": 88,
              "position": 12.302083333333334,
              "duration": 0.22916666666666666
            },
            {
              "pitch": 55,
              "velocity": 116,
              "position": 12.510416666666666,
              "duration": 0.09375
            },
            {
              "pitch": 60,
              "velocity": 116,
              "position": 12.53125,
              "duration": 0.09375
            },
            {
              "pitch": 64,
              "velocity": 116,
              "position": 12.552083333333334,
              "duration": 0.09375
            },
            {
              "pitch": 55,
              "velocity": 74,
              "position": 12.760416666666666,
              "duration": 0.22916666666666666
            },
            {
              "pitch": 60,
              "velocity": 83,
              "position": 12.78125,
              "duration": 0.22916666666666666
            },
            {
              "pitch": 64,
              "velocity": 87,
              "position": 12.802083333333334,
              "duration": 0.22916666666666666
            },
            {
              "pitch": 55,
              "velocity": 102,
              "position": 13.010416666666666,
              "duration": 0.22916666666666666
            },
            {
              "pitch": 60,
              "velocity": 102,
              "position": 13.03125,
              "duration": 0.22916666666666666
            },
            {
              "pitch": 64,
              "velocity": 102,
              "position": 13.052083333333334,
              "duration": 0.22916666666666666
            },
            {
              "pitch": 55,
              "velocity": 77,
              "position": 13.260416666666666,
              "duration": 0.22916666666666666
            },
            {
              "pitch": 60,
              "velocity": 77,
              "position": 13.28125,
              "duration": 0.22916666666666666
            },
            {
              "pitch": 64,
              "velocity": 77,
              "position": 13.302083333333334,
              "duration": 0.22916666666666666
            },
            {
              "pitch": 55,
              "velocity": 112,
              "position": 13.510416666666666,
              "duration": 0.21875
            },
            {
              "pitch": 60,
              "velocity": 112,
              "position": 13.53125,
              "duration": 0.21875
            },
            {
              "pitch": 64,
              "velocity": 112,
              "position": 13.552083333333334,
              "duration": 0.21875
            },
            {
              "pitch": 55,
              "velocity": 79,
              "position": 13.760416666666666,
              "duration": 0.22916666666666666
            },
            {
              "pitch": 60,
              "velocity": 83,
              "position": 13.78125,
              "duration": 0.22916666666666666
            },
            {
              "pitch": 64,
              "velocity": 88,
              "position": 13.802083333333334,
              "duration": 0.22916666666666666
            },
            {
              "pitch": 55,
              "velocity": 104,
              "position": 14.010416666666666,
              "duration": 0.22916666666666666
            },
            {
              "pitch": 60,
              "velocity": 104,
              "position": 14.03125,
              "duration": 0.22916666666666666
            },
            {
              "pitch": 64,
              "velocity": 104,
              "position": 14.052083333333334,
              "duration": 0.22916666666666666
            },
            {
              "pitch": 55,
              "velocity": 83,
              "position": 14.260416666666666,
              "duration": 0.22916666666666666
            },
            {
              "pitch": 60,
              "velocity": 83,
              "position": 14.28125,
              "duration": 0.22916666666666666
            },
            {
              "pitch": 64,
              "velocity": 83,
              "position": 14.302083333333334,
              "duration": 0.22916666666666666
            },
            {
              "pitch": 55,
              "velocity": 103,
              "position": 14.510416666666666,
              "duration": 0.22916666666666666
            },
            {
              "pitch": 60,
              "velocity": 103,
              "position": 14.53125,
              "duration": 0.22916666666666666
            },
            {
              "pitch": 64,
              "velocity": 103,
              "position": 14.552083333333334,
              "duration": 0.22916666666666666
            },
            {
              "pitch": 55,
              "velocity": 105,
              "position": 14.760416666666666,
              "duration": 0.46875
            },
            {
              "pitch": 60,
              "velocity": 105,
              "position": 14.78125,
              "duration": 0.46875
            },
            {
              "pitch": 64,
              "velocity": 105,
              "position": 14.802083333333334,
              "duration": 0.46875
            },
            {
              "pitch": 55,
              "velocity": 82,
              "position": 15.260416666666666,
              "duration": 0.22916666666666666
            },
            {
              "pitch": 60,
              "velocity": 85,
              "position": 15.28125,
              "duration": 0.22916666666666666
            },
            {
              "pitch": 64,
              "velocity": 91,
              "position": 15.302083333333334,
              "duration": 0.22916666666666666
            },
            {
              "pitch": 55,
              "velocity": 104,
              "position": 15.510416666666666,
              "duration": 0.22916666666666666
            },
            {
              "pitch": 60,
              "velocity": 104,
              "position": 15.53125,
              "duration": 0.22916666666666666
            },
            {
              "pitch": 64,
              "velocity": 105,
              "position": 15.552083333333334,
              "duration": 0.22916666666666666
            },
            {
              "pitch": 55,
              "velocity": 87,
              "position": 15.760416666666666,
              "duration": 0.08333333333333333
            },
            {
              "pitch": 60,
              "velocity": 87,
              "position": 15.78125,
              "duration": 0.0625
            },
            {
              "pitch": 64,
              "velocity": 87,
              "position": 15.802083333333334,
              "duration": 0.041666666666666664
            },
            {
              "pitch": 55,
              "velocity": 91,
              "position": 16.010416666666668,
              "duration": 0.22916666666666666
            },
            {
              "pitch": 59,
              "velocity": 91,
              "position": 16.03125,
              "duration": 0.22916666666666666
            },
            {
              "pitch": 62,
              "velocity": 104,
              "position": 16.052083333333332,
              "duration": 0.22916666666666666
            },
            {
              "pitch": 55,
              "velocity": 87,
              "position": 16.260416666666668,
              "duration": 0.22916666666666666
            },
            {
              "pitch": 59,
              "velocity": 87,
              "position": 16.28125,
              "duration": 0.22916666666666666
            },
            {
              "pitch": 62,
              "velocity": 87,
              "position": 16.302083333333332,
              "duration": 0.22916666666666666
            },
            {
              "pitch": 55,
              "velocity": 108,
              "position": 16.510416666666668,
              "duration": 0.22916666666666666
            },
            {
              "pitch": 59,
              "velocity": 108,
              "position": 16.53125,
              "duration": 0.22916666666666666
            },
            {
              "pitch": 62,
              "velocity": 108,
              "position": 16.552083333333332,
              "duration": 0.22916666666666666
            },
            {
              "pitch": 55,
              "velocity": 96,
              "position": 16.760416666666668,
              "duration": 0.20833333333333334
            },
            {
              "pitch": 59,
              "velocity": 95,
              "position": 16.78125,
              "duration": 0.19791666666666666
            },
            {
              "pitch": 62,
              "velocity": 94,
              "position": 16.802083333333332,
              "duration": 0.1875
            },
            {
              "pitch": 55,
              "velocity": 92,
              "position": 17.020833333333332,
              "duration": 0.20833333333333334
            },
            {
              "pitch": 59,
              "velocity": 101,
              "position": 17.03125,
              "duration": 0.21875
            },
            {
              "pitch": 55,
              "velocity": 91,
              "position": 17.260416666666668,
              "duration": 0.22916666666666666
            },
            {
              "pitch": 59,
              "velocity": 91,
              "position": 17.28125,
              "duration": 0.22916666666666666
            },
            {
              "pitch": 62,
              "velocity": 91,
              "position": 17.302083333333332,
              "duration": 0.22916666666666666
            },
            {
              "pitch": 55,
              "velocity": 108,
              "position": 17.510416666666668,
              "duration": 0.22916666666666666
            },
            {
              "pitch": 59,
              "velocity": 108,
              "position": 17.53125,
              "duration": 0.22916666666666666
            },
            {
              "pitch": 62,
              "velocity": 108,
              "position": 17.552083333333332,
              "duration": 0.22916666666666666
            },
            {
              "pitch": 55,
              "velocity": 80,
              "position": 17.760416666666668,
              "duration": 0.22916666666666666
            },
            {
              "pitch": 59,
              "velocity": 85,
              "position": 17.78125,
              "duration": 0.22916666666666666
            },
            {
              "pitch": 62,
              "velocity": 93,
              "position": 17.802083333333332,
              "duration": 0.22916666666666666
            },
            {
              "pitch": 55,
              "velocity": 106,
              "position": 18.010416666666668,
              "duration": 0.22916666666666666
            },
            {
              "pitch": 59,
              "velocity": 106,
              "position": 18.03125,
              "duration": 0.22916666666666666
            },
            {
              "pitch": 62,
              "velocity": 105,
              "position": 18.052083333333332,
              "duration": 0.22916666666666666
            },
            {
              "pitch": 55,
              "velocity": 78,
              "position": 18.260416666666668,
              "duration": 0.22916666666666666
            },
            {
              "pitch": 59,
              "velocity": 85,
              "position": 18.28125,
              "duration": 0.22916666666666666
            },
            {
              "pitch": 62,
              "velocity": 78,
              "position": 18.302083333333332,
              "duration": 0.22916666666666666
            },
            {
              "pitch": 55,
              "velocity": 112,
              "position": 18.510416666666668,
              "duration": 0.09375
            },
            {
              "pitch": 59,
              "velocity": 112,
              "position": 18.53125,
              "duration": 0.09375
            },
            {
              "pitch": 62,
              "velocity": 112,
              "position": 18.552083333333332,
              "duration": 0.09375
            },
            {
              "pitch": 55,
              "velocity": 89,
              "position": 18.760416666666668,
              "duration": 0.22916666666666666
            },
            {
              "pitch": 59,
              "velocity": 89,
              "position": 18.78125,
              "duration": 0.22916666666666666
            },
            {
              "pitch": 62,
              "velocity": 89,
              "position": 18.802083333333332,
              "duration": 0.22916666666666666
            },
            {
              "pitch": 55,
              "velocity": 91,
              "position": 19.010416666666668,
              "duration": 0.22916666666666666
            },
            {
              "pitch": 59,
              "velocity": 91,
              "position": 19.03125,
              "duration": 0.22916666666666666
            },
            {
              "pitch": 62,
              "velocity": 104,
              "position": 19.052083333333332,
              "duration": 0.22916666666666666
            },
            {
              "pitch": 55,
              "velocity": 80,
              "position": 19.260416666666668,
              "duration": 0.22916666666666666
            },
            {
              "pitch": 59,
              "velocity": 87,
              "position": 19.28125,
              "duration": 0.22916666666666666
            },
            {
              "pitch": 62,
              "velocity": 91,
              "position": 19.302083333333332,
              "duration": 0.22916666666666666
            },
            {
              "pitch": 55,
              "velocity": 110,
              "position": 19.510416666666668,
              "duration": 0.22916666666666666
            },
            {
              "pitch": 59,
              "velocity": 110,
              "position": 19.53125,
              "duration": 0.22916666666666666
            },
            {
              "pitch": 62,
              "velocity": 110,
              "position": 19.552083333333332,
              "duration": 0.22916666666666666
            },
            {
              "pitch": 55,
              "velocity": 74,
              "position": 19.760416666666668,
              "duration": 0.08333333333333333
            },
            {
              "pitch": 59,
              "velocity": 80,
              "position": 19.78125,
              "duration": 0.0625
            },
            {
              "pitch": 62,
              "velocity": 85,
              "position": 19.802083333333332,
              "duration": 0.041666666666666664
            },
            {
              "pitch": 55,
              "velocity": 102,
              "position": 20.010416666666668,
              "duration": 0.22916666666666666
            },
            {
              "pitch": 60,
              "velocity": 102,
              "position": 20.03125,
              "duration": 0.22916666666666666
            },
            {
              "pitch": 64,
              "velocity": 102,
              "position": 20.052083333333332,
              "duration": 0.22916666666666666
            },
            {
              "pitch": 55,
              "velocity": 82,
              "position": 20.260416666666668,
              "duration": 0.22916666666666666
            },
            {
              "pitch": 60,
              "velocity": 82,
              "position": 20.28125,
              "duration": 0.22916666666666666
            },
            {
              "pitch": 64,
              "velocity": 81,
              "position": 20.302083333333332,
              "duration": 0.22916666666666666
            },
            {
              "pitch": 55,
              "velocity": 96,
              "position": 20.510416666666668,
              "duration": 0.22916666666666666
            },
            {
              "pitch": 60,
              "velocity": 96,
              "position": 20.53125,
              "duration": 0.22916666666666666
            },
            {
              "pitch": 64,
              "velocity": 97,
              "position": 20.552083333333332,
              "duration": 0.22916666666666666
            },
            {
              "pitch": 55,
              "velocity": 98,
              "position": 20.760416666666668,
              "duration": 0.4583333333333333
            },
            {
              "pitch": 60,
              "velocity": 98,
              "position": 20.78125,
              "duration": 0.4583333333333333
            },
            {
              "pitch": 64,
              "velocity": 98,
              "position": 20.802083333333332,
              "duration": 0.4583333333333333
            },
            {
              "pitch": 55,
              "velocity": 87,
              "position": 21.260416666666668,
              "duration": 0.22916666666666666
            },
            {
              "pitch": 60,
              "velocity": 87,
              "position": 21.28125,
              "duration": 0.22916666666666666
            },
            {
              "pitch": 64,
              "velocity": 87,
              "position": 21.302083333333332,
              "duration": 0.22916666666666666
            },
            {
              "pitch": 55,
              "velocity": 109,
              "position": 21.510416666666668,
              "duration": 0.22916666666666666
            },
            {
              "pitch": 60,
              "velocity": 110,
              "position": 21.53125,
              "duration": 0.22916666666666666
            },
            {
              "pitch": 64,
              "velocity": 110,
              "position": 21.552083333333332,
              "duration": 0.22916666666666666
            },
            {
              "pitch": 55,
              "velocity": 93,
              "position": 21.760416666666668,
              "duration": 0.4791666666666667
            },
            {
              "pitch": 60,
              "velocity": 93,
              "position": 21.78125,
              "duration": 0.4791666666666667
            },
            {
              "pitch": 64,
              "velocity": 93,
              "position": 21.802083333333332,
              "duration": 0.4791666666666667
            },
            {
              "pitch": 55,
              "velocity": 89,
              "position": 22.260416666666668,
              "duration": 0.22916666666666666
            },
            {
              "pitch": 60,
              "velocity": 89,
              "position": 22.28125,
              "duration": 0.22916666666666666
            },
            {
              "pitch": 64,
              "velocity": 89,
              "position": 22.302083333333332,
              "duration": 0.22916666666666666
            },
            {
              "pitch": 55,
              "velocity": 104,
              "position": 22.510416666666668,
              "duration": 0.08333333333333333
            },
            {
              "pitch": 60,
              "velocity": 104,
              "position": 22.53125,
              "duration": 0.08333333333333333
            },
            {
              "pitch": 64,
              "velocity": 104,
              "position": 22.552083333333332,
              "duration": 0.08333333333333333
            },
            {
              "pitch": 55,
              "velocity": 89,
              "position": 22.760416666666668,
              "duration": 0.22916666666666666
            },
            {
              "pitch": 60,
              "velocity": 89,
              "position": 22.78125,
              "duration": 0.22916666666666666
            },
            {
              "pitch": 64,
              "velocity": 89,
              "position": 22.802083333333332,
              "duration": 0.22916666666666666
            },
            {
              "pitch": 55,
              "velocity": 104,
              "position": 23.010416666666668,
              "duration": 0.22916666666666666
            },
            {
              "pitch": 60,
              "velocity": 104,
              "position": 23.03125,
              "duration": 0.22916666666666666
            },
            {
              "pitch": 64,
              "velocity": 104,
              "position": 23.052083333333332,
              "duration": 0.22916666666666666
            },
            {
              "pitch": 55,
              "velocity": 80,
              "position": 23.260416666666668,
              "duration": 0.22916666666666666
            },
            {
              "pitch": 60,
              "velocity": 80,
              "position": 23.28125,
              "duration": 0.22916666666666666
            },
            {
              "pitch": 64,
              "velocity": 90,
              "position": 23.302083333333332,
              "duration": 0.22916666666666666
            },
            {
              "pitch": 55,
              "velocity": 104,
              "position": 23.510416666666668,
              "duration": 0.4166666666666667
            },
            {
              "pitch": 60,
              "velocity": 104,
              "position": 23.53125,
              "duration": 0.4166666666666667
            },
            {
              "pitch": 64,
              "velocity": 104,
              "position": 23.552083333333332,
              "duration": 0.4166666666666667
            }
          ]
        },
        "12": {
          "ctab": {
            "srcChannel": 12,
            "name": "Track 13",
            "accType": "CHORD2",
            "editable": false,
            "mutedNotes": [],
            "mutedChords": [],
            "autoStart": false,
            "sourceChordNote": 0,
            "sourceChordType": "Maj7",
            "ctb2Low": null,
            "ctb2Main": {
              "ntr": "ROOT_TRANSPOSITION",
              "ntt": "MELODIC_MINOR",
              "bassOn": false,
              "chordRootUpperLimit": 6,
              "noteLowLimit": 0,
              "noteHighLimit": 79,
              "rtr": "STOP"
            },
            "ctb2High": null
          },
          "notes": [
            {
              "pitch": 78,
              "velocity": 102,
              "position": 0.010416666666666666,
              "duration": 0.16666666666666666
            },
            {
              "pitch": 84,
              "velocity": 99,
              "position": 0.010416666666666666,
              "duration": 0.17708333333333334
            },
            {
              "pitch": 72,
              "velocity": 100,
              "position": 0.010416666666666666,
              "duration": 0.17708333333333334
            },
            {
              "pitch": 84,
              "velocity": 76,
              "position": 0.25,
              "duration": 0.125
            },
            {
              "pitch": 48,
              "velocity": 87,
              "position": 0.010416666666666666,
              "duration": 0.3854166666666667
            },
            {
              "pitch": 72,
              "velocity": 73,
              "position": 0.25,
              "duration": 0.14583333333333334
            },
            {
              "pitch": 79,
              "velocity": 77,
              "position": 0.2708333333333333,
              "duration": 0.125
            },
            {
              "pitch": 55,
              "velocity": 90,
              "position": 0.020833333333333332,
              "duration": 0.3854166666666667
            },
            {
              "pitch": 60,
              "velocity": 87,
              "position": 0.010416666666666666,
              "duration": 0.40625
            },
            {
              "pitch": 84,
              "velocity": 85,
              "position": 0.5,
              "duration": 0.14583333333333334
            },
            {
              "pitch": 72,
              "velocity": 90,
              "position": 0.5,
              "duration": 0.15625
            },
            {
              "pitch": 79,
              "velocity": 91,
              "position": 0.5,
              "duration": 0.15625
            },
            {
              "pitch": 84,
              "velocity": 61,
              "position": 0.7604166666666666,
              "duration": 0.13541666666666666
            },
            {
              "pitch": 79,
              "velocity": 73,
              "position": 0.7604166666666666,
              "duration": 0.13541666666666666
            },
            {
              "pitch": 72,
              "velocity": 71,
              "position": 0.7604166666666666,
              "duration": 0.14583333333333334
            },
            {
              "pitch": 84,
              "velocity": 68,
              "position": 1,
              "duration": 0.13541666666666666
            },
            {
              "pitch": 79,
              "velocity": 81,
              "position": 1,
              "duration": 0.14583333333333334
            },
            {
              "pitch": 72,
              "velocity": 79,
              "position": 1.0104166666666667,
              "duration": 0.13541666666666666
            },
            {
              "pitch": 79,
              "velocity": 75,
              "position": 1.25,
              "duration": 0.13541666666666666
            },
            {
              "pitch": 84,
              "velocity": 63,
              "position": 1.25,
              "duration": 0.13541666666666666
            },
            {
              "pitch": 72,
              "velocity": 68,
              "position": 1.25,
              "duration": 0.14583333333333334
            },
            {
              "pitch": 84,
              "velocity": 71,
              "position": 1.5,
              "duration": 0.10416666666666667
            },
            {
              "pitch": 79,
              "velocity": 86,
              "position": 1.4895833333333333,
              "duration": 0.14583333333333334
            },
            {
              "pitch": 72,
              "velocity": 81,
              "position": 1.4895833333333333,
              "duration": 0.16666666666666666
            },
            {
              "pitch": 84,
              "velocity": 45,
              "position": 1.7604166666666667,
              "duration": 0.052083333333333336
            },
            {
              "pitch": 79,
              "velocity": 68,
              "position": 1.7291666666666667,
              "duration": 0.15625
            },
            {
              "pitch": 72,
              "velocity": 71,
              "position": 1.75,
              "duration": 0.13541666666666666
            },
            {
              "pitch": 72,
              "velocity": 94,
              "position": 1.9895833333333333,
              "duration": 0.15625
            },
            {
              "pitch": 79,
              "velocity": 86,
              "position": 2,
              "duration": 0.15625
            },
            {
              "pitch": 75,
              "velocity": 101,
              "position": 2,
              "duration": 0.16666666666666666
            },
            {
              "pitch": 84,
              "velocity": 85,
              "position": 2.0104166666666665,
              "duration": 0.15625
            },
            {
              "pitch": 84,
              "velocity": 74,
              "position": 2.25,
              "duration": 0.13541666666666666
            },
            {
              "pitch": 79,
              "velocity": 59,
              "position": 2.2604166666666665,
              "duration": 0.125
            },
            {
              "pitch": 41,
              "velocity": 91,
              "position": 2,
              "duration": 0.3958333333333333
            },
            {
              "pitch": 72,
              "velocity": 64,
              "position": 2.25,
              "duration": 0.14583333333333334
            },
            {
              "pitch": 75,
              "velocity": 61,
              "position": 2.25,
              "duration": 0.14583333333333334
            },
            {
              "pitch": 48,
              "velocity": 80,
              "position": 2,
              "duration": 0.40625
            },
            {
              "pitch": 53,
              "velocity": 87,
              "position": 2,
              "duration": 0.4270833333333333
            },
            {
              "pitch": 84,
              "velocity": 72,
              "position": 2.5,
              "duration": 0.13541666666666666
            },
            {
              "pitch": 72,
              "velocity": 73,
              "position": 2.5104166666666665,
              "duration": 0.125
            },
            {
              "pitch": 79,
              "velocity": 76,
              "position": 2.5104166666666665,
              "duration": 0.13541666666666666
            },
            {
              "pitch": 75,
              "velocity": 66,
              "position": 2.5104166666666665,
              "duration": 0.13541666666666666
            },
            {
              "pitch": 84,
              "velocity": 68,
              "position": 2.75,
              "duration": 0.14583333333333334
            },
            {
              "pitch": 72,
              "velocity": 67,
              "position": 2.7604166666666665,
              "duration": 0.14583333333333334
            },
            {
              "pitch": 79,
              "velocity": 65,
              "position": 2.7604166666666665,
              "duration": 0.15625
            },
            {
              "pitch": 75,
              "velocity": 56,
              "position": 2.7604166666666665,
              "duration": 0.15625
            },
            {
              "pitch": 84,
              "velocity": 76,
              "position": 3.0104166666666665,
              "duration": 0.14583333333333334
            },
            {
              "pitch": 79,
              "velocity": 79,
              "position": 3.0104166666666665,
              "duration": 0.14583333333333334
            },
            {
              "pitch": 72,
              "velocity": 78,
              "position": 3.0104166666666665,
              "duration": 0.15625
            },
            {
              "pitch": 75,
              "velocity": 68,
              "position": 3.0208333333333335,
              "duration": 0.14583333333333334
            },
            {
              "pitch": 84,
              "velocity": 64,
              "position": 3.25,
              "duration": 0.13541666666666666
            },
            {
              "pitch": 72,
              "velocity": 69,
              "position": 3.25,
              "duration": 0.14583333333333334
            },
            {
              "pitch": 75,
              "velocity": 59,
              "position": 3.2604166666666665,
              "duration": 0.13541666666666666
            },
            {
              "pitch": 79,
              "velocity": 65,
              "position": 3.2604166666666665,
              "duration": 0.13541666666666666
            },
            {
              "pitch": 72,
              "velocity": 84,
              "position": 3.5,
              "duration": 0.11458333333333333
            },
            {
              "pitch": 79,
              "velocity": 81,
              "position": 3.5104166666666665,
              "duration": 0.11458333333333333
            },
            {
              "pitch": 84,
              "velocity": 78,
              "position": 3.4895833333333335,
              "duration": 0.14583333333333334
            },
            {
              "pitch": 75,
              "velocity": 81,
              "position": 3.5,
              "duration": 0.13541666666666666
            },
            {
              "pitch": 72,
              "velocity": 57,
              "position": 3.7291666666666665,
              "duration": 0.10416666666666667
            },
            {
              "pitch": 75,
              "velocity": 45,
              "position": 3.7395833333333335,
              "duration": 0.09375
            },
            {
              "pitch": 79,
              "velocity": 55,
              "position": 3.75,
              "duration": 0.11458333333333333
            },
            {
              "pitch": 84,
              "velocity": 63,
              "position": 3.7395833333333335,
              "duration": 0.14583333333333334
            },
            {
              "pitch": 82,
              "velocity": 98,
              "position": 4.010416666666667,
              "duration": 0.22916666666666666
            },
            {
              "pitch": 81,
              "velocity": 59,
              "position": 4.270833333333333,
              "duration": 0.041666666666666664
            },
            {
              "pitch": 88,
              "velocity": 82,
              "position": 4.020833333333333,
              "duration": 0.3958333333333333
            },
            {
              "pitch": 48,
              "velocity": 85,
              "position": 4.010416666666667,
              "duration": 0.4375
            },
            {
              "pitch": 60,
              "velocity": 85,
              "position": 4,
              "duration": 0.46875
            },
            {
              "pitch": 55,
              "velocity": 86,
              "position": 4.010416666666667,
              "duration": 0.4583333333333333
            },
            {
              "pitch": 82,
              "velocity": 73,
              "position": 4.354166666666667,
              "duration": 0.14583333333333334
            },
            {
              "pitch": 81,
              "velocity": 74,
              "position": 4.4375,
              "duration": 0.13541666666666666
            },
            {
              "pitch": 79,
              "velocity": 95,
              "position": 4.541666666666667,
              "duration": 0.10416666666666667
            },
            {
              "pitch": 75,
              "velocity": 101,
              "position": 4.802083333333333,
              "duration": 0.1875
            },
            {
              "pitch": 74,
              "velocity": 71,
              "position": 5.020833333333333,
              "duration": 0.09375
            },
            {
              "pitch": 81,
              "velocity": 90,
              "position": 4.802083333333333,
              "duration": 0.375
            },
            {
              "pitch": 75,
              "velocity": 63,
              "position": 5.104166666666667,
              "duration": 0.14583333333333334
            },
            {
              "pitch": 74,
              "velocity": 76,
              "position": 5.197916666666667,
              "duration": 0.125
            },
            {
              "pitch": 72,
              "velocity": 90,
              "position": 5.28125,
              "duration": 0.10416666666666667
            },
            {
              "pitch": 70,
              "velocity": 106,
              "position": 5.489583333333333,
              "duration": 0.19791666666666666
            },
            {
              "pitch": 69,
              "velocity": 65,
              "position": 5.739583333333333,
              "duration": 0.041666666666666664
            },
            {
              "pitch": 76,
              "velocity": 76,
              "position": 5.510416666666667,
              "duration": 0.3854166666666667
            },
            {
              "pitch": 70,
              "velocity": 67,
              "position": 5.791666666666667,
              "duration": 0.16666666666666666
            },
            {
              "pitch": 69,
              "velocity": 75,
              "position": 5.895833333333333,
              "duration": 0.13541666666666666
            },
            {
              "pitch": 67,
              "velocity": 93,
              "position": 6,
              "duration": 0.08333333333333333
            },
            {
              "pitch": 63,
              "velocity": 92,
              "position": 6.239583333333333,
              "duration": 0.20833333333333334
            },
            {
              "pitch": 62,
              "velocity": 89,
              "position": 6.5,
              "duration": 0.20833333333333334
            },
            {
              "pitch": 67,
              "velocity": 89,
              "position": 6.25,
              "duration": 0.6458333333333334
            },
            {
              "pitch": 60,
              "velocity": 97,
              "position": 6.760416666666667,
              "duration": 0.21875
            },
            {
              "pitch": 63,
              "velocity": 75,
              "position": 7.083333333333333,
              "duration": 0.0625
            },
            {
              "pitch": 62,
              "velocity": 82,
              "position": 6.989583333333333,
              "duration": 0.19791666666666666
            },
            {
              "pitch": 64,
              "velocity": 67,
              "position": 7.166666666666667,
              "duration": 0.11458333333333333
            },
            {
              "pitch": 67,
              "velocity": 80,
              "position": 7.25,
              "duration": 0.16666666666666666
            },
            {
              "pitch": 69,
              "velocity": 93,
              "position": 7.5,
              "duration": 0.28125
            },
            {
              "pitch": 67,
              "velocity": 77,
              "position": 7.75,
              "duration": 0.09375
            },
            {
              "pitch": 48,
              "velocity": 80,
              "position": 8.020833333333334,
              "duration": 0.10416666666666667
            },
            {
              "pitch": 41,
              "velocity": 86,
              "position": 8.020833333333334,
              "duration": 0.11458333333333333
            },
            {
              "pitch": 71,
              "velocity": 91,
              "position": 8.020833333333334,
              "duration": 0.25
            },
            {
              "pitch": 77,
              "velocity": 97,
              "position": 8.010416666666666,
              "duration": 0.3333333333333333
            },
            {
              "pitch": 65,
              "velocity": 91,
              "position": 8.020833333333334,
              "duration": 0.3333333333333333
            },
            {
              "pitch": 48,
              "velocity": 65,
              "position": 8.270833333333334,
              "duration": 0.09375
            },
            {
              "pitch": 41,
              "velocity": 66,
              "position": 8.28125,
              "duration": 0.08333333333333333
            },
            {
              "pitch": 72,
              "velocity": 75,
              "position": 8.270833333333334,
              "duration": 0.14583333333333334
            },
            {
              "pitch": 41,
              "velocity": 86,
              "position": 8.510416666666666,
              "duration": 0.09375
            },
            {
              "pitch": 50,
              "velocity": 86,
              "position": 8.5,
              "duration": 0.125
            },
            {
              "pitch": 65,
              "velocity": 85,
              "position": 8.520833333333334,
              "duration": 0.10416666666666667
            },
            {
              "pitch": 77,
              "velocity": 96,
              "position": 8.520833333333334,
              "duration": 0.23958333333333334
            },
            {
              "pitch": 70,
              "velocity": 98,
              "position": 8.510416666666666,
              "duration": 0.28125
            },
            {
              "pitch": 50,
              "velocity": 58,
              "position": 8.739583333333334,
              "duration": 0.125
            },
            {
              "pitch": 41,
              "velocity": 75,
              "position": 8.760416666666666,
              "duration": 0.11458333333333333
            },
            {
              "pitch": 65,
              "velocity": 65,
              "position": 8.791666666666666,
              "duration": 0.09375
            },
            {
              "pitch": 48,
              "velocity": 73,
              "position": 9.010416666666666,
              "duration": 0.10416666666666667
            },
            {
              "pitch": 41,
              "velocity": 74,
              "position": 9.010416666666666,
              "duration": 0.11458333333333333
            },
            {
              "pitch": 65,
              "velocity": 77,
              "position": 9.03125,
              "duration": 0.2708333333333333
            },
            {
              "pitch": 41,
              "velocity": 54,
              "position": 9.25,
              "duration": 0.0625
            },
            {
              "pitch": 68,
              "velocity": 97,
              "position": 9.020833333333334,
              "duration": 0.3020833333333333
            },
            {
              "pitch": 48,
              "velocity": 55,
              "position": 9.229166666666666,
              "duration": 0.10416666666666667
            },
            {
              "pitch": 69,
              "velocity": 83,
              "position": 9.291666666666666,
              "duration": 0.22916666666666666
            },
            {
              "pitch": 41,
              "velocity": 85,
              "position": 9.489583333333334,
              "duration": 0.09375
            },
            {
              "pitch": 50,
              "velocity": 84,
              "position": 9.479166666666666,
              "duration": 0.13541666666666666
            },
            {
              "pitch": 65,
              "velocity": 82,
              "position": 9.520833333333334,
              "duration": 0.10416666666666667
            },
            {
              "pitch": 77,
              "velocity": 81,
              "position": 9.03125,
              "duration": 0.6145833333333334
            },
            {
              "pitch": 50,
              "velocity": 65,
              "position": 9.71875,
              "duration": 0.125
            },
            {
              "pitch": 41,
              "velocity": 70,
              "position": 9.729166666666666,
              "duration": 0.11458333333333333
            },
            {
              "pitch": 67,
              "velocity": 38,
              "position": 9.822916666666666,
              "duration": 0.052083333333333336
            },
            {
              "pitch": 75,
              "velocity": 84,
              "position": 9.770833333333334,
              "duration": 0.1875
            },
            {
              "pitch": 65,
              "velocity": 67,
              "position": 9.78125,
              "duration": 0.19791666666666666
            },
            {
              "pitch": 72,
              "velocity": 85,
              "position": 9.770833333333334,
              "duration": 0.2708333333333333
            },
            {
              "pitch": 48,
              "velocity": 78,
              "position": 9.979166666666666,
              "duration": 0.10416666666666667
            },
            {
              "pitch": 41,
              "velocity": 72,
              "position": 9.989583333333334,
              "duration": 0.11458333333333333
            },
            {
              "pitch": 75,
              "velocity": 70,
              "position": 10.09375,
              "duration": 0.16666666666666666
            },
            {
              "pitch": 41,
              "velocity": 50,
              "position": 10.239583333333334,
              "duration": 0.07291666666666667
            },
            {
              "pitch": 48,
              "velocity": 59,
              "position": 10.229166666666666,
              "duration": 0.09375
            },
            {
              "pitch": 72,
              "velocity": 69,
              "position": 10.208333333333334,
              "duration": 0.14583333333333334
            },
            {
              "pitch": 65,
              "velocity": 86,
              "position": 10.302083333333334,
              "duration": 0.14583333333333334
            },
            {
              "pitch": 50,
              "velocity": 83,
              "position": 10.479166666666666,
              "duration": 0.11458333333333333
            },
            {
              "pitch": 41,
              "velocity": 83,
              "position": 10.479166666666666,
              "duration": 0.13541666666666666
            },
            {
              "pitch": 65,
              "velocity": 85,
              "position": 10.53125,
              "duration": 0.11458333333333333
            },
            {
              "pitch": 74,
              "velocity": 85,
              "position": 10.53125,
              "duration": 0.28125
            },
            {
              "pitch": 41,
              "velocity": 59,
              "position": 10.71875,
              "duration": 0.11458333333333333
            },
            {
              "pitch": 50,
              "velocity": 58,
              "position": 10.71875,
              "duration": 0.125
            },
            {
              "pitch": 70,
              "velocity": 94,
              "position": 10.520833333333334,
              "duration": 0.3541666666666667
            },
            {
              "pitch": 65,
              "velocity": 65,
              "position": 10.760416666666666,
              "duration": 0.15625
            },
            {
              "pitch": 48,
              "velocity": 73,
              "position": 10.989583333333334,
              "duration": 0.09375
            },
            {
              "pitch": 41,
              "velocity": 73,
              "position": 10.989583333333334,
              "duration": 0.125
            },
            {
              "pitch": 68,
              "velocity": 99,
              "position": 11.010416666666666,
              "duration": 0.22916666666666666
            },
            {
              "pitch": 41,
              "velocity": 50,
              "position": 11.270833333333334,
              "duration": 0.041666666666666664
            },
            {
              "pitch": 65,
              "velocity": 67,
              "position": 11.010416666666666,
              "duration": 0.3333333333333333
            },
            {
              "pitch": 48,
              "velocity": 65,
              "position": 11.25,
              "duration": 0.10416666666666667
            },
            {
              "pitch": 50,
              "velocity": 81,
              "position": 11.479166666666666,
              "duration": 0.125
            },
            {
              "pitch": 41,
              "velocity": 86,
              "position": 11.489583333333334,
              "duration": 0.11458333333333333
            },
            {
              "pitch": 65,
              "velocity": 91,
              "position": 11.5,
              "duration": 0.11458333333333333
            },
            {
              "pitch": 69,
              "velocity": 83,
              "position": 11.260416666666666,
              "duration": 0.375
            },
            {
              "pitch": 72,
              "velocity": 76,
              "position": 11.020833333333334,
              "duration": 0.65625
            },
            {
              "pitch": 41,
              "velocity": 65,
              "position": 11.739583333333334,
              "duration": 0.041666666666666664
            },
            {
              "pitch": 50,
              "velocity": 70,
              "position": 11.739583333333334,
              "duration": 0.09375
            },
            {
              "pitch": 72,
              "velocity": 86,
              "position": 11.770833333333334,
              "duration": 0.1875
            },
            {
              "pitch": 55,
              "velocity": 90,
              "position": 11.989583333333334,
              "duration": 0.125
            },
            {
              "pitch": 48,
              "velocity": 78,
              "position": 11.989583333333334,
              "duration": 0.125
            },
            {
              "pitch": 75,
              "velocity": 81,
              "position": 12.083333333333334,
              "duration": 0.07291666666666667
            },
            {
              "pitch": 74,
              "velocity": 83,
              "position": 12.010416666666666,
              "duration": 0.16666666666666666
            },
            {
              "pitch": 76,
              "velocity": 78,
              "position": 12.145833333333334,
              "duration": 0.14583333333333334
            },
            {
              "pitch": 55,
              "velocity": 65,
              "position": 12.229166666666666,
              "duration": 0.09375
            },
            {
              "pitch": 48,
              "velocity": 50,
              "position": 12.239583333333334,
              "duration": 0.08333333333333333
            },
            {
              "pitch": 79,
              "velocity": 89,
              "position": 12.25,
              "duration": 0.14583333333333334
            },
            {
              "pitch": 48,
              "velocity": 82,
              "position": 12.489583333333334,
              "duration": 0.10416666666666667
            },
            {
              "pitch": 57,
              "velocity": 83,
              "position": 12.479166666666666,
              "duration": 0.13541666666666666
            },
            {
              "pitch": 81,
              "velocity": 108,
              "position": 12.5,
              "duration": 0.25
            },
            {
              "pitch": 79,
              "velocity": 76,
              "position": 12.739583333333334,
              "duration": 0.09375
            },
            {
              "pitch": 57,
              "velocity": 62,
              "position": 12.71875,
              "duration": 0.125
            },
            {
              "pitch": 48,
              "velocity": 53,
              "position": 12.729166666666666,
              "duration": 0.11458333333333333
            },
            {
              "pitch": 55,
              "velocity": 80,
              "position": 12.989583333333334,
              "duration": 0.10416666666666667
            },
            {
              "pitch": 48,
              "velocity": 65,
              "position": 12.979166666666666,
              "duration": 0.13541666666666666
            },
            {
              "pitch": 79,
              "velocity": 104,
              "position": 12.979166666666666,
              "duration": 0.21875
            },
            {
              "pitch": 48,
              "velocity": 54,
              "position": 13.239583333333334,
              "duration": 0.07291666666666667
            },
            {
              "pitch": 55,
              "velocity": 65,
              "position": 13.229166666666666,
              "duration": 0.10416666666666667
            },
            {
              "pitch": 84,
              "velocity": 89,
              "position": 12.979166666666666,
              "duration": 0.3645833333333333
            },
            {
              "pitch": 81,
              "velocity": 67,
              "position": 13.25,
              "duration": 0.14583333333333334
            },
            {
              "pitch": 79,
              "velocity": 74,
              "position": 13.333333333333334,
              "duration": 0.14583333333333334
            },
            {
              "pitch": 76,
              "velocity": 89,
              "position": 13.4375,
              "duration": 0.15625
            },
            {
              "pitch": 48,
              "velocity": 78,
              "position": 13.479166666666666,
              "duration": 0.125
            },
            {
              "pitch": 57,
              "velocity": 82,
              "position": 13.489583333333334,
              "duration": 0.125
            },
            {
              "pitch": 57,
              "velocity": 67,
              "position": 13.739583333333334,
              "duration": 0.09375
            },
            {
              "pitch": 48,
              "velocity": 58,
              "position": 13.729166666666666,
              "duration": 0.11458333333333333
            },
            {
              "pitch": 75,
              "velocity": 89,
              "position": 13.71875,
              "duration": 0.20833333333333334
            },
            {
              "pitch": 55,
              "velocity": 82,
              "position": 13.979166666666666,
              "duration": 0.10416666666666667
            },
            {
              "pitch": 48,
              "velocity": 58,
              "position": 13.96875,
              "duration": 0.125
            },
            {
              "pitch": 74,
              "velocity": 79,
              "position": 13.989583333333334,
              "duration": 0.2708333333333333
            },
            {
              "pitch": 48,
              "velocity": 42,
              "position": 14.21875,
              "duration": 0.07291666666666667
            },
            {
              "pitch": 55,
              "velocity": 65,
              "position": 14.21875,
              "duration": 0.09375
            },
            {
              "pitch": 79,
              "velocity": 89,
              "position": 13.71875,
              "duration": 0.6041666666666666
            },
            {
              "pitch": 72,
              "velocity": 73,
              "position": 14.25,
              "duration": 0.11458333333333333
            },
            {
              "pitch": 48,
              "velocity": 82,
              "position": 14.458333333333334,
              "duration": 0.125
            },
            {
              "pitch": 57,
              "velocity": 86,
              "position": 14.458333333333334,
              "duration": 0.13541666666666666
            },
            {
              "pitch": 79,
              "velocity": 93,
              "position": 14.479166666666666,
              "duration": 0.16666666666666666
            },
            {
              "pitch": 74,
              "velocity": 97,
              "position": 14.489583333333334,
              "duration": 0.16666666666666666
            },
            {
              "pitch": 48,
              "velocity": 55,
              "position": 14.708333333333334,
              "duration": 0.10416666666666667
            },
            {
              "pitch": 57,
              "velocity": 65,
              "position": 14.708333333333334,
              "duration": 0.11458333333333333
            },
            {
              "pitch": 55,
              "velocity": 78,
              "position": 14.989583333333334,
              "duration": 0.10416666666666667
            },
            {
              "pitch": 48,
              "velocity": 72,
              "position": 14.979166666666666,
              "duration": 0.13541666666666666
            },
            {
              "pitch": 48,
              "velocity": 50,
              "position": 15.229166666666666,
              "duration": 0.052083333333333336
            },
            {
              "pitch": 55,
              "velocity": 63,
              "position": 15.208333333333334,
              "duration": 0.10416666666666667
            },
            {
              "pitch": 72,
              "velocity": 100,
              "position": 14.739583333333334,
              "duration": 0.6458333333333334
            },
            {
              "pitch": 79,
              "velocity": 92,
              "position": 14.739583333333334,
              "duration": 0.71875
            },
            {
              "pitch": 57,
              "velocity": 94,
              "position": 15.46875,
              "duration": 0.125
            },
            {
              "pitch": 48,
              "velocity": 79,
              "position": 15.46875,
              "duration": 0.14583333333333334
            },
            {
              "pitch": 57,
              "velocity": 63,
              "position": 15.71875,
              "duration": 0.07291666666666667
            },
            {
              "pitch": 48,
              "velocity": 68,
              "position": 15.71875,
              "duration": 0.09375
            },
            {
              "pitch": 81,
              "velocity": 84,
              "position": 15.760416666666666,
              "duration": 0.10416666666666667
            },
            {
              "pitch": 82,
              "velocity": 82,
              "position": 15.885416666666666,
              "duration": 0.14583333333333334
            },
            {
              "pitch": 41,
              "velocity": 73,
              "position": 15.96875,
              "duration": 0.0625
            },
            {
              "pitch": 48,
              "velocity": 43,
              "position": 15.989583333333334,
              "duration": 0.041666666666666664
            },
            {
              "pitch": 50,
              "velocity": 60,
              "position": 15.989583333333334,
              "duration": 0.052083333333333336
            },
            {
              "pitch": 43,
              "velocity": 69,
              "position": 15.979166666666666,
              "duration": 0.11458333333333333
            },
            {
              "pitch": 83,
              "velocity": 81,
              "position": 15.979166666666666,
              "duration": 0.2604166666666667
            },
            {
              "pitch": 43,
              "velocity": 66,
              "position": 16.239583333333332,
              "duration": 0.052083333333333336
            },
            {
              "pitch": 50,
              "velocity": 70,
              "position": 16.21875,
              "duration": 0.10416666666666667
            },
            {
              "pitch": 43,
              "velocity": 83,
              "position": 16.46875,
              "duration": 0.15625
            },
            {
              "pitch": 52,
              "velocity": 84,
              "position": 16.46875,
              "duration": 0.15625
            },
            {
              "pitch": 83,
              "velocity": 103,
              "position": 16.489583333333332,
              "duration": 0.2604166666666667
            },
            {
              "pitch": 91,
              "velocity": 91,
              "position": 16.260416666666668,
              "duration": 0.5
            },
            {
              "pitch": 43,
              "velocity": 61,
              "position": 16.729166666666668,
              "duration": 0.08333333333333333
            },
            {
              "pitch": 52,
              "velocity": 66,
              "position": 16.729166666666668,
              "duration": 0.10416666666666667
            },
            {
              "pitch": 82,
              "velocity": 83,
              "position": 16.75,
              "duration": 0.2916666666666667
            },
            {
              "pitch": 50,
              "velocity": 78,
              "position": 16.989583333333332,
              "duration": 0.10416666666666667
            },
            {
              "pitch": 43,
              "velocity": 75,
              "position": 16.979166666666668,
              "duration": 0.125
            },
            {
              "pitch": 81,
              "velocity": 98,
              "position": 16.989583333333332,
              "duration": 0.2916666666666667
            },
            {
              "pitch": 43,
              "velocity": 50,
              "position": 17.239583333333332,
              "duration": 0.0625
            },
            {
              "pitch": 50,
              "velocity": 51,
              "position": 17.21875,
              "duration": 0.11458333333333333
            },
            {
              "pitch": 43,
              "velocity": 83,
              "position": 17.46875,
              "duration": 0.13541666666666666
            },
            {
              "pitch": 52,
              "velocity": 86,
              "position": 17.479166666666668,
              "duration": 0.125
            },
            {
              "pitch": 89,
              "velocity": 91,
              "position": 17.239583333333332,
              "duration": 0.5104166666666666
            },
            {
              "pitch": 81,
              "velocity": 93,
              "position": 17.489583333333332,
              "duration": 0.2708333333333333
            },
            {
              "pitch": 43,
              "velocity": 65,
              "position": 17.71875,
              "duration": 0.10416666666666667
            },
            {
              "pitch": 52,
              "velocity": 68,
              "position": 17.71875,
              "duration": 0.11458333333333333
            },
            {
              "pitch": 80,
              "velocity": 79,
              "position": 17.739583333333332,
              "duration": 0.3333333333333333
            },
            {
              "pitch": 50,
              "velocity": 78,
              "position": 17.979166666666668,
              "duration": 0.10416666666666667
            },
            {
              "pitch": 43,
              "velocity": 75,
              "position": 17.989583333333332,
              "duration": 0.09375
            },
            {
              "pitch": 79,
              "velocity": 85,
              "position": 17.979166666666668,
              "duration": 0.28125
            },
            {
              "pitch": 43,
              "velocity": 56,
              "position": 18.229166666666668,
              "duration": 0.052083333333333336
            },
            {
              "pitch": 50,
              "velocity": 51,
              "position": 18.21875,
              "duration": 0.09375
            },
            {
              "pitch": 52,
              "velocity": 84,
              "position": 18.479166666666668,
              "duration": 0.13541666666666666
            },
            {
              "pitch": 43,
              "velocity": 84,
              "position": 18.479166666666668,
              "duration": 0.13541666666666666
            },
            {
              "pitch": 79,
              "velocity": 90,
              "position": 18.479166666666668,
              "duration": 0.2708333333333333
            },
            {
              "pitch": 88,
              "velocity": 89,
              "position": 18.229166666666668,
              "duration": 0.6041666666666666
            },
            {
              "pitch": 43,
              "velocity": 58,
              "position": 18.739583333333332,
              "duration": 0.09375
            },
            {
              "pitch": 52,
              "velocity": 56,
              "position": 18.71875,
              "duration": 0.125
            },
            {
              "pitch": 50,
              "velocity": 79,
              "position": 18.989583333333332,
              "duration": 0.11458333333333333
            },
            {
              "pitch": 78,
              "velocity": 82,
              "position": 18.739583333333332,
              "duration": 0.3854166666666667
            },
            {
              "pitch": 43,
              "velocity": 75,
              "position": 18.989583333333332,
              "duration": 0.14583333333333334
            },
            {
              "pitch": 50,
              "velocity": 59,
              "position": 19.229166666666668,
              "duration": 0.10416666666666667
            },
            {
              "pitch": 43,
              "velocity": 60,
              "position": 19.229166666666668,
              "duration": 0.125
            },
            {
              "pitch": 77,
              "velocity": 83,
              "position": 18.979166666666668,
              "duration": 0.40625
            },
            {
              "pitch": 86,
              "velocity": 72,
              "position": 19.260416666666668,
              "duration": 0.28125
            },
            {
              "pitch": 77,
              "velocity": 70,
              "position": 19.520833333333332,
              "duration": 0.07291666666666667
            },
            {
              "pitch": 52,
              "velocity": 85,
              "position": 19.479166666666668,
              "duration": 0.13541666666666666
            },
            {
              "pitch": 43,
              "velocity": 78,
              "position": 19.489583333333332,
              "duration": 0.13541666666666666
            },
            {
              "pitch": 43,
              "velocity": 60,
              "position": 19.739583333333332,
              "duration": 0.09375
            },
            {
              "pitch": 52,
              "velocity": 68,
              "position": 19.75,
              "duration": 0.11458333333333333
            },
            {
              "pitch": 76,
              "velocity": 85,
              "position": 19.75,
              "duration": 0.3645833333333333
            },
            {
              "pitch": 84,
              "velocity": 86,
              "position": 19.75,
              "duration": 0.375
            },
            {
              "pitch": 55,
              "velocity": 85,
              "position": 20,
              "duration": 0.125
            },
            {
              "pitch": 48,
              "velocity": 76,
              "position": 19.989583333333332,
              "duration": 0.15625
            },
            {
              "pitch": 55,
              "velocity": 58,
              "position": 20.239583333333332,
              "duration": 0.10416666666666667
            },
            {
              "pitch": 48,
              "velocity": 53,
              "position": 20.25,
              "duration": 0.11458333333333333
            },
            {
              "pitch": 76,
              "velocity": 89,
              "position": 20.270833333333332,
              "duration": 0.16666666666666666
            },
            {
              "pitch": 84,
              "velocity": 86,
              "position": 20.28125,
              "duration": 0.17708333333333334
            },
            {
              "pitch": 57,
              "velocity": 80,
              "position": 20.489583333333332,
              "duration": 0.13541666666666666
            },
            {
              "pitch": 48,
              "velocity": 67,
              "position": 20.479166666666668,
              "duration": 0.15625
            },
            {
              "pitch": 77,
              "velocity": 94,
              "position": 20.510416666666668,
              "duration": 0.13541666666666666
            },
            {
              "pitch": 48,
              "velocity": 65,
              "position": 20.729166666666668,
              "duration": 0.11458333333333333
            },
            {
              "pitch": 57,
              "velocity": 69,
              "position": 20.739583333333332,
              "duration": 0.11458333333333333
            },
            {
              "pitch": 84,
              "velocity": 29,
              "position": 20.5,
              "duration": 0.3854166666666667
            },
            {
              "pitch": 78,
              "velocity": 97,
              "position": 20.760416666666668,
              "duration": 0.13541666666666666
            },
            {
              "pitch": 55,
              "velocity": 80,
              "position": 20.979166666666668,
              "duration": 0.10416666666666667
            },
            {
              "pitch": 48,
              "velocity": 64,
              "position": 20.979166666666668,
              "duration": 0.125
            },
            {
              "pitch": 79,
              "velocity": 90,
              "position": 21,
              "duration": 0.17708333333333334
            },
            {
              "pitch": 48,
              "velocity": 51,
              "position": 21.21875,
              "duration": 0.10416666666666667
            },
            {
              "pitch": 55,
              "velocity": 58,
              "position": 21.229166666666668,
              "duration": 0.09375
            },
            {
              "pitch": 84,
              "velocity": 76,
              "position": 21,
              "duration": 0.3541666666666667
            },
            {
              "pitch": 81,
              "velocity": 69,
              "position": 21.25,
              "duration": 0.17708333333333334
            },
            {
              "pitch": 79,
              "velocity": 76,
              "position": 21.354166666666668,
              "duration": 0.17708333333333334
            },
            {
              "pitch": 48,
              "velocity": 70,
              "position": 21.458333333333332,
              "duration": 0.125
            },
            {
              "pitch": 57,
              "velocity": 86,
              "position": 21.458333333333332,
              "duration": 0.14583333333333334
            },
            {
              "pitch": 76,
              "velocity": 90,
              "position": 21.479166666666668,
              "duration": 0.15625
            },
            {
              "pitch": 48,
              "velocity": 58,
              "position": 21.697916666666668,
              "duration": 0.11458333333333333
            },
            {
              "pitch": 57,
              "velocity": 76,
              "position": 21.708333333333332,
              "duration": 0.11458333333333333
            },
            {
              "pitch": 75,
              "velocity": 94,
              "position": 21.739583333333332,
              "duration": 0.25
            },
            {
              "pitch": 55,
              "velocity": 82,
              "position": 21.979166666666668,
              "duration": 0.09375
            },
            {
              "pitch": 48,
              "velocity": 74,
              "position": 21.979166666666668,
              "duration": 0.13541666666666666
            },
            {
              "pitch": 74,
              "velocity": 75,
              "position": 22,
              "duration": 0.19791666666666666
            },
            {
              "pitch": 79,
              "velocity": 84,
              "position": 21.75,
              "duration": 0.5729166666666666
            },
            {
              "pitch": 48,
              "velocity": 58,
              "position": 22.229166666666668,
              "duration": 0.09375
            },
            {
              "pitch": 55,
              "velocity": 64,
              "position": 22.229166666666668,
              "duration": 0.10416666666666667
            },
            {
              "pitch": 72,
              "velocity": 77,
              "position": 22.25,
              "duration": 0.16666666666666666
            },
            {
              "pitch": 48,
              "velocity": 73,
              "position": 22.46875,
              "duration": 0.125
            },
            {
              "pitch": 57,
              "velocity": 86,
              "position": 22.46875,
              "duration": 0.14583333333333334
            },
            {
              "pitch": 79,
              "velocity": 94,
              "position": 22.5,
              "duration": 0.14583333333333334
            },
            {
              "pitch": 74,
              "velocity": 102,
              "position": 22.5,
              "duration": 0.17708333333333334
            },
            {
              "pitch": 57,
              "velocity": 67,
              "position": 22.71875,
              "duration": 0.125
            },
            {
              "pitch": 48,
              "velocity": 55,
              "position": 22.729166666666668,
              "duration": 0.11458333333333333
            },
            {
              "pitch": 55,
              "velocity": 83,
              "position": 22.979166666666668,
              "duration": 0.09375
            },
            {
              "pitch": 48,
              "velocity": 65,
              "position": 22.96875,
              "duration": 0.15625
            },
            {
              "pitch": 48,
              "velocity": 58,
              "position": 23.229166666666668,
              "duration": 0.09375
            },
            {
              "pitch": 55,
              "velocity": 58,
              "position": 23.229166666666668,
              "duration": 0.09375
            },
            {
              "pitch": 72,
              "velocity": 106,
              "position": 22.729166666666668,
              "duration": 0.8333333333333334
            },
            {
              "pitch": 48,
              "velocity": 70,
              "position": 23.46875,
              "duration": 0.125
            },
            {
              "pitch": 79,
              "velocity": 93,
              "position": 22.729166666666668,
              "duration": 0.875
            },
            {
              "pitch": 57,
              "velocity": 82,
              "position": 23.46875,
              "duration": 0.13541666666666666
            },
            {
              "pitch": 57,
              "velocity": 59,
              "position": 23.71875,
              "duration": 0.09375
            },
            {
              "pitch": 48,
              "velocity": 54,
              "position": 23.708333333333332,
              "duration": 0.11458333333333333
            }
          ]
        },
        "14": {
          "ctab": {
            "srcChannel": 14,
            "name": "Track 15",
            "accType": "PHRASE1",
            "editable": false,
            "mutedNotes": [],
            "mutedChords": [],
            "autoStart": false,
            "sourceChordNote": 0,
            "sourceChordType": "Maj7",
            "ctb2Low": null,
            "ctb2Main": {
              "ntr": "ROOT_TRANSPOSITION",
              "ntt": "MELODIC_MINOR",
              "bassOn": false,
              "chordRootUpperLimit": 6,
              "noteLowLimit": 0,
              "noteHighLimit": 127,
              "rtr": "PITCH_SHIFT"
            },
            "ctb2High": null
          },
          "notes": [
            {
              "pitch": 55,
              "velocity": 107,
              "position": 0,
              "duration": 0.46875
            },
            {
              "pitch": 60,
              "velocity": 89,
              "position": 0.010416666666666666,
              "duration": 0.4583333333333333
            },
            {
              "pitch": 48,
              "velocity": 102,
              "position": 0.010416666666666666,
              "duration": 0.46875
            },
            {
              "pitch": 53,
              "velocity": 107,
              "position": 2,
              "duration": 0.4583333333333333
            },
            {
              "pitch": 60,
              "velocity": 89,
              "position": 2,
              "duration": 0.46875
            },
            {
              "pitch": 48,
              "velocity": 107,
              "position": 2,
              "duration": 0.4791666666666667
            },
            {
              "pitch": 55,
              "velocity": 102,
              "position": 4.020833333333333,
              "duration": 0.4583333333333333
            },
            {
              "pitch": 60,
              "velocity": 89,
              "position": 4.020833333333333,
              "duration": 0.46875
            },
            {
              "pitch": 48,
              "velocity": 98,
              "position": 4.020833333333333,
              "duration": 0.4791666666666667
            },
            {
              "pitch": 53,
              "velocity": 107,
              "position": 8.010416666666666,
              "duration": 0.40625
            },
            {
              "pitch": 48,
              "velocity": 98,
              "position": 8,
              "duration": 0.4895833333333333
            },
            {
              "pitch": 53,
              "velocity": 89,
              "position": 8.53125,
              "duration": 0.19791666666666666
            },
            {
              "pitch": 50,
              "velocity": 94,
              "position": 8.53125,
              "duration": 0.20833333333333334
            },
            {
              "pitch": 48,
              "velocity": 89,
              "position": 9.03125,
              "duration": 0.16666666666666666
            },
            {
              "pitch": 53,
              "velocity": 107,
              "position": 9.020833333333334,
              "duration": 0.3645833333333333
            },
            {
              "pitch": 48,
              "velocity": 63,
              "position": 9.28125,
              "duration": 0.15625
            },
            {
              "pitch": 53,
              "velocity": 86,
              "position": 9.510416666666666,
              "duration": 0.14583333333333334
            },
            {
              "pitch": 50,
              "velocity": 89,
              "position": 9.510416666666666,
              "duration": 0.1875
            },
            {
              "pitch": 48,
              "velocity": 98,
              "position": 9.770833333333334,
              "duration": 0.3958333333333333
            },
            {
              "pitch": 53,
              "velocity": 107,
              "position": 9.770833333333334,
              "duration": 0.6041666666666666
            },
            {
              "pitch": 48,
              "velocity": 66,
              "position": 10.291666666666666,
              "duration": 0.16666666666666666
            },
            {
              "pitch": 50,
              "velocity": 98,
              "position": 10.520833333333334,
              "duration": 0.17708333333333334
            },
            {
              "pitch": 53,
              "velocity": 107,
              "position": 10.520833333333334,
              "duration": 0.1875
            },
            {
              "pitch": 51,
              "velocity": 94,
              "position": 11.010416666666666,
              "duration": 0.21875
            },
            {
              "pitch": 53,
              "velocity": 98,
              "position": 11.010416666666666,
              "duration": 0.22916666666666666
            },
            {
              "pitch": 53,
              "velocity": 102,
              "position": 11.510416666666666,
              "duration": 0.19791666666666666
            },
            {
              "pitch": 50,
              "velocity": 89,
              "position": 11.510416666666666,
              "duration": 0.21875
            },
            {
              "pitch": 48,
              "velocity": 69,
              "position": 11.760416666666666,
              "duration": 0.13541666666666666
            },
            {
              "pitch": 48,
              "velocity": 82,
              "position": 12,
              "duration": 0.3854166666666667
            },
            {
              "pitch": 55,
              "velocity": 112,
              "position": 11.989583333333334,
              "duration": 0.4270833333333333
            },
            {
              "pitch": 57,
              "velocity": 94,
              "position": 12.510416666666666,
              "duration": 0.17708333333333334
            },
            {
              "pitch": 48,
              "velocity": 86,
              "position": 12.510416666666666,
              "duration": 0.1875
            },
            {
              "pitch": 48,
              "velocity": 89,
              "position": 13,
              "duration": 0.15625
            },
            {
              "pitch": 55,
              "velocity": 107,
              "position": 13.010416666666666,
              "duration": 0.19791666666666666
            },
            {
              "pitch": 48,
              "velocity": 72,
              "position": 13.25,
              "duration": 0.16666666666666666
            },
            {
              "pitch": 51,
              "velocity": 105,
              "position": 13.510416666666666,
              "duration": 0.09375
            },
            {
              "pitch": 52,
              "velocity": 86,
              "position": 13.614583333333334,
              "duration": 0.11458333333333333
            },
            {
              "pitch": 60,
              "velocity": 102,
              "position": 13.770833333333334,
              "duration": 0.5833333333333334
            },
            {
              "pitch": 48,
              "velocity": 78,
              "position": 14.010416666666666,
              "duration": 0.375
            },
            {
              "pitch": 55,
              "velocity": 94,
              "position": 13.760416666666666,
              "duration": 0.6458333333333334
            },
            {
              "pitch": 57,
              "velocity": 86,
              "position": 14.510416666666666,
              "duration": 0.1875
            },
            {
              "pitch": 48,
              "velocity": 94,
              "position": 14.510416666666666,
              "duration": 0.21875
            },
            {
              "pitch": 48,
              "velocity": 86,
              "position": 14.989583333333334,
              "duration": 0.15625
            },
            {
              "pitch": 55,
              "velocity": 102,
              "position": 15,
              "duration": 0.3645833333333333
            },
            {
              "pitch": 48,
              "velocity": 69,
              "position": 15.239583333333334,
              "duration": 0.19791666666666666
            },
            {
              "pitch": 51,
              "velocity": 111,
              "position": 15.5,
              "duration": 0.25
            },
            {
              "pitch": 52,
              "velocity": 78,
              "position": 15.770833333333334,
              "duration": 0.16666666666666666
            },
            {
              "pitch": 50,
              "velocity": 89,
              "position": 15.989583333333334,
              "duration": 0.19791666666666666
            },
            {
              "pitch": 55,
              "velocity": 107,
              "position": 16,
              "duration": 0.4166666666666667
            },
            {
              "pitch": 50,
              "velocity": 63,
              "position": 16.28125,
              "duration": 0.16666666666666666
            },
            {
              "pitch": 52,
              "velocity": 107,
              "position": 16.510416666666668,
              "duration": 0.1875
            },
            {
              "pitch": 55,
              "velocity": 102,
              "position": 16.5,
              "duration": 0.20833333333333334
            },
            {
              "pitch": 50,
              "velocity": 94,
              "position": 17,
              "duration": 0.17708333333333334
            },
            {
              "pitch": 55,
              "velocity": 107,
              "position": 17.010416666666668,
              "duration": 0.3333333333333333
            },
            {
              "pitch": 50,
              "velocity": 53,
              "position": 17.270833333333332,
              "duration": 0.14583333333333334
            },
            {
              "pitch": 55,
              "velocity": 107,
              "position": 17.510416666666668,
              "duration": 0.16666666666666666
            },
            {
              "pitch": 52,
              "velocity": 102,
              "position": 17.520833333333332,
              "duration": 0.16666666666666666
            },
            {
              "pitch": 50,
              "velocity": 98,
              "position": 17.760416666666668,
              "duration": 0.375
            },
            {
              "pitch": 55,
              "velocity": 89,
              "position": 17.760416666666668,
              "duration": 0.40625
            },
            {
              "pitch": 55,
              "velocity": 47,
              "position": 18.25,
              "duration": 0.13541666666666666
            },
            {
              "pitch": 50,
              "velocity": 75,
              "position": 18.260416666666668,
              "duration": 0.1875
            },
            {
              "pitch": 55,
              "velocity": 89,
              "position": 18.5,
              "duration": 0.17708333333333334
            },
            {
              "pitch": 52,
              "velocity": 98,
              "position": 18.510416666666668,
              "duration": 0.17708333333333334
            },
            {
              "pitch": 50,
              "velocity": 44,
              "position": 18.75,
              "duration": 0.14583333333333334
            },
            {
              "pitch": 55,
              "velocity": 107,
              "position": 19,
              "duration": 0.1875
            },
            {
              "pitch": 53,
              "velocity": 94,
              "position": 19.010416666666668,
              "duration": 0.19791666666666666
            },
            {
              "pitch": 50,
              "velocity": 35,
              "position": 19.28125,
              "duration": 0.15625
            },
            {
              "pitch": 52,
              "velocity": 98,
              "position": 19.53125,
              "duration": 0.20833333333333334
            },
            {
              "pitch": 55,
              "velocity": 107,
              "position": 19.520833333333332,
              "duration": 0.23958333333333334
            },
            {
              "pitch": 50,
              "velocity": 42,
              "position": 19.78125,
              "duration": 0.10416666666666667
            },
            {
              "pitch": 48,
              "velocity": 94,
              "position": 20.010416666666668,
              "duration": 0.3958333333333333
            },
            {
              "pitch": 55,
              "velocity": 112,
              "position": 20.010416666666668,
              "duration": 0.4375
            },
            {
              "pitch": 57,
              "velocity": 89,
              "position": 20.541666666666668,
              "duration": 0.16666666666666666
            },
            {
              "pitch": 48,
              "velocity": 102,
              "position": 20.541666666666668,
              "duration": 0.16666666666666666
            },
            {
              "pitch": 55,
              "velocity": 34,
              "position": 20.822916666666668,
              "duration": 0.03125
            },
            {
              "pitch": 48,
              "velocity": 72,
              "position": 21.020833333333332,
              "duration": 0.125
            },
            {
              "pitch": 58,
              "velocity": 111,
              "position": 21.020833333333332,
              "duration": 0.21875
            },
            {
              "pitch": 48,
              "velocity": 60,
              "position": 21.25,
              "duration": 0.10416666666666667
            },
            {
              "pitch": 48,
              "velocity": 89,
              "position": 21.520833333333332,
              "duration": 0.16666666666666666
            },
            {
              "pitch": 57,
              "velocity": 98,
              "position": 21.520833333333332,
              "duration": 0.16666666666666666
            },
            {
              "pitch": 48,
              "velocity": 86,
              "position": 21.78125,
              "duration": 0.3541666666666667
            },
            {
              "pitch": 55,
              "velocity": 107,
              "position": 21.770833333333332,
              "duration": 0.65625
            },
            {
              "pitch": 48,
              "velocity": 89,
              "position": 22.260416666666668,
              "duration": 0.19791666666666666
            },
            {
              "pitch": 51,
              "velocity": 89,
              "position": 22.489583333333332,
              "duration": 0.08333333333333333
            },
            {
              "pitch": 52,
              "velocity": 98,
              "position": 22.572916666666668,
              "duration": 0.15625
            },
            {
              "pitch": 48,
              "velocity": 72,
              "position": 23,
              "duration": 0.10416666666666667
            },
            {
              "pitch": 55,
              "velocity": 94,
              "position": 22.770833333333332,
              "duration": 0.6145833333333334
            },
            {
              "pitch": 48,
              "velocity": 58,
              "position": 23.260416666666668,
              "duration": 0.125
            },
            {
              "pitch": 60,
              "velocity": 98,
              "position": 22.760416666666668,
              "duration": 0.6354166666666666
            },
            {
              "pitch": 57,
              "velocity": 82,
              "position": 23.479166666666668,
              "duration": 0.21875
            },
            {
              "pitch": 55,
              "velocity": 60,
              "position": 23.739583333333332,
              "duration": 0.09375
            },
            {
              "pitch": 48,
              "velocity": 78,
              "position": 23.489583333333332,
              "duration": 0.375
            }
          ]
        }
      }
    },
    "Ending_A": {
      "type": "Ending_A",
      "sizeInBeats": 4,
      "channels": {
        "9": {
          "ctab": {
            "srcChannel": 9,
            "name": "Track 10",
            "accType": "SUBRHYTHM",
            "editable": false,
            "mutedNotes": [],
            "mutedChords": [],
            "autoStart": true,
            "sourceChordNote": 0,
            "sourceChordType": "Maj7",
            "ctb2Low": null,
            "ctb2Main": {
              "ntr": "ROOT_FIXED",
              "ntt": "BYPASS",
              "bassOn": false,
              "chordRootUpperLimit": 6,
              "noteLowLimit": 0,
              "noteHighLimit": 127,
              "rtr": "PITCH_SHIFT"
            },
            "ctb2High": null
          },
          "notes": [
            {
              "pitch": 36,
              "velocity": 115,
              "position": 0,
              "duration": 0.010416666666666666
            },
            {
              "pitch": 40,
              "velocity": 115,
              "position": 0,
              "duration": 0.010416666666666666
            }
          ]
        },
        "10": {
          "ctab": {
            "srcChannel": 10,
            "name": "Track 11",
            "accType": "BASS",
            "editable": false,
            "mutedNotes": [],
            "mutedChords": [],
            "autoStart": false,
            "sourceChordNote": 0,
            "sourceChordType": "Maj7",
            "ctb2Low": null,
            "ctb2Main": {
              "ntr": "ROOT_TRANSPOSITION",
              "ntt": "MELODIC_MINOR",
              "bassOn": false,
              "chordRootUpperLimit": 3,
              "noteLowLimit": 28,
              "noteHighLimit": 127,
              "rtr": "PITCH_SHIFT"
            },
            "ctb2High": null
          },
          "notes": [
            {
              "pitch": 36,
              "velocity": 121,
              "position": 0,
              "duration": 0.46875
            },
            {
              "pitch": 36,
              "velocity": 96,
              "position": 3.03125,
              "duration": 0.25
            }
          ]
        },
        "11": {
          "ctab": {
            "srcChannel": 11,
            "name": "Track 12",
            "accType": "CHORD1",
            "editable": false,
            "mutedNotes": [],
            "mutedChords": [],
            "autoStart": false,
            "sourceChordNote": 0,
            "sourceChordType": "Maj7",
            "ctb2Low": null,
            "ctb2Main": {
              "ntr": "ROOT_TRANSPOSITION",
              "ntt": "MELODIC_MINOR",
              "bassOn": false,
              "chordRootUpperLimit": 6,
              "noteLowLimit": 0,
              "noteHighLimit": 127,
              "rtr": "PITCH_SHIFT"
            },
            "ctb2High": null
          },
          "notes": [
            {
              "pitch": 55,
              "velocity": 102,
              "position": 0.010416666666666666,
              "duration": 0.4895833333333333
            },
            {
              "pitch": 58,
              "velocity": 102,
              "position": 0.052083333333333336,
              "duration": 0.4895833333333333
            },
            {
              "pitch": 64,
              "velocity": 103,
              "position": 0.08333333333333333,
              "duration": 0.4895833333333333
            }
          ]
        },
        "12": {
          "ctab": {
            "srcChannel": 12,
            "name": "Track 13",
            "accType": "CHORD2",
            "editable": false,
            "mutedNotes": [],
            "mutedChords": [],
            "autoStart": false,
            "sourceChordNote": 0,
            "sourceChordType": "Maj7",
            "ctb2Low": null,
            "ctb2Main": {
              "ntr": "ROOT_TRANSPOSITION",
              "ntt": "MELODIC_MINOR",
              "bassOn": false,
              "chordRootUpperLimit": 6,
              "noteLowLimit": 0,
              "noteHighLimit": 79,
              "rtr": "STOP"
            },
            "ctb2High": null
          },
          "notes": [
            {
              "pitch": 82,
              "velocity": 98,
              "position": 0.010416666666666666,
              "duration": 0.22916666666666666
            },
            {
              "pitch": 81,
              "velocity": 59,
              "position": 0.2708333333333333,
              "duration": 0.041666666666666664
            },
            {
              "pitch": 88,
              "velocity": 82,
              "position": 0.020833333333333332,
              "duration": 0.3958333333333333
            },
            {
              "pitch": 48,
              "velocity": 85,
              "position": 0.010416666666666666,
              "duration": 0.4375
            },
            {
              "pitch": 60,
              "velocity": 85,
              "position": 0,
              "duration": 0.46875
            },
            {
              "pitch": 55,
              "velocity": 86,
              "position": 0.010416666666666666,
              "duration": 0.4583333333333333
            },
            {
              "pitch": 82,
              "velocity": 73,
              "position": 0.3541666666666667,
              "duration": 0.14583333333333334
            },
            {
              "pitch": 81,
              "velocity": 74,
              "position": 0.4375,
              "duration": 0.13541666666666666
            },
            {
              "pitch": 79,
              "velocity": 95,
              "position": 0.5416666666666666,
              "duration": 0.10416666666666667
            },
            {
              "pitch": 75,
              "velocity": 101,
              "position": 0.8020833333333334,
              "duration": 0.1875
            },
            {
              "pitch": 74,
              "velocity": 71,
              "position": 1.0208333333333333,
              "duration": 0.09375
            },
            {
              "pitch": 81,
              "velocity": 90,
              "position": 0.8020833333333334,
              "duration": 0.375
            },
            {
              "pitch": 75,
              "velocity": 63,
              "position": 1.1041666666666667,
              "duration": 0.14583333333333334
            },
            {
              "pitch": 74,
              "velocity": 76,
              "position": 1.1979166666666667,
              "duration": 0.125
            },
            {
              "pitch": 72,
              "velocity": 90,
              "position": 1.28125,
              "duration": 0.10416666666666667
            },
            {
              "pitch": 70,
              "velocity": 106,
              "position": 1.4895833333333333,
              "duration": 0.19791666666666666
            },
            {
              "pitch": 69,
              "velocity": 65,
              "position": 1.7395833333333333,
              "duration": 0.041666666666666664
            },
            {
              "pitch": 76,
              "velocity": 76,
              "position": 1.5104166666666667,
              "duration": 0.3854166666666667
            },
            {
              "pitch": 70,
              "velocity": 67,
              "position": 1.7916666666666667,
              "duration": 0.16666666666666666
            },
            {
              "pitch": 69,
              "velocity": 75,
              "position": 1.8958333333333333,
              "duration": 0.13541666666666666
            },
            {
              "pitch": 67,
              "velocity": 93,
              "position": 2,
              "duration": 0.08333333333333333
            },
            {
              "pitch": 63,
              "velocity": 92,
              "position": 2.2395833333333335,
              "duration": 0.20833333333333334
            },
            {
              "pitch": 62,
              "velocity": 89,
              "position": 2.5,
              "duration": 0.20833333333333334
            },
            {
              "pitch": 67,
              "velocity": 89,
              "position": 2.25,
              "duration": 0.6458333333333334
            },
            {
              "pitch": 60,
              "velocity": 97,
              "position": 2.7604166666666665,
              "duration": 0.21875
            },
            {
              "pitch": 48,
              "velocity": 85,
              "position": 3.0104166666666665,
              "duration": 0.07291666666666667
            },
            {
              "pitch": 55,
              "velocity": 86,
              "position": 3.0104166666666665,
              "duration": 0.08333333333333333
            },
            {
              "pitch": 60,
              "velocity": 85,
              "position": 3,
              "duration": 0.10416666666666667
            },
            {
              "pitch": 72,
              "velocity": 89,
              "position": 3,
              "duration": 0.28125
            }
          ]
        },
        "14": {
          "ctab": {
            "srcChannel": 14,
            "name": "Track 15",
            "accType": "PHRASE1",
            "editable": false,
            "mutedNotes": [],
            "mutedChords": [],
            "autoStart": false,
            "sourceChordNote": 0,
            "sourceChordType": "Maj7",
            "ctb2Low": null,
            "ctb2Main": {
              "ntr": "ROOT_TRANSPOSITION",
              "ntt": "MELODIC_MINOR",
              "bassOn": false,
              "chordRootUpperLimit": 6,
              "noteLowLimit": 0,
              "noteHighLimit": 127,
              "rtr": "PITCH_SHIFT"
            },
            "ctb2High": null
          },
          "notes": [
            {
              "pitch": 55,
              "velocity": 102,
              "position": 0.020833333333333332,
              "duration": 0.4583333333333333
            },
            {
              "pitch": 60,
              "velocity": 89,
              "position": 0.020833333333333332,
              "duration": 0.46875
            },
            {
              "pitch": 48,
              "velocity": 98,
              "position": 0.020833333333333332,
              "duration": 0.4791666666666667
            }
          ]
        }
      }
    },
    "Ending_B": {
      "type": "Ending_B",
      "sizeInBeats": 12,
      "channels": {
        "8": {
          "ctab": {
            "srcChannel": 8,
            "name": "Track 9",
            "accType": "RHYTHM",
            "editable": false,
            "mutedNotes": [],
            "mutedChords": [],
            "autoStart": true,
            "sourceChordNote": 0,
            "sourceChordType": "Maj7",
            "ctb2Low": null,
            "ctb2Main": {
              "ntr": "ROOT_FIXED",
              "ntt": "BYPASS",
              "bassOn": false,
              "chordRootUpperLimit": 6,
              "noteLowLimit": 0,
              "noteHighLimit": 127,
              "rtr": "PITCH_SHIFT"
            },
            "ctb2High": null
          },
          "notes": [
            {
              "pitch": 54,
              "velocity": 70,
              "position": 0.010416666666666666,
              "duration": 0.010416666666666666
            },
            {
              "pitch": 54,
              "velocity": 36,
              "position": 0.25,
              "duration": 0.010416666666666666
            },
            {
              "pitch": 54,
              "velocity": 82,
              "position": 0.5104166666666666,
              "duration": 0.010416666666666666
            },
            {
              "pitch": 54,
              "velocity": 36,
              "position": 0.75,
              "duration": 0.010416666666666666
            },
            {
              "pitch": 54,
              "velocity": 68,
              "position": 1,
              "duration": 0.010416666666666666
            },
            {
              "pitch": 54,
              "velocity": 38,
              "position": 1.25,
              "duration": 0.010416666666666666
            },
            {
              "pitch": 54,
              "velocity": 79,
              "position": 1.5104166666666667,
              "duration": 0.010416666666666666
            },
            {
              "pitch": 54,
              "velocity": 36,
              "position": 1.7395833333333333,
              "duration": 0.010416666666666666
            },
            {
              "pitch": 54,
              "velocity": 68,
              "position": 1.9895833333333333,
              "duration": 0.010416666666666666
            },
            {
              "pitch": 54,
              "velocity": 36,
              "position": 2.2395833333333335,
              "duration": 0.010416666666666666
            },
            {
              "pitch": 54,
              "velocity": 79,
              "position": 2.4895833333333335,
              "duration": 0.010416666666666666
            },
            {
              "pitch": 54,
              "velocity": 38,
              "position": 2.7395833333333335,
              "duration": 0.010416666666666666
            },
            {
              "pitch": 54,
              "velocity": 68,
              "position": 2.9895833333333335,
              "duration": 0.010416666666666666
            },
            {
              "pitch": 54,
              "velocity": 38,
              "position": 3.2395833333333335,
              "duration": 0.010416666666666666
            },
            {
              "pitch": 54,
              "velocity": 80,
              "position": 3.4895833333333335,
              "duration": 0.010416666666666666
            },
            {
              "pitch": 54,
              "velocity": 34,
              "position": 3.75,
              "duration": 0.010416666666666666
            }
          ]
        },
        "9": {
          "ctab": {
            "srcChannel": 9,
            "name": "Track 10",
            "accType": "SUBRHYTHM",
            "editable": false,
            "mutedNotes": [],
            "mutedChords": [],
            "autoStart": true,
            "sourceChordNote": 0,
            "sourceChordType": "Maj7",
            "ctb2Low": null,
            "ctb2Main": {
              "ntr": "ROOT_FIXED",
              "ntt": "BYPASS",
              "bassOn": false,
              "chordRootUpperLimit": 6,
              "noteLowLimit": 0,
              "noteHighLimit": 127,
              "rtr": "PITCH_SHIFT"
            },
            "ctb2High": null
          },
          "notes": [
            {
              "pitch": 36,
              "velocity": 115,
              "position": 0,
              "duration": 0.010416666666666666
            },
            {
              "pitch": 54,
              "velocity": 70,
              "position": 0.010416666666666666,
              "duration": 0.010416666666666666
            },
            {
              "pitch": 54,
              "velocity": 36,
              "position": 0.25,
              "duration": 0.010416666666666666
            },
            {
              "pitch": 40,
              "velocity": 28,
              "position": 0.2604166666666667,
              "duration": 0.010416666666666666
            },
            {
              "pitch": 40,
              "velocity": 113,
              "position": 0.5,
              "duration": 0.010416666666666666
            },
            {
              "pitch": 54,
              "velocity": 82,
              "position": 0.5104166666666666,
              "duration": 0.010416666666666666
            },
            {
              "pitch": 40,
              "velocity": 30,
              "position": 0.75,
              "duration": 0.010416666666666666
            },
            {
              "pitch": 54,
              "velocity": 36,
              "position": 0.75,
              "duration": 0.010416666666666666
            },
            {
              "pitch": 36,
              "velocity": 115,
              "position": 1,
              "duration": 0.010416666666666666
            },
            {
              "pitch": 54,
              "velocity": 68,
              "position": 1,
              "duration": 0.010416666666666666
            },
            {
              "pitch": 40,
              "velocity": 47,
              "position": 1.0104166666666667,
              "duration": 0.010416666666666666
            },
            {
              "pitch": 40,
              "velocity": 37,
              "position": 1.25,
              "duration": 0.010416666666666666
            },
            {
              "pitch": 54,
              "velocity": 38,
              "position": 1.25,
              "duration": 0.010416666666666666
            },
            {
              "pitch": 40,
              "velocity": 113,
              "position": 1.5,
              "duration": 0.010416666666666666
            },
            {
              "pitch": 54,
              "velocity": 79,
              "position": 1.5104166666666667,
              "duration": 0.010416666666666666
            },
            {
              "pitch": 54,
              "velocity": 36,
              "position": 1.7395833333333333,
              "duration": 0.010416666666666666
            },
            {
              "pitch": 40,
              "velocity": 30,
              "position": 1.7604166666666667,
              "duration": 0.010416666666666666
            },
            {
              "pitch": 54,
              "velocity": 68,
              "position": 1.9895833333333333,
              "duration": 0.010416666666666666
            },
            {
              "pitch": 36,
              "velocity": 115,
              "position": 2,
              "duration": 0.010416666666666666
            },
            {
              "pitch": 40,
              "velocity": 30,
              "position": 2.0104166666666665,
              "duration": 0.010416666666666666
            },
            {
              "pitch": 54,
              "velocity": 36,
              "position": 2.2395833333333335,
              "duration": 0.010416666666666666
            },
            {
              "pitch": 40,
              "velocity": 31,
              "position": 2.25,
              "duration": 0.010416666666666666
            },
            {
              "pitch": 54,
              "velocity": 79,
              "position": 2.4895833333333335,
              "duration": 0.010416666666666666
            },
            {
              "pitch": 40,
              "velocity": 113,
              "position": 2.5,
              "duration": 0.010416666666666666
            },
            {
              "pitch": 54,
              "velocity": 38,
              "position": 2.7395833333333335,
              "duration": 0.010416666666666666
            },
            {
              "pitch": 40,
              "velocity": 30,
              "position": 2.75,
              "duration": 0.010416666666666666
            },
            {
              "pitch": 54,
              "velocity": 68,
              "position": 2.9895833333333335,
              "duration": 0.010416666666666666
            },
            {
              "pitch": 36,
              "velocity": 115,
              "position": 3,
              "duration": 0.010416666666666666
            },
            {
              "pitch": 40,
              "velocity": 49,
              "position": 3,
              "duration": 0.010416666666666666
            },
            {
              "pitch": 54,
              "velocity": 38,
              "position": 3.2395833333333335,
              "duration": 0.010416666666666666
            },
            {
              "pitch": 40,
              "velocity": 34,
              "position": 3.25,
              "duration": 0.010416666666666666
            },
            {
              "pitch": 54,
              "velocity": 80,
              "position": 3.4895833333333335,
              "duration": 0.010416666666666666
            },
            {
              "pitch": 40,
              "velocity": 113,
              "position": 3.5,
              "duration": 0.010416666666666666
            },
            {
              "pitch": 40,
              "velocity": 88,
              "position": 3.75,
              "duration": 0.010416666666666666
            },
            {
              "pitch": 54,
              "velocity": 34,
              "position": 3.75,
              "duration": 0.010416666666666666
            },
            {
              "pitch": 36,
              "velocity": 114,
              "position": 4,
              "duration": 0.010416666666666666
            },
            {
              "pitch": 49,
              "velocity": 64,
              "position": 4,
              "duration": 0.010416666666666666
            },
            {
              "pitch": 40,
              "velocity": 34,
              "position": 4.010416666666667,
              "duration": 0.010416666666666666
            },
            {
              "pitch": 40,
              "velocity": 33,
              "position": 4.260416666666667,
              "duration": 0.010416666666666666
            },
            {
              "pitch": 40,
              "velocity": 107,
              "position": 4.5,
              "duration": 0.010416666666666666
            },
            {
              "pitch": 40,
              "velocity": 32,
              "position": 4.75,
              "duration": 0.010416666666666666
            },
            {
              "pitch": 36,
              "velocity": 102,
              "position": 5,
              "duration": 0.010416666666666666
            },
            {
              "pitch": 40,
              "velocity": 31,
              "position": 5.010416666666667,
              "duration": 0.010416666666666666
            },
            {
              "pitch": 40,
              "velocity": 30,
              "position": 5.260416666666667,
              "duration": 0.010416666666666666
            },
            {
              "pitch": 40,
              "velocity": 92,
              "position": 5.510416666666667,
              "duration": 0.010416666666666666
            },
            {
              "pitch": 40,
              "velocity": 28,
              "position": 5.75,
              "duration": 0.010416666666666666
            },
            {
              "pitch": 36,
              "velocity": 85,
              "position": 6,
              "duration": 0.010416666666666666
            },
            {
              "pitch": 40,
              "velocity": 27,
              "position": 6,
              "duration": 0.010416666666666666
            },
            {
              "pitch": 40,
              "velocity": 26,
              "position": 6.25,
              "duration": 0.010416666666666666
            },
            {
              "pitch": 40,
              "velocity": 83,
              "position": 6.5,
              "duration": 0.010416666666666666
            },
            {
              "pitch": 40,
              "velocity": 24,
              "position": 6.75,
              "duration": 0.010416666666666666
            },
            {
              "pitch": 40,
              "velocity": 23,
              "position": 6.989583333333333,
              "duration": 0.010416666666666666
            },
            {
              "pitch": 36,
              "velocity": 71,
              "position": 7,
              "duration": 0.010416666666666666
            },
            {
              "pitch": 40,
              "velocity": 22,
              "position": 7.25,
              "duration": 0.010416666666666666
            },
            {
              "pitch": 40,
              "velocity": 73,
              "position": 7.5,
              "duration": 0.010416666666666666
            },
            {
              "pitch": 40,
              "velocity": 20,
              "position": 7.75,
              "duration": 0.010416666666666666
            },
            {
              "pitch": 36,
              "velocity": 54,
              "position": 8,
              "duration": 0.010416666666666666
            },
            {
              "pitch": 40,
              "velocity": 19,
              "position": 8.010416666666666,
              "duration": 0.010416666666666666
            },
            {
              "pitch": 40,
              "velocity": 18,
              "position": 8.25,
              "duration": 0.010416666666666666
            },
            {
              "pitch": 40,
              "velocity": 52,
              "position": 8.5,
              "duration": 0.010416666666666666
            },
            {
              "pitch": 40,
              "velocity": 16,
              "position": 8.75,
              "duration": 0.010416666666666666
            },
            {
              "pitch": 36,
              "velocity": 41,
              "position": 9,
              "duration": 0.010416666666666666
            },
            {
              "pitch": 40,
              "velocity": 15,
              "position": 9,
              "duration": 0.010416666666666666
            },
            {
              "pitch": 40,
              "velocity": 14,
              "position": 9.260416666666666,
              "duration": 0.010416666666666666
            },
            {
              "pitch": 40,
              "velocity": 35,
              "position": 9.5,
              "duration": 0.010416666666666666
            },
            {
              "pitch": 40,
              "velocity": 12,
              "position": 9.760416666666666,
              "duration": 0.010416666666666666
            },
            {
              "pitch": 36,
              "velocity": 25,
              "position": 10,
              "duration": 0.010416666666666666
            },
            {
              "pitch": 40,
              "velocity": 11,
              "position": 10.010416666666666,
              "duration": 0.010416666666666666
            },
            {
              "pitch": 40,
              "velocity": 10,
              "position": 10.260416666666666,
              "duration": 0.010416666666666666
            },
            {
              "pitch": 40,
              "velocity": 23,
              "position": 10.510416666666666,
              "duration": 0.010416666666666666
            },
            {
              "pitch": 40,
              "velocity": 8,
              "position": 10.760416666666666,
              "duration": 0.010416666666666666
            },
            {
              "pitch": 36,
              "velocity": 14,
              "position": 11,
              "duration": 0.010416666666666666
            },
            {
              "pitch": 40,
              "velocity": 6,
              "position": 11.020833333333334,
              "duration": 0.010416666666666666
            },
            {
              "pitch": 40,
              "velocity": 6,
              "position": 11.260416666666666,
              "duration": 0.010416666666666666
            },
            {
              "pitch": 40,
              "velocity": 10,
              "position": 11.510416666666666,
              "duration": 0.010416666666666666
            },
            {
              "pitch": 40,
              "velocity": 4,
              "position": 11.760416666666666,
              "duration": 0.010416666666666666
            }
          ]
        },
        "10": {
          "ctab": {
            "srcChannel": 10,
            "name": "Track 11",
            "accType": "BASS",
            "editable": false,
            "mutedNotes": [],
            "mutedChords": [],
            "autoStart": false,
            "sourceChordNote": 0,
            "sourceChordType": "Maj7",
            "ctb2Low": null,
            "ctb2Main": {
              "ntr": "ROOT_TRANSPOSITION",
              "ntt": "MELODIC_MINOR",
              "bassOn": false,
              "chordRootUpperLimit": 3,
              "noteLowLimit": 28,
              "noteHighLimit": 127,
              "rtr": "PITCH_SHIFT"
            },
            "ctb2High": null
          },
          "notes": [
            {
              "pitch": 36,
              "velocity": 117,
              "position": 0,
              "duration": 0.4895833333333333
            },
            {
              "pitch": 36,
              "velocity": 97,
              "position": 0.75,
              "duration": 0.0625
            },
            {
              "pitch": 31,
              "velocity": 119,
              "position": 1,
              "duration": 0.4895833333333333
            },
            {
              "pitch": 31,
              "velocity": 97,
              "position": 1.75,
              "duration": 0.13541666666666666
            },
            {
              "pitch": 33,
              "velocity": 119,
              "position": 2,
              "duration": 0.2604166666666667
            },
            {
              "pitch": 31,
              "velocity": 94,
              "position": 2.25,
              "duration": 0.6666666666666666
            },
            {
              "pitch": 39,
              "velocity": 114,
              "position": 3,
              "duration": 0.23958333333333334
            },
            {
              "pitch": 40,
              "velocity": 89,
              "position": 3.25,
              "duration": 0.19791666666666666
            },
            {
              "pitch": 38,
              "velocity": 106,
              "position": 3.5,
              "duration": 0.4270833333333333
            },
            {
              "pitch": 36,
              "velocity": 105,
              "position": 4,
              "duration": 3.96875
            }
          ]
        },
        "12": {
          "ctab": {
            "srcChannel": 12,
            "name": "Track 13",
            "accType": "CHORD2",
            "editable": false,
            "mutedNotes": [],
            "mutedChords": [],
            "autoStart": false,
            "sourceChordNote": 0,
            "sourceChordType": "Maj7",
            "ctb2Low": null,
            "ctb2Main": {
              "ntr": "ROOT_TRANSPOSITION",
              "ntt": "MELODIC_MINOR",
              "bassOn": false,
              "chordRootUpperLimit": 6,
              "noteLowLimit": 0,
              "noteHighLimit": 79,
              "rtr": "STOP"
            },
            "ctb2High": null
          },
          "notes": [
            {
              "pitch": 48,
              "velocity": 64,
              "position": 0,
              "duration": 0.14583333333333334
            },
            {
              "pitch": 55,
              "velocity": 70,
              "position": 0,
              "duration": 0.14583333333333334
            },
            {
              "pitch": 48,
              "velocity": 48,
              "position": 0.25,
              "duration": 0.13541666666666666
            },
            {
              "pitch": 55,
              "velocity": 57,
              "position": 0.22916666666666666,
              "duration": 0.16666666666666666
            },
            {
              "pitch": 84,
              "velocity": 87,
              "position": 0.25,
              "duration": 0.16666666666666666
            },
            {
              "pitch": 72,
              "velocity": 87,
              "position": 0.2604166666666667,
              "duration": 0.16666666666666666
            },
            {
              "pitch": 79,
              "velocity": 89,
              "position": 0.2604166666666667,
              "duration": 0.19791666666666666
            },
            {
              "pitch": 48,
              "velocity": 59,
              "position": 0.4791666666666667,
              "duration": 0.125
            },
            {
              "pitch": 57,
              "velocity": 79,
              "position": 0.4791666666666667,
              "duration": 0.125
            },
            {
              "pitch": 48,
              "velocity": 61,
              "position": 0.75,
              "duration": 0.11458333333333333
            },
            {
              "pitch": 57,
              "velocity": 68,
              "position": 0.75,
              "duration": 0.13541666666666666
            },
            {
              "pitch": 78,
              "velocity": 94,
              "position": 0.9895833333333334,
              "duration": 0.10416666666666667
            },
            {
              "pitch": 55,
              "velocity": 67,
              "position": 1.0208333333333333,
              "duration": 0.09375
            },
            {
              "pitch": 48,
              "velocity": 57,
              "position": 1.0208333333333333,
              "duration": 0.11458333333333333
            },
            {
              "pitch": 72,
              "velocity": 74,
              "position": 0.9895833333333334,
              "duration": 0.16666666666666666
            },
            {
              "pitch": 84,
              "velocity": 87,
              "position": 1,
              "duration": 0.22916666666666666
            },
            {
              "pitch": 79,
              "velocity": 81,
              "position": 1.0729166666666667,
              "duration": 0.19791666666666666
            },
            {
              "pitch": 55,
              "velocity": 67,
              "position": 1.2291666666666667,
              "duration": 0.13541666666666666
            },
            {
              "pitch": 48,
              "velocity": 50,
              "position": 1.2395833333333333,
              "duration": 0.125
            },
            {
              "pitch": 48,
              "velocity": 59,
              "position": 1.5,
              "duration": 0.13541666666666666
            },
            {
              "pitch": 57,
              "velocity": 75,
              "position": 1.5,
              "duration": 0.13541666666666666
            },
            {
              "pitch": 72,
              "velocity": 64,
              "position": 1.53125,
              "duration": 0.11458333333333333
            },
            {
              "pitch": 77,
              "velocity": 92,
              "position": 1.5104166666666667,
              "duration": 0.17708333333333334
            },
            {
              "pitch": 81,
              "velocity": 80,
              "position": 1.5208333333333333,
              "duration": 0.17708333333333334
            },
            {
              "pitch": 57,
              "velocity": 58,
              "position": 1.7291666666666667,
              "duration": 0.125
            },
            {
              "pitch": 48,
              "velocity": 50,
              "position": 1.75,
              "duration": 0.10416666666666667
            },
            {
              "pitch": 72,
              "velocity": 12,
              "position": 1.7395833333333333,
              "duration": 0.15625
            },
            {
              "pitch": 55,
              "velocity": 70,
              "position": 2.0208333333333335,
              "duration": 0.10416666666666667
            },
            {
              "pitch": 48,
              "velocity": 66,
              "position": 2.0208333333333335,
              "duration": 0.13541666666666666
            },
            {
              "pitch": 75,
              "velocity": 101,
              "position": 1.9895833333333333,
              "duration": 0.2708333333333333
            },
            {
              "pitch": 55,
              "velocity": 48,
              "position": 2.25,
              "duration": 0.10416666666666667
            },
            {
              "pitch": 48,
              "velocity": 43,
              "position": 2.25,
              "duration": 0.13541666666666666
            },
            {
              "pitch": 79,
              "velocity": 84,
              "position": 2,
              "duration": 0.5
            },
            {
              "pitch": 76,
              "velocity": 69,
              "position": 2.2708333333333335,
              "duration": 0.28125
            },
            {
              "pitch": 48,
              "velocity": 63,
              "position": 2.4791666666666665,
              "duration": 0.14583333333333334
            },
            {
              "pitch": 57,
              "velocity": 79,
              "position": 2.4895833333333335,
              "duration": 0.14583333333333334
            },
            {
              "pitch": 72,
              "velocity": 77,
              "position": 2.5104166666666665,
              "duration": 0.15625
            },
            {
              "pitch": 48,
              "velocity": 50,
              "position": 2.7604166666666665,
              "duration": 0.09375
            },
            {
              "pitch": 57,
              "velocity": 59,
              "position": 2.75,
              "duration": 0.125
            },
            {
              "pitch": 69,
              "velocity": 73,
              "position": 2.75,
              "duration": 0.13541666666666666
            },
            {
              "pitch": 55,
              "velocity": 76,
              "position": 3.0104166666666665,
              "duration": 0.08333333333333333
            },
            {
              "pitch": 48,
              "velocity": 68,
              "position": 3.0104166666666665,
              "duration": 0.125
            },
            {
              "pitch": 72,
              "velocity": 92,
              "position": 2.9895833333333335,
              "duration": 0.3229166666666667
            },
            {
              "pitch": 76,
              "velocity": 85,
              "position": 2.9895833333333335,
              "duration": 0.3333333333333333
            },
            {
              "pitch": 55,
              "velocity": 74,
              "position": 3.25,
              "duration": 0.09375
            },
            {
              "pitch": 48,
              "velocity": 44,
              "position": 3.2604166666666665,
              "duration": 0.08333333333333333
            },
            {
              "pitch": 69,
              "velocity": 68,
              "position": 3.25,
              "duration": 0.22916666666666666
            },
            {
              "pitch": 48,
              "velocity": 66,
              "position": 3.4791666666666665,
              "duration": 0.14583333333333334
            },
            {
              "pitch": 57,
              "velocity": 83,
              "position": 3.4895833333333335,
              "duration": 0.15625
            },
            {
              "pitch": 67,
              "velocity": 75,
              "position": 3.4895833333333335,
              "duration": 0.17708333333333334
            },
            {
              "pitch": 48,
              "velocity": 39,
              "position": 3.75,
              "duration": 0.07291666666666667
            },
            {
              "pitch": 55,
              "velocity": 47,
              "position": 3.78125,
              "duration": 0.052083333333333336
            },
            {
              "pitch": 57,
              "velocity": 7,
              "position": 3.7916666666666665,
              "duration": 0.052083333333333336
            },
            {
              "pitch": 64,
              "velocity": 86,
              "position": 3.9895833333333335,
              "duration": 3.9583333333333335
            },
            {
              "pitch": 48,
              "velocity": 63,
              "position": 4.010416666666667,
              "duration": 3.9375
            },
            {
              "pitch": 55,
              "velocity": 74,
              "position": 4,
              "duration": 3.9583333333333335
            },
            {
              "pitch": 72,
              "velocity": 87,
              "position": 4,
              "duration": 3.9895833333333335
            }
          ]
        },
        "13": {
          "ctab": {
            "srcChannel": 13,
            "name": "Track 14",
            "accType": "PAD",
            "editable": false,
            "mutedNotes": [],
            "mutedChords": [],
            "autoStart": false,
            "sourceChordNote": 0,
            "sourceChordType": "Maj7",
            "ctb2Low": null,
            "ctb2Main": {
              "ntr": "ROOT_TRANSPOSITION",
              "ntt": "MELODIC_MINOR",
              "bassOn": false,
              "chordRootUpperLimit": 6,
              "noteLowLimit": 0,
              "noteHighLimit": 127,
              "rtr": "RETRIGGER"
            },
            "ctb2High": null
          },
          "notes": [
            {
              "pitch": 64,
              "velocity": 75,
              "position": 0.041666666666666664,
              "duration": 3.8020833333333335
            },
            {
              "pitch": 60,
              "velocity": 75,
              "position": 0.041666666666666664,
              "duration": 3.8020833333333335
            }
          ]
        },
        "14": {
          "ctab": {
            "srcChannel": 14,
            "name": "Track 15",
            "accType": "PHRASE1",
            "editable": false,
            "mutedNotes": [],
            "mutedChords": [],
            "autoStart": false,
            "sourceChordNote": 0,
            "sourceChordType": "Maj7",
            "ctb2Low": null,
            "ctb2Main": {
              "ntr": "ROOT_TRANSPOSITION",
              "ntt": "MELODIC_MINOR",
              "bassOn": false,
              "chordRootUpperLimit": 6,
              "noteLowLimit": 0,
              "noteHighLimit": 127,
              "rtr": "PITCH_SHIFT"
            },
            "ctb2High": null
          },
          "notes": [
            {
              "pitch": 48,
              "velocity": 90,
              "position": 0.03125,
              "duration": 0.16666666666666666
            },
            {
              "pitch": 60,
              "velocity": 76,
              "position": 0.020833333333333332,
              "duration": 0.21875
            },
            {
              "pitch": 55,
              "velocity": 101,
              "position": 0.03125,
              "duration": 0.3020833333333333
            },
            {
              "pitch": 48,
              "velocity": 41,
              "position": 0.2708333333333333,
              "duration": 0.13541666666666666
            },
            {
              "pitch": 48,
              "velocity": 66,
              "position": 0.5,
              "duration": 0.14583333333333334
            },
            {
              "pitch": 57,
              "velocity": 100,
              "position": 0.5,
              "duration": 0.19791666666666666
            },
            {
              "pitch": 60,
              "velocity": 86,
              "position": 0.5104166666666666,
              "duration": 0.1875
            },
            {
              "pitch": 48,
              "velocity": 36,
              "position": 0.7395833333333334,
              "duration": 0.14583333333333334
            },
            {
              "pitch": 48,
              "velocity": 83,
              "position": 1.0104166666666667,
              "duration": 0.125
            },
            {
              "pitch": 55,
              "velocity": 95,
              "position": 1.0104166666666667,
              "duration": 0.20833333333333334
            },
            {
              "pitch": 60,
              "velocity": 86,
              "position": 1,
              "duration": 0.25
            },
            {
              "pitch": 48,
              "velocity": 63,
              "position": 1.2708333333333333,
              "duration": 0.14583333333333334
            },
            {
              "pitch": 48,
              "velocity": 61,
              "position": 1.5104166666666667,
              "duration": 0.08333333333333333
            },
            {
              "pitch": 57,
              "velocity": 103,
              "position": 1.5104166666666667,
              "duration": 0.14583333333333334
            },
            {
              "pitch": 60,
              "velocity": 85,
              "position": 1.5104166666666667,
              "duration": 0.16666666666666666
            },
            {
              "pitch": 48,
              "velocity": 71,
              "position": 1.71875,
              "duration": 0.3958333333333333
            },
            {
              "pitch": 58,
              "velocity": 103,
              "position": 1.7604166666666667,
              "duration": 0.5416666666666666
            },
            {
              "pitch": 60,
              "velocity": 81,
              "position": 1.7604166666666667,
              "duration": 0.5520833333333334
            },
            {
              "pitch": 48,
              "velocity": 68,
              "position": 2.2604166666666665,
              "duration": 0.11458333333333333
            },
            {
              "pitch": 48,
              "velocity": 69,
              "position": 2.4791666666666665,
              "duration": 0.13541666666666666
            },
            {
              "pitch": 57,
              "velocity": 99,
              "position": 2.4895833333333335,
              "duration": 0.2708333333333333
            },
            {
              "pitch": 60,
              "velocity": 85,
              "position": 2.4895833333333335,
              "duration": 0.2916666666666667
            },
            {
              "pitch": 48,
              "velocity": 66,
              "position": 2.75,
              "duration": 0.14583333333333334
            },
            {
              "pitch": 55,
              "velocity": 98,
              "position": 3,
              "duration": 0.20833333333333334
            },
            {
              "pitch": 60,
              "velocity": 86,
              "position": 2.9895833333333335,
              "duration": 0.34375
            },
            {
              "pitch": 48,
              "velocity": 69,
              "position": 2.9791666666666665,
              "duration": 0.3958333333333333
            },
            {
              "pitch": 57,
              "velocity": 71,
              "position": 3.2291666666666665,
              "duration": 0.16666666666666666
            },
            {
              "pitch": 54,
              "velocity": 89,
              "position": 3.5,
              "duration": 0.4166666666666667
            },
            {
              "pitch": 59,
              "velocity": 77,
              "position": 3.4895833333333335,
              "duration": 0.4791666666666667
            },
            {
              "pitch": 47,
              "velocity": 92,
              "position": 3.5104166666666665,
              "duration": 0.46875
            },
            {
              "pitch": 60,
              "velocity": 84,
              "position": 4.020833333333333,
              "duration": 3.9270833333333335
            },
            {
              "pitch": 55,
              "velocity": 92,
              "position": 4.020833333333333,
              "duration": 3.9270833333333335
            },
            {
              "pitch": 48,
              "velocity": 97,
              "position": 4.010416666666667,
              "duration": 3.96875
            }
          ]
        }
      }
    },
    "Ending_C": {
      "type": "Ending_C",
      "sizeInBeats": 16,
      "channels": {
        "8": {
          "ctab": {
            "srcChannel": 8,
            "name": "Track 9",
            "accType": "RHYTHM",
            "editable": false,
            "mutedNotes": [],
            "mutedChords": [],
            "autoStart": true,
            "sourceChordNote": 0,
            "sourceChordType": "Maj7",
            "ctb2Low": null,
            "ctb2Main": {
              "ntr": "ROOT_FIXED",
              "ntt": "BYPASS",
              "bassOn": false,
              "chordRootUpperLimit": 6,
              "noteLowLimit": 0,
              "noteHighLimit": 127,
              "rtr": "PITCH_SHIFT"
            },
            "ctb2High": null
          },
          "notes": [
            {
              "pitch": 54,
              "velocity": 70,
              "position": 0.010416666666666666,
              "duration": 0.010416666666666666
            },
            {
              "pitch": 54,
              "velocity": 36,
              "position": 0.25,
              "duration": 0.010416666666666666
            },
            {
              "pitch": 54,
              "velocity": 82,
              "position": 0.5104166666666666,
              "duration": 0.010416666666666666
            },
            {
              "pitch": 54,
              "velocity": 36,
              "position": 0.75,
              "duration": 0.010416666666666666
            },
            {
              "pitch": 54,
              "velocity": 68,
              "position": 1,
              "duration": 0.010416666666666666
            },
            {
              "pitch": 54,
              "velocity": 38,
              "position": 1.25,
              "duration": 0.010416666666666666
            },
            {
              "pitch": 54,
              "velocity": 79,
              "position": 1.5104166666666667,
              "duration": 0.010416666666666666
            },
            {
              "pitch": 54,
              "velocity": 36,
              "position": 1.7395833333333333,
              "duration": 0.010416666666666666
            },
            {
              "pitch": 54,
              "velocity": 68,
              "position": 1.9895833333333333,
              "duration": 0.010416666666666666
            },
            {
              "pitch": 54,
              "velocity": 36,
              "position": 2.2395833333333335,
              "duration": 0.010416666666666666
            },
            {
              "pitch": 54,
              "velocity": 79,
              "position": 2.4895833333333335,
              "duration": 0.010416666666666666
            },
            {
              "pitch": 54,
              "velocity": 38,
              "position": 2.7395833333333335,
              "duration": 0.010416666666666666
            },
            {
              "pitch": 54,
              "velocity": 68,
              "position": 2.9895833333333335,
              "duration": 0.010416666666666666
            },
            {
              "pitch": 54,
              "velocity": 38,
              "position": 3.2395833333333335,
              "duration": 0.010416666666666666
            },
            {
              "pitch": 54,
              "velocity": 80,
              "position": 3.4895833333333335,
              "duration": 0.010416666666666666
            },
            {
              "pitch": 54,
              "velocity": 34,
              "position": 3.75,
              "duration": 0.010416666666666666
            },
            {
              "pitch": 54,
              "velocity": 70,
              "position": 4.010416666666667,
              "duration": 0.010416666666666666
            },
            {
              "pitch": 54,
              "velocity": 36,
              "position": 4.25,
              "duration": 0.010416666666666666
            },
            {
              "pitch": 54,
              "velocity": 82,
              "position": 4.510416666666667,
              "duration": 0.010416666666666666
            },
            {
              "pitch": 54,
              "velocity": 36,
              "position": 4.75,
              "duration": 0.010416666666666666
            },
            {
              "pitch": 54,
              "velocity": 68,
              "position": 5,
              "duration": 0.010416666666666666
            },
            {
              "pitch": 54,
              "velocity": 38,
              "position": 5.25,
              "duration": 0.010416666666666666
            },
            {
              "pitch": 54,
              "velocity": 79,
              "position": 5.510416666666667,
              "duration": 0.010416666666666666
            },
            {
              "pitch": 54,
              "velocity": 36,
              "position": 5.739583333333333,
              "duration": 0.010416666666666666
            },
            {
              "pitch": 54,
              "velocity": 68,
              "position": 5.989583333333333,
              "duration": 0.010416666666666666
            },
            {
              "pitch": 54,
              "velocity": 36,
              "position": 6.239583333333333,
              "duration": 0.010416666666666666
            },
            {
              "pitch": 54,
              "velocity": 79,
              "position": 6.489583333333333,
              "duration": 0.010416666666666666
            },
            {
              "pitch": 54,
              "velocity": 38,
              "position": 6.739583333333333,
              "duration": 0.010416666666666666
            },
            {
              "pitch": 54,
              "velocity": 68,
              "position": 6.989583333333333,
              "duration": 0.010416666666666666
            },
            {
              "pitch": 54,
              "velocity": 38,
              "position": 7.239583333333333,
              "duration": 0.010416666666666666
            },
            {
              "pitch": 54,
              "velocity": 80,
              "position": 7.489583333333333,
              "duration": 0.010416666666666666
            },
            {
              "pitch": 54,
              "velocity": 34,
              "position": 7.75,
              "duration": 0.010416666666666666
            },
            {
              "pitch": 54,
              "velocity": 70,
              "position": 8.010416666666666,
              "duration": 0.010416666666666666
            },
            {
              "pitch": 54,
              "velocity": 36,
              "position": 8.25,
              "duration": 0.010416666666666666
            },
            {
              "pitch": 54,
              "velocity": 82,
              "position": 8.510416666666666,
              "duration": 0.010416666666666666
            },
            {
              "pitch": 54,
              "velocity": 36,
              "position": 8.75,
              "duration": 0.010416666666666666
            },
            {
              "pitch": 54,
              "velocity": 68,
              "position": 9,
              "duration": 0.010416666666666666
            },
            {
              "pitch": 54,
              "velocity": 38,
              "position": 9.25,
              "duration": 0.010416666666666666
            },
            {
              "pitch": 54,
              "velocity": 79,
              "position": 9.510416666666666,
              "duration": 0.010416666666666666
            },
            {
              "pitch": 54,
              "velocity": 36,
              "position": 9.739583333333334,
              "duration": 0.010416666666666666
            }
          ]
        },
        "9": {
          "ctab": {
            "srcChannel": 9,
            "name": "Track 10",
            "accType": "SUBRHYTHM",
            "editable": false,
            "mutedNotes": [],
            "mutedChords": [],
            "autoStart": true,
            "sourceChordNote": 0,
            "sourceChordType": "Maj7",
            "ctb2Low": null,
            "ctb2Main": {
              "ntr": "ROOT_FIXED",
              "ntt": "BYPASS",
              "bassOn": false,
              "chordRootUpperLimit": 6,
              "noteLowLimit": 0,
              "noteHighLimit": 127,
              "rtr": "PITCH_SHIFT"
            },
            "ctb2High": null
          },
          "notes": [
            {
              "pitch": 36,
              "velocity": 115,
              "position": 0,
              "duration": 0.010416666666666666
            },
            {
              "pitch": 54,
              "velocity": 70,
              "position": 0.010416666666666666,
              "duration": 0.010416666666666666
            },
            {
              "pitch": 40,
              "velocity": 39,
              "position": 0.010416666666666666,
              "duration": 0.010416666666666666
            },
            {
              "pitch": 54,
              "velocity": 36,
              "position": 0.25,
              "duration": 0.010416666666666666
            },
            {
              "pitch": 40,
              "velocity": 32,
              "position": 0.2604166666666667,
              "duration": 0.010416666666666666
            },
            {
              "pitch": 40,
              "velocity": 108,
              "position": 0.5,
              "duration": 0.010416666666666666
            },
            {
              "pitch": 54,
              "velocity": 82,
              "position": 0.5104166666666666,
              "duration": 0.010416666666666666
            },
            {
              "pitch": 40,
              "velocity": 36,
              "position": 0.75,
              "duration": 0.010416666666666666
            },
            {
              "pitch": 54,
              "velocity": 36,
              "position": 0.75,
              "duration": 0.010416666666666666
            },
            {
              "pitch": 36,
              "velocity": 115,
              "position": 1,
              "duration": 0.010416666666666666
            },
            {
              "pitch": 54,
              "velocity": 68,
              "position": 1,
              "duration": 0.010416666666666666
            },
            {
              "pitch": 40,
              "velocity": 45,
              "position": 1.0104166666666667,
              "duration": 0.010416666666666666
            },
            {
              "pitch": 54,
              "velocity": 38,
              "position": 1.25,
              "duration": 0.010416666666666666
            },
            {
              "pitch": 40,
              "velocity": 33,
              "position": 1.2604166666666667,
              "duration": 0.010416666666666666
            },
            {
              "pitch": 40,
              "velocity": 113,
              "position": 1.5104166666666667,
              "duration": 0.010416666666666666
            },
            {
              "pitch": 54,
              "velocity": 79,
              "position": 1.5104166666666667,
              "duration": 0.010416666666666666
            },
            {
              "pitch": 54,
              "velocity": 36,
              "position": 1.7395833333333333,
              "duration": 0.010416666666666666
            },
            {
              "pitch": 40,
              "velocity": 29,
              "position": 1.75,
              "duration": 0.010416666666666666
            },
            {
              "pitch": 54,
              "velocity": 68,
              "position": 1.9895833333333333,
              "duration": 0.010416666666666666
            },
            {
              "pitch": 36,
              "velocity": 115,
              "position": 2,
              "duration": 0.010416666666666666
            },
            {
              "pitch": 40,
              "velocity": 37,
              "position": 2,
              "duration": 0.010416666666666666
            },
            {
              "pitch": 54,
              "velocity": 36,
              "position": 2.2395833333333335,
              "duration": 0.010416666666666666
            },
            {
              "pitch": 40,
              "velocity": 30,
              "position": 2.25,
              "duration": 0.010416666666666666
            },
            {
              "pitch": 54,
              "velocity": 79,
              "position": 2.4895833333333335,
              "duration": 0.010416666666666666
            },
            {
              "pitch": 40,
              "velocity": 113,
              "position": 2.5,
              "duration": 0.010416666666666666
            },
            {
              "pitch": 54,
              "velocity": 38,
              "position": 2.7395833333333335,
              "duration": 0.010416666666666666
            },
            {
              "pitch": 40,
              "velocity": 30,
              "position": 2.75,
              "duration": 0.010416666666666666
            },
            {
              "pitch": 54,
              "velocity": 68,
              "position": 2.9895833333333335,
              "duration": 0.010416666666666666
            },
            {
              "pitch": 40,
              "velocity": 39,
              "position": 2.9895833333333335,
              "duration": 0.010416666666666666
            },
            {
              "pitch": 36,
              "velocity": 115,
              "position": 3,
              "duration": 0.010416666666666666
            },
            {
              "pitch": 54,
              "velocity": 38,
              "position": 3.2395833333333335,
              "duration": 0.010416666666666666
            },
            {
              "pitch": 40,
              "velocity": 36,
              "position": 3.25,
              "duration": 0.010416666666666666
            },
            {
              "pitch": 38,
              "velocity": 96,
              "position": 3.2604166666666665,
              "duration": 0.010416666666666666
            },
            {
              "pitch": 40,
              "velocity": 50,
              "position": 3.3854166666666665,
              "duration": 0.010416666666666666
            },
            {
              "pitch": 54,
              "velocity": 80,
              "position": 3.4895833333333335,
              "duration": 0.010416666666666666
            },
            {
              "pitch": 40,
              "velocity": 113,
              "position": 3.5,
              "duration": 0.010416666666666666
            },
            {
              "pitch": 54,
              "velocity": 34,
              "position": 3.75,
              "duration": 0.010416666666666666
            },
            {
              "pitch": 38,
              "velocity": 91,
              "position": 3.75,
              "duration": 0.010416666666666666
            },
            {
              "pitch": 40,
              "velocity": 41,
              "position": 3.75,
              "duration": 0.010416666666666666
            },
            {
              "pitch": 36,
              "velocity": 115,
              "position": 4,
              "duration": 0.010416666666666666
            },
            {
              "pitch": 40,
              "velocity": 39,
              "position": 4.010416666666667,
              "duration": 0.010416666666666666
            },
            {
              "pitch": 54,
              "velocity": 70,
              "position": 4.010416666666667,
              "duration": 0.010416666666666666
            },
            {
              "pitch": 40,
              "velocity": 32,
              "position": 4.25,
              "duration": 0.010416666666666666
            },
            {
              "pitch": 54,
              "velocity": 36,
              "position": 4.25,
              "duration": 0.010416666666666666
            },
            {
              "pitch": 49,
              "velocity": 71,
              "position": 4.5,
              "duration": 0.010416666666666666
            },
            {
              "pitch": 40,
              "velocity": 113,
              "position": 4.5,
              "duration": 0.010416666666666666
            },
            {
              "pitch": 54,
              "velocity": 82,
              "position": 4.510416666666667,
              "duration": 0.010416666666666666
            },
            {
              "pitch": 40,
              "velocity": 31,
              "position": 4.75,
              "duration": 0.010416666666666666
            },
            {
              "pitch": 54,
              "velocity": 36,
              "position": 4.75,
              "duration": 0.010416666666666666
            },
            {
              "pitch": 36,
              "velocity": 115,
              "position": 5,
              "duration": 0.010416666666666666
            },
            {
              "pitch": 40,
              "velocity": 39,
              "position": 5,
              "duration": 0.010416666666666666
            },
            {
              "pitch": 54,
              "velocity": 68,
              "position": 5,
              "duration": 0.010416666666666666
            },
            {
              "pitch": 54,
              "velocity": 38,
              "position": 5.25,
              "duration": 0.010416666666666666
            },
            {
              "pitch": 40,
              "velocity": 30,
              "position": 5.260416666666667,
              "duration": 0.010416666666666666
            },
            {
              "pitch": 40,
              "velocity": 113,
              "position": 5.5,
              "duration": 0.010416666666666666
            },
            {
              "pitch": 54,
              "velocity": 79,
              "position": 5.510416666666667,
              "duration": 0.010416666666666666
            },
            {
              "pitch": 54,
              "velocity": 36,
              "position": 5.739583333333333,
              "duration": 0.010416666666666666
            },
            {
              "pitch": 40,
              "velocity": 31,
              "position": 5.760416666666667,
              "duration": 0.010416666666666666
            },
            {
              "pitch": 54,
              "velocity": 68,
              "position": 5.989583333333333,
              "duration": 0.010416666666666666
            },
            {
              "pitch": 36,
              "velocity": 115,
              "position": 6,
              "duration": 0.010416666666666666
            },
            {
              "pitch": 40,
              "velocity": 43,
              "position": 6.010416666666667,
              "duration": 0.010416666666666666
            },
            {
              "pitch": 54,
              "velocity": 36,
              "position": 6.239583333333333,
              "duration": 0.010416666666666666
            },
            {
              "pitch": 40,
              "velocity": 30,
              "position": 6.260416666666667,
              "duration": 0.010416666666666666
            },
            {
              "pitch": 54,
              "velocity": 79,
              "position": 6.489583333333333,
              "duration": 0.010416666666666666
            },
            {
              "pitch": 40,
              "velocity": 113,
              "position": 6.510416666666667,
              "duration": 0.010416666666666666
            },
            {
              "pitch": 54,
              "velocity": 38,
              "position": 6.739583333333333,
              "duration": 0.010416666666666666
            },
            {
              "pitch": 40,
              "velocity": 41,
              "position": 6.760416666666667,
              "duration": 0.010416666666666666
            },
            {
              "pitch": 54,
              "velocity": 68,
              "position": 6.989583333333333,
              "duration": 0.010416666666666666
            },
            {
              "pitch": 36,
              "velocity": 115,
              "position": 7,
              "duration": 0.010416666666666666
            },
            {
              "pitch": 40,
              "velocity": 26,
              "position": 7.020833333333333,
              "duration": 0.010416666666666666
            },
            {
              "pitch": 54,
              "velocity": 38,
              "position": 7.239583333333333,
              "duration": 0.010416666666666666
            },
            {
              "pitch": 40,
              "velocity": 34,
              "position": 7.260416666666667,
              "duration": 0.010416666666666666
            },
            {
              "pitch": 54,
              "velocity": 80,
              "position": 7.489583333333333,
              "duration": 0.010416666666666666
            },
            {
              "pitch": 40,
              "velocity": 113,
              "position": 7.510416666666667,
              "duration": 0.010416666666666666
            },
            {
              "pitch": 54,
              "velocity": 34,
              "position": 7.75,
              "duration": 0.010416666666666666
            },
            {
              "pitch": 40,
              "velocity": 34,
              "position": 7.760416666666667,
              "duration": 0.010416666666666666
            },
            {
              "pitch": 38,
              "velocity": 87,
              "position": 7.760416666666667,
              "duration": 0.010416666666666666
            },
            {
              "pitch": 36,
              "velocity": 115,
              "position": 8,
              "duration": 0.010416666666666666
            },
            {
              "pitch": 54,
              "velocity": 70,
              "position": 8.010416666666666,
              "duration": 0.010416666666666666
            },
            {
              "pitch": 40,
              "velocity": 41,
              "position": 8.010416666666666,
              "duration": 0.010416666666666666
            },
            {
              "pitch": 54,
              "velocity": 36,
              "position": 8.25,
              "duration": 0.010416666666666666
            },
            {
              "pitch": 40,
              "velocity": 31,
              "position": 8.260416666666666,
              "duration": 0.010416666666666666
            },
            {
              "pitch": 54,
              "velocity": 82,
              "position": 8.510416666666666,
              "duration": 0.010416666666666666
            },
            {
              "pitch": 40,
              "velocity": 113,
              "position": 8.510416666666666,
              "duration": 0.010416666666666666
            },
            {
              "pitch": 54,
              "velocity": 36,
              "position": 8.75,
              "duration": 0.010416666666666666
            },
            {
              "pitch": 40,
              "velocity": 33,
              "position": 8.760416666666666,
              "duration": 0.010416666666666666
            },
            {
              "pitch": 36,
              "velocity": 115,
              "position": 9,
              "duration": 0.010416666666666666
            },
            {
              "pitch": 54,
              "velocity": 68,
              "position": 9,
              "duration": 0.010416666666666666
            },
            {
              "pitch": 40,
              "velocity": 45,
              "position": 9.010416666666666,
              "duration": 0.010416666666666666
            },
            {
              "pitch": 54,
              "velocity": 38,
              "position": 9.25,
              "duration": 0.010416666666666666
            },
            {
              "pitch": 40,
              "velocity": 90,
              "position": 9.260416666666666,
              "duration": 0.010416666666666666
            },
            {
              "pitch": 54,
              "velocity": 79,
              "position": 9.510416666666666,
              "duration": 0.010416666666666666
            },
            {
              "pitch": 40,
              "velocity": 117,
              "position": 9.510416666666666,
              "duration": 0.010416666666666666
            },
            {
              "pitch": 54,
              "velocity": 36,
              "position": 9.739583333333334,
              "duration": 0.010416666666666666
            },
            {
              "pitch": 36,
              "velocity": 94,
              "position": 9.75,
              "duration": 0.010416666666666666
            },
            {
              "pitch": 40,
              "velocity": 26,
              "position": 9.770833333333334,
              "duration": 0.010416666666666666
            },
            {
              "pitch": 38,
              "velocity": 94,
              "position": 9.989583333333334,
              "duration": 0.010416666666666666
            },
            {
              "pitch": 40,
              "velocity": 119,
              "position": 10.03125,
              "duration": 0.010416666666666666
            },
            {
              "pitch": 47,
              "velocity": 75,
              "position": 10.260416666666666,
              "duration": 0.010416666666666666
            },
            {
              "pitch": 47,
              "velocity": 73,
              "position": 10.489583333333334,
              "duration": 0.010416666666666666
            },
            {
              "pitch": 43,
              "velocity": 100,
              "position": 10.520833333333334,
              "duration": 0.010416666666666666
            },
            {
              "pitch": 36,
              "velocity": 115,
              "position": 11,
              "duration": 0.010416666666666666
            },
            {
              "pitch": 57,
              "velocity": 69,
              "position": 11.010416666666666,
              "duration": 0.010416666666666666
            }
          ]
        },
        "10": {
          "ctab": {
            "srcChannel": 10,
            "name": "Track 11",
            "accType": "BASS",
            "editable": false,
            "mutedNotes": [],
            "mutedChords": [],
            "autoStart": false,
            "sourceChordNote": 0,
            "sourceChordType": "Maj7",
            "ctb2Low": null,
            "ctb2Main": {
              "ntr": "ROOT_TRANSPOSITION",
              "ntt": "MELODIC_MINOR",
              "bassOn": false,
              "chordRootUpperLimit": 3,
              "noteLowLimit": 28,
              "noteHighLimit": 127,
              "rtr": "PITCH_SHIFT"
            },
            "ctb2High": null
          },
          "notes": [
            {
              "pitch": 36,
              "velocity": 119,
              "position": 0,
              "duration": 0.4895833333333333
            },
            {
              "pitch": 36,
              "velocity": 94,
              "position": 0.75,
              "duration": 0.052083333333333336
            },
            {
              "pitch": 31,
              "velocity": 120,
              "position": 1,
              "duration": 0.4583333333333333
            },
            {
              "pitch": 31,
              "velocity": 90,
              "position": 1.75,
              "duration": 0.041666666666666664
            },
            {
              "pitch": 36,
              "velocity": 109,
              "position": 2,
              "duration": 0.2604166666666667
            },
            {
              "pitch": 40,
              "velocity": 124,
              "position": 2.25,
              "duration": 0.71875
            },
            {
              "pitch": 29,
              "velocity": 110,
              "position": 3,
              "duration": 0.4791666666666667
            },
            {
              "pitch": 30,
              "velocity": 120,
              "position": 3.5,
              "duration": 0.4791666666666667
            },
            {
              "pitch": 31,
              "velocity": 115,
              "position": 4,
              "duration": 0.5416666666666666
            },
            {
              "pitch": 31,
              "velocity": 88,
              "position": 4.75,
              "duration": 0.03125
            },
            {
              "pitch": 38,
              "velocity": 119,
              "position": 5,
              "duration": 0.46875
            },
            {
              "pitch": 38,
              "velocity": 85,
              "position": 5.75,
              "duration": 0.052083333333333336
            },
            {
              "pitch": 31,
              "velocity": 114,
              "position": 6,
              "duration": 0.4895833333333333
            },
            {
              "pitch": 31,
              "velocity": 88,
              "position": 6.75,
              "duration": 0.0625
            },
            {
              "pitch": 38,
              "velocity": 118,
              "position": 7,
              "duration": 0.4791666666666667
            },
            {
              "pitch": 35,
              "velocity": 110,
              "position": 7.5,
              "duration": 0.4270833333333333
            },
            {
              "pitch": 36,
              "velocity": 114,
              "position": 8,
              "duration": 0.4895833333333333
            },
            {
              "pitch": 36,
              "velocity": 89,
              "position": 8.75,
              "duration": 0.03125
            },
            {
              "pitch": 31,
              "velocity": 124,
              "position": 9,
              "duration": 0.4895833333333333
            },
            {
              "pitch": 31,
              "velocity": 89,
              "position": 9.75,
              "duration": 0.03125
            },
            {
              "pitch": 36,
              "velocity": 114,
              "position": 10,
              "duration": 0.19791666666666666
            },
            {
              "pitch": 35,
              "velocity": 108,
              "position": 10.5,
              "duration": 0.4583333333333333
            },
            {
              "pitch": 36,
              "velocity": 119,
              "position": 11,
              "duration": 4.75
            }
          ]
        },
        "11": {
          "ctab": {
            "srcChannel": 11,
            "name": "Track 12",
            "accType": "CHORD1",
            "editable": false,
            "mutedNotes": [],
            "mutedChords": [],
            "autoStart": false,
            "sourceChordNote": 0,
            "sourceChordType": "Maj7",
            "ctb2Low": null,
            "ctb2Main": {
              "ntr": "ROOT_TRANSPOSITION",
              "ntt": "MELODIC_MINOR",
              "bassOn": false,
              "chordRootUpperLimit": 6,
              "noteLowLimit": 0,
              "noteHighLimit": 127,
              "rtr": "PITCH_SHIFT"
            },
            "ctb2High": null
          },
          "notes": [
            {
              "pitch": 55,
              "velocity": 94,
              "position": 0.010416666666666666,
              "duration": 0.22916666666666666
            },
            {
              "pitch": 60,
              "velocity": 94,
              "position": 0.03125,
              "duration": 0.22916666666666666
            },
            {
              "pitch": 64,
              "velocity": 94,
              "position": 0.052083333333333336,
              "duration": 0.22916666666666666
            },
            {
              "pitch": 55,
              "velocity": 88,
              "position": 0.2604166666666667,
              "duration": 0.22916666666666666
            },
            {
              "pitch": 60,
              "velocity": 88,
              "position": 0.28125,
              "duration": 0.22916666666666666
            },
            {
              "pitch": 64,
              "velocity": 88,
              "position": 0.3020833333333333,
              "duration": 0.22916666666666666
            },
            {
              "pitch": 55,
              "velocity": 116,
              "position": 0.5104166666666666,
              "duration": 0.09375
            },
            {
              "pitch": 60,
              "velocity": 116,
              "position": 0.53125,
              "duration": 0.09375
            },
            {
              "pitch": 64,
              "velocity": 116,
              "position": 0.5520833333333334,
              "duration": 0.09375
            },
            {
              "pitch": 55,
              "velocity": 74,
              "position": 0.7604166666666666,
              "duration": 0.22916666666666666
            },
            {
              "pitch": 60,
              "velocity": 83,
              "position": 0.78125,
              "duration": 0.22916666666666666
            },
            {
              "pitch": 64,
              "velocity": 87,
              "position": 0.8020833333333334,
              "duration": 0.22916666666666666
            },
            {
              "pitch": 55,
              "velocity": 102,
              "position": 1.0104166666666667,
              "duration": 0.22916666666666666
            },
            {
              "pitch": 60,
              "velocity": 102,
              "position": 1.03125,
              "duration": 0.22916666666666666
            },
            {
              "pitch": 64,
              "velocity": 102,
              "position": 1.0520833333333333,
              "duration": 0.22916666666666666
            },
            {
              "pitch": 55,
              "velocity": 77,
              "position": 1.2604166666666667,
              "duration": 0.22916666666666666
            },
            {
              "pitch": 60,
              "velocity": 77,
              "position": 1.28125,
              "duration": 0.22916666666666666
            },
            {
              "pitch": 64,
              "velocity": 77,
              "position": 1.3020833333333333,
              "duration": 0.22916666666666666
            },
            {
              "pitch": 55,
              "velocity": 112,
              "position": 1.5104166666666667,
              "duration": 0.21875
            },
            {
              "pitch": 60,
              "velocity": 112,
              "position": 1.53125,
              "duration": 0.21875
            },
            {
              "pitch": 64,
              "velocity": 112,
              "position": 1.5520833333333333,
              "duration": 0.21875
            },
            {
              "pitch": 55,
              "velocity": 79,
              "position": 1.7604166666666667,
              "duration": 0.22916666666666666
            },
            {
              "pitch": 60,
              "velocity": 83,
              "position": 1.78125,
              "duration": 0.22916666666666666
            },
            {
              "pitch": 64,
              "velocity": 88,
              "position": 1.8020833333333333,
              "duration": 0.22916666666666666
            },
            {
              "pitch": 55,
              "velocity": 104,
              "position": 2.0104166666666665,
              "duration": 0.22916666666666666
            },
            {
              "pitch": 60,
              "velocity": 104,
              "position": 2.03125,
              "duration": 0.22916666666666666
            },
            {
              "pitch": 64,
              "velocity": 104,
              "position": 2.0520833333333335,
              "duration": 0.22916666666666666
            },
            {
              "pitch": 55,
              "velocity": 83,
              "position": 2.2604166666666665,
              "duration": 0.22916666666666666
            },
            {
              "pitch": 60,
              "velocity": 83,
              "position": 2.28125,
              "duration": 0.22916666666666666
            },
            {
              "pitch": 64,
              "velocity": 83,
              "position": 2.3020833333333335,
              "duration": 0.22916666666666666
            },
            {
              "pitch": 55,
              "velocity": 103,
              "position": 2.5104166666666665,
              "duration": 0.22916666666666666
            },
            {
              "pitch": 60,
              "velocity": 103,
              "position": 2.53125,
              "duration": 0.22916666666666666
            },
            {
              "pitch": 64,
              "velocity": 103,
              "position": 2.5520833333333335,
              "duration": 0.22916666666666666
            },
            {
              "pitch": 55,
              "velocity": 105,
              "position": 2.7604166666666665,
              "duration": 0.46875
            },
            {
              "pitch": 60,
              "velocity": 105,
              "position": 2.78125,
              "duration": 0.46875
            },
            {
              "pitch": 64,
              "velocity": 105,
              "position": 2.8020833333333335,
              "duration": 0.46875
            },
            {
              "pitch": 55,
              "velocity": 82,
              "position": 3.2604166666666665,
              "duration": 0.22916666666666666
            },
            {
              "pitch": 60,
              "velocity": 85,
              "position": 3.28125,
              "duration": 0.22916666666666666
            },
            {
              "pitch": 64,
              "velocity": 91,
              "position": 3.3020833333333335,
              "duration": 0.22916666666666666
            },
            {
              "pitch": 55,
              "velocity": 104,
              "position": 3.5104166666666665,
              "duration": 0.22916666666666666
            },
            {
              "pitch": 60,
              "velocity": 104,
              "position": 3.53125,
              "duration": 0.22916666666666666
            },
            {
              "pitch": 64,
              "velocity": 105,
              "position": 3.5520833333333335,
              "duration": 0.22916666666666666
            },
            {
              "pitch": 55,
              "velocity": 87,
              "position": 3.7604166666666665,
              "duration": 0.08333333333333333
            },
            {
              "pitch": 60,
              "velocity": 87,
              "position": 3.78125,
              "duration": 0.0625
            },
            {
              "pitch": 64,
              "velocity": 87,
              "position": 3.8020833333333335,
              "duration": 0.041666666666666664
            },
            {
              "pitch": 55,
              "velocity": 91,
              "position": 4.010416666666667,
              "duration": 0.22916666666666666
            },
            {
              "pitch": 59,
              "velocity": 91,
              "position": 4.03125,
              "duration": 0.22916666666666666
            },
            {
              "pitch": 62,
              "velocity": 104,
              "position": 4.052083333333333,
              "duration": 0.22916666666666666
            },
            {
              "pitch": 55,
              "velocity": 87,
              "position": 4.260416666666667,
              "duration": 0.22916666666666666
            },
            {
              "pitch": 59,
              "velocity": 87,
              "position": 4.28125,
              "duration": 0.22916666666666666
            },
            {
              "pitch": 62,
              "velocity": 87,
              "position": 4.302083333333333,
              "duration": 0.22916666666666666
            },
            {
              "pitch": 55,
              "velocity": 108,
              "position": 4.510416666666667,
              "duration": 0.22916666666666666
            },
            {
              "pitch": 59,
              "velocity": 108,
              "position": 4.53125,
              "duration": 0.22916666666666666
            },
            {
              "pitch": 62,
              "velocity": 108,
              "position": 4.552083333333333,
              "duration": 0.22916666666666666
            },
            {
              "pitch": 55,
              "velocity": 96,
              "position": 4.760416666666667,
              "duration": 0.20833333333333334
            },
            {
              "pitch": 59,
              "velocity": 95,
              "position": 4.78125,
              "duration": 0.19791666666666666
            },
            {
              "pitch": 62,
              "velocity": 94,
              "position": 4.802083333333333,
              "duration": 0.1875
            },
            {
              "pitch": 55,
              "velocity": 92,
              "position": 5.020833333333333,
              "duration": 0.20833333333333334
            },
            {
              "pitch": 59,
              "velocity": 101,
              "position": 5.03125,
              "duration": 0.21875
            },
            {
              "pitch": 55,
              "velocity": 91,
              "position": 5.260416666666667,
              "duration": 0.22916666666666666
            },
            {
              "pitch": 59,
              "velocity": 91,
              "position": 5.28125,
              "duration": 0.22916666666666666
            },
            {
              "pitch": 62,
              "velocity": 91,
              "position": 5.302083333333333,
              "duration": 0.22916666666666666
            },
            {
              "pitch": 55,
              "velocity": 108,
              "position": 5.510416666666667,
              "duration": 0.22916666666666666
            },
            {
              "pitch": 59,
              "velocity": 108,
              "position": 5.53125,
              "duration": 0.22916666666666666
            },
            {
              "pitch": 62,
              "velocity": 108,
              "position": 5.552083333333333,
              "duration": 0.22916666666666666
            },
            {
              "pitch": 55,
              "velocity": 80,
              "position": 5.760416666666667,
              "duration": 0.22916666666666666
            },
            {
              "pitch": 59,
              "velocity": 85,
              "position": 5.78125,
              "duration": 0.22916666666666666
            },
            {
              "pitch": 62,
              "velocity": 93,
              "position": 5.802083333333333,
              "duration": 0.22916666666666666
            },
            {
              "pitch": 55,
              "velocity": 106,
              "position": 6.010416666666667,
              "duration": 0.22916666666666666
            },
            {
              "pitch": 59,
              "velocity": 106,
              "position": 6.03125,
              "duration": 0.22916666666666666
            },
            {
              "pitch": 62,
              "velocity": 105,
              "position": 6.052083333333333,
              "duration": 0.22916666666666666
            },
            {
              "pitch": 55,
              "velocity": 78,
              "position": 6.260416666666667,
              "duration": 0.22916666666666666
            },
            {
              "pitch": 59,
              "velocity": 85,
              "position": 6.28125,
              "duration": 0.22916666666666666
            },
            {
              "pitch": 62,
              "velocity": 78,
              "position": 6.302083333333333,
              "duration": 0.22916666666666666
            },
            {
              "pitch": 55,
              "velocity": 112,
              "position": 6.510416666666667,
              "duration": 0.09375
            },
            {
              "pitch": 59,
              "velocity": 112,
              "position": 6.53125,
              "duration": 0.09375
            },
            {
              "pitch": 62,
              "velocity": 112,
              "position": 6.552083333333333,
              "duration": 0.09375
            },
            {
              "pitch": 55,
              "velocity": 89,
              "position": 6.760416666666667,
              "duration": 0.22916666666666666
            },
            {
              "pitch": 59,
              "velocity": 89,
              "position": 6.78125,
              "duration": 0.22916666666666666
            },
            {
              "pitch": 62,
              "velocity": 89,
              "position": 6.802083333333333,
              "duration": 0.22916666666666666
            },
            {
              "pitch": 55,
              "velocity": 91,
              "position": 7.010416666666667,
              "duration": 0.22916666666666666
            },
            {
              "pitch": 59,
              "velocity": 91,
              "position": 7.03125,
              "duration": 0.22916666666666666
            },
            {
              "pitch": 62,
              "velocity": 104,
              "position": 7.052083333333333,
              "duration": 0.22916666666666666
            },
            {
              "pitch": 55,
              "velocity": 80,
              "position": 7.260416666666667,
              "duration": 0.22916666666666666
            },
            {
              "pitch": 59,
              "velocity": 87,
              "position": 7.28125,
              "duration": 0.22916666666666666
            },
            {
              "pitch": 62,
              "velocity": 91,
              "position": 7.302083333333333,
              "duration": 0.22916666666666666
            },
            {
              "pitch": 55,
              "velocity": 110,
              "position": 7.510416666666667,
              "duration": 0.22916666666666666
            },
            {
              "pitch": 59,
              "velocity": 110,
              "position": 7.53125,
              "duration": 0.22916666666666666
            },
            {
              "pitch": 62,
              "velocity": 110,
              "position": 7.552083333333333,
              "duration": 0.22916666666666666
            },
            {
              "pitch": 55,
              "velocity": 74,
              "position": 7.760416666666667,
              "duration": 0.08333333333333333
            },
            {
              "pitch": 59,
              "velocity": 80,
              "position": 7.78125,
              "duration": 0.0625
            },
            {
              "pitch": 62,
              "velocity": 85,
              "position": 7.802083333333333,
              "duration": 0.041666666666666664
            },
            {
              "pitch": 55,
              "velocity": 102,
              "position": 8.010416666666666,
              "duration": 0.22916666666666666
            },
            {
              "pitch": 60,
              "velocity": 102,
              "position": 8.03125,
              "duration": 0.22916666666666666
            },
            {
              "pitch": 64,
              "velocity": 102,
              "position": 8.052083333333334,
              "duration": 0.22916666666666666
            },
            {
              "pitch": 55,
              "velocity": 82,
              "position": 8.260416666666666,
              "duration": 0.22916666666666666
            },
            {
              "pitch": 60,
              "velocity": 82,
              "position": 8.28125,
              "duration": 0.22916666666666666
            },
            {
              "pitch": 64,
              "velocity": 81,
              "position": 8.302083333333334,
              "duration": 0.22916666666666666
            },
            {
              "pitch": 55,
              "velocity": 96,
              "position": 8.510416666666666,
              "duration": 0.22916666666666666
            },
            {
              "pitch": 60,
              "velocity": 96,
              "position": 8.53125,
              "duration": 0.22916666666666666
            },
            {
              "pitch": 64,
              "velocity": 97,
              "position": 8.552083333333334,
              "duration": 0.22916666666666666
            },
            {
              "pitch": 55,
              "velocity": 98,
              "position": 8.760416666666666,
              "duration": 0.4583333333333333
            },
            {
              "pitch": 60,
              "velocity": 98,
              "position": 8.78125,
              "duration": 0.4583333333333333
            },
            {
              "pitch": 64,
              "velocity": 98,
              "position": 8.802083333333334,
              "duration": 0.4583333333333333
            },
            {
              "pitch": 55,
              "velocity": 87,
              "position": 9.260416666666666,
              "duration": 0.22916666666666666
            },
            {
              "pitch": 60,
              "velocity": 87,
              "position": 9.28125,
              "duration": 0.22916666666666666
            },
            {
              "pitch": 64,
              "velocity": 87,
              "position": 9.302083333333334,
              "duration": 0.22916666666666666
            },
            {
              "pitch": 55,
              "velocity": 109,
              "position": 9.510416666666666,
              "duration": 0.3854166666666667
            },
            {
              "pitch": 60,
              "velocity": 110,
              "position": 9.53125,
              "duration": 0.3854166666666667
            },
            {
              "pitch": 64,
              "velocity": 110,
              "position": 9.552083333333334,
              "duration": 0.3854166666666667
            },
            {
              "pitch": 55,
              "velocity": 93,
              "position": 9.979166666666666,
              "duration": 0.4791666666666667
            },
            {
              "pitch": 60,
              "velocity": 93,
              "position": 10,
              "duration": 0.4791666666666667
            },
            {
              "pitch": 64,
              "velocity": 93,
              "position": 10.03125,
              "duration": 0.4791666666666667
            },
            {
              "pitch": 55,
              "velocity": 101,
              "position": 11.03125,
              "duration": 4.822916666666667
            },
            {
              "pitch": 60,
              "velocity": 101,
              "position": 11.052083333333334,
              "duration": 4.822916666666667
            },
            {
              "pitch": 64,
              "velocity": 100,
              "position": 11.072916666666666,
              "duration": 4.822916666666667
            }
          ]
        },
        "12": {
          "ctab": {
            "srcChannel": 12,
            "name": "Track 13",
            "accType": "CHORD2",
            "editable": false,
            "mutedNotes": [],
            "mutedChords": [],
            "autoStart": false,
            "sourceChordNote": 0,
            "sourceChordType": "Maj7",
            "ctb2Low": null,
            "ctb2Main": {
              "ntr": "ROOT_TRANSPOSITION",
              "ntt": "MELODIC_MINOR",
              "bassOn": false,
              "chordRootUpperLimit": 6,
              "noteLowLimit": 0,
              "noteHighLimit": 79,
              "rtr": "STOP"
            },
            "ctb2High": null
          },
          "notes": [
            {
              "pitch": 55,
              "velocity": 91,
              "position": 0,
              "duration": 0.14583333333333334
            },
            {
              "pitch": 48,
              "velocity": 85,
              "position": 0,
              "duration": 0.16666666666666666
            },
            {
              "pitch": 48,
              "velocity": 61,
              "position": 0.2604166666666667,
              "duration": 0.11458333333333333
            },
            {
              "pitch": 55,
              "velocity": 69,
              "position": 0.2604166666666667,
              "duration": 0.125
            },
            {
              "pitch": 84,
              "velocity": 81,
              "position": 0.28125,
              "duration": 0.125
            },
            {
              "pitch": 79,
              "velocity": 102,
              "position": 0.2708333333333333,
              "duration": 0.15625
            },
            {
              "pitch": 78,
              "velocity": 100,
              "position": 0.4895833333333333,
              "duration": 0.15625
            },
            {
              "pitch": 48,
              "velocity": 73,
              "position": 0.5,
              "duration": 0.14583333333333334
            },
            {
              "pitch": 57,
              "velocity": 91,
              "position": 0.5,
              "duration": 0.15625
            },
            {
              "pitch": 84,
              "velocity": 66,
              "position": 0.5,
              "duration": 0.15625
            },
            {
              "pitch": 84,
              "velocity": 76,
              "position": 0.75,
              "duration": 0.11458333333333333
            },
            {
              "pitch": 48,
              "velocity": 62,
              "position": 0.7604166666666666,
              "duration": 0.11458333333333333
            },
            {
              "pitch": 77,
              "velocity": 90,
              "position": 0.7395833333333334,
              "duration": 0.14583333333333334
            },
            {
              "pitch": 57,
              "velocity": 75,
              "position": 0.75,
              "duration": 0.14583333333333334
            },
            {
              "pitch": 75,
              "velocity": 96,
              "position": 1,
              "duration": 0.10416666666666667
            },
            {
              "pitch": 55,
              "velocity": 90,
              "position": 1.0104166666666667,
              "duration": 0.13541666666666666
            },
            {
              "pitch": 48,
              "velocity": 73,
              "position": 1.0104166666666667,
              "duration": 0.15625
            },
            {
              "pitch": 84,
              "velocity": 60,
              "position": 1.0104166666666667,
              "duration": 0.15625
            },
            {
              "pitch": 79,
              "velocity": 64,
              "position": 1.03125,
              "duration": 0.20833333333333334
            },
            {
              "pitch": 76,
              "velocity": 78,
              "position": 1.125,
              "duration": 0.16666666666666666
            },
            {
              "pitch": 72,
              "velocity": 84,
              "position": 1.2604166666666667,
              "duration": 0.10416666666666667
            },
            {
              "pitch": 55,
              "velocity": 69,
              "position": 1.2604166666666667,
              "duration": 0.11458333333333333
            },
            {
              "pitch": 48,
              "velocity": 60,
              "position": 1.2604166666666667,
              "duration": 0.11458333333333333
            },
            {
              "pitch": 57,
              "velocity": 93,
              "position": 1.5,
              "duration": 0.14583333333333334
            },
            {
              "pitch": 48,
              "velocity": 70,
              "position": 1.4895833333333333,
              "duration": 0.16666666666666666
            },
            {
              "pitch": 76,
              "velocity": 90,
              "position": 1.4895833333333333,
              "duration": 0.23958333333333334
            },
            {
              "pitch": 48,
              "velocity": 60,
              "position": 1.7708333333333333,
              "duration": 0.11458333333333333
            },
            {
              "pitch": 57,
              "velocity": 74,
              "position": 1.7708333333333333,
              "duration": 0.125
            },
            {
              "pitch": 76,
              "velocity": 14,
              "position": 1.8333333333333333,
              "duration": 0.11458333333333333
            },
            {
              "pitch": 74,
              "velocity": 19,
              "position": 1.8541666666666667,
              "duration": 0.09375
            },
            {
              "pitch": 69,
              "velocity": 99,
              "position": 1.4895833333333333,
              "duration": 0.46875
            },
            {
              "pitch": 63,
              "velocity": 105,
              "position": 1.7604166666666667,
              "duration": 0.22916666666666666
            },
            {
              "pitch": 55,
              "velocity": 85,
              "position": 2.0104166666666665,
              "duration": 0.16666666666666666
            },
            {
              "pitch": 64,
              "velocity": 83,
              "position": 2,
              "duration": 0.25
            },
            {
              "pitch": 48,
              "velocity": 65,
              "position": 2,
              "duration": 0.3125
            },
            {
              "pitch": 57,
              "velocity": 84,
              "position": 2.2604166666666665,
              "duration": 0.11458333333333333
            },
            {
              "pitch": 72,
              "velocity": 91,
              "position": 2.2708333333333335,
              "duration": 0.13541666666666666
            },
            {
              "pitch": 67,
              "velocity": 100,
              "position": 2.2708333333333335,
              "duration": 0.14583333333333334
            },
            {
              "pitch": 72,
              "velocity": 89,
              "position": 2.4895833333333335,
              "duration": 0.20833333333333334
            },
            {
              "pitch": 69,
              "velocity": 99,
              "position": 2.5,
              "duration": 0.19791666666666666
            },
            {
              "pitch": 40,
              "velocity": 94,
              "position": 2.53125,
              "duration": 0.28125
            },
            {
              "pitch": 50,
              "velocity": 70,
              "position": 2.8125,
              "duration": 0.020833333333333332
            },
            {
              "pitch": 64,
              "velocity": 73,
              "position": 2.75,
              "duration": 0.14583333333333334
            },
            {
              "pitch": 52,
              "velocity": 80,
              "position": 2.7916666666666665,
              "duration": 0.13541666666666666
            },
            {
              "pitch": 67,
              "velocity": 98,
              "position": 3.0104166666666665,
              "duration": 0.16666666666666666
            },
            {
              "pitch": 41,
              "velocity": 94,
              "position": 3,
              "duration": 0.25
            },
            {
              "pitch": 53,
              "velocity": 88,
              "position": 3.2604166666666665,
              "duration": 0.17708333333333334
            },
            {
              "pitch": 69,
              "velocity": 86,
              "position": 3.2395833333333335,
              "duration": 0.25
            },
            {
              "pitch": 72,
              "velocity": 86,
              "position": 3.0104166666666665,
              "duration": 0.4895833333333333
            },
            {
              "pitch": 42,
              "velocity": 100,
              "position": 3.5104166666666665,
              "duration": 0.2916666666666667
            },
            {
              "pitch": 81,
              "velocity": 82,
              "position": 3.78125,
              "duration": 0.09375
            },
            {
              "pitch": 54,
              "velocity": 76,
              "position": 3.7604166666666665,
              "duration": 0.17708333333333334
            },
            {
              "pitch": 82,
              "velocity": 85,
              "position": 3.875,
              "duration": 0.15625
            },
            {
              "pitch": 50,
              "velocity": 87,
              "position": 4,
              "duration": 0.14583333333333334
            },
            {
              "pitch": 43,
              "velocity": 91,
              "position": 3.9895833333333335,
              "duration": 0.17708333333333334
            },
            {
              "pitch": 83,
              "velocity": 94,
              "position": 4,
              "duration": 0.25
            },
            {
              "pitch": 50,
              "velocity": 67,
              "position": 4.260416666666667,
              "duration": 0.10416666666666667
            },
            {
              "pitch": 43,
              "velocity": 66,
              "position": 4.270833333333333,
              "duration": 0.11458333333333333
            },
            {
              "pitch": 43,
              "velocity": 81,
              "position": 4.510416666666667,
              "duration": 0.125
            },
            {
              "pitch": 52,
              "velocity": 98,
              "position": 4.510416666666667,
              "duration": 0.125
            },
            {
              "pitch": 91,
              "velocity": 97,
              "position": 4.25,
              "duration": 0.46875
            },
            {
              "pitch": 83,
              "velocity": 103,
              "position": 4.489583333333333,
              "duration": 0.28125
            },
            {
              "pitch": 43,
              "velocity": 60,
              "position": 4.75,
              "duration": 0.11458333333333333
            },
            {
              "pitch": 52,
              "velocity": 67,
              "position": 4.739583333333333,
              "duration": 0.13541666666666666
            },
            {
              "pitch": 82,
              "velocity": 91,
              "position": 4.75,
              "duration": 0.2604166666666667
            },
            {
              "pitch": 50,
              "velocity": 90,
              "position": 5.010416666666667,
              "duration": 0.11458333333333333
            },
            {
              "pitch": 43,
              "velocity": 78,
              "position": 5,
              "duration": 0.16666666666666666
            },
            {
              "pitch": 81,
              "velocity": 99,
              "position": 5,
              "duration": 0.3125
            },
            {
              "pitch": 50,
              "velocity": 69,
              "position": 5.25,
              "duration": 0.11458333333333333
            },
            {
              "pitch": 43,
              "velocity": 61,
              "position": 5.260416666666667,
              "duration": 0.11458333333333333
            },
            {
              "pitch": 43,
              "velocity": 85,
              "position": 5.5,
              "duration": 0.125
            },
            {
              "pitch": 52,
              "velocity": 95,
              "position": 5.510416666666667,
              "duration": 0.11458333333333333
            },
            {
              "pitch": 81,
              "velocity": 107,
              "position": 5.510416666666667,
              "duration": 0.2916666666666667
            },
            {
              "pitch": 89,
              "velocity": 99,
              "position": 5.260416666666667,
              "duration": 0.5520833333333334
            },
            {
              "pitch": 43,
              "velocity": 64,
              "position": 5.75,
              "duration": 0.125
            },
            {
              "pitch": 52,
              "velocity": 74,
              "position": 5.760416666666667,
              "duration": 0.11458333333333333
            },
            {
              "pitch": 80,
              "velocity": 87,
              "position": 5.760416666666667,
              "duration": 0.3020833333333333
            },
            {
              "pitch": 50,
              "velocity": 87,
              "position": 6,
              "duration": 0.125
            },
            {
              "pitch": 43,
              "velocity": 77,
              "position": 6,
              "duration": 0.14583333333333334
            },
            {
              "pitch": 79,
              "velocity": 97,
              "position": 6,
              "duration": 0.3020833333333333
            },
            {
              "pitch": 50,
              "velocity": 68,
              "position": 6.25,
              "duration": 0.11458333333333333
            },
            {
              "pitch": 43,
              "velocity": 61,
              "position": 6.260416666666667,
              "duration": 0.11458333333333333
            },
            {
              "pitch": 52,
              "velocity": 92,
              "position": 6.489583333333333,
              "duration": 0.15625
            },
            {
              "pitch": 43,
              "velocity": 78,
              "position": 6.5,
              "duration": 0.14583333333333334
            },
            {
              "pitch": 79,
              "velocity": 100,
              "position": 6.510416666666667,
              "duration": 0.2604166666666667
            },
            {
              "pitch": 43,
              "velocity": 65,
              "position": 6.739583333333333,
              "duration": 0.13541666666666666
            },
            {
              "pitch": 52,
              "velocity": 68,
              "position": 6.75,
              "duration": 0.125
            },
            {
              "pitch": 88,
              "velocity": 91,
              "position": 6.25,
              "duration": 0.65625
            },
            {
              "pitch": 78,
              "velocity": 87,
              "position": 6.75,
              "duration": 0.3333333333333333
            },
            {
              "pitch": 50,
              "velocity": 91,
              "position": 7.010416666666667,
              "duration": 0.11458333333333333
            },
            {
              "pitch": 43,
              "velocity": 76,
              "position": 7,
              "duration": 0.15625
            },
            {
              "pitch": 77,
              "velocity": 89,
              "position": 6.979166666666667,
              "duration": 0.3125
            },
            {
              "pitch": 43,
              "velocity": 59,
              "position": 7.260416666666667,
              "duration": 0.08333333333333333
            },
            {
              "pitch": 50,
              "velocity": 60,
              "position": 7.25,
              "duration": 0.11458333333333333
            },
            {
              "pitch": 76,
              "velocity": 58,
              "position": 7.53125,
              "duration": 0.041666666666666664
            },
            {
              "pitch": 77,
              "velocity": 72,
              "position": 7.5,
              "duration": 0.125
            },
            {
              "pitch": 52,
              "velocity": 95,
              "position": 7.5,
              "duration": 0.14583333333333334
            },
            {
              "pitch": 43,
              "velocity": 95,
              "position": 7.5,
              "duration": 0.17708333333333334
            },
            {
              "pitch": 48,
              "velocity": 70,
              "position": 7.78125,
              "duration": 0.041666666666666664
            },
            {
              "pitch": 43,
              "velocity": 55,
              "position": 7.75,
              "duration": 0.10416666666666667
            },
            {
              "pitch": 50,
              "velocity": 64,
              "position": 7.770833333333333,
              "duration": 0.09375
            },
            {
              "pitch": 86,
              "velocity": 88,
              "position": 7.25,
              "duration": 0.6875
            },
            {
              "pitch": 75,
              "velocity": 108,
              "position": 7.75,
              "duration": 0.23958333333333334
            },
            {
              "pitch": 55,
              "velocity": 101,
              "position": 8,
              "duration": 0.13541666666666666
            },
            {
              "pitch": 48,
              "velocity": 79,
              "position": 8.010416666666666,
              "duration": 0.125
            },
            {
              "pitch": 76,
              "velocity": 82,
              "position": 7.989583333333333,
              "duration": 0.2604166666666667
            },
            {
              "pitch": 48,
              "velocity": 56,
              "position": 8.270833333333334,
              "duration": 0.041666666666666664
            },
            {
              "pitch": 55,
              "velocity": 66,
              "position": 8.239583333333334,
              "duration": 0.10416666666666667
            },
            {
              "pitch": 84,
              "velocity": 87,
              "position": 8.25,
              "duration": 0.15625
            },
            {
              "pitch": 79,
              "velocity": 94,
              "position": 8.260416666666666,
              "duration": 0.14583333333333334
            },
            {
              "pitch": 48,
              "velocity": 85,
              "position": 8.489583333333334,
              "duration": 0.14583333333333334
            },
            {
              "pitch": 57,
              "velocity": 93,
              "position": 8.489583333333334,
              "duration": 0.15625
            },
            {
              "pitch": 81,
              "velocity": 104,
              "position": 8.489583333333334,
              "duration": 0.2604166666666667
            },
            {
              "pitch": 84,
              "velocity": 86,
              "position": 8.5,
              "duration": 0.25
            },
            {
              "pitch": 48,
              "velocity": 60,
              "position": 8.739583333333334,
              "duration": 0.11458333333333333
            },
            {
              "pitch": 57,
              "velocity": 73,
              "position": 8.729166666666666,
              "duration": 0.13541666666666666
            },
            {
              "pitch": 76,
              "velocity": 69,
              "position": 8.739583333333334,
              "duration": 0.14583333333333334
            },
            {
              "pitch": 48,
              "velocity": 79,
              "position": 9.010416666666666,
              "duration": 0.10416666666666667
            },
            {
              "pitch": 55,
              "velocity": 94,
              "position": 9,
              "duration": 0.125
            },
            {
              "pitch": 79,
              "velocity": 99,
              "position": 8.989583333333334,
              "duration": 0.22916666666666666
            },
            {
              "pitch": 48,
              "velocity": 51,
              "position": 9.25,
              "duration": 0.052083333333333336
            },
            {
              "pitch": 55,
              "velocity": 74,
              "position": 9.229166666666666,
              "duration": 0.11458333333333333
            },
            {
              "pitch": 81,
              "velocity": 85,
              "position": 9.25,
              "duration": 0.21875
            },
            {
              "pitch": 75,
              "velocity": 99,
              "position": 9.5,
              "duration": 0.2604166666666667
            },
            {
              "pitch": 76,
              "velocity": 69,
              "position": 9.729166666666666,
              "duration": 0.16666666666666666
            },
            {
              "pitch": 48,
              "velocity": 86,
              "position": 9.489583333333334,
              "duration": 0.4479166666666667
            },
            {
              "pitch": 57,
              "velocity": 95,
              "position": 9.5,
              "duration": 0.4583333333333333
            },
            {
              "pitch": 55,
              "velocity": 86,
              "position": 10.010416666666666,
              "duration": 0.15625
            },
            {
              "pitch": 72,
              "velocity": 99,
              "position": 9.989583333333334,
              "duration": 0.1875
            },
            {
              "pitch": 48,
              "velocity": 87,
              "position": 10.020833333333334,
              "duration": 0.16666666666666666
            },
            {
              "pitch": 84,
              "velocity": 90,
              "position": 8.989583333333334,
              "duration": 1.2291666666666667
            },
            {
              "pitch": 47,
              "velocity": 90,
              "position": 10.510416666666666,
              "duration": 0.4166666666666667
            },
            {
              "pitch": 54,
              "velocity": 95,
              "position": 10.5,
              "duration": 0.4375
            },
            {
              "pitch": 75,
              "velocity": 116,
              "position": 10.5,
              "duration": 0.46875
            },
            {
              "pitch": 83,
              "velocity": 94,
              "position": 10.510416666666666,
              "duration": 0.4791666666666667
            },
            {
              "pitch": 48,
              "velocity": 82,
              "position": 11,
              "duration": 4.65625
            },
            {
              "pitch": 55,
              "velocity": 91,
              "position": 11.010416666666666,
              "duration": 4.65625
            },
            {
              "pitch": 84,
              "velocity": 101,
              "position": 11.010416666666666,
              "duration": 4.895833333333333
            },
            {
              "pitch": 76,
              "velocity": 95,
              "position": 11.010416666666666,
              "duration": 4.90625
            }
          ]
        },
        "13": {
          "ctab": {
            "srcChannel": 13,
            "name": "Track 14",
            "accType": "PAD",
            "editable": false,
            "mutedNotes": [],
            "mutedChords": [],
            "autoStart": false,
            "sourceChordNote": 0,
            "sourceChordType": "Maj7",
            "ctb2Low": null,
            "ctb2Main": {
              "ntr": "ROOT_TRANSPOSITION",
              "ntt": "MELODIC_MINOR",
              "bassOn": false,
              "chordRootUpperLimit": 6,
              "noteLowLimit": 0,
              "noteHighLimit": 127,
              "rtr": "RETRIGGER"
            },
            "ctb2High": null
          },
          "notes": [
            {
              "pitch": 64,
              "velocity": 84,
              "position": 0.041666666666666664,
              "duration": 3.0729166666666665
            },
            {
              "pitch": 60,
              "velocity": 82,
              "position": 0.041666666666666664,
              "duration": 3.0729166666666665
            }
          ]
        },
        "14": {
          "ctab": {
            "srcChannel": 14,
            "name": "Track 15",
            "accType": "PHRASE1",
            "editable": false,
            "mutedNotes": [],
            "mutedChords": [],
            "autoStart": false,
            "sourceChordNote": 0,
            "sourceChordType": "Maj7",
            "ctb2Low": null,
            "ctb2Main": {
              "ntr": "ROOT_TRANSPOSITION",
              "ntt": "MELODIC_MINOR",
              "bassOn": false,
              "chordRootUpperLimit": 6,
              "noteLowLimit": 0,
              "noteHighLimit": 127,
              "rtr": "PITCH_SHIFT"
            },
            "ctb2High": null
          },
          "notes": [
            {
              "pitch": 55,
              "velocity": 98,
              "position": 0.020833333333333332,
              "duration": 0.21875
            },
            {
              "pitch": 60,
              "velocity": 92,
              "position": 0.010416666666666666,
              "duration": 0.23958333333333334
            },
            {
              "pitch": 60,
              "velocity": 87,
              "position": 0.5,
              "duration": 0.17708333333333334
            },
            {
              "pitch": 57,
              "velocity": 107,
              "position": 0.5,
              "duration": 0.19791666666666666
            },
            {
              "pitch": 55,
              "velocity": 107,
              "position": 1.0104166666666667,
              "duration": 0.1875
            },
            {
              "pitch": 60,
              "velocity": 88,
              "position": 1,
              "duration": 0.3541666666666667
            },
            {
              "pitch": 51,
              "velocity": 89,
              "position": 1.2604166666666667,
              "duration": 0.25
            },
            {
              "pitch": 52,
              "velocity": 92,
              "position": 1.5208333333333333,
              "duration": 0.22916666666666666
            },
            {
              "pitch": 60,
              "velocity": 87,
              "position": 1.7708333333333333,
              "duration": 0.4791666666666667
            },
            {
              "pitch": 55,
              "velocity": 104,
              "position": 1.7708333333333333,
              "duration": 0.5625
            },
            {
              "pitch": 48,
              "velocity": 71,
              "position": 2.28125,
              "duration": 0.11458333333333333
            },
            {
              "pitch": 60,
              "velocity": 85,
              "position": 2.5,
              "duration": 0.1875
            },
            {
              "pitch": 57,
              "velocity": 105,
              "position": 2.5104166666666665,
              "duration": 0.1875
            },
            {
              "pitch": 55,
              "velocity": 71,
              "position": 2.78125,
              "duration": 0.11458333333333333
            },
            {
              "pitch": 58,
              "velocity": 98,
              "position": 3.0104166666666665,
              "duration": 0.1875
            },
            {
              "pitch": 60,
              "velocity": 84,
              "position": 3.0104166666666665,
              "duration": 0.3541666666666667
            },
            {
              "pitch": 57,
              "velocity": 75,
              "position": 3.28125,
              "duration": 0.09375
            },
            {
              "pitch": 60,
              "velocity": 80,
              "position": 3.5,
              "duration": 0.4583333333333333
            },
            {
              "pitch": 57,
              "velocity": 92,
              "position": 3.4791666666666665,
              "duration": 0.5208333333333334
            },
            {
              "pitch": 55,
              "velocity": 99,
              "position": 4,
              "duration": 0.17708333333333334
            },
            {
              "pitch": 50,
              "velocity": 98,
              "position": 4,
              "duration": 0.22916666666666666
            },
            {
              "pitch": 55,
              "velocity": 93,
              "position": 4.510416666666667,
              "duration": 0.23958333333333334
            },
            {
              "pitch": 52,
              "velocity": 99,
              "position": 4.520833333333333,
              "duration": 0.23958333333333334
            },
            {
              "pitch": 55,
              "velocity": 107,
              "position": 5.020833333333333,
              "duration": 0.2604166666666667
            },
            {
              "pitch": 50,
              "velocity": 95,
              "position": 5.020833333333333,
              "duration": 0.3125
            },
            {
              "pitch": 52,
              "velocity": 96,
              "position": 5.520833333333333,
              "duration": 0.20833333333333334
            },
            {
              "pitch": 55,
              "velocity": 95,
              "position": 5.520833333333333,
              "duration": 0.20833333333333334
            },
            {
              "pitch": 50,
              "velocity": 80,
              "position": 5.78125,
              "duration": 0.14583333333333334
            },
            {
              "pitch": 55,
              "velocity": 110,
              "position": 6.010416666666667,
              "duration": 0.17708333333333334
            },
            {
              "pitch": 53,
              "velocity": 98,
              "position": 6.010416666666667,
              "duration": 0.17708333333333334
            },
            {
              "pitch": 55,
              "velocity": 80,
              "position": 6.25,
              "duration": 0.6354166666666666
            },
            {
              "pitch": 52,
              "velocity": 100,
              "position": 6.25,
              "duration": 0.6666666666666666
            },
            {
              "pitch": 55,
              "velocity": 73,
              "position": 7.010416666666667,
              "duration": 0.08333333333333333
            },
            {
              "pitch": 50,
              "velocity": 103,
              "position": 6.989583333333333,
              "duration": 0.22916666666666666
            },
            {
              "pitch": 52,
              "velocity": 95,
              "position": 7.25,
              "duration": 0.15625
            },
            {
              "pitch": 55,
              "velocity": 80,
              "position": 7.239583333333333,
              "duration": 0.5208333333333334
            },
            {
              "pitch": 46,
              "velocity": 95,
              "position": 7.5,
              "duration": 0.3020833333333333
            },
            {
              "pitch": 47,
              "velocity": 84,
              "position": 7.78125,
              "duration": 0.22916666666666666
            },
            {
              "pitch": 48,
              "velocity": 89,
              "position": 8.010416666666666,
              "duration": 0.3541666666666667
            },
            {
              "pitch": 60,
              "velocity": 93,
              "position": 8.270833333333334,
              "duration": 0.14583333333333334
            },
            {
              "pitch": 55,
              "velocity": 95,
              "position": 8.270833333333334,
              "duration": 0.15625
            },
            {
              "pitch": 60,
              "velocity": 89,
              "position": 8.510416666666666,
              "duration": 0.15625
            },
            {
              "pitch": 57,
              "velocity": 98,
              "position": 8.520833333333334,
              "duration": 0.17708333333333334
            },
            {
              "pitch": 48,
              "velocity": 65,
              "position": 8.770833333333334,
              "duration": 0.125
            },
            {
              "pitch": 55,
              "velocity": 103,
              "position": 9.010416666666666,
              "duration": 0.21875
            },
            {
              "pitch": 60,
              "velocity": 85,
              "position": 9,
              "duration": 0.23958333333333334
            },
            {
              "pitch": 48,
              "velocity": 74,
              "position": 9.270833333333334,
              "duration": 0.14583333333333334
            },
            {
              "pitch": 60,
              "velocity": 97,
              "position": 9.489583333333334,
              "duration": 0.34375
            },
            {
              "pitch": 57,
              "velocity": 97,
              "position": 9.489583333333334,
              "duration": 0.3645833333333333
            },
            {
              "pitch": 60,
              "velocity": 85,
              "position": 9.989583333333334,
              "duration": 0.17708333333333334
            },
            {
              "pitch": 48,
              "velocity": 101,
              "position": 10,
              "duration": 0.19791666666666666
            },
            {
              "pitch": 55,
              "velocity": 101,
              "position": 10,
              "duration": 0.19791666666666666
            },
            {
              "pitch": 59,
              "velocity": 73,
              "position": 10.5,
              "duration": 0.4791666666666667
            },
            {
              "pitch": 54,
              "velocity": 91,
              "position": 10.510416666666666,
              "duration": 0.4791666666666667
            },
            {
              "pitch": 47,
              "velocity": 98,
              "position": 10.510416666666666,
              "duration": 0.4791666666666667
            },
            {
              "pitch": 55,
              "velocity": 88,
              "position": 11.03125,
              "duration": 4.5
            },
            {
              "pitch": 60,
              "velocity": 92,
              "position": 11.041666666666666,
              "duration": 4.489583333333333
            },
            {
              "pitch": 48,
              "velocity": 92,
              "position": 11.03125,
              "duration": 4.510416666666667
            }
          ]
        },
        "15": {
          "ctab": {
            "srcChannel": 15,
            "name": "Track 16",
            "accType": "PHRASE2",
            "editable": false,
            "mutedNotes": [],
            "mutedChords": [],
            "autoStart": false,
            "sourceChordNote": 0,
            "sourceChordType": "Maj7",
            "ctb2Low": null,
            "ctb2Main": {
              "ntr": "ROOT_TRANSPOSITION",
              "ntt": "MELODIC_MINOR",
              "bassOn": false,
              "chordRootUpperLimit": 6,
              "noteLowLimit": 0,
              "noteHighLimit": 127,
              "rtr": "PITCH_SHIFT"
            },
            "ctb2High": null
          },
          "notes": [
            {
              "pitch": 36,
              "velocity": 127,
              "position": 0.010416666666666666,
              "duration": 0.17708333333333334
            },
            {
              "pitch": 48,
              "velocity": 113,
              "position": 0.5,
              "duration": 0.125
            },
            {
              "pitch": 60,
              "velocity": 102,
              "position": 0.5,
              "duration": 0.125
            },
            {
              "pitch": 48,
              "velocity": 107,
              "position": 1.2708333333333333,
              "duration": 0.11458333333333333
            },
            {
              "pitch": 60,
              "velocity": 97,
              "position": 1.2708333333333333,
              "duration": 0.125
            },
            {
              "pitch": 35,
              "velocity": 123,
              "position": 1.78125,
              "duration": 0.19791666666666666
            },
            {
              "pitch": 36,
              "velocity": 123,
              "position": 2.03125,
              "duration": 0.10416666666666667
            },
            {
              "pitch": 36,
              "velocity": 123,
              "position": 2.28125,
              "duration": 0.125
            },
            {
              "pitch": 52,
              "velocity": 113,
              "position": 2.5104166666666665,
              "duration": 0.10416666666666667
            },
            {
              "pitch": 40,
              "velocity": 118,
              "position": 2.5104166666666665,
              "duration": 0.10416666666666667
            },
            {
              "pitch": 40,
              "velocity": 102,
              "position": 2.7604166666666665,
              "duration": 0.16666666666666666
            },
            {
              "pitch": 52,
              "velocity": 108,
              "position": 2.7604166666666665,
              "duration": 0.17708333333333334
            },
            {
              "pitch": 53,
              "velocity": 108,
              "position": 3.0104166666666665,
              "duration": 0.09375
            },
            {
              "pitch": 41,
              "velocity": 113,
              "position": 3.0104166666666665,
              "duration": 0.10416666666666667
            },
            {
              "pitch": 53,
              "velocity": 102,
              "position": 3.2604166666666665,
              "duration": 0.13541666666666666
            },
            {
              "pitch": 41,
              "velocity": 108,
              "position": 3.2604166666666665,
              "duration": 0.17708333333333334
            },
            {
              "pitch": 42,
              "velocity": 108,
              "position": 3.5,
              "duration": 0.0625
            },
            {
              "pitch": 54,
              "velocity": 101,
              "position": 3.4895833333333335,
              "duration": 0.10416666666666667
            },
            {
              "pitch": 42,
              "velocity": 115,
              "position": 3.7604166666666665,
              "duration": 0.17708333333333334
            },
            {
              "pitch": 54,
              "velocity": 108,
              "position": 3.7708333333333335,
              "duration": 0.17708333333333334
            },
            {
              "pitch": 55,
              "velocity": 102,
              "position": 4,
              "duration": 0.14583333333333334
            },
            {
              "pitch": 43,
              "velocity": 113,
              "position": 4.010416666666667,
              "duration": 0.13541666666666666
            },
            {
              "pitch": 43,
              "velocity": 113,
              "position": 4.78125,
              "duration": 0.125
            },
            {
              "pitch": 55,
              "velocity": 118,
              "position": 4.78125,
              "duration": 0.125
            },
            {
              "pitch": 43,
              "velocity": 118,
              "position": 6.020833333333333,
              "duration": 0.125
            },
            {
              "pitch": 55,
              "velocity": 113,
              "position": 6.020833333333333,
              "duration": 0.13541666666666666
            },
            {
              "pitch": 43,
              "velocity": 113,
              "position": 6.760416666666667,
              "duration": 0.17708333333333334
            },
            {
              "pitch": 55,
              "velocity": 113,
              "position": 6.770833333333333,
              "duration": 0.17708333333333334
            },
            {
              "pitch": 45,
              "velocity": 102,
              "position": 7,
              "duration": 0.15625
            },
            {
              "pitch": 57,
              "velocity": 102,
              "position": 7,
              "duration": 0.16666666666666666
            },
            {
              "pitch": 43,
              "velocity": 108,
              "position": 7.229166666666667,
              "duration": 0.125
            },
            {
              "pitch": 55,
              "velocity": 102,
              "position": 7.25,
              "duration": 0.11458333333333333
            },
            {
              "pitch": 45,
              "velocity": 102,
              "position": 7.489583333333333,
              "duration": 0.17708333333333334
            },
            {
              "pitch": 57,
              "velocity": 113,
              "position": 7.489583333333333,
              "duration": 0.21875
            },
            {
              "pitch": 55,
              "velocity": 97,
              "position": 7.75,
              "duration": 0.11458333333333333
            },
            {
              "pitch": 43,
              "velocity": 79,
              "position": 7.729166666666667,
              "duration": 0.15625
            },
            {
              "pitch": 48,
              "velocity": 108,
              "position": 8,
              "duration": 0.19791666666666666
            },
            {
              "pitch": 36,
              "velocity": 97,
              "position": 8,
              "duration": 0.21875
            },
            {
              "pitch": 39,
              "velocity": 115,
              "position": 8.520833333333334,
              "duration": 0.25
            },
            {
              "pitch": 51,
              "velocity": 115,
              "position": 8.520833333333334,
              "duration": 0.2604166666666667
            },
            {
              "pitch": 40,
              "velocity": 113,
              "position": 8.770833333333334,
              "duration": 0.3958333333333333
            },
            {
              "pitch": 52,
              "velocity": 108,
              "position": 8.770833333333334,
              "duration": 0.4166666666666667
            },
            {
              "pitch": 43,
              "velocity": 108,
              "position": 9.25,
              "duration": 0.14583333333333334
            },
            {
              "pitch": 55,
              "velocity": 92,
              "position": 9.260416666666666,
              "duration": 0.14583333333333334
            },
            {
              "pitch": 45,
              "velocity": 108,
              "position": 9.489583333333334,
              "duration": 0.2604166666666667
            },
            {
              "pitch": 57,
              "velocity": 108,
              "position": 9.510416666666666,
              "duration": 0.25
            },
            {
              "pitch": 43,
              "velocity": 76,
              "position": 9.78125,
              "duration": 0.07291666666666667
            },
            {
              "pitch": 55,
              "velocity": 53,
              "position": 9.770833333333334,
              "duration": 0.10416666666666667
            },
            {
              "pitch": 48,
              "velocity": 102,
              "position": 10,
              "duration": 0.23958333333333334
            },
            {
              "pitch": 36,
              "velocity": 97,
              "position": 10,
              "duration": 0.2604166666666667
            },
            {
              "pitch": 35,
              "velocity": 123,
              "position": 10.75,
              "duration": 0.22916666666666666
            },
            {
              "pitch": 36,
              "velocity": 115,
              "position": 10.979166666666666,
              "duration": 0.2708333333333333
            }
          ]
        }
      }
    },
    "Fill_In_BA": {
      "type": "Fill_In_BA",
      "sizeInBeats": 4,
      "channels": {
        "9": {
          "ctab": {
            "srcChannel": 9,
            "name": "Track 10",
            "accType": "SUBRHYTHM",
            "editable": false,
            "mutedNotes": [],
            "mutedChords": [],
            "autoStart": true,
            "sourceChordNote": 0,
            "sourceChordType": "Maj7",
            "ctb2Low": null,
            "ctb2Main": {
              "ntr": "ROOT_FIXED",
              "ntt": "BYPASS",
              "bassOn": false,
              "chordRootUpperLimit": 6,
              "noteLowLimit": 0,
              "noteHighLimit": 127,
              "rtr": "PITCH_SHIFT"
            },
            "ctb2High": null
          },
          "notes": [
            {
              "pitch": 36,
              "velocity": 115,
              "position": 0,
              "duration": 0.010416666666666666
            },
            {
              "pitch": 40,
              "velocity": 115,
              "position": 0,
              "duration": 0.010416666666666666
            },
            {
              "pitch": 36,
              "velocity": 73,
              "position": 3.25,
              "duration": 0.010416666666666666
            },
            {
              "pitch": 38,
              "velocity": 96,
              "position": 3.4791666666666665,
              "duration": 0.010416666666666666
            },
            {
              "pitch": 40,
              "velocity": 113,
              "position": 3.5104166666666665,
              "duration": 0.010416666666666666
            }
          ]
        },
        "10": {
          "ctab": {
            "srcChannel": 10,
            "name": "Track 11",
            "accType": "BASS",
            "editable": false,
            "mutedNotes": [],
            "mutedChords": [],
            "autoStart": false,
            "sourceChordNote": 0,
            "sourceChordType": "Maj7",
            "ctb2Low": null,
            "ctb2Main": {
              "ntr": "ROOT_TRANSPOSITION",
              "ntt": "MELODY",
              "bassOn": true,
              "chordRootUpperLimit": 3,
              "noteLowLimit": 28,
              "noteHighLimit": 127,
              "rtr": "PITCH_SHIFT"
            },
            "ctb2High": null
          },
          "notes": [
            {
              "pitch": 36,
              "velocity": 121,
              "position": 0,
              "duration": 0.46875
            },
            {
              "pitch": 36,
              "velocity": 96,
              "position": 3.03125,
              "duration": 0.25
            }
          ]
        },
        "11": {
          "ctab": {
            "srcChannel": 11,
            "name": "Track 12",
            "accType": "CHORD1",
            "editable": false,
            "mutedNotes": [],
            "mutedChords": [],
            "autoStart": false,
            "sourceChordNote": 0,
            "sourceChordType": "Maj7",
            "ctb2Low": null,
            "ctb2Main": {
              "ntr": "ROOT_FIXED",
              "ntt": "CHORD",
              "bassOn": false,
              "chordRootUpperLimit": 6,
              "noteLowLimit": 0,
              "noteHighLimit": 127,
              "rtr": "PITCH_SHIFT"
            },
            "ctb2High": null
          },
          "notes": [
            {
              "pitch": 55,
              "velocity": 102,
              "position": 0.010416666666666666,
              "duration": 0.4895833333333333
            },
            {
              "pitch": 58,
              "velocity": 102,
              "position": 0.052083333333333336,
              "duration": 0.4895833333333333
            },
            {
              "pitch": 64,
              "velocity": 103,
              "position": 0.08333333333333333,
              "duration": 0.4895833333333333
            }
          ]
        },
        "12": {
          "ctab": {
            "srcChannel": 12,
            "name": "Track 13",
            "accType": "CHORD2",
            "editable": false,
            "mutedNotes": [],
            "mutedChords": [],
            "autoStart": false,
            "sourceChordNote": 0,
            "sourceChordType": "Maj7",
            "ctb2Low": null,
            "ctb2Main": {
              "ntr": "ROOT_TRANSPOSITION",
              "ntt": "CHORD",
              "bassOn": false,
              "chordRootUpperLimit": 6,
              "noteLowLimit": 0,
              "noteHighLimit": 79,
              "rtr": "STOP"
            },
            "ctb2High": null
          },
          "notes": [
            {
              "pitch": 82,
              "velocity": 98,
              "position": 0.010416666666666666,
              "duration": 0.22916666666666666
            },
            {
              "pitch": 81,
              "velocity": 59,
              "position": 0.2708333333333333,
              "duration": 0.041666666666666664
            },
            {
              "pitch": 88,
              "velocity": 82,
              "position": 0.020833333333333332,
              "duration": 0.3958333333333333
            },
            {
              "pitch": 48,
              "velocity": 85,
              "position": 0.010416666666666666,
              "duration": 0.4375
            },
            {
              "pitch": 60,
              "velocity": 85,
              "position": 0,
              "duration": 0.46875
            },
            {
              "pitch": 55,
              "velocity": 86,
              "position": 0.010416666666666666,
              "duration": 0.4583333333333333
            },
            {
              "pitch": 82,
              "velocity": 73,
              "position": 0.3541666666666667,
              "duration": 0.14583333333333334
            },
            {
              "pitch": 81,
              "velocity": 74,
              "position": 0.4375,
              "duration": 0.13541666666666666
            },
            {
              "pitch": 79,
              "velocity": 95,
              "position": 0.5416666666666666,
              "duration": 0.10416666666666667
            },
            {
              "pitch": 75,
              "velocity": 101,
              "position": 0.8020833333333334,
              "duration": 0.1875
            },
            {
              "pitch": 74,
              "velocity": 71,
              "position": 1.0208333333333333,
              "duration": 0.09375
            },
            {
              "pitch": 81,
              "velocity": 90,
              "position": 0.8020833333333334,
              "duration": 0.375
            },
            {
              "pitch": 75,
              "velocity": 63,
              "position": 1.1041666666666667,
              "duration": 0.14583333333333334
            },
            {
              "pitch": 74,
              "velocity": 76,
              "position": 1.1979166666666667,
              "duration": 0.125
            },
            {
              "pitch": 72,
              "velocity": 90,
              "position": 1.28125,
              "duration": 0.10416666666666667
            },
            {
              "pitch": 70,
              "velocity": 106,
              "position": 1.4895833333333333,
              "duration": 0.19791666666666666
            },
            {
              "pitch": 69,
              "velocity": 65,
              "position": 1.7395833333333333,
              "duration": 0.041666666666666664
            },
            {
              "pitch": 76,
              "velocity": 76,
              "position": 1.5104166666666667,
              "duration": 0.3854166666666667
            },
            {
              "pitch": 70,
              "velocity": 67,
              "position": 1.7916666666666667,
              "duration": 0.16666666666666666
            },
            {
              "pitch": 69,
              "velocity": 75,
              "position": 1.8958333333333333,
              "duration": 0.13541666666666666
            },
            {
              "pitch": 67,
              "velocity": 93,
              "position": 2,
              "duration": 0.08333333333333333
            },
            {
              "pitch": 63,
              "velocity": 92,
              "position": 2.2395833333333335,
              "duration": 0.20833333333333334
            },
            {
              "pitch": 62,
              "velocity": 89,
              "position": 2.5,
              "duration": 0.20833333333333334
            },
            {
              "pitch": 67,
              "velocity": 89,
              "position": 2.25,
              "duration": 0.6458333333333334
            },
            {
              "pitch": 60,
              "velocity": 97,
              "position": 2.7604166666666665,
              "duration": 0.21875
            },
            {
              "pitch": 48,
              "velocity": 85,
              "position": 3.0104166666666665,
              "duration": 0.07291666666666667
            },
            {
              "pitch": 55,
              "velocity": 86,
              "position": 3.0104166666666665,
              "duration": 0.08333333333333333
            },
            {
              "pitch": 60,
              "velocity": 85,
              "position": 3,
              "duration": 0.10416666666666667
            },
            {
              "pitch": 72,
              "velocity": 89,
              "position": 3,
              "duration": 0.28125
            }
          ]
        },
        "14": {
          "ctab": {
            "srcChannel": 14,
            "name": "Track 15",
            "accType": "PHRASE1",
            "editable": false,
            "mutedNotes": [],
            "mutedChords": [],
            "autoStart": false,
            "sourceChordNote": 0,
            "sourceChordType": "Maj7",
            "ctb2Low": null,
            "ctb2Main": {
              "ntr": "ROOT_TRANSPOSITION",
              "ntt": "CHORD",
              "bassOn": false,
              "chordRootUpperLimit": 6,
              "noteLowLimit": 0,
              "noteHighLimit": 127,
              "rtr": "PITCH_SHIFT"
            },
            "ctb2High": null
          },
          "notes": [
            {
              "pitch": 55,
              "velocity": 102,
              "position": 0.020833333333333332,
              "duration": 0.4583333333333333
            },
            {
              "pitch": 60,
              "velocity": 89,
              "position": 0.020833333333333332,
              "duration": 0.46875
            },
            {
              "pitch": 48,
              "velocity": 98,
              "position": 0.020833333333333332,
              "duration": 0.4791666666666667
            }
          ]
        }
      }
    }
  }
}