{
  "name": "PopBallad.S540.prs",
  "tempo": 77,
  "timeSignature": "4/4",
  "ticksPerQuarter": 1920,
  "sffType": "SFF1",
  "division": "BINARY",
  "parts": {
    "Main_A": {
      "type": "Main_A",
      "sizeInBeats": 16,
      "channels": {
        "0": {
          "ctab": {
            "srcChannel": 0,
            "name": "CC_Crash",
            "accType": "SUBRHYTHM",
            "editable": false,
            "mutedNotes": [],
            "mutedChords": [
              "1+2+5",
              "sus4",
              "1+5",
              "1+8",
              "7aug",
              "Maj7aug",
              "7(#9)",
              "7(b13)",
              "7(b9)",
              "7(13)",
              "7#11",
              "7(9)",
              "7b5",
              "7sus4",
              "7th",
              "dim7",
              "dim",
              "minMaj7(9)",
              "minMaj7",
              "min7(11)",
              "min7(9)",
              "min(9)",
              "m7b5",
              "min7",
              "min6",
              "min",
              "aug",
              "Maj6(9)",
              "Maj7(9)",
              "Maj(9)",
              "Maj7#11",
              "Maj7",
              "Maj6",
              "Maj"
            ],
            "autoStart": true,
            "sourceChordNote": 0,
            "sourceChordType": "Maj",
            "ctb2Low": null,
            "ctb2Main": {
              "ntr": "ROOT_FIXED",
              "ntt": "BYPASS",
              "bassOn": false,
              "chordRootUpperLimit": 0,
              "noteLowLimit": 0,
              "noteHighLimit": 127,
              "rtr": "RETRIGGER"
            },
            "ctb2High": null
          },
          "notes": []
        },
        "3": {
          "ctab": {
            "srcChannel": 3,
            "name": "EpRoot",
            "accType": "CHORD1",
            "editable": false,
            "mutedNotes": [],
            "mutedChords": [
              "1+2+5",
              "sus4",
              "1+5",
              "1+8",
              "Maj7aug",
              "dim",
              "minMaj7(9)",
              "minMaj7",
              "min6",
              "min",
              "aug",
              "Maj7(9)",
              "Maj7#11",
              "Maj7",
              "Maj6",
              "Maj"
            ],
            "autoStart": false,
            "sourceChordNote": 0,
            "sourceChordType": "Maj7",
            "ctb2Low": null,
            "ctb2Main": {
              "ntr": "ROOT_TRANSPOSITION",
              "ntt": "MELODY",
              "bassOn": false,
              "chordRootUpperLimit": 6,
              "noteLowLimit": 0,
              "noteHighLimit": 127,
              "rtr": "PITCH_SHIFT"
            },
            "ctb2High": null
          },
          "notes": [
            {
              "pitch": 60,
              "velocity": 45,
              "position": 0,
              "duration": 7.989583333333333
            },
            {
              "pitch": 60,
              "velocity": 45,
              "position": 8,
              "duration": 7.989583333333333
            }
          ]
        },
        "5": {
          "ctab": {
            "srcChannel": 5,
            "name": "PadRoot",
            "accType": "PAD",
            "editable": true,
            "mutedNotes": [],
            "mutedChords": [
              "1+2+5",
              "sus4",
              "1+5",
              "1+8",
              "Maj7aug",
              "dim",
              "minMaj7(9)",
              "minMaj7",
              "min6",
              "min",
              "aug",
              "Maj7(9)",
              "Maj7#11",
              "Maj7",
              "Maj6",
              "Maj"
            ],
            "autoStart": false,
            "sourceChordNote": 0,
            "sourceChordType": "Maj7",
            "ctb2Low": null,
            "ctb2Main": {
              "ntr": "ROOT_TRANSPOSITION",
              "ntt": "MELODY",
              "bassOn": false,
              "chordRootUpperLimit": 6,
              "noteLowLimit": 0,
              "noteHighLimit": 127,
              "rtr": "PITCH_SHIFT"
            },
            "ctb2High": null
          },
          "notes": [
            {
              "pitch": 60,
              "velocity": 68,
              "position": 0,
              "duration": 15.989583333333334
            }
          ]
        },
        "8": {
          "ctab": {
            "srcChannel": 8,
            "name": "addDrums",
            "accType": "SUBRHYTHM",
            "editable": false,
            "mutedNotes": [],
            "mutedChords": [],
            "autoStart": true,
            "sourceChordNote": 0,
            "sourceChordType": "Maj7",
            "ctb2Low": null,
            "ctb2Main": {
              "ntr": "ROOT_FIXED",
              "ntt": "BYPASS",
              "bassOn": false,
              "chordRootUpperLimit": 6,
              "noteLowLimit": 0,
              "noteHighLimit": 127,
              "rtr": "PITCH_SHIFT"
            },
            "ctb2High": null
          },
          "notes": [
            {
              "pitch": 51,
              "velocity": 71,
              "position": 0,
              "duration": 0.010416666666666666
            },
            {
              "pitch": 61,
              "velocity": 42,
              "position": 0,
              "duration": 0.010416666666666666
            },
            {
              "pitch": 82,
              "velocity": 92,
              "position": 0,
              "duration": 0.010416666666666666
            },
            {
              "pitch": 82,
              "velocity": 45,
              "position": 0.25,
              "duration": 0.010416666666666666
            },
            {
              "pitch": 63,
              "velocity": 107,
              "position": 0.5,
              "duration": 0.010416666666666666
            },
            {
              "pitch": 82,
              "velocity": 38,
              "position": 0.5,
              "duration": 0.010416666666666666
            },
            {
              "pitch": 63,
              "velocity": 86,
              "position": 0.75,
              "duration": 0.010416666666666666
            },
            {
              "pitch": 82,
              "velocity": 99,
              "position": 0.75,
              "duration": 0.010416666666666666
            },
            {
              "pitch": 62,
              "velocity": 114,
              "position": 1,
              "duration": 0.010416666666666666
            },
            {
              "pitch": 82,
              "velocity": 84,
              "position": 1,
              "duration": 0.010416666666666666
            },
            {
              "pitch": 82,
              "velocity": 52,
              "position": 1.25,
              "duration": 0.010416666666666666
            },
            {
              "pitch": 61,
              "velocity": 39,
              "position": 1.5,
              "duration": 0.010416666666666666
            },
            {
              "pitch": 82,
              "velocity": 37,
              "position": 1.5,
              "duration": 0.010416666666666666
            },
            {
              "pitch": 62,
              "velocity": 111,
              "position": 1.75,
              "duration": 0.010416666666666666
            },
            {
              "pitch": 82,
              "velocity": 99,
              "position": 1.75,
              "duration": 0.010416666666666666
            },
            {
              "pitch": 82,
              "velocity": 74,
              "position": 2,
              "duration": 0.010416666666666666
            },
            {
              "pitch": 61,
              "velocity": 33,
              "position": 2.25,
              "duration": 0.010416666666666666
            },
            {
              "pitch": 82,
              "velocity": 49,
              "position": 2.25,
              "duration": 0.010416666666666666
            },
            {
              "pitch": 63,
              "velocity": 107,
              "position": 2.5,
              "duration": 0.010416666666666666
            },
            {
              "pitch": 82,
              "velocity": 45,
              "position": 2.5,
              "duration": 0.010416666666666666
            },
            {
              "pitch": 63,
              "velocity": 95,
              "position": 2.75,
              "duration": 0.010416666666666666
            },
            {
              "pitch": 82,
              "velocity": 92,
              "position": 2.75,
              "duration": 0.010416666666666666
            },
            {
              "pitch": 54,
              "velocity": 79,
              "position": 3,
              "duration": 0.010416666666666666
            },
            {
              "pitch": 62,
              "velocity": 107,
              "position": 3,
              "duration": 0.010416666666666666
            },
            {
              "pitch": 82,
              "velocity": 76,
              "position": 3,
              "duration": 0.010416666666666666
            },
            {
              "pitch": 82,
              "velocity": 54,
              "position": 3.25,
              "duration": 0.010416666666666666
            },
            {
              "pitch": 61,
              "velocity": 39,
              "position": 3.5,
              "duration": 0.010416666666666666
            },
            {
              "pitch": 82,
              "velocity": 48,
              "position": 3.5,
              "duration": 0.010416666666666666
            },
            {
              "pitch": 64,
              "velocity": 120,
              "position": 3.75,
              "duration": 0.010416666666666666
            },
            {
              "pitch": 82,
              "velocity": 92,
              "position": 3.75,
              "duration": 0.010416666666666666
            },
            {
              "pitch": 61,
              "velocity": 34,
              "position": 4,
              "duration": 0.010416666666666666
            },
            {
              "pitch": 82,
              "velocity": 88,
              "position": 4,
              "duration": 0.010416666666666666
            },
            {
              "pitch": 82,
              "velocity": 61,
              "position": 4.25,
              "duration": 0.010416666666666666
            },
            {
              "pitch": 63,
              "velocity": 107,
              "position": 4.5,
              "duration": 0.010416666666666666
            },
            {
              "pitch": 82,
              "velocity": 49,
              "position": 4.5,
              "duration": 0.010416666666666666
            },
            {
              "pitch": 63,
              "velocity": 92,
              "position": 4.75,
              "duration": 0.010416666666666666
            },
            {
              "pitch": 82,
              "velocity": 103,
              "position": 4.75,
              "duration": 0.010416666666666666
            },
            {
              "pitch": 62,
              "velocity": 123,
              "position": 5,
              "duration": 0.010416666666666666
            },
            {
              "pitch": 82,
              "velocity": 76,
              "position": 5,
              "duration": 0.010416666666666666
            },
            {
              "pitch": 82,
              "velocity": 61,
              "position": 5.25,
              "duration": 0.010416666666666666
            },
            {
              "pitch": 61,
              "velocity": 33,
              "position": 5.5,
              "duration": 0.010416666666666666
            },
            {
              "pitch": 82,
              "velocity": 46,
              "position": 5.5,
              "duration": 0.010416666666666666
            },
            {
              "pitch": 62,
              "velocity": 117,
              "position": 5.75,
              "duration": 0.010416666666666666
            },
            {
              "pitch": 82,
              "velocity": 90,
              "position": 5.75,
              "duration": 0.010416666666666666
            },
            {
              "pitch": 82,
              "velocity": 71,
              "position": 6,
              "duration": 0.010416666666666666
            },
            {
              "pitch": 82,
              "velocity": 54,
              "position": 6.25,
              "duration": 0.010416666666666666
            },
            {
              "pitch": 63,
              "velocity": 111,
              "position": 6.5,
              "duration": 0.010416666666666666
            },
            {
              "pitch": 82,
              "velocity": 48,
              "position": 6.5,
              "duration": 0.010416666666666666
            },
            {
              "pitch": 63,
              "velocity": 90,
              "position": 6.75,
              "duration": 0.010416666666666666
            },
            {
              "pitch": 82,
              "velocity": 95,
              "position": 6.75,
              "duration": 0.010416666666666666
            },
            {
              "pitch": 54,
              "velocity": 84,
              "position": 7,
              "duration": 0.010416666666666666
            },
            {
              "pitch": 62,
              "velocity": 107,
              "position": 7,
              "duration": 0.010416666666666666
            },
            {
              "pitch": 82,
              "velocity": 71,
              "position": 7,
              "duration": 0.010416666666666666
            },
            {
              "pitch": 62,
              "velocity": 54,
              "position": 7.25,
              "duration": 0.010416666666666666
            },
            {
              "pitch": 82,
              "velocity": 57,
              "position": 7.25,
              "duration": 0.010416666666666666
            },
            {
              "pitch": 61,
              "velocity": 39,
              "position": 7.5,
              "duration": 0.010416666666666666
            },
            {
              "pitch": 82,
              "velocity": 52,
              "position": 7.5,
              "duration": 0.010416666666666666
            },
            {
              "pitch": 64,
              "velocity": 99,
              "position": 7.75,
              "duration": 0.010416666666666666
            },
            {
              "pitch": 82,
              "velocity": 92,
              "position": 7.75,
              "duration": 0.010416666666666666
            },
            {
              "pitch": 51,
              "velocity": 71,
              "position": 8,
              "duration": 0.010416666666666666
            },
            {
              "pitch": 64,
              "velocity": 51,
              "position": 8,
              "duration": 0.010416666666666666
            },
            {
              "pitch": 82,
              "velocity": 74,
              "position": 8,
              "duration": 0.010416666666666666
            },
            {
              "pitch": 61,
              "velocity": 45,
              "position": 8.25,
              "duration": 0.010416666666666666
            },
            {
              "pitch": 82,
              "velocity": 59,
              "position": 8.25,
              "duration": 0.010416666666666666
            },
            {
              "pitch": 63,
              "velocity": 107,
              "position": 8.5,
              "duration": 0.010416666666666666
            },
            {
              "pitch": 82,
              "velocity": 49,
              "position": 8.5,
              "duration": 0.010416666666666666
            },
            {
              "pitch": 63,
              "velocity": 74,
              "position": 8.75,
              "duration": 0.010416666666666666
            },
            {
              "pitch": 82,
              "velocity": 95,
              "position": 8.75,
              "duration": 0.010416666666666666
            },
            {
              "pitch": 62,
              "velocity": 117,
              "position": 9,
              "duration": 0.010416666666666666
            },
            {
              "pitch": 82,
              "velocity": 71,
              "position": 9,
              "duration": 0.010416666666666666
            },
            {
              "pitch": 82,
              "velocity": 49,
              "position": 9.25,
              "duration": 0.010416666666666666
            },
            {
              "pitch": 82,
              "velocity": 46,
              "position": 9.5,
              "duration": 0.010416666666666666
            },
            {
              "pitch": 62,
              "velocity": 117,
              "position": 9.75,
              "duration": 0.010416666666666666
            },
            {
              "pitch": 82,
              "velocity": 95,
              "position": 9.75,
              "duration": 0.010416666666666666
            },
            {
              "pitch": 82,
              "velocity": 57,
              "position": 10,
              "duration": 0.010416666666666666
            },
            {
              "pitch": 82,
              "velocity": 46,
              "position": 10.25,
              "duration": 0.010416666666666666
            },
            {
              "pitch": 63,
              "velocity": 114,
              "position": 10.5,
              "duration": 0.010416666666666666
            },
            {
              "pitch": 82,
              "velocity": 51,
              "position": 10.5,
              "duration": 0.010416666666666666
            },
            {
              "pitch": 63,
              "velocity": 90,
              "position": 10.75,
              "duration": 0.010416666666666666
            },
            {
              "pitch": 82,
              "velocity": 95,
              "position": 10.75,
              "duration": 0.010416666666666666
            },
            {
              "pitch": 54,
              "velocity": 95,
              "position": 11,
              "duration": 0.010416666666666666
            },
            {
              "pitch": 62,
              "velocity": 111,
              "position": 11,
              "duration": 0.010416666666666666
            },
            {
              "pitch": 82,
              "velocity": 58,
              "position": 11,
              "duration": 0.010416666666666666
            },
            {
              "pitch": 82,
              "velocity": 52,
              "position": 11.25,
              "duration": 0.010416666666666666
            },
            {
              "pitch": 61,
              "velocity": 40,
              "position": 11.5,
              "duration": 0.010416666666666666
            },
            {
              "pitch": 82,
              "velocity": 51,
              "position": 11.5,
              "duration": 0.010416666666666666
            },
            {
              "pitch": 64,
              "velocity": 95,
              "position": 11.75,
              "duration": 0.010416666666666666
            },
            {
              "pitch": 82,
              "velocity": 92,
              "position": 11.75,
              "duration": 0.010416666666666666
            },
            {
              "pitch": 64,
              "velocity": 69,
              "position": 12,
              "duration": 0.010416666666666666
            },
            {
              "pitch": 82,
              "velocity": 61,
              "position": 12,
              "duration": 0.010416666666666666
            },
            {
              "pitch": 82,
              "velocity": 44,
              "position": 12.25,
              "duration": 0.010416666666666666
            },
            {
              "pitch": 63,
              "velocity": 95,
              "position": 12.5,
              "duration": 0.010416666666666666
            },
            {
              "pitch": 82,
              "velocity": 57,
              "position": 12.5,
              "duration": 0.010416666666666666
            },
            {
              "pitch": 63,
              "velocity": 92,
              "position": 12.75,
              "duration": 0.010416666666666666
            },
            {
              "pitch": 82,
              "velocity": 95,
              "position": 12.75,
              "duration": 0.010416666666666666
            },
            {
              "pitch": 62,
              "velocity": 114,
              "position": 13,
              "duration": 0.010416666666666666
            },
            {
              "pitch": 82,
              "velocity": 57,
              "position": 13,
              "duration": 0.010416666666666666
            },
            {
              "pitch": 82,
              "velocity": 55,
              "position": 13.25,
              "duration": 0.010416666666666666
            },
            {
              "pitch": 61,
              "velocity": 30,
              "position": 13.5,
              "duration": 0.010416666666666666
            },
            {
              "pitch": 82,
              "velocity": 57,
              "position": 13.5,
              "duration": 0.010416666666666666
            },
            {
              "pitch": 62,
              "velocity": 111,
              "position": 13.75,
              "duration": 0.010416666666666666
            },
            {
              "pitch": 82,
              "velocity": 95,
              "position": 13.75,
              "duration": 0.010416666666666666
            },
            {
              "pitch": 82,
              "velocity": 65,
              "position": 14,
              "duration": 0.010416666666666666
            },
            {
              "pitch": 61,
              "velocity": 41,
              "position": 14.25,
              "duration": 0.010416666666666666
            },
            {
              "pitch": 82,
              "velocity": 55,
              "position": 14.25,
              "duration": 0.010416666666666666
            },
            {
              "pitch": 63,
              "velocity": 103,
              "position": 14.5,
              "duration": 0.010416666666666666
            },
            {
              "pitch": 82,
              "velocity": 46,
              "position": 14.5,
              "duration": 0.010416666666666666
            },
            {
              "pitch": 63,
              "velocity": 88,
              "position": 14.75,
              "duration": 0.010416666666666666
            },
            {
              "pitch": 82,
              "velocity": 95,
              "position": 14.75,
              "duration": 0.010416666666666666
            },
            {
              "pitch": 54,
              "velocity": 99,
              "position": 15,
              "duration": 0.010416666666666666
            },
            {
              "pitch": 62,
              "velocity": 103,
              "position": 15,
              "duration": 0.010416666666666666
            },
            {
              "pitch": 82,
              "velocity": 71,
              "position": 15,
              "duration": 0.010416666666666666
            },
            {
              "pitch": 64,
              "velocity": 59,
              "position": 15.25,
              "duration": 0.010416666666666666
            },
            {
              "pitch": 82,
              "velocity": 58,
              "position": 15.25,
              "duration": 0.010416666666666666
            },
            {
              "pitch": 61,
              "velocity": 38,
              "position": 15.5,
              "duration": 0.010416666666666666
            },
            {
              "pitch": 82,
              "velocity": 59,
              "position": 15.5,
              "duration": 0.010416666666666666
            },
            {
              "pitch": 64,
              "velocity": 53,
              "position": 15.75,
              "duration": 0.010416666666666666
            },
            {
              "pitch": 82,
              "velocity": 79,
              "position": 15.75,
              "duration": 0.010416666666666666
            }
          ]
        },
        "9": {
          "ctab": {
            "srcChannel": 9,
            "name": "MainDrum",
            "accType": "RHYTHM",
            "editable": false,
            "mutedNotes": [],
            "mutedChords": [],
            "autoStart": true,
            "sourceChordNote": 0,
            "sourceChordType": "Maj7",
            "ctb2Low": null,
            "ctb2Main": {
              "ntr": "ROOT_FIXED",
              "ntt": "BYPASS",
              "bassOn": false,
              "chordRootUpperLimit": 6,
              "noteLowLimit": 0,
              "noteHighLimit": 127,
              "rtr": "PITCH_SHIFT"
            },
            "ctb2High": null
          },
          "notes": [
            {
              "pitch": 42,
              "velocity": 70,
              "position": 0,
              "duration": 0.03125
            },
            {
              "pitch": 33,
              "velocity": 52,
              "position": 0,
              "duration": 0.041666666666666664
            },
            {
              "pitch": 42,
              "velocity": 55,
              "position": 0.5,
              "duration": 0.020833333333333332
            },
            {
              "pitch": 82,
              "velocity": 37,
              "position": 0.75,
              "duration": 0.020833333333333332
            },
            {
              "pitch": 25,
              "velocity": 85,
              "position": 1,
              "duration": 0.010416666666666666
            },
            {
              "pitch": 37,
              "velocity": 60,
              "position": 1,
              "duration": 0.010416666666666666
            },
            {
              "pitch": 42,
              "velocity": 50,
              "position": 1,
              "duration": 0.020833333333333332
            },
            {
              "pitch": 33,
              "velocity": 35,
              "position": 1.5,
              "duration": 0.020833333333333332
            },
            {
              "pitch": 42,
              "velocity": 55,
              "position": 1.5,
              "duration": 0.020833333333333332
            },
            {
              "pitch": 33,
              "velocity": 52,
              "position": 2,
              "duration": 0.020833333333333332
            },
            {
              "pitch": 42,
              "velocity": 55,
              "position": 2,
              "duration": 0.020833333333333332
            },
            {
              "pitch": 42,
              "velocity": 41,
              "position": 2.5,
              "duration": 0.010416666666666666
            },
            {
              "pitch": 25,
              "velocity": 85,
              "position": 3,
              "duration": 0.010416666666666666
            },
            {
              "pitch": 37,
              "velocity": 60,
              "position": 3,
              "duration": 0.010416666666666666
            },
            {
              "pitch": 42,
              "velocity": 61,
              "position": 3,
              "duration": 0.010416666666666666
            },
            {
              "pitch": 46,
              "velocity": 32,
              "position": 3.25,
              "duration": 0.020833333333333332
            },
            {
              "pitch": 42,
              "velocity": 46,
              "position": 3.5,
              "duration": 0.020833333333333332
            },
            {
              "pitch": 42,
              "velocity": 36,
              "position": 3.75,
              "duration": 0.020833333333333332
            },
            {
              "pitch": 33,
              "velocity": 52,
              "position": 4,
              "duration": 0.020833333333333332
            },
            {
              "pitch": 42,
              "velocity": 61,
              "position": 4,
              "duration": 0.020833333333333332
            },
            {
              "pitch": 42,
              "velocity": 55,
              "position": 4.5,
              "duration": 0.010416666666666666
            },
            {
              "pitch": 25,
              "velocity": 85,
              "position": 5,
              "duration": 0.010416666666666666
            },
            {
              "pitch": 37,
              "velocity": 60,
              "position": 5,
              "duration": 0.010416666666666666
            },
            {
              "pitch": 42,
              "velocity": 55,
              "position": 5,
              "duration": 0.020833333333333332
            },
            {
              "pitch": 33,
              "velocity": 35,
              "position": 5.5,
              "duration": 0.020833333333333332
            },
            {
              "pitch": 42,
              "velocity": 46,
              "position": 5.5,
              "duration": 0.020833333333333332
            },
            {
              "pitch": 33,
              "velocity": 52,
              "position": 6,
              "duration": 0.020833333333333332
            },
            {
              "pitch": 42,
              "velocity": 50,
              "position": 6,
              "duration": 0.020833333333333332
            },
            {
              "pitch": 44,
              "velocity": 42,
              "position": 6.25,
              "duration": 0.010416666666666666
            },
            {
              "pitch": 82,
              "velocity": 37,
              "position": 6.25,
              "duration": 0.010416666666666666
            },
            {
              "pitch": 42,
              "velocity": 46,
              "position": 6.5,
              "duration": 0.010416666666666666
            },
            {
              "pitch": 25,
              "velocity": 85,
              "position": 7,
              "duration": 0.010416666666666666
            },
            {
              "pitch": 37,
              "velocity": 60,
              "position": 7,
              "duration": 0.010416666666666666
            },
            {
              "pitch": 42,
              "velocity": 55,
              "position": 7,
              "duration": 0.041666666666666664
            },
            {
              "pitch": 45,
              "velocity": 72,
              "position": 7,
              "duration": 0.041666666666666664
            },
            {
              "pitch": 44,
              "velocity": 31,
              "position": 7.25,
              "duration": 0.010416666666666666
            },
            {
              "pitch": 42,
              "velocity": 55,
              "position": 7.5,
              "duration": 0.020833333333333332
            },
            {
              "pitch": 46,
              "velocity": 32,
              "position": 7.75,
              "duration": 0.010416666666666666
            },
            {
              "pitch": 33,
              "velocity": 52,
              "position": 8,
              "duration": 0.020833333333333332
            },
            {
              "pitch": 42,
              "velocity": 70,
              "position": 8,
              "duration": 0.020833333333333332
            },
            {
              "pitch": 42,
              "velocity": 55,
              "position": 8.5,
              "duration": 0.020833333333333332
            },
            {
              "pitch": 82,
              "velocity": 37,
              "position": 8.75,
              "duration": 0.03125
            },
            {
              "pitch": 25,
              "velocity": 85,
              "position": 9,
              "duration": 0.010416666666666666
            },
            {
              "pitch": 37,
              "velocity": 60,
              "position": 9,
              "duration": 0.010416666666666666
            },
            {
              "pitch": 42,
              "velocity": 50,
              "position": 9,
              "duration": 0.020833333333333332
            },
            {
              "pitch": 33,
              "velocity": 35,
              "position": 9.5,
              "duration": 0.020833333333333332
            },
            {
              "pitch": 42,
              "velocity": 55,
              "position": 9.5,
              "duration": 0.020833333333333332
            },
            {
              "pitch": 33,
              "velocity": 52,
              "position": 10,
              "duration": 0.020833333333333332
            },
            {
              "pitch": 42,
              "velocity": 55,
              "position": 10,
              "duration": 0.020833333333333332
            },
            {
              "pitch": 42,
              "velocity": 41,
              "position": 10.5,
              "duration": 0.010416666666666666
            },
            {
              "pitch": 25,
              "velocity": 85,
              "position": 11,
              "duration": 0.010416666666666666
            },
            {
              "pitch": 37,
              "velocity": 60,
              "position": 11,
              "duration": 0.010416666666666666
            },
            {
              "pitch": 42,
              "velocity": 61,
              "position": 11,
              "duration": 0.020833333333333332
            },
            {
              "pitch": 46,
              "velocity": 32,
              "position": 11.25,
              "duration": 0.010416666666666666
            },
            {
              "pitch": 42,
              "velocity": 46,
              "position": 11.5,
              "duration": 0.020833333333333332
            },
            {
              "pitch": 42,
              "velocity": 36,
              "position": 11.75,
              "duration": 0.020833333333333332
            },
            {
              "pitch": 33,
              "velocity": 52,
              "position": 12,
              "duration": 0.020833333333333332
            },
            {
              "pitch": 42,
              "velocity": 61,
              "position": 12,
              "duration": 0.020833333333333332
            },
            {
              "pitch": 42,
              "velocity": 55,
              "position": 12.5,
              "duration": 0.020833333333333332
            },
            {
              "pitch": 25,
              "velocity": 85,
              "position": 13,
              "duration": 0.010416666666666666
            },
            {
              "pitch": 37,
              "velocity": 60,
              "position": 13,
              "duration": 0.010416666666666666
            },
            {
              "pitch": 42,
              "velocity": 55,
              "position": 13,
              "duration": 0.010416666666666666
            },
            {
              "pitch": 33,
              "velocity": 35,
              "position": 13.5,
              "duration": 0.010416666666666666
            },
            {
              "pitch": 42,
              "velocity": 46,
              "position": 13.5,
              "duration": 0.010416666666666666
            },
            {
              "pitch": 33,
              "velocity": 52,
              "position": 14,
              "duration": 0.020833333333333332
            },
            {
              "pitch": 42,
              "velocity": 50,
              "position": 14,
              "duration": 0.020833333333333332
            },
            {
              "pitch": 44,
              "velocity": 42,
              "position": 14.25,
              "duration": 0.010416666666666666
            },
            {
              "pitch": 82,
              "velocity": 37,
              "position": 14.25,
              "duration": 0.010416666666666666
            },
            {
              "pitch": 42,
              "velocity": 46,
              "position": 14.5,
              "duration": 0.010416666666666666
            },
            {
              "pitch": 25,
              "velocity": 85,
              "position": 15,
              "duration": 0.010416666666666666
            },
            {
              "pitch": 37,
              "velocity": 60,
              "position": 15,
              "duration": 0.010416666666666666
            },
            {
              "pitch": 42,
              "velocity": 55,
              "position": 15,
              "duration": 0.041666666666666664
            },
            {
              "pitch": 45,
              "velocity": 72,
              "position": 15,
              "duration": 0.041666666666666664
            },
            {
              "pitch": 44,
              "velocity": 31,
              "position": 15.25,
              "duration": 0.010416666666666666
            },
            {
              "pitch": 42,
              "velocity": 55,
              "position": 15.5,
              "duration": 0.020833333333333332
            },
            {
              "pitch": 46,
              "velocity": 32,
              "position": 15.75,
              "duration": 0.010416666666666666
            }
          ]
        },
        "10": {
          "ctab": {
            "srcChannel": 10,
            "name": "Bass",
            "accType": "BASS",
            "editable": false,
            "mutedNotes": [],
            "mutedChords": [],
            "autoStart": false,
            "sourceChordNote": 0,
            "sourceChordType": "Maj7",
            "ctb2Low": null,
            "ctb2Main": {
              "ntr": "ROOT_TRANSPOSITION",
              "ntt": "MELODY",
              "bassOn": true,
              "chordRootUpperLimit": 3,
              "noteLowLimit": 28,
              "noteHighLimit": 39,
              "rtr": "PITCH_SHIFT_TO_ROOT"
            },
            "ctb2High": null
          },
          "notes": [
            {
              "pitch": 24,
              "velocity": 100,
              "position": 0,
              "duration": 1.4895833333333333
            },
            {
              "pitch": 24,
              "velocity": 81,
              "position": 1.5,
              "duration": 0.4895833333333333
            },
            {
              "pitch": 24,
              "velocity": 87,
              "position": 2,
              "duration": 1.9895833333333333
            },
            {
              "pitch": 24,
              "velocity": 95,
              "position": 4,
              "duration": 1.4895833333333333
            },
            {
              "pitch": 24,
              "velocity": 90,
              "position": 5.5,
              "duration": 0.4895833333333333
            },
            {
              "pitch": 24,
              "velocity": 85,
              "position": 6,
              "duration": 1.9895833333333333
            },
            {
              "pitch": 24,
              "velocity": 90,
              "position": 8,
              "duration": 1.4895833333333333
            },
            {
              "pitch": 24,
              "velocity": 90,
              "position": 9.5,
              "duration": 0.4895833333333333
            },
            {
              "pitch": 24,
              "velocity": 90,
              "position": 10,
              "duration": 1.9895833333333333
            },
            {
              "pitch": 24,
              "velocity": 88,
              "position": 12,
              "duration": 1.4895833333333333
            },
            {
              "pitch": 24,
              "velocity": 93,
              "position": 13.5,
              "duration": 0.4895833333333333
            },
            {
              "pitch": 24,
              "velocity": 88,
              "position": 14,
              "duration": 1.9895833333333333
            }
          ]
        },
        "11": {
          "ctab": {
            "srcChannel": 11,
            "name": "Ep",
            "accType": "CHORD1",
            "editable": false,
            "mutedNotes": [],
            "mutedChords": [],
            "autoStart": false,
            "sourceChordNote": 0,
            "sourceChordType": "Maj7",
            "ctb2Low": null,
            "ctb2Main": {
              "ntr": "ROOT_FIXED",
              "ntt": "CHORD",
              "bassOn": false,
              "chordRootUpperLimit": 7,
              "noteLowLimit": 50,
              "noteHighLimit": 127,
              "rtr": "PITCH_SHIFT"
            },
            "ctb2High": null
          },
          "notes": [
            {
              "pitch": 55,
              "velocity": 47,
              "position": 0,
              "duration": 7.989583333333333
            },
            {
              "pitch": 59,
              "velocity": 47,
              "position": 0,
              "duration": 7.989583333333333
            },
            {
              "pitch": 64,
              "velocity": 47,
              "position": 0,
              "duration": 7.989583333333333
            },
            {
              "pitch": 55,
              "velocity": 47,
              "position": 8,
              "duration": 7.989583333333333
            },
            {
              "pitch": 59,
              "velocity": 47,
              "position": 8,
              "duration": 7.989583333333333
            },
            {
              "pitch": 64,
              "velocity": 47,
              "position": 8,
              "duration": 7.989583333333333
            }
          ]
        },
        "12": {
          "ctab": {
            "srcChannel": 12,
            "name": "Nylon",
            "accType": "CHORD2",
            "editable": false,
            "mutedNotes": [],
            "mutedChords": [],
            "autoStart": false,
            "sourceChordNote": 0,
            "sourceChordType": "Maj7",
            "ctb2Low": null,
            "ctb2Main": {
              "ntr": "ROOT_FIXED",
              "ntt": "CHORD",
              "bassOn": false,
              "chordRootUpperLimit": 7,
              "noteLowLimit": 0,
              "noteHighLimit": 127,
              "rtr": "PITCH_SHIFT"
            },
            "ctb2High": null
          },
          "notes": []
        },
        "13": {
          "ctab": {
            "srcChannel": 13,
            "name": "Pad",
            "accType": "PAD",
            "editable": false,
            "mutedNotes": [],
            "mutedChords": [],
            "autoStart": false,
            "sourceChordNote": 0,
            "sourceChordType": "Maj7",
            "ctb2Low": null,
            "ctb2Main": {
              "ntr": "ROOT_FIXED",
              "ntt": "CHORD",
              "bassOn": false,
              "chordRootUpperLimit": 7,
              "noteLowLimit": 0,
              "noteHighLimit": 127,
              "rtr": "PITCH_SHIFT"
            },
            "ctb2High": null
          },
          "notes": [
            {
              "pitch": 55,
              "velocity": 68,
              "position": 0,
              "duration": 15.989583333333334
            },
            {
              "pitch": 59,
              "velocity": 68,
              "position": 0,
              "duration": 15.989583333333334
            },
            {
              "pitch": 64,
              "velocity": 68,
              "position": 0,
              "duration": 15.989583333333334
            }
          ]
        },
        "14": {
          "ctab": {
            "srcChannel": 14,
            "name": "MutedGtr",
            "accType": "PHRASE1",
            "editable": false,
            "mutedNotes": [],
            "mutedChords": [],
            "autoStart": false,
            "sourceChordNote": 0,
            "sourceChordType": "Maj7",
            "ctb2Low": null,
            "ctb2Main": {
              "ntr": "ROOT_FIXED",
              "ntt": "CHORD",
              "bassOn": false,
              "chordRootUpperLimit": 5,
              "noteLowLimit": 52,
              "noteHighLimit": 127,
              "rtr": "PITCH_SHIFT"
            },
            "ctb2High": null
          },
          "notes": []
        },
        "15": {
          "ctab": {
            "srcChannel": 15,
            "name": "Pad2",
            "accType": "PHRASE2",
            "editable": false,
            "mutedNotes": [],
            "mutedChords": [],
            "autoStart": false,
            "sourceChordNote": 0,
            "sourceChordType": "Maj7",
            "ctb2Low": null,
            "ctb2Main": {
              "ntr": "ROOT_FIXED",
              "ntt": "CHORD",
              "bassOn": false,
              "chordRootUpperLimit": 7,
              "noteLowLimit": 0,
              "noteHighLimit": 127,
              "rtr": "PITCH_SHIFT"
            },
            "ctb2High": null
          },
          "notes": []
        }
      }
    },
    "Main_B": {
      "type": "Main_B",
      "sizeInBeats": 16,
      "channels": {
        "0": {
          "ctab": {
            "srcChannel": 0,
            "name": "CC_Crash",
            "accType": "SUBRHYTHM",
            "editable": false,
            "mutedNotes": [],
            "mutedChords": [
              "1+2+5",
              "sus4",
              "1+5",
              "1+8",
              "7aug",
              "Maj7aug",
              "7(#9)",
              "7(b13)",
              "7(b9)",
              "7(13)",
              "7#11",
              "7(9)",
              "7b5",
              "7sus4",
              "7th",
              "dim7",
              "dim",
              "minMaj7(9)",
              "minMaj7",
              "min7(11)",
              "min7(9)",
              "min(9)",
              "m7b5",
              "min7",
              "min6",
              "min",
              "aug",
              "Maj6(9)",
              "Maj7(9)",
              "Maj(9)",
              "Maj7#11",
              "Maj7",
              "Maj6",
              "Maj"
            ],
            "autoStart": true,
            "sourceChordNote": 0,
            "sourceChordType": "Maj",
            "ctb2Low": null,
            "ctb2Main": {
              "ntr": "ROOT_FIXED",
              "ntt": "BYPASS",
              "bassOn": false,
              "chordRootUpperLimit": 0,
              "noteLowLimit": 0,
              "noteHighLimit": 127,
              "rtr": "RETRIGGER"
            },
            "ctb2High": null
          },
          "notes": []
        },
        "3": {
          "ctab": {
            "srcChannel": 3,
            "name": "EpRoot",
            "accType": "CHORD1",
            "editable": false,
            "mutedNotes": [],
            "mutedChords": [
              "1+2+5",
              "sus4",
              "1+5",
              "1+8",
              "Maj7aug",
              "dim",
              "minMaj7(9)",
              "minMaj7",
              "min6",
              "min",
              "aug",
              "Maj7(9)",
              "Maj7#11",
              "Maj7",
              "Maj6",
              "Maj"
            ],
            "autoStart": false,
            "sourceChordNote": 0,
            "sourceChordType": "Maj7",
            "ctb2Low": null,
            "ctb2Main": {
              "ntr": "ROOT_TRANSPOSITION",
              "ntt": "MELODY",
              "bassOn": false,
              "chordRootUpperLimit": 6,
              "noteLowLimit": 0,
              "noteHighLimit": 127,
              "rtr": "PITCH_SHIFT"
            },
            "ctb2High": null
          },
          "notes": [
            {
              "pitch": 60,
              "velocity": 45,
              "position": 0,
              "duration": 3.9895833333333335
            },
            {
              "pitch": 60,
              "velocity": 45,
              "position": 4,
              "duration": 3.9895833333333335
            },
            {
              "pitch": 60,
              "velocity": 45,
              "position": 8,
              "duration": 3.9895833333333335
            },
            {
              "pitch": 60,
              "velocity": 45,
              "position": 12,
              "duration": 3.9895833333333335
            }
          ]
        },
        "5": {
          "ctab": {
            "srcChannel": 5,
            "name": "PadRoot",
            "accType": "PAD",
            "editable": true,
            "mutedNotes": [],
            "mutedChords": [
              "1+2+5",
              "sus4",
              "1+5",
              "1+8",
              "Maj7aug",
              "dim",
              "minMaj7(9)",
              "minMaj7",
              "min6",
              "min",
              "aug",
              "Maj7(9)",
              "Maj7#11",
              "Maj7",
              "Maj6",
              "Maj"
            ],
            "autoStart": false,
            "sourceChordNote": 0,
            "sourceChordType": "Maj7",
            "ctb2Low": null,
            "ctb2Main": {
              "ntr": "ROOT_TRANSPOSITION",
              "ntt": "MELODY",
              "bassOn": false,
              "chordRootUpperLimit": 6,
              "noteLowLimit": 0,
              "noteHighLimit": 127,
              "rtr": "PITCH_SHIFT"
            },
            "ctb2High": null
          },
          "notes": [
            {
              "pitch": 60,
              "velocity": 68,
              "position": 0.010416666666666666,
              "duration": 15.979166666666666
            }
          ]
        },
        "8": {
          "ctab": {
            "srcChannel": 8,
            "name": "addDrums",
            "accType": "SUBRHYTHM",
            "editable": false,
            "mutedNotes": [],
            "mutedChords": [],
            "autoStart": true,
            "sourceChordNote": 0,
            "sourceChordType": "Maj7",
            "ctb2Low": null,
            "ctb2Main": {
              "ntr": "ROOT_FIXED",
              "ntt": "BYPASS",
              "bassOn": false,
              "chordRootUpperLimit": 6,
              "noteLowLimit": 0,
              "noteHighLimit": 127,
              "rtr": "PITCH_SHIFT"
            },
            "ctb2High": null
          },
          "notes": [
            {
              "pitch": 51,
              "velocity": 57,
              "position": 0,
              "duration": 0.010416666666666666
            },
            {
              "pitch": 82,
              "velocity": 92,
              "position": 0,
              "duration": 0.010416666666666666
            },
            {
              "pitch": 82,
              "velocity": 45,
              "position": 0.25,
              "duration": 0.010416666666666666
            },
            {
              "pitch": 82,
              "velocity": 38,
              "position": 0.5,
              "duration": 0.010416666666666666
            },
            {
              "pitch": 63,
              "velocity": 67,
              "position": 0.5,
              "duration": 0.08333333333333333
            },
            {
              "pitch": 82,
              "velocity": 99,
              "position": 0.75,
              "duration": 0.010416666666666666
            },
            {
              "pitch": 63,
              "velocity": 86,
              "position": 0.75,
              "duration": 0.11458333333333333
            },
            {
              "pitch": 54,
              "velocity": 90,
              "position": 1,
              "duration": 0.010416666666666666
            },
            {
              "pitch": 82,
              "velocity": 84,
              "position": 1,
              "duration": 0.010416666666666666
            },
            {
              "pitch": 62,
              "velocity": 107,
              "position": 1,
              "duration": 0.15625
            },
            {
              "pitch": 82,
              "velocity": 52,
              "position": 1.25,
              "duration": 0.010416666666666666
            },
            {
              "pitch": 82,
              "velocity": 37,
              "position": 1.5,
              "duration": 0.010416666666666666
            },
            {
              "pitch": 61,
              "velocity": 40,
              "position": 1.5,
              "duration": 0.22916666666666666
            },
            {
              "pitch": 82,
              "velocity": 99,
              "position": 1.75,
              "duration": 0.010416666666666666
            },
            {
              "pitch": 62,
              "velocity": 117,
              "position": 1.75,
              "duration": 0.17708333333333334
            },
            {
              "pitch": 82,
              "velocity": 74,
              "position": 2,
              "duration": 0.010416666666666666
            },
            {
              "pitch": 82,
              "velocity": 49,
              "position": 2.25,
              "duration": 0.010416666666666666
            },
            {
              "pitch": 61,
              "velocity": 29,
              "position": 2.25,
              "duration": 0.25
            },
            {
              "pitch": 82,
              "velocity": 45,
              "position": 2.5,
              "duration": 0.010416666666666666
            },
            {
              "pitch": 63,
              "velocity": 92,
              "position": 2.5,
              "duration": 0.11458333333333333
            },
            {
              "pitch": 82,
              "velocity": 92,
              "position": 2.75,
              "duration": 0.010416666666666666
            },
            {
              "pitch": 63,
              "velocity": 84,
              "position": 2.75,
              "duration": 0.125
            },
            {
              "pitch": 54,
              "velocity": 90,
              "position": 3,
              "duration": 0.010416666666666666
            },
            {
              "pitch": 75,
              "velocity": 100,
              "position": 3,
              "duration": 0.010416666666666666
            },
            {
              "pitch": 82,
              "velocity": 76,
              "position": 3,
              "duration": 0.010416666666666666
            },
            {
              "pitch": 64,
              "velocity": 103,
              "position": 3,
              "duration": 0.1875
            },
            {
              "pitch": 82,
              "velocity": 54,
              "position": 3.25,
              "duration": 0.010416666666666666
            },
            {
              "pitch": 82,
              "velocity": 48,
              "position": 3.5,
              "duration": 0.010416666666666666
            },
            {
              "pitch": 61,
              "velocity": 29,
              "position": 3.5,
              "duration": 0.19791666666666666
            },
            {
              "pitch": 51,
              "velocity": 48,
              "position": 3.75,
              "duration": 0.010416666666666666
            },
            {
              "pitch": 82,
              "velocity": 92,
              "position": 3.75,
              "duration": 0.010416666666666666
            },
            {
              "pitch": 64,
              "velocity": 103,
              "position": 3.75,
              "duration": 0.1875
            },
            {
              "pitch": 51,
              "velocity": 57,
              "position": 4,
              "duration": 0.010416666666666666
            },
            {
              "pitch": 82,
              "velocity": 88,
              "position": 4,
              "duration": 0.010416666666666666
            },
            {
              "pitch": 82,
              "velocity": 61,
              "position": 4.25,
              "duration": 0.010416666666666666
            },
            {
              "pitch": 61,
              "velocity": 44,
              "position": 4,
              "duration": 0.2916666666666667
            },
            {
              "pitch": 82,
              "velocity": 49,
              "position": 4.5,
              "duration": 0.010416666666666666
            },
            {
              "pitch": 63,
              "velocity": 99,
              "position": 4.5,
              "duration": 0.10416666666666667
            },
            {
              "pitch": 82,
              "velocity": 103,
              "position": 4.75,
              "duration": 0.010416666666666666
            },
            {
              "pitch": 63,
              "velocity": 99,
              "position": 4.75,
              "duration": 0.13541666666666666
            },
            {
              "pitch": 54,
              "velocity": 90,
              "position": 5,
              "duration": 0.010416666666666666
            },
            {
              "pitch": 82,
              "velocity": 76,
              "position": 5,
              "duration": 0.010416666666666666
            },
            {
              "pitch": 62,
              "velocity": 117,
              "position": 5,
              "duration": 0.14583333333333334
            },
            {
              "pitch": 82,
              "velocity": 61,
              "position": 5.25,
              "duration": 0.010416666666666666
            },
            {
              "pitch": 82,
              "velocity": 46,
              "position": 5.5,
              "duration": 0.010416666666666666
            },
            {
              "pitch": 61,
              "velocity": 29,
              "position": 5.5,
              "duration": 0.19791666666666666
            },
            {
              "pitch": 82,
              "velocity": 90,
              "position": 5.75,
              "duration": 0.010416666666666666
            },
            {
              "pitch": 62,
              "velocity": 123,
              "position": 5.75,
              "duration": 0.17708333333333334
            },
            {
              "pitch": 82,
              "velocity": 71,
              "position": 6,
              "duration": 0.010416666666666666
            },
            {
              "pitch": 82,
              "velocity": 54,
              "position": 6.25,
              "duration": 0.010416666666666666
            },
            {
              "pitch": 61,
              "velocity": 29,
              "position": 6.25,
              "duration": 0.22916666666666666
            },
            {
              "pitch": 82,
              "velocity": 48,
              "position": 6.5,
              "duration": 0.010416666666666666
            },
            {
              "pitch": 63,
              "velocity": 111,
              "position": 6.5,
              "duration": 0.11458333333333333
            },
            {
              "pitch": 82,
              "velocity": 95,
              "position": 6.75,
              "duration": 0.010416666666666666
            },
            {
              "pitch": 63,
              "velocity": 95,
              "position": 6.75,
              "duration": 0.11458333333333333
            },
            {
              "pitch": 54,
              "velocity": 90,
              "position": 7,
              "duration": 0.010416666666666666
            },
            {
              "pitch": 75,
              "velocity": 100,
              "position": 7,
              "duration": 0.010416666666666666
            },
            {
              "pitch": 82,
              "velocity": 71,
              "position": 7,
              "duration": 0.010416666666666666
            },
            {
              "pitch": 64,
              "velocity": 107,
              "position": 7,
              "duration": 0.14583333333333334
            },
            {
              "pitch": 82,
              "velocity": 57,
              "position": 7.25,
              "duration": 0.010416666666666666
            },
            {
              "pitch": 82,
              "velocity": 52,
              "position": 7.5,
              "duration": 0.010416666666666666
            },
            {
              "pitch": 61,
              "velocity": 31,
              "position": 7.5,
              "duration": 0.17708333333333334
            },
            {
              "pitch": 82,
              "velocity": 92,
              "position": 7.75,
              "duration": 0.010416666666666666
            },
            {
              "pitch": 64,
              "velocity": 117,
              "position": 7.75,
              "duration": 0.16666666666666666
            },
            {
              "pitch": 51,
              "velocity": 67,
              "position": 8,
              "duration": 0.010416666666666666
            },
            {
              "pitch": 82,
              "velocity": 74,
              "position": 8,
              "duration": 0.010416666666666666
            },
            {
              "pitch": 61,
              "velocity": 67,
              "position": 8,
              "duration": 0.19791666666666666
            },
            {
              "pitch": 82,
              "velocity": 59,
              "position": 8.25,
              "duration": 0.010416666666666666
            },
            {
              "pitch": 82,
              "velocity": 49,
              "position": 8.5,
              "duration": 0.010416666666666666
            },
            {
              "pitch": 63,
              "velocity": 114,
              "position": 8.5,
              "duration": 0.11458333333333333
            },
            {
              "pitch": 82,
              "velocity": 95,
              "position": 8.75,
              "duration": 0.010416666666666666
            },
            {
              "pitch": 63,
              "velocity": 79,
              "position": 8.75,
              "duration": 0.15625
            },
            {
              "pitch": 54,
              "velocity": 90,
              "position": 9,
              "duration": 0.010416666666666666
            },
            {
              "pitch": 82,
              "velocity": 71,
              "position": 9,
              "duration": 0.010416666666666666
            },
            {
              "pitch": 62,
              "velocity": 107,
              "position": 9,
              "duration": 0.14583333333333334
            },
            {
              "pitch": 82,
              "velocity": 49,
              "position": 9.25,
              "duration": 0.010416666666666666
            },
            {
              "pitch": 82,
              "velocity": 46,
              "position": 9.5,
              "duration": 0.010416666666666666
            },
            {
              "pitch": 61,
              "velocity": 38,
              "position": 9.5,
              "duration": 0.19791666666666666
            },
            {
              "pitch": 82,
              "velocity": 95,
              "position": 9.75,
              "duration": 0.010416666666666666
            },
            {
              "pitch": 62,
              "velocity": 117,
              "position": 9.75,
              "duration": 0.16666666666666666
            },
            {
              "pitch": 82,
              "velocity": 57,
              "position": 10,
              "duration": 0.010416666666666666
            },
            {
              "pitch": 82,
              "velocity": 46,
              "position": 10.25,
              "duration": 0.010416666666666666
            },
            {
              "pitch": 61,
              "velocity": 29,
              "position": 10.25,
              "duration": 0.22916666666666666
            },
            {
              "pitch": 82,
              "velocity": 51,
              "position": 10.5,
              "duration": 0.010416666666666666
            },
            {
              "pitch": 63,
              "velocity": 107,
              "position": 10.5,
              "duration": 0.11458333333333333
            },
            {
              "pitch": 82,
              "velocity": 95,
              "position": 10.75,
              "duration": 0.010416666666666666
            },
            {
              "pitch": 63,
              "velocity": 90,
              "position": 10.75,
              "duration": 0.13541666666666666
            },
            {
              "pitch": 54,
              "velocity": 90,
              "position": 11,
              "duration": 0.010416666666666666
            },
            {
              "pitch": 75,
              "velocity": 100,
              "position": 11,
              "duration": 0.010416666666666666
            },
            {
              "pitch": 82,
              "velocity": 58,
              "position": 11,
              "duration": 0.010416666666666666
            },
            {
              "pitch": 64,
              "velocity": 103,
              "position": 11,
              "duration": 0.17708333333333334
            },
            {
              "pitch": 82,
              "velocity": 52,
              "position": 11.25,
              "duration": 0.010416666666666666
            },
            {
              "pitch": 82,
              "velocity": 51,
              "position": 11.5,
              "duration": 0.010416666666666666
            },
            {
              "pitch": 61,
              "velocity": 38,
              "position": 11.5,
              "duration": 0.19791666666666666
            },
            {
              "pitch": 51,
              "velocity": 43,
              "position": 11.75,
              "duration": 0.010416666666666666
            },
            {
              "pitch": 82,
              "velocity": 92,
              "position": 11.75,
              "duration": 0.010416666666666666
            },
            {
              "pitch": 64,
              "velocity": 107,
              "position": 11.75,
              "duration": 0.1875
            },
            {
              "pitch": 51,
              "velocity": 61,
              "position": 12,
              "duration": 0.010416666666666666
            },
            {
              "pitch": 82,
              "velocity": 61,
              "position": 12,
              "duration": 0.010416666666666666
            },
            {
              "pitch": 61,
              "velocity": 67,
              "position": 12,
              "duration": 0.22916666666666666
            },
            {
              "pitch": 82,
              "velocity": 44,
              "position": 12.25,
              "duration": 0.010416666666666666
            },
            {
              "pitch": 82,
              "velocity": 57,
              "position": 12.5,
              "duration": 0.010416666666666666
            },
            {
              "pitch": 63,
              "velocity": 92,
              "position": 12.5,
              "duration": 0.09375
            },
            {
              "pitch": 82,
              "velocity": 95,
              "position": 12.75,
              "duration": 0.010416666666666666
            },
            {
              "pitch": 63,
              "velocity": 95,
              "position": 12.75,
              "duration": 0.15625
            },
            {
              "pitch": 54,
              "velocity": 90,
              "position": 13,
              "duration": 0.010416666666666666
            },
            {
              "pitch": 82,
              "velocity": 57,
              "position": 13,
              "duration": 0.010416666666666666
            },
            {
              "pitch": 62,
              "velocity": 114,
              "position": 13,
              "duration": 0.14583333333333334
            },
            {
              "pitch": 82,
              "velocity": 55,
              "position": 13.25,
              "duration": 0.010416666666666666
            },
            {
              "pitch": 82,
              "velocity": 57,
              "position": 13.5,
              "duration": 0.010416666666666666
            },
            {
              "pitch": 61,
              "velocity": 31,
              "position": 13.5,
              "duration": 0.17708333333333334
            },
            {
              "pitch": 82,
              "velocity": 95,
              "position": 13.75,
              "duration": 0.010416666666666666
            },
            {
              "pitch": 62,
              "velocity": 111,
              "position": 13.75,
              "duration": 0.16666666666666666
            },
            {
              "pitch": 82,
              "velocity": 65,
              "position": 14,
              "duration": 0.010416666666666666
            },
            {
              "pitch": 82,
              "velocity": 55,
              "position": 14.25,
              "duration": 0.010416666666666666
            },
            {
              "pitch": 61,
              "velocity": 32,
              "position": 14.25,
              "duration": 0.2604166666666667
            },
            {
              "pitch": 82,
              "velocity": 46,
              "position": 14.5,
              "duration": 0.010416666666666666
            },
            {
              "pitch": 63,
              "velocity": 99,
              "position": 14.5,
              "duration": 0.11458333333333333
            },
            {
              "pitch": 82,
              "velocity": 95,
              "position": 14.75,
              "duration": 0.010416666666666666
            },
            {
              "pitch": 63,
              "velocity": 99,
              "position": 14.75,
              "duration": 0.13541666666666666
            },
            {
              "pitch": 54,
              "velocity": 90,
              "position": 15,
              "duration": 0.010416666666666666
            },
            {
              "pitch": 75,
              "velocity": 100,
              "position": 15,
              "duration": 0.010416666666666666
            },
            {
              "pitch": 82,
              "velocity": 71,
              "position": 15,
              "duration": 0.010416666666666666
            },
            {
              "pitch": 64,
              "velocity": 107,
              "position": 15,
              "duration": 0.125
            },
            {
              "pitch": 82,
              "velocity": 58,
              "position": 15.25,
              "duration": 0.010416666666666666
            },
            {
              "pitch": 82,
              "velocity": 59,
              "position": 15.5,
              "duration": 0.010416666666666666
            },
            {
              "pitch": 61,
              "velocity": 36,
              "position": 15.5,
              "duration": 0.17708333333333334
            },
            {
              "pitch": 82,
              "velocity": 79,
              "position": 15.75,
              "duration": 0.010416666666666666
            },
            {
              "pitch": 64,
              "velocity": 120,
              "position": 15.75,
              "duration": 0.10416666666666667
            }
          ]
        },
        "9": {
          "ctab": {
            "srcChannel": 9,
            "name": "MainDrum",
            "accType": "RHYTHM",
            "editable": false,
            "mutedNotes": [],
            "mutedChords": [],
            "autoStart": true,
            "sourceChordNote": 0,
            "sourceChordType": "Maj7",
            "ctb2Low": null,
            "ctb2Main": {
              "ntr": "ROOT_FIXED",
              "ntt": "BYPASS",
              "bassOn": false,
              "chordRootUpperLimit": 6,
              "noteLowLimit": 0,
              "noteHighLimit": 127,
              "rtr": "PITCH_SHIFT"
            },
            "ctb2High": null
          },
          "notes": [
            {
              "pitch": 33,
              "velocity": 59,
              "position": 0,
              "duration": 0.010416666666666666
            },
            {
              "pitch": 42,
              "velocity": 45,
              "position": 0,
              "duration": 0.010416666666666666
            },
            {
              "pitch": 44,
              "velocity": 52,
              "position": 0.25,
              "duration": 0.010416666666666666
            },
            {
              "pitch": 42,
              "velocity": 25,
              "position": 0.5,
              "duration": 0.010416666666666666
            },
            {
              "pitch": 44,
              "velocity": 33,
              "position": 0.75,
              "duration": 0.010416666666666666
            },
            {
              "pitch": 25,
              "velocity": 121,
              "position": 1,
              "duration": 0.010416666666666666
            },
            {
              "pitch": 42,
              "velocity": 24,
              "position": 1,
              "duration": 0.010416666666666666
            },
            {
              "pitch": 44,
              "velocity": 41,
              "position": 1.25,
              "duration": 0.010416666666666666
            },
            {
              "pitch": 33,
              "velocity": 54,
              "position": 1.5,
              "duration": 0.010416666666666666
            },
            {
              "pitch": 42,
              "velocity": 21,
              "position": 1.5,
              "duration": 0.010416666666666666
            },
            {
              "pitch": 44,
              "velocity": 33,
              "position": 1.5,
              "duration": 0.010416666666666666
            },
            {
              "pitch": 42,
              "velocity": 23,
              "position": 1.75,
              "duration": 0.010416666666666666
            },
            {
              "pitch": 33,
              "velocity": 54,
              "position": 2,
              "duration": 0.010416666666666666
            },
            {
              "pitch": 44,
              "velocity": 38,
              "position": 2,
              "duration": 0.010416666666666666
            },
            {
              "pitch": 42,
              "velocity": 18,
              "position": 2.25,
              "duration": 0.010416666666666666
            },
            {
              "pitch": 44,
              "velocity": 30,
              "position": 2.5,
              "duration": 0.010416666666666666
            },
            {
              "pitch": 42,
              "velocity": 23,
              "position": 2.75,
              "duration": 0.010416666666666666
            },
            {
              "pitch": 25,
              "velocity": 121,
              "position": 3,
              "duration": 0.010416666666666666
            },
            {
              "pitch": 44,
              "velocity": 34,
              "position": 3,
              "duration": 0.010416666666666666
            },
            {
              "pitch": 42,
              "velocity": 22,
              "position": 3.25,
              "duration": 0.010416666666666666
            },
            {
              "pitch": 44,
              "velocity": 34,
              "position": 3.5,
              "duration": 0.010416666666666666
            },
            {
              "pitch": 33,
              "velocity": 22,
              "position": 3.75,
              "duration": 0.010416666666666666
            },
            {
              "pitch": 46,
              "velocity": 29,
              "position": 3.75,
              "duration": 0.010416666666666666
            },
            {
              "pitch": 33,
              "velocity": 49,
              "position": 4,
              "duration": 0.010416666666666666
            },
            {
              "pitch": 44,
              "velocity": 27,
              "position": 4,
              "duration": 0.010416666666666666
            },
            {
              "pitch": 42,
              "velocity": 24,
              "position": 4.25,
              "duration": 0.010416666666666666
            },
            {
              "pitch": 44,
              "velocity": 28,
              "position": 4.5,
              "duration": 0.010416666666666666
            },
            {
              "pitch": 42,
              "velocity": 27,
              "position": 4.75,
              "duration": 0.010416666666666666
            },
            {
              "pitch": 25,
              "velocity": 121,
              "position": 5,
              "duration": 0.010416666666666666
            },
            {
              "pitch": 44,
              "velocity": 40,
              "position": 5,
              "duration": 0.010416666666666666
            },
            {
              "pitch": 42,
              "velocity": 22,
              "position": 5.25,
              "duration": 0.010416666666666666
            },
            {
              "pitch": 33,
              "velocity": 42,
              "position": 5.5,
              "duration": 0.010416666666666666
            },
            {
              "pitch": 44,
              "velocity": 26,
              "position": 5.5,
              "duration": 0.010416666666666666
            },
            {
              "pitch": 42,
              "velocity": 17,
              "position": 5.75,
              "duration": 0.010416666666666666
            },
            {
              "pitch": 33,
              "velocity": 42,
              "position": 6,
              "duration": 0.010416666666666666
            },
            {
              "pitch": 44,
              "velocity": 31,
              "position": 6,
              "duration": 0.010416666666666666
            },
            {
              "pitch": 42,
              "velocity": 19,
              "position": 6.25,
              "duration": 0.010416666666666666
            },
            {
              "pitch": 44,
              "velocity": 35,
              "position": 6.5,
              "duration": 0.010416666666666666
            },
            {
              "pitch": 42,
              "velocity": 23,
              "position": 6.75,
              "duration": 0.010416666666666666
            },
            {
              "pitch": 25,
              "velocity": 121,
              "position": 7,
              "duration": 0.010416666666666666
            },
            {
              "pitch": 44,
              "velocity": 35,
              "position": 7,
              "duration": 0.010416666666666666
            },
            {
              "pitch": 42,
              "velocity": 23,
              "position": 7.25,
              "duration": 0.010416666666666666
            },
            {
              "pitch": 44,
              "velocity": 33,
              "position": 7.5,
              "duration": 0.010416666666666666
            },
            {
              "pitch": 42,
              "velocity": 18,
              "position": 7.75,
              "duration": 0.010416666666666666
            },
            {
              "pitch": 33,
              "velocity": 59,
              "position": 8,
              "duration": 0.010416666666666666
            },
            {
              "pitch": 44,
              "velocity": 41,
              "position": 8,
              "duration": 0.010416666666666666
            },
            {
              "pitch": 42,
              "velocity": 24,
              "position": 8.25,
              "duration": 0.010416666666666666
            },
            {
              "pitch": 44,
              "velocity": 32,
              "position": 8.5,
              "duration": 0.010416666666666666
            },
            {
              "pitch": 42,
              "velocity": 19,
              "position": 8.75,
              "duration": 0.010416666666666666
            },
            {
              "pitch": 25,
              "velocity": 121,
              "position": 9,
              "duration": 0.010416666666666666
            },
            {
              "pitch": 44,
              "velocity": 34,
              "position": 9,
              "duration": 0.010416666666666666
            },
            {
              "pitch": 42,
              "velocity": 27,
              "position": 9.25,
              "duration": 0.010416666666666666
            },
            {
              "pitch": 33,
              "velocity": 42,
              "position": 9.5,
              "duration": 0.010416666666666666
            },
            {
              "pitch": 44,
              "velocity": 23,
              "position": 9.5,
              "duration": 0.010416666666666666
            },
            {
              "pitch": 42,
              "velocity": 23,
              "position": 9.75,
              "duration": 0.010416666666666666
            },
            {
              "pitch": 33,
              "velocity": 49,
              "position": 10,
              "duration": 0.010416666666666666
            },
            {
              "pitch": 44,
              "velocity": 35,
              "position": 10,
              "duration": 0.010416666666666666
            },
            {
              "pitch": 42,
              "velocity": 26,
              "position": 10.25,
              "duration": 0.010416666666666666
            },
            {
              "pitch": 44,
              "velocity": 24,
              "position": 10.5,
              "duration": 0.010416666666666666
            },
            {
              "pitch": 42,
              "velocity": 23,
              "position": 10.75,
              "duration": 0.010416666666666666
            },
            {
              "pitch": 25,
              "velocity": 121,
              "position": 11,
              "duration": 0.010416666666666666
            },
            {
              "pitch": 44,
              "velocity": 32,
              "position": 11,
              "duration": 0.010416666666666666
            },
            {
              "pitch": 42,
              "velocity": 27,
              "position": 11.25,
              "duration": 0.010416666666666666
            },
            {
              "pitch": 44,
              "velocity": 36,
              "position": 11.5,
              "duration": 0.010416666666666666
            },
            {
              "pitch": 33,
              "velocity": 17,
              "position": 11.75,
              "duration": 0.010416666666666666
            },
            {
              "pitch": 46,
              "velocity": 28,
              "position": 11.75,
              "duration": 0.010416666666666666
            },
            {
              "pitch": 33,
              "velocity": 54,
              "position": 12,
              "duration": 0.010416666666666666
            },
            {
              "pitch": 44,
              "velocity": 27,
              "position": 12,
              "duration": 0.010416666666666666
            },
            {
              "pitch": 42,
              "velocity": 18,
              "position": 12.25,
              "duration": 0.010416666666666666
            },
            {
              "pitch": 44,
              "velocity": 33,
              "position": 12.5,
              "duration": 0.010416666666666666
            },
            {
              "pitch": 42,
              "velocity": 23,
              "position": 12.75,
              "duration": 0.010416666666666666
            },
            {
              "pitch": 25,
              "velocity": 121,
              "position": 13,
              "duration": 0.010416666666666666
            },
            {
              "pitch": 44,
              "velocity": 40,
              "position": 13,
              "duration": 0.010416666666666666
            },
            {
              "pitch": 42,
              "velocity": 19,
              "position": 13.25,
              "duration": 0.010416666666666666
            },
            {
              "pitch": 33,
              "velocity": 42,
              "position": 13.5,
              "duration": 0.010416666666666666
            },
            {
              "pitch": 44,
              "velocity": 38,
              "position": 13.5,
              "duration": 0.010416666666666666
            },
            {
              "pitch": 42,
              "velocity": 27,
              "position": 13.75,
              "duration": 0.010416666666666666
            },
            {
              "pitch": 33,
              "velocity": 47,
              "position": 14,
              "duration": 0.010416666666666666
            },
            {
              "pitch": 44,
              "velocity": 41,
              "position": 14,
              "duration": 0.010416666666666666
            },
            {
              "pitch": 42,
              "velocity": 23,
              "position": 14.25,
              "duration": 0.010416666666666666
            },
            {
              "pitch": 44,
              "velocity": 38,
              "position": 14.5,
              "duration": 0.010416666666666666
            },
            {
              "pitch": 42,
              "velocity": 23,
              "position": 14.75,
              "duration": 0.010416666666666666
            },
            {
              "pitch": 25,
              "velocity": 121,
              "position": 15,
              "duration": 0.010416666666666666
            },
            {
              "pitch": 44,
              "velocity": 38,
              "position": 15,
              "duration": 0.010416666666666666
            },
            {
              "pitch": 42,
              "velocity": 21,
              "position": 15.25,
              "duration": 0.010416666666666666
            },
            {
              "pitch": 44,
              "velocity": 40,
              "position": 15.5,
              "duration": 0.010416666666666666
            },
            {
              "pitch": 42,
              "velocity": 14,
              "position": 15.75,
              "duration": 0.010416666666666666
            }
          ]
        },
        "10": {
          "ctab": {
            "srcChannel": 10,
            "name": "Bass",
            "accType": "BASS",
            "editable": false,
            "mutedNotes": [],
            "mutedChords": [],
            "autoStart": false,
            "sourceChordNote": 0,
            "sourceChordType": "Maj7",
            "ctb2Low": null,
            "ctb2Main": {
              "ntr": "ROOT_TRANSPOSITION",
              "ntt": "MELODY",
              "bassOn": true,
              "chordRootUpperLimit": 3,
              "noteLowLimit": 28,
              "noteHighLimit": 39,
              "rtr": "PITCH_SHIFT_TO_ROOT"
            },
            "ctb2High": null
          },
          "notes": [
            {
              "pitch": 24,
              "velocity": 100,
              "position": 0,
              "duration": 1.3541666666666667
            },
            {
              "pitch": 24,
              "velocity": 91,
              "position": 1.5,
              "duration": 0.4479166666666667
            },
            {
              "pitch": 24,
              "velocity": 99,
              "position": 2,
              "duration": 1.6145833333333333
            },
            {
              "pitch": 31,
              "velocity": 100,
              "position": 3.75,
              "duration": 0.22916666666666666
            },
            {
              "pitch": 24,
              "velocity": 95,
              "position": 4,
              "duration": 1.3541666666666667
            },
            {
              "pitch": 24,
              "velocity": 97,
              "position": 5.5,
              "duration": 0.4375
            },
            {
              "pitch": 24,
              "velocity": 99,
              "position": 6,
              "duration": 1.9375
            },
            {
              "pitch": 24,
              "velocity": 93,
              "position": 8,
              "duration": 1.3020833333333333
            },
            {
              "pitch": 24,
              "velocity": 95,
              "position": 9.5,
              "duration": 0.4479166666666667
            },
            {
              "pitch": 24,
              "velocity": 100,
              "position": 10,
              "duration": 1.7395833333333333
            },
            {
              "pitch": 31,
              "velocity": 82,
              "position": 11.75,
              "duration": 0.23958333333333334
            },
            {
              "pitch": 24,
              "velocity": 99,
              "position": 12,
              "duration": 1.3229166666666667
            },
            {
              "pitch": 24,
              "velocity": 100,
              "position": 13.5,
              "duration": 0.4583333333333333
            },
            {
              "pitch": 24,
              "velocity": 87,
              "position": 14,
              "duration": 1.7604166666666667
            }
          ]
        },
        "11": {
          "ctab": {
            "srcChannel": 11,
            "name": "Ep",
            "accType": "CHORD1",
            "editable": false,
            "mutedNotes": [],
            "mutedChords": [],
            "autoStart": false,
            "sourceChordNote": 0,
            "sourceChordType": "Maj7",
            "ctb2Low": null,
            "ctb2Main": {
              "ntr": "ROOT_FIXED",
              "ntt": "CHORD",
              "bassOn": false,
              "chordRootUpperLimit": 7,
              "noteLowLimit": 50,
              "noteHighLimit": 127,
              "rtr": "PITCH_SHIFT"
            },
            "ctb2High": null
          },
          "notes": [
            {
              "pitch": 55,
              "velocity": 47,
              "position": 0,
              "duration": 3.9895833333333335
            },
            {
              "pitch": 59,
              "velocity": 47,
              "position": 0,
              "duration": 3.9895833333333335
            },
            {
              "pitch": 64,
              "velocity": 47,
              "position": 0,
              "duration": 3.9895833333333335
            },
            {
              "pitch": 55,
              "velocity": 47,
              "position": 4,
              "duration": 3.9895833333333335
            },
            {
              "pitch": 59,
              "velocity": 47,
              "position": 4,
              "duration": 3.9895833333333335
            },
            {
              "pitch": 64,
              "velocity": 47,
              "position": 4,
              "duration": 3.9895833333333335
            },
            {
              "pitch": 55,
              "velocity": 47,
              "position": 8,
              "duration": 3.9895833333333335
            },
            {
              "pitch": 59,
              "velocity": 47,
              "position": 8,
              "duration": 3.9895833333333335
            },
            {
              "pitch": 64,
              "velocity": 47,
              "position": 8,
              "duration": 3.9895833333333335
            },
            {
              "pitch": 55,
              "velocity": 47,
              "position": 12,
              "duration": 3.9895833333333335
            },
            {
              "pitch": 59,
              "velocity": 47,
              "position": 12,
              "duration": 3.9895833333333335
            },
            {
              "pitch": 64,
              "velocity": 47,
              "position": 12,
              "duration": 3.9895833333333335
            }
          ]
        },
        "12": {
          "ctab": {
            "srcChannel": 12,
            "name": "Nylon",
            "accType": "CHORD2",
            "editable": false,
            "mutedNotes": [],
            "mutedChords": [],
            "autoStart": false,
            "sourceChordNote": 0,
            "sourceChordType": "Maj7",
            "ctb2Low": null,
            "ctb2Main": {
              "ntr": "ROOT_FIXED",
              "ntt": "CHORD",
              "bassOn": false,
              "chordRootUpperLimit": 7,
              "noteLowLimit": 0,
              "noteHighLimit": 127,
              "rtr": "PITCH_SHIFT"
            },
            "ctb2High": null
          },
          "notes": []
        },
        "13": {
          "ctab": {
            "srcChannel": 13,
            "name": "Pad",
            "accType": "PAD",
            "editable": false,
            "mutedNotes": [],
            "mutedChords": [],
            "autoStart": false,
            "sourceChordNote": 0,
            "sourceChordType": "Maj7",
            "ctb2Low": null,
            "ctb2Main": {
              "ntr": "ROOT_FIXED",
              "ntt": "CHORD",
              "bassOn": false,
              "chordRootUpperLimit": 7,
              "noteLowLimit": 0,
              "noteHighLimit": 127,
              "rtr": "PITCH_SHIFT"
            },
            "ctb2High": null
          },
          "notes": [
            {
              "pitch": 55,
              "velocity": 68,
              "position": 0.010416666666666666,
              "duration": 15.979166666666666
            },
            {
              "pitch": 59,
              "velocity": 68,
              "position": 0.010416666666666666,
              "duration": 15.979166666666666
            },
            {
              "pitch": 64,
              "velocity": 68,
              "position": 0.010416666666666666,
              "duration": 15.979166666666666
            }
          ]
        },
        "14": {
          "ctab": {
            "srcChannel": 14,
            "name": "MutedGtr",
            "accType": "PHRASE1",
            "editable": false,
            "mutedNotes": [],
            "mutedChords": [],
            "autoStart": false,
            "sourceChordNote": 0,
            "sourceChordType": "Maj7",
            "ctb2Low": null,
            "ctb2Main": {
              "ntr": "ROOT_FIXED",
              "ntt": "CHORD",
              "bassOn": false,
              "chordRootUpperLimit": 5,
              "noteLowLimit": 52,
              "noteHighLimit": 127,
              "rtr": "PITCH_SHIFT"
            },
            "ctb2High": null
          },
          "notes": [
            {
              "pitch": 48,
              "velocity": 71,
              "position": 0.75,
              "duration": 0.1875
            },
            {
              "pitch": 48,
              "velocity": 50,
              "position": 1.25,
              "duration": 0.20833333333333334
            },
            {
              "pitch": 48,
              "velocity": 55,
              "position": 2,
              "duration": 0.2708333333333333
            },
            {
              "pitch": 48,
              "velocity": 50,
              "position": 2.5,
              "duration": 0.2708333333333333
            },
            {
              "pitch": 48,
              "velocity": 71,
              "position": 4.75,
              "duration": 0.1875
            },
            {
              "pitch": 48,
              "velocity": 66,
              "position": 5.25,
              "duration": 0.20833333333333334
            },
            {
              "pitch": 43,
              "velocity": 39,
              "position": 5.5,
              "duration": 0.28125
            },
            {
              "pitch": 47,
              "velocity": 51,
              "position": 5.75,
              "duration": 0.25
            },
            {
              "pitch": 48,
              "velocity": 55,
              "position": 6,
              "duration": 0.2708333333333333
            },
            {
              "pitch": 48,
              "velocity": 56,
              "position": 6.5,
              "duration": 0.19791666666666666
            },
            {
              "pitch": 48,
              "velocity": 71,
              "position": 8.75,
              "duration": 0.23958333333333334
            },
            {
              "pitch": 48,
              "velocity": 48,
              "position": 9.25,
              "duration": 0.22916666666666666
            },
            {
              "pitch": 48,
              "velocity": 56,
              "position": 10,
              "duration": 0.2708333333333333
            },
            {
              "pitch": 48,
              "velocity": 54,
              "position": 10.5,
              "duration": 0.28125
            },
            {
              "pitch": 48,
              "velocity": 68,
              "position": 12.75,
              "duration": 0.20833333333333334
            },
            {
              "pitch": 48,
              "velocity": 63,
              "position": 13.25,
              "duration": 0.22916666666666666
            },
            {
              "pitch": 43,
              "velocity": 45,
              "position": 13.5,
              "duration": 0.21875
            },
            {
              "pitch": 47,
              "velocity": 50,
              "position": 13.75,
              "duration": 0.22916666666666666
            },
            {
              "pitch": 48,
              "velocity": 48,
              "position": 14,
              "duration": 0.3020833333333333
            },
            {
              "pitch": 48,
              "velocity": 51,
              "position": 14.5,
              "duration": 0.2604166666666667
            }
          ]
        },
        "15": {
          "ctab": {
            "srcChannel": 15,
            "name": "Pad2",
            "accType": "PHRASE2",
            "editable": false,
            "mutedNotes": [],
            "mutedChords": [],
            "autoStart": false,
            "sourceChordNote": 0,
            "sourceChordType": "Maj7",
            "ctb2Low": null,
            "ctb2Main": {
              "ntr": "ROOT_FIXED",
              "ntt": "CHORD",
              "bassOn": false,
              "chordRootUpperLimit": 7,
              "noteLowLimit": 0,
              "noteHighLimit": 127,
              "rtr": "PITCH_SHIFT"
            },
            "ctb2High": null
          },
          "notes": []
        }
      }
    },
    "Main_C": {
      "type": "Main_C",
      "sizeInBeats": 16,
      "channels": {
        "0": {
          "ctab": {
            "srcChannel": 0,
            "name": "CC_Crash",
            "accType": "SUBRHYTHM",
            "editable": false,
            "mutedNotes": [],
            "mutedChords": [
              "1+2+5",
              "sus4",
              "1+5",
              "1+8",
              "7aug",
              "Maj7aug",
              "7(#9)",
              "7(b13)",
              "7(b9)",
              "7(13)",
              "7#11",
              "7(9)",
              "7b5",
              "7sus4",
              "7th",
              "dim7",
              "dim",
              "minMaj7(9)",
              "minMaj7",
              "min7(11)",
              "min7(9)",
              "min(9)",
              "m7b5",
              "min7",
              "min6",
              "min",
              "aug",
              "Maj6(9)",
              "Maj7(9)",
              "Maj(9)",
              "Maj7#11",
              "Maj7",
              "Maj6",
              "Maj"
            ],
            "autoStart": true,
            "sourceChordNote": 0,
            "sourceChordType": "Maj",
            "ctb2Low": null,
            "ctb2Main": {
              "ntr": "ROOT_FIXED",
              "ntt": "BYPASS",
              "bassOn": false,
              "chordRootUpperLimit": 0,
              "noteLowLimit": 0,
              "noteHighLimit": 127,
              "rtr": "RETRIGGER"
            },
            "ctb2High": null
          },
          "notes": []
        },
        "3": {
          "ctab": {
            "srcChannel": 3,
            "name": "EpRoot",
            "accType": "CHORD1",
            "editable": false,
            "mutedNotes": [],
            "mutedChords": [
              "1+2+5",
              "sus4",
              "1+5",
              "1+8",
              "Maj7aug",
              "dim",
              "minMaj7(9)",
              "minMaj7",
              "min6",
              "min",
              "aug",
              "Maj7(9)",
              "Maj7#11",
              "Maj7",
              "Maj6",
              "Maj"
            ],
            "autoStart": false,
            "sourceChordNote": 0,
            "sourceChordType": "Maj7",
            "ctb2Low": null,
            "ctb2Main": {
              "ntr": "ROOT_TRANSPOSITION",
              "ntt": "MELODY",
              "bassOn": false,
              "chordRootUpperLimit": 6,
              "noteLowLimit": 0,
              "noteHighLimit": 127,
              "rtr": "PITCH_SHIFT"
            },
            "ctb2High": null
          },
          "notes": [
            {
              "pitch": 60,
              "velocity": 46,
              "position": 0,
              "duration": 3.1354166666666665
            },
            {
              "pitch": 60,
              "velocity": 46,
              "position": 3.25,
              "duration": 0.15625
            },
            {
              "pitch": 60,
              "velocity": 46,
              "position": 4,
              "duration": 3.75
            },
            {
              "pitch": 60,
              "velocity": 46,
              "position": 8,
              "duration": 3.125
            },
            {
              "pitch": 60,
              "velocity": 46,
              "position": 11.25,
              "duration": 0.14583333333333334
            },
            {
              "pitch": 60,
              "velocity": 46,
              "position": 12,
              "duration": 3.5104166666666665
            }
          ]
        },
        "5": {
          "ctab": {
            "srcChannel": 5,
            "name": "PadRoot",
            "accType": "PAD",
            "editable": true,
            "mutedNotes": [],
            "mutedChords": [
              "1+2+5",
              "sus4",
              "1+5",
              "1+8",
              "Maj7aug",
              "dim",
              "minMaj7(9)",
              "minMaj7",
              "min6",
              "min",
              "aug",
              "Maj7(9)",
              "Maj7#11",
              "Maj7",
              "Maj6",
              "Maj"
            ],
            "autoStart": false,
            "sourceChordNote": 0,
            "sourceChordType": "Maj7",
            "ctb2Low": null,
            "ctb2Main": {
              "ntr": "ROOT_TRANSPOSITION",
              "ntt": "MELODY",
              "bassOn": false,
              "chordRootUpperLimit": 6,
              "noteLowLimit": 0,
              "noteHighLimit": 127,
              "rtr": "PITCH_SHIFT"
            },
            "ctb2High": null
          },
          "notes": [
            {
              "pitch": 60,
              "velocity": 70,
              "position": 0.010416666666666666,
              "duration": 15.979166666666666
            }
          ]
        },
        "8": {
          "ctab": {
            "srcChannel": 8,
            "name": "addDrums",
            "accType": "SUBRHYTHM",
            "editable": false,
            "mutedNotes": [],
            "mutedChords": [],
            "autoStart": true,
            "sourceChordNote": 0,
            "sourceChordType": "Maj7",
            "ctb2Low": null,
            "ctb2Main": {
              "ntr": "ROOT_FIXED",
              "ntt": "BYPASS",
              "bassOn": false,
              "chordRootUpperLimit": 6,
              "noteLowLimit": 0,
              "noteHighLimit": 127,
              "rtr": "PITCH_SHIFT"
            },
            "ctb2High": null
          },
          "notes": [
            {
              "pitch": 51,
              "velocity": 60,
              "position": 0,
              "duration": 0.010416666666666666
            },
            {
              "pitch": 61,
              "velocity": 54,
              "position": 0,
              "duration": 0.010416666666666666
            },
            {
              "pitch": 69,
              "velocity": 54,
              "position": 0,
              "duration": 0.010416666666666666
            },
            {
              "pitch": 75,
              "velocity": 60,
              "position": 0,
              "duration": 0.010416666666666666
            },
            {
              "pitch": 82,
              "velocity": 92,
              "position": 0,
              "duration": 0.010416666666666666
            },
            {
              "pitch": 82,
              "velocity": 45,
              "position": 0.25,
              "duration": 0.010416666666666666
            },
            {
              "pitch": 63,
              "velocity": 111,
              "position": 0.5,
              "duration": 0.010416666666666666
            },
            {
              "pitch": 82,
              "velocity": 38,
              "position": 0.5,
              "duration": 0.010416666666666666
            },
            {
              "pitch": 63,
              "velocity": 82,
              "position": 0.75,
              "duration": 0.010416666666666666
            },
            {
              "pitch": 69,
              "velocity": 54,
              "position": 0.75,
              "duration": 0.010416666666666666
            },
            {
              "pitch": 75,
              "velocity": 60,
              "position": 0.75,
              "duration": 0.010416666666666666
            },
            {
              "pitch": 82,
              "velocity": 99,
              "position": 0.75,
              "duration": 0.010416666666666666
            },
            {
              "pitch": 51,
              "velocity": 54,
              "position": 1,
              "duration": 0.010416666666666666
            },
            {
              "pitch": 54,
              "velocity": 90,
              "position": 1,
              "duration": 0.010416666666666666
            },
            {
              "pitch": 62,
              "velocity": 107,
              "position": 1,
              "duration": 0.010416666666666666
            },
            {
              "pitch": 82,
              "velocity": 84,
              "position": 1,
              "duration": 0.010416666666666666
            },
            {
              "pitch": 82,
              "velocity": 52,
              "position": 1.25,
              "duration": 0.010416666666666666
            },
            {
              "pitch": 61,
              "velocity": 38,
              "position": 1.5,
              "duration": 0.010416666666666666
            },
            {
              "pitch": 69,
              "velocity": 57,
              "position": 1.5,
              "duration": 0.010416666666666666
            },
            {
              "pitch": 75,
              "velocity": 60,
              "position": 1.5,
              "duration": 0.010416666666666666
            },
            {
              "pitch": 82,
              "velocity": 37,
              "position": 1.5,
              "duration": 0.010416666666666666
            },
            {
              "pitch": 63,
              "velocity": 117,
              "position": 1.75,
              "duration": 0.010416666666666666
            },
            {
              "pitch": 82,
              "velocity": 99,
              "position": 1.75,
              "duration": 0.010416666666666666
            },
            {
              "pitch": 51,
              "velocity": 51,
              "position": 2,
              "duration": 0.010416666666666666
            },
            {
              "pitch": 82,
              "velocity": 74,
              "position": 2,
              "duration": 0.010416666666666666
            },
            {
              "pitch": 61,
              "velocity": 41,
              "position": 2.25,
              "duration": 0.010416666666666666
            },
            {
              "pitch": 82,
              "velocity": 49,
              "position": 2.25,
              "duration": 0.010416666666666666
            },
            {
              "pitch": 62,
              "velocity": 103,
              "position": 2.5,
              "duration": 0.010416666666666666
            },
            {
              "pitch": 82,
              "velocity": 45,
              "position": 2.5,
              "duration": 0.010416666666666666
            },
            {
              "pitch": 62,
              "velocity": 67,
              "position": 2.75,
              "duration": 0.010416666666666666
            },
            {
              "pitch": 82,
              "velocity": 92,
              "position": 2.75,
              "duration": 0.010416666666666666
            },
            {
              "pitch": 51,
              "velocity": 56,
              "position": 3,
              "duration": 0.010416666666666666
            },
            {
              "pitch": 54,
              "velocity": 90,
              "position": 3,
              "duration": 0.010416666666666666
            },
            {
              "pitch": 63,
              "velocity": 86,
              "position": 3,
              "duration": 0.010416666666666666
            },
            {
              "pitch": 82,
              "velocity": 76,
              "position": 3,
              "duration": 0.010416666666666666
            },
            {
              "pitch": 64,
              "velocity": 76,
              "position": 3.25,
              "duration": 0.010416666666666666
            },
            {
              "pitch": 82,
              "velocity": 54,
              "position": 3.25,
              "duration": 0.010416666666666666
            },
            {
              "pitch": 61,
              "velocity": 34,
              "position": 3.5,
              "duration": 0.010416666666666666
            },
            {
              "pitch": 82,
              "velocity": 48,
              "position": 3.5,
              "duration": 0.010416666666666666
            },
            {
              "pitch": 60,
              "velocity": 74,
              "position": 3.75,
              "duration": 0.010416666666666666
            },
            {
              "pitch": 82,
              "velocity": 92,
              "position": 3.75,
              "duration": 0.010416666666666666
            },
            {
              "pitch": 51,
              "velocity": 55,
              "position": 4,
              "duration": 0.010416666666666666
            },
            {
              "pitch": 61,
              "velocity": 45,
              "position": 4,
              "duration": 0.010416666666666666
            },
            {
              "pitch": 69,
              "velocity": 47,
              "position": 4,
              "duration": 0.010416666666666666
            },
            {
              "pitch": 75,
              "velocity": 60,
              "position": 4,
              "duration": 0.010416666666666666
            },
            {
              "pitch": 82,
              "velocity": 88,
              "position": 4,
              "duration": 0.010416666666666666
            },
            {
              "pitch": 82,
              "velocity": 61,
              "position": 4.25,
              "duration": 0.010416666666666666
            },
            {
              "pitch": 62,
              "velocity": 103,
              "position": 4.5,
              "duration": 0.010416666666666666
            },
            {
              "pitch": 82,
              "velocity": 49,
              "position": 4.5,
              "duration": 0.010416666666666666
            },
            {
              "pitch": 62,
              "velocity": 76,
              "position": 4.75,
              "duration": 0.010416666666666666
            },
            {
              "pitch": 69,
              "velocity": 50,
              "position": 4.75,
              "duration": 0.010416666666666666
            },
            {
              "pitch": 75,
              "velocity": 60,
              "position": 4.75,
              "duration": 0.010416666666666666
            },
            {
              "pitch": 82,
              "velocity": 103,
              "position": 4.75,
              "duration": 0.010416666666666666
            },
            {
              "pitch": 51,
              "velocity": 60,
              "position": 5,
              "duration": 0.010416666666666666
            },
            {
              "pitch": 54,
              "velocity": 90,
              "position": 5,
              "duration": 0.010416666666666666
            },
            {
              "pitch": 63,
              "velocity": 117,
              "position": 5,
              "duration": 0.010416666666666666
            },
            {
              "pitch": 82,
              "velocity": 76,
              "position": 5,
              "duration": 0.010416666666666666
            },
            {
              "pitch": 82,
              "velocity": 61,
              "position": 5.25,
              "duration": 0.010416666666666666
            },
            {
              "pitch": 61,
              "velocity": 39,
              "position": 5.5,
              "duration": 0.010416666666666666
            },
            {
              "pitch": 69,
              "velocity": 48,
              "position": 5.5,
              "duration": 0.010416666666666666
            },
            {
              "pitch": 75,
              "velocity": 60,
              "position": 5.5,
              "duration": 0.010416666666666666
            },
            {
              "pitch": 82,
              "velocity": 46,
              "position": 5.5,
              "duration": 0.010416666666666666
            },
            {
              "pitch": 63,
              "velocity": 117,
              "position": 5.75,
              "duration": 0.010416666666666666
            },
            {
              "pitch": 82,
              "velocity": 90,
              "position": 5.75,
              "duration": 0.010416666666666666
            },
            {
              "pitch": 51,
              "velocity": 61,
              "position": 6,
              "duration": 0.010416666666666666
            },
            {
              "pitch": 82,
              "velocity": 71,
              "position": 6,
              "duration": 0.010416666666666666
            },
            {
              "pitch": 61,
              "velocity": 43,
              "position": 6.25,
              "duration": 0.010416666666666666
            },
            {
              "pitch": 82,
              "velocity": 54,
              "position": 6.25,
              "duration": 0.010416666666666666
            },
            {
              "pitch": 62,
              "velocity": 107,
              "position": 6.5,
              "duration": 0.010416666666666666
            },
            {
              "pitch": 82,
              "velocity": 48,
              "position": 6.5,
              "duration": 0.010416666666666666
            },
            {
              "pitch": 62,
              "velocity": 74,
              "position": 6.75,
              "duration": 0.010416666666666666
            },
            {
              "pitch": 82,
              "velocity": 95,
              "position": 6.75,
              "duration": 0.010416666666666666
            },
            {
              "pitch": 51,
              "velocity": 60,
              "position": 7,
              "duration": 0.010416666666666666
            },
            {
              "pitch": 54,
              "velocity": 90,
              "position": 7,
              "duration": 0.010416666666666666
            },
            {
              "pitch": 61,
              "velocity": 39,
              "position": 7,
              "duration": 0.010416666666666666
            },
            {
              "pitch": 82,
              "velocity": 71,
              "position": 7,
              "duration": 0.010416666666666666
            },
            {
              "pitch": 63,
              "velocity": 111,
              "position": 7.25,
              "duration": 0.010416666666666666
            },
            {
              "pitch": 82,
              "velocity": 57,
              "position": 7.25,
              "duration": 0.010416666666666666
            },
            {
              "pitch": 61,
              "velocity": 52,
              "position": 7.5,
              "duration": 0.010416666666666666
            },
            {
              "pitch": 82,
              "velocity": 52,
              "position": 7.5,
              "duration": 0.010416666666666666
            },
            {
              "pitch": 64,
              "velocity": 99,
              "position": 7.75,
              "duration": 0.010416666666666666
            },
            {
              "pitch": 82,
              "velocity": 92,
              "position": 7.75,
              "duration": 0.010416666666666666
            },
            {
              "pitch": 51,
              "velocity": 59,
              "position": 8,
              "duration": 0.010416666666666666
            },
            {
              "pitch": 61,
              "velocity": 57,
              "position": 8,
              "duration": 0.010416666666666666
            },
            {
              "pitch": 69,
              "velocity": 48,
              "position": 8,
              "duration": 0.010416666666666666
            },
            {
              "pitch": 75,
              "velocity": 60,
              "position": 8,
              "duration": 0.010416666666666666
            },
            {
              "pitch": 82,
              "velocity": 74,
              "position": 8,
              "duration": 0.010416666666666666
            },
            {
              "pitch": 82,
              "velocity": 59,
              "position": 8.25,
              "duration": 0.010416666666666666
            },
            {
              "pitch": 63,
              "velocity": 117,
              "position": 8.5,
              "duration": 0.010416666666666666
            },
            {
              "pitch": 82,
              "velocity": 49,
              "position": 8.5,
              "duration": 0.010416666666666666
            },
            {
              "pitch": 63,
              "velocity": 92,
              "position": 8.75,
              "duration": 0.010416666666666666
            },
            {
              "pitch": 69,
              "velocity": 49,
              "position": 8.75,
              "duration": 0.010416666666666666
            },
            {
              "pitch": 75,
              "velocity": 60,
              "position": 8.75,
              "duration": 0.010416666666666666
            },
            {
              "pitch": 82,
              "velocity": 95,
              "position": 8.75,
              "duration": 0.010416666666666666
            },
            {
              "pitch": 51,
              "velocity": 44,
              "position": 9,
              "duration": 0.010416666666666666
            },
            {
              "pitch": 54,
              "velocity": 90,
              "position": 9,
              "duration": 0.010416666666666666
            },
            {
              "pitch": 62,
              "velocity": 107,
              "position": 9,
              "duration": 0.010416666666666666
            },
            {
              "pitch": 82,
              "velocity": 71,
              "position": 9,
              "duration": 0.010416666666666666
            },
            {
              "pitch": 82,
              "velocity": 49,
              "position": 9.25,
              "duration": 0.010416666666666666
            },
            {
              "pitch": 61,
              "velocity": 45,
              "position": 9.5,
              "duration": 0.010416666666666666
            },
            {
              "pitch": 69,
              "velocity": 50,
              "position": 9.5,
              "duration": 0.010416666666666666
            },
            {
              "pitch": 75,
              "velocity": 60,
              "position": 9.5,
              "duration": 0.010416666666666666
            },
            {
              "pitch": 82,
              "velocity": 46,
              "position": 9.5,
              "duration": 0.010416666666666666
            },
            {
              "pitch": 62,
              "velocity": 117,
              "position": 9.75,
              "duration": 0.010416666666666666
            },
            {
              "pitch": 82,
              "velocity": 95,
              "position": 9.75,
              "duration": 0.010416666666666666
            },
            {
              "pitch": 51,
              "velocity": 52,
              "position": 10,
              "duration": 0.010416666666666666
            },
            {
              "pitch": 82,
              "velocity": 57,
              "position": 10,
              "duration": 0.010416666666666666
            },
            {
              "pitch": 61,
              "velocity": 48,
              "position": 10.25,
              "duration": 0.010416666666666666
            },
            {
              "pitch": 82,
              "velocity": 46,
              "position": 10.25,
              "duration": 0.010416666666666666
            },
            {
              "pitch": 63,
              "velocity": 117,
              "position": 10.5,
              "duration": 0.010416666666666666
            },
            {
              "pitch": 82,
              "velocity": 51,
              "position": 10.5,
              "duration": 0.010416666666666666
            },
            {
              "pitch": 63,
              "velocity": 99,
              "position": 10.75,
              "duration": 0.010416666666666666
            },
            {
              "pitch": 82,
              "velocity": 95,
              "position": 10.75,
              "duration": 0.010416666666666666
            },
            {
              "pitch": 51,
              "velocity": 54,
              "position": 11,
              "duration": 0.010416666666666666
            },
            {
              "pitch": 54,
              "velocity": 90,
              "position": 11,
              "duration": 0.010416666666666666
            },
            {
              "pitch": 61,
              "velocity": 57,
              "position": 11,
              "duration": 0.010416666666666666
            },
            {
              "pitch": 82,
              "velocity": 58,
              "position": 11,
              "duration": 0.010416666666666666
            },
            {
              "pitch": 64,
              "velocity": 95,
              "position": 11.25,
              "duration": 0.010416666666666666
            },
            {
              "pitch": 82,
              "velocity": 52,
              "position": 11.25,
              "duration": 0.010416666666666666
            },
            {
              "pitch": 61,
              "velocity": 48,
              "position": 11.5,
              "duration": 0.010416666666666666
            },
            {
              "pitch": 82,
              "velocity": 51,
              "position": 11.5,
              "duration": 0.010416666666666666
            },
            {
              "pitch": 60,
              "velocity": 70,
              "position": 11.75,
              "duration": 0.010416666666666666
            },
            {
              "pitch": 82,
              "velocity": 92,
              "position": 11.75,
              "duration": 0.010416666666666666
            },
            {
              "pitch": 51,
              "velocity": 61,
              "position": 12,
              "duration": 0.010416666666666666
            },
            {
              "pitch": 69,
              "velocity": 48,
              "position": 12,
              "duration": 0.010416666666666666
            },
            {
              "pitch": 75,
              "velocity": 60,
              "position": 12,
              "duration": 0.010416666666666666
            },
            {
              "pitch": 82,
              "velocity": 61,
              "position": 12,
              "duration": 0.010416666666666666
            },
            {
              "pitch": 82,
              "velocity": 44,
              "position": 12.25,
              "duration": 0.010416666666666666
            },
            {
              "pitch": 63,
              "velocity": 103,
              "position": 12.5,
              "duration": 0.010416666666666666
            },
            {
              "pitch": 82,
              "velocity": 57,
              "position": 12.5,
              "duration": 0.010416666666666666
            },
            {
              "pitch": 63,
              "velocity": 92,
              "position": 12.75,
              "duration": 0.010416666666666666
            },
            {
              "pitch": 69,
              "velocity": 50,
              "position": 12.75,
              "duration": 0.010416666666666666
            },
            {
              "pitch": 75,
              "velocity": 60,
              "position": 12.75,
              "duration": 0.010416666666666666
            },
            {
              "pitch": 82,
              "velocity": 95,
              "position": 12.75,
              "duration": 0.010416666666666666
            },
            {
              "pitch": 51,
              "velocity": 65,
              "position": 13,
              "duration": 0.010416666666666666
            },
            {
              "pitch": 54,
              "velocity": 90,
              "position": 13,
              "duration": 0.010416666666666666
            },
            {
              "pitch": 62,
              "velocity": 99,
              "position": 13,
              "duration": 0.010416666666666666
            },
            {
              "pitch": 82,
              "velocity": 57,
              "position": 13,
              "duration": 0.010416666666666666
            },
            {
              "pitch": 82,
              "velocity": 55,
              "position": 13.25,
              "duration": 0.010416666666666666
            },
            {
              "pitch": 61,
              "velocity": 31,
              "position": 13.5,
              "duration": 0.010416666666666666
            },
            {
              "pitch": 69,
              "velocity": 47,
              "position": 13.5,
              "duration": 0.010416666666666666
            },
            {
              "pitch": 75,
              "velocity": 60,
              "position": 13.5,
              "duration": 0.010416666666666666
            },
            {
              "pitch": 82,
              "velocity": 57,
              "position": 13.5,
              "duration": 0.010416666666666666
            },
            {
              "pitch": 62,
              "velocity": 107,
              "position": 13.75,
              "duration": 0.010416666666666666
            },
            {
              "pitch": 82,
              "velocity": 95,
              "position": 13.75,
              "duration": 0.010416666666666666
            },
            {
              "pitch": 51,
              "velocity": 56,
              "position": 14,
              "duration": 0.010416666666666666
            },
            {
              "pitch": 82,
              "velocity": 65,
              "position": 14,
              "duration": 0.010416666666666666
            },
            {
              "pitch": 61,
              "velocity": 57,
              "position": 14.25,
              "duration": 0.010416666666666666
            },
            {
              "pitch": 82,
              "velocity": 55,
              "position": 14.25,
              "duration": 0.010416666666666666
            },
            {
              "pitch": 63,
              "velocity": 107,
              "position": 14.5,
              "duration": 0.010416666666666666
            },
            {
              "pitch": 82,
              "velocity": 46,
              "position": 14.5,
              "duration": 0.010416666666666666
            },
            {
              "pitch": 63,
              "velocity": 92,
              "position": 14.75,
              "duration": 0.010416666666666666
            },
            {
              "pitch": 82,
              "velocity": 95,
              "position": 14.75,
              "duration": 0.010416666666666666
            },
            {
              "pitch": 51,
              "velocity": 60,
              "position": 15,
              "duration": 0.010416666666666666
            },
            {
              "pitch": 54,
              "velocity": 90,
              "position": 15,
              "duration": 0.010416666666666666
            },
            {
              "pitch": 61,
              "velocity": 42,
              "position": 15,
              "duration": 0.010416666666666666
            },
            {
              "pitch": 82,
              "velocity": 71,
              "position": 15,
              "duration": 0.010416666666666666
            },
            {
              "pitch": 62,
              "velocity": 111,
              "position": 15.25,
              "duration": 0.010416666666666666
            },
            {
              "pitch": 82,
              "velocity": 58,
              "position": 15.25,
              "duration": 0.010416666666666666
            },
            {
              "pitch": 61,
              "velocity": 57,
              "position": 15.5,
              "duration": 0.010416666666666666
            },
            {
              "pitch": 82,
              "velocity": 59,
              "position": 15.5,
              "duration": 0.010416666666666666
            },
            {
              "pitch": 61,
              "velocity": 114,
              "position": 15.75,
              "duration": 0.010416666666666666
            },
            {
              "pitch": 82,
              "velocity": 79,
              "position": 15.75,
              "duration": 0.010416666666666666
            }
          ]
        },
        "9": {
          "ctab": {
            "srcChannel": 9,
            "name": "MainDrum",
            "accType": "RHYTHM",
            "editable": false,
            "mutedNotes": [],
            "mutedChords": [],
            "autoStart": true,
            "sourceChordNote": 0,
            "sourceChordType": "Maj7",
            "ctb2Low": null,
            "ctb2Main": {
              "ntr": "ROOT_FIXED",
              "ntt": "BYPASS",
              "bassOn": false,
              "chordRootUpperLimit": 6,
              "noteLowLimit": 0,
              "noteHighLimit": 127,
              "rtr": "PITCH_SHIFT"
            },
            "ctb2High": null
          },
          "notes": [
            {
              "pitch": 33,
              "velocity": 59,
              "position": 0,
              "duration": 0.010416666666666666
            },
            {
              "pitch": 42,
              "velocity": 48,
              "position": 0,
              "duration": 0.010416666666666666
            },
            {
              "pitch": 44,
              "velocity": 55,
              "position": 0.25,
              "duration": 0.010416666666666666
            },
            {
              "pitch": 42,
              "velocity": 28,
              "position": 0.5,
              "duration": 0.010416666666666666
            },
            {
              "pitch": 44,
              "velocity": 36,
              "position": 0.75,
              "duration": 0.010416666666666666
            },
            {
              "pitch": 25,
              "velocity": 121,
              "position": 1,
              "duration": 0.010416666666666666
            },
            {
              "pitch": 42,
              "velocity": 27,
              "position": 1,
              "duration": 0.010416666666666666
            },
            {
              "pitch": 44,
              "velocity": 44,
              "position": 1.25,
              "duration": 0.010416666666666666
            },
            {
              "pitch": 42,
              "velocity": 24,
              "position": 1.5,
              "duration": 0.010416666666666666
            },
            {
              "pitch": 44,
              "velocity": 36,
              "position": 1.5,
              "duration": 0.010416666666666666
            },
            {
              "pitch": 33,
              "velocity": 30,
              "position": 1.75,
              "duration": 0.010416666666666666
            },
            {
              "pitch": 42,
              "velocity": 26,
              "position": 1.75,
              "duration": 0.010416666666666666
            },
            {
              "pitch": 33,
              "velocity": 57,
              "position": 2,
              "duration": 0.010416666666666666
            },
            {
              "pitch": 44,
              "velocity": 41,
              "position": 2,
              "duration": 0.010416666666666666
            },
            {
              "pitch": 42,
              "velocity": 21,
              "position": 2.25,
              "duration": 0.010416666666666666
            },
            {
              "pitch": 44,
              "velocity": 33,
              "position": 2.5,
              "duration": 0.010416666666666666
            },
            {
              "pitch": 42,
              "velocity": 26,
              "position": 2.75,
              "duration": 0.010416666666666666
            },
            {
              "pitch": 25,
              "velocity": 121,
              "position": 3,
              "duration": 0.010416666666666666
            },
            {
              "pitch": 44,
              "velocity": 37,
              "position": 3,
              "duration": 0.010416666666666666
            },
            {
              "pitch": 42,
              "velocity": 25,
              "position": 3.25,
              "duration": 0.010416666666666666
            },
            {
              "pitch": 44,
              "velocity": 37,
              "position": 3.5,
              "duration": 0.010416666666666666
            },
            {
              "pitch": 46,
              "velocity": 32,
              "position": 3.75,
              "duration": 0.010416666666666666
            },
            {
              "pitch": 33,
              "velocity": 59,
              "position": 4,
              "duration": 0.010416666666666666
            },
            {
              "pitch": 44,
              "velocity": 30,
              "position": 4,
              "duration": 0.010416666666666666
            },
            {
              "pitch": 42,
              "velocity": 27,
              "position": 4.25,
              "duration": 0.010416666666666666
            },
            {
              "pitch": 44,
              "velocity": 31,
              "position": 4.5,
              "duration": 0.010416666666666666
            },
            {
              "pitch": 42,
              "velocity": 30,
              "position": 4.75,
              "duration": 0.010416666666666666
            },
            {
              "pitch": 25,
              "velocity": 121,
              "position": 5,
              "duration": 0.010416666666666666
            },
            {
              "pitch": 44,
              "velocity": 43,
              "position": 5,
              "duration": 0.010416666666666666
            },
            {
              "pitch": 42,
              "velocity": 25,
              "position": 5.25,
              "duration": 0.010416666666666666
            },
            {
              "pitch": 44,
              "velocity": 29,
              "position": 5.5,
              "duration": 0.010416666666666666
            },
            {
              "pitch": 33,
              "velocity": 43,
              "position": 5.75,
              "duration": 0.010416666666666666
            },
            {
              "pitch": 42,
              "velocity": 20,
              "position": 5.75,
              "duration": 0.010416666666666666
            },
            {
              "pitch": 44,
              "velocity": 34,
              "position": 6,
              "duration": 0.010416666666666666
            },
            {
              "pitch": 42,
              "velocity": 22,
              "position": 6.25,
              "duration": 0.010416666666666666
            },
            {
              "pitch": 33,
              "velocity": 48,
              "position": 6.5,
              "duration": 0.010416666666666666
            },
            {
              "pitch": 44,
              "velocity": 38,
              "position": 6.5,
              "duration": 0.010416666666666666
            },
            {
              "pitch": 42,
              "velocity": 26,
              "position": 6.75,
              "duration": 0.010416666666666666
            },
            {
              "pitch": 25,
              "velocity": 121,
              "position": 7,
              "duration": 0.010416666666666666
            },
            {
              "pitch": 44,
              "velocity": 38,
              "position": 7,
              "duration": 0.010416666666666666
            },
            {
              "pitch": 42,
              "velocity": 26,
              "position": 7.25,
              "duration": 0.010416666666666666
            },
            {
              "pitch": 44,
              "velocity": 36,
              "position": 7.5,
              "duration": 0.010416666666666666
            },
            {
              "pitch": 42,
              "velocity": 21,
              "position": 7.75,
              "duration": 0.010416666666666666
            },
            {
              "pitch": 33,
              "velocity": 59,
              "position": 8,
              "duration": 0.010416666666666666
            },
            {
              "pitch": 44,
              "velocity": 44,
              "position": 8,
              "duration": 0.010416666666666666
            },
            {
              "pitch": 42,
              "velocity": 27,
              "position": 8.25,
              "duration": 0.010416666666666666
            },
            {
              "pitch": 44,
              "velocity": 35,
              "position": 8.5,
              "duration": 0.010416666666666666
            },
            {
              "pitch": 42,
              "velocity": 22,
              "position": 8.75,
              "duration": 0.010416666666666666
            },
            {
              "pitch": 25,
              "velocity": 121,
              "position": 9,
              "duration": 0.010416666666666666
            },
            {
              "pitch": 44,
              "velocity": 37,
              "position": 9,
              "duration": 0.010416666666666666
            },
            {
              "pitch": 42,
              "velocity": 30,
              "position": 9.25,
              "duration": 0.010416666666666666
            },
            {
              "pitch": 44,
              "velocity": 26,
              "position": 9.5,
              "duration": 0.010416666666666666
            },
            {
              "pitch": 33,
              "velocity": 29,
              "position": 9.75,
              "duration": 0.010416666666666666
            },
            {
              "pitch": 42,
              "velocity": 26,
              "position": 9.75,
              "duration": 0.010416666666666666
            },
            {
              "pitch": 33,
              "velocity": 59,
              "position": 10,
              "duration": 0.010416666666666666
            },
            {
              "pitch": 44,
              "velocity": 38,
              "position": 10,
              "duration": 0.010416666666666666
            },
            {
              "pitch": 42,
              "velocity": 29,
              "position": 10.25,
              "duration": 0.010416666666666666
            },
            {
              "pitch": 44,
              "velocity": 27,
              "position": 10.5,
              "duration": 0.010416666666666666
            },
            {
              "pitch": 42,
              "velocity": 26,
              "position": 10.75,
              "duration": 0.010416666666666666
            },
            {
              "pitch": 25,
              "velocity": 121,
              "position": 11,
              "duration": 0.010416666666666666
            },
            {
              "pitch": 44,
              "velocity": 35,
              "position": 11,
              "duration": 0.010416666666666666
            },
            {
              "pitch": 42,
              "velocity": 30,
              "position": 11.25,
              "duration": 0.010416666666666666
            },
            {
              "pitch": 44,
              "velocity": 39,
              "position": 11.5,
              "duration": 0.010416666666666666
            },
            {
              "pitch": 46,
              "velocity": 31,
              "position": 11.75,
              "duration": 0.010416666666666666
            },
            {
              "pitch": 33,
              "velocity": 59,
              "position": 12,
              "duration": 0.010416666666666666
            },
            {
              "pitch": 44,
              "velocity": 30,
              "position": 12,
              "duration": 0.010416666666666666
            },
            {
              "pitch": 42,
              "velocity": 21,
              "position": 12.25,
              "duration": 0.010416666666666666
            },
            {
              "pitch": 44,
              "velocity": 36,
              "position": 12.5,
              "duration": 0.010416666666666666
            },
            {
              "pitch": 42,
              "velocity": 26,
              "position": 12.75,
              "duration": 0.010416666666666666
            },
            {
              "pitch": 25,
              "velocity": 121,
              "position": 13,
              "duration": 0.010416666666666666
            },
            {
              "pitch": 44,
              "velocity": 43,
              "position": 13,
              "duration": 0.010416666666666666
            },
            {
              "pitch": 42,
              "velocity": 22,
              "position": 13.25,
              "duration": 0.010416666666666666
            },
            {
              "pitch": 44,
              "velocity": 41,
              "position": 13.5,
              "duration": 0.010416666666666666
            },
            {
              "pitch": 33,
              "velocity": 47,
              "position": 13.75,
              "duration": 0.010416666666666666
            },
            {
              "pitch": 42,
              "velocity": 30,
              "position": 13.75,
              "duration": 0.010416666666666666
            },
            {
              "pitch": 44,
              "velocity": 44,
              "position": 14,
              "duration": 0.010416666666666666
            },
            {
              "pitch": 42,
              "velocity": 26,
              "position": 14.25,
              "duration": 0.010416666666666666
            },
            {
              "pitch": 33,
              "velocity": 48,
              "position": 14.5,
              "duration": 0.010416666666666666
            },
            {
              "pitch": 44,
              "velocity": 41,
              "position": 14.5,
              "duration": 0.010416666666666666
            },
            {
              "pitch": 42,
              "velocity": 26,
              "position": 14.75,
              "duration": 0.010416666666666666
            },
            {
              "pitch": 25,
              "velocity": 121,
              "position": 15,
              "duration": 0.010416666666666666
            },
            {
              "pitch": 44,
              "velocity": 41,
              "position": 15,
              "duration": 0.010416666666666666
            },
            {
              "pitch": 42,
              "velocity": 24,
              "position": 15.25,
              "duration": 0.010416666666666666
            },
            {
              "pitch": 44,
              "velocity": 43,
              "position": 15.5,
              "duration": 0.010416666666666666
            },
            {
              "pitch": 42,
              "velocity": 17,
              "position": 15.75,
              "duration": 0.010416666666666666
            }
          ]
        },
        "10": {
          "ctab": {
            "srcChannel": 10,
            "name": "Bass",
            "accType": "BASS",
            "editable": false,
            "mutedNotes": [],
            "mutedChords": [],
            "autoStart": false,
            "sourceChordNote": 0,
            "sourceChordType": "Maj7",
            "ctb2Low": null,
            "ctb2Main": {
              "ntr": "ROOT_TRANSPOSITION",
              "ntt": "MELODY",
              "bassOn": true,
              "chordRootUpperLimit": 3,
              "noteLowLimit": 28,
              "noteHighLimit": 39,
              "rtr": "PITCH_SHIFT_TO_ROOT"
            },
            "ctb2High": null
          },
          "notes": [
            {
              "pitch": 24,
              "velocity": 101,
              "position": 0,
              "duration": 1.7395833333333333
            },
            {
              "pitch": 24,
              "velocity": 93,
              "position": 1.75,
              "duration": 0.23958333333333334
            },
            {
              "pitch": 24,
              "velocity": 101,
              "position": 2,
              "duration": 1.9895833333333333
            },
            {
              "pitch": 24,
              "velocity": 101,
              "position": 4,
              "duration": 1.7395833333333333
            },
            {
              "pitch": 24,
              "velocity": 93,
              "position": 5.75,
              "duration": 0.7395833333333334
            },
            {
              "pitch": 24,
              "velocity": 101,
              "position": 6.5,
              "duration": 1.4895833333333333
            },
            {
              "pitch": 24,
              "velocity": 101,
              "position": 8,
              "duration": 1.7395833333333333
            },
            {
              "pitch": 24,
              "velocity": 93,
              "position": 9.75,
              "duration": 0.23958333333333334
            },
            {
              "pitch": 24,
              "velocity": 91,
              "position": 10,
              "duration": 1.9895833333333333
            },
            {
              "pitch": 24,
              "velocity": 101,
              "position": 12,
              "duration": 1.7395833333333333
            },
            {
              "pitch": 24,
              "velocity": 93,
              "position": 13.75,
              "duration": 0.7395833333333334
            },
            {
              "pitch": 24,
              "velocity": 101,
              "position": 14.5,
              "duration": 1.4895833333333333
            }
          ]
        },
        "11": {
          "ctab": {
            "srcChannel": 11,
            "name": "Ep",
            "accType": "CHORD1",
            "editable": false,
            "mutedNotes": [],
            "mutedChords": [],
            "autoStart": false,
            "sourceChordNote": 0,
            "sourceChordType": "Maj7",
            "ctb2Low": null,
            "ctb2Main": {
              "ntr": "ROOT_FIXED",
              "ntt": "CHORD",
              "bassOn": false,
              "chordRootUpperLimit": 7,
              "noteLowLimit": 50,
              "noteHighLimit": 127,
              "rtr": "PITCH_SHIFT"
            },
            "ctb2High": null
          },
          "notes": [
            {
              "pitch": 55,
              "velocity": 48,
              "position": 0,
              "duration": 3.125
            },
            {
              "pitch": 59,
              "velocity": 48,
              "position": 0,
              "duration": 3.1354166666666665
            },
            {
              "pitch": 64,
              "velocity": 48,
              "position": 0,
              "duration": 3.1458333333333335
            },
            {
              "pitch": 55,
              "velocity": 48,
              "position": 3.25,
              "duration": 0.11458333333333333
            },
            {
              "pitch": 59,
              "velocity": 48,
              "position": 3.25,
              "duration": 0.15625
            },
            {
              "pitch": 64,
              "velocity": 48,
              "position": 3.25,
              "duration": 0.1875
            },
            {
              "pitch": 59,
              "velocity": 48,
              "position": 4,
              "duration": 3.75
            },
            {
              "pitch": 55,
              "velocity": 48,
              "position": 4,
              "duration": 3.7604166666666665
            },
            {
              "pitch": 64,
              "velocity": 48,
              "position": 4,
              "duration": 3.7916666666666665
            },
            {
              "pitch": 55,
              "velocity": 48,
              "position": 8,
              "duration": 3.09375
            },
            {
              "pitch": 59,
              "velocity": 48,
              "position": 8,
              "duration": 3.125
            },
            {
              "pitch": 64,
              "velocity": 48,
              "position": 8,
              "duration": 3.125
            },
            {
              "pitch": 59,
              "velocity": 48,
              "position": 11.25,
              "duration": 0.14583333333333334
            },
            {
              "pitch": 55,
              "velocity": 48,
              "position": 11.25,
              "duration": 0.16666666666666666
            },
            {
              "pitch": 64,
              "velocity": 48,
              "position": 11.25,
              "duration": 0.16666666666666666
            },
            {
              "pitch": 55,
              "velocity": 48,
              "position": 12,
              "duration": 3.4895833333333335
            },
            {
              "pitch": 59,
              "velocity": 48,
              "position": 12,
              "duration": 3.5104166666666665
            },
            {
              "pitch": 64,
              "velocity": 48,
              "position": 12,
              "duration": 3.53125
            }
          ]
        },
        "12": {
          "ctab": {
            "srcChannel": 12,
            "name": "Nylon",
            "accType": "CHORD2",
            "editable": false,
            "mutedNotes": [],
            "mutedChords": [],
            "autoStart": false,
            "sourceChordNote": 0,
            "sourceChordType": "Maj7",
            "ctb2Low": null,
            "ctb2Main": {
              "ntr": "ROOT_FIXED",
              "ntt": "CHORD",
              "bassOn": false,
              "chordRootUpperLimit": 7,
              "noteLowLimit": 0,
              "noteHighLimit": 127,
              "rtr": "PITCH_SHIFT"
            },
            "ctb2High": null
          },
          "notes": [
            {
              "pitch": 55,
              "velocity": 47,
              "position": 0,
              "duration": 0.010416666666666666
            },
            {
              "pitch": 59,
              "velocity": 47,
              "position": 0,
              "duration": 0.010416666666666666
            },
            {
              "pitch": 64,
              "velocity": 47,
              "position": 0,
              "duration": 0.010416666666666666
            },
            {
              "pitch": 55,
              "velocity": 32,
              "position": 0.25,
              "duration": 0.010416666666666666
            },
            {
              "pitch": 59,
              "velocity": 32,
              "position": 0.25,
              "duration": 0.010416666666666666
            },
            {
              "pitch": 64,
              "velocity": 32,
              "position": 0.25,
              "duration": 0.010416666666666666
            },
            {
              "pitch": 55,
              "velocity": 47,
              "position": 0.5,
              "duration": 0.010416666666666666
            },
            {
              "pitch": 59,
              "velocity": 47,
              "position": 0.5,
              "duration": 0.010416666666666666
            },
            {
              "pitch": 64,
              "velocity": 47,
              "position": 0.5,
              "duration": 0.010416666666666666
            },
            {
              "pitch": 55,
              "velocity": 42,
              "position": 0.75,
              "duration": 0.19791666666666666
            },
            {
              "pitch": 59,
              "velocity": 36,
              "position": 0.75,
              "duration": 0.19791666666666666
            },
            {
              "pitch": 64,
              "velocity": 47,
              "position": 0.75,
              "duration": 0.23958333333333334
            },
            {
              "pitch": 59,
              "velocity": 42,
              "position": 1.25,
              "duration": 0.17708333333333334
            },
            {
              "pitch": 55,
              "velocity": 44,
              "position": 1.25,
              "duration": 0.20833333333333334
            },
            {
              "pitch": 64,
              "velocity": 54,
              "position": 1.25,
              "duration": 0.2916666666666667
            },
            {
              "pitch": 55,
              "velocity": 37,
              "position": 2,
              "duration": 0.4895833333333333
            },
            {
              "pitch": 59,
              "velocity": 37,
              "position": 2,
              "duration": 0.4895833333333333
            },
            {
              "pitch": 64,
              "velocity": 47,
              "position": 2,
              "duration": 0.4895833333333333
            },
            {
              "pitch": 59,
              "velocity": 47,
              "position": 2.5,
              "duration": 0.1875
            },
            {
              "pitch": 55,
              "velocity": 39,
              "position": 2.5,
              "duration": 0.20833333333333334
            },
            {
              "pitch": 64,
              "velocity": 43,
              "position": 2.5,
              "duration": 0.3333333333333333
            },
            {
              "pitch": 55,
              "velocity": 47,
              "position": 3.5,
              "duration": 0.010416666666666666
            },
            {
              "pitch": 59,
              "velocity": 47,
              "position": 3.5,
              "duration": 0.010416666666666666
            },
            {
              "pitch": 64,
              "velocity": 47,
              "position": 3.5,
              "duration": 0.010416666666666666
            },
            {
              "pitch": 55,
              "velocity": 47,
              "position": 3.75,
              "duration": 0.010416666666666666
            },
            {
              "pitch": 59,
              "velocity": 47,
              "position": 3.75,
              "duration": 0.010416666666666666
            },
            {
              "pitch": 64,
              "velocity": 47,
              "position": 3.75,
              "duration": 0.010416666666666666
            },
            {
              "pitch": 55,
              "velocity": 46,
              "position": 4,
              "duration": 0.010416666666666666
            },
            {
              "pitch": 59,
              "velocity": 46,
              "position": 4,
              "duration": 0.010416666666666666
            },
            {
              "pitch": 64,
              "velocity": 46,
              "position": 4,
              "duration": 0.010416666666666666
            },
            {
              "pitch": 55,
              "velocity": 32,
              "position": 4.25,
              "duration": 0.010416666666666666
            },
            {
              "pitch": 59,
              "velocity": 32,
              "position": 4.25,
              "duration": 0.010416666666666666
            },
            {
              "pitch": 64,
              "velocity": 32,
              "position": 4.25,
              "duration": 0.010416666666666666
            },
            {
              "pitch": 55,
              "velocity": 44,
              "position": 4.75,
              "duration": 0.21875
            },
            {
              "pitch": 59,
              "velocity": 43,
              "position": 4.75,
              "duration": 0.21875
            },
            {
              "pitch": 64,
              "velocity": 48,
              "position": 4.75,
              "duration": 0.2604166666666667
            },
            {
              "pitch": 59,
              "velocity": 46,
              "position": 5.25,
              "duration": 0.2604166666666667
            },
            {
              "pitch": 55,
              "velocity": 47,
              "position": 5.25,
              "duration": 0.28125
            },
            {
              "pitch": 64,
              "velocity": 55,
              "position": 5.25,
              "duration": 0.2916666666666667
            },
            {
              "pitch": 55,
              "velocity": 44,
              "position": 6,
              "duration": 0.4895833333333333
            },
            {
              "pitch": 59,
              "velocity": 42,
              "position": 6,
              "duration": 0.4895833333333333
            },
            {
              "pitch": 64,
              "velocity": 49,
              "position": 6,
              "duration": 0.4895833333333333
            },
            {
              "pitch": 59,
              "velocity": 43,
              "position": 6.5,
              "duration": 0.14583333333333334
            },
            {
              "pitch": 55,
              "velocity": 44,
              "position": 6.5,
              "duration": 0.16666666666666666
            },
            {
              "pitch": 64,
              "velocity": 40,
              "position": 6.5,
              "duration": 0.19791666666666666
            },
            {
              "pitch": 55,
              "velocity": 47,
              "position": 7.5,
              "duration": 0.010416666666666666
            },
            {
              "pitch": 59,
              "velocity": 47,
              "position": 7.5,
              "duration": 0.010416666666666666
            },
            {
              "pitch": 64,
              "velocity": 47,
              "position": 7.5,
              "duration": 0.010416666666666666
            },
            {
              "pitch": 55,
              "velocity": 47,
              "position": 7.75,
              "duration": 0.010416666666666666
            },
            {
              "pitch": 59,
              "velocity": 47,
              "position": 7.75,
              "duration": 0.010416666666666666
            },
            {
              "pitch": 64,
              "velocity": 47,
              "position": 7.75,
              "duration": 0.010416666666666666
            },
            {
              "pitch": 55,
              "velocity": 47,
              "position": 8,
              "duration": 0.010416666666666666
            },
            {
              "pitch": 59,
              "velocity": 47,
              "position": 8,
              "duration": 0.010416666666666666
            },
            {
              "pitch": 64,
              "velocity": 47,
              "position": 8,
              "duration": 0.010416666666666666
            },
            {
              "pitch": 55,
              "velocity": 32,
              "position": 8.25,
              "duration": 0.010416666666666666
            },
            {
              "pitch": 59,
              "velocity": 32,
              "position": 8.25,
              "duration": 0.010416666666666666
            },
            {
              "pitch": 64,
              "velocity": 32,
              "position": 8.25,
              "duration": 0.010416666666666666
            },
            {
              "pitch": 55,
              "velocity": 47,
              "position": 8.5,
              "duration": 0.010416666666666666
            },
            {
              "pitch": 59,
              "velocity": 47,
              "position": 8.5,
              "duration": 0.010416666666666666
            },
            {
              "pitch": 64,
              "velocity": 47,
              "position": 8.5,
              "duration": 0.010416666666666666
            },
            {
              "pitch": 55,
              "velocity": 50,
              "position": 8.75,
              "duration": 0.2708333333333333
            },
            {
              "pitch": 59,
              "velocity": 46,
              "position": 8.75,
              "duration": 0.28125
            },
            {
              "pitch": 64,
              "velocity": 54,
              "position": 8.75,
              "duration": 0.3125
            },
            {
              "pitch": 55,
              "velocity": 50,
              "position": 9.25,
              "duration": 0.2708333333333333
            },
            {
              "pitch": 59,
              "velocity": 41,
              "position": 9.25,
              "duration": 0.2708333333333333
            },
            {
              "pitch": 64,
              "velocity": 52,
              "position": 9.25,
              "duration": 0.3020833333333333
            },
            {
              "pitch": 55,
              "velocity": 48,
              "position": 10,
              "duration": 0.4895833333333333
            },
            {
              "pitch": 59,
              "velocity": 36,
              "position": 10,
              "duration": 0.4895833333333333
            },
            {
              "pitch": 64,
              "velocity": 53,
              "position": 10,
              "duration": 0.4895833333333333
            },
            {
              "pitch": 59,
              "velocity": 47,
              "position": 10.5,
              "duration": 0.1875
            },
            {
              "pitch": 55,
              "velocity": 35,
              "position": 10.5,
              "duration": 0.22916666666666666
            },
            {
              "pitch": 64,
              "velocity": 43,
              "position": 10.5,
              "duration": 0.23958333333333334
            },
            {
              "pitch": 55,
              "velocity": 47,
              "position": 11.5,
              "duration": 0.010416666666666666
            },
            {
              "pitch": 59,
              "velocity": 47,
              "position": 11.5,
              "duration": 0.010416666666666666
            },
            {
              "pitch": 64,
              "velocity": 47,
              "position": 11.5,
              "duration": 0.010416666666666666
            },
            {
              "pitch": 55,
              "velocity": 47,
              "position": 11.75,
              "duration": 0.010416666666666666
            },
            {
              "pitch": 59,
              "velocity": 47,
              "position": 11.75,
              "duration": 0.010416666666666666
            },
            {
              "pitch": 64,
              "velocity": 47,
              "position": 11.75,
              "duration": 0.010416666666666666
            },
            {
              "pitch": 55,
              "velocity": 47,
              "position": 12,
              "duration": 0.010416666666666666
            },
            {
              "pitch": 59,
              "velocity": 47,
              "position": 12,
              "duration": 0.010416666666666666
            },
            {
              "pitch": 64,
              "velocity": 47,
              "position": 12,
              "duration": 0.010416666666666666
            },
            {
              "pitch": 55,
              "velocity": 32,
              "position": 12.25,
              "duration": 0.010416666666666666
            },
            {
              "pitch": 59,
              "velocity": 32,
              "position": 12.25,
              "duration": 0.010416666666666666
            },
            {
              "pitch": 64,
              "velocity": 32,
              "position": 12.25,
              "duration": 0.010416666666666666
            },
            {
              "pitch": 55,
              "velocity": 32,
              "position": 12.5,
              "duration": 0.010416666666666666
            },
            {
              "pitch": 59,
              "velocity": 32,
              "position": 12.5,
              "duration": 0.010416666666666666
            },
            {
              "pitch": 64,
              "velocity": 32,
              "position": 12.5,
              "duration": 0.010416666666666666
            },
            {
              "pitch": 55,
              "velocity": 42,
              "position": 12.75,
              "duration": 0.20833333333333334
            },
            {
              "pitch": 59,
              "velocity": 40,
              "position": 12.75,
              "duration": 0.20833333333333334
            },
            {
              "pitch": 64,
              "velocity": 52,
              "position": 12.75,
              "duration": 0.25
            },
            {
              "pitch": 55,
              "velocity": 45,
              "position": 13.25,
              "duration": 0.23958333333333334
            },
            {
              "pitch": 59,
              "velocity": 43,
              "position": 13.25,
              "duration": 0.23958333333333334
            },
            {
              "pitch": 64,
              "velocity": 54,
              "position": 13.25,
              "duration": 0.2708333333333333
            },
            {
              "pitch": 55,
              "velocity": 49,
              "position": 14,
              "duration": 0.4895833333333333
            },
            {
              "pitch": 59,
              "velocity": 42,
              "position": 14,
              "duration": 0.4895833333333333
            },
            {
              "pitch": 64,
              "velocity": 49,
              "position": 14,
              "duration": 0.4895833333333333
            },
            {
              "pitch": 55,
              "velocity": 41,
              "position": 14.5,
              "duration": 0.22916666666666666
            },
            {
              "pitch": 59,
              "velocity": 42,
              "position": 14.5,
              "duration": 0.22916666666666666
            },
            {
              "pitch": 64,
              "velocity": 51,
              "position": 14.5,
              "duration": 0.2708333333333333
            },
            {
              "pitch": 55,
              "velocity": 47,
              "position": 15.5,
              "duration": 0.010416666666666666
            },
            {
              "pitch": 59,
              "velocity": 47,
              "position": 15.5,
              "duration": 0.010416666666666666
            },
            {
              "pitch": 64,
              "velocity": 47,
              "position": 15.5,
              "duration": 0.010416666666666666
            },
            {
              "pitch": 55,
              "velocity": 47,
              "position": 15.75,
              "duration": 0.010416666666666666
            },
            {
              "pitch": 59,
              "velocity": 47,
              "position": 15.75,
              "duration": 0.010416666666666666
            },
            {
              "pitch": 64,
              "velocity": 47,
              "position": 15.75,
              "duration": 0.010416666666666666
            }
          ]
        },
        "13": {
          "ctab": {
            "srcChannel": 13,
            "name": "Pad",
            "accType": "PAD",
            "editable": false,
            "mutedNotes": [],
            "mutedChords": [],
            "autoStart": false,
            "sourceChordNote": 0,
            "sourceChordType": "Maj7",
            "ctb2Low": null,
            "ctb2Main": {
              "ntr": "ROOT_FIXED",
              "ntt": "CHORD",
              "bassOn": false,
              "chordRootUpperLimit": 7,
              "noteLowLimit": 0,
              "noteHighLimit": 127,
              "rtr": "PITCH_SHIFT"
            },
            "ctb2High": null
          },
          "notes": [
            {
              "pitch": 55,
              "velocity": 70,
              "position": 0.010416666666666666,
              "duration": 15.979166666666666
            },
            {
              "pitch": 59,
              "velocity": 70,
              "position": 0.010416666666666666,
              "duration": 15.979166666666666
            },
            {
              "pitch": 64,
              "velocity": 70,
              "position": 0.010416666666666666,
              "duration": 15.979166666666666
            }
          ]
        },
        "14": {
          "ctab": {
            "srcChannel": 14,
            "name": "MutedGtr",
            "accType": "PHRASE1",
            "editable": false,
            "mutedNotes": [],
            "mutedChords": [],
            "autoStart": false,
            "sourceChordNote": 0,
            "sourceChordType": "Maj7",
            "ctb2Low": null,
            "ctb2Main": {
              "ntr": "ROOT_FIXED",
              "ntt": "CHORD",
              "bassOn": false,
              "chordRootUpperLimit": 5,
              "noteLowLimit": 52,
              "noteHighLimit": 127,
              "rtr": "PITCH_SHIFT"
            },
            "ctb2High": null
          },
          "notes": [
            {
              "pitch": 48,
              "velocity": 67,
              "position": 0,
              "duration": 0.3333333333333333
            },
            {
              "pitch": 48,
              "velocity": 55,
              "position": 0.75,
              "duration": 0.19791666666666666
            },
            {
              "pitch": 48,
              "velocity": 46,
              "position": 1.25,
              "duration": 0.20833333333333334
            },
            {
              "pitch": 43,
              "velocity": 47,
              "position": 1.5,
              "duration": 0.21875
            },
            {
              "pitch": 47,
              "velocity": 49,
              "position": 1.75,
              "duration": 0.21875
            },
            {
              "pitch": 48,
              "velocity": 44,
              "position": 2,
              "duration": 0.40625
            },
            {
              "pitch": 48,
              "velocity": 53,
              "position": 2.5,
              "duration": 0.22916666666666666
            },
            {
              "pitch": 48,
              "velocity": 42,
              "position": 3,
              "duration": 0.010416666666666666
            },
            {
              "pitch": 48,
              "velocity": 53,
              "position": 3.25,
              "duration": 0.23958333333333334
            },
            {
              "pitch": 48,
              "velocity": 42,
              "position": 3.5,
              "duration": 0.010416666666666666
            },
            {
              "pitch": 48,
              "velocity": 53,
              "position": 3.75,
              "duration": 0.23958333333333334
            },
            {
              "pitch": 48,
              "velocity": 53,
              "position": 4,
              "duration": 0.3854166666666667
            },
            {
              "pitch": 48,
              "velocity": 53,
              "position": 4.75,
              "duration": 0.19791666666666666
            },
            {
              "pitch": 48,
              "velocity": 55,
              "position": 5.25,
              "duration": 0.28125
            },
            {
              "pitch": 43,
              "velocity": 52,
              "position": 5.5,
              "duration": 0.21875
            },
            {
              "pitch": 47,
              "velocity": 54,
              "position": 5.75,
              "duration": 0.22916666666666666
            },
            {
              "pitch": 48,
              "velocity": 55,
              "position": 6,
              "duration": 0.4166666666666667
            },
            {
              "pitch": 48,
              "velocity": 53,
              "position": 6.5,
              "duration": 0.25
            },
            {
              "pitch": 48,
              "velocity": 42,
              "position": 7,
              "duration": 0.010416666666666666
            },
            {
              "pitch": 48,
              "velocity": 53,
              "position": 7.25,
              "duration": 0.23958333333333334
            },
            {
              "pitch": 48,
              "velocity": 42,
              "position": 7.5,
              "duration": 0.010416666666666666
            },
            {
              "pitch": 48,
              "velocity": 53,
              "position": 7.75,
              "duration": 0.23958333333333334
            },
            {
              "pitch": 48,
              "velocity": 64,
              "position": 8,
              "duration": 0.4270833333333333
            },
            {
              "pitch": 48,
              "velocity": 60,
              "position": 8.75,
              "duration": 0.23958333333333334
            },
            {
              "pitch": 48,
              "velocity": 55,
              "position": 9.25,
              "duration": 0.2916666666666667
            },
            {
              "pitch": 43,
              "velocity": 49,
              "position": 9.5,
              "duration": 0.22916666666666666
            },
            {
              "pitch": 47,
              "velocity": 56,
              "position": 9.75,
              "duration": 0.25
            },
            {
              "pitch": 48,
              "velocity": 51,
              "position": 10,
              "duration": 0.4270833333333333
            },
            {
              "pitch": 48,
              "velocity": 53,
              "position": 10.5,
              "duration": 0.23958333333333334
            },
            {
              "pitch": 48,
              "velocity": 42,
              "position": 11,
              "duration": 0.010416666666666666
            },
            {
              "pitch": 48,
              "velocity": 53,
              "position": 11.25,
              "duration": 0.23958333333333334
            },
            {
              "pitch": 48,
              "velocity": 42,
              "position": 11.5,
              "duration": 0.010416666666666666
            },
            {
              "pitch": 48,
              "velocity": 53,
              "position": 11.75,
              "duration": 0.23958333333333334
            },
            {
              "pitch": 48,
              "velocity": 53,
              "position": 12,
              "duration": 0.4270833333333333
            },
            {
              "pitch": 48,
              "velocity": 49,
              "position": 12.75,
              "duration": 0.2604166666666667
            },
            {
              "pitch": 48,
              "velocity": 51,
              "position": 13.25,
              "duration": 0.28125
            },
            {
              "pitch": 43,
              "velocity": 57,
              "position": 13.5,
              "duration": 0.23958333333333334
            },
            {
              "pitch": 47,
              "velocity": 55,
              "position": 13.75,
              "duration": 0.21875
            },
            {
              "pitch": 48,
              "velocity": 49,
              "position": 14,
              "duration": 0.40625
            },
            {
              "pitch": 48,
              "velocity": 52,
              "position": 14.5,
              "duration": 0.23958333333333334
            },
            {
              "pitch": 48,
              "velocity": 42,
              "position": 15,
              "duration": 0.010416666666666666
            },
            {
              "pitch": 48,
              "velocity": 53,
              "position": 15.25,
              "duration": 0.23958333333333334
            },
            {
              "pitch": 48,
              "velocity": 42,
              "position": 15.5,
              "duration": 0.010416666666666666
            },
            {
              "pitch": 48,
              "velocity": 53,
              "position": 15.75,
              "duration": 0.23958333333333334
            }
          ]
        },
        "15": {
          "ctab": {
            "srcChannel": 15,
            "name": "Pad2",
            "accType": "PHRASE2",
            "editable": false,
            "mutedNotes": [],
            "mutedChords": [],
            "autoStart": false,
            "sourceChordNote": 0,
            "sourceChordType": "Maj7",
            "ctb2Low": null,
            "ctb2Main": {
              "ntr": "ROOT_FIXED",
              "ntt": "CHORD",
              "bassOn": false,
              "chordRootUpperLimit": 7,
              "noteLowLimit": 0,
              "noteHighLimit": 127,
              "rtr": "PITCH_SHIFT"
            },
            "ctb2High": null
          },
          "notes": []
        }
      }
    },
    "Main_D": {
      "type": "Main_D",
      "sizeInBeats": 16,
      "channels": {
        "0": {
          "ctab": {
            "srcChannel": 0,
            "name": "CC_Crash",
            "accType": "SUBRHYTHM",
            "editable": false,
            "mutedNotes": [],
            "mutedChords": [
              "1+2+5",
              "sus4",
              "1+5",
              "1+8",
              "7aug",
              "Maj7aug",
              "7(#9)",
              "7(b13)",
              "7(b9)",
              "7(13)",
              "7#11",
              "7(9)",
              "7b5",
              "7sus4",
              "7th",
              "dim7",
              "dim",
              "minMaj7(9)",
              "minMaj7",
              "min7(11)",
              "min7(9)",
              "min(9)",
              "m7b5",
              "min7",
              "min6",
              "min",
              "aug",
              "Maj6(9)",
              "Maj7(9)",
              "Maj(9)",
              "Maj7#11",
              "Maj7",
              "Maj6",
              "Maj"
            ],
            "autoStart": true,
            "sourceChordNote": 0,
            "sourceChordType": "Maj",
            "ctb2Low": null,
            "ctb2Main": {
              "ntr": "ROOT_FIXED",
              "ntt": "BYPASS",
              "bassOn": false,
              "chordRootUpperLimit": 0,
              "noteLowLimit": 0,
              "noteHighLimit": 127,
              "rtr": "RETRIGGER"
            },
            "ctb2High": null
          },
          "notes": []
        },
        "3": {
          "ctab": {
            "srcChannel": 3,
            "name": "EpRoot",
            "accType": "CHORD1",
            "editable": false,
            "mutedNotes": [],
            "mutedChords": [
              "1+2+5",
              "sus4",
              "1+5",
              "1+8",
              "Maj7aug",
              "dim",
              "minMaj7(9)",
              "minMaj7",
              "min6",
              "min",
              "aug",
              "Maj7(9)",
              "Maj7#11",
              "Maj7",
              "Maj6",
              "Maj"
            ],
            "autoStart": false,
            "sourceChordNote": 0,
            "sourceChordType": "Maj7",
            "ctb2Low": null,
            "ctb2Main": {
              "ntr": "ROOT_TRANSPOSITION",
              "ntt": "MELODY",
              "bassOn": false,
              "chordRootUpperLimit": 6,
              "noteLowLimit": 0,
              "noteHighLimit": 127,
              "rtr": "PITCH_SHIFT"
            },
            "ctb2High": null
          },
          "notes": [
            {
              "pitch": 60,
              "velocity": 48,
              "position": 0,
              "duration": 0.9895833333333334
            },
            {
              "pitch": 60,
              "velocity": 48,
              "position": 3,
              "duration": 0.9895833333333334
            },
            {
              "pitch": 60,
              "velocity": 48,
              "position": 4,
              "duration": 0.9895833333333334
            },
            {
              "pitch": 60,
              "velocity": 48,
              "position": 8,
              "duration": 0.9895833333333334
            },
            {
              "pitch": 60,
              "velocity": 48,
              "position": 11,
              "duration": 0.9895833333333334
            },
            {
              "pitch": 60,
              "velocity": 48,
              "position": 12,
              "duration": 0.9895833333333334
            }
          ]
        },
        "5": {
          "ctab": {
            "srcChannel": 5,
            "name": "PadRoot",
            "accType": "PAD",
            "editable": true,
            "mutedNotes": [],
            "mutedChords": [
              "1+2+5",
              "sus4",
              "1+5",
              "1+8",
              "Maj7aug",
              "dim",
              "minMaj7(9)",
              "minMaj7",
              "min6",
              "min",
              "aug",
              "Maj7(9)",
              "Maj7#11",
              "Maj7",
              "Maj6",
              "Maj"
            ],
            "autoStart": false,
            "sourceChordNote": 0,
            "sourceChordType": "Maj7",
            "ctb2Low": null,
            "ctb2Main": {
              "ntr": "ROOT_TRANSPOSITION",
              "ntt": "MELODY",
              "bassOn": false,
              "chordRootUpperLimit": 6,
              "noteLowLimit": 0,
              "noteHighLimit": 127,
              "rtr": "PITCH_SHIFT"
            },
            "ctb2High": null
          },
          "notes": [
            {
              "pitch": 60,
              "velocity": 52,
              "position": 0,
              "duration": 15.989583333333334
            }
          ]
        },
        "8": {
          "ctab": {
            "srcChannel": 8,
            "name": "addDrums",
            "accType": "SUBRHYTHM",
            "editable": false,
            "mutedNotes": [],
            "mutedChords": [],
            "autoStart": true,
            "sourceChordNote": 0,
            "sourceChordType": "Maj7",
            "ctb2Low": null,
            "ctb2Main": {
              "ntr": "ROOT_FIXED",
              "ntt": "BYPASS",
              "bassOn": false,
              "chordRootUpperLimit": 6,
              "noteLowLimit": 0,
              "noteHighLimit": 127,
              "rtr": "PITCH_SHIFT"
            },
            "ctb2High": null
          },
          "notes": [
            {
              "pitch": 27,
              "velocity": 120,
              "position": 0,
              "duration": 0.010416666666666666
            },
            {
              "pitch": 51,
              "velocity": 60,
              "position": 0,
              "duration": 0.010416666666666666
            },
            {
              "pitch": 61,
              "velocity": 40,
              "position": 0,
              "duration": 0.010416666666666666
            },
            {
              "pitch": 69,
              "velocity": 54,
              "position": 0,
              "duration": 0.010416666666666666
            },
            {
              "pitch": 81,
              "velocity": 33,
              "position": 0,
              "duration": 0.010416666666666666
            },
            {
              "pitch": 82,
              "velocity": 45,
              "position": 0,
              "duration": 0.010416666666666666
            },
            {
              "pitch": 25,
              "velocity": 30,
              "position": 0.25,
              "duration": 0.010416666666666666
            },
            {
              "pitch": 63,
              "velocity": 103,
              "position": 0.25,
              "duration": 0.010416666666666666
            },
            {
              "pitch": 80,
              "velocity": 30,
              "position": 0.25,
              "duration": 0.010416666666666666
            },
            {
              "pitch": 82,
              "velocity": 38,
              "position": 0.25,
              "duration": 0.010416666666666666
            },
            {
              "pitch": 27,
              "velocity": 90,
              "position": 0.5,
              "duration": 0.010416666666666666
            },
            {
              "pitch": 80,
              "velocity": 30,
              "position": 0.5,
              "duration": 0.010416666666666666
            },
            {
              "pitch": 82,
              "velocity": 99,
              "position": 0.5,
              "duration": 0.010416666666666666
            },
            {
              "pitch": 25,
              "velocity": 117,
              "position": 0.75,
              "duration": 0.010416666666666666
            },
            {
              "pitch": 61,
              "velocity": 40,
              "position": 0.75,
              "duration": 0.010416666666666666
            },
            {
              "pitch": 69,
              "velocity": 54,
              "position": 0.75,
              "duration": 0.010416666666666666
            },
            {
              "pitch": 81,
              "velocity": 36,
              "position": 0.75,
              "duration": 0.010416666666666666
            },
            {
              "pitch": 82,
              "velocity": 84,
              "position": 0.75,
              "duration": 0.010416666666666666
            },
            {
              "pitch": 19,
              "velocity": 90,
              "position": 1,
              "duration": 0.010416666666666666
            },
            {
              "pitch": 27,
              "velocity": 42,
              "position": 1,
              "duration": 0.010416666666666666
            },
            {
              "pitch": 40,
              "velocity": 98,
              "position": 1,
              "duration": 0.010416666666666666
            },
            {
              "pitch": 51,
              "velocity": 54,
              "position": 1,
              "duration": 0.010416666666666666
            },
            {
              "pitch": 60,
              "velocity": 92,
              "position": 1,
              "duration": 0.010416666666666666
            },
            {
              "pitch": 80,
              "velocity": 30,
              "position": 1,
              "duration": 0.010416666666666666
            },
            {
              "pitch": 82,
              "velocity": 52,
              "position": 1,
              "duration": 0.010416666666666666
            },
            {
              "pitch": 25,
              "velocity": 58,
              "position": 1.25,
              "duration": 0.010416666666666666
            },
            {
              "pitch": 80,
              "velocity": 36,
              "position": 1.25,
              "duration": 0.010416666666666666
            },
            {
              "pitch": 82,
              "velocity": 37,
              "position": 1.25,
              "duration": 0.010416666666666666
            },
            {
              "pitch": 27,
              "velocity": 117,
              "position": 1.5,
              "duration": 0.010416666666666666
            },
            {
              "pitch": 61,
              "velocity": 36,
              "position": 1.5,
              "duration": 0.010416666666666666
            },
            {
              "pitch": 69,
              "velocity": 57,
              "position": 1.5,
              "duration": 0.010416666666666666
            },
            {
              "pitch": 81,
              "velocity": 41,
              "position": 1.5,
              "duration": 0.010416666666666666
            },
            {
              "pitch": 82,
              "velocity": 99,
              "position": 1.5,
              "duration": 0.010416666666666666
            },
            {
              "pitch": 25,
              "velocity": 54,
              "position": 1.75,
              "duration": 0.010416666666666666
            },
            {
              "pitch": 63,
              "velocity": 107,
              "position": 1.75,
              "duration": 0.010416666666666666
            },
            {
              "pitch": 82,
              "velocity": 74,
              "position": 1.75,
              "duration": 0.010416666666666666
            },
            {
              "pitch": 27,
              "velocity": 48,
              "position": 2,
              "duration": 0.010416666666666666
            },
            {
              "pitch": 51,
              "velocity": 51,
              "position": 2,
              "duration": 0.010416666666666666
            },
            {
              "pitch": 80,
              "velocity": 40,
              "position": 2,
              "duration": 0.010416666666666666
            },
            {
              "pitch": 82,
              "velocity": 49,
              "position": 2,
              "duration": 0.010416666666666666
            },
            {
              "pitch": 25,
              "velocity": 111,
              "position": 2.25,
              "duration": 0.010416666666666666
            },
            {
              "pitch": 62,
              "velocity": 99,
              "position": 2.25,
              "duration": 0.010416666666666666
            },
            {
              "pitch": 81,
              "velocity": 39,
              "position": 2.25,
              "duration": 0.010416666666666666
            },
            {
              "pitch": 82,
              "velocity": 45,
              "position": 2.25,
              "duration": 0.010416666666666666
            },
            {
              "pitch": 27,
              "velocity": 46,
              "position": 2.5,
              "duration": 0.010416666666666666
            },
            {
              "pitch": 60,
              "velocity": 29,
              "position": 2.5,
              "duration": 0.010416666666666666
            },
            {
              "pitch": 80,
              "velocity": 30,
              "position": 2.5,
              "duration": 0.010416666666666666
            },
            {
              "pitch": 82,
              "velocity": 92,
              "position": 2.5,
              "duration": 0.010416666666666666
            },
            {
              "pitch": 25,
              "velocity": 61,
              "position": 2.75,
              "duration": 0.010416666666666666
            },
            {
              "pitch": 61,
              "velocity": 55,
              "position": 2.75,
              "duration": 0.010416666666666666
            },
            {
              "pitch": 80,
              "velocity": 32,
              "position": 2.75,
              "duration": 0.010416666666666666
            },
            {
              "pitch": 82,
              "velocity": 76,
              "position": 2.75,
              "duration": 0.010416666666666666
            },
            {
              "pitch": 19,
              "velocity": 90,
              "position": 3,
              "duration": 0.010416666666666666
            },
            {
              "pitch": 27,
              "velocity": 117,
              "position": 3,
              "duration": 0.010416666666666666
            },
            {
              "pitch": 40,
              "velocity": 94,
              "position": 3,
              "duration": 0.010416666666666666
            },
            {
              "pitch": 51,
              "velocity": 56,
              "position": 3,
              "duration": 0.010416666666666666
            },
            {
              "pitch": 60,
              "velocity": 86,
              "position": 3,
              "duration": 0.010416666666666666
            },
            {
              "pitch": 81,
              "velocity": 35,
              "position": 3,
              "duration": 0.010416666666666666
            },
            {
              "pitch": 82,
              "velocity": 54,
              "position": 3,
              "duration": 0.010416666666666666
            },
            {
              "pitch": 25,
              "velocity": 55,
              "position": 3.25,
              "duration": 0.010416666666666666
            },
            {
              "pitch": 80,
              "velocity": 27,
              "position": 3.25,
              "duration": 0.010416666666666666
            },
            {
              "pitch": 82,
              "velocity": 48,
              "position": 3.25,
              "duration": 0.010416666666666666
            },
            {
              "pitch": 27,
              "velocity": 120,
              "position": 3.5,
              "duration": 0.010416666666666666
            },
            {
              "pitch": 60,
              "velocity": 74,
              "position": 3.5,
              "duration": 0.010416666666666666
            },
            {
              "pitch": 80,
              "velocity": 34,
              "position": 3.5,
              "duration": 0.010416666666666666
            },
            {
              "pitch": 82,
              "velocity": 92,
              "position": 3.5,
              "duration": 0.010416666666666666
            },
            {
              "pitch": 25,
              "velocity": 65,
              "position": 3.75,
              "duration": 0.010416666666666666
            },
            {
              "pitch": 63,
              "velocity": 74,
              "position": 3.75,
              "duration": 0.010416666666666666
            },
            {
              "pitch": 80,
              "velocity": 40,
              "position": 3.75,
              "duration": 0.010416666666666666
            },
            {
              "pitch": 82,
              "velocity": 88,
              "position": 3.75,
              "duration": 0.010416666666666666
            },
            {
              "pitch": 27,
              "velocity": 123,
              "position": 4,
              "duration": 0.010416666666666666
            },
            {
              "pitch": 51,
              "velocity": 55,
              "position": 4,
              "duration": 0.010416666666666666
            },
            {
              "pitch": 61,
              "velocity": 47,
              "position": 4,
              "duration": 0.010416666666666666
            },
            {
              "pitch": 69,
              "velocity": 47,
              "position": 4,
              "duration": 0.010416666666666666
            },
            {
              "pitch": 81,
              "velocity": 37,
              "position": 4,
              "duration": 0.010416666666666666
            },
            {
              "pitch": 82,
              "velocity": 61,
              "position": 4,
              "duration": 0.010416666666666666
            },
            {
              "pitch": 25,
              "velocity": 46,
              "position": 4.25,
              "duration": 0.010416666666666666
            },
            {
              "pitch": 80,
              "velocity": 28,
              "position": 4.25,
              "duration": 0.010416666666666666
            },
            {
              "pitch": 82,
              "velocity": 49,
              "position": 4.25,
              "duration": 0.010416666666666666
            },
            {
              "pitch": 27,
              "velocity": 90,
              "position": 4.5,
              "duration": 0.010416666666666666
            },
            {
              "pitch": 63,
              "velocity": 107,
              "position": 4.5,
              "duration": 0.010416666666666666
            },
            {
              "pitch": 80,
              "velocity": 40,
              "position": 4.5,
              "duration": 0.010416666666666666
            },
            {
              "pitch": 82,
              "velocity": 103,
              "position": 4.5,
              "duration": 0.010416666666666666
            },
            {
              "pitch": 25,
              "velocity": 120,
              "position": 4.75,
              "duration": 0.010416666666666666
            },
            {
              "pitch": 62,
              "velocity": 40,
              "position": 4.75,
              "duration": 0.010416666666666666
            },
            {
              "pitch": 69,
              "velocity": 50,
              "position": 4.75,
              "duration": 0.010416666666666666
            },
            {
              "pitch": 81,
              "velocity": 40,
              "position": 4.75,
              "duration": 0.010416666666666666
            },
            {
              "pitch": 82,
              "velocity": 76,
              "position": 4.75,
              "duration": 0.010416666666666666
            },
            {
              "pitch": 19,
              "velocity": 90,
              "position": 5,
              "duration": 0.010416666666666666
            },
            {
              "pitch": 27,
              "velocity": 52,
              "position": 5,
              "duration": 0.010416666666666666
            },
            {
              "pitch": 40,
              "velocity": 98,
              "position": 5,
              "duration": 0.010416666666666666
            },
            {
              "pitch": 51,
              "velocity": 60,
              "position": 5,
              "duration": 0.010416666666666666
            },
            {
              "pitch": 60,
              "velocity": 82,
              "position": 5,
              "duration": 0.010416666666666666
            },
            {
              "pitch": 80,
              "velocity": 29,
              "position": 5,
              "duration": 0.010416666666666666
            },
            {
              "pitch": 82,
              "velocity": 61,
              "position": 5,
              "duration": 0.010416666666666666
            },
            {
              "pitch": 25,
              "velocity": 71,
              "position": 5.25,
              "duration": 0.010416666666666666
            },
            {
              "pitch": 80,
              "velocity": 31,
              "position": 5.25,
              "duration": 0.010416666666666666
            },
            {
              "pitch": 82,
              "velocity": 46,
              "position": 5.25,
              "duration": 0.010416666666666666
            },
            {
              "pitch": 27,
              "velocity": 117,
              "position": 5.5,
              "duration": 0.010416666666666666
            },
            {
              "pitch": 61,
              "velocity": 39,
              "position": 5.5,
              "duration": 0.010416666666666666
            },
            {
              "pitch": 69,
              "velocity": 48,
              "position": 5.5,
              "duration": 0.010416666666666666
            },
            {
              "pitch": 81,
              "velocity": 40,
              "position": 5.5,
              "duration": 0.010416666666666666
            },
            {
              "pitch": 82,
              "velocity": 90,
              "position": 5.5,
              "duration": 0.010416666666666666
            },
            {
              "pitch": 25,
              "velocity": 39,
              "position": 5.75,
              "duration": 0.010416666666666666
            },
            {
              "pitch": 63,
              "velocity": 99,
              "position": 5.75,
              "duration": 0.010416666666666666
            },
            {
              "pitch": 80,
              "velocity": 30,
              "position": 5.75,
              "duration": 0.010416666666666666
            },
            {
              "pitch": 82,
              "velocity": 71,
              "position": 5.75,
              "duration": 0.010416666666666666
            },
            {
              "pitch": 27,
              "velocity": 79,
              "position": 6,
              "duration": 0.010416666666666666
            },
            {
              "pitch": 51,
              "velocity": 61,
              "position": 6,
              "duration": 0.010416666666666666
            },
            {
              "pitch": 80,
              "velocity": 35,
              "position": 6,
              "duration": 0.010416666666666666
            },
            {
              "pitch": 82,
              "velocity": 54,
              "position": 6,
              "duration": 0.010416666666666666
            },
            {
              "pitch": 25,
              "velocity": 125,
              "position": 6.25,
              "duration": 0.010416666666666666
            },
            {
              "pitch": 62,
              "velocity": 111,
              "position": 6.25,
              "duration": 0.010416666666666666
            },
            {
              "pitch": 81,
              "velocity": 39,
              "position": 6.25,
              "duration": 0.010416666666666666
            },
            {
              "pitch": 82,
              "velocity": 48,
              "position": 6.25,
              "duration": 0.010416666666666666
            },
            {
              "pitch": 27,
              "velocity": 51,
              "position": 6.5,
              "duration": 0.010416666666666666
            },
            {
              "pitch": 80,
              "velocity": 28,
              "position": 6.5,
              "duration": 0.010416666666666666
            },
            {
              "pitch": 82,
              "velocity": 95,
              "position": 6.5,
              "duration": 0.010416666666666666
            },
            {
              "pitch": 25,
              "velocity": 86,
              "position": 6.75,
              "duration": 0.010416666666666666
            },
            {
              "pitch": 61,
              "velocity": 49,
              "position": 6.75,
              "duration": 0.010416666666666666
            },
            {
              "pitch": 80,
              "velocity": 35,
              "position": 6.75,
              "duration": 0.010416666666666666
            },
            {
              "pitch": 82,
              "velocity": 71,
              "position": 6.75,
              "duration": 0.010416666666666666
            },
            {
              "pitch": 19,
              "velocity": 90,
              "position": 7,
              "duration": 0.010416666666666666
            },
            {
              "pitch": 27,
              "velocity": 123,
              "position": 7,
              "duration": 0.010416666666666666
            },
            {
              "pitch": 40,
              "velocity": 98,
              "position": 7,
              "duration": 0.010416666666666666
            },
            {
              "pitch": 51,
              "velocity": 60,
              "position": 7,
              "duration": 0.010416666666666666
            },
            {
              "pitch": 60,
              "velocity": 82,
              "position": 7,
              "duration": 0.010416666666666666
            },
            {
              "pitch": 81,
              "velocity": 30,
              "position": 7,
              "duration": 0.010416666666666666
            },
            {
              "pitch": 82,
              "velocity": 57,
              "position": 7,
              "duration": 0.010416666666666666
            },
            {
              "pitch": 25,
              "velocity": 65,
              "position": 7.25,
              "duration": 0.010416666666666666
            },
            {
              "pitch": 80,
              "velocity": 27,
              "position": 7.25,
              "duration": 0.010416666666666666
            },
            {
              "pitch": 82,
              "velocity": 52,
              "position": 7.25,
              "duration": 0.010416666666666666
            },
            {
              "pitch": 27,
              "velocity": 117,
              "position": 7.5,
              "duration": 0.010416666666666666
            },
            {
              "pitch": 60,
              "velocity": 74,
              "position": 7.5,
              "duration": 0.010416666666666666
            },
            {
              "pitch": 80,
              "velocity": 35,
              "position": 7.5,
              "duration": 0.010416666666666666
            },
            {
              "pitch": 82,
              "velocity": 92,
              "position": 7.5,
              "duration": 0.010416666666666666
            },
            {
              "pitch": 25,
              "velocity": 90,
              "position": 7.75,
              "duration": 0.010416666666666666
            },
            {
              "pitch": 63,
              "velocity": 45,
              "position": 7.75,
              "duration": 0.010416666666666666
            },
            {
              "pitch": 80,
              "velocity": 39,
              "position": 7.75,
              "duration": 0.010416666666666666
            },
            {
              "pitch": 82,
              "velocity": 74,
              "position": 7.75,
              "duration": 0.010416666666666666
            },
            {
              "pitch": 27,
              "velocity": 120,
              "position": 8,
              "duration": 0.010416666666666666
            },
            {
              "pitch": 51,
              "velocity": 59,
              "position": 8,
              "duration": 0.010416666666666666
            },
            {
              "pitch": 61,
              "velocity": 58,
              "position": 8,
              "duration": 0.010416666666666666
            },
            {
              "pitch": 69,
              "velocity": 48,
              "position": 8,
              "duration": 0.010416666666666666
            },
            {
              "pitch": 81,
              "velocity": 41,
              "position": 8,
              "duration": 0.010416666666666666
            },
            {
              "pitch": 82,
              "velocity": 59,
              "position": 8,
              "duration": 0.010416666666666666
            },
            {
              "pitch": 25,
              "velocity": 30,
              "position": 8.25,
              "duration": 0.010416666666666666
            },
            {
              "pitch": 80,
              "velocity": 31,
              "position": 8.25,
              "duration": 0.010416666666666666
            },
            {
              "pitch": 82,
              "velocity": 49,
              "position": 8.25,
              "duration": 0.010416666666666666
            },
            {
              "pitch": 27,
              "velocity": 90,
              "position": 8.5,
              "duration": 0.010416666666666666
            },
            {
              "pitch": 63,
              "velocity": 107,
              "position": 8.5,
              "duration": 0.010416666666666666
            },
            {
              "pitch": 80,
              "velocity": 35,
              "position": 8.5,
              "duration": 0.010416666666666666
            },
            {
              "pitch": 82,
              "velocity": 95,
              "position": 8.5,
              "duration": 0.010416666666666666
            },
            {
              "pitch": 25,
              "velocity": 117,
              "position": 8.75,
              "duration": 0.010416666666666666
            },
            {
              "pitch": 61,
              "velocity": 51,
              "position": 8.75,
              "duration": 0.010416666666666666
            },
            {
              "pitch": 69,
              "velocity": 49,
              "position": 8.75,
              "duration": 0.010416666666666666
            },
            {
              "pitch": 81,
              "velocity": 40,
              "position": 8.75,
              "duration": 0.010416666666666666
            },
            {
              "pitch": 82,
              "velocity": 71,
              "position": 8.75,
              "duration": 0.010416666666666666
            },
            {
              "pitch": 19,
              "velocity": 90,
              "position": 9,
              "duration": 0.010416666666666666
            },
            {
              "pitch": 27,
              "velocity": 42,
              "position": 9,
              "duration": 0.010416666666666666
            },
            {
              "pitch": 40,
              "velocity": 85,
              "position": 9,
              "duration": 0.010416666666666666
            },
            {
              "pitch": 51,
              "velocity": 44,
              "position": 9,
              "duration": 0.010416666666666666
            },
            {
              "pitch": 60,
              "velocity": 89,
              "position": 9,
              "duration": 0.010416666666666666
            },
            {
              "pitch": 80,
              "velocity": 22,
              "position": 9,
              "duration": 0.010416666666666666
            },
            {
              "pitch": 82,
              "velocity": 49,
              "position": 9,
              "duration": 0.010416666666666666
            },
            {
              "pitch": 25,
              "velocity": 58,
              "position": 9.25,
              "duration": 0.010416666666666666
            },
            {
              "pitch": 80,
              "velocity": 32,
              "position": 9.25,
              "duration": 0.010416666666666666
            },
            {
              "pitch": 82,
              "velocity": 46,
              "position": 9.25,
              "duration": 0.010416666666666666
            },
            {
              "pitch": 27,
              "velocity": 117,
              "position": 9.5,
              "duration": 0.010416666666666666
            },
            {
              "pitch": 61,
              "velocity": 43,
              "position": 9.5,
              "duration": 0.010416666666666666
            },
            {
              "pitch": 69,
              "velocity": 50,
              "position": 9.5,
              "duration": 0.010416666666666666
            },
            {
              "pitch": 81,
              "velocity": 30,
              "position": 9.5,
              "duration": 0.010416666666666666
            },
            {
              "pitch": 82,
              "velocity": 95,
              "position": 9.5,
              "duration": 0.010416666666666666
            },
            {
              "pitch": 25,
              "velocity": 54,
              "position": 9.75,
              "duration": 0.010416666666666666
            },
            {
              "pitch": 63,
              "velocity": 99,
              "position": 9.75,
              "duration": 0.010416666666666666
            },
            {
              "pitch": 80,
              "velocity": 25,
              "position": 9.75,
              "duration": 0.010416666666666666
            },
            {
              "pitch": 82,
              "velocity": 57,
              "position": 9.75,
              "duration": 0.010416666666666666
            },
            {
              "pitch": 27,
              "velocity": 48,
              "position": 10,
              "duration": 0.010416666666666666
            },
            {
              "pitch": 51,
              "velocity": 52,
              "position": 10,
              "duration": 0.010416666666666666
            },
            {
              "pitch": 80,
              "velocity": 31,
              "position": 10,
              "duration": 0.010416666666666666
            },
            {
              "pitch": 82,
              "velocity": 46,
              "position": 10,
              "duration": 0.010416666666666666
            },
            {
              "pitch": 25,
              "velocity": 111,
              "position": 10.25,
              "duration": 0.010416666666666666
            },
            {
              "pitch": 62,
              "velocity": 107,
              "position": 10.25,
              "duration": 0.010416666666666666
            },
            {
              "pitch": 81,
              "velocity": 36,
              "position": 10.25,
              "duration": 0.010416666666666666
            },
            {
              "pitch": 82,
              "velocity": 51,
              "position": 10.25,
              "duration": 0.010416666666666666
            },
            {
              "pitch": 27,
              "velocity": 46,
              "position": 10.5,
              "duration": 0.010416666666666666
            },
            {
              "pitch": 80,
              "velocity": 27,
              "position": 10.5,
              "duration": 0.010416666666666666
            },
            {
              "pitch": 82,
              "velocity": 95,
              "position": 10.5,
              "duration": 0.010416666666666666
            },
            {
              "pitch": 25,
              "velocity": 61,
              "position": 10.75,
              "duration": 0.010416666666666666
            },
            {
              "pitch": 61,
              "velocity": 54,
              "position": 10.75,
              "duration": 0.010416666666666666
            },
            {
              "pitch": 80,
              "velocity": 38,
              "position": 10.75,
              "duration": 0.010416666666666666
            },
            {
              "pitch": 82,
              "velocity": 58,
              "position": 10.75,
              "duration": 0.010416666666666666
            },
            {
              "pitch": 19,
              "velocity": 90,
              "position": 11,
              "duration": 0.010416666666666666
            },
            {
              "pitch": 27,
              "velocity": 117,
              "position": 11,
              "duration": 0.010416666666666666
            },
            {
              "pitch": 40,
              "velocity": 94,
              "position": 11,
              "duration": 0.010416666666666666
            },
            {
              "pitch": 51,
              "velocity": 54,
              "position": 11,
              "duration": 0.010416666666666666
            },
            {
              "pitch": 60,
              "velocity": 82,
              "position": 11,
              "duration": 0.010416666666666666
            },
            {
              "pitch": 81,
              "velocity": 33,
              "position": 11,
              "duration": 0.010416666666666666
            },
            {
              "pitch": 82,
              "velocity": 52,
              "position": 11,
              "duration": 0.010416666666666666
            },
            {
              "pitch": 25,
              "velocity": 55,
              "position": 11.25,
              "duration": 0.010416666666666666
            },
            {
              "pitch": 80,
              "velocity": 20,
              "position": 11.25,
              "duration": 0.010416666666666666
            },
            {
              "pitch": 82,
              "velocity": 51,
              "position": 11.25,
              "duration": 0.010416666666666666
            },
            {
              "pitch": 27,
              "velocity": 120,
              "position": 11.5,
              "duration": 0.010416666666666666
            },
            {
              "pitch": 60,
              "velocity": 67,
              "position": 11.5,
              "duration": 0.010416666666666666
            },
            {
              "pitch": 80,
              "velocity": 29,
              "position": 11.5,
              "duration": 0.010416666666666666
            },
            {
              "pitch": 82,
              "velocity": 92,
              "position": 11.5,
              "duration": 0.010416666666666666
            },
            {
              "pitch": 25,
              "velocity": 65,
              "position": 11.75,
              "duration": 0.010416666666666666
            },
            {
              "pitch": 63,
              "velocity": 67,
              "position": 11.75,
              "duration": 0.010416666666666666
            },
            {
              "pitch": 80,
              "velocity": 30,
              "position": 11.75,
              "duration": 0.010416666666666666
            },
            {
              "pitch": 82,
              "velocity": 61,
              "position": 11.75,
              "duration": 0.010416666666666666
            },
            {
              "pitch": 27,
              "velocity": 123,
              "position": 12,
              "duration": 0.010416666666666666
            },
            {
              "pitch": 51,
              "velocity": 61,
              "position": 12,
              "duration": 0.010416666666666666
            },
            {
              "pitch": 61,
              "velocity": 39,
              "position": 12,
              "duration": 0.010416666666666666
            },
            {
              "pitch": 69,
              "velocity": 48,
              "position": 12,
              "duration": 0.010416666666666666
            },
            {
              "pitch": 81,
              "velocity": 35,
              "position": 12,
              "duration": 0.010416666666666666
            },
            {
              "pitch": 82,
              "velocity": 44,
              "position": 12,
              "duration": 0.010416666666666666
            },
            {
              "pitch": 25,
              "velocity": 46,
              "position": 12.25,
              "duration": 0.010416666666666666
            },
            {
              "pitch": 80,
              "velocity": 28,
              "position": 12.25,
              "duration": 0.010416666666666666
            },
            {
              "pitch": 82,
              "velocity": 57,
              "position": 12.25,
              "duration": 0.010416666666666666
            },
            {
              "pitch": 27,
              "velocity": 90,
              "position": 12.5,
              "duration": 0.010416666666666666
            },
            {
              "pitch": 63,
              "velocity": 92,
              "position": 12.5,
              "duration": 0.010416666666666666
            },
            {
              "pitch": 80,
              "velocity": 31,
              "position": 12.5,
              "duration": 0.010416666666666666
            },
            {
              "pitch": 82,
              "velocity": 95,
              "position": 12.5,
              "duration": 0.010416666666666666
            },
            {
              "pitch": 25,
              "velocity": 120,
              "position": 12.75,
              "duration": 0.010416666666666666
            },
            {
              "pitch": 61,
              "velocity": 67,
              "position": 12.75,
              "duration": 0.010416666666666666
            },
            {
              "pitch": 69,
              "velocity": 50,
              "position": 12.75,
              "duration": 0.010416666666666666
            },
            {
              "pitch": 81,
              "velocity": 41,
              "position": 12.75,
              "duration": 0.010416666666666666
            },
            {
              "pitch": 82,
              "velocity": 57,
              "position": 12.75,
              "duration": 0.010416666666666666
            },
            {
              "pitch": 19,
              "velocity": 90,
              "position": 13,
              "duration": 0.010416666666666666
            },
            {
              "pitch": 27,
              "velocity": 52,
              "position": 13,
              "duration": 0.010416666666666666
            },
            {
              "pitch": 40,
              "velocity": 98,
              "position": 13,
              "duration": 0.010416666666666666
            },
            {
              "pitch": 51,
              "velocity": 65,
              "position": 13,
              "duration": 0.010416666666666666
            },
            {
              "pitch": 60,
              "velocity": 67,
              "position": 13,
              "duration": 0.010416666666666666
            },
            {
              "pitch": 80,
              "velocity": 30,
              "position": 13,
              "duration": 0.010416666666666666
            },
            {
              "pitch": 82,
              "velocity": 55,
              "position": 13,
              "duration": 0.010416666666666666
            },
            {
              "pitch": 25,
              "velocity": 71,
              "position": 13.25,
              "duration": 0.010416666666666666
            },
            {
              "pitch": 80,
              "velocity": 38,
              "position": 13.25,
              "duration": 0.010416666666666666
            },
            {
              "pitch": 82,
              "velocity": 57,
              "position": 13.25,
              "duration": 0.010416666666666666
            },
            {
              "pitch": 27,
              "velocity": 117,
              "position": 13.5,
              "duration": 0.010416666666666666
            },
            {
              "pitch": 61,
              "velocity": 42,
              "position": 13.5,
              "duration": 0.010416666666666666
            },
            {
              "pitch": 69,
              "velocity": 47,
              "position": 13.5,
              "duration": 0.010416666666666666
            },
            {
              "pitch": 81,
              "velocity": 43,
              "position": 13.5,
              "duration": 0.010416666666666666
            },
            {
              "pitch": 82,
              "velocity": 95,
              "position": 13.5,
              "duration": 0.010416666666666666
            },
            {
              "pitch": 25,
              "velocity": 39,
              "position": 13.75,
              "duration": 0.010416666666666666
            },
            {
              "pitch": 63,
              "velocity": 107,
              "position": 13.75,
              "duration": 0.010416666666666666
            },
            {
              "pitch": 80,
              "velocity": 30,
              "position": 13.75,
              "duration": 0.010416666666666666
            },
            {
              "pitch": 82,
              "velocity": 65,
              "position": 13.75,
              "duration": 0.010416666666666666
            },
            {
              "pitch": 27,
              "velocity": 79,
              "position": 14,
              "duration": 0.010416666666666666
            },
            {
              "pitch": 51,
              "velocity": 56,
              "position": 14,
              "duration": 0.010416666666666666
            },
            {
              "pitch": 80,
              "velocity": 34,
              "position": 14,
              "duration": 0.010416666666666666
            },
            {
              "pitch": 82,
              "velocity": 55,
              "position": 14,
              "duration": 0.010416666666666666
            },
            {
              "pitch": 25,
              "velocity": 125,
              "position": 14.25,
              "duration": 0.010416666666666666
            },
            {
              "pitch": 40,
              "velocity": 89,
              "position": 14.25,
              "duration": 0.010416666666666666
            },
            {
              "pitch": 62,
              "velocity": 107,
              "position": 14.25,
              "duration": 0.010416666666666666
            },
            {
              "pitch": 81,
              "velocity": 39,
              "position": 14.25,
              "duration": 0.010416666666666666
            },
            {
              "pitch": 82,
              "velocity": 46,
              "position": 14.25,
              "duration": 0.010416666666666666
            },
            {
              "pitch": 27,
              "velocity": 51,
              "position": 14.5,
              "duration": 0.010416666666666666
            },
            {
              "pitch": 80,
              "velocity": 36,
              "position": 14.5,
              "duration": 0.010416666666666666
            },
            {
              "pitch": 82,
              "velocity": 95,
              "position": 14.5,
              "duration": 0.010416666666666666
            },
            {
              "pitch": 25,
              "velocity": 86,
              "position": 14.75,
              "duration": 0.010416666666666666
            },
            {
              "pitch": 61,
              "velocity": 53,
              "position": 14.75,
              "duration": 0.010416666666666666
            },
            {
              "pitch": 80,
              "velocity": 42,
              "position": 14.75,
              "duration": 0.010416666666666666
            },
            {
              "pitch": 82,
              "velocity": 71,
              "position": 14.75,
              "duration": 0.010416666666666666
            },
            {
              "pitch": 19,
              "velocity": 90,
              "position": 15,
              "duration": 0.010416666666666666
            },
            {
              "pitch": 27,
              "velocity": 123,
              "position": 15,
              "duration": 0.010416666666666666
            },
            {
              "pitch": 40,
              "velocity": 98,
              "position": 15,
              "duration": 0.010416666666666666
            },
            {
              "pitch": 51,
              "velocity": 60,
              "position": 15,
              "duration": 0.010416666666666666
            },
            {
              "pitch": 60,
              "velocity": 92,
              "position": 15,
              "duration": 0.010416666666666666
            },
            {
              "pitch": 81,
              "velocity": 39,
              "position": 15,
              "duration": 0.010416666666666666
            },
            {
              "pitch": 82,
              "velocity": 58,
              "position": 15,
              "duration": 0.010416666666666666
            },
            {
              "pitch": 25,
              "velocity": 65,
              "position": 15.25,
              "duration": 0.010416666666666666
            },
            {
              "pitch": 80,
              "velocity": 26,
              "position": 15.25,
              "duration": 0.010416666666666666
            },
            {
              "pitch": 82,
              "velocity": 59,
              "position": 15.25,
              "duration": 0.010416666666666666
            },
            {
              "pitch": 27,
              "velocity": 117,
              "position": 15.5,
              "duration": 0.010416666666666666
            },
            {
              "pitch": 60,
              "velocity": 74,
              "position": 15.5,
              "duration": 0.010416666666666666
            },
            {
              "pitch": 80,
              "velocity": 28,
              "position": 15.5,
              "duration": 0.010416666666666666
            },
            {
              "pitch": 82,
              "velocity": 79,
              "position": 15.5,
              "duration": 0.010416666666666666
            },
            {
              "pitch": 25,
              "velocity": 90,
              "position": 15.75,
              "duration": 0.010416666666666666
            },
            {
              "pitch": 80,
              "velocity": 31,
              "position": 15.75,
              "duration": 0.010416666666666666
            },
            {
              "pitch": 82,
              "velocity": 59,
              "position": 15.75,
              "duration": 0.010416666666666666
            }
          ]
        },
        "9": {
          "ctab": {
            "srcChannel": 9,
            "name": "MainDrum",
            "accType": "RHYTHM",
            "editable": false,
            "mutedNotes": [],
            "mutedChords": [],
            "autoStart": true,
            "sourceChordNote": 0,
            "sourceChordType": "Maj7",
            "ctb2Low": null,
            "ctb2Main": {
              "ntr": "ROOT_FIXED",
              "ntt": "BYPASS",
              "bassOn": false,
              "chordRootUpperLimit": 6,
              "noteLowLimit": 0,
              "noteHighLimit": 127,
              "rtr": "PITCH_SHIFT"
            },
            "ctb2High": null
          },
          "notes": [
            {
              "pitch": 33,
              "velocity": 59,
              "position": 0,
              "duration": 0.010416666666666666
            },
            {
              "pitch": 42,
              "velocity": 50,
              "position": 0,
              "duration": 0.010416666666666666
            },
            {
              "pitch": 33,
              "velocity": 45,
              "position": 0.5,
              "duration": 0.010416666666666666
            },
            {
              "pitch": 42,
              "velocity": 49,
              "position": 0.5,
              "duration": 0.010416666666666666
            },
            {
              "pitch": 25,
              "velocity": 100,
              "position": 1,
              "duration": 0.010416666666666666
            },
            {
              "pitch": 42,
              "velocity": 48,
              "position": 1,
              "duration": 0.010416666666666666
            },
            {
              "pitch": 42,
              "velocity": 34,
              "position": 1.5,
              "duration": 0.010416666666666666
            },
            {
              "pitch": 33,
              "velocity": 59,
              "position": 1.75,
              "duration": 0.010416666666666666
            },
            {
              "pitch": 42,
              "velocity": 51,
              "position": 2,
              "duration": 0.010416666666666666
            },
            {
              "pitch": 33,
              "velocity": 42,
              "position": 2.5,
              "duration": 0.010416666666666666
            },
            {
              "pitch": 42,
              "velocity": 40,
              "position": 2.5,
              "duration": 0.010416666666666666
            },
            {
              "pitch": 25,
              "velocity": 108,
              "position": 3,
              "duration": 0.010416666666666666
            },
            {
              "pitch": 42,
              "velocity": 48,
              "position": 3,
              "duration": 0.010416666666666666
            },
            {
              "pitch": 42,
              "velocity": 39,
              "position": 3.5,
              "duration": 0.010416666666666666
            },
            {
              "pitch": 46,
              "velocity": 45,
              "position": 3.75,
              "duration": 0.010416666666666666
            },
            {
              "pitch": 33,
              "velocity": 40,
              "position": 4,
              "duration": 0.010416666666666666
            },
            {
              "pitch": 42,
              "velocity": 46,
              "position": 4,
              "duration": 0.010416666666666666
            },
            {
              "pitch": 33,
              "velocity": 56,
              "position": 4.5,
              "duration": 0.010416666666666666
            },
            {
              "pitch": 42,
              "velocity": 55,
              "position": 4.5,
              "duration": 0.010416666666666666
            },
            {
              "pitch": 25,
              "velocity": 102,
              "position": 5,
              "duration": 0.010416666666666666
            },
            {
              "pitch": 42,
              "velocity": 51,
              "position": 5,
              "duration": 0.010416666666666666
            },
            {
              "pitch": 42,
              "velocity": 47,
              "position": 5.5,
              "duration": 0.010416666666666666
            },
            {
              "pitch": 33,
              "velocity": 56,
              "position": 5.75,
              "duration": 0.010416666666666666
            },
            {
              "pitch": 42,
              "velocity": 57,
              "position": 6,
              "duration": 0.010416666666666666
            },
            {
              "pitch": 33,
              "velocity": 47,
              "position": 6.5,
              "duration": 0.010416666666666666
            },
            {
              "pitch": 42,
              "velocity": 54,
              "position": 6.5,
              "duration": 0.010416666666666666
            },
            {
              "pitch": 25,
              "velocity": 97,
              "position": 7,
              "duration": 0.010416666666666666
            },
            {
              "pitch": 42,
              "velocity": 48,
              "position": 7,
              "duration": 0.010416666666666666
            },
            {
              "pitch": 46,
              "velocity": 36,
              "position": 7.25,
              "duration": 0.010416666666666666
            },
            {
              "pitch": 42,
              "velocity": 37,
              "position": 7.5,
              "duration": 0.010416666666666666
            },
            {
              "pitch": 25,
              "velocity": 72,
              "position": 7.75,
              "duration": 0.010416666666666666
            },
            {
              "pitch": 46,
              "velocity": 40,
              "position": 7.75,
              "duration": 0.010416666666666666
            },
            {
              "pitch": 33,
              "velocity": 59,
              "position": 8,
              "duration": 0.010416666666666666
            },
            {
              "pitch": 42,
              "velocity": 40,
              "position": 8,
              "duration": 0.010416666666666666
            },
            {
              "pitch": 33,
              "velocity": 42,
              "position": 8.5,
              "duration": 0.010416666666666666
            },
            {
              "pitch": 42,
              "velocity": 49,
              "position": 8.5,
              "duration": 0.010416666666666666
            },
            {
              "pitch": 25,
              "velocity": 125,
              "position": 9,
              "duration": 0.010416666666666666
            },
            {
              "pitch": 42,
              "velocity": 86,
              "position": 9,
              "duration": 0.010416666666666666
            },
            {
              "pitch": 42,
              "velocity": 46,
              "position": 9.5,
              "duration": 0.010416666666666666
            },
            {
              "pitch": 33,
              "velocity": 59,
              "position": 9.75,
              "duration": 0.010416666666666666
            },
            {
              "pitch": 42,
              "velocity": 57,
              "position": 10,
              "duration": 0.010416666666666666
            },
            {
              "pitch": 33,
              "velocity": 56,
              "position": 10.5,
              "duration": 0.010416666666666666
            },
            {
              "pitch": 42,
              "velocity": 79,
              "position": 10.5,
              "duration": 0.010416666666666666
            },
            {
              "pitch": 25,
              "velocity": 100,
              "position": 11,
              "duration": 0.010416666666666666
            },
            {
              "pitch": 42,
              "velocity": 67,
              "position": 11,
              "duration": 0.010416666666666666
            },
            {
              "pitch": 42,
              "velocity": 71,
              "position": 11.5,
              "duration": 0.010416666666666666
            },
            {
              "pitch": 33,
              "velocity": 56,
              "position": 12,
              "duration": 0.010416666666666666
            },
            {
              "pitch": 42,
              "velocity": 46,
              "position": 12,
              "duration": 0.010416666666666666
            },
            {
              "pitch": 33,
              "velocity": 59,
              "position": 12.5,
              "duration": 0.010416666666666666
            },
            {
              "pitch": 42,
              "velocity": 54,
              "position": 12.5,
              "duration": 0.010416666666666666
            },
            {
              "pitch": 25,
              "velocity": 116,
              "position": 13,
              "duration": 0.010416666666666666
            },
            {
              "pitch": 42,
              "velocity": 52,
              "position": 13,
              "duration": 0.010416666666666666
            },
            {
              "pitch": 42,
              "velocity": 54,
              "position": 13.5,
              "duration": 0.010416666666666666
            },
            {
              "pitch": 33,
              "velocity": 59,
              "position": 13.75,
              "duration": 0.010416666666666666
            },
            {
              "pitch": 46,
              "velocity": 36,
              "position": 13.75,
              "duration": 0.010416666666666666
            },
            {
              "pitch": 42,
              "velocity": 41,
              "position": 14,
              "duration": 0.010416666666666666
            },
            {
              "pitch": 25,
              "velocity": 81,
              "position": 14.25,
              "duration": 0.010416666666666666
            },
            {
              "pitch": 33,
              "velocity": 47,
              "position": 14.5,
              "duration": 0.010416666666666666
            },
            {
              "pitch": 42,
              "velocity": 44,
              "position": 14.5,
              "duration": 0.010416666666666666
            },
            {
              "pitch": 25,
              "velocity": 121,
              "position": 15,
              "duration": 0.010416666666666666
            },
            {
              "pitch": 42,
              "velocity": 54,
              "position": 15,
              "duration": 0.010416666666666666
            },
            {
              "pitch": 42,
              "velocity": 54,
              "position": 15.5,
              "duration": 0.010416666666666666
            }
          ]
        },
        "10": {
          "ctab": {
            "srcChannel": 10,
            "name": "Bass",
            "accType": "BASS",
            "editable": false,
            "mutedNotes": [],
            "mutedChords": [],
            "autoStart": false,
            "sourceChordNote": 0,
            "sourceChordType": "Maj7",
            "ctb2Low": null,
            "ctb2Main": {
              "ntr": "ROOT_TRANSPOSITION",
              "ntt": "MELODY",
              "bassOn": true,
              "chordRootUpperLimit": 3,
              "noteLowLimit": 28,
              "noteHighLimit": 39,
              "rtr": "PITCH_SHIFT_TO_ROOT"
            },
            "ctb2High": null
          },
          "notes": [
            {
              "pitch": 24,
              "velocity": 111,
              "position": 0,
              "duration": 0.4895833333333333
            },
            {
              "pitch": 24,
              "velocity": 111,
              "position": 0.5,
              "duration": 0.34375
            },
            {
              "pitch": 24,
              "velocity": 95,
              "position": 1.75,
              "duration": 0.7395833333333334
            },
            {
              "pitch": 24,
              "velocity": 94,
              "position": 2.5,
              "duration": 0.2604166666666667
            },
            {
              "pitch": 31,
              "velocity": 84,
              "position": 3.5,
              "duration": 0.23958333333333334
            },
            {
              "pitch": 35,
              "velocity": 91,
              "position": 3.75,
              "duration": 0.23958333333333334
            },
            {
              "pitch": 24,
              "velocity": 99,
              "position": 4,
              "duration": 0.4895833333333333
            },
            {
              "pitch": 24,
              "velocity": 94,
              "position": 4.5,
              "duration": 0.3020833333333333
            },
            {
              "pitch": 24,
              "velocity": 105,
              "position": 5.75,
              "duration": 0.7395833333333334
            },
            {
              "pitch": 24,
              "velocity": 99,
              "position": 6.5,
              "duration": 0.3020833333333333
            },
            {
              "pitch": 24,
              "velocity": 106,
              "position": 7.5,
              "duration": 0.010416666666666666
            },
            {
              "pitch": 24,
              "velocity": 106,
              "position": 7.75,
              "duration": 0.010416666666666666
            },
            {
              "pitch": 24,
              "velocity": 110,
              "position": 8,
              "duration": 0.4895833333333333
            },
            {
              "pitch": 24,
              "velocity": 99,
              "position": 8.5,
              "duration": 0.3125
            },
            {
              "pitch": 24,
              "velocity": 111,
              "position": 9.75,
              "duration": 0.7395833333333334
            },
            {
              "pitch": 24,
              "velocity": 111,
              "position": 10.5,
              "duration": 0.28125
            },
            {
              "pitch": 31,
              "velocity": 88,
              "position": 11.5,
              "duration": 0.23958333333333334
            },
            {
              "pitch": 35,
              "velocity": 84,
              "position": 11.75,
              "duration": 0.23958333333333334
            },
            {
              "pitch": 24,
              "velocity": 105,
              "position": 12,
              "duration": 0.4895833333333333
            },
            {
              "pitch": 24,
              "velocity": 110,
              "position": 12.5,
              "duration": 0.28125
            },
            {
              "pitch": 24,
              "velocity": 111,
              "position": 13.75,
              "duration": 0.7395833333333334
            },
            {
              "pitch": 24,
              "velocity": 92,
              "position": 14.5,
              "duration": 0.3020833333333333
            },
            {
              "pitch": 24,
              "velocity": 106,
              "position": 15.5,
              "duration": 0.010416666666666666
            },
            {
              "pitch": 24,
              "velocity": 106,
              "position": 15.75,
              "duration": 0.010416666666666666
            }
          ]
        },
        "11": {
          "ctab": {
            "srcChannel": 11,
            "name": "Ep",
            "accType": "CHORD1",
            "editable": false,
            "mutedNotes": [],
            "mutedChords": [],
            "autoStart": false,
            "sourceChordNote": 0,
            "sourceChordType": "Maj7",
            "ctb2Low": null,
            "ctb2Main": {
              "ntr": "ROOT_FIXED",
              "ntt": "CHORD",
              "bassOn": false,
              "chordRootUpperLimit": 7,
              "noteLowLimit": 50,
              "noteHighLimit": 127,
              "rtr": "PITCH_SHIFT"
            },
            "ctb2High": null
          },
          "notes": [
            {
              "pitch": 55,
              "velocity": 50,
              "position": 0,
              "duration": 0.9895833333333334
            },
            {
              "pitch": 59,
              "velocity": 50,
              "position": 0,
              "duration": 0.9895833333333334
            },
            {
              "pitch": 64,
              "velocity": 50,
              "position": 0,
              "duration": 0.9895833333333334
            },
            {
              "pitch": 55,
              "velocity": 50,
              "position": 3,
              "duration": 0.9895833333333334
            },
            {
              "pitch": 59,
              "velocity": 50,
              "position": 3,
              "duration": 0.9895833333333334
            },
            {
              "pitch": 64,
              "velocity": 50,
              "position": 3,
              "duration": 0.9895833333333334
            },
            {
              "pitch": 55,
              "velocity": 50,
              "position": 4,
              "duration": 0.9895833333333334
            },
            {
              "pitch": 59,
              "velocity": 50,
              "position": 4,
              "duration": 0.9895833333333334
            },
            {
              "pitch": 64,
              "velocity": 50,
              "position": 4,
              "duration": 0.9895833333333334
            },
            {
              "pitch": 55,
              "velocity": 50,
              "position": 8,
              "duration": 0.9895833333333334
            },
            {
              "pitch": 59,
              "velocity": 50,
              "position": 8,
              "duration": 0.9895833333333334
            },
            {
              "pitch": 64,
              "velocity": 50,
              "position": 8,
              "duration": 0.9895833333333334
            },
            {
              "pitch": 55,
              "velocity": 50,
              "position": 11,
              "duration": 0.9895833333333334
            },
            {
              "pitch": 59,
              "velocity": 50,
              "position": 11,
              "duration": 0.9895833333333334
            },
            {
              "pitch": 64,
              "velocity": 50,
              "position": 11,
              "duration": 0.9895833333333334
            },
            {
              "pitch": 55,
              "velocity": 50,
              "position": 12,
              "duration": 0.9895833333333334
            },
            {
              "pitch": 59,
              "velocity": 50,
              "position": 12,
              "duration": 0.9895833333333334
            },
            {
              "pitch": 64,
              "velocity": 50,
              "position": 12,
              "duration": 0.9895833333333334
            }
          ]
        },
        "12": {
          "ctab": {
            "srcChannel": 12,
            "name": "Nylon",
            "accType": "CHORD2",
            "editable": false,
            "mutedNotes": [],
            "mutedChords": [],
            "autoStart": false,
            "sourceChordNote": 0,
            "sourceChordType": "Maj7",
            "ctb2Low": null,
            "ctb2Main": {
              "ntr": "ROOT_FIXED",
              "ntt": "CHORD",
              "bassOn": false,
              "chordRootUpperLimit": 7,
              "noteLowLimit": 0,
              "noteHighLimit": 127,
              "rtr": "PITCH_SHIFT"
            },
            "ctb2High": null
          },
          "notes": [
            {
              "pitch": 55,
              "velocity": 48,
              "position": 0,
              "duration": 0.84375
            },
            {
              "pitch": 64,
              "velocity": 49,
              "position": 0,
              "duration": 0.84375
            },
            {
              "pitch": 59,
              "velocity": 45,
              "position": 0,
              "duration": 0.875
            },
            {
              "pitch": 55,
              "velocity": 52,
              "position": 1,
              "duration": 0.25
            },
            {
              "pitch": 59,
              "velocity": 48,
              "position": 1,
              "duration": 0.28125
            },
            {
              "pitch": 64,
              "velocity": 49,
              "position": 1,
              "duration": 0.2916666666666667
            },
            {
              "pitch": 64,
              "velocity": 53,
              "position": 2.25,
              "duration": 0.19791666666666666
            },
            {
              "pitch": 59,
              "velocity": 46,
              "position": 2.25,
              "duration": 0.21875
            },
            {
              "pitch": 55,
              "velocity": 54,
              "position": 2.25,
              "duration": 0.25
            },
            {
              "pitch": 55,
              "velocity": 54,
              "position": 3,
              "duration": 0.25
            },
            {
              "pitch": 59,
              "velocity": 50,
              "position": 3,
              "duration": 0.25
            },
            {
              "pitch": 64,
              "velocity": 47,
              "position": 3,
              "duration": 0.25
            },
            {
              "pitch": 55,
              "velocity": 50,
              "position": 4,
              "duration": 0.8958333333333334
            },
            {
              "pitch": 64,
              "velocity": 48,
              "position": 4,
              "duration": 0.90625
            },
            {
              "pitch": 59,
              "velocity": 45,
              "position": 4,
              "duration": 0.9166666666666666
            },
            {
              "pitch": 55,
              "velocity": 55,
              "position": 5,
              "duration": 0.21875
            },
            {
              "pitch": 64,
              "velocity": 52,
              "position": 5,
              "duration": 0.2604166666666667
            },
            {
              "pitch": 59,
              "velocity": 46,
              "position": 5,
              "duration": 0.2708333333333333
            },
            {
              "pitch": 64,
              "velocity": 48,
              "position": 6.25,
              "duration": 0.25
            },
            {
              "pitch": 59,
              "velocity": 47,
              "position": 6.25,
              "duration": 0.2708333333333333
            },
            {
              "pitch": 55,
              "velocity": 55,
              "position": 6.25,
              "duration": 0.28125
            },
            {
              "pitch": 55,
              "velocity": 55,
              "position": 7,
              "duration": 0.25
            },
            {
              "pitch": 59,
              "velocity": 45,
              "position": 7,
              "duration": 0.2708333333333333
            },
            {
              "pitch": 64,
              "velocity": 56,
              "position": 7,
              "duration": 0.28125
            },
            {
              "pitch": 64,
              "velocity": 56,
              "position": 8,
              "duration": 0.875
            },
            {
              "pitch": 55,
              "velocity": 55,
              "position": 8,
              "duration": 0.8958333333333334
            },
            {
              "pitch": 59,
              "velocity": 54,
              "position": 8,
              "duration": 0.9166666666666666
            },
            {
              "pitch": 55,
              "velocity": 55,
              "position": 9,
              "duration": 0.15625
            },
            {
              "pitch": 64,
              "velocity": 52,
              "position": 9,
              "duration": 0.23958333333333334
            },
            {
              "pitch": 59,
              "velocity": 46,
              "position": 9,
              "duration": 0.25
            },
            {
              "pitch": 59,
              "velocity": 44,
              "position": 10.25,
              "duration": 0.20833333333333334
            },
            {
              "pitch": 55,
              "velocity": 47,
              "position": 10.25,
              "duration": 0.22916666666666666
            },
            {
              "pitch": 64,
              "velocity": 37,
              "position": 10.25,
              "duration": 0.2604166666666667
            },
            {
              "pitch": 64,
              "velocity": 47,
              "position": 11,
              "duration": 0.22916666666666666
            },
            {
              "pitch": 55,
              "velocity": 52,
              "position": 11,
              "duration": 0.23958333333333334
            },
            {
              "pitch": 59,
              "velocity": 44,
              "position": 11,
              "duration": 0.2604166666666667
            },
            {
              "pitch": 55,
              "velocity": 52,
              "position": 12,
              "duration": 0.8645833333333334
            },
            {
              "pitch": 59,
              "velocity": 46,
              "position": 12,
              "duration": 0.8854166666666666
            },
            {
              "pitch": 64,
              "velocity": 46,
              "position": 12,
              "duration": 0.8854166666666666
            },
            {
              "pitch": 55,
              "velocity": 57,
              "position": 13,
              "duration": 0.15625
            },
            {
              "pitch": 64,
              "velocity": 53,
              "position": 13,
              "duration": 0.1875
            },
            {
              "pitch": 59,
              "velocity": 53,
              "position": 13,
              "duration": 0.22916666666666666
            },
            {
              "pitch": 55,
              "velocity": 52,
              "position": 14.25,
              "duration": 0.22916666666666666
            },
            {
              "pitch": 59,
              "velocity": 48,
              "position": 14.25,
              "duration": 0.2604166666666667
            },
            {
              "pitch": 64,
              "velocity": 50,
              "position": 14.25,
              "duration": 0.2604166666666667
            },
            {
              "pitch": 55,
              "velocity": 59,
              "position": 15,
              "duration": 0.2708333333333333
            },
            {
              "pitch": 64,
              "velocity": 50,
              "position": 15,
              "duration": 0.2708333333333333
            },
            {
              "pitch": 59,
              "velocity": 51,
              "position": 15,
              "duration": 0.28125
            }
          ]
        },
        "13": {
          "ctab": {
            "srcChannel": 13,
            "name": "Pad",
            "accType": "PAD",
            "editable": false,
            "mutedNotes": [],
            "mutedChords": [],
            "autoStart": false,
            "sourceChordNote": 0,
            "sourceChordType": "Maj7",
            "ctb2Low": null,
            "ctb2Main": {
              "ntr": "ROOT_FIXED",
              "ntt": "CHORD",
              "bassOn": false,
              "chordRootUpperLimit": 7,
              "noteLowLimit": 0,
              "noteHighLimit": 127,
              "rtr": "PITCH_SHIFT"
            },
            "ctb2High": null
          },
          "notes": [
            {
              "pitch": 55,
              "velocity": 52,
              "position": 0,
              "duration": 15.989583333333334
            },
            {
              "pitch": 59,
              "velocity": 52,
              "position": 0,
              "duration": 15.989583333333334
            },
            {
              "pitch": 64,
              "velocity": 52,
              "position": 0,
              "duration": 15.989583333333334
            }
          ]
        },
        "14": {
          "ctab": {
            "srcChannel": 14,
            "name": "MutedGtr",
            "accType": "PHRASE1",
            "editable": false,
            "mutedNotes": [],
            "mutedChords": [],
            "autoStart": false,
            "sourceChordNote": 0,
            "sourceChordType": "Maj7",
            "ctb2Low": null,
            "ctb2Main": {
              "ntr": "ROOT_FIXED",
              "ntt": "CHORD",
              "bassOn": false,
              "chordRootUpperLimit": 5,
              "noteLowLimit": 52,
              "noteHighLimit": 127,
              "rtr": "PITCH_SHIFT"
            },
            "ctb2High": null
          },
          "notes": [
            {
              "pitch": 48,
              "velocity": 56,
              "position": 0,
              "duration": 0.34375
            },
            {
              "pitch": 48,
              "velocity": 70,
              "position": 0.5,
              "duration": 0.2708333333333333
            },
            {
              "pitch": 48,
              "velocity": 63,
              "position": 1.25,
              "duration": 0.25
            },
            {
              "pitch": 48,
              "velocity": 68,
              "position": 2,
              "duration": 0.2604166666666667
            },
            {
              "pitch": 48,
              "velocity": 60,
              "position": 2.5,
              "duration": 0.25
            },
            {
              "pitch": 48,
              "velocity": 64,
              "position": 4,
              "duration": 0.3333333333333333
            },
            {
              "pitch": 48,
              "velocity": 60,
              "position": 4.5,
              "duration": 0.2708333333333333
            },
            {
              "pitch": 48,
              "velocity": 60,
              "position": 5.25,
              "duration": 0.2708333333333333
            },
            {
              "pitch": 48,
              "velocity": 55,
              "position": 6,
              "duration": 0.2604166666666667
            },
            {
              "pitch": 48,
              "velocity": 58,
              "position": 6.5,
              "duration": 0.2708333333333333
            },
            {
              "pitch": 48,
              "velocity": 55,
              "position": 8,
              "duration": 0.3020833333333333
            },
            {
              "pitch": 48,
              "velocity": 52,
              "position": 8.5,
              "duration": 0.3541666666666667
            },
            {
              "pitch": 48,
              "velocity": 60,
              "position": 9.25,
              "duration": 0.3125
            },
            {
              "pitch": 48,
              "velocity": 59,
              "position": 10,
              "duration": 0.3020833333333333
            },
            {
              "pitch": 48,
              "velocity": 64,
              "position": 10.5,
              "duration": 0.2708333333333333
            },
            {
              "pitch": 48,
              "velocity": 63,
              "position": 12,
              "duration": 0.3229166666666667
            },
            {
              "pitch": 48,
              "velocity": 73,
              "position": 12.5,
              "duration": 0.2708333333333333
            },
            {
              "pitch": 48,
              "velocity": 64,
              "position": 13.25,
              "duration": 0.2604166666666667
            },
            {
              "pitch": 48,
              "velocity": 64,
              "position": 14,
              "duration": 0.28125
            },
            {
              "pitch": 48,
              "velocity": 65,
              "position": 14.5,
              "duration": 0.28125
            }
          ]
        },
        "15": {
          "ctab": {
            "srcChannel": 15,
            "name": "Pad2",
            "accType": "PHRASE2",
            "editable": false,
            "mutedNotes": [],
            "mutedChords": [],
            "autoStart": false,
            "sourceChordNote": 0,
            "sourceChordType": "Maj7",
            "ctb2Low": null,
            "ctb2Main": {
              "ntr": "ROOT_FIXED",
              "ntt": "CHORD",
              "bassOn": false,
              "chordRootUpperLimit": 7,
              "noteLowLimit": 0,
              "noteHighLimit": 127,
              "rtr": "PITCH_SHIFT"
            },
            "ctb2High": null
          },
          "notes": []
        }
      }
    },
    "Fill_In_AA": {
      "type": "Fill_In_AA",
      "sizeInBeats": 4,
      "channels": {
        "0": {
          "ctab": {
            "srcChannel": 0,
            "name": "CC_Crash",
            "accType": "SUBRHYTHM",
            "editable": false,
            "mutedNotes": [],
            "mutedChords": [
              "1+2+5",
              "sus4",
              "1+5",
              "1+8",
              "7aug",
              "Maj7aug",
              "7(#9)",
              "7(b13)",
              "7(b9)",
              "7(13)",
              "7#11",
              "7(9)",
              "7b5",
              "7sus4",
              "7th",
              "dim7",
              "dim",
              "minMaj7(9)",
              "minMaj7",
              "min7(11)",
              "min7(9)",
              "min(9)",
              "m7b5",
              "min7",
              "min6",
              "min",
              "aug",
              "Maj6(9)",
              "Maj7(9)",
              "Maj(9)",
              "Maj7#11",
              "Maj7",
              "Maj6",
              "Maj"
            ],
            "autoStart": true,
            "sourceChordNote": 0,
            "sourceChordType": "Maj",
            "ctb2Low": null,
            "ctb2Main": {
              "ntr": "ROOT_FIXED",
              "ntt": "BYPASS",
              "bassOn": false,
              "chordRootUpperLimit": 0,
              "noteLowLimit": 0,
              "noteHighLimit": 127,
              "rtr": "RETRIGGER"
            },
            "ctb2High": null
          },
          "notes": []
        },
        "3": {
          "ctab": {
            "srcChannel": 3,
            "name": "EpRoot",
            "accType": "CHORD1",
            "editable": false,
            "mutedNotes": [],
            "mutedChords": [
              "1+2+5",
              "sus4",
              "1+5",
              "1+8",
              "Maj7aug",
              "dim",
              "minMaj7(9)",
              "minMaj7",
              "min6",
              "min",
              "aug",
              "Maj7(9)",
              "Maj7#11",
              "Maj7",
              "Maj6",
              "Maj"
            ],
            "autoStart": false,
            "sourceChordNote": 0,
            "sourceChordType": "Maj7",
            "ctb2Low": null,
            "ctb2Main": {
              "ntr": "ROOT_TRANSPOSITION",
              "ntt": "MELODY",
              "bassOn": false,
              "chordRootUpperLimit": 6,
              "noteLowLimit": 0,
              "noteHighLimit": 127,
              "rtr": "PITCH_SHIFT"
            },
            "ctb2High": null
          },
          "notes": [
            {
              "pitch": 60,
              "velocity": 45,
              "position": 0,
              "duration": 0.9895833333333334
            }
          ]
        },
        "5": {
          "ctab": {
            "srcChannel": 5,
            "name": "PadRoot",
            "accType": "PAD",
            "editable": true,
            "mutedNotes": [],
            "mutedChords": [
              "1+2+5",
              "sus4",
              "1+5",
              "1+8",
              "Maj7aug",
              "dim",
              "minMaj7(9)",
              "minMaj7",
              "min6",
              "min",
              "aug",
              "Maj7(9)",
              "Maj7#11",
              "Maj7",
              "Maj6",
              "Maj"
            ],
            "autoStart": false,
            "sourceChordNote": 0,
            "sourceChordType": "Maj7",
            "ctb2Low": null,
            "ctb2Main": {
              "ntr": "ROOT_TRANSPOSITION",
              "ntt": "MELODY",
              "bassOn": false,
              "chordRootUpperLimit": 6,
              "noteLowLimit": 0,
              "noteHighLimit": 127,
              "rtr": "PITCH_SHIFT"
            },
            "ctb2High": null
          },
          "notes": [
            {
              "pitch": 60,
              "velocity": 68,
              "position": 0,
              "duration": 3.9895833333333335
            }
          ]
        },
        "8": {
          "ctab": {
            "srcChannel": 8,
            "name": "addDrums",
            "accType": "SUBRHYTHM",
            "editable": false,
            "mutedNotes": [],
            "mutedChords": [],
            "autoStart": true,
            "sourceChordNote": 0,
            "sourceChordType": "Maj7",
            "ctb2Low": null,
            "ctb2Main": {
              "ntr": "ROOT_FIXED",
              "ntt": "BYPASS",
              "bassOn": false,
              "chordRootUpperLimit": 6,
              "noteLowLimit": 0,
              "noteHighLimit": 127,
              "rtr": "PITCH_SHIFT"
            },
            "ctb2High": null
          },
          "notes": [
            {
              "pitch": 64,
              "velocity": 69,
              "position": 0,
              "duration": 0.010416666666666666
            },
            {
              "pitch": 82,
              "velocity": 61,
              "position": 0,
              "duration": 0.010416666666666666
            },
            {
              "pitch": 82,
              "velocity": 44,
              "position": 0.25,
              "duration": 0.010416666666666666
            },
            {
              "pitch": 63,
              "velocity": 95,
              "position": 0.5,
              "duration": 0.010416666666666666
            },
            {
              "pitch": 82,
              "velocity": 57,
              "position": 0.5,
              "duration": 0.010416666666666666
            },
            {
              "pitch": 63,
              "velocity": 92,
              "position": 0.75,
              "duration": 0.010416666666666666
            },
            {
              "pitch": 82,
              "velocity": 95,
              "position": 0.75,
              "duration": 0.010416666666666666
            },
            {
              "pitch": 62,
              "velocity": 114,
              "position": 1,
              "duration": 0.010416666666666666
            },
            {
              "pitch": 82,
              "velocity": 57,
              "position": 1,
              "duration": 0.010416666666666666
            },
            {
              "pitch": 82,
              "velocity": 55,
              "position": 1.25,
              "duration": 0.010416666666666666
            },
            {
              "pitch": 61,
              "velocity": 30,
              "position": 1.5,
              "duration": 0.010416666666666666
            },
            {
              "pitch": 82,
              "velocity": 57,
              "position": 1.5,
              "duration": 0.010416666666666666
            },
            {
              "pitch": 62,
              "velocity": 111,
              "position": 1.75,
              "duration": 0.010416666666666666
            },
            {
              "pitch": 82,
              "velocity": 95,
              "position": 1.75,
              "duration": 0.010416666666666666
            },
            {
              "pitch": 82,
              "velocity": 65,
              "position": 2,
              "duration": 0.010416666666666666
            },
            {
              "pitch": 61,
              "velocity": 41,
              "position": 2.25,
              "duration": 0.010416666666666666
            },
            {
              "pitch": 82,
              "velocity": 55,
              "position": 2.25,
              "duration": 0.010416666666666666
            },
            {
              "pitch": 63,
              "velocity": 103,
              "position": 2.5,
              "duration": 0.010416666666666666
            },
            {
              "pitch": 82,
              "velocity": 46,
              "position": 2.5,
              "duration": 0.010416666666666666
            },
            {
              "pitch": 63,
              "velocity": 88,
              "position": 2.75,
              "duration": 0.010416666666666666
            },
            {
              "pitch": 82,
              "velocity": 95,
              "position": 2.75,
              "duration": 0.010416666666666666
            },
            {
              "pitch": 54,
              "velocity": 99,
              "position": 3,
              "duration": 0.010416666666666666
            },
            {
              "pitch": 62,
              "velocity": 103,
              "position": 3,
              "duration": 0.010416666666666666
            },
            {
              "pitch": 82,
              "velocity": 71,
              "position": 3,
              "duration": 0.010416666666666666
            },
            {
              "pitch": 64,
              "velocity": 59,
              "position": 3.25,
              "duration": 0.010416666666666666
            },
            {
              "pitch": 82,
              "velocity": 58,
              "position": 3.25,
              "duration": 0.010416666666666666
            },
            {
              "pitch": 61,
              "velocity": 38,
              "position": 3.5,
              "duration": 0.010416666666666666
            },
            {
              "pitch": 82,
              "velocity": 59,
              "position": 3.5,
              "duration": 0.010416666666666666
            },
            {
              "pitch": 64,
              "velocity": 53,
              "position": 3.75,
              "duration": 0.010416666666666666
            },
            {
              "pitch": 82,
              "velocity": 79,
              "position": 3.75,
              "duration": 0.010416666666666666
            },
            {
              "pitch": 84,
              "velocity": 57,
              "position": 0,
              "duration": 3.9895833333333335
            }
          ]
        },
        "9": {
          "ctab": {
            "srcChannel": 9,
            "name": "MainDrum",
            "accType": "RHYTHM",
            "editable": false,
            "mutedNotes": [],
            "mutedChords": [],
            "autoStart": true,
            "sourceChordNote": 0,
            "sourceChordType": "Maj7",
            "ctb2Low": null,
            "ctb2Main": {
              "ntr": "ROOT_FIXED",
              "ntt": "BYPASS",
              "bassOn": false,
              "chordRootUpperLimit": 6,
              "noteLowLimit": 0,
              "noteHighLimit": 127,
              "rtr": "PITCH_SHIFT"
            },
            "ctb2High": null
          },
          "notes": [
            {
              "pitch": 42,
              "velocity": 42,
              "position": 0,
              "duration": 0.010416666666666666
            },
            {
              "pitch": 33,
              "velocity": 52,
              "position": 0,
              "duration": 0.020833333333333332
            },
            {
              "pitch": 25,
              "velocity": 79,
              "position": 0.5,
              "duration": 0.010416666666666666
            },
            {
              "pitch": 42,
              "velocity": 55,
              "position": 0.5,
              "duration": 0.020833333333333332
            },
            {
              "pitch": 25,
              "velocity": 79,
              "position": 1,
              "duration": 0.010416666666666666
            },
            {
              "pitch": 37,
              "velocity": 60,
              "position": 1,
              "duration": 0.010416666666666666
            },
            {
              "pitch": 42,
              "velocity": 55,
              "position": 1,
              "duration": 0.010416666666666666
            },
            {
              "pitch": 33,
              "velocity": 35,
              "position": 1.5,
              "duration": 0.010416666666666666
            },
            {
              "pitch": 42,
              "velocity": 46,
              "position": 1.5,
              "duration": 0.010416666666666666
            },
            {
              "pitch": 25,
              "velocity": 79,
              "position": 1.75,
              "duration": 0.010416666666666666
            },
            {
              "pitch": 33,
              "velocity": 52,
              "position": 2,
              "duration": 0.020833333333333332
            },
            {
              "pitch": 42,
              "velocity": 50,
              "position": 2,
              "duration": 0.020833333333333332
            },
            {
              "pitch": 46,
              "velocity": 42,
              "position": 2.25,
              "duration": 0.010416666666666666
            },
            {
              "pitch": 82,
              "velocity": 37,
              "position": 2.25,
              "duration": 0.010416666666666666
            },
            {
              "pitch": 42,
              "velocity": 46,
              "position": 2.5,
              "duration": 0.010416666666666666
            },
            {
              "pitch": 45,
              "velocity": 72,
              "position": 2.75,
              "duration": 0.041666666666666664
            },
            {
              "pitch": 37,
              "velocity": 60,
              "position": 3,
              "duration": 0.010416666666666666
            },
            {
              "pitch": 46,
              "velocity": 42,
              "position": 3,
              "duration": 0.010416666666666666
            },
            {
              "pitch": 43,
              "velocity": 72,
              "position": 3.25,
              "duration": 0.041666666666666664
            },
            {
              "pitch": 42,
              "velocity": 55,
              "position": 3.5,
              "duration": 0.020833333333333332
            },
            {
              "pitch": 41,
              "velocity": 72,
              "position": 3.75,
              "duration": 0.041666666666666664
            }
          ]
        },
        "10": {
          "ctab": {
            "srcChannel": 10,
            "name": "Bass",
            "accType": "BASS",
            "editable": false,
            "mutedNotes": [],
            "mutedChords": [],
            "autoStart": false,
            "sourceChordNote": 0,
            "sourceChordType": "Maj7",
            "ctb2Low": null,
            "ctb2Main": {
              "ntr": "ROOT_TRANSPOSITION",
              "ntt": "MELODY",
              "bassOn": true,
              "chordRootUpperLimit": 3,
              "noteLowLimit": 28,
              "noteHighLimit": 39,
              "rtr": "PITCH_SHIFT_TO_ROOT"
            },
            "ctb2High": null
          },
          "notes": [
            {
              "pitch": 24,
              "velocity": 88,
              "position": 0,
              "duration": 0.7395833333333334
            },
            {
              "pitch": 24,
              "velocity": 88,
              "position": 0.75,
              "duration": 0.4270833333333333
            },
            {
              "pitch": 24,
              "velocity": 93,
              "position": 1.5,
              "duration": 0.4895833333333333
            },
            {
              "pitch": 24,
              "velocity": 88,
              "position": 2,
              "duration": 0.9895833333333334
            },
            {
              "pitch": 31,
              "velocity": 88,
              "position": 3,
              "duration": 0.9895833333333334
            }
          ]
        },
        "11": {
          "ctab": {
            "srcChannel": 11,
            "name": "Ep",
            "accType": "CHORD1",
            "editable": false,
            "mutedNotes": [],
            "mutedChords": [],
            "autoStart": false,
            "sourceChordNote": 0,
            "sourceChordType": "Maj7",
            "ctb2Low": null,
            "ctb2Main": {
              "ntr": "ROOT_FIXED",
              "ntt": "CHORD",
              "bassOn": false,
              "chordRootUpperLimit": 7,
              "noteLowLimit": 50,
              "noteHighLimit": 127,
              "rtr": "PITCH_SHIFT"
            },
            "ctb2High": null
          },
          "notes": [
            {
              "pitch": 55,
              "velocity": 47,
              "position": 0,
              "duration": 0.9895833333333334
            },
            {
              "pitch": 59,
              "velocity": 47,
              "position": 0,
              "duration": 0.9895833333333334
            },
            {
              "pitch": 64,
              "velocity": 47,
              "position": 0,
              "duration": 0.9895833333333334
            }
          ]
        },
        "12": {
          "ctab": {
            "srcChannel": 12,
            "name": "Nylon",
            "accType": "CHORD2",
            "editable": false,
            "mutedNotes": [],
            "mutedChords": [],
            "autoStart": false,
            "sourceChordNote": 0,
            "sourceChordType": "Maj7",
            "ctb2Low": null,
            "ctb2Main": {
              "ntr": "ROOT_FIXED",
              "ntt": "CHORD",
              "bassOn": false,
              "chordRootUpperLimit": 7,
              "noteLowLimit": 0,
              "noteHighLimit": 127,
              "rtr": "PITCH_SHIFT"
            },
            "ctb2High": null
          },
          "notes": []
        },
        "13": {
          "ctab": {
            "srcChannel": 13,
            "name": "Pad",
            "accType": "PAD",
            "editable": false,
            "mutedNotes": [],
            "mutedChords": [],
            "autoStart": false,
            "sourceChordNote": 0,
            "sourceChordType": "Maj7",
            "ctb2Low": null,
            "ctb2Main": {
              "ntr": "ROOT_FIXED",
              "ntt": "CHORD",
              "bassOn": false,
              "chordRootUpperLimit": 7,
              "noteLowLimit": 0,
              "noteHighLimit": 127,
              "rtr": "PITCH_SHIFT"
            },
            "ctb2High": null
          },
          "notes": [
            {
              "pitch": 55,
              "velocity": 68,
              "position": 0,
              "duration": 3.9895833333333335
            },
            {
              "pitch": 59,
              "velocity": 68,
              "position": 0,
              "duration": 3.9895833333333335
            },
            {
              "pitch": 64,
              "velocity": 68,
              "position": 0,
              "duration": 3.9895833333333335
            }
          ]
        },
        "14": {
          "ctab": {
            "srcChannel": 14,
            "name": "MutedGtr",
            "accType": "PHRASE1",
            "editable": false,
            "mutedNotes": [],
            "mutedChords": [],
            "autoStart": false,
            "sourceChordNote": 0,
            "sourceChordType": "Maj7",
            "ctb2Low": null,
            "ctb2Main": {
              "ntr": "ROOT_FIXED",
              "ntt": "CHORD",
              "bassOn": false,
              "chordRootUpperLimit": 5,
              "noteLowLimit": 52,
              "noteHighLimit": 127,
              "rtr": "PITCH_SHIFT"
            },
            "ctb2High": null
          },
          "notes": []
        },
        "15": {
          "ctab": {
            "srcChannel": 15,
            "name": "Pad2",
            "accType": "PHRASE2",
            "editable": false,
            "mutedNotes": [],
            "mutedChords": [],
            "autoStart": false,
            "sourceChordNote": 0,
            "sourceChordType": "Maj7",
            "ctb2Low": null,
            "ctb2Main": {
              "ntr": "ROOT_FIXED",
              "ntt": "CHORD",
              "bassOn": false,
              "chordRootUpperLimit": 7,
              "noteLowLimit": 0,
              "noteHighLimit": 127,
              "rtr": "PITCH_SHIFT"
            },
            "ctb2High": null
          },
          "notes": []
        }
      }
    },
    "Fill_In_BB": {
      "type": "Fill_In_BB",
      "sizeInBeats": 4,
      "channels": {
        "0": {
          "ctab": {
            "srcChannel": 0,
            "name": "CC_Crash",
            "accType": "SUBRHYTHM",
            "editable": false,
            "mutedNotes": [],
            "mutedChords": [
              "1+2+5",
              "sus4",
              "1+5",
              "1+8",
              "7aug",
              "Maj7aug",
              "7(#9)",
              "7(b13)",
              "7(b9)",
              "7(13)",
              "7#11",
              "7(9)",
              "7b5",
              "7sus4",
              "7th",
              "dim7",
              "dim",
              "minMaj7(9)",
              "minMaj7",
              "min7(11)",
              "min7(9)",
              "min(9)",
              "m7b5",
              "min7",
              "min6",
              "min",
              "aug",
              "Maj6(9)",
              "Maj7(9)",
              "Maj(9)",
              "Maj7#11",
              "Maj7",
              "Maj6",
              "Maj"
            ],
            "autoStart": true,
            "sourceChordNote": 0,
            "sourceChordType": "Maj",
            "ctb2Low": null,
            "ctb2Main": {
              "ntr": "ROOT_FIXED",
              "ntt": "BYPASS",
              "bassOn": false,
              "chordRootUpperLimit": 0,
              "noteLowLimit": 0,
              "noteHighLimit": 127,
              "rtr": "RETRIGGER"
            },
            "ctb2High": null
          },
          "notes": []
        },
        "3": {
          "ctab": {
            "srcChannel": 3,
            "name": "EpRoot",
            "accType": "CHORD1",
            "editable": false,
            "mutedNotes": [],
            "mutedChords": [
              "1+2+5",
              "sus4",
              "1+5",
              "1+8",
              "Maj7aug",
              "dim",
              "minMaj7(9)",
              "minMaj7",
              "min6",
              "min",
              "aug",
              "Maj7(9)",
              "Maj7#11",
              "Maj7",
              "Maj6",
              "Maj"
            ],
            "autoStart": false,
            "sourceChordNote": 0,
            "sourceChordType": "Maj7",
            "ctb2Low": null,
            "ctb2Main": {
              "ntr": "ROOT_TRANSPOSITION",
              "ntt": "MELODY",
              "bassOn": false,
              "chordRootUpperLimit": 6,
              "noteLowLimit": 0,
              "noteHighLimit": 127,
              "rtr": "PITCH_SHIFT"
            },
            "ctb2High": null
          },
          "notes": [
            {
              "pitch": 60,
              "velocity": 45,
              "position": 0,
              "duration": 1.4895833333333333
            },
            {
              "pitch": 60,
              "velocity": 45,
              "position": 1.5,
              "duration": 2.4895833333333335
            }
          ]
        },
        "5": {
          "ctab": {
            "srcChannel": 5,
            "name": "PadRoot",
            "accType": "PAD",
            "editable": true,
            "mutedNotes": [],
            "mutedChords": [
              "1+2+5",
              "sus4",
              "1+5",
              "1+8",
              "Maj7aug",
              "dim",
              "minMaj7(9)",
              "minMaj7",
              "min6",
              "min",
              "aug",
              "Maj7(9)",
              "Maj7#11",
              "Maj7",
              "Maj6",
              "Maj"
            ],
            "autoStart": false,
            "sourceChordNote": 0,
            "sourceChordType": "Maj7",
            "ctb2Low": null,
            "ctb2Main": {
              "ntr": "ROOT_TRANSPOSITION",
              "ntt": "MELODY",
              "bassOn": false,
              "chordRootUpperLimit": 6,
              "noteLowLimit": 0,
              "noteHighLimit": 127,
              "rtr": "PITCH_SHIFT"
            },
            "ctb2High": null
          },
          "notes": [
            {
              "pitch": 60,
              "velocity": 68,
              "position": 0,
              "duration": 3.9895833333333335
            }
          ]
        },
        "8": {
          "ctab": {
            "srcChannel": 8,
            "name": "addDrums",
            "accType": "SUBRHYTHM",
            "editable": false,
            "mutedNotes": [],
            "mutedChords": [],
            "autoStart": true,
            "sourceChordNote": 0,
            "sourceChordType": "Maj7",
            "ctb2Low": null,
            "ctb2Main": {
              "ntr": "ROOT_FIXED",
              "ntt": "BYPASS",
              "bassOn": false,
              "chordRootUpperLimit": 6,
              "noteLowLimit": 0,
              "noteHighLimit": 127,
              "rtr": "PITCH_SHIFT"
            },
            "ctb2High": null
          },
          "notes": [
            {
              "pitch": 54,
              "velocity": 90,
              "position": 0,
              "duration": 0.010416666666666666
            },
            {
              "pitch": 57,
              "velocity": 54,
              "position": 0,
              "duration": 0.010416666666666666
            },
            {
              "pitch": 82,
              "velocity": 61,
              "position": 0,
              "duration": 0.010416666666666666
            },
            {
              "pitch": 61,
              "velocity": 67,
              "position": 0,
              "duration": 0.22916666666666666
            },
            {
              "pitch": 82,
              "velocity": 44,
              "position": 0.25,
              "duration": 0.010416666666666666
            },
            {
              "pitch": 54,
              "velocity": 90,
              "position": 0.5,
              "duration": 0.010416666666666666
            },
            {
              "pitch": 75,
              "velocity": 79,
              "position": 0.5,
              "duration": 0.010416666666666666
            },
            {
              "pitch": 82,
              "velocity": 57,
              "position": 0.5,
              "duration": 0.010416666666666666
            },
            {
              "pitch": 63,
              "velocity": 92,
              "position": 0.5,
              "duration": 0.09375
            },
            {
              "pitch": 82,
              "velocity": 95,
              "position": 0.75,
              "duration": 0.010416666666666666
            },
            {
              "pitch": 63,
              "velocity": 95,
              "position": 0.75,
              "duration": 0.15625
            },
            {
              "pitch": 54,
              "velocity": 90,
              "position": 1,
              "duration": 0.010416666666666666
            },
            {
              "pitch": 75,
              "velocity": 79,
              "position": 1,
              "duration": 0.010416666666666666
            },
            {
              "pitch": 82,
              "velocity": 57,
              "position": 1,
              "duration": 0.010416666666666666
            },
            {
              "pitch": 62,
              "velocity": 114,
              "position": 1,
              "duration": 0.14583333333333334
            },
            {
              "pitch": 82,
              "velocity": 55,
              "position": 1.25,
              "duration": 0.010416666666666666
            },
            {
              "pitch": 54,
              "velocity": 90,
              "position": 1.5,
              "duration": 0.010416666666666666
            },
            {
              "pitch": 82,
              "velocity": 57,
              "position": 1.5,
              "duration": 0.010416666666666666
            },
            {
              "pitch": 61,
              "velocity": 31,
              "position": 1.5,
              "duration": 0.17708333333333334
            },
            {
              "pitch": 82,
              "velocity": 95,
              "position": 1.75,
              "duration": 0.010416666666666666
            },
            {
              "pitch": 62,
              "velocity": 111,
              "position": 1.75,
              "duration": 0.16666666666666666
            },
            {
              "pitch": 54,
              "velocity": 90,
              "position": 2,
              "duration": 0.010416666666666666
            },
            {
              "pitch": 82,
              "velocity": 65,
              "position": 2,
              "duration": 0.010416666666666666
            },
            {
              "pitch": 82,
              "velocity": 55,
              "position": 2.25,
              "duration": 0.010416666666666666
            },
            {
              "pitch": 61,
              "velocity": 32,
              "position": 2.25,
              "duration": 0.2604166666666667
            },
            {
              "pitch": 54,
              "velocity": 90,
              "position": 2.5,
              "duration": 0.010416666666666666
            },
            {
              "pitch": 82,
              "velocity": 46,
              "position": 2.5,
              "duration": 0.010416666666666666
            },
            {
              "pitch": 63,
              "velocity": 99,
              "position": 2.5,
              "duration": 0.11458333333333333
            },
            {
              "pitch": 75,
              "velocity": 79,
              "position": 2.75,
              "duration": 0.010416666666666666
            },
            {
              "pitch": 82,
              "velocity": 95,
              "position": 2.75,
              "duration": 0.010416666666666666
            },
            {
              "pitch": 63,
              "velocity": 99,
              "position": 2.75,
              "duration": 0.13541666666666666
            },
            {
              "pitch": 54,
              "velocity": 90,
              "position": 3,
              "duration": 0.010416666666666666
            },
            {
              "pitch": 82,
              "velocity": 71,
              "position": 3,
              "duration": 0.010416666666666666
            },
            {
              "pitch": 64,
              "velocity": 107,
              "position": 3,
              "duration": 0.125
            },
            {
              "pitch": 82,
              "velocity": 58,
              "position": 3.25,
              "duration": 0.010416666666666666
            },
            {
              "pitch": 82,
              "velocity": 59,
              "position": 3.5,
              "duration": 0.010416666666666666
            },
            {
              "pitch": 61,
              "velocity": 36,
              "position": 3.5,
              "duration": 0.17708333333333334
            },
            {
              "pitch": 82,
              "velocity": 79,
              "position": 3.75,
              "duration": 0.010416666666666666
            },
            {
              "pitch": 64,
              "velocity": 120,
              "position": 3.75,
              "duration": 0.10416666666666667
            },
            {
              "pitch": 84,
              "velocity": 57,
              "position": 1,
              "duration": 2.9895833333333335
            }
          ]
        },
        "9": {
          "ctab": {
            "srcChannel": 9,
            "name": "MainDrum",
            "accType": "RHYTHM",
            "editable": false,
            "mutedNotes": [],
            "mutedChords": [],
            "autoStart": true,
            "sourceChordNote": 0,
            "sourceChordType": "Maj7",
            "ctb2Low": null,
            "ctb2Main": {
              "ntr": "ROOT_FIXED",
              "ntt": "BYPASS",
              "bassOn": false,
              "chordRootUpperLimit": 6,
              "noteLowLimit": 0,
              "noteHighLimit": 127,
              "rtr": "PITCH_SHIFT"
            },
            "ctb2High": null
          },
          "notes": [
            {
              "pitch": 33,
              "velocity": 54,
              "position": 0,
              "duration": 0.010416666666666666
            },
            {
              "pitch": 44,
              "velocity": 27,
              "position": 0,
              "duration": 0.010416666666666666
            },
            {
              "pitch": 25,
              "velocity": 102,
              "position": 0.25,
              "duration": 0.010416666666666666
            },
            {
              "pitch": 42,
              "velocity": 18,
              "position": 0.25,
              "duration": 0.010416666666666666
            },
            {
              "pitch": 44,
              "velocity": 33,
              "position": 0.5,
              "duration": 0.010416666666666666
            },
            {
              "pitch": 42,
              "velocity": 23,
              "position": 0.75,
              "duration": 0.010416666666666666
            },
            {
              "pitch": 25,
              "velocity": 97,
              "position": 1,
              "duration": 0.010416666666666666
            },
            {
              "pitch": 44,
              "velocity": 40,
              "position": 1,
              "duration": 0.010416666666666666
            },
            {
              "pitch": 42,
              "velocity": 19,
              "position": 1.25,
              "duration": 0.010416666666666666
            },
            {
              "pitch": 33,
              "velocity": 42,
              "position": 1.5,
              "duration": 0.010416666666666666
            },
            {
              "pitch": 44,
              "velocity": 38,
              "position": 1.5,
              "duration": 0.010416666666666666
            },
            {
              "pitch": 25,
              "velocity": 97,
              "position": 1.75,
              "duration": 0.010416666666666666
            },
            {
              "pitch": 42,
              "velocity": 27,
              "position": 1.75,
              "duration": 0.010416666666666666
            },
            {
              "pitch": 33,
              "velocity": 47,
              "position": 2,
              "duration": 0.010416666666666666
            },
            {
              "pitch": 44,
              "velocity": 41,
              "position": 2,
              "duration": 0.010416666666666666
            },
            {
              "pitch": 42,
              "velocity": 23,
              "position": 2.25,
              "duration": 0.010416666666666666
            },
            {
              "pitch": 47,
              "velocity": 99,
              "position": 2.25,
              "duration": 0.010416666666666666
            },
            {
              "pitch": 44,
              "velocity": 38,
              "position": 2.5,
              "duration": 0.010416666666666666
            },
            {
              "pitch": 25,
              "velocity": 77,
              "position": 2.75,
              "duration": 0.010416666666666666
            },
            {
              "pitch": 42,
              "velocity": 23,
              "position": 2.75,
              "duration": 0.010416666666666666
            },
            {
              "pitch": 41,
              "velocity": 95,
              "position": 2.9895833333333335,
              "duration": 0.010416666666666666
            },
            {
              "pitch": 44,
              "velocity": 38,
              "position": 3,
              "duration": 0.010416666666666666
            },
            {
              "pitch": 45,
              "velocity": 107,
              "position": 3.0104166666666665,
              "duration": 0.010416666666666666
            },
            {
              "pitch": 42,
              "velocity": 21,
              "position": 3.25,
              "duration": 0.010416666666666666
            },
            {
              "pitch": 43,
              "velocity": 90,
              "position": 3.5,
              "duration": 0.010416666666666666
            },
            {
              "pitch": 44,
              "velocity": 40,
              "position": 3.5,
              "duration": 0.010416666666666666
            },
            {
              "pitch": 41,
              "velocity": 67,
              "position": 3.75,
              "duration": 0.010416666666666666
            },
            {
              "pitch": 42,
              "velocity": 14,
              "position": 3.75,
              "duration": 0.010416666666666666
            }
          ]
        },
        "10": {
          "ctab": {
            "srcChannel": 10,
            "name": "Bass",
            "accType": "BASS",
            "editable": false,
            "mutedNotes": [],
            "mutedChords": [],
            "autoStart": false,
            "sourceChordNote": 0,
            "sourceChordType": "Maj7",
            "ctb2Low": null,
            "ctb2Main": {
              "ntr": "ROOT_TRANSPOSITION",
              "ntt": "MELODY",
              "bassOn": true,
              "chordRootUpperLimit": 3,
              "noteLowLimit": 28,
              "noteHighLimit": 39,
              "rtr": "PITCH_SHIFT_TO_ROOT"
            },
            "ctb2High": null
          },
          "notes": [
            {
              "pitch": 24,
              "velocity": 99,
              "position": 0,
              "duration": 1.3229166666666667
            },
            {
              "pitch": 24,
              "velocity": 100,
              "position": 1.5,
              "duration": 0.4583333333333333
            },
            {
              "pitch": 31,
              "velocity": 87,
              "position": 2,
              "duration": 0.9895833333333334
            },
            {
              "pitch": 35,
              "velocity": 87,
              "position": 3,
              "duration": 0.9895833333333334
            }
          ]
        },
        "11": {
          "ctab": {
            "srcChannel": 11,
            "name": "Ep",
            "accType": "CHORD1",
            "editable": false,
            "mutedNotes": [],
            "mutedChords": [],
            "autoStart": false,
            "sourceChordNote": 0,
            "sourceChordType": "Maj7",
            "ctb2Low": null,
            "ctb2Main": {
              "ntr": "ROOT_FIXED",
              "ntt": "CHORD",
              "bassOn": false,
              "chordRootUpperLimit": 7,
              "noteLowLimit": 50,
              "noteHighLimit": 127,
              "rtr": "PITCH_SHIFT"
            },
            "ctb2High": null
          },
          "notes": [
            {
              "pitch": 55,
              "velocity": 47,
              "position": 0,
              "duration": 1.4895833333333333
            },
            {
              "pitch": 59,
              "velocity": 47,
              "position": 0,
              "duration": 1.4895833333333333
            },
            {
              "pitch": 64,
              "velocity": 47,
              "position": 0,
              "duration": 1.4895833333333333
            },
            {
              "pitch": 55,
              "velocity": 47,
              "position": 1.5,
              "duration": 2.4895833333333335
            },
            {
              "pitch": 59,
              "velocity": 47,
              "position": 1.5,
              "duration": 2.4895833333333335
            },
            {
              "pitch": 64,
              "velocity": 47,
              "position": 1.5,
              "duration": 2.4895833333333335
            }
          ]
        },
        "12": {
          "ctab": {
            "srcChannel": 12,
            "name": "Nylon",
            "accType": "CHORD2",
            "editable": false,
            "mutedNotes": [],
            "mutedChords": [],
            "autoStart": false,
            "sourceChordNote": 0,
            "sourceChordType": "Maj7",
            "ctb2Low": null,
            "ctb2Main": {
              "ntr": "ROOT_FIXED",
              "ntt": "CHORD",
              "bassOn": false,
              "chordRootUpperLimit": 7,
              "noteLowLimit": 0,
              "noteHighLimit": 127,
              "rtr": "PITCH_SHIFT"
            },
            "ctb2High": null
          },
          "notes": []
        },
        "13": {
          "ctab": {
            "srcChannel": 13,
            "name": "Pad",
            "accType": "PAD",
            "editable": false,
            "mutedNotes": [],
            "mutedChords": [],
            "autoStart": false,
            "sourceChordNote": 0,
            "sourceChordType": "Maj7",
            "ctb2Low": null,
            "ctb2Main": {
              "ntr": "ROOT_FIXED",
              "ntt": "CHORD",
              "bassOn": false,
              "chordRootUpperLimit": 7,
              "noteLowLimit": 0,
              "noteHighLimit": 127,
              "rtr": "PITCH_SHIFT"
            },
            "ctb2High": null
          },
          "notes": [
            {
              "pitch": 55,
              "velocity": 68,
              "position": 0,
              "duration": 3.9895833333333335
            },
            {
              "pitch": 59,
              "velocity": 68,
              "position": 0,
              "duration": 3.9895833333333335
            },
            {
              "pitch": 64,
              "velocity": 68,
              "position": 0,
              "duration": 3.9895833333333335
            }
          ]
        },
        "14": {
          "ctab": {
            "srcChannel": 14,
            "name": "MutedGtr",
            "accType": "PHRASE1",
            "editable": false,
            "mutedNotes": [],
            "mutedChords": [],
            "autoStart": false,
            "sourceChordNote": 0,
            "sourceChordType": "Maj7",
            "ctb2Low": null,
            "ctb2Main": {
              "ntr": "ROOT_FIXED",
              "ntt": "CHORD",
              "bassOn": false,
              "chordRootUpperLimit": 5,
              "noteLowLimit": 52,
              "noteHighLimit": 127,
              "rtr": "PITCH_SHIFT"
            },
            "ctb2High": null
          },
          "notes": [
            {
              "pitch": 48,
              "velocity": 45,
              "position": 0,
              "duration": 0.20833333333333334
            },
            {
              "pitch": 48,
              "velocity": 40,
              "position": 0.25,
              "duration": 0.07291666666666667
            },
            {
              "pitch": 48,
              "velocity": 66,
              "position": 0.5,
              "duration": 0.010416666666666666
            },
            {
              "pitch": 48,
              "velocity": 66,
              "position": 0.75,
              "duration": 0.1875
            },
            {
              "pitch": 48,
              "velocity": 66,
              "position": 1,
              "duration": 0.010416666666666666
            },
            {
              "pitch": 48,
              "velocity": 56,
              "position": 1.25,
              "duration": 0.28125
            },
            {
              "pitch": 48,
              "velocity": 66,
              "position": 1.75,
              "duration": 0.010416666666666666
            },
            {
              "pitch": 48,
              "velocity": 56,
              "position": 2,
              "duration": 0.16666666666666666
            },
            {
              "pitch": 48,
              "velocity": 44,
              "position": 2.25,
              "duration": 0.13541666666666666
            },
            {
              "pitch": 48,
              "velocity": 43,
              "position": 2.5,
              "duration": 0.17708333333333334
            },
            {
              "pitch": 48,
              "velocity": 66,
              "position": 2.75,
              "duration": 0.010416666666666666
            },
            {
              "pitch": 48,
              "velocity": 66,
              "position": 3,
              "duration": 0.22916666666666666
            },
            {
              "pitch": 48,
              "velocity": 66,
              "position": 3.5,
              "duration": 0.010416666666666666
            }
          ]
        },
        "15": {
          "ctab": {
            "srcChannel": 15,
            "name": "Pad2",
            "accType": "PHRASE2",
            "editable": false,
            "mutedNotes": [],
            "mutedChords": [],
            "autoStart": false,
            "sourceChordNote": 0,
            "sourceChordType": "Maj7",
            "ctb2Low": null,
            "ctb2Main": {
              "ntr": "ROOT_FIXED",
              "ntt": "CHORD",
              "bassOn": false,
              "chordRootUpperLimit": 7,
              "noteLowLimit": 0,
              "noteHighLimit": 127,
              "rtr": "PITCH_SHIFT"
            },
            "ctb2High": null
          },
          "notes": []
        }
      }
    },
    "Fill_In_CC": {
      "type": "Fill_In_CC",
      "sizeInBeats": 4,
      "channels": {
        "0": {
          "ctab": {
            "srcChannel": 0,
            "name": "CC_Crash",
            "accType": "SUBRHYTHM",
            "editable": false,
            "mutedNotes": [],
            "mutedChords": [
              "1+2+5",
              "sus4",
              "1+5",
              "1+8",
              "7aug",
              "Maj7aug",
              "7(#9)",
              "7(b13)",
              "7(b9)",
              "7(13)",
              "7#11",
              "7(9)",
              "7b5",
              "7sus4",
              "7th",
              "dim7",
              "dim",
              "minMaj7(9)",
              "minMaj7",
              "min7(11)",
              "min7(9)",
              "min(9)",
              "m7b5",
              "min7",
              "min6",
              "min",
              "aug",
              "Maj6(9)",
              "Maj7(9)",
              "Maj(9)",
              "Maj7#11",
              "Maj7",
              "Maj6",
              "Maj"
            ],
            "autoStart": true,
            "sourceChordNote": 0,
            "sourceChordType": "Maj",
            "ctb2Low": null,
            "ctb2Main": {
              "ntr": "ROOT_FIXED",
              "ntt": "BYPASS",
              "bassOn": false,
              "chordRootUpperLimit": 0,
              "noteLowLimit": 0,
              "noteHighLimit": 127,
              "rtr": "RETRIGGER"
            },
            "ctb2High": null
          },
          "notes": []
        },
        "3": {
          "ctab": {
            "srcChannel": 3,
            "name": "EpRoot",
            "accType": "CHORD1",
            "editable": false,
            "mutedNotes": [],
            "mutedChords": [
              "1+2+5",
              "sus4",
              "1+5",
              "1+8",
              "Maj7aug",
              "dim",
              "minMaj7(9)",
              "minMaj7",
              "min6",
              "min",
              "aug",
              "Maj7(9)",
              "Maj7#11",
              "Maj7",
              "Maj6",
              "Maj"
            ],
            "autoStart": false,
            "sourceChordNote": 0,
            "sourceChordType": "Maj7",
            "ctb2Low": null,
            "ctb2Main": {
              "ntr": "ROOT_TRANSPOSITION",
              "ntt": "MELODY",
              "bassOn": false,
              "chordRootUpperLimit": 6,
              "noteLowLimit": 0,
              "noteHighLimit": 127,
              "rtr": "PITCH_SHIFT"
            },
            "ctb2High": null
          },
          "notes": [
            {
              "pitch": 60,
              "velocity": 46,
              "position": 0,
              "duration": 3.5104166666666665
            }
          ]
        },
        "5": {
          "ctab": {
            "srcChannel": 5,
            "name": "PadRoot",
            "accType": "PAD",
            "editable": true,
            "mutedNotes": [],
            "mutedChords": [
              "1+2+5",
              "sus4",
              "1+5",
              "1+8",
              "Maj7aug",
              "dim",
              "minMaj7(9)",
              "minMaj7",
              "min6",
              "min",
              "aug",
              "Maj7(9)",
              "Maj7#11",
              "Maj7",
              "Maj6",
              "Maj"
            ],
            "autoStart": false,
            "sourceChordNote": 0,
            "sourceChordType": "Maj7",
            "ctb2Low": null,
            "ctb2Main": {
              "ntr": "ROOT_TRANSPOSITION",
              "ntt": "MELODY",
              "bassOn": false,
              "chordRootUpperLimit": 6,
              "noteLowLimit": 0,
              "noteHighLimit": 127,
              "rtr": "PITCH_SHIFT"
            },
            "ctb2High": null
          },
          "notes": [
            {
              "pitch": 60,
              "velocity": 70,
              "position": 0,
              "duration": 3.9895833333333335
            }
          ]
        },
        "8": {
          "ctab": {
            "srcChannel": 8,
            "name": "addDrums",
            "accType": "SUBRHYTHM",
            "editable": false,
            "mutedNotes": [],
            "mutedChords": [],
            "autoStart": true,
            "sourceChordNote": 0,
            "sourceChordType": "Maj7",
            "ctb2Low": null,
            "ctb2Main": {
              "ntr": "ROOT_FIXED",
              "ntt": "BYPASS",
              "bassOn": false,
              "chordRootUpperLimit": 6,
              "noteLowLimit": 0,
              "noteHighLimit": 127,
              "rtr": "PITCH_SHIFT"
            },
            "ctb2High": null
          },
          "notes": [
            {
              "pitch": 54,
              "velocity": 90,
              "position": 0,
              "duration": 0.010416666666666666
            },
            {
              "pitch": 57,
              "velocity": 54,
              "position": 0,
              "duration": 0.010416666666666666
            },
            {
              "pitch": 69,
              "velocity": 48,
              "position": 0,
              "duration": 0.010416666666666666
            },
            {
              "pitch": 75,
              "velocity": 60,
              "position": 0,
              "duration": 0.010416666666666666
            },
            {
              "pitch": 82,
              "velocity": 61,
              "position": 0,
              "duration": 0.010416666666666666
            },
            {
              "pitch": 54,
              "velocity": 61,
              "position": 0.25,
              "duration": 0.010416666666666666
            },
            {
              "pitch": 82,
              "velocity": 44,
              "position": 0.25,
              "duration": 0.010416666666666666
            },
            {
              "pitch": 54,
              "velocity": 38,
              "position": 0.5,
              "duration": 0.010416666666666666
            },
            {
              "pitch": 82,
              "velocity": 57,
              "position": 0.5,
              "duration": 0.010416666666666666
            },
            {
              "pitch": 54,
              "velocity": 17,
              "position": 0.75,
              "duration": 0.010416666666666666
            },
            {
              "pitch": 62,
              "velocity": 107,
              "position": 0.75,
              "duration": 0.010416666666666666
            },
            {
              "pitch": 69,
              "velocity": 50,
              "position": 0.75,
              "duration": 0.010416666666666666
            },
            {
              "pitch": 75,
              "velocity": 60,
              "position": 0.75,
              "duration": 0.010416666666666666
            },
            {
              "pitch": 82,
              "velocity": 95,
              "position": 0.75,
              "duration": 0.010416666666666666
            },
            {
              "pitch": 60,
              "velocity": 78,
              "position": 0.7916666666666666,
              "duration": 0.010416666666666666
            },
            {
              "pitch": 54,
              "velocity": 90,
              "position": 1,
              "duration": 0.010416666666666666
            },
            {
              "pitch": 82,
              "velocity": 57,
              "position": 1,
              "duration": 0.010416666666666666
            },
            {
              "pitch": 82,
              "velocity": 55,
              "position": 1.25,
              "duration": 0.010416666666666666
            },
            {
              "pitch": 62,
              "velocity": 107,
              "position": 1.5,
              "duration": 0.010416666666666666
            },
            {
              "pitch": 69,
              "velocity": 47,
              "position": 1.5,
              "duration": 0.010416666666666666
            },
            {
              "pitch": 75,
              "velocity": 60,
              "position": 1.5,
              "duration": 0.010416666666666666
            },
            {
              "pitch": 82,
              "velocity": 57,
              "position": 1.5,
              "duration": 0.010416666666666666
            },
            {
              "pitch": 60,
              "velocity": 51,
              "position": 1.53125,
              "duration": 0.010416666666666666
            },
            {
              "pitch": 82,
              "velocity": 95,
              "position": 1.75,
              "duration": 0.010416666666666666
            },
            {
              "pitch": 54,
              "velocity": 90,
              "position": 2,
              "duration": 0.010416666666666666
            },
            {
              "pitch": 82,
              "velocity": 65,
              "position": 2,
              "duration": 0.010416666666666666
            },
            {
              "pitch": 54,
              "velocity": 61,
              "position": 2.25,
              "duration": 0.010416666666666666
            },
            {
              "pitch": 82,
              "velocity": 55,
              "position": 2.25,
              "duration": 0.010416666666666666
            },
            {
              "pitch": 62,
              "velocity": 107,
              "position": 2.2604166666666665,
              "duration": 0.010416666666666666
            },
            {
              "pitch": 60,
              "velocity": 49,
              "position": 2.2916666666666665,
              "duration": 0.010416666666666666
            },
            {
              "pitch": 54,
              "velocity": 38,
              "position": 2.5,
              "duration": 0.010416666666666666
            },
            {
              "pitch": 82,
              "velocity": 46,
              "position": 2.5,
              "duration": 0.010416666666666666
            },
            {
              "pitch": 40,
              "velocity": 20,
              "position": 2.625,
              "duration": 0.010416666666666666
            },
            {
              "pitch": 40,
              "velocity": 32,
              "position": 2.75,
              "duration": 0.010416666666666666
            },
            {
              "pitch": 54,
              "velocity": 17,
              "position": 2.75,
              "duration": 0.010416666666666666
            },
            {
              "pitch": 82,
              "velocity": 95,
              "position": 2.75,
              "duration": 0.010416666666666666
            },
            {
              "pitch": 40,
              "velocity": 67,
              "position": 2.875,
              "duration": 0.010416666666666666
            },
            {
              "pitch": 40,
              "velocity": 91,
              "position": 3,
              "duration": 0.010416666666666666
            },
            {
              "pitch": 54,
              "velocity": 90,
              "position": 3,
              "duration": 0.010416666666666666
            },
            {
              "pitch": 62,
              "velocity": 71,
              "position": 3,
              "duration": 0.010416666666666666
            },
            {
              "pitch": 82,
              "velocity": 71,
              "position": 3,
              "duration": 0.010416666666666666
            },
            {
              "pitch": 60,
              "velocity": 46,
              "position": 3.0104166666666665,
              "duration": 0.010416666666666666
            },
            {
              "pitch": 59,
              "velocity": 63,
              "position": 3.0416666666666665,
              "duration": 0.010416666666666666
            },
            {
              "pitch": 40,
              "velocity": 91,
              "position": 3.25,
              "duration": 0.010416666666666666
            },
            {
              "pitch": 82,
              "velocity": 58,
              "position": 3.25,
              "duration": 0.010416666666666666
            },
            {
              "pitch": 43,
              "velocity": 90,
              "position": 3.5,
              "duration": 0.010416666666666666
            },
            {
              "pitch": 82,
              "velocity": 59,
              "position": 3.5,
              "duration": 0.010416666666666666
            },
            {
              "pitch": 82,
              "velocity": 79,
              "position": 3.75,
              "duration": 0.010416666666666666
            },
            {
              "pitch": 84,
              "velocity": 57,
              "position": 2,
              "duration": 1.9895833333333333
            }
          ]
        },
        "9": {
          "ctab": {
            "srcChannel": 9,
            "name": "MainDrum",
            "accType": "RHYTHM",
            "editable": false,
            "mutedNotes": [],
            "mutedChords": [],
            "autoStart": true,
            "sourceChordNote": 0,
            "sourceChordType": "Maj7",
            "ctb2Low": null,
            "ctb2Main": {
              "ntr": "ROOT_FIXED",
              "ntt": "BYPASS",
              "bassOn": false,
              "chordRootUpperLimit": 6,
              "noteLowLimit": 0,
              "noteHighLimit": 127,
              "rtr": "PITCH_SHIFT"
            },
            "ctb2High": null
          },
          "notes": [
            {
              "pitch": 33,
              "velocity": 59,
              "position": 0,
              "duration": 0.010416666666666666
            },
            {
              "pitch": 46,
              "velocity": 30,
              "position": 0,
              "duration": 0.010416666666666666
            },
            {
              "pitch": 42,
              "velocity": 21,
              "position": 0.25,
              "duration": 0.010416666666666666
            },
            {
              "pitch": 44,
              "velocity": 36,
              "position": 0.5,
              "duration": 0.010416666666666666
            },
            {
              "pitch": 42,
              "velocity": 26,
              "position": 0.75,
              "duration": 0.010416666666666666
            },
            {
              "pitch": 25,
              "velocity": 121,
              "position": 1,
              "duration": 0.010416666666666666
            },
            {
              "pitch": 44,
              "velocity": 43,
              "position": 1,
              "duration": 0.010416666666666666
            },
            {
              "pitch": 42,
              "velocity": 22,
              "position": 1.25,
              "duration": 0.010416666666666666
            },
            {
              "pitch": 44,
              "velocity": 41,
              "position": 1.5,
              "duration": 0.010416666666666666
            },
            {
              "pitch": 42,
              "velocity": 30,
              "position": 1.75,
              "duration": 0.010416666666666666
            },
            {
              "pitch": 33,
              "velocity": 47,
              "position": 2,
              "duration": 0.010416666666666666
            },
            {
              "pitch": 44,
              "velocity": 44,
              "position": 2,
              "duration": 0.010416666666666666
            },
            {
              "pitch": 46,
              "velocity": 26,
              "position": 2.25,
              "duration": 0.010416666666666666
            },
            {
              "pitch": 44,
              "velocity": 41,
              "position": 2.5,
              "duration": 0.010416666666666666
            },
            {
              "pitch": 42,
              "velocity": 26,
              "position": 2.75,
              "duration": 0.010416666666666666
            },
            {
              "pitch": 25,
              "velocity": 121,
              "position": 3,
              "duration": 0.010416666666666666
            },
            {
              "pitch": 33,
              "velocity": 48,
              "position": 3,
              "duration": 0.010416666666666666
            },
            {
              "pitch": 46,
              "velocity": 41,
              "position": 3,
              "duration": 0.010416666666666666
            }
          ]
        },
        "10": {
          "ctab": {
            "srcChannel": 10,
            "name": "Bass",
            "accType": "BASS",
            "editable": false,
            "mutedNotes": [],
            "mutedChords": [],
            "autoStart": false,
            "sourceChordNote": 0,
            "sourceChordType": "Maj7",
            "ctb2Low": null,
            "ctb2Main": {
              "ntr": "ROOT_TRANSPOSITION",
              "ntt": "MELODY",
              "bassOn": true,
              "chordRootUpperLimit": 3,
              "noteLowLimit": 28,
              "noteHighLimit": 39,
              "rtr": "PITCH_SHIFT_TO_ROOT"
            },
            "ctb2High": null
          },
          "notes": [
            {
              "pitch": 24,
              "velocity": 101,
              "position": 0,
              "duration": 1.9895833333333333
            },
            {
              "pitch": 24,
              "velocity": 93,
              "position": 2,
              "duration": 0.9895833333333334
            },
            {
              "pitch": 31,
              "velocity": 101,
              "position": 3,
              "duration": 0.9895833333333334
            }
          ]
        },
        "11": {
          "ctab": {
            "srcChannel": 11,
            "name": "Ep",
            "accType": "CHORD1",
            "editable": false,
            "mutedNotes": [],
            "mutedChords": [],
            "autoStart": false,
            "sourceChordNote": 0,
            "sourceChordType": "Maj7",
            "ctb2Low": null,
            "ctb2Main": {
              "ntr": "ROOT_FIXED",
              "ntt": "CHORD",
              "bassOn": false,
              "chordRootUpperLimit": 7,
              "noteLowLimit": 50,
              "noteHighLimit": 127,
              "rtr": "PITCH_SHIFT"
            },
            "ctb2High": null
          },
          "notes": [
            {
              "pitch": 55,
              "velocity": 48,
              "position": 0,
              "duration": 3.4895833333333335
            },
            {
              "pitch": 59,
              "velocity": 48,
              "position": 0,
              "duration": 3.5104166666666665
            },
            {
              "pitch": 64,
              "velocity": 48,
              "position": 0,
              "duration": 3.53125
            }
          ]
        },
        "12": {
          "ctab": {
            "srcChannel": 12,
            "name": "Nylon",
            "accType": "CHORD2",
            "editable": false,
            "mutedNotes": [],
            "mutedChords": [],
            "autoStart": false,
            "sourceChordNote": 0,
            "sourceChordType": "Maj7",
            "ctb2Low": null,
            "ctb2Main": {
              "ntr": "ROOT_FIXED",
              "ntt": "CHORD",
              "bassOn": false,
              "chordRootUpperLimit": 7,
              "noteLowLimit": 0,
              "noteHighLimit": 127,
              "rtr": "PITCH_SHIFT"
            },
            "ctb2High": null
          },
          "notes": [
            {
              "pitch": 55,
              "velocity": 47,
              "position": 0,
              "duration": 0.010416666666666666
            },
            {
              "pitch": 59,
              "velocity": 47,
              "position": 0,
              "duration": 0.010416666666666666
            },
            {
              "pitch": 64,
              "velocity": 47,
              "position": 0,
              "duration": 0.010416666666666666
            },
            {
              "pitch": 55,
              "velocity": 32,
              "position": 0.25,
              "duration": 0.010416666666666666
            },
            {
              "pitch": 59,
              "velocity": 32,
              "position": 0.25,
              "duration": 0.010416666666666666
            },
            {
              "pitch": 64,
              "velocity": 32,
              "position": 0.25,
              "duration": 0.010416666666666666
            },
            {
              "pitch": 55,
              "velocity": 32,
              "position": 0.5,
              "duration": 0.010416666666666666
            },
            {
              "pitch": 59,
              "velocity": 32,
              "position": 0.5,
              "duration": 0.010416666666666666
            },
            {
              "pitch": 64,
              "velocity": 32,
              "position": 0.5,
              "duration": 0.010416666666666666
            },
            {
              "pitch": 55,
              "velocity": 42,
              "position": 0.75,
              "duration": 0.20833333333333334
            },
            {
              "pitch": 59,
              "velocity": 40,
              "position": 0.75,
              "duration": 0.20833333333333334
            },
            {
              "pitch": 64,
              "velocity": 52,
              "position": 0.75,
              "duration": 0.25
            },
            {
              "pitch": 55,
              "velocity": 45,
              "position": 1.25,
              "duration": 0.23958333333333334
            },
            {
              "pitch": 59,
              "velocity": 43,
              "position": 1.25,
              "duration": 0.23958333333333334
            },
            {
              "pitch": 64,
              "velocity": 54,
              "position": 1.25,
              "duration": 0.2708333333333333
            },
            {
              "pitch": 55,
              "velocity": 49,
              "position": 2,
              "duration": 0.4895833333333333
            },
            {
              "pitch": 59,
              "velocity": 42,
              "position": 2,
              "duration": 0.4895833333333333
            },
            {
              "pitch": 64,
              "velocity": 49,
              "position": 2,
              "duration": 0.4895833333333333
            },
            {
              "pitch": 55,
              "velocity": 41,
              "position": 2.5,
              "duration": 0.22916666666666666
            },
            {
              "pitch": 59,
              "velocity": 42,
              "position": 2.5,
              "duration": 0.22916666666666666
            },
            {
              "pitch": 64,
              "velocity": 51,
              "position": 2.5,
              "duration": 0.2708333333333333
            },
            {
              "pitch": 55,
              "velocity": 47,
              "position": 3.5,
              "duration": 0.010416666666666666
            },
            {
              "pitch": 59,
              "velocity": 47,
              "position": 3.5,
              "duration": 0.010416666666666666
            },
            {
              "pitch": 64,
              "velocity": 47,
              "position": 3.5,
              "duration": 0.010416666666666666
            },
            {
              "pitch": 55,
              "velocity": 47,
              "position": 3.75,
              "duration": 0.010416666666666666
            },
            {
              "pitch": 59,
              "velocity": 47,
              "position": 3.75,
              "duration": 0.010416666666666666
            },
            {
              "pitch": 64,
              "velocity": 47,
              "position": 3.75,
              "duration": 0.010416666666666666
            }
          ]
        },
        "13": {
          "ctab": {
            "srcChannel": 13,
            "name": "Pad",
            "accType": "PAD",
            "editable": false,
            "mutedNotes": [],
            "mutedChords": [],
            "autoStart": false,
            "sourceChordNote": 0,
            "sourceChordType": "Maj7",
            "ctb2Low": null,
            "ctb2Main": {
              "ntr": "ROOT_FIXED",
              "ntt": "CHORD",
              "bassOn": false,
              "chordRootUpperLimit": 7,
              "noteLowLimit": 0,
              "noteHighLimit": 127,
              "rtr": "PITCH_SHIFT"
            },
            "ctb2High": null
          },
          "notes": [
            {
              "pitch": 55,
              "velocity": 70,
              "position": 0,
              "duration": 3.9895833333333335
            },
            {
              "pitch": 59,
              "velocity": 70,
              "position": 0,
              "duration": 3.9895833333333335
            },
            {
              "pitch": 64,
              "velocity": 70,
              "position": 0,
              "duration": 3.9895833333333335
            }
          ]
        },
        "14": {
          "ctab": {
            "srcChannel": 14,
            "name": "MutedGtr",
            "accType": "PHRASE1",
            "editable": false,
            "mutedNotes": [],
            "mutedChords": [],
            "autoStart": false,
            "sourceChordNote": 0,
            "sourceChordType": "Maj7",
            "ctb2Low": null,
            "ctb2Main": {
              "ntr": "ROOT_FIXED",
              "ntt": "CHORD",
              "bassOn": false,
              "chordRootUpperLimit": 5,
              "noteLowLimit": 52,
              "noteHighLimit": 127,
              "rtr": "PITCH_SHIFT"
            },
            "ctb2High": null
          },
          "notes": [
            {
              "pitch": 48,
              "velocity": 65,
              "position": 0,
              "duration": 0.4270833333333333
            },
            {
              "pitch": 48,
              "velocity": 60,
              "position": 0.75,
              "duration": 0.2604166666666667
            },
            {
              "pitch": 48,
              "velocity": 63,
              "position": 1.25,
              "duration": 0.28125
            },
            {
              "pitch": 43,
              "velocity": 57,
              "position": 1.5,
              "duration": 0.23958333333333334
            },
            {
              "pitch": 47,
              "velocity": 55,
              "position": 1.75,
              "duration": 0.21875
            },
            {
              "pitch": 48,
              "velocity": 60,
              "position": 2,
              "duration": 0.40625
            },
            {
              "pitch": 48,
              "velocity": 64,
              "position": 2.5,
              "duration": 0.23958333333333334
            },
            {
              "pitch": 48,
              "velocity": 54,
              "position": 3,
              "duration": 0.010416666666666666
            },
            {
              "pitch": 48,
              "velocity": 65,
              "position": 3.25,
              "duration": 0.23958333333333334
            },
            {
              "pitch": 48,
              "velocity": 54,
              "position": 3.5,
              "duration": 0.010416666666666666
            },
            {
              "pitch": 48,
              "velocity": 65,
              "position": 3.75,
              "duration": 0.23958333333333334
            }
          ]
        },
        "15": {
          "ctab": {
            "srcChannel": 15,
            "name": "Pad2",
            "accType": "PHRASE2",
            "editable": false,
            "mutedNotes": [],
            "mutedChords": [],
            "autoStart": false,
            "sourceChordNote": 0,
            "sourceChordType": "Maj7",
            "ctb2Low": null,
            "ctb2Main": {
              "ntr": "ROOT_FIXED",
              "ntt": "CHORD",
              "bassOn": false,
              "chordRootUpperLimit": 7,
              "noteLowLimit": 0,
              "noteHighLimit": 127,
              "rtr": "PITCH_SHIFT"
            },
            "ctb2High": null
          },
          "notes": []
        }
      }
    },
    "Fill_In_DD": {
      "type": "Fill_In_DD",
      "sizeInBeats": 4,
      "channels": {
        "0": {
          "ctab": {
            "srcChannel": 0,
            "name": "CC_Crash",
            "accType": "SUBRHYTHM",
            "editable": false,
            "mutedNotes": [],
            "mutedChords": [
              "1+2+5",
              "sus4",
              "1+5",
              "1+8",
              "7aug",
              "Maj7aug",
              "7(#9)",
              "7(b13)",
              "7(b9)",
              "7(13)",
              "7#11",
              "7(9)",
              "7b5",
              "7sus4",
              "7th",
              "dim7",
              "dim",
              "minMaj7(9)",
              "minMaj7",
              "min7(11)",
              "min7(9)",
              "min(9)",
              "m7b5",
              "min7",
              "min6",
              "min",
              "aug",
              "Maj6(9)",
              "Maj7(9)",
              "Maj(9)",
              "Maj7#11",
              "Maj7",
              "Maj6",
              "Maj"
            ],
            "autoStart": true,
            "sourceChordNote": 0,
            "sourceChordType": "Maj",
            "ctb2Low": null,
            "ctb2Main": {
              "ntr": "ROOT_FIXED",
              "ntt": "BYPASS",
              "bassOn": false,
              "chordRootUpperLimit": 0,
              "noteLowLimit": 0,
              "noteHighLimit": 127,
              "rtr": "RETRIGGER"
            },
            "ctb2High": null
          },
          "notes": []
        },
        "3": {
          "ctab": {
            "srcChannel": 3,
            "name": "EpRoot",
            "accType": "CHORD1",
            "editable": false,
            "mutedNotes": [],
            "mutedChords": [
              "1+2+5",
              "sus4",
              "1+5",
              "1+8",
              "Maj7aug",
              "dim",
              "minMaj7(9)",
              "minMaj7",
              "min6",
              "min",
              "aug",
              "Maj7(9)",
              "Maj7#11",
              "Maj7",
              "Maj6",
              "Maj"
            ],
            "autoStart": false,
            "sourceChordNote": 0,
            "sourceChordType": "Maj7",
            "ctb2Low": null,
            "ctb2Main": {
              "ntr": "ROOT_TRANSPOSITION",
              "ntt": "MELODY",
              "bassOn": false,
              "chordRootUpperLimit": 6,
              "noteLowLimit": 0,
              "noteHighLimit": 127,
              "rtr": "PITCH_SHIFT"
            },
            "ctb2High": null
          },
          "notes": [
            {
              "pitch": 60,
              "velocity": 48,
              "position": 0,
              "duration": 0.9895833333333334
            }
          ]
        },
        "5": {
          "ctab": {
            "srcChannel": 5,
            "name": "PadRoot",
            "accType": "PAD",
            "editable": true,
            "mutedNotes": [],
            "mutedChords": [
              "1+2+5",
              "sus4",
              "1+5",
              "1+8",
              "Maj7aug",
              "dim",
              "minMaj7(9)",
              "minMaj7",
              "min6",
              "min",
              "aug",
              "Maj7(9)",
              "Maj7#11",
              "Maj7",
              "Maj6",
              "Maj"
            ],
            "autoStart": false,
            "sourceChordNote": 0,
            "sourceChordType": "Maj7",
            "ctb2Low": null,
            "ctb2Main": {
              "ntr": "ROOT_TRANSPOSITION",
              "ntt": "MELODY",
              "bassOn": false,
              "chordRootUpperLimit": 6,
              "noteLowLimit": 0,
              "noteHighLimit": 127,
              "rtr": "PITCH_SHIFT"
            },
            "ctb2High": null
          },
          "notes": [
            {
              "pitch": 60,
              "velocity": 52,
              "position": 0,
              "duration": 3.9895833333333335
            }
          ]
        },
        "8": {
          "ctab": {
            "srcChannel": 8,
            "name": "addDrums",
            "accType": "SUBRHYTHM",
            "editable": false,
            "mutedNotes": [],
            "mutedChords": [],
            "autoStart": true,
            "sourceChordNote": 0,
            "sourceChordType": "Maj7",
            "ctb2Low": null,
            "ctb2Main": {
              "ntr": "ROOT_FIXED",
              "ntt": "BYPASS",
              "bassOn": false,
              "chordRootUpperLimit": 6,
              "noteLowLimit": 0,
              "noteHighLimit": 127,
              "rtr": "PITCH_SHIFT"
            },
            "ctb2High": null
          },
          "notes": [
            {
              "pitch": 27,
              "velocity": 123,
              "position": 0,
              "duration": 0.010416666666666666
            },
            {
              "pitch": 36,
              "velocity": 71,
              "position": 0,
              "duration": 0.010416666666666666
            },
            {
              "pitch": 51,
              "velocity": 61,
              "position": 0,
              "duration": 0.010416666666666666
            },
            {
              "pitch": 57,
              "velocity": 54,
              "position": 0,
              "duration": 0.010416666666666666
            },
            {
              "pitch": 61,
              "velocity": 39,
              "position": 0,
              "duration": 0.010416666666666666
            },
            {
              "pitch": 69,
              "velocity": 48,
              "position": 0,
              "duration": 0.010416666666666666
            },
            {
              "pitch": 81,
              "velocity": 35,
              "position": 0,
              "duration": 0.010416666666666666
            },
            {
              "pitch": 82,
              "velocity": 44,
              "position": 0,
              "duration": 0.010416666666666666
            },
            {
              "pitch": 25,
              "velocity": 46,
              "position": 0.25,
              "duration": 0.010416666666666666
            },
            {
              "pitch": 80,
              "velocity": 28,
              "position": 0.25,
              "duration": 0.010416666666666666
            },
            {
              "pitch": 82,
              "velocity": 57,
              "position": 0.25,
              "duration": 0.010416666666666666
            },
            {
              "pitch": 27,
              "velocity": 90,
              "position": 0.5,
              "duration": 0.010416666666666666
            },
            {
              "pitch": 63,
              "velocity": 92,
              "position": 0.5,
              "duration": 0.010416666666666666
            },
            {
              "pitch": 80,
              "velocity": 31,
              "position": 0.5,
              "duration": 0.010416666666666666
            },
            {
              "pitch": 82,
              "velocity": 95,
              "position": 0.5,
              "duration": 0.010416666666666666
            },
            {
              "pitch": 25,
              "velocity": 120,
              "position": 0.75,
              "duration": 0.010416666666666666
            },
            {
              "pitch": 36,
              "velocity": 33,
              "position": 0.75,
              "duration": 0.010416666666666666
            },
            {
              "pitch": 61,
              "velocity": 67,
              "position": 0.75,
              "duration": 0.010416666666666666
            },
            {
              "pitch": 69,
              "velocity": 50,
              "position": 0.75,
              "duration": 0.010416666666666666
            },
            {
              "pitch": 81,
              "velocity": 41,
              "position": 0.75,
              "duration": 0.010416666666666666
            },
            {
              "pitch": 82,
              "velocity": 57,
              "position": 0.75,
              "duration": 0.010416666666666666
            },
            {
              "pitch": 19,
              "velocity": 90,
              "position": 1,
              "duration": 0.010416666666666666
            },
            {
              "pitch": 27,
              "velocity": 52,
              "position": 1,
              "duration": 0.010416666666666666
            },
            {
              "pitch": 40,
              "velocity": 111,
              "position": 1,
              "duration": 0.010416666666666666
            },
            {
              "pitch": 51,
              "velocity": 65,
              "position": 1,
              "duration": 0.010416666666666666
            },
            {
              "pitch": 60,
              "velocity": 67,
              "position": 1,
              "duration": 0.010416666666666666
            },
            {
              "pitch": 80,
              "velocity": 30,
              "position": 1,
              "duration": 0.010416666666666666
            },
            {
              "pitch": 82,
              "velocity": 55,
              "position": 1,
              "duration": 0.010416666666666666
            },
            {
              "pitch": 25,
              "velocity": 71,
              "position": 1.25,
              "duration": 0.010416666666666666
            },
            {
              "pitch": 40,
              "velocity": 105,
              "position": 1.25,
              "duration": 0.010416666666666666
            },
            {
              "pitch": 80,
              "velocity": 38,
              "position": 1.25,
              "duration": 0.010416666666666666
            },
            {
              "pitch": 82,
              "velocity": 57,
              "position": 1.25,
              "duration": 0.010416666666666666
            },
            {
              "pitch": 27,
              "velocity": 117,
              "position": 1.5,
              "duration": 0.010416666666666666
            },
            {
              "pitch": 61,
              "velocity": 42,
              "position": 1.5,
              "duration": 0.010416666666666666
            },
            {
              "pitch": 69,
              "velocity": 47,
              "position": 1.5,
              "duration": 0.010416666666666666
            },
            {
              "pitch": 81,
              "velocity": 43,
              "position": 1.5,
              "duration": 0.010416666666666666
            },
            {
              "pitch": 82,
              "velocity": 95,
              "position": 1.5,
              "duration": 0.010416666666666666
            },
            {
              "pitch": 25,
              "velocity": 39,
              "position": 1.75,
              "duration": 0.010416666666666666
            },
            {
              "pitch": 43,
              "velocity": 111,
              "position": 1.75,
              "duration": 0.010416666666666666
            },
            {
              "pitch": 49,
              "velocity": 54,
              "position": 1.75,
              "duration": 0.010416666666666666
            },
            {
              "pitch": 60,
              "velocity": 92,
              "position": 1.75,
              "duration": 0.010416666666666666
            },
            {
              "pitch": 80,
              "velocity": 30,
              "position": 1.75,
              "duration": 0.010416666666666666
            },
            {
              "pitch": 82,
              "velocity": 65,
              "position": 1.75,
              "duration": 0.010416666666666666
            },
            {
              "pitch": 84,
              "velocity": 57,
              "position": 0,
              "duration": 1.9895833333333333
            },
            {
              "pitch": 27,
              "velocity": 79,
              "position": 2,
              "duration": 0.010416666666666666
            },
            {
              "pitch": 51,
              "velocity": 56,
              "position": 2,
              "duration": 0.010416666666666666
            },
            {
              "pitch": 80,
              "velocity": 34,
              "position": 2,
              "duration": 0.010416666666666666
            },
            {
              "pitch": 82,
              "velocity": 55,
              "position": 2,
              "duration": 0.010416666666666666
            },
            {
              "pitch": 25,
              "velocity": 125,
              "position": 2.25,
              "duration": 0.010416666666666666
            },
            {
              "pitch": 40,
              "velocity": 87,
              "position": 2.25,
              "duration": 0.010416666666666666
            },
            {
              "pitch": 45,
              "velocity": 103,
              "position": 2.25,
              "duration": 0.010416666666666666
            },
            {
              "pitch": 62,
              "velocity": 107,
              "position": 2.25,
              "duration": 0.010416666666666666
            },
            {
              "pitch": 81,
              "velocity": 39,
              "position": 2.25,
              "duration": 0.010416666666666666
            },
            {
              "pitch": 82,
              "velocity": 46,
              "position": 2.25,
              "duration": 0.010416666666666666
            },
            {
              "pitch": 27,
              "velocity": 51,
              "position": 2.5,
              "duration": 0.010416666666666666
            },
            {
              "pitch": 43,
              "velocity": 36,
              "position": 2.5,
              "duration": 0.010416666666666666
            },
            {
              "pitch": 80,
              "velocity": 36,
              "position": 2.5,
              "duration": 0.010416666666666666
            },
            {
              "pitch": 82,
              "velocity": 95,
              "position": 2.5,
              "duration": 0.010416666666666666
            },
            {
              "pitch": 25,
              "velocity": 86,
              "position": 2.75,
              "duration": 0.010416666666666666
            },
            {
              "pitch": 61,
              "velocity": 53,
              "position": 2.75,
              "duration": 0.010416666666666666
            },
            {
              "pitch": 80,
              "velocity": 42,
              "position": 2.75,
              "duration": 0.010416666666666666
            },
            {
              "pitch": 82,
              "velocity": 71,
              "position": 2.75,
              "duration": 0.010416666666666666
            },
            {
              "pitch": 40,
              "velocity": 25,
              "position": 2.8125,
              "duration": 0.010416666666666666
            },
            {
              "pitch": 40,
              "velocity": 32,
              "position": 2.875,
              "duration": 0.010416666666666666
            },
            {
              "pitch": 40,
              "velocity": 37,
              "position": 2.9375,
              "duration": 0.010416666666666666
            },
            {
              "pitch": 19,
              "velocity": 90,
              "position": 3,
              "duration": 0.010416666666666666
            },
            {
              "pitch": 27,
              "velocity": 123,
              "position": 3,
              "duration": 0.010416666666666666
            },
            {
              "pitch": 40,
              "velocity": 102,
              "position": 3,
              "duration": 0.010416666666666666
            },
            {
              "pitch": 43,
              "velocity": 117,
              "position": 3,
              "duration": 0.010416666666666666
            },
            {
              "pitch": 51,
              "velocity": 60,
              "position": 3,
              "duration": 0.010416666666666666
            },
            {
              "pitch": 81,
              "velocity": 39,
              "position": 3,
              "duration": 0.010416666666666666
            },
            {
              "pitch": 82,
              "velocity": 58,
              "position": 3,
              "duration": 0.010416666666666666
            },
            {
              "pitch": 25,
              "velocity": 65,
              "position": 3.25,
              "duration": 0.010416666666666666
            },
            {
              "pitch": 80,
              "velocity": 26,
              "position": 3.25,
              "duration": 0.010416666666666666
            },
            {
              "pitch": 82,
              "velocity": 59,
              "position": 3.25,
              "duration": 0.010416666666666666
            },
            {
              "pitch": 27,
              "velocity": 117,
              "position": 3.5,
              "duration": 0.010416666666666666
            },
            {
              "pitch": 41,
              "velocity": 99,
              "position": 3.5,
              "duration": 0.010416666666666666
            },
            {
              "pitch": 60,
              "velocity": 42,
              "position": 3.5,
              "duration": 0.010416666666666666
            },
            {
              "pitch": 80,
              "velocity": 28,
              "position": 3.5,
              "duration": 0.010416666666666666
            },
            {
              "pitch": 82,
              "velocity": 79,
              "position": 3.5,
              "duration": 0.010416666666666666
            },
            {
              "pitch": 25,
              "velocity": 90,
              "position": 3.75,
              "duration": 0.010416666666666666
            },
            {
              "pitch": 80,
              "velocity": 31,
              "position": 3.75,
              "duration": 0.010416666666666666
            },
            {
              "pitch": 82,
              "velocity": 59,
              "position": 3.75,
              "duration": 0.010416666666666666
            }
          ]
        },
        "9": {
          "ctab": {
            "srcChannel": 9,
            "name": "MainDrum",
            "accType": "RHYTHM",
            "editable": false,
            "mutedNotes": [],
            "mutedChords": [],
            "autoStart": true,
            "sourceChordNote": 0,
            "sourceChordType": "Maj7",
            "ctb2Low": null,
            "ctb2Main": {
              "ntr": "ROOT_FIXED",
              "ntt": "BYPASS",
              "bassOn": false,
              "chordRootUpperLimit": 6,
              "noteLowLimit": 0,
              "noteHighLimit": 127,
              "rtr": "PITCH_SHIFT"
            },
            "ctb2High": null
          },
          "notes": [
            {
              "pitch": 33,
              "velocity": 56,
              "position": 0,
              "duration": 0.010416666666666666
            },
            {
              "pitch": 42,
              "velocity": 46,
              "position": 0,
              "duration": 0.010416666666666666
            },
            {
              "pitch": 33,
              "velocity": 59,
              "position": 0.5,
              "duration": 0.010416666666666666
            },
            {
              "pitch": 42,
              "velocity": 54,
              "position": 0.5,
              "duration": 0.010416666666666666
            },
            {
              "pitch": 42,
              "velocity": 52,
              "position": 1,
              "duration": 0.010416666666666666
            },
            {
              "pitch": 42,
              "velocity": 54,
              "position": 1.5,
              "duration": 0.010416666666666666
            },
            {
              "pitch": 33,
              "velocity": 56,
              "position": 1.75,
              "duration": 0.010416666666666666
            },
            {
              "pitch": 46,
              "velocity": 36,
              "position": 1.75,
              "duration": 0.010416666666666666
            },
            {
              "pitch": 42,
              "velocity": 41,
              "position": 2,
              "duration": 0.010416666666666666
            },
            {
              "pitch": 42,
              "velocity": 44,
              "position": 2.5,
              "duration": 0.010416666666666666
            },
            {
              "pitch": 42,
              "velocity": 54,
              "position": 3,
              "duration": 0.010416666666666666
            },
            {
              "pitch": 42,
              "velocity": 54,
              "position": 3.5,
              "duration": 0.010416666666666666
            },
            {
              "pitch": 33,
              "velocity": 56,
              "position": 3.75,
              "duration": 0.010416666666666666
            }
          ]
        },
        "10": {
          "ctab": {
            "srcChannel": 10,
            "name": "Bass",
            "accType": "BASS",
            "editable": false,
            "mutedNotes": [],
            "mutedChords": [],
            "autoStart": false,
            "sourceChordNote": 0,
            "sourceChordType": "Maj7",
            "ctb2Low": null,
            "ctb2Main": {
              "ntr": "ROOT_TRANSPOSITION",
              "ntt": "MELODY",
              "bassOn": true,
              "chordRootUpperLimit": 3,
              "noteLowLimit": 28,
              "noteHighLimit": 39,
              "rtr": "PITCH_SHIFT_TO_ROOT"
            },
            "ctb2High": null
          },
          "notes": [
            {
              "pitch": 24,
              "velocity": 105,
              "position": 0,
              "duration": 0.4895833333333333
            },
            {
              "pitch": 24,
              "velocity": 110,
              "position": 0.5,
              "duration": 0.28125
            },
            {
              "pitch": 24,
              "velocity": 105,
              "position": 1.75,
              "duration": 1.2395833333333333
            },
            {
              "pitch": 24,
              "velocity": 106,
              "position": 3.5,
              "duration": 0.010416666666666666
            },
            {
              "pitch": 24,
              "velocity": 106,
              "position": 3.75,
              "duration": 0.010416666666666666
            }
          ]
        },
        "11": {
          "ctab": {
            "srcChannel": 11,
            "name": "Ep",
            "accType": "CHORD1",
            "editable": false,
            "mutedNotes": [],
            "mutedChords": [],
            "autoStart": false,
            "sourceChordNote": 0,
            "sourceChordType": "Maj7",
            "ctb2Low": null,
            "ctb2Main": {
              "ntr": "ROOT_FIXED",
              "ntt": "CHORD",
              "bassOn": false,
              "chordRootUpperLimit": 7,
              "noteLowLimit": 50,
              "noteHighLimit": 127,
              "rtr": "PITCH_SHIFT"
            },
            "ctb2High": null
          },
          "notes": [
            {
              "pitch": 55,
              "velocity": 50,
              "position": 0,
              "duration": 0.9895833333333334
            },
            {
              "pitch": 59,
              "velocity": 50,
              "position": 0,
              "duration": 0.9895833333333334
            },
            {
              "pitch": 64,
              "velocity": 50,
              "position": 0,
              "duration": 0.9895833333333334
            }
          ]
        },
        "12": {
          "ctab": {
            "srcChannel": 12,
            "name": "Nylon",
            "accType": "CHORD2",
            "editable": false,
            "mutedNotes": [],
            "mutedChords": [],
            "autoStart": false,
            "sourceChordNote": 0,
            "sourceChordType": "Maj7",
            "ctb2Low": null,
            "ctb2Main": {
              "ntr": "ROOT_FIXED",
              "ntt": "CHORD",
              "bassOn": false,
              "chordRootUpperLimit": 7,
              "noteLowLimit": 0,
              "noteHighLimit": 127,
              "rtr": "PITCH_SHIFT"
            },
            "ctb2High": null
          },
          "notes": [
            {
              "pitch": 55,
              "velocity": 52,
              "position": 0,
              "duration": 0.8645833333333334
            },
            {
              "pitch": 59,
              "velocity": 46,
              "position": 0,
              "duration": 0.8854166666666666
            },
            {
              "pitch": 64,
              "velocity": 46,
              "position": 0,
              "duration": 0.8854166666666666
            },
            {
              "pitch": 55,
              "velocity": 57,
              "position": 1,
              "duration": 0.15625
            },
            {
              "pitch": 64,
              "velocity": 53,
              "position": 1,
              "duration": 0.1875
            },
            {
              "pitch": 59,
              "velocity": 53,
              "position": 1,
              "duration": 0.22916666666666666
            },
            {
              "pitch": 55,
              "velocity": 52,
              "position": 2.25,
              "duration": 0.22916666666666666
            },
            {
              "pitch": 59,
              "velocity": 48,
              "position": 2.25,
              "duration": 0.2604166666666667
            },
            {
              "pitch": 64,
              "velocity": 50,
              "position": 2.25,
              "duration": 0.2604166666666667
            },
            {
              "pitch": 55,
              "velocity": 59,
              "position": 3,
              "duration": 0.2708333333333333
            },
            {
              "pitch": 64,
              "velocity": 50,
              "position": 3,
              "duration": 0.2708333333333333
            },
            {
              "pitch": 59,
              "velocity": 51,
              "position": 3,
              "duration": 0.28125
            }
          ]
        },
        "13": {
          "ctab": {
            "srcChannel": 13,
            "name": "Pad",
            "accType": "PAD",
            "editable": false,
            "mutedNotes": [],
            "mutedChords": [],
            "autoStart": false,
            "sourceChordNote": 0,
            "sourceChordType": "Maj7",
            "ctb2Low": null,
            "ctb2Main": {
              "ntr": "ROOT_FIXED",
              "ntt": "CHORD",
              "bassOn": false,
              "chordRootUpperLimit": 7,
              "noteLowLimit": 0,
              "noteHighLimit": 127,
              "rtr": "PITCH_SHIFT"
            },
            "ctb2High": null
          },
          "notes": [
            {
              "pitch": 55,
              "velocity": 52,
              "position": 0,
              "duration": 3.9895833333333335
            },
            {
              "pitch": 59,
              "velocity": 52,
              "position": 0,
              "duration": 3.9895833333333335
            },
            {
              "pitch": 64,
              "velocity": 52,
              "position": 0,
              "duration": 3.9895833333333335
            }
          ]
        },
        "14": {
          "ctab": {
            "srcChannel": 14,
            "name": "MutedGtr",
            "accType": "PHRASE1",
            "editable": false,
            "mutedNotes": [],
            "mutedChords": [],
            "autoStart": false,
            "sourceChordNote": 0,
            "sourceChordType": "Maj7",
            "ctb2Low": null,
            "ctb2Main": {
              "ntr": "ROOT_FIXED",
              "ntt": "CHORD",
              "bassOn": false,
              "chordRootUpperLimit": 5,
              "noteLowLimit": 52,
              "noteHighLimit": 127,
              "rtr": "PITCH_SHIFT"
            },
            "ctb2High": null
          },
          "notes": [
            {
              "pitch": 48,
              "velocity": 63,
              "position": 0,
              "duration": 0.3229166666666667
            },
            {
              "pitch": 48,
              "velocity": 73,
              "position": 0.5,
              "duration": 0.2708333333333333
            },
            {
              "pitch": 48,
              "velocity": 64,
              "position": 1.25,
              "duration": 0.2604166666666667
            },
            {
              "pitch": 48,
              "velocity": 64,
              "position": 2,
              "duration": 0.28125
            },
            {
              "pitch": 48,
              "velocity": 65,
              "position": 2.5,
              "duration": 0.28125
            }
          ]
        },
        "15": {
          "ctab": {
            "srcChannel": 15,
            "name": "Pad2",
            "accType": "PHRASE2",
            "editable": false,
            "mutedNotes": [],
            "mutedChords": [],
            "autoStart": false,
            "sourceChordNote": 0,
            "sourceChordType": "Maj7",
            "ctb2Low": null,
            "ctb2Main": {
              "ntr": "ROOT_FIXED",
              "ntt": "CHORD",
              "bassOn": false,
              "chordRootUpperLimit": 7,
              "noteLowLimit": 0,
              "noteHighLimit": 127,
              "rtr": "PITCH_SHIFT"
            },
            "ctb2High": null
          },
          "notes": []
        }
      }
    },
    "Intro_A": {
      "type": "Intro_A",
      "sizeInBeats": 4,
      "channels": {
        "0": {
          "ctab": {
            "srcChannel": 0,
            "name": "CC_Crash",
            "accType": "SUBRHYTHM",
            "editable": false,
            "mutedNotes": [],
            "mutedChords": [
              "1+2+5",
              "sus4",
              "1+5",
              "1+8",
              "7aug",
              "Maj7aug",
              "7(#9)",
              "7(b13)",
              "7(b9)",
              "7(13)",
              "7#11",
              "7(9)",
              "7b5",
              "7sus4",
              "7th",
              "dim7",
              "dim",
              "minMaj7(9)",
              "minMaj7",
              "min7(11)",
              "min7(9)",
              "min(9)",
              "m7b5",
              "min7",
              "min6",
              "min",
              "aug",
              "Maj6(9)",
              "Maj7(9)",
              "Maj(9)",
              "Maj7#11",
              "Maj7",
              "Maj6",
              "Maj"
            ],
            "autoStart": true,
            "sourceChordNote": 0,
            "sourceChordType": "Maj",
            "ctb2Low": null,
            "ctb2Main": {
              "ntr": "ROOT_FIXED",
              "ntt": "BYPASS",
              "bassOn": false,
              "chordRootUpperLimit": 0,
              "noteLowLimit": 0,
              "noteHighLimit": 127,
              "rtr": "RETRIGGER"
            },
            "ctb2High": null
          },
          "notes": []
        },
        "3": {
          "ctab": {
            "srcChannel": 3,
            "name": "EpRoot",
            "accType": "CHORD1",
            "editable": false,
            "mutedNotes": [],
            "mutedChords": [
              "1+2+5",
              "sus4",
              "1+5",
              "1+8",
              "Maj7aug",
              "dim",
              "minMaj7(9)",
              "minMaj7",
              "min6",
              "min",
              "aug",
              "Maj7(9)",
              "Maj7#11",
              "Maj7",
              "Maj6",
              "Maj"
            ],
            "autoStart": false,
            "sourceChordNote": 0,
            "sourceChordType": "Maj7",
            "ctb2Low": null,
            "ctb2Main": {
              "ntr": "ROOT_TRANSPOSITION",
              "ntt": "MELODY",
              "bassOn": false,
              "chordRootUpperLimit": 6,
              "noteLowLimit": 0,
              "noteHighLimit": 127,
              "rtr": "PITCH_SHIFT"
            },
            "ctb2High": null
          },
          "notes": []
        },
        "5": {
          "ctab": {
            "srcChannel": 5,
            "name": "PadRoot",
            "accType": "PAD",
            "editable": true,
            "mutedNotes": [],
            "mutedChords": [
              "1+2+5",
              "sus4",
              "1+5",
              "1+8",
              "Maj7aug",
              "dim",
              "minMaj7(9)",
              "minMaj7",
              "min6",
              "min",
              "aug",
              "Maj7(9)",
              "Maj7#11",
              "Maj7",
              "Maj6",
              "Maj"
            ],
            "autoStart": false,
            "sourceChordNote": 0,
            "sourceChordType": "Maj7",
            "ctb2Low": null,
            "ctb2Main": {
              "ntr": "ROOT_TRANSPOSITION",
              "ntt": "MELODY",
              "bassOn": false,
              "chordRootUpperLimit": 6,
              "noteLowLimit": 0,
              "noteHighLimit": 127,
              "rtr": "PITCH_SHIFT"
            },
            "ctb2High": null
          },
          "notes": []
        },
        "8": {
          "ctab": {
            "srcChannel": 8,
            "name": "addDrums",
            "accType": "SUBRHYTHM",
            "editable": false,
            "mutedNotes": [],
            "mutedChords": [],
            "autoStart": true,
            "sourceChordNote": 0,
            "sourceChordType": "Maj7",
            "ctb2Low": null,
            "ctb2Main": {
              "ntr": "ROOT_FIXED",
              "ntt": "BYPASS",
              "bassOn": false,
              "chordRootUpperLimit": 6,
              "noteLowLimit": 0,
              "noteHighLimit": 127,
              "rtr": "PITCH_SHIFT"
            },
            "ctb2High": null
          },
          "notes": [
            {
              "pitch": 82,
              "velocity": 41,
              "position": 0,
              "duration": 0.010416666666666666
            },
            {
              "pitch": 82,
              "velocity": 24,
              "position": 0.25,
              "duration": 0.010416666666666666
            },
            {
              "pitch": 82,
              "velocity": 37,
              "position": 0.5,
              "duration": 0.010416666666666666
            },
            {
              "pitch": 82,
              "velocity": 75,
              "position": 0.75,
              "duration": 0.010416666666666666
            },
            {
              "pitch": 82,
              "velocity": 37,
              "position": 1,
              "duration": 0.010416666666666666
            },
            {
              "pitch": 82,
              "velocity": 35,
              "position": 1.25,
              "duration": 0.010416666666666666
            },
            {
              "pitch": 82,
              "velocity": 37,
              "position": 1.5,
              "duration": 0.010416666666666666
            },
            {
              "pitch": 82,
              "velocity": 75,
              "position": 1.75,
              "duration": 0.010416666666666666
            },
            {
              "pitch": 82,
              "velocity": 45,
              "position": 2,
              "duration": 0.010416666666666666
            },
            {
              "pitch": 82,
              "velocity": 35,
              "position": 2.25,
              "duration": 0.010416666666666666
            },
            {
              "pitch": 82,
              "velocity": 26,
              "position": 2.5,
              "duration": 0.010416666666666666
            },
            {
              "pitch": 82,
              "velocity": 75,
              "position": 2.75,
              "duration": 0.010416666666666666
            },
            {
              "pitch": 82,
              "velocity": 51,
              "position": 3,
              "duration": 0.010416666666666666
            },
            {
              "pitch": 82,
              "velocity": 38,
              "position": 3.25,
              "duration": 0.010416666666666666
            },
            {
              "pitch": 82,
              "velocity": 39,
              "position": 3.5,
              "duration": 0.010416666666666666
            },
            {
              "pitch": 82,
              "velocity": 59,
              "position": 3.75,
              "duration": 0.010416666666666666
            },
            {
              "pitch": 84,
              "velocity": 57,
              "position": 1,
              "duration": 2.9895833333333335
            }
          ]
        },
        "9": {
          "ctab": {
            "srcChannel": 9,
            "name": "MainDrum",
            "accType": "RHYTHM",
            "editable": false,
            "mutedNotes": [],
            "mutedChords": [],
            "autoStart": true,
            "sourceChordNote": 0,
            "sourceChordType": "Maj7",
            "ctb2Low": null,
            "ctb2Main": {
              "ntr": "ROOT_FIXED",
              "ntt": "BYPASS",
              "bassOn": false,
              "chordRootUpperLimit": 6,
              "noteLowLimit": 0,
              "noteHighLimit": 127,
              "rtr": "PITCH_SHIFT"
            },
            "ctb2High": null
          },
          "notes": [
            {
              "pitch": 44,
              "velocity": 53,
              "position": 0,
              "duration": 0.010416666666666666
            },
            {
              "pitch": 44,
              "velocity": 61,
              "position": 1,
              "duration": 0.010416666666666666
            },
            {
              "pitch": 44,
              "velocity": 58,
              "position": 2,
              "duration": 0.010416666666666666
            },
            {
              "pitch": 42,
              "velocity": 48,
              "position": 2.75,
              "duration": 0.010416666666666666
            },
            {
              "pitch": 44,
              "velocity": 40,
              "position": 3,
              "duration": 0.010416666666666666
            },
            {
              "pitch": 42,
              "velocity": 36,
              "position": 3.25,
              "duration": 0.010416666666666666
            },
            {
              "pitch": 46,
              "velocity": 42,
              "position": 3.5,
              "duration": 0.010416666666666666
            }
          ]
        },
        "10": {
          "ctab": {
            "srcChannel": 10,
            "name": "Bass",
            "accType": "BASS",
            "editable": false,
            "mutedNotes": [],
            "mutedChords": [],
            "autoStart": false,
            "sourceChordNote": 0,
            "sourceChordType": "Maj7",
            "ctb2Low": null,
            "ctb2Main": {
              "ntr": "ROOT_TRANSPOSITION",
              "ntt": "MELODY",
              "bassOn": true,
              "chordRootUpperLimit": 3,
              "noteLowLimit": 28,
              "noteHighLimit": 39,
              "rtr": "PITCH_SHIFT_TO_ROOT"
            },
            "ctb2High": null
          },
          "notes": []
        },
        "11": {
          "ctab": {
            "srcChannel": 11,
            "name": "Ep",
            "accType": "CHORD1",
            "editable": false,
            "mutedNotes": [],
            "mutedChords": [],
            "autoStart": false,
            "sourceChordNote": 0,
            "sourceChordType": "Maj7",
            "ctb2Low": null,
            "ctb2Main": {
              "ntr": "ROOT_FIXED",
              "ntt": "CHORD",
              "bassOn": false,
              "chordRootUpperLimit": 7,
              "noteLowLimit": 50,
              "noteHighLimit": 127,
              "rtr": "PITCH_SHIFT"
            },
            "ctb2High": null
          },
          "notes": []
        },
        "12": {
          "ctab": {
            "srcChannel": 12,
            "name": "Nylon",
            "accType": "CHORD2",
            "editable": false,
            "mutedNotes": [],
            "mutedChords": [],
            "autoStart": false,
            "sourceChordNote": 0,
            "sourceChordType": "Maj7",
            "ctb2Low": null,
            "ctb2Main": {
              "ntr": "ROOT_FIXED",
              "ntt": "CHORD",
              "bassOn": false,
              "chordRootUpperLimit": 7,
              "noteLowLimit": 0,
              "noteHighLimit": 127,
              "rtr": "PITCH_SHIFT"
            },
            "ctb2High": null
          },
          "notes": []
        },
        "13": {
          "ctab": {
            "srcChannel": 13,
            "name": "Pad",
            "accType": "PAD",
            "editable": false,
            "mutedNotes": [],
            "mutedChords": [],
            "autoStart": false,
            "sourceChordNote": 0,
            "sourceChordType": "Maj7",
            "ctb2Low": null,
            "ctb2Main": {
              "ntr": "ROOT_FIXED",
              "ntt": "CHORD",
              "bassOn": false,
              "chordRootUpperLimit": 7,
              "noteLowLimit": 0,
              "noteHighLimit": 127,
              "rtr": "PITCH_SHIFT"
            },
            "ctb2High": null
          },
          "notes": []
        },
        "14": {
          "ctab": {
            "srcChannel": 14,
            "name": "MutedGtr",
            "accType": "PHRASE1",
            "editable": false,
            "mutedNotes": [],
            "mutedChords": [],
            "autoStart": false,
            "sourceChordNote": 0,
            "sourceChordType": "Maj7",
            "ctb2Low": null,
            "ctb2Main": {
              "ntr": "ROOT_FIXED",
              "ntt": "CHORD",
              "bassOn": false,
              "chordRootUpperLimit": 5,
              "noteLowLimit": 52,
              "noteHighLimit": 127,
              "rtr": "PITCH_SHIFT"
            },
            "ctb2High": null
          },
          "notes": []
        },
        "15": {
          "ctab": {
            "srcChannel": 15,
            "name": "Pad2",
            "accType": "PHRASE2",
            "editable": false,
            "mutedNotes": [],
            "mutedChords": [],
            "autoStart": false,
            "sourceChordNote": 0,
            "sourceChordType": "Maj7",
            "ctb2Low": null,
            "ctb2Main": {
              "ntr": "ROOT_FIXED",
              "ntt": "CHORD",
              "bassOn": false,
              "chordRootUpperLimit": 7,
              "noteLowLimit": 0,
              "noteHighLimit": 127,
              "rtr": "PITCH_SHIFT"
            },
            "ctb2High": null
          },
          "notes": []
        }
      }
    },
    "Ending_A": {
      "type": "Ending_A",
      "sizeInBeats": 4,
      "channels": {
        "0": {
          "ctab": {
            "srcChannel": 0,
            "name": "CC_Crash",
            "accType": "SUBRHYTHM",
            "editable": false,
            "mutedNotes": [],
            "mutedChords": [
              "1+2+5",
              "sus4",
              "1+5",
              "1+8",
              "7aug",
              "Maj7aug",
              "7(#9)",
              "7(b13)",
              "7(b9)",
              "7(13)",
              "7#11",
              "7(9)",
              "7b5",
              "7sus4",
              "7th",
              "dim7",
              "dim",
              "minMaj7(9)",
              "minMaj7",
              "min7(11)",
              "min7(9)",
              "min(9)",
              "m7b5",
              "min7",
              "min6",
              "min",
              "aug",
              "Maj6(9)",
              "Maj7(9)",
              "Maj(9)",
              "Maj7#11",
              "Maj7",
              "Maj6",
              "Maj"
            ],
            "autoStart": true,
            "sourceChordNote": 0,
            "sourceChordType": "Maj",
            "ctb2Low": null,
            "ctb2Main": {
              "ntr": "ROOT_FIXED",
              "ntt": "BYPASS",
              "bassOn": false,
              "chordRootUpperLimit": 0,
              "noteLowLimit": 0,
              "noteHighLimit": 127,
              "rtr": "RETRIGGER"
            },
            "ctb2High": null
          },
          "notes": []
        },
        "3": {
          "ctab": {
            "srcChannel": 3,
            "name": "EpRoot",
            "accType": "CHORD1",
            "editable": false,
            "mutedNotes": [],
            "mutedChords": [
              "1+2+5",
              "sus4",
              "1+5",
              "1+8",
              "Maj7aug",
              "dim",
              "minMaj7(9)",
              "minMaj7",
              "min6",
              "min",
              "aug",
              "Maj7(9)",
              "Maj7#11",
              "Maj7",
              "Maj6",
              "Maj"
            ],
            "autoStart": false,
            "sourceChordNote": 0,
            "sourceChordType": "Maj7",
            "ctb2Low": null,
            "ctb2Main": {
              "ntr": "ROOT_TRANSPOSITION",
              "ntt": "MELODY",
              "bassOn": false,
              "chordRootUpperLimit": 6,
              "noteLowLimit": 0,
              "noteHighLimit": 127,
              "rtr": "PITCH_SHIFT"
            },
            "ctb2High": null
          },
          "notes": [
            {
              "pitch": 60,
              "velocity": 45,
              "position": 0,
              "duration": 3.9895833333333335
            }
          ]
        },
        "5": {
          "ctab": {
            "srcChannel": 5,
            "name": "PadRoot",
            "accType": "PAD",
            "editable": true,
            "mutedNotes": [],
            "mutedChords": [
              "1+2+5",
              "sus4",
              "1+5",
              "1+8",
              "Maj7aug",
              "dim",
              "minMaj7(9)",
              "minMaj7",
              "min6",
              "min",
              "aug",
              "Maj7(9)",
              "Maj7#11",
              "Maj7",
              "Maj6",
              "Maj"
            ],
            "autoStart": false,
            "sourceChordNote": 0,
            "sourceChordType": "Maj7",
            "ctb2Low": null,
            "ctb2Main": {
              "ntr": "ROOT_TRANSPOSITION",
              "ntt": "MELODY",
              "bassOn": false,
              "chordRootUpperLimit": 6,
              "noteLowLimit": 0,
              "noteHighLimit": 127,
              "rtr": "PITCH_SHIFT"
            },
            "ctb2High": null
          },
          "notes": [
            {
              "pitch": 60,
              "velocity": 68,
              "position": 0,
              "duration": 3.9895833333333335
            }
          ]
        },
        "8": {
          "ctab": {
            "srcChannel": 8,
            "name": "addDrums",
            "accType": "SUBRHYTHM",
            "editable": false,
            "mutedNotes": [],
            "mutedChords": [],
            "autoStart": true,
            "sourceChordNote": 0,
            "sourceChordType": "Maj7",
            "ctb2Low": null,
            "ctb2Main": {
              "ntr": "ROOT_FIXED",
              "ntt": "BYPASS",
              "bassOn": false,
              "chordRootUpperLimit": 6,
              "noteLowLimit": 0,
              "noteHighLimit": 127,
              "rtr": "PITCH_SHIFT"
            },
            "ctb2High": null
          },
          "notes": [
            {
              "pitch": 84,
              "velocity": 57,
              "position": 0,
              "duration": 3.9895833333333335
            }
          ]
        },
        "9": {
          "ctab": {
            "srcChannel": 9,
            "name": "MainDrum",
            "accType": "RHYTHM",
            "editable": false,
            "mutedNotes": [],
            "mutedChords": [],
            "autoStart": true,
            "sourceChordNote": 0,
            "sourceChordType": "Maj7",
            "ctb2Low": null,
            "ctb2Main": {
              "ntr": "ROOT_FIXED",
              "ntt": "BYPASS",
              "bassOn": false,
              "chordRootUpperLimit": 6,
              "noteLowLimit": 0,
              "noteHighLimit": 127,
              "rtr": "PITCH_SHIFT"
            },
            "ctb2High": null
          },
          "notes": [
            {
              "pitch": 42,
              "velocity": 42,
              "position": 0,
              "duration": 0.010416666666666666
            },
            {
              "pitch": 33,
              "velocity": 59,
              "position": 0,
              "duration": 0.020833333333333332
            }
          ]
        },
        "10": {
          "ctab": {
            "srcChannel": 10,
            "name": "Bass",
            "accType": "BASS",
            "editable": false,
            "mutedNotes": [],
            "mutedChords": [],
            "autoStart": false,
            "sourceChordNote": 0,
            "sourceChordType": "Maj7",
            "ctb2Low": null,
            "ctb2Main": {
              "ntr": "ROOT_TRANSPOSITION",
              "ntt": "MELODY",
              "bassOn": true,
              "chordRootUpperLimit": 3,
              "noteLowLimit": 28,
              "noteHighLimit": 39,
              "rtr": "PITCH_SHIFT_TO_ROOT"
            },
            "ctb2High": null
          },
          "notes": [
            {
              "pitch": 24,
              "velocity": 88,
              "position": 0,
              "duration": 3.9895833333333335
            }
          ]
        },
        "11": {
          "ctab": {
            "srcChannel": 11,
            "name": "Ep",
            "accType": "CHORD1",
            "editable": false,
            "mutedNotes": [],
            "mutedChords": [],
            "autoStart": false,
            "sourceChordNote": 0,
            "sourceChordType": "Maj7",
            "ctb2Low": null,
            "ctb2Main": {
              "ntr": "ROOT_FIXED",
              "ntt": "CHORD",
              "bassOn": false,
              "chordRootUpperLimit": 7,
              "noteLowLimit": 50,
              "noteHighLimit": 127,
              "rtr": "PITCH_SHIFT"
            },
            "ctb2High": null
          },
          "notes": [
            {
              "pitch": 55,
              "velocity": 47,
              "position": 0,
              "duration": 3.9895833333333335
            },
            {
              "pitch": 59,
              "velocity": 47,
              "position": 0,
              "duration": 3.9895833333333335
            },
            {
              "pitch": 64,
              "velocity": 47,
              "position": 0,
              "duration": 3.9895833333333335
            }
          ]
        },
        "12": {
          "ctab": {
            "srcChannel": 12,
            "name": "Nylon",
            "accType": "CHORD2",
            "editable": false,
            "mutedNotes": [],
            "mutedChords": [],
            "autoStart": false,
            "sourceChordNote": 0,
            "sourceChordType": "Maj7",
            "ctb2Low": null,
            "ctb2Main": {
              "ntr": "ROOT_FIXED",
              "ntt": "CHORD",
              "bassOn": false,
              "chordRootUpperLimit": 7,
              "noteLowLimit": 0,
              "noteHighLimit": 127,
              "rtr": "PITCH_SHIFT"
            },
            "ctb2High": null
          },
          "notes": []
        },
        "13": {
          "ctab": {
            "srcChannel": 13,
            "name": "Pad",
            "accType": "PAD",
            "editable": false,
            "mutedNotes": [],
            "mutedChords": [],
            "autoStart": false,
            "sourceChordNote": 0,
            "sourceChordType": "Maj7",
            "ctb2Low": null,
            "ctb2Main": {
              "ntr": "ROOT_FIXED",
              "ntt": "CHORD",
              "bassOn": false,
              "chordRootUpperLimit": 7,
              "noteLowLimit": 0,
              "noteHighLimit": 127,
              "rtr": "PITCH_SHIFT"
            },
            "ctb2High": null
          },
          "notes": [
            {
              "pitch": 55,
              "velocity": 68,
              "position": 0,
              "duration": 3.9895833333333335
            },
            {
              "pitch": 59,
              "velocity": 68,
              "position": 0,
              "duration": 3.9895833333333335
            },
            {
              "pitch": 64,
              "velocity": 68,
              "position": 0,
              "duration": 3.9895833333333335
            }
          ]
        },
        "14": {
          "ctab": {
            "srcChannel": 14,
            "name": "MutedGtr",
            "accType": "PHRASE1",
            "editable": false,
            "mutedNotes": [],
            "mutedChords": [],
            "autoStart": false,
            "sourceChordNote": 0,
            "sourceChordType": "Maj7",
            "ctb2Low": null,
            "ctb2Main": {
              "ntr": "ROOT_FIXED",
              "ntt": "CHORD",
              "bassOn": false,
              "chordRootUpperLimit": 5,
              "noteLowLimit": 52,
              "noteHighLimit": 127,
              "rtr": "PITCH_SHIFT"
            },
            "ctb2High": null
          },
          "notes": []
        },
        "15": {
          "ctab": {
            "srcChannel": 15,
            "name": "Pad2",
            "accType": "PHRASE2",
            "editable": false,
            "mutedNotes": [],
            "mutedChords": [],
            "autoStart": false,
            "sourceChordNote": 0,
            "sourceChordType": "Maj7",
            "ctb2Low": null,
            "ctb2Main": {
              "ntr": "ROOT_FIXED",
              "ntt": "CHORD",
              "bassOn": false,
              "chordRootUpperLimit": 7,
              "noteLowLimit": 0,
              "noteHighLimit": 127,
              "rtr": "PITCH_SHIFT"
            },
            "ctb2High": null
          },
          "notes": []
        }
      }
    },
    "Ending_B": {
      "type": "Ending_B",
      "sizeInBeats": 8,
      "channels": {
        "0": {
          "ctab": {
            "srcChannel": 0,
            "name": "CC_Crash",
            "accType": "SUBRHYTHM",
            "editable": false,
            "mutedNotes": [],
            "mutedChords": [
              "1+2+5",
              "sus4",
              "1+5",
              "1+8",
              "7aug",
              "Maj7aug",
              "7(#9)",
              "7(b13)",
              "7(b9)",
              "7(13)",
              "7#11",
              "7(9)",
              "7b5",
              "7sus4",
              "7th",
              "dim7",
              "dim",
              "minMaj7(9)",
              "minMaj7",
              "min7(11)",
              "min7(9)",
              "min(9)",
              "m7b5",
              "min7",
              "min6",
              "min",
              "aug",
              "Maj6(9)",
              "Maj7(9)",
              "Maj(9)",
              "Maj7#11",
              "Maj7",
              "Maj6",
              "Maj"
            ],
            "autoStart": true,
            "sourceChordNote": 0,
            "sourceChordType": "Maj",
            "ctb2Low": null,
            "ctb2Main": {
              "ntr": "ROOT_FIXED",
              "ntt": "BYPASS",
              "bassOn": false,
              "chordRootUpperLimit": 0,
              "noteLowLimit": 0,
              "noteHighLimit": 127,
              "rtr": "RETRIGGER"
            },
            "ctb2High": null
          },
          "notes": []
        },
        "3": {
          "ctab": {
            "srcChannel": 3,
            "name": "EpRoot",
            "accType": "CHORD1",
            "editable": false,
            "mutedNotes": [],
            "mutedChords": [
              "1+2+5",
              "sus4",
              "1+5",
              "1+8",
              "Maj7aug",
              "dim",
              "minMaj7(9)",
              "minMaj7",
              "min6",
              "min",
              "aug",
              "Maj7(9)",
              "Maj7#11",
              "Maj7",
              "Maj6",
              "Maj"
            ],
            "autoStart": false,
            "sourceChordNote": 0,
            "sourceChordType": "Maj7",
            "ctb2Low": null,
            "ctb2Main": {
              "ntr": "ROOT_TRANSPOSITION",
              "ntt": "MELODY",
              "bassOn": false,
              "chordRootUpperLimit": 6,
              "noteLowLimit": 0,
              "noteHighLimit": 127,
              "rtr": "PITCH_SHIFT"
            },
            "ctb2High": null
          },
          "notes": [
            {
              "pitch": 60,
              "velocity": 48,
              "position": 0,
              "duration": 0.6875
            },
            {
              "pitch": 60,
              "velocity": 52,
              "position": 0.75,
              "duration": 0.13541666666666666
            },
            {
              "pitch": 60,
              "velocity": 46,
              "position": 2.25,
              "duration": 0.11458333333333333
            },
            {
              "pitch": 60,
              "velocity": 40,
              "position": 3,
              "duration": 0.11458333333333333
            },
            {
              "pitch": 60,
              "velocity": 49,
              "position": 3.90625,
              "duration": 4.083333333333333
            }
          ]
        },
        "5": {
          "ctab": {
            "srcChannel": 5,
            "name": "PadRoot",
            "accType": "PAD",
            "editable": true,
            "mutedNotes": [],
            "mutedChords": [
              "1+2+5",
              "sus4",
              "1+5",
              "1+8",
              "Maj7aug",
              "dim",
              "minMaj7(9)",
              "minMaj7",
              "min6",
              "min",
              "aug",
              "Maj7(9)",
              "Maj7#11",
              "Maj7",
              "Maj6",
              "Maj"
            ],
            "autoStart": false,
            "sourceChordNote": 0,
            "sourceChordType": "Maj7",
            "ctb2Low": null,
            "ctb2Main": {
              "ntr": "ROOT_TRANSPOSITION",
              "ntt": "MELODY",
              "bassOn": false,
              "chordRootUpperLimit": 6,
              "noteLowLimit": 0,
              "noteHighLimit": 127,
              "rtr": "PITCH_SHIFT"
            },
            "ctb2High": null
          },
          "notes": [
            {
              "pitch": 60,
              "velocity": 68,
              "position": 0.010416666666666666,
              "duration": 7.979166666666667
            }
          ]
        },
        "8": {
          "ctab": {
            "srcChannel": 8,
            "name": "addDrums",
            "accType": "SUBRHYTHM",
            "editable": false,
            "mutedNotes": [],
            "mutedChords": [],
            "autoStart": true,
            "sourceChordNote": 0,
            "sourceChordType": "Maj7",
            "ctb2Low": null,
            "ctb2Main": {
              "ntr": "ROOT_FIXED",
              "ntt": "BYPASS",
              "bassOn": false,
              "chordRootUpperLimit": 6,
              "noteLowLimit": 0,
              "noteHighLimit": 127,
              "rtr": "PITCH_SHIFT"
            },
            "ctb2High": null
          },
          "notes": [
            {
              "pitch": 49,
              "velocity": 54,
              "position": 0,
              "duration": 0.010416666666666666
            },
            {
              "pitch": 51,
              "velocity": 67,
              "position": 0,
              "duration": 0.010416666666666666
            },
            {
              "pitch": 82,
              "velocity": 74,
              "position": 0,
              "duration": 0.010416666666666666
            },
            {
              "pitch": 61,
              "velocity": 67,
              "position": 0,
              "duration": 0.19791666666666666
            },
            {
              "pitch": 82,
              "velocity": 59,
              "position": 0.25,
              "duration": 0.010416666666666666
            },
            {
              "pitch": 82,
              "velocity": 49,
              "position": 0.5,
              "duration": 0.010416666666666666
            },
            {
              "pitch": 63,
              "velocity": 114,
              "position": 0.5,
              "duration": 0.11458333333333333
            },
            {
              "pitch": 82,
              "velocity": 95,
              "position": 0.75,
              "duration": 0.010416666666666666
            },
            {
              "pitch": 63,
              "velocity": 79,
              "position": 0.75,
              "duration": 0.15625
            },
            {
              "pitch": 54,
              "velocity": 90,
              "position": 1,
              "duration": 0.010416666666666666
            },
            {
              "pitch": 82,
              "velocity": 71,
              "position": 1,
              "duration": 0.010416666666666666
            },
            {
              "pitch": 62,
              "velocity": 107,
              "position": 1,
              "duration": 0.14583333333333334
            },
            {
              "pitch": 82,
              "velocity": 49,
              "position": 1.25,
              "duration": 0.010416666666666666
            },
            {
              "pitch": 82,
              "velocity": 46,
              "position": 1.5,
              "duration": 0.010416666666666666
            },
            {
              "pitch": 61,
              "velocity": 38,
              "position": 1.5,
              "duration": 0.19791666666666666
            },
            {
              "pitch": 82,
              "velocity": 95,
              "position": 1.75,
              "duration": 0.010416666666666666
            },
            {
              "pitch": 62,
              "velocity": 117,
              "position": 1.75,
              "duration": 0.16666666666666666
            },
            {
              "pitch": 82,
              "velocity": 57,
              "position": 2,
              "duration": 0.010416666666666666
            },
            {
              "pitch": 40,
              "velocity": 95,
              "position": 2.25,
              "duration": 0.010416666666666666
            },
            {
              "pitch": 82,
              "velocity": 46,
              "position": 2.25,
              "duration": 0.010416666666666666
            },
            {
              "pitch": 61,
              "velocity": 29,
              "position": 2.25,
              "duration": 0.22916666666666666
            },
            {
              "pitch": 82,
              "velocity": 51,
              "position": 2.5,
              "duration": 0.010416666666666666
            },
            {
              "pitch": 63,
              "velocity": 107,
              "position": 2.5,
              "duration": 0.11458333333333333
            },
            {
              "pitch": 36,
              "velocity": 39,
              "position": 2.75,
              "duration": 0.010416666666666666
            },
            {
              "pitch": 82,
              "velocity": 95,
              "position": 2.75,
              "duration": 0.010416666666666666
            },
            {
              "pitch": 63,
              "velocity": 90,
              "position": 2.75,
              "duration": 0.13541666666666666
            },
            {
              "pitch": 38,
              "velocity": 114,
              "position": 3,
              "duration": 0.010416666666666666
            },
            {
              "pitch": 54,
              "velocity": 90,
              "position": 3,
              "duration": 0.010416666666666666
            },
            {
              "pitch": 57,
              "velocity": 54,
              "position": 3,
              "duration": 0.010416666666666666
            },
            {
              "pitch": 75,
              "velocity": 100,
              "position": 3,
              "duration": 0.010416666666666666
            },
            {
              "pitch": 82,
              "velocity": 58,
              "position": 3,
              "duration": 0.010416666666666666
            },
            {
              "pitch": 64,
              "velocity": 103,
              "position": 3,
              "duration": 0.17708333333333334
            },
            {
              "pitch": 36,
              "velocity": 61,
              "position": 3.25,
              "duration": 0.010416666666666666
            },
            {
              "pitch": 82,
              "velocity": 52,
              "position": 3.25,
              "duration": 0.010416666666666666
            },
            {
              "pitch": 82,
              "velocity": 51,
              "position": 3.5,
              "duration": 0.010416666666666666
            },
            {
              "pitch": 47,
              "velocity": 93,
              "position": 3.5104166666666665,
              "duration": 0.010416666666666666
            },
            {
              "pitch": 61,
              "velocity": 38,
              "position": 3.5,
              "duration": 0.19791666666666666
            },
            {
              "pitch": 45,
              "velocity": 55,
              "position": 3.7291666666666665,
              "duration": 0.010416666666666666
            },
            {
              "pitch": 51,
              "velocity": 43,
              "position": 3.75,
              "duration": 0.010416666666666666
            },
            {
              "pitch": 82,
              "velocity": 92,
              "position": 3.75,
              "duration": 0.010416666666666666
            },
            {
              "pitch": 43,
              "velocity": 61,
              "position": 3.8125,
              "duration": 0.010416666666666666
            },
            {
              "pitch": 64,
              "velocity": 107,
              "position": 3.75,
              "duration": 0.1875
            },
            {
              "pitch": 41,
              "velocity": 52,
              "position": 3.9375,
              "duration": 0.010416666666666666
            },
            {
              "pitch": 40,
              "velocity": 54,
              "position": 4,
              "duration": 0.010416666666666666
            },
            {
              "pitch": 49,
              "velocity": 51,
              "position": 4,
              "duration": 0.010416666666666666
            },
            {
              "pitch": 51,
              "velocity": 61,
              "position": 4,
              "duration": 0.010416666666666666
            },
            {
              "pitch": 82,
              "velocity": 61,
              "position": 4,
              "duration": 0.010416666666666666
            },
            {
              "pitch": 61,
              "velocity": 67,
              "position": 4,
              "duration": 0.22916666666666666
            }
          ]
        },
        "9": {
          "ctab": {
            "srcChannel": 9,
            "name": "MainDrum",
            "accType": "RHYTHM",
            "editable": false,
            "mutedNotes": [],
            "mutedChords": [],
            "autoStart": true,
            "sourceChordNote": 0,
            "sourceChordType": "Maj7",
            "ctb2Low": null,
            "ctb2Main": {
              "ntr": "ROOT_FIXED",
              "ntt": "BYPASS",
              "bassOn": false,
              "chordRootUpperLimit": 6,
              "noteLowLimit": 0,
              "noteHighLimit": 127,
              "rtr": "PITCH_SHIFT"
            },
            "ctb2High": null
          },
          "notes": [
            {
              "pitch": 33,
              "velocity": 59,
              "position": 0,
              "duration": 0.010416666666666666
            },
            {
              "pitch": 44,
              "velocity": 41,
              "position": 0,
              "duration": 0.010416666666666666
            },
            {
              "pitch": 42,
              "velocity": 24,
              "position": 0.25,
              "duration": 0.010416666666666666
            },
            {
              "pitch": 25,
              "velocity": 81,
              "position": 0.5,
              "duration": 0.010416666666666666
            },
            {
              "pitch": 44,
              "velocity": 32,
              "position": 0.5,
              "duration": 0.010416666666666666
            },
            {
              "pitch": 42,
              "velocity": 19,
              "position": 0.75,
              "duration": 0.010416666666666666
            },
            {
              "pitch": 25,
              "velocity": 97,
              "position": 1,
              "duration": 0.010416666666666666
            },
            {
              "pitch": 44,
              "velocity": 34,
              "position": 1,
              "duration": 0.010416666666666666
            },
            {
              "pitch": 42,
              "velocity": 27,
              "position": 1.25,
              "duration": 0.010416666666666666
            },
            {
              "pitch": 33,
              "velocity": 42,
              "position": 1.5,
              "duration": 0.010416666666666666
            },
            {
              "pitch": 44,
              "velocity": 23,
              "position": 1.5,
              "duration": 0.010416666666666666
            },
            {
              "pitch": 25,
              "velocity": 93,
              "position": 1.75,
              "duration": 0.010416666666666666
            },
            {
              "pitch": 42,
              "velocity": 23,
              "position": 1.75,
              "duration": 0.010416666666666666
            },
            {
              "pitch": 33,
              "velocity": 49,
              "position": 2,
              "duration": 0.010416666666666666
            },
            {
              "pitch": 44,
              "velocity": 35,
              "position": 2,
              "duration": 0.010416666666666666
            },
            {
              "pitch": 42,
              "velocity": 26,
              "position": 2.25,
              "duration": 0.010416666666666666
            },
            {
              "pitch": 44,
              "velocity": 24,
              "position": 2.5,
              "duration": 0.010416666666666666
            },
            {
              "pitch": 42,
              "velocity": 23,
              "position": 2.75,
              "duration": 0.010416666666666666
            },
            {
              "pitch": 44,
              "velocity": 32,
              "position": 3,
              "duration": 0.010416666666666666
            },
            {
              "pitch": 42,
              "velocity": 27,
              "position": 3.25,
              "duration": 0.010416666666666666
            },
            {
              "pitch": 44,
              "velocity": 36,
              "position": 3.5,
              "duration": 0.010416666666666666
            },
            {
              "pitch": 33,
              "velocity": 17,
              "position": 3.75,
              "duration": 0.010416666666666666
            },
            {
              "pitch": 46,
              "velocity": 28,
              "position": 3.75,
              "duration": 0.010416666666666666
            },
            {
              "pitch": 33,
              "velocity": 54,
              "position": 4,
              "duration": 0.010416666666666666
            },
            {
              "pitch": 44,
              "velocity": 27,
              "position": 4,
              "duration": 0.010416666666666666
            }
          ]
        },
        "10": {
          "ctab": {
            "srcChannel": 10,
            "name": "Bass",
            "accType": "BASS",
            "editable": false,
            "mutedNotes": [],
            "mutedChords": [],
            "autoStart": false,
            "sourceChordNote": 0,
            "sourceChordType": "Maj7",
            "ctb2Low": null,
            "ctb2Main": {
              "ntr": "ROOT_TRANSPOSITION",
              "ntt": "MELODY",
              "bassOn": true,
              "chordRootUpperLimit": 3,
              "noteLowLimit": 28,
              "noteHighLimit": 39,
              "rtr": "PITCH_SHIFT_TO_ROOT"
            },
            "ctb2High": null
          },
          "notes": [
            {
              "pitch": 24,
              "velocity": 107,
              "position": 0,
              "duration": 0.6041666666666666
            },
            {
              "pitch": 24,
              "velocity": 107,
              "position": 0.75,
              "duration": 0.4895833333333333
            },
            {
              "pitch": 31,
              "velocity": 87,
              "position": 1.25,
              "duration": 0.23958333333333334
            },
            {
              "pitch": 35,
              "velocity": 93,
              "position": 1.5,
              "duration": 0.23958333333333334
            },
            {
              "pitch": 24,
              "velocity": 104,
              "position": 1.75,
              "duration": 0.6458333333333334
            },
            {
              "pitch": 24,
              "velocity": 99,
              "position": 2.5,
              "duration": 0.2708333333333333
            },
            {
              "pitch": 24,
              "velocity": 104,
              "position": 3,
              "duration": 0.4895833333333333
            },
            {
              "pitch": 31,
              "velocity": 108,
              "position": 3.5,
              "duration": 0.4895833333333333
            },
            {
              "pitch": 24,
              "velocity": 104,
              "position": 4,
              "duration": 3.9895833333333335
            }
          ]
        },
        "11": {
          "ctab": {
            "srcChannel": 11,
            "name": "Ep",
            "accType": "CHORD1",
            "editable": false,
            "mutedNotes": [],
            "mutedChords": [],
            "autoStart": false,
            "sourceChordNote": 0,
            "sourceChordType": "Maj7",
            "ctb2Low": null,
            "ctb2Main": {
              "ntr": "ROOT_FIXED",
              "ntt": "CHORD",
              "bassOn": false,
              "chordRootUpperLimit": 7,
              "noteLowLimit": 50,
              "noteHighLimit": 127,
              "rtr": "PITCH_SHIFT"
            },
            "ctb2High": null
          },
          "notes": [
            {
              "pitch": 55,
              "velocity": 50,
              "position": 0,
              "duration": 0.6875
            },
            {
              "pitch": 59,
              "velocity": 50,
              "position": 0,
              "duration": 0.6875
            },
            {
              "pitch": 64,
              "velocity": 50,
              "position": 0,
              "duration": 0.6875
            },
            {
              "pitch": 55,
              "velocity": 50,
              "position": 0.75,
              "duration": 0.13541666666666666
            },
            {
              "pitch": 59,
              "velocity": 54,
              "position": 0.75,
              "duration": 0.13541666666666666
            },
            {
              "pitch": 64,
              "velocity": 58,
              "position": 0.75,
              "duration": 0.13541666666666666
            },
            {
              "pitch": 55,
              "velocity": 48,
              "position": 2.25,
              "duration": 0.11458333333333333
            },
            {
              "pitch": 59,
              "velocity": 48,
              "position": 2.25,
              "duration": 0.11458333333333333
            },
            {
              "pitch": 64,
              "velocity": 52,
              "position": 2.25,
              "duration": 0.11458333333333333
            },
            {
              "pitch": 55,
              "velocity": 50,
              "position": 3,
              "duration": 0.11458333333333333
            },
            {
              "pitch": 59,
              "velocity": 42,
              "position": 3,
              "duration": 0.11458333333333333
            },
            {
              "pitch": 64,
              "velocity": 64,
              "position": 3,
              "duration": 0.11458333333333333
            },
            {
              "pitch": 55,
              "velocity": 51,
              "position": 3.75,
              "duration": 4.239583333333333
            },
            {
              "pitch": 59,
              "velocity": 51,
              "position": 3.90625,
              "duration": 4.083333333333333
            },
            {
              "pitch": 64,
              "velocity": 46,
              "position": 4,
              "duration": 3.9895833333333335
            }
          ]
        },
        "12": {
          "ctab": {
            "srcChannel": 12,
            "name": "Nylon",
            "accType": "CHORD2",
            "editable": false,
            "mutedNotes": [],
            "mutedChords": [],
            "autoStart": false,
            "sourceChordNote": 0,
            "sourceChordType": "Maj7",
            "ctb2Low": null,
            "ctb2Main": {
              "ntr": "ROOT_FIXED",
              "ntt": "CHORD",
              "bassOn": false,
              "chordRootUpperLimit": 7,
              "noteLowLimit": 0,
              "noteHighLimit": 127,
              "rtr": "PITCH_SHIFT"
            },
            "ctb2High": null
          },
          "notes": [
            {
              "pitch": 59,
              "velocity": 64,
              "position": 0,
              "duration": 0.7395833333333334
            },
            {
              "pitch": 64,
              "velocity": 68,
              "position": 0,
              "duration": 0.7395833333333334
            },
            {
              "pitch": 55,
              "velocity": 67,
              "position": 0,
              "duration": 0.875
            },
            {
              "pitch": 59,
              "velocity": 67,
              "position": 0.75,
              "duration": 0.4895833333333333
            },
            {
              "pitch": 64,
              "velocity": 78,
              "position": 0.75,
              "duration": 0.7395833333333334
            },
            {
              "pitch": 59,
              "velocity": 64,
              "position": 1.25,
              "duration": 0.9895833333333334
            },
            {
              "pitch": 64,
              "velocity": 54,
              "position": 1.5,
              "duration": 1.2395833333333333
            },
            {
              "pitch": 67,
              "velocity": 88,
              "position": 1.75,
              "duration": 1.0833333333333333
            },
            {
              "pitch": 59,
              "velocity": 58,
              "position": 2.25,
              "duration": 0.9895833333333334
            },
            {
              "pitch": 59,
              "velocity": 66,
              "position": 3.25,
              "duration": 0.6354166666666666
            },
            {
              "pitch": 64,
              "velocity": 78,
              "position": 2.75,
              "duration": 1.2395833333333333
            },
            {
              "pitch": 55,
              "velocity": 61,
              "position": 3.75,
              "duration": 3.2708333333333335
            },
            {
              "pitch": 59,
              "velocity": 70,
              "position": 3.8958333333333335,
              "duration": 3.2083333333333335
            },
            {
              "pitch": 64,
              "velocity": 84,
              "position": 4,
              "duration": 3.15625
            }
          ]
        },
        "13": {
          "ctab": {
            "srcChannel": 13,
            "name": "Pad",
            "accType": "PAD",
            "editable": false,
            "mutedNotes": [],
            "mutedChords": [],
            "autoStart": false,
            "sourceChordNote": 0,
            "sourceChordType": "Maj7",
            "ctb2Low": null,
            "ctb2Main": {
              "ntr": "ROOT_FIXED",
              "ntt": "CHORD",
              "bassOn": false,
              "chordRootUpperLimit": 7,
              "noteLowLimit": 0,
              "noteHighLimit": 127,
              "rtr": "PITCH_SHIFT"
            },
            "ctb2High": null
          },
          "notes": [
            {
              "pitch": 55,
              "velocity": 68,
              "position": 0.010416666666666666,
              "duration": 7.979166666666667
            },
            {
              "pitch": 64,
              "velocity": 68,
              "position": 0.010416666666666666,
              "duration": 7.979166666666667
            }
          ]
        },
        "14": {
          "ctab": {
            "srcChannel": 14,
            "name": "MutedGtr",
            "accType": "PHRASE1",
            "editable": false,
            "mutedNotes": [],
            "mutedChords": [],
            "autoStart": false,
            "sourceChordNote": 0,
            "sourceChordType": "Maj7",
            "ctb2Low": null,
            "ctb2Main": {
              "ntr": "ROOT_FIXED",
              "ntt": "CHORD",
              "bassOn": false,
              "chordRootUpperLimit": 5,
              "noteLowLimit": 52,
              "noteHighLimit": 127,
              "rtr": "PITCH_SHIFT"
            },
            "ctb2High": null
          },
          "notes": [
            {
              "pitch": 60,
              "velocity": 89,
              "position": 0,
              "duration": 0.23958333333333334
            },
            {
              "pitch": 60,
              "velocity": 76,
              "position": 0.5,
              "duration": 0.1875
            },
            {
              "pitch": 55,
              "velocity": 55,
              "position": 0.75,
              "duration": 0.14583333333333334
            },
            {
              "pitch": 60,
              "velocity": 59,
              "position": 1,
              "duration": 0.17708333333333334
            },
            {
              "pitch": 60,
              "velocity": 54,
              "position": 1.25,
              "duration": 0.16666666666666666
            },
            {
              "pitch": 60,
              "velocity": 65,
              "position": 1.75,
              "duration": 0.19791666666666666
            },
            {
              "pitch": 60,
              "velocity": 70,
              "position": 2.25,
              "duration": 0.19791666666666666
            },
            {
              "pitch": 55,
              "velocity": 63,
              "position": 2.75,
              "duration": 0.1875
            },
            {
              "pitch": 60,
              "velocity": 35,
              "position": 3,
              "duration": 0.14583333333333334
            },
            {
              "pitch": 60,
              "velocity": 63,
              "position": 3.25,
              "duration": 0.13541666666666666
            },
            {
              "pitch": 60,
              "velocity": 64,
              "position": 3.5,
              "duration": 0.1875
            },
            {
              "pitch": 60,
              "velocity": 85,
              "position": 4,
              "duration": 0.11458333333333333
            }
          ]
        },
        "15": {
          "ctab": {
            "srcChannel": 15,
            "name": "Pad2",
            "accType": "PHRASE2",
            "editable": false,
            "mutedNotes": [],
            "mutedChords": [],
            "autoStart": false,
            "sourceChordNote": 0,
            "sourceChordType": "Maj7",
            "ctb2Low": null,
            "ctb2Main": {
              "ntr": "ROOT_FIXED",
              "ntt": "CHORD",
              "bassOn": false,
              "chordRootUpperLimit": 7,
              "noteLowLimit": 0,
              "noteHighLimit": 127,
              "rtr": "PITCH_SHIFT"
            },
            "ctb2High": null
          },
          "notes": []
        }
      }
    },
    "Fill_In_BA": {
      "type": "Fill_In_BA",
      "sizeInBeats": 4,
      "channels": {
        "0": {
          "ctab": {
            "srcChannel": 0,
            "name": "CC_Crash",
            "accType": "SUBRHYTHM",
            "editable": false,
            "mutedNotes": [],
            "mutedChords": [
              "1+2+5",
              "sus4",
              "1+5",
              "1+8",
              "7aug",
              "Maj7aug",
              "7(#9)",
              "7(b13)",
              "7(b9)",
              "7(13)",
              "7#11",
              "7(9)",
              "7b5",
              "7sus4",
              "7th",
              "dim7",
              "dim",
              "minMaj7(9)",
              "minMaj7",
              "min7(11)",
              "min7(9)",
              "min(9)",
              "m7b5",
              "min7",
              "min6",
              "min",
              "aug",
              "Maj6(9)",
              "Maj7(9)",
              "Maj(9)",
              "Maj7#11",
              "Maj7",
              "Maj6",
              "Maj"
            ],
            "autoStart": true,
            "sourceChordNote": 0,
            "sourceChordType": "Maj",
            "ctb2Low": null,
            "ctb2Main": {
              "ntr": "ROOT_FIXED",
              "ntt": "BYPASS",
              "bassOn": false,
              "chordRootUpperLimit": 0,
              "noteLowLimit": 0,
              "noteHighLimit": 127,
              "rtr": "RETRIGGER"
            },
            "ctb2High": null
          },
          "notes": []
        },
        "3": {
          "ctab": {
            "srcChannel": 3,
            "name": "EpRoot",
            "accType": "CHORD1",
            "editable": false,
            "mutedNotes": [],
            "mutedChords": [
              "1+2+5",
              "sus4",
              "1+5",
              "1+8",
              "Maj7aug",
              "dim",
              "minMaj7(9)",
              "minMaj7",
              "min6",
              "min",
              "aug",
              "Maj7(9)",
              "Maj7#11",
              "Maj7",
              "Maj6",
              "Maj"
            ],
            "autoStart": false,
            "sourceChordNote": 0,
            "sourceChordType": "Maj7",
            "ctb2Low": null,
            "ctb2Main": {
              "ntr": "ROOT_TRANSPOSITION",
              "ntt": "MELODY",
              "bassOn": false,
              "chordRootUpperLimit": 6,
              "noteLowLimit": 0,
              "noteHighLimit": 127,
              "rtr": "PITCH_SHIFT"
            },
            "ctb2High": null
          },
          "notes": [
            {
              "pitch": 60,
              "velocity": 52,
              "position": 0,
              "duration": 0.21875
            },
            {
              "pitch": 60,
              "velocity": 52,
              "position": 0.25,
              "duration": 0.21875
            },
            {
              "pitch": 60,
              "velocity": 45,
              "position": 3,
              "duration": 0.9895833333333334
            }
          ]
        },
        "5": {
          "ctab": {
            "srcChannel": 5,
            "name": "PadRoot",
            "accType": "PAD",
            "editable": true,
            "mutedNotes": [],
            "mutedChords": [
              "1+2+5",
              "sus4",
              "1+5",
              "1+8",
              "Maj7aug",
              "dim",
              "minMaj7(9)",
              "minMaj7",
              "min6",
              "min",
              "aug",
              "Maj7(9)",
              "Maj7#11",
              "Maj7",
              "Maj6",
              "Maj"
            ],
            "autoStart": false,
            "sourceChordNote": 0,
            "sourceChordType": "Maj7",
            "ctb2Low": null,
            "ctb2Main": {
              "ntr": "ROOT_TRANSPOSITION",
              "ntt": "MELODY",
              "bassOn": false,
              "chordRootUpperLimit": 6,
              "noteLowLimit": 0,
              "noteHighLimit": 127,
              "rtr": "PITCH_SHIFT"
            },
            "ctb2High": null
          },
          "notes": [
            {
              "pitch": 60,
              "velocity": 68,
              "position": 0,
              "duration": 0.5
            },
            {
              "pitch": 60,
              "velocity": 68,
              "position": 3,
              "duration": 0.9895833333333334
            }
          ]
        },
        "8": {
          "ctab": {
            "srcChannel": 8,
            "name": "addDrums",
            "accType": "SUBRHYTHM",
            "editable": false,
            "mutedNotes": [],
            "mutedChords": [],
            "autoStart": true,
            "sourceChordNote": 0,
            "sourceChordType": "Maj7",
            "ctb2Low": null,
            "ctb2Main": {
              "ntr": "ROOT_FIXED",
              "ntt": "BYPASS",
              "bassOn": false,
              "chordRootUpperLimit": 6,
              "noteLowLimit": 0,
              "noteHighLimit": 127,
              "rtr": "PITCH_SHIFT"
            },
            "ctb2High": null
          },
          "notes": [
            {
              "pitch": 54,
              "velocity": 90,
              "position": 0,
              "duration": 0.010416666666666666
            },
            {
              "pitch": 57,
              "velocity": 54,
              "position": 0,
              "duration": 0.010416666666666666
            },
            {
              "pitch": 61,
              "velocity": 67,
              "position": 0,
              "duration": 0.010416666666666666
            },
            {
              "pitch": 82,
              "velocity": 61,
              "position": 0,
              "duration": 0.010416666666666666
            },
            {
              "pitch": 62,
              "velocity": 90,
              "position": 0.25,
              "duration": 0.010416666666666666
            },
            {
              "pitch": 82,
              "velocity": 44,
              "position": 0.25,
              "duration": 0.010416666666666666
            },
            {
              "pitch": 82,
              "velocity": 61,
              "position": 1,
              "duration": 0.010416666666666666
            },
            {
              "pitch": 82,
              "velocity": 61,
              "position": 2,
              "duration": 0.010416666666666666
            },
            {
              "pitch": 41,
              "velocity": 91,
              "position": 2.9895833333333335,
              "duration": 0.010416666666666666
            },
            {
              "pitch": 54,
              "velocity": 90,
              "position": 3,
              "duration": 0.010416666666666666
            },
            {
              "pitch": 82,
              "velocity": 71,
              "position": 3,
              "duration": 0.010416666666666666
            },
            {
              "pitch": 43,
              "velocity": 94,
              "position": 3.0104166666666665,
              "duration": 0.010416666666666666
            },
            {
              "pitch": 82,
              "velocity": 58,
              "position": 3.25,
              "duration": 0.010416666666666666
            },
            {
              "pitch": 82,
              "velocity": 59,
              "position": 3.5,
              "duration": 0.010416666666666666
            },
            {
              "pitch": 82,
              "velocity": 79,
              "position": 3.75,
              "duration": 0.010416666666666666
            },
            {
              "pitch": 84,
              "velocity": 57,
              "position": 3,
              "duration": 0.9895833333333334
            },
            {
              "pitch": 57,
              "velocity": 54,
              "position": 3.9895833333333335,
              "duration": 0.010416666666666666
            }
          ]
        },
        "9": {
          "ctab": {
            "srcChannel": 9,
            "name": "MainDrum",
            "accType": "RHYTHM",
            "editable": false,
            "mutedNotes": [],
            "mutedChords": [],
            "autoStart": true,
            "sourceChordNote": 0,
            "sourceChordType": "Maj7",
            "ctb2Low": null,
            "ctb2Main": {
              "ntr": "ROOT_FIXED",
              "ntt": "BYPASS",
              "bassOn": false,
              "chordRootUpperLimit": 6,
              "noteLowLimit": 0,
              "noteHighLimit": 127,
              "rtr": "PITCH_SHIFT"
            },
            "ctb2High": null
          },
          "notes": [
            {
              "pitch": 33,
              "velocity": 54,
              "position": 0,
              "duration": 0.010416666666666666
            },
            {
              "pitch": 44,
              "velocity": 27,
              "position": 0,
              "duration": 0.010416666666666666
            },
            {
              "pitch": 33,
              "velocity": 54,
              "position": 0.25,
              "duration": 0.010416666666666666
            },
            {
              "pitch": 42,
              "velocity": 18,
              "position": 0.25,
              "duration": 0.010416666666666666
            },
            {
              "pitch": 44,
              "velocity": 38,
              "position": 1,
              "duration": 0.010416666666666666
            },
            {
              "pitch": 44,
              "velocity": 38,
              "position": 2,
              "duration": 0.010416666666666666
            },
            {
              "pitch": 44,
              "velocity": 38,
              "position": 3,
              "duration": 0.010416666666666666
            },
            {
              "pitch": 42,
              "velocity": 21,
              "position": 3.25,
              "duration": 0.010416666666666666
            },
            {
              "pitch": 44,
              "velocity": 40,
              "position": 3.5,
              "duration": 0.010416666666666666
            },
            {
              "pitch": 42,
              "velocity": 14,
              "position": 3.75,
              "duration": 0.010416666666666666
            }
          ]
        },
        "10": {
          "ctab": {
            "srcChannel": 10,
            "name": "Bass",
            "accType": "BASS",
            "editable": false,
            "mutedNotes": [],
            "mutedChords": [],
            "autoStart": false,
            "sourceChordNote": 0,
            "sourceChordType": "Maj7",
            "ctb2Low": null,
            "ctb2Main": {
              "ntr": "ROOT_TRANSPOSITION",
              "ntt": "MELODY",
              "bassOn": true,
              "chordRootUpperLimit": 3,
              "noteLowLimit": 28,
              "noteHighLimit": 39,
              "rtr": "PITCH_SHIFT_TO_ROOT"
            },
            "ctb2High": null
          },
          "notes": [
            {
              "pitch": 24,
              "velocity": 107,
              "position": 0,
              "duration": 0.22916666666666666
            },
            {
              "pitch": 24,
              "velocity": 107,
              "position": 0.25,
              "duration": 0.22916666666666666
            },
            {
              "pitch": 24,
              "velocity": 79,
              "position": 2.7083333333333335,
              "duration": 0.2916666666666667
            },
            {
              "pitch": 36,
              "velocity": 91,
              "position": 3,
              "duration": 0.9791666666666666
            }
          ]
        },
        "11": {
          "ctab": {
            "srcChannel": 11,
            "name": "Ep",
            "accType": "CHORD1",
            "editable": false,
            "mutedNotes": [],
            "mutedChords": [],
            "autoStart": false,
            "sourceChordNote": 0,
            "sourceChordType": "Maj7",
            "ctb2Low": null,
            "ctb2Main": {
              "ntr": "ROOT_FIXED",
              "ntt": "CHORD",
              "bassOn": false,
              "chordRootUpperLimit": 7,
              "noteLowLimit": 50,
              "noteHighLimit": 127,
              "rtr": "PITCH_SHIFT"
            },
            "ctb2High": null
          },
          "notes": [
            {
              "pitch": 55,
              "velocity": 54,
              "position": 0,
              "duration": 0.21875
            },
            {
              "pitch": 59,
              "velocity": 54,
              "position": 0,
              "duration": 0.21875
            },
            {
              "pitch": 64,
              "velocity": 54,
              "position": 0,
              "duration": 0.21875
            },
            {
              "pitch": 55,
              "velocity": 54,
              "position": 0.25,
              "duration": 0.21875
            },
            {
              "pitch": 59,
              "velocity": 54,
              "position": 0.25,
              "duration": 0.21875
            },
            {
              "pitch": 64,
              "velocity": 54,
              "position": 0.25,
              "duration": 0.21875
            },
            {
              "pitch": 55,
              "velocity": 47,
              "position": 3,
              "duration": 0.9895833333333334
            },
            {
              "pitch": 59,
              "velocity": 47,
              "position": 3,
              "duration": 0.9895833333333334
            },
            {
              "pitch": 64,
              "velocity": 47,
              "position": 3,
              "duration": 0.9895833333333334
            }
          ]
        },
        "12": {
          "ctab": {
            "srcChannel": 12,
            "name": "Nylon",
            "accType": "CHORD2",
            "editable": false,
            "mutedNotes": [],
            "mutedChords": [],
            "autoStart": false,
            "sourceChordNote": 0,
            "sourceChordType": "Maj7",
            "ctb2Low": null,
            "ctb2Main": {
              "ntr": "ROOT_FIXED",
              "ntt": "CHORD",
              "bassOn": false,
              "chordRootUpperLimit": 7,
              "noteLowLimit": 0,
              "noteHighLimit": 127,
              "rtr": "PITCH_SHIFT"
            },
            "ctb2High": null
          },
          "notes": []
        },
        "13": {
          "ctab": {
            "srcChannel": 13,
            "name": "Pad",
            "accType": "PAD",
            "editable": false,
            "mutedNotes": [],
            "mutedChords": [],
            "autoStart": false,
            "sourceChordNote": 0,
            "sourceChordType": "Maj7",
            "ctb2Low": null,
            "ctb2Main": {
              "ntr": "ROOT_FIXED",
              "ntt": "CHORD",
              "bassOn": false,
              "chordRootUpperLimit": 7,
              "noteLowLimit": 0,
              "noteHighLimit": 127,
              "rtr": "PITCH_SHIFT"
            },
            "ctb2High": null
          },
          "notes": [
            {
              "pitch": 55,
              "velocity": 68,
              "position": 0,
              "duration": 0.5
            },
            {
              "pitch": 59,
              "velocity": 68,
              "position": 0,
              "duration": 0.5
            },
            {
              "pitch": 64,
              "velocity": 68,
              "position": 0,
              "duration": 0.5
            },
            {
              "pitch": 55,
              "velocity": 68,
              "position": 3,
              "duration": 0.9895833333333334
            },
            {
              "pitch": 59,
              "velocity": 68,
              "position": 3,
              "duration": 0.9895833333333334
            },
            {
              "pitch": 64,
              "velocity": 68,
              "position": 3,
              "duration": 0.9895833333333334
            }
          ]
        },
        "14": {
          "ctab": {
            "srcChannel": 14,
            "name": "MutedGtr",
            "accType": "PHRASE1",
            "editable": false,
            "mutedNotes": [],
            "mutedChords": [],
            "autoStart": false,
            "sourceChordNote": 0,
            "sourceChordType": "Maj7",
            "ctb2Low": null,
            "ctb2Main": {
              "ntr": "ROOT_FIXED",
              "ntt": "CHORD",
              "bassOn": false,
              "chordRootUpperLimit": 5,
              "noteLowLimit": 52,
              "noteHighLimit": 127,
              "rtr": "PITCH_SHIFT"
            },
            "ctb2High": null
          },
          "notes": [
            {
              "pitch": 48,
              "velocity": 48,
              "position": 0,
              "duration": 0.20833333333333334
            },
            {
              "pitch": 48,
              "velocity": 42,
              "position": 0.25,
              "duration": 0.07291666666666667
            },
            {
              "pitch": 48,
              "velocity": 76,
              "position": 3,
              "duration": 0.22916666666666666
            },
            {
              "pitch": 48,
              "velocity": 77,
              "position": 3.5,
              "duration": 0.010416666666666666
            }
          ]
        },
        "15": {
          "ctab": {
            "srcChannel": 15,
            "name": "Pad2",
            "accType": "PHRASE2",
            "editable": false,
            "mutedNotes": [],
            "mutedChords": [],
            "autoStart": false,
            "sourceChordNote": 0,
            "sourceChordType": "Maj7",
            "ctb2Low": null,
            "ctb2Main": {
              "ntr": "ROOT_FIXED",
              "ntt": "CHORD",
              "bassOn": false,
              "chordRootUpperLimit": 7,
              "noteLowLimit": 0,
              "noteHighLimit": 127,
              "rtr": "PITCH_SHIFT"
            },
            "ctb2High": null
          },
          "notes": []
        }
      }
    },
    "Intro_B": {
      "type": "Intro_B",
      "sizeInBeats": 8,
      "channels": {
        "2": {
          "ctab": {
            "srcChannel": 2,
            "name": "Bass",
            "accType": "BASS",
            "editable": false,
            "mutedNotes": [],
            "mutedChords": [
              "1+2+5",
              "sus4",
              "1+5",
              "1+8",
              "7aug",
              "Maj7aug",
              "7(#9)",
              "7(b13)",
              "7(b9)",
              "7(13)",
              "7#11",
              "7(9)",
              "7b5",
              "7sus4",
              "7th",
              "aug",
              "Maj6(9)",
              "Maj7(9)",
              "Maj(9)",
              "Maj7#11",
              "Maj7",
              "Maj6",
              "Maj"
            ],
            "autoStart": false,
            "sourceChordNote": 0,
            "sourceChordType": "min",
            "ctb2Low": null,
            "ctb2Main": {
              "ntr": "ROOT_TRANSPOSITION",
              "ntt": "BYPASS",
              "bassOn": false,
              "chordRootUpperLimit": 3,
              "noteLowLimit": 28,
              "noteHighLimit": 127,
              "rtr": "PITCH_SHIFT"
            },
            "ctb2High": null
          },
          "notes": [
            {
              "pitch": 24,
              "velocity": 53,
              "position": 6.708333333333333,
              "duration": 0.2916666666666667
            },
            {
              "pitch": 36,
              "velocity": 90,
              "position": 7,
              "duration": 0.9791666666666666
            }
          ]
        },
        "3": {
          "ctab": {
            "srcChannel": 3,
            "name": "Ep",
            "accType": "CHORD1",
            "editable": false,
            "mutedNotes": [],
            "mutedChords": [
              "1+2+5",
              "sus4",
              "1+5",
              "1+8",
              "7aug",
              "Maj7aug",
              "7(#9)",
              "7(b13)",
              "7(b9)",
              "7(13)",
              "7#11",
              "7(9)",
              "7b5",
              "7sus4",
              "7th",
              "aug",
              "Maj6(9)",
              "Maj7(9)",
              "Maj(9)",
              "Maj7#11",
              "Maj7",
              "Maj6",
              "Maj"
            ],
            "autoStart": false,
            "sourceChordNote": 0,
            "sourceChordType": "min",
            "ctb2Low": null,
            "ctb2Main": {
              "ntr": "ROOT_TRANSPOSITION",
              "ntt": "BYPASS",
              "bassOn": false,
              "chordRootUpperLimit": 8,
              "noteLowLimit": 0,
              "noteHighLimit": 127,
              "rtr": "PITCH_SHIFT"
            },
            "ctb2High": null
          },
          "notes": [
            {
              "pitch": 62,
              "velocity": 56,
              "position": 0,
              "duration": 0.7395833333333334
            },
            {
              "pitch": 55,
              "velocity": 45,
              "position": 0,
              "duration": 1.4895833333333333
            },
            {
              "pitch": 60,
              "velocity": 54,
              "position": 0,
              "duration": 1.4895833333333333
            },
            {
              "pitch": 63,
              "velocity": 60,
              "position": 0.75,
              "duration": 0.7395833333333334
            },
            {
              "pitch": 48,
              "velocity": 51,
              "position": 0,
              "duration": 3.9895833333333335
            },
            {
              "pitch": 60,
              "velocity": 38,
              "position": 1.5,
              "duration": 2.4895833333333335
            },
            {
              "pitch": 63,
              "velocity": 46,
              "position": 1.5,
              "duration": 2.4895833333333335
            },
            {
              "pitch": 67,
              "velocity": 41,
              "position": 1.5,
              "duration": 2.4895833333333335
            },
            {
              "pitch": 70,
              "velocity": 54,
              "position": 1.5,
              "duration": 2.4895833333333335
            },
            {
              "pitch": 44,
              "velocity": 45,
              "position": 4,
              "duration": 1.9895833333333333
            },
            {
              "pitch": 60,
              "velocity": 42,
              "position": 4,
              "duration": 1.9895833333333333
            },
            {
              "pitch": 63,
              "velocity": 44,
              "position": 4,
              "duration": 1.9895833333333333
            },
            {
              "pitch": 67,
              "velocity": 53,
              "position": 4,
              "duration": 1.9895833333333333
            },
            {
              "pitch": 43,
              "velocity": 42,
              "position": 6,
              "duration": 1.9895833333333333
            },
            {
              "pitch": 59,
              "velocity": 46,
              "position": 6,
              "duration": 1.9895833333333333
            },
            {
              "pitch": 63,
              "velocity": 51,
              "position": 6,
              "duration": 1.9895833333333333
            },
            {
              "pitch": 67,
              "velocity": 52,
              "position": 6,
              "duration": 1.9895833333333333
            }
          ]
        },
        "4": {
          "ctab": {
            "srcChannel": 4,
            "name": "Nylon",
            "accType": "CHORD2",
            "editable": false,
            "mutedNotes": [],
            "mutedChords": [
              "1+2+5",
              "sus4",
              "1+5",
              "1+8",
              "7aug",
              "Maj7aug",
              "7(#9)",
              "7(b13)",
              "7(b9)",
              "7(13)",
              "7#11",
              "7(9)",
              "7b5",
              "7sus4",
              "7th",
              "aug",
              "Maj6(9)",
              "Maj7(9)",
              "Maj(9)",
              "Maj7#11",
              "Maj7",
              "Maj6",
              "Maj"
            ],
            "autoStart": false,
            "sourceChordNote": 0,
            "sourceChordType": "min",
            "ctb2Low": null,
            "ctb2Main": {
              "ntr": "ROOT_TRANSPOSITION",
              "ntt": "BYPASS",
              "bassOn": false,
              "chordRootUpperLimit": 6,
              "noteLowLimit": 0,
              "noteHighLimit": 127,
              "rtr": "PITCH_SHIFT"
            },
            "ctb2High": null
          },
          "notes": [
            {
              "pitch": 62,
              "velocity": 90,
              "position": 0.020833333333333332,
              "duration": 0.7395833333333334
            },
            {
              "pitch": 63,
              "velocity": 90,
              "position": 0.7708333333333334,
              "duration": 0.5208333333333334
            },
            {
              "pitch": 62,
              "velocity": 57,
              "position": 1.3020833333333333,
              "duration": 2.6666666666666665
            },
            {
              "pitch": 63,
              "velocity": 69,
              "position": 1.40625,
              "duration": 2.5625
            },
            {
              "pitch": 70,
              "velocity": 80,
              "position": 1.59375,
              "duration": 2.375
            },
            {
              "pitch": 67,
              "velocity": 74,
              "position": 1.5208333333333333,
              "duration": 2.4583333333333335
            },
            {
              "pitch": 67,
              "velocity": 96,
              "position": 3.9895833333333335,
              "duration": 1.78125
            },
            {
              "pitch": 65,
              "velocity": 73,
              "position": 5.78125,
              "duration": 0.13541666666666666
            },
            {
              "pitch": 67,
              "velocity": 54,
              "position": 5.927083333333333,
              "duration": 0.041666666666666664
            },
            {
              "pitch": 65,
              "velocity": 79,
              "position": 5.989583333333333,
              "duration": 1.6770833333333333
            }
          ]
        },
        "5": {
          "ctab": {
            "srcChannel": 5,
            "name": "Pad",
            "accType": "PAD",
            "editable": false,
            "mutedNotes": [],
            "mutedChords": [
              "1+2+5",
              "sus4",
              "1+5",
              "1+8",
              "7aug",
              "Maj7aug",
              "7(#9)",
              "7(b13)",
              "7(b9)",
              "7(13)",
              "7#11",
              "7(9)",
              "7b5",
              "7sus4",
              "7th",
              "aug",
              "Maj6(9)",
              "Maj7(9)",
              "Maj(9)",
              "Maj7#11",
              "Maj7",
              "Maj6",
              "Maj"
            ],
            "autoStart": false,
            "sourceChordNote": 0,
            "sourceChordType": "min",
            "ctb2Low": null,
            "ctb2Main": {
              "ntr": "ROOT_TRANSPOSITION",
              "ntt": "BYPASS",
              "bassOn": false,
              "chordRootUpperLimit": 8,
              "noteLowLimit": 0,
              "noteHighLimit": 127,
              "rtr": "PITCH_SHIFT"
            },
            "ctb2High": null
          },
          "notes": [
            {
              "pitch": 60,
              "velocity": 58,
              "position": 0,
              "duration": 5.989583333333333
            },
            {
              "pitch": 59,
              "velocity": 63,
              "position": 6,
              "duration": 1.9895833333333333
            },
            {
              "pitch": 63,
              "velocity": 59,
              "position": 0,
              "duration": 7.989583333333333
            },
            {
              "pitch": 67,
              "velocity": 62,
              "position": 0,
              "duration": 7.989583333333333
            }
          ]
        },
        "6": {
          "ctab": {
            "srcChannel": 6,
            "name": "MutedGtr",
            "accType": "PHRASE1",
            "editable": false,
            "mutedNotes": [],
            "mutedChords": [
              "1+2+5",
              "sus4",
              "1+5",
              "1+8",
              "7aug",
              "Maj7aug",
              "7(#9)",
              "7(b13)",
              "7(b9)",
              "7(13)",
              "7#11",
              "7(9)",
              "7b5",
              "7sus4",
              "7th",
              "aug",
              "Maj6(9)",
              "Maj7(9)",
              "Maj(9)",
              "Maj7#11",
              "Maj7",
              "Maj6",
              "Maj"
            ],
            "autoStart": false,
            "sourceChordNote": 0,
            "sourceChordType": "min",
            "ctb2Low": null,
            "ctb2Main": {
              "ntr": "ROOT_TRANSPOSITION",
              "ntt": "BYPASS",
              "bassOn": false,
              "chordRootUpperLimit": 5,
              "noteLowLimit": 0,
              "noteHighLimit": 127,
              "rtr": "PITCH_SHIFT"
            },
            "ctb2High": null
          },
          "notes": [
            {
              "pitch": 60,
              "velocity": 73,
              "position": 0.75,
              "duration": 0.14583333333333334
            },
            {
              "pitch": 60,
              "velocity": 73,
              "position": 1.25,
              "duration": 0.20833333333333334
            },
            {
              "pitch": 55,
              "velocity": 46,
              "position": 1.5,
              "duration": 0.125
            },
            {
              "pitch": 58,
              "velocity": 51,
              "position": 1.75,
              "duration": 0.15625
            },
            {
              "pitch": 60,
              "velocity": 64,
              "position": 2,
              "duration": 0.19791666666666666
            },
            {
              "pitch": 60,
              "velocity": 62,
              "position": 2.5,
              "duration": 0.16666666666666666
            },
            {
              "pitch": 63,
              "velocity": 79,
              "position": 3,
              "duration": 0.4791666666666667
            },
            {
              "pitch": 60,
              "velocity": 51,
              "position": 3.5,
              "duration": 0.14583333333333334
            }
          ]
        },
        "7": {
          "ctab": {
            "srcChannel": 7,
            "name": "Pad2",
            "accType": "PHRASE2",
            "editable": true,
            "mutedNotes": [],
            "mutedChords": [
              "1+2+5",
              "sus4",
              "1+5",
              "1+8",
              "7aug",
              "Maj7aug",
              "7(#9)",
              "7(b13)",
              "7(b9)",
              "7(13)",
              "7#11",
              "7(9)",
              "7b5",
              "7sus4",
              "7th",
              "aug",
              "Maj6(9)",
              "Maj7(9)",
              "Maj(9)",
              "Maj7#11",
              "Maj7",
              "Maj6",
              "Maj"
            ],
            "autoStart": false,
            "sourceChordNote": 0,
            "sourceChordType": "min",
            "ctb2Low": null,
            "ctb2Main": {
              "ntr": "ROOT_TRANSPOSITION",
              "ntt": "BYPASS",
              "bassOn": false,
              "chordRootUpperLimit": 9,
              "noteLowLimit": 0,
              "noteHighLimit": 127,
              "rtr": "PITCH_SHIFT"
            },
            "ctb2High": null
          },
          "notes": []
        },
        "8": {
          "ctab": {
            "srcChannel": 8,
            "name": "addDrums",
            "accType": "SUBRHYTHM",
            "editable": false,
            "mutedNotes": [],
            "mutedChords": [],
            "autoStart": true,
            "sourceChordNote": 0,
            "sourceChordType": "Maj7",
            "ctb2Low": null,
            "ctb2Main": {
              "ntr": "ROOT_FIXED",
              "ntt": "BYPASS",
              "bassOn": false,
              "chordRootUpperLimit": 6,
              "noteLowLimit": 0,
              "noteHighLimit": 127,
              "rtr": "PITCH_SHIFT"
            },
            "ctb2High": null
          },
          "notes": [
            {
              "pitch": 51,
              "velocity": 57,
              "position": 0,
              "duration": 0.010416666666666666
            },
            {
              "pitch": 82,
              "velocity": 92,
              "position": 0,
              "duration": 0.010416666666666666
            },
            {
              "pitch": 82,
              "velocity": 45,
              "position": 0.25,
              "duration": 0.010416666666666666
            },
            {
              "pitch": 82,
              "velocity": 38,
              "position": 0.5,
              "duration": 0.010416666666666666
            },
            {
              "pitch": 63,
              "velocity": 67,
              "position": 0.5,
              "duration": 0.08333333333333333
            },
            {
              "pitch": 82,
              "velocity": 99,
              "position": 0.75,
              "duration": 0.010416666666666666
            },
            {
              "pitch": 63,
              "velocity": 86,
              "position": 0.75,
              "duration": 0.11458333333333333
            },
            {
              "pitch": 54,
              "velocity": 90,
              "position": 1,
              "duration": 0.010416666666666666
            },
            {
              "pitch": 82,
              "velocity": 84,
              "position": 1,
              "duration": 0.010416666666666666
            },
            {
              "pitch": 62,
              "velocity": 107,
              "position": 1,
              "duration": 0.15625
            },
            {
              "pitch": 82,
              "velocity": 52,
              "position": 1.25,
              "duration": 0.010416666666666666
            },
            {
              "pitch": 82,
              "velocity": 37,
              "position": 1.5,
              "duration": 0.010416666666666666
            },
            {
              "pitch": 61,
              "velocity": 40,
              "position": 1.5,
              "duration": 0.22916666666666666
            },
            {
              "pitch": 82,
              "velocity": 99,
              "position": 1.75,
              "duration": 0.010416666666666666
            },
            {
              "pitch": 62,
              "velocity": 117,
              "position": 1.75,
              "duration": 0.17708333333333334
            },
            {
              "pitch": 82,
              "velocity": 74,
              "position": 2,
              "duration": 0.010416666666666666
            },
            {
              "pitch": 82,
              "velocity": 49,
              "position": 2.25,
              "duration": 0.010416666666666666
            },
            {
              "pitch": 61,
              "velocity": 29,
              "position": 2.25,
              "duration": 0.25
            },
            {
              "pitch": 82,
              "velocity": 45,
              "position": 2.5,
              "duration": 0.010416666666666666
            },
            {
              "pitch": 63,
              "velocity": 92,
              "position": 2.5,
              "duration": 0.11458333333333333
            },
            {
              "pitch": 82,
              "velocity": 92,
              "position": 2.75,
              "duration": 0.010416666666666666
            },
            {
              "pitch": 63,
              "velocity": 84,
              "position": 2.75,
              "duration": 0.125
            },
            {
              "pitch": 54,
              "velocity": 90,
              "position": 3,
              "duration": 0.010416666666666666
            },
            {
              "pitch": 82,
              "velocity": 76,
              "position": 3,
              "duration": 0.010416666666666666
            },
            {
              "pitch": 64,
              "velocity": 103,
              "position": 3,
              "duration": 0.1875
            },
            {
              "pitch": 82,
              "velocity": 54,
              "position": 3.25,
              "duration": 0.010416666666666666
            },
            {
              "pitch": 82,
              "velocity": 48,
              "position": 3.5,
              "duration": 0.010416666666666666
            },
            {
              "pitch": 61,
              "velocity": 29,
              "position": 3.5,
              "duration": 0.19791666666666666
            },
            {
              "pitch": 49,
              "velocity": 14,
              "position": 3.75,
              "duration": 0.010416666666666666
            },
            {
              "pitch": 51,
              "velocity": 48,
              "position": 3.75,
              "duration": 0.010416666666666666
            },
            {
              "pitch": 82,
              "velocity": 92,
              "position": 3.75,
              "duration": 0.010416666666666666
            },
            {
              "pitch": 64,
              "velocity": 103,
              "position": 3.75,
              "duration": 0.1875
            },
            {
              "pitch": 51,
              "velocity": 57,
              "position": 4,
              "duration": 0.010416666666666666
            },
            {
              "pitch": 57,
              "velocity": 44,
              "position": 4,
              "duration": 0.010416666666666666
            },
            {
              "pitch": 82,
              "velocity": 88,
              "position": 4,
              "duration": 0.010416666666666666
            },
            {
              "pitch": 82,
              "velocity": 61,
              "position": 4.25,
              "duration": 0.010416666666666666
            },
            {
              "pitch": 61,
              "velocity": 44,
              "position": 4,
              "duration": 0.2916666666666667
            },
            {
              "pitch": 82,
              "velocity": 49,
              "position": 4.5,
              "duration": 0.010416666666666666
            },
            {
              "pitch": 63,
              "velocity": 99,
              "position": 4.5,
              "duration": 0.10416666666666667
            },
            {
              "pitch": 82,
              "velocity": 103,
              "position": 4.75,
              "duration": 0.010416666666666666
            },
            {
              "pitch": 63,
              "velocity": 99,
              "position": 4.75,
              "duration": 0.13541666666666666
            },
            {
              "pitch": 54,
              "velocity": 90,
              "position": 5,
              "duration": 0.010416666666666666
            },
            {
              "pitch": 82,
              "velocity": 76,
              "position": 5,
              "duration": 0.010416666666666666
            },
            {
              "pitch": 62,
              "velocity": 117,
              "position": 5,
              "duration": 0.14583333333333334
            },
            {
              "pitch": 82,
              "velocity": 61,
              "position": 5.25,
              "duration": 0.010416666666666666
            },
            {
              "pitch": 82,
              "velocity": 46,
              "position": 5.5,
              "duration": 0.010416666666666666
            },
            {
              "pitch": 61,
              "velocity": 29,
              "position": 5.5,
              "duration": 0.19791666666666666
            },
            {
              "pitch": 82,
              "velocity": 90,
              "position": 5.75,
              "duration": 0.010416666666666666
            },
            {
              "pitch": 62,
              "velocity": 123,
              "position": 5.75,
              "duration": 0.17708333333333334
            },
            {
              "pitch": 82,
              "velocity": 71,
              "position": 6,
              "duration": 0.010416666666666666
            },
            {
              "pitch": 82,
              "velocity": 54,
              "position": 6.25,
              "duration": 0.010416666666666666
            },
            {
              "pitch": 61,
              "velocity": 29,
              "position": 6.25,
              "duration": 0.22916666666666666
            },
            {
              "pitch": 82,
              "velocity": 48,
              "position": 6.5,
              "duration": 0.010416666666666666
            },
            {
              "pitch": 63,
              "velocity": 111,
              "position": 6.5,
              "duration": 0.11458333333333333
            },
            {
              "pitch": 82,
              "velocity": 95,
              "position": 6.75,
              "duration": 0.010416666666666666
            },
            {
              "pitch": 63,
              "velocity": 95,
              "position": 6.75,
              "duration": 0.11458333333333333
            },
            {
              "pitch": 54,
              "velocity": 90,
              "position": 7,
              "duration": 0.010416666666666666
            },
            {
              "pitch": 82,
              "velocity": 71,
              "position": 7,
              "duration": 0.010416666666666666
            },
            {
              "pitch": 64,
              "velocity": 107,
              "position": 7,
              "duration": 0.14583333333333334
            },
            {
              "pitch": 82,
              "velocity": 57,
              "position": 7.25,
              "duration": 0.010416666666666666
            },
            {
              "pitch": 82,
              "velocity": 52,
              "position": 7.5,
              "duration": 0.010416666666666666
            },
            {
              "pitch": 61,
              "velocity": 31,
              "position": 7.5,
              "duration": 0.17708333333333334
            },
            {
              "pitch": 82,
              "velocity": 92,
              "position": 7.75,
              "duration": 0.010416666666666666
            },
            {
              "pitch": 64,
              "velocity": 117,
              "position": 7.75,
              "duration": 0.16666666666666666
            },
            {
              "pitch": 84,
              "velocity": 63,
              "position": 4.010416666666667,
              "duration": 3.9375
            }
          ]
        },
        "9": {
          "ctab": {
            "srcChannel": 9,
            "name": "MainDrum",
            "accType": "RHYTHM",
            "editable": false,
            "mutedNotes": [],
            "mutedChords": [],
            "autoStart": true,
            "sourceChordNote": 0,
            "sourceChordType": "Maj7",
            "ctb2Low": null,
            "ctb2Main": {
              "ntr": "ROOT_FIXED",
              "ntt": "BYPASS",
              "bassOn": false,
              "chordRootUpperLimit": 6,
              "noteLowLimit": 0,
              "noteHighLimit": 127,
              "rtr": "PITCH_SHIFT"
            },
            "ctb2High": null
          },
          "notes": [
            {
              "pitch": 42,
              "velocity": 45,
              "position": 0,
              "duration": 0.010416666666666666
            },
            {
              "pitch": 44,
              "velocity": 52,
              "position": 0.25,
              "duration": 0.010416666666666666
            },
            {
              "pitch": 42,
              "velocity": 25,
              "position": 0.5,
              "duration": 0.010416666666666666
            },
            {
              "pitch": 44,
              "velocity": 33,
              "position": 0.75,
              "duration": 0.010416666666666666
            },
            {
              "pitch": 42,
              "velocity": 24,
              "position": 1,
              "duration": 0.010416666666666666
            },
            {
              "pitch": 44,
              "velocity": 41,
              "position": 1.25,
              "duration": 0.010416666666666666
            },
            {
              "pitch": 42,
              "velocity": 21,
              "position": 1.5,
              "duration": 0.010416666666666666
            },
            {
              "pitch": 44,
              "velocity": 33,
              "position": 1.5,
              "duration": 0.010416666666666666
            },
            {
              "pitch": 42,
              "velocity": 23,
              "position": 1.75,
              "duration": 0.010416666666666666
            },
            {
              "pitch": 44,
              "velocity": 38,
              "position": 2,
              "duration": 0.010416666666666666
            },
            {
              "pitch": 42,
              "velocity": 18,
              "position": 2.25,
              "duration": 0.010416666666666666
            },
            {
              "pitch": 44,
              "velocity": 30,
              "position": 2.5,
              "duration": 0.010416666666666666
            },
            {
              "pitch": 42,
              "velocity": 23,
              "position": 2.75,
              "duration": 0.010416666666666666
            },
            {
              "pitch": 44,
              "velocity": 34,
              "position": 3,
              "duration": 0.010416666666666666
            },
            {
              "pitch": 42,
              "velocity": 22,
              "position": 3.25,
              "duration": 0.010416666666666666
            },
            {
              "pitch": 44,
              "velocity": 34,
              "position": 3.5,
              "duration": 0.010416666666666666
            },
            {
              "pitch": 46,
              "velocity": 29,
              "position": 3.75,
              "duration": 0.010416666666666666
            },
            {
              "pitch": 44,
              "velocity": 27,
              "position": 4,
              "duration": 0.010416666666666666
            },
            {
              "pitch": 42,
              "velocity": 24,
              "position": 4.25,
              "duration": 0.010416666666666666
            },
            {
              "pitch": 44,
              "velocity": 28,
              "position": 4.5,
              "duration": 0.010416666666666666
            },
            {
              "pitch": 42,
              "velocity": 27,
              "position": 4.75,
              "duration": 0.010416666666666666
            },
            {
              "pitch": 44,
              "velocity": 40,
              "position": 5,
              "duration": 0.010416666666666666
            },
            {
              "pitch": 42,
              "velocity": 22,
              "position": 5.25,
              "duration": 0.010416666666666666
            },
            {
              "pitch": 44,
              "velocity": 26,
              "position": 5.5,
              "duration": 0.010416666666666666
            },
            {
              "pitch": 42,
              "velocity": 17,
              "position": 5.75,
              "duration": 0.010416666666666666
            },
            {
              "pitch": 44,
              "velocity": 31,
              "position": 6,
              "duration": 0.010416666666666666
            },
            {
              "pitch": 25,
              "velocity": 84,
              "position": 6.25,
              "duration": 0.010416666666666666
            },
            {
              "pitch": 42,
              "velocity": 19,
              "position": 6.25,
              "duration": 0.010416666666666666
            },
            {
              "pitch": 44,
              "velocity": 35,
              "position": 6.5,
              "duration": 0.010416666666666666
            },
            {
              "pitch": 42,
              "velocity": 23,
              "position": 6.75,
              "duration": 0.010416666666666666
            },
            {
              "pitch": 25,
              "velocity": 93,
              "position": 7,
              "duration": 0.010416666666666666
            },
            {
              "pitch": 44,
              "velocity": 35,
              "position": 7,
              "duration": 0.010416666666666666
            },
            {
              "pitch": 42,
              "velocity": 23,
              "position": 7.25,
              "duration": 0.010416666666666666
            },
            {
              "pitch": 25,
              "velocity": 102,
              "position": 7.5,
              "duration": 0.010416666666666666
            },
            {
              "pitch": 44,
              "velocity": 33,
              "position": 7.5,
              "duration": 0.010416666666666666
            },
            {
              "pitch": 42,
              "velocity": 18,
              "position": 7.75,
              "duration": 0.010416666666666666
            }
          ]
        },
        "10": {
          "ctab": {
            "srcChannel": 10,
            "name": "Bass",
            "accType": "BASS",
            "editable": false,
            "mutedNotes": [],
            "mutedChords": [
              "dim7",
              "dim",
              "minMaj7(9)",
              "minMaj7",
              "min7(11)",
              "min7(9)",
              "min(9)",
              "m7b5",
              "min7",
              "min6",
              "min"
            ],
            "autoStart": false,
            "sourceChordNote": 0,
            "sourceChordType": "Maj",
            "ctb2Low": null,
            "ctb2Main": {
              "ntr": "ROOT_TRANSPOSITION",
              "ntt": "BYPASS",
              "bassOn": false,
              "chordRootUpperLimit": 3,
              "noteLowLimit": 28,
              "noteHighLimit": 127,
              "rtr": "PITCH_SHIFT"
            },
            "ctb2High": null
          },
          "notes": [
            {
              "pitch": 24,
              "velocity": 79,
              "position": 6.708333333333333,
              "duration": 0.2916666666666667
            },
            {
              "pitch": 36,
              "velocity": 91,
              "position": 7,
              "duration": 0.9791666666666666
            }
          ]
        },
        "11": {
          "ctab": {
            "srcChannel": 11,
            "name": "Ep",
            "accType": "CHORD1",
            "editable": false,
            "mutedNotes": [],
            "mutedChords": [
              "dim7",
              "dim",
              "minMaj7(9)",
              "minMaj7",
              "min7(11)",
              "min7(9)",
              "min(9)",
              "m7b5",
              "min7",
              "min6",
              "min"
            ],
            "autoStart": false,
            "sourceChordNote": 0,
            "sourceChordType": "Maj",
            "ctb2Low": null,
            "ctb2Main": {
              "ntr": "ROOT_TRANSPOSITION",
              "ntt": "BYPASS",
              "bassOn": false,
              "chordRootUpperLimit": 8,
              "noteLowLimit": 0,
              "noteHighLimit": 127,
              "rtr": "PITCH_SHIFT"
            },
            "ctb2High": null
          },
          "notes": [
            {
              "pitch": 62,
              "velocity": 55,
              "position": 0,
              "duration": 0.7395833333333334
            },
            {
              "pitch": 64,
              "velocity": 55,
              "position": 0.75,
              "duration": 0.7395833333333334
            },
            {
              "pitch": 60,
              "velocity": 51,
              "position": 0,
              "duration": 2.4895833333333335
            },
            {
              "pitch": 48,
              "velocity": 51,
              "position": 0,
              "duration": 3.9895833333333335
            },
            {
              "pitch": 55,
              "velocity": 51,
              "position": 0,
              "duration": 3.9895833333333335
            },
            {
              "pitch": 60,
              "velocity": 55,
              "position": 2.5,
              "duration": 1.4895833333333333
            },
            {
              "pitch": 67,
              "velocity": 55,
              "position": 1.5,
              "duration": 2.4895833333333335
            },
            {
              "pitch": 53,
              "velocity": 51,
              "position": 4,
              "duration": 1.9895833333333333
            },
            {
              "pitch": 57,
              "velocity": 51,
              "position": 4,
              "duration": 1.9895833333333333
            },
            {
              "pitch": 60,
              "velocity": 55,
              "position": 4,
              "duration": 1.9895833333333333
            },
            {
              "pitch": 43,
              "velocity": 51,
              "position": 4,
              "duration": 3.9895833333333335
            },
            {
              "pitch": 55,
              "velocity": 51,
              "position": 6,
              "duration": 1.9895833333333333
            },
            {
              "pitch": 59,
              "velocity": 51,
              "position": 6,
              "duration": 1.9895833333333333
            },
            {
              "pitch": 62,
              "velocity": 55,
              "position": 6,
              "duration": 1.9895833333333333
            }
          ]
        },
        "12": {
          "ctab": {
            "srcChannel": 12,
            "name": "Nylon",
            "accType": "CHORD2",
            "editable": false,
            "mutedNotes": [],
            "mutedChords": [
              "dim7",
              "dim",
              "minMaj7(9)",
              "minMaj7",
              "min7(11)",
              "min7(9)",
              "min(9)",
              "m7b5",
              "min7",
              "min6",
              "min"
            ],
            "autoStart": false,
            "sourceChordNote": 0,
            "sourceChordType": "Maj",
            "ctb2Low": null,
            "ctb2Main": {
              "ntr": "ROOT_TRANSPOSITION",
              "ntt": "BYPASS",
              "bassOn": false,
              "chordRootUpperLimit": 6,
              "noteLowLimit": 0,
              "noteHighLimit": 127,
              "rtr": "PITCH_SHIFT"
            },
            "ctb2High": null
          },
          "notes": [
            {
              "pitch": 62,
              "velocity": 90,
              "position": 0,
              "duration": 0.7395833333333334
            },
            {
              "pitch": 64,
              "velocity": 82,
              "position": 0.75,
              "duration": 0.7395833333333334
            },
            {
              "pitch": 67,
              "velocity": 75,
              "position": 1.5,
              "duration": 4.197916666666667
            },
            {
              "pitch": 55,
              "velocity": 52,
              "position": 5.71875,
              "duration": 2.2708333333333335
            },
            {
              "pitch": 59,
              "velocity": 56,
              "position": 5.854166666666667,
              "duration": 2.1354166666666665
            }
          ]
        },
        "13": {
          "ctab": {
            "srcChannel": 13,
            "name": "Pad",
            "accType": "PAD",
            "editable": false,
            "mutedNotes": [],
            "mutedChords": [
              "dim7",
              "dim",
              "minMaj7(9)",
              "minMaj7",
              "min7(11)",
              "min7(9)",
              "min(9)",
              "m7b5",
              "min7",
              "min6",
              "min"
            ],
            "autoStart": false,
            "sourceChordNote": 0,
            "sourceChordType": "Maj",
            "ctb2Low": null,
            "ctb2Main": {
              "ntr": "ROOT_TRANSPOSITION",
              "ntt": "BYPASS",
              "bassOn": false,
              "chordRootUpperLimit": 8,
              "noteLowLimit": 0,
              "noteHighLimit": 127,
              "rtr": "PITCH_SHIFT"
            },
            "ctb2High": null
          },
          "notes": [
            {
              "pitch": 55,
              "velocity": 54,
              "position": 0,
              "duration": 3.9166666666666665
            },
            {
              "pitch": 64,
              "velocity": 55,
              "position": 0,
              "duration": 3.9166666666666665
            },
            {
              "pitch": 60,
              "velocity": 59,
              "position": 0,
              "duration": 3.9270833333333335
            },
            {
              "pitch": 60,
              "velocity": 66,
              "position": 3.96875,
              "duration": 1.9166666666666667
            },
            {
              "pitch": 53,
              "velocity": 55,
              "position": 4.010416666666667,
              "duration": 1.9270833333333333
            },
            {
              "pitch": 57,
              "velocity": 69,
              "position": 3.9791666666666665,
              "duration": 2.0208333333333335
            },
            {
              "pitch": 55,
              "velocity": 55,
              "position": 5.979166666666667,
              "duration": 1.8020833333333333
            },
            {
              "pitch": 59,
              "velocity": 62,
              "position": 5.979166666666667,
              "duration": 1.8020833333333333
            },
            {
              "pitch": 62,
              "velocity": 63,
              "position": 5.979166666666667,
              "duration": 1.8229166666666667
            }
          ]
        },
        "14": {
          "ctab": {
            "srcChannel": 14,
            "name": "MutedGtr",
            "accType": "PHRASE1",
            "editable": false,
            "mutedNotes": [],
            "mutedChords": [
              "dim7",
              "dim",
              "minMaj7(9)",
              "minMaj7",
              "min7(11)",
              "min7(9)",
              "min(9)",
              "m7b5",
              "min7",
              "min6",
              "min"
            ],
            "autoStart": false,
            "sourceChordNote": 0,
            "sourceChordType": "Maj",
            "ctb2Low": null,
            "ctb2Main": {
              "ntr": "ROOT_TRANSPOSITION",
              "ntt": "BYPASS",
              "bassOn": false,
              "chordRootUpperLimit": 5,
              "noteLowLimit": 0,
              "noteHighLimit": 127,
              "rtr": "PITCH_SHIFT"
            },
            "ctb2High": null
          },
          "notes": [
            {
              "pitch": 60,
              "velocity": 84,
              "position": 0.75,
              "duration": 0.16666666666666666
            },
            {
              "pitch": 60,
              "velocity": 66,
              "position": 1.25,
              "duration": 0.2604166666666667
            },
            {
              "pitch": 55,
              "velocity": 57,
              "position": 1.5,
              "duration": 0.22916666666666666
            },
            {
              "pitch": 57,
              "velocity": 65,
              "position": 1.75,
              "duration": 0.25
            },
            {
              "pitch": 60,
              "velocity": 77,
              "position": 2,
              "duration": 0.15625
            },
            {
              "pitch": 60,
              "velocity": 58,
              "position": 2.25,
              "duration": 0.23958333333333334
            },
            {
              "pitch": 57,
              "velocity": 60,
              "position": 2.5,
              "duration": 0.3020833333333333
            },
            {
              "pitch": 60,
              "velocity": 52,
              "position": 2.90625,
              "duration": 0.052083333333333336
            },
            {
              "pitch": 62,
              "velocity": 76,
              "position": 3,
              "duration": 0.4895833333333333
            },
            {
              "pitch": 60,
              "velocity": 55,
              "position": 3.5,
              "duration": 0.22916666666666666
            }
          ]
        },
        "15": {
          "ctab": {
            "srcChannel": 15,
            "name": "Pad2",
            "accType": "PHRASE2",
            "editable": false,
            "mutedNotes": [],
            "mutedChords": [
              "dim7",
              "dim",
              "minMaj7(9)",
              "minMaj7",
              "min7(11)",
              "min7(9)",
              "min(9)",
              "m7b5",
              "min7",
              "min6",
              "min"
            ],
            "autoStart": false,
            "sourceChordNote": 0,
            "sourceChordType": "Maj",
            "ctb2Low": null,
            "ctb2Main": {
              "ntr": "ROOT_TRANSPOSITION",
              "ntt": "BYPASS",
              "bassOn": false,
              "chordRootUpperLimit": 9,
              "noteLowLimit": 0,
              "noteHighLimit": 127,
              "rtr": "PITCH_SHIFT"
            },
            "ctb2High": null
          },
          "notes": []
        }
      }
    },
    "Intro_C": {
      "type": "Intro_C",
      "sizeInBeats": 16,
      "channels": {
        "2": {
          "ctab": {
            "srcChannel": 2,
            "name": "Bass",
            "accType": "BASS",
            "editable": false,
            "mutedNotes": [],
            "mutedChords": [
              "1+2+5",
              "sus4",
              "1+5",
              "1+8",
              "7aug",
              "Maj7aug",
              "7(#9)",
              "7(b13)",
              "7(b9)",
              "7(13)",
              "7#11",
              "7(9)",
              "7b5",
              "7sus4",
              "7th",
              "aug",
              "Maj6(9)",
              "Maj7(9)",
              "Maj(9)",
              "Maj7#11",
              "Maj7",
              "Maj6",
              "Maj"
            ],
            "autoStart": false,
            "sourceChordNote": 0,
            "sourceChordType": "min",
            "ctb2Low": null,
            "ctb2Main": {
              "ntr": "ROOT_TRANSPOSITION",
              "ntt": "BYPASS",
              "bassOn": false,
              "chordRootUpperLimit": 3,
              "noteLowLimit": 28,
              "noteHighLimit": 127,
              "rtr": "PITCH_SHIFT"
            },
            "ctb2High": null
          },
          "notes": [
            {
              "pitch": 24,
              "velocity": 101,
              "position": 0,
              "duration": 0.5
            },
            {
              "pitch": 24,
              "velocity": 94,
              "position": 1.75,
              "duration": 0.08333333333333333
            },
            {
              "pitch": 24,
              "velocity": 101,
              "position": 2,
              "duration": 0.3958333333333333
            },
            {
              "pitch": 24,
              "velocity": 96,
              "position": 4,
              "duration": 0.375
            },
            {
              "pitch": 24,
              "velocity": 89,
              "position": 4.75,
              "duration": 0.40625
            },
            {
              "pitch": 22,
              "velocity": 85,
              "position": 6.5,
              "duration": 0.23958333333333334
            },
            {
              "pitch": 22,
              "velocity": 88,
              "position": 7,
              "duration": 0.23958333333333334
            },
            {
              "pitch": 24,
              "velocity": 69,
              "position": 7.25,
              "duration": 0.23958333333333334
            },
            {
              "pitch": 19,
              "velocity": 75,
              "position": 7.5,
              "duration": 0.4791666666666667
            },
            {
              "pitch": 24,
              "velocity": 101,
              "position": 8,
              "duration": 0.40625
            },
            {
              "pitch": 24,
              "velocity": 94,
              "position": 9.75,
              "duration": 0.07291666666666667
            },
            {
              "pitch": 24,
              "velocity": 101,
              "position": 10,
              "duration": 0.3958333333333333
            },
            {
              "pitch": 24,
              "velocity": 101,
              "position": 12,
              "duration": 0.40625
            },
            {
              "pitch": 24,
              "velocity": 101,
              "position": 12.75,
              "duration": 0.3125
            },
            {
              "pitch": 19,
              "velocity": 98,
              "position": 15,
              "duration": 0.9479166666666666
            }
          ]
        },
        "3": {
          "ctab": {
            "srcChannel": 3,
            "name": "Ep",
            "accType": "CHORD1",
            "editable": false,
            "mutedNotes": [],
            "mutedChords": [
              "1+2+5",
              "sus4",
              "1+5",
              "1+8",
              "7aug",
              "Maj7aug",
              "7(#9)",
              "7(b13)",
              "7(b9)",
              "7(13)",
              "7#11",
              "7(9)",
              "7b5",
              "7sus4",
              "7th",
              "aug",
              "Maj6(9)",
              "Maj7(9)",
              "Maj(9)",
              "Maj7#11",
              "Maj7",
              "Maj6",
              "Maj"
            ],
            "autoStart": false,
            "sourceChordNote": 0,
            "sourceChordType": "min",
            "ctb2Low": null,
            "ctb2Main": {
              "ntr": "ROOT_TRANSPOSITION",
              "ntt": "BYPASS",
              "bassOn": false,
              "chordRootUpperLimit": 8,
              "noteLowLimit": 0,
              "noteHighLimit": 127,
              "rtr": "PITCH_SHIFT"
            },
            "ctb2High": null
          },
          "notes": [
            {
              "pitch": 63,
              "velocity": 56,
              "position": 0.75,
              "duration": 0.19791666666666666
            },
            {
              "pitch": 63,
              "velocity": 51,
              "position": 1.25,
              "duration": 0.7395833333333334
            },
            {
              "pitch": 62,
              "velocity": 45,
              "position": 2,
              "duration": 2
            },
            {
              "pitch": 62,
              "velocity": 59,
              "position": 4.75,
              "duration": 0.25
            },
            {
              "pitch": 62,
              "velocity": 56,
              "position": 5.25,
              "duration": 0.7395833333333334
            },
            {
              "pitch": 60,
              "velocity": 51,
              "position": 6,
              "duration": 2
            },
            {
              "pitch": 55,
              "velocity": 52,
              "position": 10.75,
              "duration": 3.7708333333333335
            },
            {
              "pitch": 58,
              "velocity": 52,
              "position": 11.25,
              "duration": 3.7708333333333335
            },
            {
              "pitch": 62,
              "velocity": 55,
              "position": 12,
              "duration": 3.7708333333333335
            }
          ]
        },
        "4": {
          "ctab": {
            "srcChannel": 4,
            "name": "Nylon",
            "accType": "CHORD2",
            "editable": false,
            "mutedNotes": [],
            "mutedChords": [
              "1+2+5",
              "sus4",
              "1+5",
              "1+8",
              "7aug",
              "Maj7aug",
              "7(#9)",
              "7(b13)",
              "7(b9)",
              "7(13)",
              "7#11",
              "7(9)",
              "7b5",
              "7sus4",
              "7th",
              "aug",
              "Maj6(9)",
              "Maj7(9)",
              "Maj(9)",
              "Maj7#11",
              "Maj7",
              "Maj6",
              "Maj"
            ],
            "autoStart": false,
            "sourceChordNote": 0,
            "sourceChordType": "min",
            "ctb2Low": null,
            "ctb2Main": {
              "ntr": "ROOT_TRANSPOSITION",
              "ntt": "BYPASS",
              "bassOn": false,
              "chordRootUpperLimit": 6,
              "noteLowLimit": 0,
              "noteHighLimit": 127,
              "rtr": "PITCH_SHIFT"
            },
            "ctb2High": null
          },
          "notes": [
            {
              "pitch": 63,
              "velocity": 86,
              "position": 0.75,
              "duration": 0.25
            },
            {
              "pitch": 72,
              "velocity": 93,
              "position": 0.75,
              "duration": 0.28125
            },
            {
              "pitch": 63,
              "velocity": 87,
              "position": 1.25,
              "duration": 0.5208333333333334
            },
            {
              "pitch": 72,
              "velocity": 87,
              "position": 1.25,
              "duration": 0.53125
            },
            {
              "pitch": 70,
              "velocity": 83,
              "position": 2,
              "duration": 1.8854166666666667
            },
            {
              "pitch": 62,
              "velocity": 76,
              "position": 1.75,
              "duration": 2.1458333333333335
            },
            {
              "pitch": 70,
              "velocity": 83,
              "position": 4.75,
              "duration": 0.25
            },
            {
              "pitch": 62,
              "velocity": 75,
              "position": 4.75,
              "duration": 0.28125
            },
            {
              "pitch": 62,
              "velocity": 82,
              "position": 5.25,
              "duration": 0.3645833333333333
            },
            {
              "pitch": 70,
              "velocity": 85,
              "position": 5.25,
              "duration": 0.5625
            },
            {
              "pitch": 69,
              "velocity": 95,
              "position": 6,
              "duration": 0.9895833333333334
            },
            {
              "pitch": 60,
              "velocity": 72,
              "position": 5.75,
              "duration": 1.7916666666666667
            },
            {
              "pitch": 65,
              "velocity": 93,
              "position": 7,
              "duration": 0.6770833333333334
            },
            {
              "pitch": 60,
              "velocity": 60,
              "position": 7.75,
              "duration": 0.84375
            },
            {
              "pitch": 65,
              "velocity": 77,
              "position": 7.864583333333333,
              "duration": 0.8854166666666666
            },
            {
              "pitch": 67,
              "velocity": 93,
              "position": 8,
              "duration": 1.8125
            },
            {
              "pitch": 60,
              "velocity": 85,
              "position": 8.75,
              "duration": 2.6041666666666665
            }
          ]
        },
        "5": {
          "ctab": {
            "srcChannel": 5,
            "name": "Pad",
            "accType": "PAD",
            "editable": false,
            "mutedNotes": [],
            "mutedChords": [
              "1+2+5",
              "sus4",
              "1+5",
              "1+8",
              "7aug",
              "Maj7aug",
              "7(#9)",
              "7(b13)",
              "7(b9)",
              "7(13)",
              "7#11",
              "7(9)",
              "7b5",
              "7sus4",
              "7th",
              "aug",
              "Maj6(9)",
              "Maj7(9)",
              "Maj(9)",
              "Maj7#11",
              "Maj7",
              "Maj6",
              "Maj"
            ],
            "autoStart": false,
            "sourceChordNote": 0,
            "sourceChordType": "min",
            "ctb2Low": null,
            "ctb2Main": {
              "ntr": "ROOT_TRANSPOSITION",
              "ntt": "BYPASS",
              "bassOn": false,
              "chordRootUpperLimit": 8,
              "noteLowLimit": 0,
              "noteHighLimit": 127,
              "rtr": "PITCH_SHIFT"
            },
            "ctb2High": null
          },
          "notes": [
            {
              "pitch": 60,
              "velocity": 75,
              "position": 0,
              "duration": 3.9895833333333335
            },
            {
              "pitch": 58,
              "velocity": 75,
              "position": 4,
              "duration": 3.9895833333333335
            },
            {
              "pitch": 62,
              "velocity": 75,
              "position": 4,
              "duration": 3.9895833333333335
            },
            {
              "pitch": 60,
              "velocity": 75,
              "position": 8,
              "duration": 3.9895833333333335
            },
            {
              "pitch": 63,
              "velocity": 75,
              "position": 8,
              "duration": 3.9895833333333335
            },
            {
              "pitch": 48,
              "velocity": 75,
              "position": 0,
              "duration": 15.989583333333334
            },
            {
              "pitch": 55,
              "velocity": 75,
              "position": 0,
              "duration": 15.989583333333334
            },
            {
              "pitch": 58,
              "velocity": 75,
              "position": 12,
              "duration": 3.9895833333333335
            },
            {
              "pitch": 62,
              "velocity": 75,
              "position": 12,
              "duration": 3.9895833333333335
            }
          ]
        },
        "6": {
          "ctab": {
            "srcChannel": 6,
            "name": "MutedGtr",
            "accType": "PHRASE1",
            "editable": false,
            "mutedNotes": [],
            "mutedChords": [
              "1+2+5",
              "sus4",
              "1+5",
              "1+8",
              "7aug",
              "Maj7aug",
              "7(#9)",
              "7(b13)",
              "7(b9)",
              "7(13)",
              "7#11",
              "7(9)",
              "7b5",
              "7sus4",
              "7th",
              "aug",
              "Maj6(9)",
              "Maj7(9)",
              "Maj(9)",
              "Maj7#11",
              "Maj7",
              "Maj6",
              "Maj"
            ],
            "autoStart": false,
            "sourceChordNote": 0,
            "sourceChordType": "min",
            "ctb2Low": null,
            "ctb2Main": {
              "ntr": "ROOT_TRANSPOSITION",
              "ntt": "BYPASS",
              "bassOn": false,
              "chordRootUpperLimit": 5,
              "noteLowLimit": 0,
              "noteHighLimit": 127,
              "rtr": "PITCH_SHIFT"
            },
            "ctb2High": null
          },
          "notes": []
        },
        "7": {
          "ctab": {
            "srcChannel": 7,
            "name": "Pad2",
            "accType": "PHRASE2",
            "editable": true,
            "mutedNotes": [],
            "mutedChords": [
              "1+2+5",
              "sus4",
              "1+5",
              "1+8",
              "7aug",
              "Maj7aug",
              "7(#9)",
              "7(b13)",
              "7(b9)",
              "7(13)",
              "7#11",
              "7(9)",
              "7b5",
              "7sus4",
              "7th",
              "aug",
              "Maj6(9)",
              "Maj7(9)",
              "Maj(9)",
              "Maj7#11",
              "Maj7",
              "Maj6",
              "Maj"
            ],
            "autoStart": false,
            "sourceChordNote": 0,
            "sourceChordType": "min",
            "ctb2Low": null,
            "ctb2Main": {
              "ntr": "ROOT_TRANSPOSITION",
              "ntt": "BYPASS",
              "bassOn": false,
              "chordRootUpperLimit": 9,
              "noteLowLimit": 0,
              "noteHighLimit": 127,
              "rtr": "PITCH_SHIFT"
            },
            "ctb2High": null
          },
          "notes": []
        },
        "8": {
          "ctab": {
            "srcChannel": 8,
            "name": "addDrums",
            "accType": "SUBRHYTHM",
            "editable": false,
            "mutedNotes": [],
            "mutedChords": [],
            "autoStart": true,
            "sourceChordNote": 0,
            "sourceChordType": "Maj7",
            "ctb2Low": null,
            "ctb2Main": {
              "ntr": "ROOT_FIXED",
              "ntt": "BYPASS",
              "bassOn": false,
              "chordRootUpperLimit": 6,
              "noteLowLimit": 0,
              "noteHighLimit": 127,
              "rtr": "PITCH_SHIFT"
            },
            "ctb2High": null
          },
          "notes": [
            {
              "pitch": 49,
              "velocity": 51,
              "position": 0,
              "duration": 0.010416666666666666
            },
            {
              "pitch": 51,
              "velocity": 60,
              "position": 0,
              "duration": 0.010416666666666666
            },
            {
              "pitch": 75,
              "velocity": 60,
              "position": 0,
              "duration": 0.010416666666666666
            },
            {
              "pitch": 82,
              "velocity": 92,
              "position": 0,
              "duration": 0.010416666666666666
            },
            {
              "pitch": 82,
              "velocity": 45,
              "position": 0.25,
              "duration": 0.010416666666666666
            },
            {
              "pitch": 82,
              "velocity": 38,
              "position": 0.5,
              "duration": 0.010416666666666666
            },
            {
              "pitch": 75,
              "velocity": 60,
              "position": 0.75,
              "duration": 0.010416666666666666
            },
            {
              "pitch": 82,
              "velocity": 99,
              "position": 0.75,
              "duration": 0.010416666666666666
            },
            {
              "pitch": 51,
              "velocity": 54,
              "position": 1,
              "duration": 0.010416666666666666
            },
            {
              "pitch": 82,
              "velocity": 84,
              "position": 1,
              "duration": 0.010416666666666666
            },
            {
              "pitch": 82,
              "velocity": 52,
              "position": 1.25,
              "duration": 0.010416666666666666
            },
            {
              "pitch": 75,
              "velocity": 60,
              "position": 1.5,
              "duration": 0.010416666666666666
            },
            {
              "pitch": 82,
              "velocity": 37,
              "position": 1.5,
              "duration": 0.010416666666666666
            },
            {
              "pitch": 82,
              "velocity": 99,
              "position": 1.75,
              "duration": 0.010416666666666666
            },
            {
              "pitch": 51,
              "velocity": 51,
              "position": 2,
              "duration": 0.010416666666666666
            },
            {
              "pitch": 82,
              "velocity": 74,
              "position": 2,
              "duration": 0.010416666666666666
            },
            {
              "pitch": 82,
              "velocity": 49,
              "position": 2.25,
              "duration": 0.010416666666666666
            },
            {
              "pitch": 82,
              "velocity": 45,
              "position": 2.5,
              "duration": 0.010416666666666666
            },
            {
              "pitch": 82,
              "velocity": 92,
              "position": 2.75,
              "duration": 0.010416666666666666
            },
            {
              "pitch": 51,
              "velocity": 56,
              "position": 3,
              "duration": 0.010416666666666666
            },
            {
              "pitch": 82,
              "velocity": 76,
              "position": 3,
              "duration": 0.010416666666666666
            },
            {
              "pitch": 82,
              "velocity": 54,
              "position": 3.25,
              "duration": 0.010416666666666666
            },
            {
              "pitch": 82,
              "velocity": 48,
              "position": 3.5,
              "duration": 0.010416666666666666
            },
            {
              "pitch": 82,
              "velocity": 92,
              "position": 3.75,
              "duration": 0.010416666666666666
            },
            {
              "pitch": 51,
              "velocity": 55,
              "position": 4,
              "duration": 0.010416666666666666
            },
            {
              "pitch": 75,
              "velocity": 60,
              "position": 4,
              "duration": 0.010416666666666666
            },
            {
              "pitch": 82,
              "velocity": 88,
              "position": 4,
              "duration": 0.010416666666666666
            },
            {
              "pitch": 82,
              "velocity": 61,
              "position": 4.25,
              "duration": 0.010416666666666666
            },
            {
              "pitch": 82,
              "velocity": 49,
              "position": 4.5,
              "duration": 0.010416666666666666
            },
            {
              "pitch": 75,
              "velocity": 60,
              "position": 4.75,
              "duration": 0.010416666666666666
            },
            {
              "pitch": 82,
              "velocity": 103,
              "position": 4.75,
              "duration": 0.010416666666666666
            },
            {
              "pitch": 51,
              "velocity": 60,
              "position": 5,
              "duration": 0.010416666666666666
            },
            {
              "pitch": 82,
              "velocity": 76,
              "position": 5,
              "duration": 0.010416666666666666
            },
            {
              "pitch": 82,
              "velocity": 61,
              "position": 5.25,
              "duration": 0.010416666666666666
            },
            {
              "pitch": 75,
              "velocity": 60,
              "position": 5.5,
              "duration": 0.010416666666666666
            },
            {
              "pitch": 82,
              "velocity": 46,
              "position": 5.5,
              "duration": 0.010416666666666666
            },
            {
              "pitch": 82,
              "velocity": 90,
              "position": 5.75,
              "duration": 0.010416666666666666
            },
            {
              "pitch": 51,
              "velocity": 61,
              "position": 6,
              "duration": 0.010416666666666666
            },
            {
              "pitch": 82,
              "velocity": 71,
              "position": 6,
              "duration": 0.010416666666666666
            },
            {
              "pitch": 82,
              "velocity": 54,
              "position": 6.25,
              "duration": 0.010416666666666666
            },
            {
              "pitch": 82,
              "velocity": 48,
              "position": 6.5,
              "duration": 0.010416666666666666
            },
            {
              "pitch": 82,
              "velocity": 95,
              "position": 6.75,
              "duration": 0.010416666666666666
            },
            {
              "pitch": 51,
              "velocity": 60,
              "position": 7,
              "duration": 0.010416666666666666
            },
            {
              "pitch": 82,
              "velocity": 71,
              "position": 7,
              "duration": 0.010416666666666666
            },
            {
              "pitch": 82,
              "velocity": 57,
              "position": 7.25,
              "duration": 0.010416666666666666
            },
            {
              "pitch": 82,
              "velocity": 52,
              "position": 7.5,
              "duration": 0.010416666666666666
            },
            {
              "pitch": 57,
              "velocity": 50,
              "position": 7.75,
              "duration": 0.010416666666666666
            },
            {
              "pitch": 82,
              "velocity": 92,
              "position": 7.75,
              "duration": 0.010416666666666666
            },
            {
              "pitch": 49,
              "velocity": 18,
              "position": 8,
              "duration": 0.010416666666666666
            },
            {
              "pitch": 51,
              "velocity": 59,
              "position": 8,
              "duration": 0.010416666666666666
            },
            {
              "pitch": 75,
              "velocity": 60,
              "position": 8,
              "duration": 0.010416666666666666
            },
            {
              "pitch": 82,
              "velocity": 74,
              "position": 8,
              "duration": 0.010416666666666666
            },
            {
              "pitch": 82,
              "velocity": 59,
              "position": 8.25,
              "duration": 0.010416666666666666
            },
            {
              "pitch": 82,
              "velocity": 49,
              "position": 8.5,
              "duration": 0.010416666666666666
            },
            {
              "pitch": 75,
              "velocity": 60,
              "position": 8.75,
              "duration": 0.010416666666666666
            },
            {
              "pitch": 82,
              "velocity": 95,
              "position": 8.75,
              "duration": 0.010416666666666666
            },
            {
              "pitch": 51,
              "velocity": 44,
              "position": 9,
              "duration": 0.010416666666666666
            },
            {
              "pitch": 82,
              "velocity": 71,
              "position": 9,
              "duration": 0.010416666666666666
            },
            {
              "pitch": 82,
              "velocity": 49,
              "position": 9.25,
              "duration": 0.010416666666666666
            },
            {
              "pitch": 75,
              "velocity": 60,
              "position": 9.5,
              "duration": 0.010416666666666666
            },
            {
              "pitch": 82,
              "velocity": 46,
              "position": 9.5,
              "duration": 0.010416666666666666
            },
            {
              "pitch": 82,
              "velocity": 95,
              "position": 9.75,
              "duration": 0.010416666666666666
            },
            {
              "pitch": 51,
              "velocity": 52,
              "position": 10,
              "duration": 0.010416666666666666
            },
            {
              "pitch": 82,
              "velocity": 57,
              "position": 10,
              "duration": 0.010416666666666666
            },
            {
              "pitch": 82,
              "velocity": 46,
              "position": 10.25,
              "duration": 0.010416666666666666
            },
            {
              "pitch": 82,
              "velocity": 51,
              "position": 10.5,
              "duration": 0.010416666666666666
            },
            {
              "pitch": 82,
              "velocity": 95,
              "position": 10.75,
              "duration": 0.010416666666666666
            },
            {
              "pitch": 51,
              "velocity": 54,
              "position": 11,
              "duration": 0.010416666666666666
            },
            {
              "pitch": 82,
              "velocity": 58,
              "position": 11,
              "duration": 0.010416666666666666
            },
            {
              "pitch": 82,
              "velocity": 52,
              "position": 11.25,
              "duration": 0.010416666666666666
            },
            {
              "pitch": 82,
              "velocity": 51,
              "position": 11.5,
              "duration": 0.010416666666666666
            },
            {
              "pitch": 41,
              "velocity": 49,
              "position": 11.75,
              "duration": 0.010416666666666666
            },
            {
              "pitch": 43,
              "velocity": 55,
              "position": 11.75,
              "duration": 0.010416666666666666
            },
            {
              "pitch": 82,
              "velocity": 92,
              "position": 11.75,
              "duration": 0.010416666666666666
            },
            {
              "pitch": 41,
              "velocity": 120,
              "position": 12,
              "duration": 0.010416666666666666
            },
            {
              "pitch": 43,
              "velocity": 120,
              "position": 12,
              "duration": 0.010416666666666666
            },
            {
              "pitch": 51,
              "velocity": 61,
              "position": 12,
              "duration": 0.010416666666666666
            },
            {
              "pitch": 75,
              "velocity": 60,
              "position": 12,
              "duration": 0.010416666666666666
            },
            {
              "pitch": 82,
              "velocity": 61,
              "position": 12,
              "duration": 0.010416666666666666
            },
            {
              "pitch": 82,
              "velocity": 44,
              "position": 12.25,
              "duration": 0.010416666666666666
            },
            {
              "pitch": 82,
              "velocity": 57,
              "position": 12.5,
              "duration": 0.010416666666666666
            },
            {
              "pitch": 55,
              "velocity": 99,
              "position": 12.75,
              "duration": 0.010416666666666666
            },
            {
              "pitch": 75,
              "velocity": 60,
              "position": 12.75,
              "duration": 0.010416666666666666
            },
            {
              "pitch": 82,
              "velocity": 95,
              "position": 12.75,
              "duration": 0.010416666666666666
            },
            {
              "pitch": 51,
              "velocity": 65,
              "position": 13,
              "duration": 0.010416666666666666
            },
            {
              "pitch": 82,
              "velocity": 57,
              "position": 13,
              "duration": 0.010416666666666666
            },
            {
              "pitch": 82,
              "velocity": 55,
              "position": 13.25,
              "duration": 0.010416666666666666
            },
            {
              "pitch": 75,
              "velocity": 60,
              "position": 13.5,
              "duration": 0.010416666666666666
            },
            {
              "pitch": 82,
              "velocity": 57,
              "position": 13.5,
              "duration": 0.010416666666666666
            },
            {
              "pitch": 41,
              "velocity": 57,
              "position": 13.75,
              "duration": 0.010416666666666666
            },
            {
              "pitch": 82,
              "velocity": 95,
              "position": 13.75,
              "duration": 0.010416666666666666
            },
            {
              "pitch": 45,
              "velocity": 95,
              "position": 14,
              "duration": 0.010416666666666666
            },
            {
              "pitch": 47,
              "velocity": 111,
              "position": 14,
              "duration": 0.010416666666666666
            },
            {
              "pitch": 50,
              "velocity": 120,
              "position": 14,
              "duration": 0.010416666666666666
            },
            {
              "pitch": 51,
              "velocity": 56,
              "position": 14,
              "duration": 0.010416666666666666
            },
            {
              "pitch": 82,
              "velocity": 65,
              "position": 14,
              "duration": 0.010416666666666666
            },
            {
              "pitch": 82,
              "velocity": 55,
              "position": 14.25,
              "duration": 0.010416666666666666
            },
            {
              "pitch": 82,
              "velocity": 46,
              "position": 14.5,
              "duration": 0.010416666666666666
            },
            {
              "pitch": 45,
              "velocity": 103,
              "position": 14.75,
              "duration": 0.010416666666666666
            },
            {
              "pitch": 47,
              "velocity": 99,
              "position": 14.75,
              "duration": 0.010416666666666666
            },
            {
              "pitch": 82,
              "velocity": 95,
              "position": 14.75,
              "duration": 0.010416666666666666
            },
            {
              "pitch": 51,
              "velocity": 60,
              "position": 15,
              "duration": 0.010416666666666666
            },
            {
              "pitch": 82,
              "velocity": 71,
              "position": 15,
              "duration": 0.010416666666666666
            },
            {
              "pitch": 82,
              "velocity": 58,
              "position": 15.25,
              "duration": 0.010416666666666666
            },
            {
              "pitch": 43,
              "velocity": 117,
              "position": 15.5,
              "duration": 0.010416666666666666
            },
            {
              "pitch": 45,
              "velocity": 117,
              "position": 15.5,
              "duration": 0.010416666666666666
            },
            {
              "pitch": 82,
              "velocity": 59,
              "position": 15.5,
              "duration": 0.010416666666666666
            },
            {
              "pitch": 82,
              "velocity": 79,
              "position": 15.75,
              "duration": 0.010416666666666666
            }
          ]
        },
        "9": {
          "ctab": {
            "srcChannel": 9,
            "name": "MainDrum",
            "accType": "RHYTHM",
            "editable": false,
            "mutedNotes": [],
            "mutedChords": [],
            "autoStart": true,
            "sourceChordNote": 0,
            "sourceChordType": "Maj7",
            "ctb2Low": null,
            "ctb2Main": {
              "ntr": "ROOT_FIXED",
              "ntt": "BYPASS",
              "bassOn": false,
              "chordRootUpperLimit": 6,
              "noteLowLimit": 0,
              "noteHighLimit": 127,
              "rtr": "PITCH_SHIFT"
            },
            "ctb2High": null
          },
          "notes": [
            {
              "pitch": 33,
              "velocity": 59,
              "position": 0,
              "duration": 0.010416666666666666
            },
            {
              "pitch": 42,
              "velocity": 48,
              "position": 0,
              "duration": 0.010416666666666666
            },
            {
              "pitch": 44,
              "velocity": 55,
              "position": 0.25,
              "duration": 0.010416666666666666
            },
            {
              "pitch": 42,
              "velocity": 28,
              "position": 0.5,
              "duration": 0.010416666666666666
            },
            {
              "pitch": 44,
              "velocity": 36,
              "position": 0.75,
              "duration": 0.010416666666666666
            },
            {
              "pitch": 42,
              "velocity": 27,
              "position": 1,
              "duration": 0.010416666666666666
            },
            {
              "pitch": 44,
              "velocity": 44,
              "position": 1.25,
              "duration": 0.010416666666666666
            },
            {
              "pitch": 42,
              "velocity": 24,
              "position": 1.5,
              "duration": 0.010416666666666666
            },
            {
              "pitch": 44,
              "velocity": 36,
              "position": 1.5,
              "duration": 0.010416666666666666
            },
            {
              "pitch": 33,
              "velocity": 30,
              "position": 1.75,
              "duration": 0.010416666666666666
            },
            {
              "pitch": 42,
              "velocity": 26,
              "position": 1.75,
              "duration": 0.010416666666666666
            },
            {
              "pitch": 33,
              "velocity": 57,
              "position": 2,
              "duration": 0.010416666666666666
            },
            {
              "pitch": 44,
              "velocity": 41,
              "position": 2,
              "duration": 0.010416666666666666
            },
            {
              "pitch": 42,
              "velocity": 21,
              "position": 2.25,
              "duration": 0.010416666666666666
            },
            {
              "pitch": 44,
              "velocity": 33,
              "position": 2.5,
              "duration": 0.010416666666666666
            },
            {
              "pitch": 42,
              "velocity": 26,
              "position": 2.75,
              "duration": 0.010416666666666666
            },
            {
              "pitch": 44,
              "velocity": 37,
              "position": 3,
              "duration": 0.010416666666666666
            },
            {
              "pitch": 42,
              "velocity": 25,
              "position": 3.25,
              "duration": 0.010416666666666666
            },
            {
              "pitch": 44,
              "velocity": 37,
              "position": 3.5,
              "duration": 0.010416666666666666
            },
            {
              "pitch": 46,
              "velocity": 32,
              "position": 3.75,
              "duration": 0.010416666666666666
            },
            {
              "pitch": 33,
              "velocity": 59,
              "position": 4,
              "duration": 0.010416666666666666
            },
            {
              "pitch": 44,
              "velocity": 30,
              "position": 4,
              "duration": 0.010416666666666666
            },
            {
              "pitch": 42,
              "velocity": 27,
              "position": 4.25,
              "duration": 0.010416666666666666
            },
            {
              "pitch": 44,
              "velocity": 31,
              "position": 4.5,
              "duration": 0.010416666666666666
            },
            {
              "pitch": 42,
              "velocity": 30,
              "position": 4.75,
              "duration": 0.010416666666666666
            },
            {
              "pitch": 44,
              "velocity": 43,
              "position": 5,
              "duration": 0.010416666666666666
            },
            {
              "pitch": 42,
              "velocity": 25,
              "position": 5.25,
              "duration": 0.010416666666666666
            },
            {
              "pitch": 44,
              "velocity": 29,
              "position": 5.5,
              "duration": 0.010416666666666666
            },
            {
              "pitch": 33,
              "velocity": 43,
              "position": 5.75,
              "duration": 0.010416666666666666
            },
            {
              "pitch": 42,
              "velocity": 20,
              "position": 5.75,
              "duration": 0.010416666666666666
            },
            {
              "pitch": 44,
              "velocity": 34,
              "position": 6,
              "duration": 0.010416666666666666
            },
            {
              "pitch": 42,
              "velocity": 22,
              "position": 6.25,
              "duration": 0.010416666666666666
            },
            {
              "pitch": 33,
              "velocity": 48,
              "position": 6.5,
              "duration": 0.010416666666666666
            },
            {
              "pitch": 44,
              "velocity": 38,
              "position": 6.5,
              "duration": 0.010416666666666666
            },
            {
              "pitch": 42,
              "velocity": 26,
              "position": 6.75,
              "duration": 0.010416666666666666
            },
            {
              "pitch": 44,
              "velocity": 38,
              "position": 7,
              "duration": 0.010416666666666666
            },
            {
              "pitch": 42,
              "velocity": 26,
              "position": 7.25,
              "duration": 0.010416666666666666
            },
            {
              "pitch": 44,
              "velocity": 36,
              "position": 7.5,
              "duration": 0.010416666666666666
            },
            {
              "pitch": 42,
              "velocity": 21,
              "position": 7.75,
              "duration": 0.010416666666666666
            },
            {
              "pitch": 33,
              "velocity": 59,
              "position": 8,
              "duration": 0.010416666666666666
            },
            {
              "pitch": 44,
              "velocity": 44,
              "position": 8,
              "duration": 0.010416666666666666
            },
            {
              "pitch": 42,
              "velocity": 27,
              "position": 8.25,
              "duration": 0.010416666666666666
            },
            {
              "pitch": 44,
              "velocity": 35,
              "position": 8.5,
              "duration": 0.010416666666666666
            },
            {
              "pitch": 42,
              "velocity": 22,
              "position": 8.75,
              "duration": 0.010416666666666666
            },
            {
              "pitch": 44,
              "velocity": 37,
              "position": 9,
              "duration": 0.010416666666666666
            },
            {
              "pitch": 42,
              "velocity": 30,
              "position": 9.25,
              "duration": 0.010416666666666666
            },
            {
              "pitch": 44,
              "velocity": 26,
              "position": 9.5,
              "duration": 0.010416666666666666
            },
            {
              "pitch": 33,
              "velocity": 29,
              "position": 9.75,
              "duration": 0.010416666666666666
            },
            {
              "pitch": 42,
              "velocity": 26,
              "position": 9.75,
              "duration": 0.010416666666666666
            },
            {
              "pitch": 33,
              "velocity": 59,
              "position": 10,
              "duration": 0.010416666666666666
            },
            {
              "pitch": 44,
              "velocity": 38,
              "position": 10,
              "duration": 0.010416666666666666
            },
            {
              "pitch": 42,
              "velocity": 29,
              "position": 10.25,
              "duration": 0.010416666666666666
            },
            {
              "pitch": 44,
              "velocity": 27,
              "position": 10.5,
              "duration": 0.010416666666666666
            },
            {
              "pitch": 42,
              "velocity": 26,
              "position": 10.75,
              "duration": 0.010416666666666666
            },
            {
              "pitch": 44,
              "velocity": 35,
              "position": 11,
              "duration": 0.010416666666666666
            },
            {
              "pitch": 42,
              "velocity": 30,
              "position": 11.25,
              "duration": 0.010416666666666666
            },
            {
              "pitch": 44,
              "velocity": 39,
              "position": 11.5,
              "duration": 0.010416666666666666
            },
            {
              "pitch": 46,
              "velocity": 31,
              "position": 11.75,
              "duration": 0.010416666666666666
            },
            {
              "pitch": 33,
              "velocity": 59,
              "position": 12,
              "duration": 0.010416666666666666
            },
            {
              "pitch": 44,
              "velocity": 30,
              "position": 12,
              "duration": 0.010416666666666666
            },
            {
              "pitch": 42,
              "velocity": 21,
              "position": 12.25,
              "duration": 0.010416666666666666
            },
            {
              "pitch": 25,
              "velocity": 46,
              "position": 12.375,
              "duration": 0.010416666666666666
            },
            {
              "pitch": 25,
              "velocity": 48,
              "position": 12.5,
              "duration": 0.010416666666666666
            },
            {
              "pitch": 44,
              "velocity": 36,
              "position": 12.5,
              "duration": 0.010416666666666666
            },
            {
              "pitch": 25,
              "velocity": 55,
              "position": 12.625,
              "duration": 0.010416666666666666
            },
            {
              "pitch": 25,
              "velocity": 102,
              "position": 12.75,
              "duration": 0.010416666666666666
            },
            {
              "pitch": 42,
              "velocity": 26,
              "position": 12.75,
              "duration": 0.010416666666666666
            },
            {
              "pitch": 44,
              "velocity": 43,
              "position": 13,
              "duration": 0.010416666666666666
            },
            {
              "pitch": 42,
              "velocity": 22,
              "position": 13.25,
              "duration": 0.010416666666666666
            },
            {
              "pitch": 25,
              "velocity": 102,
              "position": 13.5,
              "duration": 0.010416666666666666
            },
            {
              "pitch": 44,
              "velocity": 41,
              "position": 13.5,
              "duration": 0.010416666666666666
            },
            {
              "pitch": 33,
              "velocity": 47,
              "position": 13.75,
              "duration": 0.010416666666666666
            },
            {
              "pitch": 42,
              "velocity": 30,
              "position": 13.75,
              "duration": 0.010416666666666666
            },
            {
              "pitch": 44,
              "velocity": 44,
              "position": 14,
              "duration": 0.010416666666666666
            },
            {
              "pitch": 25,
              "velocity": 92,
              "position": 14.25,
              "duration": 0.010416666666666666
            },
            {
              "pitch": 42,
              "velocity": 26,
              "position": 14.25,
              "duration": 0.010416666666666666
            },
            {
              "pitch": 33,
              "velocity": 48,
              "position": 14.5,
              "duration": 0.010416666666666666
            },
            {
              "pitch": 44,
              "velocity": 41,
              "position": 14.5,
              "duration": 0.010416666666666666
            },
            {
              "pitch": 42,
              "velocity": 26,
              "position": 14.75,
              "duration": 0.010416666666666666
            },
            {
              "pitch": 25,
              "velocity": 93,
              "position": 15,
              "duration": 0.010416666666666666
            },
            {
              "pitch": 44,
              "velocity": 41,
              "position": 15,
              "duration": 0.010416666666666666
            },
            {
              "pitch": 42,
              "velocity": 24,
              "position": 15.25,
              "duration": 0.010416666666666666
            },
            {
              "pitch": 25,
              "velocity": 80,
              "position": 15.5,
              "duration": 0.010416666666666666
            },
            {
              "pitch": 44,
              "velocity": 43,
              "position": 15.5,
              "duration": 0.010416666666666666
            },
            {
              "pitch": 42,
              "velocity": 17,
              "position": 15.75,
              "duration": 0.010416666666666666
            }
          ]
        },
        "10": {
          "ctab": {
            "srcChannel": 10,
            "name": "Bass",
            "accType": "BASS",
            "editable": false,
            "mutedNotes": [],
            "mutedChords": [
              "dim7",
              "dim",
              "minMaj7(9)",
              "minMaj7",
              "min7(11)",
              "min7(9)",
              "min(9)",
              "m7b5",
              "min7",
              "min6",
              "min"
            ],
            "autoStart": false,
            "sourceChordNote": 0,
            "sourceChordType": "Maj",
            "ctb2Low": null,
            "ctb2Main": {
              "ntr": "ROOT_TRANSPOSITION",
              "ntt": "BYPASS",
              "bassOn": false,
              "chordRootUpperLimit": 3,
              "noteLowLimit": 28,
              "noteHighLimit": 127,
              "rtr": "PITCH_SHIFT"
            },
            "ctb2High": null
          },
          "notes": [
            {
              "pitch": 29,
              "velocity": 100,
              "position": 12,
              "duration": 1.9895833333333333
            },
            {
              "pitch": 31,
              "velocity": 100,
              "position": 14,
              "duration": 1.9895833333333333
            }
          ]
        },
        "11": {
          "ctab": {
            "srcChannel": 11,
            "name": "Ep",
            "accType": "CHORD1",
            "editable": false,
            "mutedNotes": [],
            "mutedChords": [
              "dim7",
              "dim",
              "minMaj7(9)",
              "minMaj7",
              "min7(11)",
              "min7(9)",
              "min(9)",
              "m7b5",
              "min7",
              "min6",
              "min"
            ],
            "autoStart": false,
            "sourceChordNote": 0,
            "sourceChordType": "Maj",
            "ctb2Low": null,
            "ctb2Main": {
              "ntr": "ROOT_TRANSPOSITION",
              "ntt": "BYPASS",
              "bassOn": false,
              "chordRootUpperLimit": 8,
              "noteLowLimit": 0,
              "noteHighLimit": 127,
              "rtr": "PITCH_SHIFT"
            },
            "ctb2High": null
          },
          "notes": [
            {
              "pitch": 62,
              "velocity": 58,
              "position": 9.75,
              "duration": 0.4895833333333333
            },
            {
              "pitch": 64,
              "velocity": 53,
              "position": 10.25,
              "duration": 1.7395833333333333
            },
            {
              "pitch": 60,
              "velocity": 56,
              "position": 10.75,
              "duration": 1.2395833333333333
            },
            {
              "pitch": 55,
              "velocity": 55,
              "position": 11.25,
              "duration": 0.7395833333333334
            },
            {
              "pitch": 53,
              "velocity": 55,
              "position": 12,
              "duration": 1.9895833333333333
            },
            {
              "pitch": 57,
              "velocity": 55,
              "position": 12,
              "duration": 1.9895833333333333
            },
            {
              "pitch": 60,
              "velocity": 55,
              "position": 12,
              "duration": 1.9895833333333333
            },
            {
              "pitch": 55,
              "velocity": 55,
              "position": 14,
              "duration": 1.9895833333333333
            },
            {
              "pitch": 59,
              "velocity": 55,
              "position": 14,
              "duration": 1.9895833333333333
            },
            {
              "pitch": 62,
              "velocity": 55,
              "position": 14,
              "duration": 1.9895833333333333
            }
          ]
        },
        "12": {
          "ctab": {
            "srcChannel": 12,
            "name": "Nylon",
            "accType": "CHORD2",
            "editable": false,
            "mutedNotes": [],
            "mutedChords": [
              "dim7",
              "dim",
              "minMaj7(9)",
              "minMaj7",
              "min7(11)",
              "min7(9)",
              "min(9)",
              "m7b5",
              "min7",
              "min6",
              "min"
            ],
            "autoStart": false,
            "sourceChordNote": 0,
            "sourceChordType": "Maj",
            "ctb2Low": null,
            "ctb2Main": {
              "ntr": "ROOT_TRANSPOSITION",
              "ntt": "BYPASS",
              "bassOn": false,
              "chordRootUpperLimit": 6,
              "noteLowLimit": 0,
              "noteHighLimit": 127,
              "rtr": "PITCH_SHIFT"
            },
            "ctb2High": null
          },
          "notes": [
            {
              "pitch": 64,
              "velocity": 114,
              "position": 0,
              "duration": 0.7395833333333334
            },
            {
              "pitch": 72,
              "velocity": 106,
              "position": 0,
              "duration": 0.7395833333333334
            },
            {
              "pitch": 71,
              "velocity": 76,
              "position": 0.75,
              "duration": 0.14583333333333334
            },
            {
              "pitch": 62,
              "velocity": 80,
              "position": 0.75,
              "duration": 0.15625
            },
            {
              "pitch": 60,
              "velocity": 72,
              "position": 1.25,
              "duration": 0.4895833333333333
            },
            {
              "pitch": 67,
              "velocity": 80,
              "position": 1.25,
              "duration": 0.4895833333333333
            },
            {
              "pitch": 60,
              "velocity": 75,
              "position": 1.75,
              "duration": 0.8333333333333334
            },
            {
              "pitch": 64,
              "velocity": 82,
              "position": 1.75,
              "duration": 1.0208333333333333
            },
            {
              "pitch": 64,
              "velocity": 104,
              "position": 3,
              "duration": 0.23958333333333334
            },
            {
              "pitch": 65,
              "velocity": 94,
              "position": 3.25,
              "duration": 0.23958333333333334
            },
            {
              "pitch": 60,
              "velocity": 58,
              "position": 2.75,
              "duration": 0.8333333333333334
            },
            {
              "pitch": 67,
              "velocity": 104,
              "position": 3.5,
              "duration": 0.4479166666666667
            },
            {
              "pitch": 60,
              "velocity": 84,
              "position": 3.8541666666666665,
              "duration": 0.17708333333333334
            },
            {
              "pitch": 67,
              "velocity": 98,
              "position": 3.9583333333333335,
              "duration": 0.7708333333333334
            },
            {
              "pitch": 65,
              "velocity": 104,
              "position": 4.75,
              "duration": 0.4895833333333333
            },
            {
              "pitch": 57,
              "velocity": 70,
              "position": 3.7291666666666665,
              "duration": 1.96875
            },
            {
              "pitch": 64,
              "velocity": 104,
              "position": 5.25,
              "duration": 0.4895833333333333
            },
            {
              "pitch": 62,
              "velocity": 96,
              "position": 5.75,
              "duration": 0.9895833333333334
            },
            {
              "pitch": 59,
              "velocity": 69,
              "position": 6.75,
              "duration": 0.4895833333333333
            },
            {
              "pitch": 57,
              "velocity": 80,
              "position": 7.25,
              "duration": 0.4791666666666667
            },
            {
              "pitch": 59,
              "velocity": 59,
              "position": 7.708333333333333,
              "duration": 0.15625
            },
            {
              "pitch": 57,
              "velocity": 57,
              "position": 7.84375,
              "duration": 0.125
            },
            {
              "pitch": 55,
              "velocity": 68,
              "position": 8,
              "duration": 0.8333333333333334
            },
            {
              "pitch": 67,
              "velocity": 80,
              "position": 8.75,
              "duration": 2.71875
            },
            {
              "pitch": 67,
              "velocity": 100,
              "position": 11.75,
              "duration": 2.3125
            }
          ]
        },
        "13": {
          "ctab": {
            "srcChannel": 13,
            "name": "Pad",
            "accType": "PAD",
            "editable": false,
            "mutedNotes": [],
            "mutedChords": [
              "dim7",
              "dim",
              "minMaj7(9)",
              "minMaj7",
              "min7(11)",
              "min7(9)",
              "min(9)",
              "m7b5",
              "min7",
              "min6",
              "min"
            ],
            "autoStart": false,
            "sourceChordNote": 0,
            "sourceChordType": "Maj",
            "ctb2Low": null,
            "ctb2Main": {
              "ntr": "ROOT_TRANSPOSITION",
              "ntt": "BYPASS",
              "bassOn": false,
              "chordRootUpperLimit": 8,
              "noteLowLimit": 0,
              "noteHighLimit": 127,
              "rtr": "PITCH_SHIFT"
            },
            "ctb2High": null
          },
          "notes": [
            {
              "pitch": 48,
              "velocity": 73,
              "position": 0,
              "duration": 3.9895833333333335
            },
            {
              "pitch": 55,
              "velocity": 73,
              "position": 0,
              "duration": 3.9895833333333335
            },
            {
              "pitch": 41,
              "velocity": 73,
              "position": 4,
              "duration": 1.9895833333333333
            },
            {
              "pitch": 53,
              "velocity": 73,
              "position": 4,
              "duration": 1.9895833333333333
            },
            {
              "pitch": 60,
              "velocity": 73,
              "position": 0,
              "duration": 5.989583333333333
            },
            {
              "pitch": 64,
              "velocity": 73,
              "position": 0,
              "duration": 5.989583333333333
            },
            {
              "pitch": 57,
              "velocity": 73,
              "position": 4,
              "duration": 1.9895833333333333
            },
            {
              "pitch": 43,
              "velocity": 73,
              "position": 6,
              "duration": 1.9895833333333333
            },
            {
              "pitch": 55,
              "velocity": 73,
              "position": 6,
              "duration": 1.9895833333333333
            },
            {
              "pitch": 59,
              "velocity": 73,
              "position": 6,
              "duration": 1.9895833333333333
            },
            {
              "pitch": 62,
              "velocity": 73,
              "position": 6,
              "duration": 1.9895833333333333
            },
            {
              "pitch": 48,
              "velocity": 73,
              "position": 8,
              "duration": 3.9895833333333335
            },
            {
              "pitch": 55,
              "velocity": 73,
              "position": 8,
              "duration": 3.9895833333333335
            },
            {
              "pitch": 41,
              "velocity": 73,
              "position": 12,
              "duration": 1.9895833333333333
            },
            {
              "pitch": 53,
              "velocity": 73,
              "position": 12,
              "duration": 1.9895833333333333
            },
            {
              "pitch": 60,
              "velocity": 73,
              "position": 8,
              "duration": 5.989583333333333
            },
            {
              "pitch": 64,
              "velocity": 73,
              "position": 8,
              "duration": 5.989583333333333
            },
            {
              "pitch": 57,
              "velocity": 73,
              "position": 12,
              "duration": 1.9895833333333333
            },
            {
              "pitch": 43,
              "velocity": 73,
              "position": 14,
              "duration": 1.9895833333333333
            },
            {
              "pitch": 55,
              "velocity": 73,
              "position": 14,
              "duration": 1.9895833333333333
            },
            {
              "pitch": 59,
              "velocity": 73,
              "position": 14,
              "duration": 1.9895833333333333
            },
            {
              "pitch": 62,
              "velocity": 73,
              "position": 14,
              "duration": 1.9895833333333333
            }
          ]
        },
        "14": {
          "ctab": {
            "srcChannel": 14,
            "name": "MutedGtr",
            "accType": "PHRASE1",
            "editable": false,
            "mutedNotes": [],
            "mutedChords": [
              "dim7",
              "dim",
              "minMaj7(9)",
              "minMaj7",
              "min7(11)",
              "min7(9)",
              "min(9)",
              "m7b5",
              "min7",
              "min6",
              "min"
            ],
            "autoStart": false,
            "sourceChordNote": 0,
            "sourceChordType": "Maj",
            "ctb2Low": null,
            "ctb2Main": {
              "ntr": "ROOT_TRANSPOSITION",
              "ntt": "BYPASS",
              "bassOn": false,
              "chordRootUpperLimit": 5,
              "noteLowLimit": 0,
              "noteHighLimit": 127,
              "rtr": "PITCH_SHIFT"
            },
            "ctb2High": null
          },
          "notes": []
        },
        "15": {
          "ctab": {
            "srcChannel": 15,
            "name": "Pad2",
            "accType": "PHRASE2",
            "editable": false,
            "mutedNotes": [],
            "mutedChords": [
              "dim7",
              "dim",
              "minMaj7(9)",
              "minMaj7",
              "min7(11)",
              "min7(9)",
              "min(9)",
              "m7b5",
              "min7",
              "min6",
              "min"
            ],
            "autoStart": false,
            "sourceChordNote": 0,
            "sourceChordType": "Maj",
            "ctb2Low": null,
            "ctb2Main": {
              "ntr": "ROOT_TRANSPOSITION",
              "ntt": "BYPASS",
              "bassOn": false,
              "chordRootUpperLimit": 9,
              "noteLowLimit": 0,
              "noteHighLimit": 127,
              "rtr": "PITCH_SHIFT"
            },
            "ctb2High": null
          },
          "notes": []
        }
      }
    },
    "Ending_C": {
      "type": "Ending_C",
      "sizeInBeats": 24,
      "channels": {
        "2": {
          "ctab": {
            "srcChannel": 2,
            "name": "Bass",
            "accType": "BASS",
            "editable": false,
            "mutedNotes": [],
            "mutedChords": [
              "1+2+5",
              "sus4",
              "1+5",
              "1+8",
              "7aug",
              "Maj7aug",
              "7(#9)",
              "7(b13)",
              "7(b9)",
              "7(13)",
              "7#11",
              "7(9)",
              "7b5",
              "7sus4",
              "7th",
              "aug",
              "Maj6(9)",
              "Maj7(9)",
              "Maj(9)",
              "Maj7#11",
              "Maj7",
              "Maj6",
              "Maj"
            ],
            "autoStart": false,
            "sourceChordNote": 0,
            "sourceChordType": "min",
            "ctb2Low": null,
            "ctb2Main": {
              "ntr": "ROOT_TRANSPOSITION",
              "ntt": "BYPASS",
              "bassOn": false,
              "chordRootUpperLimit": 3,
              "noteLowLimit": 28,
              "noteHighLimit": 127,
              "rtr": "PITCH_SHIFT"
            },
            "ctb2High": null
          },
          "notes": [
            {
              "pitch": 24,
              "velocity": 100,
              "position": 0,
              "duration": 0.4166666666666667
            },
            {
              "pitch": 24,
              "velocity": 77,
              "position": 0.5,
              "duration": 0.3333333333333333
            },
            {
              "pitch": 24,
              "velocity": 96,
              "position": 1.75,
              "duration": 0.6041666666666666
            },
            {
              "pitch": 24,
              "velocity": 81,
              "position": 2.5,
              "duration": 0.28125
            },
            {
              "pitch": 19,
              "velocity": 81,
              "position": 3.5,
              "duration": 0.3020833333333333
            },
            {
              "pitch": 22,
              "velocity": 84,
              "position": 3.75,
              "duration": 0.2708333333333333
            },
            {
              "pitch": 24,
              "velocity": 77,
              "position": 4,
              "duration": 0.40625
            },
            {
              "pitch": 24,
              "velocity": 81,
              "position": 4.5,
              "duration": 0.3541666666666667
            },
            {
              "pitch": 24,
              "velocity": 96,
              "position": 5.75,
              "duration": 0.5520833333333334
            },
            {
              "pitch": 24,
              "velocity": 96,
              "position": 6.5,
              "duration": 0.3125
            },
            {
              "pitch": 24,
              "velocity": 86,
              "position": 8,
              "duration": 0.40625
            },
            {
              "pitch": 24,
              "velocity": 86,
              "position": 8.5,
              "duration": 0.3333333333333333
            },
            {
              "pitch": 24,
              "velocity": 102,
              "position": 9.75,
              "duration": 0.5416666666666666
            },
            {
              "pitch": 24,
              "velocity": 100,
              "position": 10.5,
              "duration": 0.25
            },
            {
              "pitch": 19,
              "velocity": 81,
              "position": 11.5,
              "duration": 0.2916666666666667
            },
            {
              "pitch": 22,
              "velocity": 84,
              "position": 11.75,
              "duration": 0.2708333333333333
            },
            {
              "pitch": 24,
              "velocity": 96,
              "position": 12,
              "duration": 0.375
            },
            {
              "pitch": 24,
              "velocity": 86,
              "position": 12.5,
              "duration": 0.2708333333333333
            },
            {
              "pitch": 24,
              "velocity": 96,
              "position": 13.75,
              "duration": 0.6145833333333334
            },
            {
              "pitch": 24,
              "velocity": 79,
              "position": 14.5,
              "duration": 0.5416666666666666
            },
            {
              "pitch": 19,
              "velocity": 81,
              "position": 15,
              "duration": 0.96875
            },
            {
              "pitch": 24,
              "velocity": 89,
              "position": 16,
              "duration": 6.989583333333333
            }
          ]
        },
        "3": {
          "ctab": {
            "srcChannel": 3,
            "name": "Ep",
            "accType": "CHORD1",
            "editable": false,
            "mutedNotes": [],
            "mutedChords": [
              "1+2+5",
              "sus4",
              "1+5",
              "1+8",
              "7aug",
              "Maj7aug",
              "7(#9)",
              "7(b13)",
              "7(b9)",
              "7(13)",
              "7#11",
              "7(9)",
              "7b5",
              "7sus4",
              "7th",
              "aug",
              "Maj6(9)",
              "Maj7(9)",
              "Maj(9)",
              "Maj7#11",
              "Maj7",
              "Maj6",
              "Maj"
            ],
            "autoStart": false,
            "sourceChordNote": 0,
            "sourceChordType": "min",
            "ctb2Low": null,
            "ctb2Main": {
              "ntr": "ROOT_TRANSPOSITION",
              "ntt": "BYPASS",
              "bassOn": false,
              "chordRootUpperLimit": 8,
              "noteLowLimit": 0,
              "noteHighLimit": 127,
              "rtr": "PITCH_SHIFT"
            },
            "ctb2High": null
          },
          "notes": [
            {
              "pitch": 63,
              "velocity": 62,
              "position": 0,
              "duration": 3.9895833333333335
            },
            {
              "pitch": 67,
              "velocity": 62,
              "position": 0,
              "duration": 3.9895833333333335
            },
            {
              "pitch": 62,
              "velocity": 62,
              "position": 4,
              "duration": 3.9895833333333335
            },
            {
              "pitch": 65,
              "velocity": 62,
              "position": 4,
              "duration": 3.9895833333333335
            },
            {
              "pitch": 60,
              "velocity": 62,
              "position": 8,
              "duration": 3.9895833333333335
            },
            {
              "pitch": 63,
              "velocity": 62,
              "position": 8,
              "duration": 3.9895833333333335
            },
            {
              "pitch": 58,
              "velocity": 56,
              "position": 12,
              "duration": 1.9895833333333333
            },
            {
              "pitch": 62,
              "velocity": 56,
              "position": 12,
              "duration": 1.9895833333333333
            },
            {
              "pitch": 60,
              "velocity": 48,
              "position": 14,
              "duration": 0.9895833333333334
            },
            {
              "pitch": 63,
              "velocity": 48,
              "position": 14,
              "duration": 0.9895833333333334
            },
            {
              "pitch": 58,
              "velocity": 41,
              "position": 15,
              "duration": 0.9895833333333334
            },
            {
              "pitch": 62,
              "velocity": 41,
              "position": 15,
              "duration": 0.9895833333333334
            },
            {
              "pitch": 55,
              "velocity": 41,
              "position": 16,
              "duration": 6.989583333333333
            },
            {
              "pitch": 60,
              "velocity": 41,
              "position": 16,
              "duration": 6.989583333333333
            }
          ]
        },
        "4": {
          "ctab": {
            "srcChannel": 4,
            "name": "Nylon",
            "accType": "CHORD2",
            "editable": false,
            "mutedNotes": [],
            "mutedChords": [
              "1+2+5",
              "sus4",
              "1+5",
              "1+8",
              "7aug",
              "Maj7aug",
              "7(#9)",
              "7(b13)",
              "7(b9)",
              "7(13)",
              "7#11",
              "7(9)",
              "7b5",
              "7sus4",
              "7th",
              "aug",
              "Maj6(9)",
              "Maj7(9)",
              "Maj(9)",
              "Maj7#11",
              "Maj7",
              "Maj6",
              "Maj"
            ],
            "autoStart": false,
            "sourceChordNote": 0,
            "sourceChordType": "min",
            "ctb2Low": null,
            "ctb2Main": {
              "ntr": "ROOT_TRANSPOSITION",
              "ntt": "BYPASS",
              "bassOn": false,
              "chordRootUpperLimit": 6,
              "noteLowLimit": 0,
              "noteHighLimit": 127,
              "rtr": "PITCH_SHIFT"
            },
            "ctb2High": null
          },
          "notes": [
            {
              "pitch": 63,
              "velocity": 70,
              "position": 0.75,
              "duration": 0.3125
            },
            {
              "pitch": 67,
              "velocity": 70,
              "position": 0.75,
              "duration": 0.3229166666666667
            },
            {
              "pitch": 67,
              "velocity": 85,
              "position": 1.25,
              "duration": 0.20833333333333334
            },
            {
              "pitch": 63,
              "velocity": 85,
              "position": 1.25,
              "duration": 0.21875
            },
            {
              "pitch": 63,
              "velocity": 69,
              "position": 2,
              "duration": 0.4270833333333333
            },
            {
              "pitch": 67,
              "velocity": 70,
              "position": 2,
              "duration": 0.4479166666666667
            },
            {
              "pitch": 63,
              "velocity": 70,
              "position": 2.5,
              "duration": 0.2604166666666667
            },
            {
              "pitch": 67,
              "velocity": 69,
              "position": 2.5,
              "duration": 0.28125
            },
            {
              "pitch": 62,
              "velocity": 68,
              "position": 4.75,
              "duration": 0.28125
            },
            {
              "pitch": 65,
              "velocity": 79,
              "position": 4.75,
              "duration": 0.2916666666666667
            },
            {
              "pitch": 65,
              "velocity": 83,
              "position": 5.25,
              "duration": 0.25
            },
            {
              "pitch": 62,
              "velocity": 65,
              "position": 5.25,
              "duration": 0.2708333333333333
            },
            {
              "pitch": 65,
              "velocity": 71,
              "position": 6,
              "duration": 1.9583333333333333
            },
            {
              "pitch": 62,
              "velocity": 77,
              "position": 6,
              "duration": 1.9791666666666667
            },
            {
              "pitch": 63,
              "velocity": 65,
              "position": 8.75,
              "duration": 0.2708333333333333
            },
            {
              "pitch": 60,
              "velocity": 69,
              "position": 8.75,
              "duration": 0.3229166666666667
            },
            {
              "pitch": 63,
              "velocity": 74,
              "position": 9.25,
              "duration": 0.28125
            },
            {
              "pitch": 60,
              "velocity": 81,
              "position": 9.25,
              "duration": 0.34375
            },
            {
              "pitch": 60,
              "velocity": 65,
              "position": 10,
              "duration": 0.4166666666666667
            },
            {
              "pitch": 63,
              "velocity": 62,
              "position": 10,
              "duration": 0.4166666666666667
            },
            {
              "pitch": 63,
              "velocity": 69,
              "position": 10.5,
              "duration": 0.3541666666666667
            },
            {
              "pitch": 60,
              "velocity": 74,
              "position": 10.5,
              "duration": 0.4895833333333333
            },
            {
              "pitch": 62,
              "velocity": 79,
              "position": 12.75,
              "duration": 0.2708333333333333
            },
            {
              "pitch": 58,
              "velocity": 67,
              "position": 12.75,
              "duration": 0.2916666666666667
            },
            {
              "pitch": 62,
              "velocity": 72,
              "position": 13.25,
              "duration": 0.28125
            },
            {
              "pitch": 58,
              "velocity": 60,
              "position": 13.25,
              "duration": 0.3645833333333333
            },
            {
              "pitch": 60,
              "velocity": 77,
              "position": 14,
              "duration": 0.9895833333333334
            },
            {
              "pitch": 63,
              "velocity": 69,
              "position": 14,
              "duration": 0.9895833333333334
            },
            {
              "pitch": 58,
              "velocity": 57,
              "position": 15,
              "duration": 0.96875
            },
            {
              "pitch": 62,
              "velocity": 71,
              "position": 15,
              "duration": 0.96875
            },
            {
              "pitch": 72,
              "velocity": 79,
              "position": 16.020833333333332,
              "duration": 6.96875
            },
            {
              "pitch": 60,
              "velocity": 72,
              "position": 15.979166666666666,
              "duration": 8.010416666666666
            }
          ]
        },
        "5": {
          "ctab": {
            "srcChannel": 5,
            "name": "Pad",
            "accType": "PAD",
            "editable": false,
            "mutedNotes": [],
            "mutedChords": [
              "1+2+5",
              "sus4",
              "1+5",
              "1+8",
              "7aug",
              "Maj7aug",
              "7(#9)",
              "7(b13)",
              "7(b9)",
              "7(13)",
              "7#11",
              "7(9)",
              "7b5",
              "7sus4",
              "7th",
              "aug",
              "Maj6(9)",
              "Maj7(9)",
              "Maj(9)",
              "Maj7#11",
              "Maj7",
              "Maj6",
              "Maj"
            ],
            "autoStart": false,
            "sourceChordNote": 0,
            "sourceChordType": "min",
            "ctb2Low": null,
            "ctb2Main": {
              "ntr": "ROOT_TRANSPOSITION",
              "ntt": "BYPASS",
              "bassOn": false,
              "chordRootUpperLimit": 8,
              "noteLowLimit": 0,
              "noteHighLimit": 127,
              "rtr": "PITCH_SHIFT"
            },
            "ctb2High": null
          },
          "notes": [
            {
              "pitch": 60,
              "velocity": 68,
              "position": 0,
              "duration": 3.9895833333333335
            },
            {
              "pitch": 63,
              "velocity": 83,
              "position": 0,
              "duration": 3.9895833333333335
            },
            {
              "pitch": 67,
              "velocity": 87,
              "position": 0,
              "duration": 3.9895833333333335
            },
            {
              "pitch": 55,
              "velocity": 64,
              "position": 0,
              "duration": 7.989583333333333
            },
            {
              "pitch": 58,
              "velocity": 56,
              "position": 4,
              "duration": 3.9895833333333335
            },
            {
              "pitch": 62,
              "velocity": 60,
              "position": 4,
              "duration": 3.9895833333333335
            },
            {
              "pitch": 65,
              "velocity": 56,
              "position": 4,
              "duration": 3.9895833333333335
            },
            {
              "pitch": 60,
              "velocity": 64,
              "position": 8,
              "duration": 3.9895833333333335
            },
            {
              "pitch": 63,
              "velocity": 66,
              "position": 8,
              "duration": 3.9895833333333335
            },
            {
              "pitch": 48,
              "velocity": 73,
              "position": 0,
              "duration": 15.989583333333334
            },
            {
              "pitch": 55,
              "velocity": 55,
              "position": 8,
              "duration": 7.989583333333333
            },
            {
              "pitch": 58,
              "velocity": 62,
              "position": 12,
              "duration": 3.9895833333333335
            },
            {
              "pitch": 62,
              "velocity": 64,
              "position": 12,
              "duration": 3.9895833333333335
            },
            {
              "pitch": 48,
              "velocity": 73,
              "position": 16,
              "duration": 6.989583333333333
            },
            {
              "pitch": 55,
              "velocity": 68,
              "position": 16,
              "duration": 6.989583333333333
            },
            {
              "pitch": 60,
              "velocity": 81,
              "position": 16,
              "duration": 6.989583333333333
            }
          ]
        },
        "6": {
          "ctab": {
            "srcChannel": 6,
            "name": "MutedGtr",
            "accType": "PHRASE1",
            "editable": false,
            "mutedNotes": [],
            "mutedChords": [
              "1+2+5",
              "sus4",
              "1+5",
              "1+8",
              "7aug",
              "Maj7aug",
              "7(#9)",
              "7(b13)",
              "7(b9)",
              "7(13)",
              "7#11",
              "7(9)",
              "7b5",
              "7sus4",
              "7th",
              "aug",
              "Maj6(9)",
              "Maj7(9)",
              "Maj(9)",
              "Maj7#11",
              "Maj7",
              "Maj6",
              "Maj"
            ],
            "autoStart": false,
            "sourceChordNote": 0,
            "sourceChordType": "min",
            "ctb2Low": null,
            "ctb2Main": {
              "ntr": "ROOT_TRANSPOSITION",
              "ntt": "BYPASS",
              "bassOn": false,
              "chordRootUpperLimit": 5,
              "noteLowLimit": 0,
              "noteHighLimit": 127,
              "rtr": "PITCH_SHIFT"
            },
            "ctb2High": null
          },
          "notes": []
        },
        "7": {
          "ctab": {
            "srcChannel": 7,
            "name": "Pad2",
            "accType": "PHRASE2",
            "editable": true,
            "mutedNotes": [],
            "mutedChords": [
              "1+2+5",
              "sus4",
              "1+5",
              "1+8",
              "7aug",
              "Maj7aug",
              "7(#9)",
              "7(b13)",
              "7(b9)",
              "7(13)",
              "7#11",
              "7(9)",
              "7b5",
              "7sus4",
              "7th",
              "aug",
              "Maj6(9)",
              "Maj7(9)",
              "Maj(9)",
              "Maj7#11",
              "Maj7",
              "Maj6",
              "Maj"
            ],
            "autoStart": false,
            "sourceChordNote": 0,
            "sourceChordType": "min",
            "ctb2Low": null,
            "ctb2Main": {
              "ntr": "ROOT_TRANSPOSITION",
              "ntt": "BYPASS",
              "bassOn": false,
              "chordRootUpperLimit": 9,
              "noteLowLimit": 0,
              "noteHighLimit": 127,
              "rtr": "PITCH_SHIFT"
            },
            "ctb2High": null
          },
          "notes": [
            {
              "pitch": 60,
              "velocity": 25,
              "position": 0,
              "duration": 3.9895833333333335
            },
            {
              "pitch": 58,
              "velocity": 25,
              "position": 4,
              "duration": 3.9895833333333335
            },
            {
              "pitch": 55,
              "velocity": 25,
              "position": 8,
              "duration": 3.9895833333333335
            },
            {
              "pitch": 58,
              "velocity": 25,
              "position": 12,
              "duration": 1.9895833333333333
            },
            {
              "pitch": 60,
              "velocity": 25,
              "position": 14,
              "duration": 0.9895833333333334
            },
            {
              "pitch": 58,
              "velocity": 25,
              "position": 15,
              "duration": 0.9895833333333334
            },
            {
              "pitch": 60,
              "velocity": 25,
              "position": 16,
              "duration": 6.989583333333333
            }
          ]
        },
        "8": {
          "ctab": {
            "srcChannel": 8,
            "name": "addDrums",
            "accType": "SUBRHYTHM",
            "editable": false,
            "mutedNotes": [],
            "mutedChords": [],
            "autoStart": true,
            "sourceChordNote": 0,
            "sourceChordType": "Maj7",
            "ctb2Low": null,
            "ctb2Main": {
              "ntr": "ROOT_FIXED",
              "ntt": "BYPASS",
              "bassOn": false,
              "chordRootUpperLimit": 6,
              "noteLowLimit": 0,
              "noteHighLimit": 127,
              "rtr": "PITCH_SHIFT"
            },
            "ctb2High": null
          },
          "notes": [
            {
              "pitch": 27,
              "velocity": 120,
              "position": 0,
              "duration": 0.010416666666666666
            },
            {
              "pitch": 51,
              "velocity": 60,
              "position": 0,
              "duration": 0.010416666666666666
            },
            {
              "pitch": 57,
              "velocity": 54,
              "position": 0,
              "duration": 0.010416666666666666
            },
            {
              "pitch": 61,
              "velocity": 40,
              "position": 0,
              "duration": 0.010416666666666666
            },
            {
              "pitch": 69,
              "velocity": 54,
              "position": 0,
              "duration": 0.010416666666666666
            },
            {
              "pitch": 81,
              "velocity": 33,
              "position": 0,
              "duration": 0.010416666666666666
            },
            {
              "pitch": 82,
              "velocity": 45,
              "position": 0,
              "duration": 0.010416666666666666
            },
            {
              "pitch": 25,
              "velocity": 30,
              "position": 0.25,
              "duration": 0.010416666666666666
            },
            {
              "pitch": 63,
              "velocity": 103,
              "position": 0.25,
              "duration": 0.010416666666666666
            },
            {
              "pitch": 80,
              "velocity": 30,
              "position": 0.25,
              "duration": 0.010416666666666666
            },
            {
              "pitch": 82,
              "velocity": 38,
              "position": 0.25,
              "duration": 0.010416666666666666
            },
            {
              "pitch": 27,
              "velocity": 90,
              "position": 0.5,
              "duration": 0.010416666666666666
            },
            {
              "pitch": 80,
              "velocity": 30,
              "position": 0.5,
              "duration": 0.010416666666666666
            },
            {
              "pitch": 82,
              "velocity": 99,
              "position": 0.5,
              "duration": 0.010416666666666666
            },
            {
              "pitch": 25,
              "velocity": 117,
              "position": 0.75,
              "duration": 0.010416666666666666
            },
            {
              "pitch": 61,
              "velocity": 40,
              "position": 0.75,
              "duration": 0.010416666666666666
            },
            {
              "pitch": 69,
              "velocity": 54,
              "position": 0.75,
              "duration": 0.010416666666666666
            },
            {
              "pitch": 81,
              "velocity": 36,
              "position": 0.75,
              "duration": 0.010416666666666666
            },
            {
              "pitch": 82,
              "velocity": 84,
              "position": 0.75,
              "duration": 0.010416666666666666
            },
            {
              "pitch": 19,
              "velocity": 90,
              "position": 1,
              "duration": 0.010416666666666666
            },
            {
              "pitch": 27,
              "velocity": 42,
              "position": 1,
              "duration": 0.010416666666666666
            },
            {
              "pitch": 40,
              "velocity": 110,
              "position": 1,
              "duration": 0.010416666666666666
            },
            {
              "pitch": 51,
              "velocity": 54,
              "position": 1,
              "duration": 0.010416666666666666
            },
            {
              "pitch": 60,
              "velocity": 92,
              "position": 1,
              "duration": 0.010416666666666666
            },
            {
              "pitch": 80,
              "velocity": 30,
              "position": 1,
              "duration": 0.010416666666666666
            },
            {
              "pitch": 82,
              "velocity": 52,
              "position": 1,
              "duration": 0.010416666666666666
            },
            {
              "pitch": 25,
              "velocity": 58,
              "position": 1.25,
              "duration": 0.010416666666666666
            },
            {
              "pitch": 80,
              "velocity": 36,
              "position": 1.25,
              "duration": 0.010416666666666666
            },
            {
              "pitch": 82,
              "velocity": 37,
              "position": 1.25,
              "duration": 0.010416666666666666
            },
            {
              "pitch": 27,
              "velocity": 117,
              "position": 1.5,
              "duration": 0.010416666666666666
            },
            {
              "pitch": 61,
              "velocity": 36,
              "position": 1.5,
              "duration": 0.010416666666666666
            },
            {
              "pitch": 69,
              "velocity": 57,
              "position": 1.5,
              "duration": 0.010416666666666666
            },
            {
              "pitch": 81,
              "velocity": 41,
              "position": 1.5,
              "duration": 0.010416666666666666
            },
            {
              "pitch": 82,
              "velocity": 99,
              "position": 1.5,
              "duration": 0.010416666666666666
            },
            {
              "pitch": 25,
              "velocity": 54,
              "position": 1.75,
              "duration": 0.010416666666666666
            },
            {
              "pitch": 63,
              "velocity": 107,
              "position": 1.75,
              "duration": 0.010416666666666666
            },
            {
              "pitch": 82,
              "velocity": 74,
              "position": 1.75,
              "duration": 0.010416666666666666
            },
            {
              "pitch": 27,
              "velocity": 48,
              "position": 2,
              "duration": 0.010416666666666666
            },
            {
              "pitch": 51,
              "velocity": 51,
              "position": 2,
              "duration": 0.010416666666666666
            },
            {
              "pitch": 80,
              "velocity": 40,
              "position": 2,
              "duration": 0.010416666666666666
            },
            {
              "pitch": 82,
              "velocity": 49,
              "position": 2,
              "duration": 0.010416666666666666
            },
            {
              "pitch": 25,
              "velocity": 111,
              "position": 2.25,
              "duration": 0.010416666666666666
            },
            {
              "pitch": 62,
              "velocity": 99,
              "position": 2.25,
              "duration": 0.010416666666666666
            },
            {
              "pitch": 81,
              "velocity": 39,
              "position": 2.25,
              "duration": 0.010416666666666666
            },
            {
              "pitch": 82,
              "velocity": 45,
              "position": 2.25,
              "duration": 0.010416666666666666
            },
            {
              "pitch": 27,
              "velocity": 46,
              "position": 2.5,
              "duration": 0.010416666666666666
            },
            {
              "pitch": 60,
              "velocity": 29,
              "position": 2.5,
              "duration": 0.010416666666666666
            },
            {
              "pitch": 80,
              "velocity": 30,
              "position": 2.5,
              "duration": 0.010416666666666666
            },
            {
              "pitch": 82,
              "velocity": 92,
              "position": 2.5,
              "duration": 0.010416666666666666
            },
            {
              "pitch": 25,
              "velocity": 61,
              "position": 2.75,
              "duration": 0.010416666666666666
            },
            {
              "pitch": 61,
              "velocity": 55,
              "position": 2.75,
              "duration": 0.010416666666666666
            },
            {
              "pitch": 80,
              "velocity": 32,
              "position": 2.75,
              "duration": 0.010416666666666666
            },
            {
              "pitch": 82,
              "velocity": 76,
              "position": 2.75,
              "duration": 0.010416666666666666
            },
            {
              "pitch": 19,
              "velocity": 90,
              "position": 3,
              "duration": 0.010416666666666666
            },
            {
              "pitch": 27,
              "velocity": 117,
              "position": 3,
              "duration": 0.010416666666666666
            },
            {
              "pitch": 40,
              "velocity": 106,
              "position": 3,
              "duration": 0.010416666666666666
            },
            {
              "pitch": 51,
              "velocity": 56,
              "position": 3,
              "duration": 0.010416666666666666
            },
            {
              "pitch": 60,
              "velocity": 86,
              "position": 3,
              "duration": 0.010416666666666666
            },
            {
              "pitch": 81,
              "velocity": 35,
              "position": 3,
              "duration": 0.010416666666666666
            },
            {
              "pitch": 82,
              "velocity": 54,
              "position": 3,
              "duration": 0.010416666666666666
            },
            {
              "pitch": 25,
              "velocity": 55,
              "position": 3.25,
              "duration": 0.010416666666666666
            },
            {
              "pitch": 80,
              "velocity": 27,
              "position": 3.25,
              "duration": 0.010416666666666666
            },
            {
              "pitch": 82,
              "velocity": 48,
              "position": 3.25,
              "duration": 0.010416666666666666
            },
            {
              "pitch": 27,
              "velocity": 120,
              "position": 3.5,
              "duration": 0.010416666666666666
            },
            {
              "pitch": 60,
              "velocity": 74,
              "position": 3.5,
              "duration": 0.010416666666666666
            },
            {
              "pitch": 80,
              "velocity": 34,
              "position": 3.5,
              "duration": 0.010416666666666666
            },
            {
              "pitch": 82,
              "velocity": 92,
              "position": 3.5,
              "duration": 0.010416666666666666
            },
            {
              "pitch": 25,
              "velocity": 65,
              "position": 3.75,
              "duration": 0.010416666666666666
            },
            {
              "pitch": 63,
              "velocity": 74,
              "position": 3.75,
              "duration": 0.010416666666666666
            },
            {
              "pitch": 80,
              "velocity": 40,
              "position": 3.75,
              "duration": 0.010416666666666666
            },
            {
              "pitch": 82,
              "velocity": 88,
              "position": 3.75,
              "duration": 0.010416666666666666
            },
            {
              "pitch": 27,
              "velocity": 123,
              "position": 4,
              "duration": 0.010416666666666666
            },
            {
              "pitch": 51,
              "velocity": 55,
              "position": 4,
              "duration": 0.010416666666666666
            },
            {
              "pitch": 61,
              "velocity": 47,
              "position": 4,
              "duration": 0.010416666666666666
            },
            {
              "pitch": 69,
              "velocity": 47,
              "position": 4,
              "duration": 0.010416666666666666
            },
            {
              "pitch": 81,
              "velocity": 37,
              "position": 4,
              "duration": 0.010416666666666666
            },
            {
              "pitch": 82,
              "velocity": 61,
              "position": 4,
              "duration": 0.010416666666666666
            },
            {
              "pitch": 25,
              "velocity": 46,
              "position": 4.25,
              "duration": 0.010416666666666666
            },
            {
              "pitch": 80,
              "velocity": 28,
              "position": 4.25,
              "duration": 0.010416666666666666
            },
            {
              "pitch": 82,
              "velocity": 49,
              "position": 4.25,
              "duration": 0.010416666666666666
            },
            {
              "pitch": 27,
              "velocity": 90,
              "position": 4.5,
              "duration": 0.010416666666666666
            },
            {
              "pitch": 63,
              "velocity": 107,
              "position": 4.5,
              "duration": 0.010416666666666666
            },
            {
              "pitch": 80,
              "velocity": 40,
              "position": 4.5,
              "duration": 0.010416666666666666
            },
            {
              "pitch": 82,
              "velocity": 103,
              "position": 4.5,
              "duration": 0.010416666666666666
            },
            {
              "pitch": 25,
              "velocity": 120,
              "position": 4.75,
              "duration": 0.010416666666666666
            },
            {
              "pitch": 62,
              "velocity": 40,
              "position": 4.75,
              "duration": 0.010416666666666666
            },
            {
              "pitch": 69,
              "velocity": 50,
              "position": 4.75,
              "duration": 0.010416666666666666
            },
            {
              "pitch": 81,
              "velocity": 40,
              "position": 4.75,
              "duration": 0.010416666666666666
            },
            {
              "pitch": 82,
              "velocity": 76,
              "position": 4.75,
              "duration": 0.010416666666666666
            },
            {
              "pitch": 19,
              "velocity": 90,
              "position": 5,
              "duration": 0.010416666666666666
            },
            {
              "pitch": 27,
              "velocity": 52,
              "position": 5,
              "duration": 0.010416666666666666
            },
            {
              "pitch": 40,
              "velocity": 110,
              "position": 5,
              "duration": 0.010416666666666666
            },
            {
              "pitch": 51,
              "velocity": 60,
              "position": 5,
              "duration": 0.010416666666666666
            },
            {
              "pitch": 60,
              "velocity": 82,
              "position": 5,
              "duration": 0.010416666666666666
            },
            {
              "pitch": 80,
              "velocity": 29,
              "position": 5,
              "duration": 0.010416666666666666
            },
            {
              "pitch": 82,
              "velocity": 61,
              "position": 5,
              "duration": 0.010416666666666666
            },
            {
              "pitch": 25,
              "velocity": 71,
              "position": 5.25,
              "duration": 0.010416666666666666
            },
            {
              "pitch": 80,
              "velocity": 31,
              "position": 5.25,
              "duration": 0.010416666666666666
            },
            {
              "pitch": 82,
              "velocity": 46,
              "position": 5.25,
              "duration": 0.010416666666666666
            },
            {
              "pitch": 27,
              "velocity": 117,
              "position": 5.5,
              "duration": 0.010416666666666666
            },
            {
              "pitch": 61,
              "velocity": 39,
              "position": 5.5,
              "duration": 0.010416666666666666
            },
            {
              "pitch": 69,
              "velocity": 48,
              "position": 5.5,
              "duration": 0.010416666666666666
            },
            {
              "pitch": 81,
              "velocity": 40,
              "position": 5.5,
              "duration": 0.010416666666666666
            },
            {
              "pitch": 82,
              "velocity": 90,
              "position": 5.5,
              "duration": 0.010416666666666666
            },
            {
              "pitch": 25,
              "velocity": 39,
              "position": 5.75,
              "duration": 0.010416666666666666
            },
            {
              "pitch": 63,
              "velocity": 99,
              "position": 5.75,
              "duration": 0.010416666666666666
            },
            {
              "pitch": 80,
              "velocity": 30,
              "position": 5.75,
              "duration": 0.010416666666666666
            },
            {
              "pitch": 82,
              "velocity": 71,
              "position": 5.75,
              "duration": 0.010416666666666666
            },
            {
              "pitch": 27,
              "velocity": 79,
              "position": 6,
              "duration": 0.010416666666666666
            },
            {
              "pitch": 51,
              "velocity": 61,
              "position": 6,
              "duration": 0.010416666666666666
            },
            {
              "pitch": 80,
              "velocity": 35,
              "position": 6,
              "duration": 0.010416666666666666
            },
            {
              "pitch": 82,
              "velocity": 54,
              "position": 6,
              "duration": 0.010416666666666666
            },
            {
              "pitch": 25,
              "velocity": 125,
              "position": 6.25,
              "duration": 0.010416666666666666
            },
            {
              "pitch": 62,
              "velocity": 111,
              "position": 6.25,
              "duration": 0.010416666666666666
            },
            {
              "pitch": 81,
              "velocity": 39,
              "position": 6.25,
              "duration": 0.010416666666666666
            },
            {
              "pitch": 82,
              "velocity": 48,
              "position": 6.25,
              "duration": 0.010416666666666666
            },
            {
              "pitch": 27,
              "velocity": 51,
              "position": 6.5,
              "duration": 0.010416666666666666
            },
            {
              "pitch": 80,
              "velocity": 28,
              "position": 6.5,
              "duration": 0.010416666666666666
            },
            {
              "pitch": 82,
              "velocity": 95,
              "position": 6.5,
              "duration": 0.010416666666666666
            },
            {
              "pitch": 25,
              "velocity": 86,
              "position": 6.75,
              "duration": 0.010416666666666666
            },
            {
              "pitch": 61,
              "velocity": 49,
              "position": 6.75,
              "duration": 0.010416666666666666
            },
            {
              "pitch": 80,
              "velocity": 35,
              "position": 6.75,
              "duration": 0.010416666666666666
            },
            {
              "pitch": 82,
              "velocity": 71,
              "position": 6.75,
              "duration": 0.010416666666666666
            },
            {
              "pitch": 19,
              "velocity": 90,
              "position": 7,
              "duration": 0.010416666666666666
            },
            {
              "pitch": 27,
              "velocity": 123,
              "position": 7,
              "duration": 0.010416666666666666
            },
            {
              "pitch": 40,
              "velocity": 110,
              "position": 7,
              "duration": 0.010416666666666666
            },
            {
              "pitch": 51,
              "velocity": 60,
              "position": 7,
              "duration": 0.010416666666666666
            },
            {
              "pitch": 60,
              "velocity": 82,
              "position": 7,
              "duration": 0.010416666666666666
            },
            {
              "pitch": 81,
              "velocity": 30,
              "position": 7,
              "duration": 0.010416666666666666
            },
            {
              "pitch": 82,
              "velocity": 57,
              "position": 7,
              "duration": 0.010416666666666666
            },
            {
              "pitch": 25,
              "velocity": 65,
              "position": 7.25,
              "duration": 0.010416666666666666
            },
            {
              "pitch": 80,
              "velocity": 27,
              "position": 7.25,
              "duration": 0.010416666666666666
            },
            {
              "pitch": 82,
              "velocity": 52,
              "position": 7.25,
              "duration": 0.010416666666666666
            },
            {
              "pitch": 27,
              "velocity": 117,
              "position": 7.5,
              "duration": 0.010416666666666666
            },
            {
              "pitch": 60,
              "velocity": 74,
              "position": 7.5,
              "duration": 0.010416666666666666
            },
            {
              "pitch": 80,
              "velocity": 35,
              "position": 7.5,
              "duration": 0.010416666666666666
            },
            {
              "pitch": 82,
              "velocity": 92,
              "position": 7.5,
              "duration": 0.010416666666666666
            },
            {
              "pitch": 25,
              "velocity": 90,
              "position": 7.75,
              "duration": 0.010416666666666666
            },
            {
              "pitch": 57,
              "velocity": 51,
              "position": 7.75,
              "duration": 0.010416666666666666
            },
            {
              "pitch": 63,
              "velocity": 45,
              "position": 7.75,
              "duration": 0.010416666666666666
            },
            {
              "pitch": 80,
              "velocity": 39,
              "position": 7.75,
              "duration": 0.010416666666666666
            },
            {
              "pitch": 82,
              "velocity": 74,
              "position": 7.75,
              "duration": 0.010416666666666666
            },
            {
              "pitch": 27,
              "velocity": 120,
              "position": 8,
              "duration": 0.010416666666666666
            },
            {
              "pitch": 49,
              "velocity": 27,
              "position": 8,
              "duration": 0.010416666666666666
            },
            {
              "pitch": 51,
              "velocity": 59,
              "position": 8,
              "duration": 0.010416666666666666
            },
            {
              "pitch": 61,
              "velocity": 58,
              "position": 8,
              "duration": 0.010416666666666666
            },
            {
              "pitch": 69,
              "velocity": 48,
              "position": 8,
              "duration": 0.010416666666666666
            },
            {
              "pitch": 81,
              "velocity": 41,
              "position": 8,
              "duration": 0.010416666666666666
            },
            {
              "pitch": 82,
              "velocity": 59,
              "position": 8,
              "duration": 0.010416666666666666
            },
            {
              "pitch": 25,
              "velocity": 30,
              "position": 8.25,
              "duration": 0.010416666666666666
            },
            {
              "pitch": 80,
              "velocity": 31,
              "position": 8.25,
              "duration": 0.010416666666666666
            },
            {
              "pitch": 82,
              "velocity": 49,
              "position": 8.25,
              "duration": 0.010416666666666666
            },
            {
              "pitch": 27,
              "velocity": 90,
              "position": 8.5,
              "duration": 0.010416666666666666
            },
            {
              "pitch": 63,
              "velocity": 107,
              "position": 8.5,
              "duration": 0.010416666666666666
            },
            {
              "pitch": 80,
              "velocity": 35,
              "position": 8.5,
              "duration": 0.010416666666666666
            },
            {
              "pitch": 82,
              "velocity": 95,
              "position": 8.5,
              "duration": 0.010416666666666666
            },
            {
              "pitch": 25,
              "velocity": 117,
              "position": 8.75,
              "duration": 0.010416666666666666
            },
            {
              "pitch": 61,
              "velocity": 51,
              "position": 8.75,
              "duration": 0.010416666666666666
            },
            {
              "pitch": 69,
              "velocity": 49,
              "position": 8.75,
              "duration": 0.010416666666666666
            },
            {
              "pitch": 81,
              "velocity": 40,
              "position": 8.75,
              "duration": 0.010416666666666666
            },
            {
              "pitch": 82,
              "velocity": 71,
              "position": 8.75,
              "duration": 0.010416666666666666
            },
            {
              "pitch": 19,
              "velocity": 90,
              "position": 9,
              "duration": 0.010416666666666666
            },
            {
              "pitch": 27,
              "velocity": 42,
              "position": 9,
              "duration": 0.010416666666666666
            },
            {
              "pitch": 40,
              "velocity": 97,
              "position": 9,
              "duration": 0.010416666666666666
            },
            {
              "pitch": 51,
              "velocity": 44,
              "position": 9,
              "duration": 0.010416666666666666
            },
            {
              "pitch": 60,
              "velocity": 89,
              "position": 9,
              "duration": 0.010416666666666666
            },
            {
              "pitch": 80,
              "velocity": 22,
              "position": 9,
              "duration": 0.010416666666666666
            },
            {
              "pitch": 82,
              "velocity": 49,
              "position": 9,
              "duration": 0.010416666666666666
            },
            {
              "pitch": 25,
              "velocity": 58,
              "position": 9.25,
              "duration": 0.010416666666666666
            },
            {
              "pitch": 80,
              "velocity": 32,
              "position": 9.25,
              "duration": 0.010416666666666666
            },
            {
              "pitch": 82,
              "velocity": 46,
              "position": 9.25,
              "duration": 0.010416666666666666
            },
            {
              "pitch": 27,
              "velocity": 117,
              "position": 9.5,
              "duration": 0.010416666666666666
            },
            {
              "pitch": 61,
              "velocity": 43,
              "position": 9.5,
              "duration": 0.010416666666666666
            },
            {
              "pitch": 69,
              "velocity": 50,
              "position": 9.5,
              "duration": 0.010416666666666666
            },
            {
              "pitch": 81,
              "velocity": 30,
              "position": 9.5,
              "duration": 0.010416666666666666
            },
            {
              "pitch": 82,
              "velocity": 95,
              "position": 9.5,
              "duration": 0.010416666666666666
            },
            {
              "pitch": 25,
              "velocity": 54,
              "position": 9.75,
              "duration": 0.010416666666666666
            },
            {
              "pitch": 63,
              "velocity": 99,
              "position": 9.75,
              "duration": 0.010416666666666666
            },
            {
              "pitch": 80,
              "velocity": 25,
              "position": 9.75,
              "duration": 0.010416666666666666
            },
            {
              "pitch": 82,
              "velocity": 57,
              "position": 9.75,
              "duration": 0.010416666666666666
            },
            {
              "pitch": 27,
              "velocity": 48,
              "position": 10,
              "duration": 0.010416666666666666
            },
            {
              "pitch": 51,
              "velocity": 52,
              "position": 10,
              "duration": 0.010416666666666666
            },
            {
              "pitch": 80,
              "velocity": 31,
              "position": 10,
              "duration": 0.010416666666666666
            },
            {
              "pitch": 82,
              "velocity": 46,
              "position": 10,
              "duration": 0.010416666666666666
            },
            {
              "pitch": 25,
              "velocity": 111,
              "position": 10.25,
              "duration": 0.010416666666666666
            },
            {
              "pitch": 62,
              "velocity": 107,
              "position": 10.25,
              "duration": 0.010416666666666666
            },
            {
              "pitch": 81,
              "velocity": 36,
              "position": 10.25,
              "duration": 0.010416666666666666
            },
            {
              "pitch": 82,
              "velocity": 51,
              "position": 10.25,
              "duration": 0.010416666666666666
            },
            {
              "pitch": 27,
              "velocity": 46,
              "position": 10.5,
              "duration": 0.010416666666666666
            },
            {
              "pitch": 80,
              "velocity": 27,
              "position": 10.5,
              "duration": 0.010416666666666666
            },
            {
              "pitch": 82,
              "velocity": 95,
              "position": 10.5,
              "duration": 0.010416666666666666
            },
            {
              "pitch": 25,
              "velocity": 61,
              "position": 10.75,
              "duration": 0.010416666666666666
            },
            {
              "pitch": 61,
              "velocity": 54,
              "position": 10.75,
              "duration": 0.010416666666666666
            },
            {
              "pitch": 80,
              "velocity": 38,
              "position": 10.75,
              "duration": 0.010416666666666666
            },
            {
              "pitch": 82,
              "velocity": 58,
              "position": 10.75,
              "duration": 0.010416666666666666
            },
            {
              "pitch": 19,
              "velocity": 90,
              "position": 11,
              "duration": 0.010416666666666666
            },
            {
              "pitch": 27,
              "velocity": 117,
              "position": 11,
              "duration": 0.010416666666666666
            },
            {
              "pitch": 40,
              "velocity": 106,
              "position": 11,
              "duration": 0.010416666666666666
            },
            {
              "pitch": 51,
              "velocity": 54,
              "position": 11,
              "duration": 0.010416666666666666
            },
            {
              "pitch": 60,
              "velocity": 82,
              "position": 11,
              "duration": 0.010416666666666666
            },
            {
              "pitch": 81,
              "velocity": 33,
              "position": 11,
              "duration": 0.010416666666666666
            },
            {
              "pitch": 82,
              "velocity": 52,
              "position": 11,
              "duration": 0.010416666666666666
            },
            {
              "pitch": 25,
              "velocity": 55,
              "position": 11.25,
              "duration": 0.010416666666666666
            },
            {
              "pitch": 80,
              "velocity": 20,
              "position": 11.25,
              "duration": 0.010416666666666666
            },
            {
              "pitch": 82,
              "velocity": 51,
              "position": 11.25,
              "duration": 0.010416666666666666
            },
            {
              "pitch": 27,
              "velocity": 120,
              "position": 11.5,
              "duration": 0.010416666666666666
            },
            {
              "pitch": 60,
              "velocity": 67,
              "position": 11.5,
              "duration": 0.010416666666666666
            },
            {
              "pitch": 80,
              "velocity": 29,
              "position": 11.5,
              "duration": 0.010416666666666666
            },
            {
              "pitch": 82,
              "velocity": 92,
              "position": 11.5,
              "duration": 0.010416666666666666
            },
            {
              "pitch": 25,
              "velocity": 65,
              "position": 11.75,
              "duration": 0.010416666666666666
            },
            {
              "pitch": 63,
              "velocity": 67,
              "position": 11.75,
              "duration": 0.010416666666666666
            },
            {
              "pitch": 80,
              "velocity": 30,
              "position": 11.75,
              "duration": 0.010416666666666666
            },
            {
              "pitch": 82,
              "velocity": 61,
              "position": 11.75,
              "duration": 0.010416666666666666
            },
            {
              "pitch": 27,
              "velocity": 123,
              "position": 12,
              "duration": 0.010416666666666666
            },
            {
              "pitch": 51,
              "velocity": 61,
              "position": 12,
              "duration": 0.010416666666666666
            },
            {
              "pitch": 61,
              "velocity": 39,
              "position": 12,
              "duration": 0.010416666666666666
            },
            {
              "pitch": 69,
              "velocity": 48,
              "position": 12,
              "duration": 0.010416666666666666
            },
            {
              "pitch": 81,
              "velocity": 35,
              "position": 12,
              "duration": 0.010416666666666666
            },
            {
              "pitch": 82,
              "velocity": 44,
              "position": 12,
              "duration": 0.010416666666666666
            },
            {
              "pitch": 25,
              "velocity": 46,
              "position": 12.25,
              "duration": 0.010416666666666666
            },
            {
              "pitch": 80,
              "velocity": 28,
              "position": 12.25,
              "duration": 0.010416666666666666
            },
            {
              "pitch": 82,
              "velocity": 57,
              "position": 12.25,
              "duration": 0.010416666666666666
            },
            {
              "pitch": 27,
              "velocity": 90,
              "position": 12.5,
              "duration": 0.010416666666666666
            },
            {
              "pitch": 63,
              "velocity": 92,
              "position": 12.5,
              "duration": 0.010416666666666666
            },
            {
              "pitch": 80,
              "velocity": 31,
              "position": 12.5,
              "duration": 0.010416666666666666
            },
            {
              "pitch": 82,
              "velocity": 95,
              "position": 12.5,
              "duration": 0.010416666666666666
            },
            {
              "pitch": 25,
              "velocity": 120,
              "position": 12.75,
              "duration": 0.010416666666666666
            },
            {
              "pitch": 61,
              "velocity": 67,
              "position": 12.75,
              "duration": 0.010416666666666666
            },
            {
              "pitch": 69,
              "velocity": 50,
              "position": 12.75,
              "duration": 0.010416666666666666
            },
            {
              "pitch": 81,
              "velocity": 41,
              "position": 12.75,
              "duration": 0.010416666666666666
            },
            {
              "pitch": 82,
              "velocity": 57,
              "position": 12.75,
              "duration": 0.010416666666666666
            },
            {
              "pitch": 19,
              "velocity": 90,
              "position": 13,
              "duration": 0.010416666666666666
            },
            {
              "pitch": 27,
              "velocity": 52,
              "position": 13,
              "duration": 0.010416666666666666
            },
            {
              "pitch": 40,
              "velocity": 110,
              "position": 13,
              "duration": 0.010416666666666666
            },
            {
              "pitch": 51,
              "velocity": 65,
              "position": 13,
              "duration": 0.010416666666666666
            },
            {
              "pitch": 60,
              "velocity": 67,
              "position": 13,
              "duration": 0.010416666666666666
            },
            {
              "pitch": 80,
              "velocity": 30,
              "position": 13,
              "duration": 0.010416666666666666
            },
            {
              "pitch": 82,
              "velocity": 55,
              "position": 13,
              "duration": 0.010416666666666666
            },
            {
              "pitch": 25,
              "velocity": 71,
              "position": 13.25,
              "duration": 0.010416666666666666
            },
            {
              "pitch": 80,
              "velocity": 38,
              "position": 13.25,
              "duration": 0.010416666666666666
            },
            {
              "pitch": 82,
              "velocity": 57,
              "position": 13.25,
              "duration": 0.010416666666666666
            },
            {
              "pitch": 27,
              "velocity": 117,
              "position": 13.5,
              "duration": 0.010416666666666666
            },
            {
              "pitch": 61,
              "velocity": 42,
              "position": 13.5,
              "duration": 0.010416666666666666
            },
            {
              "pitch": 69,
              "velocity": 47,
              "position": 13.5,
              "duration": 0.010416666666666666
            },
            {
              "pitch": 81,
              "velocity": 43,
              "position": 13.5,
              "duration": 0.010416666666666666
            },
            {
              "pitch": 82,
              "velocity": 95,
              "position": 13.5,
              "duration": 0.010416666666666666
            },
            {
              "pitch": 25,
              "velocity": 39,
              "position": 13.75,
              "duration": 0.010416666666666666
            },
            {
              "pitch": 63,
              "velocity": 107,
              "position": 13.75,
              "duration": 0.010416666666666666
            },
            {
              "pitch": 80,
              "velocity": 30,
              "position": 13.75,
              "duration": 0.010416666666666666
            },
            {
              "pitch": 82,
              "velocity": 65,
              "position": 13.75,
              "duration": 0.010416666666666666
            },
            {
              "pitch": 27,
              "velocity": 79,
              "position": 14,
              "duration": 0.010416666666666666
            },
            {
              "pitch": 51,
              "velocity": 56,
              "position": 14,
              "duration": 0.010416666666666666
            },
            {
              "pitch": 57,
              "velocity": 54,
              "position": 14,
              "duration": 0.010416666666666666
            },
            {
              "pitch": 80,
              "velocity": 34,
              "position": 14,
              "duration": 0.010416666666666666
            },
            {
              "pitch": 82,
              "velocity": 55,
              "position": 14,
              "duration": 0.010416666666666666
            },
            {
              "pitch": 25,
              "velocity": 125,
              "position": 14.25,
              "duration": 0.010416666666666666
            },
            {
              "pitch": 40,
              "velocity": 101,
              "position": 14.25,
              "duration": 0.010416666666666666
            },
            {
              "pitch": 62,
              "velocity": 107,
              "position": 14.25,
              "duration": 0.010416666666666666
            },
            {
              "pitch": 81,
              "velocity": 39,
              "position": 14.25,
              "duration": 0.010416666666666666
            },
            {
              "pitch": 82,
              "velocity": 46,
              "position": 14.25,
              "duration": 0.010416666666666666
            },
            {
              "pitch": 27,
              "velocity": 51,
              "position": 14.5,
              "duration": 0.010416666666666666
            },
            {
              "pitch": 80,
              "velocity": 36,
              "position": 14.5,
              "duration": 0.010416666666666666
            },
            {
              "pitch": 82,
              "velocity": 95,
              "position": 14.5,
              "duration": 0.010416666666666666
            },
            {
              "pitch": 25,
              "velocity": 86,
              "position": 14.75,
              "duration": 0.010416666666666666
            },
            {
              "pitch": 61,
              "velocity": 53,
              "position": 14.75,
              "duration": 0.010416666666666666
            },
            {
              "pitch": 80,
              "velocity": 42,
              "position": 14.75,
              "duration": 0.010416666666666666
            },
            {
              "pitch": 82,
              "velocity": 71,
              "position": 14.75,
              "duration": 0.010416666666666666
            },
            {
              "pitch": 19,
              "velocity": 90,
              "position": 15,
              "duration": 0.010416666666666666
            },
            {
              "pitch": 27,
              "velocity": 123,
              "position": 15,
              "duration": 0.010416666666666666
            },
            {
              "pitch": 40,
              "velocity": 110,
              "position": 15,
              "duration": 0.010416666666666666
            },
            {
              "pitch": 49,
              "velocity": 29,
              "position": 15,
              "duration": 0.010416666666666666
            },
            {
              "pitch": 51,
              "velocity": 60,
              "position": 15,
              "duration": 0.010416666666666666
            },
            {
              "pitch": 60,
              "velocity": 92,
              "position": 15,
              "duration": 0.010416666666666666
            },
            {
              "pitch": 81,
              "velocity": 39,
              "position": 15,
              "duration": 0.010416666666666666
            },
            {
              "pitch": 82,
              "velocity": 58,
              "position": 15,
              "duration": 0.010416666666666666
            },
            {
              "pitch": 25,
              "velocity": 65,
              "position": 15.25,
              "duration": 0.010416666666666666
            },
            {
              "pitch": 80,
              "velocity": 26,
              "position": 15.25,
              "duration": 0.010416666666666666
            },
            {
              "pitch": 82,
              "velocity": 59,
              "position": 15.25,
              "duration": 0.010416666666666666
            },
            {
              "pitch": 27,
              "velocity": 117,
              "position": 15.5,
              "duration": 0.010416666666666666
            },
            {
              "pitch": 60,
              "velocity": 74,
              "position": 15.5,
              "duration": 0.010416666666666666
            },
            {
              "pitch": 80,
              "velocity": 28,
              "position": 15.5,
              "duration": 0.010416666666666666
            },
            {
              "pitch": 82,
              "velocity": 79,
              "position": 15.5,
              "duration": 0.010416666666666666
            },
            {
              "pitch": 25,
              "velocity": 90,
              "position": 15.75,
              "duration": 0.010416666666666666
            },
            {
              "pitch": 80,
              "velocity": 31,
              "position": 15.75,
              "duration": 0.010416666666666666
            },
            {
              "pitch": 82,
              "velocity": 59,
              "position": 15.75,
              "duration": 0.010416666666666666
            },
            {
              "pitch": 27,
              "velocity": 120,
              "position": 16,
              "duration": 0.010416666666666666
            },
            {
              "pitch": 51,
              "velocity": 60,
              "position": 16,
              "duration": 0.010416666666666666
            },
            {
              "pitch": 57,
              "velocity": 54,
              "position": 16,
              "duration": 0.010416666666666666
            },
            {
              "pitch": 61,
              "velocity": 40,
              "position": 16,
              "duration": 0.010416666666666666
            },
            {
              "pitch": 69,
              "velocity": 54,
              "position": 16,
              "duration": 0.010416666666666666
            },
            {
              "pitch": 81,
              "velocity": 33,
              "position": 16,
              "duration": 0.010416666666666666
            },
            {
              "pitch": 82,
              "velocity": 45,
              "position": 16,
              "duration": 0.010416666666666666
            }
          ]
        },
        "9": {
          "ctab": {
            "srcChannel": 9,
            "name": "MainDrum",
            "accType": "RHYTHM",
            "editable": false,
            "mutedNotes": [],
            "mutedChords": [],
            "autoStart": true,
            "sourceChordNote": 0,
            "sourceChordType": "Maj7",
            "ctb2Low": null,
            "ctb2Main": {
              "ntr": "ROOT_FIXED",
              "ntt": "BYPASS",
              "bassOn": false,
              "chordRootUpperLimit": 6,
              "noteLowLimit": 0,
              "noteHighLimit": 127,
              "rtr": "PITCH_SHIFT"
            },
            "ctb2High": null
          },
          "notes": [
            {
              "pitch": 33,
              "velocity": 59,
              "position": 0,
              "duration": 0.010416666666666666
            },
            {
              "pitch": 42,
              "velocity": 50,
              "position": 0,
              "duration": 0.010416666666666666
            },
            {
              "pitch": 33,
              "velocity": 45,
              "position": 0.5,
              "duration": 0.010416666666666666
            },
            {
              "pitch": 42,
              "velocity": 49,
              "position": 0.5,
              "duration": 0.010416666666666666
            },
            {
              "pitch": 25,
              "velocity": 100,
              "position": 1,
              "duration": 0.010416666666666666
            },
            {
              "pitch": 42,
              "velocity": 48,
              "position": 1,
              "duration": 0.010416666666666666
            },
            {
              "pitch": 42,
              "velocity": 34,
              "position": 1.5,
              "duration": 0.010416666666666666
            },
            {
              "pitch": 33,
              "velocity": 59,
              "position": 1.75,
              "duration": 0.010416666666666666
            },
            {
              "pitch": 42,
              "velocity": 51,
              "position": 2,
              "duration": 0.010416666666666666
            },
            {
              "pitch": 33,
              "velocity": 42,
              "position": 2.5,
              "duration": 0.010416666666666666
            },
            {
              "pitch": 42,
              "velocity": 40,
              "position": 2.5,
              "duration": 0.010416666666666666
            },
            {
              "pitch": 25,
              "velocity": 108,
              "position": 3,
              "duration": 0.010416666666666666
            },
            {
              "pitch": 42,
              "velocity": 48,
              "position": 3,
              "duration": 0.010416666666666666
            },
            {
              "pitch": 42,
              "velocity": 39,
              "position": 3.5,
              "duration": 0.010416666666666666
            },
            {
              "pitch": 46,
              "velocity": 45,
              "position": 3.75,
              "duration": 0.010416666666666666
            },
            {
              "pitch": 33,
              "velocity": 40,
              "position": 4,
              "duration": 0.010416666666666666
            },
            {
              "pitch": 42,
              "velocity": 46,
              "position": 4,
              "duration": 0.010416666666666666
            },
            {
              "pitch": 33,
              "velocity": 56,
              "position": 4.5,
              "duration": 0.010416666666666666
            },
            {
              "pitch": 42,
              "velocity": 55,
              "position": 4.5,
              "duration": 0.010416666666666666
            },
            {
              "pitch": 25,
              "velocity": 102,
              "position": 5,
              "duration": 0.010416666666666666
            },
            {
              "pitch": 42,
              "velocity": 51,
              "position": 5,
              "duration": 0.010416666666666666
            },
            {
              "pitch": 42,
              "velocity": 47,
              "position": 5.5,
              "duration": 0.010416666666666666
            },
            {
              "pitch": 33,
              "velocity": 56,
              "position": 5.75,
              "duration": 0.010416666666666666
            },
            {
              "pitch": 42,
              "velocity": 57,
              "position": 6,
              "duration": 0.010416666666666666
            },
            {
              "pitch": 33,
              "velocity": 47,
              "position": 6.5,
              "duration": 0.010416666666666666
            },
            {
              "pitch": 42,
              "velocity": 54,
              "position": 6.5,
              "duration": 0.010416666666666666
            },
            {
              "pitch": 25,
              "velocity": 97,
              "position": 7,
              "duration": 0.010416666666666666
            },
            {
              "pitch": 42,
              "velocity": 48,
              "position": 7,
              "duration": 0.010416666666666666
            },
            {
              "pitch": 46,
              "velocity": 36,
              "position": 7.25,
              "duration": 0.010416666666666666
            },
            {
              "pitch": 42,
              "velocity": 37,
              "position": 7.5,
              "duration": 0.010416666666666666
            },
            {
              "pitch": 25,
              "velocity": 72,
              "position": 7.75,
              "duration": 0.010416666666666666
            },
            {
              "pitch": 46,
              "velocity": 40,
              "position": 7.75,
              "duration": 0.010416666666666666
            },
            {
              "pitch": 33,
              "velocity": 59,
              "position": 8,
              "duration": 0.010416666666666666
            },
            {
              "pitch": 42,
              "velocity": 40,
              "position": 8,
              "duration": 0.010416666666666666
            },
            {
              "pitch": 33,
              "velocity": 42,
              "position": 8.5,
              "duration": 0.010416666666666666
            },
            {
              "pitch": 42,
              "velocity": 49,
              "position": 8.5,
              "duration": 0.010416666666666666
            },
            {
              "pitch": 25,
              "velocity": 125,
              "position": 9,
              "duration": 0.010416666666666666
            },
            {
              "pitch": 42,
              "velocity": 86,
              "position": 9,
              "duration": 0.010416666666666666
            },
            {
              "pitch": 42,
              "velocity": 46,
              "position": 9.5,
              "duration": 0.010416666666666666
            },
            {
              "pitch": 33,
              "velocity": 59,
              "position": 9.75,
              "duration": 0.010416666666666666
            },
            {
              "pitch": 42,
              "velocity": 57,
              "position": 10,
              "duration": 0.010416666666666666
            },
            {
              "pitch": 33,
              "velocity": 56,
              "position": 10.5,
              "duration": 0.010416666666666666
            },
            {
              "pitch": 42,
              "velocity": 79,
              "position": 10.5,
              "duration": 0.010416666666666666
            },
            {
              "pitch": 25,
              "velocity": 100,
              "position": 11,
              "duration": 0.010416666666666666
            },
            {
              "pitch": 42,
              "velocity": 67,
              "position": 11,
              "duration": 0.010416666666666666
            },
            {
              "pitch": 42,
              "velocity": 71,
              "position": 11.5,
              "duration": 0.010416666666666666
            },
            {
              "pitch": 33,
              "velocity": 56,
              "position": 12,
              "duration": 0.010416666666666666
            },
            {
              "pitch": 42,
              "velocity": 46,
              "position": 12,
              "duration": 0.010416666666666666
            },
            {
              "pitch": 33,
              "velocity": 59,
              "position": 12.5,
              "duration": 0.010416666666666666
            },
            {
              "pitch": 42,
              "velocity": 54,
              "position": 12.5,
              "duration": 0.010416666666666666
            },
            {
              "pitch": 25,
              "velocity": 116,
              "position": 13,
              "duration": 0.010416666666666666
            },
            {
              "pitch": 42,
              "velocity": 52,
              "position": 13,
              "duration": 0.010416666666666666
            },
            {
              "pitch": 42,
              "velocity": 54,
              "position": 13.5,
              "duration": 0.010416666666666666
            },
            {
              "pitch": 33,
              "velocity": 59,
              "position": 13.75,
              "duration": 0.010416666666666666
            },
            {
              "pitch": 46,
              "velocity": 36,
              "position": 13.75,
              "duration": 0.010416666666666666
            },
            {
              "pitch": 42,
              "velocity": 41,
              "position": 14,
              "duration": 0.010416666666666666
            },
            {
              "pitch": 25,
              "velocity": 81,
              "position": 14.25,
              "duration": 0.010416666666666666
            },
            {
              "pitch": 33,
              "velocity": 47,
              "position": 14.5,
              "duration": 0.010416666666666666
            },
            {
              "pitch": 42,
              "velocity": 44,
              "position": 14.5,
              "duration": 0.010416666666666666
            },
            {
              "pitch": 25,
              "velocity": 121,
              "position": 15,
              "duration": 0.010416666666666666
            },
            {
              "pitch": 42,
              "velocity": 54,
              "position": 15,
              "duration": 0.010416666666666666
            },
            {
              "pitch": 42,
              "velocity": 54,
              "position": 15.5,
              "duration": 0.010416666666666666
            },
            {
              "pitch": 33,
              "velocity": 59,
              "position": 16,
              "duration": 0.010416666666666666
            },
            {
              "pitch": 42,
              "velocity": 50,
              "position": 16,
              "duration": 0.010416666666666666
            }
          ]
        },
        "10": {
          "ctab": {
            "srcChannel": 10,
            "name": "Bass",
            "accType": "BASS",
            "editable": false,
            "mutedNotes": [],
            "mutedChords": [
              "dim7",
              "dim",
              "minMaj7(9)",
              "minMaj7",
              "min7(11)",
              "min7(9)",
              "min(9)",
              "m7b5",
              "min7",
              "min6",
              "min"
            ],
            "autoStart": false,
            "sourceChordNote": 0,
            "sourceChordType": "Maj",
            "ctb2Low": null,
            "ctb2Main": {
              "ntr": "ROOT_TRANSPOSITION",
              "ntt": "BYPASS",
              "bassOn": false,
              "chordRootUpperLimit": 3,
              "noteLowLimit": 28,
              "noteHighLimit": 127,
              "rtr": "PITCH_SHIFT"
            },
            "ctb2High": null
          },
          "notes": [
            {
              "pitch": 24,
              "velocity": 107,
              "position": 0,
              "duration": 0.4895833333333333
            },
            {
              "pitch": 24,
              "velocity": 107,
              "position": 0.5,
              "duration": 0.34375
            },
            {
              "pitch": 24,
              "velocity": 91,
              "position": 1.75,
              "duration": 0.7395833333333334
            },
            {
              "pitch": 24,
              "velocity": 90,
              "position": 2.5,
              "duration": 0.2604166666666667
            },
            {
              "pitch": 31,
              "velocity": 80,
              "position": 3.5,
              "duration": 0.23958333333333334
            },
            {
              "pitch": 35,
              "velocity": 87,
              "position": 3.75,
              "duration": 0.23958333333333334
            },
            {
              "pitch": 24,
              "velocity": 95,
              "position": 4,
              "duration": 0.4895833333333333
            },
            {
              "pitch": 24,
              "velocity": 90,
              "position": 4.5,
              "duration": 0.3020833333333333
            },
            {
              "pitch": 24,
              "velocity": 101,
              "position": 5.75,
              "duration": 0.7395833333333334
            },
            {
              "pitch": 24,
              "velocity": 95,
              "position": 6.5,
              "duration": 0.3020833333333333
            },
            {
              "pitch": 24,
              "velocity": 102,
              "position": 7.5,
              "duration": 0.010416666666666666
            },
            {
              "pitch": 24,
              "velocity": 102,
              "position": 7.75,
              "duration": 0.010416666666666666
            },
            {
              "pitch": 24,
              "velocity": 106,
              "position": 8,
              "duration": 0.4895833333333333
            },
            {
              "pitch": 24,
              "velocity": 95,
              "position": 8.5,
              "duration": 0.3125
            },
            {
              "pitch": 24,
              "velocity": 107,
              "position": 9.75,
              "duration": 0.7395833333333334
            },
            {
              "pitch": 24,
              "velocity": 107,
              "position": 10.5,
              "duration": 0.28125
            },
            {
              "pitch": 31,
              "velocity": 84,
              "position": 11.5,
              "duration": 0.23958333333333334
            },
            {
              "pitch": 35,
              "velocity": 80,
              "position": 11.75,
              "duration": 0.23958333333333334
            },
            {
              "pitch": 24,
              "velocity": 101,
              "position": 12,
              "duration": 0.4895833333333333
            },
            {
              "pitch": 24,
              "velocity": 106,
              "position": 12.5,
              "duration": 0.28125
            },
            {
              "pitch": 24,
              "velocity": 107,
              "position": 13.75,
              "duration": 0.7395833333333334
            },
            {
              "pitch": 24,
              "velocity": 88,
              "position": 14.5,
              "duration": 0.3020833333333333
            },
            {
              "pitch": 24,
              "velocity": 102,
              "position": 15.5,
              "duration": 0.010416666666666666
            },
            {
              "pitch": 24,
              "velocity": 102,
              "position": 15.75,
              "duration": 0.0020833333333333333
            },
            {
              "pitch": 24,
              "velocity": 106,
              "position": 16,
              "duration": 6.989583333333333
            }
          ]
        },
        "11": {
          "ctab": {
            "srcChannel": 11,
            "name": "Ep",
            "accType": "CHORD1",
            "editable": false,
            "mutedNotes": [],
            "mutedChords": [
              "dim7",
              "dim",
              "minMaj7(9)",
              "minMaj7",
              "min7(11)",
              "min7(9)",
              "min(9)",
              "m7b5",
              "min7",
              "min6",
              "min"
            ],
            "autoStart": false,
            "sourceChordNote": 0,
            "sourceChordType": "Maj",
            "ctb2Low": null,
            "ctb2Main": {
              "ntr": "ROOT_TRANSPOSITION",
              "ntt": "BYPASS",
              "bassOn": false,
              "chordRootUpperLimit": 8,
              "noteLowLimit": 0,
              "noteHighLimit": 127,
              "rtr": "PITCH_SHIFT"
            },
            "ctb2High": null
          },
          "notes": [
            {
              "pitch": 55,
              "velocity": 50,
              "position": 0,
              "duration": 2.2395833333333335
            },
            {
              "pitch": 60,
              "velocity": 44,
              "position": 0,
              "duration": 2.2395833333333335
            },
            {
              "pitch": 64,
              "velocity": 53,
              "position": 0,
              "duration": 2.2395833333333335
            },
            {
              "pitch": 60,
              "velocity": 58,
              "position": 2.25,
              "duration": 0.09375
            },
            {
              "pitch": 64,
              "velocity": 49,
              "position": 2.25,
              "duration": 0.10416666666666667
            },
            {
              "pitch": 55,
              "velocity": 59,
              "position": 2.25,
              "duration": 0.11458333333333333
            },
            {
              "pitch": 55,
              "velocity": 50,
              "position": 3,
              "duration": 0.9895833333333334
            },
            {
              "pitch": 60,
              "velocity": 48,
              "position": 3,
              "duration": 0.9895833333333334
            },
            {
              "pitch": 64,
              "velocity": 47,
              "position": 3,
              "duration": 0.9895833333333334
            },
            {
              "pitch": 57,
              "velocity": 46,
              "position": 4,
              "duration": 3.9895833333333335
            },
            {
              "pitch": 60,
              "velocity": 53,
              "position": 4,
              "duration": 3.9895833333333335
            },
            {
              "pitch": 65,
              "velocity": 47,
              "position": 4,
              "duration": 3.9895833333333335
            },
            {
              "pitch": 55,
              "velocity": 48,
              "position": 8,
              "duration": 2.71875
            },
            {
              "pitch": 60,
              "velocity": 46,
              "position": 8,
              "duration": 2.71875
            },
            {
              "pitch": 64,
              "velocity": 54,
              "position": 8,
              "duration": 2.71875
            },
            {
              "pitch": 55,
              "velocity": 47,
              "position": 10.75,
              "duration": 0.23958333333333334
            },
            {
              "pitch": 57,
              "velocity": 40,
              "position": 11,
              "duration": 0.23958333333333334
            },
            {
              "pitch": 60,
              "velocity": 52,
              "position": 11.25,
              "duration": 0.23958333333333334
            },
            {
              "pitch": 62,
              "velocity": 46,
              "position": 11.5,
              "duration": 0.23958333333333334
            },
            {
              "pitch": 57,
              "velocity": 42,
              "position": 11.75,
              "duration": 0.23958333333333334
            },
            {
              "pitch": 60,
              "velocity": 40,
              "position": 12,
              "duration": 1.9895833333333333
            },
            {
              "pitch": 55,
              "velocity": 44,
              "position": 12,
              "duration": 3.9895833333333335
            },
            {
              "pitch": 62,
              "velocity": 47,
              "position": 14,
              "duration": 1.9895833333333333
            },
            {
              "pitch": 55,
              "velocity": 40,
              "position": 16,
              "duration": 6.989583333333333
            },
            {
              "pitch": 60,
              "velocity": 43,
              "position": 16,
              "duration": 6.989583333333333
            },
            {
              "pitch": 64,
              "velocity": 42,
              "position": 16,
              "duration": 6.989583333333333
            }
          ]
        },
        "12": {
          "ctab": {
            "srcChannel": 12,
            "name": "Nylon",
            "accType": "CHORD2",
            "editable": false,
            "mutedNotes": [],
            "mutedChords": [
              "dim7",
              "dim",
              "minMaj7(9)",
              "minMaj7",
              "min7(11)",
              "min7(9)",
              "min(9)",
              "m7b5",
              "min7",
              "min6",
              "min"
            ],
            "autoStart": false,
            "sourceChordNote": 0,
            "sourceChordType": "Maj",
            "ctb2Low": null,
            "ctb2Main": {
              "ntr": "ROOT_TRANSPOSITION",
              "ntt": "BYPASS",
              "bassOn": false,
              "chordRootUpperLimit": 6,
              "noteLowLimit": 0,
              "noteHighLimit": 127,
              "rtr": "PITCH_SHIFT"
            },
            "ctb2High": null
          },
          "notes": [
            {
              "pitch": 64,
              "velocity": 89,
              "position": 0,
              "duration": 0.7291666666666666
            },
            {
              "pitch": 72,
              "velocity": 88,
              "position": 0,
              "duration": 0.7395833333333334
            },
            {
              "pitch": 62,
              "velocity": 89,
              "position": 0.75,
              "duration": 0.4791666666666667
            },
            {
              "pitch": 71,
              "velocity": 88,
              "position": 0.75,
              "duration": 0.4895833333333333
            },
            {
              "pitch": 60,
              "velocity": 100,
              "position": 1.25,
              "duration": 0.4895833333333333
            },
            {
              "pitch": 67,
              "velocity": 82,
              "position": 1.25,
              "duration": 0.5
            },
            {
              "pitch": 60,
              "velocity": 85,
              "position": 1.75,
              "duration": 0.71875
            },
            {
              "pitch": 64,
              "velocity": 88,
              "position": 1.75,
              "duration": 1.0208333333333333
            },
            {
              "pitch": 64,
              "velocity": 117,
              "position": 3,
              "duration": 0.21875
            },
            {
              "pitch": 65,
              "velocity": 97,
              "position": 3.2291666666666665,
              "duration": 0.2708333333333333
            },
            {
              "pitch": 60,
              "velocity": 67,
              "position": 2.7291666666666665,
              "duration": 0.8854166666666666
            },
            {
              "pitch": 67,
              "velocity": 102,
              "position": 3.5104166666666665,
              "duration": 0.4791666666666667
            },
            {
              "pitch": 60,
              "velocity": 72,
              "position": 3.9479166666666665,
              "duration": 1.78125
            },
            {
              "pitch": 65,
              "velocity": 100,
              "position": 4,
              "duration": 1.7395833333333333
            },
            {
              "pitch": 65,
              "velocity": 82,
              "position": 5.75,
              "duration": 0.4895833333333333
            },
            {
              "pitch": 64,
              "velocity": 85,
              "position": 6.25,
              "duration": 0.4895833333333333
            },
            {
              "pitch": 60,
              "velocity": 98,
              "position": 6.75,
              "duration": 0.4895833333333333
            },
            {
              "pitch": 57,
              "velocity": 74,
              "position": 5.75,
              "duration": 1.8229166666666667
            },
            {
              "pitch": 62,
              "velocity": 102,
              "position": 7.25,
              "duration": 0.6979166666666666
            },
            {
              "pitch": 60,
              "velocity": 82,
              "position": 7.833333333333333,
              "duration": 0.7083333333333334
            },
            {
              "pitch": 64,
              "velocity": 92,
              "position": 7.947916666666667,
              "duration": 0.78125
            },
            {
              "pitch": 60,
              "velocity": 89,
              "position": 8.75,
              "duration": 1.7395833333333333
            },
            {
              "pitch": 55,
              "velocity": 52,
              "position": 7.729166666666667,
              "duration": 2.7708333333333335
            },
            {
              "pitch": 57,
              "velocity": 75,
              "position": 11,
              "duration": 0.28125
            },
            {
              "pitch": 60,
              "velocity": 75,
              "position": 11.25,
              "duration": 0.21875
            },
            {
              "pitch": 62,
              "velocity": 97,
              "position": 11.5,
              "duration": 0.23958333333333334
            },
            {
              "pitch": 55,
              "velocity": 88,
              "position": 10.75,
              "duration": 1.2395833333333333
            },
            {
              "pitch": 57,
              "velocity": 64,
              "position": 11.75,
              "duration": 0.23958333333333334
            },
            {
              "pitch": 60,
              "velocity": 91,
              "position": 12,
              "duration": 1.9895833333333333
            },
            {
              "pitch": 62,
              "velocity": 89,
              "position": 14,
              "duration": 1.7395833333333333
            },
            {
              "pitch": 60,
              "velocity": 71,
              "position": 15.833333333333334,
              "duration": 7.15625
            },
            {
              "pitch": 55,
              "velocity": 63,
              "position": 15.677083333333334,
              "duration": 7.3125
            },
            {
              "pitch": 64,
              "velocity": 89,
              "position": 16,
              "duration": 6.989583333333333
            }
          ]
        },
        "13": {
          "ctab": {
            "srcChannel": 13,
            "name": "Pad",
            "accType": "PAD",
            "editable": false,
            "mutedNotes": [],
            "mutedChords": [
              "dim7",
              "dim",
              "minMaj7(9)",
              "minMaj7",
              "min7(11)",
              "min7(9)",
              "min(9)",
              "m7b5",
              "min7",
              "min6",
              "min"
            ],
            "autoStart": false,
            "sourceChordNote": 0,
            "sourceChordType": "Maj",
            "ctb2Low": null,
            "ctb2Main": {
              "ntr": "ROOT_TRANSPOSITION",
              "ntt": "BYPASS",
              "bassOn": false,
              "chordRootUpperLimit": 8,
              "noteLowLimit": 0,
              "noteHighLimit": 127,
              "rtr": "PITCH_SHIFT"
            },
            "ctb2High": null
          },
          "notes": [
            {
              "pitch": 52,
              "velocity": 73,
              "position": 0,
              "duration": 3.9895833333333335
            },
            {
              "pitch": 55,
              "velocity": 73,
              "position": 0,
              "duration": 3.9895833333333335
            },
            {
              "pitch": 60,
              "velocity": 73,
              "position": 0,
              "duration": 3.9895833333333335
            },
            {
              "pitch": 53,
              "velocity": 73,
              "position": 4,
              "duration": 3.9895833333333335
            },
            {
              "pitch": 57,
              "velocity": 73,
              "position": 4,
              "duration": 3.9895833333333335
            },
            {
              "pitch": 60,
              "velocity": 73,
              "position": 4,
              "duration": 3.9895833333333335
            },
            {
              "pitch": 52,
              "velocity": 73,
              "position": 8,
              "duration": 3.9895833333333335
            },
            {
              "pitch": 55,
              "velocity": 73,
              "position": 8,
              "duration": 3.9895833333333335
            },
            {
              "pitch": 60,
              "velocity": 73,
              "position": 8,
              "duration": 3.9895833333333335
            },
            {
              "pitch": 53,
              "velocity": 73,
              "position": 12,
              "duration": 3.9895833333333335
            },
            {
              "pitch": 57,
              "velocity": 73,
              "position": 12,
              "duration": 3.9895833333333335
            },
            {
              "pitch": 60,
              "velocity": 73,
              "position": 12,
              "duration": 3.9895833333333335
            },
            {
              "pitch": 52,
              "velocity": 73,
              "position": 16,
              "duration": 6.989583333333333
            },
            {
              "pitch": 55,
              "velocity": 73,
              "position": 16,
              "duration": 6.989583333333333
            },
            {
              "pitch": 60,
              "velocity": 73,
              "position": 16,
              "duration": 6.989583333333333
            }
          ]
        },
        "14": {
          "ctab": {
            "srcChannel": 14,
            "name": "MutedGtr",
            "accType": "PHRASE1",
            "editable": false,
            "mutedNotes": [],
            "mutedChords": [
              "dim7",
              "dim",
              "minMaj7(9)",
              "minMaj7",
              "min7(11)",
              "min7(9)",
              "min(9)",
              "m7b5",
              "min7",
              "min6",
              "min"
            ],
            "autoStart": false,
            "sourceChordNote": 0,
            "sourceChordType": "Maj",
            "ctb2Low": null,
            "ctb2Main": {
              "ntr": "ROOT_TRANSPOSITION",
              "ntt": "BYPASS",
              "bassOn": false,
              "chordRootUpperLimit": 5,
              "noteLowLimit": 0,
              "noteHighLimit": 127,
              "rtr": "PITCH_SHIFT"
            },
            "ctb2High": null
          },
          "notes": []
        },
        "15": {
          "ctab": {
            "srcChannel": 15,
            "name": "Pad2",
            "accType": "PHRASE2",
            "editable": false,
            "mutedNotes": [],
            "mutedChords": [
              "dim7",
              "dim",
              "minMaj7(9)",
              "minMaj7",
              "min7(11)",
              "min7(9)",
              "min(9)",
              "m7b5",
              "min7",
              "min6",
              "min"
            ],
            "autoStart": false,
            "sourceChordNote": 0,
            "sourceChordType": "Maj",
            "ctb2Low": null,
            "ctb2Main": {
              "ntr": "ROOT_TRANSPOSITION",
              "ntt": "BYPASS",
              "bassOn": false,
              "chordRootUpperLimit": 9,
              "noteLowLimit": 0,
              "noteHighLimit": 127,
              "rtr": "PITCH_SHIFT"
            },
            "ctb2High": null
          },
          "notes": [
            {
              "pitch": 60,
              "velocity": 1,
              "position": 0.010416666666666666,
              "duration": 15.979166666666666
            },
            {
              "pitch": 60,
              "velocity": 1,
              "position": 16,
              "duration": 6.989583333333333
            }
          ]
        }
      }
    }
  }
}