{
  "name": "CntryBrothers.S624.prs",
  "tempo": 92,
  "timeSignature": "4/4",
  "ticksPerQuarter": 1920,
  "sffType": "SFF1",
  "division": "BINARY",
  "parts": {
    "Main_A": {
      "type": "Main_A",
      "sizeInBeats": 8,
      "channels": {
        "1": {
          "ctab": {
            "srcChannel": 1,
            "name": "Git root",
            "accType": "CHORD1",
            "editable": false,
            "mutedNotes": [],
            "mutedChords": [
              "1+2+5",
              "sus4",
              "1+5",
              "1+8",
              "Maj7aug",
              "dim",
              "minMaj7(9)",
              "minMaj7",
              "min6",
              "min",
              "aug",
              "Maj7(9)",
              "Maj7#11",
              "Maj7",
              "Maj6",
              "Maj"
            ],
            "autoStart": false,
            "sourceChordNote": 0,
            "sourceChordType": "Maj7",
            "ctb2Low": null,
            "ctb2Main": {
              "ntr": "ROOT_TRANSPOSITION",
              "ntt": "CHORD",
              "bassOn": false,
              "chordRootUpperLimit": 6,
              "noteLowLimit": 0,
              "noteHighLimit": 127,
              "rtr": "PITCH_SHIFT"
            },
            "ctb2High": null
          },
          "notes": [
            {
              "pitch": 60,
              "velocity": 98,
              "position": 0,
              "duration": 0.75
            },
            {
              "pitch": 60,
              "velocity": 72,
              "position": 0.7708333333333334,
              "duration": 0.20833333333333334
            },
            {
              "pitch": 60,
              "velocity": 80,
              "position": 1,
              "duration": 0.4791666666666667
            },
            {
              "pitch": 60,
              "velocity": 98,
              "position": 1.5,
              "duration": 1.9895833333333333
            },
            {
              "pitch": 60,
              "velocity": 80,
              "position": 3.5,
              "duration": 0.4791666666666667
            },
            {
              "pitch": 60,
              "velocity": 98,
              "position": 4,
              "duration": 0.75
            },
            {
              "pitch": 60,
              "velocity": 72,
              "position": 4.770833333333333,
              "duration": 0.20833333333333334
            },
            {
              "pitch": 60,
              "velocity": 80,
              "position": 5,
              "duration": 0.4791666666666667
            },
            {
              "pitch": 60,
              "velocity": 98,
              "position": 5.5,
              "duration": 0.9791666666666666
            },
            {
              "pitch": 60,
              "velocity": 80,
              "position": 6.5,
              "duration": 0.4791666666666667
            },
            {
              "pitch": 60,
              "velocity": 98,
              "position": 7,
              "duration": 0.9791666666666666
            }
          ]
        },
        "2": {
          "ctab": {
            "srcChannel": 2,
            "name": "str root",
            "accType": "PAD",
            "editable": false,
            "mutedNotes": [],
            "mutedChords": [
              "1+2+5",
              "sus4",
              "1+5",
              "1+8",
              "Maj7aug",
              "dim",
              "minMaj7(9)",
              "minMaj7",
              "min6",
              "min",
              "aug",
              "Maj7(9)",
              "Maj7#11",
              "Maj7",
              "Maj6",
              "Maj"
            ],
            "autoStart": false,
            "sourceChordNote": 0,
            "sourceChordType": "Maj7",
            "ctb2Low": null,
            "ctb2Main": {
              "ntr": "ROOT_TRANSPOSITION",
              "ntt": "CHORD",
              "bassOn": false,
              "chordRootUpperLimit": 6,
              "noteLowLimit": 0,
              "noteHighLimit": 127,
              "rtr": "PITCH_SHIFT"
            },
            "ctb2High": null
          },
          "notes": [
            {
              "pitch": 60,
              "velocity": 68,
              "position": 0,
              "duration": 7.979166666666667
            }
          ]
        },
        "6": {
          "ctab": {
            "srcChannel": 6,
            "name": "CleanFX",
            "accType": "CHORD2",
            "editable": false,
            "mutedNotes": [],
            "mutedChords": [],
            "autoStart": false,
            "sourceChordNote": 0,
            "sourceChordType": "Maj",
            "ctb2Low": null,
            "ctb2Main": {
              "ntr": "ROOT_FIXED",
              "ntt": "BYPASS",
              "bassOn": false,
              "chordRootUpperLimit": 7,
              "noteLowLimit": 0,
              "noteHighLimit": 79,
              "rtr": "PITCH_SHIFT"
            },
            "ctb2High": null
          },
          "notes": [
            {
              "pitch": 100,
              "velocity": 87,
              "position": 0,
              "duration": 0.23958333333333334
            },
            {
              "pitch": 101,
              "velocity": 78,
              "position": 0.75,
              "duration": 0.23958333333333334
            },
            {
              "pitch": 100,
              "velocity": 87,
              "position": 1.5,
              "duration": 0.23958333333333334
            },
            {
              "pitch": 101,
              "velocity": 78,
              "position": 2.5,
              "duration": 0.23958333333333334
            },
            {
              "pitch": 100,
              "velocity": 59,
              "position": 3,
              "duration": 0.23958333333333334
            },
            {
              "pitch": 100,
              "velocity": 87,
              "position": 4,
              "duration": 0.23958333333333334
            },
            {
              "pitch": 101,
              "velocity": 78,
              "position": 4.75,
              "duration": 0.23958333333333334
            },
            {
              "pitch": 100,
              "velocity": 87,
              "position": 5.5,
              "duration": 0.23958333333333334
            },
            {
              "pitch": 101,
              "velocity": 78,
              "position": 6.25,
              "duration": 0.23958333333333334
            },
            {
              "pitch": 100,
              "velocity": 59,
              "position": 7,
              "duration": 0.23958333333333334
            },
            {
              "pitch": 100,
              "velocity": 72,
              "position": 7.5,
              "duration": 0.23958333333333334
            },
            {
              "pitch": 101,
              "velocity": 66,
              "position": 7.75,
              "duration": 0.23958333333333334
            }
          ]
        },
        "7": {
          "ctab": {
            "srcChannel": 7,
            "name": "CC_Crash",
            "accType": "RHYTHM",
            "editable": false,
            "mutedNotes": [],
            "mutedChords": [
              "1+2+5",
              "sus4",
              "1+5",
              "1+8",
              "7aug",
              "Maj7aug",
              "7(#9)",
              "7(b13)",
              "7(b9)",
              "7(13)",
              "7#11",
              "7(9)",
              "7b5",
              "7sus4",
              "7th",
              "dim7",
              "dim",
              "minMaj7(9)",
              "minMaj7",
              "min7(11)",
              "min7(9)",
              "min(9)",
              "m7b5",
              "min7",
              "min6",
              "min",
              "aug",
              "Maj6(9)",
              "Maj7(9)",
              "Maj(9)",
              "Maj7#11",
              "Maj7",
              "Maj6",
              "Maj"
            ],
            "autoStart": true,
            "sourceChordNote": 0,
            "sourceChordType": "Maj",
            "ctb2Low": null,
            "ctb2Main": {
              "ntr": "ROOT_FIXED",
              "ntt": "BYPASS",
              "bassOn": false,
              "chordRootUpperLimit": 0,
              "noteLowLimit": 0,
              "noteHighLimit": 127,
              "rtr": "RETRIGGER"
            },
            "ctb2High": null
          },
          "notes": []
        },
        "8": {
          "ctab": {
            "srcChannel": 8,
            "name": "drums",
            "accType": "SUBRHYTHM",
            "editable": false,
            "mutedNotes": [],
            "mutedChords": [],
            "autoStart": true,
            "sourceChordNote": 0,
            "sourceChordType": "Maj7",
            "ctb2Low": null,
            "ctb2Main": {
              "ntr": "ROOT_FIXED",
              "ntt": "BYPASS",
              "bassOn": false,
              "chordRootUpperLimit": 6,
              "noteLowLimit": 0,
              "noteHighLimit": 127,
              "rtr": "PITCH_SHIFT"
            },
            "ctb2High": null
          },
          "notes": [
            {
              "pitch": 82,
              "velocity": 78,
              "position": 0,
              "duration": 0.020833333333333332
            },
            {
              "pitch": 82,
              "velocity": 51,
              "position": 0.25,
              "duration": 0.020833333333333332
            },
            {
              "pitch": 82,
              "velocity": 51,
              "position": 0.5,
              "duration": 0.020833333333333332
            },
            {
              "pitch": 82,
              "velocity": 58,
              "position": 0.75,
              "duration": 0.020833333333333332
            },
            {
              "pitch": 82,
              "velocity": 68,
              "position": 1,
              "duration": 0.020833333333333332
            },
            {
              "pitch": 82,
              "velocity": 51,
              "position": 1.25,
              "duration": 0.020833333333333332
            },
            {
              "pitch": 82,
              "velocity": 51,
              "position": 1.5,
              "duration": 0.020833333333333332
            },
            {
              "pitch": 82,
              "velocity": 58,
              "position": 1.75,
              "duration": 0.020833333333333332
            },
            {
              "pitch": 82,
              "velocity": 78,
              "position": 2,
              "duration": 0.020833333333333332
            },
            {
              "pitch": 82,
              "velocity": 51,
              "position": 2.25,
              "duration": 0.020833333333333332
            },
            {
              "pitch": 82,
              "velocity": 51,
              "position": 2.5,
              "duration": 0.020833333333333332
            },
            {
              "pitch": 82,
              "velocity": 58,
              "position": 2.75,
              "duration": 0.020833333333333332
            },
            {
              "pitch": 82,
              "velocity": 68,
              "position": 3,
              "duration": 0.020833333333333332
            },
            {
              "pitch": 82,
              "velocity": 51,
              "position": 3.25,
              "duration": 0.020833333333333332
            },
            {
              "pitch": 82,
              "velocity": 51,
              "position": 3.5,
              "duration": 0.020833333333333332
            },
            {
              "pitch": 82,
              "velocity": 58,
              "position": 3.75,
              "duration": 0.020833333333333332
            },
            {
              "pitch": 82,
              "velocity": 78,
              "position": 4,
              "duration": 0.020833333333333332
            },
            {
              "pitch": 82,
              "velocity": 51,
              "position": 4.25,
              "duration": 0.020833333333333332
            },
            {
              "pitch": 82,
              "velocity": 51,
              "position": 4.5,
              "duration": 0.020833333333333332
            },
            {
              "pitch": 82,
              "velocity": 58,
              "position": 4.75,
              "duration": 0.020833333333333332
            },
            {
              "pitch": 82,
              "velocity": 68,
              "position": 5,
              "duration": 0.020833333333333332
            },
            {
              "pitch": 82,
              "velocity": 51,
              "position": 5.25,
              "duration": 0.020833333333333332
            },
            {
              "pitch": 82,
              "velocity": 51,
              "position": 5.5,
              "duration": 0.020833333333333332
            },
            {
              "pitch": 82,
              "velocity": 58,
              "position": 5.75,
              "duration": 0.020833333333333332
            },
            {
              "pitch": 82,
              "velocity": 78,
              "position": 6,
              "duration": 0.020833333333333332
            },
            {
              "pitch": 82,
              "velocity": 51,
              "position": 6.25,
              "duration": 0.020833333333333332
            },
            {
              "pitch": 82,
              "velocity": 51,
              "position": 6.5,
              "duration": 0.020833333333333332
            },
            {
              "pitch": 82,
              "velocity": 58,
              "position": 6.75,
              "duration": 0.020833333333333332
            },
            {
              "pitch": 82,
              "velocity": 68,
              "position": 7,
              "duration": 0.020833333333333332
            },
            {
              "pitch": 82,
              "velocity": 51,
              "position": 7.25,
              "duration": 0.020833333333333332
            },
            {
              "pitch": 82,
              "velocity": 51,
              "position": 7.5,
              "duration": 0.020833333333333332
            },
            {
              "pitch": 82,
              "velocity": 58,
              "position": 7.75,
              "duration": 0.020833333333333332
            }
          ]
        },
        "9": {
          "ctab": {
            "srcChannel": 9,
            "name": "drums",
            "accType": "RHYTHM",
            "editable": false,
            "mutedNotes": [],
            "mutedChords": [],
            "autoStart": true,
            "sourceChordNote": 0,
            "sourceChordType": "Maj7",
            "ctb2Low": null,
            "ctb2Main": {
              "ntr": "ROOT_FIXED",
              "ntt": "BYPASS",
              "bassOn": false,
              "chordRootUpperLimit": 6,
              "noteLowLimit": 0,
              "noteHighLimit": 127,
              "rtr": "PITCH_SHIFT"
            },
            "ctb2High": null
          },
          "notes": [
            {
              "pitch": 36,
              "velocity": 100,
              "position": 0,
              "duration": 0.020833333333333332
            },
            {
              "pitch": 42,
              "velocity": 84,
              "position": 0,
              "duration": 0.020833333333333332
            },
            {
              "pitch": 42,
              "velocity": 60,
              "position": 0.5,
              "duration": 0.020833333333333332
            },
            {
              "pitch": 42,
              "velocity": 84,
              "position": 1,
              "duration": 0.020833333333333332
            },
            {
              "pitch": 36,
              "velocity": 100,
              "position": 1.5,
              "duration": 0.020833333333333332
            },
            {
              "pitch": 42,
              "velocity": 64,
              "position": 1.5,
              "duration": 0.020833333333333332
            },
            {
              "pitch": 42,
              "velocity": 38,
              "position": 1.75,
              "duration": 0.020833333333333332
            },
            {
              "pitch": 42,
              "velocity": 84,
              "position": 2,
              "duration": 0.020833333333333332
            },
            {
              "pitch": 42,
              "velocity": 55,
              "position": 2.5,
              "duration": 0.020833333333333332
            },
            {
              "pitch": 42,
              "velocity": 38,
              "position": 2.75,
              "duration": 0.020833333333333332
            },
            {
              "pitch": 42,
              "velocity": 84,
              "position": 3,
              "duration": 0.020833333333333332
            },
            {
              "pitch": 54,
              "velocity": 127,
              "position": 3,
              "duration": 0.020833333333333332
            },
            {
              "pitch": 42,
              "velocity": 58,
              "position": 3.5,
              "duration": 0.020833333333333332
            },
            {
              "pitch": 42,
              "velocity": 42,
              "position": 3.75,
              "duration": 0.020833333333333332
            },
            {
              "pitch": 36,
              "velocity": 100,
              "position": 4,
              "duration": 0.020833333333333332
            },
            {
              "pitch": 42,
              "velocity": 84,
              "position": 4,
              "duration": 0.020833333333333332
            },
            {
              "pitch": 42,
              "velocity": 60,
              "position": 4.5,
              "duration": 0.020833333333333332
            },
            {
              "pitch": 36,
              "velocity": 57,
              "position": 4.75,
              "duration": 0.020833333333333332
            },
            {
              "pitch": 42,
              "velocity": 38,
              "position": 4.75,
              "duration": 0.020833333333333332
            },
            {
              "pitch": 42,
              "velocity": 84,
              "position": 5,
              "duration": 0.020833333333333332
            },
            {
              "pitch": 36,
              "velocity": 100,
              "position": 5.5,
              "duration": 0.020833333333333332
            },
            {
              "pitch": 42,
              "velocity": 64,
              "position": 5.5,
              "duration": 0.020833333333333332
            },
            {
              "pitch": 42,
              "velocity": 48,
              "position": 5.75,
              "duration": 0.020833333333333332
            },
            {
              "pitch": 42,
              "velocity": 84,
              "position": 6,
              "duration": 0.020833333333333332
            },
            {
              "pitch": 42,
              "velocity": 55,
              "position": 6.5,
              "duration": 0.020833333333333332
            },
            {
              "pitch": 42,
              "velocity": 38,
              "position": 6.75,
              "duration": 0.020833333333333332
            },
            {
              "pitch": 37,
              "velocity": 93,
              "position": 7,
              "duration": 0.020833333333333332
            },
            {
              "pitch": 42,
              "velocity": 59,
              "position": 7,
              "duration": 0.020833333333333332
            },
            {
              "pitch": 54,
              "velocity": 127,
              "position": 7,
              "duration": 0.020833333333333332
            },
            {
              "pitch": 36,
              "velocity": 57,
              "position": 7.5,
              "duration": 0.020833333333333332
            },
            {
              "pitch": 42,
              "velocity": 59,
              "position": 7.5,
              "duration": 0.020833333333333332
            },
            {
              "pitch": 42,
              "velocity": 42,
              "position": 7.75,
              "duration": 0.020833333333333332
            }
          ]
        },
        "10": {
          "ctab": {
            "srcChannel": 10,
            "name": "bass",
            "accType": "BASS",
            "editable": false,
            "mutedNotes": [],
            "mutedChords": [],
            "autoStart": false,
            "sourceChordNote": 0,
            "sourceChordType": "Maj7",
            "ctb2Low": null,
            "ctb2Main": {
              "ntr": "ROOT_TRANSPOSITION",
              "ntt": "MELODY",
              "bassOn": true,
              "chordRootUpperLimit": 8,
              "noteLowLimit": 28,
              "noteHighLimit": 127,
              "rtr": "PITCH_SHIFT_TO_ROOT"
            },
            "ctb2High": null
          },
          "notes": [
            {
              "pitch": 24,
              "velocity": 80,
              "position": 0,
              "duration": 0.7395833333333334
            },
            {
              "pitch": 24,
              "velocity": 114,
              "position": 0.75,
              "duration": 0.23958333333333334
            },
            {
              "pitch": 24,
              "velocity": 80,
              "position": 1.5,
              "duration": 1.5
            },
            {
              "pitch": 31,
              "velocity": 80,
              "position": 3.5,
              "duration": 0.4791666666666667
            },
            {
              "pitch": 24,
              "velocity": 80,
              "position": 4,
              "duration": 0.7395833333333334
            },
            {
              "pitch": 24,
              "velocity": 114,
              "position": 4.75,
              "duration": 0.23958333333333334
            },
            {
              "pitch": 24,
              "velocity": 80,
              "position": 5.5,
              "duration": 1.5
            },
            {
              "pitch": 31,
              "velocity": 80,
              "position": 7.5,
              "duration": 0.4791666666666667
            }
          ]
        },
        "11": {
          "ctab": {
            "srcChannel": 11,
            "name": "git l",
            "accType": "CHORD1",
            "editable": false,
            "mutedNotes": [],
            "mutedChords": [],
            "autoStart": false,
            "sourceChordNote": 0,
            "sourceChordType": "min7(11)",
            "ctb2Low": null,
            "ctb2Main": {
              "ntr": "ROOT_FIXED",
              "ntt": "CHORD",
              "bassOn": false,
              "chordRootUpperLimit": 7,
              "noteLowLimit": 50,
              "noteHighLimit": 127,
              "rtr": "PITCH_SHIFT"
            },
            "ctb2High": null
          },
          "notes": [
            {
              "pitch": 53,
              "velocity": 98,
              "position": 0,
              "duration": 0.7291666666666666
            },
            {
              "pitch": 58,
              "velocity": 98,
              "position": 0.010416666666666666,
              "duration": 0.71875
            },
            {
              "pitch": 63,
              "velocity": 98,
              "position": 0.020833333333333332,
              "duration": 0.7083333333333334
            },
            {
              "pitch": 63,
              "velocity": 72,
              "position": 0.75,
              "duration": 0.22916666666666666
            },
            {
              "pitch": 58,
              "velocity": 72,
              "position": 0.7604166666666666,
              "duration": 0.21875
            },
            {
              "pitch": 53,
              "velocity": 72,
              "position": 0.7708333333333334,
              "duration": 0.20833333333333334
            },
            {
              "pitch": 53,
              "velocity": 80,
              "position": 1,
              "duration": 0.4791666666666667
            },
            {
              "pitch": 58,
              "velocity": 80,
              "position": 1.0104166666666667,
              "duration": 0.46875
            },
            {
              "pitch": 63,
              "velocity": 80,
              "position": 1.0208333333333333,
              "duration": 0.4583333333333333
            },
            {
              "pitch": 53,
              "velocity": 98,
              "position": 1.5,
              "duration": 1.9791666666666667
            },
            {
              "pitch": 58,
              "velocity": 98,
              "position": 1.5,
              "duration": 1.9791666666666667
            },
            {
              "pitch": 63,
              "velocity": 98,
              "position": 1.5104166666666667,
              "duration": 1.96875
            },
            {
              "pitch": 53,
              "velocity": 80,
              "position": 3.5,
              "duration": 0.4791666666666667
            },
            {
              "pitch": 58,
              "velocity": 80,
              "position": 3.5104166666666665,
              "duration": 0.46875
            },
            {
              "pitch": 63,
              "velocity": 80,
              "position": 3.5208333333333335,
              "duration": 0.4583333333333333
            },
            {
              "pitch": 53,
              "velocity": 98,
              "position": 4,
              "duration": 0.7291666666666666
            },
            {
              "pitch": 58,
              "velocity": 98,
              "position": 4.010416666666667,
              "duration": 0.71875
            },
            {
              "pitch": 63,
              "velocity": 98,
              "position": 4.020833333333333,
              "duration": 0.7083333333333334
            },
            {
              "pitch": 63,
              "velocity": 72,
              "position": 4.75,
              "duration": 0.22916666666666666
            },
            {
              "pitch": 58,
              "velocity": 72,
              "position": 4.760416666666667,
              "duration": 0.21875
            },
            {
              "pitch": 53,
              "velocity": 72,
              "position": 4.770833333333333,
              "duration": 0.20833333333333334
            },
            {
              "pitch": 53,
              "velocity": 80,
              "position": 5,
              "duration": 0.4791666666666667
            },
            {
              "pitch": 58,
              "velocity": 80,
              "position": 5.010416666666667,
              "duration": 0.46875
            },
            {
              "pitch": 63,
              "velocity": 80,
              "position": 5.020833333333333,
              "duration": 0.4583333333333333
            },
            {
              "pitch": 53,
              "velocity": 98,
              "position": 5.5,
              "duration": 0.9791666666666666
            },
            {
              "pitch": 58,
              "velocity": 98,
              "position": 5.510416666666667,
              "duration": 0.96875
            },
            {
              "pitch": 63,
              "velocity": 98,
              "position": 5.520833333333333,
              "duration": 0.9583333333333334
            },
            {
              "pitch": 53,
              "velocity": 80,
              "position": 6.5,
              "duration": 0.4791666666666667
            },
            {
              "pitch": 58,
              "velocity": 80,
              "position": 6.510416666666667,
              "duration": 0.46875
            },
            {
              "pitch": 63,
              "velocity": 80,
              "position": 6.520833333333333,
              "duration": 0.4583333333333333
            },
            {
              "pitch": 53,
              "velocity": 98,
              "position": 7,
              "duration": 0.9791666666666666
            },
            {
              "pitch": 58,
              "velocity": 98,
              "position": 7.010416666666667,
              "duration": 0.96875
            },
            {
              "pitch": 63,
              "velocity": 98,
              "position": 7.020833333333333,
              "duration": 0.9583333333333334
            }
          ]
        },
        "12": {
          "ctab": {
            "srcChannel": 12,
            "name": "git r",
            "accType": "CHORD2",
            "editable": false,
            "mutedNotes": [],
            "mutedChords": [],
            "autoStart": false,
            "sourceChordNote": 0,
            "sourceChordType": "min7(11)",
            "ctb2Low": null,
            "ctb2Main": {
              "ntr": "ROOT_FIXED",
              "ntt": "CHORD",
              "bassOn": false,
              "chordRootUpperLimit": 7,
              "noteLowLimit": 50,
              "noteHighLimit": 127,
              "rtr": "PITCH_SHIFT"
            },
            "ctb2High": null
          },
          "notes": [
            {
              "pitch": 53,
              "velocity": 20,
              "position": 0,
              "duration": 0.7395833333333334
            },
            {
              "pitch": 58,
              "velocity": 20,
              "position": 0.010416666666666666,
              "duration": 0.7291666666666666
            },
            {
              "pitch": 63,
              "velocity": 20,
              "position": 0.020833333333333332,
              "duration": 0.71875
            },
            {
              "pitch": 63,
              "velocity": 11,
              "position": 0.75,
              "duration": 0.7395833333333334
            },
            {
              "pitch": 58,
              "velocity": 11,
              "position": 0.7604166666666666,
              "duration": 0.7291666666666666
            },
            {
              "pitch": 53,
              "velocity": 11,
              "position": 0.7708333333333334,
              "duration": 0.71875
            },
            {
              "pitch": 53,
              "velocity": 20,
              "position": 1.5,
              "duration": 0.9895833333333334
            },
            {
              "pitch": 58,
              "velocity": 20,
              "position": 1.5104166666666667,
              "duration": 0.9791666666666666
            },
            {
              "pitch": 63,
              "velocity": 20,
              "position": 1.5208333333333333,
              "duration": 0.96875
            },
            {
              "pitch": 63,
              "velocity": 11,
              "position": 2.5,
              "duration": 0.4895833333333333
            },
            {
              "pitch": 58,
              "velocity": 11,
              "position": 2.5104166666666665,
              "duration": 0.4791666666666667
            },
            {
              "pitch": 53,
              "velocity": 10,
              "position": 2.5208333333333335,
              "duration": 0.46875
            },
            {
              "pitch": 53,
              "velocity": 10,
              "position": 3,
              "duration": 0.9895833333333334
            },
            {
              "pitch": 58,
              "velocity": 10,
              "position": 3.0104166666666665,
              "duration": 0.9791666666666666
            },
            {
              "pitch": 63,
              "velocity": 10,
              "position": 3.0208333333333335,
              "duration": 0.96875
            },
            {
              "pitch": 53,
              "velocity": 20,
              "position": 4,
              "duration": 0.7395833333333334
            },
            {
              "pitch": 58,
              "velocity": 20,
              "position": 4.010416666666667,
              "duration": 0.7291666666666666
            },
            {
              "pitch": 63,
              "velocity": 20,
              "position": 4.020833333333333,
              "duration": 0.71875
            },
            {
              "pitch": 63,
              "velocity": 11,
              "position": 4.75,
              "duration": 0.7395833333333334
            },
            {
              "pitch": 58,
              "velocity": 11,
              "position": 4.760416666666667,
              "duration": 0.7291666666666666
            },
            {
              "pitch": 53,
              "velocity": 11,
              "position": 4.770833333333333,
              "duration": 0.71875
            },
            {
              "pitch": 53,
              "velocity": 20,
              "position": 5.5,
              "duration": 0.7395833333333334
            },
            {
              "pitch": 58,
              "velocity": 20,
              "position": 5.510416666666667,
              "duration": 0.7291666666666666
            },
            {
              "pitch": 63,
              "velocity": 20,
              "position": 5.520833333333333,
              "duration": 0.71875
            },
            {
              "pitch": 63,
              "velocity": 11,
              "position": 6.25,
              "duration": 0.7395833333333334
            },
            {
              "pitch": 58,
              "velocity": 11,
              "position": 6.260416666666667,
              "duration": 0.7291666666666666
            },
            {
              "pitch": 53,
              "velocity": 10,
              "position": 6.270833333333333,
              "duration": 0.71875
            },
            {
              "pitch": 53,
              "velocity": 10,
              "position": 7,
              "duration": 0.4895833333333333
            },
            {
              "pitch": 58,
              "velocity": 10,
              "position": 7.010416666666667,
              "duration": 0.4791666666666667
            },
            {
              "pitch": 63,
              "velocity": 10,
              "position": 7.020833333333333,
              "duration": 0.46875
            },
            {
              "pitch": 63,
              "velocity": 11,
              "position": 7.5,
              "duration": 0.23958333333333334
            },
            {
              "pitch": 58,
              "velocity": 11,
              "position": 7.510416666666667,
              "duration": 0.22916666666666666
            },
            {
              "pitch": 53,
              "velocity": 11,
              "position": 7.520833333333333,
              "duration": 0.21875
            },
            {
              "pitch": 53,
              "velocity": 10,
              "position": 7.75,
              "duration": 0.23958333333333334
            },
            {
              "pitch": 58,
              "velocity": 10,
              "position": 7.760416666666667,
              "duration": 0.22916666666666666
            },
            {
              "pitch": 63,
              "velocity": 10,
              "position": 7.770833333333333,
              "duration": 0.21875
            }
          ]
        },
        "13": {
          "ctab": {
            "srcChannel": 13,
            "name": "strng",
            "accType": "PAD",
            "editable": false,
            "mutedNotes": [],
            "mutedChords": [],
            "autoStart": false,
            "sourceChordNote": 0,
            "sourceChordType": "min7(11)",
            "ctb2Low": null,
            "ctb2Main": {
              "ntr": "ROOT_FIXED",
              "ntt": "CHORD",
              "bassOn": false,
              "chordRootUpperLimit": 7,
              "noteLowLimit": 50,
              "noteHighLimit": 127,
              "rtr": "PITCH_SHIFT"
            },
            "ctb2High": null
          },
          "notes": [
            {
              "pitch": 53,
              "velocity": 68,
              "position": 0,
              "duration": 7.989583333333333
            },
            {
              "pitch": 58,
              "velocity": 68,
              "position": 0,
              "duration": 7.989583333333333
            },
            {
              "pitch": 63,
              "velocity": 68,
              "position": 0,
              "duration": 7.989583333333333
            }
          ]
        },
        "14": {
          "ctab": {
            "srcChannel": 14,
            "name": "git 3",
            "accType": "PHRASE1",
            "editable": false,
            "mutedNotes": [],
            "mutedChords": [],
            "autoStart": false,
            "sourceChordNote": 0,
            "sourceChordType": "min7(11)",
            "ctb2Low": null,
            "ctb2Main": {
              "ntr": "ROOT_FIXED",
              "ntt": "CHORD",
              "bassOn": false,
              "chordRootUpperLimit": 7,
              "noteLowLimit": 50,
              "noteHighLimit": 127,
              "rtr": "PITCH_SHIFT"
            },
            "ctb2High": null
          },
          "notes": []
        }
      }
    },
    "Main_B": {
      "type": "Main_B",
      "sizeInBeats": 8,
      "channels": {
        "1": {
          "ctab": {
            "srcChannel": 1,
            "name": "Git root",
            "accType": "CHORD1",
            "editable": false,
            "mutedNotes": [],
            "mutedChords": [
              "1+2+5",
              "sus4",
              "1+5",
              "1+8",
              "Maj7aug",
              "dim",
              "minMaj7(9)",
              "minMaj7",
              "min6",
              "min",
              "aug",
              "Maj7(9)",
              "Maj7#11",
              "Maj7",
              "Maj6",
              "Maj"
            ],
            "autoStart": false,
            "sourceChordNote": 0,
            "sourceChordType": "Maj7",
            "ctb2Low": null,
            "ctb2Main": {
              "ntr": "ROOT_TRANSPOSITION",
              "ntt": "CHORD",
              "bassOn": false,
              "chordRootUpperLimit": 6,
              "noteLowLimit": 0,
              "noteHighLimit": 127,
              "rtr": "PITCH_SHIFT"
            },
            "ctb2High": null
          },
          "notes": [
            {
              "pitch": 60,
              "velocity": 101,
              "position": 0,
              "duration": 0.75
            },
            {
              "pitch": 60,
              "velocity": 72,
              "position": 0.7708333333333334,
              "duration": 0.20833333333333334
            },
            {
              "pitch": 60,
              "velocity": 80,
              "position": 1,
              "duration": 0.4791666666666667
            },
            {
              "pitch": 60,
              "velocity": 100,
              "position": 1.5,
              "duration": 0.9791666666666666
            },
            {
              "pitch": 60,
              "velocity": 76,
              "position": 2.5,
              "duration": 0.4791666666666667
            },
            {
              "pitch": 60,
              "velocity": 100,
              "position": 3,
              "duration": 0.9791666666666666
            },
            {
              "pitch": 60,
              "velocity": 101,
              "position": 4,
              "duration": 0.25
            },
            {
              "pitch": 60,
              "velocity": 83,
              "position": 4.270833333333333,
              "duration": 0.4791666666666667
            },
            {
              "pitch": 60,
              "velocity": 75,
              "position": 4.770833333333333,
              "duration": 0.20833333333333334
            },
            {
              "pitch": 60,
              "velocity": 80,
              "position": 5,
              "duration": 0.4791666666666667
            },
            {
              "pitch": 60,
              "velocity": 100,
              "position": 5.5,
              "duration": 0.75
            },
            {
              "pitch": 60,
              "velocity": 69,
              "position": 6.270833333333333,
              "duration": 0.20833333333333334
            },
            {
              "pitch": 60,
              "velocity": 69,
              "position": 6.5,
              "duration": 0.4791666666666667
            },
            {
              "pitch": 60,
              "velocity": 100,
              "position": 7,
              "duration": 0.9791666666666666
            }
          ]
        },
        "2": {
          "ctab": {
            "srcChannel": 2,
            "name": "str root",
            "accType": "PAD",
            "editable": false,
            "mutedNotes": [],
            "mutedChords": [
              "1+2+5",
              "sus4",
              "1+5",
              "1+8",
              "Maj7aug",
              "dim",
              "minMaj7(9)",
              "minMaj7",
              "min6",
              "min",
              "aug",
              "Maj7(9)",
              "Maj7#11",
              "Maj7",
              "Maj6",
              "Maj"
            ],
            "autoStart": false,
            "sourceChordNote": 0,
            "sourceChordType": "Maj7",
            "ctb2Low": null,
            "ctb2Main": {
              "ntr": "ROOT_TRANSPOSITION",
              "ntt": "CHORD",
              "bassOn": false,
              "chordRootUpperLimit": 6,
              "noteLowLimit": 0,
              "noteHighLimit": 127,
              "rtr": "PITCH_SHIFT"
            },
            "ctb2High": null
          },
          "notes": [
            {
              "pitch": 60,
              "velocity": 68,
              "position": 0,
              "duration": 7.979166666666667
            }
          ]
        },
        "6": {
          "ctab": {
            "srcChannel": 6,
            "name": "CleanFX",
            "accType": "CHORD2",
            "editable": false,
            "mutedNotes": [],
            "mutedChords": [],
            "autoStart": false,
            "sourceChordNote": 0,
            "sourceChordType": "Maj",
            "ctb2Low": null,
            "ctb2Main": {
              "ntr": "ROOT_FIXED",
              "ntt": "BYPASS",
              "bassOn": false,
              "chordRootUpperLimit": 7,
              "noteLowLimit": 0,
              "noteHighLimit": 79,
              "rtr": "PITCH_SHIFT"
            },
            "ctb2High": null
          },
          "notes": [
            {
              "pitch": 100,
              "velocity": 87,
              "position": 0,
              "duration": 0.23958333333333334
            },
            {
              "pitch": 101,
              "velocity": 78,
              "position": 0.5,
              "duration": 0.23958333333333334
            },
            {
              "pitch": 100,
              "velocity": 87,
              "position": 1,
              "duration": 0.23958333333333334
            },
            {
              "pitch": 101,
              "velocity": 78,
              "position": 1.5,
              "duration": 0.23958333333333334
            },
            {
              "pitch": 101,
              "velocity": 78,
              "position": 2.5,
              "duration": 0.23958333333333334
            },
            {
              "pitch": 100,
              "velocity": 87,
              "position": 3,
              "duration": 0.23958333333333334
            },
            {
              "pitch": 101,
              "velocity": 78,
              "position": 3.5,
              "duration": 0.23958333333333334
            },
            {
              "pitch": 100,
              "velocity": 87,
              "position": 4,
              "duration": 0.23958333333333334
            },
            {
              "pitch": 101,
              "velocity": 78,
              "position": 4.5,
              "duration": 0.23958333333333334
            },
            {
              "pitch": 100,
              "velocity": 87,
              "position": 5,
              "duration": 0.23958333333333334
            },
            {
              "pitch": 101,
              "velocity": 78,
              "position": 5.5,
              "duration": 0.23958333333333334
            },
            {
              "pitch": 101,
              "velocity": 78,
              "position": 6.5,
              "duration": 0.23958333333333334
            },
            {
              "pitch": 100,
              "velocity": 87,
              "position": 7,
              "duration": 0.23958333333333334
            },
            {
              "pitch": 99,
              "velocity": 78,
              "position": 7.5,
              "duration": 0.23958333333333334
            }
          ]
        },
        "7": {
          "ctab": {
            "srcChannel": 7,
            "name": "CC_Crash",
            "accType": "RHYTHM",
            "editable": false,
            "mutedNotes": [],
            "mutedChords": [
              "1+2+5",
              "sus4",
              "1+5",
              "1+8",
              "7aug",
              "Maj7aug",
              "7(#9)",
              "7(b13)",
              "7(b9)",
              "7(13)",
              "7#11",
              "7(9)",
              "7b5",
              "7sus4",
              "7th",
              "dim7",
              "dim",
              "minMaj7(9)",
              "minMaj7",
              "min7(11)",
              "min7(9)",
              "min(9)",
              "m7b5",
              "min7",
              "min6",
              "min",
              "aug",
              "Maj6(9)",
              "Maj7(9)",
              "Maj(9)",
              "Maj7#11",
              "Maj7",
              "Maj6",
              "Maj"
            ],
            "autoStart": true,
            "sourceChordNote": 0,
            "sourceChordType": "Maj",
            "ctb2Low": null,
            "ctb2Main": {
              "ntr": "ROOT_FIXED",
              "ntt": "BYPASS",
              "bassOn": false,
              "chordRootUpperLimit": 0,
              "noteLowLimit": 0,
              "noteHighLimit": 127,
              "rtr": "RETRIGGER"
            },
            "ctb2High": null
          },
          "notes": []
        },
        "8": {
          "ctab": {
            "srcChannel": 8,
            "name": "drums",
            "accType": "SUBRHYTHM",
            "editable": false,
            "mutedNotes": [],
            "mutedChords": [],
            "autoStart": true,
            "sourceChordNote": 0,
            "sourceChordType": "Maj7",
            "ctb2Low": null,
            "ctb2Main": {
              "ntr": "ROOT_FIXED",
              "ntt": "BYPASS",
              "bassOn": false,
              "chordRootUpperLimit": 6,
              "noteLowLimit": 0,
              "noteHighLimit": 127,
              "rtr": "PITCH_SHIFT"
            },
            "ctb2High": null
          },
          "notes": [
            {
              "pitch": 82,
              "velocity": 78,
              "position": 0,
              "duration": 0.020833333333333332
            },
            {
              "pitch": 82,
              "velocity": 51,
              "position": 0.25,
              "duration": 0.020833333333333332
            },
            {
              "pitch": 82,
              "velocity": 51,
              "position": 0.5,
              "duration": 0.020833333333333332
            },
            {
              "pitch": 82,
              "velocity": 58,
              "position": 0.75,
              "duration": 0.020833333333333332
            },
            {
              "pitch": 82,
              "velocity": 68,
              "position": 1,
              "duration": 0.020833333333333332
            },
            {
              "pitch": 82,
              "velocity": 51,
              "position": 1.25,
              "duration": 0.020833333333333332
            },
            {
              "pitch": 82,
              "velocity": 51,
              "position": 1.5,
              "duration": 0.020833333333333332
            },
            {
              "pitch": 82,
              "velocity": 58,
              "position": 1.75,
              "duration": 0.020833333333333332
            },
            {
              "pitch": 82,
              "velocity": 78,
              "position": 2,
              "duration": 0.020833333333333332
            },
            {
              "pitch": 82,
              "velocity": 51,
              "position": 2.25,
              "duration": 0.020833333333333332
            },
            {
              "pitch": 63,
              "velocity": 102,
              "position": 2.5,
              "duration": 0.020833333333333332
            },
            {
              "pitch": 82,
              "velocity": 51,
              "position": 2.5,
              "duration": 0.020833333333333332
            },
            {
              "pitch": 82,
              "velocity": 58,
              "position": 2.75,
              "duration": 0.020833333333333332
            },
            {
              "pitch": 64,
              "velocity": 71,
              "position": 3,
              "duration": 0.020833333333333332
            },
            {
              "pitch": 82,
              "velocity": 68,
              "position": 3,
              "duration": 0.020833333333333332
            },
            {
              "pitch": 82,
              "velocity": 51,
              "position": 3.25,
              "duration": 0.020833333333333332
            },
            {
              "pitch": 64,
              "velocity": 76,
              "position": 3.5,
              "duration": 0.020833333333333332
            },
            {
              "pitch": 82,
              "velocity": 51,
              "position": 3.5,
              "duration": 0.020833333333333332
            },
            {
              "pitch": 82,
              "velocity": 58,
              "position": 3.75,
              "duration": 0.020833333333333332
            },
            {
              "pitch": 82,
              "velocity": 78,
              "position": 4,
              "duration": 0.020833333333333332
            },
            {
              "pitch": 82,
              "velocity": 51,
              "position": 4.25,
              "duration": 0.020833333333333332
            },
            {
              "pitch": 82,
              "velocity": 51,
              "position": 4.5,
              "duration": 0.020833333333333332
            },
            {
              "pitch": 82,
              "velocity": 58,
              "position": 4.75,
              "duration": 0.020833333333333332
            },
            {
              "pitch": 82,
              "velocity": 68,
              "position": 5,
              "duration": 0.020833333333333332
            },
            {
              "pitch": 82,
              "velocity": 51,
              "position": 5.25,
              "duration": 0.020833333333333332
            },
            {
              "pitch": 82,
              "velocity": 51,
              "position": 5.5,
              "duration": 0.020833333333333332
            },
            {
              "pitch": 82,
              "velocity": 58,
              "position": 5.75,
              "duration": 0.020833333333333332
            },
            {
              "pitch": 82,
              "velocity": 78,
              "position": 6,
              "duration": 0.020833333333333332
            },
            {
              "pitch": 82,
              "velocity": 51,
              "position": 6.25,
              "duration": 0.020833333333333332
            },
            {
              "pitch": 63,
              "velocity": 90,
              "position": 6.5,
              "duration": 0.020833333333333332
            },
            {
              "pitch": 82,
              "velocity": 51,
              "position": 6.5,
              "duration": 0.020833333333333332
            },
            {
              "pitch": 82,
              "velocity": 58,
              "position": 6.75,
              "duration": 0.020833333333333332
            },
            {
              "pitch": 64,
              "velocity": 72,
              "position": 7,
              "duration": 0.020833333333333332
            },
            {
              "pitch": 82,
              "velocity": 68,
              "position": 7,
              "duration": 0.020833333333333332
            },
            {
              "pitch": 82,
              "velocity": 51,
              "position": 7.25,
              "duration": 0.020833333333333332
            },
            {
              "pitch": 64,
              "velocity": 80,
              "position": 7.5,
              "duration": 0.020833333333333332
            },
            {
              "pitch": 82,
              "velocity": 51,
              "position": 7.5,
              "duration": 0.020833333333333332
            },
            {
              "pitch": 82,
              "velocity": 58,
              "position": 7.75,
              "duration": 0.020833333333333332
            }
          ]
        },
        "9": {
          "ctab": {
            "srcChannel": 9,
            "name": "drums",
            "accType": "RHYTHM",
            "editable": false,
            "mutedNotes": [],
            "mutedChords": [],
            "autoStart": true,
            "sourceChordNote": 0,
            "sourceChordType": "Maj7",
            "ctb2Low": null,
            "ctb2Main": {
              "ntr": "ROOT_FIXED",
              "ntt": "BYPASS",
              "bassOn": false,
              "chordRootUpperLimit": 6,
              "noteLowLimit": 0,
              "noteHighLimit": 127,
              "rtr": "PITCH_SHIFT"
            },
            "ctb2High": null
          },
          "notes": [
            {
              "pitch": 36,
              "velocity": 100,
              "position": 0,
              "duration": 0.020833333333333332
            },
            {
              "pitch": 42,
              "velocity": 84,
              "position": 0,
              "duration": 0.020833333333333332
            },
            {
              "pitch": 42,
              "velocity": 56,
              "position": 0.5,
              "duration": 0.020833333333333332
            },
            {
              "pitch": 36,
              "velocity": 74,
              "position": 0.75,
              "duration": 0.020833333333333332
            },
            {
              "pitch": 42,
              "velocity": 39,
              "position": 0.75,
              "duration": 0.020833333333333332
            },
            {
              "pitch": 40,
              "velocity": 90,
              "position": 1,
              "duration": 0.020833333333333332
            },
            {
              "pitch": 42,
              "velocity": 84,
              "position": 1,
              "duration": 0.020833333333333332
            },
            {
              "pitch": 36,
              "velocity": 100,
              "position": 1.5,
              "duration": 0.020833333333333332
            },
            {
              "pitch": 42,
              "velocity": 60,
              "position": 1.5,
              "duration": 0.020833333333333332
            },
            {
              "pitch": 42,
              "velocity": 43,
              "position": 1.75,
              "duration": 0.020833333333333332
            },
            {
              "pitch": 42,
              "velocity": 84,
              "position": 2,
              "duration": 0.020833333333333332
            },
            {
              "pitch": 36,
              "velocity": 74,
              "position": 2.5,
              "duration": 0.020833333333333332
            },
            {
              "pitch": 42,
              "velocity": 51,
              "position": 2.5,
              "duration": 0.020833333333333332
            },
            {
              "pitch": 42,
              "velocity": 34,
              "position": 2.75,
              "duration": 0.020833333333333332
            },
            {
              "pitch": 40,
              "velocity": 90,
              "position": 3,
              "duration": 0.020833333333333332
            },
            {
              "pitch": 42,
              "velocity": 84,
              "position": 3,
              "duration": 0.020833333333333332
            },
            {
              "pitch": 42,
              "velocity": 54,
              "position": 3.5,
              "duration": 0.020833333333333332
            },
            {
              "pitch": 42,
              "velocity": 37,
              "position": 3.75,
              "duration": 0.020833333333333332
            },
            {
              "pitch": 36,
              "velocity": 100,
              "position": 4,
              "duration": 0.020833333333333332
            },
            {
              "pitch": 42,
              "velocity": 84,
              "position": 4,
              "duration": 0.020833333333333332
            },
            {
              "pitch": 42,
              "velocity": 56,
              "position": 4.5,
              "duration": 0.020833333333333332
            },
            {
              "pitch": 36,
              "velocity": 74,
              "position": 4.75,
              "duration": 0.020833333333333332
            },
            {
              "pitch": 42,
              "velocity": 39,
              "position": 4.75,
              "duration": 0.020833333333333332
            },
            {
              "pitch": 40,
              "velocity": 90,
              "position": 5,
              "duration": 0.020833333333333332
            },
            {
              "pitch": 42,
              "velocity": 84,
              "position": 5,
              "duration": 0.020833333333333332
            },
            {
              "pitch": 36,
              "velocity": 100,
              "position": 5.5,
              "duration": 0.020833333333333332
            },
            {
              "pitch": 42,
              "velocity": 60,
              "position": 5.5,
              "duration": 0.020833333333333332
            },
            {
              "pitch": 42,
              "velocity": 43,
              "position": 5.75,
              "duration": 0.020833333333333332
            },
            {
              "pitch": 42,
              "velocity": 84,
              "position": 6,
              "duration": 0.020833333333333332
            },
            {
              "pitch": 36,
              "velocity": 74,
              "position": 6.5,
              "duration": 0.020833333333333332
            },
            {
              "pitch": 42,
              "velocity": 51,
              "position": 6.5,
              "duration": 0.020833333333333332
            },
            {
              "pitch": 42,
              "velocity": 34,
              "position": 6.75,
              "duration": 0.020833333333333332
            },
            {
              "pitch": 40,
              "velocity": 90,
              "position": 7,
              "duration": 0.020833333333333332
            },
            {
              "pitch": 42,
              "velocity": 84,
              "position": 7,
              "duration": 0.020833333333333332
            },
            {
              "pitch": 42,
              "velocity": 54,
              "position": 7.5,
              "duration": 0.020833333333333332
            },
            {
              "pitch": 42,
              "velocity": 37,
              "position": 7.75,
              "duration": 0.020833333333333332
            }
          ]
        },
        "10": {
          "ctab": {
            "srcChannel": 10,
            "name": "bass",
            "accType": "BASS",
            "editable": false,
            "mutedNotes": [],
            "mutedChords": [],
            "autoStart": false,
            "sourceChordNote": 0,
            "sourceChordType": "Maj7",
            "ctb2Low": null,
            "ctb2Main": {
              "ntr": "ROOT_TRANSPOSITION",
              "ntt": "MELODY",
              "bassOn": true,
              "chordRootUpperLimit": 8,
              "noteLowLimit": 28,
              "noteHighLimit": 127,
              "rtr": "PITCH_SHIFT_TO_ROOT"
            },
            "ctb2High": null
          },
          "notes": [
            {
              "pitch": 24,
              "velocity": 80,
              "position": 0,
              "duration": 0.7395833333333334
            },
            {
              "pitch": 24,
              "velocity": 114,
              "position": 0.75,
              "duration": 0.23958333333333334
            },
            {
              "pitch": 24,
              "velocity": 80,
              "position": 1.5,
              "duration": 0.9895833333333334
            },
            {
              "pitch": 24,
              "velocity": 114,
              "position": 2.5,
              "duration": 0.23958333333333334
            },
            {
              "pitch": 31,
              "velocity": 80,
              "position": 3.5,
              "duration": 0.4791666666666667
            },
            {
              "pitch": 24,
              "velocity": 80,
              "position": 4,
              "duration": 0.7395833333333334
            },
            {
              "pitch": 24,
              "velocity": 114,
              "position": 4.75,
              "duration": 0.23958333333333334
            },
            {
              "pitch": 24,
              "velocity": 80,
              "position": 5.5,
              "duration": 0.9895833333333334
            },
            {
              "pitch": 24,
              "velocity": 114,
              "position": 6.5,
              "duration": 0.23958333333333334
            },
            {
              "pitch": 31,
              "velocity": 80,
              "position": 7.5,
              "duration": 0.4791666666666667
            }
          ]
        },
        "11": {
          "ctab": {
            "srcChannel": 11,
            "name": "git l",
            "accType": "CHORD1",
            "editable": false,
            "mutedNotes": [],
            "mutedChords": [],
            "autoStart": false,
            "sourceChordNote": 0,
            "sourceChordType": "min7(11)",
            "ctb2Low": null,
            "ctb2Main": {
              "ntr": "ROOT_FIXED",
              "ntt": "CHORD",
              "bassOn": false,
              "chordRootUpperLimit": 7,
              "noteLowLimit": 50,
              "noteHighLimit": 127,
              "rtr": "PITCH_SHIFT"
            },
            "ctb2High": null
          },
          "notes": [
            {
              "pitch": 53,
              "velocity": 101,
              "position": 0,
              "duration": 0.7291666666666666
            },
            {
              "pitch": 58,
              "velocity": 101,
              "position": 0,
              "duration": 0.7291666666666666
            },
            {
              "pitch": 63,
              "velocity": 101,
              "position": 0.010416666666666666,
              "duration": 0.71875
            },
            {
              "pitch": 63,
              "velocity": 72,
              "position": 0.75,
              "duration": 0.22916666666666666
            },
            {
              "pitch": 58,
              "velocity": 72,
              "position": 0.7604166666666666,
              "duration": 0.21875
            },
            {
              "pitch": 53,
              "velocity": 72,
              "position": 0.7708333333333334,
              "duration": 0.20833333333333334
            },
            {
              "pitch": 53,
              "velocity": 80,
              "position": 1,
              "duration": 0.4791666666666667
            },
            {
              "pitch": 58,
              "velocity": 80,
              "position": 1.0104166666666667,
              "duration": 0.46875
            },
            {
              "pitch": 63,
              "velocity": 80,
              "position": 1.0208333333333333,
              "duration": 0.4583333333333333
            },
            {
              "pitch": 53,
              "velocity": 100,
              "position": 1.5,
              "duration": 0.9791666666666666
            },
            {
              "pitch": 58,
              "velocity": 100,
              "position": 1.5,
              "duration": 0.9791666666666666
            },
            {
              "pitch": 63,
              "velocity": 100,
              "position": 1.5104166666666667,
              "duration": 0.96875
            },
            {
              "pitch": 53,
              "velocity": 76,
              "position": 2.5,
              "duration": 0.4791666666666667
            },
            {
              "pitch": 58,
              "velocity": 76,
              "position": 2.5104166666666665,
              "duration": 0.46875
            },
            {
              "pitch": 63,
              "velocity": 76,
              "position": 2.5208333333333335,
              "duration": 0.4583333333333333
            },
            {
              "pitch": 53,
              "velocity": 100,
              "position": 3,
              "duration": 0.9791666666666666
            },
            {
              "pitch": 58,
              "velocity": 100,
              "position": 3,
              "duration": 0.9791666666666666
            },
            {
              "pitch": 63,
              "velocity": 100,
              "position": 3.0104166666666665,
              "duration": 0.96875
            },
            {
              "pitch": 53,
              "velocity": 101,
              "position": 4,
              "duration": 0.22916666666666666
            },
            {
              "pitch": 58,
              "velocity": 101,
              "position": 4,
              "duration": 0.22916666666666666
            },
            {
              "pitch": 63,
              "velocity": 101,
              "position": 4.010416666666667,
              "duration": 0.21875
            },
            {
              "pitch": 63,
              "velocity": 83,
              "position": 4.25,
              "duration": 0.4791666666666667
            },
            {
              "pitch": 58,
              "velocity": 83,
              "position": 4.260416666666667,
              "duration": 0.46875
            },
            {
              "pitch": 53,
              "velocity": 83,
              "position": 4.270833333333333,
              "duration": 0.4583333333333333
            },
            {
              "pitch": 63,
              "velocity": 75,
              "position": 4.75,
              "duration": 0.22916666666666666
            },
            {
              "pitch": 58,
              "velocity": 75,
              "position": 4.760416666666667,
              "duration": 0.21875
            },
            {
              "pitch": 53,
              "velocity": 75,
              "position": 4.770833333333333,
              "duration": 0.20833333333333334
            },
            {
              "pitch": 53,
              "velocity": 80,
              "position": 5,
              "duration": 0.4791666666666667
            },
            {
              "pitch": 58,
              "velocity": 80,
              "position": 5.010416666666667,
              "duration": 0.46875
            },
            {
              "pitch": 63,
              "velocity": 80,
              "position": 5.020833333333333,
              "duration": 0.4583333333333333
            },
            {
              "pitch": 53,
              "velocity": 100,
              "position": 5.5,
              "duration": 0.7291666666666666
            },
            {
              "pitch": 58,
              "velocity": 100,
              "position": 5.5,
              "duration": 0.7291666666666666
            },
            {
              "pitch": 63,
              "velocity": 100,
              "position": 5.510416666666667,
              "duration": 0.71875
            },
            {
              "pitch": 63,
              "velocity": 69,
              "position": 6.25,
              "duration": 0.22916666666666666
            },
            {
              "pitch": 58,
              "velocity": 69,
              "position": 6.260416666666667,
              "duration": 0.21875
            },
            {
              "pitch": 53,
              "velocity": 69,
              "position": 6.270833333333333,
              "duration": 0.20833333333333334
            },
            {
              "pitch": 53,
              "velocity": 69,
              "position": 6.5,
              "duration": 0.4791666666666667
            },
            {
              "pitch": 58,
              "velocity": 69,
              "position": 6.510416666666667,
              "duration": 0.46875
            },
            {
              "pitch": 63,
              "velocity": 69,
              "position": 6.520833333333333,
              "duration": 0.4583333333333333
            },
            {
              "pitch": 53,
              "velocity": 100,
              "position": 7,
              "duration": 0.9791666666666666
            },
            {
              "pitch": 58,
              "velocity": 100,
              "position": 7,
              "duration": 0.9791666666666666
            },
            {
              "pitch": 63,
              "velocity": 100,
              "position": 7.010416666666667,
              "duration": 0.96875
            }
          ]
        },
        "12": {
          "ctab": {
            "srcChannel": 12,
            "name": "git r",
            "accType": "CHORD2",
            "editable": false,
            "mutedNotes": [],
            "mutedChords": [],
            "autoStart": false,
            "sourceChordNote": 0,
            "sourceChordType": "min7(11)",
            "ctb2Low": null,
            "ctb2Main": {
              "ntr": "ROOT_FIXED",
              "ntt": "CHORD",
              "bassOn": false,
              "chordRootUpperLimit": 7,
              "noteLowLimit": 50,
              "noteHighLimit": 127,
              "rtr": "PITCH_SHIFT"
            },
            "ctb2High": null
          },
          "notes": [
            {
              "pitch": 53,
              "velocity": 20,
              "position": 0,
              "duration": 0.4895833333333333
            },
            {
              "pitch": 58,
              "velocity": 20,
              "position": 0.010416666666666666,
              "duration": 0.4791666666666667
            },
            {
              "pitch": 63,
              "velocity": 20,
              "position": 0.020833333333333332,
              "duration": 0.46875
            },
            {
              "pitch": 63,
              "velocity": 11,
              "position": 0.5,
              "duration": 0.4895833333333333
            },
            {
              "pitch": 58,
              "velocity": 11,
              "position": 0.5104166666666666,
              "duration": 0.4791666666666667
            },
            {
              "pitch": 53,
              "velocity": 11,
              "position": 0.5208333333333334,
              "duration": 0.46875
            },
            {
              "pitch": 53,
              "velocity": 20,
              "position": 1,
              "duration": 0.4895833333333333
            },
            {
              "pitch": 58,
              "velocity": 20,
              "position": 1.0104166666666667,
              "duration": 0.4791666666666667
            },
            {
              "pitch": 63,
              "velocity": 20,
              "position": 1.0208333333333333,
              "duration": 0.46875
            },
            {
              "pitch": 63,
              "velocity": 11,
              "position": 1.5,
              "duration": 0.9895833333333334
            },
            {
              "pitch": 58,
              "velocity": 11,
              "position": 1.5104166666666667,
              "duration": 0.9791666666666666
            },
            {
              "pitch": 53,
              "velocity": 11,
              "position": 1.5208333333333333,
              "duration": 0.96875
            },
            {
              "pitch": 63,
              "velocity": 11,
              "position": 2.5,
              "duration": 0.4895833333333333
            },
            {
              "pitch": 58,
              "velocity": 11,
              "position": 2.5104166666666665,
              "duration": 0.4791666666666667
            },
            {
              "pitch": 53,
              "velocity": 11,
              "position": 2.5208333333333335,
              "duration": 0.46875
            },
            {
              "pitch": 53,
              "velocity": 20,
              "position": 3,
              "duration": 0.4895833333333333
            },
            {
              "pitch": 58,
              "velocity": 11,
              "position": 3.0104166666666665,
              "duration": 0.4791666666666667
            },
            {
              "pitch": 63,
              "velocity": 20,
              "position": 3.0208333333333335,
              "duration": 0.46875
            },
            {
              "pitch": 63,
              "velocity": 11,
              "position": 3.5,
              "duration": 0.4895833333333333
            },
            {
              "pitch": 58,
              "velocity": 11,
              "position": 3.5104166666666665,
              "duration": 0.4791666666666667
            },
            {
              "pitch": 53,
              "velocity": 11,
              "position": 3.5208333333333335,
              "duration": 0.46875
            },
            {
              "pitch": 53,
              "velocity": 20,
              "position": 4,
              "duration": 0.4895833333333333
            },
            {
              "pitch": 58,
              "velocity": 20,
              "position": 4.010416666666667,
              "duration": 0.4791666666666667
            },
            {
              "pitch": 63,
              "velocity": 20,
              "position": 4.020833333333333,
              "duration": 0.46875
            },
            {
              "pitch": 63,
              "velocity": 11,
              "position": 4.5,
              "duration": 0.4895833333333333
            },
            {
              "pitch": 58,
              "velocity": 11,
              "position": 4.510416666666667,
              "duration": 0.4791666666666667
            },
            {
              "pitch": 53,
              "velocity": 11,
              "position": 4.520833333333333,
              "duration": 0.46875
            },
            {
              "pitch": 53,
              "velocity": 20,
              "position": 5,
              "duration": 0.4895833333333333
            },
            {
              "pitch": 58,
              "velocity": 20,
              "position": 5.010416666666667,
              "duration": 0.4791666666666667
            },
            {
              "pitch": 63,
              "velocity": 20,
              "position": 5.020833333333333,
              "duration": 0.46875
            },
            {
              "pitch": 63,
              "velocity": 11,
              "position": 5.5,
              "duration": 0.9895833333333334
            },
            {
              "pitch": 58,
              "velocity": 11,
              "position": 5.510416666666667,
              "duration": 0.9791666666666666
            },
            {
              "pitch": 53,
              "velocity": 11,
              "position": 5.520833333333333,
              "duration": 0.96875
            },
            {
              "pitch": 63,
              "velocity": 11,
              "position": 6.5,
              "duration": 0.4895833333333333
            },
            {
              "pitch": 58,
              "velocity": 11,
              "position": 6.510416666666667,
              "duration": 0.4791666666666667
            },
            {
              "pitch": 53,
              "velocity": 11,
              "position": 6.520833333333333,
              "duration": 0.46875
            },
            {
              "pitch": 53,
              "velocity": 20,
              "position": 7,
              "duration": 0.4895833333333333
            },
            {
              "pitch": 58,
              "velocity": 20,
              "position": 7.010416666666667,
              "duration": 0.4791666666666667
            },
            {
              "pitch": 63,
              "velocity": 20,
              "position": 7.020833333333333,
              "duration": 0.46875
            },
            {
              "pitch": 63,
              "velocity": 11,
              "position": 7.5,
              "duration": 0.4895833333333333
            },
            {
              "pitch": 58,
              "velocity": 11,
              "position": 7.510416666666667,
              "duration": 0.4791666666666667
            },
            {
              "pitch": 53,
              "velocity": 11,
              "position": 7.520833333333333,
              "duration": 0.46875
            }
          ]
        },
        "13": {
          "ctab": {
            "srcChannel": 13,
            "name": "strng",
            "accType": "PAD",
            "editable": false,
            "mutedNotes": [],
            "mutedChords": [],
            "autoStart": false,
            "sourceChordNote": 0,
            "sourceChordType": "min7(11)",
            "ctb2Low": null,
            "ctb2Main": {
              "ntr": "ROOT_FIXED",
              "ntt": "CHORD",
              "bassOn": false,
              "chordRootUpperLimit": 7,
              "noteLowLimit": 50,
              "noteHighLimit": 127,
              "rtr": "PITCH_SHIFT"
            },
            "ctb2High": null
          },
          "notes": [
            {
              "pitch": 53,
              "velocity": 68,
              "position": 0,
              "duration": 7.989583333333333
            },
            {
              "pitch": 58,
              "velocity": 68,
              "position": 0,
              "duration": 7.989583333333333
            },
            {
              "pitch": 63,
              "velocity": 68,
              "position": 0,
              "duration": 7.989583333333333
            }
          ]
        },
        "14": {
          "ctab": {
            "srcChannel": 14,
            "name": "git 3",
            "accType": "PHRASE1",
            "editable": false,
            "mutedNotes": [],
            "mutedChords": [],
            "autoStart": false,
            "sourceChordNote": 0,
            "sourceChordType": "min7(11)",
            "ctb2Low": null,
            "ctb2Main": {
              "ntr": "ROOT_FIXED",
              "ntt": "CHORD",
              "bassOn": false,
              "chordRootUpperLimit": 7,
              "noteLowLimit": 50,
              "noteHighLimit": 127,
              "rtr": "PITCH_SHIFT"
            },
            "ctb2High": null
          },
          "notes": []
        }
      }
    },
    "Main_C": {
      "type": "Main_C",
      "sizeInBeats": 8,
      "channels": {
        "1": {
          "ctab": {
            "srcChannel": 1,
            "name": "Git root",
            "accType": "CHORD1",
            "editable": false,
            "mutedNotes": [],
            "mutedChords": [
              "1+2+5",
              "sus4",
              "1+5",
              "1+8",
              "Maj7aug",
              "dim",
              "minMaj7(9)",
              "minMaj7",
              "min6",
              "min",
              "aug",
              "Maj7(9)",
              "Maj7#11",
              "Maj7",
              "Maj6",
              "Maj"
            ],
            "autoStart": false,
            "sourceChordNote": 0,
            "sourceChordType": "Maj7",
            "ctb2Low": null,
            "ctb2Main": {
              "ntr": "ROOT_TRANSPOSITION",
              "ntt": "CHORD",
              "bassOn": false,
              "chordRootUpperLimit": 6,
              "noteLowLimit": 0,
              "noteHighLimit": 127,
              "rtr": "PITCH_SHIFT"
            },
            "ctb2High": null
          },
          "notes": [
            {
              "pitch": 60,
              "velocity": 101,
              "position": 0,
              "duration": 0.25
            },
            {
              "pitch": 60,
              "velocity": 80,
              "position": 0.2708333333333333,
              "duration": 0.4791666666666667
            },
            {
              "pitch": 60,
              "velocity": 72,
              "position": 0.7708333333333334,
              "duration": 0.20833333333333334
            },
            {
              "pitch": 60,
              "velocity": 80,
              "position": 1,
              "duration": 0.4791666666666667
            },
            {
              "pitch": 60,
              "velocity": 100,
              "position": 1.5,
              "duration": 0.75
            },
            {
              "pitch": 60,
              "velocity": 76,
              "position": 2.2708333333333335,
              "duration": 0.20833333333333334
            },
            {
              "pitch": 60,
              "velocity": 69,
              "position": 2.5,
              "duration": 0.4791666666666667
            },
            {
              "pitch": 60,
              "velocity": 100,
              "position": 3,
              "duration": 0.4791666666666667
            },
            {
              "pitch": 60,
              "velocity": 77,
              "position": 3.5,
              "duration": 0.4791666666666667
            },
            {
              "pitch": 60,
              "velocity": 101,
              "position": 4,
              "duration": 0.25
            },
            {
              "pitch": 60,
              "velocity": 80,
              "position": 4.270833333333333,
              "duration": 0.4791666666666667
            },
            {
              "pitch": 60,
              "velocity": 72,
              "position": 4.770833333333333,
              "duration": 0.20833333333333334
            },
            {
              "pitch": 60,
              "velocity": 80,
              "position": 5,
              "duration": 0.4791666666666667
            },
            {
              "pitch": 60,
              "velocity": 100,
              "position": 5.5,
              "duration": 0.75
            },
            {
              "pitch": 60,
              "velocity": 76,
              "position": 6.270833333333333,
              "duration": 0.20833333333333334
            },
            {
              "pitch": 60,
              "velocity": 69,
              "position": 6.5,
              "duration": 0.4791666666666667
            },
            {
              "pitch": 60,
              "velocity": 100,
              "position": 7,
              "duration": 0.4791666666666667
            },
            {
              "pitch": 60,
              "velocity": 77,
              "position": 7.5,
              "duration": 0.4791666666666667
            }
          ]
        },
        "2": {
          "ctab": {
            "srcChannel": 2,
            "name": "str root",
            "accType": "PAD",
            "editable": false,
            "mutedNotes": [],
            "mutedChords": [
              "1+2+5",
              "sus4",
              "1+5",
              "1+8",
              "Maj7aug",
              "dim",
              "minMaj7(9)",
              "minMaj7",
              "min6",
              "min",
              "aug",
              "Maj7(9)",
              "Maj7#11",
              "Maj7",
              "Maj6",
              "Maj"
            ],
            "autoStart": false,
            "sourceChordNote": 0,
            "sourceChordType": "Maj7",
            "ctb2Low": null,
            "ctb2Main": {
              "ntr": "ROOT_TRANSPOSITION",
              "ntt": "CHORD",
              "bassOn": false,
              "chordRootUpperLimit": 6,
              "noteLowLimit": 0,
              "noteHighLimit": 127,
              "rtr": "PITCH_SHIFT"
            },
            "ctb2High": null
          },
          "notes": [
            {
              "pitch": 60,
              "velocity": 68,
              "position": 0,
              "duration": 7.979166666666667
            }
          ]
        },
        "6": {
          "ctab": {
            "srcChannel": 6,
            "name": "CleanFX",
            "accType": "CHORD2",
            "editable": false,
            "mutedNotes": [],
            "mutedChords": [],
            "autoStart": false,
            "sourceChordNote": 0,
            "sourceChordType": "Maj",
            "ctb2Low": null,
            "ctb2Main": {
              "ntr": "ROOT_FIXED",
              "ntt": "BYPASS",
              "bassOn": false,
              "chordRootUpperLimit": 7,
              "noteLowLimit": 0,
              "noteHighLimit": 79,
              "rtr": "PITCH_SHIFT"
            },
            "ctb2High": null
          },
          "notes": [
            {
              "pitch": 100,
              "velocity": 79,
              "position": 0,
              "duration": 0.23958333333333334
            },
            {
              "pitch": 101,
              "velocity": 88,
              "position": 0.5,
              "duration": 0.23958333333333334
            },
            {
              "pitch": 101,
              "velocity": 85,
              "position": 1.5,
              "duration": 0.23958333333333334
            },
            {
              "pitch": 101,
              "velocity": 86,
              "position": 2.5,
              "duration": 0.23958333333333334
            },
            {
              "pitch": 101,
              "velocity": 87,
              "position": 3.5,
              "duration": 0.23958333333333334
            },
            {
              "pitch": 101,
              "velocity": 85,
              "position": 4.5,
              "duration": 0.23958333333333334
            },
            {
              "pitch": 101,
              "velocity": 87,
              "position": 5.5,
              "duration": 0.23958333333333334
            },
            {
              "pitch": 101,
              "velocity": 87,
              "position": 6.5,
              "duration": 0.23958333333333334
            },
            {
              "pitch": 101,
              "velocity": 86,
              "position": 7.5,
              "duration": 0.23958333333333334
            }
          ]
        },
        "7": {
          "ctab": {
            "srcChannel": 7,
            "name": "CC_Crash",
            "accType": "RHYTHM",
            "editable": false,
            "mutedNotes": [],
            "mutedChords": [
              "1+2+5",
              "sus4",
              "1+5",
              "1+8",
              "7aug",
              "Maj7aug",
              "7(#9)",
              "7(b13)",
              "7(b9)",
              "7(13)",
              "7#11",
              "7(9)",
              "7b5",
              "7sus4",
              "7th",
              "dim7",
              "dim",
              "minMaj7(9)",
              "minMaj7",
              "min7(11)",
              "min7(9)",
              "min(9)",
              "m7b5",
              "min7",
              "min6",
              "min",
              "aug",
              "Maj6(9)",
              "Maj7(9)",
              "Maj(9)",
              "Maj7#11",
              "Maj7",
              "Maj6",
              "Maj"
            ],
            "autoStart": true,
            "sourceChordNote": 0,
            "sourceChordType": "Maj",
            "ctb2Low": null,
            "ctb2Main": {
              "ntr": "ROOT_FIXED",
              "ntt": "BYPASS",
              "bassOn": false,
              "chordRootUpperLimit": 0,
              "noteLowLimit": 0,
              "noteHighLimit": 127,
              "rtr": "RETRIGGER"
            },
            "ctb2High": null
          },
          "notes": []
        },
        "8": {
          "ctab": {
            "srcChannel": 8,
            "name": "drums",
            "accType": "SUBRHYTHM",
            "editable": false,
            "mutedNotes": [],
            "mutedChords": [],
            "autoStart": true,
            "sourceChordNote": 0,
            "sourceChordType": "Maj7",
            "ctb2Low": null,
            "ctb2Main": {
              "ntr": "ROOT_FIXED",
              "ntt": "BYPASS",
              "bassOn": false,
              "chordRootUpperLimit": 6,
              "noteLowLimit": 0,
              "noteHighLimit": 127,
              "rtr": "PITCH_SHIFT"
            },
            "ctb2High": null
          },
          "notes": [
            {
              "pitch": 82,
              "velocity": 78,
              "position": 0,
              "duration": 0.020833333333333332
            },
            {
              "pitch": 82,
              "velocity": 51,
              "position": 0.25,
              "duration": 0.020833333333333332
            },
            {
              "pitch": 82,
              "velocity": 51,
              "position": 0.5,
              "duration": 0.020833333333333332
            },
            {
              "pitch": 82,
              "velocity": 58,
              "position": 0.75,
              "duration": 0.020833333333333332
            },
            {
              "pitch": 82,
              "velocity": 78,
              "position": 1,
              "duration": 0.020833333333333332
            },
            {
              "pitch": 82,
              "velocity": 51,
              "position": 1.25,
              "duration": 0.020833333333333332
            },
            {
              "pitch": 82,
              "velocity": 51,
              "position": 1.5,
              "duration": 0.020833333333333332
            },
            {
              "pitch": 82,
              "velocity": 58,
              "position": 1.75,
              "duration": 0.020833333333333332
            },
            {
              "pitch": 82,
              "velocity": 78,
              "position": 2,
              "duration": 0.020833333333333332
            },
            {
              "pitch": 82,
              "velocity": 51,
              "position": 2.25,
              "duration": 0.020833333333333332
            },
            {
              "pitch": 62,
              "velocity": 102,
              "position": 2.5,
              "duration": 0.020833333333333332
            },
            {
              "pitch": 82,
              "velocity": 51,
              "position": 2.5,
              "duration": 0.020833333333333332
            },
            {
              "pitch": 82,
              "velocity": 58,
              "position": 2.75,
              "duration": 0.020833333333333332
            },
            {
              "pitch": 64,
              "velocity": 71,
              "position": 3,
              "duration": 0.020833333333333332
            },
            {
              "pitch": 82,
              "velocity": 78,
              "position": 3,
              "duration": 0.020833333333333332
            },
            {
              "pitch": 82,
              "velocity": 51,
              "position": 3.25,
              "duration": 0.020833333333333332
            },
            {
              "pitch": 64,
              "velocity": 76,
              "position": 3.5,
              "duration": 0.020833333333333332
            },
            {
              "pitch": 82,
              "velocity": 51,
              "position": 3.5,
              "duration": 0.020833333333333332
            },
            {
              "pitch": 82,
              "velocity": 58,
              "position": 3.75,
              "duration": 0.020833333333333332
            },
            {
              "pitch": 82,
              "velocity": 78,
              "position": 4,
              "duration": 0.020833333333333332
            },
            {
              "pitch": 82,
              "velocity": 51,
              "position": 4.25,
              "duration": 0.020833333333333332
            },
            {
              "pitch": 82,
              "velocity": 51,
              "position": 4.5,
              "duration": 0.020833333333333332
            },
            {
              "pitch": 82,
              "velocity": 58,
              "position": 4.75,
              "duration": 0.020833333333333332
            },
            {
              "pitch": 82,
              "velocity": 78,
              "position": 5,
              "duration": 0.020833333333333332
            },
            {
              "pitch": 82,
              "velocity": 51,
              "position": 5.25,
              "duration": 0.020833333333333332
            },
            {
              "pitch": 82,
              "velocity": 51,
              "position": 5.5,
              "duration": 0.020833333333333332
            },
            {
              "pitch": 82,
              "velocity": 58,
              "position": 5.75,
              "duration": 0.020833333333333332
            },
            {
              "pitch": 82,
              "velocity": 78,
              "position": 6,
              "duration": 0.020833333333333332
            },
            {
              "pitch": 82,
              "velocity": 51,
              "position": 6.25,
              "duration": 0.020833333333333332
            },
            {
              "pitch": 62,
              "velocity": 90,
              "position": 6.5,
              "duration": 0.020833333333333332
            },
            {
              "pitch": 82,
              "velocity": 51,
              "position": 6.5,
              "duration": 0.020833333333333332
            },
            {
              "pitch": 82,
              "velocity": 58,
              "position": 6.75,
              "duration": 0.020833333333333332
            },
            {
              "pitch": 64,
              "velocity": 72,
              "position": 7,
              "duration": 0.020833333333333332
            },
            {
              "pitch": 82,
              "velocity": 78,
              "position": 7,
              "duration": 0.020833333333333332
            },
            {
              "pitch": 82,
              "velocity": 51,
              "position": 7.25,
              "duration": 0.020833333333333332
            },
            {
              "pitch": 64,
              "velocity": 80,
              "position": 7.5,
              "duration": 0.020833333333333332
            },
            {
              "pitch": 82,
              "velocity": 51,
              "position": 7.5,
              "duration": 0.020833333333333332
            },
            {
              "pitch": 82,
              "velocity": 58,
              "position": 7.75,
              "duration": 0.020833333333333332
            }
          ]
        },
        "9": {
          "ctab": {
            "srcChannel": 9,
            "name": "drums",
            "accType": "RHYTHM",
            "editable": false,
            "mutedNotes": [],
            "mutedChords": [],
            "autoStart": true,
            "sourceChordNote": 0,
            "sourceChordType": "Maj7",
            "ctb2Low": null,
            "ctb2Main": {
              "ntr": "ROOT_FIXED",
              "ntt": "BYPASS",
              "bassOn": false,
              "chordRootUpperLimit": 6,
              "noteLowLimit": 0,
              "noteHighLimit": 127,
              "rtr": "PITCH_SHIFT"
            },
            "ctb2High": null
          },
          "notes": [
            {
              "pitch": 36,
              "velocity": 100,
              "position": 0,
              "duration": 0.020833333333333332
            },
            {
              "pitch": 42,
              "velocity": 84,
              "position": 0,
              "duration": 0.020833333333333332
            },
            {
              "pitch": 42,
              "velocity": 56,
              "position": 0.5,
              "duration": 0.020833333333333332
            },
            {
              "pitch": 42,
              "velocity": 39,
              "position": 0.75,
              "duration": 0.020833333333333332
            },
            {
              "pitch": 40,
              "velocity": 90,
              "position": 1,
              "duration": 0.020833333333333332
            },
            {
              "pitch": 42,
              "velocity": 84,
              "position": 1,
              "duration": 0.020833333333333332
            },
            {
              "pitch": 54,
              "velocity": 88,
              "position": 1,
              "duration": 0.020833333333333332
            },
            {
              "pitch": 42,
              "velocity": 60,
              "position": 1.5,
              "duration": 0.020833333333333332
            },
            {
              "pitch": 42,
              "velocity": 43,
              "position": 1.75,
              "duration": 0.020833333333333332
            },
            {
              "pitch": 36,
              "velocity": 100,
              "position": 2,
              "duration": 0.020833333333333332
            },
            {
              "pitch": 42,
              "velocity": 84,
              "position": 2,
              "duration": 0.020833333333333332
            },
            {
              "pitch": 42,
              "velocity": 51,
              "position": 2.5,
              "duration": 0.020833333333333332
            },
            {
              "pitch": 42,
              "velocity": 34,
              "position": 2.75,
              "duration": 0.020833333333333332
            },
            {
              "pitch": 40,
              "velocity": 90,
              "position": 3,
              "duration": 0.020833333333333332
            },
            {
              "pitch": 42,
              "velocity": 84,
              "position": 3,
              "duration": 0.020833333333333332
            },
            {
              "pitch": 54,
              "velocity": 88,
              "position": 3,
              "duration": 0.020833333333333332
            },
            {
              "pitch": 42,
              "velocity": 54,
              "position": 3.5,
              "duration": 0.020833333333333332
            },
            {
              "pitch": 42,
              "velocity": 37,
              "position": 3.75,
              "duration": 0.020833333333333332
            },
            {
              "pitch": 36,
              "velocity": 100,
              "position": 4,
              "duration": 0.020833333333333332
            },
            {
              "pitch": 42,
              "velocity": 84,
              "position": 4,
              "duration": 0.020833333333333332
            },
            {
              "pitch": 42,
              "velocity": 56,
              "position": 4.5,
              "duration": 0.020833333333333332
            },
            {
              "pitch": 42,
              "velocity": 39,
              "position": 4.75,
              "duration": 0.020833333333333332
            },
            {
              "pitch": 40,
              "velocity": 90,
              "position": 5,
              "duration": 0.020833333333333332
            },
            {
              "pitch": 42,
              "velocity": 84,
              "position": 5,
              "duration": 0.020833333333333332
            },
            {
              "pitch": 54,
              "velocity": 88,
              "position": 5,
              "duration": 0.020833333333333332
            },
            {
              "pitch": 42,
              "velocity": 60,
              "position": 5.5,
              "duration": 0.020833333333333332
            },
            {
              "pitch": 42,
              "velocity": 43,
              "position": 5.75,
              "duration": 0.020833333333333332
            },
            {
              "pitch": 36,
              "velocity": 100,
              "position": 6,
              "duration": 0.020833333333333332
            },
            {
              "pitch": 42,
              "velocity": 84,
              "position": 6,
              "duration": 0.020833333333333332
            },
            {
              "pitch": 42,
              "velocity": 51,
              "position": 6.5,
              "duration": 0.020833333333333332
            },
            {
              "pitch": 42,
              "velocity": 34,
              "position": 6.75,
              "duration": 0.020833333333333332
            },
            {
              "pitch": 40,
              "velocity": 90,
              "position": 7,
              "duration": 0.020833333333333332
            },
            {
              "pitch": 42,
              "velocity": 84,
              "position": 7,
              "duration": 0.020833333333333332
            },
            {
              "pitch": 54,
              "velocity": 88,
              "position": 7,
              "duration": 0.020833333333333332
            },
            {
              "pitch": 42,
              "velocity": 54,
              "position": 7.5,
              "duration": 0.020833333333333332
            },
            {
              "pitch": 42,
              "velocity": 37,
              "position": 7.75,
              "duration": 0.020833333333333332
            }
          ]
        },
        "10": {
          "ctab": {
            "srcChannel": 10,
            "name": "bass",
            "accType": "BASS",
            "editable": false,
            "mutedNotes": [],
            "mutedChords": [],
            "autoStart": false,
            "sourceChordNote": 0,
            "sourceChordType": "Maj7",
            "ctb2Low": null,
            "ctb2Main": {
              "ntr": "ROOT_TRANSPOSITION",
              "ntt": "MELODY",
              "bassOn": true,
              "chordRootUpperLimit": 8,
              "noteLowLimit": 28,
              "noteHighLimit": 127,
              "rtr": "PITCH_SHIFT_TO_ROOT"
            },
            "ctb2High": null
          },
          "notes": [
            {
              "pitch": 24,
              "velocity": 80,
              "position": 0,
              "duration": 0.7395833333333334
            },
            {
              "pitch": 24,
              "velocity": 112,
              "position": 0.75,
              "duration": 0.23958333333333334
            },
            {
              "pitch": 24,
              "velocity": 80,
              "position": 1.5,
              "duration": 0.9895833333333334
            },
            {
              "pitch": 24,
              "velocity": 112,
              "position": 2.5,
              "duration": 0.23958333333333334
            },
            {
              "pitch": 31,
              "velocity": 80,
              "position": 3.5,
              "duration": 0.4791666666666667
            },
            {
              "pitch": 24,
              "velocity": 80,
              "position": 4,
              "duration": 0.7395833333333334
            },
            {
              "pitch": 24,
              "velocity": 112,
              "position": 4.75,
              "duration": 0.23958333333333334
            },
            {
              "pitch": 24,
              "velocity": 80,
              "position": 5.5,
              "duration": 0.9895833333333334
            },
            {
              "pitch": 24,
              "velocity": 112,
              "position": 6.5,
              "duration": 0.23958333333333334
            },
            {
              "pitch": 31,
              "velocity": 80,
              "position": 7.5,
              "duration": 0.4791666666666667
            }
          ]
        },
        "11": {
          "ctab": {
            "srcChannel": 11,
            "name": "git l",
            "accType": "CHORD1",
            "editable": false,
            "mutedNotes": [],
            "mutedChords": [],
            "autoStart": false,
            "sourceChordNote": 0,
            "sourceChordType": "min7(11)",
            "ctb2Low": null,
            "ctb2Main": {
              "ntr": "ROOT_FIXED",
              "ntt": "CHORD",
              "bassOn": false,
              "chordRootUpperLimit": 7,
              "noteLowLimit": 50,
              "noteHighLimit": 127,
              "rtr": "PITCH_SHIFT"
            },
            "ctb2High": null
          },
          "notes": [
            {
              "pitch": 53,
              "velocity": 101,
              "position": 0,
              "duration": 0.22916666666666666
            },
            {
              "pitch": 58,
              "velocity": 101,
              "position": 0,
              "duration": 0.22916666666666666
            },
            {
              "pitch": 63,
              "velocity": 101,
              "position": 0.010416666666666666,
              "duration": 0.21875
            },
            {
              "pitch": 63,
              "velocity": 80,
              "position": 0.25,
              "duration": 0.4791666666666667
            },
            {
              "pitch": 58,
              "velocity": 80,
              "position": 0.2604166666666667,
              "duration": 0.46875
            },
            {
              "pitch": 53,
              "velocity": 80,
              "position": 0.2708333333333333,
              "duration": 0.4583333333333333
            },
            {
              "pitch": 63,
              "velocity": 72,
              "position": 0.75,
              "duration": 0.22916666666666666
            },
            {
              "pitch": 58,
              "velocity": 72,
              "position": 0.7604166666666666,
              "duration": 0.21875
            },
            {
              "pitch": 53,
              "velocity": 72,
              "position": 0.7708333333333334,
              "duration": 0.20833333333333334
            },
            {
              "pitch": 53,
              "velocity": 80,
              "position": 1,
              "duration": 0.4791666666666667
            },
            {
              "pitch": 58,
              "velocity": 80,
              "position": 1.0104166666666667,
              "duration": 0.46875
            },
            {
              "pitch": 63,
              "velocity": 80,
              "position": 1.0208333333333333,
              "duration": 0.4583333333333333
            },
            {
              "pitch": 53,
              "velocity": 100,
              "position": 1.5,
              "duration": 0.7291666666666666
            },
            {
              "pitch": 58,
              "velocity": 100,
              "position": 1.5,
              "duration": 0.7291666666666666
            },
            {
              "pitch": 63,
              "velocity": 100,
              "position": 1.5104166666666667,
              "duration": 0.71875
            },
            {
              "pitch": 63,
              "velocity": 76,
              "position": 2.25,
              "duration": 0.22916666666666666
            },
            {
              "pitch": 58,
              "velocity": 76,
              "position": 2.2604166666666665,
              "duration": 0.21875
            },
            {
              "pitch": 53,
              "velocity": 76,
              "position": 2.2708333333333335,
              "duration": 0.20833333333333334
            },
            {
              "pitch": 53,
              "velocity": 69,
              "position": 2.5,
              "duration": 0.4791666666666667
            },
            {
              "pitch": 58,
              "velocity": 69,
              "position": 2.5104166666666665,
              "duration": 0.46875
            },
            {
              "pitch": 63,
              "velocity": 69,
              "position": 2.5208333333333335,
              "duration": 0.4583333333333333
            },
            {
              "pitch": 53,
              "velocity": 100,
              "position": 3,
              "duration": 0.4791666666666667
            },
            {
              "pitch": 58,
              "velocity": 100,
              "position": 3,
              "duration": 0.4791666666666667
            },
            {
              "pitch": 63,
              "velocity": 100,
              "position": 3.0104166666666665,
              "duration": 0.46875
            },
            {
              "pitch": 53,
              "velocity": 77,
              "position": 3.5,
              "duration": 0.4791666666666667
            },
            {
              "pitch": 58,
              "velocity": 77,
              "position": 3.5104166666666665,
              "duration": 0.46875
            },
            {
              "pitch": 63,
              "velocity": 77,
              "position": 3.5208333333333335,
              "duration": 0.4583333333333333
            },
            {
              "pitch": 53,
              "velocity": 101,
              "position": 4,
              "duration": 0.22916666666666666
            },
            {
              "pitch": 58,
              "velocity": 101,
              "position": 4,
              "duration": 0.22916666666666666
            },
            {
              "pitch": 63,
              "velocity": 101,
              "position": 4.010416666666667,
              "duration": 0.21875
            },
            {
              "pitch": 63,
              "velocity": 80,
              "position": 4.25,
              "duration": 0.4791666666666667
            },
            {
              "pitch": 58,
              "velocity": 80,
              "position": 4.260416666666667,
              "duration": 0.46875
            },
            {
              "pitch": 53,
              "velocity": 80,
              "position": 4.270833333333333,
              "duration": 0.4583333333333333
            },
            {
              "pitch": 63,
              "velocity": 72,
              "position": 4.75,
              "duration": 0.22916666666666666
            },
            {
              "pitch": 58,
              "velocity": 72,
              "position": 4.760416666666667,
              "duration": 0.21875
            },
            {
              "pitch": 53,
              "velocity": 72,
              "position": 4.770833333333333,
              "duration": 0.20833333333333334
            },
            {
              "pitch": 53,
              "velocity": 80,
              "position": 5,
              "duration": 0.4791666666666667
            },
            {
              "pitch": 58,
              "velocity": 80,
              "position": 5.010416666666667,
              "duration": 0.46875
            },
            {
              "pitch": 63,
              "velocity": 80,
              "position": 5.020833333333333,
              "duration": 0.4583333333333333
            },
            {
              "pitch": 53,
              "velocity": 100,
              "position": 5.5,
              "duration": 0.7291666666666666
            },
            {
              "pitch": 58,
              "velocity": 100,
              "position": 5.5,
              "duration": 0.7291666666666666
            },
            {
              "pitch": 63,
              "velocity": 100,
              "position": 5.510416666666667,
              "duration": 0.71875
            },
            {
              "pitch": 63,
              "velocity": 76,
              "position": 6.25,
              "duration": 0.22916666666666666
            },
            {
              "pitch": 58,
              "velocity": 76,
              "position": 6.260416666666667,
              "duration": 0.21875
            },
            {
              "pitch": 53,
              "velocity": 76,
              "position": 6.270833333333333,
              "duration": 0.20833333333333334
            },
            {
              "pitch": 53,
              "velocity": 69,
              "position": 6.5,
              "duration": 0.4791666666666667
            },
            {
              "pitch": 58,
              "velocity": 69,
              "position": 6.510416666666667,
              "duration": 0.46875
            },
            {
              "pitch": 63,
              "velocity": 69,
              "position": 6.520833333333333,
              "duration": 0.4583333333333333
            },
            {
              "pitch": 53,
              "velocity": 100,
              "position": 7,
              "duration": 0.4791666666666667
            },
            {
              "pitch": 58,
              "velocity": 100,
              "position": 7,
              "duration": 0.4791666666666667
            },
            {
              "pitch": 63,
              "velocity": 100,
              "position": 7.010416666666667,
              "duration": 0.46875
            },
            {
              "pitch": 53,
              "velocity": 77,
              "position": 7.5,
              "duration": 0.4791666666666667
            },
            {
              "pitch": 58,
              "velocity": 77,
              "position": 7.510416666666667,
              "duration": 0.46875
            },
            {
              "pitch": 63,
              "velocity": 77,
              "position": 7.520833333333333,
              "duration": 0.4583333333333333
            }
          ]
        },
        "12": {
          "ctab": {
            "srcChannel": 12,
            "name": "git r",
            "accType": "CHORD2",
            "editable": false,
            "mutedNotes": [],
            "mutedChords": [],
            "autoStart": false,
            "sourceChordNote": 0,
            "sourceChordType": "min7(11)",
            "ctb2Low": null,
            "ctb2Main": {
              "ntr": "ROOT_FIXED",
              "ntt": "CHORD",
              "bassOn": false,
              "chordRootUpperLimit": 7,
              "noteLowLimit": 50,
              "noteHighLimit": 127,
              "rtr": "PITCH_SHIFT"
            },
            "ctb2High": null
          },
          "notes": [
            {
              "pitch": 63,
              "velocity": 8,
              "position": 0,
              "duration": 0.4895833333333333
            },
            {
              "pitch": 58,
              "velocity": 12,
              "position": 0.010416666666666666,
              "duration": 0.4791666666666667
            },
            {
              "pitch": 53,
              "velocity": 8,
              "position": 0,
              "duration": 0.5
            },
            {
              "pitch": 58,
              "velocity": 17,
              "position": 0.5104166666666666,
              "duration": 0.9791666666666666
            },
            {
              "pitch": 63,
              "velocity": 17,
              "position": 0.5,
              "duration": 0.9895833333333334
            },
            {
              "pitch": 53,
              "velocity": 16,
              "position": 0.5208333333333334,
              "duration": 0.96875
            },
            {
              "pitch": 63,
              "velocity": 14,
              "position": 1.5,
              "duration": 0.9895833333333334
            },
            {
              "pitch": 58,
              "velocity": 13,
              "position": 1.5104166666666667,
              "duration": 0.9791666666666666
            },
            {
              "pitch": 53,
              "velocity": 14,
              "position": 1.5208333333333333,
              "duration": 0.96875
            },
            {
              "pitch": 63,
              "velocity": 15,
              "position": 2.5,
              "duration": 0.9895833333333334
            },
            {
              "pitch": 58,
              "velocity": 17,
              "position": 2.5104166666666665,
              "duration": 0.9791666666666666
            },
            {
              "pitch": 53,
              "velocity": 15,
              "position": 2.5208333333333335,
              "duration": 0.96875
            },
            {
              "pitch": 63,
              "velocity": 16,
              "position": 3.5,
              "duration": 0.9895833333333334
            },
            {
              "pitch": 58,
              "velocity": 13,
              "position": 3.5104166666666665,
              "duration": 0.9791666666666666
            },
            {
              "pitch": 53,
              "velocity": 14,
              "position": 3.5208333333333335,
              "duration": 0.96875
            },
            {
              "pitch": 63,
              "velocity": 14,
              "position": 4.5,
              "duration": 0.9895833333333334
            },
            {
              "pitch": 58,
              "velocity": 17,
              "position": 4.510416666666667,
              "duration": 0.9791666666666666
            },
            {
              "pitch": 53,
              "velocity": 13,
              "position": 4.520833333333333,
              "duration": 0.96875
            },
            {
              "pitch": 63,
              "velocity": 16,
              "position": 5.5,
              "duration": 0.9895833333333334
            },
            {
              "pitch": 58,
              "velocity": 18,
              "position": 5.510416666666667,
              "duration": 0.9791666666666666
            },
            {
              "pitch": 53,
              "velocity": 17,
              "position": 5.520833333333333,
              "duration": 0.96875
            },
            {
              "pitch": 63,
              "velocity": 16,
              "position": 6.5,
              "duration": 0.9895833333333334
            },
            {
              "pitch": 58,
              "velocity": 15,
              "position": 6.510416666666667,
              "duration": 0.9791666666666666
            },
            {
              "pitch": 53,
              "velocity": 14,
              "position": 6.520833333333333,
              "duration": 0.96875
            },
            {
              "pitch": 53,
              "velocity": 17,
              "position": 7.5,
              "duration": 0.4895833333333333
            },
            {
              "pitch": 63,
              "velocity": 15,
              "position": 7.5,
              "duration": 0.4895833333333333
            },
            {
              "pitch": 58,
              "velocity": 17,
              "position": 7.510416666666667,
              "duration": 0.4791666666666667
            }
          ]
        },
        "13": {
          "ctab": {
            "srcChannel": 13,
            "name": "strng",
            "accType": "PAD",
            "editable": false,
            "mutedNotes": [],
            "mutedChords": [],
            "autoStart": false,
            "sourceChordNote": 0,
            "sourceChordType": "min7(11)",
            "ctb2Low": null,
            "ctb2Main": {
              "ntr": "ROOT_FIXED",
              "ntt": "CHORD",
              "bassOn": false,
              "chordRootUpperLimit": 7,
              "noteLowLimit": 50,
              "noteHighLimit": 127,
              "rtr": "PITCH_SHIFT"
            },
            "ctb2High": null
          },
          "notes": [
            {
              "pitch": 53,
              "velocity": 68,
              "position": 0,
              "duration": 7.989583333333333
            },
            {
              "pitch": 58,
              "velocity": 68,
              "position": 0,
              "duration": 7.989583333333333
            },
            {
              "pitch": 63,
              "velocity": 68,
              "position": 0,
              "duration": 7.989583333333333
            }
          ]
        },
        "14": {
          "ctab": {
            "srcChannel": 14,
            "name": "git 3",
            "accType": "PHRASE1",
            "editable": false,
            "mutedNotes": [],
            "mutedChords": [],
            "autoStart": false,
            "sourceChordNote": 0,
            "sourceChordType": "min7(11)",
            "ctb2Low": null,
            "ctb2Main": {
              "ntr": "ROOT_FIXED",
              "ntt": "CHORD",
              "bassOn": false,
              "chordRootUpperLimit": 7,
              "noteLowLimit": 50,
              "noteHighLimit": 127,
              "rtr": "PITCH_SHIFT"
            },
            "ctb2High": null
          },
          "notes": [
            {
              "pitch": 53,
              "velocity": 109,
              "position": 3,
              "duration": 0.125
            },
            {
              "pitch": 58,
              "velocity": 109,
              "position": 3.0104166666666665,
              "duration": 0.125
            },
            {
              "pitch": 63,
              "velocity": 109,
              "position": 3.0208333333333335,
              "duration": 0.125
            },
            {
              "pitch": 53,
              "velocity": 109,
              "position": 7,
              "duration": 0.125
            },
            {
              "pitch": 58,
              "velocity": 109,
              "position": 7.010416666666667,
              "duration": 0.125
            },
            {
              "pitch": 63,
              "velocity": 109,
              "position": 7.020833333333333,
              "duration": 0.125
            }
          ]
        }
      }
    },
    "Main_D": {
      "type": "Main_D",
      "sizeInBeats": 8,
      "channels": {
        "1": {
          "ctab": {
            "srcChannel": 1,
            "name": "Git root",
            "accType": "CHORD1",
            "editable": false,
            "mutedNotes": [],
            "mutedChords": [
              "1+2+5",
              "sus4",
              "1+5",
              "1+8",
              "Maj7aug",
              "dim",
              "minMaj7(9)",
              "minMaj7",
              "min6",
              "min",
              "aug",
              "Maj7(9)",
              "Maj7#11",
              "Maj7",
              "Maj6",
              "Maj"
            ],
            "autoStart": false,
            "sourceChordNote": 0,
            "sourceChordType": "Maj7",
            "ctb2Low": null,
            "ctb2Main": {
              "ntr": "ROOT_TRANSPOSITION",
              "ntt": "CHORD",
              "bassOn": false,
              "chordRootUpperLimit": 6,
              "noteLowLimit": 0,
              "noteHighLimit": 127,
              "rtr": "PITCH_SHIFT"
            },
            "ctb2High": null
          },
          "notes": [
            {
              "pitch": 60,
              "velocity": 101,
              "position": 0,
              "duration": 0.25
            },
            {
              "pitch": 60,
              "velocity": 80,
              "position": 0.2708333333333333,
              "duration": 0.4791666666666667
            },
            {
              "pitch": 60,
              "velocity": 72,
              "position": 0.7708333333333334,
              "duration": 0.20833333333333334
            },
            {
              "pitch": 60,
              "velocity": 80,
              "position": 1,
              "duration": 0.4791666666666667
            },
            {
              "pitch": 60,
              "velocity": 100,
              "position": 1.5,
              "duration": 0.75
            },
            {
              "pitch": 60,
              "velocity": 76,
              "position": 2.2708333333333335,
              "duration": 0.20833333333333334
            },
            {
              "pitch": 60,
              "velocity": 69,
              "position": 2.5,
              "duration": 0.25
            },
            {
              "pitch": 60,
              "velocity": 72,
              "position": 2.7708333333333335,
              "duration": 0.20833333333333334
            },
            {
              "pitch": 60,
              "velocity": 100,
              "position": 3,
              "duration": 0.4791666666666667
            },
            {
              "pitch": 60,
              "velocity": 77,
              "position": 3.5,
              "duration": 0.4791666666666667
            },
            {
              "pitch": 60,
              "velocity": 100,
              "position": 4,
              "duration": 0.25
            },
            {
              "pitch": 60,
              "velocity": 80,
              "position": 4.270833333333333,
              "duration": 0.4791666666666667
            },
            {
              "pitch": 60,
              "velocity": 72,
              "position": 4.770833333333333,
              "duration": 0.20833333333333334
            },
            {
              "pitch": 60,
              "velocity": 80,
              "position": 5,
              "duration": 0.4791666666666667
            },
            {
              "pitch": 60,
              "velocity": 95,
              "position": 5.5,
              "duration": 0.25
            },
            {
              "pitch": 60,
              "velocity": 87,
              "position": 5.770833333333333,
              "duration": 0.4791666666666667
            },
            {
              "pitch": 60,
              "velocity": 76,
              "position": 6.270833333333333,
              "duration": 0.20833333333333334
            },
            {
              "pitch": 60,
              "velocity": 69,
              "position": 6.5,
              "duration": 0.25
            },
            {
              "pitch": 60,
              "velocity": 72,
              "position": 6.770833333333333,
              "duration": 0.20833333333333334
            },
            {
              "pitch": 60,
              "velocity": 99,
              "position": 7,
              "duration": 0.4791666666666667
            },
            {
              "pitch": 60,
              "velocity": 77,
              "position": 7.5,
              "duration": 0.4895833333333333
            }
          ]
        },
        "2": {
          "ctab": {
            "srcChannel": 2,
            "name": "str root",
            "accType": "PAD",
            "editable": false,
            "mutedNotes": [],
            "mutedChords": [
              "1+2+5",
              "sus4",
              "1+5",
              "1+8",
              "Maj7aug",
              "dim",
              "minMaj7(9)",
              "minMaj7",
              "min6",
              "min",
              "aug",
              "Maj7(9)",
              "Maj7#11",
              "Maj7",
              "Maj6",
              "Maj"
            ],
            "autoStart": false,
            "sourceChordNote": 0,
            "sourceChordType": "Maj7",
            "ctb2Low": null,
            "ctb2Main": {
              "ntr": "ROOT_TRANSPOSITION",
              "ntt": "CHORD",
              "bassOn": false,
              "chordRootUpperLimit": 6,
              "noteLowLimit": 0,
              "noteHighLimit": 127,
              "rtr": "PITCH_SHIFT"
            },
            "ctb2High": null
          },
          "notes": [
            {
              "pitch": 60,
              "velocity": 68,
              "position": 0,
              "duration": 7.979166666666667
            }
          ]
        },
        "6": {
          "ctab": {
            "srcChannel": 6,
            "name": "CleanFX",
            "accType": "CHORD2",
            "editable": false,
            "mutedNotes": [],
            "mutedChords": [],
            "autoStart": false,
            "sourceChordNote": 0,
            "sourceChordType": "Maj",
            "ctb2Low": null,
            "ctb2Main": {
              "ntr": "ROOT_FIXED",
              "ntt": "BYPASS",
              "bassOn": false,
              "chordRootUpperLimit": 7,
              "noteLowLimit": 0,
              "noteHighLimit": 79,
              "rtr": "PITCH_SHIFT"
            },
            "ctb2High": null
          },
          "notes": [
            {
              "pitch": 100,
              "velocity": 87,
              "position": 0,
              "duration": 0.23958333333333334
            },
            {
              "pitch": 99,
              "velocity": 77,
              "position": 0.75,
              "duration": 0.23958333333333334
            },
            {
              "pitch": 100,
              "velocity": 66,
              "position": 1,
              "duration": 0.23958333333333334
            },
            {
              "pitch": 100,
              "velocity": 87,
              "position": 1.5,
              "duration": 0.23958333333333334
            },
            {
              "pitch": 101,
              "velocity": 77,
              "position": 2.5,
              "duration": 0.23958333333333334
            },
            {
              "pitch": 100,
              "velocity": 87,
              "position": 3,
              "duration": 0.23958333333333334
            },
            {
              "pitch": 100,
              "velocity": 76,
              "position": 4,
              "duration": 0.23958333333333334
            },
            {
              "pitch": 99,
              "velocity": 69,
              "position": 4.25,
              "duration": 0.23958333333333334
            },
            {
              "pitch": 101,
              "velocity": 77,
              "position": 4.75,
              "duration": 0.23958333333333334
            },
            {
              "pitch": 100,
              "velocity": 80,
              "position": 5,
              "duration": 0.23958333333333334
            },
            {
              "pitch": 100,
              "velocity": 87,
              "position": 5.5,
              "duration": 0.23958333333333334
            },
            {
              "pitch": 100,
              "velocity": 77,
              "position": 6.25,
              "duration": 0.23958333333333334
            },
            {
              "pitch": 101,
              "velocity": 77,
              "position": 6.5,
              "duration": 0.23958333333333334
            },
            {
              "pitch": 100,
              "velocity": 87,
              "position": 7,
              "duration": 0.23958333333333334
            }
          ]
        },
        "7": {
          "ctab": {
            "srcChannel": 7,
            "name": "CC_Crash",
            "accType": "RHYTHM",
            "editable": false,
            "mutedNotes": [],
            "mutedChords": [
              "1+2+5",
              "sus4",
              "1+5",
              "1+8",
              "7aug",
              "Maj7aug",
              "7(#9)",
              "7(b13)",
              "7(b9)",
              "7(13)",
              "7#11",
              "7(9)",
              "7b5",
              "7sus4",
              "7th",
              "dim7",
              "dim",
              "minMaj7(9)",
              "minMaj7",
              "min7(11)",
              "min7(9)",
              "min(9)",
              "m7b5",
              "min7",
              "min6",
              "min",
              "aug",
              "Maj6(9)",
              "Maj7(9)",
              "Maj(9)",
              "Maj7#11",
              "Maj7",
              "Maj6",
              "Maj"
            ],
            "autoStart": true,
            "sourceChordNote": 0,
            "sourceChordType": "Maj",
            "ctb2Low": null,
            "ctb2Main": {
              "ntr": "ROOT_FIXED",
              "ntt": "BYPASS",
              "bassOn": false,
              "chordRootUpperLimit": 0,
              "noteLowLimit": 0,
              "noteHighLimit": 127,
              "rtr": "RETRIGGER"
            },
            "ctb2High": null
          },
          "notes": []
        },
        "8": {
          "ctab": {
            "srcChannel": 8,
            "name": "drums",
            "accType": "SUBRHYTHM",
            "editable": false,
            "mutedNotes": [],
            "mutedChords": [],
            "autoStart": true,
            "sourceChordNote": 0,
            "sourceChordType": "Maj7",
            "ctb2Low": null,
            "ctb2Main": {
              "ntr": "ROOT_FIXED",
              "ntt": "BYPASS",
              "bassOn": false,
              "chordRootUpperLimit": 6,
              "noteLowLimit": 0,
              "noteHighLimit": 127,
              "rtr": "PITCH_SHIFT"
            },
            "ctb2High": null
          },
          "notes": [
            {
              "pitch": 63,
              "velocity": 100,
              "position": 0,
              "duration": 0.020833333333333332
            },
            {
              "pitch": 63,
              "velocity": 68,
              "position": 0.75,
              "duration": 0.020833333333333332
            },
            {
              "pitch": 63,
              "velocity": 75,
              "position": 1,
              "duration": 0.020833333333333332
            },
            {
              "pitch": 64,
              "velocity": 70,
              "position": 1.5,
              "duration": 0.020833333333333332
            },
            {
              "pitch": 63,
              "velocity": 99,
              "position": 2,
              "duration": 0.020833333333333332
            },
            {
              "pitch": 63,
              "velocity": 70,
              "position": 2.75,
              "duration": 0.020833333333333332
            },
            {
              "pitch": 63,
              "velocity": 71,
              "position": 3,
              "duration": 0.020833333333333332
            },
            {
              "pitch": 64,
              "velocity": 66,
              "position": 3.5,
              "duration": 0.020833333333333332
            },
            {
              "pitch": 63,
              "velocity": 100,
              "position": 4,
              "duration": 0.020833333333333332
            },
            {
              "pitch": 63,
              "velocity": 68,
              "position": 4.75,
              "duration": 0.020833333333333332
            },
            {
              "pitch": 63,
              "velocity": 75,
              "position": 5,
              "duration": 0.020833333333333332
            },
            {
              "pitch": 64,
              "velocity": 70,
              "position": 5.5,
              "duration": 0.020833333333333332
            },
            {
              "pitch": 63,
              "velocity": 99,
              "position": 6,
              "duration": 0.020833333333333332
            },
            {
              "pitch": 63,
              "velocity": 70,
              "position": 6.75,
              "duration": 0.020833333333333332
            },
            {
              "pitch": 63,
              "velocity": 71,
              "position": 7,
              "duration": 0.020833333333333332
            },
            {
              "pitch": 64,
              "velocity": 66,
              "position": 7.5,
              "duration": 0.020833333333333332
            }
          ]
        },
        "9": {
          "ctab": {
            "srcChannel": 9,
            "name": "drums",
            "accType": "RHYTHM",
            "editable": false,
            "mutedNotes": [],
            "mutedChords": [],
            "autoStart": true,
            "sourceChordNote": 0,
            "sourceChordType": "Maj7",
            "ctb2Low": null,
            "ctb2Main": {
              "ntr": "ROOT_FIXED",
              "ntt": "BYPASS",
              "bassOn": false,
              "chordRootUpperLimit": 6,
              "noteLowLimit": 0,
              "noteHighLimit": 127,
              "rtr": "PITCH_SHIFT"
            },
            "ctb2High": null
          },
          "notes": [
            {
              "pitch": 36,
              "velocity": 100,
              "position": 0,
              "duration": 0.020833333333333332
            },
            {
              "pitch": 42,
              "velocity": 79,
              "position": 0,
              "duration": 0.020833333333333332
            },
            {
              "pitch": 54,
              "velocity": 72,
              "position": 0,
              "duration": 0.020833333333333332
            },
            {
              "pitch": 40,
              "velocity": 28,
              "position": 0.25,
              "duration": 0.020833333333333332
            },
            {
              "pitch": 54,
              "velocity": 40,
              "position": 0.25,
              "duration": 0.020833333333333332
            },
            {
              "pitch": 46,
              "velocity": 43,
              "position": 0.5,
              "duration": 0.020833333333333332
            },
            {
              "pitch": 54,
              "velocity": 30,
              "position": 0.5,
              "duration": 0.020833333333333332
            },
            {
              "pitch": 40,
              "velocity": 28,
              "position": 0.75,
              "duration": 0.020833333333333332
            },
            {
              "pitch": 54,
              "velocity": 41,
              "position": 0.75,
              "duration": 0.020833333333333332
            },
            {
              "pitch": 36,
              "velocity": 100,
              "position": 1,
              "duration": 0.020833333333333332
            },
            {
              "pitch": 40,
              "velocity": 90,
              "position": 1,
              "duration": 0.020833333333333332
            },
            {
              "pitch": 42,
              "velocity": 79,
              "position": 1,
              "duration": 0.020833333333333332
            },
            {
              "pitch": 54,
              "velocity": 70,
              "position": 1,
              "duration": 0.020833333333333332
            },
            {
              "pitch": 54,
              "velocity": 44,
              "position": 1.25,
              "duration": 0.020833333333333332
            },
            {
              "pitch": 46,
              "velocity": 43,
              "position": 1.5,
              "duration": 0.020833333333333332
            },
            {
              "pitch": 54,
              "velocity": 28,
              "position": 1.5,
              "duration": 0.020833333333333332
            },
            {
              "pitch": 40,
              "velocity": 28,
              "position": 1.75,
              "duration": 0.020833333333333332
            },
            {
              "pitch": 54,
              "velocity": 39,
              "position": 1.75,
              "duration": 0.020833333333333332
            },
            {
              "pitch": 36,
              "velocity": 100,
              "position": 2,
              "duration": 0.020833333333333332
            },
            {
              "pitch": 42,
              "velocity": 79,
              "position": 2,
              "duration": 0.020833333333333332
            },
            {
              "pitch": 54,
              "velocity": 72,
              "position": 2,
              "duration": 0.020833333333333332
            },
            {
              "pitch": 54,
              "velocity": 40,
              "position": 2.25,
              "duration": 0.020833333333333332
            },
            {
              "pitch": 46,
              "velocity": 41,
              "position": 2.5,
              "duration": 0.020833333333333332
            },
            {
              "pitch": 54,
              "velocity": 30,
              "position": 2.5,
              "duration": 0.020833333333333332
            },
            {
              "pitch": 40,
              "velocity": 28,
              "position": 2.75,
              "duration": 0.020833333333333332
            },
            {
              "pitch": 54,
              "velocity": 41,
              "position": 2.75,
              "duration": 0.020833333333333332
            },
            {
              "pitch": 36,
              "velocity": 100,
              "position": 3,
              "duration": 0.020833333333333332
            },
            {
              "pitch": 40,
              "velocity": 90,
              "position": 3,
              "duration": 0.020833333333333332
            },
            {
              "pitch": 42,
              "velocity": 79,
              "position": 3,
              "duration": 0.020833333333333332
            },
            {
              "pitch": 54,
              "velocity": 70,
              "position": 3,
              "duration": 0.020833333333333332
            },
            {
              "pitch": 54,
              "velocity": 44,
              "position": 3.25,
              "duration": 0.020833333333333332
            },
            {
              "pitch": 46,
              "velocity": 43,
              "position": 3.5,
              "duration": 0.020833333333333332
            },
            {
              "pitch": 54,
              "velocity": 28,
              "position": 3.5,
              "duration": 0.020833333333333332
            },
            {
              "pitch": 40,
              "velocity": 28,
              "position": 3.75,
              "duration": 0.020833333333333332
            },
            {
              "pitch": 54,
              "velocity": 39,
              "position": 3.75,
              "duration": 0.020833333333333332
            },
            {
              "pitch": 36,
              "velocity": 100,
              "position": 4,
              "duration": 0.020833333333333332
            },
            {
              "pitch": 42,
              "velocity": 79,
              "position": 4,
              "duration": 0.020833333333333332
            },
            {
              "pitch": 54,
              "velocity": 72,
              "position": 4,
              "duration": 0.020833333333333332
            },
            {
              "pitch": 40,
              "velocity": 28,
              "position": 4.25,
              "duration": 0.020833333333333332
            },
            {
              "pitch": 54,
              "velocity": 40,
              "position": 4.25,
              "duration": 0.020833333333333332
            },
            {
              "pitch": 46,
              "velocity": 43,
              "position": 4.5,
              "duration": 0.020833333333333332
            },
            {
              "pitch": 54,
              "velocity": 30,
              "position": 4.5,
              "duration": 0.020833333333333332
            },
            {
              "pitch": 40,
              "velocity": 28,
              "position": 4.75,
              "duration": 0.020833333333333332
            },
            {
              "pitch": 54,
              "velocity": 41,
              "position": 4.75,
              "duration": 0.020833333333333332
            },
            {
              "pitch": 36,
              "velocity": 100,
              "position": 5,
              "duration": 0.020833333333333332
            },
            {
              "pitch": 40,
              "velocity": 90,
              "position": 5,
              "duration": 0.020833333333333332
            },
            {
              "pitch": 42,
              "velocity": 79,
              "position": 5,
              "duration": 0.020833333333333332
            },
            {
              "pitch": 54,
              "velocity": 70,
              "position": 5,
              "duration": 0.020833333333333332
            },
            {
              "pitch": 54,
              "velocity": 44,
              "position": 5.25,
              "duration": 0.020833333333333332
            },
            {
              "pitch": 46,
              "velocity": 43,
              "position": 5.5,
              "duration": 0.020833333333333332
            },
            {
              "pitch": 54,
              "velocity": 28,
              "position": 5.5,
              "duration": 0.020833333333333332
            },
            {
              "pitch": 40,
              "velocity": 28,
              "position": 5.75,
              "duration": 0.020833333333333332
            },
            {
              "pitch": 54,
              "velocity": 39,
              "position": 5.75,
              "duration": 0.020833333333333332
            },
            {
              "pitch": 36,
              "velocity": 100,
              "position": 6,
              "duration": 0.020833333333333332
            },
            {
              "pitch": 42,
              "velocity": 79,
              "position": 6,
              "duration": 0.020833333333333332
            },
            {
              "pitch": 54,
              "velocity": 72,
              "position": 6,
              "duration": 0.020833333333333332
            },
            {
              "pitch": 54,
              "velocity": 40,
              "position": 6.25,
              "duration": 0.020833333333333332
            },
            {
              "pitch": 46,
              "velocity": 41,
              "position": 6.5,
              "duration": 0.020833333333333332
            },
            {
              "pitch": 54,
              "velocity": 30,
              "position": 6.5,
              "duration": 0.020833333333333332
            },
            {
              "pitch": 40,
              "velocity": 28,
              "position": 6.75,
              "duration": 0.020833333333333332
            },
            {
              "pitch": 54,
              "velocity": 41,
              "position": 6.75,
              "duration": 0.020833333333333332
            },
            {
              "pitch": 36,
              "velocity": 100,
              "position": 7,
              "duration": 0.020833333333333332
            },
            {
              "pitch": 40,
              "velocity": 90,
              "position": 7,
              "duration": 0.020833333333333332
            },
            {
              "pitch": 42,
              "velocity": 79,
              "position": 7,
              "duration": 0.020833333333333332
            },
            {
              "pitch": 54,
              "velocity": 70,
              "position": 7,
              "duration": 0.020833333333333332
            },
            {
              "pitch": 54,
              "velocity": 44,
              "position": 7.25,
              "duration": 0.020833333333333332
            },
            {
              "pitch": 46,
              "velocity": 43,
              "position": 7.5,
              "duration": 0.020833333333333332
            },
            {
              "pitch": 54,
              "velocity": 28,
              "position": 7.5,
              "duration": 0.020833333333333332
            },
            {
              "pitch": 40,
              "velocity": 28,
              "position": 7.75,
              "duration": 0.020833333333333332
            },
            {
              "pitch": 54,
              "velocity": 39,
              "position": 7.75,
              "duration": 0.020833333333333332
            }
          ]
        },
        "10": {
          "ctab": {
            "srcChannel": 10,
            "name": "bass",
            "accType": "BASS",
            "editable": false,
            "mutedNotes": [],
            "mutedChords": [],
            "autoStart": false,
            "sourceChordNote": 0,
            "sourceChordType": "Maj7",
            "ctb2Low": null,
            "ctb2Main": {
              "ntr": "ROOT_TRANSPOSITION",
              "ntt": "MELODY",
              "bassOn": true,
              "chordRootUpperLimit": 8,
              "noteLowLimit": 28,
              "noteHighLimit": 127,
              "rtr": "PITCH_SHIFT_TO_ROOT"
            },
            "ctb2High": null
          },
          "notes": [
            {
              "pitch": 24,
              "velocity": 80,
              "position": 0,
              "duration": 0.7291666666666666
            },
            {
              "pitch": 24,
              "velocity": 80,
              "position": 0.75,
              "duration": 0.23958333333333334
            },
            {
              "pitch": 24,
              "velocity": 80,
              "position": 1.5,
              "duration": 0.23958333333333334
            },
            {
              "pitch": 24,
              "velocity": 114,
              "position": 2.25,
              "duration": 0.23958333333333334
            },
            {
              "pitch": 24,
              "velocity": 80,
              "position": 2.5,
              "duration": 0.1875
            },
            {
              "pitch": 24,
              "velocity": 80,
              "position": 3,
              "duration": 0.4791666666666667
            },
            {
              "pitch": 31,
              "velocity": 80,
              "position": 3.5,
              "duration": 0.4791666666666667
            },
            {
              "pitch": 24,
              "velocity": 80,
              "position": 4,
              "duration": 0.7291666666666666
            },
            {
              "pitch": 24,
              "velocity": 80,
              "position": 4.75,
              "duration": 0.23958333333333334
            },
            {
              "pitch": 24,
              "velocity": 80,
              "position": 5.5,
              "duration": 0.23958333333333334
            },
            {
              "pitch": 24,
              "velocity": 114,
              "position": 6.25,
              "duration": 0.23958333333333334
            },
            {
              "pitch": 24,
              "velocity": 80,
              "position": 6.5,
              "duration": 0.1875
            },
            {
              "pitch": 24,
              "velocity": 80,
              "position": 7,
              "duration": 0.4791666666666667
            },
            {
              "pitch": 31,
              "velocity": 80,
              "position": 7.5,
              "duration": 0.4791666666666667
            }
          ]
        },
        "11": {
          "ctab": {
            "srcChannel": 11,
            "name": "git l",
            "accType": "CHORD1",
            "editable": false,
            "mutedNotes": [],
            "mutedChords": [],
            "autoStart": false,
            "sourceChordNote": 0,
            "sourceChordType": "min7(11)",
            "ctb2Low": null,
            "ctb2Main": {
              "ntr": "ROOT_FIXED",
              "ntt": "CHORD",
              "bassOn": false,
              "chordRootUpperLimit": 7,
              "noteLowLimit": 50,
              "noteHighLimit": 127,
              "rtr": "PITCH_SHIFT"
            },
            "ctb2High": null
          },
          "notes": [
            {
              "pitch": 53,
              "velocity": 101,
              "position": 0,
              "duration": 0.22916666666666666
            },
            {
              "pitch": 58,
              "velocity": 101,
              "position": 0,
              "duration": 0.22916666666666666
            },
            {
              "pitch": 63,
              "velocity": 101,
              "position": 0.010416666666666666,
              "duration": 0.21875
            },
            {
              "pitch": 63,
              "velocity": 80,
              "position": 0.25,
              "duration": 0.4791666666666667
            },
            {
              "pitch": 58,
              "velocity": 80,
              "position": 0.2604166666666667,
              "duration": 0.46875
            },
            {
              "pitch": 53,
              "velocity": 80,
              "position": 0.2708333333333333,
              "duration": 0.4583333333333333
            },
            {
              "pitch": 63,
              "velocity": 72,
              "position": 0.75,
              "duration": 0.22916666666666666
            },
            {
              "pitch": 58,
              "velocity": 72,
              "position": 0.7604166666666666,
              "duration": 0.21875
            },
            {
              "pitch": 53,
              "velocity": 72,
              "position": 0.7708333333333334,
              "duration": 0.20833333333333334
            },
            {
              "pitch": 53,
              "velocity": 80,
              "position": 1,
              "duration": 0.4791666666666667
            },
            {
              "pitch": 58,
              "velocity": 80,
              "position": 1.0104166666666667,
              "duration": 0.46875
            },
            {
              "pitch": 63,
              "velocity": 80,
              "position": 1.0208333333333333,
              "duration": 0.4583333333333333
            },
            {
              "pitch": 53,
              "velocity": 100,
              "position": 1.5,
              "duration": 0.7291666666666666
            },
            {
              "pitch": 58,
              "velocity": 100,
              "position": 1.5,
              "duration": 0.7291666666666666
            },
            {
              "pitch": 63,
              "velocity": 100,
              "position": 1.5104166666666667,
              "duration": 0.71875
            },
            {
              "pitch": 63,
              "velocity": 76,
              "position": 2.25,
              "duration": 0.22916666666666666
            },
            {
              "pitch": 58,
              "velocity": 76,
              "position": 2.2604166666666665,
              "duration": 0.21875
            },
            {
              "pitch": 53,
              "velocity": 76,
              "position": 2.2708333333333335,
              "duration": 0.20833333333333334
            },
            {
              "pitch": 53,
              "velocity": 69,
              "position": 2.5,
              "duration": 0.22916666666666666
            },
            {
              "pitch": 58,
              "velocity": 69,
              "position": 2.5104166666666665,
              "duration": 0.21875
            },
            {
              "pitch": 63,
              "velocity": 69,
              "position": 2.5208333333333335,
              "duration": 0.20833333333333334
            },
            {
              "pitch": 63,
              "velocity": 72,
              "position": 2.75,
              "duration": 0.22916666666666666
            },
            {
              "pitch": 58,
              "velocity": 72,
              "position": 2.7604166666666665,
              "duration": 0.21875
            },
            {
              "pitch": 53,
              "velocity": 72,
              "position": 2.7708333333333335,
              "duration": 0.20833333333333334
            },
            {
              "pitch": 53,
              "velocity": 100,
              "position": 3,
              "duration": 0.4791666666666667
            },
            {
              "pitch": 58,
              "velocity": 100,
              "position": 3,
              "duration": 0.4791666666666667
            },
            {
              "pitch": 63,
              "velocity": 100,
              "position": 3.0104166666666665,
              "duration": 0.46875
            },
            {
              "pitch": 53,
              "velocity": 77,
              "position": 3.5,
              "duration": 0.4791666666666667
            },
            {
              "pitch": 58,
              "velocity": 77,
              "position": 3.5104166666666665,
              "duration": 0.46875
            },
            {
              "pitch": 63,
              "velocity": 77,
              "position": 3.5208333333333335,
              "duration": 0.4583333333333333
            },
            {
              "pitch": 53,
              "velocity": 100,
              "position": 4,
              "duration": 0.22916666666666666
            },
            {
              "pitch": 58,
              "velocity": 100,
              "position": 4,
              "duration": 0.22916666666666666
            },
            {
              "pitch": 63,
              "velocity": 100,
              "position": 4.010416666666667,
              "duration": 0.21875
            },
            {
              "pitch": 63,
              "velocity": 80,
              "position": 4.25,
              "duration": 0.4791666666666667
            },
            {
              "pitch": 58,
              "velocity": 80,
              "position": 4.260416666666667,
              "duration": 0.46875
            },
            {
              "pitch": 53,
              "velocity": 80,
              "position": 4.270833333333333,
              "duration": 0.4583333333333333
            },
            {
              "pitch": 63,
              "velocity": 72,
              "position": 4.75,
              "duration": 0.22916666666666666
            },
            {
              "pitch": 58,
              "velocity": 72,
              "position": 4.760416666666667,
              "duration": 0.21875
            },
            {
              "pitch": 53,
              "velocity": 72,
              "position": 4.770833333333333,
              "duration": 0.20833333333333334
            },
            {
              "pitch": 53,
              "velocity": 80,
              "position": 5,
              "duration": 0.4791666666666667
            },
            {
              "pitch": 58,
              "velocity": 80,
              "position": 5.010416666666667,
              "duration": 0.46875
            },
            {
              "pitch": 63,
              "velocity": 80,
              "position": 5.020833333333333,
              "duration": 0.4583333333333333
            },
            {
              "pitch": 53,
              "velocity": 95,
              "position": 5.5,
              "duration": 0.22916666666666666
            },
            {
              "pitch": 58,
              "velocity": 95,
              "position": 5.5,
              "duration": 0.22916666666666666
            },
            {
              "pitch": 63,
              "velocity": 95,
              "position": 5.510416666666667,
              "duration": 0.21875
            },
            {
              "pitch": 63,
              "velocity": 87,
              "position": 5.75,
              "duration": 0.4791666666666667
            },
            {
              "pitch": 58,
              "velocity": 87,
              "position": 5.760416666666667,
              "duration": 0.46875
            },
            {
              "pitch": 53,
              "velocity": 87,
              "position": 5.770833333333333,
              "duration": 0.4583333333333333
            },
            {
              "pitch": 63,
              "velocity": 76,
              "position": 6.25,
              "duration": 0.22916666666666666
            },
            {
              "pitch": 58,
              "velocity": 76,
              "position": 6.260416666666667,
              "duration": 0.21875
            },
            {
              "pitch": 53,
              "velocity": 76,
              "position": 6.270833333333333,
              "duration": 0.20833333333333334
            },
            {
              "pitch": 53,
              "velocity": 69,
              "position": 6.5,
              "duration": 0.22916666666666666
            },
            {
              "pitch": 58,
              "velocity": 69,
              "position": 6.510416666666667,
              "duration": 0.21875
            },
            {
              "pitch": 63,
              "velocity": 69,
              "position": 6.520833333333333,
              "duration": 0.20833333333333334
            },
            {
              "pitch": 63,
              "velocity": 72,
              "position": 6.75,
              "duration": 0.22916666666666666
            },
            {
              "pitch": 58,
              "velocity": 72,
              "position": 6.760416666666667,
              "duration": 0.21875
            },
            {
              "pitch": 53,
              "velocity": 72,
              "position": 6.770833333333333,
              "duration": 0.20833333333333334
            },
            {
              "pitch": 53,
              "velocity": 99,
              "position": 7,
              "duration": 0.4791666666666667
            },
            {
              "pitch": 58,
              "velocity": 99,
              "position": 7,
              "duration": 0.4791666666666667
            },
            {
              "pitch": 63,
              "velocity": 99,
              "position": 7.010416666666667,
              "duration": 0.46875
            },
            {
              "pitch": 53,
              "velocity": 77,
              "position": 7.5,
              "duration": 0.4791666666666667
            },
            {
              "pitch": 58,
              "velocity": 77,
              "position": 7.510416666666667,
              "duration": 0.46875
            },
            {
              "pitch": 63,
              "velocity": 77,
              "position": 7.520833333333333,
              "duration": 0.4583333333333333
            }
          ]
        },
        "12": {
          "ctab": {
            "srcChannel": 12,
            "name": "git r",
            "accType": "CHORD2",
            "editable": false,
            "mutedNotes": [],
            "mutedChords": [],
            "autoStart": false,
            "sourceChordNote": 0,
            "sourceChordType": "min7(11)",
            "ctb2Low": null,
            "ctb2Main": {
              "ntr": "ROOT_FIXED",
              "ntt": "CHORD",
              "bassOn": false,
              "chordRootUpperLimit": 7,
              "noteLowLimit": 50,
              "noteHighLimit": 127,
              "rtr": "PITCH_SHIFT"
            },
            "ctb2High": null
          },
          "notes": [
            {
              "pitch": 53,
              "velocity": 17,
              "position": 0,
              "duration": 0.7395833333333334
            },
            {
              "pitch": 58,
              "velocity": 17,
              "position": 0,
              "duration": 0.7395833333333334
            },
            {
              "pitch": 63,
              "velocity": 17,
              "position": 0.010416666666666666,
              "duration": 0.7291666666666666
            },
            {
              "pitch": 63,
              "velocity": 7,
              "position": 0.75,
              "duration": 0.23958333333333334
            },
            {
              "pitch": 58,
              "velocity": 7,
              "position": 0.7604166666666666,
              "duration": 0.22916666666666666
            },
            {
              "pitch": 53,
              "velocity": 7,
              "position": 0.7708333333333334,
              "duration": 0.21875
            },
            {
              "pitch": 53,
              "velocity": 10,
              "position": 1,
              "duration": 0.4895833333333333
            },
            {
              "pitch": 58,
              "velocity": 10,
              "position": 1.0104166666666667,
              "duration": 0.4791666666666667
            },
            {
              "pitch": 63,
              "velocity": 10,
              "position": 1.0208333333333333,
              "duration": 0.46875
            },
            {
              "pitch": 53,
              "velocity": 17,
              "position": 1.5,
              "duration": 0.9895833333333334
            },
            {
              "pitch": 58,
              "velocity": 17,
              "position": 1.5,
              "duration": 0.9895833333333334
            },
            {
              "pitch": 63,
              "velocity": 17,
              "position": 1.5104166666666667,
              "duration": 0.9791666666666666
            },
            {
              "pitch": 53,
              "velocity": 7,
              "position": 2.5,
              "duration": 0.4895833333333333
            },
            {
              "pitch": 58,
              "velocity": 7,
              "position": 2.5104166666666665,
              "duration": 0.4791666666666667
            },
            {
              "pitch": 63,
              "velocity": 7,
              "position": 2.5208333333333335,
              "duration": 0.46875
            },
            {
              "pitch": 53,
              "velocity": 17,
              "position": 3,
              "duration": 0.9895833333333334
            },
            {
              "pitch": 58,
              "velocity": 17,
              "position": 3,
              "duration": 0.9895833333333334
            },
            {
              "pitch": 63,
              "velocity": 17,
              "position": 3.0104166666666665,
              "duration": 0.9791666666666666
            },
            {
              "pitch": 53,
              "velocity": 17,
              "position": 4,
              "duration": 0.23958333333333334
            },
            {
              "pitch": 58,
              "velocity": 17,
              "position": 4,
              "duration": 0.23958333333333334
            },
            {
              "pitch": 63,
              "velocity": 17,
              "position": 4.010416666666667,
              "duration": 0.22916666666666666
            },
            {
              "pitch": 63,
              "velocity": 13,
              "position": 4.25,
              "duration": 0.4895833333333333
            },
            {
              "pitch": 58,
              "velocity": 13,
              "position": 4.260416666666667,
              "duration": 0.4791666666666667
            },
            {
              "pitch": 53,
              "velocity": 13,
              "position": 4.270833333333333,
              "duration": 0.46875
            },
            {
              "pitch": 63,
              "velocity": 7,
              "position": 4.75,
              "duration": 0.23958333333333334
            },
            {
              "pitch": 58,
              "velocity": 7,
              "position": 4.760416666666667,
              "duration": 0.22916666666666666
            },
            {
              "pitch": 53,
              "velocity": 7,
              "position": 4.770833333333333,
              "duration": 0.21875
            },
            {
              "pitch": 53,
              "velocity": 10,
              "position": 5,
              "duration": 0.4895833333333333
            },
            {
              "pitch": 58,
              "velocity": 10,
              "position": 5.010416666666667,
              "duration": 0.4791666666666667
            },
            {
              "pitch": 63,
              "velocity": 10,
              "position": 5.020833333333333,
              "duration": 0.46875
            },
            {
              "pitch": 53,
              "velocity": 17,
              "position": 5.5,
              "duration": 0.7395833333333334
            },
            {
              "pitch": 58,
              "velocity": 17,
              "position": 5.5,
              "duration": 0.7395833333333334
            },
            {
              "pitch": 63,
              "velocity": 17,
              "position": 5.510416666666667,
              "duration": 0.7291666666666666
            },
            {
              "pitch": 63,
              "velocity": 7,
              "position": 6.25,
              "duration": 0.23958333333333334
            },
            {
              "pitch": 58,
              "velocity": 7,
              "position": 6.260416666666667,
              "duration": 0.22916666666666666
            },
            {
              "pitch": 53,
              "velocity": 7,
              "position": 6.270833333333333,
              "duration": 0.21875
            },
            {
              "pitch": 53,
              "velocity": 7,
              "position": 6.5,
              "duration": 0.4895833333333333
            },
            {
              "pitch": 58,
              "velocity": 7,
              "position": 6.510416666666667,
              "duration": 0.4791666666666667
            },
            {
              "pitch": 63,
              "velocity": 7,
              "position": 6.520833333333333,
              "duration": 0.46875
            },
            {
              "pitch": 53,
              "velocity": 17,
              "position": 7,
              "duration": 0.9895833333333334
            },
            {
              "pitch": 58,
              "velocity": 17,
              "position": 7,
              "duration": 0.9895833333333334
            },
            {
              "pitch": 63,
              "velocity": 17,
              "position": 7.010416666666667,
              "duration": 0.9791666666666666
            }
          ]
        },
        "13": {
          "ctab": {
            "srcChannel": 13,
            "name": "strng",
            "accType": "PAD",
            "editable": false,
            "mutedNotes": [],
            "mutedChords": [],
            "autoStart": false,
            "sourceChordNote": 0,
            "sourceChordType": "min7(11)",
            "ctb2Low": null,
            "ctb2Main": {
              "ntr": "ROOT_FIXED",
              "ntt": "CHORD",
              "bassOn": false,
              "chordRootUpperLimit": 7,
              "noteLowLimit": 50,
              "noteHighLimit": 127,
              "rtr": "PITCH_SHIFT"
            },
            "ctb2High": null
          },
          "notes": [
            {
              "pitch": 53,
              "velocity": 68,
              "position": 0,
              "duration": 7.989583333333333
            },
            {
              "pitch": 58,
              "velocity": 68,
              "position": 0,
              "duration": 7.989583333333333
            },
            {
              "pitch": 63,
              "velocity": 68,
              "position": 0,
              "duration": 7.989583333333333
            }
          ]
        },
        "14": {
          "ctab": {
            "srcChannel": 14,
            "name": "git 3",
            "accType": "PHRASE1",
            "editable": false,
            "mutedNotes": [],
            "mutedChords": [],
            "autoStart": false,
            "sourceChordNote": 0,
            "sourceChordType": "min7(11)",
            "ctb2Low": null,
            "ctb2Main": {
              "ntr": "ROOT_FIXED",
              "ntt": "CHORD",
              "bassOn": false,
              "chordRootUpperLimit": 7,
              "noteLowLimit": 50,
              "noteHighLimit": 127,
              "rtr": "PITCH_SHIFT"
            },
            "ctb2High": null
          },
          "notes": [
            {
              "pitch": 53,
              "velocity": 109,
              "position": 1,
              "duration": 0.125
            },
            {
              "pitch": 58,
              "velocity": 109,
              "position": 1.0104166666666667,
              "duration": 0.125
            },
            {
              "pitch": 63,
              "velocity": 109,
              "position": 1.0208333333333333,
              "duration": 0.125
            },
            {
              "pitch": 53,
              "velocity": 109,
              "position": 3,
              "duration": 0.125
            },
            {
              "pitch": 58,
              "velocity": 109,
              "position": 3.0104166666666665,
              "duration": 0.125
            },
            {
              "pitch": 63,
              "velocity": 109,
              "position": 3.0208333333333335,
              "duration": 0.125
            },
            {
              "pitch": 53,
              "velocity": 109,
              "position": 5,
              "duration": 0.125
            },
            {
              "pitch": 58,
              "velocity": 109,
              "position": 5.010416666666667,
              "duration": 0.125
            },
            {
              "pitch": 63,
              "velocity": 109,
              "position": 5.020833333333333,
              "duration": 0.125
            },
            {
              "pitch": 53,
              "velocity": 109,
              "position": 7,
              "duration": 0.125
            },
            {
              "pitch": 58,
              "velocity": 109,
              "position": 7.010416666666667,
              "duration": 0.125
            },
            {
              "pitch": 63,
              "velocity": 109,
              "position": 7.020833333333333,
              "duration": 0.125
            }
          ]
        }
      }
    },
    "Fill_In_AA": {
      "type": "Fill_In_AA",
      "sizeInBeats": 4,
      "channels": {
        "1": {
          "ctab": {
            "srcChannel": 1,
            "name": "Git root",
            "accType": "CHORD1",
            "editable": false,
            "mutedNotes": [],
            "mutedChords": [
              "1+2+5",
              "sus4",
              "1+5",
              "1+8",
              "Maj7aug",
              "dim",
              "minMaj7(9)",
              "minMaj7",
              "min6",
              "min",
              "aug",
              "Maj7(9)",
              "Maj7#11",
              "Maj7",
              "Maj6",
              "Maj"
            ],
            "autoStart": false,
            "sourceChordNote": 0,
            "sourceChordType": "Maj7",
            "ctb2Low": null,
            "ctb2Main": {
              "ntr": "ROOT_TRANSPOSITION",
              "ntt": "CHORD",
              "bassOn": false,
              "chordRootUpperLimit": 6,
              "noteLowLimit": 0,
              "noteHighLimit": 127,
              "rtr": "PITCH_SHIFT"
            },
            "ctb2High": null
          },
          "notes": [
            {
              "pitch": 60,
              "velocity": 98,
              "position": 0,
              "duration": 0.75
            },
            {
              "pitch": 60,
              "velocity": 72,
              "position": 0.7708333333333334,
              "duration": 0.20833333333333334
            },
            {
              "pitch": 60,
              "velocity": 80,
              "position": 1,
              "duration": 0.4791666666666667
            },
            {
              "pitch": 60,
              "velocity": 98,
              "position": 1.5,
              "duration": 1.9895833333333333
            },
            {
              "pitch": 60,
              "velocity": 80,
              "position": 3.5,
              "duration": 0.4791666666666667
            }
          ]
        },
        "2": {
          "ctab": {
            "srcChannel": 2,
            "name": "str root",
            "accType": "PAD",
            "editable": false,
            "mutedNotes": [],
            "mutedChords": [
              "1+2+5",
              "sus4",
              "1+5",
              "1+8",
              "Maj7aug",
              "dim",
              "minMaj7(9)",
              "minMaj7",
              "min6",
              "min",
              "aug",
              "Maj7(9)",
              "Maj7#11",
              "Maj7",
              "Maj6",
              "Maj"
            ],
            "autoStart": false,
            "sourceChordNote": 0,
            "sourceChordType": "Maj7",
            "ctb2Low": null,
            "ctb2Main": {
              "ntr": "ROOT_TRANSPOSITION",
              "ntt": "CHORD",
              "bassOn": false,
              "chordRootUpperLimit": 6,
              "noteLowLimit": 0,
              "noteHighLimit": 127,
              "rtr": "PITCH_SHIFT"
            },
            "ctb2High": null
          },
          "notes": [
            {
              "pitch": 60,
              "velocity": 68,
              "position": 0,
              "duration": 3.9895833333333335
            }
          ]
        },
        "6": {
          "ctab": {
            "srcChannel": 6,
            "name": "CleanFX",
            "accType": "CHORD2",
            "editable": false,
            "mutedNotes": [],
            "mutedChords": [],
            "autoStart": false,
            "sourceChordNote": 0,
            "sourceChordType": "Maj",
            "ctb2Low": null,
            "ctb2Main": {
              "ntr": "ROOT_FIXED",
              "ntt": "BYPASS",
              "bassOn": false,
              "chordRootUpperLimit": 7,
              "noteLowLimit": 0,
              "noteHighLimit": 79,
              "rtr": "PITCH_SHIFT"
            },
            "ctb2High": null
          },
          "notes": [
            {
              "pitch": 100,
              "velocity": 87,
              "position": 0,
              "duration": 0.23958333333333334
            },
            {
              "pitch": 101,
              "velocity": 78,
              "position": 0.75,
              "duration": 0.23958333333333334
            },
            {
              "pitch": 100,
              "velocity": 87,
              "position": 1.5,
              "duration": 0.23958333333333334
            },
            {
              "pitch": 101,
              "velocity": 78,
              "position": 2.25,
              "duration": 0.23958333333333334
            },
            {
              "pitch": 100,
              "velocity": 78,
              "position": 3,
              "duration": 0.23958333333333334
            }
          ]
        },
        "7": {
          "ctab": {
            "srcChannel": 7,
            "name": "CC_Crash",
            "accType": "RHYTHM",
            "editable": false,
            "mutedNotes": [],
            "mutedChords": [
              "1+2+5",
              "sus4",
              "1+5",
              "1+8",
              "7aug",
              "Maj7aug",
              "7(#9)",
              "7(b13)",
              "7(b9)",
              "7(13)",
              "7#11",
              "7(9)",
              "7b5",
              "7sus4",
              "7th",
              "dim7",
              "dim",
              "minMaj7(9)",
              "minMaj7",
              "min7(11)",
              "min7(9)",
              "min(9)",
              "m7b5",
              "min7",
              "min6",
              "min",
              "aug",
              "Maj6(9)",
              "Maj7(9)",
              "Maj(9)",
              "Maj7#11",
              "Maj7",
              "Maj6",
              "Maj"
            ],
            "autoStart": true,
            "sourceChordNote": 0,
            "sourceChordType": "Maj",
            "ctb2Low": null,
            "ctb2Main": {
              "ntr": "ROOT_FIXED",
              "ntt": "BYPASS",
              "bassOn": false,
              "chordRootUpperLimit": 0,
              "noteLowLimit": 0,
              "noteHighLimit": 127,
              "rtr": "RETRIGGER"
            },
            "ctb2High": null
          },
          "notes": []
        },
        "8": {
          "ctab": {
            "srcChannel": 8,
            "name": "drums",
            "accType": "SUBRHYTHM",
            "editable": false,
            "mutedNotes": [],
            "mutedChords": [],
            "autoStart": true,
            "sourceChordNote": 0,
            "sourceChordType": "Maj7",
            "ctb2Low": null,
            "ctb2Main": {
              "ntr": "ROOT_FIXED",
              "ntt": "BYPASS",
              "bassOn": false,
              "chordRootUpperLimit": 6,
              "noteLowLimit": 0,
              "noteHighLimit": 127,
              "rtr": "PITCH_SHIFT"
            },
            "ctb2High": null
          },
          "notes": [
            {
              "pitch": 82,
              "velocity": 78,
              "position": 0,
              "duration": 0.020833333333333332
            },
            {
              "pitch": 82,
              "velocity": 51,
              "position": 0.25,
              "duration": 0.020833333333333332
            },
            {
              "pitch": 82,
              "velocity": 51,
              "position": 0.5,
              "duration": 0.020833333333333332
            },
            {
              "pitch": 82,
              "velocity": 58,
              "position": 0.75,
              "duration": 0.020833333333333332
            },
            {
              "pitch": 82,
              "velocity": 68,
              "position": 1,
              "duration": 0.020833333333333332
            },
            {
              "pitch": 82,
              "velocity": 51,
              "position": 1.25,
              "duration": 0.020833333333333332
            },
            {
              "pitch": 82,
              "velocity": 51,
              "position": 1.5,
              "duration": 0.020833333333333332
            },
            {
              "pitch": 82,
              "velocity": 58,
              "position": 1.75,
              "duration": 0.020833333333333332
            },
            {
              "pitch": 82,
              "velocity": 78,
              "position": 2,
              "duration": 0.020833333333333332
            },
            {
              "pitch": 82,
              "velocity": 51,
              "position": 2.25,
              "duration": 0.020833333333333332
            },
            {
              "pitch": 82,
              "velocity": 51,
              "position": 2.5,
              "duration": 0.020833333333333332
            },
            {
              "pitch": 82,
              "velocity": 58,
              "position": 2.75,
              "duration": 0.020833333333333332
            },
            {
              "pitch": 82,
              "velocity": 68,
              "position": 3,
              "duration": 0.020833333333333332
            },
            {
              "pitch": 82,
              "velocity": 51,
              "position": 3.25,
              "duration": 0.020833333333333332
            },
            {
              "pitch": 82,
              "velocity": 51,
              "position": 3.5,
              "duration": 0.020833333333333332
            },
            {
              "pitch": 82,
              "velocity": 58,
              "position": 3.75,
              "duration": 0.020833333333333332
            }
          ]
        },
        "9": {
          "ctab": {
            "srcChannel": 9,
            "name": "drums",
            "accType": "RHYTHM",
            "editable": false,
            "mutedNotes": [],
            "mutedChords": [],
            "autoStart": true,
            "sourceChordNote": 0,
            "sourceChordType": "Maj7",
            "ctb2Low": null,
            "ctb2Main": {
              "ntr": "ROOT_FIXED",
              "ntt": "BYPASS",
              "bassOn": false,
              "chordRootUpperLimit": 6,
              "noteLowLimit": 0,
              "noteHighLimit": 127,
              "rtr": "PITCH_SHIFT"
            },
            "ctb2High": null
          },
          "notes": [
            {
              "pitch": 36,
              "velocity": 100,
              "position": 0,
              "duration": 0.020833333333333332
            },
            {
              "pitch": 42,
              "velocity": 84,
              "position": 0,
              "duration": 0.020833333333333332
            },
            {
              "pitch": 42,
              "velocity": 60,
              "position": 0.5,
              "duration": 0.020833333333333332
            },
            {
              "pitch": 36,
              "velocity": 54,
              "position": 0.75,
              "duration": 0.020833333333333332
            },
            {
              "pitch": 40,
              "velocity": 90,
              "position": 1,
              "duration": 0.020833333333333332
            },
            {
              "pitch": 42,
              "velocity": 84,
              "position": 1,
              "duration": 0.020833333333333332
            },
            {
              "pitch": 36,
              "velocity": 100,
              "position": 1.5,
              "duration": 0.020833333333333332
            },
            {
              "pitch": 46,
              "velocity": 58,
              "position": 1.5,
              "duration": 0.020833333333333332
            },
            {
              "pitch": 42,
              "velocity": 38,
              "position": 2,
              "duration": 0.020833333333333332
            },
            {
              "pitch": 36,
              "velocity": 44,
              "position": 2.5,
              "duration": 0.020833333333333332
            },
            {
              "pitch": 42,
              "velocity": 55,
              "position": 2.5,
              "duration": 0.020833333333333332
            },
            {
              "pitch": 36,
              "velocity": 81,
              "position": 2.75,
              "duration": 0.020833333333333332
            },
            {
              "pitch": 42,
              "velocity": 38,
              "position": 2.75,
              "duration": 0.020833333333333332
            },
            {
              "pitch": 40,
              "velocity": 90,
              "position": 3,
              "duration": 0.020833333333333332
            },
            {
              "pitch": 42,
              "velocity": 84,
              "position": 3,
              "duration": 0.020833333333333332
            },
            {
              "pitch": 47,
              "velocity": 65,
              "position": 3.25,
              "duration": 0.020833333333333332
            },
            {
              "pitch": 42,
              "velocity": 58,
              "position": 3.5,
              "duration": 0.020833333333333332
            },
            {
              "pitch": 45,
              "velocity": 59,
              "position": 3.5,
              "duration": 0.020833333333333332
            },
            {
              "pitch": 42,
              "velocity": 38,
              "position": 3.75,
              "duration": 0.020833333333333332
            }
          ]
        },
        "10": {
          "ctab": {
            "srcChannel": 10,
            "name": "bass",
            "accType": "BASS",
            "editable": false,
            "mutedNotes": [],
            "mutedChords": [],
            "autoStart": false,
            "sourceChordNote": 0,
            "sourceChordType": "Maj7",
            "ctb2Low": null,
            "ctb2Main": {
              "ntr": "ROOT_TRANSPOSITION",
              "ntt": "MELODY",
              "bassOn": true,
              "chordRootUpperLimit": 8,
              "noteLowLimit": 28,
              "noteHighLimit": 127,
              "rtr": "PITCH_SHIFT_TO_ROOT"
            },
            "ctb2High": null
          },
          "notes": [
            {
              "pitch": 24,
              "velocity": 80,
              "position": 0,
              "duration": 0.4895833333333333
            },
            {
              "pitch": 24,
              "velocity": 114,
              "position": 0.5,
              "duration": 0.23958333333333334
            },
            {
              "pitch": 24,
              "velocity": 80,
              "position": 1.5,
              "duration": 1.5
            },
            {
              "pitch": 31,
              "velocity": 80,
              "position": 3.5,
              "duration": 0.4791666666666667
            }
          ]
        },
        "11": {
          "ctab": {
            "srcChannel": 11,
            "name": "git l",
            "accType": "CHORD1",
            "editable": false,
            "mutedNotes": [],
            "mutedChords": [],
            "autoStart": false,
            "sourceChordNote": 0,
            "sourceChordType": "min7(11)",
            "ctb2Low": null,
            "ctb2Main": {
              "ntr": "ROOT_FIXED",
              "ntt": "CHORD",
              "bassOn": false,
              "chordRootUpperLimit": 7,
              "noteLowLimit": 50,
              "noteHighLimit": 127,
              "rtr": "PITCH_SHIFT"
            },
            "ctb2High": null
          },
          "notes": [
            {
              "pitch": 53,
              "velocity": 98,
              "position": 0,
              "duration": 0.7291666666666666
            },
            {
              "pitch": 58,
              "velocity": 98,
              "position": 0.010416666666666666,
              "duration": 0.71875
            },
            {
              "pitch": 63,
              "velocity": 98,
              "position": 0.020833333333333332,
              "duration": 0.7083333333333334
            },
            {
              "pitch": 63,
              "velocity": 72,
              "position": 0.75,
              "duration": 0.22916666666666666
            },
            {
              "pitch": 58,
              "velocity": 72,
              "position": 0.7604166666666666,
              "duration": 0.21875
            },
            {
              "pitch": 53,
              "velocity": 72,
              "position": 0.7708333333333334,
              "duration": 0.20833333333333334
            },
            {
              "pitch": 53,
              "velocity": 80,
              "position": 1,
              "duration": 0.4791666666666667
            },
            {
              "pitch": 58,
              "velocity": 80,
              "position": 1.0104166666666667,
              "duration": 0.46875
            },
            {
              "pitch": 63,
              "velocity": 80,
              "position": 1.0208333333333333,
              "duration": 0.4583333333333333
            },
            {
              "pitch": 53,
              "velocity": 98,
              "position": 1.5,
              "duration": 1.9791666666666667
            },
            {
              "pitch": 58,
              "velocity": 98,
              "position": 1.5,
              "duration": 1.9791666666666667
            },
            {
              "pitch": 63,
              "velocity": 98,
              "position": 1.5104166666666667,
              "duration": 1.96875
            },
            {
              "pitch": 53,
              "velocity": 80,
              "position": 3.5,
              "duration": 0.4791666666666667
            },
            {
              "pitch": 58,
              "velocity": 80,
              "position": 3.5104166666666665,
              "duration": 0.46875
            },
            {
              "pitch": 63,
              "velocity": 80,
              "position": 3.5208333333333335,
              "duration": 0.4583333333333333
            }
          ]
        },
        "12": {
          "ctab": {
            "srcChannel": 12,
            "name": "git r",
            "accType": "CHORD2",
            "editable": false,
            "mutedNotes": [],
            "mutedChords": [],
            "autoStart": false,
            "sourceChordNote": 0,
            "sourceChordType": "min7(11)",
            "ctb2Low": null,
            "ctb2Main": {
              "ntr": "ROOT_FIXED",
              "ntt": "CHORD",
              "bassOn": false,
              "chordRootUpperLimit": 7,
              "noteLowLimit": 50,
              "noteHighLimit": 127,
              "rtr": "PITCH_SHIFT"
            },
            "ctb2High": null
          },
          "notes": [
            {
              "pitch": 53,
              "velocity": 20,
              "position": 0,
              "duration": 0.7395833333333334
            },
            {
              "pitch": 58,
              "velocity": 20,
              "position": 0.010416666666666666,
              "duration": 0.7291666666666666
            },
            {
              "pitch": 63,
              "velocity": 20,
              "position": 0.020833333333333332,
              "duration": 0.71875
            },
            {
              "pitch": 63,
              "velocity": 11,
              "position": 0.75,
              "duration": 0.7395833333333334
            },
            {
              "pitch": 58,
              "velocity": 11,
              "position": 0.7604166666666666,
              "duration": 0.7291666666666666
            },
            {
              "pitch": 53,
              "velocity": 11,
              "position": 0.7708333333333334,
              "duration": 0.71875
            },
            {
              "pitch": 53,
              "velocity": 20,
              "position": 1.5,
              "duration": 0.7395833333333334
            },
            {
              "pitch": 58,
              "velocity": 20,
              "position": 1.5104166666666667,
              "duration": 0.7291666666666666
            },
            {
              "pitch": 63,
              "velocity": 20,
              "position": 1.5208333333333333,
              "duration": 0.71875
            },
            {
              "pitch": 63,
              "velocity": 11,
              "position": 2.25,
              "duration": 0.7395833333333334
            },
            {
              "pitch": 58,
              "velocity": 11,
              "position": 2.2604166666666665,
              "duration": 0.7291666666666666
            },
            {
              "pitch": 53,
              "velocity": 11,
              "position": 2.2708333333333335,
              "duration": 0.71875
            },
            {
              "pitch": 53,
              "velocity": 11,
              "position": 3,
              "duration": 0.9895833333333334
            },
            {
              "pitch": 58,
              "velocity": 11,
              "position": 3.0104166666666665,
              "duration": 0.9791666666666666
            },
            {
              "pitch": 63,
              "velocity": 11,
              "position": 3.0208333333333335,
              "duration": 0.96875
            }
          ]
        },
        "13": {
          "ctab": {
            "srcChannel": 13,
            "name": "strng",
            "accType": "PAD",
            "editable": false,
            "mutedNotes": [],
            "mutedChords": [],
            "autoStart": false,
            "sourceChordNote": 0,
            "sourceChordType": "min7(11)",
            "ctb2Low": null,
            "ctb2Main": {
              "ntr": "ROOT_FIXED",
              "ntt": "CHORD",
              "bassOn": false,
              "chordRootUpperLimit": 7,
              "noteLowLimit": 50,
              "noteHighLimit": 127,
              "rtr": "PITCH_SHIFT"
            },
            "ctb2High": null
          },
          "notes": [
            {
              "pitch": 53,
              "velocity": 68,
              "position": 0,
              "duration": 3.9895833333333335
            },
            {
              "pitch": 58,
              "velocity": 68,
              "position": 0,
              "duration": 3.9895833333333335
            },
            {
              "pitch": 63,
              "velocity": 68,
              "position": 0,
              "duration": 3.9895833333333335
            }
          ]
        },
        "14": {
          "ctab": {
            "srcChannel": 14,
            "name": "git 3",
            "accType": "PHRASE1",
            "editable": false,
            "mutedNotes": [],
            "mutedChords": [],
            "autoStart": false,
            "sourceChordNote": 0,
            "sourceChordType": "min7(11)",
            "ctb2Low": null,
            "ctb2Main": {
              "ntr": "ROOT_FIXED",
              "ntt": "CHORD",
              "bassOn": false,
              "chordRootUpperLimit": 7,
              "noteLowLimit": 50,
              "noteHighLimit": 127,
              "rtr": "PITCH_SHIFT"
            },
            "ctb2High": null
          },
          "notes": []
        }
      }
    },
    "Fill_In_BB": {
      "type": "Fill_In_BB",
      "sizeInBeats": 4,
      "channels": {
        "1": {
          "ctab": {
            "srcChannel": 1,
            "name": "Git root",
            "accType": "CHORD1",
            "editable": false,
            "mutedNotes": [],
            "mutedChords": [
              "1+2+5",
              "sus4",
              "1+5",
              "1+8",
              "Maj7aug",
              "dim",
              "minMaj7(9)",
              "minMaj7",
              "min6",
              "min",
              "aug",
              "Maj7(9)",
              "Maj7#11",
              "Maj7",
              "Maj6",
              "Maj"
            ],
            "autoStart": false,
            "sourceChordNote": 0,
            "sourceChordType": "Maj7",
            "ctb2Low": null,
            "ctb2Main": {
              "ntr": "ROOT_TRANSPOSITION",
              "ntt": "CHORD",
              "bassOn": false,
              "chordRootUpperLimit": 6,
              "noteLowLimit": 0,
              "noteHighLimit": 127,
              "rtr": "PITCH_SHIFT"
            },
            "ctb2High": null
          },
          "notes": [
            {
              "pitch": 60,
              "velocity": 98,
              "position": 0,
              "duration": 0.75
            },
            {
              "pitch": 60,
              "velocity": 72,
              "position": 0.7708333333333334,
              "duration": 0.20833333333333334
            },
            {
              "pitch": 60,
              "velocity": 80,
              "position": 1,
              "duration": 0.4791666666666667
            },
            {
              "pitch": 60,
              "velocity": 98,
              "position": 1.5,
              "duration": 1.4895833333333333
            },
            {
              "pitch": 60,
              "velocity": 80,
              "position": 3,
              "duration": 0.23958333333333334
            },
            {
              "pitch": 60,
              "velocity": 72,
              "position": 3.2708333333333335,
              "duration": 0.20833333333333334
            },
            {
              "pitch": 60,
              "velocity": 80,
              "position": 3.5,
              "duration": 0.4791666666666667
            }
          ]
        },
        "2": {
          "ctab": {
            "srcChannel": 2,
            "name": "str root",
            "accType": "PAD",
            "editable": false,
            "mutedNotes": [],
            "mutedChords": [
              "1+2+5",
              "sus4",
              "1+5",
              "1+8",
              "Maj7aug",
              "dim",
              "minMaj7(9)",
              "minMaj7",
              "min6",
              "min",
              "aug",
              "Maj7(9)",
              "Maj7#11",
              "Maj7",
              "Maj6",
              "Maj"
            ],
            "autoStart": false,
            "sourceChordNote": 0,
            "sourceChordType": "Maj7",
            "ctb2Low": null,
            "ctb2Main": {
              "ntr": "ROOT_TRANSPOSITION",
              "ntt": "CHORD",
              "bassOn": false,
              "chordRootUpperLimit": 6,
              "noteLowLimit": 0,
              "noteHighLimit": 127,
              "rtr": "PITCH_SHIFT"
            },
            "ctb2High": null
          },
          "notes": [
            {
              "pitch": 60,
              "velocity": 68,
              "position": 0,
              "duration": 3.9895833333333335
            }
          ]
        },
        "6": {
          "ctab": {
            "srcChannel": 6,
            "name": "CleanFX",
            "accType": "CHORD2",
            "editable": false,
            "mutedNotes": [],
            "mutedChords": [],
            "autoStart": false,
            "sourceChordNote": 0,
            "sourceChordType": "Maj",
            "ctb2Low": null,
            "ctb2Main": {
              "ntr": "ROOT_FIXED",
              "ntt": "BYPASS",
              "bassOn": false,
              "chordRootUpperLimit": 7,
              "noteLowLimit": 0,
              "noteHighLimit": 79,
              "rtr": "PITCH_SHIFT"
            },
            "ctb2High": null
          },
          "notes": [
            {
              "pitch": 100,
              "velocity": 87,
              "position": 0,
              "duration": 0.23958333333333334
            },
            {
              "pitch": 101,
              "velocity": 78,
              "position": 0.5,
              "duration": 0.23958333333333334
            },
            {
              "pitch": 100,
              "velocity": 87,
              "position": 1,
              "duration": 0.23958333333333334
            },
            {
              "pitch": 101,
              "velocity": 78,
              "position": 1.5,
              "duration": 0.23958333333333334
            },
            {
              "pitch": 101,
              "velocity": 78,
              "position": 2.5,
              "duration": 0.23958333333333334
            },
            {
              "pitch": 100,
              "velocity": 87,
              "position": 3,
              "duration": 0.23958333333333334
            },
            {
              "pitch": 101,
              "velocity": 78,
              "position": 3.5,
              "duration": 0.23958333333333334
            }
          ]
        },
        "7": {
          "ctab": {
            "srcChannel": 7,
            "name": "CC_Crash",
            "accType": "RHYTHM",
            "editable": false,
            "mutedNotes": [],
            "mutedChords": [
              "1+2+5",
              "sus4",
              "1+5",
              "1+8",
              "7aug",
              "Maj7aug",
              "7(#9)",
              "7(b13)",
              "7(b9)",
              "7(13)",
              "7#11",
              "7(9)",
              "7b5",
              "7sus4",
              "7th",
              "dim7",
              "dim",
              "minMaj7(9)",
              "minMaj7",
              "min7(11)",
              "min7(9)",
              "min(9)",
              "m7b5",
              "min7",
              "min6",
              "min",
              "aug",
              "Maj6(9)",
              "Maj7(9)",
              "Maj(9)",
              "Maj7#11",
              "Maj7",
              "Maj6",
              "Maj"
            ],
            "autoStart": true,
            "sourceChordNote": 0,
            "sourceChordType": "Maj",
            "ctb2Low": null,
            "ctb2Main": {
              "ntr": "ROOT_FIXED",
              "ntt": "BYPASS",
              "bassOn": false,
              "chordRootUpperLimit": 0,
              "noteLowLimit": 0,
              "noteHighLimit": 127,
              "rtr": "RETRIGGER"
            },
            "ctb2High": null
          },
          "notes": []
        },
        "8": {
          "ctab": {
            "srcChannel": 8,
            "name": "drums",
            "accType": "SUBRHYTHM",
            "editable": false,
            "mutedNotes": [],
            "mutedChords": [],
            "autoStart": true,
            "sourceChordNote": 0,
            "sourceChordType": "Maj7",
            "ctb2Low": null,
            "ctb2Main": {
              "ntr": "ROOT_FIXED",
              "ntt": "BYPASS",
              "bassOn": false,
              "chordRootUpperLimit": 6,
              "noteLowLimit": 0,
              "noteHighLimit": 127,
              "rtr": "PITCH_SHIFT"
            },
            "ctb2High": null
          },
          "notes": [
            {
              "pitch": 82,
              "velocity": 78,
              "position": 0,
              "duration": 0.020833333333333332
            },
            {
              "pitch": 82,
              "velocity": 51,
              "position": 0.25,
              "duration": 0.020833333333333332
            },
            {
              "pitch": 82,
              "velocity": 51,
              "position": 0.5,
              "duration": 0.020833333333333332
            },
            {
              "pitch": 82,
              "velocity": 58,
              "position": 0.75,
              "duration": 0.020833333333333332
            },
            {
              "pitch": 82,
              "velocity": 68,
              "position": 1,
              "duration": 0.020833333333333332
            },
            {
              "pitch": 82,
              "velocity": 51,
              "position": 1.25,
              "duration": 0.020833333333333332
            },
            {
              "pitch": 82,
              "velocity": 51,
              "position": 1.5,
              "duration": 0.020833333333333332
            },
            {
              "pitch": 82,
              "velocity": 58,
              "position": 1.75,
              "duration": 0.020833333333333332
            },
            {
              "pitch": 82,
              "velocity": 78,
              "position": 2,
              "duration": 0.020833333333333332
            },
            {
              "pitch": 82,
              "velocity": 51,
              "position": 2.25,
              "duration": 0.020833333333333332
            },
            {
              "pitch": 63,
              "velocity": 97,
              "position": 2.5,
              "duration": 0.020833333333333332
            },
            {
              "pitch": 82,
              "velocity": 51,
              "position": 2.5,
              "duration": 0.020833333333333332
            },
            {
              "pitch": 82,
              "velocity": 58,
              "position": 2.75,
              "duration": 0.020833333333333332
            },
            {
              "pitch": 64,
              "velocity": 73,
              "position": 3,
              "duration": 0.020833333333333332
            },
            {
              "pitch": 82,
              "velocity": 68,
              "position": 3,
              "duration": 0.020833333333333332
            },
            {
              "pitch": 82,
              "velocity": 51,
              "position": 3.25,
              "duration": 0.020833333333333332
            },
            {
              "pitch": 64,
              "velocity": 75,
              "position": 3.5,
              "duration": 0.020833333333333332
            },
            {
              "pitch": 82,
              "velocity": 51,
              "position": 3.5,
              "duration": 0.020833333333333332
            },
            {
              "pitch": 82,
              "velocity": 58,
              "position": 3.75,
              "duration": 0.020833333333333332
            }
          ]
        },
        "9": {
          "ctab": {
            "srcChannel": 9,
            "name": "drums",
            "accType": "RHYTHM",
            "editable": false,
            "mutedNotes": [],
            "mutedChords": [],
            "autoStart": true,
            "sourceChordNote": 0,
            "sourceChordType": "Maj7",
            "ctb2Low": null,
            "ctb2Main": {
              "ntr": "ROOT_FIXED",
              "ntt": "BYPASS",
              "bassOn": false,
              "chordRootUpperLimit": 6,
              "noteLowLimit": 0,
              "noteHighLimit": 127,
              "rtr": "PITCH_SHIFT"
            },
            "ctb2High": null
          },
          "notes": [
            {
              "pitch": 36,
              "velocity": 100,
              "position": 0,
              "duration": 0.020833333333333332
            },
            {
              "pitch": 42,
              "velocity": 84,
              "position": 0,
              "duration": 0.020833333333333332
            },
            {
              "pitch": 40,
              "velocity": 80,
              "position": 0.5,
              "duration": 0.020833333333333332
            },
            {
              "pitch": 44,
              "velocity": 49,
              "position": 0.5,
              "duration": 0.020833333333333332
            },
            {
              "pitch": 40,
              "velocity": 90,
              "position": 1,
              "duration": 0.020833333333333332
            },
            {
              "pitch": 42,
              "velocity": 84,
              "position": 1,
              "duration": 0.020833333333333332
            },
            {
              "pitch": 36,
              "velocity": 100,
              "position": 1.5,
              "duration": 0.020833333333333332
            },
            {
              "pitch": 44,
              "velocity": 49,
              "position": 1.5,
              "duration": 0.020833333333333332
            },
            {
              "pitch": 48,
              "velocity": 89,
              "position": 1.5,
              "duration": 0.020833333333333332
            },
            {
              "pitch": 40,
              "velocity": 90,
              "position": 2,
              "duration": 0.020833333333333332
            },
            {
              "pitch": 42,
              "velocity": 84,
              "position": 2,
              "duration": 0.020833333333333332
            },
            {
              "pitch": 44,
              "velocity": 47,
              "position": 2.5,
              "duration": 0.020833333333333332
            },
            {
              "pitch": 47,
              "velocity": 70,
              "position": 2.5,
              "duration": 0.020833333333333332
            },
            {
              "pitch": 40,
              "velocity": 90,
              "position": 3,
              "duration": 0.020833333333333332
            },
            {
              "pitch": 42,
              "velocity": 59,
              "position": 3,
              "duration": 0.020833333333333332
            },
            {
              "pitch": 40,
              "velocity": 90,
              "position": 3.25,
              "duration": 0.020833333333333332
            },
            {
              "pitch": 36,
              "velocity": 100,
              "position": 3.5,
              "duration": 0.020833333333333332
            },
            {
              "pitch": 42,
              "velocity": 59,
              "position": 3.5,
              "duration": 0.020833333333333332
            },
            {
              "pitch": 42,
              "velocity": 42,
              "position": 3.75,
              "duration": 0.020833333333333332
            }
          ]
        },
        "10": {
          "ctab": {
            "srcChannel": 10,
            "name": "bass",
            "accType": "BASS",
            "editable": false,
            "mutedNotes": [],
            "mutedChords": [],
            "autoStart": false,
            "sourceChordNote": 0,
            "sourceChordType": "Maj7",
            "ctb2Low": null,
            "ctb2Main": {
              "ntr": "ROOT_TRANSPOSITION",
              "ntt": "MELODY",
              "bassOn": true,
              "chordRootUpperLimit": 8,
              "noteLowLimit": 28,
              "noteHighLimit": 127,
              "rtr": "PITCH_SHIFT_TO_ROOT"
            },
            "ctb2High": null
          },
          "notes": [
            {
              "pitch": 24,
              "velocity": 80,
              "position": 0,
              "duration": 0.7395833333333334
            },
            {
              "pitch": 24,
              "velocity": 114,
              "position": 0.75,
              "duration": 0.23958333333333334
            },
            {
              "pitch": 24,
              "velocity": 80,
              "position": 1.5,
              "duration": 0.6979166666666666
            },
            {
              "pitch": 24,
              "velocity": 80,
              "position": 2.5,
              "duration": 0.3958333333333333
            },
            {
              "pitch": 31,
              "velocity": 80,
              "position": 3,
              "duration": 0.8541666666666666
            }
          ]
        },
        "11": {
          "ctab": {
            "srcChannel": 11,
            "name": "git l",
            "accType": "CHORD1",
            "editable": false,
            "mutedNotes": [],
            "mutedChords": [],
            "autoStart": false,
            "sourceChordNote": 0,
            "sourceChordType": "min7(11)",
            "ctb2Low": null,
            "ctb2Main": {
              "ntr": "ROOT_FIXED",
              "ntt": "CHORD",
              "bassOn": false,
              "chordRootUpperLimit": 7,
              "noteLowLimit": 50,
              "noteHighLimit": 127,
              "rtr": "PITCH_SHIFT"
            },
            "ctb2High": null
          },
          "notes": [
            {
              "pitch": 53,
              "velocity": 98,
              "position": 0,
              "duration": 0.7291666666666666
            },
            {
              "pitch": 58,
              "velocity": 98,
              "position": 0.010416666666666666,
              "duration": 0.71875
            },
            {
              "pitch": 63,
              "velocity": 98,
              "position": 0.020833333333333332,
              "duration": 0.7083333333333334
            },
            {
              "pitch": 63,
              "velocity": 72,
              "position": 0.75,
              "duration": 0.22916666666666666
            },
            {
              "pitch": 58,
              "velocity": 72,
              "position": 0.7604166666666666,
              "duration": 0.21875
            },
            {
              "pitch": 53,
              "velocity": 72,
              "position": 0.7708333333333334,
              "duration": 0.20833333333333334
            },
            {
              "pitch": 53,
              "velocity": 80,
              "position": 1,
              "duration": 0.4791666666666667
            },
            {
              "pitch": 58,
              "velocity": 80,
              "position": 1.0104166666666667,
              "duration": 0.46875
            },
            {
              "pitch": 63,
              "velocity": 80,
              "position": 1.0208333333333333,
              "duration": 0.4583333333333333
            },
            {
              "pitch": 53,
              "velocity": 98,
              "position": 1.5,
              "duration": 1.4791666666666667
            },
            {
              "pitch": 58,
              "velocity": 98,
              "position": 1.5104166666666667,
              "duration": 1.46875
            },
            {
              "pitch": 63,
              "velocity": 98,
              "position": 1.5208333333333333,
              "duration": 1.4583333333333333
            },
            {
              "pitch": 53,
              "velocity": 80,
              "position": 3,
              "duration": 0.22916666666666666
            },
            {
              "pitch": 58,
              "velocity": 80,
              "position": 3.0104166666666665,
              "duration": 0.21875
            },
            {
              "pitch": 63,
              "velocity": 80,
              "position": 3.0208333333333335,
              "duration": 0.20833333333333334
            },
            {
              "pitch": 63,
              "velocity": 72,
              "position": 3.25,
              "duration": 0.22916666666666666
            },
            {
              "pitch": 58,
              "velocity": 72,
              "position": 3.2604166666666665,
              "duration": 0.21875
            },
            {
              "pitch": 53,
              "velocity": 72,
              "position": 3.2708333333333335,
              "duration": 0.20833333333333334
            },
            {
              "pitch": 53,
              "velocity": 80,
              "position": 3.5,
              "duration": 0.4791666666666667
            },
            {
              "pitch": 58,
              "velocity": 80,
              "position": 3.5104166666666665,
              "duration": 0.46875
            },
            {
              "pitch": 63,
              "velocity": 80,
              "position": 3.5208333333333335,
              "duration": 0.4583333333333333
            }
          ]
        },
        "12": {
          "ctab": {
            "srcChannel": 12,
            "name": "git r",
            "accType": "CHORD2",
            "editable": false,
            "mutedNotes": [],
            "mutedChords": [],
            "autoStart": false,
            "sourceChordNote": 0,
            "sourceChordType": "min7(11)",
            "ctb2Low": null,
            "ctb2Main": {
              "ntr": "ROOT_FIXED",
              "ntt": "CHORD",
              "bassOn": false,
              "chordRootUpperLimit": 7,
              "noteLowLimit": 50,
              "noteHighLimit": 127,
              "rtr": "PITCH_SHIFT"
            },
            "ctb2High": null
          },
          "notes": [
            {
              "pitch": 53,
              "velocity": 20,
              "position": 0,
              "duration": 0.4895833333333333
            },
            {
              "pitch": 58,
              "velocity": 20,
              "position": 0.010416666666666666,
              "duration": 0.4791666666666667
            },
            {
              "pitch": 63,
              "velocity": 20,
              "position": 0.020833333333333332,
              "duration": 0.46875
            },
            {
              "pitch": 63,
              "velocity": 12,
              "position": 0.5,
              "duration": 0.4895833333333333
            },
            {
              "pitch": 58,
              "velocity": 12,
              "position": 0.5104166666666666,
              "duration": 0.4791666666666667
            },
            {
              "pitch": 53,
              "velocity": 12,
              "position": 0.5208333333333334,
              "duration": 0.46875
            },
            {
              "pitch": 53,
              "velocity": 20,
              "position": 1,
              "duration": 0.4895833333333333
            },
            {
              "pitch": 58,
              "velocity": 20,
              "position": 1.0104166666666667,
              "duration": 0.4791666666666667
            },
            {
              "pitch": 63,
              "velocity": 20,
              "position": 1.0208333333333333,
              "duration": 0.46875
            },
            {
              "pitch": 63,
              "velocity": 12,
              "position": 1.5,
              "duration": 0.9895833333333334
            },
            {
              "pitch": 58,
              "velocity": 12,
              "position": 1.5104166666666667,
              "duration": 0.9791666666666666
            },
            {
              "pitch": 53,
              "velocity": 12,
              "position": 1.5208333333333333,
              "duration": 0.96875
            },
            {
              "pitch": 63,
              "velocity": 12,
              "position": 2.5,
              "duration": 0.4895833333333333
            },
            {
              "pitch": 58,
              "velocity": 12,
              "position": 2.5104166666666665,
              "duration": 0.4791666666666667
            },
            {
              "pitch": 53,
              "velocity": 12,
              "position": 2.5208333333333335,
              "duration": 0.46875
            },
            {
              "pitch": 53,
              "velocity": 20,
              "position": 3,
              "duration": 0.4895833333333333
            },
            {
              "pitch": 58,
              "velocity": 20,
              "position": 3.0104166666666665,
              "duration": 0.4791666666666667
            },
            {
              "pitch": 63,
              "velocity": 20,
              "position": 3.0208333333333335,
              "duration": 0.46875
            },
            {
              "pitch": 63,
              "velocity": 12,
              "position": 3.5,
              "duration": 0.4895833333333333
            },
            {
              "pitch": 58,
              "velocity": 12,
              "position": 3.5104166666666665,
              "duration": 0.4791666666666667
            },
            {
              "pitch": 53,
              "velocity": 12,
              "position": 3.5208333333333335,
              "duration": 0.46875
            }
          ]
        },
        "13": {
          "ctab": {
            "srcChannel": 13,
            "name": "strng",
            "accType": "PAD",
            "editable": false,
            "mutedNotes": [],
            "mutedChords": [],
            "autoStart": false,
            "sourceChordNote": 0,
            "sourceChordType": "min7(11)",
            "ctb2Low": null,
            "ctb2Main": {
              "ntr": "ROOT_FIXED",
              "ntt": "CHORD",
              "bassOn": false,
              "chordRootUpperLimit": 7,
              "noteLowLimit": 50,
              "noteHighLimit": 127,
              "rtr": "PITCH_SHIFT"
            },
            "ctb2High": null
          },
          "notes": [
            {
              "pitch": 53,
              "velocity": 68,
              "position": 0,
              "duration": 3.9895833333333335
            },
            {
              "pitch": 58,
              "velocity": 68,
              "position": 0,
              "duration": 3.9895833333333335
            },
            {
              "pitch": 63,
              "velocity": 68,
              "position": 0,
              "duration": 3.9895833333333335
            }
          ]
        },
        "14": {
          "ctab": {
            "srcChannel": 14,
            "name": "git 3",
            "accType": "PHRASE1",
            "editable": false,
            "mutedNotes": [],
            "mutedChords": [],
            "autoStart": false,
            "sourceChordNote": 0,
            "sourceChordType": "min7(11)",
            "ctb2Low": null,
            "ctb2Main": {
              "ntr": "ROOT_FIXED",
              "ntt": "CHORD",
              "bassOn": false,
              "chordRootUpperLimit": 7,
              "noteLowLimit": 50,
              "noteHighLimit": 127,
              "rtr": "PITCH_SHIFT"
            },
            "ctb2High": null
          },
          "notes": []
        }
      }
    },
    "Fill_In_CC": {
      "type": "Fill_In_CC",
      "sizeInBeats": 4,
      "channels": {
        "1": {
          "ctab": {
            "srcChannel": 1,
            "name": "Git root",
            "accType": "CHORD1",
            "editable": false,
            "mutedNotes": [],
            "mutedChords": [
              "1+2+5",
              "sus4",
              "1+5",
              "1+8",
              "Maj7aug",
              "dim",
              "minMaj7(9)",
              "minMaj7",
              "min6",
              "min",
              "aug",
              "Maj7(9)",
              "Maj7#11",
              "Maj7",
              "Maj6",
              "Maj"
            ],
            "autoStart": false,
            "sourceChordNote": 0,
            "sourceChordType": "Maj7",
            "ctb2Low": null,
            "ctb2Main": {
              "ntr": "ROOT_TRANSPOSITION",
              "ntt": "CHORD",
              "bassOn": false,
              "chordRootUpperLimit": 6,
              "noteLowLimit": 0,
              "noteHighLimit": 127,
              "rtr": "PITCH_SHIFT"
            },
            "ctb2High": null
          },
          "notes": [
            {
              "pitch": 60,
              "velocity": 101,
              "position": 0,
              "duration": 0.25
            },
            {
              "pitch": 60,
              "velocity": 80,
              "position": 0.2708333333333333,
              "duration": 0.4791666666666667
            },
            {
              "pitch": 60,
              "velocity": 72,
              "position": 0.7708333333333334,
              "duration": 0.20833333333333334
            },
            {
              "pitch": 60,
              "velocity": 80,
              "position": 1,
              "duration": 0.4791666666666667
            },
            {
              "pitch": 60,
              "velocity": 100,
              "position": 1.5,
              "duration": 0.75
            },
            {
              "pitch": 60,
              "velocity": 76,
              "position": 2.2708333333333335,
              "duration": 0.20833333333333334
            },
            {
              "pitch": 60,
              "velocity": 69,
              "position": 2.5,
              "duration": 0.4791666666666667
            },
            {
              "pitch": 60,
              "velocity": 100,
              "position": 3,
              "duration": 0.4791666666666667
            },
            {
              "pitch": 60,
              "velocity": 77,
              "position": 3.5,
              "duration": 0.4791666666666667
            }
          ]
        },
        "2": {
          "ctab": {
            "srcChannel": 2,
            "name": "str root",
            "accType": "PAD",
            "editable": false,
            "mutedNotes": [],
            "mutedChords": [
              "1+2+5",
              "sus4",
              "1+5",
              "1+8",
              "Maj7aug",
              "dim",
              "minMaj7(9)",
              "minMaj7",
              "min6",
              "min",
              "aug",
              "Maj7(9)",
              "Maj7#11",
              "Maj7",
              "Maj6",
              "Maj"
            ],
            "autoStart": false,
            "sourceChordNote": 0,
            "sourceChordType": "Maj7",
            "ctb2Low": null,
            "ctb2Main": {
              "ntr": "ROOT_TRANSPOSITION",
              "ntt": "CHORD",
              "bassOn": false,
              "chordRootUpperLimit": 6,
              "noteLowLimit": 0,
              "noteHighLimit": 127,
              "rtr": "PITCH_SHIFT"
            },
            "ctb2High": null
          },
          "notes": [
            {
              "pitch": 60,
              "velocity": 68,
              "position": 0,
              "duration": 3.9895833333333335
            }
          ]
        },
        "6": {
          "ctab": {
            "srcChannel": 6,
            "name": "CleanFX",
            "accType": "CHORD2",
            "editable": false,
            "mutedNotes": [],
            "mutedChords": [],
            "autoStart": false,
            "sourceChordNote": 0,
            "sourceChordType": "Maj",
            "ctb2Low": null,
            "ctb2Main": {
              "ntr": "ROOT_FIXED",
              "ntt": "BYPASS",
              "bassOn": false,
              "chordRootUpperLimit": 7,
              "noteLowLimit": 0,
              "noteHighLimit": 79,
              "rtr": "PITCH_SHIFT"
            },
            "ctb2High": null
          },
          "notes": [
            {
              "pitch": 100,
              "velocity": 79,
              "position": 0,
              "duration": 0.23958333333333334
            },
            {
              "pitch": 101,
              "velocity": 88,
              "position": 0.5,
              "duration": 0.23958333333333334
            },
            {
              "pitch": 101,
              "velocity": 85,
              "position": 1.5,
              "duration": 0.23958333333333334
            },
            {
              "pitch": 101,
              "velocity": 86,
              "position": 2.5,
              "duration": 0.23958333333333334
            },
            {
              "pitch": 101,
              "velocity": 87,
              "position": 3.5,
              "duration": 0.23958333333333334
            }
          ]
        },
        "7": {
          "ctab": {
            "srcChannel": 7,
            "name": "CC_Crash",
            "accType": "RHYTHM",
            "editable": false,
            "mutedNotes": [],
            "mutedChords": [
              "1+2+5",
              "sus4",
              "1+5",
              "1+8",
              "7aug",
              "Maj7aug",
              "7(#9)",
              "7(b13)",
              "7(b9)",
              "7(13)",
              "7#11",
              "7(9)",
              "7b5",
              "7sus4",
              "7th",
              "dim7",
              "dim",
              "minMaj7(9)",
              "minMaj7",
              "min7(11)",
              "min7(9)",
              "min(9)",
              "m7b5",
              "min7",
              "min6",
              "min",
              "aug",
              "Maj6(9)",
              "Maj7(9)",
              "Maj(9)",
              "Maj7#11",
              "Maj7",
              "Maj6",
              "Maj"
            ],
            "autoStart": true,
            "sourceChordNote": 0,
            "sourceChordType": "Maj",
            "ctb2Low": null,
            "ctb2Main": {
              "ntr": "ROOT_FIXED",
              "ntt": "BYPASS",
              "bassOn": false,
              "chordRootUpperLimit": 0,
              "noteLowLimit": 0,
              "noteHighLimit": 127,
              "rtr": "RETRIGGER"
            },
            "ctb2High": null
          },
          "notes": []
        },
        "8": {
          "ctab": {
            "srcChannel": 8,
            "name": "drums",
            "accType": "SUBRHYTHM",
            "editable": false,
            "mutedNotes": [],
            "mutedChords": [],
            "autoStart": true,
            "sourceChordNote": 0,
            "sourceChordType": "Maj7",
            "ctb2Low": null,
            "ctb2Main": {
              "ntr": "ROOT_FIXED",
              "ntt": "BYPASS",
              "bassOn": false,
              "chordRootUpperLimit": 6,
              "noteLowLimit": 0,
              "noteHighLimit": 127,
              "rtr": "PITCH_SHIFT"
            },
            "ctb2High": null
          },
          "notes": [
            {
              "pitch": 82,
              "velocity": 78,
              "position": 0,
              "duration": 0.020833333333333332
            },
            {
              "pitch": 82,
              "velocity": 51,
              "position": 0.25,
              "duration": 0.020833333333333332
            },
            {
              "pitch": 82,
              "velocity": 51,
              "position": 0.5,
              "duration": 0.020833333333333332
            },
            {
              "pitch": 82,
              "velocity": 58,
              "position": 0.75,
              "duration": 0.020833333333333332
            },
            {
              "pitch": 82,
              "velocity": 78,
              "position": 1,
              "duration": 0.020833333333333332
            },
            {
              "pitch": 82,
              "velocity": 51,
              "position": 1.25,
              "duration": 0.020833333333333332
            },
            {
              "pitch": 82,
              "velocity": 51,
              "position": 1.5,
              "duration": 0.020833333333333332
            },
            {
              "pitch": 82,
              "velocity": 58,
              "position": 1.75,
              "duration": 0.020833333333333332
            },
            {
              "pitch": 82,
              "velocity": 78,
              "position": 2,
              "duration": 0.020833333333333332
            },
            {
              "pitch": 82,
              "velocity": 51,
              "position": 2.25,
              "duration": 0.020833333333333332
            },
            {
              "pitch": 62,
              "velocity": 97,
              "position": 2.5,
              "duration": 0.020833333333333332
            },
            {
              "pitch": 82,
              "velocity": 51,
              "position": 2.5,
              "duration": 0.020833333333333332
            },
            {
              "pitch": 82,
              "velocity": 58,
              "position": 2.75,
              "duration": 0.020833333333333332
            },
            {
              "pitch": 64,
              "velocity": 73,
              "position": 3,
              "duration": 0.020833333333333332
            },
            {
              "pitch": 82,
              "velocity": 78,
              "position": 3,
              "duration": 0.020833333333333332
            },
            {
              "pitch": 82,
              "velocity": 51,
              "position": 3.25,
              "duration": 0.020833333333333332
            },
            {
              "pitch": 64,
              "velocity": 75,
              "position": 3.5,
              "duration": 0.020833333333333332
            },
            {
              "pitch": 82,
              "velocity": 51,
              "position": 3.5,
              "duration": 0.020833333333333332
            },
            {
              "pitch": 82,
              "velocity": 58,
              "position": 3.75,
              "duration": 0.020833333333333332
            }
          ]
        },
        "9": {
          "ctab": {
            "srcChannel": 9,
            "name": "drums",
            "accType": "RHYTHM",
            "editable": false,
            "mutedNotes": [],
            "mutedChords": [],
            "autoStart": true,
            "sourceChordNote": 0,
            "sourceChordType": "Maj7",
            "ctb2Low": null,
            "ctb2Main": {
              "ntr": "ROOT_FIXED",
              "ntt": "BYPASS",
              "bassOn": false,
              "chordRootUpperLimit": 6,
              "noteLowLimit": 0,
              "noteHighLimit": 127,
              "rtr": "PITCH_SHIFT"
            },
            "ctb2High": null
          },
          "notes": [
            {
              "pitch": 36,
              "velocity": 100,
              "position": 0,
              "duration": 0.020833333333333332
            },
            {
              "pitch": 42,
              "velocity": 84,
              "position": 0,
              "duration": 0.020833333333333332
            },
            {
              "pitch": 40,
              "velocity": 52,
              "position": 0.25,
              "duration": 0.020833333333333332
            },
            {
              "pitch": 36,
              "velocity": 100,
              "position": 0.5,
              "duration": 0.020833333333333332
            },
            {
              "pitch": 42,
              "velocity": 56,
              "position": 0.5,
              "duration": 0.020833333333333332
            },
            {
              "pitch": 40,
              "velocity": 46,
              "position": 0.75,
              "duration": 0.020833333333333332
            },
            {
              "pitch": 42,
              "velocity": 39,
              "position": 0.75,
              "duration": 0.020833333333333332
            },
            {
              "pitch": 45,
              "velocity": 75,
              "position": 0.75,
              "duration": 0.020833333333333332
            },
            {
              "pitch": 40,
              "velocity": 90,
              "position": 1,
              "duration": 0.020833333333333332
            },
            {
              "pitch": 42,
              "velocity": 84,
              "position": 1,
              "duration": 0.020833333333333332
            },
            {
              "pitch": 54,
              "velocity": 88,
              "position": 1,
              "duration": 0.020833333333333332
            },
            {
              "pitch": 36,
              "velocity": 100,
              "position": 1.5,
              "duration": 0.020833333333333332
            },
            {
              "pitch": 42,
              "velocity": 60,
              "position": 1.5,
              "duration": 0.020833333333333332
            },
            {
              "pitch": 42,
              "velocity": 43,
              "position": 1.75,
              "duration": 0.020833333333333332
            },
            {
              "pitch": 36,
              "velocity": 100,
              "position": 2,
              "duration": 0.020833333333333332
            },
            {
              "pitch": 42,
              "velocity": 84,
              "position": 2,
              "duration": 0.020833333333333332
            },
            {
              "pitch": 40,
              "velocity": 84,
              "position": 2.25,
              "duration": 0.020833333333333332
            },
            {
              "pitch": 40,
              "velocity": 28,
              "position": 2.5,
              "duration": 0.020833333333333332
            },
            {
              "pitch": 42,
              "velocity": 51,
              "position": 2.5,
              "duration": 0.020833333333333332
            },
            {
              "pitch": 40,
              "velocity": 75,
              "position": 2.75,
              "duration": 0.020833333333333332
            },
            {
              "pitch": 42,
              "velocity": 34,
              "position": 2.75,
              "duration": 0.020833333333333332
            },
            {
              "pitch": 40,
              "velocity": 90,
              "position": 3,
              "duration": 0.020833333333333332
            },
            {
              "pitch": 42,
              "velocity": 84,
              "position": 3,
              "duration": 0.020833333333333332
            },
            {
              "pitch": 54,
              "velocity": 88,
              "position": 3,
              "duration": 0.020833333333333332
            },
            {
              "pitch": 47,
              "velocity": 79,
              "position": 3.25,
              "duration": 0.020833333333333332
            },
            {
              "pitch": 42,
              "velocity": 54,
              "position": 3.5,
              "duration": 0.020833333333333332
            },
            {
              "pitch": 45,
              "velocity": 76,
              "position": 3.5,
              "duration": 0.020833333333333332
            },
            {
              "pitch": 42,
              "velocity": 37,
              "position": 3.75,
              "duration": 0.020833333333333332
            },
            {
              "pitch": 43,
              "velocity": 49,
              "position": 3.75,
              "duration": 0.020833333333333332
            }
          ]
        },
        "10": {
          "ctab": {
            "srcChannel": 10,
            "name": "bass",
            "accType": "BASS",
            "editable": false,
            "mutedNotes": [],
            "mutedChords": [],
            "autoStart": false,
            "sourceChordNote": 0,
            "sourceChordType": "Maj7",
            "ctb2Low": null,
            "ctb2Main": {
              "ntr": "ROOT_TRANSPOSITION",
              "ntt": "MELODY",
              "bassOn": true,
              "chordRootUpperLimit": 8,
              "noteLowLimit": 28,
              "noteHighLimit": 127,
              "rtr": "PITCH_SHIFT_TO_ROOT"
            },
            "ctb2High": null
          },
          "notes": [
            {
              "pitch": 24,
              "velocity": 80,
              "position": 0,
              "duration": 0.7395833333333334
            },
            {
              "pitch": 24,
              "velocity": 60,
              "position": 0.75,
              "duration": 0.25
            },
            {
              "pitch": 24,
              "velocity": 80,
              "position": 1.5,
              "duration": 1.4895833333333333
            },
            {
              "pitch": 24,
              "velocity": 114,
              "position": 3,
              "duration": 0.23958333333333334
            },
            {
              "pitch": 31,
              "velocity": 80,
              "position": 3.5,
              "duration": 0.4791666666666667
            }
          ]
        },
        "11": {
          "ctab": {
            "srcChannel": 11,
            "name": "git l",
            "accType": "CHORD1",
            "editable": false,
            "mutedNotes": [],
            "mutedChords": [],
            "autoStart": false,
            "sourceChordNote": 0,
            "sourceChordType": "min7(11)",
            "ctb2Low": null,
            "ctb2Main": {
              "ntr": "ROOT_FIXED",
              "ntt": "CHORD",
              "bassOn": false,
              "chordRootUpperLimit": 7,
              "noteLowLimit": 50,
              "noteHighLimit": 127,
              "rtr": "PITCH_SHIFT"
            },
            "ctb2High": null
          },
          "notes": [
            {
              "pitch": 53,
              "velocity": 101,
              "position": 0,
              "duration": 0.22916666666666666
            },
            {
              "pitch": 58,
              "velocity": 101,
              "position": 0,
              "duration": 0.22916666666666666
            },
            {
              "pitch": 63,
              "velocity": 101,
              "position": 0.010416666666666666,
              "duration": 0.21875
            },
            {
              "pitch": 63,
              "velocity": 80,
              "position": 0.25,
              "duration": 0.4791666666666667
            },
            {
              "pitch": 58,
              "velocity": 80,
              "position": 0.2604166666666667,
              "duration": 0.46875
            },
            {
              "pitch": 53,
              "velocity": 80,
              "position": 0.2708333333333333,
              "duration": 0.4583333333333333
            },
            {
              "pitch": 63,
              "velocity": 72,
              "position": 0.75,
              "duration": 0.22916666666666666
            },
            {
              "pitch": 58,
              "velocity": 72,
              "position": 0.7604166666666666,
              "duration": 0.21875
            },
            {
              "pitch": 53,
              "velocity": 72,
              "position": 0.7708333333333334,
              "duration": 0.20833333333333334
            },
            {
              "pitch": 53,
              "velocity": 80,
              "position": 1,
              "duration": 0.4791666666666667
            },
            {
              "pitch": 58,
              "velocity": 80,
              "position": 1.0104166666666667,
              "duration": 0.46875
            },
            {
              "pitch": 63,
              "velocity": 80,
              "position": 1.0208333333333333,
              "duration": 0.4583333333333333
            },
            {
              "pitch": 53,
              "velocity": 100,
              "position": 1.5,
              "duration": 0.7291666666666666
            },
            {
              "pitch": 58,
              "velocity": 100,
              "position": 1.5,
              "duration": 0.7291666666666666
            },
            {
              "pitch": 63,
              "velocity": 100,
              "position": 1.5104166666666667,
              "duration": 0.71875
            },
            {
              "pitch": 63,
              "velocity": 76,
              "position": 2.25,
              "duration": 0.22916666666666666
            },
            {
              "pitch": 58,
              "velocity": 76,
              "position": 2.2604166666666665,
              "duration": 0.21875
            },
            {
              "pitch": 53,
              "velocity": 76,
              "position": 2.2708333333333335,
              "duration": 0.20833333333333334
            },
            {
              "pitch": 53,
              "velocity": 69,
              "position": 2.5,
              "duration": 0.4791666666666667
            },
            {
              "pitch": 58,
              "velocity": 69,
              "position": 2.5104166666666665,
              "duration": 0.46875
            },
            {
              "pitch": 63,
              "velocity": 69,
              "position": 2.5208333333333335,
              "duration": 0.4583333333333333
            },
            {
              "pitch": 53,
              "velocity": 100,
              "position": 3,
              "duration": 0.4791666666666667
            },
            {
              "pitch": 58,
              "velocity": 100,
              "position": 3,
              "duration": 0.4791666666666667
            },
            {
              "pitch": 63,
              "velocity": 100,
              "position": 3.0104166666666665,
              "duration": 0.46875
            },
            {
              "pitch": 53,
              "velocity": 77,
              "position": 3.5,
              "duration": 0.4791666666666667
            },
            {
              "pitch": 58,
              "velocity": 77,
              "position": 3.5104166666666665,
              "duration": 0.46875
            },
            {
              "pitch": 63,
              "velocity": 77,
              "position": 3.5208333333333335,
              "duration": 0.4583333333333333
            }
          ]
        },
        "12": {
          "ctab": {
            "srcChannel": 12,
            "name": "git r",
            "accType": "CHORD2",
            "editable": false,
            "mutedNotes": [],
            "mutedChords": [],
            "autoStart": false,
            "sourceChordNote": 0,
            "sourceChordType": "min7(11)",
            "ctb2Low": null,
            "ctb2Main": {
              "ntr": "ROOT_FIXED",
              "ntt": "CHORD",
              "bassOn": false,
              "chordRootUpperLimit": 7,
              "noteLowLimit": 50,
              "noteHighLimit": 127,
              "rtr": "PITCH_SHIFT"
            },
            "ctb2High": null
          },
          "notes": [
            {
              "pitch": 53,
              "velocity": 11,
              "position": 0,
              "duration": 0.4895833333333333
            },
            {
              "pitch": 63,
              "velocity": 11,
              "position": 0,
              "duration": 0.4895833333333333
            },
            {
              "pitch": 58,
              "velocity": 18,
              "position": 0.010416666666666666,
              "duration": 0.4791666666666667
            },
            {
              "pitch": 63,
              "velocity": 20,
              "position": 0.5,
              "duration": 0.9895833333333334
            },
            {
              "pitch": 58,
              "velocity": 20,
              "position": 0.5104166666666666,
              "duration": 0.9791666666666666
            },
            {
              "pitch": 53,
              "velocity": 19,
              "position": 0.5208333333333334,
              "duration": 0.96875
            },
            {
              "pitch": 63,
              "velocity": 17,
              "position": 1.5,
              "duration": 0.9895833333333334
            },
            {
              "pitch": 58,
              "velocity": 18,
              "position": 1.5104166666666667,
              "duration": 0.9791666666666666
            },
            {
              "pitch": 53,
              "velocity": 17,
              "position": 1.5208333333333333,
              "duration": 0.96875
            },
            {
              "pitch": 63,
              "velocity": 18,
              "position": 2.5,
              "duration": 0.9895833333333334
            },
            {
              "pitch": 58,
              "velocity": 20,
              "position": 2.5104166666666665,
              "duration": 0.9791666666666666
            },
            {
              "pitch": 53,
              "velocity": 18,
              "position": 2.5208333333333335,
              "duration": 0.96875
            },
            {
              "pitch": 63,
              "velocity": 19,
              "position": 3.5,
              "duration": 0.4895833333333333
            },
            {
              "pitch": 58,
              "velocity": 18,
              "position": 3.5104166666666665,
              "duration": 0.4791666666666667
            },
            {
              "pitch": 53,
              "velocity": 17,
              "position": 3.5208333333333335,
              "duration": 0.46875
            }
          ]
        },
        "13": {
          "ctab": {
            "srcChannel": 13,
            "name": "strng",
            "accType": "PAD",
            "editable": false,
            "mutedNotes": [],
            "mutedChords": [],
            "autoStart": false,
            "sourceChordNote": 0,
            "sourceChordType": "min7(11)",
            "ctb2Low": null,
            "ctb2Main": {
              "ntr": "ROOT_FIXED",
              "ntt": "CHORD",
              "bassOn": false,
              "chordRootUpperLimit": 7,
              "noteLowLimit": 50,
              "noteHighLimit": 127,
              "rtr": "PITCH_SHIFT"
            },
            "ctb2High": null
          },
          "notes": [
            {
              "pitch": 53,
              "velocity": 68,
              "position": 0,
              "duration": 3.9895833333333335
            },
            {
              "pitch": 58,
              "velocity": 68,
              "position": 0,
              "duration": 3.9895833333333335
            },
            {
              "pitch": 63,
              "velocity": 68,
              "position": 0,
              "duration": 3.9895833333333335
            }
          ]
        },
        "14": {
          "ctab": {
            "srcChannel": 14,
            "name": "git 3",
            "accType": "PHRASE1",
            "editable": false,
            "mutedNotes": [],
            "mutedChords": [],
            "autoStart": false,
            "sourceChordNote": 0,
            "sourceChordType": "min7(11)",
            "ctb2Low": null,
            "ctb2Main": {
              "ntr": "ROOT_FIXED",
              "ntt": "CHORD",
              "bassOn": false,
              "chordRootUpperLimit": 7,
              "noteLowLimit": 50,
              "noteHighLimit": 127,
              "rtr": "PITCH_SHIFT"
            },
            "ctb2High": null
          },
          "notes": [
            {
              "pitch": 53,
              "velocity": 109,
              "position": 3,
              "duration": 0.125
            },
            {
              "pitch": 58,
              "velocity": 109,
              "position": 3.0104166666666665,
              "duration": 0.125
            },
            {
              "pitch": 63,
              "velocity": 109,
              "position": 3.0208333333333335,
              "duration": 0.125
            }
          ]
        }
      }
    },
    "Fill_In_DD": {
      "type": "Fill_In_DD",
      "sizeInBeats": 4,
      "channels": {
        "1": {
          "ctab": {
            "srcChannel": 1,
            "name": "Git root",
            "accType": "CHORD1",
            "editable": false,
            "mutedNotes": [],
            "mutedChords": [
              "1+2+5",
              "sus4",
              "1+5",
              "1+8",
              "Maj7aug",
              "dim",
              "minMaj7(9)",
              "minMaj7",
              "min6",
              "min",
              "aug",
              "Maj7(9)",
              "Maj7#11",
              "Maj7",
              "Maj6",
              "Maj"
            ],
            "autoStart": false,
            "sourceChordNote": 0,
            "sourceChordType": "Maj7",
            "ctb2Low": null,
            "ctb2Main": {
              "ntr": "ROOT_TRANSPOSITION",
              "ntt": "CHORD",
              "bassOn": false,
              "chordRootUpperLimit": 6,
              "noteLowLimit": 0,
              "noteHighLimit": 127,
              "rtr": "PITCH_SHIFT"
            },
            "ctb2High": null
          },
          "notes": [
            {
              "pitch": 60,
              "velocity": 101,
              "position": 0,
              "duration": 0.25
            },
            {
              "pitch": 60,
              "velocity": 80,
              "position": 0.2708333333333333,
              "duration": 0.4791666666666667
            },
            {
              "pitch": 60,
              "velocity": 72,
              "position": 0.7708333333333334,
              "duration": 0.20833333333333334
            },
            {
              "pitch": 60,
              "velocity": 80,
              "position": 1,
              "duration": 0.4791666666666667
            },
            {
              "pitch": 60,
              "velocity": 100,
              "position": 1.5,
              "duration": 0.75
            },
            {
              "pitch": 60,
              "velocity": 76,
              "position": 2.2708333333333335,
              "duration": 0.20833333333333334
            },
            {
              "pitch": 60,
              "velocity": 69,
              "position": 2.5,
              "duration": 0.25
            },
            {
              "pitch": 60,
              "velocity": 72,
              "position": 2.7708333333333335,
              "duration": 0.20833333333333334
            },
            {
              "pitch": 60,
              "velocity": 100,
              "position": 3,
              "duration": 0.4791666666666667
            },
            {
              "pitch": 60,
              "velocity": 77,
              "position": 3.5,
              "duration": 0.4791666666666667
            }
          ]
        },
        "2": {
          "ctab": {
            "srcChannel": 2,
            "name": "str root",
            "accType": "PAD",
            "editable": false,
            "mutedNotes": [],
            "mutedChords": [
              "1+2+5",
              "sus4",
              "1+5",
              "1+8",
              "Maj7aug",
              "dim",
              "minMaj7(9)",
              "minMaj7",
              "min6",
              "min",
              "aug",
              "Maj7(9)",
              "Maj7#11",
              "Maj7",
              "Maj6",
              "Maj"
            ],
            "autoStart": false,
            "sourceChordNote": 0,
            "sourceChordType": "Maj7",
            "ctb2Low": null,
            "ctb2Main": {
              "ntr": "ROOT_TRANSPOSITION",
              "ntt": "CHORD",
              "bassOn": false,
              "chordRootUpperLimit": 6,
              "noteLowLimit": 0,
              "noteHighLimit": 127,
              "rtr": "PITCH_SHIFT"
            },
            "ctb2High": null
          },
          "notes": [
            {
              "pitch": 60,
              "velocity": 68,
              "position": 0,
              "duration": 3.9895833333333335
            }
          ]
        },
        "6": {
          "ctab": {
            "srcChannel": 6,
            "name": "CleanFX",
            "accType": "CHORD2",
            "editable": false,
            "mutedNotes": [],
            "mutedChords": [],
            "autoStart": false,
            "sourceChordNote": 0,
            "sourceChordType": "Maj",
            "ctb2Low": null,
            "ctb2Main": {
              "ntr": "ROOT_FIXED",
              "ntt": "BYPASS",
              "bassOn": false,
              "chordRootUpperLimit": 7,
              "noteLowLimit": 0,
              "noteHighLimit": 79,
              "rtr": "PITCH_SHIFT"
            },
            "ctb2High": null
          },
          "notes": [
            {
              "pitch": 100,
              "velocity": 86,
              "position": 0,
              "duration": 0.23958333333333334
            },
            {
              "pitch": 100,
              "velocity": 86,
              "position": 1.5,
              "duration": 0.23958333333333334
            },
            {
              "pitch": 101,
              "velocity": 76,
              "position": 3.5,
              "duration": 0.23958333333333334
            }
          ]
        },
        "7": {
          "ctab": {
            "srcChannel": 7,
            "name": "CC_Crash",
            "accType": "RHYTHM",
            "editable": false,
            "mutedNotes": [],
            "mutedChords": [
              "1+2+5",
              "sus4",
              "1+5",
              "1+8",
              "7aug",
              "Maj7aug",
              "7(#9)",
              "7(b13)",
              "7(b9)",
              "7(13)",
              "7#11",
              "7(9)",
              "7b5",
              "7sus4",
              "7th",
              "dim7",
              "dim",
              "minMaj7(9)",
              "minMaj7",
              "min7(11)",
              "min7(9)",
              "min(9)",
              "m7b5",
              "min7",
              "min6",
              "min",
              "aug",
              "Maj6(9)",
              "Maj7(9)",
              "Maj(9)",
              "Maj7#11",
              "Maj7",
              "Maj6",
              "Maj"
            ],
            "autoStart": true,
            "sourceChordNote": 0,
            "sourceChordType": "Maj",
            "ctb2Low": null,
            "ctb2Main": {
              "ntr": "ROOT_FIXED",
              "ntt": "BYPASS",
              "bassOn": false,
              "chordRootUpperLimit": 0,
              "noteLowLimit": 0,
              "noteHighLimit": 127,
              "rtr": "RETRIGGER"
            },
            "ctb2High": null
          },
          "notes": []
        },
        "8": {
          "ctab": {
            "srcChannel": 8,
            "name": "drums",
            "accType": "SUBRHYTHM",
            "editable": false,
            "mutedNotes": [],
            "mutedChords": [],
            "autoStart": true,
            "sourceChordNote": 0,
            "sourceChordType": "Maj7",
            "ctb2Low": null,
            "ctb2Main": {
              "ntr": "ROOT_FIXED",
              "ntt": "BYPASS",
              "bassOn": false,
              "chordRootUpperLimit": 6,
              "noteLowLimit": 0,
              "noteHighLimit": 127,
              "rtr": "PITCH_SHIFT"
            },
            "ctb2High": null
          },
          "notes": [
            {
              "pitch": 63,
              "velocity": 103,
              "position": 0,
              "duration": 0.020833333333333332
            },
            {
              "pitch": 63,
              "velocity": 68,
              "position": 0.75,
              "duration": 0.020833333333333332
            },
            {
              "pitch": 63,
              "velocity": 75,
              "position": 1,
              "duration": 0.020833333333333332
            },
            {
              "pitch": 64,
              "velocity": 70,
              "position": 1.5,
              "duration": 0.020833333333333332
            },
            {
              "pitch": 63,
              "velocity": 99,
              "position": 2,
              "duration": 0.020833333333333332
            },
            {
              "pitch": 63,
              "velocity": 70,
              "position": 2.75,
              "duration": 0.020833333333333332
            },
            {
              "pitch": 63,
              "velocity": 71,
              "position": 3,
              "duration": 0.020833333333333332
            },
            {
              "pitch": 64,
              "velocity": 66,
              "position": 3.5,
              "duration": 0.020833333333333332
            }
          ]
        },
        "9": {
          "ctab": {
            "srcChannel": 9,
            "name": "drums",
            "accType": "RHYTHM",
            "editable": false,
            "mutedNotes": [],
            "mutedChords": [],
            "autoStart": true,
            "sourceChordNote": 0,
            "sourceChordType": "Maj7",
            "ctb2Low": null,
            "ctb2Main": {
              "ntr": "ROOT_FIXED",
              "ntt": "BYPASS",
              "bassOn": false,
              "chordRootUpperLimit": 6,
              "noteLowLimit": 0,
              "noteHighLimit": 127,
              "rtr": "PITCH_SHIFT"
            },
            "ctb2High": null
          },
          "notes": [
            {
              "pitch": 36,
              "velocity": 100,
              "position": 0,
              "duration": 0.020833333333333332
            },
            {
              "pitch": 42,
              "velocity": 84,
              "position": 0,
              "duration": 0.020833333333333332
            },
            {
              "pitch": 54,
              "velocity": 73,
              "position": 0,
              "duration": 0.020833333333333332
            },
            {
              "pitch": 40,
              "velocity": 28,
              "position": 0.25,
              "duration": 0.020833333333333332
            },
            {
              "pitch": 42,
              "velocity": 84,
              "position": 0.5,
              "duration": 0.020833333333333332
            },
            {
              "pitch": 54,
              "velocity": 36,
              "position": 0.5,
              "duration": 0.020833333333333332
            },
            {
              "pitch": 40,
              "velocity": 67,
              "position": 0.75,
              "duration": 0.020833333333333332
            },
            {
              "pitch": 36,
              "velocity": 100,
              "position": 1,
              "duration": 0.020833333333333332
            },
            {
              "pitch": 40,
              "velocity": 90,
              "position": 1,
              "duration": 0.020833333333333332
            },
            {
              "pitch": 46,
              "velocity": 58,
              "position": 1,
              "duration": 0.020833333333333332
            },
            {
              "pitch": 54,
              "velocity": 74,
              "position": 1,
              "duration": 0.020833333333333332
            },
            {
              "pitch": 40,
              "velocity": 90,
              "position": 1.5,
              "duration": 0.020833333333333332
            },
            {
              "pitch": 46,
              "velocity": 58,
              "position": 1.5,
              "duration": 0.020833333333333332
            },
            {
              "pitch": 54,
              "velocity": 74,
              "position": 1.5,
              "duration": 0.020833333333333332
            },
            {
              "pitch": 40,
              "velocity": 28,
              "position": 1.75,
              "duration": 0.020833333333333332
            },
            {
              "pitch": 36,
              "velocity": 100,
              "position": 2,
              "duration": 0.020833333333333332
            },
            {
              "pitch": 44,
              "velocity": 54,
              "position": 2,
              "duration": 0.020833333333333332
            },
            {
              "pitch": 54,
              "velocity": 73,
              "position": 2,
              "duration": 0.020833333333333332
            },
            {
              "pitch": 48,
              "velocity": 53,
              "position": 2.25,
              "duration": 0.020833333333333332
            },
            {
              "pitch": 44,
              "velocity": 54,
              "position": 2.5,
              "duration": 0.020833333333333332
            },
            {
              "pitch": 54,
              "velocity": 28,
              "position": 2.5,
              "duration": 0.020833333333333332
            },
            {
              "pitch": 36,
              "velocity": 100,
              "position": 2.75,
              "duration": 0.020833333333333332
            },
            {
              "pitch": 40,
              "velocity": 28,
              "position": 2.75,
              "duration": 0.020833333333333332
            },
            {
              "pitch": 48,
              "velocity": 62,
              "position": 2.75,
              "duration": 0.020833333333333332
            },
            {
              "pitch": 36,
              "velocity": 100,
              "position": 3,
              "duration": 0.020833333333333332
            },
            {
              "pitch": 40,
              "velocity": 90,
              "position": 3,
              "duration": 0.020833333333333332
            },
            {
              "pitch": 44,
              "velocity": 54,
              "position": 3,
              "duration": 0.020833333333333332
            },
            {
              "pitch": 48,
              "velocity": 80,
              "position": 3,
              "duration": 0.020833333333333332
            },
            {
              "pitch": 54,
              "velocity": 74,
              "position": 3,
              "duration": 0.020833333333333332
            },
            {
              "pitch": 48,
              "velocity": 64,
              "position": 3.25,
              "duration": 0.020833333333333332
            },
            {
              "pitch": 44,
              "velocity": 54,
              "position": 3.5,
              "duration": 0.020833333333333332
            },
            {
              "pitch": 47,
              "velocity": 62,
              "position": 3.5,
              "duration": 0.020833333333333332
            },
            {
              "pitch": 54,
              "velocity": 34,
              "position": 3.5,
              "duration": 0.020833333333333332
            },
            {
              "pitch": 40,
              "velocity": 28,
              "position": 3.75,
              "duration": 0.020833333333333332
            },
            {
              "pitch": 45,
              "velocity": 70,
              "position": 3.75,
              "duration": 0.020833333333333332
            }
          ]
        },
        "10": {
          "ctab": {
            "srcChannel": 10,
            "name": "bass",
            "accType": "BASS",
            "editable": false,
            "mutedNotes": [],
            "mutedChords": [],
            "autoStart": false,
            "sourceChordNote": 0,
            "sourceChordType": "Maj7",
            "ctb2Low": null,
            "ctb2Main": {
              "ntr": "ROOT_TRANSPOSITION",
              "ntt": "MELODY",
              "bassOn": true,
              "chordRootUpperLimit": 8,
              "noteLowLimit": 28,
              "noteHighLimit": 127,
              "rtr": "PITCH_SHIFT_TO_ROOT"
            },
            "ctb2High": null
          },
          "notes": [
            {
              "pitch": 24,
              "velocity": 80,
              "position": 0,
              "duration": 0.7291666666666666
            },
            {
              "pitch": 24,
              "velocity": 114,
              "position": 0.75,
              "duration": 0.23958333333333334
            },
            {
              "pitch": 24,
              "velocity": 80,
              "position": 1.5,
              "duration": 2
            },
            {
              "pitch": 31,
              "velocity": 80,
              "position": 3.5,
              "duration": 0.4791666666666667
            }
          ]
        },
        "11": {
          "ctab": {
            "srcChannel": 11,
            "name": "git l",
            "accType": "CHORD1",
            "editable": false,
            "mutedNotes": [],
            "mutedChords": [],
            "autoStart": false,
            "sourceChordNote": 0,
            "sourceChordType": "min7(11)",
            "ctb2Low": null,
            "ctb2Main": {
              "ntr": "ROOT_FIXED",
              "ntt": "CHORD",
              "bassOn": false,
              "chordRootUpperLimit": 7,
              "noteLowLimit": 50,
              "noteHighLimit": 127,
              "rtr": "PITCH_SHIFT"
            },
            "ctb2High": null
          },
          "notes": [
            {
              "pitch": 53,
              "velocity": 101,
              "position": 0,
              "duration": 0.22916666666666666
            },
            {
              "pitch": 58,
              "velocity": 101,
              "position": 0,
              "duration": 0.22916666666666666
            },
            {
              "pitch": 63,
              "velocity": 101,
              "position": 0.010416666666666666,
              "duration": 0.21875
            },
            {
              "pitch": 63,
              "velocity": 80,
              "position": 0.25,
              "duration": 0.4791666666666667
            },
            {
              "pitch": 58,
              "velocity": 80,
              "position": 0.2604166666666667,
              "duration": 0.46875
            },
            {
              "pitch": 53,
              "velocity": 80,
              "position": 0.2708333333333333,
              "duration": 0.4583333333333333
            },
            {
              "pitch": 63,
              "velocity": 72,
              "position": 0.75,
              "duration": 0.22916666666666666
            },
            {
              "pitch": 58,
              "velocity": 72,
              "position": 0.7604166666666666,
              "duration": 0.21875
            },
            {
              "pitch": 53,
              "velocity": 72,
              "position": 0.7708333333333334,
              "duration": 0.20833333333333334
            },
            {
              "pitch": 53,
              "velocity": 80,
              "position": 1,
              "duration": 0.4791666666666667
            },
            {
              "pitch": 58,
              "velocity": 80,
              "position": 1.0104166666666667,
              "duration": 0.46875
            },
            {
              "pitch": 63,
              "velocity": 80,
              "position": 1.0208333333333333,
              "duration": 0.4583333333333333
            },
            {
              "pitch": 53,
              "velocity": 100,
              "position": 1.5,
              "duration": 0.7291666666666666
            },
            {
              "pitch": 58,
              "velocity": 100,
              "position": 1.5,
              "duration": 0.7291666666666666
            },
            {
              "pitch": 63,
              "velocity": 100,
              "position": 1.5104166666666667,
              "duration": 0.71875
            },
            {
              "pitch": 63,
              "velocity": 76,
              "position": 2.25,
              "duration": 0.22916666666666666
            },
            {
              "pitch": 58,
              "velocity": 76,
              "position": 2.2604166666666665,
              "duration": 0.21875
            },
            {
              "pitch": 53,
              "velocity": 76,
              "position": 2.2708333333333335,
              "duration": 0.20833333333333334
            },
            {
              "pitch": 53,
              "velocity": 69,
              "position": 2.5,
              "duration": 0.22916666666666666
            },
            {
              "pitch": 58,
              "velocity": 69,
              "position": 2.5104166666666665,
              "duration": 0.21875
            },
            {
              "pitch": 63,
              "velocity": 69,
              "position": 2.5208333333333335,
              "duration": 0.20833333333333334
            },
            {
              "pitch": 63,
              "velocity": 72,
              "position": 2.75,
              "duration": 0.22916666666666666
            },
            {
              "pitch": 58,
              "velocity": 72,
              "position": 2.7604166666666665,
              "duration": 0.21875
            },
            {
              "pitch": 53,
              "velocity": 72,
              "position": 2.7708333333333335,
              "duration": 0.20833333333333334
            },
            {
              "pitch": 53,
              "velocity": 100,
              "position": 3,
              "duration": 0.4791666666666667
            },
            {
              "pitch": 58,
              "velocity": 100,
              "position": 3,
              "duration": 0.4791666666666667
            },
            {
              "pitch": 63,
              "velocity": 100,
              "position": 3.0104166666666665,
              "duration": 0.46875
            },
            {
              "pitch": 53,
              "velocity": 77,
              "position": 3.5,
              "duration": 0.4791666666666667
            },
            {
              "pitch": 58,
              "velocity": 77,
              "position": 3.5104166666666665,
              "duration": 0.46875
            },
            {
              "pitch": 63,
              "velocity": 77,
              "position": 3.5208333333333335,
              "duration": 0.4583333333333333
            }
          ]
        },
        "12": {
          "ctab": {
            "srcChannel": 12,
            "name": "git r",
            "accType": "CHORD2",
            "editable": false,
            "mutedNotes": [],
            "mutedChords": [],
            "autoStart": false,
            "sourceChordNote": 0,
            "sourceChordType": "min7(11)",
            "ctb2Low": null,
            "ctb2Main": {
              "ntr": "ROOT_FIXED",
              "ntt": "CHORD",
              "bassOn": false,
              "chordRootUpperLimit": 7,
              "noteLowLimit": 50,
              "noteHighLimit": 127,
              "rtr": "PITCH_SHIFT"
            },
            "ctb2High": null
          },
          "notes": [
            {
              "pitch": 53,
              "velocity": 17,
              "position": 0,
              "duration": 1.4895833333333333
            },
            {
              "pitch": 58,
              "velocity": 12,
              "position": 0,
              "duration": 1.4895833333333333
            },
            {
              "pitch": 63,
              "velocity": 17,
              "position": 0,
              "duration": 1.4895833333333333
            },
            {
              "pitch": 53,
              "velocity": 17,
              "position": 1.5,
              "duration": 1.9895833333333333
            },
            {
              "pitch": 58,
              "velocity": 10,
              "position": 1.5,
              "duration": 1.9895833333333333
            },
            {
              "pitch": 63,
              "velocity": 17,
              "position": 1.5,
              "duration": 1.9895833333333333
            },
            {
              "pitch": 53,
              "velocity": 7,
              "position": 3.5,
              "duration": 0.4895833333333333
            },
            {
              "pitch": 58,
              "velocity": 7,
              "position": 3.5,
              "duration": 0.4895833333333333
            },
            {
              "pitch": 63,
              "velocity": 7,
              "position": 3.5,
              "duration": 0.4895833333333333
            }
          ]
        },
        "13": {
          "ctab": {
            "srcChannel": 13,
            "name": "strng",
            "accType": "PAD",
            "editable": false,
            "mutedNotes": [],
            "mutedChords": [],
            "autoStart": false,
            "sourceChordNote": 0,
            "sourceChordType": "min7(11)",
            "ctb2Low": null,
            "ctb2Main": {
              "ntr": "ROOT_FIXED",
              "ntt": "CHORD",
              "bassOn": false,
              "chordRootUpperLimit": 7,
              "noteLowLimit": 50,
              "noteHighLimit": 127,
              "rtr": "PITCH_SHIFT"
            },
            "ctb2High": null
          },
          "notes": [
            {
              "pitch": 53,
              "velocity": 68,
              "position": 0,
              "duration": 3.9895833333333335
            },
            {
              "pitch": 58,
              "velocity": 68,
              "position": 0,
              "duration": 3.9895833333333335
            },
            {
              "pitch": 63,
              "velocity": 68,
              "position": 0,
              "duration": 3.9895833333333335
            }
          ]
        },
        "14": {
          "ctab": {
            "srcChannel": 14,
            "name": "git 3",
            "accType": "PHRASE1",
            "editable": false,
            "mutedNotes": [],
            "mutedChords": [],
            "autoStart": false,
            "sourceChordNote": 0,
            "sourceChordType": "min7(11)",
            "ctb2Low": null,
            "ctb2Main": {
              "ntr": "ROOT_FIXED",
              "ntt": "CHORD",
              "bassOn": false,
              "chordRootUpperLimit": 7,
              "noteLowLimit": 50,
              "noteHighLimit": 127,
              "rtr": "PITCH_SHIFT"
            },
            "ctb2High": null
          },
          "notes": [
            {
              "pitch": 53,
              "velocity": 109,
              "position": 1,
              "duration": 0.125
            },
            {
              "pitch": 58,
              "velocity": 109,
              "position": 1.0104166666666667,
              "duration": 0.125
            },
            {
              "pitch": 63,
              "velocity": 109,
              "position": 1.0208333333333333,
              "duration": 0.125
            }
          ]
        }
      }
    },
    "Intro_A": {
      "type": "Intro_A",
      "sizeInBeats": 4,
      "channels": {
        "1": {
          "ctab": {
            "srcChannel": 1,
            "name": "Git root",
            "accType": "CHORD1",
            "editable": false,
            "mutedNotes": [],
            "mutedChords": [
              "1+2+5",
              "sus4",
              "1+5",
              "1+8",
              "Maj7aug",
              "dim",
              "minMaj7(9)",
              "minMaj7",
              "min6",
              "min",
              "aug",
              "Maj7(9)",
              "Maj7#11",
              "Maj7",
              "Maj6",
              "Maj"
            ],
            "autoStart": false,
            "sourceChordNote": 0,
            "sourceChordType": "Maj7",
            "ctb2Low": null,
            "ctb2Main": {
              "ntr": "ROOT_TRANSPOSITION",
              "ntt": "CHORD",
              "bassOn": false,
              "chordRootUpperLimit": 6,
              "noteLowLimit": 0,
              "noteHighLimit": 127,
              "rtr": "PITCH_SHIFT"
            },
            "ctb2High": null
          },
          "notes": []
        },
        "2": {
          "ctab": {
            "srcChannel": 2,
            "name": "str root",
            "accType": "PAD",
            "editable": false,
            "mutedNotes": [],
            "mutedChords": [
              "1+2+5",
              "sus4",
              "1+5",
              "1+8",
              "Maj7aug",
              "dim",
              "minMaj7(9)",
              "minMaj7",
              "min6",
              "min",
              "aug",
              "Maj7(9)",
              "Maj7#11",
              "Maj7",
              "Maj6",
              "Maj"
            ],
            "autoStart": false,
            "sourceChordNote": 0,
            "sourceChordType": "Maj7",
            "ctb2Low": null,
            "ctb2Main": {
              "ntr": "ROOT_TRANSPOSITION",
              "ntt": "CHORD",
              "bassOn": false,
              "chordRootUpperLimit": 6,
              "noteLowLimit": 0,
              "noteHighLimit": 127,
              "rtr": "PITCH_SHIFT"
            },
            "ctb2High": null
          },
          "notes": []
        },
        "6": {
          "ctab": {
            "srcChannel": 6,
            "name": "CleanFX",
            "accType": "CHORD2",
            "editable": false,
            "mutedNotes": [],
            "mutedChords": [],
            "autoStart": false,
            "sourceChordNote": 0,
            "sourceChordType": "Maj",
            "ctb2Low": null,
            "ctb2Main": {
              "ntr": "ROOT_FIXED",
              "ntt": "BYPASS",
              "bassOn": false,
              "chordRootUpperLimit": 7,
              "noteLowLimit": 0,
              "noteHighLimit": 79,
              "rtr": "PITCH_SHIFT"
            },
            "ctb2High": null
          },
          "notes": []
        },
        "7": {
          "ctab": {
            "srcChannel": 7,
            "name": "CC_Crash",
            "accType": "RHYTHM",
            "editable": false,
            "mutedNotes": [],
            "mutedChords": [
              "1+2+5",
              "sus4",
              "1+5",
              "1+8",
              "7aug",
              "Maj7aug",
              "7(#9)",
              "7(b13)",
              "7(b9)",
              "7(13)",
              "7#11",
              "7(9)",
              "7b5",
              "7sus4",
              "7th",
              "dim7",
              "dim",
              "minMaj7(9)",
              "minMaj7",
              "min7(11)",
              "min7(9)",
              "min(9)",
              "m7b5",
              "min7",
              "min6",
              "min",
              "aug",
              "Maj6(9)",
              "Maj7(9)",
              "Maj(9)",
              "Maj7#11",
              "Maj7",
              "Maj6",
              "Maj"
            ],
            "autoStart": true,
            "sourceChordNote": 0,
            "sourceChordType": "Maj",
            "ctb2Low": null,
            "ctb2Main": {
              "ntr": "ROOT_FIXED",
              "ntt": "BYPASS",
              "bassOn": false,
              "chordRootUpperLimit": 0,
              "noteLowLimit": 0,
              "noteHighLimit": 127,
              "rtr": "RETRIGGER"
            },
            "ctb2High": null
          },
          "notes": []
        },
        "8": {
          "ctab": {
            "srcChannel": 8,
            "name": "drums",
            "accType": "SUBRHYTHM",
            "editable": false,
            "mutedNotes": [],
            "mutedChords": [],
            "autoStart": true,
            "sourceChordNote": 0,
            "sourceChordType": "Maj7",
            "ctb2Low": null,
            "ctb2Main": {
              "ntr": "ROOT_FIXED",
              "ntt": "BYPASS",
              "bassOn": false,
              "chordRootUpperLimit": 6,
              "noteLowLimit": 0,
              "noteHighLimit": 127,
              "rtr": "PITCH_SHIFT"
            },
            "ctb2High": null
          },
          "notes": []
        },
        "9": {
          "ctab": {
            "srcChannel": 9,
            "name": "drums",
            "accType": "RHYTHM",
            "editable": false,
            "mutedNotes": [],
            "mutedChords": [],
            "autoStart": true,
            "sourceChordNote": 0,
            "sourceChordType": "Maj7",
            "ctb2Low": null,
            "ctb2Main": {
              "ntr": "ROOT_FIXED",
              "ntt": "BYPASS",
              "bassOn": false,
              "chordRootUpperLimit": 6,
              "noteLowLimit": 0,
              "noteHighLimit": 127,
              "rtr": "PITCH_SHIFT"
            },
            "ctb2High": null
          },
          "notes": [
            {
              "pitch": 32,
              "velocity": 82,
              "position": 0,
              "duration": 0.020833333333333332
            },
            {
              "pitch": 32,
              "velocity": 78,
              "position": 1,
              "duration": 0.020833333333333332
            },
            {
              "pitch": 32,
              "velocity": 81,
              "position": 2,
              "duration": 0.020833333333333332
            },
            {
              "pitch": 36,
              "velocity": 85,
              "position": 2.5,
              "duration": 0.020833333333333332
            },
            {
              "pitch": 40,
              "velocity": 83,
              "position": 3,
              "duration": 0.020833333333333332
            },
            {
              "pitch": 47,
              "velocity": 72,
              "position": 3.25,
              "duration": 0.020833333333333332
            },
            {
              "pitch": 45,
              "velocity": 69,
              "position": 3.5,
              "duration": 0.020833333333333332
            }
          ]
        },
        "10": {
          "ctab": {
            "srcChannel": 10,
            "name": "bass",
            "accType": "BASS",
            "editable": false,
            "mutedNotes": [],
            "mutedChords": [],
            "autoStart": false,
            "sourceChordNote": 0,
            "sourceChordType": "Maj7",
            "ctb2Low": null,
            "ctb2Main": {
              "ntr": "ROOT_TRANSPOSITION",
              "ntt": "MELODY",
              "bassOn": true,
              "chordRootUpperLimit": 8,
              "noteLowLimit": 28,
              "noteHighLimit": 127,
              "rtr": "PITCH_SHIFT_TO_ROOT"
            },
            "ctb2High": null
          },
          "notes": []
        },
        "11": {
          "ctab": {
            "srcChannel": 11,
            "name": "git l",
            "accType": "CHORD1",
            "editable": false,
            "mutedNotes": [],
            "mutedChords": [],
            "autoStart": false,
            "sourceChordNote": 0,
            "sourceChordType": "min7(11)",
            "ctb2Low": null,
            "ctb2Main": {
              "ntr": "ROOT_FIXED",
              "ntt": "CHORD",
              "bassOn": false,
              "chordRootUpperLimit": 7,
              "noteLowLimit": 50,
              "noteHighLimit": 127,
              "rtr": "PITCH_SHIFT"
            },
            "ctb2High": null
          },
          "notes": []
        },
        "12": {
          "ctab": {
            "srcChannel": 12,
            "name": "git r",
            "accType": "CHORD2",
            "editable": false,
            "mutedNotes": [],
            "mutedChords": [],
            "autoStart": false,
            "sourceChordNote": 0,
            "sourceChordType": "min7(11)",
            "ctb2Low": null,
            "ctb2Main": {
              "ntr": "ROOT_FIXED",
              "ntt": "CHORD",
              "bassOn": false,
              "chordRootUpperLimit": 7,
              "noteLowLimit": 50,
              "noteHighLimit": 127,
              "rtr": "PITCH_SHIFT"
            },
            "ctb2High": null
          },
          "notes": []
        },
        "13": {
          "ctab": {
            "srcChannel": 13,
            "name": "strng",
            "accType": "PAD",
            "editable": false,
            "mutedNotes": [],
            "mutedChords": [],
            "autoStart": false,
            "sourceChordNote": 0,
            "sourceChordType": "min7(11)",
            "ctb2Low": null,
            "ctb2Main": {
              "ntr": "ROOT_FIXED",
              "ntt": "CHORD",
              "bassOn": false,
              "chordRootUpperLimit": 7,
              "noteLowLimit": 50,
              "noteHighLimit": 127,
              "rtr": "PITCH_SHIFT"
            },
            "ctb2High": null
          },
          "notes": []
        },
        "14": {
          "ctab": {
            "srcChannel": 14,
            "name": "git 3",
            "accType": "PHRASE1",
            "editable": false,
            "mutedNotes": [],
            "mutedChords": [],
            "autoStart": false,
            "sourceChordNote": 0,
            "sourceChordType": "min7(11)",
            "ctb2Low": null,
            "ctb2Main": {
              "ntr": "ROOT_FIXED",
              "ntt": "CHORD",
              "bassOn": false,
              "chordRootUpperLimit": 7,
              "noteLowLimit": 50,
              "noteHighLimit": 127,
              "rtr": "PITCH_SHIFT"
            },
            "ctb2High": null
          },
          "notes": []
        }
      }
    },
    "Ending_A": {
      "type": "Ending_A",
      "sizeInBeats": 4,
      "channels": {
        "1": {
          "ctab": {
            "srcChannel": 1,
            "name": "Git root",
            "accType": "CHORD1",
            "editable": false,
            "mutedNotes": [],
            "mutedChords": [
              "1+2+5",
              "sus4",
              "1+5",
              "1+8",
              "Maj7aug",
              "dim",
              "minMaj7(9)",
              "minMaj7",
              "min6",
              "min",
              "aug",
              "Maj7(9)",
              "Maj7#11",
              "Maj7",
              "Maj6",
              "Maj"
            ],
            "autoStart": false,
            "sourceChordNote": 0,
            "sourceChordType": "Maj7",
            "ctb2Low": null,
            "ctb2Main": {
              "ntr": "ROOT_TRANSPOSITION",
              "ntt": "CHORD",
              "bassOn": false,
              "chordRootUpperLimit": 6,
              "noteLowLimit": 0,
              "noteHighLimit": 127,
              "rtr": "PITCH_SHIFT"
            },
            "ctb2High": null
          },
          "notes": [
            {
              "pitch": 60,
              "velocity": 100,
              "position": 0.010416666666666666,
              "duration": 3.9791666666666665
            }
          ]
        },
        "2": {
          "ctab": {
            "srcChannel": 2,
            "name": "str root",
            "accType": "PAD",
            "editable": false,
            "mutedNotes": [],
            "mutedChords": [
              "1+2+5",
              "sus4",
              "1+5",
              "1+8",
              "Maj7aug",
              "dim",
              "minMaj7(9)",
              "minMaj7",
              "min6",
              "min",
              "aug",
              "Maj7(9)",
              "Maj7#11",
              "Maj7",
              "Maj6",
              "Maj"
            ],
            "autoStart": false,
            "sourceChordNote": 0,
            "sourceChordType": "Maj7",
            "ctb2Low": null,
            "ctb2Main": {
              "ntr": "ROOT_TRANSPOSITION",
              "ntt": "CHORD",
              "bassOn": false,
              "chordRootUpperLimit": 6,
              "noteLowLimit": 0,
              "noteHighLimit": 127,
              "rtr": "PITCH_SHIFT"
            },
            "ctb2High": null
          },
          "notes": [
            {
              "pitch": 60,
              "velocity": 68,
              "position": 0,
              "duration": 3.75
            }
          ]
        },
        "6": {
          "ctab": {
            "srcChannel": 6,
            "name": "CleanFX",
            "accType": "CHORD2",
            "editable": false,
            "mutedNotes": [],
            "mutedChords": [],
            "autoStart": false,
            "sourceChordNote": 0,
            "sourceChordType": "Maj",
            "ctb2Low": null,
            "ctb2Main": {
              "ntr": "ROOT_FIXED",
              "ntt": "BYPASS",
              "bassOn": false,
              "chordRootUpperLimit": 7,
              "noteLowLimit": 0,
              "noteHighLimit": 79,
              "rtr": "PITCH_SHIFT"
            },
            "ctb2High": null
          },
          "notes": [
            {
              "pitch": 100,
              "velocity": 86,
              "position": 0,
              "duration": 0.23958333333333334
            }
          ]
        },
        "7": {
          "ctab": {
            "srcChannel": 7,
            "name": "CC_Crash",
            "accType": "RHYTHM",
            "editable": false,
            "mutedNotes": [],
            "mutedChords": [
              "1+2+5",
              "sus4",
              "1+5",
              "1+8",
              "7aug",
              "Maj7aug",
              "7(#9)",
              "7(b13)",
              "7(b9)",
              "7(13)",
              "7#11",
              "7(9)",
              "7b5",
              "7sus4",
              "7th",
              "dim7",
              "dim",
              "minMaj7(9)",
              "minMaj7",
              "min7(11)",
              "min7(9)",
              "min(9)",
              "m7b5",
              "min7",
              "min6",
              "min",
              "aug",
              "Maj6(9)",
              "Maj7(9)",
              "Maj(9)",
              "Maj7#11",
              "Maj7",
              "Maj6",
              "Maj"
            ],
            "autoStart": true,
            "sourceChordNote": 0,
            "sourceChordType": "Maj",
            "ctb2Low": null,
            "ctb2Main": {
              "ntr": "ROOT_FIXED",
              "ntt": "BYPASS",
              "bassOn": false,
              "chordRootUpperLimit": 0,
              "noteLowLimit": 0,
              "noteHighLimit": 127,
              "rtr": "RETRIGGER"
            },
            "ctb2High": null
          },
          "notes": []
        },
        "8": {
          "ctab": {
            "srcChannel": 8,
            "name": "drums",
            "accType": "SUBRHYTHM",
            "editable": false,
            "mutedNotes": [],
            "mutedChords": [],
            "autoStart": true,
            "sourceChordNote": 0,
            "sourceChordType": "Maj7",
            "ctb2Low": null,
            "ctb2Main": {
              "ntr": "ROOT_FIXED",
              "ntt": "BYPASS",
              "bassOn": false,
              "chordRootUpperLimit": 6,
              "noteLowLimit": 0,
              "noteHighLimit": 127,
              "rtr": "PITCH_SHIFT"
            },
            "ctb2High": null
          },
          "notes": []
        },
        "9": {
          "ctab": {
            "srcChannel": 9,
            "name": "drums",
            "accType": "RHYTHM",
            "editable": false,
            "mutedNotes": [],
            "mutedChords": [],
            "autoStart": true,
            "sourceChordNote": 0,
            "sourceChordType": "Maj7",
            "ctb2Low": null,
            "ctb2Main": {
              "ntr": "ROOT_FIXED",
              "ntt": "BYPASS",
              "bassOn": false,
              "chordRootUpperLimit": 6,
              "noteLowLimit": 0,
              "noteHighLimit": 127,
              "rtr": "PITCH_SHIFT"
            },
            "ctb2High": null
          },
          "notes": [
            {
              "pitch": 36,
              "velocity": 100,
              "position": 0,
              "duration": 0.020833333333333332
            }
          ]
        },
        "10": {
          "ctab": {
            "srcChannel": 10,
            "name": "bass",
            "accType": "BASS",
            "editable": false,
            "mutedNotes": [],
            "mutedChords": [],
            "autoStart": false,
            "sourceChordNote": 0,
            "sourceChordType": "Maj7",
            "ctb2Low": null,
            "ctb2Main": {
              "ntr": "ROOT_TRANSPOSITION",
              "ntt": "MELODY",
              "bassOn": true,
              "chordRootUpperLimit": 8,
              "noteLowLimit": 28,
              "noteHighLimit": 127,
              "rtr": "PITCH_SHIFT_TO_ROOT"
            },
            "ctb2High": null
          },
          "notes": [
            {
              "pitch": 24,
              "velocity": 80,
              "position": 0,
              "duration": 3.8958333333333335
            }
          ]
        },
        "11": {
          "ctab": {
            "srcChannel": 11,
            "name": "git l",
            "accType": "CHORD1",
            "editable": false,
            "mutedNotes": [],
            "mutedChords": [],
            "autoStart": false,
            "sourceChordNote": 0,
            "sourceChordType": "min7(11)",
            "ctb2Low": null,
            "ctb2Main": {
              "ntr": "ROOT_FIXED",
              "ntt": "CHORD",
              "bassOn": false,
              "chordRootUpperLimit": 7,
              "noteLowLimit": 50,
              "noteHighLimit": 127,
              "rtr": "PITCH_SHIFT"
            },
            "ctb2High": null
          },
          "notes": [
            {
              "pitch": 53,
              "velocity": 100,
              "position": 0,
              "duration": 3.9895833333333335
            },
            {
              "pitch": 58,
              "velocity": 100,
              "position": 0.010416666666666666,
              "duration": 3.9791666666666665
            },
            {
              "pitch": 63,
              "velocity": 100,
              "position": 0.020833333333333332,
              "duration": 3.96875
            }
          ]
        },
        "12": {
          "ctab": {
            "srcChannel": 12,
            "name": "git r",
            "accType": "CHORD2",
            "editable": false,
            "mutedNotes": [],
            "mutedChords": [],
            "autoStart": false,
            "sourceChordNote": 0,
            "sourceChordType": "min7(11)",
            "ctb2Low": null,
            "ctb2Main": {
              "ntr": "ROOT_FIXED",
              "ntt": "CHORD",
              "bassOn": false,
              "chordRootUpperLimit": 7,
              "noteLowLimit": 50,
              "noteHighLimit": 127,
              "rtr": "PITCH_SHIFT"
            },
            "ctb2High": null
          },
          "notes": [
            {
              "pitch": 63,
              "velocity": 20,
              "position": 0.125,
              "duration": 3.8541666666666665
            },
            {
              "pitch": 53,
              "velocity": 20,
              "position": 0,
              "duration": 3.9895833333333335
            },
            {
              "pitch": 58,
              "velocity": 20,
              "position": 0.041666666666666664,
              "duration": 3.9479166666666665
            }
          ]
        },
        "13": {
          "ctab": {
            "srcChannel": 13,
            "name": "strng",
            "accType": "PAD",
            "editable": false,
            "mutedNotes": [],
            "mutedChords": [],
            "autoStart": false,
            "sourceChordNote": 0,
            "sourceChordType": "min7(11)",
            "ctb2Low": null,
            "ctb2Main": {
              "ntr": "ROOT_FIXED",
              "ntt": "CHORD",
              "bassOn": false,
              "chordRootUpperLimit": 7,
              "noteLowLimit": 50,
              "noteHighLimit": 127,
              "rtr": "PITCH_SHIFT"
            },
            "ctb2High": null
          },
          "notes": [
            {
              "pitch": 53,
              "velocity": 68,
              "position": 0,
              "duration": 3.75
            },
            {
              "pitch": 58,
              "velocity": 68,
              "position": 0,
              "duration": 3.75
            },
            {
              "pitch": 63,
              "velocity": 68,
              "position": 0,
              "duration": 3.75
            }
          ]
        },
        "14": {
          "ctab": {
            "srcChannel": 14,
            "name": "git 3",
            "accType": "PHRASE1",
            "editable": false,
            "mutedNotes": [],
            "mutedChords": [],
            "autoStart": false,
            "sourceChordNote": 0,
            "sourceChordType": "min7(11)",
            "ctb2Low": null,
            "ctb2Main": {
              "ntr": "ROOT_FIXED",
              "ntt": "CHORD",
              "bassOn": false,
              "chordRootUpperLimit": 7,
              "noteLowLimit": 50,
              "noteHighLimit": 127,
              "rtr": "PITCH_SHIFT"
            },
            "ctb2High": null
          },
          "notes": []
        }
      }
    },
    "Fill_In_BA": {
      "type": "Fill_In_BA",
      "sizeInBeats": 4,
      "channels": {
        "1": {
          "ctab": {
            "srcChannel": 1,
            "name": "Git root",
            "accType": "CHORD1",
            "editable": false,
            "mutedNotes": [],
            "mutedChords": [
              "1+2+5",
              "sus4",
              "1+5",
              "1+8",
              "Maj7aug",
              "dim",
              "minMaj7(9)",
              "minMaj7",
              "min6",
              "min",
              "aug",
              "Maj7(9)",
              "Maj7#11",
              "Maj7",
              "Maj6",
              "Maj"
            ],
            "autoStart": false,
            "sourceChordNote": 0,
            "sourceChordType": "Maj7",
            "ctb2Low": null,
            "ctb2Main": {
              "ntr": "ROOT_TRANSPOSITION",
              "ntt": "CHORD",
              "bassOn": false,
              "chordRootUpperLimit": 6,
              "noteLowLimit": 0,
              "noteHighLimit": 127,
              "rtr": "PITCH_SHIFT"
            },
            "ctb2High": null
          },
          "notes": [
            {
              "pitch": 60,
              "velocity": 100,
              "position": 0,
              "duration": 0.9791666666666666
            },
            {
              "pitch": 60,
              "velocity": 64,
              "position": 1.0104166666666667,
              "duration": 0.46875
            },
            {
              "pitch": 60,
              "velocity": 91,
              "position": 1.5104166666666667,
              "duration": 2.46875
            }
          ]
        },
        "2": {
          "ctab": {
            "srcChannel": 2,
            "name": "str root",
            "accType": "PAD",
            "editable": false,
            "mutedNotes": [],
            "mutedChords": [
              "1+2+5",
              "sus4",
              "1+5",
              "1+8",
              "Maj7aug",
              "dim",
              "minMaj7(9)",
              "minMaj7",
              "min6",
              "min",
              "aug",
              "Maj7(9)",
              "Maj7#11",
              "Maj7",
              "Maj6",
              "Maj"
            ],
            "autoStart": false,
            "sourceChordNote": 0,
            "sourceChordType": "Maj7",
            "ctb2Low": null,
            "ctb2Main": {
              "ntr": "ROOT_TRANSPOSITION",
              "ntt": "CHORD",
              "bassOn": false,
              "chordRootUpperLimit": 6,
              "noteLowLimit": 0,
              "noteHighLimit": 127,
              "rtr": "PITCH_SHIFT"
            },
            "ctb2High": null
          },
          "notes": [
            {
              "pitch": 60,
              "velocity": 68,
              "position": 0,
              "duration": 3.9895833333333335
            }
          ]
        },
        "6": {
          "ctab": {
            "srcChannel": 6,
            "name": "CleanFX",
            "accType": "CHORD2",
            "editable": false,
            "mutedNotes": [],
            "mutedChords": [],
            "autoStart": false,
            "sourceChordNote": 0,
            "sourceChordType": "Maj",
            "ctb2Low": null,
            "ctb2Main": {
              "ntr": "ROOT_FIXED",
              "ntt": "BYPASS",
              "bassOn": false,
              "chordRootUpperLimit": 7,
              "noteLowLimit": 0,
              "noteHighLimit": 79,
              "rtr": "PITCH_SHIFT"
            },
            "ctb2High": null
          },
          "notes": [
            {
              "pitch": 100,
              "velocity": 86,
              "position": 0,
              "duration": 0.23958333333333334
            },
            {
              "pitch": 101,
              "velocity": 80,
              "position": 0.75,
              "duration": 0.23958333333333334
            },
            {
              "pitch": 100,
              "velocity": 86,
              "position": 1.5,
              "duration": 0.23958333333333334
            }
          ]
        },
        "7": {
          "ctab": {
            "srcChannel": 7,
            "name": "CC_Crash",
            "accType": "RHYTHM",
            "editable": false,
            "mutedNotes": [],
            "mutedChords": [
              "1+2+5",
              "sus4",
              "1+5",
              "1+8",
              "7aug",
              "Maj7aug",
              "7(#9)",
              "7(b13)",
              "7(b9)",
              "7(13)",
              "7#11",
              "7(9)",
              "7b5",
              "7sus4",
              "7th",
              "dim7",
              "dim",
              "minMaj7(9)",
              "minMaj7",
              "min7(11)",
              "min7(9)",
              "min(9)",
              "m7b5",
              "min7",
              "min6",
              "min",
              "aug",
              "Maj6(9)",
              "Maj7(9)",
              "Maj(9)",
              "Maj7#11",
              "Maj7",
              "Maj6",
              "Maj"
            ],
            "autoStart": true,
            "sourceChordNote": 0,
            "sourceChordType": "Maj",
            "ctb2Low": null,
            "ctb2Main": {
              "ntr": "ROOT_FIXED",
              "ntt": "BYPASS",
              "bassOn": false,
              "chordRootUpperLimit": 0,
              "noteLowLimit": 0,
              "noteHighLimit": 127,
              "rtr": "RETRIGGER"
            },
            "ctb2High": null
          },
          "notes": []
        },
        "8": {
          "ctab": {
            "srcChannel": 8,
            "name": "drums",
            "accType": "SUBRHYTHM",
            "editable": false,
            "mutedNotes": [],
            "mutedChords": [],
            "autoStart": true,
            "sourceChordNote": 0,
            "sourceChordType": "Maj7",
            "ctb2Low": null,
            "ctb2Main": {
              "ntr": "ROOT_FIXED",
              "ntt": "BYPASS",
              "bassOn": false,
              "chordRootUpperLimit": 6,
              "noteLowLimit": 0,
              "noteHighLimit": 127,
              "rtr": "PITCH_SHIFT"
            },
            "ctb2High": null
          },
          "notes": []
        },
        "9": {
          "ctab": {
            "srcChannel": 9,
            "name": "drums",
            "accType": "RHYTHM",
            "editable": false,
            "mutedNotes": [],
            "mutedChords": [],
            "autoStart": true,
            "sourceChordNote": 0,
            "sourceChordType": "Maj7",
            "ctb2Low": null,
            "ctb2Main": {
              "ntr": "ROOT_FIXED",
              "ntt": "BYPASS",
              "bassOn": false,
              "chordRootUpperLimit": 6,
              "noteLowLimit": 0,
              "noteHighLimit": 127,
              "rtr": "PITCH_SHIFT"
            },
            "ctb2High": null
          },
          "notes": [
            {
              "pitch": 36,
              "velocity": 100,
              "position": 0,
              "duration": 0.020833333333333332
            },
            {
              "pitch": 54,
              "velocity": 79,
              "position": 0,
              "duration": 0.020833333333333332
            },
            {
              "pitch": 54,
              "velocity": 44,
              "position": 0.25,
              "duration": 0.020833333333333332
            },
            {
              "pitch": 44,
              "velocity": 34,
              "position": 0.5,
              "duration": 0.020833333333333332
            },
            {
              "pitch": 54,
              "velocity": 31,
              "position": 0.5,
              "duration": 0.020833333333333332
            },
            {
              "pitch": 54,
              "velocity": 42,
              "position": 0.75,
              "duration": 0.020833333333333332
            },
            {
              "pitch": 44,
              "velocity": 55,
              "position": 1,
              "duration": 0.020833333333333332
            },
            {
              "pitch": 54,
              "velocity": 69,
              "position": 1,
              "duration": 0.020833333333333332
            },
            {
              "pitch": 40,
              "velocity": 90,
              "position": 1,
              "duration": 0.25
            },
            {
              "pitch": 36,
              "velocity": 100,
              "position": 1.5,
              "duration": 0.020833333333333332
            },
            {
              "pitch": 46,
              "velocity": 58,
              "position": 1.5,
              "duration": 0.020833333333333332
            },
            {
              "pitch": 54,
              "velocity": 54,
              "position": 1.5,
              "duration": 0.13541666666666666
            },
            {
              "pitch": 48,
              "velocity": 49,
              "position": 1.75,
              "duration": 0.09375
            },
            {
              "pitch": 54,
              "velocity": 70,
              "position": 2,
              "duration": 0.14583333333333334
            },
            {
              "pitch": 48,
              "velocity": 67,
              "position": 2,
              "duration": 0.22916666666666666
            },
            {
              "pitch": 44,
              "velocity": 28,
              "position": 2.5,
              "duration": 0.020833333333333332
            },
            {
              "pitch": 45,
              "velocity": 55,
              "position": 2.5,
              "duration": 0.020833333333333332
            },
            {
              "pitch": 54,
              "velocity": 40,
              "position": 2.5,
              "duration": 0.125
            },
            {
              "pitch": 47,
              "velocity": 60,
              "position": 2.5,
              "duration": 0.25
            },
            {
              "pitch": 40,
              "velocity": 90,
              "position": 3,
              "duration": 0.020833333333333332
            },
            {
              "pitch": 44,
              "velocity": 55,
              "position": 3,
              "duration": 0.020833333333333332
            },
            {
              "pitch": 54,
              "velocity": 40,
              "position": 3,
              "duration": 0.14583333333333334
            },
            {
              "pitch": 45,
              "velocity": 63,
              "position": 3.5,
              "duration": 0.020833333333333332
            },
            {
              "pitch": 46,
              "velocity": 55,
              "position": 3.5,
              "duration": 0.020833333333333332
            },
            {
              "pitch": 54,
              "velocity": 51,
              "position": 3.5,
              "duration": 0.125
            },
            {
              "pitch": 49,
              "velocity": 50,
              "position": 3.9895833333333335,
              "duration": 0.010416666666666666
            }
          ]
        },
        "10": {
          "ctab": {
            "srcChannel": 10,
            "name": "bass",
            "accType": "BASS",
            "editable": false,
            "mutedNotes": [],
            "mutedChords": [],
            "autoStart": false,
            "sourceChordNote": 0,
            "sourceChordType": "Maj7",
            "ctb2Low": null,
            "ctb2Main": {
              "ntr": "ROOT_TRANSPOSITION",
              "ntt": "MELODY",
              "bassOn": true,
              "chordRootUpperLimit": 8,
              "noteLowLimit": 28,
              "noteHighLimit": 127,
              "rtr": "PITCH_SHIFT_TO_ROOT"
            },
            "ctb2High": null
          },
          "notes": [
            {
              "pitch": 24,
              "velocity": 80,
              "position": 0,
              "duration": 1
            },
            {
              "pitch": 24,
              "velocity": 80,
              "position": 1.5,
              "duration": 2
            }
          ]
        },
        "11": {
          "ctab": {
            "srcChannel": 11,
            "name": "git l",
            "accType": "CHORD1",
            "editable": false,
            "mutedNotes": [],
            "mutedChords": [],
            "autoStart": false,
            "sourceChordNote": 0,
            "sourceChordType": "min7(11)",
            "ctb2Low": null,
            "ctb2Main": {
              "ntr": "ROOT_FIXED",
              "ntt": "CHORD",
              "bassOn": false,
              "chordRootUpperLimit": 7,
              "noteLowLimit": 50,
              "noteHighLimit": 127,
              "rtr": "PITCH_SHIFT"
            },
            "ctb2High": null
          },
          "notes": [
            {
              "pitch": 53,
              "velocity": 100,
              "position": 0,
              "duration": 0.9791666666666666
            },
            {
              "pitch": 58,
              "velocity": 100,
              "position": 0,
              "duration": 0.9791666666666666
            },
            {
              "pitch": 63,
              "velocity": 103,
              "position": 0.010416666666666666,
              "duration": 0.96875
            },
            {
              "pitch": 63,
              "velocity": 65,
              "position": 1,
              "duration": 0.4791666666666667
            },
            {
              "pitch": 58,
              "velocity": 64,
              "position": 1.0104166666666667,
              "duration": 0.46875
            },
            {
              "pitch": 53,
              "velocity": 64,
              "position": 1.0208333333333333,
              "duration": 0.4583333333333333
            },
            {
              "pitch": 53,
              "velocity": 91,
              "position": 1.5,
              "duration": 2.4791666666666665
            },
            {
              "pitch": 58,
              "velocity": 91,
              "position": 1.5104166666666667,
              "duration": 2.46875
            },
            {
              "pitch": 63,
              "velocity": 91,
              "position": 1.5208333333333333,
              "duration": 2.4583333333333335
            }
          ]
        },
        "12": {
          "ctab": {
            "srcChannel": 12,
            "name": "git r",
            "accType": "CHORD2",
            "editable": false,
            "mutedNotes": [],
            "mutedChords": [],
            "autoStart": false,
            "sourceChordNote": 0,
            "sourceChordType": "min7(11)",
            "ctb2Low": null,
            "ctb2Main": {
              "ntr": "ROOT_FIXED",
              "ntt": "CHORD",
              "bassOn": false,
              "chordRootUpperLimit": 7,
              "noteLowLimit": 50,
              "noteHighLimit": 127,
              "rtr": "PITCH_SHIFT"
            },
            "ctb2High": null
          },
          "notes": [
            {
              "pitch": 53,
              "velocity": 20,
              "position": 0,
              "duration": 0.7395833333333334
            },
            {
              "pitch": 58,
              "velocity": 20,
              "position": 0.020833333333333332,
              "duration": 0.71875
            },
            {
              "pitch": 63,
              "velocity": 20,
              "position": 0.020833333333333332,
              "duration": 0.71875
            },
            {
              "pitch": 53,
              "velocity": 10,
              "position": 0.75,
              "duration": 0.7395833333333334
            },
            {
              "pitch": 63,
              "velocity": 10,
              "position": 0.75,
              "duration": 0.7395833333333334
            },
            {
              "pitch": 58,
              "velocity": 10,
              "position": 0.7708333333333334,
              "duration": 0.71875
            },
            {
              "pitch": 63,
              "velocity": 20,
              "position": 1.5,
              "duration": 2.4895833333333335
            },
            {
              "pitch": 53,
              "velocity": 20,
              "position": 1.5208333333333333,
              "duration": 2.46875
            },
            {
              "pitch": 58,
              "velocity": 20,
              "position": 1.5208333333333333,
              "duration": 2.46875
            }
          ]
        },
        "13": {
          "ctab": {
            "srcChannel": 13,
            "name": "strng",
            "accType": "PAD",
            "editable": false,
            "mutedNotes": [],
            "mutedChords": [],
            "autoStart": false,
            "sourceChordNote": 0,
            "sourceChordType": "min7(11)",
            "ctb2Low": null,
            "ctb2Main": {
              "ntr": "ROOT_FIXED",
              "ntt": "CHORD",
              "bassOn": false,
              "chordRootUpperLimit": 7,
              "noteLowLimit": 50,
              "noteHighLimit": 127,
              "rtr": "PITCH_SHIFT"
            },
            "ctb2High": null
          },
          "notes": [
            {
              "pitch": 53,
              "velocity": 68,
              "position": 0,
              "duration": 3.9895833333333335
            },
            {
              "pitch": 58,
              "velocity": 68,
              "position": 0,
              "duration": 3.9895833333333335
            },
            {
              "pitch": 63,
              "velocity": 68,
              "position": 0,
              "duration": 3.9895833333333335
            }
          ]
        },
        "14": {
          "ctab": {
            "srcChannel": 14,
            "name": "git 3",
            "accType": "PHRASE1",
            "editable": false,
            "mutedNotes": [],
            "mutedChords": [],
            "autoStart": false,
            "sourceChordNote": 0,
            "sourceChordType": "min7(11)",
            "ctb2Low": null,
            "ctb2Main": {
              "ntr": "ROOT_FIXED",
              "ntt": "CHORD",
              "bassOn": false,
              "chordRootUpperLimit": 7,
              "noteLowLimit": 50,
              "noteHighLimit": 127,
              "rtr": "PITCH_SHIFT"
            },
            "ctb2High": null
          },
          "notes": []
        }
      }
    },
    "Intro_B": {
      "type": "Intro_B",
      "sizeInBeats": 16,
      "channels": {
        "6": {
          "ctab": {
            "srcChannel": 6,
            "name": "guit28r",
            "accType": "CHORD2",
            "editable": false,
            "mutedNotes": [],
            "mutedChords": [],
            "autoStart": false,
            "sourceChordNote": 0,
            "sourceChordType": "Maj",
            "ctb2Low": null,
            "ctb2Main": {
              "ntr": "ROOT_FIXED",
              "ntt": "BYPASS",
              "bassOn": false,
              "chordRootUpperLimit": 7,
              "noteLowLimit": 0,
              "noteHighLimit": 79,
              "rtr": "PITCH_SHIFT"
            },
            "ctb2High": null
          },
          "notes": [
            {
              "pitch": 100,
              "velocity": 87,
              "position": 0,
              "duration": 0.23958333333333334
            },
            {
              "pitch": 101,
              "velocity": 82,
              "position": 0.75,
              "duration": 0.23958333333333334
            },
            {
              "pitch": 100,
              "velocity": 87,
              "position": 1.5,
              "duration": 0.23958333333333334
            },
            {
              "pitch": 101,
              "velocity": 82,
              "position": 2.5,
              "duration": 0.23958333333333334
            },
            {
              "pitch": 100,
              "velocity": 55,
              "position": 3,
              "duration": 0.23958333333333334
            },
            {
              "pitch": 100,
              "velocity": 87,
              "position": 4,
              "duration": 0.23958333333333334
            },
            {
              "pitch": 101,
              "velocity": 82,
              "position": 4.75,
              "duration": 0.23958333333333334
            },
            {
              "pitch": 100,
              "velocity": 87,
              "position": 5.5,
              "duration": 0.23958333333333334
            },
            {
              "pitch": 101,
              "velocity": 82,
              "position": 6.25,
              "duration": 0.23958333333333334
            },
            {
              "pitch": 100,
              "velocity": 69,
              "position": 7,
              "duration": 0.23958333333333334
            },
            {
              "pitch": 100,
              "velocity": 73,
              "position": 7.5,
              "duration": 0.23958333333333334
            },
            {
              "pitch": 101,
              "velocity": 68,
              "position": 7.75,
              "duration": 0.23958333333333334
            },
            {
              "pitch": 100,
              "velocity": 87,
              "position": 8,
              "duration": 0.23958333333333334
            },
            {
              "pitch": 101,
              "velocity": 82,
              "position": 8.75,
              "duration": 0.23958333333333334
            },
            {
              "pitch": 100,
              "velocity": 87,
              "position": 9.5,
              "duration": 0.23958333333333334
            },
            {
              "pitch": 101,
              "velocity": 82,
              "position": 10.5,
              "duration": 0.23958333333333334
            },
            {
              "pitch": 100,
              "velocity": 66,
              "position": 11,
              "duration": 0.23958333333333334
            },
            {
              "pitch": 100,
              "velocity": 87,
              "position": 12,
              "duration": 0.23958333333333334
            },
            {
              "pitch": 101,
              "velocity": 82,
              "position": 12.75,
              "duration": 0.23958333333333334
            },
            {
              "pitch": 100,
              "velocity": 87,
              "position": 13.5,
              "duration": 0.23958333333333334
            },
            {
              "pitch": 100,
              "velocity": 69,
              "position": 15,
              "duration": 0.23958333333333334
            },
            {
              "pitch": 100,
              "velocity": 73,
              "position": 15.5,
              "duration": 0.23958333333333334
            },
            {
              "pitch": 101,
              "velocity": 73,
              "position": 15.75,
              "duration": 0.23958333333333334
            }
          ]
        },
        "8": {
          "ctab": {
            "srcChannel": 8,
            "name": "StdDr01",
            "accType": "SUBRHYTHM",
            "editable": false,
            "mutedNotes": [],
            "mutedChords": [],
            "autoStart": true,
            "sourceChordNote": 0,
            "sourceChordType": "Maj7",
            "ctb2Low": null,
            "ctb2Main": {
              "ntr": "ROOT_FIXED",
              "ntt": "BYPASS",
              "bassOn": false,
              "chordRootUpperLimit": 6,
              "noteLowLimit": 0,
              "noteHighLimit": 127,
              "rtr": "PITCH_SHIFT"
            },
            "ctb2High": null
          },
          "notes": [
            {
              "pitch": 82,
              "velocity": 78,
              "position": 0,
              "duration": 0.020833333333333332
            },
            {
              "pitch": 82,
              "velocity": 51,
              "position": 0.25,
              "duration": 0.020833333333333332
            },
            {
              "pitch": 82,
              "velocity": 51,
              "position": 0.5,
              "duration": 0.020833333333333332
            },
            {
              "pitch": 82,
              "velocity": 58,
              "position": 0.75,
              "duration": 0.020833333333333332
            },
            {
              "pitch": 82,
              "velocity": 78,
              "position": 1,
              "duration": 0.020833333333333332
            },
            {
              "pitch": 82,
              "velocity": 51,
              "position": 1.25,
              "duration": 0.020833333333333332
            },
            {
              "pitch": 82,
              "velocity": 51,
              "position": 1.5,
              "duration": 0.020833333333333332
            },
            {
              "pitch": 82,
              "velocity": 58,
              "position": 1.75,
              "duration": 0.020833333333333332
            },
            {
              "pitch": 82,
              "velocity": 78,
              "position": 2,
              "duration": 0.020833333333333332
            },
            {
              "pitch": 82,
              "velocity": 51,
              "position": 2.25,
              "duration": 0.020833333333333332
            },
            {
              "pitch": 82,
              "velocity": 51,
              "position": 2.5,
              "duration": 0.020833333333333332
            },
            {
              "pitch": 82,
              "velocity": 58,
              "position": 2.75,
              "duration": 0.020833333333333332
            },
            {
              "pitch": 82,
              "velocity": 78,
              "position": 3,
              "duration": 0.020833333333333332
            },
            {
              "pitch": 82,
              "velocity": 51,
              "position": 3.25,
              "duration": 0.020833333333333332
            },
            {
              "pitch": 82,
              "velocity": 51,
              "position": 3.5,
              "duration": 0.020833333333333332
            },
            {
              "pitch": 82,
              "velocity": 58,
              "position": 3.75,
              "duration": 0.020833333333333332
            },
            {
              "pitch": 82,
              "velocity": 78,
              "position": 4,
              "duration": 0.020833333333333332
            },
            {
              "pitch": 82,
              "velocity": 51,
              "position": 4.25,
              "duration": 0.020833333333333332
            },
            {
              "pitch": 82,
              "velocity": 51,
              "position": 4.5,
              "duration": 0.020833333333333332
            },
            {
              "pitch": 82,
              "velocity": 58,
              "position": 4.75,
              "duration": 0.020833333333333332
            },
            {
              "pitch": 82,
              "velocity": 78,
              "position": 5,
              "duration": 0.020833333333333332
            },
            {
              "pitch": 82,
              "velocity": 51,
              "position": 5.25,
              "duration": 0.020833333333333332
            },
            {
              "pitch": 82,
              "velocity": 51,
              "position": 5.5,
              "duration": 0.020833333333333332
            },
            {
              "pitch": 82,
              "velocity": 58,
              "position": 5.75,
              "duration": 0.020833333333333332
            },
            {
              "pitch": 82,
              "velocity": 78,
              "position": 6,
              "duration": 0.020833333333333332
            },
            {
              "pitch": 82,
              "velocity": 51,
              "position": 6.25,
              "duration": 0.020833333333333332
            },
            {
              "pitch": 82,
              "velocity": 51,
              "position": 6.5,
              "duration": 0.020833333333333332
            },
            {
              "pitch": 82,
              "velocity": 58,
              "position": 6.75,
              "duration": 0.020833333333333332
            },
            {
              "pitch": 82,
              "velocity": 78,
              "position": 7,
              "duration": 0.020833333333333332
            },
            {
              "pitch": 82,
              "velocity": 51,
              "position": 7.25,
              "duration": 0.020833333333333332
            },
            {
              "pitch": 82,
              "velocity": 51,
              "position": 7.5,
              "duration": 0.020833333333333332
            },
            {
              "pitch": 82,
              "velocity": 58,
              "position": 7.75,
              "duration": 0.020833333333333332
            },
            {
              "pitch": 82,
              "velocity": 78,
              "position": 8,
              "duration": 0.020833333333333332
            },
            {
              "pitch": 82,
              "velocity": 51,
              "position": 8.25,
              "duration": 0.020833333333333332
            },
            {
              "pitch": 82,
              "velocity": 51,
              "position": 8.5,
              "duration": 0.020833333333333332
            },
            {
              "pitch": 82,
              "velocity": 58,
              "position": 8.75,
              "duration": 0.020833333333333332
            },
            {
              "pitch": 82,
              "velocity": 78,
              "position": 9,
              "duration": 0.020833333333333332
            },
            {
              "pitch": 82,
              "velocity": 51,
              "position": 9.25,
              "duration": 0.020833333333333332
            },
            {
              "pitch": 82,
              "velocity": 51,
              "position": 9.5,
              "duration": 0.020833333333333332
            },
            {
              "pitch": 82,
              "velocity": 58,
              "position": 9.75,
              "duration": 0.020833333333333332
            },
            {
              "pitch": 82,
              "velocity": 78,
              "position": 10,
              "duration": 0.020833333333333332
            },
            {
              "pitch": 82,
              "velocity": 51,
              "position": 10.25,
              "duration": 0.020833333333333332
            },
            {
              "pitch": 82,
              "velocity": 51,
              "position": 10.5,
              "duration": 0.020833333333333332
            },
            {
              "pitch": 82,
              "velocity": 58,
              "position": 10.75,
              "duration": 0.020833333333333332
            },
            {
              "pitch": 82,
              "velocity": 78,
              "position": 11,
              "duration": 0.020833333333333332
            },
            {
              "pitch": 82,
              "velocity": 51,
              "position": 11.25,
              "duration": 0.020833333333333332
            },
            {
              "pitch": 82,
              "velocity": 51,
              "position": 11.5,
              "duration": 0.020833333333333332
            },
            {
              "pitch": 82,
              "velocity": 58,
              "position": 11.75,
              "duration": 0.020833333333333332
            },
            {
              "pitch": 82,
              "velocity": 78,
              "position": 12,
              "duration": 0.020833333333333332
            },
            {
              "pitch": 82,
              "velocity": 51,
              "position": 12.25,
              "duration": 0.020833333333333332
            },
            {
              "pitch": 82,
              "velocity": 51,
              "position": 12.5,
              "duration": 0.020833333333333332
            },
            {
              "pitch": 82,
              "velocity": 58,
              "position": 12.75,
              "duration": 0.020833333333333332
            },
            {
              "pitch": 82,
              "velocity": 78,
              "position": 13,
              "duration": 0.020833333333333332
            },
            {
              "pitch": 82,
              "velocity": 51,
              "position": 13.25,
              "duration": 0.020833333333333332
            },
            {
              "pitch": 82,
              "velocity": 51,
              "position": 13.5,
              "duration": 0.020833333333333332
            },
            {
              "pitch": 82,
              "velocity": 58,
              "position": 13.75,
              "duration": 0.020833333333333332
            },
            {
              "pitch": 82,
              "velocity": 78,
              "position": 14,
              "duration": 0.020833333333333332
            },
            {
              "pitch": 82,
              "velocity": 51,
              "position": 14.25,
              "duration": 0.020833333333333332
            },
            {
              "pitch": 82,
              "velocity": 51,
              "position": 14.5,
              "duration": 0.020833333333333332
            },
            {
              "pitch": 82,
              "velocity": 58,
              "position": 14.75,
              "duration": 0.020833333333333332
            },
            {
              "pitch": 82,
              "velocity": 78,
              "position": 15,
              "duration": 0.020833333333333332
            },
            {
              "pitch": 82,
              "velocity": 51,
              "position": 15.25,
              "duration": 0.020833333333333332
            },
            {
              "pitch": 82,
              "velocity": 51,
              "position": 15.5,
              "duration": 0.020833333333333332
            },
            {
              "pitch": 82,
              "velocity": 58,
              "position": 15.75,
              "duration": 0.020833333333333332
            }
          ]
        },
        "9": {
          "ctab": {
            "srcChannel": 9,
            "name": "StdDr02",
            "accType": "RHYTHM",
            "editable": false,
            "mutedNotes": [],
            "mutedChords": [],
            "autoStart": true,
            "sourceChordNote": 0,
            "sourceChordType": "Maj7",
            "ctb2Low": null,
            "ctb2Main": {
              "ntr": "ROOT_FIXED",
              "ntt": "BYPASS",
              "bassOn": false,
              "chordRootUpperLimit": 6,
              "noteLowLimit": 0,
              "noteHighLimit": 127,
              "rtr": "PITCH_SHIFT"
            },
            "ctb2High": null
          },
          "notes": [
            {
              "pitch": 42,
              "velocity": 84,
              "position": 0,
              "duration": 0.020833333333333332
            },
            {
              "pitch": 42,
              "velocity": 53,
              "position": 0.5,
              "duration": 0.020833333333333332
            },
            {
              "pitch": 42,
              "velocity": 52,
              "position": 0.75,
              "duration": 0.020833333333333332
            },
            {
              "pitch": 42,
              "velocity": 84,
              "position": 1,
              "duration": 0.020833333333333332
            },
            {
              "pitch": 54,
              "velocity": 91,
              "position": 1,
              "duration": 0.020833333333333332
            },
            {
              "pitch": 42,
              "velocity": 53,
              "position": 1.5,
              "duration": 0.020833333333333332
            },
            {
              "pitch": 42,
              "velocity": 48,
              "position": 1.75,
              "duration": 0.020833333333333332
            },
            {
              "pitch": 42,
              "velocity": 78,
              "position": 2,
              "duration": 0.020833333333333332
            },
            {
              "pitch": 42,
              "velocity": 52,
              "position": 2.5,
              "duration": 0.020833333333333332
            },
            {
              "pitch": 42,
              "velocity": 32,
              "position": 2.75,
              "duration": 0.020833333333333332
            },
            {
              "pitch": 42,
              "velocity": 83,
              "position": 3,
              "duration": 0.020833333333333332
            },
            {
              "pitch": 54,
              "velocity": 90,
              "position": 3,
              "duration": 0.020833333333333332
            },
            {
              "pitch": 42,
              "velocity": 57,
              "position": 3.5,
              "duration": 0.020833333333333332
            },
            {
              "pitch": 42,
              "velocity": 39,
              "position": 3.75,
              "duration": 0.020833333333333332
            },
            {
              "pitch": 42,
              "velocity": 84,
              "position": 4,
              "duration": 0.020833333333333332
            },
            {
              "pitch": 42,
              "velocity": 54,
              "position": 4.5,
              "duration": 0.020833333333333332
            },
            {
              "pitch": 42,
              "velocity": 47,
              "position": 4.75,
              "duration": 0.020833333333333332
            },
            {
              "pitch": 42,
              "velocity": 84,
              "position": 5,
              "duration": 0.020833333333333332
            },
            {
              "pitch": 54,
              "velocity": 89,
              "position": 5,
              "duration": 0.020833333333333332
            },
            {
              "pitch": 42,
              "velocity": 59,
              "position": 5.5,
              "duration": 0.020833333333333332
            },
            {
              "pitch": 42,
              "velocity": 44,
              "position": 5.75,
              "duration": 0.020833333333333332
            },
            {
              "pitch": 42,
              "velocity": 84,
              "position": 6,
              "duration": 0.020833333333333332
            },
            {
              "pitch": 40,
              "velocity": 82,
              "position": 6.5,
              "duration": 0.020833333333333332
            },
            {
              "pitch": 44,
              "velocity": 55,
              "position": 6.5,
              "duration": 0.020833333333333332
            },
            {
              "pitch": 40,
              "velocity": 32,
              "position": 6.75,
              "duration": 0.020833333333333332
            },
            {
              "pitch": 36,
              "velocity": 100,
              "position": 7,
              "duration": 0.020833333333333332
            },
            {
              "pitch": 40,
              "velocity": 90,
              "position": 7,
              "duration": 0.020833333333333332
            },
            {
              "pitch": 54,
              "velocity": 95,
              "position": 7,
              "duration": 0.020833333333333332
            },
            {
              "pitch": 47,
              "velocity": 68,
              "position": 7.25,
              "duration": 0.020833333333333332
            },
            {
              "pitch": 44,
              "velocity": 55,
              "position": 7.5,
              "duration": 0.020833333333333332
            },
            {
              "pitch": 45,
              "velocity": 59,
              "position": 7.5,
              "duration": 0.020833333333333332
            },
            {
              "pitch": 36,
              "velocity": 100,
              "position": 8,
              "duration": 0.020833333333333332
            },
            {
              "pitch": 42,
              "velocity": 84,
              "position": 8,
              "duration": 0.020833333333333332
            },
            {
              "pitch": 57,
              "velocity": 50,
              "position": 8,
              "duration": 0.020833333333333332
            },
            {
              "pitch": 42,
              "velocity": 53,
              "position": 8.5,
              "duration": 0.020833333333333332
            },
            {
              "pitch": 42,
              "velocity": 52,
              "position": 8.75,
              "duration": 0.020833333333333332
            },
            {
              "pitch": 36,
              "velocity": 100,
              "position": 9,
              "duration": 0.020833333333333332
            },
            {
              "pitch": 42,
              "velocity": 84,
              "position": 9,
              "duration": 0.020833333333333332
            },
            {
              "pitch": 54,
              "velocity": 91,
              "position": 9,
              "duration": 0.020833333333333332
            },
            {
              "pitch": 42,
              "velocity": 39,
              "position": 9.5,
              "duration": 0.020833333333333332
            },
            {
              "pitch": 42,
              "velocity": 48,
              "position": 9.75,
              "duration": 0.020833333333333332
            },
            {
              "pitch": 36,
              "velocity": 100,
              "position": 10,
              "duration": 0.020833333333333332
            },
            {
              "pitch": 42,
              "velocity": 78,
              "position": 10,
              "duration": 0.020833333333333332
            },
            {
              "pitch": 42,
              "velocity": 52,
              "position": 10.5,
              "duration": 0.020833333333333332
            },
            {
              "pitch": 42,
              "velocity": 32,
              "position": 10.75,
              "duration": 0.020833333333333332
            },
            {
              "pitch": 36,
              "velocity": 100,
              "position": 11,
              "duration": 0.020833333333333332
            },
            {
              "pitch": 42,
              "velocity": 83,
              "position": 11,
              "duration": 0.020833333333333332
            },
            {
              "pitch": 54,
              "velocity": 90,
              "position": 11,
              "duration": 0.020833333333333332
            },
            {
              "pitch": 42,
              "velocity": 57,
              "position": 11.5,
              "duration": 0.020833333333333332
            },
            {
              "pitch": 42,
              "velocity": 39,
              "position": 11.75,
              "duration": 0.020833333333333332
            },
            {
              "pitch": 36,
              "velocity": 100,
              "position": 12,
              "duration": 0.020833333333333332
            },
            {
              "pitch": 42,
              "velocity": 84,
              "position": 12,
              "duration": 0.020833333333333332
            },
            {
              "pitch": 42,
              "velocity": 54,
              "position": 12.5,
              "duration": 0.020833333333333332
            },
            {
              "pitch": 40,
              "velocity": 53,
              "position": 12.5,
              "duration": 0.15625
            },
            {
              "pitch": 43,
              "velocity": 41,
              "position": 12.5,
              "duration": 0.1875
            },
            {
              "pitch": 42,
              "velocity": 47,
              "position": 12.75,
              "duration": 0.020833333333333332
            },
            {
              "pitch": 36,
              "velocity": 100,
              "position": 13,
              "duration": 0.020833333333333332
            },
            {
              "pitch": 42,
              "velocity": 84,
              "position": 13,
              "duration": 0.020833333333333332
            },
            {
              "pitch": 54,
              "velocity": 89,
              "position": 13,
              "duration": 0.020833333333333332
            },
            {
              "pitch": 40,
              "velocity": 48,
              "position": 13,
              "duration": 0.13541666666666666
            },
            {
              "pitch": 43,
              "velocity": 49,
              "position": 13,
              "duration": 0.14583333333333334
            },
            {
              "pitch": 42,
              "velocity": 59,
              "position": 13.5,
              "duration": 0.020833333333333332
            },
            {
              "pitch": 40,
              "velocity": 61,
              "position": 13.5,
              "duration": 0.16666666666666666
            },
            {
              "pitch": 43,
              "velocity": 59,
              "position": 13.5,
              "duration": 0.17708333333333334
            },
            {
              "pitch": 42,
              "velocity": 44,
              "position": 13.75,
              "duration": 0.020833333333333332
            },
            {
              "pitch": 36,
              "velocity": 100,
              "position": 14,
              "duration": 0.020833333333333332
            },
            {
              "pitch": 42,
              "velocity": 84,
              "position": 14,
              "duration": 0.020833333333333332
            },
            {
              "pitch": 40,
              "velocity": 74,
              "position": 14,
              "duration": 0.15625
            },
            {
              "pitch": 43,
              "velocity": 68,
              "position": 14,
              "duration": 0.15625
            },
            {
              "pitch": 40,
              "velocity": 82,
              "position": 14.5,
              "duration": 0.020833333333333332
            },
            {
              "pitch": 44,
              "velocity": 55,
              "position": 14.5,
              "duration": 0.020833333333333332
            },
            {
              "pitch": 40,
              "velocity": 32,
              "position": 14.75,
              "duration": 0.020833333333333332
            },
            {
              "pitch": 36,
              "velocity": 100,
              "position": 15,
              "duration": 0.020833333333333332
            },
            {
              "pitch": 40,
              "velocity": 90,
              "position": 15,
              "duration": 0.020833333333333332
            },
            {
              "pitch": 54,
              "velocity": 95,
              "position": 15,
              "duration": 0.020833333333333332
            },
            {
              "pitch": 47,
              "velocity": 84,
              "position": 15.25,
              "duration": 0.020833333333333332
            },
            {
              "pitch": 44,
              "velocity": 55,
              "position": 15.5,
              "duration": 0.020833333333333332
            },
            {
              "pitch": 45,
              "velocity": 73,
              "position": 15.5,
              "duration": 0.020833333333333332
            }
          ]
        },
        "10": {
          "ctab": {
            "srcChannel": 10,
            "name": "FingBs34",
            "accType": "BASS",
            "editable": false,
            "mutedNotes": [],
            "mutedChords": [],
            "autoStart": false,
            "sourceChordNote": 0,
            "sourceChordType": "Maj",
            "ctb2Low": null,
            "ctb2Main": {
              "ntr": "ROOT_TRANSPOSITION",
              "ntt": "HARMONIC_MINOR",
              "bassOn": false,
              "chordRootUpperLimit": 8,
              "noteLowLimit": 28,
              "noteHighLimit": 47,
              "rtr": "PITCH_SHIFT"
            },
            "ctb2High": null
          },
          "notes": [
            {
              "pitch": 31,
              "velocity": 114,
              "position": 6.5,
              "duration": 0.23958333333333334
            },
            {
              "pitch": 31,
              "velocity": 80,
              "position": 6.75,
              "duration": 0.25
            },
            {
              "pitch": 33,
              "velocity": 80,
              "position": 7,
              "duration": 0.5
            },
            {
              "pitch": 36,
              "velocity": 80,
              "position": 7.5,
              "duration": 0.4895833333333333
            },
            {
              "pitch": 36,
              "velocity": 80,
              "position": 8,
              "duration": 0.7395833333333334
            },
            {
              "pitch": 36,
              "velocity": 80,
              "position": 8.75,
              "duration": 0.23958333333333334
            },
            {
              "pitch": 36,
              "velocity": 80,
              "position": 9.5,
              "duration": 1.8020833333333333
            },
            {
              "pitch": 36,
              "velocity": 114,
              "position": 11.5,
              "duration": 0.23958333333333334
            },
            {
              "pitch": 36,
              "velocity": 79,
              "position": 12,
              "duration": 0.625
            },
            {
              "pitch": 36,
              "velocity": 80,
              "position": 12.75,
              "duration": 0.23958333333333334
            },
            {
              "pitch": 36,
              "velocity": 79,
              "position": 13.5,
              "duration": 0.9895833333333334
            },
            {
              "pitch": 31,
              "velocity": 67,
              "position": 14.5,
              "duration": 0.25
            },
            {
              "pitch": 31,
              "velocity": 80,
              "position": 15,
              "duration": 0.75
            }
          ]
        },
        "11": {
          "ctab": {
            "srcChannel": 11,
            "name": "guit28l",
            "accType": "CHORD1",
            "editable": false,
            "mutedNotes": [],
            "mutedChords": [],
            "autoStart": false,
            "sourceChordNote": 0,
            "sourceChordType": "Maj",
            "ctb2Low": null,
            "ctb2Main": {
              "ntr": "ROOT_TRANSPOSITION",
              "ntt": "HARMONIC_MINOR",
              "bassOn": false,
              "chordRootUpperLimit": 7,
              "noteLowLimit": 54,
              "noteHighLimit": 65,
              "rtr": "PITCH_SHIFT"
            },
            "ctb2High": null
          },
          "notes": [
            {
              "pitch": 55,
              "velocity": 112,
              "position": 0,
              "duration": 0.7395833333333334
            },
            {
              "pitch": 60,
              "velocity": 112,
              "position": 0.010416666666666666,
              "duration": 0.7291666666666666
            },
            {
              "pitch": 64,
              "velocity": 112,
              "position": 0.020833333333333332,
              "duration": 0.71875
            },
            {
              "pitch": 64,
              "velocity": 80,
              "position": 0.74375,
              "duration": 0.23958333333333334
            },
            {
              "pitch": 60,
              "velocity": 80,
              "position": 0.7541666666666667,
              "duration": 0.22916666666666666
            },
            {
              "pitch": 55,
              "velocity": 80,
              "position": 0.7645833333333333,
              "duration": 0.21875
            },
            {
              "pitch": 55,
              "velocity": 95,
              "position": 0.9958333333333333,
              "duration": 0.4895833333333333
            },
            {
              "pitch": 60,
              "velocity": 95,
              "position": 1.00625,
              "duration": 0.4791666666666667
            },
            {
              "pitch": 64,
              "velocity": 95,
              "position": 1.0166666666666666,
              "duration": 0.46875
            },
            {
              "pitch": 55,
              "velocity": 112,
              "position": 1.5,
              "duration": 1.9895833333333333
            },
            {
              "pitch": 60,
              "velocity": 112,
              "position": 1.5,
              "duration": 1.9895833333333333
            },
            {
              "pitch": 64,
              "velocity": 112,
              "position": 1.5104166666666667,
              "duration": 1.9791666666666667
            },
            {
              "pitch": 55,
              "velocity": 95,
              "position": 3.5,
              "duration": 0.4895833333333333
            },
            {
              "pitch": 60,
              "velocity": 95,
              "position": 3.5104166666666665,
              "duration": 0.4791666666666667
            },
            {
              "pitch": 64,
              "velocity": 95,
              "position": 3.5208333333333335,
              "duration": 0.46875
            },
            {
              "pitch": 55,
              "velocity": 112,
              "position": 4,
              "duration": 0.7395833333333334
            },
            {
              "pitch": 60,
              "velocity": 112,
              "position": 4.010416666666667,
              "duration": 0.7291666666666666
            },
            {
              "pitch": 64,
              "velocity": 112,
              "position": 4.020833333333333,
              "duration": 0.71875
            },
            {
              "pitch": 64,
              "velocity": 76,
              "position": 4.741666666666666,
              "duration": 0.23958333333333334
            },
            {
              "pitch": 60,
              "velocity": 76,
              "position": 4.752083333333333,
              "duration": 0.22916666666666666
            },
            {
              "pitch": 55,
              "velocity": 76,
              "position": 4.7625,
              "duration": 0.21875
            },
            {
              "pitch": 55,
              "velocity": 95,
              "position": 4.991666666666666,
              "duration": 0.4895833333333333
            },
            {
              "pitch": 60,
              "velocity": 95,
              "position": 5.002083333333333,
              "duration": 0.4791666666666667
            },
            {
              "pitch": 64,
              "velocity": 95,
              "position": 5.0125,
              "duration": 0.46875
            },
            {
              "pitch": 57,
              "velocity": 112,
              "position": 5.5,
              "duration": 0.9895833333333334
            },
            {
              "pitch": 60,
              "velocity": 112,
              "position": 5.510416666666667,
              "duration": 0.9791666666666666
            },
            {
              "pitch": 65,
              "velocity": 112,
              "position": 5.520833333333333,
              "duration": 0.96875
            },
            {
              "pitch": 57,
              "velocity": 95,
              "position": 6.5,
              "duration": 0.4895833333333333
            },
            {
              "pitch": 60,
              "velocity": 95,
              "position": 6.510416666666667,
              "duration": 0.4791666666666667
            },
            {
              "pitch": 65,
              "velocity": 95,
              "position": 6.520833333333333,
              "duration": 0.46875
            },
            {
              "pitch": 57,
              "velocity": 112,
              "position": 7,
              "duration": 0.9895833333333334
            },
            {
              "pitch": 60,
              "velocity": 112,
              "position": 7.010416666666667,
              "duration": 0.9791666666666666
            },
            {
              "pitch": 65,
              "velocity": 112,
              "position": 7.020833333333333,
              "duration": 0.96875
            },
            {
              "pitch": 55,
              "velocity": 112,
              "position": 8,
              "duration": 0.7395833333333334
            },
            {
              "pitch": 60,
              "velocity": 112,
              "position": 8.010416666666666,
              "duration": 0.7291666666666666
            },
            {
              "pitch": 64,
              "velocity": 112,
              "position": 8.020833333333334,
              "duration": 0.71875
            },
            {
              "pitch": 64,
              "velocity": 76,
              "position": 8.741666666666667,
              "duration": 0.23958333333333334
            },
            {
              "pitch": 60,
              "velocity": 76,
              "position": 8.752083333333333,
              "duration": 0.22916666666666666
            },
            {
              "pitch": 55,
              "velocity": 76,
              "position": 8.7625,
              "duration": 0.21875
            },
            {
              "pitch": 55,
              "velocity": 95,
              "position": 8.991666666666667,
              "duration": 0.4895833333333333
            },
            {
              "pitch": 60,
              "velocity": 95,
              "position": 9.002083333333333,
              "duration": 0.4791666666666667
            },
            {
              "pitch": 64,
              "velocity": 95,
              "position": 9.0125,
              "duration": 0.46875
            },
            {
              "pitch": 55,
              "velocity": 112,
              "position": 9.5,
              "duration": 1.9895833333333333
            },
            {
              "pitch": 60,
              "velocity": 112,
              "position": 9.5,
              "duration": 1.9895833333333333
            },
            {
              "pitch": 64,
              "velocity": 112,
              "position": 9.510416666666666,
              "duration": 1.9791666666666667
            },
            {
              "pitch": 55,
              "velocity": 95,
              "position": 11.5,
              "duration": 0.4895833333333333
            },
            {
              "pitch": 60,
              "velocity": 95,
              "position": 11.510416666666666,
              "duration": 0.4791666666666667
            },
            {
              "pitch": 64,
              "velocity": 95,
              "position": 11.520833333333334,
              "duration": 0.46875
            },
            {
              "pitch": 55,
              "velocity": 112,
              "position": 12,
              "duration": 0.7395833333333334
            },
            {
              "pitch": 60,
              "velocity": 112,
              "position": 12.010416666666666,
              "duration": 0.7291666666666666
            },
            {
              "pitch": 64,
              "velocity": 112,
              "position": 12.020833333333334,
              "duration": 0.71875
            },
            {
              "pitch": 64,
              "velocity": 76,
              "position": 12.741666666666667,
              "duration": 0.23958333333333334
            },
            {
              "pitch": 60,
              "velocity": 76,
              "position": 12.752083333333333,
              "duration": 0.22916666666666666
            },
            {
              "pitch": 55,
              "velocity": 76,
              "position": 12.7625,
              "duration": 0.21875
            },
            {
              "pitch": 55,
              "velocity": 95,
              "position": 12.991666666666667,
              "duration": 0.4895833333333333
            },
            {
              "pitch": 60,
              "velocity": 95,
              "position": 13.002083333333333,
              "duration": 0.4791666666666667
            },
            {
              "pitch": 64,
              "velocity": 95,
              "position": 13.0125,
              "duration": 0.46875
            },
            {
              "pitch": 57,
              "velocity": 112,
              "position": 13.5,
              "duration": 0.9895833333333334
            },
            {
              "pitch": 60,
              "velocity": 112,
              "position": 13.510416666666666,
              "duration": 0.9791666666666666
            },
            {
              "pitch": 65,
              "velocity": 112,
              "position": 13.520833333333334,
              "duration": 0.96875
            },
            {
              "pitch": 57,
              "velocity": 95,
              "position": 14.5,
              "duration": 0.4895833333333333
            },
            {
              "pitch": 60,
              "velocity": 95,
              "position": 14.510416666666666,
              "duration": 0.4791666666666667
            },
            {
              "pitch": 65,
              "velocity": 95,
              "position": 14.520833333333334,
              "duration": 0.46875
            },
            {
              "pitch": 57,
              "velocity": 112,
              "position": 15,
              "duration": 0.9895833333333334
            },
            {
              "pitch": 60,
              "velocity": 112,
              "position": 15.010416666666666,
              "duration": 0.9791666666666666
            },
            {
              "pitch": 65,
              "velocity": 112,
              "position": 15.020833333333334,
              "duration": 0.96875
            }
          ]
        },
        "12": {
          "ctab": {
            "srcChannel": 12,
            "name": "guit28r",
            "accType": "CHORD2",
            "editable": false,
            "mutedNotes": [],
            "mutedChords": [],
            "autoStart": false,
            "sourceChordNote": 0,
            "sourceChordType": "Maj",
            "ctb2Low": null,
            "ctb2Main": {
              "ntr": "ROOT_TRANSPOSITION",
              "ntt": "HARMONIC_MINOR",
              "bassOn": false,
              "chordRootUpperLimit": 7,
              "noteLowLimit": 56,
              "noteHighLimit": 80,
              "rtr": "PITCH_SHIFT"
            },
            "ctb2High": null
          },
          "notes": [
            {
              "pitch": 55,
              "velocity": 21,
              "position": 0,
              "duration": 0.7395833333333334
            },
            {
              "pitch": 60,
              "velocity": 21,
              "position": 0.010416666666666666,
              "duration": 0.7291666666666666
            },
            {
              "pitch": 52,
              "velocity": 21,
              "position": 0.020833333333333332,
              "duration": 0.71875
            },
            {
              "pitch": 52,
              "velocity": 13,
              "position": 0.74375,
              "duration": 0.7395833333333334
            },
            {
              "pitch": 60,
              "velocity": 13,
              "position": 0.7541666666666667,
              "duration": 0.7291666666666666
            },
            {
              "pitch": 55,
              "velocity": 13,
              "position": 0.7645833333333333,
              "duration": 0.71875
            },
            {
              "pitch": 55,
              "velocity": 21,
              "position": 1.5,
              "duration": 0.9895833333333334
            },
            {
              "pitch": 60,
              "velocity": 21,
              "position": 1.5104166666666667,
              "duration": 0.9791666666666666
            },
            {
              "pitch": 52,
              "velocity": 21,
              "position": 1.5208333333333333,
              "duration": 0.96875
            },
            {
              "pitch": 52,
              "velocity": 13,
              "position": 2.49375,
              "duration": 0.4895833333333333
            },
            {
              "pitch": 60,
              "velocity": 13,
              "position": 2.504166666666667,
              "duration": 0.4791666666666667
            },
            {
              "pitch": 55,
              "velocity": 11,
              "position": 2.5145833333333334,
              "duration": 0.46875
            },
            {
              "pitch": 55,
              "velocity": 11,
              "position": 3,
              "duration": 0.9895833333333334
            },
            {
              "pitch": 60,
              "velocity": 11,
              "position": 3.0104166666666665,
              "duration": 0.9791666666666666
            },
            {
              "pitch": 52,
              "velocity": 11,
              "position": 3.0208333333333335,
              "duration": 0.96875
            },
            {
              "pitch": 55,
              "velocity": 21,
              "position": 4,
              "duration": 0.7395833333333334
            },
            {
              "pitch": 60,
              "velocity": 21,
              "position": 4.010416666666667,
              "duration": 0.7291666666666666
            },
            {
              "pitch": 52,
              "velocity": 21,
              "position": 4.020833333333333,
              "duration": 0.71875
            },
            {
              "pitch": 52,
              "velocity": 13,
              "position": 4.74375,
              "duration": 0.7395833333333334
            },
            {
              "pitch": 60,
              "velocity": 13,
              "position": 4.754166666666666,
              "duration": 0.7291666666666666
            },
            {
              "pitch": 55,
              "velocity": 13,
              "position": 4.764583333333333,
              "duration": 0.71875
            },
            {
              "pitch": 57,
              "velocity": 21,
              "position": 5.5,
              "duration": 0.7395833333333334
            },
            {
              "pitch": 60,
              "velocity": 21,
              "position": 5.510416666666667,
              "duration": 0.7291666666666666
            },
            {
              "pitch": 53,
              "velocity": 21,
              "position": 5.520833333333333,
              "duration": 0.71875
            },
            {
              "pitch": 53,
              "velocity": 13,
              "position": 6.25,
              "duration": 0.7395833333333334
            },
            {
              "pitch": 60,
              "velocity": 13,
              "position": 6.260416666666667,
              "duration": 0.7291666666666666
            },
            {
              "pitch": 57,
              "velocity": 11,
              "position": 6.270833333333333,
              "duration": 0.71875
            },
            {
              "pitch": 57,
              "velocity": 11,
              "position": 7,
              "duration": 0.4895833333333333
            },
            {
              "pitch": 60,
              "velocity": 11,
              "position": 7.010416666666667,
              "duration": 0.4791666666666667
            },
            {
              "pitch": 53,
              "velocity": 11,
              "position": 7.020833333333333,
              "duration": 0.46875
            },
            {
              "pitch": 60,
              "velocity": 13,
              "position": 7.510416666666667,
              "duration": 0.22916666666666666
            },
            {
              "pitch": 57,
              "velocity": 13,
              "position": 7.520833333333333,
              "duration": 0.21875
            },
            {
              "pitch": 53,
              "velocity": 13,
              "position": 7.5,
              "duration": 0.4895833333333333
            },
            {
              "pitch": 57,
              "velocity": 11,
              "position": 7.75,
              "duration": 0.23958333333333334
            },
            {
              "pitch": 60,
              "velocity": 11,
              "position": 7.760416666666667,
              "duration": 0.22916666666666666
            },
            {
              "pitch": 55,
              "velocity": 21,
              "position": 8,
              "duration": 0.7395833333333334
            },
            {
              "pitch": 60,
              "velocity": 21,
              "position": 8.010416666666666,
              "duration": 0.7291666666666666
            },
            {
              "pitch": 52,
              "velocity": 21,
              "position": 8.020833333333334,
              "duration": 0.71875
            },
            {
              "pitch": 52,
              "velocity": 13,
              "position": 8.74375,
              "duration": 0.7395833333333334
            },
            {
              "pitch": 60,
              "velocity": 13,
              "position": 8.754166666666666,
              "duration": 0.7291666666666666
            },
            {
              "pitch": 55,
              "velocity": 13,
              "position": 8.764583333333333,
              "duration": 0.71875
            },
            {
              "pitch": 55,
              "velocity": 21,
              "position": 9.5,
              "duration": 0.9895833333333334
            },
            {
              "pitch": 60,
              "velocity": 21,
              "position": 9.510416666666666,
              "duration": 0.9791666666666666
            },
            {
              "pitch": 52,
              "velocity": 21,
              "position": 9.520833333333334,
              "duration": 0.96875
            },
            {
              "pitch": 52,
              "velocity": 13,
              "position": 10.49375,
              "duration": 0.4895833333333333
            },
            {
              "pitch": 60,
              "velocity": 13,
              "position": 10.504166666666666,
              "duration": 0.4791666666666667
            },
            {
              "pitch": 55,
              "velocity": 11,
              "position": 10.514583333333333,
              "duration": 0.46875
            },
            {
              "pitch": 55,
              "velocity": 11,
              "position": 11,
              "duration": 0.9895833333333334
            },
            {
              "pitch": 60,
              "velocity": 11,
              "position": 11.010416666666666,
              "duration": 0.9791666666666666
            },
            {
              "pitch": 52,
              "velocity": 11,
              "position": 11.020833333333334,
              "duration": 0.96875
            },
            {
              "pitch": 55,
              "velocity": 21,
              "position": 12,
              "duration": 0.7395833333333334
            },
            {
              "pitch": 60,
              "velocity": 21,
              "position": 12.010416666666666,
              "duration": 0.7291666666666666
            },
            {
              "pitch": 52,
              "velocity": 21,
              "position": 12.020833333333334,
              "duration": 0.71875
            },
            {
              "pitch": 52,
              "velocity": 13,
              "position": 12.75,
              "duration": 0.7395833333333334
            },
            {
              "pitch": 60,
              "velocity": 13,
              "position": 12.760416666666666,
              "duration": 0.7291666666666666
            },
            {
              "pitch": 55,
              "velocity": 13,
              "position": 12.770833333333334,
              "duration": 0.71875
            },
            {
              "pitch": 57,
              "velocity": 117,
              "position": 13.5,
              "duration": 1.4895833333333333
            },
            {
              "pitch": 60,
              "velocity": 117,
              "position": 13.510416666666666,
              "duration": 1.4791666666666667
            },
            {
              "pitch": 53,
              "velocity": 117,
              "position": 13.520833333333334,
              "duration": 1.46875
            },
            {
              "pitch": 57,
              "velocity": 11,
              "position": 15,
              "duration": 0.4895833333333333
            },
            {
              "pitch": 60,
              "velocity": 11,
              "position": 15.010416666666666,
              "duration": 0.4791666666666667
            },
            {
              "pitch": 53,
              "velocity": 11,
              "position": 15.020833333333334,
              "duration": 0.46875
            },
            {
              "pitch": 60,
              "velocity": 13,
              "position": 15.510416666666666,
              "duration": 0.22916666666666666
            },
            {
              "pitch": 57,
              "velocity": 13,
              "position": 15.520833333333334,
              "duration": 0.21875
            },
            {
              "pitch": 53,
              "velocity": 13,
              "position": 15.5,
              "duration": 0.4895833333333333
            },
            {
              "pitch": 57,
              "velocity": 11,
              "position": 15.75,
              "duration": 0.23958333333333334
            },
            {
              "pitch": 60,
              "velocity": 11,
              "position": 15.760416666666666,
              "duration": 0.22916666666666666
            }
          ]
        },
        "13": {
          "ctab": {
            "srcChannel": 13,
            "name": "strng",
            "accType": "PAD",
            "editable": false,
            "mutedNotes": [],
            "mutedChords": [],
            "autoStart": false,
            "sourceChordNote": 0,
            "sourceChordType": "Maj",
            "ctb2Low": null,
            "ctb2Main": {
              "ntr": "ROOT_TRANSPOSITION",
              "ntt": "HARMONIC_MINOR",
              "bassOn": false,
              "chordRootUpperLimit": 6,
              "noteLowLimit": 55,
              "noteHighLimit": 126,
              "rtr": "PITCH_SHIFT"
            },
            "ctb2High": null
          },
          "notes": []
        },
        "14": {
          "ctab": {
            "srcChannel": 14,
            "name": "eguit",
            "accType": "PHRASE1",
            "editable": false,
            "mutedNotes": [],
            "mutedChords": [],
            "autoStart": false,
            "sourceChordNote": 0,
            "sourceChordType": "Maj",
            "ctb2Low": null,
            "ctb2Main": {
              "ntr": "ROOT_TRANSPOSITION",
              "ntt": "HARMONIC_MINOR",
              "bassOn": false,
              "chordRootUpperLimit": 7,
              "noteLowLimit": 0,
              "noteHighLimit": 66,
              "rtr": "PITCH_SHIFT"
            },
            "ctb2High": null
          },
          "notes": []
        }
      }
    },
    "Ending_B": {
      "type": "Ending_B",
      "sizeInBeats": 8,
      "channels": {
        "6": {
          "ctab": {
            "srcChannel": 6,
            "name": "guit28r",
            "accType": "CHORD2",
            "editable": false,
            "mutedNotes": [],
            "mutedChords": [],
            "autoStart": false,
            "sourceChordNote": 0,
            "sourceChordType": "Maj",
            "ctb2Low": null,
            "ctb2Main": {
              "ntr": "ROOT_FIXED",
              "ntt": "BYPASS",
              "bassOn": false,
              "chordRootUpperLimit": 7,
              "noteLowLimit": 0,
              "noteHighLimit": 79,
              "rtr": "PITCH_SHIFT"
            },
            "ctb2High": null
          },
          "notes": [
            {
              "pitch": 100,
              "velocity": 87,
              "position": 0,
              "duration": 0.23958333333333334
            },
            {
              "pitch": 101,
              "velocity": 89,
              "position": 0.5,
              "duration": 0.23958333333333334
            },
            {
              "pitch": 100,
              "velocity": 87,
              "position": 1,
              "duration": 0.23958333333333334
            },
            {
              "pitch": 100,
              "velocity": 80,
              "position": 1.5,
              "duration": 0.23958333333333334
            },
            {
              "pitch": 100,
              "velocity": 80,
              "position": 2.5,
              "duration": 0.23958333333333334
            },
            {
              "pitch": 100,
              "velocity": 87,
              "position": 3,
              "duration": 0.23958333333333334
            },
            {
              "pitch": 101,
              "velocity": 71,
              "position": 3.5,
              "duration": 0.23958333333333334
            },
            {
              "pitch": 100,
              "velocity": 87,
              "position": 4,
              "duration": 0.23958333333333334
            }
          ]
        },
        "8": {
          "ctab": {
            "srcChannel": 8,
            "name": "StdDr01",
            "accType": "SUBRHYTHM",
            "editable": false,
            "mutedNotes": [],
            "mutedChords": [],
            "autoStart": true,
            "sourceChordNote": 0,
            "sourceChordType": "Maj7",
            "ctb2Low": null,
            "ctb2Main": {
              "ntr": "ROOT_FIXED",
              "ntt": "BYPASS",
              "bassOn": false,
              "chordRootUpperLimit": 6,
              "noteLowLimit": 0,
              "noteHighLimit": 127,
              "rtr": "PITCH_SHIFT"
            },
            "ctb2High": null
          },
          "notes": [
            {
              "pitch": 82,
              "velocity": 78,
              "position": 0,
              "duration": 0.020833333333333332
            },
            {
              "pitch": 82,
              "velocity": 51,
              "position": 0.25,
              "duration": 0.020833333333333332
            },
            {
              "pitch": 82,
              "velocity": 51,
              "position": 0.5,
              "duration": 0.020833333333333332
            },
            {
              "pitch": 82,
              "velocity": 58,
              "position": 0.75,
              "duration": 0.020833333333333332
            },
            {
              "pitch": 82,
              "velocity": 78,
              "position": 1,
              "duration": 0.020833333333333332
            },
            {
              "pitch": 82,
              "velocity": 51,
              "position": 1.25,
              "duration": 0.020833333333333332
            },
            {
              "pitch": 82,
              "velocity": 51,
              "position": 1.5,
              "duration": 0.020833333333333332
            },
            {
              "pitch": 82,
              "velocity": 58,
              "position": 1.75,
              "duration": 0.020833333333333332
            },
            {
              "pitch": 82,
              "velocity": 78,
              "position": 2,
              "duration": 0.020833333333333332
            },
            {
              "pitch": 82,
              "velocity": 51,
              "position": 2.25,
              "duration": 0.020833333333333332
            },
            {
              "pitch": 63,
              "velocity": 99,
              "position": 2.5,
              "duration": 0.020833333333333332
            },
            {
              "pitch": 82,
              "velocity": 51,
              "position": 2.5,
              "duration": 0.020833333333333332
            },
            {
              "pitch": 82,
              "velocity": 58,
              "position": 2.75,
              "duration": 0.020833333333333332
            },
            {
              "pitch": 64,
              "velocity": 74,
              "position": 3,
              "duration": 0.020833333333333332
            },
            {
              "pitch": 82,
              "velocity": 78,
              "position": 3,
              "duration": 0.020833333333333332
            },
            {
              "pitch": 82,
              "velocity": 51,
              "position": 3.25,
              "duration": 0.020833333333333332
            },
            {
              "pitch": 64,
              "velocity": 76,
              "position": 3.5,
              "duration": 0.020833333333333332
            },
            {
              "pitch": 82,
              "velocity": 51,
              "position": 3.5,
              "duration": 0.020833333333333332
            },
            {
              "pitch": 82,
              "velocity": 58,
              "position": 3.75,
              "duration": 0.020833333333333332
            },
            {
              "pitch": 82,
              "velocity": 78,
              "position": 4,
              "duration": 0.020833333333333332
            }
          ]
        },
        "9": {
          "ctab": {
            "srcChannel": 9,
            "name": "StdDr02",
            "accType": "RHYTHM",
            "editable": false,
            "mutedNotes": [],
            "mutedChords": [],
            "autoStart": true,
            "sourceChordNote": 0,
            "sourceChordType": "Maj7",
            "ctb2Low": null,
            "ctb2Main": {
              "ntr": "ROOT_FIXED",
              "ntt": "BYPASS",
              "bassOn": false,
              "chordRootUpperLimit": 6,
              "noteLowLimit": 0,
              "noteHighLimit": 127,
              "rtr": "PITCH_SHIFT"
            },
            "ctb2High": null
          },
          "notes": [
            {
              "pitch": 49,
              "velocity": 50,
              "position": 0,
              "duration": 0.010416666666666666
            },
            {
              "pitch": 36,
              "velocity": 100,
              "position": 0,
              "duration": 0.020833333333333332
            },
            {
              "pitch": 42,
              "velocity": 56,
              "position": 0.5,
              "duration": 0.020833333333333332
            },
            {
              "pitch": 36,
              "velocity": 74,
              "position": 0.75,
              "duration": 0.020833333333333332
            },
            {
              "pitch": 42,
              "velocity": 39,
              "position": 0.75,
              "duration": 0.020833333333333332
            },
            {
              "pitch": 40,
              "velocity": 90,
              "position": 1,
              "duration": 0.020833333333333332
            },
            {
              "pitch": 42,
              "velocity": 84,
              "position": 1,
              "duration": 0.020833333333333332
            },
            {
              "pitch": 36,
              "velocity": 100,
              "position": 1.5,
              "duration": 0.020833333333333332
            },
            {
              "pitch": 55,
              "velocity": 58,
              "position": 1.5,
              "duration": 0.020833333333333332
            },
            {
              "pitch": 36,
              "velocity": 74,
              "position": 2.5,
              "duration": 0.020833333333333332
            },
            {
              "pitch": 42,
              "velocity": 51,
              "position": 2.5,
              "duration": 0.020833333333333332
            },
            {
              "pitch": 40,
              "velocity": 39,
              "position": 2.75,
              "duration": 0.020833333333333332
            },
            {
              "pitch": 42,
              "velocity": 34,
              "position": 2.75,
              "duration": 0.020833333333333332
            },
            {
              "pitch": 40,
              "velocity": 39,
              "position": 2.875,
              "duration": 0.020833333333333332
            },
            {
              "pitch": 40,
              "velocity": 90,
              "position": 3,
              "duration": 0.020833333333333332
            },
            {
              "pitch": 46,
              "velocity": 50,
              "position": 3,
              "duration": 0.020833333333333332
            },
            {
              "pitch": 40,
              "velocity": 84,
              "position": 3.3125,
              "duration": 0.020833333333333332
            },
            {
              "pitch": 45,
              "velocity": 82,
              "position": 3.5,
              "duration": 0.020833333333333332
            },
            {
              "pitch": 36,
              "velocity": 100,
              "position": 4,
              "duration": 0.020833333333333332
            },
            {
              "pitch": 49,
              "velocity": 50,
              "position": 4,
              "duration": 0.020833333333333332
            }
          ]
        },
        "10": {
          "ctab": {
            "srcChannel": 10,
            "name": "FingBs34",
            "accType": "BASS",
            "editable": false,
            "mutedNotes": [],
            "mutedChords": [],
            "autoStart": false,
            "sourceChordNote": 0,
            "sourceChordType": "Maj",
            "ctb2Low": null,
            "ctb2Main": {
              "ntr": "ROOT_TRANSPOSITION",
              "ntt": "HARMONIC_MINOR",
              "bassOn": false,
              "chordRootUpperLimit": 8,
              "noteLowLimit": 28,
              "noteHighLimit": 47,
              "rtr": "PITCH_SHIFT"
            },
            "ctb2High": null
          },
          "notes": [
            {
              "pitch": 24,
              "velocity": 80,
              "position": 0,
              "duration": 0.7395833333333334
            },
            {
              "pitch": 24,
              "velocity": 114,
              "position": 0.75,
              "duration": 0.23958333333333334
            },
            {
              "pitch": 24,
              "velocity": 80,
              "position": 1.5,
              "duration": 1.4895833333333333
            },
            {
              "pitch": 31,
              "velocity": 80,
              "position": 3,
              "duration": 1
            },
            {
              "pitch": 24,
              "velocity": 80,
              "position": 4,
              "duration": 3
            }
          ]
        },
        "11": {
          "ctab": {
            "srcChannel": 11,
            "name": "guit28l",
            "accType": "CHORD1",
            "editable": false,
            "mutedNotes": [],
            "mutedChords": [],
            "autoStart": false,
            "sourceChordNote": 0,
            "sourceChordType": "Maj",
            "ctb2Low": null,
            "ctb2Main": {
              "ntr": "ROOT_TRANSPOSITION",
              "ntt": "HARMONIC_MINOR",
              "bassOn": false,
              "chordRootUpperLimit": 7,
              "noteLowLimit": 54,
              "noteHighLimit": 65,
              "rtr": "PITCH_SHIFT"
            },
            "ctb2High": null
          },
          "notes": [
            {
              "pitch": 55,
              "velocity": 96,
              "position": 0,
              "duration": 1.4895833333333333
            },
            {
              "pitch": 60,
              "velocity": 96,
              "position": 0.010416666666666666,
              "duration": 1.4791666666666667
            },
            {
              "pitch": 64,
              "velocity": 96,
              "position": 0.03125,
              "duration": 1.4583333333333333
            },
            {
              "pitch": 55,
              "velocity": 95,
              "position": 1.5,
              "duration": 1
            },
            {
              "pitch": 60,
              "velocity": 95,
              "position": 1.5104166666666667,
              "duration": 0.9895833333333334
            },
            {
              "pitch": 65,
              "velocity": 91,
              "position": 1.53125,
              "duration": 0.96875
            },
            {
              "pitch": 60,
              "velocity": 82,
              "position": 2.5104166666666665,
              "duration": 0.4791666666666667
            },
            {
              "pitch": 55,
              "velocity": 82,
              "position": 2.5208333333333335,
              "duration": 0.46875
            },
            {
              "pitch": 65,
              "velocity": 82,
              "position": 2.5208333333333335,
              "duration": 0.46875
            },
            {
              "pitch": 55,
              "velocity": 92,
              "position": 3,
              "duration": 0.9895833333333334
            },
            {
              "pitch": 60,
              "velocity": 92,
              "position": 3.0104166666666665,
              "duration": 0.9791666666666666
            },
            {
              "pitch": 62,
              "velocity": 92,
              "position": 3.03125,
              "duration": 0.9583333333333334
            },
            {
              "pitch": 55,
              "velocity": 96,
              "position": 4,
              "duration": 2.9895833333333335
            },
            {
              "pitch": 60,
              "velocity": 96,
              "position": 4.010416666666667,
              "duration": 2.9791666666666665
            },
            {
              "pitch": 64,
              "velocity": 96,
              "position": 4.020833333333333,
              "duration": 2.96875
            }
          ]
        },
        "12": {
          "ctab": {
            "srcChannel": 12,
            "name": "guit28r",
            "accType": "CHORD2",
            "editable": false,
            "mutedNotes": [],
            "mutedChords": [],
            "autoStart": false,
            "sourceChordNote": 0,
            "sourceChordType": "Maj",
            "ctb2Low": null,
            "ctb2Main": {
              "ntr": "ROOT_TRANSPOSITION",
              "ntt": "HARMONIC_MINOR",
              "bassOn": false,
              "chordRootUpperLimit": 7,
              "noteLowLimit": 56,
              "noteHighLimit": 80,
              "rtr": "PITCH_SHIFT"
            },
            "ctb2High": null
          },
          "notes": [
            {
              "pitch": 52,
              "velocity": 20,
              "position": 0,
              "duration": 0.4895833333333333
            },
            {
              "pitch": 55,
              "velocity": 20,
              "position": 0.010416666666666666,
              "duration": 0.4791666666666667
            },
            {
              "pitch": 48,
              "velocity": 20,
              "position": 0.020833333333333332,
              "duration": 0.46875
            },
            {
              "pitch": 48,
              "velocity": 19,
              "position": 0.5,
              "duration": 0.4895833333333333
            },
            {
              "pitch": 55,
              "velocity": 19,
              "position": 0.5104166666666666,
              "duration": 0.4791666666666667
            },
            {
              "pitch": 52,
              "velocity": 19,
              "position": 0.5208333333333334,
              "duration": 0.46875
            },
            {
              "pitch": 52,
              "velocity": 20,
              "position": 1,
              "duration": 0.4895833333333333
            },
            {
              "pitch": 55,
              "velocity": 20,
              "position": 1.0104166666666667,
              "duration": 0.4791666666666667
            },
            {
              "pitch": 48,
              "velocity": 20,
              "position": 1.0208333333333333,
              "duration": 0.46875
            },
            {
              "pitch": 48,
              "velocity": 19,
              "position": 1.5,
              "duration": 0.9895833333333334
            },
            {
              "pitch": 55,
              "velocity": 19,
              "position": 1.5104166666666667,
              "duration": 0.9791666666666666
            },
            {
              "pitch": 53,
              "velocity": 19,
              "position": 1.5208333333333333,
              "duration": 0.96875
            },
            {
              "pitch": 48,
              "velocity": 19,
              "position": 2.5,
              "duration": 0.4895833333333333
            },
            {
              "pitch": 55,
              "velocity": 19,
              "position": 2.5104166666666665,
              "duration": 0.4791666666666667
            },
            {
              "pitch": 53,
              "velocity": 19,
              "position": 2.5208333333333335,
              "duration": 0.46875
            },
            {
              "pitch": 53,
              "velocity": 20,
              "position": 3,
              "duration": 0.4895833333333333
            },
            {
              "pitch": 55,
              "velocity": 20,
              "position": 3.0104166666666665,
              "duration": 0.4791666666666667
            },
            {
              "pitch": 48,
              "velocity": 20,
              "position": 3.0208333333333335,
              "duration": 0.46875
            },
            {
              "pitch": 48,
              "velocity": 10,
              "position": 3.5,
              "duration": 0.4895833333333333
            },
            {
              "pitch": 55,
              "velocity": 10,
              "position": 3.5104166666666665,
              "duration": 0.4791666666666667
            },
            {
              "pitch": 50,
              "velocity": 10,
              "position": 3.5208333333333335,
              "duration": 0.46875
            },
            {
              "pitch": 52,
              "velocity": 20,
              "position": 4,
              "duration": 3
            },
            {
              "pitch": 55,
              "velocity": 20,
              "position": 4.010416666666667,
              "duration": 2.9895833333333335
            },
            {
              "pitch": 48,
              "velocity": 20,
              "position": 4.020833333333333,
              "duration": 2.9791666666666665
            }
          ]
        },
        "13": {
          "ctab": {
            "srcChannel": 13,
            "name": "strng",
            "accType": "PAD",
            "editable": false,
            "mutedNotes": [],
            "mutedChords": [],
            "autoStart": false,
            "sourceChordNote": 0,
            "sourceChordType": "Maj",
            "ctb2Low": null,
            "ctb2Main": {
              "ntr": "ROOT_TRANSPOSITION",
              "ntt": "HARMONIC_MINOR",
              "bassOn": false,
              "chordRootUpperLimit": 6,
              "noteLowLimit": 55,
              "noteHighLimit": 126,
              "rtr": "PITCH_SHIFT"
            },
            "ctb2High": null
          },
          "notes": [
            {
              "pitch": 52,
              "velocity": 89,
              "position": 0,
              "duration": 1.4375
            },
            {
              "pitch": 53,
              "velocity": 89,
              "position": 1.5,
              "duration": 1.5
            },
            {
              "pitch": 50,
              "velocity": 89,
              "position": 3,
              "duration": 1
            },
            {
              "pitch": 52,
              "velocity": 89,
              "position": 4,
              "duration": 3
            },
            {
              "pitch": 55,
              "velocity": 89,
              "position": 0,
              "duration": 7
            },
            {
              "pitch": 60,
              "velocity": 89,
              "position": 0,
              "duration": 7
            }
          ]
        },
        "14": {
          "ctab": {
            "srcChannel": 14,
            "name": "eguit",
            "accType": "PHRASE1",
            "editable": false,
            "mutedNotes": [],
            "mutedChords": [],
            "autoStart": false,
            "sourceChordNote": 0,
            "sourceChordType": "Maj",
            "ctb2Low": null,
            "ctb2Main": {
              "ntr": "ROOT_TRANSPOSITION",
              "ntt": "HARMONIC_MINOR",
              "bassOn": false,
              "chordRootUpperLimit": 7,
              "noteLowLimit": 0,
              "noteHighLimit": 66,
              "rtr": "PITCH_SHIFT"
            },
            "ctb2High": null
          },
          "notes": []
        }
      }
    },
    "Ending_C": {
      "type": "Ending_C",
      "sizeInBeats": 12,
      "channels": {
        "6": {
          "ctab": {
            "srcChannel": 6,
            "name": "guit28r",
            "accType": "CHORD2",
            "editable": false,
            "mutedNotes": [],
            "mutedChords": [],
            "autoStart": false,
            "sourceChordNote": 0,
            "sourceChordType": "Maj",
            "ctb2Low": null,
            "ctb2Main": {
              "ntr": "ROOT_FIXED",
              "ntt": "BYPASS",
              "bassOn": false,
              "chordRootUpperLimit": 7,
              "noteLowLimit": 0,
              "noteHighLimit": 79,
              "rtr": "PITCH_SHIFT"
            },
            "ctb2High": null
          },
          "notes": [
            {
              "pitch": 100,
              "velocity": 88,
              "position": 0,
              "duration": 0.25
            },
            {
              "pitch": 99,
              "velocity": 74,
              "position": 0.75,
              "duration": 0.25
            },
            {
              "pitch": 100,
              "velocity": 82,
              "position": 1,
              "duration": 0.23958333333333334
            },
            {
              "pitch": 100,
              "velocity": 88,
              "position": 1.5,
              "duration": 0.23958333333333334
            },
            {
              "pitch": 99,
              "velocity": 78,
              "position": 2.5,
              "duration": 0.23958333333333334
            },
            {
              "pitch": 100,
              "velocity": 88,
              "position": 3,
              "duration": 0.23958333333333334
            },
            {
              "pitch": 100,
              "velocity": 96,
              "position": 8,
              "duration": 0.23958333333333334
            }
          ]
        },
        "8": {
          "ctab": {
            "srcChannel": 8,
            "name": "StdDr01",
            "accType": "SUBRHYTHM",
            "editable": false,
            "mutedNotes": [],
            "mutedChords": [],
            "autoStart": true,
            "sourceChordNote": 0,
            "sourceChordType": "Maj7",
            "ctb2Low": null,
            "ctb2Main": {
              "ntr": "ROOT_FIXED",
              "ntt": "BYPASS",
              "bassOn": false,
              "chordRootUpperLimit": 6,
              "noteLowLimit": 0,
              "noteHighLimit": 127,
              "rtr": "PITCH_SHIFT"
            },
            "ctb2High": null
          },
          "notes": []
        },
        "9": {
          "ctab": {
            "srcChannel": 9,
            "name": "StdDr02",
            "accType": "RHYTHM",
            "editable": false,
            "mutedNotes": [],
            "mutedChords": [],
            "autoStart": true,
            "sourceChordNote": 0,
            "sourceChordType": "Maj7",
            "ctb2Low": null,
            "ctb2Main": {
              "ntr": "ROOT_FIXED",
              "ntt": "BYPASS",
              "bassOn": false,
              "chordRootUpperLimit": 6,
              "noteLowLimit": 0,
              "noteHighLimit": 127,
              "rtr": "PITCH_SHIFT"
            },
            "ctb2High": null
          },
          "notes": [
            {
              "pitch": 57,
              "velocity": 50,
              "position": 0,
              "duration": 0.010416666666666666
            },
            {
              "pitch": 36,
              "velocity": 100,
              "position": 0,
              "duration": 0.020833333333333332
            },
            {
              "pitch": 54,
              "velocity": 70,
              "position": 0,
              "duration": 0.020833333333333332
            },
            {
              "pitch": 54,
              "velocity": 46,
              "position": 0.25,
              "duration": 0.020833333333333332
            },
            {
              "pitch": 46,
              "velocity": 58,
              "position": 0.5,
              "duration": 0.020833333333333332
            },
            {
              "pitch": 54,
              "velocity": 33,
              "position": 0.5,
              "duration": 0.020833333333333332
            },
            {
              "pitch": 36,
              "velocity": 77,
              "position": 0.75,
              "duration": 0.020833333333333332
            },
            {
              "pitch": 54,
              "velocity": 44,
              "position": 0.75,
              "duration": 0.020833333333333332
            },
            {
              "pitch": 40,
              "velocity": 90,
              "position": 1,
              "duration": 0.020833333333333332
            },
            {
              "pitch": 54,
              "velocity": 71,
              "position": 1,
              "duration": 0.020833333333333332
            },
            {
              "pitch": 54,
              "velocity": 44,
              "position": 1.25,
              "duration": 0.020833333333333332
            },
            {
              "pitch": 36,
              "velocity": 100,
              "position": 1.5,
              "duration": 0.020833333333333332
            },
            {
              "pitch": 44,
              "velocity": 55,
              "position": 1.5,
              "duration": 0.020833333333333332
            },
            {
              "pitch": 54,
              "velocity": 28,
              "position": 1.5,
              "duration": 0.020833333333333332
            },
            {
              "pitch": 57,
              "velocity": 50,
              "position": 1.5,
              "duration": 0.020833333333333332
            },
            {
              "pitch": 54,
              "velocity": 39,
              "position": 1.75,
              "duration": 0.020833333333333332
            },
            {
              "pitch": 44,
              "velocity": 55,
              "position": 2,
              "duration": 0.020833333333333332
            },
            {
              "pitch": 54,
              "velocity": 70,
              "position": 2,
              "duration": 0.020833333333333332
            },
            {
              "pitch": 54,
              "velocity": 55,
              "position": 2.25,
              "duration": 0.020833333333333332
            },
            {
              "pitch": 36,
              "velocity": 88,
              "position": 2.5,
              "duration": 0.020833333333333332
            },
            {
              "pitch": 44,
              "velocity": 55,
              "position": 2.5,
              "duration": 0.020833333333333332
            },
            {
              "pitch": 54,
              "velocity": 25,
              "position": 2.5,
              "duration": 0.020833333333333332
            },
            {
              "pitch": 40,
              "velocity": 38,
              "position": 2.6875,
              "duration": 0.020833333333333332
            },
            {
              "pitch": 54,
              "velocity": 42,
              "position": 2.75,
              "duration": 0.020833333333333332
            },
            {
              "pitch": 40,
              "velocity": 52,
              "position": 2.8333333333333335,
              "duration": 0.020833333333333332
            },
            {
              "pitch": 40,
              "velocity": 90,
              "position": 3,
              "duration": 0.020833333333333332
            },
            {
              "pitch": 44,
              "velocity": 55,
              "position": 3,
              "duration": 0.020833333333333332
            },
            {
              "pitch": 54,
              "velocity": 71,
              "position": 3,
              "duration": 0.020833333333333332
            },
            {
              "pitch": 47,
              "velocity": 72,
              "position": 3.25,
              "duration": 0.020833333333333332
            },
            {
              "pitch": 54,
              "velocity": 61,
              "position": 3.25,
              "duration": 0.020833333333333332
            },
            {
              "pitch": 44,
              "velocity": 55,
              "position": 3.5,
              "duration": 0.020833333333333332
            },
            {
              "pitch": 45,
              "velocity": 74,
              "position": 3.5,
              "duration": 0.020833333333333332
            },
            {
              "pitch": 54,
              "velocity": 31,
              "position": 3.5,
              "duration": 0.020833333333333332
            },
            {
              "pitch": 54,
              "velocity": 62,
              "position": 3.75,
              "duration": 0.020833333333333332
            },
            {
              "pitch": 36,
              "velocity": 90,
              "position": 4,
              "duration": 0.020833333333333332
            },
            {
              "pitch": 44,
              "velocity": 55,
              "position": 4,
              "duration": 0.020833333333333332
            },
            {
              "pitch": 49,
              "velocity": 50,
              "position": 4,
              "duration": 0.020833333333333332
            },
            {
              "pitch": 54,
              "velocity": 67,
              "position": 4,
              "duration": 0.020833333333333332
            },
            {
              "pitch": 54,
              "velocity": 43,
              "position": 4.25,
              "duration": 0.020833333333333332
            },
            {
              "pitch": 44,
              "velocity": 55,
              "position": 4.5,
              "duration": 0.020833333333333332
            },
            {
              "pitch": 54,
              "velocity": 30,
              "position": 4.5,
              "duration": 0.020833333333333332
            },
            {
              "pitch": 40,
              "velocity": 90,
              "position": 4.75,
              "duration": 0.020833333333333332
            },
            {
              "pitch": 54,
              "velocity": 41,
              "position": 4.75,
              "duration": 0.020833333333333332
            },
            {
              "pitch": 44,
              "velocity": 55,
              "position": 5,
              "duration": 0.020833333333333332
            },
            {
              "pitch": 54,
              "velocity": 68,
              "position": 5,
              "duration": 0.020833333333333332
            },
            {
              "pitch": 36,
              "velocity": 64,
              "position": 5.25,
              "duration": 0.020833333333333332
            },
            {
              "pitch": 54,
              "velocity": 41,
              "position": 5.25,
              "duration": 0.020833333333333332
            },
            {
              "pitch": 36,
              "velocity": 95,
              "position": 5.5,
              "duration": 0.020833333333333332
            },
            {
              "pitch": 44,
              "velocity": 55,
              "position": 5.5,
              "duration": 0.020833333333333332
            },
            {
              "pitch": 54,
              "velocity": 25,
              "position": 5.5,
              "duration": 0.020833333333333332
            },
            {
              "pitch": 55,
              "velocity": 55,
              "position": 5.5,
              "duration": 0.020833333333333332
            },
            {
              "pitch": 54,
              "velocity": 36,
              "position": 5.75,
              "duration": 0.020833333333333332
            },
            {
              "pitch": 44,
              "velocity": 55,
              "position": 6,
              "duration": 0.020833333333333332
            },
            {
              "pitch": 54,
              "velocity": 67,
              "position": 6,
              "duration": 0.020833333333333332
            },
            {
              "pitch": 54,
              "velocity": 52,
              "position": 6.25,
              "duration": 0.020833333333333332
            },
            {
              "pitch": 36,
              "velocity": 79,
              "position": 6.5,
              "duration": 0.020833333333333332
            },
            {
              "pitch": 40,
              "velocity": 70,
              "position": 6.5,
              "duration": 0.020833333333333332
            },
            {
              "pitch": 44,
              "velocity": 55,
              "position": 6.5,
              "duration": 0.020833333333333332
            },
            {
              "pitch": 54,
              "velocity": 17,
              "position": 6.5,
              "duration": 0.020833333333333332
            },
            {
              "pitch": 40,
              "velocity": 38,
              "position": 6.6875,
              "duration": 0.020833333333333332
            },
            {
              "pitch": 54,
              "velocity": 34,
              "position": 6.75,
              "duration": 0.020833333333333332
            },
            {
              "pitch": 40,
              "velocity": 52,
              "position": 6.833333333333333,
              "duration": 0.020833333333333332
            },
            {
              "pitch": 40,
              "velocity": 90,
              "position": 7,
              "duration": 0.020833333333333332
            },
            {
              "pitch": 44,
              "velocity": 55,
              "position": 7,
              "duration": 0.020833333333333332
            },
            {
              "pitch": 54,
              "velocity": 63,
              "position": 7,
              "duration": 0.020833333333333332
            },
            {
              "pitch": 40,
              "velocity": 70,
              "position": 7.25,
              "duration": 0.020833333333333332
            },
            {
              "pitch": 54,
              "velocity": 53,
              "position": 7.25,
              "duration": 0.020833333333333332
            },
            {
              "pitch": 36,
              "velocity": 79,
              "position": 7.5,
              "duration": 0.020833333333333332
            },
            {
              "pitch": 44,
              "velocity": 55,
              "position": 7.5,
              "duration": 0.020833333333333332
            },
            {
              "pitch": 54,
              "velocity": 23,
              "position": 7.5,
              "duration": 0.020833333333333332
            },
            {
              "pitch": 54,
              "velocity": 57,
              "position": 7.75,
              "duration": 0.020833333333333332
            },
            {
              "pitch": 36,
              "velocity": 95,
              "position": 8,
              "duration": 0.020833333333333332
            },
            {
              "pitch": 44,
              "velocity": 55,
              "position": 8,
              "duration": 0.020833333333333332
            },
            {
              "pitch": 49,
              "velocity": 50,
              "position": 8,
              "duration": 0.020833333333333332
            }
          ]
        },
        "10": {
          "ctab": {
            "srcChannel": 10,
            "name": "FingBs34",
            "accType": "BASS",
            "editable": false,
            "mutedNotes": [],
            "mutedChords": [],
            "autoStart": false,
            "sourceChordNote": 0,
            "sourceChordType": "Maj",
            "ctb2Low": null,
            "ctb2Main": {
              "ntr": "ROOT_TRANSPOSITION",
              "ntt": "HARMONIC_MINOR",
              "bassOn": false,
              "chordRootUpperLimit": 8,
              "noteLowLimit": 28,
              "noteHighLimit": 47,
              "rtr": "PITCH_SHIFT"
            },
            "ctb2High": null
          },
          "notes": [
            {
              "pitch": 36,
              "velocity": 80,
              "position": 0,
              "duration": 0.6145833333333334
            },
            {
              "pitch": 36,
              "velocity": 114,
              "position": 0.75,
              "duration": 0.23958333333333334
            },
            {
              "pitch": 36,
              "velocity": 80,
              "position": 1.5,
              "duration": 1.6354166666666667
            },
            {
              "pitch": 31,
              "velocity": 114,
              "position": 3.5,
              "duration": 0.23958333333333334
            },
            {
              "pitch": 33,
              "velocity": 60,
              "position": 3.75,
              "duration": 0.25
            },
            {
              "pitch": 34,
              "velocity": 80,
              "position": 4,
              "duration": 1.3958333333333333
            },
            {
              "pitch": 33,
              "velocity": 80,
              "position": 5.5,
              "duration": 1.3333333333333333
            },
            {
              "pitch": 29,
              "velocity": 80,
              "position": 7,
              "duration": 0.8645833333333334
            },
            {
              "pitch": 24,
              "velocity": 80,
              "position": 8,
              "duration": 3.625
            }
          ]
        },
        "11": {
          "ctab": {
            "srcChannel": 11,
            "name": "guit28l",
            "accType": "CHORD1",
            "editable": false,
            "mutedNotes": [],
            "mutedChords": [],
            "autoStart": false,
            "sourceChordNote": 0,
            "sourceChordType": "Maj",
            "ctb2Low": null,
            "ctb2Main": {
              "ntr": "ROOT_TRANSPOSITION",
              "ntt": "HARMONIC_MINOR",
              "bassOn": false,
              "chordRootUpperLimit": 7,
              "noteLowLimit": 54,
              "noteHighLimit": 65,
              "rtr": "PITCH_SHIFT"
            },
            "ctb2High": null
          },
          "notes": [
            {
              "pitch": 55,
              "velocity": 101,
              "position": 0,
              "duration": 0.23958333333333334
            },
            {
              "pitch": 60,
              "velocity": 101,
              "position": 0,
              "duration": 0.23958333333333334
            },
            {
              "pitch": 64,
              "velocity": 101,
              "position": 0.010416666666666666,
              "duration": 0.22916666666666666
            },
            {
              "pitch": 64,
              "velocity": 80,
              "position": 0.25,
              "duration": 0.4895833333333333
            },
            {
              "pitch": 60,
              "velocity": 80,
              "position": 0.2604166666666667,
              "duration": 0.4791666666666667
            },
            {
              "pitch": 55,
              "velocity": 80,
              "position": 0.2708333333333333,
              "duration": 0.46875
            },
            {
              "pitch": 64,
              "velocity": 72,
              "position": 0.75,
              "duration": 0.23958333333333334
            },
            {
              "pitch": 60,
              "velocity": 72,
              "position": 0.7604166666666666,
              "duration": 0.22916666666666666
            },
            {
              "pitch": 55,
              "velocity": 72,
              "position": 0.7708333333333334,
              "duration": 0.21875
            },
            {
              "pitch": 55,
              "velocity": 80,
              "position": 1,
              "duration": 0.4895833333333333
            },
            {
              "pitch": 60,
              "velocity": 80,
              "position": 1.0104166666666667,
              "duration": 0.4791666666666667
            },
            {
              "pitch": 64,
              "velocity": 80,
              "position": 1.0208333333333333,
              "duration": 0.46875
            },
            {
              "pitch": 55,
              "velocity": 100,
              "position": 1.5,
              "duration": 0.7395833333333334
            },
            {
              "pitch": 60,
              "velocity": 100,
              "position": 1.5,
              "duration": 0.7395833333333334
            },
            {
              "pitch": 64,
              "velocity": 100,
              "position": 1.5104166666666667,
              "duration": 0.7291666666666666
            },
            {
              "pitch": 64,
              "velocity": 76,
              "position": 2.25,
              "duration": 0.23958333333333334
            },
            {
              "pitch": 60,
              "velocity": 76,
              "position": 2.2604166666666665,
              "duration": 0.22916666666666666
            },
            {
              "pitch": 55,
              "velocity": 76,
              "position": 2.2708333333333335,
              "duration": 0.21875
            },
            {
              "pitch": 55,
              "velocity": 69,
              "position": 2.5,
              "duration": 0.23958333333333334
            },
            {
              "pitch": 60,
              "velocity": 69,
              "position": 2.5104166666666665,
              "duration": 0.22916666666666666
            },
            {
              "pitch": 64,
              "velocity": 69,
              "position": 2.5208333333333335,
              "duration": 0.21875
            },
            {
              "pitch": 64,
              "velocity": 72,
              "position": 2.75,
              "duration": 0.23958333333333334
            },
            {
              "pitch": 60,
              "velocity": 72,
              "position": 2.7604166666666665,
              "duration": 0.22916666666666666
            },
            {
              "pitch": 55,
              "velocity": 72,
              "position": 2.7708333333333335,
              "duration": 0.21875
            },
            {
              "pitch": 55,
              "velocity": 100,
              "position": 3,
              "duration": 0.4895833333333333
            },
            {
              "pitch": 60,
              "velocity": 100,
              "position": 3,
              "duration": 0.4895833333333333
            },
            {
              "pitch": 64,
              "velocity": 100,
              "position": 3.0104166666666665,
              "duration": 0.4791666666666667
            },
            {
              "pitch": 55,
              "velocity": 77,
              "position": 3.5,
              "duration": 0.4895833333333333
            },
            {
              "pitch": 60,
              "velocity": 77,
              "position": 3.5104166666666665,
              "duration": 0.4791666666666667
            },
            {
              "pitch": 64,
              "velocity": 77,
              "position": 3.5208333333333335,
              "duration": 0.46875
            },
            {
              "pitch": 53,
              "velocity": 100,
              "position": 4,
              "duration": 1.4895833333333333
            },
            {
              "pitch": 58,
              "velocity": 100,
              "position": 4.010416666666667,
              "duration": 1.4791666666666667
            },
            {
              "pitch": 62,
              "velocity": 100,
              "position": 4.020833333333333,
              "duration": 1.46875
            },
            {
              "pitch": 53,
              "velocity": 95,
              "position": 5.5,
              "duration": 1.4895833333333333
            },
            {
              "pitch": 57,
              "velocity": 95,
              "position": 5.510416666666667,
              "duration": 1.4791666666666667
            },
            {
              "pitch": 60,
              "velocity": 95,
              "position": 5.520833333333333,
              "duration": 1.46875
            },
            {
              "pitch": 48,
              "velocity": 95,
              "position": 7,
              "duration": 0.9895833333333334
            },
            {
              "pitch": 53,
              "velocity": 95,
              "position": 7.010416666666667,
              "duration": 0.9791666666666666
            },
            {
              "pitch": 57,
              "velocity": 95,
              "position": 7.020833333333333,
              "duration": 0.96875
            },
            {
              "pitch": 55,
              "velocity": 100,
              "position": 8,
              "duration": 3.875
            },
            {
              "pitch": 60,
              "velocity": 100,
              "position": 8,
              "duration": 3.875
            },
            {
              "pitch": 64,
              "velocity": 100,
              "position": 8.010416666666666,
              "duration": 3.8645833333333335
            }
          ]
        },
        "12": {
          "ctab": {
            "srcChannel": 12,
            "name": "guit28r",
            "accType": "CHORD2",
            "editable": false,
            "mutedNotes": [],
            "mutedChords": [],
            "autoStart": false,
            "sourceChordNote": 0,
            "sourceChordType": "Maj",
            "ctb2Low": null,
            "ctb2Main": {
              "ntr": "ROOT_TRANSPOSITION",
              "ntt": "HARMONIC_MINOR",
              "bassOn": false,
              "chordRootUpperLimit": 7,
              "noteLowLimit": 56,
              "noteHighLimit": 80,
              "rtr": "PITCH_SHIFT"
            },
            "ctb2High": null
          },
          "notes": [
            {
              "pitch": 60,
              "velocity": 21,
              "position": 0.010416666666666666,
              "duration": 0.7291666666666666
            },
            {
              "pitch": 52,
              "velocity": 21,
              "position": 0.020833333333333332,
              "duration": 0.71875
            },
            {
              "pitch": 55,
              "velocity": 21,
              "position": 0.010416666666666666,
              "duration": 0.7395833333333334
            },
            {
              "pitch": 60,
              "velocity": 7,
              "position": 0.7604166666666666,
              "duration": 0.22916666666666666
            },
            {
              "pitch": 52,
              "velocity": 7,
              "position": 0.75,
              "duration": 0.23958333333333334
            },
            {
              "pitch": 55,
              "velocity": 7,
              "position": 0.7708333333333334,
              "duration": 0.21875
            },
            {
              "pitch": 55,
              "velocity": 15,
              "position": 1,
              "duration": 0.4895833333333333
            },
            {
              "pitch": 60,
              "velocity": 15,
              "position": 1.0104166666666667,
              "duration": 0.4791666666666667
            },
            {
              "pitch": 52,
              "velocity": 15,
              "position": 1.0208333333333333,
              "duration": 0.46875
            },
            {
              "pitch": 55,
              "velocity": 21,
              "position": 1.5,
              "duration": 0.9895833333333334
            },
            {
              "pitch": 60,
              "velocity": 21,
              "position": 1.5104166666666667,
              "duration": 0.9791666666666666
            },
            {
              "pitch": 52,
              "velocity": 21,
              "position": 1.5208333333333333,
              "duration": 0.96875
            },
            {
              "pitch": 52,
              "velocity": 11,
              "position": 2.5,
              "duration": 0.4895833333333333
            },
            {
              "pitch": 60,
              "velocity": 11,
              "position": 2.5104166666666665,
              "duration": 0.4791666666666667
            },
            {
              "pitch": 55,
              "velocity": 11,
              "position": 2.5208333333333335,
              "duration": 0.46875
            },
            {
              "pitch": 55,
              "velocity": 21,
              "position": 3,
              "duration": 0.9895833333333334
            },
            {
              "pitch": 60,
              "velocity": 21,
              "position": 3.0104166666666665,
              "duration": 0.9791666666666666
            },
            {
              "pitch": 52,
              "velocity": 21,
              "position": 3.0208333333333335,
              "duration": 0.96875
            },
            {
              "pitch": 46,
              "velocity": 30,
              "position": 4,
              "duration": 1.4895833333333333
            },
            {
              "pitch": 50,
              "velocity": 30,
              "position": 4.5,
              "duration": 1.5
            },
            {
              "pitch": 53,
              "velocity": 30,
              "position": 5,
              "duration": 1.4895833333333333
            },
            {
              "pitch": 48,
              "velocity": 30,
              "position": 6,
              "duration": 0.9895833333333334
            },
            {
              "pitch": 53,
              "velocity": 30,
              "position": 6.5,
              "duration": 0.5
            },
            {
              "pitch": 45,
              "velocity": 104,
              "position": 5.5,
              "duration": 2.25
            },
            {
              "pitch": 48,
              "velocity": 101,
              "position": 7,
              "duration": 1
            },
            {
              "pitch": 55,
              "velocity": 117,
              "position": 8,
              "duration": 3.9895833333333335
            }
          ]
        },
        "13": {
          "ctab": {
            "srcChannel": 13,
            "name": "strng",
            "accType": "PAD",
            "editable": false,
            "mutedNotes": [],
            "mutedChords": [],
            "autoStart": false,
            "sourceChordNote": 0,
            "sourceChordType": "Maj",
            "ctb2Low": null,
            "ctb2Main": {
              "ntr": "ROOT_TRANSPOSITION",
              "ntt": "HARMONIC_MINOR",
              "bassOn": false,
              "chordRootUpperLimit": 6,
              "noteLowLimit": 55,
              "noteHighLimit": 126,
              "rtr": "PITCH_SHIFT"
            },
            "ctb2High": null
          },
          "notes": [
            {
              "pitch": 52,
              "velocity": 89,
              "position": 0,
              "duration": 3.9895833333333335
            },
            {
              "pitch": 55,
              "velocity": 89,
              "position": 0,
              "duration": 3.9895833333333335
            },
            {
              "pitch": 60,
              "velocity": 89,
              "position": 0,
              "duration": 3.9895833333333335
            },
            {
              "pitch": 50,
              "velocity": 90,
              "position": 4,
              "duration": 1.4895833333333333
            },
            {
              "pitch": 53,
              "velocity": 90,
              "position": 4,
              "duration": 1.4895833333333333
            },
            {
              "pitch": 58,
              "velocity": 90,
              "position": 4,
              "duration": 1.4895833333333333
            },
            {
              "pitch": 48,
              "velocity": 91,
              "position": 5.5,
              "duration": 2.4895833333333335
            },
            {
              "pitch": 53,
              "velocity": 91,
              "position": 5.5,
              "duration": 2.4895833333333335
            },
            {
              "pitch": 57,
              "velocity": 91,
              "position": 5.5,
              "duration": 2.4895833333333335
            },
            {
              "pitch": 52,
              "velocity": 87,
              "position": 8,
              "duration": 3.7395833333333335
            },
            {
              "pitch": 55,
              "velocity": 87,
              "position": 8,
              "duration": 3.7395833333333335
            },
            {
              "pitch": 60,
              "velocity": 87,
              "position": 8,
              "duration": 3.7395833333333335
            }
          ]
        },
        "14": {
          "ctab": {
            "srcChannel": 14,
            "name": "eguit",
            "accType": "PHRASE1",
            "editable": false,
            "mutedNotes": [],
            "mutedChords": [],
            "autoStart": false,
            "sourceChordNote": 0,
            "sourceChordType": "Maj",
            "ctb2Low": null,
            "ctb2Main": {
              "ntr": "ROOT_TRANSPOSITION",
              "ntt": "HARMONIC_MINOR",
              "bassOn": false,
              "chordRootUpperLimit": 7,
              "noteLowLimit": 0,
              "noteHighLimit": 66,
              "rtr": "PITCH_SHIFT"
            },
            "ctb2High": null
          },
          "notes": [
            {
              "pitch": 55,
              "velocity": 92,
              "position": 1,
              "duration": 0.125
            },
            {
              "pitch": 60,
              "velocity": 92,
              "position": 1,
              "duration": 0.125
            },
            {
              "pitch": 64,
              "velocity": 92,
              "position": 1,
              "duration": 0.125
            },
            {
              "pitch": 55,
              "velocity": 94,
              "position": 3,
              "duration": 0.125
            },
            {
              "pitch": 60,
              "velocity": 94,
              "position": 3,
              "duration": 0.125
            },
            {
              "pitch": 64,
              "velocity": 94,
              "position": 3,
              "duration": 0.125
            }
          ]
        }
      }
    },
    "Intro_C": {
      "type": "Intro_C",
      "sizeInBeats": 16,
      "channels": {
        "2": {
          "ctab": {
            "srcChannel": 2,
            "name": "strng",
            "accType": "PAD",
            "editable": false,
            "mutedNotes": [],
            "mutedChords": [
              "1+2+5",
              "sus4",
              "1+5",
              "1+8",
              "7aug",
              "Maj7aug",
              "7(#9)",
              "7(b13)",
              "7(b9)",
              "7(13)",
              "7#11",
              "7(9)",
              "7b5",
              "7sus4",
              "7th",
              "aug",
              "Maj6(9)",
              "Maj7(9)",
              "Maj(9)",
              "Maj7#11",
              "Maj7",
              "Maj6",
              "Maj"
            ],
            "autoStart": false,
            "sourceChordNote": 0,
            "sourceChordType": "Maj",
            "ctb2Low": null,
            "ctb2Main": {
              "ntr": "ROOT_TRANSPOSITION",
              "ntt": "HARMONIC_MINOR",
              "bassOn": false,
              "chordRootUpperLimit": 6,
              "noteLowLimit": 55,
              "noteHighLimit": 66,
              "rtr": "PITCH_SHIFT"
            },
            "ctb2High": null
          },
          "notes": [
            {
              "pitch": 52,
              "velocity": 89,
              "position": 0,
              "duration": 1.4895833333333333
            },
            {
              "pitch": 55,
              "velocity": 89,
              "position": 0,
              "duration": 1.4895833333333333
            },
            {
              "pitch": 60,
              "velocity": 89,
              "position": 0,
              "duration": 1.4895833333333333
            },
            {
              "pitch": 50,
              "velocity": 89,
              "position": 1.5,
              "duration": 2.4895833333333335
            },
            {
              "pitch": 53,
              "velocity": 89,
              "position": 1.5,
              "duration": 2.4895833333333335
            },
            {
              "pitch": 58,
              "velocity": 89,
              "position": 1.5,
              "duration": 2.4895833333333335
            },
            {
              "pitch": 52,
              "velocity": 89,
              "position": 4,
              "duration": 1.4895833333333333
            },
            {
              "pitch": 56,
              "velocity": 89,
              "position": 4,
              "duration": 1.4895833333333333
            },
            {
              "pitch": 60,
              "velocity": 89,
              "position": 4,
              "duration": 1.4895833333333333
            },
            {
              "pitch": 51,
              "velocity": 89,
              "position": 5.5,
              "duration": 2.4895833333333335
            },
            {
              "pitch": 55,
              "velocity": 89,
              "position": 5.5,
              "duration": 2.4895833333333335
            },
            {
              "pitch": 58,
              "velocity": 89,
              "position": 5.5,
              "duration": 2.4895833333333335
            },
            {
              "pitch": 52,
              "velocity": 89,
              "position": 8,
              "duration": 1.4895833333333333
            },
            {
              "pitch": 55,
              "velocity": 89,
              "position": 8,
              "duration": 1.4895833333333333
            },
            {
              "pitch": 60,
              "velocity": 89,
              "position": 8,
              "duration": 1.4895833333333333
            },
            {
              "pitch": 50,
              "velocity": 89,
              "position": 9.5,
              "duration": 2.4895833333333335
            },
            {
              "pitch": 53,
              "velocity": 89,
              "position": 9.5,
              "duration": 2.4895833333333335
            },
            {
              "pitch": 58,
              "velocity": 89,
              "position": 9.5,
              "duration": 2.4895833333333335
            },
            {
              "pitch": 53,
              "velocity": 89,
              "position": 12,
              "duration": 3.9895833333333335
            },
            {
              "pitch": 57,
              "velocity": 89,
              "position": 12,
              "duration": 3.9895833333333335
            },
            {
              "pitch": 60,
              "velocity": 89,
              "position": 12,
              "duration": 3.9895833333333335
            }
          ]
        },
        "3": {
          "ctab": {
            "srcChannel": 3,
            "name": "mollbass",
            "accType": "BASS",
            "editable": false,
            "mutedNotes": [],
            "mutedChords": [
              "1+2+5",
              "sus4",
              "1+5",
              "1+8",
              "7aug",
              "Maj7aug",
              "7(#9)",
              "7(b13)",
              "7(b9)",
              "7(13)",
              "7#11",
              "7(9)",
              "7b5",
              "7sus4",
              "7th",
              "aug",
              "Maj6(9)",
              "Maj7(9)",
              "Maj(9)",
              "Maj7#11",
              "Maj7",
              "Maj6",
              "Maj"
            ],
            "autoStart": false,
            "sourceChordNote": 0,
            "sourceChordType": "Maj",
            "ctb2Low": null,
            "ctb2Main": {
              "ntr": "ROOT_TRANSPOSITION",
              "ntt": "HARMONIC_MINOR",
              "bassOn": false,
              "chordRootUpperLimit": 8,
              "noteLowLimit": 28,
              "noteHighLimit": 47,
              "rtr": "PITCH_SHIFT"
            },
            "ctb2High": null
          },
          "notes": [
            {
              "pitch": 24,
              "velocity": 80,
              "position": 0,
              "duration": 0.4895833333333333
            },
            {
              "pitch": 24,
              "velocity": 115,
              "position": 0.5,
              "duration": 0.23958333333333334
            },
            {
              "pitch": 24,
              "velocity": 80,
              "position": 0.75,
              "duration": 0.23958333333333334
            },
            {
              "pitch": 34,
              "velocity": 80,
              "position": 1.5,
              "duration": 1.625
            },
            {
              "pitch": 34,
              "velocity": 115,
              "position": 3.5,
              "duration": 0.23958333333333334
            },
            {
              "pitch": 34,
              "velocity": 60,
              "position": 3.75,
              "duration": 0.20833333333333334
            },
            {
              "pitch": 32,
              "velocity": 80,
              "position": 4,
              "duration": 0.4895833333333333
            },
            {
              "pitch": 32,
              "velocity": 115,
              "position": 4.5,
              "duration": 0.23958333333333334
            },
            {
              "pitch": 32,
              "velocity": 80,
              "position": 4.75,
              "duration": 0.23958333333333334
            },
            {
              "pitch": 27,
              "velocity": 80,
              "position": 5.5,
              "duration": 1.625
            },
            {
              "pitch": 27,
              "velocity": 115,
              "position": 7.5,
              "duration": 0.23958333333333334
            },
            {
              "pitch": 27,
              "velocity": 60,
              "position": 7.75,
              "duration": 0.20833333333333334
            },
            {
              "pitch": 36,
              "velocity": 80,
              "position": 8,
              "duration": 0.4895833333333333
            },
            {
              "pitch": 36,
              "velocity": 115,
              "position": 8.5,
              "duration": 0.23958333333333334
            },
            {
              "pitch": 36,
              "velocity": 80,
              "position": 8.75,
              "duration": 0.23958333333333334
            },
            {
              "pitch": 34,
              "velocity": 80,
              "position": 9.5,
              "duration": 1.9895833333333333
            },
            {
              "pitch": 34,
              "velocity": 80,
              "position": 11.5,
              "duration": 0.4791666666666667
            },
            {
              "pitch": 29,
              "velocity": 80,
              "position": 12,
              "duration": 0.7083333333333334
            },
            {
              "pitch": 36,
              "velocity": 80,
              "position": 12.75,
              "duration": 0.7395833333333334
            },
            {
              "pitch": 41,
              "velocity": 80,
              "position": 13.5,
              "duration": 2
            },
            {
              "pitch": 31,
              "velocity": 80,
              "position": 15.5,
              "duration": 0.4895833333333333
            }
          ]
        },
        "4": {
          "ctab": {
            "srcChannel": 4,
            "name": "guit28l",
            "accType": "CHORD1",
            "editable": false,
            "mutedNotes": [],
            "mutedChords": [
              "1+2+5",
              "sus4",
              "1+5",
              "1+8",
              "7aug",
              "Maj7aug",
              "7(#9)",
              "7(b13)",
              "7(b9)",
              "7(13)",
              "7#11",
              "7(9)",
              "7b5",
              "7sus4",
              "7th",
              "aug",
              "Maj6(9)",
              "Maj7(9)",
              "Maj(9)",
              "Maj7#11",
              "Maj7",
              "Maj6",
              "Maj"
            ],
            "autoStart": false,
            "sourceChordNote": 0,
            "sourceChordType": "Maj",
            "ctb2Low": null,
            "ctb2Main": {
              "ntr": "ROOT_TRANSPOSITION",
              "ntt": "HARMONIC_MINOR",
              "bassOn": false,
              "chordRootUpperLimit": 7,
              "noteLowLimit": 54,
              "noteHighLimit": 65,
              "rtr": "PITCH_SHIFT"
            },
            "ctb2High": null
          },
          "notes": [
            {
              "pitch": 55,
              "velocity": 101,
              "position": 0,
              "duration": 0.7395833333333334
            },
            {
              "pitch": 63,
              "velocity": 101,
              "position": 0,
              "duration": 0.7395833333333334
            },
            {
              "pitch": 60,
              "velocity": 101,
              "position": 0.010416666666666666,
              "duration": 0.7291666666666666
            },
            {
              "pitch": 60,
              "velocity": 64,
              "position": 0.75,
              "duration": 0.23958333333333334
            },
            {
              "pitch": 55,
              "velocity": 62,
              "position": 0.7604166666666666,
              "duration": 0.22916666666666666
            },
            {
              "pitch": 63,
              "velocity": 62,
              "position": 0.7708333333333334,
              "duration": 0.21875
            },
            {
              "pitch": 63,
              "velocity": 80,
              "position": 1,
              "duration": 0.4895833333333333
            },
            {
              "pitch": 55,
              "velocity": 80,
              "position": 1.0104166666666667,
              "duration": 0.4791666666666667
            },
            {
              "pitch": 60,
              "velocity": 80,
              "position": 1.0208333333333333,
              "duration": 0.46875
            },
            {
              "pitch": 53,
              "velocity": 100,
              "position": 1.5,
              "duration": 0.7395833333333334
            },
            {
              "pitch": 62,
              "velocity": 100,
              "position": 1.5,
              "duration": 0.7395833333333334
            },
            {
              "pitch": 58,
              "velocity": 100,
              "position": 1.5104166666666667,
              "duration": 0.7291666666666666
            },
            {
              "pitch": 58,
              "velocity": 61,
              "position": 2.25,
              "duration": 0.23958333333333334
            },
            {
              "pitch": 53,
              "velocity": 61,
              "position": 2.2604166666666665,
              "duration": 0.22916666666666666
            },
            {
              "pitch": 62,
              "velocity": 61,
              "position": 2.2708333333333335,
              "duration": 0.21875
            },
            {
              "pitch": 62,
              "velocity": 77,
              "position": 2.5,
              "duration": 0.4895833333333333
            },
            {
              "pitch": 53,
              "velocity": 77,
              "position": 2.5104166666666665,
              "duration": 0.4791666666666667
            },
            {
              "pitch": 58,
              "velocity": 77,
              "position": 2.5208333333333335,
              "duration": 0.46875
            },
            {
              "pitch": 53,
              "velocity": 100,
              "position": 3,
              "duration": 0.4895833333333333
            },
            {
              "pitch": 62,
              "velocity": 100,
              "position": 3,
              "duration": 0.4895833333333333
            },
            {
              "pitch": 58,
              "velocity": 100,
              "position": 3.0104166666666665,
              "duration": 0.4791666666666667
            },
            {
              "pitch": 62,
              "velocity": 77,
              "position": 3.5,
              "duration": 0.4895833333333333
            },
            {
              "pitch": 53,
              "velocity": 77,
              "position": 3.5104166666666665,
              "duration": 0.4791666666666667
            },
            {
              "pitch": 58,
              "velocity": 77,
              "position": 3.5208333333333335,
              "duration": 0.46875
            },
            {
              "pitch": 57,
              "velocity": 100,
              "position": 4,
              "duration": 0.7395833333333334
            },
            {
              "pitch": 60,
              "velocity": 100,
              "position": 4,
              "duration": 0.7395833333333334
            },
            {
              "pitch": 63,
              "velocity": 100,
              "position": 4,
              "duration": 0.7395833333333334
            },
            {
              "pitch": 60,
              "velocity": 64,
              "position": 4.75,
              "duration": 0.23958333333333334
            },
            {
              "pitch": 57,
              "velocity": 63,
              "position": 4.760416666666667,
              "duration": 0.22916666666666666
            },
            {
              "pitch": 63,
              "velocity": 63,
              "position": 4.770833333333333,
              "duration": 0.21875
            },
            {
              "pitch": 63,
              "velocity": 77,
              "position": 5,
              "duration": 0.4895833333333333
            },
            {
              "pitch": 57,
              "velocity": 79,
              "position": 5.010416666666667,
              "duration": 0.4791666666666667
            },
            {
              "pitch": 60,
              "velocity": 80,
              "position": 5.020833333333333,
              "duration": 0.46875
            },
            {
              "pitch": 55,
              "velocity": 91,
              "position": 5.5,
              "duration": 0.7291666666666666
            },
            {
              "pitch": 58,
              "velocity": 91,
              "position": 5.5,
              "duration": 0.7291666666666666
            },
            {
              "pitch": 63,
              "velocity": 91,
              "position": 5.5,
              "duration": 0.7291666666666666
            },
            {
              "pitch": 63,
              "velocity": 69,
              "position": 6.239583333333333,
              "duration": 0.25
            },
            {
              "pitch": 58,
              "velocity": 69,
              "position": 6.260416666666667,
              "duration": 0.22916666666666666
            },
            {
              "pitch": 55,
              "velocity": 69,
              "position": 6.270833333333333,
              "duration": 0.21875
            },
            {
              "pitch": 55,
              "velocity": 63,
              "position": 6.5,
              "duration": 0.4895833333333333
            },
            {
              "pitch": 58,
              "velocity": 63,
              "position": 6.510416666666667,
              "duration": 0.4791666666666667
            },
            {
              "pitch": 63,
              "velocity": 63,
              "position": 6.510416666666667,
              "duration": 0.4791666666666667
            },
            {
              "pitch": 55,
              "velocity": 91,
              "position": 7,
              "duration": 0.4895833333333333
            },
            {
              "pitch": 58,
              "velocity": 91,
              "position": 7,
              "duration": 0.4895833333333333
            },
            {
              "pitch": 63,
              "velocity": 95,
              "position": 7,
              "duration": 0.4895833333333333
            },
            {
              "pitch": 55,
              "velocity": 65,
              "position": 7.5,
              "duration": 0.4895833333333333
            },
            {
              "pitch": 58,
              "velocity": 64,
              "position": 7.510416666666667,
              "duration": 0.4791666666666667
            },
            {
              "pitch": 63,
              "velocity": 64,
              "position": 7.510416666666667,
              "duration": 0.4791666666666667
            },
            {
              "pitch": 55,
              "velocity": 101,
              "position": 8,
              "duration": 0.7395833333333334
            },
            {
              "pitch": 63,
              "velocity": 101,
              "position": 8,
              "duration": 0.7395833333333334
            },
            {
              "pitch": 60,
              "velocity": 101,
              "position": 8.010416666666666,
              "duration": 0.7291666666666666
            },
            {
              "pitch": 60,
              "velocity": 64,
              "position": 8.75,
              "duration": 0.23958333333333334
            },
            {
              "pitch": 55,
              "velocity": 62,
              "position": 8.760416666666666,
              "duration": 0.22916666666666666
            },
            {
              "pitch": 63,
              "velocity": 62,
              "position": 8.770833333333334,
              "duration": 0.21875
            },
            {
              "pitch": 63,
              "velocity": 80,
              "position": 9,
              "duration": 0.4895833333333333
            },
            {
              "pitch": 55,
              "velocity": 80,
              "position": 9.010416666666666,
              "duration": 0.4791666666666667
            },
            {
              "pitch": 60,
              "velocity": 80,
              "position": 9.020833333333334,
              "duration": 0.46875
            },
            {
              "pitch": 53,
              "velocity": 100,
              "position": 9.5,
              "duration": 0.7395833333333334
            },
            {
              "pitch": 62,
              "velocity": 100,
              "position": 9.5,
              "duration": 0.7395833333333334
            },
            {
              "pitch": 58,
              "velocity": 100,
              "position": 9.510416666666666,
              "duration": 0.7291666666666666
            },
            {
              "pitch": 58,
              "velocity": 59,
              "position": 10.25,
              "duration": 0.23958333333333334
            },
            {
              "pitch": 53,
              "velocity": 59,
              "position": 10.260416666666666,
              "duration": 0.22916666666666666
            },
            {
              "pitch": 62,
              "velocity": 59,
              "position": 10.270833333333334,
              "duration": 0.21875
            },
            {
              "pitch": 62,
              "velocity": 76,
              "position": 10.5,
              "duration": 0.4895833333333333
            },
            {
              "pitch": 53,
              "velocity": 76,
              "position": 10.510416666666666,
              "duration": 0.4791666666666667
            },
            {
              "pitch": 58,
              "velocity": 75,
              "position": 10.520833333333334,
              "duration": 0.46875
            },
            {
              "pitch": 53,
              "velocity": 100,
              "position": 11,
              "duration": 0.4895833333333333
            },
            {
              "pitch": 62,
              "velocity": 100,
              "position": 11,
              "duration": 0.4895833333333333
            },
            {
              "pitch": 58,
              "velocity": 100,
              "position": 11.010416666666666,
              "duration": 0.4791666666666667
            },
            {
              "pitch": 62,
              "velocity": 77,
              "position": 11.5,
              "duration": 0.4895833333333333
            },
            {
              "pitch": 53,
              "velocity": 77,
              "position": 11.510416666666666,
              "duration": 0.4791666666666667
            },
            {
              "pitch": 58,
              "velocity": 77,
              "position": 11.520833333333334,
              "duration": 0.46875
            },
            {
              "pitch": 57,
              "velocity": 100,
              "position": 12,
              "duration": 0.7395833333333334
            },
            {
              "pitch": 60,
              "velocity": 100,
              "position": 12.010416666666666,
              "duration": 0.7291666666666666
            },
            {
              "pitch": 53,
              "velocity": 100,
              "position": 12.020833333333334,
              "duration": 0.71875
            },
            {
              "pitch": 60,
              "velocity": 77,
              "position": 12.75,
              "duration": 0.7395833333333334
            },
            {
              "pitch": 53,
              "velocity": 77,
              "position": 12.760416666666666,
              "duration": 0.7291666666666666
            },
            {
              "pitch": 57,
              "velocity": 77,
              "position": 12.770833333333334,
              "duration": 0.71875
            },
            {
              "pitch": 60,
              "velocity": 99,
              "position": 13.5,
              "duration": 1.9895833333333333
            },
            {
              "pitch": 53,
              "velocity": 99,
              "position": 13.510416666666666,
              "duration": 1.9791666666666667
            },
            {
              "pitch": 57,
              "velocity": 99,
              "position": 13.520833333333334,
              "duration": 1.96875
            },
            {
              "pitch": 53,
              "velocity": 77,
              "position": 15.5,
              "duration": 0.4895833333333333
            },
            {
              "pitch": 57,
              "velocity": 79,
              "position": 15.510416666666666,
              "duration": 0.4791666666666667
            },
            {
              "pitch": 60,
              "velocity": 80,
              "position": 15.520833333333334,
              "duration": 0.46875
            }
          ]
        },
        "5": {
          "ctab": {
            "srcChannel": 5,
            "name": "guit28r",
            "accType": "CHORD2",
            "editable": false,
            "mutedNotes": [],
            "mutedChords": [
              "1+2+5",
              "sus4",
              "1+5",
              "1+8",
              "7aug",
              "Maj7aug",
              "7(#9)",
              "7(b13)",
              "7(b9)",
              "7(13)",
              "7#11",
              "7(9)",
              "7b5",
              "7sus4",
              "7th",
              "aug",
              "Maj6(9)",
              "Maj7(9)",
              "Maj(9)",
              "Maj7#11",
              "Maj7",
              "Maj6",
              "Maj"
            ],
            "autoStart": false,
            "sourceChordNote": 0,
            "sourceChordType": "Maj",
            "ctb2Low": null,
            "ctb2Main": {
              "ntr": "ROOT_TRANSPOSITION",
              "ntt": "HARMONIC_MINOR",
              "bassOn": false,
              "chordRootUpperLimit": 6,
              "noteLowLimit": 0,
              "noteHighLimit": 127,
              "rtr": "PITCH_SHIFT"
            },
            "ctb2High": null
          },
          "notes": [
            {
              "pitch": 55,
              "velocity": 31,
              "position": 0,
              "duration": 1.4895833333333333
            },
            {
              "pitch": 64,
              "velocity": 31,
              "position": 1,
              "duration": 0.4895833333333333
            },
            {
              "pitch": 60,
              "velocity": 31,
              "position": 0.5,
              "duration": 1.2395833333333333
            },
            {
              "pitch": 62,
              "velocity": 31,
              "position": 1.5104166666666667,
              "duration": 1.4895833333333333
            },
            {
              "pitch": 64,
              "velocity": 31,
              "position": 3,
              "duration": 0.9895833333333334
            },
            {
              "pitch": 62,
              "velocity": 31,
              "position": 3.5,
              "duration": 0.4895833333333333
            },
            {
              "pitch": 53,
              "velocity": 31,
              "position": 1.5104166666666667,
              "duration": 2.4895833333333335
            },
            {
              "pitch": 60,
              "velocity": 31,
              "position": 4.5,
              "duration": 0.9895833333333334
            },
            {
              "pitch": 63,
              "velocity": 31,
              "position": 4,
              "duration": 1.4895833333333333
            },
            {
              "pitch": 57,
              "velocity": 31,
              "position": 5,
              "duration": 0.4895833333333333
            },
            {
              "pitch": 58,
              "velocity": 117,
              "position": 5.5,
              "duration": 2.4895833333333335
            },
            {
              "pitch": 63,
              "velocity": 117,
              "position": 5.5,
              "duration": 2.4895833333333335
            },
            {
              "pitch": 55,
              "velocity": 31,
              "position": 8,
              "duration": 1.4895833333333333
            },
            {
              "pitch": 60,
              "velocity": 31,
              "position": 8.5,
              "duration": 0.9895833333333334
            },
            {
              "pitch": 64,
              "velocity": 31,
              "position": 9,
              "duration": 0.4895833333333333
            },
            {
              "pitch": 53,
              "velocity": 31,
              "position": 9.5,
              "duration": 0.9895833333333334
            },
            {
              "pitch": 62,
              "velocity": 31,
              "position": 9.5,
              "duration": 0.9895833333333334
            },
            {
              "pitch": 53,
              "velocity": 31,
              "position": 10.5,
              "duration": 1.4895833333333333
            },
            {
              "pitch": 58,
              "velocity": 31,
              "position": 11,
              "duration": 0.9895833333333334
            },
            {
              "pitch": 62,
              "velocity": 31,
              "position": 11.5,
              "duration": 0.4895833333333333
            },
            {
              "pitch": 53,
              "velocity": 31,
              "position": 12,
              "duration": 3.9895833333333335
            },
            {
              "pitch": 57,
              "velocity": 31,
              "position": 12,
              "duration": 3.9895833333333335
            },
            {
              "pitch": 60,
              "velocity": 119,
              "position": 13.5,
              "duration": 2.4895833333333335
            },
            {
              "pitch": 65,
              "velocity": 119,
              "position": 13.5,
              "duration": 2.4895833333333335
            }
          ]
        },
        "6": {
          "ctab": {
            "srcChannel": 6,
            "name": "guit28r",
            "accType": "CHORD2",
            "editable": false,
            "mutedNotes": [],
            "mutedChords": [],
            "autoStart": false,
            "sourceChordNote": 0,
            "sourceChordType": "Maj",
            "ctb2Low": null,
            "ctb2Main": {
              "ntr": "ROOT_FIXED",
              "ntt": "HARMONIC_MINOR",
              "bassOn": false,
              "chordRootUpperLimit": 7,
              "noteLowLimit": 0,
              "noteHighLimit": 79,
              "rtr": "PITCH_SHIFT"
            },
            "ctb2High": null
          },
          "notes": [
            {
              "pitch": 102,
              "velocity": 107,
              "position": 5.5,
              "duration": 0.23958333333333334
            },
            {
              "pitch": 102,
              "velocity": 107,
              "position": 12,
              "duration": 0.23958333333333334
            },
            {
              "pitch": 102,
              "velocity": 107,
              "position": 13.5,
              "duration": 0.23958333333333334
            }
          ]
        },
        "8": {
          "ctab": {
            "srcChannel": 8,
            "name": "StdDr01",
            "accType": "SUBRHYTHM",
            "editable": false,
            "mutedNotes": [],
            "mutedChords": [],
            "autoStart": true,
            "sourceChordNote": 0,
            "sourceChordType": "Maj7",
            "ctb2Low": null,
            "ctb2Main": {
              "ntr": "ROOT_FIXED",
              "ntt": "BYPASS",
              "bassOn": false,
              "chordRootUpperLimit": 6,
              "noteLowLimit": 0,
              "noteHighLimit": 127,
              "rtr": "PITCH_SHIFT"
            },
            "ctb2High": null
          },
          "notes": [
            {
              "pitch": 82,
              "velocity": 78,
              "position": 0,
              "duration": 0.020833333333333332
            },
            {
              "pitch": 82,
              "velocity": 51,
              "position": 0.25,
              "duration": 0.020833333333333332
            },
            {
              "pitch": 82,
              "velocity": 51,
              "position": 0.5,
              "duration": 0.020833333333333332
            },
            {
              "pitch": 82,
              "velocity": 58,
              "position": 0.75,
              "duration": 0.020833333333333332
            },
            {
              "pitch": 82,
              "velocity": 78,
              "position": 1,
              "duration": 0.020833333333333332
            },
            {
              "pitch": 82,
              "velocity": 51,
              "position": 1.25,
              "duration": 0.020833333333333332
            },
            {
              "pitch": 82,
              "velocity": 51,
              "position": 1.5,
              "duration": 0.020833333333333332
            },
            {
              "pitch": 82,
              "velocity": 58,
              "position": 1.75,
              "duration": 0.020833333333333332
            },
            {
              "pitch": 82,
              "velocity": 78,
              "position": 2,
              "duration": 0.020833333333333332
            },
            {
              "pitch": 82,
              "velocity": 51,
              "position": 2.25,
              "duration": 0.020833333333333332
            },
            {
              "pitch": 82,
              "velocity": 51,
              "position": 2.5,
              "duration": 0.020833333333333332
            },
            {
              "pitch": 82,
              "velocity": 58,
              "position": 2.75,
              "duration": 0.020833333333333332
            },
            {
              "pitch": 82,
              "velocity": 78,
              "position": 3,
              "duration": 0.020833333333333332
            },
            {
              "pitch": 82,
              "velocity": 51,
              "position": 3.25,
              "duration": 0.020833333333333332
            },
            {
              "pitch": 82,
              "velocity": 51,
              "position": 3.5,
              "duration": 0.020833333333333332
            },
            {
              "pitch": 82,
              "velocity": 58,
              "position": 3.75,
              "duration": 0.020833333333333332
            },
            {
              "pitch": 82,
              "velocity": 78,
              "position": 4,
              "duration": 0.020833333333333332
            },
            {
              "pitch": 82,
              "velocity": 51,
              "position": 4.25,
              "duration": 0.020833333333333332
            },
            {
              "pitch": 82,
              "velocity": 51,
              "position": 4.5,
              "duration": 0.020833333333333332
            },
            {
              "pitch": 82,
              "velocity": 58,
              "position": 4.75,
              "duration": 0.020833333333333332
            },
            {
              "pitch": 82,
              "velocity": 78,
              "position": 5,
              "duration": 0.020833333333333332
            },
            {
              "pitch": 82,
              "velocity": 51,
              "position": 5.25,
              "duration": 0.020833333333333332
            },
            {
              "pitch": 82,
              "velocity": 51,
              "position": 5.5,
              "duration": 0.020833333333333332
            },
            {
              "pitch": 82,
              "velocity": 58,
              "position": 5.75,
              "duration": 0.020833333333333332
            },
            {
              "pitch": 82,
              "velocity": 78,
              "position": 6,
              "duration": 0.020833333333333332
            },
            {
              "pitch": 82,
              "velocity": 51,
              "position": 6.25,
              "duration": 0.020833333333333332
            },
            {
              "pitch": 82,
              "velocity": 51,
              "position": 6.5,
              "duration": 0.020833333333333332
            },
            {
              "pitch": 82,
              "velocity": 58,
              "position": 6.75,
              "duration": 0.020833333333333332
            },
            {
              "pitch": 82,
              "velocity": 78,
              "position": 7,
              "duration": 0.020833333333333332
            },
            {
              "pitch": 82,
              "velocity": 51,
              "position": 7.25,
              "duration": 0.020833333333333332
            },
            {
              "pitch": 82,
              "velocity": 51,
              "position": 7.5,
              "duration": 0.020833333333333332
            },
            {
              "pitch": 82,
              "velocity": 58,
              "position": 7.75,
              "duration": 0.020833333333333332
            },
            {
              "pitch": 82,
              "velocity": 78,
              "position": 8,
              "duration": 0.020833333333333332
            },
            {
              "pitch": 82,
              "velocity": 51,
              "position": 8.25,
              "duration": 0.020833333333333332
            },
            {
              "pitch": 82,
              "velocity": 51,
              "position": 8.5,
              "duration": 0.020833333333333332
            },
            {
              "pitch": 82,
              "velocity": 58,
              "position": 8.75,
              "duration": 0.020833333333333332
            },
            {
              "pitch": 82,
              "velocity": 78,
              "position": 9,
              "duration": 0.020833333333333332
            },
            {
              "pitch": 82,
              "velocity": 51,
              "position": 9.25,
              "duration": 0.020833333333333332
            },
            {
              "pitch": 82,
              "velocity": 51,
              "position": 9.5,
              "duration": 0.020833333333333332
            },
            {
              "pitch": 82,
              "velocity": 58,
              "position": 9.75,
              "duration": 0.020833333333333332
            },
            {
              "pitch": 82,
              "velocity": 78,
              "position": 10,
              "duration": 0.020833333333333332
            },
            {
              "pitch": 82,
              "velocity": 51,
              "position": 10.25,
              "duration": 0.020833333333333332
            },
            {
              "pitch": 82,
              "velocity": 51,
              "position": 10.5,
              "duration": 0.020833333333333332
            },
            {
              "pitch": 82,
              "velocity": 58,
              "position": 10.75,
              "duration": 0.020833333333333332
            },
            {
              "pitch": 82,
              "velocity": 78,
              "position": 11,
              "duration": 0.020833333333333332
            },
            {
              "pitch": 82,
              "velocity": 51,
              "position": 11.25,
              "duration": 0.020833333333333332
            },
            {
              "pitch": 82,
              "velocity": 51,
              "position": 11.5,
              "duration": 0.020833333333333332
            },
            {
              "pitch": 82,
              "velocity": 58,
              "position": 11.75,
              "duration": 0.020833333333333332
            },
            {
              "pitch": 82,
              "velocity": 78,
              "position": 12,
              "duration": 0.020833333333333332
            },
            {
              "pitch": 82,
              "velocity": 51,
              "position": 12.25,
              "duration": 0.020833333333333332
            },
            {
              "pitch": 82,
              "velocity": 51,
              "position": 12.5,
              "duration": 0.020833333333333332
            },
            {
              "pitch": 82,
              "velocity": 58,
              "position": 12.75,
              "duration": 0.020833333333333332
            },
            {
              "pitch": 82,
              "velocity": 78,
              "position": 13,
              "duration": 0.020833333333333332
            },
            {
              "pitch": 82,
              "velocity": 51,
              "position": 13.25,
              "duration": 0.020833333333333332
            },
            {
              "pitch": 82,
              "velocity": 51,
              "position": 13.5,
              "duration": 0.020833333333333332
            },
            {
              "pitch": 82,
              "velocity": 58,
              "position": 13.75,
              "duration": 0.020833333333333332
            },
            {
              "pitch": 82,
              "velocity": 78,
              "position": 14,
              "duration": 0.020833333333333332
            },
            {
              "pitch": 82,
              "velocity": 51,
              "position": 14.25,
              "duration": 0.020833333333333332
            },
            {
              "pitch": 82,
              "velocity": 51,
              "position": 14.5,
              "duration": 0.020833333333333332
            },
            {
              "pitch": 82,
              "velocity": 58,
              "position": 14.75,
              "duration": 0.020833333333333332
            },
            {
              "pitch": 82,
              "velocity": 78,
              "position": 15,
              "duration": 0.020833333333333332
            },
            {
              "pitch": 82,
              "velocity": 51,
              "position": 15.25,
              "duration": 0.020833333333333332
            },
            {
              "pitch": 82,
              "velocity": 51,
              "position": 15.5,
              "duration": 0.020833333333333332
            },
            {
              "pitch": 82,
              "velocity": 58,
              "position": 15.75,
              "duration": 0.020833333333333332
            }
          ]
        },
        "9": {
          "ctab": {
            "srcChannel": 9,
            "name": "StdDr02",
            "accType": "RHYTHM",
            "editable": false,
            "mutedNotes": [],
            "mutedChords": [],
            "autoStart": true,
            "sourceChordNote": 0,
            "sourceChordType": "Maj7",
            "ctb2Low": null,
            "ctb2Main": {
              "ntr": "ROOT_FIXED",
              "ntt": "BYPASS",
              "bassOn": false,
              "chordRootUpperLimit": 6,
              "noteLowLimit": 0,
              "noteHighLimit": 127,
              "rtr": "PITCH_SHIFT"
            },
            "ctb2High": null
          },
          "notes": [
            {
              "pitch": 36,
              "velocity": 100,
              "position": 0,
              "duration": 0.020833333333333332
            },
            {
              "pitch": 49,
              "velocity": 50,
              "position": 0,
              "duration": 0.020833333333333332
            },
            {
              "pitch": 54,
              "velocity": 70,
              "position": 0,
              "duration": 0.020833333333333332
            },
            {
              "pitch": 54,
              "velocity": 42,
              "position": 0.25,
              "duration": 0.020833333333333332
            },
            {
              "pitch": 44,
              "velocity": 55,
              "position": 0.5,
              "duration": 0.020833333333333332
            },
            {
              "pitch": 53,
              "velocity": 38,
              "position": 0.5,
              "duration": 0.020833333333333332
            },
            {
              "pitch": 54,
              "velocity": 29,
              "position": 0.5,
              "duration": 0.020833333333333332
            },
            {
              "pitch": 36,
              "velocity": 74,
              "position": 0.75,
              "duration": 0.020833333333333332
            },
            {
              "pitch": 54,
              "velocity": 40,
              "position": 0.75,
              "duration": 0.020833333333333332
            },
            {
              "pitch": 40,
              "velocity": 90,
              "position": 1,
              "duration": 0.020833333333333332
            },
            {
              "pitch": 53,
              "velocity": 74,
              "position": 1,
              "duration": 0.020833333333333332
            },
            {
              "pitch": 54,
              "velocity": 67,
              "position": 1,
              "duration": 0.020833333333333332
            },
            {
              "pitch": 54,
              "velocity": 40,
              "position": 1.25,
              "duration": 0.020833333333333332
            },
            {
              "pitch": 36,
              "velocity": 100,
              "position": 1.5,
              "duration": 0.020833333333333332
            },
            {
              "pitch": 44,
              "velocity": 55,
              "position": 1.5,
              "duration": 0.020833333333333332
            },
            {
              "pitch": 54,
              "velocity": 28,
              "position": 1.5,
              "duration": 0.020833333333333332
            },
            {
              "pitch": 57,
              "velocity": 45,
              "position": 1.5,
              "duration": 0.020833333333333332
            },
            {
              "pitch": 54,
              "velocity": 39,
              "position": 1.75,
              "duration": 0.020833333333333332
            },
            {
              "pitch": 54,
              "velocity": 70,
              "position": 2,
              "duration": 0.020833333333333332
            },
            {
              "pitch": 54,
              "velocity": 51,
              "position": 2.25,
              "duration": 0.020833333333333332
            },
            {
              "pitch": 36,
              "velocity": 65,
              "position": 2.5,
              "duration": 0.020833333333333332
            },
            {
              "pitch": 44,
              "velocity": 55,
              "position": 2.5,
              "duration": 0.020833333333333332
            },
            {
              "pitch": 53,
              "velocity": 33,
              "position": 2.5,
              "duration": 0.020833333333333332
            },
            {
              "pitch": 54,
              "velocity": 25,
              "position": 2.5,
              "duration": 0.020833333333333332
            },
            {
              "pitch": 40,
              "velocity": 64,
              "position": 2.75,
              "duration": 0.020833333333333332
            },
            {
              "pitch": 54,
              "velocity": 42,
              "position": 2.75,
              "duration": 0.020833333333333332
            },
            {
              "pitch": 40,
              "velocity": 90,
              "position": 3,
              "duration": 0.020833333333333332
            },
            {
              "pitch": 54,
              "velocity": 67,
              "position": 3,
              "duration": 0.020833333333333332
            },
            {
              "pitch": 54,
              "velocity": 57,
              "position": 3.25,
              "duration": 0.020833333333333332
            },
            {
              "pitch": 44,
              "velocity": 55,
              "position": 3.5,
              "duration": 0.020833333333333332
            },
            {
              "pitch": 53,
              "velocity": 74,
              "position": 3.5,
              "duration": 0.020833333333333332
            },
            {
              "pitch": 54,
              "velocity": 31,
              "position": 3.5,
              "duration": 0.020833333333333332
            },
            {
              "pitch": 54,
              "velocity": 65,
              "position": 3.75,
              "duration": 0.020833333333333332
            },
            {
              "pitch": 36,
              "velocity": 100,
              "position": 4,
              "duration": 0.020833333333333332
            },
            {
              "pitch": 54,
              "velocity": 70,
              "position": 4,
              "duration": 0.020833333333333332
            },
            {
              "pitch": 57,
              "velocity": 50,
              "position": 4,
              "duration": 0.020833333333333332
            },
            {
              "pitch": 54,
              "velocity": 42,
              "position": 4.25,
              "duration": 0.020833333333333332
            },
            {
              "pitch": 44,
              "velocity": 55,
              "position": 4.5,
              "duration": 0.020833333333333332
            },
            {
              "pitch": 53,
              "velocity": 38,
              "position": 4.5,
              "duration": 0.020833333333333332
            },
            {
              "pitch": 54,
              "velocity": 29,
              "position": 4.5,
              "duration": 0.020833333333333332
            },
            {
              "pitch": 36,
              "velocity": 74,
              "position": 4.75,
              "duration": 0.020833333333333332
            },
            {
              "pitch": 54,
              "velocity": 40,
              "position": 4.75,
              "duration": 0.020833333333333332
            },
            {
              "pitch": 40,
              "velocity": 90,
              "position": 5,
              "duration": 0.020833333333333332
            },
            {
              "pitch": 53,
              "velocity": 74,
              "position": 5,
              "duration": 0.020833333333333332
            },
            {
              "pitch": 54,
              "velocity": 67,
              "position": 5,
              "duration": 0.020833333333333332
            },
            {
              "pitch": 54,
              "velocity": 44,
              "position": 5.25,
              "duration": 0.020833333333333332
            },
            {
              "pitch": 36,
              "velocity": 100,
              "position": 5.5,
              "duration": 0.020833333333333332
            },
            {
              "pitch": 44,
              "velocity": 55,
              "position": 5.5,
              "duration": 0.020833333333333332
            },
            {
              "pitch": 49,
              "velocity": 50,
              "position": 5.5,
              "duration": 0.020833333333333332
            },
            {
              "pitch": 54,
              "velocity": 28,
              "position": 5.5,
              "duration": 0.020833333333333332
            },
            {
              "pitch": 54,
              "velocity": 39,
              "position": 5.75,
              "duration": 0.020833333333333332
            },
            {
              "pitch": 53,
              "velocity": 74,
              "position": 6,
              "duration": 0.020833333333333332
            },
            {
              "pitch": 54,
              "velocity": 70,
              "position": 6,
              "duration": 0.020833333333333332
            },
            {
              "pitch": 54,
              "velocity": 55,
              "position": 6.25,
              "duration": 0.020833333333333332
            },
            {
              "pitch": 36,
              "velocity": 74,
              "position": 6.5,
              "duration": 0.020833333333333332
            },
            {
              "pitch": 44,
              "velocity": 55,
              "position": 6.5,
              "duration": 0.020833333333333332
            },
            {
              "pitch": 54,
              "velocity": 25,
              "position": 6.5,
              "duration": 0.020833333333333332
            },
            {
              "pitch": 40,
              "velocity": 46,
              "position": 6.75,
              "duration": 0.020833333333333332
            },
            {
              "pitch": 54,
              "velocity": 42,
              "position": 6.75,
              "duration": 0.020833333333333332
            },
            {
              "pitch": 40,
              "velocity": 90,
              "position": 7,
              "duration": 0.020833333333333332
            },
            {
              "pitch": 54,
              "velocity": 71,
              "position": 7,
              "duration": 0.020833333333333332
            },
            {
              "pitch": 40,
              "velocity": 61,
              "position": 7.25,
              "duration": 0.020833333333333332
            },
            {
              "pitch": 54,
              "velocity": 57,
              "position": 7.25,
              "duration": 0.020833333333333332
            },
            {
              "pitch": 44,
              "velocity": 55,
              "position": 7.5,
              "duration": 0.020833333333333332
            },
            {
              "pitch": 45,
              "velocity": 72,
              "position": 7.5,
              "duration": 0.020833333333333332
            },
            {
              "pitch": 54,
              "velocity": 31,
              "position": 7.5,
              "duration": 0.020833333333333332
            },
            {
              "pitch": 43,
              "velocity": 72,
              "position": 7.75,
              "duration": 0.020833333333333332
            },
            {
              "pitch": 54,
              "velocity": 61,
              "position": 7.75,
              "duration": 0.020833333333333332
            },
            {
              "pitch": 36,
              "velocity": 100,
              "position": 8,
              "duration": 0.020833333333333332
            },
            {
              "pitch": 49,
              "velocity": 50,
              "position": 8,
              "duration": 0.020833333333333332
            },
            {
              "pitch": 54,
              "velocity": 70,
              "position": 8,
              "duration": 0.020833333333333332
            },
            {
              "pitch": 54,
              "velocity": 46,
              "position": 8.25,
              "duration": 0.020833333333333332
            },
            {
              "pitch": 44,
              "velocity": 55,
              "position": 8.5,
              "duration": 0.020833333333333332
            },
            {
              "pitch": 53,
              "velocity": 38,
              "position": 8.5,
              "duration": 0.020833333333333332
            },
            {
              "pitch": 54,
              "velocity": 33,
              "position": 8.5,
              "duration": 0.020833333333333332
            },
            {
              "pitch": 36,
              "velocity": 74,
              "position": 8.75,
              "duration": 0.020833333333333332
            },
            {
              "pitch": 54,
              "velocity": 44,
              "position": 8.75,
              "duration": 0.020833333333333332
            },
            {
              "pitch": 40,
              "velocity": 90,
              "position": 9,
              "duration": 0.020833333333333332
            },
            {
              "pitch": 53,
              "velocity": 74,
              "position": 9,
              "duration": 0.020833333333333332
            },
            {
              "pitch": 54,
              "velocity": 67,
              "position": 9,
              "duration": 0.020833333333333332
            },
            {
              "pitch": 54,
              "velocity": 44,
              "position": 9.25,
              "duration": 0.020833333333333332
            },
            {
              "pitch": 36,
              "velocity": 100,
              "position": 9.5,
              "duration": 0.020833333333333332
            },
            {
              "pitch": 44,
              "velocity": 55,
              "position": 9.5,
              "duration": 0.020833333333333332
            },
            {
              "pitch": 54,
              "velocity": 28,
              "position": 9.5,
              "duration": 0.020833333333333332
            },
            {
              "pitch": 55,
              "velocity": 60,
              "position": 9.5,
              "duration": 0.020833333333333332
            },
            {
              "pitch": 54,
              "velocity": 39,
              "position": 9.75,
              "duration": 0.020833333333333332
            },
            {
              "pitch": 53,
              "velocity": 74,
              "position": 10,
              "duration": 0.020833333333333332
            },
            {
              "pitch": 54,
              "velocity": 70,
              "position": 10,
              "duration": 0.020833333333333332
            },
            {
              "pitch": 54,
              "velocity": 55,
              "position": 10.25,
              "duration": 0.020833333333333332
            },
            {
              "pitch": 36,
              "velocity": 74,
              "position": 10.5,
              "duration": 0.020833333333333332
            },
            {
              "pitch": 44,
              "velocity": 55,
              "position": 10.5,
              "duration": 0.020833333333333332
            },
            {
              "pitch": 53,
              "velocity": 33,
              "position": 10.5,
              "duration": 0.020833333333333332
            },
            {
              "pitch": 54,
              "velocity": 25,
              "position": 10.5,
              "duration": 0.020833333333333332
            },
            {
              "pitch": 54,
              "velocity": 42,
              "position": 10.75,
              "duration": 0.020833333333333332
            },
            {
              "pitch": 40,
              "velocity": 90,
              "position": 11,
              "duration": 0.020833333333333332
            },
            {
              "pitch": 54,
              "velocity": 67,
              "position": 11,
              "duration": 0.020833333333333332
            },
            {
              "pitch": 54,
              "velocity": 57,
              "position": 11.25,
              "duration": 0.020833333333333332
            },
            {
              "pitch": 44,
              "velocity": 55,
              "position": 11.5,
              "duration": 0.020833333333333332
            },
            {
              "pitch": 45,
              "velocity": 76,
              "position": 11.5,
              "duration": 0.020833333333333332
            },
            {
              "pitch": 54,
              "velocity": 31,
              "position": 11.5,
              "duration": 0.020833333333333332
            },
            {
              "pitch": 54,
              "velocity": 65,
              "position": 11.75,
              "duration": 0.020833333333333332
            },
            {
              "pitch": 36,
              "velocity": 100,
              "position": 12,
              "duration": 0.020833333333333332
            },
            {
              "pitch": 57,
              "velocity": 50,
              "position": 12,
              "duration": 0.020833333333333332
            },
            {
              "pitch": 44,
              "velocity": 55,
              "position": 12.5,
              "duration": 0.020833333333333332
            },
            {
              "pitch": 40,
              "velocity": 90,
              "position": 12.75,
              "duration": 0.020833333333333332
            },
            {
              "pitch": 46,
              "velocity": 58,
              "position": 12.75,
              "duration": 0.020833333333333332
            },
            {
              "pitch": 36,
              "velocity": 94,
              "position": 13.5,
              "duration": 0.020833333333333332
            },
            {
              "pitch": 40,
              "velocity": 90,
              "position": 13.5,
              "duration": 0.020833333333333332
            },
            {
              "pitch": 49,
              "velocity": 50,
              "position": 13.5,
              "duration": 0.020833333333333332
            },
            {
              "pitch": 54,
              "velocity": 74,
              "position": 13.5,
              "duration": 0.020833333333333332
            },
            {
              "pitch": 36,
              "velocity": 94,
              "position": 14.25,
              "duration": 0.020833333333333332
            },
            {
              "pitch": 40,
              "velocity": 72,
              "position": 14.5,
              "duration": 0.020833333333333332
            },
            {
              "pitch": 44,
              "velocity": 55,
              "position": 14.5,
              "duration": 0.020833333333333332
            },
            {
              "pitch": 40,
              "velocity": 84,
              "position": 15,
              "duration": 0.020833333333333332
            },
            {
              "pitch": 46,
              "velocity": 58,
              "position": 15,
              "duration": 0.020833333333333332
            },
            {
              "pitch": 54,
              "velocity": 74,
              "position": 15,
              "duration": 0.020833333333333332
            },
            {
              "pitch": 47,
              "velocity": 70,
              "position": 15.5,
              "duration": 0.020833333333333332
            },
            {
              "pitch": 54,
              "velocity": 34,
              "position": 15.5,
              "duration": 0.020833333333333332
            },
            {
              "pitch": 45,
              "velocity": 73,
              "position": 15.75,
              "duration": 0.020833333333333332
            },
            {
              "pitch": 54,
              "velocity": 68,
              "position": 15.75,
              "duration": 0.020833333333333332
            }
          ]
        },
        "10": {
          "ctab": {
            "srcChannel": 10,
            "name": "FingBs34",
            "accType": "BASS",
            "editable": false,
            "mutedNotes": [],
            "mutedChords": [
              "dim7",
              "dim",
              "minMaj7(9)",
              "minMaj7",
              "min7(11)",
              "min7(9)",
              "min(9)",
              "m7b5",
              "min7",
              "min6",
              "min"
            ],
            "autoStart": false,
            "sourceChordNote": 0,
            "sourceChordType": "Maj",
            "ctb2Low": null,
            "ctb2Main": {
              "ntr": "ROOT_TRANSPOSITION",
              "ntt": "HARMONIC_MINOR",
              "bassOn": false,
              "chordRootUpperLimit": 8,
              "noteLowLimit": 28,
              "noteHighLimit": 47,
              "rtr": "PITCH_SHIFT"
            },
            "ctb2High": null
          },
          "notes": [
            {
              "pitch": 36,
              "velocity": 80,
              "position": 0,
              "duration": 0.4895833333333333
            },
            {
              "pitch": 36,
              "velocity": 114,
              "position": 0.5,
              "duration": 0.23958333333333334
            },
            {
              "pitch": 36,
              "velocity": 80,
              "position": 0.75,
              "duration": 0.23958333333333334
            },
            {
              "pitch": 31,
              "velocity": 80,
              "position": 1.5,
              "duration": 1.625
            },
            {
              "pitch": 31,
              "velocity": 114,
              "position": 3.5,
              "duration": 0.23958333333333334
            },
            {
              "pitch": 31,
              "velocity": 60,
              "position": 3.75,
              "duration": 0.20833333333333334
            },
            {
              "pitch": 29,
              "velocity": 80,
              "position": 4,
              "duration": 0.4895833333333333
            },
            {
              "pitch": 29,
              "velocity": 114,
              "position": 4.5,
              "duration": 0.23958333333333334
            },
            {
              "pitch": 29,
              "velocity": 80,
              "position": 4.75,
              "duration": 0.23958333333333334
            },
            {
              "pitch": 24,
              "velocity": 80,
              "position": 5.5,
              "duration": 1.625
            },
            {
              "pitch": 31,
              "velocity": 114,
              "position": 7.5,
              "duration": 0.23958333333333334
            },
            {
              "pitch": 32,
              "velocity": 60,
              "position": 7.75,
              "duration": 0.20833333333333334
            },
            {
              "pitch": 33,
              "velocity": 80,
              "position": 8,
              "duration": 0.4895833333333333
            },
            {
              "pitch": 33,
              "velocity": 114,
              "position": 8.5,
              "duration": 0.23958333333333334
            },
            {
              "pitch": 33,
              "velocity": 80,
              "position": 8.75,
              "duration": 0.23958333333333334
            },
            {
              "pitch": 31,
              "velocity": 80,
              "position": 9.5,
              "duration": 1.9895833333333333
            },
            {
              "pitch": 31,
              "velocity": 80,
              "position": 11.5,
              "duration": 0.4791666666666667
            },
            {
              "pitch": 29,
              "velocity": 80,
              "position": 12,
              "duration": 0.7083333333333334
            },
            {
              "pitch": 36,
              "velocity": 80,
              "position": 12.75,
              "duration": 0.7395833333333334
            },
            {
              "pitch": 41,
              "velocity": 80,
              "position": 13.5,
              "duration": 2
            },
            {
              "pitch": 31,
              "velocity": 80,
              "position": 15.5,
              "duration": 0.4895833333333333
            }
          ]
        },
        "11": {
          "ctab": {
            "srcChannel": 11,
            "name": "guit28l",
            "accType": "CHORD1",
            "editable": false,
            "mutedNotes": [],
            "mutedChords": [
              "dim7",
              "dim",
              "minMaj7(9)",
              "minMaj7",
              "min7(11)",
              "min7(9)",
              "min(9)",
              "m7b5",
              "min7",
              "min6",
              "min"
            ],
            "autoStart": false,
            "sourceChordNote": 0,
            "sourceChordType": "Maj",
            "ctb2Low": null,
            "ctb2Main": {
              "ntr": "ROOT_TRANSPOSITION",
              "ntt": "HARMONIC_MINOR",
              "bassOn": false,
              "chordRootUpperLimit": 7,
              "noteLowLimit": 54,
              "noteHighLimit": 65,
              "rtr": "PITCH_SHIFT"
            },
            "ctb2High": null
          },
          "notes": [
            {
              "pitch": 55,
              "velocity": 101,
              "position": 0,
              "duration": 0.7395833333333334
            },
            {
              "pitch": 64,
              "velocity": 101,
              "position": 0,
              "duration": 0.7395833333333334
            },
            {
              "pitch": 60,
              "velocity": 101,
              "position": 0.010416666666666666,
              "duration": 0.7291666666666666
            },
            {
              "pitch": 60,
              "velocity": 64,
              "position": 0.75,
              "duration": 0.23958333333333334
            },
            {
              "pitch": 55,
              "velocity": 62,
              "position": 0.7604166666666666,
              "duration": 0.22916666666666666
            },
            {
              "pitch": 64,
              "velocity": 62,
              "position": 0.7708333333333334,
              "duration": 0.21875
            },
            {
              "pitch": 64,
              "velocity": 80,
              "position": 1,
              "duration": 0.4895833333333333
            },
            {
              "pitch": 55,
              "velocity": 80,
              "position": 1.0104166666666667,
              "duration": 0.4791666666666667
            },
            {
              "pitch": 60,
              "velocity": 80,
              "position": 1.0208333333333333,
              "duration": 0.46875
            },
            {
              "pitch": 55,
              "velocity": 100,
              "position": 1.5,
              "duration": 0.7395833333333334
            },
            {
              "pitch": 62,
              "velocity": 100,
              "position": 1.5,
              "duration": 0.7395833333333334
            },
            {
              "pitch": 59,
              "velocity": 100,
              "position": 1.5104166666666667,
              "duration": 0.7291666666666666
            },
            {
              "pitch": 59,
              "velocity": 61,
              "position": 2.25,
              "duration": 0.23958333333333334
            },
            {
              "pitch": 55,
              "velocity": 61,
              "position": 2.2604166666666665,
              "duration": 0.22916666666666666
            },
            {
              "pitch": 62,
              "velocity": 61,
              "position": 2.2708333333333335,
              "duration": 0.21875
            },
            {
              "pitch": 62,
              "velocity": 77,
              "position": 2.5,
              "duration": 0.4895833333333333
            },
            {
              "pitch": 55,
              "velocity": 77,
              "position": 2.5104166666666665,
              "duration": 0.4791666666666667
            },
            {
              "pitch": 59,
              "velocity": 77,
              "position": 2.5208333333333335,
              "duration": 0.46875
            },
            {
              "pitch": 55,
              "velocity": 100,
              "position": 3,
              "duration": 0.4895833333333333
            },
            {
              "pitch": 62,
              "velocity": 100,
              "position": 3,
              "duration": 0.4895833333333333
            },
            {
              "pitch": 59,
              "velocity": 100,
              "position": 3.0104166666666665,
              "duration": 0.4791666666666667
            },
            {
              "pitch": 62,
              "velocity": 77,
              "position": 3.5,
              "duration": 0.4895833333333333
            },
            {
              "pitch": 55,
              "velocity": 77,
              "position": 3.5104166666666665,
              "duration": 0.4791666666666667
            },
            {
              "pitch": 59,
              "velocity": 77,
              "position": 3.5208333333333335,
              "duration": 0.46875
            },
            {
              "pitch": 57,
              "velocity": 100,
              "position": 4,
              "duration": 0.7395833333333334
            },
            {
              "pitch": 60,
              "velocity": 100,
              "position": 4,
              "duration": 0.7395833333333334
            },
            {
              "pitch": 65,
              "velocity": 100,
              "position": 4,
              "duration": 0.7395833333333334
            },
            {
              "pitch": 60,
              "velocity": 64,
              "position": 4.75,
              "duration": 0.23958333333333334
            },
            {
              "pitch": 57,
              "velocity": 63,
              "position": 4.760416666666667,
              "duration": 0.22916666666666666
            },
            {
              "pitch": 65,
              "velocity": 63,
              "position": 4.770833333333333,
              "duration": 0.21875
            },
            {
              "pitch": 65,
              "velocity": 77,
              "position": 5,
              "duration": 0.4895833333333333
            },
            {
              "pitch": 57,
              "velocity": 79,
              "position": 5.010416666666667,
              "duration": 0.4791666666666667
            },
            {
              "pitch": 60,
              "velocity": 80,
              "position": 5.020833333333333,
              "duration": 0.46875
            },
            {
              "pitch": 55,
              "velocity": 91,
              "position": 5.5,
              "duration": 0.7291666666666666
            },
            {
              "pitch": 60,
              "velocity": 91,
              "position": 5.5,
              "duration": 0.7291666666666666
            },
            {
              "pitch": 64,
              "velocity": 91,
              "position": 5.5,
              "duration": 0.7291666666666666
            },
            {
              "pitch": 64,
              "velocity": 69,
              "position": 6.239583333333333,
              "duration": 0.25
            },
            {
              "pitch": 60,
              "velocity": 69,
              "position": 6.260416666666667,
              "duration": 0.22916666666666666
            },
            {
              "pitch": 55,
              "velocity": 69,
              "position": 6.270833333333333,
              "duration": 0.21875
            },
            {
              "pitch": 55,
              "velocity": 63,
              "position": 6.5,
              "duration": 0.4895833333333333
            },
            {
              "pitch": 60,
              "velocity": 63,
              "position": 6.510416666666667,
              "duration": 0.4791666666666667
            },
            {
              "pitch": 64,
              "velocity": 63,
              "position": 6.510416666666667,
              "duration": 0.4791666666666667
            },
            {
              "pitch": 55,
              "velocity": 91,
              "position": 7,
              "duration": 0.4895833333333333
            },
            {
              "pitch": 60,
              "velocity": 91,
              "position": 7,
              "duration": 0.4895833333333333
            },
            {
              "pitch": 64,
              "velocity": 95,
              "position": 7,
              "duration": 0.4895833333333333
            },
            {
              "pitch": 55,
              "velocity": 65,
              "position": 7.5,
              "duration": 0.4895833333333333
            },
            {
              "pitch": 60,
              "velocity": 64,
              "position": 7.510416666666667,
              "duration": 0.4791666666666667
            },
            {
              "pitch": 64,
              "velocity": 64,
              "position": 7.510416666666667,
              "duration": 0.4791666666666667
            },
            {
              "pitch": 57,
              "velocity": 101,
              "position": 8,
              "duration": 0.7395833333333334
            },
            {
              "pitch": 64,
              "velocity": 101,
              "position": 8,
              "duration": 0.7395833333333334
            },
            {
              "pitch": 60,
              "velocity": 101,
              "position": 8.010416666666666,
              "duration": 0.7291666666666666
            },
            {
              "pitch": 60,
              "velocity": 64,
              "position": 8.75,
              "duration": 0.23958333333333334
            },
            {
              "pitch": 57,
              "velocity": 62,
              "position": 8.760416666666666,
              "duration": 0.22916666666666666
            },
            {
              "pitch": 64,
              "velocity": 62,
              "position": 8.770833333333334,
              "duration": 0.21875
            },
            {
              "pitch": 64,
              "velocity": 80,
              "position": 9,
              "duration": 0.4895833333333333
            },
            {
              "pitch": 57,
              "velocity": 80,
              "position": 9.010416666666666,
              "duration": 0.4791666666666667
            },
            {
              "pitch": 60,
              "velocity": 80,
              "position": 9.020833333333334,
              "duration": 0.46875
            },
            {
              "pitch": 55,
              "velocity": 100,
              "position": 9.5,
              "duration": 0.7395833333333334
            },
            {
              "pitch": 62,
              "velocity": 100,
              "position": 9.5,
              "duration": 0.7395833333333334
            },
            {
              "pitch": 59,
              "velocity": 100,
              "position": 9.510416666666666,
              "duration": 0.7291666666666666
            },
            {
              "pitch": 59,
              "velocity": 59,
              "position": 10.25,
              "duration": 0.23958333333333334
            },
            {
              "pitch": 55,
              "velocity": 59,
              "position": 10.260416666666666,
              "duration": 0.22916666666666666
            },
            {
              "pitch": 62,
              "velocity": 59,
              "position": 10.270833333333334,
              "duration": 0.21875
            },
            {
              "pitch": 62,
              "velocity": 76,
              "position": 10.5,
              "duration": 0.4895833333333333
            },
            {
              "pitch": 55,
              "velocity": 76,
              "position": 10.510416666666666,
              "duration": 0.4791666666666667
            },
            {
              "pitch": 59,
              "velocity": 75,
              "position": 10.520833333333334,
              "duration": 0.46875
            },
            {
              "pitch": 55,
              "velocity": 100,
              "position": 11,
              "duration": 0.4895833333333333
            },
            {
              "pitch": 62,
              "velocity": 100,
              "position": 11,
              "duration": 0.4895833333333333
            },
            {
              "pitch": 59,
              "velocity": 100,
              "position": 11.010416666666666,
              "duration": 0.4791666666666667
            },
            {
              "pitch": 62,
              "velocity": 77,
              "position": 11.5,
              "duration": 0.4895833333333333
            },
            {
              "pitch": 55,
              "velocity": 77,
              "position": 11.510416666666666,
              "duration": 0.4791666666666667
            },
            {
              "pitch": 59,
              "velocity": 77,
              "position": 11.520833333333334,
              "duration": 0.46875
            },
            {
              "pitch": 57,
              "velocity": 100,
              "position": 12,
              "duration": 0.7395833333333334
            },
            {
              "pitch": 60,
              "velocity": 100,
              "position": 12.010416666666666,
              "duration": 0.7291666666666666
            },
            {
              "pitch": 53,
              "velocity": 100,
              "position": 12.020833333333334,
              "duration": 0.71875
            },
            {
              "pitch": 60,
              "velocity": 77,
              "position": 12.75,
              "duration": 0.7395833333333334
            },
            {
              "pitch": 53,
              "velocity": 77,
              "position": 12.760416666666666,
              "duration": 0.7291666666666666
            },
            {
              "pitch": 57,
              "velocity": 77,
              "position": 12.770833333333334,
              "duration": 0.71875
            },
            {
              "pitch": 60,
              "velocity": 99,
              "position": 13.5,
              "duration": 1.9895833333333333
            },
            {
              "pitch": 53,
              "velocity": 99,
              "position": 13.510416666666666,
              "duration": 1.9791666666666667
            },
            {
              "pitch": 57,
              "velocity": 99,
              "position": 13.520833333333334,
              "duration": 1.96875
            },
            {
              "pitch": 53,
              "velocity": 77,
              "position": 15.5,
              "duration": 0.4895833333333333
            },
            {
              "pitch": 57,
              "velocity": 79,
              "position": 15.510416666666666,
              "duration": 0.4791666666666667
            },
            {
              "pitch": 60,
              "velocity": 80,
              "position": 15.520833333333334,
              "duration": 0.46875
            }
          ]
        },
        "12": {
          "ctab": {
            "srcChannel": 12,
            "name": "guit28r",
            "accType": "CHORD2",
            "editable": false,
            "mutedNotes": [],
            "mutedChords": [
              "dim7",
              "dim",
              "minMaj7(9)",
              "minMaj7",
              "min7(11)",
              "min7(9)",
              "min(9)",
              "m7b5",
              "min7",
              "min6",
              "min"
            ],
            "autoStart": false,
            "sourceChordNote": 0,
            "sourceChordType": "Maj",
            "ctb2Low": null,
            "ctb2Main": {
              "ntr": "ROOT_TRANSPOSITION",
              "ntt": "HARMONIC_MINOR",
              "bassOn": false,
              "chordRootUpperLimit": 6,
              "noteLowLimit": 0,
              "noteHighLimit": 127,
              "rtr": "PITCH_SHIFT"
            },
            "ctb2High": null
          },
          "notes": [
            {
              "pitch": 60,
              "velocity": 31,
              "position": 0.5,
              "duration": 0.4895833333333333
            },
            {
              "pitch": 64,
              "velocity": 31,
              "position": 1,
              "duration": 0.4895833333333333
            },
            {
              "pitch": 62,
              "velocity": 118,
              "position": 1.5104166666666667,
              "duration": 1.4895833333333333
            },
            {
              "pitch": 62,
              "velocity": 31,
              "position": 3.5,
              "duration": 0.4895833333333333
            },
            {
              "pitch": 67,
              "velocity": 31,
              "position": 3,
              "duration": 0.9895833333333334
            },
            {
              "pitch": 65,
              "velocity": 31,
              "position": 4,
              "duration": 0.9895833333333334
            },
            {
              "pitch": 57,
              "velocity": 31,
              "position": 5,
              "duration": 0.4895833333333333
            },
            {
              "pitch": 60,
              "velocity": 31,
              "position": 4.5,
              "duration": 0.9895833333333334
            },
            {
              "pitch": 60,
              "velocity": 117,
              "position": 5.5,
              "duration": 2.4895833333333335
            },
            {
              "pitch": 64,
              "velocity": 117,
              "position": 5.5,
              "duration": 2.4895833333333335
            },
            {
              "pitch": 57,
              "velocity": 31,
              "position": 8,
              "duration": 1.4895833333333333
            },
            {
              "pitch": 64,
              "velocity": 31,
              "position": 9,
              "duration": 0.4895833333333333
            },
            {
              "pitch": 60,
              "velocity": 31,
              "position": 8.5,
              "duration": 1.4895833333333333
            },
            {
              "pitch": 67,
              "velocity": 31,
              "position": 9.5,
              "duration": 1.2395833333333333
            },
            {
              "pitch": 62,
              "velocity": 31,
              "position": 11,
              "duration": 0.9895833333333334
            },
            {
              "pitch": 59,
              "velocity": 31,
              "position": 10.5,
              "duration": 1.4895833333333333
            },
            {
              "pitch": 67,
              "velocity": 31,
              "position": 11.5,
              "duration": 0.4895833333333333
            },
            {
              "pitch": 57,
              "velocity": 31,
              "position": 12,
              "duration": 3.9895833333333335
            },
            {
              "pitch": 60,
              "velocity": 31,
              "position": 12,
              "duration": 3.9895833333333335
            },
            {
              "pitch": 65,
              "velocity": 118,
              "position": 13.5,
              "duration": 2.4895833333333335
            },
            {
              "pitch": 69,
              "velocity": 118,
              "position": 13.5,
              "duration": 2.4895833333333335
            }
          ]
        },
        "13": {
          "ctab": {
            "srcChannel": 13,
            "name": "strng",
            "accType": "PAD",
            "editable": false,
            "mutedNotes": [],
            "mutedChords": [
              "dim7",
              "dim",
              "minMaj7(9)",
              "minMaj7",
              "min7(11)",
              "min7(9)",
              "min(9)",
              "m7b5",
              "min7",
              "min6",
              "min"
            ],
            "autoStart": false,
            "sourceChordNote": 0,
            "sourceChordType": "Maj",
            "ctb2Low": null,
            "ctb2Main": {
              "ntr": "ROOT_TRANSPOSITION",
              "ntt": "HARMONIC_MINOR",
              "bassOn": false,
              "chordRootUpperLimit": 6,
              "noteLowLimit": 55,
              "noteHighLimit": 66,
              "rtr": "PITCH_SHIFT"
            },
            "ctb2High": null
          },
          "notes": [
            {
              "pitch": 52,
              "velocity": 89,
              "position": 0,
              "duration": 1.4895833333333333
            },
            {
              "pitch": 55,
              "velocity": 89,
              "position": 0,
              "duration": 1.4895833333333333
            },
            {
              "pitch": 60,
              "velocity": 89,
              "position": 0,
              "duration": 1.4895833333333333
            },
            {
              "pitch": 50,
              "velocity": 89,
              "position": 1.5,
              "duration": 2.4895833333333335
            },
            {
              "pitch": 55,
              "velocity": 89,
              "position": 1.5,
              "duration": 2.4895833333333335
            },
            {
              "pitch": 59,
              "velocity": 89,
              "position": 1.5,
              "duration": 2.4895833333333335
            },
            {
              "pitch": 53,
              "velocity": 89,
              "position": 4,
              "duration": 1.4895833333333333
            },
            {
              "pitch": 57,
              "velocity": 89,
              "position": 4,
              "duration": 1.4895833333333333
            },
            {
              "pitch": 60,
              "velocity": 89,
              "position": 4,
              "duration": 1.4895833333333333
            },
            {
              "pitch": 52,
              "velocity": 89,
              "position": 5.5,
              "duration": 2.4895833333333335
            },
            {
              "pitch": 55,
              "velocity": 89,
              "position": 5.5,
              "duration": 2.4895833333333335
            },
            {
              "pitch": 60,
              "velocity": 89,
              "position": 5.5,
              "duration": 2.4895833333333335
            },
            {
              "pitch": 52,
              "velocity": 89,
              "position": 8,
              "duration": 1.4895833333333333
            },
            {
              "pitch": 57,
              "velocity": 89,
              "position": 8,
              "duration": 1.4895833333333333
            },
            {
              "pitch": 60,
              "velocity": 89,
              "position": 8,
              "duration": 1.4895833333333333
            },
            {
              "pitch": 50,
              "velocity": 89,
              "position": 9.5,
              "duration": 2.4895833333333335
            },
            {
              "pitch": 55,
              "velocity": 89,
              "position": 9.5,
              "duration": 2.4895833333333335
            },
            {
              "pitch": 59,
              "velocity": 89,
              "position": 9.5,
              "duration": 2.4895833333333335
            },
            {
              "pitch": 53,
              "velocity": 89,
              "position": 12,
              "duration": 3.9895833333333335
            },
            {
              "pitch": 57,
              "velocity": 89,
              "position": 12,
              "duration": 3.9895833333333335
            },
            {
              "pitch": 60,
              "velocity": 89,
              "position": 12,
              "duration": 3.9895833333333335
            }
          ]
        }
      }
    }
  }
}