{
  "name": "SwingWaltz.S714.prs",
  "tempo": 74,
  "timeSignature": "3/4",
  "ticksPerQuarter": 1920,
  "sffType": "SFF1",
  "division": "EIGHTH_SHUFFLE",
  "parts": {
    "Main_A": {
      "type": "Main_A",
      "sizeInBeats": 12,
      "channels": {
        "0": {
          "ctab": {
            "srcChannel": 0,
            "name": "HiStFX",
            "accType": "CHORD1",
            "editable": false,
            "mutedNotes": [],
            "mutedChords": [],
            "autoStart": false,
            "sourceChordNote": 0,
            "sourceChordType": "min7(11)",
            "ctb2Low": null,
            "ctb2Main": {
              "ntr": "ROOT_FIXED",
              "ntt": "BYPASS",
              "bassOn": false,
              "chordRootUpperLimit": 7,
              "noteLowLimit": 0,
              "noteHighLimit": 79,
              "rtr": "PITCH_SHIFT"
            },
            "ctb2High": null
          },
          "notes": [
            {
              "pitch": 98,
              "velocity": 113,
              "position": 1,
              "duration": 0.23958333333333334
            },
            {
              "pitch": 100,
              "velocity": 104,
              "position": 2,
              "duration": 0.23958333333333334
            },
            {
              "pitch": 98,
              "velocity": 113,
              "position": 4,
              "duration": 0.23958333333333334
            },
            {
              "pitch": 100,
              "velocity": 104,
              "position": 5,
              "duration": 0.23958333333333334
            },
            {
              "pitch": 98,
              "velocity": 113,
              "position": 7,
              "duration": 0.23958333333333334
            },
            {
              "pitch": 100,
              "velocity": 104,
              "position": 8,
              "duration": 0.23958333333333334
            },
            {
              "pitch": 98,
              "velocity": 113,
              "position": 10,
              "duration": 0.23958333333333334
            },
            {
              "pitch": 100,
              "velocity": 92,
              "position": 11,
              "duration": 0.23958333333333334
            }
          ]
        },
        "1": {
          "ctab": {
            "srcChannel": 1,
            "name": "gtr low",
            "accType": "PHRASE1",
            "editable": false,
            "mutedNotes": [],
            "mutedChords": [],
            "autoStart": false,
            "sourceChordNote": 0,
            "sourceChordType": "Maj7",
            "ctb2Low": null,
            "ctb2Main": {
              "ntr": "ROOT_TRANSPOSITION",
              "ntt": "MELODY",
              "bassOn": true,
              "chordRootUpperLimit": 6,
              "noteLowLimit": 40,
              "noteHighLimit": 127,
              "rtr": "PITCH_SHIFT_TO_ROOT"
            },
            "ctb2High": null
          },
          "notes": [
            {
              "pitch": 48,
              "velocity": 43,
              "position": 0,
              "duration": 2.9895833333333335
            },
            {
              "pitch": 48,
              "velocity": 43,
              "position": 3,
              "duration": 2.9895833333333335
            },
            {
              "pitch": 48,
              "velocity": 43,
              "position": 6,
              "duration": 2.9895833333333335
            },
            {
              "pitch": 48,
              "velocity": 43,
              "position": 9,
              "duration": 2.9895833333333335
            }
          ]
        },
        "2": {
          "ctab": {
            "srcChannel": 2,
            "name": "strg",
            "accType": "PAD",
            "editable": false,
            "mutedNotes": [],
            "mutedChords": [
              "1+2+5",
              "sus4",
              "1+5",
              "1+8",
              "Maj7aug",
              "dim",
              "minMaj7(9)",
              "minMaj7",
              "min6",
              "min",
              "aug",
              "Maj7(9)",
              "Maj7#11",
              "Maj7",
              "Maj6",
              "Maj"
            ],
            "autoStart": false,
            "sourceChordNote": 0,
            "sourceChordType": "Maj7",
            "ctb2Low": null,
            "ctb2Main": {
              "ntr": "ROOT_TRANSPOSITION",
              "ntt": "CHORD",
              "bassOn": false,
              "chordRootUpperLimit": 6,
              "noteLowLimit": 0,
              "noteHighLimit": 127,
              "rtr": "PITCH_SHIFT"
            },
            "ctb2High": null
          },
          "notes": [
            {
              "pitch": 60,
              "velocity": 31,
              "position": 0,
              "duration": 11.989583333333334
            }
          ]
        },
        "3": {
          "ctab": {
            "srcChannel": 3,
            "name": "gtr25",
            "accType": "PHRASE1",
            "editable": false,
            "mutedNotes": [],
            "mutedChords": [],
            "autoStart": false,
            "sourceChordNote": 0,
            "sourceChordType": "min7(11)",
            "ctb2Low": null,
            "ctb2Main": {
              "ntr": "ROOT_FIXED",
              "ntt": "CHORD",
              "bassOn": false,
              "chordRootUpperLimit": 6,
              "noteLowLimit": 50,
              "noteHighLimit": 127,
              "rtr": "PITCH_SHIFT"
            },
            "ctb2High": null
          },
          "notes": [
            {
              "pitch": 53,
              "velocity": 55,
              "position": 0.6666666666666666,
              "duration": 0.9895833333333334
            },
            {
              "pitch": 58,
              "velocity": 55,
              "position": 1,
              "duration": 1.65625
            },
            {
              "pitch": 53,
              "velocity": 55,
              "position": 1.6666666666666667,
              "duration": 1.9895833333333333
            },
            {
              "pitch": 58,
              "velocity": 55,
              "position": 2.6666666666666665,
              "duration": 1.3229166666666667
            },
            {
              "pitch": 53,
              "velocity": 55,
              "position": 3.6666666666666665,
              "duration": 0.9895833333333334
            },
            {
              "pitch": 63,
              "velocity": 59,
              "position": 2,
              "duration": 2.9895833333333335
            },
            {
              "pitch": 53,
              "velocity": 55,
              "position": 6.666666666666667,
              "duration": 0.9895833333333334
            },
            {
              "pitch": 63,
              "velocity": 59,
              "position": 5,
              "duration": 2.9895833333333335
            },
            {
              "pitch": 58,
              "velocity": 55,
              "position": 7,
              "duration": 1.65625
            },
            {
              "pitch": 53,
              "velocity": 55,
              "position": 7.666666666666667,
              "duration": 1.9895833333333333
            },
            {
              "pitch": 58,
              "velocity": 55,
              "position": 8.666666666666666,
              "duration": 1.3229166666666667
            },
            {
              "pitch": 53,
              "velocity": 55,
              "position": 9.666666666666666,
              "duration": 0.9895833333333334
            },
            {
              "pitch": 63,
              "velocity": 59,
              "position": 8,
              "duration": 2.9895833333333335
            },
            {
              "pitch": 63,
              "velocity": 59,
              "position": 11,
              "duration": 0.9895833333333334
            }
          ]
        },
        "4": {
          "ctab": {
            "srcChannel": 4,
            "name": "gtr25",
            "accType": "CHORD1",
            "editable": false,
            "mutedNotes": [],
            "mutedChords": [],
            "autoStart": false,
            "sourceChordNote": 0,
            "sourceChordType": "min7(11)",
            "ctb2Low": null,
            "ctb2Main": {
              "ntr": "ROOT_FIXED",
              "ntt": "CHORD",
              "bassOn": false,
              "chordRootUpperLimit": 7,
              "noteLowLimit": 38,
              "noteHighLimit": 127,
              "rtr": "PITCH_SHIFT"
            },
            "ctb2High": null
          },
          "notes": [
            {
              "pitch": 41,
              "velocity": 113,
              "position": 1,
              "duration": 0.9895833333333334
            },
            {
              "pitch": 46,
              "velocity": 109,
              "position": 1,
              "duration": 0.9895833333333334
            },
            {
              "pitch": 51,
              "velocity": 113,
              "position": 1.0104166666666667,
              "duration": 0.9791666666666666
            },
            {
              "pitch": 41,
              "velocity": 104,
              "position": 2,
              "duration": 1.9895833333333333
            },
            {
              "pitch": 46,
              "velocity": 104,
              "position": 2,
              "duration": 1.9895833333333333
            },
            {
              "pitch": 51,
              "velocity": 104,
              "position": 2.0104166666666665,
              "duration": 1.9791666666666667
            },
            {
              "pitch": 41,
              "velocity": 113,
              "position": 4,
              "duration": 0.9895833333333334
            },
            {
              "pitch": 46,
              "velocity": 109,
              "position": 4,
              "duration": 0.9895833333333334
            },
            {
              "pitch": 51,
              "velocity": 113,
              "position": 4.010416666666667,
              "duration": 0.9791666666666666
            },
            {
              "pitch": 41,
              "velocity": 104,
              "position": 5,
              "duration": 1.9895833333333333
            },
            {
              "pitch": 46,
              "velocity": 104,
              "position": 5,
              "duration": 1.9895833333333333
            },
            {
              "pitch": 51,
              "velocity": 104,
              "position": 5.010416666666667,
              "duration": 1.9791666666666667
            },
            {
              "pitch": 41,
              "velocity": 113,
              "position": 7,
              "duration": 0.9895833333333334
            },
            {
              "pitch": 46,
              "velocity": 109,
              "position": 7,
              "duration": 0.9895833333333334
            },
            {
              "pitch": 51,
              "velocity": 113,
              "position": 7.010416666666667,
              "duration": 0.9791666666666666
            },
            {
              "pitch": 41,
              "velocity": 104,
              "position": 8,
              "duration": 1.9895833333333333
            },
            {
              "pitch": 46,
              "velocity": 104,
              "position": 8,
              "duration": 1.9895833333333333
            },
            {
              "pitch": 51,
              "velocity": 104,
              "position": 8.010416666666666,
              "duration": 1.9791666666666667
            },
            {
              "pitch": 41,
              "velocity": 113,
              "position": 10,
              "duration": 0.9895833333333334
            },
            {
              "pitch": 46,
              "velocity": 109,
              "position": 10,
              "duration": 0.9895833333333334
            },
            {
              "pitch": 51,
              "velocity": 113,
              "position": 10.010416666666666,
              "duration": 0.9791666666666666
            },
            {
              "pitch": 41,
              "velocity": 92,
              "position": 11,
              "duration": 0.9895833333333334
            },
            {
              "pitch": 46,
              "velocity": 92,
              "position": 11,
              "duration": 0.9895833333333334
            },
            {
              "pitch": 51,
              "velocity": 92,
              "position": 11.010416666666666,
              "duration": 0.9791666666666666
            }
          ]
        },
        "5": {
          "ctab": {
            "srcChannel": 5,
            "name": "epi 04",
            "accType": "CHORD2",
            "editable": false,
            "mutedNotes": [],
            "mutedChords": [],
            "autoStart": false,
            "sourceChordNote": 0,
            "sourceChordType": "Maj7",
            "ctb2Low": null,
            "ctb2Main": {
              "ntr": "ROOT_FIXED",
              "ntt": "CHORD",
              "bassOn": false,
              "chordRootUpperLimit": 7,
              "noteLowLimit": 50,
              "noteHighLimit": 127,
              "rtr": "PITCH_SHIFT"
            },
            "ctb2High": null
          },
          "notes": [
            {
              "pitch": 55,
              "velocity": 64,
              "position": 0,
              "duration": 1.7395833333333333
            },
            {
              "pitch": 59,
              "velocity": 31,
              "position": 0.6666666666666666,
              "duration": 1.3229166666666667
            },
            {
              "pitch": 64,
              "velocity": 50,
              "position": 1,
              "duration": 4.65625
            },
            {
              "pitch": 67,
              "velocity": 38,
              "position": 1,
              "duration": 4.65625
            },
            {
              "pitch": 71,
              "velocity": 38,
              "position": 1,
              "duration": 4.65625
            },
            {
              "pitch": 59,
              "velocity": 42,
              "position": 5.666666666666667,
              "duration": 0.3229166666666667
            },
            {
              "pitch": 55,
              "velocity": 64,
              "position": 6,
              "duration": 1.7395833333333333
            },
            {
              "pitch": 59,
              "velocity": 38,
              "position": 6.666666666666667,
              "duration": 1.3229166666666667
            },
            {
              "pitch": 64,
              "velocity": 50,
              "position": 7,
              "duration": 4.65625
            },
            {
              "pitch": 67,
              "velocity": 38,
              "position": 7,
              "duration": 4.65625
            },
            {
              "pitch": 71,
              "velocity": 38,
              "position": 7,
              "duration": 4.65625
            },
            {
              "pitch": 59,
              "velocity": 35,
              "position": 11.666666666666666,
              "duration": 0.3229166666666667
            }
          ]
        },
        "6": {
          "ctab": {
            "srcChannel": 6,
            "name": "strg",
            "accType": "PAD",
            "editable": false,
            "mutedNotes": [],
            "mutedChords": [],
            "autoStart": false,
            "sourceChordNote": 0,
            "sourceChordType": "min7(11)",
            "ctb2Low": null,
            "ctb2Main": {
              "ntr": "ROOT_FIXED",
              "ntt": "CHORD",
              "bassOn": false,
              "chordRootUpperLimit": 7,
              "noteLowLimit": 50,
              "noteHighLimit": 127,
              "rtr": "PITCH_SHIFT"
            },
            "ctb2High": null
          },
          "notes": [
            {
              "pitch": 53,
              "velocity": 31,
              "position": 0,
              "duration": 11.989583333333334
            },
            {
              "pitch": 58,
              "velocity": 31,
              "position": 0,
              "duration": 11.989583333333334
            },
            {
              "pitch": 63,
              "velocity": 31,
              "position": 0,
              "duration": 11.989583333333334
            }
          ]
        },
        "7": {
          "ctab": {
            "srcChannel": 7,
            "name": "gtr root",
            "accType": "CHORD1",
            "editable": false,
            "mutedNotes": [],
            "mutedChords": [
              "1+2+5",
              "sus4",
              "1+5",
              "1+8",
              "Maj7aug",
              "dim",
              "minMaj7(9)",
              "minMaj7",
              "min6",
              "min",
              "aug",
              "Maj7(9)",
              "Maj7#11",
              "Maj7",
              "Maj6",
              "Maj"
            ],
            "autoStart": false,
            "sourceChordNote": 0,
            "sourceChordType": "Maj7",
            "ctb2Low": null,
            "ctb2Main": {
              "ntr": "ROOT_TRANSPOSITION",
              "ntt": "CHORD",
              "bassOn": false,
              "chordRootUpperLimit": 6,
              "noteLowLimit": 0,
              "noteHighLimit": 127,
              "rtr": "PITCH_SHIFT"
            },
            "ctb2High": null
          },
          "notes": [
            {
              "pitch": 48,
              "velocity": 109,
              "position": 1,
              "duration": 0.9895833333333334
            },
            {
              "pitch": 48,
              "velocity": 104,
              "position": 2,
              "duration": 1.9895833333333333
            },
            {
              "pitch": 48,
              "velocity": 109,
              "position": 4,
              "duration": 0.9895833333333334
            },
            {
              "pitch": 48,
              "velocity": 104,
              "position": 5,
              "duration": 1.9895833333333333
            },
            {
              "pitch": 48,
              "velocity": 109,
              "position": 7,
              "duration": 0.9895833333333334
            },
            {
              "pitch": 48,
              "velocity": 104,
              "position": 8,
              "duration": 1.9895833333333333
            },
            {
              "pitch": 48,
              "velocity": 109,
              "position": 10,
              "duration": 0.9895833333333334
            },
            {
              "pitch": 48,
              "velocity": 92,
              "position": 11,
              "duration": 0.9895833333333334
            }
          ]
        },
        "8": {
          "ctab": {
            "srcChannel": 8,
            "name": "add-dr",
            "accType": "SUBRHYTHM",
            "editable": false,
            "mutedNotes": [],
            "mutedChords": [],
            "autoStart": true,
            "sourceChordNote": 0,
            "sourceChordType": "Maj7",
            "ctb2Low": null,
            "ctb2Main": {
              "ntr": "ROOT_FIXED",
              "ntt": "BYPASS",
              "bassOn": false,
              "chordRootUpperLimit": 7,
              "noteLowLimit": 0,
              "noteHighLimit": 127,
              "rtr": "PITCH_SHIFT"
            },
            "ctb2High": null
          },
          "notes": [
            {
              "pitch": 54,
              "velocity": 71,
              "position": 5,
              "duration": 0.010416666666666666
            },
            {
              "pitch": 54,
              "velocity": 71,
              "position": 11,
              "duration": 0.010416666666666666
            }
          ]
        },
        "9": {
          "ctab": {
            "srcChannel": 9,
            "name": "m-drums",
            "accType": "RHYTHM",
            "editable": false,
            "mutedNotes": [],
            "mutedChords": [],
            "autoStart": true,
            "sourceChordNote": 0,
            "sourceChordType": "Maj7",
            "ctb2Low": null,
            "ctb2Main": {
              "ntr": "ROOT_FIXED",
              "ntt": "BYPASS",
              "bassOn": false,
              "chordRootUpperLimit": 7,
              "noteLowLimit": 0,
              "noteHighLimit": 127,
              "rtr": "PITCH_SHIFT"
            },
            "ctb2High": null
          },
          "notes": [
            {
              "pitch": 35,
              "velocity": 82,
              "position": 0,
              "duration": 0.03125
            },
            {
              "pitch": 42,
              "velocity": 68,
              "position": 0,
              "duration": 0.03125
            },
            {
              "pitch": 51,
              "velocity": 57,
              "position": 0,
              "duration": 0.08333333333333333
            },
            {
              "pitch": 42,
              "velocity": 56,
              "position": 1,
              "duration": 0.03125
            },
            {
              "pitch": 42,
              "velocity": 84,
              "position": 2,
              "duration": 0.03125
            },
            {
              "pitch": 35,
              "velocity": 54,
              "position": 2.6666666666666665,
              "duration": 0.03125
            },
            {
              "pitch": 42,
              "velocity": 26,
              "position": 2.6666666666666665,
              "duration": 0.03125
            },
            {
              "pitch": 35,
              "velocity": 82,
              "position": 3,
              "duration": 0.03125
            },
            {
              "pitch": 42,
              "velocity": 68,
              "position": 3,
              "duration": 0.03125
            },
            {
              "pitch": 51,
              "velocity": 57,
              "position": 3,
              "duration": 0.041666666666666664
            },
            {
              "pitch": 42,
              "velocity": 56,
              "position": 4,
              "duration": 0.03125
            },
            {
              "pitch": 42,
              "velocity": 84,
              "position": 5,
              "duration": 0.03125
            },
            {
              "pitch": 42,
              "velocity": 26,
              "position": 5.666666666666667,
              "duration": 0.03125
            },
            {
              "pitch": 35,
              "velocity": 82,
              "position": 6,
              "duration": 0.03125
            },
            {
              "pitch": 42,
              "velocity": 68,
              "position": 6,
              "duration": 0.03125
            },
            {
              "pitch": 51,
              "velocity": 57,
              "position": 6,
              "duration": 0.08333333333333333
            },
            {
              "pitch": 42,
              "velocity": 56,
              "position": 7,
              "duration": 0.03125
            },
            {
              "pitch": 42,
              "velocity": 84,
              "position": 8,
              "duration": 0.03125
            },
            {
              "pitch": 35,
              "velocity": 54,
              "position": 8.666666666666666,
              "duration": 0.03125
            },
            {
              "pitch": 42,
              "velocity": 26,
              "position": 8.666666666666666,
              "duration": 0.03125
            },
            {
              "pitch": 35,
              "velocity": 82,
              "position": 9,
              "duration": 0.03125
            },
            {
              "pitch": 42,
              "velocity": 68,
              "position": 9,
              "duration": 0.03125
            },
            {
              "pitch": 51,
              "velocity": 57,
              "position": 9,
              "duration": 0.041666666666666664
            },
            {
              "pitch": 42,
              "velocity": 56,
              "position": 10,
              "duration": 0.03125
            },
            {
              "pitch": 42,
              "velocity": 84,
              "position": 11,
              "duration": 0.03125
            },
            {
              "pitch": 42,
              "velocity": 26,
              "position": 11.666666666666666,
              "duration": 0.03125
            }
          ]
        },
        "10": {
          "ctab": {
            "srcChannel": 10,
            "name": "CC_Crash",
            "accType": "RHYTHM",
            "editable": false,
            "mutedNotes": [],
            "mutedChords": [
              "1+2+5",
              "sus4",
              "1+5",
              "1+8",
              "7aug",
              "Maj7aug",
              "7(#9)",
              "7(b13)",
              "7(b9)",
              "7(13)",
              "7#11",
              "7(9)",
              "7b5",
              "7sus4",
              "7th",
              "dim7",
              "dim",
              "minMaj7(9)",
              "minMaj7",
              "min7(11)",
              "min7(9)",
              "min(9)",
              "m7b5",
              "min7",
              "min6",
              "min",
              "aug",
              "Maj6(9)",
              "Maj7(9)",
              "Maj(9)",
              "Maj7#11",
              "Maj7",
              "Maj6",
              "Maj"
            ],
            "autoStart": true,
            "sourceChordNote": 0,
            "sourceChordType": "Maj",
            "ctb2Low": null,
            "ctb2Main": {
              "ntr": "ROOT_FIXED",
              "ntt": "BYPASS",
              "bassOn": false,
              "chordRootUpperLimit": 0,
              "noteLowLimit": 0,
              "noteHighLimit": 127,
              "rtr": "RETRIGGER"
            },
            "ctb2High": null
          },
          "notes": []
        },
        "12": {
          "ctab": {
            "srcChannel": 12,
            "name": "bass",
            "accType": "BASS",
            "editable": false,
            "mutedNotes": [],
            "mutedChords": [],
            "autoStart": false,
            "sourceChordNote": 0,
            "sourceChordType": "Maj7",
            "ctb2Low": null,
            "ctb2Main": {
              "ntr": "ROOT_TRANSPOSITION",
              "ntt": "MELODY",
              "bassOn": true,
              "chordRootUpperLimit": 8,
              "noteLowLimit": 28,
              "noteHighLimit": 127,
              "rtr": "PITCH_SHIFT_TO_ROOT"
            },
            "ctb2High": null
          },
          "notes": [
            {
              "pitch": 24,
              "velocity": 95,
              "position": 0,
              "duration": 2.65625
            },
            {
              "pitch": 24,
              "velocity": 63,
              "position": 2.6666666666666665,
              "duration": 0.3229166666666667
            },
            {
              "pitch": 24,
              "velocity": 95,
              "position": 3,
              "duration": 2.9895833333333335
            },
            {
              "pitch": 24,
              "velocity": 95,
              "position": 6,
              "duration": 2.65625
            },
            {
              "pitch": 24,
              "velocity": 63,
              "position": 8.666666666666666,
              "duration": 0.3229166666666667
            },
            {
              "pitch": 24,
              "velocity": 95,
              "position": 9,
              "duration": 2.9895833333333335
            }
          ]
        },
        "15": {
          "ctab": {
            "srcChannel": 15,
            "name": "StFX",
            "accType": "PHRASE1",
            "editable": false,
            "mutedNotes": [],
            "mutedChords": [],
            "autoStart": false,
            "sourceChordNote": 0,
            "sourceChordType": "min7(11)",
            "ctb2Low": null,
            "ctb2Main": {
              "ntr": "ROOT_FIXED",
              "ntt": "BYPASS",
              "bassOn": false,
              "chordRootUpperLimit": 7,
              "noteLowLimit": 0,
              "noteHighLimit": 127,
              "rtr": "PITCH_SHIFT"
            },
            "ctb2High": null
          },
          "notes": []
        }
      }
    },
    "Main_B": {
      "type": "Main_B",
      "sizeInBeats": 12,
      "channels": {
        "0": {
          "ctab": {
            "srcChannel": 0,
            "name": "HiStFX",
            "accType": "CHORD1",
            "editable": false,
            "mutedNotes": [],
            "mutedChords": [],
            "autoStart": false,
            "sourceChordNote": 0,
            "sourceChordType": "min7(11)",
            "ctb2Low": null,
            "ctb2Main": {
              "ntr": "ROOT_FIXED",
              "ntt": "BYPASS",
              "bassOn": false,
              "chordRootUpperLimit": 7,
              "noteLowLimit": 0,
              "noteHighLimit": 79,
              "rtr": "PITCH_SHIFT"
            },
            "ctb2High": null
          },
          "notes": [
            {
              "pitch": 98,
              "velocity": 116,
              "position": 0,
              "duration": 0.23958333333333334
            },
            {
              "pitch": 98,
              "velocity": 100,
              "position": 1,
              "duration": 0.23958333333333334
            },
            {
              "pitch": 100,
              "velocity": 100,
              "position": 2,
              "duration": 0.23958333333333334
            },
            {
              "pitch": 99,
              "velocity": 86,
              "position": 2.6666666666666665,
              "duration": 0.23958333333333334
            },
            {
              "pitch": 98,
              "velocity": 117,
              "position": 3,
              "duration": 0.23958333333333334
            },
            {
              "pitch": 99,
              "velocity": 84,
              "position": 3.6666666666666665,
              "duration": 0.23958333333333334
            },
            {
              "pitch": 98,
              "velocity": 98,
              "position": 4,
              "duration": 0.23958333333333334
            },
            {
              "pitch": 100,
              "velocity": 100,
              "position": 8,
              "duration": 0.23958333333333334
            },
            {
              "pitch": 99,
              "velocity": 86,
              "position": 8.666666666666666,
              "duration": 0.23958333333333334
            },
            {
              "pitch": 98,
              "velocity": 117,
              "position": 9,
              "duration": 0.23958333333333334
            },
            {
              "pitch": 99,
              "velocity": 84,
              "position": 9.666666666666666,
              "duration": 0.23958333333333334
            },
            {
              "pitch": 98,
              "velocity": 98,
              "position": 10,
              "duration": 0.23958333333333334
            },
            {
              "pitch": 100,
              "velocity": 103,
              "position": 11,
              "duration": 0.23958333333333334
            },
            {
              "pitch": 99,
              "velocity": 84,
              "position": 11.666666666666666,
              "duration": 0.23958333333333334
            }
          ]
        },
        "1": {
          "ctab": {
            "srcChannel": 1,
            "name": "gtr low",
            "accType": "PHRASE1",
            "editable": false,
            "mutedNotes": [],
            "mutedChords": [],
            "autoStart": false,
            "sourceChordNote": 0,
            "sourceChordType": "Maj7",
            "ctb2Low": null,
            "ctb2Main": {
              "ntr": "ROOT_TRANSPOSITION",
              "ntt": "MELODY",
              "bassOn": true,
              "chordRootUpperLimit": 6,
              "noteLowLimit": 40,
              "noteHighLimit": 127,
              "rtr": "PITCH_SHIFT_TO_ROOT"
            },
            "ctb2High": null
          },
          "notes": [
            {
              "pitch": 48,
              "velocity": 43,
              "position": 0,
              "duration": 1.9895833333333333
            },
            {
              "pitch": 48,
              "velocity": 43,
              "position": 3,
              "duration": 1.9895833333333333
            },
            {
              "pitch": 48,
              "velocity": 43,
              "position": 6,
              "duration": 1.9895833333333333
            },
            {
              "pitch": 48,
              "velocity": 43,
              "position": 9,
              "duration": 1.9895833333333333
            }
          ]
        },
        "2": {
          "ctab": {
            "srcChannel": 2,
            "name": "strg",
            "accType": "PAD",
            "editable": false,
            "mutedNotes": [],
            "mutedChords": [
              "1+2+5",
              "sus4",
              "1+5",
              "1+8",
              "Maj7aug",
              "dim",
              "minMaj7(9)",
              "minMaj7",
              "min6",
              "min",
              "aug",
              "Maj7(9)",
              "Maj7#11",
              "Maj7",
              "Maj6",
              "Maj"
            ],
            "autoStart": false,
            "sourceChordNote": 0,
            "sourceChordType": "Maj7",
            "ctb2Low": null,
            "ctb2Main": {
              "ntr": "ROOT_TRANSPOSITION",
              "ntt": "CHORD",
              "bassOn": false,
              "chordRootUpperLimit": 6,
              "noteLowLimit": 0,
              "noteHighLimit": 127,
              "rtr": "PITCH_SHIFT"
            },
            "ctb2High": null
          },
          "notes": [
            {
              "pitch": 60,
              "velocity": 36,
              "position": 0,
              "duration": 11.989583333333334
            }
          ]
        },
        "3": {
          "ctab": {
            "srcChannel": 3,
            "name": "gtr25",
            "accType": "PHRASE1",
            "editable": false,
            "mutedNotes": [],
            "mutedChords": [],
            "autoStart": false,
            "sourceChordNote": 0,
            "sourceChordType": "min7(11)",
            "ctb2Low": null,
            "ctb2Main": {
              "ntr": "ROOT_FIXED",
              "ntt": "CHORD",
              "bassOn": false,
              "chordRootUpperLimit": 6,
              "noteLowLimit": 50,
              "noteHighLimit": 127,
              "rtr": "PITCH_SHIFT"
            },
            "ctb2High": null
          },
          "notes": [
            {
              "pitch": 53,
              "velocity": 54,
              "position": 0.6770833333333334,
              "duration": 0.9895833333333334
            },
            {
              "pitch": 58,
              "velocity": 59,
              "position": 1,
              "duration": 0.9895833333333334
            },
            {
              "pitch": 63,
              "velocity": 58,
              "position": 1.0104166666666667,
              "duration": 0.9895833333333334
            },
            {
              "pitch": 53,
              "velocity": 54,
              "position": 1.6770833333333333,
              "duration": 0.9895833333333334
            },
            {
              "pitch": 58,
              "velocity": 58,
              "position": 2,
              "duration": 0.9895833333333334
            },
            {
              "pitch": 63,
              "velocity": 59,
              "position": 2.0104166666666665,
              "duration": 0.9895833333333334
            },
            {
              "pitch": 53,
              "velocity": 54,
              "position": 2.6770833333333335,
              "duration": 0.65625
            },
            {
              "pitch": 58,
              "velocity": 58,
              "position": 4,
              "duration": 0.9895833333333334
            },
            {
              "pitch": 63,
              "velocity": 58,
              "position": 4.010416666666667,
              "duration": 0.9895833333333334
            },
            {
              "pitch": 53,
              "velocity": 54,
              "position": 3.6770833333333335,
              "duration": 1.7395833333333333
            },
            {
              "pitch": 58,
              "velocity": 59,
              "position": 5,
              "duration": 0.9895833333333334
            },
            {
              "pitch": 63,
              "velocity": 58,
              "position": 5.010416666666667,
              "duration": 0.9895833333333334
            },
            {
              "pitch": 53,
              "velocity": 48,
              "position": 5.677083333333333,
              "duration": 0.65625
            },
            {
              "pitch": 53,
              "velocity": 54,
              "position": 6.677083333333333,
              "duration": 0.9895833333333334
            },
            {
              "pitch": 58,
              "velocity": 58,
              "position": 7,
              "duration": 0.9895833333333334
            },
            {
              "pitch": 63,
              "velocity": 55,
              "position": 7.010416666666667,
              "duration": 0.9895833333333334
            },
            {
              "pitch": 53,
              "velocity": 58,
              "position": 7.677083333333333,
              "duration": 0.9895833333333334
            },
            {
              "pitch": 58,
              "velocity": 58,
              "position": 8,
              "duration": 0.9895833333333334
            },
            {
              "pitch": 63,
              "velocity": 57,
              "position": 8.010416666666666,
              "duration": 0.9895833333333334
            },
            {
              "pitch": 53,
              "velocity": 54,
              "position": 8.677083333333334,
              "duration": 0.65625
            },
            {
              "pitch": 58,
              "velocity": 58,
              "position": 10,
              "duration": 0.9895833333333334
            },
            {
              "pitch": 63,
              "velocity": 58,
              "position": 10.010416666666666,
              "duration": 0.9895833333333334
            },
            {
              "pitch": 53,
              "velocity": 52,
              "position": 9.677083333333334,
              "duration": 1.7395833333333333
            },
            {
              "pitch": 58,
              "velocity": 58,
              "position": 11,
              "duration": 0.9375
            },
            {
              "pitch": 63,
              "velocity": 57,
              "position": 11.010416666666666,
              "duration": 0.9375
            },
            {
              "pitch": 53,
              "velocity": 58,
              "position": 11.677083333333334,
              "duration": 0.28125
            }
          ]
        },
        "4": {
          "ctab": {
            "srcChannel": 4,
            "name": "gtr25",
            "accType": "CHORD1",
            "editable": false,
            "mutedNotes": [],
            "mutedChords": [],
            "autoStart": false,
            "sourceChordNote": 0,
            "sourceChordType": "min7(11)",
            "ctb2Low": null,
            "ctb2Main": {
              "ntr": "ROOT_FIXED",
              "ntt": "CHORD",
              "bassOn": false,
              "chordRootUpperLimit": 7,
              "noteLowLimit": 38,
              "noteHighLimit": 127,
              "rtr": "PITCH_SHIFT"
            },
            "ctb2High": null
          },
          "notes": [
            {
              "pitch": 41,
              "velocity": 109,
              "position": 0,
              "duration": 0.9895833333333334
            },
            {
              "pitch": 46,
              "velocity": 109,
              "position": 0,
              "duration": 0.9895833333333334
            },
            {
              "pitch": 51,
              "velocity": 116,
              "position": 0.010416666666666666,
              "duration": 0.9791666666666666
            },
            {
              "pitch": 41,
              "velocity": 89,
              "position": 1,
              "duration": 0.9895833333333334
            },
            {
              "pitch": 46,
              "velocity": 95,
              "position": 1,
              "duration": 0.9895833333333334
            },
            {
              "pitch": 51,
              "velocity": 100,
              "position": 1.0104166666666667,
              "duration": 0.9791666666666666
            },
            {
              "pitch": 41,
              "velocity": 91,
              "position": 2,
              "duration": 0.65625
            },
            {
              "pitch": 46,
              "velocity": 100,
              "position": 2,
              "duration": 0.65625
            },
            {
              "pitch": 51,
              "velocity": 100,
              "position": 2.0104166666666665,
              "duration": 0.6458333333333334
            },
            {
              "pitch": 46,
              "velocity": 85,
              "position": 2.6666666666666665,
              "duration": 0.3229166666666667
            },
            {
              "pitch": 51,
              "velocity": 86,
              "position": 2.6666666666666665,
              "duration": 0.3229166666666667
            },
            {
              "pitch": 41,
              "velocity": 79,
              "position": 2.6770833333333335,
              "duration": 0.3125
            },
            {
              "pitch": 41,
              "velocity": 107,
              "position": 3,
              "duration": 0.65625
            },
            {
              "pitch": 46,
              "velocity": 113,
              "position": 3,
              "duration": 0.65625
            },
            {
              "pitch": 51,
              "velocity": 117,
              "position": 3.0104166666666665,
              "duration": 0.6458333333333334
            },
            {
              "pitch": 46,
              "velocity": 82,
              "position": 3.6666666666666665,
              "duration": 0.3229166666666667
            },
            {
              "pitch": 51,
              "velocity": 84,
              "position": 3.6666666666666665,
              "duration": 0.3229166666666667
            },
            {
              "pitch": 41,
              "velocity": 78,
              "position": 3.6770833333333335,
              "duration": 0.3125
            },
            {
              "pitch": 41,
              "velocity": 88,
              "position": 4,
              "duration": 0.9895833333333334
            },
            {
              "pitch": 46,
              "velocity": 95,
              "position": 4,
              "duration": 0.9895833333333334
            },
            {
              "pitch": 51,
              "velocity": 98,
              "position": 4.010416666666667,
              "duration": 0.9791666666666666
            },
            {
              "pitch": 41,
              "velocity": 93,
              "position": 5,
              "duration": 0.65625
            },
            {
              "pitch": 46,
              "velocity": 100,
              "position": 5,
              "duration": 0.65625
            },
            {
              "pitch": 51,
              "velocity": 103,
              "position": 5.010416666666667,
              "duration": 0.6458333333333334
            },
            {
              "pitch": 46,
              "velocity": 85,
              "position": 5.666666666666667,
              "duration": 0.3229166666666667
            },
            {
              "pitch": 51,
              "velocity": 84,
              "position": 5.666666666666667,
              "duration": 0.3229166666666667
            },
            {
              "pitch": 41,
              "velocity": 81,
              "position": 5.677083333333333,
              "duration": 0.3125
            },
            {
              "pitch": 41,
              "velocity": 109,
              "position": 6,
              "duration": 0.9895833333333334
            },
            {
              "pitch": 46,
              "velocity": 109,
              "position": 6,
              "duration": 0.9895833333333334
            },
            {
              "pitch": 51,
              "velocity": 116,
              "position": 6.010416666666667,
              "duration": 0.9791666666666666
            },
            {
              "pitch": 41,
              "velocity": 89,
              "position": 7,
              "duration": 0.9895833333333334
            },
            {
              "pitch": 46,
              "velocity": 95,
              "position": 7,
              "duration": 0.9895833333333334
            },
            {
              "pitch": 51,
              "velocity": 100,
              "position": 7.010416666666667,
              "duration": 0.9791666666666666
            },
            {
              "pitch": 41,
              "velocity": 91,
              "position": 8,
              "duration": 0.65625
            },
            {
              "pitch": 46,
              "velocity": 100,
              "position": 8,
              "duration": 0.65625
            },
            {
              "pitch": 51,
              "velocity": 100,
              "position": 8.010416666666666,
              "duration": 0.6458333333333334
            },
            {
              "pitch": 46,
              "velocity": 85,
              "position": 8.666666666666666,
              "duration": 0.3229166666666667
            },
            {
              "pitch": 51,
              "velocity": 86,
              "position": 8.666666666666666,
              "duration": 0.3229166666666667
            },
            {
              "pitch": 41,
              "velocity": 79,
              "position": 8.677083333333334,
              "duration": 0.3125
            },
            {
              "pitch": 41,
              "velocity": 107,
              "position": 9,
              "duration": 0.65625
            },
            {
              "pitch": 46,
              "velocity": 113,
              "position": 9,
              "duration": 0.65625
            },
            {
              "pitch": 51,
              "velocity": 117,
              "position": 9.010416666666666,
              "duration": 0.6458333333333334
            },
            {
              "pitch": 46,
              "velocity": 82,
              "position": 9.666666666666666,
              "duration": 0.3229166666666667
            },
            {
              "pitch": 51,
              "velocity": 84,
              "position": 9.666666666666666,
              "duration": 0.3229166666666667
            },
            {
              "pitch": 41,
              "velocity": 78,
              "position": 9.677083333333334,
              "duration": 0.3125
            },
            {
              "pitch": 41,
              "velocity": 88,
              "position": 10,
              "duration": 0.9895833333333334
            },
            {
              "pitch": 46,
              "velocity": 95,
              "position": 10,
              "duration": 0.9895833333333334
            },
            {
              "pitch": 51,
              "velocity": 98,
              "position": 10.010416666666666,
              "duration": 0.9791666666666666
            },
            {
              "pitch": 41,
              "velocity": 93,
              "position": 11,
              "duration": 0.65625
            },
            {
              "pitch": 46,
              "velocity": 100,
              "position": 11,
              "duration": 0.65625
            },
            {
              "pitch": 51,
              "velocity": 103,
              "position": 11.010416666666666,
              "duration": 0.6458333333333334
            },
            {
              "pitch": 46,
              "velocity": 85,
              "position": 11.666666666666666,
              "duration": 0.3229166666666667
            },
            {
              "pitch": 51,
              "velocity": 84,
              "position": 11.666666666666666,
              "duration": 0.3229166666666667
            },
            {
              "pitch": 41,
              "velocity": 81,
              "position": 11.677083333333334,
              "duration": 0.3125
            }
          ]
        },
        "5": {
          "ctab": {
            "srcChannel": 5,
            "name": "epi 04",
            "accType": "CHORD2",
            "editable": false,
            "mutedNotes": [],
            "mutedChords": [],
            "autoStart": false,
            "sourceChordNote": 0,
            "sourceChordType": "Maj7",
            "ctb2Low": null,
            "ctb2Main": {
              "ntr": "ROOT_FIXED",
              "ntt": "CHORD",
              "bassOn": false,
              "chordRootUpperLimit": 7,
              "noteLowLimit": 50,
              "noteHighLimit": 127,
              "rtr": "PITCH_SHIFT"
            },
            "ctb2High": null
          },
          "notes": [
            {
              "pitch": 59,
              "velocity": 48,
              "position": 0.6666666666666666,
              "duration": 0.9895833333333334
            },
            {
              "pitch": 64,
              "velocity": 51,
              "position": 1,
              "duration": 2.65625
            },
            {
              "pitch": 67,
              "velocity": 54,
              "position": 2,
              "duration": 1.9895833333333333
            },
            {
              "pitch": 59,
              "velocity": 38,
              "position": 1.6666666666666667,
              "duration": 2.9895833333333335
            },
            {
              "pitch": 64,
              "velocity": 46,
              "position": 3.6666666666666665,
              "duration": 0.9895833333333334
            },
            {
              "pitch": 64,
              "velocity": 35,
              "position": 4.666666666666667,
              "duration": 1.9895833333333333
            },
            {
              "pitch": 71,
              "velocity": 52,
              "position": 5,
              "duration": 1.9895833333333333
            },
            {
              "pitch": 67,
              "velocity": 47,
              "position": 4,
              "duration": 2.9895833333333335
            },
            {
              "pitch": 59,
              "velocity": 48,
              "position": 6.666666666666667,
              "duration": 0.9895833333333334
            },
            {
              "pitch": 64,
              "velocity": 51,
              "position": 7,
              "duration": 2.65625
            },
            {
              "pitch": 67,
              "velocity": 54,
              "position": 8,
              "duration": 1.9895833333333333
            },
            {
              "pitch": 59,
              "velocity": 38,
              "position": 7.666666666666667,
              "duration": 2.9895833333333335
            },
            {
              "pitch": 64,
              "velocity": 46,
              "position": 9.666666666666666,
              "duration": 0.9895833333333334
            },
            {
              "pitch": 64,
              "velocity": 35,
              "position": 10.666666666666666,
              "duration": 1.3229166666666667
            },
            {
              "pitch": 71,
              "velocity": 52,
              "position": 11,
              "duration": 0.9895833333333334
            },
            {
              "pitch": 67,
              "velocity": 47,
              "position": 10,
              "duration": 1.9895833333333333
            }
          ]
        },
        "6": {
          "ctab": {
            "srcChannel": 6,
            "name": "strg",
            "accType": "PAD",
            "editable": false,
            "mutedNotes": [],
            "mutedChords": [],
            "autoStart": false,
            "sourceChordNote": 0,
            "sourceChordType": "min7(11)",
            "ctb2Low": null,
            "ctb2Main": {
              "ntr": "ROOT_FIXED",
              "ntt": "CHORD",
              "bassOn": false,
              "chordRootUpperLimit": 7,
              "noteLowLimit": 50,
              "noteHighLimit": 127,
              "rtr": "PITCH_SHIFT"
            },
            "ctb2High": null
          },
          "notes": [
            {
              "pitch": 53,
              "velocity": 38,
              "position": 0,
              "duration": 11.989583333333334
            },
            {
              "pitch": 58,
              "velocity": 38,
              "position": 0,
              "duration": 11.989583333333334
            },
            {
              "pitch": 63,
              "velocity": 38,
              "position": 0,
              "duration": 11.989583333333334
            }
          ]
        },
        "7": {
          "ctab": {
            "srcChannel": 7,
            "name": "gtr root",
            "accType": "CHORD1",
            "editable": false,
            "mutedNotes": [],
            "mutedChords": [
              "1+2+5",
              "sus4",
              "1+5",
              "1+8",
              "Maj7aug",
              "dim",
              "minMaj7(9)",
              "minMaj7",
              "min6",
              "min",
              "aug",
              "Maj7(9)",
              "Maj7#11",
              "Maj7",
              "Maj6",
              "Maj"
            ],
            "autoStart": false,
            "sourceChordNote": 0,
            "sourceChordType": "Maj7",
            "ctb2Low": null,
            "ctb2Main": {
              "ntr": "ROOT_TRANSPOSITION",
              "ntt": "CHORD",
              "bassOn": false,
              "chordRootUpperLimit": 6,
              "noteLowLimit": 0,
              "noteHighLimit": 127,
              "rtr": "PITCH_SHIFT"
            },
            "ctb2High": null
          },
          "notes": [
            {
              "pitch": 48,
              "velocity": 109,
              "position": 0,
              "duration": 0.9895833333333334
            },
            {
              "pitch": 48,
              "velocity": 95,
              "position": 1,
              "duration": 0.9895833333333334
            },
            {
              "pitch": 48,
              "velocity": 100,
              "position": 2,
              "duration": 0.65625
            },
            {
              "pitch": 48,
              "velocity": 85,
              "position": 2.6666666666666665,
              "duration": 0.3229166666666667
            },
            {
              "pitch": 48,
              "velocity": 113,
              "position": 3,
              "duration": 0.65625
            },
            {
              "pitch": 48,
              "velocity": 82,
              "position": 3.6666666666666665,
              "duration": 0.3229166666666667
            },
            {
              "pitch": 48,
              "velocity": 95,
              "position": 4,
              "duration": 0.9895833333333334
            },
            {
              "pitch": 48,
              "velocity": 100,
              "position": 5,
              "duration": 0.65625
            },
            {
              "pitch": 48,
              "velocity": 85,
              "position": 5.666666666666667,
              "duration": 0.3229166666666667
            },
            {
              "pitch": 48,
              "velocity": 109,
              "position": 6,
              "duration": 0.9895833333333334
            },
            {
              "pitch": 48,
              "velocity": 95,
              "position": 7,
              "duration": 0.9895833333333334
            },
            {
              "pitch": 48,
              "velocity": 100,
              "position": 8,
              "duration": 0.65625
            },
            {
              "pitch": 48,
              "velocity": 85,
              "position": 8.666666666666666,
              "duration": 0.3229166666666667
            },
            {
              "pitch": 48,
              "velocity": 113,
              "position": 9,
              "duration": 0.65625
            },
            {
              "pitch": 48,
              "velocity": 82,
              "position": 9.666666666666666,
              "duration": 0.3229166666666667
            },
            {
              "pitch": 48,
              "velocity": 95,
              "position": 10,
              "duration": 0.9895833333333334
            },
            {
              "pitch": 48,
              "velocity": 100,
              "position": 11,
              "duration": 0.65625
            },
            {
              "pitch": 48,
              "velocity": 85,
              "position": 11.666666666666666,
              "duration": 0.3229166666666667
            }
          ]
        },
        "8": {
          "ctab": {
            "srcChannel": 8,
            "name": "add-dr",
            "accType": "SUBRHYTHM",
            "editable": false,
            "mutedNotes": [],
            "mutedChords": [],
            "autoStart": true,
            "sourceChordNote": 0,
            "sourceChordType": "Maj7",
            "ctb2Low": null,
            "ctb2Main": {
              "ntr": "ROOT_FIXED",
              "ntt": "BYPASS",
              "bassOn": false,
              "chordRootUpperLimit": 7,
              "noteLowLimit": 0,
              "noteHighLimit": 127,
              "rtr": "PITCH_SHIFT"
            },
            "ctb2High": null
          },
          "notes": [
            {
              "pitch": 54,
              "velocity": 71,
              "position": 2.0208333333333335,
              "duration": 0.010416666666666666
            },
            {
              "pitch": 54,
              "velocity": 71,
              "position": 5.020833333333333,
              "duration": 0.010416666666666666
            },
            {
              "pitch": 54,
              "velocity": 71,
              "position": 8.020833333333334,
              "duration": 0.010416666666666666
            },
            {
              "pitch": 54,
              "velocity": 71,
              "position": 11.020833333333334,
              "duration": 0.010416666666666666
            }
          ]
        },
        "9": {
          "ctab": {
            "srcChannel": 9,
            "name": "m-drums",
            "accType": "RHYTHM",
            "editable": false,
            "mutedNotes": [],
            "mutedChords": [],
            "autoStart": true,
            "sourceChordNote": 0,
            "sourceChordType": "Maj7",
            "ctb2Low": null,
            "ctb2Main": {
              "ntr": "ROOT_FIXED",
              "ntt": "BYPASS",
              "bassOn": false,
              "chordRootUpperLimit": 7,
              "noteLowLimit": 0,
              "noteHighLimit": 127,
              "rtr": "PITCH_SHIFT"
            },
            "ctb2High": null
          },
          "notes": [
            {
              "pitch": 35,
              "velocity": 91,
              "position": 0,
              "duration": 0.03125
            },
            {
              "pitch": 51,
              "velocity": 57,
              "position": 0,
              "duration": 0.041666666666666664
            },
            {
              "pitch": 44,
              "velocity": 46,
              "position": 1,
              "duration": 0.041666666666666664
            },
            {
              "pitch": 44,
              "velocity": 46,
              "position": 2,
              "duration": 0.041666666666666664
            },
            {
              "pitch": 51,
              "velocity": 57,
              "position": 2,
              "duration": 0.041666666666666664
            },
            {
              "pitch": 35,
              "velocity": 49,
              "position": 2.6666666666666665,
              "duration": 0.03125
            },
            {
              "pitch": 35,
              "velocity": 91,
              "position": 3,
              "duration": 0.03125
            },
            {
              "pitch": 51,
              "velocity": 57,
              "position": 3,
              "duration": 0.041666666666666664
            },
            {
              "pitch": 44,
              "velocity": 46,
              "position": 4,
              "duration": 0.041666666666666664
            },
            {
              "pitch": 37,
              "velocity": 72,
              "position": 5,
              "duration": 0.010416666666666666
            },
            {
              "pitch": 44,
              "velocity": 46,
              "position": 5,
              "duration": 0.041666666666666664
            },
            {
              "pitch": 51,
              "velocity": 57,
              "position": 5,
              "duration": 0.041666666666666664
            },
            {
              "pitch": 35,
              "velocity": 49,
              "position": 5.666666666666667,
              "duration": 0.03125
            },
            {
              "pitch": 35,
              "velocity": 91,
              "position": 6,
              "duration": 0.03125
            },
            {
              "pitch": 51,
              "velocity": 57,
              "position": 6,
              "duration": 0.041666666666666664
            },
            {
              "pitch": 44,
              "velocity": 46,
              "position": 7,
              "duration": 0.041666666666666664
            },
            {
              "pitch": 44,
              "velocity": 46,
              "position": 8,
              "duration": 0.041666666666666664
            },
            {
              "pitch": 51,
              "velocity": 57,
              "position": 8,
              "duration": 0.041666666666666664
            },
            {
              "pitch": 35,
              "velocity": 49,
              "position": 8.666666666666666,
              "duration": 0.03125
            },
            {
              "pitch": 35,
              "velocity": 91,
              "position": 9,
              "duration": 0.03125
            },
            {
              "pitch": 51,
              "velocity": 57,
              "position": 9,
              "duration": 0.041666666666666664
            },
            {
              "pitch": 44,
              "velocity": 46,
              "position": 10,
              "duration": 0.041666666666666664
            },
            {
              "pitch": 37,
              "velocity": 72,
              "position": 11,
              "duration": 0.010416666666666666
            },
            {
              "pitch": 44,
              "velocity": 46,
              "position": 11,
              "duration": 0.010416666666666666
            },
            {
              "pitch": 51,
              "velocity": 57,
              "position": 11,
              "duration": 0.041666666666666664
            },
            {
              "pitch": 35,
              "velocity": 45,
              "position": 11.666666666666666,
              "duration": 0.03125
            }
          ]
        },
        "10": {
          "ctab": {
            "srcChannel": 10,
            "name": "CC_Crash",
            "accType": "RHYTHM",
            "editable": false,
            "mutedNotes": [],
            "mutedChords": [
              "1+2+5",
              "sus4",
              "1+5",
              "1+8",
              "7aug",
              "Maj7aug",
              "7(#9)",
              "7(b13)",
              "7(b9)",
              "7(13)",
              "7#11",
              "7(9)",
              "7b5",
              "7sus4",
              "7th",
              "dim7",
              "dim",
              "minMaj7(9)",
              "minMaj7",
              "min7(11)",
              "min7(9)",
              "min(9)",
              "m7b5",
              "min7",
              "min6",
              "min",
              "aug",
              "Maj6(9)",
              "Maj7(9)",
              "Maj(9)",
              "Maj7#11",
              "Maj7",
              "Maj6",
              "Maj"
            ],
            "autoStart": true,
            "sourceChordNote": 0,
            "sourceChordType": "Maj",
            "ctb2Low": null,
            "ctb2Main": {
              "ntr": "ROOT_FIXED",
              "ntt": "BYPASS",
              "bassOn": false,
              "chordRootUpperLimit": 0,
              "noteLowLimit": 0,
              "noteHighLimit": 127,
              "rtr": "RETRIGGER"
            },
            "ctb2High": null
          },
          "notes": []
        },
        "12": {
          "ctab": {
            "srcChannel": 12,
            "name": "bass",
            "accType": "BASS",
            "editable": false,
            "mutedNotes": [],
            "mutedChords": [],
            "autoStart": false,
            "sourceChordNote": 0,
            "sourceChordType": "Maj7",
            "ctb2Low": null,
            "ctb2Main": {
              "ntr": "ROOT_TRANSPOSITION",
              "ntt": "MELODY",
              "bassOn": true,
              "chordRootUpperLimit": 8,
              "noteLowLimit": 28,
              "noteHighLimit": 127,
              "rtr": "PITCH_SHIFT_TO_ROOT"
            },
            "ctb2High": null
          },
          "notes": [
            {
              "pitch": 24,
              "velocity": 95,
              "position": 0,
              "duration": 2.65625
            },
            {
              "pitch": 24,
              "velocity": 75,
              "position": 2.6666666666666665,
              "duration": 0.3229166666666667
            },
            {
              "pitch": 24,
              "velocity": 95,
              "position": 3,
              "duration": 2.65625
            },
            {
              "pitch": 19,
              "velocity": 88,
              "position": 5.666666666666667,
              "duration": 0.3229166666666667
            },
            {
              "pitch": 24,
              "velocity": 95,
              "position": 6,
              "duration": 2.65625
            },
            {
              "pitch": 24,
              "velocity": 75,
              "position": 8.666666666666666,
              "duration": 0.3229166666666667
            },
            {
              "pitch": 24,
              "velocity": 95,
              "position": 9,
              "duration": 1.9895833333333333
            },
            {
              "pitch": 19,
              "velocity": 88,
              "position": 11,
              "duration": 0.9895833333333334
            }
          ]
        },
        "15": {
          "ctab": {
            "srcChannel": 15,
            "name": "StFX",
            "accType": "PHRASE1",
            "editable": false,
            "mutedNotes": [],
            "mutedChords": [],
            "autoStart": false,
            "sourceChordNote": 0,
            "sourceChordType": "min7(11)",
            "ctb2Low": null,
            "ctb2Main": {
              "ntr": "ROOT_FIXED",
              "ntt": "BYPASS",
              "bassOn": false,
              "chordRootUpperLimit": 7,
              "noteLowLimit": 0,
              "noteHighLimit": 127,
              "rtr": "PITCH_SHIFT"
            },
            "ctb2High": null
          },
          "notes": [
            {
              "pitch": 104,
              "velocity": 117,
              "position": 1,
              "duration": 0.23958333333333334
            },
            {
              "pitch": 98,
              "velocity": 118,
              "position": 2,
              "duration": 0.23958333333333334
            },
            {
              "pitch": 104,
              "velocity": 117,
              "position": 4,
              "duration": 0.23958333333333334
            },
            {
              "pitch": 98,
              "velocity": 117,
              "position": 5,
              "duration": 0.23958333333333334
            },
            {
              "pitch": 104,
              "velocity": 114,
              "position": 7,
              "duration": 0.23958333333333334
            },
            {
              "pitch": 98,
              "velocity": 116,
              "position": 8,
              "duration": 0.23958333333333334
            },
            {
              "pitch": 104,
              "velocity": 117,
              "position": 10,
              "duration": 0.23958333333333334
            },
            {
              "pitch": 98,
              "velocity": 116,
              "position": 11,
              "duration": 0.23958333333333334
            }
          ]
        }
      }
    },
    "Fill_In_BB": {
      "type": "Fill_In_BB",
      "sizeInBeats": 3,
      "channels": {
        "0": {
          "ctab": {
            "srcChannel": 0,
            "name": "HiStFX",
            "accType": "CHORD1",
            "editable": false,
            "mutedNotes": [],
            "mutedChords": [],
            "autoStart": false,
            "sourceChordNote": 0,
            "sourceChordType": "min7(11)",
            "ctb2Low": null,
            "ctb2Main": {
              "ntr": "ROOT_FIXED",
              "ntt": "BYPASS",
              "bassOn": false,
              "chordRootUpperLimit": 7,
              "noteLowLimit": 0,
              "noteHighLimit": 79,
              "rtr": "PITCH_SHIFT"
            },
            "ctb2High": null
          },
          "notes": [
            {
              "pitch": 98,
              "velocity": 117,
              "position": 0,
              "duration": 0.23958333333333334
            },
            {
              "pitch": 99,
              "velocity": 84,
              "position": 0.6666666666666666,
              "duration": 0.23958333333333334
            },
            {
              "pitch": 98,
              "velocity": 98,
              "position": 1,
              "duration": 0.23958333333333334
            },
            {
              "pitch": 100,
              "velocity": 103,
              "position": 2,
              "duration": 0.23958333333333334
            },
            {
              "pitch": 99,
              "velocity": 84,
              "position": 2.6666666666666665,
              "duration": 0.23958333333333334
            }
          ]
        },
        "1": {
          "ctab": {
            "srcChannel": 1,
            "name": "gtr low",
            "accType": "PHRASE1",
            "editable": false,
            "mutedNotes": [],
            "mutedChords": [],
            "autoStart": false,
            "sourceChordNote": 0,
            "sourceChordType": "Maj7",
            "ctb2Low": null,
            "ctb2Main": {
              "ntr": "ROOT_TRANSPOSITION",
              "ntt": "MELODY",
              "bassOn": true,
              "chordRootUpperLimit": 6,
              "noteLowLimit": 40,
              "noteHighLimit": 127,
              "rtr": "PITCH_SHIFT_TO_ROOT"
            },
            "ctb2High": null
          },
          "notes": [
            {
              "pitch": 48,
              "velocity": 43,
              "position": 0,
              "duration": 1.9895833333333333
            }
          ]
        },
        "2": {
          "ctab": {
            "srcChannel": 2,
            "name": "strg",
            "accType": "PAD",
            "editable": false,
            "mutedNotes": [],
            "mutedChords": [
              "1+2+5",
              "sus4",
              "1+5",
              "1+8",
              "Maj7aug",
              "dim",
              "minMaj7(9)",
              "minMaj7",
              "min6",
              "min",
              "aug",
              "Maj7(9)",
              "Maj7#11",
              "Maj7",
              "Maj6",
              "Maj"
            ],
            "autoStart": false,
            "sourceChordNote": 0,
            "sourceChordType": "Maj7",
            "ctb2Low": null,
            "ctb2Main": {
              "ntr": "ROOT_TRANSPOSITION",
              "ntt": "CHORD",
              "bassOn": false,
              "chordRootUpperLimit": 6,
              "noteLowLimit": 0,
              "noteHighLimit": 127,
              "rtr": "PITCH_SHIFT"
            },
            "ctb2High": null
          },
          "notes": [
            {
              "pitch": 60,
              "velocity": 36,
              "position": 0,
              "duration": 2.9895833333333335
            }
          ]
        },
        "3": {
          "ctab": {
            "srcChannel": 3,
            "name": "gtr25",
            "accType": "PHRASE1",
            "editable": false,
            "mutedNotes": [],
            "mutedChords": [],
            "autoStart": false,
            "sourceChordNote": 0,
            "sourceChordType": "min7(11)",
            "ctb2Low": null,
            "ctb2Main": {
              "ntr": "ROOT_FIXED",
              "ntt": "CHORD",
              "bassOn": false,
              "chordRootUpperLimit": 6,
              "noteLowLimit": 50,
              "noteHighLimit": 127,
              "rtr": "PITCH_SHIFT"
            },
            "ctb2High": null
          },
          "notes": [
            {
              "pitch": 53,
              "velocity": 59,
              "position": 0.34375,
              "duration": 1.6354166666666667
            },
            {
              "pitch": 63,
              "velocity": 59,
              "position": 1.0208333333333333,
              "duration": 1.3020833333333333
            },
            {
              "pitch": 58,
              "velocity": 59,
              "position": 0.6770833333333334,
              "duration": 1.96875
            },
            {
              "pitch": 53,
              "velocity": 59,
              "position": 2,
              "duration": 0.8333333333333334
            },
            {
              "pitch": 58,
              "velocity": 59,
              "position": 2.6666666666666665,
              "duration": 0.3229166666666667
            },
            {
              "pitch": 63,
              "velocity": 59,
              "position": 2.34375,
              "duration": 0.6458333333333334
            }
          ]
        },
        "4": {
          "ctab": {
            "srcChannel": 4,
            "name": "gtr25",
            "accType": "CHORD1",
            "editable": false,
            "mutedNotes": [],
            "mutedChords": [],
            "autoStart": false,
            "sourceChordNote": 0,
            "sourceChordType": "min7(11)",
            "ctb2Low": null,
            "ctb2Main": {
              "ntr": "ROOT_FIXED",
              "ntt": "CHORD",
              "bassOn": false,
              "chordRootUpperLimit": 7,
              "noteLowLimit": 38,
              "noteHighLimit": 127,
              "rtr": "PITCH_SHIFT"
            },
            "ctb2High": null
          },
          "notes": [
            {
              "pitch": 41,
              "velocity": 107,
              "position": 0,
              "duration": 0.65625
            },
            {
              "pitch": 46,
              "velocity": 113,
              "position": 0,
              "duration": 0.65625
            },
            {
              "pitch": 51,
              "velocity": 117,
              "position": 0.010416666666666666,
              "duration": 0.6458333333333334
            },
            {
              "pitch": 46,
              "velocity": 82,
              "position": 0.6666666666666666,
              "duration": 0.3229166666666667
            },
            {
              "pitch": 51,
              "velocity": 84,
              "position": 0.6666666666666666,
              "duration": 0.3229166666666667
            },
            {
              "pitch": 41,
              "velocity": 78,
              "position": 0.6770833333333334,
              "duration": 0.3125
            },
            {
              "pitch": 41,
              "velocity": 88,
              "position": 1,
              "duration": 0.9895833333333334
            },
            {
              "pitch": 46,
              "velocity": 95,
              "position": 1,
              "duration": 0.9895833333333334
            },
            {
              "pitch": 51,
              "velocity": 98,
              "position": 1.0104166666666667,
              "duration": 0.9791666666666666
            },
            {
              "pitch": 41,
              "velocity": 93,
              "position": 2,
              "duration": 0.65625
            },
            {
              "pitch": 46,
              "velocity": 100,
              "position": 2,
              "duration": 0.65625
            },
            {
              "pitch": 51,
              "velocity": 103,
              "position": 2.0104166666666665,
              "duration": 0.6458333333333334
            },
            {
              "pitch": 46,
              "velocity": 85,
              "position": 2.6666666666666665,
              "duration": 0.3229166666666667
            },
            {
              "pitch": 51,
              "velocity": 84,
              "position": 2.6666666666666665,
              "duration": 0.3229166666666667
            },
            {
              "pitch": 41,
              "velocity": 81,
              "position": 2.6770833333333335,
              "duration": 0.3125
            }
          ]
        },
        "5": {
          "ctab": {
            "srcChannel": 5,
            "name": "epi 04",
            "accType": "CHORD2",
            "editable": false,
            "mutedNotes": [],
            "mutedChords": [],
            "autoStart": false,
            "sourceChordNote": 0,
            "sourceChordType": "Maj7",
            "ctb2Low": null,
            "ctb2Main": {
              "ntr": "ROOT_FIXED",
              "ntt": "CHORD",
              "bassOn": false,
              "chordRootUpperLimit": 7,
              "noteLowLimit": 50,
              "noteHighLimit": 127,
              "rtr": "PITCH_SHIFT"
            },
            "ctb2High": null
          },
          "notes": [
            {
              "pitch": 71,
              "velocity": 65,
              "position": 0,
              "duration": 2.9895833333333335
            },
            {
              "pitch": 67,
              "velocity": 68,
              "position": 1,
              "duration": 1.9895833333333333
            },
            {
              "pitch": 64,
              "velocity": 65,
              "position": 2,
              "duration": 0.9895833333333334
            }
          ]
        },
        "6": {
          "ctab": {
            "srcChannel": 6,
            "name": "strg",
            "accType": "PAD",
            "editable": false,
            "mutedNotes": [],
            "mutedChords": [],
            "autoStart": false,
            "sourceChordNote": 0,
            "sourceChordType": "min7(11)",
            "ctb2Low": null,
            "ctb2Main": {
              "ntr": "ROOT_FIXED",
              "ntt": "CHORD",
              "bassOn": false,
              "chordRootUpperLimit": 7,
              "noteLowLimit": 50,
              "noteHighLimit": 127,
              "rtr": "PITCH_SHIFT"
            },
            "ctb2High": null
          },
          "notes": [
            {
              "pitch": 53,
              "velocity": 38,
              "position": 0,
              "duration": 2.9895833333333335
            },
            {
              "pitch": 58,
              "velocity": 38,
              "position": 0,
              "duration": 2.9895833333333335
            },
            {
              "pitch": 63,
              "velocity": 38,
              "position": 0,
              "duration": 2.9895833333333335
            }
          ]
        },
        "7": {
          "ctab": {
            "srcChannel": 7,
            "name": "gtr root",
            "accType": "CHORD1",
            "editable": false,
            "mutedNotes": [],
            "mutedChords": [
              "1+2+5",
              "sus4",
              "1+5",
              "1+8",
              "Maj7aug",
              "dim",
              "minMaj7(9)",
              "minMaj7",
              "min6",
              "min",
              "aug",
              "Maj7(9)",
              "Maj7#11",
              "Maj7",
              "Maj6",
              "Maj"
            ],
            "autoStart": false,
            "sourceChordNote": 0,
            "sourceChordType": "Maj7",
            "ctb2Low": null,
            "ctb2Main": {
              "ntr": "ROOT_TRANSPOSITION",
              "ntt": "CHORD",
              "bassOn": false,
              "chordRootUpperLimit": 6,
              "noteLowLimit": 0,
              "noteHighLimit": 127,
              "rtr": "PITCH_SHIFT"
            },
            "ctb2High": null
          },
          "notes": [
            {
              "pitch": 48,
              "velocity": 113,
              "position": 0,
              "duration": 0.65625
            },
            {
              "pitch": 48,
              "velocity": 82,
              "position": 0.6666666666666666,
              "duration": 0.3229166666666667
            },
            {
              "pitch": 48,
              "velocity": 95,
              "position": 1,
              "duration": 0.9895833333333334
            },
            {
              "pitch": 48,
              "velocity": 100,
              "position": 2,
              "duration": 0.65625
            },
            {
              "pitch": 48,
              "velocity": 85,
              "position": 2.6666666666666665,
              "duration": 0.3229166666666667
            }
          ]
        },
        "8": {
          "ctab": {
            "srcChannel": 8,
            "name": "add-dr",
            "accType": "SUBRHYTHM",
            "editable": false,
            "mutedNotes": [],
            "mutedChords": [],
            "autoStart": true,
            "sourceChordNote": 0,
            "sourceChordType": "Maj7",
            "ctb2Low": null,
            "ctb2Main": {
              "ntr": "ROOT_FIXED",
              "ntt": "BYPASS",
              "bassOn": false,
              "chordRootUpperLimit": 7,
              "noteLowLimit": 0,
              "noteHighLimit": 127,
              "rtr": "PITCH_SHIFT"
            },
            "ctb2High": null
          },
          "notes": [
            {
              "pitch": 54,
              "velocity": 61,
              "position": 1.0104166666666667,
              "duration": 0.010416666666666666
            },
            {
              "pitch": 54,
              "velocity": 71,
              "position": 2.0104166666666665,
              "duration": 0.010416666666666666
            }
          ]
        },
        "9": {
          "ctab": {
            "srcChannel": 9,
            "name": "m-drums",
            "accType": "RHYTHM",
            "editable": false,
            "mutedNotes": [],
            "mutedChords": [],
            "autoStart": true,
            "sourceChordNote": 0,
            "sourceChordType": "Maj7",
            "ctb2Low": null,
            "ctb2Main": {
              "ntr": "ROOT_FIXED",
              "ntt": "BYPASS",
              "bassOn": false,
              "chordRootUpperLimit": 7,
              "noteLowLimit": 0,
              "noteHighLimit": 127,
              "rtr": "PITCH_SHIFT"
            },
            "ctb2High": null
          },
          "notes": [
            {
              "pitch": 51,
              "velocity": 57,
              "position": 0,
              "duration": 0.08333333333333333
            },
            {
              "pitch": 35,
              "velocity": 91,
              "position": 0,
              "duration": 0.125
            },
            {
              "pitch": 37,
              "velocity": 72,
              "position": 1,
              "duration": 0.010416666666666666
            },
            {
              "pitch": 44,
              "velocity": 46,
              "position": 1,
              "duration": 0.0625
            },
            {
              "pitch": 48,
              "velocity": 33,
              "position": 1.6666666666666667,
              "duration": 0.041666666666666664
            },
            {
              "pitch": 44,
              "velocity": 46,
              "position": 2,
              "duration": 0.041666666666666664
            },
            {
              "pitch": 45,
              "velocity": 44,
              "position": 2,
              "duration": 0.07291666666666667
            },
            {
              "pitch": 45,
              "velocity": 32,
              "position": 2.3333333333333335,
              "duration": 0.010416666666666666
            },
            {
              "pitch": 43,
              "velocity": 44,
              "position": 2.6666666666666665,
              "duration": 0.041666666666666664
            }
          ]
        },
        "10": {
          "ctab": {
            "srcChannel": 10,
            "name": "CC_Crash",
            "accType": "RHYTHM",
            "editable": false,
            "mutedNotes": [],
            "mutedChords": [
              "1+2+5",
              "sus4",
              "1+5",
              "1+8",
              "7aug",
              "Maj7aug",
              "7(#9)",
              "7(b13)",
              "7(b9)",
              "7(13)",
              "7#11",
              "7(9)",
              "7b5",
              "7sus4",
              "7th",
              "dim7",
              "dim",
              "minMaj7(9)",
              "minMaj7",
              "min7(11)",
              "min7(9)",
              "min(9)",
              "m7b5",
              "min7",
              "min6",
              "min",
              "aug",
              "Maj6(9)",
              "Maj7(9)",
              "Maj(9)",
              "Maj7#11",
              "Maj7",
              "Maj6",
              "Maj"
            ],
            "autoStart": true,
            "sourceChordNote": 0,
            "sourceChordType": "Maj",
            "ctb2Low": null,
            "ctb2Main": {
              "ntr": "ROOT_FIXED",
              "ntt": "BYPASS",
              "bassOn": false,
              "chordRootUpperLimit": 0,
              "noteLowLimit": 0,
              "noteHighLimit": 127,
              "rtr": "RETRIGGER"
            },
            "ctb2High": null
          },
          "notes": []
        },
        "12": {
          "ctab": {
            "srcChannel": 12,
            "name": "bass",
            "accType": "BASS",
            "editable": false,
            "mutedNotes": [],
            "mutedChords": [],
            "autoStart": false,
            "sourceChordNote": 0,
            "sourceChordType": "Maj7",
            "ctb2Low": null,
            "ctb2Main": {
              "ntr": "ROOT_TRANSPOSITION",
              "ntt": "MELODY",
              "bassOn": true,
              "chordRootUpperLimit": 8,
              "noteLowLimit": 28,
              "noteHighLimit": 127,
              "rtr": "PITCH_SHIFT_TO_ROOT"
            },
            "ctb2High": null
          },
          "notes": [
            {
              "pitch": 24,
              "velocity": 81,
              "position": 0,
              "duration": 2.625
            },
            {
              "pitch": 19,
              "velocity": 74,
              "position": 2.6666666666666665,
              "duration": 0.2916666666666667
            }
          ]
        },
        "15": {
          "ctab": {
            "srcChannel": 15,
            "name": "StFX",
            "accType": "PHRASE1",
            "editable": false,
            "mutedNotes": [],
            "mutedChords": [],
            "autoStart": false,
            "sourceChordNote": 0,
            "sourceChordType": "min7(11)",
            "ctb2Low": null,
            "ctb2Main": {
              "ntr": "ROOT_FIXED",
              "ntt": "BYPASS",
              "bassOn": false,
              "chordRootUpperLimit": 7,
              "noteLowLimit": 0,
              "noteHighLimit": 127,
              "rtr": "PITCH_SHIFT"
            },
            "ctb2High": null
          },
          "notes": []
        }
      }
    },
    "Intro_A": {
      "type": "Intro_A",
      "sizeInBeats": 3,
      "channels": {
        "0": {
          "ctab": {
            "srcChannel": 0,
            "name": "HiStFX",
            "accType": "CHORD1",
            "editable": false,
            "mutedNotes": [],
            "mutedChords": [],
            "autoStart": false,
            "sourceChordNote": 0,
            "sourceChordType": "min7(11)",
            "ctb2Low": null,
            "ctb2Main": {
              "ntr": "ROOT_FIXED",
              "ntt": "BYPASS",
              "bassOn": false,
              "chordRootUpperLimit": 7,
              "noteLowLimit": 0,
              "noteHighLimit": 79,
              "rtr": "PITCH_SHIFT"
            },
            "ctb2High": null
          },
          "notes": []
        },
        "1": {
          "ctab": {
            "srcChannel": 1,
            "name": "gtr low",
            "accType": "PHRASE1",
            "editable": false,
            "mutedNotes": [],
            "mutedChords": [],
            "autoStart": false,
            "sourceChordNote": 0,
            "sourceChordType": "Maj7",
            "ctb2Low": null,
            "ctb2Main": {
              "ntr": "ROOT_TRANSPOSITION",
              "ntt": "MELODY",
              "bassOn": true,
              "chordRootUpperLimit": 6,
              "noteLowLimit": 40,
              "noteHighLimit": 127,
              "rtr": "PITCH_SHIFT_TO_ROOT"
            },
            "ctb2High": null
          },
          "notes": []
        },
        "2": {
          "ctab": {
            "srcChannel": 2,
            "name": "strg",
            "accType": "PAD",
            "editable": false,
            "mutedNotes": [],
            "mutedChords": [
              "1+2+5",
              "sus4",
              "1+5",
              "1+8",
              "Maj7aug",
              "dim",
              "minMaj7(9)",
              "minMaj7",
              "min6",
              "min",
              "aug",
              "Maj7(9)",
              "Maj7#11",
              "Maj7",
              "Maj6",
              "Maj"
            ],
            "autoStart": false,
            "sourceChordNote": 0,
            "sourceChordType": "Maj7",
            "ctb2Low": null,
            "ctb2Main": {
              "ntr": "ROOT_TRANSPOSITION",
              "ntt": "CHORD",
              "bassOn": false,
              "chordRootUpperLimit": 6,
              "noteLowLimit": 0,
              "noteHighLimit": 127,
              "rtr": "PITCH_SHIFT"
            },
            "ctb2High": null
          },
          "notes": []
        },
        "3": {
          "ctab": {
            "srcChannel": 3,
            "name": "gtr25",
            "accType": "PHRASE1",
            "editable": false,
            "mutedNotes": [],
            "mutedChords": [],
            "autoStart": false,
            "sourceChordNote": 0,
            "sourceChordType": "min7(11)",
            "ctb2Low": null,
            "ctb2Main": {
              "ntr": "ROOT_FIXED",
              "ntt": "CHORD",
              "bassOn": false,
              "chordRootUpperLimit": 6,
              "noteLowLimit": 50,
              "noteHighLimit": 127,
              "rtr": "PITCH_SHIFT"
            },
            "ctb2High": null
          },
          "notes": []
        },
        "4": {
          "ctab": {
            "srcChannel": 4,
            "name": "gtr25",
            "accType": "CHORD1",
            "editable": false,
            "mutedNotes": [],
            "mutedChords": [],
            "autoStart": false,
            "sourceChordNote": 0,
            "sourceChordType": "min7(11)",
            "ctb2Low": null,
            "ctb2Main": {
              "ntr": "ROOT_FIXED",
              "ntt": "CHORD",
              "bassOn": false,
              "chordRootUpperLimit": 7,
              "noteLowLimit": 38,
              "noteHighLimit": 127,
              "rtr": "PITCH_SHIFT"
            },
            "ctb2High": null
          },
          "notes": []
        },
        "5": {
          "ctab": {
            "srcChannel": 5,
            "name": "epi 04",
            "accType": "CHORD2",
            "editable": false,
            "mutedNotes": [],
            "mutedChords": [],
            "autoStart": false,
            "sourceChordNote": 0,
            "sourceChordType": "Maj7",
            "ctb2Low": null,
            "ctb2Main": {
              "ntr": "ROOT_FIXED",
              "ntt": "CHORD",
              "bassOn": false,
              "chordRootUpperLimit": 7,
              "noteLowLimit": 50,
              "noteHighLimit": 127,
              "rtr": "PITCH_SHIFT"
            },
            "ctb2High": null
          },
          "notes": []
        },
        "6": {
          "ctab": {
            "srcChannel": 6,
            "name": "strg",
            "accType": "PAD",
            "editable": false,
            "mutedNotes": [],
            "mutedChords": [],
            "autoStart": false,
            "sourceChordNote": 0,
            "sourceChordType": "min7(11)",
            "ctb2Low": null,
            "ctb2Main": {
              "ntr": "ROOT_FIXED",
              "ntt": "CHORD",
              "bassOn": false,
              "chordRootUpperLimit": 7,
              "noteLowLimit": 50,
              "noteHighLimit": 127,
              "rtr": "PITCH_SHIFT"
            },
            "ctb2High": null
          },
          "notes": []
        },
        "7": {
          "ctab": {
            "srcChannel": 7,
            "name": "gtr root",
            "accType": "CHORD1",
            "editable": false,
            "mutedNotes": [],
            "mutedChords": [
              "1+2+5",
              "sus4",
              "1+5",
              "1+8",
              "Maj7aug",
              "dim",
              "minMaj7(9)",
              "minMaj7",
              "min6",
              "min",
              "aug",
              "Maj7(9)",
              "Maj7#11",
              "Maj7",
              "Maj6",
              "Maj"
            ],
            "autoStart": false,
            "sourceChordNote": 0,
            "sourceChordType": "Maj7",
            "ctb2Low": null,
            "ctb2Main": {
              "ntr": "ROOT_TRANSPOSITION",
              "ntt": "CHORD",
              "bassOn": false,
              "chordRootUpperLimit": 6,
              "noteLowLimit": 0,
              "noteHighLimit": 127,
              "rtr": "PITCH_SHIFT"
            },
            "ctb2High": null
          },
          "notes": []
        },
        "8": {
          "ctab": {
            "srcChannel": 8,
            "name": "add-dr",
            "accType": "SUBRHYTHM",
            "editable": false,
            "mutedNotes": [],
            "mutedChords": [],
            "autoStart": true,
            "sourceChordNote": 0,
            "sourceChordType": "Maj7",
            "ctb2Low": null,
            "ctb2Main": {
              "ntr": "ROOT_FIXED",
              "ntt": "BYPASS",
              "bassOn": false,
              "chordRootUpperLimit": 7,
              "noteLowLimit": 0,
              "noteHighLimit": 127,
              "rtr": "PITCH_SHIFT"
            },
            "ctb2High": null
          },
          "notes": []
        },
        "9": {
          "ctab": {
            "srcChannel": 9,
            "name": "m-drums",
            "accType": "RHYTHM",
            "editable": false,
            "mutedNotes": [],
            "mutedChords": [],
            "autoStart": true,
            "sourceChordNote": 0,
            "sourceChordType": "Maj7",
            "ctb2Low": null,
            "ctb2Main": {
              "ntr": "ROOT_FIXED",
              "ntt": "BYPASS",
              "bassOn": false,
              "chordRootUpperLimit": 7,
              "noteLowLimit": 0,
              "noteHighLimit": 127,
              "rtr": "PITCH_SHIFT"
            },
            "ctb2High": null
          },
          "notes": [
            {
              "pitch": 44,
              "velocity": 46,
              "position": 0,
              "duration": 0.010416666666666666
            },
            {
              "pitch": 44,
              "velocity": 46,
              "position": 1,
              "duration": 0.08333333333333333
            },
            {
              "pitch": 35,
              "velocity": 50,
              "position": 1.6666666666666667,
              "duration": 0.08333333333333333
            },
            {
              "pitch": 45,
              "velocity": 34,
              "position": 2,
              "duration": 0.08333333333333333
            },
            {
              "pitch": 45,
              "velocity": 23,
              "position": 2.3333333333333335,
              "duration": 0.08333333333333333
            },
            {
              "pitch": 41,
              "velocity": 32,
              "position": 2.6666666666666665,
              "duration": 0.0625
            }
          ]
        },
        "10": {
          "ctab": {
            "srcChannel": 10,
            "name": "CC_Crash",
            "accType": "RHYTHM",
            "editable": false,
            "mutedNotes": [],
            "mutedChords": [
              "1+2+5",
              "sus4",
              "1+5",
              "1+8",
              "7aug",
              "Maj7aug",
              "7(#9)",
              "7(b13)",
              "7(b9)",
              "7(13)",
              "7#11",
              "7(9)",
              "7b5",
              "7sus4",
              "7th",
              "dim7",
              "dim",
              "minMaj7(9)",
              "minMaj7",
              "min7(11)",
              "min7(9)",
              "min(9)",
              "m7b5",
              "min7",
              "min6",
              "min",
              "aug",
              "Maj6(9)",
              "Maj7(9)",
              "Maj(9)",
              "Maj7#11",
              "Maj7",
              "Maj6",
              "Maj"
            ],
            "autoStart": true,
            "sourceChordNote": 0,
            "sourceChordType": "Maj",
            "ctb2Low": null,
            "ctb2Main": {
              "ntr": "ROOT_FIXED",
              "ntt": "BYPASS",
              "bassOn": false,
              "chordRootUpperLimit": 0,
              "noteLowLimit": 0,
              "noteHighLimit": 127,
              "rtr": "RETRIGGER"
            },
            "ctb2High": null
          },
          "notes": []
        },
        "12": {
          "ctab": {
            "srcChannel": 12,
            "name": "bass",
            "accType": "BASS",
            "editable": false,
            "mutedNotes": [],
            "mutedChords": [],
            "autoStart": false,
            "sourceChordNote": 0,
            "sourceChordType": "Maj7",
            "ctb2Low": null,
            "ctb2Main": {
              "ntr": "ROOT_TRANSPOSITION",
              "ntt": "MELODY",
              "bassOn": true,
              "chordRootUpperLimit": 8,
              "noteLowLimit": 28,
              "noteHighLimit": 127,
              "rtr": "PITCH_SHIFT_TO_ROOT"
            },
            "ctb2High": null
          },
          "notes": []
        },
        "15": {
          "ctab": {
            "srcChannel": 15,
            "name": "StFX",
            "accType": "PHRASE1",
            "editable": false,
            "mutedNotes": [],
            "mutedChords": [],
            "autoStart": false,
            "sourceChordNote": 0,
            "sourceChordType": "min7(11)",
            "ctb2Low": null,
            "ctb2Main": {
              "ntr": "ROOT_FIXED",
              "ntt": "BYPASS",
              "bassOn": false,
              "chordRootUpperLimit": 7,
              "noteLowLimit": 0,
              "noteHighLimit": 127,
              "rtr": "PITCH_SHIFT"
            },
            "ctb2High": null
          },
          "notes": []
        }
      }
    },
    "Main_C": {
      "type": "Main_C",
      "sizeInBeats": 12,
      "channels": {
        "0": {
          "ctab": {
            "srcChannel": 0,
            "name": "HiStFX",
            "accType": "CHORD1",
            "editable": false,
            "mutedNotes": [],
            "mutedChords": [],
            "autoStart": false,
            "sourceChordNote": 0,
            "sourceChordType": "min7(11)",
            "ctb2Low": null,
            "ctb2Main": {
              "ntr": "ROOT_FIXED",
              "ntt": "BYPASS",
              "bassOn": false,
              "chordRootUpperLimit": 7,
              "noteLowLimit": 0,
              "noteHighLimit": 79,
              "rtr": "PITCH_SHIFT"
            },
            "ctb2High": null
          },
          "notes": [
            {
              "pitch": 98,
              "velocity": 113,
              "position": 0,
              "duration": 0.23958333333333334
            },
            {
              "pitch": 99,
              "velocity": 91,
              "position": 0.6666666666666666,
              "duration": 0.23958333333333334
            },
            {
              "pitch": 98,
              "velocity": 95,
              "position": 1,
              "duration": 0.23958333333333334
            },
            {
              "pitch": 100,
              "velocity": 99,
              "position": 2,
              "duration": 0.23958333333333334
            },
            {
              "pitch": 99,
              "velocity": 86,
              "position": 2.6666666666666665,
              "duration": 0.23958333333333334
            },
            {
              "pitch": 98,
              "velocity": 113,
              "position": 3,
              "duration": 0.23958333333333334
            },
            {
              "pitch": 99,
              "velocity": 91,
              "position": 3.6666666666666665,
              "duration": 0.23958333333333334
            },
            {
              "pitch": 98,
              "velocity": 95,
              "position": 4,
              "duration": 0.23958333333333334
            },
            {
              "pitch": 100,
              "velocity": 99,
              "position": 5,
              "duration": 0.23958333333333334
            },
            {
              "pitch": 99,
              "velocity": 86,
              "position": 5.666666666666667,
              "duration": 0.23958333333333334
            },
            {
              "pitch": 98,
              "velocity": 113,
              "position": 6,
              "duration": 0.23958333333333334
            },
            {
              "pitch": 99,
              "velocity": 91,
              "position": 6.666666666666667,
              "duration": 0.23958333333333334
            },
            {
              "pitch": 98,
              "velocity": 95,
              "position": 7,
              "duration": 0.23958333333333334
            },
            {
              "pitch": 100,
              "velocity": 99,
              "position": 8,
              "duration": 0.23958333333333334
            },
            {
              "pitch": 99,
              "velocity": 86,
              "position": 8.666666666666666,
              "duration": 0.23958333333333334
            },
            {
              "pitch": 98,
              "velocity": 113,
              "position": 9,
              "duration": 0.23958333333333334
            },
            {
              "pitch": 99,
              "velocity": 91,
              "position": 9.666666666666666,
              "duration": 0.23958333333333334
            },
            {
              "pitch": 98,
              "velocity": 95,
              "position": 10,
              "duration": 0.23958333333333334
            },
            {
              "pitch": 100,
              "velocity": 99,
              "position": 11,
              "duration": 0.23958333333333334
            },
            {
              "pitch": 99,
              "velocity": 86,
              "position": 11.666666666666666,
              "duration": 0.23958333333333334
            }
          ]
        },
        "1": {
          "ctab": {
            "srcChannel": 1,
            "name": "gtr low",
            "accType": "PHRASE1",
            "editable": false,
            "mutedNotes": [],
            "mutedChords": [],
            "autoStart": false,
            "sourceChordNote": 0,
            "sourceChordType": "Maj7",
            "ctb2Low": null,
            "ctb2Main": {
              "ntr": "ROOT_TRANSPOSITION",
              "ntt": "MELODY",
              "bassOn": true,
              "chordRootUpperLimit": 6,
              "noteLowLimit": 0,
              "noteHighLimit": 127,
              "rtr": "PITCH_SHIFT_TO_ROOT"
            },
            "ctb2High": null
          },
          "notes": [
            {
              "pitch": 48,
              "velocity": 43,
              "position": 0,
              "duration": 2.7395833333333335
            },
            {
              "pitch": 48,
              "velocity": 43,
              "position": 3,
              "duration": 2.7395833333333335
            },
            {
              "pitch": 48,
              "velocity": 43,
              "position": 6,
              "duration": 2.7395833333333335
            },
            {
              "pitch": 48,
              "velocity": 43,
              "position": 9,
              "duration": 2.7395833333333335
            }
          ]
        },
        "2": {
          "ctab": {
            "srcChannel": 2,
            "name": "strg",
            "accType": "PAD",
            "editable": false,
            "mutedNotes": [],
            "mutedChords": [
              "1+2+5",
              "sus4",
              "1+5",
              "1+8",
              "Maj7aug",
              "dim",
              "minMaj7(9)",
              "minMaj7",
              "min6",
              "min",
              "aug",
              "Maj7(9)",
              "Maj7#11",
              "Maj7",
              "Maj6",
              "Maj"
            ],
            "autoStart": false,
            "sourceChordNote": 0,
            "sourceChordType": "Maj7",
            "ctb2Low": null,
            "ctb2Main": {
              "ntr": "ROOT_TRANSPOSITION",
              "ntt": "CHORD",
              "bassOn": false,
              "chordRootUpperLimit": 6,
              "noteLowLimit": 0,
              "noteHighLimit": 127,
              "rtr": "PITCH_SHIFT"
            },
            "ctb2High": null
          },
          "notes": [
            {
              "pitch": 60,
              "velocity": 37,
              "position": 0,
              "duration": 11.989583333333334
            }
          ]
        },
        "3": {
          "ctab": {
            "srcChannel": 3,
            "name": "gtr25",
            "accType": "PHRASE1",
            "editable": false,
            "mutedNotes": [],
            "mutedChords": [],
            "autoStart": false,
            "sourceChordNote": 0,
            "sourceChordType": "min7(11)",
            "ctb2Low": null,
            "ctb2Main": {
              "ntr": "ROOT_FIXED",
              "ntt": "CHORD",
              "bassOn": false,
              "chordRootUpperLimit": 6,
              "noteLowLimit": 50,
              "noteHighLimit": 127,
              "rtr": "PITCH_SHIFT"
            },
            "ctb2High": null
          },
          "notes": [
            {
              "pitch": 53,
              "velocity": 59,
              "position": 1,
              "duration": 0.9895833333333334
            },
            {
              "pitch": 58,
              "velocity": 59,
              "position": 1,
              "duration": 0.9895833333333334
            },
            {
              "pitch": 63,
              "velocity": 57,
              "position": 1.0208333333333333,
              "duration": 0.9895833333333334
            },
            {
              "pitch": 53,
              "velocity": 57,
              "position": 2,
              "duration": 0.9895833333333334
            },
            {
              "pitch": 58,
              "velocity": 57,
              "position": 2,
              "duration": 0.9895833333333334
            },
            {
              "pitch": 63,
              "velocity": 58,
              "position": 2.0208333333333335,
              "duration": 0.9895833333333334
            },
            {
              "pitch": 53,
              "velocity": 57,
              "position": 4,
              "duration": 0.9895833333333334
            },
            {
              "pitch": 58,
              "velocity": 57,
              "position": 4,
              "duration": 0.9895833333333334
            },
            {
              "pitch": 63,
              "velocity": 57,
              "position": 4.020833333333333,
              "duration": 0.9895833333333334
            },
            {
              "pitch": 53,
              "velocity": 58,
              "position": 5,
              "duration": 0.9895833333333334
            },
            {
              "pitch": 58,
              "velocity": 58,
              "position": 5,
              "duration": 0.9895833333333334
            },
            {
              "pitch": 63,
              "velocity": 57,
              "position": 5.020833333333333,
              "duration": 0.9895833333333334
            },
            {
              "pitch": 53,
              "velocity": 57,
              "position": 7,
              "duration": 0.9895833333333334
            },
            {
              "pitch": 58,
              "velocity": 57,
              "position": 7,
              "duration": 0.9895833333333334
            },
            {
              "pitch": 63,
              "velocity": 55,
              "position": 7.020833333333333,
              "duration": 0.9895833333333334
            },
            {
              "pitch": 53,
              "velocity": 57,
              "position": 8,
              "duration": 0.9895833333333334
            },
            {
              "pitch": 58,
              "velocity": 57,
              "position": 8,
              "duration": 0.9895833333333334
            },
            {
              "pitch": 63,
              "velocity": 55,
              "position": 8.020833333333334,
              "duration": 0.9895833333333334
            },
            {
              "pitch": 53,
              "velocity": 57,
              "position": 10,
              "duration": 0.9895833333333334
            },
            {
              "pitch": 58,
              "velocity": 57,
              "position": 10,
              "duration": 0.9895833333333334
            },
            {
              "pitch": 63,
              "velocity": 57,
              "position": 10.020833333333334,
              "duration": 0.9895833333333334
            },
            {
              "pitch": 53,
              "velocity": 57,
              "position": 11,
              "duration": 0.9375
            },
            {
              "pitch": 58,
              "velocity": 57,
              "position": 11,
              "duration": 0.9375
            },
            {
              "pitch": 63,
              "velocity": 55,
              "position": 11.020833333333334,
              "duration": 0.9375
            }
          ]
        },
        "4": {
          "ctab": {
            "srcChannel": 4,
            "name": "gtr25",
            "accType": "CHORD1",
            "editable": false,
            "mutedNotes": [],
            "mutedChords": [],
            "autoStart": false,
            "sourceChordNote": 0,
            "sourceChordType": "min7(11)",
            "ctb2Low": null,
            "ctb2Main": {
              "ntr": "ROOT_FIXED",
              "ntt": "CHORD",
              "bassOn": false,
              "chordRootUpperLimit": 7,
              "noteLowLimit": 38,
              "noteHighLimit": 127,
              "rtr": "PITCH_SHIFT"
            },
            "ctb2High": null
          },
          "notes": [
            {
              "pitch": 41,
              "velocity": 103,
              "position": 0,
              "duration": 0.65625
            },
            {
              "pitch": 46,
              "velocity": 109,
              "position": 0,
              "duration": 0.65625
            },
            {
              "pitch": 46,
              "velocity": 84,
              "position": 0.6666666666666666,
              "duration": 0.3229166666666667
            },
            {
              "pitch": 46,
              "velocity": 91,
              "position": 1,
              "duration": 0.9895833333333334
            },
            {
              "pitch": 51,
              "velocity": 95,
              "position": 1.0104166666666667,
              "duration": 0.9895833333333334
            },
            {
              "pitch": 41,
              "velocity": 89,
              "position": 2,
              "duration": 0.65625
            },
            {
              "pitch": 46,
              "velocity": 96,
              "position": 2,
              "duration": 0.65625
            },
            {
              "pitch": 46,
              "velocity": 77,
              "position": 2.6666666666666665,
              "duration": 0.3229166666666667
            },
            {
              "pitch": 46,
              "velocity": 109,
              "position": 3,
              "duration": 0.65625
            },
            {
              "pitch": 46,
              "velocity": 84,
              "position": 3.6666666666666665,
              "duration": 0.3229166666666667
            },
            {
              "pitch": 46,
              "velocity": 91,
              "position": 4,
              "duration": 0.9895833333333334
            },
            {
              "pitch": 51,
              "velocity": 95,
              "position": 4.010416666666667,
              "duration": 0.9895833333333334
            },
            {
              "pitch": 41,
              "velocity": 89,
              "position": 5,
              "duration": 0.65625
            },
            {
              "pitch": 46,
              "velocity": 96,
              "position": 5,
              "duration": 0.65625
            },
            {
              "pitch": 46,
              "velocity": 77,
              "position": 5.666666666666667,
              "duration": 0.3229166666666667
            },
            {
              "pitch": 46,
              "velocity": 109,
              "position": 6,
              "duration": 0.65625
            },
            {
              "pitch": 46,
              "velocity": 84,
              "position": 6.666666666666667,
              "duration": 0.3229166666666667
            },
            {
              "pitch": 46,
              "velocity": 91,
              "position": 7,
              "duration": 0.9895833333333334
            },
            {
              "pitch": 51,
              "velocity": 95,
              "position": 7.010416666666667,
              "duration": 0.9895833333333334
            },
            {
              "pitch": 41,
              "velocity": 89,
              "position": 8,
              "duration": 0.65625
            },
            {
              "pitch": 46,
              "velocity": 96,
              "position": 8,
              "duration": 0.65625
            },
            {
              "pitch": 46,
              "velocity": 77,
              "position": 8.666666666666666,
              "duration": 0.3229166666666667
            },
            {
              "pitch": 46,
              "velocity": 109,
              "position": 9,
              "duration": 0.65625
            },
            {
              "pitch": 46,
              "velocity": 84,
              "position": 9.666666666666666,
              "duration": 0.3229166666666667
            },
            {
              "pitch": 46,
              "velocity": 91,
              "position": 10,
              "duration": 0.9895833333333334
            },
            {
              "pitch": 51,
              "velocity": 95,
              "position": 10.010416666666666,
              "duration": 0.9895833333333334
            },
            {
              "pitch": 41,
              "velocity": 89,
              "position": 11,
              "duration": 0.65625
            },
            {
              "pitch": 46,
              "velocity": 96,
              "position": 11,
              "duration": 0.65625
            },
            {
              "pitch": 46,
              "velocity": 77,
              "position": 11.666666666666666,
              "duration": 0.3229166666666667
            }
          ]
        },
        "5": {
          "ctab": {
            "srcChannel": 5,
            "name": "epi",
            "accType": "CHORD2",
            "editable": false,
            "mutedNotes": [],
            "mutedChords": [],
            "autoStart": false,
            "sourceChordNote": 0,
            "sourceChordType": "Maj7",
            "ctb2Low": null,
            "ctb2Main": {
              "ntr": "ROOT_FIXED",
              "ntt": "CHORD",
              "bassOn": false,
              "chordRootUpperLimit": 7,
              "noteLowLimit": 50,
              "noteHighLimit": 127,
              "rtr": "PITCH_SHIFT"
            },
            "ctb2High": null
          },
          "notes": [
            {
              "pitch": 59,
              "velocity": 46,
              "position": 0,
              "duration": 0.9895833333333334
            },
            {
              "pitch": 64,
              "velocity": 37,
              "position": 0,
              "duration": 0.9895833333333334
            },
            {
              "pitch": 67,
              "velocity": 34,
              "position": 0,
              "duration": 0.9895833333333334
            },
            {
              "pitch": 59,
              "velocity": 56,
              "position": 1,
              "duration": 0.9895833333333334
            },
            {
              "pitch": 64,
              "velocity": 63,
              "position": 1,
              "duration": 0.9895833333333334
            },
            {
              "pitch": 67,
              "velocity": 51,
              "position": 1,
              "duration": 0.9895833333333334
            },
            {
              "pitch": 59,
              "velocity": 57,
              "position": 2,
              "duration": 1.9895833333333333
            },
            {
              "pitch": 64,
              "velocity": 65,
              "position": 2,
              "duration": 1.9895833333333333
            },
            {
              "pitch": 67,
              "velocity": 51,
              "position": 2,
              "duration": 1.9895833333333333
            },
            {
              "pitch": 59,
              "velocity": 51,
              "position": 4,
              "duration": 0.9895833333333334
            },
            {
              "pitch": 64,
              "velocity": 62,
              "position": 4,
              "duration": 0.9895833333333334
            },
            {
              "pitch": 67,
              "velocity": 48,
              "position": 4,
              "duration": 0.9895833333333334
            },
            {
              "pitch": 59,
              "velocity": 51,
              "position": 5,
              "duration": 1.9895833333333333
            },
            {
              "pitch": 64,
              "velocity": 58,
              "position": 5,
              "duration": 1.9895833333333333
            },
            {
              "pitch": 67,
              "velocity": 51,
              "position": 5,
              "duration": 1.9895833333333333
            },
            {
              "pitch": 59,
              "velocity": 59,
              "position": 7,
              "duration": 0.9895833333333334
            },
            {
              "pitch": 64,
              "velocity": 65,
              "position": 7,
              "duration": 0.9895833333333334
            },
            {
              "pitch": 67,
              "velocity": 46,
              "position": 7,
              "duration": 0.9895833333333334
            },
            {
              "pitch": 59,
              "velocity": 50,
              "position": 8,
              "duration": 1.9895833333333333
            },
            {
              "pitch": 64,
              "velocity": 53,
              "position": 8,
              "duration": 1.9895833333333333
            },
            {
              "pitch": 67,
              "velocity": 51,
              "position": 8,
              "duration": 1.9895833333333333
            },
            {
              "pitch": 59,
              "velocity": 52,
              "position": 10,
              "duration": 0.9895833333333334
            },
            {
              "pitch": 64,
              "velocity": 58,
              "position": 10,
              "duration": 0.9895833333333334
            },
            {
              "pitch": 67,
              "velocity": 42,
              "position": 10,
              "duration": 0.9895833333333334
            },
            {
              "pitch": 59,
              "velocity": 57,
              "position": 11,
              "duration": 0.9895833333333334
            },
            {
              "pitch": 64,
              "velocity": 65,
              "position": 11,
              "duration": 0.9895833333333334
            },
            {
              "pitch": 67,
              "velocity": 48,
              "position": 11,
              "duration": 0.9895833333333334
            }
          ]
        },
        "6": {
          "ctab": {
            "srcChannel": 6,
            "name": "strg",
            "accType": "PAD",
            "editable": false,
            "mutedNotes": [],
            "mutedChords": [],
            "autoStart": false,
            "sourceChordNote": 0,
            "sourceChordType": "min7(11)",
            "ctb2Low": null,
            "ctb2Main": {
              "ntr": "ROOT_FIXED",
              "ntt": "CHORD",
              "bassOn": false,
              "chordRootUpperLimit": 7,
              "noteLowLimit": 50,
              "noteHighLimit": 127,
              "rtr": "PITCH_SHIFT"
            },
            "ctb2High": null
          },
          "notes": [
            {
              "pitch": 53,
              "velocity": 39,
              "position": 0,
              "duration": 11.989583333333334
            },
            {
              "pitch": 58,
              "velocity": 39,
              "position": 0,
              "duration": 11.989583333333334
            },
            {
              "pitch": 63,
              "velocity": 39,
              "position": 0,
              "duration": 11.989583333333334
            }
          ]
        },
        "7": {
          "ctab": {
            "srcChannel": 7,
            "name": "gtr25",
            "accType": "CHORD1",
            "editable": false,
            "mutedNotes": [],
            "mutedChords": [
              "1+2+5",
              "sus4",
              "1+5",
              "1+8",
              "Maj7aug",
              "dim",
              "minMaj7(9)",
              "minMaj7",
              "min6",
              "min",
              "aug",
              "Maj7(9)",
              "Maj7#11",
              "Maj7",
              "Maj6",
              "Maj"
            ],
            "autoStart": false,
            "sourceChordNote": 0,
            "sourceChordType": "Maj7",
            "ctb2Low": null,
            "ctb2Main": {
              "ntr": "ROOT_TRANSPOSITION",
              "ntt": "MELODY",
              "bassOn": false,
              "chordRootUpperLimit": 6,
              "noteLowLimit": 0,
              "noteHighLimit": 127,
              "rtr": "PITCH_SHIFT"
            },
            "ctb2High": null
          },
          "notes": [
            {
              "pitch": 48,
              "velocity": 109,
              "position": 0,
              "duration": 0.65625
            },
            {
              "pitch": 48,
              "velocity": 84,
              "position": 0.6666666666666666,
              "duration": 0.3229166666666667
            },
            {
              "pitch": 48,
              "velocity": 91,
              "position": 1,
              "duration": 0.9895833333333334
            },
            {
              "pitch": 48,
              "velocity": 96,
              "position": 2,
              "duration": 0.65625
            },
            {
              "pitch": 48,
              "velocity": 77,
              "position": 2.6666666666666665,
              "duration": 0.3229166666666667
            },
            {
              "pitch": 48,
              "velocity": 109,
              "position": 3,
              "duration": 0.65625
            },
            {
              "pitch": 48,
              "velocity": 84,
              "position": 3.6666666666666665,
              "duration": 0.3229166666666667
            },
            {
              "pitch": 48,
              "velocity": 91,
              "position": 4,
              "duration": 0.9895833333333334
            },
            {
              "pitch": 48,
              "velocity": 96,
              "position": 5,
              "duration": 0.65625
            },
            {
              "pitch": 48,
              "velocity": 77,
              "position": 5.666666666666667,
              "duration": 0.3229166666666667
            },
            {
              "pitch": 48,
              "velocity": 109,
              "position": 6,
              "duration": 0.65625
            },
            {
              "pitch": 48,
              "velocity": 84,
              "position": 6.666666666666667,
              "duration": 0.3229166666666667
            },
            {
              "pitch": 48,
              "velocity": 91,
              "position": 7,
              "duration": 0.9895833333333334
            },
            {
              "pitch": 48,
              "velocity": 96,
              "position": 8,
              "duration": 0.65625
            },
            {
              "pitch": 48,
              "velocity": 77,
              "position": 8.666666666666666,
              "duration": 0.3229166666666667
            },
            {
              "pitch": 48,
              "velocity": 109,
              "position": 9,
              "duration": 0.65625
            },
            {
              "pitch": 48,
              "velocity": 84,
              "position": 9.666666666666666,
              "duration": 0.3229166666666667
            },
            {
              "pitch": 48,
              "velocity": 91,
              "position": 10,
              "duration": 0.9895833333333334
            },
            {
              "pitch": 48,
              "velocity": 96,
              "position": 11,
              "duration": 0.65625
            },
            {
              "pitch": 48,
              "velocity": 77,
              "position": 11.666666666666666,
              "duration": 0.3229166666666667
            }
          ]
        },
        "8": {
          "ctab": {
            "srcChannel": 8,
            "name": "add-dr",
            "accType": "SUBRHYTHM",
            "editable": false,
            "mutedNotes": [],
            "mutedChords": [],
            "autoStart": true,
            "sourceChordNote": 0,
            "sourceChordType": "Maj7",
            "ctb2Low": null,
            "ctb2Main": {
              "ntr": "ROOT_FIXED",
              "ntt": "BYPASS",
              "bassOn": false,
              "chordRootUpperLimit": 7,
              "noteLowLimit": 0,
              "noteHighLimit": 127,
              "rtr": "PITCH_SHIFT"
            },
            "ctb2High": null
          },
          "notes": [
            {
              "pitch": 54,
              "velocity": 71,
              "position": 2.0208333333333335,
              "duration": 0.010416666666666666
            },
            {
              "pitch": 54,
              "velocity": 71,
              "position": 5.020833333333333,
              "duration": 0.010416666666666666
            },
            {
              "pitch": 54,
              "velocity": 71,
              "position": 8.020833333333334,
              "duration": 0.010416666666666666
            },
            {
              "pitch": 54,
              "velocity": 71,
              "position": 11.020833333333334,
              "duration": 0.010416666666666666
            }
          ]
        },
        "9": {
          "ctab": {
            "srcChannel": 9,
            "name": "m-drums",
            "accType": "RHYTHM",
            "editable": false,
            "mutedNotes": [],
            "mutedChords": [],
            "autoStart": true,
            "sourceChordNote": 0,
            "sourceChordType": "Maj7",
            "ctb2Low": null,
            "ctb2Main": {
              "ntr": "ROOT_FIXED",
              "ntt": "BYPASS",
              "bassOn": false,
              "chordRootUpperLimit": 7,
              "noteLowLimit": 0,
              "noteHighLimit": 127,
              "rtr": "PITCH_SHIFT"
            },
            "ctb2High": null
          },
          "notes": [
            {
              "pitch": 51,
              "velocity": 60,
              "position": 0,
              "duration": 0.0625
            },
            {
              "pitch": 35,
              "velocity": 91,
              "position": 0,
              "duration": 0.125
            },
            {
              "pitch": 51,
              "velocity": 30,
              "position": 0.6666666666666666,
              "duration": 0.010416666666666666
            },
            {
              "pitch": 44,
              "velocity": 46,
              "position": 1,
              "duration": 0.010416666666666666
            },
            {
              "pitch": 51,
              "velocity": 51,
              "position": 1,
              "duration": 0.0625
            },
            {
              "pitch": 37,
              "velocity": 72,
              "position": 2,
              "duration": 0.020833333333333332
            },
            {
              "pitch": 51,
              "velocity": 55,
              "position": 2,
              "duration": 0.0625
            },
            {
              "pitch": 51,
              "velocity": 30,
              "position": 2.6666666666666665,
              "duration": 0.010416666666666666
            },
            {
              "pitch": 35,
              "velocity": 49,
              "position": 2.6666666666666665,
              "duration": 0.125
            },
            {
              "pitch": 51,
              "velocity": 61,
              "position": 3,
              "duration": 0.0625
            },
            {
              "pitch": 35,
              "velocity": 91,
              "position": 3,
              "duration": 0.125
            },
            {
              "pitch": 44,
              "velocity": 46,
              "position": 4,
              "duration": 0.010416666666666666
            },
            {
              "pitch": 51,
              "velocity": 51,
              "position": 4,
              "duration": 0.0625
            },
            {
              "pitch": 40,
              "velocity": 80,
              "position": 5,
              "duration": 0.020833333333333332
            },
            {
              "pitch": 51,
              "velocity": 58,
              "position": 5,
              "duration": 0.0625
            },
            {
              "pitch": 51,
              "velocity": 30,
              "position": 5.666666666666667,
              "duration": 0.010416666666666666
            },
            {
              "pitch": 51,
              "velocity": 61,
              "position": 6,
              "duration": 0.0625
            },
            {
              "pitch": 35,
              "velocity": 91,
              "position": 6,
              "duration": 0.125
            },
            {
              "pitch": 44,
              "velocity": 46,
              "position": 7,
              "duration": 0.010416666666666666
            },
            {
              "pitch": 51,
              "velocity": 53,
              "position": 7,
              "duration": 0.0625
            },
            {
              "pitch": 37,
              "velocity": 72,
              "position": 8,
              "duration": 0.020833333333333332
            },
            {
              "pitch": 51,
              "velocity": 55,
              "position": 8,
              "duration": 0.0625
            },
            {
              "pitch": 51,
              "velocity": 30,
              "position": 8.666666666666666,
              "duration": 0.010416666666666666
            },
            {
              "pitch": 35,
              "velocity": 49,
              "position": 8.666666666666666,
              "duration": 0.125
            },
            {
              "pitch": 51,
              "velocity": 61,
              "position": 9,
              "duration": 0.0625
            },
            {
              "pitch": 35,
              "velocity": 91,
              "position": 9,
              "duration": 0.125
            },
            {
              "pitch": 44,
              "velocity": 46,
              "position": 10,
              "duration": 0.010416666666666666
            },
            {
              "pitch": 51,
              "velocity": 55,
              "position": 10,
              "duration": 0.0625
            },
            {
              "pitch": 40,
              "velocity": 80,
              "position": 11,
              "duration": 0.020833333333333332
            },
            {
              "pitch": 51,
              "velocity": 59,
              "position": 11,
              "duration": 0.0625
            },
            {
              "pitch": 51,
              "velocity": 30,
              "position": 11.666666666666666,
              "duration": 0.010416666666666666
            }
          ]
        },
        "10": {
          "ctab": {
            "srcChannel": 10,
            "name": "CC_Crash",
            "accType": "RHYTHM",
            "editable": false,
            "mutedNotes": [],
            "mutedChords": [
              "1+2+5",
              "sus4",
              "1+5",
              "1+8",
              "7aug",
              "Maj7aug",
              "7(#9)",
              "7(b13)",
              "7(b9)",
              "7(13)",
              "7#11",
              "7(9)",
              "7b5",
              "7sus4",
              "7th",
              "dim7",
              "dim",
              "minMaj7(9)",
              "minMaj7",
              "min7(11)",
              "min7(9)",
              "min(9)",
              "m7b5",
              "min7",
              "min6",
              "min",
              "aug",
              "Maj6(9)",
              "Maj7(9)",
              "Maj(9)",
              "Maj7#11",
              "Maj7",
              "Maj6",
              "Maj"
            ],
            "autoStart": true,
            "sourceChordNote": 0,
            "sourceChordType": "Maj",
            "ctb2Low": null,
            "ctb2Main": {
              "ntr": "ROOT_FIXED",
              "ntt": "BYPASS",
              "bassOn": false,
              "chordRootUpperLimit": 0,
              "noteLowLimit": 0,
              "noteHighLimit": 127,
              "rtr": "RETRIGGER"
            },
            "ctb2High": null
          },
          "notes": []
        },
        "12": {
          "ctab": {
            "srcChannel": 12,
            "name": "bass",
            "accType": "BASS",
            "editable": false,
            "mutedNotes": [],
            "mutedChords": [],
            "autoStart": false,
            "sourceChordNote": 0,
            "sourceChordType": "Maj7",
            "ctb2Low": null,
            "ctb2Main": {
              "ntr": "ROOT_TRANSPOSITION",
              "ntt": "MELODY",
              "bassOn": true,
              "chordRootUpperLimit": 8,
              "noteLowLimit": 28,
              "noteHighLimit": 127,
              "rtr": "PITCH_SHIFT_TO_ROOT"
            },
            "ctb2High": null
          },
          "notes": [
            {
              "pitch": 24,
              "velocity": 95,
              "position": 0,
              "duration": 2.65625
            },
            {
              "pitch": 24,
              "velocity": 74,
              "position": 2.6666666666666665,
              "duration": 0.3229166666666667
            },
            {
              "pitch": 24,
              "velocity": 95,
              "position": 3,
              "duration": 2.65625
            },
            {
              "pitch": 19,
              "velocity": 74,
              "position": 5.666666666666667,
              "duration": 0.3229166666666667
            },
            {
              "pitch": 24,
              "velocity": 95,
              "position": 6,
              "duration": 2.65625
            },
            {
              "pitch": 24,
              "velocity": 74,
              "position": 8.666666666666666,
              "duration": 0.3229166666666667
            },
            {
              "pitch": 24,
              "velocity": 95,
              "position": 9,
              "duration": 2.65625
            },
            {
              "pitch": 19,
              "velocity": 74,
              "position": 11.666666666666666,
              "duration": 0.3229166666666667
            }
          ]
        },
        "15": {
          "ctab": {
            "srcChannel": 15,
            "name": "StFX",
            "accType": "PHRASE1",
            "editable": false,
            "mutedNotes": [],
            "mutedChords": [],
            "autoStart": false,
            "sourceChordNote": 0,
            "sourceChordType": "min7(11)",
            "ctb2Low": null,
            "ctb2Main": {
              "ntr": "ROOT_FIXED",
              "ntt": "BYPASS",
              "bassOn": false,
              "chordRootUpperLimit": 7,
              "noteLowLimit": 0,
              "noteHighLimit": 127,
              "rtr": "PITCH_SHIFT"
            },
            "ctb2High": null
          },
          "notes": [
            {
              "pitch": 104,
              "velocity": 116,
              "position": 1,
              "duration": 0.23958333333333334
            },
            {
              "pitch": 98,
              "velocity": 117,
              "position": 2,
              "duration": 0.23958333333333334
            },
            {
              "pitch": 104,
              "velocity": 116,
              "position": 4,
              "duration": 0.23958333333333334
            },
            {
              "pitch": 98,
              "velocity": 116,
              "position": 5,
              "duration": 0.23958333333333334
            },
            {
              "pitch": 104,
              "velocity": 114,
              "position": 7,
              "duration": 0.23958333333333334
            },
            {
              "pitch": 98,
              "velocity": 114,
              "position": 8,
              "duration": 0.23958333333333334
            },
            {
              "pitch": 104,
              "velocity": 116,
              "position": 10,
              "duration": 0.23958333333333334
            },
            {
              "pitch": 98,
              "velocity": 114,
              "position": 11,
              "duration": 0.23958333333333334
            }
          ]
        }
      }
    },
    "Fill_In_CC": {
      "type": "Fill_In_CC",
      "sizeInBeats": 3,
      "channels": {
        "0": {
          "ctab": {
            "srcChannel": 0,
            "name": "HiStFX",
            "accType": "CHORD1",
            "editable": false,
            "mutedNotes": [],
            "mutedChords": [],
            "autoStart": false,
            "sourceChordNote": 0,
            "sourceChordType": "min7(11)",
            "ctb2Low": null,
            "ctb2Main": {
              "ntr": "ROOT_FIXED",
              "ntt": "BYPASS",
              "bassOn": false,
              "chordRootUpperLimit": 7,
              "noteLowLimit": 0,
              "noteHighLimit": 79,
              "rtr": "PITCH_SHIFT"
            },
            "ctb2High": null
          },
          "notes": [
            {
              "pitch": 98,
              "velocity": 104,
              "position": 0,
              "duration": 0.23958333333333334
            },
            {
              "pitch": 99,
              "velocity": 82,
              "position": 0.6666666666666666,
              "duration": 0.23958333333333334
            },
            {
              "pitch": 98,
              "velocity": 86,
              "position": 1,
              "duration": 0.23958333333333334
            },
            {
              "pitch": 100,
              "velocity": 91,
              "position": 2,
              "duration": 0.23958333333333334
            },
            {
              "pitch": 99,
              "velocity": 78,
              "position": 2.6666666666666665,
              "duration": 0.23958333333333334
            }
          ]
        },
        "1": {
          "ctab": {
            "srcChannel": 1,
            "name": "gtr low",
            "accType": "PHRASE1",
            "editable": false,
            "mutedNotes": [],
            "mutedChords": [],
            "autoStart": false,
            "sourceChordNote": 0,
            "sourceChordType": "Maj7",
            "ctb2Low": null,
            "ctb2Main": {
              "ntr": "ROOT_TRANSPOSITION",
              "ntt": "MELODY",
              "bassOn": true,
              "chordRootUpperLimit": 6,
              "noteLowLimit": 0,
              "noteHighLimit": 127,
              "rtr": "PITCH_SHIFT_TO_ROOT"
            },
            "ctb2High": null
          },
          "notes": [
            {
              "pitch": 48,
              "velocity": 43,
              "position": 0,
              "duration": 2.7395833333333335
            }
          ]
        },
        "2": {
          "ctab": {
            "srcChannel": 2,
            "name": "strg",
            "accType": "PAD",
            "editable": false,
            "mutedNotes": [],
            "mutedChords": [
              "1+2+5",
              "sus4",
              "1+5",
              "1+8",
              "Maj7aug",
              "dim",
              "minMaj7(9)",
              "minMaj7",
              "min6",
              "min",
              "aug",
              "Maj7(9)",
              "Maj7#11",
              "Maj7",
              "Maj6",
              "Maj"
            ],
            "autoStart": false,
            "sourceChordNote": 0,
            "sourceChordType": "Maj7",
            "ctb2Low": null,
            "ctb2Main": {
              "ntr": "ROOT_TRANSPOSITION",
              "ntt": "CHORD",
              "bassOn": false,
              "chordRootUpperLimit": 6,
              "noteLowLimit": 0,
              "noteHighLimit": 127,
              "rtr": "PITCH_SHIFT"
            },
            "ctb2High": null
          },
          "notes": [
            {
              "pitch": 60,
              "velocity": 37,
              "position": 0,
              "duration": 2.9895833333333335
            }
          ]
        },
        "3": {
          "ctab": {
            "srcChannel": 3,
            "name": "gtr25",
            "accType": "PHRASE1",
            "editable": false,
            "mutedNotes": [],
            "mutedChords": [],
            "autoStart": false,
            "sourceChordNote": 0,
            "sourceChordType": "min7(11)",
            "ctb2Low": null,
            "ctb2Main": {
              "ntr": "ROOT_FIXED",
              "ntt": "CHORD",
              "bassOn": false,
              "chordRootUpperLimit": 6,
              "noteLowLimit": 50,
              "noteHighLimit": 127,
              "rtr": "PITCH_SHIFT"
            },
            "ctb2High": null
          },
          "notes": [
            {
              "pitch": 53,
              "velocity": 59,
              "position": 1.0208333333333333,
              "duration": 0.9895833333333334
            },
            {
              "pitch": 58,
              "velocity": 59,
              "position": 1.0208333333333333,
              "duration": 0.9895833333333334
            },
            {
              "pitch": 63,
              "velocity": 57,
              "position": 1.0520833333333333,
              "duration": 0.9895833333333334
            },
            {
              "pitch": 53,
              "velocity": 57,
              "position": 2.0208333333333335,
              "duration": 0.96875
            },
            {
              "pitch": 58,
              "velocity": 57,
              "position": 2.0208333333333335,
              "duration": 0.96875
            },
            {
              "pitch": 63,
              "velocity": 58,
              "position": 2.0520833333333335,
              "duration": 0.9375
            }
          ]
        },
        "4": {
          "ctab": {
            "srcChannel": 4,
            "name": "gtr25",
            "accType": "CHORD1",
            "editable": false,
            "mutedNotes": [],
            "mutedChords": [],
            "autoStart": false,
            "sourceChordNote": 0,
            "sourceChordType": "min7(11)",
            "ctb2Low": null,
            "ctb2Main": {
              "ntr": "ROOT_FIXED",
              "ntt": "CHORD",
              "bassOn": false,
              "chordRootUpperLimit": 7,
              "noteLowLimit": 38,
              "noteHighLimit": 127,
              "rtr": "PITCH_SHIFT"
            },
            "ctb2High": null
          },
          "notes": [
            {
              "pitch": 41,
              "velocity": 95,
              "position": 0,
              "duration": 0.65625
            },
            {
              "pitch": 46,
              "velocity": 102,
              "position": 0,
              "duration": 0.65625
            },
            {
              "pitch": 46,
              "velocity": 75,
              "position": 0.6666666666666666,
              "duration": 0.3229166666666667
            },
            {
              "pitch": 46,
              "velocity": 82,
              "position": 1,
              "duration": 0.9895833333333334
            },
            {
              "pitch": 51,
              "velocity": 86,
              "position": 1.0104166666666667,
              "duration": 0.9895833333333334
            },
            {
              "pitch": 41,
              "velocity": 79,
              "position": 2,
              "duration": 0.65625
            },
            {
              "pitch": 46,
              "velocity": 88,
              "position": 2,
              "duration": 0.65625
            },
            {
              "pitch": 46,
              "velocity": 67,
              "position": 2.6666666666666665,
              "duration": 0.3229166666666667
            }
          ]
        },
        "5": {
          "ctab": {
            "srcChannel": 5,
            "name": "epi",
            "accType": "CHORD2",
            "editable": false,
            "mutedNotes": [],
            "mutedChords": [],
            "autoStart": false,
            "sourceChordNote": 0,
            "sourceChordType": "Maj7",
            "ctb2Low": null,
            "ctb2Main": {
              "ntr": "ROOT_FIXED",
              "ntt": "CHORD",
              "bassOn": false,
              "chordRootUpperLimit": 7,
              "noteLowLimit": 50,
              "noteHighLimit": 127,
              "rtr": "PITCH_SHIFT"
            },
            "ctb2High": null
          },
          "notes": [
            {
              "pitch": 59,
              "velocity": 46,
              "position": 0,
              "duration": 0.9895833333333334
            },
            {
              "pitch": 64,
              "velocity": 37,
              "position": 0,
              "duration": 0.9895833333333334
            },
            {
              "pitch": 67,
              "velocity": 34,
              "position": 0,
              "duration": 0.9895833333333334
            },
            {
              "pitch": 59,
              "velocity": 56,
              "position": 1,
              "duration": 0.9895833333333334
            },
            {
              "pitch": 64,
              "velocity": 63,
              "position": 1,
              "duration": 0.9895833333333334
            },
            {
              "pitch": 67,
              "velocity": 51,
              "position": 1,
              "duration": 0.9895833333333334
            },
            {
              "pitch": 59,
              "velocity": 57,
              "position": 2,
              "duration": 0.9895833333333334
            },
            {
              "pitch": 64,
              "velocity": 65,
              "position": 2,
              "duration": 0.9895833333333334
            },
            {
              "pitch": 67,
              "velocity": 51,
              "position": 2,
              "duration": 0.9895833333333334
            }
          ]
        },
        "6": {
          "ctab": {
            "srcChannel": 6,
            "name": "strg",
            "accType": "PAD",
            "editable": false,
            "mutedNotes": [],
            "mutedChords": [],
            "autoStart": false,
            "sourceChordNote": 0,
            "sourceChordType": "min7(11)",
            "ctb2Low": null,
            "ctb2Main": {
              "ntr": "ROOT_FIXED",
              "ntt": "CHORD",
              "bassOn": false,
              "chordRootUpperLimit": 7,
              "noteLowLimit": 50,
              "noteHighLimit": 127,
              "rtr": "PITCH_SHIFT"
            },
            "ctb2High": null
          },
          "notes": [
            {
              "pitch": 53,
              "velocity": 39,
              "position": 0,
              "duration": 2.9895833333333335
            },
            {
              "pitch": 58,
              "velocity": 39,
              "position": 0,
              "duration": 2.9895833333333335
            },
            {
              "pitch": 63,
              "velocity": 39,
              "position": 0,
              "duration": 2.9895833333333335
            }
          ]
        },
        "7": {
          "ctab": {
            "srcChannel": 7,
            "name": "gtr25",
            "accType": "CHORD1",
            "editable": false,
            "mutedNotes": [],
            "mutedChords": [
              "1+2+5",
              "sus4",
              "1+5",
              "1+8",
              "Maj7aug",
              "dim",
              "minMaj7(9)",
              "minMaj7",
              "min6",
              "min",
              "aug",
              "Maj7(9)",
              "Maj7#11",
              "Maj7",
              "Maj6",
              "Maj"
            ],
            "autoStart": false,
            "sourceChordNote": 0,
            "sourceChordType": "Maj7",
            "ctb2Low": null,
            "ctb2Main": {
              "ntr": "ROOT_TRANSPOSITION",
              "ntt": "MELODY",
              "bassOn": false,
              "chordRootUpperLimit": 6,
              "noteLowLimit": 0,
              "noteHighLimit": 127,
              "rtr": "PITCH_SHIFT"
            },
            "ctb2High": null
          },
          "notes": [
            {
              "pitch": 48,
              "velocity": 102,
              "position": 0,
              "duration": 0.65625
            },
            {
              "pitch": 48,
              "velocity": 75,
              "position": 0.6666666666666666,
              "duration": 0.3229166666666667
            },
            {
              "pitch": 48,
              "velocity": 82,
              "position": 1,
              "duration": 0.9895833333333334
            },
            {
              "pitch": 48,
              "velocity": 88,
              "position": 2,
              "duration": 0.65625
            },
            {
              "pitch": 48,
              "velocity": 67,
              "position": 2.6666666666666665,
              "duration": 0.3229166666666667
            }
          ]
        },
        "8": {
          "ctab": {
            "srcChannel": 8,
            "name": "add-dr",
            "accType": "SUBRHYTHM",
            "editable": false,
            "mutedNotes": [],
            "mutedChords": [],
            "autoStart": true,
            "sourceChordNote": 0,
            "sourceChordType": "Maj7",
            "ctb2Low": null,
            "ctb2Main": {
              "ntr": "ROOT_FIXED",
              "ntt": "BYPASS",
              "bassOn": false,
              "chordRootUpperLimit": 7,
              "noteLowLimit": 0,
              "noteHighLimit": 127,
              "rtr": "PITCH_SHIFT"
            },
            "ctb2High": null
          },
          "notes": [
            {
              "pitch": 54,
              "velocity": 61,
              "position": 1.0104166666666667,
              "duration": 0.010416666666666666
            },
            {
              "pitch": 54,
              "velocity": 71,
              "position": 2.0104166666666665,
              "duration": 0.010416666666666666
            }
          ]
        },
        "9": {
          "ctab": {
            "srcChannel": 9,
            "name": "m-drums",
            "accType": "RHYTHM",
            "editable": false,
            "mutedNotes": [],
            "mutedChords": [],
            "autoStart": true,
            "sourceChordNote": 0,
            "sourceChordType": "Maj7",
            "ctb2Low": null,
            "ctb2Main": {
              "ntr": "ROOT_FIXED",
              "ntt": "BYPASS",
              "bassOn": false,
              "chordRootUpperLimit": 7,
              "noteLowLimit": 0,
              "noteHighLimit": 127,
              "rtr": "PITCH_SHIFT"
            },
            "ctb2High": null
          },
          "notes": [
            {
              "pitch": 51,
              "velocity": 61,
              "position": 0,
              "duration": 0.0625
            },
            {
              "pitch": 35,
              "velocity": 91,
              "position": 0,
              "duration": 0.125
            },
            {
              "pitch": 51,
              "velocity": 30,
              "position": 0.3333333333333333,
              "duration": 0.010416666666666666
            },
            {
              "pitch": 35,
              "velocity": 59,
              "position": 0.6666666666666666,
              "duration": 0.010416666666666666
            },
            {
              "pitch": 51,
              "velocity": 30,
              "position": 0.6666666666666666,
              "duration": 0.010416666666666666
            },
            {
              "pitch": 40,
              "velocity": 80,
              "position": 1,
              "duration": 0.010416666666666666
            },
            {
              "pitch": 57,
              "velocity": 41,
              "position": 1,
              "duration": 0.0625
            },
            {
              "pitch": 51,
              "velocity": 30,
              "position": 1.3333333333333333,
              "duration": 0.010416666666666666
            },
            {
              "pitch": 48,
              "velocity": 44,
              "position": 1.5,
              "duration": 0.010416666666666666
            },
            {
              "pitch": 48,
              "velocity": 29,
              "position": 1.6666666666666667,
              "duration": 0.010416666666666666
            },
            {
              "pitch": 44,
              "velocity": 46,
              "position": 2,
              "duration": 0.010416666666666666
            },
            {
              "pitch": 45,
              "velocity": 44,
              "position": 2,
              "duration": 0.010416666666666666
            },
            {
              "pitch": 43,
              "velocity": 30,
              "position": 2.3333333333333335,
              "duration": 0.010416666666666666
            },
            {
              "pitch": 41,
              "velocity": 44,
              "position": 2.6666666666666665,
              "duration": 0.010416666666666666
            }
          ]
        },
        "10": {
          "ctab": {
            "srcChannel": 10,
            "name": "CC_Crash",
            "accType": "RHYTHM",
            "editable": false,
            "mutedNotes": [],
            "mutedChords": [
              "1+2+5",
              "sus4",
              "1+5",
              "1+8",
              "7aug",
              "Maj7aug",
              "7(#9)",
              "7(b13)",
              "7(b9)",
              "7(13)",
              "7#11",
              "7(9)",
              "7b5",
              "7sus4",
              "7th",
              "dim7",
              "dim",
              "minMaj7(9)",
              "minMaj7",
              "min7(11)",
              "min7(9)",
              "min(9)",
              "m7b5",
              "min7",
              "min6",
              "min",
              "aug",
              "Maj6(9)",
              "Maj7(9)",
              "Maj(9)",
              "Maj7#11",
              "Maj7",
              "Maj6",
              "Maj"
            ],
            "autoStart": true,
            "sourceChordNote": 0,
            "sourceChordType": "Maj",
            "ctb2Low": null,
            "ctb2Main": {
              "ntr": "ROOT_FIXED",
              "ntt": "BYPASS",
              "bassOn": false,
              "chordRootUpperLimit": 0,
              "noteLowLimit": 0,
              "noteHighLimit": 127,
              "rtr": "RETRIGGER"
            },
            "ctb2High": null
          },
          "notes": []
        },
        "12": {
          "ctab": {
            "srcChannel": 12,
            "name": "bass",
            "accType": "BASS",
            "editable": false,
            "mutedNotes": [],
            "mutedChords": [],
            "autoStart": false,
            "sourceChordNote": 0,
            "sourceChordType": "Maj7",
            "ctb2Low": null,
            "ctb2Main": {
              "ntr": "ROOT_TRANSPOSITION",
              "ntt": "MELODY",
              "bassOn": true,
              "chordRootUpperLimit": 8,
              "noteLowLimit": 28,
              "noteHighLimit": 127,
              "rtr": "PITCH_SHIFT_TO_ROOT"
            },
            "ctb2High": null
          },
          "notes": [
            {
              "pitch": 24,
              "velocity": 82,
              "position": 0,
              "duration": 0.9895833333333334
            },
            {
              "pitch": 24,
              "velocity": 77,
              "position": 1,
              "duration": 0.9895833333333334
            },
            {
              "pitch": 19,
              "velocity": 76,
              "position": 2,
              "duration": 0.9895833333333334
            }
          ]
        },
        "15": {
          "ctab": {
            "srcChannel": 15,
            "name": "StFX",
            "accType": "PHRASE1",
            "editable": false,
            "mutedNotes": [],
            "mutedChords": [],
            "autoStart": false,
            "sourceChordNote": 0,
            "sourceChordType": "min7(11)",
            "ctb2Low": null,
            "ctb2Main": {
              "ntr": "ROOT_FIXED",
              "ntt": "BYPASS",
              "bassOn": false,
              "chordRootUpperLimit": 7,
              "noteLowLimit": 0,
              "noteHighLimit": 127,
              "rtr": "PITCH_SHIFT"
            },
            "ctb2High": null
          },
          "notes": [
            {
              "pitch": 104,
              "velocity": 116,
              "position": 1,
              "duration": 0.23958333333333334
            },
            {
              "pitch": 98,
              "velocity": 117,
              "position": 2,
              "duration": 0.23958333333333334
            }
          ]
        }
      }
    },
    "Main_D": {
      "type": "Main_D",
      "sizeInBeats": 12,
      "channels": {
        "0": {
          "ctab": {
            "srcChannel": 0,
            "name": "HiStFX",
            "accType": "CHORD1",
            "editable": false,
            "mutedNotes": [],
            "mutedChords": [],
            "autoStart": false,
            "sourceChordNote": 0,
            "sourceChordType": "min7(11)",
            "ctb2Low": null,
            "ctb2Main": {
              "ntr": "ROOT_FIXED",
              "ntt": "BYPASS",
              "bassOn": false,
              "chordRootUpperLimit": 7,
              "noteLowLimit": 0,
              "noteHighLimit": 79,
              "rtr": "PITCH_SHIFT"
            },
            "ctb2High": null
          },
          "notes": [
            {
              "pitch": 98,
              "velocity": 104,
              "position": 0,
              "duration": 0.23958333333333334
            },
            {
              "pitch": 99,
              "velocity": 76,
              "position": 0.6666666666666666,
              "duration": 0.23958333333333334
            },
            {
              "pitch": 98,
              "velocity": 94,
              "position": 1,
              "duration": 0.23958333333333334
            },
            {
              "pitch": 99,
              "velocity": 76,
              "position": 1.6666666666666667,
              "duration": 0.23958333333333334
            },
            {
              "pitch": 100,
              "velocity": 117,
              "position": 2,
              "duration": 0.23958333333333334
            },
            {
              "pitch": 99,
              "velocity": 71,
              "position": 2.6666666666666665,
              "duration": 0.23958333333333334
            },
            {
              "pitch": 98,
              "velocity": 104,
              "position": 3,
              "duration": 0.23958333333333334
            },
            {
              "pitch": 99,
              "velocity": 76,
              "position": 3.6666666666666665,
              "duration": 0.23958333333333334
            },
            {
              "pitch": 98,
              "velocity": 94,
              "position": 4,
              "duration": 0.23958333333333334
            },
            {
              "pitch": 99,
              "velocity": 76,
              "position": 4.666666666666667,
              "duration": 0.23958333333333334
            },
            {
              "pitch": 100,
              "velocity": 117,
              "position": 5,
              "duration": 0.23958333333333334
            },
            {
              "pitch": 99,
              "velocity": 71,
              "position": 5.666666666666667,
              "duration": 0.23958333333333334
            },
            {
              "pitch": 98,
              "velocity": 104,
              "position": 6,
              "duration": 0.23958333333333334
            },
            {
              "pitch": 99,
              "velocity": 76,
              "position": 6.666666666666667,
              "duration": 0.23958333333333334
            },
            {
              "pitch": 98,
              "velocity": 94,
              "position": 7,
              "duration": 0.23958333333333334
            },
            {
              "pitch": 99,
              "velocity": 76,
              "position": 7.666666666666667,
              "duration": 0.23958333333333334
            },
            {
              "pitch": 100,
              "velocity": 117,
              "position": 8,
              "duration": 0.23958333333333334
            },
            {
              "pitch": 99,
              "velocity": 71,
              "position": 8.666666666666666,
              "duration": 0.23958333333333334
            },
            {
              "pitch": 98,
              "velocity": 104,
              "position": 9,
              "duration": 0.23958333333333334
            },
            {
              "pitch": 99,
              "velocity": 76,
              "position": 9.666666666666666,
              "duration": 0.23958333333333334
            },
            {
              "pitch": 98,
              "velocity": 94,
              "position": 10,
              "duration": 0.23958333333333334
            },
            {
              "pitch": 99,
              "velocity": 76,
              "position": 10.666666666666666,
              "duration": 0.23958333333333334
            },
            {
              "pitch": 100,
              "velocity": 117,
              "position": 11,
              "duration": 0.23958333333333334
            },
            {
              "pitch": 99,
              "velocity": 71,
              "position": 11.666666666666666,
              "duration": 0.23958333333333334
            }
          ]
        },
        "1": {
          "ctab": {
            "srcChannel": 1,
            "name": "gtr low",
            "accType": "PHRASE1",
            "editable": false,
            "mutedNotes": [],
            "mutedChords": [],
            "autoStart": false,
            "sourceChordNote": 0,
            "sourceChordType": "Maj7",
            "ctb2Low": null,
            "ctb2Main": {
              "ntr": "ROOT_TRANSPOSITION",
              "ntt": "MELODY",
              "bassOn": true,
              "chordRootUpperLimit": 6,
              "noteLowLimit": 0,
              "noteHighLimit": 127,
              "rtr": "PITCH_SHIFT_TO_ROOT"
            },
            "ctb2High": null
          },
          "notes": [
            {
              "pitch": 48,
              "velocity": 46,
              "position": 0,
              "duration": 2.7395833333333335
            },
            {
              "pitch": 48,
              "velocity": 46,
              "position": 3,
              "duration": 2.7395833333333335
            },
            {
              "pitch": 48,
              "velocity": 46,
              "position": 6,
              "duration": 2.7395833333333335
            },
            {
              "pitch": 48,
              "velocity": 46,
              "position": 9,
              "duration": 2.7395833333333335
            }
          ]
        },
        "2": {
          "ctab": {
            "srcChannel": 2,
            "name": "strg",
            "accType": "PAD",
            "editable": false,
            "mutedNotes": [],
            "mutedChords": [
              "1+2+5",
              "sus4",
              "1+5",
              "1+8",
              "Maj7aug",
              "dim",
              "minMaj7(9)",
              "minMaj7",
              "min6",
              "min",
              "aug",
              "Maj7(9)",
              "Maj7#11",
              "Maj7",
              "Maj6",
              "Maj"
            ],
            "autoStart": false,
            "sourceChordNote": 0,
            "sourceChordType": "Maj7",
            "ctb2Low": null,
            "ctb2Main": {
              "ntr": "ROOT_TRANSPOSITION",
              "ntt": "CHORD",
              "bassOn": false,
              "chordRootUpperLimit": 10,
              "noteLowLimit": 0,
              "noteHighLimit": 127,
              "rtr": "PITCH_SHIFT"
            },
            "ctb2High": null
          },
          "notes": [
            {
              "pitch": 60,
              "velocity": 37,
              "position": 0,
              "duration": 11.989583333333334
            }
          ]
        },
        "3": {
          "ctab": {
            "srcChannel": 3,
            "name": "gtr25",
            "accType": "PHRASE1",
            "editable": false,
            "mutedNotes": [],
            "mutedChords": [],
            "autoStart": false,
            "sourceChordNote": 0,
            "sourceChordType": "min7(11)",
            "ctb2Low": null,
            "ctb2Main": {
              "ntr": "ROOT_FIXED",
              "ntt": "CHORD",
              "bassOn": false,
              "chordRootUpperLimit": 6,
              "noteLowLimit": 50,
              "noteHighLimit": 127,
              "rtr": "PITCH_SHIFT"
            },
            "ctb2High": null
          },
          "notes": [
            {
              "pitch": 53,
              "velocity": 47,
              "position": 0.6666666666666666,
              "duration": 0.9895833333333334
            },
            {
              "pitch": 58,
              "velocity": 57,
              "position": 1,
              "duration": 1.65625
            },
            {
              "pitch": 53,
              "velocity": 47,
              "position": 1.6666666666666667,
              "duration": 1.9895833333333333
            },
            {
              "pitch": 58,
              "velocity": 57,
              "position": 2.6666666666666665,
              "duration": 1.3229166666666667
            },
            {
              "pitch": 53,
              "velocity": 47,
              "position": 3.6666666666666665,
              "duration": 0.9895833333333334
            },
            {
              "pitch": 63,
              "velocity": 59,
              "position": 2,
              "duration": 2.9895833333333335
            },
            {
              "pitch": 53,
              "velocity": 47,
              "position": 4.666666666666667,
              "duration": 1.9895833333333333
            },
            {
              "pitch": 58,
              "velocity": 57,
              "position": 4,
              "duration": 2.9895833333333335
            },
            {
              "pitch": 53,
              "velocity": 47,
              "position": 6.666666666666667,
              "duration": 0.9895833333333334
            },
            {
              "pitch": 63,
              "velocity": 59,
              "position": 5,
              "duration": 2.9895833333333335
            },
            {
              "pitch": 58,
              "velocity": 57,
              "position": 7,
              "duration": 1.65625
            },
            {
              "pitch": 53,
              "velocity": 47,
              "position": 7.666666666666667,
              "duration": 1.9895833333333333
            },
            {
              "pitch": 58,
              "velocity": 57,
              "position": 8.666666666666666,
              "duration": 1.3229166666666667
            },
            {
              "pitch": 53,
              "velocity": 47,
              "position": 9.666666666666666,
              "duration": 0.9895833333333334
            },
            {
              "pitch": 58,
              "velocity": 57,
              "position": 10,
              "duration": 0.9895833333333334
            },
            {
              "pitch": 63,
              "velocity": 59,
              "position": 8,
              "duration": 2.9895833333333335
            },
            {
              "pitch": 53,
              "velocity": 47,
              "position": 10.666666666666666,
              "duration": 0.9895833333333334
            },
            {
              "pitch": 63,
              "velocity": 59,
              "position": 11,
              "duration": 0.9895833333333334
            }
          ]
        },
        "4": {
          "ctab": {
            "srcChannel": 4,
            "name": "gtr25",
            "accType": "CHORD1",
            "editable": false,
            "mutedNotes": [],
            "mutedChords": [],
            "autoStart": false,
            "sourceChordNote": 0,
            "sourceChordType": "min7(11)",
            "ctb2Low": null,
            "ctb2Main": {
              "ntr": "ROOT_FIXED",
              "ntt": "CHORD",
              "bassOn": false,
              "chordRootUpperLimit": 7,
              "noteLowLimit": 38,
              "noteHighLimit": 127,
              "rtr": "PITCH_SHIFT"
            },
            "ctb2High": null
          },
          "notes": [
            {
              "pitch": 41,
              "velocity": 111,
              "position": 0,
              "duration": 0.65625
            },
            {
              "pitch": 46,
              "velocity": 114,
              "position": 0,
              "duration": 0.65625
            },
            {
              "pitch": 46,
              "velocity": 82,
              "position": 0.6666666666666666,
              "duration": 0.3229166666666667
            },
            {
              "pitch": 46,
              "velocity": 103,
              "position": 1,
              "duration": 0.65625
            },
            {
              "pitch": 46,
              "velocity": 82,
              "position": 1.6666666666666667,
              "duration": 0.3229166666666667
            },
            {
              "pitch": 46,
              "velocity": 127,
              "position": 2,
              "duration": 0.65625
            },
            {
              "pitch": 46,
              "velocity": 75,
              "position": 2.6666666666666665,
              "duration": 0.3229166666666667
            },
            {
              "pitch": 41,
              "velocity": 76,
              "position": 2.6770833333333335,
              "duration": 0.3125
            },
            {
              "pitch": 41,
              "velocity": 111,
              "position": 3,
              "duration": 0.65625
            },
            {
              "pitch": 46,
              "velocity": 114,
              "position": 3,
              "duration": 0.65625
            },
            {
              "pitch": 46,
              "velocity": 82,
              "position": 3.6666666666666665,
              "duration": 0.3229166666666667
            },
            {
              "pitch": 46,
              "velocity": 103,
              "position": 4,
              "duration": 0.65625
            },
            {
              "pitch": 46,
              "velocity": 82,
              "position": 4.666666666666667,
              "duration": 0.3229166666666667
            },
            {
              "pitch": 46,
              "velocity": 127,
              "position": 5,
              "duration": 0.65625
            },
            {
              "pitch": 46,
              "velocity": 75,
              "position": 5.666666666666667,
              "duration": 0.3229166666666667
            },
            {
              "pitch": 41,
              "velocity": 76,
              "position": 5.677083333333333,
              "duration": 0.3125
            },
            {
              "pitch": 41,
              "velocity": 111,
              "position": 6,
              "duration": 0.65625
            },
            {
              "pitch": 46,
              "velocity": 114,
              "position": 6,
              "duration": 0.65625
            },
            {
              "pitch": 46,
              "velocity": 82,
              "position": 6.666666666666667,
              "duration": 0.3229166666666667
            },
            {
              "pitch": 46,
              "velocity": 103,
              "position": 7,
              "duration": 0.65625
            },
            {
              "pitch": 46,
              "velocity": 82,
              "position": 7.666666666666667,
              "duration": 0.3229166666666667
            },
            {
              "pitch": 46,
              "velocity": 127,
              "position": 8,
              "duration": 0.65625
            },
            {
              "pitch": 46,
              "velocity": 75,
              "position": 8.666666666666666,
              "duration": 0.3229166666666667
            },
            {
              "pitch": 41,
              "velocity": 76,
              "position": 8.677083333333334,
              "duration": 0.3125
            },
            {
              "pitch": 41,
              "velocity": 111,
              "position": 9,
              "duration": 0.65625
            },
            {
              "pitch": 46,
              "velocity": 114,
              "position": 9,
              "duration": 0.65625
            },
            {
              "pitch": 46,
              "velocity": 82,
              "position": 9.666666666666666,
              "duration": 0.3229166666666667
            },
            {
              "pitch": 46,
              "velocity": 103,
              "position": 10,
              "duration": 0.65625
            },
            {
              "pitch": 46,
              "velocity": 82,
              "position": 10.666666666666666,
              "duration": 0.3229166666666667
            },
            {
              "pitch": 46,
              "velocity": 127,
              "position": 11,
              "duration": 0.65625
            },
            {
              "pitch": 46,
              "velocity": 75,
              "position": 11.666666666666666,
              "duration": 0.3229166666666667
            },
            {
              "pitch": 41,
              "velocity": 76,
              "position": 11.677083333333334,
              "duration": 0.3125
            }
          ]
        },
        "5": {
          "ctab": {
            "srcChannel": 5,
            "name": "epi",
            "accType": "CHORD2",
            "editable": false,
            "mutedNotes": [],
            "mutedChords": [],
            "autoStart": false,
            "sourceChordNote": 0,
            "sourceChordType": "Maj7",
            "ctb2Low": null,
            "ctb2Main": {
              "ntr": "ROOT_FIXED",
              "ntt": "CHORD",
              "bassOn": false,
              "chordRootUpperLimit": 7,
              "noteLowLimit": 62,
              "noteHighLimit": 127,
              "rtr": "PITCH_SHIFT"
            },
            "ctb2High": null
          },
          "notes": [
            {
              "pitch": 64,
              "velocity": 37,
              "position": 0,
              "duration": 0.9895833333333334
            },
            {
              "pitch": 67,
              "velocity": 34,
              "position": 0,
              "duration": 0.9895833333333334
            },
            {
              "pitch": 71,
              "velocity": 46,
              "position": 0,
              "duration": 0.9895833333333334
            },
            {
              "pitch": 64,
              "velocity": 47,
              "position": 1,
              "duration": 0.9895833333333334
            },
            {
              "pitch": 67,
              "velocity": 45,
              "position": 1,
              "duration": 0.9895833333333334
            },
            {
              "pitch": 71,
              "velocity": 56,
              "position": 1,
              "duration": 0.9895833333333334
            },
            {
              "pitch": 64,
              "velocity": 65,
              "position": 2,
              "duration": 1.9895833333333333
            },
            {
              "pitch": 67,
              "velocity": 51,
              "position": 2,
              "duration": 1.9895833333333333
            },
            {
              "pitch": 71,
              "velocity": 57,
              "position": 2,
              "duration": 1.9895833333333333
            },
            {
              "pitch": 64,
              "velocity": 62,
              "position": 4,
              "duration": 0.9895833333333334
            },
            {
              "pitch": 67,
              "velocity": 48,
              "position": 4,
              "duration": 0.9895833333333334
            },
            {
              "pitch": 71,
              "velocity": 51,
              "position": 4,
              "duration": 0.9895833333333334
            },
            {
              "pitch": 64,
              "velocity": 58,
              "position": 5,
              "duration": 1.9895833333333333
            },
            {
              "pitch": 67,
              "velocity": 51,
              "position": 5,
              "duration": 1.9895833333333333
            },
            {
              "pitch": 71,
              "velocity": 51,
              "position": 5,
              "duration": 1.9895833333333333
            },
            {
              "pitch": 64,
              "velocity": 65,
              "position": 7,
              "duration": 0.9895833333333334
            },
            {
              "pitch": 67,
              "velocity": 46,
              "position": 7,
              "duration": 0.9895833333333334
            },
            {
              "pitch": 71,
              "velocity": 59,
              "position": 7,
              "duration": 0.9895833333333334
            },
            {
              "pitch": 64,
              "velocity": 53,
              "position": 8,
              "duration": 1.9895833333333333
            },
            {
              "pitch": 67,
              "velocity": 51,
              "position": 8,
              "duration": 1.9895833333333333
            },
            {
              "pitch": 71,
              "velocity": 50,
              "position": 8,
              "duration": 1.9895833333333333
            },
            {
              "pitch": 64,
              "velocity": 58,
              "position": 10,
              "duration": 0.9895833333333334
            },
            {
              "pitch": 67,
              "velocity": 42,
              "position": 10,
              "duration": 0.9895833333333334
            },
            {
              "pitch": 71,
              "velocity": 52,
              "position": 10,
              "duration": 0.9895833333333334
            },
            {
              "pitch": 64,
              "velocity": 65,
              "position": 11,
              "duration": 0.9895833333333334
            },
            {
              "pitch": 67,
              "velocity": 48,
              "position": 11,
              "duration": 0.9895833333333334
            },
            {
              "pitch": 71,
              "velocity": 57,
              "position": 11,
              "duration": 0.9895833333333334
            }
          ]
        },
        "6": {
          "ctab": {
            "srcChannel": 6,
            "name": "strg",
            "accType": "PAD",
            "editable": false,
            "mutedNotes": [],
            "mutedChords": [],
            "autoStart": false,
            "sourceChordNote": 0,
            "sourceChordType": "min7(11)",
            "ctb2Low": null,
            "ctb2Main": {
              "ntr": "ROOT_FIXED",
              "ntt": "CHORD",
              "bassOn": false,
              "chordRootUpperLimit": 7,
              "noteLowLimit": 50,
              "noteHighLimit": 127,
              "rtr": "PITCH_SHIFT"
            },
            "ctb2High": null
          },
          "notes": [
            {
              "pitch": 58,
              "velocity": 39,
              "position": 0,
              "duration": 11.989583333333334
            },
            {
              "pitch": 63,
              "velocity": 39,
              "position": 0,
              "duration": 11.989583333333334
            },
            {
              "pitch": 65,
              "velocity": 39,
              "position": 0,
              "duration": 11.989583333333334
            }
          ]
        },
        "7": {
          "ctab": {
            "srcChannel": 7,
            "name": "gtr25",
            "accType": "CHORD1",
            "editable": false,
            "mutedNotes": [],
            "mutedChords": [
              "1+2+5",
              "sus4",
              "1+5",
              "1+8",
              "Maj7aug",
              "dim",
              "minMaj7(9)",
              "minMaj7",
              "min6",
              "min",
              "aug",
              "Maj7(9)",
              "Maj7#11",
              "Maj7",
              "Maj6",
              "Maj"
            ],
            "autoStart": false,
            "sourceChordNote": 0,
            "sourceChordType": "Maj7",
            "ctb2Low": null,
            "ctb2Main": {
              "ntr": "ROOT_TRANSPOSITION",
              "ntt": "MELODY",
              "bassOn": false,
              "chordRootUpperLimit": 6,
              "noteLowLimit": 0,
              "noteHighLimit": 127,
              "rtr": "PITCH_SHIFT"
            },
            "ctb2High": null
          },
          "notes": [
            {
              "pitch": 48,
              "velocity": 114,
              "position": 0,
              "duration": 0.65625
            },
            {
              "pitch": 48,
              "velocity": 82,
              "position": 0.6666666666666666,
              "duration": 0.3229166666666667
            },
            {
              "pitch": 48,
              "velocity": 103,
              "position": 1,
              "duration": 0.65625
            },
            {
              "pitch": 48,
              "velocity": 82,
              "position": 1.6666666666666667,
              "duration": 0.3229166666666667
            },
            {
              "pitch": 48,
              "velocity": 127,
              "position": 2,
              "duration": 0.65625
            },
            {
              "pitch": 48,
              "velocity": 75,
              "position": 2.6666666666666665,
              "duration": 0.3229166666666667
            },
            {
              "pitch": 48,
              "velocity": 114,
              "position": 3,
              "duration": 0.65625
            },
            {
              "pitch": 48,
              "velocity": 82,
              "position": 3.6666666666666665,
              "duration": 0.3229166666666667
            },
            {
              "pitch": 48,
              "velocity": 103,
              "position": 4,
              "duration": 0.65625
            },
            {
              "pitch": 48,
              "velocity": 82,
              "position": 4.666666666666667,
              "duration": 0.3229166666666667
            },
            {
              "pitch": 48,
              "velocity": 127,
              "position": 5,
              "duration": 0.65625
            },
            {
              "pitch": 48,
              "velocity": 75,
              "position": 5.666666666666667,
              "duration": 0.3229166666666667
            },
            {
              "pitch": 48,
              "velocity": 114,
              "position": 6,
              "duration": 0.65625
            },
            {
              "pitch": 48,
              "velocity": 82,
              "position": 6.666666666666667,
              "duration": 0.3229166666666667
            },
            {
              "pitch": 48,
              "velocity": 103,
              "position": 7,
              "duration": 0.65625
            },
            {
              "pitch": 48,
              "velocity": 82,
              "position": 7.666666666666667,
              "duration": 0.3229166666666667
            },
            {
              "pitch": 48,
              "velocity": 127,
              "position": 8,
              "duration": 0.65625
            },
            {
              "pitch": 48,
              "velocity": 75,
              "position": 8.666666666666666,
              "duration": 0.3229166666666667
            },
            {
              "pitch": 48,
              "velocity": 114,
              "position": 9,
              "duration": 0.65625
            },
            {
              "pitch": 48,
              "velocity": 82,
              "position": 9.666666666666666,
              "duration": 0.3229166666666667
            },
            {
              "pitch": 48,
              "velocity": 103,
              "position": 10,
              "duration": 0.65625
            },
            {
              "pitch": 48,
              "velocity": 82,
              "position": 10.666666666666666,
              "duration": 0.3229166666666667
            },
            {
              "pitch": 48,
              "velocity": 127,
              "position": 11,
              "duration": 0.65625
            },
            {
              "pitch": 48,
              "velocity": 75,
              "position": 11.666666666666666,
              "duration": 0.3229166666666667
            }
          ]
        },
        "8": {
          "ctab": {
            "srcChannel": 8,
            "name": "add-dr",
            "accType": "SUBRHYTHM",
            "editable": false,
            "mutedNotes": [],
            "mutedChords": [],
            "autoStart": true,
            "sourceChordNote": 0,
            "sourceChordType": "Maj7",
            "ctb2Low": null,
            "ctb2Main": {
              "ntr": "ROOT_FIXED",
              "ntt": "BYPASS",
              "bassOn": false,
              "chordRootUpperLimit": 7,
              "noteLowLimit": 0,
              "noteHighLimit": 127,
              "rtr": "PITCH_SHIFT"
            },
            "ctb2High": null
          },
          "notes": [
            {
              "pitch": 54,
              "velocity": 47,
              "position": 1.0208333333333333,
              "duration": 0.010416666666666666
            },
            {
              "pitch": 54,
              "velocity": 72,
              "position": 2.0208333333333335,
              "duration": 0.010416666666666666
            },
            {
              "pitch": 54,
              "velocity": 47,
              "position": 4.020833333333333,
              "duration": 0.010416666666666666
            },
            {
              "pitch": 54,
              "velocity": 72,
              "position": 5.020833333333333,
              "duration": 0.010416666666666666
            },
            {
              "pitch": 54,
              "velocity": 47,
              "position": 7.020833333333333,
              "duration": 0.010416666666666666
            },
            {
              "pitch": 54,
              "velocity": 72,
              "position": 8.020833333333334,
              "duration": 0.010416666666666666
            },
            {
              "pitch": 54,
              "velocity": 47,
              "position": 10.020833333333334,
              "duration": 0.010416666666666666
            },
            {
              "pitch": 54,
              "velocity": 72,
              "position": 11.020833333333334,
              "duration": 0.010416666666666666
            }
          ]
        },
        "9": {
          "ctab": {
            "srcChannel": 9,
            "name": "m-drums",
            "accType": "RHYTHM",
            "editable": false,
            "mutedNotes": [],
            "mutedChords": [],
            "autoStart": true,
            "sourceChordNote": 0,
            "sourceChordType": "Maj7",
            "ctb2Low": null,
            "ctb2Main": {
              "ntr": "ROOT_FIXED",
              "ntt": "BYPASS",
              "bassOn": false,
              "chordRootUpperLimit": 7,
              "noteLowLimit": 0,
              "noteHighLimit": 127,
              "rtr": "PITCH_SHIFT"
            },
            "ctb2High": null
          },
          "notes": [
            {
              "pitch": 59,
              "velocity": 53,
              "position": 0,
              "duration": 0.07291666666666667
            },
            {
              "pitch": 35,
              "velocity": 91,
              "position": 0,
              "duration": 0.125
            },
            {
              "pitch": 59,
              "velocity": 25,
              "position": 0.6666666666666666,
              "duration": 0.020833333333333332
            },
            {
              "pitch": 44,
              "velocity": 46,
              "position": 1,
              "duration": 0.010416666666666666
            },
            {
              "pitch": 59,
              "velocity": 49,
              "position": 1,
              "duration": 0.07291666666666667
            },
            {
              "pitch": 59,
              "velocity": 25,
              "position": 1.6666666666666667,
              "duration": 0.020833333333333332
            },
            {
              "pitch": 40,
              "velocity": 32,
              "position": 1.6666666666666667,
              "duration": 0.07291666666666667
            },
            {
              "pitch": 44,
              "velocity": 46,
              "position": 2,
              "duration": 0.010416666666666666
            },
            {
              "pitch": 40,
              "velocity": 90,
              "position": 2,
              "duration": 0.020833333333333332
            },
            {
              "pitch": 59,
              "velocity": 49,
              "position": 2,
              "duration": 0.07291666666666667
            },
            {
              "pitch": 59,
              "velocity": 25,
              "position": 2.6666666666666665,
              "duration": 0.020833333333333332
            },
            {
              "pitch": 59,
              "velocity": 53,
              "position": 3,
              "duration": 0.07291666666666667
            },
            {
              "pitch": 35,
              "velocity": 91,
              "position": 3,
              "duration": 0.125
            },
            {
              "pitch": 59,
              "velocity": 25,
              "position": 3.6666666666666665,
              "duration": 0.020833333333333332
            },
            {
              "pitch": 44,
              "velocity": 46,
              "position": 4,
              "duration": 0.010416666666666666
            },
            {
              "pitch": 59,
              "velocity": 49,
              "position": 4,
              "duration": 0.07291666666666667
            },
            {
              "pitch": 59,
              "velocity": 25,
              "position": 4.666666666666667,
              "duration": 0.020833333333333332
            },
            {
              "pitch": 40,
              "velocity": 30,
              "position": 4.666666666666667,
              "duration": 0.07291666666666667
            },
            {
              "pitch": 44,
              "velocity": 46,
              "position": 5,
              "duration": 0.010416666666666666
            },
            {
              "pitch": 40,
              "velocity": 84,
              "position": 5,
              "duration": 0.020833333333333332
            },
            {
              "pitch": 59,
              "velocity": 49,
              "position": 5,
              "duration": 0.07291666666666667
            },
            {
              "pitch": 40,
              "velocity": 26,
              "position": 5.333333333333333,
              "duration": 0.07291666666666667
            },
            {
              "pitch": 59,
              "velocity": 25,
              "position": 5.666666666666667,
              "duration": 0.020833333333333332
            },
            {
              "pitch": 35,
              "velocity": 58,
              "position": 5.666666666666667,
              "duration": 0.07291666666666667
            },
            {
              "pitch": 59,
              "velocity": 53,
              "position": 6,
              "duration": 0.07291666666666667
            },
            {
              "pitch": 35,
              "velocity": 91,
              "position": 6,
              "duration": 0.125
            },
            {
              "pitch": 59,
              "velocity": 25,
              "position": 6.666666666666667,
              "duration": 0.020833333333333332
            },
            {
              "pitch": 44,
              "velocity": 46,
              "position": 7,
              "duration": 0.010416666666666666
            },
            {
              "pitch": 59,
              "velocity": 49,
              "position": 7,
              "duration": 0.07291666666666667
            },
            {
              "pitch": 59,
              "velocity": 25,
              "position": 7.666666666666667,
              "duration": 0.020833333333333332
            },
            {
              "pitch": 40,
              "velocity": 28,
              "position": 7.666666666666667,
              "duration": 0.07291666666666667
            },
            {
              "pitch": 44,
              "velocity": 46,
              "position": 8,
              "duration": 0.010416666666666666
            },
            {
              "pitch": 40,
              "velocity": 90,
              "position": 8,
              "duration": 0.020833333333333332
            },
            {
              "pitch": 59,
              "velocity": 49,
              "position": 8,
              "duration": 0.07291666666666667
            },
            {
              "pitch": 59,
              "velocity": 25,
              "position": 8.666666666666666,
              "duration": 0.020833333333333332
            },
            {
              "pitch": 59,
              "velocity": 53,
              "position": 9,
              "duration": 0.07291666666666667
            },
            {
              "pitch": 35,
              "velocity": 91,
              "position": 9,
              "duration": 0.125
            },
            {
              "pitch": 59,
              "velocity": 25,
              "position": 9.666666666666666,
              "duration": 0.020833333333333332
            },
            {
              "pitch": 44,
              "velocity": 46,
              "position": 10,
              "duration": 0.010416666666666666
            },
            {
              "pitch": 59,
              "velocity": 49,
              "position": 10,
              "duration": 0.07291666666666667
            },
            {
              "pitch": 59,
              "velocity": 25,
              "position": 10.666666666666666,
              "duration": 0.020833333333333332
            },
            {
              "pitch": 40,
              "velocity": 28,
              "position": 10.666666666666666,
              "duration": 0.07291666666666667
            },
            {
              "pitch": 44,
              "velocity": 46,
              "position": 11,
              "duration": 0.010416666666666666
            },
            {
              "pitch": 40,
              "velocity": 84,
              "position": 11,
              "duration": 0.020833333333333332
            },
            {
              "pitch": 59,
              "velocity": 49,
              "position": 11,
              "duration": 0.07291666666666667
            },
            {
              "pitch": 40,
              "velocity": 26,
              "position": 11.333333333333334,
              "duration": 0.07291666666666667
            },
            {
              "pitch": 59,
              "velocity": 25,
              "position": 11.666666666666666,
              "duration": 0.020833333333333332
            },
            {
              "pitch": 35,
              "velocity": 58,
              "position": 11.666666666666666,
              "duration": 0.07291666666666667
            }
          ]
        },
        "10": {
          "ctab": {
            "srcChannel": 10,
            "name": "CC_Crash",
            "accType": "RHYTHM",
            "editable": false,
            "mutedNotes": [],
            "mutedChords": [
              "1+2+5",
              "sus4",
              "1+5",
              "1+8",
              "7aug",
              "Maj7aug",
              "7(#9)",
              "7(b13)",
              "7(b9)",
              "7(13)",
              "7#11",
              "7(9)",
              "7b5",
              "7sus4",
              "7th",
              "dim7",
              "dim",
              "minMaj7(9)",
              "minMaj7",
              "min7(11)",
              "min7(9)",
              "min(9)",
              "m7b5",
              "min7",
              "min6",
              "min",
              "aug",
              "Maj6(9)",
              "Maj7(9)",
              "Maj(9)",
              "Maj7#11",
              "Maj7",
              "Maj6",
              "Maj"
            ],
            "autoStart": true,
            "sourceChordNote": 0,
            "sourceChordType": "Maj",
            "ctb2Low": null,
            "ctb2Main": {
              "ntr": "ROOT_FIXED",
              "ntt": "BYPASS",
              "bassOn": false,
              "chordRootUpperLimit": 0,
              "noteLowLimit": 0,
              "noteHighLimit": 127,
              "rtr": "RETRIGGER"
            },
            "ctb2High": null
          },
          "notes": []
        },
        "12": {
          "ctab": {
            "srcChannel": 12,
            "name": "bass",
            "accType": "BASS",
            "editable": false,
            "mutedNotes": [],
            "mutedChords": [],
            "autoStart": false,
            "sourceChordNote": 0,
            "sourceChordType": "Maj7",
            "ctb2Low": null,
            "ctb2Main": {
              "ntr": "ROOT_TRANSPOSITION",
              "ntt": "MELODY",
              "bassOn": true,
              "chordRootUpperLimit": 8,
              "noteLowLimit": 28,
              "noteHighLimit": 127,
              "rtr": "PITCH_SHIFT_TO_ROOT"
            },
            "ctb2High": null
          },
          "notes": [
            {
              "pitch": 24,
              "velocity": 95,
              "position": 0,
              "duration": 2.65625
            },
            {
              "pitch": 24,
              "velocity": 75,
              "position": 2.6666666666666665,
              "duration": 0.3229166666666667
            },
            {
              "pitch": 24,
              "velocity": 95,
              "position": 3,
              "duration": 2.65625
            },
            {
              "pitch": 24,
              "velocity": 75,
              "position": 5.666666666666667,
              "duration": 0.3229166666666667
            },
            {
              "pitch": 24,
              "velocity": 95,
              "position": 6,
              "duration": 2.65625
            },
            {
              "pitch": 24,
              "velocity": 75,
              "position": 8.666666666666666,
              "duration": 0.3229166666666667
            },
            {
              "pitch": 24,
              "velocity": 95,
              "position": 9,
              "duration": 1.9895833333333333
            },
            {
              "pitch": 19,
              "velocity": 95,
              "position": 11,
              "duration": 0.9895833333333334
            }
          ]
        },
        "15": {
          "ctab": {
            "srcChannel": 15,
            "name": "StFX",
            "accType": "PHRASE1",
            "editable": false,
            "mutedNotes": [],
            "mutedChords": [],
            "autoStart": false,
            "sourceChordNote": 0,
            "sourceChordType": "min7(11)",
            "ctb2Low": null,
            "ctb2Main": {
              "ntr": "ROOT_FIXED",
              "ntt": "BYPASS",
              "bassOn": false,
              "chordRootUpperLimit": 7,
              "noteLowLimit": 0,
              "noteHighLimit": 127,
              "rtr": "PITCH_SHIFT"
            },
            "ctb2High": null
          },
          "notes": []
        }
      }
    },
    "Fill_In_DD": {
      "type": "Fill_In_DD",
      "sizeInBeats": 3,
      "channels": {
        "0": {
          "ctab": {
            "srcChannel": 0,
            "name": "HiStFX",
            "accType": "CHORD1",
            "editable": false,
            "mutedNotes": [],
            "mutedChords": [],
            "autoStart": false,
            "sourceChordNote": 0,
            "sourceChordType": "min7(11)",
            "ctb2Low": null,
            "ctb2Main": {
              "ntr": "ROOT_FIXED",
              "ntt": "BYPASS",
              "bassOn": false,
              "chordRootUpperLimit": 7,
              "noteLowLimit": 0,
              "noteHighLimit": 79,
              "rtr": "PITCH_SHIFT"
            },
            "ctb2High": null
          },
          "notes": [
            {
              "pitch": 98,
              "velocity": 104,
              "position": 0,
              "duration": 0.23958333333333334
            },
            {
              "pitch": 99,
              "velocity": 82,
              "position": 0.6666666666666666,
              "duration": 0.23958333333333334
            },
            {
              "pitch": 98,
              "velocity": 94,
              "position": 1,
              "duration": 0.23958333333333334
            },
            {
              "pitch": 99,
              "velocity": 82,
              "position": 1.6666666666666667,
              "duration": 0.23958333333333334
            },
            {
              "pitch": 100,
              "velocity": 108,
              "position": 2,
              "duration": 0.23958333333333334
            }
          ]
        },
        "1": {
          "ctab": {
            "srcChannel": 1,
            "name": "gtr low",
            "accType": "PHRASE1",
            "editable": false,
            "mutedNotes": [],
            "mutedChords": [],
            "autoStart": false,
            "sourceChordNote": 0,
            "sourceChordType": "Maj7",
            "ctb2Low": null,
            "ctb2Main": {
              "ntr": "ROOT_TRANSPOSITION",
              "ntt": "MELODY",
              "bassOn": true,
              "chordRootUpperLimit": 6,
              "noteLowLimit": 0,
              "noteHighLimit": 127,
              "rtr": "PITCH_SHIFT_TO_ROOT"
            },
            "ctb2High": null
          },
          "notes": [
            {
              "pitch": 48,
              "velocity": 46,
              "position": 0,
              "duration": 2.7395833333333335
            }
          ]
        },
        "2": {
          "ctab": {
            "srcChannel": 2,
            "name": "strg",
            "accType": "PAD",
            "editable": false,
            "mutedNotes": [],
            "mutedChords": [
              "1+2+5",
              "sus4",
              "1+5",
              "1+8",
              "Maj7aug",
              "dim",
              "minMaj7(9)",
              "minMaj7",
              "min6",
              "min",
              "aug",
              "Maj7(9)",
              "Maj7#11",
              "Maj7",
              "Maj6",
              "Maj"
            ],
            "autoStart": false,
            "sourceChordNote": 0,
            "sourceChordType": "Maj7",
            "ctb2Low": null,
            "ctb2Main": {
              "ntr": "ROOT_TRANSPOSITION",
              "ntt": "CHORD",
              "bassOn": false,
              "chordRootUpperLimit": 10,
              "noteLowLimit": 0,
              "noteHighLimit": 127,
              "rtr": "PITCH_SHIFT"
            },
            "ctb2High": null
          },
          "notes": [
            {
              "pitch": 60,
              "velocity": 37,
              "position": 0,
              "duration": 2.9895833333333335
            }
          ]
        },
        "3": {
          "ctab": {
            "srcChannel": 3,
            "name": "gtr25",
            "accType": "PHRASE1",
            "editable": false,
            "mutedNotes": [],
            "mutedChords": [],
            "autoStart": false,
            "sourceChordNote": 0,
            "sourceChordType": "min7(11)",
            "ctb2Low": null,
            "ctb2Main": {
              "ntr": "ROOT_FIXED",
              "ntt": "CHORD",
              "bassOn": false,
              "chordRootUpperLimit": 6,
              "noteLowLimit": 50,
              "noteHighLimit": 127,
              "rtr": "PITCH_SHIFT"
            },
            "ctb2High": null
          },
          "notes": [
            {
              "pitch": 53,
              "velocity": 50,
              "position": 0.6666666666666666,
              "duration": 0.9895833333333334
            },
            {
              "pitch": 58,
              "velocity": 59,
              "position": 1,
              "duration": 0.9895833333333334
            },
            {
              "pitch": 63,
              "velocity": 57,
              "position": 1.0208333333333333,
              "duration": 0.9895833333333334
            },
            {
              "pitch": 53,
              "velocity": 50,
              "position": 1.6666666666666667,
              "duration": 0.9895833333333334
            },
            {
              "pitch": 58,
              "velocity": 57,
              "position": 2,
              "duration": 0.9895833333333334
            },
            {
              "pitch": 63,
              "velocity": 58,
              "position": 2.0208333333333335,
              "duration": 0.96875
            }
          ]
        },
        "4": {
          "ctab": {
            "srcChannel": 4,
            "name": "gtr25",
            "accType": "CHORD1",
            "editable": false,
            "mutedNotes": [],
            "mutedChords": [],
            "autoStart": false,
            "sourceChordNote": 0,
            "sourceChordType": "min7(11)",
            "ctb2Low": null,
            "ctb2Main": {
              "ntr": "ROOT_FIXED",
              "ntt": "CHORD",
              "bassOn": false,
              "chordRootUpperLimit": 7,
              "noteLowLimit": 38,
              "noteHighLimit": 127,
              "rtr": "PITCH_SHIFT"
            },
            "ctb2High": null
          },
          "notes": [
            {
              "pitch": 41,
              "velocity": 111,
              "position": 0,
              "duration": 0.65625
            },
            {
              "pitch": 46,
              "velocity": 114,
              "position": 0,
              "duration": 0.65625
            },
            {
              "pitch": 46,
              "velocity": 89,
              "position": 0.6666666666666666,
              "duration": 0.3229166666666667
            },
            {
              "pitch": 46,
              "velocity": 103,
              "position": 1,
              "duration": 0.65625
            },
            {
              "pitch": 46,
              "velocity": 89,
              "position": 1.6666666666666667,
              "duration": 0.3229166666666667
            },
            {
              "pitch": 46,
              "velocity": 118,
              "position": 2,
              "duration": 0.9895833333333334
            },
            {
              "pitch": 51,
              "velocity": 108,
              "position": 2.0104166666666665,
              "duration": 0.9791666666666666
            }
          ]
        },
        "5": {
          "ctab": {
            "srcChannel": 5,
            "name": "epi",
            "accType": "CHORD2",
            "editable": false,
            "mutedNotes": [],
            "mutedChords": [],
            "autoStart": false,
            "sourceChordNote": 0,
            "sourceChordType": "Maj7",
            "ctb2Low": null,
            "ctb2Main": {
              "ntr": "ROOT_FIXED",
              "ntt": "CHORD",
              "bassOn": false,
              "chordRootUpperLimit": 7,
              "noteLowLimit": 62,
              "noteHighLimit": 127,
              "rtr": "PITCH_SHIFT"
            },
            "ctb2High": null
          },
          "notes": [
            {
              "pitch": 67,
              "velocity": 51,
              "position": 0.6666666666666666,
              "duration": 0.84375
            },
            {
              "pitch": 71,
              "velocity": 54,
              "position": 1,
              "duration": 0.65625
            },
            {
              "pitch": 67,
              "velocity": 56,
              "position": 1.6666666666666667,
              "duration": 1.3229166666666667
            },
            {
              "pitch": 76,
              "velocity": 62,
              "position": 2,
              "duration": 0.9895833333333334
            }
          ]
        },
        "6": {
          "ctab": {
            "srcChannel": 6,
            "name": "strg",
            "accType": "PAD",
            "editable": false,
            "mutedNotes": [],
            "mutedChords": [],
            "autoStart": false,
            "sourceChordNote": 0,
            "sourceChordType": "min7(11)",
            "ctb2Low": null,
            "ctb2Main": {
              "ntr": "ROOT_FIXED",
              "ntt": "CHORD",
              "bassOn": false,
              "chordRootUpperLimit": 7,
              "noteLowLimit": 50,
              "noteHighLimit": 127,
              "rtr": "PITCH_SHIFT"
            },
            "ctb2High": null
          },
          "notes": [
            {
              "pitch": 58,
              "velocity": 39,
              "position": 0,
              "duration": 2.9895833333333335
            },
            {
              "pitch": 63,
              "velocity": 39,
              "position": 0,
              "duration": 2.9895833333333335
            },
            {
              "pitch": 65,
              "velocity": 39,
              "position": 0,
              "duration": 2.9895833333333335
            }
          ]
        },
        "7": {
          "ctab": {
            "srcChannel": 7,
            "name": "gtr25",
            "accType": "CHORD1",
            "editable": false,
            "mutedNotes": [],
            "mutedChords": [
              "1+2+5",
              "sus4",
              "1+5",
              "1+8",
              "Maj7aug",
              "dim",
              "minMaj7(9)",
              "minMaj7",
              "min6",
              "min",
              "aug",
              "Maj7(9)",
              "Maj7#11",
              "Maj7",
              "Maj6",
              "Maj"
            ],
            "autoStart": false,
            "sourceChordNote": 0,
            "sourceChordType": "Maj7",
            "ctb2Low": null,
            "ctb2Main": {
              "ntr": "ROOT_TRANSPOSITION",
              "ntt": "MELODY",
              "bassOn": false,
              "chordRootUpperLimit": 6,
              "noteLowLimit": 0,
              "noteHighLimit": 127,
              "rtr": "PITCH_SHIFT"
            },
            "ctb2High": null
          },
          "notes": [
            {
              "pitch": 48,
              "velocity": 114,
              "position": 0,
              "duration": 0.65625
            },
            {
              "pitch": 48,
              "velocity": 89,
              "position": 0.6666666666666666,
              "duration": 0.3229166666666667
            },
            {
              "pitch": 48,
              "velocity": 103,
              "position": 1,
              "duration": 0.65625
            },
            {
              "pitch": 48,
              "velocity": 89,
              "position": 1.6666666666666667,
              "duration": 0.3229166666666667
            },
            {
              "pitch": 48,
              "velocity": 118,
              "position": 2,
              "duration": 0.9895833333333334
            }
          ]
        },
        "8": {
          "ctab": {
            "srcChannel": 8,
            "name": "add-dr",
            "accType": "SUBRHYTHM",
            "editable": false,
            "mutedNotes": [],
            "mutedChords": [],
            "autoStart": true,
            "sourceChordNote": 0,
            "sourceChordType": "Maj7",
            "ctb2Low": null,
            "ctb2Main": {
              "ntr": "ROOT_FIXED",
              "ntt": "BYPASS",
              "bassOn": false,
              "chordRootUpperLimit": 7,
              "noteLowLimit": 0,
              "noteHighLimit": 127,
              "rtr": "PITCH_SHIFT"
            },
            "ctb2High": null
          },
          "notes": [
            {
              "pitch": 54,
              "velocity": 74,
              "position": 2,
              "duration": 0.010416666666666666
            }
          ]
        },
        "9": {
          "ctab": {
            "srcChannel": 9,
            "name": "m-drums",
            "accType": "RHYTHM",
            "editable": false,
            "mutedNotes": [],
            "mutedChords": [],
            "autoStart": true,
            "sourceChordNote": 0,
            "sourceChordType": "Maj7",
            "ctb2Low": null,
            "ctb2Main": {
              "ntr": "ROOT_FIXED",
              "ntt": "BYPASS",
              "bassOn": false,
              "chordRootUpperLimit": 7,
              "noteLowLimit": 0,
              "noteHighLimit": 127,
              "rtr": "PITCH_SHIFT"
            },
            "ctb2High": null
          },
          "notes": [
            {
              "pitch": 46,
              "velocity": 59,
              "position": 0,
              "duration": 0.0625
            },
            {
              "pitch": 35,
              "velocity": 91,
              "position": 0,
              "duration": 0.125
            },
            {
              "pitch": 47,
              "velocity": 25,
              "position": 0.6666666666666666,
              "duration": 0.010416666666666666
            },
            {
              "pitch": 44,
              "velocity": 46,
              "position": 1,
              "duration": 0.010416666666666666
            },
            {
              "pitch": 47,
              "velocity": 49,
              "position": 1,
              "duration": 0.010416666666666666
            },
            {
              "pitch": 47,
              "velocity": 30,
              "position": 1.3333333333333333,
              "duration": 0.010416666666666666
            },
            {
              "pitch": 45,
              "velocity": 26,
              "position": 1.6666666666666667,
              "duration": 0.010416666666666666
            },
            {
              "pitch": 44,
              "velocity": 46,
              "position": 2,
              "duration": 0.010416666666666666
            },
            {
              "pitch": 45,
              "velocity": 47,
              "position": 2,
              "duration": 0.010416666666666666
            },
            {
              "pitch": 43,
              "velocity": 34,
              "position": 2.3333333333333335,
              "duration": 0.010416666666666666
            },
            {
              "pitch": 41,
              "velocity": 40,
              "position": 2.6666666666666665,
              "duration": 0.010416666666666666
            }
          ]
        },
        "10": {
          "ctab": {
            "srcChannel": 10,
            "name": "CC_Crash",
            "accType": "RHYTHM",
            "editable": false,
            "mutedNotes": [],
            "mutedChords": [
              "1+2+5",
              "sus4",
              "1+5",
              "1+8",
              "7aug",
              "Maj7aug",
              "7(#9)",
              "7(b13)",
              "7(b9)",
              "7(13)",
              "7#11",
              "7(9)",
              "7b5",
              "7sus4",
              "7th",
              "dim7",
              "dim",
              "minMaj7(9)",
              "minMaj7",
              "min7(11)",
              "min7(9)",
              "min(9)",
              "m7b5",
              "min7",
              "min6",
              "min",
              "aug",
              "Maj6(9)",
              "Maj7(9)",
              "Maj(9)",
              "Maj7#11",
              "Maj7",
              "Maj6",
              "Maj"
            ],
            "autoStart": true,
            "sourceChordNote": 0,
            "sourceChordType": "Maj",
            "ctb2Low": null,
            "ctb2Main": {
              "ntr": "ROOT_FIXED",
              "ntt": "BYPASS",
              "bassOn": false,
              "chordRootUpperLimit": 0,
              "noteLowLimit": 0,
              "noteHighLimit": 127,
              "rtr": "RETRIGGER"
            },
            "ctb2High": null
          },
          "notes": []
        },
        "12": {
          "ctab": {
            "srcChannel": 12,
            "name": "bass",
            "accType": "BASS",
            "editable": false,
            "mutedNotes": [],
            "mutedChords": [],
            "autoStart": false,
            "sourceChordNote": 0,
            "sourceChordType": "Maj7",
            "ctb2Low": null,
            "ctb2Main": {
              "ntr": "ROOT_TRANSPOSITION",
              "ntt": "MELODY",
              "bassOn": true,
              "chordRootUpperLimit": 8,
              "noteLowLimit": 28,
              "noteHighLimit": 127,
              "rtr": "PITCH_SHIFT_TO_ROOT"
            },
            "ctb2High": null
          },
          "notes": [
            {
              "pitch": 24,
              "velocity": 95,
              "position": 0,
              "duration": 2.65625
            },
            {
              "pitch": 19,
              "velocity": 70,
              "position": 2.6666666666666665,
              "duration": 0.2916666666666667
            }
          ]
        },
        "15": {
          "ctab": {
            "srcChannel": 15,
            "name": "StFX",
            "accType": "PHRASE1",
            "editable": false,
            "mutedNotes": [],
            "mutedChords": [],
            "autoStart": false,
            "sourceChordNote": 0,
            "sourceChordType": "min7(11)",
            "ctb2Low": null,
            "ctb2Main": {
              "ntr": "ROOT_FIXED",
              "ntt": "BYPASS",
              "bassOn": false,
              "chordRootUpperLimit": 7,
              "noteLowLimit": 0,
              "noteHighLimit": 127,
              "rtr": "PITCH_SHIFT"
            },
            "ctb2High": null
          },
          "notes": [
            {
              "pitch": 104,
              "velocity": 116,
              "position": 1,
              "duration": 0.23958333333333334
            },
            {
              "pitch": 98,
              "velocity": 117,
              "position": 2,
              "duration": 0.23958333333333334
            }
          ]
        }
      }
    },
    "Fill_In_AA": {
      "type": "Fill_In_AA",
      "sizeInBeats": 3,
      "channels": {
        "0": {
          "ctab": {
            "srcChannel": 0,
            "name": "HiStFX",
            "accType": "CHORD1",
            "editable": false,
            "mutedNotes": [],
            "mutedChords": [],
            "autoStart": false,
            "sourceChordNote": 0,
            "sourceChordType": "min7(11)",
            "ctb2Low": null,
            "ctb2Main": {
              "ntr": "ROOT_FIXED",
              "ntt": "BYPASS",
              "bassOn": false,
              "chordRootUpperLimit": 7,
              "noteLowLimit": 0,
              "noteHighLimit": 79,
              "rtr": "PITCH_SHIFT"
            },
            "ctb2High": null
          },
          "notes": [
            {
              "pitch": 98,
              "velocity": 113,
              "position": 1,
              "duration": 0.23958333333333334
            },
            {
              "pitch": 100,
              "velocity": 92,
              "position": 2,
              "duration": 0.23958333333333334
            }
          ]
        },
        "2": {
          "ctab": {
            "srcChannel": 2,
            "name": "strg",
            "accType": "PAD",
            "editable": false,
            "mutedNotes": [],
            "mutedChords": [
              "1+2+5",
              "sus4",
              "1+5",
              "1+8",
              "Maj7aug",
              "dim",
              "minMaj7(9)",
              "minMaj7",
              "min6",
              "min",
              "aug",
              "Maj7(9)",
              "Maj7#11",
              "Maj7",
              "Maj6",
              "Maj"
            ],
            "autoStart": false,
            "sourceChordNote": 0,
            "sourceChordType": "Maj7",
            "ctb2Low": null,
            "ctb2Main": {
              "ntr": "ROOT_TRANSPOSITION",
              "ntt": "CHORD",
              "bassOn": false,
              "chordRootUpperLimit": 6,
              "noteLowLimit": 0,
              "noteHighLimit": 127,
              "rtr": "PITCH_SHIFT"
            },
            "ctb2High": null
          },
          "notes": [
            {
              "pitch": 60,
              "velocity": 31,
              "position": 0,
              "duration": 2.9895833333333335
            }
          ]
        },
        "3": {
          "ctab": {
            "srcChannel": 3,
            "name": "gtr25",
            "accType": "PHRASE1",
            "editable": false,
            "mutedNotes": [],
            "mutedChords": [],
            "autoStart": false,
            "sourceChordNote": 0,
            "sourceChordType": "min7(11)",
            "ctb2Low": null,
            "ctb2Main": {
              "ntr": "ROOT_FIXED",
              "ntt": "CHORD",
              "bassOn": false,
              "chordRootUpperLimit": 6,
              "noteLowLimit": 50,
              "noteHighLimit": 127,
              "rtr": "PITCH_SHIFT"
            },
            "ctb2High": null
          },
          "notes": [
            {
              "pitch": 53,
              "velocity": 42,
              "position": 0.6770833333333334,
              "duration": 0.9895833333333334
            },
            {
              "pitch": 58,
              "velocity": 59,
              "position": 1,
              "duration": 0.9895833333333334
            },
            {
              "pitch": 63,
              "velocity": 58,
              "position": 1.0104166666666667,
              "duration": 0.9895833333333334
            },
            {
              "pitch": 53,
              "velocity": 42,
              "position": 1.6770833333333333,
              "duration": 0.9895833333333334
            },
            {
              "pitch": 58,
              "velocity": 58,
              "position": 2,
              "duration": 0.9895833333333334
            }
          ]
        },
        "4": {
          "ctab": {
            "srcChannel": 4,
            "name": "gtr25",
            "accType": "CHORD1",
            "editable": false,
            "mutedNotes": [],
            "mutedChords": [],
            "autoStart": false,
            "sourceChordNote": 0,
            "sourceChordType": "min7(11)",
            "ctb2Low": null,
            "ctb2Main": {
              "ntr": "ROOT_FIXED",
              "ntt": "CHORD",
              "bassOn": false,
              "chordRootUpperLimit": 7,
              "noteLowLimit": 38,
              "noteHighLimit": 127,
              "rtr": "PITCH_SHIFT"
            },
            "ctb2High": null
          },
          "notes": [
            {
              "pitch": 41,
              "velocity": 113,
              "position": 1,
              "duration": 0.9895833333333334
            },
            {
              "pitch": 46,
              "velocity": 109,
              "position": 1,
              "duration": 0.9895833333333334
            },
            {
              "pitch": 51,
              "velocity": 113,
              "position": 1.0104166666666667,
              "duration": 0.9895833333333334
            },
            {
              "pitch": 41,
              "velocity": 92,
              "position": 2,
              "duration": 0.9895833333333334
            },
            {
              "pitch": 46,
              "velocity": 92,
              "position": 2,
              "duration": 0.9895833333333334
            },
            {
              "pitch": 51,
              "velocity": 92,
              "position": 2.0104166666666665,
              "duration": 0.9791666666666666
            }
          ]
        },
        "5": {
          "ctab": {
            "srcChannel": 5,
            "name": "epi 04",
            "accType": "CHORD2",
            "editable": false,
            "mutedNotes": [],
            "mutedChords": [],
            "autoStart": false,
            "sourceChordNote": 0,
            "sourceChordType": "Maj7",
            "ctb2Low": null,
            "ctb2Main": {
              "ntr": "ROOT_FIXED",
              "ntt": "CHORD",
              "bassOn": false,
              "chordRootUpperLimit": 7,
              "noteLowLimit": 62,
              "noteHighLimit": 127,
              "rtr": "PITCH_SHIFT"
            },
            "ctb2High": null
          },
          "notes": [
            {
              "pitch": 67,
              "velocity": 47,
              "position": 0,
              "duration": 1.40625
            }
          ]
        },
        "6": {
          "ctab": {
            "srcChannel": 6,
            "name": "strg",
            "accType": "PAD",
            "editable": false,
            "mutedNotes": [],
            "mutedChords": [],
            "autoStart": false,
            "sourceChordNote": 0,
            "sourceChordType": "min7(11)",
            "ctb2Low": null,
            "ctb2Main": {
              "ntr": "ROOT_FIXED",
              "ntt": "CHORD",
              "bassOn": false,
              "chordRootUpperLimit": 7,
              "noteLowLimit": 50,
              "noteHighLimit": 127,
              "rtr": "PITCH_SHIFT"
            },
            "ctb2High": null
          },
          "notes": [
            {
              "pitch": 53,
              "velocity": 31,
              "position": 0,
              "duration": 2.9895833333333335
            },
            {
              "pitch": 58,
              "velocity": 31,
              "position": 0,
              "duration": 2.9895833333333335
            },
            {
              "pitch": 63,
              "velocity": 31,
              "position": 0,
              "duration": 2.9895833333333335
            }
          ]
        },
        "7": {
          "ctab": {
            "srcChannel": 7,
            "name": "gtr root",
            "accType": "CHORD1",
            "editable": false,
            "mutedNotes": [],
            "mutedChords": [
              "1+2+5",
              "sus4",
              "1+5",
              "1+8",
              "Maj7aug",
              "dim",
              "minMaj7(9)",
              "minMaj7",
              "min6",
              "min",
              "aug",
              "Maj7(9)",
              "Maj7#11",
              "Maj7",
              "Maj6",
              "Maj"
            ],
            "autoStart": false,
            "sourceChordNote": 0,
            "sourceChordType": "Maj7",
            "ctb2Low": null,
            "ctb2Main": {
              "ntr": "ROOT_TRANSPOSITION",
              "ntt": "CHORD",
              "bassOn": false,
              "chordRootUpperLimit": 6,
              "noteLowLimit": 0,
              "noteHighLimit": 127,
              "rtr": "PITCH_SHIFT"
            },
            "ctb2High": null
          },
          "notes": [
            {
              "pitch": 48,
              "velocity": 109,
              "position": 1,
              "duration": 0.9895833333333334
            },
            {
              "pitch": 48,
              "velocity": 92,
              "position": 2,
              "duration": 0.9895833333333334
            }
          ]
        },
        "9": {
          "ctab": {
            "srcChannel": 9,
            "name": "m-drums",
            "accType": "RHYTHM",
            "editable": false,
            "mutedNotes": [],
            "mutedChords": [],
            "autoStart": true,
            "sourceChordNote": 0,
            "sourceChordType": "Maj7",
            "ctb2Low": null,
            "ctb2Main": {
              "ntr": "ROOT_FIXED",
              "ntt": "BYPASS",
              "bassOn": false,
              "chordRootUpperLimit": 7,
              "noteLowLimit": 0,
              "noteHighLimit": 127,
              "rtr": "PITCH_SHIFT"
            },
            "ctb2High": null
          },
          "notes": [
            {
              "pitch": 51,
              "velocity": 57,
              "position": 0,
              "duration": 0.010416666666666666
            },
            {
              "pitch": 35,
              "velocity": 82,
              "position": 0,
              "duration": 0.03125
            },
            {
              "pitch": 40,
              "velocity": 49,
              "position": 0.6770833333333334,
              "duration": 0.09375
            },
            {
              "pitch": 44,
              "velocity": 46,
              "position": 1,
              "duration": 0.08333333333333333
            },
            {
              "pitch": 51,
              "velocity": 51,
              "position": 1,
              "duration": 0.08333333333333333
            },
            {
              "pitch": 48,
              "velocity": 21,
              "position": 1.3333333333333333,
              "duration": 0.08333333333333333
            },
            {
              "pitch": 48,
              "velocity": 44,
              "position": 1.6666666666666667,
              "duration": 0.0625
            },
            {
              "pitch": 44,
              "velocity": 46,
              "position": 2,
              "duration": 0.08333333333333333
            },
            {
              "pitch": 45,
              "velocity": 44,
              "position": 2,
              "duration": 0.08333333333333333
            },
            {
              "pitch": 45,
              "velocity": 19,
              "position": 2.3333333333333335,
              "duration": 0.08333333333333333
            },
            {
              "pitch": 41,
              "velocity": 40,
              "position": 2.6666666666666665,
              "duration": 0.0625
            }
          ]
        },
        "10": {
          "ctab": {
            "srcChannel": 10,
            "name": "CC_Crash",
            "accType": "RHYTHM",
            "editable": false,
            "mutedNotes": [],
            "mutedChords": [
              "1+2+5",
              "sus4",
              "1+5",
              "1+8",
              "7aug",
              "Maj7aug",
              "7(#9)",
              "7(b13)",
              "7(b9)",
              "7(13)",
              "7#11",
              "7(9)",
              "7b5",
              "7sus4",
              "7th",
              "dim7",
              "dim",
              "minMaj7(9)",
              "minMaj7",
              "min7(11)",
              "min7(9)",
              "min(9)",
              "m7b5",
              "min7",
              "min6",
              "min",
              "aug",
              "Maj6(9)",
              "Maj7(9)",
              "Maj(9)",
              "Maj7#11",
              "Maj7",
              "Maj6",
              "Maj"
            ],
            "autoStart": true,
            "sourceChordNote": 0,
            "sourceChordType": "Maj",
            "ctb2Low": null,
            "ctb2Main": {
              "ntr": "ROOT_FIXED",
              "ntt": "BYPASS",
              "bassOn": false,
              "chordRootUpperLimit": 0,
              "noteLowLimit": 0,
              "noteHighLimit": 127,
              "rtr": "RETRIGGER"
            },
            "ctb2High": null
          },
          "notes": []
        },
        "12": {
          "ctab": {
            "srcChannel": 12,
            "name": "bass",
            "accType": "BASS",
            "editable": false,
            "mutedNotes": [],
            "mutedChords": [],
            "autoStart": false,
            "sourceChordNote": 0,
            "sourceChordType": "Maj7",
            "ctb2Low": null,
            "ctb2Main": {
              "ntr": "ROOT_TRANSPOSITION",
              "ntt": "MELODY",
              "bassOn": true,
              "chordRootUpperLimit": 8,
              "noteLowLimit": 28,
              "noteHighLimit": 127,
              "rtr": "PITCH_SHIFT_TO_ROOT"
            },
            "ctb2High": null
          },
          "notes": [
            {
              "pitch": 24,
              "velocity": 95,
              "position": 0,
              "duration": 1.9895833333333333
            },
            {
              "pitch": 19,
              "velocity": 95,
              "position": 2,
              "duration": 0.9791666666666666
            }
          ]
        }
      }
    },
    "Intro_B": {
      "type": "Intro_B",
      "sizeInBeats": 6,
      "channels": {
        "0": {
          "ctab": {
            "srcChannel": 0,
            "name": "HiStFX",
            "accType": "CHORD1",
            "editable": false,
            "mutedNotes": [],
            "mutedChords": [],
            "autoStart": false,
            "sourceChordNote": 0,
            "sourceChordType": "min7(11)",
            "ctb2Low": null,
            "ctb2Main": {
              "ntr": "ROOT_FIXED",
              "ntt": "BYPASS",
              "bassOn": false,
              "chordRootUpperLimit": 7,
              "noteLowLimit": 0,
              "noteHighLimit": 79,
              "rtr": "PITCH_SHIFT"
            },
            "ctb2High": null
          },
          "notes": [
            {
              "pitch": 98,
              "velocity": 107,
              "position": 0,
              "duration": 0.23958333333333334
            },
            {
              "pitch": 98,
              "velocity": 88,
              "position": 1,
              "duration": 0.23958333333333334
            },
            {
              "pitch": 100,
              "velocity": 93,
              "position": 2,
              "duration": 0.23958333333333334
            },
            {
              "pitch": 99,
              "velocity": 81,
              "position": 2.6666666666666665,
              "duration": 0.23958333333333334
            },
            {
              "pitch": 98,
              "velocity": 107,
              "position": 3,
              "duration": 0.23958333333333334
            },
            {
              "pitch": 99,
              "velocity": 85,
              "position": 3.6666666666666665,
              "duration": 0.23958333333333334
            },
            {
              "pitch": 98,
              "velocity": 88,
              "position": 4,
              "duration": 0.23958333333333334
            },
            {
              "pitch": 100,
              "velocity": 93,
              "position": 5,
              "duration": 0.23958333333333334
            },
            {
              "pitch": 99,
              "velocity": 81,
              "position": 5.666666666666667,
              "duration": 0.23958333333333334
            }
          ]
        },
        "1": {
          "ctab": {
            "srcChannel": 1,
            "name": "gtr low",
            "accType": "PHRASE1",
            "editable": false,
            "mutedNotes": [],
            "mutedChords": [],
            "autoStart": false,
            "sourceChordNote": 0,
            "sourceChordType": "Maj7",
            "ctb2Low": null,
            "ctb2Main": {
              "ntr": "ROOT_TRANSPOSITION",
              "ntt": "MELODY",
              "bassOn": true,
              "chordRootUpperLimit": 6,
              "noteLowLimit": 40,
              "noteHighLimit": 127,
              "rtr": "PITCH_SHIFT_TO_ROOT"
            },
            "ctb2High": null
          },
          "notes": [
            {
              "pitch": 48,
              "velocity": 46,
              "position": 0,
              "duration": 2.7395833333333335
            },
            {
              "pitch": 48,
              "velocity": 46,
              "position": 3,
              "duration": 2.7395833333333335
            }
          ]
        },
        "2": {
          "ctab": {
            "srcChannel": 2,
            "name": "strg",
            "accType": "PAD",
            "editable": false,
            "mutedNotes": [],
            "mutedChords": [
              "1+2+5",
              "sus4",
              "1+5",
              "1+8",
              "Maj7aug",
              "dim",
              "minMaj7(9)",
              "minMaj7",
              "min6",
              "min",
              "aug",
              "Maj7(9)",
              "Maj7#11",
              "Maj7",
              "Maj6",
              "Maj"
            ],
            "autoStart": false,
            "sourceChordNote": 0,
            "sourceChordType": "Maj7",
            "ctb2Low": null,
            "ctb2Main": {
              "ntr": "ROOT_TRANSPOSITION",
              "ntt": "CHORD",
              "bassOn": false,
              "chordRootUpperLimit": 10,
              "noteLowLimit": 0,
              "noteHighLimit": 127,
              "rtr": "PITCH_SHIFT"
            },
            "ctb2High": null
          },
          "notes": []
        },
        "3": {
          "ctab": {
            "srcChannel": 3,
            "name": "gtr25",
            "accType": "PHRASE1",
            "editable": false,
            "mutedNotes": [],
            "mutedChords": [],
            "autoStart": false,
            "sourceChordNote": 0,
            "sourceChordType": "min7(11)",
            "ctb2Low": null,
            "ctb2Main": {
              "ntr": "ROOT_FIXED",
              "ntt": "CHORD",
              "bassOn": false,
              "chordRootUpperLimit": 6,
              "noteLowLimit": 50,
              "noteHighLimit": 127,
              "rtr": "PITCH_SHIFT"
            },
            "ctb2High": null
          },
          "notes": [
            {
              "pitch": 53,
              "velocity": 50,
              "position": 0.6666666666666666,
              "duration": 0.9895833333333334
            },
            {
              "pitch": 58,
              "velocity": 50,
              "position": 1,
              "duration": 1.65625
            },
            {
              "pitch": 53,
              "velocity": 50,
              "position": 1.6666666666666667,
              "duration": 1.9895833333333333
            },
            {
              "pitch": 58,
              "velocity": 50,
              "position": 2.6666666666666665,
              "duration": 1.3229166666666667
            },
            {
              "pitch": 53,
              "velocity": 50,
              "position": 3.6666666666666665,
              "duration": 0.9895833333333334
            },
            {
              "pitch": 63,
              "velocity": 59,
              "position": 2,
              "duration": 2.9895833333333335
            },
            {
              "pitch": 63,
              "velocity": 59,
              "position": 5,
              "duration": 0.9895833333333334
            }
          ]
        },
        "4": {
          "ctab": {
            "srcChannel": 4,
            "name": "gtr25",
            "accType": "CHORD1",
            "editable": false,
            "mutedNotes": [],
            "mutedChords": [],
            "autoStart": false,
            "sourceChordNote": 0,
            "sourceChordType": "min7(11)",
            "ctb2Low": null,
            "ctb2Main": {
              "ntr": "ROOT_FIXED",
              "ntt": "CHORD",
              "bassOn": false,
              "chordRootUpperLimit": 7,
              "noteLowLimit": 38,
              "noteHighLimit": 127,
              "rtr": "PITCH_SHIFT"
            },
            "ctb2High": null
          },
          "notes": [
            {
              "pitch": 41,
              "velocity": 96,
              "position": 0,
              "duration": 0.9895833333333334
            },
            {
              "pitch": 46,
              "velocity": 103,
              "position": 0,
              "duration": 0.9895833333333334
            },
            {
              "pitch": 51,
              "velocity": 107,
              "position": 0.010416666666666666,
              "duration": 0.9791666666666666
            },
            {
              "pitch": 41,
              "velocity": 78,
              "position": 1,
              "duration": 0.9895833333333334
            },
            {
              "pitch": 46,
              "velocity": 85,
              "position": 1,
              "duration": 0.9895833333333334
            },
            {
              "pitch": 51,
              "velocity": 88,
              "position": 1.0104166666666667,
              "duration": 0.9895833333333334
            },
            {
              "pitch": 41,
              "velocity": 82,
              "position": 2,
              "duration": 0.65625
            },
            {
              "pitch": 46,
              "velocity": 90,
              "position": 2,
              "duration": 0.65625
            },
            {
              "pitch": 46,
              "velocity": 70,
              "position": 2.6666666666666665,
              "duration": 0.3229166666666667
            },
            {
              "pitch": 46,
              "velocity": 103,
              "position": 3,
              "duration": 0.65625
            },
            {
              "pitch": 46,
              "velocity": 78,
              "position": 3.6666666666666665,
              "duration": 0.3229166666666667
            },
            {
              "pitch": 46,
              "velocity": 85,
              "position": 4,
              "duration": 0.9895833333333334
            },
            {
              "pitch": 51,
              "velocity": 88,
              "position": 4.010416666666667,
              "duration": 0.9895833333333334
            },
            {
              "pitch": 41,
              "velocity": 82,
              "position": 5,
              "duration": 0.65625
            },
            {
              "pitch": 46,
              "velocity": 90,
              "position": 5,
              "duration": 0.65625
            },
            {
              "pitch": 46,
              "velocity": 70,
              "position": 5.666666666666667,
              "duration": 0.3229166666666667
            }
          ]
        },
        "5": {
          "ctab": {
            "srcChannel": 5,
            "name": "epi 04",
            "accType": "CHORD2",
            "editable": false,
            "mutedNotes": [],
            "mutedChords": [],
            "autoStart": false,
            "sourceChordNote": 0,
            "sourceChordType": "Maj7",
            "ctb2Low": null,
            "ctb2Main": {
              "ntr": "ROOT_FIXED",
              "ntt": "CHORD",
              "bassOn": false,
              "chordRootUpperLimit": 7,
              "noteLowLimit": 50,
              "noteHighLimit": 127,
              "rtr": "PITCH_SHIFT"
            },
            "ctb2High": null
          },
          "notes": []
        },
        "6": {
          "ctab": {
            "srcChannel": 6,
            "name": "strg",
            "accType": "PAD",
            "editable": false,
            "mutedNotes": [],
            "mutedChords": [],
            "autoStart": false,
            "sourceChordNote": 0,
            "sourceChordType": "min7(11)",
            "ctb2Low": null,
            "ctb2Main": {
              "ntr": "ROOT_FIXED",
              "ntt": "CHORD",
              "bassOn": false,
              "chordRootUpperLimit": 7,
              "noteLowLimit": 50,
              "noteHighLimit": 127,
              "rtr": "PITCH_SHIFT"
            },
            "ctb2High": null
          },
          "notes": []
        },
        "7": {
          "ctab": {
            "srcChannel": 7,
            "name": "gtr root",
            "accType": "CHORD1",
            "editable": false,
            "mutedNotes": [],
            "mutedChords": [
              "1+2+5",
              "sus4",
              "1+5",
              "1+8",
              "Maj7aug",
              "dim",
              "minMaj7(9)",
              "minMaj7",
              "min6",
              "min",
              "aug",
              "Maj7(9)",
              "Maj7#11",
              "Maj7",
              "Maj6",
              "Maj"
            ],
            "autoStart": false,
            "sourceChordNote": 0,
            "sourceChordType": "Maj7",
            "ctb2Low": null,
            "ctb2Main": {
              "ntr": "ROOT_TRANSPOSITION",
              "ntt": "CHORD",
              "bassOn": false,
              "chordRootUpperLimit": 6,
              "noteLowLimit": 0,
              "noteHighLimit": 127,
              "rtr": "PITCH_SHIFT"
            },
            "ctb2High": null
          },
          "notes": [
            {
              "pitch": 48,
              "velocity": 103,
              "position": 0,
              "duration": 0.9895833333333334
            },
            {
              "pitch": 48,
              "velocity": 85,
              "position": 1,
              "duration": 0.9895833333333334
            },
            {
              "pitch": 48,
              "velocity": 90,
              "position": 2,
              "duration": 0.65625
            },
            {
              "pitch": 48,
              "velocity": 70,
              "position": 2.6666666666666665,
              "duration": 0.3229166666666667
            },
            {
              "pitch": 48,
              "velocity": 103,
              "position": 3,
              "duration": 0.65625
            },
            {
              "pitch": 48,
              "velocity": 78,
              "position": 3.6666666666666665,
              "duration": 0.3229166666666667
            },
            {
              "pitch": 48,
              "velocity": 85,
              "position": 4,
              "duration": 0.9895833333333334
            },
            {
              "pitch": 48,
              "velocity": 90,
              "position": 5,
              "duration": 0.65625
            },
            {
              "pitch": 48,
              "velocity": 70,
              "position": 5.666666666666667,
              "duration": 0.3229166666666667
            }
          ]
        },
        "8": {
          "ctab": {
            "srcChannel": 8,
            "name": "add-dr",
            "accType": "SUBRHYTHM",
            "editable": false,
            "mutedNotes": [],
            "mutedChords": [],
            "autoStart": true,
            "sourceChordNote": 0,
            "sourceChordType": "Maj7",
            "ctb2Low": null,
            "ctb2Main": {
              "ntr": "ROOT_FIXED",
              "ntt": "BYPASS",
              "bassOn": false,
              "chordRootUpperLimit": 7,
              "noteLowLimit": 0,
              "noteHighLimit": 127,
              "rtr": "PITCH_SHIFT"
            },
            "ctb2High": null
          },
          "notes": []
        },
        "9": {
          "ctab": {
            "srcChannel": 9,
            "name": "m-drums",
            "accType": "RHYTHM",
            "editable": false,
            "mutedNotes": [],
            "mutedChords": [],
            "autoStart": true,
            "sourceChordNote": 0,
            "sourceChordType": "Maj7",
            "ctb2Low": null,
            "ctb2Main": {
              "ntr": "ROOT_FIXED",
              "ntt": "BYPASS",
              "bassOn": false,
              "chordRootUpperLimit": 7,
              "noteLowLimit": 0,
              "noteHighLimit": 127,
              "rtr": "PITCH_SHIFT"
            },
            "ctb2High": null
          },
          "notes": [
            {
              "pitch": 51,
              "velocity": 57,
              "position": 0,
              "duration": 0.08333333333333333
            },
            {
              "pitch": 44,
              "velocity": 46,
              "position": 1,
              "duration": 0.20833333333333334
            },
            {
              "pitch": 44,
              "velocity": 46,
              "position": 2,
              "duration": 0.16666666666666666
            },
            {
              "pitch": 51,
              "velocity": 37,
              "position": 2.6666666666666665,
              "duration": 0.08333333333333333
            },
            {
              "pitch": 35,
              "velocity": 43,
              "position": 2.6666666666666665,
              "duration": 0.16666666666666666
            },
            {
              "pitch": 51,
              "velocity": 57,
              "position": 3,
              "duration": 0.08333333333333333
            },
            {
              "pitch": 35,
              "velocity": 68,
              "position": 3,
              "duration": 0.16666666666666666
            },
            {
              "pitch": 40,
              "velocity": 20,
              "position": 3.3333333333333335,
              "duration": 0.16666666666666666
            },
            {
              "pitch": 40,
              "velocity": 20,
              "position": 3.6666666666666665,
              "duration": 0.16666666666666666
            },
            {
              "pitch": 44,
              "velocity": 46,
              "position": 4,
              "duration": 0.08333333333333333
            },
            {
              "pitch": 40,
              "velocity": 62,
              "position": 4,
              "duration": 0.16666666666666666
            },
            {
              "pitch": 40,
              "velocity": 25,
              "position": 4.333333333333333,
              "duration": 0.08333333333333333
            },
            {
              "pitch": 48,
              "velocity": 42,
              "position": 4.5,
              "duration": 0.010416666666666666
            },
            {
              "pitch": 48,
              "velocity": 54,
              "position": 4.666666666666667,
              "duration": 0.0625
            },
            {
              "pitch": 44,
              "velocity": 46,
              "position": 5,
              "duration": 0.08333333333333333
            },
            {
              "pitch": 45,
              "velocity": 54,
              "position": 5,
              "duration": 0.08333333333333333
            },
            {
              "pitch": 45,
              "velocity": 42,
              "position": 5.333333333333333,
              "duration": 0.08333333333333333
            },
            {
              "pitch": 43,
              "velocity": 43,
              "position": 5.677083333333333,
              "duration": 0.0625
            }
          ]
        },
        "10": {
          "ctab": {
            "srcChannel": 10,
            "name": "CC_Crash",
            "accType": "RHYTHM",
            "editable": false,
            "mutedNotes": [],
            "mutedChords": [
              "1+2+5",
              "sus4",
              "1+5",
              "1+8",
              "7aug",
              "Maj7aug",
              "7(#9)",
              "7(b13)",
              "7(b9)",
              "7(13)",
              "7#11",
              "7(9)",
              "7b5",
              "7sus4",
              "7th",
              "dim7",
              "dim",
              "minMaj7(9)",
              "minMaj7",
              "min7(11)",
              "min7(9)",
              "min(9)",
              "m7b5",
              "min7",
              "min6",
              "min",
              "aug",
              "Maj6(9)",
              "Maj7(9)",
              "Maj(9)",
              "Maj7#11",
              "Maj7",
              "Maj6",
              "Maj"
            ],
            "autoStart": true,
            "sourceChordNote": 0,
            "sourceChordType": "Maj",
            "ctb2Low": null,
            "ctb2Main": {
              "ntr": "ROOT_FIXED",
              "ntt": "BYPASS",
              "bassOn": false,
              "chordRootUpperLimit": 0,
              "noteLowLimit": 0,
              "noteHighLimit": 127,
              "rtr": "RETRIGGER"
            },
            "ctb2High": null
          },
          "notes": []
        },
        "12": {
          "ctab": {
            "srcChannel": 12,
            "name": "bass",
            "accType": "BASS",
            "editable": false,
            "mutedNotes": [],
            "mutedChords": [],
            "autoStart": false,
            "sourceChordNote": 0,
            "sourceChordType": "Maj7",
            "ctb2Low": null,
            "ctb2Main": {
              "ntr": "ROOT_TRANSPOSITION",
              "ntt": "MELODY",
              "bassOn": true,
              "chordRootUpperLimit": 8,
              "noteLowLimit": 28,
              "noteHighLimit": 127,
              "rtr": "PITCH_SHIFT_TO_ROOT"
            },
            "ctb2High": null
          },
          "notes": [
            {
              "pitch": 36,
              "velocity": 95,
              "position": 0.010416666666666666,
              "duration": 2.6458333333333335
            },
            {
              "pitch": 31,
              "velocity": 53,
              "position": 2.6666666666666665,
              "duration": 0.3229166666666667
            },
            {
              "pitch": 36,
              "velocity": 95,
              "position": 3,
              "duration": 1.9895833333333333
            },
            {
              "pitch": 31,
              "velocity": 95,
              "position": 5,
              "duration": 0.9895833333333334
            }
          ]
        }
      }
    },
    "Fill_In_BA": {
      "type": "Fill_In_BA",
      "sizeInBeats": 3,
      "channels": {
        "0": {
          "ctab": {
            "srcChannel": 0,
            "name": "HiStFX",
            "accType": "CHORD1",
            "editable": false,
            "mutedNotes": [],
            "mutedChords": [],
            "autoStart": false,
            "sourceChordNote": 0,
            "sourceChordType": "min7(11)",
            "ctb2Low": null,
            "ctb2Main": {
              "ntr": "ROOT_FIXED",
              "ntt": "BYPASS",
              "bassOn": false,
              "chordRootUpperLimit": 7,
              "noteLowLimit": 0,
              "noteHighLimit": 79,
              "rtr": "PITCH_SHIFT"
            },
            "ctb2High": null
          },
          "notes": [
            {
              "pitch": 98,
              "velocity": 104,
              "position": 0,
              "duration": 0.23958333333333334
            }
          ]
        },
        "1": {
          "ctab": {
            "srcChannel": 1,
            "name": "gtr low",
            "accType": "PHRASE1",
            "editable": false,
            "mutedNotes": [],
            "mutedChords": [],
            "autoStart": false,
            "sourceChordNote": 0,
            "sourceChordType": "Maj7",
            "ctb2Low": null,
            "ctb2Main": {
              "ntr": "ROOT_TRANSPOSITION",
              "ntt": "MELODY",
              "bassOn": true,
              "chordRootUpperLimit": 6,
              "noteLowLimit": 40,
              "noteHighLimit": 127,
              "rtr": "PITCH_SHIFT_TO_ROOT"
            },
            "ctb2High": null
          },
          "notes": [
            {
              "pitch": 48,
              "velocity": 43,
              "position": 0,
              "duration": 2.9895833333333335
            }
          ]
        },
        "2": {
          "ctab": {
            "srcChannel": 2,
            "name": "strg",
            "accType": "PAD",
            "editable": false,
            "mutedNotes": [],
            "mutedChords": [
              "1+2+5",
              "sus4",
              "1+5",
              "1+8",
              "Maj7aug",
              "dim",
              "minMaj7(9)",
              "minMaj7",
              "min6",
              "min",
              "aug",
              "Maj7(9)",
              "Maj7#11",
              "Maj7",
              "Maj6",
              "Maj"
            ],
            "autoStart": false,
            "sourceChordNote": 0,
            "sourceChordType": "Maj7",
            "ctb2Low": null,
            "ctb2Main": {
              "ntr": "ROOT_TRANSPOSITION",
              "ntt": "CHORD",
              "bassOn": false,
              "chordRootUpperLimit": 10,
              "noteLowLimit": 0,
              "noteHighLimit": 127,
              "rtr": "PITCH_SHIFT"
            },
            "ctb2High": null
          },
          "notes": [
            {
              "pitch": 60,
              "velocity": 37,
              "position": 0.010416666666666666,
              "duration": 2.9791666666666665
            }
          ]
        },
        "3": {
          "ctab": {
            "srcChannel": 3,
            "name": "gtr25",
            "accType": "PHRASE1",
            "editable": false,
            "mutedNotes": [],
            "mutedChords": [],
            "autoStart": false,
            "sourceChordNote": 0,
            "sourceChordType": "min7(11)",
            "ctb2Low": null,
            "ctb2Main": {
              "ntr": "ROOT_FIXED",
              "ntt": "CHORD",
              "bassOn": false,
              "chordRootUpperLimit": 6,
              "noteLowLimit": 50,
              "noteHighLimit": 127,
              "rtr": "PITCH_SHIFT"
            },
            "ctb2High": null
          },
          "notes": [
            {
              "pitch": 53,
              "velocity": 57,
              "position": 0.3333333333333333,
              "duration": 2.65625
            },
            {
              "pitch": 58,
              "velocity": 57,
              "position": 0.6666666666666666,
              "duration": 2.3229166666666665
            },
            {
              "pitch": 63,
              "velocity": 57,
              "position": 1.0104166666666667,
              "duration": 1.9895833333333333
            }
          ]
        },
        "4": {
          "ctab": {
            "srcChannel": 4,
            "name": "gtr25",
            "accType": "CHORD1",
            "editable": false,
            "mutedNotes": [],
            "mutedChords": [],
            "autoStart": false,
            "sourceChordNote": 0,
            "sourceChordType": "min7(11)",
            "ctb2Low": null,
            "ctb2Main": {
              "ntr": "ROOT_FIXED",
              "ntt": "CHORD",
              "bassOn": false,
              "chordRootUpperLimit": 7,
              "noteLowLimit": 38,
              "noteHighLimit": 127,
              "rtr": "PITCH_SHIFT"
            },
            "ctb2High": null
          },
          "notes": [
            {
              "pitch": 41,
              "velocity": 100,
              "position": 0,
              "duration": 2.9895833333333335
            },
            {
              "pitch": 46,
              "velocity": 104,
              "position": 0,
              "duration": 2.9895833333333335
            },
            {
              "pitch": 51,
              "velocity": 104,
              "position": 0.010416666666666666,
              "duration": 2.9791666666666665
            }
          ]
        },
        "5": {
          "ctab": {
            "srcChannel": 5,
            "name": "epi 04",
            "accType": "CHORD2",
            "editable": false,
            "mutedNotes": [],
            "mutedChords": [],
            "autoStart": false,
            "sourceChordNote": 0,
            "sourceChordType": "Maj7",
            "ctb2Low": null,
            "ctb2Main": {
              "ntr": "ROOT_FIXED",
              "ntt": "CHORD",
              "bassOn": false,
              "chordRootUpperLimit": 7,
              "noteLowLimit": 50,
              "noteHighLimit": 127,
              "rtr": "PITCH_SHIFT"
            },
            "ctb2High": null
          },
          "notes": [
            {
              "pitch": 59,
              "velocity": 56,
              "position": 0,
              "duration": 2.9895833333333335
            },
            {
              "pitch": 64,
              "velocity": 56,
              "position": 0,
              "duration": 2.9895833333333335
            },
            {
              "pitch": 67,
              "velocity": 56,
              "position": 0,
              "duration": 2.9895833333333335
            }
          ]
        },
        "6": {
          "ctab": {
            "srcChannel": 6,
            "name": "strg",
            "accType": "PAD",
            "editable": false,
            "mutedNotes": [],
            "mutedChords": [],
            "autoStart": false,
            "sourceChordNote": 0,
            "sourceChordType": "min7(11)",
            "ctb2Low": null,
            "ctb2Main": {
              "ntr": "ROOT_FIXED",
              "ntt": "CHORD",
              "bassOn": false,
              "chordRootUpperLimit": 7,
              "noteLowLimit": 50,
              "noteHighLimit": 127,
              "rtr": "PITCH_SHIFT"
            },
            "ctb2High": null
          },
          "notes": [
            {
              "pitch": 58,
              "velocity": 39,
              "position": 0.010416666666666666,
              "duration": 2.9791666666666665
            },
            {
              "pitch": 63,
              "velocity": 39,
              "position": 0.010416666666666666,
              "duration": 2.9791666666666665
            },
            {
              "pitch": 65,
              "velocity": 39,
              "position": 0.010416666666666666,
              "duration": 2.9791666666666665
            }
          ]
        },
        "7": {
          "ctab": {
            "srcChannel": 7,
            "name": "gtr root",
            "accType": "CHORD1",
            "editable": false,
            "mutedNotes": [],
            "mutedChords": [
              "1+2+5",
              "sus4",
              "1+5",
              "1+8",
              "Maj7aug",
              "dim",
              "minMaj7(9)",
              "minMaj7",
              "min6",
              "min",
              "aug",
              "Maj7(9)",
              "Maj7#11",
              "Maj7",
              "Maj6",
              "Maj"
            ],
            "autoStart": false,
            "sourceChordNote": 0,
            "sourceChordType": "Maj7",
            "ctb2Low": null,
            "ctb2Main": {
              "ntr": "ROOT_TRANSPOSITION",
              "ntt": "CHORD",
              "bassOn": false,
              "chordRootUpperLimit": 6,
              "noteLowLimit": 0,
              "noteHighLimit": 127,
              "rtr": "PITCH_SHIFT"
            },
            "ctb2High": null
          },
          "notes": [
            {
              "pitch": 48,
              "velocity": 104,
              "position": 0,
              "duration": 2.9895833333333335
            }
          ]
        },
        "8": {
          "ctab": {
            "srcChannel": 8,
            "name": "add-dr",
            "accType": "SUBRHYTHM",
            "editable": false,
            "mutedNotes": [],
            "mutedChords": [],
            "autoStart": true,
            "sourceChordNote": 0,
            "sourceChordType": "Maj7",
            "ctb2Low": null,
            "ctb2Main": {
              "ntr": "ROOT_FIXED",
              "ntt": "BYPASS",
              "bassOn": false,
              "chordRootUpperLimit": 7,
              "noteLowLimit": 0,
              "noteHighLimit": 127,
              "rtr": "PITCH_SHIFT"
            },
            "ctb2High": null
          },
          "notes": [
            {
              "pitch": 54,
              "velocity": 35,
              "position": 2.0104166666666665,
              "duration": 0.010416666666666666
            },
            {
              "pitch": 54,
              "velocity": 45,
              "position": 2.34375,
              "duration": 0.010416666666666666
            },
            {
              "pitch": 54,
              "velocity": 71,
              "position": 2.6770833333333335,
              "duration": 0.010416666666666666
            }
          ]
        },
        "9": {
          "ctab": {
            "srcChannel": 9,
            "name": "m-drums",
            "accType": "RHYTHM",
            "editable": false,
            "mutedNotes": [],
            "mutedChords": [],
            "autoStart": true,
            "sourceChordNote": 0,
            "sourceChordType": "Maj7",
            "ctb2Low": null,
            "ctb2Main": {
              "ntr": "ROOT_FIXED",
              "ntt": "BYPASS",
              "bassOn": false,
              "chordRootUpperLimit": 7,
              "noteLowLimit": 0,
              "noteHighLimit": 127,
              "rtr": "PITCH_SHIFT"
            },
            "ctb2High": null
          },
          "notes": [
            {
              "pitch": 59,
              "velocity": 50,
              "position": 0,
              "duration": 0.020833333333333332
            },
            {
              "pitch": 35,
              "velocity": 92,
              "position": 0,
              "duration": 0.03125
            },
            {
              "pitch": 35,
              "velocity": 54,
              "position": 0.6666666666666666,
              "duration": 0.03125
            },
            {
              "pitch": 45,
              "velocity": 26,
              "position": 0.6770833333333334,
              "duration": 0.041666666666666664
            },
            {
              "pitch": 40,
              "velocity": 80,
              "position": 1,
              "duration": 0.010416666666666666
            },
            {
              "pitch": 44,
              "velocity": 46,
              "position": 1,
              "duration": 0.010416666666666666
            },
            {
              "pitch": 44,
              "velocity": 46,
              "position": 2,
              "duration": 0.010416666666666666
            },
            {
              "pitch": 45,
              "velocity": 47,
              "position": 2,
              "duration": 0.010416666666666666
            },
            {
              "pitch": 43,
              "velocity": 26,
              "position": 2.3333333333333335,
              "duration": 0.010416666666666666
            },
            {
              "pitch": 41,
              "velocity": 46,
              "position": 2.6666666666666665,
              "duration": 0.010416666666666666
            },
            {
              "pitch": 49,
              "velocity": 34,
              "position": 2.9895833333333335,
              "duration": 0.010416666666666666
            }
          ]
        },
        "10": {
          "ctab": {
            "srcChannel": 10,
            "name": "CC_Crash",
            "accType": "RHYTHM",
            "editable": false,
            "mutedNotes": [],
            "mutedChords": [
              "1+2+5",
              "sus4",
              "1+5",
              "1+8",
              "7aug",
              "Maj7aug",
              "7(#9)",
              "7(b13)",
              "7(b9)",
              "7(13)",
              "7#11",
              "7(9)",
              "7b5",
              "7sus4",
              "7th",
              "dim7",
              "dim",
              "minMaj7(9)",
              "minMaj7",
              "min7(11)",
              "min7(9)",
              "min(9)",
              "m7b5",
              "min7",
              "min6",
              "min",
              "aug",
              "Maj6(9)",
              "Maj7(9)",
              "Maj(9)",
              "Maj7#11",
              "Maj7",
              "Maj6",
              "Maj"
            ],
            "autoStart": true,
            "sourceChordNote": 0,
            "sourceChordType": "Maj",
            "ctb2Low": null,
            "ctb2Main": {
              "ntr": "ROOT_FIXED",
              "ntt": "BYPASS",
              "bassOn": false,
              "chordRootUpperLimit": 0,
              "noteLowLimit": 0,
              "noteHighLimit": 127,
              "rtr": "RETRIGGER"
            },
            "ctb2High": null
          },
          "notes": []
        },
        "12": {
          "ctab": {
            "srcChannel": 12,
            "name": "bass",
            "accType": "BASS",
            "editable": false,
            "mutedNotes": [],
            "mutedChords": [],
            "autoStart": false,
            "sourceChordNote": 0,
            "sourceChordType": "Maj7",
            "ctb2Low": null,
            "ctb2Main": {
              "ntr": "ROOT_TRANSPOSITION",
              "ntt": "MELODY",
              "bassOn": true,
              "chordRootUpperLimit": 8,
              "noteLowLimit": 28,
              "noteHighLimit": 127,
              "rtr": "PITCH_SHIFT_TO_ROOT"
            },
            "ctb2High": null
          },
          "notes": [
            {
              "pitch": 24,
              "velocity": 82,
              "position": 0,
              "duration": 2.9895833333333335
            }
          ]
        }
      }
    },
    "Intro_C": {
      "type": "Intro_C",
      "sizeInBeats": 12,
      "channels": {
        "0": {
          "ctab": {
            "srcChannel": 0,
            "name": "HiStFX",
            "accType": "CHORD1",
            "editable": false,
            "mutedNotes": [],
            "mutedChords": [],
            "autoStart": false,
            "sourceChordNote": 0,
            "sourceChordType": "min7(11)",
            "ctb2Low": null,
            "ctb2Main": {
              "ntr": "ROOT_FIXED",
              "ntt": "BYPASS",
              "bassOn": false,
              "chordRootUpperLimit": 7,
              "noteLowLimit": 0,
              "noteHighLimit": 79,
              "rtr": "PITCH_SHIFT"
            },
            "ctb2High": null
          },
          "notes": [
            {
              "pitch": 98,
              "velocity": 104,
              "position": 0,
              "duration": 0.23958333333333334
            },
            {
              "pitch": 99,
              "velocity": 82,
              "position": 0.6666666666666666,
              "duration": 0.23958333333333334
            },
            {
              "pitch": 98,
              "velocity": 94,
              "position": 1,
              "duration": 0.23958333333333334
            },
            {
              "pitch": 99,
              "velocity": 82,
              "position": 1.6666666666666667,
              "duration": 0.23958333333333334
            },
            {
              "pitch": 100,
              "velocity": 108,
              "position": 2,
              "duration": 0.23958333333333334
            },
            {
              "pitch": 99,
              "velocity": 78,
              "position": 2.6666666666666665,
              "duration": 0.23958333333333334
            },
            {
              "pitch": 98,
              "velocity": 104,
              "position": 3,
              "duration": 0.23958333333333334
            },
            {
              "pitch": 99,
              "velocity": 82,
              "position": 3.6666666666666665,
              "duration": 0.23958333333333334
            },
            {
              "pitch": 98,
              "velocity": 94,
              "position": 4,
              "duration": 0.23958333333333334
            },
            {
              "pitch": 100,
              "velocity": 108,
              "position": 5,
              "duration": 0.23958333333333334
            },
            {
              "pitch": 99,
              "velocity": 78,
              "position": 5.666666666666667,
              "duration": 0.23958333333333334
            },
            {
              "pitch": 98,
              "velocity": 104,
              "position": 6,
              "duration": 0.23958333333333334
            },
            {
              "pitch": 99,
              "velocity": 82,
              "position": 6.666666666666667,
              "duration": 0.23958333333333334
            },
            {
              "pitch": 98,
              "velocity": 94,
              "position": 7,
              "duration": 0.23958333333333334
            },
            {
              "pitch": 99,
              "velocity": 82,
              "position": 7.666666666666667,
              "duration": 0.23958333333333334
            },
            {
              "pitch": 100,
              "velocity": 108,
              "position": 8,
              "duration": 0.23958333333333334
            },
            {
              "pitch": 99,
              "velocity": 78,
              "position": 8.666666666666666,
              "duration": 0.23958333333333334
            },
            {
              "pitch": 98,
              "velocity": 104,
              "position": 9,
              "duration": 0.23958333333333334
            },
            {
              "pitch": 98,
              "velocity": 94,
              "position": 10,
              "duration": 0.23958333333333334
            }
          ]
        },
        "2": {
          "ctab": {
            "srcChannel": 2,
            "name": "strg",
            "accType": "PAD",
            "editable": false,
            "mutedNotes": [],
            "mutedChords": [],
            "autoStart": false,
            "sourceChordNote": 0,
            "sourceChordType": "Maj7",
            "ctb2Low": null,
            "ctb2Main": {
              "ntr": "ROOT_TRANSPOSITION",
              "ntt": "HARMONIC_MINOR",
              "bassOn": false,
              "chordRootUpperLimit": 4,
              "noteLowLimit": 0,
              "noteHighLimit": 79,
              "rtr": "PITCH_SHIFT"
            },
            "ctb2High": null
          },
          "notes": [
            {
              "pitch": 67,
              "velocity": 96,
              "position": 0,
              "duration": 2.9895833333333335
            },
            {
              "pitch": 74,
              "velocity": 96,
              "position": 3,
              "duration": 0.9895833333333334
            },
            {
              "pitch": 79,
              "velocity": 96,
              "position": 4,
              "duration": 0.9895833333333334
            },
            {
              "pitch": 84,
              "velocity": 95,
              "position": 5,
              "duration": 0.9895833333333334
            },
            {
              "pitch": 79,
              "velocity": 89,
              "position": 6,
              "duration": 5.989583333333333
            }
          ]
        },
        "3": {
          "ctab": {
            "srcChannel": 3,
            "name": "gtr25",
            "accType": "PHRASE1",
            "editable": false,
            "mutedNotes": [],
            "mutedChords": [],
            "autoStart": false,
            "sourceChordNote": 0,
            "sourceChordType": "Maj7",
            "ctb2Low": null,
            "ctb2Main": {
              "ntr": "ROOT_TRANSPOSITION",
              "ntt": "HARMONIC_MINOR",
              "bassOn": false,
              "chordRootUpperLimit": 8,
              "noteLowLimit": 54,
              "noteHighLimit": 65,
              "rtr": "PITCH_SHIFT"
            },
            "ctb2High": null
          },
          "notes": [
            {
              "pitch": 55,
              "velocity": 50,
              "position": 0.6666666666666666,
              "duration": 0.9895833333333334
            },
            {
              "pitch": 60,
              "velocity": 59,
              "position": 1,
              "duration": 0.9895833333333334
            },
            {
              "pitch": 64,
              "velocity": 57,
              "position": 1.0208333333333333,
              "duration": 0.9895833333333334
            },
            {
              "pitch": 55,
              "velocity": 50,
              "position": 1.6666666666666667,
              "duration": 0.9895833333333334
            },
            {
              "pitch": 55,
              "velocity": 50,
              "position": 2.6666666666666665,
              "duration": 0.3229166666666667
            },
            {
              "pitch": 60,
              "velocity": 57,
              "position": 2,
              "duration": 0.9895833333333334
            },
            {
              "pitch": 64,
              "velocity": 58,
              "position": 2.0208333333333335,
              "duration": 0.9895833333333334
            },
            {
              "pitch": 62,
              "velocity": 57,
              "position": 4,
              "duration": 0.9895833333333334
            },
            {
              "pitch": 65,
              "velocity": 57,
              "position": 4.020833333333333,
              "duration": 0.9895833333333334
            },
            {
              "pitch": 57,
              "velocity": 50,
              "position": 3.6666666666666665,
              "duration": 1.7395833333333333
            },
            {
              "pitch": 62,
              "velocity": 58,
              "position": 5,
              "duration": 0.9895833333333334
            },
            {
              "pitch": 65,
              "velocity": 57,
              "position": 5.020833333333333,
              "duration": 0.9895833333333334
            },
            {
              "pitch": 55,
              "velocity": 50,
              "position": 6.666666666666667,
              "duration": 0.9895833333333334
            },
            {
              "pitch": 60,
              "velocity": 59,
              "position": 7,
              "duration": 0.9895833333333334
            },
            {
              "pitch": 64,
              "velocity": 57,
              "position": 7.020833333333333,
              "duration": 0.9895833333333334
            },
            {
              "pitch": 55,
              "velocity": 50,
              "position": 7.666666666666667,
              "duration": 0.9895833333333334
            },
            {
              "pitch": 55,
              "velocity": 50,
              "position": 8.666666666666666,
              "duration": 0.3229166666666667
            },
            {
              "pitch": 60,
              "velocity": 57,
              "position": 8,
              "duration": 0.9895833333333334
            },
            {
              "pitch": 64,
              "velocity": 58,
              "position": 8.020833333333334,
              "duration": 0.9895833333333334
            },
            {
              "pitch": 57,
              "velocity": 57,
              "position": 9,
              "duration": 0.4895833333333333
            },
            {
              "pitch": 62,
              "velocity": 57,
              "position": 9,
              "duration": 0.4895833333333333
            },
            {
              "pitch": 65,
              "velocity": 57,
              "position": 9.020833333333334,
              "duration": 0.4895833333333333
            },
            {
              "pitch": 57,
              "velocity": 58,
              "position": 10,
              "duration": 0.9895833333333334
            },
            {
              "pitch": 62,
              "velocity": 58,
              "position": 10,
              "duration": 0.9895833333333334
            },
            {
              "pitch": 65,
              "velocity": 57,
              "position": 10.020833333333334,
              "duration": 0.9895833333333334
            }
          ]
        },
        "4": {
          "ctab": {
            "srcChannel": 4,
            "name": "gtr25",
            "accType": "CHORD1",
            "editable": false,
            "mutedNotes": [],
            "mutedChords": [],
            "autoStart": false,
            "sourceChordNote": 0,
            "sourceChordType": "Maj7",
            "ctb2Low": null,
            "ctb2Main": {
              "ntr": "ROOT_TRANSPOSITION",
              "ntt": "HARMONIC_MINOR",
              "bassOn": false,
              "chordRootUpperLimit": 8,
              "noteLowLimit": 36,
              "noteHighLimit": 67,
              "rtr": "PITCH_SHIFT"
            },
            "ctb2High": null
          },
          "notes": [
            {
              "pitch": 43,
              "velocity": 111,
              "position": 0,
              "duration": 0.65625
            },
            {
              "pitch": 48,
              "velocity": 114,
              "position": 0,
              "duration": 0.65625
            },
            {
              "pitch": 48,
              "velocity": 89,
              "position": 0.6666666666666666,
              "duration": 0.3229166666666667
            },
            {
              "pitch": 48,
              "velocity": 103,
              "position": 1,
              "duration": 0.65625
            },
            {
              "pitch": 48,
              "velocity": 89,
              "position": 1.6666666666666667,
              "duration": 0.3229166666666667
            },
            {
              "pitch": 48,
              "velocity": 118,
              "position": 2,
              "duration": 0.65625
            },
            {
              "pitch": 48,
              "velocity": 82,
              "position": 2.6666666666666665,
              "duration": 0.3229166666666667
            },
            {
              "pitch": 43,
              "velocity": 82,
              "position": 2.6770833333333335,
              "duration": 0.3125
            },
            {
              "pitch": 45,
              "velocity": 111,
              "position": 3,
              "duration": 0.65625
            },
            {
              "pitch": 50,
              "velocity": 114,
              "position": 3,
              "duration": 0.65625
            },
            {
              "pitch": 50,
              "velocity": 89,
              "position": 3.6666666666666665,
              "duration": 0.3229166666666667
            },
            {
              "pitch": 50,
              "velocity": 103,
              "position": 4,
              "duration": 0.9895833333333334
            },
            {
              "pitch": 53,
              "velocity": 94,
              "position": 4.010416666666667,
              "duration": 0.9791666666666666
            },
            {
              "pitch": 50,
              "velocity": 118,
              "position": 5,
              "duration": 0.65625
            },
            {
              "pitch": 45,
              "velocity": 82,
              "position": 5.677083333333333,
              "duration": 0.3125
            },
            {
              "pitch": 50,
              "velocity": 82,
              "position": 5.666666666666667,
              "duration": 0.3229166666666667
            },
            {
              "pitch": 43,
              "velocity": 111,
              "position": 6,
              "duration": 0.65625
            },
            {
              "pitch": 48,
              "velocity": 114,
              "position": 6,
              "duration": 0.65625
            },
            {
              "pitch": 48,
              "velocity": 89,
              "position": 6.666666666666667,
              "duration": 0.3229166666666667
            },
            {
              "pitch": 48,
              "velocity": 103,
              "position": 7,
              "duration": 0.65625
            },
            {
              "pitch": 48,
              "velocity": 89,
              "position": 7.666666666666667,
              "duration": 0.3229166666666667
            },
            {
              "pitch": 48,
              "velocity": 118,
              "position": 8,
              "duration": 0.65625
            },
            {
              "pitch": 48,
              "velocity": 82,
              "position": 8.666666666666666,
              "duration": 0.3229166666666667
            },
            {
              "pitch": 43,
              "velocity": 82,
              "position": 8.677083333333334,
              "duration": 0.3125
            },
            {
              "pitch": 50,
              "velocity": 114,
              "position": 9,
              "duration": 0.53125
            },
            {
              "pitch": 53,
              "velocity": 104,
              "position": 9.010416666666666,
              "duration": 0.5208333333333334
            },
            {
              "pitch": 45,
              "velocity": 111,
              "position": 9,
              "duration": 0.5416666666666666
            },
            {
              "pitch": 45,
              "velocity": 100,
              "position": 10,
              "duration": 1.9895833333333333
            },
            {
              "pitch": 50,
              "velocity": 103,
              "position": 10,
              "duration": 1.9895833333333333
            },
            {
              "pitch": 53,
              "velocity": 94,
              "position": 10.010416666666666,
              "duration": 1.9791666666666667
            }
          ]
        },
        "5": {
          "ctab": {
            "srcChannel": 5,
            "name": "epi",
            "accType": "CHORD2",
            "editable": false,
            "mutedNotes": [],
            "mutedChords": [],
            "autoStart": false,
            "sourceChordNote": 0,
            "sourceChordType": "Maj7",
            "ctb2Low": null,
            "ctb2Main": {
              "ntr": "ROOT_TRANSPOSITION",
              "ntt": "HARMONIC_MINOR",
              "bassOn": false,
              "chordRootUpperLimit": 9,
              "noteLowLimit": 0,
              "noteHighLimit": 127,
              "rtr": "PITCH_SHIFT"
            },
            "ctb2High": null
          },
          "notes": [
            {
              "pitch": 55,
              "velocity": 79,
              "position": 0,
              "duration": 0.9895833333333334
            },
            {
              "pitch": 60,
              "velocity": 84,
              "position": 0,
              "duration": 0.9895833333333334
            },
            {
              "pitch": 64,
              "velocity": 84,
              "position": 0,
              "duration": 0.9895833333333334
            },
            {
              "pitch": 67,
              "velocity": 62,
              "position": 1,
              "duration": 1
            },
            {
              "pitch": 64,
              "velocity": 84,
              "position": 1,
              "duration": 1.6583333333333334
            },
            {
              "pitch": 60,
              "velocity": 84,
              "position": 1,
              "duration": 1.9895833333333333
            },
            {
              "pitch": 64,
              "velocity": 84,
              "position": 2.6666666666666665,
              "duration": 0.3229166666666667
            },
            {
              "pitch": 65,
              "velocity": 84,
              "position": 3,
              "duration": 0.9895833333333334
            },
            {
              "pitch": 57,
              "velocity": 76,
              "position": 3,
              "duration": 2.9895833333333335
            },
            {
              "pitch": 62,
              "velocity": 84,
              "position": 3,
              "duration": 2.9895833333333335
            },
            {
              "pitch": 67,
              "velocity": 84,
              "position": 4,
              "duration": 1.9895833333333333
            },
            {
              "pitch": 72,
              "velocity": 84,
              "position": 5.666666666666667,
              "duration": 0.3229166666666667
            },
            {
              "pitch": 64,
              "velocity": 84,
              "position": 6,
              "duration": 0.5
            },
            {
              "pitch": 67,
              "velocity": 84,
              "position": 6,
              "duration": 0.5
            },
            {
              "pitch": 74,
              "velocity": 84,
              "position": 6,
              "duration": 0.5
            },
            {
              "pitch": 64,
              "velocity": 84,
              "position": 7,
              "duration": 1.65625
            },
            {
              "pitch": 67,
              "velocity": 84,
              "position": 7,
              "duration": 1.65625
            },
            {
              "pitch": 72,
              "velocity": 84,
              "position": 7,
              "duration": 1.65625
            },
            {
              "pitch": 67,
              "velocity": 84,
              "position": 8.666666666666666,
              "duration": 0.3229166666666667
            },
            {
              "pitch": 62,
              "velocity": 84,
              "position": 9,
              "duration": 0.3229166666666667
            },
            {
              "pitch": 65,
              "velocity": 84,
              "position": 9,
              "duration": 0.3229166666666667
            },
            {
              "pitch": 69,
              "velocity": 84,
              "position": 9,
              "duration": 0.3229166666666667
            },
            {
              "pitch": 62,
              "velocity": 84,
              "position": 10,
              "duration": 1.9895833333333333
            },
            {
              "pitch": 65,
              "velocity": 84,
              "position": 10,
              "duration": 1.9895833333333333
            },
            {
              "pitch": 69,
              "velocity": 84,
              "position": 10,
              "duration": 1.9895833333333333
            },
            {
              "pitch": 67,
              "velocity": 84,
              "position": 11,
              "duration": 0.9895833333333334
            }
          ]
        },
        "6": {
          "ctab": {
            "srcChannel": 6,
            "name": "strg",
            "accType": "PAD",
            "editable": false,
            "mutedNotes": [],
            "mutedChords": [],
            "autoStart": false,
            "sourceChordNote": 0,
            "sourceChordType": "Maj7",
            "ctb2Low": null,
            "ctb2Main": {
              "ntr": "ROOT_TRANSPOSITION",
              "ntt": "HARMONIC_MINOR",
              "bassOn": false,
              "chordRootUpperLimit": 10,
              "noteLowLimit": 54,
              "noteHighLimit": 68,
              "rtr": "PITCH_SHIFT"
            },
            "ctb2High": null
          },
          "notes": [
            {
              "pitch": 60,
              "velocity": 89,
              "position": 0,
              "duration": 2.9895833333333335
            },
            {
              "pitch": 64,
              "velocity": 78,
              "position": 0,
              "duration": 2.9895833333333335
            },
            {
              "pitch": 60,
              "velocity": 82,
              "position": 3,
              "duration": 0.9895833333333334
            },
            {
              "pitch": 57,
              "velocity": 70,
              "position": 3,
              "duration": 2.9895833333333335
            },
            {
              "pitch": 62,
              "velocity": 82,
              "position": 4,
              "duration": 1.9895833333333333
            },
            {
              "pitch": 65,
              "velocity": 82,
              "position": 3,
              "duration": 2.9895833333333335
            },
            {
              "pitch": 62,
              "velocity": 82,
              "position": 6,
              "duration": 0.9895833333333334
            },
            {
              "pitch": 60,
              "velocity": 82,
              "position": 7,
              "duration": 1.9895833333333333
            },
            {
              "pitch": 64,
              "velocity": 82,
              "position": 6,
              "duration": 2.9895833333333335
            },
            {
              "pitch": 67,
              "velocity": 89,
              "position": 6,
              "duration": 2.9895833333333335
            },
            {
              "pitch": 60,
              "velocity": 82,
              "position": 9,
              "duration": 0.9895833333333334
            },
            {
              "pitch": 57,
              "velocity": 82,
              "position": 9,
              "duration": 2.9895833333333335
            },
            {
              "pitch": 62,
              "velocity": 82,
              "position": 10,
              "duration": 1.9895833333333333
            },
            {
              "pitch": 65,
              "velocity": 82,
              "position": 9,
              "duration": 2.9895833333333335
            }
          ]
        },
        "8": {
          "ctab": {
            "srcChannel": 8,
            "name": "add-dr",
            "accType": "SUBRHYTHM",
            "editable": false,
            "mutedNotes": [],
            "mutedChords": [],
            "autoStart": true,
            "sourceChordNote": 0,
            "sourceChordType": "Maj7",
            "ctb2Low": null,
            "ctb2Main": {
              "ntr": "ROOT_FIXED",
              "ntt": "BYPASS",
              "bassOn": false,
              "chordRootUpperLimit": 7,
              "noteLowLimit": 0,
              "noteHighLimit": 127,
              "rtr": "PITCH_SHIFT"
            },
            "ctb2High": null
          },
          "notes": [
            {
              "pitch": 54,
              "velocity": 71,
              "position": 5.020833333333333,
              "duration": 0.010416666666666666
            },
            {
              "pitch": 54,
              "velocity": 71,
              "position": 11.020833333333334,
              "duration": 0.010416666666666666
            }
          ]
        },
        "9": {
          "ctab": {
            "srcChannel": 9,
            "name": "m-drums",
            "accType": "RHYTHM",
            "editable": false,
            "mutedNotes": [],
            "mutedChords": [],
            "autoStart": true,
            "sourceChordNote": 0,
            "sourceChordType": "Maj7",
            "ctb2Low": null,
            "ctb2Main": {
              "ntr": "ROOT_FIXED",
              "ntt": "BYPASS",
              "bassOn": false,
              "chordRootUpperLimit": 7,
              "noteLowLimit": 0,
              "noteHighLimit": 127,
              "rtr": "PITCH_SHIFT"
            },
            "ctb2High": null
          },
          "notes": [
            {
              "pitch": 49,
              "velocity": 36,
              "position": 0,
              "duration": 0.07291666666666667
            },
            {
              "pitch": 35,
              "velocity": 91,
              "position": 0,
              "duration": 0.125
            },
            {
              "pitch": 51,
              "velocity": 30,
              "position": 0.6666666666666666,
              "duration": 0.010416666666666666
            },
            {
              "pitch": 35,
              "velocity": 45,
              "position": 0.6666666666666666,
              "duration": 0.08333333333333333
            },
            {
              "pitch": 44,
              "velocity": 46,
              "position": 1,
              "duration": 0.010416666666666666
            },
            {
              "pitch": 51,
              "velocity": 51,
              "position": 1,
              "duration": 0.0625
            },
            {
              "pitch": 51,
              "velocity": 55,
              "position": 2,
              "duration": 0.0625
            },
            {
              "pitch": 51,
              "velocity": 30,
              "position": 2.6666666666666665,
              "duration": 0.010416666666666666
            },
            {
              "pitch": 51,
              "velocity": 61,
              "position": 3,
              "duration": 0.0625
            },
            {
              "pitch": 35,
              "velocity": 91,
              "position": 3,
              "duration": 0.125
            },
            {
              "pitch": 40,
              "velocity": 41,
              "position": 3.3333333333333335,
              "duration": 0.08333333333333333
            },
            {
              "pitch": 44,
              "velocity": 46,
              "position": 4,
              "duration": 0.010416666666666666
            },
            {
              "pitch": 51,
              "velocity": 51,
              "position": 4,
              "duration": 0.0625
            },
            {
              "pitch": 40,
              "velocity": 69,
              "position": 4,
              "duration": 0.08333333333333333
            },
            {
              "pitch": 40,
              "velocity": 29,
              "position": 4.666666666666667,
              "duration": 0.08333333333333333
            },
            {
              "pitch": 59,
              "velocity": 46,
              "position": 5,
              "duration": 0.07291666666666667
            },
            {
              "pitch": 51,
              "velocity": 30,
              "position": 5.666666666666667,
              "duration": 0.010416666666666666
            },
            {
              "pitch": 40,
              "velocity": 29,
              "position": 5.666666666666667,
              "duration": 0.08333333333333333
            },
            {
              "pitch": 51,
              "velocity": 51,
              "position": 6,
              "duration": 0.07291666666666667
            },
            {
              "pitch": 35,
              "velocity": 91,
              "position": 6,
              "duration": 0.125
            },
            {
              "pitch": 40,
              "velocity": 41,
              "position": 6.333333333333333,
              "duration": 0.08333333333333333
            },
            {
              "pitch": 35,
              "velocity": 45,
              "position": 6.666666666666667,
              "duration": 0.08333333333333333
            },
            {
              "pitch": 44,
              "velocity": 46,
              "position": 7,
              "duration": 0.010416666666666666
            },
            {
              "pitch": 51,
              "velocity": 53,
              "position": 7,
              "duration": 0.0625
            },
            {
              "pitch": 40,
              "velocity": 69,
              "position": 7,
              "duration": 0.08333333333333333
            },
            {
              "pitch": 40,
              "velocity": 29,
              "position": 7.333333333333333,
              "duration": 0.08333333333333333
            },
            {
              "pitch": 51,
              "velocity": 55,
              "position": 8,
              "duration": 0.0625
            },
            {
              "pitch": 51,
              "velocity": 30,
              "position": 8.666666666666666,
              "duration": 0.010416666666666666
            },
            {
              "pitch": 40,
              "velocity": 41,
              "position": 8.666666666666666,
              "duration": 0.08333333333333333
            },
            {
              "pitch": 57,
              "velocity": 31,
              "position": 9,
              "duration": 0.08333333333333333
            },
            {
              "pitch": 35,
              "velocity": 90,
              "position": 9,
              "duration": 0.125
            },
            {
              "pitch": 48,
              "velocity": 32,
              "position": 9.333333333333334,
              "duration": 0.010416666666666666
            },
            {
              "pitch": 45,
              "velocity": 42,
              "position": 9.666666666666666,
              "duration": 0.08333333333333333
            },
            {
              "pitch": 35,
              "velocity": 68,
              "position": 10,
              "duration": 0.08333333333333333
            },
            {
              "pitch": 46,
              "velocity": 54,
              "position": 10,
              "duration": 0.08333333333333333
            },
            {
              "pitch": 40,
              "velocity": 42,
              "position": 10.333333333333334,
              "duration": 0.010416666666666666
            },
            {
              "pitch": 40,
              "velocity": 42,
              "position": 10.5,
              "duration": 0.010416666666666666
            },
            {
              "pitch": 40,
              "velocity": 69,
              "position": 10.666666666666666,
              "duration": 0.010416666666666666
            },
            {
              "pitch": 44,
              "velocity": 46,
              "position": 11,
              "duration": 0.010416666666666666
            },
            {
              "pitch": 48,
              "velocity": 44,
              "position": 11,
              "duration": 0.010416666666666666
            },
            {
              "pitch": 45,
              "velocity": 44,
              "position": 11.333333333333334,
              "duration": 0.010416666666666666
            },
            {
              "pitch": 43,
              "velocity": 44,
              "position": 11.666666666666666,
              "duration": 0.010416666666666666
            },
            {
              "pitch": 51,
              "velocity": 30,
              "position": 11.666666666666666,
              "duration": 0.010416666666666666
            }
          ]
        },
        "12": {
          "ctab": {
            "srcChannel": 12,
            "name": "bass",
            "accType": "BASS",
            "editable": false,
            "mutedNotes": [],
            "mutedChords": [],
            "autoStart": false,
            "sourceChordNote": 0,
            "sourceChordType": "Maj7",
            "ctb2Low": null,
            "ctb2Main": {
              "ntr": "ROOT_TRANSPOSITION",
              "ntt": "HARMONIC_MINOR",
              "bassOn": false,
              "chordRootUpperLimit": 8,
              "noteLowLimit": 28,
              "noteHighLimit": 127,
              "rtr": "PITCH_SHIFT"
            },
            "ctb2High": null
          },
          "notes": [
            {
              "pitch": 24,
              "velocity": 95,
              "position": 0,
              "duration": 2.65625
            },
            {
              "pitch": 24,
              "velocity": 80,
              "position": 2.6666666666666665,
              "duration": 0.3229166666666667
            },
            {
              "pitch": 19,
              "velocity": 95,
              "position": 3,
              "duration": 2.65625
            },
            {
              "pitch": 19,
              "velocity": 81,
              "position": 5.666666666666667,
              "duration": 0.3229166666666667
            },
            {
              "pitch": 24,
              "velocity": 95,
              "position": 6,
              "duration": 2.65625
            },
            {
              "pitch": 24,
              "velocity": 80,
              "position": 8.666666666666666,
              "duration": 0.3229166666666667
            },
            {
              "pitch": 19,
              "velocity": 93,
              "position": 9,
              "duration": 0.5104166666666666
            },
            {
              "pitch": 19,
              "velocity": 88,
              "position": 10,
              "duration": 1.9895833333333333
            }
          ]
        },
        "15": {
          "ctab": {
            "srcChannel": 15,
            "name": "StFX",
            "accType": "PHRASE1",
            "editable": false,
            "mutedNotes": [],
            "mutedChords": [],
            "autoStart": false,
            "sourceChordNote": 0,
            "sourceChordType": "min7(11)",
            "ctb2Low": null,
            "ctb2Main": {
              "ntr": "ROOT_FIXED",
              "ntt": "BYPASS",
              "bassOn": false,
              "chordRootUpperLimit": 7,
              "noteLowLimit": 0,
              "noteHighLimit": 127,
              "rtr": "PITCH_SHIFT"
            },
            "ctb2High": null
          },
          "notes": [
            {
              "pitch": 104,
              "velocity": 116,
              "position": 1,
              "duration": 0.23958333333333334
            },
            {
              "pitch": 98,
              "velocity": 117,
              "position": 2,
              "duration": 0.23958333333333334
            },
            {
              "pitch": 104,
              "velocity": 116,
              "position": 4,
              "duration": 0.23958333333333334
            },
            {
              "pitch": 98,
              "velocity": 116,
              "position": 5,
              "duration": 0.23958333333333334
            },
            {
              "pitch": 104,
              "velocity": 116,
              "position": 7,
              "duration": 0.23958333333333334
            },
            {
              "pitch": 98,
              "velocity": 117,
              "position": 8,
              "duration": 0.23958333333333334
            },
            {
              "pitch": 98,
              "velocity": 116,
              "position": 9,
              "duration": 0.23958333333333334
            },
            {
              "pitch": 104,
              "velocity": 116,
              "position": 10,
              "duration": 0.23958333333333334
            }
          ]
        }
      }
    },
    "Ending_C": {
      "type": "Ending_C",
      "sizeInBeats": 12,
      "channels": {
        "0": {
          "ctab": {
            "srcChannel": 0,
            "name": "HiStFX",
            "accType": "CHORD1",
            "editable": false,
            "mutedNotes": [],
            "mutedChords": [],
            "autoStart": false,
            "sourceChordNote": 0,
            "sourceChordType": "min7(11)",
            "ctb2Low": null,
            "ctb2Main": {
              "ntr": "ROOT_FIXED",
              "ntt": "BYPASS",
              "bassOn": false,
              "chordRootUpperLimit": 7,
              "noteLowLimit": 0,
              "noteHighLimit": 79,
              "rtr": "PITCH_SHIFT"
            },
            "ctb2High": null
          },
          "notes": [
            {
              "pitch": 98,
              "velocity": 107,
              "position": 0,
              "duration": 0.23958333333333334
            },
            {
              "pitch": 99,
              "velocity": 85,
              "position": 0.6666666666666666,
              "duration": 0.23958333333333334
            },
            {
              "pitch": 98,
              "velocity": 95,
              "position": 1,
              "duration": 0.23958333333333334
            },
            {
              "pitch": 99,
              "velocity": 85,
              "position": 1.6666666666666667,
              "duration": 0.23958333333333334
            },
            {
              "pitch": 100,
              "velocity": 109,
              "position": 2,
              "duration": 0.23958333333333334
            },
            {
              "pitch": 99,
              "velocity": 81,
              "position": 2.6666666666666665,
              "duration": 0.23958333333333334
            },
            {
              "pitch": 98,
              "velocity": 107,
              "position": 3,
              "duration": 0.23958333333333334
            },
            {
              "pitch": 99,
              "velocity": 85,
              "position": 3.6666666666666665,
              "duration": 0.23958333333333334
            },
            {
              "pitch": 98,
              "velocity": 95,
              "position": 4,
              "duration": 0.23958333333333334
            },
            {
              "pitch": 100,
              "velocity": 109,
              "position": 5,
              "duration": 0.23958333333333334
            },
            {
              "pitch": 99,
              "velocity": 81,
              "position": 5.666666666666667,
              "duration": 0.23958333333333334
            },
            {
              "pitch": 98,
              "velocity": 107,
              "position": 6,
              "duration": 0.23958333333333334
            },
            {
              "pitch": 98,
              "velocity": 95,
              "position": 7,
              "duration": 0.23958333333333334
            },
            {
              "pitch": 100,
              "velocity": 109,
              "position": 8,
              "duration": 0.23958333333333334
            },
            {
              "pitch": 99,
              "velocity": 81,
              "position": 8.666666666666666,
              "duration": 0.23958333333333334
            },
            {
              "pitch": 98,
              "velocity": 107,
              "position": 9,
              "duration": 0.23958333333333334
            }
          ]
        },
        "2": {
          "ctab": {
            "srcChannel": 2,
            "name": "strg",
            "accType": "PAD",
            "editable": false,
            "mutedNotes": [],
            "mutedChords": [],
            "autoStart": false,
            "sourceChordNote": 0,
            "sourceChordType": "Maj7",
            "ctb2Low": null,
            "ctb2Main": {
              "ntr": "ROOT_TRANSPOSITION",
              "ntt": "HARMONIC_MINOR",
              "bassOn": false,
              "chordRootUpperLimit": 4,
              "noteLowLimit": 0,
              "noteHighLimit": 79,
              "rtr": "PITCH_SHIFT"
            },
            "ctb2High": null
          },
          "notes": [
            {
              "pitch": 72,
              "velocity": 101,
              "position": 1,
              "duration": 0.9895833333333334
            },
            {
              "pitch": 76,
              "velocity": 99,
              "position": 2,
              "duration": 0.65625
            },
            {
              "pitch": 67,
              "velocity": 101,
              "position": 0,
              "duration": 2.9895833333333335
            },
            {
              "pitch": 79,
              "velocity": 101,
              "position": 2.6666666666666665,
              "duration": 0.3229166666666667
            },
            {
              "pitch": 81,
              "velocity": 99,
              "position": 3,
              "duration": 0.9895833333333334
            },
            {
              "pitch": 84,
              "velocity": 99,
              "position": 4,
              "duration": 0.9895833333333334
            },
            {
              "pitch": 81,
              "velocity": 85,
              "position": 5,
              "duration": 0.9895833333333334
            },
            {
              "pitch": 86,
              "velocity": 97,
              "position": 5,
              "duration": 0.9895833333333334
            },
            {
              "pitch": 79,
              "velocity": 81,
              "position": 6,
              "duration": 5.989583333333333
            },
            {
              "pitch": 88,
              "velocity": 91,
              "position": 6,
              "duration": 5.989583333333333
            }
          ]
        },
        "3": {
          "ctab": {
            "srcChannel": 3,
            "name": "gtr25",
            "accType": "PHRASE1",
            "editable": false,
            "mutedNotes": [],
            "mutedChords": [],
            "autoStart": false,
            "sourceChordNote": 0,
            "sourceChordType": "Maj7",
            "ctb2Low": null,
            "ctb2Main": {
              "ntr": "ROOT_TRANSPOSITION",
              "ntt": "HARMONIC_MINOR",
              "bassOn": false,
              "chordRootUpperLimit": 8,
              "noteLowLimit": 54,
              "noteHighLimit": 65,
              "rtr": "PITCH_SHIFT"
            },
            "ctb2High": null
          },
          "notes": [
            {
              "pitch": 60,
              "velocity": 59,
              "position": 1,
              "duration": 0.9895833333333334
            },
            {
              "pitch": 64,
              "velocity": 57,
              "position": 1.0208333333333333,
              "duration": 0.9895833333333334
            },
            {
              "pitch": 55,
              "velocity": 54,
              "position": 0.6666666666666666,
              "duration": 2.3229166666666665
            },
            {
              "pitch": 60,
              "velocity": 57,
              "position": 2,
              "duration": 0.9895833333333334
            },
            {
              "pitch": 64,
              "velocity": 58,
              "position": 2.0208333333333335,
              "duration": 0.9895833333333334
            },
            {
              "pitch": 62,
              "velocity": 57,
              "position": 4,
              "duration": 0.9895833333333334
            },
            {
              "pitch": 65,
              "velocity": 57,
              "position": 4.020833333333333,
              "duration": 0.9895833333333334
            },
            {
              "pitch": 57,
              "velocity": 54,
              "position": 3.6666666666666665,
              "duration": 2.3229166666666665
            },
            {
              "pitch": 62,
              "velocity": 58,
              "position": 5,
              "duration": 0.9895833333333334
            },
            {
              "pitch": 65,
              "velocity": 57,
              "position": 5.020833333333333,
              "duration": 0.9895833333333334
            },
            {
              "pitch": 60,
              "velocity": 59,
              "position": 7,
              "duration": 0.9895833333333334
            },
            {
              "pitch": 64,
              "velocity": 57,
              "position": 7.020833333333333,
              "duration": 0.9895833333333334
            },
            {
              "pitch": 55,
              "velocity": 54,
              "position": 6.666666666666667,
              "duration": 2.3229166666666665
            },
            {
              "pitch": 60,
              "velocity": 57,
              "position": 8,
              "duration": 0.9895833333333334
            },
            {
              "pitch": 64,
              "velocity": 58,
              "position": 8.020833333333334,
              "duration": 0.9895833333333334
            },
            {
              "pitch": 55,
              "velocity": 57,
              "position": 9,
              "duration": 2.9895833333333335
            },
            {
              "pitch": 60,
              "velocity": 57,
              "position": 9,
              "duration": 2.9895833333333335
            },
            {
              "pitch": 64,
              "velocity": 57,
              "position": 9.020833333333334,
              "duration": 2.96875
            }
          ]
        },
        "4": {
          "ctab": {
            "srcChannel": 4,
            "name": "gtr25",
            "accType": "CHORD1",
            "editable": false,
            "mutedNotes": [],
            "mutedChords": [],
            "autoStart": false,
            "sourceChordNote": 0,
            "sourceChordType": "Maj7",
            "ctb2Low": null,
            "ctb2Main": {
              "ntr": "ROOT_TRANSPOSITION",
              "ntt": "HARMONIC_MINOR",
              "bassOn": false,
              "chordRootUpperLimit": 8,
              "noteLowLimit": 36,
              "noteHighLimit": 67,
              "rtr": "PITCH_SHIFT"
            },
            "ctb2High": null
          },
          "notes": [
            {
              "pitch": 43,
              "velocity": 113,
              "position": 0,
              "duration": 0.65625
            },
            {
              "pitch": 48,
              "velocity": 117,
              "position": 0,
              "duration": 0.65625
            },
            {
              "pitch": 48,
              "velocity": 91,
              "position": 0.6666666666666666,
              "duration": 0.3229166666666667
            },
            {
              "pitch": 48,
              "velocity": 106,
              "position": 1,
              "duration": 0.65625
            },
            {
              "pitch": 48,
              "velocity": 91,
              "position": 1.6666666666666667,
              "duration": 0.3229166666666667
            },
            {
              "pitch": 48,
              "velocity": 120,
              "position": 2,
              "duration": 0.65625
            },
            {
              "pitch": 48,
              "velocity": 84,
              "position": 2.6666666666666665,
              "duration": 0.3229166666666667
            },
            {
              "pitch": 43,
              "velocity": 85,
              "position": 2.6770833333333335,
              "duration": 0.3125
            },
            {
              "pitch": 45,
              "velocity": 113,
              "position": 3,
              "duration": 0.65625
            },
            {
              "pitch": 50,
              "velocity": 117,
              "position": 3,
              "duration": 0.65625
            },
            {
              "pitch": 50,
              "velocity": 91,
              "position": 3.6666666666666665,
              "duration": 0.3229166666666667
            },
            {
              "pitch": 50,
              "velocity": 106,
              "position": 4,
              "duration": 0.9895833333333334
            },
            {
              "pitch": 53,
              "velocity": 95,
              "position": 4.010416666666667,
              "duration": 0.9791666666666666
            },
            {
              "pitch": 50,
              "velocity": 120,
              "position": 5,
              "duration": 0.65625
            },
            {
              "pitch": 45,
              "velocity": 85,
              "position": 5.677083333333333,
              "duration": 0.3125
            },
            {
              "pitch": 50,
              "velocity": 84,
              "position": 5.666666666666667,
              "duration": 0.3229166666666667
            },
            {
              "pitch": 48,
              "velocity": 117,
              "position": 6,
              "duration": 0.9895833333333334
            },
            {
              "pitch": 52,
              "velocity": 107,
              "position": 6.010416666666667,
              "duration": 0.9791666666666666
            },
            {
              "pitch": 52,
              "velocity": 95,
              "position": 7.010416666666667,
              "duration": 0.9791666666666666
            },
            {
              "pitch": 48,
              "velocity": 106,
              "position": 7,
              "duration": 0.9895833333333334
            },
            {
              "pitch": 48,
              "velocity": 120,
              "position": 8,
              "duration": 0.65625
            },
            {
              "pitch": 48,
              "velocity": 84,
              "position": 8.666666666666666,
              "duration": 0.3229166666666667
            },
            {
              "pitch": 43,
              "velocity": 85,
              "position": 8.677083333333334,
              "duration": 0.3125
            },
            {
              "pitch": 43,
              "velocity": 113,
              "position": 9,
              "duration": 2.9895833333333335
            },
            {
              "pitch": 48,
              "velocity": 117,
              "position": 9,
              "duration": 2.9895833333333335
            },
            {
              "pitch": 52,
              "velocity": 107,
              "position": 9.010416666666666,
              "duration": 2.9791666666666665
            }
          ]
        },
        "5": {
          "ctab": {
            "srcChannel": 5,
            "name": "epi",
            "accType": "CHORD2",
            "editable": false,
            "mutedNotes": [],
            "mutedChords": [],
            "autoStart": false,
            "sourceChordNote": 0,
            "sourceChordType": "Maj7",
            "ctb2Low": null,
            "ctb2Main": {
              "ntr": "ROOT_TRANSPOSITION",
              "ntt": "HARMONIC_MINOR",
              "bassOn": false,
              "chordRootUpperLimit": 9,
              "noteLowLimit": 0,
              "noteHighLimit": 127,
              "rtr": "PITCH_SHIFT"
            },
            "ctb2High": null
          },
          "notes": [
            {
              "pitch": 64,
              "velocity": 88,
              "position": 2.6666666666666665,
              "duration": 0.325
            },
            {
              "pitch": 67,
              "velocity": 88,
              "position": 2.6666666666666665,
              "duration": 0.325
            },
            {
              "pitch": 65,
              "velocity": 88,
              "position": 3,
              "duration": 0.9916666666666667
            },
            {
              "pitch": 69,
              "velocity": 88,
              "position": 3,
              "duration": 0.9916666666666667
            },
            {
              "pitch": 69,
              "velocity": 88,
              "position": 4,
              "duration": 0.9895833333333334
            },
            {
              "pitch": 65,
              "velocity": 88,
              "position": 5,
              "duration": 0.9166666666666666
            },
            {
              "pitch": 69,
              "velocity": 88,
              "position": 5,
              "duration": 0.9916666666666667
            },
            {
              "pitch": 67,
              "velocity": 88,
              "position": 6,
              "duration": 1.9895833333333333
            },
            {
              "pitch": 72,
              "velocity": 89,
              "position": 4,
              "duration": 4.989583333333333
            },
            {
              "pitch": 55,
              "velocity": 88,
              "position": 6,
              "duration": 5.989583333333333
            },
            {
              "pitch": 64,
              "velocity": 88,
              "position": 6,
              "duration": 5.989583333333333
            }
          ]
        },
        "6": {
          "ctab": {
            "srcChannel": 6,
            "name": "strg",
            "accType": "PAD",
            "editable": false,
            "mutedNotes": [],
            "mutedChords": [],
            "autoStart": false,
            "sourceChordNote": 0,
            "sourceChordType": "Maj7",
            "ctb2Low": null,
            "ctb2Main": {
              "ntr": "ROOT_TRANSPOSITION",
              "ntt": "HARMONIC_MINOR",
              "bassOn": false,
              "chordRootUpperLimit": 10,
              "noteLowLimit": 54,
              "noteHighLimit": 68,
              "rtr": "PITCH_SHIFT"
            },
            "ctb2High": null
          },
          "notes": [
            {
              "pitch": 60,
              "velocity": 70,
              "position": 0,
              "duration": 2.9895833333333335
            },
            {
              "pitch": 64,
              "velocity": 70,
              "position": 0,
              "duration": 2.9895833333333335
            },
            {
              "pitch": 60,
              "velocity": 70,
              "position": 3,
              "duration": 2.9895833333333335
            },
            {
              "pitch": 65,
              "velocity": 70,
              "position": 3,
              "duration": 2.9895833333333335
            },
            {
              "pitch": 69,
              "velocity": 70,
              "position": 3,
              "duration": 2.9895833333333335
            }
          ]
        },
        "8": {
          "ctab": {
            "srcChannel": 8,
            "name": "add-dr",
            "accType": "SUBRHYTHM",
            "editable": false,
            "mutedNotes": [],
            "mutedChords": [],
            "autoStart": true,
            "sourceChordNote": 0,
            "sourceChordType": "Maj7",
            "ctb2Low": null,
            "ctb2Main": {
              "ntr": "ROOT_FIXED",
              "ntt": "BYPASS",
              "bassOn": false,
              "chordRootUpperLimit": 7,
              "noteLowLimit": 0,
              "noteHighLimit": 127,
              "rtr": "PITCH_SHIFT"
            },
            "ctb2High": null
          },
          "notes": [
            {
              "pitch": 54,
              "velocity": 71,
              "position": 2.0208333333333335,
              "duration": 0.010416666666666666
            },
            {
              "pitch": 54,
              "velocity": 71,
              "position": 5.020833333333333,
              "duration": 0.010416666666666666
            },
            {
              "pitch": 54,
              "velocity": 71,
              "position": 8.020833333333334,
              "duration": 0.010416666666666666
            }
          ]
        },
        "9": {
          "ctab": {
            "srcChannel": 9,
            "name": "m-drums",
            "accType": "RHYTHM",
            "editable": false,
            "mutedNotes": [],
            "mutedChords": [],
            "autoStart": true,
            "sourceChordNote": 0,
            "sourceChordType": "Maj7",
            "ctb2Low": null,
            "ctb2Main": {
              "ntr": "ROOT_FIXED",
              "ntt": "BYPASS",
              "bassOn": false,
              "chordRootUpperLimit": 7,
              "noteLowLimit": 0,
              "noteHighLimit": 127,
              "rtr": "PITCH_SHIFT"
            },
            "ctb2High": null
          },
          "notes": [
            {
              "pitch": 51,
              "velocity": 54,
              "position": 0,
              "duration": 0.07291666666666667
            },
            {
              "pitch": 35,
              "velocity": 91,
              "position": 0,
              "duration": 0.125
            },
            {
              "pitch": 44,
              "velocity": 46,
              "position": 1,
              "duration": 0.010416666666666666
            },
            {
              "pitch": 37,
              "velocity": 70,
              "position": 1,
              "duration": 0.020833333333333332
            },
            {
              "pitch": 51,
              "velocity": 54,
              "position": 1,
              "duration": 0.07291666666666667
            },
            {
              "pitch": 51,
              "velocity": 37,
              "position": 1.6666666666666667,
              "duration": 0.010416666666666666
            },
            {
              "pitch": 44,
              "velocity": 46,
              "position": 2,
              "duration": 0.010416666666666666
            },
            {
              "pitch": 51,
              "velocity": 37,
              "position": 2,
              "duration": 0.0625
            },
            {
              "pitch": 51,
              "velocity": 45,
              "position": 2.6666666666666665,
              "duration": 0.020833333333333332
            },
            {
              "pitch": 44,
              "velocity": 31,
              "position": 3,
              "duration": 0.010416666666666666
            },
            {
              "pitch": 51,
              "velocity": 37,
              "position": 3,
              "duration": 0.07291666666666667
            },
            {
              "pitch": 35,
              "velocity": 91,
              "position": 3,
              "duration": 0.125
            },
            {
              "pitch": 44,
              "velocity": 46,
              "position": 4,
              "duration": 0.010416666666666666
            },
            {
              "pitch": 37,
              "velocity": 70,
              "position": 4,
              "duration": 0.020833333333333332
            },
            {
              "pitch": 51,
              "velocity": 54,
              "position": 4,
              "duration": 0.07291666666666667
            },
            {
              "pitch": 51,
              "velocity": 45,
              "position": 4.666666666666667,
              "duration": 0.020833333333333332
            },
            {
              "pitch": 44,
              "velocity": 46,
              "position": 5,
              "duration": 0.010416666666666666
            },
            {
              "pitch": 40,
              "velocity": 83,
              "position": 5,
              "duration": 0.020833333333333332
            },
            {
              "pitch": 51,
              "velocity": 54,
              "position": 5,
              "duration": 0.07291666666666667
            },
            {
              "pitch": 51,
              "velocity": 45,
              "position": 5.666666666666667,
              "duration": 0.020833333333333332
            },
            {
              "pitch": 44,
              "velocity": 31,
              "position": 6,
              "duration": 0.010416666666666666
            },
            {
              "pitch": 51,
              "velocity": 37,
              "position": 6,
              "duration": 0.07291666666666667
            },
            {
              "pitch": 35,
              "velocity": 91,
              "position": 6,
              "duration": 0.125
            },
            {
              "pitch": 51,
              "velocity": 38,
              "position": 6.666666666666667,
              "duration": 0.020833333333333332
            },
            {
              "pitch": 44,
              "velocity": 46,
              "position": 7,
              "duration": 0.010416666666666666
            },
            {
              "pitch": 37,
              "velocity": 70,
              "position": 7,
              "duration": 0.020833333333333332
            },
            {
              "pitch": 51,
              "velocity": 54,
              "position": 7,
              "duration": 0.07291666666666667
            },
            {
              "pitch": 35,
              "velocity": 72,
              "position": 7.666666666666667,
              "duration": 0.010416666666666666
            },
            {
              "pitch": 51,
              "velocity": 38,
              "position": 7.666666666666667,
              "duration": 0.020833333333333332
            },
            {
              "pitch": 40,
              "velocity": 43,
              "position": 7.979166666666667,
              "duration": 0.010416666666666666
            },
            {
              "pitch": 44,
              "velocity": 46,
              "position": 8,
              "duration": 0.010416666666666666
            },
            {
              "pitch": 40,
              "velocity": 83,
              "position": 8.020833333333334,
              "duration": 0.020833333333333332
            },
            {
              "pitch": 51,
              "velocity": 54,
              "position": 8,
              "duration": 0.07291666666666667
            },
            {
              "pitch": 43,
              "velocity": 44,
              "position": 8.333333333333334,
              "duration": 0.010416666666666666
            },
            {
              "pitch": 41,
              "velocity": 44,
              "position": 8.666666666666666,
              "duration": 0.010416666666666666
            },
            {
              "pitch": 51,
              "velocity": 45,
              "position": 8.666666666666666,
              "duration": 0.020833333333333332
            },
            {
              "pitch": 49,
              "velocity": 47,
              "position": 9,
              "duration": 0.07291666666666667
            },
            {
              "pitch": 35,
              "velocity": 91,
              "position": 9,
              "duration": 0.125
            }
          ]
        },
        "12": {
          "ctab": {
            "srcChannel": 12,
            "name": "bass",
            "accType": "BASS",
            "editable": false,
            "mutedNotes": [],
            "mutedChords": [],
            "autoStart": false,
            "sourceChordNote": 0,
            "sourceChordType": "Maj7",
            "ctb2Low": null,
            "ctb2Main": {
              "ntr": "ROOT_TRANSPOSITION",
              "ntt": "HARMONIC_MINOR",
              "bassOn": false,
              "chordRootUpperLimit": 8,
              "noteLowLimit": 28,
              "noteHighLimit": 127,
              "rtr": "PITCH_SHIFT"
            },
            "ctb2High": null
          },
          "notes": [
            {
              "pitch": 24,
              "velocity": 95,
              "position": 0,
              "duration": 2.65625
            },
            {
              "pitch": 24,
              "velocity": 90,
              "position": 2.6666666666666665,
              "duration": 0.3229166666666667
            },
            {
              "pitch": 19,
              "velocity": 95,
              "position": 3,
              "duration": 1.9895833333333333
            },
            {
              "pitch": 19,
              "velocity": 86,
              "position": 5,
              "duration": 0.9895833333333334
            },
            {
              "pitch": 24,
              "velocity": 95,
              "position": 6,
              "duration": 2.9895833333333335
            },
            {
              "pitch": 24,
              "velocity": 88,
              "position": 9,
              "duration": 2.9895833333333335
            }
          ]
        },
        "15": {
          "ctab": {
            "srcChannel": 15,
            "name": "StFX",
            "accType": "PHRASE1",
            "editable": false,
            "mutedNotes": [],
            "mutedChords": [],
            "autoStart": false,
            "sourceChordNote": 0,
            "sourceChordType": "min7(11)",
            "ctb2Low": null,
            "ctb2Main": {
              "ntr": "ROOT_FIXED",
              "ntt": "BYPASS",
              "bassOn": false,
              "chordRootUpperLimit": 7,
              "noteLowLimit": 0,
              "noteHighLimit": 127,
              "rtr": "PITCH_SHIFT"
            },
            "ctb2High": null
          },
          "notes": [
            {
              "pitch": 104,
              "velocity": 116,
              "position": 1,
              "duration": 0.23958333333333334
            },
            {
              "pitch": 98,
              "velocity": 117,
              "position": 2,
              "duration": 0.23958333333333334
            },
            {
              "pitch": 104,
              "velocity": 116,
              "position": 4,
              "duration": 0.23958333333333334
            },
            {
              "pitch": 98,
              "velocity": 116,
              "position": 5,
              "duration": 0.23958333333333334
            },
            {
              "pitch": 104,
              "velocity": 116,
              "position": 7,
              "duration": 0.23958333333333334
            },
            {
              "pitch": 98,
              "velocity": 117,
              "position": 8,
              "duration": 0.23958333333333334
            },
            {
              "pitch": 98,
              "velocity": 116,
              "position": 9,
              "duration": 0.23958333333333334
            }
          ]
        }
      }
    },
    "Ending_A": {
      "type": "Ending_A",
      "sizeInBeats": 3,
      "channels": {
        "0": {
          "ctab": {
            "srcChannel": 0,
            "name": "HiStFX",
            "accType": "CHORD1",
            "editable": false,
            "mutedNotes": [],
            "mutedChords": [],
            "autoStart": false,
            "sourceChordNote": 0,
            "sourceChordType": "min7(11)",
            "ctb2Low": null,
            "ctb2Main": {
              "ntr": "ROOT_FIXED",
              "ntt": "BYPASS",
              "bassOn": false,
              "chordRootUpperLimit": 7,
              "noteLowLimit": 0,
              "noteHighLimit": 79,
              "rtr": "PITCH_SHIFT"
            },
            "ctb2High": null
          },
          "notes": [
            {
              "pitch": 98,
              "velocity": 91,
              "position": 0,
              "duration": 0.23958333333333334
            }
          ]
        },
        "1": {
          "ctab": {
            "srcChannel": 1,
            "name": "gtr low",
            "accType": "PHRASE1",
            "editable": false,
            "mutedNotes": [],
            "mutedChords": [],
            "autoStart": false,
            "sourceChordNote": 0,
            "sourceChordType": "Maj7",
            "ctb2Low": null,
            "ctb2Main": {
              "ntr": "ROOT_TRANSPOSITION",
              "ntt": "MELODY",
              "bassOn": true,
              "chordRootUpperLimit": 6,
              "noteLowLimit": 40,
              "noteHighLimit": 127,
              "rtr": "PITCH_SHIFT_TO_ROOT"
            },
            "ctb2High": null
          },
          "notes": [
            {
              "pitch": 48,
              "velocity": 43,
              "position": 0,
              "duration": 2.9895833333333335
            }
          ]
        },
        "2": {
          "ctab": {
            "srcChannel": 2,
            "name": "strg",
            "accType": "PAD",
            "editable": false,
            "mutedNotes": [],
            "mutedChords": [
              "1+2+5",
              "sus4",
              "1+5",
              "1+8",
              "Maj7aug",
              "dim",
              "minMaj7(9)",
              "minMaj7",
              "min6",
              "min",
              "aug",
              "Maj7(9)",
              "Maj7#11",
              "Maj7",
              "Maj6",
              "Maj"
            ],
            "autoStart": false,
            "sourceChordNote": 0,
            "sourceChordType": "Maj7",
            "ctb2Low": null,
            "ctb2Main": {
              "ntr": "ROOT_TRANSPOSITION",
              "ntt": "CHORD",
              "bassOn": false,
              "chordRootUpperLimit": 10,
              "noteLowLimit": 0,
              "noteHighLimit": 127,
              "rtr": "PITCH_SHIFT"
            },
            "ctb2High": null
          },
          "notes": [
            {
              "pitch": 60,
              "velocity": 37,
              "position": 0,
              "duration": 2.9895833333333335
            }
          ]
        },
        "3": {
          "ctab": {
            "srcChannel": 3,
            "name": "gtr25",
            "accType": "PHRASE1",
            "editable": false,
            "mutedNotes": [],
            "mutedChords": [],
            "autoStart": false,
            "sourceChordNote": 0,
            "sourceChordType": "min7(11)",
            "ctb2Low": null,
            "ctb2Main": {
              "ntr": "ROOT_FIXED",
              "ntt": "CHORD",
              "bassOn": false,
              "chordRootUpperLimit": 6,
              "noteLowLimit": 50,
              "noteHighLimit": 127,
              "rtr": "PITCH_SHIFT"
            },
            "ctb2High": null
          },
          "notes": [
            {
              "pitch": 53,
              "velocity": 57,
              "position": 0,
              "duration": 2.9895833333333335
            },
            {
              "pitch": 58,
              "velocity": 57,
              "position": 0,
              "duration": 2.9895833333333335
            },
            {
              "pitch": 63,
              "velocity": 57,
              "position": 0.010416666666666666,
              "duration": 2.9791666666666665
            }
          ]
        },
        "4": {
          "ctab": {
            "srcChannel": 4,
            "name": "gtr25",
            "accType": "CHORD1",
            "editable": false,
            "mutedNotes": [],
            "mutedChords": [],
            "autoStart": false,
            "sourceChordNote": 0,
            "sourceChordType": "min7(11)",
            "ctb2Low": null,
            "ctb2Main": {
              "ntr": "ROOT_FIXED",
              "ntt": "CHORD",
              "bassOn": false,
              "chordRootUpperLimit": 7,
              "noteLowLimit": 38,
              "noteHighLimit": 127,
              "rtr": "PITCH_SHIFT"
            },
            "ctb2High": null
          },
          "notes": [
            {
              "pitch": 51,
              "velocity": 91,
              "position": 0.10416666666666667,
              "duration": 2.2291666666666665
            },
            {
              "pitch": 46,
              "velocity": 86,
              "position": 0.052083333333333336,
              "duration": 2.3541666666666665
            },
            {
              "pitch": 41,
              "velocity": 97,
              "position": 0,
              "duration": 2.53125
            }
          ]
        },
        "5": {
          "ctab": {
            "srcChannel": 5,
            "name": "epi 04",
            "accType": "CHORD2",
            "editable": false,
            "mutedNotes": [],
            "mutedChords": [],
            "autoStart": false,
            "sourceChordNote": 0,
            "sourceChordType": "Maj7",
            "ctb2Low": null,
            "ctb2Main": {
              "ntr": "ROOT_FIXED",
              "ntt": "CHORD",
              "bassOn": false,
              "chordRootUpperLimit": 7,
              "noteLowLimit": 50,
              "noteHighLimit": 127,
              "rtr": "PITCH_SHIFT"
            },
            "ctb2High": null
          },
          "notes": [
            {
              "pitch": 59,
              "velocity": 57,
              "position": 0,
              "duration": 2.9895833333333335
            },
            {
              "pitch": 64,
              "velocity": 57,
              "position": 0,
              "duration": 2.9895833333333335
            },
            {
              "pitch": 67,
              "velocity": 57,
              "position": 0,
              "duration": 2.9895833333333335
            }
          ]
        },
        "6": {
          "ctab": {
            "srcChannel": 6,
            "name": "strg",
            "accType": "PAD",
            "editable": false,
            "mutedNotes": [],
            "mutedChords": [],
            "autoStart": false,
            "sourceChordNote": 0,
            "sourceChordType": "min7(11)",
            "ctb2Low": null,
            "ctb2Main": {
              "ntr": "ROOT_FIXED",
              "ntt": "CHORD",
              "bassOn": false,
              "chordRootUpperLimit": 7,
              "noteLowLimit": 50,
              "noteHighLimit": 127,
              "rtr": "PITCH_SHIFT"
            },
            "ctb2High": null
          },
          "notes": [
            {
              "pitch": 58,
              "velocity": 39,
              "position": 0,
              "duration": 2.9895833333333335
            },
            {
              "pitch": 63,
              "velocity": 39,
              "position": 0,
              "duration": 2.9895833333333335
            },
            {
              "pitch": 65,
              "velocity": 39,
              "position": 0,
              "duration": 2.9895833333333335
            }
          ]
        },
        "7": {
          "ctab": {
            "srcChannel": 7,
            "name": "gtr root",
            "accType": "CHORD1",
            "editable": false,
            "mutedNotes": [],
            "mutedChords": [
              "1+2+5",
              "sus4",
              "1+5",
              "1+8",
              "Maj7aug",
              "dim",
              "minMaj7(9)",
              "minMaj7",
              "min6",
              "min",
              "aug",
              "Maj7(9)",
              "Maj7#11",
              "Maj7",
              "Maj6",
              "Maj"
            ],
            "autoStart": false,
            "sourceChordNote": 0,
            "sourceChordType": "Maj7",
            "ctb2Low": null,
            "ctb2Main": {
              "ntr": "ROOT_TRANSPOSITION",
              "ntt": "CHORD",
              "bassOn": false,
              "chordRootUpperLimit": 6,
              "noteLowLimit": 0,
              "noteHighLimit": 127,
              "rtr": "PITCH_SHIFT"
            },
            "ctb2High": null
          },
          "notes": [
            {
              "pitch": 48,
              "velocity": 86,
              "position": 0.052083333333333336,
              "duration": 2.3541666666666665
            }
          ]
        },
        "9": {
          "ctab": {
            "srcChannel": 9,
            "name": "m-drums",
            "accType": "RHYTHM",
            "editable": false,
            "mutedNotes": [],
            "mutedChords": [],
            "autoStart": true,
            "sourceChordNote": 0,
            "sourceChordType": "Maj7",
            "ctb2Low": null,
            "ctb2Main": {
              "ntr": "ROOT_FIXED",
              "ntt": "BYPASS",
              "bassOn": false,
              "chordRootUpperLimit": 7,
              "noteLowLimit": 0,
              "noteHighLimit": 127,
              "rtr": "PITCH_SHIFT"
            },
            "ctb2High": null
          },
          "notes": [
            {
              "pitch": 59,
              "velocity": 41,
              "position": 0,
              "duration": 0.020833333333333332
            },
            {
              "pitch": 35,
              "velocity": 82,
              "position": 0,
              "duration": 0.03125
            }
          ]
        },
        "12": {
          "ctab": {
            "srcChannel": 12,
            "name": "bass",
            "accType": "BASS",
            "editable": false,
            "mutedNotes": [],
            "mutedChords": [],
            "autoStart": false,
            "sourceChordNote": 0,
            "sourceChordType": "Maj7",
            "ctb2Low": null,
            "ctb2Main": {
              "ntr": "ROOT_TRANSPOSITION",
              "ntt": "MELODY",
              "bassOn": true,
              "chordRootUpperLimit": 8,
              "noteLowLimit": 28,
              "noteHighLimit": 127,
              "rtr": "PITCH_SHIFT_TO_ROOT"
            },
            "ctb2High": null
          },
          "notes": [
            {
              "pitch": 36,
              "velocity": 88,
              "position": 0,
              "duration": 2.9895833333333335
            }
          ]
        },
        "15": {
          "ctab": {
            "srcChannel": 15,
            "name": "Phrase2",
            "accType": "PHRASE1",
            "editable": false,
            "mutedNotes": [],
            "mutedChords": [],
            "autoStart": false,
            "sourceChordNote": 0,
            "sourceChordType": "Maj7",
            "ctb2Low": null,
            "ctb2Main": {
              "ntr": "ROOT_FIXED",
              "ntt": "MELODY",
              "bassOn": false,
              "chordRootUpperLimit": 7,
              "noteLowLimit": 0,
              "noteHighLimit": 127,
              "rtr": "PITCH_SHIFT"
            },
            "ctb2High": null
          },
          "notes": [
            {
              "pitch": 98,
              "velocity": 116,
              "position": 0,
              "duration": 0.23958333333333334
            }
          ]
        }
      }
    },
    "Ending_B": {
      "type": "Ending_B",
      "sizeInBeats": 6,
      "channels": {
        "0": {
          "ctab": {
            "srcChannel": 0,
            "name": "HiStFX",
            "accType": "CHORD1",
            "editable": false,
            "mutedNotes": [],
            "mutedChords": [],
            "autoStart": false,
            "sourceChordNote": 0,
            "sourceChordType": "min7(11)",
            "ctb2Low": null,
            "ctb2Main": {
              "ntr": "ROOT_FIXED",
              "ntt": "BYPASS",
              "bassOn": false,
              "chordRootUpperLimit": 7,
              "noteLowLimit": 0,
              "noteHighLimit": 79,
              "rtr": "PITCH_SHIFT"
            },
            "ctb2High": null
          },
          "notes": [
            {
              "pitch": 98,
              "velocity": 107,
              "position": 0,
              "duration": 0.23958333333333334
            },
            {
              "pitch": 98,
              "velocity": 88,
              "position": 1,
              "duration": 0.23958333333333334
            },
            {
              "pitch": 100,
              "velocity": 93,
              "position": 2,
              "duration": 0.23958333333333334
            },
            {
              "pitch": 99,
              "velocity": 81,
              "position": 2.6666666666666665,
              "duration": 0.23958333333333334
            },
            {
              "pitch": 98,
              "velocity": 107,
              "position": 3,
              "duration": 0.23958333333333334
            }
          ]
        },
        "1": {
          "ctab": {
            "srcChannel": 1,
            "name": "gtr low",
            "accType": "PHRASE1",
            "editable": false,
            "mutedNotes": [],
            "mutedChords": [],
            "autoStart": false,
            "sourceChordNote": 0,
            "sourceChordType": "Maj7",
            "ctb2Low": null,
            "ctb2Main": {
              "ntr": "ROOT_TRANSPOSITION",
              "ntt": "MELODY",
              "bassOn": true,
              "chordRootUpperLimit": 6,
              "noteLowLimit": 40,
              "noteHighLimit": 127,
              "rtr": "PITCH_SHIFT_TO_ROOT"
            },
            "ctb2High": null
          },
          "notes": [
            {
              "pitch": 48,
              "velocity": 41,
              "position": 0,
              "duration": 2.9791666666666665
            },
            {
              "pitch": 48,
              "velocity": 41,
              "position": 3,
              "duration": 2.9791666666666665
            }
          ]
        },
        "2": {
          "ctab": {
            "srcChannel": 2,
            "name": "strg",
            "accType": "PAD",
            "editable": false,
            "mutedNotes": [],
            "mutedChords": [
              "1+2+5",
              "sus4",
              "1+5",
              "1+8",
              "Maj7aug",
              "dim",
              "minMaj7(9)",
              "minMaj7",
              "min6",
              "min",
              "aug",
              "Maj7(9)",
              "Maj7#11",
              "Maj7",
              "Maj6",
              "Maj"
            ],
            "autoStart": false,
            "sourceChordNote": 0,
            "sourceChordType": "Maj7",
            "ctb2Low": null,
            "ctb2Main": {
              "ntr": "ROOT_TRANSPOSITION",
              "ntt": "CHORD",
              "bassOn": false,
              "chordRootUpperLimit": 10,
              "noteLowLimit": 0,
              "noteHighLimit": 127,
              "rtr": "PITCH_SHIFT"
            },
            "ctb2High": null
          },
          "notes": [
            {
              "pitch": 60,
              "velocity": 37,
              "position": 0.010416666666666666,
              "duration": 2.9791666666666665
            },
            {
              "pitch": 60,
              "velocity": 37,
              "position": 3,
              "duration": 2.9791666666666665
            }
          ]
        },
        "3": {
          "ctab": {
            "srcChannel": 3,
            "name": "gtr25",
            "accType": "PHRASE1",
            "editable": false,
            "mutedNotes": [],
            "mutedChords": [],
            "autoStart": false,
            "sourceChordNote": 0,
            "sourceChordType": "Maj7",
            "ctb2Low": null,
            "ctb2Main": {
              "ntr": "ROOT_FIXED",
              "ntt": "CHORD",
              "bassOn": false,
              "chordRootUpperLimit": 6,
              "noteLowLimit": 50,
              "noteHighLimit": 127,
              "rtr": "PITCH_SHIFT"
            },
            "ctb2High": null
          },
          "notes": [
            {
              "pitch": 59,
              "velocity": 51,
              "position": 0,
              "duration": 0.9083333333333333
            },
            {
              "pitch": 64,
              "velocity": 51,
              "position": 0.3333333333333333,
              "duration": 0.6583333333333333
            },
            {
              "pitch": 67,
              "velocity": 51,
              "position": 0.6666666666666666,
              "duration": 0.825
            },
            {
              "pitch": 59,
              "velocity": 51,
              "position": 1,
              "duration": 0.9083333333333333
            },
            {
              "pitch": 64,
              "velocity": 51,
              "position": 1.3333333333333333,
              "duration": 1.1583333333333334
            },
            {
              "pitch": 55,
              "velocity": 51,
              "position": 2,
              "duration": 0.6583333333333333
            },
            {
              "pitch": 64,
              "velocity": 54,
              "position": 2.6666666666666665,
              "duration": 0.325
            },
            {
              "pitch": 67,
              "velocity": 51,
              "position": 1.6666666666666667,
              "duration": 1.325
            },
            {
              "pitch": 59,
              "velocity": 51,
              "position": 2.3333333333333335,
              "duration": 0.6583333333333333
            },
            {
              "pitch": 64,
              "velocity": 54,
              "position": 3.28125,
              "duration": 2.6979166666666665
            },
            {
              "pitch": 55,
              "velocity": 54,
              "position": 3,
              "duration": 2.9895833333333335
            },
            {
              "pitch": 59,
              "velocity": 54,
              "position": 3.1041666666666665,
              "duration": 2.8854166666666665
            }
          ]
        },
        "4": {
          "ctab": {
            "srcChannel": 4,
            "name": "gtr25",
            "accType": "CHORD1",
            "editable": false,
            "mutedNotes": [],
            "mutedChords": [],
            "autoStart": false,
            "sourceChordNote": 0,
            "sourceChordType": "min7(11)",
            "ctb2Low": null,
            "ctb2Main": {
              "ntr": "ROOT_FIXED",
              "ntt": "CHORD",
              "bassOn": false,
              "chordRootUpperLimit": 7,
              "noteLowLimit": 38,
              "noteHighLimit": 127,
              "rtr": "PITCH_SHIFT"
            },
            "ctb2High": null
          },
          "notes": [
            {
              "pitch": 41,
              "velocity": 96,
              "position": 0,
              "duration": 0.9895833333333334
            },
            {
              "pitch": 46,
              "velocity": 103,
              "position": 0,
              "duration": 0.9895833333333334
            },
            {
              "pitch": 51,
              "velocity": 107,
              "position": 0.010416666666666666,
              "duration": 0.9791666666666666
            },
            {
              "pitch": 41,
              "velocity": 78,
              "position": 1,
              "duration": 0.9895833333333334
            },
            {
              "pitch": 46,
              "velocity": 85,
              "position": 1,
              "duration": 0.9895833333333334
            },
            {
              "pitch": 51,
              "velocity": 88,
              "position": 1.0104166666666667,
              "duration": 0.9895833333333334
            },
            {
              "pitch": 41,
              "velocity": 82,
              "position": 2,
              "duration": 0.65625
            },
            {
              "pitch": 46,
              "velocity": 90,
              "position": 2,
              "duration": 0.65625
            },
            {
              "pitch": 46,
              "velocity": 70,
              "position": 2.6666666666666665,
              "duration": 0.3229166666666667
            },
            {
              "pitch": 46,
              "velocity": 103,
              "position": 3,
              "duration": 2.9895833333333335
            },
            {
              "pitch": 51,
              "velocity": 107,
              "position": 3.0104166666666665,
              "duration": 2.9791666666666665
            }
          ]
        },
        "5": {
          "ctab": {
            "srcChannel": 5,
            "name": "epi 04",
            "accType": "CHORD2",
            "editable": false,
            "mutedNotes": [],
            "mutedChords": [],
            "autoStart": false,
            "sourceChordNote": 0,
            "sourceChordType": "Maj7",
            "ctb2Low": null,
            "ctb2Main": {
              "ntr": "ROOT_FIXED",
              "ntt": "CHORD",
              "bassOn": false,
              "chordRootUpperLimit": 7,
              "noteLowLimit": 24,
              "noteHighLimit": 127,
              "rtr": "PITCH_SHIFT"
            },
            "ctb2High": null
          },
          "notes": [
            {
              "pitch": 71,
              "velocity": 69,
              "position": 0,
              "duration": 0.8229166666666666
            },
            {
              "pitch": 67,
              "velocity": 62,
              "position": 0,
              "duration": 0.90625
            },
            {
              "pitch": 64,
              "velocity": 62,
              "position": 0,
              "duration": 0.9895833333333334
            },
            {
              "pitch": 67,
              "velocity": 69,
              "position": 1,
              "duration": 0.8229166666666666
            },
            {
              "pitch": 64,
              "velocity": 62,
              "position": 1,
              "duration": 0.90625
            },
            {
              "pitch": 59,
              "velocity": 62,
              "position": 1,
              "duration": 0.9895833333333334
            },
            {
              "pitch": 64,
              "velocity": 69,
              "position": 2,
              "duration": 0.8229166666666666
            },
            {
              "pitch": 59,
              "velocity": 62,
              "position": 2,
              "duration": 0.90625
            },
            {
              "pitch": 55,
              "velocity": 62,
              "position": 2,
              "duration": 0.9895833333333334
            },
            {
              "pitch": 52,
              "velocity": 62,
              "position": 3,
              "duration": 2.9791666666666665
            },
            {
              "pitch": 55,
              "velocity": 62,
              "position": 3,
              "duration": 2.9791666666666665
            },
            {
              "pitch": 59,
              "velocity": 69,
              "position": 3,
              "duration": 2.9791666666666665
            }
          ]
        },
        "6": {
          "ctab": {
            "srcChannel": 6,
            "name": "strg",
            "accType": "PAD",
            "editable": false,
            "mutedNotes": [],
            "mutedChords": [],
            "autoStart": false,
            "sourceChordNote": 0,
            "sourceChordType": "Maj7",
            "ctb2Low": null,
            "ctb2Main": {
              "ntr": "ROOT_FIXED",
              "ntt": "CHORD",
              "bassOn": false,
              "chordRootUpperLimit": 7,
              "noteLowLimit": 24,
              "noteHighLimit": 127,
              "rtr": "PITCH_SHIFT"
            },
            "ctb2High": null
          },
          "notes": [
            {
              "pitch": 59,
              "velocity": 39,
              "position": 0.010416666666666666,
              "duration": 2.9791666666666665
            },
            {
              "pitch": 64,
              "velocity": 39,
              "position": 0.010416666666666666,
              "duration": 2.9791666666666665
            },
            {
              "pitch": 67,
              "velocity": 39,
              "position": 0.010416666666666666,
              "duration": 2.9791666666666665
            },
            {
              "pitch": 59,
              "velocity": 39,
              "position": 3,
              "duration": 2.9791666666666665
            },
            {
              "pitch": 64,
              "velocity": 39,
              "position": 3,
              "duration": 2.9791666666666665
            },
            {
              "pitch": 67,
              "velocity": 39,
              "position": 3,
              "duration": 2.9791666666666665
            }
          ]
        },
        "7": {
          "ctab": {
            "srcChannel": 7,
            "name": "gtr root",
            "accType": "CHORD1",
            "editable": false,
            "mutedNotes": [],
            "mutedChords": [
              "1+2+5",
              "sus4",
              "1+5",
              "1+8",
              "Maj7aug",
              "dim",
              "minMaj7(9)",
              "minMaj7",
              "min6",
              "min",
              "aug",
              "Maj7(9)",
              "Maj7#11",
              "Maj7",
              "Maj6",
              "Maj"
            ],
            "autoStart": false,
            "sourceChordNote": 0,
            "sourceChordType": "Maj7",
            "ctb2Low": null,
            "ctb2Main": {
              "ntr": "ROOT_TRANSPOSITION",
              "ntt": "CHORD",
              "bassOn": false,
              "chordRootUpperLimit": 6,
              "noteLowLimit": 0,
              "noteHighLimit": 127,
              "rtr": "PITCH_SHIFT"
            },
            "ctb2High": null
          },
          "notes": [
            {
              "pitch": 48,
              "velocity": 103,
              "position": 0,
              "duration": 0.9895833333333334
            },
            {
              "pitch": 48,
              "velocity": 85,
              "position": 1,
              "duration": 0.9895833333333334
            },
            {
              "pitch": 48,
              "velocity": 90,
              "position": 2,
              "duration": 0.65625
            },
            {
              "pitch": 48,
              "velocity": 70,
              "position": 2.6666666666666665,
              "duration": 0.3229166666666667
            },
            {
              "pitch": 48,
              "velocity": 103,
              "position": 3,
              "duration": 2.9895833333333335
            }
          ]
        },
        "8": {
          "ctab": {
            "srcChannel": 8,
            "name": "add-dr",
            "accType": "SUBRHYTHM",
            "editable": false,
            "mutedNotes": [],
            "mutedChords": [],
            "autoStart": true,
            "sourceChordNote": 0,
            "sourceChordType": "Maj7",
            "ctb2Low": null,
            "ctb2Main": {
              "ntr": "ROOT_FIXED",
              "ntt": "BYPASS",
              "bassOn": false,
              "chordRootUpperLimit": 7,
              "noteLowLimit": 0,
              "noteHighLimit": 127,
              "rtr": "PITCH_SHIFT"
            },
            "ctb2High": null
          },
          "notes": [
            {
              "pitch": 81,
              "velocity": 45,
              "position": 0,
              "duration": 0.010416666666666666
            },
            {
              "pitch": 81,
              "velocity": 40,
              "position": 1,
              "duration": 0.010416666666666666
            },
            {
              "pitch": 81,
              "velocity": 40,
              "position": 2,
              "duration": 0.010416666666666666
            },
            {
              "pitch": 54,
              "velocity": 68,
              "position": 2.0208333333333335,
              "duration": 0.010416666666666666
            },
            {
              "pitch": 80,
              "velocity": 33,
              "position": 2.3333333333333335,
              "duration": 0.010416666666666666
            },
            {
              "pitch": 80,
              "velocity": 31,
              "position": 2.6666666666666665,
              "duration": 0.010416666666666666
            },
            {
              "pitch": 81,
              "velocity": 45,
              "position": 3,
              "duration": 0.010416666666666666
            }
          ]
        },
        "9": {
          "ctab": {
            "srcChannel": 9,
            "name": "m-drums",
            "accType": "RHYTHM",
            "editable": false,
            "mutedNotes": [],
            "mutedChords": [],
            "autoStart": true,
            "sourceChordNote": 0,
            "sourceChordType": "Maj7",
            "ctb2Low": null,
            "ctb2Main": {
              "ntr": "ROOT_FIXED",
              "ntt": "BYPASS",
              "bassOn": false,
              "chordRootUpperLimit": 7,
              "noteLowLimit": 0,
              "noteHighLimit": 127,
              "rtr": "PITCH_SHIFT"
            },
            "ctb2High": null
          },
          "notes": [
            {
              "pitch": 46,
              "velocity": 33,
              "position": 0,
              "duration": 0.010416666666666666
            },
            {
              "pitch": 35,
              "velocity": 91,
              "position": 0,
              "duration": 0.03125
            },
            {
              "pitch": 40,
              "velocity": 38,
              "position": 0.3333333333333333,
              "duration": 0.010416666666666666
            },
            {
              "pitch": 40,
              "velocity": 26,
              "position": 0.6666666666666666,
              "duration": 0.010416666666666666
            },
            {
              "pitch": 44,
              "velocity": 34,
              "position": 1.0104166666666667,
              "duration": 0.041666666666666664
            },
            {
              "pitch": 40,
              "velocity": 46,
              "position": 1.3333333333333333,
              "duration": 0.010416666666666666
            },
            {
              "pitch": 35,
              "velocity": 68,
              "position": 1.6666666666666667,
              "duration": 0.010416666666666666
            },
            {
              "pitch": 40,
              "velocity": 29,
              "position": 1.6666666666666667,
              "duration": 0.010416666666666666
            },
            {
              "pitch": 48,
              "velocity": 44,
              "position": 1.9791666666666667,
              "duration": 0.010416666666666666
            },
            {
              "pitch": 44,
              "velocity": 34,
              "position": 2,
              "duration": 0.010416666666666666
            },
            {
              "pitch": 35,
              "velocity": 91,
              "position": 2,
              "duration": 0.03125
            },
            {
              "pitch": 48,
              "velocity": 48,
              "position": 2.03125,
              "duration": 0.010416666666666666
            },
            {
              "pitch": 45,
              "velocity": 36,
              "position": 2.3333333333333335,
              "duration": 0.010416666666666666
            },
            {
              "pitch": 43,
              "velocity": 36,
              "position": 2.6666666666666665,
              "duration": 0.010416666666666666
            },
            {
              "pitch": 35,
              "velocity": 84,
              "position": 3,
              "duration": 0.03125
            },
            {
              "pitch": 49,
              "velocity": 36,
              "position": 3,
              "duration": 0.041666666666666664
            }
          ]
        },
        "12": {
          "ctab": {
            "srcChannel": 12,
            "name": "bass",
            "accType": "BASS",
            "editable": false,
            "mutedNotes": [],
            "mutedChords": [],
            "autoStart": false,
            "sourceChordNote": 0,
            "sourceChordType": "Maj7",
            "ctb2Low": null,
            "ctb2Main": {
              "ntr": "ROOT_TRANSPOSITION",
              "ntt": "MELODY",
              "bassOn": true,
              "chordRootUpperLimit": 8,
              "noteLowLimit": 28,
              "noteHighLimit": 127,
              "rtr": "PITCH_SHIFT_TO_ROOT"
            },
            "ctb2High": null
          },
          "notes": [
            {
              "pitch": 24,
              "velocity": 94,
              "position": 0,
              "duration": 1
            },
            {
              "pitch": 24,
              "velocity": 80,
              "position": 1.6666666666666667,
              "duration": 0.3229166666666667
            },
            {
              "pitch": 31,
              "velocity": 94,
              "position": 2,
              "duration": 0.9895833333333334
            },
            {
              "pitch": 24,
              "velocity": 89,
              "position": 3,
              "duration": 2.9895833333333335
            }
          ]
        }
      }
    }
  }
}