{
  "name": "!ModPickin!.T151.STY",
  "tempo": 96,
  "timeSignature": "4/4",
  "ticksPerQuarter": 1920,
  "sffType": "SFF2",
  "division": "BINARY",
  "parts": {
    "Main_A": {
      "type": "Main_A",
      "sizeInBeats": 16,
      "channels": {
        "2": {
          "ctab": {
            "srcChannel": 2,
            "name": "GtBass",
            "accType": "CHORD1",
            "editable": false,
            "mutedNotes": [],
            "mutedChords": [],
            "autoStart": false,
            "sourceChordNote": 0,
            "sourceChordType": "Maj7",
            "ctb2Low": null,
            "ctb2Main": {
              "ntr": "ROOT_TRANSPOSITION",
              "ntt": "MELODY",
              "bassOn": true,
              "chordRootUpperLimit": 8,
              "noteLowLimit": 40,
              "noteHighLimit": 127,
              "rtr": "PITCH_SHIFT_TO_ROOT"
            },
            "ctb2High": null,
            "ctb2MiddleLowPitch": 0,
            "ctb2MiddleHighPitch": 127
          },
          "notes": [
            {
              "pitch": 36,
              "velocity": 40,
              "position": 0,
              "duration": 0.7416666666666667
            },
            {
              "pitch": 43,
              "velocity": 22,
              "position": 1,
              "duration": 0.7416666666666667
            },
            {
              "pitch": 36,
              "velocity": 32,
              "position": 2,
              "duration": 0.7416666666666667
            },
            {
              "pitch": 43,
              "velocity": 22,
              "position": 3,
              "duration": 0.7416666666666667
            },
            {
              "pitch": 36,
              "velocity": 32,
              "position": 4,
              "duration": 0.7416666666666667
            },
            {
              "pitch": 43,
              "velocity": 22,
              "position": 5,
              "duration": 0.7416666666666667
            },
            {
              "pitch": 36,
              "velocity": 32,
              "position": 6,
              "duration": 0.7416666666666667
            },
            {
              "pitch": 43,
              "velocity": 22,
              "position": 7,
              "duration": 0.7416666666666667
            },
            {
              "pitch": 36,
              "velocity": 40,
              "position": 8,
              "duration": 0.7416666666666667
            },
            {
              "pitch": 43,
              "velocity": 22,
              "position": 9,
              "duration": 0.7416666666666667
            },
            {
              "pitch": 36,
              "velocity": 32,
              "position": 10,
              "duration": 0.7416666666666667
            },
            {
              "pitch": 43,
              "velocity": 22,
              "position": 11,
              "duration": 0.7416666666666667
            },
            {
              "pitch": 36,
              "velocity": 32,
              "position": 12,
              "duration": 0.7416666666666667
            },
            {
              "pitch": 43,
              "velocity": 22,
              "position": 13,
              "duration": 0.7416666666666667
            },
            {
              "pitch": 36,
              "velocity": 32,
              "position": 14,
              "duration": 0.7416666666666667
            },
            {
              "pitch": 43,
              "velocity": 22,
              "position": 15,
              "duration": 0.7395833333333334
            }
          ]
        },
        "3": {
          "ctab": {
            "srcChannel": 3,
            "name": "GtBass",
            "accType": "CHORD2",
            "editable": false,
            "mutedNotes": [],
            "mutedChords": [],
            "autoStart": false,
            "sourceChordNote": 0,
            "sourceChordType": "Maj7",
            "ctb2Low": null,
            "ctb2Main": {
              "ntr": "ROOT_TRANSPOSITION",
              "ntt": "MELODY",
              "bassOn": true,
              "chordRootUpperLimit": 8,
              "noteLowLimit": 40,
              "noteHighLimit": 127,
              "rtr": "PITCH_SHIFT_TO_ROOT"
            },
            "ctb2High": null,
            "ctb2MiddleLowPitch": 0,
            "ctb2MiddleHighPitch": 127
          },
          "notes": [
            {
              "pitch": 36,
              "velocity": 39,
              "position": 0,
              "duration": 0.7416666666666667
            },
            {
              "pitch": 43,
              "velocity": 21,
              "position": 1,
              "duration": 0.7416666666666667
            },
            {
              "pitch": 36,
              "velocity": 31,
              "position": 2,
              "duration": 0.7416666666666667
            },
            {
              "pitch": 43,
              "velocity": 21,
              "position": 3,
              "duration": 0.7416666666666667
            },
            {
              "pitch": 36,
              "velocity": 31,
              "position": 4,
              "duration": 0.7416666666666667
            },
            {
              "pitch": 43,
              "velocity": 21,
              "position": 5,
              "duration": 0.7416666666666667
            },
            {
              "pitch": 36,
              "velocity": 31,
              "position": 6,
              "duration": 0.7416666666666667
            },
            {
              "pitch": 43,
              "velocity": 21,
              "position": 7,
              "duration": 0.7416666666666667
            },
            {
              "pitch": 36,
              "velocity": 39,
              "position": 8,
              "duration": 0.7416666666666667
            },
            {
              "pitch": 43,
              "velocity": 21,
              "position": 9,
              "duration": 0.7416666666666667
            },
            {
              "pitch": 36,
              "velocity": 31,
              "position": 10,
              "duration": 0.7416666666666667
            },
            {
              "pitch": 43,
              "velocity": 21,
              "position": 11,
              "duration": 0.7416666666666667
            },
            {
              "pitch": 36,
              "velocity": 31,
              "position": 12,
              "duration": 0.7416666666666667
            },
            {
              "pitch": 43,
              "velocity": 21,
              "position": 13,
              "duration": 0.7416666666666667
            },
            {
              "pitch": 36,
              "velocity": 31,
              "position": 14,
              "duration": 0.7416666666666667
            },
            {
              "pitch": 43,
              "velocity": 21,
              "position": 15,
              "duration": 0.7395833333333334
            }
          ]
        },
        "5": {
          "ctab": {
            "srcChannel": 5,
            "name": "GtBass",
            "accType": "PHRASE1",
            "editable": false,
            "mutedNotes": [],
            "mutedChords": [],
            "autoStart": false,
            "sourceChordNote": 0,
            "sourceChordType": "Maj7",
            "ctb2Low": null,
            "ctb2Main": {
              "ntr": "ROOT_TRANSPOSITION",
              "ntt": "MELODY",
              "bassOn": true,
              "chordRootUpperLimit": 8,
              "noteLowLimit": 40,
              "noteHighLimit": 127,
              "rtr": "PITCH_SHIFT_TO_ROOT"
            },
            "ctb2High": null,
            "ctb2MiddleLowPitch": 0,
            "ctb2MiddleHighPitch": 127
          },
          "notes": [
            {
              "pitch": 36,
              "velocity": 81,
              "position": 0,
              "duration": 0.7416666666666667
            },
            {
              "pitch": 43,
              "velocity": 44,
              "position": 1,
              "duration": 0.7416666666666667
            },
            {
              "pitch": 36,
              "velocity": 64,
              "position": 2,
              "duration": 0.7416666666666667
            },
            {
              "pitch": 43,
              "velocity": 44,
              "position": 3,
              "duration": 0.7416666666666667
            },
            {
              "pitch": 36,
              "velocity": 64,
              "position": 4,
              "duration": 0.7416666666666667
            },
            {
              "pitch": 43,
              "velocity": 44,
              "position": 5,
              "duration": 0.7416666666666667
            },
            {
              "pitch": 36,
              "velocity": 64,
              "position": 6,
              "duration": 0.7416666666666667
            },
            {
              "pitch": 43,
              "velocity": 44,
              "position": 7,
              "duration": 0.7416666666666667
            },
            {
              "pitch": 36,
              "velocity": 81,
              "position": 8,
              "duration": 0.7416666666666667
            },
            {
              "pitch": 43,
              "velocity": 44,
              "position": 9,
              "duration": 0.7416666666666667
            },
            {
              "pitch": 36,
              "velocity": 64,
              "position": 10,
              "duration": 0.7416666666666667
            },
            {
              "pitch": 43,
              "velocity": 44,
              "position": 11,
              "duration": 0.7416666666666667
            },
            {
              "pitch": 36,
              "velocity": 64,
              "position": 12,
              "duration": 0.7416666666666667
            },
            {
              "pitch": 43,
              "velocity": 44,
              "position": 13,
              "duration": 0.7416666666666667
            },
            {
              "pitch": 36,
              "velocity": 64,
              "position": 14,
              "duration": 0.7416666666666667
            },
            {
              "pitch": 43,
              "velocity": 44,
              "position": 15,
              "duration": 0.7395833333333334
            }
          ]
        },
        "11": {
          "ctab": {
            "srcChannel": 11,
            "name": "Tele",
            "accType": "CHORD1",
            "editable": false,
            "mutedNotes": [],
            "mutedChords": [],
            "autoStart": false,
            "sourceChordNote": 0,
            "sourceChordType": "Maj7",
            "ctb2Low": null,
            "ctb2Main": {
              "ntr": "GUITAR",
              "ntt": "ARPEGGIO",
              "bassOn": false,
              "chordRootUpperLimit": 7,
              "noteLowLimit": 0,
              "noteHighLimit": 79,
              "rtr": "PITCH_SHIFT"
            },
            "ctb2High": null,
            "ctb2MiddleLowPitch": 0,
            "ctb2MiddleHighPitch": 127
          },
          "notes": [
            {
              "pitch": 57,
              "velocity": 10,
              "position": 0.25,
              "duration": 0.9916666666666667
            },
            {
              "pitch": 53,
              "velocity": 30,
              "position": 0.5,
              "duration": 0.9916666666666667
            },
            {
              "pitch": 59,
              "velocity": 40,
              "position": 0,
              "duration": 1.7416666666666667
            },
            {
              "pitch": 53,
              "velocity": 20,
              "position": 1.5,
              "duration": 0.9916666666666667
            },
            {
              "pitch": 55,
              "velocity": 40,
              "position": 0.75,
              "duration": 1.9916666666666667
            },
            {
              "pitch": 59,
              "velocity": 20,
              "position": 1.75,
              "duration": 1.4916666666666667
            },
            {
              "pitch": 53,
              "velocity": 30,
              "position": 2.5,
              "duration": 0.9916666666666667
            },
            {
              "pitch": 57,
              "velocity": 30,
              "position": 1.25,
              "duration": 2.4916666666666667
            },
            {
              "pitch": 126,
              "velocity": 40,
              "position": 3.5,
              "duration": 0.24166666666666667
            },
            {
              "pitch": 53,
              "velocity": 40,
              "position": 3.5,
              "duration": 0.49166666666666664
            },
            {
              "pitch": 55,
              "velocity": 30,
              "position": 2.75,
              "duration": 1.2416666666666667
            },
            {
              "pitch": 59,
              "velocity": 30,
              "position": 3.25,
              "duration": 0.7416666666666667
            },
            {
              "pitch": 55,
              "velocity": 10,
              "position": 4.25,
              "duration": 0.49166666666666664
            },
            {
              "pitch": 57,
              "velocity": 21,
              "position": 3.75,
              "duration": 1.4916666666666667
            },
            {
              "pitch": 53,
              "velocity": 30,
              "position": 4.5,
              "duration": 0.9916666666666667
            },
            {
              "pitch": 53,
              "velocity": 20,
              "position": 5.5,
              "duration": 0.9916666666666667
            },
            {
              "pitch": 57,
              "velocity": 30,
              "position": 5.25,
              "duration": 1.4916666666666667
            },
            {
              "pitch": 55,
              "velocity": 40,
              "position": 4.75,
              "duration": 2.4916666666666667
            },
            {
              "pitch": 53,
              "velocity": 30,
              "position": 6.5,
              "duration": 0.9916666666666667
            },
            {
              "pitch": 59,
              "velocity": 20,
              "position": 5.75,
              "duration": 1.9916666666666667
            },
            {
              "pitch": 123,
              "velocity": 51,
              "position": 7.5,
              "duration": 0.24166666666666667
            },
            {
              "pitch": 53,
              "velocity": 40,
              "position": 7.5,
              "duration": 0.49166666666666664
            },
            {
              "pitch": 57,
              "velocity": 30,
              "position": 6.75,
              "duration": 1.2416666666666667
            },
            {
              "pitch": 55,
              "velocity": 30,
              "position": 7.25,
              "duration": 0.7416666666666667
            },
            {
              "pitch": 57,
              "velocity": 10,
              "position": 8.25,
              "duration": 0.9916666666666667
            },
            {
              "pitch": 53,
              "velocity": 30,
              "position": 8.5,
              "duration": 0.9916666666666667
            },
            {
              "pitch": 59,
              "velocity": 41,
              "position": 7.75,
              "duration": 1.9916666666666667
            },
            {
              "pitch": 53,
              "velocity": 20,
              "position": 9.5,
              "duration": 0.9916666666666667
            },
            {
              "pitch": 55,
              "velocity": 40,
              "position": 8.75,
              "duration": 1.9916666666666667
            },
            {
              "pitch": 59,
              "velocity": 20,
              "position": 9.75,
              "duration": 1.4916666666666667
            },
            {
              "pitch": 53,
              "velocity": 30,
              "position": 10.5,
              "duration": 0.9916666666666667
            },
            {
              "pitch": 57,
              "velocity": 30,
              "position": 9.25,
              "duration": 2.4916666666666667
            },
            {
              "pitch": 127,
              "velocity": 40,
              "position": 11.5,
              "duration": 0.24166666666666667
            },
            {
              "pitch": 53,
              "velocity": 40,
              "position": 11.5,
              "duration": 0.49166666666666664
            },
            {
              "pitch": 55,
              "velocity": 30,
              "position": 10.75,
              "duration": 1.2416666666666667
            },
            {
              "pitch": 59,
              "velocity": 30,
              "position": 11.25,
              "duration": 0.7416666666666667
            },
            {
              "pitch": 55,
              "velocity": 10,
              "position": 12.25,
              "duration": 0.49166666666666664
            },
            {
              "pitch": 57,
              "velocity": 21,
              "position": 11.75,
              "duration": 1.4916666666666667
            },
            {
              "pitch": 53,
              "velocity": 30,
              "position": 12.5,
              "duration": 0.9916666666666667
            },
            {
              "pitch": 53,
              "velocity": 20,
              "position": 13.5,
              "duration": 0.9916666666666667
            },
            {
              "pitch": 55,
              "velocity": 40,
              "position": 12.75,
              "duration": 1.9916666666666667
            },
            {
              "pitch": 57,
              "velocity": 30,
              "position": 13.25,
              "duration": 1.9916666666666667
            },
            {
              "pitch": 53,
              "velocity": 30,
              "position": 14.5,
              "duration": 0.9916666666666667
            },
            {
              "pitch": 55,
              "velocity": 30,
              "position": 14.75,
              "duration": 0.9916666666666667
            },
            {
              "pitch": 124,
              "velocity": 40,
              "position": 15.5,
              "duration": 0.24166666666666667
            },
            {
              "pitch": 53,
              "velocity": 40,
              "position": 15.5,
              "duration": 0.4895833333333333
            },
            {
              "pitch": 55,
              "velocity": 10,
              "position": 15.75,
              "duration": 0.23958333333333334
            },
            {
              "pitch": 59,
              "velocity": 20,
              "position": 13.75,
              "duration": 2.2395833333333335
            },
            {
              "pitch": 57,
              "velocity": 30,
              "position": 15.25,
              "duration": 0.7395833333333334
            }
          ]
        },
        "12": {
          "ctab": {
            "srcChannel": 12,
            "name": "Steel",
            "accType": "CHORD2",
            "editable": false,
            "mutedNotes": [],
            "mutedChords": [],
            "autoStart": false,
            "sourceChordNote": 0,
            "sourceChordType": "Maj7",
            "ctb2Low": null,
            "ctb2Main": {
              "ntr": "GUITAR",
              "ntt": "ARPEGGIO",
              "bassOn": false,
              "chordRootUpperLimit": 7,
              "noteLowLimit": 0,
              "noteHighLimit": 127,
              "rtr": "PITCH_SHIFT"
            },
            "ctb2High": null,
            "ctb2MiddleLowPitch": 0,
            "ctb2MiddleHighPitch": 127
          },
          "notes": [
            {
              "pitch": 53,
              "velocity": 9,
              "position": 0.5,
              "duration": 0.9916666666666667
            },
            {
              "pitch": 57,
              "velocity": 39,
              "position": 0.75,
              "duration": 0.9916666666666667
            },
            {
              "pitch": 53,
              "velocity": 19,
              "position": 1.5,
              "duration": 0.9916666666666667
            },
            {
              "pitch": 57,
              "velocity": 19,
              "position": 1.75,
              "duration": 0.9916666666666667
            },
            {
              "pitch": 55,
              "velocity": 29,
              "position": 1.25,
              "duration": 1.9916666666666667
            },
            {
              "pitch": 53,
              "velocity": 29,
              "position": 2.5,
              "duration": 0.9916666666666667
            },
            {
              "pitch": 57,
              "velocity": 29,
              "position": 2.75,
              "duration": 0.9916666666666667
            },
            {
              "pitch": 53,
              "velocity": 39,
              "position": 3.5,
              "duration": 0.49166666666666664
            },
            {
              "pitch": 57,
              "velocity": 19,
              "position": 3.75,
              "duration": 0.24166666666666667
            },
            {
              "pitch": 59,
              "velocity": 40,
              "position": 0,
              "duration": 3.9916666666666667
            },
            {
              "pitch": 55,
              "velocity": 29,
              "position": 3.25,
              "duration": 0.7416666666666667
            },
            {
              "pitch": 53,
              "velocity": 19,
              "position": 4.5,
              "duration": 0.9916666666666667
            },
            {
              "pitch": 57,
              "velocity": 35,
              "position": 4.75,
              "duration": 0.9916666666666667
            },
            {
              "pitch": 53,
              "velocity": 29,
              "position": 5.5,
              "duration": 0.9916666666666667
            },
            {
              "pitch": 57,
              "velocity": 19,
              "position": 5.75,
              "duration": 0.9916666666666667
            },
            {
              "pitch": 55,
              "velocity": 29,
              "position": 5.25,
              "duration": 1.9916666666666667
            },
            {
              "pitch": 53,
              "velocity": 39,
              "position": 6.5,
              "duration": 0.9916666666666667
            },
            {
              "pitch": 57,
              "velocity": 29,
              "position": 6.75,
              "duration": 0.9916666666666667
            },
            {
              "pitch": 53,
              "velocity": 39,
              "position": 7.5,
              "duration": 0.49166666666666664
            },
            {
              "pitch": 57,
              "velocity": 19,
              "position": 7.75,
              "duration": 0.24166666666666667
            },
            {
              "pitch": 59,
              "velocity": 20,
              "position": 4,
              "duration": 3.9916666666666667
            },
            {
              "pitch": 55,
              "velocity": 29,
              "position": 7.25,
              "duration": 0.7416666666666667
            },
            {
              "pitch": 53,
              "velocity": 9,
              "position": 8.5,
              "duration": 0.9916666666666667
            },
            {
              "pitch": 57,
              "velocity": 36,
              "position": 8.75,
              "duration": 0.9916666666666667
            },
            {
              "pitch": 53,
              "velocity": 19,
              "position": 9.5,
              "duration": 0.9916666666666667
            },
            {
              "pitch": 57,
              "velocity": 19,
              "position": 9.75,
              "duration": 0.9916666666666667
            },
            {
              "pitch": 55,
              "velocity": 29,
              "position": 9.25,
              "duration": 1.9916666666666667
            },
            {
              "pitch": 53,
              "velocity": 29,
              "position": 10.5,
              "duration": 0.9916666666666667
            },
            {
              "pitch": 57,
              "velocity": 39,
              "position": 10.75,
              "duration": 0.9916666666666667
            },
            {
              "pitch": 53,
              "velocity": 39,
              "position": 11.5,
              "duration": 0.49166666666666664
            },
            {
              "pitch": 57,
              "velocity": 19,
              "position": 11.75,
              "duration": 0.24166666666666667
            },
            {
              "pitch": 59,
              "velocity": 40,
              "position": 8,
              "duration": 3.9916666666666667
            },
            {
              "pitch": 55,
              "velocity": 29,
              "position": 11.25,
              "duration": 0.7416666666666667
            },
            {
              "pitch": 53,
              "velocity": 19,
              "position": 12.5,
              "duration": 0.9916666666666667
            },
            {
              "pitch": 57,
              "velocity": 35,
              "position": 12.75,
              "duration": 0.9916666666666667
            },
            {
              "pitch": 53,
              "velocity": 29,
              "position": 13.5,
              "duration": 0.9916666666666667
            },
            {
              "pitch": 57,
              "velocity": 19,
              "position": 13.75,
              "duration": 0.9916666666666667
            },
            {
              "pitch": 55,
              "velocity": 29,
              "position": 13.25,
              "duration": 1.9916666666666667
            },
            {
              "pitch": 53,
              "velocity": 19,
              "position": 14.5,
              "duration": 0.9916666666666667
            },
            {
              "pitch": 57,
              "velocity": 40,
              "position": 14.75,
              "duration": 0.9916666666666667
            },
            {
              "pitch": 53,
              "velocity": 39,
              "position": 15.5,
              "duration": 0.4895833333333333
            },
            {
              "pitch": 57,
              "velocity": 19,
              "position": 15.75,
              "duration": 0.23958333333333334
            },
            {
              "pitch": 59,
              "velocity": 20,
              "position": 12,
              "duration": 3.9895833333333335
            },
            {
              "pitch": 55,
              "velocity": 29,
              "position": 15.25,
              "duration": 0.7395833333333334
            }
          ]
        },
        "14": {
          "ctab": {
            "srcChannel": 14,
            "name": "HiStr",
            "accType": "PHRASE1",
            "editable": false,
            "mutedNotes": [],
            "mutedChords": [],
            "autoStart": false,
            "sourceChordNote": 0,
            "sourceChordType": "Maj7",
            "ctb2Low": null,
            "ctb2Main": {
              "ntr": "GUITAR",
              "ntt": "ARPEGGIO",
              "bassOn": false,
              "chordRootUpperLimit": 7,
              "noteLowLimit": 0,
              "noteHighLimit": 127,
              "rtr": "PITCH_SHIFT"
            },
            "ctb2High": null,
            "ctb2MiddleLowPitch": 0,
            "ctb2MiddleHighPitch": 127
          },
          "notes": [
            {
              "pitch": 69,
              "velocity": 19,
              "position": 0.25,
              "duration": 0.9916666666666667
            },
            {
              "pitch": 65,
              "velocity": 61,
              "position": 0.5,
              "duration": 0.9916666666666667
            },
            {
              "pitch": 71,
              "velocity": 82,
              "position": 0,
              "duration": 1.7416666666666667
            },
            {
              "pitch": 65,
              "velocity": 39,
              "position": 1.5,
              "duration": 0.9916666666666667
            },
            {
              "pitch": 67,
              "velocity": 81,
              "position": 0.75,
              "duration": 1.9916666666666667
            },
            {
              "pitch": 71,
              "velocity": 39,
              "position": 1.75,
              "duration": 1.4916666666666667
            },
            {
              "pitch": 65,
              "velocity": 61,
              "position": 2.5,
              "duration": 0.9916666666666667
            },
            {
              "pitch": 69,
              "velocity": 61,
              "position": 1.25,
              "duration": 2.4916666666666667
            },
            {
              "pitch": 65,
              "velocity": 81,
              "position": 3.5,
              "duration": 0.49166666666666664
            },
            {
              "pitch": 67,
              "velocity": 61,
              "position": 2.75,
              "duration": 1.2416666666666667
            },
            {
              "pitch": 71,
              "velocity": 61,
              "position": 3.25,
              "duration": 0.7416666666666667
            },
            {
              "pitch": 67,
              "velocity": 19,
              "position": 4.25,
              "duration": 0.49166666666666664
            },
            {
              "pitch": 69,
              "velocity": 43,
              "position": 3.75,
              "duration": 1.4916666666666667
            },
            {
              "pitch": 65,
              "velocity": 61,
              "position": 4.5,
              "duration": 0.9916666666666667
            },
            {
              "pitch": 65,
              "velocity": 39,
              "position": 5.5,
              "duration": 0.9916666666666667
            },
            {
              "pitch": 69,
              "velocity": 61,
              "position": 5.25,
              "duration": 1.4916666666666667
            },
            {
              "pitch": 67,
              "velocity": 81,
              "position": 4.75,
              "duration": 2.4916666666666667
            },
            {
              "pitch": 65,
              "velocity": 61,
              "position": 6.5,
              "duration": 0.9916666666666667
            },
            {
              "pitch": 71,
              "velocity": 39,
              "position": 5.75,
              "duration": 1.9916666666666667
            },
            {
              "pitch": 65,
              "velocity": 81,
              "position": 7.5,
              "duration": 0.49166666666666664
            },
            {
              "pitch": 69,
              "velocity": 61,
              "position": 6.75,
              "duration": 1.2416666666666667
            },
            {
              "pitch": 67,
              "velocity": 61,
              "position": 7.25,
              "duration": 0.7416666666666667
            },
            {
              "pitch": 69,
              "velocity": 19,
              "position": 8.25,
              "duration": 0.9916666666666667
            },
            {
              "pitch": 65,
              "velocity": 61,
              "position": 8.5,
              "duration": 0.9916666666666667
            },
            {
              "pitch": 71,
              "velocity": 82,
              "position": 7.75,
              "duration": 1.9916666666666667
            },
            {
              "pitch": 65,
              "velocity": 39,
              "position": 9.5,
              "duration": 0.9916666666666667
            },
            {
              "pitch": 67,
              "velocity": 81,
              "position": 8.75,
              "duration": 1.9916666666666667
            },
            {
              "pitch": 71,
              "velocity": 39,
              "position": 9.75,
              "duration": 1.4916666666666667
            },
            {
              "pitch": 65,
              "velocity": 61,
              "position": 10.5,
              "duration": 0.9916666666666667
            },
            {
              "pitch": 69,
              "velocity": 61,
              "position": 9.25,
              "duration": 2.4916666666666667
            },
            {
              "pitch": 65,
              "velocity": 81,
              "position": 11.5,
              "duration": 0.49166666666666664
            },
            {
              "pitch": 67,
              "velocity": 61,
              "position": 10.75,
              "duration": 1.2416666666666667
            },
            {
              "pitch": 71,
              "velocity": 61,
              "position": 11.25,
              "duration": 0.7416666666666667
            },
            {
              "pitch": 67,
              "velocity": 19,
              "position": 12.25,
              "duration": 0.49166666666666664
            },
            {
              "pitch": 69,
              "velocity": 43,
              "position": 11.75,
              "duration": 1.4916666666666667
            },
            {
              "pitch": 65,
              "velocity": 61,
              "position": 12.5,
              "duration": 0.9916666666666667
            },
            {
              "pitch": 65,
              "velocity": 39,
              "position": 13.5,
              "duration": 0.9916666666666667
            },
            {
              "pitch": 67,
              "velocity": 81,
              "position": 12.75,
              "duration": 1.9916666666666667
            },
            {
              "pitch": 69,
              "velocity": 61,
              "position": 13.25,
              "duration": 1.9916666666666667
            },
            {
              "pitch": 65,
              "velocity": 61,
              "position": 14.5,
              "duration": 0.9916666666666667
            },
            {
              "pitch": 67,
              "velocity": 61,
              "position": 14.75,
              "duration": 0.9916666666666667
            },
            {
              "pitch": 65,
              "velocity": 81,
              "position": 15.5,
              "duration": 0.4895833333333333
            },
            {
              "pitch": 67,
              "velocity": 19,
              "position": 15.75,
              "duration": 0.23958333333333334
            },
            {
              "pitch": 71,
              "velocity": 39,
              "position": 13.75,
              "duration": 2.2395833333333335
            },
            {
              "pitch": 69,
              "velocity": 61,
              "position": 15.25,
              "duration": 0.7395833333333334
            }
          ]
        }
      }
    },
    "Main_B": {
      "type": "Main_B",
      "sizeInBeats": 16,
      "channels": {
        "2": {
          "ctab": {
            "srcChannel": 2,
            "name": "GtBass",
            "accType": "CHORD1",
            "editable": false,
            "mutedNotes": [],
            "mutedChords": [],
            "autoStart": false,
            "sourceChordNote": 0,
            "sourceChordType": "Maj7",
            "ctb2Low": null,
            "ctb2Main": {
              "ntr": "ROOT_TRANSPOSITION",
              "ntt": "MELODY",
              "bassOn": true,
              "chordRootUpperLimit": 8,
              "noteLowLimit": 40,
              "noteHighLimit": 127,
              "rtr": "PITCH_SHIFT_TO_ROOT"
            },
            "ctb2High": null,
            "ctb2MiddleLowPitch": 0,
            "ctb2MiddleHighPitch": 127
          },
          "notes": [
            {
              "pitch": 36,
              "velocity": 40,
              "position": 0,
              "duration": 0.7416666666666667
            },
            {
              "pitch": 43,
              "velocity": 22,
              "position": 1,
              "duration": 0.7416666666666667
            },
            {
              "pitch": 36,
              "velocity": 32,
              "position": 2,
              "duration": 0.7416666666666667
            },
            {
              "pitch": 43,
              "velocity": 22,
              "position": 3,
              "duration": 0.7416666666666667
            },
            {
              "pitch": 36,
              "velocity": 32,
              "position": 4,
              "duration": 0.7416666666666667
            },
            {
              "pitch": 43,
              "velocity": 22,
              "position": 5,
              "duration": 0.7416666666666667
            },
            {
              "pitch": 36,
              "velocity": 32,
              "position": 6,
              "duration": 0.7416666666666667
            },
            {
              "pitch": 43,
              "velocity": 22,
              "position": 7,
              "duration": 0.7416666666666667
            },
            {
              "pitch": 36,
              "velocity": 40,
              "position": 8,
              "duration": 0.7416666666666667
            },
            {
              "pitch": 43,
              "velocity": 22,
              "position": 9,
              "duration": 0.7416666666666667
            },
            {
              "pitch": 36,
              "velocity": 32,
              "position": 10,
              "duration": 0.7416666666666667
            },
            {
              "pitch": 43,
              "velocity": 22,
              "position": 11,
              "duration": 0.7416666666666667
            },
            {
              "pitch": 36,
              "velocity": 32,
              "position": 12,
              "duration": 0.7416666666666667
            },
            {
              "pitch": 43,
              "velocity": 22,
              "position": 13,
              "duration": 0.7416666666666667
            },
            {
              "pitch": 36,
              "velocity": 32,
              "position": 14,
              "duration": 0.7416666666666667
            },
            {
              "pitch": 43,
              "velocity": 22,
              "position": 15,
              "duration": 0.7395833333333334
            }
          ]
        },
        "3": {
          "ctab": {
            "srcChannel": 3,
            "name": "GtBass",
            "accType": "CHORD2",
            "editable": false,
            "mutedNotes": [],
            "mutedChords": [],
            "autoStart": false,
            "sourceChordNote": 0,
            "sourceChordType": "Maj7",
            "ctb2Low": null,
            "ctb2Main": {
              "ntr": "ROOT_TRANSPOSITION",
              "ntt": "MELODY",
              "bassOn": true,
              "chordRootUpperLimit": 8,
              "noteLowLimit": 40,
              "noteHighLimit": 127,
              "rtr": "PITCH_SHIFT_TO_ROOT"
            },
            "ctb2High": null,
            "ctb2MiddleLowPitch": 0,
            "ctb2MiddleHighPitch": 127
          },
          "notes": [
            {
              "pitch": 36,
              "velocity": 39,
              "position": 0,
              "duration": 0.7416666666666667
            },
            {
              "pitch": 43,
              "velocity": 21,
              "position": 1,
              "duration": 0.7416666666666667
            },
            {
              "pitch": 36,
              "velocity": 31,
              "position": 2,
              "duration": 0.7416666666666667
            },
            {
              "pitch": 43,
              "velocity": 21,
              "position": 3,
              "duration": 0.7416666666666667
            },
            {
              "pitch": 36,
              "velocity": 31,
              "position": 4,
              "duration": 0.7416666666666667
            },
            {
              "pitch": 43,
              "velocity": 21,
              "position": 5,
              "duration": 0.7416666666666667
            },
            {
              "pitch": 36,
              "velocity": 31,
              "position": 6,
              "duration": 0.7416666666666667
            },
            {
              "pitch": 43,
              "velocity": 21,
              "position": 7,
              "duration": 0.7416666666666667
            },
            {
              "pitch": 36,
              "velocity": 39,
              "position": 8,
              "duration": 0.7416666666666667
            },
            {
              "pitch": 43,
              "velocity": 21,
              "position": 9,
              "duration": 0.7416666666666667
            },
            {
              "pitch": 36,
              "velocity": 31,
              "position": 10,
              "duration": 0.7416666666666667
            },
            {
              "pitch": 43,
              "velocity": 21,
              "position": 11,
              "duration": 0.7416666666666667
            },
            {
              "pitch": 36,
              "velocity": 31,
              "position": 12,
              "duration": 0.7416666666666667
            },
            {
              "pitch": 43,
              "velocity": 21,
              "position": 13,
              "duration": 0.7416666666666667
            },
            {
              "pitch": 36,
              "velocity": 31,
              "position": 14,
              "duration": 0.7416666666666667
            },
            {
              "pitch": 43,
              "velocity": 21,
              "position": 15,
              "duration": 0.7395833333333334
            }
          ]
        },
        "5": {
          "ctab": {
            "srcChannel": 5,
            "name": "GtBass",
            "accType": "PHRASE1",
            "editable": false,
            "mutedNotes": [],
            "mutedChords": [],
            "autoStart": false,
            "sourceChordNote": 0,
            "sourceChordType": "Maj7",
            "ctb2Low": null,
            "ctb2Main": {
              "ntr": "ROOT_TRANSPOSITION",
              "ntt": "MELODY",
              "bassOn": true,
              "chordRootUpperLimit": 8,
              "noteLowLimit": 40,
              "noteHighLimit": 127,
              "rtr": "PITCH_SHIFT_TO_ROOT"
            },
            "ctb2High": null,
            "ctb2MiddleLowPitch": 0,
            "ctb2MiddleHighPitch": 127
          },
          "notes": [
            {
              "pitch": 36,
              "velocity": 81,
              "position": 0,
              "duration": 0.7416666666666667
            },
            {
              "pitch": 43,
              "velocity": 44,
              "position": 1,
              "duration": 0.7416666666666667
            },
            {
              "pitch": 36,
              "velocity": 64,
              "position": 2,
              "duration": 0.7416666666666667
            },
            {
              "pitch": 43,
              "velocity": 44,
              "position": 3,
              "duration": 0.7416666666666667
            },
            {
              "pitch": 36,
              "velocity": 64,
              "position": 4,
              "duration": 0.7416666666666667
            },
            {
              "pitch": 43,
              "velocity": 44,
              "position": 5,
              "duration": 0.7416666666666667
            },
            {
              "pitch": 36,
              "velocity": 64,
              "position": 6,
              "duration": 0.7416666666666667
            },
            {
              "pitch": 43,
              "velocity": 44,
              "position": 7,
              "duration": 0.7416666666666667
            },
            {
              "pitch": 36,
              "velocity": 81,
              "position": 8,
              "duration": 0.7416666666666667
            },
            {
              "pitch": 43,
              "velocity": 44,
              "position": 9,
              "duration": 0.7416666666666667
            },
            {
              "pitch": 36,
              "velocity": 64,
              "position": 10,
              "duration": 0.7416666666666667
            },
            {
              "pitch": 43,
              "velocity": 44,
              "position": 11,
              "duration": 0.7416666666666667
            },
            {
              "pitch": 36,
              "velocity": 64,
              "position": 12,
              "duration": 0.7416666666666667
            },
            {
              "pitch": 43,
              "velocity": 44,
              "position": 13,
              "duration": 0.7416666666666667
            },
            {
              "pitch": 36,
              "velocity": 64,
              "position": 14,
              "duration": 0.7416666666666667
            },
            {
              "pitch": 43,
              "velocity": 44,
              "position": 15,
              "duration": 0.7395833333333334
            }
          ]
        },
        "8": {
          "ctab": {
            "srcChannel": 8,
            "name": "Prc",
            "accType": "SUBRHYTHM",
            "editable": true,
            "mutedNotes": [],
            "mutedChords": [],
            "autoStart": true,
            "sourceChordNote": 0,
            "sourceChordType": "Maj7",
            "ctb2Low": null,
            "ctb2Main": {
              "ntr": "ROOT_FIXED",
              "ntt": "BYPASS",
              "bassOn": false,
              "chordRootUpperLimit": 6,
              "noteLowLimit": 0,
              "noteHighLimit": 127,
              "rtr": "PITCH_SHIFT"
            },
            "ctb2High": null,
            "ctb2MiddleLowPitch": 0,
            "ctb2MiddleHighPitch": 127
          },
          "notes": [
            {
              "pitch": 68,
              "velocity": 40,
              "position": 1,
              "duration": 0.004166666666666667
            },
            {
              "pitch": 68,
              "velocity": 40,
              "position": 3,
              "duration": 0.004166666666666667
            },
            {
              "pitch": 68,
              "velocity": 40,
              "position": 5,
              "duration": 0.004166666666666667
            },
            {
              "pitch": 68,
              "velocity": 40,
              "position": 7,
              "duration": 0.004166666666666667
            },
            {
              "pitch": 68,
              "velocity": 40,
              "position": 9,
              "duration": 0.004166666666666667
            },
            {
              "pitch": 68,
              "velocity": 40,
              "position": 11,
              "duration": 0.004166666666666667
            },
            {
              "pitch": 68,
              "velocity": 40,
              "position": 13,
              "duration": 0.004166666666666667
            },
            {
              "pitch": 68,
              "velocity": 40,
              "position": 15,
              "duration": 0.004166666666666667
            }
          ]
        },
        "9": {
          "ctab": {
            "srcChannel": 9,
            "name": "Drs",
            "accType": "RHYTHM",
            "editable": true,
            "mutedNotes": [],
            "mutedChords": [],
            "autoStart": true,
            "sourceChordNote": 0,
            "sourceChordType": "Maj7",
            "ctb2Low": null,
            "ctb2Main": {
              "ntr": "ROOT_FIXED",
              "ntt": "BYPASS",
              "bassOn": false,
              "chordRootUpperLimit": 6,
              "noteLowLimit": 0,
              "noteHighLimit": 127,
              "rtr": "PITCH_SHIFT"
            },
            "ctb2High": null,
            "ctb2MiddleLowPitch": 0,
            "ctb2MiddleHighPitch": 127
          },
          "notes": [
            {
              "pitch": 33,
              "velocity": 68,
              "position": 0,
              "duration": 0.004166666666666667
            },
            {
              "pitch": 51,
              "velocity": 70,
              "position": 0,
              "duration": 0.004166666666666667
            },
            {
              "pitch": 38,
              "velocity": 110,
              "position": 0.5,
              "duration": 0.004166666666666667
            },
            {
              "pitch": 51,
              "velocity": 50,
              "position": 0.5,
              "duration": 0.004166666666666667
            },
            {
              "pitch": 44,
              "velocity": 52,
              "position": 0.5,
              "duration": 0.004166666666666667
            },
            {
              "pitch": 38,
              "velocity": 57,
              "position": 0.75,
              "duration": 0.004166666666666667
            },
            {
              "pitch": 33,
              "velocity": 68,
              "position": 1,
              "duration": 0.004166666666666667
            },
            {
              "pitch": 51,
              "velocity": 70,
              "position": 1,
              "duration": 0.004166666666666667
            },
            {
              "pitch": 38,
              "velocity": 110,
              "position": 1.5,
              "duration": 0.004166666666666667
            },
            {
              "pitch": 51,
              "velocity": 50,
              "position": 1.5,
              "duration": 0.004166666666666667
            },
            {
              "pitch": 44,
              "velocity": 52,
              "position": 1.5,
              "duration": 0.004166666666666667
            },
            {
              "pitch": 38,
              "velocity": 57,
              "position": 1.75,
              "duration": 0.004166666666666667
            },
            {
              "pitch": 33,
              "velocity": 68,
              "position": 2,
              "duration": 0.004166666666666667
            },
            {
              "pitch": 51,
              "velocity": 70,
              "position": 2,
              "duration": 0.004166666666666667
            },
            {
              "pitch": 38,
              "velocity": 110,
              "position": 2.5,
              "duration": 0.004166666666666667
            },
            {
              "pitch": 51,
              "velocity": 50,
              "position": 2.5,
              "duration": 0.004166666666666667
            },
            {
              "pitch": 44,
              "velocity": 52,
              "position": 2.5,
              "duration": 0.004166666666666667
            },
            {
              "pitch": 38,
              "velocity": 57,
              "position": 2.75,
              "duration": 0.004166666666666667
            },
            {
              "pitch": 33,
              "velocity": 68,
              "position": 3,
              "duration": 0.004166666666666667
            },
            {
              "pitch": 51,
              "velocity": 70,
              "position": 3,
              "duration": 0.004166666666666667
            },
            {
              "pitch": 38,
              "velocity": 110,
              "position": 3.5,
              "duration": 0.004166666666666667
            },
            {
              "pitch": 51,
              "velocity": 50,
              "position": 3.5,
              "duration": 0.004166666666666667
            },
            {
              "pitch": 44,
              "velocity": 52,
              "position": 3.5,
              "duration": 0.004166666666666667
            },
            {
              "pitch": 38,
              "velocity": 57,
              "position": 3.75,
              "duration": 0.004166666666666667
            },
            {
              "pitch": 33,
              "velocity": 68,
              "position": 4,
              "duration": 0.004166666666666667
            },
            {
              "pitch": 51,
              "velocity": 70,
              "position": 4,
              "duration": 0.004166666666666667
            },
            {
              "pitch": 38,
              "velocity": 110,
              "position": 4.5,
              "duration": 0.004166666666666667
            },
            {
              "pitch": 51,
              "velocity": 50,
              "position": 4.5,
              "duration": 0.004166666666666667
            },
            {
              "pitch": 44,
              "velocity": 52,
              "position": 4.5,
              "duration": 0.004166666666666667
            },
            {
              "pitch": 38,
              "velocity": 57,
              "position": 4.75,
              "duration": 0.004166666666666667
            },
            {
              "pitch": 33,
              "velocity": 68,
              "position": 5,
              "duration": 0.004166666666666667
            },
            {
              "pitch": 51,
              "velocity": 70,
              "position": 5,
              "duration": 0.004166666666666667
            },
            {
              "pitch": 38,
              "velocity": 110,
              "position": 5.5,
              "duration": 0.004166666666666667
            },
            {
              "pitch": 51,
              "velocity": 50,
              "position": 5.5,
              "duration": 0.004166666666666667
            },
            {
              "pitch": 44,
              "velocity": 52,
              "position": 5.5,
              "duration": 0.004166666666666667
            },
            {
              "pitch": 38,
              "velocity": 57,
              "position": 5.75,
              "duration": 0.004166666666666667
            },
            {
              "pitch": 33,
              "velocity": 68,
              "position": 6,
              "duration": 0.004166666666666667
            },
            {
              "pitch": 51,
              "velocity": 70,
              "position": 6,
              "duration": 0.004166666666666667
            },
            {
              "pitch": 38,
              "velocity": 110,
              "position": 6.5,
              "duration": 0.004166666666666667
            },
            {
              "pitch": 51,
              "velocity": 50,
              "position": 6.5,
              "duration": 0.004166666666666667
            },
            {
              "pitch": 44,
              "velocity": 52,
              "position": 6.5,
              "duration": 0.004166666666666667
            },
            {
              "pitch": 38,
              "velocity": 57,
              "position": 6.75,
              "duration": 0.004166666666666667
            },
            {
              "pitch": 33,
              "velocity": 68,
              "position": 7,
              "duration": 0.004166666666666667
            },
            {
              "pitch": 51,
              "velocity": 70,
              "position": 7,
              "duration": 0.004166666666666667
            },
            {
              "pitch": 38,
              "velocity": 110,
              "position": 7.5,
              "duration": 0.004166666666666667
            },
            {
              "pitch": 51,
              "velocity": 50,
              "position": 7.5,
              "duration": 0.004166666666666667
            },
            {
              "pitch": 44,
              "velocity": 52,
              "position": 7.5,
              "duration": 0.004166666666666667
            },
            {
              "pitch": 38,
              "velocity": 57,
              "position": 7.75,
              "duration": 0.004166666666666667
            },
            {
              "pitch": 33,
              "velocity": 68,
              "position": 8,
              "duration": 0.004166666666666667
            },
            {
              "pitch": 51,
              "velocity": 70,
              "position": 8,
              "duration": 0.004166666666666667
            },
            {
              "pitch": 38,
              "velocity": 110,
              "position": 8.5,
              "duration": 0.004166666666666667
            },
            {
              "pitch": 51,
              "velocity": 50,
              "position": 8.5,
              "duration": 0.004166666666666667
            },
            {
              "pitch": 44,
              "velocity": 52,
              "position": 8.5,
              "duration": 0.004166666666666667
            },
            {
              "pitch": 38,
              "velocity": 57,
              "position": 8.75,
              "duration": 0.004166666666666667
            },
            {
              "pitch": 33,
              "velocity": 68,
              "position": 9,
              "duration": 0.004166666666666667
            },
            {
              "pitch": 51,
              "velocity": 70,
              "position": 9,
              "duration": 0.004166666666666667
            },
            {
              "pitch": 38,
              "velocity": 110,
              "position": 9.5,
              "duration": 0.004166666666666667
            },
            {
              "pitch": 51,
              "velocity": 50,
              "position": 9.5,
              "duration": 0.004166666666666667
            },
            {
              "pitch": 44,
              "velocity": 52,
              "position": 9.5,
              "duration": 0.004166666666666667
            },
            {
              "pitch": 38,
              "velocity": 57,
              "position": 9.75,
              "duration": 0.004166666666666667
            },
            {
              "pitch": 33,
              "velocity": 68,
              "position": 10,
              "duration": 0.004166666666666667
            },
            {
              "pitch": 51,
              "velocity": 70,
              "position": 10,
              "duration": 0.004166666666666667
            },
            {
              "pitch": 38,
              "velocity": 110,
              "position": 10.5,
              "duration": 0.004166666666666667
            },
            {
              "pitch": 51,
              "velocity": 50,
              "position": 10.5,
              "duration": 0.004166666666666667
            },
            {
              "pitch": 44,
              "velocity": 52,
              "position": 10.5,
              "duration": 0.004166666666666667
            },
            {
              "pitch": 38,
              "velocity": 57,
              "position": 10.75,
              "duration": 0.004166666666666667
            },
            {
              "pitch": 33,
              "velocity": 68,
              "position": 11,
              "duration": 0.004166666666666667
            },
            {
              "pitch": 51,
              "velocity": 70,
              "position": 11,
              "duration": 0.004166666666666667
            },
            {
              "pitch": 38,
              "velocity": 110,
              "position": 11.5,
              "duration": 0.004166666666666667
            },
            {
              "pitch": 51,
              "velocity": 50,
              "position": 11.5,
              "duration": 0.004166666666666667
            },
            {
              "pitch": 44,
              "velocity": 52,
              "position": 11.5,
              "duration": 0.004166666666666667
            },
            {
              "pitch": 38,
              "velocity": 57,
              "position": 11.75,
              "duration": 0.004166666666666667
            },
            {
              "pitch": 33,
              "velocity": 68,
              "position": 12,
              "duration": 0.004166666666666667
            },
            {
              "pitch": 51,
              "velocity": 70,
              "position": 12,
              "duration": 0.004166666666666667
            },
            {
              "pitch": 38,
              "velocity": 110,
              "position": 12.5,
              "duration": 0.004166666666666667
            },
            {
              "pitch": 51,
              "velocity": 50,
              "position": 12.5,
              "duration": 0.004166666666666667
            },
            {
              "pitch": 44,
              "velocity": 52,
              "position": 12.5,
              "duration": 0.004166666666666667
            },
            {
              "pitch": 38,
              "velocity": 57,
              "position": 12.75,
              "duration": 0.004166666666666667
            },
            {
              "pitch": 33,
              "velocity": 68,
              "position": 13,
              "duration": 0.004166666666666667
            },
            {
              "pitch": 51,
              "velocity": 70,
              "position": 13,
              "duration": 0.004166666666666667
            },
            {
              "pitch": 38,
              "velocity": 110,
              "position": 13.5,
              "duration": 0.004166666666666667
            },
            {
              "pitch": 51,
              "velocity": 50,
              "position": 13.5,
              "duration": 0.004166666666666667
            },
            {
              "pitch": 44,
              "velocity": 52,
              "position": 13.5,
              "duration": 0.004166666666666667
            },
            {
              "pitch": 38,
              "velocity": 57,
              "position": 13.75,
              "duration": 0.004166666666666667
            },
            {
              "pitch": 33,
              "velocity": 68,
              "position": 14,
              "duration": 0.004166666666666667
            },
            {
              "pitch": 51,
              "velocity": 70,
              "position": 14,
              "duration": 0.004166666666666667
            },
            {
              "pitch": 38,
              "velocity": 110,
              "position": 14.5,
              "duration": 0.004166666666666667
            },
            {
              "pitch": 51,
              "velocity": 50,
              "position": 14.5,
              "duration": 0.004166666666666667
            },
            {
              "pitch": 44,
              "velocity": 52,
              "position": 14.5,
              "duration": 0.004166666666666667
            },
            {
              "pitch": 38,
              "velocity": 57,
              "position": 14.75,
              "duration": 0.004166666666666667
            },
            {
              "pitch": 33,
              "velocity": 68,
              "position": 15,
              "duration": 0.004166666666666667
            },
            {
              "pitch": 51,
              "velocity": 70,
              "position": 15,
              "duration": 0.004166666666666667
            },
            {
              "pitch": 38,
              "velocity": 110,
              "position": 15.5,
              "duration": 0.004166666666666667
            },
            {
              "pitch": 51,
              "velocity": 50,
              "position": 15.5,
              "duration": 0.004166666666666667
            },
            {
              "pitch": 44,
              "velocity": 52,
              "position": 15.5,
              "duration": 0.004166666666666667
            },
            {
              "pitch": 38,
              "velocity": 57,
              "position": 15.75,
              "duration": 0.004166666666666667
            }
          ]
        },
        "10": {
          "ctab": {
            "srcChannel": 10,
            "name": "Bs",
            "accType": "BASS",
            "editable": false,
            "mutedNotes": [],
            "mutedChords": [],
            "autoStart": false,
            "sourceChordNote": 0,
            "sourceChordType": "Maj7",
            "ctb2Low": null,
            "ctb2Main": {
              "ntr": "ROOT_TRANSPOSITION",
              "ntt": "MELODY",
              "bassOn": true,
              "chordRootUpperLimit": 8,
              "noteLowLimit": 28,
              "noteHighLimit": 127,
              "rtr": "PITCH_SHIFT_TO_ROOT"
            },
            "ctb2High": null,
            "ctb2MiddleLowPitch": 0,
            "ctb2MiddleHighPitch": 127
          },
          "notes": [
            {
              "pitch": 24,
              "velocity": 50,
              "position": 0,
              "duration": 0.8875
            },
            {
              "pitch": 31,
              "velocity": 50,
              "position": 1,
              "duration": 0.8875
            },
            {
              "pitch": 24,
              "velocity": 50,
              "position": 2,
              "duration": 0.8875
            },
            {
              "pitch": 31,
              "velocity": 50,
              "position": 3,
              "duration": 0.8875
            },
            {
              "pitch": 24,
              "velocity": 50,
              "position": 4,
              "duration": 0.8875
            },
            {
              "pitch": 31,
              "velocity": 50,
              "position": 5,
              "duration": 0.8875
            },
            {
              "pitch": 24,
              "velocity": 50,
              "position": 6,
              "duration": 0.8875
            },
            {
              "pitch": 31,
              "velocity": 50,
              "position": 7,
              "duration": 0.8875
            },
            {
              "pitch": 24,
              "velocity": 50,
              "position": 8,
              "duration": 0.8875
            },
            {
              "pitch": 31,
              "velocity": 50,
              "position": 9,
              "duration": 0.8875
            },
            {
              "pitch": 24,
              "velocity": 50,
              "position": 10,
              "duration": 0.8875
            },
            {
              "pitch": 31,
              "velocity": 50,
              "position": 11,
              "duration": 0.8875
            },
            {
              "pitch": 24,
              "velocity": 50,
              "position": 12,
              "duration": 0.8875
            },
            {
              "pitch": 31,
              "velocity": 50,
              "position": 13,
              "duration": 0.8875
            },
            {
              "pitch": 24,
              "velocity": 50,
              "position": 14,
              "duration": 0.8875
            },
            {
              "pitch": 31,
              "velocity": 50,
              "position": 15,
              "duration": 0.8875
            }
          ]
        },
        "11": {
          "ctab": {
            "srcChannel": 11,
            "name": "Tele",
            "accType": "CHORD1",
            "editable": false,
            "mutedNotes": [],
            "mutedChords": [],
            "autoStart": false,
            "sourceChordNote": 0,
            "sourceChordType": "Maj7",
            "ctb2Low": null,
            "ctb2Main": {
              "ntr": "GUITAR",
              "ntt": "ARPEGGIO",
              "bassOn": false,
              "chordRootUpperLimit": 7,
              "noteLowLimit": 0,
              "noteHighLimit": 79,
              "rtr": "PITCH_SHIFT"
            },
            "ctb2High": null,
            "ctb2MiddleLowPitch": 0,
            "ctb2MiddleHighPitch": 127
          },
          "notes": [
            {
              "pitch": 57,
              "velocity": 10,
              "position": 0.25,
              "duration": 0.9916666666666667
            },
            {
              "pitch": 53,
              "velocity": 30,
              "position": 0.5,
              "duration": 0.9916666666666667
            },
            {
              "pitch": 59,
              "velocity": 40,
              "position": 0,
              "duration": 1.7416666666666667
            },
            {
              "pitch": 53,
              "velocity": 20,
              "position": 1.5,
              "duration": 0.9916666666666667
            },
            {
              "pitch": 55,
              "velocity": 40,
              "position": 0.75,
              "duration": 1.9916666666666667
            },
            {
              "pitch": 59,
              "velocity": 20,
              "position": 1.75,
              "duration": 1.4916666666666667
            },
            {
              "pitch": 53,
              "velocity": 30,
              "position": 2.5,
              "duration": 0.9916666666666667
            },
            {
              "pitch": 57,
              "velocity": 30,
              "position": 1.25,
              "duration": 2.4916666666666667
            },
            {
              "pitch": 126,
              "velocity": 40,
              "position": 3.5,
              "duration": 0.24166666666666667
            },
            {
              "pitch": 53,
              "velocity": 40,
              "position": 3.5,
              "duration": 0.49166666666666664
            },
            {
              "pitch": 55,
              "velocity": 30,
              "position": 2.75,
              "duration": 1.2416666666666667
            },
            {
              "pitch": 59,
              "velocity": 30,
              "position": 3.25,
              "duration": 0.7416666666666667
            },
            {
              "pitch": 55,
              "velocity": 10,
              "position": 4.25,
              "duration": 0.49166666666666664
            },
            {
              "pitch": 57,
              "velocity": 21,
              "position": 3.75,
              "duration": 1.4916666666666667
            },
            {
              "pitch": 53,
              "velocity": 30,
              "position": 4.5,
              "duration": 0.9916666666666667
            },
            {
              "pitch": 53,
              "velocity": 20,
              "position": 5.5,
              "duration": 0.9916666666666667
            },
            {
              "pitch": 57,
              "velocity": 30,
              "position": 5.25,
              "duration": 1.4916666666666667
            },
            {
              "pitch": 55,
              "velocity": 40,
              "position": 4.75,
              "duration": 2.4916666666666667
            },
            {
              "pitch": 53,
              "velocity": 30,
              "position": 6.5,
              "duration": 0.9916666666666667
            },
            {
              "pitch": 59,
              "velocity": 20,
              "position": 5.75,
              "duration": 1.9916666666666667
            },
            {
              "pitch": 123,
              "velocity": 51,
              "position": 7.5,
              "duration": 0.24166666666666667
            },
            {
              "pitch": 53,
              "velocity": 40,
              "position": 7.5,
              "duration": 0.49166666666666664
            },
            {
              "pitch": 57,
              "velocity": 30,
              "position": 6.75,
              "duration": 1.2416666666666667
            },
            {
              "pitch": 55,
              "velocity": 30,
              "position": 7.25,
              "duration": 0.7416666666666667
            },
            {
              "pitch": 57,
              "velocity": 10,
              "position": 8.25,
              "duration": 0.9916666666666667
            },
            {
              "pitch": 53,
              "velocity": 30,
              "position": 8.5,
              "duration": 0.9916666666666667
            },
            {
              "pitch": 59,
              "velocity": 41,
              "position": 7.75,
              "duration": 1.9916666666666667
            },
            {
              "pitch": 53,
              "velocity": 20,
              "position": 9.5,
              "duration": 0.9916666666666667
            },
            {
              "pitch": 55,
              "velocity": 40,
              "position": 8.75,
              "duration": 1.9916666666666667
            },
            {
              "pitch": 59,
              "velocity": 20,
              "position": 9.75,
              "duration": 1.4916666666666667
            },
            {
              "pitch": 53,
              "velocity": 30,
              "position": 10.5,
              "duration": 0.9916666666666667
            },
            {
              "pitch": 57,
              "velocity": 30,
              "position": 9.25,
              "duration": 2.4916666666666667
            },
            {
              "pitch": 127,
              "velocity": 40,
              "position": 11.5,
              "duration": 0.24166666666666667
            },
            {
              "pitch": 53,
              "velocity": 40,
              "position": 11.5,
              "duration": 0.49166666666666664
            },
            {
              "pitch": 55,
              "velocity": 30,
              "position": 10.75,
              "duration": 1.2416666666666667
            },
            {
              "pitch": 59,
              "velocity": 30,
              "position": 11.25,
              "duration": 0.7416666666666667
            },
            {
              "pitch": 55,
              "velocity": 10,
              "position": 12.25,
              "duration": 0.49166666666666664
            },
            {
              "pitch": 57,
              "velocity": 21,
              "position": 11.75,
              "duration": 1.4916666666666667
            },
            {
              "pitch": 53,
              "velocity": 30,
              "position": 12.5,
              "duration": 0.9916666666666667
            },
            {
              "pitch": 53,
              "velocity": 20,
              "position": 13.5,
              "duration": 0.9916666666666667
            },
            {
              "pitch": 55,
              "velocity": 40,
              "position": 12.75,
              "duration": 1.9916666666666667
            },
            {
              "pitch": 57,
              "velocity": 30,
              "position": 13.25,
              "duration": 1.9916666666666667
            },
            {
              "pitch": 53,
              "velocity": 30,
              "position": 14.5,
              "duration": 0.9916666666666667
            },
            {
              "pitch": 55,
              "velocity": 30,
              "position": 14.75,
              "duration": 0.9916666666666667
            },
            {
              "pitch": 124,
              "velocity": 40,
              "position": 15.5,
              "duration": 0.24166666666666667
            },
            {
              "pitch": 53,
              "velocity": 40,
              "position": 15.5,
              "duration": 0.4895833333333333
            },
            {
              "pitch": 55,
              "velocity": 10,
              "position": 15.75,
              "duration": 0.23958333333333334
            },
            {
              "pitch": 59,
              "velocity": 20,
              "position": 13.75,
              "duration": 2.2395833333333335
            },
            {
              "pitch": 57,
              "velocity": 30,
              "position": 15.25,
              "duration": 0.7395833333333334
            }
          ]
        },
        "12": {
          "ctab": {
            "srcChannel": 12,
            "name": "Steel",
            "accType": "CHORD2",
            "editable": false,
            "mutedNotes": [],
            "mutedChords": [],
            "autoStart": false,
            "sourceChordNote": 0,
            "sourceChordType": "Maj7",
            "ctb2Low": null,
            "ctb2Main": {
              "ntr": "GUITAR",
              "ntt": "ARPEGGIO",
              "bassOn": false,
              "chordRootUpperLimit": 7,
              "noteLowLimit": 0,
              "noteHighLimit": 127,
              "rtr": "PITCH_SHIFT"
            },
            "ctb2High": null,
            "ctb2MiddleLowPitch": 0,
            "ctb2MiddleHighPitch": 127
          },
          "notes": [
            {
              "pitch": 53,
              "velocity": 9,
              "position": 0.5,
              "duration": 0.9916666666666667
            },
            {
              "pitch": 57,
              "velocity": 39,
              "position": 0.75,
              "duration": 0.9916666666666667
            },
            {
              "pitch": 53,
              "velocity": 19,
              "position": 1.5,
              "duration": 0.9916666666666667
            },
            {
              "pitch": 57,
              "velocity": 19,
              "position": 1.75,
              "duration": 0.9916666666666667
            },
            {
              "pitch": 55,
              "velocity": 29,
              "position": 1.25,
              "duration": 1.9916666666666667
            },
            {
              "pitch": 53,
              "velocity": 29,
              "position": 2.5,
              "duration": 0.9916666666666667
            },
            {
              "pitch": 57,
              "velocity": 29,
              "position": 2.75,
              "duration": 0.9916666666666667
            },
            {
              "pitch": 53,
              "velocity": 39,
              "position": 3.5,
              "duration": 0.49166666666666664
            },
            {
              "pitch": 57,
              "velocity": 19,
              "position": 3.75,
              "duration": 0.24166666666666667
            },
            {
              "pitch": 59,
              "velocity": 40,
              "position": 0,
              "duration": 3.9916666666666667
            },
            {
              "pitch": 55,
              "velocity": 29,
              "position": 3.25,
              "duration": 0.7416666666666667
            },
            {
              "pitch": 53,
              "velocity": 19,
              "position": 4.5,
              "duration": 0.9916666666666667
            },
            {
              "pitch": 57,
              "velocity": 35,
              "position": 4.75,
              "duration": 0.9916666666666667
            },
            {
              "pitch": 53,
              "velocity": 29,
              "position": 5.5,
              "duration": 0.9916666666666667
            },
            {
              "pitch": 57,
              "velocity": 19,
              "position": 5.75,
              "duration": 0.9916666666666667
            },
            {
              "pitch": 55,
              "velocity": 29,
              "position": 5.25,
              "duration": 1.9916666666666667
            },
            {
              "pitch": 53,
              "velocity": 39,
              "position": 6.5,
              "duration": 0.9916666666666667
            },
            {
              "pitch": 57,
              "velocity": 29,
              "position": 6.75,
              "duration": 0.9916666666666667
            },
            {
              "pitch": 53,
              "velocity": 39,
              "position": 7.5,
              "duration": 0.49166666666666664
            },
            {
              "pitch": 57,
              "velocity": 19,
              "position": 7.75,
              "duration": 0.24166666666666667
            },
            {
              "pitch": 59,
              "velocity": 20,
              "position": 4,
              "duration": 3.9916666666666667
            },
            {
              "pitch": 55,
              "velocity": 29,
              "position": 7.25,
              "duration": 0.7416666666666667
            },
            {
              "pitch": 53,
              "velocity": 9,
              "position": 8.5,
              "duration": 0.9916666666666667
            },
            {
              "pitch": 57,
              "velocity": 36,
              "position": 8.75,
              "duration": 0.9916666666666667
            },
            {
              "pitch": 53,
              "velocity": 19,
              "position": 9.5,
              "duration": 0.9916666666666667
            },
            {
              "pitch": 57,
              "velocity": 19,
              "position": 9.75,
              "duration": 0.9916666666666667
            },
            {
              "pitch": 55,
              "velocity": 29,
              "position": 9.25,
              "duration": 1.9916666666666667
            },
            {
              "pitch": 53,
              "velocity": 29,
              "position": 10.5,
              "duration": 0.9916666666666667
            },
            {
              "pitch": 57,
              "velocity": 39,
              "position": 10.75,
              "duration": 0.9916666666666667
            },
            {
              "pitch": 53,
              "velocity": 39,
              "position": 11.5,
              "duration": 0.49166666666666664
            },
            {
              "pitch": 57,
              "velocity": 19,
              "position": 11.75,
              "duration": 0.24166666666666667
            },
            {
              "pitch": 59,
              "velocity": 40,
              "position": 8,
              "duration": 3.9916666666666667
            },
            {
              "pitch": 55,
              "velocity": 29,
              "position": 11.25,
              "duration": 0.7416666666666667
            },
            {
              "pitch": 53,
              "velocity": 19,
              "position": 12.5,
              "duration": 0.9916666666666667
            },
            {
              "pitch": 57,
              "velocity": 35,
              "position": 12.75,
              "duration": 0.9916666666666667
            },
            {
              "pitch": 53,
              "velocity": 29,
              "position": 13.5,
              "duration": 0.9916666666666667
            },
            {
              "pitch": 57,
              "velocity": 19,
              "position": 13.75,
              "duration": 0.9916666666666667
            },
            {
              "pitch": 55,
              "velocity": 29,
              "position": 13.25,
              "duration": 1.9916666666666667
            },
            {
              "pitch": 53,
              "velocity": 19,
              "position": 14.5,
              "duration": 0.9916666666666667
            },
            {
              "pitch": 57,
              "velocity": 40,
              "position": 14.75,
              "duration": 0.9916666666666667
            },
            {
              "pitch": 53,
              "velocity": 39,
              "position": 15.5,
              "duration": 0.4895833333333333
            },
            {
              "pitch": 57,
              "velocity": 19,
              "position": 15.75,
              "duration": 0.23958333333333334
            },
            {
              "pitch": 59,
              "velocity": 20,
              "position": 12,
              "duration": 3.9895833333333335
            },
            {
              "pitch": 55,
              "velocity": 29,
              "position": 15.25,
              "duration": 0.7395833333333334
            }
          ]
        },
        "14": {
          "ctab": {
            "srcChannel": 14,
            "name": "HiStr",
            "accType": "PHRASE1",
            "editable": false,
            "mutedNotes": [],
            "mutedChords": [],
            "autoStart": false,
            "sourceChordNote": 0,
            "sourceChordType": "Maj7",
            "ctb2Low": null,
            "ctb2Main": {
              "ntr": "GUITAR",
              "ntt": "ARPEGGIO",
              "bassOn": false,
              "chordRootUpperLimit": 7,
              "noteLowLimit": 0,
              "noteHighLimit": 127,
              "rtr": "PITCH_SHIFT"
            },
            "ctb2High": null,
            "ctb2MiddleLowPitch": 0,
            "ctb2MiddleHighPitch": 127
          },
          "notes": [
            {
              "pitch": 69,
              "velocity": 19,
              "position": 0.25,
              "duration": 0.9916666666666667
            },
            {
              "pitch": 65,
              "velocity": 61,
              "position": 0.5,
              "duration": 0.9916666666666667
            },
            {
              "pitch": 71,
              "velocity": 82,
              "position": 0,
              "duration": 1.7416666666666667
            },
            {
              "pitch": 65,
              "velocity": 39,
              "position": 1.5,
              "duration": 0.9916666666666667
            },
            {
              "pitch": 67,
              "velocity": 81,
              "position": 0.75,
              "duration": 1.9916666666666667
            },
            {
              "pitch": 71,
              "velocity": 39,
              "position": 1.75,
              "duration": 1.4916666666666667
            },
            {
              "pitch": 65,
              "velocity": 61,
              "position": 2.5,
              "duration": 0.9916666666666667
            },
            {
              "pitch": 69,
              "velocity": 61,
              "position": 1.25,
              "duration": 2.4916666666666667
            },
            {
              "pitch": 65,
              "velocity": 81,
              "position": 3.5,
              "duration": 0.49166666666666664
            },
            {
              "pitch": 67,
              "velocity": 61,
              "position": 2.75,
              "duration": 1.2416666666666667
            },
            {
              "pitch": 71,
              "velocity": 61,
              "position": 3.25,
              "duration": 0.7416666666666667
            },
            {
              "pitch": 67,
              "velocity": 19,
              "position": 4.25,
              "duration": 0.49166666666666664
            },
            {
              "pitch": 69,
              "velocity": 43,
              "position": 3.75,
              "duration": 1.4916666666666667
            },
            {
              "pitch": 65,
              "velocity": 61,
              "position": 4.5,
              "duration": 0.9916666666666667
            },
            {
              "pitch": 65,
              "velocity": 39,
              "position": 5.5,
              "duration": 0.9916666666666667
            },
            {
              "pitch": 69,
              "velocity": 61,
              "position": 5.25,
              "duration": 1.4916666666666667
            },
            {
              "pitch": 67,
              "velocity": 81,
              "position": 4.75,
              "duration": 2.4916666666666667
            },
            {
              "pitch": 65,
              "velocity": 61,
              "position": 6.5,
              "duration": 0.9916666666666667
            },
            {
              "pitch": 71,
              "velocity": 39,
              "position": 5.75,
              "duration": 1.9916666666666667
            },
            {
              "pitch": 65,
              "velocity": 81,
              "position": 7.5,
              "duration": 0.49166666666666664
            },
            {
              "pitch": 69,
              "velocity": 61,
              "position": 6.75,
              "duration": 1.2416666666666667
            },
            {
              "pitch": 67,
              "velocity": 61,
              "position": 7.25,
              "duration": 0.7416666666666667
            },
            {
              "pitch": 69,
              "velocity": 19,
              "position": 8.25,
              "duration": 0.9916666666666667
            },
            {
              "pitch": 65,
              "velocity": 61,
              "position": 8.5,
              "duration": 0.9916666666666667
            },
            {
              "pitch": 71,
              "velocity": 82,
              "position": 7.75,
              "duration": 1.9916666666666667
            },
            {
              "pitch": 65,
              "velocity": 39,
              "position": 9.5,
              "duration": 0.9916666666666667
            },
            {
              "pitch": 67,
              "velocity": 81,
              "position": 8.75,
              "duration": 1.9916666666666667
            },
            {
              "pitch": 71,
              "velocity": 39,
              "position": 9.75,
              "duration": 1.4916666666666667
            },
            {
              "pitch": 65,
              "velocity": 61,
              "position": 10.5,
              "duration": 0.9916666666666667
            },
            {
              "pitch": 69,
              "velocity": 61,
              "position": 9.25,
              "duration": 2.4916666666666667
            },
            {
              "pitch": 65,
              "velocity": 81,
              "position": 11.5,
              "duration": 0.49166666666666664
            },
            {
              "pitch": 67,
              "velocity": 61,
              "position": 10.75,
              "duration": 1.2416666666666667
            },
            {
              "pitch": 71,
              "velocity": 61,
              "position": 11.25,
              "duration": 0.7416666666666667
            },
            {
              "pitch": 67,
              "velocity": 19,
              "position": 12.25,
              "duration": 0.49166666666666664
            },
            {
              "pitch": 69,
              "velocity": 43,
              "position": 11.75,
              "duration": 1.4916666666666667
            },
            {
              "pitch": 65,
              "velocity": 61,
              "position": 12.5,
              "duration": 0.9916666666666667
            },
            {
              "pitch": 65,
              "velocity": 39,
              "position": 13.5,
              "duration": 0.9916666666666667
            },
            {
              "pitch": 67,
              "velocity": 81,
              "position": 12.75,
              "duration": 1.9916666666666667
            },
            {
              "pitch": 69,
              "velocity": 61,
              "position": 13.25,
              "duration": 1.9916666666666667
            },
            {
              "pitch": 65,
              "velocity": 61,
              "position": 14.5,
              "duration": 0.9916666666666667
            },
            {
              "pitch": 67,
              "velocity": 61,
              "position": 14.75,
              "duration": 0.9916666666666667
            },
            {
              "pitch": 65,
              "velocity": 81,
              "position": 15.5,
              "duration": 0.4895833333333333
            },
            {
              "pitch": 67,
              "velocity": 19,
              "position": 15.75,
              "duration": 0.23958333333333334
            },
            {
              "pitch": 71,
              "velocity": 39,
              "position": 13.75,
              "duration": 2.2395833333333335
            },
            {
              "pitch": 69,
              "velocity": 61,
              "position": 15.25,
              "duration": 0.7395833333333334
            }
          ]
        }
      }
    },
    "Main_C": {
      "type": "Main_C",
      "sizeInBeats": 32,
      "channels": {
        "2": {
          "ctab": {
            "srcChannel": 2,
            "name": "GtBass",
            "accType": "CHORD1",
            "editable": false,
            "mutedNotes": [],
            "mutedChords": [],
            "autoStart": false,
            "sourceChordNote": 0,
            "sourceChordType": "Maj7",
            "ctb2Low": null,
            "ctb2Main": {
              "ntr": "ROOT_TRANSPOSITION",
              "ntt": "MELODY",
              "bassOn": true,
              "chordRootUpperLimit": 8,
              "noteLowLimit": 40,
              "noteHighLimit": 127,
              "rtr": "PITCH_SHIFT_TO_ROOT"
            },
            "ctb2High": null,
            "ctb2MiddleLowPitch": 0,
            "ctb2MiddleHighPitch": 127
          },
          "notes": [
            {
              "pitch": 36,
              "velocity": 40,
              "position": 0,
              "duration": 0.7416666666666667
            },
            {
              "pitch": 43,
              "velocity": 22,
              "position": 1,
              "duration": 0.7416666666666667
            },
            {
              "pitch": 36,
              "velocity": 32,
              "position": 2,
              "duration": 0.7416666666666667
            },
            {
              "pitch": 43,
              "velocity": 22,
              "position": 3,
              "duration": 0.7416666666666667
            },
            {
              "pitch": 36,
              "velocity": 32,
              "position": 4,
              "duration": 0.7416666666666667
            },
            {
              "pitch": 43,
              "velocity": 22,
              "position": 5,
              "duration": 0.7416666666666667
            },
            {
              "pitch": 36,
              "velocity": 32,
              "position": 6,
              "duration": 0.7416666666666667
            },
            {
              "pitch": 43,
              "velocity": 22,
              "position": 7,
              "duration": 0.7416666666666667
            },
            {
              "pitch": 36,
              "velocity": 40,
              "position": 8,
              "duration": 0.7416666666666667
            },
            {
              "pitch": 43,
              "velocity": 22,
              "position": 9,
              "duration": 0.7416666666666667
            },
            {
              "pitch": 36,
              "velocity": 32,
              "position": 10,
              "duration": 0.7416666666666667
            },
            {
              "pitch": 43,
              "velocity": 22,
              "position": 11,
              "duration": 0.7416666666666667
            },
            {
              "pitch": 36,
              "velocity": 32,
              "position": 12,
              "duration": 0.7416666666666667
            },
            {
              "pitch": 43,
              "velocity": 22,
              "position": 13,
              "duration": 0.7416666666666667
            },
            {
              "pitch": 36,
              "velocity": 32,
              "position": 14,
              "duration": 0.7416666666666667
            },
            {
              "pitch": 43,
              "velocity": 22,
              "position": 15,
              "duration": 0.7395833333333334
            },
            {
              "pitch": 36,
              "velocity": 40,
              "position": 16,
              "duration": 0.7416666666666667
            },
            {
              "pitch": 43,
              "velocity": 22,
              "position": 17,
              "duration": 0.7416666666666667
            },
            {
              "pitch": 36,
              "velocity": 32,
              "position": 18,
              "duration": 0.7416666666666667
            },
            {
              "pitch": 43,
              "velocity": 22,
              "position": 19,
              "duration": 0.7416666666666667
            },
            {
              "pitch": 36,
              "velocity": 32,
              "position": 20,
              "duration": 0.7416666666666667
            },
            {
              "pitch": 43,
              "velocity": 22,
              "position": 21,
              "duration": 0.7416666666666667
            },
            {
              "pitch": 36,
              "velocity": 32,
              "position": 22,
              "duration": 0.7416666666666667
            },
            {
              "pitch": 43,
              "velocity": 22,
              "position": 23,
              "duration": 0.7416666666666667
            },
            {
              "pitch": 36,
              "velocity": 40,
              "position": 24,
              "duration": 0.7416666666666667
            },
            {
              "pitch": 43,
              "velocity": 22,
              "position": 25,
              "duration": 0.7416666666666667
            },
            {
              "pitch": 36,
              "velocity": 32,
              "position": 26,
              "duration": 0.7416666666666667
            },
            {
              "pitch": 43,
              "velocity": 22,
              "position": 27,
              "duration": 0.7416666666666667
            },
            {
              "pitch": 36,
              "velocity": 32,
              "position": 28,
              "duration": 0.7416666666666667
            },
            {
              "pitch": 43,
              "velocity": 22,
              "position": 29,
              "duration": 0.7416666666666667
            },
            {
              "pitch": 36,
              "velocity": 32,
              "position": 30,
              "duration": 0.7416666666666667
            },
            {
              "pitch": 43,
              "velocity": 22,
              "position": 31,
              "duration": 0.7395833333333334
            }
          ]
        },
        "3": {
          "ctab": {
            "srcChannel": 3,
            "name": "GtBass",
            "accType": "CHORD2",
            "editable": false,
            "mutedNotes": [],
            "mutedChords": [],
            "autoStart": false,
            "sourceChordNote": 0,
            "sourceChordType": "Maj7",
            "ctb2Low": null,
            "ctb2Main": {
              "ntr": "ROOT_TRANSPOSITION",
              "ntt": "MELODY",
              "bassOn": true,
              "chordRootUpperLimit": 8,
              "noteLowLimit": 40,
              "noteHighLimit": 127,
              "rtr": "PITCH_SHIFT_TO_ROOT"
            },
            "ctb2High": null,
            "ctb2MiddleLowPitch": 0,
            "ctb2MiddleHighPitch": 127
          },
          "notes": [
            {
              "pitch": 36,
              "velocity": 39,
              "position": 0,
              "duration": 0.7416666666666667
            },
            {
              "pitch": 43,
              "velocity": 21,
              "position": 1,
              "duration": 0.7416666666666667
            },
            {
              "pitch": 36,
              "velocity": 31,
              "position": 2,
              "duration": 0.7416666666666667
            },
            {
              "pitch": 43,
              "velocity": 21,
              "position": 3,
              "duration": 0.7416666666666667
            },
            {
              "pitch": 36,
              "velocity": 31,
              "position": 4,
              "duration": 0.7416666666666667
            },
            {
              "pitch": 43,
              "velocity": 21,
              "position": 5,
              "duration": 0.7416666666666667
            },
            {
              "pitch": 36,
              "velocity": 31,
              "position": 6,
              "duration": 0.7416666666666667
            },
            {
              "pitch": 43,
              "velocity": 21,
              "position": 7,
              "duration": 0.7416666666666667
            },
            {
              "pitch": 36,
              "velocity": 39,
              "position": 8,
              "duration": 0.7416666666666667
            },
            {
              "pitch": 43,
              "velocity": 21,
              "position": 9,
              "duration": 0.7416666666666667
            },
            {
              "pitch": 36,
              "velocity": 31,
              "position": 10,
              "duration": 0.7416666666666667
            },
            {
              "pitch": 43,
              "velocity": 21,
              "position": 11,
              "duration": 0.7416666666666667
            },
            {
              "pitch": 36,
              "velocity": 31,
              "position": 12,
              "duration": 0.7416666666666667
            },
            {
              "pitch": 43,
              "velocity": 21,
              "position": 13,
              "duration": 0.7416666666666667
            },
            {
              "pitch": 36,
              "velocity": 31,
              "position": 14,
              "duration": 0.7416666666666667
            },
            {
              "pitch": 43,
              "velocity": 21,
              "position": 15,
              "duration": 0.7395833333333334
            },
            {
              "pitch": 36,
              "velocity": 39,
              "position": 16,
              "duration": 0.7416666666666667
            },
            {
              "pitch": 43,
              "velocity": 21,
              "position": 17,
              "duration": 0.7416666666666667
            },
            {
              "pitch": 36,
              "velocity": 31,
              "position": 18,
              "duration": 0.7416666666666667
            },
            {
              "pitch": 43,
              "velocity": 21,
              "position": 19,
              "duration": 0.7416666666666667
            },
            {
              "pitch": 36,
              "velocity": 31,
              "position": 20,
              "duration": 0.7416666666666667
            },
            {
              "pitch": 43,
              "velocity": 21,
              "position": 21,
              "duration": 0.7416666666666667
            },
            {
              "pitch": 36,
              "velocity": 31,
              "position": 22,
              "duration": 0.7416666666666667
            },
            {
              "pitch": 43,
              "velocity": 21,
              "position": 23,
              "duration": 0.7416666666666667
            },
            {
              "pitch": 36,
              "velocity": 39,
              "position": 24,
              "duration": 0.7416666666666667
            },
            {
              "pitch": 43,
              "velocity": 21,
              "position": 25,
              "duration": 0.7416666666666667
            },
            {
              "pitch": 36,
              "velocity": 31,
              "position": 26,
              "duration": 0.7416666666666667
            },
            {
              "pitch": 43,
              "velocity": 21,
              "position": 27,
              "duration": 0.7416666666666667
            },
            {
              "pitch": 36,
              "velocity": 31,
              "position": 28,
              "duration": 0.7416666666666667
            },
            {
              "pitch": 43,
              "velocity": 21,
              "position": 29,
              "duration": 0.7416666666666667
            },
            {
              "pitch": 36,
              "velocity": 31,
              "position": 30,
              "duration": 0.7416666666666667
            },
            {
              "pitch": 43,
              "velocity": 21,
              "position": 31,
              "duration": 0.7395833333333334
            }
          ]
        },
        "5": {
          "ctab": {
            "srcChannel": 5,
            "name": "GtBass",
            "accType": "PHRASE1",
            "editable": false,
            "mutedNotes": [],
            "mutedChords": [],
            "autoStart": false,
            "sourceChordNote": 0,
            "sourceChordType": "Maj7",
            "ctb2Low": null,
            "ctb2Main": {
              "ntr": "ROOT_TRANSPOSITION",
              "ntt": "MELODY",
              "bassOn": true,
              "chordRootUpperLimit": 8,
              "noteLowLimit": 40,
              "noteHighLimit": 127,
              "rtr": "PITCH_SHIFT_TO_ROOT"
            },
            "ctb2High": null,
            "ctb2MiddleLowPitch": 0,
            "ctb2MiddleHighPitch": 127
          },
          "notes": [
            {
              "pitch": 36,
              "velocity": 81,
              "position": 0,
              "duration": 0.7416666666666667
            },
            {
              "pitch": 43,
              "velocity": 44,
              "position": 1,
              "duration": 0.7416666666666667
            },
            {
              "pitch": 36,
              "velocity": 64,
              "position": 2,
              "duration": 0.7416666666666667
            },
            {
              "pitch": 43,
              "velocity": 44,
              "position": 3,
              "duration": 0.7416666666666667
            },
            {
              "pitch": 36,
              "velocity": 64,
              "position": 4,
              "duration": 0.7416666666666667
            },
            {
              "pitch": 43,
              "velocity": 44,
              "position": 5,
              "duration": 0.7416666666666667
            },
            {
              "pitch": 36,
              "velocity": 64,
              "position": 6,
              "duration": 0.7416666666666667
            },
            {
              "pitch": 43,
              "velocity": 44,
              "position": 7,
              "duration": 0.7416666666666667
            },
            {
              "pitch": 36,
              "velocity": 81,
              "position": 8,
              "duration": 0.7416666666666667
            },
            {
              "pitch": 43,
              "velocity": 44,
              "position": 9,
              "duration": 0.7416666666666667
            },
            {
              "pitch": 36,
              "velocity": 64,
              "position": 10,
              "duration": 0.7416666666666667
            },
            {
              "pitch": 43,
              "velocity": 44,
              "position": 11,
              "duration": 0.7416666666666667
            },
            {
              "pitch": 36,
              "velocity": 64,
              "position": 12,
              "duration": 0.7416666666666667
            },
            {
              "pitch": 43,
              "velocity": 44,
              "position": 13,
              "duration": 0.7416666666666667
            },
            {
              "pitch": 36,
              "velocity": 64,
              "position": 14,
              "duration": 0.7416666666666667
            },
            {
              "pitch": 43,
              "velocity": 44,
              "position": 15,
              "duration": 0.7395833333333334
            },
            {
              "pitch": 36,
              "velocity": 81,
              "position": 16,
              "duration": 0.7416666666666667
            },
            {
              "pitch": 43,
              "velocity": 44,
              "position": 17,
              "duration": 0.7416666666666667
            },
            {
              "pitch": 36,
              "velocity": 64,
              "position": 18,
              "duration": 0.7416666666666667
            },
            {
              "pitch": 43,
              "velocity": 44,
              "position": 19,
              "duration": 0.7416666666666667
            },
            {
              "pitch": 36,
              "velocity": 64,
              "position": 20,
              "duration": 0.7416666666666667
            },
            {
              "pitch": 43,
              "velocity": 44,
              "position": 21,
              "duration": 0.7416666666666667
            },
            {
              "pitch": 36,
              "velocity": 64,
              "position": 22,
              "duration": 0.7416666666666667
            },
            {
              "pitch": 43,
              "velocity": 44,
              "position": 23,
              "duration": 0.7416666666666667
            },
            {
              "pitch": 36,
              "velocity": 81,
              "position": 24,
              "duration": 0.7416666666666667
            },
            {
              "pitch": 43,
              "velocity": 44,
              "position": 25,
              "duration": 0.7416666666666667
            },
            {
              "pitch": 36,
              "velocity": 64,
              "position": 26,
              "duration": 0.7416666666666667
            },
            {
              "pitch": 43,
              "velocity": 44,
              "position": 27,
              "duration": 0.7416666666666667
            },
            {
              "pitch": 36,
              "velocity": 64,
              "position": 28,
              "duration": 0.7416666666666667
            },
            {
              "pitch": 43,
              "velocity": 44,
              "position": 29,
              "duration": 0.7416666666666667
            },
            {
              "pitch": 36,
              "velocity": 64,
              "position": 30,
              "duration": 0.7416666666666667
            },
            {
              "pitch": 43,
              "velocity": 44,
              "position": 31,
              "duration": 0.7395833333333334
            }
          ]
        },
        "8": {
          "ctab": {
            "srcChannel": 8,
            "name": "Prc",
            "accType": "SUBRHYTHM",
            "editable": true,
            "mutedNotes": [],
            "mutedChords": [],
            "autoStart": true,
            "sourceChordNote": 0,
            "sourceChordType": "Maj7",
            "ctb2Low": null,
            "ctb2Main": {
              "ntr": "ROOT_FIXED",
              "ntt": "BYPASS",
              "bassOn": false,
              "chordRootUpperLimit": 6,
              "noteLowLimit": 0,
              "noteHighLimit": 127,
              "rtr": "PITCH_SHIFT"
            },
            "ctb2High": null,
            "ctb2MiddleLowPitch": 0,
            "ctb2MiddleHighPitch": 127
          },
          "notes": [
            {
              "pitch": 68,
              "velocity": 40,
              "position": 1,
              "duration": 0.004166666666666667
            },
            {
              "pitch": 68,
              "velocity": 40,
              "position": 3,
              "duration": 0.004166666666666667
            },
            {
              "pitch": 68,
              "velocity": 40,
              "position": 5,
              "duration": 0.004166666666666667
            },
            {
              "pitch": 68,
              "velocity": 40,
              "position": 7,
              "duration": 0.004166666666666667
            },
            {
              "pitch": 68,
              "velocity": 40,
              "position": 9,
              "duration": 0.004166666666666667
            },
            {
              "pitch": 68,
              "velocity": 40,
              "position": 11,
              "duration": 0.004166666666666667
            },
            {
              "pitch": 68,
              "velocity": 40,
              "position": 13,
              "duration": 0.004166666666666667
            },
            {
              "pitch": 68,
              "velocity": 40,
              "position": 15,
              "duration": 0.004166666666666667
            },
            {
              "pitch": 68,
              "velocity": 40,
              "position": 17,
              "duration": 0.004166666666666667
            },
            {
              "pitch": 68,
              "velocity": 40,
              "position": 19,
              "duration": 0.004166666666666667
            },
            {
              "pitch": 68,
              "velocity": 40,
              "position": 21,
              "duration": 0.004166666666666667
            },
            {
              "pitch": 68,
              "velocity": 40,
              "position": 23,
              "duration": 0.004166666666666667
            },
            {
              "pitch": 68,
              "velocity": 40,
              "position": 25,
              "duration": 0.004166666666666667
            },
            {
              "pitch": 68,
              "velocity": 40,
              "position": 27,
              "duration": 0.004166666666666667
            },
            {
              "pitch": 68,
              "velocity": 40,
              "position": 29,
              "duration": 0.004166666666666667
            },
            {
              "pitch": 68,
              "velocity": 40,
              "position": 31,
              "duration": 0.004166666666666667
            }
          ]
        },
        "9": {
          "ctab": {
            "srcChannel": 9,
            "name": "Drs",
            "accType": "RHYTHM",
            "editable": true,
            "mutedNotes": [],
            "mutedChords": [],
            "autoStart": true,
            "sourceChordNote": 0,
            "sourceChordType": "Maj7",
            "ctb2Low": null,
            "ctb2Main": {
              "ntr": "ROOT_FIXED",
              "ntt": "BYPASS",
              "bassOn": false,
              "chordRootUpperLimit": 6,
              "noteLowLimit": 0,
              "noteHighLimit": 127,
              "rtr": "PITCH_SHIFT"
            },
            "ctb2High": null,
            "ctb2MiddleLowPitch": 0,
            "ctb2MiddleHighPitch": 127
          },
          "notes": [
            {
              "pitch": 33,
              "velocity": 68,
              "position": 0,
              "duration": 0.004166666666666667
            },
            {
              "pitch": 51,
              "velocity": 70,
              "position": 0,
              "duration": 0.004166666666666667
            },
            {
              "pitch": 38,
              "velocity": 110,
              "position": 0.5,
              "duration": 0.004166666666666667
            },
            {
              "pitch": 51,
              "velocity": 50,
              "position": 0.5,
              "duration": 0.004166666666666667
            },
            {
              "pitch": 44,
              "velocity": 52,
              "position": 0.5,
              "duration": 0.004166666666666667
            },
            {
              "pitch": 38,
              "velocity": 57,
              "position": 0.75,
              "duration": 0.004166666666666667
            },
            {
              "pitch": 33,
              "velocity": 68,
              "position": 1,
              "duration": 0.004166666666666667
            },
            {
              "pitch": 51,
              "velocity": 70,
              "position": 1,
              "duration": 0.004166666666666667
            },
            {
              "pitch": 38,
              "velocity": 110,
              "position": 1.5,
              "duration": 0.004166666666666667
            },
            {
              "pitch": 51,
              "velocity": 50,
              "position": 1.5,
              "duration": 0.004166666666666667
            },
            {
              "pitch": 44,
              "velocity": 52,
              "position": 1.5,
              "duration": 0.004166666666666667
            },
            {
              "pitch": 38,
              "velocity": 57,
              "position": 1.75,
              "duration": 0.004166666666666667
            },
            {
              "pitch": 33,
              "velocity": 68,
              "position": 2,
              "duration": 0.004166666666666667
            },
            {
              "pitch": 51,
              "velocity": 70,
              "position": 2,
              "duration": 0.004166666666666667
            },
            {
              "pitch": 38,
              "velocity": 110,
              "position": 2.5,
              "duration": 0.004166666666666667
            },
            {
              "pitch": 51,
              "velocity": 50,
              "position": 2.5,
              "duration": 0.004166666666666667
            },
            {
              "pitch": 44,
              "velocity": 52,
              "position": 2.5,
              "duration": 0.004166666666666667
            },
            {
              "pitch": 38,
              "velocity": 57,
              "position": 2.75,
              "duration": 0.004166666666666667
            },
            {
              "pitch": 33,
              "velocity": 68,
              "position": 3,
              "duration": 0.004166666666666667
            },
            {
              "pitch": 51,
              "velocity": 70,
              "position": 3,
              "duration": 0.004166666666666667
            },
            {
              "pitch": 38,
              "velocity": 110,
              "position": 3.5,
              "duration": 0.004166666666666667
            },
            {
              "pitch": 51,
              "velocity": 50,
              "position": 3.5,
              "duration": 0.004166666666666667
            },
            {
              "pitch": 44,
              "velocity": 52,
              "position": 3.5,
              "duration": 0.004166666666666667
            },
            {
              "pitch": 38,
              "velocity": 57,
              "position": 3.75,
              "duration": 0.004166666666666667
            },
            {
              "pitch": 33,
              "velocity": 68,
              "position": 4,
              "duration": 0.004166666666666667
            },
            {
              "pitch": 51,
              "velocity": 70,
              "position": 4,
              "duration": 0.004166666666666667
            },
            {
              "pitch": 38,
              "velocity": 110,
              "position": 4.5,
              "duration": 0.004166666666666667
            },
            {
              "pitch": 51,
              "velocity": 50,
              "position": 4.5,
              "duration": 0.004166666666666667
            },
            {
              "pitch": 44,
              "velocity": 52,
              "position": 4.5,
              "duration": 0.004166666666666667
            },
            {
              "pitch": 38,
              "velocity": 57,
              "position": 4.75,
              "duration": 0.004166666666666667
            },
            {
              "pitch": 33,
              "velocity": 68,
              "position": 5,
              "duration": 0.004166666666666667
            },
            {
              "pitch": 51,
              "velocity": 70,
              "position": 5,
              "duration": 0.004166666666666667
            },
            {
              "pitch": 38,
              "velocity": 110,
              "position": 5.5,
              "duration": 0.004166666666666667
            },
            {
              "pitch": 51,
              "velocity": 50,
              "position": 5.5,
              "duration": 0.004166666666666667
            },
            {
              "pitch": 44,
              "velocity": 52,
              "position": 5.5,
              "duration": 0.004166666666666667
            },
            {
              "pitch": 38,
              "velocity": 57,
              "position": 5.75,
              "duration": 0.004166666666666667
            },
            {
              "pitch": 33,
              "velocity": 68,
              "position": 6,
              "duration": 0.004166666666666667
            },
            {
              "pitch": 51,
              "velocity": 70,
              "position": 6,
              "duration": 0.004166666666666667
            },
            {
              "pitch": 38,
              "velocity": 110,
              "position": 6.5,
              "duration": 0.004166666666666667
            },
            {
              "pitch": 51,
              "velocity": 50,
              "position": 6.5,
              "duration": 0.004166666666666667
            },
            {
              "pitch": 44,
              "velocity": 52,
              "position": 6.5,
              "duration": 0.004166666666666667
            },
            {
              "pitch": 38,
              "velocity": 57,
              "position": 6.75,
              "duration": 0.004166666666666667
            },
            {
              "pitch": 33,
              "velocity": 68,
              "position": 7,
              "duration": 0.004166666666666667
            },
            {
              "pitch": 51,
              "velocity": 70,
              "position": 7,
              "duration": 0.004166666666666667
            },
            {
              "pitch": 38,
              "velocity": 110,
              "position": 7.5,
              "duration": 0.004166666666666667
            },
            {
              "pitch": 51,
              "velocity": 50,
              "position": 7.5,
              "duration": 0.004166666666666667
            },
            {
              "pitch": 44,
              "velocity": 52,
              "position": 7.5,
              "duration": 0.004166666666666667
            },
            {
              "pitch": 38,
              "velocity": 57,
              "position": 7.75,
              "duration": 0.004166666666666667
            },
            {
              "pitch": 33,
              "velocity": 68,
              "position": 8,
              "duration": 0.004166666666666667
            },
            {
              "pitch": 51,
              "velocity": 70,
              "position": 8,
              "duration": 0.004166666666666667
            },
            {
              "pitch": 38,
              "velocity": 110,
              "position": 8.5,
              "duration": 0.004166666666666667
            },
            {
              "pitch": 51,
              "velocity": 50,
              "position": 8.5,
              "duration": 0.004166666666666667
            },
            {
              "pitch": 44,
              "velocity": 52,
              "position": 8.5,
              "duration": 0.004166666666666667
            },
            {
              "pitch": 38,
              "velocity": 57,
              "position": 8.75,
              "duration": 0.004166666666666667
            },
            {
              "pitch": 33,
              "velocity": 68,
              "position": 9,
              "duration": 0.004166666666666667
            },
            {
              "pitch": 51,
              "velocity": 70,
              "position": 9,
              "duration": 0.004166666666666667
            },
            {
              "pitch": 38,
              "velocity": 110,
              "position": 9.5,
              "duration": 0.004166666666666667
            },
            {
              "pitch": 51,
              "velocity": 50,
              "position": 9.5,
              "duration": 0.004166666666666667
            },
            {
              "pitch": 44,
              "velocity": 52,
              "position": 9.5,
              "duration": 0.004166666666666667
            },
            {
              "pitch": 38,
              "velocity": 57,
              "position": 9.75,
              "duration": 0.004166666666666667
            },
            {
              "pitch": 33,
              "velocity": 68,
              "position": 10,
              "duration": 0.004166666666666667
            },
            {
              "pitch": 51,
              "velocity": 70,
              "position": 10,
              "duration": 0.004166666666666667
            },
            {
              "pitch": 38,
              "velocity": 110,
              "position": 10.5,
              "duration": 0.004166666666666667
            },
            {
              "pitch": 51,
              "velocity": 50,
              "position": 10.5,
              "duration": 0.004166666666666667
            },
            {
              "pitch": 44,
              "velocity": 52,
              "position": 10.5,
              "duration": 0.004166666666666667
            },
            {
              "pitch": 38,
              "velocity": 57,
              "position": 10.75,
              "duration": 0.004166666666666667
            },
            {
              "pitch": 33,
              "velocity": 68,
              "position": 11,
              "duration": 0.004166666666666667
            },
            {
              "pitch": 51,
              "velocity": 70,
              "position": 11,
              "duration": 0.004166666666666667
            },
            {
              "pitch": 38,
              "velocity": 110,
              "position": 11.5,
              "duration": 0.004166666666666667
            },
            {
              "pitch": 51,
              "velocity": 50,
              "position": 11.5,
              "duration": 0.004166666666666667
            },
            {
              "pitch": 44,
              "velocity": 52,
              "position": 11.5,
              "duration": 0.004166666666666667
            },
            {
              "pitch": 38,
              "velocity": 57,
              "position": 11.75,
              "duration": 0.004166666666666667
            },
            {
              "pitch": 33,
              "velocity": 68,
              "position": 12,
              "duration": 0.004166666666666667
            },
            {
              "pitch": 51,
              "velocity": 70,
              "position": 12,
              "duration": 0.004166666666666667
            },
            {
              "pitch": 38,
              "velocity": 110,
              "position": 12.5,
              "duration": 0.004166666666666667
            },
            {
              "pitch": 51,
              "velocity": 50,
              "position": 12.5,
              "duration": 0.004166666666666667
            },
            {
              "pitch": 44,
              "velocity": 52,
              "position": 12.5,
              "duration": 0.004166666666666667
            },
            {
              "pitch": 38,
              "velocity": 57,
              "position": 12.75,
              "duration": 0.004166666666666667
            },
            {
              "pitch": 33,
              "velocity": 68,
              "position": 13,
              "duration": 0.004166666666666667
            },
            {
              "pitch": 51,
              "velocity": 70,
              "position": 13,
              "duration": 0.004166666666666667
            },
            {
              "pitch": 38,
              "velocity": 110,
              "position": 13.5,
              "duration": 0.004166666666666667
            },
            {
              "pitch": 51,
              "velocity": 50,
              "position": 13.5,
              "duration": 0.004166666666666667
            },
            {
              "pitch": 44,
              "velocity": 52,
              "position": 13.5,
              "duration": 0.004166666666666667
            },
            {
              "pitch": 38,
              "velocity": 57,
              "position": 13.75,
              "duration": 0.004166666666666667
            },
            {
              "pitch": 33,
              "velocity": 68,
              "position": 14,
              "duration": 0.004166666666666667
            },
            {
              "pitch": 51,
              "velocity": 70,
              "position": 14,
              "duration": 0.004166666666666667
            },
            {
              "pitch": 38,
              "velocity": 110,
              "position": 14.5,
              "duration": 0.004166666666666667
            },
            {
              "pitch": 51,
              "velocity": 50,
              "position": 14.5,
              "duration": 0.004166666666666667
            },
            {
              "pitch": 44,
              "velocity": 52,
              "position": 14.5,
              "duration": 0.004166666666666667
            },
            {
              "pitch": 38,
              "velocity": 57,
              "position": 14.75,
              "duration": 0.004166666666666667
            },
            {
              "pitch": 33,
              "velocity": 68,
              "position": 15,
              "duration": 0.004166666666666667
            },
            {
              "pitch": 51,
              "velocity": 70,
              "position": 15,
              "duration": 0.004166666666666667
            },
            {
              "pitch": 38,
              "velocity": 110,
              "position": 15.5,
              "duration": 0.004166666666666667
            },
            {
              "pitch": 51,
              "velocity": 50,
              "position": 15.5,
              "duration": 0.004166666666666667
            },
            {
              "pitch": 44,
              "velocity": 52,
              "position": 15.5,
              "duration": 0.004166666666666667
            },
            {
              "pitch": 38,
              "velocity": 57,
              "position": 15.75,
              "duration": 0.004166666666666667
            },
            {
              "pitch": 33,
              "velocity": 68,
              "position": 16,
              "duration": 0.004166666666666667
            },
            {
              "pitch": 51,
              "velocity": 70,
              "position": 16,
              "duration": 0.004166666666666667
            },
            {
              "pitch": 38,
              "velocity": 110,
              "position": 16.5,
              "duration": 0.004166666666666667
            },
            {
              "pitch": 51,
              "velocity": 50,
              "position": 16.5,
              "duration": 0.004166666666666667
            },
            {
              "pitch": 44,
              "velocity": 52,
              "position": 16.5,
              "duration": 0.004166666666666667
            },
            {
              "pitch": 38,
              "velocity": 57,
              "position": 16.75,
              "duration": 0.004166666666666667
            },
            {
              "pitch": 33,
              "velocity": 68,
              "position": 17,
              "duration": 0.004166666666666667
            },
            {
              "pitch": 51,
              "velocity": 70,
              "position": 17,
              "duration": 0.004166666666666667
            },
            {
              "pitch": 38,
              "velocity": 110,
              "position": 17.5,
              "duration": 0.004166666666666667
            },
            {
              "pitch": 51,
              "velocity": 50,
              "position": 17.5,
              "duration": 0.004166666666666667
            },
            {
              "pitch": 44,
              "velocity": 52,
              "position": 17.5,
              "duration": 0.004166666666666667
            },
            {
              "pitch": 38,
              "velocity": 57,
              "position": 17.75,
              "duration": 0.004166666666666667
            },
            {
              "pitch": 33,
              "velocity": 68,
              "position": 18,
              "duration": 0.004166666666666667
            },
            {
              "pitch": 51,
              "velocity": 70,
              "position": 18,
              "duration": 0.004166666666666667
            },
            {
              "pitch": 38,
              "velocity": 110,
              "position": 18.5,
              "duration": 0.004166666666666667
            },
            {
              "pitch": 51,
              "velocity": 50,
              "position": 18.5,
              "duration": 0.004166666666666667
            },
            {
              "pitch": 44,
              "velocity": 52,
              "position": 18.5,
              "duration": 0.004166666666666667
            },
            {
              "pitch": 38,
              "velocity": 57,
              "position": 18.75,
              "duration": 0.004166666666666667
            },
            {
              "pitch": 33,
              "velocity": 68,
              "position": 19,
              "duration": 0.004166666666666667
            },
            {
              "pitch": 51,
              "velocity": 70,
              "position": 19,
              "duration": 0.004166666666666667
            },
            {
              "pitch": 38,
              "velocity": 110,
              "position": 19.5,
              "duration": 0.004166666666666667
            },
            {
              "pitch": 51,
              "velocity": 50,
              "position": 19.5,
              "duration": 0.004166666666666667
            },
            {
              "pitch": 44,
              "velocity": 52,
              "position": 19.5,
              "duration": 0.004166666666666667
            },
            {
              "pitch": 38,
              "velocity": 57,
              "position": 19.75,
              "duration": 0.004166666666666667
            },
            {
              "pitch": 33,
              "velocity": 68,
              "position": 20,
              "duration": 0.004166666666666667
            },
            {
              "pitch": 51,
              "velocity": 70,
              "position": 20,
              "duration": 0.004166666666666667
            },
            {
              "pitch": 38,
              "velocity": 110,
              "position": 20.5,
              "duration": 0.004166666666666667
            },
            {
              "pitch": 51,
              "velocity": 50,
              "position": 20.5,
              "duration": 0.004166666666666667
            },
            {
              "pitch": 44,
              "velocity": 52,
              "position": 20.5,
              "duration": 0.004166666666666667
            },
            {
              "pitch": 38,
              "velocity": 57,
              "position": 20.75,
              "duration": 0.004166666666666667
            },
            {
              "pitch": 33,
              "velocity": 68,
              "position": 21,
              "duration": 0.004166666666666667
            },
            {
              "pitch": 51,
              "velocity": 70,
              "position": 21,
              "duration": 0.004166666666666667
            },
            {
              "pitch": 38,
              "velocity": 110,
              "position": 21.5,
              "duration": 0.004166666666666667
            },
            {
              "pitch": 51,
              "velocity": 50,
              "position": 21.5,
              "duration": 0.004166666666666667
            },
            {
              "pitch": 44,
              "velocity": 52,
              "position": 21.5,
              "duration": 0.004166666666666667
            },
            {
              "pitch": 38,
              "velocity": 57,
              "position": 21.75,
              "duration": 0.004166666666666667
            },
            {
              "pitch": 33,
              "velocity": 68,
              "position": 22,
              "duration": 0.004166666666666667
            },
            {
              "pitch": 51,
              "velocity": 70,
              "position": 22,
              "duration": 0.004166666666666667
            },
            {
              "pitch": 38,
              "velocity": 110,
              "position": 22.5,
              "duration": 0.004166666666666667
            },
            {
              "pitch": 51,
              "velocity": 50,
              "position": 22.5,
              "duration": 0.004166666666666667
            },
            {
              "pitch": 44,
              "velocity": 52,
              "position": 22.5,
              "duration": 0.004166666666666667
            },
            {
              "pitch": 38,
              "velocity": 57,
              "position": 22.75,
              "duration": 0.004166666666666667
            },
            {
              "pitch": 33,
              "velocity": 68,
              "position": 23,
              "duration": 0.004166666666666667
            },
            {
              "pitch": 51,
              "velocity": 70,
              "position": 23,
              "duration": 0.004166666666666667
            },
            {
              "pitch": 38,
              "velocity": 110,
              "position": 23.5,
              "duration": 0.004166666666666667
            },
            {
              "pitch": 51,
              "velocity": 50,
              "position": 23.5,
              "duration": 0.004166666666666667
            },
            {
              "pitch": 44,
              "velocity": 52,
              "position": 23.5,
              "duration": 0.004166666666666667
            },
            {
              "pitch": 38,
              "velocity": 57,
              "position": 23.75,
              "duration": 0.004166666666666667
            },
            {
              "pitch": 33,
              "velocity": 68,
              "position": 24,
              "duration": 0.004166666666666667
            },
            {
              "pitch": 51,
              "velocity": 70,
              "position": 24,
              "duration": 0.004166666666666667
            },
            {
              "pitch": 38,
              "velocity": 110,
              "position": 24.5,
              "duration": 0.004166666666666667
            },
            {
              "pitch": 51,
              "velocity": 50,
              "position": 24.5,
              "duration": 0.004166666666666667
            },
            {
              "pitch": 44,
              "velocity": 52,
              "position": 24.5,
              "duration": 0.004166666666666667
            },
            {
              "pitch": 38,
              "velocity": 57,
              "position": 24.75,
              "duration": 0.004166666666666667
            },
            {
              "pitch": 33,
              "velocity": 68,
              "position": 25,
              "duration": 0.004166666666666667
            },
            {
              "pitch": 51,
              "velocity": 70,
              "position": 25,
              "duration": 0.004166666666666667
            },
            {
              "pitch": 38,
              "velocity": 110,
              "position": 25.5,
              "duration": 0.004166666666666667
            },
            {
              "pitch": 51,
              "velocity": 50,
              "position": 25.5,
              "duration": 0.004166666666666667
            },
            {
              "pitch": 44,
              "velocity": 52,
              "position": 25.5,
              "duration": 0.004166666666666667
            },
            {
              "pitch": 38,
              "velocity": 57,
              "position": 25.75,
              "duration": 0.004166666666666667
            },
            {
              "pitch": 33,
              "velocity": 68,
              "position": 26,
              "duration": 0.004166666666666667
            },
            {
              "pitch": 51,
              "velocity": 70,
              "position": 26,
              "duration": 0.004166666666666667
            },
            {
              "pitch": 38,
              "velocity": 110,
              "position": 26.5,
              "duration": 0.004166666666666667
            },
            {
              "pitch": 51,
              "velocity": 50,
              "position": 26.5,
              "duration": 0.004166666666666667
            },
            {
              "pitch": 44,
              "velocity": 52,
              "position": 26.5,
              "duration": 0.004166666666666667
            },
            {
              "pitch": 38,
              "velocity": 57,
              "position": 26.75,
              "duration": 0.004166666666666667
            },
            {
              "pitch": 33,
              "velocity": 68,
              "position": 27,
              "duration": 0.004166666666666667
            },
            {
              "pitch": 51,
              "velocity": 70,
              "position": 27,
              "duration": 0.004166666666666667
            },
            {
              "pitch": 38,
              "velocity": 110,
              "position": 27.5,
              "duration": 0.004166666666666667
            },
            {
              "pitch": 51,
              "velocity": 50,
              "position": 27.5,
              "duration": 0.004166666666666667
            },
            {
              "pitch": 44,
              "velocity": 52,
              "position": 27.5,
              "duration": 0.004166666666666667
            },
            {
              "pitch": 38,
              "velocity": 57,
              "position": 27.75,
              "duration": 0.004166666666666667
            },
            {
              "pitch": 33,
              "velocity": 68,
              "position": 28,
              "duration": 0.004166666666666667
            },
            {
              "pitch": 51,
              "velocity": 70,
              "position": 28,
              "duration": 0.004166666666666667
            },
            {
              "pitch": 38,
              "velocity": 110,
              "position": 28.5,
              "duration": 0.004166666666666667
            },
            {
              "pitch": 51,
              "velocity": 50,
              "position": 28.5,
              "duration": 0.004166666666666667
            },
            {
              "pitch": 44,
              "velocity": 52,
              "position": 28.5,
              "duration": 0.004166666666666667
            },
            {
              "pitch": 38,
              "velocity": 57,
              "position": 28.75,
              "duration": 0.004166666666666667
            },
            {
              "pitch": 33,
              "velocity": 68,
              "position": 29,
              "duration": 0.004166666666666667
            },
            {
              "pitch": 51,
              "velocity": 70,
              "position": 29,
              "duration": 0.004166666666666667
            },
            {
              "pitch": 38,
              "velocity": 110,
              "position": 29.5,
              "duration": 0.004166666666666667
            },
            {
              "pitch": 51,
              "velocity": 50,
              "position": 29.5,
              "duration": 0.004166666666666667
            },
            {
              "pitch": 44,
              "velocity": 52,
              "position": 29.5,
              "duration": 0.004166666666666667
            },
            {
              "pitch": 38,
              "velocity": 57,
              "position": 29.75,
              "duration": 0.004166666666666667
            },
            {
              "pitch": 33,
              "velocity": 68,
              "position": 30,
              "duration": 0.004166666666666667
            },
            {
              "pitch": 51,
              "velocity": 70,
              "position": 30,
              "duration": 0.004166666666666667
            },
            {
              "pitch": 38,
              "velocity": 110,
              "position": 30.5,
              "duration": 0.004166666666666667
            },
            {
              "pitch": 51,
              "velocity": 50,
              "position": 30.5,
              "duration": 0.004166666666666667
            },
            {
              "pitch": 44,
              "velocity": 52,
              "position": 30.5,
              "duration": 0.004166666666666667
            },
            {
              "pitch": 38,
              "velocity": 57,
              "position": 30.75,
              "duration": 0.004166666666666667
            },
            {
              "pitch": 33,
              "velocity": 68,
              "position": 31,
              "duration": 0.004166666666666667
            },
            {
              "pitch": 51,
              "velocity": 70,
              "position": 31,
              "duration": 0.004166666666666667
            },
            {
              "pitch": 38,
              "velocity": 110,
              "position": 31.5,
              "duration": 0.004166666666666667
            },
            {
              "pitch": 51,
              "velocity": 50,
              "position": 31.5,
              "duration": 0.004166666666666667
            },
            {
              "pitch": 44,
              "velocity": 52,
              "position": 31.5,
              "duration": 0.004166666666666667
            },
            {
              "pitch": 38,
              "velocity": 57,
              "position": 31.75,
              "duration": 0.004166666666666667
            }
          ]
        },
        "10": {
          "ctab": {
            "srcChannel": 10,
            "name": "Bs",
            "accType": "BASS",
            "editable": false,
            "mutedNotes": [],
            "mutedChords": [],
            "autoStart": false,
            "sourceChordNote": 0,
            "sourceChordType": "Maj7",
            "ctb2Low": null,
            "ctb2Main": {
              "ntr": "ROOT_TRANSPOSITION",
              "ntt": "MELODY",
              "bassOn": true,
              "chordRootUpperLimit": 8,
              "noteLowLimit": 28,
              "noteHighLimit": 127,
              "rtr": "PITCH_SHIFT_TO_ROOT"
            },
            "ctb2High": null,
            "ctb2MiddleLowPitch": 0,
            "ctb2MiddleHighPitch": 127
          },
          "notes": [
            {
              "pitch": 24,
              "velocity": 50,
              "position": 0,
              "duration": 0.8875
            },
            {
              "pitch": 31,
              "velocity": 50,
              "position": 1,
              "duration": 0.8875
            },
            {
              "pitch": 24,
              "velocity": 50,
              "position": 2,
              "duration": 0.8875
            },
            {
              "pitch": 31,
              "velocity": 50,
              "position": 3,
              "duration": 0.8875
            },
            {
              "pitch": 24,
              "velocity": 50,
              "position": 4,
              "duration": 0.8875
            },
            {
              "pitch": 31,
              "velocity": 50,
              "position": 5,
              "duration": 0.8875
            },
            {
              "pitch": 24,
              "velocity": 50,
              "position": 6,
              "duration": 0.8875
            },
            {
              "pitch": 31,
              "velocity": 50,
              "position": 7,
              "duration": 0.8875
            },
            {
              "pitch": 24,
              "velocity": 50,
              "position": 8,
              "duration": 0.8875
            },
            {
              "pitch": 31,
              "velocity": 50,
              "position": 9,
              "duration": 0.8875
            },
            {
              "pitch": 24,
              "velocity": 50,
              "position": 10,
              "duration": 0.8875
            },
            {
              "pitch": 31,
              "velocity": 50,
              "position": 11,
              "duration": 0.8875
            },
            {
              "pitch": 24,
              "velocity": 50,
              "position": 12,
              "duration": 0.8875
            },
            {
              "pitch": 31,
              "velocity": 50,
              "position": 13,
              "duration": 0.8875
            },
            {
              "pitch": 24,
              "velocity": 50,
              "position": 14,
              "duration": 0.8875
            },
            {
              "pitch": 31,
              "velocity": 50,
              "position": 15,
              "duration": 0.8875
            },
            {
              "pitch": 24,
              "velocity": 50,
              "position": 16,
              "duration": 0.8875
            },
            {
              "pitch": 31,
              "velocity": 50,
              "position": 17,
              "duration": 0.8875
            },
            {
              "pitch": 24,
              "velocity": 50,
              "position": 18,
              "duration": 0.8875
            },
            {
              "pitch": 31,
              "velocity": 50,
              "position": 19,
              "duration": 0.8875
            },
            {
              "pitch": 24,
              "velocity": 50,
              "position": 20,
              "duration": 0.8875
            },
            {
              "pitch": 31,
              "velocity": 50,
              "position": 21,
              "duration": 0.8875
            },
            {
              "pitch": 24,
              "velocity": 50,
              "position": 22,
              "duration": 0.8875
            },
            {
              "pitch": 31,
              "velocity": 50,
              "position": 23,
              "duration": 0.8875
            },
            {
              "pitch": 24,
              "velocity": 50,
              "position": 24,
              "duration": 0.8875
            },
            {
              "pitch": 31,
              "velocity": 50,
              "position": 25,
              "duration": 0.8875
            },
            {
              "pitch": 24,
              "velocity": 50,
              "position": 26,
              "duration": 0.8875
            },
            {
              "pitch": 31,
              "velocity": 50,
              "position": 27,
              "duration": 0.8875
            },
            {
              "pitch": 24,
              "velocity": 50,
              "position": 28,
              "duration": 0.8875
            },
            {
              "pitch": 31,
              "velocity": 50,
              "position": 29,
              "duration": 0.8875
            },
            {
              "pitch": 24,
              "velocity": 50,
              "position": 30,
              "duration": 0.8875
            },
            {
              "pitch": 31,
              "velocity": 50,
              "position": 31,
              "duration": 0.8875
            }
          ]
        },
        "11": {
          "ctab": {
            "srcChannel": 11,
            "name": "Tele",
            "accType": "CHORD1",
            "editable": false,
            "mutedNotes": [],
            "mutedChords": [],
            "autoStart": false,
            "sourceChordNote": 0,
            "sourceChordType": "Maj7",
            "ctb2Low": null,
            "ctb2Main": {
              "ntr": "GUITAR",
              "ntt": "ARPEGGIO",
              "bassOn": false,
              "chordRootUpperLimit": 7,
              "noteLowLimit": 0,
              "noteHighLimit": 79,
              "rtr": "PITCH_SHIFT"
            },
            "ctb2High": null,
            "ctb2MiddleLowPitch": 0,
            "ctb2MiddleHighPitch": 127
          },
          "notes": [
            {
              "pitch": 57,
              "velocity": 10,
              "position": 0.25,
              "duration": 0.9916666666666667
            },
            {
              "pitch": 53,
              "velocity": 30,
              "position": 0.5,
              "duration": 0.9916666666666667
            },
            {
              "pitch": 59,
              "velocity": 40,
              "position": 0,
              "duration": 1.7416666666666667
            },
            {
              "pitch": 53,
              "velocity": 20,
              "position": 1.5,
              "duration": 0.9916666666666667
            },
            {
              "pitch": 55,
              "velocity": 40,
              "position": 0.75,
              "duration": 1.9916666666666667
            },
            {
              "pitch": 59,
              "velocity": 20,
              "position": 1.75,
              "duration": 1.4916666666666667
            },
            {
              "pitch": 53,
              "velocity": 30,
              "position": 2.5,
              "duration": 0.9916666666666667
            },
            {
              "pitch": 57,
              "velocity": 30,
              "position": 1.25,
              "duration": 2.4916666666666667
            },
            {
              "pitch": 126,
              "velocity": 40,
              "position": 3.5,
              "duration": 0.24166666666666667
            },
            {
              "pitch": 53,
              "velocity": 40,
              "position": 3.5,
              "duration": 0.49166666666666664
            },
            {
              "pitch": 55,
              "velocity": 30,
              "position": 2.75,
              "duration": 1.2416666666666667
            },
            {
              "pitch": 59,
              "velocity": 30,
              "position": 3.25,
              "duration": 0.7416666666666667
            },
            {
              "pitch": 55,
              "velocity": 10,
              "position": 4.25,
              "duration": 0.49166666666666664
            },
            {
              "pitch": 57,
              "velocity": 21,
              "position": 3.75,
              "duration": 1.4916666666666667
            },
            {
              "pitch": 53,
              "velocity": 30,
              "position": 4.5,
              "duration": 0.9916666666666667
            },
            {
              "pitch": 53,
              "velocity": 20,
              "position": 5.5,
              "duration": 0.9916666666666667
            },
            {
              "pitch": 57,
              "velocity": 30,
              "position": 5.25,
              "duration": 1.4916666666666667
            },
            {
              "pitch": 55,
              "velocity": 40,
              "position": 4.75,
              "duration": 2.4916666666666667
            },
            {
              "pitch": 53,
              "velocity": 30,
              "position": 6.5,
              "duration": 0.9916666666666667
            },
            {
              "pitch": 59,
              "velocity": 20,
              "position": 5.75,
              "duration": 1.9916666666666667
            },
            {
              "pitch": 123,
              "velocity": 51,
              "position": 7.5,
              "duration": 0.24166666666666667
            },
            {
              "pitch": 53,
              "velocity": 40,
              "position": 7.5,
              "duration": 0.49166666666666664
            },
            {
              "pitch": 57,
              "velocity": 30,
              "position": 6.75,
              "duration": 1.2416666666666667
            },
            {
              "pitch": 55,
              "velocity": 30,
              "position": 7.25,
              "duration": 0.7416666666666667
            },
            {
              "pitch": 57,
              "velocity": 10,
              "position": 8.25,
              "duration": 0.9916666666666667
            },
            {
              "pitch": 53,
              "velocity": 30,
              "position": 8.5,
              "duration": 0.9916666666666667
            },
            {
              "pitch": 59,
              "velocity": 41,
              "position": 7.75,
              "duration": 1.9916666666666667
            },
            {
              "pitch": 53,
              "velocity": 20,
              "position": 9.5,
              "duration": 0.9916666666666667
            },
            {
              "pitch": 55,
              "velocity": 40,
              "position": 8.75,
              "duration": 1.9916666666666667
            },
            {
              "pitch": 59,
              "velocity": 20,
              "position": 9.75,
              "duration": 1.4916666666666667
            },
            {
              "pitch": 53,
              "velocity": 30,
              "position": 10.5,
              "duration": 0.9916666666666667
            },
            {
              "pitch": 57,
              "velocity": 30,
              "position": 9.25,
              "duration": 2.4916666666666667
            },
            {
              "pitch": 127,
              "velocity": 40,
              "position": 11.5,
              "duration": 0.24166666666666667
            },
            {
              "pitch": 53,
              "velocity": 40,
              "position": 11.5,
              "duration": 0.49166666666666664
            },
            {
              "pitch": 55,
              "velocity": 30,
              "position": 10.75,
              "duration": 1.2416666666666667
            },
            {
              "pitch": 59,
              "velocity": 30,
              "position": 11.25,
              "duration": 0.7416666666666667
            },
            {
              "pitch": 55,
              "velocity": 10,
              "position": 12.25,
              "duration": 0.49166666666666664
            },
            {
              "pitch": 57,
              "velocity": 21,
              "position": 11.75,
              "duration": 1.4916666666666667
            },
            {
              "pitch": 53,
              "velocity": 30,
              "position": 12.5,
              "duration": 0.9916666666666667
            },
            {
              "pitch": 53,
              "velocity": 20,
              "position": 13.5,
              "duration": 0.9916666666666667
            },
            {
              "pitch": 55,
              "velocity": 40,
              "position": 12.75,
              "duration": 1.9916666666666667
            },
            {
              "pitch": 57,
              "velocity": 30,
              "position": 13.25,
              "duration": 1.9916666666666667
            },
            {
              "pitch": 53,
              "velocity": 30,
              "position": 14.5,
              "duration": 0.9916666666666667
            },
            {
              "pitch": 55,
              "velocity": 30,
              "position": 14.75,
              "duration": 0.9916666666666667
            },
            {
              "pitch": 124,
              "velocity": 40,
              "position": 15.5,
              "duration": 0.24166666666666667
            },
            {
              "pitch": 53,
              "velocity": 40,
              "position": 15.5,
              "duration": 0.4895833333333333
            },
            {
              "pitch": 55,
              "velocity": 10,
              "position": 15.75,
              "duration": 0.23958333333333334
            },
            {
              "pitch": 59,
              "velocity": 20,
              "position": 13.75,
              "duration": 2.2395833333333335
            },
            {
              "pitch": 57,
              "velocity": 30,
              "position": 15.25,
              "duration": 0.7395833333333334
            },
            {
              "pitch": 57,
              "velocity": 10,
              "position": 16.25,
              "duration": 0.9916666666666667
            },
            {
              "pitch": 53,
              "velocity": 30,
              "position": 16.5,
              "duration": 0.9916666666666667
            },
            {
              "pitch": 59,
              "velocity": 40,
              "position": 16,
              "duration": 1.7416666666666667
            },
            {
              "pitch": 53,
              "velocity": 20,
              "position": 17.5,
              "duration": 0.9916666666666667
            },
            {
              "pitch": 55,
              "velocity": 40,
              "position": 16.75,
              "duration": 1.9916666666666667
            },
            {
              "pitch": 59,
              "velocity": 20,
              "position": 17.75,
              "duration": 1.4916666666666667
            },
            {
              "pitch": 53,
              "velocity": 30,
              "position": 18.5,
              "duration": 0.9916666666666667
            },
            {
              "pitch": 57,
              "velocity": 30,
              "position": 17.25,
              "duration": 2.4916666666666667
            },
            {
              "pitch": 126,
              "velocity": 40,
              "position": 19.5,
              "duration": 0.24166666666666667
            },
            {
              "pitch": 53,
              "velocity": 40,
              "position": 19.5,
              "duration": 0.49166666666666664
            },
            {
              "pitch": 55,
              "velocity": 30,
              "position": 18.75,
              "duration": 1.2416666666666667
            },
            {
              "pitch": 59,
              "velocity": 30,
              "position": 19.25,
              "duration": 0.7416666666666667
            },
            {
              "pitch": 55,
              "velocity": 10,
              "position": 20.25,
              "duration": 0.49166666666666664
            },
            {
              "pitch": 57,
              "velocity": 21,
              "position": 19.75,
              "duration": 1.4916666666666667
            },
            {
              "pitch": 53,
              "velocity": 30,
              "position": 20.5,
              "duration": 0.9916666666666667
            },
            {
              "pitch": 53,
              "velocity": 20,
              "position": 21.5,
              "duration": 0.9916666666666667
            },
            {
              "pitch": 57,
              "velocity": 30,
              "position": 21.25,
              "duration": 1.4916666666666667
            },
            {
              "pitch": 55,
              "velocity": 40,
              "position": 20.75,
              "duration": 2.4916666666666667
            },
            {
              "pitch": 53,
              "velocity": 30,
              "position": 22.5,
              "duration": 0.9916666666666667
            },
            {
              "pitch": 59,
              "velocity": 20,
              "position": 21.75,
              "duration": 1.9916666666666667
            },
            {
              "pitch": 123,
              "velocity": 51,
              "position": 23.5,
              "duration": 0.24166666666666667
            },
            {
              "pitch": 53,
              "velocity": 40,
              "position": 23.5,
              "duration": 0.49166666666666664
            },
            {
              "pitch": 57,
              "velocity": 30,
              "position": 22.75,
              "duration": 1.2416666666666667
            },
            {
              "pitch": 55,
              "velocity": 30,
              "position": 23.25,
              "duration": 0.7416666666666667
            },
            {
              "pitch": 57,
              "velocity": 10,
              "position": 24.25,
              "duration": 0.9916666666666667
            },
            {
              "pitch": 53,
              "velocity": 30,
              "position": 24.5,
              "duration": 0.9916666666666667
            },
            {
              "pitch": 59,
              "velocity": 41,
              "position": 23.75,
              "duration": 1.9916666666666667
            },
            {
              "pitch": 53,
              "velocity": 20,
              "position": 25.5,
              "duration": 0.9916666666666667
            },
            {
              "pitch": 55,
              "velocity": 40,
              "position": 24.75,
              "duration": 1.9916666666666667
            },
            {
              "pitch": 59,
              "velocity": 20,
              "position": 25.75,
              "duration": 1.4916666666666667
            },
            {
              "pitch": 53,
              "velocity": 30,
              "position": 26.5,
              "duration": 0.9916666666666667
            },
            {
              "pitch": 57,
              "velocity": 30,
              "position": 25.25,
              "duration": 2.4916666666666667
            },
            {
              "pitch": 127,
              "velocity": 40,
              "position": 27.5,
              "duration": 0.24166666666666667
            },
            {
              "pitch": 53,
              "velocity": 40,
              "position": 27.5,
              "duration": 0.49166666666666664
            },
            {
              "pitch": 55,
              "velocity": 30,
              "position": 26.75,
              "duration": 1.2416666666666667
            },
            {
              "pitch": 59,
              "velocity": 30,
              "position": 27.25,
              "duration": 0.7416666666666667
            },
            {
              "pitch": 55,
              "velocity": 10,
              "position": 28.25,
              "duration": 0.49166666666666664
            },
            {
              "pitch": 57,
              "velocity": 21,
              "position": 27.75,
              "duration": 1.4916666666666667
            },
            {
              "pitch": 53,
              "velocity": 30,
              "position": 28.5,
              "duration": 0.9916666666666667
            },
            {
              "pitch": 53,
              "velocity": 20,
              "position": 29.5,
              "duration": 0.9916666666666667
            },
            {
              "pitch": 55,
              "velocity": 40,
              "position": 28.75,
              "duration": 1.9916666666666667
            },
            {
              "pitch": 57,
              "velocity": 30,
              "position": 29.25,
              "duration": 1.9916666666666667
            },
            {
              "pitch": 53,
              "velocity": 30,
              "position": 30.5,
              "duration": 0.9916666666666667
            },
            {
              "pitch": 55,
              "velocity": 30,
              "position": 30.75,
              "duration": 0.9916666666666667
            },
            {
              "pitch": 124,
              "velocity": 40,
              "position": 31.5,
              "duration": 0.24166666666666667
            },
            {
              "pitch": 53,
              "velocity": 40,
              "position": 31.5,
              "duration": 0.4895833333333333
            },
            {
              "pitch": 55,
              "velocity": 10,
              "position": 31.75,
              "duration": 0.23958333333333334
            },
            {
              "pitch": 59,
              "velocity": 20,
              "position": 29.75,
              "duration": 2.2395833333333335
            },
            {
              "pitch": 57,
              "velocity": 30,
              "position": 31.25,
              "duration": 0.7395833333333334
            }
          ]
        },
        "12": {
          "ctab": {
            "srcChannel": 12,
            "name": "Steel",
            "accType": "CHORD2",
            "editable": false,
            "mutedNotes": [],
            "mutedChords": [],
            "autoStart": false,
            "sourceChordNote": 0,
            "sourceChordType": "Maj7",
            "ctb2Low": null,
            "ctb2Main": {
              "ntr": "GUITAR",
              "ntt": "ARPEGGIO",
              "bassOn": false,
              "chordRootUpperLimit": 7,
              "noteLowLimit": 0,
              "noteHighLimit": 127,
              "rtr": "PITCH_SHIFT"
            },
            "ctb2High": null,
            "ctb2MiddleLowPitch": 0,
            "ctb2MiddleHighPitch": 127
          },
          "notes": [
            {
              "pitch": 53,
              "velocity": 9,
              "position": 0.5,
              "duration": 0.9916666666666667
            },
            {
              "pitch": 57,
              "velocity": 39,
              "position": 0.75,
              "duration": 0.9916666666666667
            },
            {
              "pitch": 53,
              "velocity": 19,
              "position": 1.5,
              "duration": 0.9916666666666667
            },
            {
              "pitch": 57,
              "velocity": 19,
              "position": 1.75,
              "duration": 0.9916666666666667
            },
            {
              "pitch": 55,
              "velocity": 29,
              "position": 1.25,
              "duration": 1.9916666666666667
            },
            {
              "pitch": 53,
              "velocity": 29,
              "position": 2.5,
              "duration": 0.9916666666666667
            },
            {
              "pitch": 57,
              "velocity": 29,
              "position": 2.75,
              "duration": 0.9916666666666667
            },
            {
              "pitch": 53,
              "velocity": 39,
              "position": 3.5,
              "duration": 0.49166666666666664
            },
            {
              "pitch": 57,
              "velocity": 19,
              "position": 3.75,
              "duration": 0.24166666666666667
            },
            {
              "pitch": 59,
              "velocity": 40,
              "position": 0,
              "duration": 3.9916666666666667
            },
            {
              "pitch": 55,
              "velocity": 29,
              "position": 3.25,
              "duration": 0.7416666666666667
            },
            {
              "pitch": 53,
              "velocity": 19,
              "position": 4.5,
              "duration": 0.9916666666666667
            },
            {
              "pitch": 57,
              "velocity": 35,
              "position": 4.75,
              "duration": 0.9916666666666667
            },
            {
              "pitch": 53,
              "velocity": 29,
              "position": 5.5,
              "duration": 0.9916666666666667
            },
            {
              "pitch": 57,
              "velocity": 19,
              "position": 5.75,
              "duration": 0.9916666666666667
            },
            {
              "pitch": 55,
              "velocity": 29,
              "position": 5.25,
              "duration": 1.9916666666666667
            },
            {
              "pitch": 53,
              "velocity": 39,
              "position": 6.5,
              "duration": 0.9916666666666667
            },
            {
              "pitch": 57,
              "velocity": 29,
              "position": 6.75,
              "duration": 0.9916666666666667
            },
            {
              "pitch": 53,
              "velocity": 39,
              "position": 7.5,
              "duration": 0.49166666666666664
            },
            {
              "pitch": 57,
              "velocity": 19,
              "position": 7.75,
              "duration": 0.24166666666666667
            },
            {
              "pitch": 59,
              "velocity": 20,
              "position": 4,
              "duration": 3.9916666666666667
            },
            {
              "pitch": 55,
              "velocity": 29,
              "position": 7.25,
              "duration": 0.7416666666666667
            },
            {
              "pitch": 53,
              "velocity": 9,
              "position": 8.5,
              "duration": 0.9916666666666667
            },
            {
              "pitch": 57,
              "velocity": 36,
              "position": 8.75,
              "duration": 0.9916666666666667
            },
            {
              "pitch": 53,
              "velocity": 19,
              "position": 9.5,
              "duration": 0.9916666666666667
            },
            {
              "pitch": 57,
              "velocity": 19,
              "position": 9.75,
              "duration": 0.9916666666666667
            },
            {
              "pitch": 55,
              "velocity": 29,
              "position": 9.25,
              "duration": 1.9916666666666667
            },
            {
              "pitch": 53,
              "velocity": 29,
              "position": 10.5,
              "duration": 0.9916666666666667
            },
            {
              "pitch": 57,
              "velocity": 39,
              "position": 10.75,
              "duration": 0.9916666666666667
            },
            {
              "pitch": 53,
              "velocity": 39,
              "position": 11.5,
              "duration": 0.49166666666666664
            },
            {
              "pitch": 57,
              "velocity": 19,
              "position": 11.75,
              "duration": 0.24166666666666667
            },
            {
              "pitch": 59,
              "velocity": 40,
              "position": 8,
              "duration": 3.9916666666666667
            },
            {
              "pitch": 55,
              "velocity": 29,
              "position": 11.25,
              "duration": 0.7416666666666667
            },
            {
              "pitch": 53,
              "velocity": 19,
              "position": 12.5,
              "duration": 0.9916666666666667
            },
            {
              "pitch": 57,
              "velocity": 35,
              "position": 12.75,
              "duration": 0.9916666666666667
            },
            {
              "pitch": 53,
              "velocity": 29,
              "position": 13.5,
              "duration": 0.9916666666666667
            },
            {
              "pitch": 57,
              "velocity": 19,
              "position": 13.75,
              "duration": 0.9916666666666667
            },
            {
              "pitch": 55,
              "velocity": 29,
              "position": 13.25,
              "duration": 1.9916666666666667
            },
            {
              "pitch": 53,
              "velocity": 19,
              "position": 14.5,
              "duration": 0.9916666666666667
            },
            {
              "pitch": 57,
              "velocity": 40,
              "position": 14.75,
              "duration": 0.9916666666666667
            },
            {
              "pitch": 53,
              "velocity": 39,
              "position": 15.5,
              "duration": 0.4895833333333333
            },
            {
              "pitch": 57,
              "velocity": 19,
              "position": 15.75,
              "duration": 0.23958333333333334
            },
            {
              "pitch": 59,
              "velocity": 20,
              "position": 12,
              "duration": 3.9895833333333335
            },
            {
              "pitch": 55,
              "velocity": 29,
              "position": 15.25,
              "duration": 0.7395833333333334
            },
            {
              "pitch": 53,
              "velocity": 9,
              "position": 16.5,
              "duration": 0.9916666666666667
            },
            {
              "pitch": 57,
              "velocity": 39,
              "position": 16.75,
              "duration": 0.9916666666666667
            },
            {
              "pitch": 53,
              "velocity": 19,
              "position": 17.5,
              "duration": 0.9916666666666667
            },
            {
              "pitch": 57,
              "velocity": 19,
              "position": 17.75,
              "duration": 0.9916666666666667
            },
            {
              "pitch": 55,
              "velocity": 29,
              "position": 17.25,
              "duration": 1.9916666666666667
            },
            {
              "pitch": 53,
              "velocity": 29,
              "position": 18.5,
              "duration": 0.9916666666666667
            },
            {
              "pitch": 57,
              "velocity": 29,
              "position": 18.75,
              "duration": 0.9916666666666667
            },
            {
              "pitch": 53,
              "velocity": 39,
              "position": 19.5,
              "duration": 0.49166666666666664
            },
            {
              "pitch": 57,
              "velocity": 19,
              "position": 19.75,
              "duration": 0.24166666666666667
            },
            {
              "pitch": 59,
              "velocity": 40,
              "position": 16,
              "duration": 3.9916666666666667
            },
            {
              "pitch": 55,
              "velocity": 29,
              "position": 19.25,
              "duration": 0.7416666666666667
            },
            {
              "pitch": 53,
              "velocity": 19,
              "position": 20.5,
              "duration": 0.9916666666666667
            },
            {
              "pitch": 57,
              "velocity": 35,
              "position": 20.75,
              "duration": 0.9916666666666667
            },
            {
              "pitch": 53,
              "velocity": 29,
              "position": 21.5,
              "duration": 0.9916666666666667
            },
            {
              "pitch": 57,
              "velocity": 19,
              "position": 21.75,
              "duration": 0.9916666666666667
            },
            {
              "pitch": 55,
              "velocity": 29,
              "position": 21.25,
              "duration": 1.9916666666666667
            },
            {
              "pitch": 53,
              "velocity": 39,
              "position": 22.5,
              "duration": 0.9916666666666667
            },
            {
              "pitch": 57,
              "velocity": 29,
              "position": 22.75,
              "duration": 0.9916666666666667
            },
            {
              "pitch": 53,
              "velocity": 39,
              "position": 23.5,
              "duration": 0.49166666666666664
            },
            {
              "pitch": 57,
              "velocity": 19,
              "position": 23.75,
              "duration": 0.24166666666666667
            },
            {
              "pitch": 59,
              "velocity": 20,
              "position": 20,
              "duration": 3.9916666666666667
            },
            {
              "pitch": 55,
              "velocity": 29,
              "position": 23.25,
              "duration": 0.7416666666666667
            },
            {
              "pitch": 53,
              "velocity": 9,
              "position": 24.5,
              "duration": 0.9916666666666667
            },
            {
              "pitch": 57,
              "velocity": 36,
              "position": 24.75,
              "duration": 0.9916666666666667
            },
            {
              "pitch": 53,
              "velocity": 19,
              "position": 25.5,
              "duration": 0.9916666666666667
            },
            {
              "pitch": 57,
              "velocity": 19,
              "position": 25.75,
              "duration": 0.9916666666666667
            },
            {
              "pitch": 55,
              "velocity": 29,
              "position": 25.25,
              "duration": 1.9916666666666667
            },
            {
              "pitch": 53,
              "velocity": 29,
              "position": 26.5,
              "duration": 0.9916666666666667
            },
            {
              "pitch": 57,
              "velocity": 39,
              "position": 26.75,
              "duration": 0.9916666666666667
            },
            {
              "pitch": 53,
              "velocity": 39,
              "position": 27.5,
              "duration": 0.49166666666666664
            },
            {
              "pitch": 57,
              "velocity": 19,
              "position": 27.75,
              "duration": 0.24166666666666667
            },
            {
              "pitch": 59,
              "velocity": 40,
              "position": 24,
              "duration": 3.9916666666666667
            },
            {
              "pitch": 55,
              "velocity": 29,
              "position": 27.25,
              "duration": 0.7416666666666667
            },
            {
              "pitch": 53,
              "velocity": 19,
              "position": 28.5,
              "duration": 0.9916666666666667
            },
            {
              "pitch": 57,
              "velocity": 35,
              "position": 28.75,
              "duration": 0.9916666666666667
            },
            {
              "pitch": 53,
              "velocity": 29,
              "position": 29.5,
              "duration": 0.9916666666666667
            },
            {
              "pitch": 57,
              "velocity": 19,
              "position": 29.75,
              "duration": 0.9916666666666667
            },
            {
              "pitch": 55,
              "velocity": 29,
              "position": 29.25,
              "duration": 1.9916666666666667
            },
            {
              "pitch": 53,
              "velocity": 19,
              "position": 30.5,
              "duration": 0.9916666666666667
            },
            {
              "pitch": 57,
              "velocity": 40,
              "position": 30.75,
              "duration": 0.9916666666666667
            },
            {
              "pitch": 53,
              "velocity": 39,
              "position": 31.5,
              "duration": 0.4895833333333333
            },
            {
              "pitch": 57,
              "velocity": 19,
              "position": 31.75,
              "duration": 0.23958333333333334
            },
            {
              "pitch": 59,
              "velocity": 20,
              "position": 28,
              "duration": 3.9895833333333335
            },
            {
              "pitch": 55,
              "velocity": 29,
              "position": 31.25,
              "duration": 0.7395833333333334
            }
          ]
        },
        "13": {
          "ctab": {
            "srcChannel": 13,
            "name": "P1_Horn",
            "accType": "PAD",
            "editable": false,
            "mutedNotes": [],
            "mutedChords": [],
            "autoStart": false,
            "sourceChordNote": 0,
            "sourceChordType": "Maj7",
            "ctb2Low": null,
            "ctb2Main": {
              "ntr": "ROOT_FIXED",
              "ntt": "CHORD",
              "bassOn": false,
              "chordRootUpperLimit": 3,
              "noteLowLimit": 0,
              "noteHighLimit": 127,
              "rtr": "PITCH_SHIFT"
            },
            "ctb2High": null,
            "ctb2MiddleLowPitch": 0,
            "ctb2MiddleHighPitch": 127
          },
          "notes": [
            {
              "pitch": 67,
              "velocity": 42,
              "position": 0.0125,
              "duration": 11.654166666666667
            },
            {
              "pitch": 64,
              "velocity": 58,
              "position": 12.004166666666666,
              "duration": 1.975
            },
            {
              "pitch": 59,
              "velocity": 62,
              "position": 14.004166666666666,
              "duration": 1.9666666666666666
            },
            {
              "pitch": 67,
              "velocity": 43,
              "position": 16,
              "duration": 9.625
            },
            {
              "pitch": 64,
              "velocity": 58,
              "position": 26.133333333333333,
              "duration": 1.8583333333333334
            },
            {
              "pitch": 67,
              "velocity": 55,
              "position": 28.008333333333333,
              "duration": 1.9833333333333334
            },
            {
              "pitch": 71,
              "velocity": 56,
              "position": 30.008333333333333,
              "duration": 1.9708333333333334
            }
          ]
        },
        "14": {
          "ctab": {
            "srcChannel": 14,
            "name": "HiStr",
            "accType": "PHRASE1",
            "editable": false,
            "mutedNotes": [],
            "mutedChords": [],
            "autoStart": false,
            "sourceChordNote": 0,
            "sourceChordType": "Maj7",
            "ctb2Low": null,
            "ctb2Main": {
              "ntr": "GUITAR",
              "ntt": "ARPEGGIO",
              "bassOn": false,
              "chordRootUpperLimit": 7,
              "noteLowLimit": 0,
              "noteHighLimit": 127,
              "rtr": "PITCH_SHIFT"
            },
            "ctb2High": null,
            "ctb2MiddleLowPitch": 0,
            "ctb2MiddleHighPitch": 127
          },
          "notes": [
            {
              "pitch": 69,
              "velocity": 19,
              "position": 0.25,
              "duration": 0.9916666666666667
            },
            {
              "pitch": 65,
              "velocity": 61,
              "position": 0.5,
              "duration": 0.9916666666666667
            },
            {
              "pitch": 71,
              "velocity": 82,
              "position": 0,
              "duration": 1.7416666666666667
            },
            {
              "pitch": 65,
              "velocity": 39,
              "position": 1.5,
              "duration": 0.9916666666666667
            },
            {
              "pitch": 67,
              "velocity": 81,
              "position": 0.75,
              "duration": 1.9916666666666667
            },
            {
              "pitch": 71,
              "velocity": 39,
              "position": 1.75,
              "duration": 1.4916666666666667
            },
            {
              "pitch": 65,
              "velocity": 61,
              "position": 2.5,
              "duration": 0.9916666666666667
            },
            {
              "pitch": 69,
              "velocity": 61,
              "position": 1.25,
              "duration": 2.4916666666666667
            },
            {
              "pitch": 65,
              "velocity": 81,
              "position": 3.5,
              "duration": 0.49166666666666664
            },
            {
              "pitch": 67,
              "velocity": 61,
              "position": 2.75,
              "duration": 1.2416666666666667
            },
            {
              "pitch": 71,
              "velocity": 61,
              "position": 3.25,
              "duration": 0.7416666666666667
            },
            {
              "pitch": 67,
              "velocity": 19,
              "position": 4.25,
              "duration": 0.49166666666666664
            },
            {
              "pitch": 69,
              "velocity": 43,
              "position": 3.75,
              "duration": 1.4916666666666667
            },
            {
              "pitch": 65,
              "velocity": 61,
              "position": 4.5,
              "duration": 0.9916666666666667
            },
            {
              "pitch": 65,
              "velocity": 39,
              "position": 5.5,
              "duration": 0.9916666666666667
            },
            {
              "pitch": 69,
              "velocity": 61,
              "position": 5.25,
              "duration": 1.4916666666666667
            },
            {
              "pitch": 67,
              "velocity": 81,
              "position": 4.75,
              "duration": 2.4916666666666667
            },
            {
              "pitch": 65,
              "velocity": 61,
              "position": 6.5,
              "duration": 0.9916666666666667
            },
            {
              "pitch": 71,
              "velocity": 39,
              "position": 5.75,
              "duration": 1.9916666666666667
            },
            {
              "pitch": 65,
              "velocity": 81,
              "position": 7.5,
              "duration": 0.49166666666666664
            },
            {
              "pitch": 69,
              "velocity": 61,
              "position": 6.75,
              "duration": 1.2416666666666667
            },
            {
              "pitch": 67,
              "velocity": 61,
              "position": 7.25,
              "duration": 0.7416666666666667
            },
            {
              "pitch": 69,
              "velocity": 19,
              "position": 8.25,
              "duration": 0.9916666666666667
            },
            {
              "pitch": 65,
              "velocity": 61,
              "position": 8.5,
              "duration": 0.9916666666666667
            },
            {
              "pitch": 71,
              "velocity": 82,
              "position": 7.75,
              "duration": 1.9916666666666667
            },
            {
              "pitch": 65,
              "velocity": 39,
              "position": 9.5,
              "duration": 0.9916666666666667
            },
            {
              "pitch": 67,
              "velocity": 81,
              "position": 8.75,
              "duration": 1.9916666666666667
            },
            {
              "pitch": 71,
              "velocity": 39,
              "position": 9.75,
              "duration": 1.4916666666666667
            },
            {
              "pitch": 65,
              "velocity": 61,
              "position": 10.5,
              "duration": 0.9916666666666667
            },
            {
              "pitch": 69,
              "velocity": 61,
              "position": 9.25,
              "duration": 2.4916666666666667
            },
            {
              "pitch": 65,
              "velocity": 81,
              "position": 11.5,
              "duration": 0.49166666666666664
            },
            {
              "pitch": 67,
              "velocity": 61,
              "position": 10.75,
              "duration": 1.2416666666666667
            },
            {
              "pitch": 71,
              "velocity": 61,
              "position": 11.25,
              "duration": 0.7416666666666667
            },
            {
              "pitch": 67,
              "velocity": 19,
              "position": 12.25,
              "duration": 0.49166666666666664
            },
            {
              "pitch": 69,
              "velocity": 43,
              "position": 11.75,
              "duration": 1.4916666666666667
            },
            {
              "pitch": 65,
              "velocity": 61,
              "position": 12.5,
              "duration": 0.9916666666666667
            },
            {
              "pitch": 65,
              "velocity": 39,
              "position": 13.5,
              "duration": 0.9916666666666667
            },
            {
              "pitch": 67,
              "velocity": 81,
              "position": 12.75,
              "duration": 1.9916666666666667
            },
            {
              "pitch": 69,
              "velocity": 61,
              "position": 13.25,
              "duration": 1.9916666666666667
            },
            {
              "pitch": 65,
              "velocity": 61,
              "position": 14.5,
              "duration": 0.9916666666666667
            },
            {
              "pitch": 67,
              "velocity": 61,
              "position": 14.75,
              "duration": 0.9916666666666667
            },
            {
              "pitch": 65,
              "velocity": 81,
              "position": 15.5,
              "duration": 0.4895833333333333
            },
            {
              "pitch": 67,
              "velocity": 19,
              "position": 15.75,
              "duration": 0.23958333333333334
            },
            {
              "pitch": 71,
              "velocity": 39,
              "position": 13.75,
              "duration": 2.2395833333333335
            },
            {
              "pitch": 69,
              "velocity": 61,
              "position": 15.25,
              "duration": 0.7395833333333334
            },
            {
              "pitch": 69,
              "velocity": 19,
              "position": 16.25,
              "duration": 0.9916666666666667
            },
            {
              "pitch": 65,
              "velocity": 61,
              "position": 16.5,
              "duration": 0.9916666666666667
            },
            {
              "pitch": 71,
              "velocity": 82,
              "position": 16,
              "duration": 1.7416666666666667
            },
            {
              "pitch": 65,
              "velocity": 39,
              "position": 17.5,
              "duration": 0.9916666666666667
            },
            {
              "pitch": 67,
              "velocity": 81,
              "position": 16.75,
              "duration": 1.9916666666666667
            },
            {
              "pitch": 71,
              "velocity": 39,
              "position": 17.75,
              "duration": 1.4916666666666667
            },
            {
              "pitch": 65,
              "velocity": 61,
              "position": 18.5,
              "duration": 0.9916666666666667
            },
            {
              "pitch": 69,
              "velocity": 61,
              "position": 17.25,
              "duration": 2.4916666666666667
            },
            {
              "pitch": 65,
              "velocity": 81,
              "position": 19.5,
              "duration": 0.49166666666666664
            },
            {
              "pitch": 67,
              "velocity": 61,
              "position": 18.75,
              "duration": 1.2416666666666667
            },
            {
              "pitch": 71,
              "velocity": 61,
              "position": 19.25,
              "duration": 0.7416666666666667
            },
            {
              "pitch": 67,
              "velocity": 19,
              "position": 20.25,
              "duration": 0.49166666666666664
            },
            {
              "pitch": 69,
              "velocity": 43,
              "position": 19.75,
              "duration": 1.4916666666666667
            },
            {
              "pitch": 65,
              "velocity": 61,
              "position": 20.5,
              "duration": 0.9916666666666667
            },
            {
              "pitch": 65,
              "velocity": 39,
              "position": 21.5,
              "duration": 0.9916666666666667
            },
            {
              "pitch": 69,
              "velocity": 61,
              "position": 21.25,
              "duration": 1.4916666666666667
            },
            {
              "pitch": 67,
              "velocity": 81,
              "position": 20.75,
              "duration": 2.4916666666666667
            },
            {
              "pitch": 65,
              "velocity": 61,
              "position": 22.5,
              "duration": 0.9916666666666667
            },
            {
              "pitch": 71,
              "velocity": 39,
              "position": 21.75,
              "duration": 1.9916666666666667
            },
            {
              "pitch": 65,
              "velocity": 81,
              "position": 23.5,
              "duration": 0.49166666666666664
            },
            {
              "pitch": 69,
              "velocity": 61,
              "position": 22.75,
              "duration": 1.2416666666666667
            },
            {
              "pitch": 67,
              "velocity": 61,
              "position": 23.25,
              "duration": 0.7416666666666667
            },
            {
              "pitch": 69,
              "velocity": 19,
              "position": 24.25,
              "duration": 0.9916666666666667
            },
            {
              "pitch": 65,
              "velocity": 61,
              "position": 24.5,
              "duration": 0.9916666666666667
            },
            {
              "pitch": 71,
              "velocity": 82,
              "position": 23.75,
              "duration": 1.9916666666666667
            },
            {
              "pitch": 65,
              "velocity": 39,
              "position": 25.5,
              "duration": 0.9916666666666667
            },
            {
              "pitch": 67,
              "velocity": 81,
              "position": 24.75,
              "duration": 1.9916666666666667
            },
            {
              "pitch": 71,
              "velocity": 39,
              "position": 25.75,
              "duration": 1.4916666666666667
            },
            {
              "pitch": 65,
              "velocity": 61,
              "position": 26.5,
              "duration": 0.9916666666666667
            },
            {
              "pitch": 69,
              "velocity": 61,
              "position": 25.25,
              "duration": 2.4916666666666667
            },
            {
              "pitch": 65,
              "velocity": 81,
              "position": 27.5,
              "duration": 0.49166666666666664
            },
            {
              "pitch": 67,
              "velocity": 61,
              "position": 26.75,
              "duration": 1.2416666666666667
            },
            {
              "pitch": 71,
              "velocity": 61,
              "position": 27.25,
              "duration": 0.7416666666666667
            },
            {
              "pitch": 67,
              "velocity": 19,
              "position": 28.25,
              "duration": 0.49166666666666664
            },
            {
              "pitch": 69,
              "velocity": 43,
              "position": 27.75,
              "duration": 1.4916666666666667
            },
            {
              "pitch": 65,
              "velocity": 61,
              "position": 28.5,
              "duration": 0.9916666666666667
            },
            {
              "pitch": 65,
              "velocity": 39,
              "position": 29.5,
              "duration": 0.9916666666666667
            },
            {
              "pitch": 67,
              "velocity": 81,
              "position": 28.75,
              "duration": 1.9916666666666667
            },
            {
              "pitch": 69,
              "velocity": 61,
              "position": 29.25,
              "duration": 1.9916666666666667
            },
            {
              "pitch": 65,
              "velocity": 61,
              "position": 30.5,
              "duration": 0.9916666666666667
            },
            {
              "pitch": 67,
              "velocity": 61,
              "position": 30.75,
              "duration": 0.9916666666666667
            },
            {
              "pitch": 65,
              "velocity": 81,
              "position": 31.5,
              "duration": 0.4895833333333333
            },
            {
              "pitch": 67,
              "velocity": 19,
              "position": 31.75,
              "duration": 0.23958333333333334
            },
            {
              "pitch": 71,
              "velocity": 39,
              "position": 29.75,
              "duration": 2.2395833333333335
            },
            {
              "pitch": 69,
              "velocity": 61,
              "position": 31.25,
              "duration": 0.7395833333333334
            }
          ]
        }
      }
    },
    "Main_D": {
      "type": "Main_D",
      "sizeInBeats": 32,
      "channels": {
        "2": {
          "ctab": {
            "srcChannel": 2,
            "name": "GtBass",
            "accType": "CHORD1",
            "editable": false,
            "mutedNotes": [],
            "mutedChords": [],
            "autoStart": false,
            "sourceChordNote": 0,
            "sourceChordType": "Maj7",
            "ctb2Low": null,
            "ctb2Main": {
              "ntr": "ROOT_TRANSPOSITION",
              "ntt": "MELODY",
              "bassOn": true,
              "chordRootUpperLimit": 8,
              "noteLowLimit": 40,
              "noteHighLimit": 127,
              "rtr": "PITCH_SHIFT_TO_ROOT"
            },
            "ctb2High": null,
            "ctb2MiddleLowPitch": 0,
            "ctb2MiddleHighPitch": 127
          },
          "notes": [
            {
              "pitch": 36,
              "velocity": 40,
              "position": 0,
              "duration": 0.7416666666666667
            },
            {
              "pitch": 43,
              "velocity": 22,
              "position": 1,
              "duration": 0.7416666666666667
            },
            {
              "pitch": 36,
              "velocity": 32,
              "position": 2,
              "duration": 0.7416666666666667
            },
            {
              "pitch": 43,
              "velocity": 22,
              "position": 3,
              "duration": 0.7416666666666667
            },
            {
              "pitch": 36,
              "velocity": 32,
              "position": 4,
              "duration": 0.7416666666666667
            },
            {
              "pitch": 43,
              "velocity": 22,
              "position": 5,
              "duration": 0.7416666666666667
            },
            {
              "pitch": 36,
              "velocity": 32,
              "position": 6,
              "duration": 0.7416666666666667
            },
            {
              "pitch": 43,
              "velocity": 22,
              "position": 7,
              "duration": 0.7416666666666667
            },
            {
              "pitch": 36,
              "velocity": 40,
              "position": 8,
              "duration": 0.7416666666666667
            },
            {
              "pitch": 43,
              "velocity": 22,
              "position": 9,
              "duration": 0.7416666666666667
            },
            {
              "pitch": 36,
              "velocity": 32,
              "position": 10,
              "duration": 0.7416666666666667
            },
            {
              "pitch": 43,
              "velocity": 22,
              "position": 11,
              "duration": 0.7416666666666667
            },
            {
              "pitch": 36,
              "velocity": 32,
              "position": 12,
              "duration": 0.7416666666666667
            },
            {
              "pitch": 43,
              "velocity": 22,
              "position": 13,
              "duration": 0.7416666666666667
            },
            {
              "pitch": 36,
              "velocity": 32,
              "position": 14,
              "duration": 0.7416666666666667
            },
            {
              "pitch": 43,
              "velocity": 22,
              "position": 15,
              "duration": 0.7395833333333334
            },
            {
              "pitch": 36,
              "velocity": 40,
              "position": 16,
              "duration": 0.7416666666666667
            },
            {
              "pitch": 43,
              "velocity": 22,
              "position": 17,
              "duration": 0.7416666666666667
            },
            {
              "pitch": 36,
              "velocity": 32,
              "position": 18,
              "duration": 0.7416666666666667
            },
            {
              "pitch": 43,
              "velocity": 22,
              "position": 19,
              "duration": 0.7416666666666667
            },
            {
              "pitch": 36,
              "velocity": 32,
              "position": 20,
              "duration": 0.7416666666666667
            },
            {
              "pitch": 43,
              "velocity": 22,
              "position": 21,
              "duration": 0.7416666666666667
            },
            {
              "pitch": 36,
              "velocity": 32,
              "position": 22,
              "duration": 0.7416666666666667
            },
            {
              "pitch": 43,
              "velocity": 22,
              "position": 23,
              "duration": 0.7416666666666667
            },
            {
              "pitch": 36,
              "velocity": 40,
              "position": 24,
              "duration": 0.7416666666666667
            },
            {
              "pitch": 43,
              "velocity": 22,
              "position": 25,
              "duration": 0.7416666666666667
            },
            {
              "pitch": 36,
              "velocity": 32,
              "position": 26,
              "duration": 0.7416666666666667
            },
            {
              "pitch": 43,
              "velocity": 22,
              "position": 27,
              "duration": 0.7416666666666667
            },
            {
              "pitch": 36,
              "velocity": 32,
              "position": 28,
              "duration": 0.7416666666666667
            },
            {
              "pitch": 43,
              "velocity": 22,
              "position": 29,
              "duration": 0.7416666666666667
            },
            {
              "pitch": 36,
              "velocity": 32,
              "position": 30,
              "duration": 0.7416666666666667
            },
            {
              "pitch": 43,
              "velocity": 22,
              "position": 31,
              "duration": 0.7395833333333334
            }
          ]
        },
        "3": {
          "ctab": {
            "srcChannel": 3,
            "name": "GtBass",
            "accType": "CHORD2",
            "editable": false,
            "mutedNotes": [],
            "mutedChords": [],
            "autoStart": false,
            "sourceChordNote": 0,
            "sourceChordType": "Maj7",
            "ctb2Low": null,
            "ctb2Main": {
              "ntr": "ROOT_TRANSPOSITION",
              "ntt": "MELODY",
              "bassOn": true,
              "chordRootUpperLimit": 8,
              "noteLowLimit": 40,
              "noteHighLimit": 127,
              "rtr": "PITCH_SHIFT_TO_ROOT"
            },
            "ctb2High": null,
            "ctb2MiddleLowPitch": 0,
            "ctb2MiddleHighPitch": 127
          },
          "notes": [
            {
              "pitch": 36,
              "velocity": 39,
              "position": 0,
              "duration": 0.7416666666666667
            },
            {
              "pitch": 43,
              "velocity": 21,
              "position": 1,
              "duration": 0.7416666666666667
            },
            {
              "pitch": 36,
              "velocity": 31,
              "position": 2,
              "duration": 0.7416666666666667
            },
            {
              "pitch": 43,
              "velocity": 21,
              "position": 3,
              "duration": 0.7416666666666667
            },
            {
              "pitch": 36,
              "velocity": 31,
              "position": 4,
              "duration": 0.7416666666666667
            },
            {
              "pitch": 43,
              "velocity": 21,
              "position": 5,
              "duration": 0.7416666666666667
            },
            {
              "pitch": 36,
              "velocity": 31,
              "position": 6,
              "duration": 0.7416666666666667
            },
            {
              "pitch": 43,
              "velocity": 21,
              "position": 7,
              "duration": 0.7416666666666667
            },
            {
              "pitch": 36,
              "velocity": 39,
              "position": 8,
              "duration": 0.7416666666666667
            },
            {
              "pitch": 43,
              "velocity": 21,
              "position": 9,
              "duration": 0.7416666666666667
            },
            {
              "pitch": 36,
              "velocity": 31,
              "position": 10,
              "duration": 0.7416666666666667
            },
            {
              "pitch": 43,
              "velocity": 21,
              "position": 11,
              "duration": 0.7416666666666667
            },
            {
              "pitch": 36,
              "velocity": 31,
              "position": 12,
              "duration": 0.7416666666666667
            },
            {
              "pitch": 43,
              "velocity": 21,
              "position": 13,
              "duration": 0.7416666666666667
            },
            {
              "pitch": 36,
              "velocity": 31,
              "position": 14,
              "duration": 0.7416666666666667
            },
            {
              "pitch": 43,
              "velocity": 21,
              "position": 15,
              "duration": 0.7395833333333334
            },
            {
              "pitch": 36,
              "velocity": 39,
              "position": 16,
              "duration": 0.7416666666666667
            },
            {
              "pitch": 43,
              "velocity": 21,
              "position": 17,
              "duration": 0.7416666666666667
            },
            {
              "pitch": 36,
              "velocity": 31,
              "position": 18,
              "duration": 0.7416666666666667
            },
            {
              "pitch": 43,
              "velocity": 21,
              "position": 19,
              "duration": 0.7416666666666667
            },
            {
              "pitch": 36,
              "velocity": 31,
              "position": 20,
              "duration": 0.7416666666666667
            },
            {
              "pitch": 43,
              "velocity": 21,
              "position": 21,
              "duration": 0.7416666666666667
            },
            {
              "pitch": 36,
              "velocity": 31,
              "position": 22,
              "duration": 0.7416666666666667
            },
            {
              "pitch": 43,
              "velocity": 21,
              "position": 23,
              "duration": 0.7416666666666667
            },
            {
              "pitch": 36,
              "velocity": 39,
              "position": 24,
              "duration": 0.7416666666666667
            },
            {
              "pitch": 43,
              "velocity": 21,
              "position": 25,
              "duration": 0.7416666666666667
            },
            {
              "pitch": 36,
              "velocity": 31,
              "position": 26,
              "duration": 0.7416666666666667
            },
            {
              "pitch": 43,
              "velocity": 21,
              "position": 27,
              "duration": 0.7416666666666667
            },
            {
              "pitch": 36,
              "velocity": 31,
              "position": 28,
              "duration": 0.7416666666666667
            },
            {
              "pitch": 43,
              "velocity": 21,
              "position": 29,
              "duration": 0.7416666666666667
            },
            {
              "pitch": 36,
              "velocity": 31,
              "position": 30,
              "duration": 0.7416666666666667
            },
            {
              "pitch": 43,
              "velocity": 21,
              "position": 31,
              "duration": 0.7395833333333334
            }
          ]
        },
        "4": {
          "ctab": {
            "srcChannel": 4,
            "name": "StrgRt",
            "accType": "PHRASE2",
            "editable": false,
            "mutedNotes": [],
            "mutedChords": [
              "1+2+5",
              "sus4",
              "1+5",
              "1+8",
              "Maj7aug",
              "dim",
              "minMaj7(9)",
              "minMaj7",
              "min6",
              "min",
              "aug",
              "Maj7(9)",
              "Maj7#11",
              "Maj7",
              "Maj6",
              "Maj"
            ],
            "autoStart": false,
            "sourceChordNote": 0,
            "sourceChordType": "Maj7",
            "ctb2Low": null,
            "ctb2Main": {
              "ntr": "ROOT_TRANSPOSITION",
              "ntt": "MELODY",
              "bassOn": false,
              "chordRootUpperLimit": 6,
              "noteLowLimit": 0,
              "noteHighLimit": 127,
              "rtr": "PITCH_SHIFT"
            },
            "ctb2High": null,
            "ctb2MiddleLowPitch": 0,
            "ctb2MiddleHighPitch": 127
          },
          "notes": [
            {
              "pitch": 72,
              "velocity": 31,
              "position": 0,
              "duration": 7.98125
            },
            {
              "pitch": 72,
              "velocity": 31,
              "position": 8,
              "duration": 7.98125
            },
            {
              "pitch": 72,
              "velocity": 31,
              "position": 16,
              "duration": 7.98125
            },
            {
              "pitch": 72,
              "velocity": 31,
              "position": 24,
              "duration": 7.98125
            }
          ]
        },
        "5": {
          "ctab": {
            "srcChannel": 5,
            "name": "GtBass",
            "accType": "PHRASE1",
            "editable": false,
            "mutedNotes": [],
            "mutedChords": [],
            "autoStart": false,
            "sourceChordNote": 0,
            "sourceChordType": "Maj7",
            "ctb2Low": null,
            "ctb2Main": {
              "ntr": "ROOT_TRANSPOSITION",
              "ntt": "MELODY",
              "bassOn": true,
              "chordRootUpperLimit": 8,
              "noteLowLimit": 40,
              "noteHighLimit": 127,
              "rtr": "PITCH_SHIFT_TO_ROOT"
            },
            "ctb2High": null,
            "ctb2MiddleLowPitch": 0,
            "ctb2MiddleHighPitch": 127
          },
          "notes": [
            {
              "pitch": 36,
              "velocity": 81,
              "position": 0,
              "duration": 0.7416666666666667
            },
            {
              "pitch": 43,
              "velocity": 44,
              "position": 1,
              "duration": 0.7416666666666667
            },
            {
              "pitch": 36,
              "velocity": 64,
              "position": 2,
              "duration": 0.7416666666666667
            },
            {
              "pitch": 43,
              "velocity": 44,
              "position": 3,
              "duration": 0.7416666666666667
            },
            {
              "pitch": 36,
              "velocity": 64,
              "position": 4,
              "duration": 0.7416666666666667
            },
            {
              "pitch": 43,
              "velocity": 44,
              "position": 5,
              "duration": 0.7416666666666667
            },
            {
              "pitch": 36,
              "velocity": 64,
              "position": 6,
              "duration": 0.7416666666666667
            },
            {
              "pitch": 43,
              "velocity": 44,
              "position": 7,
              "duration": 0.7416666666666667
            },
            {
              "pitch": 36,
              "velocity": 81,
              "position": 8,
              "duration": 0.7416666666666667
            },
            {
              "pitch": 43,
              "velocity": 44,
              "position": 9,
              "duration": 0.7416666666666667
            },
            {
              "pitch": 36,
              "velocity": 64,
              "position": 10,
              "duration": 0.7416666666666667
            },
            {
              "pitch": 43,
              "velocity": 44,
              "position": 11,
              "duration": 0.7416666666666667
            },
            {
              "pitch": 36,
              "velocity": 64,
              "position": 12,
              "duration": 0.7416666666666667
            },
            {
              "pitch": 43,
              "velocity": 44,
              "position": 13,
              "duration": 0.7416666666666667
            },
            {
              "pitch": 36,
              "velocity": 64,
              "position": 14,
              "duration": 0.7416666666666667
            },
            {
              "pitch": 43,
              "velocity": 44,
              "position": 15,
              "duration": 0.7395833333333334
            },
            {
              "pitch": 36,
              "velocity": 81,
              "position": 16,
              "duration": 0.7416666666666667
            },
            {
              "pitch": 43,
              "velocity": 44,
              "position": 17,
              "duration": 0.7416666666666667
            },
            {
              "pitch": 36,
              "velocity": 64,
              "position": 18,
              "duration": 0.7416666666666667
            },
            {
              "pitch": 43,
              "velocity": 44,
              "position": 19,
              "duration": 0.7416666666666667
            },
            {
              "pitch": 36,
              "velocity": 64,
              "position": 20,
              "duration": 0.7416666666666667
            },
            {
              "pitch": 43,
              "velocity": 44,
              "position": 21,
              "duration": 0.7416666666666667
            },
            {
              "pitch": 36,
              "velocity": 64,
              "position": 22,
              "duration": 0.7416666666666667
            },
            {
              "pitch": 43,
              "velocity": 44,
              "position": 23,
              "duration": 0.7416666666666667
            },
            {
              "pitch": 36,
              "velocity": 81,
              "position": 24,
              "duration": 0.7416666666666667
            },
            {
              "pitch": 43,
              "velocity": 44,
              "position": 25,
              "duration": 0.7416666666666667
            },
            {
              "pitch": 36,
              "velocity": 64,
              "position": 26,
              "duration": 0.7416666666666667
            },
            {
              "pitch": 43,
              "velocity": 44,
              "position": 27,
              "duration": 0.7416666666666667
            },
            {
              "pitch": 36,
              "velocity": 64,
              "position": 28,
              "duration": 0.7416666666666667
            },
            {
              "pitch": 43,
              "velocity": 44,
              "position": 29,
              "duration": 0.7416666666666667
            },
            {
              "pitch": 36,
              "velocity": 64,
              "position": 30,
              "duration": 0.7416666666666667
            },
            {
              "pitch": 43,
              "velocity": 44,
              "position": 31,
              "duration": 0.7395833333333334
            }
          ]
        },
        "8": {
          "ctab": {
            "srcChannel": 8,
            "name": "Prc",
            "accType": "SUBRHYTHM",
            "editable": true,
            "mutedNotes": [],
            "mutedChords": [],
            "autoStart": true,
            "sourceChordNote": 0,
            "sourceChordType": "Maj7",
            "ctb2Low": null,
            "ctb2Main": {
              "ntr": "ROOT_FIXED",
              "ntt": "BYPASS",
              "bassOn": false,
              "chordRootUpperLimit": 6,
              "noteLowLimit": 0,
              "noteHighLimit": 127,
              "rtr": "PITCH_SHIFT"
            },
            "ctb2High": null,
            "ctb2MiddleLowPitch": 0,
            "ctb2MiddleHighPitch": 127
          },
          "notes": [
            {
              "pitch": 68,
              "velocity": 40,
              "position": 0.5,
              "duration": 0.004166666666666667
            },
            {
              "pitch": 68,
              "velocity": 40,
              "position": 1.5,
              "duration": 0.004166666666666667
            },
            {
              "pitch": 68,
              "velocity": 40,
              "position": 2.5,
              "duration": 0.004166666666666667
            },
            {
              "pitch": 68,
              "velocity": 40,
              "position": 3.5,
              "duration": 0.004166666666666667
            },
            {
              "pitch": 68,
              "velocity": 40,
              "position": 4.5,
              "duration": 0.004166666666666667
            },
            {
              "pitch": 68,
              "velocity": 40,
              "position": 5.5,
              "duration": 0.004166666666666667
            },
            {
              "pitch": 68,
              "velocity": 40,
              "position": 6.5,
              "duration": 0.004166666666666667
            },
            {
              "pitch": 68,
              "velocity": 40,
              "position": 7.5,
              "duration": 0.004166666666666667
            },
            {
              "pitch": 68,
              "velocity": 40,
              "position": 8.5,
              "duration": 0.004166666666666667
            },
            {
              "pitch": 68,
              "velocity": 40,
              "position": 9.5,
              "duration": 0.004166666666666667
            },
            {
              "pitch": 68,
              "velocity": 40,
              "position": 10.5,
              "duration": 0.004166666666666667
            },
            {
              "pitch": 68,
              "velocity": 40,
              "position": 11.5,
              "duration": 0.004166666666666667
            },
            {
              "pitch": 68,
              "velocity": 40,
              "position": 12.5,
              "duration": 0.004166666666666667
            },
            {
              "pitch": 68,
              "velocity": 40,
              "position": 13.5,
              "duration": 0.004166666666666667
            },
            {
              "pitch": 68,
              "velocity": 40,
              "position": 14.5,
              "duration": 0.004166666666666667
            },
            {
              "pitch": 68,
              "velocity": 40,
              "position": 15.5,
              "duration": 0.004166666666666667
            },
            {
              "pitch": 68,
              "velocity": 40,
              "position": 16.5,
              "duration": 0.004166666666666667
            },
            {
              "pitch": 68,
              "velocity": 40,
              "position": 17.5,
              "duration": 0.004166666666666667
            },
            {
              "pitch": 68,
              "velocity": 40,
              "position": 18.5,
              "duration": 0.004166666666666667
            },
            {
              "pitch": 68,
              "velocity": 40,
              "position": 19.5,
              "duration": 0.004166666666666667
            },
            {
              "pitch": 68,
              "velocity": 40,
              "position": 20.5,
              "duration": 0.004166666666666667
            },
            {
              "pitch": 68,
              "velocity": 40,
              "position": 21.5,
              "duration": 0.004166666666666667
            },
            {
              "pitch": 68,
              "velocity": 40,
              "position": 22.5,
              "duration": 0.004166666666666667
            },
            {
              "pitch": 68,
              "velocity": 40,
              "position": 23.5,
              "duration": 0.004166666666666667
            },
            {
              "pitch": 68,
              "velocity": 40,
              "position": 24.5,
              "duration": 0.004166666666666667
            },
            {
              "pitch": 68,
              "velocity": 40,
              "position": 25.5,
              "duration": 0.004166666666666667
            },
            {
              "pitch": 68,
              "velocity": 40,
              "position": 26.5,
              "duration": 0.004166666666666667
            },
            {
              "pitch": 68,
              "velocity": 40,
              "position": 27.5,
              "duration": 0.004166666666666667
            },
            {
              "pitch": 68,
              "velocity": 40,
              "position": 28.5,
              "duration": 0.004166666666666667
            },
            {
              "pitch": 68,
              "velocity": 40,
              "position": 29.5,
              "duration": 0.004166666666666667
            },
            {
              "pitch": 68,
              "velocity": 40,
              "position": 30.5,
              "duration": 0.004166666666666667
            },
            {
              "pitch": 68,
              "velocity": 40,
              "position": 31.5,
              "duration": 0.004166666666666667
            }
          ]
        },
        "9": {
          "ctab": {
            "srcChannel": 9,
            "name": "Drs",
            "accType": "RHYTHM",
            "editable": true,
            "mutedNotes": [],
            "mutedChords": [],
            "autoStart": true,
            "sourceChordNote": 0,
            "sourceChordType": "Maj7",
            "ctb2Low": null,
            "ctb2Main": {
              "ntr": "ROOT_FIXED",
              "ntt": "BYPASS",
              "bassOn": false,
              "chordRootUpperLimit": 6,
              "noteLowLimit": 0,
              "noteHighLimit": 127,
              "rtr": "PITCH_SHIFT"
            },
            "ctb2High": null,
            "ctb2MiddleLowPitch": 0,
            "ctb2MiddleHighPitch": 127
          },
          "notes": [
            {
              "pitch": 33,
              "velocity": 68,
              "position": 0,
              "duration": 0.004166666666666667
            },
            {
              "pitch": 51,
              "velocity": 70,
              "position": 0,
              "duration": 0.004166666666666667
            },
            {
              "pitch": 38,
              "velocity": 110,
              "position": 0.5,
              "duration": 0.004166666666666667
            },
            {
              "pitch": 51,
              "velocity": 50,
              "position": 0.5,
              "duration": 0.004166666666666667
            },
            {
              "pitch": 44,
              "velocity": 52,
              "position": 0.5,
              "duration": 0.004166666666666667
            },
            {
              "pitch": 38,
              "velocity": 57,
              "position": 0.75,
              "duration": 0.004166666666666667
            },
            {
              "pitch": 33,
              "velocity": 68,
              "position": 1,
              "duration": 0.004166666666666667
            },
            {
              "pitch": 51,
              "velocity": 70,
              "position": 1,
              "duration": 0.004166666666666667
            },
            {
              "pitch": 38,
              "velocity": 110,
              "position": 1.5,
              "duration": 0.004166666666666667
            },
            {
              "pitch": 51,
              "velocity": 50,
              "position": 1.5,
              "duration": 0.004166666666666667
            },
            {
              "pitch": 44,
              "velocity": 52,
              "position": 1.5,
              "duration": 0.004166666666666667
            },
            {
              "pitch": 38,
              "velocity": 57,
              "position": 1.75,
              "duration": 0.004166666666666667
            },
            {
              "pitch": 33,
              "velocity": 68,
              "position": 2,
              "duration": 0.004166666666666667
            },
            {
              "pitch": 51,
              "velocity": 70,
              "position": 2,
              "duration": 0.004166666666666667
            },
            {
              "pitch": 38,
              "velocity": 110,
              "position": 2.5,
              "duration": 0.004166666666666667
            },
            {
              "pitch": 51,
              "velocity": 50,
              "position": 2.5,
              "duration": 0.004166666666666667
            },
            {
              "pitch": 44,
              "velocity": 52,
              "position": 2.5,
              "duration": 0.004166666666666667
            },
            {
              "pitch": 38,
              "velocity": 57,
              "position": 2.75,
              "duration": 0.004166666666666667
            },
            {
              "pitch": 33,
              "velocity": 68,
              "position": 3,
              "duration": 0.004166666666666667
            },
            {
              "pitch": 51,
              "velocity": 70,
              "position": 3,
              "duration": 0.004166666666666667
            },
            {
              "pitch": 38,
              "velocity": 110,
              "position": 3.5,
              "duration": 0.004166666666666667
            },
            {
              "pitch": 51,
              "velocity": 50,
              "position": 3.5,
              "duration": 0.004166666666666667
            },
            {
              "pitch": 44,
              "velocity": 52,
              "position": 3.5,
              "duration": 0.004166666666666667
            },
            {
              "pitch": 38,
              "velocity": 57,
              "position": 3.75,
              "duration": 0.004166666666666667
            },
            {
              "pitch": 33,
              "velocity": 68,
              "position": 4,
              "duration": 0.004166666666666667
            },
            {
              "pitch": 51,
              "velocity": 70,
              "position": 4,
              "duration": 0.004166666666666667
            },
            {
              "pitch": 38,
              "velocity": 110,
              "position": 4.5,
              "duration": 0.004166666666666667
            },
            {
              "pitch": 51,
              "velocity": 50,
              "position": 4.5,
              "duration": 0.004166666666666667
            },
            {
              "pitch": 44,
              "velocity": 52,
              "position": 4.5,
              "duration": 0.004166666666666667
            },
            {
              "pitch": 38,
              "velocity": 57,
              "position": 4.75,
              "duration": 0.004166666666666667
            },
            {
              "pitch": 33,
              "velocity": 68,
              "position": 5,
              "duration": 0.004166666666666667
            },
            {
              "pitch": 51,
              "velocity": 70,
              "position": 5,
              "duration": 0.004166666666666667
            },
            {
              "pitch": 38,
              "velocity": 110,
              "position": 5.5,
              "duration": 0.004166666666666667
            },
            {
              "pitch": 51,
              "velocity": 50,
              "position": 5.5,
              "duration": 0.004166666666666667
            },
            {
              "pitch": 44,
              "velocity": 52,
              "position": 5.5,
              "duration": 0.004166666666666667
            },
            {
              "pitch": 38,
              "velocity": 57,
              "position": 5.75,
              "duration": 0.004166666666666667
            },
            {
              "pitch": 33,
              "velocity": 68,
              "position": 6,
              "duration": 0.004166666666666667
            },
            {
              "pitch": 51,
              "velocity": 70,
              "position": 6,
              "duration": 0.004166666666666667
            },
            {
              "pitch": 38,
              "velocity": 110,
              "position": 6.5,
              "duration": 0.004166666666666667
            },
            {
              "pitch": 51,
              "velocity": 50,
              "position": 6.5,
              "duration": 0.004166666666666667
            },
            {
              "pitch": 44,
              "velocity": 52,
              "position": 6.5,
              "duration": 0.004166666666666667
            },
            {
              "pitch": 38,
              "velocity": 57,
              "position": 6.75,
              "duration": 0.004166666666666667
            },
            {
              "pitch": 33,
              "velocity": 68,
              "position": 7,
              "duration": 0.004166666666666667
            },
            {
              "pitch": 51,
              "velocity": 70,
              "position": 7,
              "duration": 0.004166666666666667
            },
            {
              "pitch": 38,
              "velocity": 110,
              "position": 7.5,
              "duration": 0.004166666666666667
            },
            {
              "pitch": 51,
              "velocity": 50,
              "position": 7.5,
              "duration": 0.004166666666666667
            },
            {
              "pitch": 44,
              "velocity": 52,
              "position": 7.5,
              "duration": 0.004166666666666667
            },
            {
              "pitch": 38,
              "velocity": 57,
              "position": 7.75,
              "duration": 0.004166666666666667
            },
            {
              "pitch": 33,
              "velocity": 68,
              "position": 8,
              "duration": 0.004166666666666667
            },
            {
              "pitch": 51,
              "velocity": 70,
              "position": 8,
              "duration": 0.004166666666666667
            },
            {
              "pitch": 38,
              "velocity": 110,
              "position": 8.5,
              "duration": 0.004166666666666667
            },
            {
              "pitch": 51,
              "velocity": 50,
              "position": 8.5,
              "duration": 0.004166666666666667
            },
            {
              "pitch": 44,
              "velocity": 52,
              "position": 8.5,
              "duration": 0.004166666666666667
            },
            {
              "pitch": 38,
              "velocity": 57,
              "position": 8.75,
              "duration": 0.004166666666666667
            },
            {
              "pitch": 33,
              "velocity": 68,
              "position": 9,
              "duration": 0.004166666666666667
            },
            {
              "pitch": 51,
              "velocity": 70,
              "position": 9,
              "duration": 0.004166666666666667
            },
            {
              "pitch": 38,
              "velocity": 110,
              "position": 9.5,
              "duration": 0.004166666666666667
            },
            {
              "pitch": 51,
              "velocity": 50,
              "position": 9.5,
              "duration": 0.004166666666666667
            },
            {
              "pitch": 44,
              "velocity": 52,
              "position": 9.5,
              "duration": 0.004166666666666667
            },
            {
              "pitch": 38,
              "velocity": 57,
              "position": 9.75,
              "duration": 0.004166666666666667
            },
            {
              "pitch": 33,
              "velocity": 68,
              "position": 10,
              "duration": 0.004166666666666667
            },
            {
              "pitch": 51,
              "velocity": 70,
              "position": 10,
              "duration": 0.004166666666666667
            },
            {
              "pitch": 38,
              "velocity": 110,
              "position": 10.5,
              "duration": 0.004166666666666667
            },
            {
              "pitch": 51,
              "velocity": 50,
              "position": 10.5,
              "duration": 0.004166666666666667
            },
            {
              "pitch": 44,
              "velocity": 52,
              "position": 10.5,
              "duration": 0.004166666666666667
            },
            {
              "pitch": 38,
              "velocity": 57,
              "position": 10.75,
              "duration": 0.004166666666666667
            },
            {
              "pitch": 33,
              "velocity": 68,
              "position": 11,
              "duration": 0.004166666666666667
            },
            {
              "pitch": 51,
              "velocity": 70,
              "position": 11,
              "duration": 0.004166666666666667
            },
            {
              "pitch": 38,
              "velocity": 110,
              "position": 11.5,
              "duration": 0.004166666666666667
            },
            {
              "pitch": 51,
              "velocity": 50,
              "position": 11.5,
              "duration": 0.004166666666666667
            },
            {
              "pitch": 44,
              "velocity": 52,
              "position": 11.5,
              "duration": 0.004166666666666667
            },
            {
              "pitch": 38,
              "velocity": 57,
              "position": 11.75,
              "duration": 0.004166666666666667
            },
            {
              "pitch": 33,
              "velocity": 68,
              "position": 12,
              "duration": 0.004166666666666667
            },
            {
              "pitch": 51,
              "velocity": 70,
              "position": 12,
              "duration": 0.004166666666666667
            },
            {
              "pitch": 38,
              "velocity": 110,
              "position": 12.5,
              "duration": 0.004166666666666667
            },
            {
              "pitch": 51,
              "velocity": 50,
              "position": 12.5,
              "duration": 0.004166666666666667
            },
            {
              "pitch": 44,
              "velocity": 52,
              "position": 12.5,
              "duration": 0.004166666666666667
            },
            {
              "pitch": 38,
              "velocity": 57,
              "position": 12.75,
              "duration": 0.004166666666666667
            },
            {
              "pitch": 33,
              "velocity": 68,
              "position": 13,
              "duration": 0.004166666666666667
            },
            {
              "pitch": 51,
              "velocity": 70,
              "position": 13,
              "duration": 0.004166666666666667
            },
            {
              "pitch": 38,
              "velocity": 110,
              "position": 13.5,
              "duration": 0.004166666666666667
            },
            {
              "pitch": 51,
              "velocity": 50,
              "position": 13.5,
              "duration": 0.004166666666666667
            },
            {
              "pitch": 44,
              "velocity": 52,
              "position": 13.5,
              "duration": 0.004166666666666667
            },
            {
              "pitch": 38,
              "velocity": 57,
              "position": 13.75,
              "duration": 0.004166666666666667
            },
            {
              "pitch": 33,
              "velocity": 68,
              "position": 14,
              "duration": 0.004166666666666667
            },
            {
              "pitch": 51,
              "velocity": 70,
              "position": 14,
              "duration": 0.004166666666666667
            },
            {
              "pitch": 38,
              "velocity": 110,
              "position": 14.5,
              "duration": 0.004166666666666667
            },
            {
              "pitch": 51,
              "velocity": 50,
              "position": 14.5,
              "duration": 0.004166666666666667
            },
            {
              "pitch": 44,
              "velocity": 52,
              "position": 14.5,
              "duration": 0.004166666666666667
            },
            {
              "pitch": 38,
              "velocity": 57,
              "position": 14.75,
              "duration": 0.004166666666666667
            },
            {
              "pitch": 33,
              "velocity": 68,
              "position": 15,
              "duration": 0.004166666666666667
            },
            {
              "pitch": 51,
              "velocity": 70,
              "position": 15,
              "duration": 0.004166666666666667
            },
            {
              "pitch": 38,
              "velocity": 110,
              "position": 15.5,
              "duration": 0.004166666666666667
            },
            {
              "pitch": 51,
              "velocity": 50,
              "position": 15.5,
              "duration": 0.004166666666666667
            },
            {
              "pitch": 44,
              "velocity": 52,
              "position": 15.5,
              "duration": 0.004166666666666667
            },
            {
              "pitch": 38,
              "velocity": 57,
              "position": 15.75,
              "duration": 0.004166666666666667
            },
            {
              "pitch": 33,
              "velocity": 68,
              "position": 16,
              "duration": 0.004166666666666667
            },
            {
              "pitch": 51,
              "velocity": 70,
              "position": 16,
              "duration": 0.004166666666666667
            },
            {
              "pitch": 38,
              "velocity": 110,
              "position": 16.5,
              "duration": 0.004166666666666667
            },
            {
              "pitch": 51,
              "velocity": 50,
              "position": 16.5,
              "duration": 0.004166666666666667
            },
            {
              "pitch": 44,
              "velocity": 52,
              "position": 16.5,
              "duration": 0.004166666666666667
            },
            {
              "pitch": 38,
              "velocity": 57,
              "position": 16.75,
              "duration": 0.004166666666666667
            },
            {
              "pitch": 33,
              "velocity": 68,
              "position": 17,
              "duration": 0.004166666666666667
            },
            {
              "pitch": 51,
              "velocity": 70,
              "position": 17,
              "duration": 0.004166666666666667
            },
            {
              "pitch": 38,
              "velocity": 110,
              "position": 17.5,
              "duration": 0.004166666666666667
            },
            {
              "pitch": 51,
              "velocity": 50,
              "position": 17.5,
              "duration": 0.004166666666666667
            },
            {
              "pitch": 44,
              "velocity": 52,
              "position": 17.5,
              "duration": 0.004166666666666667
            },
            {
              "pitch": 38,
              "velocity": 57,
              "position": 17.75,
              "duration": 0.004166666666666667
            },
            {
              "pitch": 33,
              "velocity": 68,
              "position": 18,
              "duration": 0.004166666666666667
            },
            {
              "pitch": 51,
              "velocity": 70,
              "position": 18,
              "duration": 0.004166666666666667
            },
            {
              "pitch": 38,
              "velocity": 110,
              "position": 18.5,
              "duration": 0.004166666666666667
            },
            {
              "pitch": 51,
              "velocity": 50,
              "position": 18.5,
              "duration": 0.004166666666666667
            },
            {
              "pitch": 44,
              "velocity": 52,
              "position": 18.5,
              "duration": 0.004166666666666667
            },
            {
              "pitch": 38,
              "velocity": 57,
              "position": 18.75,
              "duration": 0.004166666666666667
            },
            {
              "pitch": 33,
              "velocity": 68,
              "position": 19,
              "duration": 0.004166666666666667
            },
            {
              "pitch": 51,
              "velocity": 70,
              "position": 19,
              "duration": 0.004166666666666667
            },
            {
              "pitch": 38,
              "velocity": 110,
              "position": 19.5,
              "duration": 0.004166666666666667
            },
            {
              "pitch": 51,
              "velocity": 50,
              "position": 19.5,
              "duration": 0.004166666666666667
            },
            {
              "pitch": 44,
              "velocity": 52,
              "position": 19.5,
              "duration": 0.004166666666666667
            },
            {
              "pitch": 38,
              "velocity": 57,
              "position": 19.75,
              "duration": 0.004166666666666667
            },
            {
              "pitch": 33,
              "velocity": 68,
              "position": 20,
              "duration": 0.004166666666666667
            },
            {
              "pitch": 51,
              "velocity": 70,
              "position": 20,
              "duration": 0.004166666666666667
            },
            {
              "pitch": 38,
              "velocity": 110,
              "position": 20.5,
              "duration": 0.004166666666666667
            },
            {
              "pitch": 51,
              "velocity": 50,
              "position": 20.5,
              "duration": 0.004166666666666667
            },
            {
              "pitch": 44,
              "velocity": 52,
              "position": 20.5,
              "duration": 0.004166666666666667
            },
            {
              "pitch": 38,
              "velocity": 57,
              "position": 20.75,
              "duration": 0.004166666666666667
            },
            {
              "pitch": 33,
              "velocity": 68,
              "position": 21,
              "duration": 0.004166666666666667
            },
            {
              "pitch": 51,
              "velocity": 70,
              "position": 21,
              "duration": 0.004166666666666667
            },
            {
              "pitch": 38,
              "velocity": 110,
              "position": 21.5,
              "duration": 0.004166666666666667
            },
            {
              "pitch": 51,
              "velocity": 50,
              "position": 21.5,
              "duration": 0.004166666666666667
            },
            {
              "pitch": 44,
              "velocity": 52,
              "position": 21.5,
              "duration": 0.004166666666666667
            },
            {
              "pitch": 38,
              "velocity": 57,
              "position": 21.75,
              "duration": 0.004166666666666667
            },
            {
              "pitch": 33,
              "velocity": 68,
              "position": 22,
              "duration": 0.004166666666666667
            },
            {
              "pitch": 51,
              "velocity": 70,
              "position": 22,
              "duration": 0.004166666666666667
            },
            {
              "pitch": 38,
              "velocity": 110,
              "position": 22.5,
              "duration": 0.004166666666666667
            },
            {
              "pitch": 51,
              "velocity": 50,
              "position": 22.5,
              "duration": 0.004166666666666667
            },
            {
              "pitch": 44,
              "velocity": 52,
              "position": 22.5,
              "duration": 0.004166666666666667
            },
            {
              "pitch": 38,
              "velocity": 57,
              "position": 22.75,
              "duration": 0.004166666666666667
            },
            {
              "pitch": 33,
              "velocity": 68,
              "position": 23,
              "duration": 0.004166666666666667
            },
            {
              "pitch": 51,
              "velocity": 70,
              "position": 23,
              "duration": 0.004166666666666667
            },
            {
              "pitch": 38,
              "velocity": 110,
              "position": 23.5,
              "duration": 0.004166666666666667
            },
            {
              "pitch": 51,
              "velocity": 50,
              "position": 23.5,
              "duration": 0.004166666666666667
            },
            {
              "pitch": 44,
              "velocity": 52,
              "position": 23.5,
              "duration": 0.004166666666666667
            },
            {
              "pitch": 38,
              "velocity": 57,
              "position": 23.75,
              "duration": 0.004166666666666667
            },
            {
              "pitch": 33,
              "velocity": 68,
              "position": 24,
              "duration": 0.004166666666666667
            },
            {
              "pitch": 51,
              "velocity": 70,
              "position": 24,
              "duration": 0.004166666666666667
            },
            {
              "pitch": 38,
              "velocity": 110,
              "position": 24.5,
              "duration": 0.004166666666666667
            },
            {
              "pitch": 51,
              "velocity": 50,
              "position": 24.5,
              "duration": 0.004166666666666667
            },
            {
              "pitch": 44,
              "velocity": 52,
              "position": 24.5,
              "duration": 0.004166666666666667
            },
            {
              "pitch": 38,
              "velocity": 57,
              "position": 24.75,
              "duration": 0.004166666666666667
            },
            {
              "pitch": 33,
              "velocity": 68,
              "position": 25,
              "duration": 0.004166666666666667
            },
            {
              "pitch": 51,
              "velocity": 70,
              "position": 25,
              "duration": 0.004166666666666667
            },
            {
              "pitch": 38,
              "velocity": 110,
              "position": 25.5,
              "duration": 0.004166666666666667
            },
            {
              "pitch": 51,
              "velocity": 50,
              "position": 25.5,
              "duration": 0.004166666666666667
            },
            {
              "pitch": 44,
              "velocity": 52,
              "position": 25.5,
              "duration": 0.004166666666666667
            },
            {
              "pitch": 38,
              "velocity": 57,
              "position": 25.75,
              "duration": 0.004166666666666667
            },
            {
              "pitch": 33,
              "velocity": 68,
              "position": 26,
              "duration": 0.004166666666666667
            },
            {
              "pitch": 51,
              "velocity": 70,
              "position": 26,
              "duration": 0.004166666666666667
            },
            {
              "pitch": 38,
              "velocity": 110,
              "position": 26.5,
              "duration": 0.004166666666666667
            },
            {
              "pitch": 51,
              "velocity": 50,
              "position": 26.5,
              "duration": 0.004166666666666667
            },
            {
              "pitch": 44,
              "velocity": 52,
              "position": 26.5,
              "duration": 0.004166666666666667
            },
            {
              "pitch": 38,
              "velocity": 57,
              "position": 26.75,
              "duration": 0.004166666666666667
            },
            {
              "pitch": 33,
              "velocity": 68,
              "position": 27,
              "duration": 0.004166666666666667
            },
            {
              "pitch": 51,
              "velocity": 70,
              "position": 27,
              "duration": 0.004166666666666667
            },
            {
              "pitch": 38,
              "velocity": 110,
              "position": 27.5,
              "duration": 0.004166666666666667
            },
            {
              "pitch": 51,
              "velocity": 50,
              "position": 27.5,
              "duration": 0.004166666666666667
            },
            {
              "pitch": 44,
              "velocity": 52,
              "position": 27.5,
              "duration": 0.004166666666666667
            },
            {
              "pitch": 38,
              "velocity": 57,
              "position": 27.75,
              "duration": 0.004166666666666667
            },
            {
              "pitch": 33,
              "velocity": 68,
              "position": 28,
              "duration": 0.004166666666666667
            },
            {
              "pitch": 51,
              "velocity": 70,
              "position": 28,
              "duration": 0.004166666666666667
            },
            {
              "pitch": 38,
              "velocity": 110,
              "position": 28.5,
              "duration": 0.004166666666666667
            },
            {
              "pitch": 51,
              "velocity": 50,
              "position": 28.5,
              "duration": 0.004166666666666667
            },
            {
              "pitch": 44,
              "velocity": 52,
              "position": 28.5,
              "duration": 0.004166666666666667
            },
            {
              "pitch": 38,
              "velocity": 57,
              "position": 28.75,
              "duration": 0.004166666666666667
            },
            {
              "pitch": 33,
              "velocity": 68,
              "position": 29,
              "duration": 0.004166666666666667
            },
            {
              "pitch": 51,
              "velocity": 70,
              "position": 29,
              "duration": 0.004166666666666667
            },
            {
              "pitch": 38,
              "velocity": 110,
              "position": 29.5,
              "duration": 0.004166666666666667
            },
            {
              "pitch": 51,
              "velocity": 50,
              "position": 29.5,
              "duration": 0.004166666666666667
            },
            {
              "pitch": 44,
              "velocity": 52,
              "position": 29.5,
              "duration": 0.004166666666666667
            },
            {
              "pitch": 38,
              "velocity": 57,
              "position": 29.75,
              "duration": 0.004166666666666667
            },
            {
              "pitch": 33,
              "velocity": 68,
              "position": 30,
              "duration": 0.004166666666666667
            },
            {
              "pitch": 51,
              "velocity": 70,
              "position": 30,
              "duration": 0.004166666666666667
            },
            {
              "pitch": 38,
              "velocity": 110,
              "position": 30.5,
              "duration": 0.004166666666666667
            },
            {
              "pitch": 51,
              "velocity": 50,
              "position": 30.5,
              "duration": 0.004166666666666667
            },
            {
              "pitch": 44,
              "velocity": 52,
              "position": 30.5,
              "duration": 0.004166666666666667
            },
            {
              "pitch": 38,
              "velocity": 57,
              "position": 30.75,
              "duration": 0.004166666666666667
            },
            {
              "pitch": 33,
              "velocity": 68,
              "position": 31,
              "duration": 0.004166666666666667
            },
            {
              "pitch": 51,
              "velocity": 70,
              "position": 31,
              "duration": 0.004166666666666667
            },
            {
              "pitch": 38,
              "velocity": 110,
              "position": 31.5,
              "duration": 0.004166666666666667
            },
            {
              "pitch": 51,
              "velocity": 50,
              "position": 31.5,
              "duration": 0.004166666666666667
            },
            {
              "pitch": 44,
              "velocity": 52,
              "position": 31.5,
              "duration": 0.004166666666666667
            },
            {
              "pitch": 38,
              "velocity": 57,
              "position": 31.75,
              "duration": 0.004166666666666667
            }
          ]
        },
        "10": {
          "ctab": {
            "srcChannel": 10,
            "name": "Bs",
            "accType": "BASS",
            "editable": false,
            "mutedNotes": [],
            "mutedChords": [],
            "autoStart": false,
            "sourceChordNote": 0,
            "sourceChordType": "Maj7",
            "ctb2Low": null,
            "ctb2Main": {
              "ntr": "ROOT_TRANSPOSITION",
              "ntt": "MELODY",
              "bassOn": true,
              "chordRootUpperLimit": 8,
              "noteLowLimit": 28,
              "noteHighLimit": 127,
              "rtr": "PITCH_SHIFT_TO_ROOT"
            },
            "ctb2High": null,
            "ctb2MiddleLowPitch": 0,
            "ctb2MiddleHighPitch": 127
          },
          "notes": [
            {
              "pitch": 24,
              "velocity": 50,
              "position": 0,
              "duration": 0.5375
            },
            {
              "pitch": 31,
              "velocity": 50,
              "position": 1,
              "duration": 0.5375
            },
            {
              "pitch": 24,
              "velocity": 50,
              "position": 2,
              "duration": 0.5375
            },
            {
              "pitch": 31,
              "velocity": 50,
              "position": 3,
              "duration": 0.5375
            },
            {
              "pitch": 24,
              "velocity": 50,
              "position": 4,
              "duration": 0.5375
            },
            {
              "pitch": 31,
              "velocity": 50,
              "position": 5,
              "duration": 0.5375
            },
            {
              "pitch": 24,
              "velocity": 50,
              "position": 6,
              "duration": 0.5375
            },
            {
              "pitch": 31,
              "velocity": 50,
              "position": 7,
              "duration": 0.5375
            },
            {
              "pitch": 24,
              "velocity": 50,
              "position": 8,
              "duration": 0.5375
            },
            {
              "pitch": 31,
              "velocity": 50,
              "position": 9,
              "duration": 0.5375
            },
            {
              "pitch": 24,
              "velocity": 50,
              "position": 10,
              "duration": 0.5375
            },
            {
              "pitch": 31,
              "velocity": 50,
              "position": 11,
              "duration": 0.5375
            },
            {
              "pitch": 24,
              "velocity": 50,
              "position": 12,
              "duration": 0.5375
            },
            {
              "pitch": 31,
              "velocity": 50,
              "position": 13,
              "duration": 0.5375
            },
            {
              "pitch": 24,
              "velocity": 50,
              "position": 14,
              "duration": 0.5375
            },
            {
              "pitch": 31,
              "velocity": 50,
              "position": 15,
              "duration": 0.5375
            },
            {
              "pitch": 24,
              "velocity": 50,
              "position": 16,
              "duration": 0.5375
            },
            {
              "pitch": 31,
              "velocity": 50,
              "position": 17,
              "duration": 0.5375
            },
            {
              "pitch": 24,
              "velocity": 50,
              "position": 18,
              "duration": 0.5375
            },
            {
              "pitch": 31,
              "velocity": 50,
              "position": 19,
              "duration": 0.5375
            },
            {
              "pitch": 24,
              "velocity": 50,
              "position": 20,
              "duration": 0.5375
            },
            {
              "pitch": 31,
              "velocity": 50,
              "position": 21,
              "duration": 0.5375
            },
            {
              "pitch": 24,
              "velocity": 50,
              "position": 22,
              "duration": 0.5375
            },
            {
              "pitch": 31,
              "velocity": 50,
              "position": 23,
              "duration": 0.5375
            },
            {
              "pitch": 24,
              "velocity": 50,
              "position": 24,
              "duration": 0.5375
            },
            {
              "pitch": 31,
              "velocity": 50,
              "position": 25,
              "duration": 0.5375
            },
            {
              "pitch": 24,
              "velocity": 50,
              "position": 26,
              "duration": 0.5375
            },
            {
              "pitch": 31,
              "velocity": 50,
              "position": 27,
              "duration": 0.5375
            },
            {
              "pitch": 24,
              "velocity": 50,
              "position": 28,
              "duration": 0.5375
            },
            {
              "pitch": 31,
              "velocity": 50,
              "position": 29,
              "duration": 0.5375
            },
            {
              "pitch": 24,
              "velocity": 50,
              "position": 30,
              "duration": 0.5375
            },
            {
              "pitch": 31,
              "velocity": 50,
              "position": 31,
              "duration": 0.5375
            }
          ]
        },
        "11": {
          "ctab": {
            "srcChannel": 11,
            "name": "Tele",
            "accType": "CHORD1",
            "editable": false,
            "mutedNotes": [],
            "mutedChords": [],
            "autoStart": false,
            "sourceChordNote": 0,
            "sourceChordType": "Maj7",
            "ctb2Low": null,
            "ctb2Main": {
              "ntr": "GUITAR",
              "ntt": "ARPEGGIO",
              "bassOn": false,
              "chordRootUpperLimit": 7,
              "noteLowLimit": 0,
              "noteHighLimit": 79,
              "rtr": "PITCH_SHIFT"
            },
            "ctb2High": null,
            "ctb2MiddleLowPitch": 0,
            "ctb2MiddleHighPitch": 127
          },
          "notes": [
            {
              "pitch": 57,
              "velocity": 10,
              "position": 0.25,
              "duration": 0.9916666666666667
            },
            {
              "pitch": 53,
              "velocity": 30,
              "position": 0.5,
              "duration": 0.9916666666666667
            },
            {
              "pitch": 59,
              "velocity": 40,
              "position": 0,
              "duration": 1.7416666666666667
            },
            {
              "pitch": 53,
              "velocity": 20,
              "position": 1.5,
              "duration": 0.9916666666666667
            },
            {
              "pitch": 55,
              "velocity": 40,
              "position": 0.75,
              "duration": 1.9916666666666667
            },
            {
              "pitch": 59,
              "velocity": 20,
              "position": 1.75,
              "duration": 1.4916666666666667
            },
            {
              "pitch": 53,
              "velocity": 30,
              "position": 2.5,
              "duration": 0.9916666666666667
            },
            {
              "pitch": 57,
              "velocity": 30,
              "position": 1.25,
              "duration": 2.4916666666666667
            },
            {
              "pitch": 126,
              "velocity": 40,
              "position": 3.5,
              "duration": 0.24166666666666667
            },
            {
              "pitch": 53,
              "velocity": 40,
              "position": 3.5,
              "duration": 0.49166666666666664
            },
            {
              "pitch": 55,
              "velocity": 30,
              "position": 2.75,
              "duration": 1.2416666666666667
            },
            {
              "pitch": 59,
              "velocity": 30,
              "position": 3.25,
              "duration": 0.7416666666666667
            },
            {
              "pitch": 55,
              "velocity": 10,
              "position": 4.25,
              "duration": 0.49166666666666664
            },
            {
              "pitch": 57,
              "velocity": 21,
              "position": 3.75,
              "duration": 1.4916666666666667
            },
            {
              "pitch": 53,
              "velocity": 30,
              "position": 4.5,
              "duration": 0.9916666666666667
            },
            {
              "pitch": 53,
              "velocity": 20,
              "position": 5.5,
              "duration": 0.9916666666666667
            },
            {
              "pitch": 57,
              "velocity": 30,
              "position": 5.25,
              "duration": 1.4916666666666667
            },
            {
              "pitch": 55,
              "velocity": 40,
              "position": 4.75,
              "duration": 2.4916666666666667
            },
            {
              "pitch": 53,
              "velocity": 30,
              "position": 6.5,
              "duration": 0.9916666666666667
            },
            {
              "pitch": 59,
              "velocity": 20,
              "position": 5.75,
              "duration": 1.9916666666666667
            },
            {
              "pitch": 123,
              "velocity": 51,
              "position": 7.5,
              "duration": 0.24166666666666667
            },
            {
              "pitch": 53,
              "velocity": 40,
              "position": 7.5,
              "duration": 0.49166666666666664
            },
            {
              "pitch": 57,
              "velocity": 30,
              "position": 6.75,
              "duration": 1.2416666666666667
            },
            {
              "pitch": 55,
              "velocity": 30,
              "position": 7.25,
              "duration": 0.7416666666666667
            },
            {
              "pitch": 57,
              "velocity": 10,
              "position": 8.25,
              "duration": 0.9916666666666667
            },
            {
              "pitch": 53,
              "velocity": 30,
              "position": 8.5,
              "duration": 0.9916666666666667
            },
            {
              "pitch": 59,
              "velocity": 41,
              "position": 7.75,
              "duration": 1.9916666666666667
            },
            {
              "pitch": 53,
              "velocity": 20,
              "position": 9.5,
              "duration": 0.9916666666666667
            },
            {
              "pitch": 55,
              "velocity": 40,
              "position": 8.75,
              "duration": 1.9916666666666667
            },
            {
              "pitch": 59,
              "velocity": 20,
              "position": 9.75,
              "duration": 1.4916666666666667
            },
            {
              "pitch": 53,
              "velocity": 30,
              "position": 10.5,
              "duration": 0.9916666666666667
            },
            {
              "pitch": 57,
              "velocity": 30,
              "position": 9.25,
              "duration": 2.4916666666666667
            },
            {
              "pitch": 127,
              "velocity": 40,
              "position": 11.5,
              "duration": 0.24166666666666667
            },
            {
              "pitch": 53,
              "velocity": 40,
              "position": 11.5,
              "duration": 0.49166666666666664
            },
            {
              "pitch": 55,
              "velocity": 30,
              "position": 10.75,
              "duration": 1.2416666666666667
            },
            {
              "pitch": 59,
              "velocity": 30,
              "position": 11.25,
              "duration": 0.7416666666666667
            },
            {
              "pitch": 55,
              "velocity": 10,
              "position": 12.25,
              "duration": 0.49166666666666664
            },
            {
              "pitch": 57,
              "velocity": 21,
              "position": 11.75,
              "duration": 1.4916666666666667
            },
            {
              "pitch": 53,
              "velocity": 30,
              "position": 12.5,
              "duration": 0.9916666666666667
            },
            {
              "pitch": 53,
              "velocity": 20,
              "position": 13.5,
              "duration": 0.9916666666666667
            },
            {
              "pitch": 55,
              "velocity": 40,
              "position": 12.75,
              "duration": 1.9916666666666667
            },
            {
              "pitch": 57,
              "velocity": 30,
              "position": 13.25,
              "duration": 1.9916666666666667
            },
            {
              "pitch": 53,
              "velocity": 30,
              "position": 14.5,
              "duration": 0.9916666666666667
            },
            {
              "pitch": 55,
              "velocity": 30,
              "position": 14.75,
              "duration": 0.9916666666666667
            },
            {
              "pitch": 124,
              "velocity": 40,
              "position": 15.5,
              "duration": 0.24166666666666667
            },
            {
              "pitch": 53,
              "velocity": 40,
              "position": 15.5,
              "duration": 0.4895833333333333
            },
            {
              "pitch": 55,
              "velocity": 10,
              "position": 15.75,
              "duration": 0.23958333333333334
            },
            {
              "pitch": 59,
              "velocity": 20,
              "position": 13.75,
              "duration": 2.2395833333333335
            },
            {
              "pitch": 57,
              "velocity": 30,
              "position": 15.25,
              "duration": 0.7395833333333334
            },
            {
              "pitch": 57,
              "velocity": 10,
              "position": 16.25,
              "duration": 0.9916666666666667
            },
            {
              "pitch": 53,
              "velocity": 30,
              "position": 16.5,
              "duration": 0.9916666666666667
            },
            {
              "pitch": 59,
              "velocity": 40,
              "position": 16,
              "duration": 1.7416666666666667
            },
            {
              "pitch": 53,
              "velocity": 20,
              "position": 17.5,
              "duration": 0.9916666666666667
            },
            {
              "pitch": 55,
              "velocity": 40,
              "position": 16.75,
              "duration": 1.9916666666666667
            },
            {
              "pitch": 59,
              "velocity": 20,
              "position": 17.75,
              "duration": 1.4916666666666667
            },
            {
              "pitch": 53,
              "velocity": 30,
              "position": 18.5,
              "duration": 0.9916666666666667
            },
            {
              "pitch": 57,
              "velocity": 30,
              "position": 17.25,
              "duration": 2.4916666666666667
            },
            {
              "pitch": 126,
              "velocity": 40,
              "position": 19.5,
              "duration": 0.24166666666666667
            },
            {
              "pitch": 53,
              "velocity": 40,
              "position": 19.5,
              "duration": 0.49166666666666664
            },
            {
              "pitch": 55,
              "velocity": 30,
              "position": 18.75,
              "duration": 1.2416666666666667
            },
            {
              "pitch": 59,
              "velocity": 30,
              "position": 19.25,
              "duration": 0.7416666666666667
            },
            {
              "pitch": 55,
              "velocity": 10,
              "position": 20.25,
              "duration": 0.49166666666666664
            },
            {
              "pitch": 57,
              "velocity": 21,
              "position": 19.75,
              "duration": 1.4916666666666667
            },
            {
              "pitch": 53,
              "velocity": 30,
              "position": 20.5,
              "duration": 0.9916666666666667
            },
            {
              "pitch": 53,
              "velocity": 20,
              "position": 21.5,
              "duration": 0.9916666666666667
            },
            {
              "pitch": 57,
              "velocity": 30,
              "position": 21.25,
              "duration": 1.4916666666666667
            },
            {
              "pitch": 55,
              "velocity": 40,
              "position": 20.75,
              "duration": 2.4916666666666667
            },
            {
              "pitch": 53,
              "velocity": 30,
              "position": 22.5,
              "duration": 0.9916666666666667
            },
            {
              "pitch": 59,
              "velocity": 20,
              "position": 21.75,
              "duration": 1.9916666666666667
            },
            {
              "pitch": 123,
              "velocity": 51,
              "position": 23.5,
              "duration": 0.24166666666666667
            },
            {
              "pitch": 53,
              "velocity": 40,
              "position": 23.5,
              "duration": 0.49166666666666664
            },
            {
              "pitch": 57,
              "velocity": 30,
              "position": 22.75,
              "duration": 1.2416666666666667
            },
            {
              "pitch": 55,
              "velocity": 30,
              "position": 23.25,
              "duration": 0.7416666666666667
            },
            {
              "pitch": 57,
              "velocity": 10,
              "position": 24.25,
              "duration": 0.9916666666666667
            },
            {
              "pitch": 53,
              "velocity": 30,
              "position": 24.5,
              "duration": 0.9916666666666667
            },
            {
              "pitch": 59,
              "velocity": 41,
              "position": 23.75,
              "duration": 1.9916666666666667
            },
            {
              "pitch": 53,
              "velocity": 20,
              "position": 25.5,
              "duration": 0.9916666666666667
            },
            {
              "pitch": 55,
              "velocity": 40,
              "position": 24.75,
              "duration": 1.9916666666666667
            },
            {
              "pitch": 59,
              "velocity": 20,
              "position": 25.75,
              "duration": 1.4916666666666667
            },
            {
              "pitch": 53,
              "velocity": 30,
              "position": 26.5,
              "duration": 0.9916666666666667
            },
            {
              "pitch": 57,
              "velocity": 30,
              "position": 25.25,
              "duration": 2.4916666666666667
            },
            {
              "pitch": 127,
              "velocity": 40,
              "position": 27.5,
              "duration": 0.24166666666666667
            },
            {
              "pitch": 53,
              "velocity": 40,
              "position": 27.5,
              "duration": 0.49166666666666664
            },
            {
              "pitch": 55,
              "velocity": 30,
              "position": 26.75,
              "duration": 1.2416666666666667
            },
            {
              "pitch": 59,
              "velocity": 30,
              "position": 27.25,
              "duration": 0.7416666666666667
            },
            {
              "pitch": 55,
              "velocity": 10,
              "position": 28.25,
              "duration": 0.49166666666666664
            },
            {
              "pitch": 57,
              "velocity": 21,
              "position": 27.75,
              "duration": 1.4916666666666667
            },
            {
              "pitch": 53,
              "velocity": 30,
              "position": 28.5,
              "duration": 0.9916666666666667
            },
            {
              "pitch": 53,
              "velocity": 20,
              "position": 29.5,
              "duration": 0.9916666666666667
            },
            {
              "pitch": 55,
              "velocity": 40,
              "position": 28.75,
              "duration": 1.9916666666666667
            },
            {
              "pitch": 57,
              "velocity": 30,
              "position": 29.25,
              "duration": 1.9916666666666667
            },
            {
              "pitch": 53,
              "velocity": 30,
              "position": 30.5,
              "duration": 0.9916666666666667
            },
            {
              "pitch": 55,
              "velocity": 30,
              "position": 30.75,
              "duration": 0.9916666666666667
            },
            {
              "pitch": 124,
              "velocity": 40,
              "position": 31.5,
              "duration": 0.24166666666666667
            },
            {
              "pitch": 53,
              "velocity": 40,
              "position": 31.5,
              "duration": 0.4895833333333333
            },
            {
              "pitch": 55,
              "velocity": 10,
              "position": 31.75,
              "duration": 0.23958333333333334
            },
            {
              "pitch": 59,
              "velocity": 20,
              "position": 29.75,
              "duration": 2.2395833333333335
            },
            {
              "pitch": 57,
              "velocity": 30,
              "position": 31.25,
              "duration": 0.7395833333333334
            }
          ]
        },
        "12": {
          "ctab": {
            "srcChannel": 12,
            "name": "Steel",
            "accType": "CHORD2",
            "editable": false,
            "mutedNotes": [],
            "mutedChords": [],
            "autoStart": false,
            "sourceChordNote": 0,
            "sourceChordType": "Maj7",
            "ctb2Low": null,
            "ctb2Main": {
              "ntr": "GUITAR",
              "ntt": "ARPEGGIO",
              "bassOn": false,
              "chordRootUpperLimit": 7,
              "noteLowLimit": 0,
              "noteHighLimit": 127,
              "rtr": "PITCH_SHIFT"
            },
            "ctb2High": null,
            "ctb2MiddleLowPitch": 0,
            "ctb2MiddleHighPitch": 127
          },
          "notes": [
            {
              "pitch": 57,
              "velocity": 9,
              "position": 0.25,
              "duration": 0.9916666666666667
            },
            {
              "pitch": 53,
              "velocity": 29,
              "position": 0.5,
              "duration": 0.9916666666666667
            },
            {
              "pitch": 59,
              "velocity": 40,
              "position": 0,
              "duration": 1.7416666666666667
            },
            {
              "pitch": 53,
              "velocity": 19,
              "position": 1.5,
              "duration": 0.9916666666666667
            },
            {
              "pitch": 55,
              "velocity": 39,
              "position": 0.75,
              "duration": 1.9916666666666667
            },
            {
              "pitch": 59,
              "velocity": 19,
              "position": 1.75,
              "duration": 1.4916666666666667
            },
            {
              "pitch": 53,
              "velocity": 29,
              "position": 2.5,
              "duration": 0.9916666666666667
            },
            {
              "pitch": 57,
              "velocity": 29,
              "position": 1.25,
              "duration": 2.4916666666666667
            },
            {
              "pitch": 53,
              "velocity": 39,
              "position": 3.5,
              "duration": 0.49166666666666664
            },
            {
              "pitch": 55,
              "velocity": 29,
              "position": 2.75,
              "duration": 1.2416666666666667
            },
            {
              "pitch": 59,
              "velocity": 29,
              "position": 3.25,
              "duration": 0.7416666666666667
            },
            {
              "pitch": 55,
              "velocity": 9,
              "position": 4.25,
              "duration": 0.49166666666666664
            },
            {
              "pitch": 57,
              "velocity": 20,
              "position": 3.75,
              "duration": 1.4916666666666667
            },
            {
              "pitch": 53,
              "velocity": 29,
              "position": 4.5,
              "duration": 0.9916666666666667
            },
            {
              "pitch": 53,
              "velocity": 19,
              "position": 5.5,
              "duration": 0.9916666666666667
            },
            {
              "pitch": 57,
              "velocity": 29,
              "position": 5.25,
              "duration": 1.4916666666666667
            },
            {
              "pitch": 55,
              "velocity": 39,
              "position": 4.75,
              "duration": 2.4916666666666667
            },
            {
              "pitch": 53,
              "velocity": 29,
              "position": 6.5,
              "duration": 0.9916666666666667
            },
            {
              "pitch": 59,
              "velocity": 19,
              "position": 5.75,
              "duration": 1.9916666666666667
            },
            {
              "pitch": 53,
              "velocity": 39,
              "position": 7.5,
              "duration": 0.49166666666666664
            },
            {
              "pitch": 57,
              "velocity": 29,
              "position": 6.75,
              "duration": 1.2416666666666667
            },
            {
              "pitch": 55,
              "velocity": 29,
              "position": 7.25,
              "duration": 0.7416666666666667
            },
            {
              "pitch": 57,
              "velocity": 9,
              "position": 8.25,
              "duration": 0.9916666666666667
            },
            {
              "pitch": 53,
              "velocity": 29,
              "position": 8.5,
              "duration": 0.9916666666666667
            },
            {
              "pitch": 59,
              "velocity": 40,
              "position": 7.75,
              "duration": 1.9916666666666667
            },
            {
              "pitch": 53,
              "velocity": 19,
              "position": 9.5,
              "duration": 0.9916666666666667
            },
            {
              "pitch": 55,
              "velocity": 39,
              "position": 8.75,
              "duration": 1.9916666666666667
            },
            {
              "pitch": 59,
              "velocity": 19,
              "position": 9.75,
              "duration": 1.4916666666666667
            },
            {
              "pitch": 53,
              "velocity": 29,
              "position": 10.5,
              "duration": 0.9916666666666667
            },
            {
              "pitch": 57,
              "velocity": 29,
              "position": 9.25,
              "duration": 2.4916666666666667
            },
            {
              "pitch": 53,
              "velocity": 39,
              "position": 11.5,
              "duration": 0.49166666666666664
            },
            {
              "pitch": 55,
              "velocity": 29,
              "position": 10.75,
              "duration": 1.2416666666666667
            },
            {
              "pitch": 59,
              "velocity": 29,
              "position": 11.25,
              "duration": 0.7416666666666667
            },
            {
              "pitch": 55,
              "velocity": 9,
              "position": 12.25,
              "duration": 0.49166666666666664
            },
            {
              "pitch": 57,
              "velocity": 20,
              "position": 11.75,
              "duration": 1.4916666666666667
            },
            {
              "pitch": 53,
              "velocity": 29,
              "position": 12.5,
              "duration": 0.9916666666666667
            },
            {
              "pitch": 53,
              "velocity": 19,
              "position": 13.5,
              "duration": 0.9916666666666667
            },
            {
              "pitch": 55,
              "velocity": 39,
              "position": 12.75,
              "duration": 1.9916666666666667
            },
            {
              "pitch": 57,
              "velocity": 29,
              "position": 13.25,
              "duration": 1.9916666666666667
            },
            {
              "pitch": 53,
              "velocity": 29,
              "position": 14.5,
              "duration": 0.9916666666666667
            },
            {
              "pitch": 55,
              "velocity": 29,
              "position": 14.75,
              "duration": 0.9916666666666667
            },
            {
              "pitch": 53,
              "velocity": 39,
              "position": 15.5,
              "duration": 0.4895833333333333
            },
            {
              "pitch": 55,
              "velocity": 9,
              "position": 15.75,
              "duration": 0.23958333333333334
            },
            {
              "pitch": 59,
              "velocity": 19,
              "position": 13.75,
              "duration": 2.2395833333333335
            },
            {
              "pitch": 57,
              "velocity": 29,
              "position": 15.25,
              "duration": 0.7395833333333334
            },
            {
              "pitch": 57,
              "velocity": 9,
              "position": 16.25,
              "duration": 0.9916666666666667
            },
            {
              "pitch": 53,
              "velocity": 29,
              "position": 16.5,
              "duration": 0.9916666666666667
            },
            {
              "pitch": 59,
              "velocity": 40,
              "position": 16,
              "duration": 1.7416666666666667
            },
            {
              "pitch": 53,
              "velocity": 19,
              "position": 17.5,
              "duration": 0.9916666666666667
            },
            {
              "pitch": 55,
              "velocity": 39,
              "position": 16.75,
              "duration": 1.9916666666666667
            },
            {
              "pitch": 59,
              "velocity": 19,
              "position": 17.75,
              "duration": 1.4916666666666667
            },
            {
              "pitch": 53,
              "velocity": 29,
              "position": 18.5,
              "duration": 0.9916666666666667
            },
            {
              "pitch": 57,
              "velocity": 29,
              "position": 17.25,
              "duration": 2.4916666666666667
            },
            {
              "pitch": 53,
              "velocity": 39,
              "position": 19.5,
              "duration": 0.49166666666666664
            },
            {
              "pitch": 55,
              "velocity": 29,
              "position": 18.75,
              "duration": 1.2416666666666667
            },
            {
              "pitch": 59,
              "velocity": 29,
              "position": 19.25,
              "duration": 0.7416666666666667
            },
            {
              "pitch": 55,
              "velocity": 9,
              "position": 20.25,
              "duration": 0.49166666666666664
            },
            {
              "pitch": 57,
              "velocity": 20,
              "position": 19.75,
              "duration": 1.4916666666666667
            },
            {
              "pitch": 53,
              "velocity": 29,
              "position": 20.5,
              "duration": 0.9916666666666667
            },
            {
              "pitch": 53,
              "velocity": 19,
              "position": 21.5,
              "duration": 0.9916666666666667
            },
            {
              "pitch": 57,
              "velocity": 29,
              "position": 21.25,
              "duration": 1.4916666666666667
            },
            {
              "pitch": 55,
              "velocity": 39,
              "position": 20.75,
              "duration": 2.4916666666666667
            },
            {
              "pitch": 53,
              "velocity": 29,
              "position": 22.5,
              "duration": 0.9916666666666667
            },
            {
              "pitch": 59,
              "velocity": 19,
              "position": 21.75,
              "duration": 1.9916666666666667
            },
            {
              "pitch": 53,
              "velocity": 39,
              "position": 23.5,
              "duration": 0.49166666666666664
            },
            {
              "pitch": 57,
              "velocity": 29,
              "position": 22.75,
              "duration": 1.2416666666666667
            },
            {
              "pitch": 55,
              "velocity": 29,
              "position": 23.25,
              "duration": 0.7416666666666667
            },
            {
              "pitch": 57,
              "velocity": 9,
              "position": 24.25,
              "duration": 0.9916666666666667
            },
            {
              "pitch": 53,
              "velocity": 29,
              "position": 24.5,
              "duration": 0.9916666666666667
            },
            {
              "pitch": 59,
              "velocity": 40,
              "position": 23.75,
              "duration": 1.9916666666666667
            },
            {
              "pitch": 53,
              "velocity": 19,
              "position": 25.5,
              "duration": 0.9916666666666667
            },
            {
              "pitch": 55,
              "velocity": 39,
              "position": 24.75,
              "duration": 1.9916666666666667
            },
            {
              "pitch": 59,
              "velocity": 19,
              "position": 25.75,
              "duration": 1.4916666666666667
            },
            {
              "pitch": 53,
              "velocity": 29,
              "position": 26.5,
              "duration": 0.9916666666666667
            },
            {
              "pitch": 57,
              "velocity": 29,
              "position": 25.25,
              "duration": 2.4916666666666667
            },
            {
              "pitch": 53,
              "velocity": 39,
              "position": 27.5,
              "duration": 0.49166666666666664
            },
            {
              "pitch": 55,
              "velocity": 29,
              "position": 26.75,
              "duration": 1.2416666666666667
            },
            {
              "pitch": 59,
              "velocity": 29,
              "position": 27.25,
              "duration": 0.7416666666666667
            },
            {
              "pitch": 55,
              "velocity": 9,
              "position": 28.25,
              "duration": 0.49166666666666664
            },
            {
              "pitch": 57,
              "velocity": 20,
              "position": 27.75,
              "duration": 1.4916666666666667
            },
            {
              "pitch": 53,
              "velocity": 29,
              "position": 28.5,
              "duration": 0.9916666666666667
            },
            {
              "pitch": 53,
              "velocity": 19,
              "position": 29.5,
              "duration": 0.9916666666666667
            },
            {
              "pitch": 55,
              "velocity": 39,
              "position": 28.75,
              "duration": 1.9916666666666667
            },
            {
              "pitch": 57,
              "velocity": 29,
              "position": 29.25,
              "duration": 1.9916666666666667
            },
            {
              "pitch": 53,
              "velocity": 29,
              "position": 30.5,
              "duration": 0.9916666666666667
            },
            {
              "pitch": 55,
              "velocity": 29,
              "position": 30.75,
              "duration": 0.9916666666666667
            },
            {
              "pitch": 53,
              "velocity": 39,
              "position": 31.5,
              "duration": 0.4895833333333333
            },
            {
              "pitch": 55,
              "velocity": 9,
              "position": 31.75,
              "duration": 0.23958333333333334
            },
            {
              "pitch": 59,
              "velocity": 19,
              "position": 29.75,
              "duration": 2.2395833333333335
            },
            {
              "pitch": 57,
              "velocity": 29,
              "position": 31.25,
              "duration": 0.7395833333333334
            }
          ]
        },
        "13": {
          "ctab": {
            "srcChannel": 13,
            "name": "P1_Horn",
            "accType": "PAD",
            "editable": false,
            "mutedNotes": [],
            "mutedChords": [],
            "autoStart": false,
            "sourceChordNote": 0,
            "sourceChordType": "Maj7",
            "ctb2Low": null,
            "ctb2Main": {
              "ntr": "ROOT_FIXED",
              "ntt": "CHORD",
              "bassOn": false,
              "chordRootUpperLimit": 3,
              "noteLowLimit": 0,
              "noteHighLimit": 127,
              "rtr": "PITCH_SHIFT"
            },
            "ctb2High": null,
            "ctb2MiddleLowPitch": 0,
            "ctb2MiddleHighPitch": 127
          },
          "notes": [
            {
              "pitch": 67,
              "velocity": 42,
              "position": 0.00625,
              "duration": 5.827083333333333
            },
            {
              "pitch": 64,
              "velocity": 58,
              "position": 6.002083333333333,
              "duration": 0.9875
            },
            {
              "pitch": 59,
              "velocity": 62,
              "position": 7.002083333333333,
              "duration": 0.9833333333333333
            },
            {
              "pitch": 67,
              "velocity": 43,
              "position": 8,
              "duration": 4.8125
            },
            {
              "pitch": 64,
              "velocity": 58,
              "position": 13.066666666666666,
              "duration": 0.9291666666666667
            },
            {
              "pitch": 67,
              "velocity": 55,
              "position": 14.004166666666666,
              "duration": 0.9916666666666667
            },
            {
              "pitch": 71,
              "velocity": 56,
              "position": 15.004166666666666,
              "duration": 0.9854166666666667
            },
            {
              "pitch": 67,
              "velocity": 42,
              "position": 16.00625,
              "duration": 5.827083333333333
            },
            {
              "pitch": 64,
              "velocity": 58,
              "position": 22.002083333333335,
              "duration": 0.9875
            },
            {
              "pitch": 59,
              "velocity": 62,
              "position": 23.002083333333335,
              "duration": 0.9833333333333333
            },
            {
              "pitch": 67,
              "velocity": 43,
              "position": 24,
              "duration": 4.8125
            },
            {
              "pitch": 64,
              "velocity": 58,
              "position": 29.066666666666666,
              "duration": 0.9291666666666667
            },
            {
              "pitch": 67,
              "velocity": 55,
              "position": 30.004166666666666,
              "duration": 0.9916666666666667
            },
            {
              "pitch": 71,
              "velocity": 56,
              "position": 31.004166666666666,
              "duration": 0.9854166666666667
            }
          ]
        },
        "14": {
          "ctab": {
            "srcChannel": 14,
            "name": "HiStr",
            "accType": "PHRASE1",
            "editable": false,
            "mutedNotes": [],
            "mutedChords": [],
            "autoStart": false,
            "sourceChordNote": 0,
            "sourceChordType": "Maj7",
            "ctb2Low": null,
            "ctb2Main": {
              "ntr": "GUITAR",
              "ntt": "ARPEGGIO",
              "bassOn": false,
              "chordRootUpperLimit": 7,
              "noteLowLimit": 0,
              "noteHighLimit": 127,
              "rtr": "PITCH_SHIFT"
            },
            "ctb2High": null,
            "ctb2MiddleLowPitch": 0,
            "ctb2MiddleHighPitch": 127
          },
          "notes": [
            {
              "pitch": 65,
              "velocity": 16,
              "position": 0.5,
              "duration": 0.9916666666666667
            },
            {
              "pitch": 69,
              "velocity": 68,
              "position": 0.75,
              "duration": 0.9916666666666667
            },
            {
              "pitch": 65,
              "velocity": 33,
              "position": 1.5,
              "duration": 0.9916666666666667
            },
            {
              "pitch": 69,
              "velocity": 33,
              "position": 1.75,
              "duration": 0.9916666666666667
            },
            {
              "pitch": 67,
              "velocity": 51,
              "position": 1.25,
              "duration": 1.9916666666666667
            },
            {
              "pitch": 65,
              "velocity": 51,
              "position": 2.5,
              "duration": 0.9916666666666667
            },
            {
              "pitch": 69,
              "velocity": 51,
              "position": 2.75,
              "duration": 0.9916666666666667
            },
            {
              "pitch": 65,
              "velocity": 68,
              "position": 3.5,
              "duration": 0.49166666666666664
            },
            {
              "pitch": 69,
              "velocity": 33,
              "position": 3.75,
              "duration": 0.24166666666666667
            },
            {
              "pitch": 71,
              "velocity": 86,
              "position": 0,
              "duration": 3.9916666666666667
            },
            {
              "pitch": 67,
              "velocity": 51,
              "position": 3.25,
              "duration": 0.7416666666666667
            },
            {
              "pitch": 65,
              "velocity": 33,
              "position": 4.5,
              "duration": 0.9916666666666667
            },
            {
              "pitch": 69,
              "velocity": 61,
              "position": 4.75,
              "duration": 0.9916666666666667
            },
            {
              "pitch": 65,
              "velocity": 51,
              "position": 5.5,
              "duration": 0.9916666666666667
            },
            {
              "pitch": 69,
              "velocity": 33,
              "position": 5.75,
              "duration": 0.9916666666666667
            },
            {
              "pitch": 67,
              "velocity": 51,
              "position": 5.25,
              "duration": 1.9916666666666667
            },
            {
              "pitch": 65,
              "velocity": 68,
              "position": 6.5,
              "duration": 0.9916666666666667
            },
            {
              "pitch": 69,
              "velocity": 51,
              "position": 6.75,
              "duration": 0.9916666666666667
            },
            {
              "pitch": 65,
              "velocity": 68,
              "position": 7.5,
              "duration": 0.49166666666666664
            },
            {
              "pitch": 69,
              "velocity": 33,
              "position": 7.75,
              "duration": 0.24166666666666667
            },
            {
              "pitch": 71,
              "velocity": 36,
              "position": 4,
              "duration": 3.9916666666666667
            },
            {
              "pitch": 67,
              "velocity": 51,
              "position": 7.25,
              "duration": 0.7416666666666667
            },
            {
              "pitch": 65,
              "velocity": 16,
              "position": 8.5,
              "duration": 0.9916666666666667
            },
            {
              "pitch": 69,
              "velocity": 62,
              "position": 8.75,
              "duration": 0.9916666666666667
            },
            {
              "pitch": 65,
              "velocity": 33,
              "position": 9.5,
              "duration": 0.9916666666666667
            },
            {
              "pitch": 69,
              "velocity": 33,
              "position": 9.75,
              "duration": 0.9916666666666667
            },
            {
              "pitch": 67,
              "velocity": 51,
              "position": 9.25,
              "duration": 1.9916666666666667
            },
            {
              "pitch": 65,
              "velocity": 51,
              "position": 10.5,
              "duration": 0.9916666666666667
            },
            {
              "pitch": 69,
              "velocity": 68,
              "position": 10.75,
              "duration": 0.9916666666666667
            },
            {
              "pitch": 65,
              "velocity": 68,
              "position": 11.5,
              "duration": 0.49166666666666664
            },
            {
              "pitch": 69,
              "velocity": 33,
              "position": 11.75,
              "duration": 0.24166666666666667
            },
            {
              "pitch": 71,
              "velocity": 69,
              "position": 8,
              "duration": 3.9916666666666667
            },
            {
              "pitch": 67,
              "velocity": 51,
              "position": 11.25,
              "duration": 0.7416666666666667
            },
            {
              "pitch": 65,
              "velocity": 33,
              "position": 12.5,
              "duration": 0.9916666666666667
            },
            {
              "pitch": 69,
              "velocity": 61,
              "position": 12.75,
              "duration": 0.9916666666666667
            },
            {
              "pitch": 65,
              "velocity": 51,
              "position": 13.5,
              "duration": 0.9916666666666667
            },
            {
              "pitch": 69,
              "velocity": 33,
              "position": 13.75,
              "duration": 0.9916666666666667
            },
            {
              "pitch": 67,
              "velocity": 51,
              "position": 13.25,
              "duration": 1.9916666666666667
            },
            {
              "pitch": 65,
              "velocity": 33,
              "position": 14.5,
              "duration": 0.9916666666666667
            },
            {
              "pitch": 69,
              "velocity": 69,
              "position": 14.75,
              "duration": 0.9916666666666667
            },
            {
              "pitch": 65,
              "velocity": 68,
              "position": 15.5,
              "duration": 0.4895833333333333
            },
            {
              "pitch": 69,
              "velocity": 33,
              "position": 15.75,
              "duration": 0.23958333333333334
            },
            {
              "pitch": 71,
              "velocity": 36,
              "position": 12,
              "duration": 3.9895833333333335
            },
            {
              "pitch": 67,
              "velocity": 51,
              "position": 15.25,
              "duration": 0.7395833333333334
            },
            {
              "pitch": 65,
              "velocity": 16,
              "position": 16.5,
              "duration": 0.9916666666666667
            },
            {
              "pitch": 69,
              "velocity": 68,
              "position": 16.75,
              "duration": 0.9916666666666667
            },
            {
              "pitch": 65,
              "velocity": 33,
              "position": 17.5,
              "duration": 0.9916666666666667
            },
            {
              "pitch": 69,
              "velocity": 33,
              "position": 17.75,
              "duration": 0.9916666666666667
            },
            {
              "pitch": 67,
              "velocity": 51,
              "position": 17.25,
              "duration": 1.9916666666666667
            },
            {
              "pitch": 65,
              "velocity": 51,
              "position": 18.5,
              "duration": 0.9916666666666667
            },
            {
              "pitch": 69,
              "velocity": 51,
              "position": 18.75,
              "duration": 0.9916666666666667
            },
            {
              "pitch": 65,
              "velocity": 68,
              "position": 19.5,
              "duration": 0.49166666666666664
            },
            {
              "pitch": 69,
              "velocity": 33,
              "position": 19.75,
              "duration": 0.24166666666666667
            },
            {
              "pitch": 71,
              "velocity": 86,
              "position": 16,
              "duration": 3.9916666666666667
            },
            {
              "pitch": 67,
              "velocity": 51,
              "position": 19.25,
              "duration": 0.7416666666666667
            },
            {
              "pitch": 65,
              "velocity": 33,
              "position": 20.5,
              "duration": 0.9916666666666667
            },
            {
              "pitch": 69,
              "velocity": 61,
              "position": 20.75,
              "duration": 0.9916666666666667
            },
            {
              "pitch": 65,
              "velocity": 51,
              "position": 21.5,
              "duration": 0.9916666666666667
            },
            {
              "pitch": 69,
              "velocity": 33,
              "position": 21.75,
              "duration": 0.9916666666666667
            },
            {
              "pitch": 67,
              "velocity": 51,
              "position": 21.25,
              "duration": 1.9916666666666667
            },
            {
              "pitch": 65,
              "velocity": 68,
              "position": 22.5,
              "duration": 0.9916666666666667
            },
            {
              "pitch": 69,
              "velocity": 51,
              "position": 22.75,
              "duration": 0.9916666666666667
            },
            {
              "pitch": 65,
              "velocity": 68,
              "position": 23.5,
              "duration": 0.49166666666666664
            },
            {
              "pitch": 69,
              "velocity": 33,
              "position": 23.75,
              "duration": 0.24166666666666667
            },
            {
              "pitch": 71,
              "velocity": 36,
              "position": 20,
              "duration": 3.9916666666666667
            },
            {
              "pitch": 67,
              "velocity": 51,
              "position": 23.25,
              "duration": 0.7416666666666667
            },
            {
              "pitch": 65,
              "velocity": 16,
              "position": 24.5,
              "duration": 0.9916666666666667
            },
            {
              "pitch": 69,
              "velocity": 62,
              "position": 24.75,
              "duration": 0.9916666666666667
            },
            {
              "pitch": 65,
              "velocity": 33,
              "position": 25.5,
              "duration": 0.9916666666666667
            },
            {
              "pitch": 69,
              "velocity": 33,
              "position": 25.75,
              "duration": 0.9916666666666667
            },
            {
              "pitch": 67,
              "velocity": 51,
              "position": 25.25,
              "duration": 1.9916666666666667
            },
            {
              "pitch": 65,
              "velocity": 51,
              "position": 26.5,
              "duration": 0.9916666666666667
            },
            {
              "pitch": 69,
              "velocity": 68,
              "position": 26.75,
              "duration": 0.9916666666666667
            },
            {
              "pitch": 65,
              "velocity": 68,
              "position": 27.5,
              "duration": 0.49166666666666664
            },
            {
              "pitch": 69,
              "velocity": 33,
              "position": 27.75,
              "duration": 0.24166666666666667
            },
            {
              "pitch": 71,
              "velocity": 69,
              "position": 24,
              "duration": 3.9916666666666667
            },
            {
              "pitch": 67,
              "velocity": 51,
              "position": 27.25,
              "duration": 0.7416666666666667
            },
            {
              "pitch": 65,
              "velocity": 33,
              "position": 28.5,
              "duration": 0.9916666666666667
            },
            {
              "pitch": 69,
              "velocity": 61,
              "position": 28.75,
              "duration": 0.9916666666666667
            },
            {
              "pitch": 65,
              "velocity": 51,
              "position": 29.5,
              "duration": 0.9916666666666667
            },
            {
              "pitch": 69,
              "velocity": 33,
              "position": 29.75,
              "duration": 0.9916666666666667
            },
            {
              "pitch": 67,
              "velocity": 51,
              "position": 29.25,
              "duration": 1.9916666666666667
            },
            {
              "pitch": 65,
              "velocity": 33,
              "position": 30.5,
              "duration": 0.9916666666666667
            },
            {
              "pitch": 69,
              "velocity": 69,
              "position": 30.75,
              "duration": 0.9916666666666667
            },
            {
              "pitch": 65,
              "velocity": 68,
              "position": 31.5,
              "duration": 0.4895833333333333
            },
            {
              "pitch": 69,
              "velocity": 33,
              "position": 31.75,
              "duration": 0.23958333333333334
            },
            {
              "pitch": 71,
              "velocity": 36,
              "position": 28,
              "duration": 3.9895833333333335
            },
            {
              "pitch": 67,
              "velocity": 51,
              "position": 31.25,
              "duration": 0.7395833333333334
            }
          ]
        },
        "15": {
          "ctab": {
            "srcChannel": 15,
            "name": "MSStrgs",
            "accType": "PHRASE2",
            "editable": false,
            "mutedNotes": [],
            "mutedChords": [],
            "autoStart": false,
            "sourceChordNote": 0,
            "sourceChordType": "Maj7",
            "ctb2Low": null,
            "ctb2Main": {
              "ntr": "ROOT_FIXED",
              "ntt": "CHORD",
              "bassOn": false,
              "chordRootUpperLimit": 7,
              "noteLowLimit": 0,
              "noteHighLimit": 127,
              "rtr": "PITCH_SHIFT"
            },
            "ctb2High": null,
            "ctb2MiddleLowPitch": 0,
            "ctb2MiddleHighPitch": 127
          },
          "notes": [
            {
              "pitch": 59,
              "velocity": 31,
              "position": 0,
              "duration": 1.98125
            },
            {
              "pitch": 76,
              "velocity": 32,
              "position": 0,
              "duration": 1.98125
            },
            {
              "pitch": 71,
              "velocity": 31,
              "position": 0,
              "duration": 2.98125
            },
            {
              "pitch": 76,
              "velocity": 31,
              "position": 2,
              "duration": 1.98125
            },
            {
              "pitch": 79,
              "velocity": 32,
              "position": 2,
              "duration": 1.9833333333333334
            },
            {
              "pitch": 67,
              "velocity": 31,
              "position": 0,
              "duration": 5.98125
            },
            {
              "pitch": 71,
              "velocity": 31,
              "position": 3,
              "duration": 2.98125
            },
            {
              "pitch": 76,
              "velocity": 31,
              "position": 4,
              "duration": 1.98125
            },
            {
              "pitch": 59,
              "velocity": 31,
              "position": 6,
              "duration": 1.98125
            },
            {
              "pitch": 64,
              "velocity": 31,
              "position": 0,
              "duration": 7.98125
            },
            {
              "pitch": 67,
              "velocity": 31,
              "position": 6,
              "duration": 1.98125
            },
            {
              "pitch": 71,
              "velocity": 32,
              "position": 6,
              "duration": 1.98125
            },
            {
              "pitch": 76,
              "velocity": 32,
              "position": 6,
              "duration": 1.98125
            },
            {
              "pitch": 59,
              "velocity": 31,
              "position": 8,
              "duration": 1.98125
            },
            {
              "pitch": 76,
              "velocity": 32,
              "position": 8,
              "duration": 1.98125
            },
            {
              "pitch": 71,
              "velocity": 31,
              "position": 8,
              "duration": 2.98125
            },
            {
              "pitch": 76,
              "velocity": 31,
              "position": 10,
              "duration": 1.98125
            },
            {
              "pitch": 79,
              "velocity": 32,
              "position": 10,
              "duration": 1.9833333333333334
            },
            {
              "pitch": 67,
              "velocity": 31,
              "position": 8,
              "duration": 5.98125
            },
            {
              "pitch": 71,
              "velocity": 31,
              "position": 11,
              "duration": 2.98125
            },
            {
              "pitch": 76,
              "velocity": 31,
              "position": 12,
              "duration": 1.98125
            },
            {
              "pitch": 59,
              "velocity": 31,
              "position": 14,
              "duration": 1.98125
            },
            {
              "pitch": 64,
              "velocity": 31,
              "position": 8,
              "duration": 7.98125
            },
            {
              "pitch": 67,
              "velocity": 31,
              "position": 14,
              "duration": 1.98125
            },
            {
              "pitch": 71,
              "velocity": 32,
              "position": 14,
              "duration": 1.98125
            },
            {
              "pitch": 76,
              "velocity": 32,
              "position": 14,
              "duration": 1.98125
            },
            {
              "pitch": 59,
              "velocity": 31,
              "position": 16,
              "duration": 1.98125
            },
            {
              "pitch": 76,
              "velocity": 32,
              "position": 16,
              "duration": 1.98125
            },
            {
              "pitch": 71,
              "velocity": 31,
              "position": 16,
              "duration": 2.98125
            },
            {
              "pitch": 76,
              "velocity": 31,
              "position": 18,
              "duration": 1.98125
            },
            {
              "pitch": 79,
              "velocity": 32,
              "position": 18,
              "duration": 1.9833333333333334
            },
            {
              "pitch": 67,
              "velocity": 31,
              "position": 16,
              "duration": 5.98125
            },
            {
              "pitch": 71,
              "velocity": 31,
              "position": 19,
              "duration": 2.98125
            },
            {
              "pitch": 76,
              "velocity": 31,
              "position": 20,
              "duration": 1.98125
            },
            {
              "pitch": 59,
              "velocity": 31,
              "position": 22,
              "duration": 1.98125
            },
            {
              "pitch": 64,
              "velocity": 31,
              "position": 16,
              "duration": 7.98125
            },
            {
              "pitch": 67,
              "velocity": 31,
              "position": 22,
              "duration": 1.98125
            },
            {
              "pitch": 71,
              "velocity": 32,
              "position": 22,
              "duration": 1.98125
            },
            {
              "pitch": 76,
              "velocity": 32,
              "position": 22,
              "duration": 1.98125
            },
            {
              "pitch": 59,
              "velocity": 31,
              "position": 24,
              "duration": 1.98125
            },
            {
              "pitch": 76,
              "velocity": 32,
              "position": 24,
              "duration": 1.98125
            },
            {
              "pitch": 71,
              "velocity": 31,
              "position": 24,
              "duration": 2.98125
            },
            {
              "pitch": 76,
              "velocity": 31,
              "position": 26,
              "duration": 1.98125
            },
            {
              "pitch": 79,
              "velocity": 32,
              "position": 26,
              "duration": 1.9833333333333334
            },
            {
              "pitch": 67,
              "velocity": 31,
              "position": 24,
              "duration": 5.98125
            },
            {
              "pitch": 71,
              "velocity": 31,
              "position": 27,
              "duration": 2.98125
            },
            {
              "pitch": 76,
              "velocity": 31,
              "position": 28,
              "duration": 1.98125
            },
            {
              "pitch": 59,
              "velocity": 31,
              "position": 30,
              "duration": 1.98125
            },
            {
              "pitch": 64,
              "velocity": 31,
              "position": 24,
              "duration": 7.98125
            },
            {
              "pitch": 67,
              "velocity": 31,
              "position": 30,
              "duration": 1.98125
            },
            {
              "pitch": 71,
              "velocity": 32,
              "position": 30,
              "duration": 1.98125
            },
            {
              "pitch": 76,
              "velocity": 32,
              "position": 30,
              "duration": 1.98125
            }
          ]
        }
      }
    },
    "Fill_In_AA": {
      "type": "Fill_In_AA",
      "sizeInBeats": 4,
      "channels": {
        "2": {
          "ctab": {
            "srcChannel": 2,
            "name": "GtBass",
            "accType": "CHORD1",
            "editable": false,
            "mutedNotes": [],
            "mutedChords": [],
            "autoStart": false,
            "sourceChordNote": 0,
            "sourceChordType": "Maj7",
            "ctb2Low": null,
            "ctb2Main": {
              "ntr": "ROOT_TRANSPOSITION",
              "ntt": "MELODY",
              "bassOn": true,
              "chordRootUpperLimit": 8,
              "noteLowLimit": 40,
              "noteHighLimit": 127,
              "rtr": "PITCH_SHIFT_TO_ROOT"
            },
            "ctb2High": null,
            "ctb2MiddleLowPitch": 0,
            "ctb2MiddleHighPitch": 127
          },
          "notes": [
            {
              "pitch": 36,
              "velocity": 32,
              "position": 0,
              "duration": 0.7416666666666667
            },
            {
              "pitch": 43,
              "velocity": 22,
              "position": 1,
              "duration": 0.7416666666666667
            },
            {
              "pitch": 36,
              "velocity": 32,
              "position": 2,
              "duration": 0.7416666666666667
            },
            {
              "pitch": 43,
              "velocity": 22,
              "position": 3,
              "duration": 0.7395833333333334
            }
          ]
        },
        "3": {
          "ctab": {
            "srcChannel": 3,
            "name": "GtBass",
            "accType": "CHORD2",
            "editable": false,
            "mutedNotes": [],
            "mutedChords": [],
            "autoStart": false,
            "sourceChordNote": 0,
            "sourceChordType": "Maj7",
            "ctb2Low": null,
            "ctb2Main": {
              "ntr": "ROOT_TRANSPOSITION",
              "ntt": "MELODY",
              "bassOn": true,
              "chordRootUpperLimit": 8,
              "noteLowLimit": 40,
              "noteHighLimit": 127,
              "rtr": "PITCH_SHIFT_TO_ROOT"
            },
            "ctb2High": null,
            "ctb2MiddleLowPitch": 0,
            "ctb2MiddleHighPitch": 127
          },
          "notes": [
            {
              "pitch": 36,
              "velocity": 31,
              "position": 0,
              "duration": 0.7416666666666667
            },
            {
              "pitch": 43,
              "velocity": 21,
              "position": 1,
              "duration": 0.7416666666666667
            },
            {
              "pitch": 36,
              "velocity": 31,
              "position": 2,
              "duration": 0.7416666666666667
            },
            {
              "pitch": 43,
              "velocity": 21,
              "position": 3,
              "duration": 0.7395833333333334
            }
          ]
        },
        "5": {
          "ctab": {
            "srcChannel": 5,
            "name": "GtBass",
            "accType": "PHRASE1",
            "editable": false,
            "mutedNotes": [],
            "mutedChords": [],
            "autoStart": false,
            "sourceChordNote": 0,
            "sourceChordType": "Maj7",
            "ctb2Low": null,
            "ctb2Main": {
              "ntr": "ROOT_TRANSPOSITION",
              "ntt": "MELODY",
              "bassOn": true,
              "chordRootUpperLimit": 8,
              "noteLowLimit": 40,
              "noteHighLimit": 127,
              "rtr": "PITCH_SHIFT_TO_ROOT"
            },
            "ctb2High": null,
            "ctb2MiddleLowPitch": 0,
            "ctb2MiddleHighPitch": 127
          },
          "notes": [
            {
              "pitch": 36,
              "velocity": 64,
              "position": 0,
              "duration": 0.7416666666666667
            },
            {
              "pitch": 43,
              "velocity": 44,
              "position": 1,
              "duration": 0.7416666666666667
            },
            {
              "pitch": 36,
              "velocity": 64,
              "position": 2,
              "duration": 0.7416666666666667
            },
            {
              "pitch": 43,
              "velocity": 44,
              "position": 3,
              "duration": 0.7395833333333334
            }
          ]
        },
        "11": {
          "ctab": {
            "srcChannel": 11,
            "name": "Tele",
            "accType": "CHORD1",
            "editable": false,
            "mutedNotes": [],
            "mutedChords": [],
            "autoStart": false,
            "sourceChordNote": 0,
            "sourceChordType": "Maj7",
            "ctb2Low": null,
            "ctb2Main": {
              "ntr": "GUITAR",
              "ntt": "ARPEGGIO",
              "bassOn": false,
              "chordRootUpperLimit": 7,
              "noteLowLimit": 0,
              "noteHighLimit": 127,
              "rtr": "PITCH_SHIFT"
            },
            "ctb2High": null,
            "ctb2MiddleLowPitch": 0,
            "ctb2MiddleHighPitch": 127
          },
          "notes": [
            {
              "pitch": 67,
              "velocity": 10,
              "position": 0.25,
              "duration": 0.49166666666666664
            },
            {
              "pitch": 65,
              "velocity": 30,
              "position": 0.5,
              "duration": 0.9916666666666667
            },
            {
              "pitch": 65,
              "velocity": 20,
              "position": 1.5,
              "duration": 0.9916666666666667
            },
            {
              "pitch": 67,
              "velocity": 40,
              "position": 0.75,
              "duration": 1.9916666666666667
            },
            {
              "pitch": 69,
              "velocity": 30,
              "position": 1.25,
              "duration": 1.9916666666666667
            },
            {
              "pitch": 65,
              "velocity": 30,
              "position": 2.5,
              "duration": 0.9916666666666667
            },
            {
              "pitch": 67,
              "velocity": 30,
              "position": 2.75,
              "duration": 0.9916666666666667
            },
            {
              "pitch": 65,
              "velocity": 40,
              "position": 3.5,
              "duration": 0.4895833333333333
            },
            {
              "pitch": 67,
              "velocity": 10,
              "position": 3.75,
              "duration": 0.23958333333333334
            },
            {
              "pitch": 71,
              "velocity": 20,
              "position": 1.75,
              "duration": 2.2395833333333335
            },
            {
              "pitch": 69,
              "velocity": 30,
              "position": 3.25,
              "duration": 0.7395833333333334
            }
          ]
        },
        "12": {
          "ctab": {
            "srcChannel": 12,
            "name": "Steel",
            "accType": "CHORD2",
            "editable": false,
            "mutedNotes": [],
            "mutedChords": [],
            "autoStart": false,
            "sourceChordNote": 0,
            "sourceChordType": "Maj7",
            "ctb2Low": null,
            "ctb2Main": {
              "ntr": "GUITAR",
              "ntt": "ARPEGGIO",
              "bassOn": false,
              "chordRootUpperLimit": 7,
              "noteLowLimit": 0,
              "noteHighLimit": 127,
              "rtr": "PITCH_SHIFT"
            },
            "ctb2High": null,
            "ctb2MiddleLowPitch": 0,
            "ctb2MiddleHighPitch": 127
          },
          "notes": [
            {
              "pitch": 65,
              "velocity": 19,
              "position": 0.5,
              "duration": 0.9916666666666667
            },
            {
              "pitch": 69,
              "velocity": 35,
              "position": 0.75,
              "duration": 0.9916666666666667
            },
            {
              "pitch": 65,
              "velocity": 29,
              "position": 1.5,
              "duration": 0.9916666666666667
            },
            {
              "pitch": 69,
              "velocity": 19,
              "position": 1.75,
              "duration": 0.9916666666666667
            },
            {
              "pitch": 67,
              "velocity": 29,
              "position": 1.25,
              "duration": 1.9916666666666667
            },
            {
              "pitch": 65,
              "velocity": 19,
              "position": 2.5,
              "duration": 0.9916666666666667
            },
            {
              "pitch": 69,
              "velocity": 40,
              "position": 2.75,
              "duration": 0.9916666666666667
            },
            {
              "pitch": 65,
              "velocity": 39,
              "position": 3.5,
              "duration": 0.4895833333333333
            },
            {
              "pitch": 69,
              "velocity": 19,
              "position": 3.75,
              "duration": 0.23958333333333334
            },
            {
              "pitch": 71,
              "velocity": 20,
              "position": 0,
              "duration": 3.9895833333333335
            },
            {
              "pitch": 67,
              "velocity": 29,
              "position": 3.25,
              "duration": 0.7395833333333334
            }
          ]
        },
        "14": {
          "ctab": {
            "srcChannel": 14,
            "name": "HiStr",
            "accType": "PHRASE1",
            "editable": false,
            "mutedNotes": [],
            "mutedChords": [],
            "autoStart": false,
            "sourceChordNote": 0,
            "sourceChordType": "Maj7",
            "ctb2Low": null,
            "ctb2Main": {
              "ntr": "GUITAR",
              "ntt": "ARPEGGIO",
              "bassOn": false,
              "chordRootUpperLimit": 7,
              "noteLowLimit": 0,
              "noteHighLimit": 127,
              "rtr": "PITCH_SHIFT"
            },
            "ctb2High": null,
            "ctb2MiddleLowPitch": 0,
            "ctb2MiddleHighPitch": 127
          },
          "notes": [
            {
              "pitch": 67,
              "velocity": 19,
              "position": 0.25,
              "duration": 0.49166666666666664
            },
            {
              "pitch": 65,
              "velocity": 61,
              "position": 0.5,
              "duration": 0.9916666666666667
            },
            {
              "pitch": 65,
              "velocity": 39,
              "position": 1.5,
              "duration": 0.9916666666666667
            },
            {
              "pitch": 67,
              "velocity": 81,
              "position": 0.75,
              "duration": 1.9916666666666667
            },
            {
              "pitch": 69,
              "velocity": 61,
              "position": 1.25,
              "duration": 1.9916666666666667
            },
            {
              "pitch": 65,
              "velocity": 61,
              "position": 2.5,
              "duration": 0.9916666666666667
            },
            {
              "pitch": 67,
              "velocity": 61,
              "position": 2.75,
              "duration": 0.9916666666666667
            },
            {
              "pitch": 65,
              "velocity": 81,
              "position": 3.5,
              "duration": 0.4895833333333333
            },
            {
              "pitch": 67,
              "velocity": 19,
              "position": 3.75,
              "duration": 0.23958333333333334
            },
            {
              "pitch": 71,
              "velocity": 39,
              "position": 1.75,
              "duration": 2.2395833333333335
            },
            {
              "pitch": 69,
              "velocity": 61,
              "position": 3.25,
              "duration": 0.7395833333333334
            }
          ]
        }
      }
    },
    "Fill_In_BB": {
      "type": "Fill_In_BB",
      "sizeInBeats": 4,
      "channels": {
        "2": {
          "ctab": {
            "srcChannel": 2,
            "name": "GtBass",
            "accType": "CHORD1",
            "editable": false,
            "mutedNotes": [],
            "mutedChords": [],
            "autoStart": false,
            "sourceChordNote": 0,
            "sourceChordType": "Maj7",
            "ctb2Low": null,
            "ctb2Main": {
              "ntr": "ROOT_TRANSPOSITION",
              "ntt": "MELODY",
              "bassOn": true,
              "chordRootUpperLimit": 8,
              "noteLowLimit": 40,
              "noteHighLimit": 127,
              "rtr": "PITCH_SHIFT_TO_ROOT"
            },
            "ctb2High": null,
            "ctb2MiddleLowPitch": 0,
            "ctb2MiddleHighPitch": 127
          },
          "notes": [
            {
              "pitch": 36,
              "velocity": 32,
              "position": 0,
              "duration": 0.7416666666666667
            },
            {
              "pitch": 43,
              "velocity": 22,
              "position": 1,
              "duration": 0.7416666666666667
            },
            {
              "pitch": 36,
              "velocity": 32,
              "position": 2,
              "duration": 0.7416666666666667
            },
            {
              "pitch": 43,
              "velocity": 22,
              "position": 3,
              "duration": 0.7395833333333334
            }
          ]
        },
        "3": {
          "ctab": {
            "srcChannel": 3,
            "name": "GtBass",
            "accType": "CHORD2",
            "editable": false,
            "mutedNotes": [],
            "mutedChords": [],
            "autoStart": false,
            "sourceChordNote": 0,
            "sourceChordType": "Maj7",
            "ctb2Low": null,
            "ctb2Main": {
              "ntr": "ROOT_TRANSPOSITION",
              "ntt": "MELODY",
              "bassOn": true,
              "chordRootUpperLimit": 8,
              "noteLowLimit": 40,
              "noteHighLimit": 127,
              "rtr": "PITCH_SHIFT_TO_ROOT"
            },
            "ctb2High": null,
            "ctb2MiddleLowPitch": 0,
            "ctb2MiddleHighPitch": 127
          },
          "notes": [
            {
              "pitch": 36,
              "velocity": 31,
              "position": 0,
              "duration": 0.7416666666666667
            },
            {
              "pitch": 43,
              "velocity": 21,
              "position": 1,
              "duration": 0.7416666666666667
            },
            {
              "pitch": 36,
              "velocity": 31,
              "position": 2,
              "duration": 0.7416666666666667
            },
            {
              "pitch": 43,
              "velocity": 21,
              "position": 3,
              "duration": 0.7395833333333334
            }
          ]
        },
        "5": {
          "ctab": {
            "srcChannel": 5,
            "name": "GtBass",
            "accType": "PHRASE1",
            "editable": false,
            "mutedNotes": [],
            "mutedChords": [],
            "autoStart": false,
            "sourceChordNote": 0,
            "sourceChordType": "Maj7",
            "ctb2Low": null,
            "ctb2Main": {
              "ntr": "ROOT_TRANSPOSITION",
              "ntt": "MELODY",
              "bassOn": true,
              "chordRootUpperLimit": 8,
              "noteLowLimit": 40,
              "noteHighLimit": 127,
              "rtr": "PITCH_SHIFT_TO_ROOT"
            },
            "ctb2High": null,
            "ctb2MiddleLowPitch": 0,
            "ctb2MiddleHighPitch": 127
          },
          "notes": [
            {
              "pitch": 36,
              "velocity": 64,
              "position": 0,
              "duration": 0.7416666666666667
            },
            {
              "pitch": 43,
              "velocity": 44,
              "position": 1,
              "duration": 0.7416666666666667
            },
            {
              "pitch": 36,
              "velocity": 64,
              "position": 2,
              "duration": 0.7416666666666667
            },
            {
              "pitch": 43,
              "velocity": 44,
              "position": 3,
              "duration": 0.7395833333333334
            }
          ]
        },
        "8": {
          "ctab": {
            "srcChannel": 8,
            "name": "Prc",
            "accType": "SUBRHYTHM",
            "editable": true,
            "mutedNotes": [],
            "mutedChords": [],
            "autoStart": true,
            "sourceChordNote": 0,
            "sourceChordType": "Maj7",
            "ctb2Low": null,
            "ctb2Main": {
              "ntr": "ROOT_FIXED",
              "ntt": "BYPASS",
              "bassOn": false,
              "chordRootUpperLimit": 6,
              "noteLowLimit": 0,
              "noteHighLimit": 127,
              "rtr": "PITCH_SHIFT"
            },
            "ctb2High": null,
            "ctb2MiddleLowPitch": 0,
            "ctb2MiddleHighPitch": 127
          },
          "notes": [
            {
              "pitch": 68,
              "velocity": 40,
              "position": 1,
              "duration": 0.004166666666666667
            },
            {
              "pitch": 84,
              "velocity": 50,
              "position": 2,
              "duration": 0.004166666666666667
            },
            {
              "pitch": 68,
              "velocity": 40,
              "position": 3,
              "duration": 0.004166666666666667
            }
          ]
        },
        "9": {
          "ctab": {
            "srcChannel": 9,
            "name": "Drs",
            "accType": "RHYTHM",
            "editable": true,
            "mutedNotes": [],
            "mutedChords": [],
            "autoStart": true,
            "sourceChordNote": 0,
            "sourceChordType": "Maj7",
            "ctb2Low": null,
            "ctb2Main": {
              "ntr": "ROOT_FIXED",
              "ntt": "BYPASS",
              "bassOn": false,
              "chordRootUpperLimit": 6,
              "noteLowLimit": 0,
              "noteHighLimit": 127,
              "rtr": "PITCH_SHIFT"
            },
            "ctb2High": null,
            "ctb2MiddleLowPitch": 0,
            "ctb2MiddleHighPitch": 127
          },
          "notes": [
            {
              "pitch": 33,
              "velocity": 68,
              "position": 0,
              "duration": 0.004166666666666667
            },
            {
              "pitch": 51,
              "velocity": 70,
              "position": 0,
              "duration": 0.004166666666666667
            },
            {
              "pitch": 38,
              "velocity": 100,
              "position": 0.5,
              "duration": 0.004166666666666667
            },
            {
              "pitch": 51,
              "velocity": 50,
              "position": 0.5,
              "duration": 0.004166666666666667
            },
            {
              "pitch": 44,
              "velocity": 52,
              "position": 0.5,
              "duration": 0.004166666666666667
            },
            {
              "pitch": 38,
              "velocity": 57,
              "position": 0.75,
              "duration": 0.004166666666666667
            },
            {
              "pitch": 33,
              "velocity": 68,
              "position": 1,
              "duration": 0.004166666666666667
            },
            {
              "pitch": 51,
              "velocity": 70,
              "position": 1,
              "duration": 0.004166666666666667
            },
            {
              "pitch": 38,
              "velocity": 55,
              "position": 1.25,
              "duration": 0.004166666666666667
            },
            {
              "pitch": 38,
              "velocity": 127,
              "position": 1.5,
              "duration": 0.004166666666666667
            },
            {
              "pitch": 51,
              "velocity": 50,
              "position": 1.5,
              "duration": 0.004166666666666667
            },
            {
              "pitch": 44,
              "velocity": 52,
              "position": 1.5,
              "duration": 0.004166666666666667
            },
            {
              "pitch": 38,
              "velocity": 60,
              "position": 1.75,
              "duration": 0.004166666666666667
            },
            {
              "pitch": 33,
              "velocity": 68,
              "position": 2,
              "duration": 0.004166666666666667
            },
            {
              "pitch": 51,
              "velocity": 70,
              "position": 2,
              "duration": 0.004166666666666667
            },
            {
              "pitch": 25,
              "velocity": 98,
              "position": 2.25,
              "duration": 0.004166666666666667
            },
            {
              "pitch": 40,
              "velocity": 127,
              "position": 2.5,
              "duration": 0.004166666666666667
            },
            {
              "pitch": 44,
              "velocity": 52,
              "position": 2.5,
              "duration": 0.004166666666666667
            },
            {
              "pitch": 33,
              "velocity": 68,
              "position": 3,
              "duration": 0.004166666666666667
            },
            {
              "pitch": 38,
              "velocity": 98,
              "position": 3,
              "duration": 0.004166666666666667
            },
            {
              "pitch": 25,
              "velocity": 98,
              "position": 3.25,
              "duration": 0.004166666666666667
            },
            {
              "pitch": 38,
              "velocity": 127,
              "position": 3.5,
              "duration": 0.004166666666666667
            },
            {
              "pitch": 44,
              "velocity": 52,
              "position": 3.5,
              "duration": 0.004166666666666667
            },
            {
              "pitch": 40,
              "velocity": 118,
              "position": 3.75,
              "duration": 0.004166666666666667
            },
            {
              "pitch": 49,
              "velocity": 100,
              "position": 3.9895833333333335,
              "duration": 0.004166666666666667
            }
          ]
        },
        "10": {
          "ctab": {
            "srcChannel": 10,
            "name": "Bs",
            "accType": "BASS",
            "editable": false,
            "mutedNotes": [],
            "mutedChords": [],
            "autoStart": false,
            "sourceChordNote": 0,
            "sourceChordType": "Maj7",
            "ctb2Low": null,
            "ctb2Main": {
              "ntr": "ROOT_TRANSPOSITION",
              "ntt": "MELODY",
              "bassOn": true,
              "chordRootUpperLimit": 8,
              "noteLowLimit": 28,
              "noteHighLimit": 127,
              "rtr": "PITCH_SHIFT_TO_ROOT"
            },
            "ctb2High": null,
            "ctb2MiddleLowPitch": 0,
            "ctb2MiddleHighPitch": 127
          },
          "notes": [
            {
              "pitch": 24,
              "velocity": 50,
              "position": 0,
              "duration": 0.8875
            },
            {
              "pitch": 31,
              "velocity": 50,
              "position": 1,
              "duration": 0.8875
            },
            {
              "pitch": 24,
              "velocity": 50,
              "position": 2,
              "duration": 0.8875
            },
            {
              "pitch": 31,
              "velocity": 50,
              "position": 3,
              "duration": 0.8875
            }
          ]
        },
        "11": {
          "ctab": {
            "srcChannel": 11,
            "name": "Tele",
            "accType": "CHORD1",
            "editable": false,
            "mutedNotes": [],
            "mutedChords": [],
            "autoStart": false,
            "sourceChordNote": 0,
            "sourceChordType": "Maj7",
            "ctb2Low": null,
            "ctb2Main": {
              "ntr": "GUITAR",
              "ntt": "ARPEGGIO",
              "bassOn": false,
              "chordRootUpperLimit": 7,
              "noteLowLimit": 0,
              "noteHighLimit": 127,
              "rtr": "PITCH_SHIFT"
            },
            "ctb2High": null,
            "ctb2MiddleLowPitch": 0,
            "ctb2MiddleHighPitch": 127
          },
          "notes": [
            {
              "pitch": 67,
              "velocity": 10,
              "position": 0.25,
              "duration": 0.49166666666666664
            },
            {
              "pitch": 65,
              "velocity": 30,
              "position": 0.5,
              "duration": 0.9916666666666667
            },
            {
              "pitch": 65,
              "velocity": 20,
              "position": 1.5,
              "duration": 0.9916666666666667
            },
            {
              "pitch": 67,
              "velocity": 40,
              "position": 0.75,
              "duration": 1.9916666666666667
            },
            {
              "pitch": 69,
              "velocity": 30,
              "position": 1.25,
              "duration": 1.9916666666666667
            },
            {
              "pitch": 65,
              "velocity": 30,
              "position": 2.5,
              "duration": 0.9916666666666667
            },
            {
              "pitch": 67,
              "velocity": 30,
              "position": 2.75,
              "duration": 0.9916666666666667
            },
            {
              "pitch": 65,
              "velocity": 40,
              "position": 3.5,
              "duration": 0.4895833333333333
            },
            {
              "pitch": 67,
              "velocity": 10,
              "position": 3.75,
              "duration": 0.23958333333333334
            },
            {
              "pitch": 71,
              "velocity": 20,
              "position": 1.75,
              "duration": 2.2395833333333335
            },
            {
              "pitch": 69,
              "velocity": 30,
              "position": 3.25,
              "duration": 0.7395833333333334
            }
          ]
        },
        "12": {
          "ctab": {
            "srcChannel": 12,
            "name": "Steel",
            "accType": "CHORD2",
            "editable": false,
            "mutedNotes": [],
            "mutedChords": [],
            "autoStart": false,
            "sourceChordNote": 0,
            "sourceChordType": "Maj7",
            "ctb2Low": null,
            "ctb2Main": {
              "ntr": "GUITAR",
              "ntt": "ARPEGGIO",
              "bassOn": false,
              "chordRootUpperLimit": 7,
              "noteLowLimit": 0,
              "noteHighLimit": 127,
              "rtr": "PITCH_SHIFT"
            },
            "ctb2High": null,
            "ctb2MiddleLowPitch": 0,
            "ctb2MiddleHighPitch": 127
          },
          "notes": [
            {
              "pitch": 65,
              "velocity": 19,
              "position": 0.5,
              "duration": 0.9916666666666667
            },
            {
              "pitch": 69,
              "velocity": 35,
              "position": 0.75,
              "duration": 0.9916666666666667
            },
            {
              "pitch": 65,
              "velocity": 29,
              "position": 1.5,
              "duration": 0.9916666666666667
            },
            {
              "pitch": 69,
              "velocity": 19,
              "position": 1.75,
              "duration": 0.9916666666666667
            },
            {
              "pitch": 67,
              "velocity": 29,
              "position": 1.25,
              "duration": 1.9916666666666667
            },
            {
              "pitch": 65,
              "velocity": 19,
              "position": 2.5,
              "duration": 0.9916666666666667
            },
            {
              "pitch": 69,
              "velocity": 40,
              "position": 2.75,
              "duration": 0.9916666666666667
            },
            {
              "pitch": 65,
              "velocity": 39,
              "position": 3.5,
              "duration": 0.4895833333333333
            },
            {
              "pitch": 69,
              "velocity": 19,
              "position": 3.75,
              "duration": 0.23958333333333334
            },
            {
              "pitch": 71,
              "velocity": 20,
              "position": 0,
              "duration": 3.9895833333333335
            },
            {
              "pitch": 67,
              "velocity": 29,
              "position": 3.25,
              "duration": 0.7395833333333334
            }
          ]
        },
        "14": {
          "ctab": {
            "srcChannel": 14,
            "name": "HiStr",
            "accType": "PHRASE1",
            "editable": false,
            "mutedNotes": [],
            "mutedChords": [],
            "autoStart": false,
            "sourceChordNote": 0,
            "sourceChordType": "Maj7",
            "ctb2Low": null,
            "ctb2Main": {
              "ntr": "GUITAR",
              "ntt": "ARPEGGIO",
              "bassOn": false,
              "chordRootUpperLimit": 7,
              "noteLowLimit": 0,
              "noteHighLimit": 127,
              "rtr": "PITCH_SHIFT"
            },
            "ctb2High": null,
            "ctb2MiddleLowPitch": 0,
            "ctb2MiddleHighPitch": 127
          },
          "notes": [
            {
              "pitch": 67,
              "velocity": 19,
              "position": 0.25,
              "duration": 0.49166666666666664
            },
            {
              "pitch": 65,
              "velocity": 61,
              "position": 0.5,
              "duration": 0.9916666666666667
            },
            {
              "pitch": 65,
              "velocity": 39,
              "position": 1.5,
              "duration": 0.9916666666666667
            },
            {
              "pitch": 67,
              "velocity": 81,
              "position": 0.75,
              "duration": 1.9916666666666667
            },
            {
              "pitch": 69,
              "velocity": 61,
              "position": 1.25,
              "duration": 1.9916666666666667
            },
            {
              "pitch": 65,
              "velocity": 61,
              "position": 2.5,
              "duration": 0.9916666666666667
            },
            {
              "pitch": 67,
              "velocity": 61,
              "position": 2.75,
              "duration": 0.9916666666666667
            },
            {
              "pitch": 65,
              "velocity": 81,
              "position": 3.5,
              "duration": 0.4895833333333333
            },
            {
              "pitch": 67,
              "velocity": 19,
              "position": 3.75,
              "duration": 0.23958333333333334
            },
            {
              "pitch": 71,
              "velocity": 39,
              "position": 1.75,
              "duration": 2.2395833333333335
            },
            {
              "pitch": 69,
              "velocity": 61,
              "position": 3.25,
              "duration": 0.7395833333333334
            }
          ]
        }
      }
    },
    "Fill_In_CC": {
      "type": "Fill_In_CC",
      "sizeInBeats": 4,
      "channels": {
        "2": {
          "ctab": {
            "srcChannel": 2,
            "name": "GtBass",
            "accType": "CHORD1",
            "editable": false,
            "mutedNotes": [],
            "mutedChords": [],
            "autoStart": false,
            "sourceChordNote": 0,
            "sourceChordType": "Maj7",
            "ctb2Low": null,
            "ctb2Main": {
              "ntr": "ROOT_TRANSPOSITION",
              "ntt": "MELODY",
              "bassOn": true,
              "chordRootUpperLimit": 8,
              "noteLowLimit": 40,
              "noteHighLimit": 127,
              "rtr": "PITCH_SHIFT_TO_ROOT"
            },
            "ctb2High": null,
            "ctb2MiddleLowPitch": 0,
            "ctb2MiddleHighPitch": 127
          },
          "notes": [
            {
              "pitch": 36,
              "velocity": 32,
              "position": 0,
              "duration": 0.7416666666666667
            },
            {
              "pitch": 43,
              "velocity": 22,
              "position": 1,
              "duration": 0.7416666666666667
            },
            {
              "pitch": 36,
              "velocity": 32,
              "position": 2,
              "duration": 0.7416666666666667
            },
            {
              "pitch": 43,
              "velocity": 22,
              "position": 3,
              "duration": 0.7395833333333334
            }
          ]
        },
        "3": {
          "ctab": {
            "srcChannel": 3,
            "name": "GtBass",
            "accType": "CHORD2",
            "editable": false,
            "mutedNotes": [],
            "mutedChords": [],
            "autoStart": false,
            "sourceChordNote": 0,
            "sourceChordType": "Maj7",
            "ctb2Low": null,
            "ctb2Main": {
              "ntr": "ROOT_TRANSPOSITION",
              "ntt": "MELODY",
              "bassOn": true,
              "chordRootUpperLimit": 8,
              "noteLowLimit": 40,
              "noteHighLimit": 127,
              "rtr": "PITCH_SHIFT_TO_ROOT"
            },
            "ctb2High": null,
            "ctb2MiddleLowPitch": 0,
            "ctb2MiddleHighPitch": 127
          },
          "notes": [
            {
              "pitch": 36,
              "velocity": 31,
              "position": 0,
              "duration": 0.7416666666666667
            },
            {
              "pitch": 43,
              "velocity": 21,
              "position": 1,
              "duration": 0.7416666666666667
            },
            {
              "pitch": 36,
              "velocity": 31,
              "position": 2,
              "duration": 0.7416666666666667
            },
            {
              "pitch": 43,
              "velocity": 21,
              "position": 3,
              "duration": 0.7395833333333334
            }
          ]
        },
        "5": {
          "ctab": {
            "srcChannel": 5,
            "name": "GtBass",
            "accType": "PHRASE1",
            "editable": false,
            "mutedNotes": [],
            "mutedChords": [],
            "autoStart": false,
            "sourceChordNote": 0,
            "sourceChordType": "Maj7",
            "ctb2Low": null,
            "ctb2Main": {
              "ntr": "ROOT_TRANSPOSITION",
              "ntt": "MELODY",
              "bassOn": true,
              "chordRootUpperLimit": 8,
              "noteLowLimit": 40,
              "noteHighLimit": 127,
              "rtr": "PITCH_SHIFT_TO_ROOT"
            },
            "ctb2High": null,
            "ctb2MiddleLowPitch": 0,
            "ctb2MiddleHighPitch": 127
          },
          "notes": [
            {
              "pitch": 36,
              "velocity": 64,
              "position": 0,
              "duration": 0.7416666666666667
            },
            {
              "pitch": 43,
              "velocity": 44,
              "position": 1,
              "duration": 0.7416666666666667
            },
            {
              "pitch": 36,
              "velocity": 64,
              "position": 2,
              "duration": 0.7416666666666667
            },
            {
              "pitch": 43,
              "velocity": 44,
              "position": 3,
              "duration": 0.7395833333333334
            }
          ]
        },
        "8": {
          "ctab": {
            "srcChannel": 8,
            "name": "Prc",
            "accType": "SUBRHYTHM",
            "editable": true,
            "mutedNotes": [],
            "mutedChords": [],
            "autoStart": true,
            "sourceChordNote": 0,
            "sourceChordType": "Maj7",
            "ctb2Low": null,
            "ctb2Main": {
              "ntr": "ROOT_FIXED",
              "ntt": "BYPASS",
              "bassOn": false,
              "chordRootUpperLimit": 6,
              "noteLowLimit": 0,
              "noteHighLimit": 127,
              "rtr": "PITCH_SHIFT"
            },
            "ctb2High": null,
            "ctb2MiddleLowPitch": 0,
            "ctb2MiddleHighPitch": 127
          },
          "notes": [
            {
              "pitch": 68,
              "velocity": 40,
              "position": 1,
              "duration": 0.004166666666666667
            },
            {
              "pitch": 84,
              "velocity": 50,
              "position": 2,
              "duration": 0.004166666666666667
            },
            {
              "pitch": 68,
              "velocity": 40,
              "position": 3,
              "duration": 0.004166666666666667
            }
          ]
        },
        "9": {
          "ctab": {
            "srcChannel": 9,
            "name": "Drs",
            "accType": "RHYTHM",
            "editable": true,
            "mutedNotes": [],
            "mutedChords": [],
            "autoStart": true,
            "sourceChordNote": 0,
            "sourceChordType": "Maj7",
            "ctb2Low": null,
            "ctb2Main": {
              "ntr": "ROOT_FIXED",
              "ntt": "BYPASS",
              "bassOn": false,
              "chordRootUpperLimit": 6,
              "noteLowLimit": 0,
              "noteHighLimit": 127,
              "rtr": "PITCH_SHIFT"
            },
            "ctb2High": null,
            "ctb2MiddleLowPitch": 0,
            "ctb2MiddleHighPitch": 127
          },
          "notes": [
            {
              "pitch": 33,
              "velocity": 68,
              "position": 0,
              "duration": 0.004166666666666667
            },
            {
              "pitch": 51,
              "velocity": 70,
              "position": 0,
              "duration": 0.004166666666666667
            },
            {
              "pitch": 38,
              "velocity": 100,
              "position": 0.5,
              "duration": 0.004166666666666667
            },
            {
              "pitch": 51,
              "velocity": 50,
              "position": 0.5,
              "duration": 0.004166666666666667
            },
            {
              "pitch": 44,
              "velocity": 52,
              "position": 0.5,
              "duration": 0.004166666666666667
            },
            {
              "pitch": 38,
              "velocity": 57,
              "position": 0.75,
              "duration": 0.004166666666666667
            },
            {
              "pitch": 33,
              "velocity": 68,
              "position": 1,
              "duration": 0.004166666666666667
            },
            {
              "pitch": 51,
              "velocity": 70,
              "position": 1,
              "duration": 0.004166666666666667
            },
            {
              "pitch": 38,
              "velocity": 55,
              "position": 1.25,
              "duration": 0.004166666666666667
            },
            {
              "pitch": 38,
              "velocity": 127,
              "position": 1.5,
              "duration": 0.004166666666666667
            },
            {
              "pitch": 51,
              "velocity": 50,
              "position": 1.5,
              "duration": 0.004166666666666667
            },
            {
              "pitch": 44,
              "velocity": 52,
              "position": 1.5,
              "duration": 0.004166666666666667
            },
            {
              "pitch": 38,
              "velocity": 60,
              "position": 1.75,
              "duration": 0.004166666666666667
            },
            {
              "pitch": 33,
              "velocity": 68,
              "position": 2,
              "duration": 0.004166666666666667
            },
            {
              "pitch": 51,
              "velocity": 70,
              "position": 2,
              "duration": 0.004166666666666667
            },
            {
              "pitch": 25,
              "velocity": 98,
              "position": 2.25,
              "duration": 0.004166666666666667
            },
            {
              "pitch": 40,
              "velocity": 127,
              "position": 2.5,
              "duration": 0.004166666666666667
            },
            {
              "pitch": 44,
              "velocity": 52,
              "position": 2.5,
              "duration": 0.004166666666666667
            },
            {
              "pitch": 33,
              "velocity": 68,
              "position": 3,
              "duration": 0.004166666666666667
            },
            {
              "pitch": 38,
              "velocity": 98,
              "position": 3,
              "duration": 0.004166666666666667
            },
            {
              "pitch": 25,
              "velocity": 98,
              "position": 3.25,
              "duration": 0.004166666666666667
            },
            {
              "pitch": 38,
              "velocity": 127,
              "position": 3.5,
              "duration": 0.004166666666666667
            },
            {
              "pitch": 44,
              "velocity": 52,
              "position": 3.5,
              "duration": 0.004166666666666667
            },
            {
              "pitch": 40,
              "velocity": 118,
              "position": 3.75,
              "duration": 0.004166666666666667
            },
            {
              "pitch": 49,
              "velocity": 100,
              "position": 3.9895833333333335,
              "duration": 0.004166666666666667
            }
          ]
        },
        "10": {
          "ctab": {
            "srcChannel": 10,
            "name": "Bs",
            "accType": "BASS",
            "editable": false,
            "mutedNotes": [],
            "mutedChords": [],
            "autoStart": false,
            "sourceChordNote": 0,
            "sourceChordType": "Maj7",
            "ctb2Low": null,
            "ctb2Main": {
              "ntr": "ROOT_TRANSPOSITION",
              "ntt": "MELODY",
              "bassOn": true,
              "chordRootUpperLimit": 8,
              "noteLowLimit": 28,
              "noteHighLimit": 127,
              "rtr": "PITCH_SHIFT_TO_ROOT"
            },
            "ctb2High": null,
            "ctb2MiddleLowPitch": 0,
            "ctb2MiddleHighPitch": 127
          },
          "notes": [
            {
              "pitch": 24,
              "velocity": 50,
              "position": 0,
              "duration": 0.8875
            },
            {
              "pitch": 31,
              "velocity": 50,
              "position": 1,
              "duration": 0.8875
            },
            {
              "pitch": 24,
              "velocity": 50,
              "position": 2,
              "duration": 0.8875
            },
            {
              "pitch": 31,
              "velocity": 50,
              "position": 3,
              "duration": 0.8875
            }
          ]
        },
        "11": {
          "ctab": {
            "srcChannel": 11,
            "name": "Tele",
            "accType": "CHORD1",
            "editable": false,
            "mutedNotes": [],
            "mutedChords": [],
            "autoStart": false,
            "sourceChordNote": 0,
            "sourceChordType": "Maj7",
            "ctb2Low": null,
            "ctb2Main": {
              "ntr": "GUITAR",
              "ntt": "ARPEGGIO",
              "bassOn": false,
              "chordRootUpperLimit": 7,
              "noteLowLimit": 0,
              "noteHighLimit": 127,
              "rtr": "PITCH_SHIFT"
            },
            "ctb2High": null,
            "ctb2MiddleLowPitch": 0,
            "ctb2MiddleHighPitch": 127
          },
          "notes": [
            {
              "pitch": 67,
              "velocity": 10,
              "position": 0.25,
              "duration": 0.49166666666666664
            },
            {
              "pitch": 65,
              "velocity": 30,
              "position": 0.5,
              "duration": 0.9916666666666667
            },
            {
              "pitch": 65,
              "velocity": 20,
              "position": 1.5,
              "duration": 0.9916666666666667
            },
            {
              "pitch": 67,
              "velocity": 40,
              "position": 0.75,
              "duration": 1.9916666666666667
            },
            {
              "pitch": 69,
              "velocity": 30,
              "position": 1.25,
              "duration": 1.9916666666666667
            },
            {
              "pitch": 65,
              "velocity": 30,
              "position": 2.5,
              "duration": 0.9916666666666667
            },
            {
              "pitch": 67,
              "velocity": 30,
              "position": 2.75,
              "duration": 0.9916666666666667
            },
            {
              "pitch": 65,
              "velocity": 40,
              "position": 3.5,
              "duration": 0.4895833333333333
            },
            {
              "pitch": 67,
              "velocity": 10,
              "position": 3.75,
              "duration": 0.23958333333333334
            },
            {
              "pitch": 71,
              "velocity": 20,
              "position": 1.75,
              "duration": 2.2395833333333335
            },
            {
              "pitch": 69,
              "velocity": 30,
              "position": 3.25,
              "duration": 0.7395833333333334
            }
          ]
        },
        "12": {
          "ctab": {
            "srcChannel": 12,
            "name": "Steel",
            "accType": "CHORD2",
            "editable": false,
            "mutedNotes": [],
            "mutedChords": [],
            "autoStart": false,
            "sourceChordNote": 0,
            "sourceChordType": "Maj7",
            "ctb2Low": null,
            "ctb2Main": {
              "ntr": "GUITAR",
              "ntt": "ARPEGGIO",
              "bassOn": false,
              "chordRootUpperLimit": 7,
              "noteLowLimit": 0,
              "noteHighLimit": 127,
              "rtr": "PITCH_SHIFT"
            },
            "ctb2High": null,
            "ctb2MiddleLowPitch": 0,
            "ctb2MiddleHighPitch": 127
          },
          "notes": [
            {
              "pitch": 65,
              "velocity": 19,
              "position": 0.5,
              "duration": 0.9916666666666667
            },
            {
              "pitch": 69,
              "velocity": 35,
              "position": 0.75,
              "duration": 0.9916666666666667
            },
            {
              "pitch": 65,
              "velocity": 29,
              "position": 1.5,
              "duration": 0.9916666666666667
            },
            {
              "pitch": 69,
              "velocity": 19,
              "position": 1.75,
              "duration": 0.9916666666666667
            },
            {
              "pitch": 67,
              "velocity": 29,
              "position": 1.25,
              "duration": 1.9916666666666667
            },
            {
              "pitch": 65,
              "velocity": 19,
              "position": 2.5,
              "duration": 0.9916666666666667
            },
            {
              "pitch": 69,
              "velocity": 40,
              "position": 2.75,
              "duration": 0.9916666666666667
            },
            {
              "pitch": 65,
              "velocity": 39,
              "position": 3.5,
              "duration": 0.4895833333333333
            },
            {
              "pitch": 69,
              "velocity": 19,
              "position": 3.75,
              "duration": 0.23958333333333334
            },
            {
              "pitch": 71,
              "velocity": 20,
              "position": 0,
              "duration": 3.9895833333333335
            },
            {
              "pitch": 67,
              "velocity": 29,
              "position": 3.25,
              "duration": 0.7395833333333334
            }
          ]
        },
        "13": {
          "ctab": {
            "srcChannel": 13,
            "name": "P1_Horn",
            "accType": "PAD",
            "editable": false,
            "mutedNotes": [],
            "mutedChords": [],
            "autoStart": false,
            "sourceChordNote": 0,
            "sourceChordType": "Maj7",
            "ctb2Low": null,
            "ctb2Main": {
              "ntr": "ROOT_FIXED",
              "ntt": "CHORD",
              "bassOn": false,
              "chordRootUpperLimit": 3,
              "noteLowLimit": 0,
              "noteHighLimit": 127,
              "rtr": "PITCH_SHIFT"
            },
            "ctb2High": null,
            "ctb2MiddleLowPitch": 0,
            "ctb2MiddleHighPitch": 127
          },
          "notes": [
            {
              "pitch": 67,
              "velocity": 42,
              "position": 0.0125,
              "duration": 3.9875
            }
          ]
        },
        "14": {
          "ctab": {
            "srcChannel": 14,
            "name": "HiStr",
            "accType": "PHRASE1",
            "editable": false,
            "mutedNotes": [],
            "mutedChords": [],
            "autoStart": false,
            "sourceChordNote": 0,
            "sourceChordType": "Maj7",
            "ctb2Low": null,
            "ctb2Main": {
              "ntr": "GUITAR",
              "ntt": "ARPEGGIO",
              "bassOn": false,
              "chordRootUpperLimit": 7,
              "noteLowLimit": 0,
              "noteHighLimit": 127,
              "rtr": "PITCH_SHIFT"
            },
            "ctb2High": null,
            "ctb2MiddleLowPitch": 0,
            "ctb2MiddleHighPitch": 127
          },
          "notes": [
            {
              "pitch": 67,
              "velocity": 19,
              "position": 0.25,
              "duration": 0.49166666666666664
            },
            {
              "pitch": 65,
              "velocity": 61,
              "position": 0.5,
              "duration": 0.9916666666666667
            },
            {
              "pitch": 65,
              "velocity": 39,
              "position": 1.5,
              "duration": 0.9916666666666667
            },
            {
              "pitch": 67,
              "velocity": 81,
              "position": 0.75,
              "duration": 1.9916666666666667
            },
            {
              "pitch": 69,
              "velocity": 61,
              "position": 1.25,
              "duration": 1.9916666666666667
            },
            {
              "pitch": 65,
              "velocity": 61,
              "position": 2.5,
              "duration": 0.9916666666666667
            },
            {
              "pitch": 67,
              "velocity": 61,
              "position": 2.75,
              "duration": 0.9916666666666667
            },
            {
              "pitch": 65,
              "velocity": 81,
              "position": 3.5,
              "duration": 0.4895833333333333
            },
            {
              "pitch": 67,
              "velocity": 19,
              "position": 3.75,
              "duration": 0.23958333333333334
            },
            {
              "pitch": 71,
              "velocity": 39,
              "position": 1.75,
              "duration": 2.2395833333333335
            },
            {
              "pitch": 69,
              "velocity": 61,
              "position": 3.25,
              "duration": 0.7395833333333334
            }
          ]
        }
      }
    },
    "Fill_In_DD": {
      "type": "Fill_In_DD",
      "sizeInBeats": 4,
      "channels": {
        "2": {
          "ctab": {
            "srcChannel": 2,
            "name": "GtBass",
            "accType": "CHORD1",
            "editable": false,
            "mutedNotes": [],
            "mutedChords": [],
            "autoStart": false,
            "sourceChordNote": 0,
            "sourceChordType": "Maj7",
            "ctb2Low": null,
            "ctb2Main": {
              "ntr": "ROOT_TRANSPOSITION",
              "ntt": "MELODY",
              "bassOn": true,
              "chordRootUpperLimit": 8,
              "noteLowLimit": 40,
              "noteHighLimit": 127,
              "rtr": "PITCH_SHIFT_TO_ROOT"
            },
            "ctb2High": null,
            "ctb2MiddleLowPitch": 0,
            "ctb2MiddleHighPitch": 127
          },
          "notes": [
            {
              "pitch": 36,
              "velocity": 32,
              "position": 0,
              "duration": 0.7416666666666667
            },
            {
              "pitch": 43,
              "velocity": 22,
              "position": 1,
              "duration": 0.7416666666666667
            },
            {
              "pitch": 36,
              "velocity": 32,
              "position": 2,
              "duration": 0.7416666666666667
            },
            {
              "pitch": 43,
              "velocity": 22,
              "position": 3,
              "duration": 0.7395833333333334
            }
          ]
        },
        "3": {
          "ctab": {
            "srcChannel": 3,
            "name": "GtBass",
            "accType": "CHORD2",
            "editable": false,
            "mutedNotes": [],
            "mutedChords": [],
            "autoStart": false,
            "sourceChordNote": 0,
            "sourceChordType": "Maj7",
            "ctb2Low": null,
            "ctb2Main": {
              "ntr": "ROOT_TRANSPOSITION",
              "ntt": "MELODY",
              "bassOn": true,
              "chordRootUpperLimit": 8,
              "noteLowLimit": 40,
              "noteHighLimit": 127,
              "rtr": "PITCH_SHIFT_TO_ROOT"
            },
            "ctb2High": null,
            "ctb2MiddleLowPitch": 0,
            "ctb2MiddleHighPitch": 127
          },
          "notes": [
            {
              "pitch": 36,
              "velocity": 31,
              "position": 0,
              "duration": 0.7416666666666667
            },
            {
              "pitch": 43,
              "velocity": 21,
              "position": 1,
              "duration": 0.7416666666666667
            },
            {
              "pitch": 36,
              "velocity": 31,
              "position": 2,
              "duration": 0.7416666666666667
            },
            {
              "pitch": 43,
              "velocity": 21,
              "position": 3,
              "duration": 0.7395833333333334
            }
          ]
        },
        "4": {
          "ctab": {
            "srcChannel": 4,
            "name": "StrgRt",
            "accType": "PHRASE2",
            "editable": false,
            "mutedNotes": [],
            "mutedChords": [
              "1+2+5",
              "sus4",
              "1+5",
              "1+8",
              "Maj7aug",
              "dim",
              "minMaj7(9)",
              "minMaj7",
              "min6",
              "min",
              "aug",
              "Maj7(9)",
              "Maj7#11",
              "Maj7",
              "Maj6",
              "Maj"
            ],
            "autoStart": false,
            "sourceChordNote": 0,
            "sourceChordType": "Maj7",
            "ctb2Low": null,
            "ctb2Main": {
              "ntr": "ROOT_TRANSPOSITION",
              "ntt": "MELODY",
              "bassOn": false,
              "chordRootUpperLimit": 6,
              "noteLowLimit": 0,
              "noteHighLimit": 127,
              "rtr": "PITCH_SHIFT"
            },
            "ctb2High": null,
            "ctb2MiddleLowPitch": 0,
            "ctb2MiddleHighPitch": 127
          },
          "notes": [
            {
              "pitch": 72,
              "velocity": 31,
              "position": 0,
              "duration": 4
            }
          ]
        },
        "5": {
          "ctab": {
            "srcChannel": 5,
            "name": "GtBass",
            "accType": "PHRASE1",
            "editable": false,
            "mutedNotes": [],
            "mutedChords": [],
            "autoStart": false,
            "sourceChordNote": 0,
            "sourceChordType": "Maj7",
            "ctb2Low": null,
            "ctb2Main": {
              "ntr": "ROOT_TRANSPOSITION",
              "ntt": "MELODY",
              "bassOn": true,
              "chordRootUpperLimit": 8,
              "noteLowLimit": 40,
              "noteHighLimit": 127,
              "rtr": "PITCH_SHIFT_TO_ROOT"
            },
            "ctb2High": null,
            "ctb2MiddleLowPitch": 0,
            "ctb2MiddleHighPitch": 127
          },
          "notes": [
            {
              "pitch": 36,
              "velocity": 64,
              "position": 0,
              "duration": 0.7416666666666667
            },
            {
              "pitch": 43,
              "velocity": 44,
              "position": 1,
              "duration": 0.7416666666666667
            },
            {
              "pitch": 36,
              "velocity": 64,
              "position": 2,
              "duration": 0.7416666666666667
            },
            {
              "pitch": 43,
              "velocity": 44,
              "position": 3,
              "duration": 0.7395833333333334
            }
          ]
        },
        "8": {
          "ctab": {
            "srcChannel": 8,
            "name": "Prc",
            "accType": "SUBRHYTHM",
            "editable": true,
            "mutedNotes": [],
            "mutedChords": [],
            "autoStart": true,
            "sourceChordNote": 0,
            "sourceChordType": "Maj7",
            "ctb2Low": null,
            "ctb2Main": {
              "ntr": "ROOT_FIXED",
              "ntt": "BYPASS",
              "bassOn": false,
              "chordRootUpperLimit": 6,
              "noteLowLimit": 0,
              "noteHighLimit": 127,
              "rtr": "PITCH_SHIFT"
            },
            "ctb2High": null,
            "ctb2MiddleLowPitch": 0,
            "ctb2MiddleHighPitch": 127
          },
          "notes": [
            {
              "pitch": 68,
              "velocity": 40,
              "position": 0.5,
              "duration": 0.004166666666666667
            },
            {
              "pitch": 68,
              "velocity": 40,
              "position": 1.5,
              "duration": 0.004166666666666667
            },
            {
              "pitch": 84,
              "velocity": 50,
              "position": 2,
              "duration": 0.004166666666666667
            },
            {
              "pitch": 68,
              "velocity": 40,
              "position": 2.5,
              "duration": 0.004166666666666667
            },
            {
              "pitch": 68,
              "velocity": 40,
              "position": 3.5,
              "duration": 0.004166666666666667
            }
          ]
        },
        "9": {
          "ctab": {
            "srcChannel": 9,
            "name": "Drs",
            "accType": "RHYTHM",
            "editable": true,
            "mutedNotes": [],
            "mutedChords": [],
            "autoStart": true,
            "sourceChordNote": 0,
            "sourceChordType": "Maj7",
            "ctb2Low": null,
            "ctb2Main": {
              "ntr": "ROOT_FIXED",
              "ntt": "BYPASS",
              "bassOn": false,
              "chordRootUpperLimit": 6,
              "noteLowLimit": 0,
              "noteHighLimit": 127,
              "rtr": "PITCH_SHIFT"
            },
            "ctb2High": null,
            "ctb2MiddleLowPitch": 0,
            "ctb2MiddleHighPitch": 127
          },
          "notes": [
            {
              "pitch": 33,
              "velocity": 68,
              "position": 0,
              "duration": 0.004166666666666667
            },
            {
              "pitch": 51,
              "velocity": 70,
              "position": 0,
              "duration": 0.004166666666666667
            },
            {
              "pitch": 38,
              "velocity": 100,
              "position": 0.5,
              "duration": 0.004166666666666667
            },
            {
              "pitch": 51,
              "velocity": 50,
              "position": 0.5,
              "duration": 0.004166666666666667
            },
            {
              "pitch": 44,
              "velocity": 52,
              "position": 0.5,
              "duration": 0.004166666666666667
            },
            {
              "pitch": 38,
              "velocity": 57,
              "position": 0.75,
              "duration": 0.004166666666666667
            },
            {
              "pitch": 33,
              "velocity": 68,
              "position": 1,
              "duration": 0.004166666666666667
            },
            {
              "pitch": 51,
              "velocity": 70,
              "position": 1,
              "duration": 0.004166666666666667
            },
            {
              "pitch": 38,
              "velocity": 55,
              "position": 1.25,
              "duration": 0.004166666666666667
            },
            {
              "pitch": 38,
              "velocity": 127,
              "position": 1.5,
              "duration": 0.004166666666666667
            },
            {
              "pitch": 51,
              "velocity": 50,
              "position": 1.5,
              "duration": 0.004166666666666667
            },
            {
              "pitch": 44,
              "velocity": 52,
              "position": 1.5,
              "duration": 0.004166666666666667
            },
            {
              "pitch": 38,
              "velocity": 60,
              "position": 1.75,
              "duration": 0.004166666666666667
            },
            {
              "pitch": 33,
              "velocity": 68,
              "position": 2,
              "duration": 0.004166666666666667
            },
            {
              "pitch": 51,
              "velocity": 70,
              "position": 2,
              "duration": 0.004166666666666667
            },
            {
              "pitch": 25,
              "velocity": 98,
              "position": 2.25,
              "duration": 0.004166666666666667
            },
            {
              "pitch": 40,
              "velocity": 127,
              "position": 2.5,
              "duration": 0.004166666666666667
            },
            {
              "pitch": 44,
              "velocity": 52,
              "position": 2.5,
              "duration": 0.004166666666666667
            },
            {
              "pitch": 33,
              "velocity": 68,
              "position": 3,
              "duration": 0.004166666666666667
            },
            {
              "pitch": 38,
              "velocity": 98,
              "position": 3,
              "duration": 0.004166666666666667
            },
            {
              "pitch": 25,
              "velocity": 98,
              "position": 3.25,
              "duration": 0.004166666666666667
            },
            {
              "pitch": 38,
              "velocity": 127,
              "position": 3.5,
              "duration": 0.004166666666666667
            },
            {
              "pitch": 44,
              "velocity": 52,
              "position": 3.5,
              "duration": 0.004166666666666667
            },
            {
              "pitch": 40,
              "velocity": 118,
              "position": 3.75,
              "duration": 0.004166666666666667
            },
            {
              "pitch": 49,
              "velocity": 100,
              "position": 3.9895833333333335,
              "duration": 0.004166666666666667
            }
          ]
        },
        "10": {
          "ctab": {
            "srcChannel": 10,
            "name": "Bs",
            "accType": "BASS",
            "editable": false,
            "mutedNotes": [],
            "mutedChords": [],
            "autoStart": false,
            "sourceChordNote": 0,
            "sourceChordType": "Maj7",
            "ctb2Low": null,
            "ctb2Main": {
              "ntr": "ROOT_TRANSPOSITION",
              "ntt": "MELODY",
              "bassOn": true,
              "chordRootUpperLimit": 8,
              "noteLowLimit": 28,
              "noteHighLimit": 127,
              "rtr": "PITCH_SHIFT_TO_ROOT"
            },
            "ctb2High": null,
            "ctb2MiddleLowPitch": 0,
            "ctb2MiddleHighPitch": 127
          },
          "notes": [
            {
              "pitch": 24,
              "velocity": 50,
              "position": 0,
              "duration": 0.5375
            },
            {
              "pitch": 31,
              "velocity": 50,
              "position": 1,
              "duration": 0.5375
            },
            {
              "pitch": 24,
              "velocity": 50,
              "position": 2,
              "duration": 0.5375
            },
            {
              "pitch": 31,
              "velocity": 50,
              "position": 3,
              "duration": 0.5375
            }
          ]
        },
        "11": {
          "ctab": {
            "srcChannel": 11,
            "name": "Tele",
            "accType": "CHORD1",
            "editable": false,
            "mutedNotes": [],
            "mutedChords": [],
            "autoStart": false,
            "sourceChordNote": 0,
            "sourceChordType": "Maj7",
            "ctb2Low": null,
            "ctb2Main": {
              "ntr": "GUITAR",
              "ntt": "ARPEGGIO",
              "bassOn": false,
              "chordRootUpperLimit": 7,
              "noteLowLimit": 0,
              "noteHighLimit": 127,
              "rtr": "PITCH_SHIFT"
            },
            "ctb2High": null,
            "ctb2MiddleLowPitch": 0,
            "ctb2MiddleHighPitch": 127
          },
          "notes": [
            {
              "pitch": 67,
              "velocity": 10,
              "position": 0.25,
              "duration": 0.49166666666666664
            },
            {
              "pitch": 65,
              "velocity": 30,
              "position": 0.5,
              "duration": 0.9916666666666667
            },
            {
              "pitch": 65,
              "velocity": 20,
              "position": 1.5,
              "duration": 0.9916666666666667
            },
            {
              "pitch": 67,
              "velocity": 40,
              "position": 0.75,
              "duration": 1.9916666666666667
            },
            {
              "pitch": 69,
              "velocity": 30,
              "position": 1.25,
              "duration": 1.9916666666666667
            },
            {
              "pitch": 65,
              "velocity": 30,
              "position": 2.5,
              "duration": 0.9916666666666667
            },
            {
              "pitch": 67,
              "velocity": 30,
              "position": 2.75,
              "duration": 0.9916666666666667
            },
            {
              "pitch": 65,
              "velocity": 40,
              "position": 3.5,
              "duration": 0.4895833333333333
            },
            {
              "pitch": 67,
              "velocity": 10,
              "position": 3.75,
              "duration": 0.23958333333333334
            },
            {
              "pitch": 71,
              "velocity": 20,
              "position": 1.75,
              "duration": 2.2395833333333335
            },
            {
              "pitch": 69,
              "velocity": 30,
              "position": 3.25,
              "duration": 0.7395833333333334
            }
          ]
        },
        "12": {
          "ctab": {
            "srcChannel": 12,
            "name": "Steel",
            "accType": "CHORD2",
            "editable": false,
            "mutedNotes": [],
            "mutedChords": [],
            "autoStart": false,
            "sourceChordNote": 0,
            "sourceChordType": "Maj7",
            "ctb2Low": null,
            "ctb2Main": {
              "ntr": "GUITAR",
              "ntt": "ARPEGGIO",
              "bassOn": false,
              "chordRootUpperLimit": 7,
              "noteLowLimit": 0,
              "noteHighLimit": 127,
              "rtr": "PITCH_SHIFT"
            },
            "ctb2High": null,
            "ctb2MiddleLowPitch": 0,
            "ctb2MiddleHighPitch": 127
          },
          "notes": [
            {
              "pitch": 67,
              "velocity": 9,
              "position": 0.25,
              "duration": 0.49166666666666664
            },
            {
              "pitch": 65,
              "velocity": 29,
              "position": 0.5,
              "duration": 0.9916666666666667
            },
            {
              "pitch": 65,
              "velocity": 19,
              "position": 1.5,
              "duration": 0.9916666666666667
            },
            {
              "pitch": 67,
              "velocity": 39,
              "position": 0.75,
              "duration": 1.9916666666666667
            },
            {
              "pitch": 69,
              "velocity": 29,
              "position": 1.25,
              "duration": 1.9916666666666667
            },
            {
              "pitch": 65,
              "velocity": 29,
              "position": 2.5,
              "duration": 0.9916666666666667
            },
            {
              "pitch": 67,
              "velocity": 29,
              "position": 2.75,
              "duration": 0.9916666666666667
            },
            {
              "pitch": 65,
              "velocity": 39,
              "position": 3.5,
              "duration": 0.4895833333333333
            },
            {
              "pitch": 67,
              "velocity": 9,
              "position": 3.75,
              "duration": 0.23958333333333334
            },
            {
              "pitch": 71,
              "velocity": 19,
              "position": 1.75,
              "duration": 2.2395833333333335
            },
            {
              "pitch": 69,
              "velocity": 29,
              "position": 3.25,
              "duration": 0.7395833333333334
            }
          ]
        },
        "13": {
          "ctab": {
            "srcChannel": 13,
            "name": "P1_Horn",
            "accType": "PAD",
            "editable": false,
            "mutedNotes": [],
            "mutedChords": [],
            "autoStart": false,
            "sourceChordNote": 0,
            "sourceChordType": "Maj7",
            "ctb2Low": null,
            "ctb2Main": {
              "ntr": "ROOT_FIXED",
              "ntt": "CHORD",
              "bassOn": false,
              "chordRootUpperLimit": 3,
              "noteLowLimit": 0,
              "noteHighLimit": 127,
              "rtr": "PITCH_SHIFT"
            },
            "ctb2High": null,
            "ctb2MiddleLowPitch": 0,
            "ctb2MiddleHighPitch": 127
          },
          "notes": [
            {
              "pitch": 67,
              "velocity": 42,
              "position": 0.00625,
              "duration": 3.99375
            }
          ]
        },
        "14": {
          "ctab": {
            "srcChannel": 14,
            "name": "HiStr",
            "accType": "PHRASE1",
            "editable": false,
            "mutedNotes": [],
            "mutedChords": [],
            "autoStart": false,
            "sourceChordNote": 0,
            "sourceChordType": "Maj7",
            "ctb2Low": null,
            "ctb2Main": {
              "ntr": "GUITAR",
              "ntt": "ARPEGGIO",
              "bassOn": false,
              "chordRootUpperLimit": 7,
              "noteLowLimit": 0,
              "noteHighLimit": 127,
              "rtr": "PITCH_SHIFT"
            },
            "ctb2High": null,
            "ctb2MiddleLowPitch": 0,
            "ctb2MiddleHighPitch": 127
          },
          "notes": [
            {
              "pitch": 65,
              "velocity": 33,
              "position": 0.5,
              "duration": 0.9916666666666667
            },
            {
              "pitch": 69,
              "velocity": 61,
              "position": 0.75,
              "duration": 0.9916666666666667
            },
            {
              "pitch": 65,
              "velocity": 51,
              "position": 1.5,
              "duration": 0.9916666666666667
            },
            {
              "pitch": 69,
              "velocity": 33,
              "position": 1.75,
              "duration": 0.9916666666666667
            },
            {
              "pitch": 67,
              "velocity": 51,
              "position": 1.25,
              "duration": 1.9916666666666667
            },
            {
              "pitch": 65,
              "velocity": 33,
              "position": 2.5,
              "duration": 0.9916666666666667
            },
            {
              "pitch": 69,
              "velocity": 69,
              "position": 2.75,
              "duration": 0.9916666666666667
            },
            {
              "pitch": 65,
              "velocity": 68,
              "position": 3.5,
              "duration": 0.4895833333333333
            },
            {
              "pitch": 69,
              "velocity": 33,
              "position": 3.75,
              "duration": 0.23958333333333334
            },
            {
              "pitch": 71,
              "velocity": 36,
              "position": 0,
              "duration": 3.9895833333333335
            },
            {
              "pitch": 67,
              "velocity": 51,
              "position": 3.25,
              "duration": 0.7395833333333334
            }
          ]
        },
        "15": {
          "ctab": {
            "srcChannel": 15,
            "name": "MSStrgs",
            "accType": "PHRASE2",
            "editable": false,
            "mutedNotes": [],
            "mutedChords": [],
            "autoStart": false,
            "sourceChordNote": 0,
            "sourceChordType": "Maj7",
            "ctb2Low": null,
            "ctb2Main": {
              "ntr": "ROOT_FIXED",
              "ntt": "CHORD",
              "bassOn": false,
              "chordRootUpperLimit": 7,
              "noteLowLimit": 0,
              "noteHighLimit": 127,
              "rtr": "PITCH_SHIFT"
            },
            "ctb2High": null,
            "ctb2MiddleLowPitch": 0,
            "ctb2MiddleHighPitch": 127
          },
          "notes": [
            {
              "pitch": 59,
              "velocity": 31,
              "position": 0,
              "duration": 1.98125
            },
            {
              "pitch": 76,
              "velocity": 32,
              "position": 0,
              "duration": 1.98125
            },
            {
              "pitch": 71,
              "velocity": 31,
              "position": 0,
              "duration": 2.98125
            },
            {
              "pitch": 76,
              "velocity": 31,
              "position": 2,
              "duration": 1.98125
            },
            {
              "pitch": 79,
              "velocity": 32,
              "position": 2,
              "duration": 1.9833333333333334
            },
            {
              "pitch": 64,
              "velocity": 31,
              "position": 0,
              "duration": 4
            },
            {
              "pitch": 67,
              "velocity": 31,
              "position": 0,
              "duration": 4
            },
            {
              "pitch": 71,
              "velocity": 31,
              "position": 3,
              "duration": 1
            }
          ]
        }
      }
    },
    "Intro_A": {
      "type": "Intro_A",
      "sizeInBeats": 4,
      "channels": {
        "3": {
          "ctab": {
            "srcChannel": 3,
            "name": "GtBass",
            "accType": "CHORD2",
            "editable": false,
            "mutedNotes": [],
            "mutedChords": [],
            "autoStart": false,
            "sourceChordNote": 0,
            "sourceChordType": "Maj7",
            "ctb2Low": null,
            "ctb2Main": {
              "ntr": "ROOT_TRANSPOSITION",
              "ntt": "MELODY",
              "bassOn": true,
              "chordRootUpperLimit": 8,
              "noteLowLimit": 40,
              "noteHighLimit": 127,
              "rtr": "PITCH_SHIFT_TO_ROOT"
            },
            "ctb2High": null,
            "ctb2MiddleLowPitch": 0,
            "ctb2MiddleHighPitch": 127
          },
          "notes": [
            {
              "pitch": 36,
              "velocity": 31,
              "position": 0,
              "duration": 4
            }
          ]
        },
        "5": {
          "ctab": {
            "srcChannel": 5,
            "name": "GtBass",
            "accType": "PHRASE1",
            "editable": false,
            "mutedNotes": [],
            "mutedChords": [],
            "autoStart": false,
            "sourceChordNote": 0,
            "sourceChordType": "Maj7",
            "ctb2Low": null,
            "ctb2Main": {
              "ntr": "ROOT_TRANSPOSITION",
              "ntt": "MELODY",
              "bassOn": true,
              "chordRootUpperLimit": 8,
              "noteLowLimit": 40,
              "noteHighLimit": 127,
              "rtr": "PITCH_SHIFT_TO_ROOT"
            },
            "ctb2High": null,
            "ctb2MiddleLowPitch": 0,
            "ctb2MiddleHighPitch": 127
          },
          "notes": [
            {
              "pitch": 36,
              "velocity": 64,
              "position": 0,
              "duration": 4
            }
          ]
        },
        "8": {
          "ctab": {
            "srcChannel": 8,
            "name": "Prc",
            "accType": "SUBRHYTHM",
            "editable": true,
            "mutedNotes": [],
            "mutedChords": [],
            "autoStart": true,
            "sourceChordNote": 0,
            "sourceChordType": "Maj7",
            "ctb2Low": null,
            "ctb2Main": {
              "ntr": "ROOT_FIXED",
              "ntt": "BYPASS",
              "bassOn": false,
              "chordRootUpperLimit": 6,
              "noteLowLimit": 0,
              "noteHighLimit": 127,
              "rtr": "PITCH_SHIFT"
            },
            "ctb2High": null,
            "ctb2MiddleLowPitch": 0,
            "ctb2MiddleHighPitch": 127
          },
          "notes": [
            {
              "pitch": 84,
              "velocity": 50,
              "position": 2,
              "duration": 0.004166666666666667
            }
          ]
        },
        "9": {
          "ctab": {
            "srcChannel": 9,
            "name": "Drs",
            "accType": "RHYTHM",
            "editable": true,
            "mutedNotes": [],
            "mutedChords": [],
            "autoStart": true,
            "sourceChordNote": 0,
            "sourceChordType": "Maj7",
            "ctb2Low": null,
            "ctb2Main": {
              "ntr": "ROOT_FIXED",
              "ntt": "BYPASS",
              "bassOn": false,
              "chordRootUpperLimit": 6,
              "noteLowLimit": 0,
              "noteHighLimit": 127,
              "rtr": "PITCH_SHIFT"
            },
            "ctb2High": null,
            "ctb2MiddleLowPitch": 0,
            "ctb2MiddleHighPitch": 127
          },
          "notes": [
            {
              "pitch": 44,
              "velocity": 52,
              "position": 0,
              "duration": 0.004166666666666667
            },
            {
              "pitch": 44,
              "velocity": 52,
              "position": 1,
              "duration": 0.004166666666666667
            },
            {
              "pitch": 44,
              "velocity": 52,
              "position": 2,
              "duration": 0.004166666666666667
            },
            {
              "pitch": 40,
              "velocity": 57,
              "position": 2.75,
              "duration": 0.004166666666666667
            },
            {
              "pitch": 40,
              "velocity": 120,
              "position": 3,
              "duration": 0.004166666666666667
            },
            {
              "pitch": 44,
              "velocity": 52,
              "position": 3,
              "duration": 0.004166666666666667
            },
            {
              "pitch": 47,
              "velocity": 80,
              "position": 3.5,
              "duration": 0.004166666666666667
            },
            {
              "pitch": 36,
              "velocity": 40,
              "position": 3.9895833333333335,
              "duration": 0.004166666666666667
            },
            {
              "pitch": 49,
              "velocity": 100,
              "position": 3.9895833333333335,
              "duration": 0.004166666666666667
            }
          ]
        },
        "10": {
          "ctab": {
            "srcChannel": 10,
            "name": "Bs",
            "accType": "BASS",
            "editable": false,
            "mutedNotes": [],
            "mutedChords": [],
            "autoStart": false,
            "sourceChordNote": 0,
            "sourceChordType": "Maj7",
            "ctb2Low": null,
            "ctb2Main": {
              "ntr": "ROOT_TRANSPOSITION",
              "ntt": "MELODY",
              "bassOn": true,
              "chordRootUpperLimit": 8,
              "noteLowLimit": 28,
              "noteHighLimit": 127,
              "rtr": "PITCH_SHIFT_TO_ROOT"
            },
            "ctb2High": null,
            "ctb2MiddleLowPitch": 0,
            "ctb2MiddleHighPitch": 127
          },
          "notes": [
            {
              "pitch": 24,
              "velocity": 50,
              "position": 0,
              "duration": 4
            }
          ]
        },
        "11": {
          "ctab": {
            "srcChannel": 11,
            "name": "Tele",
            "accType": "CHORD1",
            "editable": false,
            "mutedNotes": [],
            "mutedChords": [],
            "autoStart": false,
            "sourceChordNote": 0,
            "sourceChordType": "Maj7",
            "ctb2Low": null,
            "ctb2Main": {
              "ntr": "GUITAR",
              "ntt": "STROKE",
              "bassOn": false,
              "chordRootUpperLimit": 7,
              "noteLowLimit": 0,
              "noteHighLimit": 127,
              "rtr": "PITCH_SHIFT"
            },
            "ctb2High": null,
            "ctb2MiddleLowPitch": 0,
            "ctb2MiddleHighPitch": 127
          },
          "notes": [
            {
              "pitch": 62,
              "velocity": 7,
              "position": 0,
              "duration": 4
            },
            {
              "pitch": 64,
              "velocity": 16,
              "position": 0.004166666666666667,
              "duration": 3.995833333333333
            },
            {
              "pitch": 65,
              "velocity": 33,
              "position": 0.010416666666666666,
              "duration": 3.9895833333333335
            },
            {
              "pitch": 67,
              "velocity": 25,
              "position": 0.014583333333333334,
              "duration": 3.9854166666666666
            },
            {
              "pitch": 69,
              "velocity": 31,
              "position": 0.020833333333333332,
              "duration": 3.9791666666666665
            },
            {
              "pitch": 71,
              "velocity": 32,
              "position": 0.025,
              "duration": 3.975
            }
          ]
        },
        "12": {
          "ctab": {
            "srcChannel": 12,
            "name": "Steel",
            "accType": "CHORD2",
            "editable": false,
            "mutedNotes": [],
            "mutedChords": [],
            "autoStart": false,
            "sourceChordNote": 0,
            "sourceChordType": "Maj7",
            "ctb2Low": null,
            "ctb2Main": {
              "ntr": "GUITAR",
              "ntt": "ARPEGGIO",
              "bassOn": false,
              "chordRootUpperLimit": 7,
              "noteLowLimit": 0,
              "noteHighLimit": 127,
              "rtr": "PITCH_SHIFT"
            },
            "ctb2High": null,
            "ctb2MiddleLowPitch": 0,
            "ctb2MiddleHighPitch": 127
          },
          "notes": [
            {
              "pitch": 53,
              "velocity": 29,
              "position": 0,
              "duration": 4
            },
            {
              "pitch": 55,
              "velocity": 39,
              "position": 0,
              "duration": 4
            },
            {
              "pitch": 57,
              "velocity": 9,
              "position": 0,
              "duration": 4
            },
            {
              "pitch": 59,
              "velocity": 40,
              "position": 0,
              "duration": 4
            }
          ]
        },
        "13": {
          "ctab": {
            "srcChannel": 13,
            "name": "Strings",
            "accType": "PAD",
            "editable": false,
            "mutedNotes": [],
            "mutedChords": [],
            "autoStart": false,
            "sourceChordNote": 0,
            "sourceChordType": "Maj7",
            "ctb2Low": null,
            "ctb2Main": {
              "ntr": "ROOT_FIXED",
              "ntt": "CHORD",
              "bassOn": false,
              "chordRootUpperLimit": 7,
              "noteLowLimit": 0,
              "noteHighLimit": 127,
              "rtr": "PITCH_SHIFT"
            },
            "ctb2High": null,
            "ctb2MiddleLowPitch": 0,
            "ctb2MiddleHighPitch": 127
          },
          "notes": [
            {
              "pitch": 64,
              "velocity": 52,
              "position": 0,
              "duration": 4
            },
            {
              "pitch": 71,
              "velocity": 52,
              "position": 0,
              "duration": 4
            },
            {
              "pitch": 79,
              "velocity": 48,
              "position": 0,
              "duration": 4
            }
          ]
        },
        "14": {
          "ctab": {
            "srcChannel": 14,
            "name": "HiStr",
            "accType": "PHRASE1",
            "editable": false,
            "mutedNotes": [],
            "mutedChords": [],
            "autoStart": false,
            "sourceChordNote": 0,
            "sourceChordType": "Maj7",
            "ctb2Low": null,
            "ctb2Main": {
              "ntr": "GUITAR",
              "ntt": "ARPEGGIO",
              "bassOn": false,
              "chordRootUpperLimit": 7,
              "noteLowLimit": 0,
              "noteHighLimit": 127,
              "rtr": "PITCH_SHIFT"
            },
            "ctb2High": null,
            "ctb2MiddleLowPitch": 0,
            "ctb2MiddleHighPitch": 127
          },
          "notes": [
            {
              "pitch": 65,
              "velocity": 33,
              "position": 0,
              "duration": 4
            },
            {
              "pitch": 67,
              "velocity": 33,
              "position": 0,
              "duration": 4
            },
            {
              "pitch": 69,
              "velocity": 61,
              "position": 0,
              "duration": 4
            },
            {
              "pitch": 71,
              "velocity": 36,
              "position": 0,
              "duration": 4
            }
          ]
        }
      }
    },
    "Intro_B": {
      "type": "Intro_B",
      "sizeInBeats": 32,
      "channels": {
        "2": {
          "ctab": {
            "srcChannel": 2,
            "name": "GtBass",
            "accType": "CHORD1",
            "editable": false,
            "mutedNotes": [],
            "mutedChords": [],
            "autoStart": false,
            "sourceChordNote": 0,
            "sourceChordType": "Maj7",
            "ctb2Low": null,
            "ctb2Main": {
              "ntr": "ROOT_TRANSPOSITION",
              "ntt": "MELODY",
              "bassOn": true,
              "chordRootUpperLimit": 8,
              "noteLowLimit": 40,
              "noteHighLimit": 127,
              "rtr": "PITCH_SHIFT_TO_ROOT"
            },
            "ctb2High": null,
            "ctb2MiddleLowPitch": 0,
            "ctb2MiddleHighPitch": 127
          },
          "notes": [
            {
              "pitch": 36,
              "velocity": 40,
              "position": 0,
              "duration": 1.7416666666666667
            },
            {
              "pitch": 36,
              "velocity": 20,
              "position": 2,
              "duration": 1.2416666666666667
            },
            {
              "pitch": 43,
              "velocity": 21,
              "position": 3.5,
              "duration": 0.24166666666666667
            },
            {
              "pitch": 36,
              "velocity": 41,
              "position": 4,
              "duration": 1.7416666666666667
            },
            {
              "pitch": 36,
              "velocity": 30,
              "position": 6,
              "duration": 1.2416666666666667
            },
            {
              "pitch": 43,
              "velocity": 21,
              "position": 7.5,
              "duration": 0.24166666666666667
            },
            {
              "pitch": 36,
              "velocity": 40,
              "position": 8,
              "duration": 1.7416666666666667
            },
            {
              "pitch": 36,
              "velocity": 20,
              "position": 10,
              "duration": 1.2416666666666667
            },
            {
              "pitch": 43,
              "velocity": 21,
              "position": 11.5,
              "duration": 0.24166666666666667
            },
            {
              "pitch": 36,
              "velocity": 41,
              "position": 12,
              "duration": 1.7416666666666667
            },
            {
              "pitch": 36,
              "velocity": 30,
              "position": 14,
              "duration": 1.2416666666666667
            },
            {
              "pitch": 43,
              "velocity": 21,
              "position": 15.5,
              "duration": 0.23958333333333334
            },
            {
              "pitch": 36,
              "velocity": 40,
              "position": 16,
              "duration": 1.7416666666666667
            },
            {
              "pitch": 36,
              "velocity": 20,
              "position": 18,
              "duration": 1.2416666666666667
            },
            {
              "pitch": 43,
              "velocity": 21,
              "position": 19.5,
              "duration": 0.24166666666666667
            },
            {
              "pitch": 36,
              "velocity": 41,
              "position": 20,
              "duration": 1.7416666666666667
            },
            {
              "pitch": 36,
              "velocity": 30,
              "position": 22,
              "duration": 1.2416666666666667
            },
            {
              "pitch": 43,
              "velocity": 21,
              "position": 23.5,
              "duration": 0.24166666666666667
            },
            {
              "pitch": 36,
              "velocity": 40,
              "position": 24,
              "duration": 1.7416666666666667
            },
            {
              "pitch": 36,
              "velocity": 20,
              "position": 26,
              "duration": 1.2416666666666667
            },
            {
              "pitch": 43,
              "velocity": 21,
              "position": 27.5,
              "duration": 0.24166666666666667
            },
            {
              "pitch": 36,
              "velocity": 41,
              "position": 28,
              "duration": 1.7416666666666667
            },
            {
              "pitch": 36,
              "velocity": 30,
              "position": 30,
              "duration": 1.2416666666666667
            },
            {
              "pitch": 43,
              "velocity": 21,
              "position": 31.5,
              "duration": 0.23958333333333334
            }
          ]
        },
        "9": {
          "ctab": {
            "srcChannel": 9,
            "name": "Drs",
            "accType": "RHYTHM",
            "editable": true,
            "mutedNotes": [],
            "mutedChords": [],
            "autoStart": true,
            "sourceChordNote": 0,
            "sourceChordType": "Maj7",
            "ctb2Low": null,
            "ctb2Main": {
              "ntr": "ROOT_FIXED",
              "ntt": "BYPASS",
              "bassOn": false,
              "chordRootUpperLimit": 6,
              "noteLowLimit": 0,
              "noteHighLimit": 127,
              "rtr": "PITCH_SHIFT"
            },
            "ctb2High": null,
            "ctb2MiddleLowPitch": 0,
            "ctb2MiddleHighPitch": 127
          },
          "notes": [
            {
              "pitch": 44,
              "velocity": 52,
              "position": 0.5,
              "duration": 0.004166666666666667
            },
            {
              "pitch": 33,
              "velocity": 68,
              "position": 1,
              "duration": 0.004166666666666667
            },
            {
              "pitch": 44,
              "velocity": 52,
              "position": 1.5,
              "duration": 0.004166666666666667
            },
            {
              "pitch": 44,
              "velocity": 52,
              "position": 2.5,
              "duration": 0.004166666666666667
            },
            {
              "pitch": 33,
              "velocity": 68,
              "position": 3,
              "duration": 0.004166666666666667
            },
            {
              "pitch": 44,
              "velocity": 52,
              "position": 3.5,
              "duration": 0.004166666666666667
            },
            {
              "pitch": 44,
              "velocity": 52,
              "position": 4.5,
              "duration": 0.004166666666666667
            },
            {
              "pitch": 33,
              "velocity": 68,
              "position": 5,
              "duration": 0.004166666666666667
            },
            {
              "pitch": 44,
              "velocity": 52,
              "position": 5.5,
              "duration": 0.004166666666666667
            },
            {
              "pitch": 44,
              "velocity": 52,
              "position": 6.5,
              "duration": 0.004166666666666667
            },
            {
              "pitch": 33,
              "velocity": 68,
              "position": 7,
              "duration": 0.004166666666666667
            },
            {
              "pitch": 44,
              "velocity": 52,
              "position": 7.5,
              "duration": 0.004166666666666667
            },
            {
              "pitch": 44,
              "velocity": 52,
              "position": 8.5,
              "duration": 0.004166666666666667
            },
            {
              "pitch": 33,
              "velocity": 68,
              "position": 9,
              "duration": 0.004166666666666667
            },
            {
              "pitch": 44,
              "velocity": 52,
              "position": 9.5,
              "duration": 0.004166666666666667
            },
            {
              "pitch": 44,
              "velocity": 52,
              "position": 10.5,
              "duration": 0.004166666666666667
            },
            {
              "pitch": 33,
              "velocity": 68,
              "position": 11,
              "duration": 0.004166666666666667
            },
            {
              "pitch": 44,
              "velocity": 52,
              "position": 11.5,
              "duration": 0.004166666666666667
            },
            {
              "pitch": 44,
              "velocity": 52,
              "position": 12.5,
              "duration": 0.004166666666666667
            },
            {
              "pitch": 33,
              "velocity": 68,
              "position": 13,
              "duration": 0.004166666666666667
            },
            {
              "pitch": 44,
              "velocity": 52,
              "position": 13.5,
              "duration": 0.004166666666666667
            },
            {
              "pitch": 44,
              "velocity": 52,
              "position": 14.5,
              "duration": 0.004166666666666667
            },
            {
              "pitch": 33,
              "velocity": 68,
              "position": 15,
              "duration": 0.004166666666666667
            },
            {
              "pitch": 44,
              "velocity": 52,
              "position": 15.5,
              "duration": 0.004166666666666667
            },
            {
              "pitch": 44,
              "velocity": 52,
              "position": 16.5,
              "duration": 0.004166666666666667
            },
            {
              "pitch": 33,
              "velocity": 68,
              "position": 17,
              "duration": 0.004166666666666667
            },
            {
              "pitch": 44,
              "velocity": 52,
              "position": 17.5,
              "duration": 0.004166666666666667
            },
            {
              "pitch": 44,
              "velocity": 52,
              "position": 18.5,
              "duration": 0.004166666666666667
            },
            {
              "pitch": 33,
              "velocity": 68,
              "position": 19,
              "duration": 0.004166666666666667
            },
            {
              "pitch": 44,
              "velocity": 52,
              "position": 19.5,
              "duration": 0.004166666666666667
            },
            {
              "pitch": 44,
              "velocity": 52,
              "position": 20.5,
              "duration": 0.004166666666666667
            },
            {
              "pitch": 33,
              "velocity": 68,
              "position": 21,
              "duration": 0.004166666666666667
            },
            {
              "pitch": 44,
              "velocity": 52,
              "position": 21.5,
              "duration": 0.004166666666666667
            },
            {
              "pitch": 44,
              "velocity": 52,
              "position": 22.5,
              "duration": 0.004166666666666667
            },
            {
              "pitch": 33,
              "velocity": 68,
              "position": 23,
              "duration": 0.004166666666666667
            },
            {
              "pitch": 44,
              "velocity": 52,
              "position": 23.5,
              "duration": 0.004166666666666667
            },
            {
              "pitch": 44,
              "velocity": 52,
              "position": 24.5,
              "duration": 0.004166666666666667
            },
            {
              "pitch": 33,
              "velocity": 68,
              "position": 25,
              "duration": 0.004166666666666667
            },
            {
              "pitch": 44,
              "velocity": 52,
              "position": 25.5,
              "duration": 0.004166666666666667
            },
            {
              "pitch": 44,
              "velocity": 52,
              "position": 26.5,
              "duration": 0.004166666666666667
            },
            {
              "pitch": 33,
              "velocity": 68,
              "position": 27,
              "duration": 0.004166666666666667
            },
            {
              "pitch": 44,
              "velocity": 52,
              "position": 27.5,
              "duration": 0.004166666666666667
            },
            {
              "pitch": 44,
              "velocity": 52,
              "position": 28.5,
              "duration": 0.004166666666666667
            },
            {
              "pitch": 33,
              "velocity": 68,
              "position": 29,
              "duration": 0.004166666666666667
            },
            {
              "pitch": 44,
              "velocity": 52,
              "position": 29.5,
              "duration": 0.004166666666666667
            },
            {
              "pitch": 44,
              "velocity": 52,
              "position": 30.5,
              "duration": 0.004166666666666667
            },
            {
              "pitch": 33,
              "velocity": 68,
              "position": 31,
              "duration": 0.004166666666666667
            },
            {
              "pitch": 44,
              "velocity": 52,
              "position": 31.5,
              "duration": 0.004166666666666667
            }
          ]
        },
        "11": {
          "ctab": {
            "srcChannel": 11,
            "name": "Tele",
            "accType": "CHORD1",
            "editable": false,
            "mutedNotes": [],
            "mutedChords": [],
            "autoStart": false,
            "sourceChordNote": 0,
            "sourceChordType": "Maj7",
            "ctb2Low": null,
            "ctb2Main": {
              "ntr": "GUITAR",
              "ntt": "ARPEGGIO",
              "bassOn": false,
              "chordRootUpperLimit": 7,
              "noteLowLimit": 0,
              "noteHighLimit": 79,
              "rtr": "PITCH_SHIFT"
            },
            "ctb2High": null,
            "ctb2MiddleLowPitch": 0,
            "ctb2MiddleHighPitch": 127
          },
          "notes": [
            {
              "pitch": 53,
              "velocity": 10,
              "position": 0.5,
              "duration": 0.9916666666666667
            },
            {
              "pitch": 57,
              "velocity": 40,
              "position": 0.75,
              "duration": 0.9916666666666667
            },
            {
              "pitch": 53,
              "velocity": 20,
              "position": 1.5,
              "duration": 0.9916666666666667
            },
            {
              "pitch": 57,
              "velocity": 20,
              "position": 1.75,
              "duration": 0.9916666666666667
            },
            {
              "pitch": 55,
              "velocity": 30,
              "position": 1.25,
              "duration": 1.9916666666666667
            },
            {
              "pitch": 53,
              "velocity": 30,
              "position": 2.5,
              "duration": 0.9916666666666667
            },
            {
              "pitch": 57,
              "velocity": 30,
              "position": 2.75,
              "duration": 0.9916666666666667
            },
            {
              "pitch": 126,
              "velocity": 40,
              "position": 3.5,
              "duration": 0.24166666666666667
            },
            {
              "pitch": 53,
              "velocity": 40,
              "position": 3.5,
              "duration": 0.49166666666666664
            },
            {
              "pitch": 57,
              "velocity": 20,
              "position": 3.75,
              "duration": 0.24166666666666667
            },
            {
              "pitch": 59,
              "velocity": 42,
              "position": 0,
              "duration": 3.9916666666666667
            },
            {
              "pitch": 55,
              "velocity": 30,
              "position": 3.25,
              "duration": 0.7416666666666667
            },
            {
              "pitch": 53,
              "velocity": 20,
              "position": 4.5,
              "duration": 0.9916666666666667
            },
            {
              "pitch": 57,
              "velocity": 36,
              "position": 4.75,
              "duration": 0.9916666666666667
            },
            {
              "pitch": 53,
              "velocity": 30,
              "position": 5.5,
              "duration": 0.9916666666666667
            },
            {
              "pitch": 57,
              "velocity": 20,
              "position": 5.75,
              "duration": 0.9916666666666667
            },
            {
              "pitch": 55,
              "velocity": 30,
              "position": 5.25,
              "duration": 1.9916666666666667
            },
            {
              "pitch": 53,
              "velocity": 40,
              "position": 6.5,
              "duration": 0.9916666666666667
            },
            {
              "pitch": 57,
              "velocity": 30,
              "position": 6.75,
              "duration": 0.9916666666666667
            },
            {
              "pitch": 123,
              "velocity": 51,
              "position": 7.5,
              "duration": 0.24166666666666667
            },
            {
              "pitch": 53,
              "velocity": 40,
              "position": 7.5,
              "duration": 0.49166666666666664
            },
            {
              "pitch": 57,
              "velocity": 20,
              "position": 7.75,
              "duration": 0.24166666666666667
            },
            {
              "pitch": 59,
              "velocity": 21,
              "position": 4,
              "duration": 3.9916666666666667
            },
            {
              "pitch": 55,
              "velocity": 30,
              "position": 7.25,
              "duration": 0.7416666666666667
            },
            {
              "pitch": 53,
              "velocity": 10,
              "position": 8.5,
              "duration": 0.9916666666666667
            },
            {
              "pitch": 57,
              "velocity": 37,
              "position": 8.75,
              "duration": 0.9916666666666667
            },
            {
              "pitch": 53,
              "velocity": 20,
              "position": 9.5,
              "duration": 0.9916666666666667
            },
            {
              "pitch": 57,
              "velocity": 20,
              "position": 9.75,
              "duration": 0.9916666666666667
            },
            {
              "pitch": 55,
              "velocity": 30,
              "position": 9.25,
              "duration": 1.9916666666666667
            },
            {
              "pitch": 53,
              "velocity": 30,
              "position": 10.5,
              "duration": 0.9916666666666667
            },
            {
              "pitch": 57,
              "velocity": 40,
              "position": 10.75,
              "duration": 0.9916666666666667
            },
            {
              "pitch": 127,
              "velocity": 40,
              "position": 11.5,
              "duration": 0.24166666666666667
            },
            {
              "pitch": 53,
              "velocity": 40,
              "position": 11.5,
              "duration": 0.49166666666666664
            },
            {
              "pitch": 57,
              "velocity": 20,
              "position": 11.75,
              "duration": 0.24166666666666667
            },
            {
              "pitch": 59,
              "velocity": 41,
              "position": 8,
              "duration": 3.9916666666666667
            },
            {
              "pitch": 55,
              "velocity": 30,
              "position": 11.25,
              "duration": 0.7416666666666667
            },
            {
              "pitch": 53,
              "velocity": 20,
              "position": 12.5,
              "duration": 0.9916666666666667
            },
            {
              "pitch": 57,
              "velocity": 36,
              "position": 12.75,
              "duration": 0.9916666666666667
            },
            {
              "pitch": 53,
              "velocity": 30,
              "position": 13.5,
              "duration": 0.9916666666666667
            },
            {
              "pitch": 57,
              "velocity": 20,
              "position": 13.75,
              "duration": 0.9916666666666667
            },
            {
              "pitch": 55,
              "velocity": 30,
              "position": 13.25,
              "duration": 1.9916666666666667
            },
            {
              "pitch": 53,
              "velocity": 20,
              "position": 14.5,
              "duration": 0.9916666666666667
            },
            {
              "pitch": 57,
              "velocity": 41,
              "position": 14.75,
              "duration": 0.9916666666666667
            },
            {
              "pitch": 124,
              "velocity": 40,
              "position": 15.5,
              "duration": 0.24166666666666667
            },
            {
              "pitch": 53,
              "velocity": 40,
              "position": 15.5,
              "duration": 0.4895833333333333
            },
            {
              "pitch": 57,
              "velocity": 20,
              "position": 15.75,
              "duration": 0.23958333333333334
            },
            {
              "pitch": 59,
              "velocity": 21,
              "position": 12,
              "duration": 3.9895833333333335
            },
            {
              "pitch": 55,
              "velocity": 30,
              "position": 15.25,
              "duration": 0.7395833333333334
            },
            {
              "pitch": 53,
              "velocity": 10,
              "position": 16.5,
              "duration": 0.9916666666666667
            },
            {
              "pitch": 57,
              "velocity": 40,
              "position": 16.75,
              "duration": 0.9916666666666667
            },
            {
              "pitch": 53,
              "velocity": 20,
              "position": 17.5,
              "duration": 0.9916666666666667
            },
            {
              "pitch": 57,
              "velocity": 20,
              "position": 17.75,
              "duration": 0.9916666666666667
            },
            {
              "pitch": 55,
              "velocity": 30,
              "position": 17.25,
              "duration": 1.9916666666666667
            },
            {
              "pitch": 53,
              "velocity": 30,
              "position": 18.5,
              "duration": 0.9916666666666667
            },
            {
              "pitch": 57,
              "velocity": 30,
              "position": 18.75,
              "duration": 0.9916666666666667
            },
            {
              "pitch": 126,
              "velocity": 40,
              "position": 19.5,
              "duration": 0.24166666666666667
            },
            {
              "pitch": 53,
              "velocity": 40,
              "position": 19.5,
              "duration": 0.49166666666666664
            },
            {
              "pitch": 57,
              "velocity": 20,
              "position": 19.75,
              "duration": 0.24166666666666667
            },
            {
              "pitch": 59,
              "velocity": 42,
              "position": 16,
              "duration": 3.9916666666666667
            },
            {
              "pitch": 55,
              "velocity": 30,
              "position": 19.25,
              "duration": 0.7416666666666667
            },
            {
              "pitch": 53,
              "velocity": 20,
              "position": 20.5,
              "duration": 0.9916666666666667
            },
            {
              "pitch": 57,
              "velocity": 36,
              "position": 20.75,
              "duration": 0.9916666666666667
            },
            {
              "pitch": 53,
              "velocity": 30,
              "position": 21.5,
              "duration": 0.9916666666666667
            },
            {
              "pitch": 57,
              "velocity": 20,
              "position": 21.75,
              "duration": 0.9916666666666667
            },
            {
              "pitch": 55,
              "velocity": 30,
              "position": 21.25,
              "duration": 1.9916666666666667
            },
            {
              "pitch": 53,
              "velocity": 40,
              "position": 22.5,
              "duration": 0.9916666666666667
            },
            {
              "pitch": 57,
              "velocity": 30,
              "position": 22.75,
              "duration": 0.9916666666666667
            },
            {
              "pitch": 123,
              "velocity": 51,
              "position": 23.5,
              "duration": 0.24166666666666667
            },
            {
              "pitch": 53,
              "velocity": 40,
              "position": 23.5,
              "duration": 0.49166666666666664
            },
            {
              "pitch": 57,
              "velocity": 20,
              "position": 23.75,
              "duration": 0.24166666666666667
            },
            {
              "pitch": 59,
              "velocity": 21,
              "position": 20,
              "duration": 3.9916666666666667
            },
            {
              "pitch": 55,
              "velocity": 30,
              "position": 23.25,
              "duration": 0.7416666666666667
            },
            {
              "pitch": 53,
              "velocity": 10,
              "position": 24.5,
              "duration": 0.9916666666666667
            },
            {
              "pitch": 57,
              "velocity": 37,
              "position": 24.75,
              "duration": 0.9916666666666667
            },
            {
              "pitch": 53,
              "velocity": 20,
              "position": 25.5,
              "duration": 0.9916666666666667
            },
            {
              "pitch": 57,
              "velocity": 20,
              "position": 25.75,
              "duration": 0.9916666666666667
            },
            {
              "pitch": 55,
              "velocity": 30,
              "position": 25.25,
              "duration": 1.9916666666666667
            },
            {
              "pitch": 53,
              "velocity": 30,
              "position": 26.5,
              "duration": 0.9916666666666667
            },
            {
              "pitch": 57,
              "velocity": 40,
              "position": 26.75,
              "duration": 0.9916666666666667
            },
            {
              "pitch": 127,
              "velocity": 40,
              "position": 27.5,
              "duration": 0.24166666666666667
            },
            {
              "pitch": 53,
              "velocity": 40,
              "position": 27.5,
              "duration": 0.49166666666666664
            },
            {
              "pitch": 57,
              "velocity": 20,
              "position": 27.75,
              "duration": 0.24166666666666667
            },
            {
              "pitch": 59,
              "velocity": 41,
              "position": 24,
              "duration": 3.9916666666666667
            },
            {
              "pitch": 55,
              "velocity": 30,
              "position": 27.25,
              "duration": 0.7416666666666667
            },
            {
              "pitch": 53,
              "velocity": 20,
              "position": 28.5,
              "duration": 0.9916666666666667
            },
            {
              "pitch": 57,
              "velocity": 36,
              "position": 28.75,
              "duration": 0.9916666666666667
            },
            {
              "pitch": 53,
              "velocity": 30,
              "position": 29.5,
              "duration": 0.9916666666666667
            },
            {
              "pitch": 57,
              "velocity": 20,
              "position": 29.75,
              "duration": 0.9916666666666667
            },
            {
              "pitch": 55,
              "velocity": 30,
              "position": 29.25,
              "duration": 1.9916666666666667
            },
            {
              "pitch": 53,
              "velocity": 20,
              "position": 30.5,
              "duration": 0.9916666666666667
            },
            {
              "pitch": 57,
              "velocity": 41,
              "position": 30.75,
              "duration": 0.9916666666666667
            },
            {
              "pitch": 124,
              "velocity": 40,
              "position": 31.5,
              "duration": 0.24166666666666667
            },
            {
              "pitch": 53,
              "velocity": 40,
              "position": 31.5,
              "duration": 0.4895833333333333
            },
            {
              "pitch": 57,
              "velocity": 20,
              "position": 31.75,
              "duration": 0.23958333333333334
            },
            {
              "pitch": 59,
              "velocity": 21,
              "position": 28,
              "duration": 3.9895833333333335
            },
            {
              "pitch": 55,
              "velocity": 30,
              "position": 31.25,
              "duration": 0.7395833333333334
            }
          ]
        }
      }
    },
    "Intro_C": {
      "type": "Intro_C",
      "sizeInBeats": 16,
      "channels": {
        "2": {
          "ctab": {
            "srcChannel": 2,
            "name": "GtBass",
            "accType": "CHORD1",
            "editable": false,
            "mutedNotes": [],
            "mutedChords": [],
            "autoStart": false,
            "sourceChordNote": 0,
            "sourceChordType": "Maj7",
            "ctb2Low": null,
            "ctb2Main": {
              "ntr": "ROOT_TRANSPOSITION",
              "ntt": "MELODY",
              "bassOn": true,
              "chordRootUpperLimit": 8,
              "noteLowLimit": 40,
              "noteHighLimit": 127,
              "rtr": "PITCH_SHIFT_TO_ROOT"
            },
            "ctb2High": null,
            "ctb2MiddleLowPitch": 0,
            "ctb2MiddleHighPitch": 127
          },
          "notes": [
            {
              "pitch": 36,
              "velocity": 41,
              "position": 0,
              "duration": 1.7416666666666667
            },
            {
              "pitch": 36,
              "velocity": 30,
              "position": 2,
              "duration": 1.2416666666666667
            },
            {
              "pitch": 43,
              "velocity": 21,
              "position": 3.5,
              "duration": 0.24166666666666667
            },
            {
              "pitch": 36,
              "velocity": 41,
              "position": 4,
              "duration": 1.7416666666666667
            },
            {
              "pitch": 36,
              "velocity": 30,
              "position": 6,
              "duration": 1.2416666666666667
            },
            {
              "pitch": 43,
              "velocity": 21,
              "position": 7.5,
              "duration": 0.24166666666666667
            },
            {
              "pitch": 36,
              "velocity": 40,
              "position": 8,
              "duration": 1.7416666666666667
            },
            {
              "pitch": 36,
              "velocity": 20,
              "position": 10,
              "duration": 1.2416666666666667
            },
            {
              "pitch": 43,
              "velocity": 21,
              "position": 11.5,
              "duration": 0.24166666666666667
            },
            {
              "pitch": 36,
              "velocity": 41,
              "position": 12,
              "duration": 1.7416666666666667
            },
            {
              "pitch": 36,
              "velocity": 30,
              "position": 14,
              "duration": 1.2416666666666667
            },
            {
              "pitch": 43,
              "velocity": 21,
              "position": 15.5,
              "duration": 0.23958333333333334
            }
          ]
        },
        "9": {
          "ctab": {
            "srcChannel": 9,
            "name": "Drs",
            "accType": "RHYTHM",
            "editable": true,
            "mutedNotes": [],
            "mutedChords": [],
            "autoStart": true,
            "sourceChordNote": 0,
            "sourceChordType": "Maj7",
            "ctb2Low": null,
            "ctb2Main": {
              "ntr": "ROOT_FIXED",
              "ntt": "BYPASS",
              "bassOn": false,
              "chordRootUpperLimit": 6,
              "noteLowLimit": 0,
              "noteHighLimit": 127,
              "rtr": "PITCH_SHIFT"
            },
            "ctb2High": null,
            "ctb2MiddleLowPitch": 0,
            "ctb2MiddleHighPitch": 127
          },
          "notes": [
            {
              "pitch": 33,
              "velocity": 68,
              "position": 0,
              "duration": 0.004166666666666667
            },
            {
              "pitch": 51,
              "velocity": 80,
              "position": 0,
              "duration": 0.004166666666666667
            },
            {
              "pitch": 44,
              "velocity": 52,
              "position": 0.5,
              "duration": 0.004166666666666667
            },
            {
              "pitch": 53,
              "velocity": 64,
              "position": 0.5,
              "duration": 0.004166666666666667
            },
            {
              "pitch": 53,
              "velocity": 45,
              "position": 0.75,
              "duration": 0.004166666666666667
            },
            {
              "pitch": 51,
              "velocity": 60,
              "position": 1,
              "duration": 0.004166666666666667
            },
            {
              "pitch": 44,
              "velocity": 52,
              "position": 1.5,
              "duration": 0.004166666666666667
            },
            {
              "pitch": 53,
              "velocity": 64,
              "position": 1.5,
              "duration": 0.004166666666666667
            },
            {
              "pitch": 53,
              "velocity": 45,
              "position": 1.75,
              "duration": 0.004166666666666667
            },
            {
              "pitch": 33,
              "velocity": 68,
              "position": 2,
              "duration": 0.004166666666666667
            },
            {
              "pitch": 51,
              "velocity": 60,
              "position": 2,
              "duration": 0.004166666666666667
            },
            {
              "pitch": 44,
              "velocity": 52,
              "position": 2.5,
              "duration": 0.004166666666666667
            },
            {
              "pitch": 53,
              "velocity": 64,
              "position": 2.5,
              "duration": 0.004166666666666667
            },
            {
              "pitch": 53,
              "velocity": 45,
              "position": 2.75,
              "duration": 0.004166666666666667
            },
            {
              "pitch": 51,
              "velocity": 60,
              "position": 3,
              "duration": 0.004166666666666667
            },
            {
              "pitch": 44,
              "velocity": 52,
              "position": 3.5,
              "duration": 0.004166666666666667
            },
            {
              "pitch": 53,
              "velocity": 64,
              "position": 3.5,
              "duration": 0.004166666666666667
            },
            {
              "pitch": 53,
              "velocity": 45,
              "position": 3.75,
              "duration": 0.004166666666666667
            },
            {
              "pitch": 33,
              "velocity": 68,
              "position": 4,
              "duration": 0.004166666666666667
            },
            {
              "pitch": 51,
              "velocity": 80,
              "position": 4,
              "duration": 0.004166666666666667
            },
            {
              "pitch": 44,
              "velocity": 52,
              "position": 4.5,
              "duration": 0.004166666666666667
            },
            {
              "pitch": 53,
              "velocity": 64,
              "position": 4.5,
              "duration": 0.004166666666666667
            },
            {
              "pitch": 53,
              "velocity": 45,
              "position": 4.75,
              "duration": 0.004166666666666667
            },
            {
              "pitch": 51,
              "velocity": 60,
              "position": 5,
              "duration": 0.004166666666666667
            },
            {
              "pitch": 44,
              "velocity": 52,
              "position": 5.5,
              "duration": 0.004166666666666667
            },
            {
              "pitch": 53,
              "velocity": 64,
              "position": 5.5,
              "duration": 0.004166666666666667
            },
            {
              "pitch": 53,
              "velocity": 45,
              "position": 5.75,
              "duration": 0.004166666666666667
            },
            {
              "pitch": 33,
              "velocity": 68,
              "position": 6,
              "duration": 0.004166666666666667
            },
            {
              "pitch": 51,
              "velocity": 60,
              "position": 6,
              "duration": 0.004166666666666667
            },
            {
              "pitch": 44,
              "velocity": 52,
              "position": 6.5,
              "duration": 0.004166666666666667
            },
            {
              "pitch": 53,
              "velocity": 64,
              "position": 6.5,
              "duration": 0.004166666666666667
            },
            {
              "pitch": 53,
              "velocity": 45,
              "position": 6.75,
              "duration": 0.004166666666666667
            },
            {
              "pitch": 51,
              "velocity": 60,
              "position": 7,
              "duration": 0.004166666666666667
            },
            {
              "pitch": 44,
              "velocity": 52,
              "position": 7.5,
              "duration": 0.004166666666666667
            },
            {
              "pitch": 53,
              "velocity": 64,
              "position": 7.5,
              "duration": 0.004166666666666667
            },
            {
              "pitch": 53,
              "velocity": 45,
              "position": 7.75,
              "duration": 0.004166666666666667
            },
            {
              "pitch": 33,
              "velocity": 68,
              "position": 8,
              "duration": 0.004166666666666667
            },
            {
              "pitch": 51,
              "velocity": 80,
              "position": 8,
              "duration": 0.004166666666666667
            },
            {
              "pitch": 44,
              "velocity": 52,
              "position": 8.5,
              "duration": 0.004166666666666667
            },
            {
              "pitch": 53,
              "velocity": 64,
              "position": 8.5,
              "duration": 0.004166666666666667
            },
            {
              "pitch": 53,
              "velocity": 45,
              "position": 8.75,
              "duration": 0.004166666666666667
            },
            {
              "pitch": 51,
              "velocity": 60,
              "position": 9,
              "duration": 0.004166666666666667
            },
            {
              "pitch": 44,
              "velocity": 52,
              "position": 9.5,
              "duration": 0.004166666666666667
            },
            {
              "pitch": 53,
              "velocity": 64,
              "position": 9.5,
              "duration": 0.004166666666666667
            },
            {
              "pitch": 53,
              "velocity": 45,
              "position": 9.75,
              "duration": 0.004166666666666667
            },
            {
              "pitch": 33,
              "velocity": 68,
              "position": 10,
              "duration": 0.004166666666666667
            },
            {
              "pitch": 51,
              "velocity": 60,
              "position": 10,
              "duration": 0.004166666666666667
            },
            {
              "pitch": 44,
              "velocity": 52,
              "position": 10.5,
              "duration": 0.004166666666666667
            },
            {
              "pitch": 53,
              "velocity": 64,
              "position": 10.5,
              "duration": 0.004166666666666667
            },
            {
              "pitch": 53,
              "velocity": 45,
              "position": 10.75,
              "duration": 0.004166666666666667
            },
            {
              "pitch": 51,
              "velocity": 60,
              "position": 11,
              "duration": 0.004166666666666667
            },
            {
              "pitch": 44,
              "velocity": 52,
              "position": 11.5,
              "duration": 0.004166666666666667
            },
            {
              "pitch": 53,
              "velocity": 64,
              "position": 11.5,
              "duration": 0.004166666666666667
            },
            {
              "pitch": 53,
              "velocity": 45,
              "position": 11.75,
              "duration": 0.004166666666666667
            },
            {
              "pitch": 33,
              "velocity": 68,
              "position": 12,
              "duration": 0.004166666666666667
            },
            {
              "pitch": 51,
              "velocity": 80,
              "position": 12,
              "duration": 0.004166666666666667
            },
            {
              "pitch": 44,
              "velocity": 52,
              "position": 12.5,
              "duration": 0.004166666666666667
            },
            {
              "pitch": 53,
              "velocity": 64,
              "position": 12.5,
              "duration": 0.004166666666666667
            },
            {
              "pitch": 53,
              "velocity": 45,
              "position": 12.75,
              "duration": 0.004166666666666667
            },
            {
              "pitch": 51,
              "velocity": 60,
              "position": 13,
              "duration": 0.004166666666666667
            },
            {
              "pitch": 44,
              "velocity": 52,
              "position": 13.5,
              "duration": 0.004166666666666667
            },
            {
              "pitch": 53,
              "velocity": 64,
              "position": 13.5,
              "duration": 0.004166666666666667
            },
            {
              "pitch": 53,
              "velocity": 45,
              "position": 13.75,
              "duration": 0.004166666666666667
            },
            {
              "pitch": 33,
              "velocity": 68,
              "position": 14,
              "duration": 0.004166666666666667
            },
            {
              "pitch": 51,
              "velocity": 60,
              "position": 14,
              "duration": 0.004166666666666667
            },
            {
              "pitch": 44,
              "velocity": 52,
              "position": 14.5,
              "duration": 0.004166666666666667
            },
            {
              "pitch": 53,
              "velocity": 64,
              "position": 14.5,
              "duration": 0.004166666666666667
            },
            {
              "pitch": 53,
              "velocity": 45,
              "position": 14.75,
              "duration": 0.004166666666666667
            },
            {
              "pitch": 51,
              "velocity": 60,
              "position": 15,
              "duration": 0.004166666666666667
            },
            {
              "pitch": 44,
              "velocity": 52,
              "position": 15.5,
              "duration": 0.004166666666666667
            },
            {
              "pitch": 53,
              "velocity": 64,
              "position": 15.5,
              "duration": 0.004166666666666667
            },
            {
              "pitch": 53,
              "velocity": 45,
              "position": 15.75,
              "duration": 0.004166666666666667
            }
          ]
        },
        "10": {
          "ctab": {
            "srcChannel": 10,
            "name": "Bs",
            "accType": "BASS",
            "editable": false,
            "mutedNotes": [],
            "mutedChords": [],
            "autoStart": false,
            "sourceChordNote": 0,
            "sourceChordType": "Maj7",
            "ctb2Low": null,
            "ctb2Main": {
              "ntr": "ROOT_TRANSPOSITION",
              "ntt": "MELODY",
              "bassOn": true,
              "chordRootUpperLimit": 8,
              "noteLowLimit": 28,
              "noteHighLimit": 127,
              "rtr": "PITCH_SHIFT_TO_ROOT"
            },
            "ctb2High": null,
            "ctb2MiddleLowPitch": 0,
            "ctb2MiddleHighPitch": 127
          },
          "notes": [
            {
              "pitch": 24,
              "velocity": 50,
              "position": 0,
              "duration": 3.7416666666666667
            },
            {
              "pitch": 24,
              "velocity": 50,
              "position": 4,
              "duration": 3.4916666666666667
            },
            {
              "pitch": 31,
              "velocity": 50,
              "position": 7.5,
              "duration": 0.49166666666666664
            },
            {
              "pitch": 24,
              "velocity": 50,
              "position": 8,
              "duration": 3.7416666666666667
            },
            {
              "pitch": 24,
              "velocity": 50,
              "position": 12,
              "duration": 3.4916666666666667
            },
            {
              "pitch": 31,
              "velocity": 50,
              "position": 15.5,
              "duration": 0.49166666666666664
            }
          ]
        },
        "11": {
          "ctab": {
            "srcChannel": 11,
            "name": "Tele",
            "accType": "CHORD1",
            "editable": false,
            "mutedNotes": [],
            "mutedChords": [],
            "autoStart": false,
            "sourceChordNote": 0,
            "sourceChordType": "Maj7",
            "ctb2Low": null,
            "ctb2Main": {
              "ntr": "GUITAR",
              "ntt": "ARPEGGIO",
              "bassOn": false,
              "chordRootUpperLimit": 7,
              "noteLowLimit": 0,
              "noteHighLimit": 79,
              "rtr": "PITCH_SHIFT"
            },
            "ctb2High": null,
            "ctb2MiddleLowPitch": 0,
            "ctb2MiddleHighPitch": 127
          },
          "notes": [
            {
              "pitch": 53,
              "velocity": 20,
              "position": 0.5,
              "duration": 0.9916666666666667
            },
            {
              "pitch": 57,
              "velocity": 36,
              "position": 0.75,
              "duration": 0.9916666666666667
            },
            {
              "pitch": 53,
              "velocity": 30,
              "position": 1.5,
              "duration": 0.9916666666666667
            },
            {
              "pitch": 57,
              "velocity": 20,
              "position": 1.75,
              "duration": 0.9916666666666667
            },
            {
              "pitch": 55,
              "velocity": 30,
              "position": 1.25,
              "duration": 1.9916666666666667
            },
            {
              "pitch": 53,
              "velocity": 40,
              "position": 2.5,
              "duration": 0.9916666666666667
            },
            {
              "pitch": 57,
              "velocity": 30,
              "position": 2.75,
              "duration": 0.9916666666666667
            },
            {
              "pitch": 126,
              "velocity": 40,
              "position": 3.5,
              "duration": 0.24166666666666667
            },
            {
              "pitch": 53,
              "velocity": 40,
              "position": 3.5,
              "duration": 0.49166666666666664
            },
            {
              "pitch": 57,
              "velocity": 20,
              "position": 3.75,
              "duration": 0.24166666666666667
            },
            {
              "pitch": 59,
              "velocity": 21,
              "position": 0,
              "duration": 3.9916666666666667
            },
            {
              "pitch": 55,
              "velocity": 30,
              "position": 3.25,
              "duration": 0.7416666666666667
            },
            {
              "pitch": 53,
              "velocity": 20,
              "position": 4.5,
              "duration": 0.9916666666666667
            },
            {
              "pitch": 57,
              "velocity": 36,
              "position": 4.75,
              "duration": 0.9916666666666667
            },
            {
              "pitch": 53,
              "velocity": 30,
              "position": 5.5,
              "duration": 0.9916666666666667
            },
            {
              "pitch": 57,
              "velocity": 20,
              "position": 5.75,
              "duration": 0.9916666666666667
            },
            {
              "pitch": 55,
              "velocity": 30,
              "position": 5.25,
              "duration": 1.9916666666666667
            },
            {
              "pitch": 53,
              "velocity": 40,
              "position": 6.5,
              "duration": 0.9916666666666667
            },
            {
              "pitch": 57,
              "velocity": 30,
              "position": 6.75,
              "duration": 0.9916666666666667
            },
            {
              "pitch": 123,
              "velocity": 51,
              "position": 7.5,
              "duration": 0.24166666666666667
            },
            {
              "pitch": 53,
              "velocity": 40,
              "position": 7.5,
              "duration": 0.49166666666666664
            },
            {
              "pitch": 57,
              "velocity": 20,
              "position": 7.75,
              "duration": 0.24166666666666667
            },
            {
              "pitch": 59,
              "velocity": 21,
              "position": 4,
              "duration": 3.9916666666666667
            },
            {
              "pitch": 55,
              "velocity": 30,
              "position": 7.25,
              "duration": 0.7416666666666667
            },
            {
              "pitch": 53,
              "velocity": 10,
              "position": 8.5,
              "duration": 0.9916666666666667
            },
            {
              "pitch": 57,
              "velocity": 37,
              "position": 8.75,
              "duration": 0.9916666666666667
            },
            {
              "pitch": 53,
              "velocity": 20,
              "position": 9.5,
              "duration": 0.9916666666666667
            },
            {
              "pitch": 57,
              "velocity": 20,
              "position": 9.75,
              "duration": 0.9916666666666667
            },
            {
              "pitch": 55,
              "velocity": 30,
              "position": 9.25,
              "duration": 1.9916666666666667
            },
            {
              "pitch": 53,
              "velocity": 30,
              "position": 10.5,
              "duration": 0.9916666666666667
            },
            {
              "pitch": 57,
              "velocity": 40,
              "position": 10.75,
              "duration": 0.9916666666666667
            },
            {
              "pitch": 127,
              "velocity": 40,
              "position": 11.5,
              "duration": 0.24166666666666667
            },
            {
              "pitch": 53,
              "velocity": 40,
              "position": 11.5,
              "duration": 0.49166666666666664
            },
            {
              "pitch": 57,
              "velocity": 20,
              "position": 11.75,
              "duration": 0.24166666666666667
            },
            {
              "pitch": 59,
              "velocity": 41,
              "position": 8,
              "duration": 3.9916666666666667
            },
            {
              "pitch": 55,
              "velocity": 30,
              "position": 11.25,
              "duration": 0.7416666666666667
            },
            {
              "pitch": 53,
              "velocity": 20,
              "position": 12.5,
              "duration": 0.9916666666666667
            },
            {
              "pitch": 57,
              "velocity": 36,
              "position": 12.75,
              "duration": 0.9916666666666667
            },
            {
              "pitch": 53,
              "velocity": 30,
              "position": 13.5,
              "duration": 0.9916666666666667
            },
            {
              "pitch": 57,
              "velocity": 20,
              "position": 13.75,
              "duration": 0.9916666666666667
            },
            {
              "pitch": 55,
              "velocity": 30,
              "position": 13.25,
              "duration": 1.9916666666666667
            },
            {
              "pitch": 53,
              "velocity": 20,
              "position": 14.5,
              "duration": 0.9916666666666667
            },
            {
              "pitch": 57,
              "velocity": 41,
              "position": 14.75,
              "duration": 0.9916666666666667
            },
            {
              "pitch": 124,
              "velocity": 40,
              "position": 15.5,
              "duration": 0.24166666666666667
            },
            {
              "pitch": 53,
              "velocity": 40,
              "position": 15.5,
              "duration": 0.4895833333333333
            },
            {
              "pitch": 57,
              "velocity": 20,
              "position": 15.75,
              "duration": 0.23958333333333334
            },
            {
              "pitch": 59,
              "velocity": 21,
              "position": 12,
              "duration": 3.9895833333333335
            },
            {
              "pitch": 55,
              "velocity": 30,
              "position": 15.25,
              "duration": 0.7395833333333334
            }
          ]
        },
        "13": {
          "ctab": {
            "srcChannel": 13,
            "name": "Pad",
            "accType": "PAD",
            "editable": false,
            "mutedNotes": [],
            "mutedChords": [],
            "autoStart": false,
            "sourceChordNote": 0,
            "sourceChordType": "Maj7",
            "ctb2Low": {
              "ntr": "ROOT_TRANSPOSITION",
              "ntt": "MELODY",
              "bassOn": true,
              "chordRootUpperLimit": 8,
              "noteLowLimit": 40,
              "noteHighLimit": 51,
              "rtr": "PITCH_SHIFT_TO_ROOT"
            },
            "ctb2Main": {
              "ntr": "ROOT_FIXED",
              "ntt": "CHORD",
              "bassOn": false,
              "chordRootUpperLimit": 7,
              "noteLowLimit": 0,
              "noteHighLimit": 127,
              "rtr": "PITCH_SHIFT"
            },
            "ctb2High": null,
            "ctb2MiddleLowPitch": 38,
            "ctb2MiddleHighPitch": 127
          },
          "notes": [
            {
              "pitch": 55,
              "velocity": 40,
              "position": 0,
              "duration": 15.991666666666667
            },
            {
              "pitch": 64,
              "velocity": 40,
              "position": 0,
              "duration": 15.991666666666667
            },
            {
              "pitch": 59,
              "velocity": 40,
              "position": 0,
              "duration": 15.991666666666667
            }
          ]
        }
      }
    },
    "Ending_A": {
      "type": "Ending_A",
      "sizeInBeats": 8,
      "channels": {
        "3": {
          "ctab": {
            "srcChannel": 3,
            "name": "GtBass",
            "accType": "CHORD2",
            "editable": false,
            "mutedNotes": [],
            "mutedChords": [],
            "autoStart": false,
            "sourceChordNote": 0,
            "sourceChordType": "Maj7",
            "ctb2Low": null,
            "ctb2Main": {
              "ntr": "ROOT_TRANSPOSITION",
              "ntt": "MELODY",
              "bassOn": true,
              "chordRootUpperLimit": 8,
              "noteLowLimit": 40,
              "noteHighLimit": 127,
              "rtr": "PITCH_SHIFT_TO_ROOT"
            },
            "ctb2High": null,
            "ctb2MiddleLowPitch": 0,
            "ctb2MiddleHighPitch": 127
          },
          "notes": [
            {
              "pitch": 36,
              "velocity": 31,
              "position": 0,
              "duration": 6.991666666666666
            }
          ]
        },
        "5": {
          "ctab": {
            "srcChannel": 5,
            "name": "GtBass",
            "accType": "PHRASE1",
            "editable": false,
            "mutedNotes": [],
            "mutedChords": [],
            "autoStart": false,
            "sourceChordNote": 0,
            "sourceChordType": "Maj7",
            "ctb2Low": null,
            "ctb2Main": {
              "ntr": "ROOT_TRANSPOSITION",
              "ntt": "MELODY",
              "bassOn": true,
              "chordRootUpperLimit": 8,
              "noteLowLimit": 40,
              "noteHighLimit": 127,
              "rtr": "PITCH_SHIFT_TO_ROOT"
            },
            "ctb2High": null,
            "ctb2MiddleLowPitch": 0,
            "ctb2MiddleHighPitch": 127
          },
          "notes": [
            {
              "pitch": 36,
              "velocity": 64,
              "position": 0,
              "duration": 6.991666666666666
            }
          ]
        },
        "9": {
          "ctab": {
            "srcChannel": 9,
            "name": "Drs",
            "accType": "RHYTHM",
            "editable": true,
            "mutedNotes": [],
            "mutedChords": [],
            "autoStart": true,
            "sourceChordNote": 0,
            "sourceChordType": "Maj7",
            "ctb2Low": null,
            "ctb2Main": {
              "ntr": "ROOT_FIXED",
              "ntt": "BYPASS",
              "bassOn": false,
              "chordRootUpperLimit": 6,
              "noteLowLimit": 0,
              "noteHighLimit": 127,
              "rtr": "PITCH_SHIFT"
            },
            "ctb2High": null,
            "ctb2MiddleLowPitch": 0,
            "ctb2MiddleHighPitch": 127
          },
          "notes": [
            {
              "pitch": 33,
              "velocity": 68,
              "position": 0,
              "duration": 0.004166666666666667
            }
          ]
        },
        "10": {
          "ctab": {
            "srcChannel": 10,
            "name": "Bs",
            "accType": "BASS",
            "editable": false,
            "mutedNotes": [],
            "mutedChords": [],
            "autoStart": false,
            "sourceChordNote": 0,
            "sourceChordType": "Maj7",
            "ctb2Low": null,
            "ctb2Main": {
              "ntr": "ROOT_TRANSPOSITION",
              "ntt": "MELODY",
              "bassOn": true,
              "chordRootUpperLimit": 8,
              "noteLowLimit": 28,
              "noteHighLimit": 127,
              "rtr": "PITCH_SHIFT_TO_ROOT"
            },
            "ctb2High": null,
            "ctb2MiddleLowPitch": 0,
            "ctb2MiddleHighPitch": 127
          },
          "notes": [
            {
              "pitch": 24,
              "velocity": 50,
              "position": 0,
              "duration": 7.0375
            }
          ]
        },
        "11": {
          "ctab": {
            "srcChannel": 11,
            "name": "Tele",
            "accType": "CHORD1",
            "editable": false,
            "mutedNotes": [],
            "mutedChords": [],
            "autoStart": false,
            "sourceChordNote": 0,
            "sourceChordType": "Maj7",
            "ctb2Low": null,
            "ctb2Main": {
              "ntr": "GUITAR",
              "ntt": "STROKE",
              "bassOn": false,
              "chordRootUpperLimit": 7,
              "noteLowLimit": 0,
              "noteHighLimit": 127,
              "rtr": "PITCH_SHIFT"
            },
            "ctb2High": null,
            "ctb2MiddleLowPitch": 0,
            "ctb2MiddleHighPitch": 127
          },
          "notes": [
            {
              "pitch": 62,
              "velocity": 7,
              "position": 0,
              "duration": 6.989583333333333
            },
            {
              "pitch": 64,
              "velocity": 16,
              "position": 0.004166666666666667,
              "duration": 6.989583333333333
            },
            {
              "pitch": 65,
              "velocity": 33,
              "position": 0.010416666666666666,
              "duration": 6.989583333333333
            },
            {
              "pitch": 67,
              "velocity": 25,
              "position": 0.014583333333333334,
              "duration": 6.989583333333333
            },
            {
              "pitch": 69,
              "velocity": 31,
              "position": 0.020833333333333332,
              "duration": 6.989583333333333
            },
            {
              "pitch": 71,
              "velocity": 32,
              "position": 0.025,
              "duration": 6.989583333333333
            }
          ]
        },
        "12": {
          "ctab": {
            "srcChannel": 12,
            "name": "Steel",
            "accType": "CHORD2",
            "editable": false,
            "mutedNotes": [],
            "mutedChords": [],
            "autoStart": false,
            "sourceChordNote": 0,
            "sourceChordType": "Maj7",
            "ctb2Low": null,
            "ctb2Main": {
              "ntr": "GUITAR",
              "ntt": "ARPEGGIO",
              "bassOn": false,
              "chordRootUpperLimit": 7,
              "noteLowLimit": 0,
              "noteHighLimit": 127,
              "rtr": "PITCH_SHIFT"
            },
            "ctb2High": null,
            "ctb2MiddleLowPitch": 0,
            "ctb2MiddleHighPitch": 127
          },
          "notes": [
            {
              "pitch": 53,
              "velocity": 29,
              "position": 0,
              "duration": 6.991666666666666
            },
            {
              "pitch": 59,
              "velocity": 40,
              "position": 0,
              "duration": 6.991666666666666
            },
            {
              "pitch": 57,
              "velocity": 9,
              "position": 0,
              "duration": 6.991666666666666
            },
            {
              "pitch": 55,
              "velocity": 39,
              "position": 0,
              "duration": 6.991666666666666
            }
          ]
        },
        "13": {
          "ctab": {
            "srcChannel": 13,
            "name": "Strings",
            "accType": "PAD",
            "editable": false,
            "mutedNotes": [],
            "mutedChords": [],
            "autoStart": false,
            "sourceChordNote": 0,
            "sourceChordType": "Maj7",
            "ctb2Low": null,
            "ctb2Main": {
              "ntr": "ROOT_FIXED",
              "ntt": "CHORD",
              "bassOn": false,
              "chordRootUpperLimit": 7,
              "noteLowLimit": 0,
              "noteHighLimit": 127,
              "rtr": "PITCH_SHIFT"
            },
            "ctb2High": null,
            "ctb2MiddleLowPitch": 0,
            "ctb2MiddleHighPitch": 127
          },
          "notes": [
            {
              "pitch": 64,
              "velocity": 52,
              "position": 0,
              "duration": 8
            },
            {
              "pitch": 71,
              "velocity": 52,
              "position": 0,
              "duration": 8
            },
            {
              "pitch": 79,
              "velocity": 48,
              "position": 0,
              "duration": 8
            }
          ]
        },
        "14": {
          "ctab": {
            "srcChannel": 14,
            "name": "HiStr",
            "accType": "PHRASE1",
            "editable": false,
            "mutedNotes": [],
            "mutedChords": [],
            "autoStart": false,
            "sourceChordNote": 0,
            "sourceChordType": "Maj7",
            "ctb2Low": null,
            "ctb2Main": {
              "ntr": "GUITAR",
              "ntt": "ARPEGGIO",
              "bassOn": false,
              "chordRootUpperLimit": 7,
              "noteLowLimit": 0,
              "noteHighLimit": 127,
              "rtr": "PITCH_SHIFT"
            },
            "ctb2High": null,
            "ctb2MiddleLowPitch": 0,
            "ctb2MiddleHighPitch": 127
          },
          "notes": [
            {
              "pitch": 65,
              "velocity": 33,
              "position": 0,
              "duration": 6.991666666666666
            },
            {
              "pitch": 71,
              "velocity": 36,
              "position": 0,
              "duration": 6.991666666666666
            },
            {
              "pitch": 69,
              "velocity": 61,
              "position": 0,
              "duration": 6.991666666666666
            },
            {
              "pitch": 67,
              "velocity": 33,
              "position": 0,
              "duration": 6.991666666666666
            }
          ]
        }
      }
    },
    "Ending_B": {
      "type": "Ending_B",
      "sizeInBeats": 8,
      "channels": {
        "3": {
          "ctab": {
            "srcChannel": 3,
            "name": "GtBass",
            "accType": "CHORD2",
            "editable": false,
            "mutedNotes": [],
            "mutedChords": [],
            "autoStart": false,
            "sourceChordNote": 0,
            "sourceChordType": "Maj7",
            "ctb2Low": null,
            "ctb2Main": {
              "ntr": "ROOT_TRANSPOSITION",
              "ntt": "MELODY",
              "bassOn": true,
              "chordRootUpperLimit": 8,
              "noteLowLimit": 40,
              "noteHighLimit": 127,
              "rtr": "PITCH_SHIFT_TO_ROOT"
            },
            "ctb2High": null,
            "ctb2MiddleLowPitch": 0,
            "ctb2MiddleHighPitch": 127
          },
          "notes": [
            {
              "pitch": 36,
              "velocity": 31,
              "position": 0,
              "duration": 6.991666666666666
            }
          ]
        },
        "4": {
          "ctab": {
            "srcChannel": 4,
            "name": "StrgRt",
            "accType": "PHRASE2",
            "editable": false,
            "mutedNotes": [],
            "mutedChords": [
              "1+2+5",
              "sus4",
              "1+5",
              "1+8",
              "Maj7aug",
              "dim",
              "minMaj7(9)",
              "minMaj7",
              "min6",
              "min",
              "aug",
              "Maj7(9)",
              "Maj7#11",
              "Maj7",
              "Maj6",
              "Maj"
            ],
            "autoStart": false,
            "sourceChordNote": 0,
            "sourceChordType": "Maj7",
            "ctb2Low": null,
            "ctb2Main": {
              "ntr": "ROOT_TRANSPOSITION",
              "ntt": "MELODY",
              "bassOn": false,
              "chordRootUpperLimit": 6,
              "noteLowLimit": 0,
              "noteHighLimit": 127,
              "rtr": "PITCH_SHIFT"
            },
            "ctb2High": null,
            "ctb2MiddleLowPitch": 0,
            "ctb2MiddleHighPitch": 127
          },
          "notes": [
            {
              "pitch": 60,
              "velocity": 31,
              "position": 0,
              "duration": 6.995833333333334
            }
          ]
        },
        "5": {
          "ctab": {
            "srcChannel": 5,
            "name": "GtBass",
            "accType": "PHRASE1",
            "editable": false,
            "mutedNotes": [],
            "mutedChords": [],
            "autoStart": false,
            "sourceChordNote": 0,
            "sourceChordType": "Maj7",
            "ctb2Low": null,
            "ctb2Main": {
              "ntr": "ROOT_TRANSPOSITION",
              "ntt": "MELODY",
              "bassOn": true,
              "chordRootUpperLimit": 8,
              "noteLowLimit": 40,
              "noteHighLimit": 127,
              "rtr": "PITCH_SHIFT_TO_ROOT"
            },
            "ctb2High": null,
            "ctb2MiddleLowPitch": 0,
            "ctb2MiddleHighPitch": 127
          },
          "notes": [
            {
              "pitch": 36,
              "velocity": 64,
              "position": 0,
              "duration": 6.991666666666666
            }
          ]
        },
        "9": {
          "ctab": {
            "srcChannel": 9,
            "name": "Drs",
            "accType": "RHYTHM",
            "editable": true,
            "mutedNotes": [],
            "mutedChords": [],
            "autoStart": true,
            "sourceChordNote": 0,
            "sourceChordType": "Maj7",
            "ctb2Low": null,
            "ctb2Main": {
              "ntr": "ROOT_FIXED",
              "ntt": "BYPASS",
              "bassOn": false,
              "chordRootUpperLimit": 6,
              "noteLowLimit": 0,
              "noteHighLimit": 127,
              "rtr": "PITCH_SHIFT"
            },
            "ctb2High": null,
            "ctb2MiddleLowPitch": 0,
            "ctb2MiddleHighPitch": 127
          },
          "notes": [
            {
              "pitch": 33,
              "velocity": 68,
              "position": 0,
              "duration": 0.004166666666666667
            }
          ]
        },
        "10": {
          "ctab": {
            "srcChannel": 10,
            "name": "Bs",
            "accType": "BASS",
            "editable": false,
            "mutedNotes": [],
            "mutedChords": [],
            "autoStart": false,
            "sourceChordNote": 0,
            "sourceChordType": "Maj7",
            "ctb2Low": null,
            "ctb2Main": {
              "ntr": "ROOT_TRANSPOSITION",
              "ntt": "MELODY",
              "bassOn": true,
              "chordRootUpperLimit": 8,
              "noteLowLimit": 28,
              "noteHighLimit": 127,
              "rtr": "PITCH_SHIFT_TO_ROOT"
            },
            "ctb2High": null,
            "ctb2MiddleLowPitch": 0,
            "ctb2MiddleHighPitch": 127
          },
          "notes": [
            {
              "pitch": 24,
              "velocity": 50,
              "position": 0,
              "duration": 7.0375
            }
          ]
        },
        "11": {
          "ctab": {
            "srcChannel": 11,
            "name": "Tele",
            "accType": "CHORD1",
            "editable": false,
            "mutedNotes": [],
            "mutedChords": [],
            "autoStart": false,
            "sourceChordNote": 0,
            "sourceChordType": "Maj7",
            "ctb2Low": null,
            "ctb2Main": {
              "ntr": "GUITAR",
              "ntt": "STROKE",
              "bassOn": false,
              "chordRootUpperLimit": 7,
              "noteLowLimit": 0,
              "noteHighLimit": 127,
              "rtr": "PITCH_SHIFT"
            },
            "ctb2High": null,
            "ctb2MiddleLowPitch": 0,
            "ctb2MiddleHighPitch": 127
          },
          "notes": [
            {
              "pitch": 62,
              "velocity": 7,
              "position": 0,
              "duration": 6.989583333333333
            },
            {
              "pitch": 64,
              "velocity": 16,
              "position": 0.004166666666666667,
              "duration": 6.989583333333333
            },
            {
              "pitch": 65,
              "velocity": 33,
              "position": 0.010416666666666666,
              "duration": 6.989583333333333
            },
            {
              "pitch": 67,
              "velocity": 25,
              "position": 0.014583333333333334,
              "duration": 6.989583333333333
            },
            {
              "pitch": 69,
              "velocity": 31,
              "position": 0.020833333333333332,
              "duration": 6.989583333333333
            },
            {
              "pitch": 71,
              "velocity": 32,
              "position": 0.025,
              "duration": 6.989583333333333
            }
          ]
        },
        "12": {
          "ctab": {
            "srcChannel": 12,
            "name": "Steel",
            "accType": "CHORD2",
            "editable": false,
            "mutedNotes": [],
            "mutedChords": [],
            "autoStart": false,
            "sourceChordNote": 0,
            "sourceChordType": "Maj7",
            "ctb2Low": null,
            "ctb2Main": {
              "ntr": "GUITAR",
              "ntt": "ARPEGGIO",
              "bassOn": false,
              "chordRootUpperLimit": 7,
              "noteLowLimit": 0,
              "noteHighLimit": 127,
              "rtr": "PITCH_SHIFT"
            },
            "ctb2High": null,
            "ctb2MiddleLowPitch": 0,
            "ctb2MiddleHighPitch": 127
          },
          "notes": [
            {
              "pitch": 53,
              "velocity": 29,
              "position": 0,
              "duration": 6.991666666666666
            },
            {
              "pitch": 59,
              "velocity": 40,
              "position": 0,
              "duration": 6.991666666666666
            },
            {
              "pitch": 57,
              "velocity": 9,
              "position": 0,
              "duration": 6.991666666666666
            },
            {
              "pitch": 55,
              "velocity": 39,
              "position": 0,
              "duration": 6.991666666666666
            }
          ]
        },
        "13": {
          "ctab": {
            "srcChannel": 13,
            "name": "Strings",
            "accType": "PAD",
            "editable": false,
            "mutedNotes": [],
            "mutedChords": [],
            "autoStart": false,
            "sourceChordNote": 0,
            "sourceChordType": "Maj7",
            "ctb2Low": null,
            "ctb2Main": {
              "ntr": "ROOT_FIXED",
              "ntt": "CHORD",
              "bassOn": false,
              "chordRootUpperLimit": 7,
              "noteLowLimit": 0,
              "noteHighLimit": 127,
              "rtr": "PITCH_SHIFT"
            },
            "ctb2High": null,
            "ctb2MiddleLowPitch": 0,
            "ctb2MiddleHighPitch": 127
          },
          "notes": [
            {
              "pitch": 64,
              "velocity": 52,
              "position": 0,
              "duration": 8
            },
            {
              "pitch": 71,
              "velocity": 52,
              "position": 0,
              "duration": 8
            },
            {
              "pitch": 79,
              "velocity": 48,
              "position": 0,
              "duration": 8
            }
          ]
        },
        "14": {
          "ctab": {
            "srcChannel": 14,
            "name": "HiStr",
            "accType": "PHRASE1",
            "editable": false,
            "mutedNotes": [],
            "mutedChords": [],
            "autoStart": false,
            "sourceChordNote": 0,
            "sourceChordType": "Maj7",
            "ctb2Low": null,
            "ctb2Main": {
              "ntr": "GUITAR",
              "ntt": "ARPEGGIO",
              "bassOn": false,
              "chordRootUpperLimit": 7,
              "noteLowLimit": 0,
              "noteHighLimit": 127,
              "rtr": "PITCH_SHIFT"
            },
            "ctb2High": null,
            "ctb2MiddleLowPitch": 0,
            "ctb2MiddleHighPitch": 127
          },
          "notes": [
            {
              "pitch": 65,
              "velocity": 33,
              "position": 0,
              "duration": 6.991666666666666
            },
            {
              "pitch": 71,
              "velocity": 36,
              "position": 0,
              "duration": 6.991666666666666
            },
            {
              "pitch": 69,
              "velocity": 61,
              "position": 0,
              "duration": 6.991666666666666
            },
            {
              "pitch": 67,
              "velocity": 33,
              "position": 0,
              "duration": 6.991666666666666
            }
          ]
        },
        "15": {
          "ctab": {
            "srcChannel": 15,
            "name": "MSStrgs",
            "accType": "PHRASE2",
            "editable": false,
            "mutedNotes": [],
            "mutedChords": [],
            "autoStart": false,
            "sourceChordNote": 0,
            "sourceChordType": "Maj7",
            "ctb2Low": null,
            "ctb2Main": {
              "ntr": "ROOT_FIXED",
              "ntt": "CHORD",
              "bassOn": false,
              "chordRootUpperLimit": 7,
              "noteLowLimit": 0,
              "noteHighLimit": 127,
              "rtr": "PITCH_SHIFT"
            },
            "ctb2High": null,
            "ctb2MiddleLowPitch": 0,
            "ctb2MiddleHighPitch": 127
          },
          "notes": [
            {
              "pitch": 67,
              "velocity": 31,
              "position": 0,
              "duration": 6.991666666666666
            },
            {
              "pitch": 59,
              "velocity": 31,
              "position": 0,
              "duration": 6.995833333333334
            },
            {
              "pitch": 64,
              "velocity": 31,
              "position": 0,
              "duration": 6.995833333333334
            },
            {
              "pitch": 71,
              "velocity": 31,
              "position": 0,
              "duration": 6.995833333333334
            },
            {
              "pitch": 76,
              "velocity": 35,
              "position": 0,
              "duration": 6.995833333333334
            }
          ]
        }
      }
    },
    "Ending_C": {
      "type": "Ending_C",
      "sizeInBeats": 8,
      "channels": {
        "3": {
          "ctab": {
            "srcChannel": 3,
            "name": "GtBass",
            "accType": "CHORD2",
            "editable": false,
            "mutedNotes": [],
            "mutedChords": [],
            "autoStart": false,
            "sourceChordNote": 0,
            "sourceChordType": "Maj7",
            "ctb2Low": null,
            "ctb2Main": {
              "ntr": "ROOT_TRANSPOSITION",
              "ntt": "MELODY",
              "bassOn": true,
              "chordRootUpperLimit": 8,
              "noteLowLimit": 40,
              "noteHighLimit": 127,
              "rtr": "PITCH_SHIFT_TO_ROOT"
            },
            "ctb2High": null,
            "ctb2MiddleLowPitch": 0,
            "ctb2MiddleHighPitch": 127
          },
          "notes": [
            {
              "pitch": 36,
              "velocity": 31,
              "position": 0,
              "duration": 6.991666666666666
            }
          ]
        },
        "4": {
          "ctab": {
            "srcChannel": 4,
            "name": "StrgRt",
            "accType": "PHRASE2",
            "editable": false,
            "mutedNotes": [],
            "mutedChords": [
              "1+2+5",
              "sus4",
              "1+5",
              "1+8",
              "Maj7aug",
              "dim",
              "minMaj7(9)",
              "minMaj7",
              "min6",
              "min",
              "aug",
              "Maj7(9)",
              "Maj7#11",
              "Maj7",
              "Maj6",
              "Maj"
            ],
            "autoStart": false,
            "sourceChordNote": 0,
            "sourceChordType": "Maj7",
            "ctb2Low": null,
            "ctb2Main": {
              "ntr": "ROOT_TRANSPOSITION",
              "ntt": "MELODY",
              "bassOn": false,
              "chordRootUpperLimit": 6,
              "noteLowLimit": 0,
              "noteHighLimit": 127,
              "rtr": "PITCH_SHIFT"
            },
            "ctb2High": null,
            "ctb2MiddleLowPitch": 0,
            "ctb2MiddleHighPitch": 127
          },
          "notes": [
            {
              "pitch": 60,
              "velocity": 31,
              "position": 0,
              "duration": 6.995833333333334
            }
          ]
        },
        "5": {
          "ctab": {
            "srcChannel": 5,
            "name": "GtBass",
            "accType": "PHRASE1",
            "editable": false,
            "mutedNotes": [],
            "mutedChords": [],
            "autoStart": false,
            "sourceChordNote": 0,
            "sourceChordType": "Maj7",
            "ctb2Low": null,
            "ctb2Main": {
              "ntr": "ROOT_TRANSPOSITION",
              "ntt": "MELODY",
              "bassOn": true,
              "chordRootUpperLimit": 8,
              "noteLowLimit": 40,
              "noteHighLimit": 127,
              "rtr": "PITCH_SHIFT_TO_ROOT"
            },
            "ctb2High": null,
            "ctb2MiddleLowPitch": 0,
            "ctb2MiddleHighPitch": 127
          },
          "notes": [
            {
              "pitch": 36,
              "velocity": 64,
              "position": 0,
              "duration": 6.991666666666666
            }
          ]
        },
        "9": {
          "ctab": {
            "srcChannel": 9,
            "name": "Drs",
            "accType": "RHYTHM",
            "editable": true,
            "mutedNotes": [],
            "mutedChords": [],
            "autoStart": true,
            "sourceChordNote": 0,
            "sourceChordType": "Maj7",
            "ctb2Low": null,
            "ctb2Main": {
              "ntr": "ROOT_FIXED",
              "ntt": "BYPASS",
              "bassOn": false,
              "chordRootUpperLimit": 6,
              "noteLowLimit": 0,
              "noteHighLimit": 127,
              "rtr": "PITCH_SHIFT"
            },
            "ctb2High": null,
            "ctb2MiddleLowPitch": 0,
            "ctb2MiddleHighPitch": 127
          },
          "notes": [
            {
              "pitch": 33,
              "velocity": 68,
              "position": 0,
              "duration": 0.004166666666666667
            }
          ]
        },
        "10": {
          "ctab": {
            "srcChannel": 10,
            "name": "Bs",
            "accType": "BASS",
            "editable": false,
            "mutedNotes": [],
            "mutedChords": [],
            "autoStart": false,
            "sourceChordNote": 0,
            "sourceChordType": "Maj7",
            "ctb2Low": null,
            "ctb2Main": {
              "ntr": "ROOT_TRANSPOSITION",
              "ntt": "MELODY",
              "bassOn": true,
              "chordRootUpperLimit": 8,
              "noteLowLimit": 28,
              "noteHighLimit": 127,
              "rtr": "PITCH_SHIFT_TO_ROOT"
            },
            "ctb2High": null,
            "ctb2MiddleLowPitch": 0,
            "ctb2MiddleHighPitch": 127
          },
          "notes": [
            {
              "pitch": 24,
              "velocity": 50,
              "position": 0,
              "duration": 7.0375
            }
          ]
        },
        "11": {
          "ctab": {
            "srcChannel": 11,
            "name": "Tele",
            "accType": "CHORD1",
            "editable": false,
            "mutedNotes": [],
            "mutedChords": [],
            "autoStart": false,
            "sourceChordNote": 0,
            "sourceChordType": "Maj7",
            "ctb2Low": null,
            "ctb2Main": {
              "ntr": "GUITAR",
              "ntt": "STROKE",
              "bassOn": false,
              "chordRootUpperLimit": 7,
              "noteLowLimit": 0,
              "noteHighLimit": 127,
              "rtr": "PITCH_SHIFT"
            },
            "ctb2High": null,
            "ctb2MiddleLowPitch": 0,
            "ctb2MiddleHighPitch": 127
          },
          "notes": [
            {
              "pitch": 62,
              "velocity": 7,
              "position": 0,
              "duration": 6.989583333333333
            },
            {
              "pitch": 64,
              "velocity": 16,
              "position": 0.004166666666666667,
              "duration": 6.989583333333333
            },
            {
              "pitch": 65,
              "velocity": 33,
              "position": 0.010416666666666666,
              "duration": 6.989583333333333
            },
            {
              "pitch": 67,
              "velocity": 25,
              "position": 0.014583333333333334,
              "duration": 6.989583333333333
            },
            {
              "pitch": 69,
              "velocity": 31,
              "position": 0.020833333333333332,
              "duration": 6.989583333333333
            },
            {
              "pitch": 71,
              "velocity": 32,
              "position": 0.025,
              "duration": 6.989583333333333
            }
          ]
        },
        "12": {
          "ctab": {
            "srcChannel": 12,
            "name": "Steel",
            "accType": "CHORD2",
            "editable": false,
            "mutedNotes": [],
            "mutedChords": [],
            "autoStart": false,
            "sourceChordNote": 0,
            "sourceChordType": "Maj7",
            "ctb2Low": null,
            "ctb2Main": {
              "ntr": "GUITAR",
              "ntt": "ARPEGGIO",
              "bassOn": false,
              "chordRootUpperLimit": 7,
              "noteLowLimit": 0,
              "noteHighLimit": 127,
              "rtr": "PITCH_SHIFT"
            },
            "ctb2High": null,
            "ctb2MiddleLowPitch": 0,
            "ctb2MiddleHighPitch": 127
          },
          "notes": [
            {
              "pitch": 53,
              "velocity": 29,
              "position": 0,
              "duration": 6.991666666666666
            },
            {
              "pitch": 59,
              "velocity": 40,
              "position": 0,
              "duration": 6.991666666666666
            },
            {
              "pitch": 57,
              "velocity": 9,
              "position": 0,
              "duration": 6.991666666666666
            },
            {
              "pitch": 55,
              "velocity": 39,
              "position": 0,
              "duration": 6.991666666666666
            }
          ]
        },
        "13": {
          "ctab": {
            "srcChannel": 13,
            "name": "Strings",
            "accType": "PAD",
            "editable": false,
            "mutedNotes": [],
            "mutedChords": [],
            "autoStart": false,
            "sourceChordNote": 0,
            "sourceChordType": "Maj7",
            "ctb2Low": null,
            "ctb2Main": {
              "ntr": "ROOT_FIXED",
              "ntt": "CHORD",
              "bassOn": false,
              "chordRootUpperLimit": 7,
              "noteLowLimit": 0,
              "noteHighLimit": 127,
              "rtr": "PITCH_SHIFT"
            },
            "ctb2High": null,
            "ctb2MiddleLowPitch": 0,
            "ctb2MiddleHighPitch": 127
          },
          "notes": [
            {
              "pitch": 64,
              "velocity": 52,
              "position": 0,
              "duration": 8
            },
            {
              "pitch": 71,
              "velocity": 52,
              "position": 0,
              "duration": 8
            },
            {
              "pitch": 79,
              "velocity": 48,
              "position": 0,
              "duration": 8
            }
          ]
        },
        "14": {
          "ctab": {
            "srcChannel": 14,
            "name": "HiStr",
            "accType": "PHRASE1",
            "editable": false,
            "mutedNotes": [],
            "mutedChords": [],
            "autoStart": false,
            "sourceChordNote": 0,
            "sourceChordType": "Maj7",
            "ctb2Low": null,
            "ctb2Main": {
              "ntr": "GUITAR",
              "ntt": "ARPEGGIO",
              "bassOn": false,
              "chordRootUpperLimit": 7,
              "noteLowLimit": 0,
              "noteHighLimit": 127,
              "rtr": "PITCH_SHIFT"
            },
            "ctb2High": null,
            "ctb2MiddleLowPitch": 0,
            "ctb2MiddleHighPitch": 127
          },
          "notes": [
            {
              "pitch": 65,
              "velocity": 33,
              "position": 0,
              "duration": 6.991666666666666
            },
            {
              "pitch": 71,
              "velocity": 36,
              "position": 0,
              "duration": 6.991666666666666
            },
            {
              "pitch": 69,
              "velocity": 61,
              "position": 0,
              "duration": 6.991666666666666
            },
            {
              "pitch": 67,
              "velocity": 33,
              "position": 0,
              "duration": 6.991666666666666
            }
          ]
        },
        "15": {
          "ctab": {
            "srcChannel": 15,
            "name": "MSStrgs",
            "accType": "PHRASE2",
            "editable": false,
            "mutedNotes": [],
            "mutedChords": [],
            "autoStart": false,
            "sourceChordNote": 0,
            "sourceChordType": "Maj7",
            "ctb2Low": null,
            "ctb2Main": {
              "ntr": "ROOT_FIXED",
              "ntt": "CHORD",
              "bassOn": false,
              "chordRootUpperLimit": 7,
              "noteLowLimit": 0,
              "noteHighLimit": 127,
              "rtr": "PITCH_SHIFT"
            },
            "ctb2High": null,
            "ctb2MiddleLowPitch": 0,
            "ctb2MiddleHighPitch": 127
          },
          "notes": [
            {
              "pitch": 67,
              "velocity": 31,
              "position": 0,
              "duration": 6.991666666666666
            },
            {
              "pitch": 59,
              "velocity": 31,
              "position": 0,
              "duration": 6.995833333333334
            },
            {
              "pitch": 64,
              "velocity": 31,
              "position": 0,
              "duration": 6.995833333333334
            },
            {
              "pitch": 71,
              "velocity": 31,
              "position": 0,
              "duration": 6.995833333333334
            },
            {
              "pitch": 76,
              "velocity": 35,
              "position": 0,
              "duration": 6.995833333333334
            }
          ]
        }
      }
    },
    "Fill_In_BA": {
      "type": "Fill_In_BA",
      "sizeInBeats": 4,
      "channels": {
        "3": {
          "ctab": {
            "srcChannel": 3,
            "name": "GtBass",
            "accType": "CHORD2",
            "editable": false,
            "mutedNotes": [],
            "mutedChords": [],
            "autoStart": false,
            "sourceChordNote": 0,
            "sourceChordType": "Maj7",
            "ctb2Low": null,
            "ctb2Main": {
              "ntr": "ROOT_TRANSPOSITION",
              "ntt": "MELODY",
              "bassOn": true,
              "chordRootUpperLimit": 8,
              "noteLowLimit": 40,
              "noteHighLimit": 127,
              "rtr": "PITCH_SHIFT_TO_ROOT"
            },
            "ctb2High": null,
            "ctb2MiddleLowPitch": 0,
            "ctb2MiddleHighPitch": 127
          },
          "notes": [
            {
              "pitch": 36,
              "velocity": 31,
              "position": 0,
              "duration": 0.49166666666666664
            }
          ]
        },
        "5": {
          "ctab": {
            "srcChannel": 5,
            "name": "GtBass",
            "accType": "PHRASE1",
            "editable": false,
            "mutedNotes": [],
            "mutedChords": [],
            "autoStart": false,
            "sourceChordNote": 0,
            "sourceChordType": "Maj7",
            "ctb2Low": null,
            "ctb2Main": {
              "ntr": "ROOT_TRANSPOSITION",
              "ntt": "MELODY",
              "bassOn": true,
              "chordRootUpperLimit": 8,
              "noteLowLimit": 40,
              "noteHighLimit": 127,
              "rtr": "PITCH_SHIFT_TO_ROOT"
            },
            "ctb2High": null,
            "ctb2MiddleLowPitch": 0,
            "ctb2MiddleHighPitch": 127
          },
          "notes": [
            {
              "pitch": 36,
              "velocity": 64,
              "position": 0,
              "duration": 0.49166666666666664
            }
          ]
        },
        "8": {
          "ctab": {
            "srcChannel": 8,
            "name": "Prc",
            "accType": "SUBRHYTHM",
            "editable": false,
            "mutedNotes": [],
            "mutedChords": [],
            "autoStart": true,
            "sourceChordNote": 0,
            "sourceChordType": "Maj7",
            "ctb2Low": null,
            "ctb2Main": {
              "ntr": "ROOT_FIXED",
              "ntt": "BYPASS",
              "bassOn": false,
              "chordRootUpperLimit": 6,
              "noteLowLimit": 0,
              "noteHighLimit": 127,
              "rtr": "PITCH_SHIFT"
            },
            "ctb2High": null,
            "ctb2MiddleLowPitch": 0,
            "ctb2MiddleHighPitch": 127
          },
          "notes": [
            {
              "pitch": 68,
              "velocity": 40,
              "position": 0,
              "duration": 0.004166666666666667
            },
            {
              "pitch": 84,
              "velocity": 50,
              "position": 2,
              "duration": 0.004166666666666667
            }
          ]
        },
        "9": {
          "ctab": {
            "srcChannel": 9,
            "name": "Drs",
            "accType": "RHYTHM",
            "editable": false,
            "mutedNotes": [],
            "mutedChords": [],
            "autoStart": true,
            "sourceChordNote": 0,
            "sourceChordType": "Maj7",
            "ctb2Low": null,
            "ctb2Main": {
              "ntr": "ROOT_FIXED",
              "ntt": "BYPASS",
              "bassOn": false,
              "chordRootUpperLimit": 6,
              "noteLowLimit": 0,
              "noteHighLimit": 127,
              "rtr": "PITCH_SHIFT"
            },
            "ctb2High": null,
            "ctb2MiddleLowPitch": 0,
            "ctb2MiddleHighPitch": 127
          },
          "notes": [
            {
              "pitch": 33,
              "velocity": 68,
              "position": 0,
              "duration": 0.004166666666666667
            },
            {
              "pitch": 38,
              "velocity": 120,
              "position": 0,
              "duration": 0.004166666666666667
            },
            {
              "pitch": 44,
              "velocity": 52,
              "position": 0.5,
              "duration": 0.004166666666666667
            },
            {
              "pitch": 44,
              "velocity": 52,
              "position": 1.5,
              "duration": 0.004166666666666667
            },
            {
              "pitch": 31,
              "velocity": 32,
              "position": 2.25,
              "duration": 0.004166666666666667
            },
            {
              "pitch": 38,
              "velocity": 60,
              "position": 2.375,
              "duration": 0.004166666666666667
            },
            {
              "pitch": 38,
              "velocity": 120,
              "position": 2.5,
              "duration": 0.004166666666666667
            },
            {
              "pitch": 44,
              "velocity": 52,
              "position": 2.5,
              "duration": 0.004166666666666667
            },
            {
              "pitch": 27,
              "velocity": 69,
              "position": 2.75,
              "duration": 0.004166666666666667
            },
            {
              "pitch": 34,
              "velocity": 99,
              "position": 3,
              "duration": 0.004166666666666667
            },
            {
              "pitch": 27,
              "velocity": 80,
              "position": 3.25,
              "duration": 0.004166666666666667
            },
            {
              "pitch": 38,
              "velocity": 120,
              "position": 3.5,
              "duration": 0.004166666666666667
            },
            {
              "pitch": 44,
              "velocity": 52,
              "position": 3.5,
              "duration": 0.004166666666666667
            },
            {
              "pitch": 34,
              "velocity": 78,
              "position": 3.75,
              "duration": 0.004166666666666667
            },
            {
              "pitch": 49,
              "velocity": 100,
              "position": 3.9895833333333335,
              "duration": 0.004166666666666667
            }
          ]
        },
        "10": {
          "ctab": {
            "srcChannel": 10,
            "name": "Bs",
            "accType": "BASS",
            "editable": false,
            "mutedNotes": [],
            "mutedChords": [],
            "autoStart": false,
            "sourceChordNote": 0,
            "sourceChordType": "Maj7",
            "ctb2Low": null,
            "ctb2Main": {
              "ntr": "ROOT_TRANSPOSITION",
              "ntt": "MELODY",
              "bassOn": true,
              "chordRootUpperLimit": 8,
              "noteLowLimit": 28,
              "noteHighLimit": 127,
              "rtr": "PITCH_SHIFT_TO_ROOT"
            },
            "ctb2High": null,
            "ctb2MiddleLowPitch": 0,
            "ctb2MiddleHighPitch": 127
          },
          "notes": [
            {
              "pitch": 24,
              "velocity": 50,
              "position": 0,
              "duration": 0.5375
            }
          ]
        },
        "11": {
          "ctab": {
            "srcChannel": 11,
            "name": "Tele",
            "accType": "CHORD1",
            "editable": false,
            "mutedNotes": [],
            "mutedChords": [],
            "autoStart": false,
            "sourceChordNote": 0,
            "sourceChordType": "Maj7",
            "ctb2Low": null,
            "ctb2Main": {
              "ntr": "GUITAR",
              "ntt": "STROKE",
              "bassOn": false,
              "chordRootUpperLimit": 7,
              "noteLowLimit": 0,
              "noteHighLimit": 127,
              "rtr": "PITCH_SHIFT"
            },
            "ctb2High": null,
            "ctb2MiddleLowPitch": 0,
            "ctb2MiddleHighPitch": 127
          },
          "notes": [
            {
              "pitch": 62,
              "velocity": 7,
              "position": 0,
              "duration": 0.4895833333333333
            },
            {
              "pitch": 64,
              "velocity": 16,
              "position": 0.004166666666666667,
              "duration": 0.4895833333333333
            },
            {
              "pitch": 65,
              "velocity": 33,
              "position": 0.010416666666666666,
              "duration": 0.4895833333333333
            },
            {
              "pitch": 67,
              "velocity": 25,
              "position": 0.014583333333333334,
              "duration": 0.4895833333333333
            },
            {
              "pitch": 69,
              "velocity": 31,
              "position": 0.020833333333333332,
              "duration": 0.4895833333333333
            },
            {
              "pitch": 71,
              "velocity": 32,
              "position": 0.025,
              "duration": 0.4895833333333333
            }
          ]
        },
        "12": {
          "ctab": {
            "srcChannel": 12,
            "name": "Steel",
            "accType": "CHORD2",
            "editable": false,
            "mutedNotes": [],
            "mutedChords": [],
            "autoStart": false,
            "sourceChordNote": 0,
            "sourceChordType": "Maj7",
            "ctb2Low": null,
            "ctb2Main": {
              "ntr": "GUITAR",
              "ntt": "ARPEGGIO",
              "bassOn": false,
              "chordRootUpperLimit": 7,
              "noteLowLimit": 0,
              "noteHighLimit": 127,
              "rtr": "PITCH_SHIFT"
            },
            "ctb2High": null,
            "ctb2MiddleLowPitch": 0,
            "ctb2MiddleHighPitch": 127
          },
          "notes": [
            {
              "pitch": 53,
              "velocity": 29,
              "position": 0,
              "duration": 0.49166666666666664
            },
            {
              "pitch": 59,
              "velocity": 40,
              "position": 0,
              "duration": 0.49166666666666664
            },
            {
              "pitch": 57,
              "velocity": 9,
              "position": 0,
              "duration": 0.49166666666666664
            },
            {
              "pitch": 55,
              "velocity": 39,
              "position": 0,
              "duration": 0.49166666666666664
            }
          ]
        },
        "13": {
          "ctab": {
            "srcChannel": 13,
            "name": "Pad",
            "accType": "PAD",
            "editable": false,
            "mutedNotes": [],
            "mutedChords": [],
            "autoStart": false,
            "sourceChordNote": 0,
            "sourceChordType": "Maj7",
            "ctb2Low": {
              "ntr": "ROOT_TRANSPOSITION",
              "ntt": "MELODY",
              "bassOn": true,
              "chordRootUpperLimit": 8,
              "noteLowLimit": 40,
              "noteHighLimit": 51,
              "rtr": "PITCH_SHIFT_TO_ROOT"
            },
            "ctb2Main": {
              "ntr": "ROOT_FIXED",
              "ntt": "CHORD",
              "bassOn": false,
              "chordRootUpperLimit": 7,
              "noteLowLimit": 0,
              "noteHighLimit": 127,
              "rtr": "PITCH_SHIFT"
            },
            "ctb2High": null,
            "ctb2MiddleLowPitch": 38,
            "ctb2MiddleHighPitch": 127
          },
          "notes": []
        },
        "14": {
          "ctab": {
            "srcChannel": 14,
            "name": "HiStr",
            "accType": "PHRASE1",
            "editable": false,
            "mutedNotes": [],
            "mutedChords": [],
            "autoStart": false,
            "sourceChordNote": 0,
            "sourceChordType": "Maj7",
            "ctb2Low": null,
            "ctb2Main": {
              "ntr": "GUITAR",
              "ntt": "ARPEGGIO",
              "bassOn": false,
              "chordRootUpperLimit": 7,
              "noteLowLimit": 0,
              "noteHighLimit": 127,
              "rtr": "PITCH_SHIFT"
            },
            "ctb2High": null,
            "ctb2MiddleLowPitch": 0,
            "ctb2MiddleHighPitch": 127
          },
          "notes": [
            {
              "pitch": 65,
              "velocity": 33,
              "position": 0,
              "duration": 0.49166666666666664
            },
            {
              "pitch": 71,
              "velocity": 36,
              "position": 0,
              "duration": 0.49166666666666664
            },
            {
              "pitch": 69,
              "velocity": 61,
              "position": 0,
              "duration": 0.49166666666666664
            }
          ]
        }
      }
    }
  }
}