{
  "name": "Folkball.STY",
  "tempo": 71,
  "timeSignature": "4/4",
  "ticksPerQuarter": 1920,
  "sffType": "SFF1",
  "division": "BINARY",
  "parts": {
    "Main_A": {
      "type": "Main_A",
      "sizeInBeats": 32,
      "channels": {
        "0": {
          "ctab": {
            "srcChannel": 0,
            "name": "SteelGtr",
            "accType": "CHORD1",
            "editable": false,
            "mutedNotes": [],
            "mutedChords": [
              "1+2+5",
              "sus4",
              "1+5",
              "1+8",
              "dim7",
              "dim",
              "minMaj7(9)",
              "minMaj7",
              "min7(11)",
              "min7(9)",
              "min(9)",
              "m7b5",
              "min7",
              "min6",
              "min",
              "aug",
              "Maj6(9)",
              "Maj7(9)",
              "Maj(9)",
              "Maj7#11",
              "Maj7",
              "Maj6",
              "Maj"
            ],
            "autoStart": false,
            "sourceChordNote": 0,
            "sourceChordType": "7th",
            "ctb2Low": null,
            "ctb2Main": {
              "ntr": "ROOT_FIXED",
              "ntt": "CHORD",
              "bassOn": false,
              "chordRootUpperLimit": 6,
              "noteLowLimit": 0,
              "noteHighLimit": 127,
              "rtr": "PITCH_SHIFT"
            },
            "ctb2High": null
          },
          "notes": [
            {
              "pitch": 58,
              "velocity": 85,
              "position": 0.5,
              "duration": 0.625
            },
            {
              "pitch": 52,
              "velocity": 92,
              "position": 0.75,
              "duration": 0.5
            },
            {
              "pitch": 55,
              "velocity": 85,
              "position": 0.25,
              "duration": 1.625
            },
            {
              "pitch": 58,
              "velocity": 96,
              "position": 1.25,
              "duration": 1.375
            },
            {
              "pitch": 55,
              "velocity": 92,
              "position": 2,
              "duration": 1.375
            },
            {
              "pitch": 58,
              "velocity": 96,
              "position": 2.75,
              "duration": 2.375
            },
            {
              "pitch": 52,
              "velocity": 96,
              "position": 4.5,
              "duration": 0.75
            },
            {
              "pitch": 55,
              "velocity": 85,
              "position": 3.5,
              "duration": 2.375
            },
            {
              "pitch": 64,
              "velocity": 98,
              "position": 0,
              "duration": 6.625
            },
            {
              "pitch": 55,
              "velocity": 77,
              "position": 6,
              "duration": 1.375
            },
            {
              "pitch": 58,
              "velocity": 98,
              "position": 5.25,
              "duration": 2.7291666666666665
            },
            {
              "pitch": 64,
              "velocity": 97,
              "position": 6.75,
              "duration": 1.2291666666666667
            },
            {
              "pitch": 55,
              "velocity": 77,
              "position": 7.5,
              "duration": 0.4791666666666667
            },
            {
              "pitch": 52,
              "velocity": 98,
              "position": 8,
              "duration": 0.75
            },
            {
              "pitch": 58,
              "velocity": 92,
              "position": 8.25,
              "duration": 1.125
            },
            {
              "pitch": 55,
              "velocity": 92,
              "position": 8.5,
              "duration": 1.625
            },
            {
              "pitch": 58,
              "velocity": 96,
              "position": 9.5,
              "duration": 1.375
            },
            {
              "pitch": 64,
              "velocity": 98,
              "position": 8.75,
              "duration": 2.9791666666666665
            },
            {
              "pitch": 55,
              "velocity": 98,
              "position": 10.25,
              "duration": 2.125
            },
            {
              "pitch": 58,
              "velocity": 96,
              "position": 11,
              "duration": 2.125
            },
            {
              "pitch": 58,
              "velocity": 98,
              "position": 13.25,
              "duration": 1.375
            },
            {
              "pitch": 52,
              "velocity": 96,
              "position": 14,
              "duration": 0.75
            },
            {
              "pitch": 55,
              "velocity": 97,
              "position": 12.5,
              "duration": 2.875
            },
            {
              "pitch": 64,
              "velocity": 98,
              "position": 11.75,
              "duration": 4.229166666666667
            },
            {
              "pitch": 58,
              "velocity": 100,
              "position": 14.75,
              "duration": 1.2291666666666667
            },
            {
              "pitch": 55,
              "velocity": 92,
              "position": 15.5,
              "duration": 0.4791666666666667
            },
            {
              "pitch": 58,
              "velocity": 85,
              "position": 16.5,
              "duration": 0.625
            },
            {
              "pitch": 52,
              "velocity": 92,
              "position": 16.75,
              "duration": 0.5
            },
            {
              "pitch": 55,
              "velocity": 85,
              "position": 16.25,
              "duration": 1.625
            },
            {
              "pitch": 58,
              "velocity": 96,
              "position": 17.25,
              "duration": 1.375
            },
            {
              "pitch": 55,
              "velocity": 92,
              "position": 18,
              "duration": 1.375
            },
            {
              "pitch": 58,
              "velocity": 96,
              "position": 18.75,
              "duration": 2.375
            },
            {
              "pitch": 52,
              "velocity": 96,
              "position": 20.5,
              "duration": 0.75
            },
            {
              "pitch": 55,
              "velocity": 85,
              "position": 19.5,
              "duration": 2.375
            },
            {
              "pitch": 64,
              "velocity": 98,
              "position": 16,
              "duration": 6.625
            },
            {
              "pitch": 55,
              "velocity": 77,
              "position": 22,
              "duration": 1.375
            },
            {
              "pitch": 58,
              "velocity": 98,
              "position": 21.25,
              "duration": 2.7291666666666665
            },
            {
              "pitch": 64,
              "velocity": 97,
              "position": 22.75,
              "duration": 1.2291666666666667
            },
            {
              "pitch": 55,
              "velocity": 77,
              "position": 23.5,
              "duration": 0.4791666666666667
            },
            {
              "pitch": 52,
              "velocity": 98,
              "position": 24,
              "duration": 0.75
            },
            {
              "pitch": 58,
              "velocity": 92,
              "position": 24.25,
              "duration": 1.125
            },
            {
              "pitch": 55,
              "velocity": 92,
              "position": 24.5,
              "duration": 1.625
            },
            {
              "pitch": 58,
              "velocity": 96,
              "position": 25.5,
              "duration": 1.375
            },
            {
              "pitch": 64,
              "velocity": 98,
              "position": 24.75,
              "duration": 2.9791666666666665
            },
            {
              "pitch": 55,
              "velocity": 98,
              "position": 26.25,
              "duration": 2.125
            },
            {
              "pitch": 58,
              "velocity": 96,
              "position": 27,
              "duration": 2.125
            },
            {
              "pitch": 58,
              "velocity": 98,
              "position": 29.25,
              "duration": 1.375
            },
            {
              "pitch": 52,
              "velocity": 96,
              "position": 30,
              "duration": 0.75
            },
            {
              "pitch": 55,
              "velocity": 97,
              "position": 28.5,
              "duration": 2.875
            },
            {
              "pitch": 64,
              "velocity": 98,
              "position": 27.75,
              "duration": 4.229166666666667
            },
            {
              "pitch": 58,
              "velocity": 100,
              "position": 30.75,
              "duration": 1.2291666666666667
            },
            {
              "pitch": 55,
              "velocity": 92,
              "position": 31.5,
              "duration": 0.4791666666666667
            }
          ]
        },
        "2": {
          "ctab": {
            "srcChannel": 2,
            "name": "SteelGtr",
            "accType": "CHORD2",
            "editable": false,
            "mutedNotes": [],
            "mutedChords": [
              "7aug",
              "Maj7aug",
              "7(#9)",
              "7(b13)",
              "7(b9)",
              "7(13)",
              "7#11",
              "7(9)",
              "7b5",
              "7sus4",
              "7th"
            ],
            "autoStart": false,
            "sourceChordNote": 0,
            "sourceChordType": "Maj7",
            "ctb2Low": null,
            "ctb2Main": {
              "ntr": "ROOT_FIXED",
              "ntt": "CHORD",
              "bassOn": false,
              "chordRootUpperLimit": 6,
              "noteLowLimit": 0,
              "noteHighLimit": 127,
              "rtr": "PITCH_SHIFT"
            },
            "ctb2High": null
          },
          "notes": [
            {
              "pitch": 64,
              "velocity": 96,
              "position": 0,
              "duration": 0.75
            },
            {
              "pitch": 48,
              "velocity": 77,
              "position": 0,
              "duration": 0.875
            },
            {
              "pitch": 67,
              "velocity": 85,
              "position": 1.25,
              "duration": 0.5
            },
            {
              "pitch": 48,
              "velocity": 70,
              "position": 1,
              "duration": 0.875
            },
            {
              "pitch": 55,
              "velocity": 64,
              "position": 0.5,
              "duration": 1.625
            },
            {
              "pitch": 59,
              "velocity": 85,
              "position": 0.75,
              "duration": 1.625
            },
            {
              "pitch": 64,
              "velocity": 96,
              "position": 1.75,
              "duration": 0.875
            },
            {
              "pitch": 48,
              "velocity": 64,
              "position": 2,
              "duration": 0.875
            },
            {
              "pitch": 55,
              "velocity": 85,
              "position": 2.25,
              "duration": 0.875
            },
            {
              "pitch": 59,
              "velocity": 85,
              "position": 2.5,
              "duration": 0.875
            },
            {
              "pitch": 67,
              "velocity": 96,
              "position": 2.75,
              "duration": 0.875
            },
            {
              "pitch": 48,
              "velocity": 64,
              "position": 3,
              "duration": 0.875
            },
            {
              "pitch": 55,
              "velocity": 92,
              "position": 3.25,
              "duration": 0.7291666666666666
            },
            {
              "pitch": 59,
              "velocity": 92,
              "position": 3.5,
              "duration": 0.4791666666666667
            },
            {
              "pitch": 67,
              "velocity": 96,
              "position": 3.75,
              "duration": 0.22916666666666666
            },
            {
              "pitch": 64,
              "velocity": 96,
              "position": 4,
              "duration": 0.75
            },
            {
              "pitch": 48,
              "velocity": 77,
              "position": 4,
              "duration": 0.875
            },
            {
              "pitch": 67,
              "velocity": 85,
              "position": 5.25,
              "duration": 0.5
            },
            {
              "pitch": 48,
              "velocity": 70,
              "position": 5,
              "duration": 0.875
            },
            {
              "pitch": 55,
              "velocity": 64,
              "position": 4.5,
              "duration": 1.625
            },
            {
              "pitch": 59,
              "velocity": 85,
              "position": 4.75,
              "duration": 1.625
            },
            {
              "pitch": 64,
              "velocity": 96,
              "position": 5.75,
              "duration": 0.875
            },
            {
              "pitch": 48,
              "velocity": 64,
              "position": 6,
              "duration": 0.875
            },
            {
              "pitch": 55,
              "velocity": 85,
              "position": 6.25,
              "duration": 0.875
            },
            {
              "pitch": 59,
              "velocity": 85,
              "position": 6.5,
              "duration": 0.875
            },
            {
              "pitch": 67,
              "velocity": 96,
              "position": 6.75,
              "duration": 0.875
            },
            {
              "pitch": 48,
              "velocity": 64,
              "position": 7,
              "duration": 0.875
            },
            {
              "pitch": 55,
              "velocity": 92,
              "position": 7.25,
              "duration": 0.7291666666666666
            },
            {
              "pitch": 59,
              "velocity": 92,
              "position": 7.5,
              "duration": 0.4791666666666667
            },
            {
              "pitch": 67,
              "velocity": 96,
              "position": 7.75,
              "duration": 0.22916666666666666
            },
            {
              "pitch": 64,
              "velocity": 96,
              "position": 8,
              "duration": 0.75
            },
            {
              "pitch": 48,
              "velocity": 77,
              "position": 8,
              "duration": 0.875
            },
            {
              "pitch": 67,
              "velocity": 85,
              "position": 9.25,
              "duration": 0.5
            },
            {
              "pitch": 48,
              "velocity": 70,
              "position": 9,
              "duration": 0.875
            },
            {
              "pitch": 55,
              "velocity": 64,
              "position": 8.5,
              "duration": 1.625
            },
            {
              "pitch": 59,
              "velocity": 85,
              "position": 8.75,
              "duration": 1.625
            },
            {
              "pitch": 64,
              "velocity": 96,
              "position": 9.75,
              "duration": 0.875
            },
            {
              "pitch": 48,
              "velocity": 64,
              "position": 10,
              "duration": 0.875
            },
            {
              "pitch": 55,
              "velocity": 85,
              "position": 10.25,
              "duration": 0.875
            },
            {
              "pitch": 59,
              "velocity": 85,
              "position": 10.5,
              "duration": 0.875
            },
            {
              "pitch": 67,
              "velocity": 96,
              "position": 10.75,
              "duration": 0.875
            },
            {
              "pitch": 48,
              "velocity": 64,
              "position": 11,
              "duration": 0.875
            },
            {
              "pitch": 55,
              "velocity": 92,
              "position": 11.25,
              "duration": 0.7291666666666666
            },
            {
              "pitch": 59,
              "velocity": 92,
              "position": 11.5,
              "duration": 0.4791666666666667
            },
            {
              "pitch": 67,
              "velocity": 96,
              "position": 11.75,
              "duration": 0.22916666666666666
            },
            {
              "pitch": 64,
              "velocity": 92,
              "position": 12,
              "duration": 0.75
            },
            {
              "pitch": 48,
              "velocity": 85,
              "position": 12,
              "duration": 0.875
            },
            {
              "pitch": 67,
              "velocity": 85,
              "position": 13.25,
              "duration": 0.5
            },
            {
              "pitch": 48,
              "velocity": 77,
              "position": 13,
              "duration": 0.875
            },
            {
              "pitch": 55,
              "velocity": 64,
              "position": 12.5,
              "duration": 1.625
            },
            {
              "pitch": 59,
              "velocity": 92,
              "position": 12.75,
              "duration": 1.625
            },
            {
              "pitch": 64,
              "velocity": 96,
              "position": 13.75,
              "duration": 0.875
            },
            {
              "pitch": 67,
              "velocity": 96,
              "position": 14.75,
              "duration": 0.25
            },
            {
              "pitch": 64,
              "velocity": 85,
              "position": 15,
              "duration": 0.25
            },
            {
              "pitch": 55,
              "velocity": 85,
              "position": 14.25,
              "duration": 1.125
            },
            {
              "pitch": 59,
              "velocity": 92,
              "position": 14.5,
              "duration": 1.125
            },
            {
              "pitch": 48,
              "velocity": 85,
              "position": 14,
              "duration": 1.875
            },
            {
              "pitch": 52,
              "velocity": 96,
              "position": 15.25,
              "duration": 0.7291666666666666
            },
            {
              "pitch": 55,
              "velocity": 85,
              "position": 15.5,
              "duration": 0.4791666666666667
            },
            {
              "pitch": 59,
              "velocity": 77,
              "position": 15.75,
              "duration": 0.22916666666666666
            },
            {
              "pitch": 64,
              "velocity": 96,
              "position": 16,
              "duration": 0.75
            },
            {
              "pitch": 48,
              "velocity": 77,
              "position": 16,
              "duration": 0.875
            },
            {
              "pitch": 67,
              "velocity": 85,
              "position": 17.25,
              "duration": 0.5
            },
            {
              "pitch": 48,
              "velocity": 70,
              "position": 17,
              "duration": 0.875
            },
            {
              "pitch": 55,
              "velocity": 64,
              "position": 16.5,
              "duration": 1.625
            },
            {
              "pitch": 59,
              "velocity": 85,
              "position": 16.75,
              "duration": 1.625
            },
            {
              "pitch": 64,
              "velocity": 96,
              "position": 17.75,
              "duration": 0.875
            },
            {
              "pitch": 48,
              "velocity": 64,
              "position": 18,
              "duration": 0.875
            },
            {
              "pitch": 55,
              "velocity": 85,
              "position": 18.25,
              "duration": 0.875
            },
            {
              "pitch": 59,
              "velocity": 85,
              "position": 18.5,
              "duration": 0.875
            },
            {
              "pitch": 67,
              "velocity": 96,
              "position": 18.75,
              "duration": 0.875
            },
            {
              "pitch": 48,
              "velocity": 64,
              "position": 19,
              "duration": 0.875
            },
            {
              "pitch": 55,
              "velocity": 92,
              "position": 19.25,
              "duration": 0.7291666666666666
            },
            {
              "pitch": 59,
              "velocity": 92,
              "position": 19.5,
              "duration": 0.4791666666666667
            },
            {
              "pitch": 67,
              "velocity": 96,
              "position": 19.75,
              "duration": 0.22916666666666666
            },
            {
              "pitch": 64,
              "velocity": 96,
              "position": 20,
              "duration": 0.75
            },
            {
              "pitch": 48,
              "velocity": 77,
              "position": 20,
              "duration": 0.875
            },
            {
              "pitch": 67,
              "velocity": 85,
              "position": 21.25,
              "duration": 0.5
            },
            {
              "pitch": 48,
              "velocity": 70,
              "position": 21,
              "duration": 0.875
            },
            {
              "pitch": 55,
              "velocity": 64,
              "position": 20.5,
              "duration": 1.625
            },
            {
              "pitch": 59,
              "velocity": 85,
              "position": 20.75,
              "duration": 1.625
            },
            {
              "pitch": 64,
              "velocity": 96,
              "position": 21.75,
              "duration": 0.875
            },
            {
              "pitch": 48,
              "velocity": 64,
              "position": 22,
              "duration": 0.875
            },
            {
              "pitch": 55,
              "velocity": 85,
              "position": 22.25,
              "duration": 0.875
            },
            {
              "pitch": 59,
              "velocity": 85,
              "position": 22.5,
              "duration": 0.875
            },
            {
              "pitch": 67,
              "velocity": 96,
              "position": 22.75,
              "duration": 0.875
            },
            {
              "pitch": 48,
              "velocity": 64,
              "position": 23,
              "duration": 0.875
            },
            {
              "pitch": 55,
              "velocity": 92,
              "position": 23.25,
              "duration": 0.7291666666666666
            },
            {
              "pitch": 59,
              "velocity": 92,
              "position": 23.5,
              "duration": 0.4791666666666667
            },
            {
              "pitch": 67,
              "velocity": 96,
              "position": 23.75,
              "duration": 0.22916666666666666
            },
            {
              "pitch": 64,
              "velocity": 96,
              "position": 24,
              "duration": 0.75
            },
            {
              "pitch": 48,
              "velocity": 77,
              "position": 24,
              "duration": 0.875
            },
            {
              "pitch": 67,
              "velocity": 85,
              "position": 25.25,
              "duration": 0.5
            },
            {
              "pitch": 48,
              "velocity": 70,
              "position": 25,
              "duration": 0.875
            },
            {
              "pitch": 55,
              "velocity": 64,
              "position": 24.5,
              "duration": 1.625
            },
            {
              "pitch": 59,
              "velocity": 85,
              "position": 24.75,
              "duration": 1.625
            },
            {
              "pitch": 64,
              "velocity": 96,
              "position": 25.75,
              "duration": 0.875
            },
            {
              "pitch": 48,
              "velocity": 64,
              "position": 26,
              "duration": 0.875
            },
            {
              "pitch": 55,
              "velocity": 85,
              "position": 26.25,
              "duration": 0.875
            },
            {
              "pitch": 59,
              "velocity": 85,
              "position": 26.5,
              "duration": 0.875
            },
            {
              "pitch": 67,
              "velocity": 96,
              "position": 26.75,
              "duration": 0.875
            },
            {
              "pitch": 48,
              "velocity": 64,
              "position": 27,
              "duration": 0.875
            },
            {
              "pitch": 55,
              "velocity": 92,
              "position": 27.25,
              "duration": 0.7291666666666666
            },
            {
              "pitch": 59,
              "velocity": 92,
              "position": 27.5,
              "duration": 0.4791666666666667
            },
            {
              "pitch": 67,
              "velocity": 96,
              "position": 27.75,
              "duration": 0.22916666666666666
            },
            {
              "pitch": 64,
              "velocity": 85,
              "position": 28,
              "duration": 0.75
            },
            {
              "pitch": 48,
              "velocity": 85,
              "position": 28,
              "duration": 0.875
            },
            {
              "pitch": 67,
              "velocity": 85,
              "position": 29.25,
              "duration": 0.5
            },
            {
              "pitch": 48,
              "velocity": 85,
              "position": 29,
              "duration": 0.875
            },
            {
              "pitch": 55,
              "velocity": 77,
              "position": 28.5,
              "duration": 1.625
            },
            {
              "pitch": 59,
              "velocity": 85,
              "position": 28.75,
              "duration": 1.625
            },
            {
              "pitch": 64,
              "velocity": 96,
              "position": 29.75,
              "duration": 0.9791666666666666
            },
            {
              "pitch": 48,
              "velocity": 96,
              "position": 30,
              "duration": 0.875
            },
            {
              "pitch": 64,
              "velocity": 85,
              "position": 30.75,
              "duration": 0.25
            },
            {
              "pitch": 55,
              "velocity": 70,
              "position": 30.25,
              "duration": 1
            },
            {
              "pitch": 59,
              "velocity": 92,
              "position": 30.5,
              "duration": 0.875
            },
            {
              "pitch": 67,
              "velocity": 96,
              "position": 31,
              "duration": 0.75
            },
            {
              "pitch": 48,
              "velocity": 85,
              "position": 31,
              "duration": 0.875
            },
            {
              "pitch": 64,
              "velocity": 77,
              "position": 31.25,
              "duration": 0.7291666666666666
            },
            {
              "pitch": 59,
              "velocity": 92,
              "position": 31.5,
              "duration": 0.4791666666666667
            },
            {
              "pitch": 55,
              "velocity": 92,
              "position": 31.75,
              "duration": 0.22916666666666666
            }
          ]
        },
        "3": {
          "ctab": {
            "srcChannel": 3,
            "name": "SteelGtr",
            "accType": "CHORD2",
            "editable": false,
            "mutedNotes": [],
            "mutedChords": [
              "1+2+5",
              "sus4",
              "1+5",
              "1+8",
              "dim7",
              "dim",
              "minMaj7(9)",
              "minMaj7",
              "min7(11)",
              "min7(9)",
              "min(9)",
              "m7b5",
              "min7",
              "min6",
              "min",
              "aug",
              "Maj6(9)",
              "Maj7(9)",
              "Maj(9)",
              "Maj7#11",
              "Maj7",
              "Maj6",
              "Maj"
            ],
            "autoStart": false,
            "sourceChordNote": 0,
            "sourceChordType": "7th",
            "ctb2Low": null,
            "ctb2Main": {
              "ntr": "ROOT_FIXED",
              "ntt": "CHORD",
              "bassOn": false,
              "chordRootUpperLimit": 6,
              "noteLowLimit": 0,
              "noteHighLimit": 127,
              "rtr": "PITCH_SHIFT"
            },
            "ctb2High": null
          },
          "notes": [
            {
              "pitch": 64,
              "velocity": 96,
              "position": 0,
              "duration": 0.75
            },
            {
              "pitch": 48,
              "velocity": 77,
              "position": 0,
              "duration": 0.875
            },
            {
              "pitch": 70,
              "velocity": 85,
              "position": 1.25,
              "duration": 0.5
            },
            {
              "pitch": 48,
              "velocity": 70,
              "position": 1,
              "duration": 0.875
            },
            {
              "pitch": 58,
              "velocity": 64,
              "position": 0.5,
              "duration": 1.625
            },
            {
              "pitch": 55,
              "velocity": 85,
              "position": 0.75,
              "duration": 1.625
            },
            {
              "pitch": 64,
              "velocity": 96,
              "position": 1.75,
              "duration": 0.875
            },
            {
              "pitch": 48,
              "velocity": 64,
              "position": 2,
              "duration": 0.875
            },
            {
              "pitch": 58,
              "velocity": 85,
              "position": 2.25,
              "duration": 0.875
            },
            {
              "pitch": 55,
              "velocity": 85,
              "position": 2.5,
              "duration": 0.875
            },
            {
              "pitch": 70,
              "velocity": 96,
              "position": 2.75,
              "duration": 0.875
            },
            {
              "pitch": 48,
              "velocity": 64,
              "position": 3,
              "duration": 0.875
            },
            {
              "pitch": 58,
              "velocity": 92,
              "position": 3.25,
              "duration": 0.7291666666666666
            },
            {
              "pitch": 55,
              "velocity": 92,
              "position": 3.5,
              "duration": 0.4791666666666667
            },
            {
              "pitch": 70,
              "velocity": 96,
              "position": 3.75,
              "duration": 0.22916666666666666
            },
            {
              "pitch": 64,
              "velocity": 96,
              "position": 4,
              "duration": 0.75
            },
            {
              "pitch": 48,
              "velocity": 77,
              "position": 4,
              "duration": 0.875
            },
            {
              "pitch": 70,
              "velocity": 85,
              "position": 5.25,
              "duration": 0.5
            },
            {
              "pitch": 48,
              "velocity": 70,
              "position": 5,
              "duration": 0.875
            },
            {
              "pitch": 58,
              "velocity": 64,
              "position": 4.5,
              "duration": 1.625
            },
            {
              "pitch": 55,
              "velocity": 85,
              "position": 4.75,
              "duration": 1.625
            },
            {
              "pitch": 64,
              "velocity": 96,
              "position": 5.75,
              "duration": 0.875
            },
            {
              "pitch": 48,
              "velocity": 64,
              "position": 6,
              "duration": 0.875
            },
            {
              "pitch": 58,
              "velocity": 85,
              "position": 6.25,
              "duration": 0.875
            },
            {
              "pitch": 55,
              "velocity": 85,
              "position": 6.5,
              "duration": 0.875
            },
            {
              "pitch": 70,
              "velocity": 96,
              "position": 6.75,
              "duration": 0.875
            },
            {
              "pitch": 48,
              "velocity": 64,
              "position": 7,
              "duration": 0.875
            },
            {
              "pitch": 58,
              "velocity": 92,
              "position": 7.25,
              "duration": 0.7291666666666666
            },
            {
              "pitch": 55,
              "velocity": 92,
              "position": 7.5,
              "duration": 0.4791666666666667
            },
            {
              "pitch": 70,
              "velocity": 96,
              "position": 7.75,
              "duration": 0.22916666666666666
            },
            {
              "pitch": 64,
              "velocity": 96,
              "position": 8,
              "duration": 0.75
            },
            {
              "pitch": 48,
              "velocity": 77,
              "position": 8,
              "duration": 0.875
            },
            {
              "pitch": 70,
              "velocity": 85,
              "position": 9.25,
              "duration": 0.5
            },
            {
              "pitch": 48,
              "velocity": 70,
              "position": 9,
              "duration": 0.875
            },
            {
              "pitch": 58,
              "velocity": 64,
              "position": 8.5,
              "duration": 1.625
            },
            {
              "pitch": 55,
              "velocity": 85,
              "position": 8.75,
              "duration": 1.625
            },
            {
              "pitch": 64,
              "velocity": 96,
              "position": 9.75,
              "duration": 0.875
            },
            {
              "pitch": 48,
              "velocity": 64,
              "position": 10,
              "duration": 0.875
            },
            {
              "pitch": 58,
              "velocity": 85,
              "position": 10.25,
              "duration": 0.875
            },
            {
              "pitch": 55,
              "velocity": 85,
              "position": 10.5,
              "duration": 0.875
            },
            {
              "pitch": 70,
              "velocity": 96,
              "position": 10.75,
              "duration": 0.875
            },
            {
              "pitch": 48,
              "velocity": 64,
              "position": 11,
              "duration": 0.875
            },
            {
              "pitch": 58,
              "velocity": 92,
              "position": 11.25,
              "duration": 0.7291666666666666
            },
            {
              "pitch": 55,
              "velocity": 92,
              "position": 11.5,
              "duration": 0.4791666666666667
            },
            {
              "pitch": 70,
              "velocity": 96,
              "position": 11.75,
              "duration": 0.22916666666666666
            },
            {
              "pitch": 64,
              "velocity": 92,
              "position": 12,
              "duration": 0.75
            },
            {
              "pitch": 48,
              "velocity": 85,
              "position": 12,
              "duration": 0.875
            },
            {
              "pitch": 70,
              "velocity": 85,
              "position": 13.25,
              "duration": 0.5
            },
            {
              "pitch": 48,
              "velocity": 77,
              "position": 13,
              "duration": 0.875
            },
            {
              "pitch": 58,
              "velocity": 64,
              "position": 12.5,
              "duration": 1.625
            },
            {
              "pitch": 55,
              "velocity": 92,
              "position": 12.75,
              "duration": 1.625
            },
            {
              "pitch": 64,
              "velocity": 96,
              "position": 13.75,
              "duration": 0.875
            },
            {
              "pitch": 70,
              "velocity": 96,
              "position": 14.75,
              "duration": 0.25
            },
            {
              "pitch": 64,
              "velocity": 85,
              "position": 15,
              "duration": 0.25
            },
            {
              "pitch": 58,
              "velocity": 85,
              "position": 14.25,
              "duration": 1.125
            },
            {
              "pitch": 55,
              "velocity": 92,
              "position": 14.5,
              "duration": 1.125
            },
            {
              "pitch": 48,
              "velocity": 85,
              "position": 14,
              "duration": 1.875
            },
            {
              "pitch": 52,
              "velocity": 96,
              "position": 15.25,
              "duration": 0.7291666666666666
            },
            {
              "pitch": 58,
              "velocity": 85,
              "position": 15.5,
              "duration": 0.4791666666666667
            },
            {
              "pitch": 55,
              "velocity": 77,
              "position": 15.75,
              "duration": 0.22916666666666666
            },
            {
              "pitch": 64,
              "velocity": 96,
              "position": 16,
              "duration": 0.75
            },
            {
              "pitch": 48,
              "velocity": 77,
              "position": 16,
              "duration": 0.875
            },
            {
              "pitch": 70,
              "velocity": 85,
              "position": 17.25,
              "duration": 0.5
            },
            {
              "pitch": 48,
              "velocity": 70,
              "position": 17,
              "duration": 0.875
            },
            {
              "pitch": 58,
              "velocity": 64,
              "position": 16.5,
              "duration": 1.625
            },
            {
              "pitch": 55,
              "velocity": 85,
              "position": 16.75,
              "duration": 1.625
            },
            {
              "pitch": 64,
              "velocity": 96,
              "position": 17.75,
              "duration": 0.875
            },
            {
              "pitch": 48,
              "velocity": 64,
              "position": 18,
              "duration": 0.875
            },
            {
              "pitch": 58,
              "velocity": 85,
              "position": 18.25,
              "duration": 0.875
            },
            {
              "pitch": 55,
              "velocity": 85,
              "position": 18.5,
              "duration": 0.875
            },
            {
              "pitch": 70,
              "velocity": 96,
              "position": 18.75,
              "duration": 0.875
            },
            {
              "pitch": 48,
              "velocity": 64,
              "position": 19,
              "duration": 0.875
            },
            {
              "pitch": 58,
              "velocity": 92,
              "position": 19.25,
              "duration": 0.7291666666666666
            },
            {
              "pitch": 55,
              "velocity": 92,
              "position": 19.5,
              "duration": 0.4791666666666667
            },
            {
              "pitch": 70,
              "velocity": 96,
              "position": 19.75,
              "duration": 0.22916666666666666
            },
            {
              "pitch": 64,
              "velocity": 96,
              "position": 20,
              "duration": 0.75
            },
            {
              "pitch": 48,
              "velocity": 77,
              "position": 20,
              "duration": 0.875
            },
            {
              "pitch": 70,
              "velocity": 85,
              "position": 21.25,
              "duration": 0.5
            },
            {
              "pitch": 48,
              "velocity": 70,
              "position": 21,
              "duration": 0.875
            },
            {
              "pitch": 58,
              "velocity": 64,
              "position": 20.5,
              "duration": 1.625
            },
            {
              "pitch": 55,
              "velocity": 85,
              "position": 20.75,
              "duration": 1.625
            },
            {
              "pitch": 64,
              "velocity": 96,
              "position": 21.75,
              "duration": 0.875
            },
            {
              "pitch": 48,
              "velocity": 64,
              "position": 22,
              "duration": 0.875
            },
            {
              "pitch": 58,
              "velocity": 85,
              "position": 22.25,
              "duration": 0.875
            },
            {
              "pitch": 55,
              "velocity": 85,
              "position": 22.5,
              "duration": 0.875
            },
            {
              "pitch": 70,
              "velocity": 96,
              "position": 22.75,
              "duration": 0.875
            },
            {
              "pitch": 48,
              "velocity": 64,
              "position": 23,
              "duration": 0.875
            },
            {
              "pitch": 58,
              "velocity": 92,
              "position": 23.25,
              "duration": 0.7291666666666666
            },
            {
              "pitch": 55,
              "velocity": 92,
              "position": 23.5,
              "duration": 0.4791666666666667
            },
            {
              "pitch": 70,
              "velocity": 96,
              "position": 23.75,
              "duration": 0.22916666666666666
            },
            {
              "pitch": 64,
              "velocity": 96,
              "position": 24,
              "duration": 0.75
            },
            {
              "pitch": 48,
              "velocity": 77,
              "position": 24,
              "duration": 0.875
            },
            {
              "pitch": 70,
              "velocity": 85,
              "position": 25.25,
              "duration": 0.5
            },
            {
              "pitch": 48,
              "velocity": 70,
              "position": 25,
              "duration": 0.875
            },
            {
              "pitch": 58,
              "velocity": 64,
              "position": 24.5,
              "duration": 1.625
            },
            {
              "pitch": 55,
              "velocity": 85,
              "position": 24.75,
              "duration": 1.625
            },
            {
              "pitch": 64,
              "velocity": 96,
              "position": 25.75,
              "duration": 0.875
            },
            {
              "pitch": 48,
              "velocity": 64,
              "position": 26,
              "duration": 0.875
            },
            {
              "pitch": 58,
              "velocity": 85,
              "position": 26.25,
              "duration": 0.875
            },
            {
              "pitch": 55,
              "velocity": 85,
              "position": 26.5,
              "duration": 0.875
            },
            {
              "pitch": 70,
              "velocity": 96,
              "position": 26.75,
              "duration": 0.875
            },
            {
              "pitch": 48,
              "velocity": 64,
              "position": 27,
              "duration": 0.875
            },
            {
              "pitch": 58,
              "velocity": 92,
              "position": 27.25,
              "duration": 0.7291666666666666
            },
            {
              "pitch": 55,
              "velocity": 92,
              "position": 27.5,
              "duration": 0.4791666666666667
            },
            {
              "pitch": 70,
              "velocity": 96,
              "position": 27.75,
              "duration": 0.22916666666666666
            },
            {
              "pitch": 64,
              "velocity": 85,
              "position": 28,
              "duration": 0.75
            },
            {
              "pitch": 48,
              "velocity": 85,
              "position": 28,
              "duration": 0.875
            },
            {
              "pitch": 70,
              "velocity": 85,
              "position": 29.25,
              "duration": 0.5
            },
            {
              "pitch": 48,
              "velocity": 85,
              "position": 29,
              "duration": 0.875
            },
            {
              "pitch": 58,
              "velocity": 77,
              "position": 28.5,
              "duration": 1.625
            },
            {
              "pitch": 55,
              "velocity": 85,
              "position": 28.75,
              "duration": 1.625
            },
            {
              "pitch": 64,
              "velocity": 96,
              "position": 29.75,
              "duration": 0.9791666666666666
            },
            {
              "pitch": 48,
              "velocity": 96,
              "position": 30,
              "duration": 0.875
            },
            {
              "pitch": 64,
              "velocity": 85,
              "position": 30.75,
              "duration": 0.25
            },
            {
              "pitch": 58,
              "velocity": 70,
              "position": 30.25,
              "duration": 1
            },
            {
              "pitch": 55,
              "velocity": 92,
              "position": 30.5,
              "duration": 0.875
            },
            {
              "pitch": 70,
              "velocity": 96,
              "position": 31,
              "duration": 0.75
            },
            {
              "pitch": 48,
              "velocity": 85,
              "position": 31,
              "duration": 0.875
            },
            {
              "pitch": 64,
              "velocity": 77,
              "position": 31.25,
              "duration": 0.7291666666666666
            },
            {
              "pitch": 55,
              "velocity": 92,
              "position": 31.5,
              "duration": 0.4791666666666667
            },
            {
              "pitch": 58,
              "velocity": 92,
              "position": 31.75,
              "duration": 0.22916666666666666
            }
          ]
        },
        "8": {
          "ctab": {
            "srcChannel": 8,
            "name": "Std.Kit1",
            "accType": "RHYTHM",
            "editable": false,
            "mutedNotes": [],
            "mutedChords": [],
            "autoStart": true,
            "sourceChordNote": 0,
            "sourceChordType": "Maj7",
            "ctb2Low": null,
            "ctb2Main": {
              "ntr": "ROOT_FIXED",
              "ntt": "BYPASS",
              "bassOn": false,
              "chordRootUpperLimit": 6,
              "noteLowLimit": 0,
              "noteHighLimit": 127,
              "rtr": "PITCH_SHIFT"
            },
            "ctb2High": null
          },
          "notes": [
            {
              "pitch": 35,
              "velocity": 59,
              "position": 0,
              "duration": 0.125
            },
            {
              "pitch": 44,
              "velocity": 23,
              "position": 1,
              "duration": 0.125
            },
            {
              "pitch": 35,
              "velocity": 34,
              "position": 1.5,
              "duration": 0.125
            },
            {
              "pitch": 35,
              "velocity": 59,
              "position": 2,
              "duration": 0.125
            },
            {
              "pitch": 44,
              "velocity": 23,
              "position": 3,
              "duration": 0.125
            },
            {
              "pitch": 38,
              "velocity": 69,
              "position": 3,
              "duration": 0.125
            },
            {
              "pitch": 35,
              "velocity": 59,
              "position": 4,
              "duration": 0.125
            },
            {
              "pitch": 44,
              "velocity": 23,
              "position": 5,
              "duration": 0.125
            },
            {
              "pitch": 35,
              "velocity": 34,
              "position": 5.5,
              "duration": 0.125
            },
            {
              "pitch": 35,
              "velocity": 59,
              "position": 6,
              "duration": 0.125
            },
            {
              "pitch": 44,
              "velocity": 23,
              "position": 7,
              "duration": 0.125
            },
            {
              "pitch": 38,
              "velocity": 69,
              "position": 7,
              "duration": 0.125
            },
            {
              "pitch": 35,
              "velocity": 59,
              "position": 8,
              "duration": 0.125
            },
            {
              "pitch": 44,
              "velocity": 23,
              "position": 9,
              "duration": 0.125
            },
            {
              "pitch": 35,
              "velocity": 34,
              "position": 9.5,
              "duration": 0.125
            },
            {
              "pitch": 35,
              "velocity": 59,
              "position": 10,
              "duration": 0.125
            },
            {
              "pitch": 44,
              "velocity": 23,
              "position": 11,
              "duration": 0.125
            },
            {
              "pitch": 38,
              "velocity": 69,
              "position": 11,
              "duration": 0.125
            },
            {
              "pitch": 35,
              "velocity": 59,
              "position": 12,
              "duration": 0.125
            },
            {
              "pitch": 44,
              "velocity": 23,
              "position": 13,
              "duration": 0.125
            },
            {
              "pitch": 35,
              "velocity": 34,
              "position": 13.5,
              "duration": 0.125
            },
            {
              "pitch": 35,
              "velocity": 59,
              "position": 14,
              "duration": 0.125
            },
            {
              "pitch": 44,
              "velocity": 23,
              "position": 15,
              "duration": 0.125
            },
            {
              "pitch": 38,
              "velocity": 69,
              "position": 15,
              "duration": 0.125
            },
            {
              "pitch": 35,
              "velocity": 59,
              "position": 16,
              "duration": 0.125
            },
            {
              "pitch": 44,
              "velocity": 23,
              "position": 17,
              "duration": 0.125
            },
            {
              "pitch": 35,
              "velocity": 34,
              "position": 17.5,
              "duration": 0.125
            },
            {
              "pitch": 35,
              "velocity": 59,
              "position": 18,
              "duration": 0.125
            },
            {
              "pitch": 44,
              "velocity": 23,
              "position": 19,
              "duration": 0.125
            },
            {
              "pitch": 38,
              "velocity": 69,
              "position": 19,
              "duration": 0.125
            },
            {
              "pitch": 35,
              "velocity": 59,
              "position": 20,
              "duration": 0.125
            },
            {
              "pitch": 44,
              "velocity": 23,
              "position": 21,
              "duration": 0.125
            },
            {
              "pitch": 35,
              "velocity": 34,
              "position": 21.5,
              "duration": 0.125
            },
            {
              "pitch": 35,
              "velocity": 59,
              "position": 22,
              "duration": 0.125
            },
            {
              "pitch": 44,
              "velocity": 23,
              "position": 23,
              "duration": 0.125
            },
            {
              "pitch": 38,
              "velocity": 69,
              "position": 23,
              "duration": 0.125
            },
            {
              "pitch": 35,
              "velocity": 59,
              "position": 24,
              "duration": 0.125
            },
            {
              "pitch": 44,
              "velocity": 23,
              "position": 25,
              "duration": 0.125
            },
            {
              "pitch": 35,
              "velocity": 34,
              "position": 25.5,
              "duration": 0.125
            },
            {
              "pitch": 35,
              "velocity": 59,
              "position": 26,
              "duration": 0.125
            },
            {
              "pitch": 44,
              "velocity": 23,
              "position": 27,
              "duration": 0.125
            },
            {
              "pitch": 38,
              "velocity": 69,
              "position": 27,
              "duration": 0.125
            },
            {
              "pitch": 35,
              "velocity": 59,
              "position": 28,
              "duration": 0.125
            },
            {
              "pitch": 44,
              "velocity": 23,
              "position": 29,
              "duration": 0.125
            },
            {
              "pitch": 35,
              "velocity": 34,
              "position": 29.5,
              "duration": 0.125
            },
            {
              "pitch": 35,
              "velocity": 59,
              "position": 30,
              "duration": 0.125
            },
            {
              "pitch": 44,
              "velocity": 23,
              "position": 31,
              "duration": 0.125
            },
            {
              "pitch": 38,
              "velocity": 69,
              "position": 31,
              "duration": 0.125
            }
          ]
        },
        "10": {
          "ctab": {
            "srcChannel": 10,
            "name": "Std.Kit1",
            "accType": "SUBRHYTHM",
            "editable": false,
            "mutedNotes": [],
            "mutedChords": [],
            "autoStart": true,
            "sourceChordNote": 0,
            "sourceChordType": "Maj7",
            "ctb2Low": null,
            "ctb2Main": {
              "ntr": "ROOT_FIXED",
              "ntt": "BYPASS",
              "bassOn": false,
              "chordRootUpperLimit": 6,
              "noteLowLimit": 0,
              "noteHighLimit": 127,
              "rtr": "PITCH_SHIFT"
            },
            "ctb2High": null
          },
          "notes": [
            {
              "pitch": 69,
              "velocity": 49,
              "position": 0.5,
              "duration": 0.125
            },
            {
              "pitch": 81,
              "velocity": 21,
              "position": 1,
              "duration": 0.125
            },
            {
              "pitch": 69,
              "velocity": 74,
              "position": 1.5,
              "duration": 0.125
            },
            {
              "pitch": 69,
              "velocity": 49,
              "position": 2.5,
              "duration": 0.125
            },
            {
              "pitch": 54,
              "velocity": 42,
              "position": 3,
              "duration": 0.125
            },
            {
              "pitch": 69,
              "velocity": 74,
              "position": 3.5,
              "duration": 0.125
            },
            {
              "pitch": 62,
              "velocity": 95,
              "position": 3.5,
              "duration": 0.125
            },
            {
              "pitch": 69,
              "velocity": 49,
              "position": 4.5,
              "duration": 0.125
            },
            {
              "pitch": 81,
              "velocity": 17,
              "position": 5,
              "duration": 0.125
            },
            {
              "pitch": 69,
              "velocity": 74,
              "position": 5.5,
              "duration": 0.125
            },
            {
              "pitch": 69,
              "velocity": 49,
              "position": 6.5,
              "duration": 0.125
            },
            {
              "pitch": 54,
              "velocity": 42,
              "position": 7,
              "duration": 0.125
            },
            {
              "pitch": 64,
              "velocity": 48,
              "position": 7,
              "duration": 0.125
            },
            {
              "pitch": 69,
              "velocity": 74,
              "position": 7.5,
              "duration": 0.125
            },
            {
              "pitch": 63,
              "velocity": 83,
              "position": 7.5,
              "duration": 0.125
            },
            {
              "pitch": 69,
              "velocity": 39,
              "position": 7.75,
              "duration": 0.125
            },
            {
              "pitch": 69,
              "velocity": 49,
              "position": 8.5,
              "duration": 0.125
            },
            {
              "pitch": 81,
              "velocity": 21,
              "position": 9,
              "duration": 0.125
            },
            {
              "pitch": 69,
              "velocity": 74,
              "position": 9.5,
              "duration": 0.125
            },
            {
              "pitch": 69,
              "velocity": 49,
              "position": 10.5,
              "duration": 0.125
            },
            {
              "pitch": 54,
              "velocity": 42,
              "position": 11,
              "duration": 0.125
            },
            {
              "pitch": 69,
              "velocity": 74,
              "position": 11.5,
              "duration": 0.125
            },
            {
              "pitch": 62,
              "velocity": 95,
              "position": 11.5,
              "duration": 0.125
            },
            {
              "pitch": 69,
              "velocity": 49,
              "position": 12.5,
              "duration": 0.125
            },
            {
              "pitch": 70,
              "velocity": 49,
              "position": 13,
              "duration": 0.125
            },
            {
              "pitch": 69,
              "velocity": 74,
              "position": 13.5,
              "duration": 0.125
            },
            {
              "pitch": 69,
              "velocity": 49,
              "position": 14.5,
              "duration": 0.125
            },
            {
              "pitch": 54,
              "velocity": 42,
              "position": 15,
              "duration": 0.125
            },
            {
              "pitch": 64,
              "velocity": 48,
              "position": 15,
              "duration": 0.125
            },
            {
              "pitch": 69,
              "velocity": 74,
              "position": 15.5,
              "duration": 0.125
            },
            {
              "pitch": 63,
              "velocity": 83,
              "position": 15.5,
              "duration": 0.125
            },
            {
              "pitch": 69,
              "velocity": 39,
              "position": 15.75,
              "duration": 0.125
            },
            {
              "pitch": 69,
              "velocity": 49,
              "position": 16.5,
              "duration": 0.125
            },
            {
              "pitch": 81,
              "velocity": 21,
              "position": 17,
              "duration": 0.125
            },
            {
              "pitch": 69,
              "velocity": 74,
              "position": 17.5,
              "duration": 0.125
            },
            {
              "pitch": 69,
              "velocity": 49,
              "position": 18.5,
              "duration": 0.125
            },
            {
              "pitch": 54,
              "velocity": 42,
              "position": 19,
              "duration": 0.125
            },
            {
              "pitch": 69,
              "velocity": 74,
              "position": 19.5,
              "duration": 0.125
            },
            {
              "pitch": 62,
              "velocity": 95,
              "position": 19.5,
              "duration": 0.125
            },
            {
              "pitch": 69,
              "velocity": 49,
              "position": 20.5,
              "duration": 0.125
            },
            {
              "pitch": 81,
              "velocity": 17,
              "position": 21,
              "duration": 0.125
            },
            {
              "pitch": 69,
              "velocity": 74,
              "position": 21.5,
              "duration": 0.125
            },
            {
              "pitch": 69,
              "velocity": 49,
              "position": 22.5,
              "duration": 0.125
            },
            {
              "pitch": 54,
              "velocity": 42,
              "position": 23,
              "duration": 0.125
            },
            {
              "pitch": 64,
              "velocity": 48,
              "position": 23,
              "duration": 0.125
            },
            {
              "pitch": 69,
              "velocity": 74,
              "position": 23.5,
              "duration": 0.125
            },
            {
              "pitch": 63,
              "velocity": 83,
              "position": 23.5,
              "duration": 0.125
            },
            {
              "pitch": 69,
              "velocity": 39,
              "position": 23.75,
              "duration": 0.125
            },
            {
              "pitch": 69,
              "velocity": 49,
              "position": 24.5,
              "duration": 0.125
            },
            {
              "pitch": 81,
              "velocity": 21,
              "position": 25,
              "duration": 0.125
            },
            {
              "pitch": 69,
              "velocity": 74,
              "position": 25.5,
              "duration": 0.125
            },
            {
              "pitch": 69,
              "velocity": 49,
              "position": 26.5,
              "duration": 0.125
            },
            {
              "pitch": 54,
              "velocity": 42,
              "position": 27,
              "duration": 0.125
            },
            {
              "pitch": 69,
              "velocity": 74,
              "position": 27.5,
              "duration": 0.125
            },
            {
              "pitch": 62,
              "velocity": 95,
              "position": 27.5,
              "duration": 0.125
            },
            {
              "pitch": 69,
              "velocity": 49,
              "position": 28.5,
              "duration": 0.125
            },
            {
              "pitch": 70,
              "velocity": 49,
              "position": 29,
              "duration": 0.125
            },
            {
              "pitch": 69,
              "velocity": 74,
              "position": 29.5,
              "duration": 0.125
            },
            {
              "pitch": 69,
              "velocity": 49,
              "position": 30.5,
              "duration": 0.125
            },
            {
              "pitch": 54,
              "velocity": 42,
              "position": 31,
              "duration": 0.125
            },
            {
              "pitch": 64,
              "velocity": 48,
              "position": 31,
              "duration": 0.125
            },
            {
              "pitch": 69,
              "velocity": 74,
              "position": 31.5,
              "duration": 0.125
            },
            {
              "pitch": 63,
              "velocity": 83,
              "position": 31.5,
              "duration": 0.125
            },
            {
              "pitch": 69,
              "velocity": 39,
              "position": 31.75,
              "duration": 0.125
            }
          ]
        },
        "12": {
          "ctab": {
            "srcChannel": 12,
            "name": "Fretless",
            "accType": "BASS",
            "editable": false,
            "mutedNotes": [],
            "mutedChords": [],
            "autoStart": false,
            "sourceChordNote": 0,
            "sourceChordType": "Maj7",
            "ctb2Low": null,
            "ctb2Main": {
              "ntr": "ROOT_TRANSPOSITION",
              "ntt": "MELODY",
              "bassOn": true,
              "chordRootUpperLimit": 3,
              "noteLowLimit": 28,
              "noteHighLimit": 54,
              "rtr": "PITCH_SHIFT_TO_ROOT"
            },
            "ctb2High": null
          },
          "notes": [
            {
              "pitch": 36,
              "velocity": 106,
              "position": 0,
              "duration": 7.4375
            },
            {
              "pitch": 38,
              "velocity": 76,
              "position": 7.5,
              "duration": 0.4166666666666667
            },
            {
              "pitch": 36,
              "velocity": 106,
              "position": 8,
              "duration": 6.958333333333333
            },
            {
              "pitch": 43,
              "velocity": 96,
              "position": 15,
              "duration": 0.9791666666666666
            },
            {
              "pitch": 36,
              "velocity": 106,
              "position": 16,
              "duration": 7.4375
            },
            {
              "pitch": 38,
              "velocity": 76,
              "position": 23.5,
              "duration": 0.4166666666666667
            },
            {
              "pitch": 36,
              "velocity": 106,
              "position": 24,
              "duration": 6.958333333333333
            },
            {
              "pitch": 43,
              "velocity": 96,
              "position": 31,
              "duration": 0.9791666666666666
            }
          ]
        },
        "15": {
          "ctab": {
            "srcChannel": 15,
            "name": "SteelGtr",
            "accType": "CHORD1",
            "editable": false,
            "mutedNotes": [],
            "mutedChords": [
              "7aug",
              "Maj7aug",
              "7(#9)",
              "7(b13)",
              "7(b9)",
              "7(13)",
              "7#11",
              "7(9)",
              "7b5",
              "7sus4",
              "7th"
            ],
            "autoStart": false,
            "sourceChordNote": 0,
            "sourceChordType": "Maj7",
            "ctb2Low": null,
            "ctb2Main": {
              "ntr": "ROOT_FIXED",
              "ntt": "CHORD",
              "bassOn": false,
              "chordRootUpperLimit": 6,
              "noteLowLimit": 0,
              "noteHighLimit": 127,
              "rtr": "PITCH_SHIFT"
            },
            "ctb2High": null
          },
          "notes": [
            {
              "pitch": 55,
              "velocity": 85,
              "position": 0.5,
              "duration": 0.625
            },
            {
              "pitch": 52,
              "velocity": 92,
              "position": 0.75,
              "duration": 0.5
            },
            {
              "pitch": 59,
              "velocity": 85,
              "position": 0.25,
              "duration": 1.625
            },
            {
              "pitch": 55,
              "velocity": 96,
              "position": 1.25,
              "duration": 1.375
            },
            {
              "pitch": 59,
              "velocity": 92,
              "position": 2,
              "duration": 1.375
            },
            {
              "pitch": 55,
              "velocity": 96,
              "position": 2.75,
              "duration": 2.375
            },
            {
              "pitch": 52,
              "velocity": 96,
              "position": 4.5,
              "duration": 0.75
            },
            {
              "pitch": 59,
              "velocity": 85,
              "position": 3.5,
              "duration": 2.375
            },
            {
              "pitch": 64,
              "velocity": 98,
              "position": 0,
              "duration": 6.625
            },
            {
              "pitch": 59,
              "velocity": 77,
              "position": 6,
              "duration": 1.375
            },
            {
              "pitch": 55,
              "velocity": 98,
              "position": 5.25,
              "duration": 2.7291666666666665
            },
            {
              "pitch": 64,
              "velocity": 97,
              "position": 6.75,
              "duration": 1.2291666666666667
            },
            {
              "pitch": 59,
              "velocity": 77,
              "position": 7.5,
              "duration": 0.4791666666666667
            },
            {
              "pitch": 52,
              "velocity": 98,
              "position": 8,
              "duration": 0.75
            },
            {
              "pitch": 55,
              "velocity": 92,
              "position": 8.25,
              "duration": 1.125
            },
            {
              "pitch": 59,
              "velocity": 92,
              "position": 8.5,
              "duration": 1.625
            },
            {
              "pitch": 55,
              "velocity": 96,
              "position": 9.5,
              "duration": 1.375
            },
            {
              "pitch": 64,
              "velocity": 98,
              "position": 8.75,
              "duration": 2.9791666666666665
            },
            {
              "pitch": 59,
              "velocity": 98,
              "position": 10.25,
              "duration": 2.125
            },
            {
              "pitch": 55,
              "velocity": 96,
              "position": 11,
              "duration": 2.125
            },
            {
              "pitch": 55,
              "velocity": 98,
              "position": 13.25,
              "duration": 1.375
            },
            {
              "pitch": 52,
              "velocity": 96,
              "position": 14,
              "duration": 0.75
            },
            {
              "pitch": 59,
              "velocity": 97,
              "position": 12.5,
              "duration": 2.875
            },
            {
              "pitch": 64,
              "velocity": 98,
              "position": 11.75,
              "duration": 4.229166666666667
            },
            {
              "pitch": 55,
              "velocity": 100,
              "position": 14.75,
              "duration": 1.2291666666666667
            },
            {
              "pitch": 59,
              "velocity": 92,
              "position": 15.5,
              "duration": 0.4791666666666667
            },
            {
              "pitch": 55,
              "velocity": 85,
              "position": 16.5,
              "duration": 0.625
            },
            {
              "pitch": 52,
              "velocity": 92,
              "position": 16.75,
              "duration": 0.5
            },
            {
              "pitch": 59,
              "velocity": 85,
              "position": 16.25,
              "duration": 1.625
            },
            {
              "pitch": 55,
              "velocity": 96,
              "position": 17.25,
              "duration": 1.375
            },
            {
              "pitch": 59,
              "velocity": 92,
              "position": 18,
              "duration": 1.375
            },
            {
              "pitch": 55,
              "velocity": 96,
              "position": 18.75,
              "duration": 2.375
            },
            {
              "pitch": 52,
              "velocity": 96,
              "position": 20.5,
              "duration": 0.75
            },
            {
              "pitch": 59,
              "velocity": 85,
              "position": 19.5,
              "duration": 2.375
            },
            {
              "pitch": 64,
              "velocity": 98,
              "position": 16,
              "duration": 6.625
            },
            {
              "pitch": 59,
              "velocity": 77,
              "position": 22,
              "duration": 1.375
            },
            {
              "pitch": 55,
              "velocity": 98,
              "position": 21.25,
              "duration": 2.7291666666666665
            },
            {
              "pitch": 64,
              "velocity": 97,
              "position": 22.75,
              "duration": 1.2291666666666667
            },
            {
              "pitch": 59,
              "velocity": 77,
              "position": 23.5,
              "duration": 0.4791666666666667
            },
            {
              "pitch": 52,
              "velocity": 98,
              "position": 24,
              "duration": 0.75
            },
            {
              "pitch": 55,
              "velocity": 92,
              "position": 24.25,
              "duration": 1.125
            },
            {
              "pitch": 59,
              "velocity": 92,
              "position": 24.5,
              "duration": 1.625
            },
            {
              "pitch": 55,
              "velocity": 96,
              "position": 25.5,
              "duration": 1.375
            },
            {
              "pitch": 64,
              "velocity": 98,
              "position": 24.75,
              "duration": 2.9791666666666665
            },
            {
              "pitch": 59,
              "velocity": 98,
              "position": 26.25,
              "duration": 2.125
            },
            {
              "pitch": 55,
              "velocity": 96,
              "position": 27,
              "duration": 2.125
            },
            {
              "pitch": 55,
              "velocity": 98,
              "position": 29.25,
              "duration": 1.375
            },
            {
              "pitch": 52,
              "velocity": 96,
              "position": 30,
              "duration": 0.75
            },
            {
              "pitch": 59,
              "velocity": 97,
              "position": 28.5,
              "duration": 2.875
            },
            {
              "pitch": 64,
              "velocity": 98,
              "position": 27.75,
              "duration": 4.229166666666667
            },
            {
              "pitch": 55,
              "velocity": 100,
              "position": 30.75,
              "duration": 1.2291666666666667
            },
            {
              "pitch": 59,
              "velocity": 92,
              "position": 31.5,
              "duration": 0.4791666666666667
            }
          ]
        }
      }
    },
    "Main_B": {
      "type": "Main_B",
      "sizeInBeats": 32,
      "channels": {
        "0": {
          "ctab": {
            "srcChannel": 0,
            "name": "SteelGtr",
            "accType": "CHORD1",
            "editable": false,
            "mutedNotes": [],
            "mutedChords": [
              "1+2+5",
              "sus4",
              "1+5",
              "1+8",
              "dim7",
              "dim",
              "minMaj7(9)",
              "minMaj7",
              "min7(11)",
              "min7(9)",
              "min(9)",
              "m7b5",
              "min7",
              "min6",
              "min",
              "aug",
              "Maj6(9)",
              "Maj7(9)",
              "Maj(9)",
              "Maj7#11",
              "Maj7",
              "Maj6",
              "Maj"
            ],
            "autoStart": false,
            "sourceChordNote": 0,
            "sourceChordType": "7th",
            "ctb2Low": null,
            "ctb2Main": {
              "ntr": "ROOT_FIXED",
              "ntt": "CHORD",
              "bassOn": false,
              "chordRootUpperLimit": 6,
              "noteLowLimit": 0,
              "noteHighLimit": 127,
              "rtr": "PITCH_SHIFT"
            },
            "ctb2High": null
          },
          "notes": [
            {
              "pitch": 64,
              "velocity": 98,
              "position": 0,
              "duration": 0.625
            },
            {
              "pitch": 48,
              "velocity": 100,
              "position": 0,
              "duration": 0.875
            },
            {
              "pitch": 64,
              "velocity": 77,
              "position": 0.75,
              "duration": 0.25
            },
            {
              "pitch": 58,
              "velocity": 70,
              "position": 0.25,
              "duration": 0.875
            },
            {
              "pitch": 55,
              "velocity": 77,
              "position": 0.5,
              "duration": 0.875
            },
            {
              "pitch": 70,
              "velocity": 96,
              "position": 1,
              "duration": 0.75
            },
            {
              "pitch": 52,
              "velocity": 85,
              "position": 1,
              "duration": 0.875
            },
            {
              "pitch": 58,
              "velocity": 77,
              "position": 1.25,
              "duration": 0.875
            },
            {
              "pitch": 55,
              "velocity": 92,
              "position": 1.5,
              "duration": 0.875
            },
            {
              "pitch": 64,
              "velocity": 96,
              "position": 1.75,
              "duration": 0.875
            },
            {
              "pitch": 48,
              "velocity": 97,
              "position": 2,
              "duration": 0.875
            },
            {
              "pitch": 64,
              "velocity": 77,
              "position": 2.75,
              "duration": 0.25
            },
            {
              "pitch": 58,
              "velocity": 77,
              "position": 2.25,
              "duration": 0.875
            },
            {
              "pitch": 55,
              "velocity": 92,
              "position": 2.5,
              "duration": 0.875
            },
            {
              "pitch": 70,
              "velocity": 92,
              "position": 3,
              "duration": 0.625
            },
            {
              "pitch": 52,
              "velocity": 96,
              "position": 3,
              "duration": 0.875
            },
            {
              "pitch": 58,
              "velocity": 85,
              "position": 3.25,
              "duration": 0.75
            },
            {
              "pitch": 55,
              "velocity": 92,
              "position": 3.5,
              "duration": 0.5
            },
            {
              "pitch": 70,
              "velocity": 96,
              "position": 3.75,
              "duration": 0.25
            },
            {
              "pitch": 64,
              "velocity": 96,
              "position": 4,
              "duration": 0.625
            },
            {
              "pitch": 48,
              "velocity": 96,
              "position": 4,
              "duration": 0.875
            },
            {
              "pitch": 64,
              "velocity": 85,
              "position": 4.75,
              "duration": 0.25
            },
            {
              "pitch": 58,
              "velocity": 77,
              "position": 4.25,
              "duration": 0.875
            },
            {
              "pitch": 55,
              "velocity": 85,
              "position": 4.5,
              "duration": 0.875
            },
            {
              "pitch": 70,
              "velocity": 96,
              "position": 5,
              "duration": 0.75
            },
            {
              "pitch": 52,
              "velocity": 96,
              "position": 5,
              "duration": 0.875
            },
            {
              "pitch": 58,
              "velocity": 58,
              "position": 5.25,
              "duration": 0.875
            },
            {
              "pitch": 55,
              "velocity": 96,
              "position": 5.5,
              "duration": 0.875
            },
            {
              "pitch": 64,
              "velocity": 96,
              "position": 5.75,
              "duration": 0.875
            },
            {
              "pitch": 48,
              "velocity": 96,
              "position": 6,
              "duration": 0.875
            },
            {
              "pitch": 64,
              "velocity": 77,
              "position": 6.75,
              "duration": 0.25
            },
            {
              "pitch": 70,
              "velocity": 96,
              "position": 7,
              "duration": 0.25
            },
            {
              "pitch": 55,
              "velocity": 96,
              "position": 6.5,
              "duration": 0.875
            },
            {
              "pitch": 58,
              "velocity": 85,
              "position": 6.25,
              "duration": 1.375
            },
            {
              "pitch": 52,
              "velocity": 96,
              "position": 7,
              "duration": 0.875
            },
            {
              "pitch": 64,
              "velocity": 92,
              "position": 7.25,
              "duration": 0.7291666666666666
            },
            {
              "pitch": 55,
              "velocity": 92,
              "position": 7.5,
              "duration": 0.4791666666666667
            },
            {
              "pitch": 58,
              "velocity": 96,
              "position": 7.75,
              "duration": 0.22916666666666666
            },
            {
              "pitch": 64,
              "velocity": 98,
              "position": 8,
              "duration": 0.625
            },
            {
              "pitch": 48,
              "velocity": 100,
              "position": 8,
              "duration": 0.875
            },
            {
              "pitch": 64,
              "velocity": 77,
              "position": 8.75,
              "duration": 0.25
            },
            {
              "pitch": 58,
              "velocity": 70,
              "position": 8.25,
              "duration": 0.875
            },
            {
              "pitch": 55,
              "velocity": 77,
              "position": 8.5,
              "duration": 0.875
            },
            {
              "pitch": 70,
              "velocity": 96,
              "position": 9,
              "duration": 0.75
            },
            {
              "pitch": 52,
              "velocity": 85,
              "position": 9,
              "duration": 0.875
            },
            {
              "pitch": 58,
              "velocity": 77,
              "position": 9.25,
              "duration": 0.875
            },
            {
              "pitch": 55,
              "velocity": 92,
              "position": 9.5,
              "duration": 0.875
            },
            {
              "pitch": 64,
              "velocity": 96,
              "position": 9.75,
              "duration": 0.875
            },
            {
              "pitch": 48,
              "velocity": 97,
              "position": 10,
              "duration": 0.875
            },
            {
              "pitch": 64,
              "velocity": 77,
              "position": 10.75,
              "duration": 0.25
            },
            {
              "pitch": 58,
              "velocity": 77,
              "position": 10.25,
              "duration": 0.875
            },
            {
              "pitch": 55,
              "velocity": 92,
              "position": 10.5,
              "duration": 0.875
            },
            {
              "pitch": 70,
              "velocity": 92,
              "position": 11,
              "duration": 0.625
            },
            {
              "pitch": 52,
              "velocity": 96,
              "position": 11,
              "duration": 0.875
            },
            {
              "pitch": 58,
              "velocity": 85,
              "position": 11.25,
              "duration": 0.75
            },
            {
              "pitch": 55,
              "velocity": 92,
              "position": 11.5,
              "duration": 0.5
            },
            {
              "pitch": 70,
              "velocity": 96,
              "position": 11.75,
              "duration": 0.25
            },
            {
              "pitch": 64,
              "velocity": 96,
              "position": 12,
              "duration": 0.625
            },
            {
              "pitch": 48,
              "velocity": 96,
              "position": 12,
              "duration": 0.875
            },
            {
              "pitch": 64,
              "velocity": 85,
              "position": 12.75,
              "duration": 0.25
            },
            {
              "pitch": 58,
              "velocity": 77,
              "position": 12.25,
              "duration": 0.875
            },
            {
              "pitch": 55,
              "velocity": 85,
              "position": 12.5,
              "duration": 0.875
            },
            {
              "pitch": 70,
              "velocity": 96,
              "position": 13,
              "duration": 0.75
            },
            {
              "pitch": 52,
              "velocity": 96,
              "position": 13,
              "duration": 0.875
            },
            {
              "pitch": 58,
              "velocity": 58,
              "position": 13.25,
              "duration": 0.875
            },
            {
              "pitch": 55,
              "velocity": 96,
              "position": 13.5,
              "duration": 0.875
            },
            {
              "pitch": 64,
              "velocity": 96,
              "position": 13.75,
              "duration": 0.875
            },
            {
              "pitch": 48,
              "velocity": 96,
              "position": 14,
              "duration": 0.875
            },
            {
              "pitch": 64,
              "velocity": 77,
              "position": 14.75,
              "duration": 0.25
            },
            {
              "pitch": 70,
              "velocity": 96,
              "position": 15,
              "duration": 0.25
            },
            {
              "pitch": 55,
              "velocity": 96,
              "position": 14.5,
              "duration": 0.875
            },
            {
              "pitch": 58,
              "velocity": 85,
              "position": 14.25,
              "duration": 1.375
            },
            {
              "pitch": 52,
              "velocity": 96,
              "position": 15,
              "duration": 0.875
            },
            {
              "pitch": 64,
              "velocity": 92,
              "position": 15.25,
              "duration": 0.7291666666666666
            },
            {
              "pitch": 55,
              "velocity": 92,
              "position": 15.5,
              "duration": 0.4791666666666667
            },
            {
              "pitch": 58,
              "velocity": 96,
              "position": 15.75,
              "duration": 0.22916666666666666
            },
            {
              "pitch": 64,
              "velocity": 98,
              "position": 16,
              "duration": 0.625
            },
            {
              "pitch": 48,
              "velocity": 100,
              "position": 16,
              "duration": 0.875
            },
            {
              "pitch": 64,
              "velocity": 77,
              "position": 16.75,
              "duration": 0.25
            },
            {
              "pitch": 58,
              "velocity": 70,
              "position": 16.25,
              "duration": 0.875
            },
            {
              "pitch": 55,
              "velocity": 77,
              "position": 16.5,
              "duration": 0.875
            },
            {
              "pitch": 70,
              "velocity": 96,
              "position": 17,
              "duration": 0.75
            },
            {
              "pitch": 52,
              "velocity": 85,
              "position": 17,
              "duration": 0.875
            },
            {
              "pitch": 58,
              "velocity": 77,
              "position": 17.25,
              "duration": 0.875
            },
            {
              "pitch": 55,
              "velocity": 92,
              "position": 17.5,
              "duration": 0.875
            },
            {
              "pitch": 64,
              "velocity": 96,
              "position": 17.75,
              "duration": 0.875
            },
            {
              "pitch": 48,
              "velocity": 97,
              "position": 18,
              "duration": 0.875
            },
            {
              "pitch": 64,
              "velocity": 77,
              "position": 18.75,
              "duration": 0.25
            },
            {
              "pitch": 58,
              "velocity": 77,
              "position": 18.25,
              "duration": 0.875
            },
            {
              "pitch": 55,
              "velocity": 92,
              "position": 18.5,
              "duration": 0.875
            },
            {
              "pitch": 70,
              "velocity": 92,
              "position": 19,
              "duration": 0.625
            },
            {
              "pitch": 52,
              "velocity": 96,
              "position": 19,
              "duration": 0.875
            },
            {
              "pitch": 58,
              "velocity": 85,
              "position": 19.25,
              "duration": 0.75
            },
            {
              "pitch": 55,
              "velocity": 92,
              "position": 19.5,
              "duration": 0.5
            },
            {
              "pitch": 70,
              "velocity": 96,
              "position": 19.75,
              "duration": 0.25
            },
            {
              "pitch": 64,
              "velocity": 96,
              "position": 20,
              "duration": 0.625
            },
            {
              "pitch": 48,
              "velocity": 96,
              "position": 20,
              "duration": 0.875
            },
            {
              "pitch": 64,
              "velocity": 85,
              "position": 20.75,
              "duration": 0.25
            },
            {
              "pitch": 58,
              "velocity": 77,
              "position": 20.25,
              "duration": 0.875
            },
            {
              "pitch": 55,
              "velocity": 85,
              "position": 20.5,
              "duration": 0.875
            },
            {
              "pitch": 70,
              "velocity": 96,
              "position": 21,
              "duration": 0.75
            },
            {
              "pitch": 52,
              "velocity": 96,
              "position": 21,
              "duration": 0.875
            },
            {
              "pitch": 58,
              "velocity": 58,
              "position": 21.25,
              "duration": 0.875
            },
            {
              "pitch": 55,
              "velocity": 96,
              "position": 21.5,
              "duration": 0.875
            },
            {
              "pitch": 64,
              "velocity": 96,
              "position": 21.75,
              "duration": 0.875
            },
            {
              "pitch": 48,
              "velocity": 96,
              "position": 22,
              "duration": 0.875
            },
            {
              "pitch": 64,
              "velocity": 77,
              "position": 22.75,
              "duration": 0.25
            },
            {
              "pitch": 70,
              "velocity": 96,
              "position": 23,
              "duration": 0.25
            },
            {
              "pitch": 55,
              "velocity": 96,
              "position": 22.5,
              "duration": 0.875
            },
            {
              "pitch": 58,
              "velocity": 85,
              "position": 22.25,
              "duration": 1.375
            },
            {
              "pitch": 52,
              "velocity": 96,
              "position": 23,
              "duration": 0.875
            },
            {
              "pitch": 64,
              "velocity": 92,
              "position": 23.25,
              "duration": 0.7291666666666666
            },
            {
              "pitch": 55,
              "velocity": 92,
              "position": 23.5,
              "duration": 0.4791666666666667
            },
            {
              "pitch": 58,
              "velocity": 96,
              "position": 23.75,
              "duration": 0.22916666666666666
            },
            {
              "pitch": 64,
              "velocity": 98,
              "position": 24,
              "duration": 0.625
            },
            {
              "pitch": 48,
              "velocity": 100,
              "position": 24,
              "duration": 0.875
            },
            {
              "pitch": 64,
              "velocity": 77,
              "position": 24.75,
              "duration": 0.25
            },
            {
              "pitch": 58,
              "velocity": 70,
              "position": 24.25,
              "duration": 0.875
            },
            {
              "pitch": 55,
              "velocity": 77,
              "position": 24.5,
              "duration": 0.875
            },
            {
              "pitch": 70,
              "velocity": 96,
              "position": 25,
              "duration": 0.75
            },
            {
              "pitch": 52,
              "velocity": 85,
              "position": 25,
              "duration": 0.875
            },
            {
              "pitch": 58,
              "velocity": 77,
              "position": 25.25,
              "duration": 0.875
            },
            {
              "pitch": 55,
              "velocity": 92,
              "position": 25.5,
              "duration": 0.875
            },
            {
              "pitch": 64,
              "velocity": 96,
              "position": 25.75,
              "duration": 0.875
            },
            {
              "pitch": 48,
              "velocity": 97,
              "position": 26,
              "duration": 0.875
            },
            {
              "pitch": 64,
              "velocity": 77,
              "position": 26.75,
              "duration": 0.25
            },
            {
              "pitch": 58,
              "velocity": 77,
              "position": 26.25,
              "duration": 0.875
            },
            {
              "pitch": 55,
              "velocity": 92,
              "position": 26.5,
              "duration": 0.875
            },
            {
              "pitch": 70,
              "velocity": 92,
              "position": 27,
              "duration": 0.625
            },
            {
              "pitch": 52,
              "velocity": 96,
              "position": 27,
              "duration": 0.875
            },
            {
              "pitch": 58,
              "velocity": 85,
              "position": 27.25,
              "duration": 0.75
            },
            {
              "pitch": 55,
              "velocity": 92,
              "position": 27.5,
              "duration": 0.5
            },
            {
              "pitch": 70,
              "velocity": 96,
              "position": 27.75,
              "duration": 0.25
            },
            {
              "pitch": 64,
              "velocity": 96,
              "position": 28,
              "duration": 0.625
            },
            {
              "pitch": 48,
              "velocity": 96,
              "position": 28,
              "duration": 0.875
            },
            {
              "pitch": 64,
              "velocity": 85,
              "position": 28.75,
              "duration": 0.25
            },
            {
              "pitch": 58,
              "velocity": 77,
              "position": 28.25,
              "duration": 0.875
            },
            {
              "pitch": 55,
              "velocity": 85,
              "position": 28.5,
              "duration": 0.875
            },
            {
              "pitch": 70,
              "velocity": 96,
              "position": 29,
              "duration": 0.75
            },
            {
              "pitch": 52,
              "velocity": 96,
              "position": 29,
              "duration": 0.875
            },
            {
              "pitch": 58,
              "velocity": 58,
              "position": 29.25,
              "duration": 0.875
            },
            {
              "pitch": 55,
              "velocity": 96,
              "position": 29.5,
              "duration": 0.875
            },
            {
              "pitch": 64,
              "velocity": 96,
              "position": 29.75,
              "duration": 0.875
            },
            {
              "pitch": 48,
              "velocity": 96,
              "position": 30,
              "duration": 0.875
            },
            {
              "pitch": 64,
              "velocity": 77,
              "position": 30.75,
              "duration": 0.25
            },
            {
              "pitch": 70,
              "velocity": 96,
              "position": 31,
              "duration": 0.25
            },
            {
              "pitch": 55,
              "velocity": 96,
              "position": 30.5,
              "duration": 0.875
            },
            {
              "pitch": 58,
              "velocity": 85,
              "position": 30.25,
              "duration": 1.375
            },
            {
              "pitch": 52,
              "velocity": 96,
              "position": 31,
              "duration": 0.875
            },
            {
              "pitch": 64,
              "velocity": 92,
              "position": 31.25,
              "duration": 0.7291666666666666
            },
            {
              "pitch": 55,
              "velocity": 92,
              "position": 31.5,
              "duration": 0.4791666666666667
            },
            {
              "pitch": 58,
              "velocity": 96,
              "position": 31.75,
              "duration": 0.22916666666666666
            }
          ]
        },
        "2": {
          "ctab": {
            "srcChannel": 2,
            "name": "SteelGtr",
            "accType": "CHORD2",
            "editable": false,
            "mutedNotes": [],
            "mutedChords": [
              "7aug",
              "Maj7aug",
              "7(#9)",
              "7(b13)",
              "7(b9)",
              "7(13)",
              "7#11",
              "7(9)",
              "7b5",
              "7sus4",
              "7th"
            ],
            "autoStart": false,
            "sourceChordNote": 0,
            "sourceChordType": "Maj7",
            "ctb2Low": null,
            "ctb2Main": {
              "ntr": "ROOT_FIXED",
              "ntt": "CHORD",
              "bassOn": false,
              "chordRootUpperLimit": 6,
              "noteLowLimit": 0,
              "noteHighLimit": 127,
              "rtr": "PITCH_SHIFT"
            },
            "ctb2High": null
          },
          "notes": [
            {
              "pitch": 55,
              "velocity": 85,
              "position": 0.5,
              "duration": 0.625
            },
            {
              "pitch": 64,
              "velocity": 98,
              "position": 0,
              "duration": 1.4791666666666667
            },
            {
              "pitch": 59,
              "velocity": 85,
              "position": 0.25,
              "duration": 1.25
            },
            {
              "pitch": 52,
              "velocity": 92,
              "position": 0.75,
              "duration": 1.125
            },
            {
              "pitch": 55,
              "velocity": 96,
              "position": 1.25,
              "duration": 1.375
            },
            {
              "pitch": 64,
              "velocity": 98,
              "position": 1.5,
              "duration": 1.5
            },
            {
              "pitch": 52,
              "velocity": 92,
              "position": 2,
              "duration": 1.375
            },
            {
              "pitch": 67,
              "velocity": 98,
              "position": 3,
              "duration": 0.5
            },
            {
              "pitch": 64,
              "velocity": 98,
              "position": 3.5,
              "duration": 0.5
            },
            {
              "pitch": 67,
              "velocity": 98,
              "position": 4,
              "duration": 0.625
            },
            {
              "pitch": 55,
              "velocity": 96,
              "position": 2.75,
              "duration": 2.375
            },
            {
              "pitch": 52,
              "velocity": 96,
              "position": 4.5,
              "duration": 1
            },
            {
              "pitch": 59,
              "velocity": 85,
              "position": 3.5,
              "duration": 2.375
            },
            {
              "pitch": 64,
              "velocity": 98,
              "position": 5.5,
              "duration": 1.25
            },
            {
              "pitch": 52,
              "velocity": 77,
              "position": 6,
              "duration": 1.375
            },
            {
              "pitch": 55,
              "velocity": 98,
              "position": 5.25,
              "duration": 2.7291666666666665
            },
            {
              "pitch": 67,
              "velocity": 97,
              "position": 6.75,
              "duration": 1.2291666666666667
            },
            {
              "pitch": 59,
              "velocity": 77,
              "position": 7.5,
              "duration": 0.4791666666666667
            },
            {
              "pitch": 55,
              "velocity": 85,
              "position": 8.5,
              "duration": 0.625
            },
            {
              "pitch": 64,
              "velocity": 98,
              "position": 8,
              "duration": 1.4791666666666667
            },
            {
              "pitch": 59,
              "velocity": 85,
              "position": 8.25,
              "duration": 1.25
            },
            {
              "pitch": 52,
              "velocity": 92,
              "position": 8.75,
              "duration": 1.125
            },
            {
              "pitch": 55,
              "velocity": 96,
              "position": 9.25,
              "duration": 1.375
            },
            {
              "pitch": 64,
              "velocity": 98,
              "position": 9.5,
              "duration": 1.5
            },
            {
              "pitch": 52,
              "velocity": 92,
              "position": 10,
              "duration": 1.375
            },
            {
              "pitch": 67,
              "velocity": 98,
              "position": 11,
              "duration": 0.5
            },
            {
              "pitch": 64,
              "velocity": 98,
              "position": 11.5,
              "duration": 0.5
            },
            {
              "pitch": 67,
              "velocity": 98,
              "position": 12,
              "duration": 0.625
            },
            {
              "pitch": 55,
              "velocity": 96,
              "position": 10.75,
              "duration": 2.375
            },
            {
              "pitch": 52,
              "velocity": 96,
              "position": 12.5,
              "duration": 1
            },
            {
              "pitch": 59,
              "velocity": 85,
              "position": 11.5,
              "duration": 2.375
            },
            {
              "pitch": 64,
              "velocity": 98,
              "position": 13.5,
              "duration": 1.25
            },
            {
              "pitch": 52,
              "velocity": 77,
              "position": 14,
              "duration": 1.375
            },
            {
              "pitch": 55,
              "velocity": 98,
              "position": 13.25,
              "duration": 2.7291666666666665
            },
            {
              "pitch": 67,
              "velocity": 97,
              "position": 14.75,
              "duration": 1.2291666666666667
            },
            {
              "pitch": 59,
              "velocity": 77,
              "position": 15.5,
              "duration": 0.4791666666666667
            },
            {
              "pitch": 55,
              "velocity": 85,
              "position": 16.5,
              "duration": 0.625
            },
            {
              "pitch": 64,
              "velocity": 98,
              "position": 16,
              "duration": 1.4791666666666667
            },
            {
              "pitch": 59,
              "velocity": 85,
              "position": 16.25,
              "duration": 1.25
            },
            {
              "pitch": 52,
              "velocity": 92,
              "position": 16.75,
              "duration": 1.125
            },
            {
              "pitch": 55,
              "velocity": 96,
              "position": 17.25,
              "duration": 1.375
            },
            {
              "pitch": 64,
              "velocity": 98,
              "position": 17.5,
              "duration": 1.5
            },
            {
              "pitch": 52,
              "velocity": 92,
              "position": 18,
              "duration": 1.375
            },
            {
              "pitch": 67,
              "velocity": 98,
              "position": 19,
              "duration": 0.5
            },
            {
              "pitch": 64,
              "velocity": 98,
              "position": 19.5,
              "duration": 0.5
            },
            {
              "pitch": 67,
              "velocity": 98,
              "position": 20,
              "duration": 0.625
            },
            {
              "pitch": 55,
              "velocity": 96,
              "position": 18.75,
              "duration": 2.375
            },
            {
              "pitch": 52,
              "velocity": 96,
              "position": 20.5,
              "duration": 1
            },
            {
              "pitch": 59,
              "velocity": 85,
              "position": 19.5,
              "duration": 2.375
            },
            {
              "pitch": 64,
              "velocity": 98,
              "position": 21.5,
              "duration": 1.25
            },
            {
              "pitch": 52,
              "velocity": 77,
              "position": 22,
              "duration": 1.375
            },
            {
              "pitch": 55,
              "velocity": 98,
              "position": 21.25,
              "duration": 2.7291666666666665
            },
            {
              "pitch": 67,
              "velocity": 97,
              "position": 22.75,
              "duration": 1.2291666666666667
            },
            {
              "pitch": 59,
              "velocity": 77,
              "position": 23.5,
              "duration": 0.4791666666666667
            },
            {
              "pitch": 55,
              "velocity": 85,
              "position": 24.5,
              "duration": 0.625
            },
            {
              "pitch": 64,
              "velocity": 98,
              "position": 24,
              "duration": 1.4791666666666667
            },
            {
              "pitch": 59,
              "velocity": 85,
              "position": 24.25,
              "duration": 1.25
            },
            {
              "pitch": 52,
              "velocity": 92,
              "position": 24.75,
              "duration": 1.125
            },
            {
              "pitch": 55,
              "velocity": 96,
              "position": 25.25,
              "duration": 1.375
            },
            {
              "pitch": 64,
              "velocity": 98,
              "position": 25.5,
              "duration": 1.5
            },
            {
              "pitch": 52,
              "velocity": 92,
              "position": 26,
              "duration": 1.375
            },
            {
              "pitch": 67,
              "velocity": 98,
              "position": 27,
              "duration": 0.5
            },
            {
              "pitch": 64,
              "velocity": 98,
              "position": 27.5,
              "duration": 0.5
            },
            {
              "pitch": 67,
              "velocity": 98,
              "position": 28,
              "duration": 0.625
            },
            {
              "pitch": 55,
              "velocity": 96,
              "position": 26.75,
              "duration": 2.375
            },
            {
              "pitch": 52,
              "velocity": 96,
              "position": 28.5,
              "duration": 1
            },
            {
              "pitch": 59,
              "velocity": 85,
              "position": 27.5,
              "duration": 2.375
            },
            {
              "pitch": 64,
              "velocity": 98,
              "position": 29.5,
              "duration": 1.25
            },
            {
              "pitch": 52,
              "velocity": 77,
              "position": 30,
              "duration": 1.375
            },
            {
              "pitch": 55,
              "velocity": 98,
              "position": 29.25,
              "duration": 2.7291666666666665
            },
            {
              "pitch": 67,
              "velocity": 97,
              "position": 30.75,
              "duration": 1.2291666666666667
            },
            {
              "pitch": 59,
              "velocity": 77,
              "position": 31.5,
              "duration": 0.4791666666666667
            }
          ]
        },
        "3": {
          "ctab": {
            "srcChannel": 3,
            "name": "SteelGtr",
            "accType": "CHORD2",
            "editable": false,
            "mutedNotes": [],
            "mutedChords": [
              "1+2+5",
              "sus4",
              "1+5",
              "1+8",
              "dim7",
              "dim",
              "minMaj7(9)",
              "minMaj7",
              "min7(11)",
              "min7(9)",
              "min(9)",
              "m7b5",
              "min7",
              "min6",
              "min",
              "aug",
              "Maj6(9)",
              "Maj7(9)",
              "Maj(9)",
              "Maj7#11",
              "Maj7",
              "Maj6",
              "Maj"
            ],
            "autoStart": false,
            "sourceChordNote": 0,
            "sourceChordType": "7th",
            "ctb2Low": null,
            "ctb2Main": {
              "ntr": "ROOT_FIXED",
              "ntt": "CHORD",
              "bassOn": false,
              "chordRootUpperLimit": 6,
              "noteLowLimit": 0,
              "noteHighLimit": 127,
              "rtr": "PITCH_SHIFT"
            },
            "ctb2High": null
          },
          "notes": [
            {
              "pitch": 58,
              "velocity": 85,
              "position": 0.5,
              "duration": 0.625
            },
            {
              "pitch": 64,
              "velocity": 98,
              "position": 0,
              "duration": 1.4791666666666667
            },
            {
              "pitch": 55,
              "velocity": 85,
              "position": 0.25,
              "duration": 1.25
            },
            {
              "pitch": 52,
              "velocity": 92,
              "position": 0.75,
              "duration": 1.125
            },
            {
              "pitch": 58,
              "velocity": 96,
              "position": 1.25,
              "duration": 1.375
            },
            {
              "pitch": 64,
              "velocity": 98,
              "position": 1.5,
              "duration": 1.5
            },
            {
              "pitch": 52,
              "velocity": 92,
              "position": 2,
              "duration": 1.375
            },
            {
              "pitch": 70,
              "velocity": 98,
              "position": 3,
              "duration": 0.5
            },
            {
              "pitch": 64,
              "velocity": 98,
              "position": 3.5,
              "duration": 0.5
            },
            {
              "pitch": 70,
              "velocity": 98,
              "position": 4,
              "duration": 0.625
            },
            {
              "pitch": 58,
              "velocity": 96,
              "position": 2.75,
              "duration": 2.375
            },
            {
              "pitch": 52,
              "velocity": 96,
              "position": 4.5,
              "duration": 1
            },
            {
              "pitch": 55,
              "velocity": 85,
              "position": 3.5,
              "duration": 2.375
            },
            {
              "pitch": 64,
              "velocity": 98,
              "position": 5.5,
              "duration": 1.25
            },
            {
              "pitch": 52,
              "velocity": 77,
              "position": 6,
              "duration": 1.375
            },
            {
              "pitch": 58,
              "velocity": 98,
              "position": 5.25,
              "duration": 2.7291666666666665
            },
            {
              "pitch": 70,
              "velocity": 97,
              "position": 6.75,
              "duration": 1.2291666666666667
            },
            {
              "pitch": 55,
              "velocity": 77,
              "position": 7.5,
              "duration": 0.4791666666666667
            },
            {
              "pitch": 58,
              "velocity": 85,
              "position": 8.5,
              "duration": 0.625
            },
            {
              "pitch": 64,
              "velocity": 98,
              "position": 8,
              "duration": 1.4791666666666667
            },
            {
              "pitch": 55,
              "velocity": 85,
              "position": 8.25,
              "duration": 1.25
            },
            {
              "pitch": 52,
              "velocity": 92,
              "position": 8.75,
              "duration": 1.125
            },
            {
              "pitch": 58,
              "velocity": 96,
              "position": 9.25,
              "duration": 1.375
            },
            {
              "pitch": 64,
              "velocity": 98,
              "position": 9.5,
              "duration": 1.5
            },
            {
              "pitch": 52,
              "velocity": 92,
              "position": 10,
              "duration": 1.375
            },
            {
              "pitch": 70,
              "velocity": 98,
              "position": 11,
              "duration": 0.5
            },
            {
              "pitch": 64,
              "velocity": 98,
              "position": 11.5,
              "duration": 0.5
            },
            {
              "pitch": 70,
              "velocity": 98,
              "position": 12,
              "duration": 0.625
            },
            {
              "pitch": 58,
              "velocity": 96,
              "position": 10.75,
              "duration": 2.375
            },
            {
              "pitch": 52,
              "velocity": 96,
              "position": 12.5,
              "duration": 1
            },
            {
              "pitch": 55,
              "velocity": 85,
              "position": 11.5,
              "duration": 2.375
            },
            {
              "pitch": 64,
              "velocity": 98,
              "position": 13.5,
              "duration": 1.25
            },
            {
              "pitch": 52,
              "velocity": 77,
              "position": 14,
              "duration": 1.375
            },
            {
              "pitch": 58,
              "velocity": 98,
              "position": 13.25,
              "duration": 2.7291666666666665
            },
            {
              "pitch": 70,
              "velocity": 97,
              "position": 14.75,
              "duration": 1.2291666666666667
            },
            {
              "pitch": 55,
              "velocity": 77,
              "position": 15.5,
              "duration": 0.4791666666666667
            },
            {
              "pitch": 58,
              "velocity": 85,
              "position": 16.5,
              "duration": 0.625
            },
            {
              "pitch": 64,
              "velocity": 98,
              "position": 16,
              "duration": 1.4791666666666667
            },
            {
              "pitch": 55,
              "velocity": 85,
              "position": 16.25,
              "duration": 1.25
            },
            {
              "pitch": 52,
              "velocity": 92,
              "position": 16.75,
              "duration": 1.125
            },
            {
              "pitch": 58,
              "velocity": 96,
              "position": 17.25,
              "duration": 1.375
            },
            {
              "pitch": 64,
              "velocity": 98,
              "position": 17.5,
              "duration": 1.5
            },
            {
              "pitch": 52,
              "velocity": 92,
              "position": 18,
              "duration": 1.375
            },
            {
              "pitch": 70,
              "velocity": 98,
              "position": 19,
              "duration": 0.5
            },
            {
              "pitch": 64,
              "velocity": 98,
              "position": 19.5,
              "duration": 0.5
            },
            {
              "pitch": 70,
              "velocity": 98,
              "position": 20,
              "duration": 0.625
            },
            {
              "pitch": 58,
              "velocity": 96,
              "position": 18.75,
              "duration": 2.375
            },
            {
              "pitch": 52,
              "velocity": 96,
              "position": 20.5,
              "duration": 1
            },
            {
              "pitch": 55,
              "velocity": 85,
              "position": 19.5,
              "duration": 2.375
            },
            {
              "pitch": 64,
              "velocity": 98,
              "position": 21.5,
              "duration": 1.25
            },
            {
              "pitch": 52,
              "velocity": 77,
              "position": 22,
              "duration": 1.375
            },
            {
              "pitch": 58,
              "velocity": 98,
              "position": 21.25,
              "duration": 2.7291666666666665
            },
            {
              "pitch": 70,
              "velocity": 97,
              "position": 22.75,
              "duration": 1.2291666666666667
            },
            {
              "pitch": 55,
              "velocity": 77,
              "position": 23.5,
              "duration": 0.4791666666666667
            },
            {
              "pitch": 58,
              "velocity": 85,
              "position": 24.5,
              "duration": 0.625
            },
            {
              "pitch": 64,
              "velocity": 98,
              "position": 24,
              "duration": 1.4791666666666667
            },
            {
              "pitch": 55,
              "velocity": 85,
              "position": 24.25,
              "duration": 1.25
            },
            {
              "pitch": 52,
              "velocity": 92,
              "position": 24.75,
              "duration": 1.125
            },
            {
              "pitch": 58,
              "velocity": 96,
              "position": 25.25,
              "duration": 1.375
            },
            {
              "pitch": 64,
              "velocity": 98,
              "position": 25.5,
              "duration": 1.5
            },
            {
              "pitch": 52,
              "velocity": 92,
              "position": 26,
              "duration": 1.375
            },
            {
              "pitch": 70,
              "velocity": 98,
              "position": 27,
              "duration": 0.5
            },
            {
              "pitch": 64,
              "velocity": 98,
              "position": 27.5,
              "duration": 0.5
            },
            {
              "pitch": 70,
              "velocity": 98,
              "position": 28,
              "duration": 0.625
            },
            {
              "pitch": 58,
              "velocity": 96,
              "position": 26.75,
              "duration": 2.375
            },
            {
              "pitch": 52,
              "velocity": 96,
              "position": 28.5,
              "duration": 1
            },
            {
              "pitch": 55,
              "velocity": 85,
              "position": 27.5,
              "duration": 2.375
            },
            {
              "pitch": 64,
              "velocity": 98,
              "position": 29.5,
              "duration": 1.25
            },
            {
              "pitch": 52,
              "velocity": 77,
              "position": 30,
              "duration": 1.375
            },
            {
              "pitch": 58,
              "velocity": 98,
              "position": 29.25,
              "duration": 2.7291666666666665
            },
            {
              "pitch": 70,
              "velocity": 97,
              "position": 30.75,
              "duration": 1.2291666666666667
            },
            {
              "pitch": 55,
              "velocity": 77,
              "position": 31.5,
              "duration": 0.4791666666666667
            }
          ]
        },
        "4": {
          "ctab": {
            "srcChannel": 4,
            "name": "Strings1",
            "accType": "PAD",
            "editable": false,
            "mutedNotes": [],
            "mutedChords": [
              "7aug",
              "Maj7aug",
              "7(#9)",
              "7(b13)",
              "7(b9)",
              "7(13)",
              "7#11",
              "7(9)",
              "7b5",
              "7sus4",
              "7th"
            ],
            "autoStart": false,
            "sourceChordNote": 0,
            "sourceChordType": "Maj7",
            "ctb2Low": null,
            "ctb2Main": {
              "ntr": "ROOT_FIXED",
              "ntt": "CHORD",
              "bassOn": false,
              "chordRootUpperLimit": 6,
              "noteLowLimit": 0,
              "noteHighLimit": 127,
              "rtr": "PITCH_SHIFT"
            },
            "ctb2High": null
          },
          "notes": [
            {
              "pitch": 48,
              "velocity": 94,
              "position": 0,
              "duration": 9.979166666666666
            },
            {
              "pitch": 52,
              "velocity": 94,
              "position": 10,
              "duration": 0.9791666666666666
            },
            {
              "pitch": 55,
              "velocity": 94,
              "position": 11,
              "duration": 0.9791666666666666
            },
            {
              "pitch": 48,
              "velocity": 94,
              "position": 12,
              "duration": 3.9791666666666665
            },
            {
              "pitch": 48,
              "velocity": 94,
              "position": 16,
              "duration": 9.979166666666666
            },
            {
              "pitch": 52,
              "velocity": 94,
              "position": 26,
              "duration": 0.9791666666666666
            },
            {
              "pitch": 55,
              "velocity": 94,
              "position": 27,
              "duration": 0.9791666666666666
            },
            {
              "pitch": 48,
              "velocity": 94,
              "position": 28,
              "duration": 4
            }
          ]
        },
        "5": {
          "ctab": {
            "srcChannel": 5,
            "name": "Strings1",
            "accType": "PAD",
            "editable": false,
            "mutedNotes": [],
            "mutedChords": [
              "1+2+5",
              "sus4",
              "1+5",
              "1+8",
              "dim7",
              "dim",
              "minMaj7(9)",
              "minMaj7",
              "min7(11)",
              "min7(9)",
              "min(9)",
              "m7b5",
              "min7",
              "min6",
              "min",
              "aug",
              "Maj6(9)",
              "Maj7(9)",
              "Maj(9)",
              "Maj7#11",
              "Maj7",
              "Maj6",
              "Maj"
            ],
            "autoStart": false,
            "sourceChordNote": 0,
            "sourceChordType": "7th",
            "ctb2Low": null,
            "ctb2Main": {
              "ntr": "ROOT_FIXED",
              "ntt": "CHORD",
              "bassOn": false,
              "chordRootUpperLimit": 6,
              "noteLowLimit": 0,
              "noteHighLimit": 127,
              "rtr": "PITCH_SHIFT"
            },
            "ctb2High": null
          },
          "notes": [
            {
              "pitch": 48,
              "velocity": 94,
              "position": 0,
              "duration": 9.979166666666666
            },
            {
              "pitch": 52,
              "velocity": 94,
              "position": 10,
              "duration": 0.9791666666666666
            },
            {
              "pitch": 58,
              "velocity": 94,
              "position": 11,
              "duration": 0.9791666666666666
            },
            {
              "pitch": 48,
              "velocity": 94,
              "position": 12,
              "duration": 3.9791666666666665
            },
            {
              "pitch": 48,
              "velocity": 94,
              "position": 16,
              "duration": 9.979166666666666
            },
            {
              "pitch": 52,
              "velocity": 94,
              "position": 26,
              "duration": 0.9791666666666666
            },
            {
              "pitch": 58,
              "velocity": 94,
              "position": 27,
              "duration": 0.9791666666666666
            },
            {
              "pitch": 48,
              "velocity": 94,
              "position": 28,
              "duration": 4
            }
          ]
        },
        "8": {
          "ctab": {
            "srcChannel": 8,
            "name": "Std.Kit1",
            "accType": "RHYTHM",
            "editable": false,
            "mutedNotes": [],
            "mutedChords": [],
            "autoStart": true,
            "sourceChordNote": 0,
            "sourceChordType": "Maj7",
            "ctb2Low": null,
            "ctb2Main": {
              "ntr": "ROOT_FIXED",
              "ntt": "BYPASS",
              "bassOn": false,
              "chordRootUpperLimit": 6,
              "noteLowLimit": 0,
              "noteHighLimit": 127,
              "rtr": "PITCH_SHIFT"
            },
            "ctb2High": null
          },
          "notes": [
            {
              "pitch": 35,
              "velocity": 92,
              "position": 0,
              "duration": 0.125
            },
            {
              "pitch": 44,
              "velocity": 33,
              "position": 1,
              "duration": 0.125
            },
            {
              "pitch": 38,
              "velocity": 69,
              "position": 1,
              "duration": 0.125
            },
            {
              "pitch": 35,
              "velocity": 19,
              "position": 1.75,
              "duration": 0.125
            },
            {
              "pitch": 35,
              "velocity": 79,
              "position": 2,
              "duration": 0.125
            },
            {
              "pitch": 44,
              "velocity": 33,
              "position": 3,
              "duration": 0.125
            },
            {
              "pitch": 38,
              "velocity": 69,
              "position": 3,
              "duration": 0.125
            },
            {
              "pitch": 35,
              "velocity": 92,
              "position": 4,
              "duration": 0.125
            },
            {
              "pitch": 44,
              "velocity": 33,
              "position": 5,
              "duration": 0.125
            },
            {
              "pitch": 38,
              "velocity": 69,
              "position": 5,
              "duration": 0.125
            },
            {
              "pitch": 35,
              "velocity": 19,
              "position": 5.75,
              "duration": 0.125
            },
            {
              "pitch": 35,
              "velocity": 79,
              "position": 6,
              "duration": 0.125
            },
            {
              "pitch": 44,
              "velocity": 33,
              "position": 7,
              "duration": 0.125
            },
            {
              "pitch": 38,
              "velocity": 69,
              "position": 7,
              "duration": 0.125
            },
            {
              "pitch": 42,
              "velocity": 55,
              "position": 7.25,
              "duration": 0.16666666666666666
            },
            {
              "pitch": 35,
              "velocity": 19,
              "position": 7.5,
              "duration": 0.125
            },
            {
              "pitch": 46,
              "velocity": 58,
              "position": 7.5,
              "duration": 0.4375
            },
            {
              "pitch": 35,
              "velocity": 92,
              "position": 8,
              "duration": 0.125
            },
            {
              "pitch": 42,
              "velocity": 15,
              "position": 8,
              "duration": 0.14583333333333334
            },
            {
              "pitch": 44,
              "velocity": 33,
              "position": 9,
              "duration": 0.125
            },
            {
              "pitch": 38,
              "velocity": 69,
              "position": 9,
              "duration": 0.125
            },
            {
              "pitch": 35,
              "velocity": 19,
              "position": 9.75,
              "duration": 0.125
            },
            {
              "pitch": 35,
              "velocity": 79,
              "position": 10,
              "duration": 0.125
            },
            {
              "pitch": 44,
              "velocity": 33,
              "position": 11,
              "duration": 0.125
            },
            {
              "pitch": 38,
              "velocity": 69,
              "position": 11,
              "duration": 0.125
            },
            {
              "pitch": 46,
              "velocity": 58,
              "position": 8,
              "duration": 3.9375
            },
            {
              "pitch": 35,
              "velocity": 92,
              "position": 12,
              "duration": 0.125
            },
            {
              "pitch": 44,
              "velocity": 33,
              "position": 13,
              "duration": 0.125
            },
            {
              "pitch": 38,
              "velocity": 69,
              "position": 13,
              "duration": 0.125
            },
            {
              "pitch": 35,
              "velocity": 19,
              "position": 13.75,
              "duration": 0.125
            },
            {
              "pitch": 35,
              "velocity": 79,
              "position": 14,
              "duration": 0.125
            },
            {
              "pitch": 44,
              "velocity": 33,
              "position": 15,
              "duration": 0.125
            },
            {
              "pitch": 38,
              "velocity": 69,
              "position": 15,
              "duration": 0.125
            },
            {
              "pitch": 42,
              "velocity": 55,
              "position": 15.25,
              "duration": 0.16666666666666666
            },
            {
              "pitch": 35,
              "velocity": 19,
              "position": 15.5,
              "duration": 0.125
            },
            {
              "pitch": 46,
              "velocity": 58,
              "position": 15.5,
              "duration": 0.4375
            },
            {
              "pitch": 35,
              "velocity": 92,
              "position": 16,
              "duration": 0.125
            },
            {
              "pitch": 42,
              "velocity": 15,
              "position": 16,
              "duration": 0.14583333333333334
            },
            {
              "pitch": 44,
              "velocity": 33,
              "position": 17,
              "duration": 0.125
            },
            {
              "pitch": 38,
              "velocity": 69,
              "position": 17,
              "duration": 0.125
            },
            {
              "pitch": 35,
              "velocity": 19,
              "position": 17.75,
              "duration": 0.125
            },
            {
              "pitch": 35,
              "velocity": 79,
              "position": 18,
              "duration": 0.125
            },
            {
              "pitch": 44,
              "velocity": 33,
              "position": 19,
              "duration": 0.125
            },
            {
              "pitch": 38,
              "velocity": 69,
              "position": 19,
              "duration": 0.125
            },
            {
              "pitch": 46,
              "velocity": 58,
              "position": 16,
              "duration": 3.9375
            },
            {
              "pitch": 35,
              "velocity": 92,
              "position": 20,
              "duration": 0.125
            },
            {
              "pitch": 44,
              "velocity": 33,
              "position": 21,
              "duration": 0.125
            },
            {
              "pitch": 38,
              "velocity": 69,
              "position": 21,
              "duration": 0.125
            },
            {
              "pitch": 35,
              "velocity": 19,
              "position": 21.75,
              "duration": 0.125
            },
            {
              "pitch": 35,
              "velocity": 79,
              "position": 22,
              "duration": 0.125
            },
            {
              "pitch": 44,
              "velocity": 33,
              "position": 23,
              "duration": 0.125
            },
            {
              "pitch": 38,
              "velocity": 69,
              "position": 23,
              "duration": 0.125
            },
            {
              "pitch": 42,
              "velocity": 55,
              "position": 23.25,
              "duration": 0.16666666666666666
            },
            {
              "pitch": 35,
              "velocity": 19,
              "position": 23.5,
              "duration": 0.125
            },
            {
              "pitch": 46,
              "velocity": 58,
              "position": 23.5,
              "duration": 0.4375
            },
            {
              "pitch": 35,
              "velocity": 92,
              "position": 24,
              "duration": 0.125
            },
            {
              "pitch": 42,
              "velocity": 15,
              "position": 24,
              "duration": 0.14583333333333334
            },
            {
              "pitch": 44,
              "velocity": 33,
              "position": 25,
              "duration": 0.125
            },
            {
              "pitch": 38,
              "velocity": 69,
              "position": 25,
              "duration": 0.125
            },
            {
              "pitch": 35,
              "velocity": 19,
              "position": 25.75,
              "duration": 0.125
            },
            {
              "pitch": 35,
              "velocity": 79,
              "position": 26,
              "duration": 0.125
            },
            {
              "pitch": 44,
              "velocity": 33,
              "position": 27,
              "duration": 0.125
            },
            {
              "pitch": 38,
              "velocity": 69,
              "position": 27,
              "duration": 0.125
            },
            {
              "pitch": 46,
              "velocity": 58,
              "position": 24,
              "duration": 3.9375
            },
            {
              "pitch": 35,
              "velocity": 92,
              "position": 28,
              "duration": 0.125
            },
            {
              "pitch": 44,
              "velocity": 33,
              "position": 29,
              "duration": 0.125
            },
            {
              "pitch": 38,
              "velocity": 69,
              "position": 29,
              "duration": 0.125
            },
            {
              "pitch": 35,
              "velocity": 19,
              "position": 29.75,
              "duration": 0.125
            },
            {
              "pitch": 35,
              "velocity": 79,
              "position": 30,
              "duration": 0.125
            },
            {
              "pitch": 44,
              "velocity": 33,
              "position": 30.5,
              "duration": 0.125
            },
            {
              "pitch": 42,
              "velocity": 39,
              "position": 30.75,
              "duration": 0.041666666666666664
            },
            {
              "pitch": 42,
              "velocity": 55,
              "position": 30.875,
              "duration": 0.041666666666666664
            },
            {
              "pitch": 38,
              "velocity": 69,
              "position": 31,
              "duration": 0.125
            },
            {
              "pitch": 42,
              "velocity": 55,
              "position": 31.25,
              "duration": 0.16666666666666666
            },
            {
              "pitch": 35,
              "velocity": 19,
              "position": 31.5,
              "duration": 0.125
            },
            {
              "pitch": 46,
              "velocity": 58,
              "position": 31.5,
              "duration": 0.4375
            }
          ]
        },
        "10": {
          "ctab": {
            "srcChannel": 10,
            "name": "Std.Kit1",
            "accType": "SUBRHYTHM",
            "editable": false,
            "mutedNotes": [],
            "mutedChords": [],
            "autoStart": true,
            "sourceChordNote": 0,
            "sourceChordType": "Maj7",
            "ctb2Low": null,
            "ctb2Main": {
              "ntr": "ROOT_FIXED",
              "ntt": "BYPASS",
              "bassOn": false,
              "chordRootUpperLimit": 6,
              "noteLowLimit": 0,
              "noteHighLimit": 127,
              "rtr": "PITCH_SHIFT"
            },
            "ctb2High": null
          },
          "notes": [
            {
              "pitch": 69,
              "velocity": 49,
              "position": 0.5,
              "duration": 0.125
            },
            {
              "pitch": 81,
              "velocity": 21,
              "position": 1,
              "duration": 0.125
            },
            {
              "pitch": 69,
              "velocity": 74,
              "position": 1.5,
              "duration": 0.125
            },
            {
              "pitch": 69,
              "velocity": 49,
              "position": 2.5,
              "duration": 0.125
            },
            {
              "pitch": 63,
              "velocity": 38,
              "position": 3,
              "duration": 0.125
            },
            {
              "pitch": 54,
              "velocity": 42,
              "position": 3,
              "duration": 0.1875
            },
            {
              "pitch": 69,
              "velocity": 74,
              "position": 3.5,
              "duration": 0.125
            },
            {
              "pitch": 62,
              "velocity": 95,
              "position": 3.5,
              "duration": 0.125
            },
            {
              "pitch": 69,
              "velocity": 39,
              "position": 3.75,
              "duration": 0.125
            },
            {
              "pitch": 69,
              "velocity": 49,
              "position": 4.5,
              "duration": 0.125
            },
            {
              "pitch": 81,
              "velocity": 21,
              "position": 5,
              "duration": 0.125
            },
            {
              "pitch": 69,
              "velocity": 74,
              "position": 5.5,
              "duration": 0.125
            },
            {
              "pitch": 69,
              "velocity": 49,
              "position": 6.5,
              "duration": 0.125
            },
            {
              "pitch": 64,
              "velocity": 48,
              "position": 7,
              "duration": 0.125
            },
            {
              "pitch": 54,
              "velocity": 42,
              "position": 7,
              "duration": 0.1875
            },
            {
              "pitch": 69,
              "velocity": 74,
              "position": 7.5,
              "duration": 0.125
            },
            {
              "pitch": 63,
              "velocity": 83,
              "position": 7.5,
              "duration": 0.125
            },
            {
              "pitch": 69,
              "velocity": 49,
              "position": 8.5,
              "duration": 0.125
            },
            {
              "pitch": 81,
              "velocity": 21,
              "position": 9,
              "duration": 0.125
            },
            {
              "pitch": 69,
              "velocity": 74,
              "position": 9.5,
              "duration": 0.125
            },
            {
              "pitch": 69,
              "velocity": 49,
              "position": 10.5,
              "duration": 0.125
            },
            {
              "pitch": 63,
              "velocity": 38,
              "position": 11,
              "duration": 0.125
            },
            {
              "pitch": 54,
              "velocity": 42,
              "position": 11,
              "duration": 0.1875
            },
            {
              "pitch": 69,
              "velocity": 74,
              "position": 11.5,
              "duration": 0.125
            },
            {
              "pitch": 62,
              "velocity": 95,
              "position": 11.5,
              "duration": 0.125
            },
            {
              "pitch": 69,
              "velocity": 39,
              "position": 11.75,
              "duration": 0.125
            },
            {
              "pitch": 69,
              "velocity": 49,
              "position": 12.5,
              "duration": 0.125
            },
            {
              "pitch": 81,
              "velocity": 21,
              "position": 13,
              "duration": 0.125
            },
            {
              "pitch": 69,
              "velocity": 74,
              "position": 13.5,
              "duration": 0.125
            },
            {
              "pitch": 69,
              "velocity": 49,
              "position": 14.5,
              "duration": 0.125
            },
            {
              "pitch": 64,
              "velocity": 48,
              "position": 15,
              "duration": 0.125
            },
            {
              "pitch": 54,
              "velocity": 42,
              "position": 15,
              "duration": 0.1875
            },
            {
              "pitch": 69,
              "velocity": 74,
              "position": 15.5,
              "duration": 0.125
            },
            {
              "pitch": 63,
              "velocity": 83,
              "position": 15.5,
              "duration": 0.125
            },
            {
              "pitch": 69,
              "velocity": 49,
              "position": 16.5,
              "duration": 0.125
            },
            {
              "pitch": 81,
              "velocity": 21,
              "position": 17,
              "duration": 0.125
            },
            {
              "pitch": 69,
              "velocity": 74,
              "position": 17.5,
              "duration": 0.125
            },
            {
              "pitch": 69,
              "velocity": 49,
              "position": 18.5,
              "duration": 0.125
            },
            {
              "pitch": 63,
              "velocity": 38,
              "position": 19,
              "duration": 0.125
            },
            {
              "pitch": 54,
              "velocity": 42,
              "position": 19,
              "duration": 0.1875
            },
            {
              "pitch": 69,
              "velocity": 74,
              "position": 19.5,
              "duration": 0.125
            },
            {
              "pitch": 62,
              "velocity": 95,
              "position": 19.5,
              "duration": 0.125
            },
            {
              "pitch": 69,
              "velocity": 39,
              "position": 19.75,
              "duration": 0.125
            },
            {
              "pitch": 69,
              "velocity": 49,
              "position": 20.5,
              "duration": 0.125
            },
            {
              "pitch": 81,
              "velocity": 21,
              "position": 21,
              "duration": 0.125
            },
            {
              "pitch": 69,
              "velocity": 74,
              "position": 21.5,
              "duration": 0.125
            },
            {
              "pitch": 69,
              "velocity": 49,
              "position": 22.5,
              "duration": 0.125
            },
            {
              "pitch": 64,
              "velocity": 48,
              "position": 23,
              "duration": 0.125
            },
            {
              "pitch": 54,
              "velocity": 42,
              "position": 23,
              "duration": 0.1875
            },
            {
              "pitch": 69,
              "velocity": 74,
              "position": 23.5,
              "duration": 0.125
            },
            {
              "pitch": 63,
              "velocity": 83,
              "position": 23.5,
              "duration": 0.125
            },
            {
              "pitch": 69,
              "velocity": 49,
              "position": 24.5,
              "duration": 0.125
            },
            {
              "pitch": 81,
              "velocity": 21,
              "position": 25,
              "duration": 0.125
            },
            {
              "pitch": 69,
              "velocity": 74,
              "position": 25.5,
              "duration": 0.125
            },
            {
              "pitch": 69,
              "velocity": 49,
              "position": 26.5,
              "duration": 0.125
            },
            {
              "pitch": 63,
              "velocity": 38,
              "position": 27,
              "duration": 0.125
            },
            {
              "pitch": 54,
              "velocity": 42,
              "position": 27,
              "duration": 0.1875
            },
            {
              "pitch": 69,
              "velocity": 74,
              "position": 27.5,
              "duration": 0.125
            },
            {
              "pitch": 62,
              "velocity": 95,
              "position": 27.5,
              "duration": 0.125
            },
            {
              "pitch": 69,
              "velocity": 39,
              "position": 27.75,
              "duration": 0.125
            },
            {
              "pitch": 69,
              "velocity": 49,
              "position": 28.5,
              "duration": 0.125
            },
            {
              "pitch": 81,
              "velocity": 21,
              "position": 29,
              "duration": 0.125
            },
            {
              "pitch": 69,
              "velocity": 74,
              "position": 29.5,
              "duration": 0.125
            },
            {
              "pitch": 69,
              "velocity": 49,
              "position": 30.5,
              "duration": 0.125
            },
            {
              "pitch": 64,
              "velocity": 48,
              "position": 31,
              "duration": 0.125
            },
            {
              "pitch": 54,
              "velocity": 42,
              "position": 31,
              "duration": 0.1875
            },
            {
              "pitch": 54,
              "velocity": 18,
              "position": 31.5,
              "duration": 0.125
            },
            {
              "pitch": 69,
              "velocity": 74,
              "position": 31.5,
              "duration": 0.125
            },
            {
              "pitch": 63,
              "velocity": 83,
              "position": 31.5,
              "duration": 0.125
            },
            {
              "pitch": 54,
              "velocity": 67,
              "position": 31.75,
              "duration": 0.125
            }
          ]
        },
        "12": {
          "ctab": {
            "srcChannel": 12,
            "name": "Fretless",
            "accType": "BASS",
            "editable": false,
            "mutedNotes": [],
            "mutedChords": [],
            "autoStart": false,
            "sourceChordNote": 0,
            "sourceChordType": "Maj7",
            "ctb2Low": null,
            "ctb2Main": {
              "ntr": "ROOT_TRANSPOSITION",
              "ntt": "MELODY",
              "bassOn": true,
              "chordRootUpperLimit": 3,
              "noteLowLimit": 28,
              "noteHighLimit": 54,
              "rtr": "PITCH_SHIFT_TO_ROOT"
            },
            "ctb2High": null
          },
          "notes": [
            {
              "pitch": 36,
              "velocity": 106,
              "position": 0,
              "duration": 3.4166666666666665
            },
            {
              "pitch": 36,
              "velocity": 76,
              "position": 3.5,
              "duration": 0.4166666666666667
            },
            {
              "pitch": 36,
              "velocity": 106,
              "position": 4,
              "duration": 3.4166666666666665
            },
            {
              "pitch": 36,
              "velocity": 76,
              "position": 7.5,
              "duration": 0.4166666666666667
            },
            {
              "pitch": 36,
              "velocity": 86,
              "position": 8,
              "duration": 3.3958333333333335
            },
            {
              "pitch": 43,
              "velocity": 51,
              "position": 11.5,
              "duration": 0.4375
            },
            {
              "pitch": 36,
              "velocity": 76,
              "position": 12,
              "duration": 3.375
            },
            {
              "pitch": 31,
              "velocity": 106,
              "position": 15.5,
              "duration": 0.4166666666666667
            },
            {
              "pitch": 36,
              "velocity": 106,
              "position": 16,
              "duration": 3.4166666666666665
            },
            {
              "pitch": 36,
              "velocity": 76,
              "position": 19.5,
              "duration": 0.4166666666666667
            },
            {
              "pitch": 36,
              "velocity": 106,
              "position": 20,
              "duration": 3.4166666666666665
            },
            {
              "pitch": 36,
              "velocity": 76,
              "position": 23.5,
              "duration": 0.4166666666666667
            },
            {
              "pitch": 48,
              "velocity": 86,
              "position": 24,
              "duration": 3.3958333333333335
            },
            {
              "pitch": 43,
              "velocity": 51,
              "position": 27.5,
              "duration": 0.4375
            },
            {
              "pitch": 36,
              "velocity": 106,
              "position": 28,
              "duration": 1.6458333333333333
            },
            {
              "pitch": 36,
              "velocity": 71,
              "position": 29.75,
              "duration": 0.0625
            },
            {
              "pitch": 36,
              "velocity": 106,
              "position": 30,
              "duration": 0.9375
            },
            {
              "pitch": 31,
              "velocity": 106,
              "position": 31,
              "duration": 0.8958333333333334
            }
          ]
        },
        "15": {
          "ctab": {
            "srcChannel": 15,
            "name": "SteelGtr",
            "accType": "CHORD1",
            "editable": false,
            "mutedNotes": [],
            "mutedChords": [
              "7aug",
              "Maj7aug",
              "7(#9)",
              "7(b13)",
              "7(b9)",
              "7(13)",
              "7#11",
              "7(9)",
              "7b5",
              "7sus4",
              "7th"
            ],
            "autoStart": false,
            "sourceChordNote": 0,
            "sourceChordType": "Maj7",
            "ctb2Low": null,
            "ctb2Main": {
              "ntr": "ROOT_FIXED",
              "ntt": "CHORD",
              "bassOn": false,
              "chordRootUpperLimit": 6,
              "noteLowLimit": 0,
              "noteHighLimit": 127,
              "rtr": "PITCH_SHIFT"
            },
            "ctb2High": null
          },
          "notes": [
            {
              "pitch": 64,
              "velocity": 98,
              "position": 0,
              "duration": 0.625
            },
            {
              "pitch": 48,
              "velocity": 100,
              "position": 0,
              "duration": 0.875
            },
            {
              "pitch": 64,
              "velocity": 77,
              "position": 0.75,
              "duration": 0.25
            },
            {
              "pitch": 55,
              "velocity": 70,
              "position": 0.25,
              "duration": 0.875
            },
            {
              "pitch": 59,
              "velocity": 77,
              "position": 0.5,
              "duration": 0.875
            },
            {
              "pitch": 67,
              "velocity": 96,
              "position": 1,
              "duration": 0.75
            },
            {
              "pitch": 52,
              "velocity": 85,
              "position": 1,
              "duration": 0.875
            },
            {
              "pitch": 55,
              "velocity": 77,
              "position": 1.25,
              "duration": 0.875
            },
            {
              "pitch": 59,
              "velocity": 92,
              "position": 1.5,
              "duration": 0.875
            },
            {
              "pitch": 64,
              "velocity": 96,
              "position": 1.75,
              "duration": 0.875
            },
            {
              "pitch": 48,
              "velocity": 97,
              "position": 2,
              "duration": 0.875
            },
            {
              "pitch": 64,
              "velocity": 77,
              "position": 2.75,
              "duration": 0.25
            },
            {
              "pitch": 55,
              "velocity": 77,
              "position": 2.25,
              "duration": 0.875
            },
            {
              "pitch": 59,
              "velocity": 92,
              "position": 2.5,
              "duration": 0.875
            },
            {
              "pitch": 67,
              "velocity": 92,
              "position": 3,
              "duration": 0.625
            },
            {
              "pitch": 52,
              "velocity": 96,
              "position": 3,
              "duration": 0.875
            },
            {
              "pitch": 55,
              "velocity": 85,
              "position": 3.25,
              "duration": 0.75
            },
            {
              "pitch": 59,
              "velocity": 92,
              "position": 3.5,
              "duration": 0.5
            },
            {
              "pitch": 67,
              "velocity": 96,
              "position": 3.75,
              "duration": 0.25
            },
            {
              "pitch": 64,
              "velocity": 96,
              "position": 4,
              "duration": 0.625
            },
            {
              "pitch": 48,
              "velocity": 96,
              "position": 4,
              "duration": 0.875
            },
            {
              "pitch": 64,
              "velocity": 85,
              "position": 4.75,
              "duration": 0.25
            },
            {
              "pitch": 55,
              "velocity": 77,
              "position": 4.25,
              "duration": 0.875
            },
            {
              "pitch": 59,
              "velocity": 85,
              "position": 4.5,
              "duration": 0.875
            },
            {
              "pitch": 67,
              "velocity": 96,
              "position": 5,
              "duration": 0.75
            },
            {
              "pitch": 52,
              "velocity": 96,
              "position": 5,
              "duration": 0.875
            },
            {
              "pitch": 55,
              "velocity": 58,
              "position": 5.25,
              "duration": 0.875
            },
            {
              "pitch": 59,
              "velocity": 96,
              "position": 5.5,
              "duration": 0.875
            },
            {
              "pitch": 64,
              "velocity": 96,
              "position": 5.75,
              "duration": 0.875
            },
            {
              "pitch": 48,
              "velocity": 96,
              "position": 6,
              "duration": 0.875
            },
            {
              "pitch": 64,
              "velocity": 77,
              "position": 6.75,
              "duration": 0.25
            },
            {
              "pitch": 67,
              "velocity": 96,
              "position": 7,
              "duration": 0.25
            },
            {
              "pitch": 59,
              "velocity": 96,
              "position": 6.5,
              "duration": 0.875
            },
            {
              "pitch": 55,
              "velocity": 85,
              "position": 6.25,
              "duration": 1.375
            },
            {
              "pitch": 52,
              "velocity": 96,
              "position": 7,
              "duration": 0.875
            },
            {
              "pitch": 64,
              "velocity": 92,
              "position": 7.25,
              "duration": 0.7291666666666666
            },
            {
              "pitch": 59,
              "velocity": 92,
              "position": 7.5,
              "duration": 0.4791666666666667
            },
            {
              "pitch": 55,
              "velocity": 96,
              "position": 7.75,
              "duration": 0.22916666666666666
            },
            {
              "pitch": 64,
              "velocity": 98,
              "position": 8,
              "duration": 0.625
            },
            {
              "pitch": 48,
              "velocity": 100,
              "position": 8,
              "duration": 0.875
            },
            {
              "pitch": 64,
              "velocity": 77,
              "position": 8.75,
              "duration": 0.25
            },
            {
              "pitch": 55,
              "velocity": 70,
              "position": 8.25,
              "duration": 0.875
            },
            {
              "pitch": 59,
              "velocity": 77,
              "position": 8.5,
              "duration": 0.875
            },
            {
              "pitch": 67,
              "velocity": 96,
              "position": 9,
              "duration": 0.75
            },
            {
              "pitch": 52,
              "velocity": 85,
              "position": 9,
              "duration": 0.875
            },
            {
              "pitch": 55,
              "velocity": 77,
              "position": 9.25,
              "duration": 0.875
            },
            {
              "pitch": 59,
              "velocity": 92,
              "position": 9.5,
              "duration": 0.875
            },
            {
              "pitch": 64,
              "velocity": 96,
              "position": 9.75,
              "duration": 0.875
            },
            {
              "pitch": 48,
              "velocity": 97,
              "position": 10,
              "duration": 0.875
            },
            {
              "pitch": 64,
              "velocity": 77,
              "position": 10.75,
              "duration": 0.25
            },
            {
              "pitch": 55,
              "velocity": 77,
              "position": 10.25,
              "duration": 0.875
            },
            {
              "pitch": 59,
              "velocity": 92,
              "position": 10.5,
              "duration": 0.875
            },
            {
              "pitch": 67,
              "velocity": 92,
              "position": 11,
              "duration": 0.625
            },
            {
              "pitch": 52,
              "velocity": 96,
              "position": 11,
              "duration": 0.875
            },
            {
              "pitch": 55,
              "velocity": 85,
              "position": 11.25,
              "duration": 0.75
            },
            {
              "pitch": 59,
              "velocity": 92,
              "position": 11.5,
              "duration": 0.5
            },
            {
              "pitch": 67,
              "velocity": 96,
              "position": 11.75,
              "duration": 0.25
            },
            {
              "pitch": 64,
              "velocity": 96,
              "position": 12,
              "duration": 0.625
            },
            {
              "pitch": 48,
              "velocity": 96,
              "position": 12,
              "duration": 0.875
            },
            {
              "pitch": 64,
              "velocity": 85,
              "position": 12.75,
              "duration": 0.25
            },
            {
              "pitch": 55,
              "velocity": 77,
              "position": 12.25,
              "duration": 0.875
            },
            {
              "pitch": 59,
              "velocity": 85,
              "position": 12.5,
              "duration": 0.875
            },
            {
              "pitch": 67,
              "velocity": 96,
              "position": 13,
              "duration": 0.75
            },
            {
              "pitch": 52,
              "velocity": 96,
              "position": 13,
              "duration": 0.875
            },
            {
              "pitch": 55,
              "velocity": 58,
              "position": 13.25,
              "duration": 0.875
            },
            {
              "pitch": 59,
              "velocity": 96,
              "position": 13.5,
              "duration": 0.875
            },
            {
              "pitch": 64,
              "velocity": 96,
              "position": 13.75,
              "duration": 0.875
            },
            {
              "pitch": 48,
              "velocity": 96,
              "position": 14,
              "duration": 0.875
            },
            {
              "pitch": 64,
              "velocity": 77,
              "position": 14.75,
              "duration": 0.25
            },
            {
              "pitch": 67,
              "velocity": 96,
              "position": 15,
              "duration": 0.25
            },
            {
              "pitch": 59,
              "velocity": 96,
              "position": 14.5,
              "duration": 0.875
            },
            {
              "pitch": 55,
              "velocity": 85,
              "position": 14.25,
              "duration": 1.375
            },
            {
              "pitch": 52,
              "velocity": 96,
              "position": 15,
              "duration": 0.875
            },
            {
              "pitch": 64,
              "velocity": 92,
              "position": 15.25,
              "duration": 0.7291666666666666
            },
            {
              "pitch": 59,
              "velocity": 92,
              "position": 15.5,
              "duration": 0.4791666666666667
            },
            {
              "pitch": 55,
              "velocity": 96,
              "position": 15.75,
              "duration": 0.22916666666666666
            },
            {
              "pitch": 64,
              "velocity": 98,
              "position": 16,
              "duration": 0.625
            },
            {
              "pitch": 48,
              "velocity": 100,
              "position": 16,
              "duration": 0.875
            },
            {
              "pitch": 64,
              "velocity": 77,
              "position": 16.75,
              "duration": 0.25
            },
            {
              "pitch": 55,
              "velocity": 70,
              "position": 16.25,
              "duration": 0.875
            },
            {
              "pitch": 59,
              "velocity": 77,
              "position": 16.5,
              "duration": 0.875
            },
            {
              "pitch": 67,
              "velocity": 96,
              "position": 17,
              "duration": 0.75
            },
            {
              "pitch": 52,
              "velocity": 85,
              "position": 17,
              "duration": 0.875
            },
            {
              "pitch": 55,
              "velocity": 77,
              "position": 17.25,
              "duration": 0.875
            },
            {
              "pitch": 59,
              "velocity": 92,
              "position": 17.5,
              "duration": 0.875
            },
            {
              "pitch": 64,
              "velocity": 96,
              "position": 17.75,
              "duration": 0.875
            },
            {
              "pitch": 48,
              "velocity": 97,
              "position": 18,
              "duration": 0.875
            },
            {
              "pitch": 64,
              "velocity": 77,
              "position": 18.75,
              "duration": 0.25
            },
            {
              "pitch": 55,
              "velocity": 77,
              "position": 18.25,
              "duration": 0.875
            },
            {
              "pitch": 59,
              "velocity": 92,
              "position": 18.5,
              "duration": 0.875
            },
            {
              "pitch": 67,
              "velocity": 92,
              "position": 19,
              "duration": 0.625
            },
            {
              "pitch": 52,
              "velocity": 96,
              "position": 19,
              "duration": 0.875
            },
            {
              "pitch": 55,
              "velocity": 85,
              "position": 19.25,
              "duration": 0.75
            },
            {
              "pitch": 59,
              "velocity": 92,
              "position": 19.5,
              "duration": 0.5
            },
            {
              "pitch": 67,
              "velocity": 96,
              "position": 19.75,
              "duration": 0.25
            },
            {
              "pitch": 64,
              "velocity": 96,
              "position": 20,
              "duration": 0.625
            },
            {
              "pitch": 48,
              "velocity": 96,
              "position": 20,
              "duration": 0.875
            },
            {
              "pitch": 64,
              "velocity": 85,
              "position": 20.75,
              "duration": 0.25
            },
            {
              "pitch": 55,
              "velocity": 77,
              "position": 20.25,
              "duration": 0.875
            },
            {
              "pitch": 59,
              "velocity": 85,
              "position": 20.5,
              "duration": 0.875
            },
            {
              "pitch": 67,
              "velocity": 96,
              "position": 21,
              "duration": 0.75
            },
            {
              "pitch": 52,
              "velocity": 96,
              "position": 21,
              "duration": 0.875
            },
            {
              "pitch": 55,
              "velocity": 58,
              "position": 21.25,
              "duration": 0.875
            },
            {
              "pitch": 59,
              "velocity": 96,
              "position": 21.5,
              "duration": 0.875
            },
            {
              "pitch": 64,
              "velocity": 96,
              "position": 21.75,
              "duration": 0.875
            },
            {
              "pitch": 48,
              "velocity": 96,
              "position": 22,
              "duration": 0.875
            },
            {
              "pitch": 64,
              "velocity": 77,
              "position": 22.75,
              "duration": 0.25
            },
            {
              "pitch": 67,
              "velocity": 96,
              "position": 23,
              "duration": 0.25
            },
            {
              "pitch": 59,
              "velocity": 96,
              "position": 22.5,
              "duration": 0.875
            },
            {
              "pitch": 55,
              "velocity": 85,
              "position": 22.25,
              "duration": 1.375
            },
            {
              "pitch": 52,
              "velocity": 96,
              "position": 23,
              "duration": 0.875
            },
            {
              "pitch": 64,
              "velocity": 92,
              "position": 23.25,
              "duration": 0.7291666666666666
            },
            {
              "pitch": 59,
              "velocity": 92,
              "position": 23.5,
              "duration": 0.4791666666666667
            },
            {
              "pitch": 55,
              "velocity": 96,
              "position": 23.75,
              "duration": 0.22916666666666666
            },
            {
              "pitch": 64,
              "velocity": 98,
              "position": 24,
              "duration": 0.625
            },
            {
              "pitch": 48,
              "velocity": 100,
              "position": 24,
              "duration": 0.875
            },
            {
              "pitch": 64,
              "velocity": 77,
              "position": 24.75,
              "duration": 0.25
            },
            {
              "pitch": 55,
              "velocity": 70,
              "position": 24.25,
              "duration": 0.875
            },
            {
              "pitch": 59,
              "velocity": 77,
              "position": 24.5,
              "duration": 0.875
            },
            {
              "pitch": 67,
              "velocity": 96,
              "position": 25,
              "duration": 0.75
            },
            {
              "pitch": 52,
              "velocity": 85,
              "position": 25,
              "duration": 0.875
            },
            {
              "pitch": 55,
              "velocity": 77,
              "position": 25.25,
              "duration": 0.875
            },
            {
              "pitch": 59,
              "velocity": 92,
              "position": 25.5,
              "duration": 0.875
            },
            {
              "pitch": 64,
              "velocity": 96,
              "position": 25.75,
              "duration": 0.875
            },
            {
              "pitch": 48,
              "velocity": 97,
              "position": 26,
              "duration": 0.875
            },
            {
              "pitch": 64,
              "velocity": 77,
              "position": 26.75,
              "duration": 0.25
            },
            {
              "pitch": 55,
              "velocity": 77,
              "position": 26.25,
              "duration": 0.875
            },
            {
              "pitch": 59,
              "velocity": 92,
              "position": 26.5,
              "duration": 0.875
            },
            {
              "pitch": 67,
              "velocity": 92,
              "position": 27,
              "duration": 0.625
            },
            {
              "pitch": 52,
              "velocity": 96,
              "position": 27,
              "duration": 0.875
            },
            {
              "pitch": 55,
              "velocity": 85,
              "position": 27.25,
              "duration": 0.75
            },
            {
              "pitch": 59,
              "velocity": 92,
              "position": 27.5,
              "duration": 0.5
            },
            {
              "pitch": 67,
              "velocity": 96,
              "position": 27.75,
              "duration": 0.25
            },
            {
              "pitch": 64,
              "velocity": 96,
              "position": 28,
              "duration": 0.625
            },
            {
              "pitch": 48,
              "velocity": 96,
              "position": 28,
              "duration": 0.875
            },
            {
              "pitch": 64,
              "velocity": 85,
              "position": 28.75,
              "duration": 0.25
            },
            {
              "pitch": 55,
              "velocity": 77,
              "position": 28.25,
              "duration": 0.875
            },
            {
              "pitch": 59,
              "velocity": 85,
              "position": 28.5,
              "duration": 0.875
            },
            {
              "pitch": 67,
              "velocity": 96,
              "position": 29,
              "duration": 0.75
            },
            {
              "pitch": 52,
              "velocity": 96,
              "position": 29,
              "duration": 0.875
            },
            {
              "pitch": 55,
              "velocity": 58,
              "position": 29.25,
              "duration": 0.875
            },
            {
              "pitch": 59,
              "velocity": 96,
              "position": 29.5,
              "duration": 0.875
            },
            {
              "pitch": 64,
              "velocity": 96,
              "position": 29.75,
              "duration": 0.875
            },
            {
              "pitch": 48,
              "velocity": 96,
              "position": 30,
              "duration": 0.875
            },
            {
              "pitch": 64,
              "velocity": 77,
              "position": 30.75,
              "duration": 0.25
            },
            {
              "pitch": 67,
              "velocity": 96,
              "position": 31,
              "duration": 0.25
            },
            {
              "pitch": 59,
              "velocity": 96,
              "position": 30.5,
              "duration": 0.875
            },
            {
              "pitch": 55,
              "velocity": 85,
              "position": 30.25,
              "duration": 1.375
            },
            {
              "pitch": 52,
              "velocity": 96,
              "position": 31,
              "duration": 0.875
            },
            {
              "pitch": 64,
              "velocity": 92,
              "position": 31.25,
              "duration": 0.7291666666666666
            },
            {
              "pitch": 59,
              "velocity": 92,
              "position": 31.5,
              "duration": 0.4791666666666667
            },
            {
              "pitch": 55,
              "velocity": 96,
              "position": 31.75,
              "duration": 0.22916666666666666
            }
          ]
        }
      }
    },
    "Main_C": {
      "type": "Main_C",
      "sizeInBeats": 32,
      "channels": {
        "0": {
          "ctab": {
            "srcChannel": 0,
            "name": "SteelGtr",
            "accType": "CHORD1",
            "editable": false,
            "mutedNotes": [],
            "mutedChords": [
              "1+2+5",
              "sus4",
              "1+5",
              "1+8",
              "dim7",
              "dim",
              "minMaj7(9)",
              "minMaj7",
              "min7(11)",
              "min7(9)",
              "min(9)",
              "m7b5",
              "min7",
              "min6",
              "min",
              "aug",
              "Maj6(9)",
              "Maj7(9)",
              "Maj(9)",
              "Maj7#11",
              "Maj7",
              "Maj6",
              "Maj"
            ],
            "autoStart": false,
            "sourceChordNote": 0,
            "sourceChordType": "7th",
            "ctb2Low": null,
            "ctb2Main": {
              "ntr": "ROOT_FIXED",
              "ntt": "CHORD",
              "bassOn": false,
              "chordRootUpperLimit": 6,
              "noteLowLimit": 0,
              "noteHighLimit": 127,
              "rtr": "PITCH_SHIFT"
            },
            "ctb2High": null
          },
          "notes": [
            {
              "pitch": 58,
              "velocity": 98,
              "position": 0,
              "duration": 0.4583333333333333
            },
            {
              "pitch": 55,
              "velocity": 100,
              "position": 0,
              "duration": 1.2083333333333333
            },
            {
              "pitch": 64,
              "velocity": 98,
              "position": 0,
              "duration": 1.9583333333333333
            },
            {
              "pitch": 58,
              "velocity": 96,
              "position": 0.5,
              "duration": 2.9583333333333335
            },
            {
              "pitch": 55,
              "velocity": 96,
              "position": 1.25,
              "duration": 2.2083333333333335
            },
            {
              "pitch": 64,
              "velocity": 97,
              "position": 2,
              "duration": 1.4895833333333333
            },
            {
              "pitch": 70,
              "velocity": 98,
              "position": 2.75,
              "duration": 0.75
            },
            {
              "pitch": 64,
              "velocity": 98,
              "position": 3.5,
              "duration": 0.1875
            },
            {
              "pitch": 58,
              "velocity": 97,
              "position": 3.4791666666666665,
              "duration": 0.22916666666666666
            },
            {
              "pitch": 55,
              "velocity": 97,
              "position": 3.5,
              "duration": 0.20833333333333334
            },
            {
              "pitch": 58,
              "velocity": 70,
              "position": 3.75,
              "duration": 0.1875
            },
            {
              "pitch": 64,
              "velocity": 77,
              "position": 3.7291666666666665,
              "duration": 0.22916666666666666
            },
            {
              "pitch": 55,
              "velocity": 85,
              "position": 3.75,
              "duration": 0.20833333333333334
            },
            {
              "pitch": 58,
              "velocity": 97,
              "position": 3.9791666666666665,
              "duration": 0.4583333333333333
            },
            {
              "pitch": 55,
              "velocity": 96,
              "position": 4,
              "duration": 1.2083333333333333
            },
            {
              "pitch": 64,
              "velocity": 98,
              "position": 4,
              "duration": 1.9375
            },
            {
              "pitch": 55,
              "velocity": 98,
              "position": 5.25,
              "duration": 1.4583333333333333
            },
            {
              "pitch": 58,
              "velocity": 97,
              "position": 4.5,
              "duration": 2.9583333333333335
            },
            {
              "pitch": 55,
              "velocity": 98,
              "position": 6.75,
              "duration": 0.7083333333333334
            },
            {
              "pitch": 64,
              "velocity": 97,
              "position": 6,
              "duration": 1.4895833333333333
            },
            {
              "pitch": 64,
              "velocity": 98,
              "position": 7.5,
              "duration": 0.1875
            },
            {
              "pitch": 58,
              "velocity": 97,
              "position": 7.479166666666667,
              "duration": 0.22916666666666666
            },
            {
              "pitch": 55,
              "velocity": 97,
              "position": 7.5,
              "duration": 0.20833333333333334
            },
            {
              "pitch": 64,
              "velocity": 77,
              "position": 7.729166666666667,
              "duration": 0.20833333333333334
            },
            {
              "pitch": 58,
              "velocity": 70,
              "position": 7.75,
              "duration": 0.1875
            },
            {
              "pitch": 55,
              "velocity": 85,
              "position": 7.75,
              "duration": 0.20833333333333334
            },
            {
              "pitch": 58,
              "velocity": 98,
              "position": 8,
              "duration": 0.4583333333333333
            },
            {
              "pitch": 55,
              "velocity": 100,
              "position": 8,
              "duration": 1.2083333333333333
            },
            {
              "pitch": 64,
              "velocity": 98,
              "position": 8,
              "duration": 1.9583333333333333
            },
            {
              "pitch": 58,
              "velocity": 96,
              "position": 8.5,
              "duration": 2.9583333333333335
            },
            {
              "pitch": 55,
              "velocity": 96,
              "position": 9.25,
              "duration": 2.2083333333333335
            },
            {
              "pitch": 64,
              "velocity": 97,
              "position": 10,
              "duration": 1.4895833333333333
            },
            {
              "pitch": 70,
              "velocity": 98,
              "position": 10.75,
              "duration": 0.75
            },
            {
              "pitch": 64,
              "velocity": 98,
              "position": 11.5,
              "duration": 0.1875
            },
            {
              "pitch": 58,
              "velocity": 97,
              "position": 11.479166666666666,
              "duration": 0.22916666666666666
            },
            {
              "pitch": 55,
              "velocity": 97,
              "position": 11.5,
              "duration": 0.20833333333333334
            },
            {
              "pitch": 58,
              "velocity": 70,
              "position": 11.75,
              "duration": 0.1875
            },
            {
              "pitch": 64,
              "velocity": 77,
              "position": 11.729166666666666,
              "duration": 0.22916666666666666
            },
            {
              "pitch": 55,
              "velocity": 85,
              "position": 11.75,
              "duration": 0.20833333333333334
            },
            {
              "pitch": 58,
              "velocity": 97,
              "position": 11.979166666666666,
              "duration": 0.4583333333333333
            },
            {
              "pitch": 55,
              "velocity": 96,
              "position": 12,
              "duration": 1.2083333333333333
            },
            {
              "pitch": 64,
              "velocity": 98,
              "position": 12,
              "duration": 1.9375
            },
            {
              "pitch": 55,
              "velocity": 98,
              "position": 13.25,
              "duration": 1.4583333333333333
            },
            {
              "pitch": 58,
              "velocity": 97,
              "position": 12.5,
              "duration": 2.9583333333333335
            },
            {
              "pitch": 55,
              "velocity": 98,
              "position": 14.75,
              "duration": 0.7083333333333334
            },
            {
              "pitch": 64,
              "velocity": 97,
              "position": 14,
              "duration": 1.4895833333333333
            },
            {
              "pitch": 64,
              "velocity": 98,
              "position": 15.5,
              "duration": 0.1875
            },
            {
              "pitch": 58,
              "velocity": 97,
              "position": 15.479166666666666,
              "duration": 0.22916666666666666
            },
            {
              "pitch": 55,
              "velocity": 97,
              "position": 15.5,
              "duration": 0.20833333333333334
            },
            {
              "pitch": 58,
              "velocity": 70,
              "position": 15.75,
              "duration": 0.1875
            },
            {
              "pitch": 64,
              "velocity": 77,
              "position": 15.729166666666666,
              "duration": 0.22916666666666666
            },
            {
              "pitch": 55,
              "velocity": 85,
              "position": 15.75,
              "duration": 0.20833333333333334
            },
            {
              "pitch": 58,
              "velocity": 98,
              "position": 16,
              "duration": 0.4583333333333333
            },
            {
              "pitch": 55,
              "velocity": 100,
              "position": 16,
              "duration": 1.2083333333333333
            },
            {
              "pitch": 64,
              "velocity": 98,
              "position": 16,
              "duration": 1.9583333333333333
            },
            {
              "pitch": 58,
              "velocity": 96,
              "position": 16.5,
              "duration": 2.9583333333333335
            },
            {
              "pitch": 55,
              "velocity": 96,
              "position": 17.25,
              "duration": 2.2083333333333335
            },
            {
              "pitch": 64,
              "velocity": 97,
              "position": 18,
              "duration": 1.4895833333333333
            },
            {
              "pitch": 70,
              "velocity": 98,
              "position": 18.75,
              "duration": 0.75
            },
            {
              "pitch": 64,
              "velocity": 98,
              "position": 19.5,
              "duration": 0.1875
            },
            {
              "pitch": 58,
              "velocity": 97,
              "position": 19.479166666666668,
              "duration": 0.22916666666666666
            },
            {
              "pitch": 55,
              "velocity": 97,
              "position": 19.5,
              "duration": 0.20833333333333334
            },
            {
              "pitch": 58,
              "velocity": 70,
              "position": 19.75,
              "duration": 0.1875
            },
            {
              "pitch": 64,
              "velocity": 77,
              "position": 19.729166666666668,
              "duration": 0.22916666666666666
            },
            {
              "pitch": 55,
              "velocity": 85,
              "position": 19.75,
              "duration": 0.20833333333333334
            },
            {
              "pitch": 58,
              "velocity": 97,
              "position": 19.979166666666668,
              "duration": 0.4583333333333333
            },
            {
              "pitch": 55,
              "velocity": 96,
              "position": 20,
              "duration": 1.2083333333333333
            },
            {
              "pitch": 64,
              "velocity": 98,
              "position": 20,
              "duration": 1.9375
            },
            {
              "pitch": 55,
              "velocity": 98,
              "position": 21.25,
              "duration": 1.4583333333333333
            },
            {
              "pitch": 58,
              "velocity": 97,
              "position": 20.5,
              "duration": 2.9583333333333335
            },
            {
              "pitch": 55,
              "velocity": 98,
              "position": 22.75,
              "duration": 0.7083333333333334
            },
            {
              "pitch": 64,
              "velocity": 97,
              "position": 22,
              "duration": 1.4895833333333333
            },
            {
              "pitch": 64,
              "velocity": 98,
              "position": 23.5,
              "duration": 0.1875
            },
            {
              "pitch": 58,
              "velocity": 97,
              "position": 23.479166666666668,
              "duration": 0.22916666666666666
            },
            {
              "pitch": 55,
              "velocity": 97,
              "position": 23.5,
              "duration": 0.20833333333333334
            },
            {
              "pitch": 64,
              "velocity": 77,
              "position": 23.729166666666668,
              "duration": 0.20833333333333334
            },
            {
              "pitch": 58,
              "velocity": 70,
              "position": 23.75,
              "duration": 0.1875
            },
            {
              "pitch": 55,
              "velocity": 85,
              "position": 23.75,
              "duration": 0.20833333333333334
            },
            {
              "pitch": 58,
              "velocity": 98,
              "position": 24,
              "duration": 0.4583333333333333
            },
            {
              "pitch": 55,
              "velocity": 100,
              "position": 24,
              "duration": 1.2083333333333333
            },
            {
              "pitch": 64,
              "velocity": 98,
              "position": 24,
              "duration": 1.9583333333333333
            },
            {
              "pitch": 58,
              "velocity": 96,
              "position": 24.5,
              "duration": 2.9583333333333335
            },
            {
              "pitch": 55,
              "velocity": 96,
              "position": 25.25,
              "duration": 2.2083333333333335
            },
            {
              "pitch": 64,
              "velocity": 97,
              "position": 26,
              "duration": 1.4895833333333333
            },
            {
              "pitch": 70,
              "velocity": 98,
              "position": 26.75,
              "duration": 0.75
            },
            {
              "pitch": 64,
              "velocity": 98,
              "position": 27.5,
              "duration": 0.1875
            },
            {
              "pitch": 58,
              "velocity": 97,
              "position": 27.479166666666668,
              "duration": 0.22916666666666666
            },
            {
              "pitch": 55,
              "velocity": 97,
              "position": 27.5,
              "duration": 0.20833333333333334
            },
            {
              "pitch": 58,
              "velocity": 70,
              "position": 27.75,
              "duration": 0.1875
            },
            {
              "pitch": 64,
              "velocity": 77,
              "position": 27.729166666666668,
              "duration": 0.22916666666666666
            },
            {
              "pitch": 55,
              "velocity": 85,
              "position": 27.75,
              "duration": 0.20833333333333334
            },
            {
              "pitch": 58,
              "velocity": 97,
              "position": 27.979166666666668,
              "duration": 0.4583333333333333
            },
            {
              "pitch": 55,
              "velocity": 96,
              "position": 28,
              "duration": 1.2083333333333333
            },
            {
              "pitch": 64,
              "velocity": 98,
              "position": 28,
              "duration": 1.9375
            },
            {
              "pitch": 55,
              "velocity": 98,
              "position": 29.25,
              "duration": 1.4583333333333333
            },
            {
              "pitch": 58,
              "velocity": 97,
              "position": 28.5,
              "duration": 2.9583333333333335
            },
            {
              "pitch": 55,
              "velocity": 98,
              "position": 30.75,
              "duration": 0.7083333333333334
            },
            {
              "pitch": 64,
              "velocity": 97,
              "position": 30,
              "duration": 1.4895833333333333
            },
            {
              "pitch": 64,
              "velocity": 98,
              "position": 31.5,
              "duration": 0.1875
            },
            {
              "pitch": 58,
              "velocity": 97,
              "position": 31.479166666666668,
              "duration": 0.22916666666666666
            },
            {
              "pitch": 55,
              "velocity": 97,
              "position": 31.5,
              "duration": 0.20833333333333334
            },
            {
              "pitch": 64,
              "velocity": 77,
              "position": 31.729166666666668,
              "duration": 0.20833333333333334
            },
            {
              "pitch": 58,
              "velocity": 70,
              "position": 31.75,
              "duration": 0.1875
            },
            {
              "pitch": 55,
              "velocity": 85,
              "position": 31.75,
              "duration": 0.20833333333333334
            }
          ]
        },
        "2": {
          "ctab": {
            "srcChannel": 2,
            "name": "SteelGtr",
            "accType": "CHORD2",
            "editable": false,
            "mutedNotes": [],
            "mutedChords": [
              "7aug",
              "Maj7aug",
              "7(#9)",
              "7(b13)",
              "7(b9)",
              "7(13)",
              "7#11",
              "7(9)",
              "7b5",
              "7sus4",
              "7th"
            ],
            "autoStart": false,
            "sourceChordNote": 0,
            "sourceChordType": "Maj7",
            "ctb2Low": null,
            "ctb2Main": {
              "ntr": "ROOT_FIXED",
              "ntt": "CHORD",
              "bassOn": false,
              "chordRootUpperLimit": 6,
              "noteLowLimit": 0,
              "noteHighLimit": 127,
              "rtr": "PITCH_SHIFT"
            },
            "ctb2High": null
          },
          "notes": [
            {
              "pitch": 64,
              "velocity": 98,
              "position": 0,
              "duration": 0.625
            },
            {
              "pitch": 48,
              "velocity": 100,
              "position": 0,
              "duration": 0.875
            },
            {
              "pitch": 64,
              "velocity": 77,
              "position": 0.75,
              "duration": 0.25
            },
            {
              "pitch": 55,
              "velocity": 70,
              "position": 0.25,
              "duration": 0.875
            },
            {
              "pitch": 59,
              "velocity": 77,
              "position": 0.5,
              "duration": 0.875
            },
            {
              "pitch": 67,
              "velocity": 96,
              "position": 1,
              "duration": 0.75
            },
            {
              "pitch": 52,
              "velocity": 85,
              "position": 1,
              "duration": 0.875
            },
            {
              "pitch": 55,
              "velocity": 77,
              "position": 1.25,
              "duration": 0.75
            },
            {
              "pitch": 59,
              "velocity": 92,
              "position": 1.5,
              "duration": 0.875
            },
            {
              "pitch": 64,
              "velocity": 96,
              "position": 1.75,
              "duration": 0.875
            },
            {
              "pitch": 48,
              "velocity": 97,
              "position": 2,
              "duration": 0.875
            },
            {
              "pitch": 64,
              "velocity": 77,
              "position": 2.75,
              "duration": 0.25
            },
            {
              "pitch": 55,
              "velocity": 77,
              "position": 2.25,
              "duration": 0.875
            },
            {
              "pitch": 59,
              "velocity": 92,
              "position": 2.5,
              "duration": 0.875
            },
            {
              "pitch": 67,
              "velocity": 92,
              "position": 3,
              "duration": 0.75
            },
            {
              "pitch": 52,
              "velocity": 96,
              "position": 3,
              "duration": 0.875
            },
            {
              "pitch": 55,
              "velocity": 85,
              "position": 3.25,
              "duration": 0.75
            },
            {
              "pitch": 59,
              "velocity": 92,
              "position": 3.5,
              "duration": 0.5
            },
            {
              "pitch": 71,
              "velocity": 96,
              "position": 3.75,
              "duration": 0.25
            },
            {
              "pitch": 64,
              "velocity": 96,
              "position": 4,
              "duration": 0.625
            },
            {
              "pitch": 48,
              "velocity": 96,
              "position": 4,
              "duration": 0.875
            },
            {
              "pitch": 64,
              "velocity": 85,
              "position": 4.75,
              "duration": 0.25
            },
            {
              "pitch": 55,
              "velocity": 77,
              "position": 4.25,
              "duration": 0.875
            },
            {
              "pitch": 59,
              "velocity": 85,
              "position": 4.5,
              "duration": 0.875
            },
            {
              "pitch": 67,
              "velocity": 96,
              "position": 5,
              "duration": 0.75
            },
            {
              "pitch": 52,
              "velocity": 96,
              "position": 5,
              "duration": 0.875
            },
            {
              "pitch": 55,
              "velocity": 58,
              "position": 5.25,
              "duration": 0.75
            },
            {
              "pitch": 59,
              "velocity": 96,
              "position": 5.5,
              "duration": 0.875
            },
            {
              "pitch": 64,
              "velocity": 96,
              "position": 5.75,
              "duration": 0.875
            },
            {
              "pitch": 48,
              "velocity": 96,
              "position": 6,
              "duration": 0.875
            },
            {
              "pitch": 64,
              "velocity": 77,
              "position": 6.75,
              "duration": 0.25
            },
            {
              "pitch": 67,
              "velocity": 96,
              "position": 7,
              "duration": 0.25
            },
            {
              "pitch": 59,
              "velocity": 96,
              "position": 6.5,
              "duration": 0.875
            },
            {
              "pitch": 55,
              "velocity": 85,
              "position": 6.25,
              "duration": 1.375
            },
            {
              "pitch": 52,
              "velocity": 96,
              "position": 7,
              "duration": 0.875
            },
            {
              "pitch": 71,
              "velocity": 92,
              "position": 7.25,
              "duration": 0.7291666666666666
            },
            {
              "pitch": 59,
              "velocity": 92,
              "position": 7.5,
              "duration": 0.4791666666666667
            },
            {
              "pitch": 55,
              "velocity": 96,
              "position": 7.75,
              "duration": 0.22916666666666666
            },
            {
              "pitch": 64,
              "velocity": 98,
              "position": 8,
              "duration": 0.625
            },
            {
              "pitch": 48,
              "velocity": 100,
              "position": 8,
              "duration": 0.875
            },
            {
              "pitch": 64,
              "velocity": 77,
              "position": 8.75,
              "duration": 0.25
            },
            {
              "pitch": 55,
              "velocity": 70,
              "position": 8.25,
              "duration": 0.875
            },
            {
              "pitch": 59,
              "velocity": 77,
              "position": 8.5,
              "duration": 0.875
            },
            {
              "pitch": 67,
              "velocity": 96,
              "position": 9,
              "duration": 0.75
            },
            {
              "pitch": 52,
              "velocity": 85,
              "position": 9,
              "duration": 0.875
            },
            {
              "pitch": 55,
              "velocity": 77,
              "position": 9.25,
              "duration": 0.75
            },
            {
              "pitch": 59,
              "velocity": 92,
              "position": 9.5,
              "duration": 0.875
            },
            {
              "pitch": 64,
              "velocity": 96,
              "position": 9.75,
              "duration": 0.875
            },
            {
              "pitch": 48,
              "velocity": 97,
              "position": 10,
              "duration": 0.875
            },
            {
              "pitch": 64,
              "velocity": 77,
              "position": 10.75,
              "duration": 0.25
            },
            {
              "pitch": 55,
              "velocity": 77,
              "position": 10.25,
              "duration": 0.875
            },
            {
              "pitch": 59,
              "velocity": 92,
              "position": 10.5,
              "duration": 0.875
            },
            {
              "pitch": 67,
              "velocity": 92,
              "position": 11,
              "duration": 0.75
            },
            {
              "pitch": 52,
              "velocity": 96,
              "position": 11,
              "duration": 0.875
            },
            {
              "pitch": 55,
              "velocity": 85,
              "position": 11.25,
              "duration": 0.75
            },
            {
              "pitch": 59,
              "velocity": 92,
              "position": 11.5,
              "duration": 0.5
            },
            {
              "pitch": 71,
              "velocity": 96,
              "position": 11.75,
              "duration": 0.25
            },
            {
              "pitch": 64,
              "velocity": 96,
              "position": 12,
              "duration": 0.625
            },
            {
              "pitch": 48,
              "velocity": 96,
              "position": 12,
              "duration": 0.875
            },
            {
              "pitch": 64,
              "velocity": 85,
              "position": 12.75,
              "duration": 0.25
            },
            {
              "pitch": 55,
              "velocity": 77,
              "position": 12.25,
              "duration": 0.875
            },
            {
              "pitch": 59,
              "velocity": 85,
              "position": 12.5,
              "duration": 0.875
            },
            {
              "pitch": 67,
              "velocity": 96,
              "position": 13,
              "duration": 0.75
            },
            {
              "pitch": 52,
              "velocity": 96,
              "position": 13,
              "duration": 0.875
            },
            {
              "pitch": 55,
              "velocity": 58,
              "position": 13.25,
              "duration": 0.75
            },
            {
              "pitch": 59,
              "velocity": 96,
              "position": 13.5,
              "duration": 0.875
            },
            {
              "pitch": 64,
              "velocity": 96,
              "position": 13.75,
              "duration": 0.875
            },
            {
              "pitch": 48,
              "velocity": 96,
              "position": 14,
              "duration": 0.875
            },
            {
              "pitch": 64,
              "velocity": 77,
              "position": 14.75,
              "duration": 0.25
            },
            {
              "pitch": 67,
              "velocity": 96,
              "position": 15,
              "duration": 0.25
            },
            {
              "pitch": 59,
              "velocity": 96,
              "position": 14.5,
              "duration": 0.875
            },
            {
              "pitch": 55,
              "velocity": 85,
              "position": 14.25,
              "duration": 1.375
            },
            {
              "pitch": 52,
              "velocity": 96,
              "position": 15,
              "duration": 0.875
            },
            {
              "pitch": 71,
              "velocity": 92,
              "position": 15.25,
              "duration": 0.7291666666666666
            },
            {
              "pitch": 59,
              "velocity": 92,
              "position": 15.5,
              "duration": 0.4791666666666667
            },
            {
              "pitch": 55,
              "velocity": 96,
              "position": 15.75,
              "duration": 0.22916666666666666
            },
            {
              "pitch": 64,
              "velocity": 98,
              "position": 16,
              "duration": 0.625
            },
            {
              "pitch": 48,
              "velocity": 100,
              "position": 16,
              "duration": 0.875
            },
            {
              "pitch": 64,
              "velocity": 77,
              "position": 16.75,
              "duration": 0.25
            },
            {
              "pitch": 55,
              "velocity": 70,
              "position": 16.25,
              "duration": 0.875
            },
            {
              "pitch": 59,
              "velocity": 77,
              "position": 16.5,
              "duration": 0.875
            },
            {
              "pitch": 67,
              "velocity": 96,
              "position": 17,
              "duration": 0.75
            },
            {
              "pitch": 52,
              "velocity": 85,
              "position": 17,
              "duration": 0.875
            },
            {
              "pitch": 55,
              "velocity": 77,
              "position": 17.25,
              "duration": 0.75
            },
            {
              "pitch": 59,
              "velocity": 92,
              "position": 17.5,
              "duration": 0.875
            },
            {
              "pitch": 64,
              "velocity": 96,
              "position": 17.75,
              "duration": 0.875
            },
            {
              "pitch": 48,
              "velocity": 97,
              "position": 18,
              "duration": 0.875
            },
            {
              "pitch": 64,
              "velocity": 77,
              "position": 18.75,
              "duration": 0.25
            },
            {
              "pitch": 55,
              "velocity": 77,
              "position": 18.25,
              "duration": 0.875
            },
            {
              "pitch": 59,
              "velocity": 92,
              "position": 18.5,
              "duration": 0.875
            },
            {
              "pitch": 67,
              "velocity": 92,
              "position": 19,
              "duration": 0.75
            },
            {
              "pitch": 52,
              "velocity": 96,
              "position": 19,
              "duration": 0.875
            },
            {
              "pitch": 55,
              "velocity": 85,
              "position": 19.25,
              "duration": 0.75
            },
            {
              "pitch": 59,
              "velocity": 92,
              "position": 19.5,
              "duration": 0.5
            },
            {
              "pitch": 71,
              "velocity": 96,
              "position": 19.75,
              "duration": 0.25
            },
            {
              "pitch": 64,
              "velocity": 96,
              "position": 20,
              "duration": 0.625
            },
            {
              "pitch": 48,
              "velocity": 96,
              "position": 20,
              "duration": 0.875
            },
            {
              "pitch": 64,
              "velocity": 85,
              "position": 20.75,
              "duration": 0.25
            },
            {
              "pitch": 55,
              "velocity": 77,
              "position": 20.25,
              "duration": 0.875
            },
            {
              "pitch": 59,
              "velocity": 85,
              "position": 20.5,
              "duration": 0.875
            },
            {
              "pitch": 67,
              "velocity": 96,
              "position": 21,
              "duration": 0.75
            },
            {
              "pitch": 52,
              "velocity": 96,
              "position": 21,
              "duration": 0.875
            },
            {
              "pitch": 55,
              "velocity": 58,
              "position": 21.25,
              "duration": 0.75
            },
            {
              "pitch": 59,
              "velocity": 96,
              "position": 21.5,
              "duration": 0.875
            },
            {
              "pitch": 64,
              "velocity": 96,
              "position": 21.75,
              "duration": 0.875
            },
            {
              "pitch": 48,
              "velocity": 96,
              "position": 22,
              "duration": 0.875
            },
            {
              "pitch": 64,
              "velocity": 77,
              "position": 22.75,
              "duration": 0.25
            },
            {
              "pitch": 67,
              "velocity": 96,
              "position": 23,
              "duration": 0.25
            },
            {
              "pitch": 59,
              "velocity": 96,
              "position": 22.5,
              "duration": 0.875
            },
            {
              "pitch": 55,
              "velocity": 85,
              "position": 22.25,
              "duration": 1.375
            },
            {
              "pitch": 52,
              "velocity": 96,
              "position": 23,
              "duration": 0.875
            },
            {
              "pitch": 71,
              "velocity": 92,
              "position": 23.25,
              "duration": 0.7291666666666666
            },
            {
              "pitch": 59,
              "velocity": 92,
              "position": 23.5,
              "duration": 0.4791666666666667
            },
            {
              "pitch": 55,
              "velocity": 96,
              "position": 23.75,
              "duration": 0.22916666666666666
            },
            {
              "pitch": 64,
              "velocity": 98,
              "position": 24,
              "duration": 0.625
            },
            {
              "pitch": 48,
              "velocity": 100,
              "position": 24,
              "duration": 0.875
            },
            {
              "pitch": 64,
              "velocity": 77,
              "position": 24.75,
              "duration": 0.25
            },
            {
              "pitch": 55,
              "velocity": 70,
              "position": 24.25,
              "duration": 0.875
            },
            {
              "pitch": 59,
              "velocity": 77,
              "position": 24.5,
              "duration": 0.875
            },
            {
              "pitch": 67,
              "velocity": 96,
              "position": 25,
              "duration": 0.75
            },
            {
              "pitch": 52,
              "velocity": 85,
              "position": 25,
              "duration": 0.875
            },
            {
              "pitch": 55,
              "velocity": 77,
              "position": 25.25,
              "duration": 0.75
            },
            {
              "pitch": 59,
              "velocity": 92,
              "position": 25.5,
              "duration": 0.875
            },
            {
              "pitch": 64,
              "velocity": 96,
              "position": 25.75,
              "duration": 0.875
            },
            {
              "pitch": 48,
              "velocity": 97,
              "position": 26,
              "duration": 0.875
            },
            {
              "pitch": 64,
              "velocity": 77,
              "position": 26.75,
              "duration": 0.25
            },
            {
              "pitch": 55,
              "velocity": 77,
              "position": 26.25,
              "duration": 0.875
            },
            {
              "pitch": 59,
              "velocity": 92,
              "position": 26.5,
              "duration": 0.875
            },
            {
              "pitch": 67,
              "velocity": 92,
              "position": 27,
              "duration": 0.75
            },
            {
              "pitch": 52,
              "velocity": 96,
              "position": 27,
              "duration": 0.875
            },
            {
              "pitch": 55,
              "velocity": 85,
              "position": 27.25,
              "duration": 0.75
            },
            {
              "pitch": 59,
              "velocity": 92,
              "position": 27.5,
              "duration": 0.5
            },
            {
              "pitch": 71,
              "velocity": 96,
              "position": 27.75,
              "duration": 0.25
            },
            {
              "pitch": 64,
              "velocity": 96,
              "position": 28,
              "duration": 0.625
            },
            {
              "pitch": 48,
              "velocity": 96,
              "position": 28,
              "duration": 0.875
            },
            {
              "pitch": 64,
              "velocity": 85,
              "position": 28.75,
              "duration": 0.25
            },
            {
              "pitch": 55,
              "velocity": 77,
              "position": 28.25,
              "duration": 0.875
            },
            {
              "pitch": 59,
              "velocity": 85,
              "position": 28.5,
              "duration": 0.875
            },
            {
              "pitch": 67,
              "velocity": 96,
              "position": 29,
              "duration": 0.75
            },
            {
              "pitch": 52,
              "velocity": 96,
              "position": 29,
              "duration": 0.875
            },
            {
              "pitch": 55,
              "velocity": 58,
              "position": 29.25,
              "duration": 0.75
            },
            {
              "pitch": 59,
              "velocity": 96,
              "position": 29.5,
              "duration": 0.875
            },
            {
              "pitch": 64,
              "velocity": 96,
              "position": 29.75,
              "duration": 0.875
            },
            {
              "pitch": 48,
              "velocity": 96,
              "position": 30,
              "duration": 0.875
            },
            {
              "pitch": 64,
              "velocity": 77,
              "position": 30.75,
              "duration": 0.25
            },
            {
              "pitch": 67,
              "velocity": 96,
              "position": 31,
              "duration": 0.25
            },
            {
              "pitch": 59,
              "velocity": 96,
              "position": 30.5,
              "duration": 0.875
            },
            {
              "pitch": 55,
              "velocity": 85,
              "position": 30.25,
              "duration": 1.375
            },
            {
              "pitch": 52,
              "velocity": 96,
              "position": 31,
              "duration": 0.875
            },
            {
              "pitch": 71,
              "velocity": 92,
              "position": 31.25,
              "duration": 0.7291666666666666
            },
            {
              "pitch": 59,
              "velocity": 92,
              "position": 31.5,
              "duration": 0.4791666666666667
            },
            {
              "pitch": 55,
              "velocity": 96,
              "position": 31.75,
              "duration": 0.22916666666666666
            }
          ]
        },
        "3": {
          "ctab": {
            "srcChannel": 3,
            "name": "SteelGtr",
            "accType": "CHORD2",
            "editable": false,
            "mutedNotes": [],
            "mutedChords": [
              "1+2+5",
              "sus4",
              "1+5",
              "1+8",
              "dim7",
              "dim",
              "minMaj7(9)",
              "minMaj7",
              "min7(11)",
              "min7(9)",
              "min(9)",
              "m7b5",
              "min7",
              "min6",
              "min",
              "aug",
              "Maj6(9)",
              "Maj7(9)",
              "Maj(9)",
              "Maj7#11",
              "Maj7",
              "Maj6",
              "Maj"
            ],
            "autoStart": false,
            "sourceChordNote": 0,
            "sourceChordType": "7th",
            "ctb2Low": null,
            "ctb2Main": {
              "ntr": "ROOT_FIXED",
              "ntt": "CHORD",
              "bassOn": false,
              "chordRootUpperLimit": 6,
              "noteLowLimit": 0,
              "noteHighLimit": 127,
              "rtr": "PITCH_SHIFT"
            },
            "ctb2High": null
          },
          "notes": [
            {
              "pitch": 64,
              "velocity": 98,
              "position": 0,
              "duration": 0.625
            },
            {
              "pitch": 48,
              "velocity": 100,
              "position": 0,
              "duration": 0.875
            },
            {
              "pitch": 64,
              "velocity": 77,
              "position": 0.75,
              "duration": 0.25
            },
            {
              "pitch": 58,
              "velocity": 70,
              "position": 0.25,
              "duration": 0.875
            },
            {
              "pitch": 55,
              "velocity": 77,
              "position": 0.5,
              "duration": 0.875
            },
            {
              "pitch": 70,
              "velocity": 96,
              "position": 1,
              "duration": 0.75
            },
            {
              "pitch": 52,
              "velocity": 85,
              "position": 1,
              "duration": 0.875
            },
            {
              "pitch": 58,
              "velocity": 77,
              "position": 1.25,
              "duration": 0.75
            },
            {
              "pitch": 55,
              "velocity": 92,
              "position": 1.5,
              "duration": 0.875
            },
            {
              "pitch": 64,
              "velocity": 96,
              "position": 1.75,
              "duration": 0.875
            },
            {
              "pitch": 48,
              "velocity": 97,
              "position": 2,
              "duration": 0.875
            },
            {
              "pitch": 64,
              "velocity": 77,
              "position": 2.75,
              "duration": 0.25
            },
            {
              "pitch": 58,
              "velocity": 77,
              "position": 2.25,
              "duration": 0.875
            },
            {
              "pitch": 55,
              "velocity": 92,
              "position": 2.5,
              "duration": 0.875
            },
            {
              "pitch": 70,
              "velocity": 92,
              "position": 3,
              "duration": 0.75
            },
            {
              "pitch": 52,
              "velocity": 96,
              "position": 3,
              "duration": 0.875
            },
            {
              "pitch": 58,
              "velocity": 85,
              "position": 3.25,
              "duration": 0.75
            },
            {
              "pitch": 55,
              "velocity": 92,
              "position": 3.5,
              "duration": 0.5
            },
            {
              "pitch": 67,
              "velocity": 96,
              "position": 3.75,
              "duration": 0.25
            },
            {
              "pitch": 64,
              "velocity": 96,
              "position": 4,
              "duration": 0.625
            },
            {
              "pitch": 48,
              "velocity": 96,
              "position": 4,
              "duration": 0.875
            },
            {
              "pitch": 64,
              "velocity": 85,
              "position": 4.75,
              "duration": 0.25
            },
            {
              "pitch": 58,
              "velocity": 77,
              "position": 4.25,
              "duration": 0.875
            },
            {
              "pitch": 55,
              "velocity": 85,
              "position": 4.5,
              "duration": 0.875
            },
            {
              "pitch": 70,
              "velocity": 96,
              "position": 5,
              "duration": 0.75
            },
            {
              "pitch": 52,
              "velocity": 96,
              "position": 5,
              "duration": 0.875
            },
            {
              "pitch": 58,
              "velocity": 58,
              "position": 5.25,
              "duration": 0.75
            },
            {
              "pitch": 55,
              "velocity": 96,
              "position": 5.5,
              "duration": 0.875
            },
            {
              "pitch": 64,
              "velocity": 96,
              "position": 5.75,
              "duration": 0.875
            },
            {
              "pitch": 48,
              "velocity": 96,
              "position": 6,
              "duration": 0.875
            },
            {
              "pitch": 64,
              "velocity": 77,
              "position": 6.75,
              "duration": 0.25
            },
            {
              "pitch": 70,
              "velocity": 96,
              "position": 7,
              "duration": 0.25
            },
            {
              "pitch": 55,
              "velocity": 96,
              "position": 6.5,
              "duration": 0.875
            },
            {
              "pitch": 58,
              "velocity": 85,
              "position": 6.25,
              "duration": 1.375
            },
            {
              "pitch": 52,
              "velocity": 96,
              "position": 7,
              "duration": 0.875
            },
            {
              "pitch": 67,
              "velocity": 92,
              "position": 7.25,
              "duration": 0.7291666666666666
            },
            {
              "pitch": 55,
              "velocity": 92,
              "position": 7.5,
              "duration": 0.4791666666666667
            },
            {
              "pitch": 58,
              "velocity": 96,
              "position": 7.75,
              "duration": 0.22916666666666666
            },
            {
              "pitch": 64,
              "velocity": 98,
              "position": 8,
              "duration": 0.625
            },
            {
              "pitch": 48,
              "velocity": 100,
              "position": 8,
              "duration": 0.875
            },
            {
              "pitch": 64,
              "velocity": 77,
              "position": 8.75,
              "duration": 0.25
            },
            {
              "pitch": 58,
              "velocity": 70,
              "position": 8.25,
              "duration": 0.875
            },
            {
              "pitch": 55,
              "velocity": 77,
              "position": 8.5,
              "duration": 0.875
            },
            {
              "pitch": 70,
              "velocity": 96,
              "position": 9,
              "duration": 0.75
            },
            {
              "pitch": 52,
              "velocity": 85,
              "position": 9,
              "duration": 0.875
            },
            {
              "pitch": 58,
              "velocity": 77,
              "position": 9.25,
              "duration": 0.75
            },
            {
              "pitch": 55,
              "velocity": 92,
              "position": 9.5,
              "duration": 0.875
            },
            {
              "pitch": 64,
              "velocity": 96,
              "position": 9.75,
              "duration": 0.875
            },
            {
              "pitch": 48,
              "velocity": 97,
              "position": 10,
              "duration": 0.875
            },
            {
              "pitch": 64,
              "velocity": 77,
              "position": 10.75,
              "duration": 0.25
            },
            {
              "pitch": 58,
              "velocity": 77,
              "position": 10.25,
              "duration": 0.875
            },
            {
              "pitch": 55,
              "velocity": 92,
              "position": 10.5,
              "duration": 0.875
            },
            {
              "pitch": 70,
              "velocity": 92,
              "position": 11,
              "duration": 0.75
            },
            {
              "pitch": 52,
              "velocity": 96,
              "position": 11,
              "duration": 0.875
            },
            {
              "pitch": 58,
              "velocity": 85,
              "position": 11.25,
              "duration": 0.75
            },
            {
              "pitch": 55,
              "velocity": 92,
              "position": 11.5,
              "duration": 0.5
            },
            {
              "pitch": 67,
              "velocity": 96,
              "position": 11.75,
              "duration": 0.25
            },
            {
              "pitch": 64,
              "velocity": 96,
              "position": 12,
              "duration": 0.625
            },
            {
              "pitch": 48,
              "velocity": 96,
              "position": 12,
              "duration": 0.875
            },
            {
              "pitch": 64,
              "velocity": 85,
              "position": 12.75,
              "duration": 0.25
            },
            {
              "pitch": 58,
              "velocity": 77,
              "position": 12.25,
              "duration": 0.875
            },
            {
              "pitch": 55,
              "velocity": 85,
              "position": 12.5,
              "duration": 0.875
            },
            {
              "pitch": 70,
              "velocity": 96,
              "position": 13,
              "duration": 0.75
            },
            {
              "pitch": 52,
              "velocity": 96,
              "position": 13,
              "duration": 0.875
            },
            {
              "pitch": 58,
              "velocity": 58,
              "position": 13.25,
              "duration": 0.75
            },
            {
              "pitch": 55,
              "velocity": 96,
              "position": 13.5,
              "duration": 0.875
            },
            {
              "pitch": 64,
              "velocity": 96,
              "position": 13.75,
              "duration": 0.875
            },
            {
              "pitch": 48,
              "velocity": 96,
              "position": 14,
              "duration": 0.875
            },
            {
              "pitch": 64,
              "velocity": 77,
              "position": 14.75,
              "duration": 0.25
            },
            {
              "pitch": 70,
              "velocity": 96,
              "position": 15,
              "duration": 0.25
            },
            {
              "pitch": 55,
              "velocity": 96,
              "position": 14.5,
              "duration": 0.875
            },
            {
              "pitch": 58,
              "velocity": 85,
              "position": 14.25,
              "duration": 1.375
            },
            {
              "pitch": 52,
              "velocity": 96,
              "position": 15,
              "duration": 0.875
            },
            {
              "pitch": 67,
              "velocity": 92,
              "position": 15.25,
              "duration": 0.7291666666666666
            },
            {
              "pitch": 55,
              "velocity": 92,
              "position": 15.5,
              "duration": 0.4791666666666667
            },
            {
              "pitch": 58,
              "velocity": 96,
              "position": 15.75,
              "duration": 0.22916666666666666
            },
            {
              "pitch": 64,
              "velocity": 98,
              "position": 16,
              "duration": 0.625
            },
            {
              "pitch": 48,
              "velocity": 100,
              "position": 16,
              "duration": 0.875
            },
            {
              "pitch": 64,
              "velocity": 77,
              "position": 16.75,
              "duration": 0.25
            },
            {
              "pitch": 58,
              "velocity": 70,
              "position": 16.25,
              "duration": 0.875
            },
            {
              "pitch": 55,
              "velocity": 77,
              "position": 16.5,
              "duration": 0.875
            },
            {
              "pitch": 70,
              "velocity": 96,
              "position": 17,
              "duration": 0.75
            },
            {
              "pitch": 52,
              "velocity": 85,
              "position": 17,
              "duration": 0.875
            },
            {
              "pitch": 58,
              "velocity": 77,
              "position": 17.25,
              "duration": 0.75
            },
            {
              "pitch": 55,
              "velocity": 92,
              "position": 17.5,
              "duration": 0.875
            },
            {
              "pitch": 64,
              "velocity": 96,
              "position": 17.75,
              "duration": 0.875
            },
            {
              "pitch": 48,
              "velocity": 97,
              "position": 18,
              "duration": 0.875
            },
            {
              "pitch": 64,
              "velocity": 77,
              "position": 18.75,
              "duration": 0.25
            },
            {
              "pitch": 58,
              "velocity": 77,
              "position": 18.25,
              "duration": 0.875
            },
            {
              "pitch": 55,
              "velocity": 92,
              "position": 18.5,
              "duration": 0.875
            },
            {
              "pitch": 70,
              "velocity": 92,
              "position": 19,
              "duration": 0.75
            },
            {
              "pitch": 52,
              "velocity": 96,
              "position": 19,
              "duration": 0.875
            },
            {
              "pitch": 58,
              "velocity": 85,
              "position": 19.25,
              "duration": 0.75
            },
            {
              "pitch": 55,
              "velocity": 92,
              "position": 19.5,
              "duration": 0.5
            },
            {
              "pitch": 67,
              "velocity": 96,
              "position": 19.75,
              "duration": 0.25
            },
            {
              "pitch": 64,
              "velocity": 96,
              "position": 20,
              "duration": 0.625
            },
            {
              "pitch": 48,
              "velocity": 96,
              "position": 20,
              "duration": 0.875
            },
            {
              "pitch": 64,
              "velocity": 85,
              "position": 20.75,
              "duration": 0.25
            },
            {
              "pitch": 58,
              "velocity": 77,
              "position": 20.25,
              "duration": 0.875
            },
            {
              "pitch": 55,
              "velocity": 85,
              "position": 20.5,
              "duration": 0.875
            },
            {
              "pitch": 70,
              "velocity": 96,
              "position": 21,
              "duration": 0.75
            },
            {
              "pitch": 52,
              "velocity": 96,
              "position": 21,
              "duration": 0.875
            },
            {
              "pitch": 58,
              "velocity": 58,
              "position": 21.25,
              "duration": 0.75
            },
            {
              "pitch": 55,
              "velocity": 96,
              "position": 21.5,
              "duration": 0.875
            },
            {
              "pitch": 64,
              "velocity": 96,
              "position": 21.75,
              "duration": 0.875
            },
            {
              "pitch": 48,
              "velocity": 96,
              "position": 22,
              "duration": 0.875
            },
            {
              "pitch": 64,
              "velocity": 77,
              "position": 22.75,
              "duration": 0.25
            },
            {
              "pitch": 70,
              "velocity": 96,
              "position": 23,
              "duration": 0.25
            },
            {
              "pitch": 55,
              "velocity": 96,
              "position": 22.5,
              "duration": 0.875
            },
            {
              "pitch": 58,
              "velocity": 85,
              "position": 22.25,
              "duration": 1.375
            },
            {
              "pitch": 52,
              "velocity": 96,
              "position": 23,
              "duration": 0.875
            },
            {
              "pitch": 67,
              "velocity": 92,
              "position": 23.25,
              "duration": 0.7291666666666666
            },
            {
              "pitch": 55,
              "velocity": 92,
              "position": 23.5,
              "duration": 0.4791666666666667
            },
            {
              "pitch": 58,
              "velocity": 96,
              "position": 23.75,
              "duration": 0.22916666666666666
            },
            {
              "pitch": 64,
              "velocity": 98,
              "position": 24,
              "duration": 0.625
            },
            {
              "pitch": 48,
              "velocity": 100,
              "position": 24,
              "duration": 0.875
            },
            {
              "pitch": 64,
              "velocity": 77,
              "position": 24.75,
              "duration": 0.25
            },
            {
              "pitch": 58,
              "velocity": 70,
              "position": 24.25,
              "duration": 0.875
            },
            {
              "pitch": 55,
              "velocity": 77,
              "position": 24.5,
              "duration": 0.875
            },
            {
              "pitch": 70,
              "velocity": 96,
              "position": 25,
              "duration": 0.75
            },
            {
              "pitch": 52,
              "velocity": 85,
              "position": 25,
              "duration": 0.875
            },
            {
              "pitch": 58,
              "velocity": 77,
              "position": 25.25,
              "duration": 0.75
            },
            {
              "pitch": 55,
              "velocity": 92,
              "position": 25.5,
              "duration": 0.875
            },
            {
              "pitch": 64,
              "velocity": 96,
              "position": 25.75,
              "duration": 0.875
            },
            {
              "pitch": 48,
              "velocity": 97,
              "position": 26,
              "duration": 0.875
            },
            {
              "pitch": 64,
              "velocity": 77,
              "position": 26.75,
              "duration": 0.25
            },
            {
              "pitch": 58,
              "velocity": 77,
              "position": 26.25,
              "duration": 0.875
            },
            {
              "pitch": 55,
              "velocity": 92,
              "position": 26.5,
              "duration": 0.875
            },
            {
              "pitch": 70,
              "velocity": 92,
              "position": 27,
              "duration": 0.75
            },
            {
              "pitch": 52,
              "velocity": 96,
              "position": 27,
              "duration": 0.875
            },
            {
              "pitch": 58,
              "velocity": 85,
              "position": 27.25,
              "duration": 0.75
            },
            {
              "pitch": 55,
              "velocity": 92,
              "position": 27.5,
              "duration": 0.5
            },
            {
              "pitch": 67,
              "velocity": 96,
              "position": 27.75,
              "duration": 0.25
            },
            {
              "pitch": 64,
              "velocity": 96,
              "position": 28,
              "duration": 0.625
            },
            {
              "pitch": 48,
              "velocity": 96,
              "position": 28,
              "duration": 0.875
            },
            {
              "pitch": 64,
              "velocity": 85,
              "position": 28.75,
              "duration": 0.25
            },
            {
              "pitch": 58,
              "velocity": 77,
              "position": 28.25,
              "duration": 0.875
            },
            {
              "pitch": 55,
              "velocity": 85,
              "position": 28.5,
              "duration": 0.875
            },
            {
              "pitch": 70,
              "velocity": 96,
              "position": 29,
              "duration": 0.75
            },
            {
              "pitch": 52,
              "velocity": 96,
              "position": 29,
              "duration": 0.875
            },
            {
              "pitch": 58,
              "velocity": 58,
              "position": 29.25,
              "duration": 0.75
            },
            {
              "pitch": 55,
              "velocity": 96,
              "position": 29.5,
              "duration": 0.875
            },
            {
              "pitch": 64,
              "velocity": 96,
              "position": 29.75,
              "duration": 0.875
            },
            {
              "pitch": 48,
              "velocity": 96,
              "position": 30,
              "duration": 0.875
            },
            {
              "pitch": 64,
              "velocity": 77,
              "position": 30.75,
              "duration": 0.25
            },
            {
              "pitch": 70,
              "velocity": 96,
              "position": 31,
              "duration": 0.25
            },
            {
              "pitch": 55,
              "velocity": 96,
              "position": 30.5,
              "duration": 0.875
            },
            {
              "pitch": 58,
              "velocity": 85,
              "position": 30.25,
              "duration": 1.375
            },
            {
              "pitch": 52,
              "velocity": 96,
              "position": 31,
              "duration": 0.875
            },
            {
              "pitch": 67,
              "velocity": 92,
              "position": 31.25,
              "duration": 0.7291666666666666
            },
            {
              "pitch": 55,
              "velocity": 92,
              "position": 31.5,
              "duration": 0.4791666666666667
            },
            {
              "pitch": 58,
              "velocity": 96,
              "position": 31.75,
              "duration": 0.22916666666666666
            }
          ]
        },
        "4": {
          "ctab": {
            "srcChannel": 4,
            "name": "Strings1",
            "accType": "PAD",
            "editable": false,
            "mutedNotes": [],
            "mutedChords": [
              "7aug",
              "Maj7aug",
              "7(#9)",
              "7(b13)",
              "7(b9)",
              "7(13)",
              "7#11",
              "7(9)",
              "7b5",
              "7sus4",
              "7th",
              "dim7",
              "dim",
              "minMaj7(9)",
              "minMaj7",
              "min7(11)",
              "min7(9)",
              "min(9)",
              "m7b5",
              "min7",
              "min6",
              "min"
            ],
            "autoStart": false,
            "sourceChordNote": 0,
            "sourceChordType": "Maj7",
            "ctb2Low": null,
            "ctb2Main": {
              "ntr": "ROOT_FIXED",
              "ntt": "CHORD",
              "bassOn": false,
              "chordRootUpperLimit": 6,
              "noteLowLimit": 0,
              "noteHighLimit": 127,
              "rtr": "PITCH_SHIFT"
            },
            "ctb2High": null
          },
          "notes": [
            {
              "pitch": 55,
              "velocity": 94,
              "position": 0,
              "duration": 2.9791666666666665
            },
            {
              "pitch": 55,
              "velocity": 94,
              "position": 3,
              "duration": 0.9791666666666666
            },
            {
              "pitch": 55,
              "velocity": 94,
              "position": 4,
              "duration": 2.25
            },
            {
              "pitch": 52,
              "velocity": 94,
              "position": 6.25,
              "duration": 0.25
            },
            {
              "pitch": 55,
              "velocity": 94,
              "position": 6.5,
              "duration": 0.25
            },
            {
              "pitch": 59,
              "velocity": 94,
              "position": 6.75,
              "duration": 0.2708333333333333
            },
            {
              "pitch": 55,
              "velocity": 94,
              "position": 10,
              "duration": 0.9791666666666666
            },
            {
              "pitch": 55,
              "velocity": 94,
              "position": 11,
              "duration": 0.9583333333333334
            },
            {
              "pitch": 48,
              "velocity": 49,
              "position": 0,
              "duration": 15.979166666666666
            },
            {
              "pitch": 55,
              "velocity": 94,
              "position": 12,
              "duration": 3.9791666666666665
            },
            {
              "pitch": 55,
              "velocity": 94,
              "position": 16,
              "duration": 2.9791666666666665
            },
            {
              "pitch": 55,
              "velocity": 94,
              "position": 19,
              "duration": 0.9791666666666666
            },
            {
              "pitch": 52,
              "velocity": 94,
              "position": 7,
              "duration": 15.229166666666666
            },
            {
              "pitch": 55,
              "velocity": 94,
              "position": 20,
              "duration": 2.25
            },
            {
              "pitch": 52,
              "velocity": 94,
              "position": 22.25,
              "duration": 0.25
            },
            {
              "pitch": 55,
              "velocity": 94,
              "position": 22.5,
              "duration": 0.25
            },
            {
              "pitch": 59,
              "velocity": 94,
              "position": 22.75,
              "duration": 0.2708333333333333
            },
            {
              "pitch": 55,
              "velocity": 94,
              "position": 26,
              "duration": 0.9791666666666666
            },
            {
              "pitch": 55,
              "velocity": 94,
              "position": 27,
              "duration": 0.9583333333333334
            },
            {
              "pitch": 48,
              "velocity": 49,
              "position": 16,
              "duration": 15.979166666666666
            },
            {
              "pitch": 52,
              "velocity": 94,
              "position": 23,
              "duration": 9
            },
            {
              "pitch": 55,
              "velocity": 94,
              "position": 28,
              "duration": 4
            }
          ]
        },
        "5": {
          "ctab": {
            "srcChannel": 5,
            "name": "Strings1",
            "accType": "PAD",
            "editable": false,
            "mutedNotes": [],
            "mutedChords": [
              "1+2+5",
              "sus4",
              "1+5",
              "1+8",
              "7aug",
              "Maj7aug",
              "7(#9)",
              "7(b13)",
              "7(b9)",
              "7(13)",
              "7#11",
              "7(9)",
              "7b5",
              "7sus4",
              "7th",
              "aug",
              "Maj6(9)",
              "Maj7(9)",
              "Maj(9)",
              "Maj7#11",
              "Maj7",
              "Maj6",
              "Maj"
            ],
            "autoStart": false,
            "sourceChordNote": 0,
            "sourceChordType": "minMaj7",
            "ctb2Low": null,
            "ctb2Main": {
              "ntr": "ROOT_FIXED",
              "ntt": "CHORD",
              "bassOn": false,
              "chordRootUpperLimit": 6,
              "noteLowLimit": 0,
              "noteHighLimit": 127,
              "rtr": "PITCH_SHIFT"
            },
            "ctb2High": null
          },
          "notes": [
            {
              "pitch": 55,
              "velocity": 94,
              "position": 0,
              "duration": 2.9791666666666665
            },
            {
              "pitch": 55,
              "velocity": 94,
              "position": 3,
              "duration": 0.9791666666666666
            },
            {
              "pitch": 55,
              "velocity": 94,
              "position": 4,
              "duration": 2.25
            },
            {
              "pitch": 51,
              "velocity": 94,
              "position": 6.25,
              "duration": 0.25
            },
            {
              "pitch": 55,
              "velocity": 94,
              "position": 6.5,
              "duration": 0.25
            },
            {
              "pitch": 59,
              "velocity": 94,
              "position": 6.75,
              "duration": 0.2708333333333333
            },
            {
              "pitch": 55,
              "velocity": 94,
              "position": 10,
              "duration": 0.9791666666666666
            },
            {
              "pitch": 55,
              "velocity": 94,
              "position": 11,
              "duration": 0.9583333333333334
            },
            {
              "pitch": 48,
              "velocity": 49,
              "position": 0,
              "duration": 15.979166666666666
            },
            {
              "pitch": 55,
              "velocity": 94,
              "position": 12,
              "duration": 3.9791666666666665
            },
            {
              "pitch": 55,
              "velocity": 94,
              "position": 16,
              "duration": 2.9791666666666665
            },
            {
              "pitch": 55,
              "velocity": 94,
              "position": 19,
              "duration": 0.9791666666666666
            },
            {
              "pitch": 51,
              "velocity": 94,
              "position": 7,
              "duration": 15.229166666666666
            },
            {
              "pitch": 55,
              "velocity": 94,
              "position": 20,
              "duration": 2.25
            },
            {
              "pitch": 51,
              "velocity": 94,
              "position": 22.25,
              "duration": 0.25
            },
            {
              "pitch": 55,
              "velocity": 94,
              "position": 22.5,
              "duration": 0.25
            },
            {
              "pitch": 59,
              "velocity": 94,
              "position": 22.75,
              "duration": 0.2708333333333333
            },
            {
              "pitch": 55,
              "velocity": 94,
              "position": 26,
              "duration": 0.9791666666666666
            },
            {
              "pitch": 55,
              "velocity": 94,
              "position": 27,
              "duration": 0.9583333333333334
            },
            {
              "pitch": 48,
              "velocity": 49,
              "position": 16,
              "duration": 15.979166666666666
            },
            {
              "pitch": 55,
              "velocity": 94,
              "position": 28,
              "duration": 3.9791666666666665
            },
            {
              "pitch": 51,
              "velocity": 94,
              "position": 23,
              "duration": 9
            }
          ]
        },
        "6": {
          "ctab": {
            "srcChannel": 6,
            "name": "Strings1",
            "accType": "PAD",
            "editable": false,
            "mutedNotes": [],
            "mutedChords": [
              "1+2+5",
              "sus4",
              "1+5",
              "1+8",
              "dim7",
              "dim",
              "minMaj7(9)",
              "minMaj7",
              "min7(11)",
              "min7(9)",
              "min(9)",
              "m7b5",
              "min7",
              "min6",
              "min",
              "aug",
              "Maj6(9)",
              "Maj7(9)",
              "Maj(9)",
              "Maj7#11",
              "Maj7",
              "Maj6",
              "Maj"
            ],
            "autoStart": false,
            "sourceChordNote": 0,
            "sourceChordType": "7th",
            "ctb2Low": null,
            "ctb2Main": {
              "ntr": "ROOT_FIXED",
              "ntt": "CHORD",
              "bassOn": false,
              "chordRootUpperLimit": 6,
              "noteLowLimit": 0,
              "noteHighLimit": 127,
              "rtr": "PITCH_SHIFT"
            },
            "ctb2High": null
          },
          "notes": [
            {
              "pitch": 58,
              "velocity": 94,
              "position": 0,
              "duration": 2.9791666666666665
            },
            {
              "pitch": 58,
              "velocity": 94,
              "position": 3,
              "duration": 0.9791666666666666
            },
            {
              "pitch": 58,
              "velocity": 94,
              "position": 4,
              "duration": 2.25
            },
            {
              "pitch": 52,
              "velocity": 94,
              "position": 6.25,
              "duration": 0.25
            },
            {
              "pitch": 58,
              "velocity": 94,
              "position": 6.5,
              "duration": 0.25
            },
            {
              "pitch": 55,
              "velocity": 94,
              "position": 6.75,
              "duration": 0.2708333333333333
            },
            {
              "pitch": 58,
              "velocity": 94,
              "position": 10,
              "duration": 0.9791666666666666
            },
            {
              "pitch": 58,
              "velocity": 94,
              "position": 11,
              "duration": 0.9583333333333334
            },
            {
              "pitch": 48,
              "velocity": 49,
              "position": 0,
              "duration": 15.979166666666666
            },
            {
              "pitch": 58,
              "velocity": 94,
              "position": 12,
              "duration": 3.9791666666666665
            },
            {
              "pitch": 58,
              "velocity": 94,
              "position": 16,
              "duration": 2.9791666666666665
            },
            {
              "pitch": 58,
              "velocity": 94,
              "position": 19,
              "duration": 0.9791666666666666
            },
            {
              "pitch": 52,
              "velocity": 94,
              "position": 7,
              "duration": 15.229166666666666
            },
            {
              "pitch": 58,
              "velocity": 94,
              "position": 20,
              "duration": 2.25
            },
            {
              "pitch": 52,
              "velocity": 94,
              "position": 22.25,
              "duration": 0.25
            },
            {
              "pitch": 58,
              "velocity": 94,
              "position": 22.5,
              "duration": 0.25
            },
            {
              "pitch": 55,
              "velocity": 94,
              "position": 22.75,
              "duration": 0.2708333333333333
            },
            {
              "pitch": 58,
              "velocity": 94,
              "position": 26,
              "duration": 0.9791666666666666
            },
            {
              "pitch": 58,
              "velocity": 94,
              "position": 27,
              "duration": 0.9583333333333334
            },
            {
              "pitch": 48,
              "velocity": 49,
              "position": 16,
              "duration": 15.979166666666666
            },
            {
              "pitch": 52,
              "velocity": 94,
              "position": 23,
              "duration": 9
            },
            {
              "pitch": 58,
              "velocity": 94,
              "position": 28,
              "duration": 4
            }
          ]
        },
        "8": {
          "ctab": {
            "srcChannel": 8,
            "name": "Std.Kit1",
            "accType": "RHYTHM",
            "editable": false,
            "mutedNotes": [],
            "mutedChords": [],
            "autoStart": true,
            "sourceChordNote": 0,
            "sourceChordType": "Maj7",
            "ctb2Low": null,
            "ctb2Main": {
              "ntr": "ROOT_FIXED",
              "ntt": "BYPASS",
              "bassOn": false,
              "chordRootUpperLimit": 6,
              "noteLowLimit": 0,
              "noteHighLimit": 127,
              "rtr": "PITCH_SHIFT"
            },
            "ctb2High": null
          },
          "notes": [
            {
              "pitch": 42,
              "velocity": 112,
              "position": 0,
              "duration": 0.14583333333333334
            },
            {
              "pitch": 44,
              "velocity": 58,
              "position": 0,
              "duration": 0.14583333333333334
            },
            {
              "pitch": 35,
              "velocity": 100,
              "position": 0,
              "duration": 0.16666666666666666
            },
            {
              "pitch": 42,
              "velocity": 55,
              "position": 0.5,
              "duration": 0.16666666666666666
            },
            {
              "pitch": 38,
              "velocity": 69,
              "position": 1,
              "duration": 0.125
            },
            {
              "pitch": 42,
              "velocity": 92,
              "position": 1,
              "duration": 0.14583333333333334
            },
            {
              "pitch": 44,
              "velocity": 58,
              "position": 1,
              "duration": 0.16666666666666666
            },
            {
              "pitch": 42,
              "velocity": 55,
              "position": 1.5,
              "duration": 0.16666666666666666
            },
            {
              "pitch": 35,
              "velocity": 44,
              "position": 1.75,
              "duration": 0.16666666666666666
            },
            {
              "pitch": 42,
              "velocity": 112,
              "position": 2,
              "duration": 0.14583333333333334
            },
            {
              "pitch": 35,
              "velocity": 100,
              "position": 2,
              "duration": 0.16666666666666666
            },
            {
              "pitch": 44,
              "velocity": 58,
              "position": 2,
              "duration": 0.16666666666666666
            },
            {
              "pitch": 42,
              "velocity": 55,
              "position": 2.5,
              "duration": 0.16666666666666666
            },
            {
              "pitch": 38,
              "velocity": 69,
              "position": 3,
              "duration": 0.125
            },
            {
              "pitch": 42,
              "velocity": 112,
              "position": 3,
              "duration": 0.14583333333333334
            },
            {
              "pitch": 44,
              "velocity": 58,
              "position": 3,
              "duration": 0.14583333333333334
            },
            {
              "pitch": 42,
              "velocity": 55,
              "position": 3.5,
              "duration": 0.16666666666666666
            },
            {
              "pitch": 42,
              "velocity": 112,
              "position": 4,
              "duration": 0.14583333333333334
            },
            {
              "pitch": 35,
              "velocity": 100,
              "position": 4,
              "duration": 0.16666666666666666
            },
            {
              "pitch": 44,
              "velocity": 58,
              "position": 4,
              "duration": 0.16666666666666666
            },
            {
              "pitch": 42,
              "velocity": 55,
              "position": 4.5,
              "duration": 0.16666666666666666
            },
            {
              "pitch": 38,
              "velocity": 69,
              "position": 5,
              "duration": 0.125
            },
            {
              "pitch": 42,
              "velocity": 92,
              "position": 5,
              "duration": 0.14583333333333334
            },
            {
              "pitch": 44,
              "velocity": 58,
              "position": 5,
              "duration": 0.14583333333333334
            },
            {
              "pitch": 42,
              "velocity": 55,
              "position": 5.5,
              "duration": 0.16666666666666666
            },
            {
              "pitch": 35,
              "velocity": 44,
              "position": 5.75,
              "duration": 0.16666666666666666
            },
            {
              "pitch": 35,
              "velocity": 100,
              "position": 6,
              "duration": 0.16666666666666666
            },
            {
              "pitch": 42,
              "velocity": 112,
              "position": 6,
              "duration": 0.16666666666666666
            },
            {
              "pitch": 44,
              "velocity": 58,
              "position": 6,
              "duration": 0.16666666666666666
            },
            {
              "pitch": 42,
              "velocity": 55,
              "position": 6.5,
              "duration": 0.16666666666666666
            },
            {
              "pitch": 38,
              "velocity": 69,
              "position": 7,
              "duration": 0.125
            },
            {
              "pitch": 42,
              "velocity": 112,
              "position": 7,
              "duration": 0.14583333333333334
            },
            {
              "pitch": 44,
              "velocity": 58,
              "position": 7,
              "duration": 0.16666666666666666
            },
            {
              "pitch": 35,
              "velocity": 44,
              "position": 7.5,
              "duration": 0.16666666666666666
            },
            {
              "pitch": 46,
              "velocity": 58,
              "position": 7.5,
              "duration": 0.4583333333333333
            },
            {
              "pitch": 44,
              "velocity": 58,
              "position": 8,
              "duration": 0.14583333333333334
            },
            {
              "pitch": 42,
              "velocity": 112,
              "position": 8,
              "duration": 0.14583333333333334
            },
            {
              "pitch": 35,
              "velocity": 100,
              "position": 8,
              "duration": 0.16666666666666666
            },
            {
              "pitch": 42,
              "velocity": 55,
              "position": 8.5,
              "duration": 0.16666666666666666
            },
            {
              "pitch": 38,
              "velocity": 69,
              "position": 9,
              "duration": 0.125
            },
            {
              "pitch": 42,
              "velocity": 92,
              "position": 9,
              "duration": 0.14583333333333334
            },
            {
              "pitch": 44,
              "velocity": 58,
              "position": 9,
              "duration": 0.16666666666666666
            },
            {
              "pitch": 42,
              "velocity": 55,
              "position": 9.5,
              "duration": 0.16666666666666666
            },
            {
              "pitch": 35,
              "velocity": 44,
              "position": 9.75,
              "duration": 0.16666666666666666
            },
            {
              "pitch": 42,
              "velocity": 112,
              "position": 10,
              "duration": 0.14583333333333334
            },
            {
              "pitch": 35,
              "velocity": 100,
              "position": 10,
              "duration": 0.16666666666666666
            },
            {
              "pitch": 44,
              "velocity": 58,
              "position": 10,
              "duration": 0.16666666666666666
            },
            {
              "pitch": 42,
              "velocity": 55,
              "position": 10.5,
              "duration": 0.16666666666666666
            },
            {
              "pitch": 38,
              "velocity": 69,
              "position": 11,
              "duration": 0.125
            },
            {
              "pitch": 42,
              "velocity": 112,
              "position": 11,
              "duration": 0.14583333333333334
            },
            {
              "pitch": 44,
              "velocity": 58,
              "position": 11,
              "duration": 0.16666666666666666
            },
            {
              "pitch": 42,
              "velocity": 55,
              "position": 11.5,
              "duration": 0.16666666666666666
            },
            {
              "pitch": 46,
              "velocity": 58,
              "position": 8,
              "duration": 3.9583333333333335
            },
            {
              "pitch": 42,
              "velocity": 112,
              "position": 12,
              "duration": 0.14583333333333334
            },
            {
              "pitch": 35,
              "velocity": 100,
              "position": 12,
              "duration": 0.16666666666666666
            },
            {
              "pitch": 44,
              "velocity": 58,
              "position": 12,
              "duration": 0.16666666666666666
            },
            {
              "pitch": 42,
              "velocity": 55,
              "position": 12.5,
              "duration": 0.16666666666666666
            },
            {
              "pitch": 38,
              "velocity": 69,
              "position": 13,
              "duration": 0.125
            },
            {
              "pitch": 42,
              "velocity": 92,
              "position": 13,
              "duration": 0.14583333333333334
            },
            {
              "pitch": 44,
              "velocity": 58,
              "position": 13,
              "duration": 0.16666666666666666
            },
            {
              "pitch": 42,
              "velocity": 55,
              "position": 13.5,
              "duration": 0.16666666666666666
            },
            {
              "pitch": 35,
              "velocity": 44,
              "position": 13.75,
              "duration": 0.16666666666666666
            },
            {
              "pitch": 42,
              "velocity": 112,
              "position": 14,
              "duration": 0.14583333333333334
            },
            {
              "pitch": 35,
              "velocity": 100,
              "position": 14,
              "duration": 0.16666666666666666
            },
            {
              "pitch": 44,
              "velocity": 58,
              "position": 14,
              "duration": 0.16666666666666666
            },
            {
              "pitch": 42,
              "velocity": 55,
              "position": 14.5,
              "duration": 0.16666666666666666
            },
            {
              "pitch": 38,
              "velocity": 69,
              "position": 15,
              "duration": 0.125
            },
            {
              "pitch": 42,
              "velocity": 112,
              "position": 15,
              "duration": 0.14583333333333334
            },
            {
              "pitch": 44,
              "velocity": 58,
              "position": 15,
              "duration": 0.16666666666666666
            },
            {
              "pitch": 42,
              "velocity": 55,
              "position": 15.5,
              "duration": 0.16666666666666666
            },
            {
              "pitch": 42,
              "velocity": 112,
              "position": 16,
              "duration": 0.14583333333333334
            },
            {
              "pitch": 44,
              "velocity": 58,
              "position": 16,
              "duration": 0.14583333333333334
            },
            {
              "pitch": 35,
              "velocity": 100,
              "position": 16,
              "duration": 0.16666666666666666
            },
            {
              "pitch": 42,
              "velocity": 55,
              "position": 16.5,
              "duration": 0.16666666666666666
            },
            {
              "pitch": 38,
              "velocity": 69,
              "position": 17,
              "duration": 0.125
            },
            {
              "pitch": 42,
              "velocity": 92,
              "position": 17,
              "duration": 0.14583333333333334
            },
            {
              "pitch": 44,
              "velocity": 58,
              "position": 17,
              "duration": 0.16666666666666666
            },
            {
              "pitch": 42,
              "velocity": 55,
              "position": 17.5,
              "duration": 0.16666666666666666
            },
            {
              "pitch": 35,
              "velocity": 44,
              "position": 17.75,
              "duration": 0.16666666666666666
            },
            {
              "pitch": 42,
              "velocity": 112,
              "position": 18,
              "duration": 0.14583333333333334
            },
            {
              "pitch": 35,
              "velocity": 100,
              "position": 18,
              "duration": 0.16666666666666666
            },
            {
              "pitch": 44,
              "velocity": 58,
              "position": 18,
              "duration": 0.16666666666666666
            },
            {
              "pitch": 42,
              "velocity": 55,
              "position": 18.5,
              "duration": 0.16666666666666666
            },
            {
              "pitch": 38,
              "velocity": 69,
              "position": 19,
              "duration": 0.125
            },
            {
              "pitch": 42,
              "velocity": 112,
              "position": 19,
              "duration": 0.14583333333333334
            },
            {
              "pitch": 44,
              "velocity": 58,
              "position": 19,
              "duration": 0.14583333333333334
            },
            {
              "pitch": 42,
              "velocity": 55,
              "position": 19.5,
              "duration": 0.16666666666666666
            },
            {
              "pitch": 42,
              "velocity": 112,
              "position": 20,
              "duration": 0.14583333333333334
            },
            {
              "pitch": 35,
              "velocity": 100,
              "position": 20,
              "duration": 0.16666666666666666
            },
            {
              "pitch": 44,
              "velocity": 58,
              "position": 20,
              "duration": 0.16666666666666666
            },
            {
              "pitch": 42,
              "velocity": 55,
              "position": 20.5,
              "duration": 0.16666666666666666
            },
            {
              "pitch": 38,
              "velocity": 69,
              "position": 21,
              "duration": 0.125
            },
            {
              "pitch": 42,
              "velocity": 92,
              "position": 21,
              "duration": 0.14583333333333334
            },
            {
              "pitch": 44,
              "velocity": 58,
              "position": 21,
              "duration": 0.14583333333333334
            },
            {
              "pitch": 42,
              "velocity": 55,
              "position": 21.5,
              "duration": 0.16666666666666666
            },
            {
              "pitch": 35,
              "velocity": 44,
              "position": 21.75,
              "duration": 0.16666666666666666
            },
            {
              "pitch": 35,
              "velocity": 100,
              "position": 22,
              "duration": 0.16666666666666666
            },
            {
              "pitch": 42,
              "velocity": 112,
              "position": 22,
              "duration": 0.16666666666666666
            },
            {
              "pitch": 44,
              "velocity": 58,
              "position": 22,
              "duration": 0.16666666666666666
            },
            {
              "pitch": 42,
              "velocity": 55,
              "position": 22.5,
              "duration": 0.16666666666666666
            },
            {
              "pitch": 38,
              "velocity": 69,
              "position": 23,
              "duration": 0.125
            },
            {
              "pitch": 42,
              "velocity": 112,
              "position": 23,
              "duration": 0.14583333333333334
            },
            {
              "pitch": 44,
              "velocity": 58,
              "position": 23,
              "duration": 0.16666666666666666
            },
            {
              "pitch": 35,
              "velocity": 44,
              "position": 23.5,
              "duration": 0.16666666666666666
            },
            {
              "pitch": 46,
              "velocity": 58,
              "position": 23.5,
              "duration": 0.4583333333333333
            },
            {
              "pitch": 44,
              "velocity": 58,
              "position": 24,
              "duration": 0.14583333333333334
            },
            {
              "pitch": 42,
              "velocity": 112,
              "position": 24,
              "duration": 0.14583333333333334
            },
            {
              "pitch": 35,
              "velocity": 100,
              "position": 24,
              "duration": 0.16666666666666666
            },
            {
              "pitch": 42,
              "velocity": 55,
              "position": 24.5,
              "duration": 0.16666666666666666
            },
            {
              "pitch": 38,
              "velocity": 69,
              "position": 25,
              "duration": 0.125
            },
            {
              "pitch": 42,
              "velocity": 92,
              "position": 25,
              "duration": 0.14583333333333334
            },
            {
              "pitch": 44,
              "velocity": 58,
              "position": 25,
              "duration": 0.16666666666666666
            },
            {
              "pitch": 42,
              "velocity": 55,
              "position": 25.5,
              "duration": 0.16666666666666666
            },
            {
              "pitch": 35,
              "velocity": 44,
              "position": 25.75,
              "duration": 0.16666666666666666
            },
            {
              "pitch": 42,
              "velocity": 112,
              "position": 26,
              "duration": 0.14583333333333334
            },
            {
              "pitch": 35,
              "velocity": 100,
              "position": 26,
              "duration": 0.16666666666666666
            },
            {
              "pitch": 44,
              "velocity": 58,
              "position": 26,
              "duration": 0.16666666666666666
            },
            {
              "pitch": 42,
              "velocity": 55,
              "position": 26.5,
              "duration": 0.16666666666666666
            },
            {
              "pitch": 38,
              "velocity": 69,
              "position": 27,
              "duration": 0.125
            },
            {
              "pitch": 42,
              "velocity": 112,
              "position": 27,
              "duration": 0.14583333333333334
            },
            {
              "pitch": 44,
              "velocity": 58,
              "position": 27,
              "duration": 0.16666666666666666
            },
            {
              "pitch": 42,
              "velocity": 55,
              "position": 27.5,
              "duration": 0.16666666666666666
            },
            {
              "pitch": 46,
              "velocity": 58,
              "position": 24,
              "duration": 3.9583333333333335
            },
            {
              "pitch": 42,
              "velocity": 112,
              "position": 28,
              "duration": 0.14583333333333334
            },
            {
              "pitch": 35,
              "velocity": 100,
              "position": 28,
              "duration": 0.16666666666666666
            },
            {
              "pitch": 44,
              "velocity": 58,
              "position": 28,
              "duration": 0.16666666666666666
            },
            {
              "pitch": 42,
              "velocity": 55,
              "position": 28.5,
              "duration": 0.16666666666666666
            },
            {
              "pitch": 38,
              "velocity": 69,
              "position": 29,
              "duration": 0.125
            },
            {
              "pitch": 42,
              "velocity": 92,
              "position": 29,
              "duration": 0.14583333333333334
            },
            {
              "pitch": 44,
              "velocity": 58,
              "position": 29,
              "duration": 0.16666666666666666
            },
            {
              "pitch": 42,
              "velocity": 55,
              "position": 29.5,
              "duration": 0.16666666666666666
            },
            {
              "pitch": 35,
              "velocity": 44,
              "position": 29.75,
              "duration": 0.16666666666666666
            },
            {
              "pitch": 35,
              "velocity": 100,
              "position": 30,
              "duration": 0.16666666666666666
            },
            {
              "pitch": 42,
              "velocity": 112,
              "position": 30,
              "duration": 0.16666666666666666
            },
            {
              "pitch": 44,
              "velocity": 58,
              "position": 30,
              "duration": 0.16666666666666666
            },
            {
              "pitch": 42,
              "velocity": 55,
              "position": 30.5,
              "duration": 0.16666666666666666
            },
            {
              "pitch": 38,
              "velocity": 69,
              "position": 31,
              "duration": 0.125
            },
            {
              "pitch": 42,
              "velocity": 112,
              "position": 31,
              "duration": 0.14583333333333334
            },
            {
              "pitch": 44,
              "velocity": 58,
              "position": 31,
              "duration": 0.14583333333333334
            },
            {
              "pitch": 42,
              "velocity": 55,
              "position": 31.5,
              "duration": 0.14583333333333334
            },
            {
              "pitch": 35,
              "velocity": 100,
              "position": 31.5,
              "duration": 0.16666666666666666
            },
            {
              "pitch": 46,
              "velocity": 58,
              "position": 31.5,
              "duration": 0.4791666666666667
            }
          ]
        },
        "10": {
          "ctab": {
            "srcChannel": 10,
            "name": "Std.Kit1",
            "accType": "SUBRHYTHM",
            "editable": false,
            "mutedNotes": [],
            "mutedChords": [],
            "autoStart": true,
            "sourceChordNote": 0,
            "sourceChordType": "Maj7",
            "ctb2Low": null,
            "ctb2Main": {
              "ntr": "ROOT_FIXED",
              "ntt": "BYPASS",
              "bassOn": false,
              "chordRootUpperLimit": 6,
              "noteLowLimit": 0,
              "noteHighLimit": 127,
              "rtr": "PITCH_SHIFT"
            },
            "ctb2High": null
          },
          "notes": [
            {
              "pitch": 69,
              "velocity": 74,
              "position": 0,
              "duration": 0.125
            },
            {
              "pitch": 62,
              "velocity": 77,
              "position": 0,
              "duration": 0.125
            },
            {
              "pitch": 63,
              "velocity": 60,
              "position": 0.5,
              "duration": 0.125
            },
            {
              "pitch": 69,
              "velocity": 49,
              "position": 0.5,
              "duration": 0.125
            },
            {
              "pitch": 62,
              "velocity": 77,
              "position": 0.75,
              "duration": 0.125
            },
            {
              "pitch": 69,
              "velocity": 74,
              "position": 1,
              "duration": 0.125
            },
            {
              "pitch": 63,
              "velocity": 60,
              "position": 1,
              "duration": 0.125
            },
            {
              "pitch": 81,
              "velocity": 21,
              "position": 1,
              "duration": 0.125
            },
            {
              "pitch": 69,
              "velocity": 49,
              "position": 1.5,
              "duration": 0.125
            },
            {
              "pitch": 62,
              "velocity": 91,
              "position": 1.5,
              "duration": 0.125
            },
            {
              "pitch": 69,
              "velocity": 39,
              "position": 1.75,
              "duration": 0.125
            },
            {
              "pitch": 69,
              "velocity": 74,
              "position": 2,
              "duration": 0.125
            },
            {
              "pitch": 63,
              "velocity": 63,
              "position": 2,
              "duration": 0.125
            },
            {
              "pitch": 63,
              "velocity": 63,
              "position": 2.5,
              "duration": 0.125
            },
            {
              "pitch": 69,
              "velocity": 49,
              "position": 2.5,
              "duration": 0.125
            },
            {
              "pitch": 69,
              "velocity": 74,
              "position": 3,
              "duration": 0.125
            },
            {
              "pitch": 81,
              "velocity": 21,
              "position": 3,
              "duration": 0.125
            },
            {
              "pitch": 62,
              "velocity": 87,
              "position": 3,
              "duration": 0.125
            },
            {
              "pitch": 54,
              "velocity": 42,
              "position": 3,
              "duration": 0.1875
            },
            {
              "pitch": 69,
              "velocity": 49,
              "position": 3.5,
              "duration": 0.125
            },
            {
              "pitch": 64,
              "velocity": 85,
              "position": 3.5,
              "duration": 0.125
            },
            {
              "pitch": 69,
              "velocity": 39,
              "position": 3.75,
              "duration": 0.125
            },
            {
              "pitch": 69,
              "velocity": 74,
              "position": 4,
              "duration": 0.125
            },
            {
              "pitch": 62,
              "velocity": 77,
              "position": 4,
              "duration": 0.125
            },
            {
              "pitch": 63,
              "velocity": 60,
              "position": 4.5,
              "duration": 0.125
            },
            {
              "pitch": 69,
              "velocity": 49,
              "position": 4.5,
              "duration": 0.125
            },
            {
              "pitch": 62,
              "velocity": 77,
              "position": 4.75,
              "duration": 0.125
            },
            {
              "pitch": 69,
              "velocity": 74,
              "position": 5,
              "duration": 0.125
            },
            {
              "pitch": 63,
              "velocity": 60,
              "position": 5,
              "duration": 0.125
            },
            {
              "pitch": 81,
              "velocity": 21,
              "position": 5,
              "duration": 0.125
            },
            {
              "pitch": 69,
              "velocity": 49,
              "position": 5.5,
              "duration": 0.125
            },
            {
              "pitch": 62,
              "velocity": 91,
              "position": 5.5,
              "duration": 0.125
            },
            {
              "pitch": 69,
              "velocity": 39,
              "position": 5.75,
              "duration": 0.125
            },
            {
              "pitch": 69,
              "velocity": 74,
              "position": 6,
              "duration": 0.125
            },
            {
              "pitch": 63,
              "velocity": 63,
              "position": 6,
              "duration": 0.125
            },
            {
              "pitch": 63,
              "velocity": 63,
              "position": 6.5,
              "duration": 0.125
            },
            {
              "pitch": 69,
              "velocity": 49,
              "position": 6.5,
              "duration": 0.125
            },
            {
              "pitch": 69,
              "velocity": 74,
              "position": 7,
              "duration": 0.125
            },
            {
              "pitch": 81,
              "velocity": 21,
              "position": 7,
              "duration": 0.125
            },
            {
              "pitch": 62,
              "velocity": 87,
              "position": 7,
              "duration": 0.125
            },
            {
              "pitch": 54,
              "velocity": 42,
              "position": 7,
              "duration": 0.1875
            },
            {
              "pitch": 69,
              "velocity": 49,
              "position": 7.5,
              "duration": 0.125
            },
            {
              "pitch": 64,
              "velocity": 85,
              "position": 7.5,
              "duration": 0.125
            },
            {
              "pitch": 69,
              "velocity": 39,
              "position": 7.75,
              "duration": 0.125
            },
            {
              "pitch": 69,
              "velocity": 74,
              "position": 8,
              "duration": 0.125
            },
            {
              "pitch": 62,
              "velocity": 77,
              "position": 8,
              "duration": 0.125
            },
            {
              "pitch": 63,
              "velocity": 60,
              "position": 8.5,
              "duration": 0.125
            },
            {
              "pitch": 69,
              "velocity": 49,
              "position": 8.5,
              "duration": 0.125
            },
            {
              "pitch": 62,
              "velocity": 77,
              "position": 8.75,
              "duration": 0.125
            },
            {
              "pitch": 69,
              "velocity": 74,
              "position": 9,
              "duration": 0.125
            },
            {
              "pitch": 63,
              "velocity": 60,
              "position": 9,
              "duration": 0.125
            },
            {
              "pitch": 81,
              "velocity": 21,
              "position": 9,
              "duration": 0.125
            },
            {
              "pitch": 69,
              "velocity": 49,
              "position": 9.5,
              "duration": 0.125
            },
            {
              "pitch": 62,
              "velocity": 91,
              "position": 9.5,
              "duration": 0.125
            },
            {
              "pitch": 69,
              "velocity": 39,
              "position": 9.75,
              "duration": 0.125
            },
            {
              "pitch": 69,
              "velocity": 74,
              "position": 10,
              "duration": 0.125
            },
            {
              "pitch": 63,
              "velocity": 63,
              "position": 10,
              "duration": 0.125
            },
            {
              "pitch": 63,
              "velocity": 63,
              "position": 10.5,
              "duration": 0.125
            },
            {
              "pitch": 69,
              "velocity": 49,
              "position": 10.5,
              "duration": 0.125
            },
            {
              "pitch": 69,
              "velocity": 74,
              "position": 11,
              "duration": 0.125
            },
            {
              "pitch": 81,
              "velocity": 21,
              "position": 11,
              "duration": 0.125
            },
            {
              "pitch": 62,
              "velocity": 87,
              "position": 11,
              "duration": 0.125
            },
            {
              "pitch": 54,
              "velocity": 42,
              "position": 11,
              "duration": 0.1875
            },
            {
              "pitch": 69,
              "velocity": 49,
              "position": 11.5,
              "duration": 0.125
            },
            {
              "pitch": 64,
              "velocity": 85,
              "position": 11.5,
              "duration": 0.125
            },
            {
              "pitch": 69,
              "velocity": 39,
              "position": 11.75,
              "duration": 0.125
            },
            {
              "pitch": 69,
              "velocity": 74,
              "position": 12,
              "duration": 0.125
            },
            {
              "pitch": 62,
              "velocity": 77,
              "position": 12,
              "duration": 0.125
            },
            {
              "pitch": 63,
              "velocity": 60,
              "position": 12.5,
              "duration": 0.125
            },
            {
              "pitch": 69,
              "velocity": 49,
              "position": 12.5,
              "duration": 0.125
            },
            {
              "pitch": 62,
              "velocity": 77,
              "position": 12.75,
              "duration": 0.125
            },
            {
              "pitch": 69,
              "velocity": 74,
              "position": 13,
              "duration": 0.125
            },
            {
              "pitch": 63,
              "velocity": 60,
              "position": 13,
              "duration": 0.125
            },
            {
              "pitch": 81,
              "velocity": 21,
              "position": 13,
              "duration": 0.125
            },
            {
              "pitch": 69,
              "velocity": 49,
              "position": 13.5,
              "duration": 0.125
            },
            {
              "pitch": 62,
              "velocity": 91,
              "position": 13.5,
              "duration": 0.125
            },
            {
              "pitch": 69,
              "velocity": 39,
              "position": 13.75,
              "duration": 0.125
            },
            {
              "pitch": 69,
              "velocity": 74,
              "position": 14,
              "duration": 0.125
            },
            {
              "pitch": 63,
              "velocity": 63,
              "position": 14,
              "duration": 0.125
            },
            {
              "pitch": 63,
              "velocity": 63,
              "position": 14.5,
              "duration": 0.125
            },
            {
              "pitch": 69,
              "velocity": 49,
              "position": 14.5,
              "duration": 0.125
            },
            {
              "pitch": 69,
              "velocity": 74,
              "position": 15,
              "duration": 0.125
            },
            {
              "pitch": 81,
              "velocity": 21,
              "position": 15,
              "duration": 0.125
            },
            {
              "pitch": 62,
              "velocity": 87,
              "position": 15,
              "duration": 0.125
            },
            {
              "pitch": 54,
              "velocity": 42,
              "position": 15,
              "duration": 0.1875
            },
            {
              "pitch": 69,
              "velocity": 49,
              "position": 15.5,
              "duration": 0.125
            },
            {
              "pitch": 64,
              "velocity": 85,
              "position": 15.5,
              "duration": 0.125
            },
            {
              "pitch": 69,
              "velocity": 39,
              "position": 15.75,
              "duration": 0.125
            },
            {
              "pitch": 69,
              "velocity": 74,
              "position": 16,
              "duration": 0.125
            },
            {
              "pitch": 62,
              "velocity": 77,
              "position": 16,
              "duration": 0.125
            },
            {
              "pitch": 63,
              "velocity": 60,
              "position": 16.5,
              "duration": 0.125
            },
            {
              "pitch": 69,
              "velocity": 49,
              "position": 16.5,
              "duration": 0.125
            },
            {
              "pitch": 62,
              "velocity": 77,
              "position": 16.75,
              "duration": 0.125
            },
            {
              "pitch": 69,
              "velocity": 74,
              "position": 17,
              "duration": 0.125
            },
            {
              "pitch": 63,
              "velocity": 60,
              "position": 17,
              "duration": 0.125
            },
            {
              "pitch": 81,
              "velocity": 21,
              "position": 17,
              "duration": 0.125
            },
            {
              "pitch": 69,
              "velocity": 49,
              "position": 17.5,
              "duration": 0.125
            },
            {
              "pitch": 62,
              "velocity": 91,
              "position": 17.5,
              "duration": 0.125
            },
            {
              "pitch": 69,
              "velocity": 39,
              "position": 17.75,
              "duration": 0.125
            },
            {
              "pitch": 69,
              "velocity": 74,
              "position": 18,
              "duration": 0.125
            },
            {
              "pitch": 63,
              "velocity": 63,
              "position": 18,
              "duration": 0.125
            },
            {
              "pitch": 63,
              "velocity": 63,
              "position": 18.5,
              "duration": 0.125
            },
            {
              "pitch": 69,
              "velocity": 49,
              "position": 18.5,
              "duration": 0.125
            },
            {
              "pitch": 69,
              "velocity": 74,
              "position": 19,
              "duration": 0.125
            },
            {
              "pitch": 81,
              "velocity": 21,
              "position": 19,
              "duration": 0.125
            },
            {
              "pitch": 62,
              "velocity": 87,
              "position": 19,
              "duration": 0.125
            },
            {
              "pitch": 54,
              "velocity": 42,
              "position": 19,
              "duration": 0.1875
            },
            {
              "pitch": 69,
              "velocity": 49,
              "position": 19.5,
              "duration": 0.125
            },
            {
              "pitch": 64,
              "velocity": 85,
              "position": 19.5,
              "duration": 0.125
            },
            {
              "pitch": 69,
              "velocity": 39,
              "position": 19.75,
              "duration": 0.125
            },
            {
              "pitch": 69,
              "velocity": 74,
              "position": 20,
              "duration": 0.125
            },
            {
              "pitch": 62,
              "velocity": 77,
              "position": 20,
              "duration": 0.125
            },
            {
              "pitch": 63,
              "velocity": 60,
              "position": 20.5,
              "duration": 0.125
            },
            {
              "pitch": 69,
              "velocity": 49,
              "position": 20.5,
              "duration": 0.125
            },
            {
              "pitch": 62,
              "velocity": 77,
              "position": 20.75,
              "duration": 0.125
            },
            {
              "pitch": 69,
              "velocity": 74,
              "position": 21,
              "duration": 0.125
            },
            {
              "pitch": 63,
              "velocity": 60,
              "position": 21,
              "duration": 0.125
            },
            {
              "pitch": 81,
              "velocity": 21,
              "position": 21,
              "duration": 0.125
            },
            {
              "pitch": 69,
              "velocity": 49,
              "position": 21.5,
              "duration": 0.125
            },
            {
              "pitch": 62,
              "velocity": 91,
              "position": 21.5,
              "duration": 0.125
            },
            {
              "pitch": 69,
              "velocity": 39,
              "position": 21.75,
              "duration": 0.125
            },
            {
              "pitch": 69,
              "velocity": 74,
              "position": 22,
              "duration": 0.125
            },
            {
              "pitch": 63,
              "velocity": 63,
              "position": 22,
              "duration": 0.125
            },
            {
              "pitch": 63,
              "velocity": 63,
              "position": 22.5,
              "duration": 0.125
            },
            {
              "pitch": 69,
              "velocity": 49,
              "position": 22.5,
              "duration": 0.125
            },
            {
              "pitch": 69,
              "velocity": 74,
              "position": 23,
              "duration": 0.125
            },
            {
              "pitch": 81,
              "velocity": 21,
              "position": 23,
              "duration": 0.125
            },
            {
              "pitch": 62,
              "velocity": 87,
              "position": 23,
              "duration": 0.125
            },
            {
              "pitch": 54,
              "velocity": 42,
              "position": 23,
              "duration": 0.1875
            },
            {
              "pitch": 69,
              "velocity": 49,
              "position": 23.5,
              "duration": 0.125
            },
            {
              "pitch": 64,
              "velocity": 85,
              "position": 23.5,
              "duration": 0.125
            },
            {
              "pitch": 69,
              "velocity": 39,
              "position": 23.75,
              "duration": 0.125
            },
            {
              "pitch": 69,
              "velocity": 74,
              "position": 24,
              "duration": 0.125
            },
            {
              "pitch": 62,
              "velocity": 77,
              "position": 24,
              "duration": 0.125
            },
            {
              "pitch": 63,
              "velocity": 60,
              "position": 24.5,
              "duration": 0.125
            },
            {
              "pitch": 69,
              "velocity": 49,
              "position": 24.5,
              "duration": 0.125
            },
            {
              "pitch": 62,
              "velocity": 77,
              "position": 24.75,
              "duration": 0.125
            },
            {
              "pitch": 69,
              "velocity": 74,
              "position": 25,
              "duration": 0.125
            },
            {
              "pitch": 63,
              "velocity": 60,
              "position": 25,
              "duration": 0.125
            },
            {
              "pitch": 81,
              "velocity": 21,
              "position": 25,
              "duration": 0.125
            },
            {
              "pitch": 69,
              "velocity": 49,
              "position": 25.5,
              "duration": 0.125
            },
            {
              "pitch": 62,
              "velocity": 91,
              "position": 25.5,
              "duration": 0.125
            },
            {
              "pitch": 69,
              "velocity": 39,
              "position": 25.75,
              "duration": 0.125
            },
            {
              "pitch": 69,
              "velocity": 74,
              "position": 26,
              "duration": 0.125
            },
            {
              "pitch": 63,
              "velocity": 63,
              "position": 26,
              "duration": 0.125
            },
            {
              "pitch": 63,
              "velocity": 63,
              "position": 26.5,
              "duration": 0.125
            },
            {
              "pitch": 69,
              "velocity": 49,
              "position": 26.5,
              "duration": 0.125
            },
            {
              "pitch": 69,
              "velocity": 74,
              "position": 27,
              "duration": 0.125
            },
            {
              "pitch": 81,
              "velocity": 21,
              "position": 27,
              "duration": 0.125
            },
            {
              "pitch": 62,
              "velocity": 87,
              "position": 27,
              "duration": 0.125
            },
            {
              "pitch": 54,
              "velocity": 42,
              "position": 27,
              "duration": 0.1875
            },
            {
              "pitch": 69,
              "velocity": 49,
              "position": 27.5,
              "duration": 0.125
            },
            {
              "pitch": 64,
              "velocity": 85,
              "position": 27.5,
              "duration": 0.125
            },
            {
              "pitch": 69,
              "velocity": 39,
              "position": 27.75,
              "duration": 0.125
            },
            {
              "pitch": 69,
              "velocity": 74,
              "position": 28,
              "duration": 0.125
            },
            {
              "pitch": 62,
              "velocity": 77,
              "position": 28,
              "duration": 0.125
            },
            {
              "pitch": 63,
              "velocity": 60,
              "position": 28.5,
              "duration": 0.125
            },
            {
              "pitch": 69,
              "velocity": 49,
              "position": 28.5,
              "duration": 0.125
            },
            {
              "pitch": 62,
              "velocity": 77,
              "position": 28.75,
              "duration": 0.125
            },
            {
              "pitch": 69,
              "velocity": 74,
              "position": 29,
              "duration": 0.125
            },
            {
              "pitch": 63,
              "velocity": 60,
              "position": 29,
              "duration": 0.125
            },
            {
              "pitch": 81,
              "velocity": 21,
              "position": 29,
              "duration": 0.125
            },
            {
              "pitch": 69,
              "velocity": 49,
              "position": 29.5,
              "duration": 0.125
            },
            {
              "pitch": 62,
              "velocity": 91,
              "position": 29.5,
              "duration": 0.125
            },
            {
              "pitch": 69,
              "velocity": 39,
              "position": 29.75,
              "duration": 0.125
            },
            {
              "pitch": 69,
              "velocity": 74,
              "position": 30,
              "duration": 0.125
            },
            {
              "pitch": 63,
              "velocity": 63,
              "position": 30,
              "duration": 0.125
            },
            {
              "pitch": 63,
              "velocity": 63,
              "position": 30.5,
              "duration": 0.125
            },
            {
              "pitch": 69,
              "velocity": 49,
              "position": 30.5,
              "duration": 0.125
            },
            {
              "pitch": 69,
              "velocity": 74,
              "position": 31,
              "duration": 0.125
            },
            {
              "pitch": 81,
              "velocity": 21,
              "position": 31,
              "duration": 0.125
            },
            {
              "pitch": 62,
              "velocity": 87,
              "position": 31,
              "duration": 0.125
            },
            {
              "pitch": 54,
              "velocity": 42,
              "position": 31,
              "duration": 0.1875
            },
            {
              "pitch": 69,
              "velocity": 49,
              "position": 31.5,
              "duration": 0.125
            },
            {
              "pitch": 64,
              "velocity": 85,
              "position": 31.5,
              "duration": 0.125
            },
            {
              "pitch": 69,
              "velocity": 39,
              "position": 31.75,
              "duration": 0.125
            }
          ]
        },
        "12": {
          "ctab": {
            "srcChannel": 12,
            "name": "Fretless",
            "accType": "BASS",
            "editable": false,
            "mutedNotes": [],
            "mutedChords": [
              "7aug",
              "Maj7aug",
              "7(#9)",
              "7(b13)",
              "7(b9)",
              "7(13)",
              "7#11",
              "7(9)",
              "7b5",
              "7sus4",
              "7th",
              "dim7",
              "dim",
              "minMaj7(9)",
              "minMaj7",
              "min7(11)",
              "min7(9)",
              "min(9)",
              "m7b5",
              "min7",
              "min6",
              "min"
            ],
            "autoStart": false,
            "sourceChordNote": 0,
            "sourceChordType": "Maj7",
            "ctb2Low": null,
            "ctb2Main": {
              "ntr": "ROOT_TRANSPOSITION",
              "ntt": "MELODY",
              "bassOn": true,
              "chordRootUpperLimit": 3,
              "noteLowLimit": 28,
              "noteHighLimit": 54,
              "rtr": "PITCH_SHIFT_TO_ROOT"
            },
            "ctb2High": null
          },
          "notes": [
            {
              "pitch": 36,
              "velocity": 106,
              "position": 0,
              "duration": 1.6666666666666667
            },
            {
              "pitch": 36,
              "velocity": 71,
              "position": 1.75,
              "duration": 0.125
            },
            {
              "pitch": 36,
              "velocity": 106,
              "position": 2,
              "duration": 1.375
            },
            {
              "pitch": 43,
              "velocity": 91,
              "position": 3.5,
              "duration": 0.4791666666666667
            },
            {
              "pitch": 36,
              "velocity": 106,
              "position": 4,
              "duration": 1.6458333333333333
            },
            {
              "pitch": 36,
              "velocity": 71,
              "position": 5.75,
              "duration": 0.0625
            },
            {
              "pitch": 36,
              "velocity": 106,
              "position": 6,
              "duration": 0.9375
            },
            {
              "pitch": 31,
              "velocity": 106,
              "position": 7,
              "duration": 0.8958333333333334
            },
            {
              "pitch": 36,
              "velocity": 106,
              "position": 8,
              "duration": 1.6666666666666667
            },
            {
              "pitch": 36,
              "velocity": 71,
              "position": 9.75,
              "duration": 0.125
            },
            {
              "pitch": 36,
              "velocity": 106,
              "position": 10,
              "duration": 1.375
            },
            {
              "pitch": 43,
              "velocity": 91,
              "position": 11.5,
              "duration": 0.4791666666666667
            },
            {
              "pitch": 36,
              "velocity": 106,
              "position": 12,
              "duration": 1.7083333333333333
            },
            {
              "pitch": 36,
              "velocity": 71,
              "position": 13.75,
              "duration": 0.0625
            },
            {
              "pitch": 36,
              "velocity": 106,
              "position": 14,
              "duration": 0.4166666666666667
            },
            {
              "pitch": 36,
              "velocity": 101,
              "position": 14.5,
              "duration": 0.4583333333333333
            },
            {
              "pitch": 33,
              "velocity": 106,
              "position": 15,
              "duration": 0.4583333333333333
            },
            {
              "pitch": 31,
              "velocity": 106,
              "position": 15.5,
              "duration": 0.4583333333333333
            },
            {
              "pitch": 36,
              "velocity": 106,
              "position": 16,
              "duration": 1.6666666666666667
            },
            {
              "pitch": 36,
              "velocity": 71,
              "position": 17.75,
              "duration": 0.125
            },
            {
              "pitch": 36,
              "velocity": 106,
              "position": 18,
              "duration": 1.375
            },
            {
              "pitch": 43,
              "velocity": 91,
              "position": 19.5,
              "duration": 0.4791666666666667
            },
            {
              "pitch": 36,
              "velocity": 106,
              "position": 20,
              "duration": 1.6458333333333333
            },
            {
              "pitch": 36,
              "velocity": 71,
              "position": 21.75,
              "duration": 0.0625
            },
            {
              "pitch": 36,
              "velocity": 106,
              "position": 22,
              "duration": 0.9375
            },
            {
              "pitch": 31,
              "velocity": 106,
              "position": 23,
              "duration": 0.8958333333333334
            },
            {
              "pitch": 36,
              "velocity": 106,
              "position": 24,
              "duration": 1.6666666666666667
            },
            {
              "pitch": 36,
              "velocity": 71,
              "position": 25.75,
              "duration": 0.125
            },
            {
              "pitch": 36,
              "velocity": 106,
              "position": 26,
              "duration": 1.375
            },
            {
              "pitch": 43,
              "velocity": 91,
              "position": 27.5,
              "duration": 0.4791666666666667
            },
            {
              "pitch": 36,
              "velocity": 106,
              "position": 28,
              "duration": 1.7083333333333333
            },
            {
              "pitch": 36,
              "velocity": 71,
              "position": 29.75,
              "duration": 0.0625
            },
            {
              "pitch": 36,
              "velocity": 106,
              "position": 30,
              "duration": 0.4166666666666667
            },
            {
              "pitch": 36,
              "velocity": 101,
              "position": 30.5,
              "duration": 0.4583333333333333
            },
            {
              "pitch": 33,
              "velocity": 106,
              "position": 31,
              "duration": 0.4583333333333333
            },
            {
              "pitch": 31,
              "velocity": 106,
              "position": 31.5,
              "duration": 0.4583333333333333
            }
          ]
        },
        "13": {
          "ctab": {
            "srcChannel": 13,
            "name": "Fretless",
            "accType": "BASS",
            "editable": false,
            "mutedNotes": [],
            "mutedChords": [
              "1+2+5",
              "sus4",
              "1+5",
              "1+8",
              "7aug",
              "Maj7aug",
              "7(#9)",
              "7(b13)",
              "7(b9)",
              "7(13)",
              "7#11",
              "7(9)",
              "7b5",
              "7sus4",
              "7th",
              "aug",
              "Maj6(9)",
              "Maj7(9)",
              "Maj(9)",
              "Maj7#11",
              "Maj7",
              "Maj6",
              "Maj"
            ],
            "autoStart": false,
            "sourceChordNote": 0,
            "sourceChordType": "Maj7",
            "ctb2Low": null,
            "ctb2Main": {
              "ntr": "ROOT_TRANSPOSITION",
              "ntt": "MELODY",
              "bassOn": true,
              "chordRootUpperLimit": 3,
              "noteLowLimit": 28,
              "noteHighLimit": 54,
              "rtr": "PITCH_SHIFT_TO_ROOT"
            },
            "ctb2High": null
          },
          "notes": [
            {
              "pitch": 36,
              "velocity": 106,
              "position": 0,
              "duration": 1.6666666666666667
            },
            {
              "pitch": 36,
              "velocity": 71,
              "position": 1.75,
              "duration": 0.125
            },
            {
              "pitch": 36,
              "velocity": 106,
              "position": 2,
              "duration": 1.375
            },
            {
              "pitch": 43,
              "velocity": 91,
              "position": 3.5,
              "duration": 0.4791666666666667
            },
            {
              "pitch": 36,
              "velocity": 106,
              "position": 4,
              "duration": 1.6458333333333333
            },
            {
              "pitch": 36,
              "velocity": 71,
              "position": 5.75,
              "duration": 0.0625
            },
            {
              "pitch": 36,
              "velocity": 106,
              "position": 6,
              "duration": 0.9375
            },
            {
              "pitch": 31,
              "velocity": 106,
              "position": 7,
              "duration": 0.8958333333333334
            },
            {
              "pitch": 36,
              "velocity": 106,
              "position": 8,
              "duration": 1.6666666666666667
            },
            {
              "pitch": 36,
              "velocity": 71,
              "position": 9.75,
              "duration": 0.125
            },
            {
              "pitch": 36,
              "velocity": 106,
              "position": 10,
              "duration": 1.375
            },
            {
              "pitch": 43,
              "velocity": 91,
              "position": 11.5,
              "duration": 0.4791666666666667
            },
            {
              "pitch": 36,
              "velocity": 106,
              "position": 12,
              "duration": 1.7083333333333333
            },
            {
              "pitch": 36,
              "velocity": 71,
              "position": 13.75,
              "duration": 0.0625
            },
            {
              "pitch": 36,
              "velocity": 106,
              "position": 14,
              "duration": 0.4166666666666667
            },
            {
              "pitch": 39,
              "velocity": 101,
              "position": 14.5,
              "duration": 0.4583333333333333
            },
            {
              "pitch": 36,
              "velocity": 106,
              "position": 15,
              "duration": 0.4583333333333333
            },
            {
              "pitch": 31,
              "velocity": 106,
              "position": 15.5,
              "duration": 0.4583333333333333
            },
            {
              "pitch": 36,
              "velocity": 106,
              "position": 16,
              "duration": 1.6666666666666667
            },
            {
              "pitch": 36,
              "velocity": 71,
              "position": 17.75,
              "duration": 0.125
            },
            {
              "pitch": 36,
              "velocity": 106,
              "position": 18,
              "duration": 1.375
            },
            {
              "pitch": 43,
              "velocity": 91,
              "position": 19.5,
              "duration": 0.4791666666666667
            },
            {
              "pitch": 36,
              "velocity": 106,
              "position": 20,
              "duration": 1.6458333333333333
            },
            {
              "pitch": 36,
              "velocity": 71,
              "position": 21.75,
              "duration": 0.0625
            },
            {
              "pitch": 36,
              "velocity": 106,
              "position": 22,
              "duration": 0.9375
            },
            {
              "pitch": 31,
              "velocity": 106,
              "position": 23,
              "duration": 0.8958333333333334
            },
            {
              "pitch": 36,
              "velocity": 106,
              "position": 24,
              "duration": 1.6666666666666667
            },
            {
              "pitch": 36,
              "velocity": 71,
              "position": 25.75,
              "duration": 0.125
            },
            {
              "pitch": 36,
              "velocity": 106,
              "position": 26,
              "duration": 1.375
            },
            {
              "pitch": 43,
              "velocity": 91,
              "position": 27.5,
              "duration": 0.4791666666666667
            },
            {
              "pitch": 36,
              "velocity": 106,
              "position": 28,
              "duration": 1.7083333333333333
            },
            {
              "pitch": 36,
              "velocity": 71,
              "position": 29.75,
              "duration": 0.0625
            },
            {
              "pitch": 36,
              "velocity": 106,
              "position": 30,
              "duration": 0.4166666666666667
            },
            {
              "pitch": 39,
              "velocity": 101,
              "position": 30.5,
              "duration": 0.4583333333333333
            },
            {
              "pitch": 36,
              "velocity": 106,
              "position": 31,
              "duration": 0.4583333333333333
            },
            {
              "pitch": 31,
              "velocity": 106,
              "position": 31.5,
              "duration": 0.4583333333333333
            }
          ]
        },
        "14": {
          "ctab": {
            "srcChannel": 14,
            "name": "Fretless",
            "accType": "BASS",
            "editable": false,
            "mutedNotes": [],
            "mutedChords": [
              "1+2+5",
              "sus4",
              "1+5",
              "1+8",
              "dim7",
              "dim",
              "minMaj7(9)",
              "minMaj7",
              "min7(11)",
              "min7(9)",
              "min(9)",
              "m7b5",
              "min7",
              "min6",
              "min",
              "aug",
              "Maj6(9)",
              "Maj7(9)",
              "Maj(9)",
              "Maj7#11",
              "Maj7",
              "Maj6",
              "Maj"
            ],
            "autoStart": false,
            "sourceChordNote": 0,
            "sourceChordType": "Maj7",
            "ctb2Low": null,
            "ctb2Main": {
              "ntr": "ROOT_TRANSPOSITION",
              "ntt": "MELODY",
              "bassOn": true,
              "chordRootUpperLimit": 3,
              "noteLowLimit": 28,
              "noteHighLimit": 54,
              "rtr": "PITCH_SHIFT_TO_ROOT"
            },
            "ctb2High": null
          },
          "notes": [
            {
              "pitch": 36,
              "velocity": 106,
              "position": 0,
              "duration": 1.6666666666666667
            },
            {
              "pitch": 36,
              "velocity": 71,
              "position": 1.75,
              "duration": 0.125
            },
            {
              "pitch": 36,
              "velocity": 106,
              "position": 2,
              "duration": 1.375
            },
            {
              "pitch": 43,
              "velocity": 91,
              "position": 3.5,
              "duration": 0.4791666666666667
            },
            {
              "pitch": 36,
              "velocity": 106,
              "position": 4,
              "duration": 1.6458333333333333
            },
            {
              "pitch": 36,
              "velocity": 71,
              "position": 5.75,
              "duration": 0.0625
            },
            {
              "pitch": 36,
              "velocity": 106,
              "position": 6,
              "duration": 0.9375
            },
            {
              "pitch": 31,
              "velocity": 106,
              "position": 7,
              "duration": 0.8958333333333334
            },
            {
              "pitch": 36,
              "velocity": 106,
              "position": 8,
              "duration": 1.6666666666666667
            },
            {
              "pitch": 36,
              "velocity": 71,
              "position": 9.75,
              "duration": 0.125
            },
            {
              "pitch": 36,
              "velocity": 106,
              "position": 10,
              "duration": 1.375
            },
            {
              "pitch": 43,
              "velocity": 91,
              "position": 11.5,
              "duration": 0.4791666666666667
            },
            {
              "pitch": 36,
              "velocity": 106,
              "position": 12,
              "duration": 1.7083333333333333
            },
            {
              "pitch": 36,
              "velocity": 71,
              "position": 13.75,
              "duration": 0.0625
            },
            {
              "pitch": 36,
              "velocity": 106,
              "position": 14,
              "duration": 0.4166666666666667
            },
            {
              "pitch": 34,
              "velocity": 101,
              "position": 14.5,
              "duration": 0.4583333333333333
            },
            {
              "pitch": 33,
              "velocity": 106,
              "position": 15,
              "duration": 0.4583333333333333
            },
            {
              "pitch": 31,
              "velocity": 106,
              "position": 15.5,
              "duration": 0.4583333333333333
            },
            {
              "pitch": 36,
              "velocity": 106,
              "position": 16,
              "duration": 1.6666666666666667
            },
            {
              "pitch": 36,
              "velocity": 71,
              "position": 17.75,
              "duration": 0.125
            },
            {
              "pitch": 36,
              "velocity": 106,
              "position": 18,
              "duration": 1.375
            },
            {
              "pitch": 43,
              "velocity": 91,
              "position": 19.5,
              "duration": 0.4791666666666667
            },
            {
              "pitch": 36,
              "velocity": 106,
              "position": 20,
              "duration": 1.6458333333333333
            },
            {
              "pitch": 36,
              "velocity": 71,
              "position": 21.75,
              "duration": 0.0625
            },
            {
              "pitch": 36,
              "velocity": 106,
              "position": 22,
              "duration": 0.9375
            },
            {
              "pitch": 31,
              "velocity": 106,
              "position": 23,
              "duration": 0.8958333333333334
            },
            {
              "pitch": 36,
              "velocity": 106,
              "position": 24,
              "duration": 1.6666666666666667
            },
            {
              "pitch": 36,
              "velocity": 71,
              "position": 25.75,
              "duration": 0.125
            },
            {
              "pitch": 36,
              "velocity": 106,
              "position": 26,
              "duration": 1.375
            },
            {
              "pitch": 43,
              "velocity": 91,
              "position": 27.5,
              "duration": 0.4791666666666667
            },
            {
              "pitch": 36,
              "velocity": 106,
              "position": 28,
              "duration": 1.7083333333333333
            },
            {
              "pitch": 36,
              "velocity": 71,
              "position": 29.75,
              "duration": 0.0625
            },
            {
              "pitch": 36,
              "velocity": 106,
              "position": 30,
              "duration": 0.4166666666666667
            },
            {
              "pitch": 34,
              "velocity": 101,
              "position": 30.5,
              "duration": 0.4583333333333333
            },
            {
              "pitch": 33,
              "velocity": 106,
              "position": 31,
              "duration": 0.4583333333333333
            },
            {
              "pitch": 31,
              "velocity": 106,
              "position": 31.5,
              "duration": 0.4583333333333333
            }
          ]
        },
        "15": {
          "ctab": {
            "srcChannel": 15,
            "name": "SteelGtr",
            "accType": "CHORD1",
            "editable": false,
            "mutedNotes": [],
            "mutedChords": [
              "7aug",
              "Maj7aug",
              "7(#9)",
              "7(b13)",
              "7(b9)",
              "7(13)",
              "7#11",
              "7(9)",
              "7b5",
              "7sus4",
              "7th"
            ],
            "autoStart": false,
            "sourceChordNote": 0,
            "sourceChordType": "Maj7",
            "ctb2Low": null,
            "ctb2Main": {
              "ntr": "ROOT_FIXED",
              "ntt": "CHORD",
              "bassOn": false,
              "chordRootUpperLimit": 6,
              "noteLowLimit": 0,
              "noteHighLimit": 127,
              "rtr": "PITCH_SHIFT"
            },
            "ctb2High": null
          },
          "notes": [
            {
              "pitch": 55,
              "velocity": 98,
              "position": 0,
              "duration": 0.4583333333333333
            },
            {
              "pitch": 59,
              "velocity": 100,
              "position": 0,
              "duration": 1.2083333333333333
            },
            {
              "pitch": 64,
              "velocity": 98,
              "position": 0,
              "duration": 1.9583333333333333
            },
            {
              "pitch": 55,
              "velocity": 96,
              "position": 0.5,
              "duration": 2.9583333333333335
            },
            {
              "pitch": 59,
              "velocity": 96,
              "position": 1.25,
              "duration": 2.2083333333333335
            },
            {
              "pitch": 64,
              "velocity": 97,
              "position": 2,
              "duration": 1.4895833333333333
            },
            {
              "pitch": 67,
              "velocity": 98,
              "position": 2.75,
              "duration": 0.75
            },
            {
              "pitch": 64,
              "velocity": 98,
              "position": 3.5,
              "duration": 0.1875
            },
            {
              "pitch": 55,
              "velocity": 97,
              "position": 3.4791666666666665,
              "duration": 0.22916666666666666
            },
            {
              "pitch": 59,
              "velocity": 97,
              "position": 3.5,
              "duration": 0.20833333333333334
            },
            {
              "pitch": 55,
              "velocity": 70,
              "position": 3.75,
              "duration": 0.1875
            },
            {
              "pitch": 64,
              "velocity": 77,
              "position": 3.7291666666666665,
              "duration": 0.22916666666666666
            },
            {
              "pitch": 59,
              "velocity": 85,
              "position": 3.75,
              "duration": 0.20833333333333334
            },
            {
              "pitch": 55,
              "velocity": 97,
              "position": 3.9791666666666665,
              "duration": 0.4583333333333333
            },
            {
              "pitch": 59,
              "velocity": 96,
              "position": 4,
              "duration": 1.2083333333333333
            },
            {
              "pitch": 64,
              "velocity": 98,
              "position": 4,
              "duration": 1.9375
            },
            {
              "pitch": 59,
              "velocity": 98,
              "position": 5.25,
              "duration": 1.4583333333333333
            },
            {
              "pitch": 55,
              "velocity": 97,
              "position": 4.5,
              "duration": 2.9583333333333335
            },
            {
              "pitch": 59,
              "velocity": 98,
              "position": 6.75,
              "duration": 0.7083333333333334
            },
            {
              "pitch": 64,
              "velocity": 97,
              "position": 6,
              "duration": 1.4895833333333333
            },
            {
              "pitch": 64,
              "velocity": 98,
              "position": 7.5,
              "duration": 0.1875
            },
            {
              "pitch": 55,
              "velocity": 97,
              "position": 7.479166666666667,
              "duration": 0.22916666666666666
            },
            {
              "pitch": 59,
              "velocity": 97,
              "position": 7.5,
              "duration": 0.20833333333333334
            },
            {
              "pitch": 64,
              "velocity": 77,
              "position": 7.729166666666667,
              "duration": 0.20833333333333334
            },
            {
              "pitch": 55,
              "velocity": 70,
              "position": 7.75,
              "duration": 0.1875
            },
            {
              "pitch": 59,
              "velocity": 85,
              "position": 7.75,
              "duration": 0.20833333333333334
            },
            {
              "pitch": 55,
              "velocity": 98,
              "position": 8,
              "duration": 0.4583333333333333
            },
            {
              "pitch": 59,
              "velocity": 100,
              "position": 8,
              "duration": 1.2083333333333333
            },
            {
              "pitch": 64,
              "velocity": 98,
              "position": 8,
              "duration": 1.9583333333333333
            },
            {
              "pitch": 55,
              "velocity": 96,
              "position": 8.5,
              "duration": 2.9583333333333335
            },
            {
              "pitch": 59,
              "velocity": 96,
              "position": 9.25,
              "duration": 2.2083333333333335
            },
            {
              "pitch": 64,
              "velocity": 97,
              "position": 10,
              "duration": 1.4895833333333333
            },
            {
              "pitch": 67,
              "velocity": 98,
              "position": 10.75,
              "duration": 0.75
            },
            {
              "pitch": 64,
              "velocity": 98,
              "position": 11.5,
              "duration": 0.1875
            },
            {
              "pitch": 55,
              "velocity": 97,
              "position": 11.479166666666666,
              "duration": 0.22916666666666666
            },
            {
              "pitch": 59,
              "velocity": 97,
              "position": 11.5,
              "duration": 0.20833333333333334
            },
            {
              "pitch": 55,
              "velocity": 70,
              "position": 11.75,
              "duration": 0.1875
            },
            {
              "pitch": 64,
              "velocity": 77,
              "position": 11.729166666666666,
              "duration": 0.22916666666666666
            },
            {
              "pitch": 59,
              "velocity": 85,
              "position": 11.75,
              "duration": 0.20833333333333334
            },
            {
              "pitch": 55,
              "velocity": 97,
              "position": 11.979166666666666,
              "duration": 0.4583333333333333
            },
            {
              "pitch": 59,
              "velocity": 96,
              "position": 12,
              "duration": 1.2083333333333333
            },
            {
              "pitch": 64,
              "velocity": 98,
              "position": 12,
              "duration": 1.9375
            },
            {
              "pitch": 59,
              "velocity": 98,
              "position": 13.25,
              "duration": 1.4583333333333333
            },
            {
              "pitch": 55,
              "velocity": 97,
              "position": 12.5,
              "duration": 2.9583333333333335
            },
            {
              "pitch": 59,
              "velocity": 98,
              "position": 14.75,
              "duration": 0.7083333333333334
            },
            {
              "pitch": 64,
              "velocity": 97,
              "position": 14,
              "duration": 1.4895833333333333
            },
            {
              "pitch": 64,
              "velocity": 98,
              "position": 15.5,
              "duration": 0.1875
            },
            {
              "pitch": 55,
              "velocity": 97,
              "position": 15.479166666666666,
              "duration": 0.22916666666666666
            },
            {
              "pitch": 59,
              "velocity": 97,
              "position": 15.5,
              "duration": 0.20833333333333334
            },
            {
              "pitch": 55,
              "velocity": 70,
              "position": 15.75,
              "duration": 0.1875
            },
            {
              "pitch": 64,
              "velocity": 77,
              "position": 15.729166666666666,
              "duration": 0.22916666666666666
            },
            {
              "pitch": 59,
              "velocity": 85,
              "position": 15.75,
              "duration": 0.20833333333333334
            },
            {
              "pitch": 55,
              "velocity": 98,
              "position": 16,
              "duration": 0.4583333333333333
            },
            {
              "pitch": 59,
              "velocity": 100,
              "position": 16,
              "duration": 1.2083333333333333
            },
            {
              "pitch": 64,
              "velocity": 98,
              "position": 16,
              "duration": 1.9583333333333333
            },
            {
              "pitch": 55,
              "velocity": 96,
              "position": 16.5,
              "duration": 2.9583333333333335
            },
            {
              "pitch": 59,
              "velocity": 96,
              "position": 17.25,
              "duration": 2.2083333333333335
            },
            {
              "pitch": 64,
              "velocity": 97,
              "position": 18,
              "duration": 1.4895833333333333
            },
            {
              "pitch": 67,
              "velocity": 98,
              "position": 18.75,
              "duration": 0.75
            },
            {
              "pitch": 64,
              "velocity": 98,
              "position": 19.5,
              "duration": 0.1875
            },
            {
              "pitch": 55,
              "velocity": 97,
              "position": 19.479166666666668,
              "duration": 0.22916666666666666
            },
            {
              "pitch": 59,
              "velocity": 97,
              "position": 19.5,
              "duration": 0.20833333333333334
            },
            {
              "pitch": 55,
              "velocity": 70,
              "position": 19.75,
              "duration": 0.1875
            },
            {
              "pitch": 64,
              "velocity": 77,
              "position": 19.729166666666668,
              "duration": 0.22916666666666666
            },
            {
              "pitch": 59,
              "velocity": 85,
              "position": 19.75,
              "duration": 0.20833333333333334
            },
            {
              "pitch": 55,
              "velocity": 97,
              "position": 19.979166666666668,
              "duration": 0.4583333333333333
            },
            {
              "pitch": 59,
              "velocity": 96,
              "position": 20,
              "duration": 1.2083333333333333
            },
            {
              "pitch": 64,
              "velocity": 98,
              "position": 20,
              "duration": 1.9375
            },
            {
              "pitch": 59,
              "velocity": 98,
              "position": 21.25,
              "duration": 1.4583333333333333
            },
            {
              "pitch": 55,
              "velocity": 97,
              "position": 20.5,
              "duration": 2.9583333333333335
            },
            {
              "pitch": 59,
              "velocity": 98,
              "position": 22.75,
              "duration": 0.7083333333333334
            },
            {
              "pitch": 64,
              "velocity": 97,
              "position": 22,
              "duration": 1.4895833333333333
            },
            {
              "pitch": 64,
              "velocity": 98,
              "position": 23.5,
              "duration": 0.1875
            },
            {
              "pitch": 55,
              "velocity": 97,
              "position": 23.479166666666668,
              "duration": 0.22916666666666666
            },
            {
              "pitch": 59,
              "velocity": 97,
              "position": 23.5,
              "duration": 0.20833333333333334
            },
            {
              "pitch": 64,
              "velocity": 77,
              "position": 23.729166666666668,
              "duration": 0.20833333333333334
            },
            {
              "pitch": 55,
              "velocity": 70,
              "position": 23.75,
              "duration": 0.1875
            },
            {
              "pitch": 59,
              "velocity": 85,
              "position": 23.75,
              "duration": 0.20833333333333334
            },
            {
              "pitch": 55,
              "velocity": 98,
              "position": 24,
              "duration": 0.4583333333333333
            },
            {
              "pitch": 59,
              "velocity": 100,
              "position": 24,
              "duration": 1.2083333333333333
            },
            {
              "pitch": 64,
              "velocity": 98,
              "position": 24,
              "duration": 1.9583333333333333
            },
            {
              "pitch": 55,
              "velocity": 96,
              "position": 24.5,
              "duration": 2.9583333333333335
            },
            {
              "pitch": 59,
              "velocity": 96,
              "position": 25.25,
              "duration": 2.2083333333333335
            },
            {
              "pitch": 64,
              "velocity": 97,
              "position": 26,
              "duration": 1.4895833333333333
            },
            {
              "pitch": 67,
              "velocity": 98,
              "position": 26.75,
              "duration": 0.75
            },
            {
              "pitch": 64,
              "velocity": 98,
              "position": 27.5,
              "duration": 0.1875
            },
            {
              "pitch": 55,
              "velocity": 97,
              "position": 27.479166666666668,
              "duration": 0.22916666666666666
            },
            {
              "pitch": 59,
              "velocity": 97,
              "position": 27.5,
              "duration": 0.20833333333333334
            },
            {
              "pitch": 55,
              "velocity": 70,
              "position": 27.75,
              "duration": 0.1875
            },
            {
              "pitch": 64,
              "velocity": 77,
              "position": 27.729166666666668,
              "duration": 0.22916666666666666
            },
            {
              "pitch": 59,
              "velocity": 85,
              "position": 27.75,
              "duration": 0.20833333333333334
            },
            {
              "pitch": 55,
              "velocity": 97,
              "position": 27.979166666666668,
              "duration": 0.4583333333333333
            },
            {
              "pitch": 59,
              "velocity": 96,
              "position": 28,
              "duration": 1.2083333333333333
            },
            {
              "pitch": 64,
              "velocity": 98,
              "position": 28,
              "duration": 1.9375
            },
            {
              "pitch": 59,
              "velocity": 98,
              "position": 29.25,
              "duration": 1.4583333333333333
            },
            {
              "pitch": 55,
              "velocity": 97,
              "position": 28.5,
              "duration": 2.9583333333333335
            },
            {
              "pitch": 59,
              "velocity": 98,
              "position": 30.75,
              "duration": 0.7083333333333334
            },
            {
              "pitch": 64,
              "velocity": 97,
              "position": 30,
              "duration": 1.4895833333333333
            },
            {
              "pitch": 64,
              "velocity": 98,
              "position": 31.5,
              "duration": 0.1875
            },
            {
              "pitch": 55,
              "velocity": 97,
              "position": 31.479166666666668,
              "duration": 0.22916666666666666
            },
            {
              "pitch": 59,
              "velocity": 97,
              "position": 31.5,
              "duration": 0.20833333333333334
            },
            {
              "pitch": 64,
              "velocity": 77,
              "position": 31.729166666666668,
              "duration": 0.20833333333333334
            },
            {
              "pitch": 55,
              "velocity": 70,
              "position": 31.75,
              "duration": 0.1875
            },
            {
              "pitch": 59,
              "velocity": 85,
              "position": 31.75,
              "duration": 0.20833333333333334
            }
          ]
        }
      }
    },
    "Main_D": {
      "type": "Main_D",
      "sizeInBeats": 32,
      "channels": {
        "0": {
          "ctab": {
            "srcChannel": 0,
            "name": "SteelGtr",
            "accType": "CHORD1",
            "editable": false,
            "mutedNotes": [],
            "mutedChords": [
              "1+2+5",
              "sus4",
              "1+5",
              "1+8",
              "7aug",
              "Maj7aug",
              "7(#9)",
              "7(b13)",
              "7(b9)",
              "7(13)",
              "7#11",
              "7(9)",
              "7b5",
              "7sus4",
              "7th",
              "aug",
              "Maj6(9)",
              "Maj7(9)",
              "Maj(9)",
              "Maj7#11",
              "Maj7",
              "Maj6",
              "Maj"
            ],
            "autoStart": false,
            "sourceChordNote": 0,
            "sourceChordType": "minMaj7",
            "ctb2Low": null,
            "ctb2Main": {
              "ntr": "ROOT_FIXED",
              "ntt": "CHORD",
              "bassOn": false,
              "chordRootUpperLimit": 6,
              "noteLowLimit": 0,
              "noteHighLimit": 127,
              "rtr": "PITCH_SHIFT"
            },
            "ctb2High": null
          },
          "notes": [
            {
              "pitch": 63,
              "velocity": 98,
              "position": 0,
              "duration": 0.9375
            },
            {
              "pitch": 67,
              "velocity": 98,
              "position": 0.020833333333333332,
              "duration": 0.9375
            },
            {
              "pitch": 59,
              "velocity": 98,
              "position": 0,
              "duration": 0.9895833333333334
            },
            {
              "pitch": 55,
              "velocity": 97,
              "position": 0,
              "duration": 1.4166666666666667
            },
            {
              "pitch": 59,
              "velocity": 92,
              "position": 1,
              "duration": 0.9375
            },
            {
              "pitch": 63,
              "velocity": 92,
              "position": 1,
              "duration": 0.9583333333333334
            },
            {
              "pitch": 55,
              "velocity": 92,
              "position": 1.5,
              "duration": 0.4583333333333333
            },
            {
              "pitch": 67,
              "velocity": 92,
              "position": 0.9791666666666666,
              "duration": 1.0104166666666667
            },
            {
              "pitch": 67,
              "velocity": 98,
              "position": 2,
              "duration": 0.9375
            },
            {
              "pitch": 63,
              "velocity": 98,
              "position": 2,
              "duration": 0.9583333333333334
            },
            {
              "pitch": 59,
              "velocity": 98,
              "position": 1.9791666666666667,
              "duration": 1.0104166666666667
            },
            {
              "pitch": 55,
              "velocity": 97,
              "position": 2,
              "duration": 1.4583333333333333
            },
            {
              "pitch": 59,
              "velocity": 92,
              "position": 3,
              "duration": 0.9375
            },
            {
              "pitch": 63,
              "velocity": 92,
              "position": 3,
              "duration": 0.9583333333333334
            },
            {
              "pitch": 55,
              "velocity": 92,
              "position": 3.5,
              "duration": 0.4791666666666667
            },
            {
              "pitch": 67,
              "velocity": 92,
              "position": 2.9791666666666665,
              "duration": 1.0104166666666667
            },
            {
              "pitch": 67,
              "velocity": 98,
              "position": 4,
              "duration": 0.9375
            },
            {
              "pitch": 63,
              "velocity": 98,
              "position": 4,
              "duration": 0.9583333333333334
            },
            {
              "pitch": 59,
              "velocity": 98,
              "position": 3.9791666666666665,
              "duration": 1
            },
            {
              "pitch": 55,
              "velocity": 97,
              "position": 4,
              "duration": 1.4583333333333333
            },
            {
              "pitch": 59,
              "velocity": 92,
              "position": 5,
              "duration": 0.9375
            },
            {
              "pitch": 63,
              "velocity": 92,
              "position": 5,
              "duration": 0.9583333333333334
            },
            {
              "pitch": 55,
              "velocity": 92,
              "position": 5.5,
              "duration": 0.4583333333333333
            },
            {
              "pitch": 67,
              "velocity": 92,
              "position": 4.979166666666667,
              "duration": 1.0104166666666667
            },
            {
              "pitch": 55,
              "velocity": 97,
              "position": 6,
              "duration": 0.4375
            },
            {
              "pitch": 55,
              "velocity": 54,
              "position": 6.5,
              "duration": 0.4583333333333333
            },
            {
              "pitch": 59,
              "velocity": 98,
              "position": 5.979166666666667,
              "duration": 1.0208333333333333
            },
            {
              "pitch": 55,
              "velocity": 99,
              "position": 7,
              "duration": 0.25
            },
            {
              "pitch": 67,
              "velocity": 98,
              "position": 6,
              "duration": 1.4375
            },
            {
              "pitch": 59,
              "velocity": 98,
              "position": 7.25,
              "duration": 0.7291666666666666
            },
            {
              "pitch": 63,
              "velocity": 98,
              "position": 6,
              "duration": 1.9895833333333333
            },
            {
              "pitch": 67,
              "velocity": 96,
              "position": 7.5,
              "duration": 0.5
            },
            {
              "pitch": 63,
              "velocity": 98,
              "position": 8,
              "duration": 0.9375
            },
            {
              "pitch": 67,
              "velocity": 98,
              "position": 8.020833333333334,
              "duration": 0.9375
            },
            {
              "pitch": 59,
              "velocity": 98,
              "position": 8,
              "duration": 0.9895833333333334
            },
            {
              "pitch": 55,
              "velocity": 97,
              "position": 8,
              "duration": 1.4166666666666667
            },
            {
              "pitch": 59,
              "velocity": 92,
              "position": 9,
              "duration": 0.9375
            },
            {
              "pitch": 63,
              "velocity": 92,
              "position": 9,
              "duration": 0.9583333333333334
            },
            {
              "pitch": 55,
              "velocity": 92,
              "position": 9.5,
              "duration": 0.4583333333333333
            },
            {
              "pitch": 67,
              "velocity": 92,
              "position": 8.979166666666666,
              "duration": 1.0104166666666667
            },
            {
              "pitch": 67,
              "velocity": 98,
              "position": 10,
              "duration": 0.9375
            },
            {
              "pitch": 63,
              "velocity": 98,
              "position": 10,
              "duration": 0.9583333333333334
            },
            {
              "pitch": 59,
              "velocity": 98,
              "position": 9.979166666666666,
              "duration": 1.0104166666666667
            },
            {
              "pitch": 55,
              "velocity": 97,
              "position": 10,
              "duration": 1.4583333333333333
            },
            {
              "pitch": 59,
              "velocity": 92,
              "position": 11,
              "duration": 0.9375
            },
            {
              "pitch": 63,
              "velocity": 92,
              "position": 11,
              "duration": 0.9583333333333334
            },
            {
              "pitch": 55,
              "velocity": 92,
              "position": 11.5,
              "duration": 0.4791666666666667
            },
            {
              "pitch": 67,
              "velocity": 92,
              "position": 10.979166666666666,
              "duration": 1.0104166666666667
            },
            {
              "pitch": 67,
              "velocity": 98,
              "position": 12,
              "duration": 0.9375
            },
            {
              "pitch": 63,
              "velocity": 98,
              "position": 12,
              "duration": 0.9583333333333334
            },
            {
              "pitch": 59,
              "velocity": 98,
              "position": 11.979166666666666,
              "duration": 1
            },
            {
              "pitch": 55,
              "velocity": 97,
              "position": 12,
              "duration": 1.4583333333333333
            },
            {
              "pitch": 59,
              "velocity": 92,
              "position": 13,
              "duration": 0.9375
            },
            {
              "pitch": 63,
              "velocity": 92,
              "position": 13,
              "duration": 0.9583333333333334
            },
            {
              "pitch": 55,
              "velocity": 92,
              "position": 13.5,
              "duration": 0.4583333333333333
            },
            {
              "pitch": 67,
              "velocity": 92,
              "position": 12.979166666666666,
              "duration": 1.0104166666666667
            },
            {
              "pitch": 55,
              "velocity": 97,
              "position": 14,
              "duration": 0.4375
            },
            {
              "pitch": 55,
              "velocity": 54,
              "position": 14.5,
              "duration": 0.4583333333333333
            },
            {
              "pitch": 59,
              "velocity": 98,
              "position": 13.979166666666666,
              "duration": 1.0208333333333333
            },
            {
              "pitch": 55,
              "velocity": 99,
              "position": 15,
              "duration": 0.25
            },
            {
              "pitch": 67,
              "velocity": 98,
              "position": 14,
              "duration": 1.4375
            },
            {
              "pitch": 59,
              "velocity": 98,
              "position": 15.25,
              "duration": 0.7291666666666666
            },
            {
              "pitch": 63,
              "velocity": 98,
              "position": 14,
              "duration": 1.9895833333333333
            },
            {
              "pitch": 67,
              "velocity": 96,
              "position": 15.5,
              "duration": 0.5
            },
            {
              "pitch": 63,
              "velocity": 98,
              "position": 16,
              "duration": 0.9375
            },
            {
              "pitch": 67,
              "velocity": 98,
              "position": 16.020833333333332,
              "duration": 0.9375
            },
            {
              "pitch": 59,
              "velocity": 98,
              "position": 16,
              "duration": 0.9895833333333334
            },
            {
              "pitch": 55,
              "velocity": 97,
              "position": 16,
              "duration": 1.4166666666666667
            },
            {
              "pitch": 59,
              "velocity": 92,
              "position": 17,
              "duration": 0.9375
            },
            {
              "pitch": 63,
              "velocity": 92,
              "position": 17,
              "duration": 0.9583333333333334
            },
            {
              "pitch": 55,
              "velocity": 92,
              "position": 17.5,
              "duration": 0.4583333333333333
            },
            {
              "pitch": 67,
              "velocity": 92,
              "position": 16.979166666666668,
              "duration": 1.0104166666666667
            },
            {
              "pitch": 67,
              "velocity": 98,
              "position": 18,
              "duration": 0.9375
            },
            {
              "pitch": 63,
              "velocity": 98,
              "position": 18,
              "duration": 0.9583333333333334
            },
            {
              "pitch": 59,
              "velocity": 98,
              "position": 17.979166666666668,
              "duration": 1.0104166666666667
            },
            {
              "pitch": 55,
              "velocity": 97,
              "position": 18,
              "duration": 1.4583333333333333
            },
            {
              "pitch": 59,
              "velocity": 92,
              "position": 19,
              "duration": 0.9375
            },
            {
              "pitch": 63,
              "velocity": 92,
              "position": 19,
              "duration": 0.9583333333333334
            },
            {
              "pitch": 55,
              "velocity": 92,
              "position": 19.5,
              "duration": 0.4791666666666667
            },
            {
              "pitch": 67,
              "velocity": 92,
              "position": 18.979166666666668,
              "duration": 1.0104166666666667
            },
            {
              "pitch": 67,
              "velocity": 98,
              "position": 20,
              "duration": 0.9375
            },
            {
              "pitch": 63,
              "velocity": 98,
              "position": 20,
              "duration": 0.9583333333333334
            },
            {
              "pitch": 59,
              "velocity": 98,
              "position": 19.979166666666668,
              "duration": 1
            },
            {
              "pitch": 55,
              "velocity": 97,
              "position": 20,
              "duration": 1.4583333333333333
            },
            {
              "pitch": 59,
              "velocity": 92,
              "position": 21,
              "duration": 0.9375
            },
            {
              "pitch": 63,
              "velocity": 92,
              "position": 21,
              "duration": 0.9583333333333334
            },
            {
              "pitch": 55,
              "velocity": 92,
              "position": 21.5,
              "duration": 0.4583333333333333
            },
            {
              "pitch": 67,
              "velocity": 92,
              "position": 20.979166666666668,
              "duration": 1.0104166666666667
            },
            {
              "pitch": 55,
              "velocity": 97,
              "position": 22,
              "duration": 0.4375
            },
            {
              "pitch": 55,
              "velocity": 54,
              "position": 22.5,
              "duration": 0.4583333333333333
            },
            {
              "pitch": 59,
              "velocity": 98,
              "position": 21.979166666666668,
              "duration": 1.0208333333333333
            },
            {
              "pitch": 55,
              "velocity": 99,
              "position": 23,
              "duration": 0.25
            },
            {
              "pitch": 67,
              "velocity": 98,
              "position": 22,
              "duration": 1.4375
            },
            {
              "pitch": 59,
              "velocity": 98,
              "position": 23.25,
              "duration": 0.7291666666666666
            },
            {
              "pitch": 63,
              "velocity": 98,
              "position": 22,
              "duration": 1.9895833333333333
            },
            {
              "pitch": 67,
              "velocity": 96,
              "position": 23.5,
              "duration": 0.5
            },
            {
              "pitch": 63,
              "velocity": 98,
              "position": 24,
              "duration": 0.9375
            },
            {
              "pitch": 67,
              "velocity": 98,
              "position": 24.020833333333332,
              "duration": 0.9375
            },
            {
              "pitch": 59,
              "velocity": 98,
              "position": 24,
              "duration": 0.9895833333333334
            },
            {
              "pitch": 55,
              "velocity": 97,
              "position": 24,
              "duration": 1.4166666666666667
            },
            {
              "pitch": 59,
              "velocity": 92,
              "position": 25,
              "duration": 0.9375
            },
            {
              "pitch": 63,
              "velocity": 92,
              "position": 25,
              "duration": 0.9583333333333334
            },
            {
              "pitch": 55,
              "velocity": 92,
              "position": 25.5,
              "duration": 0.4583333333333333
            },
            {
              "pitch": 67,
              "velocity": 92,
              "position": 24.979166666666668,
              "duration": 1.0104166666666667
            },
            {
              "pitch": 67,
              "velocity": 98,
              "position": 26,
              "duration": 0.9375
            },
            {
              "pitch": 63,
              "velocity": 98,
              "position": 26,
              "duration": 0.9583333333333334
            },
            {
              "pitch": 59,
              "velocity": 98,
              "position": 25.979166666666668,
              "duration": 1.0104166666666667
            },
            {
              "pitch": 55,
              "velocity": 97,
              "position": 26,
              "duration": 1.4583333333333333
            },
            {
              "pitch": 59,
              "velocity": 92,
              "position": 27,
              "duration": 0.9375
            },
            {
              "pitch": 63,
              "velocity": 92,
              "position": 27,
              "duration": 0.9583333333333334
            },
            {
              "pitch": 55,
              "velocity": 92,
              "position": 27.5,
              "duration": 0.4791666666666667
            },
            {
              "pitch": 67,
              "velocity": 92,
              "position": 26.979166666666668,
              "duration": 1.0104166666666667
            },
            {
              "pitch": 67,
              "velocity": 98,
              "position": 28,
              "duration": 0.9375
            },
            {
              "pitch": 63,
              "velocity": 98,
              "position": 28,
              "duration": 0.9583333333333334
            },
            {
              "pitch": 59,
              "velocity": 98,
              "position": 27.979166666666668,
              "duration": 1
            },
            {
              "pitch": 55,
              "velocity": 97,
              "position": 28,
              "duration": 1.4583333333333333
            },
            {
              "pitch": 59,
              "velocity": 92,
              "position": 29,
              "duration": 0.9375
            },
            {
              "pitch": 63,
              "velocity": 92,
              "position": 29,
              "duration": 0.9583333333333334
            },
            {
              "pitch": 55,
              "velocity": 92,
              "position": 29.5,
              "duration": 0.4583333333333333
            },
            {
              "pitch": 67,
              "velocity": 92,
              "position": 28.979166666666668,
              "duration": 1.0104166666666667
            },
            {
              "pitch": 55,
              "velocity": 97,
              "position": 30,
              "duration": 0.4375
            },
            {
              "pitch": 55,
              "velocity": 54,
              "position": 30.5,
              "duration": 0.4583333333333333
            },
            {
              "pitch": 59,
              "velocity": 98,
              "position": 29.979166666666668,
              "duration": 1.0208333333333333
            },
            {
              "pitch": 55,
              "velocity": 99,
              "position": 31,
              "duration": 0.25
            },
            {
              "pitch": 67,
              "velocity": 98,
              "position": 30,
              "duration": 1.4375
            },
            {
              "pitch": 63,
              "velocity": 98,
              "position": 30,
              "duration": 2
            },
            {
              "pitch": 59,
              "velocity": 98,
              "position": 31.25,
              "duration": 0.75
            },
            {
              "pitch": 67,
              "velocity": 96,
              "position": 31.5,
              "duration": 0.5
            }
          ]
        },
        "1": {
          "ctab": {
            "srcChannel": 1,
            "name": "SteelGtr",
            "accType": "CHORD1",
            "editable": false,
            "mutedNotes": [],
            "mutedChords": [
              "1+2+5",
              "sus4",
              "1+5",
              "1+8",
              "dim7",
              "dim",
              "minMaj7(9)",
              "minMaj7",
              "min7(11)",
              "min7(9)",
              "min(9)",
              "m7b5",
              "min7",
              "min6",
              "min",
              "aug",
              "Maj6(9)",
              "Maj7(9)",
              "Maj(9)",
              "Maj7#11",
              "Maj7",
              "Maj6",
              "Maj"
            ],
            "autoStart": false,
            "sourceChordNote": 0,
            "sourceChordType": "7th",
            "ctb2Low": null,
            "ctb2Main": {
              "ntr": "ROOT_TRANSPOSITION",
              "ntt": "CHORD",
              "bassOn": false,
              "chordRootUpperLimit": 6,
              "noteLowLimit": 0,
              "noteHighLimit": 127,
              "rtr": "PITCH_SHIFT"
            },
            "ctb2High": null
          },
          "notes": [
            {
              "pitch": 64,
              "velocity": 98,
              "position": 0,
              "duration": 0.9375
            },
            {
              "pitch": 70,
              "velocity": 98,
              "position": 0.020833333333333332,
              "duration": 0.9375
            },
            {
              "pitch": 55,
              "velocity": 98,
              "position": 0,
              "duration": 0.9895833333333334
            },
            {
              "pitch": 58,
              "velocity": 97,
              "position": 0,
              "duration": 1.4166666666666667
            },
            {
              "pitch": 55,
              "velocity": 92,
              "position": 1,
              "duration": 0.9375
            },
            {
              "pitch": 64,
              "velocity": 92,
              "position": 1,
              "duration": 0.9583333333333334
            },
            {
              "pitch": 58,
              "velocity": 92,
              "position": 1.5,
              "duration": 0.4583333333333333
            },
            {
              "pitch": 70,
              "velocity": 92,
              "position": 0.9791666666666666,
              "duration": 1.0104166666666667
            },
            {
              "pitch": 70,
              "velocity": 98,
              "position": 2,
              "duration": 0.9375
            },
            {
              "pitch": 64,
              "velocity": 98,
              "position": 2,
              "duration": 0.9583333333333334
            },
            {
              "pitch": 55,
              "velocity": 98,
              "position": 1.9791666666666667,
              "duration": 1.0104166666666667
            },
            {
              "pitch": 58,
              "velocity": 97,
              "position": 2,
              "duration": 1.4583333333333333
            },
            {
              "pitch": 55,
              "velocity": 92,
              "position": 3,
              "duration": 0.9375
            },
            {
              "pitch": 64,
              "velocity": 92,
              "position": 3,
              "duration": 0.9583333333333334
            },
            {
              "pitch": 58,
              "velocity": 92,
              "position": 3.5,
              "duration": 0.4791666666666667
            },
            {
              "pitch": 70,
              "velocity": 92,
              "position": 2.9791666666666665,
              "duration": 1.0104166666666667
            },
            {
              "pitch": 70,
              "velocity": 98,
              "position": 4,
              "duration": 0.9375
            },
            {
              "pitch": 64,
              "velocity": 98,
              "position": 4,
              "duration": 0.9583333333333334
            },
            {
              "pitch": 55,
              "velocity": 98,
              "position": 3.9791666666666665,
              "duration": 1
            },
            {
              "pitch": 58,
              "velocity": 97,
              "position": 4,
              "duration": 1.4583333333333333
            },
            {
              "pitch": 55,
              "velocity": 92,
              "position": 5,
              "duration": 0.9375
            },
            {
              "pitch": 64,
              "velocity": 92,
              "position": 5,
              "duration": 0.9583333333333334
            },
            {
              "pitch": 58,
              "velocity": 92,
              "position": 5.5,
              "duration": 0.4583333333333333
            },
            {
              "pitch": 70,
              "velocity": 92,
              "position": 4.979166666666667,
              "duration": 1.0104166666666667
            },
            {
              "pitch": 58,
              "velocity": 97,
              "position": 6,
              "duration": 0.4375
            },
            {
              "pitch": 55,
              "velocity": 98,
              "position": 5.979166666666667,
              "duration": 1.0208333333333333
            },
            {
              "pitch": 57,
              "velocity": 99,
              "position": 7,
              "duration": 0.22916666666666666
            },
            {
              "pitch": 70,
              "velocity": 98,
              "position": 6,
              "duration": 1.4375
            },
            {
              "pitch": 58,
              "velocity": 54,
              "position": 6.5,
              "duration": 1.4791666666666667
            },
            {
              "pitch": 55,
              "velocity": 98,
              "position": 7.25,
              "duration": 0.7291666666666666
            },
            {
              "pitch": 64,
              "velocity": 98,
              "position": 6,
              "duration": 1.9895833333333333
            },
            {
              "pitch": 70,
              "velocity": 96,
              "position": 7.5,
              "duration": 0.5
            },
            {
              "pitch": 64,
              "velocity": 98,
              "position": 8,
              "duration": 0.9375
            },
            {
              "pitch": 70,
              "velocity": 98,
              "position": 8.020833333333334,
              "duration": 0.9375
            },
            {
              "pitch": 55,
              "velocity": 98,
              "position": 8,
              "duration": 0.9895833333333334
            },
            {
              "pitch": 58,
              "velocity": 97,
              "position": 8,
              "duration": 1.4166666666666667
            },
            {
              "pitch": 55,
              "velocity": 92,
              "position": 9,
              "duration": 0.9375
            },
            {
              "pitch": 64,
              "velocity": 92,
              "position": 9,
              "duration": 0.9583333333333334
            },
            {
              "pitch": 58,
              "velocity": 92,
              "position": 9.5,
              "duration": 0.4583333333333333
            },
            {
              "pitch": 70,
              "velocity": 92,
              "position": 8.979166666666666,
              "duration": 1.0104166666666667
            },
            {
              "pitch": 70,
              "velocity": 98,
              "position": 10,
              "duration": 0.9375
            },
            {
              "pitch": 64,
              "velocity": 98,
              "position": 10,
              "duration": 0.9583333333333334
            },
            {
              "pitch": 55,
              "velocity": 98,
              "position": 9.979166666666666,
              "duration": 1.0104166666666667
            },
            {
              "pitch": 58,
              "velocity": 97,
              "position": 10,
              "duration": 1.4583333333333333
            },
            {
              "pitch": 55,
              "velocity": 92,
              "position": 11,
              "duration": 0.9375
            },
            {
              "pitch": 64,
              "velocity": 92,
              "position": 11,
              "duration": 0.9583333333333334
            },
            {
              "pitch": 58,
              "velocity": 92,
              "position": 11.5,
              "duration": 0.4791666666666667
            },
            {
              "pitch": 70,
              "velocity": 92,
              "position": 10.979166666666666,
              "duration": 1.0104166666666667
            },
            {
              "pitch": 70,
              "velocity": 98,
              "position": 12,
              "duration": 0.9375
            },
            {
              "pitch": 64,
              "velocity": 98,
              "position": 12,
              "duration": 0.9583333333333334
            },
            {
              "pitch": 55,
              "velocity": 98,
              "position": 11.979166666666666,
              "duration": 1
            },
            {
              "pitch": 58,
              "velocity": 97,
              "position": 12,
              "duration": 1.4583333333333333
            },
            {
              "pitch": 55,
              "velocity": 92,
              "position": 13,
              "duration": 0.9375
            },
            {
              "pitch": 64,
              "velocity": 92,
              "position": 13,
              "duration": 0.9583333333333334
            },
            {
              "pitch": 58,
              "velocity": 92,
              "position": 13.5,
              "duration": 0.4583333333333333
            },
            {
              "pitch": 70,
              "velocity": 92,
              "position": 12.979166666666666,
              "duration": 1.0104166666666667
            },
            {
              "pitch": 58,
              "velocity": 97,
              "position": 14,
              "duration": 0.4375
            },
            {
              "pitch": 55,
              "velocity": 98,
              "position": 13.979166666666666,
              "duration": 1.0208333333333333
            },
            {
              "pitch": 57,
              "velocity": 99,
              "position": 15,
              "duration": 0.22916666666666666
            },
            {
              "pitch": 70,
              "velocity": 98,
              "position": 14,
              "duration": 1.4375
            },
            {
              "pitch": 58,
              "velocity": 54,
              "position": 14.5,
              "duration": 1.4791666666666667
            },
            {
              "pitch": 55,
              "velocity": 98,
              "position": 15.25,
              "duration": 0.7291666666666666
            },
            {
              "pitch": 64,
              "velocity": 98,
              "position": 14,
              "duration": 1.9895833333333333
            },
            {
              "pitch": 70,
              "velocity": 96,
              "position": 15.5,
              "duration": 0.5
            },
            {
              "pitch": 64,
              "velocity": 98,
              "position": 16,
              "duration": 0.9375
            },
            {
              "pitch": 70,
              "velocity": 98,
              "position": 16.020833333333332,
              "duration": 0.9375
            },
            {
              "pitch": 55,
              "velocity": 98,
              "position": 16,
              "duration": 0.9895833333333334
            },
            {
              "pitch": 58,
              "velocity": 97,
              "position": 16,
              "duration": 1.4166666666666667
            },
            {
              "pitch": 55,
              "velocity": 92,
              "position": 17,
              "duration": 0.9375
            },
            {
              "pitch": 64,
              "velocity": 92,
              "position": 17,
              "duration": 0.9583333333333334
            },
            {
              "pitch": 58,
              "velocity": 92,
              "position": 17.5,
              "duration": 0.4583333333333333
            },
            {
              "pitch": 70,
              "velocity": 92,
              "position": 16.979166666666668,
              "duration": 1.0104166666666667
            },
            {
              "pitch": 70,
              "velocity": 98,
              "position": 18,
              "duration": 0.9375
            },
            {
              "pitch": 64,
              "velocity": 98,
              "position": 18,
              "duration": 0.9583333333333334
            },
            {
              "pitch": 55,
              "velocity": 98,
              "position": 17.979166666666668,
              "duration": 1.0104166666666667
            },
            {
              "pitch": 58,
              "velocity": 97,
              "position": 18,
              "duration": 1.4583333333333333
            },
            {
              "pitch": 55,
              "velocity": 92,
              "position": 19,
              "duration": 0.9375
            },
            {
              "pitch": 64,
              "velocity": 92,
              "position": 19,
              "duration": 0.9583333333333334
            },
            {
              "pitch": 58,
              "velocity": 92,
              "position": 19.5,
              "duration": 0.4791666666666667
            },
            {
              "pitch": 70,
              "velocity": 92,
              "position": 18.979166666666668,
              "duration": 1.0104166666666667
            },
            {
              "pitch": 70,
              "velocity": 98,
              "position": 20,
              "duration": 0.9375
            },
            {
              "pitch": 64,
              "velocity": 98,
              "position": 20,
              "duration": 0.9583333333333334
            },
            {
              "pitch": 55,
              "velocity": 98,
              "position": 19.979166666666668,
              "duration": 1
            },
            {
              "pitch": 58,
              "velocity": 97,
              "position": 20,
              "duration": 1.4583333333333333
            },
            {
              "pitch": 55,
              "velocity": 92,
              "position": 21,
              "duration": 0.9375
            },
            {
              "pitch": 64,
              "velocity": 92,
              "position": 21,
              "duration": 0.9583333333333334
            },
            {
              "pitch": 58,
              "velocity": 92,
              "position": 21.5,
              "duration": 0.4583333333333333
            },
            {
              "pitch": 70,
              "velocity": 92,
              "position": 20.979166666666668,
              "duration": 1.0104166666666667
            },
            {
              "pitch": 58,
              "velocity": 97,
              "position": 22,
              "duration": 0.4375
            },
            {
              "pitch": 55,
              "velocity": 98,
              "position": 21.979166666666668,
              "duration": 1.0208333333333333
            },
            {
              "pitch": 57,
              "velocity": 99,
              "position": 23,
              "duration": 0.22916666666666666
            },
            {
              "pitch": 70,
              "velocity": 98,
              "position": 22,
              "duration": 1.4375
            },
            {
              "pitch": 58,
              "velocity": 54,
              "position": 22.5,
              "duration": 1.4791666666666667
            },
            {
              "pitch": 55,
              "velocity": 98,
              "position": 23.25,
              "duration": 0.7291666666666666
            },
            {
              "pitch": 64,
              "velocity": 98,
              "position": 22,
              "duration": 1.9895833333333333
            },
            {
              "pitch": 70,
              "velocity": 96,
              "position": 23.5,
              "duration": 0.5
            },
            {
              "pitch": 64,
              "velocity": 98,
              "position": 24,
              "duration": 0.9375
            },
            {
              "pitch": 70,
              "velocity": 98,
              "position": 24.020833333333332,
              "duration": 0.9375
            },
            {
              "pitch": 55,
              "velocity": 98,
              "position": 24,
              "duration": 0.9895833333333334
            },
            {
              "pitch": 58,
              "velocity": 97,
              "position": 24,
              "duration": 1.4166666666666667
            },
            {
              "pitch": 55,
              "velocity": 92,
              "position": 25,
              "duration": 0.9375
            },
            {
              "pitch": 64,
              "velocity": 92,
              "position": 25,
              "duration": 0.9583333333333334
            },
            {
              "pitch": 58,
              "velocity": 92,
              "position": 25.5,
              "duration": 0.4583333333333333
            },
            {
              "pitch": 70,
              "velocity": 92,
              "position": 24.979166666666668,
              "duration": 1.0104166666666667
            },
            {
              "pitch": 70,
              "velocity": 98,
              "position": 26,
              "duration": 0.9375
            },
            {
              "pitch": 64,
              "velocity": 98,
              "position": 26,
              "duration": 0.9583333333333334
            },
            {
              "pitch": 55,
              "velocity": 98,
              "position": 25.979166666666668,
              "duration": 1.0104166666666667
            },
            {
              "pitch": 58,
              "velocity": 97,
              "position": 26,
              "duration": 1.4583333333333333
            },
            {
              "pitch": 55,
              "velocity": 92,
              "position": 27,
              "duration": 0.9375
            },
            {
              "pitch": 64,
              "velocity": 92,
              "position": 27,
              "duration": 0.9583333333333334
            },
            {
              "pitch": 58,
              "velocity": 92,
              "position": 27.5,
              "duration": 0.4791666666666667
            },
            {
              "pitch": 70,
              "velocity": 92,
              "position": 26.979166666666668,
              "duration": 1.0104166666666667
            },
            {
              "pitch": 70,
              "velocity": 98,
              "position": 28,
              "duration": 0.9375
            },
            {
              "pitch": 64,
              "velocity": 98,
              "position": 28,
              "duration": 0.9583333333333334
            },
            {
              "pitch": 55,
              "velocity": 98,
              "position": 27.979166666666668,
              "duration": 1
            },
            {
              "pitch": 58,
              "velocity": 97,
              "position": 28,
              "duration": 1.4583333333333333
            },
            {
              "pitch": 55,
              "velocity": 92,
              "position": 29,
              "duration": 0.9375
            },
            {
              "pitch": 64,
              "velocity": 92,
              "position": 29,
              "duration": 0.9583333333333334
            },
            {
              "pitch": 58,
              "velocity": 92,
              "position": 29.5,
              "duration": 0.4583333333333333
            },
            {
              "pitch": 70,
              "velocity": 92,
              "position": 28.979166666666668,
              "duration": 1.0104166666666667
            },
            {
              "pitch": 58,
              "velocity": 97,
              "position": 30,
              "duration": 0.4375
            },
            {
              "pitch": 55,
              "velocity": 98,
              "position": 29.979166666666668,
              "duration": 1.0208333333333333
            },
            {
              "pitch": 57,
              "velocity": 99,
              "position": 31,
              "duration": 0.22916666666666666
            },
            {
              "pitch": 70,
              "velocity": 98,
              "position": 30,
              "duration": 1.4375
            },
            {
              "pitch": 64,
              "velocity": 98,
              "position": 30,
              "duration": 2
            },
            {
              "pitch": 58,
              "velocity": 54,
              "position": 30.5,
              "duration": 1.5
            },
            {
              "pitch": 55,
              "velocity": 98,
              "position": 31.25,
              "duration": 0.75
            },
            {
              "pitch": 70,
              "velocity": 96,
              "position": 31.5,
              "duration": 0.5
            }
          ]
        },
        "2": {
          "ctab": {
            "srcChannel": 2,
            "name": "SteelGtr",
            "accType": "CHORD2",
            "editable": false,
            "mutedNotes": [],
            "mutedChords": [
              "7aug",
              "Maj7aug",
              "7(#9)",
              "7(b13)",
              "7(b9)",
              "7(13)",
              "7#11",
              "7(9)",
              "7b5",
              "7sus4",
              "7th"
            ],
            "autoStart": false,
            "sourceChordNote": 0,
            "sourceChordType": "Maj7",
            "ctb2Low": null,
            "ctb2Main": {
              "ntr": "ROOT_FIXED",
              "ntt": "CHORD",
              "bassOn": false,
              "chordRootUpperLimit": 6,
              "noteLowLimit": 0,
              "noteHighLimit": 127,
              "rtr": "PITCH_SHIFT"
            },
            "ctb2High": null
          },
          "notes": [
            {
              "pitch": 55,
              "velocity": 96,
              "position": 0,
              "duration": 0.4583333333333333
            },
            {
              "pitch": 59,
              "velocity": 96,
              "position": 0,
              "duration": 0.4583333333333333
            },
            {
              "pitch": 64,
              "velocity": 97,
              "position": 0,
              "duration": 0.4895833333333333
            },
            {
              "pitch": 64,
              "velocity": 92,
              "position": 0.5,
              "duration": 0.1875
            },
            {
              "pitch": 59,
              "velocity": 85,
              "position": 0.5,
              "duration": 0.22916666666666666
            },
            {
              "pitch": 55,
              "velocity": 85,
              "position": 0.4791666666666667,
              "duration": 0.2604166666666667
            },
            {
              "pitch": 48,
              "velocity": 98,
              "position": 0,
              "duration": 0.8333333333333334
            },
            {
              "pitch": 55,
              "velocity": 46,
              "position": 0.75,
              "duration": 0.1875
            },
            {
              "pitch": 59,
              "velocity": 64,
              "position": 0.75,
              "duration": 0.20833333333333334
            },
            {
              "pitch": 64,
              "velocity": 64,
              "position": 0.7291666666666666,
              "duration": 0.2604166666666667
            },
            {
              "pitch": 55,
              "velocity": 92,
              "position": 0.9791666666666666,
              "duration": 0.4791666666666667
            },
            {
              "pitch": 59,
              "velocity": 92,
              "position": 1,
              "duration": 0.4583333333333333
            },
            {
              "pitch": 64,
              "velocity": 96,
              "position": 1,
              "duration": 0.4791666666666667
            },
            {
              "pitch": 64,
              "velocity": 92,
              "position": 1.5,
              "duration": 0.1875
            },
            {
              "pitch": 59,
              "velocity": 92,
              "position": 1.5,
              "duration": 0.20833333333333334
            },
            {
              "pitch": 55,
              "velocity": 85,
              "position": 1.4791666666666667,
              "duration": 0.25
            },
            {
              "pitch": 52,
              "velocity": 97,
              "position": 1,
              "duration": 0.8333333333333334
            },
            {
              "pitch": 64,
              "velocity": 70,
              "position": 1.7291666666666667,
              "duration": 0.25
            },
            {
              "pitch": 59,
              "velocity": 85,
              "position": 1.75,
              "duration": 0.22916666666666666
            },
            {
              "pitch": 55,
              "velocity": 64,
              "position": 1.75,
              "duration": 0.22916666666666666
            },
            {
              "pitch": 55,
              "velocity": 96,
              "position": 2,
              "duration": 0.4583333333333333
            },
            {
              "pitch": 59,
              "velocity": 96,
              "position": 2,
              "duration": 0.4583333333333333
            },
            {
              "pitch": 64,
              "velocity": 97,
              "position": 2,
              "duration": 0.4895833333333333
            },
            {
              "pitch": 64,
              "velocity": 92,
              "position": 2.5,
              "duration": 0.1875
            },
            {
              "pitch": 59,
              "velocity": 85,
              "position": 2.5,
              "duration": 0.22916666666666666
            },
            {
              "pitch": 55,
              "velocity": 85,
              "position": 2.4791666666666665,
              "duration": 0.2604166666666667
            },
            {
              "pitch": 48,
              "velocity": 98,
              "position": 2,
              "duration": 0.8333333333333334
            },
            {
              "pitch": 55,
              "velocity": 46,
              "position": 2.75,
              "duration": 0.1875
            },
            {
              "pitch": 59,
              "velocity": 64,
              "position": 2.75,
              "duration": 0.20833333333333334
            },
            {
              "pitch": 64,
              "velocity": 64,
              "position": 2.7291666666666665,
              "duration": 0.25
            },
            {
              "pitch": 55,
              "velocity": 92,
              "position": 2.9791666666666665,
              "duration": 0.4791666666666667
            },
            {
              "pitch": 59,
              "velocity": 92,
              "position": 3,
              "duration": 0.4583333333333333
            },
            {
              "pitch": 64,
              "velocity": 96,
              "position": 3,
              "duration": 0.4791666666666667
            },
            {
              "pitch": 64,
              "velocity": 92,
              "position": 3.5,
              "duration": 0.1875
            },
            {
              "pitch": 59,
              "velocity": 92,
              "position": 3.5,
              "duration": 0.20833333333333334
            },
            {
              "pitch": 55,
              "velocity": 85,
              "position": 3.4791666666666665,
              "duration": 0.25
            },
            {
              "pitch": 52,
              "velocity": 97,
              "position": 3,
              "duration": 0.8333333333333334
            },
            {
              "pitch": 64,
              "velocity": 70,
              "position": 3.7291666666666665,
              "duration": 0.25
            },
            {
              "pitch": 59,
              "velocity": 85,
              "position": 3.75,
              "duration": 0.22916666666666666
            },
            {
              "pitch": 55,
              "velocity": 64,
              "position": 3.75,
              "duration": 0.22916666666666666
            },
            {
              "pitch": 55,
              "velocity": 96,
              "position": 4,
              "duration": 0.4583333333333333
            },
            {
              "pitch": 59,
              "velocity": 96,
              "position": 4,
              "duration": 0.4583333333333333
            },
            {
              "pitch": 64,
              "velocity": 97,
              "position": 4,
              "duration": 0.4895833333333333
            },
            {
              "pitch": 64,
              "velocity": 92,
              "position": 4.5,
              "duration": 0.1875
            },
            {
              "pitch": 59,
              "velocity": 85,
              "position": 4.5,
              "duration": 0.22916666666666666
            },
            {
              "pitch": 55,
              "velocity": 85,
              "position": 4.479166666666667,
              "duration": 0.2604166666666667
            },
            {
              "pitch": 48,
              "velocity": 98,
              "position": 4,
              "duration": 0.8333333333333334
            },
            {
              "pitch": 55,
              "velocity": 46,
              "position": 4.75,
              "duration": 0.1875
            },
            {
              "pitch": 59,
              "velocity": 64,
              "position": 4.75,
              "duration": 0.20833333333333334
            },
            {
              "pitch": 64,
              "velocity": 64,
              "position": 4.729166666666667,
              "duration": 0.2604166666666667
            },
            {
              "pitch": 55,
              "velocity": 92,
              "position": 4.979166666666667,
              "duration": 0.4791666666666667
            },
            {
              "pitch": 59,
              "velocity": 92,
              "position": 5,
              "duration": 0.4583333333333333
            },
            {
              "pitch": 64,
              "velocity": 96,
              "position": 5,
              "duration": 0.4791666666666667
            },
            {
              "pitch": 64,
              "velocity": 92,
              "position": 5.5,
              "duration": 0.1875
            },
            {
              "pitch": 59,
              "velocity": 92,
              "position": 5.5,
              "duration": 0.20833333333333334
            },
            {
              "pitch": 55,
              "velocity": 85,
              "position": 5.479166666666667,
              "duration": 0.25
            },
            {
              "pitch": 52,
              "velocity": 97,
              "position": 5,
              "duration": 0.8333333333333334
            },
            {
              "pitch": 64,
              "velocity": 70,
              "position": 5.729166666666667,
              "duration": 0.25
            },
            {
              "pitch": 59,
              "velocity": 85,
              "position": 5.75,
              "duration": 0.22916666666666666
            },
            {
              "pitch": 55,
              "velocity": 64,
              "position": 5.75,
              "duration": 0.22916666666666666
            },
            {
              "pitch": 55,
              "velocity": 96,
              "position": 6,
              "duration": 0.4583333333333333
            },
            {
              "pitch": 59,
              "velocity": 96,
              "position": 6,
              "duration": 0.4583333333333333
            },
            {
              "pitch": 64,
              "velocity": 97,
              "position": 6,
              "duration": 0.4895833333333333
            },
            {
              "pitch": 64,
              "velocity": 92,
              "position": 6.5,
              "duration": 0.1875
            },
            {
              "pitch": 59,
              "velocity": 85,
              "position": 6.5,
              "duration": 0.22916666666666666
            },
            {
              "pitch": 55,
              "velocity": 85,
              "position": 6.479166666666667,
              "duration": 0.2604166666666667
            },
            {
              "pitch": 48,
              "velocity": 98,
              "position": 6,
              "duration": 0.8333333333333334
            },
            {
              "pitch": 55,
              "velocity": 46,
              "position": 6.75,
              "duration": 0.1875
            },
            {
              "pitch": 59,
              "velocity": 64,
              "position": 6.75,
              "duration": 0.20833333333333334
            },
            {
              "pitch": 64,
              "velocity": 64,
              "position": 6.729166666666667,
              "duration": 0.25
            },
            {
              "pitch": 67,
              "velocity": 92,
              "position": 6.979166666666667,
              "duration": 0.4791666666666667
            },
            {
              "pitch": 59,
              "velocity": 92,
              "position": 7,
              "duration": 0.4583333333333333
            },
            {
              "pitch": 64,
              "velocity": 96,
              "position": 7,
              "duration": 0.4791666666666667
            },
            {
              "pitch": 64,
              "velocity": 92,
              "position": 7.5,
              "duration": 0.1875
            },
            {
              "pitch": 59,
              "velocity": 92,
              "position": 7.5,
              "duration": 0.20833333333333334
            },
            {
              "pitch": 55,
              "velocity": 85,
              "position": 7.479166666666667,
              "duration": 0.25
            },
            {
              "pitch": 52,
              "velocity": 97,
              "position": 7,
              "duration": 0.8333333333333334
            },
            {
              "pitch": 64,
              "velocity": 70,
              "position": 7.729166666666667,
              "duration": 0.25
            },
            {
              "pitch": 59,
              "velocity": 85,
              "position": 7.75,
              "duration": 0.22916666666666666
            },
            {
              "pitch": 55,
              "velocity": 64,
              "position": 7.75,
              "duration": 0.22916666666666666
            },
            {
              "pitch": 55,
              "velocity": 96,
              "position": 8,
              "duration": 0.4583333333333333
            },
            {
              "pitch": 59,
              "velocity": 96,
              "position": 8,
              "duration": 0.4583333333333333
            },
            {
              "pitch": 64,
              "velocity": 97,
              "position": 8,
              "duration": 0.4895833333333333
            },
            {
              "pitch": 64,
              "velocity": 92,
              "position": 8.5,
              "duration": 0.1875
            },
            {
              "pitch": 59,
              "velocity": 85,
              "position": 8.5,
              "duration": 0.22916666666666666
            },
            {
              "pitch": 55,
              "velocity": 85,
              "position": 8.479166666666666,
              "duration": 0.2604166666666667
            },
            {
              "pitch": 48,
              "velocity": 98,
              "position": 8,
              "duration": 0.8333333333333334
            },
            {
              "pitch": 55,
              "velocity": 46,
              "position": 8.75,
              "duration": 0.1875
            },
            {
              "pitch": 59,
              "velocity": 64,
              "position": 8.75,
              "duration": 0.20833333333333334
            },
            {
              "pitch": 64,
              "velocity": 64,
              "position": 8.729166666666666,
              "duration": 0.2604166666666667
            },
            {
              "pitch": 55,
              "velocity": 92,
              "position": 8.979166666666666,
              "duration": 0.4791666666666667
            },
            {
              "pitch": 59,
              "velocity": 92,
              "position": 9,
              "duration": 0.4583333333333333
            },
            {
              "pitch": 64,
              "velocity": 96,
              "position": 9,
              "duration": 0.4791666666666667
            },
            {
              "pitch": 64,
              "velocity": 92,
              "position": 9.5,
              "duration": 0.1875
            },
            {
              "pitch": 59,
              "velocity": 92,
              "position": 9.5,
              "duration": 0.20833333333333334
            },
            {
              "pitch": 55,
              "velocity": 85,
              "position": 9.479166666666666,
              "duration": 0.25
            },
            {
              "pitch": 52,
              "velocity": 97,
              "position": 9,
              "duration": 0.8333333333333334
            },
            {
              "pitch": 64,
              "velocity": 70,
              "position": 9.729166666666666,
              "duration": 0.25
            },
            {
              "pitch": 59,
              "velocity": 85,
              "position": 9.75,
              "duration": 0.22916666666666666
            },
            {
              "pitch": 55,
              "velocity": 64,
              "position": 9.75,
              "duration": 0.22916666666666666
            },
            {
              "pitch": 55,
              "velocity": 96,
              "position": 10,
              "duration": 0.4583333333333333
            },
            {
              "pitch": 59,
              "velocity": 96,
              "position": 10,
              "duration": 0.4583333333333333
            },
            {
              "pitch": 64,
              "velocity": 97,
              "position": 10,
              "duration": 0.4895833333333333
            },
            {
              "pitch": 64,
              "velocity": 92,
              "position": 10.5,
              "duration": 0.1875
            },
            {
              "pitch": 59,
              "velocity": 85,
              "position": 10.5,
              "duration": 0.22916666666666666
            },
            {
              "pitch": 55,
              "velocity": 85,
              "position": 10.479166666666666,
              "duration": 0.2604166666666667
            },
            {
              "pitch": 48,
              "velocity": 98,
              "position": 10,
              "duration": 0.8333333333333334
            },
            {
              "pitch": 55,
              "velocity": 46,
              "position": 10.75,
              "duration": 0.1875
            },
            {
              "pitch": 59,
              "velocity": 64,
              "position": 10.75,
              "duration": 0.20833333333333334
            },
            {
              "pitch": 64,
              "velocity": 64,
              "position": 10.729166666666666,
              "duration": 0.25
            },
            {
              "pitch": 55,
              "velocity": 92,
              "position": 10.979166666666666,
              "duration": 0.4791666666666667
            },
            {
              "pitch": 59,
              "velocity": 92,
              "position": 11,
              "duration": 0.4583333333333333
            },
            {
              "pitch": 64,
              "velocity": 96,
              "position": 11,
              "duration": 0.4791666666666667
            },
            {
              "pitch": 64,
              "velocity": 92,
              "position": 11.5,
              "duration": 0.1875
            },
            {
              "pitch": 59,
              "velocity": 92,
              "position": 11.5,
              "duration": 0.20833333333333334
            },
            {
              "pitch": 55,
              "velocity": 85,
              "position": 11.479166666666666,
              "duration": 0.25
            },
            {
              "pitch": 52,
              "velocity": 97,
              "position": 11,
              "duration": 0.8333333333333334
            },
            {
              "pitch": 64,
              "velocity": 70,
              "position": 11.729166666666666,
              "duration": 0.25
            },
            {
              "pitch": 59,
              "velocity": 85,
              "position": 11.75,
              "duration": 0.22916666666666666
            },
            {
              "pitch": 55,
              "velocity": 64,
              "position": 11.75,
              "duration": 0.22916666666666666
            },
            {
              "pitch": 55,
              "velocity": 96,
              "position": 12,
              "duration": 0.4583333333333333
            },
            {
              "pitch": 59,
              "velocity": 96,
              "position": 12,
              "duration": 0.4583333333333333
            },
            {
              "pitch": 64,
              "velocity": 97,
              "position": 12,
              "duration": 0.4895833333333333
            },
            {
              "pitch": 64,
              "velocity": 92,
              "position": 12.5,
              "duration": 0.1875
            },
            {
              "pitch": 59,
              "velocity": 85,
              "position": 12.5,
              "duration": 0.22916666666666666
            },
            {
              "pitch": 55,
              "velocity": 85,
              "position": 12.479166666666666,
              "duration": 0.2604166666666667
            },
            {
              "pitch": 48,
              "velocity": 98,
              "position": 12,
              "duration": 0.8333333333333334
            },
            {
              "pitch": 55,
              "velocity": 46,
              "position": 12.75,
              "duration": 0.1875
            },
            {
              "pitch": 59,
              "velocity": 64,
              "position": 12.75,
              "duration": 0.20833333333333334
            },
            {
              "pitch": 64,
              "velocity": 64,
              "position": 12.729166666666666,
              "duration": 0.2604166666666667
            },
            {
              "pitch": 55,
              "velocity": 92,
              "position": 12.979166666666666,
              "duration": 0.4791666666666667
            },
            {
              "pitch": 59,
              "velocity": 92,
              "position": 13,
              "duration": 0.4583333333333333
            },
            {
              "pitch": 64,
              "velocity": 96,
              "position": 13,
              "duration": 0.4791666666666667
            },
            {
              "pitch": 64,
              "velocity": 92,
              "position": 13.5,
              "duration": 0.1875
            },
            {
              "pitch": 59,
              "velocity": 92,
              "position": 13.5,
              "duration": 0.20833333333333334
            },
            {
              "pitch": 55,
              "velocity": 85,
              "position": 13.479166666666666,
              "duration": 0.25
            },
            {
              "pitch": 52,
              "velocity": 97,
              "position": 13,
              "duration": 0.8333333333333334
            },
            {
              "pitch": 64,
              "velocity": 70,
              "position": 13.729166666666666,
              "duration": 0.25
            },
            {
              "pitch": 59,
              "velocity": 85,
              "position": 13.75,
              "duration": 0.22916666666666666
            },
            {
              "pitch": 55,
              "velocity": 64,
              "position": 13.75,
              "duration": 0.22916666666666666
            },
            {
              "pitch": 55,
              "velocity": 96,
              "position": 14,
              "duration": 0.4583333333333333
            },
            {
              "pitch": 59,
              "velocity": 96,
              "position": 14,
              "duration": 0.4583333333333333
            },
            {
              "pitch": 64,
              "velocity": 97,
              "position": 14,
              "duration": 0.4895833333333333
            },
            {
              "pitch": 64,
              "velocity": 92,
              "position": 14.5,
              "duration": 0.1875
            },
            {
              "pitch": 55,
              "velocity": 85,
              "position": 14.479166666666666,
              "duration": 0.25
            },
            {
              "pitch": 59,
              "velocity": 85,
              "position": 14.5,
              "duration": 0.22916666666666666
            },
            {
              "pitch": 48,
              "velocity": 98,
              "position": 14,
              "duration": 0.8333333333333334
            },
            {
              "pitch": 55,
              "velocity": 46,
              "position": 14.75,
              "duration": 0.1875
            },
            {
              "pitch": 59,
              "velocity": 64,
              "position": 14.75,
              "duration": 0.20833333333333334
            },
            {
              "pitch": 64,
              "velocity": 64,
              "position": 14.729166666666666,
              "duration": 0.25
            },
            {
              "pitch": 55,
              "velocity": 92,
              "position": 14.979166666666666,
              "duration": 0.4791666666666667
            },
            {
              "pitch": 52,
              "velocity": 97,
              "position": 15,
              "duration": 0.4583333333333333
            },
            {
              "pitch": 59,
              "velocity": 92,
              "position": 15,
              "duration": 0.4583333333333333
            },
            {
              "pitch": 64,
              "velocity": 96,
              "position": 15,
              "duration": 0.4791666666666667
            },
            {
              "pitch": 64,
              "velocity": 92,
              "position": 15.5,
              "duration": 0.1875
            },
            {
              "pitch": 59,
              "velocity": 92,
              "position": 15.5,
              "duration": 0.20833333333333334
            },
            {
              "pitch": 55,
              "velocity": 85,
              "position": 15.479166666666666,
              "duration": 0.25
            },
            {
              "pitch": 64,
              "velocity": 70,
              "position": 15.729166666666666,
              "duration": 0.25
            },
            {
              "pitch": 59,
              "velocity": 85,
              "position": 15.75,
              "duration": 0.22916666666666666
            },
            {
              "pitch": 55,
              "velocity": 64,
              "position": 15.75,
              "duration": 0.22916666666666666
            },
            {
              "pitch": 52,
              "velocity": 97,
              "position": 15.5,
              "duration": 0.5
            },
            {
              "pitch": 55,
              "velocity": 96,
              "position": 16,
              "duration": 0.4583333333333333
            },
            {
              "pitch": 59,
              "velocity": 96,
              "position": 16,
              "duration": 0.4583333333333333
            },
            {
              "pitch": 64,
              "velocity": 97,
              "position": 16,
              "duration": 0.4895833333333333
            },
            {
              "pitch": 64,
              "velocity": 92,
              "position": 16.5,
              "duration": 0.1875
            },
            {
              "pitch": 59,
              "velocity": 85,
              "position": 16.5,
              "duration": 0.22916666666666666
            },
            {
              "pitch": 55,
              "velocity": 85,
              "position": 16.479166666666668,
              "duration": 0.2604166666666667
            },
            {
              "pitch": 48,
              "velocity": 98,
              "position": 16,
              "duration": 0.8333333333333334
            },
            {
              "pitch": 55,
              "velocity": 46,
              "position": 16.75,
              "duration": 0.1875
            },
            {
              "pitch": 59,
              "velocity": 64,
              "position": 16.75,
              "duration": 0.20833333333333334
            },
            {
              "pitch": 64,
              "velocity": 64,
              "position": 16.729166666666668,
              "duration": 0.2604166666666667
            },
            {
              "pitch": 55,
              "velocity": 92,
              "position": 16.979166666666668,
              "duration": 0.4791666666666667
            },
            {
              "pitch": 59,
              "velocity": 92,
              "position": 17,
              "duration": 0.4583333333333333
            },
            {
              "pitch": 64,
              "velocity": 96,
              "position": 17,
              "duration": 0.4791666666666667
            },
            {
              "pitch": 64,
              "velocity": 92,
              "position": 17.5,
              "duration": 0.1875
            },
            {
              "pitch": 59,
              "velocity": 92,
              "position": 17.5,
              "duration": 0.20833333333333334
            },
            {
              "pitch": 55,
              "velocity": 85,
              "position": 17.479166666666668,
              "duration": 0.25
            },
            {
              "pitch": 52,
              "velocity": 97,
              "position": 17,
              "duration": 0.8333333333333334
            },
            {
              "pitch": 64,
              "velocity": 70,
              "position": 17.729166666666668,
              "duration": 0.25
            },
            {
              "pitch": 59,
              "velocity": 85,
              "position": 17.75,
              "duration": 0.22916666666666666
            },
            {
              "pitch": 55,
              "velocity": 64,
              "position": 17.75,
              "duration": 0.22916666666666666
            },
            {
              "pitch": 55,
              "velocity": 96,
              "position": 18,
              "duration": 0.4583333333333333
            },
            {
              "pitch": 59,
              "velocity": 96,
              "position": 18,
              "duration": 0.4583333333333333
            },
            {
              "pitch": 64,
              "velocity": 97,
              "position": 18,
              "duration": 0.4895833333333333
            },
            {
              "pitch": 64,
              "velocity": 92,
              "position": 18.5,
              "duration": 0.1875
            },
            {
              "pitch": 59,
              "velocity": 85,
              "position": 18.5,
              "duration": 0.22916666666666666
            },
            {
              "pitch": 55,
              "velocity": 85,
              "position": 18.479166666666668,
              "duration": 0.2604166666666667
            },
            {
              "pitch": 48,
              "velocity": 98,
              "position": 18,
              "duration": 0.8333333333333334
            },
            {
              "pitch": 55,
              "velocity": 46,
              "position": 18.75,
              "duration": 0.1875
            },
            {
              "pitch": 59,
              "velocity": 64,
              "position": 18.75,
              "duration": 0.20833333333333334
            },
            {
              "pitch": 64,
              "velocity": 64,
              "position": 18.729166666666668,
              "duration": 0.25
            },
            {
              "pitch": 55,
              "velocity": 92,
              "position": 18.979166666666668,
              "duration": 0.4791666666666667
            },
            {
              "pitch": 59,
              "velocity": 92,
              "position": 19,
              "duration": 0.4583333333333333
            },
            {
              "pitch": 64,
              "velocity": 96,
              "position": 19,
              "duration": 0.4791666666666667
            },
            {
              "pitch": 64,
              "velocity": 92,
              "position": 19.5,
              "duration": 0.1875
            },
            {
              "pitch": 59,
              "velocity": 92,
              "position": 19.5,
              "duration": 0.20833333333333334
            },
            {
              "pitch": 55,
              "velocity": 85,
              "position": 19.479166666666668,
              "duration": 0.25
            },
            {
              "pitch": 52,
              "velocity": 97,
              "position": 19,
              "duration": 0.8333333333333334
            },
            {
              "pitch": 64,
              "velocity": 70,
              "position": 19.729166666666668,
              "duration": 0.25
            },
            {
              "pitch": 59,
              "velocity": 85,
              "position": 19.75,
              "duration": 0.22916666666666666
            },
            {
              "pitch": 55,
              "velocity": 64,
              "position": 19.75,
              "duration": 0.22916666666666666
            },
            {
              "pitch": 55,
              "velocity": 96,
              "position": 20,
              "duration": 0.4583333333333333
            },
            {
              "pitch": 59,
              "velocity": 96,
              "position": 20,
              "duration": 0.4583333333333333
            },
            {
              "pitch": 64,
              "velocity": 97,
              "position": 20,
              "duration": 0.4895833333333333
            },
            {
              "pitch": 64,
              "velocity": 92,
              "position": 20.5,
              "duration": 0.1875
            },
            {
              "pitch": 59,
              "velocity": 85,
              "position": 20.5,
              "duration": 0.22916666666666666
            },
            {
              "pitch": 55,
              "velocity": 85,
              "position": 20.479166666666668,
              "duration": 0.2604166666666667
            },
            {
              "pitch": 48,
              "velocity": 98,
              "position": 20,
              "duration": 0.8333333333333334
            },
            {
              "pitch": 55,
              "velocity": 46,
              "position": 20.75,
              "duration": 0.1875
            },
            {
              "pitch": 59,
              "velocity": 64,
              "position": 20.75,
              "duration": 0.20833333333333334
            },
            {
              "pitch": 64,
              "velocity": 64,
              "position": 20.729166666666668,
              "duration": 0.2604166666666667
            },
            {
              "pitch": 55,
              "velocity": 92,
              "position": 20.979166666666668,
              "duration": 0.4791666666666667
            },
            {
              "pitch": 59,
              "velocity": 92,
              "position": 21,
              "duration": 0.4583333333333333
            },
            {
              "pitch": 64,
              "velocity": 96,
              "position": 21,
              "duration": 0.4791666666666667
            },
            {
              "pitch": 64,
              "velocity": 92,
              "position": 21.5,
              "duration": 0.1875
            },
            {
              "pitch": 59,
              "velocity": 92,
              "position": 21.5,
              "duration": 0.20833333333333334
            },
            {
              "pitch": 55,
              "velocity": 85,
              "position": 21.479166666666668,
              "duration": 0.25
            },
            {
              "pitch": 52,
              "velocity": 97,
              "position": 21,
              "duration": 0.8333333333333334
            },
            {
              "pitch": 64,
              "velocity": 70,
              "position": 21.729166666666668,
              "duration": 0.25
            },
            {
              "pitch": 59,
              "velocity": 85,
              "position": 21.75,
              "duration": 0.22916666666666666
            },
            {
              "pitch": 55,
              "velocity": 64,
              "position": 21.75,
              "duration": 0.22916666666666666
            },
            {
              "pitch": 55,
              "velocity": 96,
              "position": 22,
              "duration": 0.4583333333333333
            },
            {
              "pitch": 59,
              "velocity": 96,
              "position": 22,
              "duration": 0.4583333333333333
            },
            {
              "pitch": 64,
              "velocity": 97,
              "position": 22,
              "duration": 0.4895833333333333
            },
            {
              "pitch": 64,
              "velocity": 92,
              "position": 22.5,
              "duration": 0.1875
            },
            {
              "pitch": 59,
              "velocity": 85,
              "position": 22.5,
              "duration": 0.22916666666666666
            },
            {
              "pitch": 55,
              "velocity": 85,
              "position": 22.479166666666668,
              "duration": 0.2604166666666667
            },
            {
              "pitch": 48,
              "velocity": 98,
              "position": 22,
              "duration": 0.8333333333333334
            },
            {
              "pitch": 55,
              "velocity": 46,
              "position": 22.75,
              "duration": 0.1875
            },
            {
              "pitch": 59,
              "velocity": 64,
              "position": 22.75,
              "duration": 0.20833333333333334
            },
            {
              "pitch": 64,
              "velocity": 64,
              "position": 22.729166666666668,
              "duration": 0.25
            },
            {
              "pitch": 67,
              "velocity": 92,
              "position": 22.979166666666668,
              "duration": 0.4791666666666667
            },
            {
              "pitch": 59,
              "velocity": 92,
              "position": 23,
              "duration": 0.4583333333333333
            },
            {
              "pitch": 64,
              "velocity": 96,
              "position": 23,
              "duration": 0.4791666666666667
            },
            {
              "pitch": 64,
              "velocity": 92,
              "position": 23.5,
              "duration": 0.1875
            },
            {
              "pitch": 59,
              "velocity": 92,
              "position": 23.5,
              "duration": 0.20833333333333334
            },
            {
              "pitch": 55,
              "velocity": 85,
              "position": 23.479166666666668,
              "duration": 0.25
            },
            {
              "pitch": 52,
              "velocity": 97,
              "position": 23,
              "duration": 0.8333333333333334
            },
            {
              "pitch": 64,
              "velocity": 70,
              "position": 23.729166666666668,
              "duration": 0.25
            },
            {
              "pitch": 59,
              "velocity": 85,
              "position": 23.75,
              "duration": 0.22916666666666666
            },
            {
              "pitch": 55,
              "velocity": 64,
              "position": 23.75,
              "duration": 0.22916666666666666
            },
            {
              "pitch": 55,
              "velocity": 96,
              "position": 24,
              "duration": 0.4583333333333333
            },
            {
              "pitch": 59,
              "velocity": 96,
              "position": 24,
              "duration": 0.4583333333333333
            },
            {
              "pitch": 64,
              "velocity": 97,
              "position": 24,
              "duration": 0.4895833333333333
            },
            {
              "pitch": 64,
              "velocity": 92,
              "position": 24.5,
              "duration": 0.1875
            },
            {
              "pitch": 59,
              "velocity": 85,
              "position": 24.5,
              "duration": 0.22916666666666666
            },
            {
              "pitch": 55,
              "velocity": 85,
              "position": 24.479166666666668,
              "duration": 0.2604166666666667
            },
            {
              "pitch": 48,
              "velocity": 98,
              "position": 24,
              "duration": 0.8333333333333334
            },
            {
              "pitch": 55,
              "velocity": 46,
              "position": 24.75,
              "duration": 0.1875
            },
            {
              "pitch": 59,
              "velocity": 64,
              "position": 24.75,
              "duration": 0.20833333333333334
            },
            {
              "pitch": 64,
              "velocity": 64,
              "position": 24.729166666666668,
              "duration": 0.2604166666666667
            },
            {
              "pitch": 55,
              "velocity": 92,
              "position": 24.979166666666668,
              "duration": 0.4791666666666667
            },
            {
              "pitch": 59,
              "velocity": 92,
              "position": 25,
              "duration": 0.4583333333333333
            },
            {
              "pitch": 64,
              "velocity": 96,
              "position": 25,
              "duration": 0.4791666666666667
            },
            {
              "pitch": 64,
              "velocity": 92,
              "position": 25.5,
              "duration": 0.1875
            },
            {
              "pitch": 59,
              "velocity": 92,
              "position": 25.5,
              "duration": 0.20833333333333334
            },
            {
              "pitch": 55,
              "velocity": 85,
              "position": 25.479166666666668,
              "duration": 0.25
            },
            {
              "pitch": 52,
              "velocity": 97,
              "position": 25,
              "duration": 0.8333333333333334
            },
            {
              "pitch": 64,
              "velocity": 70,
              "position": 25.729166666666668,
              "duration": 0.25
            },
            {
              "pitch": 59,
              "velocity": 85,
              "position": 25.75,
              "duration": 0.22916666666666666
            },
            {
              "pitch": 55,
              "velocity": 64,
              "position": 25.75,
              "duration": 0.22916666666666666
            },
            {
              "pitch": 55,
              "velocity": 96,
              "position": 26,
              "duration": 0.4583333333333333
            },
            {
              "pitch": 59,
              "velocity": 96,
              "position": 26,
              "duration": 0.4583333333333333
            },
            {
              "pitch": 64,
              "velocity": 97,
              "position": 26,
              "duration": 0.4895833333333333
            },
            {
              "pitch": 64,
              "velocity": 92,
              "position": 26.5,
              "duration": 0.1875
            },
            {
              "pitch": 59,
              "velocity": 85,
              "position": 26.5,
              "duration": 0.22916666666666666
            },
            {
              "pitch": 55,
              "velocity": 85,
              "position": 26.479166666666668,
              "duration": 0.2604166666666667
            },
            {
              "pitch": 48,
              "velocity": 98,
              "position": 26,
              "duration": 0.8333333333333334
            },
            {
              "pitch": 55,
              "velocity": 46,
              "position": 26.75,
              "duration": 0.1875
            },
            {
              "pitch": 59,
              "velocity": 64,
              "position": 26.75,
              "duration": 0.20833333333333334
            },
            {
              "pitch": 64,
              "velocity": 64,
              "position": 26.729166666666668,
              "duration": 0.25
            },
            {
              "pitch": 55,
              "velocity": 92,
              "position": 26.979166666666668,
              "duration": 0.4791666666666667
            },
            {
              "pitch": 59,
              "velocity": 92,
              "position": 27,
              "duration": 0.4583333333333333
            },
            {
              "pitch": 64,
              "velocity": 96,
              "position": 27,
              "duration": 0.4791666666666667
            },
            {
              "pitch": 64,
              "velocity": 92,
              "position": 27.5,
              "duration": 0.1875
            },
            {
              "pitch": 59,
              "velocity": 92,
              "position": 27.5,
              "duration": 0.20833333333333334
            },
            {
              "pitch": 55,
              "velocity": 85,
              "position": 27.479166666666668,
              "duration": 0.25
            },
            {
              "pitch": 52,
              "velocity": 97,
              "position": 27,
              "duration": 0.8333333333333334
            },
            {
              "pitch": 64,
              "velocity": 70,
              "position": 27.729166666666668,
              "duration": 0.25
            },
            {
              "pitch": 59,
              "velocity": 85,
              "position": 27.75,
              "duration": 0.22916666666666666
            },
            {
              "pitch": 55,
              "velocity": 64,
              "position": 27.75,
              "duration": 0.22916666666666666
            },
            {
              "pitch": 55,
              "velocity": 96,
              "position": 28,
              "duration": 0.4583333333333333
            },
            {
              "pitch": 59,
              "velocity": 96,
              "position": 28,
              "duration": 0.4583333333333333
            },
            {
              "pitch": 64,
              "velocity": 97,
              "position": 28,
              "duration": 0.4895833333333333
            },
            {
              "pitch": 64,
              "velocity": 92,
              "position": 28.5,
              "duration": 0.1875
            },
            {
              "pitch": 59,
              "velocity": 85,
              "position": 28.5,
              "duration": 0.22916666666666666
            },
            {
              "pitch": 55,
              "velocity": 85,
              "position": 28.479166666666668,
              "duration": 0.2604166666666667
            },
            {
              "pitch": 48,
              "velocity": 98,
              "position": 28,
              "duration": 0.8333333333333334
            },
            {
              "pitch": 55,
              "velocity": 46,
              "position": 28.75,
              "duration": 0.1875
            },
            {
              "pitch": 59,
              "velocity": 64,
              "position": 28.75,
              "duration": 0.20833333333333334
            },
            {
              "pitch": 64,
              "velocity": 64,
              "position": 28.729166666666668,
              "duration": 0.2604166666666667
            },
            {
              "pitch": 55,
              "velocity": 92,
              "position": 28.979166666666668,
              "duration": 0.4791666666666667
            },
            {
              "pitch": 59,
              "velocity": 92,
              "position": 29,
              "duration": 0.4583333333333333
            },
            {
              "pitch": 64,
              "velocity": 96,
              "position": 29,
              "duration": 0.4791666666666667
            },
            {
              "pitch": 64,
              "velocity": 92,
              "position": 29.5,
              "duration": 0.1875
            },
            {
              "pitch": 59,
              "velocity": 92,
              "position": 29.5,
              "duration": 0.20833333333333334
            },
            {
              "pitch": 55,
              "velocity": 85,
              "position": 29.479166666666668,
              "duration": 0.25
            },
            {
              "pitch": 52,
              "velocity": 97,
              "position": 29,
              "duration": 0.8333333333333334
            },
            {
              "pitch": 64,
              "velocity": 70,
              "position": 29.729166666666668,
              "duration": 0.25
            },
            {
              "pitch": 59,
              "velocity": 85,
              "position": 29.75,
              "duration": 0.22916666666666666
            },
            {
              "pitch": 55,
              "velocity": 64,
              "position": 29.75,
              "duration": 0.22916666666666666
            },
            {
              "pitch": 55,
              "velocity": 96,
              "position": 30,
              "duration": 0.4583333333333333
            },
            {
              "pitch": 59,
              "velocity": 96,
              "position": 30,
              "duration": 0.4583333333333333
            },
            {
              "pitch": 64,
              "velocity": 97,
              "position": 30,
              "duration": 0.4895833333333333
            },
            {
              "pitch": 64,
              "velocity": 92,
              "position": 30.5,
              "duration": 0.1875
            },
            {
              "pitch": 59,
              "velocity": 85,
              "position": 30.5,
              "duration": 0.22916666666666666
            },
            {
              "pitch": 55,
              "velocity": 85,
              "position": 30.479166666666668,
              "duration": 0.2604166666666667
            },
            {
              "pitch": 48,
              "velocity": 98,
              "position": 30,
              "duration": 0.8333333333333334
            },
            {
              "pitch": 55,
              "velocity": 46,
              "position": 30.75,
              "duration": 0.1875
            },
            {
              "pitch": 59,
              "velocity": 64,
              "position": 30.75,
              "duration": 0.20833333333333334
            },
            {
              "pitch": 64,
              "velocity": 64,
              "position": 30.729166666666668,
              "duration": 0.25
            },
            {
              "pitch": 55,
              "velocity": 92,
              "position": 30.979166666666668,
              "duration": 0.4791666666666667
            },
            {
              "pitch": 52,
              "velocity": 97,
              "position": 31,
              "duration": 0.4583333333333333
            },
            {
              "pitch": 59,
              "velocity": 92,
              "position": 31,
              "duration": 0.4583333333333333
            },
            {
              "pitch": 64,
              "velocity": 96,
              "position": 31,
              "duration": 0.4791666666666667
            },
            {
              "pitch": 64,
              "velocity": 92,
              "position": 31.5,
              "duration": 0.1875
            },
            {
              "pitch": 59,
              "velocity": 92,
              "position": 31.5,
              "duration": 0.20833333333333334
            },
            {
              "pitch": 55,
              "velocity": 85,
              "position": 31.479166666666668,
              "duration": 0.25
            },
            {
              "pitch": 64,
              "velocity": 70,
              "position": 31.729166666666668,
              "duration": 0.25
            },
            {
              "pitch": 55,
              "velocity": 64,
              "position": 31.75,
              "duration": 0.22916666666666666
            },
            {
              "pitch": 52,
              "velocity": 97,
              "position": 31.5,
              "duration": 0.5
            },
            {
              "pitch": 59,
              "velocity": 85,
              "position": 31.75,
              "duration": 0.25
            }
          ]
        },
        "3": {
          "ctab": {
            "srcChannel": 3,
            "name": "SteelGtr",
            "accType": "CHORD2",
            "editable": false,
            "mutedNotes": [],
            "mutedChords": [
              "1+2+5",
              "sus4",
              "1+5",
              "1+8",
              "dim7",
              "dim",
              "minMaj7(9)",
              "minMaj7",
              "min7(11)",
              "min7(9)",
              "min(9)",
              "m7b5",
              "min7",
              "min6",
              "min",
              "aug",
              "Maj6(9)",
              "Maj7(9)",
              "Maj(9)",
              "Maj7#11",
              "Maj7",
              "Maj6",
              "Maj"
            ],
            "autoStart": false,
            "sourceChordNote": 0,
            "sourceChordType": "7th",
            "ctb2Low": null,
            "ctb2Main": {
              "ntr": "ROOT_FIXED",
              "ntt": "CHORD",
              "bassOn": false,
              "chordRootUpperLimit": 6,
              "noteLowLimit": 0,
              "noteHighLimit": 127,
              "rtr": "PITCH_SHIFT"
            },
            "ctb2High": null
          },
          "notes": [
            {
              "pitch": 58,
              "velocity": 96,
              "position": 0,
              "duration": 0.4583333333333333
            },
            {
              "pitch": 55,
              "velocity": 96,
              "position": 0,
              "duration": 0.4583333333333333
            },
            {
              "pitch": 64,
              "velocity": 97,
              "position": 0,
              "duration": 0.4895833333333333
            },
            {
              "pitch": 64,
              "velocity": 92,
              "position": 0.5,
              "duration": 0.1875
            },
            {
              "pitch": 55,
              "velocity": 85,
              "position": 0.5,
              "duration": 0.22916666666666666
            },
            {
              "pitch": 58,
              "velocity": 85,
              "position": 0.4791666666666667,
              "duration": 0.2604166666666667
            },
            {
              "pitch": 48,
              "velocity": 98,
              "position": 0,
              "duration": 0.8333333333333334
            },
            {
              "pitch": 58,
              "velocity": 46,
              "position": 0.75,
              "duration": 0.1875
            },
            {
              "pitch": 55,
              "velocity": 64,
              "position": 0.75,
              "duration": 0.20833333333333334
            },
            {
              "pitch": 64,
              "velocity": 64,
              "position": 0.7291666666666666,
              "duration": 0.2604166666666667
            },
            {
              "pitch": 58,
              "velocity": 92,
              "position": 0.9791666666666666,
              "duration": 0.4791666666666667
            },
            {
              "pitch": 55,
              "velocity": 92,
              "position": 1,
              "duration": 0.4583333333333333
            },
            {
              "pitch": 64,
              "velocity": 96,
              "position": 1,
              "duration": 0.4791666666666667
            },
            {
              "pitch": 64,
              "velocity": 92,
              "position": 1.5,
              "duration": 0.1875
            },
            {
              "pitch": 55,
              "velocity": 92,
              "position": 1.5,
              "duration": 0.20833333333333334
            },
            {
              "pitch": 58,
              "velocity": 85,
              "position": 1.4791666666666667,
              "duration": 0.25
            },
            {
              "pitch": 52,
              "velocity": 97,
              "position": 1,
              "duration": 0.8333333333333334
            },
            {
              "pitch": 64,
              "velocity": 70,
              "position": 1.7291666666666667,
              "duration": 0.25
            },
            {
              "pitch": 55,
              "velocity": 85,
              "position": 1.75,
              "duration": 0.22916666666666666
            },
            {
              "pitch": 58,
              "velocity": 64,
              "position": 1.75,
              "duration": 0.22916666666666666
            },
            {
              "pitch": 58,
              "velocity": 96,
              "position": 2,
              "duration": 0.4583333333333333
            },
            {
              "pitch": 55,
              "velocity": 96,
              "position": 2,
              "duration": 0.4583333333333333
            },
            {
              "pitch": 64,
              "velocity": 97,
              "position": 2,
              "duration": 0.4895833333333333
            },
            {
              "pitch": 64,
              "velocity": 92,
              "position": 2.5,
              "duration": 0.1875
            },
            {
              "pitch": 55,
              "velocity": 85,
              "position": 2.5,
              "duration": 0.22916666666666666
            },
            {
              "pitch": 58,
              "velocity": 85,
              "position": 2.4791666666666665,
              "duration": 0.2604166666666667
            },
            {
              "pitch": 48,
              "velocity": 98,
              "position": 2,
              "duration": 0.8333333333333334
            },
            {
              "pitch": 58,
              "velocity": 46,
              "position": 2.75,
              "duration": 0.1875
            },
            {
              "pitch": 55,
              "velocity": 64,
              "position": 2.75,
              "duration": 0.20833333333333334
            },
            {
              "pitch": 64,
              "velocity": 64,
              "position": 2.7291666666666665,
              "duration": 0.25
            },
            {
              "pitch": 58,
              "velocity": 92,
              "position": 2.9791666666666665,
              "duration": 0.4791666666666667
            },
            {
              "pitch": 55,
              "velocity": 92,
              "position": 3,
              "duration": 0.4583333333333333
            },
            {
              "pitch": 64,
              "velocity": 96,
              "position": 3,
              "duration": 0.4791666666666667
            },
            {
              "pitch": 64,
              "velocity": 92,
              "position": 3.5,
              "duration": 0.1875
            },
            {
              "pitch": 55,
              "velocity": 92,
              "position": 3.5,
              "duration": 0.20833333333333334
            },
            {
              "pitch": 58,
              "velocity": 85,
              "position": 3.4791666666666665,
              "duration": 0.25
            },
            {
              "pitch": 52,
              "velocity": 97,
              "position": 3,
              "duration": 0.8333333333333334
            },
            {
              "pitch": 64,
              "velocity": 70,
              "position": 3.7291666666666665,
              "duration": 0.25
            },
            {
              "pitch": 55,
              "velocity": 85,
              "position": 3.75,
              "duration": 0.22916666666666666
            },
            {
              "pitch": 58,
              "velocity": 64,
              "position": 3.75,
              "duration": 0.22916666666666666
            },
            {
              "pitch": 58,
              "velocity": 96,
              "position": 4,
              "duration": 0.4583333333333333
            },
            {
              "pitch": 55,
              "velocity": 96,
              "position": 4,
              "duration": 0.4583333333333333
            },
            {
              "pitch": 64,
              "velocity": 97,
              "position": 4,
              "duration": 0.4895833333333333
            },
            {
              "pitch": 64,
              "velocity": 92,
              "position": 4.5,
              "duration": 0.1875
            },
            {
              "pitch": 55,
              "velocity": 85,
              "position": 4.5,
              "duration": 0.22916666666666666
            },
            {
              "pitch": 58,
              "velocity": 85,
              "position": 4.479166666666667,
              "duration": 0.2604166666666667
            },
            {
              "pitch": 48,
              "velocity": 98,
              "position": 4,
              "duration": 0.8333333333333334
            },
            {
              "pitch": 58,
              "velocity": 46,
              "position": 4.75,
              "duration": 0.1875
            },
            {
              "pitch": 55,
              "velocity": 64,
              "position": 4.75,
              "duration": 0.20833333333333334
            },
            {
              "pitch": 64,
              "velocity": 64,
              "position": 4.729166666666667,
              "duration": 0.2604166666666667
            },
            {
              "pitch": 58,
              "velocity": 92,
              "position": 4.979166666666667,
              "duration": 0.4791666666666667
            },
            {
              "pitch": 55,
              "velocity": 92,
              "position": 5,
              "duration": 0.4583333333333333
            },
            {
              "pitch": 64,
              "velocity": 96,
              "position": 5,
              "duration": 0.4791666666666667
            },
            {
              "pitch": 64,
              "velocity": 92,
              "position": 5.5,
              "duration": 0.1875
            },
            {
              "pitch": 55,
              "velocity": 92,
              "position": 5.5,
              "duration": 0.20833333333333334
            },
            {
              "pitch": 58,
              "velocity": 85,
              "position": 5.479166666666667,
              "duration": 0.25
            },
            {
              "pitch": 52,
              "velocity": 97,
              "position": 5,
              "duration": 0.8333333333333334
            },
            {
              "pitch": 64,
              "velocity": 70,
              "position": 5.729166666666667,
              "duration": 0.25
            },
            {
              "pitch": 55,
              "velocity": 85,
              "position": 5.75,
              "duration": 0.22916666666666666
            },
            {
              "pitch": 58,
              "velocity": 64,
              "position": 5.75,
              "duration": 0.22916666666666666
            },
            {
              "pitch": 58,
              "velocity": 96,
              "position": 6,
              "duration": 0.4583333333333333
            },
            {
              "pitch": 55,
              "velocity": 96,
              "position": 6,
              "duration": 0.4583333333333333
            },
            {
              "pitch": 64,
              "velocity": 97,
              "position": 6,
              "duration": 0.4895833333333333
            },
            {
              "pitch": 64,
              "velocity": 92,
              "position": 6.5,
              "duration": 0.1875
            },
            {
              "pitch": 55,
              "velocity": 85,
              "position": 6.5,
              "duration": 0.22916666666666666
            },
            {
              "pitch": 58,
              "velocity": 85,
              "position": 6.479166666666667,
              "duration": 0.2604166666666667
            },
            {
              "pitch": 48,
              "velocity": 98,
              "position": 6,
              "duration": 0.8333333333333334
            },
            {
              "pitch": 58,
              "velocity": 46,
              "position": 6.75,
              "duration": 0.1875
            },
            {
              "pitch": 55,
              "velocity": 64,
              "position": 6.75,
              "duration": 0.20833333333333334
            },
            {
              "pitch": 64,
              "velocity": 64,
              "position": 6.729166666666667,
              "duration": 0.25
            },
            {
              "pitch": 70,
              "velocity": 92,
              "position": 6.979166666666667,
              "duration": 0.4791666666666667
            },
            {
              "pitch": 55,
              "velocity": 92,
              "position": 7,
              "duration": 0.4583333333333333
            },
            {
              "pitch": 64,
              "velocity": 96,
              "position": 7,
              "duration": 0.4791666666666667
            },
            {
              "pitch": 64,
              "velocity": 92,
              "position": 7.5,
              "duration": 0.1875
            },
            {
              "pitch": 55,
              "velocity": 92,
              "position": 7.5,
              "duration": 0.20833333333333334
            },
            {
              "pitch": 58,
              "velocity": 85,
              "position": 7.479166666666667,
              "duration": 0.25
            },
            {
              "pitch": 52,
              "velocity": 97,
              "position": 7,
              "duration": 0.8333333333333334
            },
            {
              "pitch": 64,
              "velocity": 70,
              "position": 7.729166666666667,
              "duration": 0.25
            },
            {
              "pitch": 55,
              "velocity": 85,
              "position": 7.75,
              "duration": 0.22916666666666666
            },
            {
              "pitch": 58,
              "velocity": 64,
              "position": 7.75,
              "duration": 0.22916666666666666
            },
            {
              "pitch": 58,
              "velocity": 96,
              "position": 8,
              "duration": 0.4583333333333333
            },
            {
              "pitch": 55,
              "velocity": 96,
              "position": 8,
              "duration": 0.4583333333333333
            },
            {
              "pitch": 64,
              "velocity": 97,
              "position": 8,
              "duration": 0.4895833333333333
            },
            {
              "pitch": 64,
              "velocity": 92,
              "position": 8.5,
              "duration": 0.1875
            },
            {
              "pitch": 55,
              "velocity": 85,
              "position": 8.5,
              "duration": 0.22916666666666666
            },
            {
              "pitch": 58,
              "velocity": 85,
              "position": 8.479166666666666,
              "duration": 0.2604166666666667
            },
            {
              "pitch": 48,
              "velocity": 98,
              "position": 8,
              "duration": 0.8333333333333334
            },
            {
              "pitch": 58,
              "velocity": 46,
              "position": 8.75,
              "duration": 0.1875
            },
            {
              "pitch": 55,
              "velocity": 64,
              "position": 8.75,
              "duration": 0.20833333333333334
            },
            {
              "pitch": 64,
              "velocity": 64,
              "position": 8.729166666666666,
              "duration": 0.2604166666666667
            },
            {
              "pitch": 58,
              "velocity": 92,
              "position": 8.979166666666666,
              "duration": 0.4791666666666667
            },
            {
              "pitch": 55,
              "velocity": 92,
              "position": 9,
              "duration": 0.4583333333333333
            },
            {
              "pitch": 64,
              "velocity": 96,
              "position": 9,
              "duration": 0.4791666666666667
            },
            {
              "pitch": 64,
              "velocity": 92,
              "position": 9.5,
              "duration": 0.1875
            },
            {
              "pitch": 55,
              "velocity": 92,
              "position": 9.5,
              "duration": 0.20833333333333334
            },
            {
              "pitch": 58,
              "velocity": 85,
              "position": 9.479166666666666,
              "duration": 0.25
            },
            {
              "pitch": 52,
              "velocity": 97,
              "position": 9,
              "duration": 0.8333333333333334
            },
            {
              "pitch": 64,
              "velocity": 70,
              "position": 9.729166666666666,
              "duration": 0.25
            },
            {
              "pitch": 55,
              "velocity": 85,
              "position": 9.75,
              "duration": 0.22916666666666666
            },
            {
              "pitch": 58,
              "velocity": 64,
              "position": 9.75,
              "duration": 0.22916666666666666
            },
            {
              "pitch": 58,
              "velocity": 96,
              "position": 10,
              "duration": 0.4583333333333333
            },
            {
              "pitch": 55,
              "velocity": 96,
              "position": 10,
              "duration": 0.4583333333333333
            },
            {
              "pitch": 64,
              "velocity": 97,
              "position": 10,
              "duration": 0.4895833333333333
            },
            {
              "pitch": 64,
              "velocity": 92,
              "position": 10.5,
              "duration": 0.1875
            },
            {
              "pitch": 55,
              "velocity": 85,
              "position": 10.5,
              "duration": 0.22916666666666666
            },
            {
              "pitch": 58,
              "velocity": 85,
              "position": 10.479166666666666,
              "duration": 0.2604166666666667
            },
            {
              "pitch": 48,
              "velocity": 98,
              "position": 10,
              "duration": 0.8333333333333334
            },
            {
              "pitch": 58,
              "velocity": 46,
              "position": 10.75,
              "duration": 0.1875
            },
            {
              "pitch": 55,
              "velocity": 64,
              "position": 10.75,
              "duration": 0.20833333333333334
            },
            {
              "pitch": 64,
              "velocity": 64,
              "position": 10.729166666666666,
              "duration": 0.25
            },
            {
              "pitch": 58,
              "velocity": 92,
              "position": 10.979166666666666,
              "duration": 0.4791666666666667
            },
            {
              "pitch": 55,
              "velocity": 92,
              "position": 11,
              "duration": 0.4583333333333333
            },
            {
              "pitch": 64,
              "velocity": 96,
              "position": 11,
              "duration": 0.4791666666666667
            },
            {
              "pitch": 64,
              "velocity": 92,
              "position": 11.5,
              "duration": 0.1875
            },
            {
              "pitch": 55,
              "velocity": 92,
              "position": 11.5,
              "duration": 0.20833333333333334
            },
            {
              "pitch": 58,
              "velocity": 85,
              "position": 11.479166666666666,
              "duration": 0.25
            },
            {
              "pitch": 52,
              "velocity": 97,
              "position": 11,
              "duration": 0.8333333333333334
            },
            {
              "pitch": 64,
              "velocity": 70,
              "position": 11.729166666666666,
              "duration": 0.25
            },
            {
              "pitch": 55,
              "velocity": 85,
              "position": 11.75,
              "duration": 0.22916666666666666
            },
            {
              "pitch": 58,
              "velocity": 64,
              "position": 11.75,
              "duration": 0.22916666666666666
            },
            {
              "pitch": 58,
              "velocity": 96,
              "position": 12,
              "duration": 0.4583333333333333
            },
            {
              "pitch": 55,
              "velocity": 96,
              "position": 12,
              "duration": 0.4583333333333333
            },
            {
              "pitch": 64,
              "velocity": 97,
              "position": 12,
              "duration": 0.4895833333333333
            },
            {
              "pitch": 64,
              "velocity": 92,
              "position": 12.5,
              "duration": 0.1875
            },
            {
              "pitch": 55,
              "velocity": 85,
              "position": 12.5,
              "duration": 0.22916666666666666
            },
            {
              "pitch": 58,
              "velocity": 85,
              "position": 12.479166666666666,
              "duration": 0.2604166666666667
            },
            {
              "pitch": 48,
              "velocity": 98,
              "position": 12,
              "duration": 0.8333333333333334
            },
            {
              "pitch": 58,
              "velocity": 46,
              "position": 12.75,
              "duration": 0.1875
            },
            {
              "pitch": 55,
              "velocity": 64,
              "position": 12.75,
              "duration": 0.20833333333333334
            },
            {
              "pitch": 64,
              "velocity": 64,
              "position": 12.729166666666666,
              "duration": 0.2604166666666667
            },
            {
              "pitch": 58,
              "velocity": 92,
              "position": 12.979166666666666,
              "duration": 0.4791666666666667
            },
            {
              "pitch": 55,
              "velocity": 92,
              "position": 13,
              "duration": 0.4583333333333333
            },
            {
              "pitch": 64,
              "velocity": 96,
              "position": 13,
              "duration": 0.4791666666666667
            },
            {
              "pitch": 64,
              "velocity": 92,
              "position": 13.5,
              "duration": 0.1875
            },
            {
              "pitch": 55,
              "velocity": 92,
              "position": 13.5,
              "duration": 0.20833333333333334
            },
            {
              "pitch": 58,
              "velocity": 85,
              "position": 13.479166666666666,
              "duration": 0.25
            },
            {
              "pitch": 52,
              "velocity": 97,
              "position": 13,
              "duration": 0.8333333333333334
            },
            {
              "pitch": 64,
              "velocity": 70,
              "position": 13.729166666666666,
              "duration": 0.25
            },
            {
              "pitch": 55,
              "velocity": 85,
              "position": 13.75,
              "duration": 0.22916666666666666
            },
            {
              "pitch": 58,
              "velocity": 64,
              "position": 13.75,
              "duration": 0.22916666666666666
            },
            {
              "pitch": 58,
              "velocity": 96,
              "position": 14,
              "duration": 0.4583333333333333
            },
            {
              "pitch": 55,
              "velocity": 96,
              "position": 14,
              "duration": 0.4583333333333333
            },
            {
              "pitch": 64,
              "velocity": 97,
              "position": 14,
              "duration": 0.4895833333333333
            },
            {
              "pitch": 64,
              "velocity": 92,
              "position": 14.5,
              "duration": 0.1875
            },
            {
              "pitch": 58,
              "velocity": 85,
              "position": 14.479166666666666,
              "duration": 0.25
            },
            {
              "pitch": 55,
              "velocity": 85,
              "position": 14.5,
              "duration": 0.22916666666666666
            },
            {
              "pitch": 48,
              "velocity": 98,
              "position": 14,
              "duration": 0.8333333333333334
            },
            {
              "pitch": 58,
              "velocity": 46,
              "position": 14.75,
              "duration": 0.1875
            },
            {
              "pitch": 55,
              "velocity": 64,
              "position": 14.75,
              "duration": 0.20833333333333334
            },
            {
              "pitch": 64,
              "velocity": 64,
              "position": 14.729166666666666,
              "duration": 0.25
            },
            {
              "pitch": 58,
              "velocity": 92,
              "position": 14.979166666666666,
              "duration": 0.4791666666666667
            },
            {
              "pitch": 52,
              "velocity": 97,
              "position": 15,
              "duration": 0.4583333333333333
            },
            {
              "pitch": 55,
              "velocity": 92,
              "position": 15,
              "duration": 0.4583333333333333
            },
            {
              "pitch": 64,
              "velocity": 96,
              "position": 15,
              "duration": 0.4791666666666667
            },
            {
              "pitch": 64,
              "velocity": 92,
              "position": 15.5,
              "duration": 0.1875
            },
            {
              "pitch": 55,
              "velocity": 92,
              "position": 15.5,
              "duration": 0.20833333333333334
            },
            {
              "pitch": 58,
              "velocity": 85,
              "position": 15.479166666666666,
              "duration": 0.25
            },
            {
              "pitch": 64,
              "velocity": 70,
              "position": 15.729166666666666,
              "duration": 0.25
            },
            {
              "pitch": 55,
              "velocity": 85,
              "position": 15.75,
              "duration": 0.22916666666666666
            },
            {
              "pitch": 58,
              "velocity": 64,
              "position": 15.75,
              "duration": 0.22916666666666666
            },
            {
              "pitch": 52,
              "velocity": 97,
              "position": 15.5,
              "duration": 0.5
            },
            {
              "pitch": 58,
              "velocity": 96,
              "position": 16,
              "duration": 0.4583333333333333
            },
            {
              "pitch": 55,
              "velocity": 96,
              "position": 16,
              "duration": 0.4583333333333333
            },
            {
              "pitch": 64,
              "velocity": 97,
              "position": 16,
              "duration": 0.4895833333333333
            },
            {
              "pitch": 64,
              "velocity": 92,
              "position": 16.5,
              "duration": 0.1875
            },
            {
              "pitch": 55,
              "velocity": 85,
              "position": 16.5,
              "duration": 0.22916666666666666
            },
            {
              "pitch": 58,
              "velocity": 85,
              "position": 16.479166666666668,
              "duration": 0.2604166666666667
            },
            {
              "pitch": 48,
              "velocity": 98,
              "position": 16,
              "duration": 0.8333333333333334
            },
            {
              "pitch": 58,
              "velocity": 46,
              "position": 16.75,
              "duration": 0.1875
            },
            {
              "pitch": 55,
              "velocity": 64,
              "position": 16.75,
              "duration": 0.20833333333333334
            },
            {
              "pitch": 64,
              "velocity": 64,
              "position": 16.729166666666668,
              "duration": 0.2604166666666667
            },
            {
              "pitch": 58,
              "velocity": 92,
              "position": 16.979166666666668,
              "duration": 0.4791666666666667
            },
            {
              "pitch": 55,
              "velocity": 92,
              "position": 17,
              "duration": 0.4583333333333333
            },
            {
              "pitch": 64,
              "velocity": 96,
              "position": 17,
              "duration": 0.4791666666666667
            },
            {
              "pitch": 64,
              "velocity": 92,
              "position": 17.5,
              "duration": 0.1875
            },
            {
              "pitch": 55,
              "velocity": 92,
              "position": 17.5,
              "duration": 0.20833333333333334
            },
            {
              "pitch": 58,
              "velocity": 85,
              "position": 17.479166666666668,
              "duration": 0.25
            },
            {
              "pitch": 52,
              "velocity": 97,
              "position": 17,
              "duration": 0.8333333333333334
            },
            {
              "pitch": 64,
              "velocity": 70,
              "position": 17.729166666666668,
              "duration": 0.25
            },
            {
              "pitch": 55,
              "velocity": 85,
              "position": 17.75,
              "duration": 0.22916666666666666
            },
            {
              "pitch": 58,
              "velocity": 64,
              "position": 17.75,
              "duration": 0.22916666666666666
            },
            {
              "pitch": 58,
              "velocity": 96,
              "position": 18,
              "duration": 0.4583333333333333
            },
            {
              "pitch": 55,
              "velocity": 96,
              "position": 18,
              "duration": 0.4583333333333333
            },
            {
              "pitch": 64,
              "velocity": 97,
              "position": 18,
              "duration": 0.4895833333333333
            },
            {
              "pitch": 64,
              "velocity": 92,
              "position": 18.5,
              "duration": 0.1875
            },
            {
              "pitch": 55,
              "velocity": 85,
              "position": 18.5,
              "duration": 0.22916666666666666
            },
            {
              "pitch": 58,
              "velocity": 85,
              "position": 18.479166666666668,
              "duration": 0.2604166666666667
            },
            {
              "pitch": 48,
              "velocity": 98,
              "position": 18,
              "duration": 0.8333333333333334
            },
            {
              "pitch": 58,
              "velocity": 46,
              "position": 18.75,
              "duration": 0.1875
            },
            {
              "pitch": 55,
              "velocity": 64,
              "position": 18.75,
              "duration": 0.20833333333333334
            },
            {
              "pitch": 64,
              "velocity": 64,
              "position": 18.729166666666668,
              "duration": 0.25
            },
            {
              "pitch": 58,
              "velocity": 92,
              "position": 18.979166666666668,
              "duration": 0.4791666666666667
            },
            {
              "pitch": 55,
              "velocity": 92,
              "position": 19,
              "duration": 0.4583333333333333
            },
            {
              "pitch": 64,
              "velocity": 96,
              "position": 19,
              "duration": 0.4791666666666667
            },
            {
              "pitch": 64,
              "velocity": 92,
              "position": 19.5,
              "duration": 0.1875
            },
            {
              "pitch": 55,
              "velocity": 92,
              "position": 19.5,
              "duration": 0.20833333333333334
            },
            {
              "pitch": 58,
              "velocity": 85,
              "position": 19.479166666666668,
              "duration": 0.25
            },
            {
              "pitch": 52,
              "velocity": 97,
              "position": 19,
              "duration": 0.8333333333333334
            },
            {
              "pitch": 64,
              "velocity": 70,
              "position": 19.729166666666668,
              "duration": 0.25
            },
            {
              "pitch": 55,
              "velocity": 85,
              "position": 19.75,
              "duration": 0.22916666666666666
            },
            {
              "pitch": 58,
              "velocity": 64,
              "position": 19.75,
              "duration": 0.22916666666666666
            },
            {
              "pitch": 58,
              "velocity": 96,
              "position": 20,
              "duration": 0.4583333333333333
            },
            {
              "pitch": 55,
              "velocity": 96,
              "position": 20,
              "duration": 0.4583333333333333
            },
            {
              "pitch": 64,
              "velocity": 97,
              "position": 20,
              "duration": 0.4895833333333333
            },
            {
              "pitch": 64,
              "velocity": 92,
              "position": 20.5,
              "duration": 0.1875
            },
            {
              "pitch": 55,
              "velocity": 85,
              "position": 20.5,
              "duration": 0.22916666666666666
            },
            {
              "pitch": 58,
              "velocity": 85,
              "position": 20.479166666666668,
              "duration": 0.2604166666666667
            },
            {
              "pitch": 48,
              "velocity": 98,
              "position": 20,
              "duration": 0.8333333333333334
            },
            {
              "pitch": 58,
              "velocity": 46,
              "position": 20.75,
              "duration": 0.1875
            },
            {
              "pitch": 55,
              "velocity": 64,
              "position": 20.75,
              "duration": 0.20833333333333334
            },
            {
              "pitch": 64,
              "velocity": 64,
              "position": 20.729166666666668,
              "duration": 0.2604166666666667
            },
            {
              "pitch": 58,
              "velocity": 92,
              "position": 20.979166666666668,
              "duration": 0.4791666666666667
            },
            {
              "pitch": 55,
              "velocity": 92,
              "position": 21,
              "duration": 0.4583333333333333
            },
            {
              "pitch": 64,
              "velocity": 96,
              "position": 21,
              "duration": 0.4791666666666667
            },
            {
              "pitch": 64,
              "velocity": 92,
              "position": 21.5,
              "duration": 0.1875
            },
            {
              "pitch": 55,
              "velocity": 92,
              "position": 21.5,
              "duration": 0.20833333333333334
            },
            {
              "pitch": 58,
              "velocity": 85,
              "position": 21.479166666666668,
              "duration": 0.25
            },
            {
              "pitch": 52,
              "velocity": 97,
              "position": 21,
              "duration": 0.8333333333333334
            },
            {
              "pitch": 64,
              "velocity": 70,
              "position": 21.729166666666668,
              "duration": 0.25
            },
            {
              "pitch": 55,
              "velocity": 85,
              "position": 21.75,
              "duration": 0.22916666666666666
            },
            {
              "pitch": 58,
              "velocity": 64,
              "position": 21.75,
              "duration": 0.22916666666666666
            },
            {
              "pitch": 58,
              "velocity": 96,
              "position": 22,
              "duration": 0.4583333333333333
            },
            {
              "pitch": 55,
              "velocity": 96,
              "position": 22,
              "duration": 0.4583333333333333
            },
            {
              "pitch": 64,
              "velocity": 97,
              "position": 22,
              "duration": 0.4895833333333333
            },
            {
              "pitch": 64,
              "velocity": 92,
              "position": 22.5,
              "duration": 0.1875
            },
            {
              "pitch": 55,
              "velocity": 85,
              "position": 22.5,
              "duration": 0.22916666666666666
            },
            {
              "pitch": 58,
              "velocity": 85,
              "position": 22.479166666666668,
              "duration": 0.2604166666666667
            },
            {
              "pitch": 48,
              "velocity": 98,
              "position": 22,
              "duration": 0.8333333333333334
            },
            {
              "pitch": 58,
              "velocity": 46,
              "position": 22.75,
              "duration": 0.1875
            },
            {
              "pitch": 55,
              "velocity": 64,
              "position": 22.75,
              "duration": 0.20833333333333334
            },
            {
              "pitch": 64,
              "velocity": 64,
              "position": 22.729166666666668,
              "duration": 0.25
            },
            {
              "pitch": 70,
              "velocity": 92,
              "position": 22.979166666666668,
              "duration": 0.4791666666666667
            },
            {
              "pitch": 55,
              "velocity": 92,
              "position": 23,
              "duration": 0.4583333333333333
            },
            {
              "pitch": 64,
              "velocity": 96,
              "position": 23,
              "duration": 0.4791666666666667
            },
            {
              "pitch": 64,
              "velocity": 92,
              "position": 23.5,
              "duration": 0.1875
            },
            {
              "pitch": 55,
              "velocity": 92,
              "position": 23.5,
              "duration": 0.20833333333333334
            },
            {
              "pitch": 58,
              "velocity": 85,
              "position": 23.479166666666668,
              "duration": 0.25
            },
            {
              "pitch": 52,
              "velocity": 97,
              "position": 23,
              "duration": 0.8333333333333334
            },
            {
              "pitch": 64,
              "velocity": 70,
              "position": 23.729166666666668,
              "duration": 0.25
            },
            {
              "pitch": 55,
              "velocity": 85,
              "position": 23.75,
              "duration": 0.22916666666666666
            },
            {
              "pitch": 58,
              "velocity": 64,
              "position": 23.75,
              "duration": 0.22916666666666666
            },
            {
              "pitch": 58,
              "velocity": 96,
              "position": 24,
              "duration": 0.4583333333333333
            },
            {
              "pitch": 55,
              "velocity": 96,
              "position": 24,
              "duration": 0.4583333333333333
            },
            {
              "pitch": 64,
              "velocity": 97,
              "position": 24,
              "duration": 0.4895833333333333
            },
            {
              "pitch": 64,
              "velocity": 92,
              "position": 24.5,
              "duration": 0.1875
            },
            {
              "pitch": 55,
              "velocity": 85,
              "position": 24.5,
              "duration": 0.22916666666666666
            },
            {
              "pitch": 58,
              "velocity": 85,
              "position": 24.479166666666668,
              "duration": 0.2604166666666667
            },
            {
              "pitch": 48,
              "velocity": 98,
              "position": 24,
              "duration": 0.8333333333333334
            },
            {
              "pitch": 58,
              "velocity": 46,
              "position": 24.75,
              "duration": 0.1875
            },
            {
              "pitch": 55,
              "velocity": 64,
              "position": 24.75,
              "duration": 0.20833333333333334
            },
            {
              "pitch": 64,
              "velocity": 64,
              "position": 24.729166666666668,
              "duration": 0.2604166666666667
            },
            {
              "pitch": 58,
              "velocity": 92,
              "position": 24.979166666666668,
              "duration": 0.4791666666666667
            },
            {
              "pitch": 55,
              "velocity": 92,
              "position": 25,
              "duration": 0.4583333333333333
            },
            {
              "pitch": 64,
              "velocity": 96,
              "position": 25,
              "duration": 0.4791666666666667
            },
            {
              "pitch": 64,
              "velocity": 92,
              "position": 25.5,
              "duration": 0.1875
            },
            {
              "pitch": 55,
              "velocity": 92,
              "position": 25.5,
              "duration": 0.20833333333333334
            },
            {
              "pitch": 58,
              "velocity": 85,
              "position": 25.479166666666668,
              "duration": 0.25
            },
            {
              "pitch": 52,
              "velocity": 97,
              "position": 25,
              "duration": 0.8333333333333334
            },
            {
              "pitch": 64,
              "velocity": 70,
              "position": 25.729166666666668,
              "duration": 0.25
            },
            {
              "pitch": 55,
              "velocity": 85,
              "position": 25.75,
              "duration": 0.22916666666666666
            },
            {
              "pitch": 58,
              "velocity": 64,
              "position": 25.75,
              "duration": 0.22916666666666666
            },
            {
              "pitch": 58,
              "velocity": 96,
              "position": 26,
              "duration": 0.4583333333333333
            },
            {
              "pitch": 55,
              "velocity": 96,
              "position": 26,
              "duration": 0.4583333333333333
            },
            {
              "pitch": 64,
              "velocity": 97,
              "position": 26,
              "duration": 0.4895833333333333
            },
            {
              "pitch": 64,
              "velocity": 92,
              "position": 26.5,
              "duration": 0.1875
            },
            {
              "pitch": 55,
              "velocity": 85,
              "position": 26.5,
              "duration": 0.22916666666666666
            },
            {
              "pitch": 58,
              "velocity": 85,
              "position": 26.479166666666668,
              "duration": 0.2604166666666667
            },
            {
              "pitch": 48,
              "velocity": 98,
              "position": 26,
              "duration": 0.8333333333333334
            },
            {
              "pitch": 58,
              "velocity": 46,
              "position": 26.75,
              "duration": 0.1875
            },
            {
              "pitch": 55,
              "velocity": 64,
              "position": 26.75,
              "duration": 0.20833333333333334
            },
            {
              "pitch": 64,
              "velocity": 64,
              "position": 26.729166666666668,
              "duration": 0.25
            },
            {
              "pitch": 58,
              "velocity": 92,
              "position": 26.979166666666668,
              "duration": 0.4791666666666667
            },
            {
              "pitch": 55,
              "velocity": 92,
              "position": 27,
              "duration": 0.4583333333333333
            },
            {
              "pitch": 64,
              "velocity": 96,
              "position": 27,
              "duration": 0.4791666666666667
            },
            {
              "pitch": 64,
              "velocity": 92,
              "position": 27.5,
              "duration": 0.1875
            },
            {
              "pitch": 55,
              "velocity": 92,
              "position": 27.5,
              "duration": 0.20833333333333334
            },
            {
              "pitch": 58,
              "velocity": 85,
              "position": 27.479166666666668,
              "duration": 0.25
            },
            {
              "pitch": 52,
              "velocity": 97,
              "position": 27,
              "duration": 0.8333333333333334
            },
            {
              "pitch": 64,
              "velocity": 70,
              "position": 27.729166666666668,
              "duration": 0.25
            },
            {
              "pitch": 55,
              "velocity": 85,
              "position": 27.75,
              "duration": 0.22916666666666666
            },
            {
              "pitch": 58,
              "velocity": 64,
              "position": 27.75,
              "duration": 0.22916666666666666
            },
            {
              "pitch": 58,
              "velocity": 96,
              "position": 28,
              "duration": 0.4583333333333333
            },
            {
              "pitch": 55,
              "velocity": 96,
              "position": 28,
              "duration": 0.4583333333333333
            },
            {
              "pitch": 64,
              "velocity": 97,
              "position": 28,
              "duration": 0.4895833333333333
            },
            {
              "pitch": 64,
              "velocity": 92,
              "position": 28.5,
              "duration": 0.1875
            },
            {
              "pitch": 55,
              "velocity": 85,
              "position": 28.5,
              "duration": 0.22916666666666666
            },
            {
              "pitch": 58,
              "velocity": 85,
              "position": 28.479166666666668,
              "duration": 0.2604166666666667
            },
            {
              "pitch": 48,
              "velocity": 98,
              "position": 28,
              "duration": 0.8333333333333334
            },
            {
              "pitch": 58,
              "velocity": 46,
              "position": 28.75,
              "duration": 0.1875
            },
            {
              "pitch": 55,
              "velocity": 64,
              "position": 28.75,
              "duration": 0.20833333333333334
            },
            {
              "pitch": 64,
              "velocity": 64,
              "position": 28.729166666666668,
              "duration": 0.2604166666666667
            },
            {
              "pitch": 58,
              "velocity": 92,
              "position": 28.979166666666668,
              "duration": 0.4791666666666667
            },
            {
              "pitch": 55,
              "velocity": 92,
              "position": 29,
              "duration": 0.4583333333333333
            },
            {
              "pitch": 64,
              "velocity": 96,
              "position": 29,
              "duration": 0.4791666666666667
            },
            {
              "pitch": 64,
              "velocity": 92,
              "position": 29.5,
              "duration": 0.1875
            },
            {
              "pitch": 55,
              "velocity": 92,
              "position": 29.5,
              "duration": 0.20833333333333334
            },
            {
              "pitch": 58,
              "velocity": 85,
              "position": 29.479166666666668,
              "duration": 0.25
            },
            {
              "pitch": 52,
              "velocity": 97,
              "position": 29,
              "duration": 0.8333333333333334
            },
            {
              "pitch": 64,
              "velocity": 70,
              "position": 29.729166666666668,
              "duration": 0.25
            },
            {
              "pitch": 55,
              "velocity": 85,
              "position": 29.75,
              "duration": 0.22916666666666666
            },
            {
              "pitch": 58,
              "velocity": 64,
              "position": 29.75,
              "duration": 0.22916666666666666
            },
            {
              "pitch": 58,
              "velocity": 96,
              "position": 30,
              "duration": 0.4583333333333333
            },
            {
              "pitch": 55,
              "velocity": 96,
              "position": 30,
              "duration": 0.4583333333333333
            },
            {
              "pitch": 64,
              "velocity": 97,
              "position": 30,
              "duration": 0.4895833333333333
            },
            {
              "pitch": 64,
              "velocity": 92,
              "position": 30.5,
              "duration": 0.1875
            },
            {
              "pitch": 55,
              "velocity": 85,
              "position": 30.5,
              "duration": 0.22916666666666666
            },
            {
              "pitch": 58,
              "velocity": 85,
              "position": 30.479166666666668,
              "duration": 0.2604166666666667
            },
            {
              "pitch": 48,
              "velocity": 98,
              "position": 30,
              "duration": 0.8333333333333334
            },
            {
              "pitch": 58,
              "velocity": 46,
              "position": 30.75,
              "duration": 0.1875
            },
            {
              "pitch": 55,
              "velocity": 64,
              "position": 30.75,
              "duration": 0.20833333333333334
            },
            {
              "pitch": 64,
              "velocity": 64,
              "position": 30.729166666666668,
              "duration": 0.25
            },
            {
              "pitch": 58,
              "velocity": 92,
              "position": 30.979166666666668,
              "duration": 0.4791666666666667
            },
            {
              "pitch": 52,
              "velocity": 97,
              "position": 31,
              "duration": 0.4583333333333333
            },
            {
              "pitch": 55,
              "velocity": 92,
              "position": 31,
              "duration": 0.4583333333333333
            },
            {
              "pitch": 64,
              "velocity": 96,
              "position": 31,
              "duration": 0.4791666666666667
            },
            {
              "pitch": 64,
              "velocity": 92,
              "position": 31.5,
              "duration": 0.1875
            },
            {
              "pitch": 55,
              "velocity": 92,
              "position": 31.5,
              "duration": 0.20833333333333334
            },
            {
              "pitch": 58,
              "velocity": 85,
              "position": 31.479166666666668,
              "duration": 0.25
            },
            {
              "pitch": 64,
              "velocity": 70,
              "position": 31.729166666666668,
              "duration": 0.25
            },
            {
              "pitch": 58,
              "velocity": 64,
              "position": 31.75,
              "duration": 0.22916666666666666
            },
            {
              "pitch": 52,
              "velocity": 97,
              "position": 31.5,
              "duration": 0.5
            },
            {
              "pitch": 55,
              "velocity": 85,
              "position": 31.75,
              "duration": 0.25
            }
          ]
        },
        "4": {
          "ctab": {
            "srcChannel": 4,
            "name": "Strings1",
            "accType": "PAD",
            "editable": false,
            "mutedNotes": [],
            "mutedChords": [
              "7aug",
              "Maj7aug",
              "7(#9)",
              "7(b13)",
              "7(b9)",
              "7(13)",
              "7#11",
              "7(9)",
              "7b5",
              "7sus4",
              "7th"
            ],
            "autoStart": false,
            "sourceChordNote": 0,
            "sourceChordType": "Maj7",
            "ctb2Low": null,
            "ctb2Main": {
              "ntr": "ROOT_FIXED",
              "ntt": "CHORD",
              "bassOn": false,
              "chordRootUpperLimit": 6,
              "noteLowLimit": 0,
              "noteHighLimit": 127,
              "rtr": "PITCH_SHIFT"
            },
            "ctb2High": null
          },
          "notes": [
            {
              "pitch": 55,
              "velocity": 89,
              "position": 0,
              "duration": 0.10416666666666667
            },
            {
              "pitch": 59,
              "velocity": 89,
              "position": 0,
              "duration": 15.979166666666666
            },
            {
              "pitch": 64,
              "velocity": 89,
              "position": 0,
              "duration": 15.979166666666666
            },
            {
              "pitch": 55,
              "velocity": 89,
              "position": 16,
              "duration": 0.10416666666666667
            },
            {
              "pitch": 59,
              "velocity": 89,
              "position": 16,
              "duration": 16
            },
            {
              "pitch": 64,
              "velocity": 89,
              "position": 16,
              "duration": 16
            }
          ]
        },
        "5": {
          "ctab": {
            "srcChannel": 5,
            "name": "Strings1",
            "accType": "PAD",
            "editable": false,
            "mutedNotes": [],
            "mutedChords": [
              "1+2+5",
              "sus4",
              "1+5",
              "1+8",
              "dim7",
              "dim",
              "minMaj7(9)",
              "minMaj7",
              "min7(11)",
              "min7(9)",
              "min(9)",
              "m7b5",
              "min7",
              "min6",
              "min",
              "aug",
              "Maj6(9)",
              "Maj7(9)",
              "Maj(9)",
              "Maj7#11",
              "Maj7",
              "Maj6",
              "Maj"
            ],
            "autoStart": false,
            "sourceChordNote": 0,
            "sourceChordType": "7th",
            "ctb2Low": null,
            "ctb2Main": {
              "ntr": "ROOT_FIXED",
              "ntt": "CHORD",
              "bassOn": false,
              "chordRootUpperLimit": 6,
              "noteLowLimit": 0,
              "noteHighLimit": 127,
              "rtr": "PITCH_SHIFT"
            },
            "ctb2High": null
          },
          "notes": [
            {
              "pitch": 58,
              "velocity": 89,
              "position": 0,
              "duration": 0.10416666666666667
            },
            {
              "pitch": 55,
              "velocity": 89,
              "position": 0,
              "duration": 15.979166666666666
            },
            {
              "pitch": 64,
              "velocity": 89,
              "position": 0,
              "duration": 15.979166666666666
            },
            {
              "pitch": 58,
              "velocity": 89,
              "position": 16,
              "duration": 0.10416666666666667
            },
            {
              "pitch": 55,
              "velocity": 89,
              "position": 16,
              "duration": 16
            },
            {
              "pitch": 64,
              "velocity": 89,
              "position": 16,
              "duration": 16
            }
          ]
        },
        "8": {
          "ctab": {
            "srcChannel": 8,
            "name": "Std.Kit1",
            "accType": "RHYTHM",
            "editable": false,
            "mutedNotes": [],
            "mutedChords": [],
            "autoStart": true,
            "sourceChordNote": 0,
            "sourceChordType": "Maj7",
            "ctb2Low": null,
            "ctb2Main": {
              "ntr": "ROOT_FIXED",
              "ntt": "BYPASS",
              "bassOn": false,
              "chordRootUpperLimit": 6,
              "noteLowLimit": 0,
              "noteHighLimit": 127,
              "rtr": "PITCH_SHIFT"
            },
            "ctb2High": null
          },
          "notes": [
            {
              "pitch": 42,
              "velocity": 112,
              "position": 0,
              "duration": 0.14583333333333334
            },
            {
              "pitch": 44,
              "velocity": 58,
              "position": 0,
              "duration": 0.14583333333333334
            },
            {
              "pitch": 35,
              "velocity": 100,
              "position": 0,
              "duration": 0.16666666666666666
            },
            {
              "pitch": 42,
              "velocity": 55,
              "position": 0.5,
              "duration": 0.16666666666666666
            },
            {
              "pitch": 38,
              "velocity": 69,
              "position": 1,
              "duration": 0.125
            },
            {
              "pitch": 42,
              "velocity": 92,
              "position": 1,
              "duration": 0.14583333333333334
            },
            {
              "pitch": 44,
              "velocity": 58,
              "position": 1,
              "duration": 0.16666666666666666
            },
            {
              "pitch": 42,
              "velocity": 55,
              "position": 1.5,
              "duration": 0.16666666666666666
            },
            {
              "pitch": 35,
              "velocity": 44,
              "position": 1.75,
              "duration": 0.16666666666666666
            },
            {
              "pitch": 42,
              "velocity": 112,
              "position": 2,
              "duration": 0.14583333333333334
            },
            {
              "pitch": 35,
              "velocity": 100,
              "position": 2,
              "duration": 0.16666666666666666
            },
            {
              "pitch": 44,
              "velocity": 58,
              "position": 2,
              "duration": 0.16666666666666666
            },
            {
              "pitch": 42,
              "velocity": 55,
              "position": 2.5,
              "duration": 0.16666666666666666
            },
            {
              "pitch": 38,
              "velocity": 69,
              "position": 3,
              "duration": 0.125
            },
            {
              "pitch": 42,
              "velocity": 112,
              "position": 3,
              "duration": 0.14583333333333334
            },
            {
              "pitch": 44,
              "velocity": 58,
              "position": 3,
              "duration": 0.14583333333333334
            },
            {
              "pitch": 42,
              "velocity": 55,
              "position": 3.5,
              "duration": 0.16666666666666666
            },
            {
              "pitch": 42,
              "velocity": 112,
              "position": 4,
              "duration": 0.14583333333333334
            },
            {
              "pitch": 35,
              "velocity": 100,
              "position": 4,
              "duration": 0.16666666666666666
            },
            {
              "pitch": 44,
              "velocity": 58,
              "position": 4,
              "duration": 0.16666666666666666
            },
            {
              "pitch": 42,
              "velocity": 55,
              "position": 4.5,
              "duration": 0.16666666666666666
            },
            {
              "pitch": 38,
              "velocity": 69,
              "position": 5,
              "duration": 0.125
            },
            {
              "pitch": 42,
              "velocity": 92,
              "position": 5,
              "duration": 0.14583333333333334
            },
            {
              "pitch": 44,
              "velocity": 58,
              "position": 5,
              "duration": 0.14583333333333334
            },
            {
              "pitch": 42,
              "velocity": 55,
              "position": 5.5,
              "duration": 0.16666666666666666
            },
            {
              "pitch": 35,
              "velocity": 44,
              "position": 5.75,
              "duration": 0.16666666666666666
            },
            {
              "pitch": 35,
              "velocity": 100,
              "position": 6,
              "duration": 0.16666666666666666
            },
            {
              "pitch": 42,
              "velocity": 112,
              "position": 6,
              "duration": 0.16666666666666666
            },
            {
              "pitch": 44,
              "velocity": 58,
              "position": 6,
              "duration": 0.16666666666666666
            },
            {
              "pitch": 42,
              "velocity": 55,
              "position": 6.5,
              "duration": 0.16666666666666666
            },
            {
              "pitch": 38,
              "velocity": 69,
              "position": 7,
              "duration": 0.125
            },
            {
              "pitch": 42,
              "velocity": 112,
              "position": 7,
              "duration": 0.14583333333333334
            },
            {
              "pitch": 44,
              "velocity": 58,
              "position": 7,
              "duration": 0.16666666666666666
            },
            {
              "pitch": 35,
              "velocity": 44,
              "position": 7.5,
              "duration": 0.16666666666666666
            },
            {
              "pitch": 46,
              "velocity": 58,
              "position": 7.5,
              "duration": 0.4583333333333333
            },
            {
              "pitch": 44,
              "velocity": 58,
              "position": 8,
              "duration": 0.14583333333333334
            },
            {
              "pitch": 42,
              "velocity": 112,
              "position": 8,
              "duration": 0.14583333333333334
            },
            {
              "pitch": 35,
              "velocity": 100,
              "position": 8,
              "duration": 0.16666666666666666
            },
            {
              "pitch": 42,
              "velocity": 55,
              "position": 8.5,
              "duration": 0.16666666666666666
            },
            {
              "pitch": 38,
              "velocity": 69,
              "position": 9,
              "duration": 0.125
            },
            {
              "pitch": 42,
              "velocity": 92,
              "position": 9,
              "duration": 0.14583333333333334
            },
            {
              "pitch": 44,
              "velocity": 58,
              "position": 9,
              "duration": 0.16666666666666666
            },
            {
              "pitch": 42,
              "velocity": 55,
              "position": 9.5,
              "duration": 0.16666666666666666
            },
            {
              "pitch": 35,
              "velocity": 44,
              "position": 9.75,
              "duration": 0.16666666666666666
            },
            {
              "pitch": 42,
              "velocity": 112,
              "position": 10,
              "duration": 0.14583333333333334
            },
            {
              "pitch": 35,
              "velocity": 100,
              "position": 10,
              "duration": 0.16666666666666666
            },
            {
              "pitch": 44,
              "velocity": 58,
              "position": 10,
              "duration": 0.16666666666666666
            },
            {
              "pitch": 42,
              "velocity": 55,
              "position": 10.5,
              "duration": 0.16666666666666666
            },
            {
              "pitch": 38,
              "velocity": 69,
              "position": 11,
              "duration": 0.125
            },
            {
              "pitch": 42,
              "velocity": 112,
              "position": 11,
              "duration": 0.14583333333333334
            },
            {
              "pitch": 44,
              "velocity": 58,
              "position": 11,
              "duration": 0.16666666666666666
            },
            {
              "pitch": 42,
              "velocity": 55,
              "position": 11.5,
              "duration": 0.16666666666666666
            },
            {
              "pitch": 46,
              "velocity": 58,
              "position": 8,
              "duration": 3.9583333333333335
            },
            {
              "pitch": 42,
              "velocity": 112,
              "position": 12,
              "duration": 0.14583333333333334
            },
            {
              "pitch": 35,
              "velocity": 100,
              "position": 12,
              "duration": 0.16666666666666666
            },
            {
              "pitch": 44,
              "velocity": 58,
              "position": 12,
              "duration": 0.16666666666666666
            },
            {
              "pitch": 42,
              "velocity": 55,
              "position": 12.5,
              "duration": 0.16666666666666666
            },
            {
              "pitch": 38,
              "velocity": 69,
              "position": 13,
              "duration": 0.125
            },
            {
              "pitch": 42,
              "velocity": 92,
              "position": 13,
              "duration": 0.14583333333333334
            },
            {
              "pitch": 44,
              "velocity": 58,
              "position": 13,
              "duration": 0.16666666666666666
            },
            {
              "pitch": 42,
              "velocity": 55,
              "position": 13.5,
              "duration": 0.16666666666666666
            },
            {
              "pitch": 35,
              "velocity": 44,
              "position": 13.75,
              "duration": 0.16666666666666666
            },
            {
              "pitch": 42,
              "velocity": 112,
              "position": 14,
              "duration": 0.14583333333333334
            },
            {
              "pitch": 35,
              "velocity": 100,
              "position": 14,
              "duration": 0.16666666666666666
            },
            {
              "pitch": 44,
              "velocity": 58,
              "position": 14,
              "duration": 0.16666666666666666
            },
            {
              "pitch": 42,
              "velocity": 55,
              "position": 14.5,
              "duration": 0.16666666666666666
            },
            {
              "pitch": 38,
              "velocity": 69,
              "position": 15,
              "duration": 0.125
            },
            {
              "pitch": 42,
              "velocity": 112,
              "position": 15,
              "duration": 0.14583333333333334
            },
            {
              "pitch": 44,
              "velocity": 58,
              "position": 15,
              "duration": 0.16666666666666666
            },
            {
              "pitch": 42,
              "velocity": 55,
              "position": 15.5,
              "duration": 0.16666666666666666
            },
            {
              "pitch": 42,
              "velocity": 112,
              "position": 16,
              "duration": 0.14583333333333334
            },
            {
              "pitch": 44,
              "velocity": 58,
              "position": 16,
              "duration": 0.14583333333333334
            },
            {
              "pitch": 35,
              "velocity": 100,
              "position": 16,
              "duration": 0.16666666666666666
            },
            {
              "pitch": 42,
              "velocity": 55,
              "position": 16.5,
              "duration": 0.16666666666666666
            },
            {
              "pitch": 38,
              "velocity": 69,
              "position": 17,
              "duration": 0.125
            },
            {
              "pitch": 42,
              "velocity": 92,
              "position": 17,
              "duration": 0.14583333333333334
            },
            {
              "pitch": 44,
              "velocity": 58,
              "position": 17,
              "duration": 0.16666666666666666
            },
            {
              "pitch": 42,
              "velocity": 55,
              "position": 17.5,
              "duration": 0.16666666666666666
            },
            {
              "pitch": 35,
              "velocity": 44,
              "position": 17.75,
              "duration": 0.16666666666666666
            },
            {
              "pitch": 42,
              "velocity": 112,
              "position": 18,
              "duration": 0.14583333333333334
            },
            {
              "pitch": 35,
              "velocity": 100,
              "position": 18,
              "duration": 0.16666666666666666
            },
            {
              "pitch": 44,
              "velocity": 58,
              "position": 18,
              "duration": 0.16666666666666666
            },
            {
              "pitch": 42,
              "velocity": 55,
              "position": 18.5,
              "duration": 0.16666666666666666
            },
            {
              "pitch": 38,
              "velocity": 69,
              "position": 19,
              "duration": 0.125
            },
            {
              "pitch": 42,
              "velocity": 112,
              "position": 19,
              "duration": 0.14583333333333334
            },
            {
              "pitch": 44,
              "velocity": 58,
              "position": 19,
              "duration": 0.14583333333333334
            },
            {
              "pitch": 42,
              "velocity": 55,
              "position": 19.5,
              "duration": 0.16666666666666666
            },
            {
              "pitch": 42,
              "velocity": 112,
              "position": 20,
              "duration": 0.14583333333333334
            },
            {
              "pitch": 35,
              "velocity": 100,
              "position": 20,
              "duration": 0.16666666666666666
            },
            {
              "pitch": 44,
              "velocity": 58,
              "position": 20,
              "duration": 0.16666666666666666
            },
            {
              "pitch": 42,
              "velocity": 55,
              "position": 20.5,
              "duration": 0.16666666666666666
            },
            {
              "pitch": 38,
              "velocity": 69,
              "position": 21,
              "duration": 0.125
            },
            {
              "pitch": 42,
              "velocity": 92,
              "position": 21,
              "duration": 0.14583333333333334
            },
            {
              "pitch": 44,
              "velocity": 58,
              "position": 21,
              "duration": 0.14583333333333334
            },
            {
              "pitch": 42,
              "velocity": 55,
              "position": 21.5,
              "duration": 0.16666666666666666
            },
            {
              "pitch": 35,
              "velocity": 44,
              "position": 21.75,
              "duration": 0.16666666666666666
            },
            {
              "pitch": 35,
              "velocity": 100,
              "position": 22,
              "duration": 0.16666666666666666
            },
            {
              "pitch": 42,
              "velocity": 112,
              "position": 22,
              "duration": 0.16666666666666666
            },
            {
              "pitch": 44,
              "velocity": 58,
              "position": 22,
              "duration": 0.16666666666666666
            },
            {
              "pitch": 42,
              "velocity": 55,
              "position": 22.5,
              "duration": 0.16666666666666666
            },
            {
              "pitch": 38,
              "velocity": 69,
              "position": 23,
              "duration": 0.125
            },
            {
              "pitch": 42,
              "velocity": 112,
              "position": 23,
              "duration": 0.14583333333333334
            },
            {
              "pitch": 44,
              "velocity": 58,
              "position": 23,
              "duration": 0.16666666666666666
            },
            {
              "pitch": 35,
              "velocity": 44,
              "position": 23.5,
              "duration": 0.16666666666666666
            },
            {
              "pitch": 46,
              "velocity": 58,
              "position": 23.5,
              "duration": 0.4583333333333333
            },
            {
              "pitch": 44,
              "velocity": 58,
              "position": 24,
              "duration": 0.14583333333333334
            },
            {
              "pitch": 42,
              "velocity": 112,
              "position": 24,
              "duration": 0.14583333333333334
            },
            {
              "pitch": 35,
              "velocity": 100,
              "position": 24,
              "duration": 0.16666666666666666
            },
            {
              "pitch": 42,
              "velocity": 55,
              "position": 24.5,
              "duration": 0.16666666666666666
            },
            {
              "pitch": 38,
              "velocity": 69,
              "position": 25,
              "duration": 0.125
            },
            {
              "pitch": 42,
              "velocity": 92,
              "position": 25,
              "duration": 0.14583333333333334
            },
            {
              "pitch": 44,
              "velocity": 58,
              "position": 25,
              "duration": 0.16666666666666666
            },
            {
              "pitch": 42,
              "velocity": 55,
              "position": 25.5,
              "duration": 0.16666666666666666
            },
            {
              "pitch": 35,
              "velocity": 44,
              "position": 25.75,
              "duration": 0.16666666666666666
            },
            {
              "pitch": 42,
              "velocity": 112,
              "position": 26,
              "duration": 0.14583333333333334
            },
            {
              "pitch": 35,
              "velocity": 100,
              "position": 26,
              "duration": 0.16666666666666666
            },
            {
              "pitch": 44,
              "velocity": 58,
              "position": 26,
              "duration": 0.16666666666666666
            },
            {
              "pitch": 42,
              "velocity": 55,
              "position": 26.5,
              "duration": 0.16666666666666666
            },
            {
              "pitch": 38,
              "velocity": 69,
              "position": 27,
              "duration": 0.125
            },
            {
              "pitch": 42,
              "velocity": 112,
              "position": 27,
              "duration": 0.14583333333333334
            },
            {
              "pitch": 44,
              "velocity": 58,
              "position": 27,
              "duration": 0.16666666666666666
            },
            {
              "pitch": 42,
              "velocity": 55,
              "position": 27.5,
              "duration": 0.16666666666666666
            },
            {
              "pitch": 46,
              "velocity": 58,
              "position": 24,
              "duration": 3.9583333333333335
            },
            {
              "pitch": 42,
              "velocity": 112,
              "position": 28,
              "duration": 0.14583333333333334
            },
            {
              "pitch": 35,
              "velocity": 100,
              "position": 28,
              "duration": 0.16666666666666666
            },
            {
              "pitch": 44,
              "velocity": 58,
              "position": 28,
              "duration": 0.16666666666666666
            },
            {
              "pitch": 42,
              "velocity": 55,
              "position": 28.5,
              "duration": 0.16666666666666666
            },
            {
              "pitch": 38,
              "velocity": 69,
              "position": 29,
              "duration": 0.125
            },
            {
              "pitch": 42,
              "velocity": 92,
              "position": 29,
              "duration": 0.14583333333333334
            },
            {
              "pitch": 44,
              "velocity": 58,
              "position": 29,
              "duration": 0.16666666666666666
            },
            {
              "pitch": 42,
              "velocity": 55,
              "position": 29.5,
              "duration": 0.16666666666666666
            },
            {
              "pitch": 35,
              "velocity": 44,
              "position": 29.75,
              "duration": 0.16666666666666666
            },
            {
              "pitch": 35,
              "velocity": 100,
              "position": 30,
              "duration": 0.16666666666666666
            },
            {
              "pitch": 42,
              "velocity": 112,
              "position": 30,
              "duration": 0.16666666666666666
            },
            {
              "pitch": 44,
              "velocity": 58,
              "position": 30,
              "duration": 0.16666666666666666
            },
            {
              "pitch": 42,
              "velocity": 55,
              "position": 30.5,
              "duration": 0.16666666666666666
            },
            {
              "pitch": 38,
              "velocity": 69,
              "position": 31,
              "duration": 0.125
            },
            {
              "pitch": 42,
              "velocity": 112,
              "position": 31,
              "duration": 0.14583333333333334
            },
            {
              "pitch": 44,
              "velocity": 58,
              "position": 31,
              "duration": 0.14583333333333334
            },
            {
              "pitch": 42,
              "velocity": 55,
              "position": 31.5,
              "duration": 0.14583333333333334
            },
            {
              "pitch": 35,
              "velocity": 100,
              "position": 31.5,
              "duration": 0.16666666666666666
            },
            {
              "pitch": 46,
              "velocity": 58,
              "position": 31.5,
              "duration": 0.4791666666666667
            }
          ]
        },
        "10": {
          "ctab": {
            "srcChannel": 10,
            "name": "Std.Kit1",
            "accType": "SUBRHYTHM",
            "editable": false,
            "mutedNotes": [],
            "mutedChords": [],
            "autoStart": true,
            "sourceChordNote": 0,
            "sourceChordType": "Maj7",
            "ctb2Low": null,
            "ctb2Main": {
              "ntr": "ROOT_FIXED",
              "ntt": "BYPASS",
              "bassOn": false,
              "chordRootUpperLimit": 6,
              "noteLowLimit": 0,
              "noteHighLimit": 127,
              "rtr": "PITCH_SHIFT"
            },
            "ctb2High": null
          },
          "notes": [
            {
              "pitch": 69,
              "velocity": 84,
              "position": 0,
              "duration": 0.125
            },
            {
              "pitch": 63,
              "velocity": 78,
              "position": 0,
              "duration": 0.125
            },
            {
              "pitch": 69,
              "velocity": 15,
              "position": 0.25,
              "duration": 0.125
            },
            {
              "pitch": 54,
              "velocity": 92,
              "position": 0.5,
              "duration": 0.125
            },
            {
              "pitch": 69,
              "velocity": 32,
              "position": 0.5,
              "duration": 0.125
            },
            {
              "pitch": 81,
              "velocity": 21,
              "position": 0.5,
              "duration": 0.125
            },
            {
              "pitch": 63,
              "velocity": 22,
              "position": 0.5,
              "duration": 0.125
            },
            {
              "pitch": 69,
              "velocity": 15,
              "position": 0.75,
              "duration": 0.125
            },
            {
              "pitch": 63,
              "velocity": 73,
              "position": 0.75,
              "duration": 0.125
            },
            {
              "pitch": 69,
              "velocity": 84,
              "position": 1,
              "duration": 0.125
            },
            {
              "pitch": 62,
              "velocity": 91,
              "position": 1,
              "duration": 0.125
            },
            {
              "pitch": 69,
              "velocity": 15,
              "position": 1.25,
              "duration": 0.125
            },
            {
              "pitch": 63,
              "velocity": 22,
              "position": 1.25,
              "duration": 0.125
            },
            {
              "pitch": 54,
              "velocity": 67,
              "position": 1.5,
              "duration": 0.125
            },
            {
              "pitch": 69,
              "velocity": 32,
              "position": 1.5,
              "duration": 0.125
            },
            {
              "pitch": 81,
              "velocity": 21,
              "position": 1.5,
              "duration": 0.125
            },
            {
              "pitch": 63,
              "velocity": 73,
              "position": 1.5,
              "duration": 0.125
            },
            {
              "pitch": 69,
              "velocity": 15,
              "position": 1.75,
              "duration": 0.125
            },
            {
              "pitch": 63,
              "velocity": 78,
              "position": 1.75,
              "duration": 0.125
            },
            {
              "pitch": 69,
              "velocity": 84,
              "position": 2,
              "duration": 0.125
            },
            {
              "pitch": 69,
              "velocity": 15,
              "position": 2.25,
              "duration": 0.125
            },
            {
              "pitch": 63,
              "velocity": 78,
              "position": 2.25,
              "duration": 0.125
            },
            {
              "pitch": 54,
              "velocity": 92,
              "position": 2.5,
              "duration": 0.125
            },
            {
              "pitch": 69,
              "velocity": 32,
              "position": 2.5,
              "duration": 0.125
            },
            {
              "pitch": 81,
              "velocity": 21,
              "position": 2.5,
              "duration": 0.125
            },
            {
              "pitch": 69,
              "velocity": 15,
              "position": 2.75,
              "duration": 0.125
            },
            {
              "pitch": 63,
              "velocity": 78,
              "position": 2.75,
              "duration": 0.125
            },
            {
              "pitch": 69,
              "velocity": 84,
              "position": 3,
              "duration": 0.125
            },
            {
              "pitch": 62,
              "velocity": 91,
              "position": 3,
              "duration": 0.125
            },
            {
              "pitch": 69,
              "velocity": 15,
              "position": 3.25,
              "duration": 0.125
            },
            {
              "pitch": 63,
              "velocity": 78,
              "position": 3.25,
              "duration": 0.125
            },
            {
              "pitch": 54,
              "velocity": 67,
              "position": 3.5,
              "duration": 0.125
            },
            {
              "pitch": 69,
              "velocity": 32,
              "position": 3.5,
              "duration": 0.125
            },
            {
              "pitch": 81,
              "velocity": 21,
              "position": 3.5,
              "duration": 0.125
            },
            {
              "pitch": 64,
              "velocity": 85,
              "position": 3.5,
              "duration": 0.125
            },
            {
              "pitch": 69,
              "velocity": 15,
              "position": 3.75,
              "duration": 0.125
            },
            {
              "pitch": 63,
              "velocity": 78,
              "position": 3.75,
              "duration": 0.125
            },
            {
              "pitch": 69,
              "velocity": 84,
              "position": 4,
              "duration": 0.125
            },
            {
              "pitch": 63,
              "velocity": 78,
              "position": 4,
              "duration": 0.125
            },
            {
              "pitch": 69,
              "velocity": 15,
              "position": 4.25,
              "duration": 0.125
            },
            {
              "pitch": 54,
              "velocity": 92,
              "position": 4.5,
              "duration": 0.125
            },
            {
              "pitch": 69,
              "velocity": 32,
              "position": 4.5,
              "duration": 0.125
            },
            {
              "pitch": 81,
              "velocity": 21,
              "position": 4.5,
              "duration": 0.125
            },
            {
              "pitch": 63,
              "velocity": 22,
              "position": 4.5,
              "duration": 0.125
            },
            {
              "pitch": 69,
              "velocity": 15,
              "position": 4.75,
              "duration": 0.125
            },
            {
              "pitch": 63,
              "velocity": 73,
              "position": 4.75,
              "duration": 0.125
            },
            {
              "pitch": 69,
              "velocity": 84,
              "position": 5,
              "duration": 0.125
            },
            {
              "pitch": 62,
              "velocity": 91,
              "position": 5,
              "duration": 0.125
            },
            {
              "pitch": 69,
              "velocity": 15,
              "position": 5.25,
              "duration": 0.125
            },
            {
              "pitch": 63,
              "velocity": 22,
              "position": 5.25,
              "duration": 0.125
            },
            {
              "pitch": 54,
              "velocity": 67,
              "position": 5.5,
              "duration": 0.125
            },
            {
              "pitch": 69,
              "velocity": 32,
              "position": 5.5,
              "duration": 0.125
            },
            {
              "pitch": 81,
              "velocity": 21,
              "position": 5.5,
              "duration": 0.125
            },
            {
              "pitch": 63,
              "velocity": 73,
              "position": 5.5,
              "duration": 0.125
            },
            {
              "pitch": 69,
              "velocity": 15,
              "position": 5.75,
              "duration": 0.125
            },
            {
              "pitch": 63,
              "velocity": 78,
              "position": 5.75,
              "duration": 0.125
            },
            {
              "pitch": 69,
              "velocity": 84,
              "position": 6,
              "duration": 0.125
            },
            {
              "pitch": 69,
              "velocity": 15,
              "position": 6.25,
              "duration": 0.125
            },
            {
              "pitch": 63,
              "velocity": 78,
              "position": 6.25,
              "duration": 0.125
            },
            {
              "pitch": 54,
              "velocity": 92,
              "position": 6.5,
              "duration": 0.125
            },
            {
              "pitch": 69,
              "velocity": 32,
              "position": 6.5,
              "duration": 0.125
            },
            {
              "pitch": 81,
              "velocity": 21,
              "position": 6.5,
              "duration": 0.125
            },
            {
              "pitch": 69,
              "velocity": 15,
              "position": 6.75,
              "duration": 0.125
            },
            {
              "pitch": 63,
              "velocity": 78,
              "position": 6.75,
              "duration": 0.125
            },
            {
              "pitch": 69,
              "velocity": 84,
              "position": 7,
              "duration": 0.125
            },
            {
              "pitch": 62,
              "velocity": 91,
              "position": 7,
              "duration": 0.125
            },
            {
              "pitch": 69,
              "velocity": 15,
              "position": 7.25,
              "duration": 0.125
            },
            {
              "pitch": 63,
              "velocity": 78,
              "position": 7.25,
              "duration": 0.125
            },
            {
              "pitch": 54,
              "velocity": 67,
              "position": 7.5,
              "duration": 0.125
            },
            {
              "pitch": 69,
              "velocity": 32,
              "position": 7.5,
              "duration": 0.125
            },
            {
              "pitch": 81,
              "velocity": 21,
              "position": 7.5,
              "duration": 0.125
            },
            {
              "pitch": 64,
              "velocity": 85,
              "position": 7.5,
              "duration": 0.125
            },
            {
              "pitch": 69,
              "velocity": 15,
              "position": 7.75,
              "duration": 0.125
            },
            {
              "pitch": 63,
              "velocity": 78,
              "position": 7.75,
              "duration": 0.125
            },
            {
              "pitch": 69,
              "velocity": 84,
              "position": 8,
              "duration": 0.125
            },
            {
              "pitch": 63,
              "velocity": 78,
              "position": 8,
              "duration": 0.125
            },
            {
              "pitch": 69,
              "velocity": 15,
              "position": 8.25,
              "duration": 0.125
            },
            {
              "pitch": 54,
              "velocity": 92,
              "position": 8.5,
              "duration": 0.125
            },
            {
              "pitch": 69,
              "velocity": 32,
              "position": 8.5,
              "duration": 0.125
            },
            {
              "pitch": 81,
              "velocity": 21,
              "position": 8.5,
              "duration": 0.125
            },
            {
              "pitch": 63,
              "velocity": 22,
              "position": 8.5,
              "duration": 0.125
            },
            {
              "pitch": 69,
              "velocity": 15,
              "position": 8.75,
              "duration": 0.125
            },
            {
              "pitch": 63,
              "velocity": 73,
              "position": 8.75,
              "duration": 0.125
            },
            {
              "pitch": 69,
              "velocity": 84,
              "position": 9,
              "duration": 0.125
            },
            {
              "pitch": 62,
              "velocity": 91,
              "position": 9,
              "duration": 0.125
            },
            {
              "pitch": 69,
              "velocity": 15,
              "position": 9.25,
              "duration": 0.125
            },
            {
              "pitch": 63,
              "velocity": 22,
              "position": 9.25,
              "duration": 0.125
            },
            {
              "pitch": 54,
              "velocity": 67,
              "position": 9.5,
              "duration": 0.125
            },
            {
              "pitch": 69,
              "velocity": 32,
              "position": 9.5,
              "duration": 0.125
            },
            {
              "pitch": 81,
              "velocity": 21,
              "position": 9.5,
              "duration": 0.125
            },
            {
              "pitch": 63,
              "velocity": 73,
              "position": 9.5,
              "duration": 0.125
            },
            {
              "pitch": 69,
              "velocity": 15,
              "position": 9.75,
              "duration": 0.125
            },
            {
              "pitch": 63,
              "velocity": 78,
              "position": 9.75,
              "duration": 0.125
            },
            {
              "pitch": 69,
              "velocity": 84,
              "position": 10,
              "duration": 0.125
            },
            {
              "pitch": 69,
              "velocity": 15,
              "position": 10.25,
              "duration": 0.125
            },
            {
              "pitch": 63,
              "velocity": 78,
              "position": 10.25,
              "duration": 0.125
            },
            {
              "pitch": 54,
              "velocity": 92,
              "position": 10.5,
              "duration": 0.125
            },
            {
              "pitch": 69,
              "velocity": 32,
              "position": 10.5,
              "duration": 0.125
            },
            {
              "pitch": 81,
              "velocity": 21,
              "position": 10.5,
              "duration": 0.125
            },
            {
              "pitch": 69,
              "velocity": 15,
              "position": 10.75,
              "duration": 0.125
            },
            {
              "pitch": 63,
              "velocity": 78,
              "position": 10.75,
              "duration": 0.125
            },
            {
              "pitch": 69,
              "velocity": 84,
              "position": 11,
              "duration": 0.125
            },
            {
              "pitch": 62,
              "velocity": 91,
              "position": 11,
              "duration": 0.125
            },
            {
              "pitch": 69,
              "velocity": 15,
              "position": 11.25,
              "duration": 0.125
            },
            {
              "pitch": 63,
              "velocity": 78,
              "position": 11.25,
              "duration": 0.125
            },
            {
              "pitch": 54,
              "velocity": 67,
              "position": 11.5,
              "duration": 0.125
            },
            {
              "pitch": 69,
              "velocity": 32,
              "position": 11.5,
              "duration": 0.125
            },
            {
              "pitch": 81,
              "velocity": 21,
              "position": 11.5,
              "duration": 0.125
            },
            {
              "pitch": 64,
              "velocity": 85,
              "position": 11.5,
              "duration": 0.125
            },
            {
              "pitch": 69,
              "velocity": 15,
              "position": 11.75,
              "duration": 0.125
            },
            {
              "pitch": 63,
              "velocity": 78,
              "position": 11.75,
              "duration": 0.125
            },
            {
              "pitch": 69,
              "velocity": 84,
              "position": 12,
              "duration": 0.125
            },
            {
              "pitch": 63,
              "velocity": 78,
              "position": 12,
              "duration": 0.125
            },
            {
              "pitch": 69,
              "velocity": 15,
              "position": 12.25,
              "duration": 0.125
            },
            {
              "pitch": 54,
              "velocity": 92,
              "position": 12.5,
              "duration": 0.125
            },
            {
              "pitch": 69,
              "velocity": 32,
              "position": 12.5,
              "duration": 0.125
            },
            {
              "pitch": 81,
              "velocity": 21,
              "position": 12.5,
              "duration": 0.125
            },
            {
              "pitch": 63,
              "velocity": 22,
              "position": 12.5,
              "duration": 0.125
            },
            {
              "pitch": 69,
              "velocity": 15,
              "position": 12.75,
              "duration": 0.125
            },
            {
              "pitch": 63,
              "velocity": 73,
              "position": 12.75,
              "duration": 0.125
            },
            {
              "pitch": 69,
              "velocity": 84,
              "position": 13,
              "duration": 0.125
            },
            {
              "pitch": 62,
              "velocity": 91,
              "position": 13,
              "duration": 0.125
            },
            {
              "pitch": 69,
              "velocity": 15,
              "position": 13.25,
              "duration": 0.125
            },
            {
              "pitch": 63,
              "velocity": 22,
              "position": 13.25,
              "duration": 0.125
            },
            {
              "pitch": 54,
              "velocity": 67,
              "position": 13.5,
              "duration": 0.125
            },
            {
              "pitch": 69,
              "velocity": 32,
              "position": 13.5,
              "duration": 0.125
            },
            {
              "pitch": 81,
              "velocity": 21,
              "position": 13.5,
              "duration": 0.125
            },
            {
              "pitch": 63,
              "velocity": 73,
              "position": 13.5,
              "duration": 0.125
            },
            {
              "pitch": 69,
              "velocity": 15,
              "position": 13.75,
              "duration": 0.125
            },
            {
              "pitch": 63,
              "velocity": 78,
              "position": 13.75,
              "duration": 0.125
            },
            {
              "pitch": 69,
              "velocity": 84,
              "position": 14,
              "duration": 0.125
            },
            {
              "pitch": 69,
              "velocity": 15,
              "position": 14.25,
              "duration": 0.125
            },
            {
              "pitch": 63,
              "velocity": 78,
              "position": 14.25,
              "duration": 0.125
            },
            {
              "pitch": 54,
              "velocity": 92,
              "position": 14.5,
              "duration": 0.125
            },
            {
              "pitch": 69,
              "velocity": 32,
              "position": 14.5,
              "duration": 0.125
            },
            {
              "pitch": 81,
              "velocity": 21,
              "position": 14.5,
              "duration": 0.125
            },
            {
              "pitch": 69,
              "velocity": 15,
              "position": 14.75,
              "duration": 0.125
            },
            {
              "pitch": 63,
              "velocity": 78,
              "position": 14.75,
              "duration": 0.125
            },
            {
              "pitch": 69,
              "velocity": 84,
              "position": 15,
              "duration": 0.125
            },
            {
              "pitch": 62,
              "velocity": 91,
              "position": 15,
              "duration": 0.125
            },
            {
              "pitch": 69,
              "velocity": 15,
              "position": 15.25,
              "duration": 0.125
            },
            {
              "pitch": 63,
              "velocity": 78,
              "position": 15.25,
              "duration": 0.125
            },
            {
              "pitch": 54,
              "velocity": 67,
              "position": 15.5,
              "duration": 0.125
            },
            {
              "pitch": 69,
              "velocity": 32,
              "position": 15.5,
              "duration": 0.125
            },
            {
              "pitch": 81,
              "velocity": 21,
              "position": 15.5,
              "duration": 0.125
            },
            {
              "pitch": 64,
              "velocity": 85,
              "position": 15.5,
              "duration": 0.125
            },
            {
              "pitch": 69,
              "velocity": 15,
              "position": 15.75,
              "duration": 0.125
            },
            {
              "pitch": 63,
              "velocity": 78,
              "position": 15.75,
              "duration": 0.125
            },
            {
              "pitch": 69,
              "velocity": 84,
              "position": 16,
              "duration": 0.125
            },
            {
              "pitch": 63,
              "velocity": 78,
              "position": 16,
              "duration": 0.125
            },
            {
              "pitch": 69,
              "velocity": 15,
              "position": 16.25,
              "duration": 0.125
            },
            {
              "pitch": 54,
              "velocity": 92,
              "position": 16.5,
              "duration": 0.125
            },
            {
              "pitch": 69,
              "velocity": 32,
              "position": 16.5,
              "duration": 0.125
            },
            {
              "pitch": 81,
              "velocity": 21,
              "position": 16.5,
              "duration": 0.125
            },
            {
              "pitch": 63,
              "velocity": 22,
              "position": 16.5,
              "duration": 0.125
            },
            {
              "pitch": 69,
              "velocity": 15,
              "position": 16.75,
              "duration": 0.125
            },
            {
              "pitch": 63,
              "velocity": 73,
              "position": 16.75,
              "duration": 0.125
            },
            {
              "pitch": 69,
              "velocity": 84,
              "position": 17,
              "duration": 0.125
            },
            {
              "pitch": 62,
              "velocity": 91,
              "position": 17,
              "duration": 0.125
            },
            {
              "pitch": 69,
              "velocity": 15,
              "position": 17.25,
              "duration": 0.125
            },
            {
              "pitch": 63,
              "velocity": 22,
              "position": 17.25,
              "duration": 0.125
            },
            {
              "pitch": 54,
              "velocity": 67,
              "position": 17.5,
              "duration": 0.125
            },
            {
              "pitch": 69,
              "velocity": 32,
              "position": 17.5,
              "duration": 0.125
            },
            {
              "pitch": 81,
              "velocity": 21,
              "position": 17.5,
              "duration": 0.125
            },
            {
              "pitch": 63,
              "velocity": 73,
              "position": 17.5,
              "duration": 0.125
            },
            {
              "pitch": 69,
              "velocity": 15,
              "position": 17.75,
              "duration": 0.125
            },
            {
              "pitch": 63,
              "velocity": 78,
              "position": 17.75,
              "duration": 0.125
            },
            {
              "pitch": 69,
              "velocity": 84,
              "position": 18,
              "duration": 0.125
            },
            {
              "pitch": 69,
              "velocity": 15,
              "position": 18.25,
              "duration": 0.125
            },
            {
              "pitch": 63,
              "velocity": 78,
              "position": 18.25,
              "duration": 0.125
            },
            {
              "pitch": 54,
              "velocity": 92,
              "position": 18.5,
              "duration": 0.125
            },
            {
              "pitch": 69,
              "velocity": 32,
              "position": 18.5,
              "duration": 0.125
            },
            {
              "pitch": 81,
              "velocity": 21,
              "position": 18.5,
              "duration": 0.125
            },
            {
              "pitch": 69,
              "velocity": 15,
              "position": 18.75,
              "duration": 0.125
            },
            {
              "pitch": 63,
              "velocity": 78,
              "position": 18.75,
              "duration": 0.125
            },
            {
              "pitch": 69,
              "velocity": 84,
              "position": 19,
              "duration": 0.125
            },
            {
              "pitch": 62,
              "velocity": 91,
              "position": 19,
              "duration": 0.125
            },
            {
              "pitch": 69,
              "velocity": 15,
              "position": 19.25,
              "duration": 0.125
            },
            {
              "pitch": 63,
              "velocity": 78,
              "position": 19.25,
              "duration": 0.125
            },
            {
              "pitch": 54,
              "velocity": 67,
              "position": 19.5,
              "duration": 0.125
            },
            {
              "pitch": 69,
              "velocity": 32,
              "position": 19.5,
              "duration": 0.125
            },
            {
              "pitch": 81,
              "velocity": 21,
              "position": 19.5,
              "duration": 0.125
            },
            {
              "pitch": 64,
              "velocity": 85,
              "position": 19.5,
              "duration": 0.125
            },
            {
              "pitch": 69,
              "velocity": 15,
              "position": 19.75,
              "duration": 0.125
            },
            {
              "pitch": 63,
              "velocity": 78,
              "position": 19.75,
              "duration": 0.125
            },
            {
              "pitch": 69,
              "velocity": 84,
              "position": 20,
              "duration": 0.125
            },
            {
              "pitch": 63,
              "velocity": 78,
              "position": 20,
              "duration": 0.125
            },
            {
              "pitch": 69,
              "velocity": 15,
              "position": 20.25,
              "duration": 0.125
            },
            {
              "pitch": 54,
              "velocity": 92,
              "position": 20.5,
              "duration": 0.125
            },
            {
              "pitch": 69,
              "velocity": 32,
              "position": 20.5,
              "duration": 0.125
            },
            {
              "pitch": 81,
              "velocity": 21,
              "position": 20.5,
              "duration": 0.125
            },
            {
              "pitch": 63,
              "velocity": 22,
              "position": 20.5,
              "duration": 0.125
            },
            {
              "pitch": 69,
              "velocity": 15,
              "position": 20.75,
              "duration": 0.125
            },
            {
              "pitch": 63,
              "velocity": 73,
              "position": 20.75,
              "duration": 0.125
            },
            {
              "pitch": 69,
              "velocity": 84,
              "position": 21,
              "duration": 0.125
            },
            {
              "pitch": 62,
              "velocity": 91,
              "position": 21,
              "duration": 0.125
            },
            {
              "pitch": 69,
              "velocity": 15,
              "position": 21.25,
              "duration": 0.125
            },
            {
              "pitch": 63,
              "velocity": 22,
              "position": 21.25,
              "duration": 0.125
            },
            {
              "pitch": 54,
              "velocity": 67,
              "position": 21.5,
              "duration": 0.125
            },
            {
              "pitch": 69,
              "velocity": 32,
              "position": 21.5,
              "duration": 0.125
            },
            {
              "pitch": 81,
              "velocity": 21,
              "position": 21.5,
              "duration": 0.125
            },
            {
              "pitch": 63,
              "velocity": 73,
              "position": 21.5,
              "duration": 0.125
            },
            {
              "pitch": 69,
              "velocity": 15,
              "position": 21.75,
              "duration": 0.125
            },
            {
              "pitch": 63,
              "velocity": 78,
              "position": 21.75,
              "duration": 0.125
            },
            {
              "pitch": 69,
              "velocity": 84,
              "position": 22,
              "duration": 0.125
            },
            {
              "pitch": 69,
              "velocity": 15,
              "position": 22.25,
              "duration": 0.125
            },
            {
              "pitch": 63,
              "velocity": 78,
              "position": 22.25,
              "duration": 0.125
            },
            {
              "pitch": 54,
              "velocity": 92,
              "position": 22.5,
              "duration": 0.125
            },
            {
              "pitch": 69,
              "velocity": 32,
              "position": 22.5,
              "duration": 0.125
            },
            {
              "pitch": 81,
              "velocity": 21,
              "position": 22.5,
              "duration": 0.125
            },
            {
              "pitch": 69,
              "velocity": 15,
              "position": 22.75,
              "duration": 0.125
            },
            {
              "pitch": 63,
              "velocity": 78,
              "position": 22.75,
              "duration": 0.125
            },
            {
              "pitch": 69,
              "velocity": 84,
              "position": 23,
              "duration": 0.125
            },
            {
              "pitch": 62,
              "velocity": 91,
              "position": 23,
              "duration": 0.125
            },
            {
              "pitch": 69,
              "velocity": 15,
              "position": 23.25,
              "duration": 0.125
            },
            {
              "pitch": 63,
              "velocity": 78,
              "position": 23.25,
              "duration": 0.125
            },
            {
              "pitch": 54,
              "velocity": 67,
              "position": 23.5,
              "duration": 0.125
            },
            {
              "pitch": 69,
              "velocity": 32,
              "position": 23.5,
              "duration": 0.125
            },
            {
              "pitch": 81,
              "velocity": 21,
              "position": 23.5,
              "duration": 0.125
            },
            {
              "pitch": 64,
              "velocity": 85,
              "position": 23.5,
              "duration": 0.125
            },
            {
              "pitch": 69,
              "velocity": 15,
              "position": 23.75,
              "duration": 0.125
            },
            {
              "pitch": 63,
              "velocity": 78,
              "position": 23.75,
              "duration": 0.125
            },
            {
              "pitch": 69,
              "velocity": 84,
              "position": 24,
              "duration": 0.125
            },
            {
              "pitch": 63,
              "velocity": 78,
              "position": 24,
              "duration": 0.125
            },
            {
              "pitch": 69,
              "velocity": 15,
              "position": 24.25,
              "duration": 0.125
            },
            {
              "pitch": 54,
              "velocity": 92,
              "position": 24.5,
              "duration": 0.125
            },
            {
              "pitch": 69,
              "velocity": 32,
              "position": 24.5,
              "duration": 0.125
            },
            {
              "pitch": 81,
              "velocity": 21,
              "position": 24.5,
              "duration": 0.125
            },
            {
              "pitch": 63,
              "velocity": 22,
              "position": 24.5,
              "duration": 0.125
            },
            {
              "pitch": 69,
              "velocity": 15,
              "position": 24.75,
              "duration": 0.125
            },
            {
              "pitch": 63,
              "velocity": 73,
              "position": 24.75,
              "duration": 0.125
            },
            {
              "pitch": 69,
              "velocity": 84,
              "position": 25,
              "duration": 0.125
            },
            {
              "pitch": 62,
              "velocity": 91,
              "position": 25,
              "duration": 0.125
            },
            {
              "pitch": 69,
              "velocity": 15,
              "position": 25.25,
              "duration": 0.125
            },
            {
              "pitch": 63,
              "velocity": 22,
              "position": 25.25,
              "duration": 0.125
            },
            {
              "pitch": 54,
              "velocity": 67,
              "position": 25.5,
              "duration": 0.125
            },
            {
              "pitch": 69,
              "velocity": 32,
              "position": 25.5,
              "duration": 0.125
            },
            {
              "pitch": 81,
              "velocity": 21,
              "position": 25.5,
              "duration": 0.125
            },
            {
              "pitch": 63,
              "velocity": 73,
              "position": 25.5,
              "duration": 0.125
            },
            {
              "pitch": 69,
              "velocity": 15,
              "position": 25.75,
              "duration": 0.125
            },
            {
              "pitch": 63,
              "velocity": 78,
              "position": 25.75,
              "duration": 0.125
            },
            {
              "pitch": 69,
              "velocity": 84,
              "position": 26,
              "duration": 0.125
            },
            {
              "pitch": 69,
              "velocity": 15,
              "position": 26.25,
              "duration": 0.125
            },
            {
              "pitch": 63,
              "velocity": 78,
              "position": 26.25,
              "duration": 0.125
            },
            {
              "pitch": 54,
              "velocity": 92,
              "position": 26.5,
              "duration": 0.125
            },
            {
              "pitch": 69,
              "velocity": 32,
              "position": 26.5,
              "duration": 0.125
            },
            {
              "pitch": 81,
              "velocity": 21,
              "position": 26.5,
              "duration": 0.125
            },
            {
              "pitch": 69,
              "velocity": 15,
              "position": 26.75,
              "duration": 0.125
            },
            {
              "pitch": 63,
              "velocity": 78,
              "position": 26.75,
              "duration": 0.125
            },
            {
              "pitch": 69,
              "velocity": 84,
              "position": 27,
              "duration": 0.125
            },
            {
              "pitch": 62,
              "velocity": 91,
              "position": 27,
              "duration": 0.125
            },
            {
              "pitch": 69,
              "velocity": 15,
              "position": 27.25,
              "duration": 0.125
            },
            {
              "pitch": 63,
              "velocity": 78,
              "position": 27.25,
              "duration": 0.125
            },
            {
              "pitch": 54,
              "velocity": 67,
              "position": 27.5,
              "duration": 0.125
            },
            {
              "pitch": 69,
              "velocity": 32,
              "position": 27.5,
              "duration": 0.125
            },
            {
              "pitch": 81,
              "velocity": 21,
              "position": 27.5,
              "duration": 0.125
            },
            {
              "pitch": 64,
              "velocity": 85,
              "position": 27.5,
              "duration": 0.125
            },
            {
              "pitch": 69,
              "velocity": 15,
              "position": 27.75,
              "duration": 0.125
            },
            {
              "pitch": 63,
              "velocity": 78,
              "position": 27.75,
              "duration": 0.125
            },
            {
              "pitch": 69,
              "velocity": 84,
              "position": 28,
              "duration": 0.125
            },
            {
              "pitch": 63,
              "velocity": 78,
              "position": 28,
              "duration": 0.125
            },
            {
              "pitch": 69,
              "velocity": 15,
              "position": 28.25,
              "duration": 0.125
            },
            {
              "pitch": 54,
              "velocity": 92,
              "position": 28.5,
              "duration": 0.125
            },
            {
              "pitch": 69,
              "velocity": 32,
              "position": 28.5,
              "duration": 0.125
            },
            {
              "pitch": 81,
              "velocity": 21,
              "position": 28.5,
              "duration": 0.125
            },
            {
              "pitch": 63,
              "velocity": 22,
              "position": 28.5,
              "duration": 0.125
            },
            {
              "pitch": 69,
              "velocity": 15,
              "position": 28.75,
              "duration": 0.125
            },
            {
              "pitch": 63,
              "velocity": 73,
              "position": 28.75,
              "duration": 0.125
            },
            {
              "pitch": 69,
              "velocity": 84,
              "position": 29,
              "duration": 0.125
            },
            {
              "pitch": 62,
              "velocity": 91,
              "position": 29,
              "duration": 0.125
            },
            {
              "pitch": 69,
              "velocity": 15,
              "position": 29.25,
              "duration": 0.125
            },
            {
              "pitch": 63,
              "velocity": 22,
              "position": 29.25,
              "duration": 0.125
            },
            {
              "pitch": 54,
              "velocity": 67,
              "position": 29.5,
              "duration": 0.125
            },
            {
              "pitch": 69,
              "velocity": 32,
              "position": 29.5,
              "duration": 0.125
            },
            {
              "pitch": 81,
              "velocity": 21,
              "position": 29.5,
              "duration": 0.125
            },
            {
              "pitch": 63,
              "velocity": 73,
              "position": 29.5,
              "duration": 0.125
            },
            {
              "pitch": 69,
              "velocity": 15,
              "position": 29.75,
              "duration": 0.125
            },
            {
              "pitch": 63,
              "velocity": 78,
              "position": 29.75,
              "duration": 0.125
            },
            {
              "pitch": 69,
              "velocity": 84,
              "position": 30,
              "duration": 0.125
            },
            {
              "pitch": 69,
              "velocity": 15,
              "position": 30.25,
              "duration": 0.125
            },
            {
              "pitch": 63,
              "velocity": 78,
              "position": 30.25,
              "duration": 0.125
            },
            {
              "pitch": 54,
              "velocity": 92,
              "position": 30.5,
              "duration": 0.125
            },
            {
              "pitch": 69,
              "velocity": 32,
              "position": 30.5,
              "duration": 0.125
            },
            {
              "pitch": 81,
              "velocity": 21,
              "position": 30.5,
              "duration": 0.125
            },
            {
              "pitch": 69,
              "velocity": 15,
              "position": 30.75,
              "duration": 0.125
            },
            {
              "pitch": 63,
              "velocity": 78,
              "position": 30.75,
              "duration": 0.125
            },
            {
              "pitch": 69,
              "velocity": 84,
              "position": 31,
              "duration": 0.125
            },
            {
              "pitch": 62,
              "velocity": 91,
              "position": 31,
              "duration": 0.125
            },
            {
              "pitch": 69,
              "velocity": 15,
              "position": 31.25,
              "duration": 0.125
            },
            {
              "pitch": 63,
              "velocity": 78,
              "position": 31.25,
              "duration": 0.125
            },
            {
              "pitch": 54,
              "velocity": 67,
              "position": 31.5,
              "duration": 0.125
            },
            {
              "pitch": 69,
              "velocity": 32,
              "position": 31.5,
              "duration": 0.125
            },
            {
              "pitch": 81,
              "velocity": 21,
              "position": 31.5,
              "duration": 0.125
            },
            {
              "pitch": 64,
              "velocity": 85,
              "position": 31.5,
              "duration": 0.125
            },
            {
              "pitch": 69,
              "velocity": 15,
              "position": 31.75,
              "duration": 0.125
            },
            {
              "pitch": 63,
              "velocity": 78,
              "position": 31.75,
              "duration": 0.125
            }
          ]
        },
        "12": {
          "ctab": {
            "srcChannel": 12,
            "name": "Fretless",
            "accType": "BASS",
            "editable": false,
            "mutedNotes": [],
            "mutedChords": [
              "dim7",
              "dim",
              "minMaj7(9)",
              "minMaj7",
              "min7(11)",
              "min7(9)",
              "min(9)",
              "m7b5",
              "min7",
              "min6",
              "min"
            ],
            "autoStart": false,
            "sourceChordNote": 0,
            "sourceChordType": "Maj7",
            "ctb2Low": null,
            "ctb2Main": {
              "ntr": "ROOT_TRANSPOSITION",
              "ntt": "MELODY",
              "bassOn": true,
              "chordRootUpperLimit": 3,
              "noteLowLimit": 28,
              "noteHighLimit": 54,
              "rtr": "PITCH_SHIFT_TO_ROOT"
            },
            "ctb2High": null
          },
          "notes": [
            {
              "pitch": 36,
              "velocity": 106,
              "position": 0,
              "duration": 1.6041666666666667
            },
            {
              "pitch": 36,
              "velocity": 91,
              "position": 1.75,
              "duration": 0.0625
            },
            {
              "pitch": 36,
              "velocity": 106,
              "position": 2,
              "duration": 1.4375
            },
            {
              "pitch": 31,
              "velocity": 106,
              "position": 3.5,
              "duration": 0.4166666666666667
            },
            {
              "pitch": 36,
              "velocity": 106,
              "position": 4,
              "duration": 1.6666666666666667
            },
            {
              "pitch": 31,
              "velocity": 91,
              "position": 5.75,
              "duration": 0.10416666666666667
            },
            {
              "pitch": 36,
              "velocity": 106,
              "position": 6,
              "duration": 0.9791666666666666
            },
            {
              "pitch": 43,
              "velocity": 106,
              "position": 7,
              "duration": 0.9583333333333334
            },
            {
              "pitch": 36,
              "velocity": 106,
              "position": 8,
              "duration": 1.6041666666666667
            },
            {
              "pitch": 36,
              "velocity": 91,
              "position": 9.75,
              "duration": 0.0625
            },
            {
              "pitch": 36,
              "velocity": 106,
              "position": 10,
              "duration": 1.4375
            },
            {
              "pitch": 31,
              "velocity": 106,
              "position": 11.5,
              "duration": 0.4166666666666667
            },
            {
              "pitch": 36,
              "velocity": 106,
              "position": 12,
              "duration": 1.7291666666666667
            },
            {
              "pitch": 43,
              "velocity": 56,
              "position": 13.75,
              "duration": 0.0625
            },
            {
              "pitch": 48,
              "velocity": 106,
              "position": 14,
              "duration": 0.9583333333333334
            },
            {
              "pitch": 45,
              "velocity": 101,
              "position": 15,
              "duration": 0.4583333333333333
            },
            {
              "pitch": 43,
              "velocity": 106,
              "position": 15.5,
              "duration": 0.4583333333333333
            },
            {
              "pitch": 36,
              "velocity": 106,
              "position": 16,
              "duration": 1.6041666666666667
            },
            {
              "pitch": 36,
              "velocity": 91,
              "position": 17.75,
              "duration": 0.0625
            },
            {
              "pitch": 36,
              "velocity": 106,
              "position": 18,
              "duration": 1.4375
            },
            {
              "pitch": 31,
              "velocity": 106,
              "position": 19.5,
              "duration": 0.4166666666666667
            },
            {
              "pitch": 36,
              "velocity": 106,
              "position": 20,
              "duration": 1.2291666666666667
            },
            {
              "pitch": 43,
              "velocity": 91,
              "position": 21.25,
              "duration": 0.16666666666666666
            },
            {
              "pitch": 48,
              "velocity": 96,
              "position": 21.5,
              "duration": 0.22916666666666666
            },
            {
              "pitch": 43,
              "velocity": 91,
              "position": 21.75,
              "duration": 0.1875
            },
            {
              "pitch": 36,
              "velocity": 106,
              "position": 22,
              "duration": 0.3958333333333333
            },
            {
              "pitch": 36,
              "velocity": 91,
              "position": 22.5,
              "duration": 0.4583333333333333
            },
            {
              "pitch": 31,
              "velocity": 106,
              "position": 23,
              "duration": 0.5
            },
            {
              "pitch": 33,
              "velocity": 91,
              "position": 23.5,
              "duration": 0.22916666666666666
            },
            {
              "pitch": 31,
              "velocity": 91,
              "position": 23.75,
              "duration": 0.20833333333333334
            },
            {
              "pitch": 36,
              "velocity": 106,
              "position": 24,
              "duration": 1.6041666666666667
            },
            {
              "pitch": 36,
              "velocity": 91,
              "position": 25.75,
              "duration": 0.0625
            },
            {
              "pitch": 36,
              "velocity": 106,
              "position": 26,
              "duration": 1.4375
            },
            {
              "pitch": 31,
              "velocity": 106,
              "position": 27.5,
              "duration": 0.4166666666666667
            },
            {
              "pitch": 36,
              "velocity": 106,
              "position": 28,
              "duration": 1.6666666666666667
            },
            {
              "pitch": 36,
              "velocity": 56,
              "position": 29.75,
              "duration": 0.0625
            },
            {
              "pitch": 36,
              "velocity": 106,
              "position": 30,
              "duration": 0.4583333333333333
            },
            {
              "pitch": 43,
              "velocity": 91,
              "position": 30.5,
              "duration": 0.4583333333333333
            },
            {
              "pitch": 31,
              "velocity": 106,
              "position": 31,
              "duration": 0.20833333333333334
            },
            {
              "pitch": 33,
              "velocity": 106,
              "position": 31.25,
              "duration": 0.20833333333333334
            },
            {
              "pitch": 36,
              "velocity": 106,
              "position": 31.5,
              "duration": 0.20833333333333334
            },
            {
              "pitch": 38,
              "velocity": 106,
              "position": 31.75,
              "duration": 0.20833333333333334
            }
          ]
        },
        "13": {
          "ctab": {
            "srcChannel": 13,
            "name": "Fretless",
            "accType": "BASS",
            "editable": false,
            "mutedNotes": [],
            "mutedChords": [
              "1+2+5",
              "sus4",
              "1+5",
              "1+8",
              "7aug",
              "Maj7aug",
              "7(#9)",
              "7(b13)",
              "7(b9)",
              "7(13)",
              "7#11",
              "7(9)",
              "7b5",
              "7sus4",
              "7th",
              "aug",
              "Maj6(9)",
              "Maj7(9)",
              "Maj(9)",
              "Maj7#11",
              "Maj7",
              "Maj6",
              "Maj"
            ],
            "autoStart": false,
            "sourceChordNote": 0,
            "sourceChordType": "Maj7",
            "ctb2Low": null,
            "ctb2Main": {
              "ntr": "ROOT_TRANSPOSITION",
              "ntt": "MELODY",
              "bassOn": true,
              "chordRootUpperLimit": 3,
              "noteLowLimit": 28,
              "noteHighLimit": 54,
              "rtr": "PITCH_SHIFT_TO_ROOT"
            },
            "ctb2High": null
          },
          "notes": [
            {
              "pitch": 36,
              "velocity": 106,
              "position": 0,
              "duration": 1.6041666666666667
            },
            {
              "pitch": 36,
              "velocity": 91,
              "position": 1.75,
              "duration": 0.0625
            },
            {
              "pitch": 36,
              "velocity": 106,
              "position": 2,
              "duration": 1.4375
            },
            {
              "pitch": 31,
              "velocity": 106,
              "position": 3.5,
              "duration": 0.4166666666666667
            },
            {
              "pitch": 36,
              "velocity": 106,
              "position": 4,
              "duration": 1.6666666666666667
            },
            {
              "pitch": 31,
              "velocity": 91,
              "position": 5.75,
              "duration": 0.10416666666666667
            },
            {
              "pitch": 36,
              "velocity": 106,
              "position": 6,
              "duration": 0.9791666666666666
            },
            {
              "pitch": 43,
              "velocity": 106,
              "position": 7,
              "duration": 0.9583333333333334
            },
            {
              "pitch": 36,
              "velocity": 106,
              "position": 8,
              "duration": 1.6041666666666667
            },
            {
              "pitch": 36,
              "velocity": 91,
              "position": 9.75,
              "duration": 0.0625
            },
            {
              "pitch": 36,
              "velocity": 106,
              "position": 10,
              "duration": 1.4375
            },
            {
              "pitch": 31,
              "velocity": 106,
              "position": 11.5,
              "duration": 0.4166666666666667
            },
            {
              "pitch": 36,
              "velocity": 106,
              "position": 12,
              "duration": 1.7291666666666667
            },
            {
              "pitch": 43,
              "velocity": 56,
              "position": 13.75,
              "duration": 0.0625
            },
            {
              "pitch": 48,
              "velocity": 106,
              "position": 14,
              "duration": 0.9583333333333334
            },
            {
              "pitch": 43,
              "velocity": 101,
              "position": 15,
              "duration": 0.4583333333333333
            },
            {
              "pitch": 39,
              "velocity": 106,
              "position": 15.5,
              "duration": 0.4583333333333333
            },
            {
              "pitch": 36,
              "velocity": 106,
              "position": 16,
              "duration": 1.6041666666666667
            },
            {
              "pitch": 36,
              "velocity": 91,
              "position": 17.75,
              "duration": 0.0625
            },
            {
              "pitch": 36,
              "velocity": 106,
              "position": 18,
              "duration": 1.4375
            },
            {
              "pitch": 31,
              "velocity": 106,
              "position": 19.5,
              "duration": 0.4166666666666667
            },
            {
              "pitch": 36,
              "velocity": 106,
              "position": 20,
              "duration": 1.2291666666666667
            },
            {
              "pitch": 43,
              "velocity": 91,
              "position": 21.25,
              "duration": 0.16666666666666666
            },
            {
              "pitch": 48,
              "velocity": 96,
              "position": 21.5,
              "duration": 0.22916666666666666
            },
            {
              "pitch": 43,
              "velocity": 91,
              "position": 21.75,
              "duration": 0.1875
            },
            {
              "pitch": 36,
              "velocity": 106,
              "position": 22,
              "duration": 0.3958333333333333
            },
            {
              "pitch": 36,
              "velocity": 91,
              "position": 22.5,
              "duration": 0.4583333333333333
            },
            {
              "pitch": 31,
              "velocity": 106,
              "position": 23,
              "duration": 0.5
            },
            {
              "pitch": 39,
              "velocity": 91,
              "position": 23.5,
              "duration": 0.22916666666666666
            },
            {
              "pitch": 31,
              "velocity": 91,
              "position": 23.75,
              "duration": 0.20833333333333334
            },
            {
              "pitch": 36,
              "velocity": 106,
              "position": 24,
              "duration": 1.6041666666666667
            },
            {
              "pitch": 36,
              "velocity": 91,
              "position": 25.75,
              "duration": 0.0625
            },
            {
              "pitch": 36,
              "velocity": 106,
              "position": 26,
              "duration": 1.4375
            },
            {
              "pitch": 31,
              "velocity": 106,
              "position": 27.5,
              "duration": 0.4166666666666667
            },
            {
              "pitch": 36,
              "velocity": 106,
              "position": 28,
              "duration": 1.6666666666666667
            },
            {
              "pitch": 36,
              "velocity": 56,
              "position": 29.75,
              "duration": 0.0625
            },
            {
              "pitch": 36,
              "velocity": 106,
              "position": 30,
              "duration": 0.4583333333333333
            },
            {
              "pitch": 43,
              "velocity": 91,
              "position": 30.5,
              "duration": 0.4583333333333333
            },
            {
              "pitch": 31,
              "velocity": 106,
              "position": 31,
              "duration": 0.20833333333333334
            },
            {
              "pitch": 36,
              "velocity": 106,
              "position": 31.25,
              "duration": 0.20833333333333334
            },
            {
              "pitch": 39,
              "velocity": 106,
              "position": 31.5,
              "duration": 0.20833333333333334
            },
            {
              "pitch": 31,
              "velocity": 106,
              "position": 31.75,
              "duration": 0.20833333333333334
            }
          ]
        },
        "15": {
          "ctab": {
            "srcChannel": 15,
            "name": "SteelGtr",
            "accType": "CHORD1",
            "editable": false,
            "mutedNotes": [],
            "mutedChords": [
              "7aug",
              "Maj7aug",
              "7(#9)",
              "7(b13)",
              "7(b9)",
              "7(13)",
              "7#11",
              "7(9)",
              "7b5",
              "7sus4",
              "7th",
              "dim7",
              "dim",
              "minMaj7(9)",
              "minMaj7",
              "min7(11)",
              "min7(9)",
              "min(9)",
              "m7b5",
              "min7",
              "min6",
              "min"
            ],
            "autoStart": false,
            "sourceChordNote": 0,
            "sourceChordType": "Maj7",
            "ctb2Low": null,
            "ctb2Main": {
              "ntr": "ROOT_TRANSPOSITION",
              "ntt": "CHORD",
              "bassOn": false,
              "chordRootUpperLimit": 6,
              "noteLowLimit": 0,
              "noteHighLimit": 127,
              "rtr": "PITCH_SHIFT"
            },
            "ctb2High": null
          },
          "notes": [
            {
              "pitch": 64,
              "velocity": 98,
              "position": 0,
              "duration": 0.9375
            },
            {
              "pitch": 67,
              "velocity": 98,
              "position": 0.020833333333333332,
              "duration": 0.9375
            },
            {
              "pitch": 59,
              "velocity": 98,
              "position": 0,
              "duration": 0.9895833333333334
            },
            {
              "pitch": 55,
              "velocity": 97,
              "position": 0,
              "duration": 1.4166666666666667
            },
            {
              "pitch": 59,
              "velocity": 92,
              "position": 1,
              "duration": 0.9375
            },
            {
              "pitch": 64,
              "velocity": 92,
              "position": 1,
              "duration": 0.9583333333333334
            },
            {
              "pitch": 55,
              "velocity": 92,
              "position": 1.5,
              "duration": 0.4583333333333333
            },
            {
              "pitch": 67,
              "velocity": 92,
              "position": 0.9791666666666666,
              "duration": 1.0104166666666667
            },
            {
              "pitch": 67,
              "velocity": 98,
              "position": 2,
              "duration": 0.9375
            },
            {
              "pitch": 64,
              "velocity": 98,
              "position": 2,
              "duration": 0.9583333333333334
            },
            {
              "pitch": 59,
              "velocity": 98,
              "position": 1.9791666666666667,
              "duration": 1.0104166666666667
            },
            {
              "pitch": 55,
              "velocity": 97,
              "position": 2,
              "duration": 1.4583333333333333
            },
            {
              "pitch": 59,
              "velocity": 92,
              "position": 3,
              "duration": 0.9375
            },
            {
              "pitch": 64,
              "velocity": 92,
              "position": 3,
              "duration": 0.9583333333333334
            },
            {
              "pitch": 55,
              "velocity": 92,
              "position": 3.5,
              "duration": 0.4791666666666667
            },
            {
              "pitch": 67,
              "velocity": 92,
              "position": 2.9791666666666665,
              "duration": 1.0104166666666667
            },
            {
              "pitch": 67,
              "velocity": 98,
              "position": 4,
              "duration": 0.9375
            },
            {
              "pitch": 64,
              "velocity": 98,
              "position": 4,
              "duration": 0.9583333333333334
            },
            {
              "pitch": 59,
              "velocity": 98,
              "position": 3.9791666666666665,
              "duration": 1
            },
            {
              "pitch": 55,
              "velocity": 97,
              "position": 4,
              "duration": 1.4583333333333333
            },
            {
              "pitch": 59,
              "velocity": 92,
              "position": 5,
              "duration": 0.9375
            },
            {
              "pitch": 64,
              "velocity": 92,
              "position": 5,
              "duration": 0.9583333333333334
            },
            {
              "pitch": 55,
              "velocity": 92,
              "position": 5.5,
              "duration": 0.4583333333333333
            },
            {
              "pitch": 67,
              "velocity": 92,
              "position": 4.979166666666667,
              "duration": 1.0104166666666667
            },
            {
              "pitch": 55,
              "velocity": 97,
              "position": 6,
              "duration": 0.4375
            },
            {
              "pitch": 59,
              "velocity": 98,
              "position": 5.979166666666667,
              "duration": 1.0208333333333333
            },
            {
              "pitch": 57,
              "velocity": 99,
              "position": 7,
              "duration": 0.22916666666666666
            },
            {
              "pitch": 67,
              "velocity": 98,
              "position": 6,
              "duration": 1.4375
            },
            {
              "pitch": 55,
              "velocity": 54,
              "position": 6.5,
              "duration": 1.4791666666666667
            },
            {
              "pitch": 59,
              "velocity": 98,
              "position": 7.25,
              "duration": 0.7291666666666666
            },
            {
              "pitch": 64,
              "velocity": 98,
              "position": 6,
              "duration": 1.9895833333333333
            },
            {
              "pitch": 67,
              "velocity": 96,
              "position": 7.5,
              "duration": 0.5
            },
            {
              "pitch": 64,
              "velocity": 98,
              "position": 8,
              "duration": 0.9375
            },
            {
              "pitch": 67,
              "velocity": 98,
              "position": 8.020833333333334,
              "duration": 0.9375
            },
            {
              "pitch": 59,
              "velocity": 98,
              "position": 8,
              "duration": 0.9895833333333334
            },
            {
              "pitch": 55,
              "velocity": 97,
              "position": 8,
              "duration": 1.4166666666666667
            },
            {
              "pitch": 59,
              "velocity": 92,
              "position": 9,
              "duration": 0.9375
            },
            {
              "pitch": 64,
              "velocity": 92,
              "position": 9,
              "duration": 0.9583333333333334
            },
            {
              "pitch": 55,
              "velocity": 92,
              "position": 9.5,
              "duration": 0.4583333333333333
            },
            {
              "pitch": 67,
              "velocity": 92,
              "position": 8.979166666666666,
              "duration": 1.0104166666666667
            },
            {
              "pitch": 67,
              "velocity": 98,
              "position": 10,
              "duration": 0.9375
            },
            {
              "pitch": 64,
              "velocity": 98,
              "position": 10,
              "duration": 0.9583333333333334
            },
            {
              "pitch": 59,
              "velocity": 98,
              "position": 9.979166666666666,
              "duration": 1.0104166666666667
            },
            {
              "pitch": 55,
              "velocity": 97,
              "position": 10,
              "duration": 1.4583333333333333
            },
            {
              "pitch": 59,
              "velocity": 92,
              "position": 11,
              "duration": 0.9375
            },
            {
              "pitch": 64,
              "velocity": 92,
              "position": 11,
              "duration": 0.9583333333333334
            },
            {
              "pitch": 55,
              "velocity": 92,
              "position": 11.5,
              "duration": 0.4791666666666667
            },
            {
              "pitch": 67,
              "velocity": 92,
              "position": 10.979166666666666,
              "duration": 1.0104166666666667
            },
            {
              "pitch": 67,
              "velocity": 98,
              "position": 12,
              "duration": 0.9375
            },
            {
              "pitch": 64,
              "velocity": 98,
              "position": 12,
              "duration": 0.9583333333333334
            },
            {
              "pitch": 59,
              "velocity": 98,
              "position": 11.979166666666666,
              "duration": 1
            },
            {
              "pitch": 55,
              "velocity": 97,
              "position": 12,
              "duration": 1.4583333333333333
            },
            {
              "pitch": 59,
              "velocity": 92,
              "position": 13,
              "duration": 0.9375
            },
            {
              "pitch": 64,
              "velocity": 92,
              "position": 13,
              "duration": 0.9583333333333334
            },
            {
              "pitch": 55,
              "velocity": 92,
              "position": 13.5,
              "duration": 0.4583333333333333
            },
            {
              "pitch": 67,
              "velocity": 92,
              "position": 12.979166666666666,
              "duration": 1.0104166666666667
            },
            {
              "pitch": 55,
              "velocity": 97,
              "position": 14,
              "duration": 0.4375
            },
            {
              "pitch": 59,
              "velocity": 98,
              "position": 13.979166666666666,
              "duration": 1.0208333333333333
            },
            {
              "pitch": 57,
              "velocity": 99,
              "position": 15,
              "duration": 0.22916666666666666
            },
            {
              "pitch": 67,
              "velocity": 98,
              "position": 14,
              "duration": 1.4375
            },
            {
              "pitch": 55,
              "velocity": 54,
              "position": 14.5,
              "duration": 1.4791666666666667
            },
            {
              "pitch": 59,
              "velocity": 98,
              "position": 15.25,
              "duration": 0.7291666666666666
            },
            {
              "pitch": 64,
              "velocity": 98,
              "position": 14,
              "duration": 1.9895833333333333
            },
            {
              "pitch": 67,
              "velocity": 96,
              "position": 15.5,
              "duration": 0.5
            },
            {
              "pitch": 64,
              "velocity": 98,
              "position": 16,
              "duration": 0.9375
            },
            {
              "pitch": 67,
              "velocity": 98,
              "position": 16.020833333333332,
              "duration": 0.9375
            },
            {
              "pitch": 59,
              "velocity": 98,
              "position": 16,
              "duration": 0.9895833333333334
            },
            {
              "pitch": 55,
              "velocity": 97,
              "position": 16,
              "duration": 1.4166666666666667
            },
            {
              "pitch": 59,
              "velocity": 92,
              "position": 17,
              "duration": 0.9375
            },
            {
              "pitch": 64,
              "velocity": 92,
              "position": 17,
              "duration": 0.9583333333333334
            },
            {
              "pitch": 55,
              "velocity": 92,
              "position": 17.5,
              "duration": 0.4583333333333333
            },
            {
              "pitch": 67,
              "velocity": 92,
              "position": 16.979166666666668,
              "duration": 1.0104166666666667
            },
            {
              "pitch": 67,
              "velocity": 98,
              "position": 18,
              "duration": 0.9375
            },
            {
              "pitch": 64,
              "velocity": 98,
              "position": 18,
              "duration": 0.9583333333333334
            },
            {
              "pitch": 59,
              "velocity": 98,
              "position": 17.979166666666668,
              "duration": 1.0104166666666667
            },
            {
              "pitch": 55,
              "velocity": 97,
              "position": 18,
              "duration": 1.4583333333333333
            },
            {
              "pitch": 59,
              "velocity": 92,
              "position": 19,
              "duration": 0.9375
            },
            {
              "pitch": 64,
              "velocity": 92,
              "position": 19,
              "duration": 0.9583333333333334
            },
            {
              "pitch": 55,
              "velocity": 92,
              "position": 19.5,
              "duration": 0.4791666666666667
            },
            {
              "pitch": 67,
              "velocity": 92,
              "position": 18.979166666666668,
              "duration": 1.0104166666666667
            },
            {
              "pitch": 67,
              "velocity": 98,
              "position": 20,
              "duration": 0.9375
            },
            {
              "pitch": 64,
              "velocity": 98,
              "position": 20,
              "duration": 0.9583333333333334
            },
            {
              "pitch": 59,
              "velocity": 98,
              "position": 19.979166666666668,
              "duration": 1
            },
            {
              "pitch": 55,
              "velocity": 97,
              "position": 20,
              "duration": 1.4583333333333333
            },
            {
              "pitch": 59,
              "velocity": 92,
              "position": 21,
              "duration": 0.9375
            },
            {
              "pitch": 64,
              "velocity": 92,
              "position": 21,
              "duration": 0.9583333333333334
            },
            {
              "pitch": 55,
              "velocity": 92,
              "position": 21.5,
              "duration": 0.4583333333333333
            },
            {
              "pitch": 67,
              "velocity": 92,
              "position": 20.979166666666668,
              "duration": 1.0104166666666667
            },
            {
              "pitch": 55,
              "velocity": 97,
              "position": 22,
              "duration": 0.4375
            },
            {
              "pitch": 59,
              "velocity": 98,
              "position": 21.979166666666668,
              "duration": 1.0208333333333333
            },
            {
              "pitch": 57,
              "velocity": 99,
              "position": 23,
              "duration": 0.22916666666666666
            },
            {
              "pitch": 67,
              "velocity": 98,
              "position": 22,
              "duration": 1.4375
            },
            {
              "pitch": 55,
              "velocity": 54,
              "position": 22.5,
              "duration": 1.4791666666666667
            },
            {
              "pitch": 59,
              "velocity": 98,
              "position": 23.25,
              "duration": 0.7291666666666666
            },
            {
              "pitch": 64,
              "velocity": 98,
              "position": 22,
              "duration": 1.9895833333333333
            },
            {
              "pitch": 67,
              "velocity": 96,
              "position": 23.5,
              "duration": 0.5
            },
            {
              "pitch": 64,
              "velocity": 98,
              "position": 24,
              "duration": 0.9375
            },
            {
              "pitch": 67,
              "velocity": 98,
              "position": 24.020833333333332,
              "duration": 0.9375
            },
            {
              "pitch": 59,
              "velocity": 98,
              "position": 24,
              "duration": 0.9895833333333334
            },
            {
              "pitch": 55,
              "velocity": 97,
              "position": 24,
              "duration": 1.4166666666666667
            },
            {
              "pitch": 59,
              "velocity": 92,
              "position": 25,
              "duration": 0.9375
            },
            {
              "pitch": 64,
              "velocity": 92,
              "position": 25,
              "duration": 0.9583333333333334
            },
            {
              "pitch": 55,
              "velocity": 92,
              "position": 25.5,
              "duration": 0.4583333333333333
            },
            {
              "pitch": 67,
              "velocity": 92,
              "position": 24.979166666666668,
              "duration": 1.0104166666666667
            },
            {
              "pitch": 67,
              "velocity": 98,
              "position": 26,
              "duration": 0.9375
            },
            {
              "pitch": 64,
              "velocity": 98,
              "position": 26,
              "duration": 0.9583333333333334
            },
            {
              "pitch": 59,
              "velocity": 98,
              "position": 25.979166666666668,
              "duration": 1.0104166666666667
            },
            {
              "pitch": 55,
              "velocity": 97,
              "position": 26,
              "duration": 1.4583333333333333
            },
            {
              "pitch": 59,
              "velocity": 92,
              "position": 27,
              "duration": 0.9375
            },
            {
              "pitch": 64,
              "velocity": 92,
              "position": 27,
              "duration": 0.9583333333333334
            },
            {
              "pitch": 55,
              "velocity": 92,
              "position": 27.5,
              "duration": 0.4791666666666667
            },
            {
              "pitch": 67,
              "velocity": 92,
              "position": 26.979166666666668,
              "duration": 1.0104166666666667
            },
            {
              "pitch": 67,
              "velocity": 98,
              "position": 28,
              "duration": 0.9375
            },
            {
              "pitch": 64,
              "velocity": 98,
              "position": 28,
              "duration": 0.9583333333333334
            },
            {
              "pitch": 59,
              "velocity": 98,
              "position": 27.979166666666668,
              "duration": 1
            },
            {
              "pitch": 55,
              "velocity": 97,
              "position": 28,
              "duration": 1.4583333333333333
            },
            {
              "pitch": 59,
              "velocity": 92,
              "position": 29,
              "duration": 0.9375
            },
            {
              "pitch": 64,
              "velocity": 92,
              "position": 29,
              "duration": 0.9583333333333334
            },
            {
              "pitch": 55,
              "velocity": 92,
              "position": 29.5,
              "duration": 0.4583333333333333
            },
            {
              "pitch": 67,
              "velocity": 92,
              "position": 28.979166666666668,
              "duration": 1.0104166666666667
            },
            {
              "pitch": 55,
              "velocity": 97,
              "position": 30,
              "duration": 0.4375
            },
            {
              "pitch": 59,
              "velocity": 98,
              "position": 29.979166666666668,
              "duration": 1.0208333333333333
            },
            {
              "pitch": 57,
              "velocity": 99,
              "position": 31,
              "duration": 0.22916666666666666
            },
            {
              "pitch": 67,
              "velocity": 98,
              "position": 30,
              "duration": 1.4375
            },
            {
              "pitch": 64,
              "velocity": 98,
              "position": 30,
              "duration": 2
            },
            {
              "pitch": 55,
              "velocity": 54,
              "position": 30.5,
              "duration": 1.5
            },
            {
              "pitch": 59,
              "velocity": 98,
              "position": 31.25,
              "duration": 0.75
            },
            {
              "pitch": 67,
              "velocity": 96,
              "position": 31.5,
              "duration": 0.5
            }
          ]
        }
      }
    },
    "Fill_In_AA": {
      "type": "Fill_In_AA",
      "sizeInBeats": 4,
      "channels": {
        "0": {
          "ctab": {
            "srcChannel": 0,
            "name": "SteelGtr",
            "accType": "CHORD1",
            "editable": false,
            "mutedNotes": [],
            "mutedChords": [
              "1+2+5",
              "sus4",
              "1+5",
              "1+8",
              "7aug",
              "Maj7aug",
              "7(#9)",
              "7(b13)",
              "7(b9)",
              "7(13)",
              "7#11",
              "7(9)",
              "7b5",
              "7sus4",
              "7th",
              "aug",
              "Maj6(9)",
              "Maj7(9)",
              "Maj(9)",
              "Maj7#11",
              "Maj7",
              "Maj6",
              "Maj"
            ],
            "autoStart": false,
            "sourceChordNote": 0,
            "sourceChordType": "minMaj7",
            "ctb2Low": null,
            "ctb2Main": {
              "ntr": "ROOT_FIXED",
              "ntt": "CHORD",
              "bassOn": false,
              "chordRootUpperLimit": 6,
              "noteLowLimit": 0,
              "noteHighLimit": 127,
              "rtr": "PITCH_SHIFT"
            },
            "ctb2High": null
          },
          "notes": [
            {
              "pitch": 59,
              "velocity": 99,
              "position": 0,
              "duration": 0.9791666666666666
            },
            {
              "pitch": 63,
              "velocity": 100,
              "position": 0.020833333333333332,
              "duration": 0.9583333333333334
            },
            {
              "pitch": 67,
              "velocity": 100,
              "position": 0.041666666666666664,
              "duration": 0.9375
            },
            {
              "pitch": 55,
              "velocity": 99,
              "position": 0,
              "duration": 1.4583333333333333
            },
            {
              "pitch": 59,
              "velocity": 97,
              "position": 1,
              "duration": 0.9791666666666666
            },
            {
              "pitch": 67,
              "velocity": 97,
              "position": 1,
              "duration": 0.9791666666666666
            },
            {
              "pitch": 63,
              "velocity": 97,
              "position": 1,
              "duration": 0.9791666666666666
            },
            {
              "pitch": 55,
              "velocity": 97,
              "position": 1.5,
              "duration": 0.4791666666666667
            },
            {
              "pitch": 55,
              "velocity": 99,
              "position": 2,
              "duration": 0.4583333333333333
            },
            {
              "pitch": 55,
              "velocity": 67,
              "position": 2.5,
              "duration": 0.4791666666666667
            },
            {
              "pitch": 59,
              "velocity": 99,
              "position": 2,
              "duration": 1.0208333333333333
            },
            {
              "pitch": 55,
              "velocity": 100,
              "position": 3,
              "duration": 0.25
            },
            {
              "pitch": 67,
              "velocity": 100,
              "position": 2.0416666666666665,
              "duration": 1.4375
            },
            {
              "pitch": 63,
              "velocity": 100,
              "position": 2.0208333333333335,
              "duration": 1.9791666666666667
            },
            {
              "pitch": 59,
              "velocity": 100,
              "position": 3.25,
              "duration": 0.75
            },
            {
              "pitch": 67,
              "velocity": 98,
              "position": 3.5,
              "duration": 0.5
            }
          ]
        },
        "1": {
          "ctab": {
            "srcChannel": 1,
            "name": "SteelGtr",
            "accType": "CHORD1",
            "editable": false,
            "mutedNotes": [],
            "mutedChords": [
              "1+2+5",
              "sus4",
              "1+5",
              "1+8",
              "dim7",
              "dim",
              "minMaj7(9)",
              "minMaj7",
              "min7(11)",
              "min7(9)",
              "min(9)",
              "m7b5",
              "min7",
              "min6",
              "min",
              "aug",
              "Maj6(9)",
              "Maj7(9)",
              "Maj(9)",
              "Maj7#11",
              "Maj7",
              "Maj6",
              "Maj"
            ],
            "autoStart": false,
            "sourceChordNote": 0,
            "sourceChordType": "7th",
            "ctb2Low": null,
            "ctb2Main": {
              "ntr": "ROOT_TRANSPOSITION",
              "ntt": "CHORD",
              "bassOn": false,
              "chordRootUpperLimit": 6,
              "noteLowLimit": 0,
              "noteHighLimit": 127,
              "rtr": "PITCH_SHIFT"
            },
            "ctb2High": null
          },
          "notes": [
            {
              "pitch": 55,
              "velocity": 99,
              "position": 0,
              "duration": 0.9791666666666666
            },
            {
              "pitch": 64,
              "velocity": 100,
              "position": 0.020833333333333332,
              "duration": 0.9583333333333334
            },
            {
              "pitch": 70,
              "velocity": 100,
              "position": 0.041666666666666664,
              "duration": 0.9375
            },
            {
              "pitch": 58,
              "velocity": 99,
              "position": 0,
              "duration": 1.4583333333333333
            },
            {
              "pitch": 55,
              "velocity": 97,
              "position": 1,
              "duration": 0.9791666666666666
            },
            {
              "pitch": 64,
              "velocity": 97,
              "position": 1,
              "duration": 0.9791666666666666
            },
            {
              "pitch": 70,
              "velocity": 97,
              "position": 1,
              "duration": 0.9791666666666666
            },
            {
              "pitch": 58,
              "velocity": 97,
              "position": 1.5,
              "duration": 0.4791666666666667
            },
            {
              "pitch": 58,
              "velocity": 99,
              "position": 2,
              "duration": 0.4583333333333333
            },
            {
              "pitch": 55,
              "velocity": 99,
              "position": 2,
              "duration": 0.9791666666666666
            },
            {
              "pitch": 57,
              "velocity": 100,
              "position": 3,
              "duration": 0.25
            },
            {
              "pitch": 70,
              "velocity": 100,
              "position": 2.0416666666666665,
              "duration": 1.4375
            },
            {
              "pitch": 64,
              "velocity": 100,
              "position": 2.0208333333333335,
              "duration": 1.9791666666666667
            },
            {
              "pitch": 58,
              "velocity": 67,
              "position": 2.5,
              "duration": 1.5
            },
            {
              "pitch": 55,
              "velocity": 100,
              "position": 3.25,
              "duration": 0.75
            },
            {
              "pitch": 70,
              "velocity": 98,
              "position": 3.5,
              "duration": 0.5
            }
          ]
        },
        "2": {
          "ctab": {
            "srcChannel": 2,
            "name": "SteelGtr",
            "accType": "CHORD2",
            "editable": false,
            "mutedNotes": [],
            "mutedChords": [
              "7aug",
              "Maj7aug",
              "7(#9)",
              "7(b13)",
              "7(b9)",
              "7(13)",
              "7#11",
              "7(9)",
              "7b5",
              "7sus4",
              "7th"
            ],
            "autoStart": false,
            "sourceChordNote": 0,
            "sourceChordType": "Maj7",
            "ctb2Low": null,
            "ctb2Main": {
              "ntr": "ROOT_FIXED",
              "ntt": "CHORD",
              "bassOn": false,
              "chordRootUpperLimit": 6,
              "noteLowLimit": 0,
              "noteHighLimit": 127,
              "rtr": "PITCH_SHIFT"
            },
            "ctb2High": null
          },
          "notes": [
            {
              "pitch": 55,
              "velocity": 97,
              "position": 0,
              "duration": 0.4791666666666667
            },
            {
              "pitch": 59,
              "velocity": 97,
              "position": 0,
              "duration": 0.4791666666666667
            },
            {
              "pitch": 64,
              "velocity": 98,
              "position": 0,
              "duration": 0.4791666666666667
            },
            {
              "pitch": 55,
              "velocity": 97,
              "position": 0.5,
              "duration": 0.9791666666666666
            },
            {
              "pitch": 59,
              "velocity": 97,
              "position": 0.5,
              "duration": 0.9791666666666666
            },
            {
              "pitch": 64,
              "velocity": 98,
              "position": 0.5,
              "duration": 0.9791666666666666
            },
            {
              "pitch": 55,
              "velocity": 95,
              "position": 1.5,
              "duration": 0.22916666666666666
            },
            {
              "pitch": 59,
              "velocity": 95,
              "position": 1.5,
              "duration": 0.22916666666666666
            },
            {
              "pitch": 64,
              "velocity": 96,
              "position": 1.5,
              "duration": 0.22916666666666666
            },
            {
              "pitch": 48,
              "velocity": 100,
              "position": 0,
              "duration": 1.75
            },
            {
              "pitch": 55,
              "velocity": 74,
              "position": 1.75,
              "duration": 0.10416666666666667
            },
            {
              "pitch": 59,
              "velocity": 74,
              "position": 1.75,
              "duration": 0.10416666666666667
            },
            {
              "pitch": 64,
              "velocity": 74,
              "position": 1.75,
              "duration": 0.10416666666666667
            },
            {
              "pitch": 55,
              "velocity": 97,
              "position": 1.875,
              "duration": 0.10416666666666667
            },
            {
              "pitch": 59,
              "velocity": 97,
              "position": 1.875,
              "duration": 0.10416666666666667
            },
            {
              "pitch": 64,
              "velocity": 97,
              "position": 1.875,
              "duration": 0.10416666666666667
            },
            {
              "pitch": 55,
              "velocity": 95,
              "position": 2,
              "duration": 0.4791666666666667
            },
            {
              "pitch": 59,
              "velocity": 97,
              "position": 2,
              "duration": 0.4791666666666667
            },
            {
              "pitch": 64,
              "velocity": 96,
              "position": 2,
              "duration": 0.4791666666666667
            },
            {
              "pitch": 55,
              "velocity": 74,
              "position": 2.5,
              "duration": 0.22916666666666666
            },
            {
              "pitch": 59,
              "velocity": 74,
              "position": 2.5,
              "duration": 0.22916666666666666
            },
            {
              "pitch": 64,
              "velocity": 74,
              "position": 2.5,
              "duration": 0.22916666666666666
            },
            {
              "pitch": 48,
              "velocity": 100,
              "position": 2,
              "duration": 0.8333333333333334
            },
            {
              "pitch": 55,
              "velocity": 97,
              "position": 2.75,
              "duration": 0.22916666666666666
            },
            {
              "pitch": 59,
              "velocity": 97,
              "position": 2.75,
              "duration": 0.22916666666666666
            },
            {
              "pitch": 64,
              "velocity": 97,
              "position": 2.75,
              "duration": 0.22916666666666666
            },
            {
              "pitch": 52,
              "velocity": 98,
              "position": 3,
              "duration": 0.4791666666666667
            },
            {
              "pitch": 55,
              "velocity": 96,
              "position": 3,
              "duration": 0.4791666666666667
            },
            {
              "pitch": 59,
              "velocity": 97,
              "position": 3,
              "duration": 0.4791666666666667
            },
            {
              "pitch": 64,
              "velocity": 97,
              "position": 3,
              "duration": 0.4791666666666667
            },
            {
              "pitch": 55,
              "velocity": 74,
              "position": 3.5,
              "duration": 0.22916666666666666
            },
            {
              "pitch": 59,
              "velocity": 74,
              "position": 3.5,
              "duration": 0.22916666666666666
            },
            {
              "pitch": 64,
              "velocity": 74,
              "position": 3.5,
              "duration": 0.22916666666666666
            },
            {
              "pitch": 52,
              "velocity": 100,
              "position": 3.5,
              "duration": 0.5
            },
            {
              "pitch": 55,
              "velocity": 97,
              "position": 3.75,
              "duration": 0.25
            },
            {
              "pitch": 59,
              "velocity": 97,
              "position": 3.75,
              "duration": 0.25
            },
            {
              "pitch": 64,
              "velocity": 97,
              "position": 3.75,
              "duration": 0.25
            }
          ]
        },
        "3": {
          "ctab": {
            "srcChannel": 3,
            "name": "SteelGtr",
            "accType": "CHORD2",
            "editable": false,
            "mutedNotes": [],
            "mutedChords": [
              "1+2+5",
              "sus4",
              "1+5",
              "1+8",
              "dim7",
              "dim",
              "minMaj7(9)",
              "minMaj7",
              "min7(11)",
              "min7(9)",
              "min(9)",
              "m7b5",
              "min7",
              "min6",
              "min",
              "aug",
              "Maj6(9)",
              "Maj7(9)",
              "Maj(9)",
              "Maj7#11",
              "Maj7",
              "Maj6",
              "Maj"
            ],
            "autoStart": false,
            "sourceChordNote": 0,
            "sourceChordType": "7th",
            "ctb2Low": null,
            "ctb2Main": {
              "ntr": "ROOT_FIXED",
              "ntt": "CHORD",
              "bassOn": false,
              "chordRootUpperLimit": 6,
              "noteLowLimit": 0,
              "noteHighLimit": 127,
              "rtr": "PITCH_SHIFT"
            },
            "ctb2High": null
          },
          "notes": [
            {
              "pitch": 58,
              "velocity": 97,
              "position": 0,
              "duration": 0.4791666666666667
            },
            {
              "pitch": 55,
              "velocity": 97,
              "position": 0,
              "duration": 0.4791666666666667
            },
            {
              "pitch": 64,
              "velocity": 98,
              "position": 0,
              "duration": 0.4791666666666667
            },
            {
              "pitch": 58,
              "velocity": 97,
              "position": 0.5,
              "duration": 0.9791666666666666
            },
            {
              "pitch": 55,
              "velocity": 97,
              "position": 0.5,
              "duration": 0.9791666666666666
            },
            {
              "pitch": 64,
              "velocity": 98,
              "position": 0.5,
              "duration": 0.9791666666666666
            },
            {
              "pitch": 58,
              "velocity": 95,
              "position": 1.5,
              "duration": 0.22916666666666666
            },
            {
              "pitch": 55,
              "velocity": 95,
              "position": 1.5,
              "duration": 0.22916666666666666
            },
            {
              "pitch": 64,
              "velocity": 96,
              "position": 1.5,
              "duration": 0.22916666666666666
            },
            {
              "pitch": 48,
              "velocity": 100,
              "position": 0,
              "duration": 1.75
            },
            {
              "pitch": 58,
              "velocity": 74,
              "position": 1.75,
              "duration": 0.10416666666666667
            },
            {
              "pitch": 55,
              "velocity": 74,
              "position": 1.75,
              "duration": 0.10416666666666667
            },
            {
              "pitch": 64,
              "velocity": 74,
              "position": 1.75,
              "duration": 0.10416666666666667
            },
            {
              "pitch": 58,
              "velocity": 97,
              "position": 1.875,
              "duration": 0.10416666666666667
            },
            {
              "pitch": 55,
              "velocity": 97,
              "position": 1.875,
              "duration": 0.10416666666666667
            },
            {
              "pitch": 64,
              "velocity": 97,
              "position": 1.875,
              "duration": 0.10416666666666667
            },
            {
              "pitch": 58,
              "velocity": 95,
              "position": 2,
              "duration": 0.4791666666666667
            },
            {
              "pitch": 55,
              "velocity": 97,
              "position": 2,
              "duration": 0.4791666666666667
            },
            {
              "pitch": 64,
              "velocity": 96,
              "position": 2,
              "duration": 0.4791666666666667
            },
            {
              "pitch": 58,
              "velocity": 74,
              "position": 2.5,
              "duration": 0.22916666666666666
            },
            {
              "pitch": 55,
              "velocity": 74,
              "position": 2.5,
              "duration": 0.22916666666666666
            },
            {
              "pitch": 64,
              "velocity": 74,
              "position": 2.5,
              "duration": 0.22916666666666666
            },
            {
              "pitch": 48,
              "velocity": 100,
              "position": 2,
              "duration": 0.8333333333333334
            },
            {
              "pitch": 58,
              "velocity": 97,
              "position": 2.75,
              "duration": 0.22916666666666666
            },
            {
              "pitch": 55,
              "velocity": 97,
              "position": 2.75,
              "duration": 0.22916666666666666
            },
            {
              "pitch": 64,
              "velocity": 97,
              "position": 2.75,
              "duration": 0.22916666666666666
            },
            {
              "pitch": 52,
              "velocity": 98,
              "position": 3,
              "duration": 0.4791666666666667
            },
            {
              "pitch": 58,
              "velocity": 96,
              "position": 3,
              "duration": 0.4791666666666667
            },
            {
              "pitch": 55,
              "velocity": 97,
              "position": 3,
              "duration": 0.4791666666666667
            },
            {
              "pitch": 64,
              "velocity": 97,
              "position": 3,
              "duration": 0.4791666666666667
            },
            {
              "pitch": 58,
              "velocity": 74,
              "position": 3.5,
              "duration": 0.22916666666666666
            },
            {
              "pitch": 55,
              "velocity": 74,
              "position": 3.5,
              "duration": 0.22916666666666666
            },
            {
              "pitch": 64,
              "velocity": 74,
              "position": 3.5,
              "duration": 0.22916666666666666
            },
            {
              "pitch": 52,
              "velocity": 100,
              "position": 3.5,
              "duration": 0.5
            },
            {
              "pitch": 58,
              "velocity": 97,
              "position": 3.75,
              "duration": 0.25
            },
            {
              "pitch": 55,
              "velocity": 97,
              "position": 3.75,
              "duration": 0.25
            },
            {
              "pitch": 64,
              "velocity": 97,
              "position": 3.75,
              "duration": 0.25
            }
          ]
        },
        "4": {
          "ctab": {
            "srcChannel": 4,
            "name": "Strings1",
            "accType": "PAD",
            "editable": false,
            "mutedNotes": [],
            "mutedChords": [
              "7aug",
              "Maj7aug",
              "7(#9)",
              "7(b13)",
              "7(b9)",
              "7(13)",
              "7#11",
              "7(9)",
              "7b5",
              "7sus4",
              "7th",
              "dim7",
              "dim",
              "minMaj7(9)",
              "minMaj7",
              "min7(11)",
              "min7(9)",
              "min(9)",
              "m7b5",
              "min7",
              "min6",
              "min"
            ],
            "autoStart": false,
            "sourceChordNote": 0,
            "sourceChordType": "Maj7",
            "ctb2Low": null,
            "ctb2Main": {
              "ntr": "ROOT_FIXED",
              "ntt": "CHORD",
              "bassOn": false,
              "chordRootUpperLimit": 6,
              "noteLowLimit": 0,
              "noteHighLimit": 127,
              "rtr": "PITCH_SHIFT"
            },
            "ctb2High": null
          },
          "notes": [
            {
              "pitch": 64,
              "velocity": 89,
              "position": 0,
              "duration": 1.9791666666666667
            },
            {
              "pitch": 76,
              "velocity": 94,
              "position": 2,
              "duration": 1
            },
            {
              "pitch": 67,
              "velocity": 89,
              "position": 0,
              "duration": 3.9791666666666665
            },
            {
              "pitch": 71,
              "velocity": 94,
              "position": 0,
              "duration": 3.9791666666666665
            },
            {
              "pitch": 64,
              "velocity": 61,
              "position": 3,
              "duration": 1
            }
          ]
        },
        "5": {
          "ctab": {
            "srcChannel": 5,
            "name": "Strings1",
            "accType": "PAD",
            "editable": false,
            "mutedNotes": [],
            "mutedChords": [
              "1+2+5",
              "sus4",
              "1+5",
              "1+8",
              "7aug",
              "Maj7aug",
              "7(#9)",
              "7(b13)",
              "7(b9)",
              "7(13)",
              "7#11",
              "7(9)",
              "7b5",
              "7sus4",
              "7th",
              "aug",
              "Maj6(9)",
              "Maj7(9)",
              "Maj(9)",
              "Maj7#11",
              "Maj7",
              "Maj6",
              "Maj"
            ],
            "autoStart": false,
            "sourceChordNote": 0,
            "sourceChordType": "minMaj7",
            "ctb2Low": null,
            "ctb2Main": {
              "ntr": "ROOT_FIXED",
              "ntt": "CHORD",
              "bassOn": false,
              "chordRootUpperLimit": 6,
              "noteLowLimit": 0,
              "noteHighLimit": 127,
              "rtr": "PITCH_SHIFT"
            },
            "ctb2High": null
          },
          "notes": [
            {
              "pitch": 63,
              "velocity": 89,
              "position": 0,
              "duration": 1.9791666666666667
            },
            {
              "pitch": 75,
              "velocity": 94,
              "position": 2,
              "duration": 1
            },
            {
              "pitch": 67,
              "velocity": 89,
              "position": 0,
              "duration": 3.9791666666666665
            },
            {
              "pitch": 71,
              "velocity": 94,
              "position": 0,
              "duration": 3.9791666666666665
            },
            {
              "pitch": 63,
              "velocity": 94,
              "position": 3,
              "duration": 0.9791666666666666
            }
          ]
        },
        "6": {
          "ctab": {
            "srcChannel": 6,
            "name": "Strings1",
            "accType": "PAD",
            "editable": false,
            "mutedNotes": [],
            "mutedChords": [
              "1+2+5",
              "sus4",
              "1+5",
              "1+8",
              "dim7",
              "dim",
              "minMaj7(9)",
              "minMaj7",
              "min7(11)",
              "min7(9)",
              "min(9)",
              "m7b5",
              "min7",
              "min6",
              "min",
              "aug",
              "Maj6(9)",
              "Maj7(9)",
              "Maj(9)",
              "Maj7#11",
              "Maj7",
              "Maj6",
              "Maj"
            ],
            "autoStart": false,
            "sourceChordNote": 0,
            "sourceChordType": "7th",
            "ctb2Low": null,
            "ctb2Main": {
              "ntr": "ROOT_FIXED",
              "ntt": "CHORD",
              "bassOn": false,
              "chordRootUpperLimit": 6,
              "noteLowLimit": 0,
              "noteHighLimit": 127,
              "rtr": "PITCH_SHIFT"
            },
            "ctb2High": null
          },
          "notes": [
            {
              "pitch": 64,
              "velocity": 89,
              "position": 0,
              "duration": 1.9791666666666667
            },
            {
              "pitch": 76,
              "velocity": 94,
              "position": 2,
              "duration": 1
            },
            {
              "pitch": 70,
              "velocity": 89,
              "position": 0,
              "duration": 3.9791666666666665
            },
            {
              "pitch": 67,
              "velocity": 94,
              "position": 0,
              "duration": 3.9791666666666665
            },
            {
              "pitch": 64,
              "velocity": 61,
              "position": 3,
              "duration": 1
            }
          ]
        },
        "8": {
          "ctab": {
            "srcChannel": 8,
            "name": "Std.Kit1",
            "accType": "RHYTHM",
            "editable": false,
            "mutedNotes": [],
            "mutedChords": [
              "7aug",
              "Maj7aug",
              "7(#9)",
              "7(b13)",
              "7(b9)",
              "7(13)",
              "7#11",
              "7(9)",
              "7b5",
              "7sus4",
              "7th",
              "dim7",
              "dim",
              "minMaj7(9)",
              "minMaj7",
              "min7(11)",
              "min7(9)",
              "min(9)",
              "m7b5",
              "min7",
              "min6",
              "min"
            ],
            "autoStart": true,
            "sourceChordNote": 0,
            "sourceChordType": "Maj7",
            "ctb2Low": null,
            "ctb2Main": {
              "ntr": "ROOT_FIXED",
              "ntt": "BYPASS",
              "bassOn": false,
              "chordRootUpperLimit": 6,
              "noteLowLimit": 0,
              "noteHighLimit": 127,
              "rtr": "PITCH_SHIFT"
            },
            "ctb2High": null
          },
          "notes": [
            {
              "pitch": 35,
              "velocity": 83,
              "position": 0,
              "duration": 0.16666666666666666
            },
            {
              "pitch": 42,
              "velocity": 87,
              "position": 0,
              "duration": 0.16666666666666666
            },
            {
              "pitch": 50,
              "velocity": 60,
              "position": 0.3333333333333333,
              "duration": 0.0625
            },
            {
              "pitch": 50,
              "velocity": 66,
              "position": 0.4166666666666667,
              "duration": 0.0625
            },
            {
              "pitch": 50,
              "velocity": 70,
              "position": 0.5,
              "duration": 0.25
            },
            {
              "pitch": 42,
              "velocity": 87,
              "position": 1,
              "duration": 0.16666666666666666
            },
            {
              "pitch": 48,
              "velocity": 76,
              "position": 1.25,
              "duration": 0.25
            },
            {
              "pitch": 35,
              "velocity": 83,
              "position": 1.75,
              "duration": 0.16666666666666666
            },
            {
              "pitch": 49,
              "velocity": 79,
              "position": 0,
              "duration": 1.9791666666666667
            },
            {
              "pitch": 48,
              "velocity": 31,
              "position": 1.75,
              "duration": 0.22916666666666666
            },
            {
              "pitch": 35,
              "velocity": 83,
              "position": 2,
              "duration": 0.16666666666666666
            },
            {
              "pitch": 42,
              "velocity": 87,
              "position": 2,
              "duration": 0.16666666666666666
            },
            {
              "pitch": 48,
              "velocity": 76,
              "position": 2,
              "duration": 0.25
            },
            {
              "pitch": 47,
              "velocity": 78,
              "position": 2.5,
              "duration": 0.25
            },
            {
              "pitch": 35,
              "velocity": 83,
              "position": 3,
              "duration": 0.16666666666666666
            },
            {
              "pitch": 42,
              "velocity": 87,
              "position": 3,
              "duration": 0.16666666666666666
            },
            {
              "pitch": 45,
              "velocity": 93,
              "position": 3,
              "duration": 0.25
            },
            {
              "pitch": 35,
              "velocity": 83,
              "position": 3.25,
              "duration": 0.16666666666666666
            },
            {
              "pitch": 42,
              "velocity": 87,
              "position": 3.25,
              "duration": 0.16666666666666666
            },
            {
              "pitch": 43,
              "velocity": 73,
              "position": 3.25,
              "duration": 0.25
            },
            {
              "pitch": 35,
              "velocity": 83,
              "position": 3.5,
              "duration": 0.16666666666666666
            },
            {
              "pitch": 41,
              "velocity": 66,
              "position": 3.5,
              "duration": 0.25
            },
            {
              "pitch": 57,
              "velocity": 75,
              "position": 2,
              "duration": 1.9791666666666667
            },
            {
              "pitch": 46,
              "velocity": 53,
              "position": 3.5,
              "duration": 0.4791666666666667
            },
            {
              "pitch": 49,
              "velocity": 46,
              "position": 3.9583333333333335,
              "duration": 0.041666666666666664
            }
          ]
        },
        "9": {
          "ctab": {
            "srcChannel": 9,
            "name": "Std.Kit1",
            "accType": "RHYTHM",
            "editable": false,
            "mutedNotes": [],
            "mutedChords": [
              "1+2+5",
              "sus4",
              "1+5",
              "1+8",
              "aug",
              "Maj6(9)",
              "Maj7(9)",
              "Maj(9)",
              "Maj7#11",
              "Maj7",
              "Maj6",
              "Maj"
            ],
            "autoStart": false,
            "sourceChordNote": 0,
            "sourceChordType": "Maj7",
            "ctb2Low": null,
            "ctb2Main": {
              "ntr": "ROOT_FIXED",
              "ntt": "BYPASS",
              "bassOn": false,
              "chordRootUpperLimit": 6,
              "noteLowLimit": 0,
              "noteHighLimit": 127,
              "rtr": "PITCH_SHIFT"
            },
            "ctb2High": null
          },
          "notes": [
            {
              "pitch": 35,
              "velocity": 83,
              "position": 0,
              "duration": 0.16666666666666666
            },
            {
              "pitch": 42,
              "velocity": 87,
              "position": 0,
              "duration": 0.16666666666666666
            },
            {
              "pitch": 50,
              "velocity": 60,
              "position": 0.3333333333333333,
              "duration": 0.0625
            },
            {
              "pitch": 50,
              "velocity": 66,
              "position": 0.4166666666666667,
              "duration": 0.0625
            },
            {
              "pitch": 50,
              "velocity": 70,
              "position": 0.5,
              "duration": 0.25
            },
            {
              "pitch": 42,
              "velocity": 87,
              "position": 1,
              "duration": 0.16666666666666666
            },
            {
              "pitch": 48,
              "velocity": 76,
              "position": 1.25,
              "duration": 0.25
            },
            {
              "pitch": 35,
              "velocity": 83,
              "position": 1.75,
              "duration": 0.16666666666666666
            },
            {
              "pitch": 49,
              "velocity": 79,
              "position": 0,
              "duration": 1.9791666666666667
            },
            {
              "pitch": 48,
              "velocity": 31,
              "position": 1.75,
              "duration": 0.22916666666666666
            },
            {
              "pitch": 35,
              "velocity": 83,
              "position": 2,
              "duration": 0.16666666666666666
            },
            {
              "pitch": 42,
              "velocity": 87,
              "position": 2,
              "duration": 0.16666666666666666
            },
            {
              "pitch": 48,
              "velocity": 76,
              "position": 2,
              "duration": 0.25
            },
            {
              "pitch": 47,
              "velocity": 78,
              "position": 2.5,
              "duration": 0.25
            },
            {
              "pitch": 35,
              "velocity": 83,
              "position": 3,
              "duration": 0.16666666666666666
            },
            {
              "pitch": 42,
              "velocity": 87,
              "position": 3,
              "duration": 0.16666666666666666
            },
            {
              "pitch": 45,
              "velocity": 93,
              "position": 3,
              "duration": 0.25
            },
            {
              "pitch": 35,
              "velocity": 83,
              "position": 3.25,
              "duration": 0.16666666666666666
            },
            {
              "pitch": 42,
              "velocity": 87,
              "position": 3.25,
              "duration": 0.16666666666666666
            },
            {
              "pitch": 43,
              "velocity": 73,
              "position": 3.25,
              "duration": 0.25
            },
            {
              "pitch": 35,
              "velocity": 83,
              "position": 3.5,
              "duration": 0.16666666666666666
            },
            {
              "pitch": 41,
              "velocity": 66,
              "position": 3.5,
              "duration": 0.25
            },
            {
              "pitch": 57,
              "velocity": 75,
              "position": 2,
              "duration": 1.9791666666666667
            },
            {
              "pitch": 46,
              "velocity": 53,
              "position": 3.5,
              "duration": 0.4791666666666667
            },
            {
              "pitch": 49,
              "velocity": 46,
              "position": 3.9791666666666665,
              "duration": 0.020833333333333332
            }
          ]
        },
        "10": {
          "ctab": {
            "srcChannel": 10,
            "name": "Std.Kit1",
            "accType": "SUBRHYTHM",
            "editable": false,
            "mutedNotes": [],
            "mutedChords": [
              "dim7",
              "dim",
              "minMaj7(9)",
              "minMaj7",
              "min7(11)",
              "min7(9)",
              "min(9)",
              "m7b5",
              "min7",
              "min6",
              "min"
            ],
            "autoStart": true,
            "sourceChordNote": 0,
            "sourceChordType": "Maj7",
            "ctb2Low": null,
            "ctb2Main": {
              "ntr": "ROOT_FIXED",
              "ntt": "BYPASS",
              "bassOn": false,
              "chordRootUpperLimit": 6,
              "noteLowLimit": 0,
              "noteHighLimit": 127,
              "rtr": "PITCH_SHIFT"
            },
            "ctb2High": null
          },
          "notes": [
            {
              "pitch": 63,
              "velocity": 88,
              "position": 0,
              "duration": 0.125
            },
            {
              "pitch": 70,
              "velocity": 59,
              "position": 0.5,
              "duration": 0.125
            },
            {
              "pitch": 63,
              "velocity": 103,
              "position": 0.5,
              "duration": 0.125
            },
            {
              "pitch": 62,
              "velocity": 100,
              "position": 0.75,
              "duration": 0.125
            },
            {
              "pitch": 63,
              "velocity": 103,
              "position": 1,
              "duration": 0.125
            },
            {
              "pitch": 63,
              "velocity": 16,
              "position": 1.5,
              "duration": 0.10416666666666667
            },
            {
              "pitch": 70,
              "velocity": 59,
              "position": 1.5,
              "duration": 0.125
            },
            {
              "pitch": 69,
              "velocity": 54,
              "position": 1.5,
              "duration": 0.16666666666666666
            },
            {
              "pitch": 63,
              "velocity": 41,
              "position": 1.625,
              "duration": 0.10416666666666667
            },
            {
              "pitch": 63,
              "velocity": 63,
              "position": 1.75,
              "duration": 0.10416666666666667
            },
            {
              "pitch": 69,
              "velocity": 54,
              "position": 1.75,
              "duration": 0.16666666666666666
            },
            {
              "pitch": 63,
              "velocity": 88,
              "position": 1.875,
              "duration": 0.125
            },
            {
              "pitch": 62,
              "velocity": 120,
              "position": 2,
              "duration": 0.125
            },
            {
              "pitch": 70,
              "velocity": 59,
              "position": 2.5,
              "duration": 0.125
            },
            {
              "pitch": 62,
              "velocity": 62,
              "position": 2.5,
              "duration": 0.125
            },
            {
              "pitch": 64,
              "velocity": 95,
              "position": 3,
              "duration": 0.125
            },
            {
              "pitch": 81,
              "velocity": 25,
              "position": 3,
              "duration": 0.16666666666666666
            },
            {
              "pitch": 70,
              "velocity": 59,
              "position": 3.5,
              "duration": 0.125
            },
            {
              "pitch": 63,
              "velocity": 103,
              "position": 3.5,
              "duration": 0.125
            },
            {
              "pitch": 58,
              "velocity": 105,
              "position": 0,
              "duration": 4
            }
          ]
        },
        "11": {
          "ctab": {
            "srcChannel": 11,
            "name": "Std.Kit1",
            "accType": "SUBRHYTHM",
            "editable": false,
            "mutedNotes": [],
            "mutedChords": [
              "1+2+5",
              "sus4",
              "1+5",
              "1+8",
              "7aug",
              "Maj7aug",
              "7(#9)",
              "7(b13)",
              "7(b9)",
              "7(13)",
              "7#11",
              "7(9)",
              "7b5",
              "7sus4",
              "7th",
              "aug",
              "Maj6(9)",
              "Maj7(9)",
              "Maj(9)",
              "Maj7#11",
              "Maj7",
              "Maj6",
              "Maj"
            ],
            "autoStart": false,
            "sourceChordNote": 0,
            "sourceChordType": "Maj7",
            "ctb2Low": null,
            "ctb2Main": {
              "ntr": "ROOT_FIXED",
              "ntt": "BYPASS",
              "bassOn": false,
              "chordRootUpperLimit": 6,
              "noteLowLimit": 0,
              "noteHighLimit": 127,
              "rtr": "PITCH_SHIFT"
            },
            "ctb2High": null
          },
          "notes": [
            {
              "pitch": 63,
              "velocity": 88,
              "position": 0,
              "duration": 0.125
            },
            {
              "pitch": 70,
              "velocity": 59,
              "position": 0.5,
              "duration": 0.125
            },
            {
              "pitch": 63,
              "velocity": 103,
              "position": 0.5,
              "duration": 0.125
            },
            {
              "pitch": 62,
              "velocity": 100,
              "position": 0.75,
              "duration": 0.125
            },
            {
              "pitch": 63,
              "velocity": 103,
              "position": 1,
              "duration": 0.125
            },
            {
              "pitch": 63,
              "velocity": 16,
              "position": 1.5,
              "duration": 0.10416666666666667
            },
            {
              "pitch": 70,
              "velocity": 59,
              "position": 1.5,
              "duration": 0.125
            },
            {
              "pitch": 69,
              "velocity": 54,
              "position": 1.5,
              "duration": 0.16666666666666666
            },
            {
              "pitch": 63,
              "velocity": 41,
              "position": 1.625,
              "duration": 0.10416666666666667
            },
            {
              "pitch": 63,
              "velocity": 63,
              "position": 1.75,
              "duration": 0.10416666666666667
            },
            {
              "pitch": 69,
              "velocity": 54,
              "position": 1.75,
              "duration": 0.16666666666666666
            },
            {
              "pitch": 63,
              "velocity": 88,
              "position": 1.875,
              "duration": 0.125
            },
            {
              "pitch": 62,
              "velocity": 120,
              "position": 2,
              "duration": 0.125
            },
            {
              "pitch": 70,
              "velocity": 59,
              "position": 2.5,
              "duration": 0.125
            },
            {
              "pitch": 62,
              "velocity": 62,
              "position": 2.5,
              "duration": 0.125
            },
            {
              "pitch": 64,
              "velocity": 95,
              "position": 3,
              "duration": 0.125
            },
            {
              "pitch": 81,
              "velocity": 25,
              "position": 3,
              "duration": 0.16666666666666666
            },
            {
              "pitch": 70,
              "velocity": 59,
              "position": 3.5,
              "duration": 0.125
            },
            {
              "pitch": 63,
              "velocity": 103,
              "position": 3.5,
              "duration": 0.125
            },
            {
              "pitch": 58,
              "velocity": 105,
              "position": 0,
              "duration": 3.9791666666666665
            }
          ]
        },
        "12": {
          "ctab": {
            "srcChannel": 12,
            "name": "Fretless",
            "accType": "BASS",
            "editable": false,
            "mutedNotes": [],
            "mutedChords": [
              "dim7",
              "dim",
              "minMaj7(9)",
              "minMaj7",
              "min7(11)",
              "min7(9)",
              "min(9)",
              "m7b5",
              "min7",
              "min6",
              "min"
            ],
            "autoStart": false,
            "sourceChordNote": 0,
            "sourceChordType": "Maj7",
            "ctb2Low": null,
            "ctb2Main": {
              "ntr": "ROOT_TRANSPOSITION",
              "ntt": "MELODY",
              "bassOn": true,
              "chordRootUpperLimit": 3,
              "noteLowLimit": 28,
              "noteHighLimit": 54,
              "rtr": "PITCH_SHIFT_TO_ROOT"
            },
            "ctb2High": null
          },
          "notes": [
            {
              "pitch": 36,
              "velocity": 96,
              "position": 0,
              "duration": 0.2916666666666667
            },
            {
              "pitch": 50,
              "velocity": 96,
              "position": 0.5,
              "duration": 0.7291666666666666
            },
            {
              "pitch": 48,
              "velocity": 96,
              "position": 1.25,
              "duration": 0.7291666666666666
            },
            {
              "pitch": 45,
              "velocity": 96,
              "position": 2,
              "duration": 0.7291666666666666
            },
            {
              "pitch": 43,
              "velocity": 96,
              "position": 2.75,
              "duration": 0.22916666666666666
            },
            {
              "pitch": 40,
              "velocity": 96,
              "position": 3,
              "duration": 0.22916666666666666
            },
            {
              "pitch": 36,
              "velocity": 96,
              "position": 3.25,
              "duration": 0.22916666666666666
            },
            {
              "pitch": 31,
              "velocity": 96,
              "position": 3.5,
              "duration": 0.4375
            }
          ]
        },
        "13": {
          "ctab": {
            "srcChannel": 13,
            "name": "Fretless",
            "accType": "BASS",
            "editable": false,
            "mutedNotes": [],
            "mutedChords": [
              "1+2+5",
              "sus4",
              "1+5",
              "1+8",
              "7aug",
              "Maj7aug",
              "7(#9)",
              "7(b13)",
              "7(b9)",
              "7(13)",
              "7#11",
              "7(9)",
              "7b5",
              "7sus4",
              "7th",
              "aug",
              "Maj6(9)",
              "Maj7(9)",
              "Maj(9)",
              "Maj7#11",
              "Maj7",
              "Maj6",
              "Maj"
            ],
            "autoStart": false,
            "sourceChordNote": 0,
            "sourceChordType": "Maj7",
            "ctb2Low": null,
            "ctb2Main": {
              "ntr": "ROOT_TRANSPOSITION",
              "ntt": "MELODY",
              "bassOn": true,
              "chordRootUpperLimit": 3,
              "noteLowLimit": 28,
              "noteHighLimit": 54,
              "rtr": "PITCH_SHIFT_TO_ROOT"
            },
            "ctb2High": null
          },
          "notes": [
            {
              "pitch": 36,
              "velocity": 96,
              "position": 0,
              "duration": 0.3125
            },
            {
              "pitch": 48,
              "velocity": 96,
              "position": 0.5,
              "duration": 0.7291666666666666
            },
            {
              "pitch": 36,
              "velocity": 96,
              "position": 1.25,
              "duration": 0.6666666666666666
            },
            {
              "pitch": 48,
              "velocity": 96,
              "position": 2,
              "duration": 0.7291666666666666
            },
            {
              "pitch": 36,
              "velocity": 96,
              "position": 2.75,
              "duration": 0.22916666666666666
            },
            {
              "pitch": 48,
              "velocity": 96,
              "position": 3,
              "duration": 0.22916666666666666
            },
            {
              "pitch": 36,
              "velocity": 96,
              "position": 3.25,
              "duration": 0.22916666666666666
            },
            {
              "pitch": 48,
              "velocity": 96,
              "position": 3.5,
              "duration": 0.4791666666666667
            }
          ]
        },
        "15": {
          "ctab": {
            "srcChannel": 15,
            "name": "SteelGtr",
            "accType": "CHORD1",
            "editable": false,
            "mutedNotes": [],
            "mutedChords": [
              "7aug",
              "Maj7aug",
              "7(#9)",
              "7(b13)",
              "7(b9)",
              "7(13)",
              "7#11",
              "7(9)",
              "7b5",
              "7sus4",
              "7th",
              "dim7",
              "dim",
              "minMaj7(9)",
              "minMaj7",
              "min7(11)",
              "min7(9)",
              "min(9)",
              "m7b5",
              "min7",
              "min6",
              "min"
            ],
            "autoStart": false,
            "sourceChordNote": 0,
            "sourceChordType": "Maj7",
            "ctb2Low": null,
            "ctb2Main": {
              "ntr": "ROOT_TRANSPOSITION",
              "ntt": "CHORD",
              "bassOn": false,
              "chordRootUpperLimit": 6,
              "noteLowLimit": 0,
              "noteHighLimit": 127,
              "rtr": "PITCH_SHIFT"
            },
            "ctb2High": null
          },
          "notes": [
            {
              "pitch": 59,
              "velocity": 99,
              "position": 0,
              "duration": 0.9791666666666666
            },
            {
              "pitch": 64,
              "velocity": 100,
              "position": 0.020833333333333332,
              "duration": 0.9583333333333334
            },
            {
              "pitch": 67,
              "velocity": 100,
              "position": 0.041666666666666664,
              "duration": 0.9375
            },
            {
              "pitch": 55,
              "velocity": 99,
              "position": 0,
              "duration": 1.4583333333333333
            },
            {
              "pitch": 59,
              "velocity": 97,
              "position": 1,
              "duration": 0.9791666666666666
            },
            {
              "pitch": 67,
              "velocity": 97,
              "position": 1,
              "duration": 0.9791666666666666
            },
            {
              "pitch": 64,
              "velocity": 97,
              "position": 1,
              "duration": 0.9791666666666666
            },
            {
              "pitch": 55,
              "velocity": 97,
              "position": 1.5,
              "duration": 0.4791666666666667
            },
            {
              "pitch": 55,
              "velocity": 99,
              "position": 2,
              "duration": 0.4583333333333333
            },
            {
              "pitch": 59,
              "velocity": 99,
              "position": 2,
              "duration": 0.9791666666666666
            },
            {
              "pitch": 57,
              "velocity": 100,
              "position": 3,
              "duration": 0.25
            },
            {
              "pitch": 67,
              "velocity": 100,
              "position": 2.0416666666666665,
              "duration": 1.4375
            },
            {
              "pitch": 64,
              "velocity": 100,
              "position": 2.0208333333333335,
              "duration": 1.9791666666666667
            },
            {
              "pitch": 55,
              "velocity": 67,
              "position": 2.5,
              "duration": 1.5
            },
            {
              "pitch": 59,
              "velocity": 100,
              "position": 3.25,
              "duration": 0.75
            },
            {
              "pitch": 67,
              "velocity": 98,
              "position": 3.5,
              "duration": 0.5
            }
          ]
        }
      }
    },
    "Fill_In_BB": {
      "type": "Fill_In_BB",
      "sizeInBeats": 4,
      "channels": {
        "0": {
          "ctab": {
            "srcChannel": 0,
            "name": "SteelGtr",
            "accType": "CHORD1",
            "editable": false,
            "mutedNotes": [],
            "mutedChords": [
              "1+2+5",
              "sus4",
              "1+5",
              "1+8",
              "7aug",
              "Maj7aug",
              "7(#9)",
              "7(b13)",
              "7(b9)",
              "7(13)",
              "7#11",
              "7(9)",
              "7b5",
              "7sus4",
              "7th",
              "aug",
              "Maj6(9)",
              "Maj7(9)",
              "Maj(9)",
              "Maj7#11",
              "Maj7",
              "Maj6",
              "Maj"
            ],
            "autoStart": false,
            "sourceChordNote": 0,
            "sourceChordType": "minMaj7",
            "ctb2Low": null,
            "ctb2Main": {
              "ntr": "ROOT_FIXED",
              "ntt": "CHORD",
              "bassOn": false,
              "chordRootUpperLimit": 6,
              "noteLowLimit": 0,
              "noteHighLimit": 127,
              "rtr": "PITCH_SHIFT"
            },
            "ctb2High": null
          },
          "notes": [
            {
              "pitch": 59,
              "velocity": 99,
              "position": 0,
              "duration": 0.9791666666666666
            },
            {
              "pitch": 63,
              "velocity": 100,
              "position": 0.020833333333333332,
              "duration": 0.9583333333333334
            },
            {
              "pitch": 67,
              "velocity": 100,
              "position": 0.041666666666666664,
              "duration": 0.9375
            },
            {
              "pitch": 55,
              "velocity": 99,
              "position": 0,
              "duration": 1.4583333333333333
            },
            {
              "pitch": 59,
              "velocity": 97,
              "position": 1,
              "duration": 0.9791666666666666
            },
            {
              "pitch": 67,
              "velocity": 97,
              "position": 1,
              "duration": 0.9791666666666666
            },
            {
              "pitch": 63,
              "velocity": 97,
              "position": 1,
              "duration": 0.9791666666666666
            },
            {
              "pitch": 55,
              "velocity": 97,
              "position": 1.5,
              "duration": 0.4791666666666667
            },
            {
              "pitch": 55,
              "velocity": 99,
              "position": 2,
              "duration": 0.4583333333333333
            },
            {
              "pitch": 55,
              "velocity": 67,
              "position": 2.5,
              "duration": 0.4791666666666667
            },
            {
              "pitch": 59,
              "velocity": 99,
              "position": 2,
              "duration": 1.0208333333333333
            },
            {
              "pitch": 55,
              "velocity": 100,
              "position": 3,
              "duration": 0.25
            },
            {
              "pitch": 67,
              "velocity": 100,
              "position": 2.0416666666666665,
              "duration": 1.4375
            },
            {
              "pitch": 63,
              "velocity": 100,
              "position": 2.0208333333333335,
              "duration": 1.9791666666666667
            },
            {
              "pitch": 59,
              "velocity": 100,
              "position": 3.25,
              "duration": 0.75
            },
            {
              "pitch": 67,
              "velocity": 98,
              "position": 3.5,
              "duration": 0.5
            }
          ]
        },
        "1": {
          "ctab": {
            "srcChannel": 1,
            "name": "SteelGtr",
            "accType": "CHORD1",
            "editable": false,
            "mutedNotes": [],
            "mutedChords": [
              "1+2+5",
              "sus4",
              "1+5",
              "1+8",
              "dim7",
              "dim",
              "minMaj7(9)",
              "minMaj7",
              "min7(11)",
              "min7(9)",
              "min(9)",
              "m7b5",
              "min7",
              "min6",
              "min",
              "aug",
              "Maj6(9)",
              "Maj7(9)",
              "Maj(9)",
              "Maj7#11",
              "Maj7",
              "Maj6",
              "Maj"
            ],
            "autoStart": false,
            "sourceChordNote": 0,
            "sourceChordType": "7th",
            "ctb2Low": null,
            "ctb2Main": {
              "ntr": "ROOT_TRANSPOSITION",
              "ntt": "CHORD",
              "bassOn": false,
              "chordRootUpperLimit": 6,
              "noteLowLimit": 0,
              "noteHighLimit": 127,
              "rtr": "PITCH_SHIFT"
            },
            "ctb2High": null
          },
          "notes": [
            {
              "pitch": 55,
              "velocity": 99,
              "position": 0,
              "duration": 0.9791666666666666
            },
            {
              "pitch": 64,
              "velocity": 100,
              "position": 0.020833333333333332,
              "duration": 0.9583333333333334
            },
            {
              "pitch": 70,
              "velocity": 100,
              "position": 0.041666666666666664,
              "duration": 0.9375
            },
            {
              "pitch": 58,
              "velocity": 99,
              "position": 0,
              "duration": 1.4583333333333333
            },
            {
              "pitch": 55,
              "velocity": 97,
              "position": 1,
              "duration": 0.9791666666666666
            },
            {
              "pitch": 64,
              "velocity": 97,
              "position": 1,
              "duration": 0.9791666666666666
            },
            {
              "pitch": 70,
              "velocity": 97,
              "position": 1,
              "duration": 0.9791666666666666
            },
            {
              "pitch": 58,
              "velocity": 97,
              "position": 1.5,
              "duration": 0.4791666666666667
            },
            {
              "pitch": 58,
              "velocity": 99,
              "position": 2,
              "duration": 0.4583333333333333
            },
            {
              "pitch": 55,
              "velocity": 99,
              "position": 2,
              "duration": 0.9791666666666666
            },
            {
              "pitch": 57,
              "velocity": 100,
              "position": 3,
              "duration": 0.25
            },
            {
              "pitch": 70,
              "velocity": 100,
              "position": 2.0416666666666665,
              "duration": 1.4375
            },
            {
              "pitch": 64,
              "velocity": 100,
              "position": 2.0208333333333335,
              "duration": 1.9791666666666667
            },
            {
              "pitch": 58,
              "velocity": 67,
              "position": 2.5,
              "duration": 1.5
            },
            {
              "pitch": 55,
              "velocity": 100,
              "position": 3.25,
              "duration": 0.75
            },
            {
              "pitch": 70,
              "velocity": 98,
              "position": 3.5,
              "duration": 0.5
            }
          ]
        },
        "2": {
          "ctab": {
            "srcChannel": 2,
            "name": "SteelGtr",
            "accType": "CHORD2",
            "editable": false,
            "mutedNotes": [],
            "mutedChords": [
              "7aug",
              "Maj7aug",
              "7(#9)",
              "7(b13)",
              "7(b9)",
              "7(13)",
              "7#11",
              "7(9)",
              "7b5",
              "7sus4",
              "7th"
            ],
            "autoStart": false,
            "sourceChordNote": 0,
            "sourceChordType": "Maj7",
            "ctb2Low": null,
            "ctb2Main": {
              "ntr": "ROOT_FIXED",
              "ntt": "CHORD",
              "bassOn": false,
              "chordRootUpperLimit": 6,
              "noteLowLimit": 0,
              "noteHighLimit": 127,
              "rtr": "PITCH_SHIFT"
            },
            "ctb2High": null
          },
          "notes": [
            {
              "pitch": 55,
              "velocity": 97,
              "position": 0,
              "duration": 0.4791666666666667
            },
            {
              "pitch": 59,
              "velocity": 97,
              "position": 0,
              "duration": 0.4791666666666667
            },
            {
              "pitch": 64,
              "velocity": 98,
              "position": 0,
              "duration": 0.4791666666666667
            },
            {
              "pitch": 55,
              "velocity": 97,
              "position": 0.5,
              "duration": 0.9791666666666666
            },
            {
              "pitch": 59,
              "velocity": 97,
              "position": 0.5,
              "duration": 0.9791666666666666
            },
            {
              "pitch": 64,
              "velocity": 98,
              "position": 0.5,
              "duration": 0.9791666666666666
            },
            {
              "pitch": 55,
              "velocity": 95,
              "position": 1.5,
              "duration": 0.22916666666666666
            },
            {
              "pitch": 59,
              "velocity": 95,
              "position": 1.5,
              "duration": 0.22916666666666666
            },
            {
              "pitch": 64,
              "velocity": 96,
              "position": 1.5,
              "duration": 0.22916666666666666
            },
            {
              "pitch": 48,
              "velocity": 100,
              "position": 0,
              "duration": 1.75
            },
            {
              "pitch": 55,
              "velocity": 74,
              "position": 1.75,
              "duration": 0.10416666666666667
            },
            {
              "pitch": 59,
              "velocity": 74,
              "position": 1.75,
              "duration": 0.10416666666666667
            },
            {
              "pitch": 64,
              "velocity": 74,
              "position": 1.75,
              "duration": 0.10416666666666667
            },
            {
              "pitch": 55,
              "velocity": 97,
              "position": 1.875,
              "duration": 0.10416666666666667
            },
            {
              "pitch": 59,
              "velocity": 97,
              "position": 1.875,
              "duration": 0.10416666666666667
            },
            {
              "pitch": 64,
              "velocity": 97,
              "position": 1.875,
              "duration": 0.10416666666666667
            },
            {
              "pitch": 55,
              "velocity": 95,
              "position": 2,
              "duration": 0.4791666666666667
            },
            {
              "pitch": 59,
              "velocity": 97,
              "position": 2,
              "duration": 0.4791666666666667
            },
            {
              "pitch": 64,
              "velocity": 96,
              "position": 2,
              "duration": 0.4791666666666667
            },
            {
              "pitch": 55,
              "velocity": 74,
              "position": 2.5,
              "duration": 0.22916666666666666
            },
            {
              "pitch": 59,
              "velocity": 74,
              "position": 2.5,
              "duration": 0.22916666666666666
            },
            {
              "pitch": 64,
              "velocity": 74,
              "position": 2.5,
              "duration": 0.22916666666666666
            },
            {
              "pitch": 48,
              "velocity": 100,
              "position": 2,
              "duration": 0.8333333333333334
            },
            {
              "pitch": 55,
              "velocity": 97,
              "position": 2.75,
              "duration": 0.22916666666666666
            },
            {
              "pitch": 59,
              "velocity": 97,
              "position": 2.75,
              "duration": 0.22916666666666666
            },
            {
              "pitch": 64,
              "velocity": 97,
              "position": 2.75,
              "duration": 0.22916666666666666
            },
            {
              "pitch": 52,
              "velocity": 98,
              "position": 3,
              "duration": 0.4791666666666667
            },
            {
              "pitch": 55,
              "velocity": 96,
              "position": 3,
              "duration": 0.4791666666666667
            },
            {
              "pitch": 59,
              "velocity": 97,
              "position": 3,
              "duration": 0.4791666666666667
            },
            {
              "pitch": 64,
              "velocity": 97,
              "position": 3,
              "duration": 0.4791666666666667
            },
            {
              "pitch": 55,
              "velocity": 74,
              "position": 3.5,
              "duration": 0.22916666666666666
            },
            {
              "pitch": 59,
              "velocity": 74,
              "position": 3.5,
              "duration": 0.22916666666666666
            },
            {
              "pitch": 64,
              "velocity": 74,
              "position": 3.5,
              "duration": 0.22916666666666666
            },
            {
              "pitch": 52,
              "velocity": 100,
              "position": 3.5,
              "duration": 0.5
            },
            {
              "pitch": 55,
              "velocity": 97,
              "position": 3.75,
              "duration": 0.25
            },
            {
              "pitch": 59,
              "velocity": 97,
              "position": 3.75,
              "duration": 0.25
            },
            {
              "pitch": 64,
              "velocity": 97,
              "position": 3.75,
              "duration": 0.25
            }
          ]
        },
        "3": {
          "ctab": {
            "srcChannel": 3,
            "name": "SteelGtr",
            "accType": "CHORD2",
            "editable": false,
            "mutedNotes": [],
            "mutedChords": [
              "1+2+5",
              "sus4",
              "1+5",
              "1+8",
              "dim7",
              "dim",
              "minMaj7(9)",
              "minMaj7",
              "min7(11)",
              "min7(9)",
              "min(9)",
              "m7b5",
              "min7",
              "min6",
              "min",
              "aug",
              "Maj6(9)",
              "Maj7(9)",
              "Maj(9)",
              "Maj7#11",
              "Maj7",
              "Maj6",
              "Maj"
            ],
            "autoStart": false,
            "sourceChordNote": 0,
            "sourceChordType": "7th",
            "ctb2Low": null,
            "ctb2Main": {
              "ntr": "ROOT_FIXED",
              "ntt": "CHORD",
              "bassOn": false,
              "chordRootUpperLimit": 6,
              "noteLowLimit": 0,
              "noteHighLimit": 127,
              "rtr": "PITCH_SHIFT"
            },
            "ctb2High": null
          },
          "notes": [
            {
              "pitch": 58,
              "velocity": 97,
              "position": 0,
              "duration": 0.4791666666666667
            },
            {
              "pitch": 55,
              "velocity": 97,
              "position": 0,
              "duration": 0.4791666666666667
            },
            {
              "pitch": 64,
              "velocity": 98,
              "position": 0,
              "duration": 0.4791666666666667
            },
            {
              "pitch": 58,
              "velocity": 97,
              "position": 0.5,
              "duration": 0.9791666666666666
            },
            {
              "pitch": 55,
              "velocity": 97,
              "position": 0.5,
              "duration": 0.9791666666666666
            },
            {
              "pitch": 64,
              "velocity": 98,
              "position": 0.5,
              "duration": 0.9791666666666666
            },
            {
              "pitch": 58,
              "velocity": 95,
              "position": 1.5,
              "duration": 0.22916666666666666
            },
            {
              "pitch": 55,
              "velocity": 95,
              "position": 1.5,
              "duration": 0.22916666666666666
            },
            {
              "pitch": 64,
              "velocity": 96,
              "position": 1.5,
              "duration": 0.22916666666666666
            },
            {
              "pitch": 48,
              "velocity": 100,
              "position": 0,
              "duration": 1.75
            },
            {
              "pitch": 58,
              "velocity": 74,
              "position": 1.75,
              "duration": 0.10416666666666667
            },
            {
              "pitch": 55,
              "velocity": 74,
              "position": 1.75,
              "duration": 0.10416666666666667
            },
            {
              "pitch": 64,
              "velocity": 74,
              "position": 1.75,
              "duration": 0.10416666666666667
            },
            {
              "pitch": 58,
              "velocity": 97,
              "position": 1.875,
              "duration": 0.10416666666666667
            },
            {
              "pitch": 55,
              "velocity": 97,
              "position": 1.875,
              "duration": 0.10416666666666667
            },
            {
              "pitch": 64,
              "velocity": 97,
              "position": 1.875,
              "duration": 0.10416666666666667
            },
            {
              "pitch": 58,
              "velocity": 95,
              "position": 2,
              "duration": 0.4791666666666667
            },
            {
              "pitch": 55,
              "velocity": 97,
              "position": 2,
              "duration": 0.4791666666666667
            },
            {
              "pitch": 64,
              "velocity": 96,
              "position": 2,
              "duration": 0.4791666666666667
            },
            {
              "pitch": 58,
              "velocity": 74,
              "position": 2.5,
              "duration": 0.22916666666666666
            },
            {
              "pitch": 55,
              "velocity": 74,
              "position": 2.5,
              "duration": 0.22916666666666666
            },
            {
              "pitch": 64,
              "velocity": 74,
              "position": 2.5,
              "duration": 0.22916666666666666
            },
            {
              "pitch": 48,
              "velocity": 100,
              "position": 2,
              "duration": 0.8333333333333334
            },
            {
              "pitch": 58,
              "velocity": 97,
              "position": 2.75,
              "duration": 0.22916666666666666
            },
            {
              "pitch": 55,
              "velocity": 97,
              "position": 2.75,
              "duration": 0.22916666666666666
            },
            {
              "pitch": 64,
              "velocity": 97,
              "position": 2.75,
              "duration": 0.22916666666666666
            },
            {
              "pitch": 52,
              "velocity": 98,
              "position": 3,
              "duration": 0.4791666666666667
            },
            {
              "pitch": 58,
              "velocity": 96,
              "position": 3,
              "duration": 0.4791666666666667
            },
            {
              "pitch": 55,
              "velocity": 97,
              "position": 3,
              "duration": 0.4791666666666667
            },
            {
              "pitch": 64,
              "velocity": 97,
              "position": 3,
              "duration": 0.4791666666666667
            },
            {
              "pitch": 58,
              "velocity": 74,
              "position": 3.5,
              "duration": 0.22916666666666666
            },
            {
              "pitch": 55,
              "velocity": 74,
              "position": 3.5,
              "duration": 0.22916666666666666
            },
            {
              "pitch": 64,
              "velocity": 74,
              "position": 3.5,
              "duration": 0.22916666666666666
            },
            {
              "pitch": 52,
              "velocity": 100,
              "position": 3.5,
              "duration": 0.5
            },
            {
              "pitch": 58,
              "velocity": 97,
              "position": 3.75,
              "duration": 0.25
            },
            {
              "pitch": 55,
              "velocity": 97,
              "position": 3.75,
              "duration": 0.25
            },
            {
              "pitch": 64,
              "velocity": 97,
              "position": 3.75,
              "duration": 0.25
            }
          ]
        },
        "4": {
          "ctab": {
            "srcChannel": 4,
            "name": "Strings1",
            "accType": "PAD",
            "editable": false,
            "mutedNotes": [],
            "mutedChords": [
              "7aug",
              "Maj7aug",
              "7(#9)",
              "7(b13)",
              "7(b9)",
              "7(13)",
              "7#11",
              "7(9)",
              "7b5",
              "7sus4",
              "7th",
              "dim7",
              "dim",
              "minMaj7(9)",
              "minMaj7",
              "min7(11)",
              "min7(9)",
              "min(9)",
              "m7b5",
              "min7",
              "min6",
              "min"
            ],
            "autoStart": false,
            "sourceChordNote": 0,
            "sourceChordType": "Maj7",
            "ctb2Low": null,
            "ctb2Main": {
              "ntr": "ROOT_FIXED",
              "ntt": "CHORD",
              "bassOn": false,
              "chordRootUpperLimit": 6,
              "noteLowLimit": 0,
              "noteHighLimit": 127,
              "rtr": "PITCH_SHIFT"
            },
            "ctb2High": null
          },
          "notes": []
        },
        "5": {
          "ctab": {
            "srcChannel": 5,
            "name": "Strings1",
            "accType": "PAD",
            "editable": false,
            "mutedNotes": [],
            "mutedChords": [
              "1+2+5",
              "sus4",
              "1+5",
              "1+8",
              "7aug",
              "Maj7aug",
              "7(#9)",
              "7(b13)",
              "7(b9)",
              "7(13)",
              "7#11",
              "7(9)",
              "7b5",
              "7sus4",
              "7th",
              "aug",
              "Maj6(9)",
              "Maj7(9)",
              "Maj(9)",
              "Maj7#11",
              "Maj7",
              "Maj6",
              "Maj"
            ],
            "autoStart": false,
            "sourceChordNote": 0,
            "sourceChordType": "minMaj7",
            "ctb2Low": null,
            "ctb2Main": {
              "ntr": "ROOT_FIXED",
              "ntt": "CHORD",
              "bassOn": false,
              "chordRootUpperLimit": 6,
              "noteLowLimit": 0,
              "noteHighLimit": 127,
              "rtr": "PITCH_SHIFT"
            },
            "ctb2High": null
          },
          "notes": []
        },
        "6": {
          "ctab": {
            "srcChannel": 6,
            "name": "Strings1",
            "accType": "PAD",
            "editable": false,
            "mutedNotes": [],
            "mutedChords": [
              "1+2+5",
              "sus4",
              "1+5",
              "1+8",
              "dim7",
              "dim",
              "minMaj7(9)",
              "minMaj7",
              "min7(11)",
              "min7(9)",
              "min(9)",
              "m7b5",
              "min7",
              "min6",
              "min",
              "aug",
              "Maj6(9)",
              "Maj7(9)",
              "Maj(9)",
              "Maj7#11",
              "Maj7",
              "Maj6",
              "Maj"
            ],
            "autoStart": false,
            "sourceChordNote": 0,
            "sourceChordType": "7th",
            "ctb2Low": null,
            "ctb2Main": {
              "ntr": "ROOT_FIXED",
              "ntt": "CHORD",
              "bassOn": false,
              "chordRootUpperLimit": 6,
              "noteLowLimit": 0,
              "noteHighLimit": 127,
              "rtr": "PITCH_SHIFT"
            },
            "ctb2High": null
          },
          "notes": []
        },
        "8": {
          "ctab": {
            "srcChannel": 8,
            "name": "Std.Kit1",
            "accType": "RHYTHM",
            "editable": false,
            "mutedNotes": [],
            "mutedChords": [
              "7aug",
              "Maj7aug",
              "7(#9)",
              "7(b13)",
              "7(b9)",
              "7(13)",
              "7#11",
              "7(9)",
              "7b5",
              "7sus4",
              "7th",
              "dim7",
              "dim",
              "minMaj7(9)",
              "minMaj7",
              "min7(11)",
              "min7(9)",
              "min(9)",
              "m7b5",
              "min7",
              "min6",
              "min"
            ],
            "autoStart": true,
            "sourceChordNote": 0,
            "sourceChordType": "Maj7",
            "ctb2Low": null,
            "ctb2Main": {
              "ntr": "ROOT_FIXED",
              "ntt": "BYPASS",
              "bassOn": false,
              "chordRootUpperLimit": 6,
              "noteLowLimit": 0,
              "noteHighLimit": 127,
              "rtr": "PITCH_SHIFT"
            },
            "ctb2High": null
          },
          "notes": [
            {
              "pitch": 35,
              "velocity": 83,
              "position": 0,
              "duration": 0.16666666666666666
            },
            {
              "pitch": 42,
              "velocity": 87,
              "position": 0,
              "duration": 0.16666666666666666
            },
            {
              "pitch": 50,
              "velocity": 60,
              "position": 0.3333333333333333,
              "duration": 0.0625
            },
            {
              "pitch": 50,
              "velocity": 66,
              "position": 0.4166666666666667,
              "duration": 0.0625
            },
            {
              "pitch": 50,
              "velocity": 70,
              "position": 0.5,
              "duration": 0.25
            },
            {
              "pitch": 42,
              "velocity": 87,
              "position": 1,
              "duration": 0.16666666666666666
            },
            {
              "pitch": 48,
              "velocity": 76,
              "position": 1.25,
              "duration": 0.25
            },
            {
              "pitch": 35,
              "velocity": 83,
              "position": 1.75,
              "duration": 0.16666666666666666
            },
            {
              "pitch": 49,
              "velocity": 79,
              "position": 0,
              "duration": 1.9791666666666667
            },
            {
              "pitch": 48,
              "velocity": 31,
              "position": 1.75,
              "duration": 0.22916666666666666
            },
            {
              "pitch": 35,
              "velocity": 83,
              "position": 2,
              "duration": 0.16666666666666666
            },
            {
              "pitch": 42,
              "velocity": 87,
              "position": 2,
              "duration": 0.16666666666666666
            },
            {
              "pitch": 48,
              "velocity": 76,
              "position": 2,
              "duration": 0.25
            },
            {
              "pitch": 47,
              "velocity": 78,
              "position": 2.5,
              "duration": 0.25
            },
            {
              "pitch": 35,
              "velocity": 83,
              "position": 3,
              "duration": 0.16666666666666666
            },
            {
              "pitch": 42,
              "velocity": 87,
              "position": 3,
              "duration": 0.16666666666666666
            },
            {
              "pitch": 45,
              "velocity": 93,
              "position": 3,
              "duration": 0.25
            },
            {
              "pitch": 35,
              "velocity": 83,
              "position": 3.25,
              "duration": 0.16666666666666666
            },
            {
              "pitch": 42,
              "velocity": 87,
              "position": 3.25,
              "duration": 0.16666666666666666
            },
            {
              "pitch": 43,
              "velocity": 73,
              "position": 3.25,
              "duration": 0.25
            },
            {
              "pitch": 35,
              "velocity": 83,
              "position": 3.5,
              "duration": 0.16666666666666666
            },
            {
              "pitch": 41,
              "velocity": 66,
              "position": 3.5,
              "duration": 0.25
            },
            {
              "pitch": 57,
              "velocity": 75,
              "position": 2,
              "duration": 1.9791666666666667
            },
            {
              "pitch": 46,
              "velocity": 53,
              "position": 3.5,
              "duration": 0.4791666666666667
            },
            {
              "pitch": 49,
              "velocity": 46,
              "position": 3.9583333333333335,
              "duration": 0.041666666666666664
            }
          ]
        },
        "9": {
          "ctab": {
            "srcChannel": 9,
            "name": "Std.Kit1",
            "accType": "RHYTHM",
            "editable": false,
            "mutedNotes": [],
            "mutedChords": [
              "1+2+5",
              "sus4",
              "1+5",
              "1+8",
              "aug",
              "Maj6(9)",
              "Maj7(9)",
              "Maj(9)",
              "Maj7#11",
              "Maj7",
              "Maj6",
              "Maj"
            ],
            "autoStart": false,
            "sourceChordNote": 0,
            "sourceChordType": "Maj7",
            "ctb2Low": null,
            "ctb2Main": {
              "ntr": "ROOT_FIXED",
              "ntt": "BYPASS",
              "bassOn": false,
              "chordRootUpperLimit": 6,
              "noteLowLimit": 0,
              "noteHighLimit": 127,
              "rtr": "PITCH_SHIFT"
            },
            "ctb2High": null
          },
          "notes": [
            {
              "pitch": 35,
              "velocity": 83,
              "position": 0,
              "duration": 0.16666666666666666
            },
            {
              "pitch": 42,
              "velocity": 87,
              "position": 0,
              "duration": 0.16666666666666666
            },
            {
              "pitch": 50,
              "velocity": 60,
              "position": 0.3333333333333333,
              "duration": 0.0625
            },
            {
              "pitch": 50,
              "velocity": 66,
              "position": 0.4166666666666667,
              "duration": 0.0625
            },
            {
              "pitch": 50,
              "velocity": 70,
              "position": 0.5,
              "duration": 0.25
            },
            {
              "pitch": 42,
              "velocity": 87,
              "position": 1,
              "duration": 0.16666666666666666
            },
            {
              "pitch": 48,
              "velocity": 76,
              "position": 1.25,
              "duration": 0.25
            },
            {
              "pitch": 35,
              "velocity": 83,
              "position": 1.75,
              "duration": 0.16666666666666666
            },
            {
              "pitch": 49,
              "velocity": 79,
              "position": 0,
              "duration": 1.9791666666666667
            },
            {
              "pitch": 48,
              "velocity": 31,
              "position": 1.75,
              "duration": 0.22916666666666666
            },
            {
              "pitch": 35,
              "velocity": 83,
              "position": 2,
              "duration": 0.16666666666666666
            },
            {
              "pitch": 42,
              "velocity": 87,
              "position": 2,
              "duration": 0.16666666666666666
            },
            {
              "pitch": 48,
              "velocity": 76,
              "position": 2,
              "duration": 0.25
            },
            {
              "pitch": 47,
              "velocity": 78,
              "position": 2.5,
              "duration": 0.25
            },
            {
              "pitch": 35,
              "velocity": 83,
              "position": 3,
              "duration": 0.16666666666666666
            },
            {
              "pitch": 42,
              "velocity": 87,
              "position": 3,
              "duration": 0.16666666666666666
            },
            {
              "pitch": 45,
              "velocity": 93,
              "position": 3,
              "duration": 0.25
            },
            {
              "pitch": 35,
              "velocity": 83,
              "position": 3.25,
              "duration": 0.16666666666666666
            },
            {
              "pitch": 42,
              "velocity": 87,
              "position": 3.25,
              "duration": 0.16666666666666666
            },
            {
              "pitch": 43,
              "velocity": 73,
              "position": 3.25,
              "duration": 0.25
            },
            {
              "pitch": 35,
              "velocity": 83,
              "position": 3.5,
              "duration": 0.16666666666666666
            },
            {
              "pitch": 41,
              "velocity": 66,
              "position": 3.5,
              "duration": 0.25
            },
            {
              "pitch": 57,
              "velocity": 75,
              "position": 2,
              "duration": 1.9791666666666667
            },
            {
              "pitch": 46,
              "velocity": 53,
              "position": 3.5,
              "duration": 0.4791666666666667
            },
            {
              "pitch": 49,
              "velocity": 46,
              "position": 3.9791666666666665,
              "duration": 0.020833333333333332
            }
          ]
        },
        "10": {
          "ctab": {
            "srcChannel": 10,
            "name": "Std.Kit1",
            "accType": "SUBRHYTHM",
            "editable": false,
            "mutedNotes": [],
            "mutedChords": [
              "dim7",
              "dim",
              "minMaj7(9)",
              "minMaj7",
              "min7(11)",
              "min7(9)",
              "min(9)",
              "m7b5",
              "min7",
              "min6",
              "min"
            ],
            "autoStart": true,
            "sourceChordNote": 0,
            "sourceChordType": "Maj7",
            "ctb2Low": null,
            "ctb2Main": {
              "ntr": "ROOT_FIXED",
              "ntt": "BYPASS",
              "bassOn": false,
              "chordRootUpperLimit": 6,
              "noteLowLimit": 0,
              "noteHighLimit": 127,
              "rtr": "PITCH_SHIFT"
            },
            "ctb2High": null
          },
          "notes": [
            {
              "pitch": 63,
              "velocity": 88,
              "position": 0,
              "duration": 0.125
            },
            {
              "pitch": 70,
              "velocity": 59,
              "position": 0.5,
              "duration": 0.125
            },
            {
              "pitch": 63,
              "velocity": 103,
              "position": 0.5,
              "duration": 0.125
            },
            {
              "pitch": 62,
              "velocity": 100,
              "position": 0.75,
              "duration": 0.125
            },
            {
              "pitch": 63,
              "velocity": 103,
              "position": 1,
              "duration": 0.125
            },
            {
              "pitch": 63,
              "velocity": 16,
              "position": 1.5,
              "duration": 0.10416666666666667
            },
            {
              "pitch": 70,
              "velocity": 59,
              "position": 1.5,
              "duration": 0.125
            },
            {
              "pitch": 69,
              "velocity": 54,
              "position": 1.5,
              "duration": 0.16666666666666666
            },
            {
              "pitch": 63,
              "velocity": 41,
              "position": 1.625,
              "duration": 0.10416666666666667
            },
            {
              "pitch": 63,
              "velocity": 63,
              "position": 1.75,
              "duration": 0.10416666666666667
            },
            {
              "pitch": 69,
              "velocity": 54,
              "position": 1.75,
              "duration": 0.16666666666666666
            },
            {
              "pitch": 63,
              "velocity": 88,
              "position": 1.875,
              "duration": 0.125
            },
            {
              "pitch": 62,
              "velocity": 120,
              "position": 2,
              "duration": 0.125
            },
            {
              "pitch": 70,
              "velocity": 59,
              "position": 2.5,
              "duration": 0.125
            },
            {
              "pitch": 62,
              "velocity": 62,
              "position": 2.5,
              "duration": 0.125
            },
            {
              "pitch": 64,
              "velocity": 95,
              "position": 3,
              "duration": 0.125
            },
            {
              "pitch": 81,
              "velocity": 25,
              "position": 3,
              "duration": 0.16666666666666666
            },
            {
              "pitch": 70,
              "velocity": 59,
              "position": 3.5,
              "duration": 0.125
            },
            {
              "pitch": 63,
              "velocity": 103,
              "position": 3.5,
              "duration": 0.125
            },
            {
              "pitch": 58,
              "velocity": 105,
              "position": 0,
              "duration": 4
            }
          ]
        },
        "11": {
          "ctab": {
            "srcChannel": 11,
            "name": "Std.Kit1",
            "accType": "SUBRHYTHM",
            "editable": false,
            "mutedNotes": [],
            "mutedChords": [
              "1+2+5",
              "sus4",
              "1+5",
              "1+8",
              "7aug",
              "Maj7aug",
              "7(#9)",
              "7(b13)",
              "7(b9)",
              "7(13)",
              "7#11",
              "7(9)",
              "7b5",
              "7sus4",
              "7th",
              "aug",
              "Maj6(9)",
              "Maj7(9)",
              "Maj(9)",
              "Maj7#11",
              "Maj7",
              "Maj6",
              "Maj"
            ],
            "autoStart": false,
            "sourceChordNote": 0,
            "sourceChordType": "Maj7",
            "ctb2Low": null,
            "ctb2Main": {
              "ntr": "ROOT_FIXED",
              "ntt": "BYPASS",
              "bassOn": false,
              "chordRootUpperLimit": 6,
              "noteLowLimit": 0,
              "noteHighLimit": 127,
              "rtr": "PITCH_SHIFT"
            },
            "ctb2High": null
          },
          "notes": [
            {
              "pitch": 63,
              "velocity": 88,
              "position": 0,
              "duration": 0.125
            },
            {
              "pitch": 70,
              "velocity": 59,
              "position": 0.5,
              "duration": 0.125
            },
            {
              "pitch": 63,
              "velocity": 103,
              "position": 0.5,
              "duration": 0.125
            },
            {
              "pitch": 62,
              "velocity": 100,
              "position": 0.75,
              "duration": 0.125
            },
            {
              "pitch": 63,
              "velocity": 103,
              "position": 1,
              "duration": 0.125
            },
            {
              "pitch": 63,
              "velocity": 16,
              "position": 1.5,
              "duration": 0.10416666666666667
            },
            {
              "pitch": 70,
              "velocity": 59,
              "position": 1.5,
              "duration": 0.125
            },
            {
              "pitch": 69,
              "velocity": 54,
              "position": 1.5,
              "duration": 0.16666666666666666
            },
            {
              "pitch": 63,
              "velocity": 41,
              "position": 1.625,
              "duration": 0.10416666666666667
            },
            {
              "pitch": 63,
              "velocity": 63,
              "position": 1.75,
              "duration": 0.10416666666666667
            },
            {
              "pitch": 69,
              "velocity": 54,
              "position": 1.75,
              "duration": 0.16666666666666666
            },
            {
              "pitch": 63,
              "velocity": 88,
              "position": 1.875,
              "duration": 0.125
            },
            {
              "pitch": 62,
              "velocity": 120,
              "position": 2,
              "duration": 0.125
            },
            {
              "pitch": 70,
              "velocity": 59,
              "position": 2.5,
              "duration": 0.125
            },
            {
              "pitch": 62,
              "velocity": 62,
              "position": 2.5,
              "duration": 0.125
            },
            {
              "pitch": 64,
              "velocity": 95,
              "position": 3,
              "duration": 0.125
            },
            {
              "pitch": 81,
              "velocity": 25,
              "position": 3,
              "duration": 0.16666666666666666
            },
            {
              "pitch": 70,
              "velocity": 59,
              "position": 3.5,
              "duration": 0.125
            },
            {
              "pitch": 63,
              "velocity": 103,
              "position": 3.5,
              "duration": 0.125
            },
            {
              "pitch": 58,
              "velocity": 105,
              "position": 0,
              "duration": 3.9791666666666665
            }
          ]
        },
        "12": {
          "ctab": {
            "srcChannel": 12,
            "name": "Fretless",
            "accType": "BASS",
            "editable": false,
            "mutedNotes": [],
            "mutedChords": [
              "dim7",
              "dim",
              "minMaj7(9)",
              "minMaj7",
              "min7(11)",
              "min7(9)",
              "min(9)",
              "m7b5",
              "min7",
              "min6",
              "min"
            ],
            "autoStart": false,
            "sourceChordNote": 0,
            "sourceChordType": "Maj7",
            "ctb2Low": null,
            "ctb2Main": {
              "ntr": "ROOT_TRANSPOSITION",
              "ntt": "MELODY",
              "bassOn": true,
              "chordRootUpperLimit": 3,
              "noteLowLimit": 28,
              "noteHighLimit": 54,
              "rtr": "PITCH_SHIFT_TO_ROOT"
            },
            "ctb2High": null
          },
          "notes": [
            {
              "pitch": 36,
              "velocity": 96,
              "position": 0,
              "duration": 0.2916666666666667
            },
            {
              "pitch": 50,
              "velocity": 96,
              "position": 0.5,
              "duration": 0.7291666666666666
            },
            {
              "pitch": 48,
              "velocity": 96,
              "position": 1.25,
              "duration": 0.7291666666666666
            },
            {
              "pitch": 45,
              "velocity": 96,
              "position": 2,
              "duration": 0.7291666666666666
            },
            {
              "pitch": 43,
              "velocity": 96,
              "position": 2.75,
              "duration": 0.22916666666666666
            },
            {
              "pitch": 40,
              "velocity": 96,
              "position": 3,
              "duration": 0.22916666666666666
            },
            {
              "pitch": 36,
              "velocity": 96,
              "position": 3.25,
              "duration": 0.22916666666666666
            },
            {
              "pitch": 31,
              "velocity": 96,
              "position": 3.5,
              "duration": 0.4375
            }
          ]
        },
        "13": {
          "ctab": {
            "srcChannel": 13,
            "name": "Fretless",
            "accType": "BASS",
            "editable": false,
            "mutedNotes": [],
            "mutedChords": [
              "1+2+5",
              "sus4",
              "1+5",
              "1+8",
              "7aug",
              "Maj7aug",
              "7(#9)",
              "7(b13)",
              "7(b9)",
              "7(13)",
              "7#11",
              "7(9)",
              "7b5",
              "7sus4",
              "7th",
              "aug",
              "Maj6(9)",
              "Maj7(9)",
              "Maj(9)",
              "Maj7#11",
              "Maj7",
              "Maj6",
              "Maj"
            ],
            "autoStart": false,
            "sourceChordNote": 0,
            "sourceChordType": "Maj7",
            "ctb2Low": null,
            "ctb2Main": {
              "ntr": "ROOT_TRANSPOSITION",
              "ntt": "MELODY",
              "bassOn": true,
              "chordRootUpperLimit": 3,
              "noteLowLimit": 28,
              "noteHighLimit": 54,
              "rtr": "PITCH_SHIFT_TO_ROOT"
            },
            "ctb2High": null
          },
          "notes": [
            {
              "pitch": 36,
              "velocity": 96,
              "position": 0,
              "duration": 0.3125
            },
            {
              "pitch": 48,
              "velocity": 96,
              "position": 0.5,
              "duration": 0.7291666666666666
            },
            {
              "pitch": 36,
              "velocity": 96,
              "position": 1.25,
              "duration": 0.6666666666666666
            },
            {
              "pitch": 48,
              "velocity": 96,
              "position": 2,
              "duration": 0.7291666666666666
            },
            {
              "pitch": 36,
              "velocity": 96,
              "position": 2.75,
              "duration": 0.22916666666666666
            },
            {
              "pitch": 48,
              "velocity": 96,
              "position": 3,
              "duration": 0.22916666666666666
            },
            {
              "pitch": 36,
              "velocity": 96,
              "position": 3.25,
              "duration": 0.22916666666666666
            },
            {
              "pitch": 48,
              "velocity": 96,
              "position": 3.5,
              "duration": 0.4791666666666667
            }
          ]
        },
        "15": {
          "ctab": {
            "srcChannel": 15,
            "name": "SteelGtr",
            "accType": "CHORD1",
            "editable": false,
            "mutedNotes": [],
            "mutedChords": [
              "7aug",
              "Maj7aug",
              "7(#9)",
              "7(b13)",
              "7(b9)",
              "7(13)",
              "7#11",
              "7(9)",
              "7b5",
              "7sus4",
              "7th",
              "dim7",
              "dim",
              "minMaj7(9)",
              "minMaj7",
              "min7(11)",
              "min7(9)",
              "min(9)",
              "m7b5",
              "min7",
              "min6",
              "min"
            ],
            "autoStart": false,
            "sourceChordNote": 0,
            "sourceChordType": "Maj7",
            "ctb2Low": null,
            "ctb2Main": {
              "ntr": "ROOT_TRANSPOSITION",
              "ntt": "CHORD",
              "bassOn": false,
              "chordRootUpperLimit": 6,
              "noteLowLimit": 0,
              "noteHighLimit": 127,
              "rtr": "PITCH_SHIFT"
            },
            "ctb2High": null
          },
          "notes": [
            {
              "pitch": 59,
              "velocity": 99,
              "position": 0,
              "duration": 0.9791666666666666
            },
            {
              "pitch": 64,
              "velocity": 100,
              "position": 0.020833333333333332,
              "duration": 0.9583333333333334
            },
            {
              "pitch": 67,
              "velocity": 100,
              "position": 0.041666666666666664,
              "duration": 0.9375
            },
            {
              "pitch": 55,
              "velocity": 99,
              "position": 0,
              "duration": 1.4583333333333333
            },
            {
              "pitch": 59,
              "velocity": 97,
              "position": 1,
              "duration": 0.9791666666666666
            },
            {
              "pitch": 67,
              "velocity": 97,
              "position": 1,
              "duration": 0.9791666666666666
            },
            {
              "pitch": 64,
              "velocity": 97,
              "position": 1,
              "duration": 0.9791666666666666
            },
            {
              "pitch": 55,
              "velocity": 97,
              "position": 1.5,
              "duration": 0.4791666666666667
            },
            {
              "pitch": 55,
              "velocity": 99,
              "position": 2,
              "duration": 0.4583333333333333
            },
            {
              "pitch": 59,
              "velocity": 99,
              "position": 2,
              "duration": 0.9791666666666666
            },
            {
              "pitch": 57,
              "velocity": 100,
              "position": 3,
              "duration": 0.25
            },
            {
              "pitch": 67,
              "velocity": 100,
              "position": 2.0416666666666665,
              "duration": 1.4375
            },
            {
              "pitch": 64,
              "velocity": 100,
              "position": 2.0208333333333335,
              "duration": 1.9791666666666667
            },
            {
              "pitch": 55,
              "velocity": 67,
              "position": 2.5,
              "duration": 1.5
            },
            {
              "pitch": 59,
              "velocity": 100,
              "position": 3.25,
              "duration": 0.75
            },
            {
              "pitch": 67,
              "velocity": 98,
              "position": 3.5,
              "duration": 0.5
            }
          ]
        }
      }
    },
    "Fill_In_CC": {
      "type": "Fill_In_CC",
      "sizeInBeats": 4,
      "channels": {
        "0": {
          "ctab": {
            "srcChannel": 0,
            "name": "SteelGtr",
            "accType": "CHORD1",
            "editable": false,
            "mutedNotes": [],
            "mutedChords": [
              "1+2+5",
              "sus4",
              "1+5",
              "1+8",
              "7aug",
              "Maj7aug",
              "7(#9)",
              "7(b13)",
              "7(b9)",
              "7(13)",
              "7#11",
              "7(9)",
              "7b5",
              "7sus4",
              "7th",
              "aug",
              "Maj6(9)",
              "Maj7(9)",
              "Maj(9)",
              "Maj7#11",
              "Maj7",
              "Maj6",
              "Maj"
            ],
            "autoStart": false,
            "sourceChordNote": 0,
            "sourceChordType": "minMaj7",
            "ctb2Low": null,
            "ctb2Main": {
              "ntr": "ROOT_FIXED",
              "ntt": "CHORD",
              "bassOn": false,
              "chordRootUpperLimit": 6,
              "noteLowLimit": 0,
              "noteHighLimit": 127,
              "rtr": "PITCH_SHIFT"
            },
            "ctb2High": null
          },
          "notes": [
            {
              "pitch": 59,
              "velocity": 99,
              "position": 0,
              "duration": 0.9791666666666666
            },
            {
              "pitch": 63,
              "velocity": 100,
              "position": 0.020833333333333332,
              "duration": 0.9583333333333334
            },
            {
              "pitch": 67,
              "velocity": 100,
              "position": 0.041666666666666664,
              "duration": 0.9375
            },
            {
              "pitch": 55,
              "velocity": 99,
              "position": 0,
              "duration": 1.4583333333333333
            },
            {
              "pitch": 59,
              "velocity": 97,
              "position": 1,
              "duration": 0.9791666666666666
            },
            {
              "pitch": 67,
              "velocity": 97,
              "position": 1,
              "duration": 0.9791666666666666
            },
            {
              "pitch": 63,
              "velocity": 97,
              "position": 1,
              "duration": 0.9791666666666666
            },
            {
              "pitch": 55,
              "velocity": 97,
              "position": 1.5,
              "duration": 0.4791666666666667
            },
            {
              "pitch": 55,
              "velocity": 99,
              "position": 2,
              "duration": 0.4583333333333333
            },
            {
              "pitch": 55,
              "velocity": 67,
              "position": 2.5,
              "duration": 0.4791666666666667
            },
            {
              "pitch": 59,
              "velocity": 99,
              "position": 2,
              "duration": 1.0208333333333333
            },
            {
              "pitch": 55,
              "velocity": 100,
              "position": 3,
              "duration": 0.25
            },
            {
              "pitch": 67,
              "velocity": 100,
              "position": 2.0416666666666665,
              "duration": 1.4375
            },
            {
              "pitch": 63,
              "velocity": 100,
              "position": 2.0208333333333335,
              "duration": 1.9791666666666667
            },
            {
              "pitch": 59,
              "velocity": 100,
              "position": 3.25,
              "duration": 0.75
            },
            {
              "pitch": 67,
              "velocity": 98,
              "position": 3.5,
              "duration": 0.5
            }
          ]
        },
        "1": {
          "ctab": {
            "srcChannel": 1,
            "name": "SteelGtr",
            "accType": "CHORD1",
            "editable": false,
            "mutedNotes": [],
            "mutedChords": [
              "1+2+5",
              "sus4",
              "1+5",
              "1+8",
              "dim7",
              "dim",
              "minMaj7(9)",
              "minMaj7",
              "min7(11)",
              "min7(9)",
              "min(9)",
              "m7b5",
              "min7",
              "min6",
              "min",
              "aug",
              "Maj6(9)",
              "Maj7(9)",
              "Maj(9)",
              "Maj7#11",
              "Maj7",
              "Maj6",
              "Maj"
            ],
            "autoStart": false,
            "sourceChordNote": 0,
            "sourceChordType": "7th",
            "ctb2Low": null,
            "ctb2Main": {
              "ntr": "ROOT_TRANSPOSITION",
              "ntt": "CHORD",
              "bassOn": false,
              "chordRootUpperLimit": 6,
              "noteLowLimit": 0,
              "noteHighLimit": 127,
              "rtr": "PITCH_SHIFT"
            },
            "ctb2High": null
          },
          "notes": [
            {
              "pitch": 55,
              "velocity": 99,
              "position": 0,
              "duration": 0.9791666666666666
            },
            {
              "pitch": 64,
              "velocity": 100,
              "position": 0.020833333333333332,
              "duration": 0.9583333333333334
            },
            {
              "pitch": 70,
              "velocity": 100,
              "position": 0.041666666666666664,
              "duration": 0.9375
            },
            {
              "pitch": 58,
              "velocity": 99,
              "position": 0,
              "duration": 1.4583333333333333
            },
            {
              "pitch": 55,
              "velocity": 97,
              "position": 1,
              "duration": 0.9791666666666666
            },
            {
              "pitch": 64,
              "velocity": 97,
              "position": 1,
              "duration": 0.9791666666666666
            },
            {
              "pitch": 70,
              "velocity": 97,
              "position": 1,
              "duration": 0.9791666666666666
            },
            {
              "pitch": 58,
              "velocity": 97,
              "position": 1.5,
              "duration": 0.4791666666666667
            },
            {
              "pitch": 58,
              "velocity": 99,
              "position": 2,
              "duration": 0.4583333333333333
            },
            {
              "pitch": 55,
              "velocity": 99,
              "position": 2,
              "duration": 0.9791666666666666
            },
            {
              "pitch": 57,
              "velocity": 100,
              "position": 3,
              "duration": 0.25
            },
            {
              "pitch": 70,
              "velocity": 100,
              "position": 2.0416666666666665,
              "duration": 1.4375
            },
            {
              "pitch": 64,
              "velocity": 100,
              "position": 2.0208333333333335,
              "duration": 1.9791666666666667
            },
            {
              "pitch": 58,
              "velocity": 67,
              "position": 2.5,
              "duration": 1.5
            },
            {
              "pitch": 55,
              "velocity": 100,
              "position": 3.25,
              "duration": 0.75
            },
            {
              "pitch": 70,
              "velocity": 98,
              "position": 3.5,
              "duration": 0.5
            }
          ]
        },
        "2": {
          "ctab": {
            "srcChannel": 2,
            "name": "SteelGtr",
            "accType": "CHORD2",
            "editable": false,
            "mutedNotes": [],
            "mutedChords": [
              "7aug",
              "Maj7aug",
              "7(#9)",
              "7(b13)",
              "7(b9)",
              "7(13)",
              "7#11",
              "7(9)",
              "7b5",
              "7sus4",
              "7th"
            ],
            "autoStart": false,
            "sourceChordNote": 0,
            "sourceChordType": "Maj7",
            "ctb2Low": null,
            "ctb2Main": {
              "ntr": "ROOT_FIXED",
              "ntt": "CHORD",
              "bassOn": false,
              "chordRootUpperLimit": 6,
              "noteLowLimit": 0,
              "noteHighLimit": 127,
              "rtr": "PITCH_SHIFT"
            },
            "ctb2High": null
          },
          "notes": []
        },
        "3": {
          "ctab": {
            "srcChannel": 3,
            "name": "SteelGtr",
            "accType": "CHORD2",
            "editable": false,
            "mutedNotes": [],
            "mutedChords": [
              "1+2+5",
              "sus4",
              "1+5",
              "1+8",
              "dim7",
              "dim",
              "minMaj7(9)",
              "minMaj7",
              "min7(11)",
              "min7(9)",
              "min(9)",
              "m7b5",
              "min7",
              "min6",
              "min",
              "aug",
              "Maj6(9)",
              "Maj7(9)",
              "Maj(9)",
              "Maj7#11",
              "Maj7",
              "Maj6",
              "Maj"
            ],
            "autoStart": false,
            "sourceChordNote": 0,
            "sourceChordType": "7th",
            "ctb2Low": null,
            "ctb2Main": {
              "ntr": "ROOT_FIXED",
              "ntt": "CHORD",
              "bassOn": false,
              "chordRootUpperLimit": 6,
              "noteLowLimit": 0,
              "noteHighLimit": 127,
              "rtr": "PITCH_SHIFT"
            },
            "ctb2High": null
          },
          "notes": []
        },
        "4": {
          "ctab": {
            "srcChannel": 4,
            "name": "Strings1",
            "accType": "PAD",
            "editable": false,
            "mutedNotes": [],
            "mutedChords": [
              "7aug",
              "Maj7aug",
              "7(#9)",
              "7(b13)",
              "7(b9)",
              "7(13)",
              "7#11",
              "7(9)",
              "7b5",
              "7sus4",
              "7th",
              "dim7",
              "dim",
              "minMaj7(9)",
              "minMaj7",
              "min7(11)",
              "min7(9)",
              "min(9)",
              "m7b5",
              "min7",
              "min6",
              "min"
            ],
            "autoStart": false,
            "sourceChordNote": 0,
            "sourceChordType": "Maj7",
            "ctb2Low": null,
            "ctb2Main": {
              "ntr": "ROOT_FIXED",
              "ntt": "CHORD",
              "bassOn": false,
              "chordRootUpperLimit": 6,
              "noteLowLimit": 0,
              "noteHighLimit": 127,
              "rtr": "PITCH_SHIFT"
            },
            "ctb2High": null
          },
          "notes": []
        },
        "5": {
          "ctab": {
            "srcChannel": 5,
            "name": "Strings1",
            "accType": "PAD",
            "editable": false,
            "mutedNotes": [],
            "mutedChords": [
              "1+2+5",
              "sus4",
              "1+5",
              "1+8",
              "7aug",
              "Maj7aug",
              "7(#9)",
              "7(b13)",
              "7(b9)",
              "7(13)",
              "7#11",
              "7(9)",
              "7b5",
              "7sus4",
              "7th",
              "aug",
              "Maj6(9)",
              "Maj7(9)",
              "Maj(9)",
              "Maj7#11",
              "Maj7",
              "Maj6",
              "Maj"
            ],
            "autoStart": false,
            "sourceChordNote": 0,
            "sourceChordType": "minMaj7",
            "ctb2Low": null,
            "ctb2Main": {
              "ntr": "ROOT_FIXED",
              "ntt": "CHORD",
              "bassOn": false,
              "chordRootUpperLimit": 6,
              "noteLowLimit": 0,
              "noteHighLimit": 127,
              "rtr": "PITCH_SHIFT"
            },
            "ctb2High": null
          },
          "notes": []
        },
        "6": {
          "ctab": {
            "srcChannel": 6,
            "name": "Strings1",
            "accType": "PAD",
            "editable": false,
            "mutedNotes": [],
            "mutedChords": [
              "1+2+5",
              "sus4",
              "1+5",
              "1+8",
              "dim7",
              "dim",
              "minMaj7(9)",
              "minMaj7",
              "min7(11)",
              "min7(9)",
              "min(9)",
              "m7b5",
              "min7",
              "min6",
              "min",
              "aug",
              "Maj6(9)",
              "Maj7(9)",
              "Maj(9)",
              "Maj7#11",
              "Maj7",
              "Maj6",
              "Maj"
            ],
            "autoStart": false,
            "sourceChordNote": 0,
            "sourceChordType": "7th",
            "ctb2Low": null,
            "ctb2Main": {
              "ntr": "ROOT_FIXED",
              "ntt": "CHORD",
              "bassOn": false,
              "chordRootUpperLimit": 6,
              "noteLowLimit": 0,
              "noteHighLimit": 127,
              "rtr": "PITCH_SHIFT"
            },
            "ctb2High": null
          },
          "notes": []
        },
        "8": {
          "ctab": {
            "srcChannel": 8,
            "name": "Std.Kit1",
            "accType": "RHYTHM",
            "editable": false,
            "mutedNotes": [],
            "mutedChords": [
              "7aug",
              "Maj7aug",
              "7(#9)",
              "7(b13)",
              "7(b9)",
              "7(13)",
              "7#11",
              "7(9)",
              "7b5",
              "7sus4",
              "7th",
              "dim7",
              "dim",
              "minMaj7(9)",
              "minMaj7",
              "min7(11)",
              "min7(9)",
              "min(9)",
              "m7b5",
              "min7",
              "min6",
              "min"
            ],
            "autoStart": true,
            "sourceChordNote": 0,
            "sourceChordType": "Maj7",
            "ctb2Low": null,
            "ctb2Main": {
              "ntr": "ROOT_FIXED",
              "ntt": "BYPASS",
              "bassOn": false,
              "chordRootUpperLimit": 6,
              "noteLowLimit": 0,
              "noteHighLimit": 127,
              "rtr": "PITCH_SHIFT"
            },
            "ctb2High": null
          },
          "notes": [
            {
              "pitch": 35,
              "velocity": 83,
              "position": 0,
              "duration": 0.16666666666666666
            },
            {
              "pitch": 42,
              "velocity": 87,
              "position": 0,
              "duration": 0.16666666666666666
            },
            {
              "pitch": 50,
              "velocity": 60,
              "position": 0.3333333333333333,
              "duration": 0.0625
            },
            {
              "pitch": 50,
              "velocity": 66,
              "position": 0.4166666666666667,
              "duration": 0.0625
            },
            {
              "pitch": 50,
              "velocity": 70,
              "position": 0.5,
              "duration": 0.25
            },
            {
              "pitch": 42,
              "velocity": 87,
              "position": 1,
              "duration": 0.16666666666666666
            },
            {
              "pitch": 48,
              "velocity": 76,
              "position": 1.25,
              "duration": 0.25
            },
            {
              "pitch": 35,
              "velocity": 83,
              "position": 1.75,
              "duration": 0.16666666666666666
            },
            {
              "pitch": 49,
              "velocity": 79,
              "position": 0,
              "duration": 1.9791666666666667
            },
            {
              "pitch": 48,
              "velocity": 31,
              "position": 1.75,
              "duration": 0.22916666666666666
            },
            {
              "pitch": 35,
              "velocity": 83,
              "position": 2,
              "duration": 0.16666666666666666
            },
            {
              "pitch": 42,
              "velocity": 87,
              "position": 2,
              "duration": 0.16666666666666666
            },
            {
              "pitch": 48,
              "velocity": 76,
              "position": 2,
              "duration": 0.25
            },
            {
              "pitch": 47,
              "velocity": 78,
              "position": 2.5,
              "duration": 0.25
            },
            {
              "pitch": 35,
              "velocity": 83,
              "position": 3,
              "duration": 0.16666666666666666
            },
            {
              "pitch": 42,
              "velocity": 87,
              "position": 3,
              "duration": 0.16666666666666666
            },
            {
              "pitch": 45,
              "velocity": 93,
              "position": 3,
              "duration": 0.25
            },
            {
              "pitch": 35,
              "velocity": 83,
              "position": 3.25,
              "duration": 0.16666666666666666
            },
            {
              "pitch": 42,
              "velocity": 87,
              "position": 3.25,
              "duration": 0.16666666666666666
            },
            {
              "pitch": 43,
              "velocity": 73,
              "position": 3.25,
              "duration": 0.25
            },
            {
              "pitch": 35,
              "velocity": 83,
              "position": 3.5,
              "duration": 0.16666666666666666
            },
            {
              "pitch": 41,
              "velocity": 66,
              "position": 3.5,
              "duration": 0.25
            },
            {
              "pitch": 57,
              "velocity": 75,
              "position": 2,
              "duration": 1.9791666666666667
            },
            {
              "pitch": 46,
              "velocity": 53,
              "position": 3.5,
              "duration": 0.4791666666666667
            },
            {
              "pitch": 49,
              "velocity": 46,
              "position": 3.9583333333333335,
              "duration": 0.041666666666666664
            }
          ]
        },
        "9": {
          "ctab": {
            "srcChannel": 9,
            "name": "Std.Kit1",
            "accType": "RHYTHM",
            "editable": false,
            "mutedNotes": [],
            "mutedChords": [
              "1+2+5",
              "sus4",
              "1+5",
              "1+8",
              "aug",
              "Maj6(9)",
              "Maj7(9)",
              "Maj(9)",
              "Maj7#11",
              "Maj7",
              "Maj6",
              "Maj"
            ],
            "autoStart": false,
            "sourceChordNote": 0,
            "sourceChordType": "Maj7",
            "ctb2Low": null,
            "ctb2Main": {
              "ntr": "ROOT_FIXED",
              "ntt": "BYPASS",
              "bassOn": false,
              "chordRootUpperLimit": 6,
              "noteLowLimit": 0,
              "noteHighLimit": 127,
              "rtr": "PITCH_SHIFT"
            },
            "ctb2High": null
          },
          "notes": [
            {
              "pitch": 35,
              "velocity": 83,
              "position": 0,
              "duration": 0.16666666666666666
            },
            {
              "pitch": 42,
              "velocity": 87,
              "position": 0,
              "duration": 0.16666666666666666
            },
            {
              "pitch": 50,
              "velocity": 60,
              "position": 0.3333333333333333,
              "duration": 0.0625
            },
            {
              "pitch": 50,
              "velocity": 66,
              "position": 0.4166666666666667,
              "duration": 0.0625
            },
            {
              "pitch": 50,
              "velocity": 70,
              "position": 0.5,
              "duration": 0.25
            },
            {
              "pitch": 42,
              "velocity": 87,
              "position": 1,
              "duration": 0.16666666666666666
            },
            {
              "pitch": 48,
              "velocity": 76,
              "position": 1.25,
              "duration": 0.25
            },
            {
              "pitch": 35,
              "velocity": 83,
              "position": 1.75,
              "duration": 0.16666666666666666
            },
            {
              "pitch": 49,
              "velocity": 79,
              "position": 0,
              "duration": 1.9791666666666667
            },
            {
              "pitch": 48,
              "velocity": 31,
              "position": 1.75,
              "duration": 0.22916666666666666
            },
            {
              "pitch": 35,
              "velocity": 83,
              "position": 2,
              "duration": 0.16666666666666666
            },
            {
              "pitch": 42,
              "velocity": 87,
              "position": 2,
              "duration": 0.16666666666666666
            },
            {
              "pitch": 48,
              "velocity": 76,
              "position": 2,
              "duration": 0.25
            },
            {
              "pitch": 47,
              "velocity": 78,
              "position": 2.5,
              "duration": 0.25
            },
            {
              "pitch": 35,
              "velocity": 83,
              "position": 3,
              "duration": 0.16666666666666666
            },
            {
              "pitch": 42,
              "velocity": 87,
              "position": 3,
              "duration": 0.16666666666666666
            },
            {
              "pitch": 45,
              "velocity": 93,
              "position": 3,
              "duration": 0.25
            },
            {
              "pitch": 35,
              "velocity": 83,
              "position": 3.25,
              "duration": 0.16666666666666666
            },
            {
              "pitch": 42,
              "velocity": 87,
              "position": 3.25,
              "duration": 0.16666666666666666
            },
            {
              "pitch": 43,
              "velocity": 73,
              "position": 3.25,
              "duration": 0.25
            },
            {
              "pitch": 35,
              "velocity": 83,
              "position": 3.5,
              "duration": 0.16666666666666666
            },
            {
              "pitch": 41,
              "velocity": 66,
              "position": 3.5,
              "duration": 0.25
            },
            {
              "pitch": 57,
              "velocity": 75,
              "position": 2,
              "duration": 1.9791666666666667
            },
            {
              "pitch": 46,
              "velocity": 53,
              "position": 3.5,
              "duration": 0.4791666666666667
            },
            {
              "pitch": 49,
              "velocity": 46,
              "position": 3.9791666666666665,
              "duration": 0.020833333333333332
            }
          ]
        },
        "10": {
          "ctab": {
            "srcChannel": 10,
            "name": "Std.Kit1",
            "accType": "SUBRHYTHM",
            "editable": false,
            "mutedNotes": [],
            "mutedChords": [
              "dim7",
              "dim",
              "minMaj7(9)",
              "minMaj7",
              "min7(11)",
              "min7(9)",
              "min(9)",
              "m7b5",
              "min7",
              "min6",
              "min"
            ],
            "autoStart": true,
            "sourceChordNote": 0,
            "sourceChordType": "Maj7",
            "ctb2Low": null,
            "ctb2Main": {
              "ntr": "ROOT_FIXED",
              "ntt": "BYPASS",
              "bassOn": false,
              "chordRootUpperLimit": 6,
              "noteLowLimit": 0,
              "noteHighLimit": 127,
              "rtr": "PITCH_SHIFT"
            },
            "ctb2High": null
          },
          "notes": [
            {
              "pitch": 63,
              "velocity": 88,
              "position": 0,
              "duration": 0.125
            },
            {
              "pitch": 70,
              "velocity": 59,
              "position": 0.5,
              "duration": 0.125
            },
            {
              "pitch": 63,
              "velocity": 103,
              "position": 0.5,
              "duration": 0.125
            },
            {
              "pitch": 62,
              "velocity": 100,
              "position": 0.75,
              "duration": 0.125
            },
            {
              "pitch": 63,
              "velocity": 103,
              "position": 1,
              "duration": 0.125
            },
            {
              "pitch": 63,
              "velocity": 16,
              "position": 1.5,
              "duration": 0.10416666666666667
            },
            {
              "pitch": 70,
              "velocity": 59,
              "position": 1.5,
              "duration": 0.125
            },
            {
              "pitch": 69,
              "velocity": 54,
              "position": 1.5,
              "duration": 0.16666666666666666
            },
            {
              "pitch": 63,
              "velocity": 41,
              "position": 1.625,
              "duration": 0.10416666666666667
            },
            {
              "pitch": 63,
              "velocity": 63,
              "position": 1.75,
              "duration": 0.10416666666666667
            },
            {
              "pitch": 69,
              "velocity": 54,
              "position": 1.75,
              "duration": 0.16666666666666666
            },
            {
              "pitch": 63,
              "velocity": 88,
              "position": 1.875,
              "duration": 0.125
            },
            {
              "pitch": 62,
              "velocity": 120,
              "position": 2,
              "duration": 0.125
            },
            {
              "pitch": 70,
              "velocity": 59,
              "position": 2.5,
              "duration": 0.125
            },
            {
              "pitch": 62,
              "velocity": 62,
              "position": 2.5,
              "duration": 0.125
            },
            {
              "pitch": 64,
              "velocity": 95,
              "position": 3,
              "duration": 0.125
            },
            {
              "pitch": 81,
              "velocity": 25,
              "position": 3,
              "duration": 0.16666666666666666
            },
            {
              "pitch": 70,
              "velocity": 59,
              "position": 3.5,
              "duration": 0.125
            },
            {
              "pitch": 63,
              "velocity": 103,
              "position": 3.5,
              "duration": 0.125
            },
            {
              "pitch": 58,
              "velocity": 105,
              "position": 0,
              "duration": 4
            }
          ]
        },
        "11": {
          "ctab": {
            "srcChannel": 11,
            "name": "Std.Kit1",
            "accType": "SUBRHYTHM",
            "editable": false,
            "mutedNotes": [],
            "mutedChords": [
              "1+2+5",
              "sus4",
              "1+5",
              "1+8",
              "7aug",
              "Maj7aug",
              "7(#9)",
              "7(b13)",
              "7(b9)",
              "7(13)",
              "7#11",
              "7(9)",
              "7b5",
              "7sus4",
              "7th",
              "aug",
              "Maj6(9)",
              "Maj7(9)",
              "Maj(9)",
              "Maj7#11",
              "Maj7",
              "Maj6",
              "Maj"
            ],
            "autoStart": false,
            "sourceChordNote": 0,
            "sourceChordType": "Maj7",
            "ctb2Low": null,
            "ctb2Main": {
              "ntr": "ROOT_FIXED",
              "ntt": "BYPASS",
              "bassOn": false,
              "chordRootUpperLimit": 6,
              "noteLowLimit": 0,
              "noteHighLimit": 127,
              "rtr": "PITCH_SHIFT"
            },
            "ctb2High": null
          },
          "notes": [
            {
              "pitch": 63,
              "velocity": 88,
              "position": 0,
              "duration": 0.125
            },
            {
              "pitch": 70,
              "velocity": 59,
              "position": 0.5,
              "duration": 0.125
            },
            {
              "pitch": 63,
              "velocity": 103,
              "position": 0.5,
              "duration": 0.125
            },
            {
              "pitch": 62,
              "velocity": 100,
              "position": 0.75,
              "duration": 0.125
            },
            {
              "pitch": 63,
              "velocity": 103,
              "position": 1,
              "duration": 0.125
            },
            {
              "pitch": 63,
              "velocity": 16,
              "position": 1.5,
              "duration": 0.10416666666666667
            },
            {
              "pitch": 70,
              "velocity": 59,
              "position": 1.5,
              "duration": 0.125
            },
            {
              "pitch": 69,
              "velocity": 54,
              "position": 1.5,
              "duration": 0.16666666666666666
            },
            {
              "pitch": 63,
              "velocity": 41,
              "position": 1.625,
              "duration": 0.10416666666666667
            },
            {
              "pitch": 63,
              "velocity": 63,
              "position": 1.75,
              "duration": 0.10416666666666667
            },
            {
              "pitch": 69,
              "velocity": 54,
              "position": 1.75,
              "duration": 0.16666666666666666
            },
            {
              "pitch": 63,
              "velocity": 88,
              "position": 1.875,
              "duration": 0.125
            },
            {
              "pitch": 62,
              "velocity": 120,
              "position": 2,
              "duration": 0.125
            },
            {
              "pitch": 70,
              "velocity": 59,
              "position": 2.5,
              "duration": 0.125
            },
            {
              "pitch": 62,
              "velocity": 62,
              "position": 2.5,
              "duration": 0.125
            },
            {
              "pitch": 64,
              "velocity": 95,
              "position": 3,
              "duration": 0.125
            },
            {
              "pitch": 81,
              "velocity": 25,
              "position": 3,
              "duration": 0.16666666666666666
            },
            {
              "pitch": 70,
              "velocity": 59,
              "position": 3.5,
              "duration": 0.125
            },
            {
              "pitch": 63,
              "velocity": 103,
              "position": 3.5,
              "duration": 0.125
            },
            {
              "pitch": 58,
              "velocity": 105,
              "position": 0,
              "duration": 3.9791666666666665
            }
          ]
        },
        "12": {
          "ctab": {
            "srcChannel": 12,
            "name": "Fretless",
            "accType": "BASS",
            "editable": false,
            "mutedNotes": [],
            "mutedChords": [
              "dim7",
              "dim",
              "minMaj7(9)",
              "minMaj7",
              "min7(11)",
              "min7(9)",
              "min(9)",
              "m7b5",
              "min7",
              "min6",
              "min"
            ],
            "autoStart": false,
            "sourceChordNote": 0,
            "sourceChordType": "Maj7",
            "ctb2Low": null,
            "ctb2Main": {
              "ntr": "ROOT_TRANSPOSITION",
              "ntt": "MELODY",
              "bassOn": true,
              "chordRootUpperLimit": 3,
              "noteLowLimit": 28,
              "noteHighLimit": 54,
              "rtr": "PITCH_SHIFT_TO_ROOT"
            },
            "ctb2High": null
          },
          "notes": [
            {
              "pitch": 36,
              "velocity": 96,
              "position": 0,
              "duration": 0.2916666666666667
            },
            {
              "pitch": 50,
              "velocity": 96,
              "position": 0.5,
              "duration": 0.7291666666666666
            },
            {
              "pitch": 48,
              "velocity": 96,
              "position": 1.25,
              "duration": 0.7291666666666666
            },
            {
              "pitch": 45,
              "velocity": 96,
              "position": 2,
              "duration": 0.7291666666666666
            },
            {
              "pitch": 43,
              "velocity": 96,
              "position": 2.75,
              "duration": 0.22916666666666666
            },
            {
              "pitch": 40,
              "velocity": 96,
              "position": 3,
              "duration": 0.22916666666666666
            },
            {
              "pitch": 36,
              "velocity": 96,
              "position": 3.25,
              "duration": 0.22916666666666666
            },
            {
              "pitch": 31,
              "velocity": 96,
              "position": 3.5,
              "duration": 0.4375
            }
          ]
        },
        "13": {
          "ctab": {
            "srcChannel": 13,
            "name": "Fretless",
            "accType": "BASS",
            "editable": false,
            "mutedNotes": [],
            "mutedChords": [
              "1+2+5",
              "sus4",
              "1+5",
              "1+8",
              "7aug",
              "Maj7aug",
              "7(#9)",
              "7(b13)",
              "7(b9)",
              "7(13)",
              "7#11",
              "7(9)",
              "7b5",
              "7sus4",
              "7th",
              "aug",
              "Maj6(9)",
              "Maj7(9)",
              "Maj(9)",
              "Maj7#11",
              "Maj7",
              "Maj6",
              "Maj"
            ],
            "autoStart": false,
            "sourceChordNote": 0,
            "sourceChordType": "Maj7",
            "ctb2Low": null,
            "ctb2Main": {
              "ntr": "ROOT_TRANSPOSITION",
              "ntt": "MELODY",
              "bassOn": true,
              "chordRootUpperLimit": 3,
              "noteLowLimit": 28,
              "noteHighLimit": 54,
              "rtr": "PITCH_SHIFT_TO_ROOT"
            },
            "ctb2High": null
          },
          "notes": [
            {
              "pitch": 36,
              "velocity": 96,
              "position": 0,
              "duration": 0.3125
            },
            {
              "pitch": 48,
              "velocity": 96,
              "position": 0.5,
              "duration": 0.7291666666666666
            },
            {
              "pitch": 36,
              "velocity": 96,
              "position": 1.25,
              "duration": 0.6666666666666666
            },
            {
              "pitch": 48,
              "velocity": 96,
              "position": 2,
              "duration": 0.7291666666666666
            },
            {
              "pitch": 36,
              "velocity": 96,
              "position": 2.75,
              "duration": 0.22916666666666666
            },
            {
              "pitch": 48,
              "velocity": 96,
              "position": 3,
              "duration": 0.22916666666666666
            },
            {
              "pitch": 36,
              "velocity": 96,
              "position": 3.25,
              "duration": 0.22916666666666666
            },
            {
              "pitch": 48,
              "velocity": 96,
              "position": 3.5,
              "duration": 0.4791666666666667
            }
          ]
        },
        "15": {
          "ctab": {
            "srcChannel": 15,
            "name": "SteelGtr",
            "accType": "CHORD1",
            "editable": false,
            "mutedNotes": [],
            "mutedChords": [
              "7aug",
              "Maj7aug",
              "7(#9)",
              "7(b13)",
              "7(b9)",
              "7(13)",
              "7#11",
              "7(9)",
              "7b5",
              "7sus4",
              "7th",
              "dim7",
              "dim",
              "minMaj7(9)",
              "minMaj7",
              "min7(11)",
              "min7(9)",
              "min(9)",
              "m7b5",
              "min7",
              "min6",
              "min"
            ],
            "autoStart": false,
            "sourceChordNote": 0,
            "sourceChordType": "Maj7",
            "ctb2Low": null,
            "ctb2Main": {
              "ntr": "ROOT_TRANSPOSITION",
              "ntt": "CHORD",
              "bassOn": false,
              "chordRootUpperLimit": 6,
              "noteLowLimit": 0,
              "noteHighLimit": 127,
              "rtr": "PITCH_SHIFT"
            },
            "ctb2High": null
          },
          "notes": [
            {
              "pitch": 59,
              "velocity": 99,
              "position": 0,
              "duration": 0.9791666666666666
            },
            {
              "pitch": 64,
              "velocity": 100,
              "position": 0.020833333333333332,
              "duration": 0.9583333333333334
            },
            {
              "pitch": 67,
              "velocity": 100,
              "position": 0.041666666666666664,
              "duration": 0.9375
            },
            {
              "pitch": 55,
              "velocity": 99,
              "position": 0,
              "duration": 1.4583333333333333
            },
            {
              "pitch": 59,
              "velocity": 97,
              "position": 1,
              "duration": 0.9791666666666666
            },
            {
              "pitch": 67,
              "velocity": 97,
              "position": 1,
              "duration": 0.9791666666666666
            },
            {
              "pitch": 64,
              "velocity": 97,
              "position": 1,
              "duration": 0.9791666666666666
            },
            {
              "pitch": 55,
              "velocity": 97,
              "position": 1.5,
              "duration": 0.4791666666666667
            },
            {
              "pitch": 55,
              "velocity": 99,
              "position": 2,
              "duration": 0.4583333333333333
            },
            {
              "pitch": 59,
              "velocity": 99,
              "position": 2,
              "duration": 0.9791666666666666
            },
            {
              "pitch": 57,
              "velocity": 100,
              "position": 3,
              "duration": 0.25
            },
            {
              "pitch": 67,
              "velocity": 100,
              "position": 2.0416666666666665,
              "duration": 1.4375
            },
            {
              "pitch": 64,
              "velocity": 100,
              "position": 2.0208333333333335,
              "duration": 1.9791666666666667
            },
            {
              "pitch": 55,
              "velocity": 67,
              "position": 2.5,
              "duration": 1.5
            },
            {
              "pitch": 59,
              "velocity": 100,
              "position": 3.25,
              "duration": 0.75
            },
            {
              "pitch": 67,
              "velocity": 98,
              "position": 3.5,
              "duration": 0.5
            }
          ]
        }
      }
    },
    "Fill_In_DD": {
      "type": "Fill_In_DD",
      "sizeInBeats": 4,
      "channels": {
        "0": {
          "ctab": {
            "srcChannel": 0,
            "name": "SteelGtr",
            "accType": "CHORD1",
            "editable": false,
            "mutedNotes": [],
            "mutedChords": [
              "1+2+5",
              "sus4",
              "1+5",
              "1+8",
              "7aug",
              "Maj7aug",
              "7(#9)",
              "7(b13)",
              "7(b9)",
              "7(13)",
              "7#11",
              "7(9)",
              "7b5",
              "7sus4",
              "7th",
              "aug",
              "Maj6(9)",
              "Maj7(9)",
              "Maj(9)",
              "Maj7#11",
              "Maj7",
              "Maj6",
              "Maj"
            ],
            "autoStart": false,
            "sourceChordNote": 0,
            "sourceChordType": "minMaj7",
            "ctb2Low": null,
            "ctb2Main": {
              "ntr": "ROOT_FIXED",
              "ntt": "CHORD",
              "bassOn": false,
              "chordRootUpperLimit": 6,
              "noteLowLimit": 0,
              "noteHighLimit": 127,
              "rtr": "PITCH_SHIFT"
            },
            "ctb2High": null
          },
          "notes": []
        },
        "1": {
          "ctab": {
            "srcChannel": 1,
            "name": "SteelGtr",
            "accType": "CHORD1",
            "editable": false,
            "mutedNotes": [],
            "mutedChords": [
              "1+2+5",
              "sus4",
              "1+5",
              "1+8",
              "dim7",
              "dim",
              "minMaj7(9)",
              "minMaj7",
              "min7(11)",
              "min7(9)",
              "min(9)",
              "m7b5",
              "min7",
              "min6",
              "min",
              "aug",
              "Maj6(9)",
              "Maj7(9)",
              "Maj(9)",
              "Maj7#11",
              "Maj7",
              "Maj6",
              "Maj"
            ],
            "autoStart": false,
            "sourceChordNote": 0,
            "sourceChordType": "7th",
            "ctb2Low": null,
            "ctb2Main": {
              "ntr": "ROOT_TRANSPOSITION",
              "ntt": "CHORD",
              "bassOn": false,
              "chordRootUpperLimit": 6,
              "noteLowLimit": 0,
              "noteHighLimit": 127,
              "rtr": "PITCH_SHIFT"
            },
            "ctb2High": null
          },
          "notes": []
        },
        "2": {
          "ctab": {
            "srcChannel": 2,
            "name": "SteelGtr",
            "accType": "CHORD2",
            "editable": false,
            "mutedNotes": [],
            "mutedChords": [
              "7aug",
              "Maj7aug",
              "7(#9)",
              "7(b13)",
              "7(b9)",
              "7(13)",
              "7#11",
              "7(9)",
              "7b5",
              "7sus4",
              "7th"
            ],
            "autoStart": false,
            "sourceChordNote": 0,
            "sourceChordType": "Maj7",
            "ctb2Low": null,
            "ctb2Main": {
              "ntr": "ROOT_FIXED",
              "ntt": "CHORD",
              "bassOn": false,
              "chordRootUpperLimit": 6,
              "noteLowLimit": 0,
              "noteHighLimit": 127,
              "rtr": "PITCH_SHIFT"
            },
            "ctb2High": null
          },
          "notes": []
        },
        "3": {
          "ctab": {
            "srcChannel": 3,
            "name": "SteelGtr",
            "accType": "CHORD2",
            "editable": false,
            "mutedNotes": [],
            "mutedChords": [
              "1+2+5",
              "sus4",
              "1+5",
              "1+8",
              "dim7",
              "dim",
              "minMaj7(9)",
              "minMaj7",
              "min7(11)",
              "min7(9)",
              "min(9)",
              "m7b5",
              "min7",
              "min6",
              "min",
              "aug",
              "Maj6(9)",
              "Maj7(9)",
              "Maj(9)",
              "Maj7#11",
              "Maj7",
              "Maj6",
              "Maj"
            ],
            "autoStart": false,
            "sourceChordNote": 0,
            "sourceChordType": "7th",
            "ctb2Low": null,
            "ctb2Main": {
              "ntr": "ROOT_FIXED",
              "ntt": "CHORD",
              "bassOn": false,
              "chordRootUpperLimit": 6,
              "noteLowLimit": 0,
              "noteHighLimit": 127,
              "rtr": "PITCH_SHIFT"
            },
            "ctb2High": null
          },
          "notes": []
        },
        "4": {
          "ctab": {
            "srcChannel": 4,
            "name": "Strings1",
            "accType": "PAD",
            "editable": false,
            "mutedNotes": [],
            "mutedChords": [
              "7aug",
              "Maj7aug",
              "7(#9)",
              "7(b13)",
              "7(b9)",
              "7(13)",
              "7#11",
              "7(9)",
              "7b5",
              "7sus4",
              "7th",
              "dim7",
              "dim",
              "minMaj7(9)",
              "minMaj7",
              "min7(11)",
              "min7(9)",
              "min(9)",
              "m7b5",
              "min7",
              "min6",
              "min"
            ],
            "autoStart": false,
            "sourceChordNote": 0,
            "sourceChordType": "Maj7",
            "ctb2Low": null,
            "ctb2Main": {
              "ntr": "ROOT_FIXED",
              "ntt": "CHORD",
              "bassOn": false,
              "chordRootUpperLimit": 6,
              "noteLowLimit": 0,
              "noteHighLimit": 127,
              "rtr": "PITCH_SHIFT"
            },
            "ctb2High": null
          },
          "notes": []
        },
        "5": {
          "ctab": {
            "srcChannel": 5,
            "name": "Strings1",
            "accType": "PAD",
            "editable": false,
            "mutedNotes": [],
            "mutedChords": [
              "1+2+5",
              "sus4",
              "1+5",
              "1+8",
              "7aug",
              "Maj7aug",
              "7(#9)",
              "7(b13)",
              "7(b9)",
              "7(13)",
              "7#11",
              "7(9)",
              "7b5",
              "7sus4",
              "7th",
              "aug",
              "Maj6(9)",
              "Maj7(9)",
              "Maj(9)",
              "Maj7#11",
              "Maj7",
              "Maj6",
              "Maj"
            ],
            "autoStart": false,
            "sourceChordNote": 0,
            "sourceChordType": "minMaj7",
            "ctb2Low": null,
            "ctb2Main": {
              "ntr": "ROOT_FIXED",
              "ntt": "CHORD",
              "bassOn": false,
              "chordRootUpperLimit": 6,
              "noteLowLimit": 0,
              "noteHighLimit": 127,
              "rtr": "PITCH_SHIFT"
            },
            "ctb2High": null
          },
          "notes": []
        },
        "6": {
          "ctab": {
            "srcChannel": 6,
            "name": "Strings1",
            "accType": "PAD",
            "editable": false,
            "mutedNotes": [],
            "mutedChords": [
              "1+2+5",
              "sus4",
              "1+5",
              "1+8",
              "dim7",
              "dim",
              "minMaj7(9)",
              "minMaj7",
              "min7(11)",
              "min7(9)",
              "min(9)",
              "m7b5",
              "min7",
              "min6",
              "min",
              "aug",
              "Maj6(9)",
              "Maj7(9)",
              "Maj(9)",
              "Maj7#11",
              "Maj7",
              "Maj6",
              "Maj"
            ],
            "autoStart": false,
            "sourceChordNote": 0,
            "sourceChordType": "7th",
            "ctb2Low": null,
            "ctb2Main": {
              "ntr": "ROOT_FIXED",
              "ntt": "CHORD",
              "bassOn": false,
              "chordRootUpperLimit": 6,
              "noteLowLimit": 0,
              "noteHighLimit": 127,
              "rtr": "PITCH_SHIFT"
            },
            "ctb2High": null
          },
          "notes": []
        },
        "8": {
          "ctab": {
            "srcChannel": 8,
            "name": "Std.Kit1",
            "accType": "RHYTHM",
            "editable": false,
            "mutedNotes": [],
            "mutedChords": [
              "7aug",
              "Maj7aug",
              "7(#9)",
              "7(b13)",
              "7(b9)",
              "7(13)",
              "7#11",
              "7(9)",
              "7b5",
              "7sus4",
              "7th",
              "dim7",
              "dim",
              "minMaj7(9)",
              "minMaj7",
              "min7(11)",
              "min7(9)",
              "min(9)",
              "m7b5",
              "min7",
              "min6",
              "min"
            ],
            "autoStart": true,
            "sourceChordNote": 0,
            "sourceChordType": "Maj7",
            "ctb2Low": null,
            "ctb2Main": {
              "ntr": "ROOT_FIXED",
              "ntt": "BYPASS",
              "bassOn": false,
              "chordRootUpperLimit": 6,
              "noteLowLimit": 0,
              "noteHighLimit": 127,
              "rtr": "PITCH_SHIFT"
            },
            "ctb2High": null
          },
          "notes": [
            {
              "pitch": 35,
              "velocity": 83,
              "position": 0,
              "duration": 0.16666666666666666
            },
            {
              "pitch": 42,
              "velocity": 87,
              "position": 0,
              "duration": 0.16666666666666666
            },
            {
              "pitch": 50,
              "velocity": 60,
              "position": 0.3333333333333333,
              "duration": 0.0625
            },
            {
              "pitch": 50,
              "velocity": 66,
              "position": 0.4166666666666667,
              "duration": 0.0625
            },
            {
              "pitch": 50,
              "velocity": 70,
              "position": 0.5,
              "duration": 0.25
            },
            {
              "pitch": 42,
              "velocity": 87,
              "position": 1,
              "duration": 0.16666666666666666
            },
            {
              "pitch": 48,
              "velocity": 76,
              "position": 1.25,
              "duration": 0.25
            },
            {
              "pitch": 35,
              "velocity": 83,
              "position": 1.75,
              "duration": 0.16666666666666666
            },
            {
              "pitch": 49,
              "velocity": 79,
              "position": 0,
              "duration": 1.9791666666666667
            },
            {
              "pitch": 48,
              "velocity": 31,
              "position": 1.75,
              "duration": 0.22916666666666666
            },
            {
              "pitch": 35,
              "velocity": 83,
              "position": 2,
              "duration": 0.16666666666666666
            },
            {
              "pitch": 42,
              "velocity": 87,
              "position": 2,
              "duration": 0.16666666666666666
            },
            {
              "pitch": 48,
              "velocity": 76,
              "position": 2,
              "duration": 0.25
            },
            {
              "pitch": 47,
              "velocity": 78,
              "position": 2.5,
              "duration": 0.25
            },
            {
              "pitch": 35,
              "velocity": 83,
              "position": 3,
              "duration": 0.16666666666666666
            },
            {
              "pitch": 42,
              "velocity": 87,
              "position": 3,
              "duration": 0.16666666666666666
            },
            {
              "pitch": 45,
              "velocity": 93,
              "position": 3,
              "duration": 0.25
            },
            {
              "pitch": 35,
              "velocity": 83,
              "position": 3.25,
              "duration": 0.16666666666666666
            },
            {
              "pitch": 42,
              "velocity": 87,
              "position": 3.25,
              "duration": 0.16666666666666666
            },
            {
              "pitch": 43,
              "velocity": 73,
              "position": 3.25,
              "duration": 0.25
            },
            {
              "pitch": 35,
              "velocity": 83,
              "position": 3.5,
              "duration": 0.16666666666666666
            },
            {
              "pitch": 41,
              "velocity": 66,
              "position": 3.5,
              "duration": 0.25
            },
            {
              "pitch": 57,
              "velocity": 75,
              "position": 2,
              "duration": 1.9791666666666667
            },
            {
              "pitch": 46,
              "velocity": 53,
              "position": 3.5,
              "duration": 0.4791666666666667
            },
            {
              "pitch": 49,
              "velocity": 46,
              "position": 3.9583333333333335,
              "duration": 0.041666666666666664
            }
          ]
        },
        "9": {
          "ctab": {
            "srcChannel": 9,
            "name": "Std.Kit1",
            "accType": "RHYTHM",
            "editable": false,
            "mutedNotes": [],
            "mutedChords": [
              "1+2+5",
              "sus4",
              "1+5",
              "1+8",
              "aug",
              "Maj6(9)",
              "Maj7(9)",
              "Maj(9)",
              "Maj7#11",
              "Maj7",
              "Maj6",
              "Maj"
            ],
            "autoStart": false,
            "sourceChordNote": 0,
            "sourceChordType": "Maj7",
            "ctb2Low": null,
            "ctb2Main": {
              "ntr": "ROOT_FIXED",
              "ntt": "BYPASS",
              "bassOn": false,
              "chordRootUpperLimit": 6,
              "noteLowLimit": 0,
              "noteHighLimit": 127,
              "rtr": "PITCH_SHIFT"
            },
            "ctb2High": null
          },
          "notes": [
            {
              "pitch": 35,
              "velocity": 83,
              "position": 0,
              "duration": 0.16666666666666666
            },
            {
              "pitch": 42,
              "velocity": 87,
              "position": 0,
              "duration": 0.16666666666666666
            },
            {
              "pitch": 50,
              "velocity": 60,
              "position": 0.3333333333333333,
              "duration": 0.0625
            },
            {
              "pitch": 50,
              "velocity": 66,
              "position": 0.4166666666666667,
              "duration": 0.0625
            },
            {
              "pitch": 50,
              "velocity": 70,
              "position": 0.5,
              "duration": 0.25
            },
            {
              "pitch": 42,
              "velocity": 87,
              "position": 1,
              "duration": 0.16666666666666666
            },
            {
              "pitch": 48,
              "velocity": 76,
              "position": 1.25,
              "duration": 0.25
            },
            {
              "pitch": 35,
              "velocity": 83,
              "position": 1.75,
              "duration": 0.16666666666666666
            },
            {
              "pitch": 49,
              "velocity": 79,
              "position": 0,
              "duration": 1.9791666666666667
            },
            {
              "pitch": 48,
              "velocity": 31,
              "position": 1.75,
              "duration": 0.22916666666666666
            },
            {
              "pitch": 35,
              "velocity": 83,
              "position": 2,
              "duration": 0.16666666666666666
            },
            {
              "pitch": 42,
              "velocity": 87,
              "position": 2,
              "duration": 0.16666666666666666
            },
            {
              "pitch": 48,
              "velocity": 76,
              "position": 2,
              "duration": 0.25
            },
            {
              "pitch": 47,
              "velocity": 78,
              "position": 2.5,
              "duration": 0.25
            },
            {
              "pitch": 35,
              "velocity": 83,
              "position": 3,
              "duration": 0.16666666666666666
            },
            {
              "pitch": 42,
              "velocity": 87,
              "position": 3,
              "duration": 0.16666666666666666
            },
            {
              "pitch": 45,
              "velocity": 93,
              "position": 3,
              "duration": 0.25
            },
            {
              "pitch": 35,
              "velocity": 83,
              "position": 3.25,
              "duration": 0.16666666666666666
            },
            {
              "pitch": 42,
              "velocity": 87,
              "position": 3.25,
              "duration": 0.16666666666666666
            },
            {
              "pitch": 43,
              "velocity": 73,
              "position": 3.25,
              "duration": 0.25
            },
            {
              "pitch": 35,
              "velocity": 83,
              "position": 3.5,
              "duration": 0.16666666666666666
            },
            {
              "pitch": 41,
              "velocity": 66,
              "position": 3.5,
              "duration": 0.25
            },
            {
              "pitch": 57,
              "velocity": 75,
              "position": 2,
              "duration": 1.9791666666666667
            },
            {
              "pitch": 46,
              "velocity": 53,
              "position": 3.5,
              "duration": 0.4791666666666667
            },
            {
              "pitch": 49,
              "velocity": 46,
              "position": 3.9791666666666665,
              "duration": 0.020833333333333332
            }
          ]
        },
        "10": {
          "ctab": {
            "srcChannel": 10,
            "name": "Std.Kit1",
            "accType": "SUBRHYTHM",
            "editable": false,
            "mutedNotes": [],
            "mutedChords": [
              "dim7",
              "dim",
              "minMaj7(9)",
              "minMaj7",
              "min7(11)",
              "min7(9)",
              "min(9)",
              "m7b5",
              "min7",
              "min6",
              "min"
            ],
            "autoStart": true,
            "sourceChordNote": 0,
            "sourceChordType": "Maj7",
            "ctb2Low": null,
            "ctb2Main": {
              "ntr": "ROOT_FIXED",
              "ntt": "BYPASS",
              "bassOn": false,
              "chordRootUpperLimit": 6,
              "noteLowLimit": 0,
              "noteHighLimit": 127,
              "rtr": "PITCH_SHIFT"
            },
            "ctb2High": null
          },
          "notes": [
            {
              "pitch": 63,
              "velocity": 88,
              "position": 0,
              "duration": 0.125
            },
            {
              "pitch": 70,
              "velocity": 59,
              "position": 0.5,
              "duration": 0.125
            },
            {
              "pitch": 63,
              "velocity": 103,
              "position": 0.5,
              "duration": 0.125
            },
            {
              "pitch": 62,
              "velocity": 100,
              "position": 0.75,
              "duration": 0.125
            },
            {
              "pitch": 63,
              "velocity": 103,
              "position": 1,
              "duration": 0.125
            },
            {
              "pitch": 63,
              "velocity": 16,
              "position": 1.5,
              "duration": 0.10416666666666667
            },
            {
              "pitch": 70,
              "velocity": 59,
              "position": 1.5,
              "duration": 0.125
            },
            {
              "pitch": 69,
              "velocity": 54,
              "position": 1.5,
              "duration": 0.16666666666666666
            },
            {
              "pitch": 63,
              "velocity": 41,
              "position": 1.625,
              "duration": 0.10416666666666667
            },
            {
              "pitch": 63,
              "velocity": 63,
              "position": 1.75,
              "duration": 0.10416666666666667
            },
            {
              "pitch": 69,
              "velocity": 54,
              "position": 1.75,
              "duration": 0.16666666666666666
            },
            {
              "pitch": 63,
              "velocity": 88,
              "position": 1.875,
              "duration": 0.125
            },
            {
              "pitch": 62,
              "velocity": 120,
              "position": 2,
              "duration": 0.125
            },
            {
              "pitch": 70,
              "velocity": 59,
              "position": 2.5,
              "duration": 0.125
            },
            {
              "pitch": 62,
              "velocity": 62,
              "position": 2.5,
              "duration": 0.125
            },
            {
              "pitch": 64,
              "velocity": 95,
              "position": 3,
              "duration": 0.125
            },
            {
              "pitch": 81,
              "velocity": 25,
              "position": 3,
              "duration": 0.16666666666666666
            },
            {
              "pitch": 70,
              "velocity": 59,
              "position": 3.5,
              "duration": 0.125
            },
            {
              "pitch": 63,
              "velocity": 103,
              "position": 3.5,
              "duration": 0.125
            },
            {
              "pitch": 58,
              "velocity": 105,
              "position": 0,
              "duration": 4
            }
          ]
        },
        "11": {
          "ctab": {
            "srcChannel": 11,
            "name": "Std.Kit1",
            "accType": "SUBRHYTHM",
            "editable": false,
            "mutedNotes": [],
            "mutedChords": [
              "1+2+5",
              "sus4",
              "1+5",
              "1+8",
              "7aug",
              "Maj7aug",
              "7(#9)",
              "7(b13)",
              "7(b9)",
              "7(13)",
              "7#11",
              "7(9)",
              "7b5",
              "7sus4",
              "7th",
              "aug",
              "Maj6(9)",
              "Maj7(9)",
              "Maj(9)",
              "Maj7#11",
              "Maj7",
              "Maj6",
              "Maj"
            ],
            "autoStart": false,
            "sourceChordNote": 0,
            "sourceChordType": "Maj7",
            "ctb2Low": null,
            "ctb2Main": {
              "ntr": "ROOT_FIXED",
              "ntt": "BYPASS",
              "bassOn": false,
              "chordRootUpperLimit": 6,
              "noteLowLimit": 0,
              "noteHighLimit": 127,
              "rtr": "PITCH_SHIFT"
            },
            "ctb2High": null
          },
          "notes": [
            {
              "pitch": 63,
              "velocity": 88,
              "position": 0,
              "duration": 0.125
            },
            {
              "pitch": 70,
              "velocity": 59,
              "position": 0.5,
              "duration": 0.125
            },
            {
              "pitch": 63,
              "velocity": 103,
              "position": 0.5,
              "duration": 0.125
            },
            {
              "pitch": 62,
              "velocity": 100,
              "position": 0.75,
              "duration": 0.125
            },
            {
              "pitch": 63,
              "velocity": 103,
              "position": 1,
              "duration": 0.125
            },
            {
              "pitch": 63,
              "velocity": 16,
              "position": 1.5,
              "duration": 0.10416666666666667
            },
            {
              "pitch": 70,
              "velocity": 59,
              "position": 1.5,
              "duration": 0.125
            },
            {
              "pitch": 69,
              "velocity": 54,
              "position": 1.5,
              "duration": 0.16666666666666666
            },
            {
              "pitch": 63,
              "velocity": 41,
              "position": 1.625,
              "duration": 0.10416666666666667
            },
            {
              "pitch": 63,
              "velocity": 63,
              "position": 1.75,
              "duration": 0.10416666666666667
            },
            {
              "pitch": 69,
              "velocity": 54,
              "position": 1.75,
              "duration": 0.16666666666666666
            },
            {
              "pitch": 63,
              "velocity": 88,
              "position": 1.875,
              "duration": 0.125
            },
            {
              "pitch": 62,
              "velocity": 120,
              "position": 2,
              "duration": 0.125
            },
            {
              "pitch": 70,
              "velocity": 59,
              "position": 2.5,
              "duration": 0.125
            },
            {
              "pitch": 62,
              "velocity": 62,
              "position": 2.5,
              "duration": 0.125
            },
            {
              "pitch": 64,
              "velocity": 95,
              "position": 3,
              "duration": 0.125
            },
            {
              "pitch": 81,
              "velocity": 25,
              "position": 3,
              "duration": 0.16666666666666666
            },
            {
              "pitch": 70,
              "velocity": 59,
              "position": 3.5,
              "duration": 0.125
            },
            {
              "pitch": 63,
              "velocity": 103,
              "position": 3.5,
              "duration": 0.125
            },
            {
              "pitch": 58,
              "velocity": 105,
              "position": 0,
              "duration": 3.9791666666666665
            }
          ]
        },
        "12": {
          "ctab": {
            "srcChannel": 12,
            "name": "Fretless",
            "accType": "BASS",
            "editable": false,
            "mutedNotes": [],
            "mutedChords": [
              "dim7",
              "dim",
              "minMaj7(9)",
              "minMaj7",
              "min7(11)",
              "min7(9)",
              "min(9)",
              "m7b5",
              "min7",
              "min6",
              "min"
            ],
            "autoStart": false,
            "sourceChordNote": 0,
            "sourceChordType": "Maj7",
            "ctb2Low": null,
            "ctb2Main": {
              "ntr": "ROOT_TRANSPOSITION",
              "ntt": "MELODY",
              "bassOn": true,
              "chordRootUpperLimit": 3,
              "noteLowLimit": 28,
              "noteHighLimit": 54,
              "rtr": "PITCH_SHIFT_TO_ROOT"
            },
            "ctb2High": null
          },
          "notes": [
            {
              "pitch": 36,
              "velocity": 96,
              "position": 0,
              "duration": 0.2916666666666667
            },
            {
              "pitch": 50,
              "velocity": 96,
              "position": 0.5,
              "duration": 0.7291666666666666
            },
            {
              "pitch": 48,
              "velocity": 96,
              "position": 1.25,
              "duration": 0.7291666666666666
            },
            {
              "pitch": 45,
              "velocity": 96,
              "position": 2,
              "duration": 0.7291666666666666
            },
            {
              "pitch": 43,
              "velocity": 96,
              "position": 2.75,
              "duration": 0.22916666666666666
            },
            {
              "pitch": 40,
              "velocity": 96,
              "position": 3,
              "duration": 0.22916666666666666
            },
            {
              "pitch": 36,
              "velocity": 96,
              "position": 3.25,
              "duration": 0.22916666666666666
            },
            {
              "pitch": 31,
              "velocity": 96,
              "position": 3.5,
              "duration": 0.4375
            }
          ]
        },
        "13": {
          "ctab": {
            "srcChannel": 13,
            "name": "Fretless",
            "accType": "BASS",
            "editable": false,
            "mutedNotes": [],
            "mutedChords": [
              "1+2+5",
              "sus4",
              "1+5",
              "1+8",
              "7aug",
              "Maj7aug",
              "7(#9)",
              "7(b13)",
              "7(b9)",
              "7(13)",
              "7#11",
              "7(9)",
              "7b5",
              "7sus4",
              "7th",
              "aug",
              "Maj6(9)",
              "Maj7(9)",
              "Maj(9)",
              "Maj7#11",
              "Maj7",
              "Maj6",
              "Maj"
            ],
            "autoStart": false,
            "sourceChordNote": 0,
            "sourceChordType": "Maj7",
            "ctb2Low": null,
            "ctb2Main": {
              "ntr": "ROOT_TRANSPOSITION",
              "ntt": "MELODY",
              "bassOn": true,
              "chordRootUpperLimit": 3,
              "noteLowLimit": 28,
              "noteHighLimit": 54,
              "rtr": "PITCH_SHIFT_TO_ROOT"
            },
            "ctb2High": null
          },
          "notes": [
            {
              "pitch": 36,
              "velocity": 96,
              "position": 0,
              "duration": 0.3125
            },
            {
              "pitch": 48,
              "velocity": 96,
              "position": 0.5,
              "duration": 0.7291666666666666
            },
            {
              "pitch": 36,
              "velocity": 96,
              "position": 1.25,
              "duration": 0.6666666666666666
            },
            {
              "pitch": 48,
              "velocity": 96,
              "position": 2,
              "duration": 0.7291666666666666
            },
            {
              "pitch": 36,
              "velocity": 96,
              "position": 2.75,
              "duration": 0.22916666666666666
            },
            {
              "pitch": 48,
              "velocity": 96,
              "position": 3,
              "duration": 0.22916666666666666
            },
            {
              "pitch": 36,
              "velocity": 96,
              "position": 3.25,
              "duration": 0.22916666666666666
            },
            {
              "pitch": 48,
              "velocity": 96,
              "position": 3.5,
              "duration": 0.4791666666666667
            }
          ]
        },
        "15": {
          "ctab": {
            "srcChannel": 15,
            "name": "SteelGtr",
            "accType": "CHORD1",
            "editable": false,
            "mutedNotes": [],
            "mutedChords": [
              "7aug",
              "Maj7aug",
              "7(#9)",
              "7(b13)",
              "7(b9)",
              "7(13)",
              "7#11",
              "7(9)",
              "7b5",
              "7sus4",
              "7th",
              "dim7",
              "dim",
              "minMaj7(9)",
              "minMaj7",
              "min7(11)",
              "min7(9)",
              "min(9)",
              "m7b5",
              "min7",
              "min6",
              "min"
            ],
            "autoStart": false,
            "sourceChordNote": 0,
            "sourceChordType": "Maj7",
            "ctb2Low": null,
            "ctb2Main": {
              "ntr": "ROOT_TRANSPOSITION",
              "ntt": "CHORD",
              "bassOn": false,
              "chordRootUpperLimit": 6,
              "noteLowLimit": 0,
              "noteHighLimit": 127,
              "rtr": "PITCH_SHIFT"
            },
            "ctb2High": null
          },
          "notes": []
        }
      }
    },
    "Fill_In_BA": {
      "type": "Fill_In_BA",
      "sizeInBeats": 4,
      "channels": {
        "0": {
          "ctab": {
            "srcChannel": 0,
            "name": "SteelGtr",
            "accType": "CHORD1",
            "editable": false,
            "mutedNotes": [],
            "mutedChords": [
              "1+2+5",
              "sus4",
              "1+5",
              "1+8",
              "7aug",
              "Maj7aug",
              "7(#9)",
              "7(b13)",
              "7(b9)",
              "7(13)",
              "7#11",
              "7(9)",
              "7b5",
              "7sus4",
              "7th",
              "aug",
              "Maj6(9)",
              "Maj7(9)",
              "Maj(9)",
              "Maj7#11",
              "Maj7",
              "Maj6",
              "Maj"
            ],
            "autoStart": false,
            "sourceChordNote": 0,
            "sourceChordType": "minMaj7",
            "ctb2Low": null,
            "ctb2Main": {
              "ntr": "ROOT_FIXED",
              "ntt": "CHORD",
              "bassOn": false,
              "chordRootUpperLimit": 6,
              "noteLowLimit": 0,
              "noteHighLimit": 127,
              "rtr": "PITCH_SHIFT"
            },
            "ctb2High": null
          },
          "notes": [
            {
              "pitch": 59,
              "velocity": 99,
              "position": 0,
              "duration": 0.9791666666666666
            },
            {
              "pitch": 63,
              "velocity": 100,
              "position": 0.020833333333333332,
              "duration": 0.9583333333333334
            },
            {
              "pitch": 67,
              "velocity": 100,
              "position": 0.041666666666666664,
              "duration": 0.9375
            },
            {
              "pitch": 55,
              "velocity": 99,
              "position": 0,
              "duration": 1.4583333333333333
            },
            {
              "pitch": 59,
              "velocity": 97,
              "position": 1,
              "duration": 0.9791666666666666
            },
            {
              "pitch": 67,
              "velocity": 97,
              "position": 1,
              "duration": 0.9791666666666666
            },
            {
              "pitch": 63,
              "velocity": 97,
              "position": 1,
              "duration": 0.9791666666666666
            },
            {
              "pitch": 55,
              "velocity": 97,
              "position": 1.5,
              "duration": 0.4791666666666667
            },
            {
              "pitch": 55,
              "velocity": 99,
              "position": 2,
              "duration": 0.4583333333333333
            },
            {
              "pitch": 55,
              "velocity": 67,
              "position": 2.5,
              "duration": 0.4791666666666667
            },
            {
              "pitch": 59,
              "velocity": 99,
              "position": 2,
              "duration": 1.0208333333333333
            },
            {
              "pitch": 55,
              "velocity": 100,
              "position": 3,
              "duration": 0.25
            },
            {
              "pitch": 67,
              "velocity": 100,
              "position": 2.0416666666666665,
              "duration": 1.4375
            },
            {
              "pitch": 63,
              "velocity": 100,
              "position": 2.0208333333333335,
              "duration": 1.9791666666666667
            },
            {
              "pitch": 59,
              "velocity": 100,
              "position": 3.25,
              "duration": 0.75
            },
            {
              "pitch": 67,
              "velocity": 98,
              "position": 3.5,
              "duration": 0.5
            }
          ]
        },
        "1": {
          "ctab": {
            "srcChannel": 1,
            "name": "SteelGtr",
            "accType": "CHORD1",
            "editable": false,
            "mutedNotes": [],
            "mutedChords": [
              "1+2+5",
              "sus4",
              "1+5",
              "1+8",
              "dim7",
              "dim",
              "minMaj7(9)",
              "minMaj7",
              "min7(11)",
              "min7(9)",
              "min(9)",
              "m7b5",
              "min7",
              "min6",
              "min",
              "aug",
              "Maj6(9)",
              "Maj7(9)",
              "Maj(9)",
              "Maj7#11",
              "Maj7",
              "Maj6",
              "Maj"
            ],
            "autoStart": false,
            "sourceChordNote": 0,
            "sourceChordType": "7th",
            "ctb2Low": null,
            "ctb2Main": {
              "ntr": "ROOT_TRANSPOSITION",
              "ntt": "CHORD",
              "bassOn": false,
              "chordRootUpperLimit": 6,
              "noteLowLimit": 0,
              "noteHighLimit": 127,
              "rtr": "PITCH_SHIFT"
            },
            "ctb2High": null
          },
          "notes": [
            {
              "pitch": 55,
              "velocity": 99,
              "position": 0,
              "duration": 0.9791666666666666
            },
            {
              "pitch": 64,
              "velocity": 100,
              "position": 0.020833333333333332,
              "duration": 0.9583333333333334
            },
            {
              "pitch": 70,
              "velocity": 100,
              "position": 0.041666666666666664,
              "duration": 0.9375
            },
            {
              "pitch": 58,
              "velocity": 99,
              "position": 0,
              "duration": 1.4583333333333333
            },
            {
              "pitch": 55,
              "velocity": 97,
              "position": 1,
              "duration": 0.9791666666666666
            },
            {
              "pitch": 64,
              "velocity": 97,
              "position": 1,
              "duration": 0.9791666666666666
            },
            {
              "pitch": 70,
              "velocity": 97,
              "position": 1,
              "duration": 0.9791666666666666
            },
            {
              "pitch": 58,
              "velocity": 97,
              "position": 1.5,
              "duration": 0.4791666666666667
            },
            {
              "pitch": 58,
              "velocity": 99,
              "position": 2,
              "duration": 0.4583333333333333
            },
            {
              "pitch": 55,
              "velocity": 99,
              "position": 2,
              "duration": 0.9791666666666666
            },
            {
              "pitch": 57,
              "velocity": 100,
              "position": 3,
              "duration": 0.25
            },
            {
              "pitch": 70,
              "velocity": 100,
              "position": 2.0416666666666665,
              "duration": 1.4375
            },
            {
              "pitch": 64,
              "velocity": 100,
              "position": 2.0208333333333335,
              "duration": 1.9791666666666667
            },
            {
              "pitch": 58,
              "velocity": 67,
              "position": 2.5,
              "duration": 1.5
            },
            {
              "pitch": 55,
              "velocity": 100,
              "position": 3.25,
              "duration": 0.75
            },
            {
              "pitch": 70,
              "velocity": 98,
              "position": 3.5,
              "duration": 0.5
            }
          ]
        },
        "2": {
          "ctab": {
            "srcChannel": 2,
            "name": "SteelGtr",
            "accType": "CHORD2",
            "editable": false,
            "mutedNotes": [],
            "mutedChords": [
              "7aug",
              "Maj7aug",
              "7(#9)",
              "7(b13)",
              "7(b9)",
              "7(13)",
              "7#11",
              "7(9)",
              "7b5",
              "7sus4",
              "7th"
            ],
            "autoStart": false,
            "sourceChordNote": 0,
            "sourceChordType": "Maj7",
            "ctb2Low": null,
            "ctb2Main": {
              "ntr": "ROOT_FIXED",
              "ntt": "CHORD",
              "bassOn": false,
              "chordRootUpperLimit": 6,
              "noteLowLimit": 0,
              "noteHighLimit": 127,
              "rtr": "PITCH_SHIFT"
            },
            "ctb2High": null
          },
          "notes": [
            {
              "pitch": 55,
              "velocity": 97,
              "position": 0,
              "duration": 0.4791666666666667
            },
            {
              "pitch": 59,
              "velocity": 97,
              "position": 0,
              "duration": 0.4791666666666667
            },
            {
              "pitch": 64,
              "velocity": 98,
              "position": 0,
              "duration": 0.4791666666666667
            },
            {
              "pitch": 55,
              "velocity": 97,
              "position": 0.5,
              "duration": 0.9791666666666666
            },
            {
              "pitch": 59,
              "velocity": 97,
              "position": 0.5,
              "duration": 0.9791666666666666
            },
            {
              "pitch": 64,
              "velocity": 98,
              "position": 0.5,
              "duration": 0.9791666666666666
            },
            {
              "pitch": 55,
              "velocity": 95,
              "position": 1.5,
              "duration": 0.22916666666666666
            },
            {
              "pitch": 59,
              "velocity": 95,
              "position": 1.5,
              "duration": 0.22916666666666666
            },
            {
              "pitch": 64,
              "velocity": 96,
              "position": 1.5,
              "duration": 0.22916666666666666
            },
            {
              "pitch": 48,
              "velocity": 100,
              "position": 0,
              "duration": 1.75
            },
            {
              "pitch": 55,
              "velocity": 74,
              "position": 1.75,
              "duration": 0.10416666666666667
            },
            {
              "pitch": 59,
              "velocity": 74,
              "position": 1.75,
              "duration": 0.10416666666666667
            },
            {
              "pitch": 64,
              "velocity": 74,
              "position": 1.75,
              "duration": 0.10416666666666667
            },
            {
              "pitch": 55,
              "velocity": 97,
              "position": 1.875,
              "duration": 0.10416666666666667
            },
            {
              "pitch": 59,
              "velocity": 97,
              "position": 1.875,
              "duration": 0.10416666666666667
            },
            {
              "pitch": 64,
              "velocity": 97,
              "position": 1.875,
              "duration": 0.10416666666666667
            },
            {
              "pitch": 55,
              "velocity": 95,
              "position": 2,
              "duration": 0.4791666666666667
            },
            {
              "pitch": 59,
              "velocity": 97,
              "position": 2,
              "duration": 0.4791666666666667
            },
            {
              "pitch": 64,
              "velocity": 96,
              "position": 2,
              "duration": 0.4791666666666667
            },
            {
              "pitch": 55,
              "velocity": 74,
              "position": 2.5,
              "duration": 0.22916666666666666
            },
            {
              "pitch": 59,
              "velocity": 74,
              "position": 2.5,
              "duration": 0.22916666666666666
            },
            {
              "pitch": 64,
              "velocity": 74,
              "position": 2.5,
              "duration": 0.22916666666666666
            },
            {
              "pitch": 48,
              "velocity": 100,
              "position": 2,
              "duration": 0.8333333333333334
            },
            {
              "pitch": 55,
              "velocity": 97,
              "position": 2.75,
              "duration": 0.22916666666666666
            },
            {
              "pitch": 59,
              "velocity": 97,
              "position": 2.75,
              "duration": 0.22916666666666666
            },
            {
              "pitch": 64,
              "velocity": 97,
              "position": 2.75,
              "duration": 0.22916666666666666
            },
            {
              "pitch": 52,
              "velocity": 98,
              "position": 3,
              "duration": 0.4791666666666667
            },
            {
              "pitch": 55,
              "velocity": 96,
              "position": 3,
              "duration": 0.4791666666666667
            },
            {
              "pitch": 59,
              "velocity": 97,
              "position": 3,
              "duration": 0.4791666666666667
            },
            {
              "pitch": 64,
              "velocity": 97,
              "position": 3,
              "duration": 0.4791666666666667
            },
            {
              "pitch": 55,
              "velocity": 74,
              "position": 3.5,
              "duration": 0.22916666666666666
            },
            {
              "pitch": 59,
              "velocity": 74,
              "position": 3.5,
              "duration": 0.22916666666666666
            },
            {
              "pitch": 64,
              "velocity": 74,
              "position": 3.5,
              "duration": 0.22916666666666666
            },
            {
              "pitch": 52,
              "velocity": 100,
              "position": 3.5,
              "duration": 0.5
            },
            {
              "pitch": 55,
              "velocity": 97,
              "position": 3.75,
              "duration": 0.25
            },
            {
              "pitch": 59,
              "velocity": 97,
              "position": 3.75,
              "duration": 0.25
            },
            {
              "pitch": 64,
              "velocity": 97,
              "position": 3.75,
              "duration": 0.25
            }
          ]
        },
        "3": {
          "ctab": {
            "srcChannel": 3,
            "name": "SteelGtr",
            "accType": "CHORD2",
            "editable": false,
            "mutedNotes": [],
            "mutedChords": [
              "1+2+5",
              "sus4",
              "1+5",
              "1+8",
              "dim7",
              "dim",
              "minMaj7(9)",
              "minMaj7",
              "min7(11)",
              "min7(9)",
              "min(9)",
              "m7b5",
              "min7",
              "min6",
              "min",
              "aug",
              "Maj6(9)",
              "Maj7(9)",
              "Maj(9)",
              "Maj7#11",
              "Maj7",
              "Maj6",
              "Maj"
            ],
            "autoStart": false,
            "sourceChordNote": 0,
            "sourceChordType": "7th",
            "ctb2Low": null,
            "ctb2Main": {
              "ntr": "ROOT_FIXED",
              "ntt": "CHORD",
              "bassOn": false,
              "chordRootUpperLimit": 6,
              "noteLowLimit": 0,
              "noteHighLimit": 127,
              "rtr": "PITCH_SHIFT"
            },
            "ctb2High": null
          },
          "notes": [
            {
              "pitch": 58,
              "velocity": 97,
              "position": 0,
              "duration": 0.4791666666666667
            },
            {
              "pitch": 55,
              "velocity": 97,
              "position": 0,
              "duration": 0.4791666666666667
            },
            {
              "pitch": 64,
              "velocity": 98,
              "position": 0,
              "duration": 0.4791666666666667
            },
            {
              "pitch": 58,
              "velocity": 97,
              "position": 0.5,
              "duration": 0.9791666666666666
            },
            {
              "pitch": 55,
              "velocity": 97,
              "position": 0.5,
              "duration": 0.9791666666666666
            },
            {
              "pitch": 64,
              "velocity": 98,
              "position": 0.5,
              "duration": 0.9791666666666666
            },
            {
              "pitch": 58,
              "velocity": 95,
              "position": 1.5,
              "duration": 0.22916666666666666
            },
            {
              "pitch": 55,
              "velocity": 95,
              "position": 1.5,
              "duration": 0.22916666666666666
            },
            {
              "pitch": 64,
              "velocity": 96,
              "position": 1.5,
              "duration": 0.22916666666666666
            },
            {
              "pitch": 48,
              "velocity": 100,
              "position": 0,
              "duration": 1.75
            },
            {
              "pitch": 58,
              "velocity": 74,
              "position": 1.75,
              "duration": 0.10416666666666667
            },
            {
              "pitch": 55,
              "velocity": 74,
              "position": 1.75,
              "duration": 0.10416666666666667
            },
            {
              "pitch": 64,
              "velocity": 74,
              "position": 1.75,
              "duration": 0.10416666666666667
            },
            {
              "pitch": 58,
              "velocity": 97,
              "position": 1.875,
              "duration": 0.10416666666666667
            },
            {
              "pitch": 55,
              "velocity": 97,
              "position": 1.875,
              "duration": 0.10416666666666667
            },
            {
              "pitch": 64,
              "velocity": 97,
              "position": 1.875,
              "duration": 0.10416666666666667
            },
            {
              "pitch": 58,
              "velocity": 95,
              "position": 2,
              "duration": 0.4791666666666667
            },
            {
              "pitch": 55,
              "velocity": 97,
              "position": 2,
              "duration": 0.4791666666666667
            },
            {
              "pitch": 64,
              "velocity": 96,
              "position": 2,
              "duration": 0.4791666666666667
            },
            {
              "pitch": 58,
              "velocity": 74,
              "position": 2.5,
              "duration": 0.22916666666666666
            },
            {
              "pitch": 55,
              "velocity": 74,
              "position": 2.5,
              "duration": 0.22916666666666666
            },
            {
              "pitch": 64,
              "velocity": 74,
              "position": 2.5,
              "duration": 0.22916666666666666
            },
            {
              "pitch": 48,
              "velocity": 100,
              "position": 2,
              "duration": 0.8333333333333334
            },
            {
              "pitch": 58,
              "velocity": 97,
              "position": 2.75,
              "duration": 0.22916666666666666
            },
            {
              "pitch": 55,
              "velocity": 97,
              "position": 2.75,
              "duration": 0.22916666666666666
            },
            {
              "pitch": 64,
              "velocity": 97,
              "position": 2.75,
              "duration": 0.22916666666666666
            },
            {
              "pitch": 52,
              "velocity": 98,
              "position": 3,
              "duration": 0.4791666666666667
            },
            {
              "pitch": 58,
              "velocity": 96,
              "position": 3,
              "duration": 0.4791666666666667
            },
            {
              "pitch": 55,
              "velocity": 97,
              "position": 3,
              "duration": 0.4791666666666667
            },
            {
              "pitch": 64,
              "velocity": 97,
              "position": 3,
              "duration": 0.4791666666666667
            },
            {
              "pitch": 58,
              "velocity": 74,
              "position": 3.5,
              "duration": 0.22916666666666666
            },
            {
              "pitch": 55,
              "velocity": 74,
              "position": 3.5,
              "duration": 0.22916666666666666
            },
            {
              "pitch": 64,
              "velocity": 74,
              "position": 3.5,
              "duration": 0.22916666666666666
            },
            {
              "pitch": 52,
              "velocity": 100,
              "position": 3.5,
              "duration": 0.5
            },
            {
              "pitch": 58,
              "velocity": 97,
              "position": 3.75,
              "duration": 0.25
            },
            {
              "pitch": 55,
              "velocity": 97,
              "position": 3.75,
              "duration": 0.25
            },
            {
              "pitch": 64,
              "velocity": 97,
              "position": 3.75,
              "duration": 0.25
            }
          ]
        },
        "4": {
          "ctab": {
            "srcChannel": 4,
            "name": "Strings1",
            "accType": "PAD",
            "editable": false,
            "mutedNotes": [],
            "mutedChords": [
              "7aug",
              "Maj7aug",
              "7(#9)",
              "7(b13)",
              "7(b9)",
              "7(13)",
              "7#11",
              "7(9)",
              "7b5",
              "7sus4",
              "7th",
              "dim7",
              "dim",
              "minMaj7(9)",
              "minMaj7",
              "min7(11)",
              "min7(9)",
              "min(9)",
              "m7b5",
              "min7",
              "min6",
              "min"
            ],
            "autoStart": false,
            "sourceChordNote": 0,
            "sourceChordType": "Maj7",
            "ctb2Low": null,
            "ctb2Main": {
              "ntr": "ROOT_FIXED",
              "ntt": "CHORD",
              "bassOn": false,
              "chordRootUpperLimit": 6,
              "noteLowLimit": 0,
              "noteHighLimit": 127,
              "rtr": "PITCH_SHIFT"
            },
            "ctb2High": null
          },
          "notes": []
        },
        "5": {
          "ctab": {
            "srcChannel": 5,
            "name": "Strings1",
            "accType": "PAD",
            "editable": false,
            "mutedNotes": [],
            "mutedChords": [
              "1+2+5",
              "sus4",
              "1+5",
              "1+8",
              "7aug",
              "Maj7aug",
              "7(#9)",
              "7(b13)",
              "7(b9)",
              "7(13)",
              "7#11",
              "7(9)",
              "7b5",
              "7sus4",
              "7th",
              "aug",
              "Maj6(9)",
              "Maj7(9)",
              "Maj(9)",
              "Maj7#11",
              "Maj7",
              "Maj6",
              "Maj"
            ],
            "autoStart": false,
            "sourceChordNote": 0,
            "sourceChordType": "minMaj7",
            "ctb2Low": null,
            "ctb2Main": {
              "ntr": "ROOT_FIXED",
              "ntt": "CHORD",
              "bassOn": false,
              "chordRootUpperLimit": 6,
              "noteLowLimit": 0,
              "noteHighLimit": 127,
              "rtr": "PITCH_SHIFT"
            },
            "ctb2High": null
          },
          "notes": []
        },
        "6": {
          "ctab": {
            "srcChannel": 6,
            "name": "Strings1",
            "accType": "PAD",
            "editable": false,
            "mutedNotes": [],
            "mutedChords": [
              "1+2+5",
              "sus4",
              "1+5",
              "1+8",
              "dim7",
              "dim",
              "minMaj7(9)",
              "minMaj7",
              "min7(11)",
              "min7(9)",
              "min(9)",
              "m7b5",
              "min7",
              "min6",
              "min",
              "aug",
              "Maj6(9)",
              "Maj7(9)",
              "Maj(9)",
              "Maj7#11",
              "Maj7",
              "Maj6",
              "Maj"
            ],
            "autoStart": false,
            "sourceChordNote": 0,
            "sourceChordType": "7th",
            "ctb2Low": null,
            "ctb2Main": {
              "ntr": "ROOT_FIXED",
              "ntt": "CHORD",
              "bassOn": false,
              "chordRootUpperLimit": 6,
              "noteLowLimit": 0,
              "noteHighLimit": 127,
              "rtr": "PITCH_SHIFT"
            },
            "ctb2High": null
          },
          "notes": []
        },
        "8": {
          "ctab": {
            "srcChannel": 8,
            "name": "Std.Kit1",
            "accType": "RHYTHM",
            "editable": false,
            "mutedNotes": [],
            "mutedChords": [
              "7aug",
              "Maj7aug",
              "7(#9)",
              "7(b13)",
              "7(b9)",
              "7(13)",
              "7#11",
              "7(9)",
              "7b5",
              "7sus4",
              "7th",
              "dim7",
              "dim",
              "minMaj7(9)",
              "minMaj7",
              "min7(11)",
              "min7(9)",
              "min(9)",
              "m7b5",
              "min7",
              "min6",
              "min"
            ],
            "autoStart": true,
            "sourceChordNote": 0,
            "sourceChordType": "Maj7",
            "ctb2Low": null,
            "ctb2Main": {
              "ntr": "ROOT_FIXED",
              "ntt": "BYPASS",
              "bassOn": false,
              "chordRootUpperLimit": 6,
              "noteLowLimit": 0,
              "noteHighLimit": 127,
              "rtr": "PITCH_SHIFT"
            },
            "ctb2High": null
          },
          "notes": [
            {
              "pitch": 35,
              "velocity": 83,
              "position": 0,
              "duration": 0.16666666666666666
            },
            {
              "pitch": 42,
              "velocity": 87,
              "position": 0,
              "duration": 0.16666666666666666
            },
            {
              "pitch": 50,
              "velocity": 60,
              "position": 0.3333333333333333,
              "duration": 0.0625
            },
            {
              "pitch": 50,
              "velocity": 66,
              "position": 0.4166666666666667,
              "duration": 0.0625
            },
            {
              "pitch": 50,
              "velocity": 70,
              "position": 0.5,
              "duration": 0.25
            },
            {
              "pitch": 42,
              "velocity": 87,
              "position": 1,
              "duration": 0.16666666666666666
            },
            {
              "pitch": 48,
              "velocity": 76,
              "position": 1.25,
              "duration": 0.25
            },
            {
              "pitch": 35,
              "velocity": 83,
              "position": 1.75,
              "duration": 0.16666666666666666
            },
            {
              "pitch": 49,
              "velocity": 79,
              "position": 0,
              "duration": 1.9791666666666667
            },
            {
              "pitch": 48,
              "velocity": 31,
              "position": 1.75,
              "duration": 0.22916666666666666
            },
            {
              "pitch": 35,
              "velocity": 83,
              "position": 2,
              "duration": 0.16666666666666666
            },
            {
              "pitch": 42,
              "velocity": 87,
              "position": 2,
              "duration": 0.16666666666666666
            },
            {
              "pitch": 48,
              "velocity": 76,
              "position": 2,
              "duration": 0.25
            },
            {
              "pitch": 47,
              "velocity": 78,
              "position": 2.5,
              "duration": 0.25
            },
            {
              "pitch": 35,
              "velocity": 83,
              "position": 3,
              "duration": 0.16666666666666666
            },
            {
              "pitch": 42,
              "velocity": 87,
              "position": 3,
              "duration": 0.16666666666666666
            },
            {
              "pitch": 45,
              "velocity": 93,
              "position": 3,
              "duration": 0.25
            },
            {
              "pitch": 35,
              "velocity": 83,
              "position": 3.25,
              "duration": 0.16666666666666666
            },
            {
              "pitch": 42,
              "velocity": 87,
              "position": 3.25,
              "duration": 0.16666666666666666
            },
            {
              "pitch": 43,
              "velocity": 73,
              "position": 3.25,
              "duration": 0.25
            },
            {
              "pitch": 35,
              "velocity": 83,
              "position": 3.5,
              "duration": 0.16666666666666666
            },
            {
              "pitch": 41,
              "velocity": 66,
              "position": 3.5,
              "duration": 0.25
            },
            {
              "pitch": 57,
              "velocity": 75,
              "position": 2,
              "duration": 1.9791666666666667
            },
            {
              "pitch": 46,
              "velocity": 53,
              "position": 3.5,
              "duration": 0.4791666666666667
            },
            {
              "pitch": 49,
              "velocity": 46,
              "position": 3.9583333333333335,
              "duration": 0.041666666666666664
            }
          ]
        },
        "9": {
          "ctab": {
            "srcChannel": 9,
            "name": "Std.Kit1",
            "accType": "RHYTHM",
            "editable": false,
            "mutedNotes": [],
            "mutedChords": [
              "1+2+5",
              "sus4",
              "1+5",
              "1+8",
              "aug",
              "Maj6(9)",
              "Maj7(9)",
              "Maj(9)",
              "Maj7#11",
              "Maj7",
              "Maj6",
              "Maj"
            ],
            "autoStart": false,
            "sourceChordNote": 0,
            "sourceChordType": "Maj7",
            "ctb2Low": null,
            "ctb2Main": {
              "ntr": "ROOT_FIXED",
              "ntt": "BYPASS",
              "bassOn": false,
              "chordRootUpperLimit": 6,
              "noteLowLimit": 0,
              "noteHighLimit": 127,
              "rtr": "PITCH_SHIFT"
            },
            "ctb2High": null
          },
          "notes": [
            {
              "pitch": 35,
              "velocity": 83,
              "position": 0,
              "duration": 0.16666666666666666
            },
            {
              "pitch": 42,
              "velocity": 87,
              "position": 0,
              "duration": 0.16666666666666666
            },
            {
              "pitch": 50,
              "velocity": 60,
              "position": 0.3333333333333333,
              "duration": 0.0625
            },
            {
              "pitch": 50,
              "velocity": 66,
              "position": 0.4166666666666667,
              "duration": 0.0625
            },
            {
              "pitch": 50,
              "velocity": 70,
              "position": 0.5,
              "duration": 0.25
            },
            {
              "pitch": 42,
              "velocity": 87,
              "position": 1,
              "duration": 0.16666666666666666
            },
            {
              "pitch": 48,
              "velocity": 76,
              "position": 1.25,
              "duration": 0.25
            },
            {
              "pitch": 35,
              "velocity": 83,
              "position": 1.75,
              "duration": 0.16666666666666666
            },
            {
              "pitch": 49,
              "velocity": 79,
              "position": 0,
              "duration": 1.9791666666666667
            },
            {
              "pitch": 48,
              "velocity": 31,
              "position": 1.75,
              "duration": 0.22916666666666666
            },
            {
              "pitch": 35,
              "velocity": 83,
              "position": 2,
              "duration": 0.16666666666666666
            },
            {
              "pitch": 42,
              "velocity": 87,
              "position": 2,
              "duration": 0.16666666666666666
            },
            {
              "pitch": 48,
              "velocity": 76,
              "position": 2,
              "duration": 0.25
            },
            {
              "pitch": 47,
              "velocity": 78,
              "position": 2.5,
              "duration": 0.25
            },
            {
              "pitch": 35,
              "velocity": 83,
              "position": 3,
              "duration": 0.16666666666666666
            },
            {
              "pitch": 42,
              "velocity": 87,
              "position": 3,
              "duration": 0.16666666666666666
            },
            {
              "pitch": 45,
              "velocity": 93,
              "position": 3,
              "duration": 0.25
            },
            {
              "pitch": 35,
              "velocity": 83,
              "position": 3.25,
              "duration": 0.16666666666666666
            },
            {
              "pitch": 42,
              "velocity": 87,
              "position": 3.25,
              "duration": 0.16666666666666666
            },
            {
              "pitch": 43,
              "velocity": 73,
              "position": 3.25,
              "duration": 0.25
            },
            {
              "pitch": 35,
              "velocity": 83,
              "position": 3.5,
              "duration": 0.16666666666666666
            },
            {
              "pitch": 41,
              "velocity": 66,
              "position": 3.5,
              "duration": 0.25
            },
            {
              "pitch": 57,
              "velocity": 75,
              "position": 2,
              "duration": 1.9791666666666667
            },
            {
              "pitch": 46,
              "velocity": 53,
              "position": 3.5,
              "duration": 0.4791666666666667
            },
            {
              "pitch": 49,
              "velocity": 46,
              "position": 3.9791666666666665,
              "duration": 0.020833333333333332
            }
          ]
        },
        "10": {
          "ctab": {
            "srcChannel": 10,
            "name": "Std.Kit1",
            "accType": "SUBRHYTHM",
            "editable": false,
            "mutedNotes": [],
            "mutedChords": [
              "dim7",
              "dim",
              "minMaj7(9)",
              "minMaj7",
              "min7(11)",
              "min7(9)",
              "min(9)",
              "m7b5",
              "min7",
              "min6",
              "min"
            ],
            "autoStart": true,
            "sourceChordNote": 0,
            "sourceChordType": "Maj7",
            "ctb2Low": null,
            "ctb2Main": {
              "ntr": "ROOT_FIXED",
              "ntt": "BYPASS",
              "bassOn": false,
              "chordRootUpperLimit": 6,
              "noteLowLimit": 0,
              "noteHighLimit": 127,
              "rtr": "PITCH_SHIFT"
            },
            "ctb2High": null
          },
          "notes": [
            {
              "pitch": 63,
              "velocity": 88,
              "position": 0,
              "duration": 0.125
            },
            {
              "pitch": 70,
              "velocity": 59,
              "position": 0.5,
              "duration": 0.125
            },
            {
              "pitch": 63,
              "velocity": 103,
              "position": 0.5,
              "duration": 0.125
            },
            {
              "pitch": 62,
              "velocity": 100,
              "position": 0.75,
              "duration": 0.125
            },
            {
              "pitch": 63,
              "velocity": 103,
              "position": 1,
              "duration": 0.125
            },
            {
              "pitch": 63,
              "velocity": 16,
              "position": 1.5,
              "duration": 0.10416666666666667
            },
            {
              "pitch": 70,
              "velocity": 59,
              "position": 1.5,
              "duration": 0.125
            },
            {
              "pitch": 69,
              "velocity": 54,
              "position": 1.5,
              "duration": 0.16666666666666666
            },
            {
              "pitch": 63,
              "velocity": 41,
              "position": 1.625,
              "duration": 0.10416666666666667
            },
            {
              "pitch": 63,
              "velocity": 63,
              "position": 1.75,
              "duration": 0.10416666666666667
            },
            {
              "pitch": 69,
              "velocity": 54,
              "position": 1.75,
              "duration": 0.16666666666666666
            },
            {
              "pitch": 63,
              "velocity": 88,
              "position": 1.875,
              "duration": 0.125
            },
            {
              "pitch": 62,
              "velocity": 120,
              "position": 2,
              "duration": 0.125
            },
            {
              "pitch": 70,
              "velocity": 59,
              "position": 2.5,
              "duration": 0.125
            },
            {
              "pitch": 62,
              "velocity": 62,
              "position": 2.5,
              "duration": 0.125
            },
            {
              "pitch": 64,
              "velocity": 95,
              "position": 3,
              "duration": 0.125
            },
            {
              "pitch": 81,
              "velocity": 25,
              "position": 3,
              "duration": 0.16666666666666666
            },
            {
              "pitch": 70,
              "velocity": 59,
              "position": 3.5,
              "duration": 0.125
            },
            {
              "pitch": 63,
              "velocity": 103,
              "position": 3.5,
              "duration": 0.125
            },
            {
              "pitch": 58,
              "velocity": 105,
              "position": 0,
              "duration": 4
            }
          ]
        },
        "11": {
          "ctab": {
            "srcChannel": 11,
            "name": "Std.Kit1",
            "accType": "SUBRHYTHM",
            "editable": false,
            "mutedNotes": [],
            "mutedChords": [
              "1+2+5",
              "sus4",
              "1+5",
              "1+8",
              "7aug",
              "Maj7aug",
              "7(#9)",
              "7(b13)",
              "7(b9)",
              "7(13)",
              "7#11",
              "7(9)",
              "7b5",
              "7sus4",
              "7th",
              "aug",
              "Maj6(9)",
              "Maj7(9)",
              "Maj(9)",
              "Maj7#11",
              "Maj7",
              "Maj6",
              "Maj"
            ],
            "autoStart": false,
            "sourceChordNote": 0,
            "sourceChordType": "Maj7",
            "ctb2Low": null,
            "ctb2Main": {
              "ntr": "ROOT_FIXED",
              "ntt": "BYPASS",
              "bassOn": false,
              "chordRootUpperLimit": 6,
              "noteLowLimit": 0,
              "noteHighLimit": 127,
              "rtr": "PITCH_SHIFT"
            },
            "ctb2High": null
          },
          "notes": [
            {
              "pitch": 63,
              "velocity": 88,
              "position": 0,
              "duration": 0.125
            },
            {
              "pitch": 70,
              "velocity": 59,
              "position": 0.5,
              "duration": 0.125
            },
            {
              "pitch": 63,
              "velocity": 103,
              "position": 0.5,
              "duration": 0.125
            },
            {
              "pitch": 62,
              "velocity": 100,
              "position": 0.75,
              "duration": 0.125
            },
            {
              "pitch": 63,
              "velocity": 103,
              "position": 1,
              "duration": 0.125
            },
            {
              "pitch": 63,
              "velocity": 16,
              "position": 1.5,
              "duration": 0.10416666666666667
            },
            {
              "pitch": 70,
              "velocity": 59,
              "position": 1.5,
              "duration": 0.125
            },
            {
              "pitch": 69,
              "velocity": 54,
              "position": 1.5,
              "duration": 0.16666666666666666
            },
            {
              "pitch": 63,
              "velocity": 41,
              "position": 1.625,
              "duration": 0.10416666666666667
            },
            {
              "pitch": 63,
              "velocity": 63,
              "position": 1.75,
              "duration": 0.10416666666666667
            },
            {
              "pitch": 69,
              "velocity": 54,
              "position": 1.75,
              "duration": 0.16666666666666666
            },
            {
              "pitch": 63,
              "velocity": 88,
              "position": 1.875,
              "duration": 0.125
            },
            {
              "pitch": 62,
              "velocity": 120,
              "position": 2,
              "duration": 0.125
            },
            {
              "pitch": 70,
              "velocity": 59,
              "position": 2.5,
              "duration": 0.125
            },
            {
              "pitch": 62,
              "velocity": 62,
              "position": 2.5,
              "duration": 0.125
            },
            {
              "pitch": 64,
              "velocity": 95,
              "position": 3,
              "duration": 0.125
            },
            {
              "pitch": 81,
              "velocity": 25,
              "position": 3,
              "duration": 0.16666666666666666
            },
            {
              "pitch": 70,
              "velocity": 59,
              "position": 3.5,
              "duration": 0.125
            },
            {
              "pitch": 63,
              "velocity": 103,
              "position": 3.5,
              "duration": 0.125
            },
            {
              "pitch": 58,
              "velocity": 105,
              "position": 0,
              "duration": 3.9791666666666665
            }
          ]
        },
        "12": {
          "ctab": {
            "srcChannel": 12,
            "name": "Fretless",
            "accType": "BASS",
            "editable": false,
            "mutedNotes": [],
            "mutedChords": [
              "dim7",
              "dim",
              "minMaj7(9)",
              "minMaj7",
              "min7(11)",
              "min7(9)",
              "min(9)",
              "m7b5",
              "min7",
              "min6",
              "min"
            ],
            "autoStart": false,
            "sourceChordNote": 0,
            "sourceChordType": "Maj7",
            "ctb2Low": null,
            "ctb2Main": {
              "ntr": "ROOT_TRANSPOSITION",
              "ntt": "MELODY",
              "bassOn": true,
              "chordRootUpperLimit": 3,
              "noteLowLimit": 28,
              "noteHighLimit": 54,
              "rtr": "PITCH_SHIFT_TO_ROOT"
            },
            "ctb2High": null
          },
          "notes": [
            {
              "pitch": 36,
              "velocity": 96,
              "position": 0,
              "duration": 0.2916666666666667
            },
            {
              "pitch": 50,
              "velocity": 96,
              "position": 0.5,
              "duration": 0.7291666666666666
            },
            {
              "pitch": 48,
              "velocity": 96,
              "position": 1.25,
              "duration": 0.7291666666666666
            },
            {
              "pitch": 45,
              "velocity": 96,
              "position": 2,
              "duration": 0.7291666666666666
            },
            {
              "pitch": 43,
              "velocity": 96,
              "position": 2.75,
              "duration": 0.22916666666666666
            },
            {
              "pitch": 40,
              "velocity": 96,
              "position": 3,
              "duration": 0.22916666666666666
            },
            {
              "pitch": 36,
              "velocity": 96,
              "position": 3.25,
              "duration": 0.22916666666666666
            },
            {
              "pitch": 31,
              "velocity": 96,
              "position": 3.5,
              "duration": 0.4375
            }
          ]
        },
        "13": {
          "ctab": {
            "srcChannel": 13,
            "name": "Fretless",
            "accType": "BASS",
            "editable": false,
            "mutedNotes": [],
            "mutedChords": [
              "1+2+5",
              "sus4",
              "1+5",
              "1+8",
              "7aug",
              "Maj7aug",
              "7(#9)",
              "7(b13)",
              "7(b9)",
              "7(13)",
              "7#11",
              "7(9)",
              "7b5",
              "7sus4",
              "7th",
              "aug",
              "Maj6(9)",
              "Maj7(9)",
              "Maj(9)",
              "Maj7#11",
              "Maj7",
              "Maj6",
              "Maj"
            ],
            "autoStart": false,
            "sourceChordNote": 0,
            "sourceChordType": "Maj7",
            "ctb2Low": null,
            "ctb2Main": {
              "ntr": "ROOT_TRANSPOSITION",
              "ntt": "MELODY",
              "bassOn": true,
              "chordRootUpperLimit": 3,
              "noteLowLimit": 28,
              "noteHighLimit": 54,
              "rtr": "PITCH_SHIFT_TO_ROOT"
            },
            "ctb2High": null
          },
          "notes": [
            {
              "pitch": 36,
              "velocity": 96,
              "position": 0,
              "duration": 0.3125
            },
            {
              "pitch": 48,
              "velocity": 96,
              "position": 0.5,
              "duration": 0.7291666666666666
            },
            {
              "pitch": 36,
              "velocity": 96,
              "position": 1.25,
              "duration": 0.6666666666666666
            },
            {
              "pitch": 48,
              "velocity": 96,
              "position": 2,
              "duration": 0.7291666666666666
            },
            {
              "pitch": 36,
              "velocity": 96,
              "position": 2.75,
              "duration": 0.22916666666666666
            },
            {
              "pitch": 48,
              "velocity": 96,
              "position": 3,
              "duration": 0.22916666666666666
            },
            {
              "pitch": 36,
              "velocity": 96,
              "position": 3.25,
              "duration": 0.22916666666666666
            },
            {
              "pitch": 48,
              "velocity": 96,
              "position": 3.5,
              "duration": 0.4791666666666667
            }
          ]
        },
        "15": {
          "ctab": {
            "srcChannel": 15,
            "name": "SteelGtr",
            "accType": "CHORD1",
            "editable": false,
            "mutedNotes": [],
            "mutedChords": [
              "7aug",
              "Maj7aug",
              "7(#9)",
              "7(b13)",
              "7(b9)",
              "7(13)",
              "7#11",
              "7(9)",
              "7b5",
              "7sus4",
              "7th",
              "dim7",
              "dim",
              "minMaj7(9)",
              "minMaj7",
              "min7(11)",
              "min7(9)",
              "min(9)",
              "m7b5",
              "min7",
              "min6",
              "min"
            ],
            "autoStart": false,
            "sourceChordNote": 0,
            "sourceChordType": "Maj7",
            "ctb2Low": null,
            "ctb2Main": {
              "ntr": "ROOT_TRANSPOSITION",
              "ntt": "CHORD",
              "bassOn": false,
              "chordRootUpperLimit": 6,
              "noteLowLimit": 0,
              "noteHighLimit": 127,
              "rtr": "PITCH_SHIFT"
            },
            "ctb2High": null
          },
          "notes": [
            {
              "pitch": 59,
              "velocity": 99,
              "position": 0,
              "duration": 0.9791666666666666
            },
            {
              "pitch": 64,
              "velocity": 100,
              "position": 0.020833333333333332,
              "duration": 0.9583333333333334
            },
            {
              "pitch": 67,
              "velocity": 100,
              "position": 0.041666666666666664,
              "duration": 0.9375
            },
            {
              "pitch": 55,
              "velocity": 99,
              "position": 0,
              "duration": 1.4583333333333333
            },
            {
              "pitch": 59,
              "velocity": 97,
              "position": 1,
              "duration": 0.9791666666666666
            },
            {
              "pitch": 67,
              "velocity": 97,
              "position": 1,
              "duration": 0.9791666666666666
            },
            {
              "pitch": 64,
              "velocity": 97,
              "position": 1,
              "duration": 0.9791666666666666
            },
            {
              "pitch": 55,
              "velocity": 97,
              "position": 1.5,
              "duration": 0.4791666666666667
            },
            {
              "pitch": 55,
              "velocity": 99,
              "position": 2,
              "duration": 0.4583333333333333
            },
            {
              "pitch": 59,
              "velocity": 99,
              "position": 2,
              "duration": 0.9791666666666666
            },
            {
              "pitch": 57,
              "velocity": 100,
              "position": 3,
              "duration": 0.25
            },
            {
              "pitch": 67,
              "velocity": 100,
              "position": 2.0416666666666665,
              "duration": 1.4375
            },
            {
              "pitch": 64,
              "velocity": 100,
              "position": 2.0208333333333335,
              "duration": 1.9791666666666667
            },
            {
              "pitch": 55,
              "velocity": 67,
              "position": 2.5,
              "duration": 1.5
            },
            {
              "pitch": 59,
              "velocity": 100,
              "position": 3.25,
              "duration": 0.75
            },
            {
              "pitch": 67,
              "velocity": 98,
              "position": 3.5,
              "duration": 0.5
            }
          ]
        }
      }
    },
    "Intro_A": {
      "type": "Intro_A",
      "sizeInBeats": 4,
      "channels": {
        "8": {
          "ctab": {
            "srcChannel": 8,
            "name": "Std.Kit1",
            "accType": "RHYTHM",
            "editable": true,
            "mutedNotes": [],
            "mutedChords": [],
            "autoStart": true,
            "sourceChordNote": 0,
            "sourceChordType": "Maj7",
            "ctb2Low": null,
            "ctb2Main": {
              "ntr": "ROOT_FIXED",
              "ntt": "BYPASS",
              "bassOn": false,
              "chordRootUpperLimit": 6,
              "noteLowLimit": 0,
              "noteHighLimit": 127,
              "rtr": "PITCH_SHIFT"
            },
            "ctb2High": null
          },
          "notes": [
            {
              "pitch": 44,
              "velocity": 58,
              "position": 0,
              "duration": 0.1015625
            },
            {
              "pitch": 44,
              "velocity": 61,
              "position": 1.015625,
              "duration": 0.09114583333333333
            },
            {
              "pitch": 38,
              "velocity": 10,
              "position": 1.25,
              "duration": 0.125
            },
            {
              "pitch": 38,
              "velocity": 69,
              "position": 1.5,
              "duration": 0.125
            },
            {
              "pitch": 35,
              "velocity": 44,
              "position": 2,
              "duration": 0.125
            },
            {
              "pitch": 44,
              "velocity": 58,
              "position": 3,
              "duration": 0.125
            },
            {
              "pitch": 57,
              "velocity": 23,
              "position": 2,
              "duration": 2
            }
          ]
        }
      }
    },
    "Intro_B": {
      "type": "Intro_B",
      "sizeInBeats": 8,
      "channels": {
        "2": {
          "ctab": {
            "srcChannel": 2,
            "name": "SteelGtr",
            "accType": "CHORD2",
            "editable": false,
            "mutedNotes": [],
            "mutedChords": [
              "7aug",
              "Maj7aug",
              "7(#9)",
              "7(b13)",
              "7(b9)",
              "7(13)",
              "7#11",
              "7(9)",
              "7b5",
              "7sus4",
              "7th"
            ],
            "autoStart": false,
            "sourceChordNote": 0,
            "sourceChordType": "Maj",
            "ctb2Low": null,
            "ctb2Main": {
              "ntr": "ROOT_TRANSPOSITION",
              "ntt": "BYPASS",
              "bassOn": false,
              "chordRootUpperLimit": 6,
              "noteLowLimit": 0,
              "noteHighLimit": 127,
              "rtr": "PITCH_SHIFT"
            },
            "ctb2High": null
          },
          "notes": [
            {
              "pitch": 60,
              "velocity": 96,
              "position": 0,
              "duration": 0.14583333333333334
            },
            {
              "pitch": 60,
              "velocity": 89,
              "position": 0.25,
              "duration": 0.22916666666666666
            },
            {
              "pitch": 67,
              "velocity": 98,
              "position": 0.020833333333333332,
              "duration": 0.7291666666666666
            },
            {
              "pitch": 57,
              "velocity": 96,
              "position": 0.7291666666666666,
              "duration": 0.4791666666666667
            },
            {
              "pitch": 60,
              "velocity": 96,
              "position": 0.5,
              "duration": 0.9583333333333334
            },
            {
              "pitch": 65,
              "velocity": 96,
              "position": 0.75,
              "duration": 0.9583333333333334
            },
            {
              "pitch": 57,
              "velocity": 77,
              "position": 1.25,
              "duration": 0.75
            },
            {
              "pitch": 60,
              "velocity": 97,
              "position": 1.5,
              "duration": 0.5
            },
            {
              "pitch": 65,
              "velocity": 96,
              "position": 1.75,
              "duration": 0.25
            },
            {
              "pitch": 64,
              "velocity": 98,
              "position": 2,
              "duration": 0.625
            },
            {
              "pitch": 48,
              "velocity": 100,
              "position": 2,
              "duration": 0.875
            },
            {
              "pitch": 64,
              "velocity": 77,
              "position": 2.75,
              "duration": 0.25
            },
            {
              "pitch": 55,
              "velocity": 70,
              "position": 2.25,
              "duration": 0.875
            },
            {
              "pitch": 60,
              "velocity": 77,
              "position": 2.5,
              "duration": 0.875
            },
            {
              "pitch": 67,
              "velocity": 96,
              "position": 3,
              "duration": 0.75
            },
            {
              "pitch": 52,
              "velocity": 85,
              "position": 3,
              "duration": 0.875
            },
            {
              "pitch": 55,
              "velocity": 77,
              "position": 3.25,
              "duration": 0.75
            },
            {
              "pitch": 60,
              "velocity": 92,
              "position": 3.5,
              "duration": 0.875
            },
            {
              "pitch": 64,
              "velocity": 96,
              "position": 3.75,
              "duration": 0.875
            },
            {
              "pitch": 48,
              "velocity": 97,
              "position": 4,
              "duration": 0.875
            },
            {
              "pitch": 64,
              "velocity": 77,
              "position": 4.75,
              "duration": 0.25
            },
            {
              "pitch": 55,
              "velocity": 77,
              "position": 4.25,
              "duration": 0.875
            },
            {
              "pitch": 60,
              "velocity": 92,
              "position": 4.5,
              "duration": 0.875
            },
            {
              "pitch": 67,
              "velocity": 92,
              "position": 5,
              "duration": 0.75
            },
            {
              "pitch": 52,
              "velocity": 96,
              "position": 5,
              "duration": 0.875
            },
            {
              "pitch": 55,
              "velocity": 85,
              "position": 5.25,
              "duration": 0.75
            },
            {
              "pitch": 60,
              "velocity": 92,
              "position": 5.5,
              "duration": 0.5
            },
            {
              "pitch": 72,
              "velocity": 96,
              "position": 5.75,
              "duration": 0.25
            },
            {
              "pitch": 64,
              "velocity": 96,
              "position": 6,
              "duration": 0.625
            },
            {
              "pitch": 48,
              "velocity": 96,
              "position": 6,
              "duration": 0.875
            },
            {
              "pitch": 64,
              "velocity": 85,
              "position": 6.75,
              "duration": 0.25
            },
            {
              "pitch": 55,
              "velocity": 77,
              "position": 6.25,
              "duration": 0.875
            },
            {
              "pitch": 60,
              "velocity": 85,
              "position": 6.5,
              "duration": 0.875
            },
            {
              "pitch": 67,
              "velocity": 96,
              "position": 7,
              "duration": 0.75
            },
            {
              "pitch": 52,
              "velocity": 96,
              "position": 7,
              "duration": 0.875
            },
            {
              "pitch": 55,
              "velocity": 58,
              "position": 7.25,
              "duration": 0.75
            },
            {
              "pitch": 60,
              "velocity": 96,
              "position": 7.5,
              "duration": 0.5
            },
            {
              "pitch": 64,
              "velocity": 96,
              "position": 7.75,
              "duration": 0.25
            }
          ]
        },
        "3": {
          "ctab": {
            "srcChannel": 3,
            "name": "SteelGtr",
            "accType": "CHORD2",
            "editable": false,
            "mutedNotes": [],
            "mutedChords": [
              "1+2+5",
              "sus4",
              "1+5",
              "1+8",
              "dim7",
              "dim",
              "minMaj7(9)",
              "minMaj7",
              "min7(11)",
              "min7(9)",
              "min(9)",
              "m7b5",
              "min7",
              "min6",
              "min",
              "aug",
              "Maj6(9)",
              "Maj7(9)",
              "Maj(9)",
              "Maj7#11",
              "Maj7",
              "Maj6",
              "Maj"
            ],
            "autoStart": false,
            "sourceChordNote": 0,
            "sourceChordType": "7th",
            "ctb2Low": null,
            "ctb2Main": {
              "ntr": "ROOT_TRANSPOSITION",
              "ntt": "BYPASS",
              "bassOn": false,
              "chordRootUpperLimit": 6,
              "noteLowLimit": 0,
              "noteHighLimit": 127,
              "rtr": "PITCH_SHIFT"
            },
            "ctb2High": null
          },
          "notes": [
            {
              "pitch": 60,
              "velocity": 96,
              "position": 0,
              "duration": 0.14583333333333334
            },
            {
              "pitch": 60,
              "velocity": 89,
              "position": 0.25,
              "duration": 0.22916666666666666
            },
            {
              "pitch": 70,
              "velocity": 98,
              "position": 0.020833333333333332,
              "duration": 0.7291666666666666
            },
            {
              "pitch": 57,
              "velocity": 96,
              "position": 0.7291666666666666,
              "duration": 0.4791666666666667
            },
            {
              "pitch": 60,
              "velocity": 96,
              "position": 0.5,
              "duration": 0.9583333333333334
            },
            {
              "pitch": 65,
              "velocity": 96,
              "position": 0.75,
              "duration": 0.9583333333333334
            },
            {
              "pitch": 57,
              "velocity": 77,
              "position": 1.25,
              "duration": 0.75
            },
            {
              "pitch": 60,
              "velocity": 97,
              "position": 1.5,
              "duration": 0.5
            },
            {
              "pitch": 65,
              "velocity": 96,
              "position": 1.75,
              "duration": 0.25
            },
            {
              "pitch": 64,
              "velocity": 98,
              "position": 2,
              "duration": 0.625
            },
            {
              "pitch": 48,
              "velocity": 100,
              "position": 2,
              "duration": 0.875
            },
            {
              "pitch": 64,
              "velocity": 77,
              "position": 2.75,
              "duration": 0.25
            },
            {
              "pitch": 58,
              "velocity": 70,
              "position": 2.25,
              "duration": 0.875
            },
            {
              "pitch": 60,
              "velocity": 77,
              "position": 2.5,
              "duration": 0.875
            },
            {
              "pitch": 70,
              "velocity": 96,
              "position": 3,
              "duration": 0.75
            },
            {
              "pitch": 52,
              "velocity": 85,
              "position": 3,
              "duration": 0.875
            },
            {
              "pitch": 58,
              "velocity": 77,
              "position": 3.25,
              "duration": 0.75
            },
            {
              "pitch": 60,
              "velocity": 92,
              "position": 3.5,
              "duration": 0.875
            },
            {
              "pitch": 64,
              "velocity": 96,
              "position": 3.75,
              "duration": 0.875
            },
            {
              "pitch": 48,
              "velocity": 97,
              "position": 4,
              "duration": 0.875
            },
            {
              "pitch": 64,
              "velocity": 77,
              "position": 4.75,
              "duration": 0.25
            },
            {
              "pitch": 58,
              "velocity": 77,
              "position": 4.25,
              "duration": 0.875
            },
            {
              "pitch": 60,
              "velocity": 92,
              "position": 4.5,
              "duration": 0.875
            },
            {
              "pitch": 70,
              "velocity": 92,
              "position": 5,
              "duration": 0.75
            },
            {
              "pitch": 52,
              "velocity": 96,
              "position": 5,
              "duration": 0.875
            },
            {
              "pitch": 58,
              "velocity": 85,
              "position": 5.25,
              "duration": 0.75
            },
            {
              "pitch": 60,
              "velocity": 92,
              "position": 5.5,
              "duration": 0.5
            },
            {
              "pitch": 72,
              "velocity": 96,
              "position": 5.75,
              "duration": 0.25
            },
            {
              "pitch": 64,
              "velocity": 96,
              "position": 6,
              "duration": 0.625
            },
            {
              "pitch": 48,
              "velocity": 96,
              "position": 6,
              "duration": 0.875
            },
            {
              "pitch": 64,
              "velocity": 85,
              "position": 6.75,
              "duration": 0.25
            },
            {
              "pitch": 58,
              "velocity": 77,
              "position": 6.25,
              "duration": 0.875
            },
            {
              "pitch": 60,
              "velocity": 85,
              "position": 6.5,
              "duration": 0.875
            },
            {
              "pitch": 70,
              "velocity": 96,
              "position": 7,
              "duration": 0.75
            },
            {
              "pitch": 52,
              "velocity": 96,
              "position": 7,
              "duration": 0.875
            },
            {
              "pitch": 58,
              "velocity": 58,
              "position": 7.25,
              "duration": 0.75
            },
            {
              "pitch": 60,
              "velocity": 96,
              "position": 7.5,
              "duration": 0.5
            },
            {
              "pitch": 64,
              "velocity": 96,
              "position": 7.75,
              "duration": 0.25
            }
          ]
        },
        "8": {
          "ctab": {
            "srcChannel": 8,
            "name": "Std.Kit1",
            "accType": "RHYTHM",
            "editable": true,
            "mutedNotes": [],
            "mutedChords": [],
            "autoStart": true,
            "sourceChordNote": 0,
            "sourceChordType": "Maj7",
            "ctb2Low": null,
            "ctb2Main": {
              "ntr": "ROOT_FIXED",
              "ntt": "BYPASS",
              "bassOn": false,
              "chordRootUpperLimit": 6,
              "noteLowLimit": 0,
              "noteHighLimit": 127,
              "rtr": "PITCH_SHIFT"
            },
            "ctb2High": null
          },
          "notes": [
            {
              "pitch": 38,
              "velocity": 10,
              "position": 1.25,
              "duration": 0.125
            },
            {
              "pitch": 38,
              "velocity": 69,
              "position": 1.5,
              "duration": 0.125
            },
            {
              "pitch": 35,
              "velocity": 44,
              "position": 2,
              "duration": 0.125
            },
            {
              "pitch": 44,
              "velocity": 58,
              "position": 3,
              "duration": 0.125
            },
            {
              "pitch": 44,
              "velocity": 58,
              "position": 5,
              "duration": 0.125
            },
            {
              "pitch": 57,
              "velocity": 23,
              "position": 2,
              "duration": 4
            },
            {
              "pitch": 44,
              "velocity": 58,
              "position": 6,
              "duration": 0.125
            },
            {
              "pitch": 42,
              "velocity": 112,
              "position": 6,
              "duration": 0.14583333333333334
            },
            {
              "pitch": 35,
              "velocity": 100,
              "position": 6,
              "duration": 0.16666666666666666
            },
            {
              "pitch": 42,
              "velocity": 55,
              "position": 6.5,
              "duration": 0.16666666666666666
            },
            {
              "pitch": 44,
              "velocity": 58,
              "position": 7,
              "duration": 0.125
            },
            {
              "pitch": 42,
              "velocity": 112,
              "position": 7,
              "duration": 0.14583333333333334
            },
            {
              "pitch": 42,
              "velocity": 55,
              "position": 7.5,
              "duration": 0.16666666666666666
            },
            {
              "pitch": 35,
              "velocity": 44,
              "position": 7.75,
              "duration": 0.16666666666666666
            },
            {
              "pitch": 49,
              "velocity": 46,
              "position": 6,
              "duration": 2
            }
          ]
        },
        "10": {
          "ctab": {
            "srcChannel": 10,
            "name": "Std.Kit1",
            "accType": "SUBRHYTHM",
            "editable": true,
            "mutedNotes": [],
            "mutedChords": [],
            "autoStart": true,
            "sourceChordNote": 0,
            "sourceChordType": "Maj7",
            "ctb2Low": null,
            "ctb2Main": {
              "ntr": "ROOT_FIXED",
              "ntt": "BYPASS",
              "bassOn": false,
              "chordRootUpperLimit": 6,
              "noteLowLimit": 0,
              "noteHighLimit": 127,
              "rtr": "PITCH_SHIFT"
            },
            "ctb2High": null
          },
          "notes": [
            {
              "pitch": 69,
              "velocity": 74,
              "position": 2,
              "duration": 0.125
            },
            {
              "pitch": 62,
              "velocity": 77,
              "position": 2,
              "duration": 0.125
            },
            {
              "pitch": 69,
              "velocity": 49,
              "position": 2.5,
              "duration": 0.125
            },
            {
              "pitch": 63,
              "velocity": 60,
              "position": 2.5,
              "duration": 0.125
            },
            {
              "pitch": 62,
              "velocity": 77,
              "position": 2.75,
              "duration": 0.125
            },
            {
              "pitch": 69,
              "velocity": 74,
              "position": 3,
              "duration": 0.125
            },
            {
              "pitch": 81,
              "velocity": 21,
              "position": 3,
              "duration": 0.125
            },
            {
              "pitch": 63,
              "velocity": 60,
              "position": 3,
              "duration": 0.125
            },
            {
              "pitch": 69,
              "velocity": 49,
              "position": 3.5,
              "duration": 0.125
            },
            {
              "pitch": 62,
              "velocity": 91,
              "position": 3.5,
              "duration": 0.125
            },
            {
              "pitch": 69,
              "velocity": 39,
              "position": 3.75,
              "duration": 0.125
            },
            {
              "pitch": 69,
              "velocity": 74,
              "position": 4,
              "duration": 0.125
            },
            {
              "pitch": 63,
              "velocity": 63,
              "position": 4,
              "duration": 0.125
            },
            {
              "pitch": 69,
              "velocity": 49,
              "position": 4.5,
              "duration": 0.125
            },
            {
              "pitch": 63,
              "velocity": 63,
              "position": 4.5,
              "duration": 0.125
            },
            {
              "pitch": 69,
              "velocity": 74,
              "position": 5,
              "duration": 0.125
            },
            {
              "pitch": 81,
              "velocity": 21,
              "position": 5,
              "duration": 0.125
            },
            {
              "pitch": 62,
              "velocity": 87,
              "position": 5,
              "duration": 0.125
            },
            {
              "pitch": 54,
              "velocity": 42,
              "position": 5,
              "duration": 0.1875
            },
            {
              "pitch": 69,
              "velocity": 49,
              "position": 5.5,
              "duration": 0.125
            },
            {
              "pitch": 64,
              "velocity": 85,
              "position": 5.5,
              "duration": 0.125
            },
            {
              "pitch": 69,
              "velocity": 39,
              "position": 5.75,
              "duration": 0.125
            },
            {
              "pitch": 69,
              "velocity": 74,
              "position": 6,
              "duration": 0.125
            },
            {
              "pitch": 62,
              "velocity": 77,
              "position": 6,
              "duration": 0.125
            },
            {
              "pitch": 69,
              "velocity": 49,
              "position": 6.5,
              "duration": 0.125
            },
            {
              "pitch": 63,
              "velocity": 60,
              "position": 6.5,
              "duration": 0.125
            },
            {
              "pitch": 62,
              "velocity": 77,
              "position": 6.75,
              "duration": 0.125
            },
            {
              "pitch": 69,
              "velocity": 74,
              "position": 7,
              "duration": 0.125
            },
            {
              "pitch": 81,
              "velocity": 21,
              "position": 7,
              "duration": 0.125
            },
            {
              "pitch": 63,
              "velocity": 60,
              "position": 7,
              "duration": 0.125
            },
            {
              "pitch": 69,
              "velocity": 49,
              "position": 7.5,
              "duration": 0.125
            },
            {
              "pitch": 62,
              "velocity": 91,
              "position": 7.5,
              "duration": 0.125
            },
            {
              "pitch": 69,
              "velocity": 39,
              "position": 7.75,
              "duration": 0.125
            }
          ]
        },
        "12": {
          "ctab": {
            "srcChannel": 12,
            "name": "Fretless",
            "accType": "BASS",
            "editable": false,
            "mutedNotes": [],
            "mutedChords": [],
            "autoStart": false,
            "sourceChordNote": 0,
            "sourceChordType": "Maj",
            "ctb2Low": null,
            "ctb2Main": {
              "ntr": "ROOT_TRANSPOSITION",
              "ntt": "BYPASS",
              "bassOn": true,
              "chordRootUpperLimit": 3,
              "noteLowLimit": 28,
              "noteHighLimit": 54,
              "rtr": "PITCH_SHIFT_TO_ROOT"
            },
            "ctb2High": null
          },
          "notes": [
            {
              "pitch": 36,
              "velocity": 106,
              "position": 2,
              "duration": 1.6666666666666667
            },
            {
              "pitch": 36,
              "velocity": 71,
              "position": 3.75,
              "duration": 0.125
            },
            {
              "pitch": 36,
              "velocity": 106,
              "position": 4,
              "duration": 1.375
            },
            {
              "pitch": 43,
              "velocity": 91,
              "position": 5.5,
              "duration": 0.4791666666666667
            },
            {
              "pitch": 36,
              "velocity": 106,
              "position": 6,
              "duration": 1.6458333333333333
            },
            {
              "pitch": 36,
              "velocity": 71,
              "position": 7.75,
              "duration": 0.0625
            }
          ]
        }
      }
    },
    "Intro_C": {
      "type": "Intro_C",
      "sizeInBeats": 8,
      "channels": {
        "0": {
          "ctab": {
            "srcChannel": 0,
            "name": "SteelGtr",
            "accType": "CHORD1",
            "editable": false,
            "mutedNotes": [],
            "mutedChords": [
              "1+2+5",
              "sus4",
              "1+5",
              "1+8",
              "dim7",
              "dim",
              "minMaj7(9)",
              "minMaj7",
              "min7(11)",
              "min7(9)",
              "min(9)",
              "m7b5",
              "min7",
              "min6",
              "min",
              "aug",
              "Maj6(9)",
              "Maj7(9)",
              "Maj(9)",
              "Maj7#11",
              "Maj7",
              "Maj6",
              "Maj"
            ],
            "autoStart": false,
            "sourceChordNote": 0,
            "sourceChordType": "7th",
            "ctb2Low": null,
            "ctb2Main": {
              "ntr": "ROOT_TRANSPOSITION",
              "ntt": "BYPASS",
              "bassOn": false,
              "chordRootUpperLimit": 6,
              "noteLowLimit": 0,
              "noteHighLimit": 127,
              "rtr": "PITCH_SHIFT"
            },
            "ctb2High": null
          },
          "notes": [
            {
              "pitch": 60,
              "velocity": 96,
              "position": 0,
              "duration": 0.14583333333333334
            },
            {
              "pitch": 60,
              "velocity": 89,
              "position": 0.25,
              "duration": 0.22916666666666666
            },
            {
              "pitch": 70,
              "velocity": 98,
              "position": 0.020833333333333332,
              "duration": 0.7291666666666666
            },
            {
              "pitch": 57,
              "velocity": 96,
              "position": 0.7291666666666666,
              "duration": 0.4791666666666667
            },
            {
              "pitch": 60,
              "velocity": 96,
              "position": 0.5,
              "duration": 0.9583333333333334
            },
            {
              "pitch": 65,
              "velocity": 96,
              "position": 0.75,
              "duration": 0.9583333333333334
            },
            {
              "pitch": 57,
              "velocity": 77,
              "position": 1.25,
              "duration": 0.75
            },
            {
              "pitch": 60,
              "velocity": 97,
              "position": 1.5,
              "duration": 0.5
            },
            {
              "pitch": 65,
              "velocity": 96,
              "position": 1.75,
              "duration": 0.25
            },
            {
              "pitch": 64,
              "velocity": 98,
              "position": 2,
              "duration": 0.625
            },
            {
              "pitch": 48,
              "velocity": 100,
              "position": 2,
              "duration": 0.875
            },
            {
              "pitch": 64,
              "velocity": 77,
              "position": 2.75,
              "duration": 0.25
            },
            {
              "pitch": 58,
              "velocity": 70,
              "position": 2.25,
              "duration": 0.875
            },
            {
              "pitch": 60,
              "velocity": 77,
              "position": 2.5,
              "duration": 0.875
            },
            {
              "pitch": 70,
              "velocity": 96,
              "position": 3,
              "duration": 0.75
            },
            {
              "pitch": 52,
              "velocity": 85,
              "position": 3,
              "duration": 0.875
            },
            {
              "pitch": 58,
              "velocity": 77,
              "position": 3.25,
              "duration": 0.75
            },
            {
              "pitch": 60,
              "velocity": 92,
              "position": 3.5,
              "duration": 0.875
            },
            {
              "pitch": 64,
              "velocity": 96,
              "position": 3.75,
              "duration": 0.875
            },
            {
              "pitch": 48,
              "velocity": 97,
              "position": 4,
              "duration": 0.875
            },
            {
              "pitch": 64,
              "velocity": 77,
              "position": 4.75,
              "duration": 0.25
            },
            {
              "pitch": 58,
              "velocity": 77,
              "position": 4.25,
              "duration": 0.875
            },
            {
              "pitch": 60,
              "velocity": 92,
              "position": 4.5,
              "duration": 0.875
            },
            {
              "pitch": 70,
              "velocity": 92,
              "position": 5,
              "duration": 0.75
            },
            {
              "pitch": 52,
              "velocity": 96,
              "position": 5,
              "duration": 0.875
            },
            {
              "pitch": 58,
              "velocity": 85,
              "position": 5.25,
              "duration": 0.75
            },
            {
              "pitch": 60,
              "velocity": 92,
              "position": 5.5,
              "duration": 0.5
            },
            {
              "pitch": 72,
              "velocity": 96,
              "position": 5.75,
              "duration": 0.25
            },
            {
              "pitch": 64,
              "velocity": 96,
              "position": 6,
              "duration": 0.625
            },
            {
              "pitch": 48,
              "velocity": 96,
              "position": 6,
              "duration": 0.875
            },
            {
              "pitch": 64,
              "velocity": 85,
              "position": 6.75,
              "duration": 0.25
            },
            {
              "pitch": 58,
              "velocity": 77,
              "position": 6.25,
              "duration": 0.875
            },
            {
              "pitch": 60,
              "velocity": 85,
              "position": 6.5,
              "duration": 0.875
            },
            {
              "pitch": 70,
              "velocity": 96,
              "position": 7,
              "duration": 0.75
            },
            {
              "pitch": 52,
              "velocity": 96,
              "position": 7,
              "duration": 0.875
            },
            {
              "pitch": 58,
              "velocity": 58,
              "position": 7.25,
              "duration": 0.75
            },
            {
              "pitch": 60,
              "velocity": 96,
              "position": 7.5,
              "duration": 0.5
            },
            {
              "pitch": 64,
              "velocity": 96,
              "position": 7.75,
              "duration": 0.25
            }
          ]
        },
        "2": {
          "ctab": {
            "srcChannel": 2,
            "name": "SteelGtr",
            "accType": "CHORD2",
            "editable": false,
            "mutedNotes": [],
            "mutedChords": [
              "7aug",
              "Maj7aug",
              "7(#9)",
              "7(b13)",
              "7(b9)",
              "7(13)",
              "7#11",
              "7(9)",
              "7b5",
              "7sus4",
              "7th"
            ],
            "autoStart": false,
            "sourceChordNote": 0,
            "sourceChordType": "Maj",
            "ctb2Low": null,
            "ctb2Main": {
              "ntr": "ROOT_TRANSPOSITION",
              "ntt": "BYPASS",
              "bassOn": false,
              "chordRootUpperLimit": 6,
              "noteLowLimit": 0,
              "noteHighLimit": 127,
              "rtr": "PITCH_SHIFT"
            },
            "ctb2High": null
          },
          "notes": [
            {
              "pitch": 67,
              "velocity": 97,
              "position": 0.75,
              "duration": 0.25
            },
            {
              "pitch": 65,
              "velocity": 97,
              "position": 1,
              "duration": 0.25
            },
            {
              "pitch": 60,
              "velocity": 98,
              "position": 1.25,
              "duration": 0.25
            },
            {
              "pitch": 55,
              "velocity": 97,
              "position": 1.5,
              "duration": 0.4791666666666667
            },
            {
              "pitch": 55,
              "velocity": 98,
              "position": 2,
              "duration": 0.4583333333333333
            },
            {
              "pitch": 60,
              "velocity": 100,
              "position": 2,
              "duration": 1.2083333333333333
            },
            {
              "pitch": 64,
              "velocity": 98,
              "position": 2,
              "duration": 1.9583333333333333
            },
            {
              "pitch": 55,
              "velocity": 96,
              "position": 2.5,
              "duration": 2.9583333333333335
            },
            {
              "pitch": 60,
              "velocity": 96,
              "position": 3.25,
              "duration": 2.2083333333333335
            },
            {
              "pitch": 64,
              "velocity": 97,
              "position": 4,
              "duration": 1.4583333333333333
            },
            {
              "pitch": 67,
              "velocity": 98,
              "position": 4.75,
              "duration": 0.75
            },
            {
              "pitch": 55,
              "velocity": 97,
              "position": 5.5,
              "duration": 0.20833333333333334
            },
            {
              "pitch": 60,
              "velocity": 97,
              "position": 5.5,
              "duration": 0.20833333333333334
            },
            {
              "pitch": 64,
              "velocity": 98,
              "position": 5.5,
              "duration": 0.20833333333333334
            },
            {
              "pitch": 55,
              "velocity": 70,
              "position": 5.75,
              "duration": 0.20833333333333334
            },
            {
              "pitch": 60,
              "velocity": 85,
              "position": 5.75,
              "duration": 0.20833333333333334
            },
            {
              "pitch": 64,
              "velocity": 77,
              "position": 5.75,
              "duration": 0.20833333333333334
            },
            {
              "pitch": 55,
              "velocity": 97,
              "position": 6,
              "duration": 0.4583333333333333
            },
            {
              "pitch": 60,
              "velocity": 96,
              "position": 6,
              "duration": 1.2083333333333333
            },
            {
              "pitch": 64,
              "velocity": 98,
              "position": 6,
              "duration": 1.9583333333333333
            },
            {
              "pitch": 55,
              "velocity": 97,
              "position": 6.5,
              "duration": 1.5
            },
            {
              "pitch": 60,
              "velocity": 98,
              "position": 7.25,
              "duration": 0.75
            }
          ]
        },
        "3": {
          "ctab": {
            "srcChannel": 3,
            "name": "SteelGtr",
            "accType": "CHORD2",
            "editable": false,
            "mutedNotes": [],
            "mutedChords": [
              "1+2+5",
              "sus4",
              "1+5",
              "1+8",
              "dim7",
              "dim",
              "minMaj7(9)",
              "minMaj7",
              "min7(11)",
              "min7(9)",
              "min(9)",
              "m7b5",
              "min7",
              "min6",
              "min",
              "aug",
              "Maj6(9)",
              "Maj7(9)",
              "Maj(9)",
              "Maj7#11",
              "Maj7",
              "Maj6",
              "Maj"
            ],
            "autoStart": false,
            "sourceChordNote": 0,
            "sourceChordType": "7th",
            "ctb2Low": null,
            "ctb2Main": {
              "ntr": "ROOT_TRANSPOSITION",
              "ntt": "BYPASS",
              "bassOn": false,
              "chordRootUpperLimit": 6,
              "noteLowLimit": 0,
              "noteHighLimit": 127,
              "rtr": "PITCH_SHIFT"
            },
            "ctb2High": null
          },
          "notes": [
            {
              "pitch": 70,
              "velocity": 97,
              "position": 0.75,
              "duration": 0.25
            },
            {
              "pitch": 65,
              "velocity": 97,
              "position": 1,
              "duration": 0.25
            },
            {
              "pitch": 60,
              "velocity": 98,
              "position": 1.25,
              "duration": 0.25
            },
            {
              "pitch": 58,
              "velocity": 97,
              "position": 1.5,
              "duration": 0.4791666666666667
            },
            {
              "pitch": 58,
              "velocity": 98,
              "position": 2,
              "duration": 0.4583333333333333
            },
            {
              "pitch": 60,
              "velocity": 100,
              "position": 2,
              "duration": 1.2083333333333333
            },
            {
              "pitch": 64,
              "velocity": 98,
              "position": 2,
              "duration": 1.9583333333333333
            },
            {
              "pitch": 58,
              "velocity": 96,
              "position": 2.5,
              "duration": 2.9583333333333335
            },
            {
              "pitch": 60,
              "velocity": 96,
              "position": 3.25,
              "duration": 2.2083333333333335
            },
            {
              "pitch": 64,
              "velocity": 97,
              "position": 4,
              "duration": 1.4583333333333333
            },
            {
              "pitch": 70,
              "velocity": 98,
              "position": 4.75,
              "duration": 0.75
            },
            {
              "pitch": 58,
              "velocity": 97,
              "position": 5.5,
              "duration": 0.20833333333333334
            },
            {
              "pitch": 60,
              "velocity": 97,
              "position": 5.5,
              "duration": 0.20833333333333334
            },
            {
              "pitch": 64,
              "velocity": 98,
              "position": 5.5,
              "duration": 0.20833333333333334
            },
            {
              "pitch": 58,
              "velocity": 70,
              "position": 5.75,
              "duration": 0.20833333333333334
            },
            {
              "pitch": 60,
              "velocity": 85,
              "position": 5.75,
              "duration": 0.20833333333333334
            },
            {
              "pitch": 64,
              "velocity": 77,
              "position": 5.75,
              "duration": 0.20833333333333334
            },
            {
              "pitch": 58,
              "velocity": 97,
              "position": 6,
              "duration": 0.4583333333333333
            },
            {
              "pitch": 60,
              "velocity": 96,
              "position": 6,
              "duration": 1.2083333333333333
            },
            {
              "pitch": 64,
              "velocity": 98,
              "position": 6,
              "duration": 1.9583333333333333
            },
            {
              "pitch": 58,
              "velocity": 97,
              "position": 6.5,
              "duration": 1.5
            },
            {
              "pitch": 60,
              "velocity": 98,
              "position": 7.25,
              "duration": 0.75
            }
          ]
        },
        "5": {
          "ctab": {
            "srcChannel": 5,
            "name": "Pad",
            "accType": "PAD",
            "editable": true,
            "mutedNotes": [],
            "mutedChords": [],
            "autoStart": false,
            "sourceChordNote": 0,
            "sourceChordType": "Maj7",
            "ctb2Low": null,
            "ctb2Main": {
              "ntr": "ROOT_TRANSPOSITION",
              "ntt": "CHORD",
              "bassOn": false,
              "chordRootUpperLimit": 7,
              "noteLowLimit": 0,
              "noteHighLimit": 127,
              "rtr": "PITCH_SHIFT"
            },
            "ctb2High": null
          },
          "notes": [
            {
              "pitch": 72,
              "velocity": 97,
              "position": 3.984375,
              "duration": 2.2239583333333335
            },
            {
              "pitch": 76,
              "velocity": 80,
              "position": 4.973958333333333,
              "duration": 1.2395833333333333
            },
            {
              "pitch": 67,
              "velocity": 81,
              "position": 3.0052083333333335,
              "duration": 3.21875
            },
            {
              "pitch": 64,
              "velocity": 99,
              "position": 1.9973958333333333,
              "duration": 4.231770833333333
            }
          ]
        },
        "8": {
          "ctab": {
            "srcChannel": 8,
            "name": "Std.Kit1",
            "accType": "RHYTHM",
            "editable": true,
            "mutedNotes": [],
            "mutedChords": [],
            "autoStart": true,
            "sourceChordNote": 0,
            "sourceChordType": "Maj7",
            "ctb2Low": null,
            "ctb2Main": {
              "ntr": "ROOT_FIXED",
              "ntt": "BYPASS",
              "bassOn": false,
              "chordRootUpperLimit": 6,
              "noteLowLimit": 0,
              "noteHighLimit": 127,
              "rtr": "PITCH_SHIFT"
            },
            "ctb2High": null
          },
          "notes": [
            {
              "pitch": 38,
              "velocity": 10,
              "position": 1.25,
              "duration": 0.125
            },
            {
              "pitch": 38,
              "velocity": 69,
              "position": 1.5,
              "duration": 0.125
            },
            {
              "pitch": 35,
              "velocity": 44,
              "position": 2,
              "duration": 0.125
            },
            {
              "pitch": 44,
              "velocity": 58,
              "position": 3,
              "duration": 0.125
            },
            {
              "pitch": 44,
              "velocity": 58,
              "position": 5,
              "duration": 0.125
            },
            {
              "pitch": 57,
              "velocity": 23,
              "position": 2,
              "duration": 4
            },
            {
              "pitch": 44,
              "velocity": 58,
              "position": 6,
              "duration": 0.125
            },
            {
              "pitch": 42,
              "velocity": 112,
              "position": 6,
              "duration": 0.14583333333333334
            },
            {
              "pitch": 35,
              "velocity": 100,
              "position": 6,
              "duration": 0.16666666666666666
            },
            {
              "pitch": 42,
              "velocity": 55,
              "position": 6.5,
              "duration": 0.16666666666666666
            },
            {
              "pitch": 44,
              "velocity": 58,
              "position": 7,
              "duration": 0.125
            },
            {
              "pitch": 42,
              "velocity": 112,
              "position": 7,
              "duration": 0.14583333333333334
            },
            {
              "pitch": 42,
              "velocity": 55,
              "position": 7.5,
              "duration": 0.16666666666666666
            },
            {
              "pitch": 35,
              "velocity": 44,
              "position": 7.75,
              "duration": 0.16666666666666666
            },
            {
              "pitch": 49,
              "velocity": 46,
              "position": 6,
              "duration": 2
            }
          ]
        },
        "10": {
          "ctab": {
            "srcChannel": 10,
            "name": "Std.Kit1",
            "accType": "SUBRHYTHM",
            "editable": true,
            "mutedNotes": [],
            "mutedChords": [],
            "autoStart": true,
            "sourceChordNote": 0,
            "sourceChordType": "Maj7",
            "ctb2Low": null,
            "ctb2Main": {
              "ntr": "ROOT_FIXED",
              "ntt": "BYPASS",
              "bassOn": false,
              "chordRootUpperLimit": 6,
              "noteLowLimit": 0,
              "noteHighLimit": 127,
              "rtr": "PITCH_SHIFT"
            },
            "ctb2High": null
          },
          "notes": [
            {
              "pitch": 69,
              "velocity": 74,
              "position": 2,
              "duration": 0.125
            },
            {
              "pitch": 62,
              "velocity": 77,
              "position": 2,
              "duration": 0.125
            },
            {
              "pitch": 69,
              "velocity": 49,
              "position": 2.5,
              "duration": 0.125
            },
            {
              "pitch": 63,
              "velocity": 60,
              "position": 2.5,
              "duration": 0.125
            },
            {
              "pitch": 62,
              "velocity": 77,
              "position": 2.75,
              "duration": 0.125
            },
            {
              "pitch": 69,
              "velocity": 74,
              "position": 3,
              "duration": 0.125
            },
            {
              "pitch": 81,
              "velocity": 21,
              "position": 3,
              "duration": 0.125
            },
            {
              "pitch": 63,
              "velocity": 60,
              "position": 3,
              "duration": 0.125
            },
            {
              "pitch": 69,
              "velocity": 49,
              "position": 3.5,
              "duration": 0.125
            },
            {
              "pitch": 62,
              "velocity": 91,
              "position": 3.5,
              "duration": 0.125
            },
            {
              "pitch": 69,
              "velocity": 39,
              "position": 3.75,
              "duration": 0.125
            },
            {
              "pitch": 69,
              "velocity": 74,
              "position": 4,
              "duration": 0.125
            },
            {
              "pitch": 63,
              "velocity": 63,
              "position": 4,
              "duration": 0.125
            },
            {
              "pitch": 69,
              "velocity": 49,
              "position": 4.5,
              "duration": 0.125
            },
            {
              "pitch": 63,
              "velocity": 63,
              "position": 4.5,
              "duration": 0.125
            },
            {
              "pitch": 69,
              "velocity": 74,
              "position": 5,
              "duration": 0.125
            },
            {
              "pitch": 81,
              "velocity": 21,
              "position": 5,
              "duration": 0.125
            },
            {
              "pitch": 62,
              "velocity": 87,
              "position": 5,
              "duration": 0.125
            },
            {
              "pitch": 54,
              "velocity": 42,
              "position": 5,
              "duration": 0.1875
            },
            {
              "pitch": 69,
              "velocity": 49,
              "position": 5.5,
              "duration": 0.125
            },
            {
              "pitch": 64,
              "velocity": 85,
              "position": 5.5,
              "duration": 0.125
            },
            {
              "pitch": 69,
              "velocity": 39,
              "position": 5.75,
              "duration": 0.125
            },
            {
              "pitch": 69,
              "velocity": 74,
              "position": 6,
              "duration": 0.125
            },
            {
              "pitch": 62,
              "velocity": 77,
              "position": 6,
              "duration": 0.125
            },
            {
              "pitch": 69,
              "velocity": 49,
              "position": 6.5,
              "duration": 0.125
            },
            {
              "pitch": 63,
              "velocity": 60,
              "position": 6.5,
              "duration": 0.125
            },
            {
              "pitch": 62,
              "velocity": 77,
              "position": 6.75,
              "duration": 0.125
            },
            {
              "pitch": 69,
              "velocity": 74,
              "position": 7,
              "duration": 0.125
            },
            {
              "pitch": 81,
              "velocity": 21,
              "position": 7,
              "duration": 0.125
            },
            {
              "pitch": 63,
              "velocity": 60,
              "position": 7,
              "duration": 0.125
            },
            {
              "pitch": 69,
              "velocity": 49,
              "position": 7.5,
              "duration": 0.125
            },
            {
              "pitch": 62,
              "velocity": 91,
              "position": 7.5,
              "duration": 0.125
            },
            {
              "pitch": 69,
              "velocity": 39,
              "position": 7.75,
              "duration": 0.125
            }
          ]
        },
        "12": {
          "ctab": {
            "srcChannel": 12,
            "name": "Fretless",
            "accType": "BASS",
            "editable": false,
            "mutedNotes": [],
            "mutedChords": [],
            "autoStart": false,
            "sourceChordNote": 0,
            "sourceChordType": "Maj",
            "ctb2Low": null,
            "ctb2Main": {
              "ntr": "ROOT_TRANSPOSITION",
              "ntt": "BYPASS",
              "bassOn": true,
              "chordRootUpperLimit": 3,
              "noteLowLimit": 28,
              "noteHighLimit": 54,
              "rtr": "PITCH_SHIFT_TO_ROOT"
            },
            "ctb2High": null
          },
          "notes": [
            {
              "pitch": 36,
              "velocity": 106,
              "position": 2,
              "duration": 1.6666666666666667
            },
            {
              "pitch": 36,
              "velocity": 71,
              "position": 3.75,
              "duration": 0.125
            },
            {
              "pitch": 36,
              "velocity": 106,
              "position": 4,
              "duration": 1.375
            },
            {
              "pitch": 43,
              "velocity": 91,
              "position": 5.5,
              "duration": 0.4791666666666667
            },
            {
              "pitch": 36,
              "velocity": 106,
              "position": 6,
              "duration": 1.6458333333333333
            },
            {
              "pitch": 36,
              "velocity": 71,
              "position": 7.75,
              "duration": 0.0625
            }
          ]
        },
        "15": {
          "ctab": {
            "srcChannel": 15,
            "name": "SteelGtr",
            "accType": "CHORD1",
            "editable": false,
            "mutedNotes": [],
            "mutedChords": [
              "7aug",
              "Maj7aug",
              "7(#9)",
              "7(b13)",
              "7(b9)",
              "7(13)",
              "7#11",
              "7(9)",
              "7b5",
              "7sus4",
              "7th"
            ],
            "autoStart": false,
            "sourceChordNote": 0,
            "sourceChordType": "Maj",
            "ctb2Low": null,
            "ctb2Main": {
              "ntr": "ROOT_TRANSPOSITION",
              "ntt": "BYPASS",
              "bassOn": false,
              "chordRootUpperLimit": 6,
              "noteLowLimit": 0,
              "noteHighLimit": 127,
              "rtr": "PITCH_SHIFT"
            },
            "ctb2High": null
          },
          "notes": [
            {
              "pitch": 60,
              "velocity": 96,
              "position": 0,
              "duration": 0.14583333333333334
            },
            {
              "pitch": 60,
              "velocity": 89,
              "position": 0.25,
              "duration": 0.22916666666666666
            },
            {
              "pitch": 67,
              "velocity": 98,
              "position": 0.020833333333333332,
              "duration": 0.7291666666666666
            },
            {
              "pitch": 57,
              "velocity": 96,
              "position": 0.7291666666666666,
              "duration": 0.4791666666666667
            },
            {
              "pitch": 60,
              "velocity": 96,
              "position": 0.5,
              "duration": 0.9583333333333334
            },
            {
              "pitch": 65,
              "velocity": 96,
              "position": 0.75,
              "duration": 0.9583333333333334
            },
            {
              "pitch": 57,
              "velocity": 77,
              "position": 1.25,
              "duration": 0.75
            },
            {
              "pitch": 60,
              "velocity": 97,
              "position": 1.5,
              "duration": 0.5
            },
            {
              "pitch": 65,
              "velocity": 96,
              "position": 1.75,
              "duration": 0.25
            },
            {
              "pitch": 64,
              "velocity": 98,
              "position": 2,
              "duration": 0.625
            },
            {
              "pitch": 48,
              "velocity": 100,
              "position": 2,
              "duration": 0.875
            },
            {
              "pitch": 64,
              "velocity": 77,
              "position": 2.75,
              "duration": 0.25
            },
            {
              "pitch": 55,
              "velocity": 70,
              "position": 2.25,
              "duration": 0.875
            },
            {
              "pitch": 60,
              "velocity": 77,
              "position": 2.5,
              "duration": 0.875
            },
            {
              "pitch": 67,
              "velocity": 96,
              "position": 3,
              "duration": 0.75
            },
            {
              "pitch": 52,
              "velocity": 85,
              "position": 3,
              "duration": 0.875
            },
            {
              "pitch": 55,
              "velocity": 77,
              "position": 3.25,
              "duration": 0.75
            },
            {
              "pitch": 60,
              "velocity": 92,
              "position": 3.5,
              "duration": 0.875
            },
            {
              "pitch": 64,
              "velocity": 96,
              "position": 3.75,
              "duration": 0.875
            },
            {
              "pitch": 48,
              "velocity": 97,
              "position": 4,
              "duration": 0.875
            },
            {
              "pitch": 64,
              "velocity": 77,
              "position": 4.75,
              "duration": 0.25
            },
            {
              "pitch": 55,
              "velocity": 77,
              "position": 4.25,
              "duration": 0.875
            },
            {
              "pitch": 60,
              "velocity": 92,
              "position": 4.5,
              "duration": 0.875
            },
            {
              "pitch": 67,
              "velocity": 92,
              "position": 5,
              "duration": 0.75
            },
            {
              "pitch": 52,
              "velocity": 96,
              "position": 5,
              "duration": 0.875
            },
            {
              "pitch": 55,
              "velocity": 85,
              "position": 5.25,
              "duration": 0.75
            },
            {
              "pitch": 60,
              "velocity": 92,
              "position": 5.5,
              "duration": 0.5
            },
            {
              "pitch": 72,
              "velocity": 96,
              "position": 5.75,
              "duration": 0.25
            },
            {
              "pitch": 64,
              "velocity": 96,
              "position": 6,
              "duration": 0.625
            },
            {
              "pitch": 48,
              "velocity": 96,
              "position": 6,
              "duration": 0.875
            },
            {
              "pitch": 64,
              "velocity": 85,
              "position": 6.75,
              "duration": 0.25
            },
            {
              "pitch": 55,
              "velocity": 77,
              "position": 6.25,
              "duration": 0.875
            },
            {
              "pitch": 60,
              "velocity": 85,
              "position": 6.5,
              "duration": 0.875
            },
            {
              "pitch": 67,
              "velocity": 96,
              "position": 7,
              "duration": 0.75
            },
            {
              "pitch": 52,
              "velocity": 96,
              "position": 7,
              "duration": 0.875
            },
            {
              "pitch": 55,
              "velocity": 58,
              "position": 7.25,
              "duration": 0.75
            },
            {
              "pitch": 60,
              "velocity": 96,
              "position": 7.5,
              "duration": 0.5
            },
            {
              "pitch": 64,
              "velocity": 96,
              "position": 7.75,
              "duration": 0.25
            }
          ]
        }
      }
    },
    "Ending_A": {
      "type": "Ending_A",
      "sizeInBeats": 4,
      "channels": {
        "3": {
          "ctab": {
            "srcChannel": 3,
            "name": "Chord2",
            "accType": "CHORD2",
            "editable": true,
            "mutedNotes": [],
            "mutedChords": [],
            "autoStart": false,
            "sourceChordNote": 0,
            "sourceChordType": "Maj7",
            "ctb2Low": null,
            "ctb2Main": {
              "ntr": "ROOT_TRANSPOSITION",
              "ntt": "CHORD",
              "bassOn": false,
              "chordRootUpperLimit": 7,
              "noteLowLimit": 0,
              "noteHighLimit": 127,
              "rtr": "PITCH_SHIFT"
            },
            "ctb2High": null
          },
          "notes": [
            {
              "pitch": 72,
              "velocity": 89,
              "position": 0.0078125,
              "duration": 3.2838541666666665
            },
            {
              "pitch": 76,
              "velocity": 93,
              "position": 0.013020833333333334,
              "duration": 3.2864583333333335
            },
            {
              "pitch": 79,
              "velocity": 91,
              "position": 0.015625,
              "duration": 3.3046875
            },
            {
              "pitch": 55,
              "velocity": 77,
              "position": 0,
              "duration": 3.3255208333333335
            },
            {
              "pitch": 48,
              "velocity": 103,
              "position": 0,
              "duration": 3.328125
            }
          ]
        },
        "8": {
          "ctab": {
            "srcChannel": 8,
            "name": "Std.Kit1",
            "accType": "RHYTHM",
            "editable": true,
            "mutedNotes": [],
            "mutedChords": [],
            "autoStart": true,
            "sourceChordNote": 0,
            "sourceChordType": "Maj7",
            "ctb2Low": null,
            "ctb2Main": {
              "ntr": "ROOT_FIXED",
              "ntt": "BYPASS",
              "bassOn": false,
              "chordRootUpperLimit": 6,
              "noteLowLimit": 0,
              "noteHighLimit": 127,
              "rtr": "PITCH_SHIFT"
            },
            "ctb2High": null
          },
          "notes": [
            {
              "pitch": 42,
              "velocity": 112,
              "position": 0,
              "duration": 0.14583333333333334
            },
            {
              "pitch": 44,
              "velocity": 58,
              "position": 0,
              "duration": 0.14583333333333334
            },
            {
              "pitch": 35,
              "velocity": 100,
              "position": 0,
              "duration": 0.16666666666666666
            },
            {
              "pitch": 42,
              "velocity": 55,
              "position": 0.5,
              "duration": 0.16666666666666666
            },
            {
              "pitch": 38,
              "velocity": 69,
              "position": 1,
              "duration": 0.125
            },
            {
              "pitch": 44,
              "velocity": 58,
              "position": 1,
              "duration": 0.14583333333333334
            },
            {
              "pitch": 42,
              "velocity": 112,
              "position": 1,
              "duration": 0.4791666666666667
            },
            {
              "pitch": 42,
              "velocity": 55,
              "position": 1.5,
              "duration": 0.16666666666666666
            },
            {
              "pitch": 35,
              "velocity": 44,
              "position": 1.75,
              "duration": 0.16666666666666666
            },
            {
              "pitch": 42,
              "velocity": 112,
              "position": 2,
              "duration": 0.14583333333333334
            },
            {
              "pitch": 35,
              "velocity": 100,
              "position": 2,
              "duration": 0.16666666666666666
            },
            {
              "pitch": 44,
              "velocity": 58,
              "position": 2,
              "duration": 0.16666666666666666
            },
            {
              "pitch": 42,
              "velocity": 55,
              "position": 2.5,
              "duration": 0.16666666666666666
            },
            {
              "pitch": 38,
              "velocity": 83,
              "position": 2.9973958333333335,
              "duration": 0.10677083333333333
            },
            {
              "pitch": 44,
              "velocity": 58,
              "position": 3,
              "duration": 0.14583333333333334
            },
            {
              "pitch": 42,
              "velocity": 112,
              "position": 3,
              "duration": 0.14583333333333334
            },
            {
              "pitch": 49,
              "velocity": 46,
              "position": 0,
              "duration": 3.9583333333333335
            }
          ]
        },
        "12": {
          "ctab": {
            "srcChannel": 12,
            "name": "Bass",
            "accType": "BASS",
            "editable": true,
            "mutedNotes": [],
            "mutedChords": [],
            "autoStart": false,
            "sourceChordNote": 0,
            "sourceChordType": "Maj7",
            "ctb2Low": null,
            "ctb2Main": {
              "ntr": "ROOT_TRANSPOSITION",
              "ntt": "MELODY",
              "bassOn": true,
              "chordRootUpperLimit": 3,
              "noteLowLimit": 0,
              "noteHighLimit": 127,
              "rtr": "RETRIGGER_TO_ROOT"
            },
            "ctb2High": null
          },
          "notes": [
            {
              "pitch": 36,
              "velocity": 93,
              "position": 0,
              "duration": 3.0989583333333335
            }
          ]
        },
        "15": {
          "ctab": {
            "srcChannel": 15,
            "name": "Chord1",
            "accType": "CHORD1",
            "editable": true,
            "mutedNotes": [],
            "mutedChords": [],
            "autoStart": false,
            "sourceChordNote": 0,
            "sourceChordType": "Maj7",
            "ctb2Low": null,
            "ctb2Main": {
              "ntr": "ROOT_TRANSPOSITION",
              "ntt": "CHORD",
              "bassOn": false,
              "chordRootUpperLimit": 7,
              "noteLowLimit": 0,
              "noteHighLimit": 127,
              "rtr": "PITCH_SHIFT"
            },
            "ctb2High": null
          },
          "notes": [
            {
              "pitch": 64,
              "velocity": 96,
              "position": 0,
              "duration": 3.1640625
            },
            {
              "pitch": 60,
              "velocity": 99,
              "position": 0,
              "duration": 3.1770833333333335
            },
            {
              "pitch": 67,
              "velocity": 91,
              "position": 0,
              "duration": 3.1848958333333335
            },
            {
              "pitch": 72,
              "velocity": 81,
              "position": 0,
              "duration": 3.1953125
            }
          ]
        }
      }
    },
    "Ending_B": {
      "type": "Ending_B",
      "sizeInBeats": 16,
      "channels": {
        "0": {
          "ctab": {
            "srcChannel": 0,
            "name": "SteelGtr",
            "accType": "CHORD1",
            "editable": false,
            "mutedNotes": [],
            "mutedChords": [
              "1+2+5",
              "sus4",
              "1+5",
              "1+8",
              "dim7",
              "dim",
              "minMaj7(9)",
              "minMaj7",
              "min7(11)",
              "min7(9)",
              "min(9)",
              "m7b5",
              "min7",
              "min6",
              "min",
              "aug",
              "Maj6(9)",
              "Maj7(9)",
              "Maj(9)",
              "Maj7#11",
              "Maj7",
              "Maj6",
              "Maj"
            ],
            "autoStart": false,
            "sourceChordNote": 0,
            "sourceChordType": "7th",
            "ctb2Low": null,
            "ctb2Main": {
              "ntr": "ROOT_TRANSPOSITION",
              "ntt": "BYPASS",
              "bassOn": false,
              "chordRootUpperLimit": 6,
              "noteLowLimit": 0,
              "noteHighLimit": 127,
              "rtr": "PITCH_SHIFT"
            },
            "ctb2High": null
          },
          "notes": [
            {
              "pitch": 60,
              "velocity": 98,
              "position": 0.75,
              "duration": 0.625
            },
            {
              "pitch": 64,
              "velocity": 98,
              "position": 1.25,
              "duration": 0.3333333333333333
            },
            {
              "pitch": 58,
              "velocity": 98,
              "position": 0.5,
              "duration": 1.6041666666666667
            },
            {
              "pitch": 64,
              "velocity": 98,
              "position": 1.75,
              "duration": 0.6041666666666666
            },
            {
              "pitch": 60,
              "velocity": 98,
              "position": 2.5,
              "duration": 0.6875
            },
            {
              "pitch": 64,
              "velocity": 98,
              "position": 2.75,
              "duration": 0.4583333333333333
            },
            {
              "pitch": 58,
              "velocity": 98,
              "position": 2.25,
              "duration": 2.0416666666666665
            },
            {
              "pitch": 64,
              "velocity": 98,
              "position": 3.25,
              "duration": 1.25
            },
            {
              "pitch": 60,
              "velocity": 96,
              "position": 4.75,
              "duration": 0.5
            },
            {
              "pitch": 64,
              "velocity": 98,
              "position": 5.25,
              "duration": 0.16666666666666666
            },
            {
              "pitch": 64,
              "velocity": 98,
              "position": 5.75,
              "duration": 0.4583333333333333
            },
            {
              "pitch": 60,
              "velocity": 98,
              "position": 6.25,
              "duration": 0.4166666666666667
            },
            {
              "pitch": 58,
              "velocity": 85,
              "position": 4.5,
              "duration": 2.1875
            },
            {
              "pitch": 58,
              "velocity": 100,
              "position": 6.75,
              "duration": 0.4166666666666667
            },
            {
              "pitch": 64,
              "velocity": 96,
              "position": 7.25,
              "duration": 0.16666666666666666
            },
            {
              "pitch": 60,
              "velocity": 98,
              "position": 7.333333333333333,
              "duration": 0.14583333333333334
            },
            {
              "pitch": 58,
              "velocity": 98,
              "position": 7.5,
              "duration": 0.1875
            },
            {
              "pitch": 58,
              "velocity": 98,
              "position": 7.75,
              "duration": 0.8958333333333334
            },
            {
              "pitch": 58,
              "velocity": 98,
              "position": 8.75,
              "duration": 0.375
            },
            {
              "pitch": 60,
              "velocity": 96,
              "position": 9,
              "duration": 0.2708333333333333
            },
            {
              "pitch": 64,
              "velocity": 96,
              "position": 9.270833333333334,
              "duration": 0.4583333333333333
            },
            {
              "pitch": 60,
              "velocity": 98,
              "position": 9.791666666666666,
              "duration": 0.4791666666666667
            },
            {
              "pitch": 52,
              "velocity": 98,
              "position": 10.333333333333334,
              "duration": 0.2708333333333333
            },
            {
              "pitch": 58,
              "velocity": 96,
              "position": 10.604166666666666,
              "duration": 0.3125
            },
            {
              "pitch": 60,
              "velocity": 98,
              "position": 10.875,
              "duration": 1.0833333333333333
            },
            {
              "pitch": 58,
              "velocity": 98,
              "position": 11.416666666666666,
              "duration": 0.8541666666666666
            },
            {
              "pitch": 52,
              "velocity": 98,
              "position": 12.270833333333334,
              "duration": 3.7291666666666665
            }
          ]
        },
        "2": {
          "ctab": {
            "srcChannel": 2,
            "name": "SteelGtr",
            "accType": "CHORD2",
            "editable": false,
            "mutedNotes": [],
            "mutedChords": [
              "7aug",
              "Maj7aug",
              "7(#9)",
              "7(b13)",
              "7(b9)",
              "7(13)",
              "7#11",
              "7(9)",
              "7b5",
              "7sus4",
              "7th"
            ],
            "autoStart": false,
            "sourceChordNote": 0,
            "sourceChordType": "Maj",
            "ctb2Low": null,
            "ctb2Main": {
              "ntr": "ROOT_TRANSPOSITION",
              "ntt": "BYPASS",
              "bassOn": false,
              "chordRootUpperLimit": 6,
              "noteLowLimit": 0,
              "noteHighLimit": 127,
              "rtr": "PITCH_SHIFT"
            },
            "ctb2High": null
          },
          "notes": [
            {
              "pitch": 67,
              "velocity": 85,
              "position": 0.020833333333333332,
              "duration": 0.3541666666666667
            },
            {
              "pitch": 60,
              "velocity": 85,
              "position": 0,
              "duration": 0.4375
            },
            {
              "pitch": 48,
              "velocity": 43,
              "position": 0,
              "duration": 0.75
            },
            {
              "pitch": 64,
              "velocity": 85,
              "position": 0.020833333333333332,
              "duration": 0.7291666666666666
            },
            {
              "pitch": 55,
              "velocity": 64,
              "position": 0.25,
              "duration": 0.7291666666666666
            },
            {
              "pitch": 67,
              "velocity": 98,
              "position": 0.75,
              "duration": 0.5208333333333334
            },
            {
              "pitch": 60,
              "velocity": 96,
              "position": 0.5,
              "duration": 1
            },
            {
              "pitch": 55,
              "velocity": 92,
              "position": 1.25,
              "duration": 0.2708333333333333
            },
            {
              "pitch": 48,
              "velocity": 74,
              "position": 1,
              "duration": 0.6875
            },
            {
              "pitch": 55,
              "velocity": 96,
              "position": 1.7291666666666667,
              "duration": 0.3125
            },
            {
              "pitch": 60,
              "velocity": 96,
              "position": 1.75,
              "duration": 0.7083333333333334
            },
            {
              "pitch": 64,
              "velocity": 98,
              "position": 1.75,
              "duration": 0.8333333333333334
            },
            {
              "pitch": 55,
              "velocity": 85,
              "position": 2.25,
              "duration": 0.3333333333333333
            },
            {
              "pitch": 60,
              "velocity": 64,
              "position": 2.5,
              "duration": 0.16666666666666666
            },
            {
              "pitch": 67,
              "velocity": 96,
              "position": 1.5,
              "duration": 1.25
            },
            {
              "pitch": 48,
              "velocity": 64,
              "position": 2,
              "duration": 0.875
            },
            {
              "pitch": 55,
              "velocity": 92,
              "position": 2.7291666666666665,
              "duration": 0.3125
            },
            {
              "pitch": 60,
              "velocity": 96,
              "position": 2.75,
              "duration": 0.6666666666666666
            },
            {
              "pitch": 55,
              "velocity": 85,
              "position": 3.25,
              "duration": 0.20833333333333334
            },
            {
              "pitch": 48,
              "velocity": 64,
              "position": 3,
              "duration": 0.7291666666666666
            },
            {
              "pitch": 55,
              "velocity": 74,
              "position": 3.5,
              "duration": 0.25
            },
            {
              "pitch": 60,
              "velocity": 96,
              "position": 3.5,
              "duration": 0.4166666666666667
            },
            {
              "pitch": 48,
              "velocity": 80,
              "position": 3.75,
              "duration": 0.20833333333333334
            },
            {
              "pitch": 64,
              "velocity": 96,
              "position": 2.75,
              "duration": 1.2708333333333333
            },
            {
              "pitch": 60,
              "velocity": 92,
              "position": 3.9791666666666665,
              "duration": 0.4166666666666667
            },
            {
              "pitch": 60,
              "velocity": 74,
              "position": 4.5,
              "duration": 0.14583333333333334
            },
            {
              "pitch": 67,
              "velocity": 98,
              "position": 4.020833333333333,
              "duration": 0.6458333333333334
            },
            {
              "pitch": 48,
              "velocity": 96,
              "position": 4,
              "duration": 0.8333333333333334
            },
            {
              "pitch": 55,
              "velocity": 43,
              "position": 4.25,
              "duration": 0.7083333333333334
            },
            {
              "pitch": 67,
              "velocity": 98,
              "position": 4.75,
              "duration": 0.4791666666666667
            },
            {
              "pitch": 60,
              "velocity": 96,
              "position": 4.729166666666667,
              "duration": 0.8333333333333334
            },
            {
              "pitch": 55,
              "velocity": 85,
              "position": 5.25,
              "duration": 0.4166666666666667
            },
            {
              "pitch": 48,
              "velocity": 92,
              "position": 5,
              "duration": 0.6875
            },
            {
              "pitch": 67,
              "velocity": 85,
              "position": 5.5,
              "duration": 0.25
            },
            {
              "pitch": 55,
              "velocity": 92,
              "position": 5.729166666666667,
              "duration": 0.3333333333333333
            },
            {
              "pitch": 60,
              "velocity": 92,
              "position": 5.75,
              "duration": 0.5833333333333334
            },
            {
              "pitch": 55,
              "velocity": 85,
              "position": 6.25,
              "duration": 0.3958333333333333
            },
            {
              "pitch": 64,
              "velocity": 96,
              "position": 5.75,
              "duration": 0.9166666666666666
            },
            {
              "pitch": 60,
              "velocity": 80,
              "position": 6.5,
              "duration": 0.16666666666666666
            },
            {
              "pitch": 48,
              "velocity": 92,
              "position": 6,
              "duration": 0.7708333333333334
            },
            {
              "pitch": 55,
              "velocity": 85,
              "position": 6.729166666666667,
              "duration": 0.2916666666666667
            },
            {
              "pitch": 60,
              "velocity": 92,
              "position": 6.75,
              "duration": 0.6666666666666666
            },
            {
              "pitch": 55,
              "velocity": 85,
              "position": 7.25,
              "duration": 0.3541666666666667
            },
            {
              "pitch": 48,
              "velocity": 98,
              "position": 7,
              "duration": 0.7291666666666666
            },
            {
              "pitch": 60,
              "velocity": 85,
              "position": 7.5,
              "duration": 0.3958333333333333
            },
            {
              "pitch": 48,
              "velocity": 96,
              "position": 7.75,
              "duration": 0.20833333333333334
            },
            {
              "pitch": 64,
              "velocity": 96,
              "position": 6.75,
              "duration": 1.2708333333333333
            },
            {
              "pitch": 60,
              "velocity": 96,
              "position": 7.979166666666667,
              "duration": 0.4166666666666667
            },
            {
              "pitch": 60,
              "velocity": 64,
              "position": 8.5,
              "duration": 0.125
            },
            {
              "pitch": 67,
              "velocity": 98,
              "position": 8.020833333333334,
              "duration": 0.6458333333333334
            },
            {
              "pitch": 55,
              "velocity": 49,
              "position": 8.25,
              "duration": 0.5833333333333334
            },
            {
              "pitch": 48,
              "velocity": 92,
              "position": 8,
              "duration": 1
            },
            {
              "pitch": 67,
              "velocity": 98,
              "position": 8.75,
              "duration": 0.5208333333333334
            },
            {
              "pitch": 55,
              "velocity": 80,
              "position": 9.270833333333334,
              "duration": 0.2708333333333333
            },
            {
              "pitch": 60,
              "velocity": 96,
              "position": 8.729166666666666,
              "duration": 0.9583333333333334
            },
            {
              "pitch": 52,
              "velocity": 96,
              "position": 9,
              "duration": 0.7083333333333334
            },
            {
              "pitch": 67,
              "velocity": 85,
              "position": 9.520833333333334,
              "duration": 0.2708333333333333
            },
            {
              "pitch": 52,
              "velocity": 98,
              "position": 9.770833333333334,
              "duration": 0.2708333333333333
            },
            {
              "pitch": 55,
              "velocity": 98,
              "position": 9.791666666666666,
              "duration": 0.6041666666666666
            },
            {
              "pitch": 52,
              "velocity": 74,
              "position": 10.3125,
              "duration": 0.2916666666666667
            },
            {
              "pitch": 60,
              "velocity": 98,
              "position": 9.8125,
              "duration": 0.9791666666666666
            },
            {
              "pitch": 48,
              "velocity": 96,
              "position": 9.791666666666666,
              "duration": 1.2916666666666667
            },
            {
              "pitch": 55,
              "velocity": 80,
              "position": 10.604166666666666,
              "duration": 0.8125
            },
            {
              "pitch": 60,
              "velocity": 96,
              "position": 10.875,
              "duration": 0.625
            },
            {
              "pitch": 52,
              "velocity": 64,
              "position": 11.416666666666666,
              "duration": 0.5625
            },
            {
              "pitch": 48,
              "velocity": 96,
              "position": 11.145833333333334,
              "duration": 1
            },
            {
              "pitch": 55,
              "velocity": 74,
              "position": 11.708333333333334,
              "duration": 0.5625
            },
            {
              "pitch": 60,
              "velocity": 96,
              "position": 11.708333333333334,
              "duration": 0.5625
            },
            {
              "pitch": 48,
              "velocity": 80,
              "position": 12.25,
              "duration": 3.75
            },
            {
              "pitch": 52,
              "velocity": 92,
              "position": 12.270833333333334,
              "duration": 3.7291666666666665
            },
            {
              "pitch": 60,
              "velocity": 98,
              "position": 12.291666666666666,
              "duration": 3.7083333333333335
            }
          ]
        },
        "3": {
          "ctab": {
            "srcChannel": 3,
            "name": "SteelGtr",
            "accType": "CHORD2",
            "editable": false,
            "mutedNotes": [],
            "mutedChords": [
              "1+2+5",
              "sus4",
              "1+5",
              "1+8",
              "dim7",
              "dim",
              "minMaj7(9)",
              "minMaj7",
              "min7(11)",
              "min7(9)",
              "min(9)",
              "m7b5",
              "min7",
              "min6",
              "min",
              "aug",
              "Maj6(9)",
              "Maj7(9)",
              "Maj(9)",
              "Maj7#11",
              "Maj7",
              "Maj6",
              "Maj"
            ],
            "autoStart": false,
            "sourceChordNote": 0,
            "sourceChordType": "7th",
            "ctb2Low": null,
            "ctb2Main": {
              "ntr": "ROOT_TRANSPOSITION",
              "ntt": "BYPASS",
              "bassOn": false,
              "chordRootUpperLimit": 6,
              "noteLowLimit": 0,
              "noteHighLimit": 127,
              "rtr": "PITCH_SHIFT"
            },
            "ctb2High": null
          },
          "notes": [
            {
              "pitch": 70,
              "velocity": 85,
              "position": 0.020833333333333332,
              "duration": 0.3541666666666667
            },
            {
              "pitch": 60,
              "velocity": 85,
              "position": 0,
              "duration": 0.4375
            },
            {
              "pitch": 48,
              "velocity": 43,
              "position": 0,
              "duration": 0.75
            },
            {
              "pitch": 64,
              "velocity": 85,
              "position": 0.020833333333333332,
              "duration": 0.7291666666666666
            },
            {
              "pitch": 58,
              "velocity": 64,
              "position": 0.25,
              "duration": 0.7291666666666666
            },
            {
              "pitch": 70,
              "velocity": 98,
              "position": 0.75,
              "duration": 0.5208333333333334
            },
            {
              "pitch": 60,
              "velocity": 96,
              "position": 0.5,
              "duration": 1
            },
            {
              "pitch": 58,
              "velocity": 92,
              "position": 1.25,
              "duration": 0.2708333333333333
            },
            {
              "pitch": 48,
              "velocity": 74,
              "position": 1,
              "duration": 0.6875
            },
            {
              "pitch": 58,
              "velocity": 96,
              "position": 1.7291666666666667,
              "duration": 0.3125
            },
            {
              "pitch": 60,
              "velocity": 96,
              "position": 1.75,
              "duration": 0.7083333333333334
            },
            {
              "pitch": 64,
              "velocity": 98,
              "position": 1.75,
              "duration": 0.8333333333333334
            },
            {
              "pitch": 58,
              "velocity": 85,
              "position": 2.25,
              "duration": 0.3333333333333333
            },
            {
              "pitch": 60,
              "velocity": 64,
              "position": 2.5,
              "duration": 0.16666666666666666
            },
            {
              "pitch": 70,
              "velocity": 96,
              "position": 1.5,
              "duration": 1.25
            },
            {
              "pitch": 48,
              "velocity": 64,
              "position": 2,
              "duration": 0.875
            },
            {
              "pitch": 58,
              "velocity": 92,
              "position": 2.7291666666666665,
              "duration": 0.3125
            },
            {
              "pitch": 60,
              "velocity": 96,
              "position": 2.75,
              "duration": 0.6666666666666666
            },
            {
              "pitch": 58,
              "velocity": 85,
              "position": 3.25,
              "duration": 0.20833333333333334
            },
            {
              "pitch": 48,
              "velocity": 64,
              "position": 3,
              "duration": 0.7291666666666666
            },
            {
              "pitch": 58,
              "velocity": 74,
              "position": 3.5,
              "duration": 0.25
            },
            {
              "pitch": 60,
              "velocity": 96,
              "position": 3.5,
              "duration": 0.4166666666666667
            },
            {
              "pitch": 48,
              "velocity": 80,
              "position": 3.75,
              "duration": 0.20833333333333334
            },
            {
              "pitch": 64,
              "velocity": 96,
              "position": 2.75,
              "duration": 1.2708333333333333
            },
            {
              "pitch": 60,
              "velocity": 92,
              "position": 3.9791666666666665,
              "duration": 0.4166666666666667
            },
            {
              "pitch": 60,
              "velocity": 74,
              "position": 4.5,
              "duration": 0.14583333333333334
            },
            {
              "pitch": 70,
              "velocity": 98,
              "position": 4.020833333333333,
              "duration": 0.6458333333333334
            },
            {
              "pitch": 48,
              "velocity": 96,
              "position": 4,
              "duration": 0.8333333333333334
            },
            {
              "pitch": 58,
              "velocity": 43,
              "position": 4.25,
              "duration": 0.7083333333333334
            },
            {
              "pitch": 70,
              "velocity": 98,
              "position": 4.75,
              "duration": 0.4791666666666667
            },
            {
              "pitch": 60,
              "velocity": 96,
              "position": 4.729166666666667,
              "duration": 0.8333333333333334
            },
            {
              "pitch": 58,
              "velocity": 85,
              "position": 5.25,
              "duration": 0.4166666666666667
            },
            {
              "pitch": 48,
              "velocity": 92,
              "position": 5,
              "duration": 0.6875
            },
            {
              "pitch": 70,
              "velocity": 85,
              "position": 5.5,
              "duration": 0.25
            },
            {
              "pitch": 58,
              "velocity": 92,
              "position": 5.729166666666667,
              "duration": 0.3333333333333333
            },
            {
              "pitch": 60,
              "velocity": 92,
              "position": 5.75,
              "duration": 0.5833333333333334
            },
            {
              "pitch": 58,
              "velocity": 85,
              "position": 6.25,
              "duration": 0.3958333333333333
            },
            {
              "pitch": 64,
              "velocity": 96,
              "position": 5.75,
              "duration": 0.9166666666666666
            },
            {
              "pitch": 60,
              "velocity": 80,
              "position": 6.5,
              "duration": 0.16666666666666666
            },
            {
              "pitch": 48,
              "velocity": 92,
              "position": 6,
              "duration": 0.7708333333333334
            },
            {
              "pitch": 58,
              "velocity": 85,
              "position": 6.729166666666667,
              "duration": 0.2916666666666667
            },
            {
              "pitch": 60,
              "velocity": 92,
              "position": 6.75,
              "duration": 0.6666666666666666
            },
            {
              "pitch": 58,
              "velocity": 85,
              "position": 7.25,
              "duration": 0.3541666666666667
            },
            {
              "pitch": 48,
              "velocity": 98,
              "position": 7,
              "duration": 0.7291666666666666
            },
            {
              "pitch": 60,
              "velocity": 85,
              "position": 7.5,
              "duration": 0.3958333333333333
            },
            {
              "pitch": 48,
              "velocity": 96,
              "position": 7.75,
              "duration": 0.20833333333333334
            },
            {
              "pitch": 64,
              "velocity": 96,
              "position": 6.75,
              "duration": 1.2708333333333333
            },
            {
              "pitch": 60,
              "velocity": 96,
              "position": 7.979166666666667,
              "duration": 0.4166666666666667
            },
            {
              "pitch": 60,
              "velocity": 64,
              "position": 8.5,
              "duration": 0.125
            },
            {
              "pitch": 70,
              "velocity": 98,
              "position": 8.020833333333334,
              "duration": 0.6458333333333334
            },
            {
              "pitch": 58,
              "velocity": 49,
              "position": 8.25,
              "duration": 0.5833333333333334
            },
            {
              "pitch": 48,
              "velocity": 92,
              "position": 8,
              "duration": 1
            },
            {
              "pitch": 70,
              "velocity": 98,
              "position": 8.75,
              "duration": 0.5208333333333334
            },
            {
              "pitch": 58,
              "velocity": 80,
              "position": 9.270833333333334,
              "duration": 0.2708333333333333
            },
            {
              "pitch": 60,
              "velocity": 96,
              "position": 8.729166666666666,
              "duration": 0.9583333333333334
            },
            {
              "pitch": 52,
              "velocity": 96,
              "position": 9,
              "duration": 0.7083333333333334
            },
            {
              "pitch": 70,
              "velocity": 85,
              "position": 9.520833333333334,
              "duration": 0.2708333333333333
            },
            {
              "pitch": 52,
              "velocity": 98,
              "position": 9.770833333333334,
              "duration": 0.2708333333333333
            },
            {
              "pitch": 58,
              "velocity": 98,
              "position": 9.791666666666666,
              "duration": 0.6041666666666666
            },
            {
              "pitch": 52,
              "velocity": 74,
              "position": 10.3125,
              "duration": 0.2916666666666667
            },
            {
              "pitch": 60,
              "velocity": 98,
              "position": 9.8125,
              "duration": 0.9791666666666666
            },
            {
              "pitch": 48,
              "velocity": 96,
              "position": 9.791666666666666,
              "duration": 1.2916666666666667
            },
            {
              "pitch": 58,
              "velocity": 80,
              "position": 10.604166666666666,
              "duration": 0.8125
            },
            {
              "pitch": 60,
              "velocity": 96,
              "position": 10.875,
              "duration": 0.625
            },
            {
              "pitch": 52,
              "velocity": 64,
              "position": 11.416666666666666,
              "duration": 0.5625
            },
            {
              "pitch": 48,
              "velocity": 96,
              "position": 11.145833333333334,
              "duration": 1
            },
            {
              "pitch": 58,
              "velocity": 74,
              "position": 11.708333333333334,
              "duration": 0.5625
            },
            {
              "pitch": 60,
              "velocity": 96,
              "position": 11.708333333333334,
              "duration": 0.5625
            },
            {
              "pitch": 48,
              "velocity": 80,
              "position": 12.25,
              "duration": 3.75
            },
            {
              "pitch": 52,
              "velocity": 92,
              "position": 12.270833333333334,
              "duration": 3.7291666666666665
            },
            {
              "pitch": 60,
              "velocity": 98,
              "position": 12.291666666666666,
              "duration": 3.7083333333333335
            }
          ]
        },
        "8": {
          "ctab": {
            "srcChannel": 8,
            "name": "Std.Kit1",
            "accType": "RHYTHM",
            "editable": true,
            "mutedNotes": [],
            "mutedChords": [],
            "autoStart": true,
            "sourceChordNote": 0,
            "sourceChordType": "Maj7",
            "ctb2Low": null,
            "ctb2Main": {
              "ntr": "ROOT_FIXED",
              "ntt": "BYPASS",
              "bassOn": false,
              "chordRootUpperLimit": 6,
              "noteLowLimit": 0,
              "noteHighLimit": 127,
              "rtr": "PITCH_SHIFT"
            },
            "ctb2High": null
          },
          "notes": [
            {
              "pitch": 42,
              "velocity": 112,
              "position": 0,
              "duration": 0.14583333333333334
            },
            {
              "pitch": 44,
              "velocity": 58,
              "position": 0,
              "duration": 0.14583333333333334
            },
            {
              "pitch": 35,
              "velocity": 100,
              "position": 0,
              "duration": 0.16666666666666666
            },
            {
              "pitch": 42,
              "velocity": 55,
              "position": 0.5,
              "duration": 0.16666666666666666
            },
            {
              "pitch": 38,
              "velocity": 69,
              "position": 1,
              "duration": 0.125
            },
            {
              "pitch": 44,
              "velocity": 58,
              "position": 1,
              "duration": 0.14583333333333334
            },
            {
              "pitch": 42,
              "velocity": 112,
              "position": 1,
              "duration": 0.4791666666666667
            },
            {
              "pitch": 42,
              "velocity": 55,
              "position": 1.5,
              "duration": 0.16666666666666666
            },
            {
              "pitch": 35,
              "velocity": 44,
              "position": 1.75,
              "duration": 0.16666666666666666
            },
            {
              "pitch": 42,
              "velocity": 112,
              "position": 2,
              "duration": 0.14583333333333334
            },
            {
              "pitch": 44,
              "velocity": 58,
              "position": 2,
              "duration": 0.16666666666666666
            },
            {
              "pitch": 35,
              "velocity": 100,
              "position": 2,
              "duration": 0.16666666666666666
            },
            {
              "pitch": 42,
              "velocity": 55,
              "position": 2.5,
              "duration": 0.16666666666666666
            },
            {
              "pitch": 38,
              "velocity": 69,
              "position": 3,
              "duration": 0.125
            },
            {
              "pitch": 42,
              "velocity": 112,
              "position": 3,
              "duration": 0.14583333333333334
            },
            {
              "pitch": 44,
              "velocity": 58,
              "position": 3,
              "duration": 0.14583333333333334
            },
            {
              "pitch": 42,
              "velocity": 55,
              "position": 3.5,
              "duration": 0.16666666666666666
            },
            {
              "pitch": 49,
              "velocity": 46,
              "position": 0,
              "duration": 3.9583333333333335
            },
            {
              "pitch": 42,
              "velocity": 112,
              "position": 4,
              "duration": 0.14583333333333334
            },
            {
              "pitch": 44,
              "velocity": 58,
              "position": 4,
              "duration": 0.14583333333333334
            },
            {
              "pitch": 35,
              "velocity": 100,
              "position": 4,
              "duration": 0.14583333333333334
            },
            {
              "pitch": 42,
              "velocity": 55,
              "position": 4.5,
              "duration": 0.16666666666666666
            },
            {
              "pitch": 38,
              "velocity": 69,
              "position": 5,
              "duration": 0.125
            },
            {
              "pitch": 44,
              "velocity": 58,
              "position": 5,
              "duration": 0.14583333333333334
            },
            {
              "pitch": 42,
              "velocity": 112,
              "position": 5,
              "duration": 0.4791666666666667
            },
            {
              "pitch": 42,
              "velocity": 55,
              "position": 5.5,
              "duration": 0.16666666666666666
            },
            {
              "pitch": 35,
              "velocity": 44,
              "position": 5.75,
              "duration": 0.16666666666666666
            },
            {
              "pitch": 35,
              "velocity": 100,
              "position": 6,
              "duration": 0.14583333333333334
            },
            {
              "pitch": 42,
              "velocity": 112,
              "position": 6,
              "duration": 0.16666666666666666
            },
            {
              "pitch": 44,
              "velocity": 58,
              "position": 6,
              "duration": 0.16666666666666666
            },
            {
              "pitch": 42,
              "velocity": 55,
              "position": 6.5,
              "duration": 0.16666666666666666
            },
            {
              "pitch": 38,
              "velocity": 69,
              "position": 7,
              "duration": 0.125
            },
            {
              "pitch": 44,
              "velocity": 58,
              "position": 7,
              "duration": 0.14583333333333334
            },
            {
              "pitch": 42,
              "velocity": 112,
              "position": 7,
              "duration": 0.14583333333333334
            },
            {
              "pitch": 35,
              "velocity": 44,
              "position": 7.5,
              "duration": 0.16666666666666666
            },
            {
              "pitch": 46,
              "velocity": 58,
              "position": 7.5,
              "duration": 0.4375
            },
            {
              "pitch": 44,
              "velocity": 58,
              "position": 8,
              "duration": 0.14583333333333334
            },
            {
              "pitch": 42,
              "velocity": 112,
              "position": 8.020833333333334,
              "duration": 0.125
            },
            {
              "pitch": 35,
              "velocity": 100,
              "position": 8,
              "duration": 0.16666666666666666
            },
            {
              "pitch": 47,
              "velocity": 26,
              "position": 8.416666666666666,
              "duration": 0.0625
            },
            {
              "pitch": 47,
              "velocity": 59,
              "position": 8.5,
              "duration": 0.041666666666666664
            },
            {
              "pitch": 42,
              "velocity": 55,
              "position": 8.5,
              "duration": 0.16666666666666666
            },
            {
              "pitch": 44,
              "velocity": 58,
              "position": 9,
              "duration": 0.16666666666666666
            },
            {
              "pitch": 45,
              "velocity": 24,
              "position": 9.270833333333334,
              "duration": 0.125
            },
            {
              "pitch": 42,
              "velocity": 112,
              "position": 9,
              "duration": 0.5104166666666666
            },
            {
              "pitch": 42,
              "velocity": 55,
              "position": 9.520833333333334,
              "duration": 0.1875
            },
            {
              "pitch": 35,
              "velocity": 44,
              "position": 9.791666666666666,
              "duration": 0.16666666666666666
            },
            {
              "pitch": 45,
              "velocity": 63,
              "position": 10.0625,
              "duration": 0.125
            },
            {
              "pitch": 42,
              "velocity": 112,
              "position": 10.0625,
              "duration": 0.16666666666666666
            },
            {
              "pitch": 35,
              "velocity": 100,
              "position": 10.0625,
              "duration": 0.16666666666666666
            },
            {
              "pitch": 44,
              "velocity": 58,
              "position": 10.0625,
              "duration": 0.16666666666666666
            },
            {
              "pitch": 51,
              "velocity": 73,
              "position": 9.520833333333334,
              "duration": 1.0520833333333333
            },
            {
              "pitch": 42,
              "velocity": 55,
              "position": 10.583333333333334,
              "duration": 0.1875
            },
            {
              "pitch": 43,
              "velocity": 18,
              "position": 10.875,
              "duration": 0.125
            },
            {
              "pitch": 51,
              "velocity": 73,
              "position": 10.583333333333334,
              "duration": 0.5416666666666666
            },
            {
              "pitch": 43,
              "velocity": 53,
              "position": 11.145833333333334,
              "duration": 0.125
            },
            {
              "pitch": 42,
              "velocity": 112,
              "position": 11.145833333333334,
              "duration": 0.16666666666666666
            },
            {
              "pitch": 44,
              "velocity": 58,
              "position": 11.145833333333334,
              "duration": 0.16666666666666666
            },
            {
              "pitch": 51,
              "velocity": 16,
              "position": 11.145833333333334,
              "duration": 0.53125
            },
            {
              "pitch": 41,
              "velocity": 56,
              "position": 11.6875,
              "duration": 0.14583333333333334
            },
            {
              "pitch": 42,
              "velocity": 55,
              "position": 11.6875,
              "duration": 0.1875
            },
            {
              "pitch": 51,
              "velocity": 38,
              "position": 11.6875,
              "duration": 0.2708333333333333
            },
            {
              "pitch": 46,
              "velocity": 58,
              "position": 8,
              "duration": 4.208333333333333
            },
            {
              "pitch": 51,
              "velocity": 86,
              "position": 11.979166666666666,
              "duration": 0.2708333333333333
            },
            {
              "pitch": 35,
              "velocity": 100,
              "position": 12.25,
              "duration": 0.1875
            },
            {
              "pitch": 49,
              "velocity": 46,
              "position": 12.25,
              "duration": 3.75
            }
          ]
        },
        "10": {
          "ctab": {
            "srcChannel": 10,
            "name": "Std.Kit1",
            "accType": "SUBRHYTHM",
            "editable": true,
            "mutedNotes": [],
            "mutedChords": [],
            "autoStart": true,
            "sourceChordNote": 0,
            "sourceChordType": "Maj7",
            "ctb2Low": null,
            "ctb2Main": {
              "ntr": "ROOT_FIXED",
              "ntt": "BYPASS",
              "bassOn": false,
              "chordRootUpperLimit": 6,
              "noteLowLimit": 0,
              "noteHighLimit": 127,
              "rtr": "PITCH_SHIFT"
            },
            "ctb2High": null
          },
          "notes": [
            {
              "pitch": 62,
              "velocity": 77,
              "position": 0,
              "duration": 0.10416666666666667
            },
            {
              "pitch": 69,
              "velocity": 74,
              "position": 0,
              "duration": 0.10416666666666667
            },
            {
              "pitch": 63,
              "velocity": 60,
              "position": 0.5,
              "duration": 0.10416666666666667
            },
            {
              "pitch": 69,
              "velocity": 49,
              "position": 0.5,
              "duration": 0.125
            },
            {
              "pitch": 62,
              "velocity": 77,
              "position": 0.75,
              "duration": 0.125
            },
            {
              "pitch": 63,
              "velocity": 60,
              "position": 1,
              "duration": 0.10416666666666667
            },
            {
              "pitch": 69,
              "velocity": 74,
              "position": 1,
              "duration": 0.10416666666666667
            },
            {
              "pitch": 81,
              "velocity": 21,
              "position": 1,
              "duration": 0.10416666666666667
            },
            {
              "pitch": 62,
              "velocity": 91,
              "position": 1.5,
              "duration": 0.10416666666666667
            },
            {
              "pitch": 69,
              "velocity": 49,
              "position": 1.5,
              "duration": 0.125
            },
            {
              "pitch": 69,
              "velocity": 39,
              "position": 1.75,
              "duration": 0.10416666666666667
            },
            {
              "pitch": 69,
              "velocity": 74,
              "position": 2,
              "duration": 0.10416666666666667
            },
            {
              "pitch": 63,
              "velocity": 63,
              "position": 2,
              "duration": 0.10416666666666667
            },
            {
              "pitch": 69,
              "velocity": 49,
              "position": 2.5,
              "duration": 0.10416666666666667
            },
            {
              "pitch": 63,
              "velocity": 63,
              "position": 2.5,
              "duration": 0.125
            },
            {
              "pitch": 81,
              "velocity": 21,
              "position": 3,
              "duration": 0.10416666666666667
            },
            {
              "pitch": 62,
              "velocity": 87,
              "position": 3,
              "duration": 0.10416666666666667
            },
            {
              "pitch": 69,
              "velocity": 74,
              "position": 3,
              "duration": 0.10416666666666667
            },
            {
              "pitch": 54,
              "velocity": 42,
              "position": 3,
              "duration": 0.1875
            },
            {
              "pitch": 69,
              "velocity": 49,
              "position": 3.5,
              "duration": 0.10416666666666667
            },
            {
              "pitch": 64,
              "velocity": 85,
              "position": 3.5,
              "duration": 0.10416666666666667
            },
            {
              "pitch": 69,
              "velocity": 39,
              "position": 3.75,
              "duration": 0.125
            },
            {
              "pitch": 58,
              "velocity": 56,
              "position": 0,
              "duration": 3.9791666666666665
            },
            {
              "pitch": 69,
              "velocity": 74,
              "position": 4,
              "duration": 0.10416666666666667
            },
            {
              "pitch": 62,
              "velocity": 77,
              "position": 4,
              "duration": 0.10416666666666667
            },
            {
              "pitch": 69,
              "velocity": 49,
              "position": 4.5,
              "duration": 0.10416666666666667
            },
            {
              "pitch": 63,
              "velocity": 60,
              "position": 4.5,
              "duration": 0.125
            },
            {
              "pitch": 62,
              "velocity": 77,
              "position": 4.75,
              "duration": 0.125
            },
            {
              "pitch": 69,
              "velocity": 74,
              "position": 5,
              "duration": 0.10416666666666667
            },
            {
              "pitch": 81,
              "velocity": 21,
              "position": 5,
              "duration": 0.10416666666666667
            },
            {
              "pitch": 63,
              "velocity": 60,
              "position": 5,
              "duration": 0.10416666666666667
            },
            {
              "pitch": 62,
              "velocity": 91,
              "position": 5.5,
              "duration": 0.125
            },
            {
              "pitch": 69,
              "velocity": 49,
              "position": 5.5,
              "duration": 0.125
            },
            {
              "pitch": 69,
              "velocity": 39,
              "position": 5.75,
              "duration": 0.125
            },
            {
              "pitch": 63,
              "velocity": 63,
              "position": 6,
              "duration": 0.10416666666666667
            },
            {
              "pitch": 69,
              "velocity": 74,
              "position": 6,
              "duration": 0.10416666666666667
            },
            {
              "pitch": 69,
              "velocity": 49,
              "position": 6.5,
              "duration": 0.10416666666666667
            },
            {
              "pitch": 63,
              "velocity": 63,
              "position": 6.5,
              "duration": 0.125
            },
            {
              "pitch": 69,
              "velocity": 74,
              "position": 7,
              "duration": 0.10416666666666667
            },
            {
              "pitch": 81,
              "velocity": 21,
              "position": 7,
              "duration": 0.10416666666666667
            },
            {
              "pitch": 62,
              "velocity": 87,
              "position": 7,
              "duration": 0.10416666666666667
            },
            {
              "pitch": 54,
              "velocity": 42,
              "position": 7,
              "duration": 0.1875
            },
            {
              "pitch": 64,
              "velocity": 85,
              "position": 7.5,
              "duration": 0.10416666666666667
            },
            {
              "pitch": 69,
              "velocity": 22,
              "position": 7.5,
              "duration": 0.125
            },
            {
              "pitch": 69,
              "velocity": 39,
              "position": 7.75,
              "duration": 0.125
            },
            {
              "pitch": 62,
              "velocity": 77,
              "position": 8,
              "duration": 0.10416666666666667
            },
            {
              "pitch": 69,
              "velocity": 74,
              "position": 8,
              "duration": 0.10416666666666667
            },
            {
              "pitch": 63,
              "velocity": 60,
              "position": 8.5,
              "duration": 0.125
            },
            {
              "pitch": 69,
              "velocity": 49,
              "position": 8.5,
              "duration": 0.125
            },
            {
              "pitch": 62,
              "velocity": 77,
              "position": 8.75,
              "duration": 0.125
            },
            {
              "pitch": 69,
              "velocity": 74,
              "position": 9,
              "duration": 0.125
            },
            {
              "pitch": 63,
              "velocity": 60,
              "position": 9,
              "duration": 0.125
            },
            {
              "pitch": 81,
              "velocity": 21,
              "position": 9,
              "duration": 0.125
            },
            {
              "pitch": 69,
              "velocity": 49,
              "position": 9.520833333333334,
              "duration": 0.14583333333333334
            },
            {
              "pitch": 62,
              "velocity": 91,
              "position": 9.520833333333334,
              "duration": 0.14583333333333334
            },
            {
              "pitch": 69,
              "velocity": 39,
              "position": 9.791666666666666,
              "duration": 0.125
            },
            {
              "pitch": 63,
              "velocity": 63,
              "position": 10.0625,
              "duration": 0.125
            },
            {
              "pitch": 69,
              "velocity": 74,
              "position": 10.0625,
              "duration": 0.125
            },
            {
              "pitch": 63,
              "velocity": 63,
              "position": 10.583333333333334,
              "duration": 0.14583333333333334
            },
            {
              "pitch": 69,
              "velocity": 49,
              "position": 10.583333333333334,
              "duration": 0.14583333333333334
            },
            {
              "pitch": 62,
              "velocity": 87,
              "position": 11.145833333333334,
              "duration": 0.10416666666666667
            },
            {
              "pitch": 81,
              "velocity": 21,
              "position": 11.145833333333334,
              "duration": 0.125
            },
            {
              "pitch": 69,
              "velocity": 74,
              "position": 11.145833333333334,
              "duration": 0.125
            },
            {
              "pitch": 54,
              "velocity": 42,
              "position": 11.145833333333334,
              "duration": 0.20833333333333334
            },
            {
              "pitch": 69,
              "velocity": 49,
              "position": 11.6875,
              "duration": 0.14583333333333334
            },
            {
              "pitch": 64,
              "velocity": 85,
              "position": 11.708333333333334,
              "duration": 0.125
            },
            {
              "pitch": 69,
              "velocity": 39,
              "position": 11.979166666666666,
              "duration": 0.14583333333333334
            },
            {
              "pitch": 58,
              "velocity": 56,
              "position": 12.270833333333334,
              "duration": 3.7291666666666665
            }
          ]
        },
        "12": {
          "ctab": {
            "srcChannel": 12,
            "name": "Fretless",
            "accType": "BASS",
            "editable": false,
            "mutedNotes": [],
            "mutedChords": [],
            "autoStart": false,
            "sourceChordNote": 0,
            "sourceChordType": "Maj",
            "ctb2Low": null,
            "ctb2Main": {
              "ntr": "ROOT_TRANSPOSITION",
              "ntt": "BYPASS",
              "bassOn": true,
              "chordRootUpperLimit": 3,
              "noteLowLimit": 28,
              "noteHighLimit": 54,
              "rtr": "PITCH_SHIFT_TO_ROOT"
            },
            "ctb2High": null
          },
          "notes": [
            {
              "pitch": 36,
              "velocity": 91,
              "position": 0,
              "duration": 2.8958333333333335
            },
            {
              "pitch": 43,
              "velocity": 101,
              "position": 3,
              "duration": 1.0208333333333333
            },
            {
              "pitch": 36,
              "velocity": 91,
              "position": 4,
              "duration": 2.8125
            },
            {
              "pitch": 43,
              "velocity": 106,
              "position": 7,
              "duration": 0.9583333333333334
            },
            {
              "pitch": 36,
              "velocity": 101,
              "position": 8,
              "duration": 1.6875
            },
            {
              "pitch": 36,
              "velocity": 101,
              "position": 9.791666666666666,
              "duration": 1.3541666666666667
            },
            {
              "pitch": 31,
              "velocity": 106,
              "position": 11.145833333333334,
              "duration": 4.854166666666667
            },
            {
              "pitch": 36,
              "velocity": 91,
              "position": 12.270833333333334,
              "duration": 3.7291666666666665
            }
          ]
        },
        "15": {
          "ctab": {
            "srcChannel": 15,
            "name": "SteelGtr",
            "accType": "CHORD1",
            "editable": false,
            "mutedNotes": [],
            "mutedChords": [
              "7aug",
              "Maj7aug",
              "7(#9)",
              "7(b13)",
              "7(b9)",
              "7(13)",
              "7#11",
              "7(9)",
              "7b5",
              "7sus4",
              "7th"
            ],
            "autoStart": false,
            "sourceChordNote": 0,
            "sourceChordType": "Maj",
            "ctb2Low": null,
            "ctb2Main": {
              "ntr": "ROOT_TRANSPOSITION",
              "ntt": "BYPASS",
              "bassOn": false,
              "chordRootUpperLimit": 6,
              "noteLowLimit": 0,
              "noteHighLimit": 127,
              "rtr": "PITCH_SHIFT"
            },
            "ctb2High": null
          },
          "notes": [
            {
              "pitch": 60,
              "velocity": 98,
              "position": 0.75,
              "duration": 0.625
            },
            {
              "pitch": 64,
              "velocity": 98,
              "position": 1.25,
              "duration": 0.3333333333333333
            },
            {
              "pitch": 55,
              "velocity": 98,
              "position": 0.5,
              "duration": 1.6041666666666667
            },
            {
              "pitch": 64,
              "velocity": 98,
              "position": 1.75,
              "duration": 0.6041666666666666
            },
            {
              "pitch": 60,
              "velocity": 98,
              "position": 2.5,
              "duration": 0.6875
            },
            {
              "pitch": 64,
              "velocity": 98,
              "position": 2.75,
              "duration": 0.4583333333333333
            },
            {
              "pitch": 55,
              "velocity": 98,
              "position": 2.25,
              "duration": 2.0416666666666665
            },
            {
              "pitch": 64,
              "velocity": 98,
              "position": 3.25,
              "duration": 1.25
            },
            {
              "pitch": 60,
              "velocity": 96,
              "position": 4.75,
              "duration": 0.5
            },
            {
              "pitch": 64,
              "velocity": 98,
              "position": 5.25,
              "duration": 0.16666666666666666
            },
            {
              "pitch": 64,
              "velocity": 98,
              "position": 5.75,
              "duration": 0.4583333333333333
            },
            {
              "pitch": 60,
              "velocity": 98,
              "position": 6.25,
              "duration": 0.4166666666666667
            },
            {
              "pitch": 55,
              "velocity": 85,
              "position": 4.5,
              "duration": 2.1875
            },
            {
              "pitch": 55,
              "velocity": 100,
              "position": 6.75,
              "duration": 0.4166666666666667
            },
            {
              "pitch": 64,
              "velocity": 96,
              "position": 7.25,
              "duration": 0.16666666666666666
            },
            {
              "pitch": 60,
              "velocity": 98,
              "position": 7.333333333333333,
              "duration": 0.14583333333333334
            },
            {
              "pitch": 55,
              "velocity": 98,
              "position": 7.5,
              "duration": 0.1875
            },
            {
              "pitch": 55,
              "velocity": 98,
              "position": 7.75,
              "duration": 0.8958333333333334
            },
            {
              "pitch": 55,
              "velocity": 98,
              "position": 8.75,
              "duration": 0.375
            },
            {
              "pitch": 60,
              "velocity": 96,
              "position": 9,
              "duration": 0.2708333333333333
            },
            {
              "pitch": 64,
              "velocity": 96,
              "position": 9.270833333333334,
              "duration": 0.4583333333333333
            },
            {
              "pitch": 60,
              "velocity": 98,
              "position": 9.791666666666666,
              "duration": 0.4791666666666667
            },
            {
              "pitch": 52,
              "velocity": 98,
              "position": 10.333333333333334,
              "duration": 0.2708333333333333
            },
            {
              "pitch": 55,
              "velocity": 96,
              "position": 10.604166666666666,
              "duration": 0.3125
            },
            {
              "pitch": 60,
              "velocity": 98,
              "position": 10.875,
              "duration": 1.0833333333333333
            },
            {
              "pitch": 55,
              "velocity": 98,
              "position": 11.416666666666666,
              "duration": 0.8541666666666666
            },
            {
              "pitch": 52,
              "velocity": 98,
              "position": 12.270833333333334,
              "duration": 3.7291666666666665
            }
          ]
        }
      }
    },
    "Ending_C": {
      "type": "Ending_C",
      "sizeInBeats": 16,
      "channels": {
        "0": {
          "ctab": {
            "srcChannel": 0,
            "name": "SteelGtr",
            "accType": "CHORD1",
            "editable": false,
            "mutedNotes": [],
            "mutedChords": [
              "1+2+5",
              "sus4",
              "1+5",
              "1+8",
              "dim7",
              "dim",
              "minMaj7(9)",
              "minMaj7",
              "min7(11)",
              "min7(9)",
              "min(9)",
              "m7b5",
              "min7",
              "min6",
              "min",
              "aug",
              "Maj6(9)",
              "Maj7(9)",
              "Maj(9)",
              "Maj7#11",
              "Maj7",
              "Maj6",
              "Maj"
            ],
            "autoStart": false,
            "sourceChordNote": 0,
            "sourceChordType": "7th",
            "ctb2Low": null,
            "ctb2Main": {
              "ntr": "ROOT_TRANSPOSITION",
              "ntt": "BYPASS",
              "bassOn": false,
              "chordRootUpperLimit": 6,
              "noteLowLimit": 0,
              "noteHighLimit": 127,
              "rtr": "PITCH_SHIFT"
            },
            "ctb2High": null
          },
          "notes": [
            {
              "pitch": 70,
              "velocity": 85,
              "position": 0.020833333333333332,
              "duration": 0.3541666666666667
            },
            {
              "pitch": 60,
              "velocity": 85,
              "position": 0,
              "duration": 0.4375
            },
            {
              "pitch": 48,
              "velocity": 43,
              "position": 0,
              "duration": 0.75
            },
            {
              "pitch": 64,
              "velocity": 85,
              "position": 0.020833333333333332,
              "duration": 0.7291666666666666
            },
            {
              "pitch": 58,
              "velocity": 64,
              "position": 0.25,
              "duration": 0.7291666666666666
            },
            {
              "pitch": 70,
              "velocity": 98,
              "position": 0.75,
              "duration": 0.5208333333333334
            },
            {
              "pitch": 60,
              "velocity": 96,
              "position": 0.5,
              "duration": 1
            },
            {
              "pitch": 58,
              "velocity": 92,
              "position": 1.25,
              "duration": 0.2708333333333333
            },
            {
              "pitch": 48,
              "velocity": 74,
              "position": 1,
              "duration": 0.6875
            },
            {
              "pitch": 58,
              "velocity": 96,
              "position": 1.7291666666666667,
              "duration": 0.3125
            },
            {
              "pitch": 60,
              "velocity": 96,
              "position": 1.75,
              "duration": 0.7083333333333334
            },
            {
              "pitch": 64,
              "velocity": 98,
              "position": 1.75,
              "duration": 0.8333333333333334
            },
            {
              "pitch": 58,
              "velocity": 85,
              "position": 2.25,
              "duration": 0.3333333333333333
            },
            {
              "pitch": 60,
              "velocity": 64,
              "position": 2.5,
              "duration": 0.16666666666666666
            },
            {
              "pitch": 70,
              "velocity": 96,
              "position": 1.5,
              "duration": 1.25
            },
            {
              "pitch": 48,
              "velocity": 64,
              "position": 2,
              "duration": 0.875
            },
            {
              "pitch": 58,
              "velocity": 92,
              "position": 2.7291666666666665,
              "duration": 0.3125
            },
            {
              "pitch": 60,
              "velocity": 96,
              "position": 2.75,
              "duration": 0.6666666666666666
            },
            {
              "pitch": 58,
              "velocity": 85,
              "position": 3.25,
              "duration": 0.20833333333333334
            },
            {
              "pitch": 48,
              "velocity": 64,
              "position": 3,
              "duration": 0.7291666666666666
            },
            {
              "pitch": 58,
              "velocity": 74,
              "position": 3.5,
              "duration": 0.25
            },
            {
              "pitch": 60,
              "velocity": 96,
              "position": 3.5,
              "duration": 0.4166666666666667
            },
            {
              "pitch": 48,
              "velocity": 80,
              "position": 3.75,
              "duration": 0.20833333333333334
            },
            {
              "pitch": 64,
              "velocity": 96,
              "position": 2.75,
              "duration": 1.2708333333333333
            },
            {
              "pitch": 60,
              "velocity": 92,
              "position": 3.9791666666666665,
              "duration": 0.4166666666666667
            },
            {
              "pitch": 60,
              "velocity": 74,
              "position": 4.5,
              "duration": 0.14583333333333334
            },
            {
              "pitch": 70,
              "velocity": 98,
              "position": 4.020833333333333,
              "duration": 0.6458333333333334
            },
            {
              "pitch": 48,
              "velocity": 96,
              "position": 4,
              "duration": 0.8333333333333334
            },
            {
              "pitch": 58,
              "velocity": 43,
              "position": 4.25,
              "duration": 0.7083333333333334
            },
            {
              "pitch": 70,
              "velocity": 98,
              "position": 4.75,
              "duration": 0.4791666666666667
            },
            {
              "pitch": 60,
              "velocity": 96,
              "position": 4.729166666666667,
              "duration": 0.8333333333333334
            },
            {
              "pitch": 58,
              "velocity": 85,
              "position": 5.25,
              "duration": 0.4166666666666667
            },
            {
              "pitch": 48,
              "velocity": 92,
              "position": 5,
              "duration": 0.6875
            },
            {
              "pitch": 70,
              "velocity": 85,
              "position": 5.5,
              "duration": 0.25
            },
            {
              "pitch": 58,
              "velocity": 92,
              "position": 5.729166666666667,
              "duration": 0.3333333333333333
            },
            {
              "pitch": 60,
              "velocity": 92,
              "position": 5.75,
              "duration": 0.5833333333333334
            },
            {
              "pitch": 58,
              "velocity": 85,
              "position": 6.25,
              "duration": 0.3958333333333333
            },
            {
              "pitch": 64,
              "velocity": 96,
              "position": 5.75,
              "duration": 0.9166666666666666
            },
            {
              "pitch": 60,
              "velocity": 80,
              "position": 6.5,
              "duration": 0.16666666666666666
            },
            {
              "pitch": 48,
              "velocity": 92,
              "position": 6,
              "duration": 0.7708333333333334
            },
            {
              "pitch": 58,
              "velocity": 85,
              "position": 6.729166666666667,
              "duration": 0.2916666666666667
            },
            {
              "pitch": 60,
              "velocity": 92,
              "position": 6.75,
              "duration": 0.6666666666666666
            },
            {
              "pitch": 58,
              "velocity": 85,
              "position": 7.25,
              "duration": 0.3541666666666667
            },
            {
              "pitch": 48,
              "velocity": 98,
              "position": 7,
              "duration": 0.7291666666666666
            },
            {
              "pitch": 60,
              "velocity": 85,
              "position": 7.5,
              "duration": 0.3958333333333333
            },
            {
              "pitch": 48,
              "velocity": 96,
              "position": 7.75,
              "duration": 0.20833333333333334
            },
            {
              "pitch": 64,
              "velocity": 96,
              "position": 6.75,
              "duration": 1.2708333333333333
            },
            {
              "pitch": 60,
              "velocity": 96,
              "position": 7.979166666666667,
              "duration": 0.4166666666666667
            },
            {
              "pitch": 60,
              "velocity": 64,
              "position": 8.5,
              "duration": 0.125
            },
            {
              "pitch": 70,
              "velocity": 98,
              "position": 8.020833333333334,
              "duration": 0.6458333333333334
            },
            {
              "pitch": 58,
              "velocity": 49,
              "position": 8.25,
              "duration": 0.5833333333333334
            },
            {
              "pitch": 48,
              "velocity": 92,
              "position": 8,
              "duration": 1
            },
            {
              "pitch": 70,
              "velocity": 98,
              "position": 8.75,
              "duration": 0.5208333333333334
            },
            {
              "pitch": 58,
              "velocity": 80,
              "position": 9.270833333333334,
              "duration": 0.2708333333333333
            },
            {
              "pitch": 60,
              "velocity": 96,
              "position": 8.729166666666666,
              "duration": 0.9583333333333334
            },
            {
              "pitch": 52,
              "velocity": 96,
              "position": 9,
              "duration": 0.7083333333333334
            },
            {
              "pitch": 70,
              "velocity": 85,
              "position": 9.520833333333334,
              "duration": 0.2708333333333333
            },
            {
              "pitch": 52,
              "velocity": 98,
              "position": 9.770833333333334,
              "duration": 0.2708333333333333
            },
            {
              "pitch": 58,
              "velocity": 98,
              "position": 9.791666666666666,
              "duration": 0.6041666666666666
            },
            {
              "pitch": 52,
              "velocity": 74,
              "position": 10.3125,
              "duration": 0.2916666666666667
            },
            {
              "pitch": 60,
              "velocity": 98,
              "position": 9.8125,
              "duration": 0.9583333333333334
            },
            {
              "pitch": 48,
              "velocity": 96,
              "position": 9.791666666666666,
              "duration": 1.2916666666666667
            },
            {
              "pitch": 58,
              "velocity": 80,
              "position": 10.604166666666666,
              "duration": 0.8125
            },
            {
              "pitch": 60,
              "velocity": 96,
              "position": 10.875,
              "duration": 0.625
            },
            {
              "pitch": 52,
              "velocity": 64,
              "position": 11.416666666666666,
              "duration": 0.5625
            },
            {
              "pitch": 48,
              "velocity": 96,
              "position": 11.145833333333334,
              "duration": 1
            },
            {
              "pitch": 58,
              "velocity": 74,
              "position": 11.708333333333334,
              "duration": 0.5625
            },
            {
              "pitch": 60,
              "velocity": 96,
              "position": 11.708333333333334,
              "duration": 0.5625
            },
            {
              "pitch": 48,
              "velocity": 80,
              "position": 12.25,
              "duration": 3.75
            },
            {
              "pitch": 52,
              "velocity": 92,
              "position": 12.270833333333334,
              "duration": 3.7291666666666665
            },
            {
              "pitch": 60,
              "velocity": 98,
              "position": 12.291666666666666,
              "duration": 3.7083333333333335
            }
          ]
        },
        "2": {
          "ctab": {
            "srcChannel": 2,
            "name": "SteelGtr",
            "accType": "CHORD2",
            "editable": false,
            "mutedNotes": [],
            "mutedChords": [
              "7aug",
              "Maj7aug",
              "7(#9)",
              "7(b13)",
              "7(b9)",
              "7(13)",
              "7#11",
              "7(9)",
              "7b5",
              "7sus4",
              "7th"
            ],
            "autoStart": false,
            "sourceChordNote": 0,
            "sourceChordType": "Maj",
            "ctb2Low": null,
            "ctb2Main": {
              "ntr": "ROOT_TRANSPOSITION",
              "ntt": "BYPASS",
              "bassOn": false,
              "chordRootUpperLimit": 6,
              "noteLowLimit": 0,
              "noteHighLimit": 127,
              "rtr": "PITCH_SHIFT"
            },
            "ctb2High": null
          },
          "notes": [
            {
              "pitch": 60,
              "velocity": 98,
              "position": 0.75,
              "duration": 0.625
            },
            {
              "pitch": 64,
              "velocity": 98,
              "position": 1.25,
              "duration": 0.3333333333333333
            },
            {
              "pitch": 55,
              "velocity": 98,
              "position": 0.5,
              "duration": 1.6041666666666667
            },
            {
              "pitch": 64,
              "velocity": 98,
              "position": 1.75,
              "duration": 0.6041666666666666
            },
            {
              "pitch": 60,
              "velocity": 98,
              "position": 2.5,
              "duration": 0.6875
            },
            {
              "pitch": 64,
              "velocity": 98,
              "position": 2.75,
              "duration": 0.4583333333333333
            },
            {
              "pitch": 55,
              "velocity": 98,
              "position": 2.25,
              "duration": 2.0416666666666665
            },
            {
              "pitch": 64,
              "velocity": 98,
              "position": 3.25,
              "duration": 1.25
            },
            {
              "pitch": 60,
              "velocity": 96,
              "position": 4.75,
              "duration": 0.5
            },
            {
              "pitch": 64,
              "velocity": 98,
              "position": 5.25,
              "duration": 0.16666666666666666
            },
            {
              "pitch": 64,
              "velocity": 98,
              "position": 5.75,
              "duration": 0.4583333333333333
            },
            {
              "pitch": 60,
              "velocity": 98,
              "position": 6.25,
              "duration": 0.4166666666666667
            },
            {
              "pitch": 55,
              "velocity": 85,
              "position": 4.5,
              "duration": 2.1875
            },
            {
              "pitch": 55,
              "velocity": 100,
              "position": 6.75,
              "duration": 0.4166666666666667
            },
            {
              "pitch": 64,
              "velocity": 96,
              "position": 7.25,
              "duration": 0.16666666666666666
            },
            {
              "pitch": 60,
              "velocity": 98,
              "position": 7.333333333333333,
              "duration": 0.14583333333333334
            },
            {
              "pitch": 55,
              "velocity": 98,
              "position": 7.5,
              "duration": 0.1875
            },
            {
              "pitch": 55,
              "velocity": 98,
              "position": 7.75,
              "duration": 0.8958333333333334
            },
            {
              "pitch": 55,
              "velocity": 98,
              "position": 8.75,
              "duration": 0.375
            },
            {
              "pitch": 60,
              "velocity": 96,
              "position": 9,
              "duration": 0.2708333333333333
            },
            {
              "pitch": 64,
              "velocity": 96,
              "position": 9.270833333333334,
              "duration": 0.4583333333333333
            },
            {
              "pitch": 60,
              "velocity": 98,
              "position": 9.791666666666666,
              "duration": 0.4791666666666667
            },
            {
              "pitch": 52,
              "velocity": 98,
              "position": 10.333333333333334,
              "duration": 0.2708333333333333
            },
            {
              "pitch": 55,
              "velocity": 96,
              "position": 10.604166666666666,
              "duration": 0.3125
            },
            {
              "pitch": 60,
              "velocity": 98,
              "position": 10.875,
              "duration": 1.0833333333333333
            },
            {
              "pitch": 55,
              "velocity": 98,
              "position": 11.416666666666666,
              "duration": 0.8541666666666666
            },
            {
              "pitch": 52,
              "velocity": 98,
              "position": 12.270833333333334,
              "duration": 3.7291666666666665
            }
          ]
        },
        "3": {
          "ctab": {
            "srcChannel": 3,
            "name": "SteelGtr",
            "accType": "CHORD2",
            "editable": false,
            "mutedNotes": [],
            "mutedChords": [
              "1+2+5",
              "sus4",
              "1+5",
              "1+8",
              "dim7",
              "dim",
              "minMaj7(9)",
              "minMaj7",
              "min7(11)",
              "min7(9)",
              "min(9)",
              "m7b5",
              "min7",
              "min6",
              "min",
              "aug",
              "Maj6(9)",
              "Maj7(9)",
              "Maj(9)",
              "Maj7#11",
              "Maj7",
              "Maj6",
              "Maj"
            ],
            "autoStart": false,
            "sourceChordNote": 0,
            "sourceChordType": "7th",
            "ctb2Low": null,
            "ctb2Main": {
              "ntr": "ROOT_TRANSPOSITION",
              "ntt": "BYPASS",
              "bassOn": false,
              "chordRootUpperLimit": 6,
              "noteLowLimit": 0,
              "noteHighLimit": 127,
              "rtr": "PITCH_SHIFT"
            },
            "ctb2High": null
          },
          "notes": [
            {
              "pitch": 60,
              "velocity": 98,
              "position": 0.75,
              "duration": 0.625
            },
            {
              "pitch": 64,
              "velocity": 98,
              "position": 1.25,
              "duration": 0.3333333333333333
            },
            {
              "pitch": 58,
              "velocity": 98,
              "position": 0.5,
              "duration": 1.6041666666666667
            },
            {
              "pitch": 64,
              "velocity": 98,
              "position": 1.75,
              "duration": 0.6041666666666666
            },
            {
              "pitch": 60,
              "velocity": 98,
              "position": 2.5,
              "duration": 0.6875
            },
            {
              "pitch": 64,
              "velocity": 98,
              "position": 2.75,
              "duration": 0.4583333333333333
            },
            {
              "pitch": 58,
              "velocity": 98,
              "position": 2.25,
              "duration": 2.0416666666666665
            },
            {
              "pitch": 64,
              "velocity": 98,
              "position": 3.25,
              "duration": 1.25
            },
            {
              "pitch": 60,
              "velocity": 96,
              "position": 4.75,
              "duration": 0.5
            },
            {
              "pitch": 64,
              "velocity": 98,
              "position": 5.25,
              "duration": 0.16666666666666666
            },
            {
              "pitch": 64,
              "velocity": 98,
              "position": 5.75,
              "duration": 0.4583333333333333
            },
            {
              "pitch": 60,
              "velocity": 98,
              "position": 6.25,
              "duration": 0.4166666666666667
            },
            {
              "pitch": 58,
              "velocity": 85,
              "position": 4.5,
              "duration": 2.1875
            },
            {
              "pitch": 58,
              "velocity": 100,
              "position": 6.75,
              "duration": 0.4166666666666667
            },
            {
              "pitch": 64,
              "velocity": 96,
              "position": 7.25,
              "duration": 0.16666666666666666
            },
            {
              "pitch": 60,
              "velocity": 98,
              "position": 7.333333333333333,
              "duration": 0.14583333333333334
            },
            {
              "pitch": 58,
              "velocity": 98,
              "position": 7.5,
              "duration": 0.1875
            },
            {
              "pitch": 58,
              "velocity": 98,
              "position": 7.75,
              "duration": 0.8958333333333334
            },
            {
              "pitch": 58,
              "velocity": 98,
              "position": 8.75,
              "duration": 0.375
            },
            {
              "pitch": 60,
              "velocity": 96,
              "position": 9,
              "duration": 0.2708333333333333
            },
            {
              "pitch": 64,
              "velocity": 96,
              "position": 9.270833333333334,
              "duration": 0.4583333333333333
            },
            {
              "pitch": 60,
              "velocity": 98,
              "position": 9.791666666666666,
              "duration": 0.4791666666666667
            },
            {
              "pitch": 52,
              "velocity": 98,
              "position": 10.333333333333334,
              "duration": 0.2708333333333333
            },
            {
              "pitch": 58,
              "velocity": 96,
              "position": 10.604166666666666,
              "duration": 0.3125
            },
            {
              "pitch": 60,
              "velocity": 98,
              "position": 10.875,
              "duration": 1.0833333333333333
            },
            {
              "pitch": 58,
              "velocity": 98,
              "position": 11.416666666666666,
              "duration": 0.8541666666666666
            },
            {
              "pitch": 52,
              "velocity": 98,
              "position": 12.270833333333334,
              "duration": 3.7291666666666665
            }
          ]
        },
        "4": {
          "ctab": {
            "srcChannel": 4,
            "name": "Strings1",
            "accType": "PAD",
            "editable": false,
            "mutedNotes": [],
            "mutedChords": [
              "7aug",
              "Maj7aug",
              "7(#9)",
              "7(b13)",
              "7(b9)",
              "7(13)",
              "7#11",
              "7(9)",
              "7b5",
              "7sus4",
              "7th"
            ],
            "autoStart": false,
            "sourceChordNote": 0,
            "sourceChordType": "Maj",
            "ctb2Low": null,
            "ctb2Main": {
              "ntr": "ROOT_TRANSPOSITION",
              "ntt": "BYPASS",
              "bassOn": false,
              "chordRootUpperLimit": 6,
              "noteLowLimit": 0,
              "noteHighLimit": 79,
              "rtr": "PITCH_SHIFT"
            },
            "ctb2High": null
          },
          "notes": [
            {
              "pitch": 84,
              "velocity": 33,
              "position": 0,
              "duration": 2.9791666666666665
            },
            {
              "pitch": 52,
              "velocity": 41,
              "position": 0,
              "duration": 2.9791666666666665
            },
            {
              "pitch": 67,
              "velocity": 69,
              "position": 0,
              "duration": 3.9791666666666665
            },
            {
              "pitch": 60,
              "velocity": 41,
              "position": 0,
              "duration": 3.9791666666666665
            },
            {
              "pitch": 55,
              "velocity": 41,
              "position": 3,
              "duration": 0.9791666666666666
            },
            {
              "pitch": 88,
              "velocity": 25,
              "position": 3,
              "duration": 1
            },
            {
              "pitch": 84,
              "velocity": 49,
              "position": 4,
              "duration": 0.7291666666666666
            },
            {
              "pitch": 64,
              "velocity": 41,
              "position": 4,
              "duration": 0.9791666666666666
            },
            {
              "pitch": 72,
              "velocity": 41,
              "position": 4,
              "duration": 0.9791666666666666
            },
            {
              "pitch": 60,
              "velocity": 41,
              "position": 4,
              "duration": 1
            },
            {
              "pitch": 88,
              "velocity": 49,
              "position": 4.75,
              "duration": 1.0208333333333333
            },
            {
              "pitch": 88,
              "velocity": 33,
              "position": 5.791666666666667,
              "duration": 0.125
            },
            {
              "pitch": 72,
              "velocity": 69,
              "position": 5,
              "duration": 0.9791666666666666
            },
            {
              "pitch": 64,
              "velocity": 79,
              "position": 5,
              "duration": 0.9791666666666666
            },
            {
              "pitch": 84,
              "velocity": 37,
              "position": 5.916666666666667,
              "duration": 0.07291666666666667
            },
            {
              "pitch": 67,
              "velocity": 41,
              "position": 5,
              "duration": 1
            },
            {
              "pitch": 84,
              "velocity": 45,
              "position": 6,
              "duration": 0.7291666666666666
            },
            {
              "pitch": 60,
              "velocity": 94,
              "position": 6,
              "duration": 0.9791666666666666
            },
            {
              "pitch": 64,
              "velocity": 41,
              "position": 6,
              "duration": 0.9791666666666666
            },
            {
              "pitch": 72,
              "velocity": 41,
              "position": 6,
              "duration": 1
            },
            {
              "pitch": 55,
              "velocity": 53,
              "position": 4,
              "duration": 3.7291666666666665
            },
            {
              "pitch": 84,
              "velocity": 37,
              "position": 6.75,
              "duration": 1.0208333333333333
            },
            {
              "pitch": 84,
              "velocity": 33,
              "position": 7.791666666666667,
              "duration": 0.125
            },
            {
              "pitch": 60,
              "velocity": 53,
              "position": 7,
              "duration": 1
            },
            {
              "pitch": 67,
              "velocity": 84,
              "position": 7,
              "duration": 1
            },
            {
              "pitch": 64,
              "velocity": 41,
              "position": 7,
              "duration": 1
            },
            {
              "pitch": 48,
              "velocity": 53,
              "position": 7.75,
              "duration": 0.25
            },
            {
              "pitch": 81,
              "velocity": 37,
              "position": 7.916666666666667,
              "duration": 0.08333333333333333
            },
            {
              "pitch": 79,
              "velocity": 37,
              "position": 8.020833333333334,
              "duration": 0.7083333333333334
            },
            {
              "pitch": 64,
              "velocity": 84,
              "position": 8.020833333333334,
              "duration": 1
            },
            {
              "pitch": 84,
              "velocity": 49,
              "position": 8.75,
              "duration": 0.6875
            },
            {
              "pitch": 79,
              "velocity": 17,
              "position": 9.4375,
              "duration": 0.125
            },
            {
              "pitch": 77,
              "velocity": 37,
              "position": 9.5625,
              "duration": 0.14583333333333334
            },
            {
              "pitch": 43,
              "velocity": 53,
              "position": 8,
              "duration": 1.7916666666666667
            },
            {
              "pitch": 60,
              "velocity": 84,
              "position": 8.020833333333334,
              "duration": 1.7708333333333333
            },
            {
              "pitch": 55,
              "velocity": 45,
              "position": 8.020833333333334,
              "duration": 1.7708333333333333
            },
            {
              "pitch": 67,
              "velocity": 79,
              "position": 9.020833333333334,
              "duration": 0.7708333333333334
            },
            {
              "pitch": 76,
              "velocity": 25,
              "position": 9.708333333333334,
              "duration": 0.08333333333333333
            },
            {
              "pitch": 60,
              "velocity": 79,
              "position": 9.8125,
              "duration": 0.9583333333333334
            },
            {
              "pitch": 72,
              "velocity": 57,
              "position": 9.8125,
              "duration": 1.0625
            },
            {
              "pitch": 55,
              "velocity": 94,
              "position": 9.8125,
              "duration": 1.3229166666666667
            },
            {
              "pitch": 64,
              "velocity": 84,
              "position": 9.8125,
              "duration": 1.3333333333333333
            },
            {
              "pitch": 40,
              "velocity": 53,
              "position": 9.791666666666666,
              "duration": 2.1666666666666665
            },
            {
              "pitch": 55,
              "velocity": 65,
              "position": 11.145833333333334,
              "duration": 1.1041666666666667
            },
            {
              "pitch": 52,
              "velocity": 45,
              "position": 9.8125,
              "duration": 2.4479166666666665
            },
            {
              "pitch": 76,
              "velocity": 45,
              "position": 10.875,
              "duration": 1.3958333333333333
            },
            {
              "pitch": 36,
              "velocity": 53,
              "position": 11.979166666666666,
              "duration": 4.020833333333333
            },
            {
              "pitch": 52,
              "velocity": 57,
              "position": 12.270833333333334,
              "duration": 3.7291666666666665
            },
            {
              "pitch": 60,
              "velocity": 79,
              "position": 12.270833333333334,
              "duration": 3.7291666666666665
            },
            {
              "pitch": 62,
              "velocity": 69,
              "position": 12.270833333333334,
              "duration": 3.7291666666666665
            },
            {
              "pitch": 67,
              "velocity": 45,
              "position": 12.270833333333334,
              "duration": 3.7291666666666665
            }
          ]
        },
        "5": {
          "ctab": {
            "srcChannel": 5,
            "name": "Strings1",
            "accType": "PAD",
            "editable": false,
            "mutedNotes": [],
            "mutedChords": [
              "1+2+5",
              "sus4",
              "1+5",
              "1+8",
              "dim7",
              "dim",
              "minMaj7(9)",
              "minMaj7",
              "min7(11)",
              "min7(9)",
              "min(9)",
              "m7b5",
              "min7",
              "min6",
              "min",
              "aug",
              "Maj6(9)",
              "Maj7(9)",
              "Maj(9)",
              "Maj7#11",
              "Maj7",
              "Maj6",
              "Maj"
            ],
            "autoStart": false,
            "sourceChordNote": 0,
            "sourceChordType": "7th",
            "ctb2Low": null,
            "ctb2Main": {
              "ntr": "ROOT_TRANSPOSITION",
              "ntt": "BYPASS",
              "bassOn": false,
              "chordRootUpperLimit": 6,
              "noteLowLimit": 0,
              "noteHighLimit": 79,
              "rtr": "PITCH_SHIFT"
            },
            "ctb2High": null
          },
          "notes": [
            {
              "pitch": 84,
              "velocity": 33,
              "position": 0,
              "duration": 2.9791666666666665
            },
            {
              "pitch": 52,
              "velocity": 41,
              "position": 0,
              "duration": 2.9791666666666665
            },
            {
              "pitch": 70,
              "velocity": 69,
              "position": 0,
              "duration": 3.9791666666666665
            },
            {
              "pitch": 60,
              "velocity": 41,
              "position": 0,
              "duration": 3.9791666666666665
            },
            {
              "pitch": 58,
              "velocity": 41,
              "position": 3,
              "duration": 0.9791666666666666
            },
            {
              "pitch": 88,
              "velocity": 25,
              "position": 3,
              "duration": 1
            },
            {
              "pitch": 84,
              "velocity": 49,
              "position": 4,
              "duration": 0.7291666666666666
            },
            {
              "pitch": 64,
              "velocity": 41,
              "position": 4,
              "duration": 0.9791666666666666
            },
            {
              "pitch": 72,
              "velocity": 41,
              "position": 4,
              "duration": 0.9791666666666666
            },
            {
              "pitch": 60,
              "velocity": 41,
              "position": 4,
              "duration": 1
            },
            {
              "pitch": 88,
              "velocity": 49,
              "position": 4.75,
              "duration": 1.0208333333333333
            },
            {
              "pitch": 88,
              "velocity": 33,
              "position": 5.791666666666667,
              "duration": 0.125
            },
            {
              "pitch": 72,
              "velocity": 69,
              "position": 5,
              "duration": 0.9791666666666666
            },
            {
              "pitch": 64,
              "velocity": 79,
              "position": 5,
              "duration": 0.9791666666666666
            },
            {
              "pitch": 84,
              "velocity": 37,
              "position": 5.916666666666667,
              "duration": 0.07291666666666667
            },
            {
              "pitch": 70,
              "velocity": 41,
              "position": 5,
              "duration": 1
            },
            {
              "pitch": 84,
              "velocity": 45,
              "position": 6,
              "duration": 0.7291666666666666
            },
            {
              "pitch": 60,
              "velocity": 94,
              "position": 6,
              "duration": 0.9791666666666666
            },
            {
              "pitch": 64,
              "velocity": 41,
              "position": 6,
              "duration": 0.9791666666666666
            },
            {
              "pitch": 72,
              "velocity": 41,
              "position": 6,
              "duration": 1
            },
            {
              "pitch": 58,
              "velocity": 53,
              "position": 4,
              "duration": 3.7291666666666665
            },
            {
              "pitch": 84,
              "velocity": 37,
              "position": 6.75,
              "duration": 1.0208333333333333
            },
            {
              "pitch": 84,
              "velocity": 33,
              "position": 7.791666666666667,
              "duration": 0.125
            },
            {
              "pitch": 60,
              "velocity": 53,
              "position": 7,
              "duration": 1
            },
            {
              "pitch": 70,
              "velocity": 84,
              "position": 7,
              "duration": 1
            },
            {
              "pitch": 64,
              "velocity": 41,
              "position": 7,
              "duration": 1
            },
            {
              "pitch": 48,
              "velocity": 53,
              "position": 7.75,
              "duration": 0.25
            },
            {
              "pitch": 81,
              "velocity": 37,
              "position": 7.916666666666667,
              "duration": 0.08333333333333333
            },
            {
              "pitch": 82,
              "velocity": 37,
              "position": 8.020833333333334,
              "duration": 0.7083333333333334
            },
            {
              "pitch": 64,
              "velocity": 84,
              "position": 8.020833333333334,
              "duration": 1
            },
            {
              "pitch": 84,
              "velocity": 49,
              "position": 8.75,
              "duration": 0.6875
            },
            {
              "pitch": 82,
              "velocity": 17,
              "position": 9.4375,
              "duration": 0.125
            },
            {
              "pitch": 77,
              "velocity": 37,
              "position": 9.5625,
              "duration": 0.14583333333333334
            },
            {
              "pitch": 43,
              "velocity": 53,
              "position": 8,
              "duration": 1.7916666666666667
            },
            {
              "pitch": 60,
              "velocity": 84,
              "position": 8.020833333333334,
              "duration": 1.7708333333333333
            },
            {
              "pitch": 58,
              "velocity": 45,
              "position": 8.020833333333334,
              "duration": 1.7708333333333333
            },
            {
              "pitch": 70,
              "velocity": 79,
              "position": 9.020833333333334,
              "duration": 0.7708333333333334
            },
            {
              "pitch": 76,
              "velocity": 25,
              "position": 9.708333333333334,
              "duration": 0.08333333333333333
            },
            {
              "pitch": 60,
              "velocity": 79,
              "position": 9.8125,
              "duration": 0.9583333333333334
            },
            {
              "pitch": 72,
              "velocity": 57,
              "position": 9.8125,
              "duration": 1.0625
            },
            {
              "pitch": 58,
              "velocity": 94,
              "position": 9.8125,
              "duration": 1.3229166666666667
            },
            {
              "pitch": 64,
              "velocity": 84,
              "position": 9.8125,
              "duration": 1.3333333333333333
            },
            {
              "pitch": 40,
              "velocity": 53,
              "position": 9.791666666666666,
              "duration": 2.1666666666666665
            },
            {
              "pitch": 58,
              "velocity": 65,
              "position": 11.145833333333334,
              "duration": 1.1041666666666667
            },
            {
              "pitch": 52,
              "velocity": 45,
              "position": 9.8125,
              "duration": 2.4479166666666665
            },
            {
              "pitch": 76,
              "velocity": 45,
              "position": 10.875,
              "duration": 1.3958333333333333
            },
            {
              "pitch": 36,
              "velocity": 53,
              "position": 11.979166666666666,
              "duration": 4.020833333333333
            },
            {
              "pitch": 52,
              "velocity": 57,
              "position": 12.270833333333334,
              "duration": 3.7291666666666665
            },
            {
              "pitch": 60,
              "velocity": 79,
              "position": 12.270833333333334,
              "duration": 3.7291666666666665
            },
            {
              "pitch": 62,
              "velocity": 69,
              "position": 12.270833333333334,
              "duration": 3.7291666666666665
            },
            {
              "pitch": 70,
              "velocity": 45,
              "position": 12.270833333333334,
              "duration": 3.7291666666666665
            }
          ]
        },
        "8": {
          "ctab": {
            "srcChannel": 8,
            "name": "Std.Kit1",
            "accType": "RHYTHM",
            "editable": true,
            "mutedNotes": [],
            "mutedChords": [],
            "autoStart": true,
            "sourceChordNote": 0,
            "sourceChordType": "Maj7",
            "ctb2Low": null,
            "ctb2Main": {
              "ntr": "ROOT_FIXED",
              "ntt": "BYPASS",
              "bassOn": false,
              "chordRootUpperLimit": 6,
              "noteLowLimit": 0,
              "noteHighLimit": 127,
              "rtr": "PITCH_SHIFT"
            },
            "ctb2High": null
          },
          "notes": [
            {
              "pitch": 42,
              "velocity": 112,
              "position": 0,
              "duration": 0.14583333333333334
            },
            {
              "pitch": 44,
              "velocity": 58,
              "position": 0,
              "duration": 0.14583333333333334
            },
            {
              "pitch": 35,
              "velocity": 100,
              "position": 0,
              "duration": 0.16666666666666666
            },
            {
              "pitch": 42,
              "velocity": 55,
              "position": 0.5,
              "duration": 0.16666666666666666
            },
            {
              "pitch": 38,
              "velocity": 69,
              "position": 1,
              "duration": 0.125
            },
            {
              "pitch": 44,
              "velocity": 58,
              "position": 1,
              "duration": 0.14583333333333334
            },
            {
              "pitch": 42,
              "velocity": 112,
              "position": 1,
              "duration": 0.4791666666666667
            },
            {
              "pitch": 42,
              "velocity": 55,
              "position": 1.5,
              "duration": 0.16666666666666666
            },
            {
              "pitch": 35,
              "velocity": 44,
              "position": 1.75,
              "duration": 0.16666666666666666
            },
            {
              "pitch": 42,
              "velocity": 112,
              "position": 2,
              "duration": 0.14583333333333334
            },
            {
              "pitch": 44,
              "velocity": 58,
              "position": 2,
              "duration": 0.16666666666666666
            },
            {
              "pitch": 35,
              "velocity": 100,
              "position": 2,
              "duration": 0.16666666666666666
            },
            {
              "pitch": 42,
              "velocity": 55,
              "position": 2.5,
              "duration": 0.16666666666666666
            },
            {
              "pitch": 38,
              "velocity": 69,
              "position": 3,
              "duration": 0.125
            },
            {
              "pitch": 42,
              "velocity": 112,
              "position": 3,
              "duration": 0.14583333333333334
            },
            {
              "pitch": 44,
              "velocity": 58,
              "position": 3,
              "duration": 0.14583333333333334
            },
            {
              "pitch": 42,
              "velocity": 55,
              "position": 3.5,
              "duration": 0.16666666666666666
            },
            {
              "pitch": 49,
              "velocity": 46,
              "position": 0,
              "duration": 3.9583333333333335
            },
            {
              "pitch": 42,
              "velocity": 112,
              "position": 4,
              "duration": 0.14583333333333334
            },
            {
              "pitch": 44,
              "velocity": 58,
              "position": 4,
              "duration": 0.14583333333333334
            },
            {
              "pitch": 35,
              "velocity": 100,
              "position": 4,
              "duration": 0.14583333333333334
            },
            {
              "pitch": 42,
              "velocity": 55,
              "position": 4.5,
              "duration": 0.16666666666666666
            },
            {
              "pitch": 38,
              "velocity": 69,
              "position": 5,
              "duration": 0.125
            },
            {
              "pitch": 44,
              "velocity": 58,
              "position": 5,
              "duration": 0.14583333333333334
            },
            {
              "pitch": 42,
              "velocity": 112,
              "position": 5,
              "duration": 0.4791666666666667
            },
            {
              "pitch": 42,
              "velocity": 55,
              "position": 5.5,
              "duration": 0.16666666666666666
            },
            {
              "pitch": 35,
              "velocity": 44,
              "position": 5.75,
              "duration": 0.16666666666666666
            },
            {
              "pitch": 35,
              "velocity": 100,
              "position": 6,
              "duration": 0.14583333333333334
            },
            {
              "pitch": 42,
              "velocity": 112,
              "position": 6,
              "duration": 0.16666666666666666
            },
            {
              "pitch": 44,
              "velocity": 58,
              "position": 6,
              "duration": 0.16666666666666666
            },
            {
              "pitch": 42,
              "velocity": 55,
              "position": 6.5,
              "duration": 0.16666666666666666
            },
            {
              "pitch": 38,
              "velocity": 69,
              "position": 7,
              "duration": 0.125
            },
            {
              "pitch": 44,
              "velocity": 58,
              "position": 7,
              "duration": 0.14583333333333334
            },
            {
              "pitch": 42,
              "velocity": 112,
              "position": 7,
              "duration": 0.14583333333333334
            },
            {
              "pitch": 35,
              "velocity": 44,
              "position": 7.5,
              "duration": 0.16666666666666666
            },
            {
              "pitch": 46,
              "velocity": 58,
              "position": 7.5,
              "duration": 0.4375
            },
            {
              "pitch": 44,
              "velocity": 58,
              "position": 8,
              "duration": 0.14583333333333334
            },
            {
              "pitch": 42,
              "velocity": 112,
              "position": 8.020833333333334,
              "duration": 0.125
            },
            {
              "pitch": 35,
              "velocity": 100,
              "position": 8,
              "duration": 0.16666666666666666
            },
            {
              "pitch": 47,
              "velocity": 26,
              "position": 8.416666666666666,
              "duration": 0.0625
            },
            {
              "pitch": 47,
              "velocity": 59,
              "position": 8.5,
              "duration": 0.041666666666666664
            },
            {
              "pitch": 42,
              "velocity": 55,
              "position": 8.5,
              "duration": 0.16666666666666666
            },
            {
              "pitch": 44,
              "velocity": 58,
              "position": 9,
              "duration": 0.16666666666666666
            },
            {
              "pitch": 45,
              "velocity": 24,
              "position": 9.270833333333334,
              "duration": 0.125
            },
            {
              "pitch": 42,
              "velocity": 112,
              "position": 9,
              "duration": 0.5104166666666666
            },
            {
              "pitch": 42,
              "velocity": 55,
              "position": 9.520833333333334,
              "duration": 0.1875
            },
            {
              "pitch": 35,
              "velocity": 44,
              "position": 9.791666666666666,
              "duration": 0.16666666666666666
            },
            {
              "pitch": 45,
              "velocity": 63,
              "position": 10.0625,
              "duration": 0.125
            },
            {
              "pitch": 42,
              "velocity": 112,
              "position": 10.0625,
              "duration": 0.16666666666666666
            },
            {
              "pitch": 35,
              "velocity": 100,
              "position": 10.0625,
              "duration": 0.16666666666666666
            },
            {
              "pitch": 44,
              "velocity": 58,
              "position": 10.0625,
              "duration": 0.16666666666666666
            },
            {
              "pitch": 51,
              "velocity": 73,
              "position": 9.520833333333334,
              "duration": 1.0520833333333333
            },
            {
              "pitch": 42,
              "velocity": 55,
              "position": 10.583333333333334,
              "duration": 0.1875
            },
            {
              "pitch": 43,
              "velocity": 18,
              "position": 10.875,
              "duration": 0.125
            },
            {
              "pitch": 51,
              "velocity": 73,
              "position": 10.583333333333334,
              "duration": 0.5416666666666666
            },
            {
              "pitch": 43,
              "velocity": 53,
              "position": 11.145833333333334,
              "duration": 0.125
            },
            {
              "pitch": 42,
              "velocity": 112,
              "position": 11.145833333333334,
              "duration": 0.16666666666666666
            },
            {
              "pitch": 44,
              "velocity": 58,
              "position": 11.145833333333334,
              "duration": 0.16666666666666666
            },
            {
              "pitch": 51,
              "velocity": 16,
              "position": 11.145833333333334,
              "duration": 0.53125
            },
            {
              "pitch": 41,
              "velocity": 56,
              "position": 11.6875,
              "duration": 0.14583333333333334
            },
            {
              "pitch": 42,
              "velocity": 55,
              "position": 11.6875,
              "duration": 0.1875
            },
            {
              "pitch": 51,
              "velocity": 38,
              "position": 11.6875,
              "duration": 0.2708333333333333
            },
            {
              "pitch": 46,
              "velocity": 58,
              "position": 8,
              "duration": 4.208333333333333
            },
            {
              "pitch": 51,
              "velocity": 86,
              "position": 11.979166666666666,
              "duration": 0.2708333333333333
            },
            {
              "pitch": 35,
              "velocity": 100,
              "position": 12.25,
              "duration": 0.1875
            },
            {
              "pitch": 49,
              "velocity": 46,
              "position": 12.25,
              "duration": 3.75
            }
          ]
        },
        "10": {
          "ctab": {
            "srcChannel": 10,
            "name": "Std.Kit1",
            "accType": "SUBRHYTHM",
            "editable": true,
            "mutedNotes": [],
            "mutedChords": [],
            "autoStart": true,
            "sourceChordNote": 0,
            "sourceChordType": "Maj7",
            "ctb2Low": null,
            "ctb2Main": {
              "ntr": "ROOT_FIXED",
              "ntt": "BYPASS",
              "bassOn": false,
              "chordRootUpperLimit": 6,
              "noteLowLimit": 0,
              "noteHighLimit": 127,
              "rtr": "PITCH_SHIFT"
            },
            "ctb2High": null
          },
          "notes": [
            {
              "pitch": 62,
              "velocity": 77,
              "position": 0,
              "duration": 0.10416666666666667
            },
            {
              "pitch": 69,
              "velocity": 74,
              "position": 0,
              "duration": 0.10416666666666667
            },
            {
              "pitch": 63,
              "velocity": 60,
              "position": 0.5,
              "duration": 0.10416666666666667
            },
            {
              "pitch": 69,
              "velocity": 49,
              "position": 0.5,
              "duration": 0.125
            },
            {
              "pitch": 62,
              "velocity": 77,
              "position": 0.75,
              "duration": 0.125
            },
            {
              "pitch": 63,
              "velocity": 60,
              "position": 1,
              "duration": 0.10416666666666667
            },
            {
              "pitch": 69,
              "velocity": 74,
              "position": 1,
              "duration": 0.10416666666666667
            },
            {
              "pitch": 81,
              "velocity": 21,
              "position": 1,
              "duration": 0.10416666666666667
            },
            {
              "pitch": 62,
              "velocity": 91,
              "position": 1.5,
              "duration": 0.10416666666666667
            },
            {
              "pitch": 69,
              "velocity": 49,
              "position": 1.5,
              "duration": 0.125
            },
            {
              "pitch": 69,
              "velocity": 39,
              "position": 1.75,
              "duration": 0.10416666666666667
            },
            {
              "pitch": 69,
              "velocity": 74,
              "position": 2,
              "duration": 0.10416666666666667
            },
            {
              "pitch": 63,
              "velocity": 63,
              "position": 2,
              "duration": 0.10416666666666667
            },
            {
              "pitch": 69,
              "velocity": 49,
              "position": 2.5,
              "duration": 0.10416666666666667
            },
            {
              "pitch": 63,
              "velocity": 63,
              "position": 2.5,
              "duration": 0.125
            },
            {
              "pitch": 81,
              "velocity": 21,
              "position": 3,
              "duration": 0.10416666666666667
            },
            {
              "pitch": 62,
              "velocity": 87,
              "position": 3,
              "duration": 0.10416666666666667
            },
            {
              "pitch": 69,
              "velocity": 74,
              "position": 3,
              "duration": 0.10416666666666667
            },
            {
              "pitch": 54,
              "velocity": 42,
              "position": 3,
              "duration": 0.1875
            },
            {
              "pitch": 69,
              "velocity": 49,
              "position": 3.5,
              "duration": 0.10416666666666667
            },
            {
              "pitch": 64,
              "velocity": 85,
              "position": 3.5,
              "duration": 0.10416666666666667
            },
            {
              "pitch": 69,
              "velocity": 39,
              "position": 3.75,
              "duration": 0.125
            },
            {
              "pitch": 58,
              "velocity": 56,
              "position": 0,
              "duration": 3.9791666666666665
            },
            {
              "pitch": 69,
              "velocity": 74,
              "position": 4,
              "duration": 0.10416666666666667
            },
            {
              "pitch": 62,
              "velocity": 77,
              "position": 4,
              "duration": 0.10416666666666667
            },
            {
              "pitch": 69,
              "velocity": 49,
              "position": 4.5,
              "duration": 0.10416666666666667
            },
            {
              "pitch": 63,
              "velocity": 60,
              "position": 4.5,
              "duration": 0.125
            },
            {
              "pitch": 62,
              "velocity": 77,
              "position": 4.75,
              "duration": 0.125
            },
            {
              "pitch": 69,
              "velocity": 74,
              "position": 5,
              "duration": 0.10416666666666667
            },
            {
              "pitch": 81,
              "velocity": 21,
              "position": 5,
              "duration": 0.10416666666666667
            },
            {
              "pitch": 63,
              "velocity": 60,
              "position": 5,
              "duration": 0.10416666666666667
            },
            {
              "pitch": 62,
              "velocity": 91,
              "position": 5.5,
              "duration": 0.125
            },
            {
              "pitch": 69,
              "velocity": 49,
              "position": 5.5,
              "duration": 0.125
            },
            {
              "pitch": 69,
              "velocity": 39,
              "position": 5.75,
              "duration": 0.125
            },
            {
              "pitch": 63,
              "velocity": 63,
              "position": 6,
              "duration": 0.10416666666666667
            },
            {
              "pitch": 69,
              "velocity": 74,
              "position": 6,
              "duration": 0.10416666666666667
            },
            {
              "pitch": 69,
              "velocity": 49,
              "position": 6.5,
              "duration": 0.10416666666666667
            },
            {
              "pitch": 63,
              "velocity": 63,
              "position": 6.5,
              "duration": 0.125
            },
            {
              "pitch": 69,
              "velocity": 74,
              "position": 7,
              "duration": 0.10416666666666667
            },
            {
              "pitch": 81,
              "velocity": 21,
              "position": 7,
              "duration": 0.10416666666666667
            },
            {
              "pitch": 62,
              "velocity": 87,
              "position": 7,
              "duration": 0.10416666666666667
            },
            {
              "pitch": 54,
              "velocity": 42,
              "position": 7,
              "duration": 0.1875
            },
            {
              "pitch": 64,
              "velocity": 85,
              "position": 7.5,
              "duration": 0.10416666666666667
            },
            {
              "pitch": 69,
              "velocity": 22,
              "position": 7.5,
              "duration": 0.125
            },
            {
              "pitch": 69,
              "velocity": 39,
              "position": 7.75,
              "duration": 0.125
            },
            {
              "pitch": 62,
              "velocity": 77,
              "position": 8,
              "duration": 0.10416666666666667
            },
            {
              "pitch": 69,
              "velocity": 74,
              "position": 8,
              "duration": 0.10416666666666667
            },
            {
              "pitch": 63,
              "velocity": 60,
              "position": 8.5,
              "duration": 0.125
            },
            {
              "pitch": 69,
              "velocity": 49,
              "position": 8.5,
              "duration": 0.125
            },
            {
              "pitch": 62,
              "velocity": 77,
              "position": 8.75,
              "duration": 0.125
            },
            {
              "pitch": 69,
              "velocity": 74,
              "position": 9,
              "duration": 0.125
            },
            {
              "pitch": 63,
              "velocity": 60,
              "position": 9,
              "duration": 0.125
            },
            {
              "pitch": 81,
              "velocity": 21,
              "position": 9,
              "duration": 0.125
            },
            {
              "pitch": 69,
              "velocity": 49,
              "position": 9.520833333333334,
              "duration": 0.14583333333333334
            },
            {
              "pitch": 62,
              "velocity": 91,
              "position": 9.520833333333334,
              "duration": 0.14583333333333334
            },
            {
              "pitch": 69,
              "velocity": 39,
              "position": 9.791666666666666,
              "duration": 0.125
            },
            {
              "pitch": 63,
              "velocity": 63,
              "position": 10.0625,
              "duration": 0.125
            },
            {
              "pitch": 69,
              "velocity": 74,
              "position": 10.0625,
              "duration": 0.125
            },
            {
              "pitch": 63,
              "velocity": 63,
              "position": 10.583333333333334,
              "duration": 0.14583333333333334
            },
            {
              "pitch": 69,
              "velocity": 49,
              "position": 10.583333333333334,
              "duration": 0.14583333333333334
            },
            {
              "pitch": 62,
              "velocity": 87,
              "position": 11.145833333333334,
              "duration": 0.10416666666666667
            },
            {
              "pitch": 81,
              "velocity": 21,
              "position": 11.145833333333334,
              "duration": 0.125
            },
            {
              "pitch": 69,
              "velocity": 74,
              "position": 11.145833333333334,
              "duration": 0.125
            },
            {
              "pitch": 54,
              "velocity": 42,
              "position": 11.145833333333334,
              "duration": 0.20833333333333334
            },
            {
              "pitch": 69,
              "velocity": 49,
              "position": 11.6875,
              "duration": 0.14583333333333334
            },
            {
              "pitch": 64,
              "velocity": 85,
              "position": 11.708333333333334,
              "duration": 0.125
            },
            {
              "pitch": 69,
              "velocity": 39,
              "position": 11.979166666666666,
              "duration": 0.14583333333333334
            },
            {
              "pitch": 58,
              "velocity": 56,
              "position": 12.270833333333334,
              "duration": 3.7291666666666665
            }
          ]
        },
        "12": {
          "ctab": {
            "srcChannel": 12,
            "name": "Fretless",
            "accType": "BASS",
            "editable": false,
            "mutedNotes": [],
            "mutedChords": [],
            "autoStart": false,
            "sourceChordNote": 0,
            "sourceChordType": "Maj",
            "ctb2Low": null,
            "ctb2Main": {
              "ntr": "ROOT_TRANSPOSITION",
              "ntt": "BYPASS",
              "bassOn": true,
              "chordRootUpperLimit": 3,
              "noteLowLimit": 28,
              "noteHighLimit": 54,
              "rtr": "PITCH_SHIFT_TO_ROOT"
            },
            "ctb2High": null
          },
          "notes": [
            {
              "pitch": 36,
              "velocity": 91,
              "position": 0,
              "duration": 2.8958333333333335
            },
            {
              "pitch": 43,
              "velocity": 101,
              "position": 3,
              "duration": 1.0208333333333333
            },
            {
              "pitch": 36,
              "velocity": 91,
              "position": 4,
              "duration": 2.8125
            },
            {
              "pitch": 43,
              "velocity": 106,
              "position": 7,
              "duration": 0.9583333333333334
            },
            {
              "pitch": 36,
              "velocity": 101,
              "position": 8,
              "duration": 1.6875
            },
            {
              "pitch": 36,
              "velocity": 101,
              "position": 9.791666666666666,
              "duration": 1.3541666666666667
            },
            {
              "pitch": 31,
              "velocity": 106,
              "position": 11.145833333333334,
              "duration": 4.854166666666667
            },
            {
              "pitch": 36,
              "velocity": 91,
              "position": 12.270833333333334,
              "duration": 3.7291666666666665
            }
          ]
        },
        "15": {
          "ctab": {
            "srcChannel": 15,
            "name": "SteelGtr",
            "accType": "CHORD1",
            "editable": false,
            "mutedNotes": [],
            "mutedChords": [
              "7aug",
              "Maj7aug",
              "7(#9)",
              "7(b13)",
              "7(b9)",
              "7(13)",
              "7#11",
              "7(9)",
              "7b5",
              "7sus4",
              "7th"
            ],
            "autoStart": false,
            "sourceChordNote": 0,
            "sourceChordType": "Maj",
            "ctb2Low": null,
            "ctb2Main": {
              "ntr": "ROOT_TRANSPOSITION",
              "ntt": "BYPASS",
              "bassOn": false,
              "chordRootUpperLimit": 6,
              "noteLowLimit": 0,
              "noteHighLimit": 127,
              "rtr": "PITCH_SHIFT"
            },
            "ctb2High": null
          },
          "notes": [
            {
              "pitch": 67,
              "velocity": 85,
              "position": 0.020833333333333332,
              "duration": 0.3541666666666667
            },
            {
              "pitch": 60,
              "velocity": 85,
              "position": 0,
              "duration": 0.4375
            },
            {
              "pitch": 48,
              "velocity": 43,
              "position": 0,
              "duration": 0.75
            },
            {
              "pitch": 64,
              "velocity": 85,
              "position": 0.020833333333333332,
              "duration": 0.7291666666666666
            },
            {
              "pitch": 55,
              "velocity": 64,
              "position": 0.25,
              "duration": 0.7291666666666666
            },
            {
              "pitch": 67,
              "velocity": 98,
              "position": 0.75,
              "duration": 0.5208333333333334
            },
            {
              "pitch": 60,
              "velocity": 96,
              "position": 0.5,
              "duration": 1
            },
            {
              "pitch": 55,
              "velocity": 92,
              "position": 1.25,
              "duration": 0.2708333333333333
            },
            {
              "pitch": 48,
              "velocity": 74,
              "position": 1,
              "duration": 0.6875
            },
            {
              "pitch": 55,
              "velocity": 96,
              "position": 1.7291666666666667,
              "duration": 0.3125
            },
            {
              "pitch": 60,
              "velocity": 96,
              "position": 1.75,
              "duration": 0.7083333333333334
            },
            {
              "pitch": 64,
              "velocity": 98,
              "position": 1.75,
              "duration": 0.8333333333333334
            },
            {
              "pitch": 55,
              "velocity": 85,
              "position": 2.25,
              "duration": 0.3333333333333333
            },
            {
              "pitch": 60,
              "velocity": 64,
              "position": 2.5,
              "duration": 0.16666666666666666
            },
            {
              "pitch": 67,
              "velocity": 96,
              "position": 1.5,
              "duration": 1.25
            },
            {
              "pitch": 48,
              "velocity": 64,
              "position": 2,
              "duration": 0.875
            },
            {
              "pitch": 55,
              "velocity": 92,
              "position": 2.7291666666666665,
              "duration": 0.3125
            },
            {
              "pitch": 60,
              "velocity": 96,
              "position": 2.75,
              "duration": 0.6666666666666666
            },
            {
              "pitch": 55,
              "velocity": 85,
              "position": 3.25,
              "duration": 0.20833333333333334
            },
            {
              "pitch": 48,
              "velocity": 64,
              "position": 3,
              "duration": 0.7291666666666666
            },
            {
              "pitch": 55,
              "velocity": 74,
              "position": 3.5,
              "duration": 0.25
            },
            {
              "pitch": 60,
              "velocity": 96,
              "position": 3.5,
              "duration": 0.4166666666666667
            },
            {
              "pitch": 48,
              "velocity": 80,
              "position": 3.75,
              "duration": 0.20833333333333334
            },
            {
              "pitch": 64,
              "velocity": 96,
              "position": 2.75,
              "duration": 1.2708333333333333
            },
            {
              "pitch": 60,
              "velocity": 92,
              "position": 3.9791666666666665,
              "duration": 0.4166666666666667
            },
            {
              "pitch": 60,
              "velocity": 74,
              "position": 4.5,
              "duration": 0.14583333333333334
            },
            {
              "pitch": 67,
              "velocity": 98,
              "position": 4.020833333333333,
              "duration": 0.6458333333333334
            },
            {
              "pitch": 48,
              "velocity": 96,
              "position": 4,
              "duration": 0.8333333333333334
            },
            {
              "pitch": 55,
              "velocity": 43,
              "position": 4.25,
              "duration": 0.7083333333333334
            },
            {
              "pitch": 67,
              "velocity": 98,
              "position": 4.75,
              "duration": 0.4791666666666667
            },
            {
              "pitch": 60,
              "velocity": 96,
              "position": 4.729166666666667,
              "duration": 0.8333333333333334
            },
            {
              "pitch": 55,
              "velocity": 85,
              "position": 5.25,
              "duration": 0.4166666666666667
            },
            {
              "pitch": 48,
              "velocity": 92,
              "position": 5,
              "duration": 0.6875
            },
            {
              "pitch": 67,
              "velocity": 85,
              "position": 5.5,
              "duration": 0.25
            },
            {
              "pitch": 55,
              "velocity": 92,
              "position": 5.729166666666667,
              "duration": 0.3333333333333333
            },
            {
              "pitch": 60,
              "velocity": 92,
              "position": 5.75,
              "duration": 0.5833333333333334
            },
            {
              "pitch": 55,
              "velocity": 85,
              "position": 6.25,
              "duration": 0.3958333333333333
            },
            {
              "pitch": 64,
              "velocity": 96,
              "position": 5.75,
              "duration": 0.9166666666666666
            },
            {
              "pitch": 60,
              "velocity": 80,
              "position": 6.5,
              "duration": 0.16666666666666666
            },
            {
              "pitch": 48,
              "velocity": 92,
              "position": 6,
              "duration": 0.7708333333333334
            },
            {
              "pitch": 55,
              "velocity": 85,
              "position": 6.729166666666667,
              "duration": 0.2916666666666667
            },
            {
              "pitch": 60,
              "velocity": 92,
              "position": 6.75,
              "duration": 0.6666666666666666
            },
            {
              "pitch": 55,
              "velocity": 85,
              "position": 7.25,
              "duration": 0.3541666666666667
            },
            {
              "pitch": 48,
              "velocity": 98,
              "position": 7,
              "duration": 0.7291666666666666
            },
            {
              "pitch": 60,
              "velocity": 85,
              "position": 7.5,
              "duration": 0.3958333333333333
            },
            {
              "pitch": 48,
              "velocity": 96,
              "position": 7.75,
              "duration": 0.20833333333333334
            },
            {
              "pitch": 64,
              "velocity": 96,
              "position": 6.75,
              "duration": 1.2708333333333333
            },
            {
              "pitch": 60,
              "velocity": 96,
              "position": 7.979166666666667,
              "duration": 0.4166666666666667
            },
            {
              "pitch": 60,
              "velocity": 64,
              "position": 8.5,
              "duration": 0.125
            },
            {
              "pitch": 67,
              "velocity": 98,
              "position": 8.020833333333334,
              "duration": 0.6458333333333334
            },
            {
              "pitch": 55,
              "velocity": 49,
              "position": 8.25,
              "duration": 0.5833333333333334
            },
            {
              "pitch": 48,
              "velocity": 92,
              "position": 8,
              "duration": 1
            },
            {
              "pitch": 67,
              "velocity": 98,
              "position": 8.75,
              "duration": 0.5208333333333334
            },
            {
              "pitch": 55,
              "velocity": 80,
              "position": 9.270833333333334,
              "duration": 0.2708333333333333
            },
            {
              "pitch": 60,
              "velocity": 96,
              "position": 8.729166666666666,
              "duration": 0.9583333333333334
            },
            {
              "pitch": 52,
              "velocity": 96,
              "position": 9,
              "duration": 0.7083333333333334
            },
            {
              "pitch": 67,
              "velocity": 85,
              "position": 9.520833333333334,
              "duration": 0.2708333333333333
            },
            {
              "pitch": 52,
              "velocity": 98,
              "position": 9.770833333333334,
              "duration": 0.2708333333333333
            },
            {
              "pitch": 55,
              "velocity": 98,
              "position": 9.791666666666666,
              "duration": 0.6041666666666666
            },
            {
              "pitch": 52,
              "velocity": 74,
              "position": 10.3125,
              "duration": 0.2916666666666667
            },
            {
              "pitch": 60,
              "velocity": 98,
              "position": 9.8125,
              "duration": 0.9583333333333334
            },
            {
              "pitch": 48,
              "velocity": 96,
              "position": 9.791666666666666,
              "duration": 1.2916666666666667
            },
            {
              "pitch": 55,
              "velocity": 80,
              "position": 10.604166666666666,
              "duration": 0.8125
            },
            {
              "pitch": 60,
              "velocity": 96,
              "position": 10.875,
              "duration": 0.625
            },
            {
              "pitch": 52,
              "velocity": 64,
              "position": 11.416666666666666,
              "duration": 0.5625
            },
            {
              "pitch": 48,
              "velocity": 96,
              "position": 11.145833333333334,
              "duration": 1
            },
            {
              "pitch": 55,
              "velocity": 74,
              "position": 11.708333333333334,
              "duration": 0.5625
            },
            {
              "pitch": 60,
              "velocity": 96,
              "position": 11.708333333333334,
              "duration": 0.5625
            },
            {
              "pitch": 48,
              "velocity": 80,
              "position": 12.25,
              "duration": 3.75
            },
            {
              "pitch": 52,
              "velocity": 92,
              "position": 12.270833333333334,
              "duration": 3.7291666666666665
            },
            {
              "pitch": 60,
              "velocity": 98,
              "position": 12.291666666666666,
              "duration": 3.7083333333333335
            }
          ]
        }
      }
    }
  }
}