{
  "name": "90'sGuitarPop7.S081.STY",
  "tempo": 100,
  "timeSignature": "4/4",
  "ticksPerQuarter": 1920,
  "sffType": "SFF1",
  "division": "BINARY",
  "parts": {
    "Main_A": {
      "type": "Main_A",
      "sizeInBeats": 8,
      "channels": {
        "0": {
          "ctab": {
            "srcChannel": 0,
            "name": "CC_Crash",
            "accType": "RHYTHM",
            "editable": false,
            "mutedNotes": [],
            "mutedChords": [
              "1+2+5",
              "sus4",
              "1+5",
              "1+8",
              "7aug",
              "Maj7aug",
              "7(#9)",
              "7(b13)",
              "7(b9)",
              "7(13)",
              "7#11",
              "7(9)",
              "7b5",
              "7sus4",
              "7th",
              "dim7",
              "dim",
              "minMaj7(9)",
              "minMaj7",
              "min7(11)",
              "min7(9)",
              "min(9)",
              "m7b5",
              "min7",
              "min6",
              "min",
              "aug",
              "Maj6(9)",
              "Maj7(9)",
              "Maj(9)",
              "Maj7#11",
              "Maj7",
              "Maj6",
              "Maj"
            ],
            "autoStart": true,
            "sourceChordNote": 0,
            "sourceChordType": "Maj",
            "ctb2Low": null,
            "ctb2Main": {
              "ntr": "ROOT_FIXED",
              "ntt": "BYPASS",
              "bassOn": false,
              "chordRootUpperLimit": 0,
              "noteLowLimit": 0,
              "noteHighLimit": 127,
              "rtr": "RETRIGGER"
            },
            "ctb2High": null
          },
          "notes": []
        },
        "1": {
          "ctab": {
            "srcChannel": 1,
            "name": "12st SFX",
            "accType": "CHORD1",
            "editable": false,
            "mutedNotes": [],
            "mutedChords": [],
            "autoStart": false,
            "sourceChordNote": 0,
            "sourceChordType": "Maj7",
            "ctb2Low": null,
            "ctb2Main": {
              "ntr": "ROOT_FIXED",
              "ntt": "BYPASS",
              "bassOn": false,
              "chordRootUpperLimit": 7,
              "noteLowLimit": 0,
              "noteHighLimit": 127,
              "rtr": "PITCH_SHIFT"
            },
            "ctb2High": null
          },
          "notes": [
            {
              "pitch": 43,
              "velocity": 70,
              "position": 0.020833333333333332,
              "duration": 0.041666666666666664
            },
            {
              "pitch": 47,
              "velocity": 70,
              "position": 0.020833333333333332,
              "duration": 0.041666666666666664
            },
            {
              "pitch": 40,
              "velocity": 70,
              "position": 0.03125,
              "duration": 0.041666666666666664
            },
            {
              "pitch": 40,
              "velocity": 70,
              "position": 0.5,
              "duration": 0.041666666666666664
            },
            {
              "pitch": 47,
              "velocity": 70,
              "position": 0.5208333333333334,
              "duration": 0.041666666666666664
            },
            {
              "pitch": 43,
              "velocity": 70,
              "position": 0.5208333333333334,
              "duration": 0.041666666666666664
            },
            {
              "pitch": 40,
              "velocity": 70,
              "position": 0.75,
              "duration": 0.041666666666666664
            },
            {
              "pitch": 47,
              "velocity": 70,
              "position": 0.7708333333333334,
              "duration": 0.041666666666666664
            },
            {
              "pitch": 43,
              "velocity": 70,
              "position": 0.7708333333333334,
              "duration": 0.041666666666666664
            },
            {
              "pitch": 43,
              "velocity": 70,
              "position": 1.5208333333333333,
              "duration": 0.041666666666666664
            },
            {
              "pitch": 47,
              "velocity": 70,
              "position": 1.5208333333333333,
              "duration": 0.041666666666666664
            },
            {
              "pitch": 40,
              "velocity": 70,
              "position": 1.53125,
              "duration": 0.041666666666666664
            },
            {
              "pitch": 40,
              "velocity": 70,
              "position": 2,
              "duration": 0.041666666666666664
            },
            {
              "pitch": 47,
              "velocity": 70,
              "position": 2.0104166666666665,
              "duration": 0.041666666666666664
            },
            {
              "pitch": 43,
              "velocity": 70,
              "position": 2.0104166666666665,
              "duration": 0.041666666666666664
            },
            {
              "pitch": 40,
              "velocity": 70,
              "position": 2.25,
              "duration": 0.041666666666666664
            },
            {
              "pitch": 47,
              "velocity": 70,
              "position": 2.2604166666666665,
              "duration": 0.041666666666666664
            },
            {
              "pitch": 43,
              "velocity": 70,
              "position": 2.2604166666666665,
              "duration": 0.041666666666666664
            },
            {
              "pitch": 43,
              "velocity": 70,
              "position": 3.0208333333333335,
              "duration": 0.041666666666666664
            },
            {
              "pitch": 47,
              "velocity": 70,
              "position": 3.0208333333333335,
              "duration": 0.041666666666666664
            },
            {
              "pitch": 40,
              "velocity": 70,
              "position": 3.03125,
              "duration": 0.041666666666666664
            },
            {
              "pitch": 43,
              "velocity": 70,
              "position": 3.5208333333333335,
              "duration": 0.041666666666666664
            },
            {
              "pitch": 47,
              "velocity": 70,
              "position": 3.5208333333333335,
              "duration": 0.041666666666666664
            },
            {
              "pitch": 40,
              "velocity": 70,
              "position": 3.53125,
              "duration": 0.041666666666666664
            },
            {
              "pitch": 40,
              "velocity": 70,
              "position": 4,
              "duration": 0.041666666666666664
            },
            {
              "pitch": 47,
              "velocity": 70,
              "position": 4.010416666666667,
              "duration": 0.041666666666666664
            },
            {
              "pitch": 43,
              "velocity": 70,
              "position": 4.010416666666667,
              "duration": 0.041666666666666664
            },
            {
              "pitch": 40,
              "velocity": 70,
              "position": 4.5,
              "duration": 0.041666666666666664
            },
            {
              "pitch": 47,
              "velocity": 70,
              "position": 4.510416666666667,
              "duration": 0.041666666666666664
            },
            {
              "pitch": 43,
              "velocity": 70,
              "position": 4.510416666666667,
              "duration": 0.041666666666666664
            },
            {
              "pitch": 43,
              "velocity": 70,
              "position": 4.75,
              "duration": 0.041666666666666664
            },
            {
              "pitch": 47,
              "velocity": 70,
              "position": 4.75,
              "duration": 0.041666666666666664
            },
            {
              "pitch": 40,
              "velocity": 70,
              "position": 4.760416666666667,
              "duration": 0.041666666666666664
            },
            {
              "pitch": 40,
              "velocity": 70,
              "position": 5.25,
              "duration": 0.041666666666666664
            },
            {
              "pitch": 40,
              "velocity": 70,
              "position": 5.510416666666667,
              "duration": 0.041666666666666664
            },
            {
              "pitch": 47,
              "velocity": 70,
              "position": 5.520833333333333,
              "duration": 0.041666666666666664
            },
            {
              "pitch": 43,
              "velocity": 70,
              "position": 5.520833333333333,
              "duration": 0.041666666666666664
            },
            {
              "pitch": 40,
              "velocity": 70,
              "position": 6.010416666666667,
              "duration": 0.041666666666666664
            },
            {
              "pitch": 47,
              "velocity": 70,
              "position": 6.010416666666667,
              "duration": 0.041666666666666664
            },
            {
              "pitch": 43,
              "velocity": 70,
              "position": 6.010416666666667,
              "duration": 0.041666666666666664
            },
            {
              "pitch": 40,
              "velocity": 70,
              "position": 6.260416666666667,
              "duration": 0.041666666666666664
            },
            {
              "pitch": 47,
              "velocity": 70,
              "position": 6.260416666666667,
              "duration": 0.041666666666666664
            },
            {
              "pitch": 43,
              "velocity": 70,
              "position": 6.260416666666667,
              "duration": 0.041666666666666664
            },
            {
              "pitch": 40,
              "velocity": 70,
              "position": 6.760416666666667,
              "duration": 0.041666666666666664
            },
            {
              "pitch": 40,
              "velocity": 70,
              "position": 7,
              "duration": 0.041666666666666664
            },
            {
              "pitch": 47,
              "velocity": 70,
              "position": 7,
              "duration": 0.041666666666666664
            },
            {
              "pitch": 43,
              "velocity": 70,
              "position": 7,
              "duration": 0.041666666666666664
            },
            {
              "pitch": 40,
              "velocity": 70,
              "position": 7.5,
              "duration": 0.041666666666666664
            },
            {
              "pitch": 47,
              "velocity": 70,
              "position": 7.5,
              "duration": 0.041666666666666664
            },
            {
              "pitch": 43,
              "velocity": 70,
              "position": 7.5,
              "duration": 0.041666666666666664
            },
            {
              "pitch": 40,
              "velocity": 70,
              "position": 7.75,
              "duration": 0.041666666666666664
            },
            {
              "pitch": 47,
              "velocity": 70,
              "position": 7.75,
              "duration": 0.041666666666666664
            },
            {
              "pitch": 43,
              "velocity": 70,
              "position": 7.75,
              "duration": 0.041666666666666664
            }
          ]
        },
        "3": {
          "ctab": {
            "srcChannel": 3,
            "name": "12st rt",
            "accType": "CHORD1",
            "editable": false,
            "mutedNotes": [],
            "mutedChords": [
              "1+2+5",
              "sus4",
              "1+5",
              "1+8",
              "Maj7aug",
              "dim",
              "minMaj7(9)",
              "minMaj7",
              "min6",
              "min",
              "aug",
              "Maj7(9)",
              "Maj7#11",
              "Maj7",
              "Maj6",
              "Maj"
            ],
            "autoStart": false,
            "sourceChordNote": 0,
            "sourceChordType": "Maj7",
            "ctb2Low": null,
            "ctb2Main": {
              "ntr": "ROOT_TRANSPOSITION",
              "ntt": "MELODY",
              "bassOn": false,
              "chordRootUpperLimit": 6,
              "noteLowLimit": 0,
              "noteHighLimit": 127,
              "rtr": "PITCH_SHIFT"
            },
            "ctb2High": null
          },
          "notes": [
            {
              "pitch": 60,
              "velocity": 80,
              "position": 0.010416666666666666,
              "duration": 0.7395833333333334
            },
            {
              "pitch": 60,
              "velocity": 75,
              "position": 0.7708333333333334,
              "duration": 0.22916666666666666
            },
            {
              "pitch": 60,
              "velocity": 36,
              "position": 1.25,
              "duration": 0.23958333333333334
            },
            {
              "pitch": 60,
              "velocity": 80,
              "position": 1.5104166666666667,
              "duration": 0.4895833333333333
            },
            {
              "pitch": 60,
              "velocity": 20,
              "position": 2.0104166666666665,
              "duration": 0.23958333333333334
            },
            {
              "pitch": 60,
              "velocity": 67,
              "position": 2.2645833333333334,
              "duration": 0.2708333333333333
            },
            {
              "pitch": 60,
              "velocity": 5,
              "position": 2.7645833333333334,
              "duration": 0.22916666666666666
            },
            {
              "pitch": 60,
              "velocity": 74,
              "position": 3.00625,
              "duration": 0.9583333333333334
            },
            {
              "pitch": 60,
              "velocity": 80,
              "position": 4.010416666666667,
              "duration": 0.7395833333333334
            },
            {
              "pitch": 60,
              "velocity": 75,
              "position": 4.770833333333333,
              "duration": 0.22916666666666666
            },
            {
              "pitch": 60,
              "velocity": 36,
              "position": 5.25,
              "duration": 0.23958333333333334
            },
            {
              "pitch": 60,
              "velocity": 80,
              "position": 5.510416666666667,
              "duration": 0.4895833333333333
            },
            {
              "pitch": 60,
              "velocity": 20,
              "position": 6.010416666666667,
              "duration": 0.23958333333333334
            },
            {
              "pitch": 60,
              "velocity": 78,
              "position": 6.264583333333333,
              "duration": 0.23958333333333334
            },
            {
              "pitch": 60,
              "velocity": 5,
              "position": 6.764583333333333,
              "duration": 0.22916666666666666
            },
            {
              "pitch": 60,
              "velocity": 74,
              "position": 7.00625,
              "duration": 0.4895833333333333
            },
            {
              "pitch": 60,
              "velocity": 35,
              "position": 7.510416666666667,
              "duration": 0.23958333333333334
            },
            {
              "pitch": 60,
              "velocity": 35,
              "position": 7.764583333333333,
              "duration": 0.22916666666666666
            }
          ]
        },
        "5": {
          "ctab": {
            "srcChannel": 5,
            "name": "Strg rt",
            "accType": "PAD",
            "editable": false,
            "mutedNotes": [],
            "mutedChords": [
              "1+2+5",
              "sus4",
              "1+5",
              "1+8",
              "Maj7aug",
              "dim",
              "minMaj7(9)",
              "minMaj7",
              "min6",
              "min",
              "aug",
              "Maj7(9)",
              "Maj7#11",
              "Maj7",
              "Maj6",
              "Maj"
            ],
            "autoStart": false,
            "sourceChordNote": 0,
            "sourceChordType": "Maj7",
            "ctb2Low": null,
            "ctb2Main": {
              "ntr": "ROOT_TRANSPOSITION",
              "ntt": "MELODY",
              "bassOn": false,
              "chordRootUpperLimit": 6,
              "noteLowLimit": 0,
              "noteHighLimit": 127,
              "rtr": "PITCH_SHIFT"
            },
            "ctb2High": null
          },
          "notes": [
            {
              "pitch": 60,
              "velocity": 30,
              "position": 0,
              "duration": 7.989583333333333
            }
          ]
        },
        "8": {
          "ctab": {
            "srcChannel": 8,
            "name": "AddDrum",
            "accType": "SUBRHYTHM",
            "editable": false,
            "mutedNotes": [],
            "mutedChords": [],
            "autoStart": true,
            "sourceChordNote": 0,
            "sourceChordType": "Maj7",
            "ctb2Low": null,
            "ctb2Main": {
              "ntr": "ROOT_FIXED",
              "ntt": "BYPASS",
              "bassOn": false,
              "chordRootUpperLimit": 6,
              "noteLowLimit": 0,
              "noteHighLimit": 127,
              "rtr": "PITCH_SHIFT"
            },
            "ctb2High": null
          },
          "notes": [
            {
              "pitch": 82,
              "velocity": 72,
              "position": 0,
              "duration": 0.010416666666666666
            },
            {
              "pitch": 82,
              "velocity": 23,
              "position": 0.25,
              "duration": 0.010416666666666666
            },
            {
              "pitch": 82,
              "velocity": 40,
              "position": 0.5,
              "duration": 0.010416666666666666
            },
            {
              "pitch": 82,
              "velocity": 23,
              "position": 0.75,
              "duration": 0.010416666666666666
            },
            {
              "pitch": 82,
              "velocity": 72,
              "position": 1,
              "duration": 0.010416666666666666
            },
            {
              "pitch": 82,
              "velocity": 23,
              "position": 1.25,
              "duration": 0.010416666666666666
            },
            {
              "pitch": 82,
              "velocity": 40,
              "position": 1.5,
              "duration": 0.010416666666666666
            },
            {
              "pitch": 82,
              "velocity": 23,
              "position": 1.75,
              "duration": 0.010416666666666666
            },
            {
              "pitch": 82,
              "velocity": 72,
              "position": 2,
              "duration": 0.010416666666666666
            },
            {
              "pitch": 82,
              "velocity": 23,
              "position": 2.25,
              "duration": 0.010416666666666666
            },
            {
              "pitch": 82,
              "velocity": 40,
              "position": 2.5,
              "duration": 0.010416666666666666
            },
            {
              "pitch": 82,
              "velocity": 23,
              "position": 2.75,
              "duration": 0.010416666666666666
            },
            {
              "pitch": 82,
              "velocity": 72,
              "position": 3,
              "duration": 0.010416666666666666
            },
            {
              "pitch": 54,
              "velocity": 114,
              "position": 3,
              "duration": 0.020833333333333332
            },
            {
              "pitch": 82,
              "velocity": 23,
              "position": 3.25,
              "duration": 0.010416666666666666
            },
            {
              "pitch": 82,
              "velocity": 40,
              "position": 3.5,
              "duration": 0.010416666666666666
            },
            {
              "pitch": 82,
              "velocity": 23,
              "position": 3.75,
              "duration": 0.010416666666666666
            },
            {
              "pitch": 82,
              "velocity": 72,
              "position": 4,
              "duration": 0.010416666666666666
            },
            {
              "pitch": 82,
              "velocity": 23,
              "position": 4.25,
              "duration": 0.010416666666666666
            },
            {
              "pitch": 82,
              "velocity": 40,
              "position": 4.5,
              "duration": 0.010416666666666666
            },
            {
              "pitch": 82,
              "velocity": 23,
              "position": 4.75,
              "duration": 0.010416666666666666
            },
            {
              "pitch": 82,
              "velocity": 72,
              "position": 5,
              "duration": 0.010416666666666666
            },
            {
              "pitch": 82,
              "velocity": 23,
              "position": 5.25,
              "duration": 0.010416666666666666
            },
            {
              "pitch": 82,
              "velocity": 40,
              "position": 5.5,
              "duration": 0.010416666666666666
            },
            {
              "pitch": 82,
              "velocity": 23,
              "position": 5.75,
              "duration": 0.010416666666666666
            },
            {
              "pitch": 82,
              "velocity": 72,
              "position": 6,
              "duration": 0.010416666666666666
            },
            {
              "pitch": 82,
              "velocity": 23,
              "position": 6.25,
              "duration": 0.010416666666666666
            },
            {
              "pitch": 82,
              "velocity": 40,
              "position": 6.5,
              "duration": 0.010416666666666666
            },
            {
              "pitch": 82,
              "velocity": 23,
              "position": 6.75,
              "duration": 0.010416666666666666
            },
            {
              "pitch": 82,
              "velocity": 72,
              "position": 7,
              "duration": 0.010416666666666666
            },
            {
              "pitch": 54,
              "velocity": 114,
              "position": 7,
              "duration": 0.020833333333333332
            },
            {
              "pitch": 82,
              "velocity": 23,
              "position": 7.25,
              "duration": 0.010416666666666666
            },
            {
              "pitch": 82,
              "velocity": 40,
              "position": 7.5,
              "duration": 0.010416666666666666
            },
            {
              "pitch": 82,
              "velocity": 23,
              "position": 7.75,
              "duration": 0.010416666666666666
            }
          ]
        },
        "9": {
          "ctab": {
            "srcChannel": 9,
            "name": "MainDrum",
            "accType": "RHYTHM",
            "editable": false,
            "mutedNotes": [],
            "mutedChords": [],
            "autoStart": true,
            "sourceChordNote": 0,
            "sourceChordType": "Maj7",
            "ctb2Low": null,
            "ctb2Main": {
              "ntr": "ROOT_FIXED",
              "ntt": "BYPASS",
              "bassOn": false,
              "chordRootUpperLimit": 6,
              "noteLowLimit": 0,
              "noteHighLimit": 127,
              "rtr": "PITCH_SHIFT"
            },
            "ctb2High": null
          },
          "notes": []
        },
        "10": {
          "ctab": {
            "srcChannel": 10,
            "name": "Bass",
            "accType": "BASS",
            "editable": false,
            "mutedNotes": [],
            "mutedChords": [],
            "autoStart": false,
            "sourceChordNote": 0,
            "sourceChordType": "Maj7",
            "ctb2Low": null,
            "ctb2Main": {
              "ntr": "ROOT_TRANSPOSITION",
              "ntt": "MELODY",
              "bassOn": true,
              "chordRootUpperLimit": 3,
              "noteLowLimit": 28,
              "noteHighLimit": 127,
              "rtr": "PITCH_SHIFT_TO_ROOT"
            },
            "ctb2High": null
          },
          "notes": [
            {
              "pitch": 24,
              "velocity": 73,
              "position": 0,
              "duration": 0.9895833333333334
            },
            {
              "pitch": 24,
              "velocity": 84,
              "position": 1,
              "duration": 0.020833333333333332
            },
            {
              "pitch": 24,
              "velocity": 73,
              "position": 1.5,
              "duration": 1.4895833333333333
            },
            {
              "pitch": 24,
              "velocity": 67,
              "position": 3.7708333333333335,
              "duration": 0.21875
            },
            {
              "pitch": 24,
              "velocity": 73,
              "position": 4,
              "duration": 0.9895833333333334
            },
            {
              "pitch": 24,
              "velocity": 83,
              "position": 5,
              "duration": 0.020833333333333332
            },
            {
              "pitch": 24,
              "velocity": 73,
              "position": 5.5,
              "duration": 1.4895833333333333
            }
          ]
        },
        "11": {
          "ctab": {
            "srcChannel": 11,
            "name": "12stGtr",
            "accType": "CHORD1",
            "editable": false,
            "mutedNotes": [],
            "mutedChords": [],
            "autoStart": false,
            "sourceChordNote": 0,
            "sourceChordType": "Maj7",
            "ctb2Low": null,
            "ctb2Main": {
              "ntr": "ROOT_FIXED",
              "ntt": "CHORD",
              "bassOn": false,
              "chordRootUpperLimit": 7,
              "noteLowLimit": 50,
              "noteHighLimit": 127,
              "rtr": "PITCH_SHIFT"
            },
            "ctb2High": null
          },
          "notes": [
            {
              "pitch": 55,
              "velocity": 86,
              "position": 0,
              "duration": 0.7395833333333334
            },
            {
              "pitch": 67,
              "velocity": 95,
              "position": 0.03125,
              "duration": 0.7083333333333334
            },
            {
              "pitch": 64,
              "velocity": 95,
              "position": 0.020833333333333332,
              "duration": 0.71875
            },
            {
              "pitch": 59,
              "velocity": 95,
              "position": 0.010416666666666666,
              "duration": 0.7395833333333334
            },
            {
              "pitch": 64,
              "velocity": 90,
              "position": 0.75,
              "duration": 0.25
            },
            {
              "pitch": 55,
              "velocity": 90,
              "position": 0.78125,
              "duration": 0.21875
            },
            {
              "pitch": 59,
              "velocity": 90,
              "position": 0.7708333333333334,
              "duration": 0.22916666666666666
            },
            {
              "pitch": 67,
              "velocity": 90,
              "position": 0.75,
              "duration": 0.25
            },
            {
              "pitch": 55,
              "velocity": 51,
              "position": 1.25,
              "duration": 0.23958333333333334
            },
            {
              "pitch": 64,
              "velocity": 51,
              "position": 1.25,
              "duration": 0.23958333333333334
            },
            {
              "pitch": 59,
              "velocity": 51,
              "position": 1.25,
              "duration": 0.23958333333333334
            },
            {
              "pitch": 55,
              "velocity": 82,
              "position": 1.5,
              "duration": 0.4895833333333333
            },
            {
              "pitch": 67,
              "velocity": 95,
              "position": 1.53125,
              "duration": 0.46875
            },
            {
              "pitch": 64,
              "velocity": 95,
              "position": 1.5208333333333333,
              "duration": 0.4791666666666667
            },
            {
              "pitch": 59,
              "velocity": 95,
              "position": 1.5104166666666667,
              "duration": 0.4895833333333333
            },
            {
              "pitch": 67,
              "velocity": 35,
              "position": 2.03125,
              "duration": 0.19375
            },
            {
              "pitch": 64,
              "velocity": 35,
              "position": 2.0208333333333335,
              "duration": 0.20833333333333334
            },
            {
              "pitch": 55,
              "velocity": 35,
              "position": 2,
              "duration": 0.25
            },
            {
              "pitch": 59,
              "velocity": 35,
              "position": 2.0104166666666665,
              "duration": 0.23958333333333334
            },
            {
              "pitch": 67,
              "velocity": 88,
              "position": 2.25,
              "duration": 0.28125
            },
            {
              "pitch": 55,
              "velocity": 79,
              "position": 2.2708333333333335,
              "duration": 0.2604166666666667
            },
            {
              "pitch": 64,
              "velocity": 91,
              "position": 2.2604166666666665,
              "duration": 0.2708333333333333
            },
            {
              "pitch": 59,
              "velocity": 82,
              "position": 2.2645833333333334,
              "duration": 0.2708333333333333
            },
            {
              "pitch": 55,
              "velocity": 20,
              "position": 2.7708333333333335,
              "duration": 0.22083333333333333
            },
            {
              "pitch": 59,
              "velocity": 20,
              "position": 2.7645833333333334,
              "duration": 0.22916666666666666
            },
            {
              "pitch": 67,
              "velocity": 20,
              "position": 2.75,
              "duration": 0.25
            },
            {
              "pitch": 64,
              "velocity": 20,
              "position": 2.7604166666666665,
              "duration": 0.23958333333333334
            },
            {
              "pitch": 55,
              "velocity": 83,
              "position": 3,
              "duration": 0.9583333333333334
            },
            {
              "pitch": 59,
              "velocity": 89,
              "position": 3.00625,
              "duration": 0.9583333333333334
            },
            {
              "pitch": 64,
              "velocity": 92,
              "position": 3.0125,
              "duration": 0.9583333333333334
            },
            {
              "pitch": 67,
              "velocity": 95,
              "position": 3.01875,
              "duration": 0.9583333333333334
            },
            {
              "pitch": 55,
              "velocity": 86,
              "position": 4,
              "duration": 0.7395833333333334
            },
            {
              "pitch": 67,
              "velocity": 95,
              "position": 4.03125,
              "duration": 0.7083333333333334
            },
            {
              "pitch": 64,
              "velocity": 95,
              "position": 4.020833333333333,
              "duration": 0.71875
            },
            {
              "pitch": 59,
              "velocity": 95,
              "position": 4.010416666666667,
              "duration": 0.7395833333333334
            },
            {
              "pitch": 64,
              "velocity": 90,
              "position": 4.75,
              "duration": 0.25
            },
            {
              "pitch": 55,
              "velocity": 90,
              "position": 4.78125,
              "duration": 0.21875
            },
            {
              "pitch": 59,
              "velocity": 90,
              "position": 4.770833333333333,
              "duration": 0.22916666666666666
            },
            {
              "pitch": 67,
              "velocity": 90,
              "position": 4.75,
              "duration": 0.25
            },
            {
              "pitch": 55,
              "velocity": 51,
              "position": 5.25,
              "duration": 0.23958333333333334
            },
            {
              "pitch": 64,
              "velocity": 51,
              "position": 5.25,
              "duration": 0.23958333333333334
            },
            {
              "pitch": 59,
              "velocity": 51,
              "position": 5.25,
              "duration": 0.23958333333333334
            },
            {
              "pitch": 55,
              "velocity": 82,
              "position": 5.5,
              "duration": 0.4895833333333333
            },
            {
              "pitch": 67,
              "velocity": 95,
              "position": 5.53125,
              "duration": 0.46875
            },
            {
              "pitch": 64,
              "velocity": 95,
              "position": 5.520833333333333,
              "duration": 0.4791666666666667
            },
            {
              "pitch": 59,
              "velocity": 95,
              "position": 5.510416666666667,
              "duration": 0.4895833333333333
            },
            {
              "pitch": 67,
              "velocity": 35,
              "position": 6.03125,
              "duration": 0.19375
            },
            {
              "pitch": 64,
              "velocity": 35,
              "position": 6.020833333333333,
              "duration": 0.20833333333333334
            },
            {
              "pitch": 55,
              "velocity": 35,
              "position": 6,
              "duration": 0.25
            },
            {
              "pitch": 59,
              "velocity": 35,
              "position": 6.010416666666667,
              "duration": 0.23958333333333334
            },
            {
              "pitch": 67,
              "velocity": 90,
              "position": 6.25,
              "duration": 0.25
            },
            {
              "pitch": 55,
              "velocity": 90,
              "position": 6.270833333333333,
              "duration": 0.22916666666666666
            },
            {
              "pitch": 64,
              "velocity": 93,
              "position": 6.260416666666667,
              "duration": 0.23958333333333334
            },
            {
              "pitch": 59,
              "velocity": 93,
              "position": 6.264583333333333,
              "duration": 0.23958333333333334
            },
            {
              "pitch": 55,
              "velocity": 20,
              "position": 6.770833333333333,
              "duration": 0.22083333333333333
            },
            {
              "pitch": 59,
              "velocity": 20,
              "position": 6.764583333333333,
              "duration": 0.22916666666666666
            },
            {
              "pitch": 67,
              "velocity": 20,
              "position": 6.75,
              "duration": 0.25
            },
            {
              "pitch": 64,
              "velocity": 20,
              "position": 6.760416666666667,
              "duration": 0.23958333333333334
            },
            {
              "pitch": 55,
              "velocity": 83,
              "position": 7,
              "duration": 0.4895833333333333
            },
            {
              "pitch": 59,
              "velocity": 89,
              "position": 7.00625,
              "duration": 0.4895833333333333
            },
            {
              "pitch": 64,
              "velocity": 92,
              "position": 7.0125,
              "duration": 0.4895833333333333
            },
            {
              "pitch": 67,
              "velocity": 95,
              "position": 7.01875,
              "duration": 0.4895833333333333
            },
            {
              "pitch": 64,
              "velocity": 50,
              "position": 7.520833333333333,
              "duration": 0.21875
            },
            {
              "pitch": 67,
              "velocity": 50,
              "position": 7.53125,
              "duration": 0.20833333333333334
            },
            {
              "pitch": 55,
              "velocity": 50,
              "position": 7.5,
              "duration": 0.25
            },
            {
              "pitch": 59,
              "velocity": 50,
              "position": 7.510416666666667,
              "duration": 0.23958333333333334
            },
            {
              "pitch": 67,
              "velocity": 50,
              "position": 7.75,
              "duration": 0.23958333333333334
            },
            {
              "pitch": 55,
              "velocity": 50,
              "position": 7.770833333333333,
              "duration": 0.21875
            },
            {
              "pitch": 64,
              "velocity": 50,
              "position": 7.760416666666667,
              "duration": 0.22916666666666666
            },
            {
              "pitch": 59,
              "velocity": 50,
              "position": 7.764583333333333,
              "duration": 0.22916666666666666
            }
          ]
        },
        "12": {
          "ctab": {
            "srcChannel": 12,
            "name": "MuteGtr",
            "accType": "CHORD2",
            "editable": false,
            "mutedNotes": [],
            "mutedChords": [],
            "autoStart": false,
            "sourceChordNote": 0,
            "sourceChordType": "min7(11)",
            "ctb2Low": null,
            "ctb2Main": {
              "ntr": "ROOT_FIXED",
              "ntt": "CHORD",
              "bassOn": false,
              "chordRootUpperLimit": 7,
              "noteLowLimit": 50,
              "noteHighLimit": 127,
              "rtr": "PITCH_SHIFT"
            },
            "ctb2High": null
          },
          "notes": []
        },
        "13": {
          "ctab": {
            "srcChannel": 13,
            "name": "Strings",
            "accType": "PAD",
            "editable": false,
            "mutedNotes": [],
            "mutedChords": [],
            "autoStart": false,
            "sourceChordNote": 0,
            "sourceChordType": "Maj7",
            "ctb2Low": null,
            "ctb2Main": {
              "ntr": "ROOT_FIXED",
              "ntt": "CHORD",
              "bassOn": false,
              "chordRootUpperLimit": 7,
              "noteLowLimit": 0,
              "noteHighLimit": 127,
              "rtr": "PITCH_SHIFT"
            },
            "ctb2High": null
          },
          "notes": [
            {
              "pitch": 55,
              "velocity": 30,
              "position": 0,
              "duration": 7.989583333333333
            },
            {
              "pitch": 64,
              "velocity": 30,
              "position": 0,
              "duration": 7.989583333333333
            },
            {
              "pitch": 59,
              "velocity": 30,
              "position": 0,
              "duration": 7.989583333333333
            }
          ]
        },
        "14": {
          "ctab": {
            "srcChannel": 14,
            "name": "add GTR",
            "accType": "PHRASE2",
            "editable": false,
            "mutedNotes": [],
            "mutedChords": [],
            "autoStart": false,
            "sourceChordNote": 0,
            "sourceChordType": "Maj7",
            "ctb2Low": null,
            "ctb2Main": {
              "ntr": "ROOT_FIXED",
              "ntt": "CHORD",
              "bassOn": false,
              "chordRootUpperLimit": 7,
              "noteLowLimit": 40,
              "noteHighLimit": 127,
              "rtr": "PITCH_SHIFT"
            },
            "ctb2High": null
          },
          "notes": [
            {
              "pitch": 64,
              "velocity": 118,
              "position": 0.03125,
              "duration": 0.7083333333333334
            },
            {
              "pitch": 59,
              "velocity": 107,
              "position": 0.020833333333333332,
              "duration": 0.7395833333333334
            },
            {
              "pitch": 64,
              "velocity": 107,
              "position": 0.75,
              "duration": 0.33958333333333335
            },
            {
              "pitch": 55,
              "velocity": 107,
              "position": 0.010416666666666666,
              "duration": 1.0895833333333333
            },
            {
              "pitch": 59,
              "velocity": 107,
              "position": 0.78125,
              "duration": 0.33958333333333335
            },
            {
              "pitch": 55,
              "velocity": 107,
              "position": 1.53125,
              "duration": 0.7395833333333334
            },
            {
              "pitch": 64,
              "velocity": 107,
              "position": 1.5104166666666667,
              "duration": 1.0895833333333333
            },
            {
              "pitch": 55,
              "velocity": 107,
              "position": 2.28125,
              "duration": 0.33958333333333335
            },
            {
              "pitch": 59,
              "velocity": 107,
              "position": 1.5208333333333333,
              "duration": 1.1
            },
            {
              "pitch": 64,
              "velocity": 107,
              "position": 3.03125,
              "duration": 0.9583333333333334
            },
            {
              "pitch": 59,
              "velocity": 107,
              "position": 3.0208333333333335,
              "duration": 0.9708333333333333
            },
            {
              "pitch": 55,
              "velocity": 107,
              "position": 3.0104166666666665,
              "duration": 0.9895833333333334
            },
            {
              "pitch": 59,
              "velocity": 109,
              "position": 4,
              "duration": 0.7395833333333334
            },
            {
              "pitch": 64,
              "velocity": 116,
              "position": 4,
              "duration": 1.0895833333333333
            },
            {
              "pitch": 59,
              "velocity": 107,
              "position": 4.75,
              "duration": 0.33958333333333335
            },
            {
              "pitch": 55,
              "velocity": 107,
              "position": 4.010416666666667,
              "duration": 1.0895833333333333
            },
            {
              "pitch": 64,
              "velocity": 107,
              "position": 5.510416666666667,
              "duration": 0.7291666666666666
            },
            {
              "pitch": 55,
              "velocity": 107,
              "position": 5.520833333333333,
              "duration": 0.7395833333333334
            },
            {
              "pitch": 64,
              "velocity": 107,
              "position": 6.25,
              "duration": 0.33958333333333335
            },
            {
              "pitch": 55,
              "velocity": 107,
              "position": 6.28125,
              "duration": 0.33958333333333335
            },
            {
              "pitch": 59,
              "velocity": 107,
              "position": 5.53125,
              "duration": 1.0895833333333333
            },
            {
              "pitch": 64,
              "velocity": 107,
              "position": 7.020833333333333,
              "duration": 0.96875
            },
            {
              "pitch": 59,
              "velocity": 107,
              "position": 7.03125,
              "duration": 0.9583333333333334
            },
            {
              "pitch": 55,
              "velocity": 107,
              "position": 7.03125,
              "duration": 0.9583333333333334
            }
          ]
        },
        "15": {
          "ctab": {
            "srcChannel": 15,
            "name": "Egtr",
            "accType": "PHRASE1",
            "editable": false,
            "mutedNotes": [],
            "mutedChords": [],
            "autoStart": false,
            "sourceChordNote": 0,
            "sourceChordType": "min7(11)",
            "ctb2Low": null,
            "ctb2Main": {
              "ntr": "ROOT_FIXED",
              "ntt": "CHORD",
              "bassOn": false,
              "chordRootUpperLimit": 7,
              "noteLowLimit": 50,
              "noteHighLimit": 127,
              "rtr": "PITCH_SHIFT"
            },
            "ctb2High": null
          },
          "notes": []
        }
      }
    },
    "Main_B": {
      "type": "Main_B",
      "sizeInBeats": 8,
      "channels": {
        "0": {
          "ctab": {
            "srcChannel": 0,
            "name": "CC_Crash",
            "accType": "RHYTHM",
            "editable": false,
            "mutedNotes": [],
            "mutedChords": [
              "1+2+5",
              "sus4",
              "1+5",
              "1+8",
              "7aug",
              "Maj7aug",
              "7(#9)",
              "7(b13)",
              "7(b9)",
              "7(13)",
              "7#11",
              "7(9)",
              "7b5",
              "7sus4",
              "7th",
              "dim7",
              "dim",
              "minMaj7(9)",
              "minMaj7",
              "min7(11)",
              "min7(9)",
              "min(9)",
              "m7b5",
              "min7",
              "min6",
              "min",
              "aug",
              "Maj6(9)",
              "Maj7(9)",
              "Maj(9)",
              "Maj7#11",
              "Maj7",
              "Maj6",
              "Maj"
            ],
            "autoStart": true,
            "sourceChordNote": 0,
            "sourceChordType": "Maj",
            "ctb2Low": null,
            "ctb2Main": {
              "ntr": "ROOT_FIXED",
              "ntt": "BYPASS",
              "bassOn": false,
              "chordRootUpperLimit": 0,
              "noteLowLimit": 0,
              "noteHighLimit": 127,
              "rtr": "RETRIGGER"
            },
            "ctb2High": null
          },
          "notes": []
        },
        "1": {
          "ctab": {
            "srcChannel": 1,
            "name": "12st SFX",
            "accType": "CHORD1",
            "editable": false,
            "mutedNotes": [],
            "mutedChords": [],
            "autoStart": false,
            "sourceChordNote": 0,
            "sourceChordType": "Maj7",
            "ctb2Low": null,
            "ctb2Main": {
              "ntr": "ROOT_FIXED",
              "ntt": "BYPASS",
              "bassOn": false,
              "chordRootUpperLimit": 7,
              "noteLowLimit": 0,
              "noteHighLimit": 127,
              "rtr": "PITCH_SHIFT"
            },
            "ctb2High": null
          },
          "notes": [
            {
              "pitch": 40,
              "velocity": 70,
              "position": 0,
              "duration": 0.041666666666666664
            },
            {
              "pitch": 47,
              "velocity": 70,
              "position": 0,
              "duration": 0.041666666666666664
            },
            {
              "pitch": 43,
              "velocity": 70,
              "position": 0,
              "duration": 0.041666666666666664
            },
            {
              "pitch": 40,
              "velocity": 70,
              "position": 0.5,
              "duration": 0.041666666666666664
            },
            {
              "pitch": 47,
              "velocity": 70,
              "position": 0.5,
              "duration": 0.041666666666666664
            },
            {
              "pitch": 43,
              "velocity": 70,
              "position": 0.5,
              "duration": 0.041666666666666664
            },
            {
              "pitch": 40,
              "velocity": 70,
              "position": 0.75,
              "duration": 0.041666666666666664
            },
            {
              "pitch": 47,
              "velocity": 70,
              "position": 0.75,
              "duration": 0.041666666666666664
            },
            {
              "pitch": 43,
              "velocity": 70,
              "position": 0.75,
              "duration": 0.041666666666666664
            },
            {
              "pitch": 40,
              "velocity": 70,
              "position": 1.5,
              "duration": 0.041666666666666664
            },
            {
              "pitch": 47,
              "velocity": 70,
              "position": 1.5,
              "duration": 0.041666666666666664
            },
            {
              "pitch": 43,
              "velocity": 70,
              "position": 1.5,
              "duration": 0.041666666666666664
            },
            {
              "pitch": 40,
              "velocity": 70,
              "position": 2,
              "duration": 0.041666666666666664
            },
            {
              "pitch": 43,
              "velocity": 70,
              "position": 2,
              "duration": 0.041666666666666664
            },
            {
              "pitch": 40,
              "velocity": 70,
              "position": 2.25,
              "duration": 0.041666666666666664
            },
            {
              "pitch": 47,
              "velocity": 70,
              "position": 2.25,
              "duration": 0.041666666666666664
            },
            {
              "pitch": 43,
              "velocity": 70,
              "position": 2.25,
              "duration": 0.041666666666666664
            },
            {
              "pitch": 40,
              "velocity": 70,
              "position": 2.75,
              "duration": 0.041666666666666664
            },
            {
              "pitch": 47,
              "velocity": 70,
              "position": 2.75,
              "duration": 0.041666666666666664
            },
            {
              "pitch": 43,
              "velocity": 70,
              "position": 2.75,
              "duration": 0.041666666666666664
            },
            {
              "pitch": 40,
              "velocity": 70,
              "position": 3,
              "duration": 0.041666666666666664
            },
            {
              "pitch": 47,
              "velocity": 70,
              "position": 3,
              "duration": 0.041666666666666664
            },
            {
              "pitch": 43,
              "velocity": 70,
              "position": 3,
              "duration": 0.041666666666666664
            },
            {
              "pitch": 40,
              "velocity": 70,
              "position": 3.5,
              "duration": 0.041666666666666664
            },
            {
              "pitch": 43,
              "velocity": 70,
              "position": 3.5,
              "duration": 0.041666666666666664
            },
            {
              "pitch": 40,
              "velocity": 50,
              "position": 3.75,
              "duration": 0.041666666666666664
            },
            {
              "pitch": 40,
              "velocity": 70,
              "position": 4,
              "duration": 0.041666666666666664
            },
            {
              "pitch": 47,
              "velocity": 70,
              "position": 4,
              "duration": 0.041666666666666664
            },
            {
              "pitch": 43,
              "velocity": 70,
              "position": 4,
              "duration": 0.041666666666666664
            },
            {
              "pitch": 40,
              "velocity": 70,
              "position": 4.5,
              "duration": 0.041666666666666664
            },
            {
              "pitch": 43,
              "velocity": 70,
              "position": 4.5,
              "duration": 0.041666666666666664
            },
            {
              "pitch": 40,
              "velocity": 70,
              "position": 4.75,
              "duration": 0.041666666666666664
            },
            {
              "pitch": 47,
              "velocity": 70,
              "position": 4.75,
              "duration": 0.041666666666666664
            },
            {
              "pitch": 43,
              "velocity": 70,
              "position": 4.75,
              "duration": 0.041666666666666664
            },
            {
              "pitch": 40,
              "velocity": 70,
              "position": 5.5,
              "duration": 0.041666666666666664
            },
            {
              "pitch": 47,
              "velocity": 70,
              "position": 5.5,
              "duration": 0.041666666666666664
            },
            {
              "pitch": 43,
              "velocity": 70,
              "position": 5.5,
              "duration": 0.041666666666666664
            },
            {
              "pitch": 40,
              "velocity": 70,
              "position": 6,
              "duration": 0.041666666666666664
            },
            {
              "pitch": 43,
              "velocity": 70,
              "position": 6,
              "duration": 0.041666666666666664
            },
            {
              "pitch": 40,
              "velocity": 70,
              "position": 6.25,
              "duration": 0.041666666666666664
            },
            {
              "pitch": 47,
              "velocity": 70,
              "position": 6.25,
              "duration": 0.041666666666666664
            },
            {
              "pitch": 43,
              "velocity": 70,
              "position": 6.25,
              "duration": 0.041666666666666664
            },
            {
              "pitch": 40,
              "velocity": 70,
              "position": 6.75,
              "duration": 0.041666666666666664
            },
            {
              "pitch": 40,
              "velocity": 70,
              "position": 7,
              "duration": 0.041666666666666664
            },
            {
              "pitch": 47,
              "velocity": 70,
              "position": 7,
              "duration": 0.041666666666666664
            },
            {
              "pitch": 43,
              "velocity": 70,
              "position": 7,
              "duration": 0.041666666666666664
            },
            {
              "pitch": 43,
              "velocity": 70,
              "position": 7.5,
              "duration": 0.041666666666666664
            },
            {
              "pitch": 47,
              "velocity": 70,
              "position": 7.5,
              "duration": 0.041666666666666664
            },
            {
              "pitch": 40,
              "velocity": 70,
              "position": 7.75,
              "duration": 0.041666666666666664
            },
            {
              "pitch": 43,
              "velocity": 70,
              "position": 7.75,
              "duration": 0.041666666666666664
            }
          ]
        },
        "3": {
          "ctab": {
            "srcChannel": 3,
            "name": "12st rt",
            "accType": "CHORD1",
            "editable": false,
            "mutedNotes": [],
            "mutedChords": [
              "1+2+5",
              "sus4",
              "1+5",
              "1+8",
              "Maj7aug",
              "dim",
              "minMaj7(9)",
              "minMaj7",
              "min6",
              "min",
              "aug",
              "Maj7(9)",
              "Maj7#11",
              "Maj7",
              "Maj6",
              "Maj"
            ],
            "autoStart": false,
            "sourceChordNote": 0,
            "sourceChordType": "Maj7",
            "ctb2Low": null,
            "ctb2Main": {
              "ntr": "ROOT_TRANSPOSITION",
              "ntt": "MELODY",
              "bassOn": false,
              "chordRootUpperLimit": 6,
              "noteLowLimit": 0,
              "noteHighLimit": 127,
              "rtr": "PITCH_SHIFT"
            },
            "ctb2High": null
          },
          "notes": [
            {
              "pitch": 60,
              "velocity": 80,
              "position": 0.010416666666666666,
              "duration": 0.7395833333333334
            },
            {
              "pitch": 60,
              "velocity": 78,
              "position": 0.7625,
              "duration": 0.20625
            },
            {
              "pitch": 60,
              "velocity": 35,
              "position": 1.25,
              "duration": 0.23958333333333334
            },
            {
              "pitch": 60,
              "velocity": 80,
              "position": 1.50625,
              "duration": 0.7395833333333334
            },
            {
              "pitch": 60,
              "velocity": 78,
              "position": 2.2604166666666665,
              "duration": 0.23958333333333334
            },
            {
              "pitch": 60,
              "velocity": 35,
              "position": 2.75,
              "duration": 0.23958333333333334
            },
            {
              "pitch": 60,
              "velocity": 74,
              "position": 3.0104166666666665,
              "duration": 0.9895833333333334
            },
            {
              "pitch": 60,
              "velocity": 80,
              "position": 4.010416666666667,
              "duration": 0.7395833333333334
            },
            {
              "pitch": 60,
              "velocity": 78,
              "position": 4.7625,
              "duration": 0.20625
            },
            {
              "pitch": 60,
              "velocity": 35,
              "position": 5.25,
              "duration": 0.23958333333333334
            },
            {
              "pitch": 60,
              "velocity": 80,
              "position": 5.50625,
              "duration": 0.7395833333333334
            },
            {
              "pitch": 60,
              "velocity": 78,
              "position": 6.260416666666667,
              "duration": 0.23958333333333334
            },
            {
              "pitch": 60,
              "velocity": 35,
              "position": 6.75,
              "duration": 0.23958333333333334
            },
            {
              "pitch": 60,
              "velocity": 74,
              "position": 7.010416666666667,
              "duration": 0.46875
            },
            {
              "pitch": 60,
              "velocity": 55,
              "position": 7.5,
              "duration": 0.4895833333333333
            }
          ]
        },
        "5": {
          "ctab": {
            "srcChannel": 5,
            "name": "Strg rt",
            "accType": "PAD",
            "editable": false,
            "mutedNotes": [],
            "mutedChords": [
              "1+2+5",
              "sus4",
              "1+5",
              "1+8",
              "Maj7aug",
              "dim",
              "minMaj7(9)",
              "minMaj7",
              "min6",
              "min",
              "aug",
              "Maj7(9)",
              "Maj7#11",
              "Maj7",
              "Maj6",
              "Maj"
            ],
            "autoStart": false,
            "sourceChordNote": 0,
            "sourceChordType": "Maj7",
            "ctb2Low": null,
            "ctb2Main": {
              "ntr": "ROOT_TRANSPOSITION",
              "ntt": "MELODY",
              "bassOn": false,
              "chordRootUpperLimit": 6,
              "noteLowLimit": 0,
              "noteHighLimit": 127,
              "rtr": "PITCH_SHIFT"
            },
            "ctb2High": null
          },
          "notes": [
            {
              "pitch": 60,
              "velocity": 40,
              "position": 0,
              "duration": 7.989583333333333
            }
          ]
        },
        "8": {
          "ctab": {
            "srcChannel": 8,
            "name": "AddDrum",
            "accType": "SUBRHYTHM",
            "editable": false,
            "mutedNotes": [],
            "mutedChords": [],
            "autoStart": true,
            "sourceChordNote": 0,
            "sourceChordType": "Maj7",
            "ctb2Low": null,
            "ctb2Main": {
              "ntr": "ROOT_FIXED",
              "ntt": "BYPASS",
              "bassOn": false,
              "chordRootUpperLimit": 6,
              "noteLowLimit": 0,
              "noteHighLimit": 127,
              "rtr": "PITCH_SHIFT"
            },
            "ctb2High": null
          },
          "notes": [
            {
              "pitch": 27,
              "velocity": 90,
              "position": 0,
              "duration": 0.010416666666666666
            },
            {
              "pitch": 82,
              "velocity": 72,
              "position": 0,
              "duration": 0.010416666666666666
            },
            {
              "pitch": 70,
              "velocity": 56,
              "position": 0,
              "duration": 0.010416666666666666
            },
            {
              "pitch": 25,
              "velocity": 32,
              "position": 0.2708333333333333,
              "duration": 0.010416666666666666
            },
            {
              "pitch": 70,
              "velocity": 23,
              "position": 0.2708333333333333,
              "duration": 0.010416666666666666
            },
            {
              "pitch": 27,
              "velocity": 29,
              "position": 0.5,
              "duration": 0.010416666666666666
            },
            {
              "pitch": 70,
              "velocity": 72,
              "position": 0.5,
              "duration": 0.010416666666666666
            },
            {
              "pitch": 25,
              "velocity": 89,
              "position": 0.7708333333333334,
              "duration": 0.010416666666666666
            },
            {
              "pitch": 27,
              "velocity": 90,
              "position": 1,
              "duration": 0.010416666666666666
            },
            {
              "pitch": 82,
              "velocity": 72,
              "position": 1,
              "duration": 0.010416666666666666
            },
            {
              "pitch": 70,
              "velocity": 56,
              "position": 1,
              "duration": 0.010416666666666666
            },
            {
              "pitch": 25,
              "velocity": 28,
              "position": 1.2708333333333333,
              "duration": 0.010416666666666666
            },
            {
              "pitch": 27,
              "velocity": 30,
              "position": 1.5,
              "duration": 0.010416666666666666
            },
            {
              "pitch": 70,
              "velocity": 72,
              "position": 1.5,
              "duration": 0.010416666666666666
            },
            {
              "pitch": 25,
              "velocity": 54,
              "position": 1.7708333333333333,
              "duration": 0.010416666666666666
            },
            {
              "pitch": 69,
              "velocity": 53,
              "position": 1.7708333333333333,
              "duration": 0.010416666666666666
            },
            {
              "pitch": 27,
              "velocity": 65,
              "position": 2,
              "duration": 0.010416666666666666
            },
            {
              "pitch": 82,
              "velocity": 72,
              "position": 2,
              "duration": 0.010416666666666666
            },
            {
              "pitch": 70,
              "velocity": 46,
              "position": 2,
              "duration": 0.010416666666666666
            },
            {
              "pitch": 25,
              "velocity": 32,
              "position": 2.2708333333333335,
              "duration": 0.010416666666666666
            },
            {
              "pitch": 70,
              "velocity": 23,
              "position": 2.2708333333333335,
              "duration": 0.010416666666666666
            },
            {
              "pitch": 27,
              "velocity": 29,
              "position": 2.5,
              "duration": 0.010416666666666666
            },
            {
              "pitch": 70,
              "velocity": 72,
              "position": 2.5,
              "duration": 0.010416666666666666
            },
            {
              "pitch": 25,
              "velocity": 56,
              "position": 2.7708333333333335,
              "duration": 0.010416666666666666
            },
            {
              "pitch": 27,
              "velocity": 68,
              "position": 3,
              "duration": 0.010416666666666666
            },
            {
              "pitch": 82,
              "velocity": 72,
              "position": 3,
              "duration": 0.010416666666666666
            },
            {
              "pitch": 70,
              "velocity": 56,
              "position": 3,
              "duration": 0.010416666666666666
            },
            {
              "pitch": 54,
              "velocity": 114,
              "position": 3,
              "duration": 0.03125
            },
            {
              "pitch": 25,
              "velocity": 28,
              "position": 3.2708333333333335,
              "duration": 0.010416666666666666
            },
            {
              "pitch": 70,
              "velocity": 23,
              "position": 3.2708333333333335,
              "duration": 0.010416666666666666
            },
            {
              "pitch": 27,
              "velocity": 30,
              "position": 3.5,
              "duration": 0.010416666666666666
            },
            {
              "pitch": 70,
              "velocity": 72,
              "position": 3.5,
              "duration": 0.010416666666666666
            },
            {
              "pitch": 25,
              "velocity": 68,
              "position": 3.7708333333333335,
              "duration": 0.010416666666666666
            },
            {
              "pitch": 69,
              "velocity": 53,
              "position": 3.7708333333333335,
              "duration": 0.010416666666666666
            },
            {
              "pitch": 27,
              "velocity": 79,
              "position": 4,
              "duration": 0.010416666666666666
            },
            {
              "pitch": 82,
              "velocity": 72,
              "position": 4,
              "duration": 0.010416666666666666
            },
            {
              "pitch": 70,
              "velocity": 56,
              "position": 4,
              "duration": 0.010416666666666666
            },
            {
              "pitch": 25,
              "velocity": 32,
              "position": 4.270833333333333,
              "duration": 0.010416666666666666
            },
            {
              "pitch": 70,
              "velocity": 23,
              "position": 4.270833333333333,
              "duration": 0.010416666666666666
            },
            {
              "pitch": 27,
              "velocity": 29,
              "position": 4.5,
              "duration": 0.010416666666666666
            },
            {
              "pitch": 70,
              "velocity": 72,
              "position": 4.5,
              "duration": 0.010416666666666666
            },
            {
              "pitch": 25,
              "velocity": 89,
              "position": 4.770833333333333,
              "duration": 0.010416666666666666
            },
            {
              "pitch": 27,
              "velocity": 90,
              "position": 5,
              "duration": 0.010416666666666666
            },
            {
              "pitch": 82,
              "velocity": 72,
              "position": 5,
              "duration": 0.010416666666666666
            },
            {
              "pitch": 70,
              "velocity": 56,
              "position": 5,
              "duration": 0.010416666666666666
            },
            {
              "pitch": 25,
              "velocity": 28,
              "position": 5.270833333333333,
              "duration": 0.010416666666666666
            },
            {
              "pitch": 70,
              "velocity": 23,
              "position": 5.270833333333333,
              "duration": 0.010416666666666666
            },
            {
              "pitch": 27,
              "velocity": 30,
              "position": 5.5,
              "duration": 0.010416666666666666
            },
            {
              "pitch": 70,
              "velocity": 72,
              "position": 5.5,
              "duration": 0.010416666666666666
            },
            {
              "pitch": 25,
              "velocity": 72,
              "position": 5.770833333333333,
              "duration": 0.010416666666666666
            },
            {
              "pitch": 69,
              "velocity": 53,
              "position": 5.770833333333333,
              "duration": 0.010416666666666666
            },
            {
              "pitch": 27,
              "velocity": 83,
              "position": 6,
              "duration": 0.010416666666666666
            },
            {
              "pitch": 82,
              "velocity": 72,
              "position": 6,
              "duration": 0.010416666666666666
            },
            {
              "pitch": 70,
              "velocity": 46,
              "position": 6,
              "duration": 0.010416666666666666
            },
            {
              "pitch": 25,
              "velocity": 32,
              "position": 6.270833333333333,
              "duration": 0.010416666666666666
            },
            {
              "pitch": 70,
              "velocity": 23,
              "position": 6.270833333333333,
              "duration": 0.010416666666666666
            },
            {
              "pitch": 27,
              "velocity": 29,
              "position": 6.5,
              "duration": 0.010416666666666666
            },
            {
              "pitch": 70,
              "velocity": 72,
              "position": 6.5,
              "duration": 0.010416666666666666
            },
            {
              "pitch": 25,
              "velocity": 92,
              "position": 6.770833333333333,
              "duration": 0.010416666666666666
            },
            {
              "pitch": 27,
              "velocity": 72,
              "position": 7,
              "duration": 0.010416666666666666
            },
            {
              "pitch": 82,
              "velocity": 72,
              "position": 7,
              "duration": 0.010416666666666666
            },
            {
              "pitch": 70,
              "velocity": 56,
              "position": 7,
              "duration": 0.010416666666666666
            },
            {
              "pitch": 54,
              "velocity": 114,
              "position": 7,
              "duration": 0.03125
            },
            {
              "pitch": 25,
              "velocity": 59,
              "position": 7.270833333333333,
              "duration": 0.010416666666666666
            },
            {
              "pitch": 27,
              "velocity": 30,
              "position": 7.5,
              "duration": 0.010416666666666666
            },
            {
              "pitch": 70,
              "velocity": 72,
              "position": 7.5,
              "duration": 0.010416666666666666
            },
            {
              "pitch": 25,
              "velocity": 87,
              "position": 7.770833333333333,
              "duration": 0.010416666666666666
            },
            {
              "pitch": 69,
              "velocity": 53,
              "position": 7.770833333333333,
              "duration": 0.010416666666666666
            }
          ]
        },
        "9": {
          "ctab": {
            "srcChannel": 9,
            "name": "MainDrum",
            "accType": "RHYTHM",
            "editable": false,
            "mutedNotes": [],
            "mutedChords": [],
            "autoStart": true,
            "sourceChordNote": 0,
            "sourceChordType": "Maj7",
            "ctb2Low": null,
            "ctb2Main": {
              "ntr": "ROOT_FIXED",
              "ntt": "BYPASS",
              "bassOn": false,
              "chordRootUpperLimit": 6,
              "noteLowLimit": 0,
              "noteHighLimit": 127,
              "rtr": "PITCH_SHIFT"
            },
            "ctb2High": null
          },
          "notes": [
            {
              "pitch": 36,
              "velocity": 84,
              "position": 0,
              "duration": 0.010416666666666666
            },
            {
              "pitch": 42,
              "velocity": 29,
              "position": 0,
              "duration": 0.010416666666666666
            },
            {
              "pitch": 42,
              "velocity": 67,
              "position": 0.2708333333333333,
              "duration": 0.010416666666666666
            },
            {
              "pitch": 44,
              "velocity": 69,
              "position": 0.5,
              "duration": 0.010416666666666666
            },
            {
              "pitch": 42,
              "velocity": 33,
              "position": 1,
              "duration": 0.010416666666666666
            },
            {
              "pitch": 36,
              "velocity": 84,
              "position": 1.5,
              "duration": 0.010416666666666666
            },
            {
              "pitch": 42,
              "velocity": 57,
              "position": 1.5,
              "duration": 0.010416666666666666
            },
            {
              "pitch": 42,
              "velocity": 25,
              "position": 2,
              "duration": 0.010416666666666666
            },
            {
              "pitch": 36,
              "velocity": 82,
              "position": 2.5,
              "duration": 0.010416666666666666
            },
            {
              "pitch": 44,
              "velocity": 69,
              "position": 2.5,
              "duration": 0.010416666666666666
            },
            {
              "pitch": 42,
              "velocity": 39,
              "position": 3,
              "duration": 0.010416666666666666
            },
            {
              "pitch": 42,
              "velocity": 24,
              "position": 3.2708333333333335,
              "duration": 0.010416666666666666
            },
            {
              "pitch": 42,
              "velocity": 55,
              "position": 3.5,
              "duration": 0.010416666666666666
            },
            {
              "pitch": 36,
              "velocity": 84,
              "position": 4,
              "duration": 0.010416666666666666
            },
            {
              "pitch": 42,
              "velocity": 40,
              "position": 4,
              "duration": 0.010416666666666666
            },
            {
              "pitch": 42,
              "velocity": 60,
              "position": 4.270833333333333,
              "duration": 0.010416666666666666
            },
            {
              "pitch": 44,
              "velocity": 69,
              "position": 4.5,
              "duration": 0.010416666666666666
            },
            {
              "pitch": 42,
              "velocity": 27,
              "position": 5,
              "duration": 0.010416666666666666
            },
            {
              "pitch": 42,
              "velocity": 30,
              "position": 5.270833333333333,
              "duration": 0.010416666666666666
            },
            {
              "pitch": 36,
              "velocity": 84,
              "position": 5.5,
              "duration": 0.010416666666666666
            },
            {
              "pitch": 42,
              "velocity": 44,
              "position": 5.5,
              "duration": 0.010416666666666666
            },
            {
              "pitch": 42,
              "velocity": 44,
              "position": 6,
              "duration": 0.010416666666666666
            },
            {
              "pitch": 42,
              "velocity": 49,
              "position": 6.270833333333333,
              "duration": 0.010416666666666666
            },
            {
              "pitch": 36,
              "velocity": 82,
              "position": 6.5,
              "duration": 0.010416666666666666
            },
            {
              "pitch": 44,
              "velocity": 69,
              "position": 6.5,
              "duration": 0.010416666666666666
            },
            {
              "pitch": 42,
              "velocity": 40,
              "position": 7,
              "duration": 0.010416666666666666
            },
            {
              "pitch": 42,
              "velocity": 80,
              "position": 7.270833333333333,
              "duration": 0.010416666666666666
            },
            {
              "pitch": 42,
              "velocity": 52,
              "position": 7.5,
              "duration": 0.010416666666666666
            }
          ]
        },
        "10": {
          "ctab": {
            "srcChannel": 10,
            "name": "Bass",
            "accType": "BASS",
            "editable": false,
            "mutedNotes": [],
            "mutedChords": [],
            "autoStart": false,
            "sourceChordNote": 0,
            "sourceChordType": "Maj7",
            "ctb2Low": null,
            "ctb2Main": {
              "ntr": "ROOT_TRANSPOSITION",
              "ntt": "MELODY",
              "bassOn": true,
              "chordRootUpperLimit": 3,
              "noteLowLimit": 28,
              "noteHighLimit": 127,
              "rtr": "PITCH_SHIFT_TO_ROOT"
            },
            "ctb2High": null
          },
          "notes": [
            {
              "pitch": 24,
              "velocity": 80,
              "position": 0,
              "duration": 0.7395833333333334
            },
            {
              "pitch": 24,
              "velocity": 80,
              "position": 0.75,
              "duration": 0.13125
            },
            {
              "pitch": 24,
              "velocity": 83,
              "position": 1.25,
              "duration": 0.020833333333333332
            },
            {
              "pitch": 24,
              "velocity": 80,
              "position": 1.5,
              "duration": 0.7395833333333334
            },
            {
              "pitch": 24,
              "velocity": 80,
              "position": 2.25,
              "duration": 0.15208333333333332
            },
            {
              "pitch": 24,
              "velocity": 83,
              "position": 2.75,
              "duration": 0.020833333333333332
            },
            {
              "pitch": 24,
              "velocity": 80,
              "position": 3,
              "duration": 0.4895833333333333
            },
            {
              "pitch": 24,
              "velocity": 80,
              "position": 3.5,
              "duration": 0.4895833333333333
            },
            {
              "pitch": 24,
              "velocity": 80,
              "position": 4,
              "duration": 0.7395833333333334
            },
            {
              "pitch": 24,
              "velocity": 80,
              "position": 4.75,
              "duration": 0.19166666666666668
            },
            {
              "pitch": 24,
              "velocity": 83,
              "position": 5.25,
              "duration": 0.020833333333333332
            },
            {
              "pitch": 24,
              "velocity": 80,
              "position": 5.5,
              "duration": 0.7395833333333334
            },
            {
              "pitch": 24,
              "velocity": 80,
              "position": 6.25,
              "duration": 0.17083333333333334
            },
            {
              "pitch": 24,
              "velocity": 83,
              "position": 6.75,
              "duration": 0.020833333333333332
            },
            {
              "pitch": 24,
              "velocity": 80,
              "position": 7,
              "duration": 0.4895833333333333
            },
            {
              "pitch": 24,
              "velocity": 68,
              "position": 7.5,
              "duration": 0.4895833333333333
            }
          ]
        },
        "11": {
          "ctab": {
            "srcChannel": 11,
            "name": "12stGtr",
            "accType": "CHORD1",
            "editable": false,
            "mutedNotes": [],
            "mutedChords": [],
            "autoStart": false,
            "sourceChordNote": 0,
            "sourceChordType": "Maj7",
            "ctb2Low": null,
            "ctb2Main": {
              "ntr": "ROOT_FIXED",
              "ntt": "CHORD",
              "bassOn": false,
              "chordRootUpperLimit": 7,
              "noteLowLimit": 50,
              "noteHighLimit": 127,
              "rtr": "PITCH_SHIFT"
            },
            "ctb2High": null
          },
          "notes": [
            {
              "pitch": 55,
              "velocity": 86,
              "position": 0,
              "duration": 0.7395833333333334
            },
            {
              "pitch": 67,
              "velocity": 95,
              "position": 0.03125,
              "duration": 0.7083333333333334
            },
            {
              "pitch": 64,
              "velocity": 95,
              "position": 0.020833333333333332,
              "duration": 0.71875
            },
            {
              "pitch": 59,
              "velocity": 95,
              "position": 0.010416666666666666,
              "duration": 0.7395833333333334
            },
            {
              "pitch": 67,
              "velocity": 93,
              "position": 0.75,
              "duration": 0.21875
            },
            {
              "pitch": 55,
              "velocity": 93,
              "position": 0.76875,
              "duration": 0.2
            },
            {
              "pitch": 59,
              "velocity": 93,
              "position": 0.7625,
              "duration": 0.20625
            },
            {
              "pitch": 64,
              "velocity": 93,
              "position": 0.75625,
              "duration": 0.2125
            },
            {
              "pitch": 55,
              "velocity": 50,
              "position": 1.25,
              "duration": 0.23958333333333334
            },
            {
              "pitch": 64,
              "velocity": 50,
              "position": 1.25,
              "duration": 0.23958333333333334
            },
            {
              "pitch": 59,
              "velocity": 50,
              "position": 1.25,
              "duration": 0.23958333333333334
            },
            {
              "pitch": 55,
              "velocity": 82,
              "position": 1.5,
              "duration": 0.7395833333333334
            },
            {
              "pitch": 64,
              "velocity": 95,
              "position": 1.5104166666666667,
              "duration": 0.7291666666666666
            },
            {
              "pitch": 67,
              "velocity": 95,
              "position": 1.5145833333333334,
              "duration": 0.7270833333333333
            },
            {
              "pitch": 59,
              "velocity": 95,
              "position": 1.50625,
              "duration": 0.7395833333333334
            },
            {
              "pitch": 67,
              "velocity": 90,
              "position": 2.25,
              "duration": 0.25
            },
            {
              "pitch": 55,
              "velocity": 90,
              "position": 2.2645833333333334,
              "duration": 0.23541666666666666
            },
            {
              "pitch": 59,
              "velocity": 93,
              "position": 2.2604166666666665,
              "duration": 0.23958333333333334
            },
            {
              "pitch": 64,
              "velocity": 93,
              "position": 2.254166666666667,
              "duration": 0.24583333333333332
            },
            {
              "pitch": 55,
              "velocity": 50,
              "position": 2.75,
              "duration": 0.23958333333333334
            },
            {
              "pitch": 64,
              "velocity": 50,
              "position": 2.75,
              "duration": 0.23958333333333334
            },
            {
              "pitch": 59,
              "velocity": 50,
              "position": 2.75,
              "duration": 0.23958333333333334
            },
            {
              "pitch": 55,
              "velocity": 83,
              "position": 3,
              "duration": 0.9895833333333334
            },
            {
              "pitch": 67,
              "velocity": 95,
              "position": 3.03125,
              "duration": 0.9583333333333334
            },
            {
              "pitch": 64,
              "velocity": 92,
              "position": 3.0208333333333335,
              "duration": 0.96875
            },
            {
              "pitch": 59,
              "velocity": 89,
              "position": 3.0104166666666665,
              "duration": 0.9895833333333334
            },
            {
              "pitch": 55,
              "velocity": 86,
              "position": 4,
              "duration": 0.7395833333333334
            },
            {
              "pitch": 67,
              "velocity": 95,
              "position": 4.03125,
              "duration": 0.7083333333333334
            },
            {
              "pitch": 64,
              "velocity": 95,
              "position": 4.020833333333333,
              "duration": 0.71875
            },
            {
              "pitch": 59,
              "velocity": 95,
              "position": 4.010416666666667,
              "duration": 0.7395833333333334
            },
            {
              "pitch": 67,
              "velocity": 93,
              "position": 4.75,
              "duration": 0.21875
            },
            {
              "pitch": 55,
              "velocity": 93,
              "position": 4.76875,
              "duration": 0.2
            },
            {
              "pitch": 59,
              "velocity": 93,
              "position": 4.7625,
              "duration": 0.20625
            },
            {
              "pitch": 64,
              "velocity": 93,
              "position": 4.75625,
              "duration": 0.2125
            },
            {
              "pitch": 55,
              "velocity": 50,
              "position": 5.25,
              "duration": 0.23958333333333334
            },
            {
              "pitch": 64,
              "velocity": 50,
              "position": 5.25,
              "duration": 0.23958333333333334
            },
            {
              "pitch": 59,
              "velocity": 50,
              "position": 5.25,
              "duration": 0.23958333333333334
            },
            {
              "pitch": 55,
              "velocity": 82,
              "position": 5.5,
              "duration": 0.7395833333333334
            },
            {
              "pitch": 64,
              "velocity": 95,
              "position": 5.510416666666667,
              "duration": 0.7291666666666666
            },
            {
              "pitch": 67,
              "velocity": 95,
              "position": 5.514583333333333,
              "duration": 0.7270833333333333
            },
            {
              "pitch": 59,
              "velocity": 95,
              "position": 5.50625,
              "duration": 0.7395833333333334
            },
            {
              "pitch": 67,
              "velocity": 90,
              "position": 6.25,
              "duration": 0.25
            },
            {
              "pitch": 55,
              "velocity": 90,
              "position": 6.264583333333333,
              "duration": 0.23541666666666666
            },
            {
              "pitch": 59,
              "velocity": 93,
              "position": 6.260416666666667,
              "duration": 0.23958333333333334
            },
            {
              "pitch": 64,
              "velocity": 93,
              "position": 6.254166666666666,
              "duration": 0.24583333333333332
            },
            {
              "pitch": 55,
              "velocity": 50,
              "position": 6.75,
              "duration": 0.23958333333333334
            },
            {
              "pitch": 64,
              "velocity": 50,
              "position": 6.75,
              "duration": 0.23958333333333334
            },
            {
              "pitch": 59,
              "velocity": 50,
              "position": 6.75,
              "duration": 0.23958333333333334
            },
            {
              "pitch": 55,
              "velocity": 83,
              "position": 7,
              "duration": 0.4791666666666667
            },
            {
              "pitch": 59,
              "velocity": 89,
              "position": 7.010416666666667,
              "duration": 0.46875
            },
            {
              "pitch": 64,
              "velocity": 92,
              "position": 7.020833333333333,
              "duration": 0.46875
            },
            {
              "pitch": 55,
              "velocity": 82,
              "position": 7.5,
              "duration": 0.4791666666666667
            },
            {
              "pitch": 64,
              "velocity": 70,
              "position": 7.5,
              "duration": 0.4791666666666667
            },
            {
              "pitch": 59,
              "velocity": 70,
              "position": 7.5,
              "duration": 0.4895833333333333
            },
            {
              "pitch": 67,
              "velocity": 95,
              "position": 7.03125,
              "duration": 0.9583333333333334
            }
          ]
        },
        "12": {
          "ctab": {
            "srcChannel": 12,
            "name": "MuteGtr",
            "accType": "CHORD2",
            "editable": false,
            "mutedNotes": [],
            "mutedChords": [],
            "autoStart": false,
            "sourceChordNote": 0,
            "sourceChordType": "min7(11)",
            "ctb2Low": null,
            "ctb2Main": {
              "ntr": "ROOT_FIXED",
              "ntt": "CHORD",
              "bassOn": false,
              "chordRootUpperLimit": 7,
              "noteLowLimit": 50,
              "noteHighLimit": 127,
              "rtr": "PITCH_SHIFT"
            },
            "ctb2High": null
          },
          "notes": [
            {
              "pitch": 48,
              "velocity": 78,
              "position": 0.75,
              "duration": 0.20833333333333334
            },
            {
              "pitch": 48,
              "velocity": 78,
              "position": 1.25,
              "duration": 0.22083333333333333
            },
            {
              "pitch": 48,
              "velocity": 32,
              "position": 1.75,
              "duration": 0.24166666666666667
            },
            {
              "pitch": 48,
              "velocity": 78,
              "position": 2,
              "duration": 0.24166666666666667
            },
            {
              "pitch": 48,
              "velocity": 27,
              "position": 2.25,
              "duration": 0.13958333333333334
            },
            {
              "pitch": 48,
              "velocity": 78,
              "position": 2.5,
              "duration": 0.49166666666666664
            },
            {
              "pitch": 48,
              "velocity": 76,
              "position": 3,
              "duration": 0.2604166666666667
            },
            {
              "pitch": 53,
              "velocity": 78,
              "position": 4.75,
              "duration": 0.20833333333333334
            },
            {
              "pitch": 53,
              "velocity": 78,
              "position": 5.25,
              "duration": 0.22083333333333333
            },
            {
              "pitch": 53,
              "velocity": 32,
              "position": 5.75,
              "duration": 0.24166666666666667
            },
            {
              "pitch": 53,
              "velocity": 78,
              "position": 6,
              "duration": 0.24166666666666667
            },
            {
              "pitch": 53,
              "velocity": 27,
              "position": 6.25,
              "duration": 0.13958333333333334
            },
            {
              "pitch": 53,
              "velocity": 78,
              "position": 6.5,
              "duration": 0.49166666666666664
            },
            {
              "pitch": 53,
              "velocity": 77,
              "position": 7,
              "duration": 0.2604166666666667
            }
          ]
        },
        "13": {
          "ctab": {
            "srcChannel": 13,
            "name": "Strings",
            "accType": "PAD",
            "editable": false,
            "mutedNotes": [],
            "mutedChords": [],
            "autoStart": false,
            "sourceChordNote": 0,
            "sourceChordType": "Maj7",
            "ctb2Low": null,
            "ctb2Main": {
              "ntr": "ROOT_FIXED",
              "ntt": "CHORD",
              "bassOn": false,
              "chordRootUpperLimit": 7,
              "noteLowLimit": 0,
              "noteHighLimit": 127,
              "rtr": "PITCH_SHIFT"
            },
            "ctb2High": null
          },
          "notes": [
            {
              "pitch": 55,
              "velocity": 40,
              "position": 0,
              "duration": 7.989583333333333
            },
            {
              "pitch": 64,
              "velocity": 40,
              "position": 0,
              "duration": 7.989583333333333
            },
            {
              "pitch": 59,
              "velocity": 40,
              "position": 0,
              "duration": 7.989583333333333
            }
          ]
        },
        "14": {
          "ctab": {
            "srcChannel": 14,
            "name": "add GTR",
            "accType": "PHRASE2",
            "editable": false,
            "mutedNotes": [],
            "mutedChords": [],
            "autoStart": false,
            "sourceChordNote": 0,
            "sourceChordType": "Maj7",
            "ctb2Low": null,
            "ctb2Main": {
              "ntr": "ROOT_FIXED",
              "ntt": "CHORD",
              "bassOn": false,
              "chordRootUpperLimit": 7,
              "noteLowLimit": 40,
              "noteHighLimit": 127,
              "rtr": "PITCH_SHIFT"
            },
            "ctb2High": null
          },
          "notes": [
            {
              "pitch": 64,
              "velocity": 118,
              "position": 0.03125,
              "duration": 0.7083333333333334
            },
            {
              "pitch": 59,
              "velocity": 107,
              "position": 0.020833333333333332,
              "duration": 0.7395833333333334
            },
            {
              "pitch": 64,
              "velocity": 107,
              "position": 0.75,
              "duration": 0.33958333333333335
            },
            {
              "pitch": 55,
              "velocity": 107,
              "position": 0.010416666666666666,
              "duration": 1.0895833333333333
            },
            {
              "pitch": 59,
              "velocity": 107,
              "position": 0.78125,
              "duration": 0.33958333333333335
            },
            {
              "pitch": 55,
              "velocity": 107,
              "position": 1.53125,
              "duration": 0.7395833333333334
            },
            {
              "pitch": 64,
              "velocity": 107,
              "position": 1.5104166666666667,
              "duration": 1.0895833333333333
            },
            {
              "pitch": 55,
              "velocity": 107,
              "position": 2.28125,
              "duration": 0.33958333333333335
            },
            {
              "pitch": 59,
              "velocity": 107,
              "position": 1.5208333333333333,
              "duration": 1.1
            },
            {
              "pitch": 64,
              "velocity": 107,
              "position": 3.03125,
              "duration": 0.9583333333333334
            },
            {
              "pitch": 59,
              "velocity": 107,
              "position": 3.0208333333333335,
              "duration": 0.9708333333333333
            },
            {
              "pitch": 55,
              "velocity": 107,
              "position": 3.0104166666666665,
              "duration": 0.9895833333333334
            },
            {
              "pitch": 59,
              "velocity": 109,
              "position": 4,
              "duration": 0.7395833333333334
            },
            {
              "pitch": 64,
              "velocity": 116,
              "position": 4,
              "duration": 1.0895833333333333
            },
            {
              "pitch": 59,
              "velocity": 107,
              "position": 4.75,
              "duration": 0.33958333333333335
            },
            {
              "pitch": 55,
              "velocity": 107,
              "position": 4.010416666666667,
              "duration": 1.0895833333333333
            },
            {
              "pitch": 64,
              "velocity": 107,
              "position": 5.510416666666667,
              "duration": 0.7291666666666666
            },
            {
              "pitch": 55,
              "velocity": 107,
              "position": 5.520833333333333,
              "duration": 0.7395833333333334
            },
            {
              "pitch": 64,
              "velocity": 107,
              "position": 6.25,
              "duration": 0.33958333333333335
            },
            {
              "pitch": 55,
              "velocity": 107,
              "position": 6.28125,
              "duration": 0.33958333333333335
            },
            {
              "pitch": 59,
              "velocity": 107,
              "position": 5.53125,
              "duration": 1.0895833333333333
            },
            {
              "pitch": 64,
              "velocity": 107,
              "position": 7.020833333333333,
              "duration": 0.96875
            },
            {
              "pitch": 59,
              "velocity": 107,
              "position": 7.03125,
              "duration": 0.9583333333333334
            },
            {
              "pitch": 55,
              "velocity": 107,
              "position": 7.03125,
              "duration": 0.9583333333333334
            }
          ]
        },
        "15": {
          "ctab": {
            "srcChannel": 15,
            "name": "Egtr",
            "accType": "PHRASE1",
            "editable": false,
            "mutedNotes": [],
            "mutedChords": [],
            "autoStart": false,
            "sourceChordNote": 0,
            "sourceChordType": "min7(11)",
            "ctb2Low": null,
            "ctb2Main": {
              "ntr": "ROOT_FIXED",
              "ntt": "CHORD",
              "bassOn": false,
              "chordRootUpperLimit": 7,
              "noteLowLimit": 50,
              "noteHighLimit": 127,
              "rtr": "PITCH_SHIFT"
            },
            "ctb2High": null
          },
          "notes": [
            {
              "pitch": 55,
              "velocity": 68,
              "position": 0,
              "duration": 1.2416666666666667
            },
            {
              "pitch": 60,
              "velocity": 68,
              "position": 0.5,
              "duration": 1.2416666666666667
            },
            {
              "pitch": 67,
              "velocity": 68,
              "position": 0.75,
              "duration": 1.4916666666666667
            },
            {
              "pitch": 55,
              "velocity": 68,
              "position": 1.25,
              "duration": 1.7416666666666667
            },
            {
              "pitch": 60,
              "velocity": 67,
              "position": 1.75,
              "duration": 2.7416666666666667
            },
            {
              "pitch": 67,
              "velocity": 68,
              "position": 2.25,
              "duration": 2.4916666666666667
            },
            {
              "pitch": 55,
              "velocity": 68,
              "position": 3,
              "duration": 2.2416666666666667
            },
            {
              "pitch": 60,
              "velocity": 68,
              "position": 4.5,
              "duration": 1.2416666666666667
            },
            {
              "pitch": 67,
              "velocity": 68,
              "position": 4.75,
              "duration": 1.4916666666666667
            },
            {
              "pitch": 67,
              "velocity": 68,
              "position": 6.25,
              "duration": 1.7291666666666667
            },
            {
              "pitch": 55,
              "velocity": 68,
              "position": 5.25,
              "duration": 2.73125
            },
            {
              "pitch": 60,
              "velocity": 68,
              "position": 5.75,
              "duration": 2.2395833333333335
            }
          ]
        }
      }
    },
    "Main_C": {
      "type": "Main_C",
      "sizeInBeats": 16,
      "channels": {
        "0": {
          "ctab": {
            "srcChannel": 0,
            "name": "CC_Crash",
            "accType": "RHYTHM",
            "editable": false,
            "mutedNotes": [],
            "mutedChords": [
              "1+2+5",
              "sus4",
              "1+5",
              "1+8",
              "7aug",
              "Maj7aug",
              "7(#9)",
              "7(b13)",
              "7(b9)",
              "7(13)",
              "7#11",
              "7(9)",
              "7b5",
              "7sus4",
              "7th",
              "dim7",
              "dim",
              "minMaj7(9)",
              "minMaj7",
              "min7(11)",
              "min7(9)",
              "min(9)",
              "m7b5",
              "min7",
              "min6",
              "min",
              "aug",
              "Maj6(9)",
              "Maj7(9)",
              "Maj(9)",
              "Maj7#11",
              "Maj7",
              "Maj6",
              "Maj"
            ],
            "autoStart": true,
            "sourceChordNote": 0,
            "sourceChordType": "Maj",
            "ctb2Low": null,
            "ctb2Main": {
              "ntr": "ROOT_FIXED",
              "ntt": "BYPASS",
              "bassOn": false,
              "chordRootUpperLimit": 0,
              "noteLowLimit": 0,
              "noteHighLimit": 127,
              "rtr": "RETRIGGER"
            },
            "ctb2High": null
          },
          "notes": []
        },
        "1": {
          "ctab": {
            "srcChannel": 1,
            "name": "12st SFX",
            "accType": "CHORD1",
            "editable": false,
            "mutedNotes": [],
            "mutedChords": [],
            "autoStart": false,
            "sourceChordNote": 0,
            "sourceChordType": "Maj7",
            "ctb2Low": null,
            "ctb2Main": {
              "ntr": "ROOT_FIXED",
              "ntt": "BYPASS",
              "bassOn": false,
              "chordRootUpperLimit": 7,
              "noteLowLimit": 0,
              "noteHighLimit": 127,
              "rtr": "PITCH_SHIFT"
            },
            "ctb2High": null
          },
          "notes": []
        },
        "3": {
          "ctab": {
            "srcChannel": 3,
            "name": "12st rt",
            "accType": "CHORD1",
            "editable": false,
            "mutedNotes": [],
            "mutedChords": [
              "1+2+5",
              "sus4",
              "1+5",
              "1+8",
              "Maj7aug",
              "dim",
              "minMaj7(9)",
              "minMaj7",
              "min6",
              "min",
              "aug",
              "Maj7(9)",
              "Maj7#11",
              "Maj7",
              "Maj6",
              "Maj"
            ],
            "autoStart": false,
            "sourceChordNote": 0,
            "sourceChordType": "Maj7",
            "ctb2Low": null,
            "ctb2Main": {
              "ntr": "ROOT_TRANSPOSITION",
              "ntt": "MELODY",
              "bassOn": false,
              "chordRootUpperLimit": 6,
              "noteLowLimit": 0,
              "noteHighLimit": 127,
              "rtr": "PITCH_SHIFT"
            },
            "ctb2High": null
          },
          "notes": []
        },
        "5": {
          "ctab": {
            "srcChannel": 5,
            "name": "Strg rt",
            "accType": "PAD",
            "editable": false,
            "mutedNotes": [],
            "mutedChords": [
              "1+2+5",
              "sus4",
              "1+5",
              "1+8",
              "Maj7aug",
              "dim",
              "minMaj7(9)",
              "minMaj7",
              "min6",
              "min",
              "aug",
              "Maj7(9)",
              "Maj7#11",
              "Maj7",
              "Maj6",
              "Maj"
            ],
            "autoStart": false,
            "sourceChordNote": 0,
            "sourceChordType": "Maj7",
            "ctb2Low": null,
            "ctb2Main": {
              "ntr": "ROOT_TRANSPOSITION",
              "ntt": "MELODY",
              "bassOn": false,
              "chordRootUpperLimit": 6,
              "noteLowLimit": 0,
              "noteHighLimit": 127,
              "rtr": "PITCH_SHIFT"
            },
            "ctb2High": null
          },
          "notes": []
        },
        "8": {
          "ctab": {
            "srcChannel": 8,
            "name": "AddDrum",
            "accType": "SUBRHYTHM",
            "editable": false,
            "mutedNotes": [],
            "mutedChords": [],
            "autoStart": true,
            "sourceChordNote": 0,
            "sourceChordType": "Maj7",
            "ctb2Low": null,
            "ctb2Main": {
              "ntr": "ROOT_FIXED",
              "ntt": "BYPASS",
              "bassOn": false,
              "chordRootUpperLimit": 6,
              "noteLowLimit": 0,
              "noteHighLimit": 127,
              "rtr": "PITCH_SHIFT"
            },
            "ctb2High": null
          },
          "notes": [
            {
              "pitch": 27,
              "velocity": 90,
              "position": 0,
              "duration": 0.010416666666666666
            },
            {
              "pitch": 82,
              "velocity": 72,
              "position": 0,
              "duration": 0.010416666666666666
            },
            {
              "pitch": 70,
              "velocity": 71,
              "position": 0,
              "duration": 0.010416666666666666
            },
            {
              "pitch": 25,
              "velocity": 34,
              "position": 0.25,
              "duration": 0.010416666666666666
            },
            {
              "pitch": 70,
              "velocity": 26,
              "position": 0.25,
              "duration": 0.010416666666666666
            },
            {
              "pitch": 70,
              "velocity": 43,
              "position": 0.2708333333333333,
              "duration": 0.010416666666666666
            },
            {
              "pitch": 27,
              "velocity": 31,
              "position": 0.5,
              "duration": 0.010416666666666666
            },
            {
              "pitch": 82,
              "velocity": 40,
              "position": 0.5,
              "duration": 0.010416666666666666
            },
            {
              "pitch": 70,
              "velocity": 72,
              "position": 0.5,
              "duration": 0.010416666666666666
            },
            {
              "pitch": 25,
              "velocity": 91,
              "position": 0.75,
              "duration": 0.010416666666666666
            },
            {
              "pitch": 70,
              "velocity": 23,
              "position": 0.75,
              "duration": 0.010416666666666666
            },
            {
              "pitch": 70,
              "velocity": 43,
              "position": 0.7708333333333334,
              "duration": 0.010416666666666666
            },
            {
              "pitch": 27,
              "velocity": 90,
              "position": 1,
              "duration": 0.010416666666666666
            },
            {
              "pitch": 82,
              "velocity": 72,
              "position": 1,
              "duration": 0.010416666666666666
            },
            {
              "pitch": 70,
              "velocity": 71,
              "position": 1,
              "duration": 0.010416666666666666
            },
            {
              "pitch": 54,
              "velocity": 110,
              "position": 1,
              "duration": 0.020833333333333332
            },
            {
              "pitch": 25,
              "velocity": 30,
              "position": 1.25,
              "duration": 0.010416666666666666
            },
            {
              "pitch": 70,
              "velocity": 24,
              "position": 1.25,
              "duration": 0.010416666666666666
            },
            {
              "pitch": 70,
              "velocity": 43,
              "position": 1.2708333333333333,
              "duration": 0.010416666666666666
            },
            {
              "pitch": 27,
              "velocity": 32,
              "position": 1.5,
              "duration": 0.010416666666666666
            },
            {
              "pitch": 82,
              "velocity": 40,
              "position": 1.5,
              "duration": 0.010416666666666666
            },
            {
              "pitch": 70,
              "velocity": 72,
              "position": 1.5,
              "duration": 0.010416666666666666
            },
            {
              "pitch": 25,
              "velocity": 89,
              "position": 1.75,
              "duration": 0.010416666666666666
            },
            {
              "pitch": 70,
              "velocity": 23,
              "position": 1.75,
              "duration": 0.010416666666666666
            },
            {
              "pitch": 69,
              "velocity": 57,
              "position": 1.75,
              "duration": 0.010416666666666666
            },
            {
              "pitch": 70,
              "velocity": 43,
              "position": 1.7708333333333333,
              "duration": 0.010416666666666666
            },
            {
              "pitch": 27,
              "velocity": 34,
              "position": 2,
              "duration": 0.010416666666666666
            },
            {
              "pitch": 82,
              "velocity": 72,
              "position": 2,
              "duration": 0.010416666666666666
            },
            {
              "pitch": 70,
              "velocity": 61,
              "position": 2,
              "duration": 0.010416666666666666
            },
            {
              "pitch": 25,
              "velocity": 93,
              "position": 2.25,
              "duration": 0.010416666666666666
            },
            {
              "pitch": 70,
              "velocity": 25,
              "position": 2.25,
              "duration": 0.010416666666666666
            },
            {
              "pitch": 70,
              "velocity": 43,
              "position": 2.2708333333333335,
              "duration": 0.010416666666666666
            },
            {
              "pitch": 27,
              "velocity": 36,
              "position": 2.5,
              "duration": 0.010416666666666666
            },
            {
              "pitch": 82,
              "velocity": 40,
              "position": 2.5,
              "duration": 0.010416666666666666
            },
            {
              "pitch": 70,
              "velocity": 72,
              "position": 2.5,
              "duration": 0.010416666666666666
            },
            {
              "pitch": 25,
              "velocity": 40,
              "position": 2.75,
              "duration": 0.010416666666666666
            },
            {
              "pitch": 70,
              "velocity": 26,
              "position": 2.75,
              "duration": 0.010416666666666666
            },
            {
              "pitch": 70,
              "velocity": 43,
              "position": 2.7708333333333335,
              "duration": 0.010416666666666666
            },
            {
              "pitch": 27,
              "velocity": 90,
              "position": 3,
              "duration": 0.010416666666666666
            },
            {
              "pitch": 82,
              "velocity": 72,
              "position": 3,
              "duration": 0.010416666666666666
            },
            {
              "pitch": 70,
              "velocity": 71,
              "position": 3,
              "duration": 0.010416666666666666
            },
            {
              "pitch": 54,
              "velocity": 110,
              "position": 3,
              "duration": 0.020833333333333332
            },
            {
              "pitch": 25,
              "velocity": 36,
              "position": 3.25,
              "duration": 0.010416666666666666
            },
            {
              "pitch": 70,
              "velocity": 25,
              "position": 3.25,
              "duration": 0.010416666666666666
            },
            {
              "pitch": 70,
              "velocity": 43,
              "position": 3.2708333333333335,
              "duration": 0.010416666666666666
            },
            {
              "pitch": 27,
              "velocity": 32,
              "position": 3.5,
              "duration": 0.010416666666666666
            },
            {
              "pitch": 82,
              "velocity": 40,
              "position": 3.5,
              "duration": 0.010416666666666666
            },
            {
              "pitch": 70,
              "velocity": 72,
              "position": 3.5,
              "duration": 0.010416666666666666
            },
            {
              "pitch": 25,
              "velocity": 65,
              "position": 3.75,
              "duration": 0.010416666666666666
            },
            {
              "pitch": 70,
              "velocity": 27,
              "position": 3.75,
              "duration": 0.010416666666666666
            },
            {
              "pitch": 70,
              "velocity": 43,
              "position": 3.7708333333333335,
              "duration": 0.010416666666666666
            },
            {
              "pitch": 27,
              "velocity": 90,
              "position": 4,
              "duration": 0.010416666666666666
            },
            {
              "pitch": 82,
              "velocity": 72,
              "position": 4,
              "duration": 0.010416666666666666
            },
            {
              "pitch": 70,
              "velocity": 71,
              "position": 4,
              "duration": 0.010416666666666666
            },
            {
              "pitch": 25,
              "velocity": 33,
              "position": 4.25,
              "duration": 0.010416666666666666
            },
            {
              "pitch": 70,
              "velocity": 26,
              "position": 4.25,
              "duration": 0.010416666666666666
            },
            {
              "pitch": 70,
              "velocity": 43,
              "position": 4.270833333333333,
              "duration": 0.010416666666666666
            },
            {
              "pitch": 27,
              "velocity": 35,
              "position": 4.5,
              "duration": 0.010416666666666666
            },
            {
              "pitch": 82,
              "velocity": 40,
              "position": 4.5,
              "duration": 0.010416666666666666
            },
            {
              "pitch": 70,
              "velocity": 72,
              "position": 4.5,
              "duration": 0.010416666666666666
            },
            {
              "pitch": 25,
              "velocity": 53,
              "position": 4.75,
              "duration": 0.010416666666666666
            },
            {
              "pitch": 70,
              "velocity": 23,
              "position": 4.75,
              "duration": 0.010416666666666666
            },
            {
              "pitch": 70,
              "velocity": 43,
              "position": 4.770833333333333,
              "duration": 0.010416666666666666
            },
            {
              "pitch": 27,
              "velocity": 90,
              "position": 5,
              "duration": 0.010416666666666666
            },
            {
              "pitch": 82,
              "velocity": 72,
              "position": 5,
              "duration": 0.010416666666666666
            },
            {
              "pitch": 70,
              "velocity": 71,
              "position": 5,
              "duration": 0.010416666666666666
            },
            {
              "pitch": 54,
              "velocity": 110,
              "position": 5,
              "duration": 0.020833333333333332
            },
            {
              "pitch": 25,
              "velocity": 35,
              "position": 5.25,
              "duration": 0.010416666666666666
            },
            {
              "pitch": 70,
              "velocity": 24,
              "position": 5.25,
              "duration": 0.010416666666666666
            },
            {
              "pitch": 70,
              "velocity": 43,
              "position": 5.270833333333333,
              "duration": 0.010416666666666666
            },
            {
              "pitch": 27,
              "velocity": 40,
              "position": 5.5,
              "duration": 0.010416666666666666
            },
            {
              "pitch": 82,
              "velocity": 40,
              "position": 5.5,
              "duration": 0.010416666666666666
            },
            {
              "pitch": 70,
              "velocity": 72,
              "position": 5.5,
              "duration": 0.010416666666666666
            },
            {
              "pitch": 69,
              "velocity": 35,
              "position": 5.5,
              "duration": 0.010416666666666666
            },
            {
              "pitch": 25,
              "velocity": 94,
              "position": 5.75,
              "duration": 0.010416666666666666
            },
            {
              "pitch": 70,
              "velocity": 23,
              "position": 5.75,
              "duration": 0.010416666666666666
            },
            {
              "pitch": 69,
              "velocity": 67,
              "position": 5.75,
              "duration": 0.010416666666666666
            },
            {
              "pitch": 70,
              "velocity": 43,
              "position": 5.770833333333333,
              "duration": 0.010416666666666666
            },
            {
              "pitch": 27,
              "velocity": 33,
              "position": 6,
              "duration": 0.010416666666666666
            },
            {
              "pitch": 82,
              "velocity": 72,
              "position": 6,
              "duration": 0.010416666666666666
            },
            {
              "pitch": 70,
              "velocity": 61,
              "position": 6,
              "duration": 0.010416666666666666
            },
            {
              "pitch": 25,
              "velocity": 86,
              "position": 6.25,
              "duration": 0.010416666666666666
            },
            {
              "pitch": 70,
              "velocity": 25,
              "position": 6.25,
              "duration": 0.010416666666666666
            },
            {
              "pitch": 70,
              "velocity": 43,
              "position": 6.270833333333333,
              "duration": 0.010416666666666666
            },
            {
              "pitch": 27,
              "velocity": 32,
              "position": 6.5,
              "duration": 0.010416666666666666
            },
            {
              "pitch": 82,
              "velocity": 40,
              "position": 6.5,
              "duration": 0.010416666666666666
            },
            {
              "pitch": 70,
              "velocity": 72,
              "position": 6.5,
              "duration": 0.010416666666666666
            },
            {
              "pitch": 25,
              "velocity": 50,
              "position": 6.75,
              "duration": 0.010416666666666666
            },
            {
              "pitch": 70,
              "velocity": 26,
              "position": 6.75,
              "duration": 0.010416666666666666
            },
            {
              "pitch": 70,
              "velocity": 43,
              "position": 6.770833333333333,
              "duration": 0.010416666666666666
            },
            {
              "pitch": 27,
              "velocity": 90,
              "position": 7,
              "duration": 0.010416666666666666
            },
            {
              "pitch": 82,
              "velocity": 72,
              "position": 7,
              "duration": 0.010416666666666666
            },
            {
              "pitch": 70,
              "velocity": 71,
              "position": 7,
              "duration": 0.010416666666666666
            },
            {
              "pitch": 54,
              "velocity": 110,
              "position": 7,
              "duration": 0.020833333333333332
            },
            {
              "pitch": 25,
              "velocity": 38,
              "position": 7.25,
              "duration": 0.010416666666666666
            },
            {
              "pitch": 70,
              "velocity": 25,
              "position": 7.25,
              "duration": 0.010416666666666666
            },
            {
              "pitch": 70,
              "velocity": 43,
              "position": 7.270833333333333,
              "duration": 0.010416666666666666
            },
            {
              "pitch": 27,
              "velocity": 36,
              "position": 7.5,
              "duration": 0.010416666666666666
            },
            {
              "pitch": 82,
              "velocity": 40,
              "position": 7.5,
              "duration": 0.010416666666666666
            },
            {
              "pitch": 70,
              "velocity": 72,
              "position": 7.5,
              "duration": 0.010416666666666666
            },
            {
              "pitch": 25,
              "velocity": 36,
              "position": 7.75,
              "duration": 0.010416666666666666
            },
            {
              "pitch": 70,
              "velocity": 27,
              "position": 7.75,
              "duration": 0.010416666666666666
            },
            {
              "pitch": 70,
              "velocity": 43,
              "position": 7.770833333333333,
              "duration": 0.010416666666666666
            },
            {
              "pitch": 27,
              "velocity": 90,
              "position": 8,
              "duration": 0.010416666666666666
            },
            {
              "pitch": 82,
              "velocity": 72,
              "position": 8,
              "duration": 0.010416666666666666
            },
            {
              "pitch": 70,
              "velocity": 71,
              "position": 8,
              "duration": 0.010416666666666666
            },
            {
              "pitch": 25,
              "velocity": 34,
              "position": 8.25,
              "duration": 0.010416666666666666
            },
            {
              "pitch": 70,
              "velocity": 26,
              "position": 8.25,
              "duration": 0.010416666666666666
            },
            {
              "pitch": 70,
              "velocity": 43,
              "position": 8.270833333333334,
              "duration": 0.010416666666666666
            },
            {
              "pitch": 27,
              "velocity": 31,
              "position": 8.5,
              "duration": 0.010416666666666666
            },
            {
              "pitch": 82,
              "velocity": 40,
              "position": 8.5,
              "duration": 0.010416666666666666
            },
            {
              "pitch": 70,
              "velocity": 72,
              "position": 8.5,
              "duration": 0.010416666666666666
            },
            {
              "pitch": 25,
              "velocity": 91,
              "position": 8.75,
              "duration": 0.010416666666666666
            },
            {
              "pitch": 70,
              "velocity": 23,
              "position": 8.75,
              "duration": 0.010416666666666666
            },
            {
              "pitch": 70,
              "velocity": 43,
              "position": 8.770833333333334,
              "duration": 0.010416666666666666
            },
            {
              "pitch": 27,
              "velocity": 90,
              "position": 9,
              "duration": 0.010416666666666666
            },
            {
              "pitch": 82,
              "velocity": 72,
              "position": 9,
              "duration": 0.010416666666666666
            },
            {
              "pitch": 70,
              "velocity": 71,
              "position": 9,
              "duration": 0.010416666666666666
            },
            {
              "pitch": 54,
              "velocity": 110,
              "position": 9,
              "duration": 0.020833333333333332
            },
            {
              "pitch": 25,
              "velocity": 30,
              "position": 9.25,
              "duration": 0.010416666666666666
            },
            {
              "pitch": 70,
              "velocity": 24,
              "position": 9.25,
              "duration": 0.010416666666666666
            },
            {
              "pitch": 70,
              "velocity": 43,
              "position": 9.270833333333334,
              "duration": 0.010416666666666666
            },
            {
              "pitch": 27,
              "velocity": 32,
              "position": 9.5,
              "duration": 0.010416666666666666
            },
            {
              "pitch": 82,
              "velocity": 40,
              "position": 9.5,
              "duration": 0.010416666666666666
            },
            {
              "pitch": 70,
              "velocity": 72,
              "position": 9.5,
              "duration": 0.010416666666666666
            },
            {
              "pitch": 25,
              "velocity": 89,
              "position": 9.75,
              "duration": 0.010416666666666666
            },
            {
              "pitch": 70,
              "velocity": 23,
              "position": 9.75,
              "duration": 0.010416666666666666
            },
            {
              "pitch": 69,
              "velocity": 57,
              "position": 9.75,
              "duration": 0.010416666666666666
            },
            {
              "pitch": 70,
              "velocity": 43,
              "position": 9.770833333333334,
              "duration": 0.010416666666666666
            },
            {
              "pitch": 27,
              "velocity": 34,
              "position": 10,
              "duration": 0.010416666666666666
            },
            {
              "pitch": 82,
              "velocity": 72,
              "position": 10,
              "duration": 0.010416666666666666
            },
            {
              "pitch": 70,
              "velocity": 61,
              "position": 10,
              "duration": 0.010416666666666666
            },
            {
              "pitch": 25,
              "velocity": 93,
              "position": 10.25,
              "duration": 0.010416666666666666
            },
            {
              "pitch": 70,
              "velocity": 25,
              "position": 10.25,
              "duration": 0.010416666666666666
            },
            {
              "pitch": 70,
              "velocity": 43,
              "position": 10.270833333333334,
              "duration": 0.010416666666666666
            },
            {
              "pitch": 27,
              "velocity": 36,
              "position": 10.5,
              "duration": 0.010416666666666666
            },
            {
              "pitch": 82,
              "velocity": 40,
              "position": 10.5,
              "duration": 0.010416666666666666
            },
            {
              "pitch": 70,
              "velocity": 72,
              "position": 10.5,
              "duration": 0.010416666666666666
            },
            {
              "pitch": 25,
              "velocity": 40,
              "position": 10.75,
              "duration": 0.010416666666666666
            },
            {
              "pitch": 70,
              "velocity": 26,
              "position": 10.75,
              "duration": 0.010416666666666666
            },
            {
              "pitch": 70,
              "velocity": 43,
              "position": 10.770833333333334,
              "duration": 0.010416666666666666
            },
            {
              "pitch": 27,
              "velocity": 90,
              "position": 11,
              "duration": 0.010416666666666666
            },
            {
              "pitch": 82,
              "velocity": 72,
              "position": 11,
              "duration": 0.010416666666666666
            },
            {
              "pitch": 70,
              "velocity": 71,
              "position": 11,
              "duration": 0.010416666666666666
            },
            {
              "pitch": 54,
              "velocity": 110,
              "position": 11,
              "duration": 0.020833333333333332
            },
            {
              "pitch": 25,
              "velocity": 36,
              "position": 11.25,
              "duration": 0.010416666666666666
            },
            {
              "pitch": 70,
              "velocity": 25,
              "position": 11.25,
              "duration": 0.010416666666666666
            },
            {
              "pitch": 70,
              "velocity": 43,
              "position": 11.270833333333334,
              "duration": 0.010416666666666666
            },
            {
              "pitch": 27,
              "velocity": 32,
              "position": 11.5,
              "duration": 0.010416666666666666
            },
            {
              "pitch": 82,
              "velocity": 40,
              "position": 11.5,
              "duration": 0.010416666666666666
            },
            {
              "pitch": 70,
              "velocity": 72,
              "position": 11.5,
              "duration": 0.010416666666666666
            },
            {
              "pitch": 25,
              "velocity": 65,
              "position": 11.75,
              "duration": 0.010416666666666666
            },
            {
              "pitch": 70,
              "velocity": 27,
              "position": 11.75,
              "duration": 0.010416666666666666
            },
            {
              "pitch": 70,
              "velocity": 43,
              "position": 11.770833333333334,
              "duration": 0.010416666666666666
            },
            {
              "pitch": 27,
              "velocity": 90,
              "position": 12,
              "duration": 0.010416666666666666
            },
            {
              "pitch": 82,
              "velocity": 72,
              "position": 12,
              "duration": 0.010416666666666666
            },
            {
              "pitch": 70,
              "velocity": 71,
              "position": 12,
              "duration": 0.010416666666666666
            },
            {
              "pitch": 25,
              "velocity": 33,
              "position": 12.25,
              "duration": 0.010416666666666666
            },
            {
              "pitch": 70,
              "velocity": 26,
              "position": 12.25,
              "duration": 0.010416666666666666
            },
            {
              "pitch": 70,
              "velocity": 43,
              "position": 12.270833333333334,
              "duration": 0.010416666666666666
            },
            {
              "pitch": 27,
              "velocity": 35,
              "position": 12.5,
              "duration": 0.010416666666666666
            },
            {
              "pitch": 82,
              "velocity": 40,
              "position": 12.5,
              "duration": 0.010416666666666666
            },
            {
              "pitch": 70,
              "velocity": 72,
              "position": 12.5,
              "duration": 0.010416666666666666
            },
            {
              "pitch": 25,
              "velocity": 53,
              "position": 12.75,
              "duration": 0.010416666666666666
            },
            {
              "pitch": 70,
              "velocity": 23,
              "position": 12.75,
              "duration": 0.010416666666666666
            },
            {
              "pitch": 70,
              "velocity": 43,
              "position": 12.770833333333334,
              "duration": 0.010416666666666666
            },
            {
              "pitch": 27,
              "velocity": 90,
              "position": 13,
              "duration": 0.010416666666666666
            },
            {
              "pitch": 82,
              "velocity": 72,
              "position": 13,
              "duration": 0.010416666666666666
            },
            {
              "pitch": 70,
              "velocity": 71,
              "position": 13,
              "duration": 0.010416666666666666
            },
            {
              "pitch": 54,
              "velocity": 110,
              "position": 13,
              "duration": 0.020833333333333332
            },
            {
              "pitch": 25,
              "velocity": 35,
              "position": 13.25,
              "duration": 0.010416666666666666
            },
            {
              "pitch": 70,
              "velocity": 24,
              "position": 13.25,
              "duration": 0.010416666666666666
            },
            {
              "pitch": 70,
              "velocity": 43,
              "position": 13.270833333333334,
              "duration": 0.010416666666666666
            },
            {
              "pitch": 27,
              "velocity": 40,
              "position": 13.5,
              "duration": 0.010416666666666666
            },
            {
              "pitch": 82,
              "velocity": 40,
              "position": 13.5,
              "duration": 0.010416666666666666
            },
            {
              "pitch": 70,
              "velocity": 72,
              "position": 13.5,
              "duration": 0.010416666666666666
            },
            {
              "pitch": 69,
              "velocity": 18,
              "position": 13.5,
              "duration": 0.010416666666666666
            },
            {
              "pitch": 25,
              "velocity": 94,
              "position": 13.75,
              "duration": 0.010416666666666666
            },
            {
              "pitch": 70,
              "velocity": 23,
              "position": 13.75,
              "duration": 0.010416666666666666
            },
            {
              "pitch": 69,
              "velocity": 67,
              "position": 13.75,
              "duration": 0.010416666666666666
            },
            {
              "pitch": 70,
              "velocity": 43,
              "position": 13.770833333333334,
              "duration": 0.010416666666666666
            },
            {
              "pitch": 27,
              "velocity": 33,
              "position": 14,
              "duration": 0.010416666666666666
            },
            {
              "pitch": 82,
              "velocity": 72,
              "position": 14,
              "duration": 0.010416666666666666
            },
            {
              "pitch": 70,
              "velocity": 61,
              "position": 14,
              "duration": 0.010416666666666666
            },
            {
              "pitch": 25,
              "velocity": 86,
              "position": 14.25,
              "duration": 0.010416666666666666
            },
            {
              "pitch": 70,
              "velocity": 25,
              "position": 14.25,
              "duration": 0.010416666666666666
            },
            {
              "pitch": 70,
              "velocity": 43,
              "position": 14.270833333333334,
              "duration": 0.010416666666666666
            },
            {
              "pitch": 27,
              "velocity": 32,
              "position": 14.5,
              "duration": 0.010416666666666666
            },
            {
              "pitch": 82,
              "velocity": 40,
              "position": 14.5,
              "duration": 0.010416666666666666
            },
            {
              "pitch": 70,
              "velocity": 72,
              "position": 14.5,
              "duration": 0.010416666666666666
            },
            {
              "pitch": 25,
              "velocity": 50,
              "position": 14.75,
              "duration": 0.010416666666666666
            },
            {
              "pitch": 70,
              "velocity": 26,
              "position": 14.75,
              "duration": 0.010416666666666666
            },
            {
              "pitch": 70,
              "velocity": 43,
              "position": 14.770833333333334,
              "duration": 0.010416666666666666
            },
            {
              "pitch": 27,
              "velocity": 90,
              "position": 15,
              "duration": 0.010416666666666666
            },
            {
              "pitch": 82,
              "velocity": 72,
              "position": 15,
              "duration": 0.010416666666666666
            },
            {
              "pitch": 70,
              "velocity": 71,
              "position": 15,
              "duration": 0.010416666666666666
            },
            {
              "pitch": 54,
              "velocity": 110,
              "position": 15,
              "duration": 0.020833333333333332
            },
            {
              "pitch": 25,
              "velocity": 38,
              "position": 15.25,
              "duration": 0.010416666666666666
            },
            {
              "pitch": 70,
              "velocity": 25,
              "position": 15.25,
              "duration": 0.010416666666666666
            },
            {
              "pitch": 70,
              "velocity": 43,
              "position": 15.270833333333334,
              "duration": 0.010416666666666666
            },
            {
              "pitch": 27,
              "velocity": 36,
              "position": 15.5,
              "duration": 0.010416666666666666
            },
            {
              "pitch": 82,
              "velocity": 40,
              "position": 15.5,
              "duration": 0.010416666666666666
            },
            {
              "pitch": 70,
              "velocity": 72,
              "position": 15.5,
              "duration": 0.010416666666666666
            },
            {
              "pitch": 25,
              "velocity": 36,
              "position": 15.75,
              "duration": 0.010416666666666666
            },
            {
              "pitch": 70,
              "velocity": 27,
              "position": 15.75,
              "duration": 0.010416666666666666
            },
            {
              "pitch": 70,
              "velocity": 43,
              "position": 15.770833333333334,
              "duration": 0.010416666666666666
            }
          ]
        },
        "9": {
          "ctab": {
            "srcChannel": 9,
            "name": "MainDrum",
            "accType": "RHYTHM",
            "editable": false,
            "mutedNotes": [],
            "mutedChords": [],
            "autoStart": true,
            "sourceChordNote": 0,
            "sourceChordType": "Maj7",
            "ctb2Low": null,
            "ctb2Main": {
              "ntr": "ROOT_FIXED",
              "ntt": "BYPASS",
              "bassOn": false,
              "chordRootUpperLimit": 6,
              "noteLowLimit": 0,
              "noteHighLimit": 127,
              "rtr": "PITCH_SHIFT"
            },
            "ctb2High": null
          },
          "notes": [
            {
              "pitch": 36,
              "velocity": 98,
              "position": 0,
              "duration": 0.010416666666666666
            },
            {
              "pitch": 42,
              "velocity": 69,
              "position": 0,
              "duration": 0.010416666666666666
            },
            {
              "pitch": 42,
              "velocity": 37,
              "position": 0.25,
              "duration": 0.010416666666666666
            },
            {
              "pitch": 40,
              "velocity": 27,
              "position": 0.25,
              "duration": 0.020833333333333332
            },
            {
              "pitch": 44,
              "velocity": 66,
              "position": 0.5,
              "duration": 0.010416666666666666
            },
            {
              "pitch": 42,
              "velocity": 37,
              "position": 0.75,
              "duration": 0.010416666666666666
            },
            {
              "pitch": 40,
              "velocity": 27,
              "position": 0.75,
              "duration": 0.020833333333333332
            },
            {
              "pitch": 42,
              "velocity": 69,
              "position": 1,
              "duration": 0.010416666666666666
            },
            {
              "pitch": 40,
              "velocity": 87,
              "position": 1,
              "duration": 0.020833333333333332
            },
            {
              "pitch": 42,
              "velocity": 37,
              "position": 1.25,
              "duration": 0.010416666666666666
            },
            {
              "pitch": 40,
              "velocity": 27,
              "position": 1.25,
              "duration": 0.020833333333333332
            },
            {
              "pitch": 36,
              "velocity": 98,
              "position": 1.5,
              "duration": 0.010416666666666666
            },
            {
              "pitch": 44,
              "velocity": 66,
              "position": 1.5,
              "duration": 0.010416666666666666
            },
            {
              "pitch": 42,
              "velocity": 37,
              "position": 1.75,
              "duration": 0.010416666666666666
            },
            {
              "pitch": 40,
              "velocity": 27,
              "position": 1.75,
              "duration": 0.020833333333333332
            },
            {
              "pitch": 42,
              "velocity": 69,
              "position": 2,
              "duration": 0.010416666666666666
            },
            {
              "pitch": 42,
              "velocity": 37,
              "position": 2.25,
              "duration": 0.010416666666666666
            },
            {
              "pitch": 40,
              "velocity": 27,
              "position": 2.25,
              "duration": 0.020833333333333332
            },
            {
              "pitch": 36,
              "velocity": 61,
              "position": 2.2708333333333335,
              "duration": 0.010416666666666666
            },
            {
              "pitch": 36,
              "velocity": 76,
              "position": 2.5,
              "duration": 0.010416666666666666
            },
            {
              "pitch": 44,
              "velocity": 66,
              "position": 2.5,
              "duration": 0.010416666666666666
            },
            {
              "pitch": 42,
              "velocity": 37,
              "position": 2.75,
              "duration": 0.010416666666666666
            },
            {
              "pitch": 40,
              "velocity": 32,
              "position": 2.75,
              "duration": 0.020833333333333332
            },
            {
              "pitch": 42,
              "velocity": 69,
              "position": 3,
              "duration": 0.010416666666666666
            },
            {
              "pitch": 40,
              "velocity": 87,
              "position": 3,
              "duration": 0.020833333333333332
            },
            {
              "pitch": 42,
              "velocity": 37,
              "position": 3.25,
              "duration": 0.010416666666666666
            },
            {
              "pitch": 44,
              "velocity": 66,
              "position": 3.5,
              "duration": 0.010416666666666666
            },
            {
              "pitch": 42,
              "velocity": 37,
              "position": 3.75,
              "duration": 0.010416666666666666
            },
            {
              "pitch": 36,
              "velocity": 98,
              "position": 4,
              "duration": 0.010416666666666666
            },
            {
              "pitch": 42,
              "velocity": 69,
              "position": 4,
              "duration": 0.010416666666666666
            },
            {
              "pitch": 42,
              "velocity": 37,
              "position": 4.25,
              "duration": 0.010416666666666666
            },
            {
              "pitch": 40,
              "velocity": 27,
              "position": 4.25,
              "duration": 0.020833333333333332
            },
            {
              "pitch": 44,
              "velocity": 66,
              "position": 4.5,
              "duration": 0.010416666666666666
            },
            {
              "pitch": 42,
              "velocity": 37,
              "position": 4.75,
              "duration": 0.010416666666666666
            },
            {
              "pitch": 40,
              "velocity": 27,
              "position": 4.75,
              "duration": 0.020833333333333332
            },
            {
              "pitch": 42,
              "velocity": 69,
              "position": 5,
              "duration": 0.010416666666666666
            },
            {
              "pitch": 40,
              "velocity": 87,
              "position": 5,
              "duration": 0.020833333333333332
            },
            {
              "pitch": 42,
              "velocity": 37,
              "position": 5.25,
              "duration": 0.010416666666666666
            },
            {
              "pitch": 40,
              "velocity": 27,
              "position": 5.25,
              "duration": 0.020833333333333332
            },
            {
              "pitch": 36,
              "velocity": 98,
              "position": 5.5,
              "duration": 0.010416666666666666
            },
            {
              "pitch": 44,
              "velocity": 66,
              "position": 5.5,
              "duration": 0.010416666666666666
            },
            {
              "pitch": 42,
              "velocity": 37,
              "position": 5.75,
              "duration": 0.010416666666666666
            },
            {
              "pitch": 40,
              "velocity": 27,
              "position": 5.75,
              "duration": 0.020833333333333332
            },
            {
              "pitch": 42,
              "velocity": 69,
              "position": 6,
              "duration": 0.010416666666666666
            },
            {
              "pitch": 42,
              "velocity": 37,
              "position": 6.25,
              "duration": 0.010416666666666666
            },
            {
              "pitch": 40,
              "velocity": 27,
              "position": 6.25,
              "duration": 0.020833333333333332
            },
            {
              "pitch": 36,
              "velocity": 76,
              "position": 6.270833333333333,
              "duration": 0.010416666666666666
            },
            {
              "pitch": 36,
              "velocity": 79,
              "position": 6.5,
              "duration": 0.010416666666666666
            },
            {
              "pitch": 44,
              "velocity": 66,
              "position": 6.5,
              "duration": 0.010416666666666666
            },
            {
              "pitch": 42,
              "velocity": 37,
              "position": 6.75,
              "duration": 0.010416666666666666
            },
            {
              "pitch": 40,
              "velocity": 32,
              "position": 6.75,
              "duration": 0.020833333333333332
            },
            {
              "pitch": 42,
              "velocity": 69,
              "position": 7,
              "duration": 0.010416666666666666
            },
            {
              "pitch": 40,
              "velocity": 87,
              "position": 7,
              "duration": 0.020833333333333332
            },
            {
              "pitch": 42,
              "velocity": 37,
              "position": 7.25,
              "duration": 0.010416666666666666
            },
            {
              "pitch": 44,
              "velocity": 66,
              "position": 7.5,
              "duration": 0.010416666666666666
            },
            {
              "pitch": 42,
              "velocity": 37,
              "position": 7.75,
              "duration": 0.010416666666666666
            },
            {
              "pitch": 40,
              "velocity": 58,
              "position": 7.75,
              "duration": 0.020833333333333332
            },
            {
              "pitch": 36,
              "velocity": 98,
              "position": 8,
              "duration": 0.010416666666666666
            },
            {
              "pitch": 42,
              "velocity": 69,
              "position": 8,
              "duration": 0.010416666666666666
            },
            {
              "pitch": 42,
              "velocity": 37,
              "position": 8.25,
              "duration": 0.010416666666666666
            },
            {
              "pitch": 40,
              "velocity": 31,
              "position": 8.25,
              "duration": 0.020833333333333332
            },
            {
              "pitch": 44,
              "velocity": 66,
              "position": 8.5,
              "duration": 0.010416666666666666
            },
            {
              "pitch": 42,
              "velocity": 37,
              "position": 8.75,
              "duration": 0.010416666666666666
            },
            {
              "pitch": 40,
              "velocity": 31,
              "position": 8.75,
              "duration": 0.020833333333333332
            },
            {
              "pitch": 42,
              "velocity": 69,
              "position": 9,
              "duration": 0.010416666666666666
            },
            {
              "pitch": 40,
              "velocity": 87,
              "position": 9,
              "duration": 0.020833333333333332
            },
            {
              "pitch": 42,
              "velocity": 37,
              "position": 9.25,
              "duration": 0.010416666666666666
            },
            {
              "pitch": 40,
              "velocity": 31,
              "position": 9.25,
              "duration": 0.020833333333333332
            },
            {
              "pitch": 36,
              "velocity": 98,
              "position": 9.5,
              "duration": 0.010416666666666666
            },
            {
              "pitch": 44,
              "velocity": 66,
              "position": 9.5,
              "duration": 0.010416666666666666
            },
            {
              "pitch": 42,
              "velocity": 37,
              "position": 9.75,
              "duration": 0.010416666666666666
            },
            {
              "pitch": 40,
              "velocity": 31,
              "position": 9.75,
              "duration": 0.020833333333333332
            },
            {
              "pitch": 42,
              "velocity": 69,
              "position": 10,
              "duration": 0.010416666666666666
            },
            {
              "pitch": 42,
              "velocity": 37,
              "position": 10.25,
              "duration": 0.010416666666666666
            },
            {
              "pitch": 40,
              "velocity": 31,
              "position": 10.25,
              "duration": 0.020833333333333332
            },
            {
              "pitch": 36,
              "velocity": 61,
              "position": 10.270833333333334,
              "duration": 0.010416666666666666
            },
            {
              "pitch": 36,
              "velocity": 76,
              "position": 10.5,
              "duration": 0.010416666666666666
            },
            {
              "pitch": 44,
              "velocity": 66,
              "position": 10.5,
              "duration": 0.010416666666666666
            },
            {
              "pitch": 42,
              "velocity": 37,
              "position": 10.75,
              "duration": 0.010416666666666666
            },
            {
              "pitch": 40,
              "velocity": 36,
              "position": 10.75,
              "duration": 0.020833333333333332
            },
            {
              "pitch": 42,
              "velocity": 69,
              "position": 11,
              "duration": 0.010416666666666666
            },
            {
              "pitch": 40,
              "velocity": 87,
              "position": 11,
              "duration": 0.020833333333333332
            },
            {
              "pitch": 42,
              "velocity": 37,
              "position": 11.25,
              "duration": 0.010416666666666666
            },
            {
              "pitch": 44,
              "velocity": 66,
              "position": 11.5,
              "duration": 0.010416666666666666
            },
            {
              "pitch": 42,
              "velocity": 37,
              "position": 11.75,
              "duration": 0.010416666666666666
            },
            {
              "pitch": 36,
              "velocity": 98,
              "position": 12,
              "duration": 0.010416666666666666
            },
            {
              "pitch": 42,
              "velocity": 69,
              "position": 12,
              "duration": 0.010416666666666666
            },
            {
              "pitch": 42,
              "velocity": 37,
              "position": 12.25,
              "duration": 0.010416666666666666
            },
            {
              "pitch": 40,
              "velocity": 31,
              "position": 12.25,
              "duration": 0.020833333333333332
            },
            {
              "pitch": 44,
              "velocity": 66,
              "position": 12.5,
              "duration": 0.010416666666666666
            },
            {
              "pitch": 42,
              "velocity": 37,
              "position": 12.75,
              "duration": 0.010416666666666666
            },
            {
              "pitch": 40,
              "velocity": 31,
              "position": 12.75,
              "duration": 0.020833333333333332
            },
            {
              "pitch": 42,
              "velocity": 69,
              "position": 13,
              "duration": 0.010416666666666666
            },
            {
              "pitch": 40,
              "velocity": 87,
              "position": 13,
              "duration": 0.020833333333333332
            },
            {
              "pitch": 42,
              "velocity": 37,
              "position": 13.25,
              "duration": 0.010416666666666666
            },
            {
              "pitch": 40,
              "velocity": 31,
              "position": 13.25,
              "duration": 0.020833333333333332
            },
            {
              "pitch": 36,
              "velocity": 98,
              "position": 13.5,
              "duration": 0.010416666666666666
            },
            {
              "pitch": 44,
              "velocity": 66,
              "position": 13.5,
              "duration": 0.010416666666666666
            },
            {
              "pitch": 42,
              "velocity": 37,
              "position": 13.75,
              "duration": 0.010416666666666666
            },
            {
              "pitch": 40,
              "velocity": 31,
              "position": 13.75,
              "duration": 0.020833333333333332
            },
            {
              "pitch": 42,
              "velocity": 69,
              "position": 14,
              "duration": 0.010416666666666666
            },
            {
              "pitch": 42,
              "velocity": 37,
              "position": 14.25,
              "duration": 0.010416666666666666
            },
            {
              "pitch": 40,
              "velocity": 31,
              "position": 14.25,
              "duration": 0.020833333333333332
            },
            {
              "pitch": 36,
              "velocity": 76,
              "position": 14.270833333333334,
              "duration": 0.010416666666666666
            },
            {
              "pitch": 36,
              "velocity": 79,
              "position": 14.5,
              "duration": 0.010416666666666666
            },
            {
              "pitch": 44,
              "velocity": 66,
              "position": 14.5,
              "duration": 0.010416666666666666
            },
            {
              "pitch": 42,
              "velocity": 37,
              "position": 14.75,
              "duration": 0.010416666666666666
            },
            {
              "pitch": 40,
              "velocity": 36,
              "position": 14.75,
              "duration": 0.020833333333333332
            },
            {
              "pitch": 42,
              "velocity": 69,
              "position": 15,
              "duration": 0.010416666666666666
            },
            {
              "pitch": 40,
              "velocity": 90,
              "position": 15,
              "duration": 0.020833333333333332
            },
            {
              "pitch": 42,
              "velocity": 37,
              "position": 15.25,
              "duration": 0.010416666666666666
            },
            {
              "pitch": 46,
              "velocity": 50,
              "position": 15.5,
              "duration": 0.010416666666666666
            },
            {
              "pitch": 42,
              "velocity": 37,
              "position": 15.75,
              "duration": 0.010416666666666666
            },
            {
              "pitch": 40,
              "velocity": 48,
              "position": 15.75,
              "duration": 0.020833333333333332
            }
          ]
        },
        "10": {
          "ctab": {
            "srcChannel": 10,
            "name": "Bass",
            "accType": "BASS",
            "editable": false,
            "mutedNotes": [],
            "mutedChords": [],
            "autoStart": false,
            "sourceChordNote": 0,
            "sourceChordType": "Maj7",
            "ctb2Low": null,
            "ctb2Main": {
              "ntr": "ROOT_TRANSPOSITION",
              "ntt": "MELODY",
              "bassOn": true,
              "chordRootUpperLimit": 3,
              "noteLowLimit": 28,
              "noteHighLimit": 127,
              "rtr": "PITCH_SHIFT_TO_ROOT"
            },
            "ctb2High": null
          },
          "notes": [
            {
              "pitch": 24,
              "velocity": 80,
              "position": 0,
              "duration": 1
            },
            {
              "pitch": 24,
              "velocity": 80,
              "position": 1.5,
              "duration": 0.5104166666666666
            },
            {
              "pitch": 24,
              "velocity": 80,
              "position": 2.2708333333333335,
              "duration": 0.10416666666666667
            },
            {
              "pitch": 24,
              "velocity": 80,
              "position": 2.5,
              "duration": 0.5
            },
            {
              "pitch": 24,
              "velocity": 80,
              "position": 4,
              "duration": 1
            },
            {
              "pitch": 24,
              "velocity": 80,
              "position": 5.5,
              "duration": 0.5104166666666666
            },
            {
              "pitch": 24,
              "velocity": 80,
              "position": 6.270833333333333,
              "duration": 0.09375
            },
            {
              "pitch": 24,
              "velocity": 80,
              "position": 6.5,
              "duration": 0.5
            },
            {
              "pitch": 24,
              "velocity": 80,
              "position": 8,
              "duration": 1
            },
            {
              "pitch": 24,
              "velocity": 80,
              "position": 9.5,
              "duration": 0.5104166666666666
            },
            {
              "pitch": 24,
              "velocity": 80,
              "position": 10.270833333333334,
              "duration": 0.11458333333333333
            },
            {
              "pitch": 24,
              "velocity": 80,
              "position": 10.5,
              "duration": 0.5
            },
            {
              "pitch": 24,
              "velocity": 80,
              "position": 12,
              "duration": 1
            },
            {
              "pitch": 24,
              "velocity": 80,
              "position": 13.5,
              "duration": 0.5104166666666666
            },
            {
              "pitch": 24,
              "velocity": 80,
              "position": 14.270833333333334,
              "duration": 0.08333333333333333
            },
            {
              "pitch": 24,
              "velocity": 80,
              "position": 14.5,
              "duration": 0.4791666666666667
            },
            {
              "pitch": 24,
              "velocity": 80,
              "position": 15.5,
              "duration": 0.4895833333333333
            }
          ]
        },
        "11": {
          "ctab": {
            "srcChannel": 11,
            "name": "12stGtr",
            "accType": "CHORD1",
            "editable": false,
            "mutedNotes": [],
            "mutedChords": [],
            "autoStart": false,
            "sourceChordNote": 0,
            "sourceChordType": "Maj7",
            "ctb2Low": null,
            "ctb2Main": {
              "ntr": "ROOT_FIXED",
              "ntt": "CHORD",
              "bassOn": false,
              "chordRootUpperLimit": 7,
              "noteLowLimit": 50,
              "noteHighLimit": 127,
              "rtr": "PITCH_SHIFT"
            },
            "ctb2High": null
          },
          "notes": [
            {
              "pitch": 59,
              "velocity": 98,
              "position": 0.010416666666666666,
              "duration": 0.4895833333333333
            },
            {
              "pitch": 64,
              "velocity": 98,
              "position": 0.020833333333333332,
              "duration": 0.4895833333333333
            },
            {
              "pitch": 67,
              "velocity": 98,
              "position": 0.03125,
              "duration": 0.4895833333333333
            },
            {
              "pitch": 64,
              "velocity": 32,
              "position": 0.5208333333333334,
              "duration": 0.21875
            },
            {
              "pitch": 67,
              "velocity": 32,
              "position": 0.53125,
              "duration": 0.21041666666666667
            },
            {
              "pitch": 59,
              "velocity": 32,
              "position": 0.5104166666666666,
              "duration": 0.25
            },
            {
              "pitch": 59,
              "velocity": 90,
              "position": 0.7708333333333334,
              "duration": 0.21875
            },
            {
              "pitch": 64,
              "velocity": 98,
              "position": 0.7604166666666666,
              "duration": 0.25
            },
            {
              "pitch": 67,
              "velocity": 98,
              "position": 0.75,
              "duration": 0.2708333333333333
            },
            {
              "pitch": 59,
              "velocity": 30,
              "position": 1.0104166666666667,
              "duration": 0.10416666666666667
            },
            {
              "pitch": 64,
              "velocity": 30,
              "position": 1.0208333333333333,
              "duration": 0.10416666666666667
            },
            {
              "pitch": 67,
              "velocity": 50,
              "position": 1.25,
              "duration": 0.21875
            },
            {
              "pitch": 64,
              "velocity": 50,
              "position": 1.2604166666666667,
              "duration": 0.21875
            },
            {
              "pitch": 59,
              "velocity": 50,
              "position": 1.2708333333333333,
              "duration": 0.21875
            },
            {
              "pitch": 59,
              "velocity": 90,
              "position": 1.5104166666666667,
              "duration": 0.4895833333333333
            },
            {
              "pitch": 64,
              "velocity": 90,
              "position": 1.5208333333333333,
              "duration": 0.4895833333333333
            },
            {
              "pitch": 67,
              "velocity": 90,
              "position": 1.53125,
              "duration": 0.4895833333333333
            },
            {
              "pitch": 64,
              "velocity": 51,
              "position": 2.0208333333333335,
              "duration": 0.21875
            },
            {
              "pitch": 67,
              "velocity": 51,
              "position": 2.03125,
              "duration": 0.21041666666666667
            },
            {
              "pitch": 59,
              "velocity": 51,
              "position": 2.0104166666666665,
              "duration": 0.25
            },
            {
              "pitch": 59,
              "velocity": 95,
              "position": 2.2708333333333335,
              "duration": 0.19791666666666666
            },
            {
              "pitch": 64,
              "velocity": 95,
              "position": 2.2604166666666665,
              "duration": 0.22916666666666666
            },
            {
              "pitch": 67,
              "velocity": 95,
              "position": 2.25,
              "duration": 0.25
            },
            {
              "pitch": 59,
              "velocity": 40,
              "position": 2.5104166666666665,
              "duration": 0.08333333333333333
            },
            {
              "pitch": 64,
              "velocity": 40,
              "position": 2.5208333333333335,
              "duration": 0.08333333333333333
            },
            {
              "pitch": 67,
              "velocity": 40,
              "position": 2.53125,
              "duration": 0.08333333333333333
            },
            {
              "pitch": 59,
              "velocity": 40,
              "position": 2.7708333333333335,
              "duration": 0.21875
            },
            {
              "pitch": 64,
              "velocity": 40,
              "position": 2.7604166666666665,
              "duration": 0.25
            },
            {
              "pitch": 67,
              "velocity": 40,
              "position": 2.75,
              "duration": 0.2708333333333333
            },
            {
              "pitch": 59,
              "velocity": 98,
              "position": 3.0104166666666665,
              "duration": 0.4895833333333333
            },
            {
              "pitch": 64,
              "velocity": 98,
              "position": 3.0208333333333335,
              "duration": 0.4895833333333333
            },
            {
              "pitch": 67,
              "velocity": 98,
              "position": 3.03125,
              "duration": 0.4895833333333333
            },
            {
              "pitch": 64,
              "velocity": 66,
              "position": 3.5208333333333335,
              "duration": 0.21875
            },
            {
              "pitch": 67,
              "velocity": 66,
              "position": 3.53125,
              "duration": 0.21041666666666667
            },
            {
              "pitch": 59,
              "velocity": 66,
              "position": 3.5104166666666665,
              "duration": 0.25
            },
            {
              "pitch": 59,
              "velocity": 40,
              "position": 3.7708333333333335,
              "duration": 0.21875
            },
            {
              "pitch": 64,
              "velocity": 40,
              "position": 3.7604166666666665,
              "duration": 0.25
            },
            {
              "pitch": 67,
              "velocity": 40,
              "position": 3.75,
              "duration": 0.2708333333333333
            },
            {
              "pitch": 59,
              "velocity": 98,
              "position": 4.010416666666667,
              "duration": 0.4895833333333333
            },
            {
              "pitch": 64,
              "velocity": 98,
              "position": 4.020833333333333,
              "duration": 0.4895833333333333
            },
            {
              "pitch": 67,
              "velocity": 98,
              "position": 4.03125,
              "duration": 0.4895833333333333
            },
            {
              "pitch": 64,
              "velocity": 32,
              "position": 4.520833333333333,
              "duration": 0.21875
            },
            {
              "pitch": 67,
              "velocity": 32,
              "position": 4.53125,
              "duration": 0.21041666666666667
            },
            {
              "pitch": 59,
              "velocity": 32,
              "position": 4.510416666666667,
              "duration": 0.25
            },
            {
              "pitch": 59,
              "velocity": 90,
              "position": 4.770833333333333,
              "duration": 0.21875
            },
            {
              "pitch": 64,
              "velocity": 98,
              "position": 4.760416666666667,
              "duration": 0.25
            },
            {
              "pitch": 67,
              "velocity": 98,
              "position": 4.75,
              "duration": 0.2708333333333333
            },
            {
              "pitch": 59,
              "velocity": 30,
              "position": 5.010416666666667,
              "duration": 0.10416666666666667
            },
            {
              "pitch": 64,
              "velocity": 30,
              "position": 5.020833333333333,
              "duration": 0.10416666666666667
            },
            {
              "pitch": 67,
              "velocity": 50,
              "position": 5.25,
              "duration": 0.21875
            },
            {
              "pitch": 64,
              "velocity": 50,
              "position": 5.260416666666667,
              "duration": 0.21875
            },
            {
              "pitch": 59,
              "velocity": 50,
              "position": 5.270833333333333,
              "duration": 0.21875
            },
            {
              "pitch": 59,
              "velocity": 90,
              "position": 5.510416666666667,
              "duration": 0.4895833333333333
            },
            {
              "pitch": 64,
              "velocity": 90,
              "position": 5.520833333333333,
              "duration": 0.4895833333333333
            },
            {
              "pitch": 67,
              "velocity": 90,
              "position": 5.53125,
              "duration": 0.4895833333333333
            },
            {
              "pitch": 64,
              "velocity": 51,
              "position": 6.020833333333333,
              "duration": 0.21875
            },
            {
              "pitch": 67,
              "velocity": 51,
              "position": 6.03125,
              "duration": 0.21041666666666667
            },
            {
              "pitch": 59,
              "velocity": 51,
              "position": 6.010416666666667,
              "duration": 0.25
            },
            {
              "pitch": 59,
              "velocity": 98,
              "position": 6.270833333333333,
              "duration": 0.19791666666666666
            },
            {
              "pitch": 64,
              "velocity": 98,
              "position": 6.260416666666667,
              "duration": 0.22916666666666666
            },
            {
              "pitch": 67,
              "velocity": 98,
              "position": 6.25,
              "duration": 0.25
            },
            {
              "pitch": 59,
              "velocity": 40,
              "position": 6.510416666666667,
              "duration": 0.08333333333333333
            },
            {
              "pitch": 64,
              "velocity": 40,
              "position": 6.520833333333333,
              "duration": 0.08333333333333333
            },
            {
              "pitch": 67,
              "velocity": 40,
              "position": 6.53125,
              "duration": 0.08333333333333333
            },
            {
              "pitch": 59,
              "velocity": 20,
              "position": 6.770833333333333,
              "duration": 0.21875
            },
            {
              "pitch": 64,
              "velocity": 20,
              "position": 6.760416666666667,
              "duration": 0.25
            },
            {
              "pitch": 67,
              "velocity": 20,
              "position": 6.75,
              "duration": 0.2708333333333333
            },
            {
              "pitch": 67,
              "velocity": 85,
              "position": 7.03125,
              "duration": 0.46041666666666664
            },
            {
              "pitch": 59,
              "velocity": 85,
              "position": 7.010416666666667,
              "duration": 0.4895833333333333
            },
            {
              "pitch": 64,
              "velocity": 85,
              "position": 7.020833333333333,
              "duration": 0.4791666666666667
            },
            {
              "pitch": 64,
              "velocity": 40,
              "position": 7.510416666666667,
              "duration": 0.21875
            },
            {
              "pitch": 67,
              "velocity": 40,
              "position": 7.5,
              "duration": 0.23958333333333334
            },
            {
              "pitch": 59,
              "velocity": 40,
              "position": 7.510416666666667,
              "duration": 0.25
            },
            {
              "pitch": 67,
              "velocity": 35,
              "position": 7.75,
              "duration": 0.23958333333333334
            },
            {
              "pitch": 59,
              "velocity": 35,
              "position": 7.770833333333333,
              "duration": 0.21875
            },
            {
              "pitch": 64,
              "velocity": 35,
              "position": 7.760416666666667,
              "duration": 0.25
            },
            {
              "pitch": 59,
              "velocity": 98,
              "position": 8.010416666666666,
              "duration": 0.4895833333333333
            },
            {
              "pitch": 64,
              "velocity": 98,
              "position": 8.020833333333334,
              "duration": 0.4895833333333333
            },
            {
              "pitch": 67,
              "velocity": 98,
              "position": 8.03125,
              "duration": 0.4895833333333333
            },
            {
              "pitch": 64,
              "velocity": 32,
              "position": 8.520833333333334,
              "duration": 0.21875
            },
            {
              "pitch": 67,
              "velocity": 32,
              "position": 8.53125,
              "duration": 0.21041666666666667
            },
            {
              "pitch": 59,
              "velocity": 32,
              "position": 8.510416666666666,
              "duration": 0.25
            },
            {
              "pitch": 59,
              "velocity": 90,
              "position": 8.770833333333334,
              "duration": 0.21875
            },
            {
              "pitch": 64,
              "velocity": 98,
              "position": 8.760416666666666,
              "duration": 0.25
            },
            {
              "pitch": 67,
              "velocity": 98,
              "position": 8.75,
              "duration": 0.2708333333333333
            },
            {
              "pitch": 59,
              "velocity": 30,
              "position": 9.010416666666666,
              "duration": 0.10416666666666667
            },
            {
              "pitch": 64,
              "velocity": 30,
              "position": 9.020833333333334,
              "duration": 0.10416666666666667
            },
            {
              "pitch": 67,
              "velocity": 50,
              "position": 9.25,
              "duration": 0.21875
            },
            {
              "pitch": 64,
              "velocity": 50,
              "position": 9.260416666666666,
              "duration": 0.21875
            },
            {
              "pitch": 59,
              "velocity": 50,
              "position": 9.270833333333334,
              "duration": 0.21875
            },
            {
              "pitch": 59,
              "velocity": 90,
              "position": 9.510416666666666,
              "duration": 0.4895833333333333
            },
            {
              "pitch": 64,
              "velocity": 90,
              "position": 9.520833333333334,
              "duration": 0.4895833333333333
            },
            {
              "pitch": 67,
              "velocity": 90,
              "position": 9.53125,
              "duration": 0.4895833333333333
            },
            {
              "pitch": 64,
              "velocity": 51,
              "position": 10.020833333333334,
              "duration": 0.21875
            },
            {
              "pitch": 67,
              "velocity": 51,
              "position": 10.03125,
              "duration": 0.21041666666666667
            },
            {
              "pitch": 59,
              "velocity": 51,
              "position": 10.010416666666666,
              "duration": 0.25
            },
            {
              "pitch": 59,
              "velocity": 95,
              "position": 10.270833333333334,
              "duration": 0.19791666666666666
            },
            {
              "pitch": 64,
              "velocity": 95,
              "position": 10.260416666666666,
              "duration": 0.22916666666666666
            },
            {
              "pitch": 67,
              "velocity": 95,
              "position": 10.25,
              "duration": 0.25
            },
            {
              "pitch": 59,
              "velocity": 40,
              "position": 10.510416666666666,
              "duration": 0.08333333333333333
            },
            {
              "pitch": 64,
              "velocity": 40,
              "position": 10.520833333333334,
              "duration": 0.08333333333333333
            },
            {
              "pitch": 67,
              "velocity": 40,
              "position": 10.53125,
              "duration": 0.08333333333333333
            },
            {
              "pitch": 59,
              "velocity": 40,
              "position": 10.770833333333334,
              "duration": 0.21875
            },
            {
              "pitch": 64,
              "velocity": 40,
              "position": 10.760416666666666,
              "duration": 0.25
            },
            {
              "pitch": 67,
              "velocity": 40,
              "position": 10.75,
              "duration": 0.2708333333333333
            },
            {
              "pitch": 59,
              "velocity": 98,
              "position": 11.010416666666666,
              "duration": 0.4895833333333333
            },
            {
              "pitch": 64,
              "velocity": 98,
              "position": 11.020833333333334,
              "duration": 0.4895833333333333
            },
            {
              "pitch": 67,
              "velocity": 98,
              "position": 11.03125,
              "duration": 0.4895833333333333
            },
            {
              "pitch": 64,
              "velocity": 66,
              "position": 11.520833333333334,
              "duration": 0.21875
            },
            {
              "pitch": 67,
              "velocity": 66,
              "position": 11.53125,
              "duration": 0.21041666666666667
            },
            {
              "pitch": 59,
              "velocity": 66,
              "position": 11.510416666666666,
              "duration": 0.25
            },
            {
              "pitch": 67,
              "velocity": 40,
              "position": 11.75,
              "duration": 0.22291666666666668
            },
            {
              "pitch": 59,
              "velocity": 40,
              "position": 11.770833333333334,
              "duration": 0.20208333333333334
            },
            {
              "pitch": 64,
              "velocity": 40,
              "position": 11.760416666666666,
              "duration": 0.2125
            },
            {
              "pitch": 59,
              "velocity": 98,
              "position": 12.010416666666666,
              "duration": 0.4895833333333333
            },
            {
              "pitch": 64,
              "velocity": 98,
              "position": 12.020833333333334,
              "duration": 0.4895833333333333
            },
            {
              "pitch": 67,
              "velocity": 98,
              "position": 12.03125,
              "duration": 0.4895833333333333
            },
            {
              "pitch": 64,
              "velocity": 32,
              "position": 12.520833333333334,
              "duration": 0.21875
            },
            {
              "pitch": 67,
              "velocity": 32,
              "position": 12.53125,
              "duration": 0.21041666666666667
            },
            {
              "pitch": 59,
              "velocity": 32,
              "position": 12.510416666666666,
              "duration": 0.25
            },
            {
              "pitch": 59,
              "velocity": 90,
              "position": 12.770833333333334,
              "duration": 0.21875
            },
            {
              "pitch": 64,
              "velocity": 98,
              "position": 12.760416666666666,
              "duration": 0.25
            },
            {
              "pitch": 67,
              "velocity": 98,
              "position": 12.75,
              "duration": 0.2708333333333333
            },
            {
              "pitch": 59,
              "velocity": 30,
              "position": 13.010416666666666,
              "duration": 0.10416666666666667
            },
            {
              "pitch": 64,
              "velocity": 30,
              "position": 13.020833333333334,
              "duration": 0.10416666666666667
            },
            {
              "pitch": 67,
              "velocity": 50,
              "position": 13.25,
              "duration": 0.21875
            },
            {
              "pitch": 64,
              "velocity": 50,
              "position": 13.260416666666666,
              "duration": 0.21875
            },
            {
              "pitch": 59,
              "velocity": 50,
              "position": 13.270833333333334,
              "duration": 0.21875
            },
            {
              "pitch": 59,
              "velocity": 90,
              "position": 13.510416666666666,
              "duration": 0.4895833333333333
            },
            {
              "pitch": 64,
              "velocity": 90,
              "position": 13.520833333333334,
              "duration": 0.4895833333333333
            },
            {
              "pitch": 67,
              "velocity": 90,
              "position": 13.53125,
              "duration": 0.4895833333333333
            },
            {
              "pitch": 64,
              "velocity": 51,
              "position": 14.020833333333334,
              "duration": 0.21875
            },
            {
              "pitch": 67,
              "velocity": 51,
              "position": 14.03125,
              "duration": 0.21041666666666667
            },
            {
              "pitch": 59,
              "velocity": 51,
              "position": 14.010416666666666,
              "duration": 0.25
            },
            {
              "pitch": 59,
              "velocity": 98,
              "position": 14.270833333333334,
              "duration": 0.19791666666666666
            },
            {
              "pitch": 64,
              "velocity": 98,
              "position": 14.260416666666666,
              "duration": 0.22916666666666666
            },
            {
              "pitch": 67,
              "velocity": 98,
              "position": 14.25,
              "duration": 0.25
            },
            {
              "pitch": 59,
              "velocity": 40,
              "position": 14.510416666666666,
              "duration": 0.08333333333333333
            },
            {
              "pitch": 64,
              "velocity": 40,
              "position": 14.520833333333334,
              "duration": 0.08333333333333333
            },
            {
              "pitch": 67,
              "velocity": 40,
              "position": 14.53125,
              "duration": 0.08333333333333333
            },
            {
              "pitch": 59,
              "velocity": 20,
              "position": 14.770833333333334,
              "duration": 0.21875
            },
            {
              "pitch": 64,
              "velocity": 20,
              "position": 14.760416666666666,
              "duration": 0.25
            },
            {
              "pitch": 67,
              "velocity": 20,
              "position": 14.75,
              "duration": 0.2708333333333333
            },
            {
              "pitch": 67,
              "velocity": 85,
              "position": 15.03125,
              "duration": 0.21041666666666667
            },
            {
              "pitch": 59,
              "velocity": 85,
              "position": 15.010416666666666,
              "duration": 0.23958333333333334
            },
            {
              "pitch": 64,
              "velocity": 85,
              "position": 15.020833333333334,
              "duration": 0.22916666666666666
            },
            {
              "pitch": 59,
              "velocity": 75,
              "position": 15.270833333333334,
              "duration": 0.2125
            },
            {
              "pitch": 67,
              "velocity": 75,
              "position": 15.25,
              "duration": 0.23958333333333334
            },
            {
              "pitch": 64,
              "velocity": 75,
              "position": 15.260416666666666,
              "duration": 0.22916666666666666
            },
            {
              "pitch": 64,
              "velocity": 40,
              "position": 15.510416666666666,
              "duration": 0.21875
            },
            {
              "pitch": 67,
              "velocity": 40,
              "position": 15.5,
              "duration": 0.23958333333333334
            },
            {
              "pitch": 59,
              "velocity": 40,
              "position": 15.510416666666666,
              "duration": 0.25
            },
            {
              "pitch": 67,
              "velocity": 35,
              "position": 15.75,
              "duration": 0.22083333333333333
            },
            {
              "pitch": 59,
              "velocity": 35,
              "position": 15.770833333333334,
              "duration": 0.2
            },
            {
              "pitch": 64,
              "velocity": 35,
              "position": 15.760416666666666,
              "duration": 0.21041666666666667
            }
          ]
        },
        "12": {
          "ctab": {
            "srcChannel": 12,
            "name": "MuteGtr",
            "accType": "CHORD2",
            "editable": false,
            "mutedNotes": [],
            "mutedChords": [],
            "autoStart": false,
            "sourceChordNote": 0,
            "sourceChordType": "min7(11)",
            "ctb2Low": null,
            "ctb2Main": {
              "ntr": "ROOT_FIXED",
              "ntt": "CHORD",
              "bassOn": false,
              "chordRootUpperLimit": 7,
              "noteLowLimit": 50,
              "noteHighLimit": 127,
              "rtr": "PITCH_SHIFT"
            },
            "ctb2High": null
          },
          "notes": []
        },
        "13": {
          "ctab": {
            "srcChannel": 13,
            "name": "Strings",
            "accType": "PAD",
            "editable": false,
            "mutedNotes": [],
            "mutedChords": [],
            "autoStart": false,
            "sourceChordNote": 0,
            "sourceChordType": "Maj7",
            "ctb2Low": null,
            "ctb2Main": {
              "ntr": "ROOT_FIXED",
              "ntt": "CHORD",
              "bassOn": false,
              "chordRootUpperLimit": 7,
              "noteLowLimit": 0,
              "noteHighLimit": 127,
              "rtr": "PITCH_SHIFT"
            },
            "ctb2High": null
          },
          "notes": [
            {
              "pitch": 55,
              "velocity": 40,
              "position": 0,
              "duration": 15.979166666666666
            },
            {
              "pitch": 64,
              "velocity": 40,
              "position": 0,
              "duration": 15.979166666666666
            },
            {
              "pitch": 59,
              "velocity": 40,
              "position": 0,
              "duration": 15.979166666666666
            }
          ]
        },
        "14": {
          "ctab": {
            "srcChannel": 14,
            "name": "add GTR",
            "accType": "PHRASE2",
            "editable": false,
            "mutedNotes": [],
            "mutedChords": [],
            "autoStart": false,
            "sourceChordNote": 0,
            "sourceChordType": "Maj7",
            "ctb2Low": null,
            "ctb2Main": {
              "ntr": "ROOT_FIXED",
              "ntt": "CHORD",
              "bassOn": false,
              "chordRootUpperLimit": 7,
              "noteLowLimit": 40,
              "noteHighLimit": 127,
              "rtr": "PITCH_SHIFT"
            },
            "ctb2High": null
          },
          "notes": [
            {
              "pitch": 55,
              "velocity": 120,
              "position": 0,
              "duration": 1.48125
            },
            {
              "pitch": 64,
              "velocity": 120,
              "position": 0.020833333333333332,
              "duration": 1.4604166666666667
            },
            {
              "pitch": 59,
              "velocity": 120,
              "position": 0.020833333333333332,
              "duration": 1.4604166666666667
            },
            {
              "pitch": 59,
              "velocity": 108,
              "position": 1.4916666666666667,
              "duration": 1.4770833333333333
            },
            {
              "pitch": 55,
              "velocity": 108,
              "position": 1.5125,
              "duration": 1.45625
            },
            {
              "pitch": 64,
              "velocity": 108,
              "position": 1.5020833333333334,
              "duration": 1.4666666666666666
            },
            {
              "pitch": 55,
              "velocity": 108,
              "position": 2.99375,
              "duration": 0.95
            },
            {
              "pitch": 59,
              "velocity": 108,
              "position": 3.0145833333333334,
              "duration": 0.9291666666666667
            },
            {
              "pitch": 64,
              "velocity": 108,
              "position": 3.004166666666667,
              "duration": 0.9395833333333333
            },
            {
              "pitch": 59,
              "velocity": 108,
              "position": 3.9583333333333335,
              "duration": 0.78125
            },
            {
              "pitch": 55,
              "velocity": 108,
              "position": 4,
              "duration": 0.7395833333333334
            },
            {
              "pitch": 64,
              "velocity": 108,
              "position": 3.9791666666666665,
              "duration": 0.7604166666666666
            },
            {
              "pitch": 55,
              "velocity": 107,
              "position": 4.75,
              "duration": 0.23958333333333334
            },
            {
              "pitch": 64,
              "velocity": 108,
              "position": 4.75,
              "duration": 0.23958333333333334
            },
            {
              "pitch": 59,
              "velocity": 108,
              "position": 4.75,
              "duration": 0.23958333333333334
            },
            {
              "pitch": 55,
              "velocity": 85,
              "position": 5,
              "duration": 0.03125
            },
            {
              "pitch": 64,
              "velocity": 85,
              "position": 5,
              "duration": 0.03125
            },
            {
              "pitch": 59,
              "velocity": 85,
              "position": 5,
              "duration": 0.03125
            },
            {
              "pitch": 55,
              "velocity": 102,
              "position": 5.25,
              "duration": 0.03125
            },
            {
              "pitch": 64,
              "velocity": 102,
              "position": 5.25,
              "duration": 0.03125
            },
            {
              "pitch": 59,
              "velocity": 102,
              "position": 5.25,
              "duration": 0.03125
            },
            {
              "pitch": 55,
              "velocity": 108,
              "position": 5.49375,
              "duration": 0.7291666666666666
            },
            {
              "pitch": 64,
              "velocity": 108,
              "position": 5.49375,
              "duration": 0.7291666666666666
            },
            {
              "pitch": 59,
              "velocity": 108,
              "position": 5.49375,
              "duration": 0.7291666666666666
            },
            {
              "pitch": 55,
              "velocity": 97,
              "position": 6.25,
              "duration": 0.25
            },
            {
              "pitch": 64,
              "velocity": 97,
              "position": 6.25,
              "duration": 0.2604166666666667
            },
            {
              "pitch": 59,
              "velocity": 97,
              "position": 6.25,
              "duration": 0.2604166666666667
            },
            {
              "pitch": 55,
              "velocity": 84,
              "position": 6.770833333333333,
              "duration": 0.010416666666666666
            },
            {
              "pitch": 64,
              "velocity": 84,
              "position": 6.770833333333333,
              "duration": 0.010416666666666666
            },
            {
              "pitch": 59,
              "velocity": 84,
              "position": 6.770833333333333,
              "duration": 0.010416666666666666
            },
            {
              "pitch": 55,
              "velocity": 108,
              "position": 7,
              "duration": 0.9895833333333334
            },
            {
              "pitch": 64,
              "velocity": 108,
              "position": 7,
              "duration": 0.9895833333333334
            },
            {
              "pitch": 59,
              "velocity": 108,
              "position": 7,
              "duration": 0.9895833333333334
            },
            {
              "pitch": 55,
              "velocity": 120,
              "position": 8,
              "duration": 1.48125
            },
            {
              "pitch": 64,
              "velocity": 120,
              "position": 8.020833333333334,
              "duration": 1.4604166666666667
            },
            {
              "pitch": 59,
              "velocity": 120,
              "position": 8.020833333333334,
              "duration": 1.4604166666666667
            },
            {
              "pitch": 59,
              "velocity": 108,
              "position": 9.491666666666667,
              "duration": 1.4770833333333333
            },
            {
              "pitch": 55,
              "velocity": 108,
              "position": 9.5125,
              "duration": 1.45625
            },
            {
              "pitch": 64,
              "velocity": 108,
              "position": 9.502083333333333,
              "duration": 1.4666666666666666
            },
            {
              "pitch": 55,
              "velocity": 108,
              "position": 10.99375,
              "duration": 0.95
            },
            {
              "pitch": 59,
              "velocity": 108,
              "position": 11.014583333333333,
              "duration": 0.9291666666666667
            },
            {
              "pitch": 64,
              "velocity": 108,
              "position": 11.004166666666666,
              "duration": 0.9395833333333333
            },
            {
              "pitch": 59,
              "velocity": 108,
              "position": 11.958333333333334,
              "duration": 0.78125
            },
            {
              "pitch": 55,
              "velocity": 108,
              "position": 12,
              "duration": 0.7395833333333334
            },
            {
              "pitch": 64,
              "velocity": 108,
              "position": 11.979166666666666,
              "duration": 0.7604166666666666
            },
            {
              "pitch": 55,
              "velocity": 107,
              "position": 12.75,
              "duration": 0.23958333333333334
            },
            {
              "pitch": 64,
              "velocity": 108,
              "position": 12.75,
              "duration": 0.23958333333333334
            },
            {
              "pitch": 59,
              "velocity": 108,
              "position": 12.75,
              "duration": 0.23958333333333334
            },
            {
              "pitch": 55,
              "velocity": 85,
              "position": 13,
              "duration": 0.03125
            },
            {
              "pitch": 64,
              "velocity": 85,
              "position": 13,
              "duration": 0.03125
            },
            {
              "pitch": 59,
              "velocity": 85,
              "position": 13,
              "duration": 0.03125
            },
            {
              "pitch": 55,
              "velocity": 102,
              "position": 13.25,
              "duration": 0.03125
            },
            {
              "pitch": 64,
              "velocity": 102,
              "position": 13.25,
              "duration": 0.03125
            },
            {
              "pitch": 59,
              "velocity": 102,
              "position": 13.25,
              "duration": 0.03125
            },
            {
              "pitch": 55,
              "velocity": 108,
              "position": 13.483333333333333,
              "duration": 0.7291666666666666
            },
            {
              "pitch": 64,
              "velocity": 108,
              "position": 13.491666666666667,
              "duration": 0.7291666666666666
            },
            {
              "pitch": 59,
              "velocity": 108,
              "position": 13.5,
              "duration": 0.7291666666666666
            },
            {
              "pitch": 55,
              "velocity": 97,
              "position": 14.25,
              "duration": 0.25
            },
            {
              "pitch": 64,
              "velocity": 97,
              "position": 14.25,
              "duration": 0.2604166666666667
            },
            {
              "pitch": 59,
              "velocity": 97,
              "position": 14.25,
              "duration": 0.2604166666666667
            },
            {
              "pitch": 55,
              "velocity": 84,
              "position": 14.770833333333334,
              "duration": 0.010416666666666666
            },
            {
              "pitch": 64,
              "velocity": 84,
              "position": 14.770833333333334,
              "duration": 0.010416666666666666
            },
            {
              "pitch": 59,
              "velocity": 84,
              "position": 14.770833333333334,
              "duration": 0.010416666666666666
            },
            {
              "pitch": 55,
              "velocity": 108,
              "position": 15,
              "duration": 0.9895833333333334
            },
            {
              "pitch": 64,
              "velocity": 108,
              "position": 15,
              "duration": 0.9895833333333334
            },
            {
              "pitch": 59,
              "velocity": 108,
              "position": 15,
              "duration": 0.9895833333333334
            }
          ]
        },
        "15": {
          "ctab": {
            "srcChannel": 15,
            "name": "Egtr",
            "accType": "PHRASE1",
            "editable": false,
            "mutedNotes": [],
            "mutedChords": [],
            "autoStart": false,
            "sourceChordNote": 0,
            "sourceChordType": "min7(11)",
            "ctb2Low": null,
            "ctb2Main": {
              "ntr": "ROOT_FIXED",
              "ntt": "CHORD",
              "bassOn": false,
              "chordRootUpperLimit": 7,
              "noteLowLimit": 50,
              "noteHighLimit": 127,
              "rtr": "PITCH_SHIFT"
            },
            "ctb2High": null
          },
          "notes": [
            {
              "pitch": 53,
              "velocity": 69,
              "position": 3.7291666666666665,
              "duration": 4.125
            },
            {
              "pitch": 63,
              "velocity": 69,
              "position": 4,
              "duration": 3.8541666666666665
            },
            {
              "pitch": 58,
              "velocity": 69,
              "position": 3.8645833333333335,
              "duration": 3.9895833333333335
            },
            {
              "pitch": 53,
              "velocity": 69,
              "position": 11.760416666666666,
              "duration": 4.229166666666667
            },
            {
              "pitch": 63,
              "velocity": 69,
              "position": 12,
              "duration": 3.9895833333333335
            },
            {
              "pitch": 58,
              "velocity": 69,
              "position": 11.885416666666666,
              "duration": 4.104166666666667
            }
          ]
        }
      }
    },
    "Main_D": {
      "type": "Main_D",
      "sizeInBeats": 16,
      "channels": {
        "0": {
          "ctab": {
            "srcChannel": 0,
            "name": "CC_Crash",
            "accType": "RHYTHM",
            "editable": false,
            "mutedNotes": [],
            "mutedChords": [
              "1+2+5",
              "sus4",
              "1+5",
              "1+8",
              "7aug",
              "Maj7aug",
              "7(#9)",
              "7(b13)",
              "7(b9)",
              "7(13)",
              "7#11",
              "7(9)",
              "7b5",
              "7sus4",
              "7th",
              "dim7",
              "dim",
              "minMaj7(9)",
              "minMaj7",
              "min7(11)",
              "min7(9)",
              "min(9)",
              "m7b5",
              "min7",
              "min6",
              "min",
              "aug",
              "Maj6(9)",
              "Maj7(9)",
              "Maj(9)",
              "Maj7#11",
              "Maj7",
              "Maj6",
              "Maj"
            ],
            "autoStart": true,
            "sourceChordNote": 0,
            "sourceChordType": "Maj",
            "ctb2Low": null,
            "ctb2Main": {
              "ntr": "ROOT_FIXED",
              "ntt": "BYPASS",
              "bassOn": false,
              "chordRootUpperLimit": 0,
              "noteLowLimit": 0,
              "noteHighLimit": 127,
              "rtr": "RETRIGGER"
            },
            "ctb2High": null
          },
          "notes": []
        },
        "1": {
          "ctab": {
            "srcChannel": 1,
            "name": "12st SFX",
            "accType": "CHORD1",
            "editable": false,
            "mutedNotes": [],
            "mutedChords": [],
            "autoStart": false,
            "sourceChordNote": 0,
            "sourceChordType": "Maj7",
            "ctb2Low": null,
            "ctb2Main": {
              "ntr": "ROOT_FIXED",
              "ntt": "BYPASS",
              "bassOn": false,
              "chordRootUpperLimit": 7,
              "noteLowLimit": 0,
              "noteHighLimit": 127,
              "rtr": "PITCH_SHIFT"
            },
            "ctb2High": null
          },
          "notes": []
        },
        "3": {
          "ctab": {
            "srcChannel": 3,
            "name": "12st rt",
            "accType": "CHORD1",
            "editable": false,
            "mutedNotes": [],
            "mutedChords": [
              "1+2+5",
              "sus4",
              "1+5",
              "1+8",
              "Maj7aug",
              "dim",
              "minMaj7(9)",
              "minMaj7",
              "min6",
              "min",
              "aug",
              "Maj7(9)",
              "Maj7#11",
              "Maj7",
              "Maj6",
              "Maj"
            ],
            "autoStart": false,
            "sourceChordNote": 0,
            "sourceChordType": "Maj7",
            "ctb2Low": null,
            "ctb2Main": {
              "ntr": "ROOT_TRANSPOSITION",
              "ntt": "MELODY",
              "bassOn": false,
              "chordRootUpperLimit": 6,
              "noteLowLimit": 0,
              "noteHighLimit": 127,
              "rtr": "PITCH_SHIFT"
            },
            "ctb2High": null
          },
          "notes": []
        },
        "5": {
          "ctab": {
            "srcChannel": 5,
            "name": "Strg rt",
            "accType": "PAD",
            "editable": false,
            "mutedNotes": [],
            "mutedChords": [
              "1+2+5",
              "sus4",
              "1+5",
              "1+8",
              "Maj7aug",
              "dim",
              "minMaj7(9)",
              "minMaj7",
              "min6",
              "min",
              "aug",
              "Maj7(9)",
              "Maj7#11",
              "Maj7",
              "Maj6",
              "Maj"
            ],
            "autoStart": false,
            "sourceChordNote": 0,
            "sourceChordType": "Maj7",
            "ctb2Low": null,
            "ctb2Main": {
              "ntr": "ROOT_TRANSPOSITION",
              "ntt": "MELODY",
              "bassOn": false,
              "chordRootUpperLimit": 6,
              "noteLowLimit": 0,
              "noteHighLimit": 127,
              "rtr": "PITCH_SHIFT"
            },
            "ctb2High": null
          },
          "notes": []
        },
        "8": {
          "ctab": {
            "srcChannel": 8,
            "name": "AddDrum",
            "accType": "SUBRHYTHM",
            "editable": false,
            "mutedNotes": [],
            "mutedChords": [],
            "autoStart": true,
            "sourceChordNote": 0,
            "sourceChordType": "Maj7",
            "ctb2Low": null,
            "ctb2Main": {
              "ntr": "ROOT_FIXED",
              "ntt": "BYPASS",
              "bassOn": false,
              "chordRootUpperLimit": 6,
              "noteLowLimit": 0,
              "noteHighLimit": 127,
              "rtr": "PITCH_SHIFT"
            },
            "ctb2High": null
          },
          "notes": [
            {
              "pitch": 27,
              "velocity": 84,
              "position": 0,
              "duration": 0.010416666666666666
            },
            {
              "pitch": 82,
              "velocity": 72,
              "position": 0,
              "duration": 0.010416666666666666
            },
            {
              "pitch": 70,
              "velocity": 60,
              "position": 0,
              "duration": 0.020833333333333332
            },
            {
              "pitch": 54,
              "velocity": 93,
              "position": 0,
              "duration": 0.041666666666666664
            },
            {
              "pitch": 25,
              "velocity": 48,
              "position": 0.25,
              "duration": 0.010416666666666666
            },
            {
              "pitch": 70,
              "velocity": 14,
              "position": 0.25,
              "duration": 0.010416666666666666
            },
            {
              "pitch": 54,
              "velocity": 47,
              "position": 0.25,
              "duration": 0.041666666666666664
            },
            {
              "pitch": 27,
              "velocity": 45,
              "position": 0.5,
              "duration": 0.010416666666666666
            },
            {
              "pitch": 82,
              "velocity": 33,
              "position": 0.5,
              "duration": 0.010416666666666666
            },
            {
              "pitch": 70,
              "velocity": 38,
              "position": 0.5,
              "duration": 0.020833333333333332
            },
            {
              "pitch": 54,
              "velocity": 53,
              "position": 0.5,
              "duration": 0.041666666666666664
            },
            {
              "pitch": 25,
              "velocity": 88,
              "position": 0.75,
              "duration": 0.010416666666666666
            },
            {
              "pitch": 70,
              "velocity": 15,
              "position": 0.75,
              "duration": 0.010416666666666666
            },
            {
              "pitch": 54,
              "velocity": 47,
              "position": 0.75,
              "duration": 0.041666666666666664
            },
            {
              "pitch": 27,
              "velocity": 84,
              "position": 1,
              "duration": 0.010416666666666666
            },
            {
              "pitch": 82,
              "velocity": 72,
              "position": 1,
              "duration": 0.010416666666666666
            },
            {
              "pitch": 70,
              "velocity": 100,
              "position": 1,
              "duration": 0.020833333333333332
            },
            {
              "pitch": 54,
              "velocity": 122,
              "position": 1,
              "duration": 0.041666666666666664
            },
            {
              "pitch": 25,
              "velocity": 44,
              "position": 1.25,
              "duration": 0.010416666666666666
            },
            {
              "pitch": 70,
              "velocity": 14,
              "position": 1.25,
              "duration": 0.010416666666666666
            },
            {
              "pitch": 69,
              "velocity": 29,
              "position": 1.25,
              "duration": 0.010416666666666666
            },
            {
              "pitch": 54,
              "velocity": 47,
              "position": 1.25,
              "duration": 0.041666666666666664
            },
            {
              "pitch": 27,
              "velocity": 46,
              "position": 1.5,
              "duration": 0.010416666666666666
            },
            {
              "pitch": 82,
              "velocity": 32,
              "position": 1.5,
              "duration": 0.010416666666666666
            },
            {
              "pitch": 69,
              "velocity": 57,
              "position": 1.5,
              "duration": 0.010416666666666666
            },
            {
              "pitch": 70,
              "velocity": 38,
              "position": 1.5,
              "duration": 0.020833333333333332
            },
            {
              "pitch": 54,
              "velocity": 53,
              "position": 1.5,
              "duration": 0.041666666666666664
            },
            {
              "pitch": 25,
              "velocity": 88,
              "position": 1.75,
              "duration": 0.010416666666666666
            },
            {
              "pitch": 70,
              "velocity": 15,
              "position": 1.75,
              "duration": 0.010416666666666666
            },
            {
              "pitch": 69,
              "velocity": 83,
              "position": 1.75,
              "duration": 0.010416666666666666
            },
            {
              "pitch": 54,
              "velocity": 47,
              "position": 1.75,
              "duration": 0.041666666666666664
            },
            {
              "pitch": 27,
              "velocity": 48,
              "position": 2,
              "duration": 0.010416666666666666
            },
            {
              "pitch": 82,
              "velocity": 72,
              "position": 2,
              "duration": 0.010416666666666666
            },
            {
              "pitch": 70,
              "velocity": 60,
              "position": 2,
              "duration": 0.020833333333333332
            },
            {
              "pitch": 54,
              "velocity": 93,
              "position": 2,
              "duration": 0.041666666666666664
            },
            {
              "pitch": 25,
              "velocity": 88,
              "position": 2.25,
              "duration": 0.010416666666666666
            },
            {
              "pitch": 70,
              "velocity": 14,
              "position": 2.25,
              "duration": 0.010416666666666666
            },
            {
              "pitch": 54,
              "velocity": 47,
              "position": 2.25,
              "duration": 0.041666666666666664
            },
            {
              "pitch": 27,
              "velocity": 50,
              "position": 2.5,
              "duration": 0.010416666666666666
            },
            {
              "pitch": 82,
              "velocity": 34,
              "position": 2.5,
              "duration": 0.010416666666666666
            },
            {
              "pitch": 70,
              "velocity": 38,
              "position": 2.5,
              "duration": 0.020833333333333332
            },
            {
              "pitch": 54,
              "velocity": 53,
              "position": 2.5,
              "duration": 0.041666666666666664
            },
            {
              "pitch": 25,
              "velocity": 54,
              "position": 2.75,
              "duration": 0.010416666666666666
            },
            {
              "pitch": 70,
              "velocity": 15,
              "position": 2.75,
              "duration": 0.010416666666666666
            },
            {
              "pitch": 54,
              "velocity": 47,
              "position": 2.75,
              "duration": 0.041666666666666664
            },
            {
              "pitch": 27,
              "velocity": 84,
              "position": 3,
              "duration": 0.010416666666666666
            },
            {
              "pitch": 82,
              "velocity": 72,
              "position": 3,
              "duration": 0.010416666666666666
            },
            {
              "pitch": 70,
              "velocity": 100,
              "position": 3,
              "duration": 0.020833333333333332
            },
            {
              "pitch": 54,
              "velocity": 122,
              "position": 3,
              "duration": 0.041666666666666664
            },
            {
              "pitch": 25,
              "velocity": 50,
              "position": 3.25,
              "duration": 0.010416666666666666
            },
            {
              "pitch": 70,
              "velocity": 14,
              "position": 3.25,
              "duration": 0.010416666666666666
            },
            {
              "pitch": 54,
              "velocity": 47,
              "position": 3.25,
              "duration": 0.041666666666666664
            },
            {
              "pitch": 27,
              "velocity": 46,
              "position": 3.5,
              "duration": 0.010416666666666666
            },
            {
              "pitch": 82,
              "velocity": 34,
              "position": 3.5,
              "duration": 0.010416666666666666
            },
            {
              "pitch": 70,
              "velocity": 38,
              "position": 3.5,
              "duration": 0.020833333333333332
            },
            {
              "pitch": 54,
              "velocity": 53,
              "position": 3.5,
              "duration": 0.041666666666666664
            },
            {
              "pitch": 25,
              "velocity": 79,
              "position": 3.75,
              "duration": 0.010416666666666666
            },
            {
              "pitch": 70,
              "velocity": 15,
              "position": 3.75,
              "duration": 0.010416666666666666
            },
            {
              "pitch": 54,
              "velocity": 47,
              "position": 3.75,
              "duration": 0.041666666666666664
            },
            {
              "pitch": 27,
              "velocity": 84,
              "position": 4,
              "duration": 0.010416666666666666
            },
            {
              "pitch": 82,
              "velocity": 72,
              "position": 4,
              "duration": 0.010416666666666666
            },
            {
              "pitch": 70,
              "velocity": 60,
              "position": 4,
              "duration": 0.020833333333333332
            },
            {
              "pitch": 54,
              "velocity": 93,
              "position": 4,
              "duration": 0.041666666666666664
            },
            {
              "pitch": 25,
              "velocity": 47,
              "position": 4.25,
              "duration": 0.010416666666666666
            },
            {
              "pitch": 70,
              "velocity": 14,
              "position": 4.25,
              "duration": 0.010416666666666666
            },
            {
              "pitch": 54,
              "velocity": 47,
              "position": 4.25,
              "duration": 0.041666666666666664
            },
            {
              "pitch": 27,
              "velocity": 49,
              "position": 4.5,
              "duration": 0.010416666666666666
            },
            {
              "pitch": 82,
              "velocity": 33,
              "position": 4.5,
              "duration": 0.010416666666666666
            },
            {
              "pitch": 70,
              "velocity": 38,
              "position": 4.5,
              "duration": 0.020833333333333332
            },
            {
              "pitch": 54,
              "velocity": 53,
              "position": 4.5,
              "duration": 0.041666666666666664
            },
            {
              "pitch": 25,
              "velocity": 67,
              "position": 4.75,
              "duration": 0.010416666666666666
            },
            {
              "pitch": 70,
              "velocity": 15,
              "position": 4.75,
              "duration": 0.010416666666666666
            },
            {
              "pitch": 54,
              "velocity": 47,
              "position": 4.75,
              "duration": 0.041666666666666664
            },
            {
              "pitch": 27,
              "velocity": 84,
              "position": 5,
              "duration": 0.010416666666666666
            },
            {
              "pitch": 82,
              "velocity": 72,
              "position": 5,
              "duration": 0.010416666666666666
            },
            {
              "pitch": 70,
              "velocity": 100,
              "position": 5,
              "duration": 0.020833333333333332
            },
            {
              "pitch": 54,
              "velocity": 122,
              "position": 5,
              "duration": 0.041666666666666664
            },
            {
              "pitch": 25,
              "velocity": 49,
              "position": 5.25,
              "duration": 0.010416666666666666
            },
            {
              "pitch": 70,
              "velocity": 14,
              "position": 5.25,
              "duration": 0.010416666666666666
            },
            {
              "pitch": 54,
              "velocity": 47,
              "position": 5.25,
              "duration": 0.041666666666666664
            },
            {
              "pitch": 27,
              "velocity": 54,
              "position": 5.5,
              "duration": 0.010416666666666666
            },
            {
              "pitch": 82,
              "velocity": 32,
              "position": 5.5,
              "duration": 0.010416666666666666
            },
            {
              "pitch": 69,
              "velocity": 47,
              "position": 5.5,
              "duration": 0.010416666666666666
            },
            {
              "pitch": 70,
              "velocity": 38,
              "position": 5.5,
              "duration": 0.020833333333333332
            },
            {
              "pitch": 54,
              "velocity": 53,
              "position": 5.5,
              "duration": 0.041666666666666664
            },
            {
              "pitch": 25,
              "velocity": 88,
              "position": 5.75,
              "duration": 0.010416666666666666
            },
            {
              "pitch": 70,
              "velocity": 15,
              "position": 5.75,
              "duration": 0.010416666666666666
            },
            {
              "pitch": 69,
              "velocity": 67,
              "position": 5.75,
              "duration": 0.010416666666666666
            },
            {
              "pitch": 54,
              "velocity": 47,
              "position": 5.75,
              "duration": 0.041666666666666664
            },
            {
              "pitch": 27,
              "velocity": 47,
              "position": 6,
              "duration": 0.010416666666666666
            },
            {
              "pitch": 82,
              "velocity": 72,
              "position": 6,
              "duration": 0.010416666666666666
            },
            {
              "pitch": 70,
              "velocity": 60,
              "position": 6,
              "duration": 0.020833333333333332
            },
            {
              "pitch": 54,
              "velocity": 93,
              "position": 6,
              "duration": 0.041666666666666664
            },
            {
              "pitch": 25,
              "velocity": 88,
              "position": 6.25,
              "duration": 0.010416666666666666
            },
            {
              "pitch": 70,
              "velocity": 14,
              "position": 6.25,
              "duration": 0.010416666666666666
            },
            {
              "pitch": 54,
              "velocity": 47,
              "position": 6.25,
              "duration": 0.041666666666666664
            },
            {
              "pitch": 27,
              "velocity": 46,
              "position": 6.5,
              "duration": 0.010416666666666666
            },
            {
              "pitch": 82,
              "velocity": 34,
              "position": 6.5,
              "duration": 0.010416666666666666
            },
            {
              "pitch": 70,
              "velocity": 38,
              "position": 6.5,
              "duration": 0.020833333333333332
            },
            {
              "pitch": 54,
              "velocity": 53,
              "position": 6.5,
              "duration": 0.041666666666666664
            },
            {
              "pitch": 25,
              "velocity": 64,
              "position": 6.75,
              "duration": 0.010416666666666666
            },
            {
              "pitch": 70,
              "velocity": 15,
              "position": 6.75,
              "duration": 0.010416666666666666
            },
            {
              "pitch": 54,
              "velocity": 47,
              "position": 6.75,
              "duration": 0.041666666666666664
            },
            {
              "pitch": 27,
              "velocity": 84,
              "position": 7,
              "duration": 0.010416666666666666
            },
            {
              "pitch": 82,
              "velocity": 72,
              "position": 7,
              "duration": 0.010416666666666666
            },
            {
              "pitch": 70,
              "velocity": 100,
              "position": 7,
              "duration": 0.020833333333333332
            },
            {
              "pitch": 54,
              "velocity": 122,
              "position": 7,
              "duration": 0.041666666666666664
            },
            {
              "pitch": 25,
              "velocity": 52,
              "position": 7.25,
              "duration": 0.010416666666666666
            },
            {
              "pitch": 70,
              "velocity": 14,
              "position": 7.25,
              "duration": 0.010416666666666666
            },
            {
              "pitch": 54,
              "velocity": 47,
              "position": 7.25,
              "duration": 0.041666666666666664
            },
            {
              "pitch": 27,
              "velocity": 50,
              "position": 7.5,
              "duration": 0.010416666666666666
            },
            {
              "pitch": 82,
              "velocity": 34,
              "position": 7.5,
              "duration": 0.010416666666666666
            },
            {
              "pitch": 70,
              "velocity": 38,
              "position": 7.5,
              "duration": 0.020833333333333332
            },
            {
              "pitch": 54,
              "velocity": 53,
              "position": 7.5,
              "duration": 0.041666666666666664
            },
            {
              "pitch": 25,
              "velocity": 50,
              "position": 7.75,
              "duration": 0.010416666666666666
            },
            {
              "pitch": 70,
              "velocity": 15,
              "position": 7.75,
              "duration": 0.010416666666666666
            },
            {
              "pitch": 54,
              "velocity": 47,
              "position": 7.75,
              "duration": 0.041666666666666664
            },
            {
              "pitch": 27,
              "velocity": 84,
              "position": 8,
              "duration": 0.010416666666666666
            },
            {
              "pitch": 82,
              "velocity": 72,
              "position": 8,
              "duration": 0.010416666666666666
            },
            {
              "pitch": 70,
              "velocity": 60,
              "position": 8,
              "duration": 0.020833333333333332
            },
            {
              "pitch": 54,
              "velocity": 93,
              "position": 8,
              "duration": 0.041666666666666664
            },
            {
              "pitch": 25,
              "velocity": 48,
              "position": 8.25,
              "duration": 0.010416666666666666
            },
            {
              "pitch": 70,
              "velocity": 14,
              "position": 8.25,
              "duration": 0.010416666666666666
            },
            {
              "pitch": 54,
              "velocity": 47,
              "position": 8.25,
              "duration": 0.041666666666666664
            },
            {
              "pitch": 27,
              "velocity": 45,
              "position": 8.5,
              "duration": 0.010416666666666666
            },
            {
              "pitch": 82,
              "velocity": 33,
              "position": 8.5,
              "duration": 0.010416666666666666
            },
            {
              "pitch": 70,
              "velocity": 38,
              "position": 8.5,
              "duration": 0.020833333333333332
            },
            {
              "pitch": 54,
              "velocity": 53,
              "position": 8.5,
              "duration": 0.041666666666666664
            },
            {
              "pitch": 25,
              "velocity": 88,
              "position": 8.75,
              "duration": 0.010416666666666666
            },
            {
              "pitch": 70,
              "velocity": 15,
              "position": 8.75,
              "duration": 0.010416666666666666
            },
            {
              "pitch": 54,
              "velocity": 47,
              "position": 8.75,
              "duration": 0.041666666666666664
            },
            {
              "pitch": 27,
              "velocity": 84,
              "position": 9,
              "duration": 0.010416666666666666
            },
            {
              "pitch": 82,
              "velocity": 72,
              "position": 9,
              "duration": 0.010416666666666666
            },
            {
              "pitch": 70,
              "velocity": 100,
              "position": 9,
              "duration": 0.020833333333333332
            },
            {
              "pitch": 54,
              "velocity": 122,
              "position": 9,
              "duration": 0.041666666666666664
            },
            {
              "pitch": 25,
              "velocity": 44,
              "position": 9.25,
              "duration": 0.010416666666666666
            },
            {
              "pitch": 70,
              "velocity": 14,
              "position": 9.25,
              "duration": 0.010416666666666666
            },
            {
              "pitch": 69,
              "velocity": 29,
              "position": 9.25,
              "duration": 0.010416666666666666
            },
            {
              "pitch": 54,
              "velocity": 47,
              "position": 9.25,
              "duration": 0.041666666666666664
            },
            {
              "pitch": 27,
              "velocity": 46,
              "position": 9.5,
              "duration": 0.010416666666666666
            },
            {
              "pitch": 82,
              "velocity": 32,
              "position": 9.5,
              "duration": 0.010416666666666666
            },
            {
              "pitch": 69,
              "velocity": 57,
              "position": 9.5,
              "duration": 0.010416666666666666
            },
            {
              "pitch": 70,
              "velocity": 38,
              "position": 9.5,
              "duration": 0.020833333333333332
            },
            {
              "pitch": 54,
              "velocity": 53,
              "position": 9.5,
              "duration": 0.041666666666666664
            },
            {
              "pitch": 25,
              "velocity": 88,
              "position": 9.75,
              "duration": 0.010416666666666666
            },
            {
              "pitch": 70,
              "velocity": 15,
              "position": 9.75,
              "duration": 0.010416666666666666
            },
            {
              "pitch": 69,
              "velocity": 83,
              "position": 9.75,
              "duration": 0.010416666666666666
            },
            {
              "pitch": 54,
              "velocity": 47,
              "position": 9.75,
              "duration": 0.041666666666666664
            },
            {
              "pitch": 27,
              "velocity": 48,
              "position": 10,
              "duration": 0.010416666666666666
            },
            {
              "pitch": 82,
              "velocity": 72,
              "position": 10,
              "duration": 0.010416666666666666
            },
            {
              "pitch": 70,
              "velocity": 60,
              "position": 10,
              "duration": 0.020833333333333332
            },
            {
              "pitch": 54,
              "velocity": 93,
              "position": 10,
              "duration": 0.041666666666666664
            },
            {
              "pitch": 25,
              "velocity": 88,
              "position": 10.25,
              "duration": 0.010416666666666666
            },
            {
              "pitch": 70,
              "velocity": 14,
              "position": 10.25,
              "duration": 0.010416666666666666
            },
            {
              "pitch": 54,
              "velocity": 47,
              "position": 10.25,
              "duration": 0.041666666666666664
            },
            {
              "pitch": 27,
              "velocity": 50,
              "position": 10.5,
              "duration": 0.010416666666666666
            },
            {
              "pitch": 82,
              "velocity": 34,
              "position": 10.5,
              "duration": 0.010416666666666666
            },
            {
              "pitch": 70,
              "velocity": 38,
              "position": 10.5,
              "duration": 0.020833333333333332
            },
            {
              "pitch": 54,
              "velocity": 53,
              "position": 10.5,
              "duration": 0.041666666666666664
            },
            {
              "pitch": 25,
              "velocity": 54,
              "position": 10.75,
              "duration": 0.010416666666666666
            },
            {
              "pitch": 70,
              "velocity": 15,
              "position": 10.75,
              "duration": 0.010416666666666666
            },
            {
              "pitch": 54,
              "velocity": 47,
              "position": 10.75,
              "duration": 0.041666666666666664
            },
            {
              "pitch": 27,
              "velocity": 84,
              "position": 11,
              "duration": 0.010416666666666666
            },
            {
              "pitch": 82,
              "velocity": 72,
              "position": 11,
              "duration": 0.010416666666666666
            },
            {
              "pitch": 70,
              "velocity": 100,
              "position": 11,
              "duration": 0.020833333333333332
            },
            {
              "pitch": 54,
              "velocity": 122,
              "position": 11,
              "duration": 0.041666666666666664
            },
            {
              "pitch": 25,
              "velocity": 50,
              "position": 11.25,
              "duration": 0.010416666666666666
            },
            {
              "pitch": 70,
              "velocity": 14,
              "position": 11.25,
              "duration": 0.010416666666666666
            },
            {
              "pitch": 54,
              "velocity": 47,
              "position": 11.25,
              "duration": 0.041666666666666664
            },
            {
              "pitch": 27,
              "velocity": 46,
              "position": 11.5,
              "duration": 0.010416666666666666
            },
            {
              "pitch": 82,
              "velocity": 34,
              "position": 11.5,
              "duration": 0.010416666666666666
            },
            {
              "pitch": 70,
              "velocity": 38,
              "position": 11.5,
              "duration": 0.020833333333333332
            },
            {
              "pitch": 54,
              "velocity": 53,
              "position": 11.5,
              "duration": 0.041666666666666664
            },
            {
              "pitch": 25,
              "velocity": 79,
              "position": 11.75,
              "duration": 0.010416666666666666
            },
            {
              "pitch": 70,
              "velocity": 15,
              "position": 11.75,
              "duration": 0.010416666666666666
            },
            {
              "pitch": 54,
              "velocity": 47,
              "position": 11.75,
              "duration": 0.041666666666666664
            },
            {
              "pitch": 27,
              "velocity": 84,
              "position": 12,
              "duration": 0.010416666666666666
            },
            {
              "pitch": 82,
              "velocity": 72,
              "position": 12,
              "duration": 0.010416666666666666
            },
            {
              "pitch": 70,
              "velocity": 60,
              "position": 12,
              "duration": 0.020833333333333332
            },
            {
              "pitch": 54,
              "velocity": 93,
              "position": 12,
              "duration": 0.041666666666666664
            },
            {
              "pitch": 25,
              "velocity": 47,
              "position": 12.25,
              "duration": 0.010416666666666666
            },
            {
              "pitch": 70,
              "velocity": 14,
              "position": 12.25,
              "duration": 0.010416666666666666
            },
            {
              "pitch": 54,
              "velocity": 47,
              "position": 12.25,
              "duration": 0.041666666666666664
            },
            {
              "pitch": 27,
              "velocity": 49,
              "position": 12.5,
              "duration": 0.010416666666666666
            },
            {
              "pitch": 82,
              "velocity": 33,
              "position": 12.5,
              "duration": 0.010416666666666666
            },
            {
              "pitch": 70,
              "velocity": 38,
              "position": 12.5,
              "duration": 0.020833333333333332
            },
            {
              "pitch": 54,
              "velocity": 53,
              "position": 12.5,
              "duration": 0.041666666666666664
            },
            {
              "pitch": 25,
              "velocity": 67,
              "position": 12.75,
              "duration": 0.010416666666666666
            },
            {
              "pitch": 70,
              "velocity": 15,
              "position": 12.75,
              "duration": 0.010416666666666666
            },
            {
              "pitch": 54,
              "velocity": 47,
              "position": 12.75,
              "duration": 0.041666666666666664
            },
            {
              "pitch": 27,
              "velocity": 84,
              "position": 13,
              "duration": 0.010416666666666666
            },
            {
              "pitch": 82,
              "velocity": 72,
              "position": 13,
              "duration": 0.010416666666666666
            },
            {
              "pitch": 70,
              "velocity": 100,
              "position": 13,
              "duration": 0.020833333333333332
            },
            {
              "pitch": 54,
              "velocity": 122,
              "position": 13,
              "duration": 0.041666666666666664
            },
            {
              "pitch": 25,
              "velocity": 49,
              "position": 13.25,
              "duration": 0.010416666666666666
            },
            {
              "pitch": 70,
              "velocity": 14,
              "position": 13.25,
              "duration": 0.010416666666666666
            },
            {
              "pitch": 54,
              "velocity": 47,
              "position": 13.25,
              "duration": 0.041666666666666664
            },
            {
              "pitch": 27,
              "velocity": 54,
              "position": 13.5,
              "duration": 0.010416666666666666
            },
            {
              "pitch": 82,
              "velocity": 32,
              "position": 13.5,
              "duration": 0.010416666666666666
            },
            {
              "pitch": 69,
              "velocity": 47,
              "position": 13.5,
              "duration": 0.010416666666666666
            },
            {
              "pitch": 70,
              "velocity": 38,
              "position": 13.5,
              "duration": 0.020833333333333332
            },
            {
              "pitch": 54,
              "velocity": 53,
              "position": 13.5,
              "duration": 0.041666666666666664
            },
            {
              "pitch": 25,
              "velocity": 88,
              "position": 13.75,
              "duration": 0.010416666666666666
            },
            {
              "pitch": 70,
              "velocity": 15,
              "position": 13.75,
              "duration": 0.010416666666666666
            },
            {
              "pitch": 69,
              "velocity": 67,
              "position": 13.75,
              "duration": 0.010416666666666666
            },
            {
              "pitch": 54,
              "velocity": 47,
              "position": 13.75,
              "duration": 0.041666666666666664
            },
            {
              "pitch": 27,
              "velocity": 47,
              "position": 14,
              "duration": 0.010416666666666666
            },
            {
              "pitch": 82,
              "velocity": 72,
              "position": 14,
              "duration": 0.010416666666666666
            },
            {
              "pitch": 70,
              "velocity": 60,
              "position": 14,
              "duration": 0.020833333333333332
            },
            {
              "pitch": 54,
              "velocity": 93,
              "position": 14,
              "duration": 0.041666666666666664
            },
            {
              "pitch": 25,
              "velocity": 88,
              "position": 14.25,
              "duration": 0.010416666666666666
            },
            {
              "pitch": 70,
              "velocity": 14,
              "position": 14.25,
              "duration": 0.010416666666666666
            },
            {
              "pitch": 54,
              "velocity": 47,
              "position": 14.25,
              "duration": 0.041666666666666664
            },
            {
              "pitch": 27,
              "velocity": 46,
              "position": 14.5,
              "duration": 0.010416666666666666
            },
            {
              "pitch": 82,
              "velocity": 34,
              "position": 14.5,
              "duration": 0.010416666666666666
            },
            {
              "pitch": 70,
              "velocity": 38,
              "position": 14.5,
              "duration": 0.020833333333333332
            },
            {
              "pitch": 54,
              "velocity": 53,
              "position": 14.5,
              "duration": 0.041666666666666664
            },
            {
              "pitch": 25,
              "velocity": 64,
              "position": 14.75,
              "duration": 0.010416666666666666
            },
            {
              "pitch": 70,
              "velocity": 15,
              "position": 14.75,
              "duration": 0.010416666666666666
            },
            {
              "pitch": 54,
              "velocity": 47,
              "position": 14.75,
              "duration": 0.041666666666666664
            },
            {
              "pitch": 27,
              "velocity": 84,
              "position": 15,
              "duration": 0.010416666666666666
            },
            {
              "pitch": 82,
              "velocity": 72,
              "position": 15,
              "duration": 0.010416666666666666
            },
            {
              "pitch": 70,
              "velocity": 100,
              "position": 15,
              "duration": 0.020833333333333332
            },
            {
              "pitch": 54,
              "velocity": 122,
              "position": 15,
              "duration": 0.041666666666666664
            },
            {
              "pitch": 25,
              "velocity": 52,
              "position": 15.25,
              "duration": 0.010416666666666666
            },
            {
              "pitch": 70,
              "velocity": 14,
              "position": 15.25,
              "duration": 0.010416666666666666
            },
            {
              "pitch": 54,
              "velocity": 47,
              "position": 15.25,
              "duration": 0.041666666666666664
            },
            {
              "pitch": 27,
              "velocity": 50,
              "position": 15.5,
              "duration": 0.010416666666666666
            },
            {
              "pitch": 82,
              "velocity": 34,
              "position": 15.5,
              "duration": 0.010416666666666666
            },
            {
              "pitch": 70,
              "velocity": 38,
              "position": 15.5,
              "duration": 0.020833333333333332
            },
            {
              "pitch": 54,
              "velocity": 53,
              "position": 15.5,
              "duration": 0.041666666666666664
            },
            {
              "pitch": 25,
              "velocity": 50,
              "position": 15.75,
              "duration": 0.010416666666666666
            },
            {
              "pitch": 70,
              "velocity": 15,
              "position": 15.75,
              "duration": 0.010416666666666666
            },
            {
              "pitch": 54,
              "velocity": 47,
              "position": 15.75,
              "duration": 0.041666666666666664
            }
          ]
        },
        "9": {
          "ctab": {
            "srcChannel": 9,
            "name": "MainDrum",
            "accType": "RHYTHM",
            "editable": false,
            "mutedNotes": [],
            "mutedChords": [],
            "autoStart": true,
            "sourceChordNote": 0,
            "sourceChordType": "Maj7",
            "ctb2Low": null,
            "ctb2Main": {
              "ntr": "ROOT_FIXED",
              "ntt": "BYPASS",
              "bassOn": false,
              "chordRootUpperLimit": 6,
              "noteLowLimit": 0,
              "noteHighLimit": 127,
              "rtr": "PITCH_SHIFT"
            },
            "ctb2High": null
          },
          "notes": [
            {
              "pitch": 36,
              "velocity": 98,
              "position": 0,
              "duration": 0.010416666666666666
            },
            {
              "pitch": 44,
              "velocity": 30,
              "position": 0,
              "duration": 0.010416666666666666
            },
            {
              "pitch": 40,
              "velocity": 26,
              "position": 0.25,
              "duration": 0.020833333333333332
            },
            {
              "pitch": 46,
              "velocity": 49,
              "position": 0.5,
              "duration": 0.010416666666666666
            },
            {
              "pitch": 53,
              "velocity": 62,
              "position": 0.5,
              "duration": 0.010416666666666666
            },
            {
              "pitch": 40,
              "velocity": 26,
              "position": 0.75,
              "duration": 0.020833333333333332
            },
            {
              "pitch": 44,
              "velocity": 30,
              "position": 1,
              "duration": 0.010416666666666666
            },
            {
              "pitch": 40,
              "velocity": 90,
              "position": 1,
              "duration": 0.020833333333333332
            },
            {
              "pitch": 40,
              "velocity": 26,
              "position": 1.25,
              "duration": 0.020833333333333332
            },
            {
              "pitch": 36,
              "velocity": 30,
              "position": 1.5,
              "duration": 0.010416666666666666
            },
            {
              "pitch": 53,
              "velocity": 57,
              "position": 1.5,
              "duration": 0.010416666666666666
            },
            {
              "pitch": 46,
              "velocity": 49,
              "position": 1.5,
              "duration": 0.010416666666666666
            },
            {
              "pitch": 40,
              "velocity": 26,
              "position": 1.75,
              "duration": 0.020833333333333332
            },
            {
              "pitch": 36,
              "velocity": 98,
              "position": 1.7708333333333333,
              "duration": 0.010416666666666666
            },
            {
              "pitch": 44,
              "velocity": 30,
              "position": 2,
              "duration": 0.010416666666666666
            },
            {
              "pitch": 40,
              "velocity": 26,
              "position": 2.25,
              "duration": 0.020833333333333332
            },
            {
              "pitch": 36,
              "velocity": 70,
              "position": 2.2708333333333335,
              "duration": 0.010416666666666666
            },
            {
              "pitch": 46,
              "velocity": 49,
              "position": 2.5,
              "duration": 0.010416666666666666
            },
            {
              "pitch": 53,
              "velocity": 52,
              "position": 2.5,
              "duration": 0.010416666666666666
            },
            {
              "pitch": 40,
              "velocity": 31,
              "position": 2.75,
              "duration": 0.020833333333333332
            },
            {
              "pitch": 40,
              "velocity": 25,
              "position": 2.875,
              "duration": 0.020833333333333332
            },
            {
              "pitch": 44,
              "velocity": 30,
              "position": 3,
              "duration": 0.010416666666666666
            },
            {
              "pitch": 40,
              "velocity": 90,
              "position": 3,
              "duration": 0.020833333333333332
            },
            {
              "pitch": 40,
              "velocity": 18,
              "position": 3.25,
              "duration": 0.020833333333333332
            },
            {
              "pitch": 46,
              "velocity": 49,
              "position": 3.5,
              "duration": 0.010416666666666666
            },
            {
              "pitch": 53,
              "velocity": 67,
              "position": 3.5,
              "duration": 0.010416666666666666
            },
            {
              "pitch": 36,
              "velocity": 70,
              "position": 3.5208333333333335,
              "duration": 0.010416666666666666
            },
            {
              "pitch": 40,
              "velocity": 43,
              "position": 3.75,
              "duration": 0.020833333333333332
            },
            {
              "pitch": 36,
              "velocity": 98,
              "position": 4,
              "duration": 0.010416666666666666
            },
            {
              "pitch": 44,
              "velocity": 30,
              "position": 4,
              "duration": 0.010416666666666666
            },
            {
              "pitch": 40,
              "velocity": 26,
              "position": 4.25,
              "duration": 0.020833333333333332
            },
            {
              "pitch": 46,
              "velocity": 49,
              "position": 4.5,
              "duration": 0.010416666666666666
            },
            {
              "pitch": 53,
              "velocity": 62,
              "position": 4.5,
              "duration": 0.010416666666666666
            },
            {
              "pitch": 40,
              "velocity": 26,
              "position": 4.75,
              "duration": 0.020833333333333332
            },
            {
              "pitch": 44,
              "velocity": 30,
              "position": 5,
              "duration": 0.010416666666666666
            },
            {
              "pitch": 40,
              "velocity": 90,
              "position": 5,
              "duration": 0.020833333333333332
            },
            {
              "pitch": 40,
              "velocity": 26,
              "position": 5.25,
              "duration": 0.020833333333333332
            },
            {
              "pitch": 36,
              "velocity": 30,
              "position": 5.5,
              "duration": 0.010416666666666666
            },
            {
              "pitch": 53,
              "velocity": 57,
              "position": 5.5,
              "duration": 0.010416666666666666
            },
            {
              "pitch": 46,
              "velocity": 49,
              "position": 5.5,
              "duration": 0.010416666666666666
            },
            {
              "pitch": 40,
              "velocity": 26,
              "position": 5.75,
              "duration": 0.020833333333333332
            },
            {
              "pitch": 36,
              "velocity": 98,
              "position": 5.770833333333333,
              "duration": 0.010416666666666666
            },
            {
              "pitch": 44,
              "velocity": 30,
              "position": 6,
              "duration": 0.010416666666666666
            },
            {
              "pitch": 40,
              "velocity": 26,
              "position": 6.25,
              "duration": 0.020833333333333332
            },
            {
              "pitch": 36,
              "velocity": 70,
              "position": 6.270833333333333,
              "duration": 0.010416666666666666
            },
            {
              "pitch": 46,
              "velocity": 49,
              "position": 6.5,
              "duration": 0.010416666666666666
            },
            {
              "pitch": 53,
              "velocity": 52,
              "position": 6.5,
              "duration": 0.010416666666666666
            },
            {
              "pitch": 40,
              "velocity": 31,
              "position": 6.75,
              "duration": 0.020833333333333332
            },
            {
              "pitch": 40,
              "velocity": 25,
              "position": 6.875,
              "duration": 0.020833333333333332
            },
            {
              "pitch": 44,
              "velocity": 30,
              "position": 7,
              "duration": 0.010416666666666666
            },
            {
              "pitch": 40,
              "velocity": 90,
              "position": 7,
              "duration": 0.020833333333333332
            },
            {
              "pitch": 46,
              "velocity": 49,
              "position": 7.5,
              "duration": 0.010416666666666666
            },
            {
              "pitch": 53,
              "velocity": 67,
              "position": 7.5,
              "duration": 0.010416666666666666
            },
            {
              "pitch": 36,
              "velocity": 70,
              "position": 7.520833333333333,
              "duration": 0.010416666666666666
            },
            {
              "pitch": 40,
              "velocity": 38,
              "position": 7.75,
              "duration": 0.020833333333333332
            },
            {
              "pitch": 36,
              "velocity": 98,
              "position": 8,
              "duration": 0.010416666666666666
            },
            {
              "pitch": 44,
              "velocity": 30,
              "position": 8,
              "duration": 0.010416666666666666
            },
            {
              "pitch": 40,
              "velocity": 26,
              "position": 8.25,
              "duration": 0.020833333333333332
            },
            {
              "pitch": 46,
              "velocity": 49,
              "position": 8.5,
              "duration": 0.010416666666666666
            },
            {
              "pitch": 53,
              "velocity": 62,
              "position": 8.5,
              "duration": 0.010416666666666666
            },
            {
              "pitch": 40,
              "velocity": 26,
              "position": 8.75,
              "duration": 0.020833333333333332
            },
            {
              "pitch": 44,
              "velocity": 30,
              "position": 9,
              "duration": 0.010416666666666666
            },
            {
              "pitch": 40,
              "velocity": 90,
              "position": 9,
              "duration": 0.020833333333333332
            },
            {
              "pitch": 40,
              "velocity": 26,
              "position": 9.25,
              "duration": 0.020833333333333332
            },
            {
              "pitch": 36,
              "velocity": 30,
              "position": 9.5,
              "duration": 0.010416666666666666
            },
            {
              "pitch": 53,
              "velocity": 57,
              "position": 9.5,
              "duration": 0.010416666666666666
            },
            {
              "pitch": 46,
              "velocity": 49,
              "position": 9.5,
              "duration": 0.010416666666666666
            },
            {
              "pitch": 40,
              "velocity": 26,
              "position": 9.75,
              "duration": 0.020833333333333332
            },
            {
              "pitch": 36,
              "velocity": 98,
              "position": 9.770833333333334,
              "duration": 0.010416666666666666
            },
            {
              "pitch": 44,
              "velocity": 30,
              "position": 10,
              "duration": 0.010416666666666666
            },
            {
              "pitch": 40,
              "velocity": 26,
              "position": 10.25,
              "duration": 0.020833333333333332
            },
            {
              "pitch": 36,
              "velocity": 70,
              "position": 10.270833333333334,
              "duration": 0.010416666666666666
            },
            {
              "pitch": 46,
              "velocity": 49,
              "position": 10.5,
              "duration": 0.010416666666666666
            },
            {
              "pitch": 53,
              "velocity": 52,
              "position": 10.5,
              "duration": 0.010416666666666666
            },
            {
              "pitch": 40,
              "velocity": 31,
              "position": 10.75,
              "duration": 0.020833333333333332
            },
            {
              "pitch": 40,
              "velocity": 25,
              "position": 10.875,
              "duration": 0.020833333333333332
            },
            {
              "pitch": 44,
              "velocity": 30,
              "position": 11,
              "duration": 0.010416666666666666
            },
            {
              "pitch": 40,
              "velocity": 90,
              "position": 11,
              "duration": 0.020833333333333332
            },
            {
              "pitch": 40,
              "velocity": 33,
              "position": 11.25,
              "duration": 0.020833333333333332
            },
            {
              "pitch": 46,
              "velocity": 49,
              "position": 11.5,
              "duration": 0.010416666666666666
            },
            {
              "pitch": 53,
              "velocity": 67,
              "position": 11.5,
              "duration": 0.010416666666666666
            },
            {
              "pitch": 36,
              "velocity": 70,
              "position": 11.520833333333334,
              "duration": 0.010416666666666666
            },
            {
              "pitch": 36,
              "velocity": 98,
              "position": 12,
              "duration": 0.010416666666666666
            },
            {
              "pitch": 44,
              "velocity": 30,
              "position": 12,
              "duration": 0.010416666666666666
            },
            {
              "pitch": 40,
              "velocity": 26,
              "position": 12.25,
              "duration": 0.020833333333333332
            },
            {
              "pitch": 46,
              "velocity": 49,
              "position": 12.5,
              "duration": 0.010416666666666666
            },
            {
              "pitch": 53,
              "velocity": 62,
              "position": 12.5,
              "duration": 0.010416666666666666
            },
            {
              "pitch": 40,
              "velocity": 26,
              "position": 12.75,
              "duration": 0.020833333333333332
            },
            {
              "pitch": 44,
              "velocity": 30,
              "position": 13,
              "duration": 0.010416666666666666
            },
            {
              "pitch": 40,
              "velocity": 90,
              "position": 13,
              "duration": 0.020833333333333332
            },
            {
              "pitch": 40,
              "velocity": 26,
              "position": 13.25,
              "duration": 0.020833333333333332
            },
            {
              "pitch": 36,
              "velocity": 30,
              "position": 13.5,
              "duration": 0.010416666666666666
            },
            {
              "pitch": 53,
              "velocity": 57,
              "position": 13.5,
              "duration": 0.010416666666666666
            },
            {
              "pitch": 46,
              "velocity": 49,
              "position": 13.5,
              "duration": 0.010416666666666666
            },
            {
              "pitch": 40,
              "velocity": 26,
              "position": 13.75,
              "duration": 0.020833333333333332
            },
            {
              "pitch": 36,
              "velocity": 98,
              "position": 13.770833333333334,
              "duration": 0.010416666666666666
            },
            {
              "pitch": 44,
              "velocity": 30,
              "position": 14,
              "duration": 0.010416666666666666
            },
            {
              "pitch": 40,
              "velocity": 26,
              "position": 14.25,
              "duration": 0.020833333333333332
            },
            {
              "pitch": 36,
              "velocity": 70,
              "position": 14.270833333333334,
              "duration": 0.010416666666666666
            },
            {
              "pitch": 46,
              "velocity": 49,
              "position": 14.5,
              "duration": 0.010416666666666666
            },
            {
              "pitch": 53,
              "velocity": 52,
              "position": 14.5,
              "duration": 0.010416666666666666
            },
            {
              "pitch": 40,
              "velocity": 31,
              "position": 14.75,
              "duration": 0.020833333333333332
            },
            {
              "pitch": 40,
              "velocity": 25,
              "position": 14.875,
              "duration": 0.020833333333333332
            },
            {
              "pitch": 44,
              "velocity": 30,
              "position": 15,
              "duration": 0.010416666666666666
            },
            {
              "pitch": 40,
              "velocity": 90,
              "position": 15,
              "duration": 0.020833333333333332
            },
            {
              "pitch": 40,
              "velocity": 17,
              "position": 15.25,
              "duration": 0.020833333333333332
            },
            {
              "pitch": 46,
              "velocity": 49,
              "position": 15.5,
              "duration": 0.010416666666666666
            },
            {
              "pitch": 53,
              "velocity": 67,
              "position": 15.5,
              "duration": 0.010416666666666666
            },
            {
              "pitch": 36,
              "velocity": 70,
              "position": 15.520833333333334,
              "duration": 0.010416666666666666
            },
            {
              "pitch": 40,
              "velocity": 41,
              "position": 15.75,
              "duration": 0.020833333333333332
            }
          ]
        },
        "10": {
          "ctab": {
            "srcChannel": 10,
            "name": "Bass",
            "accType": "BASS",
            "editable": false,
            "mutedNotes": [],
            "mutedChords": [],
            "autoStart": false,
            "sourceChordNote": 0,
            "sourceChordType": "Maj7",
            "ctb2Low": null,
            "ctb2Main": {
              "ntr": "ROOT_TRANSPOSITION",
              "ntt": "MELODY",
              "bassOn": true,
              "chordRootUpperLimit": 3,
              "noteLowLimit": 28,
              "noteHighLimit": 127,
              "rtr": "PITCH_SHIFT_TO_ROOT"
            },
            "ctb2High": null
          },
          "notes": [
            {
              "pitch": 24,
              "velocity": 92,
              "position": 0,
              "duration": 0.4895833333333333
            },
            {
              "pitch": 24,
              "velocity": 80,
              "position": 0.5,
              "duration": 0.4895833333333333
            },
            {
              "pitch": 24,
              "velocity": 80,
              "position": 1,
              "duration": 0.4270833333333333
            },
            {
              "pitch": 24,
              "velocity": 80,
              "position": 1.5208333333333333,
              "duration": 0.23958333333333334
            },
            {
              "pitch": 24,
              "velocity": 81,
              "position": 1.7708333333333333,
              "duration": 0.4895833333333333
            },
            {
              "pitch": 24,
              "velocity": 80,
              "position": 2.2708333333333335,
              "duration": 0.21875
            },
            {
              "pitch": 24,
              "velocity": 81,
              "position": 2.5,
              "duration": 0.9166666666666666
            },
            {
              "pitch": 24,
              "velocity": 80,
              "position": 3.5,
              "duration": 0.20833333333333334
            },
            {
              "pitch": 24,
              "velocity": 80,
              "position": 3.7708333333333335,
              "duration": 0.21875
            },
            {
              "pitch": 24,
              "velocity": 92,
              "position": 4,
              "duration": 0.4895833333333333
            },
            {
              "pitch": 24,
              "velocity": 80,
              "position": 4.5,
              "duration": 0.4895833333333333
            },
            {
              "pitch": 24,
              "velocity": 80,
              "position": 5,
              "duration": 0.4270833333333333
            },
            {
              "pitch": 24,
              "velocity": 80,
              "position": 5.520833333333333,
              "duration": 0.23958333333333334
            },
            {
              "pitch": 24,
              "velocity": 81,
              "position": 5.770833333333333,
              "duration": 0.4895833333333333
            },
            {
              "pitch": 24,
              "velocity": 80,
              "position": 6.270833333333333,
              "duration": 0.21875
            },
            {
              "pitch": 24,
              "velocity": 81,
              "position": 6.5,
              "duration": 0.9166666666666666
            },
            {
              "pitch": 24,
              "velocity": 80,
              "position": 7.5,
              "duration": 0.20833333333333334
            },
            {
              "pitch": 24,
              "velocity": 80,
              "position": 7.770833333333333,
              "duration": 0.21875
            },
            {
              "pitch": 24,
              "velocity": 92,
              "position": 8,
              "duration": 0.4895833333333333
            },
            {
              "pitch": 24,
              "velocity": 80,
              "position": 8.5,
              "duration": 0.4895833333333333
            },
            {
              "pitch": 24,
              "velocity": 80,
              "position": 9,
              "duration": 0.4270833333333333
            },
            {
              "pitch": 24,
              "velocity": 80,
              "position": 9.520833333333334,
              "duration": 0.23958333333333334
            },
            {
              "pitch": 24,
              "velocity": 81,
              "position": 9.770833333333334,
              "duration": 0.4895833333333333
            },
            {
              "pitch": 24,
              "velocity": 80,
              "position": 10.270833333333334,
              "duration": 0.21875
            },
            {
              "pitch": 24,
              "velocity": 81,
              "position": 10.5,
              "duration": 0.9166666666666666
            },
            {
              "pitch": 24,
              "velocity": 80,
              "position": 11.5,
              "duration": 0.20833333333333334
            },
            {
              "pitch": 24,
              "velocity": 80,
              "position": 11.770833333333334,
              "duration": 0.21875
            },
            {
              "pitch": 24,
              "velocity": 92,
              "position": 12,
              "duration": 0.4895833333333333
            },
            {
              "pitch": 24,
              "velocity": 80,
              "position": 12.5,
              "duration": 0.4895833333333333
            },
            {
              "pitch": 24,
              "velocity": 80,
              "position": 13,
              "duration": 0.4270833333333333
            },
            {
              "pitch": 24,
              "velocity": 80,
              "position": 13.520833333333334,
              "duration": 0.23958333333333334
            },
            {
              "pitch": 24,
              "velocity": 81,
              "position": 13.770833333333334,
              "duration": 0.4895833333333333
            },
            {
              "pitch": 24,
              "velocity": 80,
              "position": 14.270833333333334,
              "duration": 0.21875
            },
            {
              "pitch": 24,
              "velocity": 81,
              "position": 14.5,
              "duration": 0.9166666666666666
            },
            {
              "pitch": 24,
              "velocity": 80,
              "position": 15.5,
              "duration": 0.20833333333333334
            },
            {
              "pitch": 24,
              "velocity": 80,
              "position": 15.770833333333334,
              "duration": 0.21875
            }
          ]
        },
        "11": {
          "ctab": {
            "srcChannel": 11,
            "name": "12stGtr",
            "accType": "CHORD1",
            "editable": false,
            "mutedNotes": [],
            "mutedChords": [],
            "autoStart": false,
            "sourceChordNote": 0,
            "sourceChordType": "Maj7",
            "ctb2Low": null,
            "ctb2Main": {
              "ntr": "ROOT_FIXED",
              "ntt": "CHORD",
              "bassOn": false,
              "chordRootUpperLimit": 7,
              "noteLowLimit": 50,
              "noteHighLimit": 127,
              "rtr": "PITCH_SHIFT"
            },
            "ctb2High": null
          },
          "notes": [
            {
              "pitch": 67,
              "velocity": 100,
              "position": 0.03125,
              "duration": 0.7083333333333334
            },
            {
              "pitch": 59,
              "velocity": 89,
              "position": 0.010416666666666666,
              "duration": 0.7395833333333334
            },
            {
              "pitch": 64,
              "velocity": 100,
              "position": 0.020833333333333332,
              "duration": 0.7291666666666666
            },
            {
              "pitch": 67,
              "velocity": 94,
              "position": 0.75,
              "duration": 0.3125
            },
            {
              "pitch": 64,
              "velocity": 94,
              "position": 0.7604166666666666,
              "duration": 0.3125
            },
            {
              "pitch": 59,
              "velocity": 94,
              "position": 0.7708333333333334,
              "duration": 0.35
            },
            {
              "pitch": 59,
              "velocity": 40,
              "position": 1.25,
              "duration": 0.23958333333333334
            },
            {
              "pitch": 64,
              "velocity": 40,
              "position": 1.25,
              "duration": 0.23958333333333334
            },
            {
              "pitch": 67,
              "velocity": 102,
              "position": 1.53125,
              "duration": 0.7083333333333334
            },
            {
              "pitch": 59,
              "velocity": 85,
              "position": 1.5104166666666667,
              "duration": 0.7395833333333334
            },
            {
              "pitch": 64,
              "velocity": 108,
              "position": 1.5208333333333333,
              "duration": 0.7291666666666666
            },
            {
              "pitch": 59,
              "velocity": 93,
              "position": 2.2708333333333335,
              "duration": 0.43333333333333335
            },
            {
              "pitch": 64,
              "velocity": 90,
              "position": 2.2604166666666665,
              "duration": 0.46875
            },
            {
              "pitch": 59,
              "velocity": 40,
              "position": 2.75,
              "duration": 0.23958333333333334
            },
            {
              "pitch": 64,
              "velocity": 40,
              "position": 2.75,
              "duration": 0.23958333333333334
            },
            {
              "pitch": 67,
              "velocity": 90,
              "position": 2.25,
              "duration": 0.7416666666666667
            },
            {
              "pitch": 59,
              "velocity": 86,
              "position": 3,
              "duration": 0.7395833333333334
            },
            {
              "pitch": 64,
              "velocity": 92,
              "position": 3.0104166666666665,
              "duration": 0.7291666666666666
            },
            {
              "pitch": 67,
              "velocity": 95,
              "position": 3.0208333333333335,
              "duration": 0.96875
            },
            {
              "pitch": 64,
              "velocity": 40,
              "position": 3.75,
              "duration": 0.23958333333333334
            },
            {
              "pitch": 59,
              "velocity": 40,
              "position": 3.75,
              "duration": 0.23958333333333334
            },
            {
              "pitch": 67,
              "velocity": 112,
              "position": 4.03125,
              "duration": 0.7083333333333334
            },
            {
              "pitch": 59,
              "velocity": 89,
              "position": 4.010416666666667,
              "duration": 0.7395833333333334
            },
            {
              "pitch": 64,
              "velocity": 109,
              "position": 4.020833333333333,
              "duration": 0.7291666666666666
            },
            {
              "pitch": 67,
              "velocity": 98,
              "position": 4.75,
              "duration": 0.3125
            },
            {
              "pitch": 64,
              "velocity": 98,
              "position": 4.760416666666667,
              "duration": 0.3125
            },
            {
              "pitch": 59,
              "velocity": 98,
              "position": 4.770833333333333,
              "duration": 0.35
            },
            {
              "pitch": 59,
              "velocity": 40,
              "position": 5.25,
              "duration": 0.23958333333333334
            },
            {
              "pitch": 64,
              "velocity": 40,
              "position": 5.25,
              "duration": 0.23958333333333334
            },
            {
              "pitch": 67,
              "velocity": 96,
              "position": 5.53125,
              "duration": 0.7083333333333334
            },
            {
              "pitch": 59,
              "velocity": 85,
              "position": 5.510416666666667,
              "duration": 0.7395833333333334
            },
            {
              "pitch": 64,
              "velocity": 102,
              "position": 5.520833333333333,
              "duration": 0.7291666666666666
            },
            {
              "pitch": 59,
              "velocity": 93,
              "position": 6.270833333333333,
              "duration": 0.43333333333333335
            },
            {
              "pitch": 64,
              "velocity": 96,
              "position": 6.260416666666667,
              "duration": 0.46875
            },
            {
              "pitch": 59,
              "velocity": 40,
              "position": 6.75,
              "duration": 0.23958333333333334
            },
            {
              "pitch": 64,
              "velocity": 40,
              "position": 6.75,
              "duration": 0.23958333333333334
            },
            {
              "pitch": 67,
              "velocity": 96,
              "position": 6.25,
              "duration": 0.7416666666666667
            },
            {
              "pitch": 59,
              "velocity": 90,
              "position": 7.010416666666667,
              "duration": 0.4895833333333333
            },
            {
              "pitch": 64,
              "velocity": 100,
              "position": 7.020833333333333,
              "duration": 0.4895833333333333
            },
            {
              "pitch": 67,
              "velocity": 100,
              "position": 7.03125,
              "duration": 0.48125
            },
            {
              "pitch": 59,
              "velocity": 70,
              "position": 7.510416666666667,
              "duration": 0.22916666666666666
            },
            {
              "pitch": 67,
              "velocity": 70,
              "position": 7.53125,
              "duration": 0.20833333333333334
            },
            {
              "pitch": 64,
              "velocity": 70,
              "position": 7.520833333333333,
              "duration": 0.21875
            },
            {
              "pitch": 59,
              "velocity": 30,
              "position": 7.75,
              "duration": 0.23958333333333334
            },
            {
              "pitch": 67,
              "velocity": 30,
              "position": 7.75,
              "duration": 0.23958333333333334
            },
            {
              "pitch": 64,
              "velocity": 30,
              "position": 7.75,
              "duration": 0.23958333333333334
            },
            {
              "pitch": 67,
              "velocity": 100,
              "position": 8.03125,
              "duration": 0.7083333333333334
            },
            {
              "pitch": 59,
              "velocity": 89,
              "position": 8.010416666666666,
              "duration": 0.7395833333333334
            },
            {
              "pitch": 64,
              "velocity": 100,
              "position": 8.020833333333334,
              "duration": 0.7291666666666666
            },
            {
              "pitch": 67,
              "velocity": 94,
              "position": 8.75,
              "duration": 0.3125
            },
            {
              "pitch": 64,
              "velocity": 94,
              "position": 8.760416666666666,
              "duration": 0.3125
            },
            {
              "pitch": 59,
              "velocity": 94,
              "position": 8.770833333333334,
              "duration": 0.35
            },
            {
              "pitch": 59,
              "velocity": 40,
              "position": 9.25,
              "duration": 0.23958333333333334
            },
            {
              "pitch": 64,
              "velocity": 40,
              "position": 9.25,
              "duration": 0.23958333333333334
            },
            {
              "pitch": 67,
              "velocity": 102,
              "position": 9.53125,
              "duration": 0.7083333333333334
            },
            {
              "pitch": 59,
              "velocity": 85,
              "position": 9.510416666666666,
              "duration": 0.7395833333333334
            },
            {
              "pitch": 64,
              "velocity": 108,
              "position": 9.520833333333334,
              "duration": 0.7291666666666666
            },
            {
              "pitch": 59,
              "velocity": 93,
              "position": 10.270833333333334,
              "duration": 0.43333333333333335
            },
            {
              "pitch": 64,
              "velocity": 90,
              "position": 10.260416666666666,
              "duration": 0.46875
            },
            {
              "pitch": 59,
              "velocity": 40,
              "position": 10.75,
              "duration": 0.23958333333333334
            },
            {
              "pitch": 64,
              "velocity": 40,
              "position": 10.75,
              "duration": 0.23958333333333334
            },
            {
              "pitch": 67,
              "velocity": 90,
              "position": 10.25,
              "duration": 0.7416666666666667
            },
            {
              "pitch": 59,
              "velocity": 86,
              "position": 11,
              "duration": 0.7395833333333334
            },
            {
              "pitch": 64,
              "velocity": 92,
              "position": 11.010416666666666,
              "duration": 0.7291666666666666
            },
            {
              "pitch": 67,
              "velocity": 95,
              "position": 11.020833333333334,
              "duration": 0.96875
            },
            {
              "pitch": 64,
              "velocity": 40,
              "position": 11.75,
              "duration": 0.23958333333333334
            },
            {
              "pitch": 59,
              "velocity": 40,
              "position": 11.75,
              "duration": 0.23958333333333334
            },
            {
              "pitch": 67,
              "velocity": 112,
              "position": 12.03125,
              "duration": 0.7083333333333334
            },
            {
              "pitch": 59,
              "velocity": 89,
              "position": 12.010416666666666,
              "duration": 0.7395833333333334
            },
            {
              "pitch": 64,
              "velocity": 109,
              "position": 12.020833333333334,
              "duration": 0.7291666666666666
            },
            {
              "pitch": 67,
              "velocity": 94,
              "position": 12.75,
              "duration": 0.3125
            },
            {
              "pitch": 64,
              "velocity": 94,
              "position": 12.760416666666666,
              "duration": 0.3125
            },
            {
              "pitch": 59,
              "velocity": 94,
              "position": 12.770833333333334,
              "duration": 0.35
            },
            {
              "pitch": 59,
              "velocity": 40,
              "position": 13.25,
              "duration": 0.23958333333333334
            },
            {
              "pitch": 64,
              "velocity": 40,
              "position": 13.25,
              "duration": 0.23958333333333334
            },
            {
              "pitch": 67,
              "velocity": 96,
              "position": 13.53125,
              "duration": 0.7083333333333334
            },
            {
              "pitch": 59,
              "velocity": 85,
              "position": 13.510416666666666,
              "duration": 0.7395833333333334
            },
            {
              "pitch": 64,
              "velocity": 102,
              "position": 13.520833333333334,
              "duration": 0.7291666666666666
            },
            {
              "pitch": 59,
              "velocity": 93,
              "position": 14.270833333333334,
              "duration": 0.43333333333333335
            },
            {
              "pitch": 64,
              "velocity": 96,
              "position": 14.260416666666666,
              "duration": 0.46875
            },
            {
              "pitch": 59,
              "velocity": 40,
              "position": 14.75,
              "duration": 0.23958333333333334
            },
            {
              "pitch": 64,
              "velocity": 40,
              "position": 14.75,
              "duration": 0.23958333333333334
            },
            {
              "pitch": 67,
              "velocity": 96,
              "position": 14.25,
              "duration": 0.7416666666666667
            },
            {
              "pitch": 59,
              "velocity": 90,
              "position": 15.010416666666666,
              "duration": 0.4895833333333333
            },
            {
              "pitch": 64,
              "velocity": 100,
              "position": 15.020833333333334,
              "duration": 0.4895833333333333
            },
            {
              "pitch": 67,
              "velocity": 100,
              "position": 15.03125,
              "duration": 0.48125
            },
            {
              "pitch": 59,
              "velocity": 70,
              "position": 15.510416666666666,
              "duration": 0.22916666666666666
            },
            {
              "pitch": 67,
              "velocity": 70,
              "position": 15.53125,
              "duration": 0.20833333333333334
            },
            {
              "pitch": 64,
              "velocity": 70,
              "position": 15.520833333333334,
              "duration": 0.21875
            },
            {
              "pitch": 59,
              "velocity": 30,
              "position": 15.75,
              "duration": 0.23958333333333334
            },
            {
              "pitch": 67,
              "velocity": 30,
              "position": 15.75,
              "duration": 0.23958333333333334
            },
            {
              "pitch": 64,
              "velocity": 30,
              "position": 15.75,
              "duration": 0.23958333333333334
            }
          ]
        },
        "12": {
          "ctab": {
            "srcChannel": 12,
            "name": "MuteGtr",
            "accType": "CHORD2",
            "editable": false,
            "mutedNotes": [],
            "mutedChords": [],
            "autoStart": false,
            "sourceChordNote": 0,
            "sourceChordType": "min7(11)",
            "ctb2Low": null,
            "ctb2Main": {
              "ntr": "ROOT_FIXED",
              "ntt": "CHORD",
              "bassOn": false,
              "chordRootUpperLimit": 7,
              "noteLowLimit": 50,
              "noteHighLimit": 127,
              "rtr": "PITCH_SHIFT"
            },
            "ctb2High": null
          },
          "notes": [
            {
              "pitch": 48,
              "velocity": 70,
              "position": 0,
              "duration": 0.18125
            },
            {
              "pitch": 48,
              "velocity": 70,
              "position": 0.75,
              "duration": 0.12083333333333333
            },
            {
              "pitch": 48,
              "velocity": 70,
              "position": 1.5,
              "duration": 0.15
            },
            {
              "pitch": 48,
              "velocity": 70,
              "position": 2.25,
              "duration": 0.15208333333333332
            },
            {
              "pitch": 41,
              "velocity": 68,
              "position": 2.75,
              "duration": 0.23958333333333334
            },
            {
              "pitch": 46,
              "velocity": 70,
              "position": 3,
              "duration": 0.15208333333333332
            },
            {
              "pitch": 48,
              "velocity": 70,
              "position": 3.25,
              "duration": 0.15625
            },
            {
              "pitch": 46,
              "velocity": 32,
              "position": 3.5,
              "duration": 0.18958333333333333
            },
            {
              "pitch": 41,
              "velocity": 68,
              "position": 3.75,
              "duration": 0.11875
            },
            {
              "pitch": 48,
              "velocity": 70,
              "position": 4,
              "duration": 0.15208333333333332
            },
            {
              "pitch": 48,
              "velocity": 70,
              "position": 4.75,
              "duration": 0.15625
            },
            {
              "pitch": 48,
              "velocity": 70,
              "position": 5.5,
              "duration": 0.15625
            },
            {
              "pitch": 48,
              "velocity": 70,
              "position": 6.25,
              "duration": 0.13541666666666666
            },
            {
              "pitch": 41,
              "velocity": 68,
              "position": 6.75,
              "duration": 0.14791666666666667
            },
            {
              "pitch": 46,
              "velocity": 70,
              "position": 7,
              "duration": 0.11458333333333333
            },
            {
              "pitch": 48,
              "velocity": 70,
              "position": 7.25,
              "duration": 0.14166666666666666
            },
            {
              "pitch": 46,
              "velocity": 32,
              "position": 7.5,
              "duration": 0.15625
            },
            {
              "pitch": 41,
              "velocity": 68,
              "position": 7.75,
              "duration": 0.10833333333333334
            },
            {
              "pitch": 48,
              "velocity": 70,
              "position": 8,
              "duration": 0.16666666666666666
            },
            {
              "pitch": 48,
              "velocity": 70,
              "position": 8.75,
              "duration": 0.17291666666666666
            },
            {
              "pitch": 48,
              "velocity": 70,
              "position": 9.5,
              "duration": 0.17291666666666666
            },
            {
              "pitch": 48,
              "velocity": 70,
              "position": 10.25,
              "duration": 0.14583333333333334
            },
            {
              "pitch": 41,
              "velocity": 68,
              "position": 10.75,
              "duration": 0.14583333333333334
            },
            {
              "pitch": 46,
              "velocity": 70,
              "position": 11,
              "duration": 0.12916666666666668
            },
            {
              "pitch": 48,
              "velocity": 70,
              "position": 11.25,
              "duration": 0.13541666666666666
            },
            {
              "pitch": 46,
              "velocity": 31,
              "position": 11.5,
              "duration": 0.16041666666666668
            },
            {
              "pitch": 41,
              "velocity": 68,
              "position": 11.75,
              "duration": 0.1
            },
            {
              "pitch": 48,
              "velocity": 70,
              "position": 12,
              "duration": 0.18125
            },
            {
              "pitch": 48,
              "velocity": 70,
              "position": 12.75,
              "duration": 0.14791666666666667
            },
            {
              "pitch": 48,
              "velocity": 70,
              "position": 13.5,
              "duration": 0.14791666666666667
            },
            {
              "pitch": 48,
              "velocity": 70,
              "position": 14.25,
              "duration": 0.12708333333333333
            },
            {
              "pitch": 41,
              "velocity": 68,
              "position": 14.75,
              "duration": 0.125
            },
            {
              "pitch": 46,
              "velocity": 70,
              "position": 15,
              "duration": 0.11875
            },
            {
              "pitch": 48,
              "velocity": 70,
              "position": 15.25,
              "duration": 0.15625
            },
            {
              "pitch": 46,
              "velocity": 32,
              "position": 15.5,
              "duration": 0.010416666666666666
            }
          ]
        },
        "13": {
          "ctab": {
            "srcChannel": 13,
            "name": "Strings",
            "accType": "PAD",
            "editable": false,
            "mutedNotes": [],
            "mutedChords": [],
            "autoStart": false,
            "sourceChordNote": 0,
            "sourceChordType": "Maj7",
            "ctb2Low": null,
            "ctb2Main": {
              "ntr": "ROOT_FIXED",
              "ntt": "CHORD",
              "bassOn": false,
              "chordRootUpperLimit": 7,
              "noteLowLimit": 0,
              "noteHighLimit": 127,
              "rtr": "PITCH_SHIFT"
            },
            "ctb2High": null
          },
          "notes": [
            {
              "pitch": 55,
              "velocity": 40,
              "position": 0,
              "duration": 7.989583333333333
            },
            {
              "pitch": 64,
              "velocity": 40,
              "position": 0,
              "duration": 7.989583333333333
            },
            {
              "pitch": 59,
              "velocity": 40,
              "position": 0,
              "duration": 7.989583333333333
            },
            {
              "pitch": 55,
              "velocity": 40,
              "position": 8,
              "duration": 7.989583333333333
            },
            {
              "pitch": 64,
              "velocity": 40,
              "position": 8,
              "duration": 7.989583333333333
            },
            {
              "pitch": 59,
              "velocity": 40,
              "position": 8,
              "duration": 7.989583333333333
            }
          ]
        },
        "14": {
          "ctab": {
            "srcChannel": 14,
            "name": "add GTR",
            "accType": "PHRASE2",
            "editable": false,
            "mutedNotes": [],
            "mutedChords": [],
            "autoStart": false,
            "sourceChordNote": 0,
            "sourceChordType": "Maj7",
            "ctb2Low": null,
            "ctb2Main": {
              "ntr": "ROOT_FIXED",
              "ntt": "CHORD",
              "bassOn": false,
              "chordRootUpperLimit": 7,
              "noteLowLimit": 40,
              "noteHighLimit": 127,
              "rtr": "PITCH_SHIFT"
            },
            "ctb2High": null
          },
          "notes": [
            {
              "pitch": 59,
              "velocity": 108,
              "position": 0.010416666666666666,
              "duration": 0.9791666666666666
            },
            {
              "pitch": 55,
              "velocity": 108,
              "position": 0.03125,
              "duration": 0.9583333333333334
            },
            {
              "pitch": 64,
              "velocity": 108,
              "position": 0.020833333333333332,
              "duration": 0.96875
            },
            {
              "pitch": 55,
              "velocity": 93,
              "position": 1,
              "duration": 0.23958333333333334
            },
            {
              "pitch": 64,
              "velocity": 93,
              "position": 1,
              "duration": 0.23958333333333334
            },
            {
              "pitch": 59,
              "velocity": 93,
              "position": 1,
              "duration": 0.23958333333333334
            },
            {
              "pitch": 55,
              "velocity": 83,
              "position": 1.5,
              "duration": 0.23958333333333334
            },
            {
              "pitch": 64,
              "velocity": 83,
              "position": 1.5,
              "duration": 0.23958333333333334
            },
            {
              "pitch": 59,
              "velocity": 83,
              "position": 1.5,
              "duration": 0.23958333333333334
            },
            {
              "pitch": 55,
              "velocity": 108,
              "position": 1.75,
              "duration": 0.5104166666666666
            },
            {
              "pitch": 64,
              "velocity": 108,
              "position": 1.75,
              "duration": 0.5104166666666666
            },
            {
              "pitch": 59,
              "velocity": 108,
              "position": 1.75,
              "duration": 0.5104166666666666
            },
            {
              "pitch": 55,
              "velocity": 85,
              "position": 2.2708333333333335,
              "duration": 0.21875
            },
            {
              "pitch": 64,
              "velocity": 85,
              "position": 2.2708333333333335,
              "duration": 0.21875
            },
            {
              "pitch": 59,
              "velocity": 85,
              "position": 2.2708333333333335,
              "duration": 0.21875
            },
            {
              "pitch": 55,
              "velocity": 108,
              "position": 2.5,
              "duration": 0.4895833333333333
            },
            {
              "pitch": 64,
              "velocity": 108,
              "position": 2.5,
              "duration": 0.4895833333333333
            },
            {
              "pitch": 59,
              "velocity": 108,
              "position": 2.5,
              "duration": 0.4895833333333333
            },
            {
              "pitch": 55,
              "velocity": 75,
              "position": 3,
              "duration": 0.23958333333333334
            },
            {
              "pitch": 64,
              "velocity": 75,
              "position": 3,
              "duration": 0.23958333333333334
            },
            {
              "pitch": 59,
              "velocity": 75,
              "position": 3,
              "duration": 0.23958333333333334
            },
            {
              "pitch": 55,
              "velocity": 102,
              "position": 3.25,
              "duration": 0.4895833333333333
            },
            {
              "pitch": 59,
              "velocity": 102,
              "position": 3.25,
              "duration": 0.4895833333333333
            },
            {
              "pitch": 64,
              "velocity": 102,
              "position": 3.25,
              "duration": 0.75
            },
            {
              "pitch": 59,
              "velocity": 101,
              "position": 3.75,
              "duration": 0.25
            },
            {
              "pitch": 55,
              "velocity": 101,
              "position": 3.75,
              "duration": 0.25
            },
            {
              "pitch": 59,
              "velocity": 108,
              "position": 4.010416666666667,
              "duration": 0.9791666666666666
            },
            {
              "pitch": 55,
              "velocity": 108,
              "position": 4.03125,
              "duration": 0.9583333333333334
            },
            {
              "pitch": 64,
              "velocity": 108,
              "position": 4.020833333333333,
              "duration": 0.96875
            },
            {
              "pitch": 55,
              "velocity": 93,
              "position": 5,
              "duration": 0.23958333333333334
            },
            {
              "pitch": 64,
              "velocity": 93,
              "position": 5,
              "duration": 0.23958333333333334
            },
            {
              "pitch": 59,
              "velocity": 93,
              "position": 5,
              "duration": 0.23958333333333334
            },
            {
              "pitch": 55,
              "velocity": 83,
              "position": 5.5,
              "duration": 0.23958333333333334
            },
            {
              "pitch": 64,
              "velocity": 83,
              "position": 5.5,
              "duration": 0.23958333333333334
            },
            {
              "pitch": 59,
              "velocity": 83,
              "position": 5.5,
              "duration": 0.23958333333333334
            },
            {
              "pitch": 55,
              "velocity": 108,
              "position": 5.75,
              "duration": 0.5104166666666666
            },
            {
              "pitch": 64,
              "velocity": 108,
              "position": 5.75,
              "duration": 0.5104166666666666
            },
            {
              "pitch": 59,
              "velocity": 108,
              "position": 5.75,
              "duration": 0.5104166666666666
            },
            {
              "pitch": 55,
              "velocity": 85,
              "position": 6.270833333333333,
              "duration": 0.21875
            },
            {
              "pitch": 64,
              "velocity": 85,
              "position": 6.270833333333333,
              "duration": 0.21875
            },
            {
              "pitch": 59,
              "velocity": 85,
              "position": 6.270833333333333,
              "duration": 0.21875
            },
            {
              "pitch": 55,
              "velocity": 108,
              "position": 6.5,
              "duration": 0.7395833333333334
            },
            {
              "pitch": 64,
              "velocity": 108,
              "position": 6.5,
              "duration": 0.7395833333333334
            },
            {
              "pitch": 59,
              "velocity": 108,
              "position": 6.5,
              "duration": 0.7395833333333334
            },
            {
              "pitch": 55,
              "velocity": 102,
              "position": 7.25,
              "duration": 0.4895833333333333
            },
            {
              "pitch": 59,
              "velocity": 102,
              "position": 7.25,
              "duration": 0.4895833333333333
            },
            {
              "pitch": 64,
              "velocity": 102,
              "position": 7.25,
              "duration": 0.75
            },
            {
              "pitch": 59,
              "velocity": 101,
              "position": 7.75,
              "duration": 0.25
            },
            {
              "pitch": 55,
              "velocity": 101,
              "position": 7.75,
              "duration": 0.25
            },
            {
              "pitch": 59,
              "velocity": 108,
              "position": 8.010416666666666,
              "duration": 0.9791666666666666
            },
            {
              "pitch": 55,
              "velocity": 108,
              "position": 8.03125,
              "duration": 0.9583333333333334
            },
            {
              "pitch": 64,
              "velocity": 108,
              "position": 8.020833333333334,
              "duration": 0.96875
            },
            {
              "pitch": 55,
              "velocity": 93,
              "position": 9,
              "duration": 0.23958333333333334
            },
            {
              "pitch": 64,
              "velocity": 93,
              "position": 9,
              "duration": 0.23958333333333334
            },
            {
              "pitch": 59,
              "velocity": 93,
              "position": 9,
              "duration": 0.23958333333333334
            },
            {
              "pitch": 55,
              "velocity": 83,
              "position": 9.5,
              "duration": 0.23958333333333334
            },
            {
              "pitch": 64,
              "velocity": 83,
              "position": 9.5,
              "duration": 0.23958333333333334
            },
            {
              "pitch": 59,
              "velocity": 83,
              "position": 9.5,
              "duration": 0.23958333333333334
            },
            {
              "pitch": 55,
              "velocity": 108,
              "position": 9.75,
              "duration": 0.5104166666666666
            },
            {
              "pitch": 64,
              "velocity": 108,
              "position": 9.75,
              "duration": 0.5104166666666666
            },
            {
              "pitch": 59,
              "velocity": 108,
              "position": 9.75,
              "duration": 0.5104166666666666
            },
            {
              "pitch": 55,
              "velocity": 85,
              "position": 10.270833333333334,
              "duration": 0.21875
            },
            {
              "pitch": 64,
              "velocity": 85,
              "position": 10.270833333333334,
              "duration": 0.21875
            },
            {
              "pitch": 59,
              "velocity": 85,
              "position": 10.270833333333334,
              "duration": 0.21875
            },
            {
              "pitch": 55,
              "velocity": 108,
              "position": 10.5,
              "duration": 0.4895833333333333
            },
            {
              "pitch": 64,
              "velocity": 108,
              "position": 10.5,
              "duration": 0.4895833333333333
            },
            {
              "pitch": 59,
              "velocity": 108,
              "position": 10.5,
              "duration": 0.4895833333333333
            },
            {
              "pitch": 55,
              "velocity": 75,
              "position": 11,
              "duration": 0.23958333333333334
            },
            {
              "pitch": 64,
              "velocity": 75,
              "position": 11,
              "duration": 0.23958333333333334
            },
            {
              "pitch": 59,
              "velocity": 75,
              "position": 11,
              "duration": 0.23958333333333334
            },
            {
              "pitch": 55,
              "velocity": 102,
              "position": 11.25,
              "duration": 0.75
            },
            {
              "pitch": 64,
              "velocity": 102,
              "position": 11.25,
              "duration": 0.75
            },
            {
              "pitch": 59,
              "velocity": 102,
              "position": 11.25,
              "duration": 0.75
            },
            {
              "pitch": 59,
              "velocity": 108,
              "position": 12.010416666666666,
              "duration": 0.9791666666666666
            },
            {
              "pitch": 55,
              "velocity": 108,
              "position": 12.03125,
              "duration": 0.9583333333333334
            },
            {
              "pitch": 64,
              "velocity": 108,
              "position": 12.020833333333334,
              "duration": 0.96875
            },
            {
              "pitch": 55,
              "velocity": 93,
              "position": 13,
              "duration": 0.23958333333333334
            },
            {
              "pitch": 64,
              "velocity": 93,
              "position": 13,
              "duration": 0.23958333333333334
            },
            {
              "pitch": 59,
              "velocity": 93,
              "position": 13,
              "duration": 0.23958333333333334
            },
            {
              "pitch": 55,
              "velocity": 83,
              "position": 13.5,
              "duration": 0.23958333333333334
            },
            {
              "pitch": 64,
              "velocity": 83,
              "position": 13.5,
              "duration": 0.23958333333333334
            },
            {
              "pitch": 59,
              "velocity": 83,
              "position": 13.5,
              "duration": 0.23958333333333334
            },
            {
              "pitch": 55,
              "velocity": 108,
              "position": 13.75,
              "duration": 0.5104166666666666
            },
            {
              "pitch": 64,
              "velocity": 108,
              "position": 13.75,
              "duration": 0.5104166666666666
            },
            {
              "pitch": 59,
              "velocity": 108,
              "position": 13.75,
              "duration": 0.5104166666666666
            },
            {
              "pitch": 55,
              "velocity": 85,
              "position": 14.270833333333334,
              "duration": 0.21875
            },
            {
              "pitch": 64,
              "velocity": 85,
              "position": 14.270833333333334,
              "duration": 0.21875
            },
            {
              "pitch": 59,
              "velocity": 85,
              "position": 14.270833333333334,
              "duration": 0.21875
            },
            {
              "pitch": 55,
              "velocity": 108,
              "position": 14.5,
              "duration": 0.4895833333333333
            },
            {
              "pitch": 64,
              "velocity": 108,
              "position": 14.5,
              "duration": 0.4895833333333333
            },
            {
              "pitch": 59,
              "velocity": 108,
              "position": 14.5,
              "duration": 0.4895833333333333
            },
            {
              "pitch": 55,
              "velocity": 75,
              "position": 15,
              "duration": 0.23958333333333334
            },
            {
              "pitch": 64,
              "velocity": 75,
              "position": 15,
              "duration": 0.23958333333333334
            },
            {
              "pitch": 59,
              "velocity": 75,
              "position": 15,
              "duration": 0.23958333333333334
            },
            {
              "pitch": 55,
              "velocity": 102,
              "position": 15.25,
              "duration": 0.7395833333333334
            },
            {
              "pitch": 64,
              "velocity": 102,
              "position": 15.25,
              "duration": 0.7395833333333334
            },
            {
              "pitch": 59,
              "velocity": 102,
              "position": 15.25,
              "duration": 0.7395833333333334
            }
          ]
        },
        "15": {
          "ctab": {
            "srcChannel": 15,
            "name": "Egtr",
            "accType": "PHRASE1",
            "editable": false,
            "mutedNotes": [],
            "mutedChords": [],
            "autoStart": false,
            "sourceChordNote": 0,
            "sourceChordType": "min7(11)",
            "ctb2Low": null,
            "ctb2Main": {
              "ntr": "ROOT_FIXED",
              "ntt": "CHORD",
              "bassOn": false,
              "chordRootUpperLimit": 7,
              "noteLowLimit": 50,
              "noteHighLimit": 127,
              "rtr": "PITCH_SHIFT"
            },
            "ctb2High": null
          },
          "notes": [
            {
              "pitch": 53,
              "velocity": 68,
              "position": 0,
              "duration": 2.0833333333333335
            },
            {
              "pitch": 58,
              "velocity": 68,
              "position": 0.010416666666666666,
              "duration": 2.127083333333333
            },
            {
              "pitch": 63,
              "velocity": 68,
              "position": 0.014583333333333334,
              "duration": 2.125
            },
            {
              "pitch": 58,
              "velocity": 68,
              "position": 2.254166666666667,
              "duration": 0.19791666666666666
            },
            {
              "pitch": 53,
              "velocity": 68,
              "position": 2.2604166666666665,
              "duration": 0.20416666666666666
            },
            {
              "pitch": 63,
              "velocity": 68,
              "position": 2.24375,
              "duration": 0.23125
            },
            {
              "pitch": 53,
              "velocity": 33,
              "position": 2.74375,
              "duration": 0.22916666666666666
            },
            {
              "pitch": 63,
              "velocity": 33,
              "position": 2.74375,
              "duration": 0.22916666666666666
            },
            {
              "pitch": 58,
              "velocity": 33,
              "position": 2.74375,
              "duration": 0.22916666666666666
            },
            {
              "pitch": 58,
              "velocity": 69,
              "position": 3.004166666666667,
              "duration": 0.25416666666666665
            },
            {
              "pitch": 63,
              "velocity": 69,
              "position": 3.0104166666666665,
              "duration": 0.25416666666666665
            },
            {
              "pitch": 53,
              "velocity": 66,
              "position": 2.99375,
              "duration": 0.27708333333333335
            },
            {
              "pitch": 53,
              "velocity": 33,
              "position": 3.75,
              "duration": 0.22916666666666666
            },
            {
              "pitch": 63,
              "velocity": 33,
              "position": 3.75,
              "duration": 0.22916666666666666
            },
            {
              "pitch": 58,
              "velocity": 33,
              "position": 3.75,
              "duration": 0.22916666666666666
            },
            {
              "pitch": 53,
              "velocity": 69,
              "position": 4.010416666666667,
              "duration": 2.3979166666666667
            },
            {
              "pitch": 63,
              "velocity": 69,
              "position": 3.99375,
              "duration": 2.4166666666666665
            },
            {
              "pitch": 58,
              "velocity": 67,
              "position": 4.004166666666666,
              "duration": 2.4229166666666666
            },
            {
              "pitch": 53,
              "velocity": 67,
              "position": 7.99375,
              "duration": 2.097916666666667
            },
            {
              "pitch": 58,
              "velocity": 62,
              "position": 8.004166666666666,
              "duration": 2.125
            },
            {
              "pitch": 63,
              "velocity": 69,
              "position": 8.010416666666666,
              "duration": 2.1458333333333335
            },
            {
              "pitch": 58,
              "velocity": 63,
              "position": 10.254166666666666,
              "duration": 0.19791666666666666
            },
            {
              "pitch": 63,
              "velocity": 62,
              "position": 10.24375,
              "duration": 0.21875
            },
            {
              "pitch": 53,
              "velocity": 66,
              "position": 10.260416666666666,
              "duration": 0.22916666666666666
            },
            {
              "pitch": 53,
              "velocity": 33,
              "position": 10.74375,
              "duration": 0.22916666666666666
            },
            {
              "pitch": 63,
              "velocity": 33,
              "position": 10.74375,
              "duration": 0.22916666666666666
            },
            {
              "pitch": 58,
              "velocity": 33,
              "position": 10.74375,
              "duration": 0.22916666666666666
            },
            {
              "pitch": 58,
              "velocity": 67,
              "position": 11.004166666666666,
              "duration": 0.25625
            },
            {
              "pitch": 53,
              "velocity": 69,
              "position": 10.99375,
              "duration": 0.2916666666666667
            },
            {
              "pitch": 63,
              "velocity": 69,
              "position": 11.010416666666666,
              "duration": 0.28541666666666665
            },
            {
              "pitch": 53,
              "velocity": 33,
              "position": 11.75,
              "duration": 0.22916666666666666
            },
            {
              "pitch": 63,
              "velocity": 33,
              "position": 11.75,
              "duration": 0.22916666666666666
            },
            {
              "pitch": 58,
              "velocity": 33,
              "position": 11.75,
              "duration": 0.22916666666666666
            },
            {
              "pitch": 63,
              "velocity": 69,
              "position": 11.99375,
              "duration": 3.15625
            },
            {
              "pitch": 58,
              "velocity": 65,
              "position": 12.004166666666666,
              "duration": 3.152083333333333
            },
            {
              "pitch": 53,
              "velocity": 69,
              "position": 12.010416666666666,
              "duration": 3.18125
            }
          ]
        }
      }
    },
    "Fill_In_AA": {
      "type": "Fill_In_AA",
      "sizeInBeats": 4,
      "channels": {
        "0": {
          "ctab": {
            "srcChannel": 0,
            "name": "CC_Crash",
            "accType": "RHYTHM",
            "editable": false,
            "mutedNotes": [],
            "mutedChords": [
              "1+2+5",
              "sus4",
              "1+5",
              "1+8",
              "7aug",
              "Maj7aug",
              "7(#9)",
              "7(b13)",
              "7(b9)",
              "7(13)",
              "7#11",
              "7(9)",
              "7b5",
              "7sus4",
              "7th",
              "dim7",
              "dim",
              "minMaj7(9)",
              "minMaj7",
              "min7(11)",
              "min7(9)",
              "min(9)",
              "m7b5",
              "min7",
              "min6",
              "min",
              "aug",
              "Maj6(9)",
              "Maj7(9)",
              "Maj(9)",
              "Maj7#11",
              "Maj7",
              "Maj6",
              "Maj"
            ],
            "autoStart": true,
            "sourceChordNote": 0,
            "sourceChordType": "Maj",
            "ctb2Low": null,
            "ctb2Main": {
              "ntr": "ROOT_FIXED",
              "ntt": "BYPASS",
              "bassOn": false,
              "chordRootUpperLimit": 0,
              "noteLowLimit": 0,
              "noteHighLimit": 127,
              "rtr": "RETRIGGER"
            },
            "ctb2High": null
          },
          "notes": []
        },
        "1": {
          "ctab": {
            "srcChannel": 1,
            "name": "12st SFX",
            "accType": "CHORD1",
            "editable": false,
            "mutedNotes": [],
            "mutedChords": [],
            "autoStart": false,
            "sourceChordNote": 0,
            "sourceChordType": "Maj7",
            "ctb2Low": null,
            "ctb2Main": {
              "ntr": "ROOT_FIXED",
              "ntt": "BYPASS",
              "bassOn": false,
              "chordRootUpperLimit": 7,
              "noteLowLimit": 0,
              "noteHighLimit": 127,
              "rtr": "PITCH_SHIFT"
            },
            "ctb2High": null
          },
          "notes": [
            {
              "pitch": 43,
              "velocity": 70,
              "position": 0.020833333333333332,
              "duration": 0.041666666666666664
            },
            {
              "pitch": 47,
              "velocity": 70,
              "position": 0.020833333333333332,
              "duration": 0.041666666666666664
            },
            {
              "pitch": 40,
              "velocity": 70,
              "position": 0.03125,
              "duration": 0.041666666666666664
            },
            {
              "pitch": 40,
              "velocity": 70,
              "position": 0.5,
              "duration": 0.041666666666666664
            },
            {
              "pitch": 47,
              "velocity": 70,
              "position": 0.5208333333333334,
              "duration": 0.041666666666666664
            },
            {
              "pitch": 43,
              "velocity": 70,
              "position": 0.5208333333333334,
              "duration": 0.041666666666666664
            },
            {
              "pitch": 40,
              "velocity": 70,
              "position": 0.75,
              "duration": 0.041666666666666664
            },
            {
              "pitch": 47,
              "velocity": 70,
              "position": 0.7708333333333334,
              "duration": 0.041666666666666664
            },
            {
              "pitch": 43,
              "velocity": 70,
              "position": 0.7708333333333334,
              "duration": 0.041666666666666664
            },
            {
              "pitch": 40,
              "velocity": 70,
              "position": 1.25,
              "duration": 0.041666666666666664
            },
            {
              "pitch": 47,
              "velocity": 70,
              "position": 1.2708333333333333,
              "duration": 0.041666666666666664
            },
            {
              "pitch": 43,
              "velocity": 70,
              "position": 1.2708333333333333,
              "duration": 0.041666666666666664
            },
            {
              "pitch": 43,
              "velocity": 70,
              "position": 1.5208333333333333,
              "duration": 0.041666666666666664
            },
            {
              "pitch": 47,
              "velocity": 70,
              "position": 1.5208333333333333,
              "duration": 0.041666666666666664
            },
            {
              "pitch": 40,
              "velocity": 70,
              "position": 1.53125,
              "duration": 0.041666666666666664
            },
            {
              "pitch": 40,
              "velocity": 70,
              "position": 2,
              "duration": 0.041666666666666664
            },
            {
              "pitch": 47,
              "velocity": 70,
              "position": 2.0104166666666665,
              "duration": 0.041666666666666664
            },
            {
              "pitch": 43,
              "velocity": 70,
              "position": 2.0104166666666665,
              "duration": 0.041666666666666664
            },
            {
              "pitch": 40,
              "velocity": 70,
              "position": 2.25,
              "duration": 0.041666666666666664
            },
            {
              "pitch": 47,
              "velocity": 70,
              "position": 2.2604166666666665,
              "duration": 0.041666666666666664
            },
            {
              "pitch": 43,
              "velocity": 70,
              "position": 2.2604166666666665,
              "duration": 0.041666666666666664
            },
            {
              "pitch": 40,
              "velocity": 70,
              "position": 2.78125,
              "duration": 0.041666666666666664
            },
            {
              "pitch": 43,
              "velocity": 70,
              "position": 3.0208333333333335,
              "duration": 0.041666666666666664
            },
            {
              "pitch": 47,
              "velocity": 70,
              "position": 3.0208333333333335,
              "duration": 0.041666666666666664
            },
            {
              "pitch": 40,
              "velocity": 70,
              "position": 3.03125,
              "duration": 0.041666666666666664
            },
            {
              "pitch": 43,
              "velocity": 70,
              "position": 3.7708333333333335,
              "duration": 0.041666666666666664
            },
            {
              "pitch": 47,
              "velocity": 70,
              "position": 3.7708333333333335,
              "duration": 0.041666666666666664
            },
            {
              "pitch": 40,
              "velocity": 70,
              "position": 3.78125,
              "duration": 0.041666666666666664
            }
          ]
        },
        "3": {
          "ctab": {
            "srcChannel": 3,
            "name": "12st rt",
            "accType": "CHORD1",
            "editable": false,
            "mutedNotes": [],
            "mutedChords": [
              "1+2+5",
              "sus4",
              "1+5",
              "1+8",
              "Maj7aug",
              "dim",
              "minMaj7(9)",
              "minMaj7",
              "min6",
              "min",
              "aug",
              "Maj7(9)",
              "Maj7#11",
              "Maj7",
              "Maj6",
              "Maj"
            ],
            "autoStart": false,
            "sourceChordNote": 0,
            "sourceChordType": "Maj7",
            "ctb2Low": null,
            "ctb2Main": {
              "ntr": "ROOT_TRANSPOSITION",
              "ntt": "MELODY",
              "bassOn": false,
              "chordRootUpperLimit": 6,
              "noteLowLimit": 0,
              "noteHighLimit": 127,
              "rtr": "PITCH_SHIFT"
            },
            "ctb2High": null
          },
          "notes": [
            {
              "pitch": 60,
              "velocity": 80,
              "position": 0.010416666666666666,
              "duration": 0.7395833333333334
            },
            {
              "pitch": 60,
              "velocity": 75,
              "position": 0.7708333333333334,
              "duration": 0.22916666666666666
            },
            {
              "pitch": 60,
              "velocity": 36,
              "position": 1.25,
              "duration": 0.23958333333333334
            },
            {
              "pitch": 60,
              "velocity": 80,
              "position": 1.5104166666666667,
              "duration": 0.4895833333333333
            },
            {
              "pitch": 60,
              "velocity": 20,
              "position": 2.0104166666666665,
              "duration": 0.23958333333333334
            },
            {
              "pitch": 60,
              "velocity": 78,
              "position": 2.2645833333333334,
              "duration": 0.23958333333333334
            },
            {
              "pitch": 60,
              "velocity": 5,
              "position": 2.7645833333333334,
              "duration": 0.22916666666666666
            },
            {
              "pitch": 60,
              "velocity": 65,
              "position": 3.0104166666666665,
              "duration": 0.4895833333333333
            },
            {
              "pitch": 60,
              "velocity": 50,
              "position": 3.5104166666666665,
              "duration": 0.23958333333333334
            },
            {
              "pitch": 60,
              "velocity": 45,
              "position": 3.7645833333333334,
              "duration": 0.22916666666666666
            }
          ]
        },
        "5": {
          "ctab": {
            "srcChannel": 5,
            "name": "Strg rt",
            "accType": "PAD",
            "editable": false,
            "mutedNotes": [],
            "mutedChords": [
              "1+2+5",
              "sus4",
              "1+5",
              "1+8",
              "Maj7aug",
              "dim",
              "minMaj7(9)",
              "minMaj7",
              "min6",
              "min",
              "aug",
              "Maj7(9)",
              "Maj7#11",
              "Maj7",
              "Maj6",
              "Maj"
            ],
            "autoStart": false,
            "sourceChordNote": 0,
            "sourceChordType": "Maj7",
            "ctb2Low": null,
            "ctb2Main": {
              "ntr": "ROOT_TRANSPOSITION",
              "ntt": "MELODY",
              "bassOn": false,
              "chordRootUpperLimit": 6,
              "noteLowLimit": 0,
              "noteHighLimit": 127,
              "rtr": "PITCH_SHIFT"
            },
            "ctb2High": null
          },
          "notes": [
            {
              "pitch": 60,
              "velocity": 30,
              "position": 0,
              "duration": 3.9895833333333335
            }
          ]
        },
        "8": {
          "ctab": {
            "srcChannel": 8,
            "name": "AddDrum",
            "accType": "SUBRHYTHM",
            "editable": false,
            "mutedNotes": [],
            "mutedChords": [],
            "autoStart": true,
            "sourceChordNote": 0,
            "sourceChordType": "Maj7",
            "ctb2Low": null,
            "ctb2Main": {
              "ntr": "ROOT_FIXED",
              "ntt": "BYPASS",
              "bassOn": false,
              "chordRootUpperLimit": 6,
              "noteLowLimit": 0,
              "noteHighLimit": 127,
              "rtr": "PITCH_SHIFT"
            },
            "ctb2High": null
          },
          "notes": [
            {
              "pitch": 84,
              "velocity": 54,
              "position": 0,
              "duration": 0.010416666666666666
            },
            {
              "pitch": 82,
              "velocity": 23,
              "position": 0.25,
              "duration": 0.010416666666666666
            },
            {
              "pitch": 82,
              "velocity": 40,
              "position": 0.5,
              "duration": 0.010416666666666666
            },
            {
              "pitch": 82,
              "velocity": 23,
              "position": 0.75,
              "duration": 0.010416666666666666
            },
            {
              "pitch": 82,
              "velocity": 72,
              "position": 1,
              "duration": 0.010416666666666666
            },
            {
              "pitch": 54,
              "velocity": 110,
              "position": 1,
              "duration": 0.020833333333333332
            },
            {
              "pitch": 82,
              "velocity": 23,
              "position": 1.25,
              "duration": 0.010416666666666666
            },
            {
              "pitch": 82,
              "velocity": 40,
              "position": 1.5,
              "duration": 0.010416666666666666
            },
            {
              "pitch": 82,
              "velocity": 23,
              "position": 1.75,
              "duration": 0.010416666666666666
            },
            {
              "pitch": 82,
              "velocity": 72,
              "position": 2,
              "duration": 0.010416666666666666
            },
            {
              "pitch": 82,
              "velocity": 23,
              "position": 2.25,
              "duration": 0.010416666666666666
            },
            {
              "pitch": 82,
              "velocity": 40,
              "position": 2.5,
              "duration": 0.010416666666666666
            },
            {
              "pitch": 82,
              "velocity": 23,
              "position": 2.75,
              "duration": 0.010416666666666666
            },
            {
              "pitch": 82,
              "velocity": 72,
              "position": 3,
              "duration": 0.010416666666666666
            },
            {
              "pitch": 54,
              "velocity": 110,
              "position": 3,
              "duration": 0.020833333333333332
            },
            {
              "pitch": 82,
              "velocity": 23,
              "position": 3.25,
              "duration": 0.010416666666666666
            },
            {
              "pitch": 82,
              "velocity": 40,
              "position": 3.5,
              "duration": 0.010416666666666666
            },
            {
              "pitch": 82,
              "velocity": 23,
              "position": 3.75,
              "duration": 0.010416666666666666
            }
          ]
        },
        "9": {
          "ctab": {
            "srcChannel": 9,
            "name": "MainDrum",
            "accType": "RHYTHM",
            "editable": false,
            "mutedNotes": [],
            "mutedChords": [],
            "autoStart": true,
            "sourceChordNote": 0,
            "sourceChordType": "Maj7",
            "ctb2Low": null,
            "ctb2Main": {
              "ntr": "ROOT_FIXED",
              "ntt": "BYPASS",
              "bassOn": false,
              "chordRootUpperLimit": 6,
              "noteLowLimit": 0,
              "noteHighLimit": 127,
              "rtr": "PITCH_SHIFT"
            },
            "ctb2High": null
          },
          "notes": [
            {
              "pitch": 51,
              "velocity": 54,
              "position": 0,
              "duration": 0.010416666666666666
            },
            {
              "pitch": 51,
              "velocity": 54,
              "position": 3,
              "duration": 0.010416666666666666
            },
            {
              "pitch": 51,
              "velocity": 54,
              "position": 3.5,
              "duration": 0.010416666666666666
            }
          ]
        },
        "10": {
          "ctab": {
            "srcChannel": 10,
            "name": "Bass",
            "accType": "BASS",
            "editable": false,
            "mutedNotes": [],
            "mutedChords": [],
            "autoStart": false,
            "sourceChordNote": 0,
            "sourceChordType": "Maj7",
            "ctb2Low": null,
            "ctb2Main": {
              "ntr": "ROOT_TRANSPOSITION",
              "ntt": "MELODY",
              "bassOn": true,
              "chordRootUpperLimit": 3,
              "noteLowLimit": 28,
              "noteHighLimit": 127,
              "rtr": "PITCH_SHIFT_TO_ROOT"
            },
            "ctb2High": null
          },
          "notes": [
            {
              "pitch": 24,
              "velocity": 73,
              "position": 0,
              "duration": 0.9895833333333334
            },
            {
              "pitch": 24,
              "velocity": 83,
              "position": 1,
              "duration": 0.020833333333333332
            },
            {
              "pitch": 24,
              "velocity": 73,
              "position": 1.5,
              "duration": 1.4895833333333333
            },
            {
              "pitch": 31,
              "velocity": 73,
              "position": 3,
              "duration": 0.9895833333333334
            }
          ]
        },
        "11": {
          "ctab": {
            "srcChannel": 11,
            "name": "12stGtr",
            "accType": "CHORD1",
            "editable": false,
            "mutedNotes": [],
            "mutedChords": [],
            "autoStart": false,
            "sourceChordNote": 0,
            "sourceChordType": "Maj7",
            "ctb2Low": null,
            "ctb2Main": {
              "ntr": "ROOT_FIXED",
              "ntt": "CHORD",
              "bassOn": false,
              "chordRootUpperLimit": 7,
              "noteLowLimit": 50,
              "noteHighLimit": 127,
              "rtr": "PITCH_SHIFT"
            },
            "ctb2High": null
          },
          "notes": [
            {
              "pitch": 55,
              "velocity": 86,
              "position": 0,
              "duration": 0.7395833333333334
            },
            {
              "pitch": 67,
              "velocity": 95,
              "position": 0.03125,
              "duration": 0.7083333333333334
            },
            {
              "pitch": 64,
              "velocity": 95,
              "position": 0.020833333333333332,
              "duration": 0.71875
            },
            {
              "pitch": 59,
              "velocity": 95,
              "position": 0.010416666666666666,
              "duration": 0.7395833333333334
            },
            {
              "pitch": 64,
              "velocity": 90,
              "position": 0.75,
              "duration": 0.25
            },
            {
              "pitch": 55,
              "velocity": 90,
              "position": 0.78125,
              "duration": 0.21875
            },
            {
              "pitch": 59,
              "velocity": 90,
              "position": 0.7708333333333334,
              "duration": 0.22916666666666666
            },
            {
              "pitch": 67,
              "velocity": 90,
              "position": 0.75,
              "duration": 0.25
            },
            {
              "pitch": 55,
              "velocity": 51,
              "position": 1.25,
              "duration": 0.23958333333333334
            },
            {
              "pitch": 64,
              "velocity": 51,
              "position": 1.25,
              "duration": 0.23958333333333334
            },
            {
              "pitch": 59,
              "velocity": 51,
              "position": 1.25,
              "duration": 0.23958333333333334
            },
            {
              "pitch": 55,
              "velocity": 82,
              "position": 1.5,
              "duration": 0.4895833333333333
            },
            {
              "pitch": 67,
              "velocity": 95,
              "position": 1.53125,
              "duration": 0.46875
            },
            {
              "pitch": 64,
              "velocity": 95,
              "position": 1.5208333333333333,
              "duration": 0.4791666666666667
            },
            {
              "pitch": 59,
              "velocity": 95,
              "position": 1.5104166666666667,
              "duration": 0.4895833333333333
            },
            {
              "pitch": 67,
              "velocity": 35,
              "position": 2.03125,
              "duration": 0.19375
            },
            {
              "pitch": 64,
              "velocity": 35,
              "position": 2.0208333333333335,
              "duration": 0.20833333333333334
            },
            {
              "pitch": 55,
              "velocity": 35,
              "position": 2,
              "duration": 0.25
            },
            {
              "pitch": 59,
              "velocity": 35,
              "position": 2.0104166666666665,
              "duration": 0.23958333333333334
            },
            {
              "pitch": 67,
              "velocity": 90,
              "position": 2.25,
              "duration": 0.25
            },
            {
              "pitch": 55,
              "velocity": 90,
              "position": 2.2708333333333335,
              "duration": 0.22916666666666666
            },
            {
              "pitch": 64,
              "velocity": 93,
              "position": 2.2604166666666665,
              "duration": 0.23958333333333334
            },
            {
              "pitch": 59,
              "velocity": 93,
              "position": 2.2645833333333334,
              "duration": 0.23958333333333334
            },
            {
              "pitch": 55,
              "velocity": 20,
              "position": 2.7708333333333335,
              "duration": 0.22083333333333333
            },
            {
              "pitch": 59,
              "velocity": 20,
              "position": 2.7645833333333334,
              "duration": 0.22916666666666666
            },
            {
              "pitch": 67,
              "velocity": 20,
              "position": 2.75,
              "duration": 0.25
            },
            {
              "pitch": 64,
              "velocity": 20,
              "position": 2.7604166666666665,
              "duration": 0.23958333333333334
            },
            {
              "pitch": 55,
              "velocity": 80,
              "position": 3,
              "duration": 0.46875
            },
            {
              "pitch": 59,
              "velocity": 80,
              "position": 3.0104166666666665,
              "duration": 0.4895833333333333
            },
            {
              "pitch": 64,
              "velocity": 80,
              "position": 3.0208333333333335,
              "duration": 0.71875
            },
            {
              "pitch": 67,
              "velocity": 80,
              "position": 3.03125,
              "duration": 0.7083333333333334
            },
            {
              "pitch": 55,
              "velocity": 65,
              "position": 3.5,
              "duration": 0.25
            },
            {
              "pitch": 59,
              "velocity": 65,
              "position": 3.5104166666666665,
              "duration": 0.23958333333333334
            },
            {
              "pitch": 67,
              "velocity": 60,
              "position": 3.75,
              "duration": 0.23958333333333334
            },
            {
              "pitch": 55,
              "velocity": 60,
              "position": 3.7708333333333335,
              "duration": 0.21875
            },
            {
              "pitch": 64,
              "velocity": 60,
              "position": 3.7604166666666665,
              "duration": 0.22916666666666666
            },
            {
              "pitch": 59,
              "velocity": 60,
              "position": 3.7645833333333334,
              "duration": 0.22916666666666666
            }
          ]
        },
        "12": {
          "ctab": {
            "srcChannel": 12,
            "name": "MuteGtr",
            "accType": "CHORD2",
            "editable": false,
            "mutedNotes": [],
            "mutedChords": [],
            "autoStart": false,
            "sourceChordNote": 0,
            "sourceChordType": "min7(11)",
            "ctb2Low": null,
            "ctb2Main": {
              "ntr": "ROOT_FIXED",
              "ntt": "CHORD",
              "bassOn": false,
              "chordRootUpperLimit": 7,
              "noteLowLimit": 50,
              "noteHighLimit": 127,
              "rtr": "PITCH_SHIFT"
            },
            "ctb2High": null
          },
          "notes": []
        },
        "13": {
          "ctab": {
            "srcChannel": 13,
            "name": "Strings",
            "accType": "PAD",
            "editable": false,
            "mutedNotes": [],
            "mutedChords": [],
            "autoStart": false,
            "sourceChordNote": 0,
            "sourceChordType": "Maj7",
            "ctb2Low": null,
            "ctb2Main": {
              "ntr": "ROOT_FIXED",
              "ntt": "CHORD",
              "bassOn": false,
              "chordRootUpperLimit": 7,
              "noteLowLimit": 0,
              "noteHighLimit": 127,
              "rtr": "PITCH_SHIFT"
            },
            "ctb2High": null
          },
          "notes": [
            {
              "pitch": 55,
              "velocity": 30,
              "position": 0,
              "duration": 3.9895833333333335
            },
            {
              "pitch": 64,
              "velocity": 30,
              "position": 0,
              "duration": 3.9895833333333335
            },
            {
              "pitch": 59,
              "velocity": 30,
              "position": 0,
              "duration": 3.9895833333333335
            }
          ]
        },
        "14": {
          "ctab": {
            "srcChannel": 14,
            "name": "add GTR",
            "accType": "PHRASE2",
            "editable": false,
            "mutedNotes": [],
            "mutedChords": [],
            "autoStart": false,
            "sourceChordNote": 0,
            "sourceChordType": "Maj7",
            "ctb2Low": null,
            "ctb2Main": {
              "ntr": "ROOT_FIXED",
              "ntt": "CHORD",
              "bassOn": false,
              "chordRootUpperLimit": 7,
              "noteLowLimit": 40,
              "noteHighLimit": 127,
              "rtr": "PITCH_SHIFT"
            },
            "ctb2High": null
          },
          "notes": [
            {
              "pitch": 59,
              "velocity": 109,
              "position": 0,
              "duration": 0.7395833333333334
            },
            {
              "pitch": 64,
              "velocity": 116,
              "position": 0,
              "duration": 1.0895833333333333
            },
            {
              "pitch": 59,
              "velocity": 107,
              "position": 0.75,
              "duration": 0.33958333333333335
            },
            {
              "pitch": 55,
              "velocity": 107,
              "position": 0.010416666666666666,
              "duration": 1.0895833333333333
            },
            {
              "pitch": 64,
              "velocity": 107,
              "position": 1.5104166666666667,
              "duration": 0.7291666666666666
            },
            {
              "pitch": 55,
              "velocity": 107,
              "position": 1.5208333333333333,
              "duration": 0.7395833333333334
            },
            {
              "pitch": 64,
              "velocity": 107,
              "position": 2.25,
              "duration": 0.33958333333333335
            },
            {
              "pitch": 55,
              "velocity": 107,
              "position": 2.28125,
              "duration": 0.33958333333333335
            },
            {
              "pitch": 59,
              "velocity": 107,
              "position": 1.53125,
              "duration": 1.0895833333333333
            },
            {
              "pitch": 64,
              "velocity": 107,
              "position": 3.0208333333333335,
              "duration": 0.96875
            },
            {
              "pitch": 59,
              "velocity": 107,
              "position": 3.03125,
              "duration": 0.9583333333333334
            },
            {
              "pitch": 55,
              "velocity": 107,
              "position": 3.03125,
              "duration": 0.9583333333333334
            }
          ]
        },
        "15": {
          "ctab": {
            "srcChannel": 15,
            "name": "Egtr",
            "accType": "PHRASE1",
            "editable": false,
            "mutedNotes": [],
            "mutedChords": [],
            "autoStart": false,
            "sourceChordNote": 0,
            "sourceChordType": "min7(11)",
            "ctb2Low": null,
            "ctb2Main": {
              "ntr": "ROOT_FIXED",
              "ntt": "CHORD",
              "bassOn": false,
              "chordRootUpperLimit": 7,
              "noteLowLimit": 50,
              "noteHighLimit": 127,
              "rtr": "PITCH_SHIFT"
            },
            "ctb2High": null
          },
          "notes": []
        }
      }
    },
    "Fill_In_BB": {
      "type": "Fill_In_BB",
      "sizeInBeats": 4,
      "channels": {
        "0": {
          "ctab": {
            "srcChannel": 0,
            "name": "CC_Crash",
            "accType": "RHYTHM",
            "editable": false,
            "mutedNotes": [],
            "mutedChords": [
              "1+2+5",
              "sus4",
              "1+5",
              "1+8",
              "7aug",
              "Maj7aug",
              "7(#9)",
              "7(b13)",
              "7(b9)",
              "7(13)",
              "7#11",
              "7(9)",
              "7b5",
              "7sus4",
              "7th",
              "dim7",
              "dim",
              "minMaj7(9)",
              "minMaj7",
              "min7(11)",
              "min7(9)",
              "min(9)",
              "m7b5",
              "min7",
              "min6",
              "min",
              "aug",
              "Maj6(9)",
              "Maj7(9)",
              "Maj(9)",
              "Maj7#11",
              "Maj7",
              "Maj6",
              "Maj"
            ],
            "autoStart": true,
            "sourceChordNote": 0,
            "sourceChordType": "Maj",
            "ctb2Low": null,
            "ctb2Main": {
              "ntr": "ROOT_FIXED",
              "ntt": "BYPASS",
              "bassOn": false,
              "chordRootUpperLimit": 0,
              "noteLowLimit": 0,
              "noteHighLimit": 127,
              "rtr": "RETRIGGER"
            },
            "ctb2High": null
          },
          "notes": []
        },
        "1": {
          "ctab": {
            "srcChannel": 1,
            "name": "12st SFX",
            "accType": "CHORD1",
            "editable": false,
            "mutedNotes": [],
            "mutedChords": [],
            "autoStart": false,
            "sourceChordNote": 0,
            "sourceChordType": "Maj7",
            "ctb2Low": null,
            "ctb2Main": {
              "ntr": "ROOT_FIXED",
              "ntt": "BYPASS",
              "bassOn": false,
              "chordRootUpperLimit": 7,
              "noteLowLimit": 0,
              "noteHighLimit": 127,
              "rtr": "PITCH_SHIFT"
            },
            "ctb2High": null
          },
          "notes": [
            {
              "pitch": 40,
              "velocity": 70,
              "position": 0,
              "duration": 0.041666666666666664
            },
            {
              "pitch": 47,
              "velocity": 70,
              "position": 0,
              "duration": 0.041666666666666664
            },
            {
              "pitch": 43,
              "velocity": 70,
              "position": 0,
              "duration": 0.041666666666666664
            },
            {
              "pitch": 40,
              "velocity": 70,
              "position": 0.25,
              "duration": 0.041666666666666664
            },
            {
              "pitch": 40,
              "velocity": 70,
              "position": 0.5,
              "duration": 0.041666666666666664
            },
            {
              "pitch": 47,
              "velocity": 70,
              "position": 0.5,
              "duration": 0.041666666666666664
            },
            {
              "pitch": 43,
              "velocity": 70,
              "position": 0.5,
              "duration": 0.041666666666666664
            },
            {
              "pitch": 40,
              "velocity": 70,
              "position": 0.75,
              "duration": 0.041666666666666664
            },
            {
              "pitch": 47,
              "velocity": 70,
              "position": 0.75,
              "duration": 0.041666666666666664
            },
            {
              "pitch": 43,
              "velocity": 70,
              "position": 0.75,
              "duration": 0.041666666666666664
            },
            {
              "pitch": 40,
              "velocity": 70,
              "position": 1.5,
              "duration": 0.041666666666666664
            },
            {
              "pitch": 47,
              "velocity": 70,
              "position": 1.5,
              "duration": 0.041666666666666664
            },
            {
              "pitch": 43,
              "velocity": 70,
              "position": 1.5,
              "duration": 0.041666666666666664
            },
            {
              "pitch": 40,
              "velocity": 70,
              "position": 1.75,
              "duration": 0.041666666666666664
            },
            {
              "pitch": 47,
              "velocity": 70,
              "position": 1.75,
              "duration": 0.041666666666666664
            },
            {
              "pitch": 43,
              "velocity": 70,
              "position": 1.75,
              "duration": 0.041666666666666664
            },
            {
              "pitch": 40,
              "velocity": 70,
              "position": 2.25,
              "duration": 0.041666666666666664
            },
            {
              "pitch": 47,
              "velocity": 70,
              "position": 2.25,
              "duration": 0.041666666666666664
            },
            {
              "pitch": 43,
              "velocity": 70,
              "position": 2.25,
              "duration": 0.041666666666666664
            },
            {
              "pitch": 43,
              "velocity": 70,
              "position": 2.5,
              "duration": 0.041666666666666664
            },
            {
              "pitch": 47,
              "velocity": 70,
              "position": 2.5,
              "duration": 0.041666666666666664
            },
            {
              "pitch": 40,
              "velocity": 70,
              "position": 2.75,
              "duration": 0.041666666666666664
            },
            {
              "pitch": 40,
              "velocity": 70,
              "position": 3,
              "duration": 0.041666666666666664
            },
            {
              "pitch": 47,
              "velocity": 70,
              "position": 3,
              "duration": 0.041666666666666664
            },
            {
              "pitch": 43,
              "velocity": 70,
              "position": 3,
              "duration": 0.041666666666666664
            },
            {
              "pitch": 43,
              "velocity": 40,
              "position": 3.5,
              "duration": 0.041666666666666664
            },
            {
              "pitch": 47,
              "velocity": 40,
              "position": 3.5,
              "duration": 0.041666666666666664
            },
            {
              "pitch": 40,
              "velocity": 40,
              "position": 3.75,
              "duration": 0.041666666666666664
            },
            {
              "pitch": 43,
              "velocity": 40,
              "position": 3.75,
              "duration": 0.041666666666666664
            }
          ]
        },
        "3": {
          "ctab": {
            "srcChannel": 3,
            "name": "12st rt",
            "accType": "CHORD1",
            "editable": false,
            "mutedNotes": [],
            "mutedChords": [
              "1+2+5",
              "sus4",
              "1+5",
              "1+8",
              "Maj7aug",
              "dim",
              "minMaj7(9)",
              "minMaj7",
              "min6",
              "min",
              "aug",
              "Maj7(9)",
              "Maj7#11",
              "Maj7",
              "Maj6",
              "Maj"
            ],
            "autoStart": false,
            "sourceChordNote": 0,
            "sourceChordType": "Maj7",
            "ctb2Low": null,
            "ctb2Main": {
              "ntr": "ROOT_TRANSPOSITION",
              "ntt": "MELODY",
              "bassOn": false,
              "chordRootUpperLimit": 6,
              "noteLowLimit": 0,
              "noteHighLimit": 127,
              "rtr": "PITCH_SHIFT"
            },
            "ctb2High": null
          },
          "notes": [
            {
              "pitch": 60,
              "velocity": 80,
              "position": 0.010416666666666666,
              "duration": 0.7395833333333334
            },
            {
              "pitch": 60,
              "velocity": 78,
              "position": 0.7625,
              "duration": 0.20625
            },
            {
              "pitch": 60,
              "velocity": 35,
              "position": 1.25,
              "duration": 0.23958333333333334
            },
            {
              "pitch": 60,
              "velocity": 80,
              "position": 1.50625,
              "duration": 0.7395833333333334
            },
            {
              "pitch": 60,
              "velocity": 78,
              "position": 2.2604166666666665,
              "duration": 0.23958333333333334
            },
            {
              "pitch": 60,
              "velocity": 35,
              "position": 2.75,
              "duration": 0.23958333333333334
            },
            {
              "pitch": 60,
              "velocity": 74,
              "position": 3.0104166666666665,
              "duration": 0.3333333333333333
            },
            {
              "pitch": 60,
              "velocity": 35,
              "position": 3.75,
              "duration": 0.23958333333333334
            }
          ]
        },
        "5": {
          "ctab": {
            "srcChannel": 5,
            "name": "Strg rt",
            "accType": "PAD",
            "editable": false,
            "mutedNotes": [],
            "mutedChords": [
              "1+2+5",
              "sus4",
              "1+5",
              "1+8",
              "Maj7aug",
              "dim",
              "minMaj7(9)",
              "minMaj7",
              "min6",
              "min",
              "aug",
              "Maj7(9)",
              "Maj7#11",
              "Maj7",
              "Maj6",
              "Maj"
            ],
            "autoStart": false,
            "sourceChordNote": 0,
            "sourceChordType": "Maj7",
            "ctb2Low": null,
            "ctb2Main": {
              "ntr": "ROOT_TRANSPOSITION",
              "ntt": "MELODY",
              "bassOn": false,
              "chordRootUpperLimit": 6,
              "noteLowLimit": 0,
              "noteHighLimit": 127,
              "rtr": "PITCH_SHIFT"
            },
            "ctb2High": null
          },
          "notes": [
            {
              "pitch": 60,
              "velocity": 40,
              "position": 0,
              "duration": 3.9895833333333335
            }
          ]
        },
        "8": {
          "ctab": {
            "srcChannel": 8,
            "name": "AddDrum",
            "accType": "SUBRHYTHM",
            "editable": false,
            "mutedNotes": [],
            "mutedChords": [],
            "autoStart": true,
            "sourceChordNote": 0,
            "sourceChordType": "Maj7",
            "ctb2Low": null,
            "ctb2Main": {
              "ntr": "ROOT_FIXED",
              "ntt": "BYPASS",
              "bassOn": false,
              "chordRootUpperLimit": 6,
              "noteLowLimit": 0,
              "noteHighLimit": 127,
              "rtr": "PITCH_SHIFT"
            },
            "ctb2High": null
          },
          "notes": [
            {
              "pitch": 27,
              "velocity": 90,
              "position": 0,
              "duration": 0.010416666666666666
            },
            {
              "pitch": 82,
              "velocity": 72,
              "position": 0,
              "duration": 0.010416666666666666
            },
            {
              "pitch": 70,
              "velocity": 56,
              "position": 0,
              "duration": 0.010416666666666666
            },
            {
              "pitch": 25,
              "velocity": 32,
              "position": 0.2708333333333333,
              "duration": 0.010416666666666666
            },
            {
              "pitch": 70,
              "velocity": 23,
              "position": 0.2708333333333333,
              "duration": 0.010416666666666666
            },
            {
              "pitch": 25,
              "velocity": 33,
              "position": 0.5,
              "duration": 0.010416666666666666
            },
            {
              "pitch": 70,
              "velocity": 72,
              "position": 0.5,
              "duration": 0.010416666666666666
            },
            {
              "pitch": 27,
              "velocity": 90,
              "position": 0.7708333333333334,
              "duration": 0.010416666666666666
            },
            {
              "pitch": 25,
              "velocity": 58,
              "position": 1,
              "duration": 0.010416666666666666
            },
            {
              "pitch": 82,
              "velocity": 72,
              "position": 1,
              "duration": 0.010416666666666666
            },
            {
              "pitch": 70,
              "velocity": 56,
              "position": 1,
              "duration": 0.010416666666666666
            },
            {
              "pitch": 25,
              "velocity": 28,
              "position": 1.2708333333333333,
              "duration": 0.010416666666666666
            },
            {
              "pitch": 70,
              "velocity": 23,
              "position": 1.2708333333333333,
              "duration": 0.010416666666666666
            },
            {
              "pitch": 27,
              "velocity": 90,
              "position": 1.5,
              "duration": 0.010416666666666666
            },
            {
              "pitch": 70,
              "velocity": 72,
              "position": 1.5,
              "duration": 0.010416666666666666
            },
            {
              "pitch": 25,
              "velocity": 72,
              "position": 1.7708333333333333,
              "duration": 0.010416666666666666
            },
            {
              "pitch": 69,
              "velocity": 53,
              "position": 1.7708333333333333,
              "duration": 0.010416666666666666
            },
            {
              "pitch": 27,
              "velocity": 83,
              "position": 2,
              "duration": 0.010416666666666666
            },
            {
              "pitch": 82,
              "velocity": 72,
              "position": 2,
              "duration": 0.010416666666666666
            },
            {
              "pitch": 70,
              "velocity": 46,
              "position": 2,
              "duration": 0.010416666666666666
            },
            {
              "pitch": 25,
              "velocity": 32,
              "position": 2.2708333333333335,
              "duration": 0.010416666666666666
            },
            {
              "pitch": 70,
              "velocity": 23,
              "position": 2.2708333333333335,
              "duration": 0.010416666666666666
            },
            {
              "pitch": 27,
              "velocity": 29,
              "position": 2.5,
              "duration": 0.010416666666666666
            },
            {
              "pitch": 70,
              "velocity": 72,
              "position": 2.5,
              "duration": 0.010416666666666666
            },
            {
              "pitch": 25,
              "velocity": 61,
              "position": 2.7708333333333335,
              "duration": 0.010416666666666666
            },
            {
              "pitch": 27,
              "velocity": 90,
              "position": 3,
              "duration": 0.010416666666666666
            },
            {
              "pitch": 82,
              "velocity": 72,
              "position": 3,
              "duration": 0.010416666666666666
            },
            {
              "pitch": 70,
              "velocity": 56,
              "position": 3,
              "duration": 0.010416666666666666
            },
            {
              "pitch": 54,
              "velocity": 114,
              "position": 3,
              "duration": 0.03125
            },
            {
              "pitch": 25,
              "velocity": 59,
              "position": 3.2708333333333335,
              "duration": 0.010416666666666666
            },
            {
              "pitch": 27,
              "velocity": 90,
              "position": 3.5,
              "duration": 0.010416666666666666
            },
            {
              "pitch": 70,
              "velocity": 72,
              "position": 3.5,
              "duration": 0.010416666666666666
            },
            {
              "pitch": 25,
              "velocity": 54,
              "position": 3.7708333333333335,
              "duration": 0.010416666666666666
            },
            {
              "pitch": 69,
              "velocity": 53,
              "position": 3.7708333333333335,
              "duration": 0.010416666666666666
            }
          ]
        },
        "9": {
          "ctab": {
            "srcChannel": 9,
            "name": "MainDrum",
            "accType": "RHYTHM",
            "editable": false,
            "mutedNotes": [],
            "mutedChords": [],
            "autoStart": true,
            "sourceChordNote": 0,
            "sourceChordType": "Maj7",
            "ctb2Low": null,
            "ctb2Main": {
              "ntr": "ROOT_FIXED",
              "ntt": "BYPASS",
              "bassOn": false,
              "chordRootUpperLimit": 6,
              "noteLowLimit": 0,
              "noteHighLimit": 127,
              "rtr": "PITCH_SHIFT"
            },
            "ctb2High": null
          },
          "notes": [
            {
              "pitch": 36,
              "velocity": 84,
              "position": 0,
              "duration": 0.010416666666666666
            },
            {
              "pitch": 57,
              "velocity": 47,
              "position": 0,
              "duration": 0.010416666666666666
            },
            {
              "pitch": 42,
              "velocity": 34,
              "position": 0,
              "duration": 0.010416666666666666
            },
            {
              "pitch": 40,
              "velocity": 11,
              "position": 0.25,
              "duration": 0.020833333333333332
            },
            {
              "pitch": 42,
              "velocity": 67,
              "position": 0.2708333333333333,
              "duration": 0.010416666666666666
            },
            {
              "pitch": 44,
              "velocity": 69,
              "position": 0.5,
              "duration": 0.010416666666666666
            },
            {
              "pitch": 40,
              "velocity": 16,
              "position": 0.5,
              "duration": 0.020833333333333332
            },
            {
              "pitch": 40,
              "velocity": 31,
              "position": 0.625,
              "duration": 0.020833333333333332
            },
            {
              "pitch": 40,
              "velocity": 63,
              "position": 0.7708333333333334,
              "duration": 0.020833333333333332
            },
            {
              "pitch": 42,
              "velocity": 33,
              "position": 1,
              "duration": 0.010416666666666666
            },
            {
              "pitch": 40,
              "velocity": 11,
              "position": 1.25,
              "duration": 0.020833333333333332
            },
            {
              "pitch": 36,
              "velocity": 84,
              "position": 1.5,
              "duration": 0.010416666666666666
            },
            {
              "pitch": 42,
              "velocity": 57,
              "position": 1.5,
              "duration": 0.010416666666666666
            },
            {
              "pitch": 40,
              "velocity": 70,
              "position": 1.5,
              "duration": 0.020833333333333332
            },
            {
              "pitch": 40,
              "velocity": 11,
              "position": 1.75,
              "duration": 0.020833333333333332
            },
            {
              "pitch": 42,
              "velocity": 25,
              "position": 2,
              "duration": 0.010416666666666666
            },
            {
              "pitch": 40,
              "velocity": 70,
              "position": 2.25,
              "duration": 0.020833333333333332
            },
            {
              "pitch": 36,
              "velocity": 82,
              "position": 2.5,
              "duration": 0.010416666666666666
            },
            {
              "pitch": 44,
              "velocity": 69,
              "position": 2.5,
              "duration": 0.010416666666666666
            },
            {
              "pitch": 40,
              "velocity": 16,
              "position": 2.75,
              "duration": 0.020833333333333332
            },
            {
              "pitch": 40,
              "velocity": 31,
              "position": 2.875,
              "duration": 0.020833333333333332
            },
            {
              "pitch": 42,
              "velocity": 39,
              "position": 3,
              "duration": 0.010416666666666666
            },
            {
              "pitch": 40,
              "velocity": 81,
              "position": 3,
              "duration": 0.020833333333333332
            },
            {
              "pitch": 42,
              "velocity": 24,
              "position": 3.2708333333333335,
              "duration": 0.010416666666666666
            },
            {
              "pitch": 42,
              "velocity": 55,
              "position": 3.5,
              "duration": 0.010416666666666666
            },
            {
              "pitch": 49,
              "velocity": 43,
              "position": 3.9895833333333335,
              "duration": 0.010416666666666666
            }
          ]
        },
        "10": {
          "ctab": {
            "srcChannel": 10,
            "name": "Bass",
            "accType": "BASS",
            "editable": false,
            "mutedNotes": [],
            "mutedChords": [],
            "autoStart": false,
            "sourceChordNote": 0,
            "sourceChordType": "Maj7",
            "ctb2Low": null,
            "ctb2Main": {
              "ntr": "ROOT_TRANSPOSITION",
              "ntt": "MELODY",
              "bassOn": true,
              "chordRootUpperLimit": 3,
              "noteLowLimit": 28,
              "noteHighLimit": 127,
              "rtr": "PITCH_SHIFT_TO_ROOT"
            },
            "ctb2High": null
          },
          "notes": [
            {
              "pitch": 24,
              "velocity": 80,
              "position": 0,
              "duration": 0.7395833333333334
            },
            {
              "pitch": 24,
              "velocity": 84,
              "position": 0.75,
              "duration": 0.020833333333333332
            },
            {
              "pitch": 24,
              "velocity": 80,
              "position": 1.5,
              "duration": 1.4791666666666667
            },
            {
              "pitch": 24,
              "velocity": 84,
              "position": 3,
              "duration": 0.020833333333333332
            }
          ]
        },
        "11": {
          "ctab": {
            "srcChannel": 11,
            "name": "12stGtr",
            "accType": "CHORD1",
            "editable": false,
            "mutedNotes": [],
            "mutedChords": [],
            "autoStart": false,
            "sourceChordNote": 0,
            "sourceChordType": "Maj7",
            "ctb2Low": null,
            "ctb2Main": {
              "ntr": "ROOT_FIXED",
              "ntt": "CHORD",
              "bassOn": false,
              "chordRootUpperLimit": 7,
              "noteLowLimit": 50,
              "noteHighLimit": 127,
              "rtr": "PITCH_SHIFT"
            },
            "ctb2High": null
          },
          "notes": [
            {
              "pitch": 55,
              "velocity": 86,
              "position": 0,
              "duration": 0.7395833333333334
            },
            {
              "pitch": 67,
              "velocity": 95,
              "position": 0.03125,
              "duration": 0.7083333333333334
            },
            {
              "pitch": 64,
              "velocity": 95,
              "position": 0.020833333333333332,
              "duration": 0.71875
            },
            {
              "pitch": 59,
              "velocity": 95,
              "position": 0.010416666666666666,
              "duration": 0.7395833333333334
            },
            {
              "pitch": 67,
              "velocity": 93,
              "position": 0.75,
              "duration": 0.21875
            },
            {
              "pitch": 55,
              "velocity": 93,
              "position": 0.76875,
              "duration": 0.2
            },
            {
              "pitch": 59,
              "velocity": 93,
              "position": 0.7625,
              "duration": 0.20625
            },
            {
              "pitch": 64,
              "velocity": 93,
              "position": 0.75625,
              "duration": 0.2125
            },
            {
              "pitch": 55,
              "velocity": 50,
              "position": 1.25,
              "duration": 0.23958333333333334
            },
            {
              "pitch": 64,
              "velocity": 50,
              "position": 1.25,
              "duration": 0.23958333333333334
            },
            {
              "pitch": 59,
              "velocity": 50,
              "position": 1.25,
              "duration": 0.23958333333333334
            },
            {
              "pitch": 55,
              "velocity": 82,
              "position": 1.5,
              "duration": 0.7395833333333334
            },
            {
              "pitch": 64,
              "velocity": 95,
              "position": 1.5104166666666667,
              "duration": 0.7291666666666666
            },
            {
              "pitch": 67,
              "velocity": 95,
              "position": 1.5145833333333334,
              "duration": 0.7270833333333333
            },
            {
              "pitch": 59,
              "velocity": 95,
              "position": 1.50625,
              "duration": 0.7395833333333334
            },
            {
              "pitch": 67,
              "velocity": 90,
              "position": 2.25,
              "duration": 0.25
            },
            {
              "pitch": 55,
              "velocity": 90,
              "position": 2.2645833333333334,
              "duration": 0.23541666666666666
            },
            {
              "pitch": 59,
              "velocity": 93,
              "position": 2.2604166666666665,
              "duration": 0.23958333333333334
            },
            {
              "pitch": 64,
              "velocity": 93,
              "position": 2.254166666666667,
              "duration": 0.24583333333333332
            },
            {
              "pitch": 55,
              "velocity": 50,
              "position": 2.75,
              "duration": 0.23958333333333334
            },
            {
              "pitch": 64,
              "velocity": 50,
              "position": 2.75,
              "duration": 0.23958333333333334
            },
            {
              "pitch": 59,
              "velocity": 50,
              "position": 2.75,
              "duration": 0.23958333333333334
            },
            {
              "pitch": 55,
              "velocity": 83,
              "position": 3,
              "duration": 0.34375
            },
            {
              "pitch": 67,
              "velocity": 95,
              "position": 3.03125,
              "duration": 0.3125
            },
            {
              "pitch": 64,
              "velocity": 92,
              "position": 3.0208333333333335,
              "duration": 0.3229166666666667
            },
            {
              "pitch": 59,
              "velocity": 89,
              "position": 3.0104166666666665,
              "duration": 0.3333333333333333
            },
            {
              "pitch": 55,
              "velocity": 50,
              "position": 3.75,
              "duration": 0.23958333333333334
            },
            {
              "pitch": 64,
              "velocity": 50,
              "position": 3.75,
              "duration": 0.23958333333333334
            },
            {
              "pitch": 59,
              "velocity": 50,
              "position": 3.75,
              "duration": 0.23958333333333334
            }
          ]
        },
        "12": {
          "ctab": {
            "srcChannel": 12,
            "name": "MuteGtr",
            "accType": "CHORD2",
            "editable": false,
            "mutedNotes": [],
            "mutedChords": [],
            "autoStart": false,
            "sourceChordNote": 0,
            "sourceChordType": "min7(11)",
            "ctb2Low": null,
            "ctb2Main": {
              "ntr": "ROOT_FIXED",
              "ntt": "CHORD",
              "bassOn": false,
              "chordRootUpperLimit": 7,
              "noteLowLimit": 50,
              "noteHighLimit": 127,
              "rtr": "PITCH_SHIFT"
            },
            "ctb2High": null
          },
          "notes": []
        },
        "13": {
          "ctab": {
            "srcChannel": 13,
            "name": "Strings",
            "accType": "PAD",
            "editable": false,
            "mutedNotes": [],
            "mutedChords": [],
            "autoStart": false,
            "sourceChordNote": 0,
            "sourceChordType": "Maj7",
            "ctb2Low": null,
            "ctb2Main": {
              "ntr": "ROOT_FIXED",
              "ntt": "CHORD",
              "bassOn": false,
              "chordRootUpperLimit": 7,
              "noteLowLimit": 0,
              "noteHighLimit": 127,
              "rtr": "PITCH_SHIFT"
            },
            "ctb2High": null
          },
          "notes": [
            {
              "pitch": 55,
              "velocity": 40,
              "position": 0,
              "duration": 3.9895833333333335
            },
            {
              "pitch": 64,
              "velocity": 40,
              "position": 0,
              "duration": 3.9895833333333335
            },
            {
              "pitch": 59,
              "velocity": 40,
              "position": 0,
              "duration": 3.9895833333333335
            }
          ]
        },
        "14": {
          "ctab": {
            "srcChannel": 14,
            "name": "add GTR",
            "accType": "PHRASE2",
            "editable": false,
            "mutedNotes": [],
            "mutedChords": [],
            "autoStart": false,
            "sourceChordNote": 0,
            "sourceChordType": "Maj7",
            "ctb2Low": null,
            "ctb2Main": {
              "ntr": "ROOT_FIXED",
              "ntt": "CHORD",
              "bassOn": false,
              "chordRootUpperLimit": 7,
              "noteLowLimit": 40,
              "noteHighLimit": 127,
              "rtr": "PITCH_SHIFT"
            },
            "ctb2High": null
          },
          "notes": [
            {
              "pitch": 59,
              "velocity": 108,
              "position": 0.010416666666666666,
              "duration": 0.7291666666666666
            },
            {
              "pitch": 55,
              "velocity": 108,
              "position": 0.03125,
              "duration": 0.7083333333333334
            },
            {
              "pitch": 64,
              "velocity": 108,
              "position": 0.020833333333333332,
              "duration": 0.71875
            },
            {
              "pitch": 55,
              "velocity": 100,
              "position": 0.75,
              "duration": 0.23958333333333334
            },
            {
              "pitch": 64,
              "velocity": 106,
              "position": 0.75,
              "duration": 0.23958333333333334
            },
            {
              "pitch": 59,
              "velocity": 107,
              "position": 0.75,
              "duration": 0.23958333333333334
            },
            {
              "pitch": 55,
              "velocity": 83,
              "position": 1,
              "duration": 0.03125
            },
            {
              "pitch": 64,
              "velocity": 83,
              "position": 1,
              "duration": 0.03125
            },
            {
              "pitch": 59,
              "velocity": 83,
              "position": 1,
              "duration": 0.03125
            },
            {
              "pitch": 55,
              "velocity": 95,
              "position": 1.28125,
              "duration": 0.03125
            },
            {
              "pitch": 64,
              "velocity": 95,
              "position": 1.28125,
              "duration": 0.03125
            },
            {
              "pitch": 59,
              "velocity": 95,
              "position": 1.28125,
              "duration": 0.03125
            },
            {
              "pitch": 55,
              "velocity": 108,
              "position": 1.5,
              "duration": 0.9895833333333334
            },
            {
              "pitch": 64,
              "velocity": 108,
              "position": 1.5,
              "duration": 0.9895833333333334
            },
            {
              "pitch": 59,
              "velocity": 108,
              "position": 1.5,
              "duration": 0.9895833333333334
            },
            {
              "pitch": 55,
              "velocity": 108,
              "position": 2.5,
              "duration": 0.25
            },
            {
              "pitch": 59,
              "velocity": 108,
              "position": 2.5208333333333335,
              "duration": 0.22916666666666666
            },
            {
              "pitch": 64,
              "velocity": 108,
              "position": 2.5104166666666665,
              "duration": 0.23958333333333334
            },
            {
              "pitch": 55,
              "velocity": 98,
              "position": 2.7708333333333335,
              "duration": 0.03125
            },
            {
              "pitch": 64,
              "velocity": 98,
              "position": 2.7708333333333335,
              "duration": 0.03125
            },
            {
              "pitch": 59,
              "velocity": 98,
              "position": 2.7708333333333335,
              "duration": 0.03125
            },
            {
              "pitch": 55,
              "velocity": 108,
              "position": 3,
              "duration": 0.25
            },
            {
              "pitch": 59,
              "velocity": 108,
              "position": 3.0208333333333335,
              "duration": 0.22916666666666666
            },
            {
              "pitch": 64,
              "velocity": 108,
              "position": 3.0104166666666665,
              "duration": 0.23958333333333334
            }
          ]
        },
        "15": {
          "ctab": {
            "srcChannel": 15,
            "name": "Egtr",
            "accType": "PHRASE1",
            "editable": false,
            "mutedNotes": [],
            "mutedChords": [],
            "autoStart": false,
            "sourceChordNote": 0,
            "sourceChordType": "min7(11)",
            "ctb2Low": null,
            "ctb2Main": {
              "ntr": "ROOT_FIXED",
              "ntt": "CHORD",
              "bassOn": false,
              "chordRootUpperLimit": 7,
              "noteLowLimit": 50,
              "noteHighLimit": 127,
              "rtr": "PITCH_SHIFT"
            },
            "ctb2High": null
          },
          "notes": [
            {
              "pitch": 60,
              "velocity": 68,
              "position": 0.5,
              "duration": 1.2416666666666667
            },
            {
              "pitch": 67,
              "velocity": 68,
              "position": 0.75,
              "duration": 1.4916666666666667
            },
            {
              "pitch": 55,
              "velocity": 68,
              "position": 1.25,
              "duration": 2.59375
            },
            {
              "pitch": 67,
              "velocity": 68,
              "position": 2.25,
              "duration": 1.7125
            },
            {
              "pitch": 60,
              "velocity": 68,
              "position": 1.75,
              "duration": 2.2395833333333335
            }
          ]
        }
      }
    },
    "Fill_In_CC": {
      "type": "Fill_In_CC",
      "sizeInBeats": 4,
      "channels": {
        "0": {
          "ctab": {
            "srcChannel": 0,
            "name": "CC_Crash",
            "accType": "RHYTHM",
            "editable": false,
            "mutedNotes": [],
            "mutedChords": [
              "1+2+5",
              "sus4",
              "1+5",
              "1+8",
              "7aug",
              "Maj7aug",
              "7(#9)",
              "7(b13)",
              "7(b9)",
              "7(13)",
              "7#11",
              "7(9)",
              "7b5",
              "7sus4",
              "7th",
              "dim7",
              "dim",
              "minMaj7(9)",
              "minMaj7",
              "min7(11)",
              "min7(9)",
              "min(9)",
              "m7b5",
              "min7",
              "min6",
              "min",
              "aug",
              "Maj6(9)",
              "Maj7(9)",
              "Maj(9)",
              "Maj7#11",
              "Maj7",
              "Maj6",
              "Maj"
            ],
            "autoStart": true,
            "sourceChordNote": 0,
            "sourceChordType": "Maj",
            "ctb2Low": null,
            "ctb2Main": {
              "ntr": "ROOT_FIXED",
              "ntt": "BYPASS",
              "bassOn": false,
              "chordRootUpperLimit": 0,
              "noteLowLimit": 0,
              "noteHighLimit": 127,
              "rtr": "RETRIGGER"
            },
            "ctb2High": null
          },
          "notes": []
        },
        "1": {
          "ctab": {
            "srcChannel": 1,
            "name": "12st SFX",
            "accType": "CHORD1",
            "editable": false,
            "mutedNotes": [],
            "mutedChords": [],
            "autoStart": false,
            "sourceChordNote": 0,
            "sourceChordType": "Maj7",
            "ctb2Low": null,
            "ctb2Main": {
              "ntr": "ROOT_FIXED",
              "ntt": "BYPASS",
              "bassOn": false,
              "chordRootUpperLimit": 7,
              "noteLowLimit": 0,
              "noteHighLimit": 127,
              "rtr": "PITCH_SHIFT"
            },
            "ctb2High": null
          },
          "notes": []
        },
        "3": {
          "ctab": {
            "srcChannel": 3,
            "name": "12st rt",
            "accType": "CHORD1",
            "editable": false,
            "mutedNotes": [],
            "mutedChords": [
              "1+2+5",
              "sus4",
              "1+5",
              "1+8",
              "Maj7aug",
              "dim",
              "minMaj7(9)",
              "minMaj7",
              "min6",
              "min",
              "aug",
              "Maj7(9)",
              "Maj7#11",
              "Maj7",
              "Maj6",
              "Maj"
            ],
            "autoStart": false,
            "sourceChordNote": 0,
            "sourceChordType": "Maj7",
            "ctb2Low": null,
            "ctb2Main": {
              "ntr": "ROOT_TRANSPOSITION",
              "ntt": "MELODY",
              "bassOn": false,
              "chordRootUpperLimit": 6,
              "noteLowLimit": 0,
              "noteHighLimit": 127,
              "rtr": "PITCH_SHIFT"
            },
            "ctb2High": null
          },
          "notes": []
        },
        "5": {
          "ctab": {
            "srcChannel": 5,
            "name": "Strg rt",
            "accType": "PAD",
            "editable": false,
            "mutedNotes": [],
            "mutedChords": [
              "1+2+5",
              "sus4",
              "1+5",
              "1+8",
              "Maj7aug",
              "dim",
              "minMaj7(9)",
              "minMaj7",
              "min6",
              "min",
              "aug",
              "Maj7(9)",
              "Maj7#11",
              "Maj7",
              "Maj6",
              "Maj"
            ],
            "autoStart": false,
            "sourceChordNote": 0,
            "sourceChordType": "Maj7",
            "ctb2Low": null,
            "ctb2Main": {
              "ntr": "ROOT_TRANSPOSITION",
              "ntt": "MELODY",
              "bassOn": false,
              "chordRootUpperLimit": 6,
              "noteLowLimit": 0,
              "noteHighLimit": 127,
              "rtr": "PITCH_SHIFT"
            },
            "ctb2High": null
          },
          "notes": []
        },
        "8": {
          "ctab": {
            "srcChannel": 8,
            "name": "AddDrum",
            "accType": "SUBRHYTHM",
            "editable": false,
            "mutedNotes": [],
            "mutedChords": [],
            "autoStart": true,
            "sourceChordNote": 0,
            "sourceChordType": "Maj7",
            "ctb2Low": null,
            "ctb2Main": {
              "ntr": "ROOT_FIXED",
              "ntt": "BYPASS",
              "bassOn": false,
              "chordRootUpperLimit": 6,
              "noteLowLimit": 0,
              "noteHighLimit": 127,
              "rtr": "PITCH_SHIFT"
            },
            "ctb2High": null
          },
          "notes": [
            {
              "pitch": 27,
              "velocity": 81,
              "position": 0,
              "duration": 0.010416666666666666
            },
            {
              "pitch": 82,
              "velocity": 72,
              "position": 0,
              "duration": 0.010416666666666666
            },
            {
              "pitch": 70,
              "velocity": 72,
              "position": 0,
              "duration": 0.010416666666666666
            },
            {
              "pitch": 25,
              "velocity": 34,
              "position": 0.2708333333333333,
              "duration": 0.010416666666666666
            },
            {
              "pitch": 70,
              "velocity": 44,
              "position": 0.2708333333333333,
              "duration": 0.010416666666666666
            },
            {
              "pitch": 27,
              "velocity": 31,
              "position": 0.5,
              "duration": 0.010416666666666666
            },
            {
              "pitch": 82,
              "velocity": 40,
              "position": 0.5,
              "duration": 0.010416666666666666
            },
            {
              "pitch": 70,
              "velocity": 72,
              "position": 0.5,
              "duration": 0.010416666666666666
            },
            {
              "pitch": 25,
              "velocity": 91,
              "position": 0.7708333333333334,
              "duration": 0.010416666666666666
            },
            {
              "pitch": 70,
              "velocity": 44,
              "position": 0.7708333333333334,
              "duration": 0.010416666666666666
            },
            {
              "pitch": 27,
              "velocity": 90,
              "position": 1,
              "duration": 0.010416666666666666
            },
            {
              "pitch": 82,
              "velocity": 72,
              "position": 1,
              "duration": 0.010416666666666666
            },
            {
              "pitch": 70,
              "velocity": 72,
              "position": 1,
              "duration": 0.010416666666666666
            },
            {
              "pitch": 25,
              "velocity": 30,
              "position": 1.2708333333333333,
              "duration": 0.010416666666666666
            },
            {
              "pitch": 70,
              "velocity": 44,
              "position": 1.2708333333333333,
              "duration": 0.010416666666666666
            },
            {
              "pitch": 27,
              "velocity": 32,
              "position": 1.5,
              "duration": 0.010416666666666666
            },
            {
              "pitch": 82,
              "velocity": 40,
              "position": 1.5,
              "duration": 0.010416666666666666
            },
            {
              "pitch": 70,
              "velocity": 72,
              "position": 1.5,
              "duration": 0.010416666666666666
            },
            {
              "pitch": 25,
              "velocity": 74,
              "position": 1.7708333333333333,
              "duration": 0.010416666666666666
            },
            {
              "pitch": 70,
              "velocity": 44,
              "position": 1.7708333333333333,
              "duration": 0.010416666666666666
            },
            {
              "pitch": 69,
              "velocity": 57,
              "position": 1.7708333333333333,
              "duration": 0.010416666666666666
            },
            {
              "pitch": 27,
              "velocity": 85,
              "position": 2,
              "duration": 0.010416666666666666
            },
            {
              "pitch": 82,
              "velocity": 72,
              "position": 2,
              "duration": 0.010416666666666666
            },
            {
              "pitch": 70,
              "velocity": 62,
              "position": 2,
              "duration": 0.010416666666666666
            },
            {
              "pitch": 25,
              "velocity": 34,
              "position": 2.2708333333333335,
              "duration": 0.010416666666666666
            },
            {
              "pitch": 70,
              "velocity": 44,
              "position": 2.2708333333333335,
              "duration": 0.010416666666666666
            },
            {
              "pitch": 27,
              "velocity": 31,
              "position": 2.5,
              "duration": 0.010416666666666666
            },
            {
              "pitch": 82,
              "velocity": 40,
              "position": 2.5,
              "duration": 0.010416666666666666
            },
            {
              "pitch": 70,
              "velocity": 72,
              "position": 2.5,
              "duration": 0.010416666666666666
            },
            {
              "pitch": 25,
              "velocity": 94,
              "position": 2.7708333333333335,
              "duration": 0.010416666666666666
            },
            {
              "pitch": 70,
              "velocity": 44,
              "position": 2.7708333333333335,
              "duration": 0.010416666666666666
            },
            {
              "pitch": 27,
              "velocity": 74,
              "position": 3,
              "duration": 0.010416666666666666
            },
            {
              "pitch": 82,
              "velocity": 72,
              "position": 3,
              "duration": 0.010416666666666666
            },
            {
              "pitch": 70,
              "velocity": 72,
              "position": 3,
              "duration": 0.010416666666666666
            },
            {
              "pitch": 54,
              "velocity": 110,
              "position": 3,
              "duration": 0.03125
            },
            {
              "pitch": 25,
              "velocity": 61,
              "position": 3.2708333333333335,
              "duration": 0.010416666666666666
            },
            {
              "pitch": 70,
              "velocity": 44,
              "position": 3.2708333333333335,
              "duration": 0.010416666666666666
            },
            {
              "pitch": 27,
              "velocity": 32,
              "position": 3.5,
              "duration": 0.010416666666666666
            },
            {
              "pitch": 82,
              "velocity": 40,
              "position": 3.5,
              "duration": 0.010416666666666666
            },
            {
              "pitch": 70,
              "velocity": 72,
              "position": 3.5,
              "duration": 0.010416666666666666
            },
            {
              "pitch": 25,
              "velocity": 89,
              "position": 3.7708333333333335,
              "duration": 0.010416666666666666
            },
            {
              "pitch": 70,
              "velocity": 44,
              "position": 3.7708333333333335,
              "duration": 0.010416666666666666
            },
            {
              "pitch": 69,
              "velocity": 57,
              "position": 3.7708333333333335,
              "duration": 0.010416666666666666
            }
          ]
        },
        "9": {
          "ctab": {
            "srcChannel": 9,
            "name": "MainDrum",
            "accType": "RHYTHM",
            "editable": false,
            "mutedNotes": [],
            "mutedChords": [],
            "autoStart": true,
            "sourceChordNote": 0,
            "sourceChordType": "Maj7",
            "ctb2Low": null,
            "ctb2Main": {
              "ntr": "ROOT_FIXED",
              "ntt": "BYPASS",
              "bassOn": false,
              "chordRootUpperLimit": 6,
              "noteLowLimit": 0,
              "noteHighLimit": 127,
              "rtr": "PITCH_SHIFT"
            },
            "ctb2High": null
          },
          "notes": [
            {
              "pitch": 36,
              "velocity": 98,
              "position": 0,
              "duration": 0.010416666666666666
            },
            {
              "pitch": 42,
              "velocity": 70,
              "position": 0,
              "duration": 0.010416666666666666
            },
            {
              "pitch": 42,
              "velocity": 10,
              "position": 0.25,
              "duration": 0.010416666666666666
            },
            {
              "pitch": 40,
              "velocity": 11,
              "position": 0.25,
              "duration": 0.020833333333333332
            },
            {
              "pitch": 42,
              "velocity": 78,
              "position": 0.5,
              "duration": 0.010416666666666666
            },
            {
              "pitch": 36,
              "velocity": 50,
              "position": 0.75,
              "duration": 0.010416666666666666
            },
            {
              "pitch": 42,
              "velocity": 5,
              "position": 0.75,
              "duration": 0.010416666666666666
            },
            {
              "pitch": 40,
              "velocity": 11,
              "position": 0.75,
              "duration": 0.020833333333333332
            },
            {
              "pitch": 42,
              "velocity": 78,
              "position": 1,
              "duration": 0.010416666666666666
            },
            {
              "pitch": 40,
              "velocity": 81,
              "position": 1,
              "duration": 0.020833333333333332
            },
            {
              "pitch": 42,
              "velocity": 7,
              "position": 1.25,
              "duration": 0.010416666666666666
            },
            {
              "pitch": 40,
              "velocity": 11,
              "position": 1.25,
              "duration": 0.020833333333333332
            },
            {
              "pitch": 42,
              "velocity": 78,
              "position": 1.5,
              "duration": 0.010416666666666666
            },
            {
              "pitch": 36,
              "velocity": 40,
              "position": 1.75,
              "duration": 0.010416666666666666
            },
            {
              "pitch": 42,
              "velocity": 8,
              "position": 1.75,
              "duration": 0.010416666666666666
            },
            {
              "pitch": 40,
              "velocity": 11,
              "position": 1.75,
              "duration": 0.020833333333333332
            },
            {
              "pitch": 36,
              "velocity": 98,
              "position": 2,
              "duration": 0.010416666666666666
            },
            {
              "pitch": 42,
              "velocity": 70,
              "position": 2,
              "duration": 0.010416666666666666
            },
            {
              "pitch": 42,
              "velocity": 11,
              "position": 2.25,
              "duration": 0.010416666666666666
            },
            {
              "pitch": 40,
              "velocity": 11,
              "position": 2.25,
              "duration": 0.020833333333333332
            },
            {
              "pitch": 42,
              "velocity": 78,
              "position": 2.5,
              "duration": 0.010416666666666666
            },
            {
              "pitch": 40,
              "velocity": 81,
              "position": 2.5,
              "duration": 0.020833333333333332
            },
            {
              "pitch": 42,
              "velocity": 1,
              "position": 2.75,
              "duration": 0.010416666666666666
            },
            {
              "pitch": 40,
              "velocity": 16,
              "position": 2.75,
              "duration": 0.020833333333333332
            },
            {
              "pitch": 40,
              "velocity": 31,
              "position": 2.875,
              "duration": 0.020833333333333332
            },
            {
              "pitch": 42,
              "velocity": 78,
              "position": 3,
              "duration": 0.010416666666666666
            },
            {
              "pitch": 40,
              "velocity": 78,
              "position": 3,
              "duration": 0.020833333333333332
            },
            {
              "pitch": 42,
              "velocity": 2,
              "position": 3.25,
              "duration": 0.010416666666666666
            },
            {
              "pitch": 40,
              "velocity": 81,
              "position": 3.25,
              "duration": 0.020833333333333332
            },
            {
              "pitch": 42,
              "velocity": 78,
              "position": 3.5,
              "duration": 0.010416666666666666
            },
            {
              "pitch": 45,
              "velocity": 58,
              "position": 3.5,
              "duration": 0.010416666666666666
            },
            {
              "pitch": 42,
              "velocity": 11,
              "position": 3.75,
              "duration": 0.010416666666666666
            },
            {
              "pitch": 43,
              "velocity": 58,
              "position": 3.75,
              "duration": 0.010416666666666666
            },
            {
              "pitch": 57,
              "velocity": 47,
              "position": 3.9895833333333335,
              "duration": 0.010416666666666666
            }
          ]
        },
        "10": {
          "ctab": {
            "srcChannel": 10,
            "name": "Bass",
            "accType": "BASS",
            "editable": false,
            "mutedNotes": [],
            "mutedChords": [],
            "autoStart": false,
            "sourceChordNote": 0,
            "sourceChordType": "Maj7",
            "ctb2Low": null,
            "ctb2Main": {
              "ntr": "ROOT_TRANSPOSITION",
              "ntt": "MELODY",
              "bassOn": true,
              "chordRootUpperLimit": 3,
              "noteLowLimit": 28,
              "noteHighLimit": 127,
              "rtr": "PITCH_SHIFT_TO_ROOT"
            },
            "ctb2High": null
          },
          "notes": [
            {
              "pitch": 36,
              "velocity": 80,
              "position": 0,
              "duration": 1.1979166666666667
            },
            {
              "pitch": 36,
              "velocity": 80,
              "position": 1.5,
              "duration": 0.2604166666666667
            },
            {
              "pitch": 36,
              "velocity": 80,
              "position": 1.7708333333333333,
              "duration": 0.40625
            },
            {
              "pitch": 31,
              "velocity": 80,
              "position": 3,
              "duration": 0.9916666666666667
            }
          ]
        },
        "11": {
          "ctab": {
            "srcChannel": 11,
            "name": "12stGtr",
            "accType": "CHORD1",
            "editable": false,
            "mutedNotes": [],
            "mutedChords": [],
            "autoStart": false,
            "sourceChordNote": 0,
            "sourceChordType": "Maj7",
            "ctb2Low": null,
            "ctb2Main": {
              "ntr": "ROOT_FIXED",
              "ntt": "CHORD",
              "bassOn": false,
              "chordRootUpperLimit": 7,
              "noteLowLimit": 50,
              "noteHighLimit": 127,
              "rtr": "PITCH_SHIFT"
            },
            "ctb2High": null
          },
          "notes": [
            {
              "pitch": 59,
              "velocity": 94,
              "position": 0,
              "duration": 0.7395833333333334
            },
            {
              "pitch": 67,
              "velocity": 98,
              "position": 0,
              "duration": 0.7395833333333334
            },
            {
              "pitch": 64,
              "velocity": 94,
              "position": 0,
              "duration": 0.7395833333333334
            },
            {
              "pitch": 59,
              "velocity": 93,
              "position": 0.75,
              "duration": 0.23958333333333334
            },
            {
              "pitch": 67,
              "velocity": 92,
              "position": 0.75,
              "duration": 0.23958333333333334
            },
            {
              "pitch": 64,
              "velocity": 93,
              "position": 0.75,
              "duration": 0.23958333333333334
            },
            {
              "pitch": 59,
              "velocity": 55,
              "position": 1,
              "duration": 0.03125
            },
            {
              "pitch": 67,
              "velocity": 55,
              "position": 1,
              "duration": 0.03125
            },
            {
              "pitch": 64,
              "velocity": 55,
              "position": 1,
              "duration": 0.03125
            },
            {
              "pitch": 59,
              "velocity": 70,
              "position": 1.25,
              "duration": 0.03125
            },
            {
              "pitch": 67,
              "velocity": 70,
              "position": 1.25,
              "duration": 0.03125
            },
            {
              "pitch": 64,
              "velocity": 70,
              "position": 1.25,
              "duration": 0.03125
            },
            {
              "pitch": 59,
              "velocity": 98,
              "position": 1.5,
              "duration": 0.7291666666666666
            },
            {
              "pitch": 67,
              "velocity": 98,
              "position": 1.5,
              "duration": 0.7291666666666666
            },
            {
              "pitch": 64,
              "velocity": 98,
              "position": 1.5,
              "duration": 0.7291666666666666
            },
            {
              "pitch": 59,
              "velocity": 76,
              "position": 2.25,
              "duration": 0.5125
            },
            {
              "pitch": 67,
              "velocity": 76,
              "position": 2.25,
              "duration": 0.5125
            },
            {
              "pitch": 64,
              "velocity": 76,
              "position": 2.25,
              "duration": 0.5125
            },
            {
              "pitch": 59,
              "velocity": 62,
              "position": 2.7708333333333335,
              "duration": 0.22083333333333333
            },
            {
              "pitch": 67,
              "velocity": 62,
              "position": 2.7708333333333335,
              "duration": 0.22083333333333333
            },
            {
              "pitch": 64,
              "velocity": 62,
              "position": 2.7708333333333335,
              "duration": 0.22083333333333333
            },
            {
              "pitch": 59,
              "velocity": 98,
              "position": 3,
              "duration": 0.9895833333333334
            },
            {
              "pitch": 67,
              "velocity": 98,
              "position": 3,
              "duration": 0.9895833333333334
            },
            {
              "pitch": 64,
              "velocity": 98,
              "position": 3,
              "duration": 0.9895833333333334
            }
          ]
        },
        "12": {
          "ctab": {
            "srcChannel": 12,
            "name": "MuteGtr",
            "accType": "CHORD2",
            "editable": false,
            "mutedNotes": [],
            "mutedChords": [],
            "autoStart": false,
            "sourceChordNote": 0,
            "sourceChordType": "min7(11)",
            "ctb2Low": null,
            "ctb2Main": {
              "ntr": "ROOT_FIXED",
              "ntt": "CHORD",
              "bassOn": false,
              "chordRootUpperLimit": 7,
              "noteLowLimit": 50,
              "noteHighLimit": 127,
              "rtr": "PITCH_SHIFT"
            },
            "ctb2High": null
          },
          "notes": []
        },
        "13": {
          "ctab": {
            "srcChannel": 13,
            "name": "Strings",
            "accType": "PAD",
            "editable": false,
            "mutedNotes": [],
            "mutedChords": [],
            "autoStart": false,
            "sourceChordNote": 0,
            "sourceChordType": "Maj7",
            "ctb2Low": null,
            "ctb2Main": {
              "ntr": "ROOT_FIXED",
              "ntt": "CHORD",
              "bassOn": false,
              "chordRootUpperLimit": 7,
              "noteLowLimit": 0,
              "noteHighLimit": 127,
              "rtr": "PITCH_SHIFT"
            },
            "ctb2High": null
          },
          "notes": [
            {
              "pitch": 55,
              "velocity": 40,
              "position": 0,
              "duration": 3.9895833333333335
            },
            {
              "pitch": 64,
              "velocity": 40,
              "position": 0,
              "duration": 3.9895833333333335
            },
            {
              "pitch": 59,
              "velocity": 40,
              "position": 0,
              "duration": 3.9895833333333335
            }
          ]
        },
        "14": {
          "ctab": {
            "srcChannel": 14,
            "name": "add GTR",
            "accType": "PHRASE2",
            "editable": false,
            "mutedNotes": [],
            "mutedChords": [],
            "autoStart": false,
            "sourceChordNote": 0,
            "sourceChordType": "Maj7",
            "ctb2Low": null,
            "ctb2Main": {
              "ntr": "ROOT_FIXED",
              "ntt": "CHORD",
              "bassOn": false,
              "chordRootUpperLimit": 7,
              "noteLowLimit": 40,
              "noteHighLimit": 127,
              "rtr": "PITCH_SHIFT"
            },
            "ctb2High": null
          },
          "notes": [
            {
              "pitch": 55,
              "velocity": 108,
              "position": 0,
              "duration": 0.7395833333333334
            },
            {
              "pitch": 64,
              "velocity": 108,
              "position": 0,
              "duration": 0.7395833333333334
            },
            {
              "pitch": 59,
              "velocity": 108,
              "position": 0,
              "duration": 0.7395833333333334
            },
            {
              "pitch": 55,
              "velocity": 103,
              "position": 0.75,
              "duration": 0.23958333333333334
            },
            {
              "pitch": 64,
              "velocity": 108,
              "position": 0.75,
              "duration": 0.23958333333333334
            },
            {
              "pitch": 59,
              "velocity": 108,
              "position": 0.75,
              "duration": 0.23958333333333334
            },
            {
              "pitch": 55,
              "velocity": 92,
              "position": 1,
              "duration": 0.041666666666666664
            },
            {
              "pitch": 64,
              "velocity": 92,
              "position": 1,
              "duration": 0.041666666666666664
            },
            {
              "pitch": 59,
              "velocity": 92,
              "position": 1,
              "duration": 0.041666666666666664
            },
            {
              "pitch": 55,
              "velocity": 92,
              "position": 1.25,
              "duration": 0.041666666666666664
            },
            {
              "pitch": 64,
              "velocity": 92,
              "position": 1.25,
              "duration": 0.041666666666666664
            },
            {
              "pitch": 59,
              "velocity": 92,
              "position": 1.25,
              "duration": 0.041666666666666664
            },
            {
              "pitch": 55,
              "velocity": 108,
              "position": 1.5,
              "duration": 0.7416666666666667
            },
            {
              "pitch": 64,
              "velocity": 108,
              "position": 1.5,
              "duration": 0.7416666666666667
            },
            {
              "pitch": 59,
              "velocity": 108,
              "position": 1.5,
              "duration": 0.7416666666666667
            },
            {
              "pitch": 55,
              "velocity": 94,
              "position": 2.25,
              "duration": 0.5125
            },
            {
              "pitch": 64,
              "velocity": 94,
              "position": 2.25,
              "duration": 0.5125
            },
            {
              "pitch": 59,
              "velocity": 94,
              "position": 2.25,
              "duration": 0.5125
            },
            {
              "pitch": 55,
              "velocity": 89,
              "position": 2.7708333333333335,
              "duration": 0.22083333333333333
            },
            {
              "pitch": 64,
              "velocity": 89,
              "position": 2.7708333333333335,
              "duration": 0.22083333333333333
            },
            {
              "pitch": 59,
              "velocity": 89,
              "position": 2.7708333333333335,
              "duration": 0.22083333333333333
            },
            {
              "pitch": 55,
              "velocity": 108,
              "position": 3,
              "duration": 0.9583333333333334
            },
            {
              "pitch": 64,
              "velocity": 108,
              "position": 3,
              "duration": 0.9583333333333334
            },
            {
              "pitch": 59,
              "velocity": 108,
              "position": 3,
              "duration": 0.9583333333333334
            }
          ]
        },
        "15": {
          "ctab": {
            "srcChannel": 15,
            "name": "Egtr",
            "accType": "PHRASE1",
            "editable": false,
            "mutedNotes": [],
            "mutedChords": [],
            "autoStart": false,
            "sourceChordNote": 0,
            "sourceChordType": "min7(11)",
            "ctb2Low": null,
            "ctb2Main": {
              "ntr": "ROOT_FIXED",
              "ntt": "CHORD",
              "bassOn": false,
              "chordRootUpperLimit": 7,
              "noteLowLimit": 50,
              "noteHighLimit": 127,
              "rtr": "PITCH_SHIFT"
            },
            "ctb2High": null
          },
          "notes": []
        }
      }
    },
    "Fill_In_DD": {
      "type": "Fill_In_DD",
      "sizeInBeats": 4,
      "channels": {
        "0": {
          "ctab": {
            "srcChannel": 0,
            "name": "CC_Crash",
            "accType": "RHYTHM",
            "editable": false,
            "mutedNotes": [],
            "mutedChords": [
              "1+2+5",
              "sus4",
              "1+5",
              "1+8",
              "7aug",
              "Maj7aug",
              "7(#9)",
              "7(b13)",
              "7(b9)",
              "7(13)",
              "7#11",
              "7(9)",
              "7b5",
              "7sus4",
              "7th",
              "dim7",
              "dim",
              "minMaj7(9)",
              "minMaj7",
              "min7(11)",
              "min7(9)",
              "min(9)",
              "m7b5",
              "min7",
              "min6",
              "min",
              "aug",
              "Maj6(9)",
              "Maj7(9)",
              "Maj(9)",
              "Maj7#11",
              "Maj7",
              "Maj6",
              "Maj"
            ],
            "autoStart": true,
            "sourceChordNote": 0,
            "sourceChordType": "Maj",
            "ctb2Low": null,
            "ctb2Main": {
              "ntr": "ROOT_FIXED",
              "ntt": "BYPASS",
              "bassOn": false,
              "chordRootUpperLimit": 0,
              "noteLowLimit": 0,
              "noteHighLimit": 127,
              "rtr": "RETRIGGER"
            },
            "ctb2High": null
          },
          "notes": []
        },
        "1": {
          "ctab": {
            "srcChannel": 1,
            "name": "12st SFX",
            "accType": "CHORD1",
            "editable": false,
            "mutedNotes": [],
            "mutedChords": [],
            "autoStart": false,
            "sourceChordNote": 0,
            "sourceChordType": "Maj7",
            "ctb2Low": null,
            "ctb2Main": {
              "ntr": "ROOT_FIXED",
              "ntt": "BYPASS",
              "bassOn": false,
              "chordRootUpperLimit": 7,
              "noteLowLimit": 0,
              "noteHighLimit": 127,
              "rtr": "PITCH_SHIFT"
            },
            "ctb2High": null
          },
          "notes": []
        },
        "3": {
          "ctab": {
            "srcChannel": 3,
            "name": "12st rt",
            "accType": "CHORD1",
            "editable": false,
            "mutedNotes": [],
            "mutedChords": [
              "1+2+5",
              "sus4",
              "1+5",
              "1+8",
              "Maj7aug",
              "dim",
              "minMaj7(9)",
              "minMaj7",
              "min6",
              "min",
              "aug",
              "Maj7(9)",
              "Maj7#11",
              "Maj7",
              "Maj6",
              "Maj"
            ],
            "autoStart": false,
            "sourceChordNote": 0,
            "sourceChordType": "Maj7",
            "ctb2Low": null,
            "ctb2Main": {
              "ntr": "ROOT_TRANSPOSITION",
              "ntt": "MELODY",
              "bassOn": false,
              "chordRootUpperLimit": 6,
              "noteLowLimit": 0,
              "noteHighLimit": 127,
              "rtr": "PITCH_SHIFT"
            },
            "ctb2High": null
          },
          "notes": []
        },
        "5": {
          "ctab": {
            "srcChannel": 5,
            "name": "Strg rt",
            "accType": "PAD",
            "editable": false,
            "mutedNotes": [],
            "mutedChords": [
              "1+2+5",
              "sus4",
              "1+5",
              "1+8",
              "Maj7aug",
              "dim",
              "minMaj7(9)",
              "minMaj7",
              "min6",
              "min",
              "aug",
              "Maj7(9)",
              "Maj7#11",
              "Maj7",
              "Maj6",
              "Maj"
            ],
            "autoStart": false,
            "sourceChordNote": 0,
            "sourceChordType": "Maj7",
            "ctb2Low": null,
            "ctb2Main": {
              "ntr": "ROOT_TRANSPOSITION",
              "ntt": "MELODY",
              "bassOn": false,
              "chordRootUpperLimit": 6,
              "noteLowLimit": 0,
              "noteHighLimit": 127,
              "rtr": "PITCH_SHIFT"
            },
            "ctb2High": null
          },
          "notes": []
        },
        "8": {
          "ctab": {
            "srcChannel": 8,
            "name": "AddDrum",
            "accType": "SUBRHYTHM",
            "editable": false,
            "mutedNotes": [],
            "mutedChords": [],
            "autoStart": true,
            "sourceChordNote": 0,
            "sourceChordType": "Maj7",
            "ctb2Low": null,
            "ctb2Main": {
              "ntr": "ROOT_FIXED",
              "ntt": "BYPASS",
              "bassOn": false,
              "chordRootUpperLimit": 6,
              "noteLowLimit": 0,
              "noteHighLimit": 127,
              "rtr": "PITCH_SHIFT"
            },
            "ctb2High": null
          },
          "notes": [
            {
              "pitch": 27,
              "velocity": 84,
              "position": 0,
              "duration": 0.010416666666666666
            },
            {
              "pitch": 82,
              "velocity": 72,
              "position": 0,
              "duration": 0.010416666666666666
            },
            {
              "pitch": 70,
              "velocity": 60,
              "position": 0,
              "duration": 0.020833333333333332
            },
            {
              "pitch": 54,
              "velocity": 93,
              "position": 0,
              "duration": 0.041666666666666664
            },
            {
              "pitch": 25,
              "velocity": 47,
              "position": 0.25,
              "duration": 0.010416666666666666
            },
            {
              "pitch": 70,
              "velocity": 14,
              "position": 0.25,
              "duration": 0.010416666666666666
            },
            {
              "pitch": 54,
              "velocity": 47,
              "position": 0.25,
              "duration": 0.041666666666666664
            },
            {
              "pitch": 27,
              "velocity": 49,
              "position": 0.5,
              "duration": 0.010416666666666666
            },
            {
              "pitch": 82,
              "velocity": 33,
              "position": 0.5,
              "duration": 0.010416666666666666
            },
            {
              "pitch": 70,
              "velocity": 38,
              "position": 0.5,
              "duration": 0.020833333333333332
            },
            {
              "pitch": 54,
              "velocity": 53,
              "position": 0.5,
              "duration": 0.041666666666666664
            },
            {
              "pitch": 25,
              "velocity": 67,
              "position": 0.75,
              "duration": 0.010416666666666666
            },
            {
              "pitch": 70,
              "velocity": 15,
              "position": 0.75,
              "duration": 0.010416666666666666
            },
            {
              "pitch": 54,
              "velocity": 47,
              "position": 0.75,
              "duration": 0.041666666666666664
            },
            {
              "pitch": 27,
              "velocity": 84,
              "position": 1,
              "duration": 0.010416666666666666
            },
            {
              "pitch": 82,
              "velocity": 72,
              "position": 1,
              "duration": 0.010416666666666666
            },
            {
              "pitch": 70,
              "velocity": 100,
              "position": 1,
              "duration": 0.020833333333333332
            },
            {
              "pitch": 54,
              "velocity": 122,
              "position": 1,
              "duration": 0.041666666666666664
            },
            {
              "pitch": 25,
              "velocity": 49,
              "position": 1.25,
              "duration": 0.010416666666666666
            },
            {
              "pitch": 70,
              "velocity": 14,
              "position": 1.25,
              "duration": 0.010416666666666666
            },
            {
              "pitch": 54,
              "velocity": 47,
              "position": 1.25,
              "duration": 0.041666666666666664
            },
            {
              "pitch": 27,
              "velocity": 54,
              "position": 1.5,
              "duration": 0.010416666666666666
            },
            {
              "pitch": 82,
              "velocity": 32,
              "position": 1.5,
              "duration": 0.010416666666666666
            },
            {
              "pitch": 69,
              "velocity": 47,
              "position": 1.5,
              "duration": 0.010416666666666666
            },
            {
              "pitch": 70,
              "velocity": 38,
              "position": 1.5,
              "duration": 0.020833333333333332
            },
            {
              "pitch": 54,
              "velocity": 53,
              "position": 1.5,
              "duration": 0.041666666666666664
            },
            {
              "pitch": 25,
              "velocity": 88,
              "position": 1.75,
              "duration": 0.010416666666666666
            },
            {
              "pitch": 70,
              "velocity": 15,
              "position": 1.75,
              "duration": 0.010416666666666666
            },
            {
              "pitch": 69,
              "velocity": 67,
              "position": 1.75,
              "duration": 0.010416666666666666
            },
            {
              "pitch": 54,
              "velocity": 47,
              "position": 1.75,
              "duration": 0.041666666666666664
            },
            {
              "pitch": 27,
              "velocity": 47,
              "position": 2,
              "duration": 0.010416666666666666
            },
            {
              "pitch": 82,
              "velocity": 72,
              "position": 2,
              "duration": 0.010416666666666666
            },
            {
              "pitch": 70,
              "velocity": 60,
              "position": 2,
              "duration": 0.020833333333333332
            },
            {
              "pitch": 54,
              "velocity": 93,
              "position": 2,
              "duration": 0.041666666666666664
            },
            {
              "pitch": 25,
              "velocity": 88,
              "position": 2.25,
              "duration": 0.010416666666666666
            },
            {
              "pitch": 70,
              "velocity": 14,
              "position": 2.25,
              "duration": 0.010416666666666666
            },
            {
              "pitch": 54,
              "velocity": 47,
              "position": 2.25,
              "duration": 0.041666666666666664
            },
            {
              "pitch": 27,
              "velocity": 46,
              "position": 2.5,
              "duration": 0.010416666666666666
            },
            {
              "pitch": 82,
              "velocity": 34,
              "position": 2.5,
              "duration": 0.010416666666666666
            },
            {
              "pitch": 70,
              "velocity": 38,
              "position": 2.5,
              "duration": 0.020833333333333332
            },
            {
              "pitch": 54,
              "velocity": 53,
              "position": 2.5,
              "duration": 0.041666666666666664
            },
            {
              "pitch": 25,
              "velocity": 64,
              "position": 2.75,
              "duration": 0.010416666666666666
            },
            {
              "pitch": 70,
              "velocity": 15,
              "position": 2.75,
              "duration": 0.010416666666666666
            },
            {
              "pitch": 54,
              "velocity": 47,
              "position": 2.75,
              "duration": 0.041666666666666664
            },
            {
              "pitch": 27,
              "velocity": 84,
              "position": 3,
              "duration": 0.010416666666666666
            },
            {
              "pitch": 82,
              "velocity": 72,
              "position": 3,
              "duration": 0.010416666666666666
            },
            {
              "pitch": 70,
              "velocity": 100,
              "position": 3,
              "duration": 0.020833333333333332
            },
            {
              "pitch": 54,
              "velocity": 122,
              "position": 3,
              "duration": 0.041666666666666664
            },
            {
              "pitch": 25,
              "velocity": 52,
              "position": 3.25,
              "duration": 0.010416666666666666
            },
            {
              "pitch": 70,
              "velocity": 14,
              "position": 3.25,
              "duration": 0.010416666666666666
            },
            {
              "pitch": 54,
              "velocity": 47,
              "position": 3.25,
              "duration": 0.041666666666666664
            },
            {
              "pitch": 27,
              "velocity": 50,
              "position": 3.5,
              "duration": 0.010416666666666666
            },
            {
              "pitch": 82,
              "velocity": 34,
              "position": 3.5,
              "duration": 0.010416666666666666
            },
            {
              "pitch": 70,
              "velocity": 38,
              "position": 3.5,
              "duration": 0.020833333333333332
            },
            {
              "pitch": 54,
              "velocity": 53,
              "position": 3.5,
              "duration": 0.041666666666666664
            },
            {
              "pitch": 25,
              "velocity": 50,
              "position": 3.75,
              "duration": 0.010416666666666666
            },
            {
              "pitch": 70,
              "velocity": 15,
              "position": 3.75,
              "duration": 0.010416666666666666
            },
            {
              "pitch": 54,
              "velocity": 47,
              "position": 3.75,
              "duration": 0.041666666666666664
            }
          ]
        },
        "9": {
          "ctab": {
            "srcChannel": 9,
            "name": "MainDrum",
            "accType": "RHYTHM",
            "editable": false,
            "mutedNotes": [],
            "mutedChords": [],
            "autoStart": true,
            "sourceChordNote": 0,
            "sourceChordType": "Maj7",
            "ctb2Low": null,
            "ctb2Main": {
              "ntr": "ROOT_FIXED",
              "ntt": "BYPASS",
              "bassOn": false,
              "chordRootUpperLimit": 6,
              "noteLowLimit": 0,
              "noteHighLimit": 127,
              "rtr": "PITCH_SHIFT"
            },
            "ctb2High": null
          },
          "notes": [
            {
              "pitch": 36,
              "velocity": 98,
              "position": 0,
              "duration": 0.010416666666666666
            },
            {
              "pitch": 57,
              "velocity": 49,
              "position": 0,
              "duration": 0.010416666666666666
            },
            {
              "pitch": 42,
              "velocity": 102,
              "position": 0.010416666666666666,
              "duration": 0.010416666666666666
            },
            {
              "pitch": 42,
              "velocity": 24,
              "position": 0.5,
              "duration": 0.010416666666666666
            },
            {
              "pitch": 42,
              "velocity": 105,
              "position": 0.5104166666666666,
              "duration": 0.010416666666666666
            },
            {
              "pitch": 42,
              "velocity": 104,
              "position": 1,
              "duration": 0.010416666666666666
            },
            {
              "pitch": 40,
              "velocity": 81,
              "position": 1,
              "duration": 0.020833333333333332
            },
            {
              "pitch": 36,
              "velocity": 30,
              "position": 1.5,
              "duration": 0.010416666666666666
            },
            {
              "pitch": 42,
              "velocity": 75,
              "position": 1.5,
              "duration": 0.010416666666666666
            },
            {
              "pitch": 36,
              "velocity": 98,
              "position": 1.75,
              "duration": 0.010416666666666666
            },
            {
              "pitch": 40,
              "velocity": 81,
              "position": 2,
              "duration": 0.020833333333333332
            },
            {
              "pitch": 36,
              "velocity": 68,
              "position": 2.25,
              "duration": 0.010416666666666666
            },
            {
              "pitch": 42,
              "velocity": 62,
              "position": 2.5,
              "duration": 0.010416666666666666
            },
            {
              "pitch": 36,
              "velocity": 49,
              "position": 2.75,
              "duration": 0.010416666666666666
            },
            {
              "pitch": 40,
              "velocity": 76,
              "position": 3,
              "duration": 0.020833333333333332
            },
            {
              "pitch": 36,
              "velocity": 98,
              "position": 3.25,
              "duration": 0.010416666666666666
            },
            {
              "pitch": 40,
              "velocity": 32,
              "position": 3.2708333333333335,
              "duration": 0.020833333333333332
            },
            {
              "pitch": 40,
              "velocity": 75,
              "position": 3.5,
              "duration": 0.020833333333333332
            },
            {
              "pitch": 40,
              "velocity": 90,
              "position": 3.7708333333333335,
              "duration": 0.020833333333333332
            },
            {
              "pitch": 49,
              "velocity": 43,
              "position": 3.9895833333333335,
              "duration": 0.010416666666666666
            }
          ]
        },
        "10": {
          "ctab": {
            "srcChannel": 10,
            "name": "Bass",
            "accType": "BASS",
            "editable": false,
            "mutedNotes": [],
            "mutedChords": [],
            "autoStart": false,
            "sourceChordNote": 0,
            "sourceChordType": "Maj7",
            "ctb2Low": null,
            "ctb2Main": {
              "ntr": "ROOT_TRANSPOSITION",
              "ntt": "MELODY",
              "bassOn": true,
              "chordRootUpperLimit": 3,
              "noteLowLimit": 28,
              "noteHighLimit": 127,
              "rtr": "PITCH_SHIFT_TO_ROOT"
            },
            "ctb2High": null
          },
          "notes": [
            {
              "pitch": 24,
              "velocity": 80,
              "position": 0,
              "duration": 0.4895833333333333
            },
            {
              "pitch": 24,
              "velocity": 80,
              "position": 0.5,
              "duration": 0.4895833333333333
            },
            {
              "pitch": 24,
              "velocity": 80,
              "position": 1,
              "duration": 0.4270833333333333
            },
            {
              "pitch": 24,
              "velocity": 80,
              "position": 1.5208333333333333,
              "duration": 0.23958333333333334
            },
            {
              "pitch": 24,
              "velocity": 80,
              "position": 1.7708333333333333,
              "duration": 0.4895833333333333
            },
            {
              "pitch": 24,
              "velocity": 80,
              "position": 2.2708333333333335,
              "duration": 0.21875
            },
            {
              "pitch": 24,
              "velocity": 80,
              "position": 2.5,
              "duration": 0.9166666666666666
            },
            {
              "pitch": 24,
              "velocity": 80,
              "position": 3.5,
              "duration": 0.20833333333333334
            },
            {
              "pitch": 24,
              "velocity": 80,
              "position": 3.7708333333333335,
              "duration": 0.21875
            }
          ]
        },
        "11": {
          "ctab": {
            "srcChannel": 11,
            "name": "12stGtr",
            "accType": "CHORD1",
            "editable": false,
            "mutedNotes": [],
            "mutedChords": [],
            "autoStart": false,
            "sourceChordNote": 0,
            "sourceChordType": "Maj7",
            "ctb2Low": null,
            "ctb2Main": {
              "ntr": "ROOT_FIXED",
              "ntt": "CHORD",
              "bassOn": false,
              "chordRootUpperLimit": 7,
              "noteLowLimit": 50,
              "noteHighLimit": 127,
              "rtr": "PITCH_SHIFT"
            },
            "ctb2High": null
          },
          "notes": [
            {
              "pitch": 59,
              "velocity": 97,
              "position": 0.010416666666666666,
              "duration": 0.9791666666666666
            },
            {
              "pitch": 64,
              "velocity": 97,
              "position": 0.020833333333333332,
              "duration": 0.9791666666666666
            },
            {
              "pitch": 59,
              "velocity": 60,
              "position": 1.0104166666666667,
              "duration": 0.10416666666666667
            },
            {
              "pitch": 64,
              "velocity": 60,
              "position": 1.0208333333333333,
              "duration": 0.10416666666666667
            },
            {
              "pitch": 67,
              "velocity": 97,
              "position": 0.03125,
              "duration": 1.1875
            },
            {
              "pitch": 59,
              "velocity": 34,
              "position": 1.2708333333333333,
              "duration": 0.03125
            },
            {
              "pitch": 67,
              "velocity": 34,
              "position": 1.2708333333333333,
              "duration": 0.03125
            },
            {
              "pitch": 64,
              "velocity": 34,
              "position": 1.2708333333333333,
              "duration": 0.03125
            },
            {
              "pitch": 64,
              "velocity": 71,
              "position": 1.5,
              "duration": 0.23958333333333334
            },
            {
              "pitch": 67,
              "velocity": 71,
              "position": 1.5,
              "duration": 0.23958333333333334
            },
            {
              "pitch": 59,
              "velocity": 71,
              "position": 1.5,
              "duration": 0.7604166666666666
            },
            {
              "pitch": 64,
              "velocity": 97,
              "position": 1.75,
              "duration": 0.5104166666666666
            },
            {
              "pitch": 67,
              "velocity": 97,
              "position": 1.75,
              "duration": 0.7395833333333334
            },
            {
              "pitch": 64,
              "velocity": 67,
              "position": 2.2708333333333335,
              "duration": 0.21875
            },
            {
              "pitch": 59,
              "velocity": 67,
              "position": 2.2708333333333335,
              "duration": 0.21875
            },
            {
              "pitch": 59,
              "velocity": 89,
              "position": 2.5,
              "duration": 0.4895833333333333
            },
            {
              "pitch": 67,
              "velocity": 89,
              "position": 2.5,
              "duration": 0.4895833333333333
            },
            {
              "pitch": 64,
              "velocity": 89,
              "position": 2.5,
              "duration": 0.4895833333333333
            },
            {
              "pitch": 59,
              "velocity": 96,
              "position": 3.0104166666666665,
              "duration": 0.9791666666666666
            },
            {
              "pitch": 67,
              "velocity": 97,
              "position": 3.03125,
              "duration": 0.9583333333333334
            },
            {
              "pitch": 64,
              "velocity": 97,
              "position": 3.0208333333333335,
              "duration": 0.96875
            }
          ]
        },
        "12": {
          "ctab": {
            "srcChannel": 12,
            "name": "MuteGtr",
            "accType": "CHORD2",
            "editable": false,
            "mutedNotes": [],
            "mutedChords": [],
            "autoStart": false,
            "sourceChordNote": 0,
            "sourceChordType": "min7(11)",
            "ctb2Low": null,
            "ctb2Main": {
              "ntr": "ROOT_FIXED",
              "ntt": "CHORD",
              "bassOn": false,
              "chordRootUpperLimit": 7,
              "noteLowLimit": 50,
              "noteHighLimit": 127,
              "rtr": "PITCH_SHIFT"
            },
            "ctb2High": null
          },
          "notes": []
        },
        "13": {
          "ctab": {
            "srcChannel": 13,
            "name": "Strings",
            "accType": "PAD",
            "editable": false,
            "mutedNotes": [],
            "mutedChords": [],
            "autoStart": false,
            "sourceChordNote": 0,
            "sourceChordType": "Maj7",
            "ctb2Low": null,
            "ctb2Main": {
              "ntr": "ROOT_FIXED",
              "ntt": "CHORD",
              "bassOn": false,
              "chordRootUpperLimit": 7,
              "noteLowLimit": 0,
              "noteHighLimit": 127,
              "rtr": "PITCH_SHIFT"
            },
            "ctb2High": null
          },
          "notes": [
            {
              "pitch": 55,
              "velocity": 40,
              "position": 0,
              "duration": 3.9895833333333335
            },
            {
              "pitch": 64,
              "velocity": 40,
              "position": 0,
              "duration": 3.9895833333333335
            },
            {
              "pitch": 59,
              "velocity": 40,
              "position": 0,
              "duration": 3.9895833333333335
            }
          ]
        },
        "14": {
          "ctab": {
            "srcChannel": 14,
            "name": "add GTR",
            "accType": "PHRASE2",
            "editable": false,
            "mutedNotes": [],
            "mutedChords": [],
            "autoStart": false,
            "sourceChordNote": 0,
            "sourceChordType": "Maj7",
            "ctb2Low": null,
            "ctb2Main": {
              "ntr": "ROOT_FIXED",
              "ntt": "CHORD",
              "bassOn": false,
              "chordRootUpperLimit": 7,
              "noteLowLimit": 40,
              "noteHighLimit": 127,
              "rtr": "PITCH_SHIFT"
            },
            "ctb2High": null
          },
          "notes": [
            {
              "pitch": 59,
              "velocity": 108,
              "position": 0.010416666666666666,
              "duration": 0.9791666666666666
            },
            {
              "pitch": 55,
              "velocity": 108,
              "position": 0.03125,
              "duration": 0.9583333333333334
            },
            {
              "pitch": 64,
              "velocity": 108,
              "position": 0.020833333333333332,
              "duration": 0.96875
            },
            {
              "pitch": 55,
              "velocity": 108,
              "position": 1,
              "duration": 0.16666666666666666
            },
            {
              "pitch": 64,
              "velocity": 108,
              "position": 1,
              "duration": 0.16666666666666666
            },
            {
              "pitch": 59,
              "velocity": 108,
              "position": 1,
              "duration": 0.16666666666666666
            },
            {
              "pitch": 55,
              "velocity": 83,
              "position": 1.2708333333333333,
              "duration": 0.03125
            },
            {
              "pitch": 64,
              "velocity": 83,
              "position": 1.2708333333333333,
              "duration": 0.03125
            },
            {
              "pitch": 59,
              "velocity": 83,
              "position": 1.2708333333333333,
              "duration": 0.03125
            },
            {
              "pitch": 55,
              "velocity": 89,
              "position": 1.5,
              "duration": 0.23958333333333334
            },
            {
              "pitch": 64,
              "velocity": 89,
              "position": 1.5,
              "duration": 0.23958333333333334
            },
            {
              "pitch": 59,
              "velocity": 89,
              "position": 1.5,
              "duration": 0.23958333333333334
            },
            {
              "pitch": 55,
              "velocity": 108,
              "position": 1.75,
              "duration": 0.5104166666666666
            },
            {
              "pitch": 64,
              "velocity": 108,
              "position": 1.75,
              "duration": 0.5104166666666666
            },
            {
              "pitch": 59,
              "velocity": 108,
              "position": 1.75,
              "duration": 0.5104166666666666
            },
            {
              "pitch": 55,
              "velocity": 85,
              "position": 2.2708333333333335,
              "duration": 0.21875
            },
            {
              "pitch": 64,
              "velocity": 85,
              "position": 2.2708333333333335,
              "duration": 0.21875
            },
            {
              "pitch": 59,
              "velocity": 85,
              "position": 2.2708333333333335,
              "duration": 0.21875
            },
            {
              "pitch": 55,
              "velocity": 107,
              "position": 2.5,
              "duration": 0.4895833333333333
            },
            {
              "pitch": 64,
              "velocity": 107,
              "position": 2.5,
              "duration": 0.4895833333333333
            },
            {
              "pitch": 59,
              "velocity": 107,
              "position": 2.5,
              "duration": 0.4895833333333333
            },
            {
              "pitch": 55,
              "velocity": 108,
              "position": 3,
              "duration": 0.9895833333333334
            },
            {
              "pitch": 64,
              "velocity": 108,
              "position": 3,
              "duration": 0.9895833333333334
            },
            {
              "pitch": 59,
              "velocity": 108,
              "position": 3,
              "duration": 0.9895833333333334
            }
          ]
        },
        "15": {
          "ctab": {
            "srcChannel": 15,
            "name": "Egtr",
            "accType": "PHRASE1",
            "editable": false,
            "mutedNotes": [],
            "mutedChords": [],
            "autoStart": false,
            "sourceChordNote": 0,
            "sourceChordType": "min7(11)",
            "ctb2Low": null,
            "ctb2Main": {
              "ntr": "ROOT_FIXED",
              "ntt": "CHORD",
              "bassOn": false,
              "chordRootUpperLimit": 7,
              "noteLowLimit": 50,
              "noteHighLimit": 127,
              "rtr": "PITCH_SHIFT"
            },
            "ctb2High": null
          },
          "notes": []
        }
      }
    },
    "Intro_A": {
      "type": "Intro_A",
      "sizeInBeats": 4,
      "channels": {
        "0": {
          "ctab": {
            "srcChannel": 0,
            "name": "CC_Crash",
            "accType": "RHYTHM",
            "editable": false,
            "mutedNotes": [],
            "mutedChords": [
              "1+2+5",
              "sus4",
              "1+5",
              "1+8",
              "7aug",
              "Maj7aug",
              "7(#9)",
              "7(b13)",
              "7(b9)",
              "7(13)",
              "7#11",
              "7(9)",
              "7b5",
              "7sus4",
              "7th",
              "dim7",
              "dim",
              "minMaj7(9)",
              "minMaj7",
              "min7(11)",
              "min7(9)",
              "min(9)",
              "m7b5",
              "min7",
              "min6",
              "min",
              "aug",
              "Maj6(9)",
              "Maj7(9)",
              "Maj(9)",
              "Maj7#11",
              "Maj7",
              "Maj6",
              "Maj"
            ],
            "autoStart": true,
            "sourceChordNote": 0,
            "sourceChordType": "Maj",
            "ctb2Low": null,
            "ctb2Main": {
              "ntr": "ROOT_FIXED",
              "ntt": "BYPASS",
              "bassOn": false,
              "chordRootUpperLimit": 0,
              "noteLowLimit": 0,
              "noteHighLimit": 127,
              "rtr": "RETRIGGER"
            },
            "ctb2High": null
          },
          "notes": []
        },
        "1": {
          "ctab": {
            "srcChannel": 1,
            "name": "12st SFX",
            "accType": "CHORD1",
            "editable": false,
            "mutedNotes": [],
            "mutedChords": [],
            "autoStart": false,
            "sourceChordNote": 0,
            "sourceChordType": "Maj7",
            "ctb2Low": null,
            "ctb2Main": {
              "ntr": "ROOT_FIXED",
              "ntt": "BYPASS",
              "bassOn": false,
              "chordRootUpperLimit": 7,
              "noteLowLimit": 0,
              "noteHighLimit": 127,
              "rtr": "PITCH_SHIFT"
            },
            "ctb2High": null
          },
          "notes": []
        },
        "3": {
          "ctab": {
            "srcChannel": 3,
            "name": "12st rt",
            "accType": "CHORD1",
            "editable": false,
            "mutedNotes": [],
            "mutedChords": [
              "1+2+5",
              "sus4",
              "1+5",
              "1+8",
              "Maj7aug",
              "dim",
              "minMaj7(9)",
              "minMaj7",
              "min6",
              "min",
              "aug",
              "Maj7(9)",
              "Maj7#11",
              "Maj7",
              "Maj6",
              "Maj"
            ],
            "autoStart": false,
            "sourceChordNote": 0,
            "sourceChordType": "Maj7",
            "ctb2Low": null,
            "ctb2Main": {
              "ntr": "ROOT_TRANSPOSITION",
              "ntt": "MELODY",
              "bassOn": false,
              "chordRootUpperLimit": 6,
              "noteLowLimit": 0,
              "noteHighLimit": 127,
              "rtr": "PITCH_SHIFT"
            },
            "ctb2High": null
          },
          "notes": []
        },
        "5": {
          "ctab": {
            "srcChannel": 5,
            "name": "Strg rt",
            "accType": "PAD",
            "editable": false,
            "mutedNotes": [],
            "mutedChords": [
              "1+2+5",
              "sus4",
              "1+5",
              "1+8",
              "Maj7aug",
              "dim",
              "minMaj7(9)",
              "minMaj7",
              "min6",
              "min",
              "aug",
              "Maj7(9)",
              "Maj7#11",
              "Maj7",
              "Maj6",
              "Maj"
            ],
            "autoStart": false,
            "sourceChordNote": 0,
            "sourceChordType": "Maj7",
            "ctb2Low": null,
            "ctb2Main": {
              "ntr": "ROOT_TRANSPOSITION",
              "ntt": "MELODY",
              "bassOn": false,
              "chordRootUpperLimit": 6,
              "noteLowLimit": 0,
              "noteHighLimit": 127,
              "rtr": "PITCH_SHIFT"
            },
            "ctb2High": null
          },
          "notes": []
        },
        "8": {
          "ctab": {
            "srcChannel": 8,
            "name": "AddDrum",
            "accType": "SUBRHYTHM",
            "editable": false,
            "mutedNotes": [],
            "mutedChords": [],
            "autoStart": true,
            "sourceChordNote": 0,
            "sourceChordType": "Maj7",
            "ctb2Low": null,
            "ctb2Main": {
              "ntr": "ROOT_FIXED",
              "ntt": "BYPASS",
              "bassOn": false,
              "chordRootUpperLimit": 6,
              "noteLowLimit": 0,
              "noteHighLimit": 127,
              "rtr": "PITCH_SHIFT"
            },
            "ctb2High": null
          },
          "notes": []
        },
        "9": {
          "ctab": {
            "srcChannel": 9,
            "name": "MainDrum",
            "accType": "RHYTHM",
            "editable": false,
            "mutedNotes": [],
            "mutedChords": [],
            "autoStart": true,
            "sourceChordNote": 0,
            "sourceChordType": "Maj7",
            "ctb2Low": null,
            "ctb2Main": {
              "ntr": "ROOT_FIXED",
              "ntt": "BYPASS",
              "bassOn": false,
              "chordRootUpperLimit": 6,
              "noteLowLimit": 0,
              "noteHighLimit": 127,
              "rtr": "PITCH_SHIFT"
            },
            "ctb2High": null
          },
          "notes": [
            {
              "pitch": 42,
              "velocity": 93,
              "position": 0,
              "duration": 0.010416666666666666
            },
            {
              "pitch": 42,
              "velocity": 78,
              "position": 1,
              "duration": 0.010416666666666666
            },
            {
              "pitch": 40,
              "velocity": 83,
              "position": 2,
              "duration": 0.020833333333333332
            },
            {
              "pitch": 36,
              "velocity": 81,
              "position": 2.25,
              "duration": 0.010416666666666666
            },
            {
              "pitch": 36,
              "velocity": 81,
              "position": 2.75,
              "duration": 0.010416666666666666
            },
            {
              "pitch": 40,
              "velocity": 67,
              "position": 2.9791666666666665,
              "duration": 0.010416666666666666
            },
            {
              "pitch": 44,
              "velocity": 69,
              "position": 3,
              "duration": 0.010416666666666666
            },
            {
              "pitch": 40,
              "velocity": 83,
              "position": 3,
              "duration": 0.020833333333333332
            },
            {
              "pitch": 42,
              "velocity": 38,
              "position": 3.53125,
              "duration": 0.010416666666666666
            },
            {
              "pitch": 42,
              "velocity": 41,
              "position": 3.6666666666666665,
              "duration": 0.010416666666666666
            },
            {
              "pitch": 42,
              "velocity": 28,
              "position": 3.75,
              "duration": 0.010416666666666666
            },
            {
              "pitch": 42,
              "velocity": 52,
              "position": 3.8333333333333335,
              "duration": 0.010416666666666666
            },
            {
              "pitch": 42,
              "velocity": 43,
              "position": 3.9166666666666665,
              "duration": 0.010416666666666666
            },
            {
              "pitch": 49,
              "velocity": 43,
              "position": 3.9895833333333335,
              "duration": 0.008333333333333333
            }
          ]
        },
        "10": {
          "ctab": {
            "srcChannel": 10,
            "name": "Bass",
            "accType": "BASS",
            "editable": false,
            "mutedNotes": [],
            "mutedChords": [],
            "autoStart": false,
            "sourceChordNote": 0,
            "sourceChordType": "Maj7",
            "ctb2Low": null,
            "ctb2Main": {
              "ntr": "ROOT_TRANSPOSITION",
              "ntt": "MELODY",
              "bassOn": true,
              "chordRootUpperLimit": 3,
              "noteLowLimit": 28,
              "noteHighLimit": 127,
              "rtr": "PITCH_SHIFT_TO_ROOT"
            },
            "ctb2High": null
          },
          "notes": []
        },
        "11": {
          "ctab": {
            "srcChannel": 11,
            "name": "12stGtr",
            "accType": "CHORD1",
            "editable": false,
            "mutedNotes": [],
            "mutedChords": [],
            "autoStart": false,
            "sourceChordNote": 0,
            "sourceChordType": "Maj7",
            "ctb2Low": null,
            "ctb2Main": {
              "ntr": "ROOT_FIXED",
              "ntt": "CHORD",
              "bassOn": false,
              "chordRootUpperLimit": 7,
              "noteLowLimit": 50,
              "noteHighLimit": 127,
              "rtr": "PITCH_SHIFT"
            },
            "ctb2High": null
          },
          "notes": []
        },
        "12": {
          "ctab": {
            "srcChannel": 12,
            "name": "MuteGtr",
            "accType": "CHORD2",
            "editable": false,
            "mutedNotes": [],
            "mutedChords": [],
            "autoStart": false,
            "sourceChordNote": 0,
            "sourceChordType": "min7(11)",
            "ctb2Low": null,
            "ctb2Main": {
              "ntr": "ROOT_FIXED",
              "ntt": "CHORD",
              "bassOn": false,
              "chordRootUpperLimit": 7,
              "noteLowLimit": 50,
              "noteHighLimit": 127,
              "rtr": "PITCH_SHIFT"
            },
            "ctb2High": null
          },
          "notes": []
        },
        "13": {
          "ctab": {
            "srcChannel": 13,
            "name": "Strings",
            "accType": "PAD",
            "editable": false,
            "mutedNotes": [],
            "mutedChords": [],
            "autoStart": false,
            "sourceChordNote": 0,
            "sourceChordType": "Maj7",
            "ctb2Low": null,
            "ctb2Main": {
              "ntr": "ROOT_FIXED",
              "ntt": "CHORD",
              "bassOn": false,
              "chordRootUpperLimit": 7,
              "noteLowLimit": 0,
              "noteHighLimit": 127,
              "rtr": "PITCH_SHIFT"
            },
            "ctb2High": null
          },
          "notes": []
        },
        "14": {
          "ctab": {
            "srcChannel": 14,
            "name": "add GTR",
            "accType": "PHRASE2",
            "editable": false,
            "mutedNotes": [],
            "mutedChords": [],
            "autoStart": false,
            "sourceChordNote": 0,
            "sourceChordType": "Maj7",
            "ctb2Low": null,
            "ctb2Main": {
              "ntr": "ROOT_FIXED",
              "ntt": "CHORD",
              "bassOn": false,
              "chordRootUpperLimit": 7,
              "noteLowLimit": 40,
              "noteHighLimit": 127,
              "rtr": "PITCH_SHIFT"
            },
            "ctb2High": null
          },
          "notes": []
        },
        "15": {
          "ctab": {
            "srcChannel": 15,
            "name": "Egtr",
            "accType": "PHRASE1",
            "editable": false,
            "mutedNotes": [],
            "mutedChords": [],
            "autoStart": false,
            "sourceChordNote": 0,
            "sourceChordType": "min7(11)",
            "ctb2Low": null,
            "ctb2Main": {
              "ntr": "ROOT_FIXED",
              "ntt": "CHORD",
              "bassOn": false,
              "chordRootUpperLimit": 7,
              "noteLowLimit": 50,
              "noteHighLimit": 127,
              "rtr": "PITCH_SHIFT"
            },
            "ctb2High": null
          },
          "notes": []
        }
      }
    },
    "Ending_A": {
      "type": "Ending_A",
      "sizeInBeats": 4,
      "channels": {
        "0": {
          "ctab": {
            "srcChannel": 0,
            "name": "CC_Crash",
            "accType": "RHYTHM",
            "editable": false,
            "mutedNotes": [],
            "mutedChords": [
              "1+2+5",
              "sus4",
              "1+5",
              "1+8",
              "7aug",
              "Maj7aug",
              "7(#9)",
              "7(b13)",
              "7(b9)",
              "7(13)",
              "7#11",
              "7(9)",
              "7b5",
              "7sus4",
              "7th",
              "dim7",
              "dim",
              "minMaj7(9)",
              "minMaj7",
              "min7(11)",
              "min7(9)",
              "min(9)",
              "m7b5",
              "min7",
              "min6",
              "min",
              "aug",
              "Maj6(9)",
              "Maj7(9)",
              "Maj(9)",
              "Maj7#11",
              "Maj7",
              "Maj6",
              "Maj"
            ],
            "autoStart": true,
            "sourceChordNote": 0,
            "sourceChordType": "Maj",
            "ctb2Low": null,
            "ctb2Main": {
              "ntr": "ROOT_FIXED",
              "ntt": "BYPASS",
              "bassOn": false,
              "chordRootUpperLimit": 0,
              "noteLowLimit": 0,
              "noteHighLimit": 127,
              "rtr": "RETRIGGER"
            },
            "ctb2High": null
          },
          "notes": []
        },
        "1": {
          "ctab": {
            "srcChannel": 1,
            "name": "12st SFX",
            "accType": "CHORD1",
            "editable": false,
            "mutedNotes": [],
            "mutedChords": [],
            "autoStart": false,
            "sourceChordNote": 0,
            "sourceChordType": "Maj7",
            "ctb2Low": null,
            "ctb2Main": {
              "ntr": "ROOT_FIXED",
              "ntt": "BYPASS",
              "bassOn": false,
              "chordRootUpperLimit": 7,
              "noteLowLimit": 0,
              "noteHighLimit": 127,
              "rtr": "PITCH_SHIFT"
            },
            "ctb2High": null
          },
          "notes": [
            {
              "pitch": 40,
              "velocity": 70,
              "position": 0,
              "duration": 0.041666666666666664
            },
            {
              "pitch": 47,
              "velocity": 70,
              "position": 0,
              "duration": 0.041666666666666664
            },
            {
              "pitch": 43,
              "velocity": 70,
              "position": 0,
              "duration": 0.041666666666666664
            }
          ]
        },
        "3": {
          "ctab": {
            "srcChannel": 3,
            "name": "12st rt",
            "accType": "CHORD1",
            "editable": false,
            "mutedNotes": [],
            "mutedChords": [
              "1+2+5",
              "sus4",
              "1+5",
              "1+8",
              "Maj7aug",
              "dim",
              "minMaj7(9)",
              "minMaj7",
              "min6",
              "min",
              "aug",
              "Maj7(9)",
              "Maj7#11",
              "Maj7",
              "Maj6",
              "Maj"
            ],
            "autoStart": false,
            "sourceChordNote": 0,
            "sourceChordType": "Maj7",
            "ctb2Low": null,
            "ctb2Main": {
              "ntr": "ROOT_TRANSPOSITION",
              "ntt": "MELODY",
              "bassOn": false,
              "chordRootUpperLimit": 6,
              "noteLowLimit": 0,
              "noteHighLimit": 127,
              "rtr": "PITCH_SHIFT"
            },
            "ctb2High": null
          },
          "notes": [
            {
              "pitch": 60,
              "velocity": 82,
              "position": 0.020833333333333332,
              "duration": 3.96875
            }
          ]
        },
        "5": {
          "ctab": {
            "srcChannel": 5,
            "name": "Strg rt",
            "accType": "PAD",
            "editable": false,
            "mutedNotes": [],
            "mutedChords": [
              "1+2+5",
              "sus4",
              "1+5",
              "1+8",
              "Maj7aug",
              "dim",
              "minMaj7(9)",
              "minMaj7",
              "min6",
              "min",
              "aug",
              "Maj7(9)",
              "Maj7#11",
              "Maj7",
              "Maj6",
              "Maj"
            ],
            "autoStart": false,
            "sourceChordNote": 0,
            "sourceChordType": "Maj7",
            "ctb2Low": null,
            "ctb2Main": {
              "ntr": "ROOT_TRANSPOSITION",
              "ntt": "MELODY",
              "bassOn": false,
              "chordRootUpperLimit": 6,
              "noteLowLimit": 0,
              "noteHighLimit": 127,
              "rtr": "PITCH_SHIFT"
            },
            "ctb2High": null
          },
          "notes": [
            {
              "pitch": 60,
              "velocity": 19,
              "position": 0,
              "duration": 3.9895833333333335
            }
          ]
        },
        "8": {
          "ctab": {
            "srcChannel": 8,
            "name": "AddDrum",
            "accType": "SUBRHYTHM",
            "editable": false,
            "mutedNotes": [],
            "mutedChords": [],
            "autoStart": true,
            "sourceChordNote": 0,
            "sourceChordType": "Maj7",
            "ctb2Low": null,
            "ctb2Main": {
              "ntr": "ROOT_FIXED",
              "ntt": "BYPASS",
              "bassOn": false,
              "chordRootUpperLimit": 6,
              "noteLowLimit": 0,
              "noteHighLimit": 127,
              "rtr": "PITCH_SHIFT"
            },
            "ctb2High": null
          },
          "notes": [
            {
              "pitch": 70,
              "velocity": 72,
              "position": 0,
              "duration": 0.020833333333333332
            }
          ]
        },
        "9": {
          "ctab": {
            "srcChannel": 9,
            "name": "MainDrum",
            "accType": "RHYTHM",
            "editable": false,
            "mutedNotes": [],
            "mutedChords": [],
            "autoStart": true,
            "sourceChordNote": 0,
            "sourceChordType": "Maj7",
            "ctb2Low": null,
            "ctb2Main": {
              "ntr": "ROOT_FIXED",
              "ntt": "BYPASS",
              "bassOn": false,
              "chordRootUpperLimit": 6,
              "noteLowLimit": 0,
              "noteHighLimit": 127,
              "rtr": "PITCH_SHIFT"
            },
            "ctb2High": null
          },
          "notes": [
            {
              "pitch": 36,
              "velocity": 98,
              "position": 0,
              "duration": 0.010416666666666666
            },
            {
              "pitch": 42,
              "velocity": 93,
              "position": 0,
              "duration": 0.010416666666666666
            }
          ]
        },
        "10": {
          "ctab": {
            "srcChannel": 10,
            "name": "Bass",
            "accType": "BASS",
            "editable": false,
            "mutedNotes": [],
            "mutedChords": [],
            "autoStart": false,
            "sourceChordNote": 0,
            "sourceChordType": "Maj7",
            "ctb2Low": null,
            "ctb2Main": {
              "ntr": "ROOT_TRANSPOSITION",
              "ntt": "MELODY",
              "bassOn": true,
              "chordRootUpperLimit": 3,
              "noteLowLimit": 28,
              "noteHighLimit": 127,
              "rtr": "PITCH_SHIFT_TO_ROOT"
            },
            "ctb2High": null
          },
          "notes": [
            {
              "pitch": 24,
              "velocity": 80,
              "position": 0,
              "duration": 3.9895833333333335
            }
          ]
        },
        "11": {
          "ctab": {
            "srcChannel": 11,
            "name": "12stGtr",
            "accType": "CHORD1",
            "editable": false,
            "mutedNotes": [],
            "mutedChords": [],
            "autoStart": false,
            "sourceChordNote": 0,
            "sourceChordType": "Maj7",
            "ctb2Low": null,
            "ctb2Main": {
              "ntr": "ROOT_FIXED",
              "ntt": "CHORD",
              "bassOn": false,
              "chordRootUpperLimit": 7,
              "noteLowLimit": 50,
              "noteHighLimit": 127,
              "rtr": "PITCH_SHIFT"
            },
            "ctb2High": null
          },
          "notes": [
            {
              "pitch": 55,
              "velocity": 97,
              "position": 0.010416666666666666,
              "duration": 3.96875
            },
            {
              "pitch": 64,
              "velocity": 97,
              "position": 0.03125,
              "duration": 3.9479166666666665
            },
            {
              "pitch": 67,
              "velocity": 97,
              "position": 0.041666666666666664,
              "duration": 3.9479166666666665
            },
            {
              "pitch": 59,
              "velocity": 97,
              "position": 0.020833333333333332,
              "duration": 3.96875
            }
          ]
        },
        "12": {
          "ctab": {
            "srcChannel": 12,
            "name": "MuteGtr",
            "accType": "CHORD2",
            "editable": false,
            "mutedNotes": [],
            "mutedChords": [],
            "autoStart": false,
            "sourceChordNote": 0,
            "sourceChordType": "min7(11)",
            "ctb2Low": null,
            "ctb2Main": {
              "ntr": "ROOT_FIXED",
              "ntt": "CHORD",
              "bassOn": false,
              "chordRootUpperLimit": 7,
              "noteLowLimit": 50,
              "noteHighLimit": 127,
              "rtr": "PITCH_SHIFT"
            },
            "ctb2High": null
          },
          "notes": []
        },
        "13": {
          "ctab": {
            "srcChannel": 13,
            "name": "Strings",
            "accType": "PAD",
            "editable": false,
            "mutedNotes": [],
            "mutedChords": [],
            "autoStart": false,
            "sourceChordNote": 0,
            "sourceChordType": "Maj7",
            "ctb2Low": null,
            "ctb2Main": {
              "ntr": "ROOT_FIXED",
              "ntt": "CHORD",
              "bassOn": false,
              "chordRootUpperLimit": 7,
              "noteLowLimit": 0,
              "noteHighLimit": 127,
              "rtr": "PITCH_SHIFT"
            },
            "ctb2High": null
          },
          "notes": [
            {
              "pitch": 59,
              "velocity": 19,
              "position": 0,
              "duration": 3.9895833333333335
            },
            {
              "pitch": 67,
              "velocity": 19,
              "position": 0,
              "duration": 3.9895833333333335
            },
            {
              "pitch": 64,
              "velocity": 19,
              "position": 0,
              "duration": 3.9895833333333335
            }
          ]
        },
        "14": {
          "ctab": {
            "srcChannel": 14,
            "name": "add GTR",
            "accType": "PHRASE2",
            "editable": false,
            "mutedNotes": [],
            "mutedChords": [],
            "autoStart": false,
            "sourceChordNote": 0,
            "sourceChordType": "Maj7",
            "ctb2Low": null,
            "ctb2Main": {
              "ntr": "ROOT_FIXED",
              "ntt": "CHORD",
              "bassOn": false,
              "chordRootUpperLimit": 7,
              "noteLowLimit": 40,
              "noteHighLimit": 127,
              "rtr": "PITCH_SHIFT"
            },
            "ctb2High": null
          },
          "notes": [
            {
              "pitch": 64,
              "velocity": 118,
              "position": 0.020833333333333332,
              "duration": 3.9583333333333335
            },
            {
              "pitch": 55,
              "velocity": 118,
              "position": 0.03125,
              "duration": 3.9583333333333335
            },
            {
              "pitch": 59,
              "velocity": 118,
              "position": 0.010416666666666666,
              "duration": 3.9791666666666665
            }
          ]
        },
        "15": {
          "ctab": {
            "srcChannel": 15,
            "name": "Egtr",
            "accType": "PHRASE1",
            "editable": false,
            "mutedNotes": [],
            "mutedChords": [],
            "autoStart": false,
            "sourceChordNote": 0,
            "sourceChordType": "min7(11)",
            "ctb2Low": null,
            "ctb2Main": {
              "ntr": "ROOT_FIXED",
              "ntt": "CHORD",
              "bassOn": false,
              "chordRootUpperLimit": 7,
              "noteLowLimit": 50,
              "noteHighLimit": 127,
              "rtr": "PITCH_SHIFT"
            },
            "ctb2High": null
          },
          "notes": []
        }
      }
    },
    "Fill_In_BA": {
      "type": "Fill_In_BA",
      "sizeInBeats": 4,
      "channels": {
        "0": {
          "ctab": {
            "srcChannel": 0,
            "name": "CC_Crash",
            "accType": "RHYTHM",
            "editable": false,
            "mutedNotes": [],
            "mutedChords": [
              "1+2+5",
              "sus4",
              "1+5",
              "1+8",
              "7aug",
              "Maj7aug",
              "7(#9)",
              "7(b13)",
              "7(b9)",
              "7(13)",
              "7#11",
              "7(9)",
              "7b5",
              "7sus4",
              "7th",
              "dim7",
              "dim",
              "minMaj7(9)",
              "minMaj7",
              "min7(11)",
              "min7(9)",
              "min(9)",
              "m7b5",
              "min7",
              "min6",
              "min",
              "aug",
              "Maj6(9)",
              "Maj7(9)",
              "Maj(9)",
              "Maj7#11",
              "Maj7",
              "Maj6",
              "Maj"
            ],
            "autoStart": true,
            "sourceChordNote": 0,
            "sourceChordType": "Maj",
            "ctb2Low": null,
            "ctb2Main": {
              "ntr": "ROOT_FIXED",
              "ntt": "BYPASS",
              "bassOn": false,
              "chordRootUpperLimit": 0,
              "noteLowLimit": 0,
              "noteHighLimit": 127,
              "rtr": "RETRIGGER"
            },
            "ctb2High": null
          },
          "notes": []
        },
        "1": {
          "ctab": {
            "srcChannel": 1,
            "name": "12st SFX",
            "accType": "CHORD1",
            "editable": false,
            "mutedNotes": [],
            "mutedChords": [],
            "autoStart": false,
            "sourceChordNote": 0,
            "sourceChordType": "Maj7",
            "ctb2Low": null,
            "ctb2Main": {
              "ntr": "ROOT_FIXED",
              "ntt": "BYPASS",
              "bassOn": false,
              "chordRootUpperLimit": 7,
              "noteLowLimit": 0,
              "noteHighLimit": 127,
              "rtr": "PITCH_SHIFT"
            },
            "ctb2High": null
          },
          "notes": [
            {
              "pitch": 40,
              "velocity": 70,
              "position": 0,
              "duration": 0.041666666666666664
            },
            {
              "pitch": 47,
              "velocity": 70,
              "position": 0,
              "duration": 0.041666666666666664
            },
            {
              "pitch": 43,
              "velocity": 70,
              "position": 0,
              "duration": 0.041666666666666664
            }
          ]
        },
        "3": {
          "ctab": {
            "srcChannel": 3,
            "name": "12st rt",
            "accType": "CHORD1",
            "editable": false,
            "mutedNotes": [],
            "mutedChords": [
              "1+2+5",
              "sus4",
              "1+5",
              "1+8",
              "Maj7aug",
              "dim",
              "minMaj7(9)",
              "minMaj7",
              "min6",
              "min",
              "aug",
              "Maj7(9)",
              "Maj7#11",
              "Maj7",
              "Maj6",
              "Maj"
            ],
            "autoStart": false,
            "sourceChordNote": 0,
            "sourceChordType": "Maj7",
            "ctb2Low": null,
            "ctb2Main": {
              "ntr": "ROOT_TRANSPOSITION",
              "ntt": "MELODY",
              "bassOn": false,
              "chordRootUpperLimit": 6,
              "noteLowLimit": 0,
              "noteHighLimit": 127,
              "rtr": "PITCH_SHIFT"
            },
            "ctb2High": null
          },
          "notes": [
            {
              "pitch": 60,
              "velocity": 82,
              "position": 0.010416666666666666,
              "duration": 0.5208333333333334
            }
          ]
        },
        "5": {
          "ctab": {
            "srcChannel": 5,
            "name": "Strg rt",
            "accType": "PAD",
            "editable": false,
            "mutedNotes": [],
            "mutedChords": [
              "1+2+5",
              "sus4",
              "1+5",
              "1+8",
              "Maj7aug",
              "dim",
              "minMaj7(9)",
              "minMaj7",
              "min6",
              "min",
              "aug",
              "Maj7(9)",
              "Maj7#11",
              "Maj7",
              "Maj6",
              "Maj"
            ],
            "autoStart": false,
            "sourceChordNote": 0,
            "sourceChordType": "Maj7",
            "ctb2Low": null,
            "ctb2Main": {
              "ntr": "ROOT_TRANSPOSITION",
              "ntt": "MELODY",
              "bassOn": false,
              "chordRootUpperLimit": 6,
              "noteLowLimit": 0,
              "noteHighLimit": 127,
              "rtr": "PITCH_SHIFT"
            },
            "ctb2High": null
          },
          "notes": [
            {
              "pitch": 60,
              "velocity": 19,
              "position": 0,
              "duration": 0.5
            }
          ]
        },
        "8": {
          "ctab": {
            "srcChannel": 8,
            "name": "AddDrum",
            "accType": "SUBRHYTHM",
            "editable": false,
            "mutedNotes": [],
            "mutedChords": [],
            "autoStart": true,
            "sourceChordNote": 0,
            "sourceChordType": "Maj7",
            "ctb2Low": null,
            "ctb2Main": {
              "ntr": "ROOT_FIXED",
              "ntt": "BYPASS",
              "bassOn": false,
              "chordRootUpperLimit": 6,
              "noteLowLimit": 0,
              "noteHighLimit": 127,
              "rtr": "PITCH_SHIFT"
            },
            "ctb2High": null
          },
          "notes": [
            {
              "pitch": 70,
              "velocity": 72,
              "position": 0,
              "duration": 0.020833333333333332
            },
            {
              "pitch": 54,
              "velocity": 95,
              "position": 0,
              "duration": 0.041666666666666664
            }
          ]
        },
        "9": {
          "ctab": {
            "srcChannel": 9,
            "name": "MainDrum",
            "accType": "RHYTHM",
            "editable": false,
            "mutedNotes": [],
            "mutedChords": [],
            "autoStart": true,
            "sourceChordNote": 0,
            "sourceChordType": "Maj7",
            "ctb2Low": null,
            "ctb2Main": {
              "ntr": "ROOT_FIXED",
              "ntt": "BYPASS",
              "bassOn": false,
              "chordRootUpperLimit": 6,
              "noteLowLimit": 0,
              "noteHighLimit": 127,
              "rtr": "PITCH_SHIFT"
            },
            "ctb2High": null
          },
          "notes": [
            {
              "pitch": 36,
              "velocity": 98,
              "position": 0,
              "duration": 0.010416666666666666
            },
            {
              "pitch": 57,
              "velocity": 49,
              "position": 0,
              "duration": 0.010416666666666666
            },
            {
              "pitch": 44,
              "velocity": 69,
              "position": 1,
              "duration": 0.010416666666666666
            },
            {
              "pitch": 44,
              "velocity": 69,
              "position": 2,
              "duration": 0.010416666666666666
            },
            {
              "pitch": 40,
              "velocity": 78,
              "position": 2.25,
              "duration": 0.020833333333333332
            },
            {
              "pitch": 40,
              "velocity": 16,
              "position": 2.75,
              "duration": 0.020833333333333332
            },
            {
              "pitch": 40,
              "velocity": 31,
              "position": 2.875,
              "duration": 0.020833333333333332
            },
            {
              "pitch": 55,
              "velocity": 48,
              "position": 3,
              "duration": 0.010416666666666666
            },
            {
              "pitch": 40,
              "velocity": 86,
              "position": 3,
              "duration": 0.020833333333333332
            },
            {
              "pitch": 49,
              "velocity": 43,
              "position": 3.9895833333333335,
              "duration": 0.010416666666666666
            }
          ]
        },
        "10": {
          "ctab": {
            "srcChannel": 10,
            "name": "Bass",
            "accType": "BASS",
            "editable": false,
            "mutedNotes": [],
            "mutedChords": [],
            "autoStart": false,
            "sourceChordNote": 0,
            "sourceChordType": "Maj7",
            "ctb2Low": null,
            "ctb2Main": {
              "ntr": "ROOT_TRANSPOSITION",
              "ntt": "MELODY",
              "bassOn": true,
              "chordRootUpperLimit": 3,
              "noteLowLimit": 28,
              "noteHighLimit": 127,
              "rtr": "PITCH_SHIFT_TO_ROOT"
            },
            "ctb2High": null
          },
          "notes": [
            {
              "pitch": 24,
              "velocity": 80,
              "position": 0,
              "duration": 0.5729166666666666
            },
            {
              "pitch": 24,
              "velocity": 88,
              "position": 2.5729166666666665,
              "duration": 1.4166666666666667
            }
          ]
        },
        "11": {
          "ctab": {
            "srcChannel": 11,
            "name": "12stGtr",
            "accType": "CHORD1",
            "editable": false,
            "mutedNotes": [],
            "mutedChords": [],
            "autoStart": false,
            "sourceChordNote": 0,
            "sourceChordType": "Maj7",
            "ctb2Low": null,
            "ctb2Main": {
              "ntr": "ROOT_FIXED",
              "ntt": "CHORD",
              "bassOn": false,
              "chordRootUpperLimit": 7,
              "noteLowLimit": 50,
              "noteHighLimit": 127,
              "rtr": "PITCH_SHIFT"
            },
            "ctb2High": null
          },
          "notes": [
            {
              "pitch": 55,
              "velocity": 97,
              "position": 0,
              "duration": 0.5208333333333334
            },
            {
              "pitch": 59,
              "velocity": 97,
              "position": 0.010416666666666666,
              "duration": 0.5208333333333334
            },
            {
              "pitch": 64,
              "velocity": 97,
              "position": 0.020833333333333332,
              "duration": 0.5208333333333334
            },
            {
              "pitch": 67,
              "velocity": 97,
              "position": 0.03125,
              "duration": 0.5208333333333334
            }
          ]
        },
        "12": {
          "ctab": {
            "srcChannel": 12,
            "name": "MuteGtr",
            "accType": "CHORD2",
            "editable": false,
            "mutedNotes": [],
            "mutedChords": [],
            "autoStart": false,
            "sourceChordNote": 0,
            "sourceChordType": "min7(11)",
            "ctb2Low": null,
            "ctb2Main": {
              "ntr": "ROOT_FIXED",
              "ntt": "CHORD",
              "bassOn": false,
              "chordRootUpperLimit": 7,
              "noteLowLimit": 50,
              "noteHighLimit": 127,
              "rtr": "PITCH_SHIFT"
            },
            "ctb2High": null
          },
          "notes": []
        },
        "13": {
          "ctab": {
            "srcChannel": 13,
            "name": "Strings",
            "accType": "PAD",
            "editable": false,
            "mutedNotes": [],
            "mutedChords": [],
            "autoStart": false,
            "sourceChordNote": 0,
            "sourceChordType": "Maj7",
            "ctb2Low": null,
            "ctb2Main": {
              "ntr": "ROOT_FIXED",
              "ntt": "CHORD",
              "bassOn": false,
              "chordRootUpperLimit": 7,
              "noteLowLimit": 0,
              "noteHighLimit": 127,
              "rtr": "PITCH_SHIFT"
            },
            "ctb2High": null
          },
          "notes": [
            {
              "pitch": 55,
              "velocity": 19,
              "position": 0,
              "duration": 0.5
            },
            {
              "pitch": 64,
              "velocity": 19,
              "position": 0,
              "duration": 0.5
            },
            {
              "pitch": 59,
              "velocity": 19,
              "position": 0,
              "duration": 0.5
            }
          ]
        },
        "14": {
          "ctab": {
            "srcChannel": 14,
            "name": "add GTR",
            "accType": "PHRASE2",
            "editable": false,
            "mutedNotes": [],
            "mutedChords": [],
            "autoStart": false,
            "sourceChordNote": 0,
            "sourceChordType": "Maj7",
            "ctb2Low": null,
            "ctb2Main": {
              "ntr": "ROOT_FIXED",
              "ntt": "CHORD",
              "bassOn": false,
              "chordRootUpperLimit": 7,
              "noteLowLimit": 40,
              "noteHighLimit": 127,
              "rtr": "PITCH_SHIFT"
            },
            "ctb2High": null
          },
          "notes": [
            {
              "pitch": 55,
              "velocity": 108,
              "position": 0,
              "duration": 0.5208333333333334
            },
            {
              "pitch": 64,
              "velocity": 108,
              "position": 0,
              "duration": 0.5208333333333334
            },
            {
              "pitch": 59,
              "velocity": 108,
              "position": 0,
              "duration": 0.5208333333333334
            }
          ]
        },
        "15": {
          "ctab": {
            "srcChannel": 15,
            "name": "Egtr",
            "accType": "PHRASE1",
            "editable": false,
            "mutedNotes": [],
            "mutedChords": [],
            "autoStart": false,
            "sourceChordNote": 0,
            "sourceChordType": "min7(11)",
            "ctb2Low": null,
            "ctb2Main": {
              "ntr": "ROOT_FIXED",
              "ntt": "CHORD",
              "bassOn": false,
              "chordRootUpperLimit": 7,
              "noteLowLimit": 50,
              "noteHighLimit": 127,
              "rtr": "PITCH_SHIFT"
            },
            "ctb2High": null
          },
          "notes": []
        }
      }
    },
    "Intro_B": {
      "type": "Intro_B",
      "sizeInBeats": 8,
      "channels": {
        "1": {
          "ctab": {
            "srcChannel": 1,
            "name": "12st SFX",
            "accType": "CHORD1",
            "editable": false,
            "mutedNotes": [],
            "mutedChords": [],
            "autoStart": false,
            "sourceChordNote": 0,
            "sourceChordType": "Maj7",
            "ctb2Low": null,
            "ctb2Main": {
              "ntr": "ROOT_FIXED",
              "ntt": "BYPASS",
              "bassOn": false,
              "chordRootUpperLimit": 7,
              "noteLowLimit": 0,
              "noteHighLimit": 127,
              "rtr": "PITCH_SHIFT"
            },
            "ctb2High": null
          },
          "notes": [
            {
              "pitch": 34,
              "velocity": 73,
              "position": 0,
              "duration": 0.041666666666666664
            },
            {
              "pitch": 36,
              "velocity": 73,
              "position": 0,
              "duration": 0.041666666666666664
            },
            {
              "pitch": 34,
              "velocity": 73,
              "position": 0.75,
              "duration": 0.041666666666666664
            },
            {
              "pitch": 38,
              "velocity": 73,
              "position": 0.75,
              "duration": 0.041666666666666664
            },
            {
              "pitch": 36,
              "velocity": 73,
              "position": 0.75,
              "duration": 0.041666666666666664
            },
            {
              "pitch": 34,
              "velocity": 70,
              "position": 1.25,
              "duration": 0.041666666666666664
            },
            {
              "pitch": 36,
              "velocity": 70,
              "position": 1.25,
              "duration": 0.041666666666666664
            },
            {
              "pitch": 34,
              "velocity": 70,
              "position": 1.5,
              "duration": 0.041666666666666664
            },
            {
              "pitch": 39,
              "velocity": 70,
              "position": 1.5,
              "duration": 0.041666666666666664
            },
            {
              "pitch": 36,
              "velocity": 70,
              "position": 1.5,
              "duration": 0.041666666666666664
            },
            {
              "pitch": 34,
              "velocity": 73,
              "position": 4,
              "duration": 0.041666666666666664
            },
            {
              "pitch": 39,
              "velocity": 73,
              "position": 4,
              "duration": 0.041666666666666664
            },
            {
              "pitch": 36,
              "velocity": 73,
              "position": 4,
              "duration": 0.041666666666666664
            }
          ]
        },
        "2": {
          "ctab": {
            "srcChannel": 2,
            "name": "Bass min",
            "accType": "BASS",
            "editable": false,
            "mutedNotes": [],
            "mutedChords": [
              "1+2+5",
              "sus4",
              "1+5",
              "1+8",
              "7aug",
              "Maj7aug",
              "7(#9)",
              "7(b13)",
              "7(b9)",
              "7(13)",
              "7#11",
              "7(9)",
              "7b5",
              "7sus4",
              "7th",
              "aug",
              "Maj6(9)",
              "Maj7(9)",
              "Maj(9)",
              "Maj7#11",
              "Maj7",
              "Maj6",
              "Maj"
            ],
            "autoStart": false,
            "sourceChordNote": 0,
            "sourceChordType": "min",
            "ctb2Low": null,
            "ctb2Main": {
              "ntr": "ROOT_TRANSPOSITION",
              "ntt": "BYPASS",
              "bassOn": false,
              "chordRootUpperLimit": 3,
              "noteLowLimit": 28,
              "noteHighLimit": 127,
              "rtr": "PITCH_SHIFT"
            },
            "ctb2High": null
          },
          "notes": [
            {
              "pitch": 24,
              "velocity": 88,
              "position": 6.572916666666667,
              "duration": 1.3854166666666667
            }
          ]
        },
        "3": {
          "ctab": {
            "srcChannel": 3,
            "name": "12st min",
            "accType": "CHORD1",
            "editable": false,
            "mutedNotes": [],
            "mutedChords": [
              "1+2+5",
              "sus4",
              "1+5",
              "1+8",
              "7aug",
              "Maj7aug",
              "7(#9)",
              "7(b13)",
              "7(b9)",
              "7(13)",
              "7#11",
              "7(9)",
              "7b5",
              "7sus4",
              "7th",
              "aug",
              "Maj6(9)",
              "Maj7(9)",
              "Maj(9)",
              "Maj7#11",
              "Maj7",
              "Maj6",
              "Maj"
            ],
            "autoStart": false,
            "sourceChordNote": 0,
            "sourceChordType": "min",
            "ctb2Low": null,
            "ctb2Main": {
              "ntr": "ROOT_TRANSPOSITION",
              "ntt": "BYPASS",
              "bassOn": false,
              "chordRootUpperLimit": 8,
              "noteLowLimit": 40,
              "noteHighLimit": 127,
              "rtr": "PITCH_SHIFT"
            },
            "ctb2High": null
          },
          "notes": [
            {
              "pitch": 55,
              "velocity": 75,
              "position": 0,
              "duration": 0.7395833333333334
            },
            {
              "pitch": 70,
              "velocity": 115,
              "position": 0,
              "duration": 0.7395833333333334
            },
            {
              "pitch": 63,
              "velocity": 113,
              "position": 0,
              "duration": 0.7395833333333334
            },
            {
              "pitch": 60,
              "velocity": 88,
              "position": 0,
              "duration": 0.7395833333333334
            },
            {
              "pitch": 63,
              "velocity": 69,
              "position": 0.75,
              "duration": 0.16666666666666666
            },
            {
              "pitch": 55,
              "velocity": 72,
              "position": 0.75,
              "duration": 0.17916666666666667
            },
            {
              "pitch": 60,
              "velocity": 73,
              "position": 0.75,
              "duration": 0.2
            },
            {
              "pitch": 70,
              "velocity": 75,
              "position": 0.75,
              "duration": 0.3125
            },
            {
              "pitch": 48,
              "velocity": 85,
              "position": 0,
              "duration": 1.4895833333333333
            },
            {
              "pitch": 46,
              "velocity": 88,
              "position": 1.5,
              "duration": 2.2333333333333334
            },
            {
              "pitch": 67,
              "velocity": 114,
              "position": 1.5,
              "duration": 2.3583333333333334
            },
            {
              "pitch": 53,
              "velocity": 72,
              "position": 1.5,
              "duration": 2.3583333333333334
            },
            {
              "pitch": 62,
              "velocity": 95,
              "position": 1.5,
              "duration": 2.3583333333333334
            },
            {
              "pitch": 60,
              "velocity": 101,
              "position": 1.5,
              "duration": 2.3583333333333334
            },
            {
              "pitch": 51,
              "velocity": 78,
              "position": 3.8333333333333335,
              "duration": 3.16875
            },
            {
              "pitch": 70,
              "velocity": 112,
              "position": 4,
              "duration": 3.0104166666666665
            },
            {
              "pitch": 63,
              "velocity": 112,
              "position": 3.9291666666666667,
              "duration": 3.091666666666667
            },
            {
              "pitch": 60,
              "velocity": 112,
              "position": 3.8875,
              "duration": 3.1958333333333333
            },
            {
              "pitch": 44,
              "velocity": 112,
              "position": 3.7604166666666665,
              "duration": 3.3979166666666667
            }
          ]
        },
        "5": {
          "ctab": {
            "srcChannel": 5,
            "name": "Strg min",
            "accType": "PAD",
            "editable": false,
            "mutedNotes": [],
            "mutedChords": [
              "1+2+5",
              "sus4",
              "1+5",
              "1+8",
              "7aug",
              "Maj7aug",
              "7(#9)",
              "7(b13)",
              "7(b9)",
              "7(13)",
              "7#11",
              "7(9)",
              "7b5",
              "7sus4",
              "7th",
              "aug",
              "Maj6(9)",
              "Maj7(9)",
              "Maj(9)",
              "Maj7#11",
              "Maj7",
              "Maj6",
              "Maj"
            ],
            "autoStart": false,
            "sourceChordNote": 0,
            "sourceChordType": "min",
            "ctb2Low": null,
            "ctb2Main": {
              "ntr": "ROOT_TRANSPOSITION",
              "ntt": "BYPASS",
              "bassOn": false,
              "chordRootUpperLimit": 7,
              "noteLowLimit": 0,
              "noteHighLimit": 79,
              "rtr": "PITCH_SHIFT"
            },
            "ctb2High": null
          },
          "notes": []
        },
        "6": {
          "ctab": {
            "srcChannel": 6,
            "name": "StGt min",
            "accType": "PHRASE2",
            "editable": false,
            "mutedNotes": [],
            "mutedChords": [
              "1+2+5",
              "sus4",
              "1+5",
              "1+8",
              "7aug",
              "Maj7aug",
              "7(#9)",
              "7(b13)",
              "7(b9)",
              "7(13)",
              "7#11",
              "7(9)",
              "7b5",
              "7sus4",
              "7th",
              "aug",
              "Maj6(9)",
              "Maj7(9)",
              "Maj(9)",
              "Maj7#11",
              "Maj7",
              "Maj6",
              "Maj"
            ],
            "autoStart": false,
            "sourceChordNote": 0,
            "sourceChordType": "min",
            "ctb2Low": null,
            "ctb2Main": {
              "ntr": "ROOT_TRANSPOSITION",
              "ntt": "BYPASS",
              "bassOn": false,
              "chordRootUpperLimit": 8,
              "noteLowLimit": 40,
              "noteHighLimit": 127,
              "rtr": "PITCH_SHIFT"
            },
            "ctb2High": null
          },
          "notes": [
            {
              "pitch": 60,
              "velocity": 120,
              "position": 0,
              "duration": 0.7395833333333334
            },
            {
              "pitch": 63,
              "velocity": 120,
              "position": 0,
              "duration": 0.7395833333333334
            },
            {
              "pitch": 63,
              "velocity": 120,
              "position": 0.75,
              "duration": 0.1875
            },
            {
              "pitch": 60,
              "velocity": 120,
              "position": 0.75,
              "duration": 0.22916666666666666
            },
            {
              "pitch": 70,
              "velocity": 120,
              "position": 0,
              "duration": 1.0208333333333333
            },
            {
              "pitch": 48,
              "velocity": 120,
              "position": 0,
              "duration": 1.0208333333333333
            },
            {
              "pitch": 55,
              "velocity": 120,
              "position": 0,
              "duration": 1.0208333333333333
            },
            {
              "pitch": 70,
              "velocity": 73,
              "position": 1.2291666666666667,
              "duration": 0.23958333333333334
            },
            {
              "pitch": 60,
              "velocity": 73,
              "position": 1.2395833333333333,
              "duration": 0.23958333333333334
            },
            {
              "pitch": 63,
              "velocity": 73,
              "position": 1.2395833333333333,
              "duration": 0.23958333333333334
            },
            {
              "pitch": 55,
              "velocity": 73,
              "position": 1.25,
              "duration": 0.23958333333333334
            },
            {
              "pitch": 46,
              "velocity": 120,
              "position": 1.5,
              "duration": 2.34375
            },
            {
              "pitch": 67,
              "velocity": 120,
              "position": 1.5208333333333333,
              "duration": 2.3229166666666665
            },
            {
              "pitch": 62,
              "velocity": 120,
              "position": 1.5104166666666667,
              "duration": 2.3333333333333335
            },
            {
              "pitch": 60,
              "velocity": 120,
              "position": 1.5,
              "duration": 2.34375
            },
            {
              "pitch": 53,
              "velocity": 120,
              "position": 1.5,
              "duration": 2.34375
            },
            {
              "pitch": 70,
              "velocity": 120,
              "position": 3.995833333333333,
              "duration": 3.9916666666666667
            },
            {
              "pitch": 56,
              "velocity": 120,
              "position": 3.9479166666666665,
              "duration": 4.041666666666667
            },
            {
              "pitch": 63,
              "velocity": 120,
              "position": 3.9833333333333334,
              "duration": 4.00625
            },
            {
              "pitch": 60,
              "velocity": 120,
              "position": 3.970833333333333,
              "duration": 4.01875
            },
            {
              "pitch": 44,
              "velocity": 120,
              "position": 3.8958333333333335,
              "duration": 4.09375
            },
            {
              "pitch": 51,
              "velocity": 120,
              "position": 3.9291666666666667,
              "duration": 4.060416666666667
            }
          ]
        },
        "7": {
          "ctab": {
            "srcChannel": 7,
            "name": "60s min",
            "accType": "PHRASE1",
            "editable": false,
            "mutedNotes": [],
            "mutedChords": [
              "1+2+5",
              "sus4",
              "1+5",
              "1+8",
              "7aug",
              "Maj7aug",
              "7(#9)",
              "7(b13)",
              "7(b9)",
              "7(13)",
              "7#11",
              "7(9)",
              "7b5",
              "7sus4",
              "7th",
              "aug",
              "Maj6(9)",
              "Maj7(9)",
              "Maj(9)",
              "Maj7#11",
              "Maj7",
              "Maj6",
              "Maj"
            ],
            "autoStart": false,
            "sourceChordNote": 0,
            "sourceChordType": "min",
            "ctb2Low": null,
            "ctb2Main": {
              "ntr": "ROOT_TRANSPOSITION",
              "ntt": "BYPASS",
              "bassOn": false,
              "chordRootUpperLimit": 8,
              "noteLowLimit": 0,
              "noteHighLimit": 127,
              "rtr": "PITCH_SHIFT"
            },
            "ctb2High": null
          },
          "notes": [
            {
              "pitch": 63,
              "velocity": 80,
              "position": 3.75,
              "duration": 3.189583333333333
            },
            {
              "pitch": 70,
              "velocity": 80,
              "position": 4,
              "duration": 2.95
            },
            {
              "pitch": 60,
              "velocity": 80,
              "position": 3.5,
              "duration": 3.46875
            }
          ]
        },
        "8": {
          "ctab": {
            "srcChannel": 8,
            "name": "AddDrum",
            "accType": "SUBRHYTHM",
            "editable": false,
            "mutedNotes": [],
            "mutedChords": [],
            "autoStart": true,
            "sourceChordNote": 0,
            "sourceChordType": "Maj7",
            "ctb2Low": null,
            "ctb2Main": {
              "ntr": "ROOT_FIXED",
              "ntt": "BYPASS",
              "bassOn": false,
              "chordRootUpperLimit": 6,
              "noteLowLimit": 0,
              "noteHighLimit": 127,
              "rtr": "PITCH_SHIFT"
            },
            "ctb2High": null
          },
          "notes": [
            {
              "pitch": 27,
              "velocity": 100,
              "position": 0,
              "duration": 0.010416666666666666
            },
            {
              "pitch": 82,
              "velocity": 72,
              "position": 0,
              "duration": 0.010416666666666666
            },
            {
              "pitch": 70,
              "velocity": 72,
              "position": 0,
              "duration": 0.010416666666666666
            },
            {
              "pitch": 25,
              "velocity": 44,
              "position": 0.2708333333333333,
              "duration": 0.010416666666666666
            },
            {
              "pitch": 70,
              "velocity": 44,
              "position": 0.2708333333333333,
              "duration": 0.010416666666666666
            },
            {
              "pitch": 27,
              "velocity": 53,
              "position": 0.5,
              "duration": 0.010416666666666666
            },
            {
              "pitch": 82,
              "velocity": 45,
              "position": 0.5,
              "duration": 0.010416666666666666
            },
            {
              "pitch": 70,
              "velocity": 72,
              "position": 0.5,
              "duration": 0.010416666666666666
            },
            {
              "pitch": 25,
              "velocity": 101,
              "position": 0.7708333333333334,
              "duration": 0.010416666666666666
            },
            {
              "pitch": 70,
              "velocity": 44,
              "position": 0.7708333333333334,
              "duration": 0.010416666666666666
            },
            {
              "pitch": 27,
              "velocity": 100,
              "position": 1,
              "duration": 0.010416666666666666
            },
            {
              "pitch": 82,
              "velocity": 72,
              "position": 1,
              "duration": 0.010416666666666666
            },
            {
              "pitch": 70,
              "velocity": 72,
              "position": 1,
              "duration": 0.010416666666666666
            },
            {
              "pitch": 25,
              "velocity": 40,
              "position": 1.2708333333333333,
              "duration": 0.010416666666666666
            },
            {
              "pitch": 70,
              "velocity": 44,
              "position": 1.2708333333333333,
              "duration": 0.010416666666666666
            },
            {
              "pitch": 27,
              "velocity": 42,
              "position": 1.5,
              "duration": 0.010416666666666666
            },
            {
              "pitch": 82,
              "velocity": 45,
              "position": 1.5,
              "duration": 0.010416666666666666
            },
            {
              "pitch": 70,
              "velocity": 72,
              "position": 1.5,
              "duration": 0.010416666666666666
            },
            {
              "pitch": 25,
              "velocity": 66,
              "position": 1.7708333333333333,
              "duration": 0.010416666666666666
            },
            {
              "pitch": 70,
              "velocity": 44,
              "position": 1.7708333333333333,
              "duration": 0.010416666666666666
            },
            {
              "pitch": 69,
              "velocity": 57,
              "position": 1.7708333333333333,
              "duration": 0.010416666666666666
            },
            {
              "pitch": 27,
              "velocity": 77,
              "position": 2,
              "duration": 0.010416666666666666
            },
            {
              "pitch": 82,
              "velocity": 72,
              "position": 2,
              "duration": 0.010416666666666666
            },
            {
              "pitch": 70,
              "velocity": 62,
              "position": 2,
              "duration": 0.010416666666666666
            },
            {
              "pitch": 25,
              "velocity": 44,
              "position": 2.2708333333333335,
              "duration": 0.010416666666666666
            },
            {
              "pitch": 70,
              "velocity": 44,
              "position": 2.2708333333333335,
              "duration": 0.010416666666666666
            },
            {
              "pitch": 27,
              "velocity": 41,
              "position": 2.5,
              "duration": 0.010416666666666666
            },
            {
              "pitch": 82,
              "velocity": 45,
              "position": 2.5,
              "duration": 0.010416666666666666
            },
            {
              "pitch": 70,
              "velocity": 72,
              "position": 2.5,
              "duration": 0.010416666666666666
            },
            {
              "pitch": 25,
              "velocity": 80,
              "position": 2.7708333333333335,
              "duration": 0.010416666666666666
            },
            {
              "pitch": 70,
              "velocity": 44,
              "position": 2.7708333333333335,
              "duration": 0.010416666666666666
            },
            {
              "pitch": 27,
              "velocity": 80,
              "position": 3,
              "duration": 0.010416666666666666
            },
            {
              "pitch": 82,
              "velocity": 72,
              "position": 3,
              "duration": 0.010416666666666666
            },
            {
              "pitch": 70,
              "velocity": 72,
              "position": 3,
              "duration": 0.010416666666666666
            },
            {
              "pitch": 54,
              "velocity": 110,
              "position": 3,
              "duration": 0.03125
            },
            {
              "pitch": 25,
              "velocity": 76,
              "position": 3.2708333333333335,
              "duration": 0.010416666666666666
            },
            {
              "pitch": 70,
              "velocity": 44,
              "position": 3.2708333333333335,
              "duration": 0.010416666666666666
            },
            {
              "pitch": 27,
              "velocity": 42,
              "position": 3.5,
              "duration": 0.010416666666666666
            },
            {
              "pitch": 82,
              "velocity": 45,
              "position": 3.5,
              "duration": 0.010416666666666666
            },
            {
              "pitch": 70,
              "velocity": 72,
              "position": 3.5,
              "duration": 0.010416666666666666
            },
            {
              "pitch": 25,
              "velocity": 80,
              "position": 3.7708333333333335,
              "duration": 0.010416666666666666
            },
            {
              "pitch": 70,
              "velocity": 44,
              "position": 3.7708333333333335,
              "duration": 0.010416666666666666
            },
            {
              "pitch": 69,
              "velocity": 57,
              "position": 3.7708333333333335,
              "duration": 0.010416666666666666
            },
            {
              "pitch": 27,
              "velocity": 91,
              "position": 4,
              "duration": 0.010416666666666666
            },
            {
              "pitch": 82,
              "velocity": 72,
              "position": 4,
              "duration": 0.010416666666666666
            },
            {
              "pitch": 70,
              "velocity": 72,
              "position": 4,
              "duration": 0.010416666666666666
            },
            {
              "pitch": 25,
              "velocity": 44,
              "position": 4.270833333333333,
              "duration": 0.010416666666666666
            },
            {
              "pitch": 70,
              "velocity": 44,
              "position": 4.270833333333333,
              "duration": 0.010416666666666666
            },
            {
              "pitch": 27,
              "velocity": 41,
              "position": 4.5,
              "duration": 0.010416666666666666
            },
            {
              "pitch": 82,
              "velocity": 45,
              "position": 4.5,
              "duration": 0.010416666666666666
            },
            {
              "pitch": 70,
              "velocity": 72,
              "position": 4.5,
              "duration": 0.010416666666666666
            },
            {
              "pitch": 25,
              "velocity": 101,
              "position": 4.770833333333333,
              "duration": 0.010416666666666666
            },
            {
              "pitch": 70,
              "velocity": 44,
              "position": 4.770833333333333,
              "duration": 0.010416666666666666
            },
            {
              "pitch": 27,
              "velocity": 100,
              "position": 5,
              "duration": 0.010416666666666666
            },
            {
              "pitch": 82,
              "velocity": 72,
              "position": 5,
              "duration": 0.010416666666666666
            },
            {
              "pitch": 70,
              "velocity": 72,
              "position": 5,
              "duration": 0.010416666666666666
            },
            {
              "pitch": 25,
              "velocity": 40,
              "position": 5.270833333333333,
              "duration": 0.010416666666666666
            },
            {
              "pitch": 70,
              "velocity": 44,
              "position": 5.270833333333333,
              "duration": 0.010416666666666666
            },
            {
              "pitch": 27,
              "velocity": 42,
              "position": 5.5,
              "duration": 0.010416666666666666
            },
            {
              "pitch": 82,
              "velocity": 45,
              "position": 5.5,
              "duration": 0.010416666666666666
            },
            {
              "pitch": 70,
              "velocity": 72,
              "position": 5.5,
              "duration": 0.010416666666666666
            },
            {
              "pitch": 25,
              "velocity": 84,
              "position": 5.770833333333333,
              "duration": 0.010416666666666666
            },
            {
              "pitch": 70,
              "velocity": 44,
              "position": 5.770833333333333,
              "duration": 0.010416666666666666
            },
            {
              "pitch": 69,
              "velocity": 57,
              "position": 5.770833333333333,
              "duration": 0.010416666666666666
            },
            {
              "pitch": 27,
              "velocity": 95,
              "position": 6,
              "duration": 0.010416666666666666
            },
            {
              "pitch": 82,
              "velocity": 72,
              "position": 6,
              "duration": 0.010416666666666666
            },
            {
              "pitch": 70,
              "velocity": 62,
              "position": 6,
              "duration": 0.010416666666666666
            },
            {
              "pitch": 25,
              "velocity": 44,
              "position": 6.270833333333333,
              "duration": 0.010416666666666666
            },
            {
              "pitch": 70,
              "velocity": 44,
              "position": 6.270833333333333,
              "duration": 0.010416666666666666
            },
            {
              "pitch": 27,
              "velocity": 41,
              "position": 6.5,
              "duration": 0.010416666666666666
            },
            {
              "pitch": 82,
              "velocity": 45,
              "position": 6.5,
              "duration": 0.010416666666666666
            },
            {
              "pitch": 70,
              "velocity": 72,
              "position": 6.5,
              "duration": 0.010416666666666666
            },
            {
              "pitch": 25,
              "velocity": 104,
              "position": 6.770833333333333,
              "duration": 0.010416666666666666
            },
            {
              "pitch": 70,
              "velocity": 44,
              "position": 6.770833333333333,
              "duration": 0.010416666666666666
            },
            {
              "pitch": 27,
              "velocity": 84,
              "position": 7,
              "duration": 0.010416666666666666
            },
            {
              "pitch": 82,
              "velocity": 72,
              "position": 7,
              "duration": 0.010416666666666666
            },
            {
              "pitch": 70,
              "velocity": 72,
              "position": 7,
              "duration": 0.010416666666666666
            },
            {
              "pitch": 54,
              "velocity": 110,
              "position": 7,
              "duration": 0.03125
            },
            {
              "pitch": 25,
              "velocity": 86,
              "position": 7.270833333333333,
              "duration": 0.010416666666666666
            },
            {
              "pitch": 70,
              "velocity": 44,
              "position": 7.270833333333333,
              "duration": 0.010416666666666666
            },
            {
              "pitch": 27,
              "velocity": 42,
              "position": 7.5,
              "duration": 0.010416666666666666
            },
            {
              "pitch": 82,
              "velocity": 45,
              "position": 7.5,
              "duration": 0.010416666666666666
            },
            {
              "pitch": 70,
              "velocity": 72,
              "position": 7.5,
              "duration": 0.010416666666666666
            },
            {
              "pitch": 25,
              "velocity": 89,
              "position": 7.770833333333333,
              "duration": 0.010416666666666666
            },
            {
              "pitch": 70,
              "velocity": 44,
              "position": 7.770833333333333,
              "duration": 0.010416666666666666
            },
            {
              "pitch": 69,
              "velocity": 57,
              "position": 7.770833333333333,
              "duration": 0.010416666666666666
            }
          ]
        },
        "9": {
          "ctab": {
            "srcChannel": 9,
            "name": "MainDrum",
            "accType": "RHYTHM",
            "editable": false,
            "mutedNotes": [],
            "mutedChords": [],
            "autoStart": true,
            "sourceChordNote": 0,
            "sourceChordType": "Maj7",
            "ctb2Low": null,
            "ctb2Main": {
              "ntr": "ROOT_FIXED",
              "ntt": "BYPASS",
              "bassOn": false,
              "chordRootUpperLimit": 6,
              "noteLowLimit": 0,
              "noteHighLimit": 127,
              "rtr": "PITCH_SHIFT"
            },
            "ctb2High": null
          },
          "notes": [
            {
              "pitch": 42,
              "velocity": 72,
              "position": 4,
              "duration": 0.010416666666666666
            },
            {
              "pitch": 42,
              "velocity": 72,
              "position": 5,
              "duration": 0.010416666666666666
            },
            {
              "pitch": 42,
              "velocity": 72,
              "position": 6,
              "duration": 0.010416666666666666
            },
            {
              "pitch": 36,
              "velocity": 58,
              "position": 6.5,
              "duration": 0.010416666666666666
            },
            {
              "pitch": 36,
              "velocity": 84,
              "position": 6.75,
              "duration": 0.010416666666666666
            },
            {
              "pitch": 40,
              "velocity": 109,
              "position": 6.979166666666667,
              "duration": 0.020833333333333332
            },
            {
              "pitch": 40,
              "velocity": 90,
              "position": 7.020833333333333,
              "duration": 0.020833333333333332
            },
            {
              "pitch": 40,
              "velocity": 60,
              "position": 7.25,
              "duration": 0.020833333333333332
            },
            {
              "pitch": 41,
              "velocity": 52,
              "position": 7.5,
              "duration": 0.020833333333333332
            },
            {
              "pitch": 57,
              "velocity": 52,
              "position": 7.989583333333333,
              "duration": 0.010416666666666666
            }
          ]
        },
        "10": {
          "ctab": {
            "srcChannel": 10,
            "name": "Bass Maj",
            "accType": "BASS",
            "editable": false,
            "mutedNotes": [],
            "mutedChords": [
              "dim7",
              "dim",
              "minMaj7(9)",
              "minMaj7",
              "min7(11)",
              "min7(9)",
              "min(9)",
              "m7b5",
              "min7",
              "min6",
              "min"
            ],
            "autoStart": false,
            "sourceChordNote": 0,
            "sourceChordType": "Maj",
            "ctb2Low": null,
            "ctb2Main": {
              "ntr": "ROOT_TRANSPOSITION",
              "ntt": "BYPASS",
              "bassOn": false,
              "chordRootUpperLimit": 3,
              "noteLowLimit": 28,
              "noteHighLimit": 127,
              "rtr": "PITCH_SHIFT"
            },
            "ctb2High": null
          },
          "notes": [
            {
              "pitch": 24,
              "velocity": 88,
              "position": 6.572916666666667,
              "duration": 1.3854166666666667
            }
          ]
        },
        "11": {
          "ctab": {
            "srcChannel": 11,
            "name": "12st Maj",
            "accType": "CHORD1",
            "editable": false,
            "mutedNotes": [],
            "mutedChords": [
              "dim7",
              "dim",
              "minMaj7(9)",
              "minMaj7",
              "min7(11)",
              "min7(9)",
              "min(9)",
              "m7b5",
              "min7",
              "min6",
              "min"
            ],
            "autoStart": false,
            "sourceChordNote": 0,
            "sourceChordType": "Maj",
            "ctb2Low": null,
            "ctb2Main": {
              "ntr": "ROOT_TRANSPOSITION",
              "ntt": "BYPASS",
              "bassOn": false,
              "chordRootUpperLimit": 8,
              "noteLowLimit": 40,
              "noteHighLimit": 127,
              "rtr": "PITCH_SHIFT"
            },
            "ctb2High": null
          },
          "notes": [
            {
              "pitch": 55,
              "velocity": 97,
              "position": 0,
              "duration": 0.7395833333333334
            },
            {
              "pitch": 67,
              "velocity": 109,
              "position": 0.010416666666666666,
              "duration": 0.7291666666666666
            },
            {
              "pitch": 64,
              "velocity": 97,
              "position": 0.020833333333333332,
              "duration": 0.7395833333333334
            },
            {
              "pitch": 62,
              "velocity": 94,
              "position": 0.7708333333333334,
              "duration": 0.1875
            },
            {
              "pitch": 60,
              "velocity": 97,
              "position": 0.020833333333333332,
              "duration": 0.9791666666666666
            },
            {
              "pitch": 67,
              "velocity": 94,
              "position": 0.75,
              "duration": 0.2708333333333333
            },
            {
              "pitch": 55,
              "velocity": 94,
              "position": 0.7604166666666666,
              "duration": 0.2708333333333333
            },
            {
              "pitch": 55,
              "velocity": 45,
              "position": 1.2291666666666667,
              "duration": 0.23958333333333334
            },
            {
              "pitch": 67,
              "velocity": 45,
              "position": 1.2395833333333333,
              "duration": 0.22916666666666666
            },
            {
              "pitch": 60,
              "velocity": 45,
              "position": 1.25,
              "duration": 0.23958333333333334
            },
            {
              "pitch": 62,
              "velocity": 45,
              "position": 1.25,
              "duration": 0.23958333333333334
            },
            {
              "pitch": 67,
              "velocity": 94,
              "position": 1.4791666666666667,
              "duration": 0.7395833333333334
            },
            {
              "pitch": 64,
              "velocity": 97,
              "position": 1.5,
              "duration": 0.7395833333333334
            },
            {
              "pitch": 60,
              "velocity": 97,
              "position": 1.5,
              "duration": 0.7395833333333334
            },
            {
              "pitch": 62,
              "velocity": 94,
              "position": 2.25,
              "duration": 0.1875
            },
            {
              "pitch": 60,
              "velocity": 94,
              "position": 2.25,
              "duration": 0.22916666666666666
            },
            {
              "pitch": 55,
              "velocity": 97,
              "position": 1.4895833333333333,
              "duration": 1.0208333333333333
            },
            {
              "pitch": 67,
              "velocity": 94,
              "position": 2.2395833333333335,
              "duration": 0.2708333333333333
            },
            {
              "pitch": 67,
              "velocity": 94,
              "position": 2.9791666666666665,
              "duration": 0.4895833333333333
            },
            {
              "pitch": 64,
              "velocity": 97,
              "position": 3,
              "duration": 0.4895833333333333
            },
            {
              "pitch": 60,
              "velocity": 97,
              "position": 3,
              "duration": 0.4895833333333333
            },
            {
              "pitch": 55,
              "velocity": 97,
              "position": 2.9895833333333335,
              "duration": 0.96875
            },
            {
              "pitch": 67,
              "velocity": 94,
              "position": 3.4895833333333335,
              "duration": 0.46875
            },
            {
              "pitch": 60,
              "velocity": 94,
              "position": 3.5,
              "duration": 0.46875
            },
            {
              "pitch": 62,
              "velocity": 94,
              "position": 3.5,
              "duration": 0.46875
            },
            {
              "pitch": 55,
              "velocity": 97,
              "position": 3.96875,
              "duration": 4.010416666666667
            },
            {
              "pitch": 60,
              "velocity": 97,
              "position": 4,
              "duration": 3.9791666666666665
            },
            {
              "pitch": 65,
              "velocity": 97,
              "position": 4.03125,
              "duration": 3.9520833333333334
            }
          ]
        },
        "12": {
          "ctab": {
            "srcChannel": 12,
            "name": "Mute",
            "accType": "CHORD2",
            "editable": false,
            "mutedNotes": [],
            "mutedChords": [],
            "autoStart": false,
            "sourceChordNote": 0,
            "sourceChordType": "Maj",
            "ctb2Low": null,
            "ctb2Main": {
              "ntr": "ROOT_TRANSPOSITION",
              "ntt": "HARMONIC_MINOR",
              "bassOn": false,
              "chordRootUpperLimit": 7,
              "noteLowLimit": 40,
              "noteHighLimit": 127,
              "rtr": "PITCH_SHIFT"
            },
            "ctb2High": null
          },
          "notes": [
            {
              "pitch": 55,
              "velocity": 76,
              "position": 4.75,
              "duration": 0.21875
            },
            {
              "pitch": 55,
              "velocity": 76,
              "position": 5.25,
              "duration": 0.1875
            },
            {
              "pitch": 55,
              "velocity": 76,
              "position": 5.75,
              "duration": 0.11666666666666667
            },
            {
              "pitch": 57,
              "velocity": 84,
              "position": 6,
              "duration": 0.24166666666666667
            },
            {
              "pitch": 60,
              "velocity": 76,
              "position": 6.25,
              "duration": 0.22916666666666666
            },
            {
              "pitch": 57,
              "velocity": 84,
              "position": 6.5,
              "duration": 0.21875
            },
            {
              "pitch": 60,
              "velocity": 80,
              "position": 7,
              "duration": 0.23958333333333334
            }
          ]
        },
        "13": {
          "ctab": {
            "srcChannel": 13,
            "name": "Strg Maj",
            "accType": "PAD",
            "editable": false,
            "mutedNotes": [],
            "mutedChords": [
              "dim7",
              "dim",
              "minMaj7(9)",
              "minMaj7",
              "min7(11)",
              "min7(9)",
              "min(9)",
              "m7b5",
              "min7",
              "min6",
              "min"
            ],
            "autoStart": false,
            "sourceChordNote": 0,
            "sourceChordType": "Maj",
            "ctb2Low": null,
            "ctb2Main": {
              "ntr": "ROOT_TRANSPOSITION",
              "ntt": "BYPASS",
              "bassOn": false,
              "chordRootUpperLimit": 6,
              "noteLowLimit": 0,
              "noteHighLimit": 79,
              "rtr": "PITCH_SHIFT"
            },
            "ctb2High": null
          },
          "notes": []
        },
        "14": {
          "ctab": {
            "srcChannel": 14,
            "name": "StGt Maj",
            "accType": "PHRASE2",
            "editable": false,
            "mutedNotes": [],
            "mutedChords": [
              "dim7",
              "dim",
              "minMaj7(9)",
              "minMaj7",
              "min7(11)",
              "min7(9)",
              "min(9)",
              "m7b5",
              "min7",
              "min6",
              "min"
            ],
            "autoStart": false,
            "sourceChordNote": 0,
            "sourceChordType": "Maj",
            "ctb2Low": null,
            "ctb2Main": {
              "ntr": "ROOT_TRANSPOSITION",
              "ntt": "BYPASS",
              "bassOn": false,
              "chordRootUpperLimit": 9,
              "noteLowLimit": 40,
              "noteHighLimit": 127,
              "rtr": "PITCH_SHIFT"
            },
            "ctb2High": null
          },
          "notes": [
            {
              "pitch": 60,
              "velocity": 120,
              "position": 0,
              "duration": 0.7395833333333334
            },
            {
              "pitch": 64,
              "velocity": 120,
              "position": 0,
              "duration": 0.7395833333333334
            },
            {
              "pitch": 62,
              "velocity": 120,
              "position": 0.75,
              "duration": 0.1875
            },
            {
              "pitch": 60,
              "velocity": 120,
              "position": 0.75,
              "duration": 0.22916666666666666
            },
            {
              "pitch": 67,
              "velocity": 120,
              "position": 0,
              "duration": 1.0208333333333333
            },
            {
              "pitch": 55,
              "velocity": 120,
              "position": 0,
              "duration": 1.0208333333333333
            },
            {
              "pitch": 67,
              "velocity": 73,
              "position": 1.2291666666666667,
              "duration": 0.23958333333333334
            },
            {
              "pitch": 60,
              "velocity": 73,
              "position": 1.2395833333333333,
              "duration": 0.23958333333333334
            },
            {
              "pitch": 62,
              "velocity": 73,
              "position": 1.2395833333333333,
              "duration": 0.23958333333333334
            },
            {
              "pitch": 55,
              "velocity": 73,
              "position": 1.25,
              "duration": 0.23958333333333334
            },
            {
              "pitch": 55,
              "velocity": 120,
              "position": 1.5,
              "duration": 0.7395833333333334
            },
            {
              "pitch": 67,
              "velocity": 120,
              "position": 1.5208333333333333,
              "duration": 0.71875
            },
            {
              "pitch": 64,
              "velocity": 120,
              "position": 1.5104166666666667,
              "duration": 0.7395833333333334
            },
            {
              "pitch": 62,
              "velocity": 104,
              "position": 2.25,
              "duration": 0.1875
            },
            {
              "pitch": 60,
              "velocity": 120,
              "position": 1.5,
              "duration": 0.9791666666666666
            },
            {
              "pitch": 67,
              "velocity": 110,
              "position": 2.25,
              "duration": 0.2708333333333333
            },
            {
              "pitch": 55,
              "velocity": 120,
              "position": 2.25,
              "duration": 0.2708333333333333
            },
            {
              "pitch": 55,
              "velocity": 120,
              "position": 2.9791666666666665,
              "duration": 0.4895833333333333
            },
            {
              "pitch": 67,
              "velocity": 120,
              "position": 3.0104166666666665,
              "duration": 0.4791666666666667
            },
            {
              "pitch": 64,
              "velocity": 120,
              "position": 3,
              "duration": 0.4895833333333333
            },
            {
              "pitch": 60,
              "velocity": 120,
              "position": 2.9895833333333335,
              "duration": 0.96875
            },
            {
              "pitch": 67,
              "velocity": 120,
              "position": 3.5,
              "duration": 0.46875
            },
            {
              "pitch": 62,
              "velocity": 120,
              "position": 3.5104166666666665,
              "duration": 0.46875
            },
            {
              "pitch": 55,
              "velocity": 120,
              "position": 3.5208333333333335,
              "duration": 4.46875
            },
            {
              "pitch": 60,
              "velocity": 120,
              "position": 4,
              "duration": 3.9895833333333335
            },
            {
              "pitch": 57,
              "velocity": 120,
              "position": 4,
              "duration": 3.9895833333333335
            },
            {
              "pitch": 65,
              "velocity": 120,
              "position": 3.9895833333333335,
              "duration": 4
            }
          ]
        },
        "15": {
          "ctab": {
            "srcChannel": 15,
            "name": "60s Maj",
            "accType": "PHRASE1",
            "editable": false,
            "mutedNotes": [],
            "mutedChords": [
              "dim7",
              "dim",
              "minMaj7(9)",
              "minMaj7",
              "min7(11)",
              "min7(9)",
              "min(9)",
              "m7b5",
              "min7",
              "min6",
              "min"
            ],
            "autoStart": false,
            "sourceChordNote": 0,
            "sourceChordType": "Maj",
            "ctb2Low": null,
            "ctb2Main": {
              "ntr": "ROOT_TRANSPOSITION",
              "ntt": "BYPASS",
              "bassOn": false,
              "chordRootUpperLimit": 8,
              "noteLowLimit": 0,
              "noteHighLimit": 127,
              "rtr": "PITCH_SHIFT"
            },
            "ctb2High": null
          },
          "notes": [
            {
              "pitch": 55,
              "velocity": 81,
              "position": 2.75,
              "duration": 1.0895833333333333
            },
            {
              "pitch": 62,
              "velocity": 80,
              "position": 3.5,
              "duration": 0.40208333333333335
            },
            {
              "pitch": 67,
              "velocity": 86,
              "position": 3,
              "duration": 1.0145833333333334
            },
            {
              "pitch": 60,
              "velocity": 83,
              "position": 3.910416666666667,
              "duration": 3.3625
            },
            {
              "pitch": 69,
              "velocity": 86,
              "position": 4.022916666666666,
              "duration": 3.25
            },
            {
              "pitch": 57,
              "velocity": 83,
              "position": 3.847916666666667,
              "duration": 3.466666666666667
            }
          ]
        }
      }
    },
    "Intro_C": {
      "type": "Intro_C",
      "sizeInBeats": 16,
      "channels": {
        "1": {
          "ctab": {
            "srcChannel": 1,
            "name": "12st SFX",
            "accType": "CHORD1",
            "editable": false,
            "mutedNotes": [],
            "mutedChords": [],
            "autoStart": false,
            "sourceChordNote": 0,
            "sourceChordType": "Maj7",
            "ctb2Low": null,
            "ctb2Main": {
              "ntr": "ROOT_FIXED",
              "ntt": "BYPASS",
              "bassOn": false,
              "chordRootUpperLimit": 7,
              "noteLowLimit": 0,
              "noteHighLimit": 127,
              "rtr": "PITCH_SHIFT"
            },
            "ctb2High": null
          },
          "notes": [
            {
              "pitch": 34,
              "velocity": 73,
              "position": 0,
              "duration": 0.041666666666666664
            },
            {
              "pitch": 39,
              "velocity": 73,
              "position": 0,
              "duration": 0.041666666666666664
            },
            {
              "pitch": 36,
              "velocity": 73,
              "position": 0,
              "duration": 0.041666666666666664
            },
            {
              "pitch": 34,
              "velocity": 73,
              "position": 0.75,
              "duration": 0.041666666666666664
            },
            {
              "pitch": 38,
              "velocity": 73,
              "position": 0.75,
              "duration": 0.041666666666666664
            },
            {
              "pitch": 36,
              "velocity": 73,
              "position": 0.75,
              "duration": 0.041666666666666664
            },
            {
              "pitch": 34,
              "velocity": 70,
              "position": 1.25,
              "duration": 0.041666666666666664
            },
            {
              "pitch": 36,
              "velocity": 70,
              "position": 1.25,
              "duration": 0.041666666666666664
            },
            {
              "pitch": 34,
              "velocity": 70,
              "position": 1.5,
              "duration": 0.041666666666666664
            },
            {
              "pitch": 39,
              "velocity": 70,
              "position": 1.5,
              "duration": 0.041666666666666664
            },
            {
              "pitch": 36,
              "velocity": 70,
              "position": 1.5,
              "duration": 0.041666666666666664
            },
            {
              "pitch": 34,
              "velocity": 70,
              "position": 2.25,
              "duration": 0.041666666666666664
            },
            {
              "pitch": 39,
              "velocity": 70,
              "position": 2.25,
              "duration": 0.041666666666666664
            },
            {
              "pitch": 36,
              "velocity": 70,
              "position": 2.25,
              "duration": 0.041666666666666664
            },
            {
              "pitch": 34,
              "velocity": 70,
              "position": 2.75,
              "duration": 0.041666666666666664
            },
            {
              "pitch": 36,
              "velocity": 70,
              "position": 2.75,
              "duration": 0.041666666666666664
            },
            {
              "pitch": 34,
              "velocity": 70,
              "position": 3,
              "duration": 0.041666666666666664
            },
            {
              "pitch": 39,
              "velocity": 70,
              "position": 3,
              "duration": 0.041666666666666664
            },
            {
              "pitch": 36,
              "velocity": 70,
              "position": 3,
              "duration": 0.041666666666666664
            },
            {
              "pitch": 34,
              "velocity": 73,
              "position": 4,
              "duration": 0.041666666666666664
            },
            {
              "pitch": 39,
              "velocity": 73,
              "position": 4,
              "duration": 0.041666666666666664
            },
            {
              "pitch": 36,
              "velocity": 73,
              "position": 4,
              "duration": 0.041666666666666664
            },
            {
              "pitch": 34,
              "velocity": 73,
              "position": 4.75,
              "duration": 0.041666666666666664
            },
            {
              "pitch": 38,
              "velocity": 73,
              "position": 4.75,
              "duration": 0.041666666666666664
            },
            {
              "pitch": 36,
              "velocity": 73,
              "position": 4.75,
              "duration": 0.041666666666666664
            },
            {
              "pitch": 34,
              "velocity": 70,
              "position": 5.25,
              "duration": 0.041666666666666664
            },
            {
              "pitch": 36,
              "velocity": 70,
              "position": 5.25,
              "duration": 0.041666666666666664
            },
            {
              "pitch": 34,
              "velocity": 70,
              "position": 5.5,
              "duration": 0.041666666666666664
            },
            {
              "pitch": 39,
              "velocity": 70,
              "position": 5.5,
              "duration": 0.041666666666666664
            },
            {
              "pitch": 36,
              "velocity": 70,
              "position": 5.5,
              "duration": 0.041666666666666664
            },
            {
              "pitch": 34,
              "velocity": 70,
              "position": 6.25,
              "duration": 0.041666666666666664
            },
            {
              "pitch": 39,
              "velocity": 70,
              "position": 6.25,
              "duration": 0.041666666666666664
            },
            {
              "pitch": 36,
              "velocity": 70,
              "position": 6.25,
              "duration": 0.041666666666666664
            },
            {
              "pitch": 34,
              "velocity": 70,
              "position": 6.75,
              "duration": 0.041666666666666664
            },
            {
              "pitch": 36,
              "velocity": 70,
              "position": 6.75,
              "duration": 0.041666666666666664
            },
            {
              "pitch": 34,
              "velocity": 70,
              "position": 7,
              "duration": 0.041666666666666664
            },
            {
              "pitch": 39,
              "velocity": 70,
              "position": 7,
              "duration": 0.041666666666666664
            },
            {
              "pitch": 36,
              "velocity": 70,
              "position": 7,
              "duration": 0.041666666666666664
            },
            {
              "pitch": 34,
              "velocity": 73,
              "position": 8,
              "duration": 0.041666666666666664
            },
            {
              "pitch": 39,
              "velocity": 73,
              "position": 8,
              "duration": 0.041666666666666664
            },
            {
              "pitch": 36,
              "velocity": 73,
              "position": 8,
              "duration": 0.041666666666666664
            },
            {
              "pitch": 34,
              "velocity": 73,
              "position": 8.75,
              "duration": 0.041666666666666664
            },
            {
              "pitch": 38,
              "velocity": 73,
              "position": 8.75,
              "duration": 0.041666666666666664
            },
            {
              "pitch": 36,
              "velocity": 73,
              "position": 8.75,
              "duration": 0.041666666666666664
            },
            {
              "pitch": 34,
              "velocity": 70,
              "position": 9.25,
              "duration": 0.041666666666666664
            },
            {
              "pitch": 36,
              "velocity": 70,
              "position": 9.25,
              "duration": 0.041666666666666664
            },
            {
              "pitch": 34,
              "velocity": 70,
              "position": 9.5,
              "duration": 0.041666666666666664
            },
            {
              "pitch": 39,
              "velocity": 70,
              "position": 9.5,
              "duration": 0.041666666666666664
            },
            {
              "pitch": 36,
              "velocity": 70,
              "position": 9.5,
              "duration": 0.041666666666666664
            },
            {
              "pitch": 34,
              "velocity": 70,
              "position": 10.25,
              "duration": 0.041666666666666664
            },
            {
              "pitch": 39,
              "velocity": 70,
              "position": 10.25,
              "duration": 0.041666666666666664
            },
            {
              "pitch": 36,
              "velocity": 70,
              "position": 10.25,
              "duration": 0.041666666666666664
            },
            {
              "pitch": 34,
              "velocity": 70,
              "position": 10.75,
              "duration": 0.041666666666666664
            },
            {
              "pitch": 36,
              "velocity": 70,
              "position": 10.75,
              "duration": 0.041666666666666664
            },
            {
              "pitch": 34,
              "velocity": 70,
              "position": 11,
              "duration": 0.041666666666666664
            },
            {
              "pitch": 39,
              "velocity": 70,
              "position": 11,
              "duration": 0.041666666666666664
            },
            {
              "pitch": 36,
              "velocity": 70,
              "position": 11,
              "duration": 0.041666666666666664
            },
            {
              "pitch": 34,
              "velocity": 73,
              "position": 12,
              "duration": 0.041666666666666664
            },
            {
              "pitch": 39,
              "velocity": 73,
              "position": 12,
              "duration": 0.041666666666666664
            },
            {
              "pitch": 36,
              "velocity": 73,
              "position": 12,
              "duration": 0.041666666666666664
            },
            {
              "pitch": 34,
              "velocity": 73,
              "position": 12.75,
              "duration": 0.041666666666666664
            },
            {
              "pitch": 38,
              "velocity": 73,
              "position": 12.75,
              "duration": 0.041666666666666664
            },
            {
              "pitch": 36,
              "velocity": 73,
              "position": 12.75,
              "duration": 0.041666666666666664
            },
            {
              "pitch": 34,
              "velocity": 70,
              "position": 13.25,
              "duration": 0.041666666666666664
            },
            {
              "pitch": 36,
              "velocity": 70,
              "position": 13.25,
              "duration": 0.041666666666666664
            },
            {
              "pitch": 34,
              "velocity": 70,
              "position": 13.5,
              "duration": 0.041666666666666664
            },
            {
              "pitch": 39,
              "velocity": 70,
              "position": 13.5,
              "duration": 0.041666666666666664
            },
            {
              "pitch": 36,
              "velocity": 70,
              "position": 13.5,
              "duration": 0.041666666666666664
            },
            {
              "pitch": 34,
              "velocity": 70,
              "position": 14.25,
              "duration": 0.041666666666666664
            },
            {
              "pitch": 39,
              "velocity": 70,
              "position": 14.25,
              "duration": 0.041666666666666664
            },
            {
              "pitch": 36,
              "velocity": 70,
              "position": 14.25,
              "duration": 0.041666666666666664
            },
            {
              "pitch": 34,
              "velocity": 70,
              "position": 14.75,
              "duration": 0.041666666666666664
            },
            {
              "pitch": 36,
              "velocity": 70,
              "position": 14.75,
              "duration": 0.041666666666666664
            },
            {
              "pitch": 34,
              "velocity": 70,
              "position": 15,
              "duration": 0.041666666666666664
            },
            {
              "pitch": 39,
              "velocity": 70,
              "position": 15,
              "duration": 0.041666666666666664
            },
            {
              "pitch": 36,
              "velocity": 70,
              "position": 15,
              "duration": 0.041666666666666664
            },
            {
              "pitch": 36,
              "velocity": 70,
              "position": 15.75,
              "duration": 0.041666666666666664
            },
            {
              "pitch": 39,
              "velocity": 70,
              "position": 15.75,
              "duration": 0.041666666666666664
            }
          ]
        },
        "2": {
          "ctab": {
            "srcChannel": 2,
            "name": "Bass min",
            "accType": "BASS",
            "editable": false,
            "mutedNotes": [],
            "mutedChords": [
              "1+2+5",
              "sus4",
              "1+5",
              "1+8",
              "7aug",
              "Maj7aug",
              "7(#9)",
              "7(b13)",
              "7(b9)",
              "7(13)",
              "7#11",
              "7(9)",
              "7b5",
              "7sus4",
              "7th",
              "aug",
              "Maj6(9)",
              "Maj7(9)",
              "Maj(9)",
              "Maj7#11",
              "Maj7",
              "Maj6",
              "Maj"
            ],
            "autoStart": false,
            "sourceChordNote": 0,
            "sourceChordType": "min",
            "ctb2Low": null,
            "ctb2Main": {
              "ntr": "ROOT_TRANSPOSITION",
              "ntt": "BYPASS",
              "bassOn": false,
              "chordRootUpperLimit": 3,
              "noteLowLimit": 28,
              "noteHighLimit": 127,
              "rtr": "PITCH_SHIFT"
            },
            "ctb2High": null
          },
          "notes": [
            {
              "pitch": 36,
              "velocity": 80,
              "position": 0,
              "duration": 0.7395833333333334
            },
            {
              "pitch": 36,
              "velocity": 80,
              "position": 0.75,
              "duration": 0.13125
            },
            {
              "pitch": 36,
              "velocity": 84,
              "position": 1.25,
              "duration": 0.020833333333333332
            },
            {
              "pitch": 36,
              "velocity": 80,
              "position": 1.5,
              "duration": 0.7395833333333334
            },
            {
              "pitch": 36,
              "velocity": 80,
              "position": 2.25,
              "duration": 0.15208333333333332
            },
            {
              "pitch": 36,
              "velocity": 84,
              "position": 2.75,
              "duration": 0.020833333333333332
            },
            {
              "pitch": 38,
              "velocity": 80,
              "position": 3,
              "duration": 0.4895833333333333
            },
            {
              "pitch": 36,
              "velocity": 80,
              "position": 3.5,
              "duration": 0.4895833333333333
            },
            {
              "pitch": 32,
              "velocity": 80,
              "position": 4,
              "duration": 0.7395833333333334
            },
            {
              "pitch": 32,
              "velocity": 80,
              "position": 4.75,
              "duration": 0.19166666666666668
            },
            {
              "pitch": 32,
              "velocity": 84,
              "position": 5.25,
              "duration": 0.020833333333333332
            },
            {
              "pitch": 32,
              "velocity": 80,
              "position": 5.5,
              "duration": 0.7395833333333334
            },
            {
              "pitch": 32,
              "velocity": 80,
              "position": 6.25,
              "duration": 0.17083333333333334
            },
            {
              "pitch": 32,
              "velocity": 84,
              "position": 6.75,
              "duration": 0.020833333333333332
            },
            {
              "pitch": 34,
              "velocity": 80,
              "position": 7,
              "duration": 0.9895833333333334
            },
            {
              "pitch": 36,
              "velocity": 80,
              "position": 8,
              "duration": 0.7395833333333334
            },
            {
              "pitch": 36,
              "velocity": 80,
              "position": 8.75,
              "duration": 0.19375
            },
            {
              "pitch": 36,
              "velocity": 84,
              "position": 9.25,
              "duration": 0.020833333333333332
            },
            {
              "pitch": 36,
              "velocity": 80,
              "position": 9.5,
              "duration": 0.7395833333333334
            },
            {
              "pitch": 36,
              "velocity": 80,
              "position": 10.25,
              "duration": 0.1875
            },
            {
              "pitch": 36,
              "velocity": 84,
              "position": 10.75,
              "duration": 0.020833333333333332
            },
            {
              "pitch": 38,
              "velocity": 80,
              "position": 11,
              "duration": 0.4895833333333333
            },
            {
              "pitch": 36,
              "velocity": 80,
              "position": 11.5,
              "duration": 0.4895833333333333
            },
            {
              "pitch": 32,
              "velocity": 80,
              "position": 12,
              "duration": 0.7395833333333334
            },
            {
              "pitch": 32,
              "velocity": 80,
              "position": 12.75,
              "duration": 0.20833333333333334
            },
            {
              "pitch": 32,
              "velocity": 84,
              "position": 13.25,
              "duration": 0.020833333333333332
            },
            {
              "pitch": 34,
              "velocity": 80,
              "position": 13.5,
              "duration": 0.7395833333333334
            },
            {
              "pitch": 34,
              "velocity": 80,
              "position": 14.25,
              "duration": 0.23333333333333334
            },
            {
              "pitch": 34,
              "velocity": 80,
              "position": 14.75,
              "duration": 0.23958333333333334
            },
            {
              "pitch": 31,
              "velocity": 80,
              "position": 15,
              "duration": 0.4895833333333333
            },
            {
              "pitch": 34,
              "velocity": 80,
              "position": 15.5,
              "duration": 0.4895833333333333
            }
          ]
        },
        "3": {
          "ctab": {
            "srcChannel": 3,
            "name": "12st min",
            "accType": "CHORD1",
            "editable": false,
            "mutedNotes": [],
            "mutedChords": [
              "1+2+5",
              "sus4",
              "1+5",
              "1+8",
              "7aug",
              "Maj7aug",
              "7(#9)",
              "7(b13)",
              "7(b9)",
              "7(13)",
              "7#11",
              "7(9)",
              "7b5",
              "7sus4",
              "7th",
              "aug",
              "Maj6(9)",
              "Maj7(9)",
              "Maj(9)",
              "Maj7#11",
              "Maj7",
              "Maj6",
              "Maj"
            ],
            "autoStart": false,
            "sourceChordNote": 0,
            "sourceChordType": "min",
            "ctb2Low": null,
            "ctb2Main": {
              "ntr": "ROOT_TRANSPOSITION",
              "ntt": "BYPASS",
              "bassOn": false,
              "chordRootUpperLimit": 8,
              "noteLowLimit": 40,
              "noteHighLimit": 127,
              "rtr": "PITCH_SHIFT"
            },
            "ctb2High": null
          },
          "notes": [
            {
              "pitch": 36,
              "velocity": 72,
              "position": 0,
              "duration": 0.7395833333333334
            },
            {
              "pitch": 70,
              "velocity": 108,
              "position": 0.03125,
              "duration": 0.7083333333333334
            },
            {
              "pitch": 55,
              "velocity": 86,
              "position": 0,
              "duration": 0.7395833333333334
            },
            {
              "pitch": 60,
              "velocity": 106,
              "position": 0.010416666666666666,
              "duration": 0.7395833333333334
            },
            {
              "pitch": 63,
              "velocity": 109,
              "position": 0.020833333333333332,
              "duration": 0.9895833333333334
            },
            {
              "pitch": 70,
              "velocity": 90,
              "position": 0.75,
              "duration": 0.32708333333333334
            },
            {
              "pitch": 60,
              "velocity": 90,
              "position": 0.7708333333333334,
              "duration": 0.3125
            },
            {
              "pitch": 55,
              "velocity": 90,
              "position": 0.78125,
              "duration": 0.35
            },
            {
              "pitch": 36,
              "velocity": 76,
              "position": 0.7604166666666666,
              "duration": 0.59375
            },
            {
              "pitch": 63,
              "velocity": 51,
              "position": 1.25,
              "duration": 0.23958333333333334
            },
            {
              "pitch": 55,
              "velocity": 51,
              "position": 1.25,
              "duration": 0.23958333333333334
            },
            {
              "pitch": 55,
              "velocity": 82,
              "position": 1.5,
              "duration": 0.7395833333333334
            },
            {
              "pitch": 70,
              "velocity": 102,
              "position": 1.53125,
              "duration": 0.7083333333333334
            },
            {
              "pitch": 63,
              "velocity": 99,
              "position": 1.5208333333333333,
              "duration": 0.7291666666666666
            },
            {
              "pitch": 60,
              "velocity": 105,
              "position": 1.5104166666666667,
              "duration": 0.9895833333333334
            },
            {
              "pitch": 63,
              "velocity": 93,
              "position": 2.2604166666666665,
              "duration": 0.2833333333333333
            },
            {
              "pitch": 55,
              "velocity": 90,
              "position": 2.2708333333333335,
              "duration": 0.35
            },
            {
              "pitch": 36,
              "velocity": 78,
              "position": 1.5,
              "duration": 1.2395833333333333
            },
            {
              "pitch": 70,
              "velocity": 90,
              "position": 2.25,
              "duration": 0.7395833333333334
            },
            {
              "pitch": 36,
              "velocity": 66,
              "position": 2.75,
              "duration": 0.23958333333333334
            },
            {
              "pitch": 38,
              "velocity": 111,
              "position": 3,
              "duration": 0.23958333333333334
            },
            {
              "pitch": 39,
              "velocity": 99,
              "position": 3.25,
              "duration": 0.23958333333333334
            },
            {
              "pitch": 55,
              "velocity": 83,
              "position": 3,
              "duration": 0.9895833333333334
            },
            {
              "pitch": 36,
              "velocity": 96,
              "position": 3.5,
              "duration": 0.4895833333333333
            },
            {
              "pitch": 70,
              "velocity": 103,
              "position": 3.03125,
              "duration": 0.9583333333333334
            },
            {
              "pitch": 60,
              "velocity": 89,
              "position": 3.0104166666666665,
              "duration": 0.9895833333333334
            },
            {
              "pitch": 63,
              "velocity": 92,
              "position": 3.0208333333333335,
              "duration": 1.71875
            },
            {
              "pitch": 51,
              "velocity": 77,
              "position": 4,
              "duration": 0.7395833333333334
            },
            {
              "pitch": 60,
              "velocity": 95,
              "position": 4.010416666666667,
              "duration": 0.7395833333333334
            },
            {
              "pitch": 56,
              "velocity": 97,
              "position": 4.020833333333333,
              "duration": 0.7395833333333334
            },
            {
              "pitch": 63,
              "velocity": 90,
              "position": 4.75,
              "duration": 0.23958333333333334
            },
            {
              "pitch": 60,
              "velocity": 90,
              "position": 4.760416666666667,
              "duration": 0.325
            },
            {
              "pitch": 56,
              "velocity": 97,
              "position": 4.770833333333333,
              "duration": 0.3375
            },
            {
              "pitch": 68,
              "velocity": 110,
              "position": 4,
              "duration": 1.1770833333333333
            },
            {
              "pitch": 51,
              "velocity": 77,
              "position": 4.75,
              "duration": 0.55625
            },
            {
              "pitch": 63,
              "velocity": 51,
              "position": 5.25,
              "duration": 0.23958333333333334
            },
            {
              "pitch": 51,
              "velocity": 74,
              "position": 5.5,
              "duration": 0.7395833333333334
            },
            {
              "pitch": 56,
              "velocity": 104,
              "position": 5.5,
              "duration": 0.7395833333333334
            },
            {
              "pitch": 63,
              "velocity": 110,
              "position": 5.520833333333333,
              "duration": 0.7291666666666666
            },
            {
              "pitch": 68,
              "velocity": 102,
              "position": 5.510416666666667,
              "duration": 0.7395833333333334
            },
            {
              "pitch": 68,
              "velocity": 90,
              "position": 6.260416666666667,
              "duration": 0.23958333333333334
            },
            {
              "pitch": 56,
              "velocity": 90,
              "position": 6.270833333333333,
              "duration": 0.23958333333333334
            },
            {
              "pitch": 60,
              "velocity": 110,
              "position": 5.53125,
              "duration": 1.0625
            },
            {
              "pitch": 63,
              "velocity": 90,
              "position": 6.260416666666667,
              "duration": 0.35
            },
            {
              "pitch": 51,
              "velocity": 72,
              "position": 6.25,
              "duration": 0.4895833333333333
            },
            {
              "pitch": 44,
              "velocity": 77,
              "position": 4,
              "duration": 2.7395833333333335
            },
            {
              "pitch": 53,
              "velocity": 99,
              "position": 7.010416666666667,
              "duration": 0.42291666666666666
            },
            {
              "pitch": 46,
              "velocity": 70,
              "position": 7,
              "duration": 0.91875
            },
            {
              "pitch": 65,
              "velocity": 100,
              "position": 7.041666666666667,
              "duration": 0.9479166666666666
            },
            {
              "pitch": 53,
              "velocity": 77,
              "position": 7.510416666666667,
              "duration": 0.48541666666666666
            },
            {
              "pitch": 62,
              "velocity": 97,
              "position": 7.03125,
              "duration": 0.96875
            },
            {
              "pitch": 58,
              "velocity": 99,
              "position": 7.020833333333333,
              "duration": 0.9895833333333334
            },
            {
              "pitch": 70,
              "velocity": 103,
              "position": 8,
              "duration": 0.7395833333333334
            },
            {
              "pitch": 55,
              "velocity": 96,
              "position": 8.03125,
              "duration": 0.7083333333333334
            },
            {
              "pitch": 63,
              "velocity": 103,
              "position": 8.010416666666666,
              "duration": 0.7395833333333334
            },
            {
              "pitch": 60,
              "velocity": 99,
              "position": 8.020833333333334,
              "duration": 1.0625
            },
            {
              "pitch": 55,
              "velocity": 90,
              "position": 8.75,
              "duration": 0.35
            },
            {
              "pitch": 63,
              "velocity": 90,
              "position": 8.760416666666666,
              "duration": 0.375
            },
            {
              "pitch": 70,
              "velocity": 90,
              "position": 8.770833333333334,
              "duration": 0.4395833333333333
            },
            {
              "pitch": 36,
              "velocity": 76,
              "position": 8,
              "duration": 1.3333333333333333
            },
            {
              "pitch": 63,
              "velocity": 51,
              "position": 9.25,
              "duration": 0.23958333333333334
            },
            {
              "pitch": 36,
              "velocity": 78,
              "position": 9.5,
              "duration": 0.5979166666666667
            },
            {
              "pitch": 55,
              "velocity": 100,
              "position": 9.53125,
              "duration": 0.7083333333333334
            },
            {
              "pitch": 60,
              "velocity": 108,
              "position": 9.520833333333334,
              "duration": 0.7291666666666666
            },
            {
              "pitch": 60,
              "velocity": 90,
              "position": 10.260416666666666,
              "duration": 0.23958333333333334
            },
            {
              "pitch": 55,
              "velocity": 81,
              "position": 10.25,
              "duration": 0.3375
            },
            {
              "pitch": 63,
              "velocity": 108,
              "position": 9.510416666666666,
              "duration": 1.0875
            },
            {
              "pitch": 36,
              "velocity": 69,
              "position": 10.25,
              "duration": 0.4895833333333333
            },
            {
              "pitch": 70,
              "velocity": 96,
              "position": 9.5,
              "duration": 1.4895833333333333
            },
            {
              "pitch": 63,
              "velocity": 51,
              "position": 10.75,
              "duration": 0.23958333333333334
            },
            {
              "pitch": 55,
              "velocity": 51,
              "position": 10.75,
              "duration": 0.23958333333333334
            },
            {
              "pitch": 36,
              "velocity": 70,
              "position": 10.75,
              "duration": 0.23958333333333334
            },
            {
              "pitch": 38,
              "velocity": 111,
              "position": 11,
              "duration": 0.23958333333333334
            },
            {
              "pitch": 39,
              "velocity": 82,
              "position": 11.25,
              "duration": 0.23958333333333334
            },
            {
              "pitch": 55,
              "velocity": 83,
              "position": 11,
              "duration": 0.9895833333333334
            },
            {
              "pitch": 36,
              "velocity": 76,
              "position": 11.5,
              "duration": 0.4895833333333333
            },
            {
              "pitch": 63,
              "velocity": 103,
              "position": 11.020833333333334,
              "duration": 0.96875
            },
            {
              "pitch": 70,
              "velocity": 99,
              "position": 11.03125,
              "duration": 0.9583333333333334
            },
            {
              "pitch": 60,
              "velocity": 103,
              "position": 11.010416666666666,
              "duration": 0.9895833333333334
            },
            {
              "pitch": 51,
              "velocity": 77,
              "position": 12,
              "duration": 0.7395833333333334
            },
            {
              "pitch": 60,
              "velocity": 95,
              "position": 12.010416666666666,
              "duration": 0.7395833333333334
            },
            {
              "pitch": 56,
              "velocity": 97,
              "position": 12.020833333333334,
              "duration": 0.7395833333333334
            },
            {
              "pitch": 63,
              "velocity": 90,
              "position": 12,
              "duration": 0.9895833333333334
            },
            {
              "pitch": 60,
              "velocity": 90,
              "position": 12.760416666666666,
              "duration": 0.325
            },
            {
              "pitch": 56,
              "velocity": 97,
              "position": 12.770833333333334,
              "duration": 0.3375
            },
            {
              "pitch": 68,
              "velocity": 110,
              "position": 12,
              "duration": 1.1770833333333333
            },
            {
              "pitch": 51,
              "velocity": 77,
              "position": 12.75,
              "duration": 0.55625
            },
            {
              "pitch": 63,
              "velocity": 51,
              "position": 13.25,
              "duration": 0.23958333333333334
            },
            {
              "pitch": 44,
              "velocity": 77,
              "position": 12,
              "duration": 1.5
            },
            {
              "pitch": 53,
              "velocity": 74,
              "position": 13.5,
              "duration": 0.7395833333333334
            },
            {
              "pitch": 58,
              "velocity": 104,
              "position": 13.5,
              "duration": 0.7395833333333334
            },
            {
              "pitch": 65,
              "velocity": 110,
              "position": 13.520833333333334,
              "duration": 0.7291666666666666
            },
            {
              "pitch": 70,
              "velocity": 102,
              "position": 13.510416666666666,
              "duration": 0.7395833333333334
            },
            {
              "pitch": 70,
              "velocity": 90,
              "position": 14.260416666666666,
              "duration": 0.23958333333333334
            },
            {
              "pitch": 58,
              "velocity": 90,
              "position": 14.270833333333334,
              "duration": 0.23958333333333334
            },
            {
              "pitch": 62,
              "velocity": 110,
              "position": 13.53125,
              "duration": 1.0625
            },
            {
              "pitch": 65,
              "velocity": 90,
              "position": 14.260416666666666,
              "duration": 0.35
            },
            {
              "pitch": 53,
              "velocity": 72,
              "position": 14.25,
              "duration": 0.4895833333333333
            },
            {
              "pitch": 46,
              "velocity": 77,
              "position": 13.5,
              "duration": 1.2395833333333333
            },
            {
              "pitch": 46,
              "velocity": 70,
              "position": 15,
              "duration": 0.4895833333333333
            },
            {
              "pitch": 53,
              "velocity": 99,
              "position": 15.010416666666666,
              "duration": 0.4791666666666667
            },
            {
              "pitch": 46,
              "velocity": 70,
              "position": 15.5,
              "duration": 0.36041666666666666
            },
            {
              "pitch": 65,
              "velocity": 100,
              "position": 15.041666666666666,
              "duration": 0.9479166666666666
            },
            {
              "pitch": 70,
              "velocity": 100,
              "position": 15.041666666666666,
              "duration": 0.9479166666666666
            },
            {
              "pitch": 58,
              "velocity": 99,
              "position": 15.020833333333334,
              "duration": 0.96875
            },
            {
              "pitch": 53,
              "velocity": 77,
              "position": 15.510416666666666,
              "duration": 0.48541666666666666
            },
            {
              "pitch": 62,
              "velocity": 97,
              "position": 15.03125,
              "duration": 0.96875
            }
          ]
        },
        "5": {
          "ctab": {
            "srcChannel": 5,
            "name": "Strg min",
            "accType": "PAD",
            "editable": false,
            "mutedNotes": [],
            "mutedChords": [
              "1+2+5",
              "sus4",
              "1+5",
              "1+8",
              "7aug",
              "Maj7aug",
              "7(#9)",
              "7(b13)",
              "7(b9)",
              "7(13)",
              "7#11",
              "7(9)",
              "7b5",
              "7sus4",
              "7th",
              "aug",
              "Maj6(9)",
              "Maj7(9)",
              "Maj(9)",
              "Maj7#11",
              "Maj7",
              "Maj6",
              "Maj"
            ],
            "autoStart": false,
            "sourceChordNote": 0,
            "sourceChordType": "min",
            "ctb2Low": null,
            "ctb2Main": {
              "ntr": "ROOT_TRANSPOSITION",
              "ntt": "BYPASS",
              "bassOn": false,
              "chordRootUpperLimit": 7,
              "noteLowLimit": 0,
              "noteHighLimit": 79,
              "rtr": "PITCH_SHIFT"
            },
            "ctb2High": null
          },
          "notes": [
            {
              "pitch": 60,
              "velocity": 100,
              "position": 0.010416666666666666,
              "duration": 5.979166666666667
            },
            {
              "pitch": 72,
              "velocity": 100,
              "position": 0.010416666666666666,
              "duration": 5.979166666666667
            },
            {
              "pitch": 62,
              "velocity": 119,
              "position": 6,
              "duration": 1.9895833333333333
            },
            {
              "pitch": 74,
              "velocity": 119,
              "position": 6,
              "duration": 1.9895833333333333
            },
            {
              "pitch": 63,
              "velocity": 80,
              "position": 8,
              "duration": 5.5
            },
            {
              "pitch": 75,
              "velocity": 100,
              "position": 8,
              "duration": 5.5
            },
            {
              "pitch": 65,
              "velocity": 119,
              "position": 13.5,
              "duration": 2.4895833333333335
            },
            {
              "pitch": 77,
              "velocity": 119,
              "position": 13.5,
              "duration": 2.4895833333333335
            }
          ]
        },
        "6": {
          "ctab": {
            "srcChannel": 6,
            "name": "StGt min",
            "accType": "PHRASE2",
            "editable": false,
            "mutedNotes": [],
            "mutedChords": [
              "1+2+5",
              "sus4",
              "1+5",
              "1+8",
              "7aug",
              "Maj7aug",
              "7(#9)",
              "7(b13)",
              "7(b9)",
              "7(13)",
              "7#11",
              "7(9)",
              "7b5",
              "7sus4",
              "7th",
              "aug",
              "Maj6(9)",
              "Maj7(9)",
              "Maj(9)",
              "Maj7#11",
              "Maj7",
              "Maj6",
              "Maj"
            ],
            "autoStart": false,
            "sourceChordNote": 0,
            "sourceChordType": "min",
            "ctb2Low": null,
            "ctb2Main": {
              "ntr": "ROOT_TRANSPOSITION",
              "ntt": "BYPASS",
              "bassOn": false,
              "chordRootUpperLimit": 8,
              "noteLowLimit": 40,
              "noteHighLimit": 127,
              "rtr": "PITCH_SHIFT"
            },
            "ctb2High": null
          },
          "notes": [
            {
              "pitch": 63,
              "velocity": 118,
              "position": 0.03125,
              "duration": 0.7083333333333334
            },
            {
              "pitch": 60,
              "velocity": 107,
              "position": 0.020833333333333332,
              "duration": 0.7395833333333334
            },
            {
              "pitch": 63,
              "velocity": 107,
              "position": 0.75,
              "duration": 0.33958333333333335
            },
            {
              "pitch": 48,
              "velocity": 107,
              "position": 0,
              "duration": 1.0895833333333333
            },
            {
              "pitch": 55,
              "velocity": 107,
              "position": 0.010416666666666666,
              "duration": 1.0895833333333333
            },
            {
              "pitch": 60,
              "velocity": 107,
              "position": 0.78125,
              "duration": 0.33958333333333335
            },
            {
              "pitch": 55,
              "velocity": 107,
              "position": 1.53125,
              "duration": 0.7395833333333334
            },
            {
              "pitch": 63,
              "velocity": 107,
              "position": 1.5104166666666667,
              "duration": 1.0895833333333333
            },
            {
              "pitch": 55,
              "velocity": 107,
              "position": 2.28125,
              "duration": 0.33958333333333335
            },
            {
              "pitch": 60,
              "velocity": 107,
              "position": 1.5208333333333333,
              "duration": 1.1
            },
            {
              "pitch": 48,
              "velocity": 107,
              "position": 1.5,
              "duration": 2.4791666666666665
            },
            {
              "pitch": 63,
              "velocity": 107,
              "position": 3.03125,
              "duration": 0.9583333333333334
            },
            {
              "pitch": 60,
              "velocity": 107,
              "position": 3.0208333333333335,
              "duration": 0.96875
            },
            {
              "pitch": 55,
              "velocity": 107,
              "position": 3.0104166666666665,
              "duration": 0.9791666666666666
            },
            {
              "pitch": 51,
              "velocity": 107,
              "position": 4,
              "duration": 0.7395833333333334
            },
            {
              "pitch": 60,
              "velocity": 109,
              "position": 4,
              "duration": 0.7395833333333334
            },
            {
              "pitch": 63,
              "velocity": 116,
              "position": 4,
              "duration": 1.0895833333333333
            },
            {
              "pitch": 60,
              "velocity": 107,
              "position": 4.75,
              "duration": 0.33958333333333335
            },
            {
              "pitch": 51,
              "velocity": 107,
              "position": 4.75,
              "duration": 0.33958333333333335
            },
            {
              "pitch": 56,
              "velocity": 107,
              "position": 4.010416666666667,
              "duration": 1.0895833333333333
            },
            {
              "pitch": 63,
              "velocity": 107,
              "position": 5.510416666666667,
              "duration": 0.7291666666666666
            },
            {
              "pitch": 56,
              "velocity": 107,
              "position": 5.520833333333333,
              "duration": 0.7395833333333334
            },
            {
              "pitch": 63,
              "velocity": 107,
              "position": 6.25,
              "duration": 0.33958333333333335
            },
            {
              "pitch": 51,
              "velocity": 107,
              "position": 5.5,
              "duration": 1.0895833333333333
            },
            {
              "pitch": 44,
              "velocity": 109,
              "position": 4.03125,
              "duration": 2.589583333333333
            },
            {
              "pitch": 56,
              "velocity": 107,
              "position": 6.28125,
              "duration": 0.33958333333333335
            },
            {
              "pitch": 60,
              "velocity": 107,
              "position": 5.53125,
              "duration": 1.0895833333333333
            },
            {
              "pitch": 46,
              "velocity": 107,
              "position": 7,
              "duration": 0.9895833333333334
            },
            {
              "pitch": 62,
              "velocity": 107,
              "position": 7.03125,
              "duration": 0.9583333333333334
            },
            {
              "pitch": 58,
              "velocity": 107,
              "position": 7.03125,
              "duration": 0.9583333333333334
            },
            {
              "pitch": 65,
              "velocity": 107,
              "position": 7.020833333333333,
              "duration": 0.96875
            },
            {
              "pitch": 53,
              "velocity": 107,
              "position": 7.010416666666667,
              "duration": 0.9791666666666666
            },
            {
              "pitch": 63,
              "velocity": 107,
              "position": 8,
              "duration": 0.7395833333333334
            },
            {
              "pitch": 55,
              "velocity": 109,
              "position": 8.03125,
              "duration": 0.71875
            },
            {
              "pitch": 60,
              "velocity": 107,
              "position": 8.010416666666666,
              "duration": 1.0895833333333333
            },
            {
              "pitch": 55,
              "velocity": 119,
              "position": 8.760416666666666,
              "duration": 0.33958333333333335
            },
            {
              "pitch": 63,
              "velocity": 107,
              "position": 8.770833333333334,
              "duration": 0.33958333333333335
            },
            {
              "pitch": 63,
              "velocity": 107,
              "position": 9.5,
              "duration": 0.7395833333333334
            },
            {
              "pitch": 60,
              "velocity": 107,
              "position": 9.510416666666666,
              "duration": 0.7395833333333334
            },
            {
              "pitch": 48,
              "velocity": 107,
              "position": 8.020833333333334,
              "duration": 2.56875
            },
            {
              "pitch": 63,
              "velocity": 107,
              "position": 10.260416666666666,
              "duration": 0.33958333333333335
            },
            {
              "pitch": 60,
              "velocity": 107,
              "position": 10.270833333333334,
              "duration": 0.33958333333333335
            },
            {
              "pitch": 55,
              "velocity": 107,
              "position": 9.53125,
              "duration": 1.0895833333333333
            },
            {
              "pitch": 63,
              "velocity": 107,
              "position": 11,
              "duration": 0.9895833333333334
            },
            {
              "pitch": 48,
              "velocity": 107,
              "position": 11.010416666666666,
              "duration": 0.9791666666666666
            },
            {
              "pitch": 60,
              "velocity": 107,
              "position": 11.020833333333334,
              "duration": 0.96875
            },
            {
              "pitch": 55,
              "velocity": 107,
              "position": 11.03125,
              "duration": 0.96875
            },
            {
              "pitch": 51,
              "velocity": 107,
              "position": 12,
              "duration": 0.7395833333333334
            },
            {
              "pitch": 60,
              "velocity": 109,
              "position": 12,
              "duration": 0.7395833333333334
            },
            {
              "pitch": 63,
              "velocity": 116,
              "position": 12,
              "duration": 1.0895833333333333
            },
            {
              "pitch": 60,
              "velocity": 107,
              "position": 12.75,
              "duration": 0.33958333333333335
            },
            {
              "pitch": 51,
              "velocity": 107,
              "position": 12.75,
              "duration": 0.33958333333333335
            },
            {
              "pitch": 56,
              "velocity": 107,
              "position": 12.010416666666666,
              "duration": 1.0895833333333333
            },
            {
              "pitch": 44,
              "velocity": 109,
              "position": 12.03125,
              "duration": 1.46875
            },
            {
              "pitch": 65,
              "velocity": 107,
              "position": 13.510416666666666,
              "duration": 0.7291666666666666
            },
            {
              "pitch": 58,
              "velocity": 107,
              "position": 13.520833333333334,
              "duration": 0.7395833333333334
            },
            {
              "pitch": 65,
              "velocity": 107,
              "position": 14.25,
              "duration": 0.33958333333333335
            },
            {
              "pitch": 53,
              "velocity": 107,
              "position": 13.5,
              "duration": 1.0895833333333333
            },
            {
              "pitch": 46,
              "velocity": 109,
              "position": 13.5,
              "duration": 1.1208333333333333
            },
            {
              "pitch": 58,
              "velocity": 107,
              "position": 14.28125,
              "duration": 0.33958333333333335
            },
            {
              "pitch": 62,
              "velocity": 107,
              "position": 13.53125,
              "duration": 1.0895833333333333
            },
            {
              "pitch": 46,
              "velocity": 107,
              "position": 15,
              "duration": 0.4895833333333333
            },
            {
              "pitch": 46,
              "velocity": 107,
              "position": 15.5,
              "duration": 0.48125
            },
            {
              "pitch": 53,
              "velocity": 107,
              "position": 15.010416666666666,
              "duration": 0.9791666666666666
            },
            {
              "pitch": 58,
              "velocity": 107,
              "position": 15.03125,
              "duration": 0.9583333333333334
            },
            {
              "pitch": 65,
              "velocity": 107,
              "position": 15.020833333333334,
              "duration": 0.96875
            },
            {
              "pitch": 62,
              "velocity": 107,
              "position": 15.03125,
              "duration": 0.9583333333333334
            }
          ]
        },
        "7": {
          "ctab": {
            "srcChannel": 7,
            "name": "60s min",
            "accType": "PHRASE1",
            "editable": false,
            "mutedNotes": [],
            "mutedChords": [
              "1+2+5",
              "sus4",
              "1+5",
              "1+8",
              "7aug",
              "Maj7aug",
              "7(#9)",
              "7(b13)",
              "7(b9)",
              "7(13)",
              "7#11",
              "7(9)",
              "7b5",
              "7sus4",
              "7th",
              "aug",
              "Maj6(9)",
              "Maj7(9)",
              "Maj(9)",
              "Maj7#11",
              "Maj7",
              "Maj6",
              "Maj"
            ],
            "autoStart": false,
            "sourceChordNote": 0,
            "sourceChordType": "min",
            "ctb2Low": null,
            "ctb2Main": {
              "ntr": "ROOT_TRANSPOSITION",
              "ntt": "BYPASS",
              "bassOn": false,
              "chordRootUpperLimit": 8,
              "noteLowLimit": 0,
              "noteHighLimit": 127,
              "rtr": "PITCH_SHIFT"
            },
            "ctb2High": null
          },
          "notes": []
        },
        "8": {
          "ctab": {
            "srcChannel": 8,
            "name": "AddDrum",
            "accType": "SUBRHYTHM",
            "editable": false,
            "mutedNotes": [],
            "mutedChords": [],
            "autoStart": true,
            "sourceChordNote": 0,
            "sourceChordType": "Maj7",
            "ctb2Low": null,
            "ctb2Main": {
              "ntr": "ROOT_FIXED",
              "ntt": "BYPASS",
              "bassOn": false,
              "chordRootUpperLimit": 6,
              "noteLowLimit": 0,
              "noteHighLimit": 127,
              "rtr": "PITCH_SHIFT"
            },
            "ctb2High": null
          },
          "notes": [
            {
              "pitch": 82,
              "velocity": 72,
              "position": 0,
              "duration": 0.010416666666666666
            },
            {
              "pitch": 82,
              "velocity": 23,
              "position": 0.25,
              "duration": 0.010416666666666666
            },
            {
              "pitch": 82,
              "velocity": 40,
              "position": 0.5,
              "duration": 0.010416666666666666
            },
            {
              "pitch": 82,
              "velocity": 23,
              "position": 0.75,
              "duration": 0.010416666666666666
            },
            {
              "pitch": 82,
              "velocity": 72,
              "position": 1,
              "duration": 0.010416666666666666
            },
            {
              "pitch": 82,
              "velocity": 23,
              "position": 1.25,
              "duration": 0.010416666666666666
            },
            {
              "pitch": 82,
              "velocity": 40,
              "position": 1.5,
              "duration": 0.010416666666666666
            },
            {
              "pitch": 82,
              "velocity": 23,
              "position": 1.75,
              "duration": 0.010416666666666666
            },
            {
              "pitch": 82,
              "velocity": 72,
              "position": 2,
              "duration": 0.010416666666666666
            },
            {
              "pitch": 82,
              "velocity": 23,
              "position": 2.25,
              "duration": 0.010416666666666666
            },
            {
              "pitch": 82,
              "velocity": 40,
              "position": 2.5,
              "duration": 0.010416666666666666
            },
            {
              "pitch": 82,
              "velocity": 23,
              "position": 2.75,
              "duration": 0.010416666666666666
            },
            {
              "pitch": 82,
              "velocity": 72,
              "position": 3,
              "duration": 0.010416666666666666
            },
            {
              "pitch": 54,
              "velocity": 114,
              "position": 3,
              "duration": 0.020833333333333332
            },
            {
              "pitch": 82,
              "velocity": 23,
              "position": 3.25,
              "duration": 0.010416666666666666
            },
            {
              "pitch": 82,
              "velocity": 40,
              "position": 3.5,
              "duration": 0.010416666666666666
            },
            {
              "pitch": 82,
              "velocity": 23,
              "position": 3.75,
              "duration": 0.010416666666666666
            },
            {
              "pitch": 82,
              "velocity": 72,
              "position": 4,
              "duration": 0.010416666666666666
            },
            {
              "pitch": 82,
              "velocity": 23,
              "position": 4.25,
              "duration": 0.010416666666666666
            },
            {
              "pitch": 82,
              "velocity": 40,
              "position": 4.5,
              "duration": 0.010416666666666666
            },
            {
              "pitch": 82,
              "velocity": 23,
              "position": 4.75,
              "duration": 0.010416666666666666
            },
            {
              "pitch": 82,
              "velocity": 72,
              "position": 5,
              "duration": 0.010416666666666666
            },
            {
              "pitch": 82,
              "velocity": 23,
              "position": 5.25,
              "duration": 0.010416666666666666
            },
            {
              "pitch": 82,
              "velocity": 40,
              "position": 5.5,
              "duration": 0.010416666666666666
            },
            {
              "pitch": 82,
              "velocity": 23,
              "position": 5.75,
              "duration": 0.010416666666666666
            },
            {
              "pitch": 82,
              "velocity": 72,
              "position": 6,
              "duration": 0.010416666666666666
            },
            {
              "pitch": 82,
              "velocity": 23,
              "position": 6.25,
              "duration": 0.010416666666666666
            },
            {
              "pitch": 82,
              "velocity": 40,
              "position": 6.5,
              "duration": 0.010416666666666666
            },
            {
              "pitch": 82,
              "velocity": 23,
              "position": 6.75,
              "duration": 0.010416666666666666
            },
            {
              "pitch": 82,
              "velocity": 72,
              "position": 7,
              "duration": 0.010416666666666666
            },
            {
              "pitch": 54,
              "velocity": 114,
              "position": 7,
              "duration": 0.020833333333333332
            },
            {
              "pitch": 82,
              "velocity": 23,
              "position": 7.25,
              "duration": 0.010416666666666666
            },
            {
              "pitch": 82,
              "velocity": 40,
              "position": 7.5,
              "duration": 0.010416666666666666
            },
            {
              "pitch": 82,
              "velocity": 23,
              "position": 7.75,
              "duration": 0.010416666666666666
            },
            {
              "pitch": 82,
              "velocity": 72,
              "position": 8,
              "duration": 0.010416666666666666
            },
            {
              "pitch": 82,
              "velocity": 23,
              "position": 8.25,
              "duration": 0.010416666666666666
            },
            {
              "pitch": 82,
              "velocity": 40,
              "position": 8.5,
              "duration": 0.010416666666666666
            },
            {
              "pitch": 82,
              "velocity": 23,
              "position": 8.75,
              "duration": 0.010416666666666666
            },
            {
              "pitch": 82,
              "velocity": 72,
              "position": 9,
              "duration": 0.010416666666666666
            },
            {
              "pitch": 82,
              "velocity": 23,
              "position": 9.25,
              "duration": 0.010416666666666666
            },
            {
              "pitch": 82,
              "velocity": 40,
              "position": 9.5,
              "duration": 0.010416666666666666
            },
            {
              "pitch": 82,
              "velocity": 23,
              "position": 9.75,
              "duration": 0.010416666666666666
            },
            {
              "pitch": 82,
              "velocity": 72,
              "position": 10,
              "duration": 0.010416666666666666
            },
            {
              "pitch": 82,
              "velocity": 23,
              "position": 10.25,
              "duration": 0.010416666666666666
            },
            {
              "pitch": 82,
              "velocity": 40,
              "position": 10.5,
              "duration": 0.010416666666666666
            },
            {
              "pitch": 82,
              "velocity": 23,
              "position": 10.75,
              "duration": 0.010416666666666666
            },
            {
              "pitch": 82,
              "velocity": 72,
              "position": 11,
              "duration": 0.010416666666666666
            },
            {
              "pitch": 54,
              "velocity": 114,
              "position": 11,
              "duration": 0.020833333333333332
            },
            {
              "pitch": 82,
              "velocity": 23,
              "position": 11.25,
              "duration": 0.010416666666666666
            },
            {
              "pitch": 82,
              "velocity": 40,
              "position": 11.5,
              "duration": 0.010416666666666666
            },
            {
              "pitch": 82,
              "velocity": 23,
              "position": 11.75,
              "duration": 0.010416666666666666
            },
            {
              "pitch": 27,
              "velocity": 100,
              "position": 12,
              "duration": 0.010416666666666666
            },
            {
              "pitch": 82,
              "velocity": 72,
              "position": 12,
              "duration": 0.010416666666666666
            },
            {
              "pitch": 25,
              "velocity": 43,
              "position": 12.25,
              "duration": 0.010416666666666666
            },
            {
              "pitch": 82,
              "velocity": 23,
              "position": 12.25,
              "duration": 0.010416666666666666
            },
            {
              "pitch": 27,
              "velocity": 45,
              "position": 12.5,
              "duration": 0.010416666666666666
            },
            {
              "pitch": 82,
              "velocity": 40,
              "position": 12.5,
              "duration": 0.010416666666666666
            },
            {
              "pitch": 25,
              "velocity": 63,
              "position": 12.75,
              "duration": 0.010416666666666666
            },
            {
              "pitch": 82,
              "velocity": 23,
              "position": 12.75,
              "duration": 0.010416666666666666
            },
            {
              "pitch": 27,
              "velocity": 100,
              "position": 13,
              "duration": 0.010416666666666666
            },
            {
              "pitch": 82,
              "velocity": 72,
              "position": 13,
              "duration": 0.010416666666666666
            },
            {
              "pitch": 25,
              "velocity": 45,
              "position": 13.25,
              "duration": 0.010416666666666666
            },
            {
              "pitch": 82,
              "velocity": 23,
              "position": 13.25,
              "duration": 0.010416666666666666
            },
            {
              "pitch": 27,
              "velocity": 50,
              "position": 13.5,
              "duration": 0.010416666666666666
            },
            {
              "pitch": 82,
              "velocity": 40,
              "position": 13.5,
              "duration": 0.010416666666666666
            },
            {
              "pitch": 25,
              "velocity": 104,
              "position": 13.75,
              "duration": 0.010416666666666666
            },
            {
              "pitch": 82,
              "velocity": 23,
              "position": 13.75,
              "duration": 0.010416666666666666
            },
            {
              "pitch": 27,
              "velocity": 43,
              "position": 14,
              "duration": 0.010416666666666666
            },
            {
              "pitch": 82,
              "velocity": 72,
              "position": 14,
              "duration": 0.010416666666666666
            },
            {
              "pitch": 25,
              "velocity": 96,
              "position": 14.25,
              "duration": 0.010416666666666666
            },
            {
              "pitch": 82,
              "velocity": 23,
              "position": 14.25,
              "duration": 0.010416666666666666
            },
            {
              "pitch": 27,
              "velocity": 42,
              "position": 14.5,
              "duration": 0.010416666666666666
            },
            {
              "pitch": 82,
              "velocity": 40,
              "position": 14.5,
              "duration": 0.010416666666666666
            },
            {
              "pitch": 25,
              "velocity": 60,
              "position": 14.75,
              "duration": 0.010416666666666666
            },
            {
              "pitch": 82,
              "velocity": 23,
              "position": 14.75,
              "duration": 0.010416666666666666
            },
            {
              "pitch": 27,
              "velocity": 100,
              "position": 15,
              "duration": 0.010416666666666666
            },
            {
              "pitch": 82,
              "velocity": 72,
              "position": 15,
              "duration": 0.010416666666666666
            },
            {
              "pitch": 54,
              "velocity": 114,
              "position": 15,
              "duration": 0.020833333333333332
            },
            {
              "pitch": 25,
              "velocity": 48,
              "position": 15.25,
              "duration": 0.010416666666666666
            },
            {
              "pitch": 82,
              "velocity": 23,
              "position": 15.25,
              "duration": 0.010416666666666666
            },
            {
              "pitch": 27,
              "velocity": 46,
              "position": 15.5,
              "duration": 0.010416666666666666
            },
            {
              "pitch": 82,
              "velocity": 40,
              "position": 15.5,
              "duration": 0.010416666666666666
            },
            {
              "pitch": 25,
              "velocity": 46,
              "position": 15.75,
              "duration": 0.010416666666666666
            },
            {
              "pitch": 82,
              "velocity": 23,
              "position": 15.75,
              "duration": 0.010416666666666666
            }
          ]
        },
        "9": {
          "ctab": {
            "srcChannel": 9,
            "name": "MainDrum",
            "accType": "RHYTHM",
            "editable": false,
            "mutedNotes": [],
            "mutedChords": [],
            "autoStart": true,
            "sourceChordNote": 0,
            "sourceChordType": "Maj7",
            "ctb2Low": null,
            "ctb2Main": {
              "ntr": "ROOT_FIXED",
              "ntt": "BYPASS",
              "bassOn": false,
              "chordRootUpperLimit": 6,
              "noteLowLimit": 0,
              "noteHighLimit": 127,
              "rtr": "PITCH_SHIFT"
            },
            "ctb2High": null
          },
          "notes": [
            {
              "pitch": 36,
              "velocity": 98,
              "position": 12,
              "duration": 0.010416666666666666
            },
            {
              "pitch": 57,
              "velocity": 51,
              "position": 12,
              "duration": 0.010416666666666666
            },
            {
              "pitch": 40,
              "velocity": 31,
              "position": 12.25,
              "duration": 0.020833333333333332
            },
            {
              "pitch": 44,
              "velocity": 69,
              "position": 12.5,
              "duration": 0.010416666666666666
            },
            {
              "pitch": 47,
              "velocity": 71,
              "position": 12.5,
              "duration": 0.020833333333333332
            },
            {
              "pitch": 42,
              "velocity": 37,
              "position": 12.75,
              "duration": 0.010416666666666666
            },
            {
              "pitch": 40,
              "velocity": 31,
              "position": 12.75,
              "duration": 0.020833333333333332
            },
            {
              "pitch": 42,
              "velocity": 69,
              "position": 13,
              "duration": 0.010416666666666666
            },
            {
              "pitch": 40,
              "velocity": 87,
              "position": 13,
              "duration": 0.020833333333333332
            },
            {
              "pitch": 42,
              "velocity": 37,
              "position": 13.25,
              "duration": 0.010416666666666666
            },
            {
              "pitch": 45,
              "velocity": 71,
              "position": 13.25,
              "duration": 0.020833333333333332
            },
            {
              "pitch": 36,
              "velocity": 98,
              "position": 13.5,
              "duration": 0.010416666666666666
            },
            {
              "pitch": 44,
              "velocity": 69,
              "position": 13.5,
              "duration": 0.010416666666666666
            },
            {
              "pitch": 42,
              "velocity": 37,
              "position": 13.75,
              "duration": 0.010416666666666666
            },
            {
              "pitch": 40,
              "velocity": 31,
              "position": 13.75,
              "duration": 0.020833333333333332
            },
            {
              "pitch": 42,
              "velocity": 69,
              "position": 14,
              "duration": 0.010416666666666666
            },
            {
              "pitch": 43,
              "velocity": 71,
              "position": 14,
              "duration": 0.020833333333333332
            },
            {
              "pitch": 42,
              "velocity": 37,
              "position": 14.25,
              "duration": 0.010416666666666666
            },
            {
              "pitch": 40,
              "velocity": 31,
              "position": 14.25,
              "duration": 0.020833333333333332
            },
            {
              "pitch": 36,
              "velocity": 76,
              "position": 14.270833333333334,
              "duration": 0.010416666666666666
            },
            {
              "pitch": 36,
              "velocity": 79,
              "position": 14.5,
              "duration": 0.010416666666666666
            },
            {
              "pitch": 44,
              "velocity": 69,
              "position": 14.5,
              "duration": 0.010416666666666666
            },
            {
              "pitch": 40,
              "velocity": 22,
              "position": 14.625,
              "duration": 0.020833333333333332
            },
            {
              "pitch": 42,
              "velocity": 37,
              "position": 14.75,
              "duration": 0.010416666666666666
            },
            {
              "pitch": 40,
              "velocity": 29,
              "position": 14.75,
              "duration": 0.020833333333333332
            },
            {
              "pitch": 40,
              "velocity": 36,
              "position": 14.875,
              "duration": 0.020833333333333332
            },
            {
              "pitch": 42,
              "velocity": 69,
              "position": 15,
              "duration": 0.010416666666666666
            },
            {
              "pitch": 40,
              "velocity": 94,
              "position": 15,
              "duration": 0.020833333333333332
            },
            {
              "pitch": 42,
              "velocity": 37,
              "position": 15.25,
              "duration": 0.010416666666666666
            },
            {
              "pitch": 40,
              "velocity": 90,
              "position": 15.25,
              "duration": 0.020833333333333332
            },
            {
              "pitch": 46,
              "velocity": 50,
              "position": 15.5,
              "duration": 0.010416666666666666
            },
            {
              "pitch": 41,
              "velocity": 76,
              "position": 15.5,
              "duration": 0.020833333333333332
            },
            {
              "pitch": 40,
              "velocity": 48,
              "position": 15.75,
              "duration": 0.020833333333333332
            },
            {
              "pitch": 57,
              "velocity": 49,
              "position": 15.989583333333334,
              "duration": 0.010416666666666666
            }
          ]
        },
        "10": {
          "ctab": {
            "srcChannel": 10,
            "name": "Bass Maj",
            "accType": "BASS",
            "editable": false,
            "mutedNotes": [],
            "mutedChords": [
              "dim7",
              "dim",
              "minMaj7(9)",
              "minMaj7",
              "min7(11)",
              "min7(9)",
              "min(9)",
              "m7b5",
              "min7",
              "min6",
              "min"
            ],
            "autoStart": false,
            "sourceChordNote": 0,
            "sourceChordType": "Maj",
            "ctb2Low": null,
            "ctb2Main": {
              "ntr": "ROOT_TRANSPOSITION",
              "ntt": "BYPASS",
              "bassOn": false,
              "chordRootUpperLimit": 3,
              "noteLowLimit": 28,
              "noteHighLimit": 127,
              "rtr": "PITCH_SHIFT"
            },
            "ctb2High": null
          },
          "notes": [
            {
              "pitch": 36,
              "velocity": 80,
              "position": 0,
              "duration": 0.7395833333333334
            },
            {
              "pitch": 36,
              "velocity": 80,
              "position": 0.75,
              "duration": 0.13125
            },
            {
              "pitch": 36,
              "velocity": 84,
              "position": 1.25,
              "duration": 0.020833333333333332
            },
            {
              "pitch": 36,
              "velocity": 80,
              "position": 1.5,
              "duration": 0.7395833333333334
            },
            {
              "pitch": 36,
              "velocity": 80,
              "position": 2.25,
              "duration": 0.15208333333333332
            },
            {
              "pitch": 36,
              "velocity": 84,
              "position": 2.75,
              "duration": 0.020833333333333332
            },
            {
              "pitch": 38,
              "velocity": 80,
              "position": 3,
              "duration": 0.4895833333333333
            },
            {
              "pitch": 36,
              "velocity": 80,
              "position": 3.5,
              "duration": 0.4895833333333333
            },
            {
              "pitch": 29,
              "velocity": 80,
              "position": 4,
              "duration": 0.7395833333333334
            },
            {
              "pitch": 29,
              "velocity": 80,
              "position": 4.75,
              "duration": 0.19166666666666668
            },
            {
              "pitch": 29,
              "velocity": 84,
              "position": 5.25,
              "duration": 0.020833333333333332
            },
            {
              "pitch": 29,
              "velocity": 80,
              "position": 5.5,
              "duration": 0.7395833333333334
            },
            {
              "pitch": 29,
              "velocity": 80,
              "position": 6.25,
              "duration": 0.17083333333333334
            },
            {
              "pitch": 29,
              "velocity": 84,
              "position": 6.75,
              "duration": 0.020833333333333332
            },
            {
              "pitch": 41,
              "velocity": 80,
              "position": 7,
              "duration": 0.4895833333333333
            },
            {
              "pitch": 38,
              "velocity": 68,
              "position": 7.5,
              "duration": 0.4895833333333333
            },
            {
              "pitch": 36,
              "velocity": 80,
              "position": 8,
              "duration": 0.7395833333333334
            },
            {
              "pitch": 36,
              "velocity": 80,
              "position": 8.75,
              "duration": 0.19375
            },
            {
              "pitch": 36,
              "velocity": 84,
              "position": 9.25,
              "duration": 0.020833333333333332
            },
            {
              "pitch": 36,
              "velocity": 80,
              "position": 9.5,
              "duration": 0.7395833333333334
            },
            {
              "pitch": 36,
              "velocity": 80,
              "position": 10.25,
              "duration": 0.1875
            },
            {
              "pitch": 36,
              "velocity": 84,
              "position": 10.75,
              "duration": 0.020833333333333332
            },
            {
              "pitch": 38,
              "velocity": 80,
              "position": 11,
              "duration": 0.4895833333333333
            },
            {
              "pitch": 36,
              "velocity": 80,
              "position": 11.5,
              "duration": 0.4895833333333333
            },
            {
              "pitch": 29,
              "velocity": 80,
              "position": 12,
              "duration": 0.7395833333333334
            },
            {
              "pitch": 29,
              "velocity": 80,
              "position": 12.75,
              "duration": 0.20833333333333334
            },
            {
              "pitch": 29,
              "velocity": 84,
              "position": 13.25,
              "duration": 0.020833333333333332
            },
            {
              "pitch": 29,
              "velocity": 80,
              "position": 13.5,
              "duration": 0.7395833333333334
            },
            {
              "pitch": 29,
              "velocity": 80,
              "position": 14.25,
              "duration": 0.23333333333333334
            },
            {
              "pitch": 29,
              "velocity": 80,
              "position": 14.75,
              "duration": 0.23958333333333334
            },
            {
              "pitch": 31,
              "velocity": 80,
              "position": 15,
              "duration": 0.4895833333333333
            },
            {
              "pitch": 31,
              "velocity": 80,
              "position": 15.5,
              "duration": 0.4895833333333333
            }
          ]
        },
        "11": {
          "ctab": {
            "srcChannel": 11,
            "name": "12st Maj",
            "accType": "CHORD1",
            "editable": false,
            "mutedNotes": [],
            "mutedChords": [
              "dim7",
              "dim",
              "minMaj7(9)",
              "minMaj7",
              "min7(11)",
              "min7(9)",
              "min(9)",
              "m7b5",
              "min7",
              "min6",
              "min"
            ],
            "autoStart": false,
            "sourceChordNote": 0,
            "sourceChordType": "Maj",
            "ctb2Low": null,
            "ctb2Main": {
              "ntr": "ROOT_TRANSPOSITION",
              "ntt": "BYPASS",
              "bassOn": false,
              "chordRootUpperLimit": 8,
              "noteLowLimit": 40,
              "noteHighLimit": 127,
              "rtr": "PITCH_SHIFT"
            },
            "ctb2High": null
          },
          "notes": [
            {
              "pitch": 36,
              "velocity": 72,
              "position": 0,
              "duration": 0.7395833333333334
            },
            {
              "pitch": 67,
              "velocity": 108,
              "position": 0.03125,
              "duration": 0.7083333333333334
            },
            {
              "pitch": 55,
              "velocity": 86,
              "position": 0,
              "duration": 0.7395833333333334
            },
            {
              "pitch": 59,
              "velocity": 106,
              "position": 0.010416666666666666,
              "duration": 0.7395833333333334
            },
            {
              "pitch": 62,
              "velocity": 109,
              "position": 0.020833333333333332,
              "duration": 0.9895833333333334
            },
            {
              "pitch": 67,
              "velocity": 90,
              "position": 0.75,
              "duration": 0.32708333333333334
            },
            {
              "pitch": 59,
              "velocity": 90,
              "position": 0.7708333333333334,
              "duration": 0.3125
            },
            {
              "pitch": 55,
              "velocity": 90,
              "position": 0.78125,
              "duration": 0.35
            },
            {
              "pitch": 36,
              "velocity": 76,
              "position": 0.7604166666666666,
              "duration": 0.59375
            },
            {
              "pitch": 62,
              "velocity": 51,
              "position": 1.25,
              "duration": 0.23958333333333334
            },
            {
              "pitch": 55,
              "velocity": 51,
              "position": 1.25,
              "duration": 0.23958333333333334
            },
            {
              "pitch": 55,
              "velocity": 82,
              "position": 1.5,
              "duration": 0.7395833333333334
            },
            {
              "pitch": 67,
              "velocity": 102,
              "position": 1.53125,
              "duration": 0.7083333333333334
            },
            {
              "pitch": 62,
              "velocity": 99,
              "position": 1.5208333333333333,
              "duration": 0.7291666666666666
            },
            {
              "pitch": 59,
              "velocity": 105,
              "position": 1.5104166666666667,
              "duration": 0.9895833333333334
            },
            {
              "pitch": 62,
              "velocity": 93,
              "position": 2.2604166666666665,
              "duration": 0.2833333333333333
            },
            {
              "pitch": 55,
              "velocity": 90,
              "position": 2.2708333333333335,
              "duration": 0.35
            },
            {
              "pitch": 36,
              "velocity": 78,
              "position": 1.5,
              "duration": 1.2395833333333333
            },
            {
              "pitch": 67,
              "velocity": 90,
              "position": 2.25,
              "duration": 0.7395833333333334
            },
            {
              "pitch": 36,
              "velocity": 66,
              "position": 2.75,
              "duration": 0.23958333333333334
            },
            {
              "pitch": 38,
              "velocity": 111,
              "position": 3,
              "duration": 0.26458333333333334
            },
            {
              "pitch": 40,
              "velocity": 99,
              "position": 3.25,
              "duration": 0.23958333333333334
            },
            {
              "pitch": 67,
              "velocity": 103,
              "position": 3.03125,
              "duration": 0.9583333333333334
            },
            {
              "pitch": 36,
              "velocity": 96,
              "position": 3.5,
              "duration": 0.4895833333333333
            },
            {
              "pitch": 55,
              "velocity": 83,
              "position": 3,
              "duration": 0.9895833333333334
            },
            {
              "pitch": 59,
              "velocity": 89,
              "position": 3.0104166666666665,
              "duration": 0.9895833333333334
            },
            {
              "pitch": 62,
              "velocity": 92,
              "position": 3.0208333333333335,
              "duration": 1.71875
            },
            {
              "pitch": 41,
              "velocity": 77,
              "position": 4,
              "duration": 0.7395833333333334
            },
            {
              "pitch": 60,
              "velocity": 95,
              "position": 4.010416666666667,
              "duration": 0.7395833333333334
            },
            {
              "pitch": 55,
              "velocity": 97,
              "position": 4.020833333333333,
              "duration": 0.7395833333333334
            },
            {
              "pitch": 62,
              "velocity": 90,
              "position": 4.75,
              "duration": 0.23958333333333334
            },
            {
              "pitch": 60,
              "velocity": 90,
              "position": 4.760416666666667,
              "duration": 0.325
            },
            {
              "pitch": 55,
              "velocity": 97,
              "position": 4.770833333333333,
              "duration": 0.3375
            },
            {
              "pitch": 67,
              "velocity": 110,
              "position": 4,
              "duration": 1.1770833333333333
            },
            {
              "pitch": 41,
              "velocity": 77,
              "position": 4.75,
              "duration": 0.55625
            },
            {
              "pitch": 62,
              "velocity": 51,
              "position": 5.25,
              "duration": 0.23958333333333334
            },
            {
              "pitch": 41,
              "velocity": 74,
              "position": 5.5,
              "duration": 0.7395833333333334
            },
            {
              "pitch": 55,
              "velocity": 104,
              "position": 5.5,
              "duration": 0.7395833333333334
            },
            {
              "pitch": 62,
              "velocity": 110,
              "position": 5.520833333333333,
              "duration": 0.7291666666666666
            },
            {
              "pitch": 67,
              "velocity": 102,
              "position": 5.510416666666667,
              "duration": 0.7395833333333334
            },
            {
              "pitch": 67,
              "velocity": 90,
              "position": 6.260416666666667,
              "duration": 0.23958333333333334
            },
            {
              "pitch": 55,
              "velocity": 90,
              "position": 6.270833333333333,
              "duration": 0.23958333333333334
            },
            {
              "pitch": 60,
              "velocity": 110,
              "position": 5.53125,
              "duration": 1.0625
            },
            {
              "pitch": 62,
              "velocity": 90,
              "position": 6.260416666666667,
              "duration": 0.35
            },
            {
              "pitch": 41,
              "velocity": 72,
              "position": 6.25,
              "duration": 0.4895833333333333
            },
            {
              "pitch": 36,
              "velocity": 92,
              "position": 6.75,
              "duration": 0.23958333333333334
            },
            {
              "pitch": 41,
              "velocity": 104,
              "position": 7,
              "duration": 0.23958333333333334
            },
            {
              "pitch": 55,
              "velocity": 99,
              "position": 7.010416666666667,
              "duration": 0.42291666666666666
            },
            {
              "pitch": 40,
              "velocity": 83,
              "position": 7.25,
              "duration": 0.23958333333333334
            },
            {
              "pitch": 67,
              "velocity": 100,
              "position": 7.041666666666667,
              "duration": 0.9479166666666666
            },
            {
              "pitch": 38,
              "velocity": 93,
              "position": 7.5,
              "duration": 0.4895833333333333
            },
            {
              "pitch": 55,
              "velocity": 77,
              "position": 7.510416666666667,
              "duration": 0.48541666666666666
            },
            {
              "pitch": 62,
              "velocity": 97,
              "position": 7.03125,
              "duration": 0.96875
            },
            {
              "pitch": 60,
              "velocity": 99,
              "position": 7.020833333333333,
              "duration": 0.9895833333333334
            },
            {
              "pitch": 67,
              "velocity": 103,
              "position": 8,
              "duration": 0.7395833333333334
            },
            {
              "pitch": 55,
              "velocity": 96,
              "position": 8.03125,
              "duration": 0.7083333333333334
            },
            {
              "pitch": 62,
              "velocity": 103,
              "position": 8.010416666666666,
              "duration": 0.7395833333333334
            },
            {
              "pitch": 59,
              "velocity": 99,
              "position": 8.020833333333334,
              "duration": 1.0625
            },
            {
              "pitch": 55,
              "velocity": 90,
              "position": 8.75,
              "duration": 0.35
            },
            {
              "pitch": 62,
              "velocity": 90,
              "position": 8.760416666666666,
              "duration": 0.375
            },
            {
              "pitch": 67,
              "velocity": 90,
              "position": 8.770833333333334,
              "duration": 0.4395833333333333
            },
            {
              "pitch": 36,
              "velocity": 76,
              "position": 8,
              "duration": 1.3333333333333333
            },
            {
              "pitch": 62,
              "velocity": 51,
              "position": 9.25,
              "duration": 0.23958333333333334
            },
            {
              "pitch": 36,
              "velocity": 78,
              "position": 9.5,
              "duration": 0.5979166666666667
            },
            {
              "pitch": 55,
              "velocity": 100,
              "position": 9.53125,
              "duration": 0.7083333333333334
            },
            {
              "pitch": 59,
              "velocity": 108,
              "position": 9.520833333333334,
              "duration": 0.7291666666666666
            },
            {
              "pitch": 59,
              "velocity": 90,
              "position": 10.260416666666666,
              "duration": 0.23958333333333334
            },
            {
              "pitch": 55,
              "velocity": 81,
              "position": 10.25,
              "duration": 0.3375
            },
            {
              "pitch": 62,
              "velocity": 108,
              "position": 9.510416666666666,
              "duration": 1.0875
            },
            {
              "pitch": 36,
              "velocity": 69,
              "position": 10.25,
              "duration": 0.4895833333333333
            },
            {
              "pitch": 67,
              "velocity": 96,
              "position": 9.5,
              "duration": 1.4895833333333333
            },
            {
              "pitch": 62,
              "velocity": 51,
              "position": 10.75,
              "duration": 0.23958333333333334
            },
            {
              "pitch": 55,
              "velocity": 51,
              "position": 10.75,
              "duration": 0.23958333333333334
            },
            {
              "pitch": 36,
              "velocity": 70,
              "position": 10.75,
              "duration": 0.23958333333333334
            },
            {
              "pitch": 38,
              "velocity": 111,
              "position": 11,
              "duration": 0.23958333333333334
            },
            {
              "pitch": 40,
              "velocity": 82,
              "position": 11.25,
              "duration": 0.23958333333333334
            },
            {
              "pitch": 55,
              "velocity": 83,
              "position": 11,
              "duration": 0.9895833333333334
            },
            {
              "pitch": 36,
              "velocity": 76,
              "position": 11.5,
              "duration": 0.4895833333333333
            },
            {
              "pitch": 67,
              "velocity": 99,
              "position": 11.03125,
              "duration": 0.9583333333333334
            },
            {
              "pitch": 59,
              "velocity": 103,
              "position": 11.010416666666666,
              "duration": 0.9895833333333334
            },
            {
              "pitch": 62,
              "velocity": 103,
              "position": 11.020833333333334,
              "duration": 0.9895833333333334
            },
            {
              "pitch": 67,
              "velocity": 105,
              "position": 12,
              "duration": 0.7395833333333334
            },
            {
              "pitch": 62,
              "velocity": 110,
              "position": 12.03125,
              "duration": 0.7104166666666667
            },
            {
              "pitch": 41,
              "velocity": 72,
              "position": 12,
              "duration": 0.75
            },
            {
              "pitch": 55,
              "velocity": 105,
              "position": 12.010416666666666,
              "duration": 0.7395833333333334
            },
            {
              "pitch": 60,
              "velocity": 111,
              "position": 12.020833333333334,
              "duration": 1.46875
            },
            {
              "pitch": 41,
              "velocity": 72,
              "position": 12.770833333333334,
              "duration": 0.71875
            },
            {
              "pitch": 55,
              "velocity": 90,
              "position": 12.760416666666666,
              "duration": 0.7291666666666666
            },
            {
              "pitch": 67,
              "velocity": 90,
              "position": 12.75,
              "duration": 0.7395833333333334
            },
            {
              "pitch": 62,
              "velocity": 90,
              "position": 12.75,
              "duration": 0.7395833333333334
            },
            {
              "pitch": 55,
              "velocity": 106,
              "position": 13.5,
              "duration": 0.7395833333333334
            },
            {
              "pitch": 67,
              "velocity": 107,
              "position": 13.53125,
              "duration": 0.7083333333333334
            },
            {
              "pitch": 62,
              "velocity": 100,
              "position": 13.520833333333334,
              "duration": 0.7291666666666666
            },
            {
              "pitch": 62,
              "velocity": 94,
              "position": 14.260416666666666,
              "duration": 0.3020833333333333
            },
            {
              "pitch": 60,
              "velocity": 106,
              "position": 13.510416666666666,
              "duration": 1.0770833333333334
            },
            {
              "pitch": 41,
              "velocity": 67,
              "position": 13.5,
              "duration": 1.15625
            },
            {
              "pitch": 55,
              "velocity": 89,
              "position": 14.270833333333334,
              "duration": 0.4166666666666667
            },
            {
              "pitch": 67,
              "velocity": 99,
              "position": 14.25,
              "duration": 0.7395833333333334
            },
            {
              "pitch": 55,
              "velocity": 51,
              "position": 14.75,
              "duration": 0.23958333333333334
            },
            {
              "pitch": 62,
              "velocity": 51,
              "position": 14.770833333333334,
              "duration": 0.23958333333333334
            },
            {
              "pitch": 62,
              "velocity": 94,
              "position": 15.020833333333334,
              "duration": 0.9583333333333334
            },
            {
              "pitch": 55,
              "velocity": 99,
              "position": 15,
              "duration": 0.9895833333333334
            },
            {
              "pitch": 41,
              "velocity": 91,
              "position": 15,
              "duration": 0.9895833333333334
            },
            {
              "pitch": 60,
              "velocity": 97,
              "position": 15.010416666666666,
              "duration": 0.9895833333333334
            },
            {
              "pitch": 67,
              "velocity": 108,
              "position": 15.03125,
              "duration": 0.96875
            }
          ]
        },
        "12": {
          "ctab": {
            "srcChannel": 12,
            "name": "Mute",
            "accType": "CHORD2",
            "editable": false,
            "mutedNotes": [],
            "mutedChords": [],
            "autoStart": false,
            "sourceChordNote": 0,
            "sourceChordType": "Maj",
            "ctb2Low": null,
            "ctb2Main": {
              "ntr": "ROOT_TRANSPOSITION",
              "ntt": "HARMONIC_MINOR",
              "bassOn": false,
              "chordRootUpperLimit": 7,
              "noteLowLimit": 40,
              "noteHighLimit": 127,
              "rtr": "PITCH_SHIFT"
            },
            "ctb2High": null
          },
          "notes": [
            {
              "pitch": 48,
              "velocity": 78,
              "position": 0.75,
              "duration": 0.20833333333333334
            },
            {
              "pitch": 48,
              "velocity": 77,
              "position": 1.25,
              "duration": 0.22083333333333333
            },
            {
              "pitch": 48,
              "velocity": 77,
              "position": 1.75,
              "duration": 0.1875
            },
            {
              "pitch": 48,
              "velocity": 32,
              "position": 2,
              "duration": 0.125
            },
            {
              "pitch": 48,
              "velocity": 32,
              "position": 2.25,
              "duration": 0.13958333333333334
            },
            {
              "pitch": 48,
              "velocity": 76,
              "position": 2.5,
              "duration": 0.17708333333333334
            },
            {
              "pitch": 48,
              "velocity": 78,
              "position": 3,
              "duration": 0.2604166666666667
            },
            {
              "pitch": 48,
              "velocity": 78,
              "position": 4.75,
              "duration": 0.20833333333333334
            },
            {
              "pitch": 48,
              "velocity": 77,
              "position": 5.25,
              "duration": 0.22083333333333333
            },
            {
              "pitch": 48,
              "velocity": 77,
              "position": 5.75,
              "duration": 0.1875
            },
            {
              "pitch": 48,
              "velocity": 32,
              "position": 6,
              "duration": 0.125
            },
            {
              "pitch": 48,
              "velocity": 32,
              "position": 6.25,
              "duration": 0.13958333333333334
            },
            {
              "pitch": 48,
              "velocity": 76,
              "position": 6.5,
              "duration": 0.17708333333333334
            },
            {
              "pitch": 48,
              "velocity": 78,
              "position": 8.75,
              "duration": 0.20833333333333334
            },
            {
              "pitch": 48,
              "velocity": 77,
              "position": 9.25,
              "duration": 0.22083333333333333
            },
            {
              "pitch": 48,
              "velocity": 77,
              "position": 9.75,
              "duration": 0.1875
            },
            {
              "pitch": 48,
              "velocity": 32,
              "position": 10,
              "duration": 0.125
            },
            {
              "pitch": 48,
              "velocity": 32,
              "position": 10.25,
              "duration": 0.13958333333333334
            },
            {
              "pitch": 48,
              "velocity": 76,
              "position": 10.5,
              "duration": 0.17708333333333334
            },
            {
              "pitch": 48,
              "velocity": 78,
              "position": 11,
              "duration": 0.2604166666666667
            },
            {
              "pitch": 48,
              "velocity": 78,
              "position": 12.75,
              "duration": 0.20833333333333334
            },
            {
              "pitch": 48,
              "velocity": 77,
              "position": 13.25,
              "duration": 0.22083333333333333
            },
            {
              "pitch": 48,
              "velocity": 77,
              "position": 13.75,
              "duration": 0.1875
            },
            {
              "pitch": 48,
              "velocity": 32,
              "position": 14,
              "duration": 0.125
            },
            {
              "pitch": 48,
              "velocity": 32,
              "position": 14.25,
              "duration": 0.13958333333333334
            },
            {
              "pitch": 48,
              "velocity": 76,
              "position": 14.5,
              "duration": 0.17708333333333334
            }
          ]
        },
        "13": {
          "ctab": {
            "srcChannel": 13,
            "name": "Strg Maj",
            "accType": "PAD",
            "editable": false,
            "mutedNotes": [],
            "mutedChords": [
              "dim7",
              "dim",
              "minMaj7(9)",
              "minMaj7",
              "min7(11)",
              "min7(9)",
              "min(9)",
              "m7b5",
              "min7",
              "min6",
              "min"
            ],
            "autoStart": false,
            "sourceChordNote": 0,
            "sourceChordType": "Maj",
            "ctb2Low": null,
            "ctb2Main": {
              "ntr": "ROOT_TRANSPOSITION",
              "ntt": "BYPASS",
              "bassOn": false,
              "chordRootUpperLimit": 6,
              "noteLowLimit": 0,
              "noteHighLimit": 79,
              "rtr": "PITCH_SHIFT"
            },
            "ctb2High": null
          },
          "notes": [
            {
              "pitch": 59,
              "velocity": 96,
              "position": 0,
              "duration": 4.0125
            },
            {
              "pitch": 71,
              "velocity": 100,
              "position": 0,
              "duration": 4.0125
            },
            {
              "pitch": 60,
              "velocity": 96,
              "position": 4,
              "duration": 4.0125
            },
            {
              "pitch": 72,
              "velocity": 100,
              "position": 4,
              "duration": 4.0125
            },
            {
              "pitch": 62,
              "velocity": 96,
              "position": 8,
              "duration": 4.0125
            },
            {
              "pitch": 74,
              "velocity": 100,
              "position": 8,
              "duration": 4.0125
            },
            {
              "pitch": 60,
              "velocity": 96,
              "position": 12,
              "duration": 3.9895833333333335
            },
            {
              "pitch": 72,
              "velocity": 100,
              "position": 12,
              "duration": 3.9895833333333335
            }
          ]
        },
        "14": {
          "ctab": {
            "srcChannel": 14,
            "name": "StGt Maj",
            "accType": "PHRASE2",
            "editable": false,
            "mutedNotes": [],
            "mutedChords": [
              "dim7",
              "dim",
              "minMaj7(9)",
              "minMaj7",
              "min7(11)",
              "min7(9)",
              "min(9)",
              "m7b5",
              "min7",
              "min6",
              "min"
            ],
            "autoStart": false,
            "sourceChordNote": 0,
            "sourceChordType": "Maj",
            "ctb2Low": null,
            "ctb2Main": {
              "ntr": "ROOT_TRANSPOSITION",
              "ntt": "BYPASS",
              "bassOn": false,
              "chordRootUpperLimit": 9,
              "noteLowLimit": 40,
              "noteHighLimit": 127,
              "rtr": "PITCH_SHIFT"
            },
            "ctb2High": null
          },
          "notes": [
            {
              "pitch": 62,
              "velocity": 118,
              "position": 0.03125,
              "duration": 0.7083333333333334
            },
            {
              "pitch": 59,
              "velocity": 107,
              "position": 0.020833333333333332,
              "duration": 0.7395833333333334
            },
            {
              "pitch": 62,
              "velocity": 107,
              "position": 0.75,
              "duration": 0.33958333333333335
            },
            {
              "pitch": 48,
              "velocity": 107,
              "position": 0,
              "duration": 1.0895833333333333
            },
            {
              "pitch": 55,
              "velocity": 107,
              "position": 0.010416666666666666,
              "duration": 1.0895833333333333
            },
            {
              "pitch": 59,
              "velocity": 107,
              "position": 0.78125,
              "duration": 0.33958333333333335
            },
            {
              "pitch": 55,
              "velocity": 107,
              "position": 1.53125,
              "duration": 0.7395833333333334
            },
            {
              "pitch": 62,
              "velocity": 107,
              "position": 1.5104166666666667,
              "duration": 1.0895833333333333
            },
            {
              "pitch": 55,
              "velocity": 107,
              "position": 2.28125,
              "duration": 0.33958333333333335
            },
            {
              "pitch": 59,
              "velocity": 107,
              "position": 1.5208333333333333,
              "duration": 1.1
            },
            {
              "pitch": 62,
              "velocity": 107,
              "position": 3.03125,
              "duration": 0.9583333333333334
            },
            {
              "pitch": 55,
              "velocity": 107,
              "position": 3.0104166666666665,
              "duration": 0.9895833333333334
            },
            {
              "pitch": 59,
              "velocity": 107,
              "position": 3.0208333333333335,
              "duration": 0.9895833333333334
            },
            {
              "pitch": 48,
              "velocity": 107,
              "position": 1.5,
              "duration": 3.2395833333333335
            },
            {
              "pitch": 60,
              "velocity": 109,
              "position": 4,
              "duration": 0.7395833333333334
            },
            {
              "pitch": 62,
              "velocity": 116,
              "position": 4,
              "duration": 1.0895833333333333
            },
            {
              "pitch": 60,
              "velocity": 107,
              "position": 4.75,
              "duration": 0.33958333333333335
            },
            {
              "pitch": 48,
              "velocity": 107,
              "position": 4.75,
              "duration": 0.33958333333333335
            },
            {
              "pitch": 55,
              "velocity": 107,
              "position": 4.010416666666667,
              "duration": 1.0895833333333333
            },
            {
              "pitch": 62,
              "velocity": 107,
              "position": 5.510416666666667,
              "duration": 0.7291666666666666
            },
            {
              "pitch": 55,
              "velocity": 107,
              "position": 5.520833333333333,
              "duration": 0.7395833333333334
            },
            {
              "pitch": 62,
              "velocity": 107,
              "position": 6.25,
              "duration": 0.33958333333333335
            },
            {
              "pitch": 48,
              "velocity": 107,
              "position": 5.5,
              "duration": 1.0895833333333333
            },
            {
              "pitch": 41,
              "velocity": 109,
              "position": 4.03125,
              "duration": 2.589583333333333
            },
            {
              "pitch": 55,
              "velocity": 107,
              "position": 6.28125,
              "duration": 0.33958333333333335
            },
            {
              "pitch": 60,
              "velocity": 107,
              "position": 5.53125,
              "duration": 1.0895833333333333
            },
            {
              "pitch": 41,
              "velocity": 107,
              "position": 7,
              "duration": 0.9895833333333334
            },
            {
              "pitch": 62,
              "velocity": 107,
              "position": 7.020833333333333,
              "duration": 0.96875
            },
            {
              "pitch": 48,
              "velocity": 107,
              "position": 7.010416666666667,
              "duration": 0.9895833333333334
            },
            {
              "pitch": 60,
              "velocity": 107,
              "position": 7.03125,
              "duration": 0.9895833333333334
            },
            {
              "pitch": 55,
              "velocity": 107,
              "position": 7.03125,
              "duration": 0.9895833333333334
            },
            {
              "pitch": 62,
              "velocity": 107,
              "position": 8,
              "duration": 0.7395833333333334
            },
            {
              "pitch": 55,
              "velocity": 109,
              "position": 8.03125,
              "duration": 0.71875
            },
            {
              "pitch": 59,
              "velocity": 107,
              "position": 8.010416666666666,
              "duration": 1.0895833333333333
            },
            {
              "pitch": 55,
              "velocity": 119,
              "position": 8.760416666666666,
              "duration": 0.33958333333333335
            },
            {
              "pitch": 62,
              "velocity": 107,
              "position": 8.770833333333334,
              "duration": 0.33958333333333335
            },
            {
              "pitch": 62,
              "velocity": 107,
              "position": 9.5,
              "duration": 0.7395833333333334
            },
            {
              "pitch": 59,
              "velocity": 107,
              "position": 9.510416666666666,
              "duration": 0.7395833333333334
            },
            {
              "pitch": 48,
              "velocity": 107,
              "position": 8.020833333333334,
              "duration": 2.56875
            },
            {
              "pitch": 62,
              "velocity": 107,
              "position": 10.260416666666666,
              "duration": 0.33958333333333335
            },
            {
              "pitch": 59,
              "velocity": 107,
              "position": 10.270833333333334,
              "duration": 0.33958333333333335
            },
            {
              "pitch": 55,
              "velocity": 107,
              "position": 9.53125,
              "duration": 1.0895833333333333
            },
            {
              "pitch": 62,
              "velocity": 107,
              "position": 11,
              "duration": 0.9895833333333334
            },
            {
              "pitch": 48,
              "velocity": 107,
              "position": 11.010416666666666,
              "duration": 0.9791666666666666
            },
            {
              "pitch": 59,
              "velocity": 107,
              "position": 11.020833333333334,
              "duration": 0.9895833333333334
            },
            {
              "pitch": 55,
              "velocity": 107,
              "position": 11.03125,
              "duration": 0.9791666666666666
            },
            {
              "pitch": 48,
              "velocity": 107,
              "position": 12,
              "duration": 0.7395833333333334
            },
            {
              "pitch": 62,
              "velocity": 107,
              "position": 12.010416666666666,
              "duration": 0.7291666666666666
            },
            {
              "pitch": 60,
              "velocity": 107,
              "position": 12.03125,
              "duration": 0.71875
            },
            {
              "pitch": 48,
              "velocity": 107,
              "position": 12.75,
              "duration": 0.33958333333333335
            },
            {
              "pitch": 62,
              "velocity": 107,
              "position": 12.75,
              "duration": 0.33958333333333335
            },
            {
              "pitch": 60,
              "velocity": 111,
              "position": 12.760416666666666,
              "duration": 0.33958333333333335
            },
            {
              "pitch": 55,
              "velocity": 107,
              "position": 12.020833333333334,
              "duration": 1.0895833333333333
            },
            {
              "pitch": 62,
              "velocity": 107,
              "position": 13.5,
              "duration": 0.7395833333333334
            },
            {
              "pitch": 48,
              "velocity": 107,
              "position": 13.53125,
              "duration": 0.7083333333333334
            },
            {
              "pitch": 55,
              "velocity": 107,
              "position": 13.520833333333334,
              "duration": 0.7291666666666666
            },
            {
              "pitch": 60,
              "velocity": 107,
              "position": 13.510416666666666,
              "duration": 0.7395833333333334
            },
            {
              "pitch": 41,
              "velocity": 107,
              "position": 12,
              "duration": 2.589583333333333
            },
            {
              "pitch": 48,
              "velocity": 107,
              "position": 14.25,
              "duration": 0.33958333333333335
            },
            {
              "pitch": 55,
              "velocity": 108,
              "position": 14.260416666666666,
              "duration": 0.33958333333333335
            },
            {
              "pitch": 60,
              "velocity": 110,
              "position": 14.270833333333334,
              "duration": 0.33958333333333335
            },
            {
              "pitch": 62,
              "velocity": 107,
              "position": 14.28125,
              "duration": 0.33958333333333335
            },
            {
              "pitch": 62,
              "velocity": 112,
              "position": 15,
              "duration": 0.9895833333333334
            },
            {
              "pitch": 48,
              "velocity": 107,
              "position": 15.03125,
              "duration": 0.9583333333333334
            },
            {
              "pitch": 41,
              "velocity": 107,
              "position": 15.03125,
              "duration": 0.9583333333333334
            },
            {
              "pitch": 55,
              "velocity": 110,
              "position": 15.020833333333334,
              "duration": 0.9791666666666666
            },
            {
              "pitch": 60,
              "velocity": 111,
              "position": 15.010416666666666,
              "duration": 0.9895833333333334
            }
          ]
        },
        "15": {
          "ctab": {
            "srcChannel": 15,
            "name": "60s Maj",
            "accType": "PHRASE1",
            "editable": false,
            "mutedNotes": [],
            "mutedChords": [
              "dim7",
              "dim",
              "minMaj7(9)",
              "minMaj7",
              "min7(11)",
              "min7(9)",
              "min(9)",
              "m7b5",
              "min7",
              "min6",
              "min"
            ],
            "autoStart": false,
            "sourceChordNote": 0,
            "sourceChordType": "Maj",
            "ctb2Low": null,
            "ctb2Main": {
              "ntr": "ROOT_TRANSPOSITION",
              "ntt": "BYPASS",
              "bassOn": false,
              "chordRootUpperLimit": 8,
              "noteLowLimit": 0,
              "noteHighLimit": 127,
              "rtr": "PITCH_SHIFT"
            },
            "ctb2High": null
          },
          "notes": [
            {
              "pitch": 55,
              "velocity": 80,
              "position": 0,
              "duration": 1.2416666666666667
            },
            {
              "pitch": 59,
              "velocity": 82,
              "position": 0.5,
              "duration": 1.2416666666666667
            },
            {
              "pitch": 67,
              "velocity": 82,
              "position": 0.75,
              "duration": 1.4916666666666667
            },
            {
              "pitch": 55,
              "velocity": 80,
              "position": 1.25,
              "duration": 1.7416666666666667
            },
            {
              "pitch": 59,
              "velocity": 76,
              "position": 1.75,
              "duration": 2.7416666666666667
            },
            {
              "pitch": 67,
              "velocity": 80,
              "position": 2.25,
              "duration": 2.4916666666666667
            },
            {
              "pitch": 55,
              "velocity": 80,
              "position": 3,
              "duration": 2.2416666666666667
            },
            {
              "pitch": 60,
              "velocity": 82,
              "position": 4.5,
              "duration": 1.2416666666666667
            },
            {
              "pitch": 67,
              "velocity": 82,
              "position": 4.75,
              "duration": 1.4916666666666667
            },
            {
              "pitch": 55,
              "velocity": 80,
              "position": 5.25,
              "duration": 2.7416666666666667
            },
            {
              "pitch": 60,
              "velocity": 82,
              "position": 5.75,
              "duration": 2.7416666666666667
            },
            {
              "pitch": 67,
              "velocity": 76,
              "position": 6.25,
              "duration": 2.4916666666666667
            },
            {
              "pitch": 55,
              "velocity": 80,
              "position": 8,
              "duration": 1.2416666666666667
            },
            {
              "pitch": 59,
              "velocity": 82,
              "position": 8.5,
              "duration": 1.2416666666666667
            },
            {
              "pitch": 67,
              "velocity": 82,
              "position": 8.75,
              "duration": 1.4916666666666667
            },
            {
              "pitch": 55,
              "velocity": 80,
              "position": 9.25,
              "duration": 1.7416666666666667
            },
            {
              "pitch": 55,
              "velocity": 80,
              "position": 11,
              "duration": 0.6395833333333333
            },
            {
              "pitch": 59,
              "velocity": 76,
              "position": 9.75,
              "duration": 2.0375
            },
            {
              "pitch": 67,
              "velocity": 78,
              "position": 10.25,
              "duration": 1.81875
            },
            {
              "pitch": 67,
              "velocity": 82,
              "position": 12.077083333333333,
              "duration": 3.2708333333333335
            },
            {
              "pitch": 62,
              "velocity": 76,
              "position": 11.910416666666666,
              "duration": 3.4458333333333333
            },
            {
              "pitch": 60,
              "velocity": 76,
              "position": 11.795833333333333,
              "duration": 3.591666666666667
            },
            {
              "pitch": 55,
              "velocity": 80,
              "position": 11.647916666666667,
              "duration": 3.7625
            }
          ]
        }
      }
    },
    "Ending_B": {
      "type": "Ending_B",
      "sizeInBeats": 8,
      "channels": {
        "1": {
          "ctab": {
            "srcChannel": 1,
            "name": "12st SFX",
            "accType": "CHORD1",
            "editable": false,
            "mutedNotes": [],
            "mutedChords": [],
            "autoStart": false,
            "sourceChordNote": 0,
            "sourceChordType": "Maj7",
            "ctb2Low": null,
            "ctb2Main": {
              "ntr": "ROOT_FIXED",
              "ntt": "BYPASS",
              "bassOn": false,
              "chordRootUpperLimit": 7,
              "noteLowLimit": 0,
              "noteHighLimit": 127,
              "rtr": "PITCH_SHIFT"
            },
            "ctb2High": null
          },
          "notes": [
            {
              "pitch": 34,
              "velocity": 73,
              "position": 0,
              "duration": 0.041666666666666664
            },
            {
              "pitch": 36,
              "velocity": 73,
              "position": 0,
              "duration": 0.041666666666666664
            },
            {
              "pitch": 34,
              "velocity": 73,
              "position": 0.75,
              "duration": 0.041666666666666664
            },
            {
              "pitch": 38,
              "velocity": 73,
              "position": 0.75,
              "duration": 0.041666666666666664
            },
            {
              "pitch": 36,
              "velocity": 73,
              "position": 0.75,
              "duration": 0.041666666666666664
            },
            {
              "pitch": 34,
              "velocity": 70,
              "position": 1.25,
              "duration": 0.041666666666666664
            },
            {
              "pitch": 36,
              "velocity": 70,
              "position": 1.25,
              "duration": 0.041666666666666664
            },
            {
              "pitch": 34,
              "velocity": 70,
              "position": 1.5,
              "duration": 0.041666666666666664
            },
            {
              "pitch": 39,
              "velocity": 70,
              "position": 1.5,
              "duration": 0.041666666666666664
            },
            {
              "pitch": 36,
              "velocity": 70,
              "position": 1.5,
              "duration": 0.041666666666666664
            },
            {
              "pitch": 34,
              "velocity": 70,
              "position": 2.25,
              "duration": 0.041666666666666664
            },
            {
              "pitch": 39,
              "velocity": 70,
              "position": 2.25,
              "duration": 0.041666666666666664
            },
            {
              "pitch": 36,
              "velocity": 70,
              "position": 2.25,
              "duration": 0.041666666666666664
            },
            {
              "pitch": 34,
              "velocity": 70,
              "position": 2.75,
              "duration": 0.041666666666666664
            },
            {
              "pitch": 36,
              "velocity": 70,
              "position": 2.75,
              "duration": 0.041666666666666664
            },
            {
              "pitch": 34,
              "velocity": 70,
              "position": 3,
              "duration": 0.041666666666666664
            },
            {
              "pitch": 39,
              "velocity": 70,
              "position": 3,
              "duration": 0.041666666666666664
            },
            {
              "pitch": 36,
              "velocity": 70,
              "position": 3,
              "duration": 0.041666666666666664
            },
            {
              "pitch": 34,
              "velocity": 73,
              "position": 4,
              "duration": 0.041666666666666664
            },
            {
              "pitch": 39,
              "velocity": 73,
              "position": 4,
              "duration": 0.041666666666666664
            },
            {
              "pitch": 36,
              "velocity": 73,
              "position": 4,
              "duration": 0.041666666666666664
            }
          ]
        },
        "2": {
          "ctab": {
            "srcChannel": 2,
            "name": "Bass min",
            "accType": "BASS",
            "editable": false,
            "mutedNotes": [],
            "mutedChords": [
              "1+2+5",
              "sus4",
              "1+5",
              "1+8",
              "7aug",
              "Maj7aug",
              "7(#9)",
              "7(b13)",
              "7(b9)",
              "7(13)",
              "7#11",
              "7(9)",
              "7b5",
              "7sus4",
              "7th",
              "aug",
              "Maj6(9)",
              "Maj7(9)",
              "Maj(9)",
              "Maj7#11",
              "Maj7",
              "Maj6",
              "Maj"
            ],
            "autoStart": false,
            "sourceChordNote": 0,
            "sourceChordType": "min",
            "ctb2Low": null,
            "ctb2Main": {
              "ntr": "ROOT_TRANSPOSITION",
              "ntt": "BYPASS",
              "bassOn": false,
              "chordRootUpperLimit": 3,
              "noteLowLimit": 28,
              "noteHighLimit": 127,
              "rtr": "PITCH_SHIFT"
            },
            "ctb2High": null
          },
          "notes": [
            {
              "pitch": 32,
              "velocity": 80,
              "position": 0,
              "duration": 0.7083333333333334
            },
            {
              "pitch": 32,
              "velocity": 80,
              "position": 0.75,
              "duration": 0.21875
            },
            {
              "pitch": 32,
              "velocity": 80,
              "position": 1.25,
              "duration": 0.13541666666666666
            },
            {
              "pitch": 34,
              "velocity": 80,
              "position": 1.5,
              "duration": 0.90625
            },
            {
              "pitch": 34,
              "velocity": 80,
              "position": 2.5,
              "duration": 0.2916666666666667
            },
            {
              "pitch": 41,
              "velocity": 80,
              "position": 3,
              "duration": 0.23958333333333334
            },
            {
              "pitch": 39,
              "velocity": 80,
              "position": 3.25,
              "duration": 0.23958333333333334
            },
            {
              "pitch": 38,
              "velocity": 80,
              "position": 3.5,
              "duration": 0.4895833333333333
            },
            {
              "pitch": 36,
              "velocity": 80,
              "position": 4,
              "duration": 3.9479166666666665
            }
          ]
        },
        "3": {
          "ctab": {
            "srcChannel": 3,
            "name": "12st min",
            "accType": "CHORD1",
            "editable": false,
            "mutedNotes": [],
            "mutedChords": [
              "1+2+5",
              "sus4",
              "1+5",
              "1+8",
              "7aug",
              "Maj7aug",
              "7(#9)",
              "7(b13)",
              "7(b9)",
              "7(13)",
              "7#11",
              "7(9)",
              "7b5",
              "7sus4",
              "7th",
              "aug",
              "Maj6(9)",
              "Maj7(9)",
              "Maj(9)",
              "Maj7#11",
              "Maj7",
              "Maj6",
              "Maj"
            ],
            "autoStart": false,
            "sourceChordNote": 0,
            "sourceChordType": "min",
            "ctb2Low": null,
            "ctb2Main": {
              "ntr": "ROOT_TRANSPOSITION",
              "ntt": "BYPASS",
              "bassOn": false,
              "chordRootUpperLimit": 8,
              "noteLowLimit": 40,
              "noteHighLimit": 127,
              "rtr": "PITCH_SHIFT"
            },
            "ctb2High": null
          },
          "notes": [
            {
              "pitch": 44,
              "velocity": 97,
              "position": 0,
              "duration": 0.7083333333333334
            },
            {
              "pitch": 51,
              "velocity": 87,
              "position": 0,
              "duration": 0.7083333333333334
            },
            {
              "pitch": 63,
              "velocity": 117,
              "position": 0,
              "duration": 0.71875
            },
            {
              "pitch": 56,
              "velocity": 117,
              "position": 0,
              "duration": 0.7229166666666667
            },
            {
              "pitch": 60,
              "velocity": 116,
              "position": 0,
              "duration": 0.7395833333333334
            },
            {
              "pitch": 56,
              "velocity": 68,
              "position": 0.75,
              "duration": 0.1625
            },
            {
              "pitch": 60,
              "velocity": 98,
              "position": 0.75,
              "duration": 0.26458333333333334
            },
            {
              "pitch": 63,
              "velocity": 102,
              "position": 0.75,
              "duration": 0.2708333333333333
            },
            {
              "pitch": 51,
              "velocity": 47,
              "position": 0.75,
              "duration": 0.275
            },
            {
              "pitch": 44,
              "velocity": 66,
              "position": 0.75,
              "duration": 0.3229166666666667
            },
            {
              "pitch": 46,
              "velocity": 110,
              "position": 1.5,
              "duration": 0.7395833333333334
            },
            {
              "pitch": 65,
              "velocity": 118,
              "position": 1.5,
              "duration": 0.7395833333333334
            },
            {
              "pitch": 62,
              "velocity": 110,
              "position": 1.5,
              "duration": 0.7395833333333334
            },
            {
              "pitch": 58,
              "velocity": 99,
              "position": 1.5,
              "duration": 0.7395833333333334
            },
            {
              "pitch": 53,
              "velocity": 101,
              "position": 1.5,
              "duration": 0.7395833333333334
            },
            {
              "pitch": 46,
              "velocity": 61,
              "position": 2.25,
              "duration": 0.26666666666666666
            },
            {
              "pitch": 65,
              "velocity": 113,
              "position": 2.25,
              "duration": 0.26666666666666666
            },
            {
              "pitch": 62,
              "velocity": 105,
              "position": 2.25,
              "duration": 0.26666666666666666
            },
            {
              "pitch": 58,
              "velocity": 93,
              "position": 2.25,
              "duration": 0.26666666666666666
            },
            {
              "pitch": 53,
              "velocity": 82,
              "position": 2.25,
              "duration": 0.28541666666666665
            },
            {
              "pitch": 46,
              "velocity": 76,
              "position": 3,
              "duration": 0.9895833333333334
            },
            {
              "pitch": 65,
              "velocity": 124,
              "position": 3,
              "duration": 0.9895833333333334
            },
            {
              "pitch": 62,
              "velocity": 111,
              "position": 3,
              "duration": 0.9895833333333334
            },
            {
              "pitch": 58,
              "velocity": 111,
              "position": 3,
              "duration": 0.9895833333333334
            },
            {
              "pitch": 53,
              "velocity": 103,
              "position": 3,
              "duration": 0.9895833333333334
            },
            {
              "pitch": 48,
              "velocity": 110,
              "position": 4,
              "duration": 3.9895833333333335
            },
            {
              "pitch": 67,
              "velocity": 121,
              "position": 4,
              "duration": 3.9895833333333335
            },
            {
              "pitch": 63,
              "velocity": 115,
              "position": 4,
              "duration": 3.9895833333333335
            },
            {
              "pitch": 60,
              "velocity": 103,
              "position": 4,
              "duration": 3.9895833333333335
            },
            {
              "pitch": 55,
              "velocity": 103,
              "position": 4,
              "duration": 3.9895833333333335
            }
          ]
        },
        "5": {
          "ctab": {
            "srcChannel": 5,
            "name": "Strg min",
            "accType": "PAD",
            "editable": false,
            "mutedNotes": [],
            "mutedChords": [
              "1+2+5",
              "sus4",
              "1+5",
              "1+8",
              "7aug",
              "Maj7aug",
              "7(#9)",
              "7(b13)",
              "7(b9)",
              "7(13)",
              "7#11",
              "7(9)",
              "7b5",
              "7sus4",
              "7th",
              "aug",
              "Maj6(9)",
              "Maj7(9)",
              "Maj(9)",
              "Maj7#11",
              "Maj7",
              "Maj6",
              "Maj"
            ],
            "autoStart": false,
            "sourceChordNote": 0,
            "sourceChordType": "min",
            "ctb2Low": null,
            "ctb2Main": {
              "ntr": "ROOT_TRANSPOSITION",
              "ntt": "BYPASS",
              "bassOn": false,
              "chordRootUpperLimit": 7,
              "noteLowLimit": 0,
              "noteHighLimit": 79,
              "rtr": "PITCH_SHIFT"
            },
            "ctb2High": null
          },
          "notes": [
            {
              "pitch": 56,
              "velocity": 52,
              "position": 0,
              "duration": 1.5395833333333333
            },
            {
              "pitch": 60,
              "velocity": 33,
              "position": 0,
              "duration": 1.5395833333333333
            },
            {
              "pitch": 63,
              "velocity": 55,
              "position": 0,
              "duration": 1.5395833333333333
            },
            {
              "pitch": 58,
              "velocity": 92,
              "position": 1.5,
              "duration": 2.4895833333333335
            },
            {
              "pitch": 62,
              "velocity": 54,
              "position": 1.5,
              "duration": 2.4895833333333335
            },
            {
              "pitch": 65,
              "velocity": 92,
              "position": 1.5,
              "duration": 2.4895833333333335
            },
            {
              "pitch": 55,
              "velocity": 52,
              "position": 4,
              "duration": 3.9895833333333335
            },
            {
              "pitch": 63,
              "velocity": 55,
              "position": 4,
              "duration": 3.9895833333333335
            },
            {
              "pitch": 60,
              "velocity": 33,
              "position": 4,
              "duration": 3.9895833333333335
            }
          ]
        },
        "6": {
          "ctab": {
            "srcChannel": 6,
            "name": "StGt min",
            "accType": "PHRASE2",
            "editable": false,
            "mutedNotes": [],
            "mutedChords": [
              "1+2+5",
              "sus4",
              "1+5",
              "1+8",
              "7aug",
              "Maj7aug",
              "7(#9)",
              "7(b13)",
              "7(b9)",
              "7(13)",
              "7#11",
              "7(9)",
              "7b5",
              "7sus4",
              "7th",
              "aug",
              "Maj6(9)",
              "Maj7(9)",
              "Maj(9)",
              "Maj7#11",
              "Maj7",
              "Maj6",
              "Maj"
            ],
            "autoStart": false,
            "sourceChordNote": 0,
            "sourceChordType": "min",
            "ctb2Low": null,
            "ctb2Main": {
              "ntr": "ROOT_TRANSPOSITION",
              "ntt": "BYPASS",
              "bassOn": false,
              "chordRootUpperLimit": 8,
              "noteLowLimit": 40,
              "noteHighLimit": 127,
              "rtr": "PITCH_SHIFT"
            },
            "ctb2High": null
          },
          "notes": [
            {
              "pitch": 56,
              "velocity": 108,
              "position": 0,
              "duration": 0.7395833333333334
            },
            {
              "pitch": 63,
              "velocity": 127,
              "position": 0,
              "duration": 0.7395833333333334
            },
            {
              "pitch": 60,
              "velocity": 108,
              "position": 0,
              "duration": 0.7395833333333334
            },
            {
              "pitch": 60,
              "velocity": 108,
              "position": 0.75,
              "duration": 0.1875
            },
            {
              "pitch": 56,
              "velocity": 108,
              "position": 0.75,
              "duration": 0.22916666666666666
            },
            {
              "pitch": 63,
              "velocity": 108,
              "position": 0.75,
              "duration": 0.2708333333333333
            },
            {
              "pitch": 62,
              "velocity": 88,
              "position": 1.25,
              "duration": 0.19791666666666666
            },
            {
              "pitch": 65,
              "velocity": 88,
              "position": 1.25,
              "duration": 0.19791666666666666
            },
            {
              "pitch": 58,
              "velocity": 108,
              "position": 1.4583333333333333,
              "duration": 0.78125
            },
            {
              "pitch": 65,
              "velocity": 115,
              "position": 1.4583333333333333,
              "duration": 0.78125
            },
            {
              "pitch": 62,
              "velocity": 108,
              "position": 1.4583333333333333,
              "duration": 1.03125
            },
            {
              "pitch": 65,
              "velocity": 88,
              "position": 2.25,
              "duration": 0.23958333333333334
            },
            {
              "pitch": 58,
              "velocity": 88,
              "position": 2.25,
              "duration": 0.23958333333333334
            },
            {
              "pitch": 58,
              "velocity": 88,
              "position": 2.75,
              "duration": 0.23958333333333334
            },
            {
              "pitch": 65,
              "velocity": 88,
              "position": 2.75,
              "duration": 0.23958333333333334
            },
            {
              "pitch": 62,
              "velocity": 88,
              "position": 2.75,
              "duration": 0.23958333333333334
            },
            {
              "pitch": 62,
              "velocity": 108,
              "position": 3,
              "duration": 0.4895833333333333
            },
            {
              "pitch": 65,
              "velocity": 119,
              "position": 3,
              "duration": 0.4895833333333333
            },
            {
              "pitch": 58,
              "velocity": 108,
              "position": 3,
              "duration": 0.96875
            },
            {
              "pitch": 65,
              "velocity": 89,
              "position": 3.5,
              "duration": 0.46875
            },
            {
              "pitch": 62,
              "velocity": 88,
              "position": 3.5,
              "duration": 0.46875
            },
            {
              "pitch": 67,
              "velocity": 120,
              "position": 3.9791666666666665,
              "duration": 4.010416666666667
            },
            {
              "pitch": 60,
              "velocity": 120,
              "position": 4,
              "duration": 3.9895833333333335
            },
            {
              "pitch": 63,
              "velocity": 120,
              "position": 3.9895833333333335,
              "duration": 4
            }
          ]
        },
        "7": {
          "ctab": {
            "srcChannel": 7,
            "name": "60s min",
            "accType": "PHRASE1",
            "editable": false,
            "mutedNotes": [],
            "mutedChords": [
              "1+2+5",
              "sus4",
              "1+5",
              "1+8",
              "7aug",
              "Maj7aug",
              "7(#9)",
              "7(b13)",
              "7(b9)",
              "7(13)",
              "7#11",
              "7(9)",
              "7b5",
              "7sus4",
              "7th",
              "aug",
              "Maj6(9)",
              "Maj7(9)",
              "Maj(9)",
              "Maj7#11",
              "Maj7",
              "Maj6",
              "Maj"
            ],
            "autoStart": false,
            "sourceChordNote": 0,
            "sourceChordType": "min",
            "ctb2Low": null,
            "ctb2Main": {
              "ntr": "ROOT_TRANSPOSITION",
              "ntt": "BYPASS",
              "bassOn": false,
              "chordRootUpperLimit": 8,
              "noteLowLimit": 0,
              "noteHighLimit": 127,
              "rtr": "PITCH_SHIFT"
            },
            "ctb2High": null
          },
          "notes": [
            {
              "pitch": 60,
              "velocity": 94,
              "position": 3.0104166666666665,
              "duration": 0.4791666666666667
            },
            {
              "pitch": 55,
              "velocity": 74,
              "position": 3.5,
              "duration": 0.4791666666666667
            },
            {
              "pitch": 51,
              "velocity": 76,
              "position": 4,
              "duration": 3.972916666666667
            }
          ]
        },
        "8": {
          "ctab": {
            "srcChannel": 8,
            "name": "AddDrum",
            "accType": "SUBRHYTHM",
            "editable": false,
            "mutedNotes": [],
            "mutedChords": [],
            "autoStart": true,
            "sourceChordNote": 0,
            "sourceChordType": "Maj7",
            "ctb2Low": null,
            "ctb2Main": {
              "ntr": "ROOT_FIXED",
              "ntt": "BYPASS",
              "bassOn": false,
              "chordRootUpperLimit": 6,
              "noteLowLimit": 0,
              "noteHighLimit": 127,
              "rtr": "PITCH_SHIFT"
            },
            "ctb2High": null
          },
          "notes": [
            {
              "pitch": 27,
              "velocity": 109,
              "position": 0,
              "duration": 0.010416666666666666
            },
            {
              "pitch": 82,
              "velocity": 72,
              "position": 0,
              "duration": 0.010416666666666666
            },
            {
              "pitch": 70,
              "velocity": 72,
              "position": 0,
              "duration": 0.010416666666666666
            },
            {
              "pitch": 25,
              "velocity": 53,
              "position": 0.2708333333333333,
              "duration": 0.010416666666666666
            },
            {
              "pitch": 70,
              "velocity": 44,
              "position": 0.2708333333333333,
              "duration": 0.010416666666666666
            },
            {
              "pitch": 27,
              "velocity": 62,
              "position": 0.5,
              "duration": 0.010416666666666666
            },
            {
              "pitch": 82,
              "velocity": 45,
              "position": 0.5,
              "duration": 0.010416666666666666
            },
            {
              "pitch": 70,
              "velocity": 72,
              "position": 0.5,
              "duration": 0.010416666666666666
            },
            {
              "pitch": 25,
              "velocity": 110,
              "position": 0.7708333333333334,
              "duration": 0.010416666666666666
            },
            {
              "pitch": 70,
              "velocity": 44,
              "position": 0.7708333333333334,
              "duration": 0.010416666666666666
            },
            {
              "pitch": 27,
              "velocity": 109,
              "position": 1,
              "duration": 0.010416666666666666
            },
            {
              "pitch": 82,
              "velocity": 72,
              "position": 1,
              "duration": 0.010416666666666666
            },
            {
              "pitch": 70,
              "velocity": 72,
              "position": 1,
              "duration": 0.010416666666666666
            },
            {
              "pitch": 25,
              "velocity": 49,
              "position": 1.2708333333333333,
              "duration": 0.010416666666666666
            },
            {
              "pitch": 70,
              "velocity": 44,
              "position": 1.2708333333333333,
              "duration": 0.010416666666666666
            },
            {
              "pitch": 27,
              "velocity": 51,
              "position": 1.5,
              "duration": 0.010416666666666666
            },
            {
              "pitch": 82,
              "velocity": 45,
              "position": 1.5,
              "duration": 0.010416666666666666
            },
            {
              "pitch": 70,
              "velocity": 72,
              "position": 1.5,
              "duration": 0.010416666666666666
            },
            {
              "pitch": 25,
              "velocity": 75,
              "position": 1.7708333333333333,
              "duration": 0.010416666666666666
            },
            {
              "pitch": 70,
              "velocity": 44,
              "position": 1.7708333333333333,
              "duration": 0.010416666666666666
            },
            {
              "pitch": 69,
              "velocity": 57,
              "position": 1.7708333333333333,
              "duration": 0.010416666666666666
            },
            {
              "pitch": 27,
              "velocity": 86,
              "position": 2,
              "duration": 0.010416666666666666
            },
            {
              "pitch": 82,
              "velocity": 72,
              "position": 2,
              "duration": 0.010416666666666666
            },
            {
              "pitch": 70,
              "velocity": 62,
              "position": 2,
              "duration": 0.010416666666666666
            },
            {
              "pitch": 25,
              "velocity": 53,
              "position": 2.2708333333333335,
              "duration": 0.010416666666666666
            },
            {
              "pitch": 70,
              "velocity": 44,
              "position": 2.2708333333333335,
              "duration": 0.010416666666666666
            },
            {
              "pitch": 27,
              "velocity": 50,
              "position": 2.5,
              "duration": 0.010416666666666666
            },
            {
              "pitch": 82,
              "velocity": 45,
              "position": 2.5,
              "duration": 0.010416666666666666
            },
            {
              "pitch": 70,
              "velocity": 72,
              "position": 2.5,
              "duration": 0.010416666666666666
            },
            {
              "pitch": 25,
              "velocity": 89,
              "position": 2.7708333333333335,
              "duration": 0.010416666666666666
            },
            {
              "pitch": 70,
              "velocity": 44,
              "position": 2.7708333333333335,
              "duration": 0.010416666666666666
            },
            {
              "pitch": 27,
              "velocity": 89,
              "position": 3,
              "duration": 0.010416666666666666
            },
            {
              "pitch": 82,
              "velocity": 72,
              "position": 3,
              "duration": 0.010416666666666666
            },
            {
              "pitch": 70,
              "velocity": 72,
              "position": 3,
              "duration": 0.010416666666666666
            },
            {
              "pitch": 54,
              "velocity": 110,
              "position": 3,
              "duration": 0.03125
            },
            {
              "pitch": 25,
              "velocity": 85,
              "position": 3.2708333333333335,
              "duration": 0.010416666666666666
            },
            {
              "pitch": 70,
              "velocity": 44,
              "position": 3.2708333333333335,
              "duration": 0.010416666666666666
            },
            {
              "pitch": 27,
              "velocity": 51,
              "position": 3.5,
              "duration": 0.010416666666666666
            },
            {
              "pitch": 82,
              "velocity": 45,
              "position": 3.5,
              "duration": 0.010416666666666666
            },
            {
              "pitch": 70,
              "velocity": 72,
              "position": 3.5,
              "duration": 0.010416666666666666
            },
            {
              "pitch": 25,
              "velocity": 89,
              "position": 3.7708333333333335,
              "duration": 0.010416666666666666
            },
            {
              "pitch": 70,
              "velocity": 44,
              "position": 3.7708333333333335,
              "duration": 0.010416666666666666
            },
            {
              "pitch": 69,
              "velocity": 57,
              "position": 3.7708333333333335,
              "duration": 0.010416666666666666
            }
          ]
        },
        "9": {
          "ctab": {
            "srcChannel": 9,
            "name": "MainDrum",
            "accType": "RHYTHM",
            "editable": false,
            "mutedNotes": [],
            "mutedChords": [],
            "autoStart": true,
            "sourceChordNote": 0,
            "sourceChordType": "Maj7",
            "ctb2Low": null,
            "ctb2Main": {
              "ntr": "ROOT_FIXED",
              "ntt": "BYPASS",
              "bassOn": false,
              "chordRootUpperLimit": 6,
              "noteLowLimit": 0,
              "noteHighLimit": 127,
              "rtr": "PITCH_SHIFT"
            },
            "ctb2High": null
          },
          "notes": [
            {
              "pitch": 36,
              "velocity": 98,
              "position": 0,
              "duration": 0.010416666666666666
            },
            {
              "pitch": 49,
              "velocity": 48,
              "position": 0,
              "duration": 0.010416666666666666
            },
            {
              "pitch": 40,
              "velocity": 50,
              "position": 0.5,
              "duration": 0.010416666666666666
            },
            {
              "pitch": 40,
              "velocity": 89,
              "position": 1,
              "duration": 0.010416666666666666
            },
            {
              "pitch": 46,
              "velocity": 50,
              "position": 1,
              "duration": 0.010416666666666666
            },
            {
              "pitch": 36,
              "velocity": 98,
              "position": 1.5,
              "duration": 0.010416666666666666
            },
            {
              "pitch": 40,
              "velocity": 71,
              "position": 1.75,
              "duration": 0.010416666666666666
            },
            {
              "pitch": 46,
              "velocity": 43,
              "position": 2,
              "duration": 0.010416666666666666
            },
            {
              "pitch": 40,
              "velocity": 87,
              "position": 2.25,
              "duration": 0.010416666666666666
            },
            {
              "pitch": 40,
              "velocity": 1,
              "position": 2.5,
              "duration": 0.010416666666666666
            },
            {
              "pitch": 40,
              "velocity": 27,
              "position": 2.625,
              "duration": 0.010416666666666666
            },
            {
              "pitch": 36,
              "velocity": 98,
              "position": 2.75,
              "duration": 0.010416666666666666
            },
            {
              "pitch": 40,
              "velocity": 95,
              "position": 3,
              "duration": 0.010416666666666666
            },
            {
              "pitch": 46,
              "velocity": 44,
              "position": 3,
              "duration": 0.010416666666666666
            },
            {
              "pitch": 38,
              "velocity": 49,
              "position": 3.25,
              "duration": 0.010416666666666666
            },
            {
              "pitch": 36,
              "velocity": 98,
              "position": 3.5,
              "duration": 0.010416666666666666
            },
            {
              "pitch": 55,
              "velocity": 42,
              "position": 3.75,
              "duration": 0.010416666666666666
            },
            {
              "pitch": 36,
              "velocity": 73,
              "position": 4,
              "duration": 0.010416666666666666
            },
            {
              "pitch": 49,
              "velocity": 45,
              "position": 4.010416666666667,
              "duration": 0.010416666666666666
            }
          ]
        },
        "10": {
          "ctab": {
            "srcChannel": 10,
            "name": "Bass Maj",
            "accType": "BASS",
            "editable": false,
            "mutedNotes": [],
            "mutedChords": [
              "dim7",
              "dim",
              "minMaj7(9)",
              "minMaj7",
              "min7(11)",
              "min7(9)",
              "min(9)",
              "m7b5",
              "min7",
              "min6",
              "min"
            ],
            "autoStart": false,
            "sourceChordNote": 0,
            "sourceChordType": "Maj",
            "ctb2Low": null,
            "ctb2Main": {
              "ntr": "ROOT_TRANSPOSITION",
              "ntt": "BYPASS",
              "bassOn": false,
              "chordRootUpperLimit": 3,
              "noteLowLimit": 28,
              "noteHighLimit": 127,
              "rtr": "PITCH_SHIFT"
            },
            "ctb2High": null
          },
          "notes": [
            {
              "pitch": 29,
              "velocity": 80,
              "position": 0,
              "duration": 1.4895833333333333
            },
            {
              "pitch": 31,
              "velocity": 80,
              "position": 1.5,
              "duration": 1.4895833333333333
            },
            {
              "pitch": 31,
              "velocity": 80,
              "position": 3,
              "duration": 0.9895833333333334
            },
            {
              "pitch": 36,
              "velocity": 80,
              "position": 4,
              "duration": 3.9895833333333335
            }
          ]
        },
        "11": {
          "ctab": {
            "srcChannel": 11,
            "name": "12st Maj",
            "accType": "CHORD1",
            "editable": false,
            "mutedNotes": [],
            "mutedChords": [
              "dim7",
              "dim",
              "minMaj7(9)",
              "minMaj7",
              "min7(11)",
              "min7(9)",
              "min(9)",
              "m7b5",
              "min7",
              "min6",
              "min"
            ],
            "autoStart": false,
            "sourceChordNote": 0,
            "sourceChordType": "Maj",
            "ctb2Low": null,
            "ctb2Main": {
              "ntr": "ROOT_TRANSPOSITION",
              "ntt": "BYPASS",
              "bassOn": false,
              "chordRootUpperLimit": 8,
              "noteLowLimit": 40,
              "noteHighLimit": 127,
              "rtr": "PITCH_SHIFT"
            },
            "ctb2High": null
          },
          "notes": [
            {
              "pitch": 41,
              "velocity": 97,
              "position": 0,
              "duration": 0.7083333333333334
            },
            {
              "pitch": 48,
              "velocity": 87,
              "position": 0,
              "duration": 0.7083333333333334
            },
            {
              "pitch": 67,
              "velocity": 117,
              "position": 0,
              "duration": 0.71875
            },
            {
              "pitch": 56,
              "velocity": 117,
              "position": 0,
              "duration": 0.7229166666666667
            },
            {
              "pitch": 60,
              "velocity": 116,
              "position": 0,
              "duration": 0.7395833333333334
            },
            {
              "pitch": 56,
              "velocity": 68,
              "position": 0.75,
              "duration": 0.1625
            },
            {
              "pitch": 60,
              "velocity": 98,
              "position": 0.75,
              "duration": 0.26458333333333334
            },
            {
              "pitch": 67,
              "velocity": 102,
              "position": 0.75,
              "duration": 0.2708333333333333
            },
            {
              "pitch": 48,
              "velocity": 47,
              "position": 0.75,
              "duration": 0.275
            },
            {
              "pitch": 41,
              "velocity": 66,
              "position": 0.75,
              "duration": 0.3229166666666667
            },
            {
              "pitch": 43,
              "velocity": 110,
              "position": 1.5,
              "duration": 0.7395833333333334
            },
            {
              "pitch": 65,
              "velocity": 118,
              "position": 1.5,
              "duration": 0.7395833333333334
            },
            {
              "pitch": 60,
              "velocity": 99,
              "position": 1.5,
              "duration": 0.7395833333333334
            },
            {
              "pitch": 57,
              "velocity": 101,
              "position": 1.5,
              "duration": 0.7395833333333334
            },
            {
              "pitch": 43,
              "velocity": 61,
              "position": 2.25,
              "duration": 0.26666666666666666
            },
            {
              "pitch": 65,
              "velocity": 113,
              "position": 2.25,
              "duration": 0.26666666666666666
            },
            {
              "pitch": 60,
              "velocity": 93,
              "position": 2.25,
              "duration": 0.26666666666666666
            },
            {
              "pitch": 57,
              "velocity": 82,
              "position": 2.25,
              "duration": 0.28541666666666665
            },
            {
              "pitch": 43,
              "velocity": 76,
              "position": 3,
              "duration": 0.9895833333333334
            },
            {
              "pitch": 67,
              "velocity": 124,
              "position": 3,
              "duration": 0.9895833333333334
            },
            {
              "pitch": 60,
              "velocity": 111,
              "position": 3,
              "duration": 0.9895833333333334
            },
            {
              "pitch": 57,
              "velocity": 103,
              "position": 3,
              "duration": 0.9895833333333334
            },
            {
              "pitch": 48,
              "velocity": 101,
              "position": 4,
              "duration": 3.9895833333333335
            },
            {
              "pitch": 67,
              "velocity": 112,
              "position": 4,
              "duration": 3.9895833333333335
            },
            {
              "pitch": 64,
              "velocity": 106,
              "position": 4,
              "duration": 3.9895833333333335
            },
            {
              "pitch": 60,
              "velocity": 94,
              "position": 4,
              "duration": 3.9895833333333335
            },
            {
              "pitch": 55,
              "velocity": 94,
              "position": 4,
              "duration": 3.9895833333333335
            }
          ]
        },
        "12": {
          "ctab": {
            "srcChannel": 12,
            "name": "Mute",
            "accType": "CHORD2",
            "editable": false,
            "mutedNotes": [],
            "mutedChords": [],
            "autoStart": false,
            "sourceChordNote": 0,
            "sourceChordType": "Maj",
            "ctb2Low": null,
            "ctb2Main": {
              "ntr": "ROOT_TRANSPOSITION",
              "ntt": "HARMONIC_MINOR",
              "bassOn": false,
              "chordRootUpperLimit": 7,
              "noteLowLimit": 40,
              "noteHighLimit": 127,
              "rtr": "PITCH_SHIFT"
            },
            "ctb2High": null
          },
          "notes": []
        },
        "13": {
          "ctab": {
            "srcChannel": 13,
            "name": "Strg Maj",
            "accType": "PAD",
            "editable": false,
            "mutedNotes": [],
            "mutedChords": [
              "dim7",
              "dim",
              "minMaj7(9)",
              "minMaj7",
              "min7(11)",
              "min7(9)",
              "min(9)",
              "m7b5",
              "min7",
              "min6",
              "min"
            ],
            "autoStart": false,
            "sourceChordNote": 0,
            "sourceChordType": "Maj",
            "ctb2Low": null,
            "ctb2Main": {
              "ntr": "ROOT_TRANSPOSITION",
              "ntt": "BYPASS",
              "bassOn": false,
              "chordRootUpperLimit": 6,
              "noteLowLimit": 0,
              "noteHighLimit": 79,
              "rtr": "PITCH_SHIFT"
            },
            "ctb2High": null
          },
          "notes": [
            {
              "pitch": 56,
              "velocity": 56,
              "position": 0,
              "duration": 1.4895833333333333
            },
            {
              "pitch": 67,
              "velocity": 56,
              "position": 0,
              "duration": 1.4895833333333333
            },
            {
              "pitch": 60,
              "velocity": 30,
              "position": 0,
              "duration": 3.9895833333333335
            },
            {
              "pitch": 65,
              "velocity": 94,
              "position": 1.5,
              "duration": 2.4895833333333335
            },
            {
              "pitch": 57,
              "velocity": 93,
              "position": 1.5,
              "duration": 2.4895833333333335
            },
            {
              "pitch": 64,
              "velocity": 56,
              "position": 4,
              "duration": 3.86875
            },
            {
              "pitch": 60,
              "velocity": 30,
              "position": 4,
              "duration": 3.879166666666667
            },
            {
              "pitch": 55,
              "velocity": 58,
              "position": 4,
              "duration": 3.9208333333333334
            }
          ]
        },
        "14": {
          "ctab": {
            "srcChannel": 14,
            "name": "StGt Maj",
            "accType": "PHRASE2",
            "editable": false,
            "mutedNotes": [],
            "mutedChords": [
              "dim7",
              "dim",
              "minMaj7(9)",
              "minMaj7",
              "min7(11)",
              "min7(9)",
              "min(9)",
              "m7b5",
              "min7",
              "min6",
              "min"
            ],
            "autoStart": false,
            "sourceChordNote": 0,
            "sourceChordType": "Maj",
            "ctb2Low": null,
            "ctb2Main": {
              "ntr": "ROOT_TRANSPOSITION",
              "ntt": "BYPASS",
              "bassOn": false,
              "chordRootUpperLimit": 9,
              "noteLowLimit": 40,
              "noteHighLimit": 127,
              "rtr": "PITCH_SHIFT"
            },
            "ctb2High": null
          },
          "notes": [
            {
              "pitch": 56,
              "velocity": 108,
              "position": 0,
              "duration": 0.7395833333333334
            },
            {
              "pitch": 67,
              "velocity": 127,
              "position": 0,
              "duration": 0.7395833333333334
            },
            {
              "pitch": 60,
              "velocity": 108,
              "position": 0,
              "duration": 0.7395833333333334
            },
            {
              "pitch": 60,
              "velocity": 108,
              "position": 0.75,
              "duration": 0.1875
            },
            {
              "pitch": 56,
              "velocity": 108,
              "position": 0.75,
              "duration": 0.22916666666666666
            },
            {
              "pitch": 67,
              "velocity": 108,
              "position": 0.75,
              "duration": 0.2708333333333333
            },
            {
              "pitch": 60,
              "velocity": 88,
              "position": 1.25,
              "duration": 0.19791666666666666
            },
            {
              "pitch": 65,
              "velocity": 88,
              "position": 1.25,
              "duration": 0.19791666666666666
            },
            {
              "pitch": 60,
              "velocity": 108,
              "position": 1.4583333333333333,
              "duration": 0.78125
            },
            {
              "pitch": 69,
              "velocity": 108,
              "position": 1.4583333333333333,
              "duration": 0.78125
            },
            {
              "pitch": 65,
              "velocity": 115,
              "position": 1.4583333333333333,
              "duration": 0.78125
            },
            {
              "pitch": 60,
              "velocity": 88,
              "position": 2.25,
              "duration": 0.23958333333333334
            },
            {
              "pitch": 65,
              "velocity": 88,
              "position": 2.25,
              "duration": 0.23958333333333334
            },
            {
              "pitch": 60,
              "velocity": 88,
              "position": 2.75,
              "duration": 0.23958333333333334
            },
            {
              "pitch": 69,
              "velocity": 88,
              "position": 2.75,
              "duration": 0.23958333333333334
            },
            {
              "pitch": 67,
              "velocity": 88,
              "position": 2.75,
              "duration": 0.23958333333333334
            },
            {
              "pitch": 60,
              "velocity": 108,
              "position": 3,
              "duration": 0.4895833333333333
            },
            {
              "pitch": 67,
              "velocity": 119,
              "position": 3,
              "duration": 0.4895833333333333
            },
            {
              "pitch": 69,
              "velocity": 108,
              "position": 3,
              "duration": 0.96875
            },
            {
              "pitch": 67,
              "velocity": 89,
              "position": 3.5,
              "duration": 0.46875
            },
            {
              "pitch": 60,
              "velocity": 88,
              "position": 3.5,
              "duration": 0.46875
            },
            {
              "pitch": 67,
              "velocity": 118,
              "position": 3.9791666666666665,
              "duration": 4.010416666666667
            },
            {
              "pitch": 60,
              "velocity": 108,
              "position": 4,
              "duration": 3.9895833333333335
            },
            {
              "pitch": 64,
              "velocity": 108,
              "position": 3.9895833333333335,
              "duration": 4
            }
          ]
        },
        "15": {
          "ctab": {
            "srcChannel": 15,
            "name": "60s Maj",
            "accType": "PHRASE1",
            "editable": false,
            "mutedNotes": [],
            "mutedChords": [
              "dim7",
              "dim",
              "minMaj7(9)",
              "minMaj7",
              "min7(11)",
              "min7(9)",
              "min(9)",
              "m7b5",
              "min7",
              "min6",
              "min"
            ],
            "autoStart": false,
            "sourceChordNote": 0,
            "sourceChordType": "Maj",
            "ctb2Low": null,
            "ctb2Main": {
              "ntr": "ROOT_TRANSPOSITION",
              "ntt": "BYPASS",
              "bassOn": false,
              "chordRootUpperLimit": 8,
              "noteLowLimit": 0,
              "noteHighLimit": 127,
              "rtr": "PITCH_SHIFT"
            },
            "ctb2High": null
          },
          "notes": [
            {
              "pitch": 67,
              "velocity": 80,
              "position": 0,
              "duration": 1.5
            },
            {
              "pitch": 65,
              "velocity": 78,
              "position": 1.5,
              "duration": 2.4541666666666666
            },
            {
              "pitch": 67,
              "velocity": 86,
              "position": 4,
              "duration": 3.9479166666666665
            },
            {
              "pitch": 60,
              "velocity": 86,
              "position": 3.9,
              "duration": 4.064583333333333
            },
            {
              "pitch": 55,
              "velocity": 82,
              "position": 3.75,
              "duration": 4.239583333333333
            }
          ]
        }
      }
    },
    "Ending_C": {
      "type": "Ending_C",
      "sizeInBeats": 20,
      "channels": {
        "1": {
          "ctab": {
            "srcChannel": 1,
            "name": "12st SFX",
            "accType": "CHORD1",
            "editable": false,
            "mutedNotes": [],
            "mutedChords": [],
            "autoStart": false,
            "sourceChordNote": 0,
            "sourceChordType": "Maj7",
            "ctb2Low": null,
            "ctb2Main": {
              "ntr": "ROOT_FIXED",
              "ntt": "BYPASS",
              "bassOn": false,
              "chordRootUpperLimit": 7,
              "noteLowLimit": 0,
              "noteHighLimit": 127,
              "rtr": "PITCH_SHIFT"
            },
            "ctb2High": null
          },
          "notes": [
            {
              "pitch": 34,
              "velocity": 73,
              "position": 0,
              "duration": 0.041666666666666664
            },
            {
              "pitch": 39,
              "velocity": 73,
              "position": 0,
              "duration": 0.041666666666666664
            },
            {
              "pitch": 36,
              "velocity": 73,
              "position": 0,
              "duration": 0.041666666666666664
            },
            {
              "pitch": 34,
              "velocity": 73,
              "position": 0.75,
              "duration": 0.041666666666666664
            },
            {
              "pitch": 38,
              "velocity": 73,
              "position": 0.75,
              "duration": 0.041666666666666664
            },
            {
              "pitch": 36,
              "velocity": 73,
              "position": 0.75,
              "duration": 0.041666666666666664
            },
            {
              "pitch": 34,
              "velocity": 70,
              "position": 1.25,
              "duration": 0.041666666666666664
            },
            {
              "pitch": 36,
              "velocity": 70,
              "position": 1.25,
              "duration": 0.041666666666666664
            },
            {
              "pitch": 34,
              "velocity": 70,
              "position": 1.5,
              "duration": 0.041666666666666664
            },
            {
              "pitch": 39,
              "velocity": 70,
              "position": 1.5,
              "duration": 0.041666666666666664
            },
            {
              "pitch": 36,
              "velocity": 70,
              "position": 1.5,
              "duration": 0.041666666666666664
            },
            {
              "pitch": 34,
              "velocity": 70,
              "position": 2.25,
              "duration": 0.041666666666666664
            },
            {
              "pitch": 39,
              "velocity": 70,
              "position": 2.25,
              "duration": 0.041666666666666664
            },
            {
              "pitch": 36,
              "velocity": 70,
              "position": 2.25,
              "duration": 0.041666666666666664
            },
            {
              "pitch": 34,
              "velocity": 70,
              "position": 2.75,
              "duration": 0.041666666666666664
            },
            {
              "pitch": 36,
              "velocity": 70,
              "position": 2.75,
              "duration": 0.041666666666666664
            },
            {
              "pitch": 34,
              "velocity": 70,
              "position": 3,
              "duration": 0.041666666666666664
            },
            {
              "pitch": 39,
              "velocity": 70,
              "position": 3,
              "duration": 0.041666666666666664
            },
            {
              "pitch": 36,
              "velocity": 70,
              "position": 3,
              "duration": 0.041666666666666664
            },
            {
              "pitch": 34,
              "velocity": 70,
              "position": 3.5,
              "duration": 0.041666666666666664
            },
            {
              "pitch": 36,
              "velocity": 70,
              "position": 3.5,
              "duration": 0.041666666666666664
            },
            {
              "pitch": 34,
              "velocity": 70,
              "position": 3.75,
              "duration": 0.041666666666666664
            },
            {
              "pitch": 39,
              "velocity": 70,
              "position": 3.75,
              "duration": 0.041666666666666664
            },
            {
              "pitch": 36,
              "velocity": 70,
              "position": 3.75,
              "duration": 0.041666666666666664
            },
            {
              "pitch": 34,
              "velocity": 73,
              "position": 4,
              "duration": 0.041666666666666664
            },
            {
              "pitch": 39,
              "velocity": 73,
              "position": 4,
              "duration": 0.041666666666666664
            },
            {
              "pitch": 36,
              "velocity": 73,
              "position": 4,
              "duration": 0.041666666666666664
            },
            {
              "pitch": 34,
              "velocity": 73,
              "position": 4.75,
              "duration": 0.041666666666666664
            },
            {
              "pitch": 38,
              "velocity": 73,
              "position": 4.75,
              "duration": 0.041666666666666664
            },
            {
              "pitch": 36,
              "velocity": 73,
              "position": 4.75,
              "duration": 0.041666666666666664
            },
            {
              "pitch": 34,
              "velocity": 70,
              "position": 5.25,
              "duration": 0.041666666666666664
            },
            {
              "pitch": 36,
              "velocity": 70,
              "position": 5.25,
              "duration": 0.041666666666666664
            },
            {
              "pitch": 34,
              "velocity": 70,
              "position": 5.5,
              "duration": 0.041666666666666664
            },
            {
              "pitch": 39,
              "velocity": 70,
              "position": 5.5,
              "duration": 0.041666666666666664
            },
            {
              "pitch": 36,
              "velocity": 70,
              "position": 5.5,
              "duration": 0.041666666666666664
            },
            {
              "pitch": 34,
              "velocity": 70,
              "position": 6.25,
              "duration": 0.041666666666666664
            },
            {
              "pitch": 39,
              "velocity": 70,
              "position": 6.25,
              "duration": 0.041666666666666664
            },
            {
              "pitch": 36,
              "velocity": 70,
              "position": 6.25,
              "duration": 0.041666666666666664
            },
            {
              "pitch": 34,
              "velocity": 70,
              "position": 6.75,
              "duration": 0.041666666666666664
            },
            {
              "pitch": 36,
              "velocity": 70,
              "position": 6.75,
              "duration": 0.041666666666666664
            },
            {
              "pitch": 34,
              "velocity": 70,
              "position": 7,
              "duration": 0.041666666666666664
            },
            {
              "pitch": 39,
              "velocity": 70,
              "position": 7,
              "duration": 0.041666666666666664
            },
            {
              "pitch": 36,
              "velocity": 70,
              "position": 7,
              "duration": 0.041666666666666664
            },
            {
              "pitch": 34,
              "velocity": 73,
              "position": 8,
              "duration": 0.041666666666666664
            },
            {
              "pitch": 39,
              "velocity": 73,
              "position": 8,
              "duration": 0.041666666666666664
            },
            {
              "pitch": 36,
              "velocity": 73,
              "position": 8,
              "duration": 0.041666666666666664
            },
            {
              "pitch": 34,
              "velocity": 73,
              "position": 8.75,
              "duration": 0.041666666666666664
            },
            {
              "pitch": 38,
              "velocity": 73,
              "position": 8.75,
              "duration": 0.041666666666666664
            },
            {
              "pitch": 36,
              "velocity": 73,
              "position": 8.75,
              "duration": 0.041666666666666664
            },
            {
              "pitch": 34,
              "velocity": 70,
              "position": 9.25,
              "duration": 0.041666666666666664
            },
            {
              "pitch": 36,
              "velocity": 70,
              "position": 9.25,
              "duration": 0.041666666666666664
            },
            {
              "pitch": 34,
              "velocity": 70,
              "position": 9.5,
              "duration": 0.041666666666666664
            },
            {
              "pitch": 39,
              "velocity": 70,
              "position": 9.5,
              "duration": 0.041666666666666664
            },
            {
              "pitch": 36,
              "velocity": 70,
              "position": 9.5,
              "duration": 0.041666666666666664
            },
            {
              "pitch": 34,
              "velocity": 70,
              "position": 10.25,
              "duration": 0.041666666666666664
            },
            {
              "pitch": 39,
              "velocity": 70,
              "position": 10.25,
              "duration": 0.041666666666666664
            },
            {
              "pitch": 36,
              "velocity": 70,
              "position": 10.25,
              "duration": 0.041666666666666664
            },
            {
              "pitch": 34,
              "velocity": 70,
              "position": 10.75,
              "duration": 0.041666666666666664
            },
            {
              "pitch": 36,
              "velocity": 70,
              "position": 10.75,
              "duration": 0.041666666666666664
            },
            {
              "pitch": 34,
              "velocity": 70,
              "position": 11,
              "duration": 0.041666666666666664
            },
            {
              "pitch": 39,
              "velocity": 70,
              "position": 11,
              "duration": 0.041666666666666664
            },
            {
              "pitch": 36,
              "velocity": 70,
              "position": 11,
              "duration": 0.041666666666666664
            },
            {
              "pitch": 34,
              "velocity": 73,
              "position": 12,
              "duration": 0.041666666666666664
            },
            {
              "pitch": 39,
              "velocity": 73,
              "position": 12,
              "duration": 0.041666666666666664
            },
            {
              "pitch": 36,
              "velocity": 73,
              "position": 12,
              "duration": 0.041666666666666664
            },
            {
              "pitch": 34,
              "velocity": 73,
              "position": 12.75,
              "duration": 0.041666666666666664
            },
            {
              "pitch": 38,
              "velocity": 73,
              "position": 12.75,
              "duration": 0.041666666666666664
            },
            {
              "pitch": 36,
              "velocity": 73,
              "position": 12.75,
              "duration": 0.041666666666666664
            },
            {
              "pitch": 34,
              "velocity": 70,
              "position": 13.25,
              "duration": 0.041666666666666664
            },
            {
              "pitch": 36,
              "velocity": 70,
              "position": 13.25,
              "duration": 0.041666666666666664
            },
            {
              "pitch": 34,
              "velocity": 70,
              "position": 13.5,
              "duration": 0.041666666666666664
            },
            {
              "pitch": 39,
              "velocity": 70,
              "position": 13.5,
              "duration": 0.041666666666666664
            },
            {
              "pitch": 36,
              "velocity": 70,
              "position": 13.5,
              "duration": 0.041666666666666664
            },
            {
              "pitch": 34,
              "velocity": 70,
              "position": 14.25,
              "duration": 0.041666666666666664
            },
            {
              "pitch": 39,
              "velocity": 70,
              "position": 14.25,
              "duration": 0.041666666666666664
            },
            {
              "pitch": 36,
              "velocity": 70,
              "position": 14.25,
              "duration": 0.041666666666666664
            },
            {
              "pitch": 34,
              "velocity": 70,
              "position": 14.75,
              "duration": 0.041666666666666664
            },
            {
              "pitch": 36,
              "velocity": 70,
              "position": 14.75,
              "duration": 0.041666666666666664
            },
            {
              "pitch": 34,
              "velocity": 70,
              "position": 15,
              "duration": 0.041666666666666664
            },
            {
              "pitch": 39,
              "velocity": 70,
              "position": 15,
              "duration": 0.041666666666666664
            },
            {
              "pitch": 36,
              "velocity": 70,
              "position": 15,
              "duration": 0.041666666666666664
            },
            {
              "pitch": 34,
              "velocity": 70,
              "position": 15.5,
              "duration": 0.041666666666666664
            },
            {
              "pitch": 37,
              "velocity": 70,
              "position": 15.5,
              "duration": 0.041666666666666664
            },
            {
              "pitch": 34,
              "velocity": 70,
              "position": 16,
              "duration": 0.041666666666666664
            },
            {
              "pitch": 39,
              "velocity": 70,
              "position": 16,
              "duration": 0.041666666666666664
            },
            {
              "pitch": 36,
              "velocity": 70,
              "position": 16,
              "duration": 0.041666666666666664
            }
          ]
        },
        "2": {
          "ctab": {
            "srcChannel": 2,
            "name": "Bass min",
            "accType": "BASS",
            "editable": false,
            "mutedNotes": [],
            "mutedChords": [
              "1+2+5",
              "sus4",
              "1+5",
              "1+8",
              "7aug",
              "Maj7aug",
              "7(#9)",
              "7(b13)",
              "7(b9)",
              "7(13)",
              "7#11",
              "7(9)",
              "7b5",
              "7sus4",
              "7th",
              "aug",
              "Maj6(9)",
              "Maj7(9)",
              "Maj(9)",
              "Maj7#11",
              "Maj7",
              "Maj6",
              "Maj"
            ],
            "autoStart": false,
            "sourceChordNote": 0,
            "sourceChordType": "min",
            "ctb2Low": null,
            "ctb2Main": {
              "ntr": "ROOT_TRANSPOSITION",
              "ntt": "BYPASS",
              "bassOn": false,
              "chordRootUpperLimit": 3,
              "noteLowLimit": 28,
              "noteHighLimit": 127,
              "rtr": "PITCH_SHIFT"
            },
            "ctb2High": null
          },
          "notes": [
            {
              "pitch": 36,
              "velocity": 92,
              "position": 0,
              "duration": 0.4895833333333333
            },
            {
              "pitch": 36,
              "velocity": 70,
              "position": 0.5,
              "duration": 0.4895833333333333
            },
            {
              "pitch": 36,
              "velocity": 80,
              "position": 1,
              "duration": 0.4270833333333333
            },
            {
              "pitch": 36,
              "velocity": 63,
              "position": 1.5208333333333333,
              "duration": 0.23958333333333334
            },
            {
              "pitch": 36,
              "velocity": 81,
              "position": 1.7708333333333333,
              "duration": 0.4895833333333333
            },
            {
              "pitch": 36,
              "velocity": 52,
              "position": 2.2708333333333335,
              "duration": 0.21875
            },
            {
              "pitch": 36,
              "velocity": 81,
              "position": 2.5,
              "duration": 0.9166666666666666
            },
            {
              "pitch": 36,
              "velocity": 80,
              "position": 3.5,
              "duration": 0.20833333333333334
            },
            {
              "pitch": 36,
              "velocity": 80,
              "position": 3.7708333333333335,
              "duration": 0.21875
            },
            {
              "pitch": 32,
              "velocity": 92,
              "position": 4,
              "duration": 0.4895833333333333
            },
            {
              "pitch": 32,
              "velocity": 80,
              "position": 4.5,
              "duration": 0.4895833333333333
            },
            {
              "pitch": 32,
              "velocity": 80,
              "position": 5,
              "duration": 0.4270833333333333
            },
            {
              "pitch": 32,
              "velocity": 80,
              "position": 5.520833333333333,
              "duration": 0.23958333333333334
            },
            {
              "pitch": 32,
              "velocity": 81,
              "position": 5.770833333333333,
              "duration": 0.4895833333333333
            },
            {
              "pitch": 32,
              "velocity": 80,
              "position": 6.270833333333333,
              "duration": 0.21875
            },
            {
              "pitch": 32,
              "velocity": 81,
              "position": 6.5,
              "duration": 0.4895833333333333
            },
            {
              "pitch": 34,
              "velocity": 80,
              "position": 7,
              "duration": 0.4895833333333333
            },
            {
              "pitch": 34,
              "velocity": 64,
              "position": 7.5,
              "duration": 0.4895833333333333
            },
            {
              "pitch": 36,
              "velocity": 92,
              "position": 8,
              "duration": 0.4895833333333333
            },
            {
              "pitch": 36,
              "velocity": 80,
              "position": 8.5,
              "duration": 0.4895833333333333
            },
            {
              "pitch": 36,
              "velocity": 80,
              "position": 9,
              "duration": 0.4270833333333333
            },
            {
              "pitch": 36,
              "velocity": 80,
              "position": 9.520833333333334,
              "duration": 0.23958333333333334
            },
            {
              "pitch": 36,
              "velocity": 81,
              "position": 9.770833333333334,
              "duration": 0.4895833333333333
            },
            {
              "pitch": 36,
              "velocity": 80,
              "position": 10.270833333333334,
              "duration": 0.21875
            },
            {
              "pitch": 36,
              "velocity": 81,
              "position": 10.5,
              "duration": 0.9166666666666666
            },
            {
              "pitch": 36,
              "velocity": 80,
              "position": 11.5,
              "duration": 0.20833333333333334
            },
            {
              "pitch": 36,
              "velocity": 80,
              "position": 11.770833333333334,
              "duration": 0.21875
            },
            {
              "pitch": 32,
              "velocity": 92,
              "position": 12,
              "duration": 0.4895833333333333
            },
            {
              "pitch": 32,
              "velocity": 80,
              "position": 12.5,
              "duration": 0.4895833333333333
            },
            {
              "pitch": 32,
              "velocity": 80,
              "position": 13,
              "duration": 0.4270833333333333
            },
            {
              "pitch": 34,
              "velocity": 80,
              "position": 13.520833333333334,
              "duration": 0.23958333333333334
            },
            {
              "pitch": 34,
              "velocity": 81,
              "position": 13.770833333333334,
              "duration": 0.4895833333333333
            },
            {
              "pitch": 34,
              "velocity": 80,
              "position": 14.270833333333334,
              "duration": 0.21875
            },
            {
              "pitch": 34,
              "velocity": 81,
              "position": 14.5,
              "duration": 0.4895833333333333
            },
            {
              "pitch": 34,
              "velocity": 81,
              "position": 15,
              "duration": 0.9895833333333334
            },
            {
              "pitch": 36,
              "velocity": 81,
              "position": 16,
              "duration": 3.9895833333333335
            }
          ]
        },
        "3": {
          "ctab": {
            "srcChannel": 3,
            "name": "12st min",
            "accType": "CHORD1",
            "editable": false,
            "mutedNotes": [],
            "mutedChords": [
              "1+2+5",
              "sus4",
              "1+5",
              "1+8",
              "7aug",
              "Maj7aug",
              "7(#9)",
              "7(b13)",
              "7(b9)",
              "7(13)",
              "7#11",
              "7(9)",
              "7b5",
              "7sus4",
              "7th",
              "aug",
              "Maj6(9)",
              "Maj7(9)",
              "Maj(9)",
              "Maj7#11",
              "Maj7",
              "Maj6",
              "Maj"
            ],
            "autoStart": false,
            "sourceChordNote": 0,
            "sourceChordType": "min",
            "ctb2Low": null,
            "ctb2Main": {
              "ntr": "ROOT_TRANSPOSITION",
              "ntt": "BYPASS",
              "bassOn": false,
              "chordRootUpperLimit": 8,
              "noteLowLimit": 40,
              "noteHighLimit": 127,
              "rtr": "PITCH_SHIFT"
            },
            "ctb2High": null
          },
          "notes": [
            {
              "pitch": 36,
              "velocity": 72,
              "position": 0,
              "duration": 0.7395833333333334
            },
            {
              "pitch": 70,
              "velocity": 108,
              "position": 0.03125,
              "duration": 0.7083333333333334
            },
            {
              "pitch": 55,
              "velocity": 86,
              "position": 0,
              "duration": 0.7395833333333334
            },
            {
              "pitch": 60,
              "velocity": 106,
              "position": 0.010416666666666666,
              "duration": 0.7395833333333334
            },
            {
              "pitch": 63,
              "velocity": 109,
              "position": 0.020833333333333332,
              "duration": 0.9895833333333334
            },
            {
              "pitch": 70,
              "velocity": 90,
              "position": 0.75,
              "duration": 0.32708333333333334
            },
            {
              "pitch": 60,
              "velocity": 90,
              "position": 0.7708333333333334,
              "duration": 0.3125
            },
            {
              "pitch": 55,
              "velocity": 90,
              "position": 0.78125,
              "duration": 0.35
            },
            {
              "pitch": 36,
              "velocity": 76,
              "position": 0.7604166666666666,
              "duration": 0.59375
            },
            {
              "pitch": 63,
              "velocity": 51,
              "position": 1.25,
              "duration": 0.23958333333333334
            },
            {
              "pitch": 55,
              "velocity": 51,
              "position": 1.25,
              "duration": 0.23958333333333334
            },
            {
              "pitch": 55,
              "velocity": 82,
              "position": 1.5,
              "duration": 0.7395833333333334
            },
            {
              "pitch": 70,
              "velocity": 102,
              "position": 1.53125,
              "duration": 0.7083333333333334
            },
            {
              "pitch": 63,
              "velocity": 99,
              "position": 1.5208333333333333,
              "duration": 0.7291666666666666
            },
            {
              "pitch": 60,
              "velocity": 105,
              "position": 1.5104166666666667,
              "duration": 0.9895833333333334
            },
            {
              "pitch": 63,
              "velocity": 93,
              "position": 2.2604166666666665,
              "duration": 0.2833333333333333
            },
            {
              "pitch": 55,
              "velocity": 90,
              "position": 2.2708333333333335,
              "duration": 0.35
            },
            {
              "pitch": 36,
              "velocity": 78,
              "position": 1.5,
              "duration": 1.2395833333333333
            },
            {
              "pitch": 70,
              "velocity": 90,
              "position": 2.25,
              "duration": 0.7395833333333334
            },
            {
              "pitch": 36,
              "velocity": 66,
              "position": 2.75,
              "duration": 0.23958333333333334
            },
            {
              "pitch": 38,
              "velocity": 111,
              "position": 3,
              "duration": 0.23958333333333334
            },
            {
              "pitch": 39,
              "velocity": 99,
              "position": 3.25,
              "duration": 0.23958333333333334
            },
            {
              "pitch": 55,
              "velocity": 83,
              "position": 3,
              "duration": 0.9895833333333334
            },
            {
              "pitch": 36,
              "velocity": 96,
              "position": 3.5,
              "duration": 0.4895833333333333
            },
            {
              "pitch": 70,
              "velocity": 103,
              "position": 3.03125,
              "duration": 0.9583333333333334
            },
            {
              "pitch": 60,
              "velocity": 89,
              "position": 3.0104166666666665,
              "duration": 0.9895833333333334
            },
            {
              "pitch": 63,
              "velocity": 92,
              "position": 3.0208333333333335,
              "duration": 1.71875
            },
            {
              "pitch": 51,
              "velocity": 77,
              "position": 4,
              "duration": 0.7395833333333334
            },
            {
              "pitch": 60,
              "velocity": 95,
              "position": 4.010416666666667,
              "duration": 0.7395833333333334
            },
            {
              "pitch": 56,
              "velocity": 97,
              "position": 4.020833333333333,
              "duration": 0.7395833333333334
            },
            {
              "pitch": 63,
              "velocity": 90,
              "position": 4.75,
              "duration": 0.23958333333333334
            },
            {
              "pitch": 60,
              "velocity": 90,
              "position": 4.760416666666667,
              "duration": 0.325
            },
            {
              "pitch": 56,
              "velocity": 97,
              "position": 4.770833333333333,
              "duration": 0.3375
            },
            {
              "pitch": 68,
              "velocity": 110,
              "position": 4,
              "duration": 1.1770833333333333
            },
            {
              "pitch": 51,
              "velocity": 77,
              "position": 4.75,
              "duration": 0.55625
            },
            {
              "pitch": 63,
              "velocity": 51,
              "position": 5.25,
              "duration": 0.23958333333333334
            },
            {
              "pitch": 51,
              "velocity": 74,
              "position": 5.5,
              "duration": 0.7395833333333334
            },
            {
              "pitch": 56,
              "velocity": 104,
              "position": 5.5,
              "duration": 0.7395833333333334
            },
            {
              "pitch": 63,
              "velocity": 110,
              "position": 5.520833333333333,
              "duration": 0.7291666666666666
            },
            {
              "pitch": 68,
              "velocity": 102,
              "position": 5.510416666666667,
              "duration": 0.7395833333333334
            },
            {
              "pitch": 68,
              "velocity": 90,
              "position": 6.260416666666667,
              "duration": 0.23958333333333334
            },
            {
              "pitch": 56,
              "velocity": 90,
              "position": 6.270833333333333,
              "duration": 0.23958333333333334
            },
            {
              "pitch": 60,
              "velocity": 110,
              "position": 5.53125,
              "duration": 1.0625
            },
            {
              "pitch": 63,
              "velocity": 90,
              "position": 6.260416666666667,
              "duration": 0.35
            },
            {
              "pitch": 51,
              "velocity": 72,
              "position": 6.25,
              "duration": 0.4895833333333333
            },
            {
              "pitch": 44,
              "velocity": 77,
              "position": 4,
              "duration": 2.7395833333333335
            },
            {
              "pitch": 53,
              "velocity": 99,
              "position": 7.010416666666667,
              "duration": 0.42291666666666666
            },
            {
              "pitch": 46,
              "velocity": 70,
              "position": 7,
              "duration": 0.91875
            },
            {
              "pitch": 65,
              "velocity": 100,
              "position": 7.041666666666667,
              "duration": 0.9479166666666666
            },
            {
              "pitch": 53,
              "velocity": 77,
              "position": 7.510416666666667,
              "duration": 0.48541666666666666
            },
            {
              "pitch": 62,
              "velocity": 97,
              "position": 7.03125,
              "duration": 0.96875
            },
            {
              "pitch": 58,
              "velocity": 99,
              "position": 7.020833333333333,
              "duration": 0.9895833333333334
            },
            {
              "pitch": 70,
              "velocity": 103,
              "position": 8,
              "duration": 0.7395833333333334
            },
            {
              "pitch": 55,
              "velocity": 96,
              "position": 8.03125,
              "duration": 0.7083333333333334
            },
            {
              "pitch": 63,
              "velocity": 103,
              "position": 8.010416666666666,
              "duration": 0.7395833333333334
            },
            {
              "pitch": 60,
              "velocity": 99,
              "position": 8.020833333333334,
              "duration": 1.0625
            },
            {
              "pitch": 55,
              "velocity": 90,
              "position": 8.75,
              "duration": 0.35
            },
            {
              "pitch": 63,
              "velocity": 90,
              "position": 8.760416666666666,
              "duration": 0.375
            },
            {
              "pitch": 70,
              "velocity": 90,
              "position": 8.770833333333334,
              "duration": 0.4395833333333333
            },
            {
              "pitch": 36,
              "velocity": 76,
              "position": 8,
              "duration": 1.3333333333333333
            },
            {
              "pitch": 63,
              "velocity": 51,
              "position": 9.25,
              "duration": 0.23958333333333334
            },
            {
              "pitch": 36,
              "velocity": 78,
              "position": 9.5,
              "duration": 0.5979166666666667
            },
            {
              "pitch": 55,
              "velocity": 100,
              "position": 9.53125,
              "duration": 0.7083333333333334
            },
            {
              "pitch": 60,
              "velocity": 108,
              "position": 9.520833333333334,
              "duration": 0.7291666666666666
            },
            {
              "pitch": 60,
              "velocity": 90,
              "position": 10.260416666666666,
              "duration": 0.23958333333333334
            },
            {
              "pitch": 55,
              "velocity": 81,
              "position": 10.25,
              "duration": 0.3375
            },
            {
              "pitch": 63,
              "velocity": 108,
              "position": 9.510416666666666,
              "duration": 1.0875
            },
            {
              "pitch": 36,
              "velocity": 69,
              "position": 10.25,
              "duration": 0.4895833333333333
            },
            {
              "pitch": 70,
              "velocity": 96,
              "position": 9.5,
              "duration": 1.4895833333333333
            },
            {
              "pitch": 63,
              "velocity": 51,
              "position": 10.75,
              "duration": 0.23958333333333334
            },
            {
              "pitch": 55,
              "velocity": 51,
              "position": 10.75,
              "duration": 0.23958333333333334
            },
            {
              "pitch": 36,
              "velocity": 70,
              "position": 10.75,
              "duration": 0.23958333333333334
            },
            {
              "pitch": 38,
              "velocity": 111,
              "position": 11,
              "duration": 0.23958333333333334
            },
            {
              "pitch": 39,
              "velocity": 82,
              "position": 11.25,
              "duration": 0.23958333333333334
            },
            {
              "pitch": 55,
              "velocity": 83,
              "position": 11,
              "duration": 0.9895833333333334
            },
            {
              "pitch": 36,
              "velocity": 76,
              "position": 11.5,
              "duration": 0.4895833333333333
            },
            {
              "pitch": 63,
              "velocity": 103,
              "position": 11.020833333333334,
              "duration": 0.96875
            },
            {
              "pitch": 70,
              "velocity": 99,
              "position": 11.03125,
              "duration": 0.9583333333333334
            },
            {
              "pitch": 60,
              "velocity": 103,
              "position": 11.010416666666666,
              "duration": 0.9895833333333334
            },
            {
              "pitch": 51,
              "velocity": 77,
              "position": 12,
              "duration": 0.7395833333333334
            },
            {
              "pitch": 60,
              "velocity": 95,
              "position": 12.010416666666666,
              "duration": 0.7395833333333334
            },
            {
              "pitch": 56,
              "velocity": 97,
              "position": 12.020833333333334,
              "duration": 0.7395833333333334
            },
            {
              "pitch": 63,
              "velocity": 90,
              "position": 12,
              "duration": 0.9895833333333334
            },
            {
              "pitch": 60,
              "velocity": 90,
              "position": 12.760416666666666,
              "duration": 0.325
            },
            {
              "pitch": 56,
              "velocity": 97,
              "position": 12.770833333333334,
              "duration": 0.3375
            },
            {
              "pitch": 68,
              "velocity": 110,
              "position": 12,
              "duration": 1.1770833333333333
            },
            {
              "pitch": 51,
              "velocity": 77,
              "position": 12.75,
              "duration": 0.55625
            },
            {
              "pitch": 63,
              "velocity": 51,
              "position": 13.25,
              "duration": 0.23958333333333334
            },
            {
              "pitch": 44,
              "velocity": 77,
              "position": 12,
              "duration": 1.5
            },
            {
              "pitch": 53,
              "velocity": 74,
              "position": 13.5,
              "duration": 0.7395833333333334
            },
            {
              "pitch": 58,
              "velocity": 104,
              "position": 13.5,
              "duration": 0.7395833333333334
            },
            {
              "pitch": 65,
              "velocity": 110,
              "position": 13.520833333333334,
              "duration": 0.7291666666666666
            },
            {
              "pitch": 70,
              "velocity": 102,
              "position": 13.510416666666666,
              "duration": 0.7395833333333334
            },
            {
              "pitch": 70,
              "velocity": 90,
              "position": 14.260416666666666,
              "duration": 0.23958333333333334
            },
            {
              "pitch": 58,
              "velocity": 90,
              "position": 14.270833333333334,
              "duration": 0.23958333333333334
            },
            {
              "pitch": 62,
              "velocity": 110,
              "position": 13.53125,
              "duration": 1.0625
            },
            {
              "pitch": 65,
              "velocity": 90,
              "position": 14.260416666666666,
              "duration": 0.35
            },
            {
              "pitch": 53,
              "velocity": 72,
              "position": 14.25,
              "duration": 0.4895833333333333
            },
            {
              "pitch": 46,
              "velocity": 77,
              "position": 13.5,
              "duration": 1.2395833333333333
            },
            {
              "pitch": 46,
              "velocity": 70,
              "position": 15,
              "duration": 0.4895833333333333
            },
            {
              "pitch": 53,
              "velocity": 99,
              "position": 15.010416666666666,
              "duration": 0.4791666666666667
            },
            {
              "pitch": 46,
              "velocity": 70,
              "position": 15.5,
              "duration": 0.36041666666666666
            },
            {
              "pitch": 58,
              "velocity": 99,
              "position": 15.020833333333334,
              "duration": 0.9583333333333334
            },
            {
              "pitch": 70,
              "velocity": 100,
              "position": 15.041666666666666,
              "duration": 0.9479166666666666
            },
            {
              "pitch": 65,
              "velocity": 100,
              "position": 15.041666666666666,
              "duration": 0.9479166666666666
            },
            {
              "pitch": 53,
              "velocity": 77,
              "position": 15.510416666666666,
              "duration": 0.48541666666666666
            },
            {
              "pitch": 62,
              "velocity": 97,
              "position": 15.03125,
              "duration": 0.96875
            },
            {
              "pitch": 36,
              "velocity": 93,
              "position": 16,
              "duration": 3.9895833333333335
            },
            {
              "pitch": 60,
              "velocity": 96,
              "position": 16.03125,
              "duration": 3.9583333333333335
            },
            {
              "pitch": 63,
              "velocity": 99,
              "position": 16.020833333333332,
              "duration": 3.96875
            },
            {
              "pitch": 67,
              "velocity": 103,
              "position": 16.010416666666668,
              "duration": 3.9791666666666665
            },
            {
              "pitch": 72,
              "velocity": 103,
              "position": 16,
              "duration": 3.9895833333333335
            },
            {
              "pitch": 55,
              "velocity": 76,
              "position": 16,
              "duration": 3.9895833333333335
            }
          ]
        },
        "5": {
          "ctab": {
            "srcChannel": 5,
            "name": "Strg min",
            "accType": "PAD",
            "editable": false,
            "mutedNotes": [],
            "mutedChords": [
              "1+2+5",
              "sus4",
              "1+5",
              "1+8",
              "7aug",
              "Maj7aug",
              "7(#9)",
              "7(b13)",
              "7(b9)",
              "7(13)",
              "7#11",
              "7(9)",
              "7b5",
              "7sus4",
              "7th",
              "aug",
              "Maj6(9)",
              "Maj7(9)",
              "Maj(9)",
              "Maj7#11",
              "Maj7",
              "Maj6",
              "Maj"
            ],
            "autoStart": false,
            "sourceChordNote": 0,
            "sourceChordType": "min",
            "ctb2Low": null,
            "ctb2Main": {
              "ntr": "ROOT_TRANSPOSITION",
              "ntt": "BYPASS",
              "bassOn": false,
              "chordRootUpperLimit": 7,
              "noteLowLimit": 0,
              "noteHighLimit": 79,
              "rtr": "PITCH_SHIFT"
            },
            "ctb2High": null
          },
          "notes": [
            {
              "pitch": 72,
              "velocity": 110,
              "position": 0,
              "duration": 5.020833333333333
            },
            {
              "pitch": 84,
              "velocity": 110,
              "position": 0,
              "duration": 5.020833333333333
            },
            {
              "pitch": 91,
              "velocity": 110,
              "position": 4.979166666666667,
              "duration": 1.0208333333333333
            },
            {
              "pitch": 79,
              "velocity": 110,
              "position": 4.989583333333333,
              "duration": 1.0208333333333333
            },
            {
              "pitch": 89,
              "velocity": 110,
              "position": 5.979166666666667,
              "duration": 1.0208333333333333
            },
            {
              "pitch": 77,
              "velocity": 110,
              "position": 5.989583333333333,
              "duration": 1.0208333333333333
            },
            {
              "pitch": 87,
              "velocity": 110,
              "position": 6.979166666666667,
              "duration": 1.0208333333333333
            },
            {
              "pitch": 75,
              "velocity": 110,
              "position": 6.989583333333333,
              "duration": 1.0208333333333333
            },
            {
              "pitch": 84,
              "velocity": 110,
              "position": 7.979166666666667,
              "duration": 5.520833333333333
            },
            {
              "pitch": 72,
              "velocity": 110,
              "position": 7.989583333333333,
              "duration": 5.520833333333333
            },
            {
              "pitch": 86,
              "velocity": 110,
              "position": 13.479166666666666,
              "duration": 2.5208333333333335
            },
            {
              "pitch": 74,
              "velocity": 110,
              "position": 13.489583333333334,
              "duration": 2.5208333333333335
            },
            {
              "pitch": 84,
              "velocity": 110,
              "position": 15.979166666666666,
              "duration": 3.75625
            },
            {
              "pitch": 72,
              "velocity": 110,
              "position": 15.989583333333334,
              "duration": 3.75625
            }
          ]
        },
        "6": {
          "ctab": {
            "srcChannel": 6,
            "name": "StGt min",
            "accType": "PHRASE2",
            "editable": false,
            "mutedNotes": [],
            "mutedChords": [
              "1+2+5",
              "sus4",
              "1+5",
              "1+8",
              "7aug",
              "Maj7aug",
              "7(#9)",
              "7(b13)",
              "7(b9)",
              "7(13)",
              "7#11",
              "7(9)",
              "7b5",
              "7sus4",
              "7th",
              "aug",
              "Maj6(9)",
              "Maj7(9)",
              "Maj(9)",
              "Maj7#11",
              "Maj7",
              "Maj6",
              "Maj"
            ],
            "autoStart": false,
            "sourceChordNote": 0,
            "sourceChordType": "min",
            "ctb2Low": null,
            "ctb2Main": {
              "ntr": "ROOT_TRANSPOSITION",
              "ntt": "BYPASS",
              "bassOn": false,
              "chordRootUpperLimit": 8,
              "noteLowLimit": 40,
              "noteHighLimit": 127,
              "rtr": "PITCH_SHIFT"
            },
            "ctb2High": null
          },
          "notes": [
            {
              "pitch": 63,
              "velocity": 118,
              "position": 0.03125,
              "duration": 0.7083333333333334
            },
            {
              "pitch": 60,
              "velocity": 107,
              "position": 0.020833333333333332,
              "duration": 0.7395833333333334
            },
            {
              "pitch": 63,
              "velocity": 107,
              "position": 0.75,
              "duration": 0.33958333333333335
            },
            {
              "pitch": 48,
              "velocity": 107,
              "position": 0,
              "duration": 1.0895833333333333
            },
            {
              "pitch": 55,
              "velocity": 107,
              "position": 0.010416666666666666,
              "duration": 1.0895833333333333
            },
            {
              "pitch": 60,
              "velocity": 107,
              "position": 0.78125,
              "duration": 0.33958333333333335
            },
            {
              "pitch": 55,
              "velocity": 107,
              "position": 1.53125,
              "duration": 0.7395833333333334
            },
            {
              "pitch": 63,
              "velocity": 107,
              "position": 1.5104166666666667,
              "duration": 1.0895833333333333
            },
            {
              "pitch": 55,
              "velocity": 107,
              "position": 2.28125,
              "duration": 0.33958333333333335
            },
            {
              "pitch": 60,
              "velocity": 107,
              "position": 1.5208333333333333,
              "duration": 1.1
            },
            {
              "pitch": 48,
              "velocity": 107,
              "position": 1.5,
              "duration": 2.4791666666666665
            },
            {
              "pitch": 63,
              "velocity": 107,
              "position": 3.03125,
              "duration": 0.9583333333333334
            },
            {
              "pitch": 60,
              "velocity": 107,
              "position": 3.0208333333333335,
              "duration": 0.96875
            },
            {
              "pitch": 55,
              "velocity": 107,
              "position": 3.0104166666666665,
              "duration": 0.9791666666666666
            },
            {
              "pitch": 51,
              "velocity": 107,
              "position": 4,
              "duration": 0.7395833333333334
            },
            {
              "pitch": 60,
              "velocity": 109,
              "position": 4,
              "duration": 0.7395833333333334
            },
            {
              "pitch": 63,
              "velocity": 116,
              "position": 4,
              "duration": 1.0895833333333333
            },
            {
              "pitch": 60,
              "velocity": 107,
              "position": 4.75,
              "duration": 0.33958333333333335
            },
            {
              "pitch": 51,
              "velocity": 107,
              "position": 4.75,
              "duration": 0.33958333333333335
            },
            {
              "pitch": 56,
              "velocity": 107,
              "position": 4.010416666666667,
              "duration": 1.0895833333333333
            },
            {
              "pitch": 63,
              "velocity": 107,
              "position": 5.510416666666667,
              "duration": 0.7291666666666666
            },
            {
              "pitch": 56,
              "velocity": 107,
              "position": 5.520833333333333,
              "duration": 0.7395833333333334
            },
            {
              "pitch": 63,
              "velocity": 107,
              "position": 6.25,
              "duration": 0.33958333333333335
            },
            {
              "pitch": 51,
              "velocity": 107,
              "position": 5.5,
              "duration": 1.0895833333333333
            },
            {
              "pitch": 44,
              "velocity": 109,
              "position": 4.03125,
              "duration": 2.589583333333333
            },
            {
              "pitch": 56,
              "velocity": 107,
              "position": 6.28125,
              "duration": 0.33958333333333335
            },
            {
              "pitch": 60,
              "velocity": 107,
              "position": 5.53125,
              "duration": 1.0895833333333333
            },
            {
              "pitch": 46,
              "velocity": 107,
              "position": 7,
              "duration": 0.9895833333333334
            },
            {
              "pitch": 62,
              "velocity": 107,
              "position": 7.03125,
              "duration": 0.9583333333333334
            },
            {
              "pitch": 58,
              "velocity": 107,
              "position": 7.03125,
              "duration": 0.9583333333333334
            },
            {
              "pitch": 65,
              "velocity": 107,
              "position": 7.020833333333333,
              "duration": 0.96875
            },
            {
              "pitch": 53,
              "velocity": 107,
              "position": 7.010416666666667,
              "duration": 0.9791666666666666
            },
            {
              "pitch": 63,
              "velocity": 107,
              "position": 8,
              "duration": 0.7395833333333334
            },
            {
              "pitch": 55,
              "velocity": 109,
              "position": 8.03125,
              "duration": 0.71875
            },
            {
              "pitch": 60,
              "velocity": 107,
              "position": 8.010416666666666,
              "duration": 1.0895833333333333
            },
            {
              "pitch": 55,
              "velocity": 119,
              "position": 8.760416666666666,
              "duration": 0.33958333333333335
            },
            {
              "pitch": 63,
              "velocity": 107,
              "position": 8.770833333333334,
              "duration": 0.33958333333333335
            },
            {
              "pitch": 63,
              "velocity": 107,
              "position": 9.5,
              "duration": 0.7395833333333334
            },
            {
              "pitch": 60,
              "velocity": 107,
              "position": 9.510416666666666,
              "duration": 0.7395833333333334
            },
            {
              "pitch": 48,
              "velocity": 107,
              "position": 8.020833333333334,
              "duration": 2.56875
            },
            {
              "pitch": 63,
              "velocity": 107,
              "position": 10.260416666666666,
              "duration": 0.33958333333333335
            },
            {
              "pitch": 60,
              "velocity": 107,
              "position": 10.270833333333334,
              "duration": 0.33958333333333335
            },
            {
              "pitch": 55,
              "velocity": 107,
              "position": 9.53125,
              "duration": 1.0895833333333333
            },
            {
              "pitch": 63,
              "velocity": 107,
              "position": 11,
              "duration": 0.9895833333333334
            },
            {
              "pitch": 48,
              "velocity": 107,
              "position": 11.010416666666666,
              "duration": 0.9791666666666666
            },
            {
              "pitch": 60,
              "velocity": 107,
              "position": 11.020833333333334,
              "duration": 0.96875
            },
            {
              "pitch": 55,
              "velocity": 107,
              "position": 11.03125,
              "duration": 0.96875
            },
            {
              "pitch": 51,
              "velocity": 107,
              "position": 12,
              "duration": 0.7395833333333334
            },
            {
              "pitch": 60,
              "velocity": 109,
              "position": 12,
              "duration": 0.7395833333333334
            },
            {
              "pitch": 63,
              "velocity": 116,
              "position": 12,
              "duration": 1.0895833333333333
            },
            {
              "pitch": 60,
              "velocity": 107,
              "position": 12.75,
              "duration": 0.33958333333333335
            },
            {
              "pitch": 51,
              "velocity": 107,
              "position": 12.75,
              "duration": 0.33958333333333335
            },
            {
              "pitch": 56,
              "velocity": 107,
              "position": 12.010416666666666,
              "duration": 1.0895833333333333
            },
            {
              "pitch": 44,
              "velocity": 109,
              "position": 12.03125,
              "duration": 1.46875
            },
            {
              "pitch": 65,
              "velocity": 107,
              "position": 13.510416666666666,
              "duration": 0.7291666666666666
            },
            {
              "pitch": 58,
              "velocity": 107,
              "position": 13.520833333333334,
              "duration": 0.7395833333333334
            },
            {
              "pitch": 65,
              "velocity": 107,
              "position": 14.25,
              "duration": 0.33958333333333335
            },
            {
              "pitch": 53,
              "velocity": 107,
              "position": 13.5,
              "duration": 1.0895833333333333
            },
            {
              "pitch": 46,
              "velocity": 109,
              "position": 13.5,
              "duration": 1.1208333333333333
            },
            {
              "pitch": 58,
              "velocity": 107,
              "position": 14.28125,
              "duration": 0.33958333333333335
            },
            {
              "pitch": 62,
              "velocity": 107,
              "position": 13.53125,
              "duration": 1.0895833333333333
            },
            {
              "pitch": 46,
              "velocity": 107,
              "position": 15,
              "duration": 0.4895833333333333
            },
            {
              "pitch": 46,
              "velocity": 107,
              "position": 15.5,
              "duration": 0.48125
            },
            {
              "pitch": 53,
              "velocity": 107,
              "position": 15.010416666666666,
              "duration": 0.9791666666666666
            },
            {
              "pitch": 58,
              "velocity": 107,
              "position": 15.03125,
              "duration": 0.9583333333333334
            },
            {
              "pitch": 65,
              "velocity": 107,
              "position": 15.020833333333334,
              "duration": 0.96875
            },
            {
              "pitch": 62,
              "velocity": 107,
              "position": 15.03125,
              "duration": 0.9583333333333334
            },
            {
              "pitch": 48,
              "velocity": 107,
              "position": 16,
              "duration": 3.9895833333333335
            },
            {
              "pitch": 55,
              "velocity": 107,
              "position": 16.010416666666668,
              "duration": 3.9791666666666665
            },
            {
              "pitch": 63,
              "velocity": 116,
              "position": 16,
              "duration": 3.9895833333333335
            },
            {
              "pitch": 60,
              "velocity": 109,
              "position": 16,
              "duration": 3.9895833333333335
            }
          ]
        },
        "7": {
          "ctab": {
            "srcChannel": 7,
            "name": "60s min",
            "accType": "PHRASE1",
            "editable": false,
            "mutedNotes": [],
            "mutedChords": [
              "1+2+5",
              "sus4",
              "1+5",
              "1+8",
              "7aug",
              "Maj7aug",
              "7(#9)",
              "7(b13)",
              "7(b9)",
              "7(13)",
              "7#11",
              "7(9)",
              "7b5",
              "7sus4",
              "7th",
              "aug",
              "Maj6(9)",
              "Maj7(9)",
              "Maj(9)",
              "Maj7#11",
              "Maj7",
              "Maj6",
              "Maj"
            ],
            "autoStart": false,
            "sourceChordNote": 0,
            "sourceChordType": "min",
            "ctb2Low": null,
            "ctb2Main": {
              "ntr": "ROOT_TRANSPOSITION",
              "ntt": "BYPASS",
              "bassOn": false,
              "chordRootUpperLimit": 8,
              "noteLowLimit": 0,
              "noteHighLimit": 127,
              "rtr": "PITCH_SHIFT"
            },
            "ctb2High": null
          },
          "notes": [
            {
              "pitch": 55,
              "velocity": 78,
              "position": 0.5,
              "duration": 0.6583333333333333
            },
            {
              "pitch": 60,
              "velocity": 75,
              "position": 0.75,
              "duration": 0.6166666666666667
            },
            {
              "pitch": 67,
              "velocity": 106,
              "position": 1.25,
              "duration": 0.4895833333333333
            },
            {
              "pitch": 55,
              "velocity": 77,
              "position": 2.25,
              "duration": 0.24166666666666667
            },
            {
              "pitch": 65,
              "velocity": 68,
              "position": 1.75,
              "duration": 0.7458333333333333
            },
            {
              "pitch": 60,
              "velocity": 101,
              "position": 2.5,
              "duration": 0.24166666666666667
            },
            {
              "pitch": 60,
              "velocity": 106,
              "position": 2.75,
              "duration": 0.25625
            },
            {
              "pitch": 62,
              "velocity": 80,
              "position": 3,
              "duration": 0.23958333333333334
            },
            {
              "pitch": 63,
              "velocity": 106,
              "position": 3.25,
              "duration": 0.23958333333333334
            },
            {
              "pitch": 62,
              "velocity": 79,
              "position": 3.5,
              "duration": 0.23958333333333334
            },
            {
              "pitch": 60,
              "velocity": 106,
              "position": 3.75,
              "duration": 0.23958333333333334
            },
            {
              "pitch": 56,
              "velocity": 79,
              "position": 4,
              "duration": 1.0791666666666666
            },
            {
              "pitch": 60,
              "velocity": 106,
              "position": 4.5,
              "duration": 1.0791666666666666
            },
            {
              "pitch": 68,
              "velocity": 77,
              "position": 4.75,
              "duration": 1.3791666666666667
            },
            {
              "pitch": 56,
              "velocity": 70,
              "position": 5.25,
              "duration": 0.9291666666666667
            },
            {
              "pitch": 60,
              "velocity": 106,
              "position": 5.75,
              "duration": 0.875
            },
            {
              "pitch": 68,
              "velocity": 72,
              "position": 6.25,
              "duration": 0.6479166666666667
            },
            {
              "pitch": 56,
              "velocity": 70,
              "position": 6.75,
              "duration": 0.22083333333333333
            },
            {
              "pitch": 62,
              "velocity": 73,
              "position": 7,
              "duration": 0.9395833333333333
            },
            {
              "pitch": 58,
              "velocity": 72,
              "position": 6.979166666666667,
              "duration": 0.9895833333333334
            },
            {
              "pitch": 65,
              "velocity": 73,
              "position": 7.020833333333333,
              "duration": 0.95
            },
            {
              "pitch": 55,
              "velocity": 74,
              "position": 8.5,
              "duration": 1.0416666666666667
            },
            {
              "pitch": 60,
              "velocity": 64,
              "position": 8.75,
              "duration": 0.9416666666666667
            },
            {
              "pitch": 67,
              "velocity": 106,
              "position": 9.25,
              "duration": 0.4895833333333333
            },
            {
              "pitch": 55,
              "velocity": 78,
              "position": 10.25,
              "duration": 0.24166666666666667
            },
            {
              "pitch": 65,
              "velocity": 68,
              "position": 9.75,
              "duration": 0.7458333333333333
            },
            {
              "pitch": 60,
              "velocity": 101,
              "position": 10.5,
              "duration": 0.24166666666666667
            },
            {
              "pitch": 60,
              "velocity": 106,
              "position": 10.75,
              "duration": 0.25625
            },
            {
              "pitch": 62,
              "velocity": 80,
              "position": 11,
              "duration": 0.23958333333333334
            },
            {
              "pitch": 63,
              "velocity": 106,
              "position": 11.25,
              "duration": 0.23958333333333334
            },
            {
              "pitch": 62,
              "velocity": 79,
              "position": 11.5,
              "duration": 0.23958333333333334
            },
            {
              "pitch": 60,
              "velocity": 106,
              "position": 11.75,
              "duration": 0.23958333333333334
            },
            {
              "pitch": 56,
              "velocity": 78,
              "position": 12,
              "duration": 1.2416666666666667
            },
            {
              "pitch": 60,
              "velocity": 106,
              "position": 12.5,
              "duration": 0.8166666666666667
            },
            {
              "pitch": 56,
              "velocity": 75,
              "position": 13.25,
              "duration": 0.23125
            },
            {
              "pitch": 68,
              "velocity": 70,
              "position": 12.75,
              "duration": 1.4916666666666667
            },
            {
              "pitch": 58,
              "velocity": 73,
              "position": 13.4625,
              "duration": 2.3645833333333335
            },
            {
              "pitch": 62,
              "velocity": 66,
              "position": 13.51875,
              "duration": 2.314583333333333
            },
            {
              "pitch": 65,
              "velocity": 66,
              "position": 13.570833333333333,
              "duration": 2.325
            },
            {
              "pitch": 55,
              "velocity": 73,
              "position": 15.814583333333333,
              "duration": 3.75
            },
            {
              "pitch": 60,
              "velocity": 73,
              "position": 15.910416666666666,
              "duration": 3.752083333333333
            },
            {
              "pitch": 67,
              "velocity": 73,
              "position": 16.045833333333334,
              "duration": 3.752083333333333
            }
          ]
        },
        "8": {
          "ctab": {
            "srcChannel": 8,
            "name": "AddDrum",
            "accType": "SUBRHYTHM",
            "editable": false,
            "mutedNotes": [],
            "mutedChords": [],
            "autoStart": true,
            "sourceChordNote": 0,
            "sourceChordType": "Maj7",
            "ctb2Low": null,
            "ctb2Main": {
              "ntr": "ROOT_FIXED",
              "ntt": "BYPASS",
              "bassOn": false,
              "chordRootUpperLimit": 6,
              "noteLowLimit": 0,
              "noteHighLimit": 127,
              "rtr": "PITCH_SHIFT"
            },
            "ctb2High": null
          },
          "notes": [
            {
              "pitch": 27,
              "velocity": 100,
              "position": 0,
              "duration": 0.010416666666666666
            },
            {
              "pitch": 82,
              "velocity": 72,
              "position": 0,
              "duration": 0.010416666666666666
            },
            {
              "pitch": 70,
              "velocity": 71,
              "position": 0,
              "duration": 0.010416666666666666
            },
            {
              "pitch": 25,
              "velocity": 44,
              "position": 0.25,
              "duration": 0.010416666666666666
            },
            {
              "pitch": 70,
              "velocity": 26,
              "position": 0.25,
              "duration": 0.010416666666666666
            },
            {
              "pitch": 70,
              "velocity": 43,
              "position": 0.2708333333333333,
              "duration": 0.010416666666666666
            },
            {
              "pitch": 27,
              "velocity": 41,
              "position": 0.5,
              "duration": 0.010416666666666666
            },
            {
              "pitch": 82,
              "velocity": 40,
              "position": 0.5,
              "duration": 0.010416666666666666
            },
            {
              "pitch": 70,
              "velocity": 72,
              "position": 0.5,
              "duration": 0.010416666666666666
            },
            {
              "pitch": 25,
              "velocity": 101,
              "position": 0.75,
              "duration": 0.010416666666666666
            },
            {
              "pitch": 70,
              "velocity": 23,
              "position": 0.75,
              "duration": 0.010416666666666666
            },
            {
              "pitch": 70,
              "velocity": 43,
              "position": 0.7708333333333334,
              "duration": 0.010416666666666666
            },
            {
              "pitch": 27,
              "velocity": 100,
              "position": 1,
              "duration": 0.010416666666666666
            },
            {
              "pitch": 82,
              "velocity": 72,
              "position": 1,
              "duration": 0.010416666666666666
            },
            {
              "pitch": 70,
              "velocity": 71,
              "position": 1,
              "duration": 0.010416666666666666
            },
            {
              "pitch": 54,
              "velocity": 110,
              "position": 1,
              "duration": 0.020833333333333332
            },
            {
              "pitch": 25,
              "velocity": 40,
              "position": 1.25,
              "duration": 0.010416666666666666
            },
            {
              "pitch": 70,
              "velocity": 24,
              "position": 1.25,
              "duration": 0.010416666666666666
            },
            {
              "pitch": 70,
              "velocity": 43,
              "position": 1.2708333333333333,
              "duration": 0.010416666666666666
            },
            {
              "pitch": 27,
              "velocity": 42,
              "position": 1.5,
              "duration": 0.010416666666666666
            },
            {
              "pitch": 82,
              "velocity": 40,
              "position": 1.5,
              "duration": 0.010416666666666666
            },
            {
              "pitch": 70,
              "velocity": 72,
              "position": 1.5,
              "duration": 0.010416666666666666
            },
            {
              "pitch": 25,
              "velocity": 99,
              "position": 1.75,
              "duration": 0.010416666666666666
            },
            {
              "pitch": 70,
              "velocity": 23,
              "position": 1.75,
              "duration": 0.010416666666666666
            },
            {
              "pitch": 69,
              "velocity": 57,
              "position": 1.75,
              "duration": 0.010416666666666666
            },
            {
              "pitch": 70,
              "velocity": 43,
              "position": 1.7708333333333333,
              "duration": 0.010416666666666666
            },
            {
              "pitch": 27,
              "velocity": 44,
              "position": 2,
              "duration": 0.010416666666666666
            },
            {
              "pitch": 82,
              "velocity": 72,
              "position": 2,
              "duration": 0.010416666666666666
            },
            {
              "pitch": 70,
              "velocity": 61,
              "position": 2,
              "duration": 0.010416666666666666
            },
            {
              "pitch": 25,
              "velocity": 103,
              "position": 2.25,
              "duration": 0.010416666666666666
            },
            {
              "pitch": 70,
              "velocity": 25,
              "position": 2.25,
              "duration": 0.010416666666666666
            },
            {
              "pitch": 70,
              "velocity": 43,
              "position": 2.2708333333333335,
              "duration": 0.010416666666666666
            },
            {
              "pitch": 27,
              "velocity": 46,
              "position": 2.5,
              "duration": 0.010416666666666666
            },
            {
              "pitch": 82,
              "velocity": 40,
              "position": 2.5,
              "duration": 0.010416666666666666
            },
            {
              "pitch": 70,
              "velocity": 72,
              "position": 2.5,
              "duration": 0.010416666666666666
            },
            {
              "pitch": 25,
              "velocity": 50,
              "position": 2.75,
              "duration": 0.010416666666666666
            },
            {
              "pitch": 70,
              "velocity": 26,
              "position": 2.75,
              "duration": 0.010416666666666666
            },
            {
              "pitch": 70,
              "velocity": 43,
              "position": 2.7708333333333335,
              "duration": 0.010416666666666666
            },
            {
              "pitch": 27,
              "velocity": 100,
              "position": 3,
              "duration": 0.010416666666666666
            },
            {
              "pitch": 82,
              "velocity": 72,
              "position": 3,
              "duration": 0.010416666666666666
            },
            {
              "pitch": 70,
              "velocity": 71,
              "position": 3,
              "duration": 0.010416666666666666
            },
            {
              "pitch": 54,
              "velocity": 110,
              "position": 3,
              "duration": 0.020833333333333332
            },
            {
              "pitch": 25,
              "velocity": 46,
              "position": 3.25,
              "duration": 0.010416666666666666
            },
            {
              "pitch": 70,
              "velocity": 25,
              "position": 3.25,
              "duration": 0.010416666666666666
            },
            {
              "pitch": 70,
              "velocity": 43,
              "position": 3.2708333333333335,
              "duration": 0.010416666666666666
            },
            {
              "pitch": 27,
              "velocity": 42,
              "position": 3.5,
              "duration": 0.010416666666666666
            },
            {
              "pitch": 82,
              "velocity": 40,
              "position": 3.5,
              "duration": 0.010416666666666666
            },
            {
              "pitch": 70,
              "velocity": 72,
              "position": 3.5,
              "duration": 0.010416666666666666
            },
            {
              "pitch": 25,
              "velocity": 75,
              "position": 3.75,
              "duration": 0.010416666666666666
            },
            {
              "pitch": 70,
              "velocity": 27,
              "position": 3.75,
              "duration": 0.010416666666666666
            },
            {
              "pitch": 70,
              "velocity": 43,
              "position": 3.7708333333333335,
              "duration": 0.010416666666666666
            },
            {
              "pitch": 27,
              "velocity": 100,
              "position": 4,
              "duration": 0.010416666666666666
            },
            {
              "pitch": 82,
              "velocity": 72,
              "position": 4,
              "duration": 0.010416666666666666
            },
            {
              "pitch": 70,
              "velocity": 71,
              "position": 4,
              "duration": 0.010416666666666666
            },
            {
              "pitch": 25,
              "velocity": 43,
              "position": 4.25,
              "duration": 0.010416666666666666
            },
            {
              "pitch": 70,
              "velocity": 26,
              "position": 4.25,
              "duration": 0.010416666666666666
            },
            {
              "pitch": 70,
              "velocity": 43,
              "position": 4.270833333333333,
              "duration": 0.010416666666666666
            },
            {
              "pitch": 27,
              "velocity": 45,
              "position": 4.5,
              "duration": 0.010416666666666666
            },
            {
              "pitch": 82,
              "velocity": 40,
              "position": 4.5,
              "duration": 0.010416666666666666
            },
            {
              "pitch": 70,
              "velocity": 72,
              "position": 4.5,
              "duration": 0.010416666666666666
            },
            {
              "pitch": 25,
              "velocity": 63,
              "position": 4.75,
              "duration": 0.010416666666666666
            },
            {
              "pitch": 70,
              "velocity": 23,
              "position": 4.75,
              "duration": 0.010416666666666666
            },
            {
              "pitch": 70,
              "velocity": 43,
              "position": 4.770833333333333,
              "duration": 0.010416666666666666
            },
            {
              "pitch": 27,
              "velocity": 100,
              "position": 5,
              "duration": 0.010416666666666666
            },
            {
              "pitch": 82,
              "velocity": 72,
              "position": 5,
              "duration": 0.010416666666666666
            },
            {
              "pitch": 70,
              "velocity": 71,
              "position": 5,
              "duration": 0.010416666666666666
            },
            {
              "pitch": 54,
              "velocity": 110,
              "position": 5,
              "duration": 0.020833333333333332
            },
            {
              "pitch": 25,
              "velocity": 45,
              "position": 5.25,
              "duration": 0.010416666666666666
            },
            {
              "pitch": 70,
              "velocity": 24,
              "position": 5.25,
              "duration": 0.010416666666666666
            },
            {
              "pitch": 70,
              "velocity": 43,
              "position": 5.270833333333333,
              "duration": 0.010416666666666666
            },
            {
              "pitch": 27,
              "velocity": 50,
              "position": 5.5,
              "duration": 0.010416666666666666
            },
            {
              "pitch": 82,
              "velocity": 40,
              "position": 5.5,
              "duration": 0.010416666666666666
            },
            {
              "pitch": 70,
              "velocity": 72,
              "position": 5.5,
              "duration": 0.010416666666666666
            },
            {
              "pitch": 69,
              "velocity": 35,
              "position": 5.5,
              "duration": 0.010416666666666666
            },
            {
              "pitch": 25,
              "velocity": 104,
              "position": 5.75,
              "duration": 0.010416666666666666
            },
            {
              "pitch": 70,
              "velocity": 23,
              "position": 5.75,
              "duration": 0.010416666666666666
            },
            {
              "pitch": 69,
              "velocity": 67,
              "position": 5.75,
              "duration": 0.010416666666666666
            },
            {
              "pitch": 70,
              "velocity": 43,
              "position": 5.770833333333333,
              "duration": 0.010416666666666666
            },
            {
              "pitch": 27,
              "velocity": 43,
              "position": 6,
              "duration": 0.010416666666666666
            },
            {
              "pitch": 82,
              "velocity": 72,
              "position": 6,
              "duration": 0.010416666666666666
            },
            {
              "pitch": 70,
              "velocity": 61,
              "position": 6,
              "duration": 0.010416666666666666
            },
            {
              "pitch": 25,
              "velocity": 96,
              "position": 6.25,
              "duration": 0.010416666666666666
            },
            {
              "pitch": 70,
              "velocity": 25,
              "position": 6.25,
              "duration": 0.010416666666666666
            },
            {
              "pitch": 70,
              "velocity": 43,
              "position": 6.270833333333333,
              "duration": 0.010416666666666666
            },
            {
              "pitch": 27,
              "velocity": 42,
              "position": 6.5,
              "duration": 0.010416666666666666
            },
            {
              "pitch": 82,
              "velocity": 40,
              "position": 6.5,
              "duration": 0.010416666666666666
            },
            {
              "pitch": 70,
              "velocity": 72,
              "position": 6.5,
              "duration": 0.010416666666666666
            },
            {
              "pitch": 25,
              "velocity": 60,
              "position": 6.75,
              "duration": 0.010416666666666666
            },
            {
              "pitch": 70,
              "velocity": 26,
              "position": 6.75,
              "duration": 0.010416666666666666
            },
            {
              "pitch": 70,
              "velocity": 43,
              "position": 6.770833333333333,
              "duration": 0.010416666666666666
            },
            {
              "pitch": 27,
              "velocity": 100,
              "position": 7,
              "duration": 0.010416666666666666
            },
            {
              "pitch": 82,
              "velocity": 72,
              "position": 7,
              "duration": 0.010416666666666666
            },
            {
              "pitch": 70,
              "velocity": 71,
              "position": 7,
              "duration": 0.010416666666666666
            },
            {
              "pitch": 54,
              "velocity": 110,
              "position": 7,
              "duration": 0.020833333333333332
            },
            {
              "pitch": 25,
              "velocity": 48,
              "position": 7.25,
              "duration": 0.010416666666666666
            },
            {
              "pitch": 70,
              "velocity": 25,
              "position": 7.25,
              "duration": 0.010416666666666666
            },
            {
              "pitch": 70,
              "velocity": 43,
              "position": 7.270833333333333,
              "duration": 0.010416666666666666
            },
            {
              "pitch": 27,
              "velocity": 46,
              "position": 7.5,
              "duration": 0.010416666666666666
            },
            {
              "pitch": 82,
              "velocity": 40,
              "position": 7.5,
              "duration": 0.010416666666666666
            },
            {
              "pitch": 70,
              "velocity": 72,
              "position": 7.5,
              "duration": 0.010416666666666666
            },
            {
              "pitch": 25,
              "velocity": 46,
              "position": 7.75,
              "duration": 0.010416666666666666
            },
            {
              "pitch": 70,
              "velocity": 27,
              "position": 7.75,
              "duration": 0.010416666666666666
            },
            {
              "pitch": 70,
              "velocity": 43,
              "position": 7.770833333333333,
              "duration": 0.010416666666666666
            },
            {
              "pitch": 27,
              "velocity": 100,
              "position": 8,
              "duration": 0.010416666666666666
            },
            {
              "pitch": 82,
              "velocity": 72,
              "position": 8,
              "duration": 0.010416666666666666
            },
            {
              "pitch": 70,
              "velocity": 71,
              "position": 8,
              "duration": 0.010416666666666666
            },
            {
              "pitch": 25,
              "velocity": 44,
              "position": 8.25,
              "duration": 0.010416666666666666
            },
            {
              "pitch": 70,
              "velocity": 26,
              "position": 8.25,
              "duration": 0.010416666666666666
            },
            {
              "pitch": 70,
              "velocity": 43,
              "position": 8.270833333333334,
              "duration": 0.010416666666666666
            },
            {
              "pitch": 27,
              "velocity": 41,
              "position": 8.5,
              "duration": 0.010416666666666666
            },
            {
              "pitch": 82,
              "velocity": 40,
              "position": 8.5,
              "duration": 0.010416666666666666
            },
            {
              "pitch": 70,
              "velocity": 72,
              "position": 8.5,
              "duration": 0.010416666666666666
            },
            {
              "pitch": 25,
              "velocity": 101,
              "position": 8.75,
              "duration": 0.010416666666666666
            },
            {
              "pitch": 70,
              "velocity": 23,
              "position": 8.75,
              "duration": 0.010416666666666666
            },
            {
              "pitch": 70,
              "velocity": 43,
              "position": 8.770833333333334,
              "duration": 0.010416666666666666
            },
            {
              "pitch": 27,
              "velocity": 100,
              "position": 9,
              "duration": 0.010416666666666666
            },
            {
              "pitch": 82,
              "velocity": 72,
              "position": 9,
              "duration": 0.010416666666666666
            },
            {
              "pitch": 70,
              "velocity": 71,
              "position": 9,
              "duration": 0.010416666666666666
            },
            {
              "pitch": 54,
              "velocity": 110,
              "position": 9,
              "duration": 0.020833333333333332
            },
            {
              "pitch": 25,
              "velocity": 40,
              "position": 9.25,
              "duration": 0.010416666666666666
            },
            {
              "pitch": 70,
              "velocity": 24,
              "position": 9.25,
              "duration": 0.010416666666666666
            },
            {
              "pitch": 70,
              "velocity": 43,
              "position": 9.270833333333334,
              "duration": 0.010416666666666666
            },
            {
              "pitch": 27,
              "velocity": 42,
              "position": 9.5,
              "duration": 0.010416666666666666
            },
            {
              "pitch": 82,
              "velocity": 40,
              "position": 9.5,
              "duration": 0.010416666666666666
            },
            {
              "pitch": 70,
              "velocity": 72,
              "position": 9.5,
              "duration": 0.010416666666666666
            },
            {
              "pitch": 25,
              "velocity": 99,
              "position": 9.75,
              "duration": 0.010416666666666666
            },
            {
              "pitch": 70,
              "velocity": 23,
              "position": 9.75,
              "duration": 0.010416666666666666
            },
            {
              "pitch": 69,
              "velocity": 57,
              "position": 9.75,
              "duration": 0.010416666666666666
            },
            {
              "pitch": 70,
              "velocity": 43,
              "position": 9.770833333333334,
              "duration": 0.010416666666666666
            },
            {
              "pitch": 27,
              "velocity": 44,
              "position": 10,
              "duration": 0.010416666666666666
            },
            {
              "pitch": 82,
              "velocity": 72,
              "position": 10,
              "duration": 0.010416666666666666
            },
            {
              "pitch": 70,
              "velocity": 61,
              "position": 10,
              "duration": 0.010416666666666666
            },
            {
              "pitch": 25,
              "velocity": 103,
              "position": 10.25,
              "duration": 0.010416666666666666
            },
            {
              "pitch": 70,
              "velocity": 25,
              "position": 10.25,
              "duration": 0.010416666666666666
            },
            {
              "pitch": 70,
              "velocity": 43,
              "position": 10.270833333333334,
              "duration": 0.010416666666666666
            },
            {
              "pitch": 27,
              "velocity": 46,
              "position": 10.5,
              "duration": 0.010416666666666666
            },
            {
              "pitch": 82,
              "velocity": 40,
              "position": 10.5,
              "duration": 0.010416666666666666
            },
            {
              "pitch": 70,
              "velocity": 72,
              "position": 10.5,
              "duration": 0.010416666666666666
            },
            {
              "pitch": 25,
              "velocity": 50,
              "position": 10.75,
              "duration": 0.010416666666666666
            },
            {
              "pitch": 70,
              "velocity": 26,
              "position": 10.75,
              "duration": 0.010416666666666666
            },
            {
              "pitch": 70,
              "velocity": 43,
              "position": 10.770833333333334,
              "duration": 0.010416666666666666
            },
            {
              "pitch": 27,
              "velocity": 100,
              "position": 11,
              "duration": 0.010416666666666666
            },
            {
              "pitch": 82,
              "velocity": 72,
              "position": 11,
              "duration": 0.010416666666666666
            },
            {
              "pitch": 70,
              "velocity": 71,
              "position": 11,
              "duration": 0.010416666666666666
            },
            {
              "pitch": 54,
              "velocity": 110,
              "position": 11,
              "duration": 0.020833333333333332
            },
            {
              "pitch": 25,
              "velocity": 46,
              "position": 11.25,
              "duration": 0.010416666666666666
            },
            {
              "pitch": 70,
              "velocity": 25,
              "position": 11.25,
              "duration": 0.010416666666666666
            },
            {
              "pitch": 70,
              "velocity": 43,
              "position": 11.270833333333334,
              "duration": 0.010416666666666666
            },
            {
              "pitch": 27,
              "velocity": 42,
              "position": 11.5,
              "duration": 0.010416666666666666
            },
            {
              "pitch": 82,
              "velocity": 40,
              "position": 11.5,
              "duration": 0.010416666666666666
            },
            {
              "pitch": 70,
              "velocity": 72,
              "position": 11.5,
              "duration": 0.010416666666666666
            },
            {
              "pitch": 25,
              "velocity": 75,
              "position": 11.75,
              "duration": 0.010416666666666666
            },
            {
              "pitch": 70,
              "velocity": 27,
              "position": 11.75,
              "duration": 0.010416666666666666
            },
            {
              "pitch": 70,
              "velocity": 43,
              "position": 11.770833333333334,
              "duration": 0.010416666666666666
            },
            {
              "pitch": 27,
              "velocity": 100,
              "position": 12,
              "duration": 0.010416666666666666
            },
            {
              "pitch": 82,
              "velocity": 72,
              "position": 12,
              "duration": 0.010416666666666666
            },
            {
              "pitch": 70,
              "velocity": 71,
              "position": 12,
              "duration": 0.010416666666666666
            },
            {
              "pitch": 25,
              "velocity": 44,
              "position": 12.25,
              "duration": 0.010416666666666666
            },
            {
              "pitch": 70,
              "velocity": 26,
              "position": 12.25,
              "duration": 0.010416666666666666
            },
            {
              "pitch": 70,
              "velocity": 43,
              "position": 12.270833333333334,
              "duration": 0.010416666666666666
            },
            {
              "pitch": 27,
              "velocity": 41,
              "position": 12.5,
              "duration": 0.010416666666666666
            },
            {
              "pitch": 82,
              "velocity": 40,
              "position": 12.5,
              "duration": 0.010416666666666666
            },
            {
              "pitch": 70,
              "velocity": 72,
              "position": 12.5,
              "duration": 0.010416666666666666
            },
            {
              "pitch": 25,
              "velocity": 101,
              "position": 12.75,
              "duration": 0.010416666666666666
            },
            {
              "pitch": 70,
              "velocity": 23,
              "position": 12.75,
              "duration": 0.010416666666666666
            },
            {
              "pitch": 70,
              "velocity": 43,
              "position": 12.770833333333334,
              "duration": 0.010416666666666666
            },
            {
              "pitch": 27,
              "velocity": 100,
              "position": 13,
              "duration": 0.010416666666666666
            },
            {
              "pitch": 82,
              "velocity": 72,
              "position": 13,
              "duration": 0.010416666666666666
            },
            {
              "pitch": 70,
              "velocity": 71,
              "position": 13,
              "duration": 0.010416666666666666
            },
            {
              "pitch": 54,
              "velocity": 110,
              "position": 13,
              "duration": 0.020833333333333332
            },
            {
              "pitch": 25,
              "velocity": 40,
              "position": 13.25,
              "duration": 0.010416666666666666
            },
            {
              "pitch": 70,
              "velocity": 24,
              "position": 13.25,
              "duration": 0.010416666666666666
            },
            {
              "pitch": 70,
              "velocity": 43,
              "position": 13.270833333333334,
              "duration": 0.010416666666666666
            },
            {
              "pitch": 27,
              "velocity": 42,
              "position": 13.5,
              "duration": 0.010416666666666666
            },
            {
              "pitch": 82,
              "velocity": 40,
              "position": 13.5,
              "duration": 0.010416666666666666
            },
            {
              "pitch": 70,
              "velocity": 72,
              "position": 13.5,
              "duration": 0.010416666666666666
            },
            {
              "pitch": 25,
              "velocity": 99,
              "position": 13.75,
              "duration": 0.010416666666666666
            },
            {
              "pitch": 70,
              "velocity": 23,
              "position": 13.75,
              "duration": 0.010416666666666666
            },
            {
              "pitch": 69,
              "velocity": 57,
              "position": 13.75,
              "duration": 0.010416666666666666
            },
            {
              "pitch": 70,
              "velocity": 43,
              "position": 13.770833333333334,
              "duration": 0.010416666666666666
            },
            {
              "pitch": 27,
              "velocity": 44,
              "position": 14,
              "duration": 0.010416666666666666
            },
            {
              "pitch": 82,
              "velocity": 72,
              "position": 14,
              "duration": 0.010416666666666666
            },
            {
              "pitch": 70,
              "velocity": 61,
              "position": 14,
              "duration": 0.010416666666666666
            },
            {
              "pitch": 25,
              "velocity": 103,
              "position": 14.25,
              "duration": 0.010416666666666666
            },
            {
              "pitch": 70,
              "velocity": 25,
              "position": 14.25,
              "duration": 0.010416666666666666
            },
            {
              "pitch": 70,
              "velocity": 43,
              "position": 14.270833333333334,
              "duration": 0.010416666666666666
            },
            {
              "pitch": 27,
              "velocity": 46,
              "position": 14.5,
              "duration": 0.010416666666666666
            },
            {
              "pitch": 82,
              "velocity": 40,
              "position": 14.5,
              "duration": 0.010416666666666666
            },
            {
              "pitch": 70,
              "velocity": 72,
              "position": 14.5,
              "duration": 0.010416666666666666
            },
            {
              "pitch": 25,
              "velocity": 50,
              "position": 14.75,
              "duration": 0.010416666666666666
            },
            {
              "pitch": 70,
              "velocity": 26,
              "position": 14.75,
              "duration": 0.010416666666666666
            },
            {
              "pitch": 70,
              "velocity": 43,
              "position": 14.770833333333334,
              "duration": 0.010416666666666666
            },
            {
              "pitch": 27,
              "velocity": 100,
              "position": 15,
              "duration": 0.010416666666666666
            },
            {
              "pitch": 82,
              "velocity": 72,
              "position": 15,
              "duration": 0.010416666666666666
            },
            {
              "pitch": 70,
              "velocity": 71,
              "position": 15,
              "duration": 0.010416666666666666
            },
            {
              "pitch": 54,
              "velocity": 110,
              "position": 15,
              "duration": 0.020833333333333332
            },
            {
              "pitch": 25,
              "velocity": 46,
              "position": 15.25,
              "duration": 0.010416666666666666
            },
            {
              "pitch": 70,
              "velocity": 25,
              "position": 15.25,
              "duration": 0.010416666666666666
            },
            {
              "pitch": 70,
              "velocity": 43,
              "position": 15.270833333333334,
              "duration": 0.010416666666666666
            },
            {
              "pitch": 27,
              "velocity": 42,
              "position": 15.5,
              "duration": 0.010416666666666666
            },
            {
              "pitch": 82,
              "velocity": 40,
              "position": 15.5,
              "duration": 0.010416666666666666
            },
            {
              "pitch": 70,
              "velocity": 72,
              "position": 15.5,
              "duration": 0.010416666666666666
            },
            {
              "pitch": 25,
              "velocity": 75,
              "position": 15.75,
              "duration": 0.010416666666666666
            },
            {
              "pitch": 70,
              "velocity": 27,
              "position": 15.75,
              "duration": 0.010416666666666666
            },
            {
              "pitch": 70,
              "velocity": 43,
              "position": 15.770833333333334,
              "duration": 0.010416666666666666
            }
          ]
        },
        "9": {
          "ctab": {
            "srcChannel": 9,
            "name": "MainDrum",
            "accType": "RHYTHM",
            "editable": false,
            "mutedNotes": [],
            "mutedChords": [],
            "autoStart": true,
            "sourceChordNote": 0,
            "sourceChordType": "Maj7",
            "ctb2Low": null,
            "ctb2Main": {
              "ntr": "ROOT_FIXED",
              "ntt": "BYPASS",
              "bassOn": false,
              "chordRootUpperLimit": 6,
              "noteLowLimit": 0,
              "noteHighLimit": 127,
              "rtr": "PITCH_SHIFT"
            },
            "ctb2High": null
          },
          "notes": [
            {
              "pitch": 36,
              "velocity": 98,
              "position": 0,
              "duration": 0.010416666666666666
            },
            {
              "pitch": 49,
              "velocity": 50,
              "position": 0,
              "duration": 0.010416666666666666
            },
            {
              "pitch": 42,
              "velocity": 37,
              "position": 0.25,
              "duration": 0.010416666666666666
            },
            {
              "pitch": 40,
              "velocity": 27,
              "position": 0.25,
              "duration": 0.020833333333333332
            },
            {
              "pitch": 44,
              "velocity": 69,
              "position": 0.5,
              "duration": 0.010416666666666666
            },
            {
              "pitch": 42,
              "velocity": 37,
              "position": 0.75,
              "duration": 0.010416666666666666
            },
            {
              "pitch": 40,
              "velocity": 27,
              "position": 0.75,
              "duration": 0.020833333333333332
            },
            {
              "pitch": 42,
              "velocity": 69,
              "position": 1,
              "duration": 0.010416666666666666
            },
            {
              "pitch": 40,
              "velocity": 87,
              "position": 1,
              "duration": 0.020833333333333332
            },
            {
              "pitch": 42,
              "velocity": 37,
              "position": 1.25,
              "duration": 0.010416666666666666
            },
            {
              "pitch": 40,
              "velocity": 27,
              "position": 1.25,
              "duration": 0.020833333333333332
            },
            {
              "pitch": 36,
              "velocity": 98,
              "position": 1.5,
              "duration": 0.010416666666666666
            },
            {
              "pitch": 44,
              "velocity": 69,
              "position": 1.5,
              "duration": 0.010416666666666666
            },
            {
              "pitch": 42,
              "velocity": 37,
              "position": 1.75,
              "duration": 0.010416666666666666
            },
            {
              "pitch": 40,
              "velocity": 27,
              "position": 1.75,
              "duration": 0.020833333333333332
            },
            {
              "pitch": 42,
              "velocity": 69,
              "position": 2,
              "duration": 0.010416666666666666
            },
            {
              "pitch": 42,
              "velocity": 37,
              "position": 2.25,
              "duration": 0.010416666666666666
            },
            {
              "pitch": 40,
              "velocity": 27,
              "position": 2.25,
              "duration": 0.020833333333333332
            },
            {
              "pitch": 36,
              "velocity": 61,
              "position": 2.2708333333333335,
              "duration": 0.010416666666666666
            },
            {
              "pitch": 36,
              "velocity": 76,
              "position": 2.5,
              "duration": 0.010416666666666666
            },
            {
              "pitch": 44,
              "velocity": 69,
              "position": 2.5,
              "duration": 0.010416666666666666
            },
            {
              "pitch": 42,
              "velocity": 37,
              "position": 2.75,
              "duration": 0.010416666666666666
            },
            {
              "pitch": 40,
              "velocity": 32,
              "position": 2.75,
              "duration": 0.020833333333333332
            },
            {
              "pitch": 42,
              "velocity": 69,
              "position": 3,
              "duration": 0.010416666666666666
            },
            {
              "pitch": 40,
              "velocity": 87,
              "position": 3,
              "duration": 0.020833333333333332
            },
            {
              "pitch": 42,
              "velocity": 37,
              "position": 3.125,
              "duration": 0.010416666666666666
            },
            {
              "pitch": 42,
              "velocity": 37,
              "position": 3.25,
              "duration": 0.010416666666666666
            },
            {
              "pitch": 42,
              "velocity": 37,
              "position": 3.375,
              "duration": 0.010416666666666666
            },
            {
              "pitch": 44,
              "velocity": 69,
              "position": 3.5,
              "duration": 0.010416666666666666
            },
            {
              "pitch": 46,
              "velocity": 37,
              "position": 3.75,
              "duration": 0.010416666666666666
            },
            {
              "pitch": 36,
              "velocity": 98,
              "position": 4,
              "duration": 0.010416666666666666
            },
            {
              "pitch": 42,
              "velocity": 69,
              "position": 4,
              "duration": 0.010416666666666666
            },
            {
              "pitch": 42,
              "velocity": 37,
              "position": 4.25,
              "duration": 0.010416666666666666
            },
            {
              "pitch": 40,
              "velocity": 27,
              "position": 4.25,
              "duration": 0.020833333333333332
            },
            {
              "pitch": 44,
              "velocity": 69,
              "position": 4.5,
              "duration": 0.010416666666666666
            },
            {
              "pitch": 42,
              "velocity": 37,
              "position": 4.75,
              "duration": 0.010416666666666666
            },
            {
              "pitch": 40,
              "velocity": 27,
              "position": 4.75,
              "duration": 0.020833333333333332
            },
            {
              "pitch": 42,
              "velocity": 69,
              "position": 5,
              "duration": 0.010416666666666666
            },
            {
              "pitch": 40,
              "velocity": 87,
              "position": 5,
              "duration": 0.020833333333333332
            },
            {
              "pitch": 42,
              "velocity": 37,
              "position": 5.25,
              "duration": 0.010416666666666666
            },
            {
              "pitch": 40,
              "velocity": 27,
              "position": 5.25,
              "duration": 0.020833333333333332
            },
            {
              "pitch": 36,
              "velocity": 98,
              "position": 5.5,
              "duration": 0.010416666666666666
            },
            {
              "pitch": 44,
              "velocity": 69,
              "position": 5.5,
              "duration": 0.010416666666666666
            },
            {
              "pitch": 42,
              "velocity": 37,
              "position": 5.75,
              "duration": 0.010416666666666666
            },
            {
              "pitch": 40,
              "velocity": 27,
              "position": 5.75,
              "duration": 0.020833333333333332
            },
            {
              "pitch": 42,
              "velocity": 69,
              "position": 6,
              "duration": 0.010416666666666666
            },
            {
              "pitch": 42,
              "velocity": 37,
              "position": 6.25,
              "duration": 0.010416666666666666
            },
            {
              "pitch": 40,
              "velocity": 27,
              "position": 6.25,
              "duration": 0.020833333333333332
            },
            {
              "pitch": 36,
              "velocity": 76,
              "position": 6.270833333333333,
              "duration": 0.010416666666666666
            },
            {
              "pitch": 36,
              "velocity": 79,
              "position": 6.5,
              "duration": 0.010416666666666666
            },
            {
              "pitch": 44,
              "velocity": 69,
              "position": 6.5,
              "duration": 0.010416666666666666
            },
            {
              "pitch": 40,
              "velocity": 87,
              "position": 6.5,
              "duration": 0.020833333333333332
            },
            {
              "pitch": 42,
              "velocity": 37,
              "position": 6.75,
              "duration": 0.010416666666666666
            },
            {
              "pitch": 40,
              "velocity": 32,
              "position": 6.75,
              "duration": 0.020833333333333332
            },
            {
              "pitch": 42,
              "velocity": 69,
              "position": 7,
              "duration": 0.010416666666666666
            },
            {
              "pitch": 40,
              "velocity": 87,
              "position": 7,
              "duration": 0.020833333333333332
            },
            {
              "pitch": 42,
              "velocity": 37,
              "position": 7.25,
              "duration": 0.010416666666666666
            },
            {
              "pitch": 44,
              "velocity": 69,
              "position": 7.5,
              "duration": 0.010416666666666666
            },
            {
              "pitch": 46,
              "velocity": 37,
              "position": 7.75,
              "duration": 0.010416666666666666
            },
            {
              "pitch": 40,
              "velocity": 58,
              "position": 7.75,
              "duration": 0.020833333333333332
            },
            {
              "pitch": 36,
              "velocity": 98,
              "position": 8,
              "duration": 0.010416666666666666
            },
            {
              "pitch": 55,
              "velocity": 47,
              "position": 8,
              "duration": 0.010416666666666666
            },
            {
              "pitch": 42,
              "velocity": 69,
              "position": 8,
              "duration": 0.010416666666666666
            },
            {
              "pitch": 42,
              "velocity": 37,
              "position": 8.25,
              "duration": 0.010416666666666666
            },
            {
              "pitch": 40,
              "velocity": 31,
              "position": 8.25,
              "duration": 0.020833333333333332
            },
            {
              "pitch": 44,
              "velocity": 69,
              "position": 8.5,
              "duration": 0.010416666666666666
            },
            {
              "pitch": 42,
              "velocity": 37,
              "position": 8.75,
              "duration": 0.010416666666666666
            },
            {
              "pitch": 40,
              "velocity": 31,
              "position": 8.75,
              "duration": 0.020833333333333332
            },
            {
              "pitch": 42,
              "velocity": 69,
              "position": 9,
              "duration": 0.010416666666666666
            },
            {
              "pitch": 40,
              "velocity": 87,
              "position": 9,
              "duration": 0.020833333333333332
            },
            {
              "pitch": 42,
              "velocity": 37,
              "position": 9.25,
              "duration": 0.010416666666666666
            },
            {
              "pitch": 40,
              "velocity": 31,
              "position": 9.25,
              "duration": 0.020833333333333332
            },
            {
              "pitch": 36,
              "velocity": 98,
              "position": 9.5,
              "duration": 0.010416666666666666
            },
            {
              "pitch": 44,
              "velocity": 69,
              "position": 9.5,
              "duration": 0.010416666666666666
            },
            {
              "pitch": 42,
              "velocity": 37,
              "position": 9.75,
              "duration": 0.010416666666666666
            },
            {
              "pitch": 40,
              "velocity": 31,
              "position": 9.75,
              "duration": 0.020833333333333332
            },
            {
              "pitch": 42,
              "velocity": 69,
              "position": 10,
              "duration": 0.010416666666666666
            },
            {
              "pitch": 42,
              "velocity": 37,
              "position": 10.25,
              "duration": 0.010416666666666666
            },
            {
              "pitch": 40,
              "velocity": 31,
              "position": 10.25,
              "duration": 0.020833333333333332
            },
            {
              "pitch": 36,
              "velocity": 61,
              "position": 10.270833333333334,
              "duration": 0.010416666666666666
            },
            {
              "pitch": 36,
              "velocity": 76,
              "position": 10.5,
              "duration": 0.010416666666666666
            },
            {
              "pitch": 44,
              "velocity": 69,
              "position": 10.5,
              "duration": 0.010416666666666666
            },
            {
              "pitch": 42,
              "velocity": 37,
              "position": 10.75,
              "duration": 0.010416666666666666
            },
            {
              "pitch": 40,
              "velocity": 36,
              "position": 10.75,
              "duration": 0.020833333333333332
            },
            {
              "pitch": 42,
              "velocity": 69,
              "position": 11,
              "duration": 0.010416666666666666
            },
            {
              "pitch": 40,
              "velocity": 87,
              "position": 11,
              "duration": 0.020833333333333332
            },
            {
              "pitch": 42,
              "velocity": 37,
              "position": 11.25,
              "duration": 0.010416666666666666
            },
            {
              "pitch": 44,
              "velocity": 69,
              "position": 11.5,
              "duration": 0.010416666666666666
            },
            {
              "pitch": 46,
              "velocity": 37,
              "position": 11.75,
              "duration": 0.010416666666666666
            },
            {
              "pitch": 36,
              "velocity": 98,
              "position": 12,
              "duration": 0.010416666666666666
            },
            {
              "pitch": 57,
              "velocity": 48,
              "position": 12,
              "duration": 0.010416666666666666
            },
            {
              "pitch": 40,
              "velocity": 31,
              "position": 12.25,
              "duration": 0.020833333333333332
            },
            {
              "pitch": 44,
              "velocity": 69,
              "position": 12.5,
              "duration": 0.010416666666666666
            },
            {
              "pitch": 47,
              "velocity": 71,
              "position": 12.5,
              "duration": 0.020833333333333332
            },
            {
              "pitch": 42,
              "velocity": 37,
              "position": 12.75,
              "duration": 0.010416666666666666
            },
            {
              "pitch": 40,
              "velocity": 31,
              "position": 12.75,
              "duration": 0.020833333333333332
            },
            {
              "pitch": 42,
              "velocity": 69,
              "position": 13,
              "duration": 0.010416666666666666
            },
            {
              "pitch": 40,
              "velocity": 87,
              "position": 13,
              "duration": 0.020833333333333332
            },
            {
              "pitch": 42,
              "velocity": 37,
              "position": 13.25,
              "duration": 0.010416666666666666
            },
            {
              "pitch": 45,
              "velocity": 71,
              "position": 13.25,
              "duration": 0.020833333333333332
            },
            {
              "pitch": 36,
              "velocity": 98,
              "position": 13.5,
              "duration": 0.010416666666666666
            },
            {
              "pitch": 57,
              "velocity": 48,
              "position": 13.5,
              "duration": 0.010416666666666666
            },
            {
              "pitch": 44,
              "velocity": 69,
              "position": 13.5,
              "duration": 0.010416666666666666
            },
            {
              "pitch": 42,
              "velocity": 37,
              "position": 13.75,
              "duration": 0.010416666666666666
            },
            {
              "pitch": 40,
              "velocity": 31,
              "position": 13.75,
              "duration": 0.020833333333333332
            },
            {
              "pitch": 42,
              "velocity": 69,
              "position": 14,
              "duration": 0.010416666666666666
            },
            {
              "pitch": 43,
              "velocity": 71,
              "position": 14,
              "duration": 0.020833333333333332
            },
            {
              "pitch": 42,
              "velocity": 37,
              "position": 14.25,
              "duration": 0.010416666666666666
            },
            {
              "pitch": 40,
              "velocity": 31,
              "position": 14.25,
              "duration": 0.020833333333333332
            },
            {
              "pitch": 36,
              "velocity": 76,
              "position": 14.270833333333334,
              "duration": 0.010416666666666666
            },
            {
              "pitch": 36,
              "velocity": 79,
              "position": 14.5,
              "duration": 0.010416666666666666
            },
            {
              "pitch": 44,
              "velocity": 69,
              "position": 14.5,
              "duration": 0.010416666666666666
            },
            {
              "pitch": 40,
              "velocity": 22,
              "position": 14.625,
              "duration": 0.020833333333333332
            },
            {
              "pitch": 42,
              "velocity": 37,
              "position": 14.75,
              "duration": 0.010416666666666666
            },
            {
              "pitch": 40,
              "velocity": 29,
              "position": 14.75,
              "duration": 0.020833333333333332
            },
            {
              "pitch": 40,
              "velocity": 36,
              "position": 14.875,
              "duration": 0.020833333333333332
            },
            {
              "pitch": 42,
              "velocity": 69,
              "position": 15,
              "duration": 0.010416666666666666
            },
            {
              "pitch": 40,
              "velocity": 94,
              "position": 15,
              "duration": 0.020833333333333332
            },
            {
              "pitch": 42,
              "velocity": 37,
              "position": 15.25,
              "duration": 0.010416666666666666
            },
            {
              "pitch": 40,
              "velocity": 90,
              "position": 15.25,
              "duration": 0.020833333333333332
            },
            {
              "pitch": 46,
              "velocity": 50,
              "position": 15.5,
              "duration": 0.010416666666666666
            },
            {
              "pitch": 41,
              "velocity": 76,
              "position": 15.5,
              "duration": 0.020833333333333332
            },
            {
              "pitch": 40,
              "velocity": 48,
              "position": 15.75,
              "duration": 0.020833333333333332
            },
            {
              "pitch": 36,
              "velocity": 98,
              "position": 16,
              "duration": 0.010416666666666666
            },
            {
              "pitch": 49,
              "velocity": 47,
              "position": 16,
              "duration": 0.010416666666666666
            }
          ]
        },
        "10": {
          "ctab": {
            "srcChannel": 10,
            "name": "Bass Maj",
            "accType": "BASS",
            "editable": false,
            "mutedNotes": [],
            "mutedChords": [
              "dim7",
              "dim",
              "minMaj7(9)",
              "minMaj7",
              "min7(11)",
              "min7(9)",
              "min(9)",
              "m7b5",
              "min7",
              "min6",
              "min"
            ],
            "autoStart": false,
            "sourceChordNote": 0,
            "sourceChordType": "Maj",
            "ctb2Low": null,
            "ctb2Main": {
              "ntr": "ROOT_TRANSPOSITION",
              "ntt": "BYPASS",
              "bassOn": false,
              "chordRootUpperLimit": 3,
              "noteLowLimit": 28,
              "noteHighLimit": 127,
              "rtr": "PITCH_SHIFT"
            },
            "ctb2High": null
          },
          "notes": [
            {
              "pitch": 36,
              "velocity": 92,
              "position": 0,
              "duration": 0.4895833333333333
            },
            {
              "pitch": 36,
              "velocity": 70,
              "position": 0.5,
              "duration": 0.4895833333333333
            },
            {
              "pitch": 36,
              "velocity": 80,
              "position": 1,
              "duration": 0.4270833333333333
            },
            {
              "pitch": 36,
              "velocity": 63,
              "position": 1.5208333333333333,
              "duration": 0.23958333333333334
            },
            {
              "pitch": 36,
              "velocity": 81,
              "position": 1.7708333333333333,
              "duration": 0.4895833333333333
            },
            {
              "pitch": 36,
              "velocity": 52,
              "position": 2.2708333333333335,
              "duration": 0.21875
            },
            {
              "pitch": 36,
              "velocity": 81,
              "position": 2.5,
              "duration": 0.9166666666666666
            },
            {
              "pitch": 36,
              "velocity": 80,
              "position": 3.5,
              "duration": 0.20833333333333334
            },
            {
              "pitch": 36,
              "velocity": 80,
              "position": 3.7708333333333335,
              "duration": 0.21875
            },
            {
              "pitch": 29,
              "velocity": 92,
              "position": 4,
              "duration": 0.4895833333333333
            },
            {
              "pitch": 29,
              "velocity": 80,
              "position": 4.5,
              "duration": 0.4895833333333333
            },
            {
              "pitch": 29,
              "velocity": 80,
              "position": 5,
              "duration": 0.4270833333333333
            },
            {
              "pitch": 29,
              "velocity": 80,
              "position": 5.520833333333333,
              "duration": 0.23958333333333334
            },
            {
              "pitch": 29,
              "velocity": 81,
              "position": 5.770833333333333,
              "duration": 0.4895833333333333
            },
            {
              "pitch": 29,
              "velocity": 80,
              "position": 6.270833333333333,
              "duration": 0.21875
            },
            {
              "pitch": 29,
              "velocity": 81,
              "position": 6.5,
              "duration": 0.4895833333333333
            },
            {
              "pitch": 41,
              "velocity": 80,
              "position": 7,
              "duration": 0.5104166666666666
            },
            {
              "pitch": 38,
              "velocity": 80,
              "position": 7.520833333333333,
              "duration": 0.46875
            },
            {
              "pitch": 36,
              "velocity": 92,
              "position": 8,
              "duration": 0.4895833333333333
            },
            {
              "pitch": 36,
              "velocity": 80,
              "position": 8.5,
              "duration": 0.4895833333333333
            },
            {
              "pitch": 36,
              "velocity": 80,
              "position": 9,
              "duration": 0.4270833333333333
            },
            {
              "pitch": 36,
              "velocity": 80,
              "position": 9.520833333333334,
              "duration": 0.23958333333333334
            },
            {
              "pitch": 36,
              "velocity": 81,
              "position": 9.770833333333334,
              "duration": 0.4895833333333333
            },
            {
              "pitch": 36,
              "velocity": 80,
              "position": 10.270833333333334,
              "duration": 0.21875
            },
            {
              "pitch": 36,
              "velocity": 81,
              "position": 10.5,
              "duration": 0.9166666666666666
            },
            {
              "pitch": 36,
              "velocity": 80,
              "position": 11.5,
              "duration": 0.20833333333333334
            },
            {
              "pitch": 36,
              "velocity": 80,
              "position": 11.770833333333334,
              "duration": 0.21875
            },
            {
              "pitch": 29,
              "velocity": 92,
              "position": 12,
              "duration": 0.4895833333333333
            },
            {
              "pitch": 29,
              "velocity": 80,
              "position": 12.5,
              "duration": 0.4895833333333333
            },
            {
              "pitch": 29,
              "velocity": 80,
              "position": 13,
              "duration": 0.4270833333333333
            },
            {
              "pitch": 29,
              "velocity": 80,
              "position": 13.520833333333334,
              "duration": 0.23958333333333334
            },
            {
              "pitch": 29,
              "velocity": 81,
              "position": 13.770833333333334,
              "duration": 0.4895833333333333
            },
            {
              "pitch": 29,
              "velocity": 80,
              "position": 14.270833333333334,
              "duration": 0.21875
            },
            {
              "pitch": 29,
              "velocity": 81,
              "position": 14.5,
              "duration": 0.4895833333333333
            },
            {
              "pitch": 31,
              "velocity": 81,
              "position": 15,
              "duration": 0.9895833333333334
            },
            {
              "pitch": 36,
              "velocity": 81,
              "position": 16,
              "duration": 3.9895833333333335
            }
          ]
        },
        "11": {
          "ctab": {
            "srcChannel": 11,
            "name": "12st Maj",
            "accType": "CHORD1",
            "editable": false,
            "mutedNotes": [],
            "mutedChords": [
              "dim7",
              "dim",
              "minMaj7(9)",
              "minMaj7",
              "min7(11)",
              "min7(9)",
              "min(9)",
              "m7b5",
              "min7",
              "min6",
              "min"
            ],
            "autoStart": false,
            "sourceChordNote": 0,
            "sourceChordType": "Maj",
            "ctb2Low": null,
            "ctb2Main": {
              "ntr": "ROOT_TRANSPOSITION",
              "ntt": "BYPASS",
              "bassOn": false,
              "chordRootUpperLimit": 8,
              "noteLowLimit": 40,
              "noteHighLimit": 127,
              "rtr": "PITCH_SHIFT"
            },
            "ctb2High": null
          },
          "notes": [
            {
              "pitch": 36,
              "velocity": 72,
              "position": 0,
              "duration": 0.7395833333333334
            },
            {
              "pitch": 67,
              "velocity": 108,
              "position": 0.03125,
              "duration": 0.7083333333333334
            },
            {
              "pitch": 55,
              "velocity": 86,
              "position": 0,
              "duration": 0.7395833333333334
            },
            {
              "pitch": 59,
              "velocity": 106,
              "position": 0.010416666666666666,
              "duration": 0.7395833333333334
            },
            {
              "pitch": 62,
              "velocity": 109,
              "position": 0.020833333333333332,
              "duration": 0.9895833333333334
            },
            {
              "pitch": 67,
              "velocity": 90,
              "position": 0.75,
              "duration": 0.32708333333333334
            },
            {
              "pitch": 59,
              "velocity": 90,
              "position": 0.7708333333333334,
              "duration": 0.3125
            },
            {
              "pitch": 55,
              "velocity": 90,
              "position": 0.78125,
              "duration": 0.35
            },
            {
              "pitch": 36,
              "velocity": 76,
              "position": 0.7604166666666666,
              "duration": 0.59375
            },
            {
              "pitch": 62,
              "velocity": 51,
              "position": 1.25,
              "duration": 0.23958333333333334
            },
            {
              "pitch": 55,
              "velocity": 51,
              "position": 1.25,
              "duration": 0.23958333333333334
            },
            {
              "pitch": 55,
              "velocity": 82,
              "position": 1.5,
              "duration": 0.7395833333333334
            },
            {
              "pitch": 67,
              "velocity": 102,
              "position": 1.53125,
              "duration": 0.7083333333333334
            },
            {
              "pitch": 62,
              "velocity": 99,
              "position": 1.5208333333333333,
              "duration": 0.7291666666666666
            },
            {
              "pitch": 59,
              "velocity": 105,
              "position": 1.5104166666666667,
              "duration": 0.9895833333333334
            },
            {
              "pitch": 62,
              "velocity": 93,
              "position": 2.2604166666666665,
              "duration": 0.2833333333333333
            },
            {
              "pitch": 55,
              "velocity": 90,
              "position": 2.2708333333333335,
              "duration": 0.35
            },
            {
              "pitch": 36,
              "velocity": 78,
              "position": 1.5,
              "duration": 1.2395833333333333
            },
            {
              "pitch": 67,
              "velocity": 90,
              "position": 2.25,
              "duration": 0.7395833333333334
            },
            {
              "pitch": 36,
              "velocity": 66,
              "position": 2.75,
              "duration": 0.23958333333333334
            },
            {
              "pitch": 38,
              "velocity": 111,
              "position": 3,
              "duration": 0.26458333333333334
            },
            {
              "pitch": 40,
              "velocity": 99,
              "position": 3.25,
              "duration": 0.23958333333333334
            },
            {
              "pitch": 62,
              "velocity": 92,
              "position": 3.0208333333333335,
              "duration": 0.46875
            },
            {
              "pitch": 59,
              "velocity": 89,
              "position": 3.0104166666666665,
              "duration": 0.4791666666666667
            },
            {
              "pitch": 67,
              "velocity": 103,
              "position": 3.03125,
              "duration": 0.7083333333333334
            },
            {
              "pitch": 62,
              "velocity": 92,
              "position": 3.5,
              "duration": 0.23958333333333334
            },
            {
              "pitch": 55,
              "velocity": 83,
              "position": 3,
              "duration": 0.9895833333333334
            },
            {
              "pitch": 67,
              "velocity": 103,
              "position": 3.75,
              "duration": 0.23958333333333334
            },
            {
              "pitch": 36,
              "velocity": 96,
              "position": 3.5,
              "duration": 0.4895833333333333
            },
            {
              "pitch": 59,
              "velocity": 89,
              "position": 3.5,
              "duration": 0.5
            },
            {
              "pitch": 62,
              "velocity": 92,
              "position": 3.75,
              "duration": 0.9895833333333334
            },
            {
              "pitch": 41,
              "velocity": 77,
              "position": 4,
              "duration": 0.7395833333333334
            },
            {
              "pitch": 60,
              "velocity": 95,
              "position": 4.010416666666667,
              "duration": 0.7395833333333334
            },
            {
              "pitch": 55,
              "velocity": 97,
              "position": 4.020833333333333,
              "duration": 0.7395833333333334
            },
            {
              "pitch": 62,
              "velocity": 90,
              "position": 4.75,
              "duration": 0.23958333333333334
            },
            {
              "pitch": 60,
              "velocity": 90,
              "position": 4.760416666666667,
              "duration": 0.325
            },
            {
              "pitch": 55,
              "velocity": 97,
              "position": 4.770833333333333,
              "duration": 0.3375
            },
            {
              "pitch": 67,
              "velocity": 110,
              "position": 4,
              "duration": 1.1770833333333333
            },
            {
              "pitch": 41,
              "velocity": 77,
              "position": 4.75,
              "duration": 0.55625
            },
            {
              "pitch": 62,
              "velocity": 51,
              "position": 5.25,
              "duration": 0.23958333333333334
            },
            {
              "pitch": 41,
              "velocity": 74,
              "position": 5.5,
              "duration": 0.7395833333333334
            },
            {
              "pitch": 55,
              "velocity": 104,
              "position": 5.5,
              "duration": 0.7395833333333334
            },
            {
              "pitch": 62,
              "velocity": 110,
              "position": 5.520833333333333,
              "duration": 0.7291666666666666
            },
            {
              "pitch": 67,
              "velocity": 102,
              "position": 5.510416666666667,
              "duration": 0.7395833333333334
            },
            {
              "pitch": 67,
              "velocity": 90,
              "position": 6.260416666666667,
              "duration": 0.23958333333333334
            },
            {
              "pitch": 55,
              "velocity": 90,
              "position": 6.270833333333333,
              "duration": 0.23958333333333334
            },
            {
              "pitch": 60,
              "velocity": 110,
              "position": 5.53125,
              "duration": 1.0625
            },
            {
              "pitch": 62,
              "velocity": 90,
              "position": 6.260416666666667,
              "duration": 0.35
            },
            {
              "pitch": 41,
              "velocity": 72,
              "position": 6.25,
              "duration": 0.4895833333333333
            },
            {
              "pitch": 36,
              "velocity": 92,
              "position": 6.75,
              "duration": 0.23958333333333334
            },
            {
              "pitch": 41,
              "velocity": 104,
              "position": 7,
              "duration": 0.23958333333333334
            },
            {
              "pitch": 55,
              "velocity": 99,
              "position": 7.010416666666667,
              "duration": 0.42291666666666666
            },
            {
              "pitch": 40,
              "velocity": 83,
              "position": 7.25,
              "duration": 0.23958333333333334
            },
            {
              "pitch": 67,
              "velocity": 100,
              "position": 7.041666666666667,
              "duration": 0.9479166666666666
            },
            {
              "pitch": 38,
              "velocity": 93,
              "position": 7.5,
              "duration": 0.4895833333333333
            },
            {
              "pitch": 55,
              "velocity": 77,
              "position": 7.510416666666667,
              "duration": 0.48541666666666666
            },
            {
              "pitch": 62,
              "velocity": 97,
              "position": 7.03125,
              "duration": 0.96875
            },
            {
              "pitch": 60,
              "velocity": 99,
              "position": 7.020833333333333,
              "duration": 0.9895833333333334
            },
            {
              "pitch": 67,
              "velocity": 103,
              "position": 8,
              "duration": 0.7395833333333334
            },
            {
              "pitch": 55,
              "velocity": 96,
              "position": 8.03125,
              "duration": 0.7083333333333334
            },
            {
              "pitch": 62,
              "velocity": 103,
              "position": 8.010416666666666,
              "duration": 0.7395833333333334
            },
            {
              "pitch": 59,
              "velocity": 99,
              "position": 8.020833333333334,
              "duration": 1.0625
            },
            {
              "pitch": 55,
              "velocity": 90,
              "position": 8.75,
              "duration": 0.35
            },
            {
              "pitch": 62,
              "velocity": 90,
              "position": 8.760416666666666,
              "duration": 0.375
            },
            {
              "pitch": 67,
              "velocity": 90,
              "position": 8.770833333333334,
              "duration": 0.4395833333333333
            },
            {
              "pitch": 36,
              "velocity": 76,
              "position": 8,
              "duration": 1.3333333333333333
            },
            {
              "pitch": 62,
              "velocity": 51,
              "position": 9.25,
              "duration": 0.23958333333333334
            },
            {
              "pitch": 36,
              "velocity": 78,
              "position": 9.5,
              "duration": 0.5979166666666667
            },
            {
              "pitch": 55,
              "velocity": 100,
              "position": 9.53125,
              "duration": 0.7083333333333334
            },
            {
              "pitch": 59,
              "velocity": 108,
              "position": 9.520833333333334,
              "duration": 0.7291666666666666
            },
            {
              "pitch": 59,
              "velocity": 90,
              "position": 10.260416666666666,
              "duration": 0.23958333333333334
            },
            {
              "pitch": 55,
              "velocity": 81,
              "position": 10.25,
              "duration": 0.3375
            },
            {
              "pitch": 62,
              "velocity": 108,
              "position": 9.510416666666666,
              "duration": 1.0875
            },
            {
              "pitch": 36,
              "velocity": 69,
              "position": 10.25,
              "duration": 0.4895833333333333
            },
            {
              "pitch": 67,
              "velocity": 96,
              "position": 9.5,
              "duration": 1.4895833333333333
            },
            {
              "pitch": 62,
              "velocity": 51,
              "position": 10.75,
              "duration": 0.23958333333333334
            },
            {
              "pitch": 55,
              "velocity": 51,
              "position": 10.75,
              "duration": 0.23958333333333334
            },
            {
              "pitch": 36,
              "velocity": 70,
              "position": 10.75,
              "duration": 0.23958333333333334
            },
            {
              "pitch": 38,
              "velocity": 111,
              "position": 11,
              "duration": 0.23958333333333334
            },
            {
              "pitch": 40,
              "velocity": 82,
              "position": 11.25,
              "duration": 0.23958333333333334
            },
            {
              "pitch": 55,
              "velocity": 83,
              "position": 11,
              "duration": 0.9895833333333334
            },
            {
              "pitch": 36,
              "velocity": 76,
              "position": 11.5,
              "duration": 0.4895833333333333
            },
            {
              "pitch": 67,
              "velocity": 99,
              "position": 11.03125,
              "duration": 0.9583333333333334
            },
            {
              "pitch": 59,
              "velocity": 103,
              "position": 11.010416666666666,
              "duration": 0.9895833333333334
            },
            {
              "pitch": 62,
              "velocity": 103,
              "position": 11.020833333333334,
              "duration": 0.9895833333333334
            },
            {
              "pitch": 67,
              "velocity": 105,
              "position": 12,
              "duration": 0.7395833333333334
            },
            {
              "pitch": 62,
              "velocity": 110,
              "position": 12.03125,
              "duration": 0.7104166666666667
            },
            {
              "pitch": 41,
              "velocity": 72,
              "position": 12,
              "duration": 0.75
            },
            {
              "pitch": 55,
              "velocity": 105,
              "position": 12.010416666666666,
              "duration": 0.7395833333333334
            },
            {
              "pitch": 41,
              "velocity": 72,
              "position": 12.770833333333334,
              "duration": 0.3125
            },
            {
              "pitch": 62,
              "velocity": 90,
              "position": 12.75,
              "duration": 0.3645833333333333
            },
            {
              "pitch": 55,
              "velocity": 90,
              "position": 12.760416666666666,
              "duration": 0.3645833333333333
            },
            {
              "pitch": 67,
              "velocity": 90,
              "position": 12.75,
              "duration": 0.3770833333333333
            },
            {
              "pitch": 60,
              "velocity": 111,
              "position": 12.020833333333334,
              "duration": 1.1145833333333333
            },
            {
              "pitch": 55,
              "velocity": 51,
              "position": 13.25,
              "duration": 0.23958333333333334
            },
            {
              "pitch": 62,
              "velocity": 51,
              "position": 13.25,
              "duration": 0.23958333333333334
            },
            {
              "pitch": 55,
              "velocity": 93,
              "position": 13.5,
              "duration": 0.7395833333333334
            },
            {
              "pitch": 67,
              "velocity": 107,
              "position": 13.53125,
              "duration": 0.7083333333333334
            },
            {
              "pitch": 62,
              "velocity": 87,
              "position": 13.520833333333334,
              "duration": 0.7291666666666666
            },
            {
              "pitch": 62,
              "velocity": 94,
              "position": 14.260416666666666,
              "duration": 0.3020833333333333
            },
            {
              "pitch": 60,
              "velocity": 93,
              "position": 13.510416666666666,
              "duration": 1.0770833333333334
            },
            {
              "pitch": 41,
              "velocity": 67,
              "position": 13.5,
              "duration": 1.15625
            },
            {
              "pitch": 55,
              "velocity": 89,
              "position": 14.270833333333334,
              "duration": 0.4166666666666667
            },
            {
              "pitch": 67,
              "velocity": 99,
              "position": 14.25,
              "duration": 0.7395833333333334
            },
            {
              "pitch": 55,
              "velocity": 51,
              "position": 14.75,
              "duration": 0.23958333333333334
            },
            {
              "pitch": 62,
              "velocity": 51,
              "position": 14.770833333333334,
              "duration": 0.23958333333333334
            },
            {
              "pitch": 55,
              "velocity": 99,
              "position": 15,
              "duration": 0.9895833333333334
            },
            {
              "pitch": 67,
              "velocity": 108,
              "position": 15.03125,
              "duration": 0.9583333333333334
            },
            {
              "pitch": 62,
              "velocity": 94,
              "position": 15.020833333333334,
              "duration": 0.96875
            },
            {
              "pitch": 60,
              "velocity": 97,
              "position": 15.010416666666666,
              "duration": 0.9791666666666666
            },
            {
              "pitch": 41,
              "velocity": 91,
              "position": 15,
              "duration": 0.9895833333333334
            },
            {
              "pitch": 36,
              "velocity": 90,
              "position": 16,
              "duration": 3.9895833333333335
            },
            {
              "pitch": 67,
              "velocity": 94,
              "position": 16,
              "duration": 3.9895833333333335
            },
            {
              "pitch": 62,
              "velocity": 102,
              "position": 16,
              "duration": 3.9895833333333335
            },
            {
              "pitch": 60,
              "velocity": 103,
              "position": 16,
              "duration": 3.9895833333333335
            },
            {
              "pitch": 55,
              "velocity": 90,
              "position": 16,
              "duration": 3.9895833333333335
            }
          ]
        },
        "12": {
          "ctab": {
            "srcChannel": 12,
            "name": "Mute",
            "accType": "CHORD2",
            "editable": false,
            "mutedNotes": [],
            "mutedChords": [],
            "autoStart": false,
            "sourceChordNote": 0,
            "sourceChordType": "Maj",
            "ctb2Low": null,
            "ctb2Main": {
              "ntr": "ROOT_TRANSPOSITION",
              "ntt": "HARMONIC_MINOR",
              "bassOn": false,
              "chordRootUpperLimit": 7,
              "noteLowLimit": 40,
              "noteHighLimit": 127,
              "rtr": "PITCH_SHIFT"
            },
            "ctb2High": null
          },
          "notes": [
            {
              "pitch": 55,
              "velocity": 78,
              "position": 0.75,
              "duration": 0.13125
            },
            {
              "pitch": 55,
              "velocity": 78,
              "position": 1.25,
              "duration": 0.1375
            },
            {
              "pitch": 55,
              "velocity": 78,
              "position": 2,
              "duration": 0.08958333333333333
            },
            {
              "pitch": 55,
              "velocity": 78,
              "position": 2.5,
              "duration": 0.125
            },
            {
              "pitch": 55,
              "velocity": 55,
              "position": 2.75,
              "duration": 0.125
            },
            {
              "pitch": 55,
              "velocity": 110,
              "position": 3,
              "duration": 0.2916666666666667
            },
            {
              "pitch": 57,
              "velocity": 76,
              "position": 3.25,
              "duration": 0.1875
            },
            {
              "pitch": 55,
              "velocity": 78,
              "position": 4.75,
              "duration": 0.10833333333333334
            },
            {
              "pitch": 55,
              "velocity": 78,
              "position": 5.25,
              "duration": 0.15625
            },
            {
              "pitch": 55,
              "velocity": 78,
              "position": 6,
              "duration": 0.14166666666666666
            },
            {
              "pitch": 55,
              "velocity": 78,
              "position": 6.5,
              "duration": 0.11458333333333333
            },
            {
              "pitch": 55,
              "velocity": 55,
              "position": 6.75,
              "duration": 0.11458333333333333
            },
            {
              "pitch": 55,
              "velocity": 110,
              "position": 7,
              "duration": 0.2916666666666667
            },
            {
              "pitch": 57,
              "velocity": 76,
              "position": 7.25,
              "duration": 0.1875
            },
            {
              "pitch": 55,
              "velocity": 76,
              "position": 7.5,
              "duration": 0.15
            },
            {
              "pitch": 55,
              "velocity": 78,
              "position": 8.75,
              "duration": 0.17708333333333334
            },
            {
              "pitch": 55,
              "velocity": 78,
              "position": 9.25,
              "duration": 0.15208333333333332
            },
            {
              "pitch": 55,
              "velocity": 78,
              "position": 10,
              "duration": 0.15625
            },
            {
              "pitch": 55,
              "velocity": 78,
              "position": 10.5,
              "duration": 0.12916666666666668
            },
            {
              "pitch": 55,
              "velocity": 55,
              "position": 10.75,
              "duration": 0.12916666666666668
            },
            {
              "pitch": 55,
              "velocity": 110,
              "position": 11,
              "duration": 0.2916666666666667
            },
            {
              "pitch": 57,
              "velocity": 76,
              "position": 11.25,
              "duration": 0.1875
            },
            {
              "pitch": 55,
              "velocity": 78,
              "position": 12.75,
              "duration": 0.19375
            },
            {
              "pitch": 55,
              "velocity": 78,
              "position": 13.25,
              "duration": 0.14583333333333334
            },
            {
              "pitch": 55,
              "velocity": 78,
              "position": 14,
              "duration": 0.15208333333333332
            },
            {
              "pitch": 55,
              "velocity": 78,
              "position": 14.5,
              "duration": 0.10416666666666667
            },
            {
              "pitch": 55,
              "velocity": 55,
              "position": 14.75,
              "duration": 0.10416666666666667
            },
            {
              "pitch": 55,
              "velocity": 110,
              "position": 15,
              "duration": 0.2916666666666667
            },
            {
              "pitch": 57,
              "velocity": 76,
              "position": 15.25,
              "duration": 0.1875
            },
            {
              "pitch": 55,
              "velocity": 76,
              "position": 15.5,
              "duration": 0.1625
            }
          ]
        },
        "13": {
          "ctab": {
            "srcChannel": 13,
            "name": "Strg Maj",
            "accType": "PAD",
            "editable": false,
            "mutedNotes": [],
            "mutedChords": [
              "dim7",
              "dim",
              "minMaj7(9)",
              "minMaj7",
              "min7(11)",
              "min7(9)",
              "min(9)",
              "m7b5",
              "min7",
              "min6",
              "min"
            ],
            "autoStart": false,
            "sourceChordNote": 0,
            "sourceChordType": "Maj",
            "ctb2Low": null,
            "ctb2Main": {
              "ntr": "ROOT_TRANSPOSITION",
              "ntt": "BYPASS",
              "bassOn": false,
              "chordRootUpperLimit": 6,
              "noteLowLimit": 0,
              "noteHighLimit": 79,
              "rtr": "PITCH_SHIFT"
            },
            "ctb2High": null
          },
          "notes": [
            {
              "pitch": 72,
              "velocity": 110,
              "position": 1,
              "duration": 1.03125
            },
            {
              "pitch": 84,
              "velocity": 110,
              "position": 1,
              "duration": 1.03125
            },
            {
              "pitch": 71,
              "velocity": 110,
              "position": 2,
              "duration": 1.03125
            },
            {
              "pitch": 83,
              "velocity": 110,
              "position": 2,
              "duration": 1.03125
            },
            {
              "pitch": 67,
              "velocity": 110,
              "position": 3,
              "duration": 0.9895833333333334
            },
            {
              "pitch": 79,
              "velocity": 110,
              "position": 3,
              "duration": 0.9895833333333334
            },
            {
              "pitch": 67,
              "velocity": 110,
              "position": 4,
              "duration": 3.7395833333333335
            },
            {
              "pitch": 79,
              "velocity": 110,
              "position": 4,
              "duration": 3.7395833333333335
            },
            {
              "pitch": 72,
              "velocity": 110,
              "position": 9,
              "duration": 1.03125
            },
            {
              "pitch": 84,
              "velocity": 110,
              "position": 9,
              "duration": 1.03125
            },
            {
              "pitch": 71,
              "velocity": 110,
              "position": 10,
              "duration": 1.03125
            },
            {
              "pitch": 83,
              "velocity": 110,
              "position": 10,
              "duration": 1.03125
            },
            {
              "pitch": 67,
              "velocity": 110,
              "position": 11,
              "duration": 3.08125
            },
            {
              "pitch": 79,
              "velocity": 110,
              "position": 11,
              "duration": 3.08125
            },
            {
              "pitch": 65,
              "velocity": 110,
              "position": 14,
              "duration": 2.08125
            },
            {
              "pitch": 77,
              "velocity": 110,
              "position": 14,
              "duration": 2.08125
            },
            {
              "pitch": 64,
              "velocity": 110,
              "position": 16,
              "duration": 3.8895833333333334
            },
            {
              "pitch": 76,
              "velocity": 110,
              "position": 16,
              "duration": 3.8895833333333334
            }
          ]
        },
        "14": {
          "ctab": {
            "srcChannel": 14,
            "name": "StGt Maj",
            "accType": "PHRASE2",
            "editable": false,
            "mutedNotes": [],
            "mutedChords": [
              "dim7",
              "dim",
              "minMaj7(9)",
              "minMaj7",
              "min7(11)",
              "min7(9)",
              "min(9)",
              "m7b5",
              "min7",
              "min6",
              "min"
            ],
            "autoStart": false,
            "sourceChordNote": 0,
            "sourceChordType": "Maj",
            "ctb2Low": null,
            "ctb2Main": {
              "ntr": "ROOT_TRANSPOSITION",
              "ntt": "BYPASS",
              "bassOn": false,
              "chordRootUpperLimit": 9,
              "noteLowLimit": 40,
              "noteHighLimit": 127,
              "rtr": "PITCH_SHIFT"
            },
            "ctb2High": null
          },
          "notes": [
            {
              "pitch": 62,
              "velocity": 118,
              "position": 0.03125,
              "duration": 0.7083333333333334
            },
            {
              "pitch": 59,
              "velocity": 107,
              "position": 0.020833333333333332,
              "duration": 0.7395833333333334
            },
            {
              "pitch": 62,
              "velocity": 107,
              "position": 0.75,
              "duration": 0.33958333333333335
            },
            {
              "pitch": 48,
              "velocity": 107,
              "position": 0,
              "duration": 1.0895833333333333
            },
            {
              "pitch": 55,
              "velocity": 107,
              "position": 0.010416666666666666,
              "duration": 1.0895833333333333
            },
            {
              "pitch": 59,
              "velocity": 107,
              "position": 0.78125,
              "duration": 0.33958333333333335
            },
            {
              "pitch": 55,
              "velocity": 107,
              "position": 1.53125,
              "duration": 0.7395833333333334
            },
            {
              "pitch": 62,
              "velocity": 107,
              "position": 1.5104166666666667,
              "duration": 1.0895833333333333
            },
            {
              "pitch": 55,
              "velocity": 107,
              "position": 2.28125,
              "duration": 0.33958333333333335
            },
            {
              "pitch": 59,
              "velocity": 107,
              "position": 1.5208333333333333,
              "duration": 1.1
            },
            {
              "pitch": 48,
              "velocity": 107,
              "position": 1.5,
              "duration": 2.495833333333333
            },
            {
              "pitch": 62,
              "velocity": 107,
              "position": 3.03125,
              "duration": 0.9645833333333333
            },
            {
              "pitch": 59,
              "velocity": 107,
              "position": 3.0208333333333335,
              "duration": 0.975
            },
            {
              "pitch": 55,
              "velocity": 107,
              "position": 3.0104166666666665,
              "duration": 0.9854166666666667
            },
            {
              "pitch": 48,
              "velocity": 107,
              "position": 4,
              "duration": 0.7395833333333334
            },
            {
              "pitch": 60,
              "velocity": 109,
              "position": 4,
              "duration": 0.7395833333333334
            },
            {
              "pitch": 62,
              "velocity": 116,
              "position": 4,
              "duration": 1.0895833333333333
            },
            {
              "pitch": 60,
              "velocity": 107,
              "position": 4.75,
              "duration": 0.33958333333333335
            },
            {
              "pitch": 48,
              "velocity": 107,
              "position": 4.75,
              "duration": 0.33958333333333335
            },
            {
              "pitch": 55,
              "velocity": 107,
              "position": 4,
              "duration": 1.0895833333333333
            },
            {
              "pitch": 62,
              "velocity": 107,
              "position": 5.510416666666667,
              "duration": 0.7291666666666666
            },
            {
              "pitch": 55,
              "velocity": 107,
              "position": 5.520833333333333,
              "duration": 0.7395833333333334
            },
            {
              "pitch": 62,
              "velocity": 107,
              "position": 6.25,
              "duration": 0.33958333333333335
            },
            {
              "pitch": 48,
              "velocity": 107,
              "position": 5.5,
              "duration": 1.0895833333333333
            },
            {
              "pitch": 41,
              "velocity": 109,
              "position": 4.03125,
              "duration": 2.589583333333333
            },
            {
              "pitch": 55,
              "velocity": 107,
              "position": 6.28125,
              "duration": 0.33958333333333335
            },
            {
              "pitch": 60,
              "velocity": 107,
              "position": 5.53125,
              "duration": 1.0895833333333333
            },
            {
              "pitch": 41,
              "velocity": 107,
              "position": 7,
              "duration": 0.9895833333333334
            },
            {
              "pitch": 62,
              "velocity": 107,
              "position": 7.020833333333333,
              "duration": 0.96875
            },
            {
              "pitch": 48,
              "velocity": 107,
              "position": 7.010416666666667,
              "duration": 0.9895833333333334
            },
            {
              "pitch": 60,
              "velocity": 107,
              "position": 7.03125,
              "duration": 0.96875
            },
            {
              "pitch": 55,
              "velocity": 107,
              "position": 7.03125,
              "duration": 0.9895833333333334
            },
            {
              "pitch": 62,
              "velocity": 107,
              "position": 8,
              "duration": 0.7395833333333334
            },
            {
              "pitch": 55,
              "velocity": 109,
              "position": 8.03125,
              "duration": 0.71875
            },
            {
              "pitch": 59,
              "velocity": 107,
              "position": 8.010416666666666,
              "duration": 1.0895833333333333
            },
            {
              "pitch": 55,
              "velocity": 119,
              "position": 8.760416666666666,
              "duration": 0.33958333333333335
            },
            {
              "pitch": 62,
              "velocity": 107,
              "position": 8.770833333333334,
              "duration": 0.33958333333333335
            },
            {
              "pitch": 62,
              "velocity": 107,
              "position": 9.5,
              "duration": 0.7395833333333334
            },
            {
              "pitch": 59,
              "velocity": 107,
              "position": 9.510416666666666,
              "duration": 0.7395833333333334
            },
            {
              "pitch": 48,
              "velocity": 107,
              "position": 8.020833333333334,
              "duration": 2.56875
            },
            {
              "pitch": 62,
              "velocity": 107,
              "position": 10.260416666666666,
              "duration": 0.33958333333333335
            },
            {
              "pitch": 59,
              "velocity": 107,
              "position": 10.270833333333334,
              "duration": 0.33958333333333335
            },
            {
              "pitch": 55,
              "velocity": 107,
              "position": 9.53125,
              "duration": 1.0895833333333333
            },
            {
              "pitch": 62,
              "velocity": 107,
              "position": 11,
              "duration": 0.9895833333333334
            },
            {
              "pitch": 48,
              "velocity": 107,
              "position": 11.010416666666666,
              "duration": 0.9791666666666666
            },
            {
              "pitch": 59,
              "velocity": 107,
              "position": 11.020833333333334,
              "duration": 0.9895833333333334
            },
            {
              "pitch": 55,
              "velocity": 107,
              "position": 11.03125,
              "duration": 0.9791666666666666
            },
            {
              "pitch": 48,
              "velocity": 107,
              "position": 12,
              "duration": 0.7395833333333334
            },
            {
              "pitch": 62,
              "velocity": 107,
              "position": 12.010416666666666,
              "duration": 0.7291666666666666
            },
            {
              "pitch": 60,
              "velocity": 107,
              "position": 12.03125,
              "duration": 0.71875
            },
            {
              "pitch": 48,
              "velocity": 107,
              "position": 12.75,
              "duration": 0.33958333333333335
            },
            {
              "pitch": 62,
              "velocity": 107,
              "position": 12.75,
              "duration": 0.33958333333333335
            },
            {
              "pitch": 60,
              "velocity": 111,
              "position": 12.760416666666666,
              "duration": 0.33958333333333335
            },
            {
              "pitch": 55,
              "velocity": 107,
              "position": 12.020833333333334,
              "duration": 1.0895833333333333
            },
            {
              "pitch": 62,
              "velocity": 107,
              "position": 13.5,
              "duration": 0.7395833333333334
            },
            {
              "pitch": 48,
              "velocity": 107,
              "position": 13.53125,
              "duration": 0.7083333333333334
            },
            {
              "pitch": 55,
              "velocity": 107,
              "position": 13.520833333333334,
              "duration": 0.7291666666666666
            },
            {
              "pitch": 60,
              "velocity": 107,
              "position": 13.510416666666666,
              "duration": 0.7395833333333334
            },
            {
              "pitch": 41,
              "velocity": 107,
              "position": 12,
              "duration": 2.589583333333333
            },
            {
              "pitch": 48,
              "velocity": 107,
              "position": 14.25,
              "duration": 0.33958333333333335
            },
            {
              "pitch": 55,
              "velocity": 108,
              "position": 14.260416666666666,
              "duration": 0.33958333333333335
            },
            {
              "pitch": 60,
              "velocity": 110,
              "position": 14.270833333333334,
              "duration": 0.33958333333333335
            },
            {
              "pitch": 62,
              "velocity": 107,
              "position": 14.28125,
              "duration": 0.33958333333333335
            },
            {
              "pitch": 62,
              "velocity": 112,
              "position": 15,
              "duration": 0.9895833333333334
            },
            {
              "pitch": 48,
              "velocity": 107,
              "position": 15.03125,
              "duration": 0.9583333333333334
            },
            {
              "pitch": 60,
              "velocity": 111,
              "position": 15.010416666666666,
              "duration": 0.9895833333333334
            },
            {
              "pitch": 55,
              "velocity": 110,
              "position": 15.020833333333334,
              "duration": 0.9791666666666666
            },
            {
              "pitch": 41,
              "velocity": 107,
              "position": 15.03125,
              "duration": 0.9895833333333334
            },
            {
              "pitch": 48,
              "velocity": 107,
              "position": 16,
              "duration": 4
            },
            {
              "pitch": 55,
              "velocity": 107,
              "position": 16.010416666666668,
              "duration": 3.9895833333333335
            },
            {
              "pitch": 60,
              "velocity": 107,
              "position": 16.020833333333332,
              "duration": 3.9791666666666665
            },
            {
              "pitch": 62,
              "velocity": 118,
              "position": 16.03125,
              "duration": 3.96875
            }
          ]
        },
        "15": {
          "ctab": {
            "srcChannel": 15,
            "name": "60s Maj",
            "accType": "PHRASE1",
            "editable": false,
            "mutedNotes": [],
            "mutedChords": [
              "dim7",
              "dim",
              "minMaj7(9)",
              "minMaj7",
              "min7(11)",
              "min7(9)",
              "min(9)",
              "m7b5",
              "min7",
              "min6",
              "min"
            ],
            "autoStart": false,
            "sourceChordNote": 0,
            "sourceChordType": "Maj",
            "ctb2Low": null,
            "ctb2Main": {
              "ntr": "ROOT_TRANSPOSITION",
              "ntt": "BYPASS",
              "bassOn": false,
              "chordRootUpperLimit": 8,
              "noteLowLimit": 0,
              "noteHighLimit": 127,
              "rtr": "PITCH_SHIFT"
            },
            "ctb2High": null
          },
          "notes": [
            {
              "pitch": 67,
              "velocity": 73,
              "position": 0,
              "duration": 1.2395833333333333
            },
            {
              "pitch": 48,
              "velocity": 88,
              "position": 0,
              "duration": 2.2416666666666667
            },
            {
              "pitch": 55,
              "velocity": 80,
              "position": 0.5,
              "duration": 1.9916666666666667
            },
            {
              "pitch": 67,
              "velocity": 76,
              "position": 1.25,
              "duration": 1.7395833333333333
            },
            {
              "pitch": 60,
              "velocity": 80,
              "position": 0.75,
              "duration": 2.4916666666666667
            },
            {
              "pitch": 55,
              "velocity": 80,
              "position": 2.5,
              "duration": 0.9916666666666667
            },
            {
              "pitch": 60,
              "velocity": 64,
              "position": 3.25,
              "duration": 0.49166666666666664
            },
            {
              "pitch": 67,
              "velocity": 76,
              "position": 3,
              "duration": 0.9895833333333334
            },
            {
              "pitch": 48,
              "velocity": 83,
              "position": 2.25,
              "duration": 1.7416666666666667
            },
            {
              "pitch": 55,
              "velocity": 64,
              "position": 3.5,
              "duration": 0.9916666666666667
            },
            {
              "pitch": 60,
              "velocity": 80,
              "position": 3.75,
              "duration": 0.9916666666666667
            },
            {
              "pitch": 67,
              "velocity": 76,
              "position": 4,
              "duration": 1.2395833333333333
            },
            {
              "pitch": 60,
              "velocity": 80,
              "position": 4.75,
              "duration": 0.9916666666666667
            },
            {
              "pitch": 55,
              "velocity": 80,
              "position": 4.5,
              "duration": 1.7416666666666667
            },
            {
              "pitch": 41,
              "velocity": 88,
              "position": 4,
              "duration": 2.4916666666666667
            },
            {
              "pitch": 67,
              "velocity": 76,
              "position": 5.25,
              "duration": 1.7395833333333333
            },
            {
              "pitch": 60,
              "velocity": 80,
              "position": 5.75,
              "duration": 1.4916666666666667
            },
            {
              "pitch": 55,
              "velocity": 74,
              "position": 6.25,
              "duration": 1.2416666666666667
            },
            {
              "pitch": 60,
              "velocity": 64,
              "position": 7.25,
              "duration": 0.49166666666666664
            },
            {
              "pitch": 67,
              "velocity": 76,
              "position": 7,
              "duration": 0.9895833333333334
            },
            {
              "pitch": 41,
              "velocity": 83,
              "position": 6.5,
              "duration": 1.4916666666666667
            },
            {
              "pitch": 55,
              "velocity": 64,
              "position": 7.5,
              "duration": 0.9916666666666667
            },
            {
              "pitch": 60,
              "velocity": 80,
              "position": 7.75,
              "duration": 0.9916666666666667
            },
            {
              "pitch": 67,
              "velocity": 76,
              "position": 8,
              "duration": 1.2395833333333333
            },
            {
              "pitch": 60,
              "velocity": 64,
              "position": 8.75,
              "duration": 0.9916666666666667
            },
            {
              "pitch": 55,
              "velocity": 80,
              "position": 8.5,
              "duration": 1.7416666666666667
            },
            {
              "pitch": 48,
              "velocity": 88,
              "position": 8,
              "duration": 2.4916666666666667
            },
            {
              "pitch": 67,
              "velocity": 76,
              "position": 9.25,
              "duration": 1.7395833333333333
            },
            {
              "pitch": 60,
              "velocity": 76,
              "position": 9.75,
              "duration": 1.4916666666666667
            },
            {
              "pitch": 55,
              "velocity": 80,
              "position": 10.25,
              "duration": 1.2416666666666667
            },
            {
              "pitch": 67,
              "velocity": 76,
              "position": 11,
              "duration": 0.9895833333333334
            },
            {
              "pitch": 48,
              "velocity": 83,
              "position": 10.5,
              "duration": 1.4916666666666667
            },
            {
              "pitch": 55,
              "velocity": 64,
              "position": 11.5,
              "duration": 0.9916666666666667
            },
            {
              "pitch": 60,
              "velocity": 64,
              "position": 11.25,
              "duration": 1.4916666666666667
            },
            {
              "pitch": 67,
              "velocity": 76,
              "position": 12,
              "duration": 1.2395833333333333
            },
            {
              "pitch": 55,
              "velocity": 80,
              "position": 12.5,
              "duration": 1.2416666666666667
            },
            {
              "pitch": 60,
              "velocity": 80,
              "position": 12.75,
              "duration": 1.4916666666666667
            },
            {
              "pitch": 41,
              "velocity": 88,
              "position": 12,
              "duration": 2.4916666666666667
            },
            {
              "pitch": 67,
              "velocity": 76,
              "position": 13.25,
              "duration": 1.7416666666666667
            },
            {
              "pitch": 60,
              "velocity": 80,
              "position": 14.25,
              "duration": 0.9916666666666667
            },
            {
              "pitch": 55,
              "velocity": 80,
              "position": 13.75,
              "duration": 2.0791666666666666
            },
            {
              "pitch": 60,
              "velocity": 65,
              "position": 15.25,
              "duration": 0.7041666666666667
            },
            {
              "pitch": 41,
              "velocity": 83,
              "position": 14.5,
              "duration": 1.4916666666666667
            },
            {
              "pitch": 67,
              "velocity": 76,
              "position": 15,
              "duration": 1.1416666666666666
            },
            {
              "pitch": 48,
              "velocity": 88,
              "position": 15.75,
              "duration": 3.2916666666666665
            },
            {
              "pitch": 67,
              "velocity": 76,
              "position": 16.15,
              "duration": 3.0166666666666666
            },
            {
              "pitch": 64,
              "velocity": 63,
              "position": 16.0875,
              "duration": 3.21875
            },
            {
              "pitch": 60,
              "velocity": 80,
              "position": 15.9625,
              "duration": 3.34375
            },
            {
              "pitch": 55,
              "velocity": 80,
              "position": 15.8375,
              "duration": 3.5
            }
          ]
        }
      }
    }
  }
}