{
  "name": "FingerPickin.S044.STY",
  "tempo": 68,
  "timeSignature": "4/4",
  "ticksPerQuarter": 1920,
  "sffType": "SFF1",
  "division": "BINARY",
  "parts": {
    "Main_A": {
      "type": "Main_A",
      "sizeInBeats": 32,
      "channels": {
        "8": {
          "ctab": {
            "srcChannel": 8,
            "name": "AddDrum",
            "accType": "SUBRHYTHM",
            "editable": false,
            "mutedNotes": [],
            "mutedChords": [],
            "autoStart": true,
            "sourceChordNote": 0,
            "sourceChordType": "Maj7",
            "ctb2Low": null,
            "ctb2Main": {
              "ntr": "ROOT_FIXED",
              "ntt": "BYPASS",
              "bassOn": false,
              "chordRootUpperLimit": 6,
              "noteLowLimit": 0,
              "noteHighLimit": 127,
              "rtr": "PITCH_SHIFT"
            },
            "ctb2High": null
          },
          "notes": [
            {
              "pitch": 63,
              "velocity": 92,
              "position": 0,
              "duration": 0.08333333333333333
            },
            {
              "pitch": 69,
              "velocity": 60,
              "position": 0.25,
              "duration": 0.07291666666666667
            },
            {
              "pitch": 63,
              "velocity": 53,
              "position": 0.25,
              "duration": 0.08333333333333333
            },
            {
              "pitch": 70,
              "velocity": 98,
              "position": 0.5,
              "duration": 0.07291666666666667
            },
            {
              "pitch": 64,
              "velocity": 45,
              "position": 0.5,
              "duration": 0.07916666666666666
            },
            {
              "pitch": 70,
              "velocity": 52,
              "position": 0.75,
              "duration": 0.07291666666666667
            },
            {
              "pitch": 64,
              "velocity": 70,
              "position": 0.75,
              "duration": 0.07916666666666666
            },
            {
              "pitch": 70,
              "velocity": 101,
              "position": 1.5,
              "duration": 0.07291666666666667
            },
            {
              "pitch": 62,
              "velocity": 115,
              "position": 1.5,
              "duration": 0.07916666666666666
            },
            {
              "pitch": 70,
              "velocity": 48,
              "position": 1.75,
              "duration": 0.07291666666666667
            },
            {
              "pitch": 62,
              "velocity": 64,
              "position": 1.75,
              "duration": 0.07916666666666666
            },
            {
              "pitch": 63,
              "velocity": 91,
              "position": 2,
              "duration": 0.07916666666666666
            },
            {
              "pitch": 69,
              "velocity": 60,
              "position": 2.25,
              "duration": 0.07291666666666667
            },
            {
              "pitch": 63,
              "velocity": 52,
              "position": 2.25,
              "duration": 0.07916666666666666
            },
            {
              "pitch": 70,
              "velocity": 95,
              "position": 2.5,
              "duration": 0.07291666666666667
            },
            {
              "pitch": 64,
              "velocity": 43,
              "position": 2.5,
              "duration": 0.07916666666666666
            },
            {
              "pitch": 70,
              "velocity": 54,
              "position": 2.75,
              "duration": 0.07291666666666667
            },
            {
              "pitch": 64,
              "velocity": 68,
              "position": 2.75,
              "duration": 0.07916666666666666
            },
            {
              "pitch": 62,
              "velocity": 42,
              "position": 3.25,
              "duration": 0.07916666666666666
            },
            {
              "pitch": 70,
              "velocity": 107,
              "position": 3.5,
              "duration": 0.07291666666666667
            },
            {
              "pitch": 62,
              "velocity": 114,
              "position": 3.5,
              "duration": 0.07916666666666666
            },
            {
              "pitch": 70,
              "velocity": 53,
              "position": 3.75,
              "duration": 0.07291666666666667
            },
            {
              "pitch": 62,
              "velocity": 63,
              "position": 3.75,
              "duration": 0.07916666666666666
            },
            {
              "pitch": 63,
              "velocity": 85,
              "position": 4,
              "duration": 0.07916666666666666
            },
            {
              "pitch": 69,
              "velocity": 60,
              "position": 4.25,
              "duration": 0.07291666666666667
            },
            {
              "pitch": 63,
              "velocity": 47,
              "position": 4.25,
              "duration": 0.07916666666666666
            },
            {
              "pitch": 70,
              "velocity": 107,
              "position": 4.5,
              "duration": 0.07291666666666667
            },
            {
              "pitch": 64,
              "velocity": 40,
              "position": 4.5,
              "duration": 0.07916666666666666
            },
            {
              "pitch": 70,
              "velocity": 50,
              "position": 4.75,
              "duration": 0.07291666666666667
            },
            {
              "pitch": 64,
              "velocity": 71,
              "position": 4.75,
              "duration": 0.07916666666666666
            },
            {
              "pitch": 70,
              "velocity": 95,
              "position": 5.5,
              "duration": 0.07291666666666667
            },
            {
              "pitch": 62,
              "velocity": 108,
              "position": 5.5,
              "duration": 0.08333333333333333
            },
            {
              "pitch": 70,
              "velocity": 41,
              "position": 5.75,
              "duration": 0.07291666666666667
            },
            {
              "pitch": 62,
              "velocity": 58,
              "position": 5.75,
              "duration": 0.08333333333333333
            },
            {
              "pitch": 63,
              "velocity": 94,
              "position": 6,
              "duration": 0.08333333333333333
            },
            {
              "pitch": 69,
              "velocity": 60,
              "position": 6.25,
              "duration": 0.07291666666666667
            },
            {
              "pitch": 63,
              "velocity": 56,
              "position": 6.25,
              "duration": 0.08333333333333333
            },
            {
              "pitch": 70,
              "velocity": 98,
              "position": 6.5,
              "duration": 0.07291666666666667
            },
            {
              "pitch": 64,
              "velocity": 42,
              "position": 6.5,
              "duration": 0.08333333333333333
            },
            {
              "pitch": 70,
              "velocity": 48,
              "position": 6.75,
              "duration": 0.07291666666666667
            },
            {
              "pitch": 64,
              "velocity": 74,
              "position": 6.75,
              "duration": 0.08333333333333333
            },
            {
              "pitch": 62,
              "velocity": 46,
              "position": 7.25,
              "duration": 0.08333333333333333
            },
            {
              "pitch": 70,
              "velocity": 100,
              "position": 7.5,
              "duration": 0.07291666666666667
            },
            {
              "pitch": 62,
              "velocity": 117,
              "position": 7.5,
              "duration": 0.08333333333333333
            },
            {
              "pitch": 70,
              "velocity": 50,
              "position": 7.75,
              "duration": 0.07291666666666667
            },
            {
              "pitch": 62,
              "velocity": 67,
              "position": 7.75,
              "duration": 0.08333333333333333
            },
            {
              "pitch": 63,
              "velocity": 91,
              "position": 8,
              "duration": 0.08333333333333333
            },
            {
              "pitch": 69,
              "velocity": 60,
              "position": 8.25,
              "duration": 0.07291666666666667
            },
            {
              "pitch": 63,
              "velocity": 52,
              "position": 8.25,
              "duration": 0.08333333333333333
            },
            {
              "pitch": 70,
              "velocity": 103,
              "position": 8.5,
              "duration": 0.07291666666666667
            },
            {
              "pitch": 64,
              "velocity": 45,
              "position": 8.5,
              "duration": 0.08333333333333333
            },
            {
              "pitch": 70,
              "velocity": 55,
              "position": 8.75,
              "duration": 0.07291666666666667
            },
            {
              "pitch": 64,
              "velocity": 72,
              "position": 8.75,
              "duration": 0.08333333333333333
            },
            {
              "pitch": 70,
              "velocity": 103,
              "position": 9.5,
              "duration": 0.07291666666666667
            },
            {
              "pitch": 62,
              "velocity": 114,
              "position": 9.5,
              "duration": 0.08333333333333333
            },
            {
              "pitch": 70,
              "velocity": 42,
              "position": 9.75,
              "duration": 0.07291666666666667
            },
            {
              "pitch": 62,
              "velocity": 63,
              "position": 9.75,
              "duration": 0.08333333333333333
            },
            {
              "pitch": 63,
              "velocity": 85,
              "position": 10,
              "duration": 0.08333333333333333
            },
            {
              "pitch": 69,
              "velocity": 60,
              "position": 10.25,
              "duration": 0.07291666666666667
            },
            {
              "pitch": 63,
              "velocity": 47,
              "position": 10.25,
              "duration": 0.08333333333333333
            },
            {
              "pitch": 70,
              "velocity": 101,
              "position": 10.5,
              "duration": 0.07291666666666667
            },
            {
              "pitch": 64,
              "velocity": 42,
              "position": 10.5,
              "duration": 0.08333333333333333
            },
            {
              "pitch": 70,
              "velocity": 48,
              "position": 10.75,
              "duration": 0.07291666666666667
            },
            {
              "pitch": 64,
              "velocity": 72,
              "position": 10.75,
              "duration": 0.08333333333333333
            },
            {
              "pitch": 62,
              "velocity": 37,
              "position": 11.25,
              "duration": 0.08333333333333333
            },
            {
              "pitch": 70,
              "velocity": 95,
              "position": 11.5,
              "duration": 0.07291666666666667
            },
            {
              "pitch": 62,
              "velocity": 108,
              "position": 11.5,
              "duration": 0.08333333333333333
            },
            {
              "pitch": 70,
              "velocity": 54,
              "position": 11.75,
              "duration": 0.07291666666666667
            },
            {
              "pitch": 62,
              "velocity": 58,
              "position": 11.75,
              "duration": 0.08333333333333333
            },
            {
              "pitch": 63,
              "velocity": 94,
              "position": 12,
              "duration": 0.08333333333333333
            },
            {
              "pitch": 69,
              "velocity": 60,
              "position": 12.25,
              "duration": 0.07291666666666667
            },
            {
              "pitch": 63,
              "velocity": 56,
              "position": 12.25,
              "duration": 0.08333333333333333
            },
            {
              "pitch": 70,
              "velocity": 100,
              "position": 12.5,
              "duration": 0.07291666666666667
            },
            {
              "pitch": 64,
              "velocity": 46,
              "position": 12.5,
              "duration": 0.08333333333333333
            },
            {
              "pitch": 70,
              "velocity": 51,
              "position": 12.75,
              "duration": 0.07291666666666667
            },
            {
              "pitch": 64,
              "velocity": 69,
              "position": 12.75,
              "duration": 0.08333333333333333
            },
            {
              "pitch": 70,
              "velocity": 99,
              "position": 13.5,
              "duration": 0.06875
            },
            {
              "pitch": 62,
              "velocity": 117,
              "position": 13.5,
              "duration": 0.08333333333333333
            },
            {
              "pitch": 70,
              "velocity": 49,
              "position": 13.75,
              "duration": 0.06875
            },
            {
              "pitch": 62,
              "velocity": 67,
              "position": 13.75,
              "duration": 0.08333333333333333
            },
            {
              "pitch": 63,
              "velocity": 84,
              "position": 14,
              "duration": 0.08333333333333333
            },
            {
              "pitch": 69,
              "velocity": 60,
              "position": 14.25,
              "duration": 0.06875
            },
            {
              "pitch": 63,
              "velocity": 46,
              "position": 14.25,
              "duration": 0.08333333333333333
            },
            {
              "pitch": 70,
              "velocity": 106,
              "position": 14.5,
              "duration": 0.06875
            },
            {
              "pitch": 64,
              "velocity": 45,
              "position": 14.5,
              "duration": 0.08333333333333333
            },
            {
              "pitch": 70,
              "velocity": 41,
              "position": 14.75,
              "duration": 0.06875
            },
            {
              "pitch": 64,
              "velocity": 74,
              "position": 14.75,
              "duration": 0.08333333333333333
            },
            {
              "pitch": 62,
              "velocity": 36,
              "position": 15.25,
              "duration": 0.08333333333333333
            },
            {
              "pitch": 70,
              "velocity": 106,
              "position": 15.5,
              "duration": 0.06875
            },
            {
              "pitch": 62,
              "velocity": 107,
              "position": 15.5,
              "duration": 0.08333333333333333
            },
            {
              "pitch": 70,
              "velocity": 49,
              "position": 15.75,
              "duration": 0.06875
            },
            {
              "pitch": 62,
              "velocity": 57,
              "position": 15.75,
              "duration": 0.08333333333333333
            },
            {
              "pitch": 63,
              "velocity": 86,
              "position": 16,
              "duration": 0.08333333333333333
            },
            {
              "pitch": 69,
              "velocity": 60,
              "position": 16.25,
              "duration": 0.06875
            },
            {
              "pitch": 63,
              "velocity": 48,
              "position": 16.25,
              "duration": 0.08333333333333333
            },
            {
              "pitch": 70,
              "velocity": 97,
              "position": 16.5,
              "duration": 0.06875
            },
            {
              "pitch": 64,
              "velocity": 45,
              "position": 16.5,
              "duration": 0.08333333333333333
            },
            {
              "pitch": 70,
              "velocity": 54,
              "position": 16.75,
              "duration": 0.06875
            },
            {
              "pitch": 64,
              "velocity": 71,
              "position": 16.75,
              "duration": 0.08333333333333333
            },
            {
              "pitch": 70,
              "velocity": 94,
              "position": 17.5,
              "duration": 0.06875
            },
            {
              "pitch": 62,
              "velocity": 110,
              "position": 17.5,
              "duration": 0.08333333333333333
            },
            {
              "pitch": 70,
              "velocity": 48,
              "position": 17.75,
              "duration": 0.06875
            },
            {
              "pitch": 62,
              "velocity": 59,
              "position": 17.75,
              "duration": 0.08333333333333333
            },
            {
              "pitch": 63,
              "velocity": 95,
              "position": 18,
              "duration": 0.08333333333333333
            },
            {
              "pitch": 69,
              "velocity": 60,
              "position": 18.25,
              "duration": 0.06875
            },
            {
              "pitch": 63,
              "velocity": 57,
              "position": 18.25,
              "duration": 0.08333333333333333
            },
            {
              "pitch": 70,
              "velocity": 97,
              "position": 18.5,
              "duration": 0.06875
            },
            {
              "pitch": 64,
              "velocity": 46,
              "position": 18.5,
              "duration": 0.08333333333333333
            },
            {
              "pitch": 70,
              "velocity": 54,
              "position": 18.75,
              "duration": 0.06875
            },
            {
              "pitch": 64,
              "velocity": 73,
              "position": 18.75,
              "duration": 0.08333333333333333
            },
            {
              "pitch": 62,
              "velocity": 47,
              "position": 19.25,
              "duration": 0.08333333333333333
            },
            {
              "pitch": 70,
              "velocity": 102,
              "position": 19.5,
              "duration": 0.06875
            },
            {
              "pitch": 62,
              "velocity": 118,
              "position": 19.5,
              "duration": 0.08333333333333333
            },
            {
              "pitch": 70,
              "velocity": 52,
              "position": 19.75,
              "duration": 0.06875
            },
            {
              "pitch": 62,
              "velocity": 68,
              "position": 19.75,
              "duration": 0.08333333333333333
            },
            {
              "pitch": 63,
              "velocity": 90,
              "position": 20,
              "duration": 0.08333333333333333
            },
            {
              "pitch": 69,
              "velocity": 60,
              "position": 20.25,
              "duration": 0.06875
            },
            {
              "pitch": 63,
              "velocity": 51,
              "position": 20.25,
              "duration": 0.08333333333333333
            },
            {
              "pitch": 70,
              "velocity": 96,
              "position": 20.5,
              "duration": 0.06875
            },
            {
              "pitch": 64,
              "velocity": 38,
              "position": 20.5,
              "duration": 0.08333333333333333
            },
            {
              "pitch": 70,
              "velocity": 48,
              "position": 20.75,
              "duration": 0.06875
            },
            {
              "pitch": 64,
              "velocity": 70,
              "position": 20.75,
              "duration": 0.08333333333333333
            },
            {
              "pitch": 70,
              "velocity": 106,
              "position": 21.5,
              "duration": 0.06875
            },
            {
              "pitch": 62,
              "velocity": 113,
              "position": 21.5,
              "duration": 0.08333333333333333
            },
            {
              "pitch": 70,
              "velocity": 53,
              "position": 21.75,
              "duration": 0.06875
            },
            {
              "pitch": 62,
              "velocity": 62,
              "position": 21.75,
              "duration": 0.08333333333333333
            },
            {
              "pitch": 63,
              "velocity": 88,
              "position": 22,
              "duration": 0.08333333333333333
            },
            {
              "pitch": 69,
              "velocity": 60,
              "position": 22.25,
              "duration": 0.07291666666666667
            },
            {
              "pitch": 63,
              "velocity": 49,
              "position": 22.25,
              "duration": 0.08333333333333333
            },
            {
              "pitch": 70,
              "velocity": 102,
              "position": 22.5,
              "duration": 0.07291666666666667
            },
            {
              "pitch": 64,
              "velocity": 45,
              "position": 22.5,
              "duration": 0.08333333333333333
            },
            {
              "pitch": 70,
              "velocity": 45,
              "position": 22.75,
              "duration": 0.07291666666666667
            },
            {
              "pitch": 64,
              "velocity": 72,
              "position": 22.75,
              "duration": 0.08333333333333333
            },
            {
              "pitch": 62,
              "velocity": 39,
              "position": 23.25,
              "duration": 0.08333333333333333
            },
            {
              "pitch": 70,
              "velocity": 100,
              "position": 23.5,
              "duration": 0.07291666666666667
            },
            {
              "pitch": 62,
              "velocity": 111,
              "position": 23.5,
              "duration": 0.08333333333333333
            },
            {
              "pitch": 70,
              "velocity": 46,
              "position": 23.75,
              "duration": 0.07291666666666667
            },
            {
              "pitch": 62,
              "velocity": 60,
              "position": 23.75,
              "duration": 0.08333333333333333
            },
            {
              "pitch": 63,
              "velocity": 90,
              "position": 24,
              "duration": 0.08333333333333333
            },
            {
              "pitch": 69,
              "velocity": 60,
              "position": 24.25,
              "duration": 0.07291666666666667
            },
            {
              "pitch": 63,
              "velocity": 51,
              "position": 24.25,
              "duration": 0.08333333333333333
            },
            {
              "pitch": 70,
              "velocity": 95,
              "position": 24.5,
              "duration": 0.07291666666666667
            },
            {
              "pitch": 64,
              "velocity": 43,
              "position": 24.5,
              "duration": 0.08333333333333333
            },
            {
              "pitch": 70,
              "velocity": 49,
              "position": 24.75,
              "duration": 0.07291666666666667
            },
            {
              "pitch": 64,
              "velocity": 68,
              "position": 24.75,
              "duration": 0.08333333333333333
            },
            {
              "pitch": 70,
              "velocity": 104,
              "position": 25.5,
              "duration": 0.07291666666666667
            },
            {
              "pitch": 62,
              "velocity": 113,
              "position": 25.5,
              "duration": 0.08333333333333333
            },
            {
              "pitch": 70,
              "velocity": 50,
              "position": 25.75,
              "duration": 0.07291666666666667
            },
            {
              "pitch": 62,
              "velocity": 62,
              "position": 25.75,
              "duration": 0.08333333333333333
            },
            {
              "pitch": 63,
              "velocity": 96,
              "position": 26,
              "duration": 0.08333333333333333
            },
            {
              "pitch": 69,
              "velocity": 60,
              "position": 26.25,
              "duration": 0.07291666666666667
            },
            {
              "pitch": 63,
              "velocity": 58,
              "position": 26.25,
              "duration": 0.08333333333333333
            },
            {
              "pitch": 70,
              "velocity": 95,
              "position": 26.5,
              "duration": 0.07291666666666667
            },
            {
              "pitch": 64,
              "velocity": 43,
              "position": 26.5,
              "duration": 0.08333333333333333
            },
            {
              "pitch": 70,
              "velocity": 42,
              "position": 26.75,
              "duration": 0.07291666666666667
            },
            {
              "pitch": 64,
              "velocity": 75,
              "position": 26.75,
              "duration": 0.08333333333333333
            },
            {
              "pitch": 62,
              "velocity": 48,
              "position": 27.25,
              "duration": 0.08333333333333333
            },
            {
              "pitch": 70,
              "velocity": 98,
              "position": 27.5,
              "duration": 0.07291666666666667
            },
            {
              "pitch": 62,
              "velocity": 119,
              "position": 27.5,
              "duration": 0.08333333333333333
            },
            {
              "pitch": 70,
              "velocity": 46,
              "position": 27.75,
              "duration": 0.07291666666666667
            },
            {
              "pitch": 62,
              "velocity": 69,
              "position": 27.75,
              "duration": 0.08333333333333333
            },
            {
              "pitch": 63,
              "velocity": 93,
              "position": 28,
              "duration": 0.08333333333333333
            },
            {
              "pitch": 69,
              "velocity": 60,
              "position": 28.25,
              "duration": 0.07291666666666667
            },
            {
              "pitch": 63,
              "velocity": 55,
              "position": 28.25,
              "duration": 0.08333333333333333
            },
            {
              "pitch": 70,
              "velocity": 96,
              "position": 28.5,
              "duration": 0.07291666666666667
            },
            {
              "pitch": 64,
              "velocity": 38,
              "position": 28.5,
              "duration": 0.08333333333333333
            },
            {
              "pitch": 70,
              "velocity": 42,
              "position": 28.75,
              "duration": 0.07291666666666667
            },
            {
              "pitch": 64,
              "velocity": 68,
              "position": 28.75,
              "duration": 0.08333333333333333
            },
            {
              "pitch": 70,
              "velocity": 102,
              "position": 29.5,
              "duration": 0.07291666666666667
            },
            {
              "pitch": 62,
              "velocity": 116,
              "position": 29.5,
              "duration": 0.08333333333333333
            },
            {
              "pitch": 70,
              "velocity": 54,
              "position": 29.75,
              "duration": 0.07291666666666667
            },
            {
              "pitch": 62,
              "velocity": 66,
              "position": 29.75,
              "duration": 0.08333333333333333
            },
            {
              "pitch": 63,
              "velocity": 93,
              "position": 30,
              "duration": 0.08333333333333333
            },
            {
              "pitch": 69,
              "velocity": 60,
              "position": 30.25,
              "duration": 0.07291666666666667
            },
            {
              "pitch": 63,
              "velocity": 55,
              "position": 30.25,
              "duration": 0.08333333333333333
            },
            {
              "pitch": 70,
              "velocity": 103,
              "position": 30.5,
              "duration": 0.07291666666666667
            },
            {
              "pitch": 64,
              "velocity": 44,
              "position": 30.5,
              "duration": 0.08333333333333333
            },
            {
              "pitch": 70,
              "velocity": 45,
              "position": 30.75,
              "duration": 0.07291666666666667
            },
            {
              "pitch": 64,
              "velocity": 75,
              "position": 30.75,
              "duration": 0.08333333333333333
            },
            {
              "pitch": 62,
              "velocity": 45,
              "position": 31.25,
              "duration": 0.08333333333333333
            },
            {
              "pitch": 70,
              "velocity": 97,
              "position": 31.5,
              "duration": 0.07291666666666667
            },
            {
              "pitch": 62,
              "velocity": 116,
              "position": 31.5,
              "duration": 0.08333333333333333
            },
            {
              "pitch": 70,
              "velocity": 52,
              "position": 31.75,
              "duration": 0.07291666666666667
            },
            {
              "pitch": 62,
              "velocity": 66,
              "position": 31.75,
              "duration": 0.08333333333333333
            }
          ]
        },
        "9": {
          "ctab": {
            "srcChannel": 9,
            "name": "MainDrum",
            "accType": "RHYTHM",
            "editable": false,
            "mutedNotes": [],
            "mutedChords": [],
            "autoStart": true,
            "sourceChordNote": 0,
            "sourceChordType": "Maj7",
            "ctb2Low": null,
            "ctb2Main": {
              "ntr": "ROOT_FIXED",
              "ntt": "BYPASS",
              "bassOn": false,
              "chordRootUpperLimit": 6,
              "noteLowLimit": 0,
              "noteHighLimit": 127,
              "rtr": "PITCH_SHIFT"
            },
            "ctb2High": null
          },
          "notes": [
            {
              "pitch": 36,
              "velocity": 82,
              "position": 0,
              "duration": 0.052083333333333336
            },
            {
              "pitch": 42,
              "velocity": 42,
              "position": 0,
              "duration": 0.052083333333333336
            },
            {
              "pitch": 42,
              "velocity": 35,
              "position": 0.2604166666666667,
              "duration": 0.052083333333333336
            },
            {
              "pitch": 42,
              "velocity": 77,
              "position": 0.5,
              "duration": 0.04791666666666667
            },
            {
              "pitch": 36,
              "velocity": 52,
              "position": 0.7604166666666666,
              "duration": 0.04791666666666667
            },
            {
              "pitch": 42,
              "velocity": 25,
              "position": 0.7604166666666666,
              "duration": 0.04791666666666667
            },
            {
              "pitch": 36,
              "velocity": 82,
              "position": 1,
              "duration": 0.04791666666666667
            },
            {
              "pitch": 42,
              "velocity": 40,
              "position": 1,
              "duration": 0.04791666666666667
            },
            {
              "pitch": 42,
              "velocity": 37,
              "position": 1.2604166666666667,
              "duration": 0.04791666666666667
            },
            {
              "pitch": 42,
              "velocity": 81,
              "position": 1.5,
              "duration": 0.04791666666666667
            },
            {
              "pitch": 42,
              "velocity": 18,
              "position": 1.7604166666666667,
              "duration": 0.04791666666666667
            },
            {
              "pitch": 36,
              "velocity": 82,
              "position": 2,
              "duration": 0.04791666666666667
            },
            {
              "pitch": 42,
              "velocity": 41,
              "position": 2,
              "duration": 0.04791666666666667
            },
            {
              "pitch": 42,
              "velocity": 30,
              "position": 2.2604166666666665,
              "duration": 0.04791666666666667
            },
            {
              "pitch": 42,
              "velocity": 81,
              "position": 2.5,
              "duration": 0.04791666666666667
            },
            {
              "pitch": 42,
              "velocity": 20,
              "position": 2.7604166666666665,
              "duration": 0.04791666666666667
            },
            {
              "pitch": 36,
              "velocity": 82,
              "position": 3,
              "duration": 0.04791666666666667
            },
            {
              "pitch": 42,
              "velocity": 42,
              "position": 3,
              "duration": 0.04791666666666667
            },
            {
              "pitch": 42,
              "velocity": 39,
              "position": 3.2604166666666665,
              "duration": 0.04791666666666667
            },
            {
              "pitch": 42,
              "velocity": 82,
              "position": 3.5,
              "duration": 0.04791666666666667
            },
            {
              "pitch": 42,
              "velocity": 24,
              "position": 3.7604166666666665,
              "duration": 0.04791666666666667
            },
            {
              "pitch": 36,
              "velocity": 82,
              "position": 4,
              "duration": 0.04791666666666667
            },
            {
              "pitch": 42,
              "velocity": 45,
              "position": 4,
              "duration": 0.04791666666666667
            },
            {
              "pitch": 42,
              "velocity": 37,
              "position": 4.260416666666667,
              "duration": 0.04791666666666667
            },
            {
              "pitch": 42,
              "velocity": 80,
              "position": 4.5,
              "duration": 0.04791666666666667
            },
            {
              "pitch": 36,
              "velocity": 52,
              "position": 4.760416666666667,
              "duration": 0.04791666666666667
            },
            {
              "pitch": 42,
              "velocity": 25,
              "position": 4.760416666666667,
              "duration": 0.04791666666666667
            },
            {
              "pitch": 36,
              "velocity": 82,
              "position": 5,
              "duration": 0.04791666666666667
            },
            {
              "pitch": 42,
              "velocity": 48,
              "position": 5,
              "duration": 0.04791666666666667
            },
            {
              "pitch": 42,
              "velocity": 30,
              "position": 5.260416666666667,
              "duration": 0.052083333333333336
            },
            {
              "pitch": 42,
              "velocity": 79,
              "position": 5.5,
              "duration": 0.052083333333333336
            },
            {
              "pitch": 42,
              "velocity": 19,
              "position": 5.760416666666667,
              "duration": 0.052083333333333336
            },
            {
              "pitch": 36,
              "velocity": 82,
              "position": 6,
              "duration": 0.052083333333333336
            },
            {
              "pitch": 42,
              "velocity": 44,
              "position": 6,
              "duration": 0.052083333333333336
            },
            {
              "pitch": 42,
              "velocity": 34,
              "position": 6.260416666666667,
              "duration": 0.052083333333333336
            },
            {
              "pitch": 42,
              "velocity": 83,
              "position": 6.5,
              "duration": 0.052083333333333336
            },
            {
              "pitch": 42,
              "velocity": 22,
              "position": 6.760416666666667,
              "duration": 0.052083333333333336
            },
            {
              "pitch": 36,
              "velocity": 82,
              "position": 7,
              "duration": 0.052083333333333336
            },
            {
              "pitch": 42,
              "velocity": 48,
              "position": 7,
              "duration": 0.052083333333333336
            },
            {
              "pitch": 42,
              "velocity": 33,
              "position": 7.260416666666667,
              "duration": 0.052083333333333336
            },
            {
              "pitch": 42,
              "velocity": 79,
              "position": 7.5,
              "duration": 0.052083333333333336
            },
            {
              "pitch": 42,
              "velocity": 26,
              "position": 7.760416666666667,
              "duration": 0.052083333333333336
            },
            {
              "pitch": 36,
              "velocity": 82,
              "position": 8,
              "duration": 0.052083333333333336
            },
            {
              "pitch": 42,
              "velocity": 46,
              "position": 8,
              "duration": 0.052083333333333336
            },
            {
              "pitch": 42,
              "velocity": 31,
              "position": 8.260416666666666,
              "duration": 0.052083333333333336
            },
            {
              "pitch": 42,
              "velocity": 80,
              "position": 8.5,
              "duration": 0.052083333333333336
            },
            {
              "pitch": 36,
              "velocity": 52,
              "position": 8.760416666666666,
              "duration": 0.052083333333333336
            },
            {
              "pitch": 42,
              "velocity": 18,
              "position": 8.760416666666666,
              "duration": 0.052083333333333336
            },
            {
              "pitch": 36,
              "velocity": 82,
              "position": 9,
              "duration": 0.052083333333333336
            },
            {
              "pitch": 42,
              "velocity": 43,
              "position": 9,
              "duration": 0.052083333333333336
            },
            {
              "pitch": 42,
              "velocity": 35,
              "position": 9.260416666666666,
              "duration": 0.052083333333333336
            },
            {
              "pitch": 42,
              "velocity": 84,
              "position": 9.5,
              "duration": 0.052083333333333336
            },
            {
              "pitch": 42,
              "velocity": 22,
              "position": 9.760416666666666,
              "duration": 0.052083333333333336
            },
            {
              "pitch": 36,
              "velocity": 82,
              "position": 10,
              "duration": 0.052083333333333336
            },
            {
              "pitch": 42,
              "velocity": 44,
              "position": 10,
              "duration": 0.052083333333333336
            },
            {
              "pitch": 42,
              "velocity": 40,
              "position": 10.260416666666666,
              "duration": 0.052083333333333336
            },
            {
              "pitch": 42,
              "velocity": 82,
              "position": 10.5,
              "duration": 0.052083333333333336
            },
            {
              "pitch": 42,
              "velocity": 25,
              "position": 10.760416666666666,
              "duration": 0.052083333333333336
            },
            {
              "pitch": 36,
              "velocity": 82,
              "position": 11,
              "duration": 0.052083333333333336
            },
            {
              "pitch": 42,
              "velocity": 42,
              "position": 11,
              "duration": 0.052083333333333336
            },
            {
              "pitch": 42,
              "velocity": 40,
              "position": 11.260416666666666,
              "duration": 0.052083333333333336
            },
            {
              "pitch": 42,
              "velocity": 82,
              "position": 11.5,
              "duration": 0.052083333333333336
            },
            {
              "pitch": 42,
              "velocity": 20,
              "position": 11.760416666666666,
              "duration": 0.052083333333333336
            },
            {
              "pitch": 36,
              "velocity": 82,
              "position": 12,
              "duration": 0.052083333333333336
            },
            {
              "pitch": 42,
              "velocity": 44,
              "position": 12,
              "duration": 0.052083333333333336
            },
            {
              "pitch": 42,
              "velocity": 39,
              "position": 12.260416666666666,
              "duration": 0.052083333333333336
            },
            {
              "pitch": 42,
              "velocity": 79,
              "position": 12.5,
              "duration": 0.052083333333333336
            },
            {
              "pitch": 36,
              "velocity": 52,
              "position": 12.760416666666666,
              "duration": 0.052083333333333336
            },
            {
              "pitch": 42,
              "velocity": 23,
              "position": 12.760416666666666,
              "duration": 0.052083333333333336
            },
            {
              "pitch": 36,
              "velocity": 82,
              "position": 13,
              "duration": 0.052083333333333336
            },
            {
              "pitch": 42,
              "velocity": 46,
              "position": 13,
              "duration": 0.052083333333333336
            },
            {
              "pitch": 42,
              "velocity": 34,
              "position": 13.260416666666666,
              "duration": 0.052083333333333336
            },
            {
              "pitch": 42,
              "velocity": 76,
              "position": 13.5,
              "duration": 0.052083333333333336
            },
            {
              "pitch": 42,
              "velocity": 18,
              "position": 13.760416666666666,
              "duration": 0.052083333333333336
            },
            {
              "pitch": 36,
              "velocity": 82,
              "position": 14,
              "duration": 0.052083333333333336
            },
            {
              "pitch": 42,
              "velocity": 40,
              "position": 14,
              "duration": 0.052083333333333336
            },
            {
              "pitch": 42,
              "velocity": 39,
              "position": 14.260416666666666,
              "duration": 0.052083333333333336
            },
            {
              "pitch": 42,
              "velocity": 80,
              "position": 14.5,
              "duration": 0.052083333333333336
            },
            {
              "pitch": 42,
              "velocity": 22,
              "position": 14.760416666666666,
              "duration": 0.052083333333333336
            },
            {
              "pitch": 36,
              "velocity": 82,
              "position": 15,
              "duration": 0.052083333333333336
            },
            {
              "pitch": 42,
              "velocity": 44,
              "position": 15,
              "duration": 0.052083333333333336
            },
            {
              "pitch": 42,
              "velocity": 39,
              "position": 15.260416666666666,
              "duration": 0.052083333333333336
            },
            {
              "pitch": 42,
              "velocity": 84,
              "position": 15.5,
              "duration": 0.052083333333333336
            },
            {
              "pitch": 42,
              "velocity": 17,
              "position": 15.760416666666666,
              "duration": 0.052083333333333336
            },
            {
              "pitch": 36,
              "velocity": 82,
              "position": 16,
              "duration": 0.052083333333333336
            },
            {
              "pitch": 42,
              "velocity": 41,
              "position": 16,
              "duration": 0.052083333333333336
            },
            {
              "pitch": 42,
              "velocity": 39,
              "position": 16.260416666666668,
              "duration": 0.052083333333333336
            },
            {
              "pitch": 42,
              "velocity": 85,
              "position": 16.5,
              "duration": 0.052083333333333336
            },
            {
              "pitch": 36,
              "velocity": 52,
              "position": 16.760416666666668,
              "duration": 0.052083333333333336
            },
            {
              "pitch": 42,
              "velocity": 21,
              "position": 16.760416666666668,
              "duration": 0.052083333333333336
            },
            {
              "pitch": 36,
              "velocity": 82,
              "position": 17,
              "duration": 0.052083333333333336
            },
            {
              "pitch": 42,
              "velocity": 46,
              "position": 17,
              "duration": 0.052083333333333336
            },
            {
              "pitch": 42,
              "velocity": 34,
              "position": 17.260416666666668,
              "duration": 0.052083333333333336
            },
            {
              "pitch": 42,
              "velocity": 76,
              "position": 17.5,
              "duration": 0.052083333333333336
            },
            {
              "pitch": 42,
              "velocity": 27,
              "position": 17.760416666666668,
              "duration": 0.052083333333333336
            },
            {
              "pitch": 36,
              "velocity": 82,
              "position": 18,
              "duration": 0.052083333333333336
            },
            {
              "pitch": 42,
              "velocity": 45,
              "position": 18,
              "duration": 0.052083333333333336
            },
            {
              "pitch": 42,
              "velocity": 40,
              "position": 18.260416666666668,
              "duration": 0.052083333333333336
            },
            {
              "pitch": 42,
              "velocity": 84,
              "position": 18.5,
              "duration": 0.052083333333333336
            },
            {
              "pitch": 42,
              "velocity": 21,
              "position": 18.760416666666668,
              "duration": 0.052083333333333336
            },
            {
              "pitch": 36,
              "velocity": 82,
              "position": 19,
              "duration": 0.052083333333333336
            },
            {
              "pitch": 42,
              "velocity": 43,
              "position": 19,
              "duration": 0.052083333333333336
            },
            {
              "pitch": 42,
              "velocity": 30,
              "position": 19.260416666666668,
              "duration": 0.052083333333333336
            },
            {
              "pitch": 42,
              "velocity": 83,
              "position": 19.5,
              "duration": 0.052083333333333336
            },
            {
              "pitch": 42,
              "velocity": 27,
              "position": 19.760416666666668,
              "duration": 0.052083333333333336
            },
            {
              "pitch": 36,
              "velocity": 82,
              "position": 20,
              "duration": 0.052083333333333336
            },
            {
              "pitch": 42,
              "velocity": 44,
              "position": 20,
              "duration": 0.052083333333333336
            },
            {
              "pitch": 42,
              "velocity": 31,
              "position": 20.260416666666668,
              "duration": 0.052083333333333336
            },
            {
              "pitch": 42,
              "velocity": 77,
              "position": 20.5,
              "duration": 0.052083333333333336
            },
            {
              "pitch": 36,
              "velocity": 52,
              "position": 20.760416666666668,
              "duration": 0.052083333333333336
            },
            {
              "pitch": 42,
              "velocity": 21,
              "position": 20.760416666666668,
              "duration": 0.052083333333333336
            },
            {
              "pitch": 36,
              "velocity": 82,
              "position": 21,
              "duration": 0.052083333333333336
            },
            {
              "pitch": 42,
              "velocity": 44,
              "position": 21,
              "duration": 0.052083333333333336
            },
            {
              "pitch": 42,
              "velocity": 37,
              "position": 21.260416666666668,
              "duration": 0.052083333333333336
            },
            {
              "pitch": 42,
              "velocity": 84,
              "position": 21.5,
              "duration": 0.052083333333333336
            },
            {
              "pitch": 42,
              "velocity": 17,
              "position": 21.760416666666668,
              "duration": 0.052083333333333336
            },
            {
              "pitch": 36,
              "velocity": 82,
              "position": 22,
              "duration": 0.052083333333333336
            },
            {
              "pitch": 42,
              "velocity": 48,
              "position": 22,
              "duration": 0.052083333333333336
            },
            {
              "pitch": 42,
              "velocity": 33,
              "position": 22.260416666666668,
              "duration": 0.052083333333333336
            },
            {
              "pitch": 42,
              "velocity": 75,
              "position": 22.5,
              "duration": 0.052083333333333336
            },
            {
              "pitch": 42,
              "velocity": 22,
              "position": 22.760416666666668,
              "duration": 0.052083333333333336
            },
            {
              "pitch": 36,
              "velocity": 82,
              "position": 23,
              "duration": 0.052083333333333336
            },
            {
              "pitch": 42,
              "velocity": 39,
              "position": 23,
              "duration": 0.052083333333333336
            },
            {
              "pitch": 42,
              "velocity": 35,
              "position": 23.260416666666668,
              "duration": 0.052083333333333336
            },
            {
              "pitch": 42,
              "velocity": 79,
              "position": 23.5,
              "duration": 0.052083333333333336
            },
            {
              "pitch": 42,
              "velocity": 19,
              "position": 23.760416666666668,
              "duration": 0.052083333333333336
            },
            {
              "pitch": 36,
              "velocity": 82,
              "position": 24,
              "duration": 0.052083333333333336
            },
            {
              "pitch": 42,
              "velocity": 45,
              "position": 24,
              "duration": 0.052083333333333336
            },
            {
              "pitch": 42,
              "velocity": 36,
              "position": 24.260416666666668,
              "duration": 0.052083333333333336
            },
            {
              "pitch": 42,
              "velocity": 78,
              "position": 24.5,
              "duration": 0.052083333333333336
            },
            {
              "pitch": 36,
              "velocity": 52,
              "position": 24.760416666666668,
              "duration": 0.052083333333333336
            },
            {
              "pitch": 42,
              "velocity": 23,
              "position": 24.760416666666668,
              "duration": 0.052083333333333336
            },
            {
              "pitch": 36,
              "velocity": 82,
              "position": 25,
              "duration": 0.052083333333333336
            },
            {
              "pitch": 42,
              "velocity": 39,
              "position": 25,
              "duration": 0.052083333333333336
            },
            {
              "pitch": 42,
              "velocity": 33,
              "position": 25.260416666666668,
              "duration": 0.052083333333333336
            },
            {
              "pitch": 42,
              "velocity": 79,
              "position": 25.5,
              "duration": 0.052083333333333336
            },
            {
              "pitch": 42,
              "velocity": 21,
              "position": 25.760416666666668,
              "duration": 0.052083333333333336
            },
            {
              "pitch": 36,
              "velocity": 82,
              "position": 26,
              "duration": 0.052083333333333336
            },
            {
              "pitch": 42,
              "velocity": 47,
              "position": 26,
              "duration": 0.052083333333333336
            },
            {
              "pitch": 42,
              "velocity": 40,
              "position": 26.260416666666668,
              "duration": 0.052083333333333336
            },
            {
              "pitch": 42,
              "velocity": 85,
              "position": 26.5,
              "duration": 0.052083333333333336
            },
            {
              "pitch": 42,
              "velocity": 26,
              "position": 26.760416666666668,
              "duration": 0.052083333333333336
            },
            {
              "pitch": 36,
              "velocity": 82,
              "position": 27,
              "duration": 0.052083333333333336
            },
            {
              "pitch": 42,
              "velocity": 44,
              "position": 27,
              "duration": 0.052083333333333336
            },
            {
              "pitch": 42,
              "velocity": 31,
              "position": 27.260416666666668,
              "duration": 0.052083333333333336
            },
            {
              "pitch": 42,
              "velocity": 83,
              "position": 27.5,
              "duration": 0.052083333333333336
            },
            {
              "pitch": 42,
              "velocity": 23,
              "position": 27.760416666666668,
              "duration": 0.052083333333333336
            },
            {
              "pitch": 36,
              "velocity": 82,
              "position": 28,
              "duration": 0.052083333333333336
            },
            {
              "pitch": 42,
              "velocity": 44,
              "position": 28,
              "duration": 0.052083333333333336
            },
            {
              "pitch": 42,
              "velocity": 33,
              "position": 28.260416666666668,
              "duration": 0.052083333333333336
            },
            {
              "pitch": 42,
              "velocity": 76,
              "position": 28.5,
              "duration": 0.052083333333333336
            },
            {
              "pitch": 36,
              "velocity": 52,
              "position": 28.760416666666668,
              "duration": 0.052083333333333336
            },
            {
              "pitch": 42,
              "velocity": 18,
              "position": 28.760416666666668,
              "duration": 0.052083333333333336
            },
            {
              "pitch": 36,
              "velocity": 82,
              "position": 29,
              "duration": 0.052083333333333336
            },
            {
              "pitch": 42,
              "velocity": 42,
              "position": 29,
              "duration": 0.052083333333333336
            },
            {
              "pitch": 42,
              "velocity": 30,
              "position": 29.260416666666668,
              "duration": 0.052083333333333336
            },
            {
              "pitch": 42,
              "velocity": 81,
              "position": 29.5,
              "duration": 0.052083333333333336
            },
            {
              "pitch": 42,
              "velocity": 27,
              "position": 29.760416666666668,
              "duration": 0.052083333333333336
            },
            {
              "pitch": 36,
              "velocity": 82,
              "position": 30,
              "duration": 0.052083333333333336
            },
            {
              "pitch": 42,
              "velocity": 44,
              "position": 30,
              "duration": 0.052083333333333336
            },
            {
              "pitch": 42,
              "velocity": 38,
              "position": 30.260416666666668,
              "duration": 0.052083333333333336
            },
            {
              "pitch": 42,
              "velocity": 82,
              "position": 30.5,
              "duration": 0.052083333333333336
            },
            {
              "pitch": 42,
              "velocity": 22,
              "position": 30.760416666666668,
              "duration": 0.052083333333333336
            },
            {
              "pitch": 36,
              "velocity": 82,
              "position": 31,
              "duration": 0.052083333333333336
            },
            {
              "pitch": 42,
              "velocity": 45,
              "position": 31,
              "duration": 0.052083333333333336
            },
            {
              "pitch": 42,
              "velocity": 30,
              "position": 31.260416666666668,
              "duration": 0.052083333333333336
            },
            {
              "pitch": 42,
              "velocity": 84,
              "position": 31.5,
              "duration": 0.052083333333333336
            },
            {
              "pitch": 42,
              "velocity": 20,
              "position": 31.760416666666668,
              "duration": 0.052083333333333336
            }
          ]
        },
        "10": {
          "ctab": {
            "srcChannel": 10,
            "name": "Bass",
            "accType": "BASS",
            "editable": false,
            "mutedNotes": [],
            "mutedChords": [],
            "autoStart": false,
            "sourceChordNote": 0,
            "sourceChordType": "Maj7",
            "ctb2Low": null,
            "ctb2Main": {
              "ntr": "ROOT_TRANSPOSITION",
              "ntt": "MELODY",
              "bassOn": true,
              "chordRootUpperLimit": 8,
              "noteLowLimit": 28,
              "noteHighLimit": 127,
              "rtr": "PITCH_SHIFT_TO_ROOT"
            },
            "ctb2High": null
          },
          "notes": [
            {
              "pitch": 24,
              "velocity": 60,
              "position": 0,
              "duration": 1.4854166666666666
            },
            {
              "pitch": 31,
              "velocity": 60,
              "position": 1.5,
              "duration": 0.48541666666666666
            },
            {
              "pitch": 24,
              "velocity": 60,
              "position": 2,
              "duration": 0.9854166666666667
            },
            {
              "pitch": 31,
              "velocity": 60,
              "position": 3,
              "duration": 0.9854166666666667
            },
            {
              "pitch": 24,
              "velocity": 60,
              "position": 4,
              "duration": 1.4895833333333333
            },
            {
              "pitch": 31,
              "velocity": 60,
              "position": 5.5,
              "duration": 0.4895833333333333
            },
            {
              "pitch": 24,
              "velocity": 60,
              "position": 6,
              "duration": 0.9895833333333334
            },
            {
              "pitch": 31,
              "velocity": 60,
              "position": 7,
              "duration": 0.9895833333333334
            },
            {
              "pitch": 24,
              "velocity": 60,
              "position": 8,
              "duration": 1.4895833333333333
            },
            {
              "pitch": 31,
              "velocity": 60,
              "position": 9.5,
              "duration": 0.4895833333333333
            },
            {
              "pitch": 24,
              "velocity": 60,
              "position": 10,
              "duration": 0.9895833333333334
            },
            {
              "pitch": 31,
              "velocity": 60,
              "position": 11,
              "duration": 0.9895833333333334
            },
            {
              "pitch": 24,
              "velocity": 60,
              "position": 12,
              "duration": 1.4895833333333333
            },
            {
              "pitch": 31,
              "velocity": 60,
              "position": 13.5,
              "duration": 0.4895833333333333
            },
            {
              "pitch": 24,
              "velocity": 60,
              "position": 14,
              "duration": 0.9895833333333334
            },
            {
              "pitch": 31,
              "velocity": 60,
              "position": 15,
              "duration": 0.9895833333333334
            },
            {
              "pitch": 24,
              "velocity": 60,
              "position": 16,
              "duration": 1.4895833333333333
            },
            {
              "pitch": 31,
              "velocity": 60,
              "position": 17.5,
              "duration": 0.4895833333333333
            },
            {
              "pitch": 24,
              "velocity": 60,
              "position": 18,
              "duration": 0.9895833333333334
            },
            {
              "pitch": 31,
              "velocity": 60,
              "position": 19,
              "duration": 0.9895833333333334
            },
            {
              "pitch": 24,
              "velocity": 60,
              "position": 20,
              "duration": 1.4895833333333333
            },
            {
              "pitch": 31,
              "velocity": 60,
              "position": 21.5,
              "duration": 0.4895833333333333
            },
            {
              "pitch": 24,
              "velocity": 60,
              "position": 22,
              "duration": 0.9895833333333334
            },
            {
              "pitch": 31,
              "velocity": 60,
              "position": 23,
              "duration": 0.9895833333333334
            },
            {
              "pitch": 24,
              "velocity": 60,
              "position": 24,
              "duration": 1.4895833333333333
            },
            {
              "pitch": 31,
              "velocity": 60,
              "position": 25.5,
              "duration": 0.4895833333333333
            },
            {
              "pitch": 24,
              "velocity": 60,
              "position": 26,
              "duration": 0.9895833333333334
            },
            {
              "pitch": 31,
              "velocity": 60,
              "position": 27,
              "duration": 0.9895833333333334
            },
            {
              "pitch": 24,
              "velocity": 60,
              "position": 28,
              "duration": 1.4895833333333333
            },
            {
              "pitch": 31,
              "velocity": 60,
              "position": 29.5,
              "duration": 0.4895833333333333
            },
            {
              "pitch": 24,
              "velocity": 60,
              "position": 30,
              "duration": 0.9895833333333334
            },
            {
              "pitch": 31,
              "velocity": 60,
              "position": 31,
              "duration": 0.9895833333333334
            }
          ]
        },
        "11": {
          "ctab": {
            "srcChannel": 11,
            "name": "Gt_Stk",
            "accType": "CHORD1",
            "editable": false,
            "mutedNotes": [],
            "mutedChords": [],
            "autoStart": false,
            "sourceChordNote": 0,
            "sourceChordType": "Maj7",
            "ctb2Low": null,
            "ctb2Main": {
              "ntr": "ROOT_TRANSPOSITION",
              "ntt": "MELODY",
              "bassOn": true,
              "chordRootUpperLimit": 7,
              "noteLowLimit": 0,
              "noteHighLimit": 127,
              "rtr": "PITCH_SHIFT"
            },
            "ctb2High": null
          },
          "notes": [
            {
              "pitch": 60,
              "velocity": 40,
              "position": 0.010416666666666666,
              "duration": 0.48125
            },
            {
              "pitch": 64,
              "velocity": 43,
              "position": 0,
              "duration": 0.49166666666666664
            },
            {
              "pitch": 67,
              "velocity": 41,
              "position": 0,
              "duration": 0.5020833333333333
            },
            {
              "pitch": 71,
              "velocity": 41,
              "position": 0,
              "duration": 0.5020833333333333
            },
            {
              "pitch": 67,
              "velocity": 44,
              "position": 0.5104166666666666,
              "duration": 0.7208333333333333
            },
            {
              "pitch": 71,
              "velocity": 44,
              "position": 0.5104166666666666,
              "duration": 0.7208333333333333
            },
            {
              "pitch": 60,
              "velocity": 41,
              "position": 0.5,
              "duration": 0.7416666666666667
            },
            {
              "pitch": 64,
              "velocity": 47,
              "position": 0.5,
              "duration": 0.7416666666666667
            },
            {
              "pitch": 48,
              "velocity": 48,
              "position": 0,
              "duration": 1.48125
            },
            {
              "pitch": 55,
              "velocity": 48,
              "position": 0,
              "duration": 1.48125
            },
            {
              "pitch": 59,
              "velocity": 48,
              "position": 0,
              "duration": 1.48125
            },
            {
              "pitch": 60,
              "velocity": 31,
              "position": 1.25,
              "duration": 0.24166666666666667
            },
            {
              "pitch": 64,
              "velocity": 35,
              "position": 1.25,
              "duration": 0.24166666666666667
            },
            {
              "pitch": 67,
              "velocity": 40,
              "position": 1.2395833333333333,
              "duration": 0.2625
            },
            {
              "pitch": 71,
              "velocity": 40,
              "position": 1.2395833333333333,
              "duration": 0.2625
            },
            {
              "pitch": 48,
              "velocity": 40,
              "position": 1.4895833333333333,
              "duration": 0.49166666666666664
            },
            {
              "pitch": 55,
              "velocity": 40,
              "position": 1.4895833333333333,
              "duration": 0.49166666666666664
            },
            {
              "pitch": 59,
              "velocity": 40,
              "position": 1.4895833333333333,
              "duration": 0.49166666666666664
            },
            {
              "pitch": 60,
              "velocity": 41,
              "position": 1.5,
              "duration": 0.49166666666666664
            },
            {
              "pitch": 64,
              "velocity": 47,
              "position": 1.5,
              "duration": 0.49166666666666664
            },
            {
              "pitch": 48,
              "velocity": 45,
              "position": 1.9895833333333333,
              "duration": 0.49166666666666664
            },
            {
              "pitch": 55,
              "velocity": 45,
              "position": 1.9895833333333333,
              "duration": 0.49166666666666664
            },
            {
              "pitch": 59,
              "velocity": 45,
              "position": 1.9895833333333333,
              "duration": 0.49166666666666664
            },
            {
              "pitch": 60,
              "velocity": 43,
              "position": 2,
              "duration": 0.49166666666666664
            },
            {
              "pitch": 64,
              "velocity": 41,
              "position": 2,
              "duration": 0.49166666666666664
            },
            {
              "pitch": 67,
              "velocity": 48,
              "position": 1.5104166666666667,
              "duration": 0.9916666666666667
            },
            {
              "pitch": 71,
              "velocity": 48,
              "position": 1.5104166666666667,
              "duration": 0.9916666666666667
            },
            {
              "pitch": 48,
              "velocity": 40,
              "position": 2.4895833333333335,
              "duration": 0.49166666666666664
            },
            {
              "pitch": 55,
              "velocity": 40,
              "position": 2.4895833333333335,
              "duration": 0.49166666666666664
            },
            {
              "pitch": 59,
              "velocity": 40,
              "position": 2.4895833333333335,
              "duration": 0.49166666666666664
            },
            {
              "pitch": 60,
              "velocity": 43,
              "position": 2.5,
              "duration": 0.49166666666666664
            },
            {
              "pitch": 64,
              "velocity": 47,
              "position": 2.5,
              "duration": 0.49166666666666664
            },
            {
              "pitch": 48,
              "velocity": 40,
              "position": 2.9895833333333335,
              "duration": 0.49166666666666664
            },
            {
              "pitch": 55,
              "velocity": 40,
              "position": 2.9895833333333335,
              "duration": 0.49166666666666664
            },
            {
              "pitch": 59,
              "velocity": 40,
              "position": 2.9895833333333335,
              "duration": 0.49166666666666664
            },
            {
              "pitch": 60,
              "velocity": 38,
              "position": 3,
              "duration": 0.49166666666666664
            },
            {
              "pitch": 64,
              "velocity": 41,
              "position": 3,
              "duration": 0.49166666666666664
            },
            {
              "pitch": 67,
              "velocity": 44,
              "position": 2.5104166666666665,
              "duration": 0.9916666666666667
            },
            {
              "pitch": 71,
              "velocity": 44,
              "position": 2.5104166666666665,
              "duration": 0.9916666666666667
            },
            {
              "pitch": 48,
              "velocity": 48,
              "position": 3.4895833333333335,
              "duration": 0.5020833333333333
            },
            {
              "pitch": 55,
              "velocity": 48,
              "position": 3.4895833333333335,
              "duration": 0.5020833333333333
            },
            {
              "pitch": 59,
              "velocity": 48,
              "position": 3.4895833333333335,
              "duration": 0.5020833333333333
            },
            {
              "pitch": 64,
              "velocity": 47,
              "position": 3.5,
              "duration": 0.49166666666666664
            },
            {
              "pitch": 67,
              "velocity": 48,
              "position": 3.5104166666666665,
              "duration": 0.49166666666666664
            },
            {
              "pitch": 71,
              "velocity": 48,
              "position": 3.5104166666666665,
              "duration": 0.49166666666666664
            },
            {
              "pitch": 60,
              "velocity": 48,
              "position": 3.5,
              "duration": 0.9916666666666667
            },
            {
              "pitch": 64,
              "velocity": 43,
              "position": 4,
              "duration": 0.49166666666666664
            },
            {
              "pitch": 67,
              "velocity": 41,
              "position": 4.010416666666667,
              "duration": 0.49166666666666664
            },
            {
              "pitch": 71,
              "velocity": 41,
              "position": 4.010416666666667,
              "duration": 0.49166666666666664
            },
            {
              "pitch": 67,
              "velocity": 44,
              "position": 4.510416666666667,
              "duration": 0.7208333333333333
            },
            {
              "pitch": 71,
              "velocity": 44,
              "position": 4.510416666666667,
              "duration": 0.7208333333333333
            },
            {
              "pitch": 60,
              "velocity": 41,
              "position": 4.5,
              "duration": 0.7416666666666667
            },
            {
              "pitch": 64,
              "velocity": 47,
              "position": 4.5,
              "duration": 0.7416666666666667
            },
            {
              "pitch": 48,
              "velocity": 47,
              "position": 4,
              "duration": 1.48125
            },
            {
              "pitch": 55,
              "velocity": 47,
              "position": 4,
              "duration": 1.48125
            },
            {
              "pitch": 59,
              "velocity": 47,
              "position": 4,
              "duration": 1.48125
            },
            {
              "pitch": 60,
              "velocity": 31,
              "position": 5.25,
              "duration": 0.24166666666666667
            },
            {
              "pitch": 64,
              "velocity": 35,
              "position": 5.25,
              "duration": 0.24166666666666667
            },
            {
              "pitch": 67,
              "velocity": 40,
              "position": 5.239583333333333,
              "duration": 0.2625
            },
            {
              "pitch": 71,
              "velocity": 40,
              "position": 5.239583333333333,
              "duration": 0.2625
            },
            {
              "pitch": 48,
              "velocity": 40,
              "position": 5.489583333333333,
              "duration": 0.49166666666666664
            },
            {
              "pitch": 55,
              "velocity": 40,
              "position": 5.489583333333333,
              "duration": 0.49166666666666664
            },
            {
              "pitch": 59,
              "velocity": 40,
              "position": 5.489583333333333,
              "duration": 0.49166666666666664
            },
            {
              "pitch": 60,
              "velocity": 41,
              "position": 5.5,
              "duration": 0.49166666666666664
            },
            {
              "pitch": 64,
              "velocity": 47,
              "position": 5.5,
              "duration": 0.49166666666666664
            },
            {
              "pitch": 48,
              "velocity": 45,
              "position": 5.989583333333333,
              "duration": 0.49166666666666664
            },
            {
              "pitch": 55,
              "velocity": 45,
              "position": 5.989583333333333,
              "duration": 0.49166666666666664
            },
            {
              "pitch": 59,
              "velocity": 45,
              "position": 5.989583333333333,
              "duration": 0.49166666666666664
            },
            {
              "pitch": 60,
              "velocity": 43,
              "position": 6,
              "duration": 0.49166666666666664
            },
            {
              "pitch": 64,
              "velocity": 41,
              "position": 6,
              "duration": 0.49166666666666664
            },
            {
              "pitch": 67,
              "velocity": 48,
              "position": 5.510416666666667,
              "duration": 0.9916666666666667
            },
            {
              "pitch": 71,
              "velocity": 48,
              "position": 5.510416666666667,
              "duration": 0.9916666666666667
            },
            {
              "pitch": 48,
              "velocity": 40,
              "position": 6.489583333333333,
              "duration": 0.49166666666666664
            },
            {
              "pitch": 55,
              "velocity": 40,
              "position": 6.489583333333333,
              "duration": 0.49166666666666664
            },
            {
              "pitch": 59,
              "velocity": 40,
              "position": 6.489583333333333,
              "duration": 0.49166666666666664
            },
            {
              "pitch": 60,
              "velocity": 43,
              "position": 6.5,
              "duration": 0.49166666666666664
            },
            {
              "pitch": 64,
              "velocity": 47,
              "position": 6.5,
              "duration": 0.49166666666666664
            },
            {
              "pitch": 48,
              "velocity": 40,
              "position": 6.989583333333333,
              "duration": 0.49166666666666664
            },
            {
              "pitch": 55,
              "velocity": 40,
              "position": 6.989583333333333,
              "duration": 0.49166666666666664
            },
            {
              "pitch": 59,
              "velocity": 40,
              "position": 6.989583333333333,
              "duration": 0.49166666666666664
            },
            {
              "pitch": 60,
              "velocity": 38,
              "position": 7,
              "duration": 0.49166666666666664
            },
            {
              "pitch": 64,
              "velocity": 41,
              "position": 7,
              "duration": 0.49166666666666664
            },
            {
              "pitch": 67,
              "velocity": 44,
              "position": 6.510416666666667,
              "duration": 0.9916666666666667
            },
            {
              "pitch": 71,
              "velocity": 44,
              "position": 6.510416666666667,
              "duration": 0.9916666666666667
            },
            {
              "pitch": 48,
              "velocity": 48,
              "position": 7.489583333333333,
              "duration": 0.49166666666666664
            },
            {
              "pitch": 55,
              "velocity": 48,
              "position": 7.489583333333333,
              "duration": 0.49166666666666664
            },
            {
              "pitch": 59,
              "velocity": 48,
              "position": 7.489583333333333,
              "duration": 0.49166666666666664
            },
            {
              "pitch": 60,
              "velocity": 48,
              "position": 7.5,
              "duration": 0.49166666666666664
            },
            {
              "pitch": 64,
              "velocity": 47,
              "position": 7.5,
              "duration": 0.49166666666666664
            },
            {
              "pitch": 67,
              "velocity": 48,
              "position": 7.510416666666667,
              "duration": 0.49166666666666664
            },
            {
              "pitch": 71,
              "velocity": 48,
              "position": 7.510416666666667,
              "duration": 0.49166666666666664
            },
            {
              "pitch": 60,
              "velocity": 40,
              "position": 8,
              "duration": 0.49166666666666664
            },
            {
              "pitch": 64,
              "velocity": 43,
              "position": 8,
              "duration": 0.49166666666666664
            },
            {
              "pitch": 67,
              "velocity": 41,
              "position": 8.010416666666666,
              "duration": 0.49166666666666664
            },
            {
              "pitch": 71,
              "velocity": 41,
              "position": 8.010416666666666,
              "duration": 0.49166666666666664
            },
            {
              "pitch": 67,
              "velocity": 44,
              "position": 8.510416666666666,
              "duration": 0.7208333333333333
            },
            {
              "pitch": 71,
              "velocity": 44,
              "position": 8.510416666666666,
              "duration": 0.7208333333333333
            },
            {
              "pitch": 60,
              "velocity": 41,
              "position": 8.5,
              "duration": 0.7416666666666667
            },
            {
              "pitch": 64,
              "velocity": 47,
              "position": 8.5,
              "duration": 0.7416666666666667
            },
            {
              "pitch": 48,
              "velocity": 48,
              "position": 7.989583333333333,
              "duration": 1.4916666666666667
            },
            {
              "pitch": 55,
              "velocity": 48,
              "position": 7.989583333333333,
              "duration": 1.4916666666666667
            },
            {
              "pitch": 59,
              "velocity": 48,
              "position": 7.989583333333333,
              "duration": 1.4916666666666667
            },
            {
              "pitch": 60,
              "velocity": 31,
              "position": 9.25,
              "duration": 0.24166666666666667
            },
            {
              "pitch": 64,
              "velocity": 36,
              "position": 9.25,
              "duration": 0.24166666666666667
            },
            {
              "pitch": 67,
              "velocity": 40,
              "position": 9.239583333333334,
              "duration": 0.2625
            },
            {
              "pitch": 71,
              "velocity": 40,
              "position": 9.239583333333334,
              "duration": 0.2625
            },
            {
              "pitch": 48,
              "velocity": 40,
              "position": 9.489583333333334,
              "duration": 0.49166666666666664
            },
            {
              "pitch": 55,
              "velocity": 40,
              "position": 9.489583333333334,
              "duration": 0.49166666666666664
            },
            {
              "pitch": 59,
              "velocity": 40,
              "position": 9.489583333333334,
              "duration": 0.49166666666666664
            },
            {
              "pitch": 60,
              "velocity": 41,
              "position": 9.5,
              "duration": 0.49166666666666664
            },
            {
              "pitch": 64,
              "velocity": 47,
              "position": 9.5,
              "duration": 0.49166666666666664
            },
            {
              "pitch": 48,
              "velocity": 45,
              "position": 9.989583333333334,
              "duration": 0.49166666666666664
            },
            {
              "pitch": 55,
              "velocity": 45,
              "position": 9.989583333333334,
              "duration": 0.49166666666666664
            },
            {
              "pitch": 59,
              "velocity": 45,
              "position": 9.989583333333334,
              "duration": 0.49166666666666664
            },
            {
              "pitch": 60,
              "velocity": 43,
              "position": 10,
              "duration": 0.49166666666666664
            },
            {
              "pitch": 64,
              "velocity": 41,
              "position": 10,
              "duration": 0.49166666666666664
            },
            {
              "pitch": 67,
              "velocity": 48,
              "position": 9.510416666666666,
              "duration": 0.9916666666666667
            },
            {
              "pitch": 71,
              "velocity": 48,
              "position": 9.510416666666666,
              "duration": 0.9916666666666667
            },
            {
              "pitch": 48,
              "velocity": 40,
              "position": 10.489583333333334,
              "duration": 0.49166666666666664
            },
            {
              "pitch": 55,
              "velocity": 40,
              "position": 10.489583333333334,
              "duration": 0.49166666666666664
            },
            {
              "pitch": 59,
              "velocity": 40,
              "position": 10.489583333333334,
              "duration": 0.49166666666666664
            },
            {
              "pitch": 60,
              "velocity": 43,
              "position": 10.5,
              "duration": 0.49166666666666664
            },
            {
              "pitch": 64,
              "velocity": 47,
              "position": 10.5,
              "duration": 0.49166666666666664
            },
            {
              "pitch": 48,
              "velocity": 40,
              "position": 10.989583333333334,
              "duration": 0.49166666666666664
            },
            {
              "pitch": 55,
              "velocity": 40,
              "position": 10.989583333333334,
              "duration": 0.49166666666666664
            },
            {
              "pitch": 59,
              "velocity": 40,
              "position": 10.989583333333334,
              "duration": 0.49166666666666664
            },
            {
              "pitch": 60,
              "velocity": 38,
              "position": 11,
              "duration": 0.49166666666666664
            },
            {
              "pitch": 64,
              "velocity": 41,
              "position": 11,
              "duration": 0.49166666666666664
            },
            {
              "pitch": 67,
              "velocity": 44,
              "position": 10.510416666666666,
              "duration": 0.9916666666666667
            },
            {
              "pitch": 71,
              "velocity": 44,
              "position": 10.510416666666666,
              "duration": 0.9916666666666667
            },
            {
              "pitch": 48,
              "velocity": 48,
              "position": 11.489583333333334,
              "duration": 0.5020833333333333
            },
            {
              "pitch": 55,
              "velocity": 48,
              "position": 11.489583333333334,
              "duration": 0.5020833333333333
            },
            {
              "pitch": 59,
              "velocity": 48,
              "position": 11.489583333333334,
              "duration": 0.5020833333333333
            },
            {
              "pitch": 64,
              "velocity": 47,
              "position": 11.5,
              "duration": 0.49166666666666664
            },
            {
              "pitch": 67,
              "velocity": 48,
              "position": 11.510416666666666,
              "duration": 0.49166666666666664
            },
            {
              "pitch": 71,
              "velocity": 48,
              "position": 11.510416666666666,
              "duration": 0.49166666666666664
            },
            {
              "pitch": 60,
              "velocity": 48,
              "position": 11.5,
              "duration": 0.9916666666666667
            },
            {
              "pitch": 64,
              "velocity": 43,
              "position": 12,
              "duration": 0.49166666666666664
            },
            {
              "pitch": 67,
              "velocity": 41,
              "position": 12.010416666666666,
              "duration": 0.49166666666666664
            },
            {
              "pitch": 71,
              "velocity": 41,
              "position": 12.010416666666666,
              "duration": 0.49166666666666664
            },
            {
              "pitch": 67,
              "velocity": 44,
              "position": 12.510416666666666,
              "duration": 0.7208333333333333
            },
            {
              "pitch": 71,
              "velocity": 44,
              "position": 12.510416666666666,
              "duration": 0.7208333333333333
            },
            {
              "pitch": 60,
              "velocity": 41,
              "position": 12.5,
              "duration": 0.7416666666666667
            },
            {
              "pitch": 64,
              "velocity": 47,
              "position": 12.5,
              "duration": 0.7416666666666667
            },
            {
              "pitch": 48,
              "velocity": 47,
              "position": 12,
              "duration": 1.48125
            },
            {
              "pitch": 55,
              "velocity": 47,
              "position": 12,
              "duration": 1.48125
            },
            {
              "pitch": 59,
              "velocity": 47,
              "position": 12,
              "duration": 1.48125
            },
            {
              "pitch": 60,
              "velocity": 31,
              "position": 13.25,
              "duration": 0.24166666666666667
            },
            {
              "pitch": 64,
              "velocity": 36,
              "position": 13.25,
              "duration": 0.24166666666666667
            },
            {
              "pitch": 67,
              "velocity": 40,
              "position": 13.239583333333334,
              "duration": 0.2625
            },
            {
              "pitch": 71,
              "velocity": 40,
              "position": 13.239583333333334,
              "duration": 0.2625
            },
            {
              "pitch": 48,
              "velocity": 40,
              "position": 13.489583333333334,
              "duration": 0.49166666666666664
            },
            {
              "pitch": 55,
              "velocity": 40,
              "position": 13.489583333333334,
              "duration": 0.49166666666666664
            },
            {
              "pitch": 59,
              "velocity": 40,
              "position": 13.489583333333334,
              "duration": 0.49166666666666664
            },
            {
              "pitch": 60,
              "velocity": 41,
              "position": 13.5,
              "duration": 0.49166666666666664
            },
            {
              "pitch": 64,
              "velocity": 47,
              "position": 13.5,
              "duration": 0.49166666666666664
            },
            {
              "pitch": 48,
              "velocity": 45,
              "position": 13.989583333333334,
              "duration": 0.49166666666666664
            },
            {
              "pitch": 55,
              "velocity": 45,
              "position": 13.989583333333334,
              "duration": 0.49166666666666664
            },
            {
              "pitch": 59,
              "velocity": 45,
              "position": 13.989583333333334,
              "duration": 0.49166666666666664
            },
            {
              "pitch": 60,
              "velocity": 43,
              "position": 14,
              "duration": 0.49166666666666664
            },
            {
              "pitch": 64,
              "velocity": 41,
              "position": 14,
              "duration": 0.49166666666666664
            },
            {
              "pitch": 67,
              "velocity": 48,
              "position": 13.510416666666666,
              "duration": 0.9916666666666667
            },
            {
              "pitch": 71,
              "velocity": 48,
              "position": 13.510416666666666,
              "duration": 0.9916666666666667
            },
            {
              "pitch": 48,
              "velocity": 40,
              "position": 14.489583333333334,
              "duration": 0.49166666666666664
            },
            {
              "pitch": 55,
              "velocity": 40,
              "position": 14.489583333333334,
              "duration": 0.49166666666666664
            },
            {
              "pitch": 59,
              "velocity": 40,
              "position": 14.489583333333334,
              "duration": 0.49166666666666664
            },
            {
              "pitch": 60,
              "velocity": 43,
              "position": 14.5,
              "duration": 0.49166666666666664
            },
            {
              "pitch": 64,
              "velocity": 47,
              "position": 14.5,
              "duration": 0.49166666666666664
            },
            {
              "pitch": 48,
              "velocity": 40,
              "position": 14.989583333333334,
              "duration": 0.49166666666666664
            },
            {
              "pitch": 55,
              "velocity": 40,
              "position": 14.989583333333334,
              "duration": 0.49166666666666664
            },
            {
              "pitch": 59,
              "velocity": 40,
              "position": 14.989583333333334,
              "duration": 0.49166666666666664
            },
            {
              "pitch": 60,
              "velocity": 38,
              "position": 15,
              "duration": 0.49166666666666664
            },
            {
              "pitch": 64,
              "velocity": 41,
              "position": 15,
              "duration": 0.49166666666666664
            },
            {
              "pitch": 67,
              "velocity": 44,
              "position": 14.510416666666666,
              "duration": 0.9916666666666667
            },
            {
              "pitch": 71,
              "velocity": 44,
              "position": 14.510416666666666,
              "duration": 0.9916666666666667
            },
            {
              "pitch": 48,
              "velocity": 48,
              "position": 15.489583333333334,
              "duration": 0.49166666666666664
            },
            {
              "pitch": 55,
              "velocity": 48,
              "position": 15.489583333333334,
              "duration": 0.49166666666666664
            },
            {
              "pitch": 59,
              "velocity": 48,
              "position": 15.489583333333334,
              "duration": 0.49166666666666664
            },
            {
              "pitch": 60,
              "velocity": 48,
              "position": 15.5,
              "duration": 0.49166666666666664
            },
            {
              "pitch": 64,
              "velocity": 47,
              "position": 15.5,
              "duration": 0.49166666666666664
            },
            {
              "pitch": 67,
              "velocity": 48,
              "position": 15.510416666666666,
              "duration": 0.49166666666666664
            },
            {
              "pitch": 71,
              "velocity": 48,
              "position": 15.510416666666666,
              "duration": 0.49166666666666664
            },
            {
              "pitch": 60,
              "velocity": 40,
              "position": 16,
              "duration": 0.49166666666666664
            },
            {
              "pitch": 64,
              "velocity": 43,
              "position": 16,
              "duration": 0.49166666666666664
            },
            {
              "pitch": 67,
              "velocity": 41,
              "position": 16.010416666666668,
              "duration": 0.49166666666666664
            },
            {
              "pitch": 71,
              "velocity": 41,
              "position": 16.010416666666668,
              "duration": 0.49166666666666664
            },
            {
              "pitch": 67,
              "velocity": 44,
              "position": 16.510416666666668,
              "duration": 0.7208333333333333
            },
            {
              "pitch": 71,
              "velocity": 44,
              "position": 16.510416666666668,
              "duration": 0.7208333333333333
            },
            {
              "pitch": 60,
              "velocity": 41,
              "position": 16.5,
              "duration": 0.7416666666666667
            },
            {
              "pitch": 64,
              "velocity": 47,
              "position": 16.5,
              "duration": 0.7416666666666667
            },
            {
              "pitch": 48,
              "velocity": 48,
              "position": 15.989583333333334,
              "duration": 1.4916666666666667
            },
            {
              "pitch": 55,
              "velocity": 48,
              "position": 15.989583333333334,
              "duration": 1.4916666666666667
            },
            {
              "pitch": 59,
              "velocity": 48,
              "position": 15.989583333333334,
              "duration": 1.4916666666666667
            },
            {
              "pitch": 60,
              "velocity": 31,
              "position": 17.25,
              "duration": 0.24166666666666667
            },
            {
              "pitch": 64,
              "velocity": 36,
              "position": 17.25,
              "duration": 0.24166666666666667
            },
            {
              "pitch": 67,
              "velocity": 40,
              "position": 17.239583333333332,
              "duration": 0.2625
            },
            {
              "pitch": 71,
              "velocity": 40,
              "position": 17.239583333333332,
              "duration": 0.2625
            },
            {
              "pitch": 48,
              "velocity": 40,
              "position": 17.489583333333332,
              "duration": 0.49166666666666664
            },
            {
              "pitch": 55,
              "velocity": 40,
              "position": 17.489583333333332,
              "duration": 0.49166666666666664
            },
            {
              "pitch": 59,
              "velocity": 40,
              "position": 17.489583333333332,
              "duration": 0.49166666666666664
            },
            {
              "pitch": 60,
              "velocity": 41,
              "position": 17.5,
              "duration": 0.49166666666666664
            },
            {
              "pitch": 64,
              "velocity": 47,
              "position": 17.5,
              "duration": 0.49166666666666664
            },
            {
              "pitch": 48,
              "velocity": 45,
              "position": 17.989583333333332,
              "duration": 0.49166666666666664
            },
            {
              "pitch": 55,
              "velocity": 45,
              "position": 17.989583333333332,
              "duration": 0.49166666666666664
            },
            {
              "pitch": 59,
              "velocity": 45,
              "position": 17.989583333333332,
              "duration": 0.49166666666666664
            },
            {
              "pitch": 60,
              "velocity": 43,
              "position": 18,
              "duration": 0.49166666666666664
            },
            {
              "pitch": 64,
              "velocity": 41,
              "position": 18,
              "duration": 0.49166666666666664
            },
            {
              "pitch": 67,
              "velocity": 48,
              "position": 17.510416666666668,
              "duration": 0.9916666666666667
            },
            {
              "pitch": 71,
              "velocity": 48,
              "position": 17.510416666666668,
              "duration": 0.9916666666666667
            },
            {
              "pitch": 48,
              "velocity": 40,
              "position": 18.489583333333332,
              "duration": 0.49166666666666664
            },
            {
              "pitch": 55,
              "velocity": 40,
              "position": 18.489583333333332,
              "duration": 0.49166666666666664
            },
            {
              "pitch": 59,
              "velocity": 40,
              "position": 18.489583333333332,
              "duration": 0.49166666666666664
            },
            {
              "pitch": 60,
              "velocity": 43,
              "position": 18.5,
              "duration": 0.49166666666666664
            },
            {
              "pitch": 64,
              "velocity": 47,
              "position": 18.5,
              "duration": 0.49166666666666664
            },
            {
              "pitch": 48,
              "velocity": 40,
              "position": 18.989583333333332,
              "duration": 0.49166666666666664
            },
            {
              "pitch": 55,
              "velocity": 40,
              "position": 18.989583333333332,
              "duration": 0.49166666666666664
            },
            {
              "pitch": 59,
              "velocity": 40,
              "position": 18.989583333333332,
              "duration": 0.49166666666666664
            },
            {
              "pitch": 60,
              "velocity": 38,
              "position": 19,
              "duration": 0.49166666666666664
            },
            {
              "pitch": 64,
              "velocity": 41,
              "position": 19,
              "duration": 0.49166666666666664
            },
            {
              "pitch": 67,
              "velocity": 44,
              "position": 18.510416666666668,
              "duration": 0.9916666666666667
            },
            {
              "pitch": 71,
              "velocity": 44,
              "position": 18.510416666666668,
              "duration": 0.9916666666666667
            },
            {
              "pitch": 48,
              "velocity": 48,
              "position": 19.489583333333332,
              "duration": 0.5020833333333333
            },
            {
              "pitch": 55,
              "velocity": 48,
              "position": 19.489583333333332,
              "duration": 0.5020833333333333
            },
            {
              "pitch": 59,
              "velocity": 48,
              "position": 19.489583333333332,
              "duration": 0.5020833333333333
            },
            {
              "pitch": 64,
              "velocity": 47,
              "position": 19.5,
              "duration": 0.49166666666666664
            },
            {
              "pitch": 67,
              "velocity": 48,
              "position": 19.510416666666668,
              "duration": 0.49166666666666664
            },
            {
              "pitch": 71,
              "velocity": 48,
              "position": 19.510416666666668,
              "duration": 0.49166666666666664
            },
            {
              "pitch": 60,
              "velocity": 48,
              "position": 19.5,
              "duration": 0.9916666666666667
            },
            {
              "pitch": 64,
              "velocity": 43,
              "position": 20,
              "duration": 0.49166666666666664
            },
            {
              "pitch": 67,
              "velocity": 41,
              "position": 20.010416666666668,
              "duration": 0.49166666666666664
            },
            {
              "pitch": 71,
              "velocity": 41,
              "position": 20.010416666666668,
              "duration": 0.49166666666666664
            },
            {
              "pitch": 67,
              "velocity": 44,
              "position": 20.510416666666668,
              "duration": 0.7208333333333333
            },
            {
              "pitch": 71,
              "velocity": 44,
              "position": 20.510416666666668,
              "duration": 0.7208333333333333
            },
            {
              "pitch": 60,
              "velocity": 41,
              "position": 20.5,
              "duration": 0.7416666666666667
            },
            {
              "pitch": 64,
              "velocity": 47,
              "position": 20.5,
              "duration": 0.7416666666666667
            },
            {
              "pitch": 48,
              "velocity": 47,
              "position": 20,
              "duration": 1.48125
            },
            {
              "pitch": 55,
              "velocity": 47,
              "position": 20,
              "duration": 1.48125
            },
            {
              "pitch": 59,
              "velocity": 47,
              "position": 20,
              "duration": 1.48125
            },
            {
              "pitch": 60,
              "velocity": 31,
              "position": 21.25,
              "duration": 0.24166666666666667
            },
            {
              "pitch": 64,
              "velocity": 36,
              "position": 21.25,
              "duration": 0.24166666666666667
            },
            {
              "pitch": 67,
              "velocity": 40,
              "position": 21.239583333333332,
              "duration": 0.2625
            },
            {
              "pitch": 71,
              "velocity": 40,
              "position": 21.239583333333332,
              "duration": 0.2625
            },
            {
              "pitch": 48,
              "velocity": 40,
              "position": 21.489583333333332,
              "duration": 0.49166666666666664
            },
            {
              "pitch": 55,
              "velocity": 40,
              "position": 21.489583333333332,
              "duration": 0.49166666666666664
            },
            {
              "pitch": 59,
              "velocity": 40,
              "position": 21.489583333333332,
              "duration": 0.49166666666666664
            },
            {
              "pitch": 60,
              "velocity": 41,
              "position": 21.5,
              "duration": 0.49166666666666664
            },
            {
              "pitch": 64,
              "velocity": 47,
              "position": 21.5,
              "duration": 0.49166666666666664
            },
            {
              "pitch": 48,
              "velocity": 45,
              "position": 21.989583333333332,
              "duration": 0.49166666666666664
            },
            {
              "pitch": 55,
              "velocity": 45,
              "position": 21.989583333333332,
              "duration": 0.49166666666666664
            },
            {
              "pitch": 59,
              "velocity": 45,
              "position": 21.989583333333332,
              "duration": 0.49166666666666664
            },
            {
              "pitch": 60,
              "velocity": 43,
              "position": 22,
              "duration": 0.49166666666666664
            },
            {
              "pitch": 64,
              "velocity": 41,
              "position": 22,
              "duration": 0.49166666666666664
            },
            {
              "pitch": 67,
              "velocity": 48,
              "position": 21.510416666666668,
              "duration": 0.9916666666666667
            },
            {
              "pitch": 71,
              "velocity": 48,
              "position": 21.510416666666668,
              "duration": 0.9916666666666667
            },
            {
              "pitch": 48,
              "velocity": 40,
              "position": 22.489583333333332,
              "duration": 0.49166666666666664
            },
            {
              "pitch": 55,
              "velocity": 40,
              "position": 22.489583333333332,
              "duration": 0.49166666666666664
            },
            {
              "pitch": 59,
              "velocity": 40,
              "position": 22.489583333333332,
              "duration": 0.49166666666666664
            },
            {
              "pitch": 60,
              "velocity": 43,
              "position": 22.5,
              "duration": 0.49166666666666664
            },
            {
              "pitch": 64,
              "velocity": 47,
              "position": 22.5,
              "duration": 0.49166666666666664
            },
            {
              "pitch": 48,
              "velocity": 40,
              "position": 22.989583333333332,
              "duration": 0.49166666666666664
            },
            {
              "pitch": 55,
              "velocity": 40,
              "position": 22.989583333333332,
              "duration": 0.49166666666666664
            },
            {
              "pitch": 59,
              "velocity": 40,
              "position": 22.989583333333332,
              "duration": 0.49166666666666664
            },
            {
              "pitch": 60,
              "velocity": 38,
              "position": 23,
              "duration": 0.49166666666666664
            },
            {
              "pitch": 64,
              "velocity": 41,
              "position": 23,
              "duration": 0.49166666666666664
            },
            {
              "pitch": 67,
              "velocity": 44,
              "position": 22.510416666666668,
              "duration": 0.9916666666666667
            },
            {
              "pitch": 71,
              "velocity": 44,
              "position": 22.510416666666668,
              "duration": 0.9916666666666667
            },
            {
              "pitch": 48,
              "velocity": 48,
              "position": 23.489583333333332,
              "duration": 0.49166666666666664
            },
            {
              "pitch": 55,
              "velocity": 48,
              "position": 23.489583333333332,
              "duration": 0.49166666666666664
            },
            {
              "pitch": 59,
              "velocity": 48,
              "position": 23.489583333333332,
              "duration": 0.49166666666666664
            },
            {
              "pitch": 60,
              "velocity": 48,
              "position": 23.5,
              "duration": 0.49166666666666664
            },
            {
              "pitch": 64,
              "velocity": 47,
              "position": 23.5,
              "duration": 0.49166666666666664
            },
            {
              "pitch": 67,
              "velocity": 48,
              "position": 23.510416666666668,
              "duration": 0.49166666666666664
            },
            {
              "pitch": 71,
              "velocity": 48,
              "position": 23.510416666666668,
              "duration": 0.49166666666666664
            },
            {
              "pitch": 60,
              "velocity": 40,
              "position": 24,
              "duration": 0.49166666666666664
            },
            {
              "pitch": 64,
              "velocity": 42,
              "position": 24,
              "duration": 0.49166666666666664
            },
            {
              "pitch": 67,
              "velocity": 41,
              "position": 24.010416666666668,
              "duration": 0.49166666666666664
            },
            {
              "pitch": 71,
              "velocity": 41,
              "position": 24.010416666666668,
              "duration": 0.49166666666666664
            },
            {
              "pitch": 67,
              "velocity": 44,
              "position": 24.510416666666668,
              "duration": 0.7208333333333333
            },
            {
              "pitch": 71,
              "velocity": 44,
              "position": 24.510416666666668,
              "duration": 0.7208333333333333
            },
            {
              "pitch": 60,
              "velocity": 41,
              "position": 24.5,
              "duration": 0.7416666666666667
            },
            {
              "pitch": 64,
              "velocity": 47,
              "position": 24.5,
              "duration": 0.7416666666666667
            },
            {
              "pitch": 48,
              "velocity": 48,
              "position": 23.989583333333332,
              "duration": 1.4916666666666667
            },
            {
              "pitch": 55,
              "velocity": 48,
              "position": 23.989583333333332,
              "duration": 1.4916666666666667
            },
            {
              "pitch": 59,
              "velocity": 48,
              "position": 23.989583333333332,
              "duration": 1.4916666666666667
            },
            {
              "pitch": 60,
              "velocity": 31,
              "position": 25.25,
              "duration": 0.24166666666666667
            },
            {
              "pitch": 64,
              "velocity": 36,
              "position": 25.25,
              "duration": 0.24166666666666667
            },
            {
              "pitch": 67,
              "velocity": 40,
              "position": 25.239583333333332,
              "duration": 0.2625
            },
            {
              "pitch": 71,
              "velocity": 40,
              "position": 25.239583333333332,
              "duration": 0.2625
            },
            {
              "pitch": 48,
              "velocity": 40,
              "position": 25.489583333333332,
              "duration": 0.49166666666666664
            },
            {
              "pitch": 55,
              "velocity": 40,
              "position": 25.489583333333332,
              "duration": 0.49166666666666664
            },
            {
              "pitch": 59,
              "velocity": 40,
              "position": 25.489583333333332,
              "duration": 0.49166666666666664
            },
            {
              "pitch": 60,
              "velocity": 41,
              "position": 25.5,
              "duration": 0.49166666666666664
            },
            {
              "pitch": 64,
              "velocity": 47,
              "position": 25.5,
              "duration": 0.49166666666666664
            },
            {
              "pitch": 48,
              "velocity": 45,
              "position": 25.989583333333332,
              "duration": 0.49166666666666664
            },
            {
              "pitch": 55,
              "velocity": 45,
              "position": 25.989583333333332,
              "duration": 0.49166666666666664
            },
            {
              "pitch": 59,
              "velocity": 45,
              "position": 25.989583333333332,
              "duration": 0.49166666666666664
            },
            {
              "pitch": 60,
              "velocity": 43,
              "position": 26,
              "duration": 0.49166666666666664
            },
            {
              "pitch": 64,
              "velocity": 41,
              "position": 26,
              "duration": 0.49166666666666664
            },
            {
              "pitch": 67,
              "velocity": 48,
              "position": 25.510416666666668,
              "duration": 0.9916666666666667
            },
            {
              "pitch": 71,
              "velocity": 48,
              "position": 25.510416666666668,
              "duration": 0.9916666666666667
            },
            {
              "pitch": 48,
              "velocity": 40,
              "position": 26.489583333333332,
              "duration": 0.49166666666666664
            },
            {
              "pitch": 55,
              "velocity": 40,
              "position": 26.489583333333332,
              "duration": 0.49166666666666664
            },
            {
              "pitch": 59,
              "velocity": 40,
              "position": 26.489583333333332,
              "duration": 0.49166666666666664
            },
            {
              "pitch": 60,
              "velocity": 43,
              "position": 26.5,
              "duration": 0.49166666666666664
            },
            {
              "pitch": 64,
              "velocity": 47,
              "position": 26.5,
              "duration": 0.49166666666666664
            },
            {
              "pitch": 48,
              "velocity": 40,
              "position": 26.989583333333332,
              "duration": 0.49166666666666664
            },
            {
              "pitch": 55,
              "velocity": 40,
              "position": 26.989583333333332,
              "duration": 0.49166666666666664
            },
            {
              "pitch": 59,
              "velocity": 40,
              "position": 26.989583333333332,
              "duration": 0.49166666666666664
            },
            {
              "pitch": 60,
              "velocity": 38,
              "position": 27,
              "duration": 0.49166666666666664
            },
            {
              "pitch": 64,
              "velocity": 41,
              "position": 27,
              "duration": 0.49166666666666664
            },
            {
              "pitch": 67,
              "velocity": 44,
              "position": 26.510416666666668,
              "duration": 0.9916666666666667
            },
            {
              "pitch": 71,
              "velocity": 44,
              "position": 26.510416666666668,
              "duration": 0.9916666666666667
            },
            {
              "pitch": 48,
              "velocity": 48,
              "position": 27.489583333333332,
              "duration": 0.5020833333333333
            },
            {
              "pitch": 55,
              "velocity": 48,
              "position": 27.489583333333332,
              "duration": 0.5020833333333333
            },
            {
              "pitch": 59,
              "velocity": 48,
              "position": 27.489583333333332,
              "duration": 0.5020833333333333
            },
            {
              "pitch": 64,
              "velocity": 47,
              "position": 27.5,
              "duration": 0.49166666666666664
            },
            {
              "pitch": 67,
              "velocity": 48,
              "position": 27.510416666666668,
              "duration": 0.49166666666666664
            },
            {
              "pitch": 71,
              "velocity": 48,
              "position": 27.510416666666668,
              "duration": 0.49166666666666664
            },
            {
              "pitch": 60,
              "velocity": 48,
              "position": 27.5,
              "duration": 0.9916666666666667
            },
            {
              "pitch": 64,
              "velocity": 42,
              "position": 28,
              "duration": 0.49166666666666664
            },
            {
              "pitch": 67,
              "velocity": 41,
              "position": 28.010416666666668,
              "duration": 0.49166666666666664
            },
            {
              "pitch": 71,
              "velocity": 41,
              "position": 28.010416666666668,
              "duration": 0.49166666666666664
            },
            {
              "pitch": 67,
              "velocity": 44,
              "position": 28.510416666666668,
              "duration": 0.7208333333333333
            },
            {
              "pitch": 71,
              "velocity": 44,
              "position": 28.510416666666668,
              "duration": 0.7208333333333333
            },
            {
              "pitch": 60,
              "velocity": 41,
              "position": 28.5,
              "duration": 0.7416666666666667
            },
            {
              "pitch": 64,
              "velocity": 47,
              "position": 28.5,
              "duration": 0.7416666666666667
            },
            {
              "pitch": 48,
              "velocity": 47,
              "position": 28,
              "duration": 1.48125
            },
            {
              "pitch": 55,
              "velocity": 47,
              "position": 28,
              "duration": 1.48125
            },
            {
              "pitch": 59,
              "velocity": 47,
              "position": 28,
              "duration": 1.48125
            },
            {
              "pitch": 60,
              "velocity": 31,
              "position": 29.25,
              "duration": 0.24166666666666667
            },
            {
              "pitch": 64,
              "velocity": 36,
              "position": 29.25,
              "duration": 0.24166666666666667
            },
            {
              "pitch": 67,
              "velocity": 40,
              "position": 29.239583333333332,
              "duration": 0.2625
            },
            {
              "pitch": 71,
              "velocity": 40,
              "position": 29.239583333333332,
              "duration": 0.2625
            },
            {
              "pitch": 48,
              "velocity": 40,
              "position": 29.489583333333332,
              "duration": 0.49166666666666664
            },
            {
              "pitch": 55,
              "velocity": 40,
              "position": 29.489583333333332,
              "duration": 0.49166666666666664
            },
            {
              "pitch": 59,
              "velocity": 40,
              "position": 29.489583333333332,
              "duration": 0.49166666666666664
            },
            {
              "pitch": 60,
              "velocity": 41,
              "position": 29.5,
              "duration": 0.49166666666666664
            },
            {
              "pitch": 64,
              "velocity": 47,
              "position": 29.5,
              "duration": 0.49166666666666664
            },
            {
              "pitch": 48,
              "velocity": 45,
              "position": 29.989583333333332,
              "duration": 0.49166666666666664
            },
            {
              "pitch": 55,
              "velocity": 45,
              "position": 29.989583333333332,
              "duration": 0.49166666666666664
            },
            {
              "pitch": 59,
              "velocity": 45,
              "position": 29.989583333333332,
              "duration": 0.49166666666666664
            },
            {
              "pitch": 60,
              "velocity": 43,
              "position": 30,
              "duration": 0.49166666666666664
            },
            {
              "pitch": 64,
              "velocity": 42,
              "position": 30,
              "duration": 0.49166666666666664
            },
            {
              "pitch": 67,
              "velocity": 48,
              "position": 29.510416666666668,
              "duration": 0.9916666666666667
            },
            {
              "pitch": 71,
              "velocity": 48,
              "position": 29.510416666666668,
              "duration": 0.9916666666666667
            },
            {
              "pitch": 48,
              "velocity": 40,
              "position": 30.489583333333332,
              "duration": 0.49166666666666664
            },
            {
              "pitch": 55,
              "velocity": 40,
              "position": 30.489583333333332,
              "duration": 0.49166666666666664
            },
            {
              "pitch": 59,
              "velocity": 40,
              "position": 30.489583333333332,
              "duration": 0.49166666666666664
            },
            {
              "pitch": 60,
              "velocity": 43,
              "position": 30.5,
              "duration": 0.49166666666666664
            },
            {
              "pitch": 64,
              "velocity": 47,
              "position": 30.5,
              "duration": 0.49166666666666664
            },
            {
              "pitch": 48,
              "velocity": 40,
              "position": 30.989583333333332,
              "duration": 0.49166666666666664
            },
            {
              "pitch": 55,
              "velocity": 40,
              "position": 30.989583333333332,
              "duration": 0.49166666666666664
            },
            {
              "pitch": 59,
              "velocity": 40,
              "position": 30.989583333333332,
              "duration": 0.49166666666666664
            },
            {
              "pitch": 60,
              "velocity": 38,
              "position": 31,
              "duration": 0.49166666666666664
            },
            {
              "pitch": 64,
              "velocity": 42,
              "position": 31,
              "duration": 0.49166666666666664
            },
            {
              "pitch": 67,
              "velocity": 44,
              "position": 30.510416666666668,
              "duration": 0.9916666666666667
            },
            {
              "pitch": 71,
              "velocity": 44,
              "position": 30.510416666666668,
              "duration": 0.9916666666666667
            },
            {
              "pitch": 48,
              "velocity": 48,
              "position": 31.489583333333332,
              "duration": 0.5020833333333333
            },
            {
              "pitch": 55,
              "velocity": 48,
              "position": 31.489583333333332,
              "duration": 0.5020833333333333
            },
            {
              "pitch": 59,
              "velocity": 48,
              "position": 31.489583333333332,
              "duration": 0.5020833333333333
            },
            {
              "pitch": 60,
              "velocity": 48,
              "position": 31.5,
              "duration": 0.49166666666666664
            },
            {
              "pitch": 64,
              "velocity": 47,
              "position": 31.5,
              "duration": 0.49166666666666664
            },
            {
              "pitch": 67,
              "velocity": 48,
              "position": 31.510416666666668,
              "duration": 0.48125
            },
            {
              "pitch": 71,
              "velocity": 48,
              "position": 31.510416666666668,
              "duration": 0.48125
            }
          ]
        },
        "14": {
          "ctab": {
            "srcChannel": 14,
            "name": "Gt_Ba",
            "accType": "PHRASE1",
            "editable": false,
            "mutedNotes": [],
            "mutedChords": [],
            "autoStart": false,
            "sourceChordNote": 0,
            "sourceChordType": "Maj7",
            "ctb2Low": null,
            "ctb2Main": {
              "ntr": "ROOT_TRANSPOSITION",
              "ntt": "MELODY",
              "bassOn": true,
              "chordRootUpperLimit": 8,
              "noteLowLimit": 40,
              "noteHighLimit": 52,
              "rtr": "PITCH_SHIFT_TO_ROOT"
            },
            "ctb2High": null
          },
          "notes": [
            {
              "pitch": 48,
              "velocity": 80,
              "position": 0,
              "duration": 1.4791666666666667
            },
            {
              "pitch": 43,
              "velocity": 72,
              "position": 1.5,
              "duration": 0.48541666666666666
            },
            {
              "pitch": 48,
              "velocity": 80,
              "position": 2,
              "duration": 0.96875
            },
            {
              "pitch": 43,
              "velocity": 75,
              "position": 3,
              "duration": 0.9791666666666666
            },
            {
              "pitch": 48,
              "velocity": 80,
              "position": 4,
              "duration": 1.4791666666666667
            },
            {
              "pitch": 43,
              "velocity": 72,
              "position": 5.5,
              "duration": 0.4895833333333333
            },
            {
              "pitch": 48,
              "velocity": 80,
              "position": 6,
              "duration": 0.96875
            },
            {
              "pitch": 43,
              "velocity": 75,
              "position": 7,
              "duration": 0.9791666666666666
            },
            {
              "pitch": 48,
              "velocity": 80,
              "position": 8,
              "duration": 0.9791666666666666
            },
            {
              "pitch": 48,
              "velocity": 70,
              "position": 9,
              "duration": 0.4895833333333333
            },
            {
              "pitch": 43,
              "velocity": 72,
              "position": 9.5,
              "duration": 0.4895833333333333
            },
            {
              "pitch": 48,
              "velocity": 80,
              "position": 10,
              "duration": 0.96875
            },
            {
              "pitch": 43,
              "velocity": 75,
              "position": 11,
              "duration": 0.9791666666666666
            },
            {
              "pitch": 48,
              "velocity": 80,
              "position": 12,
              "duration": 1.475
            },
            {
              "pitch": 43,
              "velocity": 72,
              "position": 13.5,
              "duration": 0.4895833333333333
            },
            {
              "pitch": 48,
              "velocity": 80,
              "position": 14,
              "duration": 0.96875
            },
            {
              "pitch": 43,
              "velocity": 75,
              "position": 15,
              "duration": 0.975
            },
            {
              "pitch": 48,
              "velocity": 80,
              "position": 16,
              "duration": 1.475
            },
            {
              "pitch": 43,
              "velocity": 72,
              "position": 17.5,
              "duration": 0.4895833333333333
            },
            {
              "pitch": 48,
              "velocity": 80,
              "position": 18,
              "duration": 0.96875
            },
            {
              "pitch": 43,
              "velocity": 75,
              "position": 19,
              "duration": 0.975
            },
            {
              "pitch": 48,
              "velocity": 80,
              "position": 20,
              "duration": 1.475
            },
            {
              "pitch": 43,
              "velocity": 72,
              "position": 21.5,
              "duration": 0.4895833333333333
            },
            {
              "pitch": 48,
              "velocity": 80,
              "position": 22,
              "duration": 0.96875
            },
            {
              "pitch": 43,
              "velocity": 75,
              "position": 23,
              "duration": 0.9791666666666666
            },
            {
              "pitch": 48,
              "velocity": 80,
              "position": 24,
              "duration": 1.4791666666666667
            },
            {
              "pitch": 43,
              "velocity": 72,
              "position": 25.5,
              "duration": 0.4895833333333333
            },
            {
              "pitch": 48,
              "velocity": 80,
              "position": 26,
              "duration": 0.96875
            },
            {
              "pitch": 43,
              "velocity": 75,
              "position": 27,
              "duration": 0.9791666666666666
            },
            {
              "pitch": 48,
              "velocity": 80,
              "position": 28,
              "duration": 1.4791666666666667
            },
            {
              "pitch": 43,
              "velocity": 72,
              "position": 29.5,
              "duration": 0.4895833333333333
            },
            {
              "pitch": 48,
              "velocity": 80,
              "position": 30,
              "duration": 0.96875
            },
            {
              "pitch": 43,
              "velocity": 75,
              "position": 31,
              "duration": 0.9791666666666666
            }
          ]
        },
        "15": {
          "ctab": {
            "srcChannel": 15,
            "name": "Gt_Arp",
            "accType": "PHRASE2",
            "editable": false,
            "mutedNotes": [],
            "mutedChords": [],
            "autoStart": false,
            "sourceChordNote": 0,
            "sourceChordType": "Maj7",
            "ctb2Low": null,
            "ctb2Main": {
              "ntr": "ROOT_TRANSPOSITION",
              "ntt": "CHORD",
              "bassOn": false,
              "chordRootUpperLimit": 8,
              "noteLowLimit": 0,
              "noteHighLimit": 127,
              "rtr": "PITCH_SHIFT"
            },
            "ctb2High": null
          },
          "notes": [
            {
              "pitch": 55,
              "velocity": 44,
              "position": 0.5,
              "duration": 0.7354166666666667
            },
            {
              "pitch": 59,
              "velocity": 44,
              "position": 0.5,
              "duration": 0.7354166666666667
            },
            {
              "pitch": 52,
              "velocity": 63,
              "position": 0.25,
              "duration": 1.4854166666666666
            },
            {
              "pitch": 52,
              "velocity": 67,
              "position": 1.75,
              "duration": 0.48541666666666666
            },
            {
              "pitch": 55,
              "velocity": 70,
              "position": 1.25,
              "duration": 1.2354166666666666
            },
            {
              "pitch": 59,
              "velocity": 70,
              "position": 1.25,
              "duration": 1.2354166666666666
            },
            {
              "pitch": 60,
              "velocity": 81,
              "position": 0.75,
              "duration": 1.9854166666666666
            },
            {
              "pitch": 55,
              "velocity": 69,
              "position": 2.5,
              "duration": 0.9854166666666667
            },
            {
              "pitch": 59,
              "velocity": 69,
              "position": 2.5,
              "duration": 0.9854166666666667
            },
            {
              "pitch": 60,
              "velocity": 76,
              "position": 2.75,
              "duration": 0.9854166666666667
            },
            {
              "pitch": 52,
              "velocity": 55,
              "position": 2.25,
              "duration": 1.7354166666666666
            },
            {
              "pitch": 55,
              "velocity": 78,
              "position": 3.5,
              "duration": 0.48541666666666666
            },
            {
              "pitch": 59,
              "velocity": 78,
              "position": 3.5,
              "duration": 0.48541666666666666
            },
            {
              "pitch": 60,
              "velocity": 64,
              "position": 3.75,
              "duration": 0.23541666666666666
            },
            {
              "pitch": 64,
              "velocity": 58,
              "position": 3.25,
              "duration": 0.7354166666666667
            },
            {
              "pitch": 55,
              "velocity": 51,
              "position": 4.5,
              "duration": 0.7395833333333334
            },
            {
              "pitch": 59,
              "velocity": 51,
              "position": 4.5,
              "duration": 0.7395833333333334
            },
            {
              "pitch": 52,
              "velocity": 64,
              "position": 4.25,
              "duration": 1.4895833333333333
            },
            {
              "pitch": 52,
              "velocity": 63,
              "position": 5.75,
              "duration": 0.4895833333333333
            },
            {
              "pitch": 55,
              "velocity": 72,
              "position": 5.25,
              "duration": 1.2395833333333333
            },
            {
              "pitch": 59,
              "velocity": 72,
              "position": 5.25,
              "duration": 1.2395833333333333
            },
            {
              "pitch": 60,
              "velocity": 78,
              "position": 4.75,
              "duration": 1.9895833333333333
            },
            {
              "pitch": 55,
              "velocity": 65,
              "position": 6.5,
              "duration": 0.9895833333333334
            },
            {
              "pitch": 59,
              "velocity": 65,
              "position": 6.5,
              "duration": 0.9895833333333334
            },
            {
              "pitch": 60,
              "velocity": 70,
              "position": 6.75,
              "duration": 0.9895833333333334
            },
            {
              "pitch": 52,
              "velocity": 49,
              "position": 6.25,
              "duration": 1.7395833333333333
            },
            {
              "pitch": 55,
              "velocity": 73,
              "position": 7.5,
              "duration": 0.4895833333333333
            },
            {
              "pitch": 59,
              "velocity": 73,
              "position": 7.5,
              "duration": 0.4895833333333333
            },
            {
              "pitch": 60,
              "velocity": 64,
              "position": 7.75,
              "duration": 0.23958333333333334
            },
            {
              "pitch": 64,
              "velocity": 62,
              "position": 7.25,
              "duration": 0.7395833333333334
            },
            {
              "pitch": 55,
              "velocity": 51,
              "position": 8.5,
              "duration": 0.7395833333333334
            },
            {
              "pitch": 59,
              "velocity": 51,
              "position": 8.5,
              "duration": 0.7395833333333334
            },
            {
              "pitch": 52,
              "velocity": 67,
              "position": 8.25,
              "duration": 1.4895833333333333
            },
            {
              "pitch": 52,
              "velocity": 67,
              "position": 9.75,
              "duration": 0.4895833333333333
            },
            {
              "pitch": 55,
              "velocity": 63,
              "position": 9.25,
              "duration": 1.2395833333333333
            },
            {
              "pitch": 59,
              "velocity": 63,
              "position": 9.25,
              "duration": 1.2395833333333333
            },
            {
              "pitch": 60,
              "velocity": 75,
              "position": 8.75,
              "duration": 1.9895833333333333
            },
            {
              "pitch": 55,
              "velocity": 64,
              "position": 10.5,
              "duration": 0.9895833333333334
            },
            {
              "pitch": 59,
              "velocity": 64,
              "position": 10.5,
              "duration": 0.9895833333333334
            },
            {
              "pitch": 60,
              "velocity": 75,
              "position": 10.75,
              "duration": 0.9895833333333334
            },
            {
              "pitch": 52,
              "velocity": 48,
              "position": 10.25,
              "duration": 1.7395833333333333
            },
            {
              "pitch": 55,
              "velocity": 74,
              "position": 11.5,
              "duration": 0.4895833333333333
            },
            {
              "pitch": 59,
              "velocity": 74,
              "position": 11.5,
              "duration": 0.4895833333333333
            },
            {
              "pitch": 60,
              "velocity": 68,
              "position": 11.75,
              "duration": 0.23958333333333334
            },
            {
              "pitch": 64,
              "velocity": 59,
              "position": 11.25,
              "duration": 0.7395833333333334
            },
            {
              "pitch": 55,
              "velocity": 45,
              "position": 12.5,
              "duration": 0.7395833333333334
            },
            {
              "pitch": 59,
              "velocity": 45,
              "position": 12.5,
              "duration": 0.7395833333333334
            },
            {
              "pitch": 52,
              "velocity": 72,
              "position": 12.25,
              "duration": 1.4895833333333333
            },
            {
              "pitch": 52,
              "velocity": 70,
              "position": 13.75,
              "duration": 0.4895833333333333
            },
            {
              "pitch": 55,
              "velocity": 70,
              "position": 13.25,
              "duration": 1.2395833333333333
            },
            {
              "pitch": 59,
              "velocity": 70,
              "position": 13.25,
              "duration": 1.2395833333333333
            },
            {
              "pitch": 60,
              "velocity": 78,
              "position": 12.75,
              "duration": 1.9895833333333333
            },
            {
              "pitch": 55,
              "velocity": 60,
              "position": 14.5,
              "duration": 0.9895833333333334
            },
            {
              "pitch": 59,
              "velocity": 60,
              "position": 14.5,
              "duration": 0.9895833333333334
            },
            {
              "pitch": 60,
              "velocity": 74,
              "position": 14.75,
              "duration": 0.9895833333333334
            },
            {
              "pitch": 52,
              "velocity": 55,
              "position": 14.25,
              "duration": 1.7395833333333333
            },
            {
              "pitch": 55,
              "velocity": 74,
              "position": 15.5,
              "duration": 0.4895833333333333
            },
            {
              "pitch": 59,
              "velocity": 74,
              "position": 15.5,
              "duration": 0.4895833333333333
            },
            {
              "pitch": 60,
              "velocity": 70,
              "position": 15.75,
              "duration": 0.23958333333333334
            },
            {
              "pitch": 64,
              "velocity": 61,
              "position": 15.25,
              "duration": 0.7395833333333334
            },
            {
              "pitch": 55,
              "velocity": 44,
              "position": 16.5,
              "duration": 0.7395833333333334
            },
            {
              "pitch": 59,
              "velocity": 44,
              "position": 16.5,
              "duration": 0.7395833333333334
            },
            {
              "pitch": 52,
              "velocity": 69,
              "position": 16.25,
              "duration": 1.4895833333333333
            },
            {
              "pitch": 52,
              "velocity": 67,
              "position": 17.75,
              "duration": 0.4895833333333333
            },
            {
              "pitch": 55,
              "velocity": 70,
              "position": 17.25,
              "duration": 1.2395833333333333
            },
            {
              "pitch": 59,
              "velocity": 70,
              "position": 17.25,
              "duration": 1.2395833333333333
            },
            {
              "pitch": 60,
              "velocity": 82,
              "position": 16.75,
              "duration": 1.9895833333333333
            },
            {
              "pitch": 55,
              "velocity": 60,
              "position": 18.5,
              "duration": 0.9895833333333334
            },
            {
              "pitch": 59,
              "velocity": 60,
              "position": 18.5,
              "duration": 0.9895833333333334
            },
            {
              "pitch": 60,
              "velocity": 76,
              "position": 18.75,
              "duration": 0.9895833333333334
            },
            {
              "pitch": 52,
              "velocity": 51,
              "position": 18.25,
              "duration": 1.7395833333333333
            },
            {
              "pitch": 55,
              "velocity": 76,
              "position": 19.5,
              "duration": 0.4895833333333333
            },
            {
              "pitch": 59,
              "velocity": 76,
              "position": 19.5,
              "duration": 0.4895833333333333
            },
            {
              "pitch": 60,
              "velocity": 63,
              "position": 19.75,
              "duration": 0.23958333333333334
            },
            {
              "pitch": 64,
              "velocity": 54,
              "position": 19.25,
              "duration": 0.7395833333333334
            },
            {
              "pitch": 55,
              "velocity": 42,
              "position": 20.5,
              "duration": 0.7395833333333334
            },
            {
              "pitch": 59,
              "velocity": 42,
              "position": 20.5,
              "duration": 0.7395833333333334
            },
            {
              "pitch": 52,
              "velocity": 69,
              "position": 20.25,
              "duration": 1.4895833333333333
            },
            {
              "pitch": 52,
              "velocity": 65,
              "position": 21.75,
              "duration": 0.4895833333333333
            },
            {
              "pitch": 55,
              "velocity": 62,
              "position": 21.25,
              "duration": 1.2395833333333333
            },
            {
              "pitch": 59,
              "velocity": 62,
              "position": 21.25,
              "duration": 1.2395833333333333
            },
            {
              "pitch": 60,
              "velocity": 77,
              "position": 20.75,
              "duration": 1.9895833333333333
            },
            {
              "pitch": 55,
              "velocity": 62,
              "position": 22.5,
              "duration": 0.9895833333333334
            },
            {
              "pitch": 59,
              "velocity": 62,
              "position": 22.5,
              "duration": 0.9895833333333334
            },
            {
              "pitch": 60,
              "velocity": 69,
              "position": 22.75,
              "duration": 0.9895833333333334
            },
            {
              "pitch": 52,
              "velocity": 53,
              "position": 22.25,
              "duration": 1.7395833333333333
            },
            {
              "pitch": 55,
              "velocity": 69,
              "position": 23.5,
              "duration": 0.4895833333333333
            },
            {
              "pitch": 59,
              "velocity": 69,
              "position": 23.5,
              "duration": 0.4895833333333333
            },
            {
              "pitch": 60,
              "velocity": 68,
              "position": 23.75,
              "duration": 0.23958333333333334
            },
            {
              "pitch": 64,
              "velocity": 59,
              "position": 23.25,
              "duration": 0.7395833333333334
            },
            {
              "pitch": 55,
              "velocity": 47,
              "position": 24.5,
              "duration": 0.7395833333333334
            },
            {
              "pitch": 59,
              "velocity": 47,
              "position": 24.5,
              "duration": 0.7395833333333334
            },
            {
              "pitch": 52,
              "velocity": 68,
              "position": 24.25,
              "duration": 1.4895833333333333
            },
            {
              "pitch": 52,
              "velocity": 63,
              "position": 25.75,
              "duration": 0.4895833333333333
            },
            {
              "pitch": 55,
              "velocity": 69,
              "position": 25.25,
              "duration": 1.2395833333333333
            },
            {
              "pitch": 59,
              "velocity": 69,
              "position": 25.25,
              "duration": 1.2395833333333333
            },
            {
              "pitch": 60,
              "velocity": 78,
              "position": 24.75,
              "duration": 1.9895833333333333
            },
            {
              "pitch": 55,
              "velocity": 67,
              "position": 26.5,
              "duration": 0.9895833333333334
            },
            {
              "pitch": 59,
              "velocity": 67,
              "position": 26.5,
              "duration": 0.9895833333333334
            },
            {
              "pitch": 60,
              "velocity": 77,
              "position": 26.75,
              "duration": 0.9895833333333334
            },
            {
              "pitch": 52,
              "velocity": 49,
              "position": 26.25,
              "duration": 1.7395833333333333
            },
            {
              "pitch": 55,
              "velocity": 74,
              "position": 27.5,
              "duration": 0.4895833333333333
            },
            {
              "pitch": 59,
              "velocity": 74,
              "position": 27.5,
              "duration": 0.4895833333333333
            },
            {
              "pitch": 60,
              "velocity": 70,
              "position": 27.75,
              "duration": 0.23958333333333334
            },
            {
              "pitch": 64,
              "velocity": 59,
              "position": 27.25,
              "duration": 0.7395833333333334
            },
            {
              "pitch": 55,
              "velocity": 54,
              "position": 28.5,
              "duration": 0.4895833333333333
            },
            {
              "pitch": 59,
              "velocity": 54,
              "position": 28.5,
              "duration": 0.4895833333333333
            },
            {
              "pitch": 52,
              "velocity": 64,
              "position": 28.25,
              "duration": 0.9895833333333334
            },
            {
              "pitch": 52,
              "velocity": 70,
              "position": 29.25,
              "duration": 0.9895833333333334
            },
            {
              "pitch": 55,
              "velocity": 65,
              "position": 29,
              "duration": 1.4895833333333333
            },
            {
              "pitch": 59,
              "velocity": 65,
              "position": 29,
              "duration": 1.4895833333333333
            },
            {
              "pitch": 60,
              "velocity": 76,
              "position": 28.75,
              "duration": 1.9895833333333333
            },
            {
              "pitch": 64,
              "velocity": 62,
              "position": 29.75,
              "duration": 1.4895833333333333
            },
            {
              "pitch": 55,
              "velocity": 72,
              "position": 30.5,
              "duration": 0.9895833333333334
            },
            {
              "pitch": 59,
              "velocity": 72,
              "position": 30.5,
              "duration": 0.9895833333333334
            },
            {
              "pitch": 60,
              "velocity": 81,
              "position": 30.75,
              "duration": 0.9895833333333334
            },
            {
              "pitch": 52,
              "velocity": 47,
              "position": 30.25,
              "duration": 1.7395833333333333
            },
            {
              "pitch": 55,
              "velocity": 75,
              "position": 31.5,
              "duration": 0.4895833333333333
            },
            {
              "pitch": 59,
              "velocity": 75,
              "position": 31.5,
              "duration": 0.4895833333333333
            },
            {
              "pitch": 60,
              "velocity": 69,
              "position": 31.75,
              "duration": 0.23958333333333334
            },
            {
              "pitch": 64,
              "velocity": 59,
              "position": 31.25,
              "duration": 0.7395833333333334
            }
          ]
        }
      }
    },
    "Main_B": {
      "type": "Main_B",
      "sizeInBeats": 32,
      "channels": {
        "8": {
          "ctab": {
            "srcChannel": 8,
            "name": "AddDrum",
            "accType": "SUBRHYTHM",
            "editable": false,
            "mutedNotes": [],
            "mutedChords": [],
            "autoStart": true,
            "sourceChordNote": 0,
            "sourceChordType": "Maj7",
            "ctb2Low": null,
            "ctb2Main": {
              "ntr": "ROOT_FIXED",
              "ntt": "BYPASS",
              "bassOn": false,
              "chordRootUpperLimit": 6,
              "noteLowLimit": 0,
              "noteHighLimit": 127,
              "rtr": "PITCH_SHIFT"
            },
            "ctb2High": null
          },
          "notes": [
            {
              "pitch": 70,
              "velocity": 60,
              "position": 0,
              "duration": 0.07291666666666667
            },
            {
              "pitch": 63,
              "velocity": 92,
              "position": 0,
              "duration": 0.08333333333333333
            },
            {
              "pitch": 69,
              "velocity": 60,
              "position": 0.25,
              "duration": 0.07291666666666667
            },
            {
              "pitch": 63,
              "velocity": 53,
              "position": 0.25,
              "duration": 0.08333333333333333
            },
            {
              "pitch": 54,
              "velocity": 71,
              "position": 0.5,
              "duration": 0.052083333333333336
            },
            {
              "pitch": 70,
              "velocity": 98,
              "position": 0.5,
              "duration": 0.07291666666666667
            },
            {
              "pitch": 64,
              "velocity": 45,
              "position": 0.5,
              "duration": 0.08333333333333333
            },
            {
              "pitch": 54,
              "velocity": 59,
              "position": 0.75,
              "duration": 0.052083333333333336
            },
            {
              "pitch": 70,
              "velocity": 52,
              "position": 0.75,
              "duration": 0.07291666666666667
            },
            {
              "pitch": 64,
              "velocity": 70,
              "position": 0.75,
              "duration": 0.08333333333333333
            },
            {
              "pitch": 70,
              "velocity": 60,
              "position": 1,
              "duration": 0.07291666666666667
            },
            {
              "pitch": 54,
              "velocity": 71,
              "position": 1.5,
              "duration": 0.052083333333333336
            },
            {
              "pitch": 70,
              "velocity": 101,
              "position": 1.5,
              "duration": 0.07291666666666667
            },
            {
              "pitch": 62,
              "velocity": 115,
              "position": 1.5,
              "duration": 0.08333333333333333
            },
            {
              "pitch": 70,
              "velocity": 48,
              "position": 1.75,
              "duration": 0.07291666666666667
            },
            {
              "pitch": 62,
              "velocity": 64,
              "position": 1.75,
              "duration": 0.08333333333333333
            },
            {
              "pitch": 70,
              "velocity": 60,
              "position": 2,
              "duration": 0.07291666666666667
            },
            {
              "pitch": 63,
              "velocity": 91,
              "position": 2,
              "duration": 0.08333333333333333
            },
            {
              "pitch": 69,
              "velocity": 60,
              "position": 2.25,
              "duration": 0.07291666666666667
            },
            {
              "pitch": 63,
              "velocity": 52,
              "position": 2.25,
              "duration": 0.07916666666666666
            },
            {
              "pitch": 54,
              "velocity": 71,
              "position": 2.5,
              "duration": 0.052083333333333336
            },
            {
              "pitch": 70,
              "velocity": 95,
              "position": 2.5,
              "duration": 0.07291666666666667
            },
            {
              "pitch": 64,
              "velocity": 43,
              "position": 2.5,
              "duration": 0.07916666666666666
            },
            {
              "pitch": 54,
              "velocity": 63,
              "position": 2.75,
              "duration": 0.052083333333333336
            },
            {
              "pitch": 70,
              "velocity": 54,
              "position": 2.75,
              "duration": 0.07291666666666667
            },
            {
              "pitch": 64,
              "velocity": 68,
              "position": 2.75,
              "duration": 0.07916666666666666
            },
            {
              "pitch": 70,
              "velocity": 60,
              "position": 3,
              "duration": 0.07291666666666667
            },
            {
              "pitch": 62,
              "velocity": 42,
              "position": 3.25,
              "duration": 0.07916666666666666
            },
            {
              "pitch": 54,
              "velocity": 71,
              "position": 3.5,
              "duration": 0.052083333333333336
            },
            {
              "pitch": 70,
              "velocity": 107,
              "position": 3.5,
              "duration": 0.07291666666666667
            },
            {
              "pitch": 62,
              "velocity": 114,
              "position": 3.5,
              "duration": 0.07916666666666666
            },
            {
              "pitch": 70,
              "velocity": 53,
              "position": 3.75,
              "duration": 0.07291666666666667
            },
            {
              "pitch": 62,
              "velocity": 63,
              "position": 3.75,
              "duration": 0.07916666666666666
            },
            {
              "pitch": 70,
              "velocity": 60,
              "position": 4,
              "duration": 0.07291666666666667
            },
            {
              "pitch": 63,
              "velocity": 85,
              "position": 4,
              "duration": 0.07916666666666666
            },
            {
              "pitch": 69,
              "velocity": 60,
              "position": 4.25,
              "duration": 0.07291666666666667
            },
            {
              "pitch": 63,
              "velocity": 47,
              "position": 4.25,
              "duration": 0.07916666666666666
            },
            {
              "pitch": 54,
              "velocity": 71,
              "position": 4.5,
              "duration": 0.052083333333333336
            },
            {
              "pitch": 70,
              "velocity": 107,
              "position": 4.5,
              "duration": 0.07291666666666667
            },
            {
              "pitch": 64,
              "velocity": 40,
              "position": 4.5,
              "duration": 0.07916666666666666
            },
            {
              "pitch": 54,
              "velocity": 63,
              "position": 4.75,
              "duration": 0.052083333333333336
            },
            {
              "pitch": 70,
              "velocity": 50,
              "position": 4.75,
              "duration": 0.07291666666666667
            },
            {
              "pitch": 64,
              "velocity": 71,
              "position": 4.75,
              "duration": 0.07916666666666666
            },
            {
              "pitch": 70,
              "velocity": 60,
              "position": 5,
              "duration": 0.07291666666666667
            },
            {
              "pitch": 54,
              "velocity": 71,
              "position": 5.5,
              "duration": 0.052083333333333336
            },
            {
              "pitch": 70,
              "velocity": 95,
              "position": 5.5,
              "duration": 0.07291666666666667
            },
            {
              "pitch": 62,
              "velocity": 108,
              "position": 5.5,
              "duration": 0.07916666666666666
            },
            {
              "pitch": 70,
              "velocity": 41,
              "position": 5.75,
              "duration": 0.07291666666666667
            },
            {
              "pitch": 62,
              "velocity": 58,
              "position": 5.75,
              "duration": 0.07916666666666666
            },
            {
              "pitch": 70,
              "velocity": 60,
              "position": 6,
              "duration": 0.07291666666666667
            },
            {
              "pitch": 63,
              "velocity": 94,
              "position": 6,
              "duration": 0.07916666666666666
            },
            {
              "pitch": 69,
              "velocity": 60,
              "position": 6.25,
              "duration": 0.07291666666666667
            },
            {
              "pitch": 63,
              "velocity": 56,
              "position": 6.25,
              "duration": 0.07916666666666666
            },
            {
              "pitch": 54,
              "velocity": 71,
              "position": 6.5,
              "duration": 0.052083333333333336
            },
            {
              "pitch": 70,
              "velocity": 98,
              "position": 6.5,
              "duration": 0.07291666666666667
            },
            {
              "pitch": 64,
              "velocity": 42,
              "position": 6.5,
              "duration": 0.07916666666666666
            },
            {
              "pitch": 54,
              "velocity": 58,
              "position": 6.75,
              "duration": 0.052083333333333336
            },
            {
              "pitch": 70,
              "velocity": 48,
              "position": 6.75,
              "duration": 0.07291666666666667
            },
            {
              "pitch": 64,
              "velocity": 74,
              "position": 6.75,
              "duration": 0.07916666666666666
            },
            {
              "pitch": 70,
              "velocity": 60,
              "position": 7,
              "duration": 0.07291666666666667
            },
            {
              "pitch": 62,
              "velocity": 46,
              "position": 7.25,
              "duration": 0.07916666666666666
            },
            {
              "pitch": 54,
              "velocity": 71,
              "position": 7.5,
              "duration": 0.052083333333333336
            },
            {
              "pitch": 70,
              "velocity": 100,
              "position": 7.5,
              "duration": 0.07291666666666667
            },
            {
              "pitch": 62,
              "velocity": 117,
              "position": 7.5,
              "duration": 0.07916666666666666
            },
            {
              "pitch": 70,
              "velocity": 50,
              "position": 7.75,
              "duration": 0.07291666666666667
            },
            {
              "pitch": 62,
              "velocity": 67,
              "position": 7.75,
              "duration": 0.07916666666666666
            },
            {
              "pitch": 70,
              "velocity": 60,
              "position": 8,
              "duration": 0.07291666666666667
            },
            {
              "pitch": 63,
              "velocity": 91,
              "position": 8,
              "duration": 0.07916666666666666
            },
            {
              "pitch": 69,
              "velocity": 60,
              "position": 8.25,
              "duration": 0.07291666666666667
            },
            {
              "pitch": 63,
              "velocity": 52,
              "position": 8.25,
              "duration": 0.07916666666666666
            },
            {
              "pitch": 54,
              "velocity": 71,
              "position": 8.5,
              "duration": 0.052083333333333336
            },
            {
              "pitch": 70,
              "velocity": 103,
              "position": 8.5,
              "duration": 0.07291666666666667
            },
            {
              "pitch": 64,
              "velocity": 45,
              "position": 8.5,
              "duration": 0.07916666666666666
            },
            {
              "pitch": 54,
              "velocity": 59,
              "position": 8.75,
              "duration": 0.052083333333333336
            },
            {
              "pitch": 70,
              "velocity": 55,
              "position": 8.75,
              "duration": 0.07291666666666667
            },
            {
              "pitch": 64,
              "velocity": 72,
              "position": 8.75,
              "duration": 0.07916666666666666
            },
            {
              "pitch": 70,
              "velocity": 60,
              "position": 9,
              "duration": 0.07291666666666667
            },
            {
              "pitch": 54,
              "velocity": 71,
              "position": 9.5,
              "duration": 0.052083333333333336
            },
            {
              "pitch": 70,
              "velocity": 103,
              "position": 9.5,
              "duration": 0.07291666666666667
            },
            {
              "pitch": 62,
              "velocity": 114,
              "position": 9.5,
              "duration": 0.07916666666666666
            },
            {
              "pitch": 70,
              "velocity": 42,
              "position": 9.75,
              "duration": 0.07291666666666667
            },
            {
              "pitch": 62,
              "velocity": 63,
              "position": 9.75,
              "duration": 0.07916666666666666
            },
            {
              "pitch": 70,
              "velocity": 60,
              "position": 10,
              "duration": 0.07291666666666667
            },
            {
              "pitch": 63,
              "velocity": 85,
              "position": 10,
              "duration": 0.07916666666666666
            },
            {
              "pitch": 69,
              "velocity": 60,
              "position": 10.25,
              "duration": 0.07291666666666667
            },
            {
              "pitch": 63,
              "velocity": 47,
              "position": 10.25,
              "duration": 0.07916666666666666
            },
            {
              "pitch": 54,
              "velocity": 71,
              "position": 10.5,
              "duration": 0.052083333333333336
            },
            {
              "pitch": 70,
              "velocity": 101,
              "position": 10.5,
              "duration": 0.07291666666666667
            },
            {
              "pitch": 64,
              "velocity": 42,
              "position": 10.5,
              "duration": 0.07916666666666666
            },
            {
              "pitch": 54,
              "velocity": 64,
              "position": 10.75,
              "duration": 0.052083333333333336
            },
            {
              "pitch": 70,
              "velocity": 48,
              "position": 10.75,
              "duration": 0.07291666666666667
            },
            {
              "pitch": 64,
              "velocity": 72,
              "position": 10.75,
              "duration": 0.07916666666666666
            },
            {
              "pitch": 70,
              "velocity": 60,
              "position": 11,
              "duration": 0.07291666666666667
            },
            {
              "pitch": 62,
              "velocity": 37,
              "position": 11.25,
              "duration": 0.07916666666666666
            },
            {
              "pitch": 54,
              "velocity": 71,
              "position": 11.5,
              "duration": 0.052083333333333336
            },
            {
              "pitch": 70,
              "velocity": 95,
              "position": 11.5,
              "duration": 0.07291666666666667
            },
            {
              "pitch": 62,
              "velocity": 108,
              "position": 11.5,
              "duration": 0.07916666666666666
            },
            {
              "pitch": 70,
              "velocity": 54,
              "position": 11.75,
              "duration": 0.07291666666666667
            },
            {
              "pitch": 62,
              "velocity": 58,
              "position": 11.75,
              "duration": 0.07916666666666666
            },
            {
              "pitch": 70,
              "velocity": 60,
              "position": 12,
              "duration": 0.07291666666666667
            },
            {
              "pitch": 63,
              "velocity": 94,
              "position": 12,
              "duration": 0.07916666666666666
            },
            {
              "pitch": 69,
              "velocity": 60,
              "position": 12.25,
              "duration": 0.07291666666666667
            },
            {
              "pitch": 63,
              "velocity": 56,
              "position": 12.25,
              "duration": 0.07916666666666666
            },
            {
              "pitch": 54,
              "velocity": 71,
              "position": 12.5,
              "duration": 0.052083333333333336
            },
            {
              "pitch": 70,
              "velocity": 100,
              "position": 12.5,
              "duration": 0.07291666666666667
            },
            {
              "pitch": 64,
              "velocity": 46,
              "position": 12.5,
              "duration": 0.07916666666666666
            },
            {
              "pitch": 54,
              "velocity": 63,
              "position": 12.75,
              "duration": 0.052083333333333336
            },
            {
              "pitch": 70,
              "velocity": 51,
              "position": 12.75,
              "duration": 0.07291666666666667
            },
            {
              "pitch": 64,
              "velocity": 69,
              "position": 12.75,
              "duration": 0.07916666666666666
            },
            {
              "pitch": 70,
              "velocity": 60,
              "position": 13,
              "duration": 0.07291666666666667
            },
            {
              "pitch": 54,
              "velocity": 71,
              "position": 13.5,
              "duration": 0.052083333333333336
            },
            {
              "pitch": 70,
              "velocity": 99,
              "position": 13.5,
              "duration": 0.07291666666666667
            },
            {
              "pitch": 62,
              "velocity": 117,
              "position": 13.5,
              "duration": 0.07916666666666666
            },
            {
              "pitch": 70,
              "velocity": 49,
              "position": 13.75,
              "duration": 0.07291666666666667
            },
            {
              "pitch": 62,
              "velocity": 67,
              "position": 13.75,
              "duration": 0.07916666666666666
            },
            {
              "pitch": 70,
              "velocity": 60,
              "position": 14,
              "duration": 0.07291666666666667
            },
            {
              "pitch": 63,
              "velocity": 84,
              "position": 14,
              "duration": 0.07916666666666666
            },
            {
              "pitch": 69,
              "velocity": 60,
              "position": 14.25,
              "duration": 0.07291666666666667
            },
            {
              "pitch": 63,
              "velocity": 46,
              "position": 14.25,
              "duration": 0.07916666666666666
            },
            {
              "pitch": 54,
              "velocity": 71,
              "position": 14.5,
              "duration": 0.052083333333333336
            },
            {
              "pitch": 70,
              "velocity": 106,
              "position": 14.5,
              "duration": 0.07291666666666667
            },
            {
              "pitch": 64,
              "velocity": 45,
              "position": 14.5,
              "duration": 0.07916666666666666
            },
            {
              "pitch": 54,
              "velocity": 63,
              "position": 14.75,
              "duration": 0.052083333333333336
            },
            {
              "pitch": 70,
              "velocity": 41,
              "position": 14.75,
              "duration": 0.07291666666666667
            },
            {
              "pitch": 64,
              "velocity": 74,
              "position": 14.75,
              "duration": 0.07916666666666666
            },
            {
              "pitch": 70,
              "velocity": 60,
              "position": 15,
              "duration": 0.07291666666666667
            },
            {
              "pitch": 62,
              "velocity": 36,
              "position": 15.25,
              "duration": 0.07916666666666666
            },
            {
              "pitch": 54,
              "velocity": 71,
              "position": 15.5,
              "duration": 0.052083333333333336
            },
            {
              "pitch": 70,
              "velocity": 106,
              "position": 15.5,
              "duration": 0.07291666666666667
            },
            {
              "pitch": 62,
              "velocity": 107,
              "position": 15.5,
              "duration": 0.07916666666666666
            },
            {
              "pitch": 70,
              "velocity": 49,
              "position": 15.75,
              "duration": 0.07291666666666667
            },
            {
              "pitch": 62,
              "velocity": 57,
              "position": 15.75,
              "duration": 0.07916666666666666
            },
            {
              "pitch": 70,
              "velocity": 60,
              "position": 16,
              "duration": 0.07291666666666667
            },
            {
              "pitch": 63,
              "velocity": 86,
              "position": 16,
              "duration": 0.07916666666666666
            },
            {
              "pitch": 69,
              "velocity": 60,
              "position": 16.25,
              "duration": 0.07291666666666667
            },
            {
              "pitch": 63,
              "velocity": 48,
              "position": 16.25,
              "duration": 0.07916666666666666
            },
            {
              "pitch": 54,
              "velocity": 71,
              "position": 16.5,
              "duration": 0.052083333333333336
            },
            {
              "pitch": 70,
              "velocity": 97,
              "position": 16.5,
              "duration": 0.07291666666666667
            },
            {
              "pitch": 64,
              "velocity": 45,
              "position": 16.5,
              "duration": 0.07916666666666666
            },
            {
              "pitch": 54,
              "velocity": 56,
              "position": 16.75,
              "duration": 0.052083333333333336
            },
            {
              "pitch": 70,
              "velocity": 54,
              "position": 16.75,
              "duration": 0.07291666666666667
            },
            {
              "pitch": 64,
              "velocity": 71,
              "position": 16.75,
              "duration": 0.07916666666666666
            },
            {
              "pitch": 70,
              "velocity": 60,
              "position": 17,
              "duration": 0.07291666666666667
            },
            {
              "pitch": 54,
              "velocity": 71,
              "position": 17.5,
              "duration": 0.052083333333333336
            },
            {
              "pitch": 70,
              "velocity": 94,
              "position": 17.5,
              "duration": 0.07291666666666667
            },
            {
              "pitch": 62,
              "velocity": 110,
              "position": 17.5,
              "duration": 0.07916666666666666
            },
            {
              "pitch": 70,
              "velocity": 48,
              "position": 17.75,
              "duration": 0.07291666666666667
            },
            {
              "pitch": 62,
              "velocity": 59,
              "position": 17.75,
              "duration": 0.07916666666666666
            },
            {
              "pitch": 70,
              "velocity": 60,
              "position": 18,
              "duration": 0.07291666666666667
            },
            {
              "pitch": 63,
              "velocity": 95,
              "position": 18,
              "duration": 0.07916666666666666
            },
            {
              "pitch": 69,
              "velocity": 60,
              "position": 18.25,
              "duration": 0.07291666666666667
            },
            {
              "pitch": 63,
              "velocity": 57,
              "position": 18.25,
              "duration": 0.07916666666666666
            },
            {
              "pitch": 54,
              "velocity": 71,
              "position": 18.5,
              "duration": 0.052083333333333336
            },
            {
              "pitch": 70,
              "velocity": 97,
              "position": 18.5,
              "duration": 0.07291666666666667
            },
            {
              "pitch": 64,
              "velocity": 46,
              "position": 18.5,
              "duration": 0.07916666666666666
            },
            {
              "pitch": 54,
              "velocity": 57,
              "position": 18.75,
              "duration": 0.052083333333333336
            },
            {
              "pitch": 70,
              "velocity": 54,
              "position": 18.75,
              "duration": 0.07291666666666667
            },
            {
              "pitch": 64,
              "velocity": 73,
              "position": 18.75,
              "duration": 0.07916666666666666
            },
            {
              "pitch": 70,
              "velocity": 60,
              "position": 19,
              "duration": 0.07291666666666667
            },
            {
              "pitch": 62,
              "velocity": 47,
              "position": 19.25,
              "duration": 0.07916666666666666
            },
            {
              "pitch": 54,
              "velocity": 71,
              "position": 19.5,
              "duration": 0.052083333333333336
            },
            {
              "pitch": 70,
              "velocity": 102,
              "position": 19.5,
              "duration": 0.07291666666666667
            },
            {
              "pitch": 62,
              "velocity": 118,
              "position": 19.5,
              "duration": 0.07916666666666666
            },
            {
              "pitch": 70,
              "velocity": 52,
              "position": 19.75,
              "duration": 0.07291666666666667
            },
            {
              "pitch": 62,
              "velocity": 68,
              "position": 19.75,
              "duration": 0.07916666666666666
            },
            {
              "pitch": 70,
              "velocity": 60,
              "position": 20,
              "duration": 0.07291666666666667
            },
            {
              "pitch": 63,
              "velocity": 90,
              "position": 20,
              "duration": 0.07916666666666666
            },
            {
              "pitch": 69,
              "velocity": 60,
              "position": 20.25,
              "duration": 0.07291666666666667
            },
            {
              "pitch": 63,
              "velocity": 51,
              "position": 20.25,
              "duration": 0.08333333333333333
            },
            {
              "pitch": 54,
              "velocity": 71,
              "position": 20.5,
              "duration": 0.052083333333333336
            },
            {
              "pitch": 70,
              "velocity": 96,
              "position": 20.5,
              "duration": 0.07291666666666667
            },
            {
              "pitch": 64,
              "velocity": 38,
              "position": 20.5,
              "duration": 0.08333333333333333
            },
            {
              "pitch": 54,
              "velocity": 62,
              "position": 20.75,
              "duration": 0.052083333333333336
            },
            {
              "pitch": 70,
              "velocity": 48,
              "position": 20.75,
              "duration": 0.07291666666666667
            },
            {
              "pitch": 64,
              "velocity": 70,
              "position": 20.75,
              "duration": 0.08333333333333333
            },
            {
              "pitch": 70,
              "velocity": 60,
              "position": 21,
              "duration": 0.07291666666666667
            },
            {
              "pitch": 54,
              "velocity": 71,
              "position": 21.5,
              "duration": 0.052083333333333336
            },
            {
              "pitch": 70,
              "velocity": 106,
              "position": 21.5,
              "duration": 0.07291666666666667
            },
            {
              "pitch": 62,
              "velocity": 113,
              "position": 21.5,
              "duration": 0.08333333333333333
            },
            {
              "pitch": 70,
              "velocity": 53,
              "position": 21.75,
              "duration": 0.07291666666666667
            },
            {
              "pitch": 62,
              "velocity": 62,
              "position": 21.75,
              "duration": 0.08333333333333333
            },
            {
              "pitch": 70,
              "velocity": 60,
              "position": 22,
              "duration": 0.07291666666666667
            },
            {
              "pitch": 63,
              "velocity": 88,
              "position": 22,
              "duration": 0.08333333333333333
            },
            {
              "pitch": 69,
              "velocity": 60,
              "position": 22.25,
              "duration": 0.07291666666666667
            },
            {
              "pitch": 63,
              "velocity": 49,
              "position": 22.25,
              "duration": 0.08333333333333333
            },
            {
              "pitch": 54,
              "velocity": 71,
              "position": 22.5,
              "duration": 0.052083333333333336
            },
            {
              "pitch": 70,
              "velocity": 102,
              "position": 22.5,
              "duration": 0.07291666666666667
            },
            {
              "pitch": 64,
              "velocity": 45,
              "position": 22.5,
              "duration": 0.08333333333333333
            },
            {
              "pitch": 54,
              "velocity": 57,
              "position": 22.75,
              "duration": 0.052083333333333336
            },
            {
              "pitch": 70,
              "velocity": 45,
              "position": 22.75,
              "duration": 0.07291666666666667
            },
            {
              "pitch": 64,
              "velocity": 72,
              "position": 22.75,
              "duration": 0.08333333333333333
            },
            {
              "pitch": 70,
              "velocity": 60,
              "position": 23,
              "duration": 0.07291666666666667
            },
            {
              "pitch": 62,
              "velocity": 39,
              "position": 23.25,
              "duration": 0.08333333333333333
            },
            {
              "pitch": 54,
              "velocity": 71,
              "position": 23.5,
              "duration": 0.052083333333333336
            },
            {
              "pitch": 70,
              "velocity": 100,
              "position": 23.5,
              "duration": 0.07291666666666667
            },
            {
              "pitch": 62,
              "velocity": 111,
              "position": 23.5,
              "duration": 0.08333333333333333
            },
            {
              "pitch": 70,
              "velocity": 46,
              "position": 23.75,
              "duration": 0.07291666666666667
            },
            {
              "pitch": 62,
              "velocity": 60,
              "position": 23.75,
              "duration": 0.08333333333333333
            },
            {
              "pitch": 70,
              "velocity": 60,
              "position": 24,
              "duration": 0.07291666666666667
            },
            {
              "pitch": 63,
              "velocity": 90,
              "position": 24,
              "duration": 0.08333333333333333
            },
            {
              "pitch": 69,
              "velocity": 60,
              "position": 24.25,
              "duration": 0.07291666666666667
            },
            {
              "pitch": 63,
              "velocity": 51,
              "position": 24.25,
              "duration": 0.08333333333333333
            },
            {
              "pitch": 54,
              "velocity": 71,
              "position": 24.5,
              "duration": 0.052083333333333336
            },
            {
              "pitch": 70,
              "velocity": 95,
              "position": 24.5,
              "duration": 0.07291666666666667
            },
            {
              "pitch": 64,
              "velocity": 43,
              "position": 24.5,
              "duration": 0.08333333333333333
            },
            {
              "pitch": 54,
              "velocity": 64,
              "position": 24.75,
              "duration": 0.052083333333333336
            },
            {
              "pitch": 70,
              "velocity": 49,
              "position": 24.75,
              "duration": 0.07291666666666667
            },
            {
              "pitch": 64,
              "velocity": 68,
              "position": 24.75,
              "duration": 0.08333333333333333
            },
            {
              "pitch": 70,
              "velocity": 60,
              "position": 25,
              "duration": 0.07291666666666667
            },
            {
              "pitch": 54,
              "velocity": 71,
              "position": 25.5,
              "duration": 0.052083333333333336
            },
            {
              "pitch": 70,
              "velocity": 104,
              "position": 25.5,
              "duration": 0.07291666666666667
            },
            {
              "pitch": 62,
              "velocity": 113,
              "position": 25.5,
              "duration": 0.08333333333333333
            },
            {
              "pitch": 70,
              "velocity": 50,
              "position": 25.75,
              "duration": 0.07291666666666667
            },
            {
              "pitch": 62,
              "velocity": 62,
              "position": 25.75,
              "duration": 0.08333333333333333
            },
            {
              "pitch": 70,
              "velocity": 60,
              "position": 26,
              "duration": 0.07291666666666667
            },
            {
              "pitch": 63,
              "velocity": 96,
              "position": 26,
              "duration": 0.08333333333333333
            },
            {
              "pitch": 69,
              "velocity": 60,
              "position": 26.25,
              "duration": 0.07291666666666667
            },
            {
              "pitch": 63,
              "velocity": 58,
              "position": 26.25,
              "duration": 0.08333333333333333
            },
            {
              "pitch": 54,
              "velocity": 71,
              "position": 26.5,
              "duration": 0.052083333333333336
            },
            {
              "pitch": 70,
              "velocity": 95,
              "position": 26.5,
              "duration": 0.07291666666666667
            },
            {
              "pitch": 64,
              "velocity": 43,
              "position": 26.5,
              "duration": 0.08333333333333333
            },
            {
              "pitch": 54,
              "velocity": 57,
              "position": 26.75,
              "duration": 0.052083333333333336
            },
            {
              "pitch": 70,
              "velocity": 42,
              "position": 26.75,
              "duration": 0.07291666666666667
            },
            {
              "pitch": 64,
              "velocity": 75,
              "position": 26.75,
              "duration": 0.08333333333333333
            },
            {
              "pitch": 70,
              "velocity": 60,
              "position": 27,
              "duration": 0.07291666666666667
            },
            {
              "pitch": 62,
              "velocity": 48,
              "position": 27.25,
              "duration": 0.08333333333333333
            },
            {
              "pitch": 54,
              "velocity": 71,
              "position": 27.5,
              "duration": 0.052083333333333336
            },
            {
              "pitch": 70,
              "velocity": 98,
              "position": 27.5,
              "duration": 0.07291666666666667
            },
            {
              "pitch": 62,
              "velocity": 119,
              "position": 27.5,
              "duration": 0.08333333333333333
            },
            {
              "pitch": 70,
              "velocity": 46,
              "position": 27.75,
              "duration": 0.07291666666666667
            },
            {
              "pitch": 62,
              "velocity": 69,
              "position": 27.75,
              "duration": 0.08333333333333333
            },
            {
              "pitch": 70,
              "velocity": 60,
              "position": 28,
              "duration": 0.07291666666666667
            },
            {
              "pitch": 63,
              "velocity": 93,
              "position": 28,
              "duration": 0.08333333333333333
            },
            {
              "pitch": 69,
              "velocity": 60,
              "position": 28.25,
              "duration": 0.07291666666666667
            },
            {
              "pitch": 63,
              "velocity": 55,
              "position": 28.25,
              "duration": 0.08333333333333333
            },
            {
              "pitch": 54,
              "velocity": 71,
              "position": 28.5,
              "duration": 0.052083333333333336
            },
            {
              "pitch": 70,
              "velocity": 96,
              "position": 28.5,
              "duration": 0.07291666666666667
            },
            {
              "pitch": 64,
              "velocity": 38,
              "position": 28.5,
              "duration": 0.08333333333333333
            },
            {
              "pitch": 54,
              "velocity": 54,
              "position": 28.75,
              "duration": 0.052083333333333336
            },
            {
              "pitch": 70,
              "velocity": 42,
              "position": 28.75,
              "duration": 0.07291666666666667
            },
            {
              "pitch": 64,
              "velocity": 68,
              "position": 28.75,
              "duration": 0.08333333333333333
            },
            {
              "pitch": 70,
              "velocity": 60,
              "position": 29,
              "duration": 0.07291666666666667
            },
            {
              "pitch": 54,
              "velocity": 71,
              "position": 29.5,
              "duration": 0.052083333333333336
            },
            {
              "pitch": 70,
              "velocity": 102,
              "position": 29.5,
              "duration": 0.07291666666666667
            },
            {
              "pitch": 62,
              "velocity": 116,
              "position": 29.5,
              "duration": 0.08333333333333333
            },
            {
              "pitch": 70,
              "velocity": 54,
              "position": 29.75,
              "duration": 0.07291666666666667
            },
            {
              "pitch": 62,
              "velocity": 66,
              "position": 29.75,
              "duration": 0.08333333333333333
            },
            {
              "pitch": 70,
              "velocity": 60,
              "position": 30,
              "duration": 0.07291666666666667
            },
            {
              "pitch": 63,
              "velocity": 93,
              "position": 30,
              "duration": 0.08333333333333333
            },
            {
              "pitch": 69,
              "velocity": 60,
              "position": 30.25,
              "duration": 0.07291666666666667
            },
            {
              "pitch": 63,
              "velocity": 55,
              "position": 30.25,
              "duration": 0.08333333333333333
            },
            {
              "pitch": 54,
              "velocity": 71,
              "position": 30.5,
              "duration": 0.052083333333333336
            },
            {
              "pitch": 70,
              "velocity": 103,
              "position": 30.5,
              "duration": 0.07291666666666667
            },
            {
              "pitch": 64,
              "velocity": 44,
              "position": 30.5,
              "duration": 0.08333333333333333
            },
            {
              "pitch": 54,
              "velocity": 57,
              "position": 30.75,
              "duration": 0.052083333333333336
            },
            {
              "pitch": 70,
              "velocity": 45,
              "position": 30.75,
              "duration": 0.07291666666666667
            },
            {
              "pitch": 64,
              "velocity": 75,
              "position": 30.75,
              "duration": 0.08333333333333333
            },
            {
              "pitch": 70,
              "velocity": 60,
              "position": 31,
              "duration": 0.07291666666666667
            },
            {
              "pitch": 62,
              "velocity": 45,
              "position": 31.25,
              "duration": 0.08333333333333333
            },
            {
              "pitch": 54,
              "velocity": 71,
              "position": 31.5,
              "duration": 0.052083333333333336
            },
            {
              "pitch": 70,
              "velocity": 97,
              "position": 31.5,
              "duration": 0.07291666666666667
            },
            {
              "pitch": 62,
              "velocity": 116,
              "position": 31.5,
              "duration": 0.08333333333333333
            },
            {
              "pitch": 70,
              "velocity": 52,
              "position": 31.75,
              "duration": 0.07291666666666667
            },
            {
              "pitch": 62,
              "velocity": 66,
              "position": 31.75,
              "duration": 0.08333333333333333
            }
          ]
        },
        "9": {
          "ctab": {
            "srcChannel": 9,
            "name": "MainDrum",
            "accType": "RHYTHM",
            "editable": false,
            "mutedNotes": [],
            "mutedChords": [],
            "autoStart": true,
            "sourceChordNote": 0,
            "sourceChordType": "Maj7",
            "ctb2Low": null,
            "ctb2Main": {
              "ntr": "ROOT_FIXED",
              "ntt": "BYPASS",
              "bassOn": false,
              "chordRootUpperLimit": 6,
              "noteLowLimit": 0,
              "noteHighLimit": 127,
              "rtr": "PITCH_SHIFT"
            },
            "ctb2High": null
          },
          "notes": [
            {
              "pitch": 36,
              "velocity": 82,
              "position": 0,
              "duration": 0.052083333333333336
            },
            {
              "pitch": 42,
              "velocity": 42,
              "position": 0,
              "duration": 0.052083333333333336
            },
            {
              "pitch": 42,
              "velocity": 35,
              "position": 0.2604166666666667,
              "duration": 0.052083333333333336
            },
            {
              "pitch": 42,
              "velocity": 77,
              "position": 0.5,
              "duration": 0.052083333333333336
            },
            {
              "pitch": 36,
              "velocity": 52,
              "position": 0.7604166666666666,
              "duration": 0.052083333333333336
            },
            {
              "pitch": 42,
              "velocity": 25,
              "position": 0.7604166666666666,
              "duration": 0.052083333333333336
            },
            {
              "pitch": 36,
              "velocity": 82,
              "position": 1,
              "duration": 0.052083333333333336
            },
            {
              "pitch": 42,
              "velocity": 60,
              "position": 1,
              "duration": 0.052083333333333336
            },
            {
              "pitch": 42,
              "velocity": 37,
              "position": 1.2604166666666667,
              "duration": 0.052083333333333336
            },
            {
              "pitch": 42,
              "velocity": 81,
              "position": 1.5,
              "duration": 0.052083333333333336
            },
            {
              "pitch": 42,
              "velocity": 18,
              "position": 1.7604166666666667,
              "duration": 0.052083333333333336
            },
            {
              "pitch": 36,
              "velocity": 82,
              "position": 2,
              "duration": 0.052083333333333336
            },
            {
              "pitch": 42,
              "velocity": 41,
              "position": 2,
              "duration": 0.052083333333333336
            },
            {
              "pitch": 42,
              "velocity": 30,
              "position": 2.2604166666666665,
              "duration": 0.04791666666666667
            },
            {
              "pitch": 42,
              "velocity": 81,
              "position": 2.5,
              "duration": 0.04791666666666667
            },
            {
              "pitch": 42,
              "velocity": 20,
              "position": 2.7604166666666665,
              "duration": 0.04791666666666667
            },
            {
              "pitch": 36,
              "velocity": 82,
              "position": 3,
              "duration": 0.04791666666666667
            },
            {
              "pitch": 40,
              "velocity": 95,
              "position": 3,
              "duration": 0.04791666666666667
            },
            {
              "pitch": 42,
              "velocity": 39,
              "position": 3.2604166666666665,
              "duration": 0.04791666666666667
            },
            {
              "pitch": 42,
              "velocity": 82,
              "position": 3.5,
              "duration": 0.04791666666666667
            },
            {
              "pitch": 42,
              "velocity": 41,
              "position": 3.7604166666666665,
              "duration": 0.04791666666666667
            },
            {
              "pitch": 36,
              "velocity": 82,
              "position": 4,
              "duration": 0.04791666666666667
            },
            {
              "pitch": 42,
              "velocity": 45,
              "position": 4,
              "duration": 0.04791666666666667
            },
            {
              "pitch": 42,
              "velocity": 37,
              "position": 4.260416666666667,
              "duration": 0.04791666666666667
            },
            {
              "pitch": 42,
              "velocity": 80,
              "position": 4.5,
              "duration": 0.04791666666666667
            },
            {
              "pitch": 36,
              "velocity": 52,
              "position": 4.760416666666667,
              "duration": 0.04791666666666667
            },
            {
              "pitch": 42,
              "velocity": 25,
              "position": 4.760416666666667,
              "duration": 0.04791666666666667
            },
            {
              "pitch": 36,
              "velocity": 82,
              "position": 5,
              "duration": 0.04791666666666667
            },
            {
              "pitch": 42,
              "velocity": 62,
              "position": 5,
              "duration": 0.04791666666666667
            },
            {
              "pitch": 42,
              "velocity": 30,
              "position": 5.260416666666667,
              "duration": 0.04791666666666667
            },
            {
              "pitch": 42,
              "velocity": 79,
              "position": 5.5,
              "duration": 0.04791666666666667
            },
            {
              "pitch": 42,
              "velocity": 19,
              "position": 5.760416666666667,
              "duration": 0.04791666666666667
            },
            {
              "pitch": 36,
              "velocity": 82,
              "position": 6,
              "duration": 0.04791666666666667
            },
            {
              "pitch": 42,
              "velocity": 44,
              "position": 6,
              "duration": 0.04791666666666667
            },
            {
              "pitch": 42,
              "velocity": 34,
              "position": 6.260416666666667,
              "duration": 0.04791666666666667
            },
            {
              "pitch": 42,
              "velocity": 83,
              "position": 6.5,
              "duration": 0.04791666666666667
            },
            {
              "pitch": 42,
              "velocity": 22,
              "position": 6.760416666666667,
              "duration": 0.04791666666666667
            },
            {
              "pitch": 36,
              "velocity": 82,
              "position": 7,
              "duration": 0.04791666666666667
            },
            {
              "pitch": 40,
              "velocity": 95,
              "position": 7,
              "duration": 0.04791666666666667
            },
            {
              "pitch": 42,
              "velocity": 33,
              "position": 7.260416666666667,
              "duration": 0.04791666666666667
            },
            {
              "pitch": 42,
              "velocity": 79,
              "position": 7.5,
              "duration": 0.04791666666666667
            },
            {
              "pitch": 42,
              "velocity": 43,
              "position": 7.760416666666667,
              "duration": 0.04791666666666667
            },
            {
              "pitch": 36,
              "velocity": 82,
              "position": 8,
              "duration": 0.04791666666666667
            },
            {
              "pitch": 42,
              "velocity": 46,
              "position": 8,
              "duration": 0.04791666666666667
            },
            {
              "pitch": 42,
              "velocity": 31,
              "position": 8.260416666666666,
              "duration": 0.04791666666666667
            },
            {
              "pitch": 42,
              "velocity": 80,
              "position": 8.5,
              "duration": 0.04791666666666667
            },
            {
              "pitch": 36,
              "velocity": 52,
              "position": 8.760416666666666,
              "duration": 0.04791666666666667
            },
            {
              "pitch": 42,
              "velocity": 18,
              "position": 8.760416666666666,
              "duration": 0.04791666666666667
            },
            {
              "pitch": 36,
              "velocity": 82,
              "position": 9,
              "duration": 0.04791666666666667
            },
            {
              "pitch": 42,
              "velocity": 56,
              "position": 9,
              "duration": 0.04791666666666667
            },
            {
              "pitch": 42,
              "velocity": 35,
              "position": 9.260416666666666,
              "duration": 0.04791666666666667
            },
            {
              "pitch": 42,
              "velocity": 84,
              "position": 9.5,
              "duration": 0.04791666666666667
            },
            {
              "pitch": 42,
              "velocity": 22,
              "position": 9.760416666666666,
              "duration": 0.04791666666666667
            },
            {
              "pitch": 36,
              "velocity": 82,
              "position": 10,
              "duration": 0.04791666666666667
            },
            {
              "pitch": 42,
              "velocity": 44,
              "position": 10,
              "duration": 0.04791666666666667
            },
            {
              "pitch": 42,
              "velocity": 40,
              "position": 10.260416666666666,
              "duration": 0.04791666666666667
            },
            {
              "pitch": 42,
              "velocity": 82,
              "position": 10.5,
              "duration": 0.04791666666666667
            },
            {
              "pitch": 42,
              "velocity": 25,
              "position": 10.760416666666666,
              "duration": 0.04791666666666667
            },
            {
              "pitch": 36,
              "velocity": 82,
              "position": 11,
              "duration": 0.04791666666666667
            },
            {
              "pitch": 40,
              "velocity": 95,
              "position": 11,
              "duration": 0.04791666666666667
            },
            {
              "pitch": 42,
              "velocity": 40,
              "position": 11.260416666666666,
              "duration": 0.04791666666666667
            },
            {
              "pitch": 42,
              "velocity": 82,
              "position": 11.5,
              "duration": 0.04791666666666667
            },
            {
              "pitch": 42,
              "velocity": 37,
              "position": 11.760416666666666,
              "duration": 0.04791666666666667
            },
            {
              "pitch": 36,
              "velocity": 82,
              "position": 12,
              "duration": 0.04791666666666667
            },
            {
              "pitch": 42,
              "velocity": 44,
              "position": 12,
              "duration": 0.04791666666666667
            },
            {
              "pitch": 42,
              "velocity": 39,
              "position": 12.260416666666666,
              "duration": 0.04791666666666667
            },
            {
              "pitch": 42,
              "velocity": 79,
              "position": 12.5,
              "duration": 0.04791666666666667
            },
            {
              "pitch": 36,
              "velocity": 52,
              "position": 12.760416666666666,
              "duration": 0.04791666666666667
            },
            {
              "pitch": 42,
              "velocity": 23,
              "position": 12.760416666666666,
              "duration": 0.04791666666666667
            },
            {
              "pitch": 36,
              "velocity": 82,
              "position": 13,
              "duration": 0.04791666666666667
            },
            {
              "pitch": 42,
              "velocity": 64,
              "position": 13,
              "duration": 0.04791666666666667
            },
            {
              "pitch": 42,
              "velocity": 34,
              "position": 13.260416666666666,
              "duration": 0.04791666666666667
            },
            {
              "pitch": 42,
              "velocity": 76,
              "position": 13.5,
              "duration": 0.04791666666666667
            },
            {
              "pitch": 42,
              "velocity": 18,
              "position": 13.760416666666666,
              "duration": 0.04791666666666667
            },
            {
              "pitch": 36,
              "velocity": 82,
              "position": 14,
              "duration": 0.04791666666666667
            },
            {
              "pitch": 42,
              "velocity": 40,
              "position": 14,
              "duration": 0.04791666666666667
            },
            {
              "pitch": 42,
              "velocity": 39,
              "position": 14.260416666666666,
              "duration": 0.04791666666666667
            },
            {
              "pitch": 42,
              "velocity": 80,
              "position": 14.5,
              "duration": 0.04791666666666667
            },
            {
              "pitch": 42,
              "velocity": 22,
              "position": 14.760416666666666,
              "duration": 0.04791666666666667
            },
            {
              "pitch": 36,
              "velocity": 82,
              "position": 15,
              "duration": 0.04791666666666667
            },
            {
              "pitch": 40,
              "velocity": 95,
              "position": 15,
              "duration": 0.04791666666666667
            },
            {
              "pitch": 42,
              "velocity": 39,
              "position": 15.260416666666666,
              "duration": 0.04791666666666667
            },
            {
              "pitch": 42,
              "velocity": 84,
              "position": 15.5,
              "duration": 0.04791666666666667
            },
            {
              "pitch": 42,
              "velocity": 34,
              "position": 15.760416666666666,
              "duration": 0.04791666666666667
            },
            {
              "pitch": 36,
              "velocity": 82,
              "position": 16,
              "duration": 0.04791666666666667
            },
            {
              "pitch": 42,
              "velocity": 41,
              "position": 16,
              "duration": 0.04791666666666667
            },
            {
              "pitch": 42,
              "velocity": 39,
              "position": 16.260416666666668,
              "duration": 0.04791666666666667
            },
            {
              "pitch": 42,
              "velocity": 85,
              "position": 16.5,
              "duration": 0.04791666666666667
            },
            {
              "pitch": 36,
              "velocity": 52,
              "position": 16.760416666666668,
              "duration": 0.04791666666666667
            },
            {
              "pitch": 42,
              "velocity": 21,
              "position": 16.760416666666668,
              "duration": 0.04791666666666667
            },
            {
              "pitch": 36,
              "velocity": 82,
              "position": 17,
              "duration": 0.04791666666666667
            },
            {
              "pitch": 42,
              "velocity": 64,
              "position": 17,
              "duration": 0.04791666666666667
            },
            {
              "pitch": 42,
              "velocity": 34,
              "position": 17.260416666666668,
              "duration": 0.04791666666666667
            },
            {
              "pitch": 42,
              "velocity": 76,
              "position": 17.5,
              "duration": 0.04791666666666667
            },
            {
              "pitch": 42,
              "velocity": 27,
              "position": 17.760416666666668,
              "duration": 0.04791666666666667
            },
            {
              "pitch": 36,
              "velocity": 82,
              "position": 18,
              "duration": 0.04791666666666667
            },
            {
              "pitch": 42,
              "velocity": 45,
              "position": 18,
              "duration": 0.04791666666666667
            },
            {
              "pitch": 42,
              "velocity": 40,
              "position": 18.260416666666668,
              "duration": 0.04791666666666667
            },
            {
              "pitch": 42,
              "velocity": 84,
              "position": 18.5,
              "duration": 0.04791666666666667
            },
            {
              "pitch": 42,
              "velocity": 21,
              "position": 18.760416666666668,
              "duration": 0.04791666666666667
            },
            {
              "pitch": 36,
              "velocity": 82,
              "position": 19,
              "duration": 0.04791666666666667
            },
            {
              "pitch": 40,
              "velocity": 95,
              "position": 19,
              "duration": 0.04791666666666667
            },
            {
              "pitch": 42,
              "velocity": 30,
              "position": 19.260416666666668,
              "duration": 0.04791666666666667
            },
            {
              "pitch": 42,
              "velocity": 83,
              "position": 19.5,
              "duration": 0.04791666666666667
            },
            {
              "pitch": 42,
              "velocity": 44,
              "position": 19.760416666666668,
              "duration": 0.04791666666666667
            },
            {
              "pitch": 36,
              "velocity": 82,
              "position": 20,
              "duration": 0.04791666666666667
            },
            {
              "pitch": 42,
              "velocity": 44,
              "position": 20,
              "duration": 0.04791666666666667
            },
            {
              "pitch": 42,
              "velocity": 31,
              "position": 20.260416666666668,
              "duration": 0.052083333333333336
            },
            {
              "pitch": 42,
              "velocity": 77,
              "position": 20.5,
              "duration": 0.052083333333333336
            },
            {
              "pitch": 36,
              "velocity": 52,
              "position": 20.760416666666668,
              "duration": 0.052083333333333336
            },
            {
              "pitch": 42,
              "velocity": 21,
              "position": 20.760416666666668,
              "duration": 0.052083333333333336
            },
            {
              "pitch": 36,
              "velocity": 82,
              "position": 21,
              "duration": 0.052083333333333336
            },
            {
              "pitch": 42,
              "velocity": 56,
              "position": 21,
              "duration": 0.052083333333333336
            },
            {
              "pitch": 42,
              "velocity": 37,
              "position": 21.260416666666668,
              "duration": 0.052083333333333336
            },
            {
              "pitch": 42,
              "velocity": 84,
              "position": 21.5,
              "duration": 0.052083333333333336
            },
            {
              "pitch": 42,
              "velocity": 17,
              "position": 21.760416666666668,
              "duration": 0.052083333333333336
            },
            {
              "pitch": 36,
              "velocity": 82,
              "position": 22,
              "duration": 0.052083333333333336
            },
            {
              "pitch": 42,
              "velocity": 48,
              "position": 22,
              "duration": 0.052083333333333336
            },
            {
              "pitch": 42,
              "velocity": 33,
              "position": 22.260416666666668,
              "duration": 0.052083333333333336
            },
            {
              "pitch": 42,
              "velocity": 75,
              "position": 22.5,
              "duration": 0.052083333333333336
            },
            {
              "pitch": 42,
              "velocity": 22,
              "position": 22.760416666666668,
              "duration": 0.052083333333333336
            },
            {
              "pitch": 36,
              "velocity": 82,
              "position": 23,
              "duration": 0.052083333333333336
            },
            {
              "pitch": 40,
              "velocity": 95,
              "position": 23,
              "duration": 0.052083333333333336
            },
            {
              "pitch": 42,
              "velocity": 35,
              "position": 23.260416666666668,
              "duration": 0.052083333333333336
            },
            {
              "pitch": 42,
              "velocity": 79,
              "position": 23.5,
              "duration": 0.052083333333333336
            },
            {
              "pitch": 42,
              "velocity": 36,
              "position": 23.760416666666668,
              "duration": 0.052083333333333336
            },
            {
              "pitch": 36,
              "velocity": 82,
              "position": 24,
              "duration": 0.052083333333333336
            },
            {
              "pitch": 42,
              "velocity": 45,
              "position": 24,
              "duration": 0.052083333333333336
            },
            {
              "pitch": 42,
              "velocity": 36,
              "position": 24.260416666666668,
              "duration": 0.052083333333333336
            },
            {
              "pitch": 42,
              "velocity": 78,
              "position": 24.5,
              "duration": 0.052083333333333336
            },
            {
              "pitch": 36,
              "velocity": 52,
              "position": 24.760416666666668,
              "duration": 0.052083333333333336
            },
            {
              "pitch": 42,
              "velocity": 23,
              "position": 24.760416666666668,
              "duration": 0.052083333333333336
            },
            {
              "pitch": 36,
              "velocity": 82,
              "position": 25,
              "duration": 0.052083333333333336
            },
            {
              "pitch": 42,
              "velocity": 61,
              "position": 25,
              "duration": 0.052083333333333336
            },
            {
              "pitch": 42,
              "velocity": 33,
              "position": 25.260416666666668,
              "duration": 0.052083333333333336
            },
            {
              "pitch": 42,
              "velocity": 79,
              "position": 25.5,
              "duration": 0.052083333333333336
            },
            {
              "pitch": 42,
              "velocity": 21,
              "position": 25.760416666666668,
              "duration": 0.052083333333333336
            },
            {
              "pitch": 36,
              "velocity": 82,
              "position": 26,
              "duration": 0.052083333333333336
            },
            {
              "pitch": 42,
              "velocity": 47,
              "position": 26,
              "duration": 0.052083333333333336
            },
            {
              "pitch": 42,
              "velocity": 40,
              "position": 26.260416666666668,
              "duration": 0.052083333333333336
            },
            {
              "pitch": 42,
              "velocity": 85,
              "position": 26.5,
              "duration": 0.052083333333333336
            },
            {
              "pitch": 42,
              "velocity": 26,
              "position": 26.760416666666668,
              "duration": 0.052083333333333336
            },
            {
              "pitch": 36,
              "velocity": 82,
              "position": 27,
              "duration": 0.052083333333333336
            },
            {
              "pitch": 40,
              "velocity": 95,
              "position": 27,
              "duration": 0.052083333333333336
            },
            {
              "pitch": 42,
              "velocity": 31,
              "position": 27.260416666666668,
              "duration": 0.052083333333333336
            },
            {
              "pitch": 42,
              "velocity": 83,
              "position": 27.5,
              "duration": 0.052083333333333336
            },
            {
              "pitch": 42,
              "velocity": 40,
              "position": 27.760416666666668,
              "duration": 0.052083333333333336
            },
            {
              "pitch": 36,
              "velocity": 82,
              "position": 28,
              "duration": 0.052083333333333336
            },
            {
              "pitch": 42,
              "velocity": 44,
              "position": 28,
              "duration": 0.052083333333333336
            },
            {
              "pitch": 42,
              "velocity": 33,
              "position": 28.260416666666668,
              "duration": 0.052083333333333336
            },
            {
              "pitch": 42,
              "velocity": 76,
              "position": 28.5,
              "duration": 0.052083333333333336
            },
            {
              "pitch": 36,
              "velocity": 52,
              "position": 28.760416666666668,
              "duration": 0.052083333333333336
            },
            {
              "pitch": 42,
              "velocity": 18,
              "position": 28.760416666666668,
              "duration": 0.052083333333333336
            },
            {
              "pitch": 36,
              "velocity": 82,
              "position": 29,
              "duration": 0.052083333333333336
            },
            {
              "pitch": 42,
              "velocity": 58,
              "position": 29,
              "duration": 0.052083333333333336
            },
            {
              "pitch": 42,
              "velocity": 30,
              "position": 29.260416666666668,
              "duration": 0.052083333333333336
            },
            {
              "pitch": 42,
              "velocity": 81,
              "position": 29.5,
              "duration": 0.052083333333333336
            },
            {
              "pitch": 42,
              "velocity": 27,
              "position": 29.760416666666668,
              "duration": 0.052083333333333336
            },
            {
              "pitch": 36,
              "velocity": 82,
              "position": 30,
              "duration": 0.052083333333333336
            },
            {
              "pitch": 42,
              "velocity": 44,
              "position": 30,
              "duration": 0.052083333333333336
            },
            {
              "pitch": 42,
              "velocity": 38,
              "position": 30.260416666666668,
              "duration": 0.052083333333333336
            },
            {
              "pitch": 42,
              "velocity": 82,
              "position": 30.5,
              "duration": 0.052083333333333336
            },
            {
              "pitch": 42,
              "velocity": 22,
              "position": 30.760416666666668,
              "duration": 0.052083333333333336
            },
            {
              "pitch": 36,
              "velocity": 82,
              "position": 31,
              "duration": 0.052083333333333336
            },
            {
              "pitch": 40,
              "velocity": 95,
              "position": 31,
              "duration": 0.052083333333333336
            },
            {
              "pitch": 42,
              "velocity": 30,
              "position": 31.260416666666668,
              "duration": 0.052083333333333336
            },
            {
              "pitch": 42,
              "velocity": 84,
              "position": 31.5,
              "duration": 0.052083333333333336
            },
            {
              "pitch": 42,
              "velocity": 37,
              "position": 31.760416666666668,
              "duration": 0.052083333333333336
            }
          ]
        },
        "10": {
          "ctab": {
            "srcChannel": 10,
            "name": "Bass",
            "accType": "BASS",
            "editable": false,
            "mutedNotes": [],
            "mutedChords": [],
            "autoStart": false,
            "sourceChordNote": 0,
            "sourceChordType": "Maj7",
            "ctb2Low": null,
            "ctb2Main": {
              "ntr": "ROOT_TRANSPOSITION",
              "ntt": "MELODY",
              "bassOn": true,
              "chordRootUpperLimit": 8,
              "noteLowLimit": 28,
              "noteHighLimit": 127,
              "rtr": "PITCH_SHIFT_TO_ROOT"
            },
            "ctb2High": null
          },
          "notes": [
            {
              "pitch": 24,
              "velocity": 60,
              "position": 0,
              "duration": 1.4895833333333333
            },
            {
              "pitch": 31,
              "velocity": 60,
              "position": 1.5,
              "duration": 0.4895833333333333
            },
            {
              "pitch": 24,
              "velocity": 60,
              "position": 2,
              "duration": 0.9854166666666667
            },
            {
              "pitch": 31,
              "velocity": 60,
              "position": 3,
              "duration": 0.9854166666666667
            },
            {
              "pitch": 24,
              "velocity": 60,
              "position": 4,
              "duration": 0.7354166666666667
            },
            {
              "pitch": 36,
              "velocity": 60,
              "position": 4.760416666666667,
              "duration": 0.725
            },
            {
              "pitch": 31,
              "velocity": 60,
              "position": 5.5,
              "duration": 0.48541666666666666
            },
            {
              "pitch": 24,
              "velocity": 60,
              "position": 6,
              "duration": 0.9854166666666667
            },
            {
              "pitch": 31,
              "velocity": 60,
              "position": 7,
              "duration": 0.9854166666666667
            },
            {
              "pitch": 24,
              "velocity": 60,
              "position": 8,
              "duration": 1.4854166666666666
            },
            {
              "pitch": 31,
              "velocity": 60,
              "position": 9.5,
              "duration": 0.48541666666666666
            },
            {
              "pitch": 24,
              "velocity": 60,
              "position": 10,
              "duration": 0.9854166666666667
            },
            {
              "pitch": 31,
              "velocity": 60,
              "position": 11,
              "duration": 0.9854166666666667
            },
            {
              "pitch": 24,
              "velocity": 60,
              "position": 12,
              "duration": 0.7354166666666667
            },
            {
              "pitch": 36,
              "velocity": 60,
              "position": 12.760416666666666,
              "duration": 0.725
            },
            {
              "pitch": 31,
              "velocity": 60,
              "position": 13.5,
              "duration": 0.48541666666666666
            },
            {
              "pitch": 24,
              "velocity": 60,
              "position": 14,
              "duration": 0.9854166666666667
            },
            {
              "pitch": 31,
              "velocity": 60,
              "position": 15,
              "duration": 0.9854166666666667
            },
            {
              "pitch": 24,
              "velocity": 60,
              "position": 16,
              "duration": 1.4854166666666666
            },
            {
              "pitch": 31,
              "velocity": 60,
              "position": 17.5,
              "duration": 0.48541666666666666
            },
            {
              "pitch": 24,
              "velocity": 60,
              "position": 18,
              "duration": 0.9854166666666667
            },
            {
              "pitch": 31,
              "velocity": 60,
              "position": 19,
              "duration": 0.9854166666666667
            },
            {
              "pitch": 24,
              "velocity": 60,
              "position": 20,
              "duration": 0.7395833333333334
            },
            {
              "pitch": 36,
              "velocity": 60,
              "position": 20.760416666666668,
              "duration": 0.7291666666666666
            },
            {
              "pitch": 31,
              "velocity": 60,
              "position": 21.5,
              "duration": 0.4895833333333333
            },
            {
              "pitch": 24,
              "velocity": 60,
              "position": 22,
              "duration": 0.9895833333333334
            },
            {
              "pitch": 31,
              "velocity": 60,
              "position": 23,
              "duration": 0.9895833333333334
            },
            {
              "pitch": 24,
              "velocity": 60,
              "position": 24,
              "duration": 1.4895833333333333
            },
            {
              "pitch": 31,
              "velocity": 60,
              "position": 25.5,
              "duration": 0.4895833333333333
            },
            {
              "pitch": 24,
              "velocity": 60,
              "position": 26,
              "duration": 0.9895833333333334
            },
            {
              "pitch": 31,
              "velocity": 60,
              "position": 27,
              "duration": 0.9895833333333334
            },
            {
              "pitch": 24,
              "velocity": 60,
              "position": 28,
              "duration": 0.7395833333333334
            },
            {
              "pitch": 36,
              "velocity": 60,
              "position": 28.760416666666668,
              "duration": 0.7291666666666666
            },
            {
              "pitch": 31,
              "velocity": 60,
              "position": 29.5,
              "duration": 0.4895833333333333
            },
            {
              "pitch": 24,
              "velocity": 60,
              "position": 30,
              "duration": 0.9895833333333334
            },
            {
              "pitch": 31,
              "velocity": 60,
              "position": 31,
              "duration": 0.9895833333333334
            }
          ]
        },
        "11": {
          "ctab": {
            "srcChannel": 11,
            "name": "Gt_Stk",
            "accType": "CHORD1",
            "editable": false,
            "mutedNotes": [],
            "mutedChords": [],
            "autoStart": false,
            "sourceChordNote": 0,
            "sourceChordType": "Maj7",
            "ctb2Low": null,
            "ctb2Main": {
              "ntr": "ROOT_TRANSPOSITION",
              "ntt": "MELODY",
              "bassOn": true,
              "chordRootUpperLimit": 7,
              "noteLowLimit": 0,
              "noteHighLimit": 127,
              "rtr": "PITCH_SHIFT"
            },
            "ctb2High": null
          },
          "notes": [
            {
              "pitch": 60,
              "velocity": 46,
              "position": 0.010416666666666666,
              "duration": 0.48125
            },
            {
              "pitch": 64,
              "velocity": 49,
              "position": 0,
              "duration": 0.49166666666666664
            },
            {
              "pitch": 67,
              "velocity": 41,
              "position": 0,
              "duration": 0.5020833333333333
            },
            {
              "pitch": 71,
              "velocity": 41,
              "position": 0,
              "duration": 0.5020833333333333
            },
            {
              "pitch": 67,
              "velocity": 42,
              "position": 0.5104166666666666,
              "duration": 0.22083333333333333
            },
            {
              "pitch": 71,
              "velocity": 42,
              "position": 0.5104166666666666,
              "duration": 0.22083333333333333
            },
            {
              "pitch": 60,
              "velocity": 41,
              "position": 0.5,
              "duration": 0.24166666666666667
            },
            {
              "pitch": 64,
              "velocity": 37,
              "position": 0.5,
              "duration": 0.24166666666666667
            },
            {
              "pitch": 48,
              "velocity": 50,
              "position": 0,
              "duration": 0.7520833333333333
            },
            {
              "pitch": 55,
              "velocity": 50,
              "position": 0,
              "duration": 0.7520833333333333
            },
            {
              "pitch": 59,
              "velocity": 50,
              "position": 0,
              "duration": 0.7520833333333333
            },
            {
              "pitch": 67,
              "velocity": 50,
              "position": 0.7395833333333334,
              "duration": 0.5020833333333333
            },
            {
              "pitch": 71,
              "velocity": 50,
              "position": 0.7395833333333334,
              "duration": 0.5020833333333333
            },
            {
              "pitch": 48,
              "velocity": 50,
              "position": 0.7604166666666666,
              "duration": 0.7208333333333333
            },
            {
              "pitch": 55,
              "velocity": 50,
              "position": 0.7604166666666666,
              "duration": 0.7208333333333333
            },
            {
              "pitch": 59,
              "velocity": 50,
              "position": 0.7604166666666666,
              "duration": 0.7208333333333333
            },
            {
              "pitch": 60,
              "velocity": 50,
              "position": 0.75,
              "duration": 0.7416666666666667
            },
            {
              "pitch": 64,
              "velocity": 49,
              "position": 0.75,
              "duration": 0.7416666666666667
            },
            {
              "pitch": 67,
              "velocity": 37,
              "position": 1.25,
              "duration": 0.2520833333333333
            },
            {
              "pitch": 71,
              "velocity": 37,
              "position": 1.25,
              "duration": 0.2520833333333333
            },
            {
              "pitch": 67,
              "velocity": 44,
              "position": 1.5104166666666667,
              "duration": 0.22083333333333333
            },
            {
              "pitch": 71,
              "velocity": 44,
              "position": 1.5104166666666667,
              "duration": 0.22083333333333333
            },
            {
              "pitch": 60,
              "velocity": 44,
              "position": 1.5,
              "duration": 0.24166666666666667
            },
            {
              "pitch": 64,
              "velocity": 43,
              "position": 1.5,
              "duration": 0.24166666666666667
            },
            {
              "pitch": 48,
              "velocity": 44,
              "position": 1.4895833333333333,
              "duration": 0.49166666666666664
            },
            {
              "pitch": 55,
              "velocity": 44,
              "position": 1.4895833333333333,
              "duration": 0.49166666666666664
            },
            {
              "pitch": 59,
              "velocity": 44,
              "position": 1.4895833333333333,
              "duration": 0.49166666666666664
            },
            {
              "pitch": 60,
              "velocity": 44,
              "position": 1.75,
              "duration": 0.24166666666666667
            },
            {
              "pitch": 64,
              "velocity": 41,
              "position": 1.75,
              "duration": 0.24166666666666667
            },
            {
              "pitch": 67,
              "velocity": 36,
              "position": 1.7395833333333333,
              "duration": 0.2625
            },
            {
              "pitch": 71,
              "velocity": 36,
              "position": 1.7395833333333333,
              "duration": 0.2625
            },
            {
              "pitch": 48,
              "velocity": 50,
              "position": 1.9895833333333333,
              "duration": 0.49166666666666664
            },
            {
              "pitch": 55,
              "velocity": 50,
              "position": 1.9895833333333333,
              "duration": 0.49166666666666664
            },
            {
              "pitch": 59,
              "velocity": 50,
              "position": 1.9895833333333333,
              "duration": 0.49166666666666664
            },
            {
              "pitch": 60,
              "velocity": 50,
              "position": 2,
              "duration": 0.49166666666666664
            },
            {
              "pitch": 64,
              "velocity": 49,
              "position": 2,
              "duration": 0.49166666666666664
            },
            {
              "pitch": 67,
              "velocity": 50,
              "position": 2.0104166666666665,
              "duration": 0.7208333333333333
            },
            {
              "pitch": 71,
              "velocity": 50,
              "position": 2.0104166666666665,
              "duration": 0.7208333333333333
            },
            {
              "pitch": 60,
              "velocity": 35,
              "position": 2.5,
              "duration": 0.24166666666666667
            },
            {
              "pitch": 64,
              "velocity": 37,
              "position": 2.5,
              "duration": 0.24166666666666667
            },
            {
              "pitch": 48,
              "velocity": 41,
              "position": 2.4895833333333335,
              "duration": 0.2625
            },
            {
              "pitch": 55,
              "velocity": 41,
              "position": 2.4895833333333335,
              "duration": 0.2625
            },
            {
              "pitch": 59,
              "velocity": 41,
              "position": 2.4895833333333335,
              "duration": 0.2625
            },
            {
              "pitch": 67,
              "velocity": 50,
              "position": 2.7395833333333335,
              "duration": 0.49166666666666664
            },
            {
              "pitch": 71,
              "velocity": 50,
              "position": 2.7395833333333335,
              "duration": 0.49166666666666664
            },
            {
              "pitch": 60,
              "velocity": 50,
              "position": 2.75,
              "duration": 0.49166666666666664
            },
            {
              "pitch": 64,
              "velocity": 49,
              "position": 2.75,
              "duration": 0.49166666666666664
            },
            {
              "pitch": 48,
              "velocity": 50,
              "position": 2.7604166666666665,
              "duration": 0.49166666666666664
            },
            {
              "pitch": 55,
              "velocity": 50,
              "position": 2.7604166666666665,
              "duration": 0.49166666666666664
            },
            {
              "pitch": 59,
              "velocity": 50,
              "position": 2.7604166666666665,
              "duration": 0.49166666666666664
            },
            {
              "pitch": 48,
              "velocity": 32,
              "position": 3.2604166666666665,
              "duration": 0.22083333333333333
            },
            {
              "pitch": 55,
              "velocity": 32,
              "position": 3.2604166666666665,
              "duration": 0.22083333333333333
            },
            {
              "pitch": 59,
              "velocity": 32,
              "position": 3.2604166666666665,
              "duration": 0.22083333333333333
            },
            {
              "pitch": 60,
              "velocity": 41,
              "position": 3.25,
              "duration": 0.24166666666666667
            },
            {
              "pitch": 64,
              "velocity": 36,
              "position": 3.25,
              "duration": 0.24166666666666667
            },
            {
              "pitch": 67,
              "velocity": 41,
              "position": 3.2395833333333335,
              "duration": 0.2625
            },
            {
              "pitch": 71,
              "velocity": 41,
              "position": 3.2395833333333335,
              "duration": 0.2625
            },
            {
              "pitch": 67,
              "velocity": 44,
              "position": 3.5104166666666665,
              "duration": 0.22083333333333333
            },
            {
              "pitch": 71,
              "velocity": 44,
              "position": 3.5104166666666665,
              "duration": 0.22083333333333333
            },
            {
              "pitch": 60,
              "velocity": 44,
              "position": 3.5,
              "duration": 0.24166666666666667
            },
            {
              "pitch": 64,
              "velocity": 43,
              "position": 3.5,
              "duration": 0.24166666666666667
            },
            {
              "pitch": 48,
              "velocity": 44,
              "position": 3.4895833333333335,
              "duration": 0.49166666666666664
            },
            {
              "pitch": 55,
              "velocity": 44,
              "position": 3.4895833333333335,
              "duration": 0.49166666666666664
            },
            {
              "pitch": 59,
              "velocity": 44,
              "position": 3.4895833333333335,
              "duration": 0.49166666666666664
            },
            {
              "pitch": 60,
              "velocity": 34,
              "position": 3.75,
              "duration": 0.24166666666666667
            },
            {
              "pitch": 64,
              "velocity": 41,
              "position": 3.75,
              "duration": 0.24166666666666667
            },
            {
              "pitch": 67,
              "velocity": 40,
              "position": 3.7395833333333335,
              "duration": 0.2625
            },
            {
              "pitch": 71,
              "velocity": 40,
              "position": 3.7395833333333335,
              "duration": 0.2625
            },
            {
              "pitch": 48,
              "velocity": 50,
              "position": 3.9895833333333335,
              "duration": 0.49166666666666664
            },
            {
              "pitch": 55,
              "velocity": 50,
              "position": 3.9895833333333335,
              "duration": 0.49166666666666664
            },
            {
              "pitch": 59,
              "velocity": 50,
              "position": 3.9895833333333335,
              "duration": 0.49166666666666664
            },
            {
              "pitch": 60,
              "velocity": 50,
              "position": 4,
              "duration": 0.49166666666666664
            },
            {
              "pitch": 64,
              "velocity": 49,
              "position": 4,
              "duration": 0.49166666666666664
            },
            {
              "pitch": 67,
              "velocity": 50,
              "position": 4.010416666666667,
              "duration": 0.49166666666666664
            },
            {
              "pitch": 71,
              "velocity": 50,
              "position": 4.010416666666667,
              "duration": 0.49166666666666664
            },
            {
              "pitch": 67,
              "velocity": 39,
              "position": 4.510416666666667,
              "duration": 0.22083333333333333
            },
            {
              "pitch": 71,
              "velocity": 39,
              "position": 4.510416666666667,
              "duration": 0.22083333333333333
            },
            {
              "pitch": 60,
              "velocity": 38,
              "position": 4.5,
              "duration": 0.24166666666666667
            },
            {
              "pitch": 64,
              "velocity": 37,
              "position": 4.5,
              "duration": 0.24166666666666667
            },
            {
              "pitch": 48,
              "velocity": 40,
              "position": 4.489583333333333,
              "duration": 0.2625
            },
            {
              "pitch": 55,
              "velocity": 40,
              "position": 4.489583333333333,
              "duration": 0.2625
            },
            {
              "pitch": 59,
              "velocity": 40,
              "position": 4.489583333333333,
              "duration": 0.2625
            },
            {
              "pitch": 67,
              "velocity": 50,
              "position": 4.739583333333333,
              "duration": 0.5020833333333333
            },
            {
              "pitch": 71,
              "velocity": 50,
              "position": 4.739583333333333,
              "duration": 0.5020833333333333
            },
            {
              "pitch": 48,
              "velocity": 50,
              "position": 4.760416666666667,
              "duration": 0.7208333333333333
            },
            {
              "pitch": 55,
              "velocity": 50,
              "position": 4.760416666666667,
              "duration": 0.7208333333333333
            },
            {
              "pitch": 59,
              "velocity": 50,
              "position": 4.760416666666667,
              "duration": 0.7208333333333333
            },
            {
              "pitch": 60,
              "velocity": 50,
              "position": 4.75,
              "duration": 0.7416666666666667
            },
            {
              "pitch": 64,
              "velocity": 49,
              "position": 4.75,
              "duration": 0.7416666666666667
            },
            {
              "pitch": 67,
              "velocity": 37,
              "position": 5.25,
              "duration": 0.2520833333333333
            },
            {
              "pitch": 71,
              "velocity": 37,
              "position": 5.25,
              "duration": 0.2520833333333333
            },
            {
              "pitch": 67,
              "velocity": 44,
              "position": 5.510416666666667,
              "duration": 0.22083333333333333
            },
            {
              "pitch": 71,
              "velocity": 44,
              "position": 5.510416666666667,
              "duration": 0.22083333333333333
            },
            {
              "pitch": 60,
              "velocity": 44,
              "position": 5.5,
              "duration": 0.24166666666666667
            },
            {
              "pitch": 64,
              "velocity": 43,
              "position": 5.5,
              "duration": 0.24166666666666667
            },
            {
              "pitch": 48,
              "velocity": 44,
              "position": 5.489583333333333,
              "duration": 0.49166666666666664
            },
            {
              "pitch": 55,
              "velocity": 44,
              "position": 5.489583333333333,
              "duration": 0.49166666666666664
            },
            {
              "pitch": 59,
              "velocity": 44,
              "position": 5.489583333333333,
              "duration": 0.49166666666666664
            },
            {
              "pitch": 60,
              "velocity": 44,
              "position": 5.75,
              "duration": 0.24166666666666667
            },
            {
              "pitch": 64,
              "velocity": 41,
              "position": 5.75,
              "duration": 0.24166666666666667
            },
            {
              "pitch": 67,
              "velocity": 36,
              "position": 5.739583333333333,
              "duration": 0.2625
            },
            {
              "pitch": 71,
              "velocity": 36,
              "position": 5.739583333333333,
              "duration": 0.2625
            },
            {
              "pitch": 48,
              "velocity": 50,
              "position": 5.989583333333333,
              "duration": 0.49166666666666664
            },
            {
              "pitch": 55,
              "velocity": 50,
              "position": 5.989583333333333,
              "duration": 0.49166666666666664
            },
            {
              "pitch": 59,
              "velocity": 50,
              "position": 5.989583333333333,
              "duration": 0.49166666666666664
            },
            {
              "pitch": 60,
              "velocity": 50,
              "position": 6,
              "duration": 0.49166666666666664
            },
            {
              "pitch": 64,
              "velocity": 49,
              "position": 6,
              "duration": 0.49166666666666664
            },
            {
              "pitch": 67,
              "velocity": 50,
              "position": 6.010416666666667,
              "duration": 0.7208333333333333
            },
            {
              "pitch": 71,
              "velocity": 50,
              "position": 6.010416666666667,
              "duration": 0.7208333333333333
            },
            {
              "pitch": 60,
              "velocity": 35,
              "position": 6.5,
              "duration": 0.24166666666666667
            },
            {
              "pitch": 64,
              "velocity": 37,
              "position": 6.5,
              "duration": 0.24166666666666667
            },
            {
              "pitch": 48,
              "velocity": 41,
              "position": 6.489583333333333,
              "duration": 0.2625
            },
            {
              "pitch": 55,
              "velocity": 41,
              "position": 6.489583333333333,
              "duration": 0.2625
            },
            {
              "pitch": 59,
              "velocity": 41,
              "position": 6.489583333333333,
              "duration": 0.2625
            },
            {
              "pitch": 67,
              "velocity": 50,
              "position": 6.739583333333333,
              "duration": 0.49166666666666664
            },
            {
              "pitch": 71,
              "velocity": 50,
              "position": 6.739583333333333,
              "duration": 0.49166666666666664
            },
            {
              "pitch": 60,
              "velocity": 50,
              "position": 6.75,
              "duration": 0.49166666666666664
            },
            {
              "pitch": 64,
              "velocity": 49,
              "position": 6.75,
              "duration": 0.49166666666666664
            },
            {
              "pitch": 48,
              "velocity": 50,
              "position": 6.760416666666667,
              "duration": 0.49166666666666664
            },
            {
              "pitch": 55,
              "velocity": 50,
              "position": 6.760416666666667,
              "duration": 0.49166666666666664
            },
            {
              "pitch": 59,
              "velocity": 50,
              "position": 6.760416666666667,
              "duration": 0.49166666666666664
            },
            {
              "pitch": 48,
              "velocity": 32,
              "position": 7.260416666666667,
              "duration": 0.22083333333333333
            },
            {
              "pitch": 55,
              "velocity": 32,
              "position": 7.260416666666667,
              "duration": 0.22083333333333333
            },
            {
              "pitch": 59,
              "velocity": 32,
              "position": 7.260416666666667,
              "duration": 0.22083333333333333
            },
            {
              "pitch": 60,
              "velocity": 41,
              "position": 7.25,
              "duration": 0.24166666666666667
            },
            {
              "pitch": 64,
              "velocity": 36,
              "position": 7.25,
              "duration": 0.24166666666666667
            },
            {
              "pitch": 67,
              "velocity": 32,
              "position": 7.239583333333333,
              "duration": 0.2625
            },
            {
              "pitch": 71,
              "velocity": 32,
              "position": 7.239583333333333,
              "duration": 0.2625
            },
            {
              "pitch": 67,
              "velocity": 44,
              "position": 7.510416666666667,
              "duration": 0.22083333333333333
            },
            {
              "pitch": 71,
              "velocity": 44,
              "position": 7.510416666666667,
              "duration": 0.22083333333333333
            },
            {
              "pitch": 60,
              "velocity": 44,
              "position": 7.5,
              "duration": 0.24166666666666667
            },
            {
              "pitch": 64,
              "velocity": 43,
              "position": 7.5,
              "duration": 0.24166666666666667
            },
            {
              "pitch": 48,
              "velocity": 44,
              "position": 7.489583333333333,
              "duration": 0.49166666666666664
            },
            {
              "pitch": 55,
              "velocity": 44,
              "position": 7.489583333333333,
              "duration": 0.49166666666666664
            },
            {
              "pitch": 59,
              "velocity": 44,
              "position": 7.489583333333333,
              "duration": 0.49166666666666664
            },
            {
              "pitch": 60,
              "velocity": 41,
              "position": 7.75,
              "duration": 0.24166666666666667
            },
            {
              "pitch": 64,
              "velocity": 41,
              "position": 7.75,
              "duration": 0.24166666666666667
            },
            {
              "pitch": 67,
              "velocity": 40,
              "position": 7.739583333333333,
              "duration": 0.2625
            },
            {
              "pitch": 71,
              "velocity": 40,
              "position": 7.739583333333333,
              "duration": 0.2625
            },
            {
              "pitch": 60,
              "velocity": 46,
              "position": 8,
              "duration": 0.49166666666666664
            },
            {
              "pitch": 64,
              "velocity": 49,
              "position": 8,
              "duration": 0.49166666666666664
            },
            {
              "pitch": 67,
              "velocity": 41,
              "position": 8.010416666666666,
              "duration": 0.49166666666666664
            },
            {
              "pitch": 71,
              "velocity": 41,
              "position": 8.010416666666666,
              "duration": 0.49166666666666664
            },
            {
              "pitch": 67,
              "velocity": 42,
              "position": 8.510416666666666,
              "duration": 0.22083333333333333
            },
            {
              "pitch": 71,
              "velocity": 42,
              "position": 8.510416666666666,
              "duration": 0.22083333333333333
            },
            {
              "pitch": 60,
              "velocity": 41,
              "position": 8.5,
              "duration": 0.24166666666666667
            },
            {
              "pitch": 64,
              "velocity": 37,
              "position": 8.5,
              "duration": 0.24166666666666667
            },
            {
              "pitch": 48,
              "velocity": 50,
              "position": 7.989583333333333,
              "duration": 0.7625
            },
            {
              "pitch": 55,
              "velocity": 50,
              "position": 7.989583333333333,
              "duration": 0.7625
            },
            {
              "pitch": 59,
              "velocity": 50,
              "position": 7.989583333333333,
              "duration": 0.7625
            },
            {
              "pitch": 67,
              "velocity": 50,
              "position": 8.739583333333334,
              "duration": 0.5020833333333333
            },
            {
              "pitch": 71,
              "velocity": 50,
              "position": 8.739583333333334,
              "duration": 0.5020833333333333
            },
            {
              "pitch": 48,
              "velocity": 50,
              "position": 8.760416666666666,
              "duration": 0.7208333333333333
            },
            {
              "pitch": 55,
              "velocity": 50,
              "position": 8.760416666666666,
              "duration": 0.7208333333333333
            },
            {
              "pitch": 59,
              "velocity": 50,
              "position": 8.760416666666666,
              "duration": 0.7208333333333333
            },
            {
              "pitch": 60,
              "velocity": 50,
              "position": 8.75,
              "duration": 0.7416666666666667
            },
            {
              "pitch": 64,
              "velocity": 49,
              "position": 8.75,
              "duration": 0.7416666666666667
            },
            {
              "pitch": 67,
              "velocity": 37,
              "position": 9.25,
              "duration": 0.2520833333333333
            },
            {
              "pitch": 71,
              "velocity": 37,
              "position": 9.25,
              "duration": 0.2520833333333333
            },
            {
              "pitch": 67,
              "velocity": 44,
              "position": 9.510416666666666,
              "duration": 0.22083333333333333
            },
            {
              "pitch": 71,
              "velocity": 44,
              "position": 9.510416666666666,
              "duration": 0.22083333333333333
            },
            {
              "pitch": 60,
              "velocity": 44,
              "position": 9.5,
              "duration": 0.24166666666666667
            },
            {
              "pitch": 64,
              "velocity": 43,
              "position": 9.5,
              "duration": 0.24166666666666667
            },
            {
              "pitch": 48,
              "velocity": 44,
              "position": 9.489583333333334,
              "duration": 0.49166666666666664
            },
            {
              "pitch": 55,
              "velocity": 44,
              "position": 9.489583333333334,
              "duration": 0.49166666666666664
            },
            {
              "pitch": 59,
              "velocity": 44,
              "position": 9.489583333333334,
              "duration": 0.49166666666666664
            },
            {
              "pitch": 60,
              "velocity": 44,
              "position": 9.75,
              "duration": 0.24166666666666667
            },
            {
              "pitch": 64,
              "velocity": 41,
              "position": 9.75,
              "duration": 0.24166666666666667
            },
            {
              "pitch": 67,
              "velocity": 36,
              "position": 9.739583333333334,
              "duration": 0.2625
            },
            {
              "pitch": 71,
              "velocity": 36,
              "position": 9.739583333333334,
              "duration": 0.2625
            },
            {
              "pitch": 48,
              "velocity": 50,
              "position": 9.989583333333334,
              "duration": 0.49166666666666664
            },
            {
              "pitch": 55,
              "velocity": 50,
              "position": 9.989583333333334,
              "duration": 0.49166666666666664
            },
            {
              "pitch": 59,
              "velocity": 50,
              "position": 9.989583333333334,
              "duration": 0.49166666666666664
            },
            {
              "pitch": 60,
              "velocity": 50,
              "position": 10,
              "duration": 0.49166666666666664
            },
            {
              "pitch": 64,
              "velocity": 49,
              "position": 10,
              "duration": 0.49166666666666664
            },
            {
              "pitch": 67,
              "velocity": 50,
              "position": 10.010416666666666,
              "duration": 0.7208333333333333
            },
            {
              "pitch": 71,
              "velocity": 50,
              "position": 10.010416666666666,
              "duration": 0.7208333333333333
            },
            {
              "pitch": 60,
              "velocity": 35,
              "position": 10.5,
              "duration": 0.24166666666666667
            },
            {
              "pitch": 64,
              "velocity": 37,
              "position": 10.5,
              "duration": 0.24166666666666667
            },
            {
              "pitch": 48,
              "velocity": 41,
              "position": 10.489583333333334,
              "duration": 0.2625
            },
            {
              "pitch": 55,
              "velocity": 41,
              "position": 10.489583333333334,
              "duration": 0.2625
            },
            {
              "pitch": 59,
              "velocity": 41,
              "position": 10.489583333333334,
              "duration": 0.2625
            },
            {
              "pitch": 67,
              "velocity": 50,
              "position": 10.739583333333334,
              "duration": 0.49166666666666664
            },
            {
              "pitch": 71,
              "velocity": 50,
              "position": 10.739583333333334,
              "duration": 0.49166666666666664
            },
            {
              "pitch": 60,
              "velocity": 50,
              "position": 10.75,
              "duration": 0.49166666666666664
            },
            {
              "pitch": 64,
              "velocity": 49,
              "position": 10.75,
              "duration": 0.49166666666666664
            },
            {
              "pitch": 48,
              "velocity": 50,
              "position": 10.760416666666666,
              "duration": 0.49166666666666664
            },
            {
              "pitch": 55,
              "velocity": 50,
              "position": 10.760416666666666,
              "duration": 0.49166666666666664
            },
            {
              "pitch": 59,
              "velocity": 50,
              "position": 10.760416666666666,
              "duration": 0.49166666666666664
            },
            {
              "pitch": 48,
              "velocity": 32,
              "position": 11.260416666666666,
              "duration": 0.22083333333333333
            },
            {
              "pitch": 55,
              "velocity": 32,
              "position": 11.260416666666666,
              "duration": 0.22083333333333333
            },
            {
              "pitch": 59,
              "velocity": 32,
              "position": 11.260416666666666,
              "duration": 0.22083333333333333
            },
            {
              "pitch": 60,
              "velocity": 41,
              "position": 11.25,
              "duration": 0.24166666666666667
            },
            {
              "pitch": 64,
              "velocity": 36,
              "position": 11.25,
              "duration": 0.24166666666666667
            },
            {
              "pitch": 67,
              "velocity": 41,
              "position": 11.239583333333334,
              "duration": 0.2625
            },
            {
              "pitch": 71,
              "velocity": 41,
              "position": 11.239583333333334,
              "duration": 0.2625
            },
            {
              "pitch": 67,
              "velocity": 44,
              "position": 11.510416666666666,
              "duration": 0.22083333333333333
            },
            {
              "pitch": 71,
              "velocity": 44,
              "position": 11.510416666666666,
              "duration": 0.22083333333333333
            },
            {
              "pitch": 60,
              "velocity": 44,
              "position": 11.5,
              "duration": 0.24166666666666667
            },
            {
              "pitch": 64,
              "velocity": 43,
              "position": 11.5,
              "duration": 0.24166666666666667
            },
            {
              "pitch": 48,
              "velocity": 44,
              "position": 11.489583333333334,
              "duration": 0.49166666666666664
            },
            {
              "pitch": 55,
              "velocity": 44,
              "position": 11.489583333333334,
              "duration": 0.49166666666666664
            },
            {
              "pitch": 59,
              "velocity": 44,
              "position": 11.489583333333334,
              "duration": 0.49166666666666664
            },
            {
              "pitch": 60,
              "velocity": 41,
              "position": 11.75,
              "duration": 0.24166666666666667
            },
            {
              "pitch": 64,
              "velocity": 41,
              "position": 11.75,
              "duration": 0.24166666666666667
            },
            {
              "pitch": 67,
              "velocity": 40,
              "position": 11.739583333333334,
              "duration": 0.2625
            },
            {
              "pitch": 71,
              "velocity": 40,
              "position": 11.739583333333334,
              "duration": 0.2625
            },
            {
              "pitch": 48,
              "velocity": 50,
              "position": 11.989583333333334,
              "duration": 0.49166666666666664
            },
            {
              "pitch": 55,
              "velocity": 50,
              "position": 11.989583333333334,
              "duration": 0.49166666666666664
            },
            {
              "pitch": 59,
              "velocity": 50,
              "position": 11.989583333333334,
              "duration": 0.49166666666666664
            },
            {
              "pitch": 60,
              "velocity": 50,
              "position": 12,
              "duration": 0.49166666666666664
            },
            {
              "pitch": 64,
              "velocity": 49,
              "position": 12,
              "duration": 0.49166666666666664
            },
            {
              "pitch": 67,
              "velocity": 50,
              "position": 12.010416666666666,
              "duration": 0.49166666666666664
            },
            {
              "pitch": 71,
              "velocity": 50,
              "position": 12.010416666666666,
              "duration": 0.49166666666666664
            },
            {
              "pitch": 67,
              "velocity": 42,
              "position": 12.510416666666666,
              "duration": 0.22083333333333333
            },
            {
              "pitch": 71,
              "velocity": 42,
              "position": 12.510416666666666,
              "duration": 0.22083333333333333
            },
            {
              "pitch": 60,
              "velocity": 41,
              "position": 12.5,
              "duration": 0.24166666666666667
            },
            {
              "pitch": 64,
              "velocity": 37,
              "position": 12.5,
              "duration": 0.24166666666666667
            },
            {
              "pitch": 48,
              "velocity": 40,
              "position": 12.489583333333334,
              "duration": 0.2625
            },
            {
              "pitch": 55,
              "velocity": 40,
              "position": 12.489583333333334,
              "duration": 0.2625
            },
            {
              "pitch": 59,
              "velocity": 40,
              "position": 12.489583333333334,
              "duration": 0.2625
            },
            {
              "pitch": 67,
              "velocity": 50,
              "position": 12.739583333333334,
              "duration": 0.5020833333333333
            },
            {
              "pitch": 71,
              "velocity": 50,
              "position": 12.739583333333334,
              "duration": 0.5020833333333333
            },
            {
              "pitch": 48,
              "velocity": 50,
              "position": 12.760416666666666,
              "duration": 0.7208333333333333
            },
            {
              "pitch": 55,
              "velocity": 50,
              "position": 12.760416666666666,
              "duration": 0.7208333333333333
            },
            {
              "pitch": 59,
              "velocity": 50,
              "position": 12.760416666666666,
              "duration": 0.7208333333333333
            },
            {
              "pitch": 60,
              "velocity": 50,
              "position": 12.75,
              "duration": 0.7416666666666667
            },
            {
              "pitch": 64,
              "velocity": 49,
              "position": 12.75,
              "duration": 0.7416666666666667
            },
            {
              "pitch": 67,
              "velocity": 37,
              "position": 13.25,
              "duration": 0.2520833333333333
            },
            {
              "pitch": 71,
              "velocity": 37,
              "position": 13.25,
              "duration": 0.2520833333333333
            },
            {
              "pitch": 67,
              "velocity": 44,
              "position": 13.510416666666666,
              "duration": 0.22083333333333333
            },
            {
              "pitch": 71,
              "velocity": 44,
              "position": 13.510416666666666,
              "duration": 0.22083333333333333
            },
            {
              "pitch": 60,
              "velocity": 44,
              "position": 13.5,
              "duration": 0.24166666666666667
            },
            {
              "pitch": 64,
              "velocity": 43,
              "position": 13.5,
              "duration": 0.24166666666666667
            },
            {
              "pitch": 48,
              "velocity": 44,
              "position": 13.489583333333334,
              "duration": 0.49166666666666664
            },
            {
              "pitch": 55,
              "velocity": 44,
              "position": 13.489583333333334,
              "duration": 0.49166666666666664
            },
            {
              "pitch": 59,
              "velocity": 44,
              "position": 13.489583333333334,
              "duration": 0.49166666666666664
            },
            {
              "pitch": 60,
              "velocity": 44,
              "position": 13.75,
              "duration": 0.24166666666666667
            },
            {
              "pitch": 64,
              "velocity": 41,
              "position": 13.75,
              "duration": 0.24166666666666667
            },
            {
              "pitch": 67,
              "velocity": 36,
              "position": 13.739583333333334,
              "duration": 0.2625
            },
            {
              "pitch": 71,
              "velocity": 36,
              "position": 13.739583333333334,
              "duration": 0.2625
            },
            {
              "pitch": 48,
              "velocity": 50,
              "position": 13.989583333333334,
              "duration": 0.49166666666666664
            },
            {
              "pitch": 55,
              "velocity": 50,
              "position": 13.989583333333334,
              "duration": 0.49166666666666664
            },
            {
              "pitch": 59,
              "velocity": 50,
              "position": 13.989583333333334,
              "duration": 0.49166666666666664
            },
            {
              "pitch": 60,
              "velocity": 50,
              "position": 14,
              "duration": 0.49166666666666664
            },
            {
              "pitch": 64,
              "velocity": 49,
              "position": 14,
              "duration": 0.49166666666666664
            },
            {
              "pitch": 67,
              "velocity": 50,
              "position": 14.010416666666666,
              "duration": 0.48125
            },
            {
              "pitch": 71,
              "velocity": 50,
              "position": 14.010416666666666,
              "duration": 0.48125
            },
            {
              "pitch": 67,
              "velocity": 50,
              "position": 14.5,
              "duration": 0.23125
            },
            {
              "pitch": 71,
              "velocity": 50,
              "position": 14.5,
              "duration": 0.23125
            },
            {
              "pitch": 60,
              "velocity": 35,
              "position": 14.5,
              "duration": 0.24166666666666667
            },
            {
              "pitch": 64,
              "velocity": 37,
              "position": 14.5,
              "duration": 0.24166666666666667
            },
            {
              "pitch": 48,
              "velocity": 41,
              "position": 14.489583333333334,
              "duration": 0.2625
            },
            {
              "pitch": 55,
              "velocity": 41,
              "position": 14.489583333333334,
              "duration": 0.2625
            },
            {
              "pitch": 59,
              "velocity": 41,
              "position": 14.489583333333334,
              "duration": 0.2625
            },
            {
              "pitch": 67,
              "velocity": 50,
              "position": 14.739583333333334,
              "duration": 0.49166666666666664
            },
            {
              "pitch": 71,
              "velocity": 50,
              "position": 14.739583333333334,
              "duration": 0.49166666666666664
            },
            {
              "pitch": 60,
              "velocity": 50,
              "position": 14.75,
              "duration": 0.49166666666666664
            },
            {
              "pitch": 64,
              "velocity": 49,
              "position": 14.75,
              "duration": 0.49166666666666664
            },
            {
              "pitch": 48,
              "velocity": 50,
              "position": 14.760416666666666,
              "duration": 0.49166666666666664
            },
            {
              "pitch": 55,
              "velocity": 50,
              "position": 14.760416666666666,
              "duration": 0.49166666666666664
            },
            {
              "pitch": 59,
              "velocity": 50,
              "position": 14.760416666666666,
              "duration": 0.49166666666666664
            },
            {
              "pitch": 48,
              "velocity": 32,
              "position": 15.260416666666666,
              "duration": 0.22083333333333333
            },
            {
              "pitch": 55,
              "velocity": 32,
              "position": 15.260416666666666,
              "duration": 0.22083333333333333
            },
            {
              "pitch": 59,
              "velocity": 32,
              "position": 15.260416666666666,
              "duration": 0.22083333333333333
            },
            {
              "pitch": 60,
              "velocity": 41,
              "position": 15.25,
              "duration": 0.24166666666666667
            },
            {
              "pitch": 64,
              "velocity": 36,
              "position": 15.25,
              "duration": 0.24166666666666667
            },
            {
              "pitch": 67,
              "velocity": 41,
              "position": 15.239583333333334,
              "duration": 0.2625
            },
            {
              "pitch": 71,
              "velocity": 41,
              "position": 15.239583333333334,
              "duration": 0.2625
            },
            {
              "pitch": 60,
              "velocity": 44,
              "position": 15.5,
              "duration": 0.24166666666666667
            },
            {
              "pitch": 64,
              "velocity": 43,
              "position": 15.5,
              "duration": 0.24166666666666667
            },
            {
              "pitch": 48,
              "velocity": 44,
              "position": 15.489583333333334,
              "duration": 0.49166666666666664
            },
            {
              "pitch": 55,
              "velocity": 44,
              "position": 15.489583333333334,
              "duration": 0.49166666666666664
            },
            {
              "pitch": 59,
              "velocity": 44,
              "position": 15.489583333333334,
              "duration": 0.49166666666666664
            },
            {
              "pitch": 60,
              "velocity": 34,
              "position": 15.75,
              "duration": 0.24166666666666667
            },
            {
              "pitch": 64,
              "velocity": 41,
              "position": 15.75,
              "duration": 0.24166666666666667
            },
            {
              "pitch": 67,
              "velocity": 44,
              "position": 15.510416666666666,
              "duration": 0.48125
            },
            {
              "pitch": 71,
              "velocity": 44,
              "position": 15.510416666666666,
              "duration": 0.48125
            },
            {
              "pitch": 60,
              "velocity": 46,
              "position": 16.010416666666668,
              "duration": 0.48125
            },
            {
              "pitch": 64,
              "velocity": 49,
              "position": 16,
              "duration": 0.49166666666666664
            },
            {
              "pitch": 67,
              "velocity": 41,
              "position": 16,
              "duration": 0.5020833333333333
            },
            {
              "pitch": 71,
              "velocity": 41,
              "position": 16,
              "duration": 0.5020833333333333
            },
            {
              "pitch": 67,
              "velocity": 46,
              "position": 16.510416666666668,
              "duration": 0.22083333333333333
            },
            {
              "pitch": 71,
              "velocity": 46,
              "position": 16.510416666666668,
              "duration": 0.22083333333333333
            },
            {
              "pitch": 60,
              "velocity": 41,
              "position": 16.5,
              "duration": 0.24166666666666667
            },
            {
              "pitch": 64,
              "velocity": 37,
              "position": 16.5,
              "duration": 0.24166666666666667
            },
            {
              "pitch": 48,
              "velocity": 50,
              "position": 16,
              "duration": 0.7520833333333333
            },
            {
              "pitch": 55,
              "velocity": 50,
              "position": 16,
              "duration": 0.7520833333333333
            },
            {
              "pitch": 59,
              "velocity": 50,
              "position": 16,
              "duration": 0.7520833333333333
            },
            {
              "pitch": 67,
              "velocity": 50,
              "position": 16.739583333333332,
              "duration": 0.5020833333333333
            },
            {
              "pitch": 71,
              "velocity": 50,
              "position": 16.739583333333332,
              "duration": 0.5020833333333333
            },
            {
              "pitch": 48,
              "velocity": 50,
              "position": 16.760416666666668,
              "duration": 0.7208333333333333
            },
            {
              "pitch": 55,
              "velocity": 50,
              "position": 16.760416666666668,
              "duration": 0.7208333333333333
            },
            {
              "pitch": 59,
              "velocity": 50,
              "position": 16.760416666666668,
              "duration": 0.7208333333333333
            },
            {
              "pitch": 60,
              "velocity": 50,
              "position": 16.75,
              "duration": 0.7416666666666667
            },
            {
              "pitch": 64,
              "velocity": 49,
              "position": 16.75,
              "duration": 0.7416666666666667
            },
            {
              "pitch": 67,
              "velocity": 37,
              "position": 17.25,
              "duration": 0.2520833333333333
            },
            {
              "pitch": 71,
              "velocity": 37,
              "position": 17.25,
              "duration": 0.2520833333333333
            },
            {
              "pitch": 67,
              "velocity": 44,
              "position": 17.510416666666668,
              "duration": 0.22083333333333333
            },
            {
              "pitch": 71,
              "velocity": 44,
              "position": 17.510416666666668,
              "duration": 0.22083333333333333
            },
            {
              "pitch": 60,
              "velocity": 44,
              "position": 17.5,
              "duration": 0.24166666666666667
            },
            {
              "pitch": 64,
              "velocity": 43,
              "position": 17.5,
              "duration": 0.24166666666666667
            },
            {
              "pitch": 48,
              "velocity": 44,
              "position": 17.489583333333332,
              "duration": 0.49166666666666664
            },
            {
              "pitch": 55,
              "velocity": 44,
              "position": 17.489583333333332,
              "duration": 0.49166666666666664
            },
            {
              "pitch": 59,
              "velocity": 44,
              "position": 17.489583333333332,
              "duration": 0.49166666666666664
            },
            {
              "pitch": 60,
              "velocity": 44,
              "position": 17.75,
              "duration": 0.24166666666666667
            },
            {
              "pitch": 64,
              "velocity": 41,
              "position": 17.75,
              "duration": 0.24166666666666667
            },
            {
              "pitch": 67,
              "velocity": 36,
              "position": 17.739583333333332,
              "duration": 0.2625
            },
            {
              "pitch": 71,
              "velocity": 36,
              "position": 17.739583333333332,
              "duration": 0.2625
            },
            {
              "pitch": 48,
              "velocity": 50,
              "position": 17.989583333333332,
              "duration": 0.49166666666666664
            },
            {
              "pitch": 55,
              "velocity": 50,
              "position": 17.989583333333332,
              "duration": 0.49166666666666664
            },
            {
              "pitch": 59,
              "velocity": 50,
              "position": 17.989583333333332,
              "duration": 0.49166666666666664
            },
            {
              "pitch": 60,
              "velocity": 50,
              "position": 18,
              "duration": 0.49166666666666664
            },
            {
              "pitch": 64,
              "velocity": 49,
              "position": 18,
              "duration": 0.49166666666666664
            },
            {
              "pitch": 67,
              "velocity": 50,
              "position": 18.010416666666668,
              "duration": 0.7208333333333333
            },
            {
              "pitch": 71,
              "velocity": 50,
              "position": 18.010416666666668,
              "duration": 0.7208333333333333
            },
            {
              "pitch": 60,
              "velocity": 35,
              "position": 18.5,
              "duration": 0.24166666666666667
            },
            {
              "pitch": 64,
              "velocity": 37,
              "position": 18.5,
              "duration": 0.24166666666666667
            },
            {
              "pitch": 48,
              "velocity": 41,
              "position": 18.489583333333332,
              "duration": 0.2625
            },
            {
              "pitch": 55,
              "velocity": 41,
              "position": 18.489583333333332,
              "duration": 0.2625
            },
            {
              "pitch": 59,
              "velocity": 41,
              "position": 18.489583333333332,
              "duration": 0.2625
            },
            {
              "pitch": 67,
              "velocity": 50,
              "position": 18.739583333333332,
              "duration": 0.49166666666666664
            },
            {
              "pitch": 71,
              "velocity": 50,
              "position": 18.739583333333332,
              "duration": 0.49166666666666664
            },
            {
              "pitch": 60,
              "velocity": 50,
              "position": 18.75,
              "duration": 0.49166666666666664
            },
            {
              "pitch": 64,
              "velocity": 49,
              "position": 18.75,
              "duration": 0.49166666666666664
            },
            {
              "pitch": 48,
              "velocity": 50,
              "position": 18.760416666666668,
              "duration": 0.49166666666666664
            },
            {
              "pitch": 55,
              "velocity": 50,
              "position": 18.760416666666668,
              "duration": 0.49166666666666664
            },
            {
              "pitch": 59,
              "velocity": 50,
              "position": 18.760416666666668,
              "duration": 0.49166666666666664
            },
            {
              "pitch": 48,
              "velocity": 32,
              "position": 19.260416666666668,
              "duration": 0.22083333333333333
            },
            {
              "pitch": 55,
              "velocity": 32,
              "position": 19.260416666666668,
              "duration": 0.22083333333333333
            },
            {
              "pitch": 59,
              "velocity": 32,
              "position": 19.260416666666668,
              "duration": 0.22083333333333333
            },
            {
              "pitch": 60,
              "velocity": 41,
              "position": 19.25,
              "duration": 0.24166666666666667
            },
            {
              "pitch": 64,
              "velocity": 36,
              "position": 19.25,
              "duration": 0.24166666666666667
            },
            {
              "pitch": 67,
              "velocity": 41,
              "position": 19.239583333333332,
              "duration": 0.2625
            },
            {
              "pitch": 71,
              "velocity": 41,
              "position": 19.239583333333332,
              "duration": 0.2625
            },
            {
              "pitch": 67,
              "velocity": 44,
              "position": 19.510416666666668,
              "duration": 0.22083333333333333
            },
            {
              "pitch": 71,
              "velocity": 44,
              "position": 19.510416666666668,
              "duration": 0.22083333333333333
            },
            {
              "pitch": 60,
              "velocity": 44,
              "position": 19.5,
              "duration": 0.24166666666666667
            },
            {
              "pitch": 64,
              "velocity": 43,
              "position": 19.5,
              "duration": 0.24166666666666667
            },
            {
              "pitch": 48,
              "velocity": 44,
              "position": 19.489583333333332,
              "duration": 0.49166666666666664
            },
            {
              "pitch": 55,
              "velocity": 44,
              "position": 19.489583333333332,
              "duration": 0.49166666666666664
            },
            {
              "pitch": 59,
              "velocity": 44,
              "position": 19.489583333333332,
              "duration": 0.49166666666666664
            },
            {
              "pitch": 60,
              "velocity": 34,
              "position": 19.75,
              "duration": 0.24166666666666667
            },
            {
              "pitch": 64,
              "velocity": 41,
              "position": 19.75,
              "duration": 0.24166666666666667
            },
            {
              "pitch": 67,
              "velocity": 40,
              "position": 19.739583333333332,
              "duration": 0.2625
            },
            {
              "pitch": 71,
              "velocity": 40,
              "position": 19.739583333333332,
              "duration": 0.2625
            },
            {
              "pitch": 67,
              "velocity": 50,
              "position": 20.010416666666668,
              "duration": 0.23125
            },
            {
              "pitch": 71,
              "velocity": 50,
              "position": 20.010416666666668,
              "duration": 0.23125
            },
            {
              "pitch": 48,
              "velocity": 50,
              "position": 19.989583333333332,
              "duration": 0.49166666666666664
            },
            {
              "pitch": 55,
              "velocity": 50,
              "position": 19.989583333333332,
              "duration": 0.49166666666666664
            },
            {
              "pitch": 59,
              "velocity": 50,
              "position": 19.989583333333332,
              "duration": 0.49166666666666664
            },
            {
              "pitch": 60,
              "velocity": 50,
              "position": 20,
              "duration": 0.49166666666666664
            },
            {
              "pitch": 64,
              "velocity": 49,
              "position": 20,
              "duration": 0.49166666666666664
            },
            {
              "pitch": 67,
              "velocity": 41,
              "position": 20.25,
              "duration": 0.48125
            },
            {
              "pitch": 71,
              "velocity": 41,
              "position": 20.25,
              "duration": 0.48125
            },
            {
              "pitch": 60,
              "velocity": 38,
              "position": 20.5,
              "duration": 0.24166666666666667
            },
            {
              "pitch": 64,
              "velocity": 37,
              "position": 20.5,
              "duration": 0.24166666666666667
            },
            {
              "pitch": 48,
              "velocity": 40,
              "position": 20.489583333333332,
              "duration": 0.2625
            },
            {
              "pitch": 55,
              "velocity": 40,
              "position": 20.489583333333332,
              "duration": 0.2625
            },
            {
              "pitch": 59,
              "velocity": 40,
              "position": 20.489583333333332,
              "duration": 0.2625
            },
            {
              "pitch": 67,
              "velocity": 50,
              "position": 20.739583333333332,
              "duration": 0.5020833333333333
            },
            {
              "pitch": 71,
              "velocity": 50,
              "position": 20.739583333333332,
              "duration": 0.5020833333333333
            },
            {
              "pitch": 48,
              "velocity": 50,
              "position": 20.760416666666668,
              "duration": 0.7208333333333333
            },
            {
              "pitch": 55,
              "velocity": 50,
              "position": 20.760416666666668,
              "duration": 0.7208333333333333
            },
            {
              "pitch": 59,
              "velocity": 50,
              "position": 20.760416666666668,
              "duration": 0.7208333333333333
            },
            {
              "pitch": 60,
              "velocity": 50,
              "position": 20.75,
              "duration": 0.7416666666666667
            },
            {
              "pitch": 64,
              "velocity": 49,
              "position": 20.75,
              "duration": 0.7416666666666667
            },
            {
              "pitch": 67,
              "velocity": 37,
              "position": 21.25,
              "duration": 0.2520833333333333
            },
            {
              "pitch": 71,
              "velocity": 37,
              "position": 21.25,
              "duration": 0.2520833333333333
            },
            {
              "pitch": 67,
              "velocity": 44,
              "position": 21.510416666666668,
              "duration": 0.22083333333333333
            },
            {
              "pitch": 71,
              "velocity": 44,
              "position": 21.510416666666668,
              "duration": 0.22083333333333333
            },
            {
              "pitch": 60,
              "velocity": 44,
              "position": 21.5,
              "duration": 0.24166666666666667
            },
            {
              "pitch": 64,
              "velocity": 43,
              "position": 21.5,
              "duration": 0.24166666666666667
            },
            {
              "pitch": 48,
              "velocity": 44,
              "position": 21.489583333333332,
              "duration": 0.49166666666666664
            },
            {
              "pitch": 55,
              "velocity": 44,
              "position": 21.489583333333332,
              "duration": 0.49166666666666664
            },
            {
              "pitch": 59,
              "velocity": 44,
              "position": 21.489583333333332,
              "duration": 0.49166666666666664
            },
            {
              "pitch": 60,
              "velocity": 44,
              "position": 21.75,
              "duration": 0.24166666666666667
            },
            {
              "pitch": 64,
              "velocity": 41,
              "position": 21.75,
              "duration": 0.24166666666666667
            },
            {
              "pitch": 67,
              "velocity": 36,
              "position": 21.739583333333332,
              "duration": 0.2625
            },
            {
              "pitch": 71,
              "velocity": 36,
              "position": 21.739583333333332,
              "duration": 0.2625
            },
            {
              "pitch": 48,
              "velocity": 50,
              "position": 21.989583333333332,
              "duration": 0.49166666666666664
            },
            {
              "pitch": 55,
              "velocity": 50,
              "position": 21.989583333333332,
              "duration": 0.49166666666666664
            },
            {
              "pitch": 59,
              "velocity": 50,
              "position": 21.989583333333332,
              "duration": 0.49166666666666664
            },
            {
              "pitch": 60,
              "velocity": 50,
              "position": 22,
              "duration": 0.49166666666666664
            },
            {
              "pitch": 64,
              "velocity": 49,
              "position": 22,
              "duration": 0.49166666666666664
            },
            {
              "pitch": 67,
              "velocity": 50,
              "position": 22.010416666666668,
              "duration": 0.7208333333333333
            },
            {
              "pitch": 71,
              "velocity": 50,
              "position": 22.010416666666668,
              "duration": 0.7208333333333333
            },
            {
              "pitch": 60,
              "velocity": 35,
              "position": 22.5,
              "duration": 0.24166666666666667
            },
            {
              "pitch": 64,
              "velocity": 37,
              "position": 22.5,
              "duration": 0.24166666666666667
            },
            {
              "pitch": 48,
              "velocity": 41,
              "position": 22.489583333333332,
              "duration": 0.2625
            },
            {
              "pitch": 55,
              "velocity": 41,
              "position": 22.489583333333332,
              "duration": 0.2625
            },
            {
              "pitch": 59,
              "velocity": 41,
              "position": 22.489583333333332,
              "duration": 0.2625
            },
            {
              "pitch": 67,
              "velocity": 50,
              "position": 22.739583333333332,
              "duration": 0.49166666666666664
            },
            {
              "pitch": 71,
              "velocity": 50,
              "position": 22.739583333333332,
              "duration": 0.49166666666666664
            },
            {
              "pitch": 60,
              "velocity": 50,
              "position": 22.75,
              "duration": 0.49166666666666664
            },
            {
              "pitch": 64,
              "velocity": 49,
              "position": 22.75,
              "duration": 0.49166666666666664
            },
            {
              "pitch": 48,
              "velocity": 50,
              "position": 22.760416666666668,
              "duration": 0.49166666666666664
            },
            {
              "pitch": 55,
              "velocity": 50,
              "position": 22.760416666666668,
              "duration": 0.49166666666666664
            },
            {
              "pitch": 59,
              "velocity": 50,
              "position": 22.760416666666668,
              "duration": 0.49166666666666664
            },
            {
              "pitch": 48,
              "velocity": 32,
              "position": 23.260416666666668,
              "duration": 0.22083333333333333
            },
            {
              "pitch": 55,
              "velocity": 32,
              "position": 23.260416666666668,
              "duration": 0.22083333333333333
            },
            {
              "pitch": 59,
              "velocity": 32,
              "position": 23.260416666666668,
              "duration": 0.22083333333333333
            },
            {
              "pitch": 60,
              "velocity": 41,
              "position": 23.25,
              "duration": 0.24166666666666667
            },
            {
              "pitch": 64,
              "velocity": 36,
              "position": 23.25,
              "duration": 0.24166666666666667
            },
            {
              "pitch": 67,
              "velocity": 32,
              "position": 23.239583333333332,
              "duration": 0.2625
            },
            {
              "pitch": 71,
              "velocity": 32,
              "position": 23.239583333333332,
              "duration": 0.2625
            },
            {
              "pitch": 67,
              "velocity": 44,
              "position": 23.510416666666668,
              "duration": 0.22083333333333333
            },
            {
              "pitch": 71,
              "velocity": 44,
              "position": 23.510416666666668,
              "duration": 0.22083333333333333
            },
            {
              "pitch": 60,
              "velocity": 44,
              "position": 23.5,
              "duration": 0.24166666666666667
            },
            {
              "pitch": 64,
              "velocity": 43,
              "position": 23.5,
              "duration": 0.24166666666666667
            },
            {
              "pitch": 48,
              "velocity": 44,
              "position": 23.489583333333332,
              "duration": 0.49166666666666664
            },
            {
              "pitch": 55,
              "velocity": 44,
              "position": 23.489583333333332,
              "duration": 0.49166666666666664
            },
            {
              "pitch": 59,
              "velocity": 44,
              "position": 23.489583333333332,
              "duration": 0.49166666666666664
            },
            {
              "pitch": 60,
              "velocity": 41,
              "position": 23.75,
              "duration": 0.24166666666666667
            },
            {
              "pitch": 64,
              "velocity": 41,
              "position": 23.75,
              "duration": 0.24166666666666667
            },
            {
              "pitch": 67,
              "velocity": 40,
              "position": 23.739583333333332,
              "duration": 0.2625
            },
            {
              "pitch": 71,
              "velocity": 40,
              "position": 23.739583333333332,
              "duration": 0.2625
            },
            {
              "pitch": 60,
              "velocity": 46,
              "position": 24,
              "duration": 0.49166666666666664
            },
            {
              "pitch": 64,
              "velocity": 49,
              "position": 24,
              "duration": 0.49166666666666664
            },
            {
              "pitch": 67,
              "velocity": 41,
              "position": 24.010416666666668,
              "duration": 0.49166666666666664
            },
            {
              "pitch": 71,
              "velocity": 41,
              "position": 24.010416666666668,
              "duration": 0.49166666666666664
            },
            {
              "pitch": 67,
              "velocity": 42,
              "position": 24.510416666666668,
              "duration": 0.22083333333333333
            },
            {
              "pitch": 71,
              "velocity": 42,
              "position": 24.510416666666668,
              "duration": 0.22083333333333333
            },
            {
              "pitch": 60,
              "velocity": 41,
              "position": 24.5,
              "duration": 0.24166666666666667
            },
            {
              "pitch": 64,
              "velocity": 37,
              "position": 24.5,
              "duration": 0.24166666666666667
            },
            {
              "pitch": 48,
              "velocity": 50,
              "position": 23.989583333333332,
              "duration": 0.7625
            },
            {
              "pitch": 55,
              "velocity": 50,
              "position": 23.989583333333332,
              "duration": 0.7625
            },
            {
              "pitch": 59,
              "velocity": 50,
              "position": 23.989583333333332,
              "duration": 0.7625
            },
            {
              "pitch": 67,
              "velocity": 50,
              "position": 24.739583333333332,
              "duration": 0.5020833333333333
            },
            {
              "pitch": 71,
              "velocity": 50,
              "position": 24.739583333333332,
              "duration": 0.5020833333333333
            },
            {
              "pitch": 48,
              "velocity": 50,
              "position": 24.760416666666668,
              "duration": 0.7208333333333333
            },
            {
              "pitch": 55,
              "velocity": 50,
              "position": 24.760416666666668,
              "duration": 0.7208333333333333
            },
            {
              "pitch": 59,
              "velocity": 50,
              "position": 24.760416666666668,
              "duration": 0.7208333333333333
            },
            {
              "pitch": 60,
              "velocity": 50,
              "position": 24.75,
              "duration": 0.7416666666666667
            },
            {
              "pitch": 64,
              "velocity": 49,
              "position": 24.75,
              "duration": 0.7416666666666667
            },
            {
              "pitch": 67,
              "velocity": 37,
              "position": 25.25,
              "duration": 0.2520833333333333
            },
            {
              "pitch": 71,
              "velocity": 37,
              "position": 25.25,
              "duration": 0.2520833333333333
            },
            {
              "pitch": 67,
              "velocity": 44,
              "position": 25.510416666666668,
              "duration": 0.22083333333333333
            },
            {
              "pitch": 71,
              "velocity": 44,
              "position": 25.510416666666668,
              "duration": 0.22083333333333333
            },
            {
              "pitch": 60,
              "velocity": 44,
              "position": 25.5,
              "duration": 0.24166666666666667
            },
            {
              "pitch": 64,
              "velocity": 43,
              "position": 25.5,
              "duration": 0.24166666666666667
            },
            {
              "pitch": 48,
              "velocity": 44,
              "position": 25.489583333333332,
              "duration": 0.49166666666666664
            },
            {
              "pitch": 55,
              "velocity": 44,
              "position": 25.489583333333332,
              "duration": 0.49166666666666664
            },
            {
              "pitch": 59,
              "velocity": 44,
              "position": 25.489583333333332,
              "duration": 0.49166666666666664
            },
            {
              "pitch": 60,
              "velocity": 44,
              "position": 25.75,
              "duration": 0.24166666666666667
            },
            {
              "pitch": 64,
              "velocity": 41,
              "position": 25.75,
              "duration": 0.24166666666666667
            },
            {
              "pitch": 67,
              "velocity": 36,
              "position": 25.739583333333332,
              "duration": 0.2625
            },
            {
              "pitch": 71,
              "velocity": 36,
              "position": 25.739583333333332,
              "duration": 0.2625
            },
            {
              "pitch": 48,
              "velocity": 50,
              "position": 25.989583333333332,
              "duration": 0.49166666666666664
            },
            {
              "pitch": 55,
              "velocity": 50,
              "position": 25.989583333333332,
              "duration": 0.49166666666666664
            },
            {
              "pitch": 59,
              "velocity": 50,
              "position": 25.989583333333332,
              "duration": 0.49166666666666664
            },
            {
              "pitch": 60,
              "velocity": 50,
              "position": 26,
              "duration": 0.49166666666666664
            },
            {
              "pitch": 64,
              "velocity": 49,
              "position": 26,
              "duration": 0.49166666666666664
            },
            {
              "pitch": 67,
              "velocity": 50,
              "position": 26.010416666666668,
              "duration": 0.7208333333333333
            },
            {
              "pitch": 71,
              "velocity": 50,
              "position": 26.010416666666668,
              "duration": 0.7208333333333333
            },
            {
              "pitch": 60,
              "velocity": 35,
              "position": 26.5,
              "duration": 0.24166666666666667
            },
            {
              "pitch": 64,
              "velocity": 37,
              "position": 26.5,
              "duration": 0.24166666666666667
            },
            {
              "pitch": 48,
              "velocity": 41,
              "position": 26.489583333333332,
              "duration": 0.2625
            },
            {
              "pitch": 55,
              "velocity": 41,
              "position": 26.489583333333332,
              "duration": 0.2625
            },
            {
              "pitch": 59,
              "velocity": 41,
              "position": 26.489583333333332,
              "duration": 0.2625
            },
            {
              "pitch": 67,
              "velocity": 50,
              "position": 26.739583333333332,
              "duration": 0.49166666666666664
            },
            {
              "pitch": 71,
              "velocity": 50,
              "position": 26.739583333333332,
              "duration": 0.49166666666666664
            },
            {
              "pitch": 60,
              "velocity": 50,
              "position": 26.75,
              "duration": 0.49166666666666664
            },
            {
              "pitch": 64,
              "velocity": 49,
              "position": 26.75,
              "duration": 0.49166666666666664
            },
            {
              "pitch": 48,
              "velocity": 50,
              "position": 26.760416666666668,
              "duration": 0.49166666666666664
            },
            {
              "pitch": 55,
              "velocity": 50,
              "position": 26.760416666666668,
              "duration": 0.49166666666666664
            },
            {
              "pitch": 59,
              "velocity": 50,
              "position": 26.760416666666668,
              "duration": 0.49166666666666664
            },
            {
              "pitch": 48,
              "velocity": 32,
              "position": 27.260416666666668,
              "duration": 0.22083333333333333
            },
            {
              "pitch": 55,
              "velocity": 32,
              "position": 27.260416666666668,
              "duration": 0.22083333333333333
            },
            {
              "pitch": 59,
              "velocity": 32,
              "position": 27.260416666666668,
              "duration": 0.22083333333333333
            },
            {
              "pitch": 60,
              "velocity": 41,
              "position": 27.25,
              "duration": 0.24166666666666667
            },
            {
              "pitch": 64,
              "velocity": 36,
              "position": 27.25,
              "duration": 0.24166666666666667
            },
            {
              "pitch": 67,
              "velocity": 41,
              "position": 27.239583333333332,
              "duration": 0.2625
            },
            {
              "pitch": 71,
              "velocity": 41,
              "position": 27.239583333333332,
              "duration": 0.2625
            },
            {
              "pitch": 67,
              "velocity": 44,
              "position": 27.510416666666668,
              "duration": 0.22083333333333333
            },
            {
              "pitch": 71,
              "velocity": 44,
              "position": 27.510416666666668,
              "duration": 0.22083333333333333
            },
            {
              "pitch": 60,
              "velocity": 44,
              "position": 27.5,
              "duration": 0.24166666666666667
            },
            {
              "pitch": 64,
              "velocity": 43,
              "position": 27.5,
              "duration": 0.24166666666666667
            },
            {
              "pitch": 48,
              "velocity": 44,
              "position": 27.489583333333332,
              "duration": 0.49166666666666664
            },
            {
              "pitch": 55,
              "velocity": 44,
              "position": 27.489583333333332,
              "duration": 0.49166666666666664
            },
            {
              "pitch": 59,
              "velocity": 44,
              "position": 27.489583333333332,
              "duration": 0.49166666666666664
            },
            {
              "pitch": 60,
              "velocity": 41,
              "position": 27.75,
              "duration": 0.24166666666666667
            },
            {
              "pitch": 64,
              "velocity": 41,
              "position": 27.75,
              "duration": 0.24166666666666667
            },
            {
              "pitch": 48,
              "velocity": 50,
              "position": 27.989583333333332,
              "duration": 0.49166666666666664
            },
            {
              "pitch": 55,
              "velocity": 50,
              "position": 27.989583333333332,
              "duration": 0.49166666666666664
            },
            {
              "pitch": 59,
              "velocity": 50,
              "position": 27.989583333333332,
              "duration": 0.49166666666666664
            },
            {
              "pitch": 60,
              "velocity": 50,
              "position": 28,
              "duration": 0.49166666666666664
            },
            {
              "pitch": 64,
              "velocity": 49,
              "position": 28,
              "duration": 0.49166666666666664
            },
            {
              "pitch": 67,
              "velocity": 40,
              "position": 27.739583333333332,
              "duration": 0.7625
            },
            {
              "pitch": 71,
              "velocity": 40,
              "position": 27.739583333333332,
              "duration": 0.7625
            },
            {
              "pitch": 67,
              "velocity": 42,
              "position": 28.510416666666668,
              "duration": 0.22083333333333333
            },
            {
              "pitch": 71,
              "velocity": 42,
              "position": 28.510416666666668,
              "duration": 0.22083333333333333
            },
            {
              "pitch": 60,
              "velocity": 41,
              "position": 28.5,
              "duration": 0.24166666666666667
            },
            {
              "pitch": 64,
              "velocity": 37,
              "position": 28.5,
              "duration": 0.24166666666666667
            },
            {
              "pitch": 48,
              "velocity": 40,
              "position": 28.489583333333332,
              "duration": 0.2625
            },
            {
              "pitch": 55,
              "velocity": 40,
              "position": 28.489583333333332,
              "duration": 0.2625
            },
            {
              "pitch": 59,
              "velocity": 40,
              "position": 28.489583333333332,
              "duration": 0.2625
            },
            {
              "pitch": 67,
              "velocity": 50,
              "position": 28.739583333333332,
              "duration": 0.5020833333333333
            },
            {
              "pitch": 71,
              "velocity": 50,
              "position": 28.739583333333332,
              "duration": 0.5020833333333333
            },
            {
              "pitch": 48,
              "velocity": 50,
              "position": 28.760416666666668,
              "duration": 0.7208333333333333
            },
            {
              "pitch": 55,
              "velocity": 50,
              "position": 28.760416666666668,
              "duration": 0.7208333333333333
            },
            {
              "pitch": 59,
              "velocity": 50,
              "position": 28.760416666666668,
              "duration": 0.7208333333333333
            },
            {
              "pitch": 60,
              "velocity": 50,
              "position": 28.75,
              "duration": 0.7416666666666667
            },
            {
              "pitch": 64,
              "velocity": 49,
              "position": 28.75,
              "duration": 0.7416666666666667
            },
            {
              "pitch": 67,
              "velocity": 37,
              "position": 29.25,
              "duration": 0.2520833333333333
            },
            {
              "pitch": 71,
              "velocity": 37,
              "position": 29.25,
              "duration": 0.2520833333333333
            },
            {
              "pitch": 67,
              "velocity": 44,
              "position": 29.510416666666668,
              "duration": 0.22083333333333333
            },
            {
              "pitch": 71,
              "velocity": 44,
              "position": 29.510416666666668,
              "duration": 0.22083333333333333
            },
            {
              "pitch": 60,
              "velocity": 44,
              "position": 29.5,
              "duration": 0.24166666666666667
            },
            {
              "pitch": 64,
              "velocity": 43,
              "position": 29.5,
              "duration": 0.24166666666666667
            },
            {
              "pitch": 48,
              "velocity": 44,
              "position": 29.489583333333332,
              "duration": 0.49166666666666664
            },
            {
              "pitch": 55,
              "velocity": 44,
              "position": 29.489583333333332,
              "duration": 0.49166666666666664
            },
            {
              "pitch": 59,
              "velocity": 44,
              "position": 29.489583333333332,
              "duration": 0.49166666666666664
            },
            {
              "pitch": 60,
              "velocity": 44,
              "position": 29.75,
              "duration": 0.24166666666666667
            },
            {
              "pitch": 64,
              "velocity": 41,
              "position": 29.75,
              "duration": 0.24166666666666667
            },
            {
              "pitch": 67,
              "velocity": 36,
              "position": 29.739583333333332,
              "duration": 0.2625
            },
            {
              "pitch": 71,
              "velocity": 36,
              "position": 29.739583333333332,
              "duration": 0.2625
            },
            {
              "pitch": 48,
              "velocity": 50,
              "position": 29.989583333333332,
              "duration": 0.49166666666666664
            },
            {
              "pitch": 55,
              "velocity": 50,
              "position": 29.989583333333332,
              "duration": 0.49166666666666664
            },
            {
              "pitch": 59,
              "velocity": 50,
              "position": 29.989583333333332,
              "duration": 0.49166666666666664
            },
            {
              "pitch": 60,
              "velocity": 50,
              "position": 30,
              "duration": 0.49166666666666664
            },
            {
              "pitch": 64,
              "velocity": 49,
              "position": 30,
              "duration": 0.49166666666666664
            },
            {
              "pitch": 67,
              "velocity": 50,
              "position": 30.010416666666668,
              "duration": 0.48125
            },
            {
              "pitch": 71,
              "velocity": 50,
              "position": 30.010416666666668,
              "duration": 0.48125
            },
            {
              "pitch": 67,
              "velocity": 50,
              "position": 30.5,
              "duration": 0.23125
            },
            {
              "pitch": 71,
              "velocity": 50,
              "position": 30.5,
              "duration": 0.23125
            },
            {
              "pitch": 60,
              "velocity": 35,
              "position": 30.5,
              "duration": 0.24166666666666667
            },
            {
              "pitch": 64,
              "velocity": 37,
              "position": 30.5,
              "duration": 0.24166666666666667
            },
            {
              "pitch": 48,
              "velocity": 41,
              "position": 30.489583333333332,
              "duration": 0.2625
            },
            {
              "pitch": 55,
              "velocity": 41,
              "position": 30.489583333333332,
              "duration": 0.2625
            },
            {
              "pitch": 59,
              "velocity": 41,
              "position": 30.489583333333332,
              "duration": 0.2625
            },
            {
              "pitch": 67,
              "velocity": 50,
              "position": 30.739583333333332,
              "duration": 0.49166666666666664
            },
            {
              "pitch": 71,
              "velocity": 50,
              "position": 30.739583333333332,
              "duration": 0.49166666666666664
            },
            {
              "pitch": 60,
              "velocity": 50,
              "position": 30.75,
              "duration": 0.49166666666666664
            },
            {
              "pitch": 64,
              "velocity": 49,
              "position": 30.75,
              "duration": 0.49166666666666664
            },
            {
              "pitch": 48,
              "velocity": 50,
              "position": 30.760416666666668,
              "duration": 0.49166666666666664
            },
            {
              "pitch": 55,
              "velocity": 50,
              "position": 30.760416666666668,
              "duration": 0.49166666666666664
            },
            {
              "pitch": 59,
              "velocity": 50,
              "position": 30.760416666666668,
              "duration": 0.49166666666666664
            },
            {
              "pitch": 48,
              "velocity": 32,
              "position": 31.260416666666668,
              "duration": 0.22083333333333333
            },
            {
              "pitch": 55,
              "velocity": 32,
              "position": 31.260416666666668,
              "duration": 0.22083333333333333
            },
            {
              "pitch": 59,
              "velocity": 32,
              "position": 31.260416666666668,
              "duration": 0.22083333333333333
            },
            {
              "pitch": 60,
              "velocity": 41,
              "position": 31.25,
              "duration": 0.24166666666666667
            },
            {
              "pitch": 64,
              "velocity": 36,
              "position": 31.25,
              "duration": 0.24166666666666667
            },
            {
              "pitch": 67,
              "velocity": 41,
              "position": 31.239583333333332,
              "duration": 0.2625
            },
            {
              "pitch": 71,
              "velocity": 41,
              "position": 31.239583333333332,
              "duration": 0.2625
            },
            {
              "pitch": 60,
              "velocity": 44,
              "position": 31.5,
              "duration": 0.24166666666666667
            },
            {
              "pitch": 64,
              "velocity": 43,
              "position": 31.5,
              "duration": 0.24166666666666667
            },
            {
              "pitch": 48,
              "velocity": 44,
              "position": 31.489583333333332,
              "duration": 0.49166666666666664
            },
            {
              "pitch": 55,
              "velocity": 44,
              "position": 31.489583333333332,
              "duration": 0.49166666666666664
            },
            {
              "pitch": 59,
              "velocity": 44,
              "position": 31.489583333333332,
              "duration": 0.49166666666666664
            },
            {
              "pitch": 60,
              "velocity": 34,
              "position": 31.75,
              "duration": 0.24166666666666667
            },
            {
              "pitch": 64,
              "velocity": 41,
              "position": 31.75,
              "duration": 0.24166666666666667
            },
            {
              "pitch": 67,
              "velocity": 44,
              "position": 31.510416666666668,
              "duration": 0.48125
            },
            {
              "pitch": 71,
              "velocity": 44,
              "position": 31.510416666666668,
              "duration": 0.48125
            }
          ]
        },
        "14": {
          "ctab": {
            "srcChannel": 14,
            "name": "Gt_Ba",
            "accType": "PHRASE1",
            "editable": false,
            "mutedNotes": [],
            "mutedChords": [],
            "autoStart": false,
            "sourceChordNote": 0,
            "sourceChordType": "Maj7",
            "ctb2Low": null,
            "ctb2Main": {
              "ntr": "ROOT_TRANSPOSITION",
              "ntt": "MELODY",
              "bassOn": true,
              "chordRootUpperLimit": 8,
              "noteLowLimit": 40,
              "noteHighLimit": 52,
              "rtr": "PITCH_SHIFT_TO_ROOT"
            },
            "ctb2High": null
          },
          "notes": [
            {
              "pitch": 48,
              "velocity": 80,
              "position": 0,
              "duration": 1.4791666666666667
            },
            {
              "pitch": 43,
              "velocity": 72,
              "position": 1.5,
              "duration": 0.4895833333333333
            },
            {
              "pitch": 48,
              "velocity": 80,
              "position": 2,
              "duration": 0.96875
            },
            {
              "pitch": 43,
              "velocity": 75,
              "position": 3,
              "duration": 0.9791666666666666
            },
            {
              "pitch": 48,
              "velocity": 80,
              "position": 4,
              "duration": 1.4791666666666667
            },
            {
              "pitch": 43,
              "velocity": 72,
              "position": 5.5,
              "duration": 0.48541666666666666
            },
            {
              "pitch": 48,
              "velocity": 80,
              "position": 6,
              "duration": 0.96875
            },
            {
              "pitch": 43,
              "velocity": 75,
              "position": 7,
              "duration": 0.9791666666666666
            },
            {
              "pitch": 48,
              "velocity": 80,
              "position": 8,
              "duration": 0.9791666666666666
            },
            {
              "pitch": 48,
              "velocity": 72,
              "position": 9,
              "duration": 0.48541666666666666
            },
            {
              "pitch": 43,
              "velocity": 72,
              "position": 9.5,
              "duration": 0.48541666666666666
            },
            {
              "pitch": 48,
              "velocity": 80,
              "position": 10,
              "duration": 0.96875
            },
            {
              "pitch": 43,
              "velocity": 75,
              "position": 11,
              "duration": 0.9791666666666666
            },
            {
              "pitch": 48,
              "velocity": 80,
              "position": 12,
              "duration": 1.4791666666666667
            },
            {
              "pitch": 43,
              "velocity": 72,
              "position": 13.5,
              "duration": 0.48541666666666666
            },
            {
              "pitch": 48,
              "velocity": 80,
              "position": 14,
              "duration": 0.96875
            },
            {
              "pitch": 43,
              "velocity": 75,
              "position": 15,
              "duration": 0.9791666666666666
            },
            {
              "pitch": 48,
              "velocity": 80,
              "position": 16,
              "duration": 1.4791666666666667
            },
            {
              "pitch": 43,
              "velocity": 72,
              "position": 17.5,
              "duration": 0.48541666666666666
            },
            {
              "pitch": 48,
              "velocity": 80,
              "position": 18,
              "duration": 0.96875
            },
            {
              "pitch": 43,
              "velocity": 75,
              "position": 19,
              "duration": 0.9791666666666666
            },
            {
              "pitch": 48,
              "velocity": 80,
              "position": 20,
              "duration": 1.4791666666666667
            },
            {
              "pitch": 43,
              "velocity": 72,
              "position": 21.5,
              "duration": 0.4895833333333333
            },
            {
              "pitch": 48,
              "velocity": 80,
              "position": 22,
              "duration": 0.96875
            },
            {
              "pitch": 43,
              "velocity": 75,
              "position": 23,
              "duration": 0.9791666666666666
            },
            {
              "pitch": 48,
              "velocity": 80,
              "position": 24,
              "duration": 1.4791666666666667
            },
            {
              "pitch": 43,
              "velocity": 72,
              "position": 25.5,
              "duration": 0.4895833333333333
            },
            {
              "pitch": 48,
              "velocity": 80,
              "position": 26,
              "duration": 0.96875
            },
            {
              "pitch": 43,
              "velocity": 75,
              "position": 27,
              "duration": 0.9791666666666666
            },
            {
              "pitch": 48,
              "velocity": 80,
              "position": 28,
              "duration": 1.4791666666666667
            },
            {
              "pitch": 43,
              "velocity": 72,
              "position": 29.5,
              "duration": 0.4895833333333333
            },
            {
              "pitch": 48,
              "velocity": 80,
              "position": 30,
              "duration": 0.96875
            },
            {
              "pitch": 43,
              "velocity": 75,
              "position": 31,
              "duration": 0.9791666666666666
            }
          ]
        },
        "15": {
          "ctab": {
            "srcChannel": 15,
            "name": "Gt_Arp",
            "accType": "PHRASE2",
            "editable": false,
            "mutedNotes": [],
            "mutedChords": [],
            "autoStart": false,
            "sourceChordNote": 0,
            "sourceChordType": "Maj7",
            "ctb2Low": null,
            "ctb2Main": {
              "ntr": "ROOT_TRANSPOSITION",
              "ntt": "CHORD",
              "bassOn": false,
              "chordRootUpperLimit": 8,
              "noteLowLimit": 0,
              "noteHighLimit": 127,
              "rtr": "PITCH_SHIFT"
            },
            "ctb2High": null
          },
          "notes": [
            {
              "pitch": 60,
              "velocity": 74,
              "position": 0,
              "duration": 0.7395833333333334
            },
            {
              "pitch": 60,
              "velocity": 75,
              "position": 0.75,
              "duration": 0.4895833333333333
            },
            {
              "pitch": 55,
              "velocity": 64,
              "position": 0.5,
              "duration": 0.9895833333333334
            },
            {
              "pitch": 59,
              "velocity": 64,
              "position": 0.5,
              "duration": 0.9895833333333334
            },
            {
              "pitch": 64,
              "velocity": 59,
              "position": 0.75,
              "duration": 0.9583333333333334
            },
            {
              "pitch": 52,
              "velocity": 55,
              "position": 0.25,
              "duration": 1.7395833333333333
            },
            {
              "pitch": 55,
              "velocity": 54,
              "position": 1.5,
              "duration": 0.4895833333333333
            },
            {
              "pitch": 59,
              "velocity": 54,
              "position": 1.5,
              "duration": 0.4895833333333333
            },
            {
              "pitch": 60,
              "velocity": 67,
              "position": 1.25,
              "duration": 0.7395833333333334
            },
            {
              "pitch": 64,
              "velocity": 57,
              "position": 1.75,
              "duration": 0.23958333333333334
            },
            {
              "pitch": 60,
              "velocity": 83,
              "position": 2,
              "duration": 0.7354166666666667
            },
            {
              "pitch": 60,
              "velocity": 79,
              "position": 2.75,
              "duration": 0.48541666666666666
            },
            {
              "pitch": 55,
              "velocity": 68,
              "position": 2.5,
              "duration": 0.9854166666666667
            },
            {
              "pitch": 59,
              "velocity": 68,
              "position": 2.5,
              "duration": 0.9854166666666667
            },
            {
              "pitch": 64,
              "velocity": 59,
              "position": 2.75,
              "duration": 0.9583333333333334
            },
            {
              "pitch": 52,
              "velocity": 60,
              "position": 2.25,
              "duration": 1.7354166666666666
            },
            {
              "pitch": 55,
              "velocity": 69,
              "position": 3.5,
              "duration": 0.48541666666666666
            },
            {
              "pitch": 59,
              "velocity": 69,
              "position": 3.5,
              "duration": 0.48541666666666666
            },
            {
              "pitch": 60,
              "velocity": 67,
              "position": 3.25,
              "duration": 0.7354166666666667
            },
            {
              "pitch": 64,
              "velocity": 57,
              "position": 3.75,
              "duration": 0.23541666666666666
            },
            {
              "pitch": 60,
              "velocity": 76,
              "position": 4,
              "duration": 0.7354166666666667
            },
            {
              "pitch": 60,
              "velocity": 79,
              "position": 4.75,
              "duration": 0.48541666666666666
            },
            {
              "pitch": 55,
              "velocity": 67,
              "position": 4.5,
              "duration": 0.9854166666666667
            },
            {
              "pitch": 59,
              "velocity": 67,
              "position": 4.5,
              "duration": 0.9854166666666667
            },
            {
              "pitch": 64,
              "velocity": 59,
              "position": 4.75,
              "duration": 0.9583333333333334
            },
            {
              "pitch": 52,
              "velocity": 57,
              "position": 4.25,
              "duration": 1.7354166666666666
            },
            {
              "pitch": 55,
              "velocity": 52,
              "position": 5.5,
              "duration": 0.48541666666666666
            },
            {
              "pitch": 59,
              "velocity": 52,
              "position": 5.5,
              "duration": 0.48541666666666666
            },
            {
              "pitch": 60,
              "velocity": 69,
              "position": 5.25,
              "duration": 0.7354166666666667
            },
            {
              "pitch": 64,
              "velocity": 58,
              "position": 5.75,
              "duration": 0.23541666666666666
            },
            {
              "pitch": 60,
              "velocity": 84,
              "position": 6,
              "duration": 0.7354166666666667
            },
            {
              "pitch": 55,
              "velocity": 69,
              "position": 6.5,
              "duration": 0.48541666666666666
            },
            {
              "pitch": 59,
              "velocity": 69,
              "position": 6.5,
              "duration": 0.48541666666666666
            },
            {
              "pitch": 64,
              "velocity": 59,
              "position": 6.75,
              "duration": 0.4583333333333333
            },
            {
              "pitch": 60,
              "velocity": 80,
              "position": 6.75,
              "duration": 0.7354166666666667
            },
            {
              "pitch": 55,
              "velocity": 67,
              "position": 7,
              "duration": 0.7354166666666667
            },
            {
              "pitch": 59,
              "velocity": 67,
              "position": 7,
              "duration": 0.7354166666666667
            },
            {
              "pitch": 52,
              "velocity": 54,
              "position": 6.25,
              "duration": 1.7354166666666666
            },
            {
              "pitch": 55,
              "velocity": 60,
              "position": 7.75,
              "duration": 0.23541666666666666
            },
            {
              "pitch": 59,
              "velocity": 60,
              "position": 7.75,
              "duration": 0.23541666666666666
            },
            {
              "pitch": 60,
              "velocity": 63,
              "position": 7.5,
              "duration": 0.48541666666666666
            },
            {
              "pitch": 64,
              "velocity": 59,
              "position": 7.25,
              "duration": 0.7354166666666667
            },
            {
              "pitch": 60,
              "velocity": 75,
              "position": 8,
              "duration": 0.7354166666666667
            },
            {
              "pitch": 60,
              "velocity": 88,
              "position": 8.75,
              "duration": 0.48541666666666666
            },
            {
              "pitch": 55,
              "velocity": 65,
              "position": 8.5,
              "duration": 0.9854166666666667
            },
            {
              "pitch": 59,
              "velocity": 65,
              "position": 8.5,
              "duration": 0.9854166666666667
            },
            {
              "pitch": 64,
              "velocity": 59,
              "position": 8.75,
              "duration": 0.9583333333333334
            },
            {
              "pitch": 52,
              "velocity": 58,
              "position": 8.25,
              "duration": 1.7354166666666666
            },
            {
              "pitch": 55,
              "velocity": 56,
              "position": 9.5,
              "duration": 0.48541666666666666
            },
            {
              "pitch": 59,
              "velocity": 56,
              "position": 9.5,
              "duration": 0.48541666666666666
            },
            {
              "pitch": 60,
              "velocity": 70,
              "position": 9.25,
              "duration": 0.7354166666666667
            },
            {
              "pitch": 64,
              "velocity": 59,
              "position": 9.75,
              "duration": 0.23541666666666666
            },
            {
              "pitch": 60,
              "velocity": 82,
              "position": 10,
              "duration": 0.7354166666666667
            },
            {
              "pitch": 60,
              "velocity": 83,
              "position": 10.75,
              "duration": 0.48541666666666666
            },
            {
              "pitch": 55,
              "velocity": 63,
              "position": 10.5,
              "duration": 0.9854166666666667
            },
            {
              "pitch": 59,
              "velocity": 63,
              "position": 10.5,
              "duration": 0.9854166666666667
            },
            {
              "pitch": 64,
              "velocity": 59,
              "position": 10.75,
              "duration": 0.9583333333333334
            },
            {
              "pitch": 52,
              "velocity": 60,
              "position": 10.25,
              "duration": 1.7354166666666666
            },
            {
              "pitch": 55,
              "velocity": 67,
              "position": 11.5,
              "duration": 0.48541666666666666
            },
            {
              "pitch": 59,
              "velocity": 67,
              "position": 11.5,
              "duration": 0.48541666666666666
            },
            {
              "pitch": 60,
              "velocity": 69,
              "position": 11.25,
              "duration": 0.7354166666666667
            },
            {
              "pitch": 64,
              "velocity": 50,
              "position": 11.75,
              "duration": 0.23541666666666666
            },
            {
              "pitch": 60,
              "velocity": 73,
              "position": 12,
              "duration": 0.7354166666666667
            },
            {
              "pitch": 60,
              "velocity": 81,
              "position": 12.75,
              "duration": 0.48541666666666666
            },
            {
              "pitch": 55,
              "velocity": 69,
              "position": 12.5,
              "duration": 0.9854166666666667
            },
            {
              "pitch": 59,
              "velocity": 69,
              "position": 12.5,
              "duration": 0.9854166666666667
            },
            {
              "pitch": 64,
              "velocity": 56,
              "position": 12.75,
              "duration": 0.9583333333333334
            },
            {
              "pitch": 52,
              "velocity": 57,
              "position": 12.25,
              "duration": 1.7354166666666666
            },
            {
              "pitch": 55,
              "velocity": 52,
              "position": 13.5,
              "duration": 0.48541666666666666
            },
            {
              "pitch": 59,
              "velocity": 52,
              "position": 13.5,
              "duration": 0.48541666666666666
            },
            {
              "pitch": 60,
              "velocity": 63,
              "position": 13.25,
              "duration": 0.7354166666666667
            },
            {
              "pitch": 64,
              "velocity": 59,
              "position": 13.75,
              "duration": 0.23541666666666666
            },
            {
              "pitch": 60,
              "velocity": 80,
              "position": 14,
              "duration": 0.7354166666666667
            },
            {
              "pitch": 55,
              "velocity": 69,
              "position": 14.5,
              "duration": 0.48541666666666666
            },
            {
              "pitch": 59,
              "velocity": 69,
              "position": 14.5,
              "duration": 0.48541666666666666
            },
            {
              "pitch": 64,
              "velocity": 59,
              "position": 14.75,
              "duration": 0.4583333333333333
            },
            {
              "pitch": 60,
              "velocity": 75,
              "position": 14.75,
              "duration": 0.7354166666666667
            },
            {
              "pitch": 55,
              "velocity": 65,
              "position": 15,
              "duration": 0.7354166666666667
            },
            {
              "pitch": 59,
              "velocity": 65,
              "position": 15,
              "duration": 0.7354166666666667
            },
            {
              "pitch": 52,
              "velocity": 58,
              "position": 14.25,
              "duration": 1.7354166666666666
            },
            {
              "pitch": 55,
              "velocity": 63,
              "position": 15.75,
              "duration": 0.23541666666666666
            },
            {
              "pitch": 59,
              "velocity": 63,
              "position": 15.75,
              "duration": 0.23541666666666666
            },
            {
              "pitch": 60,
              "velocity": 69,
              "position": 15.5,
              "duration": 0.48541666666666666
            },
            {
              "pitch": 64,
              "velocity": 59,
              "position": 15.25,
              "duration": 0.7354166666666667
            },
            {
              "pitch": 60,
              "velocity": 76,
              "position": 16,
              "duration": 0.7354166666666667
            },
            {
              "pitch": 60,
              "velocity": 80,
              "position": 16.75,
              "duration": 0.48541666666666666
            },
            {
              "pitch": 55,
              "velocity": 64,
              "position": 16.5,
              "duration": 0.9854166666666667
            },
            {
              "pitch": 59,
              "velocity": 64,
              "position": 16.5,
              "duration": 0.9854166666666667
            },
            {
              "pitch": 64,
              "velocity": 59,
              "position": 16.75,
              "duration": 0.9583333333333334
            },
            {
              "pitch": 52,
              "velocity": 58,
              "position": 16.25,
              "duration": 1.7354166666666666
            },
            {
              "pitch": 55,
              "velocity": 50,
              "position": 17.5,
              "duration": 0.48541666666666666
            },
            {
              "pitch": 59,
              "velocity": 50,
              "position": 17.5,
              "duration": 0.48541666666666666
            },
            {
              "pitch": 60,
              "velocity": 64,
              "position": 17.25,
              "duration": 0.7354166666666667
            },
            {
              "pitch": 64,
              "velocity": 59,
              "position": 17.75,
              "duration": 0.23541666666666666
            },
            {
              "pitch": 60,
              "velocity": 83,
              "position": 18,
              "duration": 0.7354166666666667
            },
            {
              "pitch": 60,
              "velocity": 81,
              "position": 18.75,
              "duration": 0.48541666666666666
            },
            {
              "pitch": 55,
              "velocity": 70,
              "position": 18.5,
              "duration": 0.9854166666666667
            },
            {
              "pitch": 59,
              "velocity": 70,
              "position": 18.5,
              "duration": 0.9854166666666667
            },
            {
              "pitch": 64,
              "velocity": 59,
              "position": 18.75,
              "duration": 0.9583333333333334
            },
            {
              "pitch": 52,
              "velocity": 58,
              "position": 18.25,
              "duration": 1.7354166666666666
            },
            {
              "pitch": 55,
              "velocity": 63,
              "position": 19.5,
              "duration": 0.48541666666666666
            },
            {
              "pitch": 59,
              "velocity": 63,
              "position": 19.5,
              "duration": 0.48541666666666666
            },
            {
              "pitch": 60,
              "velocity": 64,
              "position": 19.25,
              "duration": 0.7354166666666667
            },
            {
              "pitch": 64,
              "velocity": 56,
              "position": 19.75,
              "duration": 0.23541666666666666
            },
            {
              "pitch": 60,
              "velocity": 70,
              "position": 20,
              "duration": 0.7395833333333334
            },
            {
              "pitch": 60,
              "velocity": 83,
              "position": 20.75,
              "duration": 0.4895833333333333
            },
            {
              "pitch": 55,
              "velocity": 63,
              "position": 20.5,
              "duration": 0.9895833333333334
            },
            {
              "pitch": 59,
              "velocity": 63,
              "position": 20.5,
              "duration": 0.9895833333333334
            },
            {
              "pitch": 64,
              "velocity": 59,
              "position": 20.75,
              "duration": 0.9583333333333334
            },
            {
              "pitch": 52,
              "velocity": 59,
              "position": 20.25,
              "duration": 1.7395833333333333
            },
            {
              "pitch": 55,
              "velocity": 52,
              "position": 21.5,
              "duration": 0.4895833333333333
            },
            {
              "pitch": 59,
              "velocity": 52,
              "position": 21.5,
              "duration": 0.4895833333333333
            },
            {
              "pitch": 60,
              "velocity": 65,
              "position": 21.25,
              "duration": 0.7395833333333334
            },
            {
              "pitch": 64,
              "velocity": 53,
              "position": 21.75,
              "duration": 0.23958333333333334
            },
            {
              "pitch": 60,
              "velocity": 76,
              "position": 22,
              "duration": 0.7395833333333334
            },
            {
              "pitch": 55,
              "velocity": 67,
              "position": 22.5,
              "duration": 0.4895833333333333
            },
            {
              "pitch": 59,
              "velocity": 67,
              "position": 22.5,
              "duration": 0.4895833333333333
            },
            {
              "pitch": 64,
              "velocity": 59,
              "position": 22.75,
              "duration": 0.4583333333333333
            },
            {
              "pitch": 60,
              "velocity": 76,
              "position": 22.75,
              "duration": 0.7395833333333334
            },
            {
              "pitch": 55,
              "velocity": 62,
              "position": 23,
              "duration": 0.7395833333333334
            },
            {
              "pitch": 59,
              "velocity": 62,
              "position": 23,
              "duration": 0.7395833333333334
            },
            {
              "pitch": 52,
              "velocity": 59,
              "position": 22.25,
              "duration": 1.7395833333333333
            },
            {
              "pitch": 55,
              "velocity": 62,
              "position": 23.75,
              "duration": 0.23958333333333334
            },
            {
              "pitch": 59,
              "velocity": 62,
              "position": 23.75,
              "duration": 0.23958333333333334
            },
            {
              "pitch": 60,
              "velocity": 65,
              "position": 23.5,
              "duration": 0.4895833333333333
            },
            {
              "pitch": 64,
              "velocity": 59,
              "position": 23.25,
              "duration": 0.7395833333333334
            },
            {
              "pitch": 60,
              "velocity": 75,
              "position": 24,
              "duration": 0.7395833333333334
            },
            {
              "pitch": 60,
              "velocity": 83,
              "position": 24.75,
              "duration": 0.4895833333333333
            },
            {
              "pitch": 55,
              "velocity": 70,
              "position": 24.5,
              "duration": 0.9895833333333334
            },
            {
              "pitch": 59,
              "velocity": 70,
              "position": 24.5,
              "duration": 0.9895833333333334
            },
            {
              "pitch": 64,
              "velocity": 59,
              "position": 24.75,
              "duration": 0.9583333333333334
            },
            {
              "pitch": 52,
              "velocity": 58,
              "position": 24.25,
              "duration": 1.7395833333333333
            },
            {
              "pitch": 55,
              "velocity": 54,
              "position": 25.5,
              "duration": 0.4895833333333333
            },
            {
              "pitch": 59,
              "velocity": 54,
              "position": 25.5,
              "duration": 0.4895833333333333
            },
            {
              "pitch": 60,
              "velocity": 65,
              "position": 25.25,
              "duration": 0.7395833333333334
            },
            {
              "pitch": 64,
              "velocity": 53,
              "position": 25.75,
              "duration": 0.23958333333333334
            },
            {
              "pitch": 60,
              "velocity": 76,
              "position": 26,
              "duration": 0.7395833333333334
            },
            {
              "pitch": 60,
              "velocity": 82,
              "position": 26.75,
              "duration": 0.4895833333333333
            },
            {
              "pitch": 55,
              "velocity": 70,
              "position": 26.5,
              "duration": 0.9895833333333334
            },
            {
              "pitch": 59,
              "velocity": 70,
              "position": 26.5,
              "duration": 0.9895833333333334
            },
            {
              "pitch": 64,
              "velocity": 59,
              "position": 26.75,
              "duration": 0.9583333333333334
            },
            {
              "pitch": 52,
              "velocity": 63,
              "position": 26.25,
              "duration": 1.7395833333333333
            },
            {
              "pitch": 55,
              "velocity": 63,
              "position": 27.5,
              "duration": 0.4895833333333333
            },
            {
              "pitch": 59,
              "velocity": 63,
              "position": 27.5,
              "duration": 0.4895833333333333
            },
            {
              "pitch": 60,
              "velocity": 70,
              "position": 27.25,
              "duration": 0.7395833333333334
            },
            {
              "pitch": 64,
              "velocity": 50,
              "position": 27.75,
              "duration": 0.23958333333333334
            },
            {
              "pitch": 52,
              "velocity": 62,
              "position": 28.25,
              "duration": 0.7395833333333334
            },
            {
              "pitch": 64,
              "velocity": 59,
              "position": 28.729166666666668,
              "duration": 0.4895833333333333
            },
            {
              "pitch": 55,
              "velocity": 69,
              "position": 28.5,
              "duration": 0.9895833333333334
            },
            {
              "pitch": 59,
              "velocity": 69,
              "position": 28.5,
              "duration": 0.9895833333333334
            },
            {
              "pitch": 64,
              "velocity": 71,
              "position": 29.25,
              "duration": 0.4895833333333333
            },
            {
              "pitch": 52,
              "velocity": 74,
              "position": 29,
              "duration": 0.9583333333333334
            },
            {
              "pitch": 55,
              "velocity": 53,
              "position": 29.5,
              "duration": 0.4895833333333333
            },
            {
              "pitch": 59,
              "velocity": 53,
              "position": 29.5,
              "duration": 0.4895833333333333
            },
            {
              "pitch": 60,
              "velocity": 70,
              "position": 28,
              "duration": 1.9895833333333333
            },
            {
              "pitch": 64,
              "velocity": 53,
              "position": 29.75,
              "duration": 0.23958333333333334
            },
            {
              "pitch": 60,
              "velocity": 82,
              "position": 30,
              "duration": 0.7395833333333334
            },
            {
              "pitch": 55,
              "velocity": 69,
              "position": 30.5,
              "duration": 0.4895833333333333
            },
            {
              "pitch": 59,
              "velocity": 69,
              "position": 30.5,
              "duration": 0.4895833333333333
            },
            {
              "pitch": 64,
              "velocity": 59,
              "position": 30.75,
              "duration": 0.4583333333333333
            },
            {
              "pitch": 60,
              "velocity": 83,
              "position": 30.75,
              "duration": 0.7395833333333334
            },
            {
              "pitch": 55,
              "velocity": 74,
              "position": 31,
              "duration": 0.7395833333333334
            },
            {
              "pitch": 59,
              "velocity": 74,
              "position": 31,
              "duration": 0.7395833333333334
            },
            {
              "pitch": 52,
              "velocity": 54,
              "position": 30.25,
              "duration": 1.7395833333333333
            },
            {
              "pitch": 55,
              "velocity": 59,
              "position": 31.75,
              "duration": 0.23958333333333334
            },
            {
              "pitch": 59,
              "velocity": 59,
              "position": 31.75,
              "duration": 0.23958333333333334
            },
            {
              "pitch": 60,
              "velocity": 69,
              "position": 31.5,
              "duration": 0.4895833333333333
            },
            {
              "pitch": 64,
              "velocity": 53,
              "position": 31.25,
              "duration": 0.7395833333333334
            }
          ]
        }
      }
    },
    "Main_C": {
      "type": "Main_C",
      "sizeInBeats": 32,
      "channels": {
        "8": {
          "ctab": {
            "srcChannel": 8,
            "name": "AddDrum",
            "accType": "SUBRHYTHM",
            "editable": false,
            "mutedNotes": [],
            "mutedChords": [],
            "autoStart": true,
            "sourceChordNote": 0,
            "sourceChordType": "Maj7",
            "ctb2Low": null,
            "ctb2Main": {
              "ntr": "ROOT_FIXED",
              "ntt": "BYPASS",
              "bassOn": false,
              "chordRootUpperLimit": 6,
              "noteLowLimit": 0,
              "noteHighLimit": 127,
              "rtr": "PITCH_SHIFT"
            },
            "ctb2High": null
          },
          "notes": [
            {
              "pitch": 54,
              "velocity": 51,
              "position": 0,
              "duration": 0.052083333333333336
            },
            {
              "pitch": 70,
              "velocity": 60,
              "position": 0,
              "duration": 0.07291666666666667
            },
            {
              "pitch": 62,
              "velocity": 64,
              "position": 0,
              "duration": 0.08333333333333333
            },
            {
              "pitch": 69,
              "velocity": 60,
              "position": 0.25,
              "duration": 0.07291666666666667
            },
            {
              "pitch": 63,
              "velocity": 91,
              "position": 0.25,
              "duration": 0.08333333333333333
            },
            {
              "pitch": 54,
              "velocity": 71,
              "position": 0.5,
              "duration": 0.052083333333333336
            },
            {
              "pitch": 70,
              "velocity": 98,
              "position": 0.5,
              "duration": 0.07291666666666667
            },
            {
              "pitch": 63,
              "velocity": 52,
              "position": 0.5,
              "duration": 0.08333333333333333
            },
            {
              "pitch": 54,
              "velocity": 59,
              "position": 0.75,
              "duration": 0.052083333333333336
            },
            {
              "pitch": 70,
              "velocity": 52,
              "position": 0.75,
              "duration": 0.07291666666666667
            },
            {
              "pitch": 64,
              "velocity": 43,
              "position": 0.75,
              "duration": 0.08333333333333333
            },
            {
              "pitch": 54,
              "velocity": 51,
              "position": 1,
              "duration": 0.052083333333333336
            },
            {
              "pitch": 70,
              "velocity": 60,
              "position": 1,
              "duration": 0.07291666666666667
            },
            {
              "pitch": 63,
              "velocity": 115,
              "position": 1,
              "duration": 0.08333333333333333
            },
            {
              "pitch": 54,
              "velocity": 71,
              "position": 1.5,
              "duration": 0.052083333333333336
            },
            {
              "pitch": 70,
              "velocity": 101,
              "position": 1.5,
              "duration": 0.07291666666666667
            },
            {
              "pitch": 62,
              "velocity": 42,
              "position": 1.5,
              "duration": 0.08333333333333333
            },
            {
              "pitch": 70,
              "velocity": 48,
              "position": 1.75,
              "duration": 0.07291666666666667
            },
            {
              "pitch": 62,
              "velocity": 114,
              "position": 1.75,
              "duration": 0.08333333333333333
            },
            {
              "pitch": 54,
              "velocity": 51,
              "position": 2,
              "duration": 0.052083333333333336
            },
            {
              "pitch": 70,
              "velocity": 60,
              "position": 2,
              "duration": 0.07291666666666667
            },
            {
              "pitch": 62,
              "velocity": 63,
              "position": 2,
              "duration": 0.08333333333333333
            },
            {
              "pitch": 69,
              "velocity": 60,
              "position": 2.25,
              "duration": 0.07291666666666667
            },
            {
              "pitch": 63,
              "velocity": 85,
              "position": 2.25,
              "duration": 0.08333333333333333
            },
            {
              "pitch": 54,
              "velocity": 71,
              "position": 2.5,
              "duration": 0.052083333333333336
            },
            {
              "pitch": 70,
              "velocity": 95,
              "position": 2.5,
              "duration": 0.07291666666666667
            },
            {
              "pitch": 63,
              "velocity": 47,
              "position": 2.5,
              "duration": 0.08333333333333333
            },
            {
              "pitch": 54,
              "velocity": 59,
              "position": 2.75,
              "duration": 0.052083333333333336
            },
            {
              "pitch": 70,
              "velocity": 54,
              "position": 2.75,
              "duration": 0.07291666666666667
            },
            {
              "pitch": 64,
              "velocity": 40,
              "position": 2.75,
              "duration": 0.08333333333333333
            },
            {
              "pitch": 54,
              "velocity": 51,
              "position": 3,
              "duration": 0.052083333333333336
            },
            {
              "pitch": 70,
              "velocity": 60,
              "position": 3,
              "duration": 0.07291666666666667
            },
            {
              "pitch": 64,
              "velocity": 71,
              "position": 3,
              "duration": 0.08333333333333333
            },
            {
              "pitch": 54,
              "velocity": 71,
              "position": 3.5,
              "duration": 0.052083333333333336
            },
            {
              "pitch": 70,
              "velocity": 107,
              "position": 3.5,
              "duration": 0.07291666666666667
            },
            {
              "pitch": 70,
              "velocity": 53,
              "position": 3.75,
              "duration": 0.07291666666666667
            },
            {
              "pitch": 62,
              "velocity": 108,
              "position": 3.75,
              "duration": 0.08333333333333333
            },
            {
              "pitch": 54,
              "velocity": 51,
              "position": 4,
              "duration": 0.052083333333333336
            },
            {
              "pitch": 70,
              "velocity": 60,
              "position": 4,
              "duration": 0.07291666666666667
            },
            {
              "pitch": 62,
              "velocity": 58,
              "position": 4,
              "duration": 0.08333333333333333
            },
            {
              "pitch": 69,
              "velocity": 60,
              "position": 4.25,
              "duration": 0.07291666666666667
            },
            {
              "pitch": 63,
              "velocity": 94,
              "position": 4.25,
              "duration": 0.08333333333333333
            },
            {
              "pitch": 54,
              "velocity": 71,
              "position": 4.5,
              "duration": 0.052083333333333336
            },
            {
              "pitch": 70,
              "velocity": 107,
              "position": 4.5,
              "duration": 0.07291666666666667
            },
            {
              "pitch": 63,
              "velocity": 56,
              "position": 4.5,
              "duration": 0.08333333333333333
            },
            {
              "pitch": 54,
              "velocity": 59,
              "position": 4.75,
              "duration": 0.052083333333333336
            },
            {
              "pitch": 70,
              "velocity": 50,
              "position": 4.75,
              "duration": 0.07291666666666667
            },
            {
              "pitch": 64,
              "velocity": 42,
              "position": 4.75,
              "duration": 0.08333333333333333
            },
            {
              "pitch": 54,
              "velocity": 51,
              "position": 5,
              "duration": 0.052083333333333336
            },
            {
              "pitch": 70,
              "velocity": 60,
              "position": 5,
              "duration": 0.07291666666666667
            },
            {
              "pitch": 63,
              "velocity": 126,
              "position": 5,
              "duration": 0.08333333333333333
            },
            {
              "pitch": 54,
              "velocity": 71,
              "position": 5.5,
              "duration": 0.052083333333333336
            },
            {
              "pitch": 70,
              "velocity": 95,
              "position": 5.5,
              "duration": 0.07291666666666667
            },
            {
              "pitch": 62,
              "velocity": 46,
              "position": 5.5,
              "duration": 0.08333333333333333
            },
            {
              "pitch": 70,
              "velocity": 41,
              "position": 5.75,
              "duration": 0.07291666666666667
            },
            {
              "pitch": 62,
              "velocity": 117,
              "position": 5.75,
              "duration": 0.08333333333333333
            },
            {
              "pitch": 54,
              "velocity": 51,
              "position": 6,
              "duration": 0.052083333333333336
            },
            {
              "pitch": 70,
              "velocity": 60,
              "position": 6,
              "duration": 0.07291666666666667
            },
            {
              "pitch": 62,
              "velocity": 67,
              "position": 6,
              "duration": 0.08333333333333333
            },
            {
              "pitch": 69,
              "velocity": 60,
              "position": 6.25,
              "duration": 0.07291666666666667
            },
            {
              "pitch": 63,
              "velocity": 91,
              "position": 6.25,
              "duration": 0.08333333333333333
            },
            {
              "pitch": 54,
              "velocity": 71,
              "position": 6.5,
              "duration": 0.052083333333333336
            },
            {
              "pitch": 70,
              "velocity": 98,
              "position": 6.5,
              "duration": 0.07291666666666667
            },
            {
              "pitch": 63,
              "velocity": 52,
              "position": 6.5,
              "duration": 0.08333333333333333
            },
            {
              "pitch": 54,
              "velocity": 59,
              "position": 6.75,
              "duration": 0.052083333333333336
            },
            {
              "pitch": 70,
              "velocity": 48,
              "position": 6.75,
              "duration": 0.07291666666666667
            },
            {
              "pitch": 64,
              "velocity": 45,
              "position": 6.75,
              "duration": 0.08333333333333333
            },
            {
              "pitch": 54,
              "velocity": 51,
              "position": 7,
              "duration": 0.052083333333333336
            },
            {
              "pitch": 70,
              "velocity": 60,
              "position": 7,
              "duration": 0.07291666666666667
            },
            {
              "pitch": 64,
              "velocity": 72,
              "position": 7,
              "duration": 0.08333333333333333
            },
            {
              "pitch": 54,
              "velocity": 71,
              "position": 7.5,
              "duration": 0.052083333333333336
            },
            {
              "pitch": 70,
              "velocity": 100,
              "position": 7.5,
              "duration": 0.07291666666666667
            },
            {
              "pitch": 70,
              "velocity": 50,
              "position": 7.75,
              "duration": 0.07291666666666667
            },
            {
              "pitch": 62,
              "velocity": 114,
              "position": 7.75,
              "duration": 0.08333333333333333
            },
            {
              "pitch": 54,
              "velocity": 51,
              "position": 8,
              "duration": 0.052083333333333336
            },
            {
              "pitch": 70,
              "velocity": 60,
              "position": 8,
              "duration": 0.07291666666666667
            },
            {
              "pitch": 62,
              "velocity": 63,
              "position": 8,
              "duration": 0.08333333333333333
            },
            {
              "pitch": 69,
              "velocity": 60,
              "position": 8.25,
              "duration": 0.07291666666666667
            },
            {
              "pitch": 63,
              "velocity": 85,
              "position": 8.25,
              "duration": 0.08333333333333333
            },
            {
              "pitch": 54,
              "velocity": 71,
              "position": 8.5,
              "duration": 0.052083333333333336
            },
            {
              "pitch": 70,
              "velocity": 103,
              "position": 8.5,
              "duration": 0.07291666666666667
            },
            {
              "pitch": 63,
              "velocity": 47,
              "position": 8.5,
              "duration": 0.08333333333333333
            },
            {
              "pitch": 54,
              "velocity": 59,
              "position": 8.75,
              "duration": 0.052083333333333336
            },
            {
              "pitch": 70,
              "velocity": 55,
              "position": 8.75,
              "duration": 0.07291666666666667
            },
            {
              "pitch": 64,
              "velocity": 42,
              "position": 8.75,
              "duration": 0.08333333333333333
            },
            {
              "pitch": 54,
              "velocity": 51,
              "position": 9,
              "duration": 0.052083333333333336
            },
            {
              "pitch": 70,
              "velocity": 60,
              "position": 9,
              "duration": 0.07291666666666667
            },
            {
              "pitch": 63,
              "velocity": 123,
              "position": 9,
              "duration": 0.08333333333333333
            },
            {
              "pitch": 54,
              "velocity": 71,
              "position": 9.5,
              "duration": 0.052083333333333336
            },
            {
              "pitch": 70,
              "velocity": 103,
              "position": 9.5,
              "duration": 0.07291666666666667
            },
            {
              "pitch": 62,
              "velocity": 37,
              "position": 9.5,
              "duration": 0.08333333333333333
            },
            {
              "pitch": 70,
              "velocity": 42,
              "position": 9.75,
              "duration": 0.07291666666666667
            },
            {
              "pitch": 62,
              "velocity": 108,
              "position": 9.75,
              "duration": 0.08333333333333333
            },
            {
              "pitch": 54,
              "velocity": 51,
              "position": 10,
              "duration": 0.052083333333333336
            },
            {
              "pitch": 70,
              "velocity": 60,
              "position": 10,
              "duration": 0.07291666666666667
            },
            {
              "pitch": 62,
              "velocity": 58,
              "position": 10,
              "duration": 0.08333333333333333
            },
            {
              "pitch": 69,
              "velocity": 60,
              "position": 10.25,
              "duration": 0.07291666666666667
            },
            {
              "pitch": 63,
              "velocity": 94,
              "position": 10.25,
              "duration": 0.08333333333333333
            },
            {
              "pitch": 54,
              "velocity": 71,
              "position": 10.5,
              "duration": 0.052083333333333336
            },
            {
              "pitch": 70,
              "velocity": 101,
              "position": 10.5,
              "duration": 0.07291666666666667
            },
            {
              "pitch": 63,
              "velocity": 56,
              "position": 10.5,
              "duration": 0.08333333333333333
            },
            {
              "pitch": 54,
              "velocity": 59,
              "position": 10.75,
              "duration": 0.052083333333333336
            },
            {
              "pitch": 70,
              "velocity": 48,
              "position": 10.75,
              "duration": 0.07291666666666667
            },
            {
              "pitch": 64,
              "velocity": 46,
              "position": 10.75,
              "duration": 0.08333333333333333
            },
            {
              "pitch": 54,
              "velocity": 51,
              "position": 11,
              "duration": 0.052083333333333336
            },
            {
              "pitch": 70,
              "velocity": 60,
              "position": 11,
              "duration": 0.07291666666666667
            },
            {
              "pitch": 64,
              "velocity": 69,
              "position": 11,
              "duration": 0.08333333333333333
            },
            {
              "pitch": 54,
              "velocity": 71,
              "position": 11.5,
              "duration": 0.052083333333333336
            },
            {
              "pitch": 70,
              "velocity": 95,
              "position": 11.5,
              "duration": 0.07291666666666667
            },
            {
              "pitch": 70,
              "velocity": 54,
              "position": 11.75,
              "duration": 0.07291666666666667
            },
            {
              "pitch": 62,
              "velocity": 117,
              "position": 11.75,
              "duration": 0.08333333333333333
            },
            {
              "pitch": 54,
              "velocity": 51,
              "position": 12,
              "duration": 0.052083333333333336
            },
            {
              "pitch": 70,
              "velocity": 60,
              "position": 12,
              "duration": 0.07291666666666667
            },
            {
              "pitch": 62,
              "velocity": 67,
              "position": 12,
              "duration": 0.08333333333333333
            },
            {
              "pitch": 69,
              "velocity": 60,
              "position": 12.25,
              "duration": 0.07291666666666667
            },
            {
              "pitch": 63,
              "velocity": 84,
              "position": 12.25,
              "duration": 0.08333333333333333
            },
            {
              "pitch": 54,
              "velocity": 71,
              "position": 12.5,
              "duration": 0.052083333333333336
            },
            {
              "pitch": 70,
              "velocity": 100,
              "position": 12.5,
              "duration": 0.07291666666666667
            },
            {
              "pitch": 63,
              "velocity": 46,
              "position": 12.5,
              "duration": 0.08333333333333333
            },
            {
              "pitch": 54,
              "velocity": 59,
              "position": 12.75,
              "duration": 0.052083333333333336
            },
            {
              "pitch": 70,
              "velocity": 51,
              "position": 12.75,
              "duration": 0.07291666666666667
            },
            {
              "pitch": 64,
              "velocity": 45,
              "position": 12.75,
              "duration": 0.08333333333333333
            },
            {
              "pitch": 54,
              "velocity": 51,
              "position": 13,
              "duration": 0.052083333333333336
            },
            {
              "pitch": 70,
              "velocity": 60,
              "position": 13,
              "duration": 0.07291666666666667
            },
            {
              "pitch": 63,
              "velocity": 126,
              "position": 13,
              "duration": 0.08333333333333333
            },
            {
              "pitch": 54,
              "velocity": 71,
              "position": 13.5,
              "duration": 0.052083333333333336
            },
            {
              "pitch": 70,
              "velocity": 99,
              "position": 13.5,
              "duration": 0.07291666666666667
            },
            {
              "pitch": 62,
              "velocity": 36,
              "position": 13.5,
              "duration": 0.08333333333333333
            },
            {
              "pitch": 70,
              "velocity": 49,
              "position": 13.75,
              "duration": 0.07291666666666667
            },
            {
              "pitch": 62,
              "velocity": 107,
              "position": 13.75,
              "duration": 0.08333333333333333
            },
            {
              "pitch": 54,
              "velocity": 51,
              "position": 14,
              "duration": 0.052083333333333336
            },
            {
              "pitch": 70,
              "velocity": 60,
              "position": 14,
              "duration": 0.07291666666666667
            },
            {
              "pitch": 62,
              "velocity": 57,
              "position": 14,
              "duration": 0.08333333333333333
            },
            {
              "pitch": 69,
              "velocity": 60,
              "position": 14.25,
              "duration": 0.07291666666666667
            },
            {
              "pitch": 63,
              "velocity": 86,
              "position": 14.25,
              "duration": 0.08333333333333333
            },
            {
              "pitch": 54,
              "velocity": 71,
              "position": 14.5,
              "duration": 0.052083333333333336
            },
            {
              "pitch": 70,
              "velocity": 106,
              "position": 14.5,
              "duration": 0.07291666666666667
            },
            {
              "pitch": 63,
              "velocity": 48,
              "position": 14.5,
              "duration": 0.08333333333333333
            },
            {
              "pitch": 54,
              "velocity": 59,
              "position": 14.75,
              "duration": 0.052083333333333336
            },
            {
              "pitch": 70,
              "velocity": 41,
              "position": 14.75,
              "duration": 0.07291666666666667
            },
            {
              "pitch": 64,
              "velocity": 45,
              "position": 14.75,
              "duration": 0.08333333333333333
            },
            {
              "pitch": 54,
              "velocity": 51,
              "position": 15,
              "duration": 0.052083333333333336
            },
            {
              "pitch": 70,
              "velocity": 60,
              "position": 15,
              "duration": 0.07291666666666667
            },
            {
              "pitch": 64,
              "velocity": 71,
              "position": 15,
              "duration": 0.08333333333333333
            },
            {
              "pitch": 54,
              "velocity": 71,
              "position": 15.5,
              "duration": 0.052083333333333336
            },
            {
              "pitch": 70,
              "velocity": 106,
              "position": 15.5,
              "duration": 0.07291666666666667
            },
            {
              "pitch": 70,
              "velocity": 49,
              "position": 15.75,
              "duration": 0.07291666666666667
            },
            {
              "pitch": 62,
              "velocity": 110,
              "position": 15.75,
              "duration": 0.08333333333333333
            },
            {
              "pitch": 54,
              "velocity": 51,
              "position": 16,
              "duration": 0.052083333333333336
            },
            {
              "pitch": 70,
              "velocity": 60,
              "position": 16,
              "duration": 0.07291666666666667
            },
            {
              "pitch": 62,
              "velocity": 59,
              "position": 16,
              "duration": 0.08333333333333333
            },
            {
              "pitch": 69,
              "velocity": 60,
              "position": 16.25,
              "duration": 0.06875
            },
            {
              "pitch": 63,
              "velocity": 95,
              "position": 16.25,
              "duration": 0.08333333333333333
            },
            {
              "pitch": 54,
              "velocity": 71,
              "position": 16.5,
              "duration": 0.052083333333333336
            },
            {
              "pitch": 70,
              "velocity": 97,
              "position": 16.5,
              "duration": 0.06875
            },
            {
              "pitch": 63,
              "velocity": 57,
              "position": 16.5,
              "duration": 0.08333333333333333
            },
            {
              "pitch": 54,
              "velocity": 59,
              "position": 16.75,
              "duration": 0.052083333333333336
            },
            {
              "pitch": 70,
              "velocity": 54,
              "position": 16.75,
              "duration": 0.06875
            },
            {
              "pitch": 64,
              "velocity": 46,
              "position": 16.75,
              "duration": 0.08333333333333333
            },
            {
              "pitch": 54,
              "velocity": 51,
              "position": 17,
              "duration": 0.052083333333333336
            },
            {
              "pitch": 70,
              "velocity": 60,
              "position": 17,
              "duration": 0.06875
            },
            {
              "pitch": 63,
              "velocity": 125,
              "position": 17,
              "duration": 0.08333333333333333
            },
            {
              "pitch": 54,
              "velocity": 71,
              "position": 17.5,
              "duration": 0.052083333333333336
            },
            {
              "pitch": 70,
              "velocity": 94,
              "position": 17.5,
              "duration": 0.06875
            },
            {
              "pitch": 62,
              "velocity": 47,
              "position": 17.5,
              "duration": 0.08333333333333333
            },
            {
              "pitch": 70,
              "velocity": 48,
              "position": 17.75,
              "duration": 0.06875
            },
            {
              "pitch": 62,
              "velocity": 118,
              "position": 17.75,
              "duration": 0.08333333333333333
            },
            {
              "pitch": 54,
              "velocity": 51,
              "position": 18,
              "duration": 0.052083333333333336
            },
            {
              "pitch": 70,
              "velocity": 60,
              "position": 18,
              "duration": 0.06875
            },
            {
              "pitch": 62,
              "velocity": 68,
              "position": 18,
              "duration": 0.08333333333333333
            },
            {
              "pitch": 69,
              "velocity": 60,
              "position": 18.25,
              "duration": 0.06875
            },
            {
              "pitch": 63,
              "velocity": 90,
              "position": 18.25,
              "duration": 0.08333333333333333
            },
            {
              "pitch": 54,
              "velocity": 71,
              "position": 18.5,
              "duration": 0.052083333333333336
            },
            {
              "pitch": 70,
              "velocity": 97,
              "position": 18.5,
              "duration": 0.06875
            },
            {
              "pitch": 63,
              "velocity": 51,
              "position": 18.5,
              "duration": 0.08333333333333333
            },
            {
              "pitch": 54,
              "velocity": 59,
              "position": 18.75,
              "duration": 0.052083333333333336
            },
            {
              "pitch": 70,
              "velocity": 54,
              "position": 18.75,
              "duration": 0.06875
            },
            {
              "pitch": 64,
              "velocity": 38,
              "position": 18.75,
              "duration": 0.08333333333333333
            },
            {
              "pitch": 54,
              "velocity": 51,
              "position": 19,
              "duration": 0.052083333333333336
            },
            {
              "pitch": 70,
              "velocity": 60,
              "position": 19,
              "duration": 0.06875
            },
            {
              "pitch": 64,
              "velocity": 70,
              "position": 19,
              "duration": 0.08333333333333333
            },
            {
              "pitch": 54,
              "velocity": 71,
              "position": 19.5,
              "duration": 0.052083333333333336
            },
            {
              "pitch": 70,
              "velocity": 102,
              "position": 19.5,
              "duration": 0.06875
            },
            {
              "pitch": 70,
              "velocity": 52,
              "position": 19.75,
              "duration": 0.06875
            },
            {
              "pitch": 62,
              "velocity": 113,
              "position": 19.75,
              "duration": 0.08333333333333333
            },
            {
              "pitch": 54,
              "velocity": 51,
              "position": 20.016666666666666,
              "duration": 0.052083333333333336
            },
            {
              "pitch": 70,
              "velocity": 60,
              "position": 20,
              "duration": 0.06875
            },
            {
              "pitch": 62,
              "velocity": 62,
              "position": 20,
              "duration": 0.08333333333333333
            },
            {
              "pitch": 69,
              "velocity": 60,
              "position": 20.25,
              "duration": 0.06875
            },
            {
              "pitch": 63,
              "velocity": 88,
              "position": 20.25,
              "duration": 0.08333333333333333
            },
            {
              "pitch": 54,
              "velocity": 71,
              "position": 20.5,
              "duration": 0.052083333333333336
            },
            {
              "pitch": 70,
              "velocity": 96,
              "position": 20.5,
              "duration": 0.06875
            },
            {
              "pitch": 63,
              "velocity": 49,
              "position": 20.5,
              "duration": 0.08333333333333333
            },
            {
              "pitch": 54,
              "velocity": 59,
              "position": 20.75,
              "duration": 0.052083333333333336
            },
            {
              "pitch": 70,
              "velocity": 48,
              "position": 20.75,
              "duration": 0.06875
            },
            {
              "pitch": 64,
              "velocity": 45,
              "position": 20.75,
              "duration": 0.08333333333333333
            },
            {
              "pitch": 54,
              "velocity": 51,
              "position": 21,
              "duration": 0.052083333333333336
            },
            {
              "pitch": 70,
              "velocity": 60,
              "position": 21,
              "duration": 0.06875
            },
            {
              "pitch": 63,
              "velocity": 124,
              "position": 21,
              "duration": 0.08333333333333333
            },
            {
              "pitch": 54,
              "velocity": 71,
              "position": 21.5,
              "duration": 0.052083333333333336
            },
            {
              "pitch": 70,
              "velocity": 106,
              "position": 21.5,
              "duration": 0.06875
            },
            {
              "pitch": 62,
              "velocity": 39,
              "position": 21.5,
              "duration": 0.08333333333333333
            },
            {
              "pitch": 70,
              "velocity": 53,
              "position": 21.75,
              "duration": 0.06875
            },
            {
              "pitch": 62,
              "velocity": 111,
              "position": 21.75,
              "duration": 0.08333333333333333
            },
            {
              "pitch": 54,
              "velocity": 51,
              "position": 22,
              "duration": 0.052083333333333336
            },
            {
              "pitch": 70,
              "velocity": 60,
              "position": 22,
              "duration": 0.06875
            },
            {
              "pitch": 62,
              "velocity": 60,
              "position": 22,
              "duration": 0.08333333333333333
            },
            {
              "pitch": 69,
              "velocity": 60,
              "position": 22.25,
              "duration": 0.06875
            },
            {
              "pitch": 63,
              "velocity": 90,
              "position": 22.25,
              "duration": 0.08333333333333333
            },
            {
              "pitch": 54,
              "velocity": 71,
              "position": 22.5,
              "duration": 0.052083333333333336
            },
            {
              "pitch": 70,
              "velocity": 102,
              "position": 22.5,
              "duration": 0.06875
            },
            {
              "pitch": 63,
              "velocity": 51,
              "position": 22.5,
              "duration": 0.08333333333333333
            },
            {
              "pitch": 54,
              "velocity": 59,
              "position": 22.75,
              "duration": 0.052083333333333336
            },
            {
              "pitch": 70,
              "velocity": 45,
              "position": 22.75,
              "duration": 0.06875
            },
            {
              "pitch": 64,
              "velocity": 43,
              "position": 22.75,
              "duration": 0.08333333333333333
            },
            {
              "pitch": 54,
              "velocity": 51,
              "position": 23,
              "duration": 0.052083333333333336
            },
            {
              "pitch": 70,
              "velocity": 60,
              "position": 23,
              "duration": 0.06875
            },
            {
              "pitch": 64,
              "velocity": 68,
              "position": 23,
              "duration": 0.08333333333333333
            },
            {
              "pitch": 54,
              "velocity": 71,
              "position": 23.5,
              "duration": 0.052083333333333336
            },
            {
              "pitch": 70,
              "velocity": 100,
              "position": 23.5,
              "duration": 0.06875
            },
            {
              "pitch": 70,
              "velocity": 46,
              "position": 23.75,
              "duration": 0.06875
            },
            {
              "pitch": 62,
              "velocity": 113,
              "position": 23.75,
              "duration": 0.08333333333333333
            },
            {
              "pitch": 54,
              "velocity": 51,
              "position": 24.016666666666666,
              "duration": 0.052083333333333336
            },
            {
              "pitch": 70,
              "velocity": 60,
              "position": 24,
              "duration": 0.06875
            },
            {
              "pitch": 62,
              "velocity": 62,
              "position": 24,
              "duration": 0.08333333333333333
            },
            {
              "pitch": 69,
              "velocity": 60,
              "position": 24.25,
              "duration": 0.06875
            },
            {
              "pitch": 63,
              "velocity": 96,
              "position": 24.25,
              "duration": 0.08333333333333333
            },
            {
              "pitch": 54,
              "velocity": 71,
              "position": 24.5,
              "duration": 0.052083333333333336
            },
            {
              "pitch": 70,
              "velocity": 95,
              "position": 24.5,
              "duration": 0.06875
            },
            {
              "pitch": 63,
              "velocity": 58,
              "position": 24.5,
              "duration": 0.08333333333333333
            },
            {
              "pitch": 54,
              "velocity": 59,
              "position": 24.75,
              "duration": 0.052083333333333336
            },
            {
              "pitch": 70,
              "velocity": 49,
              "position": 24.75,
              "duration": 0.06875
            },
            {
              "pitch": 64,
              "velocity": 43,
              "position": 24.75,
              "duration": 0.08333333333333333
            },
            {
              "pitch": 54,
              "velocity": 51,
              "position": 25,
              "duration": 0.052083333333333336
            },
            {
              "pitch": 70,
              "velocity": 60,
              "position": 25,
              "duration": 0.06875
            },
            {
              "pitch": 63,
              "velocity": 127,
              "position": 25,
              "duration": 0.08333333333333333
            },
            {
              "pitch": 54,
              "velocity": 71,
              "position": 25.5,
              "duration": 0.052083333333333336
            },
            {
              "pitch": 70,
              "velocity": 104,
              "position": 25.5,
              "duration": 0.06875
            },
            {
              "pitch": 62,
              "velocity": 48,
              "position": 25.5,
              "duration": 0.08333333333333333
            },
            {
              "pitch": 70,
              "velocity": 50,
              "position": 25.75,
              "duration": 0.06875
            },
            {
              "pitch": 62,
              "velocity": 119,
              "position": 25.75,
              "duration": 0.08333333333333333
            },
            {
              "pitch": 54,
              "velocity": 51,
              "position": 26,
              "duration": 0.052083333333333336
            },
            {
              "pitch": 70,
              "velocity": 60,
              "position": 26,
              "duration": 0.06875
            },
            {
              "pitch": 62,
              "velocity": 69,
              "position": 26,
              "duration": 0.08333333333333333
            },
            {
              "pitch": 69,
              "velocity": 60,
              "position": 26.25,
              "duration": 0.06875
            },
            {
              "pitch": 63,
              "velocity": 93,
              "position": 26.25,
              "duration": 0.08333333333333333
            },
            {
              "pitch": 54,
              "velocity": 71,
              "position": 26.5,
              "duration": 0.052083333333333336
            },
            {
              "pitch": 70,
              "velocity": 95,
              "position": 26.5,
              "duration": 0.06875
            },
            {
              "pitch": 63,
              "velocity": 55,
              "position": 26.5,
              "duration": 0.08333333333333333
            },
            {
              "pitch": 54,
              "velocity": 59,
              "position": 26.75,
              "duration": 0.052083333333333336
            },
            {
              "pitch": 70,
              "velocity": 42,
              "position": 26.75,
              "duration": 0.06875
            },
            {
              "pitch": 64,
              "velocity": 38,
              "position": 26.75,
              "duration": 0.08333333333333333
            },
            {
              "pitch": 54,
              "velocity": 51,
              "position": 27,
              "duration": 0.052083333333333336
            },
            {
              "pitch": 70,
              "velocity": 60,
              "position": 27,
              "duration": 0.06875
            },
            {
              "pitch": 64,
              "velocity": 68,
              "position": 27,
              "duration": 0.08333333333333333
            },
            {
              "pitch": 54,
              "velocity": 71,
              "position": 27.5,
              "duration": 0.052083333333333336
            },
            {
              "pitch": 70,
              "velocity": 98,
              "position": 27.5,
              "duration": 0.06875
            },
            {
              "pitch": 70,
              "velocity": 46,
              "position": 27.75,
              "duration": 0.06875
            },
            {
              "pitch": 62,
              "velocity": 116,
              "position": 27.75,
              "duration": 0.08333333333333333
            },
            {
              "pitch": 54,
              "velocity": 51,
              "position": 28.016666666666666,
              "duration": 0.052083333333333336
            },
            {
              "pitch": 70,
              "velocity": 60,
              "position": 28,
              "duration": 0.06875
            },
            {
              "pitch": 62,
              "velocity": 66,
              "position": 28,
              "duration": 0.08333333333333333
            },
            {
              "pitch": 69,
              "velocity": 60,
              "position": 28.25,
              "duration": 0.06875
            },
            {
              "pitch": 63,
              "velocity": 93,
              "position": 28.25,
              "duration": 0.08333333333333333
            },
            {
              "pitch": 54,
              "velocity": 71,
              "position": 28.5,
              "duration": 0.052083333333333336
            },
            {
              "pitch": 70,
              "velocity": 96,
              "position": 28.5,
              "duration": 0.06875
            },
            {
              "pitch": 63,
              "velocity": 55,
              "position": 28.5,
              "duration": 0.08333333333333333
            },
            {
              "pitch": 54,
              "velocity": 59,
              "position": 28.75,
              "duration": 0.052083333333333336
            },
            {
              "pitch": 70,
              "velocity": 42,
              "position": 28.75,
              "duration": 0.06875
            },
            {
              "pitch": 64,
              "velocity": 44,
              "position": 28.75,
              "duration": 0.08333333333333333
            },
            {
              "pitch": 54,
              "velocity": 51,
              "position": 29,
              "duration": 0.052083333333333336
            },
            {
              "pitch": 70,
              "velocity": 60,
              "position": 29,
              "duration": 0.06875
            },
            {
              "pitch": 63,
              "velocity": 127,
              "position": 29,
              "duration": 0.08333333333333333
            },
            {
              "pitch": 54,
              "velocity": 71,
              "position": 29.5,
              "duration": 0.052083333333333336
            },
            {
              "pitch": 70,
              "velocity": 102,
              "position": 29.5,
              "duration": 0.06875
            },
            {
              "pitch": 62,
              "velocity": 45,
              "position": 29.5,
              "duration": 0.08333333333333333
            },
            {
              "pitch": 70,
              "velocity": 54,
              "position": 29.75,
              "duration": 0.06875
            },
            {
              "pitch": 62,
              "velocity": 116,
              "position": 29.75,
              "duration": 0.08333333333333333
            },
            {
              "pitch": 54,
              "velocity": 51,
              "position": 30,
              "duration": 0.052083333333333336
            },
            {
              "pitch": 70,
              "velocity": 60,
              "position": 30,
              "duration": 0.06875
            },
            {
              "pitch": 62,
              "velocity": 66,
              "position": 30,
              "duration": 0.08333333333333333
            },
            {
              "pitch": 69,
              "velocity": 60,
              "position": 30.25,
              "duration": 0.06875
            },
            {
              "pitch": 63,
              "velocity": 92,
              "position": 30.25,
              "duration": 0.08333333333333333
            },
            {
              "pitch": 54,
              "velocity": 71,
              "position": 30.5,
              "duration": 0.052083333333333336
            },
            {
              "pitch": 70,
              "velocity": 103,
              "position": 30.5,
              "duration": 0.06875
            },
            {
              "pitch": 63,
              "velocity": 53,
              "position": 30.5,
              "duration": 0.08333333333333333
            },
            {
              "pitch": 54,
              "velocity": 59,
              "position": 30.75,
              "duration": 0.052083333333333336
            },
            {
              "pitch": 70,
              "velocity": 45,
              "position": 30.75,
              "duration": 0.06875
            },
            {
              "pitch": 64,
              "velocity": 45,
              "position": 30.75,
              "duration": 0.08333333333333333
            },
            {
              "pitch": 54,
              "velocity": 51,
              "position": 31,
              "duration": 0.052083333333333336
            },
            {
              "pitch": 70,
              "velocity": 60,
              "position": 31,
              "duration": 0.06875
            },
            {
              "pitch": 64,
              "velocity": 70,
              "position": 31,
              "duration": 0.08333333333333333
            },
            {
              "pitch": 54,
              "velocity": 71,
              "position": 31.5,
              "duration": 0.052083333333333336
            },
            {
              "pitch": 70,
              "velocity": 97,
              "position": 31.5,
              "duration": 0.06875
            },
            {
              "pitch": 70,
              "velocity": 52,
              "position": 31.75,
              "duration": 0.06875
            },
            {
              "pitch": 62,
              "velocity": 115,
              "position": 31.75,
              "duration": 0.08333333333333333
            }
          ]
        },
        "9": {
          "ctab": {
            "srcChannel": 9,
            "name": "MainDrum",
            "accType": "RHYTHM",
            "editable": false,
            "mutedNotes": [],
            "mutedChords": [],
            "autoStart": true,
            "sourceChordNote": 0,
            "sourceChordType": "Maj7",
            "ctb2Low": null,
            "ctb2Main": {
              "ntr": "ROOT_FIXED",
              "ntt": "BYPASS",
              "bassOn": false,
              "chordRootUpperLimit": 6,
              "noteLowLimit": 0,
              "noteHighLimit": 127,
              "rtr": "PITCH_SHIFT"
            },
            "ctb2High": null
          },
          "notes": [
            {
              "pitch": 36,
              "velocity": 82,
              "position": 0,
              "duration": 0.052083333333333336
            },
            {
              "pitch": 42,
              "velocity": 85,
              "position": 0,
              "duration": 0.052083333333333336
            },
            {
              "pitch": 42,
              "velocity": 29,
              "position": 0.2604166666666667,
              "duration": 0.052083333333333336
            },
            {
              "pitch": 46,
              "velocity": 72,
              "position": 0.5,
              "duration": 0.052083333333333336
            },
            {
              "pitch": 36,
              "velocity": 52,
              "position": 0.7604166666666666,
              "duration": 0.052083333333333336
            },
            {
              "pitch": 42,
              "velocity": 60,
              "position": 0.7604166666666666,
              "duration": 0.052083333333333336
            },
            {
              "pitch": 36,
              "velocity": 82,
              "position": 1,
              "duration": 0.052083333333333336
            },
            {
              "pitch": 40,
              "velocity": 95,
              "position": 1,
              "duration": 0.052083333333333336
            },
            {
              "pitch": 42,
              "velocity": 34,
              "position": 1.2604166666666667,
              "duration": 0.052083333333333336
            },
            {
              "pitch": 46,
              "velocity": 72,
              "position": 1.5,
              "duration": 0.052083333333333336
            },
            {
              "pitch": 42,
              "velocity": 50,
              "position": 1.7604166666666667,
              "duration": 0.052083333333333336
            },
            {
              "pitch": 36,
              "velocity": 82,
              "position": 2,
              "duration": 0.052083333333333336
            },
            {
              "pitch": 42,
              "velocity": 76,
              "position": 2,
              "duration": 0.052083333333333336
            },
            {
              "pitch": 42,
              "velocity": 31,
              "position": 2.2604166666666665,
              "duration": 0.052083333333333336
            },
            {
              "pitch": 46,
              "velocity": 72,
              "position": 2.5,
              "duration": 0.052083333333333336
            },
            {
              "pitch": 42,
              "velocity": 56,
              "position": 2.7604166666666665,
              "duration": 0.052083333333333336
            },
            {
              "pitch": 36,
              "velocity": 82,
              "position": 3,
              "duration": 0.052083333333333336
            },
            {
              "pitch": 40,
              "velocity": 95,
              "position": 3,
              "duration": 0.052083333333333336
            },
            {
              "pitch": 42,
              "velocity": 38,
              "position": 3.2604166666666665,
              "duration": 0.052083333333333336
            },
            {
              "pitch": 46,
              "velocity": 72,
              "position": 3.5,
              "duration": 0.052083333333333336
            },
            {
              "pitch": 42,
              "velocity": 44,
              "position": 3.7604166666666665,
              "duration": 0.052083333333333336
            },
            {
              "pitch": 36,
              "velocity": 82,
              "position": 4,
              "duration": 0.052083333333333336
            },
            {
              "pitch": 42,
              "velocity": 74,
              "position": 4,
              "duration": 0.052083333333333336
            },
            {
              "pitch": 42,
              "velocity": 33,
              "position": 4.260416666666667,
              "duration": 0.052083333333333336
            },
            {
              "pitch": 46,
              "velocity": 72,
              "position": 4.5,
              "duration": 0.052083333333333336
            },
            {
              "pitch": 36,
              "velocity": 52,
              "position": 4.760416666666667,
              "duration": 0.052083333333333336
            },
            {
              "pitch": 42,
              "velocity": 60,
              "position": 4.760416666666667,
              "duration": 0.052083333333333336
            },
            {
              "pitch": 36,
              "velocity": 82,
              "position": 5,
              "duration": 0.052083333333333336
            },
            {
              "pitch": 40,
              "velocity": 95,
              "position": 5,
              "duration": 0.052083333333333336
            },
            {
              "pitch": 42,
              "velocity": 34,
              "position": 5.260416666666667,
              "duration": 0.052083333333333336
            },
            {
              "pitch": 46,
              "velocity": 72,
              "position": 5.5,
              "duration": 0.052083333333333336
            },
            {
              "pitch": 42,
              "velocity": 46,
              "position": 5.760416666666667,
              "duration": 0.052083333333333336
            },
            {
              "pitch": 36,
              "velocity": 82,
              "position": 6,
              "duration": 0.052083333333333336
            },
            {
              "pitch": 42,
              "velocity": 79,
              "position": 6,
              "duration": 0.052083333333333336
            },
            {
              "pitch": 42,
              "velocity": 37,
              "position": 6.260416666666667,
              "duration": 0.052083333333333336
            },
            {
              "pitch": 46,
              "velocity": 72,
              "position": 6.5,
              "duration": 0.052083333333333336
            },
            {
              "pitch": 42,
              "velocity": 57,
              "position": 6.760416666666667,
              "duration": 0.052083333333333336
            },
            {
              "pitch": 36,
              "velocity": 82,
              "position": 7,
              "duration": 0.052083333333333336
            },
            {
              "pitch": 40,
              "velocity": 95,
              "position": 7,
              "duration": 0.052083333333333336
            },
            {
              "pitch": 42,
              "velocity": 34,
              "position": 7.260416666666667,
              "duration": 0.052083333333333336
            },
            {
              "pitch": 46,
              "velocity": 72,
              "position": 7.5,
              "duration": 0.052083333333333336
            },
            {
              "pitch": 42,
              "velocity": 48,
              "position": 7.760416666666667,
              "duration": 0.052083333333333336
            },
            {
              "pitch": 36,
              "velocity": 82,
              "position": 8,
              "duration": 0.052083333333333336
            },
            {
              "pitch": 42,
              "velocity": 76,
              "position": 8,
              "duration": 0.052083333333333336
            },
            {
              "pitch": 42,
              "velocity": 39,
              "position": 8.260416666666666,
              "duration": 0.052083333333333336
            },
            {
              "pitch": 46,
              "velocity": 72,
              "position": 8.5,
              "duration": 0.052083333333333336
            },
            {
              "pitch": 36,
              "velocity": 52,
              "position": 8.760416666666666,
              "duration": 0.052083333333333336
            },
            {
              "pitch": 42,
              "velocity": 62,
              "position": 8.760416666666666,
              "duration": 0.052083333333333336
            },
            {
              "pitch": 36,
              "velocity": 82,
              "position": 9,
              "duration": 0.052083333333333336
            },
            {
              "pitch": 40,
              "velocity": 95,
              "position": 9,
              "duration": 0.052083333333333336
            },
            {
              "pitch": 42,
              "velocity": 33,
              "position": 9.260416666666666,
              "duration": 0.052083333333333336
            },
            {
              "pitch": 46,
              "velocity": 72,
              "position": 9.5,
              "duration": 0.052083333333333336
            },
            {
              "pitch": 42,
              "velocity": 50,
              "position": 9.760416666666666,
              "duration": 0.052083333333333336
            },
            {
              "pitch": 36,
              "velocity": 82,
              "position": 10,
              "duration": 0.052083333333333336
            },
            {
              "pitch": 42,
              "velocity": 84,
              "position": 10,
              "duration": 0.052083333333333336
            },
            {
              "pitch": 42,
              "velocity": 30,
              "position": 10.260416666666666,
              "duration": 0.052083333333333336
            },
            {
              "pitch": 46,
              "velocity": 72,
              "position": 10.5,
              "duration": 0.052083333333333336
            },
            {
              "pitch": 42,
              "velocity": 67,
              "position": 10.760416666666666,
              "duration": 0.052083333333333336
            },
            {
              "pitch": 36,
              "velocity": 82,
              "position": 11,
              "duration": 0.052083333333333336
            },
            {
              "pitch": 40,
              "velocity": 95,
              "position": 11,
              "duration": 0.052083333333333336
            },
            {
              "pitch": 42,
              "velocity": 44,
              "position": 11.260416666666666,
              "duration": 0.052083333333333336
            },
            {
              "pitch": 46,
              "velocity": 72,
              "position": 11.5,
              "duration": 0.052083333333333336
            },
            {
              "pitch": 42,
              "velocity": 51,
              "position": 11.760416666666666,
              "duration": 0.052083333333333336
            },
            {
              "pitch": 36,
              "velocity": 82,
              "position": 12,
              "duration": 0.052083333333333336
            },
            {
              "pitch": 42,
              "velocity": 74,
              "position": 12,
              "duration": 0.052083333333333336
            },
            {
              "pitch": 42,
              "velocity": 29,
              "position": 12.260416666666666,
              "duration": 0.052083333333333336
            },
            {
              "pitch": 46,
              "velocity": 72,
              "position": 12.5,
              "duration": 0.052083333333333336
            },
            {
              "pitch": 36,
              "velocity": 52,
              "position": 12.760416666666666,
              "duration": 0.052083333333333336
            },
            {
              "pitch": 42,
              "velocity": 61,
              "position": 12.760416666666666,
              "duration": 0.052083333333333336
            },
            {
              "pitch": 36,
              "velocity": 82,
              "position": 13,
              "duration": 0.052083333333333336
            },
            {
              "pitch": 40,
              "velocity": 95,
              "position": 13,
              "duration": 0.052083333333333336
            },
            {
              "pitch": 42,
              "velocity": 30,
              "position": 13.260416666666666,
              "duration": 0.052083333333333336
            },
            {
              "pitch": 46,
              "velocity": 72,
              "position": 13.5,
              "duration": 0.052083333333333336
            },
            {
              "pitch": 42,
              "velocity": 46,
              "position": 13.760416666666666,
              "duration": 0.052083333333333336
            },
            {
              "pitch": 36,
              "velocity": 82,
              "position": 14,
              "duration": 0.052083333333333336
            },
            {
              "pitch": 42,
              "velocity": 83,
              "position": 14,
              "duration": 0.052083333333333336
            },
            {
              "pitch": 42,
              "velocity": 23,
              "position": 14.260416666666666,
              "duration": 0.052083333333333336
            },
            {
              "pitch": 46,
              "velocity": 72,
              "position": 14.5,
              "duration": 0.052083333333333336
            },
            {
              "pitch": 42,
              "velocity": 57,
              "position": 14.760416666666666,
              "duration": 0.052083333333333336
            },
            {
              "pitch": 36,
              "velocity": 82,
              "position": 15,
              "duration": 0.052083333333333336
            },
            {
              "pitch": 40,
              "velocity": 95,
              "position": 15,
              "duration": 0.052083333333333336
            },
            {
              "pitch": 42,
              "velocity": 46,
              "position": 15.260416666666666,
              "duration": 0.052083333333333336
            },
            {
              "pitch": 46,
              "velocity": 72,
              "position": 15.5,
              "duration": 0.052083333333333336
            },
            {
              "pitch": 42,
              "velocity": 46,
              "position": 15.760416666666666,
              "duration": 0.052083333333333336
            },
            {
              "pitch": 36,
              "velocity": 82,
              "position": 16,
              "duration": 0.052083333333333336
            },
            {
              "pitch": 42,
              "velocity": 83,
              "position": 16,
              "duration": 0.052083333333333336
            },
            {
              "pitch": 42,
              "velocity": 38,
              "position": 16.260416666666668,
              "duration": 0.052083333333333336
            },
            {
              "pitch": 46,
              "velocity": 72,
              "position": 16.5,
              "duration": 0.052083333333333336
            },
            {
              "pitch": 36,
              "velocity": 52,
              "position": 16.760416666666668,
              "duration": 0.052083333333333336
            },
            {
              "pitch": 42,
              "velocity": 65,
              "position": 16.760416666666668,
              "duration": 0.052083333333333336
            },
            {
              "pitch": 36,
              "velocity": 82,
              "position": 17,
              "duration": 0.052083333333333336
            },
            {
              "pitch": 40,
              "velocity": 95,
              "position": 17,
              "duration": 0.052083333333333336
            },
            {
              "pitch": 42,
              "velocity": 40,
              "position": 17.260416666666668,
              "duration": 0.052083333333333336
            },
            {
              "pitch": 46,
              "velocity": 72,
              "position": 17.5,
              "duration": 0.052083333333333336
            },
            {
              "pitch": 42,
              "velocity": 47,
              "position": 17.760416666666668,
              "duration": 0.052083333333333336
            },
            {
              "pitch": 36,
              "velocity": 82,
              "position": 18,
              "duration": 0.052083333333333336
            },
            {
              "pitch": 42,
              "velocity": 84,
              "position": 18,
              "duration": 0.052083333333333336
            },
            {
              "pitch": 42,
              "velocity": 30,
              "position": 18.260416666666668,
              "duration": 0.052083333333333336
            },
            {
              "pitch": 46,
              "velocity": 72,
              "position": 18.5,
              "duration": 0.052083333333333336
            },
            {
              "pitch": 42,
              "velocity": 54,
              "position": 18.760416666666668,
              "duration": 0.052083333333333336
            },
            {
              "pitch": 36,
              "velocity": 82,
              "position": 19,
              "duration": 0.052083333333333336
            },
            {
              "pitch": 40,
              "velocity": 95,
              "position": 19,
              "duration": 0.052083333333333336
            },
            {
              "pitch": 42,
              "velocity": 35,
              "position": 19.260416666666668,
              "duration": 0.052083333333333336
            },
            {
              "pitch": 46,
              "velocity": 72,
              "position": 19.5,
              "duration": 0.052083333333333336
            },
            {
              "pitch": 42,
              "velocity": 40,
              "position": 19.760416666666668,
              "duration": 0.052083333333333336
            },
            {
              "pitch": 36,
              "velocity": 82,
              "position": 20,
              "duration": 0.052083333333333336
            },
            {
              "pitch": 42,
              "velocity": 72,
              "position": 20,
              "duration": 0.052083333333333336
            },
            {
              "pitch": 42,
              "velocity": 33,
              "position": 20.260416666666668,
              "duration": 0.052083333333333336
            },
            {
              "pitch": 46,
              "velocity": 72,
              "position": 20.5,
              "duration": 0.052083333333333336
            },
            {
              "pitch": 36,
              "velocity": 52,
              "position": 20.760416666666668,
              "duration": 0.052083333333333336
            },
            {
              "pitch": 42,
              "velocity": 67,
              "position": 20.760416666666668,
              "duration": 0.052083333333333336
            },
            {
              "pitch": 36,
              "velocity": 82,
              "position": 21,
              "duration": 0.052083333333333336
            },
            {
              "pitch": 40,
              "velocity": 95,
              "position": 21,
              "duration": 0.052083333333333336
            },
            {
              "pitch": 42,
              "velocity": 32,
              "position": 21.260416666666668,
              "duration": 0.052083333333333336
            },
            {
              "pitch": 46,
              "velocity": 72,
              "position": 21.5,
              "duration": 0.052083333333333336
            },
            {
              "pitch": 42,
              "velocity": 40,
              "position": 21.760416666666668,
              "duration": 0.052083333333333336
            },
            {
              "pitch": 36,
              "velocity": 82,
              "position": 22,
              "duration": 0.052083333333333336
            },
            {
              "pitch": 42,
              "velocity": 82,
              "position": 22,
              "duration": 0.052083333333333336
            },
            {
              "pitch": 42,
              "velocity": 36,
              "position": 22.260416666666668,
              "duration": 0.052083333333333336
            },
            {
              "pitch": 46,
              "velocity": 72,
              "position": 22.5,
              "duration": 0.052083333333333336
            },
            {
              "pitch": 42,
              "velocity": 58,
              "position": 22.760416666666668,
              "duration": 0.052083333333333336
            },
            {
              "pitch": 36,
              "velocity": 82,
              "position": 23,
              "duration": 0.052083333333333336
            },
            {
              "pitch": 40,
              "velocity": 95,
              "position": 23,
              "duration": 0.052083333333333336
            },
            {
              "pitch": 42,
              "velocity": 33,
              "position": 23.260416666666668,
              "duration": 0.052083333333333336
            },
            {
              "pitch": 46,
              "velocity": 72,
              "position": 23.5,
              "duration": 0.052083333333333336
            },
            {
              "pitch": 42,
              "velocity": 43,
              "position": 23.760416666666668,
              "duration": 0.052083333333333336
            },
            {
              "pitch": 36,
              "velocity": 82,
              "position": 24,
              "duration": 0.052083333333333336
            },
            {
              "pitch": 42,
              "velocity": 85,
              "position": 24,
              "duration": 0.052083333333333336
            },
            {
              "pitch": 42,
              "velocity": 35,
              "position": 24.260416666666668,
              "duration": 0.052083333333333336
            },
            {
              "pitch": 46,
              "velocity": 72,
              "position": 24.5,
              "duration": 0.052083333333333336
            },
            {
              "pitch": 36,
              "velocity": 52,
              "position": 24.760416666666668,
              "duration": 0.052083333333333336
            },
            {
              "pitch": 42,
              "velocity": 61,
              "position": 24.760416666666668,
              "duration": 0.052083333333333336
            },
            {
              "pitch": 36,
              "velocity": 82,
              "position": 25,
              "duration": 0.052083333333333336
            },
            {
              "pitch": 40,
              "velocity": 95,
              "position": 25,
              "duration": 0.052083333333333336
            },
            {
              "pitch": 42,
              "velocity": 35,
              "position": 25.260416666666668,
              "duration": 0.052083333333333336
            },
            {
              "pitch": 46,
              "velocity": 72,
              "position": 25.5,
              "duration": 0.052083333333333336
            },
            {
              "pitch": 42,
              "velocity": 50,
              "position": 25.760416666666668,
              "duration": 0.052083333333333336
            },
            {
              "pitch": 36,
              "velocity": 82,
              "position": 26,
              "duration": 0.052083333333333336
            },
            {
              "pitch": 42,
              "velocity": 85,
              "position": 26,
              "duration": 0.052083333333333336
            },
            {
              "pitch": 42,
              "velocity": 25,
              "position": 26.260416666666668,
              "duration": 0.052083333333333336
            },
            {
              "pitch": 46,
              "velocity": 72,
              "position": 26.5,
              "duration": 0.052083333333333336
            },
            {
              "pitch": 42,
              "velocity": 68,
              "position": 26.760416666666668,
              "duration": 0.052083333333333336
            },
            {
              "pitch": 36,
              "velocity": 82,
              "position": 27,
              "duration": 0.052083333333333336
            },
            {
              "pitch": 40,
              "velocity": 95,
              "position": 27,
              "duration": 0.052083333333333336
            },
            {
              "pitch": 42,
              "velocity": 34,
              "position": 27.260416666666668,
              "duration": 0.052083333333333336
            },
            {
              "pitch": 46,
              "velocity": 72,
              "position": 27.5,
              "duration": 0.052083333333333336
            },
            {
              "pitch": 42,
              "velocity": 48,
              "position": 27.760416666666668,
              "duration": 0.052083333333333336
            },
            {
              "pitch": 36,
              "velocity": 82,
              "position": 28,
              "duration": 0.052083333333333336
            },
            {
              "pitch": 42,
              "velocity": 76,
              "position": 28,
              "duration": 0.052083333333333336
            },
            {
              "pitch": 42,
              "velocity": 37,
              "position": 28.260416666666668,
              "duration": 0.052083333333333336
            },
            {
              "pitch": 46,
              "velocity": 72,
              "position": 28.5,
              "duration": 0.052083333333333336
            },
            {
              "pitch": 36,
              "velocity": 52,
              "position": 28.760416666666668,
              "duration": 0.052083333333333336
            },
            {
              "pitch": 42,
              "velocity": 54,
              "position": 28.760416666666668,
              "duration": 0.052083333333333336
            },
            {
              "pitch": 36,
              "velocity": 82,
              "position": 29,
              "duration": 0.052083333333333336
            },
            {
              "pitch": 40,
              "velocity": 95,
              "position": 29,
              "duration": 0.052083333333333336
            },
            {
              "pitch": 42,
              "velocity": 32,
              "position": 29.260416666666668,
              "duration": 0.052083333333333336
            },
            {
              "pitch": 46,
              "velocity": 72,
              "position": 29.5,
              "duration": 0.052083333333333336
            },
            {
              "pitch": 42,
              "velocity": 50,
              "position": 29.760416666666668,
              "duration": 0.052083333333333336
            },
            {
              "pitch": 36,
              "velocity": 82,
              "position": 30,
              "duration": 0.052083333333333336
            },
            {
              "pitch": 42,
              "velocity": 72,
              "position": 30,
              "duration": 0.052083333333333336
            },
            {
              "pitch": 42,
              "velocity": 25,
              "position": 30.260416666666668,
              "duration": 0.052083333333333336
            },
            {
              "pitch": 46,
              "velocity": 72,
              "position": 30.5,
              "duration": 0.052083333333333336
            },
            {
              "pitch": 42,
              "velocity": 54,
              "position": 30.760416666666668,
              "duration": 0.052083333333333336
            },
            {
              "pitch": 36,
              "velocity": 82,
              "position": 31,
              "duration": 0.052083333333333336
            },
            {
              "pitch": 40,
              "velocity": 95,
              "position": 31,
              "duration": 0.052083333333333336
            },
            {
              "pitch": 42,
              "velocity": 46,
              "position": 31.260416666666668,
              "duration": 0.052083333333333336
            },
            {
              "pitch": 46,
              "velocity": 72,
              "position": 31.5,
              "duration": 0.052083333333333336
            },
            {
              "pitch": 42,
              "velocity": 48,
              "position": 31.760416666666668,
              "duration": 0.052083333333333336
            }
          ]
        },
        "10": {
          "ctab": {
            "srcChannel": 10,
            "name": "Bass",
            "accType": "BASS",
            "editable": false,
            "mutedNotes": [],
            "mutedChords": [],
            "autoStart": false,
            "sourceChordNote": 0,
            "sourceChordType": "Maj7",
            "ctb2Low": null,
            "ctb2Main": {
              "ntr": "ROOT_TRANSPOSITION",
              "ntt": "MELODY",
              "bassOn": true,
              "chordRootUpperLimit": 8,
              "noteLowLimit": 28,
              "noteHighLimit": 127,
              "rtr": "PITCH_SHIFT_TO_ROOT"
            },
            "ctb2High": null
          },
          "notes": [
            {
              "pitch": 24,
              "velocity": 60,
              "position": 0,
              "duration": 0.9895833333333334
            },
            {
              "pitch": 31,
              "velocity": 60,
              "position": 1,
              "duration": 0.9895833333333334
            },
            {
              "pitch": 24,
              "velocity": 60,
              "position": 2,
              "duration": 0.9895833333333334
            },
            {
              "pitch": 31,
              "velocity": 60,
              "position": 3,
              "duration": 0.9895833333333334
            },
            {
              "pitch": 24,
              "velocity": 60,
              "position": 4,
              "duration": 0.9895833333333334
            },
            {
              "pitch": 31,
              "velocity": 60,
              "position": 5,
              "duration": 0.9895833333333334
            },
            {
              "pitch": 24,
              "velocity": 60,
              "position": 6,
              "duration": 0.9895833333333334
            },
            {
              "pitch": 31,
              "velocity": 60,
              "position": 7,
              "duration": 0.9895833333333334
            },
            {
              "pitch": 24,
              "velocity": 60,
              "position": 8,
              "duration": 0.9895833333333334
            },
            {
              "pitch": 31,
              "velocity": 60,
              "position": 9,
              "duration": 0.9895833333333334
            },
            {
              "pitch": 24,
              "velocity": 60,
              "position": 10,
              "duration": 0.9895833333333334
            },
            {
              "pitch": 31,
              "velocity": 60,
              "position": 11,
              "duration": 0.9895833333333334
            },
            {
              "pitch": 24,
              "velocity": 60,
              "position": 12,
              "duration": 0.9895833333333334
            },
            {
              "pitch": 31,
              "velocity": 60,
              "position": 13,
              "duration": 0.9895833333333334
            },
            {
              "pitch": 24,
              "velocity": 60,
              "position": 14,
              "duration": 0.9895833333333334
            },
            {
              "pitch": 31,
              "velocity": 60,
              "position": 15,
              "duration": 0.9895833333333334
            },
            {
              "pitch": 24,
              "velocity": 60,
              "position": 16,
              "duration": 0.9895833333333334
            },
            {
              "pitch": 31,
              "velocity": 60,
              "position": 17,
              "duration": 0.9895833333333334
            },
            {
              "pitch": 24,
              "velocity": 60,
              "position": 18,
              "duration": 0.9895833333333334
            },
            {
              "pitch": 31,
              "velocity": 60,
              "position": 19,
              "duration": 0.9895833333333334
            },
            {
              "pitch": 24,
              "velocity": 60,
              "position": 20,
              "duration": 0.9895833333333334
            },
            {
              "pitch": 31,
              "velocity": 60,
              "position": 21,
              "duration": 0.9895833333333334
            },
            {
              "pitch": 24,
              "velocity": 60,
              "position": 22,
              "duration": 0.9895833333333334
            },
            {
              "pitch": 31,
              "velocity": 60,
              "position": 23,
              "duration": 0.9895833333333334
            },
            {
              "pitch": 24,
              "velocity": 60,
              "position": 24,
              "duration": 0.9895833333333334
            },
            {
              "pitch": 31,
              "velocity": 60,
              "position": 25,
              "duration": 0.9895833333333334
            },
            {
              "pitch": 24,
              "velocity": 60,
              "position": 26,
              "duration": 0.9895833333333334
            },
            {
              "pitch": 31,
              "velocity": 60,
              "position": 27,
              "duration": 0.9895833333333334
            },
            {
              "pitch": 24,
              "velocity": 60,
              "position": 28,
              "duration": 0.9895833333333334
            },
            {
              "pitch": 31,
              "velocity": 60,
              "position": 29,
              "duration": 0.9895833333333334
            },
            {
              "pitch": 24,
              "velocity": 60,
              "position": 30,
              "duration": 0.9895833333333334
            },
            {
              "pitch": 31,
              "velocity": 60,
              "position": 31,
              "duration": 0.9895833333333334
            }
          ]
        },
        "11": {
          "ctab": {
            "srcChannel": 11,
            "name": "Gt_Stk",
            "accType": "CHORD1",
            "editable": false,
            "mutedNotes": [],
            "mutedChords": [],
            "autoStart": false,
            "sourceChordNote": 0,
            "sourceChordType": "Maj7",
            "ctb2Low": null,
            "ctb2Main": {
              "ntr": "ROOT_TRANSPOSITION",
              "ntt": "MELODY",
              "bassOn": true,
              "chordRootUpperLimit": 7,
              "noteLowLimit": 0,
              "noteHighLimit": 127,
              "rtr": "PITCH_SHIFT"
            },
            "ctb2High": null
          },
          "notes": [
            {
              "pitch": 48,
              "velocity": 49,
              "position": 0,
              "duration": 0.48125
            },
            {
              "pitch": 55,
              "velocity": 49,
              "position": 0,
              "duration": 0.48125
            },
            {
              "pitch": 59,
              "velocity": 49,
              "position": 0,
              "duration": 0.48125
            },
            {
              "pitch": 60,
              "velocity": 47,
              "position": 0.010416666666666666,
              "duration": 0.48125
            },
            {
              "pitch": 64,
              "velocity": 43,
              "position": 0,
              "duration": 0.49166666666666664
            },
            {
              "pitch": 67,
              "velocity": 41,
              "position": 0,
              "duration": 0.5020833333333333
            },
            {
              "pitch": 71,
              "velocity": 41,
              "position": 0,
              "duration": 0.5020833333333333
            },
            {
              "pitch": 48,
              "velocity": 49,
              "position": 0.4895833333333333,
              "duration": 0.49166666666666664
            },
            {
              "pitch": 55,
              "velocity": 49,
              "position": 0.4895833333333333,
              "duration": 0.49166666666666664
            },
            {
              "pitch": 59,
              "velocity": 49,
              "position": 0.4895833333333333,
              "duration": 0.49166666666666664
            },
            {
              "pitch": 60,
              "velocity": 48,
              "position": 0.5,
              "duration": 0.49166666666666664
            },
            {
              "pitch": 64,
              "velocity": 49,
              "position": 0.5,
              "duration": 0.49166666666666664
            },
            {
              "pitch": 67,
              "velocity": 51,
              "position": 0.5104166666666666,
              "duration": 0.49166666666666664
            },
            {
              "pitch": 71,
              "velocity": 51,
              "position": 0.5104166666666666,
              "duration": 0.49166666666666664
            },
            {
              "pitch": 67,
              "velocity": 36,
              "position": 1.0104166666666667,
              "duration": 0.22083333333333333
            },
            {
              "pitch": 71,
              "velocity": 36,
              "position": 1.0104166666666667,
              "duration": 0.22083333333333333
            },
            {
              "pitch": 60,
              "velocity": 36,
              "position": 1,
              "duration": 0.24166666666666667
            },
            {
              "pitch": 64,
              "velocity": 35,
              "position": 1,
              "duration": 0.24166666666666667
            },
            {
              "pitch": 48,
              "velocity": 36,
              "position": 0.9895833333333334,
              "duration": 0.2625
            },
            {
              "pitch": 55,
              "velocity": 36,
              "position": 0.9895833333333334,
              "duration": 0.2625
            },
            {
              "pitch": 59,
              "velocity": 36,
              "position": 0.9895833333333334,
              "duration": 0.2625
            },
            {
              "pitch": 48,
              "velocity": 45,
              "position": 1.2604166666666667,
              "duration": 0.22083333333333333
            },
            {
              "pitch": 55,
              "velocity": 45,
              "position": 1.2604166666666667,
              "duration": 0.22083333333333333
            },
            {
              "pitch": 59,
              "velocity": 45,
              "position": 1.2604166666666667,
              "duration": 0.22083333333333333
            },
            {
              "pitch": 60,
              "velocity": 40,
              "position": 1.25,
              "duration": 0.24166666666666667
            },
            {
              "pitch": 64,
              "velocity": 44,
              "position": 1.25,
              "duration": 0.24166666666666667
            },
            {
              "pitch": 67,
              "velocity": 41,
              "position": 1.2395833333333333,
              "duration": 0.2625
            },
            {
              "pitch": 71,
              "velocity": 41,
              "position": 1.2395833333333333,
              "duration": 0.2625
            },
            {
              "pitch": 64,
              "velocity": 49,
              "position": 1.5,
              "duration": 0.24166666666666667
            },
            {
              "pitch": 48,
              "velocity": 50,
              "position": 1.4895833333333333,
              "duration": 0.2625
            },
            {
              "pitch": 55,
              "velocity": 50,
              "position": 1.4895833333333333,
              "duration": 0.2625
            },
            {
              "pitch": 59,
              "velocity": 50,
              "position": 1.4895833333333333,
              "duration": 0.2625
            },
            {
              "pitch": 48,
              "velocity": 40,
              "position": 1.7604166666666667,
              "duration": 0.22083333333333333
            },
            {
              "pitch": 55,
              "velocity": 40,
              "position": 1.7604166666666667,
              "duration": 0.22083333333333333
            },
            {
              "pitch": 59,
              "velocity": 40,
              "position": 1.7604166666666667,
              "duration": 0.22083333333333333
            },
            {
              "pitch": 60,
              "velocity": 50,
              "position": 1.5,
              "duration": 0.49166666666666664
            },
            {
              "pitch": 64,
              "velocity": 45,
              "position": 1.75,
              "duration": 0.24166666666666667
            },
            {
              "pitch": 67,
              "velocity": 50,
              "position": 1.5104166666666667,
              "duration": 0.49166666666666664
            },
            {
              "pitch": 71,
              "velocity": 50,
              "position": 1.5104166666666667,
              "duration": 0.49166666666666664
            },
            {
              "pitch": 48,
              "velocity": 53,
              "position": 1.9895833333333333,
              "duration": 0.49166666666666664
            },
            {
              "pitch": 55,
              "velocity": 53,
              "position": 1.9895833333333333,
              "duration": 0.49166666666666664
            },
            {
              "pitch": 59,
              "velocity": 53,
              "position": 1.9895833333333333,
              "duration": 0.49166666666666664
            },
            {
              "pitch": 60,
              "velocity": 48,
              "position": 2,
              "duration": 0.49166666666666664
            },
            {
              "pitch": 64,
              "velocity": 47,
              "position": 2,
              "duration": 0.49166666666666664
            },
            {
              "pitch": 67,
              "velocity": 44,
              "position": 2.0104166666666665,
              "duration": 0.49166666666666664
            },
            {
              "pitch": 71,
              "velocity": 44,
              "position": 2.0104166666666665,
              "duration": 0.49166666666666664
            },
            {
              "pitch": 48,
              "velocity": 45,
              "position": 2.4895833333333335,
              "duration": 0.49166666666666664
            },
            {
              "pitch": 55,
              "velocity": 45,
              "position": 2.4895833333333335,
              "duration": 0.49166666666666664
            },
            {
              "pitch": 59,
              "velocity": 45,
              "position": 2.4895833333333335,
              "duration": 0.49166666666666664
            },
            {
              "pitch": 60,
              "velocity": 48,
              "position": 2.5,
              "duration": 0.49166666666666664
            },
            {
              "pitch": 64,
              "velocity": 49,
              "position": 2.5,
              "duration": 0.49166666666666664
            },
            {
              "pitch": 67,
              "velocity": 51,
              "position": 2.5104166666666665,
              "duration": 0.49166666666666664
            },
            {
              "pitch": 71,
              "velocity": 51,
              "position": 2.5104166666666665,
              "duration": 0.49166666666666664
            },
            {
              "pitch": 67,
              "velocity": 36,
              "position": 3.0104166666666665,
              "duration": 0.22083333333333333
            },
            {
              "pitch": 71,
              "velocity": 36,
              "position": 3.0104166666666665,
              "duration": 0.22083333333333333
            },
            {
              "pitch": 60,
              "velocity": 36,
              "position": 3,
              "duration": 0.24166666666666667
            },
            {
              "pitch": 64,
              "velocity": 35,
              "position": 3,
              "duration": 0.24166666666666667
            },
            {
              "pitch": 48,
              "velocity": 36,
              "position": 2.9895833333333335,
              "duration": 0.49166666666666664
            },
            {
              "pitch": 55,
              "velocity": 36,
              "position": 2.9895833333333335,
              "duration": 0.49166666666666664
            },
            {
              "pitch": 59,
              "velocity": 36,
              "position": 2.9895833333333335,
              "duration": 0.49166666666666664
            },
            {
              "pitch": 60,
              "velocity": 40,
              "position": 3.25,
              "duration": 0.24166666666666667
            },
            {
              "pitch": 64,
              "velocity": 44,
              "position": 3.25,
              "duration": 0.24166666666666667
            },
            {
              "pitch": 67,
              "velocity": 48,
              "position": 3.2395833333333335,
              "duration": 0.2625
            },
            {
              "pitch": 71,
              "velocity": 48,
              "position": 3.2395833333333335,
              "duration": 0.2625
            },
            {
              "pitch": 67,
              "velocity": 50,
              "position": 3.5104166666666665,
              "duration": 0.22083333333333333
            },
            {
              "pitch": 71,
              "velocity": 50,
              "position": 3.5104166666666665,
              "duration": 0.22083333333333333
            },
            {
              "pitch": 60,
              "velocity": 50,
              "position": 3.5,
              "duration": 0.24166666666666667
            },
            {
              "pitch": 64,
              "velocity": 49,
              "position": 3.5,
              "duration": 0.24166666666666667
            },
            {
              "pitch": 48,
              "velocity": 50,
              "position": 3.4895833333333335,
              "duration": 0.49166666666666664
            },
            {
              "pitch": 55,
              "velocity": 50,
              "position": 3.4895833333333335,
              "duration": 0.49166666666666664
            },
            {
              "pitch": 59,
              "velocity": 50,
              "position": 3.4895833333333335,
              "duration": 0.49166666666666664
            },
            {
              "pitch": 60,
              "velocity": 38,
              "position": 3.75,
              "duration": 0.24166666666666667
            },
            {
              "pitch": 64,
              "velocity": 45,
              "position": 3.75,
              "duration": 0.24166666666666667
            },
            {
              "pitch": 67,
              "velocity": 43,
              "position": 3.7395833333333335,
              "duration": 0.2625
            },
            {
              "pitch": 71,
              "velocity": 43,
              "position": 3.7395833333333335,
              "duration": 0.2625
            },
            {
              "pitch": 48,
              "velocity": 44,
              "position": 3.9895833333333335,
              "duration": 0.49166666666666664
            },
            {
              "pitch": 55,
              "velocity": 44,
              "position": 3.9895833333333335,
              "duration": 0.49166666666666664
            },
            {
              "pitch": 59,
              "velocity": 44,
              "position": 3.9895833333333335,
              "duration": 0.49166666666666664
            },
            {
              "pitch": 60,
              "velocity": 44,
              "position": 4,
              "duration": 0.49166666666666664
            },
            {
              "pitch": 64,
              "velocity": 43,
              "position": 4,
              "duration": 0.49166666666666664
            },
            {
              "pitch": 67,
              "velocity": 44,
              "position": 4.010416666666667,
              "duration": 0.49166666666666664
            },
            {
              "pitch": 71,
              "velocity": 44,
              "position": 4.010416666666667,
              "duration": 0.49166666666666664
            },
            {
              "pitch": 48,
              "velocity": 50,
              "position": 4.489583333333333,
              "duration": 0.49166666666666664
            },
            {
              "pitch": 55,
              "velocity": 50,
              "position": 4.489583333333333,
              "duration": 0.49166666666666664
            },
            {
              "pitch": 59,
              "velocity": 50,
              "position": 4.489583333333333,
              "duration": 0.49166666666666664
            },
            {
              "pitch": 60,
              "velocity": 50,
              "position": 4.5,
              "duration": 0.49166666666666664
            },
            {
              "pitch": 64,
              "velocity": 49,
              "position": 4.5,
              "duration": 0.49166666666666664
            },
            {
              "pitch": 67,
              "velocity": 50,
              "position": 4.510416666666667,
              "duration": 0.49166666666666664
            },
            {
              "pitch": 71,
              "velocity": 50,
              "position": 4.510416666666667,
              "duration": 0.49166666666666664
            },
            {
              "pitch": 67,
              "velocity": 36,
              "position": 5.010416666666667,
              "duration": 0.22083333333333333
            },
            {
              "pitch": 71,
              "velocity": 36,
              "position": 5.010416666666667,
              "duration": 0.22083333333333333
            },
            {
              "pitch": 60,
              "velocity": 36,
              "position": 5,
              "duration": 0.24166666666666667
            },
            {
              "pitch": 64,
              "velocity": 35,
              "position": 5,
              "duration": 0.24166666666666667
            },
            {
              "pitch": 48,
              "velocity": 36,
              "position": 4.989583333333333,
              "duration": 0.2625
            },
            {
              "pitch": 55,
              "velocity": 36,
              "position": 4.989583333333333,
              "duration": 0.2625
            },
            {
              "pitch": 59,
              "velocity": 36,
              "position": 4.989583333333333,
              "duration": 0.2625
            },
            {
              "pitch": 48,
              "velocity": 45,
              "position": 5.260416666666667,
              "duration": 0.22083333333333333
            },
            {
              "pitch": 55,
              "velocity": 45,
              "position": 5.260416666666667,
              "duration": 0.22083333333333333
            },
            {
              "pitch": 59,
              "velocity": 45,
              "position": 5.260416666666667,
              "duration": 0.22083333333333333
            },
            {
              "pitch": 60,
              "velocity": 40,
              "position": 5.25,
              "duration": 0.24166666666666667
            },
            {
              "pitch": 64,
              "velocity": 44,
              "position": 5.25,
              "duration": 0.24166666666666667
            },
            {
              "pitch": 67,
              "velocity": 48,
              "position": 5.239583333333333,
              "duration": 0.2625
            },
            {
              "pitch": 71,
              "velocity": 48,
              "position": 5.239583333333333,
              "duration": 0.2625
            },
            {
              "pitch": 48,
              "velocity": 50,
              "position": 5.489583333333333,
              "duration": 0.2520833333333333
            },
            {
              "pitch": 55,
              "velocity": 50,
              "position": 5.489583333333333,
              "duration": 0.2520833333333333
            },
            {
              "pitch": 59,
              "velocity": 50,
              "position": 5.489583333333333,
              "duration": 0.2520833333333333
            },
            {
              "pitch": 60,
              "velocity": 50,
              "position": 5.5,
              "duration": 0.24166666666666667
            },
            {
              "pitch": 64,
              "velocity": 49,
              "position": 5.5,
              "duration": 0.24166666666666667
            },
            {
              "pitch": 48,
              "velocity": 50,
              "position": 5.75,
              "duration": 0.23125
            },
            {
              "pitch": 55,
              "velocity": 50,
              "position": 5.75,
              "duration": 0.23125
            },
            {
              "pitch": 59,
              "velocity": 50,
              "position": 5.75,
              "duration": 0.23125
            },
            {
              "pitch": 60,
              "velocity": 35,
              "position": 5.75,
              "duration": 0.24166666666666667
            },
            {
              "pitch": 64,
              "velocity": 45,
              "position": 5.75,
              "duration": 0.24166666666666667
            },
            {
              "pitch": 67,
              "velocity": 50,
              "position": 5.510416666666667,
              "duration": 0.49166666666666664
            },
            {
              "pitch": 71,
              "velocity": 50,
              "position": 5.510416666666667,
              "duration": 0.49166666666666664
            },
            {
              "pitch": 48,
              "velocity": 48,
              "position": 5.989583333333333,
              "duration": 0.49166666666666664
            },
            {
              "pitch": 55,
              "velocity": 48,
              "position": 5.989583333333333,
              "duration": 0.49166666666666664
            },
            {
              "pitch": 59,
              "velocity": 48,
              "position": 5.989583333333333,
              "duration": 0.49166666666666664
            },
            {
              "pitch": 60,
              "velocity": 48,
              "position": 6,
              "duration": 0.49166666666666664
            },
            {
              "pitch": 64,
              "velocity": 47,
              "position": 6,
              "duration": 0.49166666666666664
            },
            {
              "pitch": 67,
              "velocity": 48,
              "position": 6.010416666666667,
              "duration": 0.49166666666666664
            },
            {
              "pitch": 71,
              "velocity": 48,
              "position": 6.010416666666667,
              "duration": 0.49166666666666664
            },
            {
              "pitch": 48,
              "velocity": 50,
              "position": 6.489583333333333,
              "duration": 0.49166666666666664
            },
            {
              "pitch": 55,
              "velocity": 50,
              "position": 6.489583333333333,
              "duration": 0.49166666666666664
            },
            {
              "pitch": 59,
              "velocity": 50,
              "position": 6.489583333333333,
              "duration": 0.49166666666666664
            },
            {
              "pitch": 60,
              "velocity": 50,
              "position": 6.5,
              "duration": 0.49166666666666664
            },
            {
              "pitch": 64,
              "velocity": 49,
              "position": 6.5,
              "duration": 0.49166666666666664
            },
            {
              "pitch": 67,
              "velocity": 50,
              "position": 6.510416666666667,
              "duration": 0.49166666666666664
            },
            {
              "pitch": 71,
              "velocity": 50,
              "position": 6.510416666666667,
              "duration": 0.49166666666666664
            },
            {
              "pitch": 67,
              "velocity": 36,
              "position": 7.010416666666667,
              "duration": 0.22083333333333333
            },
            {
              "pitch": 71,
              "velocity": 36,
              "position": 7.010416666666667,
              "duration": 0.22083333333333333
            },
            {
              "pitch": 60,
              "velocity": 36,
              "position": 7,
              "duration": 0.24166666666666667
            },
            {
              "pitch": 64,
              "velocity": 35,
              "position": 7,
              "duration": 0.24166666666666667
            },
            {
              "pitch": 48,
              "velocity": 36,
              "position": 6.989583333333333,
              "duration": 0.2625
            },
            {
              "pitch": 55,
              "velocity": 36,
              "position": 6.989583333333333,
              "duration": 0.2625
            },
            {
              "pitch": 59,
              "velocity": 36,
              "position": 6.989583333333333,
              "duration": 0.2625
            },
            {
              "pitch": 48,
              "velocity": 45,
              "position": 7.260416666666667,
              "duration": 0.22083333333333333
            },
            {
              "pitch": 55,
              "velocity": 45,
              "position": 7.260416666666667,
              "duration": 0.22083333333333333
            },
            {
              "pitch": 59,
              "velocity": 45,
              "position": 7.260416666666667,
              "duration": 0.22083333333333333
            },
            {
              "pitch": 60,
              "velocity": 40,
              "position": 7.25,
              "duration": 0.24166666666666667
            },
            {
              "pitch": 64,
              "velocity": 44,
              "position": 7.25,
              "duration": 0.24166666666666667
            },
            {
              "pitch": 67,
              "velocity": 48,
              "position": 7.239583333333333,
              "duration": 0.2625
            },
            {
              "pitch": 71,
              "velocity": 48,
              "position": 7.239583333333333,
              "duration": 0.2625
            },
            {
              "pitch": 60,
              "velocity": 50,
              "position": 7.5,
              "duration": 0.24166666666666667
            },
            {
              "pitch": 64,
              "velocity": 49,
              "position": 7.5,
              "duration": 0.24166666666666667
            },
            {
              "pitch": 48,
              "velocity": 50,
              "position": 7.489583333333333,
              "duration": 0.2625
            },
            {
              "pitch": 55,
              "velocity": 50,
              "position": 7.489583333333333,
              "duration": 0.2625
            },
            {
              "pitch": 59,
              "velocity": 50,
              "position": 7.489583333333333,
              "duration": 0.2625
            },
            {
              "pitch": 48,
              "velocity": 46,
              "position": 7.760416666666667,
              "duration": 0.23125
            },
            {
              "pitch": 55,
              "velocity": 46,
              "position": 7.760416666666667,
              "duration": 0.23125
            },
            {
              "pitch": 59,
              "velocity": 46,
              "position": 7.760416666666667,
              "duration": 0.23125
            },
            {
              "pitch": 64,
              "velocity": 45,
              "position": 7.75,
              "duration": 0.24166666666666667
            },
            {
              "pitch": 67,
              "velocity": 50,
              "position": 7.510416666666667,
              "duration": 0.48125
            },
            {
              "pitch": 71,
              "velocity": 50,
              "position": 7.510416666666667,
              "duration": 0.48125
            },
            {
              "pitch": 48,
              "velocity": 49,
              "position": 8,
              "duration": 0.48125
            },
            {
              "pitch": 55,
              "velocity": 49,
              "position": 8,
              "duration": 0.48125
            },
            {
              "pitch": 59,
              "velocity": 49,
              "position": 8,
              "duration": 0.48125
            },
            {
              "pitch": 60,
              "velocity": 38,
              "position": 7.75,
              "duration": 0.7416666666666667
            },
            {
              "pitch": 64,
              "velocity": 43,
              "position": 8,
              "duration": 0.49166666666666664
            },
            {
              "pitch": 67,
              "velocity": 52,
              "position": 8,
              "duration": 0.5020833333333333
            },
            {
              "pitch": 71,
              "velocity": 52,
              "position": 8,
              "duration": 0.5020833333333333
            },
            {
              "pitch": 48,
              "velocity": 49,
              "position": 8.489583333333334,
              "duration": 0.49166666666666664
            },
            {
              "pitch": 55,
              "velocity": 49,
              "position": 8.489583333333334,
              "duration": 0.49166666666666664
            },
            {
              "pitch": 59,
              "velocity": 49,
              "position": 8.489583333333334,
              "duration": 0.49166666666666664
            },
            {
              "pitch": 60,
              "velocity": 48,
              "position": 8.5,
              "duration": 0.49166666666666664
            },
            {
              "pitch": 64,
              "velocity": 49,
              "position": 8.5,
              "duration": 0.49166666666666664
            },
            {
              "pitch": 67,
              "velocity": 51,
              "position": 8.510416666666666,
              "duration": 0.49166666666666664
            },
            {
              "pitch": 71,
              "velocity": 51,
              "position": 8.510416666666666,
              "duration": 0.49166666666666664
            },
            {
              "pitch": 67,
              "velocity": 36,
              "position": 9.010416666666666,
              "duration": 0.22083333333333333
            },
            {
              "pitch": 71,
              "velocity": 36,
              "position": 9.010416666666666,
              "duration": 0.22083333333333333
            },
            {
              "pitch": 60,
              "velocity": 36,
              "position": 9,
              "duration": 0.24166666666666667
            },
            {
              "pitch": 64,
              "velocity": 35,
              "position": 9,
              "duration": 0.24166666666666667
            },
            {
              "pitch": 48,
              "velocity": 36,
              "position": 8.989583333333334,
              "duration": 0.2625
            },
            {
              "pitch": 55,
              "velocity": 36,
              "position": 8.989583333333334,
              "duration": 0.2625
            },
            {
              "pitch": 59,
              "velocity": 36,
              "position": 8.989583333333334,
              "duration": 0.2625
            },
            {
              "pitch": 48,
              "velocity": 45,
              "position": 9.260416666666666,
              "duration": 0.22083333333333333
            },
            {
              "pitch": 55,
              "velocity": 45,
              "position": 9.260416666666666,
              "duration": 0.22083333333333333
            },
            {
              "pitch": 59,
              "velocity": 45,
              "position": 9.260416666666666,
              "duration": 0.22083333333333333
            },
            {
              "pitch": 60,
              "velocity": 40,
              "position": 9.25,
              "duration": 0.24166666666666667
            },
            {
              "pitch": 64,
              "velocity": 44,
              "position": 9.25,
              "duration": 0.24166666666666667
            },
            {
              "pitch": 67,
              "velocity": 41,
              "position": 9.239583333333334,
              "duration": 0.2625
            },
            {
              "pitch": 71,
              "velocity": 41,
              "position": 9.239583333333334,
              "duration": 0.2625
            },
            {
              "pitch": 67,
              "velocity": 50,
              "position": 9.510416666666666,
              "duration": 0.22083333333333333
            },
            {
              "pitch": 71,
              "velocity": 50,
              "position": 9.510416666666666,
              "duration": 0.22083333333333333
            },
            {
              "pitch": 64,
              "velocity": 49,
              "position": 9.5,
              "duration": 0.24166666666666667
            },
            {
              "pitch": 48,
              "velocity": 50,
              "position": 9.489583333333334,
              "duration": 0.2625
            },
            {
              "pitch": 55,
              "velocity": 50,
              "position": 9.489583333333334,
              "duration": 0.2625
            },
            {
              "pitch": 59,
              "velocity": 50,
              "position": 9.489583333333334,
              "duration": 0.2625
            },
            {
              "pitch": 48,
              "velocity": 40,
              "position": 9.760416666666666,
              "duration": 0.22083333333333333
            },
            {
              "pitch": 55,
              "velocity": 40,
              "position": 9.760416666666666,
              "duration": 0.22083333333333333
            },
            {
              "pitch": 59,
              "velocity": 40,
              "position": 9.760416666666666,
              "duration": 0.22083333333333333
            },
            {
              "pitch": 60,
              "velocity": 50,
              "position": 9.5,
              "duration": 0.49166666666666664
            },
            {
              "pitch": 64,
              "velocity": 45,
              "position": 9.75,
              "duration": 0.24166666666666667
            },
            {
              "pitch": 67,
              "velocity": 41,
              "position": 9.739583333333334,
              "duration": 0.2625
            },
            {
              "pitch": 71,
              "velocity": 41,
              "position": 9.739583333333334,
              "duration": 0.2625
            },
            {
              "pitch": 48,
              "velocity": 53,
              "position": 9.989583333333334,
              "duration": 0.49166666666666664
            },
            {
              "pitch": 55,
              "velocity": 53,
              "position": 9.989583333333334,
              "duration": 0.49166666666666664
            },
            {
              "pitch": 59,
              "velocity": 53,
              "position": 9.989583333333334,
              "duration": 0.49166666666666664
            },
            {
              "pitch": 60,
              "velocity": 48,
              "position": 10,
              "duration": 0.49166666666666664
            },
            {
              "pitch": 64,
              "velocity": 47,
              "position": 10,
              "duration": 0.49166666666666664
            },
            {
              "pitch": 67,
              "velocity": 44,
              "position": 10.010416666666666,
              "duration": 0.49166666666666664
            },
            {
              "pitch": 71,
              "velocity": 44,
              "position": 10.010416666666666,
              "duration": 0.49166666666666664
            },
            {
              "pitch": 48,
              "velocity": 45,
              "position": 10.489583333333334,
              "duration": 0.49166666666666664
            },
            {
              "pitch": 55,
              "velocity": 45,
              "position": 10.489583333333334,
              "duration": 0.49166666666666664
            },
            {
              "pitch": 59,
              "velocity": 45,
              "position": 10.489583333333334,
              "duration": 0.49166666666666664
            },
            {
              "pitch": 60,
              "velocity": 48,
              "position": 10.5,
              "duration": 0.49166666666666664
            },
            {
              "pitch": 64,
              "velocity": 49,
              "position": 10.5,
              "duration": 0.49166666666666664
            },
            {
              "pitch": 67,
              "velocity": 51,
              "position": 10.510416666666666,
              "duration": 0.49166666666666664
            },
            {
              "pitch": 71,
              "velocity": 51,
              "position": 10.510416666666666,
              "duration": 0.49166666666666664
            },
            {
              "pitch": 67,
              "velocity": 36,
              "position": 11.010416666666666,
              "duration": 0.22083333333333333
            },
            {
              "pitch": 71,
              "velocity": 36,
              "position": 11.010416666666666,
              "duration": 0.22083333333333333
            },
            {
              "pitch": 60,
              "velocity": 36,
              "position": 11,
              "duration": 0.24166666666666667
            },
            {
              "pitch": 64,
              "velocity": 35,
              "position": 11,
              "duration": 0.24166666666666667
            },
            {
              "pitch": 48,
              "velocity": 36,
              "position": 10.989583333333334,
              "duration": 0.49166666666666664
            },
            {
              "pitch": 55,
              "velocity": 36,
              "position": 10.989583333333334,
              "duration": 0.49166666666666664
            },
            {
              "pitch": 59,
              "velocity": 36,
              "position": 10.989583333333334,
              "duration": 0.49166666666666664
            },
            {
              "pitch": 60,
              "velocity": 40,
              "position": 11.25,
              "duration": 0.24166666666666667
            },
            {
              "pitch": 64,
              "velocity": 44,
              "position": 11.25,
              "duration": 0.24166666666666667
            },
            {
              "pitch": 67,
              "velocity": 48,
              "position": 11.239583333333334,
              "duration": 0.2625
            },
            {
              "pitch": 71,
              "velocity": 48,
              "position": 11.239583333333334,
              "duration": 0.2625
            },
            {
              "pitch": 67,
              "velocity": 50,
              "position": 11.510416666666666,
              "duration": 0.22083333333333333
            },
            {
              "pitch": 71,
              "velocity": 50,
              "position": 11.510416666666666,
              "duration": 0.22083333333333333
            },
            {
              "pitch": 60,
              "velocity": 50,
              "position": 11.5,
              "duration": 0.24166666666666667
            },
            {
              "pitch": 64,
              "velocity": 49,
              "position": 11.5,
              "duration": 0.24166666666666667
            },
            {
              "pitch": 48,
              "velocity": 50,
              "position": 11.489583333333334,
              "duration": 0.49166666666666664
            },
            {
              "pitch": 55,
              "velocity": 50,
              "position": 11.489583333333334,
              "duration": 0.49166666666666664
            },
            {
              "pitch": 59,
              "velocity": 50,
              "position": 11.489583333333334,
              "duration": 0.49166666666666664
            },
            {
              "pitch": 60,
              "velocity": 38,
              "position": 11.75,
              "duration": 0.24166666666666667
            },
            {
              "pitch": 64,
              "velocity": 45,
              "position": 11.75,
              "duration": 0.24166666666666667
            },
            {
              "pitch": 67,
              "velocity": 43,
              "position": 11.739583333333334,
              "duration": 0.2625
            },
            {
              "pitch": 71,
              "velocity": 43,
              "position": 11.739583333333334,
              "duration": 0.2625
            },
            {
              "pitch": 48,
              "velocity": 44,
              "position": 11.989583333333334,
              "duration": 0.49166666666666664
            },
            {
              "pitch": 55,
              "velocity": 44,
              "position": 11.989583333333334,
              "duration": 0.49166666666666664
            },
            {
              "pitch": 59,
              "velocity": 44,
              "position": 11.989583333333334,
              "duration": 0.49166666666666664
            },
            {
              "pitch": 60,
              "velocity": 44,
              "position": 12,
              "duration": 0.49166666666666664
            },
            {
              "pitch": 64,
              "velocity": 43,
              "position": 12,
              "duration": 0.49166666666666664
            },
            {
              "pitch": 67,
              "velocity": 44,
              "position": 12.010416666666666,
              "duration": 0.49166666666666664
            },
            {
              "pitch": 71,
              "velocity": 44,
              "position": 12.010416666666666,
              "duration": 0.49166666666666664
            },
            {
              "pitch": 48,
              "velocity": 50,
              "position": 12.489583333333334,
              "duration": 0.49166666666666664
            },
            {
              "pitch": 55,
              "velocity": 50,
              "position": 12.489583333333334,
              "duration": 0.49166666666666664
            },
            {
              "pitch": 59,
              "velocity": 50,
              "position": 12.489583333333334,
              "duration": 0.49166666666666664
            },
            {
              "pitch": 60,
              "velocity": 50,
              "position": 12.5,
              "duration": 0.49166666666666664
            },
            {
              "pitch": 64,
              "velocity": 49,
              "position": 12.5,
              "duration": 0.49166666666666664
            },
            {
              "pitch": 67,
              "velocity": 50,
              "position": 12.510416666666666,
              "duration": 0.49166666666666664
            },
            {
              "pitch": 71,
              "velocity": 50,
              "position": 12.510416666666666,
              "duration": 0.49166666666666664
            },
            {
              "pitch": 67,
              "velocity": 36,
              "position": 13.010416666666666,
              "duration": 0.22083333333333333
            },
            {
              "pitch": 71,
              "velocity": 36,
              "position": 13.010416666666666,
              "duration": 0.22083333333333333
            },
            {
              "pitch": 60,
              "velocity": 36,
              "position": 13,
              "duration": 0.24166666666666667
            },
            {
              "pitch": 64,
              "velocity": 35,
              "position": 13,
              "duration": 0.24166666666666667
            },
            {
              "pitch": 48,
              "velocity": 36,
              "position": 12.989583333333334,
              "duration": 0.2625
            },
            {
              "pitch": 55,
              "velocity": 36,
              "position": 12.989583333333334,
              "duration": 0.2625
            },
            {
              "pitch": 59,
              "velocity": 36,
              "position": 12.989583333333334,
              "duration": 0.2625
            },
            {
              "pitch": 48,
              "velocity": 45,
              "position": 13.260416666666666,
              "duration": 0.22083333333333333
            },
            {
              "pitch": 55,
              "velocity": 45,
              "position": 13.260416666666666,
              "duration": 0.22083333333333333
            },
            {
              "pitch": 59,
              "velocity": 45,
              "position": 13.260416666666666,
              "duration": 0.22083333333333333
            },
            {
              "pitch": 64,
              "velocity": 44,
              "position": 13.25,
              "duration": 0.24166666666666667
            },
            {
              "pitch": 67,
              "velocity": 41,
              "position": 13.239583333333334,
              "duration": 0.2625
            },
            {
              "pitch": 71,
              "velocity": 41,
              "position": 13.239583333333334,
              "duration": 0.2625
            },
            {
              "pitch": 67,
              "velocity": 50,
              "position": 13.510416666666666,
              "duration": 0.22083333333333333
            },
            {
              "pitch": 71,
              "velocity": 50,
              "position": 13.510416666666666,
              "duration": 0.22083333333333333
            },
            {
              "pitch": 60,
              "velocity": 41,
              "position": 13.25,
              "duration": 0.49166666666666664
            },
            {
              "pitch": 64,
              "velocity": 49,
              "position": 13.5,
              "duration": 0.24166666666666667
            },
            {
              "pitch": 48,
              "velocity": 41,
              "position": 13.489583333333334,
              "duration": 0.49166666666666664
            },
            {
              "pitch": 55,
              "velocity": 41,
              "position": 13.489583333333334,
              "duration": 0.49166666666666664
            },
            {
              "pitch": 59,
              "velocity": 41,
              "position": 13.489583333333334,
              "duration": 0.49166666666666664
            },
            {
              "pitch": 60,
              "velocity": 38,
              "position": 13.75,
              "duration": 0.24166666666666667
            },
            {
              "pitch": 64,
              "velocity": 45,
              "position": 13.75,
              "duration": 0.24166666666666667
            },
            {
              "pitch": 67,
              "velocity": 41,
              "position": 13.739583333333334,
              "duration": 0.2625
            },
            {
              "pitch": 71,
              "velocity": 41,
              "position": 13.739583333333334,
              "duration": 0.2625
            },
            {
              "pitch": 48,
              "velocity": 48,
              "position": 13.989583333333334,
              "duration": 0.49166666666666664
            },
            {
              "pitch": 55,
              "velocity": 48,
              "position": 13.989583333333334,
              "duration": 0.49166666666666664
            },
            {
              "pitch": 59,
              "velocity": 48,
              "position": 13.989583333333334,
              "duration": 0.49166666666666664
            },
            {
              "pitch": 60,
              "velocity": 48,
              "position": 14,
              "duration": 0.49166666666666664
            },
            {
              "pitch": 64,
              "velocity": 47,
              "position": 14,
              "duration": 0.49166666666666664
            },
            {
              "pitch": 67,
              "velocity": 48,
              "position": 14.010416666666666,
              "duration": 0.49166666666666664
            },
            {
              "pitch": 71,
              "velocity": 48,
              "position": 14.010416666666666,
              "duration": 0.49166666666666664
            },
            {
              "pitch": 48,
              "velocity": 50,
              "position": 14.489583333333334,
              "duration": 0.49166666666666664
            },
            {
              "pitch": 55,
              "velocity": 50,
              "position": 14.489583333333334,
              "duration": 0.49166666666666664
            },
            {
              "pitch": 59,
              "velocity": 50,
              "position": 14.489583333333334,
              "duration": 0.49166666666666664
            },
            {
              "pitch": 60,
              "velocity": 50,
              "position": 14.5,
              "duration": 0.49166666666666664
            },
            {
              "pitch": 64,
              "velocity": 49,
              "position": 14.5,
              "duration": 0.49166666666666664
            },
            {
              "pitch": 67,
              "velocity": 50,
              "position": 14.510416666666666,
              "duration": 0.49166666666666664
            },
            {
              "pitch": 71,
              "velocity": 50,
              "position": 14.510416666666666,
              "duration": 0.49166666666666664
            },
            {
              "pitch": 67,
              "velocity": 36,
              "position": 15.010416666666666,
              "duration": 0.22083333333333333
            },
            {
              "pitch": 71,
              "velocity": 36,
              "position": 15.010416666666666,
              "duration": 0.22083333333333333
            },
            {
              "pitch": 60,
              "velocity": 36,
              "position": 15,
              "duration": 0.24166666666666667
            },
            {
              "pitch": 64,
              "velocity": 35,
              "position": 15,
              "duration": 0.24166666666666667
            },
            {
              "pitch": 48,
              "velocity": 36,
              "position": 14.989583333333334,
              "duration": 0.2625
            },
            {
              "pitch": 55,
              "velocity": 36,
              "position": 14.989583333333334,
              "duration": 0.2625
            },
            {
              "pitch": 59,
              "velocity": 36,
              "position": 14.989583333333334,
              "duration": 0.2625
            },
            {
              "pitch": 48,
              "velocity": 45,
              "position": 15.260416666666666,
              "duration": 0.22083333333333333
            },
            {
              "pitch": 55,
              "velocity": 45,
              "position": 15.260416666666666,
              "duration": 0.22083333333333333
            },
            {
              "pitch": 59,
              "velocity": 45,
              "position": 15.260416666666666,
              "duration": 0.22083333333333333
            },
            {
              "pitch": 60,
              "velocity": 40,
              "position": 15.25,
              "duration": 0.24166666666666667
            },
            {
              "pitch": 64,
              "velocity": 44,
              "position": 15.25,
              "duration": 0.24166666666666667
            },
            {
              "pitch": 67,
              "velocity": 48,
              "position": 15.239583333333334,
              "duration": 0.2625
            },
            {
              "pitch": 71,
              "velocity": 48,
              "position": 15.239583333333334,
              "duration": 0.2625
            },
            {
              "pitch": 67,
              "velocity": 50,
              "position": 15.510416666666666,
              "duration": 0.22083333333333333
            },
            {
              "pitch": 71,
              "velocity": 50,
              "position": 15.510416666666666,
              "duration": 0.22083333333333333
            },
            {
              "pitch": 60,
              "velocity": 50,
              "position": 15.5,
              "duration": 0.24166666666666667
            },
            {
              "pitch": 64,
              "velocity": 49,
              "position": 15.5,
              "duration": 0.24166666666666667
            },
            {
              "pitch": 48,
              "velocity": 50,
              "position": 15.489583333333334,
              "duration": 0.2625
            },
            {
              "pitch": 55,
              "velocity": 50,
              "position": 15.489583333333334,
              "duration": 0.2625
            },
            {
              "pitch": 59,
              "velocity": 50,
              "position": 15.489583333333334,
              "duration": 0.2625
            },
            {
              "pitch": 48,
              "velocity": 41,
              "position": 15.760416666666666,
              "duration": 0.22083333333333333
            },
            {
              "pitch": 55,
              "velocity": 41,
              "position": 15.760416666666666,
              "duration": 0.22083333333333333
            },
            {
              "pitch": 59,
              "velocity": 41,
              "position": 15.760416666666666,
              "duration": 0.22083333333333333
            },
            {
              "pitch": 60,
              "velocity": 38,
              "position": 15.75,
              "duration": 0.24166666666666667
            },
            {
              "pitch": 64,
              "velocity": 45,
              "position": 15.75,
              "duration": 0.24166666666666667
            },
            {
              "pitch": 67,
              "velocity": 41,
              "position": 15.739583333333334,
              "duration": 0.2625
            },
            {
              "pitch": 71,
              "velocity": 41,
              "position": 15.739583333333334,
              "duration": 0.2625
            },
            {
              "pitch": 48,
              "velocity": 49,
              "position": 15.989583333333334,
              "duration": 0.49166666666666664
            },
            {
              "pitch": 55,
              "velocity": 49,
              "position": 15.989583333333334,
              "duration": 0.49166666666666664
            },
            {
              "pitch": 59,
              "velocity": 49,
              "position": 15.989583333333334,
              "duration": 0.49166666666666664
            },
            {
              "pitch": 60,
              "velocity": 47,
              "position": 16,
              "duration": 0.49166666666666664
            },
            {
              "pitch": 64,
              "velocity": 43,
              "position": 16,
              "duration": 0.49166666666666664
            },
            {
              "pitch": 67,
              "velocity": 41,
              "position": 16.010416666666668,
              "duration": 0.49166666666666664
            },
            {
              "pitch": 71,
              "velocity": 41,
              "position": 16.010416666666668,
              "duration": 0.49166666666666664
            },
            {
              "pitch": 48,
              "velocity": 49,
              "position": 16.489583333333332,
              "duration": 0.49166666666666664
            },
            {
              "pitch": 55,
              "velocity": 49,
              "position": 16.489583333333332,
              "duration": 0.49166666666666664
            },
            {
              "pitch": 59,
              "velocity": 49,
              "position": 16.489583333333332,
              "duration": 0.49166666666666664
            },
            {
              "pitch": 60,
              "velocity": 48,
              "position": 16.5,
              "duration": 0.49166666666666664
            },
            {
              "pitch": 64,
              "velocity": 49,
              "position": 16.5,
              "duration": 0.49166666666666664
            },
            {
              "pitch": 67,
              "velocity": 51,
              "position": 16.510416666666668,
              "duration": 0.49166666666666664
            },
            {
              "pitch": 71,
              "velocity": 51,
              "position": 16.510416666666668,
              "duration": 0.49166666666666664
            },
            {
              "pitch": 67,
              "velocity": 36,
              "position": 17.010416666666668,
              "duration": 0.22083333333333333
            },
            {
              "pitch": 71,
              "velocity": 36,
              "position": 17.010416666666668,
              "duration": 0.22083333333333333
            },
            {
              "pitch": 60,
              "velocity": 36,
              "position": 17,
              "duration": 0.24166666666666667
            },
            {
              "pitch": 64,
              "velocity": 35,
              "position": 17,
              "duration": 0.24166666666666667
            },
            {
              "pitch": 48,
              "velocity": 36,
              "position": 16.989583333333332,
              "duration": 0.2625
            },
            {
              "pitch": 55,
              "velocity": 36,
              "position": 16.989583333333332,
              "duration": 0.2625
            },
            {
              "pitch": 59,
              "velocity": 36,
              "position": 16.989583333333332,
              "duration": 0.2625
            },
            {
              "pitch": 48,
              "velocity": 45,
              "position": 17.260416666666668,
              "duration": 0.22083333333333333
            },
            {
              "pitch": 55,
              "velocity": 45,
              "position": 17.260416666666668,
              "duration": 0.22083333333333333
            },
            {
              "pitch": 59,
              "velocity": 45,
              "position": 17.260416666666668,
              "duration": 0.22083333333333333
            },
            {
              "pitch": 60,
              "velocity": 40,
              "position": 17.25,
              "duration": 0.24166666666666667
            },
            {
              "pitch": 64,
              "velocity": 44,
              "position": 17.25,
              "duration": 0.24166666666666667
            },
            {
              "pitch": 67,
              "velocity": 41,
              "position": 17.239583333333332,
              "duration": 0.2625
            },
            {
              "pitch": 71,
              "velocity": 41,
              "position": 17.239583333333332,
              "duration": 0.2625
            },
            {
              "pitch": 64,
              "velocity": 49,
              "position": 17.5,
              "duration": 0.24166666666666667
            },
            {
              "pitch": 48,
              "velocity": 50,
              "position": 17.489583333333332,
              "duration": 0.2625
            },
            {
              "pitch": 55,
              "velocity": 50,
              "position": 17.489583333333332,
              "duration": 0.2625
            },
            {
              "pitch": 59,
              "velocity": 50,
              "position": 17.489583333333332,
              "duration": 0.2625
            },
            {
              "pitch": 48,
              "velocity": 40,
              "position": 17.760416666666668,
              "duration": 0.22083333333333333
            },
            {
              "pitch": 55,
              "velocity": 40,
              "position": 17.760416666666668,
              "duration": 0.22083333333333333
            },
            {
              "pitch": 59,
              "velocity": 40,
              "position": 17.760416666666668,
              "duration": 0.22083333333333333
            },
            {
              "pitch": 60,
              "velocity": 50,
              "position": 17.5,
              "duration": 0.49166666666666664
            },
            {
              "pitch": 64,
              "velocity": 45,
              "position": 17.75,
              "duration": 0.24166666666666667
            },
            {
              "pitch": 67,
              "velocity": 50,
              "position": 17.510416666666668,
              "duration": 0.49166666666666664
            },
            {
              "pitch": 71,
              "velocity": 50,
              "position": 17.510416666666668,
              "duration": 0.49166666666666664
            },
            {
              "pitch": 48,
              "velocity": 53,
              "position": 17.989583333333332,
              "duration": 0.49166666666666664
            },
            {
              "pitch": 55,
              "velocity": 53,
              "position": 17.989583333333332,
              "duration": 0.49166666666666664
            },
            {
              "pitch": 59,
              "velocity": 53,
              "position": 17.989583333333332,
              "duration": 0.49166666666666664
            },
            {
              "pitch": 60,
              "velocity": 48,
              "position": 18,
              "duration": 0.49166666666666664
            },
            {
              "pitch": 64,
              "velocity": 47,
              "position": 18,
              "duration": 0.49166666666666664
            },
            {
              "pitch": 67,
              "velocity": 44,
              "position": 18.010416666666668,
              "duration": 0.49166666666666664
            },
            {
              "pitch": 71,
              "velocity": 44,
              "position": 18.010416666666668,
              "duration": 0.49166666666666664
            },
            {
              "pitch": 48,
              "velocity": 45,
              "position": 18.489583333333332,
              "duration": 0.49166666666666664
            },
            {
              "pitch": 55,
              "velocity": 45,
              "position": 18.489583333333332,
              "duration": 0.49166666666666664
            },
            {
              "pitch": 59,
              "velocity": 45,
              "position": 18.489583333333332,
              "duration": 0.49166666666666664
            },
            {
              "pitch": 60,
              "velocity": 48,
              "position": 18.5,
              "duration": 0.49166666666666664
            },
            {
              "pitch": 64,
              "velocity": 49,
              "position": 18.5,
              "duration": 0.49166666666666664
            },
            {
              "pitch": 67,
              "velocity": 51,
              "position": 18.510416666666668,
              "duration": 0.49166666666666664
            },
            {
              "pitch": 71,
              "velocity": 51,
              "position": 18.510416666666668,
              "duration": 0.49166666666666664
            },
            {
              "pitch": 67,
              "velocity": 36,
              "position": 19.010416666666668,
              "duration": 0.22083333333333333
            },
            {
              "pitch": 71,
              "velocity": 36,
              "position": 19.010416666666668,
              "duration": 0.22083333333333333
            },
            {
              "pitch": 60,
              "velocity": 36,
              "position": 19,
              "duration": 0.24166666666666667
            },
            {
              "pitch": 64,
              "velocity": 35,
              "position": 19,
              "duration": 0.24166666666666667
            },
            {
              "pitch": 48,
              "velocity": 36,
              "position": 18.989583333333332,
              "duration": 0.49166666666666664
            },
            {
              "pitch": 55,
              "velocity": 36,
              "position": 18.989583333333332,
              "duration": 0.49166666666666664
            },
            {
              "pitch": 59,
              "velocity": 36,
              "position": 18.989583333333332,
              "duration": 0.49166666666666664
            },
            {
              "pitch": 60,
              "velocity": 40,
              "position": 19.25,
              "duration": 0.24166666666666667
            },
            {
              "pitch": 64,
              "velocity": 44,
              "position": 19.25,
              "duration": 0.24166666666666667
            },
            {
              "pitch": 67,
              "velocity": 48,
              "position": 19.239583333333332,
              "duration": 0.2625
            },
            {
              "pitch": 71,
              "velocity": 48,
              "position": 19.239583333333332,
              "duration": 0.2625
            },
            {
              "pitch": 67,
              "velocity": 50,
              "position": 19.510416666666668,
              "duration": 0.22083333333333333
            },
            {
              "pitch": 71,
              "velocity": 50,
              "position": 19.510416666666668,
              "duration": 0.22083333333333333
            },
            {
              "pitch": 60,
              "velocity": 50,
              "position": 19.5,
              "duration": 0.24166666666666667
            },
            {
              "pitch": 64,
              "velocity": 49,
              "position": 19.5,
              "duration": 0.24166666666666667
            },
            {
              "pitch": 48,
              "velocity": 50,
              "position": 19.489583333333332,
              "duration": 0.49166666666666664
            },
            {
              "pitch": 55,
              "velocity": 50,
              "position": 19.489583333333332,
              "duration": 0.49166666666666664
            },
            {
              "pitch": 59,
              "velocity": 50,
              "position": 19.489583333333332,
              "duration": 0.49166666666666664
            },
            {
              "pitch": 60,
              "velocity": 38,
              "position": 19.75,
              "duration": 0.24166666666666667
            },
            {
              "pitch": 64,
              "velocity": 45,
              "position": 19.75,
              "duration": 0.24166666666666667
            },
            {
              "pitch": 67,
              "velocity": 43,
              "position": 19.739583333333332,
              "duration": 0.2625
            },
            {
              "pitch": 71,
              "velocity": 43,
              "position": 19.739583333333332,
              "duration": 0.2625
            },
            {
              "pitch": 48,
              "velocity": 44,
              "position": 19.989583333333332,
              "duration": 0.49166666666666664
            },
            {
              "pitch": 55,
              "velocity": 44,
              "position": 19.989583333333332,
              "duration": 0.49166666666666664
            },
            {
              "pitch": 59,
              "velocity": 44,
              "position": 19.989583333333332,
              "duration": 0.49166666666666664
            },
            {
              "pitch": 60,
              "velocity": 44,
              "position": 20,
              "duration": 0.49166666666666664
            },
            {
              "pitch": 64,
              "velocity": 43,
              "position": 20,
              "duration": 0.49166666666666664
            },
            {
              "pitch": 67,
              "velocity": 44,
              "position": 20.010416666666668,
              "duration": 0.49166666666666664
            },
            {
              "pitch": 71,
              "velocity": 44,
              "position": 20.010416666666668,
              "duration": 0.49166666666666664
            },
            {
              "pitch": 48,
              "velocity": 50,
              "position": 20.489583333333332,
              "duration": 0.49166666666666664
            },
            {
              "pitch": 55,
              "velocity": 50,
              "position": 20.489583333333332,
              "duration": 0.49166666666666664
            },
            {
              "pitch": 59,
              "velocity": 50,
              "position": 20.489583333333332,
              "duration": 0.49166666666666664
            },
            {
              "pitch": 60,
              "velocity": 50,
              "position": 20.5,
              "duration": 0.49166666666666664
            },
            {
              "pitch": 64,
              "velocity": 49,
              "position": 20.5,
              "duration": 0.49166666666666664
            },
            {
              "pitch": 67,
              "velocity": 50,
              "position": 20.510416666666668,
              "duration": 0.49166666666666664
            },
            {
              "pitch": 71,
              "velocity": 50,
              "position": 20.510416666666668,
              "duration": 0.49166666666666664
            },
            {
              "pitch": 67,
              "velocity": 36,
              "position": 21.010416666666668,
              "duration": 0.22083333333333333
            },
            {
              "pitch": 71,
              "velocity": 36,
              "position": 21.010416666666668,
              "duration": 0.22083333333333333
            },
            {
              "pitch": 60,
              "velocity": 36,
              "position": 21,
              "duration": 0.24166666666666667
            },
            {
              "pitch": 64,
              "velocity": 35,
              "position": 21,
              "duration": 0.24166666666666667
            },
            {
              "pitch": 48,
              "velocity": 36,
              "position": 20.989583333333332,
              "duration": 0.2625
            },
            {
              "pitch": 55,
              "velocity": 36,
              "position": 20.989583333333332,
              "duration": 0.2625
            },
            {
              "pitch": 59,
              "velocity": 36,
              "position": 20.989583333333332,
              "duration": 0.2625
            },
            {
              "pitch": 48,
              "velocity": 45,
              "position": 21.260416666666668,
              "duration": 0.22083333333333333
            },
            {
              "pitch": 55,
              "velocity": 45,
              "position": 21.260416666666668,
              "duration": 0.22083333333333333
            },
            {
              "pitch": 59,
              "velocity": 45,
              "position": 21.260416666666668,
              "duration": 0.22083333333333333
            },
            {
              "pitch": 60,
              "velocity": 40,
              "position": 21.25,
              "duration": 0.24166666666666667
            },
            {
              "pitch": 64,
              "velocity": 44,
              "position": 21.25,
              "duration": 0.24166666666666667
            },
            {
              "pitch": 67,
              "velocity": 48,
              "position": 21.239583333333332,
              "duration": 0.2625
            },
            {
              "pitch": 71,
              "velocity": 48,
              "position": 21.239583333333332,
              "duration": 0.2625
            },
            {
              "pitch": 48,
              "velocity": 50,
              "position": 21.489583333333332,
              "duration": 0.2520833333333333
            },
            {
              "pitch": 55,
              "velocity": 50,
              "position": 21.489583333333332,
              "duration": 0.2520833333333333
            },
            {
              "pitch": 59,
              "velocity": 50,
              "position": 21.489583333333332,
              "duration": 0.2520833333333333
            },
            {
              "pitch": 60,
              "velocity": 50,
              "position": 21.5,
              "duration": 0.24166666666666667
            },
            {
              "pitch": 64,
              "velocity": 49,
              "position": 21.5,
              "duration": 0.24166666666666667
            },
            {
              "pitch": 48,
              "velocity": 50,
              "position": 21.75,
              "duration": 0.23125
            },
            {
              "pitch": 55,
              "velocity": 50,
              "position": 21.75,
              "duration": 0.23125
            },
            {
              "pitch": 59,
              "velocity": 50,
              "position": 21.75,
              "duration": 0.23125
            },
            {
              "pitch": 60,
              "velocity": 35,
              "position": 21.75,
              "duration": 0.24166666666666667
            },
            {
              "pitch": 64,
              "velocity": 45,
              "position": 21.75,
              "duration": 0.24166666666666667
            },
            {
              "pitch": 67,
              "velocity": 50,
              "position": 21.510416666666668,
              "duration": 0.49166666666666664
            },
            {
              "pitch": 71,
              "velocity": 50,
              "position": 21.510416666666668,
              "duration": 0.49166666666666664
            },
            {
              "pitch": 48,
              "velocity": 48,
              "position": 21.989583333333332,
              "duration": 0.49166666666666664
            },
            {
              "pitch": 55,
              "velocity": 48,
              "position": 21.989583333333332,
              "duration": 0.49166666666666664
            },
            {
              "pitch": 59,
              "velocity": 48,
              "position": 21.989583333333332,
              "duration": 0.49166666666666664
            },
            {
              "pitch": 60,
              "velocity": 48,
              "position": 22,
              "duration": 0.49166666666666664
            },
            {
              "pitch": 64,
              "velocity": 47,
              "position": 22,
              "duration": 0.49166666666666664
            },
            {
              "pitch": 67,
              "velocity": 48,
              "position": 22.010416666666668,
              "duration": 0.49166666666666664
            },
            {
              "pitch": 71,
              "velocity": 48,
              "position": 22.010416666666668,
              "duration": 0.49166666666666664
            },
            {
              "pitch": 48,
              "velocity": 50,
              "position": 22.489583333333332,
              "duration": 0.49166666666666664
            },
            {
              "pitch": 55,
              "velocity": 50,
              "position": 22.489583333333332,
              "duration": 0.49166666666666664
            },
            {
              "pitch": 59,
              "velocity": 50,
              "position": 22.489583333333332,
              "duration": 0.49166666666666664
            },
            {
              "pitch": 60,
              "velocity": 50,
              "position": 22.5,
              "duration": 0.49166666666666664
            },
            {
              "pitch": 64,
              "velocity": 49,
              "position": 22.5,
              "duration": 0.49166666666666664
            },
            {
              "pitch": 67,
              "velocity": 50,
              "position": 22.510416666666668,
              "duration": 0.49166666666666664
            },
            {
              "pitch": 71,
              "velocity": 50,
              "position": 22.510416666666668,
              "duration": 0.49166666666666664
            },
            {
              "pitch": 67,
              "velocity": 36,
              "position": 23.010416666666668,
              "duration": 0.22083333333333333
            },
            {
              "pitch": 71,
              "velocity": 36,
              "position": 23.010416666666668,
              "duration": 0.22083333333333333
            },
            {
              "pitch": 60,
              "velocity": 36,
              "position": 23,
              "duration": 0.24166666666666667
            },
            {
              "pitch": 64,
              "velocity": 35,
              "position": 23,
              "duration": 0.24166666666666667
            },
            {
              "pitch": 48,
              "velocity": 36,
              "position": 22.989583333333332,
              "duration": 0.2625
            },
            {
              "pitch": 55,
              "velocity": 36,
              "position": 22.989583333333332,
              "duration": 0.2625
            },
            {
              "pitch": 59,
              "velocity": 36,
              "position": 22.989583333333332,
              "duration": 0.2625
            },
            {
              "pitch": 48,
              "velocity": 45,
              "position": 23.260416666666668,
              "duration": 0.22083333333333333
            },
            {
              "pitch": 55,
              "velocity": 45,
              "position": 23.260416666666668,
              "duration": 0.22083333333333333
            },
            {
              "pitch": 59,
              "velocity": 45,
              "position": 23.260416666666668,
              "duration": 0.22083333333333333
            },
            {
              "pitch": 60,
              "velocity": 40,
              "position": 23.25,
              "duration": 0.24166666666666667
            },
            {
              "pitch": 64,
              "velocity": 44,
              "position": 23.25,
              "duration": 0.24166666666666667
            },
            {
              "pitch": 67,
              "velocity": 48,
              "position": 23.239583333333332,
              "duration": 0.2625
            },
            {
              "pitch": 71,
              "velocity": 48,
              "position": 23.239583333333332,
              "duration": 0.2625
            },
            {
              "pitch": 60,
              "velocity": 50,
              "position": 23.5,
              "duration": 0.24166666666666667
            },
            {
              "pitch": 64,
              "velocity": 49,
              "position": 23.5,
              "duration": 0.24166666666666667
            },
            {
              "pitch": 48,
              "velocity": 50,
              "position": 23.489583333333332,
              "duration": 0.2625
            },
            {
              "pitch": 55,
              "velocity": 50,
              "position": 23.489583333333332,
              "duration": 0.2625
            },
            {
              "pitch": 59,
              "velocity": 50,
              "position": 23.489583333333332,
              "duration": 0.2625
            },
            {
              "pitch": 48,
              "velocity": 46,
              "position": 23.760416666666668,
              "duration": 0.23125
            },
            {
              "pitch": 55,
              "velocity": 46,
              "position": 23.760416666666668,
              "duration": 0.23125
            },
            {
              "pitch": 59,
              "velocity": 46,
              "position": 23.760416666666668,
              "duration": 0.23125
            },
            {
              "pitch": 64,
              "velocity": 45,
              "position": 23.75,
              "duration": 0.24166666666666667
            },
            {
              "pitch": 67,
              "velocity": 50,
              "position": 23.510416666666668,
              "duration": 0.48125
            },
            {
              "pitch": 71,
              "velocity": 50,
              "position": 23.510416666666668,
              "duration": 0.48125
            },
            {
              "pitch": 48,
              "velocity": 49,
              "position": 24,
              "duration": 0.48125
            },
            {
              "pitch": 55,
              "velocity": 49,
              "position": 24,
              "duration": 0.48125
            },
            {
              "pitch": 59,
              "velocity": 49,
              "position": 24,
              "duration": 0.48125
            },
            {
              "pitch": 60,
              "velocity": 38,
              "position": 23.75,
              "duration": 0.7416666666666667
            },
            {
              "pitch": 64,
              "velocity": 43,
              "position": 24,
              "duration": 0.49166666666666664
            },
            {
              "pitch": 67,
              "velocity": 52,
              "position": 24,
              "duration": 0.5020833333333333
            },
            {
              "pitch": 71,
              "velocity": 52,
              "position": 24,
              "duration": 0.5020833333333333
            },
            {
              "pitch": 48,
              "velocity": 49,
              "position": 24.489583333333332,
              "duration": 0.49166666666666664
            },
            {
              "pitch": 55,
              "velocity": 49,
              "position": 24.489583333333332,
              "duration": 0.49166666666666664
            },
            {
              "pitch": 59,
              "velocity": 49,
              "position": 24.489583333333332,
              "duration": 0.49166666666666664
            },
            {
              "pitch": 60,
              "velocity": 48,
              "position": 24.5,
              "duration": 0.49166666666666664
            },
            {
              "pitch": 64,
              "velocity": 49,
              "position": 24.5,
              "duration": 0.49166666666666664
            },
            {
              "pitch": 67,
              "velocity": 51,
              "position": 24.510416666666668,
              "duration": 0.49166666666666664
            },
            {
              "pitch": 71,
              "velocity": 51,
              "position": 24.510416666666668,
              "duration": 0.49166666666666664
            },
            {
              "pitch": 67,
              "velocity": 36,
              "position": 25.010416666666668,
              "duration": 0.22083333333333333
            },
            {
              "pitch": 71,
              "velocity": 36,
              "position": 25.010416666666668,
              "duration": 0.22083333333333333
            },
            {
              "pitch": 60,
              "velocity": 36,
              "position": 25,
              "duration": 0.24166666666666667
            },
            {
              "pitch": 64,
              "velocity": 35,
              "position": 25,
              "duration": 0.24166666666666667
            },
            {
              "pitch": 48,
              "velocity": 36,
              "position": 24.989583333333332,
              "duration": 0.2625
            },
            {
              "pitch": 55,
              "velocity": 36,
              "position": 24.989583333333332,
              "duration": 0.2625
            },
            {
              "pitch": 59,
              "velocity": 36,
              "position": 24.989583333333332,
              "duration": 0.2625
            },
            {
              "pitch": 48,
              "velocity": 45,
              "position": 25.260416666666668,
              "duration": 0.22083333333333333
            },
            {
              "pitch": 55,
              "velocity": 45,
              "position": 25.260416666666668,
              "duration": 0.22083333333333333
            },
            {
              "pitch": 59,
              "velocity": 45,
              "position": 25.260416666666668,
              "duration": 0.22083333333333333
            },
            {
              "pitch": 60,
              "velocity": 40,
              "position": 25.25,
              "duration": 0.24166666666666667
            },
            {
              "pitch": 64,
              "velocity": 44,
              "position": 25.25,
              "duration": 0.24166666666666667
            },
            {
              "pitch": 67,
              "velocity": 41,
              "position": 25.239583333333332,
              "duration": 0.2625
            },
            {
              "pitch": 71,
              "velocity": 41,
              "position": 25.239583333333332,
              "duration": 0.2625
            },
            {
              "pitch": 67,
              "velocity": 50,
              "position": 25.510416666666668,
              "duration": 0.22083333333333333
            },
            {
              "pitch": 71,
              "velocity": 50,
              "position": 25.510416666666668,
              "duration": 0.22083333333333333
            },
            {
              "pitch": 64,
              "velocity": 49,
              "position": 25.5,
              "duration": 0.24166666666666667
            },
            {
              "pitch": 48,
              "velocity": 50,
              "position": 25.489583333333332,
              "duration": 0.2625
            },
            {
              "pitch": 55,
              "velocity": 50,
              "position": 25.489583333333332,
              "duration": 0.2625
            },
            {
              "pitch": 59,
              "velocity": 50,
              "position": 25.489583333333332,
              "duration": 0.2625
            },
            {
              "pitch": 48,
              "velocity": 40,
              "position": 25.760416666666668,
              "duration": 0.22083333333333333
            },
            {
              "pitch": 55,
              "velocity": 40,
              "position": 25.760416666666668,
              "duration": 0.22083333333333333
            },
            {
              "pitch": 59,
              "velocity": 40,
              "position": 25.760416666666668,
              "duration": 0.22083333333333333
            },
            {
              "pitch": 60,
              "velocity": 50,
              "position": 25.5,
              "duration": 0.49166666666666664
            },
            {
              "pitch": 64,
              "velocity": 45,
              "position": 25.75,
              "duration": 0.24166666666666667
            },
            {
              "pitch": 67,
              "velocity": 41,
              "position": 25.739583333333332,
              "duration": 0.2625
            },
            {
              "pitch": 71,
              "velocity": 41,
              "position": 25.739583333333332,
              "duration": 0.2625
            },
            {
              "pitch": 48,
              "velocity": 53,
              "position": 25.989583333333332,
              "duration": 0.49166666666666664
            },
            {
              "pitch": 55,
              "velocity": 53,
              "position": 25.989583333333332,
              "duration": 0.49166666666666664
            },
            {
              "pitch": 59,
              "velocity": 53,
              "position": 25.989583333333332,
              "duration": 0.49166666666666664
            },
            {
              "pitch": 60,
              "velocity": 48,
              "position": 26,
              "duration": 0.49166666666666664
            },
            {
              "pitch": 64,
              "velocity": 47,
              "position": 26,
              "duration": 0.49166666666666664
            },
            {
              "pitch": 67,
              "velocity": 44,
              "position": 26.010416666666668,
              "duration": 0.49166666666666664
            },
            {
              "pitch": 71,
              "velocity": 44,
              "position": 26.010416666666668,
              "duration": 0.49166666666666664
            },
            {
              "pitch": 48,
              "velocity": 45,
              "position": 26.489583333333332,
              "duration": 0.49166666666666664
            },
            {
              "pitch": 55,
              "velocity": 45,
              "position": 26.489583333333332,
              "duration": 0.49166666666666664
            },
            {
              "pitch": 59,
              "velocity": 45,
              "position": 26.489583333333332,
              "duration": 0.49166666666666664
            },
            {
              "pitch": 60,
              "velocity": 48,
              "position": 26.5,
              "duration": 0.49166666666666664
            },
            {
              "pitch": 64,
              "velocity": 49,
              "position": 26.5,
              "duration": 0.49166666666666664
            },
            {
              "pitch": 67,
              "velocity": 51,
              "position": 26.510416666666668,
              "duration": 0.49166666666666664
            },
            {
              "pitch": 71,
              "velocity": 51,
              "position": 26.510416666666668,
              "duration": 0.49166666666666664
            },
            {
              "pitch": 67,
              "velocity": 36,
              "position": 27.010416666666668,
              "duration": 0.22083333333333333
            },
            {
              "pitch": 71,
              "velocity": 36,
              "position": 27.010416666666668,
              "duration": 0.22083333333333333
            },
            {
              "pitch": 60,
              "velocity": 36,
              "position": 27,
              "duration": 0.24166666666666667
            },
            {
              "pitch": 64,
              "velocity": 35,
              "position": 27,
              "duration": 0.24166666666666667
            },
            {
              "pitch": 48,
              "velocity": 36,
              "position": 26.989583333333332,
              "duration": 0.49166666666666664
            },
            {
              "pitch": 55,
              "velocity": 36,
              "position": 26.989583333333332,
              "duration": 0.49166666666666664
            },
            {
              "pitch": 59,
              "velocity": 36,
              "position": 26.989583333333332,
              "duration": 0.49166666666666664
            },
            {
              "pitch": 60,
              "velocity": 40,
              "position": 27.25,
              "duration": 0.24166666666666667
            },
            {
              "pitch": 64,
              "velocity": 44,
              "position": 27.25,
              "duration": 0.24166666666666667
            },
            {
              "pitch": 67,
              "velocity": 48,
              "position": 27.239583333333332,
              "duration": 0.2625
            },
            {
              "pitch": 71,
              "velocity": 48,
              "position": 27.239583333333332,
              "duration": 0.2625
            },
            {
              "pitch": 67,
              "velocity": 50,
              "position": 27.510416666666668,
              "duration": 0.22083333333333333
            },
            {
              "pitch": 71,
              "velocity": 50,
              "position": 27.510416666666668,
              "duration": 0.22083333333333333
            },
            {
              "pitch": 60,
              "velocity": 50,
              "position": 27.5,
              "duration": 0.24166666666666667
            },
            {
              "pitch": 64,
              "velocity": 49,
              "position": 27.5,
              "duration": 0.24166666666666667
            },
            {
              "pitch": 48,
              "velocity": 50,
              "position": 27.489583333333332,
              "duration": 0.49166666666666664
            },
            {
              "pitch": 55,
              "velocity": 50,
              "position": 27.489583333333332,
              "duration": 0.49166666666666664
            },
            {
              "pitch": 59,
              "velocity": 50,
              "position": 27.489583333333332,
              "duration": 0.49166666666666664
            },
            {
              "pitch": 60,
              "velocity": 38,
              "position": 27.75,
              "duration": 0.24166666666666667
            },
            {
              "pitch": 64,
              "velocity": 45,
              "position": 27.75,
              "duration": 0.24166666666666667
            },
            {
              "pitch": 67,
              "velocity": 43,
              "position": 27.739583333333332,
              "duration": 0.2625
            },
            {
              "pitch": 71,
              "velocity": 43,
              "position": 27.739583333333332,
              "duration": 0.2625
            },
            {
              "pitch": 48,
              "velocity": 44,
              "position": 27.989583333333332,
              "duration": 0.49166666666666664
            },
            {
              "pitch": 55,
              "velocity": 44,
              "position": 27.989583333333332,
              "duration": 0.49166666666666664
            },
            {
              "pitch": 59,
              "velocity": 44,
              "position": 27.989583333333332,
              "duration": 0.49166666666666664
            },
            {
              "pitch": 60,
              "velocity": 44,
              "position": 28,
              "duration": 0.49166666666666664
            },
            {
              "pitch": 64,
              "velocity": 43,
              "position": 28,
              "duration": 0.49166666666666664
            },
            {
              "pitch": 67,
              "velocity": 44,
              "position": 28.010416666666668,
              "duration": 0.49166666666666664
            },
            {
              "pitch": 71,
              "velocity": 44,
              "position": 28.010416666666668,
              "duration": 0.49166666666666664
            },
            {
              "pitch": 48,
              "velocity": 50,
              "position": 28.489583333333332,
              "duration": 0.49166666666666664
            },
            {
              "pitch": 55,
              "velocity": 50,
              "position": 28.489583333333332,
              "duration": 0.49166666666666664
            },
            {
              "pitch": 59,
              "velocity": 50,
              "position": 28.489583333333332,
              "duration": 0.49166666666666664
            },
            {
              "pitch": 60,
              "velocity": 50,
              "position": 28.5,
              "duration": 0.49166666666666664
            },
            {
              "pitch": 64,
              "velocity": 49,
              "position": 28.5,
              "duration": 0.49166666666666664
            },
            {
              "pitch": 67,
              "velocity": 50,
              "position": 28.510416666666668,
              "duration": 0.49166666666666664
            },
            {
              "pitch": 71,
              "velocity": 50,
              "position": 28.510416666666668,
              "duration": 0.49166666666666664
            },
            {
              "pitch": 67,
              "velocity": 36,
              "position": 29.010416666666668,
              "duration": 0.22083333333333333
            },
            {
              "pitch": 71,
              "velocity": 36,
              "position": 29.010416666666668,
              "duration": 0.22083333333333333
            },
            {
              "pitch": 60,
              "velocity": 36,
              "position": 29,
              "duration": 0.24166666666666667
            },
            {
              "pitch": 64,
              "velocity": 35,
              "position": 29,
              "duration": 0.24166666666666667
            },
            {
              "pitch": 48,
              "velocity": 36,
              "position": 28.989583333333332,
              "duration": 0.2625
            },
            {
              "pitch": 55,
              "velocity": 36,
              "position": 28.989583333333332,
              "duration": 0.2625
            },
            {
              "pitch": 59,
              "velocity": 36,
              "position": 28.989583333333332,
              "duration": 0.2625
            },
            {
              "pitch": 48,
              "velocity": 45,
              "position": 29.260416666666668,
              "duration": 0.22083333333333333
            },
            {
              "pitch": 55,
              "velocity": 45,
              "position": 29.260416666666668,
              "duration": 0.22083333333333333
            },
            {
              "pitch": 59,
              "velocity": 45,
              "position": 29.260416666666668,
              "duration": 0.22083333333333333
            },
            {
              "pitch": 64,
              "velocity": 44,
              "position": 29.25,
              "duration": 0.24166666666666667
            },
            {
              "pitch": 67,
              "velocity": 41,
              "position": 29.239583333333332,
              "duration": 0.2625
            },
            {
              "pitch": 71,
              "velocity": 41,
              "position": 29.239583333333332,
              "duration": 0.2625
            },
            {
              "pitch": 67,
              "velocity": 50,
              "position": 29.510416666666668,
              "duration": 0.22083333333333333
            },
            {
              "pitch": 71,
              "velocity": 50,
              "position": 29.510416666666668,
              "duration": 0.22083333333333333
            },
            {
              "pitch": 60,
              "velocity": 41,
              "position": 29.25,
              "duration": 0.49166666666666664
            },
            {
              "pitch": 64,
              "velocity": 49,
              "position": 29.5,
              "duration": 0.24166666666666667
            },
            {
              "pitch": 48,
              "velocity": 41,
              "position": 29.489583333333332,
              "duration": 0.49166666666666664
            },
            {
              "pitch": 55,
              "velocity": 41,
              "position": 29.489583333333332,
              "duration": 0.49166666666666664
            },
            {
              "pitch": 59,
              "velocity": 41,
              "position": 29.489583333333332,
              "duration": 0.49166666666666664
            },
            {
              "pitch": 60,
              "velocity": 38,
              "position": 29.75,
              "duration": 0.24166666666666667
            },
            {
              "pitch": 64,
              "velocity": 45,
              "position": 29.75,
              "duration": 0.24166666666666667
            },
            {
              "pitch": 67,
              "velocity": 41,
              "position": 29.739583333333332,
              "duration": 0.2625
            },
            {
              "pitch": 71,
              "velocity": 41,
              "position": 29.739583333333332,
              "duration": 0.2625
            },
            {
              "pitch": 48,
              "velocity": 48,
              "position": 29.989583333333332,
              "duration": 0.49166666666666664
            },
            {
              "pitch": 55,
              "velocity": 48,
              "position": 29.989583333333332,
              "duration": 0.49166666666666664
            },
            {
              "pitch": 59,
              "velocity": 48,
              "position": 29.989583333333332,
              "duration": 0.49166666666666664
            },
            {
              "pitch": 60,
              "velocity": 48,
              "position": 30,
              "duration": 0.49166666666666664
            },
            {
              "pitch": 64,
              "velocity": 47,
              "position": 30,
              "duration": 0.49166666666666664
            },
            {
              "pitch": 67,
              "velocity": 48,
              "position": 30.010416666666668,
              "duration": 0.49166666666666664
            },
            {
              "pitch": 71,
              "velocity": 48,
              "position": 30.010416666666668,
              "duration": 0.49166666666666664
            },
            {
              "pitch": 48,
              "velocity": 50,
              "position": 30.489583333333332,
              "duration": 0.49166666666666664
            },
            {
              "pitch": 55,
              "velocity": 50,
              "position": 30.489583333333332,
              "duration": 0.49166666666666664
            },
            {
              "pitch": 59,
              "velocity": 50,
              "position": 30.489583333333332,
              "duration": 0.49166666666666664
            },
            {
              "pitch": 60,
              "velocity": 50,
              "position": 30.5,
              "duration": 0.49166666666666664
            },
            {
              "pitch": 64,
              "velocity": 49,
              "position": 30.5,
              "duration": 0.49166666666666664
            },
            {
              "pitch": 67,
              "velocity": 50,
              "position": 30.510416666666668,
              "duration": 0.49166666666666664
            },
            {
              "pitch": 71,
              "velocity": 50,
              "position": 30.510416666666668,
              "duration": 0.49166666666666664
            },
            {
              "pitch": 67,
              "velocity": 36,
              "position": 31.010416666666668,
              "duration": 0.22083333333333333
            },
            {
              "pitch": 71,
              "velocity": 36,
              "position": 31.010416666666668,
              "duration": 0.22083333333333333
            },
            {
              "pitch": 60,
              "velocity": 36,
              "position": 31,
              "duration": 0.24166666666666667
            },
            {
              "pitch": 64,
              "velocity": 35,
              "position": 31,
              "duration": 0.24166666666666667
            },
            {
              "pitch": 48,
              "velocity": 36,
              "position": 30.989583333333332,
              "duration": 0.2625
            },
            {
              "pitch": 55,
              "velocity": 36,
              "position": 30.989583333333332,
              "duration": 0.2625
            },
            {
              "pitch": 59,
              "velocity": 36,
              "position": 30.989583333333332,
              "duration": 0.2625
            },
            {
              "pitch": 48,
              "velocity": 45,
              "position": 31.260416666666668,
              "duration": 0.22083333333333333
            },
            {
              "pitch": 55,
              "velocity": 45,
              "position": 31.260416666666668,
              "duration": 0.22083333333333333
            },
            {
              "pitch": 59,
              "velocity": 45,
              "position": 31.260416666666668,
              "duration": 0.22083333333333333
            },
            {
              "pitch": 60,
              "velocity": 40,
              "position": 31.25,
              "duration": 0.24166666666666667
            },
            {
              "pitch": 64,
              "velocity": 44,
              "position": 31.25,
              "duration": 0.24166666666666667
            },
            {
              "pitch": 67,
              "velocity": 48,
              "position": 31.239583333333332,
              "duration": 0.2625
            },
            {
              "pitch": 71,
              "velocity": 48,
              "position": 31.239583333333332,
              "duration": 0.2625
            },
            {
              "pitch": 67,
              "velocity": 50,
              "position": 31.510416666666668,
              "duration": 0.22083333333333333
            },
            {
              "pitch": 71,
              "velocity": 50,
              "position": 31.510416666666668,
              "duration": 0.22083333333333333
            },
            {
              "pitch": 60,
              "velocity": 50,
              "position": 31.5,
              "duration": 0.24166666666666667
            },
            {
              "pitch": 64,
              "velocity": 49,
              "position": 31.5,
              "duration": 0.24166666666666667
            },
            {
              "pitch": 48,
              "velocity": 50,
              "position": 31.489583333333332,
              "duration": 0.2625
            },
            {
              "pitch": 55,
              "velocity": 50,
              "position": 31.489583333333332,
              "duration": 0.2625
            },
            {
              "pitch": 59,
              "velocity": 50,
              "position": 31.489583333333332,
              "duration": 0.2625
            },
            {
              "pitch": 48,
              "velocity": 41,
              "position": 31.760416666666668,
              "duration": 0.23125
            },
            {
              "pitch": 55,
              "velocity": 41,
              "position": 31.760416666666668,
              "duration": 0.23125
            },
            {
              "pitch": 59,
              "velocity": 41,
              "position": 31.760416666666668,
              "duration": 0.23125
            },
            {
              "pitch": 60,
              "velocity": 38,
              "position": 31.75,
              "duration": 0.24166666666666667
            },
            {
              "pitch": 64,
              "velocity": 45,
              "position": 31.75,
              "duration": 0.24166666666666667
            },
            {
              "pitch": 67,
              "velocity": 41,
              "position": 31.739583333333332,
              "duration": 0.2520833333333333
            },
            {
              "pitch": 71,
              "velocity": 41,
              "position": 31.739583333333332,
              "duration": 0.2520833333333333
            }
          ]
        },
        "14": {
          "ctab": {
            "srcChannel": 14,
            "name": "Gt_Ba",
            "accType": "PHRASE1",
            "editable": false,
            "mutedNotes": [],
            "mutedChords": [],
            "autoStart": false,
            "sourceChordNote": 0,
            "sourceChordType": "Maj7",
            "ctb2Low": null,
            "ctb2Main": {
              "ntr": "ROOT_TRANSPOSITION",
              "ntt": "MELODY",
              "bassOn": true,
              "chordRootUpperLimit": 8,
              "noteLowLimit": 40,
              "noteHighLimit": 52,
              "rtr": "PITCH_SHIFT_TO_ROOT"
            },
            "ctb2High": null
          },
          "notes": [
            {
              "pitch": 48,
              "velocity": 80,
              "position": 0,
              "duration": 0.96875
            },
            {
              "pitch": 43,
              "velocity": 75,
              "position": 1,
              "duration": 0.9791666666666666
            },
            {
              "pitch": 48,
              "velocity": 80,
              "position": 2,
              "duration": 0.96875
            },
            {
              "pitch": 43,
              "velocity": 75,
              "position": 3,
              "duration": 0.9791666666666666
            },
            {
              "pitch": 48,
              "velocity": 80,
              "position": 4,
              "duration": 0.96875
            },
            {
              "pitch": 43,
              "velocity": 75,
              "position": 5,
              "duration": 0.9791666666666666
            },
            {
              "pitch": 48,
              "velocity": 80,
              "position": 6,
              "duration": 0.96875
            },
            {
              "pitch": 43,
              "velocity": 75,
              "position": 7,
              "duration": 0.9791666666666666
            },
            {
              "pitch": 48,
              "velocity": 80,
              "position": 8,
              "duration": 0.96875
            },
            {
              "pitch": 43,
              "velocity": 75,
              "position": 9,
              "duration": 0.9791666666666666
            },
            {
              "pitch": 48,
              "velocity": 80,
              "position": 10,
              "duration": 0.96875
            },
            {
              "pitch": 43,
              "velocity": 75,
              "position": 11,
              "duration": 0.9791666666666666
            },
            {
              "pitch": 48,
              "velocity": 80,
              "position": 12,
              "duration": 0.96875
            },
            {
              "pitch": 43,
              "velocity": 75,
              "position": 13,
              "duration": 0.9791666666666666
            },
            {
              "pitch": 48,
              "velocity": 80,
              "position": 14,
              "duration": 0.96875
            },
            {
              "pitch": 43,
              "velocity": 75,
              "position": 15,
              "duration": 0.9791666666666666
            },
            {
              "pitch": 48,
              "velocity": 80,
              "position": 16,
              "duration": 0.96875
            },
            {
              "pitch": 43,
              "velocity": 75,
              "position": 17,
              "duration": 0.975
            },
            {
              "pitch": 48,
              "velocity": 80,
              "position": 18,
              "duration": 0.96875
            },
            {
              "pitch": 43,
              "velocity": 75,
              "position": 19,
              "duration": 0.975
            },
            {
              "pitch": 48,
              "velocity": 80,
              "position": 20,
              "duration": 0.96875
            },
            {
              "pitch": 43,
              "velocity": 75,
              "position": 21,
              "duration": 0.975
            },
            {
              "pitch": 48,
              "velocity": 80,
              "position": 22,
              "duration": 0.96875
            },
            {
              "pitch": 43,
              "velocity": 75,
              "position": 23,
              "duration": 0.975
            },
            {
              "pitch": 48,
              "velocity": 80,
              "position": 24,
              "duration": 0.96875
            },
            {
              "pitch": 43,
              "velocity": 75,
              "position": 25,
              "duration": 0.975
            },
            {
              "pitch": 48,
              "velocity": 80,
              "position": 26,
              "duration": 0.96875
            },
            {
              "pitch": 43,
              "velocity": 75,
              "position": 27,
              "duration": 0.975
            },
            {
              "pitch": 48,
              "velocity": 80,
              "position": 28,
              "duration": 0.96875
            },
            {
              "pitch": 43,
              "velocity": 75,
              "position": 29,
              "duration": 0.975
            },
            {
              "pitch": 48,
              "velocity": 80,
              "position": 30,
              "duration": 0.96875
            },
            {
              "pitch": 43,
              "velocity": 75,
              "position": 31,
              "duration": 0.975
            }
          ]
        },
        "15": {
          "ctab": {
            "srcChannel": 15,
            "name": "Gt_Arp",
            "accType": "PHRASE2",
            "editable": false,
            "mutedNotes": [],
            "mutedChords": [],
            "autoStart": false,
            "sourceChordNote": 0,
            "sourceChordType": "Maj7",
            "ctb2Low": null,
            "ctb2Main": {
              "ntr": "ROOT_TRANSPOSITION",
              "ntt": "CHORD",
              "bassOn": false,
              "chordRootUpperLimit": 8,
              "noteLowLimit": 0,
              "noteHighLimit": 127,
              "rtr": "PITCH_SHIFT"
            },
            "ctb2High": null
          },
          "notes": [
            {
              "pitch": 60,
              "velocity": 67,
              "position": 0.25,
              "duration": 0.9895833333333334
            },
            {
              "pitch": 55,
              "velocity": 59,
              "position": 0.5,
              "duration": 0.9895833333333334
            },
            {
              "pitch": 59,
              "velocity": 59,
              "position": 0.5,
              "duration": 0.9895833333333334
            },
            {
              "pitch": 60,
              "velocity": 54,
              "position": 1.25,
              "duration": 0.4895833333333333
            },
            {
              "pitch": 55,
              "velocity": 82,
              "position": 1.5,
              "duration": 0.5
            },
            {
              "pitch": 59,
              "velocity": 82,
              "position": 1.5,
              "duration": 0.5
            },
            {
              "pitch": 60,
              "velocity": 55,
              "position": 1.75,
              "duration": 0.25
            },
            {
              "pitch": 64,
              "velocity": 91,
              "position": 0.75,
              "duration": 1.25
            },
            {
              "pitch": 60,
              "velocity": 72,
              "position": 2.25,
              "duration": 0.9895833333333334
            },
            {
              "pitch": 55,
              "velocity": 60,
              "position": 2.5,
              "duration": 0.9895833333333334
            },
            {
              "pitch": 59,
              "velocity": 60,
              "position": 2.5,
              "duration": 0.9895833333333334
            },
            {
              "pitch": 60,
              "velocity": 58,
              "position": 3.25,
              "duration": 0.4895833333333333
            },
            {
              "pitch": 55,
              "velocity": 75,
              "position": 3.5,
              "duration": 0.5
            },
            {
              "pitch": 59,
              "velocity": 75,
              "position": 3.5,
              "duration": 0.5
            },
            {
              "pitch": 60,
              "velocity": 58,
              "position": 3.75,
              "duration": 0.25
            },
            {
              "pitch": 64,
              "velocity": 91,
              "position": 2.75,
              "duration": 1.25
            },
            {
              "pitch": 60,
              "velocity": 85,
              "position": 4.25,
              "duration": 0.9895833333333334
            },
            {
              "pitch": 55,
              "velocity": 59,
              "position": 4.5,
              "duration": 0.9895833333333334
            },
            {
              "pitch": 59,
              "velocity": 59,
              "position": 4.5,
              "duration": 0.9895833333333334
            },
            {
              "pitch": 60,
              "velocity": 76,
              "position": 5.25,
              "duration": 0.4895833333333333
            },
            {
              "pitch": 55,
              "velocity": 70,
              "position": 5.5,
              "duration": 0.5
            },
            {
              "pitch": 59,
              "velocity": 70,
              "position": 5.5,
              "duration": 0.5
            },
            {
              "pitch": 60,
              "velocity": 69,
              "position": 5.75,
              "duration": 0.25
            },
            {
              "pitch": 64,
              "velocity": 74,
              "position": 4.75,
              "duration": 1.25
            },
            {
              "pitch": 60,
              "velocity": 68,
              "position": 6.25,
              "duration": 0.9895833333333334
            },
            {
              "pitch": 55,
              "velocity": 62,
              "position": 6.5,
              "duration": 0.9895833333333334
            },
            {
              "pitch": 59,
              "velocity": 62,
              "position": 6.5,
              "duration": 0.9895833333333334
            },
            {
              "pitch": 60,
              "velocity": 53,
              "position": 7.25,
              "duration": 0.4895833333333333
            },
            {
              "pitch": 55,
              "velocity": 74,
              "position": 7.5,
              "duration": 0.5
            },
            {
              "pitch": 59,
              "velocity": 74,
              "position": 7.5,
              "duration": 0.5
            },
            {
              "pitch": 60,
              "velocity": 56,
              "position": 7.75,
              "duration": 0.25
            },
            {
              "pitch": 64,
              "velocity": 91,
              "position": 6.75,
              "duration": 1.25
            },
            {
              "pitch": 60,
              "velocity": 74,
              "position": 8.25,
              "duration": 0.9895833333333334
            },
            {
              "pitch": 55,
              "velocity": 57,
              "position": 8.5,
              "duration": 0.9895833333333334
            },
            {
              "pitch": 59,
              "velocity": 57,
              "position": 8.5,
              "duration": 0.9895833333333334
            },
            {
              "pitch": 60,
              "velocity": 53,
              "position": 9.25,
              "duration": 0.4895833333333333
            },
            {
              "pitch": 55,
              "velocity": 72,
              "position": 9.5,
              "duration": 0.5
            },
            {
              "pitch": 59,
              "velocity": 72,
              "position": 9.5,
              "duration": 0.5
            },
            {
              "pitch": 60,
              "velocity": 59,
              "position": 9.75,
              "duration": 0.25
            },
            {
              "pitch": 64,
              "velocity": 84,
              "position": 8.75,
              "duration": 1.25
            },
            {
              "pitch": 60,
              "velocity": 69,
              "position": 10.25,
              "duration": 0.4895833333333333
            },
            {
              "pitch": 64,
              "velocity": 79,
              "position": 10.770833333333334,
              "duration": 0.46875
            },
            {
              "pitch": 55,
              "velocity": 62,
              "position": 10.5,
              "duration": 0.9895833333333334
            },
            {
              "pitch": 59,
              "velocity": 62,
              "position": 10.5,
              "duration": 0.9895833333333334
            },
            {
              "pitch": 60,
              "velocity": 70,
              "position": 10.75,
              "duration": 0.9895833333333334
            },
            {
              "pitch": 64,
              "velocity": 65,
              "position": 11.25,
              "duration": 0.7395833333333334
            },
            {
              "pitch": 55,
              "velocity": 77,
              "position": 11.5,
              "duration": 0.5
            },
            {
              "pitch": 59,
              "velocity": 77,
              "position": 11.5,
              "duration": 0.5
            },
            {
              "pitch": 60,
              "velocity": 53,
              "position": 11.75,
              "duration": 0.25
            },
            {
              "pitch": 60,
              "velocity": 80,
              "position": 12.25,
              "duration": 0.9895833333333334
            },
            {
              "pitch": 55,
              "velocity": 62,
              "position": 12.5,
              "duration": 0.9895833333333334
            },
            {
              "pitch": 59,
              "velocity": 62,
              "position": 12.5,
              "duration": 0.9895833333333334
            },
            {
              "pitch": 60,
              "velocity": 72,
              "position": 13.25,
              "duration": 0.4895833333333333
            },
            {
              "pitch": 55,
              "velocity": 70,
              "position": 13.5,
              "duration": 0.5
            },
            {
              "pitch": 59,
              "velocity": 70,
              "position": 13.5,
              "duration": 0.5
            },
            {
              "pitch": 60,
              "velocity": 69,
              "position": 13.75,
              "duration": 0.25
            },
            {
              "pitch": 64,
              "velocity": 67,
              "position": 12.75,
              "duration": 1.25
            },
            {
              "pitch": 60,
              "velocity": 77,
              "position": 14.25,
              "duration": 0.9895833333333334
            },
            {
              "pitch": 55,
              "velocity": 59,
              "position": 14.5,
              "duration": 0.9895833333333334
            },
            {
              "pitch": 59,
              "velocity": 59,
              "position": 14.5,
              "duration": 0.9895833333333334
            },
            {
              "pitch": 60,
              "velocity": 59,
              "position": 15.25,
              "duration": 0.4895833333333333
            },
            {
              "pitch": 55,
              "velocity": 79,
              "position": 15.5,
              "duration": 0.5
            },
            {
              "pitch": 59,
              "velocity": 79,
              "position": 15.5,
              "duration": 0.5
            },
            {
              "pitch": 60,
              "velocity": 55,
              "position": 15.75,
              "duration": 0.25
            },
            {
              "pitch": 64,
              "velocity": 94,
              "position": 14.75,
              "duration": 1.25
            },
            {
              "pitch": 60,
              "velocity": 73,
              "position": 16.25,
              "duration": 0.9895833333333334
            },
            {
              "pitch": 55,
              "velocity": 65,
              "position": 16.5,
              "duration": 0.9895833333333334
            },
            {
              "pitch": 59,
              "velocity": 65,
              "position": 16.5,
              "duration": 0.9895833333333334
            },
            {
              "pitch": 60,
              "velocity": 57,
              "position": 17.25,
              "duration": 0.4895833333333333
            },
            {
              "pitch": 55,
              "velocity": 85,
              "position": 17.5,
              "duration": 0.5
            },
            {
              "pitch": 59,
              "velocity": 85,
              "position": 17.5,
              "duration": 0.5
            },
            {
              "pitch": 60,
              "velocity": 64,
              "position": 17.75,
              "duration": 0.25
            },
            {
              "pitch": 64,
              "velocity": 86,
              "position": 16.75,
              "duration": 1.25
            },
            {
              "pitch": 60,
              "velocity": 69,
              "position": 18.25,
              "duration": 0.9895833333333334
            },
            {
              "pitch": 55,
              "velocity": 56,
              "position": 18.5,
              "duration": 0.9895833333333334
            },
            {
              "pitch": 59,
              "velocity": 56,
              "position": 18.5,
              "duration": 0.9895833333333334
            },
            {
              "pitch": 60,
              "velocity": 65,
              "position": 19.25,
              "duration": 0.4895833333333333
            },
            {
              "pitch": 55,
              "velocity": 74,
              "position": 19.5,
              "duration": 0.5
            },
            {
              "pitch": 59,
              "velocity": 74,
              "position": 19.5,
              "duration": 0.5
            },
            {
              "pitch": 60,
              "velocity": 59,
              "position": 19.75,
              "duration": 0.25
            },
            {
              "pitch": 64,
              "velocity": 95,
              "position": 18.75,
              "duration": 1.25
            },
            {
              "pitch": 60,
              "velocity": 82,
              "position": 20.25,
              "duration": 0.9895833333333334
            },
            {
              "pitch": 55,
              "velocity": 60,
              "position": 20.5,
              "duration": 0.9895833333333334
            },
            {
              "pitch": 59,
              "velocity": 60,
              "position": 20.5,
              "duration": 0.9895833333333334
            },
            {
              "pitch": 60,
              "velocity": 74,
              "position": 21.25,
              "duration": 0.4895833333333333
            },
            {
              "pitch": 55,
              "velocity": 68,
              "position": 21.5,
              "duration": 0.5
            },
            {
              "pitch": 59,
              "velocity": 68,
              "position": 21.5,
              "duration": 0.5
            },
            {
              "pitch": 60,
              "velocity": 70,
              "position": 21.75,
              "duration": 0.25
            },
            {
              "pitch": 64,
              "velocity": 76,
              "position": 20.75,
              "duration": 1.25
            },
            {
              "pitch": 60,
              "velocity": 76,
              "position": 22.25,
              "duration": 0.4895833333333333
            },
            {
              "pitch": 64,
              "velocity": 94,
              "position": 22.770833333333332,
              "duration": 0.46875
            },
            {
              "pitch": 55,
              "velocity": 56,
              "position": 22.5,
              "duration": 0.9895833333333334
            },
            {
              "pitch": 59,
              "velocity": 56,
              "position": 22.5,
              "duration": 0.9895833333333334
            },
            {
              "pitch": 60,
              "velocity": 72,
              "position": 22.75,
              "duration": 0.9895833333333334
            },
            {
              "pitch": 55,
              "velocity": 78,
              "position": 23.5,
              "duration": 0.5
            },
            {
              "pitch": 59,
              "velocity": 78,
              "position": 23.5,
              "duration": 0.5
            },
            {
              "pitch": 60,
              "velocity": 59,
              "position": 23.75,
              "duration": 0.25
            },
            {
              "pitch": 64,
              "velocity": 62,
              "position": 23.25,
              "duration": 0.75
            },
            {
              "pitch": 60,
              "velocity": 69,
              "position": 24.25,
              "duration": 0.9895833333333334
            },
            {
              "pitch": 55,
              "velocity": 62,
              "position": 24.5,
              "duration": 0.9895833333333334
            },
            {
              "pitch": 59,
              "velocity": 62,
              "position": 24.5,
              "duration": 0.9895833333333334
            },
            {
              "pitch": 60,
              "velocity": 65,
              "position": 25.25,
              "duration": 0.4895833333333333
            },
            {
              "pitch": 55,
              "velocity": 76,
              "position": 25.5,
              "duration": 0.5
            },
            {
              "pitch": 59,
              "velocity": 76,
              "position": 25.5,
              "duration": 0.5
            },
            {
              "pitch": 60,
              "velocity": 59,
              "position": 25.75,
              "duration": 0.25
            },
            {
              "pitch": 64,
              "velocity": 83,
              "position": 24.75,
              "duration": 1.25
            },
            {
              "pitch": 60,
              "velocity": 77,
              "position": 26.25,
              "duration": 0.9895833333333334
            },
            {
              "pitch": 55,
              "velocity": 65,
              "position": 26.5,
              "duration": 0.9895833333333334
            },
            {
              "pitch": 59,
              "velocity": 65,
              "position": 26.5,
              "duration": 0.9895833333333334
            },
            {
              "pitch": 60,
              "velocity": 59,
              "position": 27.25,
              "duration": 0.4895833333333333
            },
            {
              "pitch": 55,
              "velocity": 83,
              "position": 27.5,
              "duration": 0.5
            },
            {
              "pitch": 59,
              "velocity": 83,
              "position": 27.5,
              "duration": 0.5
            },
            {
              "pitch": 60,
              "velocity": 65,
              "position": 27.75,
              "duration": 0.25
            },
            {
              "pitch": 64,
              "velocity": 92,
              "position": 26.75,
              "duration": 1.25
            },
            {
              "pitch": 60,
              "velocity": 85,
              "position": 28.25,
              "duration": 0.9895833333333334
            },
            {
              "pitch": 55,
              "velocity": 57,
              "position": 28.5,
              "duration": 0.9895833333333334
            },
            {
              "pitch": 59,
              "velocity": 57,
              "position": 28.5,
              "duration": 0.9895833333333334
            },
            {
              "pitch": 60,
              "velocity": 72,
              "position": 29.25,
              "duration": 0.4895833333333333
            },
            {
              "pitch": 60,
              "velocity": 70,
              "position": 29.75,
              "duration": 0.23958333333333334
            },
            {
              "pitch": 55,
              "velocity": 70,
              "position": 29.5,
              "duration": 0.5
            },
            {
              "pitch": 59,
              "velocity": 70,
              "position": 29.5,
              "duration": 0.5
            },
            {
              "pitch": 64,
              "velocity": 75,
              "position": 28.75,
              "duration": 1.25
            },
            {
              "pitch": 60,
              "velocity": 77,
              "position": 30,
              "duration": 0.7395833333333334
            },
            {
              "pitch": 64,
              "velocity": 78,
              "position": 30.770833333333332,
              "duration": 0.46875
            },
            {
              "pitch": 55,
              "velocity": 65,
              "position": 30.5,
              "duration": 0.9895833333333334
            },
            {
              "pitch": 59,
              "velocity": 65,
              "position": 30.5,
              "duration": 0.9895833333333334
            },
            {
              "pitch": 60,
              "velocity": 77,
              "position": 30.75,
              "duration": 0.9895833333333334
            },
            {
              "pitch": 55,
              "velocity": 83,
              "position": 31.5,
              "duration": 0.4895833333333333
            },
            {
              "pitch": 59,
              "velocity": 83,
              "position": 31.5,
              "duration": 0.4895833333333333
            },
            {
              "pitch": 60,
              "velocity": 62,
              "position": 31.75,
              "duration": 0.23958333333333334
            },
            {
              "pitch": 64,
              "velocity": 64,
              "position": 31.25,
              "duration": 0.7395833333333334
            }
          ]
        }
      }
    },
    "Main_D": {
      "type": "Main_D",
      "sizeInBeats": 32,
      "channels": {
        "8": {
          "ctab": {
            "srcChannel": 8,
            "name": "AddDrum",
            "accType": "SUBRHYTHM",
            "editable": false,
            "mutedNotes": [],
            "mutedChords": [],
            "autoStart": true,
            "sourceChordNote": 0,
            "sourceChordType": "Maj7",
            "ctb2Low": null,
            "ctb2Main": {
              "ntr": "ROOT_FIXED",
              "ntt": "BYPASS",
              "bassOn": false,
              "chordRootUpperLimit": 6,
              "noteLowLimit": 0,
              "noteHighLimit": 127,
              "rtr": "PITCH_SHIFT"
            },
            "ctb2High": null
          },
          "notes": [
            {
              "pitch": 54,
              "velocity": 51,
              "position": 0.00625,
              "duration": 0.052083333333333336
            },
            {
              "pitch": 70,
              "velocity": 65,
              "position": 0,
              "duration": 0.06875
            },
            {
              "pitch": 62,
              "velocity": 116,
              "position": 0,
              "duration": 0.08333333333333333
            },
            {
              "pitch": 54,
              "velocity": 37,
              "position": 0.23958333333333334,
              "duration": 0.052083333333333336
            },
            {
              "pitch": 69,
              "velocity": 41,
              "position": 0.25,
              "duration": 0.06875
            },
            {
              "pitch": 63,
              "velocity": 69,
              "position": 0.25,
              "duration": 0.08333333333333333
            },
            {
              "pitch": 60,
              "velocity": 97,
              "position": 0.2604166666666667,
              "duration": 0.08333333333333333
            },
            {
              "pitch": 54,
              "velocity": 71,
              "position": 0.4895833333333333,
              "duration": 0.052083333333333336
            },
            {
              "pitch": 70,
              "velocity": 98,
              "position": 0.5,
              "duration": 0.06875
            },
            {
              "pitch": 63,
              "velocity": 53,
              "position": 0.5,
              "duration": 0.08333333333333333
            },
            {
              "pitch": 54,
              "velocity": 59,
              "position": 0.7395833333333334,
              "duration": 0.052083333333333336
            },
            {
              "pitch": 70,
              "velocity": 25,
              "position": 0.75,
              "duration": 0.06875
            },
            {
              "pitch": 64,
              "velocity": 32,
              "position": 0.75,
              "duration": 0.08333333333333333
            },
            {
              "pitch": 60,
              "velocity": 38,
              "position": 0.7604166666666666,
              "duration": 0.08333333333333333
            },
            {
              "pitch": 54,
              "velocity": 56,
              "position": 0.9895833333333334,
              "duration": 0.052083333333333336
            },
            {
              "pitch": 70,
              "velocity": 67,
              "position": 1,
              "duration": 0.06875
            },
            {
              "pitch": 63,
              "velocity": 117,
              "position": 1,
              "duration": 0.08333333333333333
            },
            {
              "pitch": 61,
              "velocity": 111,
              "position": 1.0104166666666667,
              "duration": 0.08333333333333333
            },
            {
              "pitch": 54,
              "velocity": 34,
              "position": 1.2395833333333333,
              "duration": 0.052083333333333336
            },
            {
              "pitch": 69,
              "velocity": 36,
              "position": 1.25,
              "duration": 0.06875
            },
            {
              "pitch": 62,
              "velocity": 34,
              "position": 1.25,
              "duration": 0.08333333333333333
            },
            {
              "pitch": 54,
              "velocity": 71,
              "position": 1.4895833333333333,
              "duration": 0.052083333333333336
            },
            {
              "pitch": 70,
              "velocity": 95,
              "position": 1.5,
              "duration": 0.06875
            },
            {
              "pitch": 62,
              "velocity": 44,
              "position": 1.5,
              "duration": 0.08333333333333333
            },
            {
              "pitch": 54,
              "velocity": 33,
              "position": 1.7395833333333333,
              "duration": 0.052083333333333336
            },
            {
              "pitch": 70,
              "velocity": 33,
              "position": 1.75,
              "duration": 0.06875
            },
            {
              "pitch": 62,
              "velocity": 35,
              "position": 1.75,
              "duration": 0.08333333333333333
            },
            {
              "pitch": 54,
              "velocity": 51,
              "position": 1.9895833333333333,
              "duration": 0.052083333333333336
            },
            {
              "pitch": 70,
              "velocity": 60,
              "position": 2,
              "duration": 0.06875
            },
            {
              "pitch": 62,
              "velocity": 118,
              "position": 2,
              "duration": 0.08333333333333333
            },
            {
              "pitch": 54,
              "velocity": 36,
              "position": 2.2395833333333335,
              "duration": 0.052083333333333336
            },
            {
              "pitch": 69,
              "velocity": 47,
              "position": 2.25,
              "duration": 0.06875
            },
            {
              "pitch": 63,
              "velocity": 60,
              "position": 2.25,
              "duration": 0.08333333333333333
            },
            {
              "pitch": 60,
              "velocity": 93,
              "position": 2.2604166666666665,
              "duration": 0.08333333333333333
            },
            {
              "pitch": 54,
              "velocity": 71,
              "position": 2.4895833333333335,
              "duration": 0.052083333333333336
            },
            {
              "pitch": 70,
              "velocity": 100,
              "position": 2.5,
              "duration": 0.06875
            },
            {
              "pitch": 63,
              "velocity": 42,
              "position": 2.5,
              "duration": 0.08333333333333333
            },
            {
              "pitch": 60,
              "velocity": 48,
              "position": 2.5104166666666665,
              "duration": 0.08333333333333333
            },
            {
              "pitch": 54,
              "velocity": 63,
              "position": 2.7395833333333335,
              "duration": 0.052083333333333336
            },
            {
              "pitch": 70,
              "velocity": 36,
              "position": 2.75,
              "duration": 0.06875
            },
            {
              "pitch": 64,
              "velocity": 26,
              "position": 2.75,
              "duration": 0.08333333333333333
            },
            {
              "pitch": 60,
              "velocity": 32,
              "position": 2.7604166666666665,
              "duration": 0.08333333333333333
            },
            {
              "pitch": 54,
              "velocity": 56,
              "position": 2.9895833333333335,
              "duration": 0.052083333333333336
            },
            {
              "pitch": 70,
              "velocity": 54,
              "position": 3,
              "duration": 0.06875
            },
            {
              "pitch": 64,
              "velocity": 72,
              "position": 3,
              "duration": 0.08333333333333333
            },
            {
              "pitch": 61,
              "velocity": 111,
              "position": 3.0104166666666665,
              "duration": 0.08333333333333333
            },
            {
              "pitch": 54,
              "velocity": 35,
              "position": 3.2395833333333335,
              "duration": 0.052083333333333336
            },
            {
              "pitch": 69,
              "velocity": 40,
              "position": 3.25,
              "duration": 0.06875
            },
            {
              "pitch": 62,
              "velocity": 17,
              "position": 3.25,
              "duration": 0.08333333333333333
            },
            {
              "pitch": 54,
              "velocity": 71,
              "position": 3.4895833333333335,
              "duration": 0.052083333333333336
            },
            {
              "pitch": 70,
              "velocity": 113,
              "position": 3.5,
              "duration": 0.06875
            },
            {
              "pitch": 62,
              "velocity": 89,
              "position": 3.5,
              "duration": 0.08333333333333333
            },
            {
              "pitch": 54,
              "velocity": 34,
              "position": 3.7395833333333335,
              "duration": 0.052083333333333336
            },
            {
              "pitch": 70,
              "velocity": 35,
              "position": 3.75,
              "duration": 0.06875
            },
            {
              "pitch": 62,
              "velocity": 33,
              "position": 3.75,
              "duration": 0.08333333333333333
            },
            {
              "pitch": 54,
              "velocity": 52,
              "position": 4.00625,
              "duration": 0.052083333333333336
            },
            {
              "pitch": 70,
              "velocity": 62,
              "position": 4,
              "duration": 0.06875
            },
            {
              "pitch": 62,
              "velocity": 108,
              "position": 4,
              "duration": 0.08333333333333333
            },
            {
              "pitch": 54,
              "velocity": 29,
              "position": 4.239583333333333,
              "duration": 0.052083333333333336
            },
            {
              "pitch": 69,
              "velocity": 45,
              "position": 4.25,
              "duration": 0.06875
            },
            {
              "pitch": 63,
              "velocity": 71,
              "position": 4.25,
              "duration": 0.08333333333333333
            },
            {
              "pitch": 60,
              "velocity": 104,
              "position": 4.260416666666667,
              "duration": 0.08333333333333333
            },
            {
              "pitch": 54,
              "velocity": 71,
              "position": 4.489583333333333,
              "duration": 0.052083333333333336
            },
            {
              "pitch": 70,
              "velocity": 98,
              "position": 4.5,
              "duration": 0.06875
            },
            {
              "pitch": 63,
              "velocity": 47,
              "position": 4.5,
              "duration": 0.08333333333333333
            },
            {
              "pitch": 54,
              "velocity": 61,
              "position": 4.739583333333333,
              "duration": 0.052083333333333336
            },
            {
              "pitch": 70,
              "velocity": 30,
              "position": 4.75,
              "duration": 0.06875
            },
            {
              "pitch": 64,
              "velocity": 33,
              "position": 4.75,
              "duration": 0.08333333333333333
            },
            {
              "pitch": 60,
              "velocity": 42,
              "position": 4.760416666666667,
              "duration": 0.08333333333333333
            },
            {
              "pitch": 54,
              "velocity": 46,
              "position": 4.989583333333333,
              "duration": 0.052083333333333336
            },
            {
              "pitch": 70,
              "velocity": 58,
              "position": 5,
              "duration": 0.06875
            },
            {
              "pitch": 63,
              "velocity": 119,
              "position": 5,
              "duration": 0.08333333333333333
            },
            {
              "pitch": 61,
              "velocity": 111,
              "position": 5.010416666666667,
              "duration": 0.08333333333333333
            },
            {
              "pitch": 54,
              "velocity": 31,
              "position": 5.239583333333333,
              "duration": 0.052083333333333336
            },
            {
              "pitch": 69,
              "velocity": 45,
              "position": 5.25,
              "duration": 0.06875
            },
            {
              "pitch": 62,
              "velocity": 30,
              "position": 5.25,
              "duration": 0.08333333333333333
            },
            {
              "pitch": 54,
              "velocity": 71,
              "position": 5.489583333333333,
              "duration": 0.052083333333333336
            },
            {
              "pitch": 70,
              "velocity": 102,
              "position": 5.5,
              "duration": 0.06875
            },
            {
              "pitch": 62,
              "velocity": 44,
              "position": 5.5,
              "duration": 0.08333333333333333
            },
            {
              "pitch": 54,
              "velocity": 29,
              "position": 5.739583333333333,
              "duration": 0.052083333333333336
            },
            {
              "pitch": 70,
              "velocity": 25,
              "position": 5.75,
              "duration": 0.06875
            },
            {
              "pitch": 62,
              "velocity": 39,
              "position": 5.75,
              "duration": 0.08333333333333333
            },
            {
              "pitch": 54,
              "velocity": 54,
              "position": 5.989583333333333,
              "duration": 0.052083333333333336
            },
            {
              "pitch": 70,
              "velocity": 59,
              "position": 6,
              "duration": 0.06875
            },
            {
              "pitch": 62,
              "velocity": 119,
              "position": 6,
              "duration": 0.08333333333333333
            },
            {
              "pitch": 54,
              "velocity": 37,
              "position": 6.239583333333333,
              "duration": 0.052083333333333336
            },
            {
              "pitch": 69,
              "velocity": 41,
              "position": 6.25,
              "duration": 0.06875
            },
            {
              "pitch": 63,
              "velocity": 71,
              "position": 6.25,
              "duration": 0.08333333333333333
            },
            {
              "pitch": 60,
              "velocity": 100,
              "position": 6.260416666666667,
              "duration": 0.08333333333333333
            },
            {
              "pitch": 54,
              "velocity": 71,
              "position": 6.489583333333333,
              "duration": 0.052083333333333336
            },
            {
              "pitch": 70,
              "velocity": 99,
              "position": 6.5,
              "duration": 0.06875
            },
            {
              "pitch": 63,
              "velocity": 45,
              "position": 6.5,
              "duration": 0.08333333333333333
            },
            {
              "pitch": 60,
              "velocity": 50,
              "position": 6.510416666666667,
              "duration": 0.08333333333333333
            },
            {
              "pitch": 54,
              "velocity": 64,
              "position": 6.739583333333333,
              "duration": 0.052083333333333336
            },
            {
              "pitch": 70,
              "velocity": 39,
              "position": 6.75,
              "duration": 0.06875
            },
            {
              "pitch": 64,
              "velocity": 29,
              "position": 6.75,
              "duration": 0.08333333333333333
            },
            {
              "pitch": 60,
              "velocity": 34,
              "position": 6.760416666666667,
              "duration": 0.08333333333333333
            },
            {
              "pitch": 54,
              "velocity": 48,
              "position": 6.989583333333333,
              "duration": 0.052083333333333336
            },
            {
              "pitch": 70,
              "velocity": 63,
              "position": 7,
              "duration": 0.06875
            },
            {
              "pitch": 64,
              "velocity": 72,
              "position": 7,
              "duration": 0.08333333333333333
            },
            {
              "pitch": 61,
              "velocity": 112,
              "position": 7.010416666666667,
              "duration": 0.08333333333333333
            },
            {
              "pitch": 54,
              "velocity": 31,
              "position": 7.239583333333333,
              "duration": 0.052083333333333336
            },
            {
              "pitch": 69,
              "velocity": 41,
              "position": 7.25,
              "duration": 0.06875
            },
            {
              "pitch": 62,
              "velocity": 22,
              "position": 7.25,
              "duration": 0.08333333333333333
            },
            {
              "pitch": 54,
              "velocity": 71,
              "position": 7.489583333333333,
              "duration": 0.052083333333333336
            },
            {
              "pitch": 70,
              "velocity": 110,
              "position": 7.5,
              "duration": 0.06875
            },
            {
              "pitch": 62,
              "velocity": 79,
              "position": 7.5,
              "duration": 0.08333333333333333
            },
            {
              "pitch": 54,
              "velocity": 29,
              "position": 7.739583333333333,
              "duration": 0.052083333333333336
            },
            {
              "pitch": 70,
              "velocity": 31,
              "position": 7.75,
              "duration": 0.06875
            },
            {
              "pitch": 62,
              "velocity": 38,
              "position": 7.75,
              "duration": 0.08333333333333333
            },
            {
              "pitch": 54,
              "velocity": 56,
              "position": 8.00625,
              "duration": 0.052083333333333336
            },
            {
              "pitch": 70,
              "velocity": 54,
              "position": 8,
              "duration": 0.06875
            },
            {
              "pitch": 62,
              "velocity": 115,
              "position": 8,
              "duration": 0.08333333333333333
            },
            {
              "pitch": 54,
              "velocity": 39,
              "position": 8.239583333333334,
              "duration": 0.052083333333333336
            },
            {
              "pitch": 69,
              "velocity": 40,
              "position": 8.25,
              "duration": 0.06875
            },
            {
              "pitch": 63,
              "velocity": 75,
              "position": 8.25,
              "duration": 0.08333333333333333
            },
            {
              "pitch": 60,
              "velocity": 103,
              "position": 8.260416666666666,
              "duration": 0.08333333333333333
            },
            {
              "pitch": 54,
              "velocity": 71,
              "position": 8.489583333333334,
              "duration": 0.052083333333333336
            },
            {
              "pitch": 70,
              "velocity": 99,
              "position": 8.5,
              "duration": 0.06875
            },
            {
              "pitch": 63,
              "velocity": 45,
              "position": 8.5,
              "duration": 0.08333333333333333
            },
            {
              "pitch": 54,
              "velocity": 60,
              "position": 8.739583333333334,
              "duration": 0.052083333333333336
            },
            {
              "pitch": 70,
              "velocity": 27,
              "position": 8.75,
              "duration": 0.06875
            },
            {
              "pitch": 64,
              "velocity": 32,
              "position": 8.75,
              "duration": 0.08333333333333333
            },
            {
              "pitch": 60,
              "velocity": 29,
              "position": 8.760416666666666,
              "duration": 0.08333333333333333
            },
            {
              "pitch": 54,
              "velocity": 51,
              "position": 8.989583333333334,
              "duration": 0.052083333333333336
            },
            {
              "pitch": 70,
              "velocity": 63,
              "position": 9,
              "duration": 0.06875
            },
            {
              "pitch": 63,
              "velocity": 115,
              "position": 9,
              "duration": 0.08333333333333333
            },
            {
              "pitch": 61,
              "velocity": 112,
              "position": 9.010416666666666,
              "duration": 0.08333333333333333
            },
            {
              "pitch": 54,
              "velocity": 35,
              "position": 9.239583333333334,
              "duration": 0.052083333333333336
            },
            {
              "pitch": 69,
              "velocity": 36,
              "position": 9.25,
              "duration": 0.06875
            },
            {
              "pitch": 62,
              "velocity": 35,
              "position": 9.25,
              "duration": 0.08333333333333333
            },
            {
              "pitch": 54,
              "velocity": 71,
              "position": 9.489583333333334,
              "duration": 0.052083333333333336
            },
            {
              "pitch": 70,
              "velocity": 101,
              "position": 9.5,
              "duration": 0.06875
            },
            {
              "pitch": 62,
              "velocity": 49,
              "position": 9.5,
              "duration": 0.08333333333333333
            },
            {
              "pitch": 54,
              "velocity": 33,
              "position": 9.739583333333334,
              "duration": 0.052083333333333336
            },
            {
              "pitch": 70,
              "velocity": 24,
              "position": 9.75,
              "duration": 0.06875
            },
            {
              "pitch": 62,
              "velocity": 42,
              "position": 9.75,
              "duration": 0.08333333333333333
            },
            {
              "pitch": 54,
              "velocity": 48,
              "position": 9.989583333333334,
              "duration": 0.052083333333333336
            },
            {
              "pitch": 70,
              "velocity": 59,
              "position": 10,
              "duration": 0.06875
            },
            {
              "pitch": 62,
              "velocity": 113,
              "position": 10,
              "duration": 0.08333333333333333
            },
            {
              "pitch": 54,
              "velocity": 35,
              "position": 10.239583333333334,
              "duration": 0.052083333333333336
            },
            {
              "pitch": 69,
              "velocity": 47,
              "position": 10.25,
              "duration": 0.06875
            },
            {
              "pitch": 63,
              "velocity": 71,
              "position": 10.25,
              "duration": 0.08333333333333333
            },
            {
              "pitch": 60,
              "velocity": 103,
              "position": 10.260416666666666,
              "duration": 0.08333333333333333
            },
            {
              "pitch": 54,
              "velocity": 71,
              "position": 10.489583333333334,
              "duration": 0.052083333333333336
            },
            {
              "pitch": 70,
              "velocity": 95,
              "position": 10.5,
              "duration": 0.06875
            },
            {
              "pitch": 63,
              "velocity": 52,
              "position": 10.5,
              "duration": 0.08333333333333333
            },
            {
              "pitch": 60,
              "velocity": 61,
              "position": 10.510416666666666,
              "duration": 0.08333333333333333
            },
            {
              "pitch": 54,
              "velocity": 62,
              "position": 10.739583333333334,
              "duration": 0.052083333333333336
            },
            {
              "pitch": 70,
              "velocity": 31,
              "position": 10.75,
              "duration": 0.06875
            },
            {
              "pitch": 64,
              "velocity": 30,
              "position": 10.75,
              "duration": 0.08333333333333333
            },
            {
              "pitch": 60,
              "velocity": 36,
              "position": 10.760416666666666,
              "duration": 0.08333333333333333
            },
            {
              "pitch": 54,
              "velocity": 53,
              "position": 10.989583333333334,
              "duration": 0.052083333333333336
            },
            {
              "pitch": 70,
              "velocity": 55,
              "position": 11,
              "duration": 0.06875
            },
            {
              "pitch": 64,
              "velocity": 72,
              "position": 11,
              "duration": 0.08333333333333333
            },
            {
              "pitch": 61,
              "velocity": 109,
              "position": 11.010416666666666,
              "duration": 0.08333333333333333
            },
            {
              "pitch": 54,
              "velocity": 34,
              "position": 11.239583333333334,
              "duration": 0.052083333333333336
            },
            {
              "pitch": 69,
              "velocity": 44,
              "position": 11.25,
              "duration": 0.06875
            },
            {
              "pitch": 62,
              "velocity": 30,
              "position": 11.25,
              "duration": 0.08333333333333333
            },
            {
              "pitch": 54,
              "velocity": 71,
              "position": 11.489583333333334,
              "duration": 0.052083333333333336
            },
            {
              "pitch": 70,
              "velocity": 103,
              "position": 11.5,
              "duration": 0.06875
            },
            {
              "pitch": 62,
              "velocity": 80,
              "position": 11.5,
              "duration": 0.08333333333333333
            },
            {
              "pitch": 54,
              "velocity": 32,
              "position": 11.739583333333334,
              "duration": 0.052083333333333336
            },
            {
              "pitch": 70,
              "velocity": 34,
              "position": 11.75,
              "duration": 0.06875
            },
            {
              "pitch": 62,
              "velocity": 33,
              "position": 11.75,
              "duration": 0.08333333333333333
            },
            {
              "pitch": 54,
              "velocity": 51,
              "position": 12.00625,
              "duration": 0.052083333333333336
            },
            {
              "pitch": 70,
              "velocity": 64,
              "position": 12,
              "duration": 0.06875
            },
            {
              "pitch": 62,
              "velocity": 116,
              "position": 12,
              "duration": 0.08333333333333333
            },
            {
              "pitch": 54,
              "velocity": 36,
              "position": 12.239583333333334,
              "duration": 0.052083333333333336
            },
            {
              "pitch": 69,
              "velocity": 42,
              "position": 12.25,
              "duration": 0.06875
            },
            {
              "pitch": 63,
              "velocity": 70,
              "position": 12.25,
              "duration": 0.08333333333333333
            },
            {
              "pitch": 60,
              "velocity": 94,
              "position": 12.260416666666666,
              "duration": 0.08333333333333333
            },
            {
              "pitch": 54,
              "velocity": 71,
              "position": 12.489583333333334,
              "duration": 0.052083333333333336
            },
            {
              "pitch": 70,
              "velocity": 93,
              "position": 12.5,
              "duration": 0.06875
            },
            {
              "pitch": 63,
              "velocity": 49,
              "position": 12.5,
              "duration": 0.08333333333333333
            },
            {
              "pitch": 54,
              "velocity": 58,
              "position": 12.739583333333334,
              "duration": 0.052083333333333336
            },
            {
              "pitch": 70,
              "velocity": 28,
              "position": 12.75,
              "duration": 0.06875
            },
            {
              "pitch": 64,
              "velocity": 32,
              "position": 12.75,
              "duration": 0.08333333333333333
            },
            {
              "pitch": 60,
              "velocity": 32,
              "position": 12.760416666666666,
              "duration": 0.08333333333333333
            },
            {
              "pitch": 54,
              "velocity": 47,
              "position": 12.989583333333334,
              "duration": 0.052083333333333336
            },
            {
              "pitch": 70,
              "velocity": 61,
              "position": 13,
              "duration": 0.06875
            },
            {
              "pitch": 63,
              "velocity": 121,
              "position": 13,
              "duration": 0.08333333333333333
            },
            {
              "pitch": 61,
              "velocity": 113,
              "position": 13.010416666666666,
              "duration": 0.08333333333333333
            },
            {
              "pitch": 54,
              "velocity": 37,
              "position": 13.239583333333334,
              "duration": 0.052083333333333336
            },
            {
              "pitch": 69,
              "velocity": 34,
              "position": 13.25,
              "duration": 0.06875
            },
            {
              "pitch": 62,
              "velocity": 28,
              "position": 13.25,
              "duration": 0.08333333333333333
            },
            {
              "pitch": 54,
              "velocity": 71,
              "position": 13.489583333333334,
              "duration": 0.052083333333333336
            },
            {
              "pitch": 70,
              "velocity": 107,
              "position": 13.5,
              "duration": 0.06875
            },
            {
              "pitch": 62,
              "velocity": 42,
              "position": 13.5,
              "duration": 0.08333333333333333
            },
            {
              "pitch": 54,
              "velocity": 34,
              "position": 13.739583333333334,
              "duration": 0.052083333333333336
            },
            {
              "pitch": 70,
              "velocity": 28,
              "position": 13.75,
              "duration": 0.06875
            },
            {
              "pitch": 62,
              "velocity": 48,
              "position": 13.75,
              "duration": 0.08333333333333333
            },
            {
              "pitch": 54,
              "velocity": 56,
              "position": 13.989583333333334,
              "duration": 0.052083333333333336
            },
            {
              "pitch": 70,
              "velocity": 60,
              "position": 14,
              "duration": 0.06875
            },
            {
              "pitch": 62,
              "velocity": 115,
              "position": 14,
              "duration": 0.08333333333333333
            },
            {
              "pitch": 54,
              "velocity": 31,
              "position": 14.239583333333334,
              "duration": 0.052083333333333336
            },
            {
              "pitch": 69,
              "velocity": 40,
              "position": 14.25,
              "duration": 0.06875
            },
            {
              "pitch": 63,
              "velocity": 63,
              "position": 14.25,
              "duration": 0.08333333333333333
            },
            {
              "pitch": 60,
              "velocity": 99,
              "position": 14.260416666666666,
              "duration": 0.08333333333333333
            },
            {
              "pitch": 54,
              "velocity": 71,
              "position": 14.489583333333334,
              "duration": 0.052083333333333336
            },
            {
              "pitch": 70,
              "velocity": 96,
              "position": 14.5,
              "duration": 0.06875
            },
            {
              "pitch": 63,
              "velocity": 55,
              "position": 14.5,
              "duration": 0.08333333333333333
            },
            {
              "pitch": 60,
              "velocity": 55,
              "position": 14.510416666666666,
              "duration": 0.08333333333333333
            },
            {
              "pitch": 54,
              "velocity": 58,
              "position": 14.739583333333334,
              "duration": 0.052083333333333336
            },
            {
              "pitch": 70,
              "velocity": 39,
              "position": 14.75,
              "duration": 0.06875
            },
            {
              "pitch": 64,
              "velocity": 31,
              "position": 14.75,
              "duration": 0.08333333333333333
            },
            {
              "pitch": 60,
              "velocity": 38,
              "position": 14.760416666666666,
              "duration": 0.08333333333333333
            },
            {
              "pitch": 54,
              "velocity": 51,
              "position": 14.989583333333334,
              "duration": 0.052083333333333336
            },
            {
              "pitch": 70,
              "velocity": 61,
              "position": 15,
              "duration": 0.06875
            },
            {
              "pitch": 64,
              "velocity": 69,
              "position": 15,
              "duration": 0.08333333333333333
            },
            {
              "pitch": 61,
              "velocity": 112,
              "position": 15.010416666666666,
              "duration": 0.08333333333333333
            },
            {
              "pitch": 54,
              "velocity": 34,
              "position": 15.239583333333334,
              "duration": 0.052083333333333336
            },
            {
              "pitch": 69,
              "velocity": 34,
              "position": 15.25,
              "duration": 0.06875
            },
            {
              "pitch": 62,
              "velocity": 23,
              "position": 15.25,
              "duration": 0.08333333333333333
            },
            {
              "pitch": 54,
              "velocity": 71,
              "position": 15.489583333333334,
              "duration": 0.052083333333333336
            },
            {
              "pitch": 70,
              "velocity": 108,
              "position": 15.5,
              "duration": 0.06875
            },
            {
              "pitch": 62,
              "velocity": 91,
              "position": 15.5,
              "duration": 0.08333333333333333
            },
            {
              "pitch": 54,
              "velocity": 32,
              "position": 15.739583333333334,
              "duration": 0.052083333333333336
            },
            {
              "pitch": 70,
              "velocity": 33,
              "position": 15.75,
              "duration": 0.06875
            },
            {
              "pitch": 62,
              "velocity": 38,
              "position": 15.75,
              "duration": 0.08333333333333333
            },
            {
              "pitch": 54,
              "velocity": 50,
              "position": 16.00625,
              "duration": 0.052083333333333336
            },
            {
              "pitch": 70,
              "velocity": 60,
              "position": 16,
              "duration": 0.06875
            },
            {
              "pitch": 62,
              "velocity": 113,
              "position": 16,
              "duration": 0.08333333333333333
            },
            {
              "pitch": 54,
              "velocity": 30,
              "position": 16.239583333333332,
              "duration": 0.052083333333333336
            },
            {
              "pitch": 69,
              "velocity": 34,
              "position": 16.25,
              "duration": 0.06875
            },
            {
              "pitch": 63,
              "velocity": 63,
              "position": 16.25,
              "duration": 0.08333333333333333
            },
            {
              "pitch": 60,
              "velocity": 92,
              "position": 16.260416666666668,
              "duration": 0.08333333333333333
            },
            {
              "pitch": 54,
              "velocity": 71,
              "position": 16.489583333333332,
              "duration": 0.052083333333333336
            },
            {
              "pitch": 70,
              "velocity": 96,
              "position": 16.5,
              "duration": 0.07291666666666667
            },
            {
              "pitch": 63,
              "velocity": 57,
              "position": 16.5,
              "duration": 0.08333333333333333
            },
            {
              "pitch": 54,
              "velocity": 62,
              "position": 16.739583333333332,
              "duration": 0.052083333333333336
            },
            {
              "pitch": 70,
              "velocity": 25,
              "position": 16.75,
              "duration": 0.07291666666666667
            },
            {
              "pitch": 64,
              "velocity": 31,
              "position": 16.75,
              "duration": 0.08333333333333333
            },
            {
              "pitch": 60,
              "velocity": 42,
              "position": 16.760416666666668,
              "duration": 0.08333333333333333
            },
            {
              "pitch": 54,
              "velocity": 56,
              "position": 16.989583333333332,
              "duration": 0.052083333333333336
            },
            {
              "pitch": 70,
              "velocity": 60,
              "position": 17,
              "duration": 0.07291666666666667
            },
            {
              "pitch": 63,
              "velocity": 107,
              "position": 17,
              "duration": 0.08333333333333333
            },
            {
              "pitch": 61,
              "velocity": 109,
              "position": 17.010416666666668,
              "duration": 0.08333333333333333
            },
            {
              "pitch": 54,
              "velocity": 36,
              "position": 17.239583333333332,
              "duration": 0.052083333333333336
            },
            {
              "pitch": 69,
              "velocity": 43,
              "position": 17.25,
              "duration": 0.07291666666666667
            },
            {
              "pitch": 62,
              "velocity": 30,
              "position": 17.25,
              "duration": 0.08333333333333333
            },
            {
              "pitch": 54,
              "velocity": 71,
              "position": 17.489583333333332,
              "duration": 0.052083333333333336
            },
            {
              "pitch": 70,
              "velocity": 98,
              "position": 17.5,
              "duration": 0.07291666666666667
            },
            {
              "pitch": 62,
              "velocity": 40,
              "position": 17.5,
              "duration": 0.08333333333333333
            },
            {
              "pitch": 54,
              "velocity": 33,
              "position": 17.739583333333332,
              "duration": 0.052083333333333336
            },
            {
              "pitch": 70,
              "velocity": 35,
              "position": 17.75,
              "duration": 0.07291666666666667
            },
            {
              "pitch": 62,
              "velocity": 46,
              "position": 17.75,
              "duration": 0.08333333333333333
            },
            {
              "pitch": 54,
              "velocity": 55,
              "position": 17.989583333333332,
              "duration": 0.052083333333333336
            },
            {
              "pitch": 70,
              "velocity": 61,
              "position": 18,
              "duration": 0.07291666666666667
            },
            {
              "pitch": 62,
              "velocity": 112,
              "position": 18,
              "duration": 0.08333333333333333
            },
            {
              "pitch": 54,
              "velocity": 34,
              "position": 18.239583333333332,
              "duration": 0.052083333333333336
            },
            {
              "pitch": 69,
              "velocity": 35,
              "position": 18.25,
              "duration": 0.07291666666666667
            },
            {
              "pitch": 63,
              "velocity": 63,
              "position": 18.25,
              "duration": 0.08333333333333333
            },
            {
              "pitch": 60,
              "velocity": 105,
              "position": 18.260416666666668,
              "duration": 0.08333333333333333
            },
            {
              "pitch": 54,
              "velocity": 71,
              "position": 18.489583333333332,
              "duration": 0.052083333333333336
            },
            {
              "pitch": 70,
              "velocity": 89,
              "position": 18.5,
              "duration": 0.07291666666666667
            },
            {
              "pitch": 63,
              "velocity": 49,
              "position": 18.5,
              "duration": 0.08333333333333333
            },
            {
              "pitch": 60,
              "velocity": 60,
              "position": 18.510416666666668,
              "duration": 0.08333333333333333
            },
            {
              "pitch": 54,
              "velocity": 60,
              "position": 18.739583333333332,
              "duration": 0.052083333333333336
            },
            {
              "pitch": 70,
              "velocity": 41,
              "position": 18.75,
              "duration": 0.07291666666666667
            },
            {
              "pitch": 64,
              "velocity": 30,
              "position": 18.75,
              "duration": 0.08333333333333333
            },
            {
              "pitch": 60,
              "velocity": 28,
              "position": 18.760416666666668,
              "duration": 0.08333333333333333
            },
            {
              "pitch": 54,
              "velocity": 51,
              "position": 18.989583333333332,
              "duration": 0.052083333333333336
            },
            {
              "pitch": 70,
              "velocity": 66,
              "position": 19,
              "duration": 0.07291666666666667
            },
            {
              "pitch": 64,
              "velocity": 72,
              "position": 19,
              "duration": 0.08333333333333333
            },
            {
              "pitch": 61,
              "velocity": 105,
              "position": 19.010416666666668,
              "duration": 0.08333333333333333
            },
            {
              "pitch": 54,
              "velocity": 32,
              "position": 19.239583333333332,
              "duration": 0.052083333333333336
            },
            {
              "pitch": 69,
              "velocity": 47,
              "position": 19.25,
              "duration": 0.07291666666666667
            },
            {
              "pitch": 62,
              "velocity": 30,
              "position": 19.25,
              "duration": 0.08333333333333333
            },
            {
              "pitch": 54,
              "velocity": 71,
              "position": 19.489583333333332,
              "duration": 0.052083333333333336
            },
            {
              "pitch": 70,
              "velocity": 106,
              "position": 19.5,
              "duration": 0.07291666666666667
            },
            {
              "pitch": 62,
              "velocity": 83,
              "position": 19.5,
              "duration": 0.08333333333333333
            },
            {
              "pitch": 54,
              "velocity": 29,
              "position": 19.739583333333332,
              "duration": 0.052083333333333336
            },
            {
              "pitch": 70,
              "velocity": 30,
              "position": 19.75,
              "duration": 0.07291666666666667
            },
            {
              "pitch": 62,
              "velocity": 38,
              "position": 19.75,
              "duration": 0.08333333333333333
            },
            {
              "pitch": 54,
              "velocity": 51,
              "position": 19.989583333333332,
              "duration": 0.052083333333333336
            },
            {
              "pitch": 70,
              "velocity": 60,
              "position": 20,
              "duration": 0.07291666666666667
            },
            {
              "pitch": 62,
              "velocity": 106,
              "position": 20,
              "duration": 0.08333333333333333
            },
            {
              "pitch": 54,
              "velocity": 33,
              "position": 20.239583333333332,
              "duration": 0.052083333333333336
            },
            {
              "pitch": 69,
              "velocity": 34,
              "position": 20.25,
              "duration": 0.07291666666666667
            },
            {
              "pitch": 63,
              "velocity": 61,
              "position": 20.25,
              "duration": 0.08333333333333333
            },
            {
              "pitch": 60,
              "velocity": 99,
              "position": 20.260416666666668,
              "duration": 0.08333333333333333
            },
            {
              "pitch": 54,
              "velocity": 71,
              "position": 20.489583333333332,
              "duration": 0.052083333333333336
            },
            {
              "pitch": 70,
              "velocity": 97,
              "position": 20.5,
              "duration": 0.07291666666666667
            },
            {
              "pitch": 63,
              "velocity": 59,
              "position": 20.5,
              "duration": 0.08333333333333333
            },
            {
              "pitch": 54,
              "velocity": 64,
              "position": 20.739583333333332,
              "duration": 0.052083333333333336
            },
            {
              "pitch": 70,
              "velocity": 28,
              "position": 20.75,
              "duration": 0.07291666666666667
            },
            {
              "pitch": 64,
              "velocity": 36,
              "position": 20.75,
              "duration": 0.08333333333333333
            },
            {
              "pitch": 60,
              "velocity": 29,
              "position": 20.760416666666668,
              "duration": 0.08333333333333333
            },
            {
              "pitch": 54,
              "velocity": 47,
              "position": 20.989583333333332,
              "duration": 0.052083333333333336
            },
            {
              "pitch": 70,
              "velocity": 57,
              "position": 21,
              "duration": 0.07291666666666667
            },
            {
              "pitch": 63,
              "velocity": 116,
              "position": 21,
              "duration": 0.08333333333333333
            },
            {
              "pitch": 61,
              "velocity": 106,
              "position": 21.010416666666668,
              "duration": 0.08333333333333333
            },
            {
              "pitch": 54,
              "velocity": 33,
              "position": 21.239583333333332,
              "duration": 0.052083333333333336
            },
            {
              "pitch": 69,
              "velocity": 36,
              "position": 21.25,
              "duration": 0.07291666666666667
            },
            {
              "pitch": 62,
              "velocity": 30,
              "position": 21.25,
              "duration": 0.08333333333333333
            },
            {
              "pitch": 54,
              "velocity": 71,
              "position": 21.489583333333332,
              "duration": 0.052083333333333336
            },
            {
              "pitch": 70,
              "velocity": 101,
              "position": 21.5,
              "duration": 0.07291666666666667
            },
            {
              "pitch": 62,
              "velocity": 45,
              "position": 21.5,
              "duration": 0.08333333333333333
            },
            {
              "pitch": 54,
              "velocity": 29,
              "position": 21.739583333333332,
              "duration": 0.052083333333333336
            },
            {
              "pitch": 70,
              "velocity": 30,
              "position": 21.75,
              "duration": 0.07291666666666667
            },
            {
              "pitch": 62,
              "velocity": 44,
              "position": 21.75,
              "duration": 0.08333333333333333
            },
            {
              "pitch": 54,
              "velocity": 46,
              "position": 21.989583333333332,
              "duration": 0.052083333333333336
            },
            {
              "pitch": 70,
              "velocity": 54,
              "position": 22,
              "duration": 0.07291666666666667
            },
            {
              "pitch": 62,
              "velocity": 114,
              "position": 22,
              "duration": 0.08333333333333333
            },
            {
              "pitch": 54,
              "velocity": 35,
              "position": 22.239583333333332,
              "duration": 0.052083333333333336
            },
            {
              "pitch": 69,
              "velocity": 40,
              "position": 22.25,
              "duration": 0.07291666666666667
            },
            {
              "pitch": 63,
              "velocity": 57,
              "position": 22.25,
              "duration": 0.08333333333333333
            },
            {
              "pitch": 60,
              "velocity": 98,
              "position": 22.260416666666668,
              "duration": 0.08333333333333333
            },
            {
              "pitch": 54,
              "velocity": 71,
              "position": 22.489583333333332,
              "duration": 0.052083333333333336
            },
            {
              "pitch": 70,
              "velocity": 93,
              "position": 22.5,
              "duration": 0.07291666666666667
            },
            {
              "pitch": 63,
              "velocity": 44,
              "position": 22.5,
              "duration": 0.08333333333333333
            },
            {
              "pitch": 60,
              "velocity": 49,
              "position": 22.510416666666668,
              "duration": 0.08333333333333333
            },
            {
              "pitch": 54,
              "velocity": 61,
              "position": 22.739583333333332,
              "duration": 0.052083333333333336
            },
            {
              "pitch": 70,
              "velocity": 35,
              "position": 22.75,
              "duration": 0.07291666666666667
            },
            {
              "pitch": 64,
              "velocity": 32,
              "position": 22.75,
              "duration": 0.08333333333333333
            },
            {
              "pitch": 60,
              "velocity": 40,
              "position": 22.760416666666668,
              "duration": 0.08333333333333333
            },
            {
              "pitch": 54,
              "velocity": 54,
              "position": 22.989583333333332,
              "duration": 0.052083333333333336
            },
            {
              "pitch": 70,
              "velocity": 56,
              "position": 23,
              "duration": 0.07291666666666667
            },
            {
              "pitch": 64,
              "velocity": 68,
              "position": 23,
              "duration": 0.08333333333333333
            },
            {
              "pitch": 61,
              "velocity": 112,
              "position": 23.010416666666668,
              "duration": 0.08333333333333333
            },
            {
              "pitch": 54,
              "velocity": 37,
              "position": 23.239583333333332,
              "duration": 0.052083333333333336
            },
            {
              "pitch": 69,
              "velocity": 34,
              "position": 23.25,
              "duration": 0.07291666666666667
            },
            {
              "pitch": 62,
              "velocity": 17,
              "position": 23.25,
              "duration": 0.08333333333333333
            },
            {
              "pitch": 54,
              "velocity": 71,
              "position": 23.489583333333332,
              "duration": 0.052083333333333336
            },
            {
              "pitch": 70,
              "velocity": 107,
              "position": 23.5,
              "duration": 0.07291666666666667
            },
            {
              "pitch": 62,
              "velocity": 81,
              "position": 23.5,
              "duration": 0.08333333333333333
            },
            {
              "pitch": 54,
              "velocity": 34,
              "position": 23.739583333333332,
              "duration": 0.052083333333333336
            },
            {
              "pitch": 70,
              "velocity": 31,
              "position": 23.75,
              "duration": 0.07291666666666667
            },
            {
              "pitch": 62,
              "velocity": 31,
              "position": 23.75,
              "duration": 0.08333333333333333
            },
            {
              "pitch": 54,
              "velocity": 54,
              "position": 23.989583333333332,
              "duration": 0.052083333333333336
            },
            {
              "pitch": 70,
              "velocity": 54,
              "position": 24,
              "duration": 0.07291666666666667
            },
            {
              "pitch": 62,
              "velocity": 103,
              "position": 24,
              "duration": 0.08333333333333333
            },
            {
              "pitch": 54,
              "velocity": 33,
              "position": 24.239583333333332,
              "duration": 0.052083333333333336
            },
            {
              "pitch": 69,
              "velocity": 39,
              "position": 24.25,
              "duration": 0.07291666666666667
            },
            {
              "pitch": 63,
              "velocity": 74,
              "position": 24.25,
              "duration": 0.08333333333333333
            },
            {
              "pitch": 60,
              "velocity": 100,
              "position": 24.260416666666668,
              "duration": 0.08333333333333333
            },
            {
              "pitch": 54,
              "velocity": 71,
              "position": 24.489583333333332,
              "duration": 0.052083333333333336
            },
            {
              "pitch": 70,
              "velocity": 97,
              "position": 24.5,
              "duration": 0.07291666666666667
            },
            {
              "pitch": 63,
              "velocity": 58,
              "position": 24.5,
              "duration": 0.08333333333333333
            },
            {
              "pitch": 54,
              "velocity": 63,
              "position": 24.739583333333332,
              "duration": 0.052083333333333336
            },
            {
              "pitch": 70,
              "velocity": 26,
              "position": 24.75,
              "duration": 0.07291666666666667
            },
            {
              "pitch": 64,
              "velocity": 36,
              "position": 24.75,
              "duration": 0.08333333333333333
            },
            {
              "pitch": 60,
              "velocity": 30,
              "position": 24.760416666666668,
              "duration": 0.08333333333333333
            },
            {
              "pitch": 54,
              "velocity": 51,
              "position": 24.989583333333332,
              "duration": 0.052083333333333336
            },
            {
              "pitch": 70,
              "velocity": 56,
              "position": 25,
              "duration": 0.07291666666666667
            },
            {
              "pitch": 63,
              "velocity": 118,
              "position": 25,
              "duration": 0.08333333333333333
            },
            {
              "pitch": 61,
              "velocity": 106,
              "position": 25.010416666666668,
              "duration": 0.08333333333333333
            },
            {
              "pitch": 54,
              "velocity": 36,
              "position": 25.239583333333332,
              "duration": 0.052083333333333336
            },
            {
              "pitch": 69,
              "velocity": 37,
              "position": 25.25,
              "duration": 0.07291666666666667
            },
            {
              "pitch": 62,
              "velocity": 33,
              "position": 25.25,
              "duration": 0.08333333333333333
            },
            {
              "pitch": 54,
              "velocity": 71,
              "position": 25.489583333333332,
              "duration": 0.052083333333333336
            },
            {
              "pitch": 70,
              "velocity": 96,
              "position": 25.5,
              "duration": 0.07291666666666667
            },
            {
              "pitch": 62,
              "velocity": 49,
              "position": 25.5,
              "duration": 0.08333333333333333
            },
            {
              "pitch": 54,
              "velocity": 34,
              "position": 25.739583333333332,
              "duration": 0.052083333333333336
            },
            {
              "pitch": 70,
              "velocity": 29,
              "position": 25.75,
              "duration": 0.07291666666666667
            },
            {
              "pitch": 62,
              "velocity": 44,
              "position": 25.75,
              "duration": 0.08333333333333333
            },
            {
              "pitch": 54,
              "velocity": 51,
              "position": 25.989583333333332,
              "duration": 0.052083333333333336
            },
            {
              "pitch": 70,
              "velocity": 62,
              "position": 26,
              "duration": 0.07291666666666667
            },
            {
              "pitch": 62,
              "velocity": 114,
              "position": 26,
              "duration": 0.08333333333333333
            },
            {
              "pitch": 54,
              "velocity": 34,
              "position": 26.239583333333332,
              "duration": 0.052083333333333336
            },
            {
              "pitch": 69,
              "velocity": 36,
              "position": 26.25,
              "duration": 0.07291666666666667
            },
            {
              "pitch": 63,
              "velocity": 69,
              "position": 26.25,
              "duration": 0.08333333333333333
            },
            {
              "pitch": 60,
              "velocity": 97,
              "position": 26.260416666666668,
              "duration": 0.08333333333333333
            },
            {
              "pitch": 54,
              "velocity": 71,
              "position": 26.489583333333332,
              "duration": 0.052083333333333336
            },
            {
              "pitch": 70,
              "velocity": 96,
              "position": 26.5,
              "duration": 0.07291666666666667
            },
            {
              "pitch": 63,
              "velocity": 42,
              "position": 26.5,
              "duration": 0.08333333333333333
            },
            {
              "pitch": 60,
              "velocity": 55,
              "position": 26.510416666666668,
              "duration": 0.08333333333333333
            },
            {
              "pitch": 54,
              "velocity": 59,
              "position": 26.739583333333332,
              "duration": 0.052083333333333336
            },
            {
              "pitch": 70,
              "velocity": 31,
              "position": 26.75,
              "duration": 0.07291666666666667
            },
            {
              "pitch": 64,
              "velocity": 27,
              "position": 26.75,
              "duration": 0.08333333333333333
            },
            {
              "pitch": 60,
              "velocity": 35,
              "position": 26.760416666666668,
              "duration": 0.08333333333333333
            },
            {
              "pitch": 54,
              "velocity": 49,
              "position": 26.989583333333332,
              "duration": 0.052083333333333336
            },
            {
              "pitch": 70,
              "velocity": 57,
              "position": 27,
              "duration": 0.07291666666666667
            },
            {
              "pitch": 64,
              "velocity": 68,
              "position": 27,
              "duration": 0.08333333333333333
            },
            {
              "pitch": 61,
              "velocity": 110,
              "position": 27.010416666666668,
              "duration": 0.08333333333333333
            },
            {
              "pitch": 54,
              "velocity": 30,
              "position": 27.239583333333332,
              "duration": 0.052083333333333336
            },
            {
              "pitch": 69,
              "velocity": 42,
              "position": 27.25,
              "duration": 0.07291666666666667
            },
            {
              "pitch": 62,
              "velocity": 33,
              "position": 27.25,
              "duration": 0.08333333333333333
            },
            {
              "pitch": 54,
              "velocity": 71,
              "position": 27.489583333333332,
              "duration": 0.052083333333333336
            },
            {
              "pitch": 70,
              "velocity": 114,
              "position": 27.5,
              "duration": 0.07291666666666667
            },
            {
              "pitch": 62,
              "velocity": 82,
              "position": 27.5,
              "duration": 0.08333333333333333
            },
            {
              "pitch": 54,
              "velocity": 37,
              "position": 27.739583333333332,
              "duration": 0.052083333333333336
            },
            {
              "pitch": 70,
              "velocity": 30,
              "position": 27.75,
              "duration": 0.07291666666666667
            },
            {
              "pitch": 62,
              "velocity": 31,
              "position": 27.75,
              "duration": 0.08333333333333333
            },
            {
              "pitch": 54,
              "velocity": 50,
              "position": 27.989583333333332,
              "duration": 0.052083333333333336
            },
            {
              "pitch": 70,
              "velocity": 61,
              "position": 28,
              "duration": 0.07291666666666667
            },
            {
              "pitch": 62,
              "velocity": 110,
              "position": 28,
              "duration": 0.08333333333333333
            },
            {
              "pitch": 54,
              "velocity": 29,
              "position": 28.239583333333332,
              "duration": 0.052083333333333336
            },
            {
              "pitch": 69,
              "velocity": 43,
              "position": 28.25,
              "duration": 0.07291666666666667
            },
            {
              "pitch": 63,
              "velocity": 73,
              "position": 28.25,
              "duration": 0.08333333333333333
            },
            {
              "pitch": 60,
              "velocity": 103,
              "position": 28.260416666666668,
              "duration": 0.08333333333333333
            },
            {
              "pitch": 54,
              "velocity": 71,
              "position": 28.489583333333332,
              "duration": 0.052083333333333336
            },
            {
              "pitch": 70,
              "velocity": 93,
              "position": 28.5,
              "duration": 0.07291666666666667
            },
            {
              "pitch": 63,
              "velocity": 56,
              "position": 28.5,
              "duration": 0.08333333333333333
            },
            {
              "pitch": 54,
              "velocity": 60,
              "position": 28.739583333333332,
              "duration": 0.052083333333333336
            },
            {
              "pitch": 70,
              "velocity": 30,
              "position": 28.75,
              "duration": 0.07291666666666667
            },
            {
              "pitch": 64,
              "velocity": 32,
              "position": 28.75,
              "duration": 0.08333333333333333
            },
            {
              "pitch": 60,
              "velocity": 40,
              "position": 28.760416666666668,
              "duration": 0.08333333333333333
            },
            {
              "pitch": 54,
              "velocity": 47,
              "position": 28.989583333333332,
              "duration": 0.052083333333333336
            },
            {
              "pitch": 70,
              "velocity": 66,
              "position": 29,
              "duration": 0.07291666666666667
            },
            {
              "pitch": 63,
              "velocity": 107,
              "position": 29,
              "duration": 0.08333333333333333
            },
            {
              "pitch": 61,
              "velocity": 116,
              "position": 29.010416666666668,
              "duration": 0.08333333333333333
            },
            {
              "pitch": 54,
              "velocity": 38,
              "position": 29.239583333333332,
              "duration": 0.052083333333333336
            },
            {
              "pitch": 69,
              "velocity": 34,
              "position": 29.25,
              "duration": 0.07291666666666667
            },
            {
              "pitch": 62,
              "velocity": 30,
              "position": 29.25,
              "duration": 0.08333333333333333
            },
            {
              "pitch": 54,
              "velocity": 71,
              "position": 29.489583333333332,
              "duration": 0.052083333333333336
            },
            {
              "pitch": 70,
              "velocity": 102,
              "position": 29.5,
              "duration": 0.07291666666666667
            },
            {
              "pitch": 62,
              "velocity": 44,
              "position": 29.5,
              "duration": 0.08333333333333333
            },
            {
              "pitch": 54,
              "velocity": 34,
              "position": 29.739583333333332,
              "duration": 0.052083333333333336
            },
            {
              "pitch": 70,
              "velocity": 31,
              "position": 29.75,
              "duration": 0.07291666666666667
            },
            {
              "pitch": 62,
              "velocity": 36,
              "position": 29.75,
              "duration": 0.08333333333333333
            },
            {
              "pitch": 54,
              "velocity": 48,
              "position": 29.989583333333332,
              "duration": 0.052083333333333336
            },
            {
              "pitch": 70,
              "velocity": 56,
              "position": 30,
              "duration": 0.07291666666666667
            },
            {
              "pitch": 62,
              "velocity": 107,
              "position": 30,
              "duration": 0.08333333333333333
            },
            {
              "pitch": 54,
              "velocity": 30,
              "position": 30.239583333333332,
              "duration": 0.052083333333333336
            },
            {
              "pitch": 69,
              "velocity": 40,
              "position": 30.25,
              "duration": 0.07291666666666667
            },
            {
              "pitch": 63,
              "velocity": 61,
              "position": 30.25,
              "duration": 0.08333333333333333
            },
            {
              "pitch": 60,
              "velocity": 105,
              "position": 30.260416666666668,
              "duration": 0.08333333333333333
            },
            {
              "pitch": 54,
              "velocity": 71,
              "position": 30.489583333333332,
              "duration": 0.052083333333333336
            },
            {
              "pitch": 70,
              "velocity": 96,
              "position": 30.5,
              "duration": 0.07291666666666667
            },
            {
              "pitch": 63,
              "velocity": 42,
              "position": 30.5,
              "duration": 0.08333333333333333
            },
            {
              "pitch": 60,
              "velocity": 59,
              "position": 30.510416666666668,
              "duration": 0.08333333333333333
            },
            {
              "pitch": 54,
              "velocity": 55,
              "position": 30.739583333333332,
              "duration": 0.052083333333333336
            },
            {
              "pitch": 70,
              "velocity": 28,
              "position": 30.75,
              "duration": 0.07291666666666667
            },
            {
              "pitch": 64,
              "velocity": 29,
              "position": 30.75,
              "duration": 0.08333333333333333
            },
            {
              "pitch": 60,
              "velocity": 32,
              "position": 30.760416666666668,
              "duration": 0.08333333333333333
            },
            {
              "pitch": 54,
              "velocity": 46,
              "position": 30.989583333333332,
              "duration": 0.052083333333333336
            },
            {
              "pitch": 70,
              "velocity": 56,
              "position": 31,
              "duration": 0.07291666666666667
            },
            {
              "pitch": 64,
              "velocity": 69,
              "position": 31,
              "duration": 0.08333333333333333
            },
            {
              "pitch": 61,
              "velocity": 109,
              "position": 31.010416666666668,
              "duration": 0.08333333333333333
            },
            {
              "pitch": 54,
              "velocity": 30,
              "position": 31.239583333333332,
              "duration": 0.052083333333333336
            },
            {
              "pitch": 69,
              "velocity": 39,
              "position": 31.25,
              "duration": 0.07291666666666667
            },
            {
              "pitch": 62,
              "velocity": 17,
              "position": 31.25,
              "duration": 0.08333333333333333
            },
            {
              "pitch": 54,
              "velocity": 71,
              "position": 31.489583333333332,
              "duration": 0.052083333333333336
            },
            {
              "pitch": 70,
              "velocity": 105,
              "position": 31.5,
              "duration": 0.07291666666666667
            },
            {
              "pitch": 62,
              "velocity": 90,
              "position": 31.5,
              "duration": 0.08333333333333333
            },
            {
              "pitch": 54,
              "velocity": 37,
              "position": 31.739583333333332,
              "duration": 0.052083333333333336
            },
            {
              "pitch": 70,
              "velocity": 35,
              "position": 31.75,
              "duration": 0.07291666666666667
            },
            {
              "pitch": 62,
              "velocity": 27,
              "position": 31.75,
              "duration": 0.08333333333333333
            },
            {
              "pitch": 54,
              "velocity": 50,
              "position": 31.989583333333332,
              "duration": 0.00625
            }
          ]
        },
        "9": {
          "ctab": {
            "srcChannel": 9,
            "name": "MainDrum",
            "accType": "RHYTHM",
            "editable": false,
            "mutedNotes": [],
            "mutedChords": [],
            "autoStart": true,
            "sourceChordNote": 0,
            "sourceChordType": "Maj7",
            "ctb2Low": null,
            "ctb2Main": {
              "ntr": "ROOT_FIXED",
              "ntt": "BYPASS",
              "bassOn": false,
              "chordRootUpperLimit": 6,
              "noteLowLimit": 0,
              "noteHighLimit": 127,
              "rtr": "PITCH_SHIFT"
            },
            "ctb2High": null
          },
          "notes": [
            {
              "pitch": 36,
              "velocity": 84,
              "position": 0,
              "duration": 0.052083333333333336
            },
            {
              "pitch": 42,
              "velocity": 88,
              "position": 0,
              "duration": 0.052083333333333336
            },
            {
              "pitch": 42,
              "velocity": 32,
              "position": 0.2604166666666667,
              "duration": 0.052083333333333336
            },
            {
              "pitch": 59,
              "velocity": 77,
              "position": 0.5,
              "duration": 0.052083333333333336
            },
            {
              "pitch": 36,
              "velocity": 54,
              "position": 0.7604166666666666,
              "duration": 0.052083333333333336
            },
            {
              "pitch": 42,
              "velocity": 63,
              "position": 0.7604166666666666,
              "duration": 0.052083333333333336
            },
            {
              "pitch": 36,
              "velocity": 84,
              "position": 1,
              "duration": 0.052083333333333336
            },
            {
              "pitch": 40,
              "velocity": 100,
              "position": 1,
              "duration": 0.052083333333333336
            },
            {
              "pitch": 42,
              "velocity": 37,
              "position": 1.2604166666666667,
              "duration": 0.052083333333333336
            },
            {
              "pitch": 59,
              "velocity": 72,
              "position": 1.5,
              "duration": 0.052083333333333336
            },
            {
              "pitch": 36,
              "velocity": 54,
              "position": 1.7604166666666667,
              "duration": 0.052083333333333336
            },
            {
              "pitch": 42,
              "velocity": 53,
              "position": 1.7604166666666667,
              "duration": 0.052083333333333336
            },
            {
              "pitch": 36,
              "velocity": 84,
              "position": 2,
              "duration": 0.052083333333333336
            },
            {
              "pitch": 42,
              "velocity": 79,
              "position": 2,
              "duration": 0.052083333333333336
            },
            {
              "pitch": 42,
              "velocity": 34,
              "position": 2.2604166666666665,
              "duration": 0.052083333333333336
            },
            {
              "pitch": 59,
              "velocity": 80,
              "position": 2.5,
              "duration": 0.052083333333333336
            },
            {
              "pitch": 36,
              "velocity": 54,
              "position": 2.7604166666666665,
              "duration": 0.052083333333333336
            },
            {
              "pitch": 42,
              "velocity": 59,
              "position": 2.7604166666666665,
              "duration": 0.052083333333333336
            },
            {
              "pitch": 36,
              "velocity": 84,
              "position": 3,
              "duration": 0.052083333333333336
            },
            {
              "pitch": 40,
              "velocity": 100,
              "position": 3,
              "duration": 0.052083333333333336
            },
            {
              "pitch": 42,
              "velocity": 41,
              "position": 3.2604166666666665,
              "duration": 0.052083333333333336
            },
            {
              "pitch": 59,
              "velocity": 73,
              "position": 3.5,
              "duration": 0.052083333333333336
            },
            {
              "pitch": 36,
              "velocity": 54,
              "position": 3.7604166666666665,
              "duration": 0.052083333333333336
            },
            {
              "pitch": 42,
              "velocity": 47,
              "position": 3.7604166666666665,
              "duration": 0.052083333333333336
            },
            {
              "pitch": 36,
              "velocity": 84,
              "position": 4,
              "duration": 0.052083333333333336
            },
            {
              "pitch": 42,
              "velocity": 77,
              "position": 4,
              "duration": 0.052083333333333336
            },
            {
              "pitch": 42,
              "velocity": 36,
              "position": 4.260416666666667,
              "duration": 0.052083333333333336
            },
            {
              "pitch": 59,
              "velocity": 79,
              "position": 4.5,
              "duration": 0.052083333333333336
            },
            {
              "pitch": 36,
              "velocity": 54,
              "position": 4.760416666666667,
              "duration": 0.052083333333333336
            },
            {
              "pitch": 42,
              "velocity": 63,
              "position": 4.760416666666667,
              "duration": 0.052083333333333336
            },
            {
              "pitch": 36,
              "velocity": 84,
              "position": 5,
              "duration": 0.052083333333333336
            },
            {
              "pitch": 40,
              "velocity": 100,
              "position": 5,
              "duration": 0.052083333333333336
            },
            {
              "pitch": 42,
              "velocity": 37,
              "position": 5.260416666666667,
              "duration": 0.052083333333333336
            },
            {
              "pitch": 59,
              "velocity": 77,
              "position": 5.5,
              "duration": 0.052083333333333336
            },
            {
              "pitch": 36,
              "velocity": 54,
              "position": 5.760416666666667,
              "duration": 0.052083333333333336
            },
            {
              "pitch": 42,
              "velocity": 49,
              "position": 5.760416666666667,
              "duration": 0.052083333333333336
            },
            {
              "pitch": 36,
              "velocity": 84,
              "position": 6,
              "duration": 0.052083333333333336
            },
            {
              "pitch": 42,
              "velocity": 82,
              "position": 6,
              "duration": 0.052083333333333336
            },
            {
              "pitch": 42,
              "velocity": 40,
              "position": 6.260416666666667,
              "duration": 0.052083333333333336
            },
            {
              "pitch": 59,
              "velocity": 76,
              "position": 6.5,
              "duration": 0.052083333333333336
            },
            {
              "pitch": 36,
              "velocity": 54,
              "position": 6.760416666666667,
              "duration": 0.052083333333333336
            },
            {
              "pitch": 42,
              "velocity": 60,
              "position": 6.760416666666667,
              "duration": 0.052083333333333336
            },
            {
              "pitch": 36,
              "velocity": 84,
              "position": 7,
              "duration": 0.052083333333333336
            },
            {
              "pitch": 40,
              "velocity": 100,
              "position": 7,
              "duration": 0.052083333333333336
            },
            {
              "pitch": 42,
              "velocity": 37,
              "position": 7.260416666666667,
              "duration": 0.052083333333333336
            },
            {
              "pitch": 59,
              "velocity": 81,
              "position": 7.5,
              "duration": 0.052083333333333336
            },
            {
              "pitch": 36,
              "velocity": 54,
              "position": 7.760416666666667,
              "duration": 0.052083333333333336
            },
            {
              "pitch": 42,
              "velocity": 51,
              "position": 7.760416666666667,
              "duration": 0.052083333333333336
            },
            {
              "pitch": 36,
              "velocity": 84,
              "position": 8,
              "duration": 0.052083333333333336
            },
            {
              "pitch": 42,
              "velocity": 79,
              "position": 8,
              "duration": 0.052083333333333336
            },
            {
              "pitch": 42,
              "velocity": 42,
              "position": 8.260416666666666,
              "duration": 0.052083333333333336
            },
            {
              "pitch": 59,
              "velocity": 73,
              "position": 8.5,
              "duration": 0.052083333333333336
            },
            {
              "pitch": 36,
              "velocity": 54,
              "position": 8.760416666666666,
              "duration": 0.052083333333333336
            },
            {
              "pitch": 42,
              "velocity": 65,
              "position": 8.760416666666666,
              "duration": 0.052083333333333336
            },
            {
              "pitch": 36,
              "velocity": 84,
              "position": 9,
              "duration": 0.052083333333333336
            },
            {
              "pitch": 40,
              "velocity": 100,
              "position": 9,
              "duration": 0.052083333333333336
            },
            {
              "pitch": 42,
              "velocity": 36,
              "position": 9.260416666666666,
              "duration": 0.052083333333333336
            },
            {
              "pitch": 59,
              "velocity": 84,
              "position": 9.5,
              "duration": 0.052083333333333336
            },
            {
              "pitch": 36,
              "velocity": 54,
              "position": 9.760416666666666,
              "duration": 0.052083333333333336
            },
            {
              "pitch": 42,
              "velocity": 53,
              "position": 9.760416666666666,
              "duration": 0.052083333333333336
            },
            {
              "pitch": 36,
              "velocity": 84,
              "position": 10,
              "duration": 0.052083333333333336
            },
            {
              "pitch": 42,
              "velocity": 87,
              "position": 10,
              "duration": 0.052083333333333336
            },
            {
              "pitch": 42,
              "velocity": 33,
              "position": 10.260416666666666,
              "duration": 0.052083333333333336
            },
            {
              "pitch": 59,
              "velocity": 72,
              "position": 10.5,
              "duration": 0.052083333333333336
            },
            {
              "pitch": 36,
              "velocity": 54,
              "position": 10.760416666666666,
              "duration": 0.052083333333333336
            },
            {
              "pitch": 42,
              "velocity": 70,
              "position": 10.760416666666666,
              "duration": 0.052083333333333336
            },
            {
              "pitch": 36,
              "velocity": 84,
              "position": 11,
              "duration": 0.052083333333333336
            },
            {
              "pitch": 40,
              "velocity": 100,
              "position": 11,
              "duration": 0.052083333333333336
            },
            {
              "pitch": 42,
              "velocity": 47,
              "position": 11.260416666666666,
              "duration": 0.052083333333333336
            },
            {
              "pitch": 59,
              "velocity": 79,
              "position": 11.5,
              "duration": 0.052083333333333336
            },
            {
              "pitch": 36,
              "velocity": 54,
              "position": 11.760416666666666,
              "duration": 0.052083333333333336
            },
            {
              "pitch": 42,
              "velocity": 54,
              "position": 11.760416666666666,
              "duration": 0.052083333333333336
            },
            {
              "pitch": 36,
              "velocity": 84,
              "position": 12,
              "duration": 0.052083333333333336
            },
            {
              "pitch": 42,
              "velocity": 77,
              "position": 12,
              "duration": 0.052083333333333336
            },
            {
              "pitch": 42,
              "velocity": 32,
              "position": 12.260416666666666,
              "duration": 0.052083333333333336
            },
            {
              "pitch": 59,
              "velocity": 72,
              "position": 12.5,
              "duration": 0.052083333333333336
            },
            {
              "pitch": 36,
              "velocity": 54,
              "position": 12.760416666666666,
              "duration": 0.052083333333333336
            },
            {
              "pitch": 42,
              "velocity": 64,
              "position": 12.760416666666666,
              "duration": 0.052083333333333336
            },
            {
              "pitch": 36,
              "velocity": 84,
              "position": 13,
              "duration": 0.052083333333333336
            },
            {
              "pitch": 40,
              "velocity": 100,
              "position": 13,
              "duration": 0.052083333333333336
            },
            {
              "pitch": 42,
              "velocity": 33,
              "position": 13.260416666666666,
              "duration": 0.052083333333333336
            },
            {
              "pitch": 59,
              "velocity": 71,
              "position": 13.5,
              "duration": 0.052083333333333336
            },
            {
              "pitch": 36,
              "velocity": 54,
              "position": 13.760416666666666,
              "duration": 0.052083333333333336
            },
            {
              "pitch": 42,
              "velocity": 49,
              "position": 13.760416666666666,
              "duration": 0.052083333333333336
            },
            {
              "pitch": 36,
              "velocity": 84,
              "position": 14,
              "duration": 0.052083333333333336
            },
            {
              "pitch": 42,
              "velocity": 86,
              "position": 14,
              "duration": 0.052083333333333336
            },
            {
              "pitch": 42,
              "velocity": 26,
              "position": 14.260416666666666,
              "duration": 0.052083333333333336
            },
            {
              "pitch": 59,
              "velocity": 76,
              "position": 14.5,
              "duration": 0.052083333333333336
            },
            {
              "pitch": 36,
              "velocity": 54,
              "position": 14.760416666666666,
              "duration": 0.052083333333333336
            },
            {
              "pitch": 42,
              "velocity": 60,
              "position": 14.760416666666666,
              "duration": 0.052083333333333336
            },
            {
              "pitch": 36,
              "velocity": 84,
              "position": 15,
              "duration": 0.052083333333333336
            },
            {
              "pitch": 40,
              "velocity": 100,
              "position": 15,
              "duration": 0.052083333333333336
            },
            {
              "pitch": 42,
              "velocity": 49,
              "position": 15.260416666666666,
              "duration": 0.052083333333333336
            },
            {
              "pitch": 59,
              "velocity": 78,
              "position": 15.5,
              "duration": 0.052083333333333336
            },
            {
              "pitch": 36,
              "velocity": 54,
              "position": 15.760416666666666,
              "duration": 0.052083333333333336
            },
            {
              "pitch": 42,
              "velocity": 49,
              "position": 15.760416666666666,
              "duration": 0.052083333333333336
            },
            {
              "pitch": 36,
              "velocity": 84,
              "position": 16,
              "duration": 0.052083333333333336
            },
            {
              "pitch": 42,
              "velocity": 86,
              "position": 16,
              "duration": 0.052083333333333336
            },
            {
              "pitch": 42,
              "velocity": 41,
              "position": 16.260416666666668,
              "duration": 0.052083333333333336
            },
            {
              "pitch": 59,
              "velocity": 74,
              "position": 16.5,
              "duration": 0.052083333333333336
            },
            {
              "pitch": 36,
              "velocity": 54,
              "position": 16.760416666666668,
              "duration": 0.052083333333333336
            },
            {
              "pitch": 42,
              "velocity": 68,
              "position": 16.760416666666668,
              "duration": 0.052083333333333336
            },
            {
              "pitch": 36,
              "velocity": 84,
              "position": 17,
              "duration": 0.052083333333333336
            },
            {
              "pitch": 40,
              "velocity": 100,
              "position": 17,
              "duration": 0.052083333333333336
            },
            {
              "pitch": 42,
              "velocity": 43,
              "position": 17.260416666666668,
              "duration": 0.052083333333333336
            },
            {
              "pitch": 59,
              "velocity": 77,
              "position": 17.5,
              "duration": 0.052083333333333336
            },
            {
              "pitch": 36,
              "velocity": 54,
              "position": 17.760416666666668,
              "duration": 0.052083333333333336
            },
            {
              "pitch": 42,
              "velocity": 50,
              "position": 17.760416666666668,
              "duration": 0.052083333333333336
            },
            {
              "pitch": 36,
              "velocity": 84,
              "position": 18,
              "duration": 0.052083333333333336
            },
            {
              "pitch": 42,
              "velocity": 87,
              "position": 18,
              "duration": 0.052083333333333336
            },
            {
              "pitch": 42,
              "velocity": 33,
              "position": 18.260416666666668,
              "duration": 0.052083333333333336
            },
            {
              "pitch": 59,
              "velocity": 81,
              "position": 18.5,
              "duration": 0.052083333333333336
            },
            {
              "pitch": 36,
              "velocity": 54,
              "position": 18.760416666666668,
              "duration": 0.052083333333333336
            },
            {
              "pitch": 42,
              "velocity": 57,
              "position": 18.760416666666668,
              "duration": 0.052083333333333336
            },
            {
              "pitch": 36,
              "velocity": 84,
              "position": 19,
              "duration": 0.052083333333333336
            },
            {
              "pitch": 40,
              "velocity": 100,
              "position": 19,
              "duration": 0.052083333333333336
            },
            {
              "pitch": 42,
              "velocity": 38,
              "position": 19.260416666666668,
              "duration": 0.052083333333333336
            },
            {
              "pitch": 59,
              "velocity": 79,
              "position": 19.5,
              "duration": 0.052083333333333336
            },
            {
              "pitch": 36,
              "velocity": 54,
              "position": 19.760416666666668,
              "duration": 0.052083333333333336
            },
            {
              "pitch": 42,
              "velocity": 43,
              "position": 19.760416666666668,
              "duration": 0.052083333333333336
            },
            {
              "pitch": 36,
              "velocity": 84,
              "position": 20,
              "duration": 0.052083333333333336
            },
            {
              "pitch": 42,
              "velocity": 75,
              "position": 20,
              "duration": 0.052083333333333336
            },
            {
              "pitch": 42,
              "velocity": 36,
              "position": 20.260416666666668,
              "duration": 0.052083333333333336
            },
            {
              "pitch": 59,
              "velocity": 80,
              "position": 20.5,
              "duration": 0.052083333333333336
            },
            {
              "pitch": 36,
              "velocity": 54,
              "position": 20.760416666666668,
              "duration": 0.052083333333333336
            },
            {
              "pitch": 42,
              "velocity": 70,
              "position": 20.760416666666668,
              "duration": 0.052083333333333336
            },
            {
              "pitch": 36,
              "velocity": 84,
              "position": 21,
              "duration": 0.052083333333333336
            },
            {
              "pitch": 40,
              "velocity": 100,
              "position": 21,
              "duration": 0.052083333333333336
            },
            {
              "pitch": 42,
              "velocity": 35,
              "position": 21.260416666666668,
              "duration": 0.052083333333333336
            },
            {
              "pitch": 59,
              "velocity": 80,
              "position": 21.5,
              "duration": 0.052083333333333336
            },
            {
              "pitch": 36,
              "velocity": 54,
              "position": 21.760416666666668,
              "duration": 0.052083333333333336
            },
            {
              "pitch": 42,
              "velocity": 43,
              "position": 21.760416666666668,
              "duration": 0.052083333333333336
            },
            {
              "pitch": 36,
              "velocity": 84,
              "position": 22,
              "duration": 0.052083333333333336
            },
            {
              "pitch": 42,
              "velocity": 85,
              "position": 22,
              "duration": 0.052083333333333336
            },
            {
              "pitch": 42,
              "velocity": 39,
              "position": 22.260416666666668,
              "duration": 0.052083333333333336
            },
            {
              "pitch": 59,
              "velocity": 83,
              "position": 22.5,
              "duration": 0.052083333333333336
            },
            {
              "pitch": 36,
              "velocity": 54,
              "position": 22.760416666666668,
              "duration": 0.052083333333333336
            },
            {
              "pitch": 42,
              "velocity": 61,
              "position": 22.760416666666668,
              "duration": 0.052083333333333336
            },
            {
              "pitch": 36,
              "velocity": 84,
              "position": 23,
              "duration": 0.052083333333333336
            },
            {
              "pitch": 40,
              "velocity": 100,
              "position": 23,
              "duration": 0.052083333333333336
            },
            {
              "pitch": 42,
              "velocity": 36,
              "position": 23.260416666666668,
              "duration": 0.052083333333333336
            },
            {
              "pitch": 59,
              "velocity": 81,
              "position": 23.5,
              "duration": 0.052083333333333336
            },
            {
              "pitch": 36,
              "velocity": 54,
              "position": 23.760416666666668,
              "duration": 0.052083333333333336
            },
            {
              "pitch": 42,
              "velocity": 46,
              "position": 23.760416666666668,
              "duration": 0.052083333333333336
            },
            {
              "pitch": 36,
              "velocity": 84,
              "position": 24,
              "duration": 0.052083333333333336
            },
            {
              "pitch": 42,
              "velocity": 88,
              "position": 24,
              "duration": 0.052083333333333336
            },
            {
              "pitch": 42,
              "velocity": 38,
              "position": 24.260416666666668,
              "duration": 0.052083333333333336
            },
            {
              "pitch": 59,
              "velocity": 73,
              "position": 24.5,
              "duration": 0.052083333333333336
            },
            {
              "pitch": 36,
              "velocity": 54,
              "position": 24.760416666666668,
              "duration": 0.052083333333333336
            },
            {
              "pitch": 42,
              "velocity": 64,
              "position": 24.760416666666668,
              "duration": 0.052083333333333336
            },
            {
              "pitch": 36,
              "velocity": 84,
              "position": 25,
              "duration": 0.052083333333333336
            },
            {
              "pitch": 40,
              "velocity": 100,
              "position": 25,
              "duration": 0.052083333333333336
            },
            {
              "pitch": 42,
              "velocity": 38,
              "position": 25.260416666666668,
              "duration": 0.052083333333333336
            },
            {
              "pitch": 59,
              "velocity": 75,
              "position": 25.5,
              "duration": 0.052083333333333336
            },
            {
              "pitch": 36,
              "velocity": 54,
              "position": 25.760416666666668,
              "duration": 0.052083333333333336
            },
            {
              "pitch": 42,
              "velocity": 53,
              "position": 25.760416666666668,
              "duration": 0.052083333333333336
            },
            {
              "pitch": 36,
              "velocity": 84,
              "position": 26,
              "duration": 0.052083333333333336
            },
            {
              "pitch": 42,
              "velocity": 88,
              "position": 26,
              "duration": 0.052083333333333336
            },
            {
              "pitch": 42,
              "velocity": 28,
              "position": 26.260416666666668,
              "duration": 0.052083333333333336
            },
            {
              "pitch": 59,
              "velocity": 73,
              "position": 26.5,
              "duration": 0.052083333333333336
            },
            {
              "pitch": 36,
              "velocity": 54,
              "position": 26.760416666666668,
              "duration": 0.052083333333333336
            },
            {
              "pitch": 42,
              "velocity": 71,
              "position": 26.760416666666668,
              "duration": 0.052083333333333336
            },
            {
              "pitch": 36,
              "velocity": 84,
              "position": 27,
              "duration": 0.052083333333333336
            },
            {
              "pitch": 40,
              "velocity": 100,
              "position": 27,
              "duration": 0.052083333333333336
            },
            {
              "pitch": 42,
              "velocity": 37,
              "position": 27.260416666666668,
              "duration": 0.052083333333333336
            },
            {
              "pitch": 59,
              "velocity": 82,
              "position": 27.5,
              "duration": 0.052083333333333336
            },
            {
              "pitch": 36,
              "velocity": 54,
              "position": 27.760416666666668,
              "duration": 0.052083333333333336
            },
            {
              "pitch": 42,
              "velocity": 51,
              "position": 27.760416666666668,
              "duration": 0.052083333333333336
            },
            {
              "pitch": 36,
              "velocity": 84,
              "position": 28,
              "duration": 0.052083333333333336
            },
            {
              "pitch": 42,
              "velocity": 79,
              "position": 28,
              "duration": 0.052083333333333336
            },
            {
              "pitch": 42,
              "velocity": 40,
              "position": 28.260416666666668,
              "duration": 0.052083333333333336
            },
            {
              "pitch": 59,
              "velocity": 82,
              "position": 28.5,
              "duration": 0.052083333333333336
            },
            {
              "pitch": 36,
              "velocity": 54,
              "position": 28.760416666666668,
              "duration": 0.052083333333333336
            },
            {
              "pitch": 42,
              "velocity": 57,
              "position": 28.760416666666668,
              "duration": 0.052083333333333336
            },
            {
              "pitch": 36,
              "velocity": 84,
              "position": 29,
              "duration": 0.052083333333333336
            },
            {
              "pitch": 40,
              "velocity": 100,
              "position": 29,
              "duration": 0.052083333333333336
            },
            {
              "pitch": 42,
              "velocity": 35,
              "position": 29.260416666666668,
              "duration": 0.052083333333333336
            },
            {
              "pitch": 59,
              "velocity": 82,
              "position": 29.5,
              "duration": 0.052083333333333336
            },
            {
              "pitch": 36,
              "velocity": 54,
              "position": 29.760416666666668,
              "duration": 0.052083333333333336
            },
            {
              "pitch": 42,
              "velocity": 53,
              "position": 29.760416666666668,
              "duration": 0.052083333333333336
            },
            {
              "pitch": 36,
              "velocity": 84,
              "position": 30,
              "duration": 0.052083333333333336
            },
            {
              "pitch": 42,
              "velocity": 75,
              "position": 30,
              "duration": 0.052083333333333336
            },
            {
              "pitch": 42,
              "velocity": 28,
              "position": 30.260416666666668,
              "duration": 0.052083333333333336
            },
            {
              "pitch": 59,
              "velocity": 76,
              "position": 30.5,
              "duration": 0.052083333333333336
            },
            {
              "pitch": 36,
              "velocity": 54,
              "position": 30.760416666666668,
              "duration": 0.052083333333333336
            },
            {
              "pitch": 42,
              "velocity": 57,
              "position": 30.760416666666668,
              "duration": 0.052083333333333336
            },
            {
              "pitch": 36,
              "velocity": 84,
              "position": 31,
              "duration": 0.052083333333333336
            },
            {
              "pitch": 40,
              "velocity": 100,
              "position": 31,
              "duration": 0.052083333333333336
            },
            {
              "pitch": 42,
              "velocity": 49,
              "position": 31.260416666666668,
              "duration": 0.052083333333333336
            },
            {
              "pitch": 59,
              "velocity": 81,
              "position": 31.5,
              "duration": 0.052083333333333336
            },
            {
              "pitch": 36,
              "velocity": 54,
              "position": 31.760416666666668,
              "duration": 0.052083333333333336
            },
            {
              "pitch": 42,
              "velocity": 51,
              "position": 31.760416666666668,
              "duration": 0.052083333333333336
            }
          ]
        },
        "10": {
          "ctab": {
            "srcChannel": 10,
            "name": "Bass",
            "accType": "BASS",
            "editable": false,
            "mutedNotes": [],
            "mutedChords": [],
            "autoStart": false,
            "sourceChordNote": 0,
            "sourceChordType": "Maj7",
            "ctb2Low": null,
            "ctb2Main": {
              "ntr": "ROOT_TRANSPOSITION",
              "ntt": "MELODY",
              "bassOn": true,
              "chordRootUpperLimit": 8,
              "noteLowLimit": 28,
              "noteHighLimit": 127,
              "rtr": "PITCH_SHIFT_TO_ROOT"
            },
            "ctb2High": null
          },
          "notes": [
            {
              "pitch": 24,
              "velocity": 60,
              "position": 0,
              "duration": 0.4895833333333333
            },
            {
              "pitch": 24,
              "velocity": 100,
              "position": 0.5,
              "duration": 0.23958333333333334
            },
            {
              "pitch": 24,
              "velocity": 60,
              "position": 0.7604166666666666,
              "duration": 0.22916666666666666
            },
            {
              "pitch": 31,
              "velocity": 60,
              "position": 1,
              "duration": 0.4895833333333333
            },
            {
              "pitch": 31,
              "velocity": 100,
              "position": 1.5,
              "duration": 0.23958333333333334
            },
            {
              "pitch": 31,
              "velocity": 60,
              "position": 1.7604166666666667,
              "duration": 0.22916666666666666
            },
            {
              "pitch": 24,
              "velocity": 60,
              "position": 2,
              "duration": 0.4895833333333333
            },
            {
              "pitch": 24,
              "velocity": 100,
              "position": 2.5,
              "duration": 0.23958333333333334
            },
            {
              "pitch": 24,
              "velocity": 60,
              "position": 2.7604166666666665,
              "duration": 0.22916666666666666
            },
            {
              "pitch": 31,
              "velocity": 60,
              "position": 3,
              "duration": 0.4895833333333333
            },
            {
              "pitch": 31,
              "velocity": 100,
              "position": 3.5,
              "duration": 0.23958333333333334
            },
            {
              "pitch": 31,
              "velocity": 60,
              "position": 3.7604166666666665,
              "duration": 0.22916666666666666
            },
            {
              "pitch": 24,
              "velocity": 60,
              "position": 4,
              "duration": 0.4895833333333333
            },
            {
              "pitch": 24,
              "velocity": 100,
              "position": 4.5,
              "duration": 0.23958333333333334
            },
            {
              "pitch": 24,
              "velocity": 60,
              "position": 4.760416666666667,
              "duration": 0.22916666666666666
            },
            {
              "pitch": 31,
              "velocity": 60,
              "position": 5,
              "duration": 0.4895833333333333
            },
            {
              "pitch": 31,
              "velocity": 100,
              "position": 5.5,
              "duration": 0.23958333333333334
            },
            {
              "pitch": 31,
              "velocity": 60,
              "position": 5.760416666666667,
              "duration": 0.22916666666666666
            },
            {
              "pitch": 24,
              "velocity": 60,
              "position": 6,
              "duration": 0.4895833333333333
            },
            {
              "pitch": 24,
              "velocity": 100,
              "position": 6.5,
              "duration": 0.23958333333333334
            },
            {
              "pitch": 24,
              "velocity": 60,
              "position": 6.760416666666667,
              "duration": 0.22916666666666666
            },
            {
              "pitch": 31,
              "velocity": 60,
              "position": 7,
              "duration": 0.4895833333333333
            },
            {
              "pitch": 31,
              "velocity": 100,
              "position": 7.5,
              "duration": 0.23958333333333334
            },
            {
              "pitch": 31,
              "velocity": 60,
              "position": 7.760416666666667,
              "duration": 0.22916666666666666
            },
            {
              "pitch": 24,
              "velocity": 60,
              "position": 8,
              "duration": 0.4895833333333333
            },
            {
              "pitch": 24,
              "velocity": 100,
              "position": 8.5,
              "duration": 0.23958333333333334
            },
            {
              "pitch": 24,
              "velocity": 60,
              "position": 8.760416666666666,
              "duration": 0.22916666666666666
            },
            {
              "pitch": 31,
              "velocity": 60,
              "position": 9,
              "duration": 0.4895833333333333
            },
            {
              "pitch": 31,
              "velocity": 100,
              "position": 9.5,
              "duration": 0.23958333333333334
            },
            {
              "pitch": 31,
              "velocity": 60,
              "position": 9.760416666666666,
              "duration": 0.22916666666666666
            },
            {
              "pitch": 24,
              "velocity": 60,
              "position": 10,
              "duration": 0.4895833333333333
            },
            {
              "pitch": 24,
              "velocity": 100,
              "position": 10.5,
              "duration": 0.23958333333333334
            },
            {
              "pitch": 24,
              "velocity": 60,
              "position": 10.760416666666666,
              "duration": 0.22916666666666666
            },
            {
              "pitch": 31,
              "velocity": 60,
              "position": 11,
              "duration": 0.4895833333333333
            },
            {
              "pitch": 31,
              "velocity": 100,
              "position": 11.5,
              "duration": 0.23958333333333334
            },
            {
              "pitch": 31,
              "velocity": 60,
              "position": 11.760416666666666,
              "duration": 0.22916666666666666
            },
            {
              "pitch": 24,
              "velocity": 60,
              "position": 12,
              "duration": 0.4895833333333333
            },
            {
              "pitch": 24,
              "velocity": 100,
              "position": 12.5,
              "duration": 0.23958333333333334
            },
            {
              "pitch": 24,
              "velocity": 60,
              "position": 12.760416666666666,
              "duration": 0.22916666666666666
            },
            {
              "pitch": 31,
              "velocity": 60,
              "position": 13,
              "duration": 0.4895833333333333
            },
            {
              "pitch": 31,
              "velocity": 100,
              "position": 13.5,
              "duration": 0.23958333333333334
            },
            {
              "pitch": 31,
              "velocity": 60,
              "position": 13.760416666666666,
              "duration": 0.22916666666666666
            },
            {
              "pitch": 24,
              "velocity": 60,
              "position": 14,
              "duration": 0.4895833333333333
            },
            {
              "pitch": 24,
              "velocity": 100,
              "position": 14.5,
              "duration": 0.23958333333333334
            },
            {
              "pitch": 24,
              "velocity": 60,
              "position": 14.760416666666666,
              "duration": 0.22916666666666666
            },
            {
              "pitch": 31,
              "velocity": 60,
              "position": 15,
              "duration": 0.4895833333333333
            },
            {
              "pitch": 31,
              "velocity": 100,
              "position": 15.5,
              "duration": 0.23958333333333334
            },
            {
              "pitch": 31,
              "velocity": 60,
              "position": 15.760416666666666,
              "duration": 0.22916666666666666
            },
            {
              "pitch": 24,
              "velocity": 60,
              "position": 16,
              "duration": 0.4895833333333333
            },
            {
              "pitch": 24,
              "velocity": 100,
              "position": 16.5,
              "duration": 0.23958333333333334
            },
            {
              "pitch": 24,
              "velocity": 60,
              "position": 16.760416666666668,
              "duration": 0.22916666666666666
            },
            {
              "pitch": 31,
              "velocity": 60,
              "position": 17,
              "duration": 0.4895833333333333
            },
            {
              "pitch": 31,
              "velocity": 100,
              "position": 17.5,
              "duration": 0.23958333333333334
            },
            {
              "pitch": 31,
              "velocity": 60,
              "position": 17.760416666666668,
              "duration": 0.22916666666666666
            },
            {
              "pitch": 24,
              "velocity": 60,
              "position": 18,
              "duration": 0.4895833333333333
            },
            {
              "pitch": 24,
              "velocity": 100,
              "position": 18.5,
              "duration": 0.23958333333333334
            },
            {
              "pitch": 24,
              "velocity": 60,
              "position": 18.760416666666668,
              "duration": 0.22916666666666666
            },
            {
              "pitch": 31,
              "velocity": 60,
              "position": 19,
              "duration": 0.4895833333333333
            },
            {
              "pitch": 31,
              "velocity": 100,
              "position": 19.5,
              "duration": 0.23958333333333334
            },
            {
              "pitch": 31,
              "velocity": 60,
              "position": 19.760416666666668,
              "duration": 0.22916666666666666
            },
            {
              "pitch": 24,
              "velocity": 60,
              "position": 20,
              "duration": 0.4895833333333333
            },
            {
              "pitch": 24,
              "velocity": 100,
              "position": 20.5,
              "duration": 0.23958333333333334
            },
            {
              "pitch": 24,
              "velocity": 60,
              "position": 20.760416666666668,
              "duration": 0.22916666666666666
            },
            {
              "pitch": 31,
              "velocity": 60,
              "position": 21,
              "duration": 0.4895833333333333
            },
            {
              "pitch": 31,
              "velocity": 100,
              "position": 21.5,
              "duration": 0.23958333333333334
            },
            {
              "pitch": 31,
              "velocity": 60,
              "position": 21.760416666666668,
              "duration": 0.22916666666666666
            },
            {
              "pitch": 24,
              "velocity": 60,
              "position": 22,
              "duration": 0.4895833333333333
            },
            {
              "pitch": 24,
              "velocity": 100,
              "position": 22.5,
              "duration": 0.23958333333333334
            },
            {
              "pitch": 24,
              "velocity": 60,
              "position": 22.760416666666668,
              "duration": 0.22916666666666666
            },
            {
              "pitch": 31,
              "velocity": 60,
              "position": 23,
              "duration": 0.4895833333333333
            },
            {
              "pitch": 31,
              "velocity": 100,
              "position": 23.5,
              "duration": 0.23958333333333334
            },
            {
              "pitch": 31,
              "velocity": 60,
              "position": 23.760416666666668,
              "duration": 0.22916666666666666
            },
            {
              "pitch": 24,
              "velocity": 60,
              "position": 24,
              "duration": 0.4895833333333333
            },
            {
              "pitch": 24,
              "velocity": 100,
              "position": 24.5,
              "duration": 0.23958333333333334
            },
            {
              "pitch": 24,
              "velocity": 60,
              "position": 24.760416666666668,
              "duration": 0.22916666666666666
            },
            {
              "pitch": 31,
              "velocity": 60,
              "position": 25,
              "duration": 0.4895833333333333
            },
            {
              "pitch": 31,
              "velocity": 100,
              "position": 25.5,
              "duration": 0.23958333333333334
            },
            {
              "pitch": 31,
              "velocity": 60,
              "position": 25.760416666666668,
              "duration": 0.22916666666666666
            },
            {
              "pitch": 24,
              "velocity": 60,
              "position": 26,
              "duration": 0.4895833333333333
            },
            {
              "pitch": 24,
              "velocity": 100,
              "position": 26.5,
              "duration": 0.23958333333333334
            },
            {
              "pitch": 24,
              "velocity": 60,
              "position": 26.760416666666668,
              "duration": 0.22916666666666666
            },
            {
              "pitch": 31,
              "velocity": 60,
              "position": 27,
              "duration": 0.4895833333333333
            },
            {
              "pitch": 31,
              "velocity": 100,
              "position": 27.5,
              "duration": 0.23958333333333334
            },
            {
              "pitch": 31,
              "velocity": 60,
              "position": 27.760416666666668,
              "duration": 0.22916666666666666
            },
            {
              "pitch": 24,
              "velocity": 60,
              "position": 28,
              "duration": 0.4895833333333333
            },
            {
              "pitch": 24,
              "velocity": 100,
              "position": 28.5,
              "duration": 0.23958333333333334
            },
            {
              "pitch": 24,
              "velocity": 60,
              "position": 28.760416666666668,
              "duration": 0.22916666666666666
            },
            {
              "pitch": 31,
              "velocity": 60,
              "position": 29,
              "duration": 0.4895833333333333
            },
            {
              "pitch": 31,
              "velocity": 100,
              "position": 29.5,
              "duration": 0.23958333333333334
            },
            {
              "pitch": 31,
              "velocity": 60,
              "position": 29.760416666666668,
              "duration": 0.22916666666666666
            },
            {
              "pitch": 24,
              "velocity": 60,
              "position": 30,
              "duration": 0.4895833333333333
            },
            {
              "pitch": 24,
              "velocity": 100,
              "position": 30.5,
              "duration": 0.23958333333333334
            },
            {
              "pitch": 24,
              "velocity": 60,
              "position": 30.760416666666668,
              "duration": 0.22916666666666666
            },
            {
              "pitch": 31,
              "velocity": 60,
              "position": 31,
              "duration": 0.4895833333333333
            },
            {
              "pitch": 31,
              "velocity": 100,
              "position": 31.5,
              "duration": 0.23958333333333334
            },
            {
              "pitch": 31,
              "velocity": 60,
              "position": 31.760416666666668,
              "duration": 0.22916666666666666
            }
          ]
        },
        "11": {
          "ctab": {
            "srcChannel": 11,
            "name": "Gt_Stk",
            "accType": "CHORD1",
            "editable": false,
            "mutedNotes": [],
            "mutedChords": [],
            "autoStart": false,
            "sourceChordNote": 0,
            "sourceChordType": "Maj7",
            "ctb2Low": null,
            "ctb2Main": {
              "ntr": "ROOT_TRANSPOSITION",
              "ntt": "MELODY",
              "bassOn": true,
              "chordRootUpperLimit": 7,
              "noteLowLimit": 0,
              "noteHighLimit": 127,
              "rtr": "PITCH_SHIFT"
            },
            "ctb2High": null
          },
          "notes": [
            {
              "pitch": 48,
              "velocity": 38,
              "position": 0,
              "duration": 0.48125
            },
            {
              "pitch": 55,
              "velocity": 38,
              "position": 0,
              "duration": 0.48125
            },
            {
              "pitch": 59,
              "velocity": 38,
              "position": 0,
              "duration": 0.48125
            },
            {
              "pitch": 60,
              "velocity": 41,
              "position": 0.010416666666666666,
              "duration": 0.48125
            },
            {
              "pitch": 64,
              "velocity": 37,
              "position": 0,
              "duration": 0.49166666666666664
            },
            {
              "pitch": 67,
              "velocity": 46,
              "position": 0,
              "duration": 0.5020833333333333
            },
            {
              "pitch": 71,
              "velocity": 46,
              "position": 0,
              "duration": 0.5020833333333333
            },
            {
              "pitch": 67,
              "velocity": 50,
              "position": 0.5104166666666666,
              "duration": 0.22083333333333333
            },
            {
              "pitch": 71,
              "velocity": 50,
              "position": 0.5104166666666666,
              "duration": 0.22083333333333333
            },
            {
              "pitch": 60,
              "velocity": 50,
              "position": 0.5,
              "duration": 0.24166666666666667
            },
            {
              "pitch": 64,
              "velocity": 49,
              "position": 0.5,
              "duration": 0.24166666666666667
            },
            {
              "pitch": 48,
              "velocity": 50,
              "position": 0.4895833333333333,
              "duration": 0.49166666666666664
            },
            {
              "pitch": 55,
              "velocity": 50,
              "position": 0.4895833333333333,
              "duration": 0.49166666666666664
            },
            {
              "pitch": 59,
              "velocity": 50,
              "position": 0.4895833333333333,
              "duration": 0.49166666666666664
            },
            {
              "pitch": 60,
              "velocity": 37,
              "position": 0.75,
              "duration": 0.24166666666666667
            },
            {
              "pitch": 64,
              "velocity": 36,
              "position": 0.75,
              "duration": 0.24166666666666667
            },
            {
              "pitch": 67,
              "velocity": 36,
              "position": 0.7395833333333334,
              "duration": 0.2625
            },
            {
              "pitch": 71,
              "velocity": 36,
              "position": 0.7395833333333334,
              "duration": 0.2625
            },
            {
              "pitch": 48,
              "velocity": 50,
              "position": 0.9895833333333334,
              "duration": 0.49166666666666664
            },
            {
              "pitch": 55,
              "velocity": 50,
              "position": 0.9895833333333334,
              "duration": 0.49166666666666664
            },
            {
              "pitch": 59,
              "velocity": 50,
              "position": 0.9895833333333334,
              "duration": 0.49166666666666664
            },
            {
              "pitch": 60,
              "velocity": 48,
              "position": 1,
              "duration": 0.49166666666666664
            },
            {
              "pitch": 64,
              "velocity": 49,
              "position": 1,
              "duration": 0.49166666666666664
            },
            {
              "pitch": 67,
              "velocity": 46,
              "position": 1.0104166666666667,
              "duration": 0.49166666666666664
            },
            {
              "pitch": 71,
              "velocity": 46,
              "position": 1.0104166666666667,
              "duration": 0.49166666666666664
            },
            {
              "pitch": 67,
              "velocity": 50,
              "position": 1.5104166666666667,
              "duration": 0.22083333333333333
            },
            {
              "pitch": 71,
              "velocity": 50,
              "position": 1.5104166666666667,
              "duration": 0.22083333333333333
            },
            {
              "pitch": 60,
              "velocity": 50,
              "position": 1.5,
              "duration": 0.24166666666666667
            },
            {
              "pitch": 64,
              "velocity": 49,
              "position": 1.5,
              "duration": 0.24166666666666667
            },
            {
              "pitch": 48,
              "velocity": 50,
              "position": 1.4895833333333333,
              "duration": 0.49166666666666664
            },
            {
              "pitch": 55,
              "velocity": 50,
              "position": 1.4895833333333333,
              "duration": 0.49166666666666664
            },
            {
              "pitch": 59,
              "velocity": 50,
              "position": 1.4895833333333333,
              "duration": 0.49166666666666664
            },
            {
              "pitch": 64,
              "velocity": 33,
              "position": 1.75,
              "duration": 0.24166666666666667
            },
            {
              "pitch": 67,
              "velocity": 34,
              "position": 1.7395833333333333,
              "duration": 0.2625
            },
            {
              "pitch": 71,
              "velocity": 34,
              "position": 1.7395833333333333,
              "duration": 0.2625
            },
            {
              "pitch": 67,
              "velocity": 42,
              "position": 2.0104166666666665,
              "duration": 0.22083333333333333
            },
            {
              "pitch": 71,
              "velocity": 42,
              "position": 2.0104166666666665,
              "duration": 0.22083333333333333
            },
            {
              "pitch": 60,
              "velocity": 34,
              "position": 1.75,
              "duration": 0.49166666666666664
            },
            {
              "pitch": 64,
              "velocity": 41,
              "position": 2,
              "duration": 0.24166666666666667
            },
            {
              "pitch": 48,
              "velocity": 42,
              "position": 1.9895833333333333,
              "duration": 0.2625
            },
            {
              "pitch": 55,
              "velocity": 42,
              "position": 1.9895833333333333,
              "duration": 0.2625
            },
            {
              "pitch": 59,
              "velocity": 42,
              "position": 1.9895833333333333,
              "duration": 0.2625
            },
            {
              "pitch": 48,
              "velocity": 42,
              "position": 2.2604166666666665,
              "duration": 0.22083333333333333
            },
            {
              "pitch": 55,
              "velocity": 42,
              "position": 2.2604166666666665,
              "duration": 0.22083333333333333
            },
            {
              "pitch": 59,
              "velocity": 42,
              "position": 2.2604166666666665,
              "duration": 0.22083333333333333
            },
            {
              "pitch": 60,
              "velocity": 32,
              "position": 2.25,
              "duration": 0.24166666666666667
            },
            {
              "pitch": 64,
              "velocity": 41,
              "position": 2.25,
              "duration": 0.24166666666666667
            },
            {
              "pitch": 67,
              "velocity": 38,
              "position": 2.2395833333333335,
              "duration": 0.2625
            },
            {
              "pitch": 71,
              "velocity": 38,
              "position": 2.2395833333333335,
              "duration": 0.2625
            },
            {
              "pitch": 48,
              "velocity": 48,
              "position": 2.4895833333333335,
              "duration": 0.49166666666666664
            },
            {
              "pitch": 55,
              "velocity": 48,
              "position": 2.4895833333333335,
              "duration": 0.49166666666666664
            },
            {
              "pitch": 59,
              "velocity": 48,
              "position": 2.4895833333333335,
              "duration": 0.49166666666666664
            },
            {
              "pitch": 60,
              "velocity": 48,
              "position": 2.5,
              "duration": 0.49166666666666664
            },
            {
              "pitch": 64,
              "velocity": 47,
              "position": 2.5,
              "duration": 0.49166666666666664
            },
            {
              "pitch": 67,
              "velocity": 48,
              "position": 2.5104166666666665,
              "duration": 0.49166666666666664
            },
            {
              "pitch": 71,
              "velocity": 48,
              "position": 2.5104166666666665,
              "duration": 0.49166666666666664
            },
            {
              "pitch": 48,
              "velocity": 45,
              "position": 2.9895833333333335,
              "duration": 0.49166666666666664
            },
            {
              "pitch": 55,
              "velocity": 45,
              "position": 2.9895833333333335,
              "duration": 0.49166666666666664
            },
            {
              "pitch": 59,
              "velocity": 45,
              "position": 2.9895833333333335,
              "duration": 0.49166666666666664
            },
            {
              "pitch": 60,
              "velocity": 42,
              "position": 3,
              "duration": 0.49166666666666664
            },
            {
              "pitch": 64,
              "velocity": 44,
              "position": 3,
              "duration": 0.49166666666666664
            },
            {
              "pitch": 67,
              "velocity": 42,
              "position": 3.0104166666666665,
              "duration": 0.49166666666666664
            },
            {
              "pitch": 71,
              "velocity": 42,
              "position": 3.0104166666666665,
              "duration": 0.49166666666666664
            },
            {
              "pitch": 67,
              "velocity": 46,
              "position": 3.5104166666666665,
              "duration": 0.22083333333333333
            },
            {
              "pitch": 71,
              "velocity": 46,
              "position": 3.5104166666666665,
              "duration": 0.22083333333333333
            },
            {
              "pitch": 60,
              "velocity": 46,
              "position": 3.5,
              "duration": 0.24166666666666667
            },
            {
              "pitch": 64,
              "velocity": 45,
              "position": 3.5,
              "duration": 0.24166666666666667
            },
            {
              "pitch": 48,
              "velocity": 46,
              "position": 3.4895833333333335,
              "duration": 0.49166666666666664
            },
            {
              "pitch": 55,
              "velocity": 46,
              "position": 3.4895833333333335,
              "duration": 0.49166666666666664
            },
            {
              "pitch": 59,
              "velocity": 46,
              "position": 3.4895833333333335,
              "duration": 0.49166666666666664
            },
            {
              "pitch": 60,
              "velocity": 37,
              "position": 3.75,
              "duration": 0.24166666666666667
            },
            {
              "pitch": 64,
              "velocity": 36,
              "position": 3.75,
              "duration": 0.24166666666666667
            },
            {
              "pitch": 67,
              "velocity": 37,
              "position": 3.7395833333333335,
              "duration": 0.2625
            },
            {
              "pitch": 71,
              "velocity": 37,
              "position": 3.7395833333333335,
              "duration": 0.2625
            },
            {
              "pitch": 48,
              "velocity": 38,
              "position": 3.9895833333333335,
              "duration": 0.49166666666666664
            },
            {
              "pitch": 55,
              "velocity": 38,
              "position": 3.9895833333333335,
              "duration": 0.49166666666666664
            },
            {
              "pitch": 59,
              "velocity": 38,
              "position": 3.9895833333333335,
              "duration": 0.49166666666666664
            },
            {
              "pitch": 60,
              "velocity": 41,
              "position": 4,
              "duration": 0.49166666666666664
            },
            {
              "pitch": 64,
              "velocity": 37,
              "position": 4,
              "duration": 0.49166666666666664
            },
            {
              "pitch": 67,
              "velocity": 46,
              "position": 4.010416666666667,
              "duration": 0.49166666666666664
            },
            {
              "pitch": 71,
              "velocity": 46,
              "position": 4.010416666666667,
              "duration": 0.49166666666666664
            },
            {
              "pitch": 67,
              "velocity": 50,
              "position": 4.510416666666667,
              "duration": 0.22083333333333333
            },
            {
              "pitch": 71,
              "velocity": 50,
              "position": 4.510416666666667,
              "duration": 0.22083333333333333
            },
            {
              "pitch": 60,
              "velocity": 50,
              "position": 4.5,
              "duration": 0.24166666666666667
            },
            {
              "pitch": 64,
              "velocity": 49,
              "position": 4.5,
              "duration": 0.24166666666666667
            },
            {
              "pitch": 48,
              "velocity": 50,
              "position": 4.489583333333333,
              "duration": 0.2625
            },
            {
              "pitch": 55,
              "velocity": 50,
              "position": 4.489583333333333,
              "duration": 0.2625
            },
            {
              "pitch": 59,
              "velocity": 50,
              "position": 4.489583333333333,
              "duration": 0.2625
            },
            {
              "pitch": 48,
              "velocity": 37,
              "position": 4.760416666666667,
              "duration": 0.22083333333333333
            },
            {
              "pitch": 55,
              "velocity": 37,
              "position": 4.760416666666667,
              "duration": 0.22083333333333333
            },
            {
              "pitch": 59,
              "velocity": 37,
              "position": 4.760416666666667,
              "duration": 0.22083333333333333
            },
            {
              "pitch": 60,
              "velocity": 37,
              "position": 4.75,
              "duration": 0.24166666666666667
            },
            {
              "pitch": 64,
              "velocity": 36,
              "position": 4.75,
              "duration": 0.24166666666666667
            },
            {
              "pitch": 67,
              "velocity": 36,
              "position": 4.739583333333333,
              "duration": 0.2625
            },
            {
              "pitch": 71,
              "velocity": 36,
              "position": 4.739583333333333,
              "duration": 0.2625
            },
            {
              "pitch": 48,
              "velocity": 50,
              "position": 4.989583333333333,
              "duration": 0.49166666666666664
            },
            {
              "pitch": 55,
              "velocity": 50,
              "position": 4.989583333333333,
              "duration": 0.49166666666666664
            },
            {
              "pitch": 59,
              "velocity": 50,
              "position": 4.989583333333333,
              "duration": 0.49166666666666664
            },
            {
              "pitch": 60,
              "velocity": 48,
              "position": 5,
              "duration": 0.49166666666666664
            },
            {
              "pitch": 64,
              "velocity": 49,
              "position": 5,
              "duration": 0.49166666666666664
            },
            {
              "pitch": 67,
              "velocity": 43,
              "position": 5.010416666666667,
              "duration": 0.49166666666666664
            },
            {
              "pitch": 71,
              "velocity": 43,
              "position": 5.010416666666667,
              "duration": 0.49166666666666664
            },
            {
              "pitch": 67,
              "velocity": 50,
              "position": 5.510416666666667,
              "duration": 0.22083333333333333
            },
            {
              "pitch": 71,
              "velocity": 50,
              "position": 5.510416666666667,
              "duration": 0.22083333333333333
            },
            {
              "pitch": 60,
              "velocity": 50,
              "position": 5.5,
              "duration": 0.24166666666666667
            },
            {
              "pitch": 64,
              "velocity": 49,
              "position": 5.5,
              "duration": 0.24166666666666667
            },
            {
              "pitch": 48,
              "velocity": 50,
              "position": 5.489583333333333,
              "duration": 0.2625
            },
            {
              "pitch": 55,
              "velocity": 50,
              "position": 5.489583333333333,
              "duration": 0.2625
            },
            {
              "pitch": 59,
              "velocity": 50,
              "position": 5.489583333333333,
              "duration": 0.2625
            },
            {
              "pitch": 48,
              "velocity": 34,
              "position": 5.760416666666667,
              "duration": 0.22083333333333333
            },
            {
              "pitch": 55,
              "velocity": 34,
              "position": 5.760416666666667,
              "duration": 0.22083333333333333
            },
            {
              "pitch": 59,
              "velocity": 34,
              "position": 5.760416666666667,
              "duration": 0.22083333333333333
            },
            {
              "pitch": 64,
              "velocity": 33,
              "position": 5.75,
              "duration": 0.24166666666666667
            },
            {
              "pitch": 67,
              "velocity": 34,
              "position": 5.739583333333333,
              "duration": 0.2625
            },
            {
              "pitch": 71,
              "velocity": 34,
              "position": 5.739583333333333,
              "duration": 0.2625
            },
            {
              "pitch": 67,
              "velocity": 42,
              "position": 6.010416666666667,
              "duration": 0.22083333333333333
            },
            {
              "pitch": 71,
              "velocity": 42,
              "position": 6.010416666666667,
              "duration": 0.22083333333333333
            },
            {
              "pitch": 60,
              "velocity": 34,
              "position": 5.75,
              "duration": 0.49166666666666664
            },
            {
              "pitch": 64,
              "velocity": 33,
              "position": 6,
              "duration": 0.24166666666666667
            },
            {
              "pitch": 48,
              "velocity": 34,
              "position": 5.989583333333333,
              "duration": 0.49166666666666664
            },
            {
              "pitch": 55,
              "velocity": 34,
              "position": 5.989583333333333,
              "duration": 0.49166666666666664
            },
            {
              "pitch": 59,
              "velocity": 34,
              "position": 5.989583333333333,
              "duration": 0.49166666666666664
            },
            {
              "pitch": 60,
              "velocity": 32,
              "position": 6.25,
              "duration": 0.24166666666666667
            },
            {
              "pitch": 64,
              "velocity": 42,
              "position": 6.25,
              "duration": 0.24166666666666667
            },
            {
              "pitch": 67,
              "velocity": 37,
              "position": 6.239583333333333,
              "duration": 0.2625
            },
            {
              "pitch": 71,
              "velocity": 37,
              "position": 6.239583333333333,
              "duration": 0.2625
            },
            {
              "pitch": 67,
              "velocity": 50,
              "position": 6.510416666666667,
              "duration": 0.22083333333333333
            },
            {
              "pitch": 71,
              "velocity": 50,
              "position": 6.510416666666667,
              "duration": 0.22083333333333333
            },
            {
              "pitch": 64,
              "velocity": 41,
              "position": 6.5,
              "duration": 0.24166666666666667
            },
            {
              "pitch": 48,
              "velocity": 42,
              "position": 6.489583333333333,
              "duration": 0.2625
            },
            {
              "pitch": 55,
              "velocity": 42,
              "position": 6.489583333333333,
              "duration": 0.2625
            },
            {
              "pitch": 59,
              "velocity": 42,
              "position": 6.489583333333333,
              "duration": 0.2625
            },
            {
              "pitch": 48,
              "velocity": 42,
              "position": 6.760416666666667,
              "duration": 0.22083333333333333
            },
            {
              "pitch": 55,
              "velocity": 42,
              "position": 6.760416666666667,
              "duration": 0.22083333333333333
            },
            {
              "pitch": 59,
              "velocity": 42,
              "position": 6.760416666666667,
              "duration": 0.22083333333333333
            },
            {
              "pitch": 60,
              "velocity": 50,
              "position": 6.5,
              "duration": 0.49166666666666664
            },
            {
              "pitch": 64,
              "velocity": 41,
              "position": 6.75,
              "duration": 0.24166666666666667
            },
            {
              "pitch": 67,
              "velocity": 26,
              "position": 6.739583333333333,
              "duration": 0.2625
            },
            {
              "pitch": 71,
              "velocity": 26,
              "position": 6.739583333333333,
              "duration": 0.2625
            },
            {
              "pitch": 48,
              "velocity": 45,
              "position": 6.989583333333333,
              "duration": 0.49166666666666664
            },
            {
              "pitch": 55,
              "velocity": 45,
              "position": 6.989583333333333,
              "duration": 0.49166666666666664
            },
            {
              "pitch": 59,
              "velocity": 45,
              "position": 6.989583333333333,
              "duration": 0.49166666666666664
            },
            {
              "pitch": 60,
              "velocity": 42,
              "position": 7,
              "duration": 0.49166666666666664
            },
            {
              "pitch": 64,
              "velocity": 44,
              "position": 7,
              "duration": 0.49166666666666664
            },
            {
              "pitch": 67,
              "velocity": 41,
              "position": 7.010416666666667,
              "duration": 0.49166666666666664
            },
            {
              "pitch": 71,
              "velocity": 41,
              "position": 7.010416666666667,
              "duration": 0.49166666666666664
            },
            {
              "pitch": 67,
              "velocity": 50,
              "position": 7.510416666666667,
              "duration": 0.22083333333333333
            },
            {
              "pitch": 71,
              "velocity": 50,
              "position": 7.510416666666667,
              "duration": 0.22083333333333333
            },
            {
              "pitch": 60,
              "velocity": 50,
              "position": 7.5,
              "duration": 0.24166666666666667
            },
            {
              "pitch": 64,
              "velocity": 49,
              "position": 7.5,
              "duration": 0.24166666666666667
            },
            {
              "pitch": 48,
              "velocity": 50,
              "position": 7.489583333333333,
              "duration": 0.2625
            },
            {
              "pitch": 55,
              "velocity": 50,
              "position": 7.489583333333333,
              "duration": 0.2625
            },
            {
              "pitch": 59,
              "velocity": 50,
              "position": 7.489583333333333,
              "duration": 0.2625
            },
            {
              "pitch": 48,
              "velocity": 33,
              "position": 7.760416666666667,
              "duration": 0.22083333333333333
            },
            {
              "pitch": 55,
              "velocity": 33,
              "position": 7.760416666666667,
              "duration": 0.22083333333333333
            },
            {
              "pitch": 59,
              "velocity": 33,
              "position": 7.760416666666667,
              "duration": 0.22083333333333333
            },
            {
              "pitch": 60,
              "velocity": 33,
              "position": 7.75,
              "duration": 0.24166666666666667
            },
            {
              "pitch": 64,
              "velocity": 32,
              "position": 7.75,
              "duration": 0.24166666666666667
            },
            {
              "pitch": 67,
              "velocity": 33,
              "position": 7.739583333333333,
              "duration": 0.2625
            },
            {
              "pitch": 71,
              "velocity": 33,
              "position": 7.739583333333333,
              "duration": 0.2625
            },
            {
              "pitch": 48,
              "velocity": 38,
              "position": 7.989583333333333,
              "duration": 0.49166666666666664
            },
            {
              "pitch": 55,
              "velocity": 38,
              "position": 7.989583333333333,
              "duration": 0.49166666666666664
            },
            {
              "pitch": 59,
              "velocity": 38,
              "position": 7.989583333333333,
              "duration": 0.49166666666666664
            },
            {
              "pitch": 60,
              "velocity": 41,
              "position": 8,
              "duration": 0.49166666666666664
            },
            {
              "pitch": 64,
              "velocity": 37,
              "position": 8,
              "duration": 0.49166666666666664
            },
            {
              "pitch": 67,
              "velocity": 46,
              "position": 8.010416666666666,
              "duration": 0.49166666666666664
            },
            {
              "pitch": 71,
              "velocity": 46,
              "position": 8.010416666666666,
              "duration": 0.49166666666666664
            },
            {
              "pitch": 67,
              "velocity": 50,
              "position": 8.510416666666666,
              "duration": 0.22083333333333333
            },
            {
              "pitch": 71,
              "velocity": 50,
              "position": 8.510416666666666,
              "duration": 0.22083333333333333
            },
            {
              "pitch": 60,
              "velocity": 50,
              "position": 8.5,
              "duration": 0.24166666666666667
            },
            {
              "pitch": 64,
              "velocity": 49,
              "position": 8.5,
              "duration": 0.24166666666666667
            },
            {
              "pitch": 48,
              "velocity": 50,
              "position": 8.489583333333334,
              "duration": 0.2625
            },
            {
              "pitch": 55,
              "velocity": 50,
              "position": 8.489583333333334,
              "duration": 0.2625
            },
            {
              "pitch": 59,
              "velocity": 50,
              "position": 8.489583333333334,
              "duration": 0.2625
            },
            {
              "pitch": 48,
              "velocity": 37,
              "position": 8.760416666666666,
              "duration": 0.22083333333333333
            },
            {
              "pitch": 55,
              "velocity": 37,
              "position": 8.760416666666666,
              "duration": 0.22083333333333333
            },
            {
              "pitch": 59,
              "velocity": 37,
              "position": 8.760416666666666,
              "duration": 0.22083333333333333
            },
            {
              "pitch": 60,
              "velocity": 37,
              "position": 8.75,
              "duration": 0.24166666666666667
            },
            {
              "pitch": 64,
              "velocity": 36,
              "position": 8.75,
              "duration": 0.24166666666666667
            },
            {
              "pitch": 67,
              "velocity": 36,
              "position": 8.739583333333334,
              "duration": 0.2625
            },
            {
              "pitch": 71,
              "velocity": 36,
              "position": 8.739583333333334,
              "duration": 0.2625
            },
            {
              "pitch": 48,
              "velocity": 50,
              "position": 8.989583333333334,
              "duration": 0.49166666666666664
            },
            {
              "pitch": 55,
              "velocity": 50,
              "position": 8.989583333333334,
              "duration": 0.49166666666666664
            },
            {
              "pitch": 59,
              "velocity": 50,
              "position": 8.989583333333334,
              "duration": 0.49166666666666664
            },
            {
              "pitch": 60,
              "velocity": 48,
              "position": 9,
              "duration": 0.49166666666666664
            },
            {
              "pitch": 64,
              "velocity": 49,
              "position": 9,
              "duration": 0.49166666666666664
            },
            {
              "pitch": 67,
              "velocity": 46,
              "position": 9.010416666666666,
              "duration": 0.49166666666666664
            },
            {
              "pitch": 71,
              "velocity": 46,
              "position": 9.010416666666666,
              "duration": 0.49166666666666664
            },
            {
              "pitch": 67,
              "velocity": 50,
              "position": 9.510416666666666,
              "duration": 0.22083333333333333
            },
            {
              "pitch": 71,
              "velocity": 50,
              "position": 9.510416666666666,
              "duration": 0.22083333333333333
            },
            {
              "pitch": 60,
              "velocity": 50,
              "position": 9.5,
              "duration": 0.24166666666666667
            },
            {
              "pitch": 64,
              "velocity": 49,
              "position": 9.5,
              "duration": 0.24166666666666667
            },
            {
              "pitch": 48,
              "velocity": 50,
              "position": 9.489583333333334,
              "duration": 0.2625
            },
            {
              "pitch": 55,
              "velocity": 50,
              "position": 9.489583333333334,
              "duration": 0.2625
            },
            {
              "pitch": 59,
              "velocity": 50,
              "position": 9.489583333333334,
              "duration": 0.2625
            },
            {
              "pitch": 48,
              "velocity": 34,
              "position": 9.760416666666666,
              "duration": 0.22083333333333333
            },
            {
              "pitch": 55,
              "velocity": 34,
              "position": 9.760416666666666,
              "duration": 0.22083333333333333
            },
            {
              "pitch": 59,
              "velocity": 34,
              "position": 9.760416666666666,
              "duration": 0.22083333333333333
            },
            {
              "pitch": 60,
              "velocity": 34,
              "position": 9.75,
              "duration": 0.24166666666666667
            },
            {
              "pitch": 64,
              "velocity": 33,
              "position": 9.75,
              "duration": 0.24166666666666667
            },
            {
              "pitch": 67,
              "velocity": 34,
              "position": 9.739583333333334,
              "duration": 0.2625
            },
            {
              "pitch": 71,
              "velocity": 34,
              "position": 9.739583333333334,
              "duration": 0.2625
            },
            {
              "pitch": 67,
              "velocity": 42,
              "position": 10.010416666666666,
              "duration": 0.22083333333333333
            },
            {
              "pitch": 71,
              "velocity": 42,
              "position": 10.010416666666666,
              "duration": 0.22083333333333333
            },
            {
              "pitch": 60,
              "velocity": 42,
              "position": 10,
              "duration": 0.24166666666666667
            },
            {
              "pitch": 64,
              "velocity": 41,
              "position": 10,
              "duration": 0.24166666666666667
            },
            {
              "pitch": 48,
              "velocity": 42,
              "position": 9.989583333333334,
              "duration": 0.2625
            },
            {
              "pitch": 55,
              "velocity": 42,
              "position": 9.989583333333334,
              "duration": 0.2625
            },
            {
              "pitch": 59,
              "velocity": 42,
              "position": 9.989583333333334,
              "duration": 0.2625
            },
            {
              "pitch": 48,
              "velocity": 42,
              "position": 10.260416666666666,
              "duration": 0.22083333333333333
            },
            {
              "pitch": 55,
              "velocity": 42,
              "position": 10.260416666666666,
              "duration": 0.22083333333333333
            },
            {
              "pitch": 59,
              "velocity": 42,
              "position": 10.260416666666666,
              "duration": 0.22083333333333333
            },
            {
              "pitch": 60,
              "velocity": 32,
              "position": 10.25,
              "duration": 0.24166666666666667
            },
            {
              "pitch": 64,
              "velocity": 41,
              "position": 10.25,
              "duration": 0.24166666666666667
            },
            {
              "pitch": 67,
              "velocity": 38,
              "position": 10.239583333333334,
              "duration": 0.2625
            },
            {
              "pitch": 71,
              "velocity": 38,
              "position": 10.239583333333334,
              "duration": 0.2625
            },
            {
              "pitch": 48,
              "velocity": 48,
              "position": 10.489583333333334,
              "duration": 0.49166666666666664
            },
            {
              "pitch": 55,
              "velocity": 48,
              "position": 10.489583333333334,
              "duration": 0.49166666666666664
            },
            {
              "pitch": 59,
              "velocity": 48,
              "position": 10.489583333333334,
              "duration": 0.49166666666666664
            },
            {
              "pitch": 60,
              "velocity": 48,
              "position": 10.5,
              "duration": 0.49166666666666664
            },
            {
              "pitch": 64,
              "velocity": 47,
              "position": 10.5,
              "duration": 0.49166666666666664
            },
            {
              "pitch": 67,
              "velocity": 48,
              "position": 10.510416666666666,
              "duration": 0.49166666666666664
            },
            {
              "pitch": 71,
              "velocity": 48,
              "position": 10.510416666666666,
              "duration": 0.49166666666666664
            },
            {
              "pitch": 48,
              "velocity": 45,
              "position": 10.989583333333334,
              "duration": 0.49166666666666664
            },
            {
              "pitch": 55,
              "velocity": 45,
              "position": 10.989583333333334,
              "duration": 0.49166666666666664
            },
            {
              "pitch": 59,
              "velocity": 45,
              "position": 10.989583333333334,
              "duration": 0.49166666666666664
            },
            {
              "pitch": 60,
              "velocity": 42,
              "position": 11,
              "duration": 0.49166666666666664
            },
            {
              "pitch": 64,
              "velocity": 44,
              "position": 11,
              "duration": 0.49166666666666664
            },
            {
              "pitch": 67,
              "velocity": 42,
              "position": 11.010416666666666,
              "duration": 0.49166666666666664
            },
            {
              "pitch": 71,
              "velocity": 42,
              "position": 11.010416666666666,
              "duration": 0.49166666666666664
            },
            {
              "pitch": 67,
              "velocity": 46,
              "position": 11.510416666666666,
              "duration": 0.22083333333333333
            },
            {
              "pitch": 71,
              "velocity": 46,
              "position": 11.510416666666666,
              "duration": 0.22083333333333333
            },
            {
              "pitch": 60,
              "velocity": 46,
              "position": 11.5,
              "duration": 0.24166666666666667
            },
            {
              "pitch": 64,
              "velocity": 45,
              "position": 11.5,
              "duration": 0.24166666666666667
            },
            {
              "pitch": 48,
              "velocity": 46,
              "position": 11.489583333333334,
              "duration": 0.2625
            },
            {
              "pitch": 55,
              "velocity": 46,
              "position": 11.489583333333334,
              "duration": 0.2625
            },
            {
              "pitch": 59,
              "velocity": 46,
              "position": 11.489583333333334,
              "duration": 0.2625
            },
            {
              "pitch": 48,
              "velocity": 37,
              "position": 11.760416666666666,
              "duration": 0.22083333333333333
            },
            {
              "pitch": 55,
              "velocity": 37,
              "position": 11.760416666666666,
              "duration": 0.22083333333333333
            },
            {
              "pitch": 59,
              "velocity": 37,
              "position": 11.760416666666666,
              "duration": 0.22083333333333333
            },
            {
              "pitch": 60,
              "velocity": 37,
              "position": 11.75,
              "duration": 0.24166666666666667
            },
            {
              "pitch": 64,
              "velocity": 36,
              "position": 11.75,
              "duration": 0.24166666666666667
            },
            {
              "pitch": 67,
              "velocity": 37,
              "position": 11.739583333333334,
              "duration": 0.2625
            },
            {
              "pitch": 71,
              "velocity": 37,
              "position": 11.739583333333334,
              "duration": 0.2625
            },
            {
              "pitch": 48,
              "velocity": 38,
              "position": 11.989583333333334,
              "duration": 0.49166666666666664
            },
            {
              "pitch": 55,
              "velocity": 38,
              "position": 11.989583333333334,
              "duration": 0.49166666666666664
            },
            {
              "pitch": 59,
              "velocity": 38,
              "position": 11.989583333333334,
              "duration": 0.49166666666666664
            },
            {
              "pitch": 60,
              "velocity": 41,
              "position": 12,
              "duration": 0.49166666666666664
            },
            {
              "pitch": 64,
              "velocity": 37,
              "position": 12,
              "duration": 0.49166666666666664
            },
            {
              "pitch": 67,
              "velocity": 46,
              "position": 12.010416666666666,
              "duration": 0.49166666666666664
            },
            {
              "pitch": 71,
              "velocity": 46,
              "position": 12.010416666666666,
              "duration": 0.49166666666666664
            },
            {
              "pitch": 67,
              "velocity": 50,
              "position": 12.510416666666666,
              "duration": 0.22083333333333333
            },
            {
              "pitch": 71,
              "velocity": 50,
              "position": 12.510416666666666,
              "duration": 0.22083333333333333
            },
            {
              "pitch": 60,
              "velocity": 50,
              "position": 12.5,
              "duration": 0.24166666666666667
            },
            {
              "pitch": 64,
              "velocity": 49,
              "position": 12.5,
              "duration": 0.24166666666666667
            },
            {
              "pitch": 48,
              "velocity": 50,
              "position": 12.489583333333334,
              "duration": 0.2625
            },
            {
              "pitch": 55,
              "velocity": 50,
              "position": 12.489583333333334,
              "duration": 0.2625
            },
            {
              "pitch": 59,
              "velocity": 50,
              "position": 12.489583333333334,
              "duration": 0.2625
            },
            {
              "pitch": 48,
              "velocity": 37,
              "position": 12.760416666666666,
              "duration": 0.22083333333333333
            },
            {
              "pitch": 55,
              "velocity": 37,
              "position": 12.760416666666666,
              "duration": 0.22083333333333333
            },
            {
              "pitch": 59,
              "velocity": 37,
              "position": 12.760416666666666,
              "duration": 0.22083333333333333
            },
            {
              "pitch": 60,
              "velocity": 37,
              "position": 12.75,
              "duration": 0.24166666666666667
            },
            {
              "pitch": 64,
              "velocity": 36,
              "position": 12.75,
              "duration": 0.24166666666666667
            },
            {
              "pitch": 67,
              "velocity": 36,
              "position": 12.739583333333334,
              "duration": 0.2625
            },
            {
              "pitch": 71,
              "velocity": 36,
              "position": 12.739583333333334,
              "duration": 0.2625
            },
            {
              "pitch": 48,
              "velocity": 50,
              "position": 12.989583333333334,
              "duration": 0.49166666666666664
            },
            {
              "pitch": 55,
              "velocity": 50,
              "position": 12.989583333333334,
              "duration": 0.49166666666666664
            },
            {
              "pitch": 59,
              "velocity": 50,
              "position": 12.989583333333334,
              "duration": 0.49166666666666664
            },
            {
              "pitch": 60,
              "velocity": 48,
              "position": 13,
              "duration": 0.49166666666666664
            },
            {
              "pitch": 64,
              "velocity": 49,
              "position": 13,
              "duration": 0.49166666666666664
            },
            {
              "pitch": 67,
              "velocity": 43,
              "position": 13.010416666666666,
              "duration": 0.49166666666666664
            },
            {
              "pitch": 71,
              "velocity": 43,
              "position": 13.010416666666666,
              "duration": 0.49166666666666664
            },
            {
              "pitch": 67,
              "velocity": 50,
              "position": 13.510416666666666,
              "duration": 0.22083333333333333
            },
            {
              "pitch": 71,
              "velocity": 50,
              "position": 13.510416666666666,
              "duration": 0.22083333333333333
            },
            {
              "pitch": 60,
              "velocity": 50,
              "position": 13.5,
              "duration": 0.24166666666666667
            },
            {
              "pitch": 64,
              "velocity": 49,
              "position": 13.5,
              "duration": 0.24166666666666667
            },
            {
              "pitch": 48,
              "velocity": 50,
              "position": 13.489583333333334,
              "duration": 0.2625
            },
            {
              "pitch": 55,
              "velocity": 50,
              "position": 13.489583333333334,
              "duration": 0.2625
            },
            {
              "pitch": 59,
              "velocity": 50,
              "position": 13.489583333333334,
              "duration": 0.2625
            },
            {
              "pitch": 48,
              "velocity": 34,
              "position": 13.760416666666666,
              "duration": 0.22083333333333333
            },
            {
              "pitch": 55,
              "velocity": 34,
              "position": 13.760416666666666,
              "duration": 0.22083333333333333
            },
            {
              "pitch": 59,
              "velocity": 34,
              "position": 13.760416666666666,
              "duration": 0.22083333333333333
            },
            {
              "pitch": 64,
              "velocity": 33,
              "position": 13.75,
              "duration": 0.24166666666666667
            },
            {
              "pitch": 67,
              "velocity": 34,
              "position": 13.739583333333334,
              "duration": 0.2625
            },
            {
              "pitch": 71,
              "velocity": 34,
              "position": 13.739583333333334,
              "duration": 0.2625
            },
            {
              "pitch": 67,
              "velocity": 42,
              "position": 14.010416666666666,
              "duration": 0.22083333333333333
            },
            {
              "pitch": 71,
              "velocity": 42,
              "position": 14.010416666666666,
              "duration": 0.22083333333333333
            },
            {
              "pitch": 60,
              "velocity": 34,
              "position": 13.75,
              "duration": 0.49166666666666664
            },
            {
              "pitch": 64,
              "velocity": 33,
              "position": 14,
              "duration": 0.24166666666666667
            },
            {
              "pitch": 48,
              "velocity": 34,
              "position": 13.989583333333334,
              "duration": 0.2625
            },
            {
              "pitch": 55,
              "velocity": 34,
              "position": 13.989583333333334,
              "duration": 0.2625
            },
            {
              "pitch": 59,
              "velocity": 34,
              "position": 13.989583333333334,
              "duration": 0.2625
            },
            {
              "pitch": 60,
              "velocity": 32,
              "position": 14.25,
              "duration": 0.24166666666666667
            },
            {
              "pitch": 64,
              "velocity": 42,
              "position": 14.25,
              "duration": 0.24166666666666667
            },
            {
              "pitch": 67,
              "velocity": 37,
              "position": 14.239583333333334,
              "duration": 0.2625
            },
            {
              "pitch": 71,
              "velocity": 37,
              "position": 14.239583333333334,
              "duration": 0.2625
            },
            {
              "pitch": 67,
              "velocity": 50,
              "position": 14.510416666666666,
              "duration": 0.22083333333333333
            },
            {
              "pitch": 71,
              "velocity": 50,
              "position": 14.510416666666666,
              "duration": 0.22083333333333333
            },
            {
              "pitch": 60,
              "velocity": 50,
              "position": 14.5,
              "duration": 0.24166666666666667
            },
            {
              "pitch": 64,
              "velocity": 41,
              "position": 14.5,
              "duration": 0.24166666666666667
            },
            {
              "pitch": 48,
              "velocity": 43,
              "position": 14.260416666666666,
              "duration": 0.49166666666666664
            },
            {
              "pitch": 55,
              "velocity": 43,
              "position": 14.260416666666666,
              "duration": 0.49166666666666664
            },
            {
              "pitch": 59,
              "velocity": 43,
              "position": 14.260416666666666,
              "duration": 0.49166666666666664
            },
            {
              "pitch": 48,
              "velocity": 42,
              "position": 14.760416666666666,
              "duration": 0.22083333333333333
            },
            {
              "pitch": 55,
              "velocity": 42,
              "position": 14.760416666666666,
              "duration": 0.22083333333333333
            },
            {
              "pitch": 59,
              "velocity": 42,
              "position": 14.760416666666666,
              "duration": 0.22083333333333333
            },
            {
              "pitch": 60,
              "velocity": 26,
              "position": 14.75,
              "duration": 0.24166666666666667
            },
            {
              "pitch": 64,
              "velocity": 41,
              "position": 14.75,
              "duration": 0.24166666666666667
            },
            {
              "pitch": 67,
              "velocity": 26,
              "position": 14.739583333333334,
              "duration": 0.2625
            },
            {
              "pitch": 71,
              "velocity": 26,
              "position": 14.739583333333334,
              "duration": 0.2625
            },
            {
              "pitch": 48,
              "velocity": 45,
              "position": 14.989583333333334,
              "duration": 0.49166666666666664
            },
            {
              "pitch": 55,
              "velocity": 45,
              "position": 14.989583333333334,
              "duration": 0.49166666666666664
            },
            {
              "pitch": 59,
              "velocity": 45,
              "position": 14.989583333333334,
              "duration": 0.49166666666666664
            },
            {
              "pitch": 60,
              "velocity": 42,
              "position": 15,
              "duration": 0.49166666666666664
            },
            {
              "pitch": 64,
              "velocity": 44,
              "position": 15,
              "duration": 0.49166666666666664
            },
            {
              "pitch": 67,
              "velocity": 42,
              "position": 15.010416666666666,
              "duration": 0.49166666666666664
            },
            {
              "pitch": 71,
              "velocity": 42,
              "position": 15.010416666666666,
              "duration": 0.49166666666666664
            },
            {
              "pitch": 67,
              "velocity": 50,
              "position": 15.510416666666666,
              "duration": 0.22083333333333333
            },
            {
              "pitch": 71,
              "velocity": 50,
              "position": 15.510416666666666,
              "duration": 0.22083333333333333
            },
            {
              "pitch": 60,
              "velocity": 50,
              "position": 15.5,
              "duration": 0.24166666666666667
            },
            {
              "pitch": 64,
              "velocity": 49,
              "position": 15.5,
              "duration": 0.24166666666666667
            },
            {
              "pitch": 48,
              "velocity": 50,
              "position": 15.489583333333334,
              "duration": 0.2625
            },
            {
              "pitch": 55,
              "velocity": 50,
              "position": 15.489583333333334,
              "duration": 0.2625
            },
            {
              "pitch": 59,
              "velocity": 50,
              "position": 15.489583333333334,
              "duration": 0.2625
            },
            {
              "pitch": 48,
              "velocity": 33,
              "position": 15.760416666666666,
              "duration": 0.22083333333333333
            },
            {
              "pitch": 55,
              "velocity": 33,
              "position": 15.760416666666666,
              "duration": 0.22083333333333333
            },
            {
              "pitch": 59,
              "velocity": 33,
              "position": 15.760416666666666,
              "duration": 0.22083333333333333
            },
            {
              "pitch": 60,
              "velocity": 33,
              "position": 15.75,
              "duration": 0.24166666666666667
            },
            {
              "pitch": 64,
              "velocity": 32,
              "position": 15.75,
              "duration": 0.24166666666666667
            },
            {
              "pitch": 67,
              "velocity": 33,
              "position": 15.739583333333334,
              "duration": 0.2625
            },
            {
              "pitch": 71,
              "velocity": 33,
              "position": 15.739583333333334,
              "duration": 0.2625
            },
            {
              "pitch": 48,
              "velocity": 38,
              "position": 15.989583333333334,
              "duration": 0.49166666666666664
            },
            {
              "pitch": 55,
              "velocity": 38,
              "position": 15.989583333333334,
              "duration": 0.49166666666666664
            },
            {
              "pitch": 59,
              "velocity": 38,
              "position": 15.989583333333334,
              "duration": 0.49166666666666664
            },
            {
              "pitch": 60,
              "velocity": 41,
              "position": 16,
              "duration": 0.49166666666666664
            },
            {
              "pitch": 64,
              "velocity": 37,
              "position": 16,
              "duration": 0.49166666666666664
            },
            {
              "pitch": 67,
              "velocity": 46,
              "position": 16.010416666666668,
              "duration": 0.49166666666666664
            },
            {
              "pitch": 71,
              "velocity": 46,
              "position": 16.010416666666668,
              "duration": 0.49166666666666664
            },
            {
              "pitch": 67,
              "velocity": 50,
              "position": 16.510416666666668,
              "duration": 0.22083333333333333
            },
            {
              "pitch": 71,
              "velocity": 50,
              "position": 16.510416666666668,
              "duration": 0.22083333333333333
            },
            {
              "pitch": 60,
              "velocity": 50,
              "position": 16.5,
              "duration": 0.24166666666666667
            },
            {
              "pitch": 64,
              "velocity": 49,
              "position": 16.5,
              "duration": 0.24166666666666667
            },
            {
              "pitch": 48,
              "velocity": 50,
              "position": 16.489583333333332,
              "duration": 0.2625
            },
            {
              "pitch": 55,
              "velocity": 50,
              "position": 16.489583333333332,
              "duration": 0.2625
            },
            {
              "pitch": 59,
              "velocity": 50,
              "position": 16.489583333333332,
              "duration": 0.2625
            },
            {
              "pitch": 48,
              "velocity": 37,
              "position": 16.760416666666668,
              "duration": 0.22083333333333333
            },
            {
              "pitch": 55,
              "velocity": 37,
              "position": 16.760416666666668,
              "duration": 0.22083333333333333
            },
            {
              "pitch": 59,
              "velocity": 37,
              "position": 16.760416666666668,
              "duration": 0.22083333333333333
            },
            {
              "pitch": 60,
              "velocity": 37,
              "position": 16.75,
              "duration": 0.24166666666666667
            },
            {
              "pitch": 64,
              "velocity": 36,
              "position": 16.75,
              "duration": 0.24166666666666667
            },
            {
              "pitch": 67,
              "velocity": 36,
              "position": 16.739583333333332,
              "duration": 0.2625
            },
            {
              "pitch": 71,
              "velocity": 36,
              "position": 16.739583333333332,
              "duration": 0.2625
            },
            {
              "pitch": 48,
              "velocity": 50,
              "position": 16.989583333333332,
              "duration": 0.49166666666666664
            },
            {
              "pitch": 55,
              "velocity": 50,
              "position": 16.989583333333332,
              "duration": 0.49166666666666664
            },
            {
              "pitch": 59,
              "velocity": 50,
              "position": 16.989583333333332,
              "duration": 0.49166666666666664
            },
            {
              "pitch": 60,
              "velocity": 48,
              "position": 17,
              "duration": 0.49166666666666664
            },
            {
              "pitch": 64,
              "velocity": 49,
              "position": 17,
              "duration": 0.49166666666666664
            },
            {
              "pitch": 67,
              "velocity": 46,
              "position": 17.010416666666668,
              "duration": 0.49166666666666664
            },
            {
              "pitch": 71,
              "velocity": 46,
              "position": 17.010416666666668,
              "duration": 0.49166666666666664
            },
            {
              "pitch": 67,
              "velocity": 50,
              "position": 17.510416666666668,
              "duration": 0.22083333333333333
            },
            {
              "pitch": 71,
              "velocity": 50,
              "position": 17.510416666666668,
              "duration": 0.22083333333333333
            },
            {
              "pitch": 64,
              "velocity": 49,
              "position": 17.5,
              "duration": 0.24166666666666667
            },
            {
              "pitch": 48,
              "velocity": 50,
              "position": 17.489583333333332,
              "duration": 0.2625
            },
            {
              "pitch": 55,
              "velocity": 50,
              "position": 17.489583333333332,
              "duration": 0.2625
            },
            {
              "pitch": 59,
              "velocity": 50,
              "position": 17.489583333333332,
              "duration": 0.2625
            },
            {
              "pitch": 48,
              "velocity": 34,
              "position": 17.760416666666668,
              "duration": 0.22083333333333333
            },
            {
              "pitch": 55,
              "velocity": 34,
              "position": 17.760416666666668,
              "duration": 0.22083333333333333
            },
            {
              "pitch": 59,
              "velocity": 34,
              "position": 17.760416666666668,
              "duration": 0.22083333333333333
            },
            {
              "pitch": 60,
              "velocity": 50,
              "position": 17.5,
              "duration": 0.49166666666666664
            },
            {
              "pitch": 64,
              "velocity": 33,
              "position": 17.75,
              "duration": 0.24166666666666667
            },
            {
              "pitch": 67,
              "velocity": 34,
              "position": 17.739583333333332,
              "duration": 0.2625
            },
            {
              "pitch": 71,
              "velocity": 34,
              "position": 17.739583333333332,
              "duration": 0.2625
            },
            {
              "pitch": 67,
              "velocity": 42,
              "position": 18.010416666666668,
              "duration": 0.22083333333333333
            },
            {
              "pitch": 71,
              "velocity": 42,
              "position": 18.010416666666668,
              "duration": 0.22083333333333333
            },
            {
              "pitch": 60,
              "velocity": 42,
              "position": 18,
              "duration": 0.24166666666666667
            },
            {
              "pitch": 64,
              "velocity": 41,
              "position": 18,
              "duration": 0.24166666666666667
            },
            {
              "pitch": 48,
              "velocity": 42,
              "position": 17.989583333333332,
              "duration": 0.2625
            },
            {
              "pitch": 55,
              "velocity": 42,
              "position": 17.989583333333332,
              "duration": 0.2625
            },
            {
              "pitch": 59,
              "velocity": 42,
              "position": 17.989583333333332,
              "duration": 0.2625
            },
            {
              "pitch": 48,
              "velocity": 42,
              "position": 18.260416666666668,
              "duration": 0.22083333333333333
            },
            {
              "pitch": 55,
              "velocity": 42,
              "position": 18.260416666666668,
              "duration": 0.22083333333333333
            },
            {
              "pitch": 59,
              "velocity": 42,
              "position": 18.260416666666668,
              "duration": 0.22083333333333333
            },
            {
              "pitch": 60,
              "velocity": 32,
              "position": 18.25,
              "duration": 0.24166666666666667
            },
            {
              "pitch": 64,
              "velocity": 41,
              "position": 18.25,
              "duration": 0.24166666666666667
            },
            {
              "pitch": 67,
              "velocity": 38,
              "position": 18.239583333333332,
              "duration": 0.2625
            },
            {
              "pitch": 71,
              "velocity": 38,
              "position": 18.239583333333332,
              "duration": 0.2625
            },
            {
              "pitch": 48,
              "velocity": 48,
              "position": 18.489583333333332,
              "duration": 0.49166666666666664
            },
            {
              "pitch": 55,
              "velocity": 48,
              "position": 18.489583333333332,
              "duration": 0.49166666666666664
            },
            {
              "pitch": 59,
              "velocity": 48,
              "position": 18.489583333333332,
              "duration": 0.49166666666666664
            },
            {
              "pitch": 60,
              "velocity": 48,
              "position": 18.5,
              "duration": 0.49166666666666664
            },
            {
              "pitch": 64,
              "velocity": 47,
              "position": 18.5,
              "duration": 0.49166666666666664
            },
            {
              "pitch": 67,
              "velocity": 48,
              "position": 18.510416666666668,
              "duration": 0.49166666666666664
            },
            {
              "pitch": 71,
              "velocity": 48,
              "position": 18.510416666666668,
              "duration": 0.49166666666666664
            },
            {
              "pitch": 48,
              "velocity": 45,
              "position": 18.989583333333332,
              "duration": 0.49166666666666664
            },
            {
              "pitch": 55,
              "velocity": 45,
              "position": 18.989583333333332,
              "duration": 0.49166666666666664
            },
            {
              "pitch": 59,
              "velocity": 45,
              "position": 18.989583333333332,
              "duration": 0.49166666666666664
            },
            {
              "pitch": 60,
              "velocity": 42,
              "position": 19,
              "duration": 0.49166666666666664
            },
            {
              "pitch": 64,
              "velocity": 44,
              "position": 19,
              "duration": 0.49166666666666664
            },
            {
              "pitch": 67,
              "velocity": 42,
              "position": 19.010416666666668,
              "duration": 0.49166666666666664
            },
            {
              "pitch": 71,
              "velocity": 42,
              "position": 19.010416666666668,
              "duration": 0.49166666666666664
            },
            {
              "pitch": 67,
              "velocity": 46,
              "position": 19.510416666666668,
              "duration": 0.22083333333333333
            },
            {
              "pitch": 71,
              "velocity": 46,
              "position": 19.510416666666668,
              "duration": 0.22083333333333333
            },
            {
              "pitch": 60,
              "velocity": 46,
              "position": 19.5,
              "duration": 0.24166666666666667
            },
            {
              "pitch": 64,
              "velocity": 45,
              "position": 19.5,
              "duration": 0.24166666666666667
            },
            {
              "pitch": 48,
              "velocity": 46,
              "position": 19.489583333333332,
              "duration": 0.49166666666666664
            },
            {
              "pitch": 55,
              "velocity": 46,
              "position": 19.489583333333332,
              "duration": 0.49166666666666664
            },
            {
              "pitch": 59,
              "velocity": 46,
              "position": 19.489583333333332,
              "duration": 0.49166666666666664
            },
            {
              "pitch": 60,
              "velocity": 37,
              "position": 19.75,
              "duration": 0.24166666666666667
            },
            {
              "pitch": 64,
              "velocity": 36,
              "position": 19.75,
              "duration": 0.24166666666666667
            },
            {
              "pitch": 67,
              "velocity": 37,
              "position": 19.739583333333332,
              "duration": 0.2625
            },
            {
              "pitch": 71,
              "velocity": 37,
              "position": 19.739583333333332,
              "duration": 0.2625
            },
            {
              "pitch": 48,
              "velocity": 38,
              "position": 19.989583333333332,
              "duration": 0.49166666666666664
            },
            {
              "pitch": 55,
              "velocity": 38,
              "position": 19.989583333333332,
              "duration": 0.49166666666666664
            },
            {
              "pitch": 59,
              "velocity": 38,
              "position": 19.989583333333332,
              "duration": 0.49166666666666664
            },
            {
              "pitch": 60,
              "velocity": 41,
              "position": 20,
              "duration": 0.49166666666666664
            },
            {
              "pitch": 64,
              "velocity": 37,
              "position": 20,
              "duration": 0.49166666666666664
            },
            {
              "pitch": 67,
              "velocity": 46,
              "position": 20.010416666666668,
              "duration": 0.49166666666666664
            },
            {
              "pitch": 71,
              "velocity": 46,
              "position": 20.010416666666668,
              "duration": 0.49166666666666664
            },
            {
              "pitch": 67,
              "velocity": 50,
              "position": 20.510416666666668,
              "duration": 0.22083333333333333
            },
            {
              "pitch": 71,
              "velocity": 50,
              "position": 20.510416666666668,
              "duration": 0.22083333333333333
            },
            {
              "pitch": 60,
              "velocity": 50,
              "position": 20.5,
              "duration": 0.24166666666666667
            },
            {
              "pitch": 64,
              "velocity": 49,
              "position": 20.5,
              "duration": 0.24166666666666667
            },
            {
              "pitch": 48,
              "velocity": 50,
              "position": 20.489583333333332,
              "duration": 0.2625
            },
            {
              "pitch": 55,
              "velocity": 50,
              "position": 20.489583333333332,
              "duration": 0.2625
            },
            {
              "pitch": 59,
              "velocity": 50,
              "position": 20.489583333333332,
              "duration": 0.2625
            },
            {
              "pitch": 48,
              "velocity": 37,
              "position": 20.760416666666668,
              "duration": 0.22083333333333333
            },
            {
              "pitch": 55,
              "velocity": 37,
              "position": 20.760416666666668,
              "duration": 0.22083333333333333
            },
            {
              "pitch": 59,
              "velocity": 37,
              "position": 20.760416666666668,
              "duration": 0.22083333333333333
            },
            {
              "pitch": 60,
              "velocity": 37,
              "position": 20.75,
              "duration": 0.24166666666666667
            },
            {
              "pitch": 64,
              "velocity": 36,
              "position": 20.75,
              "duration": 0.24166666666666667
            },
            {
              "pitch": 67,
              "velocity": 36,
              "position": 20.739583333333332,
              "duration": 0.2625
            },
            {
              "pitch": 71,
              "velocity": 36,
              "position": 20.739583333333332,
              "duration": 0.2625
            },
            {
              "pitch": 48,
              "velocity": 50,
              "position": 20.989583333333332,
              "duration": 0.49166666666666664
            },
            {
              "pitch": 55,
              "velocity": 50,
              "position": 20.989583333333332,
              "duration": 0.49166666666666664
            },
            {
              "pitch": 59,
              "velocity": 50,
              "position": 20.989583333333332,
              "duration": 0.49166666666666664
            },
            {
              "pitch": 60,
              "velocity": 48,
              "position": 21,
              "duration": 0.49166666666666664
            },
            {
              "pitch": 64,
              "velocity": 49,
              "position": 21,
              "duration": 0.49166666666666664
            },
            {
              "pitch": 67,
              "velocity": 43,
              "position": 21.010416666666668,
              "duration": 0.49166666666666664
            },
            {
              "pitch": 71,
              "velocity": 43,
              "position": 21.010416666666668,
              "duration": 0.49166666666666664
            },
            {
              "pitch": 67,
              "velocity": 50,
              "position": 21.510416666666668,
              "duration": 0.22083333333333333
            },
            {
              "pitch": 71,
              "velocity": 50,
              "position": 21.510416666666668,
              "duration": 0.22083333333333333
            },
            {
              "pitch": 60,
              "velocity": 50,
              "position": 21.5,
              "duration": 0.24166666666666667
            },
            {
              "pitch": 64,
              "velocity": 49,
              "position": 21.5,
              "duration": 0.24166666666666667
            },
            {
              "pitch": 48,
              "velocity": 50,
              "position": 21.489583333333332,
              "duration": 0.2625
            },
            {
              "pitch": 55,
              "velocity": 50,
              "position": 21.489583333333332,
              "duration": 0.2625
            },
            {
              "pitch": 59,
              "velocity": 50,
              "position": 21.489583333333332,
              "duration": 0.2625
            },
            {
              "pitch": 48,
              "velocity": 34,
              "position": 21.760416666666668,
              "duration": 0.22083333333333333
            },
            {
              "pitch": 55,
              "velocity": 34,
              "position": 21.760416666666668,
              "duration": 0.22083333333333333
            },
            {
              "pitch": 59,
              "velocity": 34,
              "position": 21.760416666666668,
              "duration": 0.22083333333333333
            },
            {
              "pitch": 64,
              "velocity": 33,
              "position": 21.75,
              "duration": 0.24166666666666667
            },
            {
              "pitch": 67,
              "velocity": 34,
              "position": 21.739583333333332,
              "duration": 0.2625
            },
            {
              "pitch": 71,
              "velocity": 34,
              "position": 21.739583333333332,
              "duration": 0.2625
            },
            {
              "pitch": 67,
              "velocity": 42,
              "position": 22.010416666666668,
              "duration": 0.22083333333333333
            },
            {
              "pitch": 71,
              "velocity": 42,
              "position": 22.010416666666668,
              "duration": 0.22083333333333333
            },
            {
              "pitch": 60,
              "velocity": 34,
              "position": 21.75,
              "duration": 0.49166666666666664
            },
            {
              "pitch": 64,
              "velocity": 33,
              "position": 22,
              "duration": 0.24166666666666667
            },
            {
              "pitch": 48,
              "velocity": 34,
              "position": 21.989583333333332,
              "duration": 0.49166666666666664
            },
            {
              "pitch": 55,
              "velocity": 34,
              "position": 21.989583333333332,
              "duration": 0.49166666666666664
            },
            {
              "pitch": 59,
              "velocity": 34,
              "position": 21.989583333333332,
              "duration": 0.49166666666666664
            },
            {
              "pitch": 60,
              "velocity": 32,
              "position": 22.25,
              "duration": 0.24166666666666667
            },
            {
              "pitch": 64,
              "velocity": 42,
              "position": 22.25,
              "duration": 0.24166666666666667
            },
            {
              "pitch": 67,
              "velocity": 37,
              "position": 22.239583333333332,
              "duration": 0.2625
            },
            {
              "pitch": 71,
              "velocity": 37,
              "position": 22.239583333333332,
              "duration": 0.2625
            },
            {
              "pitch": 67,
              "velocity": 50,
              "position": 22.510416666666668,
              "duration": 0.22083333333333333
            },
            {
              "pitch": 71,
              "velocity": 50,
              "position": 22.510416666666668,
              "duration": 0.22083333333333333
            },
            {
              "pitch": 64,
              "velocity": 41,
              "position": 22.5,
              "duration": 0.24166666666666667
            },
            {
              "pitch": 48,
              "velocity": 42,
              "position": 22.489583333333332,
              "duration": 0.2625
            },
            {
              "pitch": 55,
              "velocity": 42,
              "position": 22.489583333333332,
              "duration": 0.2625
            },
            {
              "pitch": 59,
              "velocity": 42,
              "position": 22.489583333333332,
              "duration": 0.2625
            },
            {
              "pitch": 48,
              "velocity": 42,
              "position": 22.760416666666668,
              "duration": 0.22083333333333333
            },
            {
              "pitch": 55,
              "velocity": 42,
              "position": 22.760416666666668,
              "duration": 0.22083333333333333
            },
            {
              "pitch": 59,
              "velocity": 42,
              "position": 22.760416666666668,
              "duration": 0.22083333333333333
            },
            {
              "pitch": 60,
              "velocity": 50,
              "position": 22.5,
              "duration": 0.49166666666666664
            },
            {
              "pitch": 64,
              "velocity": 41,
              "position": 22.75,
              "duration": 0.24166666666666667
            },
            {
              "pitch": 67,
              "velocity": 26,
              "position": 22.739583333333332,
              "duration": 0.2625
            },
            {
              "pitch": 71,
              "velocity": 26,
              "position": 22.739583333333332,
              "duration": 0.2625
            },
            {
              "pitch": 48,
              "velocity": 45,
              "position": 22.989583333333332,
              "duration": 0.49166666666666664
            },
            {
              "pitch": 55,
              "velocity": 45,
              "position": 22.989583333333332,
              "duration": 0.49166666666666664
            },
            {
              "pitch": 59,
              "velocity": 45,
              "position": 22.989583333333332,
              "duration": 0.49166666666666664
            },
            {
              "pitch": 60,
              "velocity": 42,
              "position": 23,
              "duration": 0.49166666666666664
            },
            {
              "pitch": 64,
              "velocity": 44,
              "position": 23,
              "duration": 0.49166666666666664
            },
            {
              "pitch": 67,
              "velocity": 42,
              "position": 23.010416666666668,
              "duration": 0.49166666666666664
            },
            {
              "pitch": 71,
              "velocity": 42,
              "position": 23.010416666666668,
              "duration": 0.49166666666666664
            },
            {
              "pitch": 67,
              "velocity": 50,
              "position": 23.510416666666668,
              "duration": 0.22083333333333333
            },
            {
              "pitch": 71,
              "velocity": 50,
              "position": 23.510416666666668,
              "duration": 0.22083333333333333
            },
            {
              "pitch": 60,
              "velocity": 50,
              "position": 23.5,
              "duration": 0.24166666666666667
            },
            {
              "pitch": 64,
              "velocity": 49,
              "position": 23.5,
              "duration": 0.24166666666666667
            },
            {
              "pitch": 48,
              "velocity": 50,
              "position": 23.489583333333332,
              "duration": 0.2625
            },
            {
              "pitch": 55,
              "velocity": 50,
              "position": 23.489583333333332,
              "duration": 0.2625
            },
            {
              "pitch": 59,
              "velocity": 50,
              "position": 23.489583333333332,
              "duration": 0.2625
            },
            {
              "pitch": 48,
              "velocity": 33,
              "position": 23.760416666666668,
              "duration": 0.22083333333333333
            },
            {
              "pitch": 55,
              "velocity": 33,
              "position": 23.760416666666668,
              "duration": 0.22083333333333333
            },
            {
              "pitch": 59,
              "velocity": 33,
              "position": 23.760416666666668,
              "duration": 0.22083333333333333
            },
            {
              "pitch": 60,
              "velocity": 33,
              "position": 23.75,
              "duration": 0.24166666666666667
            },
            {
              "pitch": 64,
              "velocity": 32,
              "position": 23.75,
              "duration": 0.24166666666666667
            },
            {
              "pitch": 67,
              "velocity": 33,
              "position": 23.739583333333332,
              "duration": 0.2625
            },
            {
              "pitch": 71,
              "velocity": 33,
              "position": 23.739583333333332,
              "duration": 0.2625
            },
            {
              "pitch": 48,
              "velocity": 38,
              "position": 23.989583333333332,
              "duration": 0.49166666666666664
            },
            {
              "pitch": 55,
              "velocity": 38,
              "position": 23.989583333333332,
              "duration": 0.49166666666666664
            },
            {
              "pitch": 59,
              "velocity": 38,
              "position": 23.989583333333332,
              "duration": 0.49166666666666664
            },
            {
              "pitch": 60,
              "velocity": 41,
              "position": 24,
              "duration": 0.49166666666666664
            },
            {
              "pitch": 64,
              "velocity": 37,
              "position": 24,
              "duration": 0.49166666666666664
            },
            {
              "pitch": 67,
              "velocity": 46,
              "position": 24.010416666666668,
              "duration": 0.49166666666666664
            },
            {
              "pitch": 71,
              "velocity": 46,
              "position": 24.010416666666668,
              "duration": 0.49166666666666664
            },
            {
              "pitch": 67,
              "velocity": 50,
              "position": 24.510416666666668,
              "duration": 0.22083333333333333
            },
            {
              "pitch": 71,
              "velocity": 50,
              "position": 24.510416666666668,
              "duration": 0.22083333333333333
            },
            {
              "pitch": 60,
              "velocity": 50,
              "position": 24.5,
              "duration": 0.24166666666666667
            },
            {
              "pitch": 64,
              "velocity": 49,
              "position": 24.5,
              "duration": 0.24166666666666667
            },
            {
              "pitch": 48,
              "velocity": 50,
              "position": 24.489583333333332,
              "duration": 0.2625
            },
            {
              "pitch": 55,
              "velocity": 50,
              "position": 24.489583333333332,
              "duration": 0.2625
            },
            {
              "pitch": 59,
              "velocity": 50,
              "position": 24.489583333333332,
              "duration": 0.2625
            },
            {
              "pitch": 48,
              "velocity": 37,
              "position": 24.760416666666668,
              "duration": 0.22083333333333333
            },
            {
              "pitch": 55,
              "velocity": 37,
              "position": 24.760416666666668,
              "duration": 0.22083333333333333
            },
            {
              "pitch": 59,
              "velocity": 37,
              "position": 24.760416666666668,
              "duration": 0.22083333333333333
            },
            {
              "pitch": 60,
              "velocity": 37,
              "position": 24.75,
              "duration": 0.24166666666666667
            },
            {
              "pitch": 64,
              "velocity": 36,
              "position": 24.75,
              "duration": 0.24166666666666667
            },
            {
              "pitch": 67,
              "velocity": 36,
              "position": 24.739583333333332,
              "duration": 0.2625
            },
            {
              "pitch": 71,
              "velocity": 36,
              "position": 24.739583333333332,
              "duration": 0.2625
            },
            {
              "pitch": 48,
              "velocity": 50,
              "position": 24.989583333333332,
              "duration": 0.49166666666666664
            },
            {
              "pitch": 55,
              "velocity": 50,
              "position": 24.989583333333332,
              "duration": 0.49166666666666664
            },
            {
              "pitch": 59,
              "velocity": 50,
              "position": 24.989583333333332,
              "duration": 0.49166666666666664
            },
            {
              "pitch": 60,
              "velocity": 48,
              "position": 25,
              "duration": 0.49166666666666664
            },
            {
              "pitch": 64,
              "velocity": 49,
              "position": 25,
              "duration": 0.49166666666666664
            },
            {
              "pitch": 67,
              "velocity": 46,
              "position": 25.010416666666668,
              "duration": 0.49166666666666664
            },
            {
              "pitch": 71,
              "velocity": 46,
              "position": 25.010416666666668,
              "duration": 0.49166666666666664
            },
            {
              "pitch": 67,
              "velocity": 50,
              "position": 25.510416666666668,
              "duration": 0.22083333333333333
            },
            {
              "pitch": 71,
              "velocity": 50,
              "position": 25.510416666666668,
              "duration": 0.22083333333333333
            },
            {
              "pitch": 64,
              "velocity": 49,
              "position": 25.5,
              "duration": 0.24166666666666667
            },
            {
              "pitch": 48,
              "velocity": 50,
              "position": 25.489583333333332,
              "duration": 0.2625
            },
            {
              "pitch": 55,
              "velocity": 50,
              "position": 25.489583333333332,
              "duration": 0.2625
            },
            {
              "pitch": 59,
              "velocity": 50,
              "position": 25.489583333333332,
              "duration": 0.2625
            },
            {
              "pitch": 48,
              "velocity": 34,
              "position": 25.760416666666668,
              "duration": 0.22083333333333333
            },
            {
              "pitch": 55,
              "velocity": 34,
              "position": 25.760416666666668,
              "duration": 0.22083333333333333
            },
            {
              "pitch": 59,
              "velocity": 34,
              "position": 25.760416666666668,
              "duration": 0.22083333333333333
            },
            {
              "pitch": 60,
              "velocity": 50,
              "position": 25.5,
              "duration": 0.49166666666666664
            },
            {
              "pitch": 64,
              "velocity": 33,
              "position": 25.75,
              "duration": 0.24166666666666667
            },
            {
              "pitch": 67,
              "velocity": 34,
              "position": 25.739583333333332,
              "duration": 0.2625
            },
            {
              "pitch": 71,
              "velocity": 34,
              "position": 25.739583333333332,
              "duration": 0.2625
            },
            {
              "pitch": 67,
              "velocity": 42,
              "position": 26.010416666666668,
              "duration": 0.22083333333333333
            },
            {
              "pitch": 71,
              "velocity": 42,
              "position": 26.010416666666668,
              "duration": 0.22083333333333333
            },
            {
              "pitch": 60,
              "velocity": 42,
              "position": 26,
              "duration": 0.24166666666666667
            },
            {
              "pitch": 64,
              "velocity": 41,
              "position": 26,
              "duration": 0.24166666666666667
            },
            {
              "pitch": 48,
              "velocity": 42,
              "position": 25.989583333333332,
              "duration": 0.49166666666666664
            },
            {
              "pitch": 55,
              "velocity": 42,
              "position": 25.989583333333332,
              "duration": 0.49166666666666664
            },
            {
              "pitch": 59,
              "velocity": 42,
              "position": 25.989583333333332,
              "duration": 0.49166666666666664
            },
            {
              "pitch": 60,
              "velocity": 32,
              "position": 26.25,
              "duration": 0.24166666666666667
            },
            {
              "pitch": 64,
              "velocity": 41,
              "position": 26.25,
              "duration": 0.24166666666666667
            },
            {
              "pitch": 67,
              "velocity": 38,
              "position": 26.239583333333332,
              "duration": 0.2625
            },
            {
              "pitch": 71,
              "velocity": 38,
              "position": 26.239583333333332,
              "duration": 0.2625
            },
            {
              "pitch": 48,
              "velocity": 48,
              "position": 26.489583333333332,
              "duration": 0.49166666666666664
            },
            {
              "pitch": 55,
              "velocity": 48,
              "position": 26.489583333333332,
              "duration": 0.49166666666666664
            },
            {
              "pitch": 59,
              "velocity": 48,
              "position": 26.489583333333332,
              "duration": 0.49166666666666664
            },
            {
              "pitch": 60,
              "velocity": 48,
              "position": 26.5,
              "duration": 0.49166666666666664
            },
            {
              "pitch": 64,
              "velocity": 47,
              "position": 26.5,
              "duration": 0.49166666666666664
            },
            {
              "pitch": 67,
              "velocity": 48,
              "position": 26.510416666666668,
              "duration": 0.49166666666666664
            },
            {
              "pitch": 71,
              "velocity": 48,
              "position": 26.510416666666668,
              "duration": 0.49166666666666664
            },
            {
              "pitch": 48,
              "velocity": 45,
              "position": 26.989583333333332,
              "duration": 0.49166666666666664
            },
            {
              "pitch": 55,
              "velocity": 45,
              "position": 26.989583333333332,
              "duration": 0.49166666666666664
            },
            {
              "pitch": 59,
              "velocity": 45,
              "position": 26.989583333333332,
              "duration": 0.49166666666666664
            },
            {
              "pitch": 60,
              "velocity": 42,
              "position": 27,
              "duration": 0.49166666666666664
            },
            {
              "pitch": 64,
              "velocity": 44,
              "position": 27,
              "duration": 0.49166666666666664
            },
            {
              "pitch": 67,
              "velocity": 42,
              "position": 27.010416666666668,
              "duration": 0.49166666666666664
            },
            {
              "pitch": 71,
              "velocity": 42,
              "position": 27.010416666666668,
              "duration": 0.49166666666666664
            },
            {
              "pitch": 67,
              "velocity": 46,
              "position": 27.510416666666668,
              "duration": 0.22083333333333333
            },
            {
              "pitch": 71,
              "velocity": 46,
              "position": 27.510416666666668,
              "duration": 0.22083333333333333
            },
            {
              "pitch": 60,
              "velocity": 46,
              "position": 27.5,
              "duration": 0.24166666666666667
            },
            {
              "pitch": 64,
              "velocity": 45,
              "position": 27.5,
              "duration": 0.24166666666666667
            },
            {
              "pitch": 48,
              "velocity": 46,
              "position": 27.489583333333332,
              "duration": 0.2625
            },
            {
              "pitch": 55,
              "velocity": 46,
              "position": 27.489583333333332,
              "duration": 0.2625
            },
            {
              "pitch": 59,
              "velocity": 46,
              "position": 27.489583333333332,
              "duration": 0.2625
            },
            {
              "pitch": 48,
              "velocity": 37,
              "position": 27.760416666666668,
              "duration": 0.22083333333333333
            },
            {
              "pitch": 55,
              "velocity": 37,
              "position": 27.760416666666668,
              "duration": 0.22083333333333333
            },
            {
              "pitch": 59,
              "velocity": 37,
              "position": 27.760416666666668,
              "duration": 0.22083333333333333
            },
            {
              "pitch": 60,
              "velocity": 37,
              "position": 27.75,
              "duration": 0.24166666666666667
            },
            {
              "pitch": 64,
              "velocity": 36,
              "position": 27.75,
              "duration": 0.24166666666666667
            },
            {
              "pitch": 67,
              "velocity": 37,
              "position": 27.739583333333332,
              "duration": 0.2625
            },
            {
              "pitch": 71,
              "velocity": 37,
              "position": 27.739583333333332,
              "duration": 0.2625
            },
            {
              "pitch": 48,
              "velocity": 38,
              "position": 27.989583333333332,
              "duration": 0.49166666666666664
            },
            {
              "pitch": 55,
              "velocity": 38,
              "position": 27.989583333333332,
              "duration": 0.49166666666666664
            },
            {
              "pitch": 59,
              "velocity": 38,
              "position": 27.989583333333332,
              "duration": 0.49166666666666664
            },
            {
              "pitch": 60,
              "velocity": 41,
              "position": 28,
              "duration": 0.49166666666666664
            },
            {
              "pitch": 64,
              "velocity": 37,
              "position": 28,
              "duration": 0.49166666666666664
            },
            {
              "pitch": 67,
              "velocity": 46,
              "position": 28.010416666666668,
              "duration": 0.49166666666666664
            },
            {
              "pitch": 71,
              "velocity": 46,
              "position": 28.010416666666668,
              "duration": 0.49166666666666664
            },
            {
              "pitch": 67,
              "velocity": 50,
              "position": 28.510416666666668,
              "duration": 0.22083333333333333
            },
            {
              "pitch": 71,
              "velocity": 50,
              "position": 28.510416666666668,
              "duration": 0.22083333333333333
            },
            {
              "pitch": 60,
              "velocity": 50,
              "position": 28.5,
              "duration": 0.24166666666666667
            },
            {
              "pitch": 64,
              "velocity": 49,
              "position": 28.5,
              "duration": 0.24166666666666667
            },
            {
              "pitch": 48,
              "velocity": 50,
              "position": 28.489583333333332,
              "duration": 0.2625
            },
            {
              "pitch": 55,
              "velocity": 50,
              "position": 28.489583333333332,
              "duration": 0.2625
            },
            {
              "pitch": 59,
              "velocity": 50,
              "position": 28.489583333333332,
              "duration": 0.2625
            },
            {
              "pitch": 48,
              "velocity": 37,
              "position": 28.760416666666668,
              "duration": 0.22083333333333333
            },
            {
              "pitch": 55,
              "velocity": 37,
              "position": 28.760416666666668,
              "duration": 0.22083333333333333
            },
            {
              "pitch": 59,
              "velocity": 37,
              "position": 28.760416666666668,
              "duration": 0.22083333333333333
            },
            {
              "pitch": 60,
              "velocity": 37,
              "position": 28.75,
              "duration": 0.24166666666666667
            },
            {
              "pitch": 64,
              "velocity": 36,
              "position": 28.75,
              "duration": 0.24166666666666667
            },
            {
              "pitch": 67,
              "velocity": 36,
              "position": 28.739583333333332,
              "duration": 0.2625
            },
            {
              "pitch": 71,
              "velocity": 36,
              "position": 28.739583333333332,
              "duration": 0.2625
            },
            {
              "pitch": 48,
              "velocity": 50,
              "position": 28.989583333333332,
              "duration": 0.49166666666666664
            },
            {
              "pitch": 55,
              "velocity": 50,
              "position": 28.989583333333332,
              "duration": 0.49166666666666664
            },
            {
              "pitch": 59,
              "velocity": 50,
              "position": 28.989583333333332,
              "duration": 0.49166666666666664
            },
            {
              "pitch": 60,
              "velocity": 48,
              "position": 29,
              "duration": 0.49166666666666664
            },
            {
              "pitch": 64,
              "velocity": 49,
              "position": 29,
              "duration": 0.49166666666666664
            },
            {
              "pitch": 67,
              "velocity": 43,
              "position": 29.010416666666668,
              "duration": 0.49166666666666664
            },
            {
              "pitch": 71,
              "velocity": 43,
              "position": 29.010416666666668,
              "duration": 0.49166666666666664
            },
            {
              "pitch": 67,
              "velocity": 50,
              "position": 29.510416666666668,
              "duration": 0.22083333333333333
            },
            {
              "pitch": 71,
              "velocity": 50,
              "position": 29.510416666666668,
              "duration": 0.22083333333333333
            },
            {
              "pitch": 64,
              "velocity": 49,
              "position": 29.5,
              "duration": 0.24166666666666667
            },
            {
              "pitch": 48,
              "velocity": 50,
              "position": 29.489583333333332,
              "duration": 0.2625
            },
            {
              "pitch": 55,
              "velocity": 50,
              "position": 29.489583333333332,
              "duration": 0.2625
            },
            {
              "pitch": 59,
              "velocity": 50,
              "position": 29.489583333333332,
              "duration": 0.2625
            },
            {
              "pitch": 48,
              "velocity": 34,
              "position": 29.760416666666668,
              "duration": 0.22083333333333333
            },
            {
              "pitch": 55,
              "velocity": 34,
              "position": 29.760416666666668,
              "duration": 0.22083333333333333
            },
            {
              "pitch": 59,
              "velocity": 34,
              "position": 29.760416666666668,
              "duration": 0.22083333333333333
            },
            {
              "pitch": 60,
              "velocity": 50,
              "position": 29.5,
              "duration": 0.49166666666666664
            },
            {
              "pitch": 64,
              "velocity": 33,
              "position": 29.75,
              "duration": 0.24166666666666667
            },
            {
              "pitch": 67,
              "velocity": 34,
              "position": 29.739583333333332,
              "duration": 0.2625
            },
            {
              "pitch": 71,
              "velocity": 34,
              "position": 29.739583333333332,
              "duration": 0.2625
            },
            {
              "pitch": 67,
              "velocity": 42,
              "position": 30.010416666666668,
              "duration": 0.22083333333333333
            },
            {
              "pitch": 71,
              "velocity": 42,
              "position": 30.010416666666668,
              "duration": 0.22083333333333333
            },
            {
              "pitch": 60,
              "velocity": 42,
              "position": 30,
              "duration": 0.24166666666666667
            },
            {
              "pitch": 64,
              "velocity": 33,
              "position": 30,
              "duration": 0.24166666666666667
            },
            {
              "pitch": 48,
              "velocity": 34,
              "position": 29.989583333333332,
              "duration": 0.49166666666666664
            },
            {
              "pitch": 55,
              "velocity": 34,
              "position": 29.989583333333332,
              "duration": 0.49166666666666664
            },
            {
              "pitch": 59,
              "velocity": 34,
              "position": 29.989583333333332,
              "duration": 0.49166666666666664
            },
            {
              "pitch": 60,
              "velocity": 32,
              "position": 30.25,
              "duration": 0.24166666666666667
            },
            {
              "pitch": 64,
              "velocity": 42,
              "position": 30.25,
              "duration": 0.24166666666666667
            },
            {
              "pitch": 67,
              "velocity": 37,
              "position": 30.239583333333332,
              "duration": 0.2625
            },
            {
              "pitch": 71,
              "velocity": 37,
              "position": 30.239583333333332,
              "duration": 0.2625
            },
            {
              "pitch": 67,
              "velocity": 50,
              "position": 30.510416666666668,
              "duration": 0.22083333333333333
            },
            {
              "pitch": 71,
              "velocity": 50,
              "position": 30.510416666666668,
              "duration": 0.22083333333333333
            },
            {
              "pitch": 60,
              "velocity": 50,
              "position": 30.5,
              "duration": 0.24166666666666667
            },
            {
              "pitch": 64,
              "velocity": 41,
              "position": 30.5,
              "duration": 0.24166666666666667
            },
            {
              "pitch": 48,
              "velocity": 42,
              "position": 30.489583333333332,
              "duration": 0.2625
            },
            {
              "pitch": 55,
              "velocity": 42,
              "position": 30.489583333333332,
              "duration": 0.2625
            },
            {
              "pitch": 59,
              "velocity": 42,
              "position": 30.489583333333332,
              "duration": 0.2625
            },
            {
              "pitch": 48,
              "velocity": 42,
              "position": 30.760416666666668,
              "duration": 0.22083333333333333
            },
            {
              "pitch": 55,
              "velocity": 42,
              "position": 30.760416666666668,
              "duration": 0.22083333333333333
            },
            {
              "pitch": 59,
              "velocity": 42,
              "position": 30.760416666666668,
              "duration": 0.22083333333333333
            },
            {
              "pitch": 60,
              "velocity": 26,
              "position": 30.75,
              "duration": 0.24166666666666667
            },
            {
              "pitch": 64,
              "velocity": 41,
              "position": 30.75,
              "duration": 0.24166666666666667
            },
            {
              "pitch": 67,
              "velocity": 26,
              "position": 30.739583333333332,
              "duration": 0.2625
            },
            {
              "pitch": 71,
              "velocity": 26,
              "position": 30.739583333333332,
              "duration": 0.2625
            },
            {
              "pitch": 48,
              "velocity": 45,
              "position": 30.989583333333332,
              "duration": 0.49166666666666664
            },
            {
              "pitch": 55,
              "velocity": 45,
              "position": 30.989583333333332,
              "duration": 0.49166666666666664
            },
            {
              "pitch": 59,
              "velocity": 45,
              "position": 30.989583333333332,
              "duration": 0.49166666666666664
            },
            {
              "pitch": 60,
              "velocity": 42,
              "position": 31,
              "duration": 0.49166666666666664
            },
            {
              "pitch": 64,
              "velocity": 44,
              "position": 31,
              "duration": 0.49166666666666664
            },
            {
              "pitch": 67,
              "velocity": 42,
              "position": 31.010416666666668,
              "duration": 0.49166666666666664
            },
            {
              "pitch": 71,
              "velocity": 42,
              "position": 31.010416666666668,
              "duration": 0.49166666666666664
            },
            {
              "pitch": 67,
              "velocity": 50,
              "position": 31.510416666666668,
              "duration": 0.22083333333333333
            },
            {
              "pitch": 71,
              "velocity": 50,
              "position": 31.510416666666668,
              "duration": 0.22083333333333333
            },
            {
              "pitch": 64,
              "velocity": 49,
              "position": 31.5,
              "duration": 0.24166666666666667
            },
            {
              "pitch": 48,
              "velocity": 50,
              "position": 31.489583333333332,
              "duration": 0.2625
            },
            {
              "pitch": 55,
              "velocity": 50,
              "position": 31.489583333333332,
              "duration": 0.2625
            },
            {
              "pitch": 59,
              "velocity": 50,
              "position": 31.489583333333332,
              "duration": 0.2625
            },
            {
              "pitch": 48,
              "velocity": 33,
              "position": 31.760416666666668,
              "duration": 0.23125
            },
            {
              "pitch": 55,
              "velocity": 33,
              "position": 31.760416666666668,
              "duration": 0.23125
            },
            {
              "pitch": 59,
              "velocity": 33,
              "position": 31.760416666666668,
              "duration": 0.23125
            },
            {
              "pitch": 60,
              "velocity": 50,
              "position": 31.5,
              "duration": 0.49166666666666664
            },
            {
              "pitch": 64,
              "velocity": 32,
              "position": 31.75,
              "duration": 0.24166666666666667
            },
            {
              "pitch": 67,
              "velocity": 33,
              "position": 31.739583333333332,
              "duration": 0.2520833333333333
            },
            {
              "pitch": 71,
              "velocity": 33,
              "position": 31.739583333333332,
              "duration": 0.2520833333333333
            }
          ]
        },
        "14": {
          "ctab": {
            "srcChannel": 14,
            "name": "Gt_Ba",
            "accType": "PHRASE1",
            "editable": false,
            "mutedNotes": [],
            "mutedChords": [],
            "autoStart": false,
            "sourceChordNote": 0,
            "sourceChordType": "Maj7",
            "ctb2Low": null,
            "ctb2Main": {
              "ntr": "ROOT_TRANSPOSITION",
              "ntt": "MELODY",
              "bassOn": true,
              "chordRootUpperLimit": 8,
              "noteLowLimit": 40,
              "noteHighLimit": 52,
              "rtr": "PITCH_SHIFT_TO_ROOT"
            },
            "ctb2High": null
          },
          "notes": [
            {
              "pitch": 48,
              "velocity": 84,
              "position": 0,
              "duration": 0.71875
            },
            {
              "pitch": 48,
              "velocity": 70,
              "position": 0.75,
              "duration": 0.21875
            },
            {
              "pitch": 43,
              "velocity": 79,
              "position": 1,
              "duration": 0.9895833333333334
            },
            {
              "pitch": 48,
              "velocity": 80,
              "position": 2,
              "duration": 0.5
            },
            {
              "pitch": 48,
              "velocity": 70,
              "position": 2.75,
              "duration": 0.21875
            },
            {
              "pitch": 43,
              "velocity": 76,
              "position": 3,
              "duration": 0.9895833333333334
            },
            {
              "pitch": 48,
              "velocity": 84,
              "position": 4,
              "duration": 0.71875
            },
            {
              "pitch": 48,
              "velocity": 70,
              "position": 4.75,
              "duration": 0.21875
            },
            {
              "pitch": 43,
              "velocity": 79,
              "position": 5,
              "duration": 0.9895833333333334
            },
            {
              "pitch": 48,
              "velocity": 80,
              "position": 6,
              "duration": 0.5
            },
            {
              "pitch": 48,
              "velocity": 70,
              "position": 6.75,
              "duration": 0.21875
            },
            {
              "pitch": 43,
              "velocity": 76,
              "position": 7,
              "duration": 0.9895833333333334
            },
            {
              "pitch": 48,
              "velocity": 84,
              "position": 8,
              "duration": 0.71875
            },
            {
              "pitch": 48,
              "velocity": 70,
              "position": 8.75,
              "duration": 0.21875
            },
            {
              "pitch": 43,
              "velocity": 79,
              "position": 9,
              "duration": 0.9895833333333334
            },
            {
              "pitch": 48,
              "velocity": 80,
              "position": 10,
              "duration": 0.5
            },
            {
              "pitch": 48,
              "velocity": 70,
              "position": 10.75,
              "duration": 0.21875
            },
            {
              "pitch": 43,
              "velocity": 76,
              "position": 11,
              "duration": 0.9895833333333334
            },
            {
              "pitch": 48,
              "velocity": 84,
              "position": 12,
              "duration": 0.71875
            },
            {
              "pitch": 48,
              "velocity": 70,
              "position": 12.75,
              "duration": 0.21875
            },
            {
              "pitch": 43,
              "velocity": 79,
              "position": 13,
              "duration": 0.9895833333333334
            },
            {
              "pitch": 48,
              "velocity": 80,
              "position": 14,
              "duration": 0.5
            },
            {
              "pitch": 48,
              "velocity": 70,
              "position": 14.75,
              "duration": 0.21875
            },
            {
              "pitch": 43,
              "velocity": 76,
              "position": 15,
              "duration": 0.9895833333333334
            },
            {
              "pitch": 48,
              "velocity": 84,
              "position": 16,
              "duration": 0.71875
            },
            {
              "pitch": 48,
              "velocity": 70,
              "position": 16.75,
              "duration": 0.21875
            },
            {
              "pitch": 43,
              "velocity": 79,
              "position": 17,
              "duration": 0.9895833333333334
            },
            {
              "pitch": 48,
              "velocity": 80,
              "position": 18,
              "duration": 0.5
            },
            {
              "pitch": 48,
              "velocity": 70,
              "position": 18.75,
              "duration": 0.21875
            },
            {
              "pitch": 43,
              "velocity": 76,
              "position": 19,
              "duration": 0.9895833333333334
            },
            {
              "pitch": 48,
              "velocity": 84,
              "position": 20,
              "duration": 0.71875
            },
            {
              "pitch": 48,
              "velocity": 70,
              "position": 20.75,
              "duration": 0.21875
            },
            {
              "pitch": 43,
              "velocity": 79,
              "position": 21,
              "duration": 0.9895833333333334
            },
            {
              "pitch": 48,
              "velocity": 80,
              "position": 22,
              "duration": 0.5
            },
            {
              "pitch": 48,
              "velocity": 70,
              "position": 22.75,
              "duration": 0.21875
            },
            {
              "pitch": 43,
              "velocity": 76,
              "position": 23,
              "duration": 0.9895833333333334
            },
            {
              "pitch": 48,
              "velocity": 84,
              "position": 24,
              "duration": 0.71875
            },
            {
              "pitch": 48,
              "velocity": 70,
              "position": 24.75,
              "duration": 0.21875
            },
            {
              "pitch": 43,
              "velocity": 79,
              "position": 25,
              "duration": 0.9895833333333334
            },
            {
              "pitch": 48,
              "velocity": 80,
              "position": 26,
              "duration": 0.5
            },
            {
              "pitch": 48,
              "velocity": 70,
              "position": 26.75,
              "duration": 0.21875
            },
            {
              "pitch": 43,
              "velocity": 76,
              "position": 27,
              "duration": 0.9895833333333334
            },
            {
              "pitch": 48,
              "velocity": 84,
              "position": 28,
              "duration": 0.71875
            },
            {
              "pitch": 48,
              "velocity": 70,
              "position": 28.75,
              "duration": 0.21875
            },
            {
              "pitch": 43,
              "velocity": 79,
              "position": 29,
              "duration": 0.9895833333333334
            },
            {
              "pitch": 48,
              "velocity": 80,
              "position": 30,
              "duration": 0.5
            },
            {
              "pitch": 48,
              "velocity": 70,
              "position": 30.75,
              "duration": 0.21875
            },
            {
              "pitch": 43,
              "velocity": 76,
              "position": 31,
              "duration": 0.9895833333333334
            }
          ]
        },
        "15": {
          "ctab": {
            "srcChannel": 15,
            "name": "Gt_Arp",
            "accType": "PHRASE2",
            "editable": false,
            "mutedNotes": [],
            "mutedChords": [],
            "autoStart": false,
            "sourceChordNote": 0,
            "sourceChordType": "Maj7",
            "ctb2Low": null,
            "ctb2Main": {
              "ntr": "ROOT_TRANSPOSITION",
              "ntt": "CHORD",
              "bassOn": false,
              "chordRootUpperLimit": 8,
              "noteLowLimit": 0,
              "noteHighLimit": 127,
              "rtr": "PITCH_SHIFT"
            },
            "ctb2High": null
          },
          "notes": [
            {
              "pitch": 60,
              "velocity": 73,
              "position": 0.25,
              "duration": 0.9895833333333334
            },
            {
              "pitch": 52,
              "velocity": 68,
              "position": 0.5,
              "duration": 0.9895833333333334
            },
            {
              "pitch": 55,
              "velocity": 83,
              "position": 1,
              "duration": 0.7395833333333334
            },
            {
              "pitch": 59,
              "velocity": 83,
              "position": 1,
              "duration": 0.7395833333333334
            },
            {
              "pitch": 52,
              "velocity": 76,
              "position": 1.5,
              "duration": 0.4895833333333333
            },
            {
              "pitch": 55,
              "velocity": 64,
              "position": 1.75,
              "duration": 0.23958333333333334
            },
            {
              "pitch": 59,
              "velocity": 64,
              "position": 1.75,
              "duration": 0.23958333333333334
            },
            {
              "pitch": 60,
              "velocity": 64,
              "position": 1.25,
              "duration": 0.7395833333333334
            },
            {
              "pitch": 64,
              "velocity": 74,
              "position": 0.75,
              "duration": 1.2395833333333333
            },
            {
              "pitch": 55,
              "velocity": 72,
              "position": 2.25,
              "duration": 0.9895833333333334
            },
            {
              "pitch": 59,
              "velocity": 72,
              "position": 2.25,
              "duration": 0.9895833333333334
            },
            {
              "pitch": 52,
              "velocity": 69,
              "position": 2.5,
              "duration": 0.9895833333333334
            },
            {
              "pitch": 55,
              "velocity": 60,
              "position": 3.25,
              "duration": 0.4895833333333333
            },
            {
              "pitch": 59,
              "velocity": 60,
              "position": 3.25,
              "duration": 0.4895833333333333
            },
            {
              "pitch": 52,
              "velocity": 65,
              "position": 3.5,
              "duration": 0.4895833333333333
            },
            {
              "pitch": 55,
              "velocity": 62,
              "position": 3.75,
              "duration": 0.23958333333333334
            },
            {
              "pitch": 59,
              "velocity": 62,
              "position": 3.75,
              "duration": 0.23958333333333334
            },
            {
              "pitch": 60,
              "velocity": 79,
              "position": 2.75,
              "duration": 1.2395833333333333
            },
            {
              "pitch": 55,
              "velocity": 81,
              "position": 4.25,
              "duration": 0.9895833333333334
            },
            {
              "pitch": 59,
              "velocity": 81,
              "position": 4.25,
              "duration": 0.9895833333333334
            },
            {
              "pitch": 52,
              "velocity": 70,
              "position": 4.5,
              "duration": 0.9895833333333334
            },
            {
              "pitch": 55,
              "velocity": 63,
              "position": 5.25,
              "duration": 0.4895833333333333
            },
            {
              "pitch": 59,
              "velocity": 63,
              "position": 5.25,
              "duration": 0.4895833333333333
            },
            {
              "pitch": 52,
              "velocity": 72,
              "position": 5.5,
              "duration": 0.4895833333333333
            },
            {
              "pitch": 55,
              "velocity": 61,
              "position": 5.75,
              "duration": 0.23958333333333334
            },
            {
              "pitch": 59,
              "velocity": 61,
              "position": 5.75,
              "duration": 0.23958333333333334
            },
            {
              "pitch": 60,
              "velocity": 75,
              "position": 4.75,
              "duration": 1.2395833333333333
            },
            {
              "pitch": 60,
              "velocity": 77,
              "position": 6.25,
              "duration": 0.9895833333333334
            },
            {
              "pitch": 52,
              "velocity": 64,
              "position": 6.5,
              "duration": 0.9895833333333334
            },
            {
              "pitch": 55,
              "velocity": 83,
              "position": 7,
              "duration": 0.7395833333333334
            },
            {
              "pitch": 59,
              "velocity": 83,
              "position": 7,
              "duration": 0.7395833333333334
            },
            {
              "pitch": 52,
              "velocity": 80,
              "position": 7.5,
              "duration": 0.4895833333333333
            },
            {
              "pitch": 55,
              "velocity": 65,
              "position": 7.75,
              "duration": 0.23958333333333334
            },
            {
              "pitch": 59,
              "velocity": 65,
              "position": 7.75,
              "duration": 0.23958333333333334
            },
            {
              "pitch": 60,
              "velocity": 62,
              "position": 7.25,
              "duration": 0.7395833333333334
            },
            {
              "pitch": 64,
              "velocity": 74,
              "position": 6.75,
              "duration": 1.2395833333333333
            },
            {
              "pitch": 55,
              "velocity": 83,
              "position": 8.25,
              "duration": 0.9895833333333334
            },
            {
              "pitch": 59,
              "velocity": 83,
              "position": 8.25,
              "duration": 0.9895833333333334
            },
            {
              "pitch": 52,
              "velocity": 68,
              "position": 8.5,
              "duration": 0.9895833333333334
            },
            {
              "pitch": 55,
              "velocity": 63,
              "position": 9.25,
              "duration": 0.4895833333333333
            },
            {
              "pitch": 59,
              "velocity": 63,
              "position": 9.25,
              "duration": 0.4895833333333333
            },
            {
              "pitch": 52,
              "velocity": 63,
              "position": 9.5,
              "duration": 0.4895833333333333
            },
            {
              "pitch": 55,
              "velocity": 52,
              "position": 9.75,
              "duration": 0.23958333333333334
            },
            {
              "pitch": 59,
              "velocity": 52,
              "position": 9.75,
              "duration": 0.23958333333333334
            },
            {
              "pitch": 60,
              "velocity": 85,
              "position": 8.75,
              "duration": 1.2395833333333333
            },
            {
              "pitch": 55,
              "velocity": 79,
              "position": 10.25,
              "duration": 0.9895833333333334
            },
            {
              "pitch": 59,
              "velocity": 79,
              "position": 10.25,
              "duration": 0.9895833333333334
            },
            {
              "pitch": 52,
              "velocity": 60,
              "position": 10.5,
              "duration": 0.9895833333333334
            },
            {
              "pitch": 55,
              "velocity": 65,
              "position": 11.25,
              "duration": 0.4895833333333333
            },
            {
              "pitch": 59,
              "velocity": 65,
              "position": 11.25,
              "duration": 0.4895833333333333
            },
            {
              "pitch": 52,
              "velocity": 67,
              "position": 11.5,
              "duration": 0.4895833333333333
            },
            {
              "pitch": 55,
              "velocity": 59,
              "position": 11.75,
              "duration": 0.23958333333333334
            },
            {
              "pitch": 59,
              "velocity": 59,
              "position": 11.75,
              "duration": 0.23958333333333334
            },
            {
              "pitch": 60,
              "velocity": 73,
              "position": 10.75,
              "duration": 1.2395833333333333
            },
            {
              "pitch": 60,
              "velocity": 74,
              "position": 12.25,
              "duration": 0.9895833333333334
            },
            {
              "pitch": 52,
              "velocity": 68,
              "position": 12.5,
              "duration": 0.9895833333333334
            },
            {
              "pitch": 55,
              "velocity": 79,
              "position": 13,
              "duration": 0.7395833333333334
            },
            {
              "pitch": 59,
              "velocity": 79,
              "position": 13,
              "duration": 0.7395833333333334
            },
            {
              "pitch": 52,
              "velocity": 77,
              "position": 13.5,
              "duration": 0.4895833333333333
            },
            {
              "pitch": 55,
              "velocity": 54,
              "position": 13.75,
              "duration": 0.23958333333333334
            },
            {
              "pitch": 59,
              "velocity": 54,
              "position": 13.75,
              "duration": 0.23958333333333334
            },
            {
              "pitch": 60,
              "velocity": 73,
              "position": 13.25,
              "duration": 0.7395833333333334
            },
            {
              "pitch": 64,
              "velocity": 66,
              "position": 12.75,
              "duration": 1.2395833333333333
            },
            {
              "pitch": 55,
              "velocity": 86,
              "position": 14.25,
              "duration": 0.9895833333333334
            },
            {
              "pitch": 59,
              "velocity": 86,
              "position": 14.25,
              "duration": 0.9895833333333334
            },
            {
              "pitch": 52,
              "velocity": 72,
              "position": 14.5,
              "duration": 0.9895833333333334
            },
            {
              "pitch": 55,
              "velocity": 70,
              "position": 15.25,
              "duration": 0.4895833333333333
            },
            {
              "pitch": 59,
              "velocity": 70,
              "position": 15.25,
              "duration": 0.4895833333333333
            },
            {
              "pitch": 52,
              "velocity": 70,
              "position": 15.5,
              "duration": 0.4895833333333333
            },
            {
              "pitch": 55,
              "velocity": 64,
              "position": 15.75,
              "duration": 0.23958333333333334
            },
            {
              "pitch": 59,
              "velocity": 64,
              "position": 15.75,
              "duration": 0.23958333333333334
            },
            {
              "pitch": 60,
              "velocity": 79,
              "position": 14.75,
              "duration": 1.2395833333333333
            },
            {
              "pitch": 55,
              "velocity": 81,
              "position": 16.25,
              "duration": 0.9895833333333334
            },
            {
              "pitch": 59,
              "velocity": 81,
              "position": 16.25,
              "duration": 0.9895833333333334
            },
            {
              "pitch": 52,
              "velocity": 62,
              "position": 16.5,
              "duration": 0.9895833333333334
            },
            {
              "pitch": 55,
              "velocity": 65,
              "position": 17.25,
              "duration": 0.4895833333333333
            },
            {
              "pitch": 59,
              "velocity": 65,
              "position": 17.25,
              "duration": 0.4895833333333333
            },
            {
              "pitch": 52,
              "velocity": 70,
              "position": 17.5,
              "duration": 0.4895833333333333
            },
            {
              "pitch": 55,
              "velocity": 60,
              "position": 17.75,
              "duration": 0.23958333333333334
            },
            {
              "pitch": 59,
              "velocity": 60,
              "position": 17.75,
              "duration": 0.23958333333333334
            },
            {
              "pitch": 60,
              "velocity": 85,
              "position": 16.75,
              "duration": 1.2395833333333333
            },
            {
              "pitch": 60,
              "velocity": 76,
              "position": 18.25,
              "duration": 0.9895833333333334
            },
            {
              "pitch": 52,
              "velocity": 70,
              "position": 18.5,
              "duration": 0.9895833333333334
            },
            {
              "pitch": 55,
              "velocity": 82,
              "position": 19,
              "duration": 0.7395833333333334
            },
            {
              "pitch": 59,
              "velocity": 82,
              "position": 19,
              "duration": 0.7395833333333334
            },
            {
              "pitch": 52,
              "velocity": 82,
              "position": 19.5,
              "duration": 0.4895833333333333
            },
            {
              "pitch": 55,
              "velocity": 65,
              "position": 19.75,
              "duration": 0.23958333333333334
            },
            {
              "pitch": 59,
              "velocity": 65,
              "position": 19.75,
              "duration": 0.23958333333333334
            },
            {
              "pitch": 60,
              "velocity": 70,
              "position": 19.25,
              "duration": 0.7395833333333334
            },
            {
              "pitch": 64,
              "velocity": 73,
              "position": 18.75,
              "duration": 1.2395833333333333
            },
            {
              "pitch": 55,
              "velocity": 79,
              "position": 20.25,
              "duration": 0.9895833333333334
            },
            {
              "pitch": 59,
              "velocity": 79,
              "position": 20.25,
              "duration": 0.9895833333333334
            },
            {
              "pitch": 52,
              "velocity": 67,
              "position": 20.5,
              "duration": 0.9895833333333334
            },
            {
              "pitch": 55,
              "velocity": 69,
              "position": 21.25,
              "duration": 0.4895833333333333
            },
            {
              "pitch": 59,
              "velocity": 69,
              "position": 21.25,
              "duration": 0.4895833333333333
            },
            {
              "pitch": 52,
              "velocity": 70,
              "position": 21.5,
              "duration": 0.4895833333333333
            },
            {
              "pitch": 55,
              "velocity": 65,
              "position": 21.75,
              "duration": 0.23958333333333334
            },
            {
              "pitch": 59,
              "velocity": 65,
              "position": 21.75,
              "duration": 0.23958333333333334
            },
            {
              "pitch": 60,
              "velocity": 80,
              "position": 20.75,
              "duration": 1.2395833333333333
            },
            {
              "pitch": 55,
              "velocity": 84,
              "position": 22.25,
              "duration": 0.9895833333333334
            },
            {
              "pitch": 59,
              "velocity": 84,
              "position": 22.25,
              "duration": 0.9895833333333334
            },
            {
              "pitch": 52,
              "velocity": 72,
              "position": 22.5,
              "duration": 0.9895833333333334
            },
            {
              "pitch": 55,
              "velocity": 72,
              "position": 23.25,
              "duration": 0.4895833333333333
            },
            {
              "pitch": 59,
              "velocity": 72,
              "position": 23.25,
              "duration": 0.4895833333333333
            },
            {
              "pitch": 52,
              "velocity": 72,
              "position": 23.5,
              "duration": 0.4895833333333333
            },
            {
              "pitch": 55,
              "velocity": 61,
              "position": 23.75,
              "duration": 0.23958333333333334
            },
            {
              "pitch": 59,
              "velocity": 61,
              "position": 23.75,
              "duration": 0.23958333333333334
            },
            {
              "pitch": 60,
              "velocity": 75,
              "position": 22.75,
              "duration": 1.2395833333333333
            },
            {
              "pitch": 60,
              "velocity": 79,
              "position": 24.25,
              "duration": 0.9895833333333334
            },
            {
              "pitch": 52,
              "velocity": 69,
              "position": 24.5,
              "duration": 0.9895833333333334
            },
            {
              "pitch": 55,
              "velocity": 76,
              "position": 25,
              "duration": 0.7395833333333334
            },
            {
              "pitch": 59,
              "velocity": 76,
              "position": 25,
              "duration": 0.7395833333333334
            },
            {
              "pitch": 52,
              "velocity": 81,
              "position": 25.5,
              "duration": 0.4895833333333333
            },
            {
              "pitch": 55,
              "velocity": 52,
              "position": 25.75,
              "duration": 0.23958333333333334
            },
            {
              "pitch": 59,
              "velocity": 52,
              "position": 25.75,
              "duration": 0.23958333333333334
            },
            {
              "pitch": 60,
              "velocity": 67,
              "position": 25.25,
              "duration": 0.7395833333333334
            },
            {
              "pitch": 64,
              "velocity": 81,
              "position": 24.75,
              "duration": 1.2395833333333333
            },
            {
              "pitch": 60,
              "velocity": 71,
              "position": 26.25,
              "duration": 0.9895833333333334
            },
            {
              "pitch": 52,
              "velocity": 70,
              "position": 26.5,
              "duration": 0.9895833333333334
            },
            {
              "pitch": 55,
              "velocity": 78,
              "position": 27,
              "duration": 0.7395833333333334
            },
            {
              "pitch": 59,
              "velocity": 78,
              "position": 27,
              "duration": 0.7395833333333334
            },
            {
              "pitch": 52,
              "velocity": 77,
              "position": 27.5,
              "duration": 0.4895833333333333
            },
            {
              "pitch": 55,
              "velocity": 53,
              "position": 27.75,
              "duration": 0.23958333333333334
            },
            {
              "pitch": 59,
              "velocity": 53,
              "position": 27.75,
              "duration": 0.23958333333333334
            },
            {
              "pitch": 60,
              "velocity": 69,
              "position": 27.25,
              "duration": 0.7395833333333334
            },
            {
              "pitch": 64,
              "velocity": 70,
              "position": 26.75,
              "duration": 1.2395833333333333
            },
            {
              "pitch": 55,
              "velocity": 83,
              "position": 28.25,
              "duration": 0.9895833333333334
            },
            {
              "pitch": 59,
              "velocity": 83,
              "position": 28.25,
              "duration": 0.9895833333333334
            },
            {
              "pitch": 52,
              "velocity": 70,
              "position": 28.5,
              "duration": 0.9895833333333334
            },
            {
              "pitch": 55,
              "velocity": 65,
              "position": 29.25,
              "duration": 0.4895833333333333
            },
            {
              "pitch": 59,
              "velocity": 65,
              "position": 29.25,
              "duration": 0.4895833333333333
            },
            {
              "pitch": 52,
              "velocity": 65,
              "position": 29.5,
              "duration": 0.4895833333333333
            },
            {
              "pitch": 55,
              "velocity": 54,
              "position": 29.75,
              "duration": 0.23958333333333334
            },
            {
              "pitch": 59,
              "velocity": 54,
              "position": 29.75,
              "duration": 0.23958333333333334
            },
            {
              "pitch": 60,
              "velocity": 85,
              "position": 28.75,
              "duration": 1.2395833333333333
            },
            {
              "pitch": 60,
              "velocity": 76,
              "position": 30.25,
              "duration": 0.9895833333333334
            },
            {
              "pitch": 52,
              "velocity": 72,
              "position": 30.5,
              "duration": 0.9895833333333334
            },
            {
              "pitch": 55,
              "velocity": 72,
              "position": 31,
              "duration": 0.7395833333333334
            },
            {
              "pitch": 59,
              "velocity": 72,
              "position": 31,
              "duration": 0.7395833333333334
            },
            {
              "pitch": 52,
              "velocity": 76,
              "position": 31.5,
              "duration": 0.4895833333333333
            },
            {
              "pitch": 55,
              "velocity": 59,
              "position": 31.75,
              "duration": 0.23958333333333334
            },
            {
              "pitch": 59,
              "velocity": 59,
              "position": 31.75,
              "duration": 0.23958333333333334
            },
            {
              "pitch": 60,
              "velocity": 62,
              "position": 31.25,
              "duration": 0.7395833333333334
            },
            {
              "pitch": 64,
              "velocity": 82,
              "position": 30.75,
              "duration": 1.2395833333333333
            }
          ]
        }
      }
    },
    "Fill_In_AA": {
      "type": "Fill_In_AA",
      "sizeInBeats": 4,
      "channels": {
        "8": {
          "ctab": {
            "srcChannel": 8,
            "name": "AddDrum",
            "accType": "SUBRHYTHM",
            "editable": false,
            "mutedNotes": [],
            "mutedChords": [],
            "autoStart": true,
            "sourceChordNote": 0,
            "sourceChordType": "Maj7",
            "ctb2Low": null,
            "ctb2Main": {
              "ntr": "ROOT_FIXED",
              "ntt": "BYPASS",
              "bassOn": false,
              "chordRootUpperLimit": 6,
              "noteLowLimit": 0,
              "noteHighLimit": 127,
              "rtr": "PITCH_SHIFT"
            },
            "ctb2High": null
          },
          "notes": [
            {
              "pitch": 63,
              "velocity": 93,
              "position": 0,
              "duration": 0.08333333333333333
            },
            {
              "pitch": 69,
              "velocity": 60,
              "position": 0.25,
              "duration": 0.06875
            },
            {
              "pitch": 63,
              "velocity": 55,
              "position": 0.25,
              "duration": 0.08333333333333333
            },
            {
              "pitch": 70,
              "velocity": 96,
              "position": 0.5,
              "duration": 0.07291666666666667
            },
            {
              "pitch": 64,
              "velocity": 38,
              "position": 0.5,
              "duration": 0.08333333333333333
            },
            {
              "pitch": 70,
              "velocity": 42,
              "position": 0.75,
              "duration": 0.07291666666666667
            },
            {
              "pitch": 64,
              "velocity": 68,
              "position": 0.75,
              "duration": 0.08333333333333333
            },
            {
              "pitch": 69,
              "velocity": 60,
              "position": 1.25,
              "duration": 0.07291666666666667
            },
            {
              "pitch": 62,
              "velocity": 66,
              "position": 1.25,
              "duration": 0.08333333333333333
            },
            {
              "pitch": 70,
              "velocity": 102,
              "position": 1.5,
              "duration": 0.07291666666666667
            },
            {
              "pitch": 62,
              "velocity": 116,
              "position": 1.5,
              "duration": 0.08333333333333333
            },
            {
              "pitch": 70,
              "velocity": 54,
              "position": 1.75,
              "duration": 0.07291666666666667
            },
            {
              "pitch": 62,
              "velocity": 66,
              "position": 1.75,
              "duration": 0.08333333333333333
            },
            {
              "pitch": 63,
              "velocity": 99,
              "position": 2,
              "duration": 0.08333333333333333
            },
            {
              "pitch": 63,
              "velocity": 74,
              "position": 2.1666666666666665,
              "duration": 0.08333333333333333
            },
            {
              "pitch": 69,
              "velocity": 60,
              "position": 2.25,
              "duration": 0.07291666666666667
            },
            {
              "pitch": 63,
              "velocity": 62,
              "position": 2.3333333333333335,
              "duration": 0.08333333333333333
            },
            {
              "pitch": 70,
              "velocity": 109,
              "position": 2.5,
              "duration": 0.07291666666666667
            },
            {
              "pitch": 64,
              "velocity": 52,
              "position": 2.5,
              "duration": 0.08333333333333333
            },
            {
              "pitch": 70,
              "velocity": 45,
              "position": 2.75,
              "duration": 0.07291666666666667
            },
            {
              "pitch": 63,
              "velocity": 103,
              "position": 2.75,
              "duration": 0.08333333333333333
            },
            {
              "pitch": 62,
              "velocity": 127,
              "position": 3,
              "duration": 0.08333333333333333
            },
            {
              "pitch": 69,
              "velocity": 60,
              "position": 3.25,
              "duration": 0.07291666666666667
            },
            {
              "pitch": 63,
              "velocity": 45,
              "position": 3.25,
              "duration": 0.08333333333333333
            },
            {
              "pitch": 70,
              "velocity": 97,
              "position": 3.5,
              "duration": 0.07291666666666667
            },
            {
              "pitch": 63,
              "velocity": 116,
              "position": 3.5,
              "duration": 0.08333333333333333
            },
            {
              "pitch": 70,
              "velocity": 52,
              "position": 3.75,
              "duration": 0.07291666666666667
            },
            {
              "pitch": 64,
              "velocity": 45,
              "position": 3.75,
              "duration": 0.08333333333333333
            }
          ]
        },
        "9": {
          "ctab": {
            "srcChannel": 9,
            "name": "MainDrum",
            "accType": "RHYTHM",
            "editable": false,
            "mutedNotes": [],
            "mutedChords": [],
            "autoStart": true,
            "sourceChordNote": 0,
            "sourceChordType": "Maj7",
            "ctb2Low": null,
            "ctb2Main": {
              "ntr": "ROOT_FIXED",
              "ntt": "BYPASS",
              "bassOn": false,
              "chordRootUpperLimit": 6,
              "noteLowLimit": 0,
              "noteHighLimit": 127,
              "rtr": "PITCH_SHIFT"
            },
            "ctb2High": null
          },
          "notes": [
            {
              "pitch": 36,
              "velocity": 82,
              "position": 0,
              "duration": 0.052083333333333336
            },
            {
              "pitch": 42,
              "velocity": 86,
              "position": 0,
              "duration": 0.052083333333333336
            },
            {
              "pitch": 42,
              "velocity": 33,
              "position": 0.2604166666666667,
              "duration": 0.052083333333333336
            },
            {
              "pitch": 42,
              "velocity": 85,
              "position": 0.5,
              "duration": 0.052083333333333336
            },
            {
              "pitch": 36,
              "velocity": 52,
              "position": 0.7604166666666666,
              "duration": 0.052083333333333336
            },
            {
              "pitch": 42,
              "velocity": 52,
              "position": 0.7604166666666666,
              "duration": 0.052083333333333336
            },
            {
              "pitch": 36,
              "velocity": 82,
              "position": 1,
              "duration": 0.052083333333333336
            },
            {
              "pitch": 46,
              "velocity": 72,
              "position": 1,
              "duration": 0.052083333333333336
            },
            {
              "pitch": 40,
              "velocity": 54,
              "position": 1.2604166666666667,
              "duration": 0.052083333333333336
            },
            {
              "pitch": 42,
              "velocity": 87,
              "position": 1.5,
              "duration": 0.052083333333333336
            },
            {
              "pitch": 40,
              "velocity": 54,
              "position": 1.7604166666666667,
              "duration": 0.052083333333333336
            },
            {
              "pitch": 36,
              "velocity": 82,
              "position": 2,
              "duration": 0.052083333333333336
            },
            {
              "pitch": 42,
              "velocity": 67,
              "position": 2,
              "duration": 0.052083333333333336
            },
            {
              "pitch": 40,
              "velocity": 54,
              "position": 2.125,
              "duration": 0.052083333333333336
            },
            {
              "pitch": 40,
              "velocity": 103,
              "position": 2.2604166666666665,
              "duration": 0.052083333333333336
            },
            {
              "pitch": 42,
              "velocity": 82,
              "position": 2.5,
              "duration": 0.052083333333333336
            },
            {
              "pitch": 40,
              "velocity": 65,
              "position": 2.7604166666666665,
              "duration": 0.052083333333333336
            },
            {
              "pitch": 36,
              "velocity": 82,
              "position": 3,
              "duration": 0.052083333333333336
            },
            {
              "pitch": 40,
              "velocity": 102,
              "position": 3,
              "duration": 0.052083333333333336
            },
            {
              "pitch": 40,
              "velocity": 54,
              "position": 3.2604166666666665,
              "duration": 0.052083333333333336
            },
            {
              "pitch": 45,
              "velocity": 74,
              "position": 3.5,
              "duration": 0.052083333333333336
            },
            {
              "pitch": 43,
              "velocity": 71,
              "position": 3.7604166666666665,
              "duration": 0.052083333333333336
            },
            {
              "pitch": 49,
              "velocity": 80,
              "position": 3.9895833333333335,
              "duration": 0.010416666666666666
            }
          ]
        },
        "10": {
          "ctab": {
            "srcChannel": 10,
            "name": "Bass",
            "accType": "BASS",
            "editable": false,
            "mutedNotes": [],
            "mutedChords": [],
            "autoStart": false,
            "sourceChordNote": 0,
            "sourceChordType": "Maj7",
            "ctb2Low": null,
            "ctb2Main": {
              "ntr": "ROOT_TRANSPOSITION",
              "ntt": "MELODY",
              "bassOn": true,
              "chordRootUpperLimit": 8,
              "noteLowLimit": 28,
              "noteHighLimit": 127,
              "rtr": "PITCH_SHIFT_TO_ROOT"
            },
            "ctb2High": null
          },
          "notes": [
            {
              "pitch": 24,
              "velocity": 60,
              "position": 0,
              "duration": 1.4895833333333333
            },
            {
              "pitch": 31,
              "velocity": 60,
              "position": 1.5,
              "duration": 0.4895833333333333
            },
            {
              "pitch": 36,
              "velocity": 60,
              "position": 2,
              "duration": 0.9895833333333334
            },
            {
              "pitch": 31,
              "velocity": 60,
              "position": 3,
              "duration": 0.9895833333333334
            }
          ]
        },
        "11": {
          "ctab": {
            "srcChannel": 11,
            "name": "Gt_Stk",
            "accType": "CHORD1",
            "editable": false,
            "mutedNotes": [],
            "mutedChords": [],
            "autoStart": false,
            "sourceChordNote": 0,
            "sourceChordType": "Maj7",
            "ctb2Low": null,
            "ctb2Main": {
              "ntr": "ROOT_TRANSPOSITION",
              "ntt": "MELODY",
              "bassOn": true,
              "chordRootUpperLimit": 7,
              "noteLowLimit": 0,
              "noteHighLimit": 127,
              "rtr": "PITCH_SHIFT"
            },
            "ctb2High": null
          },
          "notes": [
            {
              "pitch": 48,
              "velocity": 48,
              "position": 0,
              "duration": 0.48125
            },
            {
              "pitch": 55,
              "velocity": 48,
              "position": 0,
              "duration": 0.48125
            },
            {
              "pitch": 59,
              "velocity": 48,
              "position": 0,
              "duration": 0.48125
            },
            {
              "pitch": 60,
              "velocity": 40,
              "position": 0.010416666666666666,
              "duration": 0.48125
            },
            {
              "pitch": 64,
              "velocity": 36,
              "position": 0,
              "duration": 0.49166666666666664
            },
            {
              "pitch": 67,
              "velocity": 41,
              "position": 0,
              "duration": 0.5020833333333333
            },
            {
              "pitch": 71,
              "velocity": 41,
              "position": 0,
              "duration": 0.5020833333333333
            },
            {
              "pitch": 67,
              "velocity": 47,
              "position": 0.5104166666666666,
              "duration": 0.7208333333333333
            },
            {
              "pitch": 71,
              "velocity": 47,
              "position": 0.5104166666666666,
              "duration": 0.7208333333333333
            },
            {
              "pitch": 60,
              "velocity": 44,
              "position": 0.5,
              "duration": 0.7416666666666667
            },
            {
              "pitch": 64,
              "velocity": 47,
              "position": 0.5,
              "duration": 0.7416666666666667
            },
            {
              "pitch": 48,
              "velocity": 45,
              "position": 0.4895833333333333,
              "duration": 0.9916666666666667
            },
            {
              "pitch": 55,
              "velocity": 45,
              "position": 0.4895833333333333,
              "duration": 0.9916666666666667
            },
            {
              "pitch": 59,
              "velocity": 45,
              "position": 0.4895833333333333,
              "duration": 0.9916666666666667
            },
            {
              "pitch": 60,
              "velocity": 28,
              "position": 1.25,
              "duration": 0.24166666666666667
            },
            {
              "pitch": 64,
              "velocity": 36,
              "position": 1.25,
              "duration": 0.24166666666666667
            },
            {
              "pitch": 67,
              "velocity": 37,
              "position": 1.2395833333333333,
              "duration": 0.2625
            },
            {
              "pitch": 71,
              "velocity": 37,
              "position": 1.2395833333333333,
              "duration": 0.2625
            },
            {
              "pitch": 67,
              "velocity": 39,
              "position": 1.5104166666666667,
              "duration": 0.21041666666666667
            },
            {
              "pitch": 71,
              "velocity": 39,
              "position": 1.5104166666666667,
              "duration": 0.21041666666666667
            },
            {
              "pitch": 60,
              "velocity": 41,
              "position": 1.5,
              "duration": 0.24166666666666667
            },
            {
              "pitch": 64,
              "velocity": 45,
              "position": 1.5,
              "duration": 0.24166666666666667
            },
            {
              "pitch": 48,
              "velocity": 40,
              "position": 1.4895833333333333,
              "duration": 0.2625
            },
            {
              "pitch": 55,
              "velocity": 40,
              "position": 1.4895833333333333,
              "duration": 0.2625
            },
            {
              "pitch": 59,
              "velocity": 40,
              "position": 1.4895833333333333,
              "duration": 0.2625
            },
            {
              "pitch": 48,
              "velocity": 41,
              "position": 1.7604166666666667,
              "duration": 0.7208333333333333
            },
            {
              "pitch": 55,
              "velocity": 41,
              "position": 1.7604166666666667,
              "duration": 0.7208333333333333
            },
            {
              "pitch": 59,
              "velocity": 41,
              "position": 1.7604166666666667,
              "duration": 0.7208333333333333
            },
            {
              "pitch": 60,
              "velocity": 42,
              "position": 1.75,
              "duration": 0.7416666666666667
            },
            {
              "pitch": 64,
              "velocity": 47,
              "position": 1.75,
              "duration": 0.7416666666666667
            },
            {
              "pitch": 67,
              "velocity": 49,
              "position": 1.7291666666666667,
              "duration": 0.7729166666666667
            },
            {
              "pitch": 71,
              "velocity": 49,
              "position": 1.7291666666666667,
              "duration": 0.7729166666666667
            },
            {
              "pitch": 67,
              "velocity": 41,
              "position": 2.5104166666666665,
              "duration": 0.22083333333333333
            },
            {
              "pitch": 71,
              "velocity": 41,
              "position": 2.5104166666666665,
              "duration": 0.22083333333333333
            },
            {
              "pitch": 60,
              "velocity": 37,
              "position": 2.5,
              "duration": 0.24166666666666667
            },
            {
              "pitch": 64,
              "velocity": 47,
              "position": 2.5,
              "duration": 0.24166666666666667
            },
            {
              "pitch": 48,
              "velocity": 37,
              "position": 2.4895833333333335,
              "duration": 0.49166666666666664
            },
            {
              "pitch": 55,
              "velocity": 37,
              "position": 2.4895833333333335,
              "duration": 0.49166666666666664
            },
            {
              "pitch": 59,
              "velocity": 37,
              "position": 2.4895833333333335,
              "duration": 0.49166666666666664
            },
            {
              "pitch": 60,
              "velocity": 26,
              "position": 2.75,
              "duration": 0.24166666666666667
            },
            {
              "pitch": 64,
              "velocity": 36,
              "position": 2.75,
              "duration": 0.24166666666666667
            },
            {
              "pitch": 67,
              "velocity": 40,
              "position": 2.7395833333333335,
              "duration": 0.2520833333333333
            },
            {
              "pitch": 71,
              "velocity": 40,
              "position": 2.7395833333333335,
              "duration": 0.2520833333333333
            },
            {
              "pitch": 48,
              "velocity": 40,
              "position": 2.9895833333333335,
              "duration": 0.49166666666666664
            },
            {
              "pitch": 55,
              "velocity": 40,
              "position": 2.9895833333333335,
              "duration": 0.49166666666666664
            },
            {
              "pitch": 59,
              "velocity": 40,
              "position": 2.9895833333333335,
              "duration": 0.49166666666666664
            },
            {
              "pitch": 60,
              "velocity": 38,
              "position": 3,
              "duration": 0.49166666666666664
            },
            {
              "pitch": 64,
              "velocity": 41,
              "position": 3,
              "duration": 0.49166666666666664
            },
            {
              "pitch": 67,
              "velocity": 39,
              "position": 3,
              "duration": 0.5020833333333333
            },
            {
              "pitch": 71,
              "velocity": 39,
              "position": 3,
              "duration": 0.5020833333333333
            },
            {
              "pitch": 48,
              "velocity": 48,
              "position": 3.4895833333333335,
              "duration": 0.5020833333333333
            },
            {
              "pitch": 55,
              "velocity": 48,
              "position": 3.4895833333333335,
              "duration": 0.5020833333333333
            },
            {
              "pitch": 59,
              "velocity": 48,
              "position": 3.4895833333333335,
              "duration": 0.5020833333333333
            },
            {
              "pitch": 60,
              "velocity": 48,
              "position": 3.5,
              "duration": 0.49166666666666664
            },
            {
              "pitch": 64,
              "velocity": 47,
              "position": 3.5,
              "duration": 0.49166666666666664
            },
            {
              "pitch": 67,
              "velocity": 48,
              "position": 3.5104166666666665,
              "duration": 0.48125
            },
            {
              "pitch": 71,
              "velocity": 48,
              "position": 3.5104166666666665,
              "duration": 0.48125
            }
          ]
        },
        "14": {
          "ctab": {
            "srcChannel": 14,
            "name": "Gt_Ba",
            "accType": "PHRASE1",
            "editable": false,
            "mutedNotes": [],
            "mutedChords": [],
            "autoStart": false,
            "sourceChordNote": 0,
            "sourceChordType": "Maj7",
            "ctb2Low": null,
            "ctb2Main": {
              "ntr": "ROOT_TRANSPOSITION",
              "ntt": "MELODY",
              "bassOn": true,
              "chordRootUpperLimit": 8,
              "noteLowLimit": 40,
              "noteHighLimit": 52,
              "rtr": "PITCH_SHIFT_TO_ROOT"
            },
            "ctb2High": null
          },
          "notes": [
            {
              "pitch": 48,
              "velocity": 80,
              "position": 0,
              "duration": 1.4791666666666667
            },
            {
              "pitch": 43,
              "velocity": 72,
              "position": 1.5,
              "duration": 0.4895833333333333
            },
            {
              "pitch": 48,
              "velocity": 80,
              "position": 2,
              "duration": 0.96875
            },
            {
              "pitch": 43,
              "velocity": 75,
              "position": 3,
              "duration": 0.9791666666666666
            }
          ]
        },
        "15": {
          "ctab": {
            "srcChannel": 15,
            "name": "Gt_Arp",
            "accType": "PHRASE2",
            "editable": false,
            "mutedNotes": [],
            "mutedChords": [],
            "autoStart": false,
            "sourceChordNote": 0,
            "sourceChordType": "Maj7",
            "ctb2Low": null,
            "ctb2Main": {
              "ntr": "ROOT_TRANSPOSITION",
              "ntt": "CHORD",
              "bassOn": false,
              "chordRootUpperLimit": 8,
              "noteLowLimit": 0,
              "noteHighLimit": 127,
              "rtr": "PITCH_SHIFT"
            },
            "ctb2High": null
          },
          "notes": [
            {
              "pitch": 55,
              "velocity": 54,
              "position": 0.5,
              "duration": 0.4895833333333333
            },
            {
              "pitch": 59,
              "velocity": 54,
              "position": 0.5,
              "duration": 0.4895833333333333
            },
            {
              "pitch": 52,
              "velocity": 64,
              "position": 0.25,
              "duration": 0.9895833333333334
            },
            {
              "pitch": 52,
              "velocity": 70,
              "position": 1.25,
              "duration": 0.4895833333333333
            },
            {
              "pitch": 55,
              "velocity": 65,
              "position": 1,
              "duration": 0.7395833333333334
            },
            {
              "pitch": 59,
              "velocity": 65,
              "position": 1,
              "duration": 0.7395833333333334
            },
            {
              "pitch": 60,
              "velocity": 83,
              "position": 0.75,
              "duration": 0.9895833333333334
            },
            {
              "pitch": 64,
              "velocity": 72,
              "position": 1.75,
              "duration": 0.9895833333333334
            },
            {
              "pitch": 52,
              "velocity": 78,
              "position": 2.25,
              "duration": 0.7395833333333334
            },
            {
              "pitch": 55,
              "velocity": 76,
              "position": 2.5,
              "duration": 0.4895833333333333
            },
            {
              "pitch": 59,
              "velocity": 76,
              "position": 2.5,
              "duration": 0.4895833333333333
            },
            {
              "pitch": 55,
              "velocity": 83,
              "position": 3,
              "duration": 0.7395833333333334
            },
            {
              "pitch": 59,
              "velocity": 83,
              "position": 3,
              "duration": 0.7395833333333334
            },
            {
              "pitch": 52,
              "velocity": 90,
              "position": 3.5,
              "duration": 0.4895833333333333
            },
            {
              "pitch": 55,
              "velocity": 75,
              "position": 3.75,
              "duration": 0.23958333333333334
            },
            {
              "pitch": 59,
              "velocity": 75,
              "position": 3.75,
              "duration": 0.23958333333333334
            },
            {
              "pitch": 60,
              "velocity": 86,
              "position": 3.25,
              "duration": 0.7395833333333334
            },
            {
              "pitch": 64,
              "velocity": 76,
              "position": 2.75,
              "duration": 1.2395833333333333
            }
          ]
        }
      }
    },
    "Fill_In_BB": {
      "type": "Fill_In_BB",
      "sizeInBeats": 4,
      "channels": {
        "8": {
          "ctab": {
            "srcChannel": 8,
            "name": "AddDrum",
            "accType": "SUBRHYTHM",
            "editable": false,
            "mutedNotes": [],
            "mutedChords": [],
            "autoStart": true,
            "sourceChordNote": 0,
            "sourceChordType": "Maj7",
            "ctb2Low": null,
            "ctb2Main": {
              "ntr": "ROOT_FIXED",
              "ntt": "BYPASS",
              "bassOn": false,
              "chordRootUpperLimit": 6,
              "noteLowLimit": 0,
              "noteHighLimit": 127,
              "rtr": "PITCH_SHIFT"
            },
            "ctb2High": null
          },
          "notes": [
            {
              "pitch": 70,
              "velocity": 60,
              "position": 0,
              "duration": 0.07291666666666667
            },
            {
              "pitch": 63,
              "velocity": 93,
              "position": 0,
              "duration": 0.08333333333333333
            },
            {
              "pitch": 69,
              "velocity": 60,
              "position": 0.25,
              "duration": 0.07291666666666667
            },
            {
              "pitch": 63,
              "velocity": 55,
              "position": 0.25,
              "duration": 0.08333333333333333
            },
            {
              "pitch": 54,
              "velocity": 71,
              "position": 0.5,
              "duration": 0.052083333333333336
            },
            {
              "pitch": 70,
              "velocity": 96,
              "position": 0.5,
              "duration": 0.07291666666666667
            },
            {
              "pitch": 64,
              "velocity": 38,
              "position": 0.5,
              "duration": 0.08333333333333333
            },
            {
              "pitch": 54,
              "velocity": 54,
              "position": 0.75,
              "duration": 0.052083333333333336
            },
            {
              "pitch": 70,
              "velocity": 42,
              "position": 0.75,
              "duration": 0.07291666666666667
            },
            {
              "pitch": 64,
              "velocity": 68,
              "position": 0.75,
              "duration": 0.08333333333333333
            },
            {
              "pitch": 70,
              "velocity": 60,
              "position": 1,
              "duration": 0.07291666666666667
            },
            {
              "pitch": 54,
              "velocity": 71,
              "position": 1.5,
              "duration": 0.052083333333333336
            },
            {
              "pitch": 70,
              "velocity": 102,
              "position": 1.5,
              "duration": 0.07291666666666667
            },
            {
              "pitch": 62,
              "velocity": 116,
              "position": 1.5,
              "duration": 0.08333333333333333
            },
            {
              "pitch": 62,
              "velocity": 78,
              "position": 1.625,
              "duration": 0.08333333333333333
            },
            {
              "pitch": 70,
              "velocity": 54,
              "position": 1.75,
              "duration": 0.07291666666666667
            },
            {
              "pitch": 62,
              "velocity": 39,
              "position": 1.75,
              "duration": 0.08333333333333333
            },
            {
              "pitch": 62,
              "velocity": 48,
              "position": 1.875,
              "duration": 0.08333333333333333
            },
            {
              "pitch": 54,
              "velocity": 71,
              "position": 2,
              "duration": 0.052083333333333336
            },
            {
              "pitch": 70,
              "velocity": 60,
              "position": 2,
              "duration": 0.07291666666666667
            },
            {
              "pitch": 63,
              "velocity": 112,
              "position": 2,
              "duration": 0.08333333333333333
            },
            {
              "pitch": 69,
              "velocity": 60,
              "position": 2.25,
              "duration": 0.07291666666666667
            },
            {
              "pitch": 63,
              "velocity": 55,
              "position": 2.25,
              "duration": 0.08333333333333333
            },
            {
              "pitch": 54,
              "velocity": 71,
              "position": 2.5,
              "duration": 0.052083333333333336
            },
            {
              "pitch": 70,
              "velocity": 103,
              "position": 2.5,
              "duration": 0.07291666666666667
            },
            {
              "pitch": 64,
              "velocity": 44,
              "position": 2.5,
              "duration": 0.08333333333333333
            },
            {
              "pitch": 54,
              "velocity": 57,
              "position": 2.75,
              "duration": 0.052083333333333336
            },
            {
              "pitch": 70,
              "velocity": 45,
              "position": 2.75,
              "duration": 0.07291666666666667
            },
            {
              "pitch": 64,
              "velocity": 75,
              "position": 2.75,
              "duration": 0.08333333333333333
            },
            {
              "pitch": 54,
              "velocity": 71,
              "position": 3,
              "duration": 0.052083333333333336
            },
            {
              "pitch": 70,
              "velocity": 60,
              "position": 3,
              "duration": 0.07291666666666667
            },
            {
              "pitch": 63,
              "velocity": 92,
              "position": 3,
              "duration": 0.08333333333333333
            },
            {
              "pitch": 62,
              "velocity": 45,
              "position": 3.25,
              "duration": 0.08333333333333333
            },
            {
              "pitch": 54,
              "velocity": 71,
              "position": 3.5,
              "duration": 0.052083333333333336
            },
            {
              "pitch": 70,
              "velocity": 97,
              "position": 3.5,
              "duration": 0.07291666666666667
            },
            {
              "pitch": 62,
              "velocity": 116,
              "position": 3.5,
              "duration": 0.08333333333333333
            },
            {
              "pitch": 70,
              "velocity": 52,
              "position": 3.75,
              "duration": 0.07291666666666667
            },
            {
              "pitch": 62,
              "velocity": 66,
              "position": 3.75,
              "duration": 0.08333333333333333
            }
          ]
        },
        "9": {
          "ctab": {
            "srcChannel": 9,
            "name": "MainDrum",
            "accType": "RHYTHM",
            "editable": false,
            "mutedNotes": [],
            "mutedChords": [],
            "autoStart": true,
            "sourceChordNote": 0,
            "sourceChordType": "Maj7",
            "ctb2Low": null,
            "ctb2Main": {
              "ntr": "ROOT_FIXED",
              "ntt": "BYPASS",
              "bassOn": false,
              "chordRootUpperLimit": 6,
              "noteLowLimit": 0,
              "noteHighLimit": 127,
              "rtr": "PITCH_SHIFT"
            },
            "ctb2High": null
          },
          "notes": [
            {
              "pitch": 36,
              "velocity": 82,
              "position": 0,
              "duration": 0.052083333333333336
            },
            {
              "pitch": 42,
              "velocity": 44,
              "position": 0,
              "duration": 0.052083333333333336
            },
            {
              "pitch": 40,
              "velocity": 54,
              "position": 0.2604166666666667,
              "duration": 0.052083333333333336
            },
            {
              "pitch": 46,
              "velocity": 72,
              "position": 0.5,
              "duration": 0.052083333333333336
            },
            {
              "pitch": 36,
              "velocity": 52,
              "position": 0.7604166666666666,
              "duration": 0.052083333333333336
            },
            {
              "pitch": 36,
              "velocity": 82,
              "position": 1,
              "duration": 0.052083333333333336
            },
            {
              "pitch": 42,
              "velocity": 63,
              "position": 1,
              "duration": 0.052083333333333336
            },
            {
              "pitch": 40,
              "velocity": 89,
              "position": 1.2604166666666667,
              "duration": 0.052083333333333336
            },
            {
              "pitch": 42,
              "velocity": 60,
              "position": 1.2604166666666667,
              "duration": 0.052083333333333336
            },
            {
              "pitch": 46,
              "velocity": 72,
              "position": 1.5,
              "duration": 0.052083333333333336
            },
            {
              "pitch": 40,
              "velocity": 71,
              "position": 1.7604166666666667,
              "duration": 0.052083333333333336
            },
            {
              "pitch": 36,
              "velocity": 82,
              "position": 2,
              "duration": 0.052083333333333336
            },
            {
              "pitch": 57,
              "velocity": 80,
              "position": 2,
              "duration": 0.052083333333333336
            },
            {
              "pitch": 44,
              "velocity": 67,
              "position": 2.5,
              "duration": 0.052083333333333336
            },
            {
              "pitch": 36,
              "velocity": 82,
              "position": 2.7604166666666665,
              "duration": 0.052083333333333336
            },
            {
              "pitch": 40,
              "velocity": 60,
              "position": 2.875,
              "duration": 0.052083333333333336
            },
            {
              "pitch": 40,
              "velocity": 102,
              "position": 3,
              "duration": 0.052083333333333336
            },
            {
              "pitch": 40,
              "velocity": 67,
              "position": 3.2604166666666665,
              "duration": 0.052083333333333336
            },
            {
              "pitch": 36,
              "velocity": 82,
              "position": 3.5,
              "duration": 0.052083333333333336
            },
            {
              "pitch": 44,
              "velocity": 67,
              "position": 3.5,
              "duration": 0.052083333333333336
            },
            {
              "pitch": 43,
              "velocity": 95,
              "position": 3.7604166666666665,
              "duration": 0.052083333333333336
            },
            {
              "pitch": 49,
              "velocity": 80,
              "position": 3.9895833333333335,
              "duration": 0.010416666666666666
            }
          ]
        },
        "10": {
          "ctab": {
            "srcChannel": 10,
            "name": "Bass",
            "accType": "BASS",
            "editable": false,
            "mutedNotes": [],
            "mutedChords": [],
            "autoStart": false,
            "sourceChordNote": 0,
            "sourceChordType": "Maj7",
            "ctb2Low": null,
            "ctb2Main": {
              "ntr": "ROOT_TRANSPOSITION",
              "ntt": "MELODY",
              "bassOn": true,
              "chordRootUpperLimit": 8,
              "noteLowLimit": 28,
              "noteHighLimit": 127,
              "rtr": "PITCH_SHIFT_TO_ROOT"
            },
            "ctb2High": null
          },
          "notes": [
            {
              "pitch": 24,
              "velocity": 60,
              "position": 0,
              "duration": 1.4895833333333333
            },
            {
              "pitch": 31,
              "velocity": 60,
              "position": 1.5,
              "duration": 0.4895833333333333
            },
            {
              "pitch": 24,
              "velocity": 60,
              "position": 2,
              "duration": 0.7395833333333334
            },
            {
              "pitch": 31,
              "velocity": 60,
              "position": 2.7604166666666665,
              "duration": 0.7291666666666666
            },
            {
              "pitch": 31,
              "velocity": 60,
              "position": 3.5,
              "duration": 0.4895833333333333
            }
          ]
        },
        "11": {
          "ctab": {
            "srcChannel": 11,
            "name": "Gt_Stk",
            "accType": "CHORD1",
            "editable": false,
            "mutedNotes": [],
            "mutedChords": [],
            "autoStart": false,
            "sourceChordNote": 0,
            "sourceChordType": "Maj7",
            "ctb2Low": null,
            "ctb2Main": {
              "ntr": "ROOT_TRANSPOSITION",
              "ntt": "MELODY",
              "bassOn": true,
              "chordRootUpperLimit": 7,
              "noteLowLimit": 0,
              "noteHighLimit": 127,
              "rtr": "PITCH_SHIFT"
            },
            "ctb2High": null
          },
          "notes": [
            {
              "pitch": 60,
              "velocity": 46,
              "position": 0.010416666666666666,
              "duration": 0.48125
            },
            {
              "pitch": 64,
              "velocity": 49,
              "position": 0,
              "duration": 0.49166666666666664
            },
            {
              "pitch": 67,
              "velocity": 41,
              "position": 0,
              "duration": 0.5020833333333333
            },
            {
              "pitch": 71,
              "velocity": 41,
              "position": 0,
              "duration": 0.5020833333333333
            },
            {
              "pitch": 67,
              "velocity": 42,
              "position": 0.5104166666666666,
              "duration": 0.22083333333333333
            },
            {
              "pitch": 71,
              "velocity": 42,
              "position": 0.5104166666666666,
              "duration": 0.22083333333333333
            },
            {
              "pitch": 60,
              "velocity": 41,
              "position": 0.5,
              "duration": 0.24166666666666667
            },
            {
              "pitch": 64,
              "velocity": 43,
              "position": 0.5,
              "duration": 0.24166666666666667
            },
            {
              "pitch": 48,
              "velocity": 50,
              "position": 0,
              "duration": 0.7520833333333333
            },
            {
              "pitch": 55,
              "velocity": 50,
              "position": 0,
              "duration": 0.7520833333333333
            },
            {
              "pitch": 59,
              "velocity": 50,
              "position": 0,
              "duration": 0.7520833333333333
            },
            {
              "pitch": 64,
              "velocity": 49,
              "position": 0.75,
              "duration": 0.49166666666666664
            },
            {
              "pitch": 67,
              "velocity": 50,
              "position": 0.7395833333333334,
              "duration": 0.5020833333333333
            },
            {
              "pitch": 71,
              "velocity": 50,
              "position": 0.7395833333333334,
              "duration": 0.5020833333333333
            },
            {
              "pitch": 48,
              "velocity": 50,
              "position": 0.7604166666666666,
              "duration": 0.7208333333333333
            },
            {
              "pitch": 55,
              "velocity": 50,
              "position": 0.7604166666666666,
              "duration": 0.7208333333333333
            },
            {
              "pitch": 59,
              "velocity": 50,
              "position": 0.7604166666666666,
              "duration": 0.7208333333333333
            },
            {
              "pitch": 60,
              "velocity": 50,
              "position": 0.75,
              "duration": 0.7416666666666667
            },
            {
              "pitch": 64,
              "velocity": 31,
              "position": 1.25,
              "duration": 0.24166666666666667
            },
            {
              "pitch": 67,
              "velocity": 37,
              "position": 1.25,
              "duration": 0.2520833333333333
            },
            {
              "pitch": 71,
              "velocity": 37,
              "position": 1.25,
              "duration": 0.2520833333333333
            },
            {
              "pitch": 67,
              "velocity": 44,
              "position": 1.5104166666666667,
              "duration": 0.22083333333333333
            },
            {
              "pitch": 71,
              "velocity": 44,
              "position": 1.5104166666666667,
              "duration": 0.22083333333333333
            },
            {
              "pitch": 60,
              "velocity": 44,
              "position": 1.5,
              "duration": 0.24166666666666667
            },
            {
              "pitch": 64,
              "velocity": 43,
              "position": 1.5,
              "duration": 0.24166666666666667
            },
            {
              "pitch": 48,
              "velocity": 44,
              "position": 1.4895833333333333,
              "duration": 0.49166666666666664
            },
            {
              "pitch": 55,
              "velocity": 44,
              "position": 1.4895833333333333,
              "duration": 0.49166666666666664
            },
            {
              "pitch": 59,
              "velocity": 44,
              "position": 1.4895833333333333,
              "duration": 0.49166666666666664
            },
            {
              "pitch": 60,
              "velocity": 44,
              "position": 1.75,
              "duration": 0.24166666666666667
            },
            {
              "pitch": 64,
              "velocity": 36,
              "position": 1.75,
              "duration": 0.24166666666666667
            },
            {
              "pitch": 67,
              "velocity": 36,
              "position": 1.7395833333333333,
              "duration": 0.2625
            },
            {
              "pitch": 71,
              "velocity": 36,
              "position": 1.7395833333333333,
              "duration": 0.2625
            },
            {
              "pitch": 48,
              "velocity": 50,
              "position": 1.9895833333333333,
              "duration": 0.49166666666666664
            },
            {
              "pitch": 55,
              "velocity": 50,
              "position": 1.9895833333333333,
              "duration": 0.49166666666666664
            },
            {
              "pitch": 59,
              "velocity": 50,
              "position": 1.9895833333333333,
              "duration": 0.49166666666666664
            },
            {
              "pitch": 60,
              "velocity": 50,
              "position": 2,
              "duration": 0.49166666666666664
            },
            {
              "pitch": 64,
              "velocity": 49,
              "position": 2,
              "duration": 0.49166666666666664
            },
            {
              "pitch": 67,
              "velocity": 50,
              "position": 2.0104166666666665,
              "duration": 0.7208333333333333
            },
            {
              "pitch": 71,
              "velocity": 50,
              "position": 2.0104166666666665,
              "duration": 0.7208333333333333
            },
            {
              "pitch": 60,
              "velocity": 35,
              "position": 2.5,
              "duration": 0.24166666666666667
            },
            {
              "pitch": 48,
              "velocity": 41,
              "position": 2.4895833333333335,
              "duration": 0.2625
            },
            {
              "pitch": 55,
              "velocity": 41,
              "position": 2.4895833333333335,
              "duration": 0.2625
            },
            {
              "pitch": 59,
              "velocity": 41,
              "position": 2.4895833333333335,
              "duration": 0.2625
            },
            {
              "pitch": 64,
              "velocity": 42,
              "position": 2.5,
              "duration": 0.49166666666666664
            },
            {
              "pitch": 67,
              "velocity": 50,
              "position": 2.7395833333333335,
              "duration": 0.49166666666666664
            },
            {
              "pitch": 71,
              "velocity": 50,
              "position": 2.7395833333333335,
              "duration": 0.49166666666666664
            },
            {
              "pitch": 60,
              "velocity": 50,
              "position": 2.75,
              "duration": 0.49166666666666664
            },
            {
              "pitch": 48,
              "velocity": 50,
              "position": 2.7604166666666665,
              "duration": 0.49166666666666664
            },
            {
              "pitch": 55,
              "velocity": 50,
              "position": 2.7604166666666665,
              "duration": 0.49166666666666664
            },
            {
              "pitch": 59,
              "velocity": 50,
              "position": 2.7604166666666665,
              "duration": 0.49166666666666664
            },
            {
              "pitch": 48,
              "velocity": 32,
              "position": 3.2604166666666665,
              "duration": 0.22083333333333333
            },
            {
              "pitch": 55,
              "velocity": 32,
              "position": 3.2604166666666665,
              "duration": 0.22083333333333333
            },
            {
              "pitch": 59,
              "velocity": 32,
              "position": 3.2604166666666665,
              "duration": 0.22083333333333333
            },
            {
              "pitch": 60,
              "velocity": 41,
              "position": 3.25,
              "duration": 0.24166666666666667
            },
            {
              "pitch": 64,
              "velocity": 49,
              "position": 3,
              "duration": 0.49166666666666664
            },
            {
              "pitch": 67,
              "velocity": 41,
              "position": 3.2395833333333335,
              "duration": 0.2625
            },
            {
              "pitch": 71,
              "velocity": 41,
              "position": 3.2395833333333335,
              "duration": 0.2625
            },
            {
              "pitch": 67,
              "velocity": 44,
              "position": 3.5104166666666665,
              "duration": 0.22083333333333333
            },
            {
              "pitch": 71,
              "velocity": 44,
              "position": 3.5104166666666665,
              "duration": 0.22083333333333333
            },
            {
              "pitch": 60,
              "velocity": 44,
              "position": 3.5,
              "duration": 0.24166666666666667
            },
            {
              "pitch": 64,
              "velocity": 43,
              "position": 3.5,
              "duration": 0.24166666666666667
            },
            {
              "pitch": 48,
              "velocity": 44,
              "position": 3.4895833333333335,
              "duration": 0.49166666666666664
            },
            {
              "pitch": 55,
              "velocity": 44,
              "position": 3.4895833333333335,
              "duration": 0.49166666666666664
            },
            {
              "pitch": 59,
              "velocity": 44,
              "position": 3.4895833333333335,
              "duration": 0.49166666666666664
            },
            {
              "pitch": 60,
              "velocity": 34,
              "position": 3.75,
              "duration": 0.24166666666666667
            },
            {
              "pitch": 64,
              "velocity": 36,
              "position": 3.75,
              "duration": 0.24166666666666667
            },
            {
              "pitch": 67,
              "velocity": 40,
              "position": 3.7395833333333335,
              "duration": 0.2520833333333333
            },
            {
              "pitch": 71,
              "velocity": 40,
              "position": 3.7395833333333335,
              "duration": 0.2520833333333333
            }
          ]
        },
        "14": {
          "ctab": {
            "srcChannel": 14,
            "name": "Gt_Ba",
            "accType": "PHRASE1",
            "editable": false,
            "mutedNotes": [],
            "mutedChords": [],
            "autoStart": false,
            "sourceChordNote": 0,
            "sourceChordType": "Maj7",
            "ctb2Low": null,
            "ctb2Main": {
              "ntr": "ROOT_TRANSPOSITION",
              "ntt": "MELODY",
              "bassOn": true,
              "chordRootUpperLimit": 8,
              "noteLowLimit": 40,
              "noteHighLimit": 52,
              "rtr": "PITCH_SHIFT_TO_ROOT"
            },
            "ctb2High": null
          },
          "notes": [
            {
              "pitch": 48,
              "velocity": 80,
              "position": 0,
              "duration": 1.4791666666666667
            },
            {
              "pitch": 55,
              "velocity": 72,
              "position": 1.5,
              "duration": 0.4895833333333333
            },
            {
              "pitch": 48,
              "velocity": 80,
              "position": 2,
              "duration": 0.71875
            },
            {
              "pitch": 43,
              "velocity": 81,
              "position": 2.75,
              "duration": 0.7291666666666666
            },
            {
              "pitch": 43,
              "velocity": 81,
              "position": 3.5,
              "duration": 0.4791666666666667
            }
          ]
        },
        "15": {
          "ctab": {
            "srcChannel": 15,
            "name": "Gt_Arp",
            "accType": "PHRASE2",
            "editable": false,
            "mutedNotes": [],
            "mutedChords": [],
            "autoStart": false,
            "sourceChordNote": 0,
            "sourceChordType": "Maj7",
            "ctb2Low": null,
            "ctb2Main": {
              "ntr": "ROOT_TRANSPOSITION",
              "ntt": "CHORD",
              "bassOn": false,
              "chordRootUpperLimit": 8,
              "noteLowLimit": 0,
              "noteHighLimit": 127,
              "rtr": "PITCH_SHIFT"
            },
            "ctb2High": null
          },
          "notes": [
            {
              "pitch": 55,
              "velocity": 69,
              "position": 0.5,
              "duration": 0.46875
            },
            {
              "pitch": 59,
              "velocity": 69,
              "position": 0.5,
              "duration": 0.46875
            },
            {
              "pitch": 64,
              "velocity": 70,
              "position": 0,
              "duration": 1.2395833333333333
            },
            {
              "pitch": 52,
              "velocity": 62,
              "position": 0.25,
              "duration": 1.2395833333333333
            },
            {
              "pitch": 60,
              "velocity": 69,
              "position": 0.75,
              "duration": 0.9895833333333334
            },
            {
              "pitch": 55,
              "velocity": 83,
              "position": 1,
              "duration": 0.9583333333333334
            },
            {
              "pitch": 59,
              "velocity": 83,
              "position": 1,
              "duration": 0.9583333333333334
            },
            {
              "pitch": 60,
              "velocity": 69,
              "position": 1.75,
              "duration": 0.23958333333333334
            },
            {
              "pitch": 64,
              "velocity": 69,
              "position": 1.25,
              "duration": 0.7395833333333334
            },
            {
              "pitch": 52,
              "velocity": 63,
              "position": 1.5,
              "duration": 0.9895833333333334
            },
            {
              "pitch": 60,
              "velocity": 72,
              "position": 2.0208333333333335,
              "duration": 0.71875
            },
            {
              "pitch": 64,
              "velocity": 72,
              "position": 2.0416666666666665,
              "duration": 0.6979166666666666
            },
            {
              "pitch": 52,
              "velocity": 54,
              "position": 2.5,
              "duration": 0.4895833333333333
            },
            {
              "pitch": 60,
              "velocity": 83,
              "position": 2.75,
              "duration": 0.4895833333333333
            },
            {
              "pitch": 55,
              "velocity": 72,
              "position": 2,
              "duration": 1.4583333333333333
            },
            {
              "pitch": 59,
              "velocity": 72,
              "position": 2,
              "duration": 1.4583333333333333
            },
            {
              "pitch": 52,
              "velocity": 74,
              "position": 3,
              "duration": 0.7395833333333334
            },
            {
              "pitch": 64,
              "velocity": 81,
              "position": 2.7708333333333335,
              "duration": 1.2083333333333333
            },
            {
              "pitch": 52,
              "velocity": 65,
              "position": 3.75,
              "duration": 0.23958333333333334
            },
            {
              "pitch": 55,
              "velocity": 75,
              "position": 3.5,
              "duration": 0.4895833333333333
            },
            {
              "pitch": 59,
              "velocity": 75,
              "position": 3.5,
              "duration": 0.4895833333333333
            },
            {
              "pitch": 60,
              "velocity": 60,
              "position": 3.25,
              "duration": 0.7395833333333334
            }
          ]
        }
      }
    },
    "Fill_In_CC": {
      "type": "Fill_In_CC",
      "sizeInBeats": 4,
      "channels": {
        "8": {
          "ctab": {
            "srcChannel": 8,
            "name": "AddDrum",
            "accType": "SUBRHYTHM",
            "editable": false,
            "mutedNotes": [],
            "mutedChords": [],
            "autoStart": true,
            "sourceChordNote": 0,
            "sourceChordType": "Maj7",
            "ctb2Low": null,
            "ctb2Main": {
              "ntr": "ROOT_FIXED",
              "ntt": "BYPASS",
              "bassOn": false,
              "chordRootUpperLimit": 6,
              "noteLowLimit": 0,
              "noteHighLimit": 127,
              "rtr": "PITCH_SHIFT"
            },
            "ctb2High": null
          },
          "notes": [
            {
              "pitch": 54,
              "velocity": 51,
              "position": 0,
              "duration": 0.052083333333333336
            },
            {
              "pitch": 70,
              "velocity": 60,
              "position": 0,
              "duration": 0.07291666666666667
            },
            {
              "pitch": 62,
              "velocity": 66,
              "position": 0,
              "duration": 0.08333333333333333
            },
            {
              "pitch": 69,
              "velocity": 60,
              "position": 0.25,
              "duration": 0.07291666666666667
            },
            {
              "pitch": 63,
              "velocity": 93,
              "position": 0.25,
              "duration": 0.08333333333333333
            },
            {
              "pitch": 54,
              "velocity": 71,
              "position": 0.5,
              "duration": 0.052083333333333336
            },
            {
              "pitch": 70,
              "velocity": 96,
              "position": 0.5,
              "duration": 0.07291666666666667
            },
            {
              "pitch": 63,
              "velocity": 55,
              "position": 0.5,
              "duration": 0.08333333333333333
            },
            {
              "pitch": 54,
              "velocity": 59,
              "position": 0.75,
              "duration": 0.052083333333333336
            },
            {
              "pitch": 70,
              "velocity": 42,
              "position": 0.75,
              "duration": 0.07291666666666667
            },
            {
              "pitch": 64,
              "velocity": 44,
              "position": 0.75,
              "duration": 0.08333333333333333
            },
            {
              "pitch": 54,
              "velocity": 51,
              "position": 1,
              "duration": 0.052083333333333336
            },
            {
              "pitch": 70,
              "velocity": 60,
              "position": 1,
              "duration": 0.07291666666666667
            },
            {
              "pitch": 63,
              "velocity": 127,
              "position": 1,
              "duration": 0.08333333333333333
            },
            {
              "pitch": 54,
              "velocity": 71,
              "position": 1.5,
              "duration": 0.052083333333333336
            },
            {
              "pitch": 70,
              "velocity": 102,
              "position": 1.5,
              "duration": 0.07291666666666667
            },
            {
              "pitch": 62,
              "velocity": 61,
              "position": 1.5,
              "duration": 0.08333333333333333
            },
            {
              "pitch": 62,
              "velocity": 57,
              "position": 1.625,
              "duration": 0.08333333333333333
            },
            {
              "pitch": 70,
              "velocity": 54,
              "position": 1.75,
              "duration": 0.07291666666666667
            },
            {
              "pitch": 62,
              "velocity": 116,
              "position": 1.75,
              "duration": 0.08333333333333333
            },
            {
              "pitch": 62,
              "velocity": 91,
              "position": 1.875,
              "duration": 0.08333333333333333
            },
            {
              "pitch": 54,
              "velocity": 51,
              "position": 2,
              "duration": 0.052083333333333336
            },
            {
              "pitch": 70,
              "velocity": 60,
              "position": 2,
              "duration": 0.07291666666666667
            },
            {
              "pitch": 62,
              "velocity": 127,
              "position": 2,
              "duration": 0.08333333333333333
            },
            {
              "pitch": 69,
              "velocity": 60,
              "position": 2.25,
              "duration": 0.07291666666666667
            },
            {
              "pitch": 63,
              "velocity": 92,
              "position": 2.25,
              "duration": 0.08333333333333333
            },
            {
              "pitch": 54,
              "velocity": 71,
              "position": 2.5,
              "duration": 0.052083333333333336
            },
            {
              "pitch": 70,
              "velocity": 103,
              "position": 2.5,
              "duration": 0.07291666666666667
            },
            {
              "pitch": 63,
              "velocity": 53,
              "position": 2.5,
              "duration": 0.08333333333333333
            },
            {
              "pitch": 54,
              "velocity": 59,
              "position": 2.75,
              "duration": 0.052083333333333336
            },
            {
              "pitch": 70,
              "velocity": 45,
              "position": 2.75,
              "duration": 0.07291666666666667
            },
            {
              "pitch": 64,
              "velocity": 45,
              "position": 2.75,
              "duration": 0.08333333333333333
            },
            {
              "pitch": 66,
              "velocity": 72,
              "position": 2.75,
              "duration": 0.08333333333333333
            },
            {
              "pitch": 54,
              "velocity": 51,
              "position": 3,
              "duration": 0.052083333333333336
            },
            {
              "pitch": 70,
              "velocity": 60,
              "position": 3,
              "duration": 0.07291666666666667
            },
            {
              "pitch": 64,
              "velocity": 70,
              "position": 3,
              "duration": 0.08333333333333333
            },
            {
              "pitch": 66,
              "velocity": 114,
              "position": 3,
              "duration": 0.08333333333333333
            },
            {
              "pitch": 62,
              "velocity": 123,
              "position": 3.2708333333333335,
              "duration": 0.08333333333333333
            },
            {
              "pitch": 54,
              "velocity": 71,
              "position": 3.5,
              "duration": 0.052083333333333336
            },
            {
              "pitch": 70,
              "velocity": 97,
              "position": 3.5,
              "duration": 0.07291666666666667
            },
            {
              "pitch": 65,
              "velocity": 104,
              "position": 3.5,
              "duration": 0.08333333333333333
            },
            {
              "pitch": 66,
              "velocity": 105,
              "position": 3.5,
              "duration": 0.08333333333333333
            },
            {
              "pitch": 70,
              "velocity": 52,
              "position": 3.75,
              "duration": 0.07291666666666667
            },
            {
              "pitch": 62,
              "velocity": 115,
              "position": 3.75,
              "duration": 0.08333333333333333
            }
          ]
        },
        "9": {
          "ctab": {
            "srcChannel": 9,
            "name": "MainDrum",
            "accType": "RHYTHM",
            "editable": false,
            "mutedNotes": [],
            "mutedChords": [],
            "autoStart": true,
            "sourceChordNote": 0,
            "sourceChordType": "Maj7",
            "ctb2Low": null,
            "ctb2Main": {
              "ntr": "ROOT_FIXED",
              "ntt": "BYPASS",
              "bassOn": false,
              "chordRootUpperLimit": 6,
              "noteLowLimit": 0,
              "noteHighLimit": 127,
              "rtr": "PITCH_SHIFT"
            },
            "ctb2High": null
          },
          "notes": [
            {
              "pitch": 36,
              "velocity": 82,
              "position": 0,
              "duration": 0.052083333333333336
            },
            {
              "pitch": 42,
              "velocity": 76,
              "position": 0,
              "duration": 0.052083333333333336
            },
            {
              "pitch": 40,
              "velocity": 87,
              "position": 0.2604166666666667,
              "duration": 0.052083333333333336
            },
            {
              "pitch": 42,
              "velocity": 37,
              "position": 0.2604166666666667,
              "duration": 0.052083333333333336
            },
            {
              "pitch": 46,
              "velocity": 72,
              "position": 0.5,
              "duration": 0.052083333333333336
            },
            {
              "pitch": 36,
              "velocity": 52,
              "position": 0.7604166666666666,
              "duration": 0.052083333333333336
            },
            {
              "pitch": 42,
              "velocity": 54,
              "position": 0.7604166666666666,
              "duration": 0.052083333333333336
            },
            {
              "pitch": 36,
              "velocity": 82,
              "position": 1,
              "duration": 0.052083333333333336
            },
            {
              "pitch": 40,
              "velocity": 95,
              "position": 1,
              "duration": 0.052083333333333336
            },
            {
              "pitch": 40,
              "velocity": 65,
              "position": 1.2604166666666667,
              "duration": 0.052083333333333336
            },
            {
              "pitch": 42,
              "velocity": 32,
              "position": 1.2604166666666667,
              "duration": 0.052083333333333336
            },
            {
              "pitch": 46,
              "velocity": 72,
              "position": 1.5,
              "duration": 0.052083333333333336
            },
            {
              "pitch": 36,
              "velocity": 52,
              "position": 1.7604166666666667,
              "duration": 0.052083333333333336
            },
            {
              "pitch": 40,
              "velocity": 87,
              "position": 1.7604166666666667,
              "duration": 0.052083333333333336
            },
            {
              "pitch": 40,
              "velocity": 65,
              "position": 1.875,
              "duration": 0.052083333333333336
            },
            {
              "pitch": 36,
              "velocity": 82,
              "position": 2,
              "duration": 0.052083333333333336
            },
            {
              "pitch": 42,
              "velocity": 72,
              "position": 2,
              "duration": 0.052083333333333336
            },
            {
              "pitch": 40,
              "velocity": 100,
              "position": 2.2604166666666665,
              "duration": 0.052083333333333336
            },
            {
              "pitch": 42,
              "velocity": 25,
              "position": 2.2604166666666665,
              "duration": 0.052083333333333336
            },
            {
              "pitch": 40,
              "velocity": 54,
              "position": 2.5,
              "duration": 0.052083333333333336
            },
            {
              "pitch": 46,
              "velocity": 72,
              "position": 2.5,
              "duration": 0.052083333333333336
            },
            {
              "pitch": 36,
              "velocity": 72,
              "position": 2.7604166666666665,
              "duration": 0.052083333333333336
            },
            {
              "pitch": 42,
              "velocity": 54,
              "position": 2.7604166666666665,
              "duration": 0.052083333333333336
            },
            {
              "pitch": 40,
              "velocity": 102,
              "position": 3,
              "duration": 0.052083333333333336
            },
            {
              "pitch": 36,
              "velocity": 62,
              "position": 3.2604166666666665,
              "duration": 0.052083333333333336
            },
            {
              "pitch": 42,
              "velocity": 46,
              "position": 3.2604166666666665,
              "duration": 0.052083333333333336
            },
            {
              "pitch": 40,
              "velocity": 87,
              "position": 3.5,
              "duration": 0.052083333333333336
            },
            {
              "pitch": 46,
              "velocity": 72,
              "position": 3.5,
              "duration": 0.052083333333333336
            },
            {
              "pitch": 40,
              "velocity": 81,
              "position": 3.7604166666666665,
              "duration": 0.052083333333333336
            },
            {
              "pitch": 42,
              "velocity": 48,
              "position": 3.7604166666666665,
              "duration": 0.052083333333333336
            },
            {
              "pitch": 49,
              "velocity": 80,
              "position": 3.9895833333333335,
              "duration": 0.010416666666666666
            }
          ]
        },
        "10": {
          "ctab": {
            "srcChannel": 10,
            "name": "Bass",
            "accType": "BASS",
            "editable": false,
            "mutedNotes": [],
            "mutedChords": [],
            "autoStart": false,
            "sourceChordNote": 0,
            "sourceChordType": "Maj7",
            "ctb2Low": null,
            "ctb2Main": {
              "ntr": "ROOT_TRANSPOSITION",
              "ntt": "MELODY",
              "bassOn": true,
              "chordRootUpperLimit": 8,
              "noteLowLimit": 28,
              "noteHighLimit": 127,
              "rtr": "PITCH_SHIFT_TO_ROOT"
            },
            "ctb2High": null
          },
          "notes": [
            {
              "pitch": 24,
              "velocity": 60,
              "position": 0,
              "duration": 0.9895833333333334
            },
            {
              "pitch": 31,
              "velocity": 60,
              "position": 1,
              "duration": 0.4895833333333333
            },
            {
              "pitch": 31,
              "velocity": 60,
              "position": 1.7604166666666667,
              "duration": 0.22916666666666666
            },
            {
              "pitch": 24,
              "velocity": 60,
              "position": 2,
              "duration": 0.7395833333333334
            },
            {
              "pitch": 24,
              "velocity": 112,
              "position": 2.7604166666666665,
              "duration": 0.22916666666666666
            },
            {
              "pitch": 31,
              "velocity": 60,
              "position": 3,
              "duration": 0.4895833333333333
            },
            {
              "pitch": 31,
              "velocity": 60,
              "position": 3.5,
              "duration": 0.4895833333333333
            }
          ]
        },
        "11": {
          "ctab": {
            "srcChannel": 11,
            "name": "Gt_Stk",
            "accType": "CHORD1",
            "editable": false,
            "mutedNotes": [],
            "mutedChords": [],
            "autoStart": false,
            "sourceChordNote": 0,
            "sourceChordType": "Maj7",
            "ctb2Low": null,
            "ctb2Main": {
              "ntr": "ROOT_TRANSPOSITION",
              "ntt": "MELODY",
              "bassOn": true,
              "chordRootUpperLimit": 7,
              "noteLowLimit": 0,
              "noteHighLimit": 127,
              "rtr": "PITCH_SHIFT"
            },
            "ctb2High": null
          },
          "notes": [
            {
              "pitch": 48,
              "velocity": 49,
              "position": 0,
              "duration": 0.48125
            },
            {
              "pitch": 55,
              "velocity": 49,
              "position": 0,
              "duration": 0.48125
            },
            {
              "pitch": 59,
              "velocity": 49,
              "position": 0,
              "duration": 0.48125
            },
            {
              "pitch": 60,
              "velocity": 47,
              "position": 0.010416666666666666,
              "duration": 0.48125
            },
            {
              "pitch": 64,
              "velocity": 43,
              "position": 0,
              "duration": 0.49166666666666664
            },
            {
              "pitch": 67,
              "velocity": 41,
              "position": 0,
              "duration": 0.5020833333333333
            },
            {
              "pitch": 71,
              "velocity": 41,
              "position": 0,
              "duration": 0.5020833333333333
            },
            {
              "pitch": 48,
              "velocity": 49,
              "position": 0.4895833333333333,
              "duration": 0.49166666666666664
            },
            {
              "pitch": 55,
              "velocity": 49,
              "position": 0.4895833333333333,
              "duration": 0.49166666666666664
            },
            {
              "pitch": 59,
              "velocity": 49,
              "position": 0.4895833333333333,
              "duration": 0.49166666666666664
            },
            {
              "pitch": 60,
              "velocity": 48,
              "position": 0.5,
              "duration": 0.49166666666666664
            },
            {
              "pitch": 67,
              "velocity": 51,
              "position": 0.5104166666666666,
              "duration": 0.49166666666666664
            },
            {
              "pitch": 71,
              "velocity": 51,
              "position": 0.5104166666666666,
              "duration": 0.49166666666666664
            },
            {
              "pitch": 67,
              "velocity": 36,
              "position": 1.0104166666666667,
              "duration": 0.22083333333333333
            },
            {
              "pitch": 71,
              "velocity": 36,
              "position": 1.0104166666666667,
              "duration": 0.22083333333333333
            },
            {
              "pitch": 60,
              "velocity": 36,
              "position": 1,
              "duration": 0.24166666666666667
            },
            {
              "pitch": 64,
              "velocity": 49,
              "position": 0.5,
              "duration": 0.7416666666666667
            },
            {
              "pitch": 48,
              "velocity": 36,
              "position": 0.9895833333333334,
              "duration": 0.2625
            },
            {
              "pitch": 55,
              "velocity": 36,
              "position": 0.9895833333333334,
              "duration": 0.2625
            },
            {
              "pitch": 59,
              "velocity": 36,
              "position": 0.9895833333333334,
              "duration": 0.2625
            },
            {
              "pitch": 48,
              "velocity": 45,
              "position": 1.2604166666666667,
              "duration": 0.22083333333333333
            },
            {
              "pitch": 55,
              "velocity": 45,
              "position": 1.2604166666666667,
              "duration": 0.22083333333333333
            },
            {
              "pitch": 59,
              "velocity": 45,
              "position": 1.2604166666666667,
              "duration": 0.22083333333333333
            },
            {
              "pitch": 60,
              "velocity": 40,
              "position": 1.25,
              "duration": 0.24166666666666667
            },
            {
              "pitch": 64,
              "velocity": 35,
              "position": 1.25,
              "duration": 0.24166666666666667
            },
            {
              "pitch": 67,
              "velocity": 41,
              "position": 1.2395833333333333,
              "duration": 0.2625
            },
            {
              "pitch": 71,
              "velocity": 41,
              "position": 1.2395833333333333,
              "duration": 0.2625
            },
            {
              "pitch": 64,
              "velocity": 49,
              "position": 1.5,
              "duration": 0.24166666666666667
            },
            {
              "pitch": 48,
              "velocity": 50,
              "position": 1.4895833333333333,
              "duration": 0.2625
            },
            {
              "pitch": 55,
              "velocity": 50,
              "position": 1.4895833333333333,
              "duration": 0.2625
            },
            {
              "pitch": 59,
              "velocity": 50,
              "position": 1.4895833333333333,
              "duration": 0.2625
            },
            {
              "pitch": 48,
              "velocity": 40,
              "position": 1.7604166666666667,
              "duration": 0.22083333333333333
            },
            {
              "pitch": 55,
              "velocity": 40,
              "position": 1.7604166666666667,
              "duration": 0.22083333333333333
            },
            {
              "pitch": 59,
              "velocity": 40,
              "position": 1.7604166666666667,
              "duration": 0.22083333333333333
            },
            {
              "pitch": 60,
              "velocity": 50,
              "position": 1.5,
              "duration": 0.49166666666666664
            },
            {
              "pitch": 64,
              "velocity": 45,
              "position": 1.75,
              "duration": 0.24166666666666667
            },
            {
              "pitch": 67,
              "velocity": 50,
              "position": 1.5104166666666667,
              "duration": 0.49166666666666664
            },
            {
              "pitch": 71,
              "velocity": 50,
              "position": 1.5104166666666667,
              "duration": 0.49166666666666664
            },
            {
              "pitch": 48,
              "velocity": 53,
              "position": 1.9895833333333333,
              "duration": 0.49166666666666664
            },
            {
              "pitch": 55,
              "velocity": 53,
              "position": 1.9895833333333333,
              "duration": 0.49166666666666664
            },
            {
              "pitch": 59,
              "velocity": 53,
              "position": 1.9895833333333333,
              "duration": 0.49166666666666664
            },
            {
              "pitch": 60,
              "velocity": 48,
              "position": 2,
              "duration": 0.49166666666666664
            },
            {
              "pitch": 64,
              "velocity": 49,
              "position": 2,
              "duration": 0.49166666666666664
            },
            {
              "pitch": 67,
              "velocity": 44,
              "position": 2.0104166666666665,
              "duration": 0.49166666666666664
            },
            {
              "pitch": 71,
              "velocity": 44,
              "position": 2.0104166666666665,
              "duration": 0.49166666666666664
            },
            {
              "pitch": 64,
              "velocity": 37,
              "position": 2.5,
              "duration": 0.24166666666666667
            },
            {
              "pitch": 48,
              "velocity": 45,
              "position": 2.4895833333333335,
              "duration": 0.49166666666666664
            },
            {
              "pitch": 55,
              "velocity": 45,
              "position": 2.4895833333333335,
              "duration": 0.49166666666666664
            },
            {
              "pitch": 59,
              "velocity": 45,
              "position": 2.4895833333333335,
              "duration": 0.49166666666666664
            },
            {
              "pitch": 60,
              "velocity": 48,
              "position": 2.5,
              "duration": 0.49166666666666664
            },
            {
              "pitch": 67,
              "velocity": 51,
              "position": 2.5104166666666665,
              "duration": 0.49166666666666664
            },
            {
              "pitch": 71,
              "velocity": 51,
              "position": 2.5104166666666665,
              "duration": 0.49166666666666664
            },
            {
              "pitch": 67,
              "velocity": 36,
              "position": 3.0104166666666665,
              "duration": 0.22083333333333333
            },
            {
              "pitch": 71,
              "velocity": 36,
              "position": 3.0104166666666665,
              "duration": 0.22083333333333333
            },
            {
              "pitch": 60,
              "velocity": 36,
              "position": 3,
              "duration": 0.24166666666666667
            },
            {
              "pitch": 48,
              "velocity": 36,
              "position": 2.9895833333333335,
              "duration": 0.49166666666666664
            },
            {
              "pitch": 55,
              "velocity": 36,
              "position": 2.9895833333333335,
              "duration": 0.49166666666666664
            },
            {
              "pitch": 59,
              "velocity": 36,
              "position": 2.9895833333333335,
              "duration": 0.49166666666666664
            },
            {
              "pitch": 60,
              "velocity": 40,
              "position": 3.25,
              "duration": 0.24166666666666667
            },
            {
              "pitch": 64,
              "velocity": 49,
              "position": 2.75,
              "duration": 0.7416666666666667
            },
            {
              "pitch": 67,
              "velocity": 48,
              "position": 3.2395833333333335,
              "duration": 0.2625
            },
            {
              "pitch": 71,
              "velocity": 48,
              "position": 3.2395833333333335,
              "duration": 0.2625
            },
            {
              "pitch": 67,
              "velocity": 50,
              "position": 3.5104166666666665,
              "duration": 0.22083333333333333
            },
            {
              "pitch": 71,
              "velocity": 50,
              "position": 3.5104166666666665,
              "duration": 0.22083333333333333
            },
            {
              "pitch": 60,
              "velocity": 50,
              "position": 3.5,
              "duration": 0.24166666666666667
            },
            {
              "pitch": 64,
              "velocity": 49,
              "position": 3.5,
              "duration": 0.24166666666666667
            },
            {
              "pitch": 48,
              "velocity": 50,
              "position": 3.4895833333333335,
              "duration": 0.49166666666666664
            },
            {
              "pitch": 55,
              "velocity": 50,
              "position": 3.4895833333333335,
              "duration": 0.49166666666666664
            },
            {
              "pitch": 59,
              "velocity": 50,
              "position": 3.4895833333333335,
              "duration": 0.49166666666666664
            },
            {
              "pitch": 60,
              "velocity": 38,
              "position": 3.75,
              "duration": 0.24166666666666667
            },
            {
              "pitch": 64,
              "velocity": 41,
              "position": 3.75,
              "duration": 0.24166666666666667
            },
            {
              "pitch": 67,
              "velocity": 43,
              "position": 3.7395833333333335,
              "duration": 0.2520833333333333
            },
            {
              "pitch": 71,
              "velocity": 43,
              "position": 3.7395833333333335,
              "duration": 0.2520833333333333
            }
          ]
        },
        "14": {
          "ctab": {
            "srcChannel": 14,
            "name": "Gt_Ba",
            "accType": "PHRASE1",
            "editable": false,
            "mutedNotes": [],
            "mutedChords": [],
            "autoStart": false,
            "sourceChordNote": 0,
            "sourceChordType": "Maj7",
            "ctb2Low": null,
            "ctb2Main": {
              "ntr": "ROOT_TRANSPOSITION",
              "ntt": "MELODY",
              "bassOn": true,
              "chordRootUpperLimit": 8,
              "noteLowLimit": 40,
              "noteHighLimit": 52,
              "rtr": "PITCH_SHIFT_TO_ROOT"
            },
            "ctb2High": null
          },
          "notes": [
            {
              "pitch": 48,
              "velocity": 80,
              "position": 0,
              "duration": 0.96875
            },
            {
              "pitch": 43,
              "velocity": 80,
              "position": 1,
              "duration": 0.4791666666666667
            },
            {
              "pitch": 43,
              "velocity": 80,
              "position": 1.75,
              "duration": 0.22916666666666666
            },
            {
              "pitch": 48,
              "velocity": 80,
              "position": 2,
              "duration": 0.71875
            },
            {
              "pitch": 48,
              "velocity": 80,
              "position": 2.75,
              "duration": 0.22916666666666666
            },
            {
              "pitch": 43,
              "velocity": 75,
              "position": 3,
              "duration": 0.4791666666666667
            },
            {
              "pitch": 43,
              "velocity": 75,
              "position": 3.5,
              "duration": 0.4791666666666667
            }
          ]
        },
        "15": {
          "ctab": {
            "srcChannel": 15,
            "name": "Gt_Arp",
            "accType": "PHRASE2",
            "editable": false,
            "mutedNotes": [],
            "mutedChords": [],
            "autoStart": false,
            "sourceChordNote": 0,
            "sourceChordType": "Maj7",
            "ctb2Low": null,
            "ctb2Main": {
              "ntr": "ROOT_TRANSPOSITION",
              "ntt": "CHORD",
              "bassOn": false,
              "chordRootUpperLimit": 8,
              "noteLowLimit": 0,
              "noteHighLimit": 127,
              "rtr": "PITCH_SHIFT"
            },
            "ctb2High": null
          },
          "notes": [
            {
              "pitch": 55,
              "velocity": 80,
              "position": 0.75,
              "duration": 0.9895833333333334
            },
            {
              "pitch": 59,
              "velocity": 80,
              "position": 0.75,
              "duration": 0.9895833333333334
            },
            {
              "pitch": 55,
              "velocity": 76,
              "position": 1.75,
              "duration": 0.23958333333333334
            },
            {
              "pitch": 59,
              "velocity": 76,
              "position": 1.75,
              "duration": 0.23958333333333334
            },
            {
              "pitch": 60,
              "velocity": 67,
              "position": 0.25,
              "duration": 1.7395833333333333
            },
            {
              "pitch": 64,
              "velocity": 72,
              "position": 0.5,
              "duration": 1.4895833333333333
            },
            {
              "pitch": 55,
              "velocity": 73,
              "position": 2.25,
              "duration": 0.4895833333333333
            },
            {
              "pitch": 59,
              "velocity": 73,
              "position": 2.25,
              "duration": 0.4895833333333333
            },
            {
              "pitch": 55,
              "velocity": 70,
              "position": 2.75,
              "duration": 0.7395833333333334
            },
            {
              "pitch": 59,
              "velocity": 70,
              "position": 2.75,
              "duration": 0.7395833333333334
            },
            {
              "pitch": 60,
              "velocity": 72,
              "position": 2,
              "duration": 1.7395833333333333
            },
            {
              "pitch": 55,
              "velocity": 75,
              "position": 3.5,
              "duration": 0.4895833333333333
            },
            {
              "pitch": 59,
              "velocity": 75,
              "position": 3.5,
              "duration": 0.4895833333333333
            },
            {
              "pitch": 60,
              "velocity": 70,
              "position": 3.75,
              "duration": 0.23958333333333334
            },
            {
              "pitch": 64,
              "velocity": 89,
              "position": 2.5,
              "duration": 1.4895833333333333
            }
          ]
        }
      }
    },
    "Fill_In_DD": {
      "type": "Fill_In_DD",
      "sizeInBeats": 4,
      "channels": {
        "8": {
          "ctab": {
            "srcChannel": 8,
            "name": "AddDrum",
            "accType": "SUBRHYTHM",
            "editable": false,
            "mutedNotes": [],
            "mutedChords": [],
            "autoStart": true,
            "sourceChordNote": 0,
            "sourceChordType": "Maj7",
            "ctb2Low": null,
            "ctb2Main": {
              "ntr": "ROOT_FIXED",
              "ntt": "BYPASS",
              "bassOn": false,
              "chordRootUpperLimit": 6,
              "noteLowLimit": 0,
              "noteHighLimit": 127,
              "rtr": "PITCH_SHIFT"
            },
            "ctb2High": null
          },
          "notes": [
            {
              "pitch": 54,
              "velocity": 50,
              "position": 0.00625,
              "duration": 0.052083333333333336
            },
            {
              "pitch": 70,
              "velocity": 61,
              "position": 0,
              "duration": 0.06875
            },
            {
              "pitch": 62,
              "velocity": 110,
              "position": 0,
              "duration": 0.08333333333333333
            },
            {
              "pitch": 54,
              "velocity": 71,
              "position": 0.23958333333333334,
              "duration": 0.052083333333333336
            },
            {
              "pitch": 69,
              "velocity": 63,
              "position": 0.25,
              "duration": 0.06875
            },
            {
              "pitch": 63,
              "velocity": 95,
              "position": 0.25,
              "duration": 0.08333333333333333
            },
            {
              "pitch": 60,
              "velocity": 103,
              "position": 0.2604166666666667,
              "duration": 0.08333333333333333
            },
            {
              "pitch": 54,
              "velocity": 29,
              "position": 0.4895833333333333,
              "duration": 0.052083333333333336
            },
            {
              "pitch": 70,
              "velocity": 93,
              "position": 0.5,
              "duration": 0.06875
            },
            {
              "pitch": 63,
              "velocity": 56,
              "position": 0.5,
              "duration": 0.08333333333333333
            },
            {
              "pitch": 54,
              "velocity": 60,
              "position": 0.7395833333333334,
              "duration": 0.052083333333333336
            },
            {
              "pitch": 70,
              "velocity": 50,
              "position": 0.75,
              "duration": 0.06875
            },
            {
              "pitch": 65,
              "velocity": 79,
              "position": 0.7395833333333334,
              "duration": 0.08333333333333333
            },
            {
              "pitch": 64,
              "velocity": 43,
              "position": 0.75,
              "duration": 0.08333333333333333
            },
            {
              "pitch": 60,
              "velocity": 50,
              "position": 0.7604166666666666,
              "duration": 0.08333333333333333
            },
            {
              "pitch": 65,
              "velocity": 62,
              "position": 0.875,
              "duration": 0.08333333333333333
            },
            {
              "pitch": 54,
              "velocity": 47,
              "position": 0.9895833333333334,
              "duration": 0.052083333333333336
            },
            {
              "pitch": 70,
              "velocity": 66,
              "position": 1,
              "duration": 0.06875
            },
            {
              "pitch": 63,
              "velocity": 107,
              "position": 1,
              "duration": 0.08333333333333333
            },
            {
              "pitch": 65,
              "velocity": 105,
              "position": 1,
              "duration": 0.08333333333333333
            },
            {
              "pitch": 61,
              "velocity": 116,
              "position": 1.0104166666666667,
              "duration": 0.08333333333333333
            },
            {
              "pitch": 54,
              "velocity": 38,
              "position": 1.2395833333333333,
              "duration": 0.052083333333333336
            },
            {
              "pitch": 69,
              "velocity": 54,
              "position": 1.25,
              "duration": 0.06875
            },
            {
              "pitch": 54,
              "velocity": 71,
              "position": 1.4895833333333333,
              "duration": 0.052083333333333336
            },
            {
              "pitch": 70,
              "velocity": 102,
              "position": 1.5,
              "duration": 0.06875
            },
            {
              "pitch": 63,
              "velocity": 107,
              "position": 1.5,
              "duration": 0.08333333333333333
            },
            {
              "pitch": 65,
              "velocity": 96,
              "position": 1.5,
              "duration": 0.08333333333333333
            },
            {
              "pitch": 61,
              "velocity": 116,
              "position": 1.5104166666666667,
              "duration": 0.08333333333333333
            },
            {
              "pitch": 54,
              "velocity": 34,
              "position": 1.7395833333333333,
              "duration": 0.052083333333333336
            },
            {
              "pitch": 70,
              "velocity": 51,
              "position": 1.75,
              "duration": 0.06875
            },
            {
              "pitch": 54,
              "velocity": 48,
              "position": 1.9895833333333333,
              "duration": 0.052083333333333336
            },
            {
              "pitch": 70,
              "velocity": 56,
              "position": 2,
              "duration": 0.06875
            },
            {
              "pitch": 62,
              "velocity": 107,
              "position": 2,
              "duration": 0.08333333333333333
            },
            {
              "pitch": 54,
              "velocity": 71,
              "position": 2.2395833333333335,
              "duration": 0.052083333333333336
            },
            {
              "pitch": 69,
              "velocity": 60,
              "position": 2.25,
              "duration": 0.06875
            },
            {
              "pitch": 63,
              "velocity": 83,
              "position": 2.25,
              "duration": 0.08333333333333333
            },
            {
              "pitch": 60,
              "velocity": 105,
              "position": 2.2604166666666665,
              "duration": 0.08333333333333333
            },
            {
              "pitch": 54,
              "velocity": 30,
              "position": 2.4895833333333335,
              "duration": 0.052083333333333336
            },
            {
              "pitch": 70,
              "velocity": 96,
              "position": 2.5,
              "duration": 0.06875
            },
            {
              "pitch": 63,
              "velocity": 42,
              "position": 2.5,
              "duration": 0.08333333333333333
            },
            {
              "pitch": 60,
              "velocity": 59,
              "position": 2.5104166666666665,
              "duration": 0.08333333333333333
            },
            {
              "pitch": 54,
              "velocity": 55,
              "position": 2.7395833333333335,
              "duration": 0.052083333333333336
            },
            {
              "pitch": 70,
              "velocity": 48,
              "position": 2.75,
              "duration": 0.06875
            },
            {
              "pitch": 64,
              "velocity": 40,
              "position": 2.75,
              "duration": 0.08333333333333333
            },
            {
              "pitch": 60,
              "velocity": 42,
              "position": 2.7604166666666665,
              "duration": 0.08333333333333333
            },
            {
              "pitch": 54,
              "velocity": 46,
              "position": 2.9895833333333335,
              "duration": 0.052083333333333336
            },
            {
              "pitch": 70,
              "velocity": 56,
              "position": 3,
              "duration": 0.06875
            },
            {
              "pitch": 66,
              "velocity": 105,
              "position": 3,
              "duration": 0.08333333333333333
            },
            {
              "pitch": 61,
              "velocity": 109,
              "position": 3.0104166666666665,
              "duration": 0.08333333333333333
            },
            {
              "pitch": 54,
              "velocity": 30,
              "position": 3.2395833333333335,
              "duration": 0.052083333333333336
            },
            {
              "pitch": 69,
              "velocity": 59,
              "position": 3.25,
              "duration": 0.06875
            },
            {
              "pitch": 54,
              "velocity": 71,
              "position": 3.4895833333333335,
              "duration": 0.052083333333333336
            },
            {
              "pitch": 70,
              "velocity": 105,
              "position": 3.5,
              "duration": 0.06875
            },
            {
              "pitch": 66,
              "velocity": 96,
              "position": 3.5,
              "duration": 0.08333333333333333
            },
            {
              "pitch": 61,
              "velocity": 109,
              "position": 3.5104166666666665,
              "duration": 0.08333333333333333
            },
            {
              "pitch": 54,
              "velocity": 37,
              "position": 3.7395833333333335,
              "duration": 0.052083333333333336
            },
            {
              "pitch": 70,
              "velocity": 55,
              "position": 3.75,
              "duration": 0.06875
            }
          ]
        },
        "9": {
          "ctab": {
            "srcChannel": 9,
            "name": "MainDrum",
            "accType": "RHYTHM",
            "editable": false,
            "mutedNotes": [],
            "mutedChords": [],
            "autoStart": true,
            "sourceChordNote": 0,
            "sourceChordType": "Maj7",
            "ctb2Low": null,
            "ctb2Main": {
              "ntr": "ROOT_FIXED",
              "ntt": "BYPASS",
              "bassOn": false,
              "chordRootUpperLimit": 6,
              "noteLowLimit": 0,
              "noteHighLimit": 127,
              "rtr": "PITCH_SHIFT"
            },
            "ctb2High": null
          },
          "notes": [
            {
              "pitch": 36,
              "velocity": 84,
              "position": 0,
              "duration": 0.052083333333333336
            },
            {
              "pitch": 53,
              "velocity": 80,
              "position": 0,
              "duration": 0.052083333333333336
            },
            {
              "pitch": 40,
              "velocity": 85,
              "position": 0.2604166666666667,
              "duration": 0.052083333333333336
            },
            {
              "pitch": 53,
              "velocity": 72,
              "position": 0.5,
              "duration": 0.052083333333333336
            },
            {
              "pitch": 40,
              "velocity": 60,
              "position": 0.7604166666666666,
              "duration": 0.052083333333333336
            },
            {
              "pitch": 42,
              "velocity": 54,
              "position": 0.7604166666666666,
              "duration": 0.052083333333333336
            },
            {
              "pitch": 36,
              "velocity": 84,
              "position": 1,
              "duration": 0.052083333333333336
            },
            {
              "pitch": 40,
              "velocity": 105,
              "position": 1,
              "duration": 0.052083333333333336
            },
            {
              "pitch": 42,
              "velocity": 57,
              "position": 1,
              "duration": 0.052083333333333336
            },
            {
              "pitch": 42,
              "velocity": 66,
              "position": 1.2604166666666667,
              "duration": 0.052083333333333336
            },
            {
              "pitch": 40,
              "velocity": 102,
              "position": 1.5,
              "duration": 0.052083333333333336
            },
            {
              "pitch": 57,
              "velocity": 80,
              "position": 1.5,
              "duration": 0.052083333333333336
            },
            {
              "pitch": 36,
              "velocity": 54,
              "position": 1.7604166666666667,
              "duration": 0.052083333333333336
            },
            {
              "pitch": 42,
              "velocity": 50,
              "position": 1.7604166666666667,
              "duration": 0.052083333333333336
            },
            {
              "pitch": 36,
              "velocity": 84,
              "position": 2,
              "duration": 0.052083333333333336
            },
            {
              "pitch": 42,
              "velocity": 72,
              "position": 2,
              "duration": 0.052083333333333336
            },
            {
              "pitch": 40,
              "velocity": 107,
              "position": 2.2604166666666665,
              "duration": 0.052083333333333336
            },
            {
              "pitch": 42,
              "velocity": 59,
              "position": 2.5,
              "duration": 0.052083333333333336
            },
            {
              "pitch": 36,
              "velocity": 54,
              "position": 2.7604166666666665,
              "duration": 0.052083333333333336
            },
            {
              "pitch": 40,
              "velocity": 76,
              "position": 2.7604166666666665,
              "duration": 0.052083333333333336
            },
            {
              "pitch": 40,
              "velocity": 76,
              "position": 2.875,
              "duration": 0.052083333333333336
            },
            {
              "pitch": 36,
              "velocity": 84,
              "position": 3,
              "duration": 0.052083333333333336
            },
            {
              "pitch": 40,
              "velocity": 105,
              "position": 3,
              "duration": 0.052083333333333336
            },
            {
              "pitch": 40,
              "velocity": 56,
              "position": 3.2604166666666665,
              "duration": 0.052083333333333336
            },
            {
              "pitch": 40,
              "velocity": 104,
              "position": 3.5,
              "duration": 0.052083333333333336
            },
            {
              "pitch": 40,
              "velocity": 87,
              "position": 3.7604166666666665,
              "duration": 0.052083333333333336
            },
            {
              "pitch": 49,
              "velocity": 80,
              "position": 3.9895833333333335,
              "duration": 0.010416666666666666
            }
          ]
        },
        "10": {
          "ctab": {
            "srcChannel": 10,
            "name": "Bass",
            "accType": "BASS",
            "editable": false,
            "mutedNotes": [],
            "mutedChords": [],
            "autoStart": false,
            "sourceChordNote": 0,
            "sourceChordType": "Maj7",
            "ctb2Low": null,
            "ctb2Main": {
              "ntr": "ROOT_TRANSPOSITION",
              "ntt": "MELODY",
              "bassOn": true,
              "chordRootUpperLimit": 8,
              "noteLowLimit": 28,
              "noteHighLimit": 127,
              "rtr": "PITCH_SHIFT_TO_ROOT"
            },
            "ctb2High": null
          },
          "notes": [
            {
              "pitch": 24,
              "velocity": 60,
              "position": 0,
              "duration": 0.50625
            },
            {
              "pitch": 24,
              "velocity": 100,
              "position": 0.7604166666666666,
              "duration": 0.13541666666666666
            },
            {
              "pitch": 31,
              "velocity": 60,
              "position": 1,
              "duration": 0.19375
            },
            {
              "pitch": 36,
              "velocity": 60,
              "position": 1.5,
              "duration": 0.9895833333333334
            },
            {
              "pitch": 36,
              "velocity": 60,
              "position": 2.5,
              "duration": 0.3958333333333333
            },
            {
              "pitch": 31,
              "velocity": 60,
              "position": 3,
              "duration": 0.4895833333333333
            },
            {
              "pitch": 31,
              "velocity": 60,
              "position": 3.5,
              "duration": 0.4895833333333333
            }
          ]
        },
        "11": {
          "ctab": {
            "srcChannel": 11,
            "name": "Gt_Stk",
            "accType": "CHORD1",
            "editable": false,
            "mutedNotes": [],
            "mutedChords": [],
            "autoStart": false,
            "sourceChordNote": 0,
            "sourceChordType": "Maj7",
            "ctb2Low": null,
            "ctb2Main": {
              "ntr": "ROOT_TRANSPOSITION",
              "ntt": "MELODY",
              "bassOn": true,
              "chordRootUpperLimit": 7,
              "noteLowLimit": 0,
              "noteHighLimit": 127,
              "rtr": "PITCH_SHIFT"
            },
            "ctb2High": null
          },
          "notes": [
            {
              "pitch": 67,
              "velocity": 50,
              "position": 0,
              "duration": 0.7208333333333333
            },
            {
              "pitch": 71,
              "velocity": 50,
              "position": 0,
              "duration": 0.7208333333333333
            },
            {
              "pitch": 64,
              "velocity": 49,
              "position": 0,
              "duration": 0.7416666666666667
            },
            {
              "pitch": 48,
              "velocity": 50,
              "position": 0,
              "duration": 0.7625
            },
            {
              "pitch": 55,
              "velocity": 50,
              "position": 0,
              "duration": 0.7625
            },
            {
              "pitch": 59,
              "velocity": 50,
              "position": 0,
              "duration": 0.7625
            },
            {
              "pitch": 48,
              "velocity": 33,
              "position": 0.7708333333333334,
              "duration": 0.22083333333333333
            },
            {
              "pitch": 55,
              "velocity": 33,
              "position": 0.7708333333333334,
              "duration": 0.22083333333333333
            },
            {
              "pitch": 59,
              "velocity": 33,
              "position": 0.7708333333333334,
              "duration": 0.22083333333333333
            },
            {
              "pitch": 60,
              "velocity": 50,
              "position": 0.010416666666666666,
              "duration": 0.98125
            },
            {
              "pitch": 64,
              "velocity": 32,
              "position": 0.75,
              "duration": 0.24166666666666667
            },
            {
              "pitch": 67,
              "velocity": 33,
              "position": 0.75,
              "duration": 0.2625
            },
            {
              "pitch": 71,
              "velocity": 33,
              "position": 0.75,
              "duration": 0.2625
            },
            {
              "pitch": 48,
              "velocity": 42,
              "position": 1,
              "duration": 0.49166666666666664
            },
            {
              "pitch": 55,
              "velocity": 42,
              "position": 1,
              "duration": 0.49166666666666664
            },
            {
              "pitch": 59,
              "velocity": 42,
              "position": 1,
              "duration": 0.49166666666666664
            },
            {
              "pitch": 60,
              "velocity": 43,
              "position": 1,
              "duration": 0.49166666666666664
            },
            {
              "pitch": 64,
              "velocity": 41,
              "position": 1,
              "duration": 0.49166666666666664
            },
            {
              "pitch": 67,
              "velocity": 42,
              "position": 1.0208333333333333,
              "duration": 0.49166666666666664
            },
            {
              "pitch": 71,
              "velocity": 42,
              "position": 1.0208333333333333,
              "duration": 0.49166666666666664
            },
            {
              "pitch": 48,
              "velocity": 50,
              "position": 1.5,
              "duration": 0.7416666666666667
            },
            {
              "pitch": 55,
              "velocity": 50,
              "position": 1.5,
              "duration": 0.7416666666666667
            },
            {
              "pitch": 59,
              "velocity": 50,
              "position": 1.5,
              "duration": 0.7416666666666667
            },
            {
              "pitch": 60,
              "velocity": 50,
              "position": 1.5,
              "duration": 0.7416666666666667
            },
            {
              "pitch": 64,
              "velocity": 49,
              "position": 1.5,
              "duration": 0.7416666666666667
            },
            {
              "pitch": 67,
              "velocity": 50,
              "position": 1.5208333333333333,
              "duration": 0.7416666666666667
            },
            {
              "pitch": 71,
              "velocity": 50,
              "position": 1.5208333333333333,
              "duration": 0.7416666666666667
            },
            {
              "pitch": 60,
              "velocity": 50,
              "position": 2.25,
              "duration": 0.49166666666666664
            },
            {
              "pitch": 64,
              "velocity": 49,
              "position": 2.25,
              "duration": 0.49166666666666664
            },
            {
              "pitch": 67,
              "velocity": 50,
              "position": 2.2708333333333335,
              "duration": 0.4708333333333333
            },
            {
              "pitch": 71,
              "velocity": 50,
              "position": 2.2708333333333335,
              "duration": 0.4708333333333333
            },
            {
              "pitch": 48,
              "velocity": 50,
              "position": 2.25,
              "duration": 0.7416666666666667
            },
            {
              "pitch": 55,
              "velocity": 50,
              "position": 2.25,
              "duration": 0.7416666666666667
            },
            {
              "pitch": 59,
              "velocity": 50,
              "position": 2.25,
              "duration": 0.7416666666666667
            },
            {
              "pitch": 60,
              "velocity": 34,
              "position": 2.75,
              "duration": 0.24166666666666667
            },
            {
              "pitch": 64,
              "velocity": 33,
              "position": 2.75,
              "duration": 0.24166666666666667
            },
            {
              "pitch": 67,
              "velocity": 34,
              "position": 2.75,
              "duration": 0.2625
            },
            {
              "pitch": 71,
              "velocity": 34,
              "position": 2.75,
              "duration": 0.2625
            },
            {
              "pitch": 48,
              "velocity": 50,
              "position": 3,
              "duration": 0.49166666666666664
            },
            {
              "pitch": 55,
              "velocity": 50,
              "position": 3,
              "duration": 0.49166666666666664
            },
            {
              "pitch": 59,
              "velocity": 50,
              "position": 3,
              "duration": 0.49166666666666664
            },
            {
              "pitch": 60,
              "velocity": 50,
              "position": 3,
              "duration": 0.49166666666666664
            },
            {
              "pitch": 64,
              "velocity": 49,
              "position": 3,
              "duration": 0.49166666666666664
            },
            {
              "pitch": 67,
              "velocity": 50,
              "position": 3.0208333333333335,
              "duration": 0.49166666666666664
            },
            {
              "pitch": 71,
              "velocity": 50,
              "position": 3.0208333333333335,
              "duration": 0.49166666666666664
            },
            {
              "pitch": 60,
              "velocity": 50,
              "position": 3.5,
              "duration": 0.24166666666666667
            },
            {
              "pitch": 64,
              "velocity": 49,
              "position": 3.5,
              "duration": 0.24166666666666667
            },
            {
              "pitch": 67,
              "velocity": 50,
              "position": 3.5208333333333335,
              "duration": 0.22083333333333333
            },
            {
              "pitch": 71,
              "velocity": 50,
              "position": 3.5208333333333335,
              "duration": 0.22083333333333333
            },
            {
              "pitch": 48,
              "velocity": 50,
              "position": 3.5,
              "duration": 0.49166666666666664
            },
            {
              "pitch": 55,
              "velocity": 50,
              "position": 3.5,
              "duration": 0.49166666666666664
            },
            {
              "pitch": 59,
              "velocity": 50,
              "position": 3.5,
              "duration": 0.49166666666666664
            },
            {
              "pitch": 64,
              "velocity": 41,
              "position": 3.75,
              "duration": 0.24166666666666667
            },
            {
              "pitch": 67,
              "velocity": 39,
              "position": 3.75,
              "duration": 0.24166666666666667
            },
            {
              "pitch": 71,
              "velocity": 39,
              "position": 3.75,
              "duration": 0.24166666666666667
            },
            {
              "pitch": 60,
              "velocity": 37,
              "position": 3.75,
              "duration": 0.24583333333333332
            }
          ]
        },
        "14": {
          "ctab": {
            "srcChannel": 14,
            "name": "Gt_Ba",
            "accType": "PHRASE1",
            "editable": false,
            "mutedNotes": [],
            "mutedChords": [],
            "autoStart": false,
            "sourceChordNote": 0,
            "sourceChordType": "Maj7",
            "ctb2Low": null,
            "ctb2Main": {
              "ntr": "ROOT_TRANSPOSITION",
              "ntt": "MELODY",
              "bassOn": true,
              "chordRootUpperLimit": 8,
              "noteLowLimit": 40,
              "noteHighLimit": 52,
              "rtr": "PITCH_SHIFT_TO_ROOT"
            },
            "ctb2High": null
          },
          "notes": [
            {
              "pitch": 48,
              "velocity": 75,
              "position": 0,
              "duration": 0.50625
            },
            {
              "pitch": 48,
              "velocity": 75,
              "position": 0.75,
              "duration": 0.23958333333333334
            },
            {
              "pitch": 43,
              "velocity": 75,
              "position": 1,
              "duration": 0.4895833333333333
            },
            {
              "pitch": 48,
              "velocity": 80,
              "position": 1.5,
              "duration": 0.9895833333333334
            },
            {
              "pitch": 48,
              "velocity": 75,
              "position": 2.5,
              "duration": 0.3958333333333333
            },
            {
              "pitch": 43,
              "velocity": 80,
              "position": 3,
              "duration": 0.4895833333333333
            },
            {
              "pitch": 43,
              "velocity": 80,
              "position": 3.5,
              "duration": 0.4895833333333333
            }
          ]
        },
        "15": {
          "ctab": {
            "srcChannel": 15,
            "name": "Gt_Arp",
            "accType": "PHRASE2",
            "editable": false,
            "mutedNotes": [],
            "mutedChords": [],
            "autoStart": false,
            "sourceChordNote": 0,
            "sourceChordType": "Maj7",
            "ctb2Low": null,
            "ctb2Main": {
              "ntr": "ROOT_TRANSPOSITION",
              "ntt": "CHORD",
              "bassOn": false,
              "chordRootUpperLimit": 8,
              "noteLowLimit": 0,
              "noteHighLimit": 127,
              "rtr": "PITCH_SHIFT"
            },
            "ctb2High": null
          },
          "notes": [
            {
              "pitch": 55,
              "velocity": 83,
              "position": 0.25,
              "duration": 0.9895833333333334
            },
            {
              "pitch": 59,
              "velocity": 83,
              "position": 0.25,
              "duration": 0.9895833333333334
            },
            {
              "pitch": 52,
              "velocity": 70,
              "position": 0.5,
              "duration": 0.9895833333333334
            },
            {
              "pitch": 55,
              "velocity": 65,
              "position": 1.25,
              "duration": 0.23958333333333334
            },
            {
              "pitch": 59,
              "velocity": 65,
              "position": 1.25,
              "duration": 0.23958333333333334
            },
            {
              "pitch": 60,
              "velocity": 91,
              "position": 0.75,
              "duration": 0.7395833333333334
            },
            {
              "pitch": 52,
              "velocity": 88,
              "position": 1.5,
              "duration": 1.475
            },
            {
              "pitch": 55,
              "velocity": 90,
              "position": 1.5208333333333333,
              "duration": 1.4583333333333333
            },
            {
              "pitch": 59,
              "velocity": 90,
              "position": 1.5208333333333333,
              "duration": 1.4583333333333333
            },
            {
              "pitch": 60,
              "velocity": 87,
              "position": 1.5375,
              "duration": 1.4583333333333333
            },
            {
              "pitch": 55,
              "velocity": 72,
              "position": 3,
              "duration": 0.7395833333333334
            },
            {
              "pitch": 59,
              "velocity": 72,
              "position": 3,
              "duration": 0.7395833333333334
            },
            {
              "pitch": 52,
              "velocity": 76,
              "position": 3.5,
              "duration": 0.4895833333333333
            },
            {
              "pitch": 55,
              "velocity": 57,
              "position": 3.75,
              "duration": 0.23958333333333334
            },
            {
              "pitch": 59,
              "velocity": 57,
              "position": 3.75,
              "duration": 0.23958333333333334
            },
            {
              "pitch": 60,
              "velocity": 62,
              "position": 3.25,
              "duration": 0.7395833333333334
            },
            {
              "pitch": 64,
              "velocity": 79,
              "position": 2.75,
              "duration": 1.2395833333333333
            }
          ]
        }
      }
    },
    "Intro_A": {
      "type": "Intro_A",
      "sizeInBeats": 4,
      "channels": {
        "8": {
          "ctab": {
            "srcChannel": 8,
            "name": "AddDrum",
            "accType": "SUBRHYTHM",
            "editable": false,
            "mutedNotes": [],
            "mutedChords": [],
            "autoStart": true,
            "sourceChordNote": 0,
            "sourceChordType": "Maj7",
            "ctb2Low": null,
            "ctb2Main": {
              "ntr": "ROOT_FIXED",
              "ntt": "BYPASS",
              "bassOn": false,
              "chordRootUpperLimit": 6,
              "noteLowLimit": 0,
              "noteHighLimit": 127,
              "rtr": "PITCH_SHIFT"
            },
            "ctb2High": null
          },
          "notes": [
            {
              "pitch": 70,
              "velocity": 48,
              "position": 0,
              "duration": 0.07291666666666667
            },
            {
              "pitch": 70,
              "velocity": 48,
              "position": 1,
              "duration": 0.07291666666666667
            },
            {
              "pitch": 62,
              "velocity": 64,
              "position": 1.75,
              "duration": 0.08333333333333333
            },
            {
              "pitch": 70,
              "velocity": 48,
              "position": 2,
              "duration": 0.07291666666666667
            },
            {
              "pitch": 63,
              "velocity": 91,
              "position": 2,
              "duration": 0.08333333333333333
            },
            {
              "pitch": 69,
              "velocity": 60,
              "position": 2.25,
              "duration": 0.06875
            },
            {
              "pitch": 63,
              "velocity": 52,
              "position": 2.25,
              "duration": 0.08333333333333333
            },
            {
              "pitch": 70,
              "velocity": 95,
              "position": 2.5,
              "duration": 0.06875
            },
            {
              "pitch": 64,
              "velocity": 43,
              "position": 2.5,
              "duration": 0.08333333333333333
            },
            {
              "pitch": 70,
              "velocity": 54,
              "position": 2.75,
              "duration": 0.06875
            },
            {
              "pitch": 64,
              "velocity": 68,
              "position": 2.75,
              "duration": 0.08333333333333333
            },
            {
              "pitch": 69,
              "velocity": 63,
              "position": 3,
              "duration": 0.06875
            },
            {
              "pitch": 61,
              "velocity": 75,
              "position": 3,
              "duration": 0.08333333333333333
            },
            {
              "pitch": 62,
              "velocity": 72,
              "position": 3.25,
              "duration": 0.08333333333333333
            },
            {
              "pitch": 62,
              "velocity": 55,
              "position": 3.375,
              "duration": 0.08333333333333333
            },
            {
              "pitch": 70,
              "velocity": 107,
              "position": 3.5,
              "duration": 0.06875
            },
            {
              "pitch": 62,
              "velocity": 114,
              "position": 3.5,
              "duration": 0.08333333333333333
            },
            {
              "pitch": 70,
              "velocity": 53,
              "position": 3.75,
              "duration": 0.06875
            },
            {
              "pitch": 62,
              "velocity": 63,
              "position": 3.75,
              "duration": 0.08333333333333333
            }
          ]
        },
        "9": {
          "ctab": {
            "srcChannel": 9,
            "name": "MainDrum",
            "accType": "RHYTHM",
            "editable": false,
            "mutedNotes": [],
            "mutedChords": [],
            "autoStart": true,
            "sourceChordNote": 0,
            "sourceChordType": "Maj7",
            "ctb2Low": null,
            "ctb2Main": {
              "ntr": "ROOT_FIXED",
              "ntt": "BYPASS",
              "bassOn": false,
              "chordRootUpperLimit": 6,
              "noteLowLimit": 0,
              "noteHighLimit": 127,
              "rtr": "PITCH_SHIFT"
            },
            "ctb2High": null
          },
          "notes": [
            {
              "pitch": 36,
              "velocity": 82,
              "position": 0,
              "duration": 0.04791666666666667
            },
            {
              "pitch": 42,
              "velocity": 42,
              "position": 0,
              "duration": 0.04791666666666667
            },
            {
              "pitch": 42,
              "velocity": 35,
              "position": 0.2604166666666667,
              "duration": 0.052083333333333336
            },
            {
              "pitch": 42,
              "velocity": 77,
              "position": 0.5,
              "duration": 0.052083333333333336
            },
            {
              "pitch": 36,
              "velocity": 52,
              "position": 0.7604166666666666,
              "duration": 0.052083333333333336
            },
            {
              "pitch": 42,
              "velocity": 25,
              "position": 0.7604166666666666,
              "duration": 0.052083333333333336
            },
            {
              "pitch": 36,
              "velocity": 82,
              "position": 1,
              "duration": 0.052083333333333336
            },
            {
              "pitch": 42,
              "velocity": 40,
              "position": 1,
              "duration": 0.052083333333333336
            },
            {
              "pitch": 42,
              "velocity": 37,
              "position": 1.2604166666666667,
              "duration": 0.052083333333333336
            },
            {
              "pitch": 42,
              "velocity": 81,
              "position": 1.5,
              "duration": 0.052083333333333336
            },
            {
              "pitch": 42,
              "velocity": 40,
              "position": 1.7604166666666667,
              "duration": 0.052083333333333336
            },
            {
              "pitch": 42,
              "velocity": 30,
              "position": 1.875,
              "duration": 0.052083333333333336
            },
            {
              "pitch": 36,
              "velocity": 82,
              "position": 2,
              "duration": 0.052083333333333336
            },
            {
              "pitch": 42,
              "velocity": 52,
              "position": 2,
              "duration": 0.052083333333333336
            },
            {
              "pitch": 42,
              "velocity": 49,
              "position": 2.2604166666666665,
              "duration": 0.052083333333333336
            },
            {
              "pitch": 46,
              "velocity": 72,
              "position": 2.5,
              "duration": 0.052083333333333336
            },
            {
              "pitch": 36,
              "velocity": 52,
              "position": 2.7604166666666665,
              "duration": 0.052083333333333336
            },
            {
              "pitch": 36,
              "velocity": 82,
              "position": 3,
              "duration": 0.052083333333333336
            },
            {
              "pitch": 42,
              "velocity": 42,
              "position": 3,
              "duration": 0.052083333333333336
            },
            {
              "pitch": 40,
              "velocity": 33,
              "position": 3.125,
              "duration": 0.052083333333333336
            },
            {
              "pitch": 40,
              "velocity": 90,
              "position": 3.2604166666666665,
              "duration": 0.052083333333333336
            },
            {
              "pitch": 42,
              "velocity": 82,
              "position": 3.5,
              "duration": 0.052083333333333336
            },
            {
              "pitch": 40,
              "velocity": 59,
              "position": 3.7604166666666665,
              "duration": 0.052083333333333336
            },
            {
              "pitch": 49,
              "velocity": 80,
              "position": 3.9895833333333335,
              "duration": 0.010416666666666666
            }
          ]
        },
        "10": {
          "ctab": {
            "srcChannel": 10,
            "name": "Bass",
            "accType": "BASS",
            "editable": false,
            "mutedNotes": [],
            "mutedChords": [],
            "autoStart": false,
            "sourceChordNote": 0,
            "sourceChordType": "Maj7",
            "ctb2Low": null,
            "ctb2Main": {
              "ntr": "ROOT_TRANSPOSITION",
              "ntt": "MELODY",
              "bassOn": true,
              "chordRootUpperLimit": 8,
              "noteLowLimit": 28,
              "noteHighLimit": 127,
              "rtr": "PITCH_SHIFT_TO_ROOT"
            },
            "ctb2High": null
          },
          "notes": []
        },
        "11": {
          "ctab": {
            "srcChannel": 11,
            "name": "Gt_Stk",
            "accType": "CHORD1",
            "editable": false,
            "mutedNotes": [],
            "mutedChords": [],
            "autoStart": false,
            "sourceChordNote": 0,
            "sourceChordType": "Maj7",
            "ctb2Low": null,
            "ctb2Main": {
              "ntr": "ROOT_TRANSPOSITION",
              "ntt": "MELODY",
              "bassOn": true,
              "chordRootUpperLimit": 7,
              "noteLowLimit": 0,
              "noteHighLimit": 127,
              "rtr": "PITCH_SHIFT"
            },
            "ctb2High": null
          },
          "notes": []
        },
        "14": {
          "ctab": {
            "srcChannel": 14,
            "name": "Gt_Ba",
            "accType": "PHRASE1",
            "editable": false,
            "mutedNotes": [],
            "mutedChords": [],
            "autoStart": false,
            "sourceChordNote": 0,
            "sourceChordType": "Maj7",
            "ctb2Low": null,
            "ctb2Main": {
              "ntr": "ROOT_TRANSPOSITION",
              "ntt": "MELODY",
              "bassOn": true,
              "chordRootUpperLimit": 8,
              "noteLowLimit": 40,
              "noteHighLimit": 52,
              "rtr": "PITCH_SHIFT_TO_ROOT"
            },
            "ctb2High": null
          },
          "notes": []
        },
        "15": {
          "ctab": {
            "srcChannel": 15,
            "name": "Gt_Arp",
            "accType": "PHRASE2",
            "editable": false,
            "mutedNotes": [],
            "mutedChords": [],
            "autoStart": false,
            "sourceChordNote": 0,
            "sourceChordType": "Maj7",
            "ctb2Low": null,
            "ctb2Main": {
              "ntr": "ROOT_TRANSPOSITION",
              "ntt": "CHORD",
              "bassOn": false,
              "chordRootUpperLimit": 8,
              "noteLowLimit": 0,
              "noteHighLimit": 127,
              "rtr": "PITCH_SHIFT"
            },
            "ctb2High": null
          },
          "notes": []
        }
      }
    },
    "Ending_A": {
      "type": "Ending_A",
      "sizeInBeats": 4,
      "channels": {
        "8": {
          "ctab": {
            "srcChannel": 8,
            "name": "AddDrum",
            "accType": "SUBRHYTHM",
            "editable": false,
            "mutedNotes": [],
            "mutedChords": [],
            "autoStart": true,
            "sourceChordNote": 0,
            "sourceChordType": "Maj7",
            "ctb2Low": null,
            "ctb2Main": {
              "ntr": "ROOT_FIXED",
              "ntt": "BYPASS",
              "bassOn": false,
              "chordRootUpperLimit": 6,
              "noteLowLimit": 0,
              "noteHighLimit": 127,
              "rtr": "PITCH_SHIFT"
            },
            "ctb2High": null
          },
          "notes": [
            {
              "pitch": 70,
              "velocity": 60,
              "position": 0,
              "duration": 0.07291666666666667
            },
            {
              "pitch": 61,
              "velocity": 96,
              "position": 0,
              "duration": 0.08333333333333333
            },
            {
              "pitch": 64,
              "velocity": 64,
              "position": 0.020833333333333332,
              "duration": 0.08333333333333333
            }
          ]
        },
        "9": {
          "ctab": {
            "srcChannel": 9,
            "name": "MainDrum",
            "accType": "RHYTHM",
            "editable": false,
            "mutedNotes": [],
            "mutedChords": [],
            "autoStart": true,
            "sourceChordNote": 0,
            "sourceChordType": "Maj7",
            "ctb2Low": null,
            "ctb2Main": {
              "ntr": "ROOT_FIXED",
              "ntt": "BYPASS",
              "bassOn": false,
              "chordRootUpperLimit": 6,
              "noteLowLimit": 0,
              "noteHighLimit": 127,
              "rtr": "PITCH_SHIFT"
            },
            "ctb2High": null
          },
          "notes": [
            {
              "pitch": 36,
              "velocity": 82,
              "position": 0,
              "duration": 0.052083333333333336
            }
          ]
        },
        "10": {
          "ctab": {
            "srcChannel": 10,
            "name": "Bass",
            "accType": "BASS",
            "editable": false,
            "mutedNotes": [],
            "mutedChords": [],
            "autoStart": false,
            "sourceChordNote": 0,
            "sourceChordType": "Maj7",
            "ctb2Low": null,
            "ctb2Main": {
              "ntr": "ROOT_TRANSPOSITION",
              "ntt": "MELODY",
              "bassOn": true,
              "chordRootUpperLimit": 8,
              "noteLowLimit": 28,
              "noteHighLimit": 127,
              "rtr": "PITCH_SHIFT_TO_ROOT"
            },
            "ctb2High": null
          },
          "notes": [
            {
              "pitch": 24,
              "velocity": 60,
              "position": 0,
              "duration": 3.5625
            }
          ]
        },
        "11": {
          "ctab": {
            "srcChannel": 11,
            "name": "Gt_Stk",
            "accType": "CHORD1",
            "editable": false,
            "mutedNotes": [],
            "mutedChords": [],
            "autoStart": false,
            "sourceChordNote": 0,
            "sourceChordType": "Maj7",
            "ctb2Low": null,
            "ctb2Main": {
              "ntr": "ROOT_TRANSPOSITION",
              "ntt": "MELODY",
              "bassOn": true,
              "chordRootUpperLimit": 7,
              "noteLowLimit": 0,
              "noteHighLimit": 127,
              "rtr": "PITCH_SHIFT"
            },
            "ctb2High": null
          },
          "notes": [
            {
              "pitch": 48,
              "velocity": 50,
              "position": 0,
              "duration": 3.5
            },
            {
              "pitch": 55,
              "velocity": 50,
              "position": 0,
              "duration": 3.5
            },
            {
              "pitch": 59,
              "velocity": 50,
              "position": 0,
              "duration": 3.5
            },
            {
              "pitch": 60,
              "velocity": 50,
              "position": 0.010416666666666666,
              "duration": 3.4895833333333335
            },
            {
              "pitch": 67,
              "velocity": 50,
              "position": 0.020833333333333332,
              "duration": 3.4791666666666665
            },
            {
              "pitch": 71,
              "velocity": 50,
              "position": 0.020833333333333332,
              "duration": 3.4791666666666665
            },
            {
              "pitch": 64,
              "velocity": 49,
              "position": 0,
              "duration": 3.5708333333333333
            }
          ]
        },
        "14": {
          "ctab": {
            "srcChannel": 14,
            "name": "Gt_Ba",
            "accType": "PHRASE1",
            "editable": false,
            "mutedNotes": [],
            "mutedChords": [],
            "autoStart": false,
            "sourceChordNote": 0,
            "sourceChordType": "Maj7",
            "ctb2Low": null,
            "ctb2Main": {
              "ntr": "ROOT_TRANSPOSITION",
              "ntt": "MELODY",
              "bassOn": true,
              "chordRootUpperLimit": 8,
              "noteLowLimit": 40,
              "noteHighLimit": 52,
              "rtr": "PITCH_SHIFT_TO_ROOT"
            },
            "ctb2High": null
          },
          "notes": []
        },
        "15": {
          "ctab": {
            "srcChannel": 15,
            "name": "Gt_Arp",
            "accType": "PHRASE2",
            "editable": false,
            "mutedNotes": [],
            "mutedChords": [],
            "autoStart": false,
            "sourceChordNote": 0,
            "sourceChordType": "Maj7",
            "ctb2Low": null,
            "ctb2Main": {
              "ntr": "ROOT_TRANSPOSITION",
              "ntt": "CHORD",
              "bassOn": false,
              "chordRootUpperLimit": 8,
              "noteLowLimit": 0,
              "noteHighLimit": 127,
              "rtr": "PITCH_SHIFT"
            },
            "ctb2High": null
          },
          "notes": [
            {
              "pitch": 55,
              "velocity": 80,
              "position": 0,
              "duration": 3.46875
            },
            {
              "pitch": 59,
              "velocity": 80,
              "position": 0,
              "duration": 3.46875
            },
            {
              "pitch": 52,
              "velocity": 83,
              "position": 0,
              "duration": 3.5
            },
            {
              "pitch": 60,
              "velocity": 83,
              "position": 0.041666666666666664,
              "duration": 3.4583333333333335
            },
            {
              "pitch": 64,
              "velocity": 83,
              "position": 0.08333333333333333,
              "duration": 3.4166666666666665
            }
          ]
        }
      }
    },
    "Fill_In_BA": {
      "type": "Fill_In_BA",
      "sizeInBeats": 4,
      "channels": {
        "8": {
          "ctab": {
            "srcChannel": 8,
            "name": "AddDrum",
            "accType": "SUBRHYTHM",
            "editable": false,
            "mutedNotes": [],
            "mutedChords": [],
            "autoStart": true,
            "sourceChordNote": 0,
            "sourceChordType": "Maj7",
            "ctb2Low": null,
            "ctb2Main": {
              "ntr": "ROOT_FIXED",
              "ntt": "BYPASS",
              "bassOn": false,
              "chordRootUpperLimit": 6,
              "noteLowLimit": 0,
              "noteHighLimit": 127,
              "rtr": "PITCH_SHIFT"
            },
            "ctb2High": null
          },
          "notes": [
            {
              "pitch": 70,
              "velocity": 61,
              "position": 0,
              "duration": 0.07291666666666667
            },
            {
              "pitch": 62,
              "velocity": 110,
              "position": 0,
              "duration": 0.08333333333333333
            },
            {
              "pitch": 54,
              "velocity": 29,
              "position": 0.23958333333333334,
              "duration": 0.052083333333333336
            },
            {
              "pitch": 69,
              "velocity": 63,
              "position": 0.25,
              "duration": 0.07291666666666667
            },
            {
              "pitch": 63,
              "velocity": 95,
              "position": 0.25,
              "duration": 0.08333333333333333
            },
            {
              "pitch": 60,
              "velocity": 103,
              "position": 0.2708333333333333,
              "duration": 0.08333333333333333
            },
            {
              "pitch": 54,
              "velocity": 71,
              "position": 0.4895833333333333,
              "duration": 0.052083333333333336
            },
            {
              "pitch": 70,
              "velocity": 93,
              "position": 0.5,
              "duration": 0.07291666666666667
            },
            {
              "pitch": 63,
              "velocity": 56,
              "position": 0.5,
              "duration": 0.08333333333333333
            },
            {
              "pitch": 54,
              "velocity": 60,
              "position": 0.7395833333333334,
              "duration": 0.052083333333333336
            },
            {
              "pitch": 70,
              "velocity": 50,
              "position": 0.75,
              "duration": 0.07291666666666667
            },
            {
              "pitch": 64,
              "velocity": 43,
              "position": 0.75,
              "duration": 0.08333333333333333
            },
            {
              "pitch": 60,
              "velocity": 50,
              "position": 0.7708333333333334,
              "duration": 0.08333333333333333
            },
            {
              "pitch": 54,
              "velocity": 47,
              "position": 0.9895833333333334,
              "duration": 0.052083333333333336
            },
            {
              "pitch": 70,
              "velocity": 66,
              "position": 1,
              "duration": 0.07291666666666667
            },
            {
              "pitch": 63,
              "velocity": 119,
              "position": 1,
              "duration": 0.08333333333333333
            },
            {
              "pitch": 61,
              "velocity": 127,
              "position": 1.0208333333333333,
              "duration": 0.08333333333333333
            },
            {
              "pitch": 54,
              "velocity": 71,
              "position": 1.4895833333333333,
              "duration": 0.052083333333333336
            },
            {
              "pitch": 70,
              "velocity": 102,
              "position": 1.5,
              "duration": 0.07291666666666667
            },
            {
              "pitch": 63,
              "velocity": 119,
              "position": 1.5,
              "duration": 0.08333333333333333
            },
            {
              "pitch": 61,
              "velocity": 73,
              "position": 1.5208333333333333,
              "duration": 0.08333333333333333
            },
            {
              "pitch": 62,
              "velocity": 127,
              "position": 2,
              "duration": 0.08333333333333333
            },
            {
              "pitch": 62,
              "velocity": 82,
              "position": 2.5,
              "duration": 0.08333333333333333
            },
            {
              "pitch": 54,
              "velocity": 46,
              "position": 2.9895833333333335,
              "duration": 0.052083333333333336
            },
            {
              "pitch": 70,
              "velocity": 56,
              "position": 3,
              "duration": 0.07291666666666667
            },
            {
              "pitch": 64,
              "velocity": 69,
              "position": 3,
              "duration": 0.08333333333333333
            },
            {
              "pitch": 61,
              "velocity": 109,
              "position": 3.0208333333333335,
              "duration": 0.08333333333333333
            },
            {
              "pitch": 64,
              "velocity": 48,
              "position": 3.125,
              "duration": 0.020833333333333332
            },
            {
              "pitch": 61,
              "velocity": 70,
              "position": 3.1458333333333335,
              "duration": 0.020833333333333332
            },
            {
              "pitch": 54,
              "velocity": 30,
              "position": 3.2395833333333335,
              "duration": 0.052083333333333336
            },
            {
              "pitch": 69,
              "velocity": 59,
              "position": 3.25,
              "duration": 0.07291666666666667
            },
            {
              "pitch": 62,
              "velocity": 66,
              "position": 3.25,
              "duration": 0.08333333333333333
            },
            {
              "pitch": 62,
              "velocity": 90,
              "position": 3.375,
              "duration": 0.08333333333333333
            },
            {
              "pitch": 54,
              "velocity": 71,
              "position": 3.4895833333333335,
              "duration": 0.052083333333333336
            },
            {
              "pitch": 70,
              "velocity": 105,
              "position": 3.5,
              "duration": 0.07291666666666667
            },
            {
              "pitch": 62,
              "velocity": 110,
              "position": 3.5,
              "duration": 0.08333333333333333
            },
            {
              "pitch": 60,
              "velocity": 100,
              "position": 3.5104166666666665,
              "duration": 0.08333333333333333
            },
            {
              "pitch": 54,
              "velocity": 37,
              "position": 3.7395833333333335,
              "duration": 0.052083333333333336
            },
            {
              "pitch": 70,
              "velocity": 55,
              "position": 3.75,
              "duration": 0.07291666666666667
            },
            {
              "pitch": 62,
              "velocity": 80,
              "position": 3.75,
              "duration": 0.08333333333333333
            },
            {
              "pitch": 54,
              "velocity": 51,
              "position": 3.9895833333333335,
              "duration": 0.00625
            }
          ]
        },
        "9": {
          "ctab": {
            "srcChannel": 9,
            "name": "MainDrum",
            "accType": "RHYTHM",
            "editable": false,
            "mutedNotes": [],
            "mutedChords": [],
            "autoStart": true,
            "sourceChordNote": 0,
            "sourceChordType": "Maj7",
            "ctb2Low": null,
            "ctb2Main": {
              "ntr": "ROOT_FIXED",
              "ntt": "BYPASS",
              "bassOn": false,
              "chordRootUpperLimit": 6,
              "noteLowLimit": 0,
              "noteHighLimit": 127,
              "rtr": "PITCH_SHIFT"
            },
            "ctb2High": null
          },
          "notes": [
            {
              "pitch": 36,
              "velocity": 84,
              "position": 0,
              "duration": 0.052083333333333336
            },
            {
              "pitch": 42,
              "velocity": 79,
              "position": 0,
              "duration": 0.052083333333333336
            },
            {
              "pitch": 40,
              "velocity": 76,
              "position": 0.2604166666666667,
              "duration": 0.052083333333333336
            },
            {
              "pitch": 42,
              "velocity": 40,
              "position": 0.2604166666666667,
              "duration": 0.052083333333333336
            },
            {
              "pitch": 40,
              "velocity": 40,
              "position": 0.5,
              "duration": 0.052083333333333336
            },
            {
              "pitch": 59,
              "velocity": 82,
              "position": 0.5,
              "duration": 0.052083333333333336
            },
            {
              "pitch": 36,
              "velocity": 70,
              "position": 0.7604166666666666,
              "duration": 0.052083333333333336
            },
            {
              "pitch": 42,
              "velocity": 57,
              "position": 0.7604166666666666,
              "duration": 0.052083333333333336
            },
            {
              "pitch": 36,
              "velocity": 84,
              "position": 1,
              "duration": 0.052083333333333336
            },
            {
              "pitch": 40,
              "velocity": 102,
              "position": 1,
              "duration": 0.052083333333333336
            },
            {
              "pitch": 42,
              "velocity": 35,
              "position": 1.2604166666666667,
              "duration": 0.052083333333333336
            },
            {
              "pitch": 36,
              "velocity": 84,
              "position": 1.5,
              "duration": 0.052083333333333336
            },
            {
              "pitch": 40,
              "velocity": 71,
              "position": 1.5,
              "duration": 0.052083333333333336
            },
            {
              "pitch": 57,
              "velocity": 80,
              "position": 1.5,
              "duration": 0.052083333333333336
            },
            {
              "pitch": 40,
              "velocity": 27,
              "position": 2,
              "duration": 0.052083333333333336
            },
            {
              "pitch": 40,
              "velocity": 29,
              "position": 2.2604166666666665,
              "duration": 0.052083333333333336
            },
            {
              "pitch": 40,
              "velocity": 47,
              "position": 2.5,
              "duration": 0.052083333333333336
            },
            {
              "pitch": 40,
              "velocity": 69,
              "position": 2.7604166666666665,
              "duration": 0.052083333333333336
            },
            {
              "pitch": 40,
              "velocity": 62,
              "position": 2.875,
              "duration": 0.052083333333333336
            },
            {
              "pitch": 40,
              "velocity": 102,
              "position": 3,
              "duration": 0.052083333333333336
            },
            {
              "pitch": 40,
              "velocity": 43,
              "position": 3.2604166666666665,
              "duration": 0.052083333333333336
            },
            {
              "pitch": 40,
              "velocity": 71,
              "position": 3.5,
              "duration": 0.052083333333333336
            },
            {
              "pitch": 43,
              "velocity": 86,
              "position": 3.7604166666666665,
              "duration": 0.052083333333333336
            },
            {
              "pitch": 49,
              "velocity": 80,
              "position": 3.9895833333333335,
              "duration": 0.010416666666666666
            }
          ]
        },
        "10": {
          "ctab": {
            "srcChannel": 10,
            "name": "Bass",
            "accType": "BASS",
            "editable": false,
            "mutedNotes": [],
            "mutedChords": [],
            "autoStart": false,
            "sourceChordNote": 0,
            "sourceChordType": "Maj7",
            "ctb2Low": null,
            "ctb2Main": {
              "ntr": "ROOT_TRANSPOSITION",
              "ntt": "MELODY",
              "bassOn": true,
              "chordRootUpperLimit": 8,
              "noteLowLimit": 28,
              "noteHighLimit": 127,
              "rtr": "PITCH_SHIFT_TO_ROOT"
            },
            "ctb2High": null
          },
          "notes": [
            {
              "pitch": 24,
              "velocity": 60,
              "position": 0,
              "duration": 0.7395833333333334
            },
            {
              "pitch": 24,
              "velocity": 100,
              "position": 0.7604166666666666,
              "duration": 0.22916666666666666
            },
            {
              "pitch": 31,
              "velocity": 60,
              "position": 1,
              "duration": 0.23958333333333334
            },
            {
              "pitch": 36,
              "velocity": 60,
              "position": 1.5,
              "duration": 1.4895833333333333
            }
          ]
        },
        "11": {
          "ctab": {
            "srcChannel": 11,
            "name": "Gt_Stk",
            "accType": "CHORD1",
            "editable": false,
            "mutedNotes": [],
            "mutedChords": [],
            "autoStart": false,
            "sourceChordNote": 0,
            "sourceChordType": "Maj7",
            "ctb2Low": null,
            "ctb2Main": {
              "ntr": "ROOT_TRANSPOSITION",
              "ntt": "MELODY",
              "bassOn": true,
              "chordRootUpperLimit": 7,
              "noteLowLimit": 0,
              "noteHighLimit": 127,
              "rtr": "PITCH_SHIFT"
            },
            "ctb2High": null
          },
          "notes": [
            {
              "pitch": 67,
              "velocity": 50,
              "position": 0,
              "duration": 0.71875
            },
            {
              "pitch": 71,
              "velocity": 50,
              "position": 0,
              "duration": 0.71875
            },
            {
              "pitch": 48,
              "velocity": 50,
              "position": 0,
              "duration": 0.7395833333333334
            },
            {
              "pitch": 55,
              "velocity": 50,
              "position": 0,
              "duration": 0.7395833333333334
            },
            {
              "pitch": 59,
              "velocity": 50,
              "position": 0,
              "duration": 0.7395833333333334
            },
            {
              "pitch": 64,
              "velocity": 47,
              "position": 0,
              "duration": 0.7416666666666667
            },
            {
              "pitch": 60,
              "velocity": 48,
              "position": 0.010416666666666666,
              "duration": 0.7395833333333334
            },
            {
              "pitch": 48,
              "velocity": 40,
              "position": 0.7708333333333334,
              "duration": 0.21875
            },
            {
              "pitch": 55,
              "velocity": 40,
              "position": 0.7708333333333334,
              "duration": 0.21875
            },
            {
              "pitch": 59,
              "velocity": 40,
              "position": 0.7708333333333334,
              "duration": 0.21875
            },
            {
              "pitch": 64,
              "velocity": 40,
              "position": 0.75,
              "duration": 0.24166666666666667
            },
            {
              "pitch": 60,
              "velocity": 41,
              "position": 0.7604166666666666,
              "duration": 0.23958333333333334
            },
            {
              "pitch": 67,
              "velocity": 39,
              "position": 0.75,
              "duration": 0.2604166666666667
            },
            {
              "pitch": 71,
              "velocity": 39,
              "position": 0.75,
              "duration": 0.2604166666666667
            },
            {
              "pitch": 48,
              "velocity": 50,
              "position": 1,
              "duration": 0.125
            },
            {
              "pitch": 55,
              "velocity": 50,
              "position": 1,
              "duration": 0.125
            },
            {
              "pitch": 59,
              "velocity": 50,
              "position": 1,
              "duration": 0.125
            },
            {
              "pitch": 60,
              "velocity": 50,
              "position": 1.0104166666666667,
              "duration": 0.125
            },
            {
              "pitch": 67,
              "velocity": 50,
              "position": 1.0208333333333333,
              "duration": 0.125
            },
            {
              "pitch": 71,
              "velocity": 50,
              "position": 1.0208333333333333,
              "duration": 0.125
            },
            {
              "pitch": 64,
              "velocity": 49,
              "position": 1,
              "duration": 0.20625
            },
            {
              "pitch": 48,
              "velocity": 50,
              "position": 1.5,
              "duration": 1.4895833333333333
            },
            {
              "pitch": 55,
              "velocity": 50,
              "position": 1.5,
              "duration": 1.4895833333333333
            },
            {
              "pitch": 59,
              "velocity": 50,
              "position": 1.5,
              "duration": 1.4895833333333333
            },
            {
              "pitch": 67,
              "velocity": 50,
              "position": 1.5208333333333333,
              "duration": 1.46875
            },
            {
              "pitch": 71,
              "velocity": 50,
              "position": 1.5208333333333333,
              "duration": 1.46875
            },
            {
              "pitch": 60,
              "velocity": 50,
              "position": 1.5104166666666667,
              "duration": 1.4895833333333333
            },
            {
              "pitch": 64,
              "velocity": 49,
              "position": 1.5,
              "duration": 1.5708333333333333
            }
          ]
        },
        "14": {
          "ctab": {
            "srcChannel": 14,
            "name": "Gt_Ba",
            "accType": "PHRASE1",
            "editable": false,
            "mutedNotes": [],
            "mutedChords": [],
            "autoStart": false,
            "sourceChordNote": 0,
            "sourceChordType": "Maj7",
            "ctb2Low": null,
            "ctb2Main": {
              "ntr": "ROOT_TRANSPOSITION",
              "ntt": "MELODY",
              "bassOn": true,
              "chordRootUpperLimit": 8,
              "noteLowLimit": 40,
              "noteHighLimit": 52,
              "rtr": "PITCH_SHIFT_TO_ROOT"
            },
            "ctb2High": null
          },
          "notes": [
            {
              "pitch": 48,
              "velocity": 84,
              "position": 0,
              "duration": 0.71875
            },
            {
              "pitch": 48,
              "velocity": 70,
              "position": 0.75,
              "duration": 0.21875
            },
            {
              "pitch": 43,
              "velocity": 79,
              "position": 1,
              "duration": 0.22916666666666666
            }
          ]
        },
        "15": {
          "ctab": {
            "srcChannel": 15,
            "name": "Gt_Arp",
            "accType": "PHRASE2",
            "editable": false,
            "mutedNotes": [],
            "mutedChords": [],
            "autoStart": false,
            "sourceChordNote": 0,
            "sourceChordType": "Maj7",
            "ctb2Low": null,
            "ctb2Main": {
              "ntr": "ROOT_TRANSPOSITION",
              "ntt": "CHORD",
              "bassOn": false,
              "chordRootUpperLimit": 8,
              "noteLowLimit": 0,
              "noteHighLimit": 127,
              "rtr": "PITCH_SHIFT"
            },
            "ctb2High": null
          },
          "notes": [
            {
              "pitch": 60,
              "velocity": 83,
              "position": 0.25,
              "duration": 0.9895833333333334
            },
            {
              "pitch": 55,
              "velocity": 70,
              "position": 0.5,
              "duration": 0.9895833333333334
            },
            {
              "pitch": 59,
              "velocity": 70,
              "position": 0.5,
              "duration": 0.9895833333333334
            },
            {
              "pitch": 60,
              "velocity": 65,
              "position": 1.25,
              "duration": 0.23958333333333334
            },
            {
              "pitch": 64,
              "velocity": 91,
              "position": 0.75,
              "duration": 0.7395833333333334
            },
            {
              "pitch": 52,
              "velocity": 84,
              "position": 1.5,
              "duration": 1.46875
            },
            {
              "pitch": 55,
              "velocity": 96,
              "position": 1.5,
              "duration": 1.5
            },
            {
              "pitch": 59,
              "velocity": 96,
              "position": 1.5,
              "duration": 1.5
            },
            {
              "pitch": 60,
              "velocity": 83,
              "position": 1.5208333333333333,
              "duration": 1.4791666666666667
            },
            {
              "pitch": 64,
              "velocity": 83,
              "position": 1.5416666666666667,
              "duration": 1.4583333333333333
            }
          ]
        }
      }
    },
    "Intro_B": {
      "type": "Intro_B",
      "sizeInBeats": 8,
      "channels": {
        "2": {
          "ctab": {
            "srcChannel": 2,
            "name": "Bass min",
            "accType": "BASS",
            "editable": false,
            "mutedNotes": [],
            "mutedChords": [
              "1+2+5",
              "sus4",
              "1+5",
              "1+8",
              "7aug",
              "Maj7aug",
              "7(#9)",
              "7(b13)",
              "7(b9)",
              "7(13)",
              "7#11",
              "7(9)",
              "7b5",
              "7sus4",
              "7th",
              "aug",
              "Maj6(9)",
              "Maj7(9)",
              "Maj(9)",
              "Maj7#11",
              "Maj7",
              "Maj6",
              "Maj"
            ],
            "autoStart": false,
            "sourceChordNote": 0,
            "sourceChordType": "min",
            "ctb2Low": null,
            "ctb2Main": {
              "ntr": "ROOT_TRANSPOSITION",
              "ntt": "BYPASS",
              "bassOn": false,
              "chordRootUpperLimit": 5,
              "noteLowLimit": 28,
              "noteHighLimit": 60,
              "rtr": "PITCH_SHIFT"
            },
            "ctb2High": null
          },
          "notes": [
            {
              "pitch": 48,
              "velocity": 60,
              "position": 0,
              "duration": 1.9895833333333333
            },
            {
              "pitch": 46,
              "velocity": 60,
              "position": 2,
              "duration": 1.2395833333333333
            },
            {
              "pitch": 48,
              "velocity": 100,
              "position": 3.25,
              "duration": 0.25
            },
            {
              "pitch": 38,
              "velocity": 100,
              "position": 3.5,
              "duration": 0.25
            },
            {
              "pitch": 31,
              "velocity": 60,
              "position": 3.75,
              "duration": 0.23958333333333334
            },
            {
              "pitch": 29,
              "velocity": 60,
              "position": 4,
              "duration": 1.9895833333333333
            },
            {
              "pitch": 31,
              "velocity": 60,
              "position": 6,
              "duration": 0.4375
            },
            {
              "pitch": 31,
              "velocity": 60,
              "position": 6.5,
              "duration": 1.4895833333333333
            }
          ]
        },
        "3": {
          "ctab": {
            "srcChannel": 3,
            "name": "Gt_Stk m",
            "accType": "CHORD1",
            "editable": false,
            "mutedNotes": [],
            "mutedChords": [
              "1+2+5",
              "sus4",
              "1+5",
              "1+8",
              "7aug",
              "Maj7aug",
              "7(#9)",
              "7(b13)",
              "7(b9)",
              "7(13)",
              "7#11",
              "7(9)",
              "7b5",
              "7sus4",
              "7th",
              "aug",
              "Maj6(9)",
              "Maj7(9)",
              "Maj(9)",
              "Maj7#11",
              "Maj7",
              "Maj6",
              "Maj"
            ],
            "autoStart": false,
            "sourceChordNote": 0,
            "sourceChordType": "min",
            "ctb2Low": null,
            "ctb2Main": {
              "ntr": "ROOT_TRANSPOSITION",
              "ntt": "BYPASS",
              "bassOn": false,
              "chordRootUpperLimit": 7,
              "noteLowLimit": 46,
              "noteHighLimit": 69,
              "rtr": "PITCH_SHIFT"
            },
            "ctb2High": null
          },
          "notes": [
            {
              "pitch": 104,
              "velocity": 106,
              "position": 0,
              "duration": 0.10416666666666667
            },
            {
              "pitch": 101,
              "velocity": 43,
              "position": 0.25,
              "duration": 0.10416666666666667
            },
            {
              "pitch": 102,
              "velocity": 59,
              "position": 0.5,
              "duration": 0.10416666666666667
            },
            {
              "pitch": 55,
              "velocity": 50,
              "position": 0,
              "duration": 0.7395833333333334
            },
            {
              "pitch": 60,
              "velocity": 50,
              "position": 0.010416666666666666,
              "duration": 0.7395833333333334
            },
            {
              "pitch": 63,
              "velocity": 50,
              "position": 0.020833333333333332,
              "duration": 0.7395833333333334
            },
            {
              "pitch": 106,
              "velocity": 89,
              "position": 0.75,
              "duration": 0.10416666666666667
            },
            {
              "pitch": 101,
              "velocity": 59,
              "position": 1,
              "duration": 0.10416666666666667
            },
            {
              "pitch": 63,
              "velocity": 50,
              "position": 0.7708333333333334,
              "duration": 0.46875
            },
            {
              "pitch": 60,
              "velocity": 50,
              "position": 0.7604166666666666,
              "duration": 0.4895833333333333
            },
            {
              "pitch": 55,
              "velocity": 50,
              "position": 0.75,
              "duration": 0.5104166666666666
            },
            {
              "pitch": 105,
              "velocity": 91,
              "position": 1.25,
              "duration": 0.10416666666666667
            },
            {
              "pitch": 55,
              "velocity": 39,
              "position": 1.2708333333333333,
              "duration": 0.21875
            },
            {
              "pitch": 60,
              "velocity": 39,
              "position": 1.2604166666666667,
              "duration": 0.23958333333333334
            },
            {
              "pitch": 63,
              "velocity": 41,
              "position": 1.25,
              "duration": 0.2604166666666667
            },
            {
              "pitch": 104,
              "velocity": 104,
              "position": 1.5,
              "duration": 0.10416666666666667
            },
            {
              "pitch": 102,
              "velocity": 59,
              "position": 1.75,
              "duration": 0.10416666666666667
            },
            {
              "pitch": 55,
              "velocity": 50,
              "position": 1.5,
              "duration": 0.4895833333333333
            },
            {
              "pitch": 60,
              "velocity": 50,
              "position": 1.5104166666666667,
              "duration": 0.4895833333333333
            },
            {
              "pitch": 63,
              "velocity": 50,
              "position": 1.5208333333333333,
              "duration": 0.4895833333333333
            },
            {
              "pitch": 104,
              "velocity": 106,
              "position": 2,
              "duration": 0.10416666666666667
            },
            {
              "pitch": 121,
              "velocity": 76,
              "position": 1.75,
              "duration": 0.3541666666666667
            },
            {
              "pitch": 101,
              "velocity": 43,
              "position": 2.25,
              "duration": 0.10416666666666667
            },
            {
              "pitch": 102,
              "velocity": 59,
              "position": 2.5,
              "duration": 0.10416666666666667
            },
            {
              "pitch": 58,
              "velocity": 50,
              "position": 2,
              "duration": 0.7395833333333334
            },
            {
              "pitch": 63,
              "velocity": 50,
              "position": 2.0208333333333335,
              "duration": 0.7395833333333334
            },
            {
              "pitch": 67,
              "velocity": 50,
              "position": 2.0208333333333335,
              "duration": 0.7395833333333334
            },
            {
              "pitch": 106,
              "velocity": 89,
              "position": 2.75,
              "duration": 0.10416666666666667
            },
            {
              "pitch": 101,
              "velocity": 59,
              "position": 3,
              "duration": 0.10416666666666667
            },
            {
              "pitch": 63,
              "velocity": 50,
              "position": 2.7708333333333335,
              "duration": 0.46875
            },
            {
              "pitch": 67,
              "velocity": 50,
              "position": 2.7708333333333335,
              "duration": 0.46875
            },
            {
              "pitch": 58,
              "velocity": 50,
              "position": 2.75,
              "duration": 0.5104166666666666
            },
            {
              "pitch": 105,
              "velocity": 91,
              "position": 3.25,
              "duration": 0.10416666666666667
            },
            {
              "pitch": 58,
              "velocity": 39,
              "position": 3.2708333333333335,
              "duration": 0.21875
            },
            {
              "pitch": 63,
              "velocity": 41,
              "position": 3.25,
              "duration": 0.2604166666666667
            },
            {
              "pitch": 67,
              "velocity": 41,
              "position": 3.25,
              "duration": 0.2604166666666667
            },
            {
              "pitch": 104,
              "velocity": 104,
              "position": 3.5,
              "duration": 0.10416666666666667
            },
            {
              "pitch": 102,
              "velocity": 59,
              "position": 3.75,
              "duration": 0.10416666666666667
            },
            {
              "pitch": 58,
              "velocity": 50,
              "position": 3.5,
              "duration": 0.4895833333333333
            },
            {
              "pitch": 63,
              "velocity": 50,
              "position": 3.5208333333333335,
              "duration": 0.4895833333333333
            },
            {
              "pitch": 67,
              "velocity": 50,
              "position": 3.5208333333333335,
              "duration": 0.4895833333333333
            },
            {
              "pitch": 104,
              "velocity": 106,
              "position": 4,
              "duration": 0.10416666666666667
            },
            {
              "pitch": 124,
              "velocity": 76,
              "position": 3.75,
              "duration": 0.3541666666666667
            },
            {
              "pitch": 101,
              "velocity": 43,
              "position": 4.25,
              "duration": 0.10416666666666667
            },
            {
              "pitch": 102,
              "velocity": 59,
              "position": 4.5,
              "duration": 0.10416666666666667
            },
            {
              "pitch": 68,
              "velocity": 50,
              "position": 4.020833333333333,
              "duration": 0.71875
            },
            {
              "pitch": 60,
              "velocity": 50,
              "position": 4.010416666666667,
              "duration": 0.7395833333333334
            },
            {
              "pitch": 53,
              "velocity": 50,
              "position": 4,
              "duration": 0.7604166666666666
            },
            {
              "pitch": 106,
              "velocity": 86,
              "position": 4.75,
              "duration": 0.10416666666666667
            },
            {
              "pitch": 101,
              "velocity": 59,
              "position": 5,
              "duration": 0.10416666666666667
            },
            {
              "pitch": 68,
              "velocity": 50,
              "position": 4.75,
              "duration": 0.4895833333333333
            },
            {
              "pitch": 60,
              "velocity": 50,
              "position": 4.760416666666667,
              "duration": 0.4895833333333333
            },
            {
              "pitch": 53,
              "velocity": 50,
              "position": 4.770833333333333,
              "duration": 0.4895833333333333
            },
            {
              "pitch": 105,
              "velocity": 89,
              "position": 5.25,
              "duration": 0.10416666666666667
            },
            {
              "pitch": 53,
              "velocity": 42,
              "position": 5.270833333333333,
              "duration": 0.21875
            },
            {
              "pitch": 60,
              "velocity": 38,
              "position": 5.260416666666667,
              "duration": 0.23958333333333334
            },
            {
              "pitch": 68,
              "velocity": 38,
              "position": 5.25,
              "duration": 0.2604166666666667
            },
            {
              "pitch": 104,
              "velocity": 101,
              "position": 5.5,
              "duration": 0.10416666666666667
            },
            {
              "pitch": 102,
              "velocity": 59,
              "position": 5.75,
              "duration": 0.10416666666666667
            },
            {
              "pitch": 53,
              "velocity": 50,
              "position": 5.5,
              "duration": 0.4895833333333333
            },
            {
              "pitch": 60,
              "velocity": 50,
              "position": 5.510416666666667,
              "duration": 0.4895833333333333
            },
            {
              "pitch": 68,
              "velocity": 50,
              "position": 5.520833333333333,
              "duration": 0.4895833333333333
            },
            {
              "pitch": 104,
              "velocity": 106,
              "position": 6,
              "duration": 0.10416666666666667
            },
            {
              "pitch": 120,
              "velocity": 76,
              "position": 5.75,
              "duration": 0.3541666666666667
            },
            {
              "pitch": 111,
              "velocity": 41,
              "position": 6.25,
              "duration": 0.10416666666666667
            },
            {
              "pitch": 55,
              "velocity": 50,
              "position": 6,
              "duration": 0.4895833333333333
            },
            {
              "pitch": 60,
              "velocity": 50,
              "position": 6.010416666666667,
              "duration": 0.4895833333333333
            },
            {
              "pitch": 63,
              "velocity": 50,
              "position": 6.020833333333333,
              "duration": 0.4895833333333333
            },
            {
              "pitch": 106,
              "velocity": 85,
              "position": 6.5,
              "duration": 0.10416666666666667
            },
            {
              "pitch": 121,
              "velocity": 42,
              "position": 6.25,
              "duration": 0.3541666666666667
            },
            {
              "pitch": 117,
              "velocity": 85,
              "position": 7.5,
              "duration": 0.10416666666666667
            },
            {
              "pitch": 55,
              "velocity": 50,
              "position": 6.5,
              "duration": 1.4895833333333333
            },
            {
              "pitch": 59,
              "velocity": 50,
              "position": 6.510416666666667,
              "duration": 1.4895833333333333
            },
            {
              "pitch": 62,
              "velocity": 50,
              "position": 6.520833333333333,
              "duration": 1.4791666666666667
            }
          ]
        },
        "4": {
          "ctab": {
            "srcChannel": 4,
            "name": "Lead min",
            "accType": "CHORD2",
            "editable": true,
            "mutedNotes": [],
            "mutedChords": [
              "1+2+5",
              "sus4",
              "1+5",
              "1+8",
              "7aug",
              "Maj7aug",
              "7(#9)",
              "7(b13)",
              "7(b9)",
              "7(13)",
              "7#11",
              "7(9)",
              "7b5",
              "7sus4",
              "7th",
              "aug",
              "Maj6(9)",
              "Maj7(9)",
              "Maj(9)",
              "Maj7#11",
              "Maj7",
              "Maj6",
              "Maj"
            ],
            "autoStart": false,
            "sourceChordNote": 0,
            "sourceChordType": "min",
            "ctb2Low": null,
            "ctb2Main": {
              "ntr": "ROOT_TRANSPOSITION",
              "ntt": "BYPASS",
              "bassOn": false,
              "chordRootUpperLimit": 7,
              "noteLowLimit": 51,
              "noteHighLimit": 74,
              "rtr": "PITCH_SHIFT"
            },
            "ctb2High": null
          },
          "notes": [
            {
              "pitch": 60,
              "velocity": 56,
              "position": 0,
              "duration": 0.4895833333333333
            },
            {
              "pitch": 60,
              "velocity": 86,
              "position": 0.5,
              "duration": 0.10416666666666667
            },
            {
              "pitch": 62,
              "velocity": 50,
              "position": 0.75,
              "duration": 0.4895833333333333
            },
            {
              "pitch": 60,
              "velocity": 50,
              "position": 1.25,
              "duration": 0.4895833333333333
            },
            {
              "pitch": 67,
              "velocity": 118,
              "position": 1.75,
              "duration": 0.4895833333333333
            },
            {
              "pitch": 60,
              "velocity": 52,
              "position": 2.25,
              "duration": 0.4791666666666667
            },
            {
              "pitch": 62,
              "velocity": 42,
              "position": 2.75,
              "duration": 0.4895833333333333
            },
            {
              "pitch": 60,
              "velocity": 56,
              "position": 3.25,
              "duration": 0.4895833333333333
            },
            {
              "pitch": 55,
              "velocity": 38,
              "position": 3.75,
              "duration": 0.23958333333333334
            },
            {
              "pitch": 65,
              "velocity": 60,
              "position": 4,
              "duration": 0.23958333333333334
            },
            {
              "pitch": 67,
              "velocity": 100,
              "position": 4.25,
              "duration": 0.23958333333333334
            },
            {
              "pitch": 65,
              "velocity": 40,
              "position": 4.5,
              "duration": 0.23958333333333334
            },
            {
              "pitch": 63,
              "velocity": 52,
              "position": 4.75,
              "duration": 0.23958333333333334
            },
            {
              "pitch": 63,
              "velocity": 86,
              "position": 5,
              "duration": 0.10416666666666667
            },
            {
              "pitch": 62,
              "velocity": 52,
              "position": 5.25,
              "duration": 0.4895833333333333
            },
            {
              "pitch": 60,
              "velocity": 55,
              "position": 5.75,
              "duration": 0.23958333333333334
            },
            {
              "pitch": 60,
              "velocity": 56,
              "position": 6,
              "duration": 0.23958333333333334
            },
            {
              "pitch": 63,
              "velocity": 56,
              "position": 6,
              "duration": 0.23958333333333334
            },
            {
              "pitch": 60,
              "velocity": 84,
              "position": 6.25,
              "duration": 0.10416666666666667
            },
            {
              "pitch": 59,
              "velocity": 50,
              "position": 6.520833333333333,
              "duration": 1.46875
            },
            {
              "pitch": 62,
              "velocity": 50,
              "position": 6.520833333333333,
              "duration": 1.46875
            }
          ]
        },
        "6": {
          "ctab": {
            "srcChannel": 6,
            "name": "Gt_Ba m",
            "accType": "PHRASE1",
            "editable": false,
            "mutedNotes": [],
            "mutedChords": [
              "1+2+5",
              "sus4",
              "1+5",
              "1+8",
              "7aug",
              "Maj7aug",
              "7(#9)",
              "7(b13)",
              "7(b9)",
              "7(13)",
              "7#11",
              "7(9)",
              "7b5",
              "7sus4",
              "7th",
              "aug",
              "Maj6(9)",
              "Maj7(9)",
              "Maj(9)",
              "Maj7#11",
              "Maj7",
              "Maj6",
              "Maj"
            ],
            "autoStart": false,
            "sourceChordNote": 0,
            "sourceChordType": "min",
            "ctb2Low": null,
            "ctb2Main": {
              "ntr": "ROOT_TRANSPOSITION",
              "ntt": "BYPASS",
              "bassOn": false,
              "chordRootUpperLimit": 8,
              "noteLowLimit": 42,
              "noteHighLimit": 65,
              "rtr": "PITCH_SHIFT"
            },
            "ctb2High": null
          },
          "notes": [
            {
              "pitch": 48,
              "velocity": 72,
              "position": 0,
              "duration": 1.9895833333333333
            },
            {
              "pitch": 55,
              "velocity": 72,
              "position": 1,
              "duration": 1.9895833333333333
            },
            {
              "pitch": 46,
              "velocity": 72,
              "position": 2,
              "duration": 1.9895833333333333
            },
            {
              "pitch": 55,
              "velocity": 72,
              "position": 3,
              "duration": 0.9895833333333334
            },
            {
              "pitch": 53,
              "velocity": 72,
              "position": 4,
              "duration": 1.9895833333333333
            },
            {
              "pitch": 56,
              "velocity": 72,
              "position": 5,
              "duration": 0.9895833333333334
            },
            {
              "pitch": 43,
              "velocity": 80,
              "position": 6,
              "duration": 0.46875
            },
            {
              "pitch": 55,
              "velocity": 80,
              "position": 6.5,
              "duration": 0.96875
            },
            {
              "pitch": 43,
              "velocity": 75,
              "position": 7.5,
              "duration": 0.4791666666666667
            }
          ]
        },
        "7": {
          "ctab": {
            "srcChannel": 7,
            "name": "Gt_Arp m",
            "accType": "PHRASE2",
            "editable": false,
            "mutedNotes": [],
            "mutedChords": [
              "1+2+5",
              "sus4",
              "1+5",
              "1+8",
              "7aug",
              "Maj7aug",
              "7(#9)",
              "7(b13)",
              "7(b9)",
              "7(13)",
              "7#11",
              "7(9)",
              "7b5",
              "7sus4",
              "7th",
              "aug",
              "Maj6(9)",
              "Maj7(9)",
              "Maj(9)",
              "Maj7#11",
              "Maj7",
              "Maj6",
              "Maj"
            ],
            "autoStart": false,
            "sourceChordNote": 0,
            "sourceChordType": "min",
            "ctb2Low": null,
            "ctb2Main": {
              "ntr": "ROOT_TRANSPOSITION",
              "ntt": "BYPASS",
              "bassOn": false,
              "chordRootUpperLimit": 7,
              "noteLowLimit": 54,
              "noteHighLimit": 65,
              "rtr": "PITCH_SHIFT"
            },
            "ctb2High": null
          },
          "notes": [
            {
              "pitch": 63,
              "velocity": 65,
              "position": 0,
              "duration": 0.7395833333333334
            },
            {
              "pitch": 63,
              "velocity": 65,
              "position": 0.75,
              "duration": 0.4895833333333333
            },
            {
              "pitch": 60,
              "velocity": 53,
              "position": 0.5,
              "duration": 0.9895833333333334
            },
            {
              "pitch": 55,
              "velocity": 43,
              "position": 0.25,
              "duration": 1.4895833333333333
            },
            {
              "pitch": 63,
              "velocity": 57,
              "position": 1.25,
              "duration": 0.7395833333333334
            },
            {
              "pitch": 58,
              "velocity": 60,
              "position": 1.75,
              "duration": 0.4895833333333333
            },
            {
              "pitch": 60,
              "velocity": 60,
              "position": 1.5,
              "duration": 0.9895833333333334
            },
            {
              "pitch": 63,
              "velocity": 65,
              "position": 2,
              "duration": 0.7395833333333334
            },
            {
              "pitch": 63,
              "velocity": 65,
              "position": 2.75,
              "duration": 0.4895833333333333
            },
            {
              "pitch": 60,
              "velocity": 53,
              "position": 2.5,
              "duration": 0.9895833333333334
            },
            {
              "pitch": 55,
              "velocity": 43,
              "position": 2.25,
              "duration": 1.4895833333333333
            },
            {
              "pitch": 63,
              "velocity": 57,
              "position": 3.25,
              "duration": 0.7395833333333334
            },
            {
              "pitch": 55,
              "velocity": 64,
              "position": 3.75,
              "duration": 0.4895833333333333
            },
            {
              "pitch": 60,
              "velocity": 60,
              "position": 3.5,
              "duration": 0.9895833333333334
            },
            {
              "pitch": 65,
              "velocity": 72,
              "position": 4,
              "duration": 0.7395833333333334
            },
            {
              "pitch": 65,
              "velocity": 78,
              "position": 4.75,
              "duration": 0.4895833333333333
            },
            {
              "pitch": 60,
              "velocity": 64,
              "position": 4.5,
              "duration": 0.9895833333333334
            },
            {
              "pitch": 56,
              "velocity": 53,
              "position": 4.25,
              "duration": 1.4895833333333333
            },
            {
              "pitch": 56,
              "velocity": 64,
              "position": 5.75,
              "duration": 0.23958333333333334
            },
            {
              "pitch": 65,
              "velocity": 71,
              "position": 5.25,
              "duration": 0.7395833333333334
            },
            {
              "pitch": 60,
              "velocity": 57,
              "position": 5.5,
              "duration": 0.9895833333333334
            },
            {
              "pitch": 63,
              "velocity": 87,
              "position": 6,
              "duration": 0.4895833333333333
            },
            {
              "pitch": 55,
              "velocity": 64,
              "position": 6.25,
              "duration": 1.7395833333333333
            },
            {
              "pitch": 59,
              "velocity": 73,
              "position": 6.5,
              "duration": 1.4895833333333333
            },
            {
              "pitch": 62,
              "velocity": 86,
              "position": 6.5,
              "duration": 1.4895833333333333
            }
          ]
        },
        "8": {
          "ctab": {
            "srcChannel": 8,
            "name": "AddDrum",
            "accType": "SUBRHYTHM",
            "editable": false,
            "mutedNotes": [],
            "mutedChords": [],
            "autoStart": true,
            "sourceChordNote": 0,
            "sourceChordType": "Maj7",
            "ctb2Low": null,
            "ctb2Main": {
              "ntr": "ROOT_FIXED",
              "ntt": "BYPASS",
              "bassOn": false,
              "chordRootUpperLimit": 6,
              "noteLowLimit": 0,
              "noteHighLimit": 127,
              "rtr": "PITCH_SHIFT"
            },
            "ctb2High": null
          },
          "notes": [
            {
              "pitch": 70,
              "velocity": 60,
              "position": 0,
              "duration": 0.07291666666666667
            },
            {
              "pitch": 69,
              "velocity": 60,
              "position": 0.25,
              "duration": 0.07291666666666667
            },
            {
              "pitch": 70,
              "velocity": 98,
              "position": 0.5,
              "duration": 0.07291666666666667
            },
            {
              "pitch": 70,
              "velocity": 52,
              "position": 0.75,
              "duration": 0.07291666666666667
            },
            {
              "pitch": 70,
              "velocity": 60,
              "position": 1,
              "duration": 0.07291666666666667
            },
            {
              "pitch": 70,
              "velocity": 101,
              "position": 1.5,
              "duration": 0.07291666666666667
            },
            {
              "pitch": 70,
              "velocity": 48,
              "position": 1.75,
              "duration": 0.07291666666666667
            },
            {
              "pitch": 70,
              "velocity": 60,
              "position": 2,
              "duration": 0.07291666666666667
            },
            {
              "pitch": 69,
              "velocity": 60,
              "position": 2.25,
              "duration": 0.07291666666666667
            },
            {
              "pitch": 70,
              "velocity": 95,
              "position": 2.5,
              "duration": 0.07291666666666667
            },
            {
              "pitch": 70,
              "velocity": 54,
              "position": 2.75,
              "duration": 0.07291666666666667
            },
            {
              "pitch": 70,
              "velocity": 60,
              "position": 3,
              "duration": 0.07291666666666667
            },
            {
              "pitch": 70,
              "velocity": 107,
              "position": 3.5,
              "duration": 0.07291666666666667
            },
            {
              "pitch": 70,
              "velocity": 53,
              "position": 3.75,
              "duration": 0.07291666666666667
            },
            {
              "pitch": 70,
              "velocity": 60,
              "position": 4,
              "duration": 0.07291666666666667
            },
            {
              "pitch": 69,
              "velocity": 60,
              "position": 4.25,
              "duration": 0.07291666666666667
            },
            {
              "pitch": 70,
              "velocity": 107,
              "position": 4.5,
              "duration": 0.07291666666666667
            },
            {
              "pitch": 70,
              "velocity": 50,
              "position": 4.75,
              "duration": 0.07291666666666667
            },
            {
              "pitch": 70,
              "velocity": 60,
              "position": 5,
              "duration": 0.07291666666666667
            },
            {
              "pitch": 70,
              "velocity": 95,
              "position": 5.5,
              "duration": 0.07291666666666667
            },
            {
              "pitch": 62,
              "velocity": 108,
              "position": 5.5,
              "duration": 0.08333333333333333
            },
            {
              "pitch": 62,
              "velocity": 53,
              "position": 5.625,
              "duration": 0.08333333333333333
            },
            {
              "pitch": 70,
              "velocity": 41,
              "position": 5.75,
              "duration": 0.07291666666666667
            },
            {
              "pitch": 62,
              "velocity": 58,
              "position": 5.75,
              "duration": 0.08333333333333333
            },
            {
              "pitch": 70,
              "velocity": 60,
              "position": 6,
              "duration": 0.07291666666666667
            },
            {
              "pitch": 63,
              "velocity": 94,
              "position": 6,
              "duration": 0.08333333333333333
            },
            {
              "pitch": 69,
              "velocity": 60,
              "position": 6.25,
              "duration": 0.07291666666666667
            },
            {
              "pitch": 63,
              "velocity": 56,
              "position": 6.25,
              "duration": 0.08333333333333333
            },
            {
              "pitch": 54,
              "velocity": 71,
              "position": 6.489583333333333,
              "duration": 0.052083333333333336
            },
            {
              "pitch": 70,
              "velocity": 98,
              "position": 6.5,
              "duration": 0.07291666666666667
            },
            {
              "pitch": 64,
              "velocity": 42,
              "position": 6.5,
              "duration": 0.08333333333333333
            },
            {
              "pitch": 54,
              "velocity": 58,
              "position": 6.739583333333333,
              "duration": 0.052083333333333336
            },
            {
              "pitch": 70,
              "velocity": 48,
              "position": 6.75,
              "duration": 0.07291666666666667
            },
            {
              "pitch": 64,
              "velocity": 74,
              "position": 6.75,
              "duration": 0.08333333333333333
            },
            {
              "pitch": 70,
              "velocity": 60,
              "position": 7,
              "duration": 0.07291666666666667
            },
            {
              "pitch": 64,
              "velocity": 42,
              "position": 7,
              "duration": 0.08333333333333333
            },
            {
              "pitch": 62,
              "velocity": 46,
              "position": 7.25,
              "duration": 0.08333333333333333
            },
            {
              "pitch": 54,
              "velocity": 71,
              "position": 7.489583333333333,
              "duration": 0.052083333333333336
            },
            {
              "pitch": 70,
              "velocity": 100,
              "position": 7.5,
              "duration": 0.07291666666666667
            },
            {
              "pitch": 62,
              "velocity": 117,
              "position": 7.5,
              "duration": 0.08333333333333333
            },
            {
              "pitch": 70,
              "velocity": 50,
              "position": 7.75,
              "duration": 0.07291666666666667
            },
            {
              "pitch": 62,
              "velocity": 67,
              "position": 7.75,
              "duration": 0.08333333333333333
            }
          ]
        },
        "9": {
          "ctab": {
            "srcChannel": 9,
            "name": "MainDrum",
            "accType": "RHYTHM",
            "editable": false,
            "mutedNotes": [],
            "mutedChords": [],
            "autoStart": true,
            "sourceChordNote": 0,
            "sourceChordType": "Maj7",
            "ctb2Low": null,
            "ctb2Main": {
              "ntr": "ROOT_FIXED",
              "ntt": "BYPASS",
              "bassOn": false,
              "chordRootUpperLimit": 6,
              "noteLowLimit": 0,
              "noteHighLimit": 127,
              "rtr": "PITCH_SHIFT"
            },
            "ctb2High": null
          },
          "notes": [
            {
              "pitch": 42,
              "velocity": 42,
              "position": 0,
              "duration": 0.052083333333333336
            },
            {
              "pitch": 42,
              "velocity": 35,
              "position": 0.2604166666666667,
              "duration": 0.052083333333333336
            },
            {
              "pitch": 42,
              "velocity": 77,
              "position": 0.5,
              "duration": 0.052083333333333336
            },
            {
              "pitch": 36,
              "velocity": 52,
              "position": 0.7604166666666666,
              "duration": 0.052083333333333336
            },
            {
              "pitch": 42,
              "velocity": 25,
              "position": 0.7604166666666666,
              "duration": 0.052083333333333336
            },
            {
              "pitch": 36,
              "velocity": 82,
              "position": 1,
              "duration": 0.052083333333333336
            },
            {
              "pitch": 42,
              "velocity": 60,
              "position": 1,
              "duration": 0.052083333333333336
            },
            {
              "pitch": 42,
              "velocity": 37,
              "position": 1.2604166666666667,
              "duration": 0.052083333333333336
            },
            {
              "pitch": 42,
              "velocity": 81,
              "position": 1.5,
              "duration": 0.052083333333333336
            },
            {
              "pitch": 45,
              "velocity": 72,
              "position": 1.5,
              "duration": 0.25
            },
            {
              "pitch": 42,
              "velocity": 18,
              "position": 1.7604166666666667,
              "duration": 0.052083333333333336
            },
            {
              "pitch": 42,
              "velocity": 41,
              "position": 2,
              "duration": 0.052083333333333336
            },
            {
              "pitch": 42,
              "velocity": 30,
              "position": 2.2604166666666665,
              "duration": 0.052083333333333336
            },
            {
              "pitch": 42,
              "velocity": 81,
              "position": 2.5,
              "duration": 0.052083333333333336
            },
            {
              "pitch": 36,
              "velocity": 52,
              "position": 2.7604166666666665,
              "duration": 0.052083333333333336
            },
            {
              "pitch": 42,
              "velocity": 20,
              "position": 2.7604166666666665,
              "duration": 0.052083333333333336
            },
            {
              "pitch": 36,
              "velocity": 82,
              "position": 3,
              "duration": 0.052083333333333336
            },
            {
              "pitch": 42,
              "velocity": 60,
              "position": 3,
              "duration": 0.052083333333333336
            },
            {
              "pitch": 42,
              "velocity": 39,
              "position": 3.2604166666666665,
              "duration": 0.052083333333333336
            },
            {
              "pitch": 46,
              "velocity": 72,
              "position": 3.5,
              "duration": 0.052083333333333336
            },
            {
              "pitch": 41,
              "velocity": 72,
              "position": 3.5,
              "duration": 0.25
            },
            {
              "pitch": 42,
              "velocity": 68,
              "position": 3.7604166666666665,
              "duration": 0.052083333333333336
            },
            {
              "pitch": 42,
              "velocity": 45,
              "position": 4,
              "duration": 0.052083333333333336
            },
            {
              "pitch": 52,
              "velocity": 70,
              "position": 4,
              "duration": 0.052083333333333336
            },
            {
              "pitch": 42,
              "velocity": 37,
              "position": 4.260416666666667,
              "duration": 0.052083333333333336
            },
            {
              "pitch": 42,
              "velocity": 80,
              "position": 4.5,
              "duration": 0.052083333333333336
            },
            {
              "pitch": 36,
              "velocity": 52,
              "position": 4.760416666666667,
              "duration": 0.052083333333333336
            },
            {
              "pitch": 42,
              "velocity": 25,
              "position": 4.760416666666667,
              "duration": 0.052083333333333336
            },
            {
              "pitch": 36,
              "velocity": 82,
              "position": 5,
              "duration": 0.052083333333333336
            },
            {
              "pitch": 42,
              "velocity": 62,
              "position": 5,
              "duration": 0.052083333333333336
            },
            {
              "pitch": 42,
              "velocity": 30,
              "position": 5.260416666666667,
              "duration": 0.052083333333333336
            },
            {
              "pitch": 42,
              "velocity": 79,
              "position": 5.5,
              "duration": 0.052083333333333336
            },
            {
              "pitch": 40,
              "velocity": 92,
              "position": 5.760416666666667,
              "duration": 0.052083333333333336
            },
            {
              "pitch": 42,
              "velocity": 19,
              "position": 5.760416666666667,
              "duration": 0.052083333333333336
            },
            {
              "pitch": 36,
              "velocity": 82,
              "position": 6,
              "duration": 0.052083333333333336
            },
            {
              "pitch": 42,
              "velocity": 44,
              "position": 6,
              "duration": 0.052083333333333336
            },
            {
              "pitch": 49,
              "velocity": 80,
              "position": 6,
              "duration": 0.052083333333333336
            },
            {
              "pitch": 36,
              "velocity": 82,
              "position": 6.5,
              "duration": 0.052083333333333336
            },
            {
              "pitch": 42,
              "velocity": 83,
              "position": 6.5,
              "duration": 0.052083333333333336
            },
            {
              "pitch": 48,
              "velocity": 72,
              "position": 6.5,
              "duration": 0.052083333333333336
            },
            {
              "pitch": 55,
              "velocity": 70,
              "position": 6.5,
              "duration": 0.052083333333333336
            },
            {
              "pitch": 36,
              "velocity": 82,
              "position": 6.760416666666667,
              "duration": 0.052083333333333336
            },
            {
              "pitch": 47,
              "velocity": 80,
              "position": 7.260416666666667,
              "duration": 0.052083333333333336
            },
            {
              "pitch": 45,
              "velocity": 76,
              "position": 7.5,
              "duration": 0.052083333333333336
            },
            {
              "pitch": 40,
              "velocity": 76,
              "position": 7.760416666666667,
              "duration": 0.052083333333333336
            },
            {
              "pitch": 49,
              "velocity": 80,
              "position": 7.989583333333333,
              "duration": 0.010416666666666666
            }
          ]
        },
        "10": {
          "ctab": {
            "srcChannel": 10,
            "name": "Bass Maj",
            "accType": "BASS",
            "editable": false,
            "mutedNotes": [],
            "mutedChords": [
              "dim7",
              "dim",
              "minMaj7(9)",
              "minMaj7",
              "min7(11)",
              "min7(9)",
              "min(9)",
              "m7b5",
              "min7",
              "min6",
              "min"
            ],
            "autoStart": false,
            "sourceChordNote": 0,
            "sourceChordType": "Maj",
            "ctb2Low": null,
            "ctb2Main": {
              "ntr": "ROOT_TRANSPOSITION",
              "ntt": "BYPASS",
              "bassOn": false,
              "chordRootUpperLimit": 5,
              "noteLowLimit": 28,
              "noteHighLimit": 55,
              "rtr": "PITCH_SHIFT"
            },
            "ctb2High": null
          },
          "notes": [
            {
              "pitch": 48,
              "velocity": 60,
              "position": 0,
              "duration": 1.9895833333333333
            },
            {
              "pitch": 52,
              "velocity": 45,
              "position": 2,
              "duration": 1.2395833333333333
            },
            {
              "pitch": 47,
              "velocity": 104,
              "position": 3.25,
              "duration": 0.25
            },
            {
              "pitch": 38,
              "velocity": 101,
              "position": 3.5,
              "duration": 0.25
            },
            {
              "pitch": 28,
              "velocity": 60,
              "position": 3.7604166666666665,
              "duration": 0.22916666666666666
            },
            {
              "pitch": 29,
              "velocity": 60,
              "position": 4,
              "duration": 1.9895833333333333
            },
            {
              "pitch": 31,
              "velocity": 60,
              "position": 6,
              "duration": 0.4375
            },
            {
              "pitch": 31,
              "velocity": 60,
              "position": 6.5,
              "duration": 1.4895833333333333
            }
          ]
        },
        "11": {
          "ctab": {
            "srcChannel": 11,
            "name": "Gt_Stk M",
            "accType": "CHORD1",
            "editable": false,
            "mutedNotes": [],
            "mutedChords": [
              "dim7",
              "dim",
              "minMaj7(9)",
              "minMaj7",
              "min7(11)",
              "min7(9)",
              "min(9)",
              "m7b5",
              "min7",
              "min6",
              "min"
            ],
            "autoStart": false,
            "sourceChordNote": 0,
            "sourceChordType": "Maj",
            "ctb2Low": null,
            "ctb2Main": {
              "ntr": "ROOT_TRANSPOSITION",
              "ntt": "BYPASS",
              "bassOn": false,
              "chordRootUpperLimit": 5,
              "noteLowLimit": 46,
              "noteHighLimit": 70,
              "rtr": "PITCH_SHIFT"
            },
            "ctb2High": null
          },
          "notes": [
            {
              "pitch": 104,
              "velocity": 106,
              "position": 0,
              "duration": 0.10416666666666667
            },
            {
              "pitch": 101,
              "velocity": 43,
              "position": 0.25,
              "duration": 0.10416666666666667
            },
            {
              "pitch": 102,
              "velocity": 59,
              "position": 0.5,
              "duration": 0.10416666666666667
            },
            {
              "pitch": 55,
              "velocity": 50,
              "position": 0,
              "duration": 0.7395833333333334
            },
            {
              "pitch": 60,
              "velocity": 50,
              "position": 0.010416666666666666,
              "duration": 0.7395833333333334
            },
            {
              "pitch": 64,
              "velocity": 50,
              "position": 0.020833333333333332,
              "duration": 0.7395833333333334
            },
            {
              "pitch": 106,
              "velocity": 89,
              "position": 0.75,
              "duration": 0.10416666666666667
            },
            {
              "pitch": 101,
              "velocity": 59,
              "position": 1,
              "duration": 0.10416666666666667
            },
            {
              "pitch": 64,
              "velocity": 50,
              "position": 0.7708333333333334,
              "duration": 0.46875
            },
            {
              "pitch": 60,
              "velocity": 50,
              "position": 0.7604166666666666,
              "duration": 0.4895833333333333
            },
            {
              "pitch": 55,
              "velocity": 50,
              "position": 0.75,
              "duration": 0.5104166666666666
            },
            {
              "pitch": 105,
              "velocity": 91,
              "position": 1.25,
              "duration": 0.10416666666666667
            },
            {
              "pitch": 55,
              "velocity": 40,
              "position": 1.2708333333333333,
              "duration": 0.21875
            },
            {
              "pitch": 60,
              "velocity": 40,
              "position": 1.2604166666666667,
              "duration": 0.23958333333333334
            },
            {
              "pitch": 64,
              "velocity": 42,
              "position": 1.25,
              "duration": 0.2604166666666667
            },
            {
              "pitch": 104,
              "velocity": 104,
              "position": 1.5,
              "duration": 0.10416666666666667
            },
            {
              "pitch": 102,
              "velocity": 59,
              "position": 1.75,
              "duration": 0.10416666666666667
            },
            {
              "pitch": 55,
              "velocity": 50,
              "position": 1.5,
              "duration": 0.4895833333333333
            },
            {
              "pitch": 60,
              "velocity": 50,
              "position": 1.5104166666666667,
              "duration": 0.4895833333333333
            },
            {
              "pitch": 64,
              "velocity": 50,
              "position": 1.5208333333333333,
              "duration": 0.4895833333333333
            },
            {
              "pitch": 104,
              "velocity": 106,
              "position": 2,
              "duration": 0.10416666666666667
            },
            {
              "pitch": 121,
              "velocity": 76,
              "position": 1.75,
              "duration": 0.3541666666666667
            },
            {
              "pitch": 101,
              "velocity": 43,
              "position": 2.25,
              "duration": 0.10416666666666667
            },
            {
              "pitch": 102,
              "velocity": 59,
              "position": 2.5,
              "duration": 0.10416666666666667
            },
            {
              "pitch": 52,
              "velocity": 50,
              "position": 2,
              "duration": 0.7395833333333334
            },
            {
              "pitch": 62,
              "velocity": 50,
              "position": 2.0104166666666665,
              "duration": 0.7395833333333334
            },
            {
              "pitch": 64,
              "velocity": 50,
              "position": 2.0208333333333335,
              "duration": 0.7395833333333334
            },
            {
              "pitch": 67,
              "velocity": 50,
              "position": 2.0208333333333335,
              "duration": 0.7395833333333334
            },
            {
              "pitch": 106,
              "velocity": 89,
              "position": 2.75,
              "duration": 0.10416666666666667
            },
            {
              "pitch": 101,
              "velocity": 59,
              "position": 3,
              "duration": 0.10416666666666667
            },
            {
              "pitch": 64,
              "velocity": 50,
              "position": 2.7708333333333335,
              "duration": 0.46875
            },
            {
              "pitch": 67,
              "velocity": 50,
              "position": 2.7708333333333335,
              "duration": 0.46875
            },
            {
              "pitch": 60,
              "velocity": 50,
              "position": 2.7604166666666665,
              "duration": 0.4895833333333333
            },
            {
              "pitch": 52,
              "velocity": 50,
              "position": 2.75,
              "duration": 0.5104166666666666
            },
            {
              "pitch": 105,
              "velocity": 91,
              "position": 3.25,
              "duration": 0.10416666666666667
            },
            {
              "pitch": 52,
              "velocity": 39,
              "position": 3.2708333333333335,
              "duration": 0.21875
            },
            {
              "pitch": 60,
              "velocity": 39,
              "position": 3.2604166666666665,
              "duration": 0.23958333333333334
            },
            {
              "pitch": 64,
              "velocity": 41,
              "position": 3.25,
              "duration": 0.2604166666666667
            },
            {
              "pitch": 67,
              "velocity": 41,
              "position": 3.25,
              "duration": 0.2604166666666667
            },
            {
              "pitch": 104,
              "velocity": 104,
              "position": 3.5,
              "duration": 0.10416666666666667
            },
            {
              "pitch": 102,
              "velocity": 59,
              "position": 3.75,
              "duration": 0.10416666666666667
            },
            {
              "pitch": 52,
              "velocity": 50,
              "position": 3.5,
              "duration": 0.4895833333333333
            },
            {
              "pitch": 59,
              "velocity": 50,
              "position": 3.5104166666666665,
              "duration": 0.4895833333333333
            },
            {
              "pitch": 64,
              "velocity": 50,
              "position": 3.5208333333333335,
              "duration": 0.4895833333333333
            },
            {
              "pitch": 67,
              "velocity": 50,
              "position": 3.5208333333333335,
              "duration": 0.4895833333333333
            },
            {
              "pitch": 104,
              "velocity": 106,
              "position": 4,
              "duration": 0.10416666666666667
            },
            {
              "pitch": 124,
              "velocity": 76,
              "position": 3.75,
              "duration": 0.3541666666666667
            },
            {
              "pitch": 101,
              "velocity": 43,
              "position": 4.25,
              "duration": 0.10416666666666667
            },
            {
              "pitch": 102,
              "velocity": 59,
              "position": 4.5,
              "duration": 0.10416666666666667
            },
            {
              "pitch": 67,
              "velocity": 50,
              "position": 4.020833333333333,
              "duration": 0.71875
            },
            {
              "pitch": 60,
              "velocity": 50,
              "position": 4.010416666666667,
              "duration": 0.7395833333333334
            },
            {
              "pitch": 53,
              "velocity": 50,
              "position": 4,
              "duration": 0.7604166666666666
            },
            {
              "pitch": 106,
              "velocity": 86,
              "position": 4.75,
              "duration": 0.10416666666666667
            },
            {
              "pitch": 101,
              "velocity": 59,
              "position": 5,
              "duration": 0.10416666666666667
            },
            {
              "pitch": 67,
              "velocity": 50,
              "position": 4.75,
              "duration": 0.4895833333333333
            },
            {
              "pitch": 60,
              "velocity": 50,
              "position": 4.760416666666667,
              "duration": 0.4895833333333333
            },
            {
              "pitch": 53,
              "velocity": 50,
              "position": 4.770833333333333,
              "duration": 0.4895833333333333
            },
            {
              "pitch": 105,
              "velocity": 89,
              "position": 5.25,
              "duration": 0.10416666666666667
            },
            {
              "pitch": 53,
              "velocity": 43,
              "position": 5.270833333333333,
              "duration": 0.21875
            },
            {
              "pitch": 60,
              "velocity": 39,
              "position": 5.260416666666667,
              "duration": 0.23958333333333334
            },
            {
              "pitch": 67,
              "velocity": 42,
              "position": 5.25,
              "duration": 0.2604166666666667
            },
            {
              "pitch": 104,
              "velocity": 101,
              "position": 5.5,
              "duration": 0.10416666666666667
            },
            {
              "pitch": 102,
              "velocity": 59,
              "position": 5.75,
              "duration": 0.10416666666666667
            },
            {
              "pitch": 53,
              "velocity": 50,
              "position": 5.5,
              "duration": 0.4895833333333333
            },
            {
              "pitch": 60,
              "velocity": 50,
              "position": 5.510416666666667,
              "duration": 0.4895833333333333
            },
            {
              "pitch": 67,
              "velocity": 50,
              "position": 5.520833333333333,
              "duration": 0.4895833333333333
            },
            {
              "pitch": 104,
              "velocity": 106,
              "position": 6,
              "duration": 0.10416666666666667
            },
            {
              "pitch": 120,
              "velocity": 76,
              "position": 5.75,
              "duration": 0.3541666666666667
            },
            {
              "pitch": 111,
              "velocity": 41,
              "position": 6.25,
              "duration": 0.10416666666666667
            },
            {
              "pitch": 55,
              "velocity": 50,
              "position": 6,
              "duration": 0.4895833333333333
            },
            {
              "pitch": 60,
              "velocity": 50,
              "position": 6.010416666666667,
              "duration": 0.4895833333333333
            },
            {
              "pitch": 64,
              "velocity": 50,
              "position": 6.020833333333333,
              "duration": 0.4895833333333333
            },
            {
              "pitch": 106,
              "velocity": 85,
              "position": 6.5,
              "duration": 0.10416666666666667
            },
            {
              "pitch": 121,
              "velocity": 42,
              "position": 6.25,
              "duration": 0.3541666666666667
            },
            {
              "pitch": 117,
              "velocity": 85,
              "position": 7.5,
              "duration": 0.10416666666666667
            },
            {
              "pitch": 55,
              "velocity": 50,
              "position": 6.5,
              "duration": 1.4895833333333333
            },
            {
              "pitch": 59,
              "velocity": 50,
              "position": 6.510416666666667,
              "duration": 1.4895833333333333
            },
            {
              "pitch": 62,
              "velocity": 50,
              "position": 6.520833333333333,
              "duration": 1.4791666666666667
            }
          ]
        },
        "12": {
          "ctab": {
            "srcChannel": 12,
            "name": "Lead Maj",
            "accType": "CHORD2",
            "editable": true,
            "mutedNotes": [],
            "mutedChords": [
              "dim7",
              "dim",
              "minMaj7(9)",
              "minMaj7",
              "min7(11)",
              "min7(9)",
              "min(9)",
              "m7b5",
              "min7",
              "min6",
              "min"
            ],
            "autoStart": false,
            "sourceChordNote": 0,
            "sourceChordType": "Maj",
            "ctb2Low": null,
            "ctb2Main": {
              "ntr": "ROOT_TRANSPOSITION",
              "ntt": "BYPASS",
              "bassOn": false,
              "chordRootUpperLimit": 7,
              "noteLowLimit": 51,
              "noteHighLimit": 74,
              "rtr": "PITCH_SHIFT"
            },
            "ctb2High": null
          },
          "notes": [
            {
              "pitch": 60,
              "velocity": 58,
              "position": 0,
              "duration": 0.4895833333333333
            },
            {
              "pitch": 60,
              "velocity": 86,
              "position": 0.5,
              "duration": 0.10416666666666667
            },
            {
              "pitch": 59,
              "velocity": 52,
              "position": 0.75,
              "duration": 0.4895833333333333
            },
            {
              "pitch": 60,
              "velocity": 50,
              "position": 1.25,
              "duration": 0.4895833333333333
            },
            {
              "pitch": 67,
              "velocity": 118,
              "position": 1.75,
              "duration": 0.4895833333333333
            },
            {
              "pitch": 60,
              "velocity": 52,
              "position": 2.25,
              "duration": 0.4791666666666667
            },
            {
              "pitch": 59,
              "velocity": 42,
              "position": 2.75,
              "duration": 0.4895833333333333
            },
            {
              "pitch": 60,
              "velocity": 56,
              "position": 3.25,
              "duration": 0.4895833333333333
            },
            {
              "pitch": 55,
              "velocity": 38,
              "position": 3.75,
              "duration": 0.23958333333333334
            },
            {
              "pitch": 64,
              "velocity": 60,
              "position": 4,
              "duration": 0.23958333333333334
            },
            {
              "pitch": 65,
              "velocity": 100,
              "position": 4.25,
              "duration": 0.23958333333333334
            },
            {
              "pitch": 64,
              "velocity": 40,
              "position": 4.5,
              "duration": 0.23958333333333334
            },
            {
              "pitch": 60,
              "velocity": 52,
              "position": 4.75,
              "duration": 0.23958333333333334
            },
            {
              "pitch": 60,
              "velocity": 86,
              "position": 5,
              "duration": 0.10416666666666667
            },
            {
              "pitch": 57,
              "velocity": 52,
              "position": 5.25,
              "duration": 0.4895833333333333
            },
            {
              "pitch": 55,
              "velocity": 55,
              "position": 5.75,
              "duration": 0.23958333333333334
            },
            {
              "pitch": 60,
              "velocity": 56,
              "position": 6,
              "duration": 0.23958333333333334
            },
            {
              "pitch": 64,
              "velocity": 56,
              "position": 6,
              "duration": 0.23958333333333334
            },
            {
              "pitch": 60,
              "velocity": 84,
              "position": 6.25,
              "duration": 0.10416666666666667
            },
            {
              "pitch": 59,
              "velocity": 50,
              "position": 6.520833333333333,
              "duration": 1.46875
            },
            {
              "pitch": 62,
              "velocity": 50,
              "position": 6.520833333333333,
              "duration": 1.46875
            }
          ]
        },
        "14": {
          "ctab": {
            "srcChannel": 14,
            "name": "Gt_Ba M",
            "accType": "PHRASE1",
            "editable": false,
            "mutedNotes": [],
            "mutedChords": [
              "dim7",
              "dim",
              "minMaj7(9)",
              "minMaj7",
              "min7(11)",
              "min7(9)",
              "min(9)",
              "m7b5",
              "min7",
              "min6",
              "min"
            ],
            "autoStart": false,
            "sourceChordNote": 0,
            "sourceChordType": "Maj",
            "ctb2Low": null,
            "ctb2Main": {
              "ntr": "ROOT_TRANSPOSITION",
              "ntt": "BYPASS",
              "bassOn": false,
              "chordRootUpperLimit": 8,
              "noteLowLimit": 40,
              "noteHighLimit": 60,
              "rtr": "PITCH_SHIFT"
            },
            "ctb2High": null
          },
          "notes": [
            {
              "pitch": 48,
              "velocity": 72,
              "position": 0,
              "duration": 1.9895833333333333
            },
            {
              "pitch": 43,
              "velocity": 72,
              "position": 1,
              "duration": 1.9895833333333333
            },
            {
              "pitch": 43,
              "velocity": 72,
              "position": 3,
              "duration": 0.9895833333333334
            },
            {
              "pitch": 52,
              "velocity": 72,
              "position": 2,
              "duration": 1.9895833333333333
            },
            {
              "pitch": 45,
              "velocity": 72,
              "position": 5,
              "duration": 0.9895833333333334
            },
            {
              "pitch": 53,
              "velocity": 72,
              "position": 4,
              "duration": 1.9895833333333333
            },
            {
              "pitch": 43,
              "velocity": 80,
              "position": 6,
              "duration": 0.46875
            },
            {
              "pitch": 43,
              "velocity": 80,
              "position": 6.5,
              "duration": 0.96875
            },
            {
              "pitch": 43,
              "velocity": 75,
              "position": 7.5,
              "duration": 0.4791666666666667
            }
          ]
        },
        "15": {
          "ctab": {
            "srcChannel": 15,
            "name": "Gt_Arp M",
            "accType": "PHRASE2",
            "editable": false,
            "mutedNotes": [],
            "mutedChords": [
              "dim7",
              "dim",
              "minMaj7(9)",
              "minMaj7",
              "min7(11)",
              "min7(9)",
              "min(9)",
              "m7b5",
              "min7",
              "min6",
              "min"
            ],
            "autoStart": false,
            "sourceChordNote": 0,
            "sourceChordType": "Maj",
            "ctb2Low": null,
            "ctb2Main": {
              "ntr": "ROOT_TRANSPOSITION",
              "ntt": "BYPASS",
              "bassOn": false,
              "chordRootUpperLimit": 7,
              "noteLowLimit": 54,
              "noteHighLimit": 65,
              "rtr": "PITCH_SHIFT"
            },
            "ctb2High": null
          },
          "notes": [
            {
              "pitch": 64,
              "velocity": 65,
              "position": 0,
              "duration": 0.7395833333333334
            },
            {
              "pitch": 64,
              "velocity": 65,
              "position": 0.75,
              "duration": 0.4895833333333333
            },
            {
              "pitch": 62,
              "velocity": 53,
              "position": 0.5,
              "duration": 0.9895833333333334
            },
            {
              "pitch": 55,
              "velocity": 43,
              "position": 0.25,
              "duration": 1.4895833333333333
            },
            {
              "pitch": 64,
              "velocity": 57,
              "position": 1.25,
              "duration": 0.7395833333333334
            },
            {
              "pitch": 60,
              "velocity": 60,
              "position": 1.75,
              "duration": 0.4895833333333333
            },
            {
              "pitch": 62,
              "velocity": 60,
              "position": 1.5,
              "duration": 0.9895833333333334
            },
            {
              "pitch": 64,
              "velocity": 65,
              "position": 2,
              "duration": 0.7395833333333334
            },
            {
              "pitch": 64,
              "velocity": 65,
              "position": 2.75,
              "duration": 0.4895833333333333
            },
            {
              "pitch": 60,
              "velocity": 53,
              "position": 2.5,
              "duration": 0.9895833333333334
            },
            {
              "pitch": 55,
              "velocity": 43,
              "position": 2.25,
              "duration": 1.4895833333333333
            },
            {
              "pitch": 64,
              "velocity": 57,
              "position": 3.25,
              "duration": 0.7395833333333334
            },
            {
              "pitch": 55,
              "velocity": 64,
              "position": 3.75,
              "duration": 0.4895833333333333
            },
            {
              "pitch": 60,
              "velocity": 60,
              "position": 3.5,
              "duration": 0.9895833333333334
            },
            {
              "pitch": 65,
              "velocity": 72,
              "position": 4,
              "duration": 0.7395833333333334
            },
            {
              "pitch": 65,
              "velocity": 78,
              "position": 4.75,
              "duration": 0.4895833333333333
            },
            {
              "pitch": 60,
              "velocity": 64,
              "position": 4.5,
              "duration": 0.9895833333333334
            },
            {
              "pitch": 57,
              "velocity": 53,
              "position": 4.25,
              "duration": 1.4895833333333333
            },
            {
              "pitch": 57,
              "velocity": 64,
              "position": 5.75,
              "duration": 0.23958333333333334
            },
            {
              "pitch": 64,
              "velocity": 71,
              "position": 5.25,
              "duration": 0.7395833333333334
            },
            {
              "pitch": 60,
              "velocity": 57,
              "position": 5.5,
              "duration": 0.9895833333333334
            },
            {
              "pitch": 64,
              "velocity": 86,
              "position": 6,
              "duration": 0.4895833333333333
            },
            {
              "pitch": 55,
              "velocity": 64,
              "position": 6.25,
              "duration": 1.7395833333333333
            },
            {
              "pitch": 59,
              "velocity": 72,
              "position": 6.5,
              "duration": 1.4895833333333333
            },
            {
              "pitch": 62,
              "velocity": 85,
              "position": 6.5,
              "duration": 1.4895833333333333
            }
          ]
        }
      }
    },
    "Intro_C": {
      "type": "Intro_C",
      "sizeInBeats": 16,
      "channels": {
        "2": {
          "ctab": {
            "srcChannel": 2,
            "name": "Bass min",
            "accType": "BASS",
            "editable": false,
            "mutedNotes": [],
            "mutedChords": [
              "1+2+5",
              "sus4",
              "1+5",
              "1+8",
              "7aug",
              "Maj7aug",
              "7(#9)",
              "7(b13)",
              "7(b9)",
              "7(13)",
              "7#11",
              "7(9)",
              "7b5",
              "7sus4",
              "7th",
              "aug",
              "Maj6(9)",
              "Maj7(9)",
              "Maj(9)",
              "Maj7#11",
              "Maj7",
              "Maj6",
              "Maj"
            ],
            "autoStart": false,
            "sourceChordNote": 0,
            "sourceChordType": "min",
            "ctb2Low": null,
            "ctb2Main": {
              "ntr": "ROOT_TRANSPOSITION",
              "ntt": "BYPASS",
              "bassOn": false,
              "chordRootUpperLimit": 5,
              "noteLowLimit": 28,
              "noteHighLimit": 60,
              "rtr": "PITCH_SHIFT"
            },
            "ctb2High": null
          },
          "notes": [
            {
              "pitch": 24,
              "velocity": 60,
              "position": 0,
              "duration": 1.9895833333333333
            },
            {
              "pitch": 34,
              "velocity": 60,
              "position": 2,
              "duration": 1.9895833333333333
            },
            {
              "pitch": 32,
              "velocity": 60,
              "position": 4,
              "duration": 1.9895833333333333
            },
            {
              "pitch": 31,
              "velocity": 60,
              "position": 6,
              "duration": 0.9895833333333334
            },
            {
              "pitch": 43,
              "velocity": 60,
              "position": 7,
              "duration": 0.9895833333333334
            },
            {
              "pitch": 41,
              "velocity": 60,
              "position": 8,
              "duration": 0.9895833333333334
            },
            {
              "pitch": 29,
              "velocity": 60,
              "position": 9,
              "duration": 0.9895833333333334
            },
            {
              "pitch": 27,
              "velocity": 60,
              "position": 10,
              "duration": 0.9895833333333334
            },
            {
              "pitch": 27,
              "velocity": 60,
              "position": 11,
              "duration": 0.9895833333333334
            },
            {
              "pitch": 29,
              "velocity": 60,
              "position": 12,
              "duration": 1.7395833333333333
            },
            {
              "pitch": 29,
              "velocity": 60,
              "position": 13.75,
              "duration": 0.23958333333333334
            },
            {
              "pitch": 31,
              "velocity": 60,
              "position": 14,
              "duration": 0.4895833333333333
            },
            {
              "pitch": 31,
              "velocity": 60,
              "position": 14.5,
              "duration": 0.4895833333333333
            },
            {
              "pitch": 33,
              "velocity": 60,
              "position": 15,
              "duration": 0.4895833333333333
            },
            {
              "pitch": 35,
              "velocity": 60,
              "position": 15.5,
              "duration": 0.4895833333333333
            }
          ]
        },
        "3": {
          "ctab": {
            "srcChannel": 3,
            "name": "Gt_Stk m",
            "accType": "CHORD1",
            "editable": false,
            "mutedNotes": [],
            "mutedChords": [
              "1+2+5",
              "sus4",
              "1+5",
              "1+8",
              "7aug",
              "Maj7aug",
              "7(#9)",
              "7(b13)",
              "7(b9)",
              "7(13)",
              "7#11",
              "7(9)",
              "7b5",
              "7sus4",
              "7th",
              "aug",
              "Maj6(9)",
              "Maj7(9)",
              "Maj(9)",
              "Maj7#11",
              "Maj7",
              "Maj6",
              "Maj"
            ],
            "autoStart": false,
            "sourceChordNote": 0,
            "sourceChordType": "min",
            "ctb2Low": null,
            "ctb2Main": {
              "ntr": "ROOT_TRANSPOSITION",
              "ntt": "BYPASS",
              "bassOn": false,
              "chordRootUpperLimit": 7,
              "noteLowLimit": 46,
              "noteHighLimit": 69,
              "rtr": "PITCH_SHIFT"
            },
            "ctb2High": null
          },
          "notes": [
            {
              "pitch": 104,
              "velocity": 93,
              "position": 0,
              "duration": 0.10416666666666667
            },
            {
              "pitch": 103,
              "velocity": 43,
              "position": 0.2604166666666667,
              "duration": 0.10416666666666667
            },
            {
              "pitch": 55,
              "velocity": 45,
              "position": 0,
              "duration": 0.4895833333333333
            },
            {
              "pitch": 60,
              "velocity": 45,
              "position": 0.010416666666666666,
              "duration": 0.4895833333333333
            },
            {
              "pitch": 63,
              "velocity": 45,
              "position": 0.020833333333333332,
              "duration": 0.4895833333333333
            },
            {
              "pitch": 106,
              "velocity": 104,
              "position": 0.5,
              "duration": 0.10416666666666667
            },
            {
              "pitch": 109,
              "velocity": 54,
              "position": 1,
              "duration": 0.10416666666666667
            },
            {
              "pitch": 55,
              "velocity": 50,
              "position": 0.5,
              "duration": 0.7395833333333334
            },
            {
              "pitch": 63,
              "velocity": 50,
              "position": 0.5208333333333334,
              "duration": 0.71875
            },
            {
              "pitch": 60,
              "velocity": 50,
              "position": 0.5104166666666666,
              "duration": 0.7395833333333334
            },
            {
              "pitch": 110,
              "velocity": 58,
              "position": 1.25,
              "duration": 0.10416666666666667
            },
            {
              "pitch": 55,
              "velocity": 34,
              "position": 1.2708333333333333,
              "duration": 0.21875
            },
            {
              "pitch": 60,
              "velocity": 34,
              "position": 1.2604166666666667,
              "duration": 0.23958333333333334
            },
            {
              "pitch": 63,
              "velocity": 42,
              "position": 1.25,
              "duration": 0.2604166666666667
            },
            {
              "pitch": 106,
              "velocity": 108,
              "position": 1.5,
              "duration": 0.10416666666666667
            },
            {
              "pitch": 103,
              "velocity": 43,
              "position": 1.7604166666666667,
              "duration": 0.10416666666666667
            },
            {
              "pitch": 55,
              "velocity": 50,
              "position": 1.5,
              "duration": 0.4895833333333333
            },
            {
              "pitch": 63,
              "velocity": 50,
              "position": 1.5208333333333333,
              "duration": 0.46875
            },
            {
              "pitch": 60,
              "velocity": 50,
              "position": 1.5104166666666667,
              "duration": 0.4895833333333333
            },
            {
              "pitch": 104,
              "velocity": 93,
              "position": 2,
              "duration": 0.10416666666666667
            },
            {
              "pitch": 121,
              "velocity": 76,
              "position": 1.75,
              "duration": 0.3541666666666667
            },
            {
              "pitch": 103,
              "velocity": 43,
              "position": 2.2604166666666665,
              "duration": 0.10416666666666667
            },
            {
              "pitch": 55,
              "velocity": 45,
              "position": 2,
              "duration": 0.4895833333333333
            },
            {
              "pitch": 58,
              "velocity": 45,
              "position": 2.0104166666666665,
              "duration": 0.4895833333333333
            },
            {
              "pitch": 63,
              "velocity": 45,
              "position": 2.0208333333333335,
              "duration": 0.4895833333333333
            },
            {
              "pitch": 106,
              "velocity": 104,
              "position": 2.5,
              "duration": 0.10416666666666667
            },
            {
              "pitch": 109,
              "velocity": 54,
              "position": 3,
              "duration": 0.10416666666666667
            },
            {
              "pitch": 55,
              "velocity": 50,
              "position": 2.5,
              "duration": 0.7395833333333334
            },
            {
              "pitch": 63,
              "velocity": 50,
              "position": 2.5208333333333335,
              "duration": 0.71875
            },
            {
              "pitch": 58,
              "velocity": 50,
              "position": 2.5104166666666665,
              "duration": 0.7395833333333334
            },
            {
              "pitch": 110,
              "velocity": 58,
              "position": 3.25,
              "duration": 0.10416666666666667
            },
            {
              "pitch": 55,
              "velocity": 34,
              "position": 3.2708333333333335,
              "duration": 0.21875
            },
            {
              "pitch": 58,
              "velocity": 34,
              "position": 3.2604166666666665,
              "duration": 0.23958333333333334
            },
            {
              "pitch": 63,
              "velocity": 42,
              "position": 3.25,
              "duration": 0.2604166666666667
            },
            {
              "pitch": 106,
              "velocity": 108,
              "position": 3.5,
              "duration": 0.10416666666666667
            },
            {
              "pitch": 103,
              "velocity": 43,
              "position": 3.7604166666666665,
              "duration": 0.10416666666666667
            },
            {
              "pitch": 63,
              "velocity": 50,
              "position": 3.5208333333333335,
              "duration": 0.46875
            },
            {
              "pitch": 58,
              "velocity": 50,
              "position": 3.5104166666666665,
              "duration": 0.4895833333333333
            },
            {
              "pitch": 55,
              "velocity": 50,
              "position": 3.5,
              "duration": 0.5104166666666666
            },
            {
              "pitch": 104,
              "velocity": 93,
              "position": 4,
              "duration": 0.10416666666666667
            },
            {
              "pitch": 124,
              "velocity": 76,
              "position": 3.75,
              "duration": 0.3541666666666667
            },
            {
              "pitch": 103,
              "velocity": 43,
              "position": 4.260416666666667,
              "duration": 0.10416666666666667
            },
            {
              "pitch": 56,
              "velocity": 45,
              "position": 4,
              "duration": 0.4895833333333333
            },
            {
              "pitch": 60,
              "velocity": 45,
              "position": 4.010416666666667,
              "duration": 0.4895833333333333
            },
            {
              "pitch": 63,
              "velocity": 45,
              "position": 4.020833333333333,
              "duration": 0.4895833333333333
            },
            {
              "pitch": 106,
              "velocity": 104,
              "position": 4.5,
              "duration": 0.10416666666666667
            },
            {
              "pitch": 109,
              "velocity": 54,
              "position": 5,
              "duration": 0.10416666666666667
            },
            {
              "pitch": 56,
              "velocity": 50,
              "position": 4.5,
              "duration": 0.7395833333333334
            },
            {
              "pitch": 63,
              "velocity": 50,
              "position": 4.520833333333333,
              "duration": 0.71875
            },
            {
              "pitch": 60,
              "velocity": 50,
              "position": 4.510416666666667,
              "duration": 0.7395833333333334
            },
            {
              "pitch": 110,
              "velocity": 58,
              "position": 5.25,
              "duration": 0.10416666666666667
            },
            {
              "pitch": 56,
              "velocity": 34,
              "position": 5.270833333333333,
              "duration": 0.21875
            },
            {
              "pitch": 60,
              "velocity": 34,
              "position": 5.260416666666667,
              "duration": 0.23958333333333334
            },
            {
              "pitch": 63,
              "velocity": 42,
              "position": 5.25,
              "duration": 0.2604166666666667
            },
            {
              "pitch": 106,
              "velocity": 108,
              "position": 5.5,
              "duration": 0.10416666666666667
            },
            {
              "pitch": 103,
              "velocity": 43,
              "position": 5.760416666666667,
              "duration": 0.10416666666666667
            },
            {
              "pitch": 63,
              "velocity": 50,
              "position": 5.520833333333333,
              "duration": 0.46875
            },
            {
              "pitch": 60,
              "velocity": 50,
              "position": 5.510416666666667,
              "duration": 0.4895833333333333
            },
            {
              "pitch": 56,
              "velocity": 50,
              "position": 5.5,
              "duration": 0.5104166666666666
            },
            {
              "pitch": 104,
              "velocity": 93,
              "position": 6,
              "duration": 0.10416666666666667
            },
            {
              "pitch": 103,
              "velocity": 43,
              "position": 6.260416666666667,
              "duration": 0.10416666666666667
            },
            {
              "pitch": 55,
              "velocity": 45,
              "position": 6,
              "duration": 0.4895833333333333
            },
            {
              "pitch": 58,
              "velocity": 45,
              "position": 6.010416666666667,
              "duration": 0.4895833333333333
            },
            {
              "pitch": 63,
              "velocity": 45,
              "position": 6.020833333333333,
              "duration": 0.4895833333333333
            },
            {
              "pitch": 106,
              "velocity": 104,
              "position": 6.5,
              "duration": 0.10416666666666667
            },
            {
              "pitch": 109,
              "velocity": 54,
              "position": 7,
              "duration": 0.10416666666666667
            },
            {
              "pitch": 55,
              "velocity": 50,
              "position": 6.5,
              "duration": 0.7395833333333334
            },
            {
              "pitch": 63,
              "velocity": 50,
              "position": 6.520833333333333,
              "duration": 0.71875
            },
            {
              "pitch": 58,
              "velocity": 50,
              "position": 6.510416666666667,
              "duration": 0.7395833333333334
            },
            {
              "pitch": 110,
              "velocity": 58,
              "position": 7.25,
              "duration": 0.10416666666666667
            },
            {
              "pitch": 55,
              "velocity": 34,
              "position": 7.270833333333333,
              "duration": 0.21875
            },
            {
              "pitch": 58,
              "velocity": 34,
              "position": 7.260416666666667,
              "duration": 0.23958333333333334
            },
            {
              "pitch": 63,
              "velocity": 42,
              "position": 7.25,
              "duration": 0.2604166666666667
            },
            {
              "pitch": 106,
              "velocity": 108,
              "position": 7.5,
              "duration": 0.10416666666666667
            },
            {
              "pitch": 103,
              "velocity": 43,
              "position": 7.760416666666667,
              "duration": 0.10416666666666667
            },
            {
              "pitch": 63,
              "velocity": 50,
              "position": 7.520833333333333,
              "duration": 0.46875
            },
            {
              "pitch": 55,
              "velocity": 50,
              "position": 7.5,
              "duration": 0.5
            },
            {
              "pitch": 58,
              "velocity": 50,
              "position": 7.510416666666667,
              "duration": 0.4895833333333333
            },
            {
              "pitch": 111,
              "velocity": 90,
              "position": 8,
              "duration": 0.10416666666666667
            },
            {
              "pitch": 120,
              "velocity": 76,
              "position": 7.75,
              "duration": 0.3541666666666667
            },
            {
              "pitch": 55,
              "velocity": 50,
              "position": 8,
              "duration": 0.23958333333333334
            },
            {
              "pitch": 103,
              "velocity": 45,
              "position": 8.260416666666666,
              "duration": 0.10416666666666667
            },
            {
              "pitch": 56,
              "velocity": 100,
              "position": 8.25,
              "duration": 0.23958333333333334
            },
            {
              "pitch": 60,
              "velocity": 50,
              "position": 8.010416666666666,
              "duration": 0.4895833333333333
            },
            {
              "pitch": 65,
              "velocity": 50,
              "position": 8.020833333333334,
              "duration": 0.4895833333333333
            },
            {
              "pitch": 106,
              "velocity": 80,
              "position": 8.5,
              "duration": 0.10416666666666667
            },
            {
              "pitch": 65,
              "velocity": 39,
              "position": 8.520833333333334,
              "duration": 0.21875
            },
            {
              "pitch": 60,
              "velocity": 34,
              "position": 8.510416666666666,
              "duration": 0.23958333333333334
            },
            {
              "pitch": 56,
              "velocity": 39,
              "position": 8.5,
              "duration": 0.2604166666666667
            },
            {
              "pitch": 110,
              "velocity": 102,
              "position": 8.75,
              "duration": 0.10416666666666667
            },
            {
              "pitch": 109,
              "velocity": 36,
              "position": 9.010416666666666,
              "duration": 0.10416666666666667
            },
            {
              "pitch": 65,
              "velocity": 50,
              "position": 8.75,
              "duration": 0.4895833333333333
            },
            {
              "pitch": 60,
              "velocity": 50,
              "position": 8.760416666666666,
              "duration": 0.4895833333333333
            },
            {
              "pitch": 56,
              "velocity": 50,
              "position": 8.770833333333334,
              "duration": 0.4895833333333333
            },
            {
              "pitch": 103,
              "velocity": 81,
              "position": 9.25,
              "duration": 0.10416666666666667
            },
            {
              "pitch": 56,
              "velocity": 39,
              "position": 9.270833333333334,
              "duration": 0.21875
            },
            {
              "pitch": 60,
              "velocity": 34,
              "position": 9.260416666666666,
              "duration": 0.23958333333333334
            },
            {
              "pitch": 65,
              "velocity": 38,
              "position": 9.25,
              "duration": 0.2604166666666667
            },
            {
              "pitch": 106,
              "velocity": 106,
              "position": 9.5,
              "duration": 0.10416666666666667
            },
            {
              "pitch": 65,
              "velocity": 50,
              "position": 9.520833333333334,
              "duration": 0.21875
            },
            {
              "pitch": 60,
              "velocity": 50,
              "position": 9.510416666666666,
              "duration": 0.23958333333333334
            },
            {
              "pitch": 56,
              "velocity": 50,
              "position": 9.5,
              "duration": 0.2604166666666667
            },
            {
              "pitch": 110,
              "velocity": 89,
              "position": 9.75,
              "duration": 0.10416666666666667
            },
            {
              "pitch": 56,
              "velocity": 43,
              "position": 9.770833333333334,
              "duration": 0.21875
            },
            {
              "pitch": 60,
              "velocity": 41,
              "position": 9.760416666666666,
              "duration": 0.23958333333333334
            },
            {
              "pitch": 65,
              "velocity": 45,
              "position": 9.75,
              "duration": 0.2604166666666667
            },
            {
              "pitch": 109,
              "velocity": 106,
              "position": 10,
              "duration": 0.10416666666666667
            },
            {
              "pitch": 65,
              "velocity": 50,
              "position": 10.020833333333334,
              "duration": 0.23958333333333334
            },
            {
              "pitch": 103,
              "velocity": 48,
              "position": 10.260416666666666,
              "duration": 0.10416666666666667
            },
            {
              "pitch": 63,
              "velocity": 100,
              "position": 10.25,
              "duration": 0.23958333333333334
            },
            {
              "pitch": 55,
              "velocity": 50,
              "position": 10.010416666666666,
              "duration": 0.4895833333333333
            },
            {
              "pitch": 60,
              "velocity": 50,
              "position": 10.010416666666666,
              "duration": 0.4895833333333333
            },
            {
              "pitch": 106,
              "velocity": 86,
              "position": 10.5,
              "duration": 0.10416666666666667
            },
            {
              "pitch": 63,
              "velocity": 36,
              "position": 10.520833333333334,
              "duration": 0.21875
            },
            {
              "pitch": 60,
              "velocity": 30,
              "position": 10.510416666666666,
              "duration": 0.23958333333333334
            },
            {
              "pitch": 55,
              "velocity": 39,
              "position": 10.5,
              "duration": 0.2604166666666667
            },
            {
              "pitch": 110,
              "velocity": 102,
              "position": 10.75,
              "duration": 0.10416666666666667
            },
            {
              "pitch": 63,
              "velocity": 50,
              "position": 10.75,
              "duration": 0.4895833333333333
            },
            {
              "pitch": 55,
              "velocity": 50,
              "position": 10.760416666666666,
              "duration": 0.4895833333333333
            },
            {
              "pitch": 60,
              "velocity": 50,
              "position": 10.760416666666666,
              "duration": 0.4895833333333333
            },
            {
              "pitch": 103,
              "velocity": 89,
              "position": 11.25,
              "duration": 0.10416666666666667
            },
            {
              "pitch": 55,
              "velocity": 32,
              "position": 11.270833333333334,
              "duration": 0.21875
            },
            {
              "pitch": 60,
              "velocity": 33,
              "position": 11.260416666666666,
              "duration": 0.23958333333333334
            },
            {
              "pitch": 63,
              "velocity": 39,
              "position": 11.25,
              "duration": 0.2604166666666667
            },
            {
              "pitch": 106,
              "velocity": 106,
              "position": 11.5,
              "duration": 0.10416666666666667
            },
            {
              "pitch": 63,
              "velocity": 50,
              "position": 11.520833333333334,
              "duration": 0.21875
            },
            {
              "pitch": 60,
              "velocity": 50,
              "position": 11.510416666666666,
              "duration": 0.23958333333333334
            },
            {
              "pitch": 55,
              "velocity": 50,
              "position": 11.5,
              "duration": 0.2604166666666667
            },
            {
              "pitch": 105,
              "velocity": 81,
              "position": 11.75,
              "duration": 0.10416666666666667
            },
            {
              "pitch": 55,
              "velocity": 41,
              "position": 11.770833333333334,
              "duration": 0.21875
            },
            {
              "pitch": 60,
              "velocity": 39,
              "position": 11.760416666666666,
              "duration": 0.23958333333333334
            },
            {
              "pitch": 63,
              "velocity": 44,
              "position": 11.75,
              "duration": 0.2604166666666667
            },
            {
              "pitch": 111,
              "velocity": 90,
              "position": 12,
              "duration": 0.10416666666666667
            },
            {
              "pitch": 121,
              "velocity": 76,
              "position": 11.75,
              "duration": 0.3541666666666667
            },
            {
              "pitch": 103,
              "velocity": 45,
              "position": 12.260416666666666,
              "duration": 0.10416666666666667
            },
            {
              "pitch": 56,
              "velocity": 47,
              "position": 12,
              "duration": 0.4895833333333333
            },
            {
              "pitch": 60,
              "velocity": 44,
              "position": 12.010416666666666,
              "duration": 0.4895833333333333
            },
            {
              "pitch": 65,
              "velocity": 45,
              "position": 12.020833333333334,
              "duration": 0.4895833333333333
            },
            {
              "pitch": 106,
              "velocity": 97,
              "position": 12.5,
              "duration": 0.10416666666666667
            },
            {
              "pitch": 56,
              "velocity": 50,
              "position": 12.5,
              "duration": 0.4895833333333333
            },
            {
              "pitch": 60,
              "velocity": 50,
              "position": 12.510416666666666,
              "duration": 0.4895833333333333
            },
            {
              "pitch": 65,
              "velocity": 50,
              "position": 12.520833333333334,
              "duration": 0.4895833333333333
            },
            {
              "pitch": 109,
              "velocity": 36,
              "position": 13.010416666666666,
              "duration": 0.10416666666666667
            },
            {
              "pitch": 65,
              "velocity": 31,
              "position": 13.020833333333334,
              "duration": 0.21875
            },
            {
              "pitch": 60,
              "velocity": 31,
              "position": 13.010416666666666,
              "duration": 0.23958333333333334
            },
            {
              "pitch": 56,
              "velocity": 31,
              "position": 13,
              "duration": 0.2604166666666667
            },
            {
              "pitch": 103,
              "velocity": 81,
              "position": 13.25,
              "duration": 0.10416666666666667
            },
            {
              "pitch": 56,
              "velocity": 40,
              "position": 13.270833333333334,
              "duration": 0.21875
            },
            {
              "pitch": 60,
              "velocity": 42,
              "position": 13.260416666666666,
              "duration": 0.23958333333333334
            },
            {
              "pitch": 65,
              "velocity": 42,
              "position": 13.25,
              "duration": 0.2604166666666667
            },
            {
              "pitch": 106,
              "velocity": 106,
              "position": 13.5,
              "duration": 0.10416666666666667
            },
            {
              "pitch": 65,
              "velocity": 50,
              "position": 13.520833333333334,
              "duration": 0.21875
            },
            {
              "pitch": 60,
              "velocity": 50,
              "position": 13.510416666666666,
              "duration": 0.23958333333333334
            },
            {
              "pitch": 56,
              "velocity": 50,
              "position": 13.5,
              "duration": 0.2604166666666667
            },
            {
              "pitch": 105,
              "velocity": 89,
              "position": 13.75,
              "duration": 0.10416666666666667
            },
            {
              "pitch": 56,
              "velocity": 42,
              "position": 13.770833333333334,
              "duration": 0.21875
            },
            {
              "pitch": 60,
              "velocity": 37,
              "position": 13.760416666666666,
              "duration": 0.23958333333333334
            },
            {
              "pitch": 65,
              "velocity": 41,
              "position": 13.75,
              "duration": 0.2604166666666667
            },
            {
              "pitch": 111,
              "velocity": 90,
              "position": 14,
              "duration": 0.10416666666666667
            },
            {
              "pitch": 124,
              "velocity": 81,
              "position": 13.75,
              "duration": 0.3541666666666667
            },
            {
              "pitch": 103,
              "velocity": 45,
              "position": 14.260416666666666,
              "duration": 0.10416666666666667
            },
            {
              "pitch": 55,
              "velocity": 49,
              "position": 14,
              "duration": 0.4895833333333333
            },
            {
              "pitch": 59,
              "velocity": 50,
              "position": 14.010416666666666,
              "duration": 0.4895833333333333
            },
            {
              "pitch": 62,
              "velocity": 50,
              "position": 14.020833333333334,
              "duration": 0.4895833333333333
            },
            {
              "pitch": 106,
              "velocity": 97,
              "position": 14.5,
              "duration": 0.10416666666666667
            },
            {
              "pitch": 55,
              "velocity": 50,
              "position": 14.5,
              "duration": 0.4895833333333333
            },
            {
              "pitch": 59,
              "velocity": 50,
              "position": 14.510416666666666,
              "duration": 0.4895833333333333
            },
            {
              "pitch": 62,
              "velocity": 50,
              "position": 14.520833333333334,
              "duration": 0.4895833333333333
            },
            {
              "pitch": 109,
              "velocity": 36,
              "position": 15.010416666666666,
              "duration": 0.10416666666666667
            },
            {
              "pitch": 62,
              "velocity": 31,
              "position": 15.020833333333334,
              "duration": 0.21875
            },
            {
              "pitch": 60,
              "velocity": 31,
              "position": 15.010416666666666,
              "duration": 0.23958333333333334
            },
            {
              "pitch": 55,
              "velocity": 31,
              "position": 15,
              "duration": 0.2604166666666667
            },
            {
              "pitch": 103,
              "velocity": 81,
              "position": 15.25,
              "duration": 0.10416666666666667
            },
            {
              "pitch": 55,
              "velocity": 40,
              "position": 15.270833333333334,
              "duration": 0.21875
            },
            {
              "pitch": 60,
              "velocity": 42,
              "position": 15.260416666666666,
              "duration": 0.23958333333333334
            },
            {
              "pitch": 62,
              "velocity": 42,
              "position": 15.25,
              "duration": 0.2604166666666667
            },
            {
              "pitch": 106,
              "velocity": 106,
              "position": 15.5,
              "duration": 0.10416666666666667
            },
            {
              "pitch": 62,
              "velocity": 50,
              "position": 15.520833333333334,
              "duration": 0.21875
            },
            {
              "pitch": 59,
              "velocity": 50,
              "position": 15.510416666666666,
              "duration": 0.23958333333333334
            },
            {
              "pitch": 55,
              "velocity": 50,
              "position": 15.5,
              "duration": 0.2604166666666667
            },
            {
              "pitch": 105,
              "velocity": 89,
              "position": 15.75,
              "duration": 0.10416666666666667
            },
            {
              "pitch": 55,
              "velocity": 42,
              "position": 15.770833333333334,
              "duration": 0.21875
            },
            {
              "pitch": 59,
              "velocity": 37,
              "position": 15.760416666666666,
              "duration": 0.23958333333333334
            },
            {
              "pitch": 62,
              "velocity": 41,
              "position": 15.75,
              "duration": 0.25
            }
          ]
        },
        "4": {
          "ctab": {
            "srcChannel": 4,
            "name": "Lead min",
            "accType": "CHORD2",
            "editable": true,
            "mutedNotes": [],
            "mutedChords": [
              "1+2+5",
              "sus4",
              "1+5",
              "1+8",
              "7aug",
              "Maj7aug",
              "7(#9)",
              "7(b13)",
              "7(b9)",
              "7(13)",
              "7#11",
              "7(9)",
              "7b5",
              "7sus4",
              "7th",
              "aug",
              "Maj6(9)",
              "Maj7(9)",
              "Maj(9)",
              "Maj7#11",
              "Maj7",
              "Maj6",
              "Maj"
            ],
            "autoStart": false,
            "sourceChordNote": 0,
            "sourceChordType": "min",
            "ctb2Low": null,
            "ctb2Main": {
              "ntr": "ROOT_TRANSPOSITION",
              "ntt": "BYPASS",
              "bassOn": false,
              "chordRootUpperLimit": 7,
              "noteLowLimit": 51,
              "noteHighLimit": 74,
              "rtr": "PITCH_SHIFT"
            },
            "ctb2High": null
          },
          "notes": [
            {
              "pitch": 63,
              "velocity": 59,
              "position": 0,
              "duration": 0.23958333333333334
            },
            {
              "pitch": 62,
              "velocity": 47,
              "position": 0.25,
              "duration": 0.23958333333333334
            },
            {
              "pitch": 60,
              "velocity": 41,
              "position": 0.5,
              "duration": 2.4895833333333335
            },
            {
              "pitch": 67,
              "velocity": 60,
              "position": 0.75,
              "duration": 2.2395833333333335
            },
            {
              "pitch": 55,
              "velocity": 59,
              "position": 3.25,
              "duration": 0.23958333333333334
            },
            {
              "pitch": 58,
              "velocity": 46,
              "position": 3.5,
              "duration": 0.23958333333333334
            },
            {
              "pitch": 62,
              "velocity": 41,
              "position": 3.75,
              "duration": 0.23958333333333334
            },
            {
              "pitch": 60,
              "velocity": 59,
              "position": 4,
              "duration": 0.23958333333333334
            },
            {
              "pitch": 58,
              "velocity": 52,
              "position": 4.25,
              "duration": 0.23958333333333334
            },
            {
              "pitch": 56,
              "velocity": 46,
              "position": 4.5,
              "duration": 2.4895833333333335
            },
            {
              "pitch": 63,
              "velocity": 60,
              "position": 4.75,
              "duration": 2.2395833333333335
            },
            {
              "pitch": 51,
              "velocity": 59,
              "position": 7.25,
              "duration": 0.23958333333333334
            },
            {
              "pitch": 55,
              "velocity": 46,
              "position": 7.5,
              "duration": 0.23958333333333334
            },
            {
              "pitch": 58,
              "velocity": 45,
              "position": 7.75,
              "duration": 0.23958333333333334
            },
            {
              "pitch": 56,
              "velocity": 59,
              "position": 8,
              "duration": 0.23958333333333334
            },
            {
              "pitch": 55,
              "velocity": 52,
              "position": 8.25,
              "duration": 0.23958333333333334
            },
            {
              "pitch": 53,
              "velocity": 41,
              "position": 8.5,
              "duration": 1.4895833333333333
            },
            {
              "pitch": 60,
              "velocity": 60,
              "position": 8.75,
              "duration": 2.2395833333333335
            },
            {
              "pitch": 60,
              "velocity": 46,
              "position": 11.25,
              "duration": 0.23958333333333334
            },
            {
              "pitch": 62,
              "velocity": 46,
              "position": 11.5,
              "duration": 0.23958333333333334
            },
            {
              "pitch": 63,
              "velocity": 41,
              "position": 11.75,
              "duration": 0.23958333333333334
            },
            {
              "pitch": 65,
              "velocity": 57,
              "position": 12,
              "duration": 0.23958333333333334
            },
            {
              "pitch": 63,
              "velocity": 57,
              "position": 12.25,
              "duration": 0.23958333333333334
            },
            {
              "pitch": 62,
              "velocity": 57,
              "position": 12.75,
              "duration": 0.23958333333333334
            },
            {
              "pitch": 60,
              "velocity": 57,
              "position": 13.25,
              "duration": 0.23958333333333334
            },
            {
              "pitch": 62,
              "velocity": 120,
              "position": 13.75,
              "duration": 2.2395833333333335
            }
          ]
        },
        "6": {
          "ctab": {
            "srcChannel": 6,
            "name": "Gt_Ba m",
            "accType": "PHRASE1",
            "editable": false,
            "mutedNotes": [],
            "mutedChords": [
              "1+2+5",
              "sus4",
              "1+5",
              "1+8",
              "7aug",
              "Maj7aug",
              "7(#9)",
              "7(b13)",
              "7(b9)",
              "7(13)",
              "7#11",
              "7(9)",
              "7b5",
              "7sus4",
              "7th",
              "aug",
              "Maj6(9)",
              "Maj7(9)",
              "Maj(9)",
              "Maj7#11",
              "Maj7",
              "Maj6",
              "Maj"
            ],
            "autoStart": false,
            "sourceChordNote": 0,
            "sourceChordType": "min",
            "ctb2Low": null,
            "ctb2Main": {
              "ntr": "ROOT_TRANSPOSITION",
              "ntt": "BYPASS",
              "bassOn": false,
              "chordRootUpperLimit": 8,
              "noteLowLimit": 42,
              "noteHighLimit": 65,
              "rtr": "PITCH_SHIFT"
            },
            "ctb2High": null
          },
          "notes": [
            {
              "pitch": 48,
              "velocity": 87,
              "position": 0,
              "duration": 1.96875
            },
            {
              "pitch": 46,
              "velocity": 82,
              "position": 2,
              "duration": 1.4791666666666667
            },
            {
              "pitch": 51,
              "velocity": 72,
              "position": 3.5,
              "duration": 0.4791666666666667
            },
            {
              "pitch": 44,
              "velocity": 87,
              "position": 4,
              "duration": 1.96875
            },
            {
              "pitch": 43,
              "velocity": 82,
              "position": 6,
              "duration": 0.9791666666666666
            },
            {
              "pitch": 43,
              "velocity": 62,
              "position": 7,
              "duration": 0.4791666666666667
            },
            {
              "pitch": 43,
              "velocity": 72,
              "position": 7.5,
              "duration": 0.4791666666666667
            },
            {
              "pitch": 41,
              "velocity": 82,
              "position": 8,
              "duration": 1.4895833333333333
            },
            {
              "pitch": 41,
              "velocity": 72,
              "position": 9.5,
              "duration": 0.4791666666666667
            },
            {
              "pitch": 39,
              "velocity": 82,
              "position": 10,
              "duration": 1.4895833333333333
            },
            {
              "pitch": 43,
              "velocity": 72,
              "position": 11.5,
              "duration": 0.4791666666666667
            },
            {
              "pitch": 41,
              "velocity": 87,
              "position": 12,
              "duration": 1.96875
            },
            {
              "pitch": 43,
              "velocity": 87,
              "position": 14,
              "duration": 0.96875
            },
            {
              "pitch": 45,
              "velocity": 82,
              "position": 15,
              "duration": 0.4791666666666667
            },
            {
              "pitch": 45,
              "velocity": 82,
              "position": 15.5,
              "duration": 0.4791666666666667
            }
          ]
        },
        "7": {
          "ctab": {
            "srcChannel": 7,
            "name": "Gt_Arp m",
            "accType": "PHRASE2",
            "editable": false,
            "mutedNotes": [],
            "mutedChords": [
              "1+2+5",
              "sus4",
              "1+5",
              "1+8",
              "7aug",
              "Maj7aug",
              "7(#9)",
              "7(b13)",
              "7(b9)",
              "7(13)",
              "7#11",
              "7(9)",
              "7b5",
              "7sus4",
              "7th",
              "aug",
              "Maj6(9)",
              "Maj7(9)",
              "Maj(9)",
              "Maj7#11",
              "Maj7",
              "Maj6",
              "Maj"
            ],
            "autoStart": false,
            "sourceChordNote": 0,
            "sourceChordType": "min",
            "ctb2Low": null,
            "ctb2Main": {
              "ntr": "ROOT_TRANSPOSITION",
              "ntt": "BYPASS",
              "bassOn": false,
              "chordRootUpperLimit": 7,
              "noteLowLimit": 54,
              "noteHighLimit": 65,
              "rtr": "PITCH_SHIFT"
            },
            "ctb2High": null
          },
          "notes": [
            {
              "pitch": 60,
              "velocity": 61,
              "position": 0.25,
              "duration": 0.9895833333333334
            },
            {
              "pitch": 55,
              "velocity": 62,
              "position": 0.5,
              "duration": 0.9895833333333334
            },
            {
              "pitch": 63,
              "velocity": 84,
              "position": 0.75,
              "duration": 0.9895833333333334
            },
            {
              "pitch": 60,
              "velocity": 61,
              "position": 1.25,
              "duration": 0.9895833333333334
            },
            {
              "pitch": 55,
              "velocity": 62,
              "position": 1.5,
              "duration": 0.9895833333333334
            },
            {
              "pitch": 63,
              "velocity": 62,
              "position": 1.75,
              "duration": 0.9895833333333334
            },
            {
              "pitch": 55,
              "velocity": 62,
              "position": 2.5,
              "duration": 0.4895833333333333
            },
            {
              "pitch": 58,
              "velocity": 61,
              "position": 2.25,
              "duration": 0.9895833333333334
            },
            {
              "pitch": 55,
              "velocity": 52,
              "position": 3,
              "duration": 0.4895833333333333
            },
            {
              "pitch": 63,
              "velocity": 86,
              "position": 2.75,
              "duration": 0.9895833333333334
            },
            {
              "pitch": 55,
              "velocity": 62,
              "position": 3.5,
              "duration": 0.7395833333333334
            },
            {
              "pitch": 58,
              "velocity": 61,
              "position": 3.25,
              "duration": 0.9895833333333334
            },
            {
              "pitch": 63,
              "velocity": 62,
              "position": 3.75,
              "duration": 0.9895833333333334
            },
            {
              "pitch": 60,
              "velocity": 61,
              "position": 4.25,
              "duration": 0.9895833333333334
            },
            {
              "pitch": 56,
              "velocity": 62,
              "position": 4.5,
              "duration": 0.9895833333333334
            },
            {
              "pitch": 63,
              "velocity": 88,
              "position": 4.75,
              "duration": 0.9895833333333334
            },
            {
              "pitch": 56,
              "velocity": 62,
              "position": 5.5,
              "duration": 0.4895833333333333
            },
            {
              "pitch": 60,
              "velocity": 61,
              "position": 5.25,
              "duration": 0.7395833333333334
            },
            {
              "pitch": 58,
              "velocity": 68,
              "position": 6,
              "duration": 0.4895833333333333
            },
            {
              "pitch": 63,
              "velocity": 58,
              "position": 5.75,
              "duration": 0.9895833333333334
            },
            {
              "pitch": 55,
              "velocity": 61,
              "position": 6.25,
              "duration": 0.9895833333333334
            },
            {
              "pitch": 58,
              "velocity": 54,
              "position": 6.5,
              "duration": 0.9895833333333334
            },
            {
              "pitch": 63,
              "velocity": 72,
              "position": 6.75,
              "duration": 0.9895833333333334
            },
            {
              "pitch": 55,
              "velocity": 61,
              "position": 7.25,
              "duration": 0.7395833333333334
            },
            {
              "pitch": 58,
              "velocity": 64,
              "position": 7.5,
              "duration": 0.4895833333333333
            },
            {
              "pitch": 63,
              "velocity": 53,
              "position": 7.75,
              "duration": 0.25
            },
            {
              "pitch": 60,
              "velocity": 61,
              "position": 8.25,
              "duration": 0.9895833333333334
            },
            {
              "pitch": 56,
              "velocity": 62,
              "position": 8.5,
              "duration": 0.9895833333333334
            },
            {
              "pitch": 65,
              "velocity": 82,
              "position": 8.75,
              "duration": 0.9895833333333334
            },
            {
              "pitch": 60,
              "velocity": 61,
              "position": 9.25,
              "duration": 0.9895833333333334
            },
            {
              "pitch": 56,
              "velocity": 62,
              "position": 9.5,
              "duration": 0.9895833333333334
            },
            {
              "pitch": 63,
              "velocity": 62,
              "position": 9.75,
              "duration": 0.9895833333333334
            },
            {
              "pitch": 55,
              "velocity": 62,
              "position": 10.5,
              "duration": 0.4895833333333333
            },
            {
              "pitch": 60,
              "velocity": 61,
              "position": 10.25,
              "duration": 0.9895833333333334
            },
            {
              "pitch": 55,
              "velocity": 52,
              "position": 11,
              "duration": 0.4895833333333333
            },
            {
              "pitch": 63,
              "velocity": 86,
              "position": 10.75,
              "duration": 0.9895833333333334
            },
            {
              "pitch": 55,
              "velocity": 62,
              "position": 11.5,
              "duration": 0.7395833333333334
            },
            {
              "pitch": 60,
              "velocity": 61,
              "position": 11.25,
              "duration": 0.9895833333333334
            },
            {
              "pitch": 60,
              "velocity": 68,
              "position": 12.25,
              "duration": 0.9895833333333334
            },
            {
              "pitch": 56,
              "velocity": 52,
              "position": 12.5,
              "duration": 0.9895833333333334
            },
            {
              "pitch": 60,
              "velocity": 49,
              "position": 13.25,
              "duration": 0.4895833333333333
            },
            {
              "pitch": 60,
              "velocity": 54,
              "position": 13.75,
              "duration": 0.5
            },
            {
              "pitch": 56,
              "velocity": 75,
              "position": 13.5,
              "duration": 0.9895833333333334
            },
            {
              "pitch": 65,
              "velocity": 73,
              "position": 12.75,
              "duration": 1.9895833333333333
            },
            {
              "pitch": 59,
              "velocity": 68,
              "position": 14.25,
              "duration": 0.7395833333333334
            },
            {
              "pitch": 55,
              "velocity": 52,
              "position": 14.5,
              "duration": 0.7395833333333334
            },
            {
              "pitch": 60,
              "velocity": 71,
              "position": 15,
              "duration": 0.4895833333333333
            },
            {
              "pitch": 62,
              "velocity": 62,
              "position": 14.75,
              "duration": 0.7395833333333334
            },
            {
              "pitch": 55,
              "velocity": 71,
              "position": 15.25,
              "duration": 0.4895833333333333
            },
            {
              "pitch": 55,
              "velocity": 54,
              "position": 15.75,
              "duration": 0.23958333333333334
            },
            {
              "pitch": 62,
              "velocity": 49,
              "position": 15.5,
              "duration": 0.4895833333333333
            }
          ]
        },
        "8": {
          "ctab": {
            "srcChannel": 8,
            "name": "AddDrum",
            "accType": "SUBRHYTHM",
            "editable": false,
            "mutedNotes": [],
            "mutedChords": [],
            "autoStart": true,
            "sourceChordNote": 0,
            "sourceChordType": "Maj7",
            "ctb2Low": null,
            "ctb2Main": {
              "ntr": "ROOT_FIXED",
              "ntt": "BYPASS",
              "bassOn": false,
              "chordRootUpperLimit": 6,
              "noteLowLimit": 0,
              "noteHighLimit": 127,
              "rtr": "PITCH_SHIFT"
            },
            "ctb2High": null
          },
          "notes": [
            {
              "pitch": 54,
              "velocity": 70,
              "position": 0,
              "duration": 0.010416666666666666
            },
            {
              "pitch": 70,
              "velocity": 65,
              "position": 0,
              "duration": 0.07291666666666667
            },
            {
              "pitch": 69,
              "velocity": 41,
              "position": 0.25,
              "duration": 0.07291666666666667
            },
            {
              "pitch": 54,
              "velocity": 71,
              "position": 0.4895833333333333,
              "duration": 0.052083333333333336
            },
            {
              "pitch": 70,
              "velocity": 98,
              "position": 0.5,
              "duration": 0.07291666666666667
            },
            {
              "pitch": 54,
              "velocity": 59,
              "position": 0.7395833333333334,
              "duration": 0.052083333333333336
            },
            {
              "pitch": 70,
              "velocity": 25,
              "position": 0.75,
              "duration": 0.07291666666666667
            },
            {
              "pitch": 54,
              "velocity": 51,
              "position": 0.9895833333333334,
              "duration": 0.052083333333333336
            },
            {
              "pitch": 70,
              "velocity": 67,
              "position": 1,
              "duration": 0.07291666666666667
            },
            {
              "pitch": 69,
              "velocity": 36,
              "position": 1.25,
              "duration": 0.07291666666666667
            },
            {
              "pitch": 54,
              "velocity": 71,
              "position": 1.4895833333333333,
              "duration": 0.052083333333333336
            },
            {
              "pitch": 70,
              "velocity": 95,
              "position": 1.5,
              "duration": 0.07291666666666667
            },
            {
              "pitch": 70,
              "velocity": 33,
              "position": 1.75,
              "duration": 0.07291666666666667
            },
            {
              "pitch": 54,
              "velocity": 51,
              "position": 1.9895833333333333,
              "duration": 0.052083333333333336
            },
            {
              "pitch": 70,
              "velocity": 60,
              "position": 2,
              "duration": 0.07291666666666667
            },
            {
              "pitch": 69,
              "velocity": 47,
              "position": 2.25,
              "duration": 0.07291666666666667
            },
            {
              "pitch": 54,
              "velocity": 71,
              "position": 2.4895833333333335,
              "duration": 0.052083333333333336
            },
            {
              "pitch": 70,
              "velocity": 100,
              "position": 2.5,
              "duration": 0.07291666666666667
            },
            {
              "pitch": 54,
              "velocity": 59,
              "position": 2.7395833333333335,
              "duration": 0.052083333333333336
            },
            {
              "pitch": 70,
              "velocity": 36,
              "position": 2.75,
              "duration": 0.07291666666666667
            },
            {
              "pitch": 54,
              "velocity": 51,
              "position": 2.9895833333333335,
              "duration": 0.052083333333333336
            },
            {
              "pitch": 70,
              "velocity": 54,
              "position": 3,
              "duration": 0.07291666666666667
            },
            {
              "pitch": 69,
              "velocity": 40,
              "position": 3.25,
              "duration": 0.07291666666666667
            },
            {
              "pitch": 54,
              "velocity": 71,
              "position": 3.4895833333333335,
              "duration": 0.052083333333333336
            },
            {
              "pitch": 70,
              "velocity": 113,
              "position": 3.5,
              "duration": 0.07291666666666667
            },
            {
              "pitch": 70,
              "velocity": 35,
              "position": 3.75,
              "duration": 0.07291666666666667
            },
            {
              "pitch": 54,
              "velocity": 51,
              "position": 3.9895833333333335,
              "duration": 0.052083333333333336
            },
            {
              "pitch": 70,
              "velocity": 62,
              "position": 4,
              "duration": 0.07291666666666667
            },
            {
              "pitch": 69,
              "velocity": 45,
              "position": 4.25,
              "duration": 0.07291666666666667
            },
            {
              "pitch": 54,
              "velocity": 71,
              "position": 4.489583333333333,
              "duration": 0.052083333333333336
            },
            {
              "pitch": 70,
              "velocity": 98,
              "position": 4.5,
              "duration": 0.07291666666666667
            },
            {
              "pitch": 54,
              "velocity": 59,
              "position": 4.739583333333333,
              "duration": 0.052083333333333336
            },
            {
              "pitch": 70,
              "velocity": 30,
              "position": 4.75,
              "duration": 0.07291666666666667
            },
            {
              "pitch": 54,
              "velocity": 51,
              "position": 4.989583333333333,
              "duration": 0.052083333333333336
            },
            {
              "pitch": 70,
              "velocity": 58,
              "position": 5,
              "duration": 0.07291666666666667
            },
            {
              "pitch": 69,
              "velocity": 45,
              "position": 5.25,
              "duration": 0.07291666666666667
            },
            {
              "pitch": 54,
              "velocity": 71,
              "position": 5.489583333333333,
              "duration": 0.052083333333333336
            },
            {
              "pitch": 70,
              "velocity": 102,
              "position": 5.5,
              "duration": 0.07291666666666667
            },
            {
              "pitch": 70,
              "velocity": 25,
              "position": 5.75,
              "duration": 0.07291666666666667
            },
            {
              "pitch": 54,
              "velocity": 51,
              "position": 5.989583333333333,
              "duration": 0.052083333333333336
            },
            {
              "pitch": 70,
              "velocity": 59,
              "position": 6,
              "duration": 0.07291666666666667
            },
            {
              "pitch": 69,
              "velocity": 41,
              "position": 6.25,
              "duration": 0.07291666666666667
            },
            {
              "pitch": 54,
              "velocity": 71,
              "position": 6.489583333333333,
              "duration": 0.052083333333333336
            },
            {
              "pitch": 70,
              "velocity": 99,
              "position": 6.5,
              "duration": 0.07291666666666667
            },
            {
              "pitch": 54,
              "velocity": 59,
              "position": 6.739583333333333,
              "duration": 0.052083333333333336
            },
            {
              "pitch": 70,
              "velocity": 39,
              "position": 6.75,
              "duration": 0.07291666666666667
            },
            {
              "pitch": 54,
              "velocity": 51,
              "position": 6.989583333333333,
              "duration": 0.052083333333333336
            },
            {
              "pitch": 70,
              "velocity": 63,
              "position": 7,
              "duration": 0.07291666666666667
            },
            {
              "pitch": 69,
              "velocity": 41,
              "position": 7.25,
              "duration": 0.07291666666666667
            },
            {
              "pitch": 62,
              "velocity": 22,
              "position": 7.25,
              "duration": 0.08333333333333333
            },
            {
              "pitch": 54,
              "velocity": 71,
              "position": 7.489583333333333,
              "duration": 0.052083333333333336
            },
            {
              "pitch": 70,
              "velocity": 110,
              "position": 7.5,
              "duration": 0.07291666666666667
            },
            {
              "pitch": 62,
              "velocity": 79,
              "position": 7.5,
              "duration": 0.08333333333333333
            },
            {
              "pitch": 70,
              "velocity": 31,
              "position": 7.75,
              "duration": 0.07291666666666667
            },
            {
              "pitch": 62,
              "velocity": 38,
              "position": 7.75,
              "duration": 0.08333333333333333
            },
            {
              "pitch": 54,
              "velocity": 51,
              "position": 7.989583333333333,
              "duration": 0.052083333333333336
            },
            {
              "pitch": 70,
              "velocity": 54,
              "position": 8,
              "duration": 0.07291666666666667
            },
            {
              "pitch": 62,
              "velocity": 115,
              "position": 8,
              "duration": 0.08333333333333333
            },
            {
              "pitch": 69,
              "velocity": 40,
              "position": 8.25,
              "duration": 0.07291666666666667
            },
            {
              "pitch": 63,
              "velocity": 75,
              "position": 8.25,
              "duration": 0.08333333333333333
            },
            {
              "pitch": 60,
              "velocity": 103,
              "position": 8.270833333333334,
              "duration": 0.08333333333333333
            },
            {
              "pitch": 54,
              "velocity": 71,
              "position": 8.489583333333334,
              "duration": 0.052083333333333336
            },
            {
              "pitch": 70,
              "velocity": 99,
              "position": 8.5,
              "duration": 0.07291666666666667
            },
            {
              "pitch": 63,
              "velocity": 45,
              "position": 8.5,
              "duration": 0.08333333333333333
            },
            {
              "pitch": 54,
              "velocity": 59,
              "position": 8.739583333333334,
              "duration": 0.052083333333333336
            },
            {
              "pitch": 70,
              "velocity": 27,
              "position": 8.75,
              "duration": 0.07291666666666667
            },
            {
              "pitch": 64,
              "velocity": 32,
              "position": 8.75,
              "duration": 0.08333333333333333
            },
            {
              "pitch": 60,
              "velocity": 29,
              "position": 8.770833333333334,
              "duration": 0.08333333333333333
            },
            {
              "pitch": 54,
              "velocity": 51,
              "position": 8.989583333333334,
              "duration": 0.052083333333333336
            },
            {
              "pitch": 70,
              "velocity": 63,
              "position": 9,
              "duration": 0.07291666666666667
            },
            {
              "pitch": 63,
              "velocity": 118,
              "position": 9,
              "duration": 0.08333333333333333
            },
            {
              "pitch": 61,
              "velocity": 88,
              "position": 9.020833333333334,
              "duration": 0.08333333333333333
            },
            {
              "pitch": 69,
              "velocity": 36,
              "position": 9.25,
              "duration": 0.07291666666666667
            },
            {
              "pitch": 62,
              "velocity": 35,
              "position": 9.25,
              "duration": 0.08333333333333333
            },
            {
              "pitch": 54,
              "velocity": 71,
              "position": 9.489583333333334,
              "duration": 0.052083333333333336
            },
            {
              "pitch": 70,
              "velocity": 101,
              "position": 9.5,
              "duration": 0.07291666666666667
            },
            {
              "pitch": 62,
              "velocity": 49,
              "position": 9.5,
              "duration": 0.08333333333333333
            },
            {
              "pitch": 70,
              "velocity": 24,
              "position": 9.75,
              "duration": 0.07291666666666667
            },
            {
              "pitch": 62,
              "velocity": 42,
              "position": 9.75,
              "duration": 0.08333333333333333
            },
            {
              "pitch": 54,
              "velocity": 51,
              "position": 9.989583333333334,
              "duration": 0.052083333333333336
            },
            {
              "pitch": 70,
              "velocity": 59,
              "position": 10,
              "duration": 0.07291666666666667
            },
            {
              "pitch": 62,
              "velocity": 113,
              "position": 10,
              "duration": 0.08333333333333333
            },
            {
              "pitch": 69,
              "velocity": 47,
              "position": 10.25,
              "duration": 0.07291666666666667
            },
            {
              "pitch": 63,
              "velocity": 71,
              "position": 10.25,
              "duration": 0.08333333333333333
            },
            {
              "pitch": 60,
              "velocity": 103,
              "position": 10.270833333333334,
              "duration": 0.08333333333333333
            },
            {
              "pitch": 54,
              "velocity": 71,
              "position": 10.489583333333334,
              "duration": 0.052083333333333336
            },
            {
              "pitch": 70,
              "velocity": 95,
              "position": 10.5,
              "duration": 0.07291666666666667
            },
            {
              "pitch": 63,
              "velocity": 52,
              "position": 10.5,
              "duration": 0.08333333333333333
            },
            {
              "pitch": 60,
              "velocity": 61,
              "position": 10.520833333333334,
              "duration": 0.08333333333333333
            },
            {
              "pitch": 54,
              "velocity": 59,
              "position": 10.739583333333334,
              "duration": 0.052083333333333336
            },
            {
              "pitch": 70,
              "velocity": 31,
              "position": 10.75,
              "duration": 0.07291666666666667
            },
            {
              "pitch": 64,
              "velocity": 30,
              "position": 10.75,
              "duration": 0.08333333333333333
            },
            {
              "pitch": 60,
              "velocity": 36,
              "position": 10.770833333333334,
              "duration": 0.08333333333333333
            },
            {
              "pitch": 54,
              "velocity": 51,
              "position": 10.989583333333334,
              "duration": 0.052083333333333336
            },
            {
              "pitch": 70,
              "velocity": 55,
              "position": 11,
              "duration": 0.07291666666666667
            },
            {
              "pitch": 64,
              "velocity": 72,
              "position": 11,
              "duration": 0.08333333333333333
            },
            {
              "pitch": 61,
              "velocity": 109,
              "position": 11.020833333333334,
              "duration": 0.08333333333333333
            },
            {
              "pitch": 69,
              "velocity": 44,
              "position": 11.25,
              "duration": 0.07291666666666667
            },
            {
              "pitch": 62,
              "velocity": 30,
              "position": 11.25,
              "duration": 0.08333333333333333
            },
            {
              "pitch": 54,
              "velocity": 71,
              "position": 11.489583333333334,
              "duration": 0.052083333333333336
            },
            {
              "pitch": 70,
              "velocity": 103,
              "position": 11.5,
              "duration": 0.07291666666666667
            },
            {
              "pitch": 62,
              "velocity": 80,
              "position": 11.5,
              "duration": 0.08333333333333333
            },
            {
              "pitch": 70,
              "velocity": 34,
              "position": 11.75,
              "duration": 0.07291666666666667
            },
            {
              "pitch": 62,
              "velocity": 33,
              "position": 11.75,
              "duration": 0.08333333333333333
            },
            {
              "pitch": 54,
              "velocity": 51,
              "position": 11.989583333333334,
              "duration": 0.052083333333333336
            },
            {
              "pitch": 70,
              "velocity": 64,
              "position": 12,
              "duration": 0.07291666666666667
            },
            {
              "pitch": 62,
              "velocity": 116,
              "position": 12,
              "duration": 0.08333333333333333
            },
            {
              "pitch": 69,
              "velocity": 42,
              "position": 12.25,
              "duration": 0.07291666666666667
            },
            {
              "pitch": 63,
              "velocity": 70,
              "position": 12.25,
              "duration": 0.08333333333333333
            },
            {
              "pitch": 60,
              "velocity": 94,
              "position": 12.270833333333334,
              "duration": 0.08333333333333333
            },
            {
              "pitch": 54,
              "velocity": 71,
              "position": 12.489583333333334,
              "duration": 0.052083333333333336
            },
            {
              "pitch": 70,
              "velocity": 93,
              "position": 12.5,
              "duration": 0.07291666666666667
            },
            {
              "pitch": 63,
              "velocity": 49,
              "position": 12.5,
              "duration": 0.08333333333333333
            },
            {
              "pitch": 54,
              "velocity": 59,
              "position": 12.739583333333334,
              "duration": 0.052083333333333336
            },
            {
              "pitch": 70,
              "velocity": 28,
              "position": 12.75,
              "duration": 0.07291666666666667
            },
            {
              "pitch": 64,
              "velocity": 32,
              "position": 12.75,
              "duration": 0.08333333333333333
            },
            {
              "pitch": 60,
              "velocity": 32,
              "position": 12.770833333333334,
              "duration": 0.08333333333333333
            },
            {
              "pitch": 54,
              "velocity": 51,
              "position": 12.989583333333334,
              "duration": 0.052083333333333336
            },
            {
              "pitch": 70,
              "velocity": 61,
              "position": 13,
              "duration": 0.07291666666666667
            },
            {
              "pitch": 63,
              "velocity": 121,
              "position": 13,
              "duration": 0.08333333333333333
            },
            {
              "pitch": 61,
              "velocity": 113,
              "position": 13.020833333333334,
              "duration": 0.08333333333333333
            },
            {
              "pitch": 69,
              "velocity": 34,
              "position": 13.25,
              "duration": 0.07291666666666667
            },
            {
              "pitch": 62,
              "velocity": 28,
              "position": 13.25,
              "duration": 0.08333333333333333
            },
            {
              "pitch": 54,
              "velocity": 71,
              "position": 13.489583333333334,
              "duration": 0.052083333333333336
            },
            {
              "pitch": 70,
              "velocity": 107,
              "position": 13.5,
              "duration": 0.07291666666666667
            },
            {
              "pitch": 62,
              "velocity": 42,
              "position": 13.5,
              "duration": 0.08333333333333333
            },
            {
              "pitch": 70,
              "velocity": 28,
              "position": 13.75,
              "duration": 0.07291666666666667
            },
            {
              "pitch": 62,
              "velocity": 48,
              "position": 13.75,
              "duration": 0.08333333333333333
            },
            {
              "pitch": 54,
              "velocity": 51,
              "position": 13.989583333333334,
              "duration": 0.052083333333333336
            },
            {
              "pitch": 70,
              "velocity": 60,
              "position": 14,
              "duration": 0.07291666666666667
            },
            {
              "pitch": 62,
              "velocity": 115,
              "position": 14,
              "duration": 0.08333333333333333
            },
            {
              "pitch": 69,
              "velocity": 40,
              "position": 14.25,
              "duration": 0.07291666666666667
            },
            {
              "pitch": 63,
              "velocity": 63,
              "position": 14.25,
              "duration": 0.08333333333333333
            },
            {
              "pitch": 60,
              "velocity": 99,
              "position": 14.270833333333334,
              "duration": 0.08333333333333333
            },
            {
              "pitch": 54,
              "velocity": 71,
              "position": 14.489583333333334,
              "duration": 0.052083333333333336
            },
            {
              "pitch": 70,
              "velocity": 96,
              "position": 14.5,
              "duration": 0.07291666666666667
            },
            {
              "pitch": 63,
              "velocity": 55,
              "position": 14.5,
              "duration": 0.08333333333333333
            },
            {
              "pitch": 60,
              "velocity": 55,
              "position": 14.520833333333334,
              "duration": 0.08333333333333333
            },
            {
              "pitch": 54,
              "velocity": 59,
              "position": 14.739583333333334,
              "duration": 0.052083333333333336
            },
            {
              "pitch": 70,
              "velocity": 39,
              "position": 14.75,
              "duration": 0.07291666666666667
            },
            {
              "pitch": 64,
              "velocity": 31,
              "position": 14.75,
              "duration": 0.08333333333333333
            },
            {
              "pitch": 60,
              "velocity": 38,
              "position": 14.770833333333334,
              "duration": 0.08333333333333333
            },
            {
              "pitch": 54,
              "velocity": 51,
              "position": 14.989583333333334,
              "duration": 0.052083333333333336
            },
            {
              "pitch": 70,
              "velocity": 61,
              "position": 15,
              "duration": 0.07291666666666667
            },
            {
              "pitch": 64,
              "velocity": 69,
              "position": 15,
              "duration": 0.08333333333333333
            },
            {
              "pitch": 61,
              "velocity": 112,
              "position": 15.020833333333334,
              "duration": 0.08333333333333333
            },
            {
              "pitch": 69,
              "velocity": 34,
              "position": 15.25,
              "duration": 0.07291666666666667
            },
            {
              "pitch": 62,
              "velocity": 23,
              "position": 15.25,
              "duration": 0.08333333333333333
            },
            {
              "pitch": 54,
              "velocity": 71,
              "position": 15.489583333333334,
              "duration": 0.052083333333333336
            },
            {
              "pitch": 70,
              "velocity": 108,
              "position": 15.5,
              "duration": 0.07291666666666667
            },
            {
              "pitch": 62,
              "velocity": 91,
              "position": 15.5,
              "duration": 0.08333333333333333
            },
            {
              "pitch": 70,
              "velocity": 33,
              "position": 15.75,
              "duration": 0.07291666666666667
            },
            {
              "pitch": 62,
              "velocity": 38,
              "position": 15.75,
              "duration": 0.08333333333333333
            },
            {
              "pitch": 54,
              "velocity": 51,
              "position": 15.989583333333334,
              "duration": 0.004166666666666667
            }
          ]
        },
        "9": {
          "ctab": {
            "srcChannel": 9,
            "name": "MainDrum",
            "accType": "RHYTHM",
            "editable": false,
            "mutedNotes": [],
            "mutedChords": [],
            "autoStart": true,
            "sourceChordNote": 0,
            "sourceChordType": "Maj7",
            "ctb2Low": null,
            "ctb2Main": {
              "ntr": "ROOT_FIXED",
              "ntt": "BYPASS",
              "bassOn": false,
              "chordRootUpperLimit": 6,
              "noteLowLimit": 0,
              "noteHighLimit": 127,
              "rtr": "PITCH_SHIFT"
            },
            "ctb2High": null
          },
          "notes": [
            {
              "pitch": 59,
              "velocity": 79,
              "position": 0,
              "duration": 0.052083333333333336
            },
            {
              "pitch": 51,
              "velocity": 34,
              "position": 0.2604166666666667,
              "duration": 0.052083333333333336
            },
            {
              "pitch": 44,
              "velocity": 60,
              "position": 0.5,
              "duration": 0.052083333333333336
            },
            {
              "pitch": 53,
              "velocity": 74,
              "position": 0.5,
              "duration": 0.052083333333333336
            },
            {
              "pitch": 59,
              "velocity": 54,
              "position": 0.7604166666666666,
              "duration": 0.052083333333333336
            },
            {
              "pitch": 36,
              "velocity": 82,
              "position": 1,
              "duration": 0.052083333333333336
            },
            {
              "pitch": 51,
              "velocity": 39,
              "position": 1.2604166666666667,
              "duration": 0.052083333333333336
            },
            {
              "pitch": 44,
              "velocity": 60,
              "position": 1.5,
              "duration": 0.052083333333333336
            },
            {
              "pitch": 51,
              "velocity": 86,
              "position": 1.5,
              "duration": 0.052083333333333336
            },
            {
              "pitch": 59,
              "velocity": 44,
              "position": 1.7604166666666667,
              "duration": 0.052083333333333336
            },
            {
              "pitch": 51,
              "velocity": 81,
              "position": 2,
              "duration": 0.052083333333333336
            },
            {
              "pitch": 59,
              "velocity": 25,
              "position": 2.2604166666666665,
              "duration": 0.052083333333333336
            },
            {
              "pitch": 44,
              "velocity": 60,
              "position": 2.5,
              "duration": 0.052083333333333336
            },
            {
              "pitch": 53,
              "velocity": 77,
              "position": 2.5,
              "duration": 0.052083333333333336
            },
            {
              "pitch": 36,
              "velocity": 70,
              "position": 2.7604166666666665,
              "duration": 0.052083333333333336
            },
            {
              "pitch": 51,
              "velocity": 68,
              "position": 2.7604166666666665,
              "duration": 0.052083333333333336
            },
            {
              "pitch": 51,
              "velocity": 42,
              "position": 2.875,
              "duration": 0.052083333333333336
            },
            {
              "pitch": 36,
              "velocity": 82,
              "position": 3,
              "duration": 0.052083333333333336
            },
            {
              "pitch": 51,
              "velocity": 102,
              "position": 3,
              "duration": 0.052083333333333336
            },
            {
              "pitch": 59,
              "velocity": 52,
              "position": 3.2604166666666665,
              "duration": 0.052083333333333336
            },
            {
              "pitch": 44,
              "velocity": 60,
              "position": 3.5,
              "duration": 0.052083333333333336
            },
            {
              "pitch": 59,
              "velocity": 76,
              "position": 3.5,
              "duration": 0.052083333333333336
            },
            {
              "pitch": 51,
              "velocity": 49,
              "position": 3.7604166666666665,
              "duration": 0.052083333333333336
            },
            {
              "pitch": 51,
              "velocity": 90,
              "position": 4,
              "duration": 0.052083333333333336
            },
            {
              "pitch": 59,
              "velocity": 23,
              "position": 4.260416666666667,
              "duration": 0.052083333333333336
            },
            {
              "pitch": 44,
              "velocity": 60,
              "position": 4.5,
              "duration": 0.052083333333333336
            },
            {
              "pitch": 53,
              "velocity": 74,
              "position": 4.5,
              "duration": 0.052083333333333336
            },
            {
              "pitch": 51,
              "velocity": 65,
              "position": 4.760416666666667,
              "duration": 0.052083333333333336
            },
            {
              "pitch": 36,
              "velocity": 82,
              "position": 5,
              "duration": 0.052083333333333336
            },
            {
              "pitch": 53,
              "velocity": 41,
              "position": 5,
              "duration": 0.052083333333333336
            },
            {
              "pitch": 59,
              "velocity": 28,
              "position": 5.260416666666667,
              "duration": 0.052083333333333336
            },
            {
              "pitch": 44,
              "velocity": 60,
              "position": 5.5,
              "duration": 0.052083333333333336
            },
            {
              "pitch": 59,
              "velocity": 75,
              "position": 5.5,
              "duration": 0.052083333333333336
            },
            {
              "pitch": 51,
              "velocity": 55,
              "position": 5.760416666666667,
              "duration": 0.052083333333333336
            },
            {
              "pitch": 51,
              "velocity": 81,
              "position": 6,
              "duration": 0.052083333333333336
            },
            {
              "pitch": 59,
              "velocity": 70,
              "position": 6,
              "duration": 0.052083333333333336
            },
            {
              "pitch": 59,
              "velocity": 25,
              "position": 6.260416666666667,
              "duration": 0.052083333333333336
            },
            {
              "pitch": 44,
              "velocity": 60,
              "position": 6.5,
              "duration": 0.052083333333333336
            },
            {
              "pitch": 53,
              "velocity": 77,
              "position": 6.5,
              "duration": 0.052083333333333336
            },
            {
              "pitch": 36,
              "velocity": 70,
              "position": 6.760416666666667,
              "duration": 0.052083333333333336
            },
            {
              "pitch": 51,
              "velocity": 68,
              "position": 6.760416666666667,
              "duration": 0.052083333333333336
            },
            {
              "pitch": 51,
              "velocity": 42,
              "position": 6.875,
              "duration": 0.052083333333333336
            },
            {
              "pitch": 36,
              "velocity": 82,
              "position": 7,
              "duration": 0.052083333333333336
            },
            {
              "pitch": 51,
              "velocity": 102,
              "position": 7,
              "duration": 0.052083333333333336
            },
            {
              "pitch": 59,
              "velocity": 52,
              "position": 7.260416666666667,
              "duration": 0.052083333333333336
            },
            {
              "pitch": 44,
              "velocity": 60,
              "position": 7.5,
              "duration": 0.052083333333333336
            },
            {
              "pitch": 59,
              "velocity": 76,
              "position": 7.5,
              "duration": 0.052083333333333336
            },
            {
              "pitch": 51,
              "velocity": 49,
              "position": 7.760416666666667,
              "duration": 0.052083333333333336
            },
            {
              "pitch": 51,
              "velocity": 90,
              "position": 8,
              "duration": 0.052083333333333336
            },
            {
              "pitch": 59,
              "velocity": 23,
              "position": 8.260416666666666,
              "duration": 0.052083333333333336
            },
            {
              "pitch": 44,
              "velocity": 60,
              "position": 8.5,
              "duration": 0.052083333333333336
            },
            {
              "pitch": 53,
              "velocity": 74,
              "position": 8.5,
              "duration": 0.052083333333333336
            },
            {
              "pitch": 51,
              "velocity": 65,
              "position": 8.760416666666666,
              "duration": 0.052083333333333336
            },
            {
              "pitch": 36,
              "velocity": 82,
              "position": 9,
              "duration": 0.052083333333333336
            },
            {
              "pitch": 53,
              "velocity": 41,
              "position": 9,
              "duration": 0.052083333333333336
            },
            {
              "pitch": 59,
              "velocity": 28,
              "position": 9.260416666666666,
              "duration": 0.052083333333333336
            },
            {
              "pitch": 44,
              "velocity": 60,
              "position": 9.5,
              "duration": 0.052083333333333336
            },
            {
              "pitch": 59,
              "velocity": 75,
              "position": 9.5,
              "duration": 0.052083333333333336
            },
            {
              "pitch": 51,
              "velocity": 55,
              "position": 9.760416666666666,
              "duration": 0.052083333333333336
            },
            {
              "pitch": 59,
              "velocity": 70,
              "position": 10,
              "duration": 0.052083333333333336
            },
            {
              "pitch": 40,
              "velocity": 93,
              "position": 10.260416666666666,
              "duration": 0.052083333333333336
            },
            {
              "pitch": 44,
              "velocity": 60,
              "position": 10.5,
              "duration": 0.052083333333333336
            },
            {
              "pitch": 53,
              "velocity": 77,
              "position": 10.5,
              "duration": 0.052083333333333336
            },
            {
              "pitch": 40,
              "velocity": 45,
              "position": 10.760416666666666,
              "duration": 0.052083333333333336
            },
            {
              "pitch": 40,
              "velocity": 63,
              "position": 10.875,
              "duration": 0.052083333333333336
            },
            {
              "pitch": 36,
              "velocity": 82,
              "position": 11,
              "duration": 0.052083333333333336
            },
            {
              "pitch": 40,
              "velocity": 102,
              "position": 11,
              "duration": 0.052083333333333336
            },
            {
              "pitch": 40,
              "velocity": 89,
              "position": 11.260416666666666,
              "duration": 0.00625
            },
            {
              "pitch": 53,
              "velocity": 56,
              "position": 11.260416666666666,
              "duration": 0.052083333333333336
            },
            {
              "pitch": 44,
              "velocity": 60,
              "position": 11.5,
              "duration": 0.052083333333333336
            },
            {
              "pitch": 45,
              "velocity": 93,
              "position": 11.5,
              "duration": 0.052083333333333336
            },
            {
              "pitch": 41,
              "velocity": 74,
              "position": 11.760416666666666,
              "duration": 0.052083333333333336
            },
            {
              "pitch": 36,
              "velocity": 82,
              "position": 12,
              "duration": 0.052083333333333336
            },
            {
              "pitch": 57,
              "velocity": 80,
              "position": 12,
              "duration": 0.052083333333333336
            },
            {
              "pitch": 40,
              "velocity": 48,
              "position": 12.260416666666666,
              "duration": 0.052083333333333336
            },
            {
              "pitch": 44,
              "velocity": 60,
              "position": 12.5,
              "duration": 0.052083333333333336
            },
            {
              "pitch": 40,
              "velocity": 100,
              "position": 12.760416666666666,
              "duration": 0.052083333333333336
            },
            {
              "pitch": 36,
              "velocity": 70,
              "position": 13.260416666666666,
              "duration": 0.052083333333333336
            },
            {
              "pitch": 44,
              "velocity": 60,
              "position": 13.5,
              "duration": 0.052083333333333336
            },
            {
              "pitch": 36,
              "velocity": 82,
              "position": 13.760416666666666,
              "duration": 0.052083333333333336
            },
            {
              "pitch": 52,
              "velocity": 70,
              "position": 13.760416666666666,
              "duration": 0.052083333333333336
            },
            {
              "pitch": 40,
              "velocity": 73,
              "position": 14.260416666666666,
              "duration": 0.052083333333333336
            },
            {
              "pitch": 36,
              "velocity": 74,
              "position": 14.5,
              "duration": 0.052083333333333336
            },
            {
              "pitch": 46,
              "velocity": 72,
              "position": 14.5,
              "duration": 0.052083333333333336
            },
            {
              "pitch": 42,
              "velocity": 67,
              "position": 14.760416666666666,
              "duration": 0.052083333333333336
            },
            {
              "pitch": 47,
              "velocity": 72,
              "position": 14.760416666666666,
              "duration": 0.052083333333333336
            },
            {
              "pitch": 40,
              "velocity": 100,
              "position": 15,
              "duration": 0.052083333333333336
            },
            {
              "pitch": 42,
              "velocity": 44,
              "position": 15.260416666666666,
              "duration": 0.052083333333333336
            },
            {
              "pitch": 43,
              "velocity": 84,
              "position": 15.5,
              "duration": 0.052083333333333336
            },
            {
              "pitch": 46,
              "velocity": 72,
              "position": 15.5,
              "duration": 0.052083333333333336
            },
            {
              "pitch": 41,
              "velocity": 72,
              "position": 15.760416666666666,
              "duration": 0.052083333333333336
            },
            {
              "pitch": 49,
              "velocity": 80,
              "position": 15.989583333333334,
              "duration": 0.010416666666666666
            }
          ]
        },
        "10": {
          "ctab": {
            "srcChannel": 10,
            "name": "Bass Maj",
            "accType": "BASS",
            "editable": false,
            "mutedNotes": [],
            "mutedChords": [
              "dim7",
              "dim",
              "minMaj7(9)",
              "minMaj7",
              "min7(11)",
              "min7(9)",
              "min(9)",
              "m7b5",
              "min7",
              "min6",
              "min"
            ],
            "autoStart": false,
            "sourceChordNote": 0,
            "sourceChordType": "Maj",
            "ctb2Low": null,
            "ctb2Main": {
              "ntr": "ROOT_TRANSPOSITION",
              "ntt": "BYPASS",
              "bassOn": false,
              "chordRootUpperLimit": 5,
              "noteLowLimit": 28,
              "noteHighLimit": 55,
              "rtr": "PITCH_SHIFT"
            },
            "ctb2High": null
          },
          "notes": [
            {
              "pitch": 24,
              "velocity": 60,
              "position": 0,
              "duration": 1.9895833333333333
            },
            {
              "pitch": 35,
              "velocity": 60,
              "position": 2,
              "duration": 1.9895833333333333
            },
            {
              "pitch": 33,
              "velocity": 60,
              "position": 4,
              "duration": 1.9895833333333333
            },
            {
              "pitch": 31,
              "velocity": 60,
              "position": 6,
              "duration": 0.9895833333333334
            },
            {
              "pitch": 43,
              "velocity": 60,
              "position": 7,
              "duration": 0.9895833333333334
            },
            {
              "pitch": 41,
              "velocity": 60,
              "position": 8,
              "duration": 0.9895833333333334
            },
            {
              "pitch": 29,
              "velocity": 60,
              "position": 9,
              "duration": 0.9895833333333334
            },
            {
              "pitch": 28,
              "velocity": 60,
              "position": 10,
              "duration": 0.9895833333333334
            },
            {
              "pitch": 40,
              "velocity": 60,
              "position": 11,
              "duration": 0.9895833333333334
            },
            {
              "pitch": 38,
              "velocity": 60,
              "position": 12,
              "duration": 1.7395833333333333
            },
            {
              "pitch": 33,
              "velocity": 60,
              "position": 13.760416666666666,
              "duration": 0.22916666666666666
            },
            {
              "pitch": 31,
              "velocity": 60,
              "position": 14,
              "duration": 0.4895833333333333
            },
            {
              "pitch": 31,
              "velocity": 60,
              "position": 14.5,
              "duration": 0.4895833333333333
            },
            {
              "pitch": 33,
              "velocity": 60,
              "position": 15,
              "duration": 0.4895833333333333
            },
            {
              "pitch": 35,
              "velocity": 60,
              "position": 15.5,
              "duration": 0.4895833333333333
            }
          ]
        },
        "11": {
          "ctab": {
            "srcChannel": 11,
            "name": "Gt_Stk M",
            "accType": "CHORD1",
            "editable": false,
            "mutedNotes": [],
            "mutedChords": [
              "dim7",
              "dim",
              "minMaj7(9)",
              "minMaj7",
              "min7(11)",
              "min7(9)",
              "min(9)",
              "m7b5",
              "min7",
              "min6",
              "min"
            ],
            "autoStart": false,
            "sourceChordNote": 0,
            "sourceChordType": "Maj",
            "ctb2Low": null,
            "ctb2Main": {
              "ntr": "ROOT_TRANSPOSITION",
              "ntt": "BYPASS",
              "bassOn": false,
              "chordRootUpperLimit": 5,
              "noteLowLimit": 46,
              "noteHighLimit": 70,
              "rtr": "PITCH_SHIFT"
            },
            "ctb2High": null
          },
          "notes": [
            {
              "pitch": 104,
              "velocity": 93,
              "position": 0,
              "duration": 0.10416666666666667
            },
            {
              "pitch": 103,
              "velocity": 43,
              "position": 0.2604166666666667,
              "duration": 0.10416666666666667
            },
            {
              "pitch": 55,
              "velocity": 46,
              "position": 0,
              "duration": 0.4895833333333333
            },
            {
              "pitch": 60,
              "velocity": 46,
              "position": 0.010416666666666666,
              "duration": 0.4895833333333333
            },
            {
              "pitch": 64,
              "velocity": 46,
              "position": 0.020833333333333332,
              "duration": 0.4895833333333333
            },
            {
              "pitch": 106,
              "velocity": 104,
              "position": 0.5,
              "duration": 0.10416666666666667
            },
            {
              "pitch": 109,
              "velocity": 54,
              "position": 1,
              "duration": 0.10416666666666667
            },
            {
              "pitch": 55,
              "velocity": 50,
              "position": 0.5,
              "duration": 0.7395833333333334
            },
            {
              "pitch": 64,
              "velocity": 50,
              "position": 0.5208333333333334,
              "duration": 0.71875
            },
            {
              "pitch": 60,
              "velocity": 50,
              "position": 0.5104166666666666,
              "duration": 0.7395833333333334
            },
            {
              "pitch": 110,
              "velocity": 58,
              "position": 1.25,
              "duration": 0.10416666666666667
            },
            {
              "pitch": 55,
              "velocity": 34,
              "position": 1.2708333333333333,
              "duration": 0.21875
            },
            {
              "pitch": 60,
              "velocity": 34,
              "position": 1.2604166666666667,
              "duration": 0.23958333333333334
            },
            {
              "pitch": 64,
              "velocity": 42,
              "position": 1.25,
              "duration": 0.2604166666666667
            },
            {
              "pitch": 106,
              "velocity": 108,
              "position": 1.5,
              "duration": 0.10416666666666667
            },
            {
              "pitch": 103,
              "velocity": 43,
              "position": 1.7604166666666667,
              "duration": 0.10416666666666667
            },
            {
              "pitch": 55,
              "velocity": 50,
              "position": 1.5,
              "duration": 0.4895833333333333
            },
            {
              "pitch": 64,
              "velocity": 50,
              "position": 1.5208333333333333,
              "duration": 0.46875
            },
            {
              "pitch": 60,
              "velocity": 50,
              "position": 1.5104166666666667,
              "duration": 0.4895833333333333
            },
            {
              "pitch": 104,
              "velocity": 93,
              "position": 2,
              "duration": 0.10416666666666667
            },
            {
              "pitch": 121,
              "velocity": 76,
              "position": 1.75,
              "duration": 0.3541666666666667
            },
            {
              "pitch": 103,
              "velocity": 43,
              "position": 2.2604166666666665,
              "duration": 0.10416666666666667
            },
            {
              "pitch": 55,
              "velocity": 45,
              "position": 2,
              "duration": 0.4895833333333333
            },
            {
              "pitch": 59,
              "velocity": 45,
              "position": 2.0104166666666665,
              "duration": 0.4895833333333333
            },
            {
              "pitch": 62,
              "velocity": 45,
              "position": 2.0208333333333335,
              "duration": 0.4895833333333333
            },
            {
              "pitch": 106,
              "velocity": 104,
              "position": 2.5,
              "duration": 0.10416666666666667
            },
            {
              "pitch": 109,
              "velocity": 54,
              "position": 3,
              "duration": 0.10416666666666667
            },
            {
              "pitch": 55,
              "velocity": 50,
              "position": 2.5,
              "duration": 0.7395833333333334
            },
            {
              "pitch": 62,
              "velocity": 50,
              "position": 2.5208333333333335,
              "duration": 0.71875
            },
            {
              "pitch": 59,
              "velocity": 50,
              "position": 2.5104166666666665,
              "duration": 0.7395833333333334
            },
            {
              "pitch": 110,
              "velocity": 58,
              "position": 3.25,
              "duration": 0.10416666666666667
            },
            {
              "pitch": 55,
              "velocity": 34,
              "position": 3.2708333333333335,
              "duration": 0.21875
            },
            {
              "pitch": 59,
              "velocity": 34,
              "position": 3.2604166666666665,
              "duration": 0.23958333333333334
            },
            {
              "pitch": 62,
              "velocity": 42,
              "position": 3.25,
              "duration": 0.2604166666666667
            },
            {
              "pitch": 106,
              "velocity": 108,
              "position": 3.5,
              "duration": 0.10416666666666667
            },
            {
              "pitch": 103,
              "velocity": 43,
              "position": 3.7604166666666665,
              "duration": 0.10416666666666667
            },
            {
              "pitch": 62,
              "velocity": 50,
              "position": 3.5208333333333335,
              "duration": 0.46875
            },
            {
              "pitch": 59,
              "velocity": 50,
              "position": 3.5104166666666665,
              "duration": 0.4895833333333333
            },
            {
              "pitch": 55,
              "velocity": 50,
              "position": 3.5,
              "duration": 0.5104166666666666
            },
            {
              "pitch": 104,
              "velocity": 93,
              "position": 4,
              "duration": 0.10416666666666667
            },
            {
              "pitch": 124,
              "velocity": 76,
              "position": 3.75,
              "duration": 0.3541666666666667
            },
            {
              "pitch": 103,
              "velocity": 43,
              "position": 4.260416666666667,
              "duration": 0.10416666666666667
            },
            {
              "pitch": 57,
              "velocity": 46,
              "position": 4,
              "duration": 0.4895833333333333
            },
            {
              "pitch": 60,
              "velocity": 46,
              "position": 4.010416666666667,
              "duration": 0.4895833333333333
            },
            {
              "pitch": 64,
              "velocity": 46,
              "position": 4.020833333333333,
              "duration": 0.4895833333333333
            },
            {
              "pitch": 106,
              "velocity": 104,
              "position": 4.5,
              "duration": 0.10416666666666667
            },
            {
              "pitch": 109,
              "velocity": 54,
              "position": 5,
              "duration": 0.10416666666666667
            },
            {
              "pitch": 57,
              "velocity": 50,
              "position": 4.5,
              "duration": 0.7395833333333334
            },
            {
              "pitch": 64,
              "velocity": 50,
              "position": 4.520833333333333,
              "duration": 0.71875
            },
            {
              "pitch": 60,
              "velocity": 50,
              "position": 4.510416666666667,
              "duration": 0.7395833333333334
            },
            {
              "pitch": 110,
              "velocity": 58,
              "position": 5.25,
              "duration": 0.10416666666666667
            },
            {
              "pitch": 57,
              "velocity": 34,
              "position": 5.270833333333333,
              "duration": 0.21875
            },
            {
              "pitch": 60,
              "velocity": 34,
              "position": 5.260416666666667,
              "duration": 0.23958333333333334
            },
            {
              "pitch": 64,
              "velocity": 42,
              "position": 5.25,
              "duration": 0.2604166666666667
            },
            {
              "pitch": 106,
              "velocity": 108,
              "position": 5.5,
              "duration": 0.10416666666666667
            },
            {
              "pitch": 103,
              "velocity": 43,
              "position": 5.760416666666667,
              "duration": 0.10416666666666667
            },
            {
              "pitch": 64,
              "velocity": 50,
              "position": 5.520833333333333,
              "duration": 0.46875
            },
            {
              "pitch": 60,
              "velocity": 50,
              "position": 5.510416666666667,
              "duration": 0.4895833333333333
            },
            {
              "pitch": 57,
              "velocity": 50,
              "position": 5.5,
              "duration": 0.5104166666666666
            },
            {
              "pitch": 104,
              "velocity": 93,
              "position": 6,
              "duration": 0.10416666666666667
            },
            {
              "pitch": 103,
              "velocity": 43,
              "position": 6.260416666666667,
              "duration": 0.10416666666666667
            },
            {
              "pitch": 55,
              "velocity": 46,
              "position": 6,
              "duration": 0.4895833333333333
            },
            {
              "pitch": 60,
              "velocity": 46,
              "position": 6.010416666666667,
              "duration": 0.4895833333333333
            },
            {
              "pitch": 64,
              "velocity": 46,
              "position": 6.020833333333333,
              "duration": 0.4895833333333333
            },
            {
              "pitch": 106,
              "velocity": 104,
              "position": 6.5,
              "duration": 0.10416666666666667
            },
            {
              "pitch": 109,
              "velocity": 54,
              "position": 7,
              "duration": 0.10416666666666667
            },
            {
              "pitch": 55,
              "velocity": 50,
              "position": 6.5,
              "duration": 0.7395833333333334
            },
            {
              "pitch": 64,
              "velocity": 50,
              "position": 6.520833333333333,
              "duration": 0.71875
            },
            {
              "pitch": 60,
              "velocity": 50,
              "position": 6.510416666666667,
              "duration": 0.7395833333333334
            },
            {
              "pitch": 110,
              "velocity": 58,
              "position": 7.25,
              "duration": 0.10416666666666667
            },
            {
              "pitch": 55,
              "velocity": 34,
              "position": 7.270833333333333,
              "duration": 0.21875
            },
            {
              "pitch": 60,
              "velocity": 34,
              "position": 7.260416666666667,
              "duration": 0.23958333333333334
            },
            {
              "pitch": 64,
              "velocity": 42,
              "position": 7.25,
              "duration": 0.2604166666666667
            },
            {
              "pitch": 106,
              "velocity": 108,
              "position": 7.5,
              "duration": 0.10416666666666667
            },
            {
              "pitch": 103,
              "velocity": 43,
              "position": 7.760416666666667,
              "duration": 0.10416666666666667
            },
            {
              "pitch": 55,
              "velocity": 50,
              "position": 7.5,
              "duration": 0.4895833333333333
            },
            {
              "pitch": 64,
              "velocity": 50,
              "position": 7.520833333333333,
              "duration": 0.46875
            },
            {
              "pitch": 60,
              "velocity": 50,
              "position": 7.510416666666667,
              "duration": 0.4895833333333333
            },
            {
              "pitch": 111,
              "velocity": 90,
              "position": 8,
              "duration": 0.10416666666666667
            },
            {
              "pitch": 120,
              "velocity": 76,
              "position": 7.75,
              "duration": 0.3541666666666667
            },
            {
              "pitch": 55,
              "velocity": 50,
              "position": 8,
              "duration": 0.23958333333333334
            },
            {
              "pitch": 103,
              "velocity": 45,
              "position": 8.260416666666666,
              "duration": 0.10416666666666667
            },
            {
              "pitch": 57,
              "velocity": 100,
              "position": 8.25,
              "duration": 0.23958333333333334
            },
            {
              "pitch": 60,
              "velocity": 50,
              "position": 8.010416666666666,
              "duration": 0.4895833333333333
            },
            {
              "pitch": 65,
              "velocity": 50,
              "position": 8.020833333333334,
              "duration": 0.4895833333333333
            },
            {
              "pitch": 106,
              "velocity": 80,
              "position": 8.5,
              "duration": 0.10416666666666667
            },
            {
              "pitch": 65,
              "velocity": 36,
              "position": 8.520833333333334,
              "duration": 0.21875
            },
            {
              "pitch": 60,
              "velocity": 33,
              "position": 8.510416666666666,
              "duration": 0.23958333333333334
            },
            {
              "pitch": 57,
              "velocity": 38,
              "position": 8.5,
              "duration": 0.2604166666666667
            },
            {
              "pitch": 110,
              "velocity": 102,
              "position": 8.75,
              "duration": 0.10416666666666667
            },
            {
              "pitch": 109,
              "velocity": 36,
              "position": 9.010416666666666,
              "duration": 0.10416666666666667
            },
            {
              "pitch": 65,
              "velocity": 50,
              "position": 8.75,
              "duration": 0.4895833333333333
            },
            {
              "pitch": 60,
              "velocity": 50,
              "position": 8.760416666666666,
              "duration": 0.4895833333333333
            },
            {
              "pitch": 57,
              "velocity": 50,
              "position": 8.770833333333334,
              "duration": 0.4895833333333333
            },
            {
              "pitch": 103,
              "velocity": 81,
              "position": 9.25,
              "duration": 0.10416666666666667
            },
            {
              "pitch": 57,
              "velocity": 34,
              "position": 9.270833333333334,
              "duration": 0.21875
            },
            {
              "pitch": 60,
              "velocity": 34,
              "position": 9.260416666666666,
              "duration": 0.23958333333333334
            },
            {
              "pitch": 65,
              "velocity": 34,
              "position": 9.25,
              "duration": 0.2604166666666667
            },
            {
              "pitch": 106,
              "velocity": 106,
              "position": 9.5,
              "duration": 0.10416666666666667
            },
            {
              "pitch": 65,
              "velocity": 50,
              "position": 9.520833333333334,
              "duration": 0.21875
            },
            {
              "pitch": 60,
              "velocity": 50,
              "position": 9.510416666666666,
              "duration": 0.23958333333333334
            },
            {
              "pitch": 57,
              "velocity": 50,
              "position": 9.5,
              "duration": 0.2604166666666667
            },
            {
              "pitch": 110,
              "velocity": 89,
              "position": 9.75,
              "duration": 0.10416666666666667
            },
            {
              "pitch": 57,
              "velocity": 43,
              "position": 9.770833333333334,
              "duration": 0.21875
            },
            {
              "pitch": 60,
              "velocity": 41,
              "position": 9.760416666666666,
              "duration": 0.23958333333333334
            },
            {
              "pitch": 65,
              "velocity": 45,
              "position": 9.75,
              "duration": 0.2604166666666667
            },
            {
              "pitch": 109,
              "velocity": 106,
              "position": 10,
              "duration": 0.10416666666666667
            },
            {
              "pitch": 65,
              "velocity": 50,
              "position": 10.020833333333334,
              "duration": 0.23958333333333334
            },
            {
              "pitch": 103,
              "velocity": 48,
              "position": 10.260416666666666,
              "duration": 0.10416666666666667
            },
            {
              "pitch": 55,
              "velocity": 44,
              "position": 10.010416666666666,
              "duration": 0.4791666666666667
            },
            {
              "pitch": 64,
              "velocity": 100,
              "position": 10.25,
              "duration": 0.23958333333333334
            },
            {
              "pitch": 60,
              "velocity": 50,
              "position": 10.010416666666666,
              "duration": 0.4895833333333333
            },
            {
              "pitch": 106,
              "velocity": 86,
              "position": 10.5,
              "duration": 0.10416666666666667
            },
            {
              "pitch": 64,
              "velocity": 38,
              "position": 10.520833333333334,
              "duration": 0.21875
            },
            {
              "pitch": 55,
              "velocity": 37,
              "position": 10.5,
              "duration": 0.25
            },
            {
              "pitch": 60,
              "velocity": 36,
              "position": 10.510416666666666,
              "duration": 0.23958333333333334
            },
            {
              "pitch": 110,
              "velocity": 102,
              "position": 10.75,
              "duration": 0.10416666666666667
            },
            {
              "pitch": 64,
              "velocity": 50,
              "position": 10.75,
              "duration": 0.4895833333333333
            },
            {
              "pitch": 55,
              "velocity": 50,
              "position": 10.760416666666666,
              "duration": 0.4895833333333333
            },
            {
              "pitch": 60,
              "velocity": 50,
              "position": 10.760416666666666,
              "duration": 0.4895833333333333
            },
            {
              "pitch": 103,
              "velocity": 89,
              "position": 11.25,
              "duration": 0.10416666666666667
            },
            {
              "pitch": 55,
              "velocity": 35,
              "position": 11.270833333333334,
              "duration": 0.21875
            },
            {
              "pitch": 60,
              "velocity": 36,
              "position": 11.260416666666666,
              "duration": 0.23958333333333334
            },
            {
              "pitch": 64,
              "velocity": 42,
              "position": 11.25,
              "duration": 0.2604166666666667
            },
            {
              "pitch": 106,
              "velocity": 106,
              "position": 11.5,
              "duration": 0.10416666666666667
            },
            {
              "pitch": 64,
              "velocity": 50,
              "position": 11.520833333333334,
              "duration": 0.21875
            },
            {
              "pitch": 60,
              "velocity": 50,
              "position": 11.510416666666666,
              "duration": 0.23958333333333334
            },
            {
              "pitch": 55,
              "velocity": 50,
              "position": 11.5,
              "duration": 0.2604166666666667
            },
            {
              "pitch": 105,
              "velocity": 81,
              "position": 11.75,
              "duration": 0.10416666666666667
            },
            {
              "pitch": 55,
              "velocity": 38,
              "position": 11.770833333333334,
              "duration": 0.21875
            },
            {
              "pitch": 60,
              "velocity": 36,
              "position": 11.760416666666666,
              "duration": 0.23958333333333334
            },
            {
              "pitch": 64,
              "velocity": 41,
              "position": 11.75,
              "duration": 0.2604166666666667
            },
            {
              "pitch": 111,
              "velocity": 90,
              "position": 12,
              "duration": 0.10416666666666667
            },
            {
              "pitch": 121,
              "velocity": 76,
              "position": 11.75,
              "duration": 0.3541666666666667
            },
            {
              "pitch": 103,
              "velocity": 45,
              "position": 12.260416666666666,
              "duration": 0.10416666666666667
            },
            {
              "pitch": 57,
              "velocity": 46,
              "position": 12,
              "duration": 0.4895833333333333
            },
            {
              "pitch": 60,
              "velocity": 43,
              "position": 12.010416666666666,
              "duration": 0.4895833333333333
            },
            {
              "pitch": 65,
              "velocity": 44,
              "position": 12.020833333333334,
              "duration": 0.4895833333333333
            },
            {
              "pitch": 106,
              "velocity": 97,
              "position": 12.5,
              "duration": 0.10416666666666667
            },
            {
              "pitch": 57,
              "velocity": 50,
              "position": 12.5,
              "duration": 0.4895833333333333
            },
            {
              "pitch": 60,
              "velocity": 50,
              "position": 12.510416666666666,
              "duration": 0.4895833333333333
            },
            {
              "pitch": 65,
              "velocity": 50,
              "position": 12.520833333333334,
              "duration": 0.4895833333333333
            },
            {
              "pitch": 109,
              "velocity": 36,
              "position": 13.010416666666666,
              "duration": 0.10416666666666667
            },
            {
              "pitch": 65,
              "velocity": 31,
              "position": 13.020833333333334,
              "duration": 0.21875
            },
            {
              "pitch": 60,
              "velocity": 31,
              "position": 13.010416666666666,
              "duration": 0.23958333333333334
            },
            {
              "pitch": 57,
              "velocity": 31,
              "position": 13,
              "duration": 0.2604166666666667
            },
            {
              "pitch": 103,
              "velocity": 81,
              "position": 13.25,
              "duration": 0.10416666666666667
            },
            {
              "pitch": 57,
              "velocity": 40,
              "position": 13.270833333333334,
              "duration": 0.21875
            },
            {
              "pitch": 60,
              "velocity": 42,
              "position": 13.260416666666666,
              "duration": 0.23958333333333334
            },
            {
              "pitch": 65,
              "velocity": 42,
              "position": 13.25,
              "duration": 0.2604166666666667
            },
            {
              "pitch": 106,
              "velocity": 106,
              "position": 13.5,
              "duration": 0.10416666666666667
            },
            {
              "pitch": 65,
              "velocity": 50,
              "position": 13.520833333333334,
              "duration": 0.21875
            },
            {
              "pitch": 60,
              "velocity": 50,
              "position": 13.510416666666666,
              "duration": 0.23958333333333334
            },
            {
              "pitch": 57,
              "velocity": 50,
              "position": 13.5,
              "duration": 0.2604166666666667
            },
            {
              "pitch": 105,
              "velocity": 89,
              "position": 13.75,
              "duration": 0.10416666666666667
            },
            {
              "pitch": 57,
              "velocity": 42,
              "position": 13.770833333333334,
              "duration": 0.21875
            },
            {
              "pitch": 60,
              "velocity": 37,
              "position": 13.760416666666666,
              "duration": 0.23958333333333334
            },
            {
              "pitch": 65,
              "velocity": 41,
              "position": 13.75,
              "duration": 0.2604166666666667
            },
            {
              "pitch": 111,
              "velocity": 90,
              "position": 14,
              "duration": 0.10416666666666667
            },
            {
              "pitch": 124,
              "velocity": 81,
              "position": 13.75,
              "duration": 0.3541666666666667
            },
            {
              "pitch": 103,
              "velocity": 45,
              "position": 14.260416666666666,
              "duration": 0.10416666666666667
            },
            {
              "pitch": 55,
              "velocity": 49,
              "position": 14,
              "duration": 0.4895833333333333
            },
            {
              "pitch": 59,
              "velocity": 50,
              "position": 14.010416666666666,
              "duration": 0.4895833333333333
            },
            {
              "pitch": 62,
              "velocity": 50,
              "position": 14.020833333333334,
              "duration": 0.4895833333333333
            },
            {
              "pitch": 106,
              "velocity": 97,
              "position": 14.5,
              "duration": 0.10416666666666667
            },
            {
              "pitch": 55,
              "velocity": 50,
              "position": 14.5,
              "duration": 0.4895833333333333
            },
            {
              "pitch": 59,
              "velocity": 50,
              "position": 14.510416666666666,
              "duration": 0.4895833333333333
            },
            {
              "pitch": 62,
              "velocity": 50,
              "position": 14.520833333333334,
              "duration": 0.4895833333333333
            },
            {
              "pitch": 109,
              "velocity": 36,
              "position": 15.010416666666666,
              "duration": 0.10416666666666667
            },
            {
              "pitch": 62,
              "velocity": 31,
              "position": 15.020833333333334,
              "duration": 0.21875
            },
            {
              "pitch": 60,
              "velocity": 31,
              "position": 15.010416666666666,
              "duration": 0.23958333333333334
            },
            {
              "pitch": 55,
              "velocity": 31,
              "position": 15,
              "duration": 0.2604166666666667
            },
            {
              "pitch": 103,
              "velocity": 81,
              "position": 15.25,
              "duration": 0.10416666666666667
            },
            {
              "pitch": 55,
              "velocity": 40,
              "position": 15.270833333333334,
              "duration": 0.21875
            },
            {
              "pitch": 60,
              "velocity": 42,
              "position": 15.260416666666666,
              "duration": 0.23958333333333334
            },
            {
              "pitch": 62,
              "velocity": 42,
              "position": 15.25,
              "duration": 0.2604166666666667
            },
            {
              "pitch": 106,
              "velocity": 106,
              "position": 15.5,
              "duration": 0.10416666666666667
            },
            {
              "pitch": 62,
              "velocity": 50,
              "position": 15.520833333333334,
              "duration": 0.21875
            },
            {
              "pitch": 59,
              "velocity": 50,
              "position": 15.510416666666666,
              "duration": 0.23958333333333334
            },
            {
              "pitch": 55,
              "velocity": 50,
              "position": 15.5,
              "duration": 0.2604166666666667
            },
            {
              "pitch": 105,
              "velocity": 89,
              "position": 15.75,
              "duration": 0.10416666666666667
            },
            {
              "pitch": 55,
              "velocity": 42,
              "position": 15.770833333333334,
              "duration": 0.21875
            },
            {
              "pitch": 59,
              "velocity": 37,
              "position": 15.760416666666666,
              "duration": 0.23958333333333334
            },
            {
              "pitch": 62,
              "velocity": 41,
              "position": 15.75,
              "duration": 0.25
            }
          ]
        },
        "12": {
          "ctab": {
            "srcChannel": 12,
            "name": "Lead Maj",
            "accType": "CHORD2",
            "editable": true,
            "mutedNotes": [],
            "mutedChords": [
              "dim7",
              "dim",
              "minMaj7(9)",
              "minMaj7",
              "min7(11)",
              "min7(9)",
              "min(9)",
              "m7b5",
              "min7",
              "min6",
              "min"
            ],
            "autoStart": false,
            "sourceChordNote": 0,
            "sourceChordType": "Maj",
            "ctb2Low": null,
            "ctb2Main": {
              "ntr": "ROOT_TRANSPOSITION",
              "ntt": "BYPASS",
              "bassOn": false,
              "chordRootUpperLimit": 7,
              "noteLowLimit": 51,
              "noteHighLimit": 74,
              "rtr": "PITCH_SHIFT"
            },
            "ctb2High": null
          },
          "notes": [
            {
              "pitch": 64,
              "velocity": 59,
              "position": 0,
              "duration": 0.23958333333333334
            },
            {
              "pitch": 62,
              "velocity": 46,
              "position": 0.25,
              "duration": 0.23958333333333334
            },
            {
              "pitch": 60,
              "velocity": 41,
              "position": 0.5,
              "duration": 2.4895833333333335
            },
            {
              "pitch": 67,
              "velocity": 60,
              "position": 0.75,
              "duration": 2.2395833333333335
            },
            {
              "pitch": 55,
              "velocity": 59,
              "position": 3.25,
              "duration": 0.23958333333333334
            },
            {
              "pitch": 59,
              "velocity": 46,
              "position": 3.5,
              "duration": 0.23958333333333334
            },
            {
              "pitch": 62,
              "velocity": 41,
              "position": 3.75,
              "duration": 0.23958333333333334
            },
            {
              "pitch": 60,
              "velocity": 59,
              "position": 4,
              "duration": 0.23958333333333334
            },
            {
              "pitch": 59,
              "velocity": 52,
              "position": 4.25,
              "duration": 0.23958333333333334
            },
            {
              "pitch": 57,
              "velocity": 46,
              "position": 4.5,
              "duration": 2.4895833333333335
            },
            {
              "pitch": 64,
              "velocity": 60,
              "position": 4.75,
              "duration": 2.2395833333333335
            },
            {
              "pitch": 52,
              "velocity": 59,
              "position": 7.25,
              "duration": 0.23958333333333334
            },
            {
              "pitch": 55,
              "velocity": 46,
              "position": 7.5,
              "duration": 0.23958333333333334
            },
            {
              "pitch": 59,
              "velocity": 45,
              "position": 7.75,
              "duration": 0.23958333333333334
            },
            {
              "pitch": 57,
              "velocity": 59,
              "position": 8,
              "duration": 0.23958333333333334
            },
            {
              "pitch": 55,
              "velocity": 52,
              "position": 8.25,
              "duration": 0.23958333333333334
            },
            {
              "pitch": 53,
              "velocity": 41,
              "position": 8.5,
              "duration": 1.4895833333333333
            },
            {
              "pitch": 60,
              "velocity": 60,
              "position": 8.75,
              "duration": 2.2395833333333335
            },
            {
              "pitch": 60,
              "velocity": 46,
              "position": 11.25,
              "duration": 0.23958333333333334
            },
            {
              "pitch": 62,
              "velocity": 46,
              "position": 11.5,
              "duration": 0.23958333333333334
            },
            {
              "pitch": 64,
              "velocity": 41,
              "position": 11.75,
              "duration": 0.23958333333333334
            },
            {
              "pitch": 65,
              "velocity": 57,
              "position": 12,
              "duration": 0.23958333333333334
            },
            {
              "pitch": 64,
              "velocity": 57,
              "position": 12.25,
              "duration": 0.23958333333333334
            },
            {
              "pitch": 62,
              "velocity": 57,
              "position": 12.75,
              "duration": 0.23958333333333334
            },
            {
              "pitch": 60,
              "velocity": 57,
              "position": 13.25,
              "duration": 0.23958333333333334
            },
            {
              "pitch": 62,
              "velocity": 120,
              "position": 13.75,
              "duration": 2.2395833333333335
            }
          ]
        },
        "14": {
          "ctab": {
            "srcChannel": 14,
            "name": "Gt_Ba M",
            "accType": "PHRASE1",
            "editable": false,
            "mutedNotes": [],
            "mutedChords": [
              "dim7",
              "dim",
              "minMaj7(9)",
              "minMaj7",
              "min7(11)",
              "min7(9)",
              "min(9)",
              "m7b5",
              "min7",
              "min6",
              "min"
            ],
            "autoStart": false,
            "sourceChordNote": 0,
            "sourceChordType": "Maj",
            "ctb2Low": null,
            "ctb2Main": {
              "ntr": "ROOT_TRANSPOSITION",
              "ntt": "BYPASS",
              "bassOn": false,
              "chordRootUpperLimit": 8,
              "noteLowLimit": 40,
              "noteHighLimit": 60,
              "rtr": "PITCH_SHIFT"
            },
            "ctb2High": null
          },
          "notes": [
            {
              "pitch": 48,
              "velocity": 87,
              "position": 0,
              "duration": 1.96875
            },
            {
              "pitch": 47,
              "velocity": 82,
              "position": 2,
              "duration": 1.4791666666666667
            },
            {
              "pitch": 43,
              "velocity": 72,
              "position": 3.5,
              "duration": 0.4791666666666667
            },
            {
              "pitch": 45,
              "velocity": 87,
              "position": 4,
              "duration": 1.96875
            },
            {
              "pitch": 43,
              "velocity": 82,
              "position": 6,
              "duration": 0.9791666666666666
            },
            {
              "pitch": 43,
              "velocity": 58,
              "position": 7,
              "duration": 0.4791666666666667
            },
            {
              "pitch": 43,
              "velocity": 72,
              "position": 7.5,
              "duration": 0.4791666666666667
            },
            {
              "pitch": 41,
              "velocity": 82,
              "position": 8,
              "duration": 1.4895833333333333
            },
            {
              "pitch": 41,
              "velocity": 72,
              "position": 9.5,
              "duration": 0.4791666666666667
            },
            {
              "pitch": 40,
              "velocity": 82,
              "position": 10,
              "duration": 1.4895833333333333
            },
            {
              "pitch": 40,
              "velocity": 72,
              "position": 11.5,
              "duration": 0.4791666666666667
            },
            {
              "pitch": 50,
              "velocity": 87,
              "position": 12,
              "duration": 1.96875
            },
            {
              "pitch": 43,
              "velocity": 87,
              "position": 14,
              "duration": 0.96875
            },
            {
              "pitch": 45,
              "velocity": 82,
              "position": 15,
              "duration": 0.4791666666666667
            },
            {
              "pitch": 45,
              "velocity": 82,
              "position": 15.5,
              "duration": 0.4791666666666667
            }
          ]
        },
        "15": {
          "ctab": {
            "srcChannel": 15,
            "name": "Gt_Arp M",
            "accType": "PHRASE2",
            "editable": false,
            "mutedNotes": [],
            "mutedChords": [
              "dim7",
              "dim",
              "minMaj7(9)",
              "minMaj7",
              "min7(11)",
              "min7(9)",
              "min(9)",
              "m7b5",
              "min7",
              "min6",
              "min"
            ],
            "autoStart": false,
            "sourceChordNote": 0,
            "sourceChordType": "Maj",
            "ctb2Low": null,
            "ctb2Main": {
              "ntr": "ROOT_TRANSPOSITION",
              "ntt": "BYPASS",
              "bassOn": false,
              "chordRootUpperLimit": 7,
              "noteLowLimit": 54,
              "noteHighLimit": 65,
              "rtr": "PITCH_SHIFT"
            },
            "ctb2High": null
          },
          "notes": [
            {
              "pitch": 60,
              "velocity": 61,
              "position": 0.25,
              "duration": 0.9895833333333334
            },
            {
              "pitch": 55,
              "velocity": 62,
              "position": 0.5,
              "duration": 0.9895833333333334
            },
            {
              "pitch": 64,
              "velocity": 84,
              "position": 0.75,
              "duration": 0.9895833333333334
            },
            {
              "pitch": 60,
              "velocity": 61,
              "position": 1.25,
              "duration": 0.9895833333333334
            },
            {
              "pitch": 55,
              "velocity": 62,
              "position": 1.5,
              "duration": 0.9895833333333334
            },
            {
              "pitch": 62,
              "velocity": 62,
              "position": 1.75,
              "duration": 0.9895833333333334
            },
            {
              "pitch": 55,
              "velocity": 62,
              "position": 2.5,
              "duration": 0.4895833333333333
            },
            {
              "pitch": 59,
              "velocity": 61,
              "position": 2.25,
              "duration": 0.9895833333333334
            },
            {
              "pitch": 55,
              "velocity": 52,
              "position": 3,
              "duration": 0.4895833333333333
            },
            {
              "pitch": 62,
              "velocity": 86,
              "position": 2.75,
              "duration": 0.9895833333333334
            },
            {
              "pitch": 55,
              "velocity": 62,
              "position": 3.5,
              "duration": 0.7395833333333334
            },
            {
              "pitch": 59,
              "velocity": 61,
              "position": 3.25,
              "duration": 0.9895833333333334
            },
            {
              "pitch": 64,
              "velocity": 62,
              "position": 3.75,
              "duration": 0.9895833333333334
            },
            {
              "pitch": 60,
              "velocity": 61,
              "position": 4.25,
              "duration": 0.9895833333333334
            },
            {
              "pitch": 57,
              "velocity": 62,
              "position": 4.5,
              "duration": 0.9895833333333334
            },
            {
              "pitch": 64,
              "velocity": 88,
              "position": 4.75,
              "duration": 0.9895833333333334
            },
            {
              "pitch": 57,
              "velocity": 62,
              "position": 5.5,
              "duration": 0.4895833333333333
            },
            {
              "pitch": 60,
              "velocity": 61,
              "position": 5.25,
              "duration": 0.7395833333333334
            },
            {
              "pitch": 59,
              "velocity": 68,
              "position": 6,
              "duration": 0.4895833333333333
            },
            {
              "pitch": 64,
              "velocity": 58,
              "position": 5.75,
              "duration": 0.9895833333333334
            },
            {
              "pitch": 55,
              "velocity": 61,
              "position": 6.25,
              "duration": 0.9895833333333334
            },
            {
              "pitch": 59,
              "velocity": 54,
              "position": 6.5,
              "duration": 0.9895833333333334
            },
            {
              "pitch": 64,
              "velocity": 72,
              "position": 6.75,
              "duration": 0.9895833333333334
            },
            {
              "pitch": 55,
              "velocity": 61,
              "position": 7.25,
              "duration": 0.7395833333333334
            },
            {
              "pitch": 59,
              "velocity": 64,
              "position": 7.5,
              "duration": 0.4895833333333333
            },
            {
              "pitch": 64,
              "velocity": 53,
              "position": 7.75,
              "duration": 0.25
            },
            {
              "pitch": 60,
              "velocity": 61,
              "position": 8.25,
              "duration": 0.9895833333333334
            },
            {
              "pitch": 57,
              "velocity": 62,
              "position": 8.5,
              "duration": 0.9895833333333334
            },
            {
              "pitch": 65,
              "velocity": 82,
              "position": 8.75,
              "duration": 0.9895833333333334
            },
            {
              "pitch": 60,
              "velocity": 61,
              "position": 9.25,
              "duration": 0.9895833333333334
            },
            {
              "pitch": 57,
              "velocity": 62,
              "position": 9.5,
              "duration": 0.9895833333333334
            },
            {
              "pitch": 64,
              "velocity": 62,
              "position": 9.75,
              "duration": 0.9895833333333334
            },
            {
              "pitch": 55,
              "velocity": 62,
              "position": 10.5,
              "duration": 0.4895833333333333
            },
            {
              "pitch": 60,
              "velocity": 61,
              "position": 10.25,
              "duration": 0.9895833333333334
            },
            {
              "pitch": 55,
              "velocity": 52,
              "position": 11,
              "duration": 0.4895833333333333
            },
            {
              "pitch": 64,
              "velocity": 86,
              "position": 10.75,
              "duration": 0.9895833333333334
            },
            {
              "pitch": 55,
              "velocity": 62,
              "position": 11.5,
              "duration": 0.7395833333333334
            },
            {
              "pitch": 60,
              "velocity": 61,
              "position": 11.25,
              "duration": 0.9895833333333334
            },
            {
              "pitch": 60,
              "velocity": 68,
              "position": 12.25,
              "duration": 0.9895833333333334
            },
            {
              "pitch": 57,
              "velocity": 52,
              "position": 12.5,
              "duration": 0.9895833333333334
            },
            {
              "pitch": 60,
              "velocity": 49,
              "position": 13.25,
              "duration": 0.4895833333333333
            },
            {
              "pitch": 60,
              "velocity": 54,
              "position": 13.75,
              "duration": 0.5
            },
            {
              "pitch": 57,
              "velocity": 75,
              "position": 13.5,
              "duration": 0.9895833333333334
            },
            {
              "pitch": 65,
              "velocity": 73,
              "position": 12.75,
              "duration": 1.9895833333333333
            },
            {
              "pitch": 59,
              "velocity": 68,
              "position": 14.25,
              "duration": 0.7395833333333334
            },
            {
              "pitch": 55,
              "velocity": 52,
              "position": 14.5,
              "duration": 0.7395833333333334
            },
            {
              "pitch": 60,
              "velocity": 71,
              "position": 15,
              "duration": 0.4895833333333333
            },
            {
              "pitch": 62,
              "velocity": 62,
              "position": 14.75,
              "duration": 0.7395833333333334
            },
            {
              "pitch": 55,
              "velocity": 71,
              "position": 15.25,
              "duration": 0.4895833333333333
            },
            {
              "pitch": 55,
              "velocity": 54,
              "position": 15.75,
              "duration": 0.23958333333333334
            },
            {
              "pitch": 62,
              "velocity": 49,
              "position": 15.5,
              "duration": 0.4895833333333333
            }
          ]
        }
      }
    },
    "Ending_B": {
      "type": "Ending_B",
      "sizeInBeats": 8,
      "channels": {
        "2": {
          "ctab": {
            "srcChannel": 2,
            "name": "Bass min",
            "accType": "BASS",
            "editable": false,
            "mutedNotes": [],
            "mutedChords": [
              "1+2+5",
              "sus4",
              "1+5",
              "1+8",
              "7aug",
              "Maj7aug",
              "7(#9)",
              "7(b13)",
              "7(b9)",
              "7(13)",
              "7#11",
              "7(9)",
              "7b5",
              "7sus4",
              "7th",
              "aug",
              "Maj6(9)",
              "Maj7(9)",
              "Maj(9)",
              "Maj7#11",
              "Maj7",
              "Maj6",
              "Maj"
            ],
            "autoStart": false,
            "sourceChordNote": 0,
            "sourceChordType": "min",
            "ctb2Low": null,
            "ctb2Main": {
              "ntr": "ROOT_TRANSPOSITION",
              "ntt": "BYPASS",
              "bassOn": false,
              "chordRootUpperLimit": 5,
              "noteLowLimit": 28,
              "noteHighLimit": 60,
              "rtr": "PITCH_SHIFT"
            },
            "ctb2High": null
          },
          "notes": [
            {
              "pitch": 24,
              "velocity": 60,
              "position": 0,
              "duration": 0.4895833333333333
            },
            {
              "pitch": 24,
              "velocity": 100,
              "position": 0.5,
              "duration": 0.23958333333333334
            },
            {
              "pitch": 24,
              "velocity": 60,
              "position": 0.75,
              "duration": 0.23958333333333334
            },
            {
              "pitch": 39,
              "velocity": 60,
              "position": 1,
              "duration": 0.23958333333333334
            },
            {
              "pitch": 41,
              "velocity": 60,
              "position": 1.5,
              "duration": 0.9895833333333334
            },
            {
              "pitch": 36,
              "velocity": 100,
              "position": 2.5,
              "duration": 0.23958333333333334
            },
            {
              "pitch": 31,
              "velocity": 60,
              "position": 3,
              "duration": 0.9895833333333334
            },
            {
              "pitch": 24,
              "velocity": 60,
              "position": 4,
              "duration": 3.4895833333333335
            }
          ]
        },
        "3": {
          "ctab": {
            "srcChannel": 3,
            "name": "Gt_Stk m",
            "accType": "CHORD1",
            "editable": false,
            "mutedNotes": [],
            "mutedChords": [
              "1+2+5",
              "sus4",
              "1+5",
              "1+8",
              "7aug",
              "Maj7aug",
              "7(#9)",
              "7(b13)",
              "7(b9)",
              "7(13)",
              "7#11",
              "7(9)",
              "7b5",
              "7sus4",
              "7th",
              "aug",
              "Maj6(9)",
              "Maj7(9)",
              "Maj(9)",
              "Maj7#11",
              "Maj7",
              "Maj6",
              "Maj"
            ],
            "autoStart": false,
            "sourceChordNote": 0,
            "sourceChordType": "min",
            "ctb2Low": null,
            "ctb2Main": {
              "ntr": "ROOT_TRANSPOSITION",
              "ntt": "BYPASS",
              "bassOn": false,
              "chordRootUpperLimit": 7,
              "noteLowLimit": 46,
              "noteHighLimit": 69,
              "rtr": "PITCH_SHIFT"
            },
            "ctb2High": null
          },
          "notes": [
            {
              "pitch": 104,
              "velocity": 106,
              "position": 0,
              "duration": 0.10416666666666667
            },
            {
              "pitch": 101,
              "velocity": 43,
              "position": 0.25,
              "duration": 0.10416666666666667
            },
            {
              "pitch": 55,
              "velocity": 50,
              "position": 0,
              "duration": 0.4895833333333333
            },
            {
              "pitch": 60,
              "velocity": 50,
              "position": 0.010416666666666666,
              "duration": 0.4895833333333333
            },
            {
              "pitch": 63,
              "velocity": 50,
              "position": 0.020833333333333332,
              "duration": 0.4895833333333333
            },
            {
              "pitch": 102,
              "velocity": 75,
              "position": 0.5,
              "duration": 0.10416666666666667
            },
            {
              "pitch": 63,
              "velocity": 42,
              "position": 0.5208333333333334,
              "duration": 0.21875
            },
            {
              "pitch": 60,
              "velocity": 36,
              "position": 0.5104166666666666,
              "duration": 0.23958333333333334
            },
            {
              "pitch": 55,
              "velocity": 36,
              "position": 0.5,
              "duration": 0.2604166666666667
            },
            {
              "pitch": 106,
              "velocity": 89,
              "position": 0.75,
              "duration": 0.10416666666666667
            },
            {
              "pitch": 101,
              "velocity": 59,
              "position": 1,
              "duration": 0.10416666666666667
            },
            {
              "pitch": 63,
              "velocity": 50,
              "position": 0.75,
              "duration": 0.4895833333333333
            },
            {
              "pitch": 60,
              "velocity": 50,
              "position": 0.7604166666666666,
              "duration": 0.4895833333333333
            },
            {
              "pitch": 55,
              "velocity": 50,
              "position": 0.7708333333333334,
              "duration": 0.4895833333333333
            },
            {
              "pitch": 105,
              "velocity": 91,
              "position": 1.25,
              "duration": 0.10416666666666667
            },
            {
              "pitch": 55,
              "velocity": 38,
              "position": 1.2708333333333333,
              "duration": 0.21875
            },
            {
              "pitch": 60,
              "velocity": 38,
              "position": 1.2604166666666667,
              "duration": 0.23958333333333334
            },
            {
              "pitch": 62,
              "velocity": 38,
              "position": 1.25,
              "duration": 0.2604166666666667
            },
            {
              "pitch": 106,
              "velocity": 104,
              "position": 1.5,
              "duration": 0.10416666666666667
            },
            {
              "pitch": 56,
              "velocity": 50,
              "position": 1.5,
              "duration": 1.4895833333333333
            },
            {
              "pitch": 60,
              "velocity": 50,
              "position": 1.5104166666666667,
              "duration": 1.4895833333333333
            },
            {
              "pitch": 65,
              "velocity": 50,
              "position": 1.5208333333333333,
              "duration": 1.4895833333333333
            },
            {
              "pitch": 104,
              "velocity": 106,
              "position": 3,
              "duration": 0.10416666666666667
            },
            {
              "pitch": 123,
              "velocity": 52,
              "position": 2.75,
              "duration": 0.3541666666666667
            },
            {
              "pitch": 55,
              "velocity": 50,
              "position": 3,
              "duration": 0.9895833333333334
            },
            {
              "pitch": 59,
              "velocity": 50,
              "position": 3.0104166666666665,
              "duration": 0.9895833333333334
            },
            {
              "pitch": 62,
              "velocity": 50,
              "position": 3.0208333333333335,
              "duration": 0.9895833333333334
            },
            {
              "pitch": 106,
              "velocity": 106,
              "position": 4,
              "duration": 0.10416666666666667
            },
            {
              "pitch": 55,
              "velocity": 50,
              "position": 4,
              "duration": 3.5
            },
            {
              "pitch": 60,
              "velocity": 50,
              "position": 4.010416666666667,
              "duration": 3.4895833333333335
            },
            {
              "pitch": 63,
              "velocity": 50,
              "position": 4.020833333333333,
              "duration": 3.4791666666666665
            }
          ]
        },
        "4": {
          "ctab": {
            "srcChannel": 4,
            "name": "Lead min",
            "accType": "CHORD2",
            "editable": true,
            "mutedNotes": [],
            "mutedChords": [
              "1+2+5",
              "sus4",
              "1+5",
              "1+8",
              "7aug",
              "Maj7aug",
              "7(#9)",
              "7(b13)",
              "7(b9)",
              "7(13)",
              "7#11",
              "7(9)",
              "7b5",
              "7sus4",
              "7th",
              "aug",
              "Maj6(9)",
              "Maj7(9)",
              "Maj(9)",
              "Maj7#11",
              "Maj7",
              "Maj6",
              "Maj"
            ],
            "autoStart": false,
            "sourceChordNote": 0,
            "sourceChordType": "min",
            "ctb2Low": null,
            "ctb2Main": {
              "ntr": "ROOT_TRANSPOSITION",
              "ntt": "BYPASS",
              "bassOn": false,
              "chordRootUpperLimit": 7,
              "noteLowLimit": 51,
              "noteHighLimit": 74,
              "rtr": "PITCH_SHIFT"
            },
            "ctb2High": null
          },
          "notes": [
            {
              "pitch": 67,
              "velocity": 57,
              "position": 0,
              "duration": 1.2395833333333333
            },
            {
              "pitch": 67,
              "velocity": 38,
              "position": 1.25,
              "duration": 0.23958333333333334
            },
            {
              "pitch": 65,
              "velocity": 50,
              "position": 1.5,
              "duration": 1.2395833333333333
            },
            {
              "pitch": 63,
              "velocity": 50,
              "position": 2.75,
              "duration": 0.25
            },
            {
              "pitch": 62,
              "velocity": 49,
              "position": 3,
              "duration": 0.23958333333333334
            },
            {
              "pitch": 63,
              "velocity": 50,
              "position": 3.25,
              "duration": 0.23958333333333334
            },
            {
              "pitch": 65,
              "velocity": 52,
              "position": 3.5,
              "duration": 0.23958333333333334
            },
            {
              "pitch": 67,
              "velocity": 56,
              "position": 3.75,
              "duration": 0.23958333333333334
            },
            {
              "pitch": 63,
              "velocity": 118,
              "position": 4,
              "duration": 3.5
            }
          ]
        },
        "6": {
          "ctab": {
            "srcChannel": 6,
            "name": "Gt_Ba m",
            "accType": "PHRASE1",
            "editable": false,
            "mutedNotes": [],
            "mutedChords": [
              "1+2+5",
              "sus4",
              "1+5",
              "1+8",
              "7aug",
              "Maj7aug",
              "7(#9)",
              "7(b13)",
              "7(b9)",
              "7(13)",
              "7#11",
              "7(9)",
              "7b5",
              "7sus4",
              "7th",
              "aug",
              "Maj6(9)",
              "Maj7(9)",
              "Maj(9)",
              "Maj7#11",
              "Maj7",
              "Maj6",
              "Maj"
            ],
            "autoStart": false,
            "sourceChordNote": 0,
            "sourceChordType": "min",
            "ctb2Low": null,
            "ctb2Main": {
              "ntr": "ROOT_TRANSPOSITION",
              "ntt": "BYPASS",
              "bassOn": false,
              "chordRootUpperLimit": 8,
              "noteLowLimit": 42,
              "noteHighLimit": 65,
              "rtr": "PITCH_SHIFT"
            },
            "ctb2High": null
          },
          "notes": [
            {
              "pitch": 36,
              "velocity": 80,
              "position": 0,
              "duration": 0.9791666666666666
            },
            {
              "pitch": 39,
              "velocity": 72,
              "position": 1,
              "duration": 0.23958333333333334
            },
            {
              "pitch": 41,
              "velocity": 80,
              "position": 1.5,
              "duration": 1.46875
            },
            {
              "pitch": 43,
              "velocity": 75,
              "position": 3,
              "duration": 0.9791666666666666
            },
            {
              "pitch": 36,
              "velocity": 80,
              "position": 4,
              "duration": 3.4791666666666665
            }
          ]
        },
        "7": {
          "ctab": {
            "srcChannel": 7,
            "name": "Gt_Arp m",
            "accType": "PHRASE2",
            "editable": false,
            "mutedNotes": [],
            "mutedChords": [
              "1+2+5",
              "sus4",
              "1+5",
              "1+8",
              "7aug",
              "Maj7aug",
              "7(#9)",
              "7(b13)",
              "7(b9)",
              "7(13)",
              "7#11",
              "7(9)",
              "7b5",
              "7sus4",
              "7th",
              "aug",
              "Maj6(9)",
              "Maj7(9)",
              "Maj(9)",
              "Maj7#11",
              "Maj7",
              "Maj6",
              "Maj"
            ],
            "autoStart": false,
            "sourceChordNote": 0,
            "sourceChordType": "min",
            "ctb2Low": null,
            "ctb2Main": {
              "ntr": "ROOT_TRANSPOSITION",
              "ntt": "BYPASS",
              "bassOn": false,
              "chordRootUpperLimit": 7,
              "noteLowLimit": 54,
              "noteHighLimit": 65,
              "rtr": "PITCH_SHIFT"
            },
            "ctb2High": null
          },
          "notes": [
            {
              "pitch": 63,
              "velocity": 75,
              "position": 0,
              "duration": 0.7395833333333334
            },
            {
              "pitch": 60,
              "velocity": 65,
              "position": 0.5,
              "duration": 0.7395833333333334
            },
            {
              "pitch": 63,
              "velocity": 76,
              "position": 0.75,
              "duration": 0.4895833333333333
            },
            {
              "pitch": 55,
              "velocity": 57,
              "position": 0.25,
              "duration": 1.9895833333333333
            },
            {
              "pitch": 60,
              "velocity": 67,
              "position": 1.25,
              "duration": 1.2395833333333333
            },
            {
              "pitch": 65,
              "velocity": 55,
              "position": 1.5,
              "duration": 0.9895833333333334
            },
            {
              "pitch": 60,
              "velocity": 68,
              "position": 2.5,
              "duration": 0.4895833333333333
            },
            {
              "pitch": 65,
              "velocity": 81,
              "position": 2.75,
              "duration": 0.4895833333333333
            },
            {
              "pitch": 62,
              "velocity": 81,
              "position": 3,
              "duration": 0.4895833333333333
            },
            {
              "pitch": 56,
              "velocity": 62,
              "position": 2.25,
              "duration": 1.4895833333333333
            },
            {
              "pitch": 55,
              "velocity": 68,
              "position": 3.75,
              "duration": 0.23958333333333334
            },
            {
              "pitch": 59,
              "velocity": 70,
              "position": 3.5,
              "duration": 0.4895833333333333
            },
            {
              "pitch": 65,
              "velocity": 67,
              "position": 3.25,
              "duration": 0.7395833333333334
            },
            {
              "pitch": 55,
              "velocity": 66,
              "position": 4,
              "duration": 3.4895833333333335
            },
            {
              "pitch": 60,
              "velocity": 76,
              "position": 4.03125,
              "duration": 3.4895833333333335
            },
            {
              "pitch": 63,
              "velocity": 87,
              "position": 4.0625,
              "duration": 3.4895833333333335
            }
          ]
        },
        "8": {
          "ctab": {
            "srcChannel": 8,
            "name": "AddDrum",
            "accType": "SUBRHYTHM",
            "editable": false,
            "mutedNotes": [],
            "mutedChords": [],
            "autoStart": true,
            "sourceChordNote": 0,
            "sourceChordType": "Maj7",
            "ctb2Low": null,
            "ctb2Main": {
              "ntr": "ROOT_FIXED",
              "ntt": "BYPASS",
              "bassOn": false,
              "chordRootUpperLimit": 6,
              "noteLowLimit": 0,
              "noteHighLimit": 127,
              "rtr": "PITCH_SHIFT"
            },
            "ctb2High": null
          },
          "notes": [
            {
              "pitch": 70,
              "velocity": 60,
              "position": 0,
              "duration": 0.07291666666666667
            },
            {
              "pitch": 63,
              "velocity": 92,
              "position": 0,
              "duration": 0.08333333333333333
            },
            {
              "pitch": 69,
              "velocity": 60,
              "position": 0.25,
              "duration": 0.07291666666666667
            },
            {
              "pitch": 63,
              "velocity": 53,
              "position": 0.25,
              "duration": 0.08333333333333333
            },
            {
              "pitch": 60,
              "velocity": 40,
              "position": 0,
              "duration": 0.4895833333333333
            },
            {
              "pitch": 54,
              "velocity": 71,
              "position": 0.4895833333333333,
              "duration": 0.052083333333333336
            },
            {
              "pitch": 70,
              "velocity": 98,
              "position": 0.5,
              "duration": 0.07291666666666667
            },
            {
              "pitch": 64,
              "velocity": 45,
              "position": 0.5,
              "duration": 0.08333333333333333
            },
            {
              "pitch": 60,
              "velocity": 21,
              "position": 0.5,
              "duration": 0.23958333333333334
            },
            {
              "pitch": 54,
              "velocity": 59,
              "position": 0.7395833333333334,
              "duration": 0.052083333333333336
            },
            {
              "pitch": 70,
              "velocity": 52,
              "position": 0.75,
              "duration": 0.07291666666666667
            },
            {
              "pitch": 64,
              "velocity": 70,
              "position": 0.75,
              "duration": 0.08333333333333333
            },
            {
              "pitch": 70,
              "velocity": 60,
              "position": 1,
              "duration": 0.07291666666666667
            },
            {
              "pitch": 63,
              "velocity": 92,
              "position": 1,
              "duration": 0.08333333333333333
            },
            {
              "pitch": 60,
              "velocity": 40,
              "position": 0.75,
              "duration": 0.4895833333333333
            },
            {
              "pitch": 70,
              "velocity": 44,
              "position": 1.25,
              "duration": 0.07291666666666667
            },
            {
              "pitch": 63,
              "velocity": 53,
              "position": 1.25,
              "duration": 0.08333333333333333
            },
            {
              "pitch": 60,
              "velocity": 21,
              "position": 1.25,
              "duration": 0.23958333333333334
            },
            {
              "pitch": 54,
              "velocity": 71,
              "position": 1.4895833333333333,
              "duration": 0.052083333333333336
            },
            {
              "pitch": 70,
              "velocity": 101,
              "position": 1.5,
              "duration": 0.07291666666666667
            },
            {
              "pitch": 62,
              "velocity": 126,
              "position": 1.5,
              "duration": 0.08333333333333333
            },
            {
              "pitch": 64,
              "velocity": 74,
              "position": 1.5208333333333333,
              "duration": 0.08333333333333333
            },
            {
              "pitch": 70,
              "velocity": 48,
              "position": 1.75,
              "duration": 0.07291666666666667
            },
            {
              "pitch": 62,
              "velocity": 64,
              "position": 1.75,
              "duration": 0.08333333333333333
            },
            {
              "pitch": 70,
              "velocity": 60,
              "position": 2,
              "duration": 0.07291666666666667
            },
            {
              "pitch": 63,
              "velocity": 91,
              "position": 2,
              "duration": 0.08333333333333333
            },
            {
              "pitch": 69,
              "velocity": 60,
              "position": 2.25,
              "duration": 0.07291666666666667
            },
            {
              "pitch": 63,
              "velocity": 52,
              "position": 2.25,
              "duration": 0.08333333333333333
            },
            {
              "pitch": 54,
              "velocity": 71,
              "position": 2.4895833333333335,
              "duration": 0.052083333333333336
            },
            {
              "pitch": 70,
              "velocity": 95,
              "position": 2.5,
              "duration": 0.07291666666666667
            },
            {
              "pitch": 64,
              "velocity": 43,
              "position": 2.5,
              "duration": 0.08333333333333333
            },
            {
              "pitch": 54,
              "velocity": 63,
              "position": 2.7395833333333335,
              "duration": 0.052083333333333336
            },
            {
              "pitch": 70,
              "velocity": 54,
              "position": 2.75,
              "duration": 0.07291666666666667
            },
            {
              "pitch": 64,
              "velocity": 68,
              "position": 2.75,
              "duration": 0.08333333333333333
            },
            {
              "pitch": 60,
              "velocity": 40,
              "position": 1.5,
              "duration": 1.4895833333333333
            },
            {
              "pitch": 70,
              "velocity": 60,
              "position": 3,
              "duration": 0.07291666666666667
            },
            {
              "pitch": 63,
              "velocity": 115,
              "position": 3,
              "duration": 0.08333333333333333
            },
            {
              "pitch": 63,
              "velocity": 42,
              "position": 3.125,
              "duration": 0.08333333333333333
            },
            {
              "pitch": 70,
              "velocity": 44,
              "position": 3.25,
              "duration": 0.07291666666666667
            },
            {
              "pitch": 63,
              "velocity": 68,
              "position": 3.25,
              "duration": 0.08333333333333333
            },
            {
              "pitch": 54,
              "velocity": 71,
              "position": 3.4895833333333335,
              "duration": 0.052083333333333336
            },
            {
              "pitch": 70,
              "velocity": 107,
              "position": 3.5,
              "duration": 0.07291666666666667
            },
            {
              "pitch": 64,
              "velocity": 68,
              "position": 3.5,
              "duration": 0.08333333333333333
            },
            {
              "pitch": 70,
              "velocity": 53,
              "position": 3.75,
              "duration": 0.07291666666666667
            },
            {
              "pitch": 64,
              "velocity": 44,
              "position": 3.75,
              "duration": 0.08333333333333333
            },
            {
              "pitch": 60,
              "velocity": 39,
              "position": 3,
              "duration": 0.9895833333333334
            },
            {
              "pitch": 54,
              "velocity": 71,
              "position": 3.9895833333333335,
              "duration": 0.052083333333333336
            },
            {
              "pitch": 70,
              "velocity": 79,
              "position": 4,
              "duration": 0.07291666666666667
            },
            {
              "pitch": 64,
              "velocity": 64,
              "position": 4,
              "duration": 0.08333333333333333
            },
            {
              "pitch": 60,
              "velocity": 40,
              "position": 4,
              "duration": 3.4895833333333335
            }
          ]
        },
        "9": {
          "ctab": {
            "srcChannel": 9,
            "name": "MainDrum",
            "accType": "RHYTHM",
            "editable": false,
            "mutedNotes": [],
            "mutedChords": [],
            "autoStart": true,
            "sourceChordNote": 0,
            "sourceChordType": "Maj7",
            "ctb2Low": null,
            "ctb2Main": {
              "ntr": "ROOT_FIXED",
              "ntt": "BYPASS",
              "bassOn": false,
              "chordRootUpperLimit": 6,
              "noteLowLimit": 0,
              "noteHighLimit": 127,
              "rtr": "PITCH_SHIFT"
            },
            "ctb2High": null
          },
          "notes": [
            {
              "pitch": 36,
              "velocity": 82,
              "position": 0,
              "duration": 0.052083333333333336
            },
            {
              "pitch": 42,
              "velocity": 42,
              "position": 0,
              "duration": 0.052083333333333336
            },
            {
              "pitch": 42,
              "velocity": 35,
              "position": 0.2604166666666667,
              "duration": 0.052083333333333336
            },
            {
              "pitch": 42,
              "velocity": 77,
              "position": 0.5,
              "duration": 0.052083333333333336
            },
            {
              "pitch": 36,
              "velocity": 52,
              "position": 0.7604166666666666,
              "duration": 0.052083333333333336
            },
            {
              "pitch": 42,
              "velocity": 25,
              "position": 0.7604166666666666,
              "duration": 0.052083333333333336
            },
            {
              "pitch": 40,
              "velocity": 95,
              "position": 1,
              "duration": 0.052083333333333336
            },
            {
              "pitch": 42,
              "velocity": 60,
              "position": 1,
              "duration": 0.052083333333333336
            },
            {
              "pitch": 40,
              "velocity": 56,
              "position": 1.2604166666666667,
              "duration": 0.052083333333333336
            },
            {
              "pitch": 36,
              "velocity": 82,
              "position": 1.5,
              "duration": 0.052083333333333336
            },
            {
              "pitch": 57,
              "velocity": 80,
              "position": 1.5,
              "duration": 0.052083333333333336
            },
            {
              "pitch": 40,
              "velocity": 46,
              "position": 2,
              "duration": 0.052083333333333336
            },
            {
              "pitch": 40,
              "velocity": 80,
              "position": 2.5,
              "duration": 0.052083333333333336
            },
            {
              "pitch": 40,
              "velocity": 36,
              "position": 2.625,
              "duration": 0.052083333333333336
            },
            {
              "pitch": 40,
              "velocity": 52,
              "position": 2.7604166666666665,
              "duration": 0.052083333333333336
            },
            {
              "pitch": 40,
              "velocity": 65,
              "position": 2.875,
              "duration": 0.052083333333333336
            },
            {
              "pitch": 40,
              "velocity": 103,
              "position": 3,
              "duration": 0.052083333333333336
            },
            {
              "pitch": 40,
              "velocity": 92,
              "position": 3.5,
              "duration": 0.052083333333333336
            },
            {
              "pitch": 40,
              "velocity": 77,
              "position": 3.7604166666666665,
              "duration": 0.052083333333333336
            },
            {
              "pitch": 36,
              "velocity": 82,
              "position": 4,
              "duration": 0.052083333333333336
            },
            {
              "pitch": 49,
              "velocity": 80,
              "position": 4,
              "duration": 0.052083333333333336
            }
          ]
        },
        "10": {
          "ctab": {
            "srcChannel": 10,
            "name": "Bass Maj",
            "accType": "BASS",
            "editable": false,
            "mutedNotes": [],
            "mutedChords": [
              "dim7",
              "dim",
              "minMaj7(9)",
              "minMaj7",
              "min7(11)",
              "min7(9)",
              "min(9)",
              "m7b5",
              "min7",
              "min6",
              "min"
            ],
            "autoStart": false,
            "sourceChordNote": 0,
            "sourceChordType": "Maj",
            "ctb2Low": null,
            "ctb2Main": {
              "ntr": "ROOT_TRANSPOSITION",
              "ntt": "BYPASS",
              "bassOn": false,
              "chordRootUpperLimit": 5,
              "noteLowLimit": 28,
              "noteHighLimit": 55,
              "rtr": "PITCH_SHIFT"
            },
            "ctb2High": null
          },
          "notes": [
            {
              "pitch": 24,
              "velocity": 60,
              "position": 0,
              "duration": 0.4895833333333333
            },
            {
              "pitch": 24,
              "velocity": 100,
              "position": 0.5,
              "duration": 0.23958333333333334
            },
            {
              "pitch": 24,
              "velocity": 60,
              "position": 0.7604166666666666,
              "duration": 0.22916666666666666
            },
            {
              "pitch": 28,
              "velocity": 60,
              "position": 1,
              "duration": 0.23958333333333334
            },
            {
              "pitch": 29,
              "velocity": 60,
              "position": 1.5,
              "duration": 0.9895833333333334
            },
            {
              "pitch": 36,
              "velocity": 100,
              "position": 2.5,
              "duration": 0.23958333333333334
            },
            {
              "pitch": 31,
              "velocity": 60,
              "position": 3,
              "duration": 0.9895833333333334
            },
            {
              "pitch": 24,
              "velocity": 60,
              "position": 4,
              "duration": 3.4895833333333335
            }
          ]
        },
        "11": {
          "ctab": {
            "srcChannel": 11,
            "name": "Gt_Stk M",
            "accType": "CHORD1",
            "editable": false,
            "mutedNotes": [],
            "mutedChords": [
              "dim7",
              "dim",
              "minMaj7(9)",
              "minMaj7",
              "min7(11)",
              "min7(9)",
              "min(9)",
              "m7b5",
              "min7",
              "min6",
              "min"
            ],
            "autoStart": false,
            "sourceChordNote": 0,
            "sourceChordType": "Maj",
            "ctb2Low": null,
            "ctb2Main": {
              "ntr": "ROOT_TRANSPOSITION",
              "ntt": "BYPASS",
              "bassOn": false,
              "chordRootUpperLimit": 5,
              "noteLowLimit": 46,
              "noteHighLimit": 70,
              "rtr": "PITCH_SHIFT"
            },
            "ctb2High": null
          },
          "notes": [
            {
              "pitch": 104,
              "velocity": 106,
              "position": 0,
              "duration": 0.10416666666666667
            },
            {
              "pitch": 101,
              "velocity": 43,
              "position": 0.25,
              "duration": 0.10416666666666667
            },
            {
              "pitch": 55,
              "velocity": 50,
              "position": 0,
              "duration": 0.4895833333333333
            },
            {
              "pitch": 60,
              "velocity": 50,
              "position": 0.010416666666666666,
              "duration": 0.4895833333333333
            },
            {
              "pitch": 64,
              "velocity": 50,
              "position": 0.020833333333333332,
              "duration": 0.4895833333333333
            },
            {
              "pitch": 102,
              "velocity": 75,
              "position": 0.5,
              "duration": 0.10416666666666667
            },
            {
              "pitch": 64,
              "velocity": 42,
              "position": 0.5208333333333334,
              "duration": 0.21875
            },
            {
              "pitch": 60,
              "velocity": 39,
              "position": 0.5104166666666666,
              "duration": 0.23958333333333334
            },
            {
              "pitch": 55,
              "velocity": 39,
              "position": 0.5,
              "duration": 0.2604166666666667
            },
            {
              "pitch": 106,
              "velocity": 89,
              "position": 0.75,
              "duration": 0.10416666666666667
            },
            {
              "pitch": 101,
              "velocity": 59,
              "position": 1,
              "duration": 0.10416666666666667
            },
            {
              "pitch": 64,
              "velocity": 50,
              "position": 0.75,
              "duration": 0.4895833333333333
            },
            {
              "pitch": 60,
              "velocity": 50,
              "position": 0.7604166666666666,
              "duration": 0.4895833333333333
            },
            {
              "pitch": 55,
              "velocity": 50,
              "position": 0.7708333333333334,
              "duration": 0.4895833333333333
            },
            {
              "pitch": 105,
              "velocity": 91,
              "position": 1.25,
              "duration": 0.10416666666666667
            },
            {
              "pitch": 55,
              "velocity": 34,
              "position": 1.2708333333333333,
              "duration": 0.21875
            },
            {
              "pitch": 60,
              "velocity": 34,
              "position": 1.2604166666666667,
              "duration": 0.23958333333333334
            },
            {
              "pitch": 62,
              "velocity": 34,
              "position": 1.25,
              "duration": 0.2604166666666667
            },
            {
              "pitch": 106,
              "velocity": 104,
              "position": 1.5,
              "duration": 0.10416666666666667
            },
            {
              "pitch": 57,
              "velocity": 50,
              "position": 1.5,
              "duration": 1.4895833333333333
            },
            {
              "pitch": 60,
              "velocity": 50,
              "position": 1.5104166666666667,
              "duration": 1.4895833333333333
            },
            {
              "pitch": 65,
              "velocity": 50,
              "position": 1.5208333333333333,
              "duration": 1.4895833333333333
            },
            {
              "pitch": 104,
              "velocity": 106,
              "position": 3,
              "duration": 0.10416666666666667
            },
            {
              "pitch": 123,
              "velocity": 52,
              "position": 2.75,
              "duration": 0.3541666666666667
            },
            {
              "pitch": 55,
              "velocity": 50,
              "position": 3,
              "duration": 0.9895833333333334
            },
            {
              "pitch": 59,
              "velocity": 50,
              "position": 3.0104166666666665,
              "duration": 0.9895833333333334
            },
            {
              "pitch": 62,
              "velocity": 50,
              "position": 3.0208333333333335,
              "duration": 0.9895833333333334
            },
            {
              "pitch": 106,
              "velocity": 106,
              "position": 4,
              "duration": 0.10416666666666667
            },
            {
              "pitch": 55,
              "velocity": 50,
              "position": 4,
              "duration": 3.5
            },
            {
              "pitch": 60,
              "velocity": 50,
              "position": 4.010416666666667,
              "duration": 3.4895833333333335
            },
            {
              "pitch": 64,
              "velocity": 50,
              "position": 4.020833333333333,
              "duration": 3.4791666666666665
            }
          ]
        },
        "12": {
          "ctab": {
            "srcChannel": 12,
            "name": "Lead Maj",
            "accType": "CHORD2",
            "editable": true,
            "mutedNotes": [],
            "mutedChords": [
              "dim7",
              "dim",
              "minMaj7(9)",
              "minMaj7",
              "min7(11)",
              "min7(9)",
              "min(9)",
              "m7b5",
              "min7",
              "min6",
              "min"
            ],
            "autoStart": false,
            "sourceChordNote": 0,
            "sourceChordType": "Maj",
            "ctb2Low": null,
            "ctb2Main": {
              "ntr": "ROOT_TRANSPOSITION",
              "ntt": "BYPASS",
              "bassOn": false,
              "chordRootUpperLimit": 7,
              "noteLowLimit": 51,
              "noteHighLimit": 74,
              "rtr": "PITCH_SHIFT"
            },
            "ctb2High": null
          },
          "notes": [
            {
              "pitch": 67,
              "velocity": 57,
              "position": 0,
              "duration": 1.2395833333333333
            },
            {
              "pitch": 67,
              "velocity": 38,
              "position": 1.25,
              "duration": 0.23958333333333334
            },
            {
              "pitch": 65,
              "velocity": 50,
              "position": 1.5,
              "duration": 1.2395833333333333
            },
            {
              "pitch": 64,
              "velocity": 50,
              "position": 2.75,
              "duration": 0.25
            },
            {
              "pitch": 62,
              "velocity": 49,
              "position": 3,
              "duration": 0.23958333333333334
            },
            {
              "pitch": 64,
              "velocity": 50,
              "position": 3.25,
              "duration": 0.23958333333333334
            },
            {
              "pitch": 65,
              "velocity": 52,
              "position": 3.5,
              "duration": 0.23958333333333334
            },
            {
              "pitch": 67,
              "velocity": 56,
              "position": 3.75,
              "duration": 0.23958333333333334
            },
            {
              "pitch": 64,
              "velocity": 118,
              "position": 4,
              "duration": 3.5
            }
          ]
        },
        "14": {
          "ctab": {
            "srcChannel": 14,
            "name": "Gt_Ba M",
            "accType": "PHRASE1",
            "editable": false,
            "mutedNotes": [],
            "mutedChords": [
              "dim7",
              "dim",
              "minMaj7(9)",
              "minMaj7",
              "min7(11)",
              "min7(9)",
              "min(9)",
              "m7b5",
              "min7",
              "min6",
              "min"
            ],
            "autoStart": false,
            "sourceChordNote": 0,
            "sourceChordType": "Maj",
            "ctb2Low": null,
            "ctb2Main": {
              "ntr": "ROOT_TRANSPOSITION",
              "ntt": "BYPASS",
              "bassOn": false,
              "chordRootUpperLimit": 8,
              "noteLowLimit": 40,
              "noteHighLimit": 60,
              "rtr": "PITCH_SHIFT"
            },
            "ctb2High": null
          },
          "notes": [
            {
              "pitch": 36,
              "velocity": 80,
              "position": 0,
              "duration": 0.9791666666666666
            },
            {
              "pitch": 40,
              "velocity": 72,
              "position": 1,
              "duration": 0.23958333333333334
            },
            {
              "pitch": 41,
              "velocity": 80,
              "position": 1.5,
              "duration": 1.46875
            },
            {
              "pitch": 43,
              "velocity": 75,
              "position": 3,
              "duration": 0.9791666666666666
            },
            {
              "pitch": 36,
              "velocity": 80,
              "position": 4,
              "duration": 3.4791666666666665
            }
          ]
        },
        "15": {
          "ctab": {
            "srcChannel": 15,
            "name": "Gt_Arp M",
            "accType": "PHRASE2",
            "editable": false,
            "mutedNotes": [],
            "mutedChords": [
              "dim7",
              "dim",
              "minMaj7(9)",
              "minMaj7",
              "min7(11)",
              "min7(9)",
              "min(9)",
              "m7b5",
              "min7",
              "min6",
              "min"
            ],
            "autoStart": false,
            "sourceChordNote": 0,
            "sourceChordType": "Maj",
            "ctb2Low": null,
            "ctb2Main": {
              "ntr": "ROOT_TRANSPOSITION",
              "ntt": "BYPASS",
              "bassOn": false,
              "chordRootUpperLimit": 7,
              "noteLowLimit": 54,
              "noteHighLimit": 65,
              "rtr": "PITCH_SHIFT"
            },
            "ctb2High": null
          },
          "notes": [
            {
              "pitch": 64,
              "velocity": 85,
              "position": 0,
              "duration": 0.7395833333333334
            },
            {
              "pitch": 60,
              "velocity": 75,
              "position": 0.5,
              "duration": 0.7395833333333334
            },
            {
              "pitch": 64,
              "velocity": 86,
              "position": 0.75,
              "duration": 0.4895833333333333
            },
            {
              "pitch": 55,
              "velocity": 67,
              "position": 0.25,
              "duration": 1.9895833333333333
            },
            {
              "pitch": 60,
              "velocity": 77,
              "position": 1.25,
              "duration": 1.2395833333333333
            },
            {
              "pitch": 65,
              "velocity": 65,
              "position": 1.5,
              "duration": 0.9895833333333334
            },
            {
              "pitch": 60,
              "velocity": 78,
              "position": 2.5,
              "duration": 0.4895833333333333
            },
            {
              "pitch": 65,
              "velocity": 91,
              "position": 2.75,
              "duration": 0.4895833333333333
            },
            {
              "pitch": 62,
              "velocity": 91,
              "position": 3,
              "duration": 0.4895833333333333
            },
            {
              "pitch": 57,
              "velocity": 72,
              "position": 2.25,
              "duration": 1.4895833333333333
            },
            {
              "pitch": 55,
              "velocity": 78,
              "position": 3.75,
              "duration": 0.23958333333333334
            },
            {
              "pitch": 59,
              "velocity": 80,
              "position": 3.5,
              "duration": 0.4895833333333333
            },
            {
              "pitch": 65,
              "velocity": 77,
              "position": 3.25,
              "duration": 0.7395833333333334
            },
            {
              "pitch": 55,
              "velocity": 76,
              "position": 4,
              "duration": 3.4895833333333335
            },
            {
              "pitch": 60,
              "velocity": 86,
              "position": 4.03125,
              "duration": 3.4895833333333335
            },
            {
              "pitch": 64,
              "velocity": 97,
              "position": 4.0625,
              "duration": 3.4895833333333335
            }
          ]
        }
      }
    },
    "Ending_C": {
      "type": "Ending_C",
      "sizeInBeats": 8,
      "channels": {
        "2": {
          "ctab": {
            "srcChannel": 2,
            "name": "Bass min",
            "accType": "BASS",
            "editable": false,
            "mutedNotes": [],
            "mutedChords": [
              "1+2+5",
              "sus4",
              "1+5",
              "1+8",
              "7aug",
              "Maj7aug",
              "7(#9)",
              "7(b13)",
              "7(b9)",
              "7(13)",
              "7#11",
              "7(9)",
              "7b5",
              "7sus4",
              "7th",
              "aug",
              "Maj6(9)",
              "Maj7(9)",
              "Maj(9)",
              "Maj7#11",
              "Maj7",
              "Maj6",
              "Maj"
            ],
            "autoStart": false,
            "sourceChordNote": 0,
            "sourceChordType": "min",
            "ctb2Low": null,
            "ctb2Main": {
              "ntr": "ROOT_TRANSPOSITION",
              "ntt": "BYPASS",
              "bassOn": false,
              "chordRootUpperLimit": 5,
              "noteLowLimit": 28,
              "noteHighLimit": 60,
              "rtr": "PITCH_SHIFT"
            },
            "ctb2High": null
          },
          "notes": [
            {
              "pitch": 32,
              "velocity": 60,
              "position": 0,
              "duration": 0.9895833333333334
            },
            {
              "pitch": 31,
              "velocity": 60,
              "position": 1,
              "duration": 0.4895833333333333
            },
            {
              "pitch": 43,
              "velocity": 60,
              "position": 1.5,
              "duration": 0.4895833333333333
            },
            {
              "pitch": 41,
              "velocity": 60,
              "position": 2,
              "duration": 0.9895833333333334
            },
            {
              "pitch": 31,
              "velocity": 60,
              "position": 3,
              "duration": 0.9895833333333334
            },
            {
              "pitch": 24,
              "velocity": 60,
              "position": 4,
              "duration": 3.9895833333333335
            }
          ]
        },
        "3": {
          "ctab": {
            "srcChannel": 3,
            "name": "Gt_Stk m",
            "accType": "CHORD1",
            "editable": false,
            "mutedNotes": [],
            "mutedChords": [
              "1+2+5",
              "sus4",
              "1+5",
              "1+8",
              "7aug",
              "Maj7aug",
              "7(#9)",
              "7(b13)",
              "7(b9)",
              "7(13)",
              "7#11",
              "7(9)",
              "7b5",
              "7sus4",
              "7th",
              "aug",
              "Maj6(9)",
              "Maj7(9)",
              "Maj(9)",
              "Maj7#11",
              "Maj7",
              "Maj6",
              "Maj"
            ],
            "autoStart": false,
            "sourceChordNote": 0,
            "sourceChordType": "min",
            "ctb2Low": null,
            "ctb2Main": {
              "ntr": "ROOT_TRANSPOSITION",
              "ntt": "BYPASS",
              "bassOn": false,
              "chordRootUpperLimit": 7,
              "noteLowLimit": 46,
              "noteHighLimit": 69,
              "rtr": "PITCH_SHIFT"
            },
            "ctb2High": null
          },
          "notes": [
            {
              "pitch": 111,
              "velocity": 90,
              "position": 0,
              "duration": 0.10416666666666667
            },
            {
              "pitch": 103,
              "velocity": 45,
              "position": 0.2604166666666667,
              "duration": 0.10416666666666667
            },
            {
              "pitch": 56,
              "velocity": 43,
              "position": 0,
              "duration": 0.4895833333333333
            },
            {
              "pitch": 60,
              "velocity": 43,
              "position": 0.010416666666666666,
              "duration": 0.4895833333333333
            },
            {
              "pitch": 63,
              "velocity": 43,
              "position": 0.020833333333333332,
              "duration": 0.4895833333333333
            },
            {
              "pitch": 106,
              "velocity": 97,
              "position": 0.5,
              "duration": 0.10416666666666667
            },
            {
              "pitch": 56,
              "velocity": 50,
              "position": 0.5,
              "duration": 0.4895833333333333
            },
            {
              "pitch": 60,
              "velocity": 50,
              "position": 0.5104166666666666,
              "duration": 0.4895833333333333
            },
            {
              "pitch": 63,
              "velocity": 50,
              "position": 0.5208333333333334,
              "duration": 0.4895833333333333
            },
            {
              "pitch": 109,
              "velocity": 36,
              "position": 1.0104166666666667,
              "duration": 0.10416666666666667
            },
            {
              "pitch": 63,
              "velocity": 31,
              "position": 1.0208333333333333,
              "duration": 0.21875
            },
            {
              "pitch": 58,
              "velocity": 31,
              "position": 1.0104166666666667,
              "duration": 0.23958333333333334
            },
            {
              "pitch": 55,
              "velocity": 31,
              "position": 1,
              "duration": 0.2604166666666667
            },
            {
              "pitch": 103,
              "velocity": 81,
              "position": 1.25,
              "duration": 0.10416666666666667
            },
            {
              "pitch": 55,
              "velocity": 40,
              "position": 1.2708333333333333,
              "duration": 0.21875
            },
            {
              "pitch": 58,
              "velocity": 42,
              "position": 1.2604166666666667,
              "duration": 0.23958333333333334
            },
            {
              "pitch": 63,
              "velocity": 42,
              "position": 1.25,
              "duration": 0.2604166666666667
            },
            {
              "pitch": 106,
              "velocity": 106,
              "position": 1.5,
              "duration": 0.10416666666666667
            },
            {
              "pitch": 63,
              "velocity": 50,
              "position": 1.5208333333333333,
              "duration": 0.21875
            },
            {
              "pitch": 58,
              "velocity": 50,
              "position": 1.5104166666666667,
              "duration": 0.23958333333333334
            },
            {
              "pitch": 55,
              "velocity": 50,
              "position": 1.5,
              "duration": 0.2604166666666667
            },
            {
              "pitch": 105,
              "velocity": 89,
              "position": 1.75,
              "duration": 0.10416666666666667
            },
            {
              "pitch": 55,
              "velocity": 42,
              "position": 1.7708333333333333,
              "duration": 0.21875
            },
            {
              "pitch": 58,
              "velocity": 37,
              "position": 1.7604166666666667,
              "duration": 0.23958333333333334
            },
            {
              "pitch": 63,
              "velocity": 41,
              "position": 1.75,
              "duration": 0.2604166666666667
            },
            {
              "pitch": 104,
              "velocity": 106,
              "position": 2,
              "duration": 0.10416666666666667
            },
            {
              "pitch": 56,
              "velocity": 50,
              "position": 2,
              "duration": 0.9895833333333334
            },
            {
              "pitch": 60,
              "velocity": 50,
              "position": 2.0104166666666665,
              "duration": 0.9895833333333334
            },
            {
              "pitch": 65,
              "velocity": 50,
              "position": 2.0208333333333335,
              "duration": 0.9895833333333334
            },
            {
              "pitch": 104,
              "velocity": 106,
              "position": 3,
              "duration": 0.10416666666666667
            },
            {
              "pitch": 121,
              "velocity": 76,
              "position": 2.75,
              "duration": 0.3541666666666667
            },
            {
              "pitch": 55,
              "velocity": 50,
              "position": 3,
              "duration": 0.9895833333333334
            },
            {
              "pitch": 62,
              "velocity": 50,
              "position": 3.0104166666666665,
              "duration": 0.9895833333333334
            },
            {
              "pitch": 65,
              "velocity": 50,
              "position": 3.0208333333333335,
              "duration": 0.9895833333333334
            },
            {
              "pitch": 106,
              "velocity": 106,
              "position": 4,
              "duration": 0.10416666666666667
            },
            {
              "pitch": 120,
              "velocity": 76,
              "position": 3.75,
              "duration": 0.3541666666666667
            },
            {
              "pitch": 55,
              "velocity": 50,
              "position": 4,
              "duration": 3.9895833333333335
            },
            {
              "pitch": 60,
              "velocity": 50,
              "position": 4.010416666666667,
              "duration": 3.9895833333333335
            },
            {
              "pitch": 63,
              "velocity": 50,
              "position": 4.020833333333333,
              "duration": 3.9791666666666665
            }
          ]
        },
        "4": {
          "ctab": {
            "srcChannel": 4,
            "name": "Lead min",
            "accType": "CHORD2",
            "editable": true,
            "mutedNotes": [],
            "mutedChords": [
              "1+2+5",
              "sus4",
              "1+5",
              "1+8",
              "7aug",
              "Maj7aug",
              "7(#9)",
              "7(b13)",
              "7(b9)",
              "7(13)",
              "7#11",
              "7(9)",
              "7b5",
              "7sus4",
              "7th",
              "aug",
              "Maj6(9)",
              "Maj7(9)",
              "Maj(9)",
              "Maj7#11",
              "Maj7",
              "Maj6",
              "Maj"
            ],
            "autoStart": false,
            "sourceChordNote": 0,
            "sourceChordType": "min",
            "ctb2Low": null,
            "ctb2Main": {
              "ntr": "ROOT_TRANSPOSITION",
              "ntt": "BYPASS",
              "bassOn": false,
              "chordRootUpperLimit": 7,
              "noteLowLimit": 51,
              "noteHighLimit": 74,
              "rtr": "PITCH_SHIFT"
            },
            "ctb2High": null
          },
          "notes": [
            {
              "pitch": 65,
              "velocity": 59,
              "position": 0,
              "duration": 0.23958333333333334
            },
            {
              "pitch": 63,
              "velocity": 50,
              "position": 0.25,
              "duration": 0.23958333333333334
            },
            {
              "pitch": 63,
              "velocity": 84,
              "position": 0.5,
              "duration": 0.10416666666666667
            },
            {
              "pitch": 62,
              "velocity": 50,
              "position": 0.75,
              "duration": 0.23958333333333334
            },
            {
              "pitch": 61,
              "velocity": 86,
              "position": 1,
              "duration": 0.10416666666666667
            },
            {
              "pitch": 60,
              "velocity": 52,
              "position": 1.25,
              "duration": 0.23958333333333334
            },
            {
              "pitch": 56,
              "velocity": 119,
              "position": 1.75,
              "duration": 0.5
            },
            {
              "pitch": 58,
              "velocity": 52,
              "position": 2.25,
              "duration": 0.23958333333333334
            },
            {
              "pitch": 63,
              "velocity": 51,
              "position": 2.5,
              "duration": 0.23958333333333334
            },
            {
              "pitch": 60,
              "velocity": 42,
              "position": 2.75,
              "duration": 0.23958333333333334
            },
            {
              "pitch": 59,
              "velocity": 46,
              "position": 3,
              "duration": 0.23958333333333334
            },
            {
              "pitch": 67,
              "velocity": 56,
              "position": 3,
              "duration": 0.23958333333333334
            },
            {
              "pitch": 59,
              "velocity": 46,
              "position": 3.25,
              "duration": 0.23958333333333334
            },
            {
              "pitch": 67,
              "velocity": 56,
              "position": 3.25,
              "duration": 0.23958333333333334
            },
            {
              "pitch": 57,
              "velocity": 46,
              "position": 3.5,
              "duration": 0.4895833333333333
            },
            {
              "pitch": 65,
              "velocity": 46,
              "position": 3.5,
              "duration": 0.4895833333333333
            },
            {
              "pitch": 60,
              "velocity": 50,
              "position": 4.010416666666667,
              "duration": 3.9791666666666665
            },
            {
              "pitch": 63,
              "velocity": 118,
              "position": 4.010416666666667,
              "duration": 3.9791666666666665
            }
          ]
        },
        "6": {
          "ctab": {
            "srcChannel": 6,
            "name": "Gt_Ba m",
            "accType": "PHRASE1",
            "editable": false,
            "mutedNotes": [],
            "mutedChords": [
              "1+2+5",
              "sus4",
              "1+5",
              "1+8",
              "7aug",
              "Maj7aug",
              "7(#9)",
              "7(b13)",
              "7(b9)",
              "7(13)",
              "7#11",
              "7(9)",
              "7b5",
              "7sus4",
              "7th",
              "aug",
              "Maj6(9)",
              "Maj7(9)",
              "Maj(9)",
              "Maj7#11",
              "Maj7",
              "Maj6",
              "Maj"
            ],
            "autoStart": false,
            "sourceChordNote": 0,
            "sourceChordType": "min",
            "ctb2Low": null,
            "ctb2Main": {
              "ntr": "ROOT_TRANSPOSITION",
              "ntt": "BYPASS",
              "bassOn": false,
              "chordRootUpperLimit": 8,
              "noteLowLimit": 42,
              "noteHighLimit": 65,
              "rtr": "PITCH_SHIFT"
            },
            "ctb2High": null
          },
          "notes": [
            {
              "pitch": 44,
              "velocity": 87,
              "position": 0,
              "duration": 0.96875
            },
            {
              "pitch": 43,
              "velocity": 82,
              "position": 1,
              "duration": 0.4791666666666667
            },
            {
              "pitch": 55,
              "velocity": 87,
              "position": 1.5,
              "duration": 0.5
            },
            {
              "pitch": 53,
              "velocity": 87,
              "position": 2,
              "duration": 0.96875
            },
            {
              "pitch": 43,
              "velocity": 87,
              "position": 3,
              "duration": 0.96875
            },
            {
              "pitch": 36,
              "velocity": 87,
              "position": 4,
              "duration": 3.96875
            }
          ]
        },
        "7": {
          "ctab": {
            "srcChannel": 7,
            "name": "Gt_Arp m",
            "accType": "PHRASE2",
            "editable": false,
            "mutedNotes": [],
            "mutedChords": [
              "1+2+5",
              "sus4",
              "1+5",
              "1+8",
              "7aug",
              "Maj7aug",
              "7(#9)",
              "7(b13)",
              "7(b9)",
              "7(13)",
              "7#11",
              "7(9)",
              "7b5",
              "7sus4",
              "7th",
              "aug",
              "Maj6(9)",
              "Maj7(9)",
              "Maj(9)",
              "Maj7#11",
              "Maj7",
              "Maj6",
              "Maj"
            ],
            "autoStart": false,
            "sourceChordNote": 0,
            "sourceChordType": "min",
            "ctb2Low": null,
            "ctb2Main": {
              "ntr": "ROOT_TRANSPOSITION",
              "ntt": "BYPASS",
              "bassOn": false,
              "chordRootUpperLimit": 7,
              "noteLowLimit": 54,
              "noteHighLimit": 65,
              "rtr": "PITCH_SHIFT"
            },
            "ctb2High": null
          },
          "notes": [
            {
              "pitch": 60,
              "velocity": 55,
              "position": 0.25,
              "duration": 0.9895833333333334
            },
            {
              "pitch": 56,
              "velocity": 48,
              "position": 0.5,
              "duration": 0.9895833333333334
            },
            {
              "pitch": 58,
              "velocity": 43,
              "position": 1.25,
              "duration": 0.4895833333333333
            },
            {
              "pitch": 55,
              "velocity": 79,
              "position": 1.5,
              "duration": 0.5
            },
            {
              "pitch": 58,
              "velocity": 44,
              "position": 1.75,
              "duration": 0.25
            },
            {
              "pitch": 63,
              "velocity": 77,
              "position": 0.75,
              "duration": 1.25
            },
            {
              "pitch": 56,
              "velocity": 65,
              "position": 2.0104166666666665,
              "duration": 0.9895833333333334
            },
            {
              "pitch": 60,
              "velocity": 68,
              "position": 2.0416666666666665,
              "duration": 0.9895833333333334
            },
            {
              "pitch": 65,
              "velocity": 63,
              "position": 2.0729166666666665,
              "duration": 0.9895833333333334
            },
            {
              "pitch": 55,
              "velocity": 71,
              "position": 3.0104166666666665,
              "duration": 0.9895833333333334
            },
            {
              "pitch": 59,
              "velocity": 62,
              "position": 3.0416666666666665,
              "duration": 0.9895833333333334
            },
            {
              "pitch": 65,
              "velocity": 64,
              "position": 3.0729166666666665,
              "duration": 1
            },
            {
              "pitch": 55,
              "velocity": 68,
              "position": 4.010416666666667,
              "duration": 3.9583333333333335
            },
            {
              "pitch": 60,
              "velocity": 63,
              "position": 4.041666666666667,
              "duration": 3.9270833333333335
            },
            {
              "pitch": 63,
              "velocity": 64,
              "position": 4.072916666666667,
              "duration": 3.8958333333333335
            }
          ]
        },
        "8": {
          "ctab": {
            "srcChannel": 8,
            "name": "AddDrum",
            "accType": "SUBRHYTHM",
            "editable": false,
            "mutedNotes": [],
            "mutedChords": [],
            "autoStart": true,
            "sourceChordNote": 0,
            "sourceChordType": "Maj7",
            "ctb2Low": null,
            "ctb2Main": {
              "ntr": "ROOT_FIXED",
              "ntt": "BYPASS",
              "bassOn": false,
              "chordRootUpperLimit": 6,
              "noteLowLimit": 0,
              "noteHighLimit": 127,
              "rtr": "PITCH_SHIFT"
            },
            "ctb2High": null
          },
          "notes": [
            {
              "pitch": 70,
              "velocity": 65,
              "position": 0,
              "duration": 0.07291666666666667
            },
            {
              "pitch": 62,
              "velocity": 116,
              "position": 0,
              "duration": 0.08333333333333333
            },
            {
              "pitch": 54,
              "velocity": 37,
              "position": 0.23958333333333334,
              "duration": 0.052083333333333336
            },
            {
              "pitch": 69,
              "velocity": 41,
              "position": 0.25,
              "duration": 0.07291666666666667
            },
            {
              "pitch": 63,
              "velocity": 69,
              "position": 0.25,
              "duration": 0.08333333333333333
            },
            {
              "pitch": 60,
              "velocity": 97,
              "position": 0.2708333333333333,
              "duration": 0.08333333333333333
            },
            {
              "pitch": 54,
              "velocity": 71,
              "position": 0.4895833333333333,
              "duration": 0.052083333333333336
            },
            {
              "pitch": 70,
              "velocity": 98,
              "position": 0.5,
              "duration": 0.07291666666666667
            },
            {
              "pitch": 63,
              "velocity": 53,
              "position": 0.5,
              "duration": 0.08333333333333333
            },
            {
              "pitch": 54,
              "velocity": 59,
              "position": 0.7395833333333334,
              "duration": 0.052083333333333336
            },
            {
              "pitch": 70,
              "velocity": 25,
              "position": 0.75,
              "duration": 0.07291666666666667
            },
            {
              "pitch": 64,
              "velocity": 32,
              "position": 0.75,
              "duration": 0.08333333333333333
            },
            {
              "pitch": 60,
              "velocity": 38,
              "position": 0.7708333333333334,
              "duration": 0.08333333333333333
            },
            {
              "pitch": 54,
              "velocity": 56,
              "position": 0.9895833333333334,
              "duration": 0.052083333333333336
            },
            {
              "pitch": 70,
              "velocity": 67,
              "position": 1,
              "duration": 0.07291666666666667
            },
            {
              "pitch": 63,
              "velocity": 117,
              "position": 1,
              "duration": 0.08333333333333333
            },
            {
              "pitch": 61,
              "velocity": 111,
              "position": 1.0208333333333333,
              "duration": 0.08333333333333333
            },
            {
              "pitch": 54,
              "velocity": 34,
              "position": 1.2395833333333333,
              "duration": 0.052083333333333336
            },
            {
              "pitch": 69,
              "velocity": 36,
              "position": 1.25,
              "duration": 0.07291666666666667
            },
            {
              "pitch": 62,
              "velocity": 57,
              "position": 1.25,
              "duration": 0.08333333333333333
            },
            {
              "pitch": 54,
              "velocity": 71,
              "position": 1.4895833333333333,
              "duration": 0.052083333333333336
            },
            {
              "pitch": 70,
              "velocity": 95,
              "position": 1.5,
              "duration": 0.07291666666666667
            },
            {
              "pitch": 62,
              "velocity": 44,
              "position": 1.5,
              "duration": 0.08333333333333333
            },
            {
              "pitch": 54,
              "velocity": 33,
              "position": 1.7395833333333333,
              "duration": 0.052083333333333336
            },
            {
              "pitch": 70,
              "velocity": 33,
              "position": 1.75,
              "duration": 0.07291666666666667
            },
            {
              "pitch": 62,
              "velocity": 35,
              "position": 1.75,
              "duration": 0.08333333333333333
            },
            {
              "pitch": 54,
              "velocity": 51,
              "position": 1.9895833333333333,
              "duration": 0.052083333333333336
            },
            {
              "pitch": 70,
              "velocity": 60,
              "position": 2,
              "duration": 0.07291666666666667
            },
            {
              "pitch": 63,
              "velocity": 118,
              "position": 2.0104166666666665,
              "duration": 0.08333333333333333
            },
            {
              "pitch": 63,
              "velocity": 89,
              "position": 2.125,
              "duration": 0.08333333333333333
            },
            {
              "pitch": 54,
              "velocity": 36,
              "position": 2.2395833333333335,
              "duration": 0.052083333333333336
            },
            {
              "pitch": 69,
              "velocity": 47,
              "position": 2.25,
              "duration": 0.07291666666666667
            },
            {
              "pitch": 60,
              "velocity": 93,
              "position": 2.2708333333333335,
              "duration": 0.08333333333333333
            },
            {
              "pitch": 54,
              "velocity": 71,
              "position": 2.4895833333333335,
              "duration": 0.052083333333333336
            },
            {
              "pitch": 70,
              "velocity": 100,
              "position": 2.5,
              "duration": 0.07291666666666667
            },
            {
              "pitch": 63,
              "velocity": 42,
              "position": 2.5,
              "duration": 0.08333333333333333
            },
            {
              "pitch": 60,
              "velocity": 48,
              "position": 2.5208333333333335,
              "duration": 0.08333333333333333
            },
            {
              "pitch": 54,
              "velocity": 63,
              "position": 2.7395833333333335,
              "duration": 0.052083333333333336
            },
            {
              "pitch": 70,
              "velocity": 36,
              "position": 2.75,
              "duration": 0.07291666666666667
            },
            {
              "pitch": 64,
              "velocity": 26,
              "position": 2.75,
              "duration": 0.08333333333333333
            },
            {
              "pitch": 60,
              "velocity": 32,
              "position": 2.7708333333333335,
              "duration": 0.08333333333333333
            },
            {
              "pitch": 54,
              "velocity": 56,
              "position": 2.9895833333333335,
              "duration": 0.052083333333333336
            },
            {
              "pitch": 70,
              "velocity": 54,
              "position": 3,
              "duration": 0.07291666666666667
            },
            {
              "pitch": 64,
              "velocity": 72,
              "position": 3,
              "duration": 0.08333333333333333
            },
            {
              "pitch": 61,
              "velocity": 68,
              "position": 3.0208333333333335,
              "duration": 0.08333333333333333
            },
            {
              "pitch": 64,
              "velocity": 48,
              "position": 3.125,
              "duration": 0.08333333333333333
            },
            {
              "pitch": 54,
              "velocity": 35,
              "position": 3.2395833333333335,
              "duration": 0.052083333333333336
            },
            {
              "pitch": 69,
              "velocity": 40,
              "position": 3.25,
              "duration": 0.07291666666666667
            },
            {
              "pitch": 62,
              "velocity": 79,
              "position": 3.25,
              "duration": 0.08333333333333333
            },
            {
              "pitch": 54,
              "velocity": 71,
              "position": 3.4895833333333335,
              "duration": 0.052083333333333336
            },
            {
              "pitch": 70,
              "velocity": 113,
              "position": 3.5,
              "duration": 0.07291666666666667
            },
            {
              "pitch": 62,
              "velocity": 89,
              "position": 3.5,
              "duration": 0.08333333333333333
            },
            {
              "pitch": 54,
              "velocity": 34,
              "position": 3.7395833333333335,
              "duration": 0.052083333333333336
            },
            {
              "pitch": 70,
              "velocity": 35,
              "position": 3.75,
              "duration": 0.07291666666666667
            },
            {
              "pitch": 64,
              "velocity": 58,
              "position": 3.75,
              "duration": 0.08333333333333333
            },
            {
              "pitch": 54,
              "velocity": 52,
              "position": 3.9895833333333335,
              "duration": 0.052083333333333336
            },
            {
              "pitch": 70,
              "velocity": 62,
              "position": 4,
              "duration": 0.07291666666666667
            },
            {
              "pitch": 64,
              "velocity": 68,
              "position": 4,
              "duration": 0.08333333333333333
            },
            {
              "pitch": 61,
              "velocity": 116,
              "position": 4.020833333333333,
              "duration": 0.08333333333333333
            }
          ]
        },
        "9": {
          "ctab": {
            "srcChannel": 9,
            "name": "MainDrum",
            "accType": "RHYTHM",
            "editable": false,
            "mutedNotes": [],
            "mutedChords": [],
            "autoStart": true,
            "sourceChordNote": 0,
            "sourceChordType": "Maj7",
            "ctb2Low": null,
            "ctb2Main": {
              "ntr": "ROOT_FIXED",
              "ntt": "BYPASS",
              "bassOn": false,
              "chordRootUpperLimit": 6,
              "noteLowLimit": 0,
              "noteHighLimit": 127,
              "rtr": "PITCH_SHIFT"
            },
            "ctb2High": null
          },
          "notes": [
            {
              "pitch": 36,
              "velocity": 82,
              "position": 0,
              "duration": 0.052083333333333336
            },
            {
              "pitch": 42,
              "velocity": 85,
              "position": 0,
              "duration": 0.052083333333333336
            },
            {
              "pitch": 40,
              "velocity": 84,
              "position": 0.2604166666666667,
              "duration": 0.052083333333333336
            },
            {
              "pitch": 46,
              "velocity": 72,
              "position": 0.5,
              "duration": 0.052083333333333336
            },
            {
              "pitch": 36,
              "velocity": 52,
              "position": 0.7604166666666666,
              "duration": 0.052083333333333336
            },
            {
              "pitch": 42,
              "velocity": 60,
              "position": 0.7604166666666666,
              "duration": 0.052083333333333336
            },
            {
              "pitch": 36,
              "velocity": 82,
              "position": 1,
              "duration": 0.052083333333333336
            },
            {
              "pitch": 40,
              "velocity": 48,
              "position": 1,
              "duration": 0.052083333333333336
            },
            {
              "pitch": 40,
              "velocity": 39,
              "position": 1.125,
              "duration": 0.052083333333333336
            },
            {
              "pitch": 40,
              "velocity": 103,
              "position": 1.2604166666666667,
              "duration": 0.052083333333333336
            },
            {
              "pitch": 36,
              "velocity": 72,
              "position": 1.5,
              "duration": 0.052083333333333336
            },
            {
              "pitch": 40,
              "velocity": 48,
              "position": 1.7604166666666667,
              "duration": 0.052083333333333336
            },
            {
              "pitch": 36,
              "velocity": 86,
              "position": 2,
              "duration": 0.052083333333333336
            },
            {
              "pitch": 57,
              "velocity": 80,
              "position": 2,
              "duration": 0.052083333333333336
            },
            {
              "pitch": 36,
              "velocity": 86,
              "position": 3,
              "duration": 0.052083333333333336
            },
            {
              "pitch": 49,
              "velocity": 80,
              "position": 3,
              "duration": 0.052083333333333336
            },
            {
              "pitch": 36,
              "velocity": 86,
              "position": 4,
              "duration": 0.052083333333333336
            },
            {
              "pitch": 57,
              "velocity": 80,
              "position": 4,
              "duration": 0.052083333333333336
            }
          ]
        },
        "10": {
          "ctab": {
            "srcChannel": 10,
            "name": "Bass Maj",
            "accType": "BASS",
            "editable": false,
            "mutedNotes": [],
            "mutedChords": [
              "dim7",
              "dim",
              "minMaj7(9)",
              "minMaj7",
              "min7(11)",
              "min7(9)",
              "min(9)",
              "m7b5",
              "min7",
              "min6",
              "min"
            ],
            "autoStart": false,
            "sourceChordNote": 0,
            "sourceChordType": "Maj",
            "ctb2Low": null,
            "ctb2Main": {
              "ntr": "ROOT_TRANSPOSITION",
              "ntt": "BYPASS",
              "bassOn": false,
              "chordRootUpperLimit": 5,
              "noteLowLimit": 28,
              "noteHighLimit": 55,
              "rtr": "PITCH_SHIFT"
            },
            "ctb2High": null
          },
          "notes": [
            {
              "pitch": 29,
              "velocity": 60,
              "position": 0,
              "duration": 0.9895833333333334
            },
            {
              "pitch": 28,
              "velocity": 60,
              "position": 1,
              "duration": 0.4895833333333333
            },
            {
              "pitch": 40,
              "velocity": 60,
              "position": 1.5,
              "duration": 0.4895833333333333
            },
            {
              "pitch": 38,
              "velocity": 60,
              "position": 2,
              "duration": 0.9895833333333334
            },
            {
              "pitch": 31,
              "velocity": 60,
              "position": 3,
              "duration": 0.9895833333333334
            },
            {
              "pitch": 24,
              "velocity": 60,
              "position": 4,
              "duration": 3.9895833333333335
            }
          ]
        },
        "11": {
          "ctab": {
            "srcChannel": 11,
            "name": "Gt_Stk M",
            "accType": "CHORD1",
            "editable": false,
            "mutedNotes": [],
            "mutedChords": [
              "dim7",
              "dim",
              "minMaj7(9)",
              "minMaj7",
              "min7(11)",
              "min7(9)",
              "min(9)",
              "m7b5",
              "min7",
              "min6",
              "min"
            ],
            "autoStart": false,
            "sourceChordNote": 0,
            "sourceChordType": "Maj",
            "ctb2Low": null,
            "ctb2Main": {
              "ntr": "ROOT_TRANSPOSITION",
              "ntt": "BYPASS",
              "bassOn": false,
              "chordRootUpperLimit": 5,
              "noteLowLimit": 46,
              "noteHighLimit": 70,
              "rtr": "PITCH_SHIFT"
            },
            "ctb2High": null
          },
          "notes": [
            {
              "pitch": 111,
              "velocity": 90,
              "position": 0,
              "duration": 0.10416666666666667
            },
            {
              "pitch": 103,
              "velocity": 45,
              "position": 0.2604166666666667,
              "duration": 0.10416666666666667
            },
            {
              "pitch": 57,
              "velocity": 50,
              "position": 0,
              "duration": 0.4895833333333333
            },
            {
              "pitch": 60,
              "velocity": 50,
              "position": 0.010416666666666666,
              "duration": 0.4895833333333333
            },
            {
              "pitch": 65,
              "velocity": 50,
              "position": 0.020833333333333332,
              "duration": 0.4895833333333333
            },
            {
              "pitch": 106,
              "velocity": 97,
              "position": 0.5,
              "duration": 0.10416666666666667
            },
            {
              "pitch": 57,
              "velocity": 50,
              "position": 0.5,
              "duration": 0.4895833333333333
            },
            {
              "pitch": 60,
              "velocity": 50,
              "position": 0.5104166666666666,
              "duration": 0.4895833333333333
            },
            {
              "pitch": 65,
              "velocity": 50,
              "position": 0.5208333333333334,
              "duration": 0.4895833333333333
            },
            {
              "pitch": 109,
              "velocity": 36,
              "position": 1.0104166666666667,
              "duration": 0.10416666666666667
            },
            {
              "pitch": 64,
              "velocity": 31,
              "position": 1.0208333333333333,
              "duration": 0.21875
            },
            {
              "pitch": 60,
              "velocity": 31,
              "position": 1.0104166666666667,
              "duration": 0.23958333333333334
            },
            {
              "pitch": 55,
              "velocity": 31,
              "position": 1,
              "duration": 0.2604166666666667
            },
            {
              "pitch": 103,
              "velocity": 81,
              "position": 1.25,
              "duration": 0.10416666666666667
            },
            {
              "pitch": 55,
              "velocity": 40,
              "position": 1.2708333333333333,
              "duration": 0.21875
            },
            {
              "pitch": 60,
              "velocity": 42,
              "position": 1.2604166666666667,
              "duration": 0.23958333333333334
            },
            {
              "pitch": 64,
              "velocity": 42,
              "position": 1.25,
              "duration": 0.2604166666666667
            },
            {
              "pitch": 106,
              "velocity": 106,
              "position": 1.5,
              "duration": 0.10416666666666667
            },
            {
              "pitch": 64,
              "velocity": 50,
              "position": 1.5208333333333333,
              "duration": 0.21875
            },
            {
              "pitch": 60,
              "velocity": 50,
              "position": 1.5104166666666667,
              "duration": 0.23958333333333334
            },
            {
              "pitch": 55,
              "velocity": 50,
              "position": 1.5,
              "duration": 0.2604166666666667
            },
            {
              "pitch": 105,
              "velocity": 89,
              "position": 1.75,
              "duration": 0.10416666666666667
            },
            {
              "pitch": 55,
              "velocity": 42,
              "position": 1.7708333333333333,
              "duration": 0.21875
            },
            {
              "pitch": 60,
              "velocity": 37,
              "position": 1.7604166666666667,
              "duration": 0.23958333333333334
            },
            {
              "pitch": 64,
              "velocity": 41,
              "position": 1.75,
              "duration": 0.2604166666666667
            },
            {
              "pitch": 104,
              "velocity": 106,
              "position": 2,
              "duration": 0.10416666666666667
            },
            {
              "pitch": 57,
              "velocity": 50,
              "position": 2,
              "duration": 0.9895833333333334
            },
            {
              "pitch": 62,
              "velocity": 50,
              "position": 2.0104166666666665,
              "duration": 0.9895833333333334
            },
            {
              "pitch": 65,
              "velocity": 50,
              "position": 2.0208333333333335,
              "duration": 0.9895833333333334
            },
            {
              "pitch": 104,
              "velocity": 106,
              "position": 3,
              "duration": 0.10416666666666667
            },
            {
              "pitch": 121,
              "velocity": 76,
              "position": 2.75,
              "duration": 0.3541666666666667
            },
            {
              "pitch": 55,
              "velocity": 50,
              "position": 3,
              "duration": 0.9895833333333334
            },
            {
              "pitch": 62,
              "velocity": 50,
              "position": 3.0104166666666665,
              "duration": 0.9895833333333334
            },
            {
              "pitch": 65,
              "velocity": 50,
              "position": 3.0208333333333335,
              "duration": 0.9895833333333334
            },
            {
              "pitch": 106,
              "velocity": 106,
              "position": 4,
              "duration": 0.10416666666666667
            },
            {
              "pitch": 120,
              "velocity": 76,
              "position": 3.75,
              "duration": 0.3541666666666667
            },
            {
              "pitch": 55,
              "velocity": 50,
              "position": 4,
              "duration": 3.9895833333333335
            },
            {
              "pitch": 60,
              "velocity": 50,
              "position": 4.010416666666667,
              "duration": 3.9895833333333335
            },
            {
              "pitch": 64,
              "velocity": 50,
              "position": 4.020833333333333,
              "duration": 3.9791666666666665
            }
          ]
        },
        "12": {
          "ctab": {
            "srcChannel": 12,
            "name": "Lead Maj",
            "accType": "CHORD2",
            "editable": true,
            "mutedNotes": [],
            "mutedChords": [
              "dim7",
              "dim",
              "minMaj7(9)",
              "minMaj7",
              "min7(11)",
              "min7(9)",
              "min(9)",
              "m7b5",
              "min7",
              "min6",
              "min"
            ],
            "autoStart": false,
            "sourceChordNote": 0,
            "sourceChordType": "Maj",
            "ctb2Low": null,
            "ctb2Main": {
              "ntr": "ROOT_TRANSPOSITION",
              "ntt": "BYPASS",
              "bassOn": false,
              "chordRootUpperLimit": 7,
              "noteLowLimit": 51,
              "noteHighLimit": 74,
              "rtr": "PITCH_SHIFT"
            },
            "ctb2High": null
          },
          "notes": [
            {
              "pitch": 65,
              "velocity": 59,
              "position": 0,
              "duration": 0.23958333333333334
            },
            {
              "pitch": 64,
              "velocity": 50,
              "position": 0.25,
              "duration": 0.23958333333333334
            },
            {
              "pitch": 64,
              "velocity": 84,
              "position": 0.5,
              "duration": 0.10416666666666667
            },
            {
              "pitch": 62,
              "velocity": 50,
              "position": 0.75,
              "duration": 0.23958333333333334
            },
            {
              "pitch": 62,
              "velocity": 86,
              "position": 1,
              "duration": 0.10416666666666667
            },
            {
              "pitch": 60,
              "velocity": 52,
              "position": 1.25,
              "duration": 0.23958333333333334
            },
            {
              "pitch": 57,
              "velocity": 119,
              "position": 1.75,
              "duration": 0.5
            },
            {
              "pitch": 55,
              "velocity": 52,
              "position": 2.25,
              "duration": 0.23958333333333334
            },
            {
              "pitch": 60,
              "velocity": 51,
              "position": 2.5,
              "duration": 0.23958333333333334
            },
            {
              "pitch": 57,
              "velocity": 40,
              "position": 2.75,
              "duration": 0.23958333333333334
            },
            {
              "pitch": 64,
              "velocity": 46,
              "position": 3,
              "duration": 0.23958333333333334
            },
            {
              "pitch": 67,
              "velocity": 56,
              "position": 3,
              "duration": 0.23958333333333334
            },
            {
              "pitch": 64,
              "velocity": 46,
              "position": 3.25,
              "duration": 0.23958333333333334
            },
            {
              "pitch": 67,
              "velocity": 56,
              "position": 3.25,
              "duration": 0.23958333333333334
            },
            {
              "pitch": 62,
              "velocity": 46,
              "position": 3.5,
              "duration": 0.23958333333333334
            },
            {
              "pitch": 61,
              "velocity": 36,
              "position": 3.75,
              "duration": 0.23958333333333334
            },
            {
              "pitch": 65,
              "velocity": 46,
              "position": 3.5,
              "duration": 0.4895833333333333
            },
            {
              "pitch": 60,
              "velocity": 50,
              "position": 4,
              "duration": 3.9895833333333335
            },
            {
              "pitch": 64,
              "velocity": 118,
              "position": 4,
              "duration": 3.9895833333333335
            }
          ]
        },
        "14": {
          "ctab": {
            "srcChannel": 14,
            "name": "Gt_Ba M",
            "accType": "PHRASE1",
            "editable": false,
            "mutedNotes": [],
            "mutedChords": [
              "dim7",
              "dim",
              "minMaj7(9)",
              "minMaj7",
              "min7(11)",
              "min7(9)",
              "min(9)",
              "m7b5",
              "min7",
              "min6",
              "min"
            ],
            "autoStart": false,
            "sourceChordNote": 0,
            "sourceChordType": "Maj",
            "ctb2Low": null,
            "ctb2Main": {
              "ntr": "ROOT_TRANSPOSITION",
              "ntt": "BYPASS",
              "bassOn": false,
              "chordRootUpperLimit": 8,
              "noteLowLimit": 40,
              "noteHighLimit": 60,
              "rtr": "PITCH_SHIFT"
            },
            "ctb2High": null
          },
          "notes": [
            {
              "pitch": 41,
              "velocity": 77,
              "position": 0,
              "duration": 0.96875
            },
            {
              "pitch": 40,
              "velocity": 72,
              "position": 1,
              "duration": 0.4791666666666667
            },
            {
              "pitch": 52,
              "velocity": 77,
              "position": 1.5,
              "duration": 0.5
            },
            {
              "pitch": 50,
              "velocity": 77,
              "position": 2,
              "duration": 0.96875
            },
            {
              "pitch": 43,
              "velocity": 77,
              "position": 3,
              "duration": 0.96875
            },
            {
              "pitch": 36,
              "velocity": 77,
              "position": 4,
              "duration": 3.96875
            }
          ]
        },
        "15": {
          "ctab": {
            "srcChannel": 15,
            "name": "Gt_Arp M",
            "accType": "PHRASE2",
            "editable": false,
            "mutedNotes": [],
            "mutedChords": [
              "dim7",
              "dim",
              "minMaj7(9)",
              "minMaj7",
              "min7(11)",
              "min7(9)",
              "min(9)",
              "m7b5",
              "min7",
              "min6",
              "min"
            ],
            "autoStart": false,
            "sourceChordNote": 0,
            "sourceChordType": "Maj",
            "ctb2Low": null,
            "ctb2Main": {
              "ntr": "ROOT_TRANSPOSITION",
              "ntt": "BYPASS",
              "bassOn": false,
              "chordRootUpperLimit": 7,
              "noteLowLimit": 54,
              "noteHighLimit": 65,
              "rtr": "PITCH_SHIFT"
            },
            "ctb2High": null
          },
          "notes": [
            {
              "pitch": 60,
              "velocity": 55,
              "position": 0.25,
              "duration": 0.9895833333333334
            },
            {
              "pitch": 57,
              "velocity": 48,
              "position": 0.5,
              "duration": 0.9895833333333334
            },
            {
              "pitch": 60,
              "velocity": 43,
              "position": 1.25,
              "duration": 0.4895833333333333
            },
            {
              "pitch": 55,
              "velocity": 75,
              "position": 1.5,
              "duration": 0.5
            },
            {
              "pitch": 60,
              "velocity": 44,
              "position": 1.75,
              "duration": 0.25
            },
            {
              "pitch": 65,
              "velocity": 73,
              "position": 0.75,
              "duration": 1.25
            },
            {
              "pitch": 57,
              "velocity": 61,
              "position": 2.0104166666666665,
              "duration": 0.9895833333333334
            },
            {
              "pitch": 60,
              "velocity": 64,
              "position": 2.0416666666666665,
              "duration": 0.9895833333333334
            },
            {
              "pitch": 65,
              "velocity": 59,
              "position": 2.0729166666666665,
              "duration": 0.9895833333333334
            },
            {
              "pitch": 55,
              "velocity": 67,
              "position": 3.0104166666666665,
              "duration": 0.9895833333333334
            },
            {
              "pitch": 59,
              "velocity": 58,
              "position": 3.0416666666666665,
              "duration": 0.9895833333333334
            },
            {
              "pitch": 65,
              "velocity": 66,
              "position": 3.0729166666666665,
              "duration": 1
            },
            {
              "pitch": 55,
              "velocity": 64,
              "position": 4.010416666666667,
              "duration": 3.9583333333333335
            },
            {
              "pitch": 60,
              "velocity": 59,
              "position": 4.041666666666667,
              "duration": 3.9270833333333335
            },
            {
              "pitch": 64,
              "velocity": 60,
              "position": 4.072916666666667,
              "duration": 3.8958333333333335
            }
          ]
        }
      }
    }
  }
}