{
  "name": "CountryShuffle.S477.bcs",
  "tempo": 126,
  "timeSignature": "4/4",
  "ticksPerQuarter": 1920,
  "sffType": "SFF1",
  "division": "EIGHTH_SHUFFLE",
  "parts": {
    "Main_A": {
      "type": "Main_A",
      "sizeInBeats": 8,
      "channels": {
        "1": {
          "ctab": {
            "srcChannel": 1,
            "name": "HiStrFX",
            "accType": "CHORD1",
            "editable": false,
            "mutedNotes": [],
            "mutedChords": [],
            "autoStart": false,
            "sourceChordNote": 0,
            "sourceChordType": "Maj7",
            "ctb2Low": null,
            "ctb2Main": {
              "ntr": "ROOT_FIXED",
              "ntt": "BYPASS",
              "bassOn": false,
              "chordRootUpperLimit": 7,
              "noteLowLimit": 0,
              "noteHighLimit": 79,
              "rtr": "PITCH_SHIFT"
            },
            "ctb2High": null
          },
          "notes": [
            {
              "pitch": 98,
              "velocity": 81,
              "position": 0,
              "duration": 0.23958333333333334
            },
            {
              "pitch": 100,
              "velocity": 81,
              "position": 1,
              "duration": 0.23958333333333334
            },
            {
              "pitch": 98,
              "velocity": 81,
              "position": 2,
              "duration": 0.23958333333333334
            },
            {
              "pitch": 96,
              "velocity": 51,
              "position": 2.6875,
              "duration": 0.3020833333333333
            },
            {
              "pitch": 100,
              "velocity": 81,
              "position": 3,
              "duration": 0.23958333333333334
            },
            {
              "pitch": 98,
              "velocity": 81,
              "position": 4,
              "duration": 0.23958333333333334
            },
            {
              "pitch": 100,
              "velocity": 81,
              "position": 5,
              "duration": 0.23958333333333334
            },
            {
              "pitch": 96,
              "velocity": 51,
              "position": 5.6875,
              "duration": 0.3020833333333333
            },
            {
              "pitch": 98,
              "velocity": 81,
              "position": 6,
              "duration": 0.23958333333333334
            },
            {
              "pitch": 96,
              "velocity": 51,
              "position": 6.6875,
              "duration": 0.3020833333333333
            },
            {
              "pitch": 100,
              "velocity": 81,
              "position": 7,
              "duration": 0.23958333333333334
            },
            {
              "pitch": 96,
              "velocity": 44,
              "position": 7.6875,
              "duration": 0.30416666666666664
            }
          ]
        },
        "2": {
          "ctab": {
            "srcChannel": 2,
            "name": "12StRoot",
            "accType": "CHORD1",
            "editable": false,
            "mutedNotes": [],
            "mutedChords": [
              "1+2+5",
              "sus4",
              "1+5",
              "1+8",
              "Maj7aug",
              "dim",
              "minMaj7(9)",
              "minMaj7",
              "min6",
              "min",
              "aug",
              "Maj7(9)",
              "Maj7#11",
              "Maj7",
              "Maj6",
              "Maj"
            ],
            "autoStart": false,
            "sourceChordNote": 0,
            "sourceChordType": "Maj7",
            "ctb2Low": null,
            "ctb2Main": {
              "ntr": "ROOT_TRANSPOSITION",
              "ntt": "CHORD",
              "bassOn": false,
              "chordRootUpperLimit": 6,
              "noteLowLimit": 0,
              "noteHighLimit": 127,
              "rtr": "PITCH_SHIFT"
            },
            "ctb2High": null
          },
          "notes": [
            {
              "pitch": 60,
              "velocity": 100,
              "position": 0,
              "duration": 0.9791666666666666
            },
            {
              "pitch": 60,
              "velocity": 101,
              "position": 1,
              "duration": 0.9791666666666666
            },
            {
              "pitch": 60,
              "velocity": 95,
              "position": 2,
              "duration": 0.6458333333333334
            },
            {
              "pitch": 60,
              "velocity": 74,
              "position": 2.6666666666666665,
              "duration": 0.3125
            },
            {
              "pitch": 60,
              "velocity": 101,
              "position": 3,
              "duration": 0.9791666666666666
            },
            {
              "pitch": 60,
              "velocity": 100,
              "position": 4,
              "duration": 0.9791666666666666
            },
            {
              "pitch": 60,
              "velocity": 101,
              "position": 5,
              "duration": 0.6458333333333334
            },
            {
              "pitch": 60,
              "velocity": 74,
              "position": 5.666666666666667,
              "duration": 0.3125
            },
            {
              "pitch": 60,
              "velocity": 95,
              "position": 6,
              "duration": 0.6458333333333334
            },
            {
              "pitch": 60,
              "velocity": 74,
              "position": 6.666666666666667,
              "duration": 0.3125
            },
            {
              "pitch": 60,
              "velocity": 101,
              "position": 7,
              "duration": 0.6479166666666667
            },
            {
              "pitch": 60,
              "velocity": 77,
              "position": 7.666666666666667,
              "duration": 0.3145833333333333
            }
          ]
        },
        "4": {
          "ctab": {
            "srcChannel": 4,
            "name": "Ped Root",
            "accType": "PHRASE1",
            "editable": false,
            "mutedNotes": [],
            "mutedChords": [
              "1+2+5",
              "sus4",
              "1+5",
              "1+8",
              "Maj7aug",
              "dim",
              "minMaj7(9)",
              "minMaj7",
              "min6",
              "min",
              "aug",
              "Maj7(9)",
              "Maj7#11",
              "Maj7",
              "Maj6",
              "Maj"
            ],
            "autoStart": false,
            "sourceChordNote": 0,
            "sourceChordType": "Maj7",
            "ctb2Low": null,
            "ctb2Main": {
              "ntr": "ROOT_TRANSPOSITION",
              "ntt": "CHORD",
              "bassOn": false,
              "chordRootUpperLimit": 10,
              "noteLowLimit": 0,
              "noteHighLimit": 127,
              "rtr": "PITCH_SHIFT"
            },
            "ctb2High": null
          },
          "notes": []
        },
        "7": {
          "ctab": {
            "srcChannel": 7,
            "name": "CC_Crash",
            "accType": "RHYTHM",
            "editable": false,
            "mutedNotes": [],
            "mutedChords": [
              "1+2+5",
              "sus4",
              "1+5",
              "1+8",
              "7aug",
              "Maj7aug",
              "7(#9)",
              "7(b13)",
              "7(b9)",
              "7(13)",
              "7#11",
              "7(9)",
              "7b5",
              "7sus4",
              "7th",
              "dim7",
              "dim",
              "minMaj7(9)",
              "minMaj7",
              "min7(11)",
              "min7(9)",
              "min(9)",
              "m7b5",
              "min7",
              "min6",
              "min",
              "aug",
              "Maj6(9)",
              "Maj7(9)",
              "Maj(9)",
              "Maj7#11",
              "Maj7",
              "Maj6",
              "Maj"
            ],
            "autoStart": true,
            "sourceChordNote": 0,
            "sourceChordType": "Maj",
            "ctb2Low": null,
            "ctb2Main": {
              "ntr": "ROOT_FIXED",
              "ntt": "BYPASS",
              "bassOn": false,
              "chordRootUpperLimit": 0,
              "noteLowLimit": 0,
              "noteHighLimit": 127,
              "rtr": "RETRIGGER"
            },
            "ctb2High": null
          },
          "notes": []
        },
        "8": {
          "ctab": {
            "srcChannel": 8,
            "name": "Perc",
            "accType": "SUBRHYTHM",
            "editable": false,
            "mutedNotes": [],
            "mutedChords": [],
            "autoStart": true,
            "sourceChordNote": 0,
            "sourceChordType": "Maj7",
            "ctb2Low": null,
            "ctb2Main": {
              "ntr": "ROOT_FIXED",
              "ntt": "BYPASS",
              "bassOn": false,
              "chordRootUpperLimit": 6,
              "noteLowLimit": 0,
              "noteHighLimit": 127,
              "rtr": "PITCH_SHIFT"
            },
            "ctb2High": null
          },
          "notes": [
            {
              "pitch": 19,
              "velocity": 81,
              "position": 1,
              "duration": 0.010416666666666666
            },
            {
              "pitch": 54,
              "velocity": 81,
              "position": 3,
              "duration": 0.010416666666666666
            },
            {
              "pitch": 19,
              "velocity": 81,
              "position": 5,
              "duration": 0.010416666666666666
            },
            {
              "pitch": 54,
              "velocity": 81,
              "position": 7,
              "duration": 0.010416666666666666
            }
          ]
        },
        "9": {
          "ctab": {
            "srcChannel": 9,
            "name": "Drs",
            "accType": "RHYTHM",
            "editable": false,
            "mutedNotes": [],
            "mutedChords": [],
            "autoStart": true,
            "sourceChordNote": 0,
            "sourceChordType": "Maj7",
            "ctb2Low": null,
            "ctb2Main": {
              "ntr": "ROOT_FIXED",
              "ntt": "BYPASS",
              "bassOn": false,
              "chordRootUpperLimit": 6,
              "noteLowLimit": 0,
              "noteHighLimit": 127,
              "rtr": "PITCH_SHIFT"
            },
            "ctb2High": null
          },
          "notes": [
            {
              "pitch": 27,
              "velocity": 64,
              "position": 0,
              "duration": 0.010416666666666666
            },
            {
              "pitch": 36,
              "velocity": 79,
              "position": 0,
              "duration": 0.010416666666666666
            },
            {
              "pitch": 37,
              "velocity": 85,
              "position": 1,
              "duration": 0.010416666666666666
            },
            {
              "pitch": 44,
              "velocity": 60,
              "position": 1,
              "duration": 0.010416666666666666
            },
            {
              "pitch": 27,
              "velocity": 64,
              "position": 2,
              "duration": 0.010416666666666666
            },
            {
              "pitch": 36,
              "velocity": 79,
              "position": 2,
              "duration": 0.010416666666666666
            },
            {
              "pitch": 37,
              "velocity": 85,
              "position": 3,
              "duration": 0.010416666666666666
            },
            {
              "pitch": 44,
              "velocity": 60,
              "position": 3,
              "duration": 0.010416666666666666
            },
            {
              "pitch": 27,
              "velocity": 64,
              "position": 4,
              "duration": 0.010416666666666666
            },
            {
              "pitch": 36,
              "velocity": 79,
              "position": 4,
              "duration": 0.010416666666666666
            },
            {
              "pitch": 37,
              "velocity": 85,
              "position": 5,
              "duration": 0.010416666666666666
            },
            {
              "pitch": 44,
              "velocity": 60,
              "position": 5,
              "duration": 0.010416666666666666
            },
            {
              "pitch": 27,
              "velocity": 64,
              "position": 6,
              "duration": 0.010416666666666666
            },
            {
              "pitch": 36,
              "velocity": 79,
              "position": 6,
              "duration": 0.010416666666666666
            },
            {
              "pitch": 37,
              "velocity": 85,
              "position": 7,
              "duration": 0.010416666666666666
            },
            {
              "pitch": 44,
              "velocity": 60,
              "position": 7,
              "duration": 0.010416666666666666
            }
          ]
        },
        "10": {
          "ctab": {
            "srcChannel": 10,
            "name": "Bass",
            "accType": "BASS",
            "editable": false,
            "mutedNotes": [],
            "mutedChords": [],
            "autoStart": false,
            "sourceChordNote": 0,
            "sourceChordType": "Maj7",
            "ctb2Low": null,
            "ctb2Main": {
              "ntr": "ROOT_TRANSPOSITION",
              "ntt": "MELODY",
              "bassOn": true,
              "chordRootUpperLimit": 8,
              "noteLowLimit": 28,
              "noteHighLimit": 127,
              "rtr": "PITCH_SHIFT_TO_ROOT"
            },
            "ctb2High": null
          },
          "notes": [
            {
              "pitch": 24,
              "velocity": 60,
              "position": 0,
              "duration": 0.9895833333333334
            },
            {
              "pitch": 31,
              "velocity": 60,
              "position": 2,
              "duration": 0.9895833333333334
            },
            {
              "pitch": 24,
              "velocity": 60,
              "position": 4,
              "duration": 0.9895833333333334
            },
            {
              "pitch": 31,
              "velocity": 60,
              "position": 6,
              "duration": 0.9895833333333334
            }
          ]
        },
        "11": {
          "ctab": {
            "srcChannel": 11,
            "name": "HiStrMg",
            "accType": "CHORD1",
            "editable": false,
            "mutedNotes": [],
            "mutedChords": [],
            "autoStart": false,
            "sourceChordNote": 0,
            "sourceChordType": "Maj7",
            "ctb2Low": null,
            "ctb2Main": {
              "ntr": "ROOT_FIXED",
              "ntt": "CHORD",
              "bassOn": false,
              "chordRootUpperLimit": 7,
              "noteLowLimit": 0,
              "noteHighLimit": 127,
              "rtr": "PITCH_SHIFT"
            },
            "ctb2High": null
          },
          "notes": [
            {
              "pitch": 55,
              "velocity": 115,
              "position": 0,
              "duration": 0.9895833333333334
            },
            {
              "pitch": 59,
              "velocity": 115,
              "position": 0.010416666666666666,
              "duration": 0.9791666666666666
            },
            {
              "pitch": 64,
              "velocity": 115,
              "position": 0.020833333333333332,
              "duration": 0.96875
            },
            {
              "pitch": 64,
              "velocity": 117,
              "position": 1,
              "duration": 0.9895833333333334
            },
            {
              "pitch": 59,
              "velocity": 116,
              "position": 1.0104166666666667,
              "duration": 0.9791666666666666
            },
            {
              "pitch": 55,
              "velocity": 116,
              "position": 1.0208333333333333,
              "duration": 0.96875
            },
            {
              "pitch": 55,
              "velocity": 110,
              "position": 2,
              "duration": 0.65625
            },
            {
              "pitch": 59,
              "velocity": 110,
              "position": 2.0104166666666665,
              "duration": 0.6458333333333334
            },
            {
              "pitch": 64,
              "velocity": 113,
              "position": 2.0208333333333335,
              "duration": 0.6354166666666666
            },
            {
              "pitch": 64,
              "velocity": 89,
              "position": 2.6666666666666665,
              "duration": 0.3229166666666667
            },
            {
              "pitch": 59,
              "velocity": 89,
              "position": 2.6770833333333335,
              "duration": 0.3125
            },
            {
              "pitch": 55,
              "velocity": 89,
              "position": 2.6875,
              "duration": 0.3020833333333333
            },
            {
              "pitch": 55,
              "velocity": 116,
              "position": 3,
              "duration": 0.9895833333333334
            },
            {
              "pitch": 59,
              "velocity": 116,
              "position": 3.0104166666666665,
              "duration": 0.9791666666666666
            },
            {
              "pitch": 64,
              "velocity": 116,
              "position": 3.0208333333333335,
              "duration": 0.96875
            },
            {
              "pitch": 64,
              "velocity": 115,
              "position": 4,
              "duration": 0.9895833333333334
            },
            {
              "pitch": 59,
              "velocity": 115,
              "position": 4.010416666666667,
              "duration": 0.9791666666666666
            },
            {
              "pitch": 55,
              "velocity": 115,
              "position": 4.020833333333333,
              "duration": 0.96875
            },
            {
              "pitch": 55,
              "velocity": 116,
              "position": 5,
              "duration": 0.65625
            },
            {
              "pitch": 59,
              "velocity": 116,
              "position": 5.010416666666667,
              "duration": 0.6458333333333334
            },
            {
              "pitch": 64,
              "velocity": 116,
              "position": 5.020833333333333,
              "duration": 0.6354166666666666
            },
            {
              "pitch": 64,
              "velocity": 89,
              "position": 5.666666666666667,
              "duration": 0.3229166666666667
            },
            {
              "pitch": 59,
              "velocity": 89,
              "position": 5.677083333333333,
              "duration": 0.3125
            },
            {
              "pitch": 55,
              "velocity": 89,
              "position": 5.6875,
              "duration": 0.3020833333333333
            },
            {
              "pitch": 55,
              "velocity": 110,
              "position": 6,
              "duration": 0.65625
            },
            {
              "pitch": 59,
              "velocity": 110,
              "position": 6.010416666666667,
              "duration": 0.6458333333333334
            },
            {
              "pitch": 64,
              "velocity": 113,
              "position": 6.020833333333333,
              "duration": 0.6354166666666666
            },
            {
              "pitch": 64,
              "velocity": 89,
              "position": 6.666666666666667,
              "duration": 0.3229166666666667
            },
            {
              "pitch": 59,
              "velocity": 89,
              "position": 6.677083333333333,
              "duration": 0.3125
            },
            {
              "pitch": 55,
              "velocity": 89,
              "position": 6.6875,
              "duration": 0.3020833333333333
            },
            {
              "pitch": 55,
              "velocity": 116,
              "position": 7,
              "duration": 0.6583333333333333
            },
            {
              "pitch": 59,
              "velocity": 116,
              "position": 7.010416666666667,
              "duration": 0.6479166666666667
            },
            {
              "pitch": 64,
              "velocity": 116,
              "position": 7.020833333333333,
              "duration": 0.6375
            },
            {
              "pitch": 64,
              "velocity": 92,
              "position": 7.666666666666667,
              "duration": 0.325
            },
            {
              "pitch": 59,
              "velocity": 92,
              "position": 7.677083333333333,
              "duration": 0.3145833333333333
            },
            {
              "pitch": 55,
              "velocity": 92,
              "position": 7.6875,
              "duration": 0.30416666666666664
            }
          ]
        },
        "12": {
          "ctab": {
            "srcChannel": 12,
            "name": "ClGt",
            "accType": "CHORD2",
            "editable": false,
            "mutedNotes": [],
            "mutedChords": [],
            "autoStart": false,
            "sourceChordNote": 0,
            "sourceChordType": "Maj7",
            "ctb2Low": null,
            "ctb2Main": {
              "ntr": "ROOT_FIXED",
              "ntt": "CHORD",
              "bassOn": false,
              "chordRootUpperLimit": 7,
              "noteLowLimit": 0,
              "noteHighLimit": 127,
              "rtr": "PITCH_SHIFT"
            },
            "ctb2High": null
          },
          "notes": []
        },
        "13": {
          "ctab": {
            "srcChannel": 13,
            "name": "PedSt",
            "accType": "PHRASE1",
            "editable": false,
            "mutedNotes": [],
            "mutedChords": [],
            "autoStart": false,
            "sourceChordNote": 0,
            "sourceChordType": "Maj7",
            "ctb2Low": null,
            "ctb2Main": {
              "ntr": "ROOT_TRANSPOSITION",
              "ntt": "CHORD",
              "bassOn": false,
              "chordRootUpperLimit": 7,
              "noteLowLimit": 59,
              "noteHighLimit": 70,
              "rtr": "PITCH_SHIFT"
            },
            "ctb2High": null
          },
          "notes": []
        }
      }
    },
    "Main_B": {
      "type": "Main_B",
      "sizeInBeats": 8,
      "channels": {
        "1": {
          "ctab": {
            "srcChannel": 1,
            "name": "HiStrFX",
            "accType": "CHORD1",
            "editable": false,
            "mutedNotes": [],
            "mutedChords": [],
            "autoStart": false,
            "sourceChordNote": 0,
            "sourceChordType": "Maj7",
            "ctb2Low": null,
            "ctb2Main": {
              "ntr": "ROOT_FIXED",
              "ntt": "BYPASS",
              "bassOn": false,
              "chordRootUpperLimit": 7,
              "noteLowLimit": 0,
              "noteHighLimit": 79,
              "rtr": "PITCH_SHIFT"
            },
            "ctb2High": null
          },
          "notes": [
            {
              "pitch": 98,
              "velocity": 98,
              "position": 0,
              "duration": 0.23958333333333334
            },
            {
              "pitch": 100,
              "velocity": 98,
              "position": 1,
              "duration": 0.23958333333333334
            },
            {
              "pitch": 98,
              "velocity": 98,
              "position": 2,
              "duration": 0.23958333333333334
            },
            {
              "pitch": 99,
              "velocity": 87,
              "position": 2.6666666666666665,
              "duration": 0.23958333333333334
            },
            {
              "pitch": 100,
              "velocity": 98,
              "position": 3,
              "duration": 0.23958333333333334
            },
            {
              "pitch": 99,
              "velocity": 87,
              "position": 3.6666666666666665,
              "duration": 0.23958333333333334
            },
            {
              "pitch": 98,
              "velocity": 98,
              "position": 4,
              "duration": 0.23958333333333334
            },
            {
              "pitch": 100,
              "velocity": 98,
              "position": 5,
              "duration": 0.23958333333333334
            },
            {
              "pitch": 99,
              "velocity": 87,
              "position": 5.666666666666667,
              "duration": 0.23958333333333334
            },
            {
              "pitch": 98,
              "velocity": 98,
              "position": 6,
              "duration": 0.23958333333333334
            },
            {
              "pitch": 99,
              "velocity": 87,
              "position": 6.666666666666667,
              "duration": 0.23958333333333334
            },
            {
              "pitch": 98,
              "velocity": 98,
              "position": 7,
              "duration": 0.23958333333333334
            },
            {
              "pitch": 99,
              "velocity": 87,
              "position": 7.666666666666667,
              "duration": 0.23958333333333334
            }
          ]
        },
        "2": {
          "ctab": {
            "srcChannel": 2,
            "name": "12StRoot",
            "accType": "CHORD1",
            "editable": false,
            "mutedNotes": [],
            "mutedChords": [
              "1+2+5",
              "sus4",
              "1+5",
              "1+8",
              "Maj7aug",
              "dim",
              "minMaj7(9)",
              "minMaj7",
              "min6",
              "min",
              "aug",
              "Maj7(9)",
              "Maj7#11",
              "Maj7",
              "Maj6",
              "Maj"
            ],
            "autoStart": false,
            "sourceChordNote": 0,
            "sourceChordType": "Maj7",
            "ctb2Low": null,
            "ctb2Main": {
              "ntr": "ROOT_TRANSPOSITION",
              "ntt": "CHORD",
              "bassOn": false,
              "chordRootUpperLimit": 6,
              "noteLowLimit": 0,
              "noteHighLimit": 127,
              "rtr": "PITCH_SHIFT"
            },
            "ctb2High": null
          },
          "notes": [
            {
              "pitch": 60,
              "velocity": 100,
              "position": 0,
              "duration": 0.98125
            },
            {
              "pitch": 60,
              "velocity": 101,
              "position": 1,
              "duration": 0.98125
            },
            {
              "pitch": 60,
              "velocity": 100,
              "position": 2,
              "duration": 0.6479166666666667
            },
            {
              "pitch": 60,
              "velocity": 74,
              "position": 2.6666666666666665,
              "duration": 0.3145833333333333
            },
            {
              "pitch": 60,
              "velocity": 101,
              "position": 3,
              "duration": 0.6479166666666667
            },
            {
              "pitch": 60,
              "velocity": 74,
              "position": 3.6666666666666665,
              "duration": 0.3145833333333333
            },
            {
              "pitch": 60,
              "velocity": 100,
              "position": 4,
              "duration": 0.98125
            },
            {
              "pitch": 60,
              "velocity": 101,
              "position": 5,
              "duration": 0.6479166666666667
            },
            {
              "pitch": 60,
              "velocity": 69,
              "position": 5.666666666666667,
              "duration": 0.3145833333333333
            },
            {
              "pitch": 60,
              "velocity": 100,
              "position": 6,
              "duration": 0.6479166666666667
            },
            {
              "pitch": 60,
              "velocity": 74,
              "position": 6.666666666666667,
              "duration": 0.3145833333333333
            },
            {
              "pitch": 60,
              "velocity": 101,
              "position": 7,
              "duration": 0.6479166666666667
            },
            {
              "pitch": 60,
              "velocity": 74,
              "position": 7.666666666666667,
              "duration": 0.3145833333333333
            }
          ]
        },
        "4": {
          "ctab": {
            "srcChannel": 4,
            "name": "Ped Root",
            "accType": "PHRASE1",
            "editable": false,
            "mutedNotes": [],
            "mutedChords": [
              "1+2+5",
              "sus4",
              "1+5",
              "1+8",
              "Maj7aug",
              "dim",
              "minMaj7(9)",
              "minMaj7",
              "min6",
              "min",
              "aug",
              "Maj7(9)",
              "Maj7#11",
              "Maj7",
              "Maj6",
              "Maj"
            ],
            "autoStart": false,
            "sourceChordNote": 0,
            "sourceChordType": "Maj7",
            "ctb2Low": null,
            "ctb2Main": {
              "ntr": "ROOT_TRANSPOSITION",
              "ntt": "CHORD",
              "bassOn": false,
              "chordRootUpperLimit": 10,
              "noteLowLimit": 0,
              "noteHighLimit": 127,
              "rtr": "PITCH_SHIFT"
            },
            "ctb2High": null
          },
          "notes": []
        },
        "7": {
          "ctab": {
            "srcChannel": 7,
            "name": "CC_Crash",
            "accType": "RHYTHM",
            "editable": false,
            "mutedNotes": [],
            "mutedChords": [
              "1+2+5",
              "sus4",
              "1+5",
              "1+8",
              "7aug",
              "Maj7aug",
              "7(#9)",
              "7(b13)",
              "7(b9)",
              "7(13)",
              "7#11",
              "7(9)",
              "7b5",
              "7sus4",
              "7th",
              "dim7",
              "dim",
              "minMaj7(9)",
              "minMaj7",
              "min7(11)",
              "min7(9)",
              "min(9)",
              "m7b5",
              "min7",
              "min6",
              "min",
              "aug",
              "Maj6(9)",
              "Maj7(9)",
              "Maj(9)",
              "Maj7#11",
              "Maj7",
              "Maj6",
              "Maj"
            ],
            "autoStart": true,
            "sourceChordNote": 0,
            "sourceChordType": "Maj",
            "ctb2Low": null,
            "ctb2Main": {
              "ntr": "ROOT_FIXED",
              "ntt": "BYPASS",
              "bassOn": false,
              "chordRootUpperLimit": 0,
              "noteLowLimit": 0,
              "noteHighLimit": 127,
              "rtr": "RETRIGGER"
            },
            "ctb2High": null
          },
          "notes": []
        },
        "8": {
          "ctab": {
            "srcChannel": 8,
            "name": "Perc",
            "accType": "SUBRHYTHM",
            "editable": false,
            "mutedNotes": [],
            "mutedChords": [],
            "autoStart": true,
            "sourceChordNote": 0,
            "sourceChordType": "Maj7",
            "ctb2Low": null,
            "ctb2Main": {
              "ntr": "ROOT_FIXED",
              "ntt": "BYPASS",
              "bassOn": false,
              "chordRootUpperLimit": 6,
              "noteLowLimit": 0,
              "noteHighLimit": 127,
              "rtr": "PITCH_SHIFT"
            },
            "ctb2High": null
          },
          "notes": [
            {
              "pitch": 54,
              "velocity": 89,
              "position": 1,
              "duration": 0.010416666666666666
            },
            {
              "pitch": 54,
              "velocity": 48,
              "position": 2.6770833333333335,
              "duration": 0.010416666666666666
            },
            {
              "pitch": 54,
              "velocity": 91,
              "position": 3,
              "duration": 0.010416666666666666
            },
            {
              "pitch": 54,
              "velocity": 91,
              "position": 5,
              "duration": 0.010416666666666666
            },
            {
              "pitch": 54,
              "velocity": 54,
              "position": 6.677083333333333,
              "duration": 0.010416666666666666
            },
            {
              "pitch": 54,
              "velocity": 98,
              "position": 7,
              "duration": 0.010416666666666666
            }
          ]
        },
        "9": {
          "ctab": {
            "srcChannel": 9,
            "name": "Drs",
            "accType": "RHYTHM",
            "editable": false,
            "mutedNotes": [],
            "mutedChords": [],
            "autoStart": true,
            "sourceChordNote": 0,
            "sourceChordType": "Maj7",
            "ctb2Low": null,
            "ctb2Main": {
              "ntr": "ROOT_FIXED",
              "ntt": "BYPASS",
              "bassOn": false,
              "chordRootUpperLimit": 6,
              "noteLowLimit": 0,
              "noteHighLimit": 127,
              "rtr": "PITCH_SHIFT"
            },
            "ctb2High": null
          },
          "notes": [
            {
              "pitch": 27,
              "velocity": 72,
              "position": 0,
              "duration": 0.010416666666666666
            },
            {
              "pitch": 36,
              "velocity": 79,
              "position": 0,
              "duration": 0.010416666666666666
            },
            {
              "pitch": 25,
              "velocity": 36,
              "position": 0.6666666666666666,
              "duration": 0.010416666666666666
            },
            {
              "pitch": 37,
              "velocity": 85,
              "position": 1,
              "duration": 0.010416666666666666
            },
            {
              "pitch": 44,
              "velocity": 60,
              "position": 1,
              "duration": 0.010416666666666666
            },
            {
              "pitch": 25,
              "velocity": 36,
              "position": 1.6666666666666667,
              "duration": 0.010416666666666666
            },
            {
              "pitch": 36,
              "velocity": 51,
              "position": 1.6666666666666667,
              "duration": 0.010416666666666666
            },
            {
              "pitch": 27,
              "velocity": 72,
              "position": 2,
              "duration": 0.010416666666666666
            },
            {
              "pitch": 36,
              "velocity": 79,
              "position": 2,
              "duration": 0.010416666666666666
            },
            {
              "pitch": 25,
              "velocity": 36,
              "position": 2.6666666666666665,
              "duration": 0.010416666666666666
            },
            {
              "pitch": 37,
              "velocity": 85,
              "position": 3,
              "duration": 0.010416666666666666
            },
            {
              "pitch": 44,
              "velocity": 60,
              "position": 3,
              "duration": 0.010416666666666666
            },
            {
              "pitch": 25,
              "velocity": 36,
              "position": 3.6666666666666665,
              "duration": 0.010416666666666666
            },
            {
              "pitch": 27,
              "velocity": 72,
              "position": 4,
              "duration": 0.010416666666666666
            },
            {
              "pitch": 36,
              "velocity": 79,
              "position": 4,
              "duration": 0.010416666666666666
            },
            {
              "pitch": 25,
              "velocity": 36,
              "position": 4.666666666666667,
              "duration": 0.010416666666666666
            },
            {
              "pitch": 37,
              "velocity": 85,
              "position": 5,
              "duration": 0.010416666666666666
            },
            {
              "pitch": 44,
              "velocity": 60,
              "position": 5,
              "duration": 0.010416666666666666
            },
            {
              "pitch": 25,
              "velocity": 36,
              "position": 5.666666666666667,
              "duration": 0.010416666666666666
            },
            {
              "pitch": 36,
              "velocity": 51,
              "position": 5.666666666666667,
              "duration": 0.010416666666666666
            },
            {
              "pitch": 27,
              "velocity": 72,
              "position": 6,
              "duration": 0.010416666666666666
            },
            {
              "pitch": 36,
              "velocity": 79,
              "position": 6,
              "duration": 0.010416666666666666
            },
            {
              "pitch": 25,
              "velocity": 36,
              "position": 6.666666666666667,
              "duration": 0.010416666666666666
            },
            {
              "pitch": 37,
              "velocity": 85,
              "position": 7,
              "duration": 0.010416666666666666
            },
            {
              "pitch": 44,
              "velocity": 60,
              "position": 7,
              "duration": 0.010416666666666666
            },
            {
              "pitch": 25,
              "velocity": 36,
              "position": 7.666666666666667,
              "duration": 0.010416666666666666
            }
          ]
        },
        "10": {
          "ctab": {
            "srcChannel": 10,
            "name": "Bass",
            "accType": "BASS",
            "editable": false,
            "mutedNotes": [],
            "mutedChords": [],
            "autoStart": false,
            "sourceChordNote": 0,
            "sourceChordType": "Maj7",
            "ctb2Low": null,
            "ctb2Main": {
              "ntr": "ROOT_TRANSPOSITION",
              "ntt": "MELODY",
              "bassOn": true,
              "chordRootUpperLimit": 8,
              "noteLowLimit": 28,
              "noteHighLimit": 127,
              "rtr": "PITCH_SHIFT_TO_ROOT"
            },
            "ctb2High": null
          },
          "notes": [
            {
              "pitch": 24,
              "velocity": 60,
              "position": 0,
              "duration": 0.9895833333333334
            },
            {
              "pitch": 24,
              "velocity": 100,
              "position": 1.6666666666666667,
              "duration": 0.325
            },
            {
              "pitch": 31,
              "velocity": 60,
              "position": 2,
              "duration": 0.9895833333333334
            },
            {
              "pitch": 31,
              "velocity": 100,
              "position": 3.6666666666666665,
              "duration": 0.325
            },
            {
              "pitch": 24,
              "velocity": 60,
              "position": 4,
              "duration": 0.9895833333333334
            },
            {
              "pitch": 24,
              "velocity": 100,
              "position": 5.666666666666667,
              "duration": 0.325
            },
            {
              "pitch": 31,
              "velocity": 60,
              "position": 6,
              "duration": 0.9895833333333334
            },
            {
              "pitch": 31,
              "velocity": 100,
              "position": 7.666666666666667,
              "duration": 0.325
            }
          ]
        },
        "11": {
          "ctab": {
            "srcChannel": 11,
            "name": "HiStrMg",
            "accType": "CHORD1",
            "editable": false,
            "mutedNotes": [],
            "mutedChords": [],
            "autoStart": false,
            "sourceChordNote": 0,
            "sourceChordType": "Maj7",
            "ctb2Low": null,
            "ctb2Main": {
              "ntr": "ROOT_FIXED",
              "ntt": "CHORD",
              "bassOn": false,
              "chordRootUpperLimit": 7,
              "noteLowLimit": 0,
              "noteHighLimit": 127,
              "rtr": "PITCH_SHIFT"
            },
            "ctb2High": null
          },
          "notes": [
            {
              "pitch": 55,
              "velocity": 115,
              "position": 0,
              "duration": 0.9895833333333334
            },
            {
              "pitch": 64,
              "velocity": 115,
              "position": 0.020833333333333332,
              "duration": 0.96875
            },
            {
              "pitch": 59,
              "velocity": 115,
              "position": 0.010416666666666666,
              "duration": 0.98125
            },
            {
              "pitch": 64,
              "velocity": 116,
              "position": 1,
              "duration": 0.9895833333333334
            },
            {
              "pitch": 55,
              "velocity": 116,
              "position": 1.0208333333333333,
              "duration": 0.96875
            },
            {
              "pitch": 59,
              "velocity": 116,
              "position": 1.0104166666666667,
              "duration": 0.98125
            },
            {
              "pitch": 55,
              "velocity": 115,
              "position": 2,
              "duration": 0.65625
            },
            {
              "pitch": 64,
              "velocity": 115,
              "position": 2.0208333333333335,
              "duration": 0.6354166666666666
            },
            {
              "pitch": 59,
              "velocity": 115,
              "position": 2.0104166666666665,
              "duration": 0.6479166666666667
            },
            {
              "pitch": 64,
              "velocity": 89,
              "position": 2.6666666666666665,
              "duration": 0.3229166666666667
            },
            {
              "pitch": 55,
              "velocity": 89,
              "position": 2.6875,
              "duration": 0.3020833333333333
            },
            {
              "pitch": 59,
              "velocity": 89,
              "position": 2.6770833333333335,
              "duration": 0.3145833333333333
            },
            {
              "pitch": 55,
              "velocity": 116,
              "position": 3,
              "duration": 0.65625
            },
            {
              "pitch": 64,
              "velocity": 116,
              "position": 3.0208333333333335,
              "duration": 0.6354166666666666
            },
            {
              "pitch": 59,
              "velocity": 116,
              "position": 3.0104166666666665,
              "duration": 0.6479166666666667
            },
            {
              "pitch": 64,
              "velocity": 89,
              "position": 3.6666666666666665,
              "duration": 0.3229166666666667
            },
            {
              "pitch": 55,
              "velocity": 89,
              "position": 3.6875,
              "duration": 0.3020833333333333
            },
            {
              "pitch": 59,
              "velocity": 89,
              "position": 3.6770833333333335,
              "duration": 0.3145833333333333
            },
            {
              "pitch": 55,
              "velocity": 115,
              "position": 4,
              "duration": 0.9895833333333334
            },
            {
              "pitch": 64,
              "velocity": 115,
              "position": 4.020833333333333,
              "duration": 0.96875
            },
            {
              "pitch": 59,
              "velocity": 115,
              "position": 4.010416666666667,
              "duration": 0.98125
            },
            {
              "pitch": 64,
              "velocity": 116,
              "position": 5,
              "duration": 0.65625
            },
            {
              "pitch": 55,
              "velocity": 116,
              "position": 5.020833333333333,
              "duration": 0.6354166666666666
            },
            {
              "pitch": 59,
              "velocity": 116,
              "position": 5.010416666666667,
              "duration": 0.6479166666666667
            },
            {
              "pitch": 55,
              "velocity": 84,
              "position": 5.666666666666667,
              "duration": 0.3229166666666667
            },
            {
              "pitch": 64,
              "velocity": 84,
              "position": 5.6875,
              "duration": 0.3020833333333333
            },
            {
              "pitch": 59,
              "velocity": 84,
              "position": 5.677083333333333,
              "duration": 0.3145833333333333
            },
            {
              "pitch": 64,
              "velocity": 115,
              "position": 6,
              "duration": 0.65625
            },
            {
              "pitch": 55,
              "velocity": 115,
              "position": 6.020833333333333,
              "duration": 0.6354166666666666
            },
            {
              "pitch": 59,
              "velocity": 115,
              "position": 6.010416666666667,
              "duration": 0.6479166666666667
            },
            {
              "pitch": 55,
              "velocity": 89,
              "position": 6.666666666666667,
              "duration": 0.3229166666666667
            },
            {
              "pitch": 64,
              "velocity": 89,
              "position": 6.6875,
              "duration": 0.3020833333333333
            },
            {
              "pitch": 59,
              "velocity": 89,
              "position": 6.677083333333333,
              "duration": 0.3145833333333333
            },
            {
              "pitch": 64,
              "velocity": 116,
              "position": 7,
              "duration": 0.65625
            },
            {
              "pitch": 55,
              "velocity": 116,
              "position": 7.020833333333333,
              "duration": 0.6354166666666666
            },
            {
              "pitch": 59,
              "velocity": 116,
              "position": 7.010416666666667,
              "duration": 0.6479166666666667
            },
            {
              "pitch": 55,
              "velocity": 89,
              "position": 7.666666666666667,
              "duration": 0.3229166666666667
            },
            {
              "pitch": 64,
              "velocity": 89,
              "position": 7.6875,
              "duration": 0.3020833333333333
            },
            {
              "pitch": 59,
              "velocity": 89,
              "position": 7.677083333333333,
              "duration": 0.3145833333333333
            }
          ]
        },
        "12": {
          "ctab": {
            "srcChannel": 12,
            "name": "ClGt",
            "accType": "CHORD2",
            "editable": false,
            "mutedNotes": [],
            "mutedChords": [],
            "autoStart": false,
            "sourceChordNote": 0,
            "sourceChordType": "Maj7",
            "ctb2Low": null,
            "ctb2Main": {
              "ntr": "ROOT_FIXED",
              "ntt": "CHORD",
              "bassOn": false,
              "chordRootUpperLimit": 7,
              "noteLowLimit": 0,
              "noteHighLimit": 127,
              "rtr": "PITCH_SHIFT"
            },
            "ctb2High": null
          },
          "notes": []
        },
        "13": {
          "ctab": {
            "srcChannel": 13,
            "name": "PedSt",
            "accType": "PHRASE1",
            "editable": false,
            "mutedNotes": [],
            "mutedChords": [],
            "autoStart": false,
            "sourceChordNote": 0,
            "sourceChordType": "Maj7",
            "ctb2Low": null,
            "ctb2Main": {
              "ntr": "ROOT_TRANSPOSITION",
              "ntt": "CHORD",
              "bassOn": false,
              "chordRootUpperLimit": 7,
              "noteLowLimit": 59,
              "noteHighLimit": 70,
              "rtr": "PITCH_SHIFT"
            },
            "ctb2High": null
          },
          "notes": []
        }
      }
    },
    "Main_C": {
      "type": "Main_C",
      "sizeInBeats": 8,
      "channels": {
        "1": {
          "ctab": {
            "srcChannel": 1,
            "name": "HiStrFX",
            "accType": "CHORD1",
            "editable": false,
            "mutedNotes": [],
            "mutedChords": [],
            "autoStart": false,
            "sourceChordNote": 0,
            "sourceChordType": "Maj7",
            "ctb2Low": null,
            "ctb2Main": {
              "ntr": "ROOT_FIXED",
              "ntt": "BYPASS",
              "bassOn": false,
              "chordRootUpperLimit": 7,
              "noteLowLimit": 0,
              "noteHighLimit": 79,
              "rtr": "PITCH_SHIFT"
            },
            "ctb2High": null
          },
          "notes": [
            {
              "pitch": 98,
              "velocity": 99,
              "position": 0,
              "duration": 0.23958333333333334
            },
            {
              "pitch": 99,
              "velocity": 89,
              "position": 0.6666666666666666,
              "duration": 0.23958333333333334
            },
            {
              "pitch": 100,
              "velocity": 99,
              "position": 1,
              "duration": 0.23958333333333334
            },
            {
              "pitch": 99,
              "velocity": 89,
              "position": 1.6666666666666667,
              "duration": 0.23958333333333334
            },
            {
              "pitch": 99,
              "velocity": 89,
              "position": 2.6666666666666665,
              "duration": 0.23958333333333334
            },
            {
              "pitch": 100,
              "velocity": 99,
              "position": 3,
              "duration": 0.23958333333333334
            },
            {
              "pitch": 99,
              "velocity": 89,
              "position": 3.6666666666666665,
              "duration": 0.23958333333333334
            },
            {
              "pitch": 98,
              "velocity": 99,
              "position": 4,
              "duration": 0.23958333333333334
            },
            {
              "pitch": 99,
              "velocity": 89,
              "position": 4.666666666666667,
              "duration": 0.23958333333333334
            },
            {
              "pitch": 100,
              "velocity": 99,
              "position": 5,
              "duration": 0.23958333333333334
            },
            {
              "pitch": 99,
              "velocity": 89,
              "position": 5.666666666666667,
              "duration": 0.23958333333333334
            },
            {
              "pitch": 99,
              "velocity": 89,
              "position": 6.666666666666667,
              "duration": 0.23958333333333334
            },
            {
              "pitch": 100,
              "velocity": 99,
              "position": 7,
              "duration": 0.23958333333333334
            },
            {
              "pitch": 99,
              "velocity": 89,
              "position": 7.666666666666667,
              "duration": 0.23958333333333334
            }
          ]
        },
        "2": {
          "ctab": {
            "srcChannel": 2,
            "name": "12StRoot",
            "accType": "CHORD1",
            "editable": false,
            "mutedNotes": [],
            "mutedChords": [
              "1+2+5",
              "sus4",
              "1+5",
              "1+8",
              "Maj7aug",
              "dim",
              "minMaj7(9)",
              "minMaj7",
              "min6",
              "min",
              "aug",
              "Maj7(9)",
              "Maj7#11",
              "Maj7",
              "Maj6",
              "Maj"
            ],
            "autoStart": false,
            "sourceChordNote": 0,
            "sourceChordType": "Maj7",
            "ctb2Low": null,
            "ctb2Main": {
              "ntr": "ROOT_TRANSPOSITION",
              "ntt": "CHORD",
              "bassOn": false,
              "chordRootUpperLimit": 6,
              "noteLowLimit": 0,
              "noteHighLimit": 127,
              "rtr": "PITCH_SHIFT"
            },
            "ctb2High": null
          },
          "notes": [
            {
              "pitch": 60,
              "velocity": 100,
              "position": 0,
              "duration": 0.6479166666666667
            },
            {
              "pitch": 60,
              "velocity": 74,
              "position": 0.6666666666666666,
              "duration": 0.3145833333333333
            },
            {
              "pitch": 60,
              "velocity": 101,
              "position": 1,
              "duration": 0.6479166666666667
            },
            {
              "pitch": 60,
              "velocity": 100,
              "position": 1.6666666666666667,
              "duration": 0.98125
            },
            {
              "pitch": 60,
              "velocity": 74,
              "position": 2.6666666666666665,
              "duration": 0.3145833333333333
            },
            {
              "pitch": 60,
              "velocity": 101,
              "position": 3,
              "duration": 0.6479166666666667
            },
            {
              "pitch": 60,
              "velocity": 72,
              "position": 3.6666666666666665,
              "duration": 0.3145833333333333
            },
            {
              "pitch": 60,
              "velocity": 100,
              "position": 4,
              "duration": 0.6479166666666667
            },
            {
              "pitch": 60,
              "velocity": 74,
              "position": 4.666666666666667,
              "duration": 0.3145833333333333
            },
            {
              "pitch": 60,
              "velocity": 101,
              "position": 5,
              "duration": 0.6479166666666667
            },
            {
              "pitch": 60,
              "velocity": 100,
              "position": 5.666666666666667,
              "duration": 0.98125
            },
            {
              "pitch": 60,
              "velocity": 74,
              "position": 6.666666666666667,
              "duration": 0.3145833333333333
            },
            {
              "pitch": 60,
              "velocity": 101,
              "position": 7,
              "duration": 0.6479166666666667
            },
            {
              "pitch": 60,
              "velocity": 72,
              "position": 7.666666666666667,
              "duration": 0.3145833333333333
            }
          ]
        },
        "4": {
          "ctab": {
            "srcChannel": 4,
            "name": "Ped Root",
            "accType": "PHRASE1",
            "editable": false,
            "mutedNotes": [],
            "mutedChords": [
              "1+2+5",
              "sus4",
              "1+5",
              "1+8",
              "Maj7aug",
              "dim",
              "minMaj7(9)",
              "minMaj7",
              "min6",
              "min",
              "aug",
              "Maj7(9)",
              "Maj7#11",
              "Maj7",
              "Maj6",
              "Maj"
            ],
            "autoStart": false,
            "sourceChordNote": 0,
            "sourceChordType": "Maj7",
            "ctb2Low": null,
            "ctb2Main": {
              "ntr": "ROOT_TRANSPOSITION",
              "ntt": "CHORD",
              "bassOn": false,
              "chordRootUpperLimit": 10,
              "noteLowLimit": 0,
              "noteHighLimit": 127,
              "rtr": "PITCH_SHIFT"
            },
            "ctb2High": null
          },
          "notes": []
        },
        "7": {
          "ctab": {
            "srcChannel": 7,
            "name": "CC_Crash",
            "accType": "RHYTHM",
            "editable": false,
            "mutedNotes": [],
            "mutedChords": [
              "1+2+5",
              "sus4",
              "1+5",
              "1+8",
              "7aug",
              "Maj7aug",
              "7(#9)",
              "7(b13)",
              "7(b9)",
              "7(13)",
              "7#11",
              "7(9)",
              "7b5",
              "7sus4",
              "7th",
              "dim7",
              "dim",
              "minMaj7(9)",
              "minMaj7",
              "min7(11)",
              "min7(9)",
              "min(9)",
              "m7b5",
              "min7",
              "min6",
              "min",
              "aug",
              "Maj6(9)",
              "Maj7(9)",
              "Maj(9)",
              "Maj7#11",
              "Maj7",
              "Maj6",
              "Maj"
            ],
            "autoStart": true,
            "sourceChordNote": 0,
            "sourceChordType": "Maj",
            "ctb2Low": null,
            "ctb2Main": {
              "ntr": "ROOT_FIXED",
              "ntt": "BYPASS",
              "bassOn": false,
              "chordRootUpperLimit": 0,
              "noteLowLimit": 0,
              "noteHighLimit": 127,
              "rtr": "RETRIGGER"
            },
            "ctb2High": null
          },
          "notes": []
        },
        "8": {
          "ctab": {
            "srcChannel": 8,
            "name": "Perc",
            "accType": "SUBRHYTHM",
            "editable": false,
            "mutedNotes": [],
            "mutedChords": [],
            "autoStart": true,
            "sourceChordNote": 0,
            "sourceChordType": "Maj7",
            "ctb2Low": null,
            "ctb2Main": {
              "ntr": "ROOT_FIXED",
              "ntt": "BYPASS",
              "bassOn": false,
              "chordRootUpperLimit": 6,
              "noteLowLimit": 0,
              "noteHighLimit": 127,
              "rtr": "PITCH_SHIFT"
            },
            "ctb2High": null
          },
          "notes": [
            {
              "pitch": 54,
              "velocity": 89,
              "position": 1,
              "duration": 0.010416666666666666
            },
            {
              "pitch": 54,
              "velocity": 91,
              "position": 3,
              "duration": 0.010416666666666666
            },
            {
              "pitch": 54,
              "velocity": 91,
              "position": 5,
              "duration": 0.010416666666666666
            },
            {
              "pitch": 54,
              "velocity": 98,
              "position": 7,
              "duration": 0.010416666666666666
            }
          ]
        },
        "9": {
          "ctab": {
            "srcChannel": 9,
            "name": "Drs",
            "accType": "RHYTHM",
            "editable": false,
            "mutedNotes": [],
            "mutedChords": [],
            "autoStart": true,
            "sourceChordNote": 0,
            "sourceChordType": "Maj7",
            "ctb2Low": null,
            "ctb2Main": {
              "ntr": "ROOT_FIXED",
              "ntt": "BYPASS",
              "bassOn": false,
              "chordRootUpperLimit": 6,
              "noteLowLimit": 0,
              "noteHighLimit": 127,
              "rtr": "PITCH_SHIFT"
            },
            "ctb2High": null
          },
          "notes": [
            {
              "pitch": 36,
              "velocity": 79,
              "position": 0,
              "duration": 0.010416666666666666
            },
            {
              "pitch": 53,
              "velocity": 66,
              "position": 0,
              "duration": 0.010416666666666666
            },
            {
              "pitch": 31,
              "velocity": 110,
              "position": 1,
              "duration": 0.010416666666666666
            },
            {
              "pitch": 44,
              "velocity": 60,
              "position": 1,
              "duration": 0.010416666666666666
            },
            {
              "pitch": 53,
              "velocity": 58,
              "position": 1,
              "duration": 0.010416666666666666
            },
            {
              "pitch": 36,
              "velocity": 51,
              "position": 1.6666666666666667,
              "duration": 0.010416666666666666
            },
            {
              "pitch": 36,
              "velocity": 79,
              "position": 2,
              "duration": 0.010416666666666666
            },
            {
              "pitch": 53,
              "velocity": 64,
              "position": 2,
              "duration": 0.010416666666666666
            },
            {
              "pitch": 31,
              "velocity": 110,
              "position": 3,
              "duration": 0.010416666666666666
            },
            {
              "pitch": 44,
              "velocity": 60,
              "position": 3,
              "duration": 0.010416666666666666
            },
            {
              "pitch": 53,
              "velocity": 58,
              "position": 3,
              "duration": 0.010416666666666666
            },
            {
              "pitch": 51,
              "velocity": 40,
              "position": 3.6666666666666665,
              "duration": 0.010416666666666666
            },
            {
              "pitch": 36,
              "velocity": 79,
              "position": 4,
              "duration": 0.010416666666666666
            },
            {
              "pitch": 53,
              "velocity": 64,
              "position": 4,
              "duration": 0.010416666666666666
            },
            {
              "pitch": 31,
              "velocity": 110,
              "position": 5,
              "duration": 0.010416666666666666
            },
            {
              "pitch": 44,
              "velocity": 60,
              "position": 5,
              "duration": 0.010416666666666666
            },
            {
              "pitch": 53,
              "velocity": 58,
              "position": 5,
              "duration": 0.010416666666666666
            },
            {
              "pitch": 36,
              "velocity": 51,
              "position": 5.666666666666667,
              "duration": 0.010416666666666666
            },
            {
              "pitch": 36,
              "velocity": 79,
              "position": 6,
              "duration": 0.010416666666666666
            },
            {
              "pitch": 53,
              "velocity": 64,
              "position": 6,
              "duration": 0.010416666666666666
            },
            {
              "pitch": 31,
              "velocity": 110,
              "position": 7,
              "duration": 0.010416666666666666
            },
            {
              "pitch": 44,
              "velocity": 60,
              "position": 7,
              "duration": 0.010416666666666666
            },
            {
              "pitch": 53,
              "velocity": 58,
              "position": 7,
              "duration": 0.010416666666666666
            },
            {
              "pitch": 51,
              "velocity": 40,
              "position": 7.666666666666667,
              "duration": 0.010416666666666666
            }
          ]
        },
        "10": {
          "ctab": {
            "srcChannel": 10,
            "name": "Bass",
            "accType": "BASS",
            "editable": false,
            "mutedNotes": [],
            "mutedChords": [],
            "autoStart": false,
            "sourceChordNote": 0,
            "sourceChordType": "Maj7",
            "ctb2Low": null,
            "ctb2Main": {
              "ntr": "ROOT_TRANSPOSITION",
              "ntt": "MELODY",
              "bassOn": true,
              "chordRootUpperLimit": 8,
              "noteLowLimit": 28,
              "noteHighLimit": 127,
              "rtr": "PITCH_SHIFT_TO_ROOT"
            },
            "ctb2High": null
          },
          "notes": [
            {
              "pitch": 24,
              "velocity": 60,
              "position": 0,
              "duration": 0.9895833333333334
            },
            {
              "pitch": 24,
              "velocity": 99,
              "position": 1,
              "duration": 0.325
            },
            {
              "pitch": 24,
              "velocity": 56,
              "position": 1.6666666666666667,
              "duration": 0.325
            },
            {
              "pitch": 31,
              "velocity": 60,
              "position": 2,
              "duration": 0.9895833333333334
            },
            {
              "pitch": 31,
              "velocity": 60,
              "position": 3,
              "duration": 0.9895833333333334
            },
            {
              "pitch": 24,
              "velocity": 60,
              "position": 4,
              "duration": 0.9895833333333334
            },
            {
              "pitch": 24,
              "velocity": 100,
              "position": 5,
              "duration": 0.325
            },
            {
              "pitch": 24,
              "velocity": 56,
              "position": 5.666666666666667,
              "duration": 0.325
            },
            {
              "pitch": 31,
              "velocity": 56,
              "position": 7.666666666666667,
              "duration": 0.325
            }
          ]
        },
        "11": {
          "ctab": {
            "srcChannel": 11,
            "name": "HiStrMg",
            "accType": "CHORD1",
            "editable": false,
            "mutedNotes": [],
            "mutedChords": [],
            "autoStart": false,
            "sourceChordNote": 0,
            "sourceChordType": "Maj7",
            "ctb2Low": null,
            "ctb2Main": {
              "ntr": "ROOT_FIXED",
              "ntt": "CHORD",
              "bassOn": false,
              "chordRootUpperLimit": 7,
              "noteLowLimit": 0,
              "noteHighLimit": 127,
              "rtr": "PITCH_SHIFT"
            },
            "ctb2High": null
          },
          "notes": [
            {
              "pitch": 55,
              "velocity": 115,
              "position": 0,
              "duration": 0.6583333333333333
            },
            {
              "pitch": 59,
              "velocity": 115,
              "position": 0.010416666666666666,
              "duration": 0.6479166666666667
            },
            {
              "pitch": 64,
              "velocity": 115,
              "position": 0.020833333333333332,
              "duration": 0.6375
            },
            {
              "pitch": 64,
              "velocity": 89,
              "position": 0.6666666666666666,
              "duration": 0.325
            },
            {
              "pitch": 59,
              "velocity": 89,
              "position": 0.6770833333333334,
              "duration": 0.3145833333333333
            },
            {
              "pitch": 55,
              "velocity": 89,
              "position": 0.6875,
              "duration": 0.30416666666666664
            },
            {
              "pitch": 55,
              "velocity": 116,
              "position": 1,
              "duration": 0.6583333333333333
            },
            {
              "pitch": 59,
              "velocity": 116,
              "position": 1.0104166666666667,
              "duration": 0.6479166666666667
            },
            {
              "pitch": 64,
              "velocity": 116,
              "position": 1.0208333333333333,
              "duration": 0.6375
            },
            {
              "pitch": 64,
              "velocity": 115,
              "position": 1.6666666666666667,
              "duration": 0.9916666666666667
            },
            {
              "pitch": 59,
              "velocity": 115,
              "position": 1.6770833333333333,
              "duration": 0.98125
            },
            {
              "pitch": 55,
              "velocity": 115,
              "position": 1.6875,
              "duration": 0.9708333333333333
            },
            {
              "pitch": 55,
              "velocity": 89,
              "position": 2.6666666666666665,
              "duration": 0.325
            },
            {
              "pitch": 59,
              "velocity": 89,
              "position": 2.6770833333333335,
              "duration": 0.3145833333333333
            },
            {
              "pitch": 64,
              "velocity": 89,
              "position": 2.6875,
              "duration": 0.30416666666666664
            },
            {
              "pitch": 64,
              "velocity": 116,
              "position": 3,
              "duration": 0.6583333333333333
            },
            {
              "pitch": 59,
              "velocity": 116,
              "position": 3.0104166666666665,
              "duration": 0.6479166666666667
            },
            {
              "pitch": 55,
              "velocity": 116,
              "position": 3.0208333333333335,
              "duration": 0.6375
            },
            {
              "pitch": 55,
              "velocity": 87,
              "position": 3.6666666666666665,
              "duration": 0.325
            },
            {
              "pitch": 59,
              "velocity": 87,
              "position": 3.6770833333333335,
              "duration": 0.3145833333333333
            },
            {
              "pitch": 64,
              "velocity": 91,
              "position": 3.6875,
              "duration": 0.30416666666666664
            },
            {
              "pitch": 55,
              "velocity": 115,
              "position": 4,
              "duration": 0.6583333333333333
            },
            {
              "pitch": 59,
              "velocity": 115,
              "position": 4.010416666666667,
              "duration": 0.6479166666666667
            },
            {
              "pitch": 64,
              "velocity": 115,
              "position": 4.020833333333333,
              "duration": 0.6375
            },
            {
              "pitch": 64,
              "velocity": 89,
              "position": 4.666666666666667,
              "duration": 0.325
            },
            {
              "pitch": 59,
              "velocity": 89,
              "position": 4.677083333333333,
              "duration": 0.3145833333333333
            },
            {
              "pitch": 55,
              "velocity": 89,
              "position": 4.6875,
              "duration": 0.30416666666666664
            },
            {
              "pitch": 55,
              "velocity": 116,
              "position": 5,
              "duration": 0.6583333333333333
            },
            {
              "pitch": 59,
              "velocity": 116,
              "position": 5.010416666666667,
              "duration": 0.6479166666666667
            },
            {
              "pitch": 64,
              "velocity": 116,
              "position": 5.020833333333333,
              "duration": 0.6375
            },
            {
              "pitch": 64,
              "velocity": 115,
              "position": 5.666666666666667,
              "duration": 0.9916666666666667
            },
            {
              "pitch": 59,
              "velocity": 115,
              "position": 5.677083333333333,
              "duration": 0.98125
            },
            {
              "pitch": 55,
              "velocity": 115,
              "position": 5.6875,
              "duration": 0.9708333333333333
            },
            {
              "pitch": 55,
              "velocity": 89,
              "position": 6.666666666666667,
              "duration": 0.325
            },
            {
              "pitch": 59,
              "velocity": 89,
              "position": 6.677083333333333,
              "duration": 0.3145833333333333
            },
            {
              "pitch": 64,
              "velocity": 89,
              "position": 6.6875,
              "duration": 0.30416666666666664
            },
            {
              "pitch": 64,
              "velocity": 116,
              "position": 7,
              "duration": 0.6583333333333333
            },
            {
              "pitch": 59,
              "velocity": 116,
              "position": 7.010416666666667,
              "duration": 0.6479166666666667
            },
            {
              "pitch": 55,
              "velocity": 116,
              "position": 7.020833333333333,
              "duration": 0.6375
            },
            {
              "pitch": 55,
              "velocity": 87,
              "position": 7.666666666666667,
              "duration": 0.325
            },
            {
              "pitch": 59,
              "velocity": 87,
              "position": 7.677083333333333,
              "duration": 0.3145833333333333
            },
            {
              "pitch": 64,
              "velocity": 91,
              "position": 7.6875,
              "duration": 0.30416666666666664
            }
          ]
        },
        "12": {
          "ctab": {
            "srcChannel": 12,
            "name": "ClGt",
            "accType": "CHORD2",
            "editable": false,
            "mutedNotes": [],
            "mutedChords": [],
            "autoStart": false,
            "sourceChordNote": 0,
            "sourceChordType": "Maj7",
            "ctb2Low": null,
            "ctb2Main": {
              "ntr": "ROOT_FIXED",
              "ntt": "CHORD",
              "bassOn": false,
              "chordRootUpperLimit": 7,
              "noteLowLimit": 0,
              "noteHighLimit": 127,
              "rtr": "PITCH_SHIFT"
            },
            "ctb2High": null
          },
          "notes": [
            {
              "pitch": 55,
              "velocity": 57,
              "position": 0,
              "duration": 0.9895833333333334
            },
            {
              "pitch": 59,
              "velocity": 57,
              "position": 0.020833333333333332,
              "duration": 1.6354166666666667
            },
            {
              "pitch": 64,
              "velocity": 66,
              "position": 0.041666666666666664,
              "duration": 2.6145833333333335
            },
            {
              "pitch": 55,
              "velocity": 48,
              "position": 1,
              "duration": 1.9895833333333333
            },
            {
              "pitch": 64,
              "velocity": 66,
              "position": 2.6666666666666665,
              "duration": 1.3229166666666667
            },
            {
              "pitch": 55,
              "velocity": 57,
              "position": 3,
              "duration": 1.9895833333333333
            },
            {
              "pitch": 59,
              "velocity": 66,
              "position": 1.6666666666666667,
              "duration": 3.9895833333333335
            },
            {
              "pitch": 55,
              "velocity": 48,
              "position": 5,
              "duration": 2.9895833333333335
            },
            {
              "pitch": 59,
              "velocity": 66,
              "position": 5.666666666666667,
              "duration": 2.3229166666666665
            },
            {
              "pitch": 64,
              "velocity": 66,
              "position": 4,
              "duration": 3.9895833333333335
            }
          ]
        },
        "13": {
          "ctab": {
            "srcChannel": 13,
            "name": "PedSt",
            "accType": "PHRASE1",
            "editable": false,
            "mutedNotes": [],
            "mutedChords": [],
            "autoStart": false,
            "sourceChordNote": 0,
            "sourceChordType": "Maj7",
            "ctb2Low": null,
            "ctb2Main": {
              "ntr": "ROOT_TRANSPOSITION",
              "ntt": "CHORD",
              "bassOn": false,
              "chordRootUpperLimit": 7,
              "noteLowLimit": 59,
              "noteHighLimit": 70,
              "rtr": "PITCH_SHIFT"
            },
            "ctb2High": null
          },
          "notes": []
        }
      }
    },
    "Main_D": {
      "type": "Main_D",
      "sizeInBeats": 8,
      "channels": {
        "1": {
          "ctab": {
            "srcChannel": 1,
            "name": "HiStrFX",
            "accType": "CHORD1",
            "editable": false,
            "mutedNotes": [],
            "mutedChords": [],
            "autoStart": false,
            "sourceChordNote": 0,
            "sourceChordType": "Maj7",
            "ctb2Low": null,
            "ctb2Main": {
              "ntr": "ROOT_FIXED",
              "ntt": "BYPASS",
              "bassOn": false,
              "chordRootUpperLimit": 7,
              "noteLowLimit": 0,
              "noteHighLimit": 79,
              "rtr": "PITCH_SHIFT"
            },
            "ctb2High": null
          },
          "notes": [
            {
              "pitch": 98,
              "velocity": 106,
              "position": 0,
              "duration": 0.23958333333333334
            },
            {
              "pitch": 99,
              "velocity": 91,
              "position": 0.6666666666666666,
              "duration": 0.23958333333333334
            },
            {
              "pitch": 100,
              "velocity": 103,
              "position": 1,
              "duration": 0.23958333333333334
            },
            {
              "pitch": 99,
              "velocity": 91,
              "position": 1.6666666666666667,
              "duration": 0.23958333333333334
            },
            {
              "pitch": 98,
              "velocity": 106,
              "position": 2,
              "duration": 0.23958333333333334
            },
            {
              "pitch": 99,
              "velocity": 91,
              "position": 2.6666666666666665,
              "duration": 0.23958333333333334
            },
            {
              "pitch": 100,
              "velocity": 103,
              "position": 3,
              "duration": 0.23958333333333334
            },
            {
              "pitch": 99,
              "velocity": 91,
              "position": 3.6666666666666665,
              "duration": 0.23958333333333334
            },
            {
              "pitch": 98,
              "velocity": 106,
              "position": 4,
              "duration": 0.23958333333333334
            },
            {
              "pitch": 99,
              "velocity": 91,
              "position": 4.666666666666667,
              "duration": 0.23958333333333334
            },
            {
              "pitch": 100,
              "velocity": 103,
              "position": 5,
              "duration": 0.23958333333333334
            },
            {
              "pitch": 99,
              "velocity": 91,
              "position": 5.666666666666667,
              "duration": 0.23958333333333334
            },
            {
              "pitch": 98,
              "velocity": 106,
              "position": 6,
              "duration": 0.23958333333333334
            },
            {
              "pitch": 99,
              "velocity": 91,
              "position": 6.666666666666667,
              "duration": 0.23958333333333334
            },
            {
              "pitch": 100,
              "velocity": 103,
              "position": 7,
              "duration": 0.23958333333333334
            },
            {
              "pitch": 99,
              "velocity": 91,
              "position": 7.666666666666667,
              "duration": 0.23958333333333334
            }
          ]
        },
        "2": {
          "ctab": {
            "srcChannel": 2,
            "name": "12StRoot",
            "accType": "CHORD1",
            "editable": false,
            "mutedNotes": [],
            "mutedChords": [
              "1+2+5",
              "sus4",
              "1+5",
              "1+8",
              "Maj7aug",
              "dim",
              "minMaj7(9)",
              "minMaj7",
              "min6",
              "min",
              "aug",
              "Maj7(9)",
              "Maj7#11",
              "Maj7",
              "Maj6",
              "Maj"
            ],
            "autoStart": false,
            "sourceChordNote": 0,
            "sourceChordType": "Maj7",
            "ctb2Low": null,
            "ctb2Main": {
              "ntr": "ROOT_TRANSPOSITION",
              "ntt": "CHORD",
              "bassOn": false,
              "chordRootUpperLimit": 6,
              "noteLowLimit": 0,
              "noteHighLimit": 127,
              "rtr": "PITCH_SHIFT"
            },
            "ctb2High": null
          },
          "notes": [
            {
              "pitch": 60,
              "velocity": 100,
              "position": 0,
              "duration": 0.6458333333333334
            },
            {
              "pitch": 60,
              "velocity": 74,
              "position": 0.6666666666666666,
              "duration": 0.3125
            },
            {
              "pitch": 60,
              "velocity": 101,
              "position": 1,
              "duration": 0.6458333333333334
            },
            {
              "pitch": 60,
              "velocity": 74,
              "position": 1.6666666666666667,
              "duration": 0.3125
            },
            {
              "pitch": 60,
              "velocity": 100,
              "position": 2,
              "duration": 0.6458333333333334
            },
            {
              "pitch": 60,
              "velocity": 74,
              "position": 2.6666666666666665,
              "duration": 0.3125
            },
            {
              "pitch": 60,
              "velocity": 101,
              "position": 3,
              "duration": 0.6458333333333334
            },
            {
              "pitch": 60,
              "velocity": 74,
              "position": 3.6666666666666665,
              "duration": 0.3125
            },
            {
              "pitch": 60,
              "velocity": 100,
              "position": 4,
              "duration": 0.6458333333333334
            },
            {
              "pitch": 60,
              "velocity": 74,
              "position": 4.666666666666667,
              "duration": 0.3125
            },
            {
              "pitch": 60,
              "velocity": 101,
              "position": 5,
              "duration": 0.6458333333333334
            },
            {
              "pitch": 60,
              "velocity": 74,
              "position": 5.666666666666667,
              "duration": 0.3125
            },
            {
              "pitch": 60,
              "velocity": 100,
              "position": 6,
              "duration": 0.6458333333333334
            },
            {
              "pitch": 60,
              "velocity": 74,
              "position": 6.666666666666667,
              "duration": 0.3125
            },
            {
              "pitch": 60,
              "velocity": 101,
              "position": 7,
              "duration": 0.6458333333333334
            },
            {
              "pitch": 60,
              "velocity": 74,
              "position": 7.666666666666667,
              "duration": 0.3125
            }
          ]
        },
        "4": {
          "ctab": {
            "srcChannel": 4,
            "name": "Ped Root",
            "accType": "PHRASE1",
            "editable": false,
            "mutedNotes": [],
            "mutedChords": [
              "1+2+5",
              "sus4",
              "1+5",
              "1+8",
              "Maj7aug",
              "dim",
              "minMaj7(9)",
              "minMaj7",
              "min6",
              "min",
              "aug",
              "Maj7(9)",
              "Maj7#11",
              "Maj7",
              "Maj6",
              "Maj"
            ],
            "autoStart": false,
            "sourceChordNote": 0,
            "sourceChordType": "Maj7",
            "ctb2Low": null,
            "ctb2Main": {
              "ntr": "ROOT_TRANSPOSITION",
              "ntt": "CHORD",
              "bassOn": false,
              "chordRootUpperLimit": 10,
              "noteLowLimit": 0,
              "noteHighLimit": 127,
              "rtr": "PITCH_SHIFT"
            },
            "ctb2High": null
          },
          "notes": [
            {
              "pitch": 60,
              "velocity": 64,
              "position": 0,
              "duration": 6.489583333333333
            },
            {
              "pitch": 60,
              "velocity": 64,
              "position": 6.666666666666667,
              "duration": 0.3333333333333333
            }
          ]
        },
        "7": {
          "ctab": {
            "srcChannel": 7,
            "name": "CC_Crash",
            "accType": "RHYTHM",
            "editable": false,
            "mutedNotes": [],
            "mutedChords": [
              "1+2+5",
              "sus4",
              "1+5",
              "1+8",
              "7aug",
              "Maj7aug",
              "7(#9)",
              "7(b13)",
              "7(b9)",
              "7(13)",
              "7#11",
              "7(9)",
              "7b5",
              "7sus4",
              "7th",
              "dim7",
              "dim",
              "minMaj7(9)",
              "minMaj7",
              "min7(11)",
              "min7(9)",
              "min(9)",
              "m7b5",
              "min7",
              "min6",
              "min",
              "aug",
              "Maj6(9)",
              "Maj7(9)",
              "Maj(9)",
              "Maj7#11",
              "Maj7",
              "Maj6",
              "Maj"
            ],
            "autoStart": true,
            "sourceChordNote": 0,
            "sourceChordType": "Maj",
            "ctb2Low": null,
            "ctb2Main": {
              "ntr": "ROOT_FIXED",
              "ntt": "BYPASS",
              "bassOn": false,
              "chordRootUpperLimit": 0,
              "noteLowLimit": 0,
              "noteHighLimit": 127,
              "rtr": "RETRIGGER"
            },
            "ctb2High": null
          },
          "notes": []
        },
        "8": {
          "ctab": {
            "srcChannel": 8,
            "name": "Perc",
            "accType": "SUBRHYTHM",
            "editable": false,
            "mutedNotes": [],
            "mutedChords": [],
            "autoStart": true,
            "sourceChordNote": 0,
            "sourceChordType": "Maj7",
            "ctb2Low": null,
            "ctb2Main": {
              "ntr": "ROOT_FIXED",
              "ntt": "BYPASS",
              "bassOn": false,
              "chordRootUpperLimit": 6,
              "noteLowLimit": 0,
              "noteHighLimit": 127,
              "rtr": "PITCH_SHIFT"
            },
            "ctb2High": null
          },
          "notes": [
            {
              "pitch": 54,
              "velocity": 79,
              "position": 0,
              "duration": 0.010416666666666666
            },
            {
              "pitch": 54,
              "velocity": 38,
              "position": 0.6770833333333334,
              "duration": 0.010416666666666666
            },
            {
              "pitch": 54,
              "velocity": 124,
              "position": 1,
              "duration": 0.010416666666666666
            },
            {
              "pitch": 54,
              "velocity": 38,
              "position": 1.6770833333333333,
              "duration": 0.010416666666666666
            },
            {
              "pitch": 54,
              "velocity": 79,
              "position": 2,
              "duration": 0.010416666666666666
            },
            {
              "pitch": 54,
              "velocity": 38,
              "position": 2.6770833333333335,
              "duration": 0.010416666666666666
            },
            {
              "pitch": 54,
              "velocity": 124,
              "position": 3,
              "duration": 0.010416666666666666
            },
            {
              "pitch": 54,
              "velocity": 38,
              "position": 3.6770833333333335,
              "duration": 0.010416666666666666
            },
            {
              "pitch": 54,
              "velocity": 79,
              "position": 4,
              "duration": 0.010416666666666666
            },
            {
              "pitch": 54,
              "velocity": 38,
              "position": 4.677083333333333,
              "duration": 0.010416666666666666
            },
            {
              "pitch": 54,
              "velocity": 124,
              "position": 5,
              "duration": 0.010416666666666666
            },
            {
              "pitch": 54,
              "velocity": 38,
              "position": 5.677083333333333,
              "duration": 0.010416666666666666
            },
            {
              "pitch": 54,
              "velocity": 79,
              "position": 6,
              "duration": 0.010416666666666666
            },
            {
              "pitch": 54,
              "velocity": 38,
              "position": 6.677083333333333,
              "duration": 0.010416666666666666
            },
            {
              "pitch": 54,
              "velocity": 124,
              "position": 7,
              "duration": 0.010416666666666666
            },
            {
              "pitch": 54,
              "velocity": 38,
              "position": 7.677083333333333,
              "duration": 0.010416666666666666
            }
          ]
        },
        "9": {
          "ctab": {
            "srcChannel": 9,
            "name": "Drs",
            "accType": "RHYTHM",
            "editable": false,
            "mutedNotes": [],
            "mutedChords": [],
            "autoStart": true,
            "sourceChordNote": 0,
            "sourceChordType": "Maj7",
            "ctb2Low": null,
            "ctb2Main": {
              "ntr": "ROOT_FIXED",
              "ntt": "BYPASS",
              "bassOn": false,
              "chordRootUpperLimit": 6,
              "noteLowLimit": 0,
              "noteHighLimit": 127,
              "rtr": "PITCH_SHIFT"
            },
            "ctb2High": null
          },
          "notes": [
            {
              "pitch": 36,
              "velocity": 79,
              "position": 0,
              "duration": 0.010416666666666666
            },
            {
              "pitch": 59,
              "velocity": 60,
              "position": 0,
              "duration": 0.010416666666666666
            },
            {
              "pitch": 31,
              "velocity": 30,
              "position": 0.6666666666666666,
              "duration": 0.010416666666666666
            },
            {
              "pitch": 59,
              "velocity": 26,
              "position": 0.6666666666666666,
              "duration": 0.010416666666666666
            },
            {
              "pitch": 31,
              "velocity": 110,
              "position": 1,
              "duration": 0.010416666666666666
            },
            {
              "pitch": 44,
              "velocity": 60,
              "position": 1,
              "duration": 0.010416666666666666
            },
            {
              "pitch": 59,
              "velocity": 60,
              "position": 1,
              "duration": 0.010416666666666666
            },
            {
              "pitch": 31,
              "velocity": 30,
              "position": 1.6666666666666667,
              "duration": 0.010416666666666666
            },
            {
              "pitch": 36,
              "velocity": 51,
              "position": 1.6666666666666667,
              "duration": 0.010416666666666666
            },
            {
              "pitch": 59,
              "velocity": 26,
              "position": 1.6666666666666667,
              "duration": 0.010416666666666666
            },
            {
              "pitch": 36,
              "velocity": 79,
              "position": 2,
              "duration": 0.010416666666666666
            },
            {
              "pitch": 59,
              "velocity": 60,
              "position": 2,
              "duration": 0.010416666666666666
            },
            {
              "pitch": 31,
              "velocity": 30,
              "position": 2.6666666666666665,
              "duration": 0.010416666666666666
            },
            {
              "pitch": 59,
              "velocity": 26,
              "position": 2.6666666666666665,
              "duration": 0.010416666666666666
            },
            {
              "pitch": 31,
              "velocity": 110,
              "position": 3,
              "duration": 0.010416666666666666
            },
            {
              "pitch": 44,
              "velocity": 60,
              "position": 3,
              "duration": 0.010416666666666666
            },
            {
              "pitch": 59,
              "velocity": 60,
              "position": 3,
              "duration": 0.010416666666666666
            },
            {
              "pitch": 31,
              "velocity": 30,
              "position": 3.6666666666666665,
              "duration": 0.010416666666666666
            },
            {
              "pitch": 59,
              "velocity": 26,
              "position": 3.6666666666666665,
              "duration": 0.010416666666666666
            },
            {
              "pitch": 36,
              "velocity": 79,
              "position": 4,
              "duration": 0.010416666666666666
            },
            {
              "pitch": 59,
              "velocity": 60,
              "position": 4,
              "duration": 0.010416666666666666
            },
            {
              "pitch": 31,
              "velocity": 30,
              "position": 4.666666666666667,
              "duration": 0.010416666666666666
            },
            {
              "pitch": 59,
              "velocity": 26,
              "position": 4.666666666666667,
              "duration": 0.010416666666666666
            },
            {
              "pitch": 31,
              "velocity": 110,
              "position": 5,
              "duration": 0.010416666666666666
            },
            {
              "pitch": 44,
              "velocity": 60,
              "position": 5,
              "duration": 0.010416666666666666
            },
            {
              "pitch": 59,
              "velocity": 60,
              "position": 5,
              "duration": 0.010416666666666666
            },
            {
              "pitch": 31,
              "velocity": 30,
              "position": 5.666666666666667,
              "duration": 0.010416666666666666
            },
            {
              "pitch": 36,
              "velocity": 51,
              "position": 5.666666666666667,
              "duration": 0.010416666666666666
            },
            {
              "pitch": 59,
              "velocity": 26,
              "position": 5.666666666666667,
              "duration": 0.010416666666666666
            },
            {
              "pitch": 36,
              "velocity": 79,
              "position": 6,
              "duration": 0.010416666666666666
            },
            {
              "pitch": 59,
              "velocity": 60,
              "position": 6,
              "duration": 0.010416666666666666
            },
            {
              "pitch": 31,
              "velocity": 30,
              "position": 6.666666666666667,
              "duration": 0.010416666666666666
            },
            {
              "pitch": 59,
              "velocity": 26,
              "position": 6.666666666666667,
              "duration": 0.010416666666666666
            },
            {
              "pitch": 31,
              "velocity": 110,
              "position": 7,
              "duration": 0.010416666666666666
            },
            {
              "pitch": 44,
              "velocity": 60,
              "position": 7,
              "duration": 0.010416666666666666
            },
            {
              "pitch": 59,
              "velocity": 60,
              "position": 7,
              "duration": 0.010416666666666666
            },
            {
              "pitch": 31,
              "velocity": 30,
              "position": 7.666666666666667,
              "duration": 0.010416666666666666
            },
            {
              "pitch": 59,
              "velocity": 26,
              "position": 7.666666666666667,
              "duration": 0.010416666666666666
            }
          ]
        },
        "10": {
          "ctab": {
            "srcChannel": 10,
            "name": "Bass",
            "accType": "BASS",
            "editable": false,
            "mutedNotes": [],
            "mutedChords": [],
            "autoStart": false,
            "sourceChordNote": 0,
            "sourceChordType": "Maj7",
            "ctb2Low": null,
            "ctb2Main": {
              "ntr": "ROOT_TRANSPOSITION",
              "ntt": "MELODY",
              "bassOn": true,
              "chordRootUpperLimit": 8,
              "noteLowLimit": 28,
              "noteHighLimit": 127,
              "rtr": "PITCH_SHIFT_TO_ROOT"
            },
            "ctb2High": null
          },
          "notes": [
            {
              "pitch": 24,
              "velocity": 60,
              "position": 0,
              "duration": 0.9895833333333334
            },
            {
              "pitch": 24,
              "velocity": 102,
              "position": 1,
              "duration": 0.23958333333333334
            },
            {
              "pitch": 24,
              "velocity": 56,
              "position": 1.6666666666666667,
              "duration": 0.3229166666666667
            },
            {
              "pitch": 31,
              "velocity": 60,
              "position": 2,
              "duration": 0.9895833333333334
            },
            {
              "pitch": 31,
              "velocity": 102,
              "position": 3,
              "duration": 0.23958333333333334
            },
            {
              "pitch": 31,
              "velocity": 56,
              "position": 3.6666666666666665,
              "duration": 0.3229166666666667
            },
            {
              "pitch": 24,
              "velocity": 60,
              "position": 4,
              "duration": 0.9895833333333334
            },
            {
              "pitch": 24,
              "velocity": 102,
              "position": 5,
              "duration": 0.23958333333333334
            },
            {
              "pitch": 24,
              "velocity": 56,
              "position": 5.666666666666667,
              "duration": 0.3229166666666667
            },
            {
              "pitch": 31,
              "velocity": 60,
              "position": 6,
              "duration": 0.9895833333333334
            },
            {
              "pitch": 31,
              "velocity": 102,
              "position": 7,
              "duration": 0.23958333333333334
            },
            {
              "pitch": 31,
              "velocity": 56,
              "position": 7.666666666666667,
              "duration": 0.3229166666666667
            }
          ]
        },
        "11": {
          "ctab": {
            "srcChannel": 11,
            "name": "HiStrMg",
            "accType": "CHORD1",
            "editable": false,
            "mutedNotes": [],
            "mutedChords": [],
            "autoStart": false,
            "sourceChordNote": 0,
            "sourceChordType": "Maj7",
            "ctb2Low": null,
            "ctb2Main": {
              "ntr": "ROOT_FIXED",
              "ntt": "CHORD",
              "bassOn": false,
              "chordRootUpperLimit": 7,
              "noteLowLimit": 0,
              "noteHighLimit": 127,
              "rtr": "PITCH_SHIFT"
            },
            "ctb2High": null
          },
          "notes": [
            {
              "pitch": 55,
              "velocity": 115,
              "position": 0,
              "duration": 0.65625
            },
            {
              "pitch": 59,
              "velocity": 115,
              "position": 0.010416666666666666,
              "duration": 0.6458333333333334
            },
            {
              "pitch": 64,
              "velocity": 115,
              "position": 0.020833333333333332,
              "duration": 0.6354166666666666
            },
            {
              "pitch": 64,
              "velocity": 89,
              "position": 0.6666666666666666,
              "duration": 0.3229166666666667
            },
            {
              "pitch": 59,
              "velocity": 89,
              "position": 0.6770833333333334,
              "duration": 0.3125
            },
            {
              "pitch": 55,
              "velocity": 89,
              "position": 0.6875,
              "duration": 0.3020833333333333
            },
            {
              "pitch": 55,
              "velocity": 116,
              "position": 1,
              "duration": 0.65625
            },
            {
              "pitch": 59,
              "velocity": 116,
              "position": 1.0104166666666667,
              "duration": 0.6458333333333334
            },
            {
              "pitch": 64,
              "velocity": 116,
              "position": 1.0208333333333333,
              "duration": 0.6354166666666666
            },
            {
              "pitch": 64,
              "velocity": 89,
              "position": 1.6666666666666667,
              "duration": 0.3229166666666667
            },
            {
              "pitch": 59,
              "velocity": 89,
              "position": 1.6770833333333333,
              "duration": 0.3125
            },
            {
              "pitch": 55,
              "velocity": 89,
              "position": 1.6875,
              "duration": 0.3020833333333333
            },
            {
              "pitch": 55,
              "velocity": 115,
              "position": 2,
              "duration": 0.65625
            },
            {
              "pitch": 59,
              "velocity": 115,
              "position": 2.0104166666666665,
              "duration": 0.6458333333333334
            },
            {
              "pitch": 64,
              "velocity": 115,
              "position": 2.0208333333333335,
              "duration": 0.6354166666666666
            },
            {
              "pitch": 64,
              "velocity": 89,
              "position": 2.6666666666666665,
              "duration": 0.3229166666666667
            },
            {
              "pitch": 59,
              "velocity": 89,
              "position": 2.6770833333333335,
              "duration": 0.3125
            },
            {
              "pitch": 55,
              "velocity": 89,
              "position": 2.6875,
              "duration": 0.3020833333333333
            },
            {
              "pitch": 55,
              "velocity": 116,
              "position": 3,
              "duration": 0.65625
            },
            {
              "pitch": 59,
              "velocity": 116,
              "position": 3.0104166666666665,
              "duration": 0.6458333333333334
            },
            {
              "pitch": 64,
              "velocity": 116,
              "position": 3.0208333333333335,
              "duration": 0.6354166666666666
            },
            {
              "pitch": 64,
              "velocity": 89,
              "position": 3.6666666666666665,
              "duration": 0.3229166666666667
            },
            {
              "pitch": 59,
              "velocity": 89,
              "position": 3.6770833333333335,
              "duration": 0.3125
            },
            {
              "pitch": 55,
              "velocity": 89,
              "position": 3.6875,
              "duration": 0.3020833333333333
            },
            {
              "pitch": 55,
              "velocity": 115,
              "position": 4,
              "duration": 0.65625
            },
            {
              "pitch": 59,
              "velocity": 115,
              "position": 4.010416666666667,
              "duration": 0.6458333333333334
            },
            {
              "pitch": 64,
              "velocity": 115,
              "position": 4.020833333333333,
              "duration": 0.6354166666666666
            },
            {
              "pitch": 64,
              "velocity": 89,
              "position": 4.666666666666667,
              "duration": 0.3229166666666667
            },
            {
              "pitch": 59,
              "velocity": 89,
              "position": 4.677083333333333,
              "duration": 0.3125
            },
            {
              "pitch": 55,
              "velocity": 89,
              "position": 4.6875,
              "duration": 0.3020833333333333
            },
            {
              "pitch": 55,
              "velocity": 116,
              "position": 5,
              "duration": 0.65625
            },
            {
              "pitch": 59,
              "velocity": 116,
              "position": 5.010416666666667,
              "duration": 0.6458333333333334
            },
            {
              "pitch": 64,
              "velocity": 116,
              "position": 5.020833333333333,
              "duration": 0.6354166666666666
            },
            {
              "pitch": 64,
              "velocity": 89,
              "position": 5.666666666666667,
              "duration": 0.3229166666666667
            },
            {
              "pitch": 59,
              "velocity": 89,
              "position": 5.677083333333333,
              "duration": 0.3125
            },
            {
              "pitch": 55,
              "velocity": 89,
              "position": 5.6875,
              "duration": 0.3020833333333333
            },
            {
              "pitch": 55,
              "velocity": 115,
              "position": 6,
              "duration": 0.65625
            },
            {
              "pitch": 59,
              "velocity": 115,
              "position": 6.010416666666667,
              "duration": 0.6458333333333334
            },
            {
              "pitch": 64,
              "velocity": 115,
              "position": 6.020833333333333,
              "duration": 0.6354166666666666
            },
            {
              "pitch": 64,
              "velocity": 89,
              "position": 6.666666666666667,
              "duration": 0.3229166666666667
            },
            {
              "pitch": 59,
              "velocity": 89,
              "position": 6.677083333333333,
              "duration": 0.3125
            },
            {
              "pitch": 55,
              "velocity": 89,
              "position": 6.6875,
              "duration": 0.3020833333333333
            },
            {
              "pitch": 55,
              "velocity": 116,
              "position": 7,
              "duration": 0.65625
            },
            {
              "pitch": 59,
              "velocity": 116,
              "position": 7.010416666666667,
              "duration": 0.6458333333333334
            },
            {
              "pitch": 64,
              "velocity": 116,
              "position": 7.020833333333333,
              "duration": 0.6354166666666666
            },
            {
              "pitch": 64,
              "velocity": 89,
              "position": 7.666666666666667,
              "duration": 0.3229166666666667
            },
            {
              "pitch": 59,
              "velocity": 89,
              "position": 7.677083333333333,
              "duration": 0.3125
            },
            {
              "pitch": 55,
              "velocity": 89,
              "position": 7.6875,
              "duration": 0.3020833333333333
            }
          ]
        },
        "12": {
          "ctab": {
            "srcChannel": 12,
            "name": "ClGt",
            "accType": "CHORD2",
            "editable": false,
            "mutedNotes": [],
            "mutedChords": [],
            "autoStart": false,
            "sourceChordNote": 0,
            "sourceChordType": "Maj7",
            "ctb2Low": null,
            "ctb2Main": {
              "ntr": "ROOT_FIXED",
              "ntt": "CHORD",
              "bassOn": false,
              "chordRootUpperLimit": 7,
              "noteLowLimit": 0,
              "noteHighLimit": 127,
              "rtr": "PITCH_SHIFT"
            },
            "ctb2High": null
          },
          "notes": [
            {
              "pitch": 64,
              "velocity": 66,
              "position": 1.6666666666666667,
              "duration": 0.9895833333333334
            },
            {
              "pitch": 59,
              "velocity": 57,
              "position": 1,
              "duration": 1.9895833333333333
            },
            {
              "pitch": 55,
              "velocity": 66,
              "position": 0.6666666666666666,
              "duration": 2.9895833333333335
            },
            {
              "pitch": 55,
              "velocity": 66,
              "position": 3.6666666666666665,
              "duration": 0.9895833333333334
            },
            {
              "pitch": 59,
              "velocity": 57,
              "position": 3,
              "duration": 1.9895833333333333
            },
            {
              "pitch": 64,
              "velocity": 66,
              "position": 2.6666666666666665,
              "duration": 2.9895833333333335
            },
            {
              "pitch": 55,
              "velocity": 66,
              "position": 4.666666666666667,
              "duration": 3.3229166666666665
            },
            {
              "pitch": 59,
              "velocity": 57,
              "position": 5,
              "duration": 2.9895833333333335
            },
            {
              "pitch": 64,
              "velocity": 66,
              "position": 5.666666666666667,
              "duration": 2.3229166666666665
            }
          ]
        },
        "13": {
          "ctab": {
            "srcChannel": 13,
            "name": "PedSt",
            "accType": "PHRASE1",
            "editable": false,
            "mutedNotes": [],
            "mutedChords": [],
            "autoStart": false,
            "sourceChordNote": 0,
            "sourceChordType": "Maj7",
            "ctb2Low": null,
            "ctb2Main": {
              "ntr": "ROOT_TRANSPOSITION",
              "ntt": "CHORD",
              "bassOn": false,
              "chordRootUpperLimit": 7,
              "noteLowLimit": 59,
              "noteHighLimit": 70,
              "rtr": "PITCH_SHIFT"
            },
            "ctb2High": null
          },
          "notes": [
            {
              "pitch": 59,
              "velocity": 58,
              "position": 0,
              "duration": 6.489583333333333
            },
            {
              "pitch": 64,
              "velocity": 58,
              "position": 0.010416666666666666,
              "duration": 6.489583333333333
            },
            {
              "pitch": 67,
              "velocity": 58,
              "position": 0.020833333333333332,
              "duration": 6.489583333333333
            },
            {
              "pitch": 59,
              "velocity": 58,
              "position": 6.666666666666667,
              "duration": 0.3333333333333333
            },
            {
              "pitch": 64,
              "velocity": 58,
              "position": 6.677083333333333,
              "duration": 0.3333333333333333
            },
            {
              "pitch": 67,
              "velocity": 58,
              "position": 6.6875,
              "duration": 0.3333333333333333
            }
          ]
        }
      }
    },
    "Fill_In_AA": {
      "type": "Fill_In_AA",
      "sizeInBeats": 4,
      "channels": {
        "1": {
          "ctab": {
            "srcChannel": 1,
            "name": "HiStrFX",
            "accType": "CHORD1",
            "editable": false,
            "mutedNotes": [],
            "mutedChords": [],
            "autoStart": false,
            "sourceChordNote": 0,
            "sourceChordType": "Maj7",
            "ctb2Low": null,
            "ctb2Main": {
              "ntr": "ROOT_FIXED",
              "ntt": "BYPASS",
              "bassOn": false,
              "chordRootUpperLimit": 7,
              "noteLowLimit": 0,
              "noteHighLimit": 79,
              "rtr": "PITCH_SHIFT"
            },
            "ctb2High": null
          },
          "notes": [
            {
              "pitch": 98,
              "velocity": 86,
              "position": 0,
              "duration": 0.23958333333333334
            },
            {
              "pitch": 100,
              "velocity": 86,
              "position": 1,
              "duration": 0.23958333333333334
            },
            {
              "pitch": 99,
              "velocity": 81,
              "position": 1.6666666666666667,
              "duration": 0.23958333333333334
            },
            {
              "pitch": 99,
              "velocity": 81,
              "position": 2.6666666666666665,
              "duration": 0.23958333333333334
            },
            {
              "pitch": 100,
              "velocity": 86,
              "position": 3,
              "duration": 0.23958333333333334
            }
          ]
        },
        "2": {
          "ctab": {
            "srcChannel": 2,
            "name": "12StRoot",
            "accType": "CHORD1",
            "editable": false,
            "mutedNotes": [],
            "mutedChords": [
              "1+2+5",
              "sus4",
              "1+5",
              "1+8",
              "Maj7aug",
              "dim",
              "minMaj7(9)",
              "minMaj7",
              "min6",
              "min",
              "aug",
              "Maj7(9)",
              "Maj7#11",
              "Maj7",
              "Maj6",
              "Maj"
            ],
            "autoStart": false,
            "sourceChordNote": 0,
            "sourceChordType": "Maj7",
            "ctb2Low": null,
            "ctb2Main": {
              "ntr": "ROOT_TRANSPOSITION",
              "ntt": "CHORD",
              "bassOn": false,
              "chordRootUpperLimit": 6,
              "noteLowLimit": 0,
              "noteHighLimit": 127,
              "rtr": "PITCH_SHIFT"
            },
            "ctb2High": null
          },
          "notes": [
            {
              "pitch": 60,
              "velocity": 100,
              "position": 0,
              "duration": 0.9895833333333334
            },
            {
              "pitch": 60,
              "velocity": 101,
              "position": 1,
              "duration": 0.65625
            },
            {
              "pitch": 60,
              "velocity": 92,
              "position": 1.6666666666666667,
              "duration": 0.9791666666666666
            },
            {
              "pitch": 60,
              "velocity": 74,
              "position": 2.6666666666666665,
              "duration": 0.3229166666666667
            },
            {
              "pitch": 60,
              "velocity": 101,
              "position": 3,
              "duration": 0.9895833333333334
            }
          ]
        },
        "4": {
          "ctab": {
            "srcChannel": 4,
            "name": "Ped Root",
            "accType": "PHRASE1",
            "editable": false,
            "mutedNotes": [],
            "mutedChords": [
              "1+2+5",
              "sus4",
              "1+5",
              "1+8",
              "Maj7aug",
              "dim",
              "minMaj7(9)",
              "minMaj7",
              "min6",
              "min",
              "aug",
              "Maj7(9)",
              "Maj7#11",
              "Maj7",
              "Maj6",
              "Maj"
            ],
            "autoStart": false,
            "sourceChordNote": 0,
            "sourceChordType": "Maj7",
            "ctb2Low": null,
            "ctb2Main": {
              "ntr": "ROOT_TRANSPOSITION",
              "ntt": "CHORD",
              "bassOn": false,
              "chordRootUpperLimit": 10,
              "noteLowLimit": 0,
              "noteHighLimit": 127,
              "rtr": "PITCH_SHIFT"
            },
            "ctb2High": null
          },
          "notes": []
        },
        "7": {
          "ctab": {
            "srcChannel": 7,
            "name": "CC_Crash",
            "accType": "RHYTHM",
            "editable": false,
            "mutedNotes": [],
            "mutedChords": [
              "1+2+5",
              "sus4",
              "1+5",
              "1+8",
              "7aug",
              "Maj7aug",
              "7(#9)",
              "7(b13)",
              "7(b9)",
              "7(13)",
              "7#11",
              "7(9)",
              "7b5",
              "7sus4",
              "7th",
              "dim7",
              "dim",
              "minMaj7(9)",
              "minMaj7",
              "min7(11)",
              "min7(9)",
              "min(9)",
              "m7b5",
              "min7",
              "min6",
              "min",
              "aug",
              "Maj6(9)",
              "Maj7(9)",
              "Maj(9)",
              "Maj7#11",
              "Maj7",
              "Maj6",
              "Maj"
            ],
            "autoStart": true,
            "sourceChordNote": 0,
            "sourceChordType": "Maj",
            "ctb2Low": null,
            "ctb2Main": {
              "ntr": "ROOT_FIXED",
              "ntt": "BYPASS",
              "bassOn": false,
              "chordRootUpperLimit": 0,
              "noteLowLimit": 0,
              "noteHighLimit": 127,
              "rtr": "RETRIGGER"
            },
            "ctb2High": null
          },
          "notes": []
        },
        "8": {
          "ctab": {
            "srcChannel": 8,
            "name": "Perc",
            "accType": "SUBRHYTHM",
            "editable": false,
            "mutedNotes": [],
            "mutedChords": [],
            "autoStart": true,
            "sourceChordNote": 0,
            "sourceChordType": "Maj7",
            "ctb2Low": null,
            "ctb2Main": {
              "ntr": "ROOT_FIXED",
              "ntt": "BYPASS",
              "bassOn": false,
              "chordRootUpperLimit": 6,
              "noteLowLimit": 0,
              "noteHighLimit": 127,
              "rtr": "PITCH_SHIFT"
            },
            "ctb2High": null
          },
          "notes": []
        },
        "9": {
          "ctab": {
            "srcChannel": 9,
            "name": "Drs",
            "accType": "RHYTHM",
            "editable": false,
            "mutedNotes": [],
            "mutedChords": [],
            "autoStart": true,
            "sourceChordNote": 0,
            "sourceChordType": "Maj7",
            "ctb2Low": null,
            "ctb2Main": {
              "ntr": "ROOT_FIXED",
              "ntt": "BYPASS",
              "bassOn": false,
              "chordRootUpperLimit": 6,
              "noteLowLimit": 0,
              "noteHighLimit": 127,
              "rtr": "PITCH_SHIFT"
            },
            "ctb2High": null
          },
          "notes": [
            {
              "pitch": 36,
              "velocity": 79,
              "position": 0,
              "duration": 0.010416666666666666
            },
            {
              "pitch": 25,
              "velocity": 30,
              "position": 0.6666666666666666,
              "duration": 0.010416666666666666
            },
            {
              "pitch": 25,
              "velocity": 72,
              "position": 0.8333333333333334,
              "duration": 0.010416666666666666
            },
            {
              "pitch": 37,
              "velocity": 85,
              "position": 1,
              "duration": 0.010416666666666666
            },
            {
              "pitch": 44,
              "velocity": 60,
              "position": 1,
              "duration": 0.010416666666666666
            },
            {
              "pitch": 25,
              "velocity": 43,
              "position": 1.3333333333333333,
              "duration": 0.010416666666666666
            },
            {
              "pitch": 36,
              "velocity": 51,
              "position": 1.6666666666666667,
              "duration": 0.010416666666666666
            },
            {
              "pitch": 36,
              "velocity": 79,
              "position": 2,
              "duration": 0.010416666666666666
            },
            {
              "pitch": 25,
              "velocity": 43,
              "position": 2.3333333333333335,
              "duration": 0.010416666666666666
            },
            {
              "pitch": 37,
              "velocity": 34,
              "position": 2.6666666666666665,
              "duration": 0.010416666666666666
            },
            {
              "pitch": 37,
              "velocity": 85,
              "position": 3,
              "duration": 0.010416666666666666
            },
            {
              "pitch": 46,
              "velocity": 60,
              "position": 3,
              "duration": 0.010416666666666666
            }
          ]
        },
        "10": {
          "ctab": {
            "srcChannel": 10,
            "name": "Bass",
            "accType": "BASS",
            "editable": false,
            "mutedNotes": [],
            "mutedChords": [],
            "autoStart": false,
            "sourceChordNote": 0,
            "sourceChordType": "Maj7",
            "ctb2Low": null,
            "ctb2Main": {
              "ntr": "ROOT_TRANSPOSITION",
              "ntt": "MELODY",
              "bassOn": true,
              "chordRootUpperLimit": 8,
              "noteLowLimit": 28,
              "noteHighLimit": 127,
              "rtr": "PITCH_SHIFT_TO_ROOT"
            },
            "ctb2High": null
          },
          "notes": [
            {
              "pitch": 24,
              "velocity": 60,
              "position": 0,
              "duration": 0.9895833333333334
            },
            {
              "pitch": 24,
              "velocity": 102,
              "position": 1.6666666666666667,
              "duration": 0.325
            },
            {
              "pitch": 28,
              "velocity": 60,
              "position": 2,
              "duration": 0.9895833333333334
            },
            {
              "pitch": 31,
              "velocity": 60,
              "position": 3,
              "duration": 0.9895833333333334
            }
          ]
        },
        "11": {
          "ctab": {
            "srcChannel": 11,
            "name": "HiStrMg",
            "accType": "CHORD1",
            "editable": false,
            "mutedNotes": [],
            "mutedChords": [],
            "autoStart": false,
            "sourceChordNote": 0,
            "sourceChordType": "Maj7",
            "ctb2Low": null,
            "ctb2Main": {
              "ntr": "ROOT_FIXED",
              "ntt": "CHORD",
              "bassOn": false,
              "chordRootUpperLimit": 7,
              "noteLowLimit": 0,
              "noteHighLimit": 127,
              "rtr": "PITCH_SHIFT"
            },
            "ctb2High": null
          },
          "notes": [
            {
              "pitch": 55,
              "velocity": 115,
              "position": 0,
              "duration": 0.9895833333333334
            },
            {
              "pitch": 59,
              "velocity": 115,
              "position": 0,
              "duration": 0.9895833333333334
            },
            {
              "pitch": 64,
              "velocity": 115,
              "position": 0.020833333333333332,
              "duration": 0.96875
            },
            {
              "pitch": 59,
              "velocity": 116,
              "position": 1,
              "duration": 0.65625
            },
            {
              "pitch": 64,
              "velocity": 116,
              "position": 1,
              "duration": 0.65625
            },
            {
              "pitch": 55,
              "velocity": 116,
              "position": 1.0208333333333333,
              "duration": 0.6354166666666666
            },
            {
              "pitch": 55,
              "velocity": 103,
              "position": 1.6666666666666667,
              "duration": 0.9895833333333334
            },
            {
              "pitch": 59,
              "velocity": 107,
              "position": 1.6770833333333333,
              "duration": 0.9791666666666666
            },
            {
              "pitch": 64,
              "velocity": 115,
              "position": 1.6875,
              "duration": 0.96875
            },
            {
              "pitch": 59,
              "velocity": 89,
              "position": 2.6666666666666665,
              "duration": 0.3229166666666667
            },
            {
              "pitch": 64,
              "velocity": 90,
              "position": 2.6666666666666665,
              "duration": 0.3229166666666667
            },
            {
              "pitch": 55,
              "velocity": 89,
              "position": 2.6875,
              "duration": 0.3020833333333333
            },
            {
              "pitch": 55,
              "velocity": 116,
              "position": 3,
              "duration": 0.9895833333333334
            },
            {
              "pitch": 59,
              "velocity": 116,
              "position": 3,
              "duration": 0.9895833333333334
            },
            {
              "pitch": 64,
              "velocity": 116,
              "position": 3.0208333333333335,
              "duration": 0.96875
            }
          ]
        },
        "12": {
          "ctab": {
            "srcChannel": 12,
            "name": "ClGt",
            "accType": "CHORD2",
            "editable": false,
            "mutedNotes": [],
            "mutedChords": [],
            "autoStart": false,
            "sourceChordNote": 0,
            "sourceChordType": "Maj7",
            "ctb2Low": null,
            "ctb2Main": {
              "ntr": "ROOT_FIXED",
              "ntt": "CHORD",
              "bassOn": false,
              "chordRootUpperLimit": 7,
              "noteLowLimit": 0,
              "noteHighLimit": 127,
              "rtr": "PITCH_SHIFT"
            },
            "ctb2High": null
          },
          "notes": []
        },
        "13": {
          "ctab": {
            "srcChannel": 13,
            "name": "PedSt",
            "accType": "PHRASE1",
            "editable": false,
            "mutedNotes": [],
            "mutedChords": [],
            "autoStart": false,
            "sourceChordNote": 0,
            "sourceChordType": "Maj7",
            "ctb2Low": null,
            "ctb2Main": {
              "ntr": "ROOT_TRANSPOSITION",
              "ntt": "CHORD",
              "bassOn": false,
              "chordRootUpperLimit": 7,
              "noteLowLimit": 59,
              "noteHighLimit": 70,
              "rtr": "PITCH_SHIFT"
            },
            "ctb2High": null
          },
          "notes": []
        }
      }
    },
    "Fill_In_BB": {
      "type": "Fill_In_BB",
      "sizeInBeats": 4,
      "channels": {
        "1": {
          "ctab": {
            "srcChannel": 1,
            "name": "HiStrFX",
            "accType": "CHORD1",
            "editable": false,
            "mutedNotes": [],
            "mutedChords": [],
            "autoStart": false,
            "sourceChordNote": 0,
            "sourceChordType": "Maj7",
            "ctb2Low": null,
            "ctb2Main": {
              "ntr": "ROOT_FIXED",
              "ntt": "BYPASS",
              "bassOn": false,
              "chordRootUpperLimit": 7,
              "noteLowLimit": 0,
              "noteHighLimit": 79,
              "rtr": "PITCH_SHIFT"
            },
            "ctb2High": null
          },
          "notes": [
            {
              "pitch": 98,
              "velocity": 98,
              "position": 0,
              "duration": 0.23958333333333334
            },
            {
              "pitch": 100,
              "velocity": 98,
              "position": 1,
              "duration": 0.23958333333333334
            },
            {
              "pitch": 99,
              "velocity": 87,
              "position": 1.6666666666666667,
              "duration": 0.23958333333333334
            },
            {
              "pitch": 99,
              "velocity": 87,
              "position": 2.6666666666666665,
              "duration": 0.23958333333333334
            },
            {
              "pitch": 100,
              "velocity": 98,
              "position": 3,
              "duration": 0.23958333333333334
            }
          ]
        },
        "2": {
          "ctab": {
            "srcChannel": 2,
            "name": "12StRoot",
            "accType": "CHORD1",
            "editable": false,
            "mutedNotes": [],
            "mutedChords": [
              "1+2+5",
              "sus4",
              "1+5",
              "1+8",
              "Maj7aug",
              "dim",
              "minMaj7(9)",
              "minMaj7",
              "min6",
              "min",
              "aug",
              "Maj7(9)",
              "Maj7#11",
              "Maj7",
              "Maj6",
              "Maj"
            ],
            "autoStart": false,
            "sourceChordNote": 0,
            "sourceChordType": "Maj7",
            "ctb2Low": null,
            "ctb2Main": {
              "ntr": "ROOT_TRANSPOSITION",
              "ntt": "CHORD",
              "bassOn": false,
              "chordRootUpperLimit": 6,
              "noteLowLimit": 0,
              "noteHighLimit": 127,
              "rtr": "PITCH_SHIFT"
            },
            "ctb2High": null
          },
          "notes": [
            {
              "pitch": 60,
              "velocity": 100,
              "position": 0,
              "duration": 0.98125
            },
            {
              "pitch": 60,
              "velocity": 101,
              "position": 1,
              "duration": 0.6479166666666667
            },
            {
              "pitch": 60,
              "velocity": 93,
              "position": 1.6666666666666667,
              "duration": 0.98125
            },
            {
              "pitch": 60,
              "velocity": 74,
              "position": 2.6666666666666665,
              "duration": 0.3145833333333333
            },
            {
              "pitch": 60,
              "velocity": 101,
              "position": 3,
              "duration": 0.98125
            }
          ]
        },
        "4": {
          "ctab": {
            "srcChannel": 4,
            "name": "Ped Root",
            "accType": "PHRASE1",
            "editable": false,
            "mutedNotes": [],
            "mutedChords": [
              "1+2+5",
              "sus4",
              "1+5",
              "1+8",
              "Maj7aug",
              "dim",
              "minMaj7(9)",
              "minMaj7",
              "min6",
              "min",
              "aug",
              "Maj7(9)",
              "Maj7#11",
              "Maj7",
              "Maj6",
              "Maj"
            ],
            "autoStart": false,
            "sourceChordNote": 0,
            "sourceChordType": "Maj7",
            "ctb2Low": null,
            "ctb2Main": {
              "ntr": "ROOT_TRANSPOSITION",
              "ntt": "CHORD",
              "bassOn": false,
              "chordRootUpperLimit": 10,
              "noteLowLimit": 0,
              "noteHighLimit": 127,
              "rtr": "PITCH_SHIFT"
            },
            "ctb2High": null
          },
          "notes": []
        },
        "7": {
          "ctab": {
            "srcChannel": 7,
            "name": "CC_Crash",
            "accType": "RHYTHM",
            "editable": false,
            "mutedNotes": [],
            "mutedChords": [
              "1+2+5",
              "sus4",
              "1+5",
              "1+8",
              "7aug",
              "Maj7aug",
              "7(#9)",
              "7(b13)",
              "7(b9)",
              "7(13)",
              "7#11",
              "7(9)",
              "7b5",
              "7sus4",
              "7th",
              "dim7",
              "dim",
              "minMaj7(9)",
              "minMaj7",
              "min7(11)",
              "min7(9)",
              "min(9)",
              "m7b5",
              "min7",
              "min6",
              "min",
              "aug",
              "Maj6(9)",
              "Maj7(9)",
              "Maj(9)",
              "Maj7#11",
              "Maj7",
              "Maj6",
              "Maj"
            ],
            "autoStart": true,
            "sourceChordNote": 0,
            "sourceChordType": "Maj",
            "ctb2Low": null,
            "ctb2Main": {
              "ntr": "ROOT_FIXED",
              "ntt": "BYPASS",
              "bassOn": false,
              "chordRootUpperLimit": 0,
              "noteLowLimit": 0,
              "noteHighLimit": 127,
              "rtr": "RETRIGGER"
            },
            "ctb2High": null
          },
          "notes": []
        },
        "8": {
          "ctab": {
            "srcChannel": 8,
            "name": "Perc",
            "accType": "SUBRHYTHM",
            "editable": false,
            "mutedNotes": [],
            "mutedChords": [],
            "autoStart": true,
            "sourceChordNote": 0,
            "sourceChordType": "Maj7",
            "ctb2Low": null,
            "ctb2Main": {
              "ntr": "ROOT_FIXED",
              "ntt": "BYPASS",
              "bassOn": false,
              "chordRootUpperLimit": 6,
              "noteLowLimit": 0,
              "noteHighLimit": 127,
              "rtr": "PITCH_SHIFT"
            },
            "ctb2High": null
          },
          "notes": [
            {
              "pitch": 54,
              "velocity": 89,
              "position": 1,
              "duration": 0.010416666666666666
            },
            {
              "pitch": 54,
              "velocity": 42,
              "position": 2.6770833333333335,
              "duration": 0.010416666666666666
            },
            {
              "pitch": 54,
              "velocity": 91,
              "position": 3,
              "duration": 0.010416666666666666
            }
          ]
        },
        "9": {
          "ctab": {
            "srcChannel": 9,
            "name": "Drs",
            "accType": "RHYTHM",
            "editable": false,
            "mutedNotes": [],
            "mutedChords": [],
            "autoStart": true,
            "sourceChordNote": 0,
            "sourceChordType": "Maj7",
            "ctb2Low": null,
            "ctb2Main": {
              "ntr": "ROOT_FIXED",
              "ntt": "BYPASS",
              "bassOn": false,
              "chordRootUpperLimit": 6,
              "noteLowLimit": 0,
              "noteHighLimit": 127,
              "rtr": "PITCH_SHIFT"
            },
            "ctb2High": null
          },
          "notes": [
            {
              "pitch": 36,
              "velocity": 79,
              "position": 0,
              "duration": 0.010416666666666666
            },
            {
              "pitch": 27,
              "velocity": 59,
              "position": 0.3333333333333333,
              "duration": 0.010416666666666666
            },
            {
              "pitch": 25,
              "velocity": 76,
              "position": 0.6666666666666666,
              "duration": 0.010416666666666666
            },
            {
              "pitch": 36,
              "velocity": 79,
              "position": 1,
              "duration": 0.010416666666666666
            },
            {
              "pitch": 37,
              "velocity": 85,
              "position": 1,
              "duration": 0.010416666666666666
            },
            {
              "pitch": 44,
              "velocity": 60,
              "position": 1,
              "duration": 0.010416666666666666
            },
            {
              "pitch": 27,
              "velocity": 59,
              "position": 1.3333333333333333,
              "duration": 0.010416666666666666
            },
            {
              "pitch": 25,
              "velocity": 76,
              "position": 1.6666666666666667,
              "duration": 0.010416666666666666
            },
            {
              "pitch": 25,
              "velocity": 121,
              "position": 2,
              "duration": 0.010416666666666666
            },
            {
              "pitch": 36,
              "velocity": 79,
              "position": 2,
              "duration": 0.010416666666666666
            },
            {
              "pitch": 27,
              "velocity": 59,
              "position": 2.3333333333333335,
              "duration": 0.010416666666666666
            },
            {
              "pitch": 25,
              "velocity": 76,
              "position": 2.6666666666666665,
              "duration": 0.010416666666666666
            },
            {
              "pitch": 36,
              "velocity": 79,
              "position": 3,
              "duration": 0.010416666666666666
            },
            {
              "pitch": 37,
              "velocity": 85,
              "position": 3,
              "duration": 0.010416666666666666
            },
            {
              "pitch": 46,
              "velocity": 60,
              "position": 3,
              "duration": 0.010416666666666666
            },
            {
              "pitch": 27,
              "velocity": 86,
              "position": 3.3333333333333335,
              "duration": 0.010416666666666666
            },
            {
              "pitch": 25,
              "velocity": 115,
              "position": 3.6666666666666665,
              "duration": 0.010416666666666666
            }
          ]
        },
        "10": {
          "ctab": {
            "srcChannel": 10,
            "name": "Bass",
            "accType": "BASS",
            "editable": false,
            "mutedNotes": [],
            "mutedChords": [],
            "autoStart": false,
            "sourceChordNote": 0,
            "sourceChordType": "Maj7",
            "ctb2Low": null,
            "ctb2Main": {
              "ntr": "ROOT_TRANSPOSITION",
              "ntt": "MELODY",
              "bassOn": true,
              "chordRootUpperLimit": 8,
              "noteLowLimit": 28,
              "noteHighLimit": 127,
              "rtr": "PITCH_SHIFT_TO_ROOT"
            },
            "ctb2High": null
          },
          "notes": [
            {
              "pitch": 24,
              "velocity": 60,
              "position": 0,
              "duration": 0.65625
            },
            {
              "pitch": 24,
              "velocity": 100,
              "position": 0.6666666666666666,
              "duration": 0.3229166666666667
            },
            {
              "pitch": 24,
              "velocity": 60,
              "position": 1,
              "duration": 0.9895833333333334
            },
            {
              "pitch": 28,
              "velocity": 60,
              "position": 2,
              "duration": 0.9895833333333334
            },
            {
              "pitch": 31,
              "velocity": 60,
              "position": 3,
              "duration": 0.9895833333333334
            }
          ]
        },
        "11": {
          "ctab": {
            "srcChannel": 11,
            "name": "HiStrMg",
            "accType": "CHORD1",
            "editable": false,
            "mutedNotes": [],
            "mutedChords": [],
            "autoStart": false,
            "sourceChordNote": 0,
            "sourceChordType": "Maj7",
            "ctb2Low": null,
            "ctb2Main": {
              "ntr": "ROOT_FIXED",
              "ntt": "CHORD",
              "bassOn": false,
              "chordRootUpperLimit": 7,
              "noteLowLimit": 0,
              "noteHighLimit": 127,
              "rtr": "PITCH_SHIFT"
            },
            "ctb2High": null
          },
          "notes": [
            {
              "pitch": 55,
              "velocity": 115,
              "position": 0,
              "duration": 0.9916666666666667
            },
            {
              "pitch": 59,
              "velocity": 115,
              "position": 0.010416666666666666,
              "duration": 0.98125
            },
            {
              "pitch": 64,
              "velocity": 115,
              "position": 0.020833333333333332,
              "duration": 0.9708333333333333
            },
            {
              "pitch": 64,
              "velocity": 116,
              "position": 1,
              "duration": 0.6583333333333333
            },
            {
              "pitch": 59,
              "velocity": 116,
              "position": 1.0104166666666667,
              "duration": 0.6479166666666667
            },
            {
              "pitch": 55,
              "velocity": 116,
              "position": 1.0208333333333333,
              "duration": 0.6375
            },
            {
              "pitch": 55,
              "velocity": 108,
              "position": 1.6666666666666667,
              "duration": 0.9916666666666667
            },
            {
              "pitch": 59,
              "velocity": 108,
              "position": 1.6770833333333333,
              "duration": 0.98125
            },
            {
              "pitch": 64,
              "velocity": 115,
              "position": 1.6875,
              "duration": 0.9708333333333333
            },
            {
              "pitch": 64,
              "velocity": 89,
              "position": 2.6666666666666665,
              "duration": 0.325
            },
            {
              "pitch": 59,
              "velocity": 89,
              "position": 2.6770833333333335,
              "duration": 0.3145833333333333
            },
            {
              "pitch": 55,
              "velocity": 89,
              "position": 2.6875,
              "duration": 0.30416666666666664
            },
            {
              "pitch": 55,
              "velocity": 116,
              "position": 3,
              "duration": 0.9916666666666667
            },
            {
              "pitch": 59,
              "velocity": 116,
              "position": 3.0104166666666665,
              "duration": 0.98125
            },
            {
              "pitch": 64,
              "velocity": 116,
              "position": 3.0208333333333335,
              "duration": 0.9708333333333333
            }
          ]
        },
        "12": {
          "ctab": {
            "srcChannel": 12,
            "name": "ClGt",
            "accType": "CHORD2",
            "editable": false,
            "mutedNotes": [],
            "mutedChords": [],
            "autoStart": false,
            "sourceChordNote": 0,
            "sourceChordType": "Maj7",
            "ctb2Low": null,
            "ctb2Main": {
              "ntr": "ROOT_FIXED",
              "ntt": "CHORD",
              "bassOn": false,
              "chordRootUpperLimit": 7,
              "noteLowLimit": 0,
              "noteHighLimit": 127,
              "rtr": "PITCH_SHIFT"
            },
            "ctb2High": null
          },
          "notes": []
        },
        "13": {
          "ctab": {
            "srcChannel": 13,
            "name": "PedSt",
            "accType": "PHRASE1",
            "editable": false,
            "mutedNotes": [],
            "mutedChords": [],
            "autoStart": false,
            "sourceChordNote": 0,
            "sourceChordType": "Maj7",
            "ctb2Low": null,
            "ctb2Main": {
              "ntr": "ROOT_TRANSPOSITION",
              "ntt": "CHORD",
              "bassOn": false,
              "chordRootUpperLimit": 7,
              "noteLowLimit": 59,
              "noteHighLimit": 70,
              "rtr": "PITCH_SHIFT"
            },
            "ctb2High": null
          },
          "notes": []
        }
      }
    },
    "Fill_In_CC": {
      "type": "Fill_In_CC",
      "sizeInBeats": 4,
      "channels": {
        "1": {
          "ctab": {
            "srcChannel": 1,
            "name": "HiStrFX",
            "accType": "CHORD1",
            "editable": false,
            "mutedNotes": [],
            "mutedChords": [],
            "autoStart": false,
            "sourceChordNote": 0,
            "sourceChordType": "Maj7",
            "ctb2Low": null,
            "ctb2Main": {
              "ntr": "ROOT_FIXED",
              "ntt": "BYPASS",
              "bassOn": false,
              "chordRootUpperLimit": 7,
              "noteLowLimit": 0,
              "noteHighLimit": 79,
              "rtr": "PITCH_SHIFT"
            },
            "ctb2High": null
          },
          "notes": [
            {
              "pitch": 98,
              "velocity": 99,
              "position": 0,
              "duration": 0.23958333333333334
            },
            {
              "pitch": 99,
              "velocity": 89,
              "position": 0.6666666666666666,
              "duration": 0.23958333333333334
            },
            {
              "pitch": 100,
              "velocity": 99,
              "position": 1,
              "duration": 0.23958333333333334
            },
            {
              "pitch": 99,
              "velocity": 89,
              "position": 1.6666666666666667,
              "duration": 0.23958333333333334
            },
            {
              "pitch": 99,
              "velocity": 89,
              "position": 2.6666666666666665,
              "duration": 0.23958333333333334
            },
            {
              "pitch": 100,
              "velocity": 99,
              "position": 3,
              "duration": 0.23958333333333334
            },
            {
              "pitch": 99,
              "velocity": 89,
              "position": 3.6666666666666665,
              "duration": 0.23958333333333334
            }
          ]
        },
        "2": {
          "ctab": {
            "srcChannel": 2,
            "name": "12StRoot",
            "accType": "CHORD1",
            "editable": false,
            "mutedNotes": [],
            "mutedChords": [
              "1+2+5",
              "sus4",
              "1+5",
              "1+8",
              "Maj7aug",
              "dim",
              "minMaj7(9)",
              "minMaj7",
              "min6",
              "min",
              "aug",
              "Maj7(9)",
              "Maj7#11",
              "Maj7",
              "Maj6",
              "Maj"
            ],
            "autoStart": false,
            "sourceChordNote": 0,
            "sourceChordType": "Maj7",
            "ctb2Low": null,
            "ctb2Main": {
              "ntr": "ROOT_TRANSPOSITION",
              "ntt": "CHORD",
              "bassOn": false,
              "chordRootUpperLimit": 6,
              "noteLowLimit": 0,
              "noteHighLimit": 127,
              "rtr": "PITCH_SHIFT"
            },
            "ctb2High": null
          },
          "notes": [
            {
              "pitch": 60,
              "velocity": 100,
              "position": 0,
              "duration": 0.6479166666666667
            },
            {
              "pitch": 60,
              "velocity": 68,
              "position": 0.6666666666666666,
              "duration": 0.3145833333333333
            },
            {
              "pitch": 60,
              "velocity": 101,
              "position": 1,
              "duration": 0.6479166666666667
            },
            {
              "pitch": 60,
              "velocity": 100,
              "position": 1.6666666666666667,
              "duration": 0.98125
            },
            {
              "pitch": 60,
              "velocity": 74,
              "position": 2.6666666666666665,
              "duration": 0.3145833333333333
            },
            {
              "pitch": 60,
              "velocity": 101,
              "position": 3,
              "duration": 0.6479166666666667
            },
            {
              "pitch": 60,
              "velocity": 74,
              "position": 3.6666666666666665,
              "duration": 0.3145833333333333
            }
          ]
        },
        "4": {
          "ctab": {
            "srcChannel": 4,
            "name": "Ped Root",
            "accType": "PHRASE1",
            "editable": false,
            "mutedNotes": [],
            "mutedChords": [
              "1+2+5",
              "sus4",
              "1+5",
              "1+8",
              "Maj7aug",
              "dim",
              "minMaj7(9)",
              "minMaj7",
              "min6",
              "min",
              "aug",
              "Maj7(9)",
              "Maj7#11",
              "Maj7",
              "Maj6",
              "Maj"
            ],
            "autoStart": false,
            "sourceChordNote": 0,
            "sourceChordType": "Maj7",
            "ctb2Low": null,
            "ctb2Main": {
              "ntr": "ROOT_TRANSPOSITION",
              "ntt": "CHORD",
              "bassOn": false,
              "chordRootUpperLimit": 10,
              "noteLowLimit": 0,
              "noteHighLimit": 127,
              "rtr": "PITCH_SHIFT"
            },
            "ctb2High": null
          },
          "notes": []
        },
        "7": {
          "ctab": {
            "srcChannel": 7,
            "name": "CC_Crash",
            "accType": "RHYTHM",
            "editable": false,
            "mutedNotes": [],
            "mutedChords": [
              "1+2+5",
              "sus4",
              "1+5",
              "1+8",
              "7aug",
              "Maj7aug",
              "7(#9)",
              "7(b13)",
              "7(b9)",
              "7(13)",
              "7#11",
              "7(9)",
              "7b5",
              "7sus4",
              "7th",
              "dim7",
              "dim",
              "minMaj7(9)",
              "minMaj7",
              "min7(11)",
              "min7(9)",
              "min(9)",
              "m7b5",
              "min7",
              "min6",
              "min",
              "aug",
              "Maj6(9)",
              "Maj7(9)",
              "Maj(9)",
              "Maj7#11",
              "Maj7",
              "Maj6",
              "Maj"
            ],
            "autoStart": true,
            "sourceChordNote": 0,
            "sourceChordType": "Maj",
            "ctb2Low": null,
            "ctb2Main": {
              "ntr": "ROOT_FIXED",
              "ntt": "BYPASS",
              "bassOn": false,
              "chordRootUpperLimit": 0,
              "noteLowLimit": 0,
              "noteHighLimit": 127,
              "rtr": "RETRIGGER"
            },
            "ctb2High": null
          },
          "notes": []
        },
        "8": {
          "ctab": {
            "srcChannel": 8,
            "name": "Perc",
            "accType": "SUBRHYTHM",
            "editable": false,
            "mutedNotes": [],
            "mutedChords": [],
            "autoStart": true,
            "sourceChordNote": 0,
            "sourceChordType": "Maj7",
            "ctb2Low": null,
            "ctb2Main": {
              "ntr": "ROOT_FIXED",
              "ntt": "BYPASS",
              "bassOn": false,
              "chordRootUpperLimit": 6,
              "noteLowLimit": 0,
              "noteHighLimit": 127,
              "rtr": "PITCH_SHIFT"
            },
            "ctb2High": null
          },
          "notes": [
            {
              "pitch": 54,
              "velocity": 89,
              "position": 1,
              "duration": 0.010416666666666666
            },
            {
              "pitch": 54,
              "velocity": 91,
              "position": 3,
              "duration": 0.010416666666666666
            }
          ]
        },
        "9": {
          "ctab": {
            "srcChannel": 9,
            "name": "Drs",
            "accType": "RHYTHM",
            "editable": false,
            "mutedNotes": [],
            "mutedChords": [],
            "autoStart": true,
            "sourceChordNote": 0,
            "sourceChordType": "Maj7",
            "ctb2Low": null,
            "ctb2Main": {
              "ntr": "ROOT_FIXED",
              "ntt": "BYPASS",
              "bassOn": false,
              "chordRootUpperLimit": 6,
              "noteLowLimit": 0,
              "noteHighLimit": 127,
              "rtr": "PITCH_SHIFT"
            },
            "ctb2High": null
          },
          "notes": [
            {
              "pitch": 36,
              "velocity": 79,
              "position": 0,
              "duration": 0.010416666666666666
            },
            {
              "pitch": 53,
              "velocity": 73,
              "position": 0,
              "duration": 0.010416666666666666
            },
            {
              "pitch": 31,
              "velocity": 110,
              "position": 1,
              "duration": 0.010416666666666666
            },
            {
              "pitch": 44,
              "velocity": 60,
              "position": 1,
              "duration": 0.010416666666666666
            },
            {
              "pitch": 53,
              "velocity": 73,
              "position": 1,
              "duration": 0.010416666666666666
            },
            {
              "pitch": 47,
              "velocity": 30,
              "position": 1.6666666666666667,
              "duration": 0.010416666666666666
            },
            {
              "pitch": 47,
              "velocity": 60,
              "position": 1.8333333333333333,
              "duration": 0.010416666666666666
            },
            {
              "pitch": 36,
              "velocity": 79,
              "position": 2,
              "duration": 0.010416666666666666
            },
            {
              "pitch": 47,
              "velocity": 60,
              "position": 2,
              "duration": 0.010416666666666666
            },
            {
              "pitch": 31,
              "velocity": 36,
              "position": 2.3333333333333335,
              "duration": 0.010416666666666666
            },
            {
              "pitch": 31,
              "velocity": 78,
              "position": 2.6666666666666665,
              "duration": 0.010416666666666666
            },
            {
              "pitch": 38,
              "velocity": 70,
              "position": 3,
              "duration": 0.010416666666666666
            },
            {
              "pitch": 44,
              "velocity": 60,
              "position": 3,
              "duration": 0.010416666666666666
            },
            {
              "pitch": 45,
              "velocity": 60,
              "position": 3.6666666666666665,
              "duration": 0.010416666666666666
            }
          ]
        },
        "10": {
          "ctab": {
            "srcChannel": 10,
            "name": "Bass",
            "accType": "BASS",
            "editable": false,
            "mutedNotes": [],
            "mutedChords": [],
            "autoStart": false,
            "sourceChordNote": 0,
            "sourceChordType": "Maj7",
            "ctb2Low": null,
            "ctb2Main": {
              "ntr": "ROOT_TRANSPOSITION",
              "ntt": "MELODY",
              "bassOn": true,
              "chordRootUpperLimit": 8,
              "noteLowLimit": 28,
              "noteHighLimit": 127,
              "rtr": "PITCH_SHIFT_TO_ROOT"
            },
            "ctb2High": null
          },
          "notes": [
            {
              "pitch": 24,
              "velocity": 61,
              "position": 0,
              "duration": 0.65625
            },
            {
              "pitch": 24,
              "velocity": 101,
              "position": 0.6666666666666666,
              "duration": 0.325
            },
            {
              "pitch": 36,
              "velocity": 61,
              "position": 1,
              "duration": 1
            },
            {
              "pitch": 31,
              "velocity": 61,
              "position": 2,
              "duration": 1
            }
          ]
        },
        "11": {
          "ctab": {
            "srcChannel": 11,
            "name": "HiStrMg",
            "accType": "CHORD1",
            "editable": false,
            "mutedNotes": [],
            "mutedChords": [],
            "autoStart": false,
            "sourceChordNote": 0,
            "sourceChordType": "Maj7",
            "ctb2Low": null,
            "ctb2Main": {
              "ntr": "ROOT_FIXED",
              "ntt": "CHORD",
              "bassOn": false,
              "chordRootUpperLimit": 7,
              "noteLowLimit": 0,
              "noteHighLimit": 127,
              "rtr": "PITCH_SHIFT"
            },
            "ctb2High": null
          },
          "notes": [
            {
              "pitch": 55,
              "velocity": 115,
              "position": 0,
              "duration": 0.6583333333333333
            },
            {
              "pitch": 59,
              "velocity": 115,
              "position": 0.010416666666666666,
              "duration": 0.6479166666666667
            },
            {
              "pitch": 64,
              "velocity": 115,
              "position": 0.020833333333333332,
              "duration": 0.6375
            },
            {
              "pitch": 64,
              "velocity": 90,
              "position": 0.6666666666666666,
              "duration": 0.325
            },
            {
              "pitch": 59,
              "velocity": 83,
              "position": 0.6770833333333334,
              "duration": 0.3145833333333333
            },
            {
              "pitch": 55,
              "velocity": 83,
              "position": 0.6875,
              "duration": 0.30416666666666664
            },
            {
              "pitch": 55,
              "velocity": 116,
              "position": 1,
              "duration": 0.6583333333333333
            },
            {
              "pitch": 59,
              "velocity": 116,
              "position": 1.0104166666666667,
              "duration": 0.6479166666666667
            },
            {
              "pitch": 64,
              "velocity": 116,
              "position": 1.0208333333333333,
              "duration": 0.6375
            },
            {
              "pitch": 64,
              "velocity": 115,
              "position": 1.6666666666666667,
              "duration": 0.9916666666666667
            },
            {
              "pitch": 59,
              "velocity": 115,
              "position": 1.6770833333333333,
              "duration": 0.98125
            },
            {
              "pitch": 55,
              "velocity": 115,
              "position": 1.6875,
              "duration": 0.9708333333333333
            },
            {
              "pitch": 55,
              "velocity": 89,
              "position": 2.6666666666666665,
              "duration": 0.325
            },
            {
              "pitch": 59,
              "velocity": 89,
              "position": 2.6770833333333335,
              "duration": 0.3145833333333333
            },
            {
              "pitch": 64,
              "velocity": 89,
              "position": 2.6875,
              "duration": 0.30416666666666664
            },
            {
              "pitch": 64,
              "velocity": 116,
              "position": 3,
              "duration": 0.6583333333333333
            },
            {
              "pitch": 59,
              "velocity": 116,
              "position": 3.0104166666666665,
              "duration": 0.6479166666666667
            },
            {
              "pitch": 55,
              "velocity": 116,
              "position": 3.0208333333333335,
              "duration": 0.6375
            },
            {
              "pitch": 55,
              "velocity": 86,
              "position": 3.6666666666666665,
              "duration": 0.325
            },
            {
              "pitch": 59,
              "velocity": 89,
              "position": 3.6770833333333335,
              "duration": 0.3145833333333333
            },
            {
              "pitch": 64,
              "velocity": 90,
              "position": 3.6875,
              "duration": 0.30416666666666664
            }
          ]
        },
        "12": {
          "ctab": {
            "srcChannel": 12,
            "name": "ClGt",
            "accType": "CHORD2",
            "editable": false,
            "mutedNotes": [],
            "mutedChords": [],
            "autoStart": false,
            "sourceChordNote": 0,
            "sourceChordType": "Maj7",
            "ctb2Low": null,
            "ctb2Main": {
              "ntr": "ROOT_FIXED",
              "ntt": "CHORD",
              "bassOn": false,
              "chordRootUpperLimit": 7,
              "noteLowLimit": 0,
              "noteHighLimit": 127,
              "rtr": "PITCH_SHIFT"
            },
            "ctb2High": null
          },
          "notes": [
            {
              "pitch": 64,
              "velocity": 66,
              "position": 0,
              "duration": 3.9895833333333335
            },
            {
              "pitch": 55,
              "velocity": 48,
              "position": 1,
              "duration": 2.9895833333333335
            },
            {
              "pitch": 59,
              "velocity": 66,
              "position": 1.6666666666666667,
              "duration": 2.3229166666666665
            },
            {
              "pitch": 67,
              "velocity": 57,
              "position": 2.6666666666666665,
              "duration": 1.3229166666666667
            }
          ]
        },
        "13": {
          "ctab": {
            "srcChannel": 13,
            "name": "PedSt",
            "accType": "PHRASE1",
            "editable": false,
            "mutedNotes": [],
            "mutedChords": [],
            "autoStart": false,
            "sourceChordNote": 0,
            "sourceChordType": "Maj7",
            "ctb2Low": null,
            "ctb2Main": {
              "ntr": "ROOT_TRANSPOSITION",
              "ntt": "CHORD",
              "bassOn": false,
              "chordRootUpperLimit": 7,
              "noteLowLimit": 59,
              "noteHighLimit": 70,
              "rtr": "PITCH_SHIFT"
            },
            "ctb2High": null
          },
          "notes": []
        }
      }
    },
    "Fill_In_DD": {
      "type": "Fill_In_DD",
      "sizeInBeats": 4,
      "channels": {
        "1": {
          "ctab": {
            "srcChannel": 1,
            "name": "HiStrFX",
            "accType": "CHORD1",
            "editable": false,
            "mutedNotes": [],
            "mutedChords": [],
            "autoStart": false,
            "sourceChordNote": 0,
            "sourceChordType": "Maj7",
            "ctb2Low": null,
            "ctb2Main": {
              "ntr": "ROOT_FIXED",
              "ntt": "BYPASS",
              "bassOn": false,
              "chordRootUpperLimit": 7,
              "noteLowLimit": 0,
              "noteHighLimit": 79,
              "rtr": "PITCH_SHIFT"
            },
            "ctb2High": null
          },
          "notes": [
            {
              "pitch": 98,
              "velocity": 106,
              "position": 0,
              "duration": 0.23958333333333334
            },
            {
              "pitch": 99,
              "velocity": 91,
              "position": 0.6666666666666666,
              "duration": 0.23958333333333334
            },
            {
              "pitch": 100,
              "velocity": 103,
              "position": 1,
              "duration": 0.23958333333333334
            },
            {
              "pitch": 99,
              "velocity": 91,
              "position": 1.6666666666666667,
              "duration": 0.23958333333333334
            },
            {
              "pitch": 98,
              "velocity": 106,
              "position": 2,
              "duration": 0.23958333333333334
            },
            {
              "pitch": 99,
              "velocity": 91,
              "position": 2.6666666666666665,
              "duration": 0.23958333333333334
            },
            {
              "pitch": 100,
              "velocity": 103,
              "position": 3,
              "duration": 0.23958333333333334
            },
            {
              "pitch": 99,
              "velocity": 91,
              "position": 3.6666666666666665,
              "duration": 0.23958333333333334
            }
          ]
        },
        "2": {
          "ctab": {
            "srcChannel": 2,
            "name": "12StRoot",
            "accType": "CHORD1",
            "editable": false,
            "mutedNotes": [],
            "mutedChords": [
              "1+2+5",
              "sus4",
              "1+5",
              "1+8",
              "Maj7aug",
              "dim",
              "minMaj7(9)",
              "minMaj7",
              "min6",
              "min",
              "aug",
              "Maj7(9)",
              "Maj7#11",
              "Maj7",
              "Maj6",
              "Maj"
            ],
            "autoStart": false,
            "sourceChordNote": 0,
            "sourceChordType": "Maj7",
            "ctb2Low": null,
            "ctb2Main": {
              "ntr": "ROOT_TRANSPOSITION",
              "ntt": "CHORD",
              "bassOn": false,
              "chordRootUpperLimit": 6,
              "noteLowLimit": 0,
              "noteHighLimit": 127,
              "rtr": "PITCH_SHIFT"
            },
            "ctb2High": null
          },
          "notes": [
            {
              "pitch": 60,
              "velocity": 100,
              "position": 0,
              "duration": 0.65625
            },
            {
              "pitch": 60,
              "velocity": 68,
              "position": 0.6666666666666666,
              "duration": 0.3229166666666667
            },
            {
              "pitch": 60,
              "velocity": 101,
              "position": 1,
              "duration": 0.65625
            },
            {
              "pitch": 60,
              "velocity": 70,
              "position": 1.6666666666666667,
              "duration": 0.3125
            },
            {
              "pitch": 60,
              "velocity": 102,
              "position": 2,
              "duration": 0.65625
            },
            {
              "pitch": 60,
              "velocity": 74,
              "position": 2.6666666666666665,
              "duration": 0.3229166666666667
            },
            {
              "pitch": 60,
              "velocity": 101,
              "position": 3,
              "duration": 0.65625
            },
            {
              "pitch": 60,
              "velocity": 74,
              "position": 3.6666666666666665,
              "duration": 0.3125
            }
          ]
        },
        "4": {
          "ctab": {
            "srcChannel": 4,
            "name": "Ped Root",
            "accType": "PHRASE1",
            "editable": false,
            "mutedNotes": [],
            "mutedChords": [
              "1+2+5",
              "sus4",
              "1+5",
              "1+8",
              "Maj7aug",
              "dim",
              "minMaj7(9)",
              "minMaj7",
              "min6",
              "min",
              "aug",
              "Maj7(9)",
              "Maj7#11",
              "Maj7",
              "Maj6",
              "Maj"
            ],
            "autoStart": false,
            "sourceChordNote": 0,
            "sourceChordType": "Maj7",
            "ctb2Low": null,
            "ctb2Main": {
              "ntr": "ROOT_TRANSPOSITION",
              "ntt": "CHORD",
              "bassOn": false,
              "chordRootUpperLimit": 10,
              "noteLowLimit": 0,
              "noteHighLimit": 127,
              "rtr": "PITCH_SHIFT"
            },
            "ctb2High": null
          },
          "notes": [
            {
              "pitch": 60,
              "velocity": 64,
              "position": 2.6666666666666665,
              "duration": 0.3333333333333333
            }
          ]
        },
        "7": {
          "ctab": {
            "srcChannel": 7,
            "name": "CC_Crash",
            "accType": "RHYTHM",
            "editable": false,
            "mutedNotes": [],
            "mutedChords": [
              "1+2+5",
              "sus4",
              "1+5",
              "1+8",
              "7aug",
              "Maj7aug",
              "7(#9)",
              "7(b13)",
              "7(b9)",
              "7(13)",
              "7#11",
              "7(9)",
              "7b5",
              "7sus4",
              "7th",
              "dim7",
              "dim",
              "minMaj7(9)",
              "minMaj7",
              "min7(11)",
              "min7(9)",
              "min(9)",
              "m7b5",
              "min7",
              "min6",
              "min",
              "aug",
              "Maj6(9)",
              "Maj7(9)",
              "Maj(9)",
              "Maj7#11",
              "Maj7",
              "Maj6",
              "Maj"
            ],
            "autoStart": true,
            "sourceChordNote": 0,
            "sourceChordType": "Maj",
            "ctb2Low": null,
            "ctb2Main": {
              "ntr": "ROOT_FIXED",
              "ntt": "BYPASS",
              "bassOn": false,
              "chordRootUpperLimit": 0,
              "noteLowLimit": 0,
              "noteHighLimit": 127,
              "rtr": "RETRIGGER"
            },
            "ctb2High": null
          },
          "notes": []
        },
        "8": {
          "ctab": {
            "srcChannel": 8,
            "name": "Perc",
            "accType": "SUBRHYTHM",
            "editable": false,
            "mutedNotes": [],
            "mutedChords": [],
            "autoStart": true,
            "sourceChordNote": 0,
            "sourceChordType": "Maj7",
            "ctb2Low": null,
            "ctb2Main": {
              "ntr": "ROOT_FIXED",
              "ntt": "BYPASS",
              "bassOn": false,
              "chordRootUpperLimit": 6,
              "noteLowLimit": 0,
              "noteHighLimit": 127,
              "rtr": "PITCH_SHIFT"
            },
            "ctb2High": null
          },
          "notes": [
            {
              "pitch": 54,
              "velocity": 79,
              "position": 0,
              "duration": 0.010416666666666666
            },
            {
              "pitch": 54,
              "velocity": 38,
              "position": 0.6770833333333334,
              "duration": 0.010416666666666666
            },
            {
              "pitch": 54,
              "velocity": 124,
              "position": 1,
              "duration": 0.010416666666666666
            },
            {
              "pitch": 54,
              "velocity": 38,
              "position": 1.6770833333333333,
              "duration": 0.010416666666666666
            },
            {
              "pitch": 54,
              "velocity": 79,
              "position": 2,
              "duration": 0.010416666666666666
            },
            {
              "pitch": 54,
              "velocity": 38,
              "position": 2.6770833333333335,
              "duration": 0.010416666666666666
            },
            {
              "pitch": 54,
              "velocity": 89,
              "position": 3,
              "duration": 0.010416666666666666
            }
          ]
        },
        "9": {
          "ctab": {
            "srcChannel": 9,
            "name": "Drs",
            "accType": "RHYTHM",
            "editable": false,
            "mutedNotes": [],
            "mutedChords": [],
            "autoStart": true,
            "sourceChordNote": 0,
            "sourceChordType": "Maj7",
            "ctb2Low": null,
            "ctb2Main": {
              "ntr": "ROOT_FIXED",
              "ntt": "BYPASS",
              "bassOn": false,
              "chordRootUpperLimit": 6,
              "noteLowLimit": 0,
              "noteHighLimit": 127,
              "rtr": "PITCH_SHIFT"
            },
            "ctb2High": null
          },
          "notes": [
            {
              "pitch": 36,
              "velocity": 79,
              "position": 0,
              "duration": 0.010416666666666666
            },
            {
              "pitch": 59,
              "velocity": 60,
              "position": 0,
              "duration": 0.010416666666666666
            },
            {
              "pitch": 31,
              "velocity": 30,
              "position": 0.6666666666666666,
              "duration": 0.010416666666666666
            },
            {
              "pitch": 31,
              "velocity": 72,
              "position": 0.8333333333333334,
              "duration": 0.010416666666666666
            },
            {
              "pitch": 36,
              "velocity": 79,
              "position": 1,
              "duration": 0.010416666666666666
            },
            {
              "pitch": 38,
              "velocity": 62,
              "position": 1,
              "duration": 0.010416666666666666
            },
            {
              "pitch": 44,
              "velocity": 60,
              "position": 1,
              "duration": 0.010416666666666666
            },
            {
              "pitch": 31,
              "velocity": 50,
              "position": 1.3333333333333333,
              "duration": 0.010416666666666666
            },
            {
              "pitch": 47,
              "velocity": 40,
              "position": 1.6666666666666667,
              "duration": 0.010416666666666666
            },
            {
              "pitch": 36,
              "velocity": 79,
              "position": 2,
              "duration": 0.010416666666666666
            },
            {
              "pitch": 44,
              "velocity": 60,
              "position": 2,
              "duration": 0.010416666666666666
            },
            {
              "pitch": 47,
              "velocity": 60,
              "position": 2,
              "duration": 0.010416666666666666
            },
            {
              "pitch": 31,
              "velocity": 34,
              "position": 2.3333333333333335,
              "duration": 0.010416666666666666
            },
            {
              "pitch": 45,
              "velocity": 34,
              "position": 2.6666666666666665,
              "duration": 0.010416666666666666
            },
            {
              "pitch": 36,
              "velocity": 79,
              "position": 3,
              "duration": 0.010416666666666666
            },
            {
              "pitch": 44,
              "velocity": 60,
              "position": 3,
              "duration": 0.010416666666666666
            },
            {
              "pitch": 45,
              "velocity": 60,
              "position": 3,
              "duration": 0.010416666666666666
            },
            {
              "pitch": 31,
              "velocity": 44,
              "position": 3.3333333333333335,
              "duration": 0.010416666666666666
            },
            {
              "pitch": 36,
              "velocity": 51,
              "position": 3.6666666666666665,
              "duration": 0.010416666666666666
            }
          ]
        },
        "10": {
          "ctab": {
            "srcChannel": 10,
            "name": "Bass",
            "accType": "BASS",
            "editable": false,
            "mutedNotes": [],
            "mutedChords": [],
            "autoStart": false,
            "sourceChordNote": 0,
            "sourceChordType": "Maj7",
            "ctb2Low": null,
            "ctb2Main": {
              "ntr": "ROOT_TRANSPOSITION",
              "ntt": "MELODY",
              "bassOn": true,
              "chordRootUpperLimit": 8,
              "noteLowLimit": 28,
              "noteHighLimit": 127,
              "rtr": "PITCH_SHIFT_TO_ROOT"
            },
            "ctb2High": null
          },
          "notes": [
            {
              "pitch": 24,
              "velocity": 60,
              "position": 0,
              "duration": 0.65625
            },
            {
              "pitch": 24,
              "velocity": 45,
              "position": 0.6666666666666666,
              "duration": 0.24166666666666667
            },
            {
              "pitch": 24,
              "velocity": 60,
              "position": 1,
              "duration": 0.9895833333333334
            },
            {
              "pitch": 28,
              "velocity": 60,
              "position": 2,
              "duration": 0.9895833333333334
            },
            {
              "pitch": 31,
              "velocity": 60,
              "position": 3,
              "duration": 0.9895833333333334
            }
          ]
        },
        "11": {
          "ctab": {
            "srcChannel": 11,
            "name": "HiStrMg",
            "accType": "CHORD1",
            "editable": false,
            "mutedNotes": [],
            "mutedChords": [],
            "autoStart": false,
            "sourceChordNote": 0,
            "sourceChordType": "Maj7",
            "ctb2Low": null,
            "ctb2Main": {
              "ntr": "ROOT_FIXED",
              "ntt": "CHORD",
              "bassOn": false,
              "chordRootUpperLimit": 7,
              "noteLowLimit": 0,
              "noteHighLimit": 127,
              "rtr": "PITCH_SHIFT"
            },
            "ctb2High": null
          },
          "notes": [
            {
              "pitch": 55,
              "velocity": 115,
              "position": 0,
              "duration": 0.65625
            },
            {
              "pitch": 64,
              "velocity": 115,
              "position": 0.020833333333333332,
              "duration": 0.6354166666666666
            },
            {
              "pitch": 59,
              "velocity": 115,
              "position": 0.010416666666666666,
              "duration": 0.65625
            },
            {
              "pitch": 64,
              "velocity": 90,
              "position": 0.6666666666666666,
              "duration": 0.3229166666666667
            },
            {
              "pitch": 55,
              "velocity": 83,
              "position": 0.6875,
              "duration": 0.3020833333333333
            },
            {
              "pitch": 59,
              "velocity": 83,
              "position": 0.6770833333333334,
              "duration": 0.3229166666666667
            },
            {
              "pitch": 55,
              "velocity": 116,
              "position": 1,
              "duration": 0.65625
            },
            {
              "pitch": 64,
              "velocity": 116,
              "position": 1.0208333333333333,
              "duration": 0.6354166666666666
            },
            {
              "pitch": 59,
              "velocity": 116,
              "position": 1.0104166666666667,
              "duration": 0.65625
            },
            {
              "pitch": 64,
              "velocity": 85,
              "position": 1.6666666666666667,
              "duration": 0.3229166666666667
            },
            {
              "pitch": 59,
              "velocity": 85,
              "position": 1.6770833333333333,
              "duration": 0.3125
            },
            {
              "pitch": 55,
              "velocity": 85,
              "position": 1.6875,
              "duration": 0.3020833333333333
            },
            {
              "pitch": 55,
              "velocity": 117,
              "position": 2,
              "duration": 0.65625
            },
            {
              "pitch": 64,
              "velocity": 117,
              "position": 2.0208333333333335,
              "duration": 0.6354166666666666
            },
            {
              "pitch": 59,
              "velocity": 117,
              "position": 2.0104166666666665,
              "duration": 0.65625
            },
            {
              "pitch": 64,
              "velocity": 89,
              "position": 2.6666666666666665,
              "duration": 0.3229166666666667
            },
            {
              "pitch": 55,
              "velocity": 89,
              "position": 2.6875,
              "duration": 0.3020833333333333
            },
            {
              "pitch": 59,
              "velocity": 89,
              "position": 2.6770833333333335,
              "duration": 0.3229166666666667
            },
            {
              "pitch": 55,
              "velocity": 116,
              "position": 3,
              "duration": 0.65625
            },
            {
              "pitch": 64,
              "velocity": 116,
              "position": 3.0208333333333335,
              "duration": 0.6354166666666666
            },
            {
              "pitch": 59,
              "velocity": 116,
              "position": 3.0104166666666665,
              "duration": 0.65625
            },
            {
              "pitch": 64,
              "velocity": 90,
              "position": 3.6666666666666665,
              "duration": 0.3229166666666667
            },
            {
              "pitch": 59,
              "velocity": 89,
              "position": 3.6770833333333335,
              "duration": 0.3125
            },
            {
              "pitch": 55,
              "velocity": 86,
              "position": 3.6875,
              "duration": 0.3020833333333333
            }
          ]
        },
        "12": {
          "ctab": {
            "srcChannel": 12,
            "name": "ClGt",
            "accType": "CHORD2",
            "editable": false,
            "mutedNotes": [],
            "mutedChords": [],
            "autoStart": false,
            "sourceChordNote": 0,
            "sourceChordType": "Maj7",
            "ctb2Low": null,
            "ctb2Main": {
              "ntr": "ROOT_FIXED",
              "ntt": "CHORD",
              "bassOn": false,
              "chordRootUpperLimit": 7,
              "noteLowLimit": 0,
              "noteHighLimit": 127,
              "rtr": "PITCH_SHIFT"
            },
            "ctb2High": null
          },
          "notes": [
            {
              "pitch": 64,
              "velocity": 66,
              "position": 1,
              "duration": 1.6145833333333333
            },
            {
              "pitch": 59,
              "velocity": 57,
              "position": 0.9166666666666666,
              "duration": 2.0520833333333335
            },
            {
              "pitch": 55,
              "velocity": 57,
              "position": 0.8333333333333334,
              "duration": 2.7395833333333335
            },
            {
              "pitch": 55,
              "velocity": 48,
              "position": 3.6666666666666665,
              "duration": 0.3229166666666667
            },
            {
              "pitch": 59,
              "velocity": 57,
              "position": 3,
              "duration": 0.9895833333333334
            },
            {
              "pitch": 64,
              "velocity": 66,
              "position": 2.6666666666666665,
              "duration": 1.3229166666666667
            }
          ]
        },
        "13": {
          "ctab": {
            "srcChannel": 13,
            "name": "PedSt",
            "accType": "PHRASE1",
            "editable": false,
            "mutedNotes": [],
            "mutedChords": [],
            "autoStart": false,
            "sourceChordNote": 0,
            "sourceChordType": "Maj7",
            "ctb2Low": null,
            "ctb2Main": {
              "ntr": "ROOT_TRANSPOSITION",
              "ntt": "CHORD",
              "bassOn": false,
              "chordRootUpperLimit": 7,
              "noteLowLimit": 59,
              "noteHighLimit": 70,
              "rtr": "PITCH_SHIFT"
            },
            "ctb2High": null
          },
          "notes": [
            {
              "pitch": 59,
              "velocity": 58,
              "position": 0.6666666666666666,
              "duration": 1.9895833333333333
            },
            {
              "pitch": 67,
              "velocity": 58,
              "position": 1,
              "duration": 1.65625
            },
            {
              "pitch": 64,
              "velocity": 58,
              "position": 1.6666666666666667,
              "duration": 0.9895833333333334
            },
            {
              "pitch": 59,
              "velocity": 58,
              "position": 2.6666666666666665,
              "duration": 0.3333333333333333
            },
            {
              "pitch": 64,
              "velocity": 58,
              "position": 2.6666666666666665,
              "duration": 0.3333333333333333
            },
            {
              "pitch": 67,
              "velocity": 58,
              "position": 2.6666666666666665,
              "duration": 0.3333333333333333
            }
          ]
        }
      }
    },
    "Intro_A": {
      "type": "Intro_A",
      "sizeInBeats": 4,
      "channels": {
        "1": {
          "ctab": {
            "srcChannel": 1,
            "name": "HiStrFX",
            "accType": "CHORD1",
            "editable": false,
            "mutedNotes": [],
            "mutedChords": [],
            "autoStart": false,
            "sourceChordNote": 0,
            "sourceChordType": "Maj7",
            "ctb2Low": null,
            "ctb2Main": {
              "ntr": "ROOT_FIXED",
              "ntt": "BYPASS",
              "bassOn": false,
              "chordRootUpperLimit": 7,
              "noteLowLimit": 0,
              "noteHighLimit": 79,
              "rtr": "PITCH_SHIFT"
            },
            "ctb2High": null
          },
          "notes": []
        },
        "2": {
          "ctab": {
            "srcChannel": 2,
            "name": "12StRoot",
            "accType": "CHORD1",
            "editable": false,
            "mutedNotes": [],
            "mutedChords": [
              "1+2+5",
              "sus4",
              "1+5",
              "1+8",
              "Maj7aug",
              "dim",
              "minMaj7(9)",
              "minMaj7",
              "min6",
              "min",
              "aug",
              "Maj7(9)",
              "Maj7#11",
              "Maj7",
              "Maj6",
              "Maj"
            ],
            "autoStart": false,
            "sourceChordNote": 0,
            "sourceChordType": "Maj7",
            "ctb2Low": null,
            "ctb2Main": {
              "ntr": "ROOT_TRANSPOSITION",
              "ntt": "CHORD",
              "bassOn": false,
              "chordRootUpperLimit": 6,
              "noteLowLimit": 0,
              "noteHighLimit": 127,
              "rtr": "PITCH_SHIFT"
            },
            "ctb2High": null
          },
          "notes": []
        },
        "4": {
          "ctab": {
            "srcChannel": 4,
            "name": "Ped Root",
            "accType": "PHRASE1",
            "editable": false,
            "mutedNotes": [],
            "mutedChords": [
              "1+2+5",
              "sus4",
              "1+5",
              "1+8",
              "Maj7aug",
              "dim",
              "minMaj7(9)",
              "minMaj7",
              "min6",
              "min",
              "aug",
              "Maj7(9)",
              "Maj7#11",
              "Maj7",
              "Maj6",
              "Maj"
            ],
            "autoStart": false,
            "sourceChordNote": 0,
            "sourceChordType": "Maj7",
            "ctb2Low": null,
            "ctb2Main": {
              "ntr": "ROOT_TRANSPOSITION",
              "ntt": "CHORD",
              "bassOn": false,
              "chordRootUpperLimit": 10,
              "noteLowLimit": 0,
              "noteHighLimit": 127,
              "rtr": "PITCH_SHIFT"
            },
            "ctb2High": null
          },
          "notes": []
        },
        "7": {
          "ctab": {
            "srcChannel": 7,
            "name": "CC_Crash",
            "accType": "RHYTHM",
            "editable": false,
            "mutedNotes": [],
            "mutedChords": [
              "1+2+5",
              "sus4",
              "1+5",
              "1+8",
              "7aug",
              "Maj7aug",
              "7(#9)",
              "7(b13)",
              "7(b9)",
              "7(13)",
              "7#11",
              "7(9)",
              "7b5",
              "7sus4",
              "7th",
              "dim7",
              "dim",
              "minMaj7(9)",
              "minMaj7",
              "min7(11)",
              "min7(9)",
              "min(9)",
              "m7b5",
              "min7",
              "min6",
              "min",
              "aug",
              "Maj6(9)",
              "Maj7(9)",
              "Maj(9)",
              "Maj7#11",
              "Maj7",
              "Maj6",
              "Maj"
            ],
            "autoStart": true,
            "sourceChordNote": 0,
            "sourceChordType": "Maj",
            "ctb2Low": null,
            "ctb2Main": {
              "ntr": "ROOT_FIXED",
              "ntt": "BYPASS",
              "bassOn": false,
              "chordRootUpperLimit": 0,
              "noteLowLimit": 0,
              "noteHighLimit": 127,
              "rtr": "RETRIGGER"
            },
            "ctb2High": null
          },
          "notes": []
        },
        "8": {
          "ctab": {
            "srcChannel": 8,
            "name": "Perc",
            "accType": "SUBRHYTHM",
            "editable": false,
            "mutedNotes": [],
            "mutedChords": [],
            "autoStart": true,
            "sourceChordNote": 0,
            "sourceChordType": "Maj7",
            "ctb2Low": null,
            "ctb2Main": {
              "ntr": "ROOT_FIXED",
              "ntt": "BYPASS",
              "bassOn": false,
              "chordRootUpperLimit": 6,
              "noteLowLimit": 0,
              "noteHighLimit": 127,
              "rtr": "PITCH_SHIFT"
            },
            "ctb2High": null
          },
          "notes": []
        },
        "9": {
          "ctab": {
            "srcChannel": 9,
            "name": "Drs",
            "accType": "RHYTHM",
            "editable": false,
            "mutedNotes": [],
            "mutedChords": [],
            "autoStart": true,
            "sourceChordNote": 0,
            "sourceChordType": "Maj7",
            "ctb2Low": null,
            "ctb2Main": {
              "ntr": "ROOT_FIXED",
              "ntt": "BYPASS",
              "bassOn": false,
              "chordRootUpperLimit": 6,
              "noteLowLimit": 0,
              "noteHighLimit": 127,
              "rtr": "PITCH_SHIFT"
            },
            "ctb2High": null
          },
          "notes": [
            {
              "pitch": 32,
              "velocity": 94,
              "position": 0,
              "duration": 0.010416666666666666
            },
            {
              "pitch": 32,
              "velocity": 94,
              "position": 1,
              "duration": 0.010416666666666666
            },
            {
              "pitch": 44,
              "velocity": 60,
              "position": 1,
              "duration": 0.010416666666666666
            },
            {
              "pitch": 27,
              "velocity": 42,
              "position": 1.6666666666666667,
              "duration": 0.010416666666666666
            },
            {
              "pitch": 25,
              "velocity": 88,
              "position": 1.8333333333333333,
              "duration": 0.010416666666666666
            },
            {
              "pitch": 25,
              "velocity": 120,
              "position": 2,
              "duration": 0.010416666666666666
            },
            {
              "pitch": 25,
              "velocity": 32,
              "position": 2.3333333333333335,
              "duration": 0.010416666666666666
            },
            {
              "pitch": 36,
              "velocity": 51,
              "position": 2.6666666666666665,
              "duration": 0.010416666666666666
            },
            {
              "pitch": 37,
              "velocity": 25,
              "position": 2.6666666666666665,
              "duration": 0.010416666666666666
            },
            {
              "pitch": 36,
              "velocity": 79,
              "position": 3,
              "duration": 0.010416666666666666
            },
            {
              "pitch": 37,
              "velocity": 85,
              "position": 3,
              "duration": 0.010416666666666666
            },
            {
              "pitch": 46,
              "velocity": 60,
              "position": 3,
              "duration": 0.010416666666666666
            }
          ]
        },
        "10": {
          "ctab": {
            "srcChannel": 10,
            "name": "Bass",
            "accType": "BASS",
            "editable": false,
            "mutedNotes": [],
            "mutedChords": [],
            "autoStart": false,
            "sourceChordNote": 0,
            "sourceChordType": "Maj7",
            "ctb2Low": null,
            "ctb2Main": {
              "ntr": "ROOT_TRANSPOSITION",
              "ntt": "MELODY",
              "bassOn": true,
              "chordRootUpperLimit": 8,
              "noteLowLimit": 28,
              "noteHighLimit": 127,
              "rtr": "PITCH_SHIFT_TO_ROOT"
            },
            "ctb2High": null
          },
          "notes": []
        },
        "11": {
          "ctab": {
            "srcChannel": 11,
            "name": "HiStrMg",
            "accType": "CHORD1",
            "editable": false,
            "mutedNotes": [],
            "mutedChords": [],
            "autoStart": false,
            "sourceChordNote": 0,
            "sourceChordType": "Maj7",
            "ctb2Low": null,
            "ctb2Main": {
              "ntr": "ROOT_FIXED",
              "ntt": "CHORD",
              "bassOn": false,
              "chordRootUpperLimit": 7,
              "noteLowLimit": 0,
              "noteHighLimit": 127,
              "rtr": "PITCH_SHIFT"
            },
            "ctb2High": null
          },
          "notes": []
        },
        "12": {
          "ctab": {
            "srcChannel": 12,
            "name": "ClGt",
            "accType": "CHORD2",
            "editable": false,
            "mutedNotes": [],
            "mutedChords": [],
            "autoStart": false,
            "sourceChordNote": 0,
            "sourceChordType": "Maj7",
            "ctb2Low": null,
            "ctb2Main": {
              "ntr": "ROOT_FIXED",
              "ntt": "CHORD",
              "bassOn": false,
              "chordRootUpperLimit": 7,
              "noteLowLimit": 0,
              "noteHighLimit": 127,
              "rtr": "PITCH_SHIFT"
            },
            "ctb2High": null
          },
          "notes": []
        },
        "13": {
          "ctab": {
            "srcChannel": 13,
            "name": "PedSt",
            "accType": "PHRASE1",
            "editable": false,
            "mutedNotes": [],
            "mutedChords": [],
            "autoStart": false,
            "sourceChordNote": 0,
            "sourceChordType": "Maj7",
            "ctb2Low": null,
            "ctb2Main": {
              "ntr": "ROOT_TRANSPOSITION",
              "ntt": "CHORD",
              "bassOn": false,
              "chordRootUpperLimit": 7,
              "noteLowLimit": 59,
              "noteHighLimit": 70,
              "rtr": "PITCH_SHIFT"
            },
            "ctb2High": null
          },
          "notes": []
        }
      }
    },
    "Ending_A": {
      "type": "Ending_A",
      "sizeInBeats": 8,
      "channels": {
        "1": {
          "ctab": {
            "srcChannel": 1,
            "name": "HiStrFX",
            "accType": "CHORD1",
            "editable": false,
            "mutedNotes": [],
            "mutedChords": [],
            "autoStart": false,
            "sourceChordNote": 0,
            "sourceChordType": "Maj7",
            "ctb2Low": null,
            "ctb2Main": {
              "ntr": "ROOT_FIXED",
              "ntt": "BYPASS",
              "bassOn": false,
              "chordRootUpperLimit": 7,
              "noteLowLimit": 0,
              "noteHighLimit": 79,
              "rtr": "PITCH_SHIFT"
            },
            "ctb2High": null
          },
          "notes": [
            {
              "pitch": 98,
              "velocity": 101,
              "position": 0,
              "duration": 0.23958333333333334
            }
          ]
        },
        "2": {
          "ctab": {
            "srcChannel": 2,
            "name": "12StRoot",
            "accType": "CHORD1",
            "editable": false,
            "mutedNotes": [],
            "mutedChords": [
              "1+2+5",
              "sus4",
              "1+5",
              "1+8",
              "Maj7aug",
              "dim",
              "minMaj7(9)",
              "minMaj7",
              "min6",
              "min",
              "aug",
              "Maj7(9)",
              "Maj7#11",
              "Maj7",
              "Maj6",
              "Maj"
            ],
            "autoStart": false,
            "sourceChordNote": 0,
            "sourceChordType": "Maj7",
            "ctb2Low": null,
            "ctb2Main": {
              "ntr": "ROOT_TRANSPOSITION",
              "ntt": "CHORD",
              "bassOn": false,
              "chordRootUpperLimit": 6,
              "noteLowLimit": 0,
              "noteHighLimit": 127,
              "rtr": "PITCH_SHIFT"
            },
            "ctb2High": null
          },
          "notes": [
            {
              "pitch": 60,
              "velocity": 100,
              "position": 0,
              "duration": 7.96875
            }
          ]
        },
        "4": {
          "ctab": {
            "srcChannel": 4,
            "name": "Ped Root",
            "accType": "PHRASE1",
            "editable": false,
            "mutedNotes": [],
            "mutedChords": [
              "1+2+5",
              "sus4",
              "1+5",
              "1+8",
              "Maj7aug",
              "dim",
              "minMaj7(9)",
              "minMaj7",
              "min6",
              "min",
              "aug",
              "Maj7(9)",
              "Maj7#11",
              "Maj7",
              "Maj6",
              "Maj"
            ],
            "autoStart": false,
            "sourceChordNote": 0,
            "sourceChordType": "Maj7",
            "ctb2Low": null,
            "ctb2Main": {
              "ntr": "ROOT_TRANSPOSITION",
              "ntt": "CHORD",
              "bassOn": false,
              "chordRootUpperLimit": 10,
              "noteLowLimit": 0,
              "noteHighLimit": 127,
              "rtr": "PITCH_SHIFT"
            },
            "ctb2High": null
          },
          "notes": [
            {
              "pitch": 60,
              "velocity": 64,
              "position": 0.041666666666666664,
              "duration": 7.78125
            }
          ]
        },
        "7": {
          "ctab": {
            "srcChannel": 7,
            "name": "CC_Crash",
            "accType": "RHYTHM",
            "editable": false,
            "mutedNotes": [],
            "mutedChords": [
              "1+2+5",
              "sus4",
              "1+5",
              "1+8",
              "7aug",
              "Maj7aug",
              "7(#9)",
              "7(b13)",
              "7(b9)",
              "7(13)",
              "7#11",
              "7(9)",
              "7b5",
              "7sus4",
              "7th",
              "dim7",
              "dim",
              "minMaj7(9)",
              "minMaj7",
              "min7(11)",
              "min7(9)",
              "min(9)",
              "m7b5",
              "min7",
              "min6",
              "min",
              "aug",
              "Maj6(9)",
              "Maj7(9)",
              "Maj(9)",
              "Maj7#11",
              "Maj7",
              "Maj6",
              "Maj"
            ],
            "autoStart": true,
            "sourceChordNote": 0,
            "sourceChordType": "Maj",
            "ctb2Low": null,
            "ctb2Main": {
              "ntr": "ROOT_FIXED",
              "ntt": "BYPASS",
              "bassOn": false,
              "chordRootUpperLimit": 0,
              "noteLowLimit": 0,
              "noteHighLimit": 127,
              "rtr": "RETRIGGER"
            },
            "ctb2High": null
          },
          "notes": []
        },
        "8": {
          "ctab": {
            "srcChannel": 8,
            "name": "Perc",
            "accType": "SUBRHYTHM",
            "editable": false,
            "mutedNotes": [],
            "mutedChords": [],
            "autoStart": true,
            "sourceChordNote": 0,
            "sourceChordType": "Maj7",
            "ctb2Low": null,
            "ctb2Main": {
              "ntr": "ROOT_FIXED",
              "ntt": "BYPASS",
              "bassOn": false,
              "chordRootUpperLimit": 6,
              "noteLowLimit": 0,
              "noteHighLimit": 127,
              "rtr": "PITCH_SHIFT"
            },
            "ctb2High": null
          },
          "notes": [
            {
              "pitch": 54,
              "velocity": 89,
              "position": 0,
              "duration": 0.010416666666666666
            }
          ]
        },
        "9": {
          "ctab": {
            "srcChannel": 9,
            "name": "Drs",
            "accType": "RHYTHM",
            "editable": false,
            "mutedNotes": [],
            "mutedChords": [],
            "autoStart": true,
            "sourceChordNote": 0,
            "sourceChordType": "Maj7",
            "ctb2Low": null,
            "ctb2Main": {
              "ntr": "ROOT_FIXED",
              "ntt": "BYPASS",
              "bassOn": false,
              "chordRootUpperLimit": 6,
              "noteLowLimit": 0,
              "noteHighLimit": 127,
              "rtr": "PITCH_SHIFT"
            },
            "ctb2High": null
          },
          "notes": [
            {
              "pitch": 36,
              "velocity": 79,
              "position": 0,
              "duration": 0.010416666666666666
            }
          ]
        },
        "10": {
          "ctab": {
            "srcChannel": 10,
            "name": "Bass",
            "accType": "BASS",
            "editable": false,
            "mutedNotes": [],
            "mutedChords": [],
            "autoStart": false,
            "sourceChordNote": 0,
            "sourceChordType": "Maj7",
            "ctb2Low": null,
            "ctb2Main": {
              "ntr": "ROOT_TRANSPOSITION",
              "ntt": "MELODY",
              "bassOn": true,
              "chordRootUpperLimit": 8,
              "noteLowLimit": 28,
              "noteHighLimit": 127,
              "rtr": "PITCH_SHIFT_TO_ROOT"
            },
            "ctb2High": null
          },
          "notes": [
            {
              "pitch": 24,
              "velocity": 60,
              "position": 0,
              "duration": 7.989583333333333
            }
          ]
        },
        "11": {
          "ctab": {
            "srcChannel": 11,
            "name": "HiStrMg",
            "accType": "CHORD1",
            "editable": false,
            "mutedNotes": [],
            "mutedChords": [],
            "autoStart": false,
            "sourceChordNote": 0,
            "sourceChordType": "Maj7",
            "ctb2Low": null,
            "ctb2Main": {
              "ntr": "ROOT_FIXED",
              "ntt": "CHORD",
              "bassOn": false,
              "chordRootUpperLimit": 7,
              "noteLowLimit": 0,
              "noteHighLimit": 127,
              "rtr": "PITCH_SHIFT"
            },
            "ctb2High": null
          },
          "notes": [
            {
              "pitch": 55,
              "velocity": 115,
              "position": 0,
              "duration": 7.989583333333333
            },
            {
              "pitch": 59,
              "velocity": 115,
              "position": 0.020833333333333332,
              "duration": 7.96875
            },
            {
              "pitch": 64,
              "velocity": 115,
              "position": 0.041666666666666664,
              "duration": 7.947916666666667
            }
          ]
        },
        "12": {
          "ctab": {
            "srcChannel": 12,
            "name": "ClGt",
            "accType": "CHORD2",
            "editable": false,
            "mutedNotes": [],
            "mutedChords": [],
            "autoStart": false,
            "sourceChordNote": 0,
            "sourceChordType": "Maj7",
            "ctb2Low": null,
            "ctb2Main": {
              "ntr": "ROOT_FIXED",
              "ntt": "CHORD",
              "bassOn": false,
              "chordRootUpperLimit": 7,
              "noteLowLimit": 0,
              "noteHighLimit": 127,
              "rtr": "PITCH_SHIFT"
            },
            "ctb2High": null
          },
          "notes": [
            {
              "pitch": 55,
              "velocity": 66,
              "position": 0,
              "duration": 7.802083333333333
            },
            {
              "pitch": 59,
              "velocity": 66,
              "position": 0.020833333333333332,
              "duration": 7.78125
            },
            {
              "pitch": 64,
              "velocity": 66,
              "position": 0.041666666666666664,
              "duration": 7.78125
            }
          ]
        },
        "13": {
          "ctab": {
            "srcChannel": 13,
            "name": "PedSt",
            "accType": "PHRASE1",
            "editable": false,
            "mutedNotes": [],
            "mutedChords": [],
            "autoStart": false,
            "sourceChordNote": 0,
            "sourceChordType": "Maj7",
            "ctb2Low": null,
            "ctb2Main": {
              "ntr": "ROOT_TRANSPOSITION",
              "ntt": "CHORD",
              "bassOn": false,
              "chordRootUpperLimit": 7,
              "noteLowLimit": 59,
              "noteHighLimit": 70,
              "rtr": "PITCH_SHIFT"
            },
            "ctb2High": null
          },
          "notes": [
            {
              "pitch": 52,
              "velocity": 58,
              "position": 0,
              "duration": 7.802083333333333
            },
            {
              "pitch": 55,
              "velocity": 58,
              "position": 0.020833333333333332,
              "duration": 7.78125
            },
            {
              "pitch": 59,
              "velocity": 58,
              "position": 0.041666666666666664,
              "duration": 7.78125
            }
          ]
        }
      }
    },
    "Fill_In_BA": {
      "type": "Fill_In_BA",
      "sizeInBeats": 4,
      "channels": {
        "1": {
          "ctab": {
            "srcChannel": 1,
            "name": "HiStrFX",
            "accType": "CHORD1",
            "editable": false,
            "mutedNotes": [],
            "mutedChords": [],
            "autoStart": false,
            "sourceChordNote": 0,
            "sourceChordType": "Maj7",
            "ctb2Low": null,
            "ctb2Main": {
              "ntr": "ROOT_FIXED",
              "ntt": "BYPASS",
              "bassOn": false,
              "chordRootUpperLimit": 7,
              "noteLowLimit": 0,
              "noteHighLimit": 79,
              "rtr": "PITCH_SHIFT"
            },
            "ctb2High": null
          },
          "notes": [
            {
              "pitch": 98,
              "velocity": 101,
              "position": 0,
              "duration": 0.23958333333333334
            },
            {
              "pitch": 100,
              "velocity": 101,
              "position": 1,
              "duration": 0.23958333333333334
            }
          ]
        },
        "2": {
          "ctab": {
            "srcChannel": 2,
            "name": "12StRoot",
            "accType": "CHORD1",
            "editable": false,
            "mutedNotes": [],
            "mutedChords": [
              "1+2+5",
              "sus4",
              "1+5",
              "1+8",
              "Maj7aug",
              "dim",
              "minMaj7(9)",
              "minMaj7",
              "min6",
              "min",
              "aug",
              "Maj7(9)",
              "Maj7#11",
              "Maj7",
              "Maj6",
              "Maj"
            ],
            "autoStart": false,
            "sourceChordNote": 0,
            "sourceChordType": "Maj7",
            "ctb2Low": null,
            "ctb2Main": {
              "ntr": "ROOT_TRANSPOSITION",
              "ntt": "CHORD",
              "bassOn": false,
              "chordRootUpperLimit": 6,
              "noteLowLimit": 0,
              "noteHighLimit": 127,
              "rtr": "PITCH_SHIFT"
            },
            "ctb2High": null
          },
          "notes": [
            {
              "pitch": 60,
              "velocity": 101,
              "position": 0,
              "duration": 0.46875
            },
            {
              "pitch": 60,
              "velocity": 101,
              "position": 1,
              "duration": 0.46875
            }
          ]
        },
        "4": {
          "ctab": {
            "srcChannel": 4,
            "name": "Ped Root",
            "accType": "PHRASE1",
            "editable": false,
            "mutedNotes": [],
            "mutedChords": [
              "1+2+5",
              "sus4",
              "1+5",
              "1+8",
              "Maj7aug",
              "dim",
              "minMaj7(9)",
              "minMaj7",
              "min6",
              "min",
              "aug",
              "Maj7(9)",
              "Maj7#11",
              "Maj7",
              "Maj6",
              "Maj"
            ],
            "autoStart": false,
            "sourceChordNote": 0,
            "sourceChordType": "Maj7",
            "ctb2Low": null,
            "ctb2Main": {
              "ntr": "ROOT_TRANSPOSITION",
              "ntt": "CHORD",
              "bassOn": false,
              "chordRootUpperLimit": 10,
              "noteLowLimit": 0,
              "noteHighLimit": 127,
              "rtr": "PITCH_SHIFT"
            },
            "ctb2High": null
          },
          "notes": []
        },
        "7": {
          "ctab": {
            "srcChannel": 7,
            "name": "CC_Crash",
            "accType": "RHYTHM",
            "editable": false,
            "mutedNotes": [],
            "mutedChords": [
              "1+2+5",
              "sus4",
              "1+5",
              "1+8",
              "7aug",
              "Maj7aug",
              "7(#9)",
              "7(b13)",
              "7(b9)",
              "7(13)",
              "7#11",
              "7(9)",
              "7b5",
              "7sus4",
              "7th",
              "dim7",
              "dim",
              "minMaj7(9)",
              "minMaj7",
              "min7(11)",
              "min7(9)",
              "min(9)",
              "m7b5",
              "min7",
              "min6",
              "min",
              "aug",
              "Maj6(9)",
              "Maj7(9)",
              "Maj(9)",
              "Maj7#11",
              "Maj7",
              "Maj6",
              "Maj"
            ],
            "autoStart": true,
            "sourceChordNote": 0,
            "sourceChordType": "Maj",
            "ctb2Low": null,
            "ctb2Main": {
              "ntr": "ROOT_FIXED",
              "ntt": "BYPASS",
              "bassOn": false,
              "chordRootUpperLimit": 0,
              "noteLowLimit": 0,
              "noteHighLimit": 127,
              "rtr": "RETRIGGER"
            },
            "ctb2High": null
          },
          "notes": []
        },
        "8": {
          "ctab": {
            "srcChannel": 8,
            "name": "Perc",
            "accType": "SUBRHYTHM",
            "editable": false,
            "mutedNotes": [],
            "mutedChords": [],
            "autoStart": true,
            "sourceChordNote": 0,
            "sourceChordType": "Maj7",
            "ctb2Low": null,
            "ctb2Main": {
              "ntr": "ROOT_FIXED",
              "ntt": "BYPASS",
              "bassOn": false,
              "chordRootUpperLimit": 6,
              "noteLowLimit": 0,
              "noteHighLimit": 127,
              "rtr": "PITCH_SHIFT"
            },
            "ctb2High": null
          },
          "notes": [
            {
              "pitch": 54,
              "velocity": 89,
              "position": 0,
              "duration": 0.010416666666666666
            },
            {
              "pitch": 54,
              "velocity": 89,
              "position": 1,
              "duration": 0.010416666666666666
            }
          ]
        },
        "9": {
          "ctab": {
            "srcChannel": 9,
            "name": "Drs",
            "accType": "RHYTHM",
            "editable": false,
            "mutedNotes": [],
            "mutedChords": [],
            "autoStart": true,
            "sourceChordNote": 0,
            "sourceChordType": "Maj7",
            "ctb2Low": null,
            "ctb2Main": {
              "ntr": "ROOT_FIXED",
              "ntt": "BYPASS",
              "bassOn": false,
              "chordRootUpperLimit": 6,
              "noteLowLimit": 0,
              "noteHighLimit": 127,
              "rtr": "PITCH_SHIFT"
            },
            "ctb2High": null
          },
          "notes": [
            {
              "pitch": 36,
              "velocity": 79,
              "position": 0,
              "duration": 0.010416666666666666
            },
            {
              "pitch": 46,
              "velocity": 60,
              "position": 0,
              "duration": 0.010416666666666666
            },
            {
              "pitch": 44,
              "velocity": 1,
              "position": 0.3333333333333333,
              "duration": 0.010416666666666666
            },
            {
              "pitch": 31,
              "velocity": 110,
              "position": 1,
              "duration": 0.010416666666666666
            },
            {
              "pitch": 36,
              "velocity": 79,
              "position": 1,
              "duration": 0.010416666666666666
            },
            {
              "pitch": 46,
              "velocity": 60,
              "position": 1,
              "duration": 0.010416666666666666
            },
            {
              "pitch": 44,
              "velocity": 1,
              "position": 1.3333333333333333,
              "duration": 0.010416666666666666
            },
            {
              "pitch": 31,
              "velocity": 35,
              "position": 1.6666666666666667,
              "duration": 0.010416666666666666
            },
            {
              "pitch": 31,
              "velocity": 57,
              "position": 1.8333333333333333,
              "duration": 0.010416666666666666
            },
            {
              "pitch": 38,
              "velocity": 70,
              "position": 2,
              "duration": 0.010416666666666666
            },
            {
              "pitch": 31,
              "velocity": 34,
              "position": 2.3333333333333335,
              "duration": 0.010416666666666666
            },
            {
              "pitch": 45,
              "velocity": 33,
              "position": 2.6666666666666665,
              "duration": 0.010416666666666666
            },
            {
              "pitch": 36,
              "velocity": 79,
              "position": 3,
              "duration": 0.010416666666666666
            },
            {
              "pitch": 45,
              "velocity": 60,
              "position": 3,
              "duration": 0.010416666666666666
            },
            {
              "pitch": 46,
              "velocity": 60,
              "position": 3,
              "duration": 0.010416666666666666
            },
            {
              "pitch": 57,
              "velocity": 50,
              "position": 3.9895833333333335,
              "duration": 0.010416666666666666
            }
          ]
        },
        "10": {
          "ctab": {
            "srcChannel": 10,
            "name": "Bass",
            "accType": "BASS",
            "editable": false,
            "mutedNotes": [],
            "mutedChords": [],
            "autoStart": false,
            "sourceChordNote": 0,
            "sourceChordType": "Maj7",
            "ctb2Low": null,
            "ctb2Main": {
              "ntr": "ROOT_TRANSPOSITION",
              "ntt": "MELODY",
              "bassOn": true,
              "chordRootUpperLimit": 8,
              "noteLowLimit": 28,
              "noteHighLimit": 127,
              "rtr": "PITCH_SHIFT_TO_ROOT"
            },
            "ctb2High": null
          },
          "notes": [
            {
              "pitch": 24,
              "velocity": 62,
              "position": 0,
              "duration": 0.4895833333333333
            },
            {
              "pitch": 24,
              "velocity": 62,
              "position": 1,
              "duration": 0.4895833333333333
            }
          ]
        },
        "11": {
          "ctab": {
            "srcChannel": 11,
            "name": "HiStrMg",
            "accType": "CHORD1",
            "editable": false,
            "mutedNotes": [],
            "mutedChords": [],
            "autoStart": false,
            "sourceChordNote": 0,
            "sourceChordType": "Maj7",
            "ctb2Low": null,
            "ctb2Main": {
              "ntr": "ROOT_FIXED",
              "ntt": "CHORD",
              "bassOn": false,
              "chordRootUpperLimit": 7,
              "noteLowLimit": 0,
              "noteHighLimit": 127,
              "rtr": "PITCH_SHIFT"
            },
            "ctb2High": null
          },
          "notes": [
            {
              "pitch": 64,
              "velocity": 116,
              "position": 0.020833333333333332,
              "duration": 0.4479166666666667
            },
            {
              "pitch": 59,
              "velocity": 116,
              "position": 0.010416666666666666,
              "duration": 0.46875
            },
            {
              "pitch": 55,
              "velocity": 116,
              "position": 0,
              "duration": 0.4895833333333333
            },
            {
              "pitch": 64,
              "velocity": 116,
              "position": 1.0208333333333333,
              "duration": 0.4479166666666667
            },
            {
              "pitch": 59,
              "velocity": 116,
              "position": 1.0104166666666667,
              "duration": 0.46875
            },
            {
              "pitch": 55,
              "velocity": 116,
              "position": 1,
              "duration": 0.4895833333333333
            }
          ]
        },
        "12": {
          "ctab": {
            "srcChannel": 12,
            "name": "ClGt",
            "accType": "CHORD2",
            "editable": false,
            "mutedNotes": [],
            "mutedChords": [],
            "autoStart": false,
            "sourceChordNote": 0,
            "sourceChordType": "Maj7",
            "ctb2Low": null,
            "ctb2Main": {
              "ntr": "ROOT_FIXED",
              "ntt": "CHORD",
              "bassOn": false,
              "chordRootUpperLimit": 7,
              "noteLowLimit": 0,
              "noteHighLimit": 127,
              "rtr": "PITCH_SHIFT"
            },
            "ctb2High": null
          },
          "notes": [
            {
              "pitch": 55,
              "velocity": 66,
              "position": 0,
              "duration": 0.4895833333333333
            },
            {
              "pitch": 59,
              "velocity": 66,
              "position": 0.020833333333333332,
              "duration": 0.4895833333333333
            },
            {
              "pitch": 64,
              "velocity": 66,
              "position": 0.041666666666666664,
              "duration": 0.4895833333333333
            },
            {
              "pitch": 55,
              "velocity": 66,
              "position": 1,
              "duration": 0.4895833333333333
            },
            {
              "pitch": 59,
              "velocity": 66,
              "position": 1.0208333333333333,
              "duration": 0.4895833333333333
            },
            {
              "pitch": 64,
              "velocity": 66,
              "position": 1.0416666666666667,
              "duration": 0.4895833333333333
            }
          ]
        },
        "13": {
          "ctab": {
            "srcChannel": 13,
            "name": "PedSt",
            "accType": "PHRASE1",
            "editable": false,
            "mutedNotes": [],
            "mutedChords": [],
            "autoStart": false,
            "sourceChordNote": 0,
            "sourceChordType": "Maj7",
            "ctb2Low": null,
            "ctb2Main": {
              "ntr": "ROOT_TRANSPOSITION",
              "ntt": "CHORD",
              "bassOn": false,
              "chordRootUpperLimit": 7,
              "noteLowLimit": 59,
              "noteHighLimit": 70,
              "rtr": "PITCH_SHIFT"
            },
            "ctb2High": null
          },
          "notes": []
        }
      }
    },
    "Intro_B": {
      "type": "Intro_B",
      "sizeInBeats": 8,
      "channels": {
        "1": {
          "ctab": {
            "srcChannel": 1,
            "name": "HiStrFX",
            "accType": "CHORD1",
            "editable": false,
            "mutedNotes": [],
            "mutedChords": [],
            "autoStart": false,
            "sourceChordNote": 0,
            "sourceChordType": "Maj7",
            "ctb2Low": null,
            "ctb2Main": {
              "ntr": "ROOT_FIXED",
              "ntt": "BYPASS",
              "bassOn": false,
              "chordRootUpperLimit": 7,
              "noteLowLimit": 0,
              "noteHighLimit": 79,
              "rtr": "PITCH_SHIFT"
            },
            "ctb2High": null
          },
          "notes": [
            {
              "pitch": 98,
              "velocity": 98,
              "position": 0,
              "duration": 0.23958333333333334
            },
            {
              "pitch": 100,
              "velocity": 93,
              "position": 1,
              "duration": 0.23958333333333334
            },
            {
              "pitch": 98,
              "velocity": 98,
              "position": 2,
              "duration": 0.23958333333333334
            },
            {
              "pitch": 99,
              "velocity": 84,
              "position": 2.6666666666666665,
              "duration": 0.23958333333333334
            },
            {
              "pitch": 100,
              "velocity": 93,
              "position": 3,
              "duration": 0.23958333333333334
            },
            {
              "pitch": 99,
              "velocity": 84,
              "position": 3.6666666666666665,
              "duration": 0.23958333333333334
            },
            {
              "pitch": 98,
              "velocity": 98,
              "position": 4,
              "duration": 0.23958333333333334
            },
            {
              "pitch": 100,
              "velocity": 93,
              "position": 5,
              "duration": 0.23958333333333334
            },
            {
              "pitch": 99,
              "velocity": 84,
              "position": 5.666666666666667,
              "duration": 0.23958333333333334
            },
            {
              "pitch": 98,
              "velocity": 98,
              "position": 6,
              "duration": 0.23958333333333334
            },
            {
              "pitch": 99,
              "velocity": 84,
              "position": 6.666666666666667,
              "duration": 0.23958333333333334
            },
            {
              "pitch": 100,
              "velocity": 93,
              "position": 7,
              "duration": 0.23958333333333334
            },
            {
              "pitch": 99,
              "velocity": 84,
              "position": 7.666666666666667,
              "duration": 0.23958333333333334
            }
          ]
        },
        "8": {
          "ctab": {
            "srcChannel": 8,
            "name": "Perc",
            "accType": "SUBRHYTHM",
            "editable": false,
            "mutedNotes": [],
            "mutedChords": [],
            "autoStart": true,
            "sourceChordNote": 0,
            "sourceChordType": "Maj7",
            "ctb2Low": null,
            "ctb2Main": {
              "ntr": "ROOT_FIXED",
              "ntt": "BYPASS",
              "bassOn": false,
              "chordRootUpperLimit": 6,
              "noteLowLimit": 0,
              "noteHighLimit": 127,
              "rtr": "PITCH_SHIFT"
            },
            "ctb2High": null
          },
          "notes": [
            {
              "pitch": 54,
              "velocity": 89,
              "position": 1,
              "duration": 0.010416666666666666
            },
            {
              "pitch": 54,
              "velocity": 48,
              "position": 2.6770833333333335,
              "duration": 0.010416666666666666
            },
            {
              "pitch": 54,
              "velocity": 91,
              "position": 3,
              "duration": 0.010416666666666666
            },
            {
              "pitch": 54,
              "velocity": 91,
              "position": 5,
              "duration": 0.010416666666666666
            },
            {
              "pitch": 54,
              "velocity": 54,
              "position": 6.677083333333333,
              "duration": 0.010416666666666666
            },
            {
              "pitch": 54,
              "velocity": 98,
              "position": 7,
              "duration": 0.010416666666666666
            }
          ]
        },
        "9": {
          "ctab": {
            "srcChannel": 9,
            "name": "Drs",
            "accType": "RHYTHM",
            "editable": false,
            "mutedNotes": [],
            "mutedChords": [],
            "autoStart": true,
            "sourceChordNote": 0,
            "sourceChordType": "Maj7",
            "ctb2Low": null,
            "ctb2Main": {
              "ntr": "ROOT_FIXED",
              "ntt": "BYPASS",
              "bassOn": false,
              "chordRootUpperLimit": 6,
              "noteLowLimit": 0,
              "noteHighLimit": 127,
              "rtr": "PITCH_SHIFT"
            },
            "ctb2High": null
          },
          "notes": [
            {
              "pitch": 27,
              "velocity": 72,
              "position": 0,
              "duration": 0.010416666666666666
            },
            {
              "pitch": 36,
              "velocity": 79,
              "position": 0,
              "duration": 0.010416666666666666
            },
            {
              "pitch": 25,
              "velocity": 36,
              "position": 0.6666666666666666,
              "duration": 0.010416666666666666
            },
            {
              "pitch": 37,
              "velocity": 85,
              "position": 1,
              "duration": 0.010416666666666666
            },
            {
              "pitch": 44,
              "velocity": 60,
              "position": 1,
              "duration": 0.010416666666666666
            },
            {
              "pitch": 25,
              "velocity": 36,
              "position": 1.6666666666666667,
              "duration": 0.010416666666666666
            },
            {
              "pitch": 36,
              "velocity": 51,
              "position": 1.6666666666666667,
              "duration": 0.010416666666666666
            },
            {
              "pitch": 27,
              "velocity": 72,
              "position": 2,
              "duration": 0.010416666666666666
            },
            {
              "pitch": 36,
              "velocity": 79,
              "position": 2,
              "duration": 0.010416666666666666
            },
            {
              "pitch": 25,
              "velocity": 36,
              "position": 2.6666666666666665,
              "duration": 0.010416666666666666
            },
            {
              "pitch": 37,
              "velocity": 85,
              "position": 3,
              "duration": 0.010416666666666666
            },
            {
              "pitch": 44,
              "velocity": 60,
              "position": 3,
              "duration": 0.010416666666666666
            },
            {
              "pitch": 25,
              "velocity": 36,
              "position": 3.6666666666666665,
              "duration": 0.010416666666666666
            },
            {
              "pitch": 36,
              "velocity": 51,
              "position": 3.6666666666666665,
              "duration": 0.010416666666666666
            },
            {
              "pitch": 27,
              "velocity": 72,
              "position": 4,
              "duration": 0.010416666666666666
            },
            {
              "pitch": 36,
              "velocity": 79,
              "position": 4,
              "duration": 0.010416666666666666
            },
            {
              "pitch": 36,
              "velocity": 79,
              "position": 5,
              "duration": 0.010416666666666666
            },
            {
              "pitch": 37,
              "velocity": 85,
              "position": 5,
              "duration": 0.010416666666666666
            },
            {
              "pitch": 46,
              "velocity": 40,
              "position": 5,
              "duration": 0.010416666666666666
            },
            {
              "pitch": 27,
              "velocity": 72,
              "position": 6,
              "duration": 0.010416666666666666
            },
            {
              "pitch": 36,
              "velocity": 79,
              "position": 6,
              "duration": 0.010416666666666666
            },
            {
              "pitch": 46,
              "velocity": 50,
              "position": 6,
              "duration": 0.010416666666666666
            },
            {
              "pitch": 36,
              "velocity": 79,
              "position": 7,
              "duration": 0.010416666666666666
            },
            {
              "pitch": 37,
              "velocity": 85,
              "position": 7,
              "duration": 0.010416666666666666
            },
            {
              "pitch": 46,
              "velocity": 60,
              "position": 7,
              "duration": 0.010416666666666666
            }
          ]
        },
        "10": {
          "ctab": {
            "srcChannel": 10,
            "name": "Bass",
            "accType": "BASS",
            "editable": false,
            "mutedNotes": [],
            "mutedChords": [],
            "autoStart": false,
            "sourceChordNote": 0,
            "sourceChordType": "Maj",
            "ctb2Low": null,
            "ctb2Main": {
              "ntr": "ROOT_TRANSPOSITION",
              "ntt": "BYPASS",
              "bassOn": false,
              "chordRootUpperLimit": 3,
              "noteLowLimit": 28,
              "noteHighLimit": 127,
              "rtr": "PITCH_SHIFT"
            },
            "ctb2High": null
          },
          "notes": [
            {
              "pitch": 24,
              "velocity": 60,
              "position": 0,
              "duration": 0.9895833333333334
            },
            {
              "pitch": 24,
              "velocity": 100,
              "position": 1,
              "duration": 0.3229166666666667
            },
            {
              "pitch": 24,
              "velocity": 43,
              "position": 1.6666666666666667,
              "duration": 0.3229166666666667
            },
            {
              "pitch": 29,
              "velocity": 60,
              "position": 2,
              "duration": 0.9895833333333334
            },
            {
              "pitch": 29,
              "velocity": 100,
              "position": 3,
              "duration": 0.3229166666666667
            },
            {
              "pitch": 29,
              "velocity": 43,
              "position": 3.6666666666666665,
              "duration": 0.3229166666666667
            },
            {
              "pitch": 31,
              "velocity": 60,
              "position": 4,
              "duration": 0.4895833333333333
            },
            {
              "pitch": 31,
              "velocity": 60,
              "position": 5,
              "duration": 0.9895833333333334
            },
            {
              "pitch": 35,
              "velocity": 60,
              "position": 6,
              "duration": 0.9895833333333334
            },
            {
              "pitch": 26,
              "velocity": 60,
              "position": 7,
              "duration": 0.9895833333333334
            }
          ]
        },
        "11": {
          "ctab": {
            "srcChannel": 11,
            "name": "12Str",
            "accType": "CHORD1",
            "editable": false,
            "mutedNotes": [],
            "mutedChords": [],
            "autoStart": false,
            "sourceChordNote": 0,
            "sourceChordType": "Maj",
            "ctb2Low": null,
            "ctb2Main": {
              "ntr": "ROOT_TRANSPOSITION",
              "ntt": "MELODIC_MINOR",
              "bassOn": false,
              "chordRootUpperLimit": 8,
              "noteLowLimit": 42,
              "noteHighLimit": 65,
              "rtr": "PITCH_SHIFT"
            },
            "ctb2High": null
          },
          "notes": [
            {
              "pitch": 67,
              "velocity": 116,
              "position": 0,
              "duration": 0.9895833333333334
            },
            {
              "pitch": 72,
              "velocity": 116,
              "position": 0.010416666666666666,
              "duration": 0.9791666666666666
            },
            {
              "pitch": 76,
              "velocity": 116,
              "position": 0.020833333333333332,
              "duration": 0.96875
            },
            {
              "pitch": 76,
              "velocity": 114,
              "position": 1,
              "duration": 0.9895833333333334
            },
            {
              "pitch": 72,
              "velocity": 114,
              "position": 1.0104166666666667,
              "duration": 0.9791666666666666
            },
            {
              "pitch": 67,
              "velocity": 114,
              "position": 1.0208333333333333,
              "duration": 0.96875
            },
            {
              "pitch": 69,
              "velocity": 116,
              "position": 2,
              "duration": 0.65625
            },
            {
              "pitch": 72,
              "velocity": 116,
              "position": 2.0104166666666665,
              "duration": 0.6458333333333334
            },
            {
              "pitch": 77,
              "velocity": 116,
              "position": 2.0208333333333335,
              "duration": 0.6354166666666666
            },
            {
              "pitch": 77,
              "velocity": 89,
              "position": 2.6666666666666665,
              "duration": 0.3229166666666667
            },
            {
              "pitch": 72,
              "velocity": 89,
              "position": 2.6770833333333335,
              "duration": 0.3125
            },
            {
              "pitch": 69,
              "velocity": 89,
              "position": 2.6875,
              "duration": 0.3020833333333333
            },
            {
              "pitch": 69,
              "velocity": 114,
              "position": 3,
              "duration": 0.65625
            },
            {
              "pitch": 72,
              "velocity": 114,
              "position": 3.0104166666666665,
              "duration": 0.6458333333333334
            },
            {
              "pitch": 77,
              "velocity": 114,
              "position": 3.0208333333333335,
              "duration": 0.6354166666666666
            },
            {
              "pitch": 77,
              "velocity": 76,
              "position": 3.6666666666666665,
              "duration": 0.3229166666666667
            },
            {
              "pitch": 72,
              "velocity": 85,
              "position": 3.6770833333333335,
              "duration": 0.3125
            },
            {
              "pitch": 69,
              "velocity": 79,
              "position": 3.6875,
              "duration": 0.3020833333333333
            },
            {
              "pitch": 67,
              "velocity": 117,
              "position": 4,
              "duration": 0.9895833333333334
            },
            {
              "pitch": 71,
              "velocity": 117,
              "position": 4.010416666666667,
              "duration": 0.9791666666666666
            },
            {
              "pitch": 74,
              "velocity": 117,
              "position": 4.020833333333333,
              "duration": 0.96875
            },
            {
              "pitch": 74,
              "velocity": 115,
              "position": 5,
              "duration": 0.65625
            },
            {
              "pitch": 71,
              "velocity": 115,
              "position": 5.010416666666667,
              "duration": 0.6458333333333334
            },
            {
              "pitch": 67,
              "velocity": 115,
              "position": 5.020833333333333,
              "duration": 0.6354166666666666
            },
            {
              "pitch": 67,
              "velocity": 82,
              "position": 5.666666666666667,
              "duration": 0.3229166666666667
            },
            {
              "pitch": 71,
              "velocity": 86,
              "position": 5.677083333333333,
              "duration": 0.3125
            },
            {
              "pitch": 74,
              "velocity": 95,
              "position": 5.6875,
              "duration": 0.3020833333333333
            },
            {
              "pitch": 74,
              "velocity": 117,
              "position": 6,
              "duration": 0.65625
            },
            {
              "pitch": 71,
              "velocity": 117,
              "position": 6.010416666666667,
              "duration": 0.6458333333333334
            },
            {
              "pitch": 67,
              "velocity": 117,
              "position": 6.020833333333333,
              "duration": 0.6354166666666666
            },
            {
              "pitch": 67,
              "velocity": 89,
              "position": 6.666666666666667,
              "duration": 0.3229166666666667
            },
            {
              "pitch": 71,
              "velocity": 89,
              "position": 6.677083333333333,
              "duration": 0.3125
            },
            {
              "pitch": 74,
              "velocity": 89,
              "position": 6.6875,
              "duration": 0.3020833333333333
            },
            {
              "pitch": 74,
              "velocity": 116,
              "position": 7,
              "duration": 0.65625
            },
            {
              "pitch": 71,
              "velocity": 116,
              "position": 7.010416666666667,
              "duration": 0.6458333333333334
            },
            {
              "pitch": 67,
              "velocity": 116,
              "position": 7.020833333333333,
              "duration": 0.6354166666666666
            },
            {
              "pitch": 67,
              "velocity": 79,
              "position": 7.666666666666667,
              "duration": 0.3229166666666667
            },
            {
              "pitch": 71,
              "velocity": 85,
              "position": 7.677083333333333,
              "duration": 0.3125
            },
            {
              "pitch": 74,
              "velocity": 76,
              "position": 7.6875,
              "duration": 0.3020833333333333
            }
          ]
        },
        "12": {
          "ctab": {
            "srcChannel": 12,
            "name": "ClGt",
            "accType": "CHORD2",
            "editable": false,
            "mutedNotes": [],
            "mutedChords": [],
            "autoStart": false,
            "sourceChordNote": 0,
            "sourceChordType": "Maj",
            "ctb2Low": null,
            "ctb2Main": {
              "ntr": "ROOT_TRANSPOSITION",
              "ntt": "MELODIC_MINOR",
              "bassOn": false,
              "chordRootUpperLimit": 3,
              "noteLowLimit": 54,
              "noteHighLimit": 65,
              "rtr": "PITCH_SHIFT"
            },
            "ctb2High": null
          },
          "notes": [
            {
              "pitch": 64,
              "velocity": 73,
              "position": 0.6875,
              "duration": 0.28125
            },
            {
              "pitch": 60,
              "velocity": 73,
              "position": 0.6770833333333334,
              "duration": 0.3020833333333333
            },
            {
              "pitch": 55,
              "velocity": 73,
              "position": 0.6666666666666666,
              "duration": 0.3229166666666667
            },
            {
              "pitch": 57,
              "velocity": 61,
              "position": 2,
              "duration": 0.65625
            },
            {
              "pitch": 60,
              "velocity": 61,
              "position": 2.0208333333333335,
              "duration": 0.6354166666666666
            },
            {
              "pitch": 65,
              "velocity": 61,
              "position": 2.0416666666666665,
              "duration": 0.6145833333333334
            },
            {
              "pitch": 57,
              "velocity": 78,
              "position": 2.6666666666666665,
              "duration": 0.3229166666666667
            },
            {
              "pitch": 60,
              "velocity": 78,
              "position": 2.6875,
              "duration": 0.3020833333333333
            },
            {
              "pitch": 65,
              "velocity": 78,
              "position": 2.7083333333333335,
              "duration": 0.28125
            },
            {
              "pitch": 55,
              "velocity": 70,
              "position": 4,
              "duration": 0.4895833333333333
            },
            {
              "pitch": 59,
              "velocity": 70,
              "position": 4.020833333333333,
              "duration": 0.46875
            },
            {
              "pitch": 62,
              "velocity": 70,
              "position": 4.041666666666667,
              "duration": 0.4479166666666667
            },
            {
              "pitch": 55,
              "velocity": 83,
              "position": 4.666666666666667,
              "duration": 1.9895833333333333
            },
            {
              "pitch": 55,
              "velocity": 87,
              "position": 6.666666666666667,
              "duration": 1.3229166666666667
            },
            {
              "pitch": 62,
              "velocity": 78,
              "position": 5,
              "duration": 2.9895833333333335
            },
            {
              "pitch": 59,
              "velocity": 87,
              "position": 5.666666666666667,
              "duration": 2.3229166666666665
            }
          ]
        },
        "13": {
          "ctab": {
            "srcChannel": 13,
            "name": "PedSt",
            "accType": "PHRASE1",
            "editable": false,
            "mutedNotes": [],
            "mutedChords": [],
            "autoStart": false,
            "sourceChordNote": 0,
            "sourceChordType": "Maj",
            "ctb2Low": null,
            "ctb2Main": {
              "ntr": "ROOT_TRANSPOSITION",
              "ntt": "MELODIC_MINOR",
              "bassOn": false,
              "chordRootUpperLimit": 6,
              "noteLowLimit": 54,
              "noteHighLimit": 127,
              "rtr": "PITCH_SHIFT"
            },
            "ctb2High": null
          },
          "notes": []
        }
      }
    },
    "Intro_C": {
      "type": "Intro_C",
      "sizeInBeats": 8,
      "channels": {
        "1": {
          "ctab": {
            "srcChannel": 1,
            "name": "HiStrFX",
            "accType": "CHORD1",
            "editable": false,
            "mutedNotes": [],
            "mutedChords": [],
            "autoStart": false,
            "sourceChordNote": 0,
            "sourceChordType": "Maj7",
            "ctb2Low": null,
            "ctb2Main": {
              "ntr": "ROOT_FIXED",
              "ntt": "BYPASS",
              "bassOn": false,
              "chordRootUpperLimit": 7,
              "noteLowLimit": 0,
              "noteHighLimit": 79,
              "rtr": "PITCH_SHIFT"
            },
            "ctb2High": null
          },
          "notes": [
            {
              "pitch": 98,
              "velocity": 98,
              "position": 0,
              "duration": 0.23958333333333334
            },
            {
              "pitch": 99,
              "velocity": 87,
              "position": 0.6666666666666666,
              "duration": 0.23958333333333334
            },
            {
              "pitch": 100,
              "velocity": 98,
              "position": 1,
              "duration": 0.23958333333333334
            },
            {
              "pitch": 99,
              "velocity": 93,
              "position": 1.6666666666666667,
              "duration": 0.23958333333333334
            },
            {
              "pitch": 99,
              "velocity": 87,
              "position": 2.6666666666666665,
              "duration": 0.23958333333333334
            },
            {
              "pitch": 100,
              "velocity": 98,
              "position": 3,
              "duration": 0.23958333333333334
            },
            {
              "pitch": 99,
              "velocity": 87,
              "position": 3.6666666666666665,
              "duration": 0.23958333333333334
            },
            {
              "pitch": 98,
              "velocity": 98,
              "position": 4,
              "duration": 0.23958333333333334
            },
            {
              "pitch": 99,
              "velocity": 87,
              "position": 4.666666666666667,
              "duration": 0.23958333333333334
            },
            {
              "pitch": 98,
              "velocity": 98,
              "position": 6,
              "duration": 0.23958333333333334
            },
            {
              "pitch": 100,
              "velocity": 98,
              "position": 7,
              "duration": 0.23958333333333334
            }
          ]
        },
        "8": {
          "ctab": {
            "srcChannel": 8,
            "name": "Perc",
            "accType": "SUBRHYTHM",
            "editable": false,
            "mutedNotes": [],
            "mutedChords": [],
            "autoStart": true,
            "sourceChordNote": 0,
            "sourceChordType": "Maj7",
            "ctb2Low": null,
            "ctb2Main": {
              "ntr": "ROOT_FIXED",
              "ntt": "BYPASS",
              "bassOn": false,
              "chordRootUpperLimit": 6,
              "noteLowLimit": 0,
              "noteHighLimit": 127,
              "rtr": "PITCH_SHIFT"
            },
            "ctb2High": null
          },
          "notes": []
        },
        "9": {
          "ctab": {
            "srcChannel": 9,
            "name": "Drs",
            "accType": "RHYTHM",
            "editable": false,
            "mutedNotes": [],
            "mutedChords": [],
            "autoStart": true,
            "sourceChordNote": 0,
            "sourceChordType": "Maj7",
            "ctb2Low": null,
            "ctb2Main": {
              "ntr": "ROOT_FIXED",
              "ntt": "BYPASS",
              "bassOn": false,
              "chordRootUpperLimit": 6,
              "noteLowLimit": 0,
              "noteHighLimit": 127,
              "rtr": "PITCH_SHIFT"
            },
            "ctb2High": null
          },
          "notes": [
            {
              "pitch": 53,
              "velocity": 76,
              "position": 0.020833333333333332,
              "duration": 0.010416666666666666
            },
            {
              "pitch": 44,
              "velocity": 60,
              "position": 1,
              "duration": 0.010416666666666666
            },
            {
              "pitch": 44,
              "velocity": 60,
              "position": 3,
              "duration": 0.010416666666666666
            },
            {
              "pitch": 59,
              "velocity": 78,
              "position": 4,
              "duration": 0.010416666666666666
            },
            {
              "pitch": 36,
              "velocity": 51,
              "position": 4.666666666666667,
              "duration": 0.010416666666666666
            },
            {
              "pitch": 46,
              "velocity": 50,
              "position": 4.666666666666667,
              "duration": 0.010416666666666666
            },
            {
              "pitch": 36,
              "velocity": 79,
              "position": 5,
              "duration": 0.010416666666666666
            },
            {
              "pitch": 36,
              "velocity": 79,
              "position": 6,
              "duration": 0.010416666666666666
            },
            {
              "pitch": 46,
              "velocity": 50,
              "position": 6,
              "duration": 0.010416666666666666
            },
            {
              "pitch": 44,
              "velocity": 1,
              "position": 6.333333333333333,
              "duration": 0.010416666666666666
            },
            {
              "pitch": 31,
              "velocity": 30,
              "position": 6.666666666666667,
              "duration": 0.010416666666666666
            },
            {
              "pitch": 31,
              "velocity": 110,
              "position": 7,
              "duration": 0.010416666666666666
            },
            {
              "pitch": 36,
              "velocity": 79,
              "position": 7,
              "duration": 0.010416666666666666
            },
            {
              "pitch": 46,
              "velocity": 50,
              "position": 7,
              "duration": 0.010416666666666666
            },
            {
              "pitch": 59,
              "velocity": 78,
              "position": 7.020833333333333,
              "duration": 0.010416666666666666
            },
            {
              "pitch": 44,
              "velocity": 1,
              "position": 7.333333333333333,
              "duration": 0.010416666666666666
            }
          ]
        },
        "10": {
          "ctab": {
            "srcChannel": 10,
            "name": "Bass",
            "accType": "BASS",
            "editable": false,
            "mutedNotes": [],
            "mutedChords": [],
            "autoStart": false,
            "sourceChordNote": 0,
            "sourceChordType": "Maj",
            "ctb2Low": null,
            "ctb2Main": {
              "ntr": "ROOT_TRANSPOSITION",
              "ntt": "BYPASS",
              "bassOn": false,
              "chordRootUpperLimit": 3,
              "noteLowLimit": 28,
              "noteHighLimit": 127,
              "rtr": "PITCH_SHIFT"
            },
            "ctb2High": null
          },
          "notes": [
            {
              "pitch": 31,
              "velocity": 60,
              "position": 4.666666666666667,
              "duration": 1.2083333333333333
            },
            {
              "pitch": 33,
              "velocity": 60,
              "position": 6,
              "duration": 0.5416666666666666
            },
            {
              "pitch": 24,
              "velocity": 60,
              "position": 7,
              "duration": 0.5416666666666666
            }
          ]
        },
        "11": {
          "ctab": {
            "srcChannel": 11,
            "name": "12Str",
            "accType": "CHORD1",
            "editable": false,
            "mutedNotes": [],
            "mutedChords": [],
            "autoStart": false,
            "sourceChordNote": 0,
            "sourceChordType": "Maj",
            "ctb2Low": null,
            "ctb2Main": {
              "ntr": "ROOT_TRANSPOSITION",
              "ntt": "MELODIC_MINOR",
              "bassOn": false,
              "chordRootUpperLimit": 8,
              "noteLowLimit": 42,
              "noteHighLimit": 65,
              "rtr": "PITCH_SHIFT"
            },
            "ctb2High": null
          },
          "notes": [
            {
              "pitch": 67,
              "velocity": 116,
              "position": 0,
              "duration": 0.65625
            },
            {
              "pitch": 72,
              "velocity": 116,
              "position": 0.020833333333333332,
              "duration": 0.6354166666666666
            },
            {
              "pitch": 76,
              "velocity": 116,
              "position": 0.041666666666666664,
              "duration": 0.6145833333333334
            },
            {
              "pitch": 67,
              "velocity": 87,
              "position": 0.6666666666666666,
              "duration": 0.3229166666666667
            },
            {
              "pitch": 72,
              "velocity": 87,
              "position": 0.6875,
              "duration": 0.3020833333333333
            },
            {
              "pitch": 76,
              "velocity": 90,
              "position": 0.7083333333333334,
              "duration": 0.28125
            },
            {
              "pitch": 67,
              "velocity": 115,
              "position": 1,
              "duration": 0.65625
            },
            {
              "pitch": 72,
              "velocity": 115,
              "position": 1.0208333333333333,
              "duration": 0.6354166666666666
            },
            {
              "pitch": 76,
              "velocity": 115,
              "position": 1.0416666666666667,
              "duration": 0.6145833333333334
            },
            {
              "pitch": 67,
              "velocity": 116,
              "position": 1.6666666666666667,
              "duration": 0.9895833333333334
            },
            {
              "pitch": 71,
              "velocity": 116,
              "position": 1.6875,
              "duration": 0.96875
            },
            {
              "pitch": 74,
              "velocity": 116,
              "position": 1.7083333333333333,
              "duration": 0.9479166666666666
            },
            {
              "pitch": 67,
              "velocity": 89,
              "position": 2.6666666666666665,
              "duration": 0.3229166666666667
            },
            {
              "pitch": 71,
              "velocity": 89,
              "position": 2.6875,
              "duration": 0.3020833333333333
            },
            {
              "pitch": 74,
              "velocity": 90,
              "position": 2.7083333333333335,
              "duration": 0.28125
            },
            {
              "pitch": 67,
              "velocity": 117,
              "position": 3,
              "duration": 0.65625
            },
            {
              "pitch": 71,
              "velocity": 117,
              "position": 3.0208333333333335,
              "duration": 0.6354166666666666
            },
            {
              "pitch": 74,
              "velocity": 117,
              "position": 3.0416666666666665,
              "duration": 0.6145833333333334
            },
            {
              "pitch": 67,
              "velocity": 87,
              "position": 3.6666666666666665,
              "duration": 0.3229166666666667
            },
            {
              "pitch": 71,
              "velocity": 87,
              "position": 3.6875,
              "duration": 0.3020833333333333
            },
            {
              "pitch": 74,
              "velocity": 90,
              "position": 3.7083333333333335,
              "duration": 0.28125
            },
            {
              "pitch": 67,
              "velocity": 116,
              "position": 4,
              "duration": 0.3229166666666667
            },
            {
              "pitch": 72,
              "velocity": 116,
              "position": 4.020833333333333,
              "duration": 0.3020833333333333
            },
            {
              "pitch": 76,
              "velocity": 116,
              "position": 4.041666666666667,
              "duration": 0.28125
            },
            {
              "pitch": 74,
              "velocity": 117,
              "position": 4.666666666666667,
              "duration": 1.3229166666666667
            },
            {
              "pitch": 67,
              "velocity": 117,
              "position": 4.6875,
              "duration": 1.3020833333333333
            },
            {
              "pitch": 71,
              "velocity": 117,
              "position": 4.6875,
              "duration": 1.3020833333333333
            },
            {
              "pitch": 76,
              "velocity": 116,
              "position": 6,
              "duration": 0.4895833333333333
            },
            {
              "pitch": 67,
              "velocity": 116,
              "position": 6.020833333333333,
              "duration": 0.46875
            },
            {
              "pitch": 72,
              "velocity": 116,
              "position": 6.020833333333333,
              "duration": 0.46875
            },
            {
              "pitch": 77,
              "velocity": 116,
              "position": 7,
              "duration": 0.4895833333333333
            },
            {
              "pitch": 71,
              "velocity": 116,
              "position": 7.020833333333333,
              "duration": 0.46875
            },
            {
              "pitch": 74,
              "velocity": 116,
              "position": 7.020833333333333,
              "duration": 0.46875
            }
          ]
        },
        "12": {
          "ctab": {
            "srcChannel": 12,
            "name": "ClGt",
            "accType": "CHORD2",
            "editable": false,
            "mutedNotes": [],
            "mutedChords": [],
            "autoStart": false,
            "sourceChordNote": 0,
            "sourceChordType": "Maj",
            "ctb2Low": null,
            "ctb2Main": {
              "ntr": "ROOT_TRANSPOSITION",
              "ntt": "MELODIC_MINOR",
              "bassOn": false,
              "chordRootUpperLimit": 3,
              "noteLowLimit": 54,
              "noteHighLimit": 65,
              "rtr": "PITCH_SHIFT"
            },
            "ctb2High": null
          },
          "notes": [
            {
              "pitch": 63,
              "velocity": 67,
              "position": 4.625,
              "duration": 1.1979166666666667
            },
            {
              "pitch": 72,
              "velocity": 67,
              "position": 4.677083333333333,
              "duration": 1.1979166666666667
            },
            {
              "pitch": 64,
              "velocity": 67,
              "position": 6,
              "duration": 0.40625
            },
            {
              "pitch": 72,
              "velocity": 67,
              "position": 6,
              "duration": 0.40625
            },
            {
              "pitch": 63,
              "velocity": 67,
              "position": 7,
              "duration": 0.40625
            },
            {
              "pitch": 72,
              "velocity": 67,
              "position": 7,
              "duration": 0.40625
            }
          ]
        },
        "13": {
          "ctab": {
            "srcChannel": 13,
            "name": "PedSt",
            "accType": "PHRASE1",
            "editable": false,
            "mutedNotes": [],
            "mutedChords": [],
            "autoStart": false,
            "sourceChordNote": 0,
            "sourceChordType": "Maj",
            "ctb2Low": null,
            "ctb2Main": {
              "ntr": "ROOT_TRANSPOSITION",
              "ntt": "MELODIC_MINOR",
              "bassOn": false,
              "chordRootUpperLimit": 6,
              "noteLowLimit": 54,
              "noteHighLimit": 127,
              "rtr": "PITCH_SHIFT"
            },
            "ctb2High": null
          },
          "notes": [
            {
              "pitch": 67,
              "velocity": 107,
              "position": 0,
              "duration": 0.9895833333333334
            },
            {
              "pitch": 67,
              "velocity": 89,
              "position": 1,
              "duration": 0.4895833333333333
            },
            {
              "pitch": 76,
              "velocity": 107,
              "position": 0.6666666666666666,
              "duration": 0.8229166666666666
            },
            {
              "pitch": 65,
              "velocity": 107,
              "position": 1.6666666666666667,
              "duration": 1.3229166666666667
            },
            {
              "pitch": 65,
              "velocity": 89,
              "position": 3,
              "duration": 0.4895833333333333
            },
            {
              "pitch": 74,
              "velocity": 107,
              "position": 2.6666666666666665,
              "duration": 0.8229166666666666
            },
            {
              "pitch": 72,
              "velocity": 90,
              "position": 4,
              "duration": 0.4479166666666667
            },
            {
              "pitch": 64,
              "velocity": 107,
              "position": 3.6666666666666665,
              "duration": 0.8645833333333334
            }
          ]
        }
      }
    },
    "Ending_B": {
      "type": "Ending_B",
      "sizeInBeats": 8,
      "channels": {
        "1": {
          "ctab": {
            "srcChannel": 1,
            "name": "HiStrFX",
            "accType": "CHORD1",
            "editable": false,
            "mutedNotes": [],
            "mutedChords": [],
            "autoStart": false,
            "sourceChordNote": 0,
            "sourceChordType": "Maj7",
            "ctb2Low": null,
            "ctb2Main": {
              "ntr": "ROOT_FIXED",
              "ntt": "BYPASS",
              "bassOn": false,
              "chordRootUpperLimit": 7,
              "noteLowLimit": 0,
              "noteHighLimit": 79,
              "rtr": "PITCH_SHIFT"
            },
            "ctb2High": null
          },
          "notes": [
            {
              "pitch": 98,
              "velocity": 98,
              "position": 0.020833333333333332,
              "duration": 0.23958333333333334
            },
            {
              "pitch": 100,
              "velocity": 98,
              "position": 1.0208333333333333,
              "duration": 0.23958333333333334
            },
            {
              "pitch": 98,
              "velocity": 98,
              "position": 2.0208333333333335,
              "duration": 0.23958333333333334
            }
          ]
        },
        "8": {
          "ctab": {
            "srcChannel": 8,
            "name": "Perc",
            "accType": "SUBRHYTHM",
            "editable": false,
            "mutedNotes": [],
            "mutedChords": [],
            "autoStart": true,
            "sourceChordNote": 0,
            "sourceChordType": "Maj7",
            "ctb2Low": null,
            "ctb2Main": {
              "ntr": "ROOT_FIXED",
              "ntt": "BYPASS",
              "bassOn": false,
              "chordRootUpperLimit": 6,
              "noteLowLimit": 0,
              "noteHighLimit": 127,
              "rtr": "PITCH_SHIFT"
            },
            "ctb2High": null
          },
          "notes": []
        },
        "9": {
          "ctab": {
            "srcChannel": 9,
            "name": "Drs",
            "accType": "RHYTHM",
            "editable": false,
            "mutedNotes": [],
            "mutedChords": [],
            "autoStart": true,
            "sourceChordNote": 0,
            "sourceChordType": "Maj7",
            "ctb2Low": null,
            "ctb2Main": {
              "ntr": "ROOT_FIXED",
              "ntt": "BYPASS",
              "bassOn": false,
              "chordRootUpperLimit": 6,
              "noteLowLimit": 0,
              "noteHighLimit": 127,
              "rtr": "PITCH_SHIFT"
            },
            "ctb2High": null
          },
          "notes": [
            {
              "pitch": 27,
              "velocity": 72,
              "position": 0,
              "duration": 0.010416666666666666
            },
            {
              "pitch": 36,
              "velocity": 79,
              "position": 0,
              "duration": 0.010416666666666666
            },
            {
              "pitch": 36,
              "velocity": 79,
              "position": 1,
              "duration": 0.010416666666666666
            },
            {
              "pitch": 37,
              "velocity": 85,
              "position": 1,
              "duration": 0.010416666666666666
            },
            {
              "pitch": 46,
              "velocity": 50,
              "position": 1,
              "duration": 0.010416666666666666
            },
            {
              "pitch": 44,
              "velocity": 1,
              "position": 1.3333333333333333,
              "duration": 0.010416666666666666
            },
            {
              "pitch": 36,
              "velocity": 79,
              "position": 2,
              "duration": 0.010416666666666666
            },
            {
              "pitch": 46,
              "velocity": 50,
              "position": 2,
              "duration": 0.010416666666666666
            },
            {
              "pitch": 57,
              "velocity": 52,
              "position": 2,
              "duration": 0.010416666666666666
            },
            {
              "pitch": 27,
              "velocity": 106,
              "position": 6.666666666666667,
              "duration": 0.010416666666666666
            },
            {
              "pitch": 25,
              "velocity": 90,
              "position": 6.833333333333333,
              "duration": 0.010416666666666666
            },
            {
              "pitch": 36,
              "velocity": 79,
              "position": 7,
              "duration": 0.010416666666666666
            },
            {
              "pitch": 44,
              "velocity": 60,
              "position": 7,
              "duration": 0.010416666666666666
            }
          ]
        },
        "10": {
          "ctab": {
            "srcChannel": 10,
            "name": "Bass",
            "accType": "BASS",
            "editable": false,
            "mutedNotes": [],
            "mutedChords": [],
            "autoStart": false,
            "sourceChordNote": 0,
            "sourceChordType": "Maj",
            "ctb2Low": null,
            "ctb2Main": {
              "ntr": "ROOT_TRANSPOSITION",
              "ntt": "BYPASS",
              "bassOn": false,
              "chordRootUpperLimit": 3,
              "noteLowLimit": 28,
              "noteHighLimit": 127,
              "rtr": "PITCH_SHIFT"
            },
            "ctb2High": null
          },
          "notes": [
            {
              "pitch": 24,
              "velocity": 60,
              "position": 0,
              "duration": 0.5208333333333334
            },
            {
              "pitch": 31,
              "velocity": 60,
              "position": 1,
              "duration": 0.5208333333333334
            },
            {
              "pitch": 24,
              "velocity": 60,
              "position": 2,
              "duration": 4.989583333333333
            }
          ]
        },
        "11": {
          "ctab": {
            "srcChannel": 11,
            "name": "12Str",
            "accType": "CHORD1",
            "editable": false,
            "mutedNotes": [],
            "mutedChords": [],
            "autoStart": false,
            "sourceChordNote": 0,
            "sourceChordType": "Maj",
            "ctb2Low": null,
            "ctb2Main": {
              "ntr": "ROOT_TRANSPOSITION",
              "ntt": "MELODIC_MINOR",
              "bassOn": false,
              "chordRootUpperLimit": 8,
              "noteLowLimit": 42,
              "noteHighLimit": 65,
              "rtr": "PITCH_SHIFT"
            },
            "ctb2High": null
          },
          "notes": [
            {
              "pitch": 76,
              "velocity": 116,
              "position": 0.020833333333333332,
              "duration": 0.4479166666666667
            },
            {
              "pitch": 72,
              "velocity": 116,
              "position": 0.010416666666666666,
              "duration": 0.46875
            },
            {
              "pitch": 67,
              "velocity": 116,
              "position": 0,
              "duration": 0.4895833333333333
            },
            {
              "pitch": 74,
              "velocity": 116,
              "position": 1.0208333333333333,
              "duration": 0.4479166666666667
            },
            {
              "pitch": 71,
              "velocity": 116,
              "position": 1.0104166666666667,
              "duration": 0.46875
            },
            {
              "pitch": 67,
              "velocity": 116,
              "position": 1,
              "duration": 0.4895833333333333
            },
            {
              "pitch": 76,
              "velocity": 119,
              "position": 2.0208333333333335,
              "duration": 4.947916666666667
            },
            {
              "pitch": 72,
              "velocity": 119,
              "position": 2.0104166666666665,
              "duration": 4.96875
            },
            {
              "pitch": 67,
              "velocity": 124,
              "position": 2,
              "duration": 4.989583333333333
            }
          ]
        },
        "12": {
          "ctab": {
            "srcChannel": 12,
            "name": "ClGt",
            "accType": "CHORD2",
            "editable": false,
            "mutedNotes": [],
            "mutedChords": [],
            "autoStart": false,
            "sourceChordNote": 0,
            "sourceChordType": "Maj",
            "ctb2Low": null,
            "ctb2Main": {
              "ntr": "ROOT_TRANSPOSITION",
              "ntt": "MELODIC_MINOR",
              "bassOn": false,
              "chordRootUpperLimit": 3,
              "noteLowLimit": 54,
              "noteHighLimit": 65,
              "rtr": "PITCH_SHIFT"
            },
            "ctb2High": null
          },
          "notes": [
            {
              "pitch": 64,
              "velocity": 70,
              "position": 0.020833333333333332,
              "duration": 0.4895833333333333
            },
            {
              "pitch": 67,
              "velocity": 70,
              "position": 0.041666666666666664,
              "duration": 0.4895833333333333
            },
            {
              "pitch": 72,
              "velocity": 70,
              "position": 0.0625,
              "duration": 0.4895833333333333
            },
            {
              "pitch": 62,
              "velocity": 70,
              "position": 1.0208333333333333,
              "duration": 0.4895833333333333
            },
            {
              "pitch": 67,
              "velocity": 70,
              "position": 1.0416666666666667,
              "duration": 0.4895833333333333
            },
            {
              "pitch": 71,
              "velocity": 70,
              "position": 1.0625,
              "duration": 0.4895833333333333
            },
            {
              "pitch": 72,
              "velocity": 70,
              "position": 2.0625,
              "duration": 4.875
            },
            {
              "pitch": 67,
              "velocity": 70,
              "position": 2.0416666666666665,
              "duration": 4.916666666666667
            },
            {
              "pitch": 64,
              "velocity": 70,
              "position": 2.0208333333333335,
              "duration": 4.958333333333333
            }
          ]
        },
        "13": {
          "ctab": {
            "srcChannel": 13,
            "name": "PedSt",
            "accType": "PHRASE1",
            "editable": false,
            "mutedNotes": [],
            "mutedChords": [],
            "autoStart": false,
            "sourceChordNote": 0,
            "sourceChordType": "Maj",
            "ctb2Low": null,
            "ctb2Main": {
              "ntr": "ROOT_TRANSPOSITION",
              "ntt": "MELODIC_MINOR",
              "bassOn": false,
              "chordRootUpperLimit": 6,
              "noteLowLimit": 54,
              "noteHighLimit": 127,
              "rtr": "PITCH_SHIFT"
            },
            "ctb2High": null
          },
          "notes": [
            {
              "pitch": 63,
              "velocity": 64,
              "position": 1,
              "duration": 0.4166666666666667
            },
            {
              "pitch": 72,
              "velocity": 64,
              "position": 1.03125,
              "duration": 0.4166666666666667
            },
            {
              "pitch": 64,
              "velocity": 64,
              "position": 2,
              "duration": 4.989583333333333
            },
            {
              "pitch": 72,
              "velocity": 64,
              "position": 2.03125,
              "duration": 4.96875
            }
          ]
        }
      }
    },
    "Ending_C": {
      "type": "Ending_C",
      "sizeInBeats": 12,
      "channels": {
        "1": {
          "ctab": {
            "srcChannel": 1,
            "name": "HiStrFX",
            "accType": "CHORD1",
            "editable": false,
            "mutedNotes": [],
            "mutedChords": [],
            "autoStart": false,
            "sourceChordNote": 0,
            "sourceChordType": "Maj7",
            "ctb2Low": null,
            "ctb2Main": {
              "ntr": "ROOT_FIXED",
              "ntt": "BYPASS",
              "bassOn": false,
              "chordRootUpperLimit": 7,
              "noteLowLimit": 0,
              "noteHighLimit": 79,
              "rtr": "PITCH_SHIFT"
            },
            "ctb2High": null
          },
          "notes": [
            {
              "pitch": 98,
              "velocity": 103,
              "position": 0,
              "duration": 0.23958333333333334
            },
            {
              "pitch": 100,
              "velocity": 103,
              "position": 5,
              "duration": 0.23958333333333334
            },
            {
              "pitch": 98,
              "velocity": 103,
              "position": 6,
              "duration": 0.23958333333333334
            }
          ]
        },
        "8": {
          "ctab": {
            "srcChannel": 8,
            "name": "Perc",
            "accType": "SUBRHYTHM",
            "editable": false,
            "mutedNotes": [],
            "mutedChords": [],
            "autoStart": true,
            "sourceChordNote": 0,
            "sourceChordType": "Maj7",
            "ctb2Low": null,
            "ctb2Main": {
              "ntr": "ROOT_FIXED",
              "ntt": "BYPASS",
              "bassOn": false,
              "chordRootUpperLimit": 6,
              "noteLowLimit": 0,
              "noteHighLimit": 127,
              "rtr": "PITCH_SHIFT"
            },
            "ctb2High": null
          },
          "notes": []
        },
        "9": {
          "ctab": {
            "srcChannel": 9,
            "name": "Drs",
            "accType": "RHYTHM",
            "editable": false,
            "mutedNotes": [],
            "mutedChords": [],
            "autoStart": true,
            "sourceChordNote": 0,
            "sourceChordType": "Maj7",
            "ctb2Low": null,
            "ctb2Main": {
              "ntr": "ROOT_FIXED",
              "ntt": "BYPASS",
              "bassOn": false,
              "chordRootUpperLimit": 6,
              "noteLowLimit": 0,
              "noteHighLimit": 127,
              "rtr": "PITCH_SHIFT"
            },
            "ctb2High": null
          },
          "notes": [
            {
              "pitch": 31,
              "velocity": 110,
              "position": 0,
              "duration": 0.010416666666666666
            },
            {
              "pitch": 36,
              "velocity": 79,
              "position": 0,
              "duration": 0.010416666666666666
            },
            {
              "pitch": 46,
              "velocity": 50,
              "position": 0,
              "duration": 0.010416666666666666
            },
            {
              "pitch": 44,
              "velocity": 1,
              "position": 0.3333333333333333,
              "duration": 0.010416666666666666
            },
            {
              "pitch": 44,
              "velocity": 57,
              "position": 1,
              "duration": 0.010416666666666666
            },
            {
              "pitch": 44,
              "velocity": 57,
              "position": 3,
              "duration": 0.010416666666666666
            },
            {
              "pitch": 31,
              "velocity": 23,
              "position": 4.75,
              "duration": 0.010416666666666666
            },
            {
              "pitch": 31,
              "velocity": 51,
              "position": 4.875,
              "duration": 0.010416666666666666
            },
            {
              "pitch": 31,
              "velocity": 110,
              "position": 5,
              "duration": 0.010416666666666666
            },
            {
              "pitch": 36,
              "velocity": 79,
              "position": 5,
              "duration": 0.010416666666666666
            },
            {
              "pitch": 46,
              "velocity": 50,
              "position": 5,
              "duration": 0.010416666666666666
            },
            {
              "pitch": 44,
              "velocity": 1,
              "position": 5.333333333333333,
              "duration": 0.010416666666666666
            },
            {
              "pitch": 31,
              "velocity": 110,
              "position": 6,
              "duration": 0.010416666666666666
            },
            {
              "pitch": 36,
              "velocity": 79,
              "position": 6,
              "duration": 0.010416666666666666
            },
            {
              "pitch": 46,
              "velocity": 50,
              "position": 6,
              "duration": 0.010416666666666666
            },
            {
              "pitch": 57,
              "velocity": 52,
              "position": 6,
              "duration": 0.010416666666666666
            },
            {
              "pitch": 31,
              "velocity": 60,
              "position": 9.666666666666666,
              "duration": 0.010416666666666666
            },
            {
              "pitch": 31,
              "velocity": 40,
              "position": 9.833333333333334,
              "duration": 0.010416666666666666
            },
            {
              "pitch": 36,
              "velocity": 79,
              "position": 10,
              "duration": 0.010416666666666666
            },
            {
              "pitch": 44,
              "velocity": 60,
              "position": 10,
              "duration": 0.010416666666666666
            }
          ]
        },
        "10": {
          "ctab": {
            "srcChannel": 10,
            "name": "Bass",
            "accType": "BASS",
            "editable": false,
            "mutedNotes": [],
            "mutedChords": [],
            "autoStart": false,
            "sourceChordNote": 0,
            "sourceChordType": "Maj",
            "ctb2Low": null,
            "ctb2Main": {
              "ntr": "ROOT_TRANSPOSITION",
              "ntt": "BYPASS",
              "bassOn": false,
              "chordRootUpperLimit": 3,
              "noteLowLimit": 28,
              "noteHighLimit": 127,
              "rtr": "PITCH_SHIFT"
            },
            "ctb2High": null
          },
          "notes": [
            {
              "pitch": 24,
              "velocity": 60,
              "position": 0,
              "duration": 0.5833333333333334
            },
            {
              "pitch": 31,
              "velocity": 60,
              "position": 5,
              "duration": 0.5833333333333334
            },
            {
              "pitch": 36,
              "velocity": 60,
              "position": 6,
              "duration": 3.9895833333333335
            }
          ]
        },
        "11": {
          "ctab": {
            "srcChannel": 11,
            "name": "12Str",
            "accType": "CHORD1",
            "editable": false,
            "mutedNotes": [],
            "mutedChords": [],
            "autoStart": false,
            "sourceChordNote": 0,
            "sourceChordType": "Maj",
            "ctb2Low": null,
            "ctb2Main": {
              "ntr": "ROOT_TRANSPOSITION",
              "ntt": "MELODIC_MINOR",
              "bassOn": false,
              "chordRootUpperLimit": 8,
              "noteLowLimit": 42,
              "noteHighLimit": 65,
              "rtr": "PITCH_SHIFT"
            },
            "ctb2High": null
          },
          "notes": [
            {
              "pitch": 76,
              "velocity": 116,
              "position": 0.020833333333333332,
              "duration": 0.4479166666666667
            },
            {
              "pitch": 72,
              "velocity": 116,
              "position": 0.010416666666666666,
              "duration": 0.46875
            },
            {
              "pitch": 67,
              "velocity": 116,
              "position": 0,
              "duration": 0.4895833333333333
            },
            {
              "pitch": 74,
              "velocity": 116,
              "position": 5.020833333333333,
              "duration": 0.4479166666666667
            },
            {
              "pitch": 71,
              "velocity": 116,
              "position": 5.010416666666667,
              "duration": 0.46875
            },
            {
              "pitch": 67,
              "velocity": 116,
              "position": 5,
              "duration": 0.4895833333333333
            },
            {
              "pitch": 76,
              "velocity": 116,
              "position": 6.020833333333333,
              "duration": 3.9479166666666665
            },
            {
              "pitch": 72,
              "velocity": 116,
              "position": 6.010416666666667,
              "duration": 3.96875
            },
            {
              "pitch": 67,
              "velocity": 116,
              "position": 6,
              "duration": 3.9895833333333335
            }
          ]
        },
        "12": {
          "ctab": {
            "srcChannel": 12,
            "name": "ClGt",
            "accType": "CHORD2",
            "editable": false,
            "mutedNotes": [],
            "mutedChords": [],
            "autoStart": false,
            "sourceChordNote": 0,
            "sourceChordType": "Maj",
            "ctb2Low": null,
            "ctb2Main": {
              "ntr": "ROOT_TRANSPOSITION",
              "ntt": "MELODIC_MINOR",
              "bassOn": false,
              "chordRootUpperLimit": 3,
              "noteLowLimit": 54,
              "noteHighLimit": 65,
              "rtr": "PITCH_SHIFT"
            },
            "ctb2High": null
          },
          "notes": [
            {
              "pitch": 64,
              "velocity": 67,
              "position": 0,
              "duration": 0.4895833333333333
            },
            {
              "pitch": 67,
              "velocity": 67,
              "position": 0.020833333333333332,
              "duration": 0.4895833333333333
            },
            {
              "pitch": 72,
              "velocity": 67,
              "position": 0.041666666666666664,
              "duration": 0.4895833333333333
            },
            {
              "pitch": 62,
              "velocity": 67,
              "position": 5.020833333333333,
              "duration": 0.3020833333333333
            },
            {
              "pitch": 67,
              "velocity": 67,
              "position": 5.041666666666667,
              "duration": 0.3229166666666667
            },
            {
              "pitch": 71,
              "velocity": 67,
              "position": 5.0625,
              "duration": 0.3020833333333333
            },
            {
              "pitch": 72,
              "velocity": 67,
              "position": 6.041666666666667,
              "duration": 3.78125
            },
            {
              "pitch": 67,
              "velocity": 67,
              "position": 6.020833333333333,
              "duration": 3.8229166666666665
            },
            {
              "pitch": 64,
              "velocity": 67,
              "position": 6,
              "duration": 3.8645833333333335
            }
          ]
        },
        "13": {
          "ctab": {
            "srcChannel": 13,
            "name": "PedSt",
            "accType": "PHRASE1",
            "editable": false,
            "mutedNotes": [],
            "mutedChords": [],
            "autoStart": false,
            "sourceChordNote": 0,
            "sourceChordType": "Maj",
            "ctb2Low": null,
            "ctb2Main": {
              "ntr": "ROOT_TRANSPOSITION",
              "ntt": "MELODIC_MINOR",
              "bassOn": false,
              "chordRootUpperLimit": 6,
              "noteLowLimit": 54,
              "noteHighLimit": 127,
              "rtr": "PITCH_SHIFT"
            },
            "ctb2High": null
          },
          "notes": [
            {
              "pitch": 67,
              "velocity": 107,
              "position": 0.6666666666666666,
              "duration": 0.9895833333333334
            },
            {
              "pitch": 76,
              "velocity": 82,
              "position": 1.3333333333333333,
              "duration": 0.3229166666666667
            },
            {
              "pitch": 66,
              "velocity": 107,
              "position": 1.6666666666666667,
              "duration": 0.9895833333333334
            },
            {
              "pitch": 75,
              "velocity": 82,
              "position": 2.3333333333333335,
              "duration": 0.3229166666666667
            },
            {
              "pitch": 65,
              "velocity": 107,
              "position": 2.6666666666666665,
              "duration": 0.9791666666666666
            },
            {
              "pitch": 74,
              "velocity": 82,
              "position": 3.3333333333333335,
              "duration": 0.3125
            },
            {
              "pitch": 64,
              "velocity": 107,
              "position": 3.6666666666666665,
              "duration": 0.6770833333333334
            },
            {
              "pitch": 72,
              "velocity": 86,
              "position": 4,
              "duration": 0.34375
            },
            {
              "pitch": 60,
              "velocity": 107,
              "position": 5,
              "duration": 0.4479166666666667
            },
            {
              "pitch": 66,
              "velocity": 107,
              "position": 5.03125,
              "duration": 0.4479166666666667
            },
            {
              "pitch": 60,
              "velocity": 107,
              "position": 6,
              "duration": 4
            },
            {
              "pitch": 64,
              "velocity": 107,
              "position": 6.03125,
              "duration": 4
            }
          ]
        }
      }
    }
  }
}