{
  "name": "Five-Four.S725.prs",
  "tempo": 168,
  "timeSignature": "5/4",
  "ticksPerQuarter": 1920,
  "sffType": "SFF1",
  "division": "EIGHTH_SHUFFLE",
  "parts": {
    "Main_A": {
      "type": "Main_A",
      "sizeInBeats": 10,
      "channels": {
        "2": {
          "ctab": {
            "srcChannel": 2,
            "name": "Pno Root",
            "accType": "CHORD1",
            "editable": false,
            "mutedNotes": [],
            "mutedChords": [
              "1+2+5",
              "sus4",
              "1+5",
              "1+8",
              "Maj7aug",
              "dim",
              "minMaj7(9)",
              "minMaj7",
              "min6",
              "min",
              "aug",
              "Maj7(9)",
              "Maj7#11",
              "Maj7",
              "Maj6",
              "Maj"
            ],
            "autoStart": false,
            "sourceChordNote": 0,
            "sourceChordType": "Maj7",
            "ctb2Low": null,
            "ctb2Main": {
              "ntr": "ROOT_TRANSPOSITION",
              "ntt": "MELODY",
              "bassOn": false,
              "chordRootUpperLimit": 6,
              "noteLowLimit": 0,
              "noteHighLimit": 127,
              "rtr": "PITCH_SHIFT"
            },
            "ctb2High": null
          },
          "notes": [
            {
              "pitch": 60,
              "velocity": 46,
              "position": 0.6666666666666666,
              "duration": 0.2604166666666667
            },
            {
              "pitch": 60,
              "velocity": 60,
              "position": 2,
              "duration": 0.34375
            },
            {
              "pitch": 60,
              "velocity": 64,
              "position": 4,
              "duration": 0.3125
            },
            {
              "pitch": 60,
              "velocity": 69,
              "position": 5.666666666666667,
              "duration": 0.2708333333333333
            },
            {
              "pitch": 60,
              "velocity": 60,
              "position": 7,
              "duration": 0.3958333333333333
            },
            {
              "pitch": 60,
              "velocity": 56,
              "position": 9,
              "duration": 0.53125
            }
          ]
        },
        "7": {
          "ctab": {
            "srcChannel": 7,
            "name": "CC_Crash",
            "accType": "RHYTHM",
            "editable": false,
            "mutedNotes": [],
            "mutedChords": [
              "1+2+5",
              "sus4",
              "1+5",
              "1+8",
              "7aug",
              "Maj7aug",
              "7(#9)",
              "7(b13)",
              "7(b9)",
              "7(13)",
              "7#11",
              "7(9)",
              "7b5",
              "7sus4",
              "7th",
              "dim7",
              "dim",
              "minMaj7(9)",
              "minMaj7",
              "min7(11)",
              "min7(9)",
              "min(9)",
              "m7b5",
              "min7",
              "min6",
              "min",
              "aug",
              "Maj6(9)",
              "Maj7(9)",
              "Maj(9)",
              "Maj7#11",
              "Maj7",
              "Maj6",
              "Maj"
            ],
            "autoStart": true,
            "sourceChordNote": 0,
            "sourceChordType": "Maj",
            "ctb2Low": null,
            "ctb2Main": {
              "ntr": "ROOT_FIXED",
              "ntt": "BYPASS",
              "bassOn": false,
              "chordRootUpperLimit": 0,
              "noteLowLimit": 0,
              "noteHighLimit": 127,
              "rtr": "RETRIGGER"
            },
            "ctb2High": null
          },
          "notes": []
        },
        "9": {
          "ctab": {
            "srcChannel": 9,
            "name": "Drums",
            "accType": "RHYTHM",
            "editable": false,
            "mutedNotes": [],
            "mutedChords": [],
            "autoStart": true,
            "sourceChordNote": 0,
            "sourceChordType": "Maj7",
            "ctb2Low": null,
            "ctb2Main": {
              "ntr": "ROOT_FIXED",
              "ntt": "BYPASS",
              "bassOn": false,
              "chordRootUpperLimit": 6,
              "noteLowLimit": 0,
              "noteHighLimit": 127,
              "rtr": "PITCH_SHIFT"
            },
            "ctb2High": null
          },
          "notes": [
            {
              "pitch": 33,
              "velocity": 64,
              "position": 0,
              "duration": 0.010416666666666666
            },
            {
              "pitch": 28,
              "velocity": 58,
              "position": 0,
              "duration": 0.9895833333333334
            },
            {
              "pitch": 25,
              "velocity": 115,
              "position": 1,
              "duration": 0.010416666666666666
            },
            {
              "pitch": 44,
              "velocity": 50,
              "position": 1,
              "duration": 0.010416666666666666
            },
            {
              "pitch": 25,
              "velocity": 45,
              "position": 1.6666666666666667,
              "duration": 0.010416666666666666
            },
            {
              "pitch": 26,
              "velocity": 41,
              "position": 1,
              "duration": 0.9895833333333334
            },
            {
              "pitch": 25,
              "velocity": 115,
              "position": 2,
              "duration": 0.010416666666666666
            },
            {
              "pitch": 44,
              "velocity": 57,
              "position": 2,
              "duration": 0.010416666666666666
            },
            {
              "pitch": 26,
              "velocity": 41,
              "position": 2,
              "duration": 0.9895833333333334
            },
            {
              "pitch": 33,
              "velocity": 64,
              "position": 3,
              "duration": 0.010416666666666666
            },
            {
              "pitch": 25,
              "velocity": 45,
              "position": 3.6666666666666665,
              "duration": 0.010416666666666666
            },
            {
              "pitch": 28,
              "velocity": 58,
              "position": 3,
              "duration": 0.9895833333333334
            },
            {
              "pitch": 25,
              "velocity": 115,
              "position": 4,
              "duration": 0.010416666666666666
            },
            {
              "pitch": 44,
              "velocity": 57,
              "position": 4,
              "duration": 0.010416666666666666
            },
            {
              "pitch": 26,
              "velocity": 41,
              "position": 4,
              "duration": 0.9895833333333334
            },
            {
              "pitch": 33,
              "velocity": 64,
              "position": 5,
              "duration": 0.010416666666666666
            },
            {
              "pitch": 28,
              "velocity": 58,
              "position": 5,
              "duration": 0.9895833333333334
            },
            {
              "pitch": 25,
              "velocity": 115,
              "position": 6,
              "duration": 0.010416666666666666
            },
            {
              "pitch": 44,
              "velocity": 50,
              "position": 6,
              "duration": 0.010416666666666666
            },
            {
              "pitch": 25,
              "velocity": 45,
              "position": 6.666666666666667,
              "duration": 0.010416666666666666
            },
            {
              "pitch": 26,
              "velocity": 41,
              "position": 6,
              "duration": 0.9895833333333334
            },
            {
              "pitch": 25,
              "velocity": 115,
              "position": 7,
              "duration": 0.010416666666666666
            },
            {
              "pitch": 44,
              "velocity": 57,
              "position": 7,
              "duration": 0.010416666666666666
            },
            {
              "pitch": 26,
              "velocity": 41,
              "position": 7,
              "duration": 0.9895833333333334
            },
            {
              "pitch": 33,
              "velocity": 64,
              "position": 8,
              "duration": 0.010416666666666666
            },
            {
              "pitch": 25,
              "velocity": 45,
              "position": 8.666666666666666,
              "duration": 0.010416666666666666
            },
            {
              "pitch": 28,
              "velocity": 58,
              "position": 8,
              "duration": 0.9895833333333334
            },
            {
              "pitch": 25,
              "velocity": 115,
              "position": 9,
              "duration": 0.010416666666666666
            },
            {
              "pitch": 44,
              "velocity": 57,
              "position": 9,
              "duration": 0.010416666666666666
            },
            {
              "pitch": 26,
              "velocity": 41,
              "position": 9,
              "duration": 0.9895833333333334
            }
          ]
        },
        "10": {
          "ctab": {
            "srcChannel": 10,
            "name": "Bass",
            "accType": "BASS",
            "editable": false,
            "mutedNotes": [],
            "mutedChords": [],
            "autoStart": false,
            "sourceChordNote": 0,
            "sourceChordType": "Maj7",
            "ctb2Low": null,
            "ctb2Main": {
              "ntr": "ROOT_TRANSPOSITION",
              "ntt": "MELODY",
              "bassOn": true,
              "chordRootUpperLimit": 8,
              "noteLowLimit": 28,
              "noteHighLimit": 127,
              "rtr": "PITCH_SHIFT_TO_ROOT"
            },
            "ctb2High": null
          },
          "notes": [
            {
              "pitch": 24,
              "velocity": 60,
              "position": 0,
              "duration": 2.875
            },
            {
              "pitch": 31,
              "velocity": 62,
              "position": 3,
              "duration": 0.9895833333333334
            },
            {
              "pitch": 31,
              "velocity": 60,
              "position": 4,
              "duration": 0.9895833333333334
            },
            {
              "pitch": 24,
              "velocity": 60,
              "position": 5,
              "duration": 2.875
            },
            {
              "pitch": 31,
              "velocity": 62,
              "position": 8,
              "duration": 0.9895833333333334
            },
            {
              "pitch": 31,
              "velocity": 60,
              "position": 9,
              "duration": 0.9895833333333334
            }
          ]
        },
        "11": {
          "ctab": {
            "srcChannel": 11,
            "name": "Pno",
            "accType": "CHORD1",
            "editable": false,
            "mutedNotes": [],
            "mutedChords": [],
            "autoStart": false,
            "sourceChordNote": 0,
            "sourceChordType": "Maj7",
            "ctb2Low": null,
            "ctb2Main": {
              "ntr": "ROOT_FIXED",
              "ntt": "CHORD",
              "bassOn": false,
              "chordRootUpperLimit": 7,
              "noteLowLimit": 0,
              "noteHighLimit": 127,
              "rtr": "PITCH_SHIFT"
            },
            "ctb2High": null
          },
          "notes": [
            {
              "pitch": 55,
              "velocity": 43,
              "position": 0.6666666666666666,
              "duration": 0.2604166666666667
            },
            {
              "pitch": 59,
              "velocity": 53,
              "position": 0.6666666666666666,
              "duration": 0.2604166666666667
            },
            {
              "pitch": 64,
              "velocity": 43,
              "position": 0.6666666666666666,
              "duration": 0.2916666666666667
            },
            {
              "pitch": 59,
              "velocity": 67,
              "position": 2,
              "duration": 0.34375
            },
            {
              "pitch": 64,
              "velocity": 67,
              "position": 2,
              "duration": 0.3958333333333333
            },
            {
              "pitch": 55,
              "velocity": 53,
              "position": 2,
              "duration": 0.4270833333333333
            },
            {
              "pitch": 59,
              "velocity": 71,
              "position": 4,
              "duration": 0.3125
            },
            {
              "pitch": 55,
              "velocity": 59,
              "position": 4,
              "duration": 0.3333333333333333
            },
            {
              "pitch": 64,
              "velocity": 72,
              "position": 4,
              "duration": 0.4375
            },
            {
              "pitch": 59,
              "velocity": 76,
              "position": 5.666666666666667,
              "duration": 0.2708333333333333
            },
            {
              "pitch": 55,
              "velocity": 51,
              "position": 5.666666666666667,
              "duration": 0.2916666666666667
            },
            {
              "pitch": 64,
              "velocity": 45,
              "position": 5.666666666666667,
              "duration": 0.2916666666666667
            },
            {
              "pitch": 59,
              "velocity": 67,
              "position": 7,
              "duration": 0.3958333333333333
            },
            {
              "pitch": 55,
              "velocity": 46,
              "position": 7,
              "duration": 0.4479166666666667
            },
            {
              "pitch": 64,
              "velocity": 60,
              "position": 7,
              "duration": 0.4791666666666667
            },
            {
              "pitch": 59,
              "velocity": 63,
              "position": 9,
              "duration": 0.53125
            },
            {
              "pitch": 64,
              "velocity": 51,
              "position": 9,
              "duration": 0.5520833333333334
            },
            {
              "pitch": 55,
              "velocity": 51,
              "position": 9,
              "duration": 0.6145833333333334
            }
          ]
        },
        "14": {
          "ctab": {
            "srcChannel": 14,
            "name": "Pno",
            "accType": "CHORD2",
            "editable": false,
            "mutedNotes": [],
            "mutedChords": [],
            "autoStart": false,
            "sourceChordNote": 0,
            "sourceChordType": "Maj7",
            "ctb2Low": null,
            "ctb2Main": {
              "ntr": "ROOT_FIXED",
              "ntt": "CHORD",
              "bassOn": false,
              "chordRootUpperLimit": 7,
              "noteLowLimit": 0,
              "noteHighLimit": 79,
              "rtr": "PITCH_SHIFT"
            },
            "ctb2High": null
          },
          "notes": []
        }
      }
    },
    "Main_B": {
      "type": "Main_B",
      "sizeInBeats": 10,
      "channels": {
        "2": {
          "ctab": {
            "srcChannel": 2,
            "name": "Pno Root",
            "accType": "CHORD1",
            "editable": false,
            "mutedNotes": [],
            "mutedChords": [
              "1+2+5",
              "sus4",
              "1+5",
              "1+8",
              "Maj7aug",
              "dim",
              "minMaj7(9)",
              "minMaj7",
              "min6",
              "min",
              "aug",
              "Maj7(9)",
              "Maj7#11",
              "Maj7",
              "Maj6",
              "Maj"
            ],
            "autoStart": false,
            "sourceChordNote": 0,
            "sourceChordType": "Maj7",
            "ctb2Low": null,
            "ctb2Main": {
              "ntr": "ROOT_TRANSPOSITION",
              "ntt": "MELODY",
              "bassOn": false,
              "chordRootUpperLimit": 6,
              "noteLowLimit": 0,
              "noteHighLimit": 127,
              "rtr": "PITCH_SHIFT"
            },
            "ctb2High": null
          },
          "notes": [
            {
              "pitch": 60,
              "velocity": 46,
              "position": 0.6666666666666666,
              "duration": 0.2604166666666667
            },
            {
              "pitch": 60,
              "velocity": 60,
              "position": 2,
              "duration": 0.34375
            },
            {
              "pitch": 60,
              "velocity": 64,
              "position": 3.6666666666666665,
              "duration": 0.22916666666666666
            },
            {
              "pitch": 60,
              "velocity": 69,
              "position": 5.666666666666667,
              "duration": 0.2708333333333333
            },
            {
              "pitch": 60,
              "velocity": 60,
              "position": 7,
              "duration": 0.4375
            },
            {
              "pitch": 60,
              "velocity": 56,
              "position": 8.666666666666666,
              "duration": 1.15625
            }
          ]
        },
        "7": {
          "ctab": {
            "srcChannel": 7,
            "name": "CC_Crash",
            "accType": "RHYTHM",
            "editable": false,
            "mutedNotes": [],
            "mutedChords": [
              "1+2+5",
              "sus4",
              "1+5",
              "1+8",
              "7aug",
              "Maj7aug",
              "7(#9)",
              "7(b13)",
              "7(b9)",
              "7(13)",
              "7#11",
              "7(9)",
              "7b5",
              "7sus4",
              "7th",
              "dim7",
              "dim",
              "minMaj7(9)",
              "minMaj7",
              "min7(11)",
              "min7(9)",
              "min(9)",
              "m7b5",
              "min7",
              "min6",
              "min",
              "aug",
              "Maj6(9)",
              "Maj7(9)",
              "Maj(9)",
              "Maj7#11",
              "Maj7",
              "Maj6",
              "Maj"
            ],
            "autoStart": true,
            "sourceChordNote": 0,
            "sourceChordType": "Maj",
            "ctb2Low": null,
            "ctb2Main": {
              "ntr": "ROOT_FIXED",
              "ntt": "BYPASS",
              "bassOn": false,
              "chordRootUpperLimit": 0,
              "noteLowLimit": 0,
              "noteHighLimit": 127,
              "rtr": "RETRIGGER"
            },
            "ctb2High": null
          },
          "notes": []
        },
        "9": {
          "ctab": {
            "srcChannel": 9,
            "name": "Drums",
            "accType": "RHYTHM",
            "editable": false,
            "mutedNotes": [],
            "mutedChords": [],
            "autoStart": true,
            "sourceChordNote": 0,
            "sourceChordType": "Maj7",
            "ctb2Low": null,
            "ctb2Main": {
              "ntr": "ROOT_FIXED",
              "ntt": "BYPASS",
              "bassOn": false,
              "chordRootUpperLimit": 6,
              "noteLowLimit": 0,
              "noteHighLimit": 127,
              "rtr": "PITCH_SHIFT"
            },
            "ctb2High": null
          },
          "notes": [
            {
              "pitch": 33,
              "velocity": 64,
              "position": 0,
              "duration": 0.010416666666666666
            },
            {
              "pitch": 44,
              "velocity": 57,
              "position": 0,
              "duration": 0.010416666666666666
            },
            {
              "pitch": 25,
              "velocity": 115,
              "position": 0.6666666666666666,
              "duration": 0.010416666666666666
            },
            {
              "pitch": 28,
              "velocity": 58,
              "position": 0,
              "duration": 0.9895833333333334
            },
            {
              "pitch": 25,
              "velocity": 45,
              "position": 1.6666666666666667,
              "duration": 0.010416666666666666
            },
            {
              "pitch": 26,
              "velocity": 41,
              "position": 1,
              "duration": 0.9895833333333334
            },
            {
              "pitch": 25,
              "velocity": 115,
              "position": 2,
              "duration": 0.010416666666666666
            },
            {
              "pitch": 44,
              "velocity": 57,
              "position": 2,
              "duration": 0.010416666666666666
            },
            {
              "pitch": 33,
              "velocity": 36,
              "position": 2.6666666666666665,
              "duration": 0.010416666666666666
            },
            {
              "pitch": 26,
              "velocity": 41,
              "position": 2,
              "duration": 0.9895833333333334
            },
            {
              "pitch": 33,
              "velocity": 64,
              "position": 3,
              "duration": 0.010416666666666666
            },
            {
              "pitch": 25,
              "velocity": 115,
              "position": 3.6666666666666665,
              "duration": 0.010416666666666666
            },
            {
              "pitch": 28,
              "velocity": 58,
              "position": 3,
              "duration": 0.9895833333333334
            },
            {
              "pitch": 44,
              "velocity": 50,
              "position": 4,
              "duration": 0.010416666666666666
            },
            {
              "pitch": 25,
              "velocity": 45,
              "position": 4.666666666666667,
              "duration": 0.010416666666666666
            },
            {
              "pitch": 26,
              "velocity": 41,
              "position": 4,
              "duration": 0.9895833333333334
            },
            {
              "pitch": 28,
              "velocity": 58,
              "position": 4,
              "duration": 0.9895833333333334
            },
            {
              "pitch": 33,
              "velocity": 64,
              "position": 5,
              "duration": 0.010416666666666666
            },
            {
              "pitch": 25,
              "velocity": 115,
              "position": 5.666666666666667,
              "duration": 0.010416666666666666
            },
            {
              "pitch": 28,
              "velocity": 58,
              "position": 5,
              "duration": 0.9895833333333334
            },
            {
              "pitch": 44,
              "velocity": 57,
              "position": 6,
              "duration": 0.010416666666666666
            },
            {
              "pitch": 25,
              "velocity": 45,
              "position": 6.666666666666667,
              "duration": 0.010416666666666666
            },
            {
              "pitch": 26,
              "velocity": 41,
              "position": 6,
              "duration": 0.9895833333333334
            },
            {
              "pitch": 25,
              "velocity": 115,
              "position": 7,
              "duration": 0.010416666666666666
            },
            {
              "pitch": 33,
              "velocity": 36,
              "position": 7.666666666666667,
              "duration": 0.010416666666666666
            },
            {
              "pitch": 26,
              "velocity": 41,
              "position": 7,
              "duration": 0.9895833333333334
            },
            {
              "pitch": 33,
              "velocity": 64,
              "position": 8,
              "duration": 0.010416666666666666
            },
            {
              "pitch": 44,
              "velocity": 50,
              "position": 8,
              "duration": 0.010416666666666666
            },
            {
              "pitch": 25,
              "velocity": 115,
              "position": 8.666666666666666,
              "duration": 0.010416666666666666
            },
            {
              "pitch": 28,
              "velocity": 58,
              "position": 8,
              "duration": 0.9895833333333334
            },
            {
              "pitch": 25,
              "velocity": 45,
              "position": 9.666666666666666,
              "duration": 0.010416666666666666
            },
            {
              "pitch": 26,
              "velocity": 41,
              "position": 9,
              "duration": 0.9895833333333334
            },
            {
              "pitch": 28,
              "velocity": 58,
              "position": 9,
              "duration": 0.9895833333333334
            }
          ]
        },
        "10": {
          "ctab": {
            "srcChannel": 10,
            "name": "Bass",
            "accType": "BASS",
            "editable": false,
            "mutedNotes": [],
            "mutedChords": [],
            "autoStart": false,
            "sourceChordNote": 0,
            "sourceChordType": "Maj7",
            "ctb2Low": null,
            "ctb2Main": {
              "ntr": "ROOT_TRANSPOSITION",
              "ntt": "MELODY",
              "bassOn": true,
              "chordRootUpperLimit": 8,
              "noteLowLimit": 28,
              "noteHighLimit": 127,
              "rtr": "PITCH_SHIFT_TO_ROOT"
            },
            "ctb2High": null
          },
          "notes": [
            {
              "pitch": 24,
              "velocity": 60,
              "position": 0,
              "duration": 2.5416666666666665
            },
            {
              "pitch": 24,
              "velocity": 97,
              "position": 2.6666666666666665,
              "duration": 0.16666666666666666
            },
            {
              "pitch": 24,
              "velocity": 60,
              "position": 3,
              "duration": 1.875
            },
            {
              "pitch": 24,
              "velocity": 60,
              "position": 5,
              "duration": 2.5416666666666665
            },
            {
              "pitch": 24,
              "velocity": 97,
              "position": 7.666666666666667,
              "duration": 0.16666666666666666
            },
            {
              "pitch": 24,
              "velocity": 60,
              "position": 8,
              "duration": 1.875
            }
          ]
        },
        "11": {
          "ctab": {
            "srcChannel": 11,
            "name": "Pno",
            "accType": "CHORD1",
            "editable": false,
            "mutedNotes": [],
            "mutedChords": [],
            "autoStart": false,
            "sourceChordNote": 0,
            "sourceChordType": "Maj7",
            "ctb2Low": null,
            "ctb2Main": {
              "ntr": "ROOT_FIXED",
              "ntt": "CHORD",
              "bassOn": false,
              "chordRootUpperLimit": 7,
              "noteLowLimit": 0,
              "noteHighLimit": 127,
              "rtr": "PITCH_SHIFT"
            },
            "ctb2High": null
          },
          "notes": [
            {
              "pitch": 55,
              "velocity": 43,
              "position": 0.6666666666666666,
              "duration": 0.2604166666666667
            },
            {
              "pitch": 59,
              "velocity": 53,
              "position": 0.6666666666666666,
              "duration": 0.2604166666666667
            },
            {
              "pitch": 64,
              "velocity": 43,
              "position": 0.6666666666666666,
              "duration": 0.2916666666666667
            },
            {
              "pitch": 55,
              "velocity": 51,
              "position": 1.6666666666666667,
              "duration": 0.2604166666666667
            },
            {
              "pitch": 59,
              "velocity": 67,
              "position": 2,
              "duration": 0.34375
            },
            {
              "pitch": 64,
              "velocity": 67,
              "position": 2,
              "duration": 0.3958333333333333
            },
            {
              "pitch": 55,
              "velocity": 53,
              "position": 2,
              "duration": 0.4270833333333333
            },
            {
              "pitch": 55,
              "velocity": 59,
              "position": 3.6666666666666665,
              "duration": 0.22916666666666666
            },
            {
              "pitch": 59,
              "velocity": 71,
              "position": 3.6666666666666665,
              "duration": 0.22916666666666666
            },
            {
              "pitch": 64,
              "velocity": 72,
              "position": 3.6666666666666665,
              "duration": 0.22916666666666666
            },
            {
              "pitch": 55,
              "velocity": 51,
              "position": 4.666666666666667,
              "duration": 0.2604166666666667
            },
            {
              "pitch": 59,
              "velocity": 76,
              "position": 5.666666666666667,
              "duration": 0.2708333333333333
            },
            {
              "pitch": 55,
              "velocity": 51,
              "position": 5.666666666666667,
              "duration": 0.2916666666666667
            },
            {
              "pitch": 64,
              "velocity": 45,
              "position": 5.666666666666667,
              "duration": 0.2916666666666667
            },
            {
              "pitch": 55,
              "velocity": 51,
              "position": 6.666666666666667,
              "duration": 0.2604166666666667
            },
            {
              "pitch": 55,
              "velocity": 46,
              "position": 7,
              "duration": 0.4375
            },
            {
              "pitch": 59,
              "velocity": 67,
              "position": 7,
              "duration": 0.4375
            },
            {
              "pitch": 64,
              "velocity": 60,
              "position": 7,
              "duration": 0.4375
            },
            {
              "pitch": 59,
              "velocity": 63,
              "position": 8.666666666666666,
              "duration": 1.1770833333333333
            },
            {
              "pitch": 64,
              "velocity": 51,
              "position": 8.666666666666666,
              "duration": 1.1770833333333333
            },
            {
              "pitch": 55,
              "velocity": 51,
              "position": 8.666666666666666,
              "duration": 1.2395833333333333
            }
          ]
        },
        "14": {
          "ctab": {
            "srcChannel": 14,
            "name": "Pno",
            "accType": "CHORD2",
            "editable": false,
            "mutedNotes": [],
            "mutedChords": [],
            "autoStart": false,
            "sourceChordNote": 0,
            "sourceChordType": "Maj7",
            "ctb2Low": null,
            "ctb2Main": {
              "ntr": "ROOT_FIXED",
              "ntt": "CHORD",
              "bassOn": false,
              "chordRootUpperLimit": 7,
              "noteLowLimit": 0,
              "noteHighLimit": 79,
              "rtr": "PITCH_SHIFT"
            },
            "ctb2High": null
          },
          "notes": []
        }
      }
    },
    "Main_C": {
      "type": "Main_C",
      "sizeInBeats": 10,
      "channels": {
        "2": {
          "ctab": {
            "srcChannel": 2,
            "name": "Pno Root",
            "accType": "CHORD1",
            "editable": false,
            "mutedNotes": [],
            "mutedChords": [
              "1+2+5",
              "sus4",
              "1+5",
              "1+8",
              "Maj7aug",
              "dim",
              "minMaj7(9)",
              "minMaj7",
              "min6",
              "min",
              "aug",
              "Maj7(9)",
              "Maj7#11",
              "Maj7",
              "Maj6",
              "Maj"
            ],
            "autoStart": false,
            "sourceChordNote": 0,
            "sourceChordType": "Maj7",
            "ctb2Low": null,
            "ctb2Main": {
              "ntr": "ROOT_TRANSPOSITION",
              "ntt": "MELODY",
              "bassOn": false,
              "chordRootUpperLimit": 6,
              "noteLowLimit": 0,
              "noteHighLimit": 127,
              "rtr": "PITCH_SHIFT"
            },
            "ctb2High": null
          },
          "notes": [
            {
              "pitch": 60,
              "velocity": 56,
              "position": 0,
              "duration": 1.4895833333333333
            },
            {
              "pitch": 60,
              "velocity": 52,
              "position": 1.6666666666666667,
              "duration": 1.0104166666666667
            },
            {
              "pitch": 60,
              "velocity": 64,
              "position": 3,
              "duration": 1.8958333333333333
            },
            {
              "pitch": 60,
              "velocity": 56,
              "position": 5.666666666666667,
              "duration": 0.15625
            },
            {
              "pitch": 60,
              "velocity": 52,
              "position": 6.666666666666667,
              "duration": 1.0104166666666667
            },
            {
              "pitch": 60,
              "velocity": 64,
              "position": 8,
              "duration": 1.8958333333333333
            }
          ]
        },
        "7": {
          "ctab": {
            "srcChannel": 7,
            "name": "CC_Crash",
            "accType": "RHYTHM",
            "editable": false,
            "mutedNotes": [],
            "mutedChords": [
              "1+2+5",
              "sus4",
              "1+5",
              "1+8",
              "7aug",
              "Maj7aug",
              "7(#9)",
              "7(b13)",
              "7(b9)",
              "7(13)",
              "7#11",
              "7(9)",
              "7b5",
              "7sus4",
              "7th",
              "dim7",
              "dim",
              "minMaj7(9)",
              "minMaj7",
              "min7(11)",
              "min7(9)",
              "min(9)",
              "m7b5",
              "min7",
              "min6",
              "min",
              "aug",
              "Maj6(9)",
              "Maj7(9)",
              "Maj(9)",
              "Maj7#11",
              "Maj7",
              "Maj6",
              "Maj"
            ],
            "autoStart": true,
            "sourceChordNote": 0,
            "sourceChordType": "Maj",
            "ctb2Low": null,
            "ctb2Main": {
              "ntr": "ROOT_FIXED",
              "ntt": "BYPASS",
              "bassOn": false,
              "chordRootUpperLimit": 0,
              "noteLowLimit": 0,
              "noteHighLimit": 127,
              "rtr": "RETRIGGER"
            },
            "ctb2High": null
          },
          "notes": []
        },
        "9": {
          "ctab": {
            "srcChannel": 9,
            "name": "Drums",
            "accType": "RHYTHM",
            "editable": false,
            "mutedNotes": [],
            "mutedChords": [],
            "autoStart": true,
            "sourceChordNote": 0,
            "sourceChordType": "Maj7",
            "ctb2Low": null,
            "ctb2Main": {
              "ntr": "ROOT_FIXED",
              "ntt": "BYPASS",
              "bassOn": false,
              "chordRootUpperLimit": 6,
              "noteLowLimit": 0,
              "noteHighLimit": 127,
              "rtr": "PITCH_SHIFT"
            },
            "ctb2High": null
          },
          "notes": [
            {
              "pitch": 33,
              "velocity": 64,
              "position": 0,
              "duration": 0.010416666666666666
            },
            {
              "pitch": 44,
              "velocity": 57,
              "position": 0,
              "duration": 0.010416666666666666
            },
            {
              "pitch": 51,
              "velocity": 54,
              "position": 0,
              "duration": 0.010416666666666666
            },
            {
              "pitch": 28,
              "velocity": 58,
              "position": 0,
              "duration": 0.9895833333333334
            },
            {
              "pitch": 51,
              "velocity": 54,
              "position": 1,
              "duration": 0.010416666666666666
            },
            {
              "pitch": 26,
              "velocity": 41,
              "position": 1,
              "duration": 0.65625
            },
            {
              "pitch": 51,
              "velocity": 9,
              "position": 1.6666666666666667,
              "duration": 0.010416666666666666
            },
            {
              "pitch": 44,
              "velocity": 57,
              "position": 2,
              "duration": 0.010416666666666666
            },
            {
              "pitch": 51,
              "velocity": 54,
              "position": 2,
              "duration": 0.010416666666666666
            },
            {
              "pitch": 33,
              "velocity": 36,
              "position": 2.6666666666666665,
              "duration": 0.010416666666666666
            },
            {
              "pitch": 28,
              "velocity": 58,
              "position": 1.6666666666666667,
              "duration": 1.3229166666666667
            },
            {
              "pitch": 33,
              "velocity": 64,
              "position": 3,
              "duration": 0.010416666666666666
            },
            {
              "pitch": 51,
              "velocity": 54,
              "position": 3,
              "duration": 0.010416666666666666
            },
            {
              "pitch": 27,
              "velocity": 68,
              "position": 3.6666666666666665,
              "duration": 0.010416666666666666
            },
            {
              "pitch": 51,
              "velocity": 9,
              "position": 3.6666666666666665,
              "duration": 0.010416666666666666
            },
            {
              "pitch": 28,
              "velocity": 58,
              "position": 3,
              "duration": 0.9895833333333334
            },
            {
              "pitch": 44,
              "velocity": 57,
              "position": 4,
              "duration": 0.010416666666666666
            },
            {
              "pitch": 51,
              "velocity": 54,
              "position": 4,
              "duration": 0.010416666666666666
            },
            {
              "pitch": 26,
              "velocity": 41,
              "position": 4,
              "duration": 0.9895833333333334
            },
            {
              "pitch": 28,
              "velocity": 22,
              "position": 4,
              "duration": 0.9895833333333334
            },
            {
              "pitch": 33,
              "velocity": 64,
              "position": 5,
              "duration": 0.010416666666666666
            },
            {
              "pitch": 51,
              "velocity": 54,
              "position": 5,
              "duration": 0.010416666666666666
            },
            {
              "pitch": 28,
              "velocity": 58,
              "position": 5,
              "duration": 0.9895833333333334
            },
            {
              "pitch": 44,
              "velocity": 57,
              "position": 6,
              "duration": 0.010416666666666666
            },
            {
              "pitch": 51,
              "velocity": 54,
              "position": 6,
              "duration": 0.010416666666666666
            },
            {
              "pitch": 26,
              "velocity": 41,
              "position": 6,
              "duration": 0.65625
            },
            {
              "pitch": 51,
              "velocity": 9,
              "position": 6.666666666666667,
              "duration": 0.010416666666666666
            },
            {
              "pitch": 51,
              "velocity": 54,
              "position": 7,
              "duration": 0.010416666666666666
            },
            {
              "pitch": 33,
              "velocity": 36,
              "position": 7.666666666666667,
              "duration": 0.010416666666666666
            },
            {
              "pitch": 28,
              "velocity": 58,
              "position": 6.666666666666667,
              "duration": 1.3229166666666667
            },
            {
              "pitch": 33,
              "velocity": 64,
              "position": 8,
              "duration": 0.010416666666666666
            },
            {
              "pitch": 44,
              "velocity": 57,
              "position": 8,
              "duration": 0.010416666666666666
            },
            {
              "pitch": 51,
              "velocity": 54,
              "position": 8,
              "duration": 0.010416666666666666
            },
            {
              "pitch": 51,
              "velocity": 9,
              "position": 8.666666666666666,
              "duration": 0.010416666666666666
            },
            {
              "pitch": 28,
              "velocity": 58,
              "position": 8,
              "duration": 0.9895833333333334
            },
            {
              "pitch": 27,
              "velocity": 68,
              "position": 9,
              "duration": 0.010416666666666666
            },
            {
              "pitch": 51,
              "velocity": 54,
              "position": 9,
              "duration": 0.010416666666666666
            },
            {
              "pitch": 26,
              "velocity": 41,
              "position": 9,
              "duration": 0.9895833333333334
            },
            {
              "pitch": 28,
              "velocity": 22,
              "position": 9,
              "duration": 0.9895833333333334
            }
          ]
        },
        "10": {
          "ctab": {
            "srcChannel": 10,
            "name": "Bass",
            "accType": "BASS",
            "editable": false,
            "mutedNotes": [],
            "mutedChords": [],
            "autoStart": false,
            "sourceChordNote": 0,
            "sourceChordType": "Maj7",
            "ctb2Low": null,
            "ctb2Main": {
              "ntr": "ROOT_TRANSPOSITION",
              "ntt": "MELODY",
              "bassOn": true,
              "chordRootUpperLimit": 8,
              "noteLowLimit": 28,
              "noteHighLimit": 127,
              "rtr": "PITCH_SHIFT_TO_ROOT"
            },
            "ctb2High": null
          },
          "notes": [
            {
              "pitch": 24,
              "velocity": 60,
              "position": 0,
              "duration": 1.5416666666666667
            },
            {
              "pitch": 24,
              "velocity": 60,
              "position": 1.6666666666666667,
              "duration": 1.2083333333333333
            },
            {
              "pitch": 24,
              "velocity": 60,
              "position": 3,
              "duration": 1.5416666666666667
            },
            {
              "pitch": 31,
              "velocity": 97,
              "position": 4.666666666666667,
              "duration": 0.25
            },
            {
              "pitch": 24,
              "velocity": 60,
              "position": 5,
              "duration": 1.5416666666666667
            },
            {
              "pitch": 24,
              "velocity": 60,
              "position": 6.666666666666667,
              "duration": 0.9895833333333334
            },
            {
              "pitch": 24,
              "velocity": 97,
              "position": 7.666666666666667,
              "duration": 0.25
            },
            {
              "pitch": 24,
              "velocity": 70,
              "position": 8,
              "duration": 0.875
            },
            {
              "pitch": 31,
              "velocity": 60,
              "position": 9,
              "duration": 0.875
            }
          ]
        },
        "11": {
          "ctab": {
            "srcChannel": 11,
            "name": "Pno",
            "accType": "CHORD1",
            "editable": false,
            "mutedNotes": [],
            "mutedChords": [],
            "autoStart": false,
            "sourceChordNote": 0,
            "sourceChordType": "Maj7",
            "ctb2Low": null,
            "ctb2Main": {
              "ntr": "ROOT_FIXED",
              "ntt": "CHORD",
              "bassOn": false,
              "chordRootUpperLimit": 7,
              "noteLowLimit": 0,
              "noteHighLimit": 127,
              "rtr": "PITCH_SHIFT"
            },
            "ctb2High": null
          },
          "notes": [
            {
              "pitch": 59,
              "velocity": 63,
              "position": 0,
              "duration": 1.4895833333333333
            },
            {
              "pitch": 64,
              "velocity": 51,
              "position": 0,
              "duration": 1.5104166666666667
            },
            {
              "pitch": 55,
              "velocity": 51,
              "position": 0,
              "duration": 1.5729166666666667
            },
            {
              "pitch": 59,
              "velocity": 59,
              "position": 1.6666666666666667,
              "duration": 1.0104166666666667
            },
            {
              "pitch": 64,
              "velocity": 59,
              "position": 1.6666666666666667,
              "duration": 1.0625
            },
            {
              "pitch": 55,
              "velocity": 45,
              "position": 1.6666666666666667,
              "duration": 1.09375
            },
            {
              "pitch": 55,
              "velocity": 59,
              "position": 3,
              "duration": 1.8958333333333333
            },
            {
              "pitch": 59,
              "velocity": 71,
              "position": 3,
              "duration": 1.8958333333333333
            },
            {
              "pitch": 64,
              "velocity": 72,
              "position": 3,
              "duration": 1.8958333333333333
            },
            {
              "pitch": 59,
              "velocity": 63,
              "position": 5.666666666666667,
              "duration": 0.15625
            },
            {
              "pitch": 64,
              "velocity": 51,
              "position": 5.666666666666667,
              "duration": 0.17708333333333334
            },
            {
              "pitch": 55,
              "velocity": 51,
              "position": 5.666666666666667,
              "duration": 0.23958333333333334
            },
            {
              "pitch": 59,
              "velocity": 59,
              "position": 6.666666666666667,
              "duration": 1.0104166666666667
            },
            {
              "pitch": 64,
              "velocity": 59,
              "position": 6.666666666666667,
              "duration": 1.0625
            },
            {
              "pitch": 55,
              "velocity": 45,
              "position": 6.666666666666667,
              "duration": 1.09375
            },
            {
              "pitch": 55,
              "velocity": 59,
              "position": 8,
              "duration": 1.8958333333333333
            },
            {
              "pitch": 59,
              "velocity": 71,
              "position": 8,
              "duration": 1.8958333333333333
            },
            {
              "pitch": 64,
              "velocity": 72,
              "position": 8,
              "duration": 1.8958333333333333
            }
          ]
        },
        "14": {
          "ctab": {
            "srcChannel": 14,
            "name": "Pno",
            "accType": "CHORD2",
            "editable": false,
            "mutedNotes": [],
            "mutedChords": [],
            "autoStart": false,
            "sourceChordNote": 0,
            "sourceChordType": "Maj7",
            "ctb2Low": null,
            "ctb2Main": {
              "ntr": "ROOT_FIXED",
              "ntt": "CHORD",
              "bassOn": false,
              "chordRootUpperLimit": 7,
              "noteLowLimit": 0,
              "noteHighLimit": 79,
              "rtr": "PITCH_SHIFT"
            },
            "ctb2High": null
          },
          "notes": []
        }
      }
    },
    "Main_D": {
      "type": "Main_D",
      "sizeInBeats": 20,
      "channels": {
        "2": {
          "ctab": {
            "srcChannel": 2,
            "name": "Pno Root",
            "accType": "CHORD1",
            "editable": false,
            "mutedNotes": [],
            "mutedChords": [
              "1+2+5",
              "sus4",
              "1+5",
              "1+8",
              "Maj7aug",
              "dim",
              "minMaj7(9)",
              "minMaj7",
              "min6",
              "min",
              "aug",
              "Maj7(9)",
              "Maj7#11",
              "Maj7",
              "Maj6",
              "Maj"
            ],
            "autoStart": false,
            "sourceChordNote": 0,
            "sourceChordType": "Maj7",
            "ctb2Low": null,
            "ctb2Main": {
              "ntr": "ROOT_TRANSPOSITION",
              "ntt": "MELODY",
              "bassOn": false,
              "chordRootUpperLimit": 6,
              "noteLowLimit": 0,
              "noteHighLimit": 127,
              "rtr": "PITCH_SHIFT"
            },
            "ctb2High": null
          },
          "notes": [
            {
              "pitch": 60,
              "velocity": 46,
              "position": 0.6666666666666666,
              "duration": 0.2604166666666667
            },
            {
              "pitch": 60,
              "velocity": 60,
              "position": 1.6666666666666667,
              "duration": 0.34375
            },
            {
              "pitch": 60,
              "velocity": 46,
              "position": 2.6666666666666665,
              "duration": 0.2604166666666667
            },
            {
              "pitch": 60,
              "velocity": 64,
              "position": 3.6666666666666665,
              "duration": 1.2291666666666667
            },
            {
              "pitch": 60,
              "velocity": 60,
              "position": 5,
              "duration": 1.4375
            },
            {
              "pitch": 60,
              "velocity": 60,
              "position": 6.666666666666667,
              "duration": 1.7708333333333333
            },
            {
              "pitch": 60,
              "velocity": 46,
              "position": 8.666666666666666,
              "duration": 0.2604166666666667
            },
            {
              "pitch": 60,
              "velocity": 49,
              "position": 9.666666666666666,
              "duration": 0.22916666666666666
            },
            {
              "pitch": 60,
              "velocity": 46,
              "position": 10.666666666666666,
              "duration": 0.2604166666666667
            },
            {
              "pitch": 60,
              "velocity": 60,
              "position": 11.666666666666666,
              "duration": 0.34375
            },
            {
              "pitch": 60,
              "velocity": 46,
              "position": 12.666666666666666,
              "duration": 0.2604166666666667
            },
            {
              "pitch": 60,
              "velocity": 64,
              "position": 13.666666666666666,
              "duration": 1.2291666666666667
            },
            {
              "pitch": 60,
              "velocity": 60,
              "position": 15,
              "duration": 1.4375
            },
            {
              "pitch": 60,
              "velocity": 60,
              "position": 16.666666666666668,
              "duration": 1.7708333333333333
            },
            {
              "pitch": 60,
              "velocity": 56,
              "position": 18.666666666666668,
              "duration": 0.15625
            },
            {
              "pitch": 60,
              "velocity": 60,
              "position": 19.666666666666668,
              "duration": 0.22916666666666666
            }
          ]
        },
        "7": {
          "ctab": {
            "srcChannel": 7,
            "name": "CC_Crash",
            "accType": "RHYTHM",
            "editable": false,
            "mutedNotes": [],
            "mutedChords": [
              "1+2+5",
              "sus4",
              "1+5",
              "1+8",
              "7aug",
              "Maj7aug",
              "7(#9)",
              "7(b13)",
              "7(b9)",
              "7(13)",
              "7#11",
              "7(9)",
              "7b5",
              "7sus4",
              "7th",
              "dim7",
              "dim",
              "minMaj7(9)",
              "minMaj7",
              "min7(11)",
              "min7(9)",
              "min(9)",
              "m7b5",
              "min7",
              "min6",
              "min",
              "aug",
              "Maj6(9)",
              "Maj7(9)",
              "Maj(9)",
              "Maj7#11",
              "Maj7",
              "Maj6",
              "Maj"
            ],
            "autoStart": true,
            "sourceChordNote": 0,
            "sourceChordType": "Maj",
            "ctb2Low": null,
            "ctb2Main": {
              "ntr": "ROOT_FIXED",
              "ntt": "BYPASS",
              "bassOn": false,
              "chordRootUpperLimit": 0,
              "noteLowLimit": 0,
              "noteHighLimit": 127,
              "rtr": "RETRIGGER"
            },
            "ctb2High": null
          },
          "notes": []
        },
        "9": {
          "ctab": {
            "srcChannel": 9,
            "name": "Drums",
            "accType": "RHYTHM",
            "editable": false,
            "mutedNotes": [],
            "mutedChords": [],
            "autoStart": true,
            "sourceChordNote": 0,
            "sourceChordType": "Maj7",
            "ctb2Low": null,
            "ctb2Main": {
              "ntr": "ROOT_FIXED",
              "ntt": "BYPASS",
              "bassOn": false,
              "chordRootUpperLimit": 6,
              "noteLowLimit": 0,
              "noteHighLimit": 127,
              "rtr": "PITCH_SHIFT"
            },
            "ctb2High": null
          },
          "notes": [
            {
              "pitch": 33,
              "velocity": 64,
              "position": 0,
              "duration": 0.010416666666666666
            },
            {
              "pitch": 59,
              "velocity": 47,
              "position": 0,
              "duration": 0.010416666666666666
            },
            {
              "pitch": 31,
              "velocity": 62,
              "position": 0.6666666666666666,
              "duration": 0.010416666666666666
            },
            {
              "pitch": 44,
              "velocity": 57,
              "position": 1,
              "duration": 0.010416666666666666
            },
            {
              "pitch": 59,
              "velocity": 47,
              "position": 1,
              "duration": 0.010416666666666666
            },
            {
              "pitch": 33,
              "velocity": 48,
              "position": 1.6666666666666667,
              "duration": 0.010416666666666666
            },
            {
              "pitch": 59,
              "velocity": 25,
              "position": 1.6666666666666667,
              "duration": 0.010416666666666666
            },
            {
              "pitch": 31,
              "velocity": 62,
              "position": 2,
              "duration": 0.010416666666666666
            },
            {
              "pitch": 59,
              "velocity": 47,
              "position": 2,
              "duration": 0.010416666666666666
            },
            {
              "pitch": 33,
              "velocity": 48,
              "position": 2.6666666666666665,
              "duration": 0.010416666666666666
            },
            {
              "pitch": 33,
              "velocity": 64,
              "position": 3,
              "duration": 0.010416666666666666
            },
            {
              "pitch": 44,
              "velocity": 57,
              "position": 3,
              "duration": 0.010416666666666666
            },
            {
              "pitch": 59,
              "velocity": 47,
              "position": 3,
              "duration": 0.010416666666666666
            },
            {
              "pitch": 59,
              "velocity": 25,
              "position": 3.6666666666666665,
              "duration": 0.010416666666666666
            },
            {
              "pitch": 31,
              "velocity": 62,
              "position": 4,
              "duration": 0.010416666666666666
            },
            {
              "pitch": 59,
              "velocity": 47,
              "position": 4,
              "duration": 0.010416666666666666
            },
            {
              "pitch": 33,
              "velocity": 64,
              "position": 5,
              "duration": 0.010416666666666666
            },
            {
              "pitch": 44,
              "velocity": 57,
              "position": 5,
              "duration": 0.010416666666666666
            },
            {
              "pitch": 59,
              "velocity": 47,
              "position": 5,
              "duration": 0.010416666666666666
            },
            {
              "pitch": 31,
              "velocity": 62,
              "position": 5.666666666666667,
              "duration": 0.010416666666666666
            },
            {
              "pitch": 59,
              "velocity": 47,
              "position": 6,
              "duration": 0.010416666666666666
            },
            {
              "pitch": 33,
              "velocity": 48,
              "position": 6.666666666666667,
              "duration": 0.010416666666666666
            },
            {
              "pitch": 59,
              "velocity": 25,
              "position": 6.666666666666667,
              "duration": 0.010416666666666666
            },
            {
              "pitch": 31,
              "velocity": 62,
              "position": 7,
              "duration": 0.010416666666666666
            },
            {
              "pitch": 44,
              "velocity": 57,
              "position": 7,
              "duration": 0.010416666666666666
            },
            {
              "pitch": 59,
              "velocity": 47,
              "position": 7,
              "duration": 0.010416666666666666
            },
            {
              "pitch": 31,
              "velocity": 22,
              "position": 7.333333333333333,
              "duration": 0.010416666666666666
            },
            {
              "pitch": 33,
              "velocity": 48,
              "position": 7.666666666666667,
              "duration": 0.010416666666666666
            },
            {
              "pitch": 33,
              "velocity": 64,
              "position": 8,
              "duration": 0.010416666666666666
            },
            {
              "pitch": 59,
              "velocity": 47,
              "position": 8,
              "duration": 0.010416666666666666
            },
            {
              "pitch": 31,
              "velocity": 62,
              "position": 8.666666666666666,
              "duration": 0.010416666666666666
            },
            {
              "pitch": 59,
              "velocity": 25,
              "position": 8.666666666666666,
              "duration": 0.010416666666666666
            },
            {
              "pitch": 44,
              "velocity": 57,
              "position": 9,
              "duration": 0.010416666666666666
            },
            {
              "pitch": 59,
              "velocity": 47,
              "position": 9,
              "duration": 0.010416666666666666
            },
            {
              "pitch": 31,
              "velocity": 22,
              "position": 9.333333333333334,
              "duration": 0.010416666666666666
            },
            {
              "pitch": 33,
              "velocity": 48,
              "position": 9.666666666666666,
              "duration": 0.010416666666666666
            },
            {
              "pitch": 33,
              "velocity": 64,
              "position": 10,
              "duration": 0.010416666666666666
            },
            {
              "pitch": 59,
              "velocity": 47,
              "position": 10,
              "duration": 0.010416666666666666
            },
            {
              "pitch": 31,
              "velocity": 62,
              "position": 10.666666666666666,
              "duration": 0.010416666666666666
            },
            {
              "pitch": 44,
              "velocity": 57,
              "position": 11,
              "duration": 0.010416666666666666
            },
            {
              "pitch": 59,
              "velocity": 47,
              "position": 11,
              "duration": 0.010416666666666666
            },
            {
              "pitch": 33,
              "velocity": 48,
              "position": 11.666666666666666,
              "duration": 0.010416666666666666
            },
            {
              "pitch": 59,
              "velocity": 25,
              "position": 11.666666666666666,
              "duration": 0.010416666666666666
            },
            {
              "pitch": 31,
              "velocity": 62,
              "position": 12,
              "duration": 0.010416666666666666
            },
            {
              "pitch": 59,
              "velocity": 47,
              "position": 12,
              "duration": 0.010416666666666666
            },
            {
              "pitch": 33,
              "velocity": 48,
              "position": 12.666666666666666,
              "duration": 0.010416666666666666
            },
            {
              "pitch": 33,
              "velocity": 64,
              "position": 13,
              "duration": 0.010416666666666666
            },
            {
              "pitch": 44,
              "velocity": 57,
              "position": 13,
              "duration": 0.010416666666666666
            },
            {
              "pitch": 59,
              "velocity": 47,
              "position": 13,
              "duration": 0.010416666666666666
            },
            {
              "pitch": 59,
              "velocity": 25,
              "position": 13.666666666666666,
              "duration": 0.010416666666666666
            },
            {
              "pitch": 31,
              "velocity": 62,
              "position": 14,
              "duration": 0.010416666666666666
            },
            {
              "pitch": 59,
              "velocity": 47,
              "position": 14,
              "duration": 0.010416666666666666
            },
            {
              "pitch": 33,
              "velocity": 64,
              "position": 15,
              "duration": 0.010416666666666666
            },
            {
              "pitch": 44,
              "velocity": 57,
              "position": 15,
              "duration": 0.010416666666666666
            },
            {
              "pitch": 59,
              "velocity": 47,
              "position": 15,
              "duration": 0.010416666666666666
            },
            {
              "pitch": 31,
              "velocity": 62,
              "position": 15.666666666666666,
              "duration": 0.010416666666666666
            },
            {
              "pitch": 59,
              "velocity": 47,
              "position": 16,
              "duration": 0.010416666666666666
            },
            {
              "pitch": 31,
              "velocity": 62,
              "position": 16.666666666666668,
              "duration": 0.010416666666666666
            },
            {
              "pitch": 59,
              "velocity": 25,
              "position": 16.666666666666668,
              "duration": 0.010416666666666666
            },
            {
              "pitch": 44,
              "velocity": 57,
              "position": 17,
              "duration": 0.010416666666666666
            },
            {
              "pitch": 59,
              "velocity": 47,
              "position": 17,
              "duration": 0.010416666666666666
            },
            {
              "pitch": 31,
              "velocity": 22,
              "position": 17.333333333333332,
              "duration": 0.010416666666666666
            },
            {
              "pitch": 33,
              "velocity": 48,
              "position": 17.666666666666668,
              "duration": 0.010416666666666666
            },
            {
              "pitch": 33,
              "velocity": 64,
              "position": 18,
              "duration": 0.010416666666666666
            },
            {
              "pitch": 59,
              "velocity": 47,
              "position": 18,
              "duration": 0.010416666666666666
            },
            {
              "pitch": 31,
              "velocity": 62,
              "position": 18.666666666666668,
              "duration": 0.010416666666666666
            },
            {
              "pitch": 59,
              "velocity": 25,
              "position": 18.666666666666668,
              "duration": 0.010416666666666666
            },
            {
              "pitch": 44,
              "velocity": 57,
              "position": 19,
              "duration": 0.010416666666666666
            },
            {
              "pitch": 59,
              "velocity": 47,
              "position": 19,
              "duration": 0.010416666666666666
            }
          ]
        },
        "10": {
          "ctab": {
            "srcChannel": 10,
            "name": "Bass",
            "accType": "BASS",
            "editable": false,
            "mutedNotes": [],
            "mutedChords": [],
            "autoStart": false,
            "sourceChordNote": 0,
            "sourceChordType": "Maj7",
            "ctb2Low": null,
            "ctb2Main": {
              "ntr": "ROOT_TRANSPOSITION",
              "ntt": "MELODY",
              "bassOn": true,
              "chordRootUpperLimit": 8,
              "noteLowLimit": 28,
              "noteHighLimit": 127,
              "rtr": "PITCH_SHIFT_TO_ROOT"
            },
            "ctb2High": null
          },
          "notes": [
            {
              "pitch": 24,
              "velocity": 60,
              "position": 0,
              "duration": 1.5416666666666667
            },
            {
              "pitch": 24,
              "velocity": 60,
              "position": 1.6666666666666667,
              "duration": 0.875
            },
            {
              "pitch": 24,
              "velocity": 97,
              "position": 2.6666666666666665,
              "duration": 0.16666666666666666
            },
            {
              "pitch": 24,
              "velocity": 60,
              "position": 3,
              "duration": 1.5416666666666667
            },
            {
              "pitch": 31,
              "velocity": 97,
              "position": 4.666666666666667,
              "duration": 0.16666666666666666
            },
            {
              "pitch": 24,
              "velocity": 60,
              "position": 5,
              "duration": 1.5416666666666667
            },
            {
              "pitch": 24,
              "velocity": 60,
              "position": 6.666666666666667,
              "duration": 0.9895833333333334
            },
            {
              "pitch": 24,
              "velocity": 97,
              "position": 7.666666666666667,
              "duration": 0.16666666666666666
            },
            {
              "pitch": 24,
              "velocity": 60,
              "position": 8,
              "duration": 0.875
            },
            {
              "pitch": 31,
              "velocity": 60,
              "position": 9,
              "duration": 0.875
            },
            {
              "pitch": 24,
              "velocity": 60,
              "position": 10,
              "duration": 1.5416666666666667
            },
            {
              "pitch": 24,
              "velocity": 60,
              "position": 11.666666666666666,
              "duration": 0.875
            },
            {
              "pitch": 31,
              "velocity": 97,
              "position": 12.666666666666666,
              "duration": 0.16666666666666666
            },
            {
              "pitch": 24,
              "velocity": 60,
              "position": 13,
              "duration": 1.5416666666666667
            },
            {
              "pitch": 24,
              "velocity": 97,
              "position": 14.666666666666666,
              "duration": 0.16666666666666666
            },
            {
              "pitch": 24,
              "velocity": 60,
              "position": 15,
              "duration": 1.5416666666666667
            },
            {
              "pitch": 24,
              "velocity": 60,
              "position": 16.666666666666668,
              "duration": 0.9895833333333334
            },
            {
              "pitch": 24,
              "velocity": 97,
              "position": 17.666666666666668,
              "duration": 0.16666666666666666
            },
            {
              "pitch": 28,
              "velocity": 62,
              "position": 18,
              "duration": 0.875
            },
            {
              "pitch": 31,
              "velocity": 60,
              "position": 19,
              "duration": 0.875
            }
          ]
        },
        "11": {
          "ctab": {
            "srcChannel": 11,
            "name": "Pno",
            "accType": "CHORD1",
            "editable": false,
            "mutedNotes": [],
            "mutedChords": [],
            "autoStart": false,
            "sourceChordNote": 0,
            "sourceChordType": "Maj7",
            "ctb2Low": null,
            "ctb2Main": {
              "ntr": "ROOT_FIXED",
              "ntt": "CHORD",
              "bassOn": false,
              "chordRootUpperLimit": 7,
              "noteLowLimit": 0,
              "noteHighLimit": 127,
              "rtr": "PITCH_SHIFT"
            },
            "ctb2High": null
          },
          "notes": [
            {
              "pitch": 55,
              "velocity": 43,
              "position": 0.6666666666666666,
              "duration": 0.2604166666666667
            },
            {
              "pitch": 59,
              "velocity": 53,
              "position": 0.6666666666666666,
              "duration": 0.2604166666666667
            },
            {
              "pitch": 64,
              "velocity": 43,
              "position": 0.6666666666666666,
              "duration": 0.2916666666666667
            },
            {
              "pitch": 59,
              "velocity": 67,
              "position": 1.6666666666666667,
              "duration": 0.3958333333333333
            },
            {
              "pitch": 64,
              "velocity": 67,
              "position": 1.6666666666666667,
              "duration": 0.3958333333333333
            },
            {
              "pitch": 55,
              "velocity": 53,
              "position": 1.6666666666666667,
              "duration": 0.4270833333333333
            },
            {
              "pitch": 55,
              "velocity": 43,
              "position": 2.6666666666666665,
              "duration": 0.2604166666666667
            },
            {
              "pitch": 59,
              "velocity": 53,
              "position": 2.6666666666666665,
              "duration": 0.2604166666666667
            },
            {
              "pitch": 64,
              "velocity": 43,
              "position": 2.6666666666666665,
              "duration": 0.2916666666666667
            },
            {
              "pitch": 55,
              "velocity": 59,
              "position": 3.6666666666666665,
              "duration": 1.2291666666666667
            },
            {
              "pitch": 59,
              "velocity": 71,
              "position": 3.6666666666666665,
              "duration": 1.2291666666666667
            },
            {
              "pitch": 64,
              "velocity": 72,
              "position": 3.6666666666666665,
              "duration": 1.2291666666666667
            },
            {
              "pitch": 55,
              "velocity": 46,
              "position": 5,
              "duration": 1.4375
            },
            {
              "pitch": 59,
              "velocity": 67,
              "position": 5,
              "duration": 1.4375
            },
            {
              "pitch": 64,
              "velocity": 60,
              "position": 5,
              "duration": 1.4375
            },
            {
              "pitch": 55,
              "velocity": 46,
              "position": 6.666666666666667,
              "duration": 1.7708333333333333
            },
            {
              "pitch": 59,
              "velocity": 67,
              "position": 6.666666666666667,
              "duration": 1.7708333333333333
            },
            {
              "pitch": 64,
              "velocity": 60,
              "position": 6.666666666666667,
              "duration": 1.7708333333333333
            },
            {
              "pitch": 55,
              "velocity": 53,
              "position": 8.666666666666666,
              "duration": 0.2604166666666667
            },
            {
              "pitch": 59,
              "velocity": 53,
              "position": 8.666666666666666,
              "duration": 0.2604166666666667
            },
            {
              "pitch": 64,
              "velocity": 53,
              "position": 8.666666666666666,
              "duration": 0.2604166666666667
            },
            {
              "pitch": 55,
              "velocity": 54,
              "position": 9.666666666666666,
              "duration": 0.22916666666666666
            },
            {
              "pitch": 59,
              "velocity": 56,
              "position": 9.666666666666666,
              "duration": 0.22916666666666666
            },
            {
              "pitch": 64,
              "velocity": 54,
              "position": 9.666666666666666,
              "duration": 0.22916666666666666
            },
            {
              "pitch": 55,
              "velocity": 43,
              "position": 10.666666666666666,
              "duration": 0.2604166666666667
            },
            {
              "pitch": 59,
              "velocity": 53,
              "position": 10.666666666666666,
              "duration": 0.2604166666666667
            },
            {
              "pitch": 64,
              "velocity": 43,
              "position": 10.666666666666666,
              "duration": 0.2916666666666667
            },
            {
              "pitch": 59,
              "velocity": 67,
              "position": 11.666666666666666,
              "duration": 0.34375
            },
            {
              "pitch": 64,
              "velocity": 67,
              "position": 11.666666666666666,
              "duration": 0.3958333333333333
            },
            {
              "pitch": 55,
              "velocity": 53,
              "position": 11.666666666666666,
              "duration": 0.4270833333333333
            },
            {
              "pitch": 55,
              "velocity": 43,
              "position": 12.666666666666666,
              "duration": 0.2604166666666667
            },
            {
              "pitch": 59,
              "velocity": 53,
              "position": 12.666666666666666,
              "duration": 0.2604166666666667
            },
            {
              "pitch": 64,
              "velocity": 43,
              "position": 12.666666666666666,
              "duration": 0.2916666666666667
            },
            {
              "pitch": 55,
              "velocity": 59,
              "position": 13.666666666666666,
              "duration": 1.2291666666666667
            },
            {
              "pitch": 59,
              "velocity": 71,
              "position": 13.666666666666666,
              "duration": 1.2291666666666667
            },
            {
              "pitch": 64,
              "velocity": 72,
              "position": 13.666666666666666,
              "duration": 1.2291666666666667
            },
            {
              "pitch": 55,
              "velocity": 46,
              "position": 15,
              "duration": 1.4375
            },
            {
              "pitch": 59,
              "velocity": 67,
              "position": 15,
              "duration": 1.4375
            },
            {
              "pitch": 64,
              "velocity": 60,
              "position": 15,
              "duration": 1.4375
            },
            {
              "pitch": 55,
              "velocity": 46,
              "position": 16.666666666666668,
              "duration": 1.7708333333333333
            },
            {
              "pitch": 59,
              "velocity": 67,
              "position": 16.666666666666668,
              "duration": 1.7708333333333333
            },
            {
              "pitch": 64,
              "velocity": 60,
              "position": 16.666666666666668,
              "duration": 1.7708333333333333
            },
            {
              "pitch": 59,
              "velocity": 63,
              "position": 18.666666666666668,
              "duration": 0.15625
            },
            {
              "pitch": 64,
              "velocity": 51,
              "position": 18.666666666666668,
              "duration": 0.17708333333333334
            },
            {
              "pitch": 55,
              "velocity": 51,
              "position": 18.666666666666668,
              "duration": 0.23958333333333334
            },
            {
              "pitch": 55,
              "velocity": 53,
              "position": 19.666666666666668,
              "duration": 0.2708333333333333
            },
            {
              "pitch": 59,
              "velocity": 67,
              "position": 19.666666666666668,
              "duration": 0.2708333333333333
            },
            {
              "pitch": 64,
              "velocity": 67,
              "position": 19.666666666666668,
              "duration": 0.28125
            }
          ]
        },
        "14": {
          "ctab": {
            "srcChannel": 14,
            "name": "Pno",
            "accType": "CHORD2",
            "editable": false,
            "mutedNotes": [],
            "mutedChords": [],
            "autoStart": false,
            "sourceChordNote": 0,
            "sourceChordType": "Maj7",
            "ctb2Low": null,
            "ctb2Main": {
              "ntr": "ROOT_FIXED",
              "ntt": "CHORD",
              "bassOn": false,
              "chordRootUpperLimit": 7,
              "noteLowLimit": 0,
              "noteHighLimit": 79,
              "rtr": "PITCH_SHIFT"
            },
            "ctb2High": null
          },
          "notes": []
        }
      }
    },
    "Fill_In_AA": {
      "type": "Fill_In_AA",
      "sizeInBeats": 5,
      "channels": {
        "2": {
          "ctab": {
            "srcChannel": 2,
            "name": "Pno Root",
            "accType": "CHORD1",
            "editable": false,
            "mutedNotes": [],
            "mutedChords": [
              "1+2+5",
              "sus4",
              "1+5",
              "1+8",
              "Maj7aug",
              "dim",
              "minMaj7(9)",
              "minMaj7",
              "min6",
              "min",
              "aug",
              "Maj7(9)",
              "Maj7#11",
              "Maj7",
              "Maj6",
              "Maj"
            ],
            "autoStart": false,
            "sourceChordNote": 0,
            "sourceChordType": "Maj7",
            "ctb2Low": null,
            "ctb2Main": {
              "ntr": "ROOT_TRANSPOSITION",
              "ntt": "MELODY",
              "bassOn": false,
              "chordRootUpperLimit": 6,
              "noteLowLimit": 0,
              "noteHighLimit": 127,
              "rtr": "PITCH_SHIFT"
            },
            "ctb2High": null
          },
          "notes": [
            {
              "pitch": 60,
              "velocity": 69,
              "position": 0.6666666666666666,
              "duration": 0.2708333333333333
            },
            {
              "pitch": 60,
              "velocity": 56,
              "position": 3.6666666666666665,
              "duration": 1.1979166666666667
            }
          ]
        },
        "7": {
          "ctab": {
            "srcChannel": 7,
            "name": "CC_Crash",
            "accType": "RHYTHM",
            "editable": false,
            "mutedNotes": [],
            "mutedChords": [
              "1+2+5",
              "sus4",
              "1+5",
              "1+8",
              "7aug",
              "Maj7aug",
              "7(#9)",
              "7(b13)",
              "7(b9)",
              "7(13)",
              "7#11",
              "7(9)",
              "7b5",
              "7sus4",
              "7th",
              "dim7",
              "dim",
              "minMaj7(9)",
              "minMaj7",
              "min7(11)",
              "min7(9)",
              "min(9)",
              "m7b5",
              "min7",
              "min6",
              "min",
              "aug",
              "Maj6(9)",
              "Maj7(9)",
              "Maj(9)",
              "Maj7#11",
              "Maj7",
              "Maj6",
              "Maj"
            ],
            "autoStart": true,
            "sourceChordNote": 0,
            "sourceChordType": "Maj",
            "ctb2Low": null,
            "ctb2Main": {
              "ntr": "ROOT_FIXED",
              "ntt": "BYPASS",
              "bassOn": false,
              "chordRootUpperLimit": 0,
              "noteLowLimit": 0,
              "noteHighLimit": 127,
              "rtr": "RETRIGGER"
            },
            "ctb2High": null
          },
          "notes": []
        },
        "9": {
          "ctab": {
            "srcChannel": 9,
            "name": "Drums",
            "accType": "RHYTHM",
            "editable": false,
            "mutedNotes": [],
            "mutedChords": [],
            "autoStart": true,
            "sourceChordNote": 0,
            "sourceChordType": "Maj7",
            "ctb2Low": null,
            "ctb2Main": {
              "ntr": "ROOT_FIXED",
              "ntt": "BYPASS",
              "bassOn": false,
              "chordRootUpperLimit": 6,
              "noteLowLimit": 0,
              "noteHighLimit": 127,
              "rtr": "PITCH_SHIFT"
            },
            "ctb2High": null
          },
          "notes": [
            {
              "pitch": 33,
              "velocity": 64,
              "position": 0,
              "duration": 0.010416666666666666
            },
            {
              "pitch": 28,
              "velocity": 58,
              "position": 0,
              "duration": 0.9895833333333334
            },
            {
              "pitch": 25,
              "velocity": 88,
              "position": 1,
              "duration": 0.010416666666666666
            },
            {
              "pitch": 44,
              "velocity": 50,
              "position": 1,
              "duration": 0.010416666666666666
            },
            {
              "pitch": 25,
              "velocity": 122,
              "position": 1.6666666666666667,
              "duration": 0.010416666666666666
            },
            {
              "pitch": 27,
              "velocity": 127,
              "position": 1.6666666666666667,
              "duration": 0.010416666666666666
            },
            {
              "pitch": 26,
              "velocity": 41,
              "position": 1,
              "duration": 0.9895833333333334
            },
            {
              "pitch": 44,
              "velocity": 57,
              "position": 2,
              "duration": 0.010416666666666666
            },
            {
              "pitch": 25,
              "velocity": 72,
              "position": 2.3333333333333335,
              "duration": 0.010416666666666666
            },
            {
              "pitch": 33,
              "velocity": 64,
              "position": 2.6666666666666665,
              "duration": 0.010416666666666666
            },
            {
              "pitch": 26,
              "velocity": 41,
              "position": 2,
              "duration": 0.9895833333333334
            },
            {
              "pitch": 33,
              "velocity": 88,
              "position": 3,
              "duration": 0.010416666666666666
            },
            {
              "pitch": 25,
              "velocity": 74,
              "position": 3.3333333333333335,
              "duration": 0.010416666666666666
            },
            {
              "pitch": 25,
              "velocity": 81,
              "position": 3.6666666666666665,
              "duration": 0.010416666666666666
            },
            {
              "pitch": 27,
              "velocity": 127,
              "position": 3.6666666666666665,
              "duration": 0.010416666666666666
            },
            {
              "pitch": 28,
              "velocity": 58,
              "position": 3,
              "duration": 0.9895833333333334
            },
            {
              "pitch": 25,
              "velocity": 122,
              "position": 4,
              "duration": 0.010416666666666666
            },
            {
              "pitch": 27,
              "velocity": 127,
              "position": 4,
              "duration": 0.010416666666666666
            },
            {
              "pitch": 44,
              "velocity": 57,
              "position": 4,
              "duration": 0.010416666666666666
            },
            {
              "pitch": 26,
              "velocity": 41,
              "position": 4,
              "duration": 0.9895833333333334
            }
          ]
        },
        "10": {
          "ctab": {
            "srcChannel": 10,
            "name": "Bass",
            "accType": "BASS",
            "editable": false,
            "mutedNotes": [],
            "mutedChords": [],
            "autoStart": false,
            "sourceChordNote": 0,
            "sourceChordType": "Maj7",
            "ctb2Low": null,
            "ctb2Main": {
              "ntr": "ROOT_TRANSPOSITION",
              "ntt": "MELODY",
              "bassOn": true,
              "chordRootUpperLimit": 8,
              "noteLowLimit": 28,
              "noteHighLimit": 127,
              "rtr": "PITCH_SHIFT_TO_ROOT"
            },
            "ctb2High": null
          },
          "notes": [
            {
              "pitch": 24,
              "velocity": 60,
              "position": 0,
              "duration": 2.875
            },
            {
              "pitch": 24,
              "velocity": 62,
              "position": 3,
              "duration": 0.875
            },
            {
              "pitch": 31,
              "velocity": 60,
              "position": 4,
              "duration": 0.875
            }
          ]
        },
        "11": {
          "ctab": {
            "srcChannel": 11,
            "name": "Pno",
            "accType": "CHORD1",
            "editable": false,
            "mutedNotes": [],
            "mutedChords": [],
            "autoStart": false,
            "sourceChordNote": 0,
            "sourceChordType": "Maj7",
            "ctb2Low": null,
            "ctb2Main": {
              "ntr": "ROOT_FIXED",
              "ntt": "CHORD",
              "bassOn": false,
              "chordRootUpperLimit": 7,
              "noteLowLimit": 0,
              "noteHighLimit": 127,
              "rtr": "PITCH_SHIFT"
            },
            "ctb2High": null
          },
          "notes": [
            {
              "pitch": 59,
              "velocity": 76,
              "position": 0.6666666666666666,
              "duration": 0.2708333333333333
            },
            {
              "pitch": 55,
              "velocity": 51,
              "position": 0.6666666666666666,
              "duration": 0.2916666666666667
            },
            {
              "pitch": 64,
              "velocity": 45,
              "position": 0.6666666666666666,
              "duration": 0.2916666666666667
            },
            {
              "pitch": 71,
              "velocity": 67,
              "position": 1.6666666666666667,
              "duration": 0.3958333333333333
            },
            {
              "pitch": 67,
              "velocity": 46,
              "position": 1.6666666666666667,
              "duration": 0.4479166666666667
            },
            {
              "pitch": 76,
              "velocity": 60,
              "position": 1.6666666666666667,
              "duration": 0.4791666666666667
            },
            {
              "pitch": 67,
              "velocity": 76,
              "position": 2.6666666666666665,
              "duration": 0.2708333333333333
            },
            {
              "pitch": 64,
              "velocity": 45,
              "position": 2.6666666666666665,
              "duration": 0.2916666666666667
            },
            {
              "pitch": 71,
              "velocity": 51,
              "position": 2.6666666666666665,
              "duration": 0.2916666666666667
            },
            {
              "pitch": 59,
              "velocity": 63,
              "position": 3.6666666666666665,
              "duration": 1.1979166666666667
            },
            {
              "pitch": 64,
              "velocity": 51,
              "position": 3.6666666666666665,
              "duration": 1.21875
            },
            {
              "pitch": 55,
              "velocity": 51,
              "position": 3.6666666666666665,
              "duration": 1.28125
            }
          ]
        },
        "14": {
          "ctab": {
            "srcChannel": 14,
            "name": "Pno",
            "accType": "CHORD2",
            "editable": false,
            "mutedNotes": [],
            "mutedChords": [],
            "autoStart": false,
            "sourceChordNote": 0,
            "sourceChordType": "Maj7",
            "ctb2Low": null,
            "ctb2Main": {
              "ntr": "ROOT_FIXED",
              "ntt": "CHORD",
              "bassOn": false,
              "chordRootUpperLimit": 7,
              "noteLowLimit": 0,
              "noteHighLimit": 79,
              "rtr": "PITCH_SHIFT"
            },
            "ctb2High": null
          },
          "notes": []
        }
      }
    },
    "Fill_In_BB": {
      "type": "Fill_In_BB",
      "sizeInBeats": 5,
      "channels": {
        "2": {
          "ctab": {
            "srcChannel": 2,
            "name": "Pno Root",
            "accType": "CHORD1",
            "editable": false,
            "mutedNotes": [],
            "mutedChords": [
              "1+2+5",
              "sus4",
              "1+5",
              "1+8",
              "Maj7aug",
              "dim",
              "minMaj7(9)",
              "minMaj7",
              "min6",
              "min",
              "aug",
              "Maj7(9)",
              "Maj7#11",
              "Maj7",
              "Maj6",
              "Maj"
            ],
            "autoStart": false,
            "sourceChordNote": 0,
            "sourceChordType": "Maj7",
            "ctb2Low": null,
            "ctb2Main": {
              "ntr": "ROOT_TRANSPOSITION",
              "ntt": "MELODY",
              "bassOn": false,
              "chordRootUpperLimit": 6,
              "noteLowLimit": 0,
              "noteHighLimit": 127,
              "rtr": "PITCH_SHIFT"
            },
            "ctb2High": null
          },
          "notes": [
            {
              "pitch": 60,
              "velocity": 53,
              "position": 0.6666666666666666,
              "duration": 0.2708333333333333
            },
            {
              "pitch": 60,
              "velocity": 74,
              "position": 1.6666666666666667,
              "duration": 0.4375
            },
            {
              "pitch": 60,
              "velocity": 53,
              "position": 2.6666666666666665,
              "duration": 0.2708333333333333
            }
          ]
        },
        "7": {
          "ctab": {
            "srcChannel": 7,
            "name": "CC_Crash",
            "accType": "RHYTHM",
            "editable": false,
            "mutedNotes": [],
            "mutedChords": [
              "1+2+5",
              "sus4",
              "1+5",
              "1+8",
              "7aug",
              "Maj7aug",
              "7(#9)",
              "7(b13)",
              "7(b9)",
              "7(13)",
              "7#11",
              "7(9)",
              "7b5",
              "7sus4",
              "7th",
              "dim7",
              "dim",
              "minMaj7(9)",
              "minMaj7",
              "min7(11)",
              "min7(9)",
              "min(9)",
              "m7b5",
              "min7",
              "min6",
              "min",
              "aug",
              "Maj6(9)",
              "Maj7(9)",
              "Maj(9)",
              "Maj7#11",
              "Maj7",
              "Maj6",
              "Maj"
            ],
            "autoStart": true,
            "sourceChordNote": 0,
            "sourceChordType": "Maj",
            "ctb2Low": null,
            "ctb2Main": {
              "ntr": "ROOT_FIXED",
              "ntt": "BYPASS",
              "bassOn": false,
              "chordRootUpperLimit": 0,
              "noteLowLimit": 0,
              "noteHighLimit": 127,
              "rtr": "RETRIGGER"
            },
            "ctb2High": null
          },
          "notes": []
        },
        "9": {
          "ctab": {
            "srcChannel": 9,
            "name": "Drums",
            "accType": "RHYTHM",
            "editable": false,
            "mutedNotes": [],
            "mutedChords": [],
            "autoStart": true,
            "sourceChordNote": 0,
            "sourceChordType": "Maj7",
            "ctb2Low": null,
            "ctb2Main": {
              "ntr": "ROOT_FIXED",
              "ntt": "BYPASS",
              "bassOn": false,
              "chordRootUpperLimit": 6,
              "noteLowLimit": 0,
              "noteHighLimit": 127,
              "rtr": "PITCH_SHIFT"
            },
            "ctb2High": null
          },
          "notes": [
            {
              "pitch": 33,
              "velocity": 64,
              "position": 0,
              "duration": 0.010416666666666666
            },
            {
              "pitch": 25,
              "velocity": 127,
              "position": 0.6666666666666666,
              "duration": 0.010416666666666666
            },
            {
              "pitch": 28,
              "velocity": 58,
              "position": 0,
              "duration": 0.9895833333333334
            },
            {
              "pitch": 44,
              "velocity": 57,
              "position": 1,
              "duration": 0.010416666666666666
            },
            {
              "pitch": 25,
              "velocity": 127,
              "position": 1.6666666666666667,
              "duration": 0.010416666666666666
            },
            {
              "pitch": 27,
              "velocity": 127,
              "position": 1.6666666666666667,
              "duration": 0.010416666666666666
            },
            {
              "pitch": 26,
              "velocity": 41,
              "position": 1,
              "duration": 0.9895833333333334
            },
            {
              "pitch": 25,
              "velocity": 84,
              "position": 2.3333333333333335,
              "duration": 0.010416666666666666
            },
            {
              "pitch": 47,
              "velocity": 79,
              "position": 2.6666666666666665,
              "duration": 0.010416666666666666
            },
            {
              "pitch": 26,
              "velocity": 41,
              "position": 2,
              "duration": 0.9895833333333334
            },
            {
              "pitch": 33,
              "velocity": 64,
              "position": 3,
              "duration": 0.010416666666666666
            },
            {
              "pitch": 44,
              "velocity": 50,
              "position": 3,
              "duration": 0.010416666666666666
            },
            {
              "pitch": 25,
              "velocity": 90,
              "position": 3.3333333333333335,
              "duration": 0.010416666666666666
            },
            {
              "pitch": 25,
              "velocity": 127,
              "position": 3.6666666666666665,
              "duration": 0.010416666666666666
            },
            {
              "pitch": 45,
              "velocity": 73,
              "position": 3.6666666666666665,
              "duration": 0.010416666666666666
            },
            {
              "pitch": 28,
              "velocity": 58,
              "position": 3,
              "duration": 0.9895833333333334
            },
            {
              "pitch": 25,
              "velocity": 66,
              "position": 4.333333333333333,
              "duration": 0.010416666666666666
            },
            {
              "pitch": 33,
              "velocity": 36,
              "position": 4.666666666666667,
              "duration": 0.010416666666666666
            },
            {
              "pitch": 26,
              "velocity": 41,
              "position": 4,
              "duration": 0.9895833333333334
            }
          ]
        },
        "10": {
          "ctab": {
            "srcChannel": 10,
            "name": "Bass",
            "accType": "BASS",
            "editable": false,
            "mutedNotes": [],
            "mutedChords": [],
            "autoStart": false,
            "sourceChordNote": 0,
            "sourceChordType": "Maj7",
            "ctb2Low": null,
            "ctb2Main": {
              "ntr": "ROOT_TRANSPOSITION",
              "ntt": "MELODY",
              "bassOn": true,
              "chordRootUpperLimit": 8,
              "noteLowLimit": 28,
              "noteHighLimit": 127,
              "rtr": "PITCH_SHIFT_TO_ROOT"
            },
            "ctb2High": null
          },
          "notes": [
            {
              "pitch": 24,
              "velocity": 60,
              "position": 0,
              "duration": 1.5416666666666667
            },
            {
              "pitch": 31,
              "velocity": 60,
              "position": 1.6666666666666667,
              "duration": 0.875
            },
            {
              "pitch": 31,
              "velocity": 97,
              "position": 2.6666666666666665,
              "duration": 0.16666666666666666
            },
            {
              "pitch": 24,
              "velocity": 60,
              "position": 3,
              "duration": 0.9895833333333334
            },
            {
              "pitch": 36,
              "velocity": 60,
              "position": 4,
              "duration": 0.9895833333333334
            }
          ]
        },
        "11": {
          "ctab": {
            "srcChannel": 11,
            "name": "Pno",
            "accType": "CHORD1",
            "editable": false,
            "mutedNotes": [],
            "mutedChords": [],
            "autoStart": false,
            "sourceChordNote": 0,
            "sourceChordType": "Maj7",
            "ctb2Low": null,
            "ctb2Main": {
              "ntr": "ROOT_FIXED",
              "ntt": "CHORD",
              "bassOn": false,
              "chordRootUpperLimit": 7,
              "noteLowLimit": 0,
              "noteHighLimit": 127,
              "rtr": "PITCH_SHIFT"
            },
            "ctb2High": null
          },
          "notes": [
            {
              "pitch": 59,
              "velocity": 60,
              "position": 0.6666666666666666,
              "duration": 0.2708333333333333
            },
            {
              "pitch": 55,
              "velocity": 37,
              "position": 0.6666666666666666,
              "duration": 0.2916666666666667
            },
            {
              "pitch": 64,
              "velocity": 35,
              "position": 0.6666666666666666,
              "duration": 0.2916666666666667
            },
            {
              "pitch": 59,
              "velocity": 81,
              "position": 1.6666666666666667,
              "duration": 0.4375
            },
            {
              "pitch": 64,
              "velocity": 72,
              "position": 1.6666666666666667,
              "duration": 0.4375
            },
            {
              "pitch": 67,
              "velocity": 56,
              "position": 1.6666666666666667,
              "duration": 0.4375
            },
            {
              "pitch": 59,
              "velocity": 60,
              "position": 2.6666666666666665,
              "duration": 0.2708333333333333
            },
            {
              "pitch": 55,
              "velocity": 37,
              "position": 2.6666666666666665,
              "duration": 0.2916666666666667
            },
            {
              "pitch": 64,
              "velocity": 35,
              "position": 2.6666666666666665,
              "duration": 0.2916666666666667
            },
            {
              "pitch": 71,
              "velocity": 76,
              "position": 3.6666666666666665,
              "duration": 1.15625
            },
            {
              "pitch": 64,
              "velocity": 60,
              "position": 3.6666666666666665,
              "duration": 1.1770833333333333
            },
            {
              "pitch": 67,
              "velocity": 61,
              "position": 3.6666666666666665,
              "duration": 1.2395833333333333
            }
          ]
        },
        "14": {
          "ctab": {
            "srcChannel": 14,
            "name": "Pno",
            "accType": "CHORD2",
            "editable": false,
            "mutedNotes": [],
            "mutedChords": [],
            "autoStart": false,
            "sourceChordNote": 0,
            "sourceChordType": "Maj7",
            "ctb2Low": null,
            "ctb2Main": {
              "ntr": "ROOT_FIXED",
              "ntt": "CHORD",
              "bassOn": false,
              "chordRootUpperLimit": 7,
              "noteLowLimit": 0,
              "noteHighLimit": 79,
              "rtr": "PITCH_SHIFT"
            },
            "ctb2High": null
          },
          "notes": []
        }
      }
    },
    "Intro_A": {
      "type": "Intro_A",
      "sizeInBeats": 5,
      "channels": {
        "2": {
          "ctab": {
            "srcChannel": 2,
            "name": "Pno Root",
            "accType": "CHORD1",
            "editable": false,
            "mutedNotes": [],
            "mutedChords": [
              "1+2+5",
              "sus4",
              "1+5",
              "1+8",
              "Maj7aug",
              "dim",
              "minMaj7(9)",
              "minMaj7",
              "min6",
              "min",
              "aug",
              "Maj7(9)",
              "Maj7#11",
              "Maj7",
              "Maj6",
              "Maj"
            ],
            "autoStart": false,
            "sourceChordNote": 0,
            "sourceChordType": "Maj7",
            "ctb2Low": null,
            "ctb2Main": {
              "ntr": "ROOT_TRANSPOSITION",
              "ntt": "MELODY",
              "bassOn": false,
              "chordRootUpperLimit": 6,
              "noteLowLimit": 0,
              "noteHighLimit": 127,
              "rtr": "PITCH_SHIFT"
            },
            "ctb2High": null
          },
          "notes": []
        },
        "7": {
          "ctab": {
            "srcChannel": 7,
            "name": "CC_Crash",
            "accType": "RHYTHM",
            "editable": false,
            "mutedNotes": [],
            "mutedChords": [
              "1+2+5",
              "sus4",
              "1+5",
              "1+8",
              "7aug",
              "Maj7aug",
              "7(#9)",
              "7(b13)",
              "7(b9)",
              "7(13)",
              "7#11",
              "7(9)",
              "7b5",
              "7sus4",
              "7th",
              "dim7",
              "dim",
              "minMaj7(9)",
              "minMaj7",
              "min7(11)",
              "min7(9)",
              "min(9)",
              "m7b5",
              "min7",
              "min6",
              "min",
              "aug",
              "Maj6(9)",
              "Maj7(9)",
              "Maj(9)",
              "Maj7#11",
              "Maj7",
              "Maj6",
              "Maj"
            ],
            "autoStart": true,
            "sourceChordNote": 0,
            "sourceChordType": "Maj",
            "ctb2Low": null,
            "ctb2Main": {
              "ntr": "ROOT_FIXED",
              "ntt": "BYPASS",
              "bassOn": false,
              "chordRootUpperLimit": 0,
              "noteLowLimit": 0,
              "noteHighLimit": 127,
              "rtr": "RETRIGGER"
            },
            "ctb2High": null
          },
          "notes": []
        },
        "9": {
          "ctab": {
            "srcChannel": 9,
            "name": "Drums",
            "accType": "RHYTHM",
            "editable": false,
            "mutedNotes": [],
            "mutedChords": [],
            "autoStart": true,
            "sourceChordNote": 0,
            "sourceChordType": "Maj7",
            "ctb2Low": null,
            "ctb2Main": {
              "ntr": "ROOT_FIXED",
              "ntt": "BYPASS",
              "bassOn": false,
              "chordRootUpperLimit": 6,
              "noteLowLimit": 0,
              "noteHighLimit": 127,
              "rtr": "PITCH_SHIFT"
            },
            "ctb2High": null
          },
          "notes": [
            {
              "pitch": 44,
              "velocity": 50,
              "position": 0,
              "duration": 0.010416666666666666
            },
            {
              "pitch": 28,
              "velocity": 58,
              "position": 0,
              "duration": 0.9895833333333334
            },
            {
              "pitch": 44,
              "velocity": 50,
              "position": 1,
              "duration": 0.010416666666666666
            },
            {
              "pitch": 26,
              "velocity": 41,
              "position": 1,
              "duration": 0.9895833333333334
            },
            {
              "pitch": 44,
              "velocity": 50,
              "position": 2,
              "duration": 0.010416666666666666
            },
            {
              "pitch": 33,
              "velocity": 36,
              "position": 2.6666666666666665,
              "duration": 0.010416666666666666
            },
            {
              "pitch": 26,
              "velocity": 41,
              "position": 2,
              "duration": 0.9895833333333334
            },
            {
              "pitch": 33,
              "velocity": 64,
              "position": 3,
              "duration": 0.010416666666666666
            },
            {
              "pitch": 44,
              "velocity": 50,
              "position": 3,
              "duration": 0.010416666666666666
            },
            {
              "pitch": 25,
              "velocity": 45,
              "position": 3.3333333333333335,
              "duration": 0.010416666666666666
            },
            {
              "pitch": 25,
              "velocity": 45,
              "position": 3.6666666666666665,
              "duration": 0.010416666666666666
            },
            {
              "pitch": 27,
              "velocity": 127,
              "position": 3.6666666666666665,
              "duration": 0.010416666666666666
            },
            {
              "pitch": 28,
              "velocity": 58,
              "position": 3,
              "duration": 0.9895833333333334
            },
            {
              "pitch": 25,
              "velocity": 115,
              "position": 4,
              "duration": 0.010416666666666666
            },
            {
              "pitch": 27,
              "velocity": 127,
              "position": 4,
              "duration": 0.010416666666666666
            },
            {
              "pitch": 44,
              "velocity": 57,
              "position": 4,
              "duration": 0.010416666666666666
            },
            {
              "pitch": 26,
              "velocity": 41,
              "position": 4,
              "duration": 0.9895833333333334
            }
          ]
        },
        "10": {
          "ctab": {
            "srcChannel": 10,
            "name": "Bass",
            "accType": "BASS",
            "editable": false,
            "mutedNotes": [],
            "mutedChords": [],
            "autoStart": false,
            "sourceChordNote": 0,
            "sourceChordType": "Maj7",
            "ctb2Low": null,
            "ctb2Main": {
              "ntr": "ROOT_TRANSPOSITION",
              "ntt": "MELODY",
              "bassOn": true,
              "chordRootUpperLimit": 8,
              "noteLowLimit": 28,
              "noteHighLimit": 127,
              "rtr": "PITCH_SHIFT_TO_ROOT"
            },
            "ctb2High": null
          },
          "notes": []
        },
        "11": {
          "ctab": {
            "srcChannel": 11,
            "name": "Pno",
            "accType": "CHORD1",
            "editable": false,
            "mutedNotes": [],
            "mutedChords": [],
            "autoStart": false,
            "sourceChordNote": 0,
            "sourceChordType": "Maj7",
            "ctb2Low": null,
            "ctb2Main": {
              "ntr": "ROOT_FIXED",
              "ntt": "CHORD",
              "bassOn": false,
              "chordRootUpperLimit": 7,
              "noteLowLimit": 0,
              "noteHighLimit": 127,
              "rtr": "PITCH_SHIFT"
            },
            "ctb2High": null
          },
          "notes": []
        },
        "14": {
          "ctab": {
            "srcChannel": 14,
            "name": "Pno",
            "accType": "CHORD2",
            "editable": false,
            "mutedNotes": [],
            "mutedChords": [],
            "autoStart": false,
            "sourceChordNote": 0,
            "sourceChordType": "Maj7",
            "ctb2Low": null,
            "ctb2Main": {
              "ntr": "ROOT_FIXED",
              "ntt": "CHORD",
              "bassOn": false,
              "chordRootUpperLimit": 7,
              "noteLowLimit": 0,
              "noteHighLimit": 79,
              "rtr": "PITCH_SHIFT"
            },
            "ctb2High": null
          },
          "notes": []
        }
      }
    },
    "Ending_A": {
      "type": "Ending_A",
      "sizeInBeats": 10,
      "channels": {
        "2": {
          "ctab": {
            "srcChannel": 2,
            "name": "Pno Root",
            "accType": "CHORD1",
            "editable": false,
            "mutedNotes": [],
            "mutedChords": [
              "1+2+5",
              "sus4",
              "1+5",
              "1+8",
              "Maj7aug",
              "dim",
              "minMaj7(9)",
              "minMaj7",
              "min6",
              "min",
              "aug",
              "Maj7(9)",
              "Maj7#11",
              "Maj7",
              "Maj6",
              "Maj"
            ],
            "autoStart": false,
            "sourceChordNote": 0,
            "sourceChordType": "Maj7",
            "ctb2Low": null,
            "ctb2Main": {
              "ntr": "ROOT_TRANSPOSITION",
              "ntt": "MELODY",
              "bassOn": false,
              "chordRootUpperLimit": 6,
              "noteLowLimit": 0,
              "noteHighLimit": 127,
              "rtr": "PITCH_SHIFT"
            },
            "ctb2High": null
          },
          "notes": [
            {
              "pitch": 60,
              "velocity": 60,
              "position": 0,
              "duration": 9.989583333333334
            }
          ]
        },
        "7": {
          "ctab": {
            "srcChannel": 7,
            "name": "CC_Crash",
            "accType": "RHYTHM",
            "editable": false,
            "mutedNotes": [],
            "mutedChords": [
              "1+2+5",
              "sus4",
              "1+5",
              "1+8",
              "7aug",
              "Maj7aug",
              "7(#9)",
              "7(b13)",
              "7(b9)",
              "7(13)",
              "7#11",
              "7(9)",
              "7b5",
              "7sus4",
              "7th",
              "dim7",
              "dim",
              "minMaj7(9)",
              "minMaj7",
              "min7(11)",
              "min7(9)",
              "min(9)",
              "m7b5",
              "min7",
              "min6",
              "min",
              "aug",
              "Maj6(9)",
              "Maj7(9)",
              "Maj(9)",
              "Maj7#11",
              "Maj7",
              "Maj6",
              "Maj"
            ],
            "autoStart": true,
            "sourceChordNote": 0,
            "sourceChordType": "Maj",
            "ctb2Low": null,
            "ctb2Main": {
              "ntr": "ROOT_FIXED",
              "ntt": "BYPASS",
              "bassOn": false,
              "chordRootUpperLimit": 0,
              "noteLowLimit": 0,
              "noteHighLimit": 127,
              "rtr": "RETRIGGER"
            },
            "ctb2High": null
          },
          "notes": []
        },
        "9": {
          "ctab": {
            "srcChannel": 9,
            "name": "Drums",
            "accType": "RHYTHM",
            "editable": false,
            "mutedNotes": [],
            "mutedChords": [],
            "autoStart": true,
            "sourceChordNote": 0,
            "sourceChordType": "Maj7",
            "ctb2Low": null,
            "ctb2Main": {
              "ntr": "ROOT_FIXED",
              "ntt": "BYPASS",
              "bassOn": false,
              "chordRootUpperLimit": 6,
              "noteLowLimit": 0,
              "noteHighLimit": 127,
              "rtr": "PITCH_SHIFT"
            },
            "ctb2High": null
          },
          "notes": [
            {
              "pitch": 33,
              "velocity": 64,
              "position": 0,
              "duration": 0.010416666666666666
            }
          ]
        },
        "10": {
          "ctab": {
            "srcChannel": 10,
            "name": "Bass",
            "accType": "BASS",
            "editable": false,
            "mutedNotes": [],
            "mutedChords": [],
            "autoStart": false,
            "sourceChordNote": 0,
            "sourceChordType": "Maj7",
            "ctb2Low": null,
            "ctb2Main": {
              "ntr": "ROOT_TRANSPOSITION",
              "ntt": "MELODY",
              "bassOn": true,
              "chordRootUpperLimit": 8,
              "noteLowLimit": 28,
              "noteHighLimit": 127,
              "rtr": "PITCH_SHIFT_TO_ROOT"
            },
            "ctb2High": null
          },
          "notes": [
            {
              "pitch": 24,
              "velocity": 60,
              "position": 0,
              "duration": 9.989583333333334
            }
          ]
        },
        "11": {
          "ctab": {
            "srcChannel": 11,
            "name": "Pno",
            "accType": "CHORD1",
            "editable": false,
            "mutedNotes": [],
            "mutedChords": [],
            "autoStart": false,
            "sourceChordNote": 0,
            "sourceChordType": "Maj7",
            "ctb2Low": null,
            "ctb2Main": {
              "ntr": "ROOT_FIXED",
              "ntt": "CHORD",
              "bassOn": false,
              "chordRootUpperLimit": 7,
              "noteLowLimit": 0,
              "noteHighLimit": 127,
              "rtr": "PITCH_SHIFT"
            },
            "ctb2High": null
          },
          "notes": [
            {
              "pitch": 55,
              "velocity": 53,
              "position": 0,
              "duration": 9.989583333333334
            },
            {
              "pitch": 59,
              "velocity": 67,
              "position": 0,
              "duration": 9.989583333333334
            },
            {
              "pitch": 64,
              "velocity": 67,
              "position": 0,
              "duration": 9.989583333333334
            }
          ]
        },
        "14": {
          "ctab": {
            "srcChannel": 14,
            "name": "Pno",
            "accType": "CHORD2",
            "editable": false,
            "mutedNotes": [],
            "mutedChords": [],
            "autoStart": false,
            "sourceChordNote": 0,
            "sourceChordType": "Maj7",
            "ctb2Low": null,
            "ctb2Main": {
              "ntr": "ROOT_FIXED",
              "ntt": "CHORD",
              "bassOn": false,
              "chordRootUpperLimit": 7,
              "noteLowLimit": 0,
              "noteHighLimit": 79,
              "rtr": "PITCH_SHIFT"
            },
            "ctb2High": null
          },
          "notes": []
        }
      }
    },
    "Ending_B": {
      "type": "Ending_B",
      "sizeInBeats": 15,
      "channels": {
        "2": {
          "ctab": {
            "srcChannel": 2,
            "name": "Pno Root",
            "accType": "CHORD1",
            "editable": false,
            "mutedNotes": [],
            "mutedChords": [
              "1+2+5",
              "sus4",
              "1+5",
              "1+8",
              "Maj7aug",
              "dim",
              "minMaj7(9)",
              "minMaj7",
              "min6",
              "min",
              "aug",
              "Maj7(9)",
              "Maj7#11",
              "Maj7",
              "Maj6",
              "Maj"
            ],
            "autoStart": false,
            "sourceChordNote": 0,
            "sourceChordType": "Maj7",
            "ctb2Low": null,
            "ctb2Main": {
              "ntr": "ROOT_TRANSPOSITION",
              "ntt": "MELODY",
              "bassOn": false,
              "chordRootUpperLimit": 6,
              "noteLowLimit": 0,
              "noteHighLimit": 127,
              "rtr": "PITCH_SHIFT"
            },
            "ctb2High": null
          },
          "notes": [
            {
              "pitch": 60,
              "velocity": 81,
              "position": 0.6666666666666666,
              "duration": 1.6770833333333333
            },
            {
              "pitch": 60,
              "velocity": 85,
              "position": 2.6666666666666665,
              "duration": 1.8958333333333333
            },
            {
              "pitch": 60,
              "velocity": 81,
              "position": 5,
              "duration": 9.989583333333334
            }
          ]
        },
        "7": {
          "ctab": {
            "srcChannel": 7,
            "name": "CC_Crash",
            "accType": "RHYTHM",
            "editable": false,
            "mutedNotes": [],
            "mutedChords": [
              "1+2+5",
              "sus4",
              "1+5",
              "1+8",
              "7aug",
              "Maj7aug",
              "7(#9)",
              "7(b13)",
              "7(b9)",
              "7(13)",
              "7#11",
              "7(9)",
              "7b5",
              "7sus4",
              "7th",
              "dim7",
              "dim",
              "minMaj7(9)",
              "minMaj7",
              "min7(11)",
              "min7(9)",
              "min(9)",
              "m7b5",
              "min7",
              "min6",
              "min",
              "aug",
              "Maj6(9)",
              "Maj7(9)",
              "Maj(9)",
              "Maj7#11",
              "Maj7",
              "Maj6",
              "Maj"
            ],
            "autoStart": true,
            "sourceChordNote": 0,
            "sourceChordType": "Maj",
            "ctb2Low": null,
            "ctb2Main": {
              "ntr": "ROOT_FIXED",
              "ntt": "BYPASS",
              "bassOn": false,
              "chordRootUpperLimit": 0,
              "noteLowLimit": 0,
              "noteHighLimit": 127,
              "rtr": "RETRIGGER"
            },
            "ctb2High": null
          },
          "notes": []
        },
        "9": {
          "ctab": {
            "srcChannel": 9,
            "name": "Drums",
            "accType": "RHYTHM",
            "editable": false,
            "mutedNotes": [],
            "mutedChords": [],
            "autoStart": true,
            "sourceChordNote": 0,
            "sourceChordType": "Maj7",
            "ctb2Low": null,
            "ctb2Main": {
              "ntr": "ROOT_FIXED",
              "ntt": "BYPASS",
              "bassOn": false,
              "chordRootUpperLimit": 6,
              "noteLowLimit": 0,
              "noteHighLimit": 127,
              "rtr": "PITCH_SHIFT"
            },
            "ctb2High": null
          },
          "notes": [
            {
              "pitch": 33,
              "velocity": 64,
              "position": 0,
              "duration": 0.010416666666666666
            },
            {
              "pitch": 44,
              "velocity": 57,
              "position": 0,
              "duration": 0.010416666666666666
            },
            {
              "pitch": 51,
              "velocity": 54,
              "position": 0,
              "duration": 0.010416666666666666
            },
            {
              "pitch": 28,
              "velocity": 58,
              "position": 0,
              "duration": 0.9895833333333334
            },
            {
              "pitch": 51,
              "velocity": 54,
              "position": 1,
              "duration": 0.010416666666666666
            },
            {
              "pitch": 26,
              "velocity": 41,
              "position": 1,
              "duration": 0.65625
            },
            {
              "pitch": 51,
              "velocity": 9,
              "position": 1.6666666666666667,
              "duration": 0.010416666666666666
            },
            {
              "pitch": 25,
              "velocity": 31,
              "position": 2,
              "duration": 0.010416666666666666
            },
            {
              "pitch": 44,
              "velocity": 57,
              "position": 2,
              "duration": 0.010416666666666666
            },
            {
              "pitch": 51,
              "velocity": 54,
              "position": 2,
              "duration": 0.010416666666666666
            },
            {
              "pitch": 25,
              "velocity": 67,
              "position": 2.3333333333333335,
              "duration": 0.010416666666666666
            },
            {
              "pitch": 28,
              "velocity": 58,
              "position": 1.6666666666666667,
              "duration": 0.9895833333333334
            },
            {
              "pitch": 27,
              "velocity": 127,
              "position": 2.6666666666666665,
              "duration": 0.0020833333333333333
            },
            {
              "pitch": 25,
              "velocity": 122,
              "position": 2.6666666666666665,
              "duration": 0.010416666666666666
            },
            {
              "pitch": 25,
              "velocity": 67,
              "position": 3,
              "duration": 0.010416666666666666
            },
            {
              "pitch": 25,
              "velocity": 31,
              "position": 3.3333333333333335,
              "duration": 0.010416666666666666
            },
            {
              "pitch": 33,
              "velocity": 36,
              "position": 3.6666666666666665,
              "duration": 0.010416666666666666
            },
            {
              "pitch": 33,
              "velocity": 64,
              "position": 4,
              "duration": 0.010416666666666666
            },
            {
              "pitch": 46,
              "velocity": 49,
              "position": 4,
              "duration": 0.010416666666666666
            },
            {
              "pitch": 33,
              "velocity": 64,
              "position": 5,
              "duration": 0.010416666666666666
            },
            {
              "pitch": 46,
              "velocity": 49,
              "position": 5,
              "duration": 0.010416666666666666
            },
            {
              "pitch": 49,
              "velocity": 60,
              "position": 5,
              "duration": 0.010416666666666666
            }
          ]
        },
        "10": {
          "ctab": {
            "srcChannel": 10,
            "name": "Bass",
            "accType": "BASS",
            "editable": false,
            "mutedNotes": [],
            "mutedChords": [],
            "autoStart": false,
            "sourceChordNote": 0,
            "sourceChordType": "Maj7",
            "ctb2Low": null,
            "ctb2Main": {
              "ntr": "ROOT_TRANSPOSITION",
              "ntt": "MELODY",
              "bassOn": true,
              "chordRootUpperLimit": 8,
              "noteLowLimit": 28,
              "noteHighLimit": 127,
              "rtr": "PITCH_SHIFT_TO_ROOT"
            },
            "ctb2High": null
          },
          "notes": [
            {
              "pitch": 24,
              "velocity": 60,
              "position": 0,
              "duration": 2.5416666666666665
            },
            {
              "pitch": 24,
              "velocity": 97,
              "position": 2.6666666666666665,
              "duration": 0.16666666666666666
            },
            {
              "pitch": 36,
              "velocity": 70,
              "position": 3,
              "duration": 0.9895833333333334
            },
            {
              "pitch": 31,
              "velocity": 60,
              "position": 4,
              "duration": 0.9895833333333334
            },
            {
              "pitch": 24,
              "velocity": 60,
              "position": 5,
              "duration": 9.989583333333334
            }
          ]
        },
        "11": {
          "ctab": {
            "srcChannel": 11,
            "name": "Pno",
            "accType": "CHORD1",
            "editable": false,
            "mutedNotes": [],
            "mutedChords": [],
            "autoStart": false,
            "sourceChordNote": 0,
            "sourceChordType": "Maj7",
            "ctb2Low": null,
            "ctb2Main": {
              "ntr": "ROOT_FIXED",
              "ntt": "CHORD",
              "bassOn": false,
              "chordRootUpperLimit": 7,
              "noteLowLimit": 0,
              "noteHighLimit": 127,
              "rtr": "PITCH_SHIFT"
            },
            "ctb2High": null
          },
          "notes": [
            {
              "pitch": 59,
              "velocity": 81,
              "position": 0.6666666666666666,
              "duration": 1.6770833333333333
            },
            {
              "pitch": 64,
              "velocity": 81,
              "position": 0.6666666666666666,
              "duration": 1.7291666666666667
            },
            {
              "pitch": 55,
              "velocity": 67,
              "position": 0.6666666666666666,
              "duration": 1.7604166666666667
            },
            {
              "pitch": 55,
              "velocity": 73,
              "position": 2.6666666666666665,
              "duration": 1.8958333333333333
            },
            {
              "pitch": 59,
              "velocity": 85,
              "position": 2.6666666666666665,
              "duration": 1.8958333333333333
            },
            {
              "pitch": 64,
              "velocity": 86,
              "position": 2.6666666666666665,
              "duration": 1.8958333333333333
            },
            {
              "pitch": 55,
              "velocity": 67,
              "position": 5,
              "duration": 9.989583333333334
            },
            {
              "pitch": 59,
              "velocity": 81,
              "position": 5,
              "duration": 9.989583333333334
            },
            {
              "pitch": 64,
              "velocity": 81,
              "position": 5,
              "duration": 9.989583333333334
            }
          ]
        },
        "14": {
          "ctab": {
            "srcChannel": 14,
            "name": "Pno",
            "accType": "CHORD2",
            "editable": false,
            "mutedNotes": [],
            "mutedChords": [],
            "autoStart": false,
            "sourceChordNote": 0,
            "sourceChordType": "Maj7",
            "ctb2Low": null,
            "ctb2Main": {
              "ntr": "ROOT_FIXED",
              "ntt": "CHORD",
              "bassOn": false,
              "chordRootUpperLimit": 7,
              "noteLowLimit": 0,
              "noteHighLimit": 79,
              "rtr": "PITCH_SHIFT"
            },
            "ctb2High": null
          },
          "notes": [
            {
              "pitch": 67,
              "velocity": 84,
              "position": 0.6666666666666666,
              "duration": 0.9895833333333334
            },
            {
              "pitch": 71,
              "velocity": 98,
              "position": 0.6666666666666666,
              "duration": 0.9895833333333334
            },
            {
              "pitch": 76,
              "velocity": 98,
              "position": 0.6666666666666666,
              "duration": 0.9895833333333334
            },
            {
              "pitch": 71,
              "velocity": 98,
              "position": 1.6666666666666667,
              "duration": 0.9895833333333334
            },
            {
              "pitch": 76,
              "velocity": 98,
              "position": 1.6666666666666667,
              "duration": 0.9895833333333334
            },
            {
              "pitch": 79,
              "velocity": 84,
              "position": 1.6666666666666667,
              "duration": 0.9895833333333334
            },
            {
              "pitch": 76,
              "velocity": 98,
              "position": 2.6666666666666665,
              "duration": 0.9895833333333334
            },
            {
              "pitch": 79,
              "velocity": 84,
              "position": 2.6666666666666665,
              "duration": 0.9895833333333334
            },
            {
              "pitch": 83,
              "velocity": 98,
              "position": 2.6666666666666665,
              "duration": 0.9895833333333334
            },
            {
              "pitch": 79,
              "velocity": 84,
              "position": 3.6666666666666665,
              "duration": 1.3229166666666667
            },
            {
              "pitch": 83,
              "velocity": 98,
              "position": 3.6666666666666665,
              "duration": 1.3229166666666667
            },
            {
              "pitch": 88,
              "velocity": 98,
              "position": 3.6666666666666665,
              "duration": 1.3229166666666667
            },
            {
              "pitch": 83,
              "velocity": 87,
              "position": 5,
              "duration": 9.989583333333334
            },
            {
              "pitch": 88,
              "velocity": 87,
              "position": 5,
              "duration": 9.989583333333334
            },
            {
              "pitch": 91,
              "velocity": 73,
              "position": 5,
              "duration": 9.989583333333334
            }
          ]
        }
      }
    },
    "Fill_In_BA": {
      "type": "Fill_In_BA",
      "sizeInBeats": 5,
      "channels": {
        "2": {
          "ctab": {
            "srcChannel": 2,
            "name": "Pno Root",
            "accType": "CHORD1",
            "editable": false,
            "mutedNotes": [],
            "mutedChords": [
              "1+2+5",
              "sus4",
              "1+5",
              "1+8",
              "Maj7aug",
              "dim",
              "minMaj7(9)",
              "minMaj7",
              "min6",
              "min",
              "aug",
              "Maj7(9)",
              "Maj7#11",
              "Maj7",
              "Maj6",
              "Maj"
            ],
            "autoStart": false,
            "sourceChordNote": 0,
            "sourceChordType": "Maj7",
            "ctb2Low": null,
            "ctb2Main": {
              "ntr": "ROOT_TRANSPOSITION",
              "ntt": "MELODY",
              "bassOn": false,
              "chordRootUpperLimit": 6,
              "noteLowLimit": 0,
              "noteHighLimit": 127,
              "rtr": "PITCH_SHIFT"
            },
            "ctb2High": null
          },
          "notes": [
            {
              "pitch": 60,
              "velocity": 60,
              "position": 0,
              "duration": 0.65625
            },
            {
              "pitch": 60,
              "velocity": 56,
              "position": 0.6666666666666666,
              "duration": 0.15625
            }
          ]
        },
        "7": {
          "ctab": {
            "srcChannel": 7,
            "name": "CC_Crash",
            "accType": "RHYTHM",
            "editable": false,
            "mutedNotes": [],
            "mutedChords": [
              "1+2+5",
              "sus4",
              "1+5",
              "1+8",
              "7aug",
              "Maj7aug",
              "7(#9)",
              "7(b13)",
              "7(b9)",
              "7(13)",
              "7#11",
              "7(9)",
              "7b5",
              "7sus4",
              "7th",
              "dim7",
              "dim",
              "minMaj7(9)",
              "minMaj7",
              "min7(11)",
              "min7(9)",
              "min(9)",
              "m7b5",
              "min7",
              "min6",
              "min",
              "aug",
              "Maj6(9)",
              "Maj7(9)",
              "Maj(9)",
              "Maj7#11",
              "Maj7",
              "Maj6",
              "Maj"
            ],
            "autoStart": true,
            "sourceChordNote": 0,
            "sourceChordType": "Maj",
            "ctb2Low": null,
            "ctb2Main": {
              "ntr": "ROOT_FIXED",
              "ntt": "BYPASS",
              "bassOn": false,
              "chordRootUpperLimit": 0,
              "noteLowLimit": 0,
              "noteHighLimit": 127,
              "rtr": "RETRIGGER"
            },
            "ctb2High": null
          },
          "notes": []
        },
        "9": {
          "ctab": {
            "srcChannel": 9,
            "name": "Drums",
            "accType": "RHYTHM",
            "editable": false,
            "mutedNotes": [],
            "mutedChords": [],
            "autoStart": true,
            "sourceChordNote": 0,
            "sourceChordType": "Maj7",
            "ctb2Low": null,
            "ctb2Main": {
              "ntr": "ROOT_FIXED",
              "ntt": "BYPASS",
              "bassOn": false,
              "chordRootUpperLimit": 6,
              "noteLowLimit": 0,
              "noteHighLimit": 127,
              "rtr": "PITCH_SHIFT"
            },
            "ctb2High": null
          },
          "notes": [
            {
              "pitch": 33,
              "velocity": 64,
              "position": 0,
              "duration": 0.010416666666666666
            },
            {
              "pitch": 59,
              "velocity": 47,
              "position": 0,
              "duration": 0.010416666666666666
            },
            {
              "pitch": 31,
              "velocity": 92,
              "position": 0.6666666666666666,
              "duration": 0.010416666666666666
            },
            {
              "pitch": 46,
              "velocity": 47,
              "position": 0.6666666666666666,
              "duration": 0.010416666666666666
            },
            {
              "pitch": 44,
              "velocity": 1,
              "position": 1,
              "duration": 0.010416666666666666
            },
            {
              "pitch": 31,
              "velocity": 44,
              "position": 1.3333333333333333,
              "duration": 0.010416666666666666
            },
            {
              "pitch": 31,
              "velocity": 88,
              "position": 1.6666666666666667,
              "duration": 0.010416666666666666
            },
            {
              "pitch": 40,
              "velocity": 99,
              "position": 1.6666666666666667,
              "duration": 0.010416666666666666
            },
            {
              "pitch": 31,
              "velocity": 44,
              "position": 2.3333333333333335,
              "duration": 0.010416666666666666
            },
            {
              "pitch": 47,
              "velocity": 66,
              "position": 2.6666666666666665,
              "duration": 0.010416666666666666
            },
            {
              "pitch": 33,
              "velocity": 64,
              "position": 3,
              "duration": 0.010416666666666666
            },
            {
              "pitch": 31,
              "velocity": 44,
              "position": 3.3333333333333335,
              "duration": 0.010416666666666666
            },
            {
              "pitch": 31,
              "velocity": 84,
              "position": 3.6666666666666665,
              "duration": 0.010416666666666666
            },
            {
              "pitch": 31,
              "velocity": 84,
              "position": 4,
              "duration": 0.010416666666666666
            },
            {
              "pitch": 40,
              "velocity": 99,
              "position": 4,
              "duration": 0.010416666666666666
            },
            {
              "pitch": 31,
              "velocity": 84,
              "position": 4.333333333333333,
              "duration": 0.010416666666666666
            },
            {
              "pitch": 33,
              "velocity": 48,
              "position": 4.666666666666667,
              "duration": 0.010416666666666666
            },
            {
              "pitch": 57,
              "velocity": 47,
              "position": 4.989583333333333,
              "duration": 0.010416666666666666
            }
          ]
        },
        "10": {
          "ctab": {
            "srcChannel": 10,
            "name": "Bass",
            "accType": "BASS",
            "editable": false,
            "mutedNotes": [],
            "mutedChords": [],
            "autoStart": false,
            "sourceChordNote": 0,
            "sourceChordType": "Maj7",
            "ctb2Low": null,
            "ctb2Main": {
              "ntr": "ROOT_TRANSPOSITION",
              "ntt": "MELODY",
              "bassOn": true,
              "chordRootUpperLimit": 8,
              "noteLowLimit": 28,
              "noteHighLimit": 127,
              "rtr": "PITCH_SHIFT_TO_ROOT"
            },
            "ctb2High": null
          },
          "notes": [
            {
              "pitch": 24,
              "velocity": 60,
              "position": 0,
              "duration": 0.65625
            },
            {
              "pitch": 24,
              "velocity": 65,
              "position": 0.6666666666666666,
              "duration": 0.20833333333333334
            }
          ]
        },
        "11": {
          "ctab": {
            "srcChannel": 11,
            "name": "Pno",
            "accType": "CHORD1",
            "editable": false,
            "mutedNotes": [],
            "mutedChords": [],
            "autoStart": false,
            "sourceChordNote": 0,
            "sourceChordType": "Maj7",
            "ctb2Low": null,
            "ctb2Main": {
              "ntr": "ROOT_FIXED",
              "ntt": "CHORD",
              "bassOn": false,
              "chordRootUpperLimit": 7,
              "noteLowLimit": 0,
              "noteHighLimit": 127,
              "rtr": "PITCH_SHIFT"
            },
            "ctb2High": null
          },
          "notes": [
            {
              "pitch": 55,
              "velocity": 53,
              "position": 0,
              "duration": 0.65625
            },
            {
              "pitch": 59,
              "velocity": 67,
              "position": 0,
              "duration": 0.65625
            },
            {
              "pitch": 64,
              "velocity": 67,
              "position": 0,
              "duration": 0.65625
            },
            {
              "pitch": 59,
              "velocity": 63,
              "position": 0.6666666666666666,
              "duration": 0.15625
            },
            {
              "pitch": 64,
              "velocity": 51,
              "position": 0.6666666666666666,
              "duration": 0.17708333333333334
            },
            {
              "pitch": 55,
              "velocity": 51,
              "position": 0.6666666666666666,
              "duration": 0.23958333333333334
            }
          ]
        },
        "14": {
          "ctab": {
            "srcChannel": 14,
            "name": "Pno",
            "accType": "CHORD2",
            "editable": false,
            "mutedNotes": [],
            "mutedChords": [],
            "autoStart": false,
            "sourceChordNote": 0,
            "sourceChordType": "Maj7",
            "ctb2Low": null,
            "ctb2Main": {
              "ntr": "ROOT_FIXED",
              "ntt": "CHORD",
              "bassOn": false,
              "chordRootUpperLimit": 7,
              "noteLowLimit": 0,
              "noteHighLimit": 79,
              "rtr": "PITCH_SHIFT"
            },
            "ctb2High": null
          },
          "notes": []
        }
      }
    },
    "Fill_In_CC": {
      "type": "Fill_In_CC",
      "sizeInBeats": 5,
      "channels": {
        "1": {
          "ctab": {
            "srcChannel": 1,
            "name": "Bass",
            "accType": "BASS",
            "editable": false,
            "mutedNotes": [],
            "mutedChords": [
              "1+5",
              "1+8",
              "7(#9)",
              "7(b13)",
              "7(b9)",
              "7(13)",
              "7#11",
              "7(9)",
              "7b5",
              "7sus4",
              "7th",
              "dim7",
              "min7(11)",
              "min7(9)",
              "min7",
              "min6",
              "Maj6(9)",
              "Maj7(9)",
              "Maj(9)",
              "Maj7#11",
              "Maj7",
              "Maj6",
              "Maj"
            ],
            "autoStart": false,
            "sourceChordNote": 0,
            "sourceChordType": "Maj7",
            "ctb2Low": null,
            "ctb2Main": {
              "ntr": "ROOT_TRANSPOSITION",
              "ntt": "MELODY",
              "bassOn": true,
              "chordRootUpperLimit": 8,
              "noteLowLimit": 28,
              "noteHighLimit": 127,
              "rtr": "PITCH_SHIFT_TO_ROOT"
            },
            "ctb2High": null
          },
          "notes": [
            {
              "pitch": 24,
              "velocity": 60,
              "position": 0,
              "duration": 0.90625
            },
            {
              "pitch": 28,
              "velocity": 60,
              "position": 1,
              "duration": 0.90625
            },
            {
              "pitch": 31,
              "velocity": 60,
              "position": 2,
              "duration": 0.90625
            },
            {
              "pitch": 28,
              "velocity": 60,
              "position": 3,
              "duration": 0.90625
            },
            {
              "pitch": 31,
              "velocity": 60,
              "position": 4,
              "duration": 0.90625
            }
          ]
        },
        "2": {
          "ctab": {
            "srcChannel": 2,
            "name": "Pno Root",
            "accType": "CHORD1",
            "editable": false,
            "mutedNotes": [],
            "mutedChords": [
              "1+2+5",
              "sus4",
              "1+5",
              "1+8",
              "Maj7aug",
              "dim",
              "minMaj7(9)",
              "minMaj7",
              "min6",
              "min",
              "aug",
              "Maj7(9)",
              "Maj7#11",
              "Maj7",
              "Maj6",
              "Maj"
            ],
            "autoStart": false,
            "sourceChordNote": 0,
            "sourceChordType": "Maj7",
            "ctb2Low": null,
            "ctb2Main": {
              "ntr": "ROOT_TRANSPOSITION",
              "ntt": "MELODY",
              "bassOn": false,
              "chordRootUpperLimit": 6,
              "noteLowLimit": 0,
              "noteHighLimit": 127,
              "rtr": "PITCH_SHIFT"
            },
            "ctb2High": null
          },
          "notes": [
            {
              "pitch": 60,
              "velocity": 65,
              "position": 2,
              "duration": 1.625
            },
            {
              "pitch": 60,
              "velocity": 65,
              "position": 3.6666666666666665,
              "duration": 1.2916666666666667
            }
          ]
        },
        "7": {
          "ctab": {
            "srcChannel": 7,
            "name": "CC_Crash",
            "accType": "RHYTHM",
            "editable": false,
            "mutedNotes": [],
            "mutedChords": [
              "1+2+5",
              "sus4",
              "1+5",
              "1+8",
              "7aug",
              "Maj7aug",
              "7(#9)",
              "7(b13)",
              "7(b9)",
              "7(13)",
              "7#11",
              "7(9)",
              "7b5",
              "7sus4",
              "7th",
              "dim7",
              "dim",
              "minMaj7(9)",
              "minMaj7",
              "min7(11)",
              "min7(9)",
              "min(9)",
              "m7b5",
              "min7",
              "min6",
              "min",
              "aug",
              "Maj6(9)",
              "Maj7(9)",
              "Maj(9)",
              "Maj7#11",
              "Maj7",
              "Maj6",
              "Maj"
            ],
            "autoStart": true,
            "sourceChordNote": 0,
            "sourceChordType": "Maj",
            "ctb2Low": null,
            "ctb2Main": {
              "ntr": "ROOT_FIXED",
              "ntt": "BYPASS",
              "bassOn": false,
              "chordRootUpperLimit": 0,
              "noteLowLimit": 0,
              "noteHighLimit": 127,
              "rtr": "RETRIGGER"
            },
            "ctb2High": null
          },
          "notes": []
        },
        "9": {
          "ctab": {
            "srcChannel": 9,
            "name": "Drums",
            "accType": "RHYTHM",
            "editable": false,
            "mutedNotes": [],
            "mutedChords": [],
            "autoStart": true,
            "sourceChordNote": 0,
            "sourceChordType": "Maj7",
            "ctb2Low": null,
            "ctb2Main": {
              "ntr": "ROOT_FIXED",
              "ntt": "BYPASS",
              "bassOn": false,
              "chordRootUpperLimit": 6,
              "noteLowLimit": 0,
              "noteHighLimit": 127,
              "rtr": "PITCH_SHIFT"
            },
            "ctb2High": null
          },
          "notes": [
            {
              "pitch": 33,
              "velocity": 64,
              "position": 0,
              "duration": 0.010416666666666666
            },
            {
              "pitch": 51,
              "velocity": 54,
              "position": 0,
              "duration": 0.010416666666666666
            },
            {
              "pitch": 45,
              "velocity": 20,
              "position": 0.6666666666666666,
              "duration": 0.010416666666666666
            },
            {
              "pitch": 45,
              "velocity": 30,
              "position": 0.8333333333333334,
              "duration": 0.010416666666666666
            },
            {
              "pitch": 28,
              "velocity": 58,
              "position": 0,
              "duration": 0.9895833333333334
            },
            {
              "pitch": 44,
              "velocity": 57,
              "position": 1,
              "duration": 0.010416666666666666
            },
            {
              "pitch": 45,
              "velocity": 80,
              "position": 1,
              "duration": 0.010416666666666666
            },
            {
              "pitch": 26,
              "velocity": 41,
              "position": 1,
              "duration": 0.65625
            },
            {
              "pitch": 43,
              "velocity": 40,
              "position": 1.6666666666666667,
              "duration": 0.010416666666666666
            },
            {
              "pitch": 51,
              "velocity": 54,
              "position": 2,
              "duration": 0.010416666666666666
            },
            {
              "pitch": 33,
              "velocity": 64,
              "position": 2.6666666666666665,
              "duration": 0.010416666666666666
            },
            {
              "pitch": 51,
              "velocity": 9,
              "position": 2.6666666666666665,
              "duration": 0.010416666666666666
            },
            {
              "pitch": 28,
              "velocity": 58,
              "position": 1.6666666666666667,
              "duration": 1.3229166666666667
            },
            {
              "pitch": 44,
              "velocity": 57,
              "position": 3,
              "duration": 0.010416666666666666
            },
            {
              "pitch": 51,
              "velocity": 54,
              "position": 3,
              "duration": 0.010416666666666666
            },
            {
              "pitch": 51,
              "velocity": 54,
              "position": 3.3333333333333335,
              "duration": 0.010416666666666666
            },
            {
              "pitch": 33,
              "velocity": 36,
              "position": 3.6666666666666665,
              "duration": 0.010416666666666666
            },
            {
              "pitch": 28,
              "velocity": 58,
              "position": 3,
              "duration": 0.9895833333333334
            },
            {
              "pitch": 33,
              "velocity": 64,
              "position": 4,
              "duration": 0.010416666666666666
            },
            {
              "pitch": 51,
              "velocity": 54,
              "position": 4,
              "duration": 0.010416666666666666
            },
            {
              "pitch": 51,
              "velocity": 9,
              "position": 4.666666666666667,
              "duration": 0.010416666666666666
            },
            {
              "pitch": 26,
              "velocity": 41,
              "position": 4,
              "duration": 0.9895833333333334
            }
          ]
        },
        "10": {
          "ctab": {
            "srcChannel": 10,
            "name": "Bass",
            "accType": "BASS",
            "editable": false,
            "mutedNotes": [],
            "mutedChords": [
              "1+2+5",
              "sus4",
              "7aug",
              "Maj7aug",
              "dim",
              "minMaj7(9)",
              "minMaj7",
              "min(9)",
              "m7b5",
              "min",
              "aug"
            ],
            "autoStart": false,
            "sourceChordNote": 0,
            "sourceChordType": "Maj7",
            "ctb2Low": null,
            "ctb2Main": {
              "ntr": "ROOT_TRANSPOSITION",
              "ntt": "MELODY",
              "bassOn": true,
              "chordRootUpperLimit": 8,
              "noteLowLimit": 28,
              "noteHighLimit": 127,
              "rtr": "PITCH_SHIFT_TO_ROOT"
            },
            "ctb2High": null
          },
          "notes": [
            {
              "pitch": 24,
              "velocity": 60,
              "position": 0,
              "duration": 0.90625
            },
            {
              "pitch": 28,
              "velocity": 60,
              "position": 1,
              "duration": 0.90625
            },
            {
              "pitch": 31,
              "velocity": 60,
              "position": 2,
              "duration": 0.90625
            },
            {
              "pitch": 33,
              "velocity": 60,
              "position": 3,
              "duration": 0.90625
            },
            {
              "pitch": 31,
              "velocity": 60,
              "position": 4,
              "duration": 0.90625
            }
          ]
        },
        "11": {
          "ctab": {
            "srcChannel": 11,
            "name": "Pno",
            "accType": "CHORD1",
            "editable": false,
            "mutedNotes": [],
            "mutedChords": [],
            "autoStart": false,
            "sourceChordNote": 0,
            "sourceChordType": "Maj7",
            "ctb2Low": null,
            "ctb2Main": {
              "ntr": "ROOT_FIXED",
              "ntt": "CHORD",
              "bassOn": false,
              "chordRootUpperLimit": 7,
              "noteLowLimit": 0,
              "noteHighLimit": 127,
              "rtr": "PITCH_SHIFT"
            },
            "ctb2High": null
          },
          "notes": [
            {
              "pitch": 71,
              "velocity": 71,
              "position": 0,
              "duration": 1.9375
            },
            {
              "pitch": 64,
              "velocity": 65,
              "position": 0,
              "duration": 1.9583333333333333
            },
            {
              "pitch": 67,
              "velocity": 65,
              "position": 0,
              "duration": 1.9583333333333333
            },
            {
              "pitch": 55,
              "velocity": 69,
              "position": 0.6666666666666666,
              "duration": 1.8229166666666667
            },
            {
              "pitch": 55,
              "velocity": 79,
              "position": 2.6666666666666665,
              "duration": 0.8229166666666666
            },
            {
              "pitch": 67,
              "velocity": 92,
              "position": 2,
              "duration": 1.6041666666666667
            },
            {
              "pitch": 59,
              "velocity": 72,
              "position": 2,
              "duration": 1.625
            },
            {
              "pitch": 64,
              "velocity": 65,
              "position": 2,
              "duration": 1.625
            },
            {
              "pitch": 64,
              "velocity": 84,
              "position": 3.6666666666666665,
              "duration": 1.2708333333333333
            },
            {
              "pitch": 55,
              "velocity": 65,
              "position": 3.6666666666666665,
              "duration": 1.2916666666666667
            },
            {
              "pitch": 59,
              "velocity": 72,
              "position": 3.6666666666666665,
              "duration": 1.2916666666666667
            }
          ]
        }
      }
    },
    "Fill_In_DD": {
      "type": "Fill_In_DD",
      "sizeInBeats": 5,
      "channels": {
        "1": {
          "ctab": {
            "srcChannel": 1,
            "name": "Bass",
            "accType": "BASS",
            "editable": false,
            "mutedNotes": [],
            "mutedChords": [
              "1+5",
              "1+8",
              "7(#9)",
              "7(b13)",
              "7(b9)",
              "7(13)",
              "7#11",
              "7(9)",
              "7b5",
              "7sus4",
              "7th",
              "dim7",
              "min7(11)",
              "min7(9)",
              "min7",
              "min6",
              "Maj6(9)",
              "Maj7(9)",
              "Maj(9)",
              "Maj7#11",
              "Maj7",
              "Maj6",
              "Maj"
            ],
            "autoStart": false,
            "sourceChordNote": 0,
            "sourceChordType": "Maj7",
            "ctb2Low": null,
            "ctb2Main": {
              "ntr": "ROOT_TRANSPOSITION",
              "ntt": "MELODY",
              "bassOn": true,
              "chordRootUpperLimit": 8,
              "noteLowLimit": 28,
              "noteHighLimit": 127,
              "rtr": "PITCH_SHIFT_TO_ROOT"
            },
            "ctb2High": null
          },
          "notes": [
            {
              "pitch": 36,
              "velocity": 60,
              "position": 0,
              "duration": 0.875
            },
            {
              "pitch": 28,
              "velocity": 60,
              "position": 1,
              "duration": 0.875
            },
            {
              "pitch": 31,
              "velocity": 60,
              "position": 2,
              "duration": 0.875
            },
            {
              "pitch": 28,
              "velocity": 60,
              "position": 3,
              "duration": 0.875
            },
            {
              "pitch": 31,
              "velocity": 60,
              "position": 4,
              "duration": 0.875
            }
          ]
        },
        "2": {
          "ctab": {
            "srcChannel": 2,
            "name": "Pno Root",
            "accType": "CHORD1",
            "editable": false,
            "mutedNotes": [],
            "mutedChords": [
              "1+2+5",
              "sus4",
              "1+5",
              "1+8",
              "Maj7aug",
              "dim",
              "minMaj7(9)",
              "minMaj7",
              "min6",
              "min",
              "aug",
              "Maj7(9)",
              "Maj7#11",
              "Maj7",
              "Maj6",
              "Maj"
            ],
            "autoStart": false,
            "sourceChordNote": 0,
            "sourceChordType": "Maj7",
            "ctb2Low": null,
            "ctb2Main": {
              "ntr": "ROOT_TRANSPOSITION",
              "ntt": "MELODY",
              "bassOn": false,
              "chordRootUpperLimit": 6,
              "noteLowLimit": 0,
              "noteHighLimit": 127,
              "rtr": "PITCH_SHIFT"
            },
            "ctb2High": null
          },
          "notes": [
            {
              "pitch": 60,
              "velocity": 85,
              "position": 0.6666666666666666,
              "duration": 1.4895833333333333
            },
            {
              "pitch": 60,
              "velocity": 69,
              "position": 2.6666666666666665,
              "duration": 1.3229166666666667
            },
            {
              "pitch": 60,
              "velocity": 60,
              "position": 4.666666666666667,
              "duration": 0.22916666666666666
            }
          ]
        },
        "7": {
          "ctab": {
            "srcChannel": 7,
            "name": "CC_Crash",
            "accType": "RHYTHM",
            "editable": false,
            "mutedNotes": [],
            "mutedChords": [
              "1+2+5",
              "sus4",
              "1+5",
              "1+8",
              "7aug",
              "Maj7aug",
              "7(#9)",
              "7(b13)",
              "7(b9)",
              "7(13)",
              "7#11",
              "7(9)",
              "7b5",
              "7sus4",
              "7th",
              "dim7",
              "dim",
              "minMaj7(9)",
              "minMaj7",
              "min7(11)",
              "min7(9)",
              "min(9)",
              "m7b5",
              "min7",
              "min6",
              "min",
              "aug",
              "Maj6(9)",
              "Maj7(9)",
              "Maj(9)",
              "Maj7#11",
              "Maj7",
              "Maj6",
              "Maj"
            ],
            "autoStart": true,
            "sourceChordNote": 0,
            "sourceChordType": "Maj",
            "ctb2Low": null,
            "ctb2Main": {
              "ntr": "ROOT_FIXED",
              "ntt": "BYPASS",
              "bassOn": false,
              "chordRootUpperLimit": 0,
              "noteLowLimit": 0,
              "noteHighLimit": 127,
              "rtr": "RETRIGGER"
            },
            "ctb2High": null
          },
          "notes": []
        },
        "9": {
          "ctab": {
            "srcChannel": 9,
            "name": "Drums",
            "accType": "RHYTHM",
            "editable": false,
            "mutedNotes": [],
            "mutedChords": [],
            "autoStart": true,
            "sourceChordNote": 0,
            "sourceChordType": "Maj7",
            "ctb2Low": null,
            "ctb2Main": {
              "ntr": "ROOT_FIXED",
              "ntt": "BYPASS",
              "bassOn": false,
              "chordRootUpperLimit": 6,
              "noteLowLimit": 0,
              "noteHighLimit": 127,
              "rtr": "PITCH_SHIFT"
            },
            "ctb2High": null
          },
          "notes": [
            {
              "pitch": 33,
              "velocity": 64,
              "position": 0,
              "duration": 0.010416666666666666
            },
            {
              "pitch": 44,
              "velocity": 57,
              "position": 0,
              "duration": 0.010416666666666666
            },
            {
              "pitch": 59,
              "velocity": 47,
              "position": 0,
              "duration": 0.010416666666666666
            },
            {
              "pitch": 31,
              "velocity": 84,
              "position": 0.6666666666666666,
              "duration": 0.010416666666666666
            },
            {
              "pitch": 44,
              "velocity": 57,
              "position": 1,
              "duration": 0.010416666666666666
            },
            {
              "pitch": 31,
              "velocity": 45,
              "position": 1.3333333333333333,
              "duration": 0.010416666666666666
            },
            {
              "pitch": 31,
              "velocity": 80,
              "position": 1.6666666666666667,
              "duration": 0.010416666666666666
            },
            {
              "pitch": 40,
              "velocity": 99,
              "position": 1.6666666666666667,
              "duration": 0.010416666666666666
            },
            {
              "pitch": 44,
              "velocity": 57,
              "position": 2,
              "duration": 0.010416666666666666
            },
            {
              "pitch": 31,
              "velocity": 43,
              "position": 2.3333333333333335,
              "duration": 0.010416666666666666
            },
            {
              "pitch": 47,
              "velocity": 77,
              "position": 2.6666666666666665,
              "duration": 0.010416666666666666
            },
            {
              "pitch": 33,
              "velocity": 64,
              "position": 3,
              "duration": 0.010416666666666666
            },
            {
              "pitch": 44,
              "velocity": 57,
              "position": 3,
              "duration": 0.010416666666666666
            },
            {
              "pitch": 31,
              "velocity": 42,
              "position": 3.3333333333333335,
              "duration": 0.010416666666666666
            },
            {
              "pitch": 31,
              "velocity": 68,
              "position": 3.6666666666666665,
              "duration": 0.010416666666666666
            },
            {
              "pitch": 31,
              "velocity": 84,
              "position": 4,
              "duration": 0.010416666666666666
            },
            {
              "pitch": 40,
              "velocity": 99,
              "position": 4,
              "duration": 0.010416666666666666
            },
            {
              "pitch": 44,
              "velocity": 57,
              "position": 4,
              "duration": 0.010416666666666666
            },
            {
              "pitch": 31,
              "velocity": 77,
              "position": 4.333333333333333,
              "duration": 0.010416666666666666
            },
            {
              "pitch": 33,
              "velocity": 48,
              "position": 4.666666666666667,
              "duration": 0.010416666666666666
            }
          ]
        },
        "10": {
          "ctab": {
            "srcChannel": 10,
            "name": "Bass",
            "accType": "BASS",
            "editable": false,
            "mutedNotes": [],
            "mutedChords": [
              "1+2+5",
              "sus4",
              "7aug",
              "Maj7aug",
              "dim",
              "minMaj7(9)",
              "minMaj7",
              "min(9)",
              "m7b5",
              "min",
              "aug"
            ],
            "autoStart": false,
            "sourceChordNote": 0,
            "sourceChordType": "Maj7",
            "ctb2Low": null,
            "ctb2Main": {
              "ntr": "ROOT_TRANSPOSITION",
              "ntt": "MELODY",
              "bassOn": true,
              "chordRootUpperLimit": 8,
              "noteLowLimit": 28,
              "noteHighLimit": 127,
              "rtr": "PITCH_SHIFT_TO_ROOT"
            },
            "ctb2High": null
          },
          "notes": [
            {
              "pitch": 36,
              "velocity": 60,
              "position": 0,
              "duration": 0.875
            },
            {
              "pitch": 33,
              "velocity": 60,
              "position": 1,
              "duration": 0.875
            },
            {
              "pitch": 31,
              "velocity": 60,
              "position": 2,
              "duration": 0.875
            },
            {
              "pitch": 28,
              "velocity": 62,
              "position": 3,
              "duration": 0.875
            },
            {
              "pitch": 31,
              "velocity": 60,
              "position": 4,
              "duration": 0.875
            }
          ]
        },
        "11": {
          "ctab": {
            "srcChannel": 11,
            "name": "Pno",
            "accType": "CHORD1",
            "editable": false,
            "mutedNotes": [],
            "mutedChords": [],
            "autoStart": false,
            "sourceChordNote": 0,
            "sourceChordType": "Maj7",
            "ctb2Low": null,
            "ctb2Main": {
              "ntr": "ROOT_FIXED",
              "ntt": "CHORD",
              "bassOn": false,
              "chordRootUpperLimit": 7,
              "noteLowLimit": 0,
              "noteHighLimit": 127,
              "rtr": "PITCH_SHIFT"
            },
            "ctb2High": null
          },
          "notes": [
            {
              "pitch": 59,
              "velocity": 92,
              "position": 0.6666666666666666,
              "duration": 1.4895833333333333
            },
            {
              "pitch": 64,
              "velocity": 72,
              "position": 0.6666666666666666,
              "duration": 1.5104166666666667
            },
            {
              "pitch": 55,
              "velocity": 73,
              "position": 0.6666666666666666,
              "duration": 1.5729166666666667
            },
            {
              "pitch": 55,
              "velocity": 47,
              "position": 2.6666666666666665,
              "duration": 1.3229166666666667
            },
            {
              "pitch": 59,
              "velocity": 63,
              "position": 2.6666666666666665,
              "duration": 1.3229166666666667
            },
            {
              "pitch": 64,
              "velocity": 63,
              "position": 2.6666666666666665,
              "duration": 1.3229166666666667
            },
            {
              "pitch": 59,
              "velocity": 67,
              "position": 4.666666666666667,
              "duration": 0.22916666666666666
            },
            {
              "pitch": 64,
              "velocity": 67,
              "position": 4.666666666666667,
              "duration": 0.28125
            },
            {
              "pitch": 55,
              "velocity": 53,
              "position": 4.666666666666667,
              "duration": 0.3125
            }
          ]
        }
      }
    },
    "Intro_B": {
      "type": "Intro_B",
      "sizeInBeats": 20,
      "channels": {
        "1": {
          "ctab": {
            "srcChannel": 1,
            "name": "Bass",
            "accType": "BASS",
            "editable": false,
            "mutedNotes": [],
            "mutedChords": [
              "1+2+5",
              "sus4",
              "1+5",
              "1+8",
              "7aug",
              "Maj7aug",
              "7(#9)",
              "7(b13)",
              "7(b9)",
              "7(13)",
              "7#11",
              "7(9)",
              "7b5",
              "7sus4",
              "7th",
              "aug",
              "Maj6(9)",
              "Maj7(9)",
              "Maj(9)",
              "Maj7#11",
              "Maj7",
              "Maj6",
              "Maj"
            ],
            "autoStart": false,
            "sourceChordNote": 0,
            "sourceChordType": "min",
            "ctb2Low": null,
            "ctb2Main": {
              "ntr": "ROOT_TRANSPOSITION",
              "ntt": "BYPASS",
              "bassOn": false,
              "chordRootUpperLimit": 8,
              "noteLowLimit": 28,
              "noteHighLimit": 127,
              "rtr": "PITCH_SHIFT"
            },
            "ctb2High": null
          },
          "notes": [
            {
              "pitch": 24,
              "velocity": 60,
              "position": 0,
              "duration": 2.5416666666666665
            },
            {
              "pitch": 24,
              "velocity": 97,
              "position": 2.6666666666666665,
              "duration": 0.16666666666666666
            },
            {
              "pitch": 26,
              "velocity": 70,
              "position": 3,
              "duration": 0.875
            },
            {
              "pitch": 26,
              "velocity": 60,
              "position": 4,
              "duration": 0.875
            },
            {
              "pitch": 27,
              "velocity": 60,
              "position": 5,
              "duration": 2.5416666666666665
            },
            {
              "pitch": 27,
              "velocity": 97,
              "position": 7.666666666666667,
              "duration": 0.16666666666666666
            },
            {
              "pitch": 26,
              "velocity": 70,
              "position": 8,
              "duration": 0.875
            },
            {
              "pitch": 31,
              "velocity": 60,
              "position": 9,
              "duration": 0.875
            },
            {
              "pitch": 24,
              "velocity": 60,
              "position": 10,
              "duration": 2.5416666666666665
            },
            {
              "pitch": 24,
              "velocity": 97,
              "position": 12.666666666666666,
              "duration": 0.16666666666666666
            },
            {
              "pitch": 26,
              "velocity": 70,
              "position": 13,
              "duration": 0.875
            },
            {
              "pitch": 26,
              "velocity": 60,
              "position": 14,
              "duration": 0.875
            },
            {
              "pitch": 27,
              "velocity": 60,
              "position": 15,
              "duration": 2.5416666666666665
            },
            {
              "pitch": 27,
              "velocity": 97,
              "position": 17.666666666666668,
              "duration": 0.16666666666666666
            },
            {
              "pitch": 31,
              "velocity": 70,
              "position": 18,
              "duration": 1.875
            }
          ]
        },
        "2": {
          "ctab": {
            "srcChannel": 2,
            "name": "P LH",
            "accType": "CHORD1",
            "editable": false,
            "mutedNotes": [],
            "mutedChords": [
              "1+2+5",
              "sus4",
              "1+5",
              "1+8",
              "7aug",
              "Maj7aug",
              "7(#9)",
              "7(b13)",
              "7(b9)",
              "7(13)",
              "7#11",
              "7(9)",
              "7b5",
              "7sus4",
              "7th",
              "aug",
              "Maj6(9)",
              "Maj7(9)",
              "Maj(9)",
              "Maj7#11",
              "Maj7",
              "Maj6",
              "Maj"
            ],
            "autoStart": false,
            "sourceChordNote": 0,
            "sourceChordType": "min",
            "ctb2Low": null,
            "ctb2Main": {
              "ntr": "ROOT_TRANSPOSITION",
              "ntt": "BYPASS",
              "bassOn": false,
              "chordRootUpperLimit": 8,
              "noteLowLimit": 54,
              "noteHighLimit": 65,
              "rtr": "PITCH_SHIFT"
            },
            "ctb2High": null
          },
          "notes": [
            {
              "pitch": 55,
              "velocity": 57,
              "position": 0.6666666666666666,
              "duration": 0.2604166666666667
            },
            {
              "pitch": 58,
              "velocity": 67,
              "position": 0.6666666666666666,
              "duration": 0.2604166666666667
            },
            {
              "pitch": 63,
              "velocity": 57,
              "position": 0.6666666666666666,
              "duration": 0.2916666666666667
            },
            {
              "pitch": 58,
              "velocity": 81,
              "position": 2,
              "duration": 0.34375
            },
            {
              "pitch": 63,
              "velocity": 81,
              "position": 2,
              "duration": 0.3958333333333333
            },
            {
              "pitch": 55,
              "velocity": 67,
              "position": 2,
              "duration": 0.4270833333333333
            },
            {
              "pitch": 60,
              "velocity": 85,
              "position": 4,
              "duration": 0.3333333333333333
            },
            {
              "pitch": 57,
              "velocity": 73,
              "position": 4,
              "duration": 0.34375
            },
            {
              "pitch": 65,
              "velocity": 86,
              "position": 4,
              "duration": 0.4479166666666667
            },
            {
              "pitch": 62,
              "velocity": 90,
              "position": 5.666666666666667,
              "duration": 0.2708333333333333
            },
            {
              "pitch": 55,
              "velocity": 59,
              "position": 5.666666666666667,
              "duration": 0.2916666666666667
            },
            {
              "pitch": 58,
              "velocity": 65,
              "position": 5.666666666666667,
              "duration": 0.2916666666666667
            },
            {
              "pitch": 62,
              "velocity": 81,
              "position": 7,
              "duration": 0.3958333333333333
            },
            {
              "pitch": 58,
              "velocity": 60,
              "position": 7,
              "duration": 0.4479166666666667
            },
            {
              "pitch": 55,
              "velocity": 74,
              "position": 7,
              "duration": 0.4791666666666667
            },
            {
              "pitch": 60,
              "velocity": 77,
              "position": 9,
              "duration": 0.5520833333333334
            },
            {
              "pitch": 65,
              "velocity": 65,
              "position": 9,
              "duration": 0.5625
            },
            {
              "pitch": 57,
              "velocity": 65,
              "position": 9,
              "duration": 0.6354166666666666
            },
            {
              "pitch": 55,
              "velocity": 57,
              "position": 10.666666666666666,
              "duration": 0.2604166666666667
            },
            {
              "pitch": 58,
              "velocity": 67,
              "position": 10.666666666666666,
              "duration": 0.2604166666666667
            },
            {
              "pitch": 63,
              "velocity": 57,
              "position": 10.666666666666666,
              "duration": 0.2916666666666667
            },
            {
              "pitch": 58,
              "velocity": 81,
              "position": 12,
              "duration": 0.34375
            },
            {
              "pitch": 63,
              "velocity": 81,
              "position": 12,
              "duration": 0.3958333333333333
            },
            {
              "pitch": 55,
              "velocity": 67,
              "position": 12,
              "duration": 0.4270833333333333
            },
            {
              "pitch": 60,
              "velocity": 85,
              "position": 14,
              "duration": 0.3333333333333333
            },
            {
              "pitch": 57,
              "velocity": 73,
              "position": 14,
              "duration": 0.34375
            },
            {
              "pitch": 65,
              "velocity": 86,
              "position": 14,
              "duration": 0.4479166666666667
            },
            {
              "pitch": 62,
              "velocity": 90,
              "position": 15.666666666666666,
              "duration": 0.2708333333333333
            },
            {
              "pitch": 55,
              "velocity": 59,
              "position": 15.666666666666666,
              "duration": 0.2916666666666667
            },
            {
              "pitch": 58,
              "velocity": 65,
              "position": 15.666666666666666,
              "duration": 0.2916666666666667
            },
            {
              "pitch": 62,
              "velocity": 81,
              "position": 17,
              "duration": 0.3958333333333333
            },
            {
              "pitch": 65,
              "velocity": 60,
              "position": 17,
              "duration": 0.3958333333333333
            },
            {
              "pitch": 55,
              "velocity": 74,
              "position": 17,
              "duration": 0.4791666666666667
            },
            {
              "pitch": 60,
              "velocity": 77,
              "position": 18,
              "duration": 1.8854166666666667
            },
            {
              "pitch": 65,
              "velocity": 65,
              "position": 18,
              "duration": 1.8958333333333333
            },
            {
              "pitch": 57,
              "velocity": 65,
              "position": 18,
              "duration": 1.96875
            }
          ]
        },
        "5": {
          "ctab": {
            "srcChannel": 5,
            "name": "P RH",
            "accType": "CHORD2",
            "editable": false,
            "mutedNotes": [],
            "mutedChords": [
              "1+2+5",
              "sus4",
              "1+5",
              "1+8",
              "7aug",
              "Maj7aug",
              "7(#9)",
              "7(b13)",
              "7(b9)",
              "7(13)",
              "7#11",
              "7(9)",
              "7b5",
              "7sus4",
              "7th",
              "aug",
              "Maj6(9)",
              "Maj7(9)",
              "Maj(9)",
              "Maj7#11",
              "Maj7",
              "Maj6",
              "Maj"
            ],
            "autoStart": false,
            "sourceChordNote": 0,
            "sourceChordType": "min",
            "ctb2Low": null,
            "ctb2Main": {
              "ntr": "ROOT_TRANSPOSITION",
              "ntt": "BYPASS",
              "bassOn": false,
              "chordRootUpperLimit": 6,
              "noteLowLimit": 0,
              "noteHighLimit": 79,
              "rtr": "PITCH_SHIFT"
            },
            "ctb2High": null
          },
          "notes": [
            {
              "pitch": 72,
              "velocity": 96,
              "position": 0.010416666666666666,
              "duration": 1.75
            },
            {
              "pitch": 79,
              "velocity": 95,
              "position": 0.052083333333333336,
              "duration": 1.7395833333333333
            },
            {
              "pitch": 75,
              "velocity": 93,
              "position": 1.8125,
              "duration": 0.23958333333333334
            },
            {
              "pitch": 78,
              "velocity": 93,
              "position": 3.0104166666666665,
              "duration": 0.3020833333333333
            },
            {
              "pitch": 84,
              "velocity": 98,
              "position": 3.0208333333333335,
              "duration": 1.0520833333333333
            },
            {
              "pitch": 77,
              "velocity": 86,
              "position": 3.09375,
              "duration": 0.9791666666666666
            },
            {
              "pitch": 75,
              "velocity": 86,
              "position": 3.9895833333333335,
              "duration": 0.3229166666666667
            },
            {
              "pitch": 78,
              "velocity": 81,
              "position": 5.010416666666667,
              "duration": 0.3229166666666667
            },
            {
              "pitch": 79,
              "velocity": 96,
              "position": 5.25,
              "duration": 1.4270833333333333
            },
            {
              "pitch": 84,
              "velocity": 76,
              "position": 5.010416666666667,
              "duration": 1.75
            },
            {
              "pitch": 82,
              "velocity": 103,
              "position": 6.572916666666667,
              "duration": 0.2708333333333333
            },
            {
              "pitch": 72,
              "velocity": 66,
              "position": 7.614583333333333,
              "duration": 0.25
            },
            {
              "pitch": 84,
              "velocity": 103,
              "position": 8.09375,
              "duration": 0.3125
            },
            {
              "pitch": 72,
              "velocity": 66,
              "position": 8.614583333333334,
              "duration": 0.25
            },
            {
              "pitch": 82,
              "velocity": 72,
              "position": 8.989583333333334,
              "duration": 0.3229166666666667
            },
            {
              "pitch": 72,
              "velocity": 66,
              "position": 9.614583333333334,
              "duration": 0.25
            },
            {
              "pitch": 78,
              "velocity": 96,
              "position": 10.041666666666666,
              "duration": 0.3645833333333333
            },
            {
              "pitch": 79,
              "velocity": 95,
              "position": 10.4375,
              "duration": 1.1458333333333333
            },
            {
              "pitch": 84,
              "velocity": 76,
              "position": 10.010416666666666,
              "duration": 1.75
            },
            {
              "pitch": 75,
              "velocity": 102,
              "position": 11.572916666666666,
              "duration": 0.2708333333333333
            },
            {
              "pitch": 71,
              "velocity": 91,
              "position": 12.697916666666666,
              "duration": 0.25
            },
            {
              "pitch": 72,
              "velocity": 70,
              "position": 13.208333333333334,
              "duration": 0.2916666666666667
            },
            {
              "pitch": 75,
              "velocity": 103,
              "position": 13.739583333333334,
              "duration": 0.3125
            },
            {
              "pitch": 77,
              "velocity": 103,
              "position": 14.197916666666666,
              "duration": 0.5520833333333334
            },
            {
              "pitch": 72,
              "velocity": 59,
              "position": 14.697916666666666,
              "duration": 0.25
            },
            {
              "pitch": 78,
              "velocity": 84,
              "position": 15.1875,
              "duration": 0.4583333333333333
            },
            {
              "pitch": 79,
              "velocity": 105,
              "position": 15.708333333333334,
              "duration": 0.3333333333333333
            },
            {
              "pitch": 75,
              "velocity": 84,
              "position": 16.072916666666668,
              "duration": 0.6458333333333334
            },
            {
              "pitch": 70,
              "velocity": 89,
              "position": 17.010416666666668,
              "duration": 0.5833333333333334
            },
            {
              "pitch": 72,
              "velocity": 72,
              "position": 18.020833333333332,
              "duration": 1.9375
            }
          ]
        },
        "9": {
          "ctab": {
            "srcChannel": 9,
            "name": "Drums",
            "accType": "RHYTHM",
            "editable": false,
            "mutedNotes": [],
            "mutedChords": [],
            "autoStart": true,
            "sourceChordNote": 0,
            "sourceChordType": "Maj7",
            "ctb2Low": null,
            "ctb2Main": {
              "ntr": "ROOT_FIXED",
              "ntt": "BYPASS",
              "bassOn": false,
              "chordRootUpperLimit": 6,
              "noteLowLimit": 0,
              "noteHighLimit": 127,
              "rtr": "PITCH_SHIFT"
            },
            "ctb2High": null
          },
          "notes": [
            {
              "pitch": 33,
              "velocity": 64,
              "position": 0,
              "duration": 0.010416666666666666
            },
            {
              "pitch": 25,
              "velocity": 115,
              "position": 0.6666666666666666,
              "duration": 0.010416666666666666
            },
            {
              "pitch": 28,
              "velocity": 58,
              "position": 0,
              "duration": 0.9895833333333334
            },
            {
              "pitch": 44,
              "velocity": 50,
              "position": 1,
              "duration": 0.010416666666666666
            },
            {
              "pitch": 25,
              "velocity": 45,
              "position": 1.6666666666666667,
              "duration": 0.010416666666666666
            },
            {
              "pitch": 26,
              "velocity": 41,
              "position": 1,
              "duration": 0.9895833333333334
            },
            {
              "pitch": 25,
              "velocity": 115,
              "position": 2,
              "duration": 0.010416666666666666
            },
            {
              "pitch": 44,
              "velocity": 57,
              "position": 2,
              "duration": 0.010416666666666666
            },
            {
              "pitch": 26,
              "velocity": 41,
              "position": 2,
              "duration": 0.9895833333333334
            },
            {
              "pitch": 33,
              "velocity": 64,
              "position": 3,
              "duration": 0.010416666666666666
            },
            {
              "pitch": 25,
              "velocity": 45,
              "position": 3.6666666666666665,
              "duration": 0.010416666666666666
            },
            {
              "pitch": 28,
              "velocity": 58,
              "position": 3,
              "duration": 0.9895833333333334
            },
            {
              "pitch": 25,
              "velocity": 115,
              "position": 4,
              "duration": 0.010416666666666666
            },
            {
              "pitch": 44,
              "velocity": 57,
              "position": 4,
              "duration": 0.010416666666666666
            },
            {
              "pitch": 26,
              "velocity": 41,
              "position": 4,
              "duration": 0.9895833333333334
            },
            {
              "pitch": 33,
              "velocity": 64,
              "position": 5,
              "duration": 0.010416666666666666
            },
            {
              "pitch": 25,
              "velocity": 115,
              "position": 5.666666666666667,
              "duration": 0.010416666666666666
            },
            {
              "pitch": 28,
              "velocity": 58,
              "position": 5,
              "duration": 0.9895833333333334
            },
            {
              "pitch": 44,
              "velocity": 50,
              "position": 6,
              "duration": 0.010416666666666666
            },
            {
              "pitch": 25,
              "velocity": 45,
              "position": 6.666666666666667,
              "duration": 0.010416666666666666
            },
            {
              "pitch": 26,
              "velocity": 41,
              "position": 6,
              "duration": 0.9895833333333334
            },
            {
              "pitch": 25,
              "velocity": 115,
              "position": 7,
              "duration": 0.010416666666666666
            },
            {
              "pitch": 44,
              "velocity": 57,
              "position": 7,
              "duration": 0.010416666666666666
            },
            {
              "pitch": 26,
              "velocity": 41,
              "position": 7,
              "duration": 0.9895833333333334
            },
            {
              "pitch": 33,
              "velocity": 64,
              "position": 8,
              "duration": 0.010416666666666666
            },
            {
              "pitch": 25,
              "velocity": 45,
              "position": 8.666666666666666,
              "duration": 0.010416666666666666
            },
            {
              "pitch": 28,
              "velocity": 58,
              "position": 8,
              "duration": 0.9895833333333334
            },
            {
              "pitch": 25,
              "velocity": 115,
              "position": 9,
              "duration": 0.010416666666666666
            },
            {
              "pitch": 44,
              "velocity": 57,
              "position": 9,
              "duration": 0.010416666666666666
            },
            {
              "pitch": 26,
              "velocity": 41,
              "position": 9,
              "duration": 0.9895833333333334
            },
            {
              "pitch": 33,
              "velocity": 64,
              "position": 10,
              "duration": 0.010416666666666666
            },
            {
              "pitch": 25,
              "velocity": 115,
              "position": 10.666666666666666,
              "duration": 0.010416666666666666
            },
            {
              "pitch": 28,
              "velocity": 58,
              "position": 10,
              "duration": 0.9895833333333334
            },
            {
              "pitch": 44,
              "velocity": 50,
              "position": 11,
              "duration": 0.010416666666666666
            },
            {
              "pitch": 25,
              "velocity": 45,
              "position": 11.666666666666666,
              "duration": 0.010416666666666666
            },
            {
              "pitch": 26,
              "velocity": 41,
              "position": 11,
              "duration": 0.9895833333333334
            },
            {
              "pitch": 25,
              "velocity": 115,
              "position": 12,
              "duration": 0.010416666666666666
            },
            {
              "pitch": 44,
              "velocity": 57,
              "position": 12,
              "duration": 0.010416666666666666
            },
            {
              "pitch": 26,
              "velocity": 41,
              "position": 12,
              "duration": 0.9895833333333334
            },
            {
              "pitch": 33,
              "velocity": 64,
              "position": 13,
              "duration": 0.010416666666666666
            },
            {
              "pitch": 25,
              "velocity": 45,
              "position": 13.666666666666666,
              "duration": 0.010416666666666666
            },
            {
              "pitch": 28,
              "velocity": 58,
              "position": 13,
              "duration": 0.9895833333333334
            },
            {
              "pitch": 25,
              "velocity": 115,
              "position": 14,
              "duration": 0.010416666666666666
            },
            {
              "pitch": 44,
              "velocity": 57,
              "position": 14,
              "duration": 0.010416666666666666
            },
            {
              "pitch": 26,
              "velocity": 41,
              "position": 14,
              "duration": 0.9895833333333334
            },
            {
              "pitch": 33,
              "velocity": 64,
              "position": 15,
              "duration": 0.010416666666666666
            },
            {
              "pitch": 25,
              "velocity": 115,
              "position": 15.666666666666666,
              "duration": 0.010416666666666666
            },
            {
              "pitch": 28,
              "velocity": 58,
              "position": 15,
              "duration": 0.9895833333333334
            },
            {
              "pitch": 44,
              "velocity": 50,
              "position": 16,
              "duration": 0.010416666666666666
            },
            {
              "pitch": 25,
              "velocity": 45,
              "position": 16.666666666666668,
              "duration": 0.010416666666666666
            },
            {
              "pitch": 26,
              "velocity": 41,
              "position": 16,
              "duration": 0.9895833333333334
            },
            {
              "pitch": 25,
              "velocity": 115,
              "position": 17,
              "duration": 0.010416666666666666
            },
            {
              "pitch": 44,
              "velocity": 57,
              "position": 17,
              "duration": 0.010416666666666666
            },
            {
              "pitch": 26,
              "velocity": 41,
              "position": 17,
              "duration": 0.9895833333333334
            },
            {
              "pitch": 33,
              "velocity": 64,
              "position": 18,
              "duration": 0.010416666666666666
            },
            {
              "pitch": 25,
              "velocity": 45,
              "position": 18.333333333333332,
              "duration": 0.010416666666666666
            },
            {
              "pitch": 25,
              "velocity": 115,
              "position": 18.666666666666668,
              "duration": 0.010416666666666666
            },
            {
              "pitch": 27,
              "velocity": 120,
              "position": 18.666666666666668,
              "duration": 0.010416666666666666
            },
            {
              "pitch": 28,
              "velocity": 58,
              "position": 18,
              "duration": 0.9895833333333334
            },
            {
              "pitch": 25,
              "velocity": 45,
              "position": 19,
              "duration": 0.010416666666666666
            },
            {
              "pitch": 44,
              "velocity": 57,
              "position": 19,
              "duration": 0.010416666666666666
            },
            {
              "pitch": 25,
              "velocity": 45,
              "position": 19.333333333333332,
              "duration": 0.010416666666666666
            },
            {
              "pitch": 27,
              "velocity": 50,
              "position": 19.333333333333332,
              "duration": 0.010416666666666666
            },
            {
              "pitch": 25,
              "velocity": 115,
              "position": 19.666666666666668,
              "duration": 0.010416666666666666
            },
            {
              "pitch": 27,
              "velocity": 120,
              "position": 19.666666666666668,
              "duration": 0.010416666666666666
            }
          ]
        },
        "10": {
          "ctab": {
            "srcChannel": 10,
            "name": "Bass",
            "accType": "BASS",
            "editable": false,
            "mutedNotes": [],
            "mutedChords": [
              "dim7",
              "dim",
              "minMaj7(9)",
              "minMaj7",
              "min7(11)",
              "min7(9)",
              "min(9)",
              "m7b5",
              "min7",
              "min6",
              "min"
            ],
            "autoStart": false,
            "sourceChordNote": 0,
            "sourceChordType": "Maj",
            "ctb2Low": null,
            "ctb2Main": {
              "ntr": "ROOT_TRANSPOSITION",
              "ntt": "BYPASS",
              "bassOn": false,
              "chordRootUpperLimit": 8,
              "noteLowLimit": 28,
              "noteHighLimit": 127,
              "rtr": "PITCH_SHIFT"
            },
            "ctb2High": null
          },
          "notes": [
            {
              "pitch": 24,
              "velocity": 60,
              "position": 0,
              "duration": 2.5416666666666665
            },
            {
              "pitch": 24,
              "velocity": 97,
              "position": 2.6666666666666665,
              "duration": 0.16666666666666666
            },
            {
              "pitch": 26,
              "velocity": 70,
              "position": 3,
              "duration": 0.875
            },
            {
              "pitch": 26,
              "velocity": 60,
              "position": 4,
              "duration": 0.875
            },
            {
              "pitch": 28,
              "velocity": 60,
              "position": 5,
              "duration": 2.5416666666666665
            },
            {
              "pitch": 28,
              "velocity": 97,
              "position": 7.666666666666667,
              "duration": 0.16666666666666666
            },
            {
              "pitch": 26,
              "velocity": 70,
              "position": 8,
              "duration": 0.875
            },
            {
              "pitch": 31,
              "velocity": 60,
              "position": 9,
              "duration": 0.875
            },
            {
              "pitch": 24,
              "velocity": 60,
              "position": 10,
              "duration": 2.5416666666666665
            },
            {
              "pitch": 24,
              "velocity": 97,
              "position": 12.666666666666666,
              "duration": 0.16666666666666666
            },
            {
              "pitch": 26,
              "velocity": 70,
              "position": 13,
              "duration": 0.875
            },
            {
              "pitch": 26,
              "velocity": 60,
              "position": 14,
              "duration": 0.875
            },
            {
              "pitch": 28,
              "velocity": 60,
              "position": 15,
              "duration": 2.5416666666666665
            },
            {
              "pitch": 28,
              "velocity": 97,
              "position": 17.666666666666668,
              "duration": 0.16666666666666666
            },
            {
              "pitch": 31,
              "velocity": 70,
              "position": 18,
              "duration": 1.875
            }
          ]
        },
        "11": {
          "ctab": {
            "srcChannel": 11,
            "name": "P LH",
            "accType": "CHORD1",
            "editable": false,
            "mutedNotes": [],
            "mutedChords": [
              "dim7",
              "dim",
              "minMaj7(9)",
              "minMaj7",
              "min7(11)",
              "min7(9)",
              "min(9)",
              "m7b5",
              "min7",
              "min6",
              "min"
            ],
            "autoStart": false,
            "sourceChordNote": 0,
            "sourceChordType": "Maj",
            "ctb2Low": null,
            "ctb2Main": {
              "ntr": "ROOT_TRANSPOSITION",
              "ntt": "BYPASS",
              "bassOn": false,
              "chordRootUpperLimit": 8,
              "noteLowLimit": 54,
              "noteHighLimit": 65,
              "rtr": "PITCH_SHIFT"
            },
            "ctb2High": null
          },
          "notes": [
            {
              "pitch": 55,
              "velocity": 57,
              "position": 0.6666666666666666,
              "duration": 0.2604166666666667
            },
            {
              "pitch": 59,
              "velocity": 67,
              "position": 0.6666666666666666,
              "duration": 0.2604166666666667
            },
            {
              "pitch": 64,
              "velocity": 57,
              "position": 0.6666666666666666,
              "duration": 0.2916666666666667
            },
            {
              "pitch": 59,
              "velocity": 81,
              "position": 2,
              "duration": 0.34375
            },
            {
              "pitch": 64,
              "velocity": 81,
              "position": 2,
              "duration": 0.3958333333333333
            },
            {
              "pitch": 55,
              "velocity": 67,
              "position": 2,
              "duration": 0.4270833333333333
            },
            {
              "pitch": 60,
              "velocity": 85,
              "position": 4,
              "duration": 0.3333333333333333
            },
            {
              "pitch": 57,
              "velocity": 73,
              "position": 4,
              "duration": 0.34375
            },
            {
              "pitch": 65,
              "velocity": 86,
              "position": 4,
              "duration": 0.4479166666666667
            },
            {
              "pitch": 62,
              "velocity": 90,
              "position": 5.666666666666667,
              "duration": 0.2708333333333333
            },
            {
              "pitch": 55,
              "velocity": 59,
              "position": 5.666666666666667,
              "duration": 0.2916666666666667
            },
            {
              "pitch": 59,
              "velocity": 65,
              "position": 5.666666666666667,
              "duration": 0.2916666666666667
            },
            {
              "pitch": 62,
              "velocity": 81,
              "position": 7,
              "duration": 0.3958333333333333
            },
            {
              "pitch": 59,
              "velocity": 60,
              "position": 7,
              "duration": 0.4479166666666667
            },
            {
              "pitch": 55,
              "velocity": 74,
              "position": 7,
              "duration": 0.4791666666666667
            },
            {
              "pitch": 60,
              "velocity": 77,
              "position": 9,
              "duration": 0.5520833333333334
            },
            {
              "pitch": 65,
              "velocity": 65,
              "position": 9,
              "duration": 0.5625
            },
            {
              "pitch": 57,
              "velocity": 65,
              "position": 9,
              "duration": 0.6354166666666666
            },
            {
              "pitch": 55,
              "velocity": 57,
              "position": 10.666666666666666,
              "duration": 0.2604166666666667
            },
            {
              "pitch": 59,
              "velocity": 67,
              "position": 10.666666666666666,
              "duration": 0.2604166666666667
            },
            {
              "pitch": 64,
              "velocity": 57,
              "position": 10.666666666666666,
              "duration": 0.2916666666666667
            },
            {
              "pitch": 59,
              "velocity": 81,
              "position": 12,
              "duration": 0.34375
            },
            {
              "pitch": 64,
              "velocity": 81,
              "position": 12,
              "duration": 0.3958333333333333
            },
            {
              "pitch": 55,
              "velocity": 67,
              "position": 12,
              "duration": 0.4270833333333333
            },
            {
              "pitch": 60,
              "velocity": 85,
              "position": 14,
              "duration": 0.3333333333333333
            },
            {
              "pitch": 57,
              "velocity": 73,
              "position": 14,
              "duration": 0.34375
            },
            {
              "pitch": 65,
              "velocity": 86,
              "position": 14,
              "duration": 0.4479166666666667
            },
            {
              "pitch": 62,
              "velocity": 90,
              "position": 15.666666666666666,
              "duration": 0.2708333333333333
            },
            {
              "pitch": 55,
              "velocity": 59,
              "position": 15.666666666666666,
              "duration": 0.2916666666666667
            },
            {
              "pitch": 59,
              "velocity": 65,
              "position": 15.666666666666666,
              "duration": 0.2916666666666667
            },
            {
              "pitch": 62,
              "velocity": 81,
              "position": 17,
              "duration": 0.3958333333333333
            },
            {
              "pitch": 59,
              "velocity": 60,
              "position": 17,
              "duration": 0.4479166666666667
            },
            {
              "pitch": 55,
              "velocity": 74,
              "position": 17,
              "duration": 0.4791666666666667
            },
            {
              "pitch": 60,
              "velocity": 77,
              "position": 18,
              "duration": 1.8854166666666667
            },
            {
              "pitch": 65,
              "velocity": 65,
              "position": 18,
              "duration": 1.8958333333333333
            },
            {
              "pitch": 57,
              "velocity": 65,
              "position": 18,
              "duration": 1.96875
            }
          ]
        },
        "14": {
          "ctab": {
            "srcChannel": 14,
            "name": "P RH",
            "accType": "CHORD2",
            "editable": false,
            "mutedNotes": [],
            "mutedChords": [
              "dim7",
              "dim",
              "minMaj7(9)",
              "minMaj7",
              "min7(11)",
              "min7(9)",
              "min(9)",
              "m7b5",
              "min7",
              "min6",
              "min"
            ],
            "autoStart": false,
            "sourceChordNote": 0,
            "sourceChordType": "Maj",
            "ctb2Low": null,
            "ctb2Main": {
              "ntr": "ROOT_TRANSPOSITION",
              "ntt": "BYPASS",
              "bassOn": false,
              "chordRootUpperLimit": 9,
              "noteLowLimit": 0,
              "noteHighLimit": 79,
              "rtr": "PITCH_SHIFT"
            },
            "ctb2High": null
          },
          "notes": [
            {
              "pitch": 68,
              "velocity": 95,
              "position": 0.041666666666666664,
              "duration": 0.3645833333333333
            },
            {
              "pitch": 69,
              "velocity": 89,
              "position": 0.4375,
              "duration": 1.1458333333333333
            },
            {
              "pitch": 76,
              "velocity": 95,
              "position": 0.052083333333333336,
              "duration": 1.7395833333333333
            },
            {
              "pitch": 72,
              "velocity": 107,
              "position": 1.8125,
              "duration": 0.23958333333333334
            },
            {
              "pitch": 75,
              "velocity": 99,
              "position": 3.0104166666666665,
              "duration": 0.3020833333333333
            },
            {
              "pitch": 81,
              "velocity": 99,
              "position": 3.0208333333333335,
              "duration": 1.0520833333333333
            },
            {
              "pitch": 74,
              "velocity": 77,
              "position": 3.09375,
              "duration": 0.9791666666666666
            },
            {
              "pitch": 72,
              "velocity": 77,
              "position": 3.9895833333333335,
              "duration": 0.3229166666666667
            },
            {
              "pitch": 75,
              "velocity": 86,
              "position": 5.010416666666667,
              "duration": 0.3229166666666667
            },
            {
              "pitch": 76,
              "velocity": 101,
              "position": 5.25,
              "duration": 1.4270833333333333
            },
            {
              "pitch": 81,
              "velocity": 81,
              "position": 5.010416666666667,
              "duration": 1.75
            },
            {
              "pitch": 79,
              "velocity": 110,
              "position": 6.572916666666667,
              "duration": 0.2708333333333333
            },
            {
              "pitch": 72,
              "velocity": 64,
              "position": 7.614583333333333,
              "duration": 0.25
            },
            {
              "pitch": 81,
              "velocity": 108,
              "position": 8.09375,
              "duration": 0.3125
            },
            {
              "pitch": 72,
              "velocity": 64,
              "position": 8.614583333333334,
              "duration": 0.25
            },
            {
              "pitch": 79,
              "velocity": 77,
              "position": 8.989583333333334,
              "duration": 0.3229166666666667
            },
            {
              "pitch": 72,
              "velocity": 64,
              "position": 9.614583333333334,
              "duration": 0.25
            },
            {
              "pitch": 75,
              "velocity": 103,
              "position": 10.041666666666666,
              "duration": 0.3645833333333333
            },
            {
              "pitch": 76,
              "velocity": 94,
              "position": 10.4375,
              "duration": 1.1458333333333333
            },
            {
              "pitch": 84,
              "velocity": 81,
              "position": 10.010416666666666,
              "duration": 1.75
            },
            {
              "pitch": 72,
              "velocity": 101,
              "position": 11.572916666666666,
              "duration": 0.2708333333333333
            },
            {
              "pitch": 68,
              "velocity": 96,
              "position": 12.697916666666666,
              "duration": 0.25
            },
            {
              "pitch": 69,
              "velocity": 75,
              "position": 13.208333333333334,
              "duration": 0.2916666666666667
            },
            {
              "pitch": 72,
              "velocity": 92,
              "position": 13.739583333333334,
              "duration": 0.3125
            },
            {
              "pitch": 77,
              "velocity": 94,
              "position": 14.197916666666666,
              "duration": 0.5520833333333334
            },
            {
              "pitch": 72,
              "velocity": 64,
              "position": 14.697916666666666,
              "duration": 0.25
            },
            {
              "pitch": 75,
              "velocity": 89,
              "position": 15.1875,
              "duration": 0.4583333333333333
            },
            {
              "pitch": 76,
              "velocity": 92,
              "position": 15.708333333333334,
              "duration": 0.3333333333333333
            },
            {
              "pitch": 72,
              "velocity": 91,
              "position": 16.072916666666668,
              "duration": 0.6458333333333334
            },
            {
              "pitch": 69,
              "velocity": 91,
              "position": 17.010416666666668,
              "duration": 0.5833333333333334
            },
            {
              "pitch": 67,
              "velocity": 77,
              "position": 18.020833333333332,
              "duration": 1.9375
            }
          ]
        }
      }
    },
    "Intro_C": {
      "type": "Intro_C",
      "sizeInBeats": 20,
      "channels": {
        "1": {
          "ctab": {
            "srcChannel": 1,
            "name": "Bass",
            "accType": "BASS",
            "editable": false,
            "mutedNotes": [],
            "mutedChords": [
              "1+2+5",
              "sus4",
              "1+5",
              "1+8",
              "7aug",
              "Maj7aug",
              "7(#9)",
              "7(b13)",
              "7(b9)",
              "7(13)",
              "7#11",
              "7(9)",
              "7b5",
              "7sus4",
              "7th",
              "aug",
              "Maj6(9)",
              "Maj7(9)",
              "Maj(9)",
              "Maj7#11",
              "Maj7",
              "Maj6",
              "Maj"
            ],
            "autoStart": false,
            "sourceChordNote": 0,
            "sourceChordType": "min",
            "ctb2Low": null,
            "ctb2Main": {
              "ntr": "ROOT_TRANSPOSITION",
              "ntt": "BYPASS",
              "bassOn": false,
              "chordRootUpperLimit": 8,
              "noteLowLimit": 28,
              "noteHighLimit": 127,
              "rtr": "PITCH_SHIFT"
            },
            "ctb2High": null
          },
          "notes": [
            {
              "pitch": 24,
              "velocity": 60,
              "position": 0,
              "duration": 1.25
            },
            {
              "pitch": 24,
              "velocity": 97,
              "position": 1.2604166666666667,
              "duration": 0.14583333333333334
            },
            {
              "pitch": 34,
              "velocity": 62,
              "position": 1.6666666666666667,
              "duration": 1.3229166666666667
            },
            {
              "pitch": 33,
              "velocity": 60,
              "position": 3,
              "duration": 1.5416666666666667
            },
            {
              "pitch": 33,
              "velocity": 97,
              "position": 4.666666666666667,
              "duration": 0.14583333333333334
            },
            {
              "pitch": 32,
              "velocity": 60,
              "position": 5,
              "duration": 1.5416666666666667
            },
            {
              "pitch": 32,
              "velocity": 70,
              "position": 6.666666666666667,
              "duration": 0.9895833333333334
            },
            {
              "pitch": 30,
              "velocity": 97,
              "position": 7.666666666666667,
              "duration": 0.14583333333333334
            },
            {
              "pitch": 31,
              "velocity": 60,
              "position": 8,
              "duration": 0.875
            },
            {
              "pitch": 29,
              "velocity": 60,
              "position": 9,
              "duration": 0.875
            },
            {
              "pitch": 27,
              "velocity": 60,
              "position": 10,
              "duration": 1.25
            },
            {
              "pitch": 27,
              "velocity": 97,
              "position": 11.260416666666666,
              "duration": 0.14583333333333334
            },
            {
              "pitch": 31,
              "velocity": 62,
              "position": 11.666666666666666,
              "duration": 1.3229166666666667
            },
            {
              "pitch": 32,
              "velocity": 60,
              "position": 13,
              "duration": 1.5416666666666667
            },
            {
              "pitch": 32,
              "velocity": 97,
              "position": 14.666666666666666,
              "duration": 0.14583333333333334
            },
            {
              "pitch": 26,
              "velocity": 60,
              "position": 15,
              "duration": 1.5416666666666667
            },
            {
              "pitch": 29,
              "velocity": 70,
              "position": 16.666666666666668,
              "duration": 0.9895833333333334
            },
            {
              "pitch": 30,
              "velocity": 97,
              "position": 17.666666666666668,
              "duration": 0.14583333333333334
            },
            {
              "pitch": 31,
              "velocity": 65,
              "position": 18,
              "duration": 0.875
            },
            {
              "pitch": 31,
              "velocity": 60,
              "position": 19,
              "duration": 0.875
            }
          ]
        },
        "2": {
          "ctab": {
            "srcChannel": 2,
            "name": "P LH",
            "accType": "CHORD1",
            "editable": false,
            "mutedNotes": [],
            "mutedChords": [
              "1+2+5",
              "sus4",
              "1+5",
              "1+8",
              "7aug",
              "Maj7aug",
              "7(#9)",
              "7(b13)",
              "7(b9)",
              "7(13)",
              "7#11",
              "7(9)",
              "7b5",
              "7sus4",
              "7th",
              "aug",
              "Maj6(9)",
              "Maj7(9)",
              "Maj(9)",
              "Maj7#11",
              "Maj7",
              "Maj6",
              "Maj"
            ],
            "autoStart": false,
            "sourceChordNote": 0,
            "sourceChordType": "min",
            "ctb2Low": null,
            "ctb2Main": {
              "ntr": "ROOT_TRANSPOSITION",
              "ntt": "BYPASS",
              "bassOn": false,
              "chordRootUpperLimit": 8,
              "noteLowLimit": 53,
              "noteHighLimit": 64,
              "rtr": "PITCH_SHIFT"
            },
            "ctb2High": null
          },
          "notes": [
            {
              "pitch": 58,
              "velocity": 77,
              "position": 0,
              "duration": 1.15625
            },
            {
              "pitch": 62,
              "velocity": 77,
              "position": 0,
              "duration": 1.15625
            },
            {
              "pitch": 63,
              "velocity": 65,
              "position": 0,
              "duration": 1.1770833333333333
            },
            {
              "pitch": 55,
              "velocity": 65,
              "position": 0,
              "duration": 1.2395833333333333
            },
            {
              "pitch": 55,
              "velocity": 100,
              "position": 1.625,
              "duration": 1.0104166666666667
            },
            {
              "pitch": 63,
              "velocity": 85,
              "position": 1.625,
              "duration": 1.09375
            },
            {
              "pitch": 58,
              "velocity": 81,
              "position": 1.625,
              "duration": 1.1770833333333333
            },
            {
              "pitch": 62,
              "velocity": 81,
              "position": 1.625,
              "duration": 1.1770833333333333
            },
            {
              "pitch": 55,
              "velocity": 90,
              "position": 3,
              "duration": 1.8958333333333333
            },
            {
              "pitch": 60,
              "velocity": 102,
              "position": 3,
              "duration": 1.8958333333333333
            },
            {
              "pitch": 63,
              "velocity": 105,
              "position": 3,
              "duration": 1.8958333333333333
            },
            {
              "pitch": 60,
              "velocity": 90,
              "position": 5.666666666666667,
              "duration": 0.2708333333333333
            },
            {
              "pitch": 55,
              "velocity": 65,
              "position": 5.666666666666667,
              "duration": 0.2916666666666667
            },
            {
              "pitch": 58,
              "velocity": 65,
              "position": 5.666666666666667,
              "duration": 0.2916666666666667
            },
            {
              "pitch": 63,
              "velocity": 59,
              "position": 5.666666666666667,
              "duration": 0.2916666666666667
            },
            {
              "pitch": 55,
              "velocity": 60,
              "position": 6.666666666666667,
              "duration": 1.7708333333333333
            },
            {
              "pitch": 58,
              "velocity": 60,
              "position": 6.666666666666667,
              "duration": 1.7708333333333333
            },
            {
              "pitch": 60,
              "velocity": 81,
              "position": 6.666666666666667,
              "duration": 1.7708333333333333
            },
            {
              "pitch": 63,
              "velocity": 74,
              "position": 6.666666666666667,
              "duration": 1.7708333333333333
            },
            {
              "pitch": 59,
              "velocity": 77,
              "position": 8.666666666666666,
              "duration": 1.15625
            },
            {
              "pitch": 63,
              "velocity": 65,
              "position": 8.666666666666666,
              "duration": 1.1770833333333333
            },
            {
              "pitch": 65,
              "velocity": 65,
              "position": 8.666666666666666,
              "duration": 1.2395833333333333
            },
            {
              "pitch": 58,
              "velocity": 77,
              "position": 10,
              "duration": 1.4895833333333333
            },
            {
              "pitch": 62,
              "velocity": 65,
              "position": 10,
              "duration": 1.5104166666666667
            },
            {
              "pitch": 65,
              "velocity": 65,
              "position": 10,
              "duration": 1.5104166666666667
            },
            {
              "pitch": 55,
              "velocity": 65,
              "position": 10,
              "duration": 1.5729166666666667
            },
            {
              "pitch": 58,
              "velocity": 77,
              "position": 11.625,
              "duration": 1.15625
            },
            {
              "pitch": 62,
              "velocity": 65,
              "position": 11.625,
              "duration": 1.1770833333333333
            },
            {
              "pitch": 65,
              "velocity": 65,
              "position": 11.625,
              "duration": 1.1770833333333333
            },
            {
              "pitch": 55,
              "velocity": 65,
              "position": 11.625,
              "duration": 1.2395833333333333
            },
            {
              "pitch": 58,
              "velocity": 81,
              "position": 13,
              "duration": 1.6770833333333333
            },
            {
              "pitch": 60,
              "velocity": 81,
              "position": 13,
              "duration": 1.6770833333333333
            },
            {
              "pitch": 65,
              "velocity": 81,
              "position": 13,
              "duration": 1.7291666666666667
            },
            {
              "pitch": 54,
              "velocity": 67,
              "position": 13,
              "duration": 1.7604166666666667
            },
            {
              "pitch": 60,
              "velocity": 90,
              "position": 15.666666666666666,
              "duration": 0.2708333333333333
            },
            {
              "pitch": 57,
              "velocity": 65,
              "position": 15.666666666666666,
              "duration": 0.2916666666666667
            },
            {
              "pitch": 65,
              "velocity": 59,
              "position": 15.666666666666666,
              "duration": 0.2916666666666667
            },
            {
              "pitch": 57,
              "velocity": 60,
              "position": 16.625,
              "duration": 1.1041666666666667
            },
            {
              "pitch": 60,
              "velocity": 81,
              "position": 16.625,
              "duration": 1.1041666666666667
            },
            {
              "pitch": 65,
              "velocity": 74,
              "position": 16.625,
              "duration": 1.1041666666666667
            },
            {
              "pitch": 59,
              "velocity": 77,
              "position": 18,
              "duration": 1.8229166666666667
            },
            {
              "pitch": 63,
              "velocity": 65,
              "position": 18,
              "duration": 1.84375
            },
            {
              "pitch": 56,
              "velocity": 65,
              "position": 18,
              "duration": 1.90625
            },
            {
              "pitch": 65,
              "velocity": 65,
              "position": 18,
              "duration": 1.90625
            }
          ]
        },
        "5": {
          "ctab": {
            "srcChannel": 5,
            "name": "P RH",
            "accType": "CHORD2",
            "editable": false,
            "mutedNotes": [],
            "mutedChords": [
              "1+2+5",
              "sus4",
              "1+5",
              "1+8",
              "7aug",
              "Maj7aug",
              "7(#9)",
              "7(b13)",
              "7(b9)",
              "7(13)",
              "7#11",
              "7(9)",
              "7b5",
              "7sus4",
              "7th",
              "aug",
              "Maj6(9)",
              "Maj7(9)",
              "Maj(9)",
              "Maj7#11",
              "Maj7",
              "Maj6",
              "Maj"
            ],
            "autoStart": false,
            "sourceChordNote": 0,
            "sourceChordType": "min",
            "ctb2Low": null,
            "ctb2Main": {
              "ntr": "ROOT_TRANSPOSITION",
              "ntt": "BYPASS",
              "bassOn": false,
              "chordRootUpperLimit": 9,
              "noteLowLimit": 0,
              "noteHighLimit": 79,
              "rtr": "PITCH_SHIFT"
            },
            "ctb2High": null
          },
          "notes": [
            {
              "pitch": 67,
              "velocity": 91,
              "position": 0,
              "duration": 1.1770833333333333
            },
            {
              "pitch": 74,
              "velocity": 91,
              "position": 0,
              "duration": 1.1770833333333333
            },
            {
              "pitch": 79,
              "velocity": 91,
              "position": 0,
              "duration": 1.1770833333333333
            },
            {
              "pitch": 70,
              "velocity": 96,
              "position": 1.625,
              "duration": 1.1770833333333333
            },
            {
              "pitch": 77,
              "velocity": 96,
              "position": 1.625,
              "duration": 1.1770833333333333
            },
            {
              "pitch": 82,
              "velocity": 96,
              "position": 1.625,
              "duration": 1.1770833333333333
            },
            {
              "pitch": 72,
              "velocity": 104,
              "position": 3,
              "duration": 0.8958333333333334
            },
            {
              "pitch": 79,
              "velocity": 104,
              "position": 3,
              "duration": 0.8958333333333334
            },
            {
              "pitch": 84,
              "velocity": 104,
              "position": 3,
              "duration": 0.8958333333333334
            },
            {
              "pitch": 79,
              "velocity": 104,
              "position": 4,
              "duration": 0.22916666666666666
            },
            {
              "pitch": 78,
              "velocity": 105,
              "position": 5,
              "duration": 0.3854166666666667
            },
            {
              "pitch": 79,
              "velocity": 61,
              "position": 5.260416666666667,
              "duration": 1.1770833333333333
            },
            {
              "pitch": 84,
              "velocity": 108,
              "position": 5.041666666666667,
              "duration": 1.5833333333333333
            },
            {
              "pitch": 75,
              "velocity": 100,
              "position": 6.677083333333333,
              "duration": 0.23958333333333334
            },
            {
              "pitch": 72,
              "velocity": 89,
              "position": 7.677083333333333,
              "duration": 0.20833333333333334
            },
            {
              "pitch": 75,
              "velocity": 97,
              "position": 8.052083333333334,
              "duration": 0.6354166666666666
            },
            {
              "pitch": 77,
              "velocity": 105,
              "position": 9.052083333333334,
              "duration": 0.5
            },
            {
              "pitch": 75,
              "velocity": 87,
              "position": 9.65625,
              "duration": 0.3645833333333333
            },
            {
              "pitch": 74,
              "velocity": 105,
              "position": 10,
              "duration": 1.46875
            },
            {
              "pitch": 74,
              "velocity": 97,
              "position": 11.625,
              "duration": 1.15625
            },
            {
              "pitch": 82,
              "velocity": 77,
              "position": 11.625,
              "duration": 1.15625
            },
            {
              "pitch": 86,
              "velocity": 100,
              "position": 11.625,
              "duration": 1.15625
            },
            {
              "pitch": 75,
              "velocity": 99,
              "position": 13,
              "duration": 0.9895833333333334
            },
            {
              "pitch": 82,
              "velocity": 78,
              "position": 13,
              "duration": 0.9895833333333334
            },
            {
              "pitch": 87,
              "velocity": 99,
              "position": 13,
              "duration": 0.9895833333333334
            },
            {
              "pitch": 82,
              "velocity": 92,
              "position": 14,
              "duration": 0.9895833333333334
            },
            {
              "pitch": 84,
              "velocity": 96,
              "position": 15,
              "duration": 1.3229166666666667
            },
            {
              "pitch": 77,
              "velocity": 78,
              "position": 15,
              "duration": 1.34375
            },
            {
              "pitch": 72,
              "velocity": 96,
              "position": 15,
              "duration": 1.3958333333333333
            },
            {
              "pitch": 72,
              "velocity": 96,
              "position": 16.666666666666668,
              "duration": 1.3229166666666667
            },
            {
              "pitch": 77,
              "velocity": 78,
              "position": 16.666666666666668,
              "duration": 1.3229166666666667
            },
            {
              "pitch": 84,
              "velocity": 96,
              "position": 16.666666666666668,
              "duration": 1.3229166666666667
            },
            {
              "pitch": 83,
              "velocity": 96,
              "position": 18,
              "duration": 1.3229166666666667
            },
            {
              "pitch": 77,
              "velocity": 78,
              "position": 18,
              "duration": 1.34375
            },
            {
              "pitch": 71,
              "velocity": 96,
              "position": 18,
              "duration": 1.3958333333333333
            }
          ]
        },
        "9": {
          "ctab": {
            "srcChannel": 9,
            "name": "Drums",
            "accType": "RHYTHM",
            "editable": false,
            "mutedNotes": [],
            "mutedChords": [],
            "autoStart": true,
            "sourceChordNote": 0,
            "sourceChordType": "Maj7",
            "ctb2Low": null,
            "ctb2Main": {
              "ntr": "ROOT_FIXED",
              "ntt": "BYPASS",
              "bassOn": false,
              "chordRootUpperLimit": 6,
              "noteLowLimit": 0,
              "noteHighLimit": 127,
              "rtr": "PITCH_SHIFT"
            },
            "ctb2High": null
          },
          "notes": [
            {
              "pitch": 33,
              "velocity": 64,
              "position": 0,
              "duration": 0.010416666666666666
            },
            {
              "pitch": 44,
              "velocity": 57,
              "position": 0,
              "duration": 0.010416666666666666
            },
            {
              "pitch": 51,
              "velocity": 54,
              "position": 0,
              "duration": 0.010416666666666666
            },
            {
              "pitch": 28,
              "velocity": 61,
              "position": 0,
              "duration": 0.9895833333333334
            },
            {
              "pitch": 51,
              "velocity": 54,
              "position": 1,
              "duration": 0.010416666666666666
            },
            {
              "pitch": 26,
              "velocity": 44,
              "position": 1,
              "duration": 0.65625
            },
            {
              "pitch": 51,
              "velocity": 9,
              "position": 1.6666666666666667,
              "duration": 0.010416666666666666
            },
            {
              "pitch": 44,
              "velocity": 57,
              "position": 2,
              "duration": 0.010416666666666666
            },
            {
              "pitch": 51,
              "velocity": 54,
              "position": 2,
              "duration": 0.010416666666666666
            },
            {
              "pitch": 33,
              "velocity": 36,
              "position": 2.6666666666666665,
              "duration": 0.010416666666666666
            },
            {
              "pitch": 28,
              "velocity": 61,
              "position": 1.6666666666666667,
              "duration": 1.3229166666666667
            },
            {
              "pitch": 33,
              "velocity": 64,
              "position": 3,
              "duration": 0.010416666666666666
            },
            {
              "pitch": 51,
              "velocity": 54,
              "position": 3,
              "duration": 0.010416666666666666
            },
            {
              "pitch": 27,
              "velocity": 127,
              "position": 3.6666666666666665,
              "duration": 0.010416666666666666
            },
            {
              "pitch": 51,
              "velocity": 9,
              "position": 3.6666666666666665,
              "duration": 0.010416666666666666
            },
            {
              "pitch": 28,
              "velocity": 61,
              "position": 3,
              "duration": 0.9895833333333334
            },
            {
              "pitch": 44,
              "velocity": 57,
              "position": 4,
              "duration": 0.010416666666666666
            },
            {
              "pitch": 51,
              "velocity": 54,
              "position": 4,
              "duration": 0.010416666666666666
            },
            {
              "pitch": 26,
              "velocity": 44,
              "position": 4,
              "duration": 0.9895833333333334
            },
            {
              "pitch": 28,
              "velocity": 25,
              "position": 4,
              "duration": 0.9895833333333334
            },
            {
              "pitch": 33,
              "velocity": 64,
              "position": 5,
              "duration": 0.010416666666666666
            },
            {
              "pitch": 51,
              "velocity": 54,
              "position": 5,
              "duration": 0.010416666666666666
            },
            {
              "pitch": 28,
              "velocity": 61,
              "position": 5,
              "duration": 0.9895833333333334
            },
            {
              "pitch": 44,
              "velocity": 57,
              "position": 6,
              "duration": 0.010416666666666666
            },
            {
              "pitch": 51,
              "velocity": 54,
              "position": 6,
              "duration": 0.010416666666666666
            },
            {
              "pitch": 26,
              "velocity": 44,
              "position": 6,
              "duration": 0.65625
            },
            {
              "pitch": 51,
              "velocity": 9,
              "position": 6.666666666666667,
              "duration": 0.010416666666666666
            },
            {
              "pitch": 51,
              "velocity": 54,
              "position": 7,
              "duration": 0.010416666666666666
            },
            {
              "pitch": 33,
              "velocity": 36,
              "position": 7.666666666666667,
              "duration": 0.010416666666666666
            },
            {
              "pitch": 28,
              "velocity": 61,
              "position": 6.666666666666667,
              "duration": 1.3229166666666667
            },
            {
              "pitch": 33,
              "velocity": 64,
              "position": 8,
              "duration": 0.010416666666666666
            },
            {
              "pitch": 44,
              "velocity": 57,
              "position": 8,
              "duration": 0.010416666666666666
            },
            {
              "pitch": 51,
              "velocity": 54,
              "position": 8,
              "duration": 0.010416666666666666
            },
            {
              "pitch": 51,
              "velocity": 9,
              "position": 8.666666666666666,
              "duration": 0.010416666666666666
            },
            {
              "pitch": 28,
              "velocity": 61,
              "position": 8,
              "duration": 0.9895833333333334
            },
            {
              "pitch": 27,
              "velocity": 127,
              "position": 9,
              "duration": 0.010416666666666666
            },
            {
              "pitch": 51,
              "velocity": 54,
              "position": 9,
              "duration": 0.010416666666666666
            },
            {
              "pitch": 26,
              "velocity": 44,
              "position": 9,
              "duration": 0.9895833333333334
            },
            {
              "pitch": 28,
              "velocity": 25,
              "position": 9,
              "duration": 0.9895833333333334
            },
            {
              "pitch": 33,
              "velocity": 64,
              "position": 10,
              "duration": 0.010416666666666666
            },
            {
              "pitch": 44,
              "velocity": 57,
              "position": 10,
              "duration": 0.010416666666666666
            },
            {
              "pitch": 51,
              "velocity": 54,
              "position": 10,
              "duration": 0.010416666666666666
            },
            {
              "pitch": 28,
              "velocity": 61,
              "position": 10,
              "duration": 0.9895833333333334
            },
            {
              "pitch": 51,
              "velocity": 54,
              "position": 11,
              "duration": 0.010416666666666666
            },
            {
              "pitch": 26,
              "velocity": 44,
              "position": 11,
              "duration": 0.65625
            },
            {
              "pitch": 51,
              "velocity": 9,
              "position": 11.666666666666666,
              "duration": 0.010416666666666666
            },
            {
              "pitch": 44,
              "velocity": 57,
              "position": 12,
              "duration": 0.010416666666666666
            },
            {
              "pitch": 51,
              "velocity": 54,
              "position": 12,
              "duration": 0.010416666666666666
            },
            {
              "pitch": 33,
              "velocity": 36,
              "position": 12.666666666666666,
              "duration": 0.010416666666666666
            },
            {
              "pitch": 28,
              "velocity": 61,
              "position": 11.666666666666666,
              "duration": 1.3229166666666667
            },
            {
              "pitch": 33,
              "velocity": 64,
              "position": 13,
              "duration": 0.010416666666666666
            },
            {
              "pitch": 51,
              "velocity": 54,
              "position": 13,
              "duration": 0.010416666666666666
            },
            {
              "pitch": 27,
              "velocity": 127,
              "position": 13.666666666666666,
              "duration": 0.010416666666666666
            },
            {
              "pitch": 51,
              "velocity": 9,
              "position": 13.666666666666666,
              "duration": 0.010416666666666666
            },
            {
              "pitch": 28,
              "velocity": 61,
              "position": 13,
              "duration": 0.9895833333333334
            },
            {
              "pitch": 44,
              "velocity": 57,
              "position": 14,
              "duration": 0.010416666666666666
            },
            {
              "pitch": 51,
              "velocity": 54,
              "position": 14,
              "duration": 0.010416666666666666
            },
            {
              "pitch": 26,
              "velocity": 44,
              "position": 14,
              "duration": 0.9895833333333334
            },
            {
              "pitch": 28,
              "velocity": 25,
              "position": 14,
              "duration": 0.9895833333333334
            },
            {
              "pitch": 33,
              "velocity": 64,
              "position": 15,
              "duration": 0.010416666666666666
            },
            {
              "pitch": 51,
              "velocity": 54,
              "position": 15,
              "duration": 0.010416666666666666
            },
            {
              "pitch": 28,
              "velocity": 61,
              "position": 15,
              "duration": 0.9895833333333334
            },
            {
              "pitch": 44,
              "velocity": 57,
              "position": 16,
              "duration": 0.010416666666666666
            },
            {
              "pitch": 51,
              "velocity": 54,
              "position": 16,
              "duration": 0.010416666666666666
            },
            {
              "pitch": 26,
              "velocity": 44,
              "position": 16,
              "duration": 0.65625
            },
            {
              "pitch": 51,
              "velocity": 9,
              "position": 16.666666666666668,
              "duration": 0.010416666666666666
            },
            {
              "pitch": 51,
              "velocity": 54,
              "position": 17,
              "duration": 0.010416666666666666
            },
            {
              "pitch": 33,
              "velocity": 36,
              "position": 17.666666666666668,
              "duration": 0.010416666666666666
            },
            {
              "pitch": 28,
              "velocity": 61,
              "position": 16.666666666666668,
              "duration": 1.3229166666666667
            },
            {
              "pitch": 33,
              "velocity": 64,
              "position": 18,
              "duration": 0.010416666666666666
            },
            {
              "pitch": 44,
              "velocity": 57,
              "position": 18,
              "duration": 0.010416666666666666
            },
            {
              "pitch": 51,
              "velocity": 54,
              "position": 18,
              "duration": 0.010416666666666666
            },
            {
              "pitch": 25,
              "velocity": 69,
              "position": 18.5,
              "duration": 0.010416666666666666
            },
            {
              "pitch": 25,
              "velocity": 80,
              "position": 18.75,
              "duration": 0.010416666666666666
            },
            {
              "pitch": 27,
              "velocity": 85,
              "position": 18.75,
              "duration": 0.010416666666666666
            },
            {
              "pitch": 28,
              "velocity": 61,
              "position": 18,
              "duration": 0.9895833333333334
            },
            {
              "pitch": 25,
              "velocity": 125,
              "position": 19,
              "duration": 0.010416666666666666
            },
            {
              "pitch": 40,
              "velocity": 127,
              "position": 19,
              "duration": 0.010416666666666666
            },
            {
              "pitch": 25,
              "velocity": 80,
              "position": 19.333333333333332,
              "duration": 0.010416666666666666
            },
            {
              "pitch": 27,
              "velocity": 85,
              "position": 19.333333333333332,
              "duration": 0.010416666666666666
            },
            {
              "pitch": 33,
              "velocity": 36,
              "position": 19.666666666666668,
              "duration": 0.010416666666666666
            },
            {
              "pitch": 26,
              "velocity": 44,
              "position": 19,
              "duration": 0.9895833333333334
            }
          ]
        },
        "10": {
          "ctab": {
            "srcChannel": 10,
            "name": "Bass",
            "accType": "BASS",
            "editable": false,
            "mutedNotes": [],
            "mutedChords": [
              "dim7",
              "dim",
              "minMaj7(9)",
              "minMaj7",
              "min7(11)",
              "min7(9)",
              "min(9)",
              "m7b5",
              "min7",
              "min6",
              "min"
            ],
            "autoStart": false,
            "sourceChordNote": 0,
            "sourceChordType": "Maj",
            "ctb2Low": null,
            "ctb2Main": {
              "ntr": "ROOT_TRANSPOSITION",
              "ntt": "BYPASS",
              "bassOn": false,
              "chordRootUpperLimit": 8,
              "noteLowLimit": 28,
              "noteHighLimit": 127,
              "rtr": "PITCH_SHIFT"
            },
            "ctb2High": null
          },
          "notes": [
            {
              "pitch": 24,
              "velocity": 60,
              "position": 0,
              "duration": 1.25
            },
            {
              "pitch": 24,
              "velocity": 97,
              "position": 1.2604166666666667,
              "duration": 0.16666666666666666
            },
            {
              "pitch": 34,
              "velocity": 62,
              "position": 1.6666666666666667,
              "duration": 1.3229166666666667
            },
            {
              "pitch": 33,
              "velocity": 60,
              "position": 3,
              "duration": 1.5416666666666667
            },
            {
              "pitch": 28,
              "velocity": 97,
              "position": 4.666666666666667,
              "duration": 0.16666666666666666
            },
            {
              "pitch": 26,
              "velocity": 60,
              "position": 5,
              "duration": 1.5416666666666667
            },
            {
              "pitch": 29,
              "velocity": 70,
              "position": 6.666666666666667,
              "duration": 0.9895833333333334
            },
            {
              "pitch": 30,
              "velocity": 97,
              "position": 7.666666666666667,
              "duration": 0.16666666666666666
            },
            {
              "pitch": 31,
              "velocity": 60,
              "position": 8,
              "duration": 0.875
            },
            {
              "pitch": 29,
              "velocity": 60,
              "position": 9,
              "duration": 0.875
            },
            {
              "pitch": 28,
              "velocity": 60,
              "position": 10,
              "duration": 1.25
            },
            {
              "pitch": 28,
              "velocity": 97,
              "position": 11.260416666666666,
              "duration": 0.16666666666666666
            },
            {
              "pitch": 31,
              "velocity": 62,
              "position": 11.666666666666666,
              "duration": 1.2083333333333333
            },
            {
              "pitch": 33,
              "velocity": 60,
              "position": 13,
              "duration": 1.5416666666666667
            },
            {
              "pitch": 25,
              "velocity": 107,
              "position": 14.666666666666666,
              "duration": 0.16666666666666666
            },
            {
              "pitch": 26,
              "velocity": 60,
              "position": 15,
              "duration": 1.5416666666666667
            },
            {
              "pitch": 29,
              "velocity": 70,
              "position": 16.666666666666668,
              "duration": 0.9895833333333334
            },
            {
              "pitch": 30,
              "velocity": 97,
              "position": 17.666666666666668,
              "duration": 0.16666666666666666
            },
            {
              "pitch": 31,
              "velocity": 65,
              "position": 18,
              "duration": 0.875
            },
            {
              "pitch": 31,
              "velocity": 60,
              "position": 19,
              "duration": 0.875
            }
          ]
        },
        "11": {
          "ctab": {
            "srcChannel": 11,
            "name": "P LH",
            "accType": "CHORD1",
            "editable": false,
            "mutedNotes": [],
            "mutedChords": [
              "dim7",
              "dim",
              "minMaj7(9)",
              "minMaj7",
              "min7(11)",
              "min7(9)",
              "min(9)",
              "m7b5",
              "min7",
              "min6",
              "min"
            ],
            "autoStart": false,
            "sourceChordNote": 0,
            "sourceChordType": "Maj",
            "ctb2Low": null,
            "ctb2Main": {
              "ntr": "ROOT_TRANSPOSITION",
              "ntt": "BYPASS",
              "bassOn": false,
              "chordRootUpperLimit": 8,
              "noteLowLimit": 53,
              "noteHighLimit": 64,
              "rtr": "PITCH_SHIFT"
            },
            "ctb2High": null
          },
          "notes": [
            {
              "pitch": 59,
              "velocity": 77,
              "position": 0,
              "duration": 1.15625
            },
            {
              "pitch": 62,
              "velocity": 65,
              "position": 0,
              "duration": 1.1770833333333333
            },
            {
              "pitch": 64,
              "velocity": 65,
              "position": 0,
              "duration": 1.1770833333333333
            },
            {
              "pitch": 55,
              "velocity": 65,
              "position": 0,
              "duration": 1.2395833333333333
            },
            {
              "pitch": 56,
              "velocity": 100,
              "position": 1.625,
              "duration": 1.0104166666666667
            },
            {
              "pitch": 62,
              "velocity": 100,
              "position": 1.625,
              "duration": 1.0625
            },
            {
              "pitch": 65,
              "velocity": 85,
              "position": 1.625,
              "duration": 1.09375
            },
            {
              "pitch": 60,
              "velocity": 81,
              "position": 1.625,
              "duration": 1.1770833333333333
            },
            {
              "pitch": 55,
              "velocity": 90,
              "position": 3,
              "duration": 1.8958333333333333
            },
            {
              "pitch": 61,
              "velocity": 102,
              "position": 3,
              "duration": 1.8958333333333333
            },
            {
              "pitch": 64,
              "velocity": 105,
              "position": 3,
              "duration": 1.8958333333333333
            },
            {
              "pitch": 60,
              "velocity": 90,
              "position": 5.666666666666667,
              "duration": 0.2708333333333333
            },
            {
              "pitch": 57,
              "velocity": 65,
              "position": 5.666666666666667,
              "duration": 0.2916666666666667
            },
            {
              "pitch": 65,
              "velocity": 59,
              "position": 5.666666666666667,
              "duration": 0.2916666666666667
            },
            {
              "pitch": 57,
              "velocity": 60,
              "position": 6.666666666666667,
              "duration": 1.7708333333333333
            },
            {
              "pitch": 60,
              "velocity": 81,
              "position": 6.666666666666667,
              "duration": 1.7708333333333333
            },
            {
              "pitch": 65,
              "velocity": 74,
              "position": 6.666666666666667,
              "duration": 1.7708333333333333
            },
            {
              "pitch": 60,
              "velocity": 77,
              "position": 8.666666666666666,
              "duration": 1.15625
            },
            {
              "pitch": 65,
              "velocity": 65,
              "position": 8.666666666666666,
              "duration": 1.1770833333333333
            },
            {
              "pitch": 57,
              "velocity": 65,
              "position": 8.666666666666666,
              "duration": 1.2395833333333333
            },
            {
              "pitch": 59,
              "velocity": 77,
              "position": 10,
              "duration": 1.4895833333333333
            },
            {
              "pitch": 62,
              "velocity": 65,
              "position": 10,
              "duration": 1.5104166666666667
            },
            {
              "pitch": 64,
              "velocity": 65,
              "position": 10,
              "duration": 1.5104166666666667
            },
            {
              "pitch": 55,
              "velocity": 65,
              "position": 10,
              "duration": 1.5729166666666667
            },
            {
              "pitch": 59,
              "velocity": 77,
              "position": 11.625,
              "duration": 1.15625
            },
            {
              "pitch": 62,
              "velocity": 65,
              "position": 11.625,
              "duration": 1.1770833333333333
            },
            {
              "pitch": 64,
              "velocity": 65,
              "position": 11.625,
              "duration": 1.1770833333333333
            },
            {
              "pitch": 55,
              "velocity": 65,
              "position": 11.625,
              "duration": 1.2395833333333333
            },
            {
              "pitch": 58,
              "velocity": 81,
              "position": 13,
              "duration": 1.6770833333333333
            },
            {
              "pitch": 61,
              "velocity": 81,
              "position": 13,
              "duration": 1.6770833333333333
            },
            {
              "pitch": 65,
              "velocity": 81,
              "position": 13,
              "duration": 1.7291666666666667
            },
            {
              "pitch": 55,
              "velocity": 67,
              "position": 13,
              "duration": 1.7604166666666667
            },
            {
              "pitch": 60,
              "velocity": 90,
              "position": 15.666666666666666,
              "duration": 0.2708333333333333
            },
            {
              "pitch": 57,
              "velocity": 65,
              "position": 15.666666666666666,
              "duration": 0.2916666666666667
            },
            {
              "pitch": 64,
              "velocity": 65,
              "position": 15.666666666666666,
              "duration": 0.2916666666666667
            },
            {
              "pitch": 65,
              "velocity": 59,
              "position": 15.666666666666666,
              "duration": 0.2916666666666667
            },
            {
              "pitch": 57,
              "velocity": 60,
              "position": 16.625,
              "duration": 1.1041666666666667
            },
            {
              "pitch": 60,
              "velocity": 81,
              "position": 16.625,
              "duration": 1.1041666666666667
            },
            {
              "pitch": 64,
              "velocity": 60,
              "position": 16.625,
              "duration": 1.1041666666666667
            },
            {
              "pitch": 65,
              "velocity": 74,
              "position": 16.625,
              "duration": 1.1041666666666667
            },
            {
              "pitch": 59,
              "velocity": 77,
              "position": 18,
              "duration": 1.8229166666666667
            },
            {
              "pitch": 64,
              "velocity": 65,
              "position": 18,
              "duration": 1.84375
            },
            {
              "pitch": 57,
              "velocity": 65,
              "position": 18,
              "duration": 1.90625
            },
            {
              "pitch": 65,
              "velocity": 65,
              "position": 18,
              "duration": 1.90625
            }
          ]
        },
        "14": {
          "ctab": {
            "srcChannel": 14,
            "name": "P RH",
            "accType": "CHORD2",
            "editable": false,
            "mutedNotes": [],
            "mutedChords": [
              "dim7",
              "dim",
              "minMaj7(9)",
              "minMaj7",
              "min7(11)",
              "min7(9)",
              "min(9)",
              "m7b5",
              "min7",
              "min6",
              "min"
            ],
            "autoStart": false,
            "sourceChordNote": 0,
            "sourceChordType": "Maj",
            "ctb2Low": null,
            "ctb2Main": {
              "ntr": "ROOT_TRANSPOSITION",
              "ntt": "BYPASS",
              "bassOn": false,
              "chordRootUpperLimit": 9,
              "noteLowLimit": 0,
              "noteHighLimit": 79,
              "rtr": "PITCH_SHIFT"
            },
            "ctb2High": null
          },
          "notes": [
            {
              "pitch": 67,
              "velocity": 95,
              "position": 0,
              "duration": 1.1770833333333333
            },
            {
              "pitch": 74,
              "velocity": 95,
              "position": 0,
              "duration": 1.1770833333333333
            },
            {
              "pitch": 79,
              "velocity": 95,
              "position": 0,
              "duration": 1.1770833333333333
            },
            {
              "pitch": 68,
              "velocity": 88,
              "position": 1.625,
              "duration": 1.1770833333333333
            },
            {
              "pitch": 74,
              "velocity": 88,
              "position": 1.625,
              "duration": 1.1770833333333333
            },
            {
              "pitch": 80,
              "velocity": 88,
              "position": 1.625,
              "duration": 1.1770833333333333
            },
            {
              "pitch": 69,
              "velocity": 91,
              "position": 3,
              "duration": 0.8958333333333334
            },
            {
              "pitch": 76,
              "velocity": 91,
              "position": 3,
              "duration": 0.8958333333333334
            },
            {
              "pitch": 81,
              "velocity": 91,
              "position": 3,
              "duration": 0.8958333333333334
            },
            {
              "pitch": 76,
              "velocity": 91,
              "position": 4,
              "duration": 0.22916666666666666
            },
            {
              "pitch": 75,
              "velocity": 110,
              "position": 5,
              "duration": 0.3854166666666667
            },
            {
              "pitch": 76,
              "velocity": 55,
              "position": 5.260416666666667,
              "duration": 1.1770833333333333
            },
            {
              "pitch": 81,
              "velocity": 113,
              "position": 5.041666666666667,
              "duration": 1.5833333333333333
            },
            {
              "pitch": 72,
              "velocity": 100,
              "position": 6.677083333333333,
              "duration": 0.23958333333333334
            },
            {
              "pitch": 69,
              "velocity": 83,
              "position": 7.677083333333333,
              "duration": 0.20833333333333334
            },
            {
              "pitch": 72,
              "velocity": 91,
              "position": 8.052083333333334,
              "duration": 0.6354166666666666
            },
            {
              "pitch": 74,
              "velocity": 121,
              "position": 9.052083333333334,
              "duration": 0.5
            },
            {
              "pitch": 72,
              "velocity": 81,
              "position": 9.65625,
              "duration": 0.3645833333333333
            },
            {
              "pitch": 71,
              "velocity": 127,
              "position": 10,
              "duration": 1.46875
            },
            {
              "pitch": 74,
              "velocity": 119,
              "position": 11.625,
              "duration": 1.15625
            },
            {
              "pitch": 83,
              "velocity": 77,
              "position": 11.625,
              "duration": 1.15625
            },
            {
              "pitch": 86,
              "velocity": 119,
              "position": 11.625,
              "duration": 1.15625
            },
            {
              "pitch": 77,
              "velocity": 99,
              "position": 13,
              "duration": 0.9895833333333334
            },
            {
              "pitch": 82,
              "velocity": 78,
              "position": 13,
              "duration": 0.9895833333333334
            },
            {
              "pitch": 89,
              "velocity": 99,
              "position": 13,
              "duration": 0.9895833333333334
            },
            {
              "pitch": 73,
              "velocity": 92,
              "position": 14,
              "duration": 0.9895833333333334
            },
            {
              "pitch": 85,
              "velocity": 92,
              "position": 14,
              "duration": 0.9895833333333334
            },
            {
              "pitch": 88,
              "velocity": 103,
              "position": 15,
              "duration": 1.3229166666666667
            },
            {
              "pitch": 81,
              "velocity": 85,
              "position": 15,
              "duration": 1.34375
            },
            {
              "pitch": 84,
              "velocity": 88,
              "position": 15,
              "duration": 1.34375
            },
            {
              "pitch": 76,
              "velocity": 103,
              "position": 15,
              "duration": 1.3958333333333333
            },
            {
              "pitch": 84,
              "velocity": 78,
              "position": 16.625,
              "duration": 0.9479166666666666
            },
            {
              "pitch": 76,
              "velocity": 90,
              "position": 16.625,
              "duration": 1
            },
            {
              "pitch": 81,
              "velocity": 87,
              "position": 16.625,
              "duration": 1.0104166666666667
            },
            {
              "pitch": 88,
              "velocity": 92,
              "position": 16.625,
              "duration": 1.0104166666666667
            },
            {
              "pitch": 81,
              "velocity": 73,
              "position": 18,
              "duration": 1.65625
            },
            {
              "pitch": 88,
              "velocity": 73,
              "position": 18,
              "duration": 1.7291666666666667
            },
            {
              "pitch": 76,
              "velocity": 84,
              "position": 18,
              "duration": 1.75
            },
            {
              "pitch": 83,
              "velocity": 61,
              "position": 18,
              "duration": 1.75
            }
          ]
        }
      }
    },
    "Ending_C": {
      "type": "Ending_C",
      "sizeInBeats": 20,
      "channels": {
        "1": {
          "ctab": {
            "srcChannel": 1,
            "name": "Bass",
            "accType": "BASS",
            "editable": false,
            "mutedNotes": [],
            "mutedChords": [
              "1+2+5",
              "sus4",
              "1+5",
              "1+8",
              "7aug",
              "Maj7aug",
              "7(#9)",
              "7(b13)",
              "7(b9)",
              "7(13)",
              "7#11",
              "7(9)",
              "7b5",
              "7sus4",
              "7th",
              "aug",
              "Maj6(9)",
              "Maj7(9)",
              "Maj(9)",
              "Maj7#11",
              "Maj7",
              "Maj6",
              "Maj"
            ],
            "autoStart": false,
            "sourceChordNote": 0,
            "sourceChordType": "min",
            "ctb2Low": null,
            "ctb2Main": {
              "ntr": "ROOT_TRANSPOSITION",
              "ntt": "BYPASS",
              "bassOn": false,
              "chordRootUpperLimit": 8,
              "noteLowLimit": 28,
              "noteHighLimit": 127,
              "rtr": "PITCH_SHIFT"
            },
            "ctb2High": null
          },
          "notes": [
            {
              "pitch": 24,
              "velocity": 60,
              "position": 0,
              "duration": 1.5416666666666667
            },
            {
              "pitch": 24,
              "velocity": 60,
              "position": 1.6666666666666667,
              "duration": 0.875
            },
            {
              "pitch": 24,
              "velocity": 97,
              "position": 2.6666666666666665,
              "duration": 0.16666666666666666
            },
            {
              "pitch": 33,
              "velocity": 70,
              "position": 3,
              "duration": 1.5416666666666667
            },
            {
              "pitch": 33,
              "velocity": 97,
              "position": 4.666666666666667,
              "duration": 0.16666666666666666
            },
            {
              "pitch": 32,
              "velocity": 60,
              "position": 5,
              "duration": 1.5416666666666667
            },
            {
              "pitch": 32,
              "velocity": 60,
              "position": 6.666666666666667,
              "duration": 0.9895833333333334
            },
            {
              "pitch": 32,
              "velocity": 97,
              "position": 7.666666666666667,
              "duration": 0.16666666666666666
            },
            {
              "pitch": 31,
              "velocity": 70,
              "position": 8,
              "duration": 0.875
            },
            {
              "pitch": 31,
              "velocity": 60,
              "position": 9,
              "duration": 0.875
            },
            {
              "pitch": 24,
              "velocity": 60,
              "position": 10,
              "duration": 9.989583333333334
            }
          ]
        },
        "2": {
          "ctab": {
            "srcChannel": 2,
            "name": "P LH",
            "accType": "CHORD1",
            "editable": false,
            "mutedNotes": [],
            "mutedChords": [
              "1+2+5",
              "sus4",
              "1+5",
              "1+8",
              "7aug",
              "Maj7aug",
              "7(#9)",
              "7(b13)",
              "7(b9)",
              "7(13)",
              "7#11",
              "7(9)",
              "7b5",
              "7sus4",
              "7th",
              "aug",
              "Maj6(9)",
              "Maj7(9)",
              "Maj(9)",
              "Maj7#11",
              "Maj7",
              "Maj6",
              "Maj"
            ],
            "autoStart": false,
            "sourceChordNote": 0,
            "sourceChordType": "min",
            "ctb2Low": null,
            "ctb2Main": {
              "ntr": "ROOT_TRANSPOSITION",
              "ntt": "BYPASS",
              "bassOn": false,
              "chordRootUpperLimit": 8,
              "noteLowLimit": 53,
              "noteHighLimit": 64,
              "rtr": "PITCH_SHIFT"
            },
            "ctb2High": null
          },
          "notes": [
            {
              "pitch": 55,
              "velocity": 65,
              "position": 0.6666666666666666,
              "duration": 0.2604166666666667
            },
            {
              "pitch": 58,
              "velocity": 77,
              "position": 0.6666666666666666,
              "duration": 0.2604166666666667
            },
            {
              "pitch": 63,
              "velocity": 65,
              "position": 0.6666666666666666,
              "duration": 0.2916666666666667
            },
            {
              "pitch": 58,
              "velocity": 95,
              "position": 1.6666666666666667,
              "duration": 0.34375
            },
            {
              "pitch": 63,
              "velocity": 95,
              "position": 1.6666666666666667,
              "duration": 0.3958333333333333
            },
            {
              "pitch": 55,
              "velocity": 77,
              "position": 1.6666666666666667,
              "duration": 0.4270833333333333
            },
            {
              "pitch": 55,
              "velocity": 65,
              "position": 2.6666666666666665,
              "duration": 0.2604166666666667
            },
            {
              "pitch": 60,
              "velocity": 77,
              "position": 2.6666666666666665,
              "duration": 0.2604166666666667
            },
            {
              "pitch": 63,
              "velocity": 65,
              "position": 2.6666666666666665,
              "duration": 0.2916666666666667
            },
            {
              "pitch": 55,
              "velocity": 85,
              "position": 3.6666666666666665,
              "duration": 1.2291666666666667
            },
            {
              "pitch": 60,
              "velocity": 100,
              "position": 3.6666666666666665,
              "duration": 1.2291666666666667
            },
            {
              "pitch": 63,
              "velocity": 101,
              "position": 3.6666666666666665,
              "duration": 1.2291666666666667
            },
            {
              "pitch": 54,
              "velocity": 70,
              "position": 5,
              "duration": 1.4375
            },
            {
              "pitch": 60,
              "velocity": 95,
              "position": 5,
              "duration": 1.4375
            },
            {
              "pitch": 63,
              "velocity": 86,
              "position": 5,
              "duration": 1.4375
            },
            {
              "pitch": 54,
              "velocity": 70,
              "position": 6.666666666666667,
              "duration": 1.1041666666666667
            },
            {
              "pitch": 60,
              "velocity": 95,
              "position": 6.666666666666667,
              "duration": 1.1041666666666667
            },
            {
              "pitch": 63,
              "velocity": 86,
              "position": 6.666666666666667,
              "duration": 1.1041666666666667
            },
            {
              "pitch": 59,
              "velocity": 90,
              "position": 8,
              "duration": 1.8229166666666667
            },
            {
              "pitch": 63,
              "velocity": 74,
              "position": 8,
              "duration": 1.84375
            },
            {
              "pitch": 53,
              "velocity": 75,
              "position": 8,
              "duration": 1.90625
            },
            {
              "pitch": 55,
              "velocity": 77,
              "position": 10,
              "duration": 9.989583333333334
            },
            {
              "pitch": 60,
              "velocity": 84,
              "position": 10,
              "duration": 9.989583333333334
            },
            {
              "pitch": 63,
              "velocity": 84,
              "position": 10,
              "duration": 9.989583333333334
            }
          ]
        },
        "5": {
          "ctab": {
            "srcChannel": 5,
            "name": "P RH",
            "accType": "CHORD2",
            "editable": false,
            "mutedNotes": [],
            "mutedChords": [
              "1+2+5",
              "sus4",
              "1+5",
              "1+8",
              "7aug",
              "Maj7aug",
              "7(#9)",
              "7(b13)",
              "7(b9)",
              "7(13)",
              "7#11",
              "7(9)",
              "7b5",
              "7sus4",
              "7th",
              "aug",
              "Maj6(9)",
              "Maj7(9)",
              "Maj(9)",
              "Maj7#11",
              "Maj7",
              "Maj6",
              "Maj"
            ],
            "autoStart": false,
            "sourceChordNote": 0,
            "sourceChordType": "min",
            "ctb2Low": null,
            "ctb2Main": {
              "ntr": "ROOT_TRANSPOSITION",
              "ntt": "BYPASS",
              "bassOn": false,
              "chordRootUpperLimit": 9,
              "noteLowLimit": 0,
              "noteHighLimit": 79,
              "rtr": "PITCH_SHIFT"
            },
            "ctb2High": null
          },
          "notes": [
            {
              "pitch": 70,
              "velocity": 87,
              "position": 0.6666666666666666,
              "duration": 0.2916666666666667
            },
            {
              "pitch": 72,
              "velocity": 106,
              "position": 1.6666666666666667,
              "duration": 0.3958333333333333
            },
            {
              "pitch": 72,
              "velocity": 87,
              "position": 2.6666666666666665,
              "duration": 0.2604166666666667
            },
            {
              "pitch": 75,
              "velocity": 75,
              "position": 2.6666666666666665,
              "duration": 0.2916666666666667
            },
            {
              "pitch": 72,
              "velocity": 97,
              "position": 3.6666666666666665,
              "duration": 1.1041666666666667
            },
            {
              "pitch": 75,
              "velocity": 112,
              "position": 3.6666666666666665,
              "duration": 1.2291666666666667
            },
            {
              "pitch": 79,
              "velocity": 111,
              "position": 3.6666666666666665,
              "duration": 1.2291666666666667
            },
            {
              "pitch": 72,
              "velocity": 97,
              "position": 5,
              "duration": 1.4375
            },
            {
              "pitch": 75,
              "velocity": 97,
              "position": 5,
              "duration": 1.4375
            },
            {
              "pitch": 80,
              "velocity": 97,
              "position": 5,
              "duration": 1.4375
            },
            {
              "pitch": 75,
              "velocity": 97,
              "position": 6.666666666666667,
              "duration": 1.1041666666666667
            },
            {
              "pitch": 80,
              "velocity": 97,
              "position": 6.666666666666667,
              "duration": 1.1041666666666667
            },
            {
              "pitch": 84,
              "velocity": 97,
              "position": 6.666666666666667,
              "duration": 1.1041666666666667
            },
            {
              "pitch": 79,
              "velocity": 100,
              "position": 8,
              "duration": 0.8229166666666666
            },
            {
              "pitch": 82,
              "velocity": 100,
              "position": 8,
              "duration": 0.8229166666666666
            },
            {
              "pitch": 71,
              "velocity": 85,
              "position": 8,
              "duration": 0.90625
            },
            {
              "pitch": 77,
              "velocity": 100,
              "position": 9,
              "duration": 0.8229166666666666
            },
            {
              "pitch": 80,
              "velocity": 100,
              "position": 9,
              "duration": 0.8229166666666666
            },
            {
              "pitch": 71,
              "velocity": 85,
              "position": 9,
              "duration": 0.90625
            },
            {
              "pitch": 72,
              "velocity": 87,
              "position": 10,
              "duration": 9.989583333333334
            },
            {
              "pitch": 75,
              "velocity": 77,
              "position": 10,
              "duration": 9.989583333333334
            },
            {
              "pitch": 79,
              "velocity": 89,
              "position": 10,
              "duration": 9.989583333333334
            }
          ]
        },
        "9": {
          "ctab": {
            "srcChannel": 9,
            "name": "Drums",
            "accType": "RHYTHM",
            "editable": false,
            "mutedNotes": [],
            "mutedChords": [],
            "autoStart": true,
            "sourceChordNote": 0,
            "sourceChordType": "Maj7",
            "ctb2Low": null,
            "ctb2Main": {
              "ntr": "ROOT_FIXED",
              "ntt": "BYPASS",
              "bassOn": false,
              "chordRootUpperLimit": 6,
              "noteLowLimit": 0,
              "noteHighLimit": 127,
              "rtr": "PITCH_SHIFT"
            },
            "ctb2High": null
          },
          "notes": [
            {
              "pitch": 33,
              "velocity": 68,
              "position": 0,
              "duration": 0.010416666666666666
            },
            {
              "pitch": 59,
              "velocity": 47,
              "position": 0,
              "duration": 0.010416666666666666
            },
            {
              "pitch": 31,
              "velocity": 83,
              "position": 0.6666666666666666,
              "duration": 0.010416666666666666
            },
            {
              "pitch": 44,
              "velocity": 57,
              "position": 1,
              "duration": 0.010416666666666666
            },
            {
              "pitch": 59,
              "velocity": 47,
              "position": 1,
              "duration": 0.010416666666666666
            },
            {
              "pitch": 33,
              "velocity": 52,
              "position": 1.6666666666666667,
              "duration": 0.010416666666666666
            },
            {
              "pitch": 59,
              "velocity": 29,
              "position": 1.6666666666666667,
              "duration": 0.010416666666666666
            },
            {
              "pitch": 31,
              "velocity": 83,
              "position": 2,
              "duration": 0.010416666666666666
            },
            {
              "pitch": 59,
              "velocity": 47,
              "position": 2,
              "duration": 0.010416666666666666
            },
            {
              "pitch": 33,
              "velocity": 52,
              "position": 2.6666666666666665,
              "duration": 0.010416666666666666
            },
            {
              "pitch": 33,
              "velocity": 68,
              "position": 3,
              "duration": 0.010416666666666666
            },
            {
              "pitch": 44,
              "velocity": 57,
              "position": 3,
              "duration": 0.010416666666666666
            },
            {
              "pitch": 59,
              "velocity": 47,
              "position": 3,
              "duration": 0.010416666666666666
            },
            {
              "pitch": 59,
              "velocity": 29,
              "position": 3.6666666666666665,
              "duration": 0.010416666666666666
            },
            {
              "pitch": 31,
              "velocity": 83,
              "position": 4,
              "duration": 0.010416666666666666
            },
            {
              "pitch": 59,
              "velocity": 47,
              "position": 4,
              "duration": 0.010416666666666666
            },
            {
              "pitch": 33,
              "velocity": 68,
              "position": 5,
              "duration": 0.010416666666666666
            },
            {
              "pitch": 44,
              "velocity": 57,
              "position": 5,
              "duration": 0.010416666666666666
            },
            {
              "pitch": 59,
              "velocity": 47,
              "position": 5,
              "duration": 0.010416666666666666
            },
            {
              "pitch": 31,
              "velocity": 83,
              "position": 5.666666666666667,
              "duration": 0.010416666666666666
            },
            {
              "pitch": 59,
              "velocity": 47,
              "position": 6,
              "duration": 0.010416666666666666
            },
            {
              "pitch": 31,
              "velocity": 83,
              "position": 6.666666666666667,
              "duration": 0.010416666666666666
            },
            {
              "pitch": 59,
              "velocity": 29,
              "position": 6.666666666666667,
              "duration": 0.010416666666666666
            },
            {
              "pitch": 44,
              "velocity": 57,
              "position": 7,
              "duration": 0.010416666666666666
            },
            {
              "pitch": 59,
              "velocity": 47,
              "position": 7,
              "duration": 0.010416666666666666
            },
            {
              "pitch": 31,
              "velocity": 43,
              "position": 7.333333333333333,
              "duration": 0.010416666666666666
            },
            {
              "pitch": 33,
              "velocity": 52,
              "position": 7.666666666666667,
              "duration": 0.010416666666666666
            },
            {
              "pitch": 47,
              "velocity": 87,
              "position": 7.666666666666667,
              "duration": 0.010416666666666666
            },
            {
              "pitch": 33,
              "velocity": 68,
              "position": 8,
              "duration": 0.010416666666666666
            },
            {
              "pitch": 59,
              "velocity": 47,
              "position": 8,
              "duration": 0.010416666666666666
            },
            {
              "pitch": 31,
              "velocity": 63,
              "position": 8.333333333333334,
              "duration": 0.010416666666666666
            },
            {
              "pitch": 31,
              "velocity": 83,
              "position": 8.666666666666666,
              "duration": 0.010416666666666666
            },
            {
              "pitch": 40,
              "velocity": 127,
              "position": 8.666666666666666,
              "duration": 0.010416666666666666
            },
            {
              "pitch": 44,
              "velocity": 57,
              "position": 9,
              "duration": 0.010416666666666666
            },
            {
              "pitch": 31,
              "velocity": 63,
              "position": 9.333333333333334,
              "duration": 0.010416666666666666
            },
            {
              "pitch": 33,
              "velocity": 37,
              "position": 9.666666666666666,
              "duration": 0.010416666666666666
            },
            {
              "pitch": 33,
              "velocity": 73,
              "position": 10,
              "duration": 0.010416666666666666
            },
            {
              "pitch": 59,
              "velocity": 47,
              "position": 10,
              "duration": 0.010416666666666666
            }
          ]
        },
        "10": {
          "ctab": {
            "srcChannel": 10,
            "name": "Bass",
            "accType": "BASS",
            "editable": false,
            "mutedNotes": [],
            "mutedChords": [
              "dim7",
              "dim",
              "minMaj7(9)",
              "minMaj7",
              "min7(11)",
              "min7(9)",
              "min(9)",
              "m7b5",
              "min7",
              "min6",
              "min"
            ],
            "autoStart": false,
            "sourceChordNote": 0,
            "sourceChordType": "Maj",
            "ctb2Low": null,
            "ctb2Main": {
              "ntr": "ROOT_TRANSPOSITION",
              "ntt": "BYPASS",
              "bassOn": false,
              "chordRootUpperLimit": 8,
              "noteLowLimit": 28,
              "noteHighLimit": 127,
              "rtr": "PITCH_SHIFT"
            },
            "ctb2High": null
          },
          "notes": [
            {
              "pitch": 24,
              "velocity": 60,
              "position": 0,
              "duration": 1.5416666666666667
            },
            {
              "pitch": 24,
              "velocity": 60,
              "position": 1.6666666666666667,
              "duration": 0.875
            },
            {
              "pitch": 24,
              "velocity": 97,
              "position": 2.6666666666666665,
              "duration": 0.125
            },
            {
              "pitch": 33,
              "velocity": 70,
              "position": 3,
              "duration": 1.5416666666666667
            },
            {
              "pitch": 33,
              "velocity": 97,
              "position": 4.666666666666667,
              "duration": 0.16666666666666666
            },
            {
              "pitch": 26,
              "velocity": 60,
              "position": 5,
              "duration": 1.5416666666666667
            },
            {
              "pitch": 26,
              "velocity": 60,
              "position": 6.666666666666667,
              "duration": 0.9895833333333334
            },
            {
              "pitch": 26,
              "velocity": 97,
              "position": 7.666666666666667,
              "duration": 0.125
            },
            {
              "pitch": 31,
              "velocity": 70,
              "position": 8,
              "duration": 0.875
            },
            {
              "pitch": 31,
              "velocity": 60,
              "position": 9,
              "duration": 0.875
            },
            {
              "pitch": 24,
              "velocity": 60,
              "position": 10,
              "duration": 9.989583333333334
            }
          ]
        },
        "11": {
          "ctab": {
            "srcChannel": 11,
            "name": "P LH",
            "accType": "CHORD1",
            "editable": false,
            "mutedNotes": [],
            "mutedChords": [
              "dim7",
              "dim",
              "minMaj7(9)",
              "minMaj7",
              "min7(11)",
              "min7(9)",
              "min(9)",
              "m7b5",
              "min7",
              "min6",
              "min"
            ],
            "autoStart": false,
            "sourceChordNote": 0,
            "sourceChordType": "Maj",
            "ctb2Low": null,
            "ctb2Main": {
              "ntr": "ROOT_TRANSPOSITION",
              "ntt": "BYPASS",
              "bassOn": false,
              "chordRootUpperLimit": 8,
              "noteLowLimit": 53,
              "noteHighLimit": 64,
              "rtr": "PITCH_SHIFT"
            },
            "ctb2High": null
          },
          "notes": [
            {
              "pitch": 55,
              "velocity": 65,
              "position": 0.6666666666666666,
              "duration": 0.2604166666666667
            },
            {
              "pitch": 59,
              "velocity": 77,
              "position": 0.6666666666666666,
              "duration": 0.2604166666666667
            },
            {
              "pitch": 64,
              "velocity": 65,
              "position": 0.6666666666666666,
              "duration": 0.2916666666666667
            },
            {
              "pitch": 59,
              "velocity": 95,
              "position": 1.6666666666666667,
              "duration": 0.34375
            },
            {
              "pitch": 64,
              "velocity": 95,
              "position": 1.6666666666666667,
              "duration": 0.3958333333333333
            },
            {
              "pitch": 55,
              "velocity": 77,
              "position": 1.6666666666666667,
              "duration": 0.4270833333333333
            },
            {
              "pitch": 55,
              "velocity": 65,
              "position": 2.6666666666666665,
              "duration": 0.2604166666666667
            },
            {
              "pitch": 60,
              "velocity": 77,
              "position": 2.6666666666666665,
              "duration": 0.2604166666666667
            },
            {
              "pitch": 64,
              "velocity": 65,
              "position": 2.6666666666666665,
              "duration": 0.2916666666666667
            },
            {
              "pitch": 55,
              "velocity": 85,
              "position": 3.6666666666666665,
              "duration": 1.2291666666666667
            },
            {
              "pitch": 60,
              "velocity": 100,
              "position": 3.6666666666666665,
              "duration": 1.2291666666666667
            },
            {
              "pitch": 64,
              "velocity": 101,
              "position": 3.6666666666666665,
              "duration": 1.2291666666666667
            },
            {
              "pitch": 57,
              "velocity": 70,
              "position": 5,
              "duration": 1.4375
            },
            {
              "pitch": 60,
              "velocity": 95,
              "position": 5,
              "duration": 1.4375
            },
            {
              "pitch": 65,
              "velocity": 86,
              "position": 5,
              "duration": 1.4375
            },
            {
              "pitch": 57,
              "velocity": 70,
              "position": 6.666666666666667,
              "duration": 1.1041666666666667
            },
            {
              "pitch": 60,
              "velocity": 95,
              "position": 6.666666666666667,
              "duration": 1.1041666666666667
            },
            {
              "pitch": 65,
              "velocity": 86,
              "position": 6.666666666666667,
              "duration": 1.1041666666666667
            },
            {
              "pitch": 60,
              "velocity": 90,
              "position": 8,
              "duration": 1.8229166666666667
            },
            {
              "pitch": 65,
              "velocity": 74,
              "position": 8,
              "duration": 1.84375
            },
            {
              "pitch": 57,
              "velocity": 75,
              "position": 8,
              "duration": 1.90625
            },
            {
              "pitch": 55,
              "velocity": 77,
              "position": 10,
              "duration": 9.989583333333334
            },
            {
              "pitch": 59,
              "velocity": 84,
              "position": 10,
              "duration": 9.989583333333334
            },
            {
              "pitch": 64,
              "velocity": 84,
              "position": 10,
              "duration": 9.989583333333334
            }
          ]
        },
        "14": {
          "ctab": {
            "srcChannel": 14,
            "name": "P RH",
            "accType": "CHORD2",
            "editable": false,
            "mutedNotes": [],
            "mutedChords": [
              "dim7",
              "dim",
              "minMaj7(9)",
              "minMaj7",
              "min7(11)",
              "min7(9)",
              "min(9)",
              "m7b5",
              "min7",
              "min6",
              "min"
            ],
            "autoStart": false,
            "sourceChordNote": 0,
            "sourceChordType": "Maj",
            "ctb2Low": null,
            "ctb2Main": {
              "ntr": "ROOT_TRANSPOSITION",
              "ntt": "BYPASS",
              "bassOn": false,
              "chordRootUpperLimit": 9,
              "noteLowLimit": 0,
              "noteHighLimit": 79,
              "rtr": "PITCH_SHIFT"
            },
            "ctb2High": null
          },
          "notes": [
            {
              "pitch": 67,
              "velocity": 91,
              "position": 0.6666666666666666,
              "duration": 0.2916666666666667
            },
            {
              "pitch": 69,
              "velocity": 93,
              "position": 1.6666666666666667,
              "duration": 0.3958333333333333
            },
            {
              "pitch": 67,
              "velocity": 92,
              "position": 2.6666666666666665,
              "duration": 0.2604166666666667
            },
            {
              "pitch": 72,
              "velocity": 90,
              "position": 2.6666666666666665,
              "duration": 0.2916666666666667
            },
            {
              "pitch": 67,
              "velocity": 86,
              "position": 3.6666666666666665,
              "duration": 1.1041666666666667
            },
            {
              "pitch": 72,
              "velocity": 91,
              "position": 3.6666666666666665,
              "duration": 1.2291666666666667
            },
            {
              "pitch": 76,
              "velocity": 90,
              "position": 3.6666666666666665,
              "duration": 1.2291666666666667
            },
            {
              "pitch": 69,
              "velocity": 83,
              "position": 5,
              "duration": 1.4375
            },
            {
              "pitch": 72,
              "velocity": 83,
              "position": 5,
              "duration": 1.4375
            },
            {
              "pitch": 77,
              "velocity": 83,
              "position": 5,
              "duration": 1.4375
            },
            {
              "pitch": 72,
              "velocity": 93,
              "position": 6.666666666666667,
              "duration": 1.1041666666666667
            },
            {
              "pitch": 77,
              "velocity": 93,
              "position": 6.666666666666667,
              "duration": 1.1041666666666667
            },
            {
              "pitch": 81,
              "velocity": 93,
              "position": 6.666666666666667,
              "duration": 1.1041666666666667
            },
            {
              "pitch": 77,
              "velocity": 93,
              "position": 8,
              "duration": 0.8229166666666666
            },
            {
              "pitch": 81,
              "velocity": 84,
              "position": 8,
              "duration": 0.84375
            },
            {
              "pitch": 84,
              "velocity": 85,
              "position": 8,
              "duration": 0.90625
            },
            {
              "pitch": 72,
              "velocity": 100,
              "position": 9,
              "duration": 0.8229166666666666
            },
            {
              "pitch": 77,
              "velocity": 84,
              "position": 9,
              "duration": 0.84375
            },
            {
              "pitch": 81,
              "velocity": 85,
              "position": 9,
              "duration": 0.90625
            },
            {
              "pitch": 71,
              "velocity": 77,
              "position": 10,
              "duration": 9.989583333333334
            },
            {
              "pitch": 76,
              "velocity": 89,
              "position": 10,
              "duration": 9.989583333333334
            },
            {
              "pitch": 79,
              "velocity": 87,
              "position": 10,
              "duration": 9.989583333333334
            }
          ]
        }
      }
    }
  }
}