{
  "name": "FastBossa.S629.prs",
  "tempo": 175,
  "timeSignature": "4/4",
  "ticksPerQuarter": 1920,
  "sffType": "SFF1",
  "division": "BINARY",
  "parts": {
    "Main_A": {
      "type": "Main_A",
      "sizeInBeats": 16,
      "channels": {
        "1": {
          "ctab": {
            "srcChannel": 1,
            "name": "CC_Crash",
            "accType": "RHYTHM",
            "editable": false,
            "mutedNotes": [],
            "mutedChords": [
              "1+2+5",
              "sus4",
              "1+5",
              "1+8",
              "7aug",
              "Maj7aug",
              "7(#9)",
              "7(b13)",
              "7(b9)",
              "7(13)",
              "7#11",
              "7(9)",
              "7b5",
              "7sus4",
              "7th",
              "dim7",
              "dim",
              "minMaj7(9)",
              "minMaj7",
              "min7(11)",
              "min7(9)",
              "min(9)",
              "m7b5",
              "min7",
              "min6",
              "min",
              "aug",
              "Maj6(9)",
              "Maj7(9)",
              "Maj(9)",
              "Maj7#11",
              "Maj7",
              "Maj6",
              "Maj"
            ],
            "autoStart": true,
            "sourceChordNote": 0,
            "sourceChordType": "Maj",
            "ctb2Low": null,
            "ctb2Main": {
              "ntr": "ROOT_FIXED",
              "ntt": "BYPASS",
              "bassOn": false,
              "chordRootUpperLimit": 0,
              "noteLowLimit": 0,
              "noteHighLimit": 127,
              "rtr": "RETRIGGER"
            },
            "ctb2High": null
          },
          "notes": []
        },
        "3": {
          "ctab": {
            "srcChannel": 3,
            "name": "NylRoot",
            "accType": "CHORD1",
            "editable": false,
            "mutedNotes": [],
            "mutedChords": [
              "1+2+5",
              "sus4",
              "1+5",
              "1+8",
              "Maj7aug",
              "dim",
              "minMaj7(9)",
              "minMaj7",
              "min6",
              "min",
              "aug",
              "Maj7(9)",
              "Maj7#11",
              "Maj7",
              "Maj6",
              "Maj"
            ],
            "autoStart": false,
            "sourceChordNote": 0,
            "sourceChordType": "Maj7",
            "ctb2Low": null,
            "ctb2Main": {
              "ntr": "ROOT_TRANSPOSITION",
              "ntt": "MELODY",
              "bassOn": false,
              "chordRootUpperLimit": 6,
              "noteLowLimit": 40,
              "noteHighLimit": 127,
              "rtr": "PITCH_SHIFT"
            },
            "ctb2High": null
          },
          "notes": [
            {
              "pitch": 60,
              "velocity": 61,
              "position": 0,
              "duration": 0.3125
            },
            {
              "pitch": 60,
              "velocity": 59,
              "position": 1,
              "duration": 0.3125
            },
            {
              "pitch": 60,
              "velocity": 53,
              "position": 2.5,
              "duration": 0.3125
            },
            {
              "pitch": 60,
              "velocity": 56,
              "position": 4.5,
              "duration": 0.3125
            },
            {
              "pitch": 60,
              "velocity": 54,
              "position": 6,
              "duration": 0.3125
            },
            {
              "pitch": 60,
              "velocity": 54,
              "position": 7,
              "duration": 0.3125
            },
            {
              "pitch": 60,
              "velocity": 51,
              "position": 8,
              "duration": 0.3125
            },
            {
              "pitch": 60,
              "velocity": 52,
              "position": 9,
              "duration": 0.3125
            },
            {
              "pitch": 60,
              "velocity": 55,
              "position": 10.5,
              "duration": 0.3125
            },
            {
              "pitch": 60,
              "velocity": 53,
              "position": 12.5,
              "duration": 0.3125
            },
            {
              "pitch": 60,
              "velocity": 58,
              "position": 14,
              "duration": 0.3125
            },
            {
              "pitch": 60,
              "velocity": 51,
              "position": 15,
              "duration": 0.3125
            }
          ]
        },
        "5": {
          "ctab": {
            "srcChannel": 5,
            "name": "StrRoot",
            "accType": "PAD",
            "editable": false,
            "mutedNotes": [],
            "mutedChords": [
              "1+2+5",
              "sus4",
              "1+5",
              "1+8",
              "Maj7aug",
              "dim",
              "minMaj7(9)",
              "minMaj7",
              "min6",
              "min",
              "aug",
              "Maj7(9)",
              "Maj7#11",
              "Maj7",
              "Maj6",
              "Maj"
            ],
            "autoStart": false,
            "sourceChordNote": 0,
            "sourceChordType": "Maj7",
            "ctb2Low": null,
            "ctb2Main": {
              "ntr": "ROOT_TRANSPOSITION",
              "ntt": "MELODY",
              "bassOn": false,
              "chordRootUpperLimit": 6,
              "noteLowLimit": 0,
              "noteHighLimit": 127,
              "rtr": "PITCH_SHIFT"
            },
            "ctb2High": null
          },
          "notes": []
        },
        "8": {
          "ctab": {
            "srcChannel": 8,
            "name": "CubanP",
            "accType": "SUBRHYTHM",
            "editable": false,
            "mutedNotes": [],
            "mutedChords": [],
            "autoStart": true,
            "sourceChordNote": 0,
            "sourceChordType": "Maj7",
            "ctb2Low": null,
            "ctb2Main": {
              "ntr": "ROOT_FIXED",
              "ntt": "BYPASS",
              "bassOn": false,
              "chordRootUpperLimit": 6,
              "noteLowLimit": 0,
              "noteHighLimit": 127,
              "rtr": "PITCH_SHIFT"
            },
            "ctb2High": null
          },
          "notes": [
            {
              "pitch": 73,
              "velocity": 27,
              "position": 0,
              "duration": 0.17708333333333334
            },
            {
              "pitch": 73,
              "velocity": 30,
              "position": 0.5,
              "duration": 0.13541666666666666
            },
            {
              "pitch": 27,
              "velocity": 64,
              "position": 1,
              "duration": 0.010416666666666666
            },
            {
              "pitch": 73,
              "velocity": 96,
              "position": 1,
              "duration": 0.1875
            },
            {
              "pitch": 25,
              "velocity": 36,
              "position": 1.4895833333333333,
              "duration": 0.010416666666666666
            },
            {
              "pitch": 73,
              "velocity": 29,
              "position": 1.4895833333333333,
              "duration": 0.19791666666666666
            },
            {
              "pitch": 23,
              "velocity": 36,
              "position": 2,
              "duration": 0.010416666666666666
            },
            {
              "pitch": 73,
              "velocity": 25,
              "position": 1.9895833333333333,
              "duration": 0.20833333333333334
            },
            {
              "pitch": 25,
              "velocity": 126,
              "position": 2.4895833333333335,
              "duration": 0.010416666666666666
            },
            {
              "pitch": 73,
              "velocity": 29,
              "position": 2.5,
              "duration": 0.16666666666666666
            },
            {
              "pitch": 24,
              "velocity": 50,
              "position": 3,
              "duration": 0.010416666666666666
            },
            {
              "pitch": 73,
              "velocity": 89,
              "position": 2.9895833333333335,
              "duration": 0.1875
            },
            {
              "pitch": 23,
              "velocity": 52,
              "position": 3.4895833333333335,
              "duration": 0.010416666666666666
            },
            {
              "pitch": 73,
              "velocity": 27,
              "position": 3.4895833333333335,
              "duration": 0.21875
            },
            {
              "pitch": 73,
              "velocity": 27,
              "position": 3.9895833333333335,
              "duration": 0.1875
            },
            {
              "pitch": 27,
              "velocity": 57,
              "position": 4.489583333333333,
              "duration": 0.010416666666666666
            },
            {
              "pitch": 73,
              "velocity": 36,
              "position": 4.489583333333333,
              "duration": 0.17708333333333334
            },
            {
              "pitch": 73,
              "velocity": 87,
              "position": 5,
              "duration": 0.25
            },
            {
              "pitch": 23,
              "velocity": 57,
              "position": 5.489583333333333,
              "duration": 0.010416666666666666
            },
            {
              "pitch": 73,
              "velocity": 27,
              "position": 5.489583333333333,
              "duration": 0.2708333333333333
            },
            {
              "pitch": 25,
              "velocity": 106,
              "position": 5.989583333333333,
              "duration": 0.010416666666666666
            },
            {
              "pitch": 73,
              "velocity": 30,
              "position": 5.989583333333333,
              "duration": 0.19791666666666666
            },
            {
              "pitch": 73,
              "velocity": 33,
              "position": 6.5,
              "duration": 0.15625
            },
            {
              "pitch": 25,
              "velocity": 93,
              "position": 7,
              "duration": 0.010416666666666666
            },
            {
              "pitch": 73,
              "velocity": 90,
              "position": 7,
              "duration": 0.1875
            },
            {
              "pitch": 73,
              "velocity": 22,
              "position": 7.489583333333333,
              "duration": 0.19791666666666666
            },
            {
              "pitch": 73,
              "velocity": 27,
              "position": 8,
              "duration": 0.17708333333333334
            },
            {
              "pitch": 73,
              "velocity": 30,
              "position": 8.5,
              "duration": 0.13541666666666666
            },
            {
              "pitch": 27,
              "velocity": 64,
              "position": 9,
              "duration": 0.010416666666666666
            },
            {
              "pitch": 73,
              "velocity": 96,
              "position": 9,
              "duration": 0.1875
            },
            {
              "pitch": 25,
              "velocity": 36,
              "position": 9.489583333333334,
              "duration": 0.010416666666666666
            },
            {
              "pitch": 73,
              "velocity": 29,
              "position": 9.489583333333334,
              "duration": 0.19791666666666666
            },
            {
              "pitch": 23,
              "velocity": 36,
              "position": 10,
              "duration": 0.010416666666666666
            },
            {
              "pitch": 73,
              "velocity": 25,
              "position": 9.989583333333334,
              "duration": 0.20833333333333334
            },
            {
              "pitch": 25,
              "velocity": 126,
              "position": 10.489583333333334,
              "duration": 0.010416666666666666
            },
            {
              "pitch": 73,
              "velocity": 29,
              "position": 10.5,
              "duration": 0.16666666666666666
            },
            {
              "pitch": 24,
              "velocity": 50,
              "position": 11,
              "duration": 0.010416666666666666
            },
            {
              "pitch": 73,
              "velocity": 89,
              "position": 10.989583333333334,
              "duration": 0.1875
            },
            {
              "pitch": 23,
              "velocity": 52,
              "position": 11.489583333333334,
              "duration": 0.010416666666666666
            },
            {
              "pitch": 73,
              "velocity": 27,
              "position": 11.489583333333334,
              "duration": 0.21875
            },
            {
              "pitch": 73,
              "velocity": 27,
              "position": 11.989583333333334,
              "duration": 0.1875
            },
            {
              "pitch": 27,
              "velocity": 57,
              "position": 12.489583333333334,
              "duration": 0.010416666666666666
            },
            {
              "pitch": 73,
              "velocity": 36,
              "position": 12.489583333333334,
              "duration": 0.17708333333333334
            },
            {
              "pitch": 73,
              "velocity": 87,
              "position": 13,
              "duration": 0.25
            },
            {
              "pitch": 23,
              "velocity": 57,
              "position": 13.489583333333334,
              "duration": 0.010416666666666666
            },
            {
              "pitch": 73,
              "velocity": 27,
              "position": 13.489583333333334,
              "duration": 0.2708333333333333
            },
            {
              "pitch": 25,
              "velocity": 106,
              "position": 13.989583333333334,
              "duration": 0.010416666666666666
            },
            {
              "pitch": 73,
              "velocity": 30,
              "position": 13.989583333333334,
              "duration": 0.19791666666666666
            },
            {
              "pitch": 73,
              "velocity": 33,
              "position": 14.5,
              "duration": 0.15625
            },
            {
              "pitch": 25,
              "velocity": 93,
              "position": 15,
              "duration": 0.010416666666666666
            },
            {
              "pitch": 73,
              "velocity": 90,
              "position": 15,
              "duration": 0.1875
            },
            {
              "pitch": 73,
              "velocity": 22,
              "position": 15.489583333333334,
              "duration": 0.19791666666666666
            }
          ]
        },
        "9": {
          "ctab": {
            "srcChannel": 9,
            "name": "Drums",
            "accType": "RHYTHM",
            "editable": false,
            "mutedNotes": [],
            "mutedChords": [],
            "autoStart": true,
            "sourceChordNote": 0,
            "sourceChordType": "Maj7",
            "ctb2Low": null,
            "ctb2Main": {
              "ntr": "ROOT_FIXED",
              "ntt": "BYPASS",
              "bassOn": false,
              "chordRootUpperLimit": 6,
              "noteLowLimit": 0,
              "noteHighLimit": 127,
              "rtr": "PITCH_SHIFT"
            },
            "ctb2High": null
          },
          "notes": [
            {
              "pitch": 33,
              "velocity": 80,
              "position": 0,
              "duration": 0.010416666666666666
            },
            {
              "pitch": 44,
              "velocity": 31,
              "position": 1,
              "duration": 0.010416666666666666
            },
            {
              "pitch": 33,
              "velocity": 45,
              "position": 1.5,
              "duration": 0.010416666666666666
            },
            {
              "pitch": 33,
              "velocity": 72,
              "position": 2,
              "duration": 0.010416666666666666
            },
            {
              "pitch": 44,
              "velocity": 31,
              "position": 3,
              "duration": 0.010416666666666666
            },
            {
              "pitch": 33,
              "velocity": 45,
              "position": 3.5,
              "duration": 0.010416666666666666
            },
            {
              "pitch": 33,
              "velocity": 72,
              "position": 4,
              "duration": 0.010416666666666666
            },
            {
              "pitch": 44,
              "velocity": 31,
              "position": 5,
              "duration": 0.010416666666666666
            },
            {
              "pitch": 33,
              "velocity": 45,
              "position": 5.5,
              "duration": 0.010416666666666666
            },
            {
              "pitch": 33,
              "velocity": 72,
              "position": 6,
              "duration": 0.010416666666666666
            },
            {
              "pitch": 44,
              "velocity": 31,
              "position": 7,
              "duration": 0.010416666666666666
            },
            {
              "pitch": 33,
              "velocity": 45,
              "position": 7.5,
              "duration": 0.010416666666666666
            },
            {
              "pitch": 33,
              "velocity": 80,
              "position": 8,
              "duration": 0.010416666666666666
            },
            {
              "pitch": 44,
              "velocity": 31,
              "position": 9,
              "duration": 0.010416666666666666
            },
            {
              "pitch": 33,
              "velocity": 45,
              "position": 9.5,
              "duration": 0.010416666666666666
            },
            {
              "pitch": 33,
              "velocity": 72,
              "position": 10,
              "duration": 0.010416666666666666
            },
            {
              "pitch": 44,
              "velocity": 31,
              "position": 11,
              "duration": 0.010416666666666666
            },
            {
              "pitch": 33,
              "velocity": 45,
              "position": 11.5,
              "duration": 0.010416666666666666
            },
            {
              "pitch": 33,
              "velocity": 72,
              "position": 12,
              "duration": 0.010416666666666666
            },
            {
              "pitch": 44,
              "velocity": 31,
              "position": 13,
              "duration": 0.010416666666666666
            },
            {
              "pitch": 33,
              "velocity": 45,
              "position": 13.5,
              "duration": 0.010416666666666666
            },
            {
              "pitch": 33,
              "velocity": 72,
              "position": 14,
              "duration": 0.010416666666666666
            },
            {
              "pitch": 44,
              "velocity": 31,
              "position": 15,
              "duration": 0.010416666666666666
            },
            {
              "pitch": 33,
              "velocity": 45,
              "position": 15.5,
              "duration": 0.010416666666666666
            }
          ]
        },
        "10": {
          "ctab": {
            "srcChannel": 10,
            "name": "Bass",
            "accType": "BASS",
            "editable": false,
            "mutedNotes": [],
            "mutedChords": [],
            "autoStart": false,
            "sourceChordNote": 0,
            "sourceChordType": "Maj7",
            "ctb2Low": null,
            "ctb2Main": {
              "ntr": "ROOT_TRANSPOSITION",
              "ntt": "MELODY",
              "bassOn": true,
              "chordRootUpperLimit": 3,
              "noteLowLimit": 28,
              "noteHighLimit": 127,
              "rtr": "PITCH_SHIFT_TO_ROOT"
            },
            "ctb2High": null
          },
          "notes": [
            {
              "pitch": 24,
              "velocity": 84,
              "position": 0,
              "duration": 1.2083333333333333
            },
            {
              "pitch": 24,
              "velocity": 69,
              "position": 1.5,
              "duration": 0.23958333333333334
            },
            {
              "pitch": 31,
              "velocity": 85,
              "position": 2,
              "duration": 1.9895833333333333
            },
            {
              "pitch": 24,
              "velocity": 83,
              "position": 4,
              "duration": 1.4166666666666667
            },
            {
              "pitch": 24,
              "velocity": 65,
              "position": 5.5,
              "duration": 0.3645833333333333
            },
            {
              "pitch": 31,
              "velocity": 84,
              "position": 6,
              "duration": 1.9895833333333333
            },
            {
              "pitch": 24,
              "velocity": 84,
              "position": 8,
              "duration": 1.2083333333333333
            },
            {
              "pitch": 24,
              "velocity": 69,
              "position": 9.5,
              "duration": 0.23958333333333334
            },
            {
              "pitch": 31,
              "velocity": 85,
              "position": 10,
              "duration": 1.9895833333333333
            },
            {
              "pitch": 24,
              "velocity": 83,
              "position": 12,
              "duration": 1.4166666666666667
            },
            {
              "pitch": 24,
              "velocity": 65,
              "position": 13.5,
              "duration": 0.3645833333333333
            },
            {
              "pitch": 31,
              "velocity": 84,
              "position": 14,
              "duration": 1.9895833333333333
            }
          ]
        },
        "11": {
          "ctab": {
            "srcChannel": 11,
            "name": "NylonGtr",
            "accType": "CHORD1",
            "editable": false,
            "mutedNotes": [],
            "mutedChords": [],
            "autoStart": false,
            "sourceChordNote": 0,
            "sourceChordType": "Maj7",
            "ctb2Low": null,
            "ctb2Main": {
              "ntr": "ROOT_FIXED",
              "ntt": "CHORD",
              "bassOn": false,
              "chordRootUpperLimit": 6,
              "noteLowLimit": 0,
              "noteHighLimit": 127,
              "rtr": "PITCH_SHIFT"
            },
            "ctb2High": null
          },
          "notes": [
            {
              "pitch": 55,
              "velocity": 55,
              "position": 0,
              "duration": 0.3125
            },
            {
              "pitch": 59,
              "velocity": 55,
              "position": 0,
              "duration": 0.3125
            },
            {
              "pitch": 64,
              "velocity": 55,
              "position": 0,
              "duration": 0.3125
            },
            {
              "pitch": 55,
              "velocity": 57,
              "position": 1,
              "duration": 0.3125
            },
            {
              "pitch": 59,
              "velocity": 57,
              "position": 1,
              "duration": 0.3125
            },
            {
              "pitch": 64,
              "velocity": 53,
              "position": 1,
              "duration": 0.3125
            },
            {
              "pitch": 55,
              "velocity": 55,
              "position": 2.5,
              "duration": 0.3125
            },
            {
              "pitch": 59,
              "velocity": 57,
              "position": 2.5,
              "duration": 0.3125
            },
            {
              "pitch": 64,
              "velocity": 47,
              "position": 2.5,
              "duration": 0.3125
            },
            {
              "pitch": 55,
              "velocity": 55,
              "position": 4.5,
              "duration": 0.3125
            },
            {
              "pitch": 59,
              "velocity": 51,
              "position": 4.5,
              "duration": 0.3125
            },
            {
              "pitch": 64,
              "velocity": 50,
              "position": 4.5,
              "duration": 0.3125
            },
            {
              "pitch": 55,
              "velocity": 53,
              "position": 6,
              "duration": 0.3125
            },
            {
              "pitch": 59,
              "velocity": 56,
              "position": 6,
              "duration": 0.3125
            },
            {
              "pitch": 64,
              "velocity": 48,
              "position": 6,
              "duration": 0.3125
            },
            {
              "pitch": 55,
              "velocity": 51,
              "position": 7,
              "duration": 0.3125
            },
            {
              "pitch": 59,
              "velocity": 53,
              "position": 7,
              "duration": 0.3125
            },
            {
              "pitch": 64,
              "velocity": 48,
              "position": 7,
              "duration": 0.3125
            },
            {
              "pitch": 55,
              "velocity": 56,
              "position": 8,
              "duration": 0.3125
            },
            {
              "pitch": 59,
              "velocity": 55,
              "position": 8,
              "duration": 0.3125
            },
            {
              "pitch": 64,
              "velocity": 45,
              "position": 8,
              "duration": 0.3125
            },
            {
              "pitch": 55,
              "velocity": 54,
              "position": 9,
              "duration": 0.3125
            },
            {
              "pitch": 59,
              "velocity": 56,
              "position": 9,
              "duration": 0.3125
            },
            {
              "pitch": 64,
              "velocity": 46,
              "position": 9,
              "duration": 0.3125
            },
            {
              "pitch": 55,
              "velocity": 54,
              "position": 10.5,
              "duration": 0.3125
            },
            {
              "pitch": 59,
              "velocity": 52,
              "position": 10.5,
              "duration": 0.3125
            },
            {
              "pitch": 64,
              "velocity": 49,
              "position": 10.5,
              "duration": 0.3125
            },
            {
              "pitch": 55,
              "velocity": 51,
              "position": 12.5,
              "duration": 0.3125
            },
            {
              "pitch": 59,
              "velocity": 51,
              "position": 12.5,
              "duration": 0.3125
            },
            {
              "pitch": 64,
              "velocity": 47,
              "position": 12.5,
              "duration": 0.3125
            },
            {
              "pitch": 55,
              "velocity": 57,
              "position": 14,
              "duration": 0.3125
            },
            {
              "pitch": 59,
              "velocity": 58,
              "position": 14,
              "duration": 0.3125
            },
            {
              "pitch": 64,
              "velocity": 51,
              "position": 14,
              "duration": 0.3125
            },
            {
              "pitch": 55,
              "velocity": 51,
              "position": 15,
              "duration": 0.3125
            },
            {
              "pitch": 59,
              "velocity": 51,
              "position": 15,
              "duration": 0.3125
            },
            {
              "pitch": 64,
              "velocity": 45,
              "position": 15,
              "duration": 0.3125
            }
          ]
        },
        "12": {
          "ctab": {
            "srcChannel": 12,
            "name": "Piano",
            "accType": "CHORD2",
            "editable": false,
            "mutedNotes": [],
            "mutedChords": [],
            "autoStart": false,
            "sourceChordNote": 0,
            "sourceChordType": "Maj7",
            "ctb2Low": null,
            "ctb2Main": {
              "ntr": "ROOT_FIXED",
              "ntt": "CHORD",
              "bassOn": false,
              "chordRootUpperLimit": 6,
              "noteLowLimit": 0,
              "noteHighLimit": 127,
              "rtr": "PITCH_SHIFT"
            },
            "ctb2High": null
          },
          "notes": [
            {
              "pitch": 55,
              "velocity": 59,
              "position": 0,
              "duration": 2.4895833333333335
            },
            {
              "pitch": 59,
              "velocity": 52,
              "position": 0,
              "duration": 2.4895833333333335
            },
            {
              "pitch": 64,
              "velocity": 63,
              "position": 0,
              "duration": 2.4895833333333335
            },
            {
              "pitch": 64,
              "velocity": 61,
              "position": 2.5,
              "duration": 0.4479166666666667
            },
            {
              "pitch": 59,
              "velocity": 53,
              "position": 2.5,
              "duration": 0.4791666666666667
            },
            {
              "pitch": 55,
              "velocity": 56,
              "position": 2.5,
              "duration": 0.6145833333333334
            },
            {
              "pitch": 55,
              "velocity": 59,
              "position": 3.5,
              "duration": 4.489583333333333
            },
            {
              "pitch": 59,
              "velocity": 56,
              "position": 3.5,
              "duration": 4.489583333333333
            },
            {
              "pitch": 64,
              "velocity": 61,
              "position": 3.5,
              "duration": 4.489583333333333
            },
            {
              "pitch": 55,
              "velocity": 59,
              "position": 8,
              "duration": 2.4895833333333335
            },
            {
              "pitch": 59,
              "velocity": 52,
              "position": 8,
              "duration": 2.4895833333333335
            },
            {
              "pitch": 64,
              "velocity": 63,
              "position": 8,
              "duration": 2.4895833333333335
            },
            {
              "pitch": 64,
              "velocity": 61,
              "position": 10.5,
              "duration": 0.4479166666666667
            },
            {
              "pitch": 59,
              "velocity": 53,
              "position": 10.5,
              "duration": 0.4791666666666667
            },
            {
              "pitch": 55,
              "velocity": 56,
              "position": 10.5,
              "duration": 0.6145833333333334
            },
            {
              "pitch": 55,
              "velocity": 59,
              "position": 11.5,
              "duration": 1.9895833333333333
            },
            {
              "pitch": 59,
              "velocity": 56,
              "position": 11.5,
              "duration": 1.9895833333333333
            },
            {
              "pitch": 64,
              "velocity": 61,
              "position": 11.5,
              "duration": 1.9895833333333333
            },
            {
              "pitch": 55,
              "velocity": 59,
              "position": 13.5,
              "duration": 2.4895833333333335
            },
            {
              "pitch": 59,
              "velocity": 56,
              "position": 13.5,
              "duration": 2.4895833333333335
            },
            {
              "pitch": 64,
              "velocity": 61,
              "position": 13.5,
              "duration": 2.4895833333333335
            }
          ]
        },
        "13": {
          "ctab": {
            "srcChannel": 13,
            "name": "Strings",
            "accType": "PAD",
            "editable": false,
            "mutedNotes": [],
            "mutedChords": [],
            "autoStart": false,
            "sourceChordNote": 0,
            "sourceChordType": "Maj7",
            "ctb2Low": null,
            "ctb2Main": {
              "ntr": "ROOT_FIXED",
              "ntt": "CHORD",
              "bassOn": false,
              "chordRootUpperLimit": 6,
              "noteLowLimit": 0,
              "noteHighLimit": 127,
              "rtr": "PITCH_SHIFT"
            },
            "ctb2High": null
          },
          "notes": []
        }
      }
    },
    "Main_B": {
      "type": "Main_B",
      "sizeInBeats": 16,
      "channels": {
        "1": {
          "ctab": {
            "srcChannel": 1,
            "name": "CC_Crash",
            "accType": "RHYTHM",
            "editable": false,
            "mutedNotes": [],
            "mutedChords": [
              "1+2+5",
              "sus4",
              "1+5",
              "1+8",
              "7aug",
              "Maj7aug",
              "7(#9)",
              "7(b13)",
              "7(b9)",
              "7(13)",
              "7#11",
              "7(9)",
              "7b5",
              "7sus4",
              "7th",
              "dim7",
              "dim",
              "minMaj7(9)",
              "minMaj7",
              "min7(11)",
              "min7(9)",
              "min(9)",
              "m7b5",
              "min7",
              "min6",
              "min",
              "aug",
              "Maj6(9)",
              "Maj7(9)",
              "Maj(9)",
              "Maj7#11",
              "Maj7",
              "Maj6",
              "Maj"
            ],
            "autoStart": true,
            "sourceChordNote": 0,
            "sourceChordType": "Maj",
            "ctb2Low": null,
            "ctb2Main": {
              "ntr": "ROOT_FIXED",
              "ntt": "BYPASS",
              "bassOn": false,
              "chordRootUpperLimit": 0,
              "noteLowLimit": 0,
              "noteHighLimit": 127,
              "rtr": "RETRIGGER"
            },
            "ctb2High": null
          },
          "notes": []
        },
        "3": {
          "ctab": {
            "srcChannel": 3,
            "name": "NylRoot",
            "accType": "CHORD1",
            "editable": false,
            "mutedNotes": [],
            "mutedChords": [
              "1+2+5",
              "sus4",
              "1+5",
              "1+8",
              "Maj7aug",
              "dim",
              "minMaj7(9)",
              "minMaj7",
              "min6",
              "min",
              "aug",
              "Maj7(9)",
              "Maj7#11",
              "Maj7",
              "Maj6",
              "Maj"
            ],
            "autoStart": false,
            "sourceChordNote": 0,
            "sourceChordType": "Maj7",
            "ctb2Low": null,
            "ctb2Main": {
              "ntr": "ROOT_TRANSPOSITION",
              "ntt": "MELODY",
              "bassOn": false,
              "chordRootUpperLimit": 6,
              "noteLowLimit": 40,
              "noteHighLimit": 127,
              "rtr": "PITCH_SHIFT"
            },
            "ctb2High": null
          },
          "notes": [
            {
              "pitch": 60,
              "velocity": 63,
              "position": 0.010416666666666666,
              "duration": 1.4791666666666667
            },
            {
              "pitch": 60,
              "velocity": 51,
              "position": 1.5,
              "duration": 0.4166666666666667
            },
            {
              "pitch": 60,
              "velocity": 57,
              "position": 2.5104166666666665,
              "duration": 1.4791666666666667
            },
            {
              "pitch": 60,
              "velocity": 45,
              "position": 4.010416666666667,
              "duration": 0.5625
            },
            {
              "pitch": 60,
              "velocity": 57,
              "position": 5.510416666666667,
              "duration": 0.4791666666666667
            },
            {
              "pitch": 60,
              "velocity": 63,
              "position": 8.010416666666666,
              "duration": 1.4791666666666667
            },
            {
              "pitch": 60,
              "velocity": 51,
              "position": 9.5,
              "duration": 0.4166666666666667
            },
            {
              "pitch": 60,
              "velocity": 57,
              "position": 10.510416666666666,
              "duration": 1.4791666666666667
            },
            {
              "pitch": 60,
              "velocity": 45,
              "position": 12.010416666666666,
              "duration": 0.5625
            },
            {
              "pitch": 60,
              "velocity": 57,
              "position": 13.989583333333334,
              "duration": 1.9791666666666667
            }
          ]
        },
        "5": {
          "ctab": {
            "srcChannel": 5,
            "name": "StrRoot",
            "accType": "PAD",
            "editable": false,
            "mutedNotes": [],
            "mutedChords": [
              "1+2+5",
              "sus4",
              "1+5",
              "1+8",
              "Maj7aug",
              "dim",
              "minMaj7(9)",
              "minMaj7",
              "min6",
              "min",
              "aug",
              "Maj7(9)",
              "Maj7#11",
              "Maj7",
              "Maj6",
              "Maj"
            ],
            "autoStart": false,
            "sourceChordNote": 0,
            "sourceChordType": "Maj7",
            "ctb2Low": null,
            "ctb2Main": {
              "ntr": "ROOT_TRANSPOSITION",
              "ntt": "MELODY",
              "bassOn": false,
              "chordRootUpperLimit": 6,
              "noteLowLimit": 0,
              "noteHighLimit": 127,
              "rtr": "PITCH_SHIFT"
            },
            "ctb2High": null
          },
          "notes": [
            {
              "pitch": 60,
              "velocity": 40,
              "position": 0,
              "duration": 15.989583333333334
            }
          ]
        },
        "8": {
          "ctab": {
            "srcChannel": 8,
            "name": "CubanP",
            "accType": "SUBRHYTHM",
            "editable": false,
            "mutedNotes": [],
            "mutedChords": [],
            "autoStart": true,
            "sourceChordNote": 0,
            "sourceChordType": "Maj7",
            "ctb2Low": null,
            "ctb2Main": {
              "ntr": "ROOT_FIXED",
              "ntt": "BYPASS",
              "bassOn": false,
              "chordRootUpperLimit": 6,
              "noteLowLimit": 0,
              "noteHighLimit": 127,
              "rtr": "PITCH_SHIFT"
            },
            "ctb2High": null
          },
          "notes": [
            {
              "pitch": 73,
              "velocity": 27,
              "position": 0,
              "duration": 0.17708333333333334
            },
            {
              "pitch": 73,
              "velocity": 30,
              "position": 0.5,
              "duration": 0.13541666666666666
            },
            {
              "pitch": 27,
              "velocity": 64,
              "position": 1,
              "duration": 0.010416666666666666
            },
            {
              "pitch": 73,
              "velocity": 96,
              "position": 1,
              "duration": 0.1875
            },
            {
              "pitch": 25,
              "velocity": 36,
              "position": 1.4895833333333333,
              "duration": 0.010416666666666666
            },
            {
              "pitch": 73,
              "velocity": 29,
              "position": 1.4895833333333333,
              "duration": 0.19791666666666666
            },
            {
              "pitch": 23,
              "velocity": 36,
              "position": 2,
              "duration": 0.010416666666666666
            },
            {
              "pitch": 73,
              "velocity": 25,
              "position": 1.9895833333333333,
              "duration": 0.20833333333333334
            },
            {
              "pitch": 25,
              "velocity": 126,
              "position": 2.4895833333333335,
              "duration": 0.010416666666666666
            },
            {
              "pitch": 73,
              "velocity": 29,
              "position": 2.5,
              "duration": 0.16666666666666666
            },
            {
              "pitch": 24,
              "velocity": 50,
              "position": 3,
              "duration": 0.010416666666666666
            },
            {
              "pitch": 73,
              "velocity": 89,
              "position": 2.9895833333333335,
              "duration": 0.1875
            },
            {
              "pitch": 23,
              "velocity": 52,
              "position": 3.4895833333333335,
              "duration": 0.010416666666666666
            },
            {
              "pitch": 73,
              "velocity": 27,
              "position": 3.4895833333333335,
              "duration": 0.21875
            },
            {
              "pitch": 73,
              "velocity": 27,
              "position": 3.9895833333333335,
              "duration": 0.1875
            },
            {
              "pitch": 27,
              "velocity": 57,
              "position": 4.489583333333333,
              "duration": 0.010416666666666666
            },
            {
              "pitch": 73,
              "velocity": 36,
              "position": 4.489583333333333,
              "duration": 0.17708333333333334
            },
            {
              "pitch": 73,
              "velocity": 87,
              "position": 5,
              "duration": 0.25
            },
            {
              "pitch": 23,
              "velocity": 57,
              "position": 5.489583333333333,
              "duration": 0.010416666666666666
            },
            {
              "pitch": 73,
              "velocity": 27,
              "position": 5.489583333333333,
              "duration": 0.2708333333333333
            },
            {
              "pitch": 25,
              "velocity": 106,
              "position": 5.989583333333333,
              "duration": 0.010416666666666666
            },
            {
              "pitch": 73,
              "velocity": 30,
              "position": 5.989583333333333,
              "duration": 0.19791666666666666
            },
            {
              "pitch": 73,
              "velocity": 33,
              "position": 6.5,
              "duration": 0.15625
            },
            {
              "pitch": 25,
              "velocity": 93,
              "position": 7,
              "duration": 0.010416666666666666
            },
            {
              "pitch": 73,
              "velocity": 90,
              "position": 7,
              "duration": 0.1875
            },
            {
              "pitch": 73,
              "velocity": 22,
              "position": 7.489583333333333,
              "duration": 0.19791666666666666
            },
            {
              "pitch": 73,
              "velocity": 27,
              "position": 8,
              "duration": 0.17708333333333334
            },
            {
              "pitch": 73,
              "velocity": 30,
              "position": 8.5,
              "duration": 0.13541666666666666
            },
            {
              "pitch": 27,
              "velocity": 64,
              "position": 9,
              "duration": 0.010416666666666666
            },
            {
              "pitch": 73,
              "velocity": 96,
              "position": 9,
              "duration": 0.1875
            },
            {
              "pitch": 25,
              "velocity": 36,
              "position": 9.489583333333334,
              "duration": 0.010416666666666666
            },
            {
              "pitch": 73,
              "velocity": 29,
              "position": 9.489583333333334,
              "duration": 0.19791666666666666
            },
            {
              "pitch": 23,
              "velocity": 36,
              "position": 10,
              "duration": 0.010416666666666666
            },
            {
              "pitch": 73,
              "velocity": 25,
              "position": 9.989583333333334,
              "duration": 0.20833333333333334
            },
            {
              "pitch": 25,
              "velocity": 126,
              "position": 10.489583333333334,
              "duration": 0.010416666666666666
            },
            {
              "pitch": 73,
              "velocity": 29,
              "position": 10.5,
              "duration": 0.16666666666666666
            },
            {
              "pitch": 24,
              "velocity": 50,
              "position": 11,
              "duration": 0.010416666666666666
            },
            {
              "pitch": 73,
              "velocity": 89,
              "position": 10.989583333333334,
              "duration": 0.1875
            },
            {
              "pitch": 23,
              "velocity": 52,
              "position": 11.489583333333334,
              "duration": 0.010416666666666666
            },
            {
              "pitch": 73,
              "velocity": 27,
              "position": 11.489583333333334,
              "duration": 0.21875
            },
            {
              "pitch": 73,
              "velocity": 27,
              "position": 11.989583333333334,
              "duration": 0.1875
            },
            {
              "pitch": 27,
              "velocity": 57,
              "position": 12.489583333333334,
              "duration": 0.010416666666666666
            },
            {
              "pitch": 73,
              "velocity": 36,
              "position": 12.489583333333334,
              "duration": 0.17708333333333334
            },
            {
              "pitch": 73,
              "velocity": 87,
              "position": 13,
              "duration": 0.25
            },
            {
              "pitch": 23,
              "velocity": 57,
              "position": 13.489583333333334,
              "duration": 0.010416666666666666
            },
            {
              "pitch": 73,
              "velocity": 27,
              "position": 13.489583333333334,
              "duration": 0.2708333333333333
            },
            {
              "pitch": 25,
              "velocity": 106,
              "position": 13.989583333333334,
              "duration": 0.010416666666666666
            },
            {
              "pitch": 73,
              "velocity": 30,
              "position": 13.989583333333334,
              "duration": 0.19791666666666666
            },
            {
              "pitch": 73,
              "velocity": 33,
              "position": 14.5,
              "duration": 0.15625
            },
            {
              "pitch": 25,
              "velocity": 93,
              "position": 15,
              "duration": 0.010416666666666666
            },
            {
              "pitch": 73,
              "velocity": 90,
              "position": 15,
              "duration": 0.1875
            },
            {
              "pitch": 73,
              "velocity": 22,
              "position": 15.489583333333334,
              "duration": 0.19791666666666666
            }
          ]
        },
        "9": {
          "ctab": {
            "srcChannel": 9,
            "name": "Drums",
            "accType": "RHYTHM",
            "editable": false,
            "mutedNotes": [],
            "mutedChords": [],
            "autoStart": true,
            "sourceChordNote": 0,
            "sourceChordType": "Maj7",
            "ctb2Low": null,
            "ctb2Main": {
              "ntr": "ROOT_FIXED",
              "ntt": "BYPASS",
              "bassOn": false,
              "chordRootUpperLimit": 6,
              "noteLowLimit": 0,
              "noteHighLimit": 127,
              "rtr": "PITCH_SHIFT"
            },
            "ctb2High": null
          },
          "notes": [
            {
              "pitch": 33,
              "velocity": 80,
              "position": 0,
              "duration": 0.010416666666666666
            },
            {
              "pitch": 37,
              "velocity": 77,
              "position": 0,
              "duration": 0.010416666666666666
            },
            {
              "pitch": 42,
              "velocity": 58,
              "position": 0,
              "duration": 0.010416666666666666
            },
            {
              "pitch": 42,
              "velocity": 52,
              "position": 0.5,
              "duration": 0.010416666666666666
            },
            {
              "pitch": 42,
              "velocity": 53,
              "position": 1,
              "duration": 0.010416666666666666
            },
            {
              "pitch": 33,
              "velocity": 64,
              "position": 1.5,
              "duration": 0.010416666666666666
            },
            {
              "pitch": 37,
              "velocity": 77,
              "position": 1.5,
              "duration": 0.010416666666666666
            },
            {
              "pitch": 42,
              "velocity": 56,
              "position": 1.5,
              "duration": 0.010416666666666666
            },
            {
              "pitch": 33,
              "velocity": 80,
              "position": 2,
              "duration": 0.010416666666666666
            },
            {
              "pitch": 42,
              "velocity": 57,
              "position": 2,
              "duration": 0.010416666666666666
            },
            {
              "pitch": 42,
              "velocity": 51,
              "position": 2.5,
              "duration": 0.010416666666666666
            },
            {
              "pitch": 37,
              "velocity": 77,
              "position": 3,
              "duration": 0.010416666666666666
            },
            {
              "pitch": 42,
              "velocity": 55,
              "position": 3,
              "duration": 0.010416666666666666
            },
            {
              "pitch": 42,
              "velocity": 48,
              "position": 3.5,
              "duration": 0.010416666666666666
            },
            {
              "pitch": 33,
              "velocity": 80,
              "position": 4,
              "duration": 0.010416666666666666
            },
            {
              "pitch": 42,
              "velocity": 52,
              "position": 4,
              "duration": 0.010416666666666666
            },
            {
              "pitch": 42,
              "velocity": 54,
              "position": 4.5,
              "duration": 0.010416666666666666
            },
            {
              "pitch": 37,
              "velocity": 77,
              "position": 5,
              "duration": 0.010416666666666666
            },
            {
              "pitch": 42,
              "velocity": 52,
              "position": 5,
              "duration": 0.010416666666666666
            },
            {
              "pitch": 33,
              "velocity": 64,
              "position": 5.5,
              "duration": 0.010416666666666666
            },
            {
              "pitch": 42,
              "velocity": 56,
              "position": 5.5,
              "duration": 0.010416666666666666
            },
            {
              "pitch": 33,
              "velocity": 80,
              "position": 6,
              "duration": 0.010416666666666666
            },
            {
              "pitch": 42,
              "velocity": 48,
              "position": 6,
              "duration": 0.010416666666666666
            },
            {
              "pitch": 37,
              "velocity": 77,
              "position": 6.5,
              "duration": 0.010416666666666666
            },
            {
              "pitch": 42,
              "velocity": 58,
              "position": 6.5,
              "duration": 0.010416666666666666
            },
            {
              "pitch": 42,
              "velocity": 48,
              "position": 7,
              "duration": 0.010416666666666666
            },
            {
              "pitch": 42,
              "velocity": 47,
              "position": 7.5,
              "duration": 0.010416666666666666
            },
            {
              "pitch": 33,
              "velocity": 80,
              "position": 8,
              "duration": 0.010416666666666666
            },
            {
              "pitch": 37,
              "velocity": 77,
              "position": 8,
              "duration": 0.010416666666666666
            },
            {
              "pitch": 42,
              "velocity": 58,
              "position": 8,
              "duration": 0.010416666666666666
            },
            {
              "pitch": 42,
              "velocity": 52,
              "position": 8.5,
              "duration": 0.010416666666666666
            },
            {
              "pitch": 42,
              "velocity": 53,
              "position": 9,
              "duration": 0.010416666666666666
            },
            {
              "pitch": 33,
              "velocity": 64,
              "position": 9.5,
              "duration": 0.010416666666666666
            },
            {
              "pitch": 37,
              "velocity": 77,
              "position": 9.5,
              "duration": 0.010416666666666666
            },
            {
              "pitch": 42,
              "velocity": 56,
              "position": 9.5,
              "duration": 0.010416666666666666
            },
            {
              "pitch": 33,
              "velocity": 80,
              "position": 10,
              "duration": 0.010416666666666666
            },
            {
              "pitch": 42,
              "velocity": 57,
              "position": 10,
              "duration": 0.010416666666666666
            },
            {
              "pitch": 42,
              "velocity": 51,
              "position": 10.5,
              "duration": 0.010416666666666666
            },
            {
              "pitch": 37,
              "velocity": 77,
              "position": 11,
              "duration": 0.010416666666666666
            },
            {
              "pitch": 42,
              "velocity": 55,
              "position": 11,
              "duration": 0.010416666666666666
            },
            {
              "pitch": 42,
              "velocity": 48,
              "position": 11.5,
              "duration": 0.010416666666666666
            },
            {
              "pitch": 33,
              "velocity": 80,
              "position": 12,
              "duration": 0.010416666666666666
            },
            {
              "pitch": 42,
              "velocity": 52,
              "position": 12,
              "duration": 0.010416666666666666
            },
            {
              "pitch": 42,
              "velocity": 54,
              "position": 12.5,
              "duration": 0.010416666666666666
            },
            {
              "pitch": 37,
              "velocity": 77,
              "position": 13,
              "duration": 0.010416666666666666
            },
            {
              "pitch": 42,
              "velocity": 52,
              "position": 13,
              "duration": 0.010416666666666666
            },
            {
              "pitch": 33,
              "velocity": 64,
              "position": 13.5,
              "duration": 0.010416666666666666
            },
            {
              "pitch": 42,
              "velocity": 56,
              "position": 13.5,
              "duration": 0.010416666666666666
            },
            {
              "pitch": 33,
              "velocity": 80,
              "position": 14,
              "duration": 0.010416666666666666
            },
            {
              "pitch": 42,
              "velocity": 48,
              "position": 14,
              "duration": 0.010416666666666666
            },
            {
              "pitch": 37,
              "velocity": 77,
              "position": 14.5,
              "duration": 0.010416666666666666
            },
            {
              "pitch": 42,
              "velocity": 58,
              "position": 14.5,
              "duration": 0.010416666666666666
            },
            {
              "pitch": 42,
              "velocity": 48,
              "position": 15,
              "duration": 0.010416666666666666
            },
            {
              "pitch": 42,
              "velocity": 47,
              "position": 15.5,
              "duration": 0.010416666666666666
            }
          ]
        },
        "10": {
          "ctab": {
            "srcChannel": 10,
            "name": "Bass",
            "accType": "BASS",
            "editable": false,
            "mutedNotes": [],
            "mutedChords": [],
            "autoStart": false,
            "sourceChordNote": 0,
            "sourceChordType": "Maj7",
            "ctb2Low": null,
            "ctb2Main": {
              "ntr": "ROOT_TRANSPOSITION",
              "ntt": "MELODY",
              "bassOn": true,
              "chordRootUpperLimit": 3,
              "noteLowLimit": 28,
              "noteHighLimit": 127,
              "rtr": "PITCH_SHIFT_TO_ROOT"
            },
            "ctb2High": null
          },
          "notes": [
            {
              "pitch": 24,
              "velocity": 89,
              "position": 0,
              "duration": 1.2395833333333333
            },
            {
              "pitch": 24,
              "velocity": 65,
              "position": 1.5,
              "duration": 0.4895833333333333
            },
            {
              "pitch": 31,
              "velocity": 83,
              "position": 2,
              "duration": 1.2395833333333333
            },
            {
              "pitch": 31,
              "velocity": 65,
              "position": 3.5,
              "duration": 0.4895833333333333
            },
            {
              "pitch": 24,
              "velocity": 89,
              "position": 4,
              "duration": 1.2395833333333333
            },
            {
              "pitch": 24,
              "velocity": 65,
              "position": 5.5,
              "duration": 0.4895833333333333
            },
            {
              "pitch": 31,
              "velocity": 83,
              "position": 6,
              "duration": 1.2395833333333333
            },
            {
              "pitch": 31,
              "velocity": 65,
              "position": 7.5,
              "duration": 0.4895833333333333
            },
            {
              "pitch": 24,
              "velocity": 89,
              "position": 8,
              "duration": 1.2395833333333333
            },
            {
              "pitch": 24,
              "velocity": 65,
              "position": 9.5,
              "duration": 0.4895833333333333
            },
            {
              "pitch": 31,
              "velocity": 83,
              "position": 10,
              "duration": 1.2395833333333333
            },
            {
              "pitch": 31,
              "velocity": 65,
              "position": 11.5,
              "duration": 0.4895833333333333
            },
            {
              "pitch": 24,
              "velocity": 89,
              "position": 12,
              "duration": 1.2395833333333333
            },
            {
              "pitch": 24,
              "velocity": 65,
              "position": 13.5,
              "duration": 0.4895833333333333
            },
            {
              "pitch": 31,
              "velocity": 83,
              "position": 14,
              "duration": 1.2395833333333333
            },
            {
              "pitch": 31,
              "velocity": 65,
              "position": 15.5,
              "duration": 0.4895833333333333
            }
          ]
        },
        "11": {
          "ctab": {
            "srcChannel": 11,
            "name": "NylonGtr",
            "accType": "CHORD1",
            "editable": false,
            "mutedNotes": [],
            "mutedChords": [],
            "autoStart": false,
            "sourceChordNote": 0,
            "sourceChordType": "Maj7",
            "ctb2Low": null,
            "ctb2Main": {
              "ntr": "ROOT_FIXED",
              "ntt": "CHORD",
              "bassOn": false,
              "chordRootUpperLimit": 6,
              "noteLowLimit": 0,
              "noteHighLimit": 127,
              "rtr": "PITCH_SHIFT"
            },
            "ctb2High": null
          },
          "notes": [
            {
              "pitch": 64,
              "velocity": 66,
              "position": 0,
              "duration": 1.4895833333333333
            },
            {
              "pitch": 55,
              "velocity": 65,
              "position": 0.010416666666666666,
              "duration": 1.4791666666666667
            },
            {
              "pitch": 59,
              "velocity": 62,
              "position": 0.010416666666666666,
              "duration": 1.4791666666666667
            },
            {
              "pitch": 59,
              "velocity": 51,
              "position": 1.5,
              "duration": 0.4166666666666667
            },
            {
              "pitch": 64,
              "velocity": 55,
              "position": 1.5,
              "duration": 0.4270833333333333
            },
            {
              "pitch": 55,
              "velocity": 59,
              "position": 1.5,
              "duration": 0.4375
            },
            {
              "pitch": 64,
              "velocity": 60,
              "position": 2.5,
              "duration": 1.4895833333333333
            },
            {
              "pitch": 55,
              "velocity": 59,
              "position": 2.5104166666666665,
              "duration": 1.4791666666666667
            },
            {
              "pitch": 59,
              "velocity": 56,
              "position": 2.5104166666666665,
              "duration": 1.4791666666666667
            },
            {
              "pitch": 55,
              "velocity": 58,
              "position": 4.010416666666667,
              "duration": 0.4479166666666667
            },
            {
              "pitch": 64,
              "velocity": 61,
              "position": 4,
              "duration": 0.5
            },
            {
              "pitch": 59,
              "velocity": 44,
              "position": 4.010416666666667,
              "duration": 0.5625
            },
            {
              "pitch": 64,
              "velocity": 60,
              "position": 5.5,
              "duration": 0.4895833333333333
            },
            {
              "pitch": 55,
              "velocity": 59,
              "position": 5.510416666666667,
              "duration": 0.4791666666666667
            },
            {
              "pitch": 59,
              "velocity": 56,
              "position": 5.510416666666667,
              "duration": 0.4791666666666667
            },
            {
              "pitch": 64,
              "velocity": 66,
              "position": 8,
              "duration": 1.4895833333333333
            },
            {
              "pitch": 55,
              "velocity": 65,
              "position": 8.010416666666666,
              "duration": 1.4791666666666667
            },
            {
              "pitch": 59,
              "velocity": 62,
              "position": 8.010416666666666,
              "duration": 1.4791666666666667
            },
            {
              "pitch": 59,
              "velocity": 51,
              "position": 9.5,
              "duration": 0.4166666666666667
            },
            {
              "pitch": 64,
              "velocity": 55,
              "position": 9.5,
              "duration": 0.4270833333333333
            },
            {
              "pitch": 55,
              "velocity": 59,
              "position": 9.5,
              "duration": 0.4375
            },
            {
              "pitch": 64,
              "velocity": 60,
              "position": 10.5,
              "duration": 1.4895833333333333
            },
            {
              "pitch": 55,
              "velocity": 59,
              "position": 10.510416666666666,
              "duration": 1.4791666666666667
            },
            {
              "pitch": 59,
              "velocity": 56,
              "position": 10.510416666666666,
              "duration": 1.4791666666666667
            },
            {
              "pitch": 55,
              "velocity": 58,
              "position": 12.010416666666666,
              "duration": 0.4479166666666667
            },
            {
              "pitch": 64,
              "velocity": 61,
              "position": 12,
              "duration": 0.5
            },
            {
              "pitch": 59,
              "velocity": 44,
              "position": 12.010416666666666,
              "duration": 0.5625
            },
            {
              "pitch": 55,
              "velocity": 59,
              "position": 13.96875,
              "duration": 1.9791666666666667
            },
            {
              "pitch": 59,
              "velocity": 56,
              "position": 13.989583333333334,
              "duration": 1.9791666666666667
            },
            {
              "pitch": 64,
              "velocity": 60,
              "position": 14,
              "duration": 1.9895833333333333
            }
          ]
        },
        "12": {
          "ctab": {
            "srcChannel": 12,
            "name": "Piano",
            "accType": "CHORD2",
            "editable": false,
            "mutedNotes": [],
            "mutedChords": [],
            "autoStart": false,
            "sourceChordNote": 0,
            "sourceChordType": "Maj7",
            "ctb2Low": null,
            "ctb2Main": {
              "ntr": "ROOT_FIXED",
              "ntt": "CHORD",
              "bassOn": false,
              "chordRootUpperLimit": 6,
              "noteLowLimit": 0,
              "noteHighLimit": 127,
              "rtr": "PITCH_SHIFT"
            },
            "ctb2High": null
          },
          "notes": [
            {
              "pitch": 55,
              "velocity": 60,
              "position": 0,
              "duration": 1.28125
            },
            {
              "pitch": 64,
              "velocity": 64,
              "position": 0,
              "duration": 1.2916666666666667
            },
            {
              "pitch": 59,
              "velocity": 54,
              "position": 0,
              "duration": 1.3020833333333333
            },
            {
              "pitch": 59,
              "velocity": 63,
              "position": 1.5,
              "duration": 0.4270833333333333
            },
            {
              "pitch": 55,
              "velocity": 60,
              "position": 1.5,
              "duration": 0.4375
            },
            {
              "pitch": 64,
              "velocity": 64,
              "position": 1.5,
              "duration": 0.5
            },
            {
              "pitch": 55,
              "velocity": 57,
              "position": 2.5,
              "duration": 0.8645833333333334
            },
            {
              "pitch": 64,
              "velocity": 63,
              "position": 2.5,
              "duration": 1.1979166666666667
            },
            {
              "pitch": 59,
              "velocity": 56,
              "position": 2.5,
              "duration": 1.2291666666666667
            },
            {
              "pitch": 55,
              "velocity": 45,
              "position": 3.5,
              "duration": 0.3541666666666667
            },
            {
              "pitch": 55,
              "velocity": 61,
              "position": 4,
              "duration": 1.2395833333333333
            },
            {
              "pitch": 59,
              "velocity": 57,
              "position": 4,
              "duration": 1.2395833333333333
            },
            {
              "pitch": 64,
              "velocity": 63,
              "position": 4,
              "duration": 1.2395833333333333
            },
            {
              "pitch": 55,
              "velocity": 57,
              "position": 5.5,
              "duration": 2.4895833333333335
            },
            {
              "pitch": 59,
              "velocity": 58,
              "position": 5.5,
              "duration": 2.4895833333333335
            },
            {
              "pitch": 64,
              "velocity": 64,
              "position": 5.5,
              "duration": 2.4895833333333335
            },
            {
              "pitch": 55,
              "velocity": 60,
              "position": 8,
              "duration": 1.28125
            },
            {
              "pitch": 64,
              "velocity": 64,
              "position": 8,
              "duration": 1.2916666666666667
            },
            {
              "pitch": 59,
              "velocity": 54,
              "position": 8,
              "duration": 1.3020833333333333
            },
            {
              "pitch": 59,
              "velocity": 63,
              "position": 9.5,
              "duration": 0.4270833333333333
            },
            {
              "pitch": 55,
              "velocity": 60,
              "position": 9.5,
              "duration": 0.4375
            },
            {
              "pitch": 64,
              "velocity": 64,
              "position": 9.5,
              "duration": 0.5
            },
            {
              "pitch": 55,
              "velocity": 57,
              "position": 10.5,
              "duration": 0.8645833333333334
            },
            {
              "pitch": 64,
              "velocity": 63,
              "position": 10.5,
              "duration": 1.1979166666666667
            },
            {
              "pitch": 59,
              "velocity": 56,
              "position": 10.5,
              "duration": 1.2291666666666667
            },
            {
              "pitch": 55,
              "velocity": 45,
              "position": 11.5,
              "duration": 0.3541666666666667
            },
            {
              "pitch": 55,
              "velocity": 61,
              "position": 12,
              "duration": 1.9895833333333333
            },
            {
              "pitch": 59,
              "velocity": 57,
              "position": 12,
              "duration": 1.9895833333333333
            },
            {
              "pitch": 64,
              "velocity": 63,
              "position": 12,
              "duration": 1.9895833333333333
            },
            {
              "pitch": 55,
              "velocity": 57,
              "position": 14,
              "duration": 1.9895833333333333
            },
            {
              "pitch": 59,
              "velocity": 58,
              "position": 14,
              "duration": 1.9895833333333333
            },
            {
              "pitch": 64,
              "velocity": 64,
              "position": 14,
              "duration": 1.9895833333333333
            }
          ]
        },
        "13": {
          "ctab": {
            "srcChannel": 13,
            "name": "Strings",
            "accType": "PAD",
            "editable": false,
            "mutedNotes": [],
            "mutedChords": [],
            "autoStart": false,
            "sourceChordNote": 0,
            "sourceChordType": "Maj7",
            "ctb2Low": null,
            "ctb2Main": {
              "ntr": "ROOT_FIXED",
              "ntt": "CHORD",
              "bassOn": false,
              "chordRootUpperLimit": 6,
              "noteLowLimit": 0,
              "noteHighLimit": 127,
              "rtr": "PITCH_SHIFT"
            },
            "ctb2High": null
          },
          "notes": [
            {
              "pitch": 55,
              "velocity": 40,
              "position": 0,
              "duration": 15.989583333333334
            },
            {
              "pitch": 59,
              "velocity": 40,
              "position": 0,
              "duration": 15.989583333333334
            },
            {
              "pitch": 64,
              "velocity": 40,
              "position": 0,
              "duration": 15.989583333333334
            }
          ]
        }
      }
    },
    "Main_C": {
      "type": "Main_C",
      "sizeInBeats": 16,
      "channels": {
        "1": {
          "ctab": {
            "srcChannel": 1,
            "name": "CC_Crash",
            "accType": "RHYTHM",
            "editable": false,
            "mutedNotes": [],
            "mutedChords": [
              "1+2+5",
              "sus4",
              "1+5",
              "1+8",
              "7aug",
              "Maj7aug",
              "7(#9)",
              "7(b13)",
              "7(b9)",
              "7(13)",
              "7#11",
              "7(9)",
              "7b5",
              "7sus4",
              "7th",
              "dim7",
              "dim",
              "minMaj7(9)",
              "minMaj7",
              "min7(11)",
              "min7(9)",
              "min(9)",
              "m7b5",
              "min7",
              "min6",
              "min",
              "aug",
              "Maj6(9)",
              "Maj7(9)",
              "Maj(9)",
              "Maj7#11",
              "Maj7",
              "Maj6",
              "Maj"
            ],
            "autoStart": true,
            "sourceChordNote": 0,
            "sourceChordType": "Maj",
            "ctb2Low": null,
            "ctb2Main": {
              "ntr": "ROOT_FIXED",
              "ntt": "BYPASS",
              "bassOn": false,
              "chordRootUpperLimit": 0,
              "noteLowLimit": 0,
              "noteHighLimit": 127,
              "rtr": "RETRIGGER"
            },
            "ctb2High": null
          },
          "notes": []
        },
        "3": {
          "ctab": {
            "srcChannel": 3,
            "name": "NylRoot",
            "accType": "CHORD1",
            "editable": false,
            "mutedNotes": [],
            "mutedChords": [
              "1+2+5",
              "sus4",
              "1+5",
              "1+8",
              "Maj7aug",
              "dim",
              "minMaj7(9)",
              "minMaj7",
              "min6",
              "min",
              "aug",
              "Maj7(9)",
              "Maj7#11",
              "Maj7",
              "Maj6",
              "Maj"
            ],
            "autoStart": false,
            "sourceChordNote": 0,
            "sourceChordType": "Maj7",
            "ctb2Low": null,
            "ctb2Main": {
              "ntr": "ROOT_TRANSPOSITION",
              "ntt": "MELODY",
              "bassOn": false,
              "chordRootUpperLimit": 6,
              "noteLowLimit": 40,
              "noteHighLimit": 127,
              "rtr": "PITCH_SHIFT"
            },
            "ctb2High": null
          },
          "notes": [
            {
              "pitch": 60,
              "velocity": 63,
              "position": 4.5,
              "duration": 2.4895833333333335
            },
            {
              "pitch": 60,
              "velocity": 57,
              "position": 7,
              "duration": 0.46875
            },
            {
              "pitch": 60,
              "velocity": 56,
              "position": 12.479166666666666,
              "duration": 1.4895833333333333
            },
            {
              "pitch": 60,
              "velocity": 52,
              "position": 13.989583333333334,
              "duration": 0.28125
            },
            {
              "pitch": 60,
              "velocity": 49,
              "position": 14.989583333333334,
              "duration": 0.375
            }
          ]
        },
        "5": {
          "ctab": {
            "srcChannel": 5,
            "name": "StrRoot",
            "accType": "PAD",
            "editable": false,
            "mutedNotes": [],
            "mutedChords": [
              "1+2+5",
              "sus4",
              "1+5",
              "1+8",
              "Maj7aug",
              "dim",
              "minMaj7(9)",
              "minMaj7",
              "min6",
              "min",
              "aug",
              "Maj7(9)",
              "Maj7#11",
              "Maj7",
              "Maj6",
              "Maj"
            ],
            "autoStart": false,
            "sourceChordNote": 0,
            "sourceChordType": "Maj7",
            "ctb2Low": null,
            "ctb2Main": {
              "ntr": "ROOT_TRANSPOSITION",
              "ntt": "MELODY",
              "bassOn": false,
              "chordRootUpperLimit": 6,
              "noteLowLimit": 0,
              "noteHighLimit": 127,
              "rtr": "PITCH_SHIFT"
            },
            "ctb2High": null
          },
          "notes": [
            {
              "pitch": 60,
              "velocity": 40,
              "position": 0,
              "duration": 15.989583333333334
            }
          ]
        },
        "8": {
          "ctab": {
            "srcChannel": 8,
            "name": "CubanP",
            "accType": "SUBRHYTHM",
            "editable": false,
            "mutedNotes": [],
            "mutedChords": [],
            "autoStart": true,
            "sourceChordNote": 0,
            "sourceChordType": "Maj7",
            "ctb2Low": null,
            "ctb2Main": {
              "ntr": "ROOT_FIXED",
              "ntt": "BYPASS",
              "bassOn": false,
              "chordRootUpperLimit": 6,
              "noteLowLimit": 0,
              "noteHighLimit": 127,
              "rtr": "PITCH_SHIFT"
            },
            "ctb2High": null
          },
          "notes": [
            {
              "pitch": 31,
              "velocity": 79,
              "position": 0,
              "duration": 0.010416666666666666
            },
            {
              "pitch": 73,
              "velocity": 34,
              "position": 0,
              "duration": 0.16666666666666666
            },
            {
              "pitch": 73,
              "velocity": 27,
              "position": 0.4895833333333333,
              "duration": 0.125
            },
            {
              "pitch": 31,
              "velocity": 72,
              "position": 1,
              "duration": 0.010416666666666666
            },
            {
              "pitch": 73,
              "velocity": 93,
              "position": 0.9895833333333334,
              "duration": 0.1875
            },
            {
              "pitch": 29,
              "velocity": 27,
              "position": 1.4895833333333333,
              "duration": 0.010416666666666666
            },
            {
              "pitch": 73,
              "velocity": 36,
              "position": 1.5,
              "duration": 0.19791666666666666
            },
            {
              "pitch": 25,
              "velocity": 57,
              "position": 1.9895833333333333,
              "duration": 0.010416666666666666
            },
            {
              "pitch": 73,
              "velocity": 38,
              "position": 2,
              "duration": 0.20833333333333334
            },
            {
              "pitch": 30,
              "velocity": 123,
              "position": 2.5,
              "duration": 0.010416666666666666
            },
            {
              "pitch": 73,
              "velocity": 32,
              "position": 2.5,
              "duration": 0.16666666666666666
            },
            {
              "pitch": 31,
              "velocity": 30,
              "position": 3,
              "duration": 0.010416666666666666
            },
            {
              "pitch": 73,
              "velocity": 91,
              "position": 3,
              "duration": 0.1875
            },
            {
              "pitch": 31,
              "velocity": 115,
              "position": 3.4895833333333335,
              "duration": 0.010416666666666666
            },
            {
              "pitch": 73,
              "velocity": 27,
              "position": 3.5,
              "duration": 0.21875
            },
            {
              "pitch": 73,
              "velocity": 33,
              "position": 3.9895833333333335,
              "duration": 0.19791666666666666
            },
            {
              "pitch": 31,
              "velocity": 79,
              "position": 4.489583333333333,
              "duration": 0.010416666666666666
            },
            {
              "pitch": 73,
              "velocity": 33,
              "position": 4.5,
              "duration": 0.1875
            },
            {
              "pitch": 29,
              "velocity": 31,
              "position": 5,
              "duration": 0.010416666666666666
            },
            {
              "pitch": 73,
              "velocity": 84,
              "position": 4.989583333333333,
              "duration": 0.25
            },
            {
              "pitch": 25,
              "velocity": 41,
              "position": 5.5,
              "duration": 0.010416666666666666
            },
            {
              "pitch": 73,
              "velocity": 34,
              "position": 5.489583333333333,
              "duration": 0.2708333333333333
            },
            {
              "pitch": 35,
              "velocity": 106,
              "position": 6,
              "duration": 0.010416666666666666
            },
            {
              "pitch": 73,
              "velocity": 42,
              "position": 6,
              "duration": 0.1875
            },
            {
              "pitch": 73,
              "velocity": 36,
              "position": 6.5,
              "duration": 0.15625
            },
            {
              "pitch": 30,
              "velocity": 106,
              "position": 6.989583333333333,
              "duration": 0.010416666666666666
            },
            {
              "pitch": 73,
              "velocity": 102,
              "position": 7,
              "duration": 0.1875
            },
            {
              "pitch": 25,
              "velocity": 52,
              "position": 7.5,
              "duration": 0.010416666666666666
            },
            {
              "pitch": 73,
              "velocity": 34,
              "position": 7.5,
              "duration": 0.19791666666666666
            },
            {
              "pitch": 31,
              "velocity": 79,
              "position": 8,
              "duration": 0.010416666666666666
            },
            {
              "pitch": 73,
              "velocity": 34,
              "position": 8,
              "duration": 0.16666666666666666
            },
            {
              "pitch": 73,
              "velocity": 27,
              "position": 8.489583333333334,
              "duration": 0.125
            },
            {
              "pitch": 31,
              "velocity": 72,
              "position": 9,
              "duration": 0.010416666666666666
            },
            {
              "pitch": 73,
              "velocity": 93,
              "position": 8.989583333333334,
              "duration": 0.1875
            },
            {
              "pitch": 29,
              "velocity": 27,
              "position": 9.489583333333334,
              "duration": 0.010416666666666666
            },
            {
              "pitch": 73,
              "velocity": 36,
              "position": 9.5,
              "duration": 0.19791666666666666
            },
            {
              "pitch": 25,
              "velocity": 57,
              "position": 9.989583333333334,
              "duration": 0.010416666666666666
            },
            {
              "pitch": 73,
              "velocity": 38,
              "position": 10,
              "duration": 0.20833333333333334
            },
            {
              "pitch": 30,
              "velocity": 123,
              "position": 10.5,
              "duration": 0.010416666666666666
            },
            {
              "pitch": 73,
              "velocity": 32,
              "position": 10.5,
              "duration": 0.16666666666666666
            },
            {
              "pitch": 31,
              "velocity": 30,
              "position": 11,
              "duration": 0.010416666666666666
            },
            {
              "pitch": 73,
              "velocity": 91,
              "position": 11,
              "duration": 0.1875
            },
            {
              "pitch": 31,
              "velocity": 115,
              "position": 11.489583333333334,
              "duration": 0.010416666666666666
            },
            {
              "pitch": 73,
              "velocity": 27,
              "position": 11.5,
              "duration": 0.21875
            },
            {
              "pitch": 73,
              "velocity": 33,
              "position": 11.989583333333334,
              "duration": 0.19791666666666666
            },
            {
              "pitch": 31,
              "velocity": 79,
              "position": 12.489583333333334,
              "duration": 0.010416666666666666
            },
            {
              "pitch": 73,
              "velocity": 33,
              "position": 12.5,
              "duration": 0.1875
            },
            {
              "pitch": 29,
              "velocity": 31,
              "position": 13,
              "duration": 0.010416666666666666
            },
            {
              "pitch": 73,
              "velocity": 84,
              "position": 12.989583333333334,
              "duration": 0.25
            },
            {
              "pitch": 25,
              "velocity": 41,
              "position": 13.5,
              "duration": 0.010416666666666666
            },
            {
              "pitch": 73,
              "velocity": 34,
              "position": 13.489583333333334,
              "duration": 0.2708333333333333
            },
            {
              "pitch": 35,
              "velocity": 106,
              "position": 14,
              "duration": 0.010416666666666666
            },
            {
              "pitch": 73,
              "velocity": 42,
              "position": 14,
              "duration": 0.1875
            },
            {
              "pitch": 73,
              "velocity": 36,
              "position": 14.5,
              "duration": 0.15625
            },
            {
              "pitch": 30,
              "velocity": 106,
              "position": 14.989583333333334,
              "duration": 0.010416666666666666
            },
            {
              "pitch": 73,
              "velocity": 102,
              "position": 15,
              "duration": 0.1875
            },
            {
              "pitch": 25,
              "velocity": 52,
              "position": 15.5,
              "duration": 0.010416666666666666
            },
            {
              "pitch": 73,
              "velocity": 34,
              "position": 15.5,
              "duration": 0.19791666666666666
            }
          ]
        },
        "9": {
          "ctab": {
            "srcChannel": 9,
            "name": "Drums",
            "accType": "RHYTHM",
            "editable": false,
            "mutedNotes": [],
            "mutedChords": [],
            "autoStart": true,
            "sourceChordNote": 0,
            "sourceChordType": "Maj7",
            "ctb2Low": null,
            "ctb2Main": {
              "ntr": "ROOT_FIXED",
              "ntt": "BYPASS",
              "bassOn": false,
              "chordRootUpperLimit": 6,
              "noteLowLimit": 0,
              "noteHighLimit": 127,
              "rtr": "PITCH_SHIFT"
            },
            "ctb2High": null
          },
          "notes": [
            {
              "pitch": 33,
              "velocity": 84,
              "position": 0,
              "duration": 0.010416666666666666
            },
            {
              "pitch": 59,
              "velocity": 51,
              "position": 0,
              "duration": 0.010416666666666666
            },
            {
              "pitch": 59,
              "velocity": 20,
              "position": 0.5,
              "duration": 0.010416666666666666
            },
            {
              "pitch": 44,
              "velocity": 45,
              "position": 1,
              "duration": 0.010416666666666666
            },
            {
              "pitch": 59,
              "velocity": 50,
              "position": 1,
              "duration": 0.010416666666666666
            },
            {
              "pitch": 33,
              "velocity": 42,
              "position": 1.5,
              "duration": 0.010416666666666666
            },
            {
              "pitch": 37,
              "velocity": 70,
              "position": 1.5,
              "duration": 0.010416666666666666
            },
            {
              "pitch": 59,
              "velocity": 20,
              "position": 1.5,
              "duration": 0.010416666666666666
            },
            {
              "pitch": 33,
              "velocity": 84,
              "position": 2,
              "duration": 0.010416666666666666
            },
            {
              "pitch": 59,
              "velocity": 55,
              "position": 2,
              "duration": 0.010416666666666666
            },
            {
              "pitch": 37,
              "velocity": 73,
              "position": 2.5,
              "duration": 0.010416666666666666
            },
            {
              "pitch": 59,
              "velocity": 35,
              "position": 2.5,
              "duration": 0.010416666666666666
            },
            {
              "pitch": 44,
              "velocity": 45,
              "position": 3,
              "duration": 0.010416666666666666
            },
            {
              "pitch": 59,
              "velocity": 20,
              "position": 3,
              "duration": 0.010416666666666666
            },
            {
              "pitch": 33,
              "velocity": 42,
              "position": 3.5,
              "duration": 0.010416666666666666
            },
            {
              "pitch": 59,
              "velocity": 54,
              "position": 3.5,
              "duration": 0.010416666666666666
            },
            {
              "pitch": 33,
              "velocity": 84,
              "position": 4,
              "duration": 0.010416666666666666
            },
            {
              "pitch": 59,
              "velocity": 20,
              "position": 4,
              "duration": 0.010416666666666666
            },
            {
              "pitch": 37,
              "velocity": 69,
              "position": 4.5,
              "duration": 0.010416666666666666
            },
            {
              "pitch": 59,
              "velocity": 60,
              "position": 4.5,
              "duration": 0.010416666666666666
            },
            {
              "pitch": 44,
              "velocity": 45,
              "position": 5,
              "duration": 0.010416666666666666
            },
            {
              "pitch": 59,
              "velocity": 20,
              "position": 5,
              "duration": 0.010416666666666666
            },
            {
              "pitch": 33,
              "velocity": 42,
              "position": 5.5,
              "duration": 0.010416666666666666
            },
            {
              "pitch": 59,
              "velocity": 36,
              "position": 5.5,
              "duration": 0.010416666666666666
            },
            {
              "pitch": 33,
              "velocity": 75,
              "position": 6,
              "duration": 0.010416666666666666
            },
            {
              "pitch": 37,
              "velocity": 74,
              "position": 6,
              "duration": 0.010416666666666666
            },
            {
              "pitch": 59,
              "velocity": 55,
              "position": 6,
              "duration": 0.010416666666666666
            },
            {
              "pitch": 59,
              "velocity": 20,
              "position": 6.5,
              "duration": 0.010416666666666666
            },
            {
              "pitch": 37,
              "velocity": 69,
              "position": 7,
              "duration": 0.010416666666666666
            },
            {
              "pitch": 44,
              "velocity": 45,
              "position": 7,
              "duration": 0.010416666666666666
            },
            {
              "pitch": 59,
              "velocity": 57,
              "position": 7,
              "duration": 0.010416666666666666
            },
            {
              "pitch": 33,
              "velocity": 42,
              "position": 7.5,
              "duration": 0.010416666666666666
            },
            {
              "pitch": 59,
              "velocity": 20,
              "position": 7.5,
              "duration": 0.010416666666666666
            },
            {
              "pitch": 33,
              "velocity": 84,
              "position": 8,
              "duration": 0.010416666666666666
            },
            {
              "pitch": 59,
              "velocity": 51,
              "position": 8,
              "duration": 0.010416666666666666
            },
            {
              "pitch": 59,
              "velocity": 20,
              "position": 8.5,
              "duration": 0.010416666666666666
            },
            {
              "pitch": 44,
              "velocity": 45,
              "position": 9,
              "duration": 0.010416666666666666
            },
            {
              "pitch": 59,
              "velocity": 50,
              "position": 9,
              "duration": 0.010416666666666666
            },
            {
              "pitch": 33,
              "velocity": 42,
              "position": 9.5,
              "duration": 0.010416666666666666
            },
            {
              "pitch": 37,
              "velocity": 67,
              "position": 9.5,
              "duration": 0.010416666666666666
            },
            {
              "pitch": 59,
              "velocity": 20,
              "position": 9.5,
              "duration": 0.010416666666666666
            },
            {
              "pitch": 33,
              "velocity": 84,
              "position": 10,
              "duration": 0.010416666666666666
            },
            {
              "pitch": 59,
              "velocity": 55,
              "position": 10,
              "duration": 0.010416666666666666
            },
            {
              "pitch": 37,
              "velocity": 61,
              "position": 10.5,
              "duration": 0.010416666666666666
            },
            {
              "pitch": 59,
              "velocity": 35,
              "position": 10.5,
              "duration": 0.010416666666666666
            },
            {
              "pitch": 44,
              "velocity": 45,
              "position": 11,
              "duration": 0.010416666666666666
            },
            {
              "pitch": 59,
              "velocity": 20,
              "position": 11,
              "duration": 0.010416666666666666
            },
            {
              "pitch": 33,
              "velocity": 42,
              "position": 11.5,
              "duration": 0.010416666666666666
            },
            {
              "pitch": 59,
              "velocity": 54,
              "position": 11.5,
              "duration": 0.010416666666666666
            },
            {
              "pitch": 33,
              "velocity": 84,
              "position": 12,
              "duration": 0.010416666666666666
            },
            {
              "pitch": 59,
              "velocity": 20,
              "position": 12,
              "duration": 0.010416666666666666
            },
            {
              "pitch": 37,
              "velocity": 68,
              "position": 12.5,
              "duration": 0.010416666666666666
            },
            {
              "pitch": 59,
              "velocity": 60,
              "position": 12.5,
              "duration": 0.010416666666666666
            },
            {
              "pitch": 44,
              "velocity": 45,
              "position": 13,
              "duration": 0.010416666666666666
            },
            {
              "pitch": 59,
              "velocity": 20,
              "position": 13,
              "duration": 0.010416666666666666
            },
            {
              "pitch": 33,
              "velocity": 42,
              "position": 13.5,
              "duration": 0.010416666666666666
            },
            {
              "pitch": 59,
              "velocity": 36,
              "position": 13.5,
              "duration": 0.010416666666666666
            },
            {
              "pitch": 33,
              "velocity": 75,
              "position": 14,
              "duration": 0.010416666666666666
            },
            {
              "pitch": 37,
              "velocity": 70,
              "position": 14,
              "duration": 0.010416666666666666
            },
            {
              "pitch": 59,
              "velocity": 55,
              "position": 14,
              "duration": 0.010416666666666666
            },
            {
              "pitch": 59,
              "velocity": 20,
              "position": 14.5,
              "duration": 0.010416666666666666
            },
            {
              "pitch": 37,
              "velocity": 72,
              "position": 15,
              "duration": 0.010416666666666666
            },
            {
              "pitch": 44,
              "velocity": 45,
              "position": 15,
              "duration": 0.010416666666666666
            },
            {
              "pitch": 59,
              "velocity": 57,
              "position": 15,
              "duration": 0.010416666666666666
            },
            {
              "pitch": 33,
              "velocity": 42,
              "position": 15.5,
              "duration": 0.010416666666666666
            },
            {
              "pitch": 59,
              "velocity": 20,
              "position": 15.5,
              "duration": 0.010416666666666666
            }
          ]
        },
        "10": {
          "ctab": {
            "srcChannel": 10,
            "name": "Bass",
            "accType": "BASS",
            "editable": false,
            "mutedNotes": [],
            "mutedChords": [],
            "autoStart": false,
            "sourceChordNote": 0,
            "sourceChordType": "Maj7",
            "ctb2Low": null,
            "ctb2Main": {
              "ntr": "ROOT_TRANSPOSITION",
              "ntt": "MELODY",
              "bassOn": true,
              "chordRootUpperLimit": 3,
              "noteLowLimit": 28,
              "noteHighLimit": 127,
              "rtr": "PITCH_SHIFT_TO_ROOT"
            },
            "ctb2High": null
          },
          "notes": [
            {
              "pitch": 24,
              "velocity": 91,
              "position": 0,
              "duration": 1.2916666666666667
            },
            {
              "pitch": 31,
              "velocity": 60,
              "position": 1.5,
              "duration": 0.20833333333333334
            },
            {
              "pitch": 31,
              "velocity": 96,
              "position": 2,
              "duration": 1.09375
            },
            {
              "pitch": 31,
              "velocity": 74,
              "position": 3.5,
              "duration": 0.25
            },
            {
              "pitch": 24,
              "velocity": 91,
              "position": 4,
              "duration": 1.4270833333333333
            },
            {
              "pitch": 31,
              "velocity": 53,
              "position": 5.5,
              "duration": 0.22916666666666666
            },
            {
              "pitch": 31,
              "velocity": 89,
              "position": 6,
              "duration": 1.125
            },
            {
              "pitch": 31,
              "velocity": 80,
              "position": 7.5,
              "duration": 0.21875
            },
            {
              "pitch": 24,
              "velocity": 91,
              "position": 8,
              "duration": 1.2916666666666667
            },
            {
              "pitch": 31,
              "velocity": 60,
              "position": 9.5,
              "duration": 0.20833333333333334
            },
            {
              "pitch": 31,
              "velocity": 96,
              "position": 10,
              "duration": 1.09375
            },
            {
              "pitch": 31,
              "velocity": 74,
              "position": 11.5,
              "duration": 0.25
            },
            {
              "pitch": 24,
              "velocity": 91,
              "position": 12,
              "duration": 1.4270833333333333
            },
            {
              "pitch": 31,
              "velocity": 53,
              "position": 13.5,
              "duration": 0.22916666666666666
            },
            {
              "pitch": 31,
              "velocity": 89,
              "position": 14,
              "duration": 1.125
            },
            {
              "pitch": 31,
              "velocity": 80,
              "position": 15.5,
              "duration": 0.21875
            }
          ]
        },
        "11": {
          "ctab": {
            "srcChannel": 11,
            "name": "NylonGtr",
            "accType": "CHORD1",
            "editable": false,
            "mutedNotes": [],
            "mutedChords": [],
            "autoStart": false,
            "sourceChordNote": 0,
            "sourceChordType": "Maj7",
            "ctb2Low": null,
            "ctb2Main": {
              "ntr": "ROOT_FIXED",
              "ntt": "CHORD",
              "bassOn": false,
              "chordRootUpperLimit": 6,
              "noteLowLimit": 0,
              "noteHighLimit": 127,
              "rtr": "PITCH_SHIFT"
            },
            "ctb2High": null
          },
          "notes": [
            {
              "pitch": 59,
              "velocity": 63,
              "position": 1,
              "duration": 1.4895833333333333
            },
            {
              "pitch": 55,
              "velocity": 65,
              "position": 0.5,
              "duration": 2.9895833333333335
            },
            {
              "pitch": 59,
              "velocity": 59,
              "position": 2.5,
              "duration": 1.9895833333333333
            },
            {
              "pitch": 64,
              "velocity": 76,
              "position": 1.5,
              "duration": 2.9895833333333335
            },
            {
              "pitch": 55,
              "velocity": 53,
              "position": 3.5,
              "duration": 1.9895833333333333
            },
            {
              "pitch": 55,
              "velocity": 33,
              "position": 5.5,
              "duration": 1.4791666666666667
            },
            {
              "pitch": 59,
              "velocity": 63,
              "position": 4.5,
              "duration": 2.4895833333333335
            },
            {
              "pitch": 64,
              "velocity": 74,
              "position": 4.5,
              "duration": 2.4895833333333335
            },
            {
              "pitch": 55,
              "velocity": 57,
              "position": 6.989583333333333,
              "duration": 0.46875
            },
            {
              "pitch": 59,
              "velocity": 57,
              "position": 7,
              "duration": 0.46875
            },
            {
              "pitch": 64,
              "velocity": 52,
              "position": 7.010416666666667,
              "duration": 0.46875
            },
            {
              "pitch": 59,
              "velocity": 47,
              "position": 8.5,
              "duration": 1.9583333333333333
            },
            {
              "pitch": 55,
              "velocity": 48,
              "position": 8,
              "duration": 3.4895833333333335
            },
            {
              "pitch": 59,
              "velocity": 38,
              "position": 10.5,
              "duration": 1.96875
            },
            {
              "pitch": 64,
              "velocity": 73,
              "position": 9.5,
              "duration": 2.9895833333333335
            },
            {
              "pitch": 55,
              "velocity": 45,
              "position": 11.5,
              "duration": 2.46875
            },
            {
              "pitch": 59,
              "velocity": 56,
              "position": 12.479166666666666,
              "duration": 1.4895833333333333
            },
            {
              "pitch": 64,
              "velocity": 61,
              "position": 12.5,
              "duration": 1.46875
            },
            {
              "pitch": 59,
              "velocity": 52,
              "position": 13.989583333333334,
              "duration": 0.28125
            },
            {
              "pitch": 55,
              "velocity": 45,
              "position": 13.979166666666666,
              "duration": 0.3229166666666667
            },
            {
              "pitch": 64,
              "velocity": 50,
              "position": 14,
              "duration": 0.3645833333333333
            },
            {
              "pitch": 59,
              "velocity": 49,
              "position": 14.989583333333334,
              "duration": 0.375
            },
            {
              "pitch": 55,
              "velocity": 52,
              "position": 15,
              "duration": 0.375
            },
            {
              "pitch": 64,
              "velocity": 54,
              "position": 14.979166666666666,
              "duration": 0.4166666666666667
            }
          ]
        },
        "12": {
          "ctab": {
            "srcChannel": 12,
            "name": "Piano",
            "accType": "CHORD2",
            "editable": false,
            "mutedNotes": [],
            "mutedChords": [],
            "autoStart": false,
            "sourceChordNote": 0,
            "sourceChordType": "Maj7",
            "ctb2Low": null,
            "ctb2Main": {
              "ntr": "ROOT_FIXED",
              "ntt": "CHORD",
              "bassOn": false,
              "chordRootUpperLimit": 6,
              "noteLowLimit": 0,
              "noteHighLimit": 127,
              "rtr": "PITCH_SHIFT"
            },
            "ctb2High": null
          },
          "notes": [
            {
              "pitch": 55,
              "velocity": 73,
              "position": 0,
              "duration": 1.34375
            },
            {
              "pitch": 64,
              "velocity": 67,
              "position": 0,
              "duration": 1.34375
            },
            {
              "pitch": 59,
              "velocity": 63,
              "position": 0,
              "duration": 1.3958333333333333
            },
            {
              "pitch": 64,
              "velocity": 75,
              "position": 1.5,
              "duration": 0.19791666666666666
            },
            {
              "pitch": 59,
              "velocity": 60,
              "position": 1.5,
              "duration": 0.25
            },
            {
              "pitch": 55,
              "velocity": 61,
              "position": 1.5,
              "duration": 0.3854166666666667
            },
            {
              "pitch": 55,
              "velocity": 71,
              "position": 2.5,
              "duration": 0.9166666666666666
            },
            {
              "pitch": 59,
              "velocity": 67,
              "position": 2.5,
              "duration": 0.9375
            },
            {
              "pitch": 64,
              "velocity": 71,
              "position": 2.5,
              "duration": 0.9375
            },
            {
              "pitch": 64,
              "velocity": 57,
              "position": 3.5,
              "duration": 0.3020833333333333
            },
            {
              "pitch": 55,
              "velocity": 45,
              "position": 3.5,
              "duration": 0.3229166666666667
            },
            {
              "pitch": 59,
              "velocity": 56,
              "position": 3.5,
              "duration": 0.3333333333333333
            },
            {
              "pitch": 55,
              "velocity": 60,
              "position": 4.5,
              "duration": 1.1041666666666667
            },
            {
              "pitch": 64,
              "velocity": 71,
              "position": 4.5,
              "duration": 1.1770833333333333
            },
            {
              "pitch": 59,
              "velocity": 61,
              "position": 4.5,
              "duration": 1.1979166666666667
            },
            {
              "pitch": 55,
              "velocity": 62,
              "position": 6,
              "duration": 0.3645833333333333
            },
            {
              "pitch": 64,
              "velocity": 62,
              "position": 6,
              "duration": 0.3645833333333333
            },
            {
              "pitch": 59,
              "velocity": 62,
              "position": 6,
              "duration": 0.375
            },
            {
              "pitch": 55,
              "velocity": 59,
              "position": 7,
              "duration": 0.4166666666666667
            },
            {
              "pitch": 59,
              "velocity": 59,
              "position": 7,
              "duration": 0.4270833333333333
            },
            {
              "pitch": 64,
              "velocity": 59,
              "position": 7,
              "duration": 0.5
            },
            {
              "pitch": 55,
              "velocity": 73,
              "position": 8,
              "duration": 1.34375
            },
            {
              "pitch": 64,
              "velocity": 67,
              "position": 8,
              "duration": 1.34375
            },
            {
              "pitch": 59,
              "velocity": 63,
              "position": 8,
              "duration": 1.3958333333333333
            },
            {
              "pitch": 64,
              "velocity": 75,
              "position": 9.5,
              "duration": 0.19791666666666666
            },
            {
              "pitch": 59,
              "velocity": 60,
              "position": 9.5,
              "duration": 0.25
            },
            {
              "pitch": 55,
              "velocity": 61,
              "position": 9.5,
              "duration": 0.3854166666666667
            },
            {
              "pitch": 55,
              "velocity": 71,
              "position": 10.5,
              "duration": 0.9166666666666666
            },
            {
              "pitch": 59,
              "velocity": 67,
              "position": 10.5,
              "duration": 0.9375
            },
            {
              "pitch": 64,
              "velocity": 71,
              "position": 10.5,
              "duration": 0.9375
            },
            {
              "pitch": 64,
              "velocity": 57,
              "position": 11.5,
              "duration": 0.3020833333333333
            },
            {
              "pitch": 55,
              "velocity": 45,
              "position": 11.5,
              "duration": 0.3229166666666667
            },
            {
              "pitch": 59,
              "velocity": 56,
              "position": 11.5,
              "duration": 0.3333333333333333
            },
            {
              "pitch": 55,
              "velocity": 60,
              "position": 12.5,
              "duration": 1.1041666666666667
            },
            {
              "pitch": 64,
              "velocity": 71,
              "position": 12.5,
              "duration": 1.1770833333333333
            },
            {
              "pitch": 59,
              "velocity": 61,
              "position": 12.5,
              "duration": 1.1979166666666667
            },
            {
              "pitch": 55,
              "velocity": 62,
              "position": 14,
              "duration": 0.3645833333333333
            },
            {
              "pitch": 64,
              "velocity": 62,
              "position": 14,
              "duration": 0.3645833333333333
            },
            {
              "pitch": 59,
              "velocity": 62,
              "position": 14,
              "duration": 0.375
            },
            {
              "pitch": 55,
              "velocity": 59,
              "position": 15,
              "duration": 0.4166666666666667
            },
            {
              "pitch": 59,
              "velocity": 59,
              "position": 15,
              "duration": 0.4270833333333333
            },
            {
              "pitch": 64,
              "velocity": 59,
              "position": 15,
              "duration": 0.5
            }
          ]
        },
        "13": {
          "ctab": {
            "srcChannel": 13,
            "name": "Strings",
            "accType": "PAD",
            "editable": false,
            "mutedNotes": [],
            "mutedChords": [],
            "autoStart": false,
            "sourceChordNote": 0,
            "sourceChordType": "Maj7",
            "ctb2Low": null,
            "ctb2Main": {
              "ntr": "ROOT_FIXED",
              "ntt": "CHORD",
              "bassOn": false,
              "chordRootUpperLimit": 6,
              "noteLowLimit": 0,
              "noteHighLimit": 127,
              "rtr": "PITCH_SHIFT"
            },
            "ctb2High": null
          },
          "notes": [
            {
              "pitch": 55,
              "velocity": 40,
              "position": 0,
              "duration": 15.989583333333334
            },
            {
              "pitch": 59,
              "velocity": 40,
              "position": 0,
              "duration": 15.989583333333334
            },
            {
              "pitch": 64,
              "velocity": 40,
              "position": 0,
              "duration": 15.989583333333334
            }
          ]
        }
      }
    },
    "Main_D": {
      "type": "Main_D",
      "sizeInBeats": 16,
      "channels": {
        "1": {
          "ctab": {
            "srcChannel": 1,
            "name": "CC_Crash",
            "accType": "RHYTHM",
            "editable": false,
            "mutedNotes": [],
            "mutedChords": [
              "1+2+5",
              "sus4",
              "1+5",
              "1+8",
              "7aug",
              "Maj7aug",
              "7(#9)",
              "7(b13)",
              "7(b9)",
              "7(13)",
              "7#11",
              "7(9)",
              "7b5",
              "7sus4",
              "7th",
              "dim7",
              "dim",
              "minMaj7(9)",
              "minMaj7",
              "min7(11)",
              "min7(9)",
              "min(9)",
              "m7b5",
              "min7",
              "min6",
              "min",
              "aug",
              "Maj6(9)",
              "Maj7(9)",
              "Maj(9)",
              "Maj7#11",
              "Maj7",
              "Maj6",
              "Maj"
            ],
            "autoStart": true,
            "sourceChordNote": 0,
            "sourceChordType": "Maj",
            "ctb2Low": null,
            "ctb2Main": {
              "ntr": "ROOT_FIXED",
              "ntt": "BYPASS",
              "bassOn": false,
              "chordRootUpperLimit": 0,
              "noteLowLimit": 0,
              "noteHighLimit": 127,
              "rtr": "RETRIGGER"
            },
            "ctb2High": null
          },
          "notes": []
        },
        "3": {
          "ctab": {
            "srcChannel": 3,
            "name": "NylRoot",
            "accType": "CHORD1",
            "editable": false,
            "mutedNotes": [],
            "mutedChords": [
              "1+2+5",
              "sus4",
              "1+5",
              "1+8",
              "Maj7aug",
              "dim",
              "minMaj7(9)",
              "minMaj7",
              "min6",
              "min",
              "aug",
              "Maj7(9)",
              "Maj7#11",
              "Maj7",
              "Maj6",
              "Maj"
            ],
            "autoStart": false,
            "sourceChordNote": 0,
            "sourceChordType": "Maj7",
            "ctb2Low": null,
            "ctb2Main": {
              "ntr": "ROOT_TRANSPOSITION",
              "ntt": "MELODY",
              "bassOn": false,
              "chordRootUpperLimit": 6,
              "noteLowLimit": 40,
              "noteHighLimit": 127,
              "rtr": "PITCH_SHIFT"
            },
            "ctb2High": null
          },
          "notes": [
            {
              "pitch": 60,
              "velocity": 56,
              "position": 0.010416666666666666,
              "duration": 0.4895833333333333
            },
            {
              "pitch": 60,
              "velocity": 6,
              "position": 0.5104166666666666,
              "duration": 0.4895833333333333
            },
            {
              "pitch": 60,
              "velocity": 56,
              "position": 1.0104166666666667,
              "duration": 0.4895833333333333
            },
            {
              "pitch": 60,
              "velocity": 40,
              "position": 1.5104166666666667,
              "duration": 0.34375
            },
            {
              "pitch": 60,
              "velocity": 36,
              "position": 2,
              "duration": 0.020833333333333332
            },
            {
              "pitch": 60,
              "velocity": 58,
              "position": 2.5104166666666665,
              "duration": 0.4791666666666667
            },
            {
              "pitch": 60,
              "velocity": 47,
              "position": 3,
              "duration": 0.020833333333333332
            },
            {
              "pitch": 60,
              "velocity": 54,
              "position": 3.4895833333333335,
              "duration": 1.9791666666666667
            },
            {
              "pitch": 60,
              "velocity": 59,
              "position": 5.489583333333333,
              "duration": 1.5
            },
            {
              "pitch": 60,
              "velocity": 63,
              "position": 7.020833333333333,
              "duration": 0.4479166666666667
            },
            {
              "pitch": 60,
              "velocity": 47,
              "position": 7.5,
              "duration": 0.020833333333333332
            },
            {
              "pitch": 60,
              "velocity": 56,
              "position": 8.010416666666666,
              "duration": 0.4895833333333333
            },
            {
              "pitch": 60,
              "velocity": 6,
              "position": 8.510416666666666,
              "duration": 0.4895833333333333
            },
            {
              "pitch": 60,
              "velocity": 56,
              "position": 9.010416666666666,
              "duration": 0.4895833333333333
            },
            {
              "pitch": 60,
              "velocity": 40,
              "position": 9.510416666666666,
              "duration": 0.34375
            },
            {
              "pitch": 60,
              "velocity": 36,
              "position": 10,
              "duration": 0.020833333333333332
            },
            {
              "pitch": 60,
              "velocity": 58,
              "position": 10.510416666666666,
              "duration": 0.4791666666666667
            },
            {
              "pitch": 60,
              "velocity": 47,
              "position": 11,
              "duration": 0.020833333333333332
            },
            {
              "pitch": 60,
              "velocity": 54,
              "position": 11.489583333333334,
              "duration": 0.9895833333333334
            },
            {
              "pitch": 60,
              "velocity": 56,
              "position": 12.5,
              "duration": 0.4895833333333333
            },
            {
              "pitch": 60,
              "velocity": 47,
              "position": 13,
              "duration": 0.020833333333333332
            },
            {
              "pitch": 60,
              "velocity": 36,
              "position": 13.5,
              "duration": 0.020833333333333332
            },
            {
              "pitch": 60,
              "velocity": 59,
              "position": 13.989583333333334,
              "duration": 0.9895833333333334
            },
            {
              "pitch": 60,
              "velocity": 63,
              "position": 15.020833333333334,
              "duration": 0.4479166666666667
            },
            {
              "pitch": 60,
              "velocity": 47,
              "position": 15.5,
              "duration": 0.020833333333333332
            }
          ]
        },
        "5": {
          "ctab": {
            "srcChannel": 5,
            "name": "StrRoot",
            "accType": "PAD",
            "editable": false,
            "mutedNotes": [],
            "mutedChords": [
              "1+2+5",
              "sus4",
              "1+5",
              "1+8",
              "Maj7aug",
              "dim",
              "minMaj7(9)",
              "minMaj7",
              "min6",
              "min",
              "aug",
              "Maj7(9)",
              "Maj7#11",
              "Maj7",
              "Maj6",
              "Maj"
            ],
            "autoStart": false,
            "sourceChordNote": 0,
            "sourceChordType": "Maj7",
            "ctb2Low": null,
            "ctb2Main": {
              "ntr": "ROOT_TRANSPOSITION",
              "ntt": "MELODY",
              "bassOn": false,
              "chordRootUpperLimit": 6,
              "noteLowLimit": 0,
              "noteHighLimit": 127,
              "rtr": "PITCH_SHIFT"
            },
            "ctb2High": null
          },
          "notes": [
            {
              "pitch": 60,
              "velocity": 40,
              "position": 0,
              "duration": 7.989583333333333
            },
            {
              "pitch": 60,
              "velocity": 40,
              "position": 8,
              "duration": 7.989583333333333
            }
          ]
        },
        "8": {
          "ctab": {
            "srcChannel": 8,
            "name": "CubanP",
            "accType": "SUBRHYTHM",
            "editable": false,
            "mutedNotes": [],
            "mutedChords": [],
            "autoStart": true,
            "sourceChordNote": 0,
            "sourceChordType": "Maj7",
            "ctb2Low": null,
            "ctb2Main": {
              "ntr": "ROOT_FIXED",
              "ntt": "BYPASS",
              "bassOn": false,
              "chordRootUpperLimit": 6,
              "noteLowLimit": 0,
              "noteHighLimit": 127,
              "rtr": "PITCH_SHIFT"
            },
            "ctb2High": null
          },
          "notes": [
            {
              "pitch": 25,
              "velocity": 58,
              "position": 0,
              "duration": 0.010416666666666666
            },
            {
              "pitch": 68,
              "velocity": 68,
              "position": 0,
              "duration": 0.010416666666666666
            },
            {
              "pitch": 73,
              "velocity": 43,
              "position": 0,
              "duration": 0.010416666666666666
            },
            {
              "pitch": 73,
              "velocity": 32,
              "position": 0.4895833333333333,
              "duration": 0.010416666666666666
            },
            {
              "pitch": 73,
              "velocity": 95,
              "position": 0.9895833333333334,
              "duration": 0.010416666666666666
            },
            {
              "pitch": 29,
              "velocity": 100,
              "position": 1,
              "duration": 0.010416666666666666
            },
            {
              "pitch": 64,
              "velocity": 67,
              "position": 1,
              "duration": 0.010416666666666666
            },
            {
              "pitch": 73,
              "velocity": 36,
              "position": 1.4895833333333333,
              "duration": 0.010416666666666666
            },
            {
              "pitch": 64,
              "velocity": 59,
              "position": 1.5,
              "duration": 0.010416666666666666
            },
            {
              "pitch": 68,
              "velocity": 43,
              "position": 1.5,
              "duration": 0.010416666666666666
            },
            {
              "pitch": 25,
              "velocity": 74,
              "position": 2,
              "duration": 0.010416666666666666
            },
            {
              "pitch": 68,
              "velocity": 68,
              "position": 2,
              "duration": 0.010416666666666666
            },
            {
              "pitch": 73,
              "velocity": 40,
              "position": 2,
              "duration": 0.010416666666666666
            },
            {
              "pitch": 37,
              "velocity": 73,
              "position": 2.4895833333333335,
              "duration": 0.010416666666666666
            },
            {
              "pitch": 28,
              "velocity": 105,
              "position": 2.5,
              "duration": 0.010416666666666666
            },
            {
              "pitch": 73,
              "velocity": 38,
              "position": 2.5,
              "duration": 0.010416666666666666
            },
            {
              "pitch": 73,
              "velocity": 94,
              "position": 2.9895833333333335,
              "duration": 0.010416666666666666
            },
            {
              "pitch": 64,
              "velocity": 82,
              "position": 3,
              "duration": 0.010416666666666666
            },
            {
              "pitch": 36,
              "velocity": 53,
              "position": 3.4895833333333335,
              "duration": 0.010416666666666666
            },
            {
              "pitch": 30,
              "velocity": 74,
              "position": 3.5,
              "duration": 0.010416666666666666
            },
            {
              "pitch": 68,
              "velocity": 35,
              "position": 3.5,
              "duration": 0.010416666666666666
            },
            {
              "pitch": 73,
              "velocity": 31,
              "position": 3.5,
              "duration": 0.010416666666666666
            },
            {
              "pitch": 68,
              "velocity": 68,
              "position": 4,
              "duration": 0.010416666666666666
            },
            {
              "pitch": 73,
              "velocity": 27,
              "position": 4,
              "duration": 0.010416666666666666
            },
            {
              "pitch": 73,
              "velocity": 36,
              "position": 4.489583333333333,
              "duration": 0.010416666666666666
            },
            {
              "pitch": 29,
              "velocity": 106,
              "position": 4.5,
              "duration": 0.010416666666666666
            },
            {
              "pitch": 37,
              "velocity": 61,
              "position": 4.5,
              "duration": 0.010416666666666666
            },
            {
              "pitch": 28,
              "velocity": 49,
              "position": 5,
              "duration": 0.010416666666666666
            },
            {
              "pitch": 64,
              "velocity": 82,
              "position": 5,
              "duration": 0.010416666666666666
            },
            {
              "pitch": 73,
              "velocity": 90,
              "position": 5,
              "duration": 0.010416666666666666
            },
            {
              "pitch": 73,
              "velocity": 40,
              "position": 5.489583333333333,
              "duration": 0.010416666666666666
            },
            {
              "pitch": 25,
              "velocity": 60,
              "position": 5.5,
              "duration": 0.010416666666666666
            },
            {
              "pitch": 64,
              "velocity": 67,
              "position": 5.5,
              "duration": 0.010416666666666666
            },
            {
              "pitch": 68,
              "velocity": 37,
              "position": 5.5,
              "duration": 0.010416666666666666
            },
            {
              "pitch": 29,
              "velocity": 89,
              "position": 5.989583333333333,
              "duration": 0.010416666666666666
            },
            {
              "pitch": 68,
              "velocity": 68,
              "position": 6,
              "duration": 0.010416666666666666
            },
            {
              "pitch": 73,
              "velocity": 36,
              "position": 6,
              "duration": 0.010416666666666666
            },
            {
              "pitch": 73,
              "velocity": 36,
              "position": 6.5,
              "duration": 0.010416666666666666
            },
            {
              "pitch": 28,
              "velocity": 105,
              "position": 6.989583333333333,
              "duration": 0.010416666666666666
            },
            {
              "pitch": 73,
              "velocity": 102,
              "position": 6.989583333333333,
              "duration": 0.010416666666666666
            },
            {
              "pitch": 64,
              "velocity": 103,
              "position": 7,
              "duration": 0.010416666666666666
            },
            {
              "pitch": 30,
              "velocity": 38,
              "position": 7.489583333333333,
              "duration": 0.010416666666666666
            },
            {
              "pitch": 68,
              "velocity": 40,
              "position": 7.5,
              "duration": 0.010416666666666666
            },
            {
              "pitch": 73,
              "velocity": 27,
              "position": 7.5,
              "duration": 0.010416666666666666
            },
            {
              "pitch": 25,
              "velocity": 58,
              "position": 8,
              "duration": 0.010416666666666666
            },
            {
              "pitch": 68,
              "velocity": 68,
              "position": 8,
              "duration": 0.010416666666666666
            },
            {
              "pitch": 73,
              "velocity": 43,
              "position": 8,
              "duration": 0.010416666666666666
            },
            {
              "pitch": 73,
              "velocity": 32,
              "position": 8.489583333333334,
              "duration": 0.010416666666666666
            },
            {
              "pitch": 73,
              "velocity": 95,
              "position": 8.989583333333334,
              "duration": 0.010416666666666666
            },
            {
              "pitch": 29,
              "velocity": 100,
              "position": 9,
              "duration": 0.010416666666666666
            },
            {
              "pitch": 64,
              "velocity": 67,
              "position": 9,
              "duration": 0.010416666666666666
            },
            {
              "pitch": 73,
              "velocity": 36,
              "position": 9.489583333333334,
              "duration": 0.010416666666666666
            },
            {
              "pitch": 64,
              "velocity": 59,
              "position": 9.5,
              "duration": 0.010416666666666666
            },
            {
              "pitch": 68,
              "velocity": 43,
              "position": 9.5,
              "duration": 0.010416666666666666
            },
            {
              "pitch": 25,
              "velocity": 74,
              "position": 10,
              "duration": 0.010416666666666666
            },
            {
              "pitch": 68,
              "velocity": 68,
              "position": 10,
              "duration": 0.010416666666666666
            },
            {
              "pitch": 73,
              "velocity": 40,
              "position": 10,
              "duration": 0.010416666666666666
            },
            {
              "pitch": 37,
              "velocity": 73,
              "position": 10.489583333333334,
              "duration": 0.010416666666666666
            },
            {
              "pitch": 28,
              "velocity": 105,
              "position": 10.5,
              "duration": 0.010416666666666666
            },
            {
              "pitch": 73,
              "velocity": 38,
              "position": 10.5,
              "duration": 0.010416666666666666
            },
            {
              "pitch": 73,
              "velocity": 94,
              "position": 10.989583333333334,
              "duration": 0.010416666666666666
            },
            {
              "pitch": 64,
              "velocity": 82,
              "position": 11,
              "duration": 0.010416666666666666
            },
            {
              "pitch": 36,
              "velocity": 53,
              "position": 11.489583333333334,
              "duration": 0.010416666666666666
            },
            {
              "pitch": 30,
              "velocity": 81,
              "position": 11.5,
              "duration": 0.010416666666666666
            },
            {
              "pitch": 68,
              "velocity": 35,
              "position": 11.5,
              "duration": 0.010416666666666666
            },
            {
              "pitch": 73,
              "velocity": 31,
              "position": 11.5,
              "duration": 0.010416666666666666
            },
            {
              "pitch": 68,
              "velocity": 68,
              "position": 12,
              "duration": 0.010416666666666666
            },
            {
              "pitch": 73,
              "velocity": 27,
              "position": 12,
              "duration": 0.010416666666666666
            },
            {
              "pitch": 73,
              "velocity": 36,
              "position": 12.489583333333334,
              "duration": 0.010416666666666666
            },
            {
              "pitch": 29,
              "velocity": 106,
              "position": 12.5,
              "duration": 0.010416666666666666
            },
            {
              "pitch": 37,
              "velocity": 61,
              "position": 12.5,
              "duration": 0.010416666666666666
            },
            {
              "pitch": 28,
              "velocity": 49,
              "position": 13,
              "duration": 0.010416666666666666
            },
            {
              "pitch": 64,
              "velocity": 82,
              "position": 13,
              "duration": 0.010416666666666666
            },
            {
              "pitch": 73,
              "velocity": 90,
              "position": 13,
              "duration": 0.010416666666666666
            },
            {
              "pitch": 73,
              "velocity": 40,
              "position": 13.489583333333334,
              "duration": 0.010416666666666666
            },
            {
              "pitch": 25,
              "velocity": 60,
              "position": 13.5,
              "duration": 0.010416666666666666
            },
            {
              "pitch": 64,
              "velocity": 67,
              "position": 13.5,
              "duration": 0.010416666666666666
            },
            {
              "pitch": 68,
              "velocity": 37,
              "position": 13.5,
              "duration": 0.010416666666666666
            },
            {
              "pitch": 29,
              "velocity": 89,
              "position": 13.989583333333334,
              "duration": 0.010416666666666666
            },
            {
              "pitch": 68,
              "velocity": 68,
              "position": 14,
              "duration": 0.010416666666666666
            },
            {
              "pitch": 73,
              "velocity": 36,
              "position": 14,
              "duration": 0.010416666666666666
            },
            {
              "pitch": 73,
              "velocity": 36,
              "position": 14.5,
              "duration": 0.010416666666666666
            },
            {
              "pitch": 28,
              "velocity": 105,
              "position": 14.989583333333334,
              "duration": 0.010416666666666666
            },
            {
              "pitch": 73,
              "velocity": 102,
              "position": 14.989583333333334,
              "duration": 0.010416666666666666
            },
            {
              "pitch": 64,
              "velocity": 103,
              "position": 15,
              "duration": 0.010416666666666666
            },
            {
              "pitch": 29,
              "velocity": 38,
              "position": 15.489583333333334,
              "duration": 0.010416666666666666
            },
            {
              "pitch": 68,
              "velocity": 40,
              "position": 15.5,
              "duration": 0.010416666666666666
            },
            {
              "pitch": 73,
              "velocity": 27,
              "position": 15.5,
              "duration": 0.010416666666666666
            }
          ]
        },
        "9": {
          "ctab": {
            "srcChannel": 9,
            "name": "Drums",
            "accType": "RHYTHM",
            "editable": false,
            "mutedNotes": [],
            "mutedChords": [],
            "autoStart": true,
            "sourceChordNote": 0,
            "sourceChordType": "Maj7",
            "ctb2Low": null,
            "ctb2Main": {
              "ntr": "ROOT_FIXED",
              "ntt": "BYPASS",
              "bassOn": false,
              "chordRootUpperLimit": 6,
              "noteLowLimit": 0,
              "noteHighLimit": 127,
              "rtr": "PITCH_SHIFT"
            },
            "ctb2High": null
          },
          "notes": [
            {
              "pitch": 33,
              "velocity": 80,
              "position": 0,
              "duration": 0.010416666666666666
            },
            {
              "pitch": 45,
              "velocity": 55,
              "position": 0,
              "duration": 0.010416666666666666
            },
            {
              "pitch": 53,
              "velocity": 45,
              "position": 0,
              "duration": 0.010416666666666666
            },
            {
              "pitch": 53,
              "velocity": 24,
              "position": 0.5,
              "duration": 0.010416666666666666
            },
            {
              "pitch": 44,
              "velocity": 45,
              "position": 1,
              "duration": 0.010416666666666666
            },
            {
              "pitch": 53,
              "velocity": 53,
              "position": 1,
              "duration": 0.010416666666666666
            },
            {
              "pitch": 75,
              "velocity": 46,
              "position": 1,
              "duration": 0.010416666666666666
            },
            {
              "pitch": 33,
              "velocity": 37,
              "position": 1.5,
              "duration": 0.010416666666666666
            },
            {
              "pitch": 43,
              "velocity": 36,
              "position": 1.5,
              "duration": 0.010416666666666666
            },
            {
              "pitch": 53,
              "velocity": 34,
              "position": 1.5,
              "duration": 0.010416666666666666
            },
            {
              "pitch": 33,
              "velocity": 80,
              "position": 2,
              "duration": 0.010416666666666666
            },
            {
              "pitch": 43,
              "velocity": 54,
              "position": 2,
              "duration": 0.010416666666666666
            },
            {
              "pitch": 53,
              "velocity": 32,
              "position": 2,
              "duration": 0.010416666666666666
            },
            {
              "pitch": 75,
              "velocity": 50,
              "position": 2,
              "duration": 0.010416666666666666
            },
            {
              "pitch": 53,
              "velocity": 39,
              "position": 2.5,
              "duration": 0.010416666666666666
            },
            {
              "pitch": 44,
              "velocity": 45,
              "position": 3,
              "duration": 0.010416666666666666
            },
            {
              "pitch": 53,
              "velocity": 21,
              "position": 3,
              "duration": 0.010416666666666666
            },
            {
              "pitch": 33,
              "velocity": 50,
              "position": 3.5,
              "duration": 0.010416666666666666
            },
            {
              "pitch": 45,
              "velocity": 53,
              "position": 3.5,
              "duration": 0.010416666666666666
            },
            {
              "pitch": 53,
              "velocity": 44,
              "position": 3.5,
              "duration": 0.010416666666666666
            },
            {
              "pitch": 33,
              "velocity": 80,
              "position": 4,
              "duration": 0.010416666666666666
            },
            {
              "pitch": 53,
              "velocity": 30,
              "position": 4,
              "duration": 0.010416666666666666
            },
            {
              "pitch": 75,
              "velocity": 50,
              "position": 4,
              "duration": 0.010416666666666666
            },
            {
              "pitch": 45,
              "velocity": 53,
              "position": 4.5,
              "duration": 0.010416666666666666
            },
            {
              "pitch": 53,
              "velocity": 53,
              "position": 4.5,
              "duration": 0.010416666666666666
            },
            {
              "pitch": 44,
              "velocity": 45,
              "position": 5,
              "duration": 0.010416666666666666
            },
            {
              "pitch": 53,
              "velocity": 20,
              "position": 5,
              "duration": 0.010416666666666666
            },
            {
              "pitch": 33,
              "velocity": 37,
              "position": 5.5,
              "duration": 0.010416666666666666
            },
            {
              "pitch": 43,
              "velocity": 36,
              "position": 5.5,
              "duration": 0.010416666666666666
            },
            {
              "pitch": 53,
              "velocity": 20,
              "position": 5.5,
              "duration": 0.010416666666666666
            },
            {
              "pitch": 75,
              "velocity": 48,
              "position": 5.5,
              "duration": 0.010416666666666666
            },
            {
              "pitch": 33,
              "velocity": 80,
              "position": 6,
              "duration": 0.010416666666666666
            },
            {
              "pitch": 43,
              "velocity": 55,
              "position": 6,
              "duration": 0.010416666666666666
            },
            {
              "pitch": 53,
              "velocity": 66,
              "position": 6,
              "duration": 0.010416666666666666
            },
            {
              "pitch": 53,
              "velocity": 27,
              "position": 6.5,
              "duration": 0.010416666666666666
            },
            {
              "pitch": 44,
              "velocity": 45,
              "position": 7,
              "duration": 0.010416666666666666
            },
            {
              "pitch": 53,
              "velocity": 54,
              "position": 7,
              "duration": 0.010416666666666666
            },
            {
              "pitch": 75,
              "velocity": 41,
              "position": 7,
              "duration": 0.010416666666666666
            },
            {
              "pitch": 33,
              "velocity": 52,
              "position": 7.5,
              "duration": 0.010416666666666666
            },
            {
              "pitch": 45,
              "velocity": 36,
              "position": 7.5,
              "duration": 0.010416666666666666
            },
            {
              "pitch": 53,
              "velocity": 21,
              "position": 7.5,
              "duration": 0.010416666666666666
            },
            {
              "pitch": 33,
              "velocity": 80,
              "position": 8,
              "duration": 0.010416666666666666
            },
            {
              "pitch": 45,
              "velocity": 55,
              "position": 8,
              "duration": 0.010416666666666666
            },
            {
              "pitch": 53,
              "velocity": 45,
              "position": 8,
              "duration": 0.010416666666666666
            },
            {
              "pitch": 53,
              "velocity": 24,
              "position": 8.5,
              "duration": 0.010416666666666666
            },
            {
              "pitch": 44,
              "velocity": 45,
              "position": 9,
              "duration": 0.010416666666666666
            },
            {
              "pitch": 53,
              "velocity": 53,
              "position": 9,
              "duration": 0.010416666666666666
            },
            {
              "pitch": 75,
              "velocity": 46,
              "position": 9,
              "duration": 0.010416666666666666
            },
            {
              "pitch": 33,
              "velocity": 37,
              "position": 9.5,
              "duration": 0.010416666666666666
            },
            {
              "pitch": 43,
              "velocity": 36,
              "position": 9.5,
              "duration": 0.010416666666666666
            },
            {
              "pitch": 53,
              "velocity": 34,
              "position": 9.5,
              "duration": 0.010416666666666666
            },
            {
              "pitch": 33,
              "velocity": 80,
              "position": 10,
              "duration": 0.010416666666666666
            },
            {
              "pitch": 43,
              "velocity": 54,
              "position": 10,
              "duration": 0.010416666666666666
            },
            {
              "pitch": 53,
              "velocity": 32,
              "position": 10,
              "duration": 0.010416666666666666
            },
            {
              "pitch": 75,
              "velocity": 50,
              "position": 10,
              "duration": 0.010416666666666666
            },
            {
              "pitch": 53,
              "velocity": 39,
              "position": 10.5,
              "duration": 0.010416666666666666
            },
            {
              "pitch": 44,
              "velocity": 45,
              "position": 11,
              "duration": 0.010416666666666666
            },
            {
              "pitch": 53,
              "velocity": 21,
              "position": 11,
              "duration": 0.010416666666666666
            },
            {
              "pitch": 33,
              "velocity": 50,
              "position": 11.5,
              "duration": 0.010416666666666666
            },
            {
              "pitch": 45,
              "velocity": 53,
              "position": 11.5,
              "duration": 0.010416666666666666
            },
            {
              "pitch": 53,
              "velocity": 44,
              "position": 11.5,
              "duration": 0.010416666666666666
            },
            {
              "pitch": 33,
              "velocity": 80,
              "position": 12,
              "duration": 0.010416666666666666
            },
            {
              "pitch": 53,
              "velocity": 30,
              "position": 12,
              "duration": 0.010416666666666666
            },
            {
              "pitch": 75,
              "velocity": 50,
              "position": 12,
              "duration": 0.010416666666666666
            },
            {
              "pitch": 45,
              "velocity": 53,
              "position": 12.5,
              "duration": 0.010416666666666666
            },
            {
              "pitch": 53,
              "velocity": 53,
              "position": 12.5,
              "duration": 0.010416666666666666
            },
            {
              "pitch": 44,
              "velocity": 45,
              "position": 13,
              "duration": 0.010416666666666666
            },
            {
              "pitch": 53,
              "velocity": 20,
              "position": 13,
              "duration": 0.010416666666666666
            },
            {
              "pitch": 33,
              "velocity": 37,
              "position": 13.5,
              "duration": 0.010416666666666666
            },
            {
              "pitch": 43,
              "velocity": 36,
              "position": 13.5,
              "duration": 0.010416666666666666
            },
            {
              "pitch": 53,
              "velocity": 20,
              "position": 13.5,
              "duration": 0.010416666666666666
            },
            {
              "pitch": 75,
              "velocity": 48,
              "position": 13.5,
              "duration": 0.010416666666666666
            },
            {
              "pitch": 33,
              "velocity": 80,
              "position": 14,
              "duration": 0.010416666666666666
            },
            {
              "pitch": 43,
              "velocity": 55,
              "position": 14,
              "duration": 0.010416666666666666
            },
            {
              "pitch": 53,
              "velocity": 66,
              "position": 14,
              "duration": 0.010416666666666666
            },
            {
              "pitch": 53,
              "velocity": 27,
              "position": 14.5,
              "duration": 0.010416666666666666
            },
            {
              "pitch": 44,
              "velocity": 45,
              "position": 15,
              "duration": 0.010416666666666666
            },
            {
              "pitch": 53,
              "velocity": 54,
              "position": 15,
              "duration": 0.010416666666666666
            },
            {
              "pitch": 75,
              "velocity": 41,
              "position": 15,
              "duration": 0.010416666666666666
            },
            {
              "pitch": 33,
              "velocity": 52,
              "position": 15.5,
              "duration": 0.010416666666666666
            },
            {
              "pitch": 45,
              "velocity": 36,
              "position": 15.5,
              "duration": 0.010416666666666666
            },
            {
              "pitch": 53,
              "velocity": 21,
              "position": 15.5,
              "duration": 0.010416666666666666
            }
          ]
        },
        "10": {
          "ctab": {
            "srcChannel": 10,
            "name": "Bass",
            "accType": "BASS",
            "editable": false,
            "mutedNotes": [],
            "mutedChords": [],
            "autoStart": false,
            "sourceChordNote": 0,
            "sourceChordType": "Maj7",
            "ctb2Low": null,
            "ctb2Main": {
              "ntr": "ROOT_TRANSPOSITION",
              "ntt": "MELODY",
              "bassOn": true,
              "chordRootUpperLimit": 3,
              "noteLowLimit": 28,
              "noteHighLimit": 127,
              "rtr": "PITCH_SHIFT_TO_ROOT"
            },
            "ctb2High": null
          },
          "notes": [
            {
              "pitch": 24,
              "velocity": 97,
              "position": 0,
              "duration": 1.3229166666666667
            },
            {
              "pitch": 31,
              "velocity": 73,
              "position": 1.5,
              "duration": 0.2708333333333333
            },
            {
              "pitch": 31,
              "velocity": 89,
              "position": 2,
              "duration": 1.3333333333333333
            },
            {
              "pitch": 24,
              "velocity": 57,
              "position": 3.5,
              "duration": 0.23958333333333334
            },
            {
              "pitch": 24,
              "velocity": 85,
              "position": 4,
              "duration": 1.4791666666666667
            },
            {
              "pitch": 31,
              "velocity": 60,
              "position": 5.5,
              "duration": 0.2604166666666667
            },
            {
              "pitch": 31,
              "velocity": 83,
              "position": 6,
              "duration": 1.4583333333333333
            },
            {
              "pitch": 24,
              "velocity": 73,
              "position": 7.5,
              "duration": 0.25
            },
            {
              "pitch": 24,
              "velocity": 97,
              "position": 8,
              "duration": 1.3229166666666667
            },
            {
              "pitch": 31,
              "velocity": 73,
              "position": 9.5,
              "duration": 0.2708333333333333
            },
            {
              "pitch": 31,
              "velocity": 89,
              "position": 10,
              "duration": 1.3333333333333333
            },
            {
              "pitch": 24,
              "velocity": 57,
              "position": 11.5,
              "duration": 0.23958333333333334
            },
            {
              "pitch": 24,
              "velocity": 85,
              "position": 12,
              "duration": 1.4791666666666667
            },
            {
              "pitch": 31,
              "velocity": 60,
              "position": 13.5,
              "duration": 0.2604166666666667
            },
            {
              "pitch": 31,
              "velocity": 83,
              "position": 14,
              "duration": 1.4583333333333333
            },
            {
              "pitch": 24,
              "velocity": 73,
              "position": 15.5,
              "duration": 0.25
            }
          ]
        },
        "11": {
          "ctab": {
            "srcChannel": 11,
            "name": "NylonGtr",
            "accType": "CHORD1",
            "editable": false,
            "mutedNotes": [],
            "mutedChords": [],
            "autoStart": false,
            "sourceChordNote": 0,
            "sourceChordType": "Maj7",
            "ctb2Low": null,
            "ctb2Main": {
              "ntr": "ROOT_FIXED",
              "ntt": "CHORD",
              "bassOn": false,
              "chordRootUpperLimit": 6,
              "noteLowLimit": 0,
              "noteHighLimit": 127,
              "rtr": "PITCH_SHIFT"
            },
            "ctb2High": null
          },
          "notes": [
            {
              "pitch": 64,
              "velocity": 72,
              "position": 0,
              "duration": 0.4895833333333333
            },
            {
              "pitch": 55,
              "velocity": 56,
              "position": 0.010416666666666666,
              "duration": 0.4791666666666667
            },
            {
              "pitch": 59,
              "velocity": 56,
              "position": 0.010416666666666666,
              "duration": 0.4895833333333333
            },
            {
              "pitch": 55,
              "velocity": 6,
              "position": 0.5,
              "duration": 0.4895833333333333
            },
            {
              "pitch": 64,
              "velocity": 28,
              "position": 0.5104166666666666,
              "duration": 0.4791666666666667
            },
            {
              "pitch": 59,
              "velocity": 6,
              "position": 0.5104166666666666,
              "duration": 0.4895833333333333
            },
            {
              "pitch": 64,
              "velocity": 58,
              "position": 1,
              "duration": 0.4895833333333333
            },
            {
              "pitch": 55,
              "velocity": 47,
              "position": 1.0104166666666667,
              "duration": 0.4895833333333333
            },
            {
              "pitch": 59,
              "velocity": 56,
              "position": 1.0104166666666667,
              "duration": 0.4895833333333333
            },
            {
              "pitch": 64,
              "velocity": 40,
              "position": 1.5,
              "duration": 0.34375
            },
            {
              "pitch": 55,
              "velocity": 40,
              "position": 1.5104166666666667,
              "duration": 0.34375
            },
            {
              "pitch": 59,
              "velocity": 40,
              "position": 1.5104166666666667,
              "duration": 0.34375
            },
            {
              "pitch": 55,
              "velocity": 36,
              "position": 2,
              "duration": 0.020833333333333332
            },
            {
              "pitch": 59,
              "velocity": 36,
              "position": 2,
              "duration": 0.020833333333333332
            },
            {
              "pitch": 64,
              "velocity": 36,
              "position": 2,
              "duration": 0.020833333333333332
            },
            {
              "pitch": 64,
              "velocity": 68,
              "position": 2.5,
              "duration": 0.4895833333333333
            },
            {
              "pitch": 55,
              "velocity": 54,
              "position": 2.5104166666666665,
              "duration": 0.4791666666666667
            },
            {
              "pitch": 59,
              "velocity": 58,
              "position": 2.5104166666666665,
              "duration": 0.4791666666666667
            },
            {
              "pitch": 55,
              "velocity": 45,
              "position": 3,
              "duration": 0.020833333333333332
            },
            {
              "pitch": 59,
              "velocity": 47,
              "position": 3,
              "duration": 0.020833333333333332
            },
            {
              "pitch": 64,
              "velocity": 50,
              "position": 3,
              "duration": 0.020833333333333332
            },
            {
              "pitch": 55,
              "velocity": 54,
              "position": 3.4791666666666665,
              "duration": 1.9895833333333333
            },
            {
              "pitch": 59,
              "velocity": 54,
              "position": 3.4895833333333335,
              "duration": 1.9791666666666667
            },
            {
              "pitch": 64,
              "velocity": 72,
              "position": 3.5,
              "duration": 1.96875
            },
            {
              "pitch": 55,
              "velocity": 59,
              "position": 5.479166666666667,
              "duration": 1.5104166666666667
            },
            {
              "pitch": 59,
              "velocity": 59,
              "position": 5.489583333333333,
              "duration": 1.5
            },
            {
              "pitch": 64,
              "velocity": 61,
              "position": 5.5,
              "duration": 1.4895833333333333
            },
            {
              "pitch": 55,
              "velocity": 65,
              "position": 7.010416666666667,
              "duration": 0.4479166666666667
            },
            {
              "pitch": 59,
              "velocity": 63,
              "position": 7.020833333333333,
              "duration": 0.4479166666666667
            },
            {
              "pitch": 64,
              "velocity": 78,
              "position": 7,
              "duration": 0.4895833333333333
            },
            {
              "pitch": 55,
              "velocity": 45,
              "position": 7.5,
              "duration": 0.020833333333333332
            },
            {
              "pitch": 59,
              "velocity": 47,
              "position": 7.5,
              "duration": 0.020833333333333332
            },
            {
              "pitch": 64,
              "velocity": 50,
              "position": 7.5,
              "duration": 0.020833333333333332
            },
            {
              "pitch": 64,
              "velocity": 72,
              "position": 8,
              "duration": 0.4895833333333333
            },
            {
              "pitch": 55,
              "velocity": 56,
              "position": 8.010416666666666,
              "duration": 0.4791666666666667
            },
            {
              "pitch": 59,
              "velocity": 56,
              "position": 8.010416666666666,
              "duration": 0.4895833333333333
            },
            {
              "pitch": 55,
              "velocity": 6,
              "position": 8.5,
              "duration": 0.4895833333333333
            },
            {
              "pitch": 64,
              "velocity": 28,
              "position": 8.510416666666666,
              "duration": 0.4791666666666667
            },
            {
              "pitch": 59,
              "velocity": 6,
              "position": 8.510416666666666,
              "duration": 0.4895833333333333
            },
            {
              "pitch": 64,
              "velocity": 58,
              "position": 9,
              "duration": 0.4895833333333333
            },
            {
              "pitch": 55,
              "velocity": 47,
              "position": 9.010416666666666,
              "duration": 0.4895833333333333
            },
            {
              "pitch": 59,
              "velocity": 56,
              "position": 9.010416666666666,
              "duration": 0.4895833333333333
            },
            {
              "pitch": 64,
              "velocity": 40,
              "position": 9.5,
              "duration": 0.34375
            },
            {
              "pitch": 55,
              "velocity": 40,
              "position": 9.510416666666666,
              "duration": 0.34375
            },
            {
              "pitch": 59,
              "velocity": 40,
              "position": 9.510416666666666,
              "duration": 0.34375
            },
            {
              "pitch": 55,
              "velocity": 36,
              "position": 10,
              "duration": 0.020833333333333332
            },
            {
              "pitch": 59,
              "velocity": 36,
              "position": 10,
              "duration": 0.020833333333333332
            },
            {
              "pitch": 64,
              "velocity": 36,
              "position": 10,
              "duration": 0.020833333333333332
            },
            {
              "pitch": 64,
              "velocity": 68,
              "position": 10.5,
              "duration": 0.4895833333333333
            },
            {
              "pitch": 55,
              "velocity": 54,
              "position": 10.510416666666666,
              "duration": 0.4791666666666667
            },
            {
              "pitch": 59,
              "velocity": 58,
              "position": 10.510416666666666,
              "duration": 0.4791666666666667
            },
            {
              "pitch": 55,
              "velocity": 45,
              "position": 11,
              "duration": 0.020833333333333332
            },
            {
              "pitch": 59,
              "velocity": 47,
              "position": 11,
              "duration": 0.020833333333333332
            },
            {
              "pitch": 64,
              "velocity": 50,
              "position": 11,
              "duration": 0.020833333333333332
            },
            {
              "pitch": 55,
              "velocity": 54,
              "position": 11.479166666666666,
              "duration": 0.9895833333333334
            },
            {
              "pitch": 59,
              "velocity": 54,
              "position": 11.489583333333334,
              "duration": 0.9895833333333334
            },
            {
              "pitch": 64,
              "velocity": 72,
              "position": 11.5,
              "duration": 0.9895833333333334
            },
            {
              "pitch": 55,
              "velocity": 54,
              "position": 12.5,
              "duration": 0.4895833333333333
            },
            {
              "pitch": 59,
              "velocity": 56,
              "position": 12.5,
              "duration": 0.4895833333333333
            },
            {
              "pitch": 64,
              "velocity": 59,
              "position": 12.5,
              "duration": 0.4895833333333333
            },
            {
              "pitch": 55,
              "velocity": 45,
              "position": 13,
              "duration": 0.020833333333333332
            },
            {
              "pitch": 59,
              "velocity": 47,
              "position": 13,
              "duration": 0.020833333333333332
            },
            {
              "pitch": 64,
              "velocity": 50,
              "position": 13,
              "duration": 0.020833333333333332
            },
            {
              "pitch": 55,
              "velocity": 36,
              "position": 13.5,
              "duration": 0.020833333333333332
            },
            {
              "pitch": 59,
              "velocity": 36,
              "position": 13.5,
              "duration": 0.020833333333333332
            },
            {
              "pitch": 64,
              "velocity": 36,
              "position": 13.5,
              "duration": 0.020833333333333332
            },
            {
              "pitch": 55,
              "velocity": 59,
              "position": 13.979166666666666,
              "duration": 0.9895833333333334
            },
            {
              "pitch": 59,
              "velocity": 59,
              "position": 13.989583333333334,
              "duration": 0.9895833333333334
            },
            {
              "pitch": 64,
              "velocity": 61,
              "position": 14,
              "duration": 0.9895833333333334
            },
            {
              "pitch": 55,
              "velocity": 65,
              "position": 15.010416666666666,
              "duration": 0.4479166666666667
            },
            {
              "pitch": 59,
              "velocity": 63,
              "position": 15.020833333333334,
              "duration": 0.4479166666666667
            },
            {
              "pitch": 64,
              "velocity": 78,
              "position": 15,
              "duration": 0.4895833333333333
            },
            {
              "pitch": 55,
              "velocity": 45,
              "position": 15.5,
              "duration": 0.020833333333333332
            },
            {
              "pitch": 59,
              "velocity": 47,
              "position": 15.5,
              "duration": 0.020833333333333332
            },
            {
              "pitch": 64,
              "velocity": 50,
              "position": 15.5,
              "duration": 0.020833333333333332
            }
          ]
        },
        "12": {
          "ctab": {
            "srcChannel": 12,
            "name": "Piano",
            "accType": "CHORD2",
            "editable": false,
            "mutedNotes": [],
            "mutedChords": [],
            "autoStart": false,
            "sourceChordNote": 0,
            "sourceChordType": "Maj7",
            "ctb2Low": null,
            "ctb2Main": {
              "ntr": "ROOT_FIXED",
              "ntt": "CHORD",
              "bassOn": false,
              "chordRootUpperLimit": 6,
              "noteLowLimit": 0,
              "noteHighLimit": 127,
              "rtr": "PITCH_SHIFT"
            },
            "ctb2High": null
          },
          "notes": [
            {
              "pitch": 64,
              "velocity": 68,
              "position": 1,
              "duration": 0.3541666666666667
            },
            {
              "pitch": 59,
              "velocity": 71,
              "position": 1,
              "duration": 0.3958333333333333
            },
            {
              "pitch": 67,
              "velocity": 75,
              "position": 1,
              "duration": 0.4375
            },
            {
              "pitch": 59,
              "velocity": 68,
              "position": 2.5,
              "duration": 0.3541666666666667
            },
            {
              "pitch": 64,
              "velocity": 64,
              "position": 2.5,
              "duration": 0.3541666666666667
            },
            {
              "pitch": 67,
              "velocity": 70,
              "position": 2.5,
              "duration": 0.3645833333333333
            },
            {
              "pitch": 59,
              "velocity": 67,
              "position": 3.5,
              "duration": 1.9895833333333333
            },
            {
              "pitch": 64,
              "velocity": 65,
              "position": 3.5,
              "duration": 1.9895833333333333
            },
            {
              "pitch": 67,
              "velocity": 72,
              "position": 3.5,
              "duration": 1.9895833333333333
            },
            {
              "pitch": 59,
              "velocity": 70,
              "position": 5.5,
              "duration": 1.4895833333333333
            },
            {
              "pitch": 64,
              "velocity": 63,
              "position": 5.5,
              "duration": 1.4895833333333333
            },
            {
              "pitch": 67,
              "velocity": 79,
              "position": 5.5,
              "duration": 1.4895833333333333
            },
            {
              "pitch": 59,
              "velocity": 69,
              "position": 7,
              "duration": 0.28125
            },
            {
              "pitch": 64,
              "velocity": 65,
              "position": 7,
              "duration": 0.3125
            },
            {
              "pitch": 67,
              "velocity": 77,
              "position": 7,
              "duration": 0.3125
            },
            {
              "pitch": 64,
              "velocity": 68,
              "position": 9,
              "duration": 0.3541666666666667
            },
            {
              "pitch": 59,
              "velocity": 71,
              "position": 9,
              "duration": 0.3958333333333333
            },
            {
              "pitch": 67,
              "velocity": 75,
              "position": 9,
              "duration": 0.4375
            },
            {
              "pitch": 59,
              "velocity": 68,
              "position": 10.5,
              "duration": 0.3541666666666667
            },
            {
              "pitch": 64,
              "velocity": 64,
              "position": 10.5,
              "duration": 0.3541666666666667
            },
            {
              "pitch": 67,
              "velocity": 70,
              "position": 10.5,
              "duration": 0.3645833333333333
            },
            {
              "pitch": 67,
              "velocity": 72,
              "position": 11.5,
              "duration": 0.8229166666666666
            },
            {
              "pitch": 64,
              "velocity": 65,
              "position": 11.5,
              "duration": 0.84375
            },
            {
              "pitch": 59,
              "velocity": 67,
              "position": 11.5,
              "duration": 0.8645833333333334
            },
            {
              "pitch": 64,
              "velocity": 71,
              "position": 12.5,
              "duration": 0.3020833333333333
            },
            {
              "pitch": 59,
              "velocity": 65,
              "position": 12.5,
              "duration": 0.3333333333333333
            },
            {
              "pitch": 67,
              "velocity": 75,
              "position": 12.5,
              "duration": 0.3541666666666667
            },
            {
              "pitch": 59,
              "velocity": 70,
              "position": 14,
              "duration": 0.9895833333333334
            },
            {
              "pitch": 64,
              "velocity": 63,
              "position": 14,
              "duration": 0.9895833333333334
            },
            {
              "pitch": 67,
              "velocity": 79,
              "position": 14,
              "duration": 0.9895833333333334
            },
            {
              "pitch": 59,
              "velocity": 69,
              "position": 15,
              "duration": 0.28125
            },
            {
              "pitch": 64,
              "velocity": 65,
              "position": 15,
              "duration": 0.3125
            },
            {
              "pitch": 67,
              "velocity": 77,
              "position": 15,
              "duration": 0.3125
            }
          ]
        },
        "13": {
          "ctab": {
            "srcChannel": 13,
            "name": "Strings",
            "accType": "PAD",
            "editable": false,
            "mutedNotes": [],
            "mutedChords": [],
            "autoStart": false,
            "sourceChordNote": 0,
            "sourceChordType": "Maj7",
            "ctb2Low": null,
            "ctb2Main": {
              "ntr": "ROOT_FIXED",
              "ntt": "CHORD",
              "bassOn": false,
              "chordRootUpperLimit": 6,
              "noteLowLimit": 0,
              "noteHighLimit": 127,
              "rtr": "PITCH_SHIFT"
            },
            "ctb2High": null
          },
          "notes": [
            {
              "pitch": 55,
              "velocity": 40,
              "position": 0,
              "duration": 7.989583333333333
            },
            {
              "pitch": 59,
              "velocity": 40,
              "position": 0,
              "duration": 7.989583333333333
            },
            {
              "pitch": 64,
              "velocity": 40,
              "position": 0,
              "duration": 7.989583333333333
            },
            {
              "pitch": 55,
              "velocity": 40,
              "position": 8,
              "duration": 7.989583333333333
            },
            {
              "pitch": 59,
              "velocity": 40,
              "position": 8,
              "duration": 7.989583333333333
            },
            {
              "pitch": 64,
              "velocity": 40,
              "position": 8,
              "duration": 7.989583333333333
            }
          ]
        }
      }
    },
    "Fill_In_AA": {
      "type": "Fill_In_AA",
      "sizeInBeats": 4,
      "channels": {
        "1": {
          "ctab": {
            "srcChannel": 1,
            "name": "CC_Crash",
            "accType": "RHYTHM",
            "editable": false,
            "mutedNotes": [],
            "mutedChords": [
              "1+2+5",
              "sus4",
              "1+5",
              "1+8",
              "7aug",
              "Maj7aug",
              "7(#9)",
              "7(b13)",
              "7(b9)",
              "7(13)",
              "7#11",
              "7(9)",
              "7b5",
              "7sus4",
              "7th",
              "dim7",
              "dim",
              "minMaj7(9)",
              "minMaj7",
              "min7(11)",
              "min7(9)",
              "min(9)",
              "m7b5",
              "min7",
              "min6",
              "min",
              "aug",
              "Maj6(9)",
              "Maj7(9)",
              "Maj(9)",
              "Maj7#11",
              "Maj7",
              "Maj6",
              "Maj"
            ],
            "autoStart": true,
            "sourceChordNote": 0,
            "sourceChordType": "Maj",
            "ctb2Low": null,
            "ctb2Main": {
              "ntr": "ROOT_FIXED",
              "ntt": "BYPASS",
              "bassOn": false,
              "chordRootUpperLimit": 0,
              "noteLowLimit": 0,
              "noteHighLimit": 127,
              "rtr": "RETRIGGER"
            },
            "ctb2High": null
          },
          "notes": []
        },
        "3": {
          "ctab": {
            "srcChannel": 3,
            "name": "NylRoot",
            "accType": "CHORD1",
            "editable": false,
            "mutedNotes": [],
            "mutedChords": [
              "1+2+5",
              "sus4",
              "1+5",
              "1+8",
              "Maj7aug",
              "dim",
              "minMaj7(9)",
              "minMaj7",
              "min6",
              "min",
              "aug",
              "Maj7(9)",
              "Maj7#11",
              "Maj7",
              "Maj6",
              "Maj"
            ],
            "autoStart": false,
            "sourceChordNote": 0,
            "sourceChordType": "Maj7",
            "ctb2Low": null,
            "ctb2Main": {
              "ntr": "ROOT_TRANSPOSITION",
              "ntt": "MELODY",
              "bassOn": false,
              "chordRootUpperLimit": 6,
              "noteLowLimit": 40,
              "noteHighLimit": 127,
              "rtr": "PITCH_SHIFT"
            },
            "ctb2High": null
          },
          "notes": [
            {
              "pitch": 60,
              "velocity": 53,
              "position": 0.5,
              "duration": 0.3125
            },
            {
              "pitch": 60,
              "velocity": 58,
              "position": 2,
              "duration": 0.3125
            },
            {
              "pitch": 60,
              "velocity": 51,
              "position": 3,
              "duration": 0.3125
            }
          ]
        },
        "5": {
          "ctab": {
            "srcChannel": 5,
            "name": "StrRoot",
            "accType": "PAD",
            "editable": false,
            "mutedNotes": [],
            "mutedChords": [
              "1+2+5",
              "sus4",
              "1+5",
              "1+8",
              "Maj7aug",
              "dim",
              "minMaj7(9)",
              "minMaj7",
              "min6",
              "min",
              "aug",
              "Maj7(9)",
              "Maj7#11",
              "Maj7",
              "Maj6",
              "Maj"
            ],
            "autoStart": false,
            "sourceChordNote": 0,
            "sourceChordType": "Maj7",
            "ctb2Low": null,
            "ctb2Main": {
              "ntr": "ROOT_TRANSPOSITION",
              "ntt": "MELODY",
              "bassOn": false,
              "chordRootUpperLimit": 6,
              "noteLowLimit": 0,
              "noteHighLimit": 127,
              "rtr": "PITCH_SHIFT"
            },
            "ctb2High": null
          },
          "notes": []
        },
        "8": {
          "ctab": {
            "srcChannel": 8,
            "name": "CubanP",
            "accType": "SUBRHYTHM",
            "editable": false,
            "mutedNotes": [],
            "mutedChords": [],
            "autoStart": true,
            "sourceChordNote": 0,
            "sourceChordType": "Maj7",
            "ctb2Low": null,
            "ctb2Main": {
              "ntr": "ROOT_FIXED",
              "ntt": "BYPASS",
              "bassOn": false,
              "chordRootUpperLimit": 6,
              "noteLowLimit": 0,
              "noteHighLimit": 127,
              "rtr": "PITCH_SHIFT"
            },
            "ctb2High": null
          },
          "notes": [
            {
              "pitch": 73,
              "velocity": 27,
              "position": 0,
              "duration": 0.1875
            },
            {
              "pitch": 27,
              "velocity": 57,
              "position": 0.4895833333333333,
              "duration": 0.010416666666666666
            },
            {
              "pitch": 73,
              "velocity": 36,
              "position": 0.4895833333333333,
              "duration": 0.17708333333333334
            },
            {
              "pitch": 73,
              "velocity": 87,
              "position": 1,
              "duration": 0.25
            },
            {
              "pitch": 23,
              "velocity": 57,
              "position": 1.5,
              "duration": 0.010416666666666666
            },
            {
              "pitch": 37,
              "velocity": 57,
              "position": 1.5833333333333333,
              "duration": 0.010416666666666666
            },
            {
              "pitch": 36,
              "velocity": 64,
              "position": 1.7083333333333333,
              "duration": 0.010416666666666666
            },
            {
              "pitch": 73,
              "velocity": 27,
              "position": 1.4895833333333333,
              "duration": 0.2708333333333333
            },
            {
              "pitch": 25,
              "velocity": 106,
              "position": 2,
              "duration": 0.010416666666666666
            },
            {
              "pitch": 73,
              "velocity": 30,
              "position": 1.9895833333333333,
              "duration": 0.19791666666666666
            },
            {
              "pitch": 38,
              "velocity": 94,
              "position": 2.5416666666666665,
              "duration": 0.010416666666666666
            },
            {
              "pitch": 73,
              "velocity": 33,
              "position": 2.5,
              "duration": 0.15625
            },
            {
              "pitch": 25,
              "velocity": 93,
              "position": 3,
              "duration": 0.010416666666666666
            },
            {
              "pitch": 36,
              "velocity": 36,
              "position": 3.0625,
              "duration": 0.010416666666666666
            },
            {
              "pitch": 73,
              "velocity": 90,
              "position": 3,
              "duration": 0.1875
            },
            {
              "pitch": 33,
              "velocity": 38,
              "position": 3.53125,
              "duration": 0.010416666666666666
            },
            {
              "pitch": 73,
              "velocity": 22,
              "position": 3.4895833333333335,
              "duration": 0.19791666666666666
            }
          ]
        },
        "9": {
          "ctab": {
            "srcChannel": 9,
            "name": "Drums",
            "accType": "RHYTHM",
            "editable": false,
            "mutedNotes": [],
            "mutedChords": [],
            "autoStart": true,
            "sourceChordNote": 0,
            "sourceChordType": "Maj7",
            "ctb2Low": null,
            "ctb2Main": {
              "ntr": "ROOT_FIXED",
              "ntt": "BYPASS",
              "bassOn": false,
              "chordRootUpperLimit": 6,
              "noteLowLimit": 0,
              "noteHighLimit": 127,
              "rtr": "PITCH_SHIFT"
            },
            "ctb2High": null
          },
          "notes": [
            {
              "pitch": 33,
              "velocity": 80,
              "position": 0,
              "duration": 0.010416666666666666
            },
            {
              "pitch": 59,
              "velocity": 45,
              "position": 0,
              "duration": 0.010416666666666666
            },
            {
              "pitch": 33,
              "velocity": 64,
              "position": 1.5,
              "duration": 0.010416666666666666
            },
            {
              "pitch": 51,
              "velocity": 57,
              "position": 1.5,
              "duration": 0.010416666666666666
            },
            {
              "pitch": 33,
              "velocity": 80,
              "position": 2,
              "duration": 0.010416666666666666
            },
            {
              "pitch": 43,
              "velocity": 44,
              "position": 3,
              "duration": 0.010416666666666666
            },
            {
              "pitch": 44,
              "velocity": 45,
              "position": 3,
              "duration": 0.010416666666666666
            },
            {
              "pitch": 33,
              "velocity": 64,
              "position": 3.5,
              "duration": 0.010416666666666666
            },
            {
              "pitch": 41,
              "velocity": 52,
              "position": 3.5,
              "duration": 0.010416666666666666
            }
          ]
        },
        "10": {
          "ctab": {
            "srcChannel": 10,
            "name": "Bass",
            "accType": "BASS",
            "editable": false,
            "mutedNotes": [],
            "mutedChords": [],
            "autoStart": false,
            "sourceChordNote": 0,
            "sourceChordType": "Maj7",
            "ctb2Low": null,
            "ctb2Main": {
              "ntr": "ROOT_TRANSPOSITION",
              "ntt": "MELODY",
              "bassOn": true,
              "chordRootUpperLimit": 3,
              "noteLowLimit": 28,
              "noteHighLimit": 127,
              "rtr": "PITCH_SHIFT_TO_ROOT"
            },
            "ctb2High": null
          },
          "notes": [
            {
              "pitch": 24,
              "velocity": 83,
              "position": 0,
              "duration": 1.9895833333333333
            },
            {
              "pitch": 31,
              "velocity": 84,
              "position": 2,
              "duration": 1.9895833333333333
            }
          ]
        },
        "11": {
          "ctab": {
            "srcChannel": 11,
            "name": "NylonGtr",
            "accType": "CHORD1",
            "editable": false,
            "mutedNotes": [],
            "mutedChords": [],
            "autoStart": false,
            "sourceChordNote": 0,
            "sourceChordType": "Maj7",
            "ctb2Low": null,
            "ctb2Main": {
              "ntr": "ROOT_FIXED",
              "ntt": "CHORD",
              "bassOn": false,
              "chordRootUpperLimit": 6,
              "noteLowLimit": 0,
              "noteHighLimit": 127,
              "rtr": "PITCH_SHIFT"
            },
            "ctb2High": null
          },
          "notes": [
            {
              "pitch": 55,
              "velocity": 51,
              "position": 0.5,
              "duration": 0.3125
            },
            {
              "pitch": 59,
              "velocity": 51,
              "position": 0.5,
              "duration": 0.3125
            },
            {
              "pitch": 64,
              "velocity": 47,
              "position": 0.5,
              "duration": 0.3125
            },
            {
              "pitch": 55,
              "velocity": 57,
              "position": 2,
              "duration": 0.3125
            },
            {
              "pitch": 59,
              "velocity": 58,
              "position": 2,
              "duration": 0.3125
            },
            {
              "pitch": 64,
              "velocity": 51,
              "position": 2,
              "duration": 0.3125
            },
            {
              "pitch": 55,
              "velocity": 51,
              "position": 3,
              "duration": 0.3125
            },
            {
              "pitch": 59,
              "velocity": 51,
              "position": 3,
              "duration": 0.3125
            },
            {
              "pitch": 64,
              "velocity": 45,
              "position": 3,
              "duration": 0.3125
            }
          ]
        },
        "12": {
          "ctab": {
            "srcChannel": 12,
            "name": "Piano",
            "accType": "CHORD2",
            "editable": false,
            "mutedNotes": [],
            "mutedChords": [],
            "autoStart": false,
            "sourceChordNote": 0,
            "sourceChordType": "Maj7",
            "ctb2Low": null,
            "ctb2Main": {
              "ntr": "ROOT_FIXED",
              "ntt": "CHORD",
              "bassOn": false,
              "chordRootUpperLimit": 6,
              "noteLowLimit": 0,
              "noteHighLimit": 127,
              "rtr": "PITCH_SHIFT"
            },
            "ctb2High": null
          },
          "notes": [
            {
              "pitch": 55,
              "velocity": 59,
              "position": 0,
              "duration": 0.5
            },
            {
              "pitch": 59,
              "velocity": 56,
              "position": 0,
              "duration": 0.5
            },
            {
              "pitch": 64,
              "velocity": 61,
              "position": 0,
              "duration": 0.5
            },
            {
              "pitch": 55,
              "velocity": 59,
              "position": 1.5,
              "duration": 0.4895833333333333
            },
            {
              "pitch": 59,
              "velocity": 56,
              "position": 1.5,
              "duration": 0.4895833333333333
            },
            {
              "pitch": 64,
              "velocity": 61,
              "position": 1.5,
              "duration": 0.4895833333333333
            },
            {
              "pitch": 55,
              "velocity": 59,
              "position": 2.5,
              "duration": 1.4895833333333333
            },
            {
              "pitch": 59,
              "velocity": 56,
              "position": 2.5,
              "duration": 1.4895833333333333
            },
            {
              "pitch": 64,
              "velocity": 61,
              "position": 2.5,
              "duration": 1.4895833333333333
            }
          ]
        },
        "13": {
          "ctab": {
            "srcChannel": 13,
            "name": "Strings",
            "accType": "PAD",
            "editable": false,
            "mutedNotes": [],
            "mutedChords": [],
            "autoStart": false,
            "sourceChordNote": 0,
            "sourceChordType": "Maj7",
            "ctb2Low": null,
            "ctb2Main": {
              "ntr": "ROOT_FIXED",
              "ntt": "CHORD",
              "bassOn": false,
              "chordRootUpperLimit": 6,
              "noteLowLimit": 0,
              "noteHighLimit": 127,
              "rtr": "PITCH_SHIFT"
            },
            "ctb2High": null
          },
          "notes": []
        }
      }
    },
    "Fill_In_BB": {
      "type": "Fill_In_BB",
      "sizeInBeats": 4,
      "channels": {
        "1": {
          "ctab": {
            "srcChannel": 1,
            "name": "CC_Crash",
            "accType": "RHYTHM",
            "editable": false,
            "mutedNotes": [],
            "mutedChords": [
              "1+2+5",
              "sus4",
              "1+5",
              "1+8",
              "7aug",
              "Maj7aug",
              "7(#9)",
              "7(b13)",
              "7(b9)",
              "7(13)",
              "7#11",
              "7(9)",
              "7b5",
              "7sus4",
              "7th",
              "dim7",
              "dim",
              "minMaj7(9)",
              "minMaj7",
              "min7(11)",
              "min7(9)",
              "min(9)",
              "m7b5",
              "min7",
              "min6",
              "min",
              "aug",
              "Maj6(9)",
              "Maj7(9)",
              "Maj(9)",
              "Maj7#11",
              "Maj7",
              "Maj6",
              "Maj"
            ],
            "autoStart": true,
            "sourceChordNote": 0,
            "sourceChordType": "Maj",
            "ctb2Low": null,
            "ctb2Main": {
              "ntr": "ROOT_FIXED",
              "ntt": "BYPASS",
              "bassOn": false,
              "chordRootUpperLimit": 0,
              "noteLowLimit": 0,
              "noteHighLimit": 127,
              "rtr": "RETRIGGER"
            },
            "ctb2High": null
          },
          "notes": []
        },
        "3": {
          "ctab": {
            "srcChannel": 3,
            "name": "NylRoot",
            "accType": "CHORD1",
            "editable": false,
            "mutedNotes": [],
            "mutedChords": [
              "1+2+5",
              "sus4",
              "1+5",
              "1+8",
              "Maj7aug",
              "dim",
              "minMaj7(9)",
              "minMaj7",
              "min6",
              "min",
              "aug",
              "Maj7(9)",
              "Maj7#11",
              "Maj7",
              "Maj6",
              "Maj"
            ],
            "autoStart": false,
            "sourceChordNote": 0,
            "sourceChordType": "Maj7",
            "ctb2Low": null,
            "ctb2Main": {
              "ntr": "ROOT_TRANSPOSITION",
              "ntt": "MELODY",
              "bassOn": false,
              "chordRootUpperLimit": 6,
              "noteLowLimit": 40,
              "noteHighLimit": 127,
              "rtr": "PITCH_SHIFT"
            },
            "ctb2High": null
          },
          "notes": []
        },
        "5": {
          "ctab": {
            "srcChannel": 5,
            "name": "StrRoot",
            "accType": "PAD",
            "editable": false,
            "mutedNotes": [],
            "mutedChords": [
              "1+2+5",
              "sus4",
              "1+5",
              "1+8",
              "Maj7aug",
              "dim",
              "minMaj7(9)",
              "minMaj7",
              "min6",
              "min",
              "aug",
              "Maj7(9)",
              "Maj7#11",
              "Maj7",
              "Maj6",
              "Maj"
            ],
            "autoStart": false,
            "sourceChordNote": 0,
            "sourceChordType": "Maj7",
            "ctb2Low": null,
            "ctb2Main": {
              "ntr": "ROOT_TRANSPOSITION",
              "ntt": "MELODY",
              "bassOn": false,
              "chordRootUpperLimit": 6,
              "noteLowLimit": 0,
              "noteHighLimit": 127,
              "rtr": "PITCH_SHIFT"
            },
            "ctb2High": null
          },
          "notes": [
            {
              "pitch": 60,
              "velocity": 40,
              "position": 0,
              "duration": 3.9895833333333335
            }
          ]
        },
        "8": {
          "ctab": {
            "srcChannel": 8,
            "name": "CubanP",
            "accType": "SUBRHYTHM",
            "editable": false,
            "mutedNotes": [],
            "mutedChords": [],
            "autoStart": true,
            "sourceChordNote": 0,
            "sourceChordType": "Maj7",
            "ctb2Low": null,
            "ctb2Main": {
              "ntr": "ROOT_FIXED",
              "ntt": "BYPASS",
              "bassOn": false,
              "chordRootUpperLimit": 6,
              "noteLowLimit": 0,
              "noteHighLimit": 127,
              "rtr": "PITCH_SHIFT"
            },
            "ctb2High": null
          },
          "notes": [
            {
              "pitch": 73,
              "velocity": 27,
              "position": 0,
              "duration": 0.1875
            },
            {
              "pitch": 27,
              "velocity": 57,
              "position": 0.4895833333333333,
              "duration": 0.010416666666666666
            },
            {
              "pitch": 73,
              "velocity": 36,
              "position": 0.4895833333333333,
              "duration": 0.17708333333333334
            },
            {
              "pitch": 73,
              "velocity": 87,
              "position": 1,
              "duration": 0.25
            },
            {
              "pitch": 23,
              "velocity": 57,
              "position": 1.4895833333333333,
              "duration": 0.010416666666666666
            },
            {
              "pitch": 73,
              "velocity": 27,
              "position": 1.4895833333333333,
              "duration": 0.2708333333333333
            },
            {
              "pitch": 25,
              "velocity": 106,
              "position": 1.9895833333333333,
              "duration": 0.010416666666666666
            },
            {
              "pitch": 73,
              "velocity": 30,
              "position": 1.9895833333333333,
              "duration": 0.19791666666666666
            },
            {
              "pitch": 73,
              "velocity": 33,
              "position": 2.5,
              "duration": 0.15625
            },
            {
              "pitch": 25,
              "velocity": 93,
              "position": 3,
              "duration": 0.010416666666666666
            },
            {
              "pitch": 73,
              "velocity": 90,
              "position": 3,
              "duration": 0.1875
            },
            {
              "pitch": 73,
              "velocity": 22,
              "position": 3.4895833333333335,
              "duration": 0.19791666666666666
            }
          ]
        },
        "9": {
          "ctab": {
            "srcChannel": 9,
            "name": "Drums",
            "accType": "RHYTHM",
            "editable": false,
            "mutedNotes": [],
            "mutedChords": [],
            "autoStart": true,
            "sourceChordNote": 0,
            "sourceChordType": "Maj7",
            "ctb2Low": null,
            "ctb2Main": {
              "ntr": "ROOT_FIXED",
              "ntt": "BYPASS",
              "bassOn": false,
              "chordRootUpperLimit": 6,
              "noteLowLimit": 0,
              "noteHighLimit": 127,
              "rtr": "PITCH_SHIFT"
            },
            "ctb2High": null
          },
          "notes": [
            {
              "pitch": 33,
              "velocity": 80,
              "position": 0,
              "duration": 0.010416666666666666
            },
            {
              "pitch": 42,
              "velocity": 67,
              "position": 0,
              "duration": 0.010416666666666666
            },
            {
              "pitch": 42,
              "velocity": 39,
              "position": 0.5,
              "duration": 0.010416666666666666
            },
            {
              "pitch": 37,
              "velocity": 85,
              "position": 1,
              "duration": 0.010416666666666666
            },
            {
              "pitch": 42,
              "velocity": 67,
              "position": 1,
              "duration": 0.010416666666666666
            },
            {
              "pitch": 33,
              "velocity": 64,
              "position": 1.5,
              "duration": 0.010416666666666666
            },
            {
              "pitch": 46,
              "velocity": 59,
              "position": 1.5,
              "duration": 0.010416666666666666
            },
            {
              "pitch": 37,
              "velocity": 94,
              "position": 2.5,
              "duration": 0.010416666666666666
            },
            {
              "pitch": 42,
              "velocity": 73,
              "position": 2.5,
              "duration": 0.010416666666666666
            },
            {
              "pitch": 33,
              "velocity": 80,
              "position": 3,
              "duration": 0.010416666666666666
            },
            {
              "pitch": 46,
              "velocity": 51,
              "position": 3,
              "duration": 0.010416666666666666
            }
          ]
        },
        "10": {
          "ctab": {
            "srcChannel": 10,
            "name": "Bass",
            "accType": "BASS",
            "editable": false,
            "mutedNotes": [],
            "mutedChords": [],
            "autoStart": false,
            "sourceChordNote": 0,
            "sourceChordType": "Maj7",
            "ctb2Low": null,
            "ctb2Main": {
              "ntr": "ROOT_TRANSPOSITION",
              "ntt": "MELODY",
              "bassOn": true,
              "chordRootUpperLimit": 3,
              "noteLowLimit": 28,
              "noteHighLimit": 127,
              "rtr": "PITCH_SHIFT_TO_ROOT"
            },
            "ctb2High": null
          },
          "notes": [
            {
              "pitch": 12,
              "velocity": 87,
              "position": 0,
              "duration": 1.4895833333333333
            },
            {
              "pitch": 19,
              "velocity": 65,
              "position": 1.5,
              "duration": 1.4895833333333333
            },
            {
              "pitch": 12,
              "velocity": 63,
              "position": 3,
              "duration": 0.9895833333333334
            }
          ]
        },
        "11": {
          "ctab": {
            "srcChannel": 11,
            "name": "NylonGtr",
            "accType": "CHORD1",
            "editable": false,
            "mutedNotes": [],
            "mutedChords": [],
            "autoStart": false,
            "sourceChordNote": 0,
            "sourceChordType": "Maj7",
            "ctb2Low": null,
            "ctb2Main": {
              "ntr": "ROOT_FIXED",
              "ntt": "CHORD",
              "bassOn": false,
              "chordRootUpperLimit": 6,
              "noteLowLimit": 0,
              "noteHighLimit": 127,
              "rtr": "PITCH_SHIFT"
            },
            "ctb2High": null
          },
          "notes": [
            {
              "pitch": 64,
              "velocity": 67,
              "position": 0.5,
              "duration": 0.9895833333333334
            },
            {
              "pitch": 55,
              "velocity": 69,
              "position": 0,
              "duration": 3.9895833333333335
            },
            {
              "pitch": 64,
              "velocity": 60,
              "position": 1.5,
              "duration": 2.4895833333333335
            },
            {
              "pitch": 59,
              "velocity": 69,
              "position": 1,
              "duration": 2.9895833333333335
            }
          ]
        },
        "12": {
          "ctab": {
            "srcChannel": 12,
            "name": "Piano",
            "accType": "CHORD2",
            "editable": false,
            "mutedNotes": [],
            "mutedChords": [],
            "autoStart": false,
            "sourceChordNote": 0,
            "sourceChordType": "Maj7",
            "ctb2Low": null,
            "ctb2Main": {
              "ntr": "ROOT_FIXED",
              "ntt": "CHORD",
              "bassOn": false,
              "chordRootUpperLimit": 6,
              "noteLowLimit": 0,
              "noteHighLimit": 127,
              "rtr": "PITCH_SHIFT"
            },
            "ctb2High": null
          },
          "notes": [
            {
              "pitch": 55,
              "velocity": 61,
              "position": 0,
              "duration": 0.4895833333333333
            },
            {
              "pitch": 59,
              "velocity": 60,
              "position": 0,
              "duration": 0.4895833333333333
            },
            {
              "pitch": 64,
              "velocity": 59,
              "position": 0,
              "duration": 0.4895833333333333
            },
            {
              "pitch": 55,
              "velocity": 71,
              "position": 1.5,
              "duration": 1.2395833333333333
            },
            {
              "pitch": 59,
              "velocity": 61,
              "position": 1.5,
              "duration": 1.2395833333333333
            },
            {
              "pitch": 64,
              "velocity": 60,
              "position": 1.5,
              "duration": 1.2395833333333333
            },
            {
              "pitch": 55,
              "velocity": 60,
              "position": 3,
              "duration": 0.5729166666666666
            },
            {
              "pitch": 59,
              "velocity": 63,
              "position": 3,
              "duration": 0.5729166666666666
            },
            {
              "pitch": 64,
              "velocity": 66,
              "position": 3,
              "duration": 0.5729166666666666
            }
          ]
        },
        "13": {
          "ctab": {
            "srcChannel": 13,
            "name": "Strings",
            "accType": "PAD",
            "editable": false,
            "mutedNotes": [],
            "mutedChords": [],
            "autoStart": false,
            "sourceChordNote": 0,
            "sourceChordType": "Maj7",
            "ctb2Low": null,
            "ctb2Main": {
              "ntr": "ROOT_FIXED",
              "ntt": "CHORD",
              "bassOn": false,
              "chordRootUpperLimit": 6,
              "noteLowLimit": 0,
              "noteHighLimit": 127,
              "rtr": "PITCH_SHIFT"
            },
            "ctb2High": null
          },
          "notes": [
            {
              "pitch": 55,
              "velocity": 40,
              "position": 0,
              "duration": 3.9895833333333335
            },
            {
              "pitch": 59,
              "velocity": 40,
              "position": 0,
              "duration": 3.9895833333333335
            },
            {
              "pitch": 64,
              "velocity": 40,
              "position": 0,
              "duration": 3.9895833333333335
            }
          ]
        }
      }
    },
    "Fill_In_CC": {
      "type": "Fill_In_CC",
      "sizeInBeats": 4,
      "channels": {
        "1": {
          "ctab": {
            "srcChannel": 1,
            "name": "CC_Crash",
            "accType": "RHYTHM",
            "editable": false,
            "mutedNotes": [],
            "mutedChords": [
              "1+2+5",
              "sus4",
              "1+5",
              "1+8",
              "7aug",
              "Maj7aug",
              "7(#9)",
              "7(b13)",
              "7(b9)",
              "7(13)",
              "7#11",
              "7(9)",
              "7b5",
              "7sus4",
              "7th",
              "dim7",
              "dim",
              "minMaj7(9)",
              "minMaj7",
              "min7(11)",
              "min7(9)",
              "min(9)",
              "m7b5",
              "min7",
              "min6",
              "min",
              "aug",
              "Maj6(9)",
              "Maj7(9)",
              "Maj(9)",
              "Maj7#11",
              "Maj7",
              "Maj6",
              "Maj"
            ],
            "autoStart": true,
            "sourceChordNote": 0,
            "sourceChordType": "Maj",
            "ctb2Low": null,
            "ctb2Main": {
              "ntr": "ROOT_FIXED",
              "ntt": "BYPASS",
              "bassOn": false,
              "chordRootUpperLimit": 0,
              "noteLowLimit": 0,
              "noteHighLimit": 127,
              "rtr": "RETRIGGER"
            },
            "ctb2High": null
          },
          "notes": []
        },
        "3": {
          "ctab": {
            "srcChannel": 3,
            "name": "NylRoot",
            "accType": "CHORD1",
            "editable": false,
            "mutedNotes": [],
            "mutedChords": [
              "1+2+5",
              "sus4",
              "1+5",
              "1+8",
              "Maj7aug",
              "dim",
              "minMaj7(9)",
              "minMaj7",
              "min6",
              "min",
              "aug",
              "Maj7(9)",
              "Maj7#11",
              "Maj7",
              "Maj6",
              "Maj"
            ],
            "autoStart": false,
            "sourceChordNote": 0,
            "sourceChordType": "Maj7",
            "ctb2Low": null,
            "ctb2Main": {
              "ntr": "ROOT_TRANSPOSITION",
              "ntt": "MELODY",
              "bassOn": false,
              "chordRootUpperLimit": 6,
              "noteLowLimit": 40,
              "noteHighLimit": 127,
              "rtr": "PITCH_SHIFT"
            },
            "ctb2High": null
          },
          "notes": [
            {
              "pitch": 60,
              "velocity": 76,
              "position": 0.5,
              "duration": 1.46875
            },
            {
              "pitch": 60,
              "velocity": 68,
              "position": 1.9895833333333333,
              "duration": 0.28125
            },
            {
              "pitch": 60,
              "velocity": 65,
              "position": 2.9895833333333335,
              "duration": 0.375
            }
          ]
        },
        "5": {
          "ctab": {
            "srcChannel": 5,
            "name": "StrRoot",
            "accType": "PAD",
            "editable": false,
            "mutedNotes": [],
            "mutedChords": [
              "1+2+5",
              "sus4",
              "1+5",
              "1+8",
              "Maj7aug",
              "dim",
              "minMaj7(9)",
              "minMaj7",
              "min6",
              "min",
              "aug",
              "Maj7(9)",
              "Maj7#11",
              "Maj7",
              "Maj6",
              "Maj"
            ],
            "autoStart": false,
            "sourceChordNote": 0,
            "sourceChordType": "Maj7",
            "ctb2Low": null,
            "ctb2Main": {
              "ntr": "ROOT_TRANSPOSITION",
              "ntt": "MELODY",
              "bassOn": false,
              "chordRootUpperLimit": 6,
              "noteLowLimit": 0,
              "noteHighLimit": 127,
              "rtr": "PITCH_SHIFT"
            },
            "ctb2High": null
          },
          "notes": [
            {
              "pitch": 60,
              "velocity": 40,
              "position": 0,
              "duration": 3.9895833333333335
            }
          ]
        },
        "8": {
          "ctab": {
            "srcChannel": 8,
            "name": "CubanP",
            "accType": "SUBRHYTHM",
            "editable": false,
            "mutedNotes": [],
            "mutedChords": [],
            "autoStart": true,
            "sourceChordNote": 0,
            "sourceChordType": "Maj7",
            "ctb2Low": null,
            "ctb2Main": {
              "ntr": "ROOT_FIXED",
              "ntt": "BYPASS",
              "bassOn": false,
              "chordRootUpperLimit": 6,
              "noteLowLimit": 0,
              "noteHighLimit": 127,
              "rtr": "PITCH_SHIFT"
            },
            "ctb2High": null
          },
          "notes": [
            {
              "pitch": 31,
              "velocity": 79,
              "position": 0,
              "duration": 0.010416666666666666
            },
            {
              "pitch": 73,
              "velocity": 34,
              "position": 0,
              "duration": 0.16666666666666666
            },
            {
              "pitch": 73,
              "velocity": 27,
              "position": 0.4895833333333333,
              "duration": 0.125
            },
            {
              "pitch": 31,
              "velocity": 72,
              "position": 1,
              "duration": 0.010416666666666666
            },
            {
              "pitch": 73,
              "velocity": 93,
              "position": 0.9895833333333334,
              "duration": 0.1875
            },
            {
              "pitch": 29,
              "velocity": 27,
              "position": 1.4895833333333333,
              "duration": 0.010416666666666666
            },
            {
              "pitch": 73,
              "velocity": 36,
              "position": 1.5,
              "duration": 0.19791666666666666
            },
            {
              "pitch": 25,
              "velocity": 57,
              "position": 1.9895833333333333,
              "duration": 0.010416666666666666
            },
            {
              "pitch": 73,
              "velocity": 38,
              "position": 2,
              "duration": 0.20833333333333334
            },
            {
              "pitch": 30,
              "velocity": 123,
              "position": 2.5,
              "duration": 0.010416666666666666
            },
            {
              "pitch": 73,
              "velocity": 32,
              "position": 2.5,
              "duration": 0.16666666666666666
            },
            {
              "pitch": 31,
              "velocity": 30,
              "position": 3,
              "duration": 0.010416666666666666
            },
            {
              "pitch": 73,
              "velocity": 91,
              "position": 3,
              "duration": 0.1875
            },
            {
              "pitch": 31,
              "velocity": 115,
              "position": 3.4895833333333335,
              "duration": 0.010416666666666666
            },
            {
              "pitch": 73,
              "velocity": 27,
              "position": 3.5,
              "duration": 0.21875
            }
          ]
        },
        "9": {
          "ctab": {
            "srcChannel": 9,
            "name": "Drums",
            "accType": "RHYTHM",
            "editable": false,
            "mutedNotes": [],
            "mutedChords": [],
            "autoStart": true,
            "sourceChordNote": 0,
            "sourceChordType": "Maj7",
            "ctb2Low": null,
            "ctb2Main": {
              "ntr": "ROOT_FIXED",
              "ntt": "BYPASS",
              "bassOn": false,
              "chordRootUpperLimit": 6,
              "noteLowLimit": 0,
              "noteHighLimit": 127,
              "rtr": "PITCH_SHIFT"
            },
            "ctb2High": null
          },
          "notes": [
            {
              "pitch": 33,
              "velocity": 84,
              "position": 0,
              "duration": 0.010416666666666666
            },
            {
              "pitch": 57,
              "velocity": 56,
              "position": 0,
              "duration": 0.010416666666666666
            },
            {
              "pitch": 37,
              "velocity": 62,
              "position": 0.5,
              "duration": 0.010416666666666666
            },
            {
              "pitch": 59,
              "velocity": 20,
              "position": 0.5,
              "duration": 0.010416666666666666
            },
            {
              "pitch": 37,
              "velocity": 96,
              "position": 1,
              "duration": 0.010416666666666666
            },
            {
              "pitch": 44,
              "velocity": 45,
              "position": 1,
              "duration": 0.010416666666666666
            },
            {
              "pitch": 59,
              "velocity": 50,
              "position": 1,
              "duration": 0.010416666666666666
            },
            {
              "pitch": 33,
              "velocity": 64,
              "position": 1.5,
              "duration": 0.010416666666666666
            },
            {
              "pitch": 59,
              "velocity": 20,
              "position": 1.5,
              "duration": 0.010416666666666666
            },
            {
              "pitch": 33,
              "velocity": 75,
              "position": 2,
              "duration": 0.010416666666666666
            },
            {
              "pitch": 37,
              "velocity": 62,
              "position": 2,
              "duration": 0.010416666666666666
            },
            {
              "pitch": 37,
              "velocity": 96,
              "position": 2.5,
              "duration": 0.010416666666666666
            },
            {
              "pitch": 59,
              "velocity": 35,
              "position": 2.5,
              "duration": 0.010416666666666666
            },
            {
              "pitch": 41,
              "velocity": 73,
              "position": 3,
              "duration": 0.010416666666666666
            },
            {
              "pitch": 44,
              "velocity": 45,
              "position": 3,
              "duration": 0.010416666666666666
            },
            {
              "pitch": 59,
              "velocity": 20,
              "position": 3,
              "duration": 0.010416666666666666
            },
            {
              "pitch": 33,
              "velocity": 56,
              "position": 3.5,
              "duration": 0.010416666666666666
            },
            {
              "pitch": 37,
              "velocity": 96,
              "position": 3.5,
              "duration": 0.010416666666666666
            },
            {
              "pitch": 59,
              "velocity": 54,
              "position": 3.5,
              "duration": 0.010416666666666666
            }
          ]
        },
        "10": {
          "ctab": {
            "srcChannel": 10,
            "name": "Bass",
            "accType": "BASS",
            "editable": false,
            "mutedNotes": [],
            "mutedChords": [],
            "autoStart": false,
            "sourceChordNote": 0,
            "sourceChordType": "Maj7",
            "ctb2Low": null,
            "ctb2Main": {
              "ntr": "ROOT_TRANSPOSITION",
              "ntt": "MELODY",
              "bassOn": true,
              "chordRootUpperLimit": 3,
              "noteLowLimit": 28,
              "noteHighLimit": 127,
              "rtr": "PITCH_SHIFT_TO_ROOT"
            },
            "ctb2High": null
          },
          "notes": [
            {
              "pitch": 24,
              "velocity": 91,
              "position": 0,
              "duration": 1.2916666666666667
            },
            {
              "pitch": 31,
              "velocity": 60,
              "position": 1.5,
              "duration": 0.20833333333333334
            },
            {
              "pitch": 31,
              "velocity": 96,
              "position": 2,
              "duration": 1.09375
            },
            {
              "pitch": 31,
              "velocity": 74,
              "position": 3.5,
              "duration": 0.25
            }
          ]
        },
        "11": {
          "ctab": {
            "srcChannel": 11,
            "name": "NylonGtr",
            "accType": "CHORD1",
            "editable": false,
            "mutedNotes": [],
            "mutedChords": [],
            "autoStart": false,
            "sourceChordNote": 0,
            "sourceChordType": "Maj7",
            "ctb2Low": null,
            "ctb2Main": {
              "ntr": "ROOT_FIXED",
              "ntt": "CHORD",
              "bassOn": false,
              "chordRootUpperLimit": 6,
              "noteLowLimit": 0,
              "noteHighLimit": 127,
              "rtr": "PITCH_SHIFT"
            },
            "ctb2High": null
          },
          "notes": [
            {
              "pitch": 59,
              "velocity": 71,
              "position": 0.4791666666666667,
              "duration": 1.4895833333333333
            },
            {
              "pitch": 64,
              "velocity": 76,
              "position": 0.5,
              "duration": 1.46875
            },
            {
              "pitch": 67,
              "velocity": 76,
              "position": 0.5,
              "duration": 1.46875
            },
            {
              "pitch": 59,
              "velocity": 68,
              "position": 1.9895833333333333,
              "duration": 0.28125
            },
            {
              "pitch": 55,
              "velocity": 61,
              "position": 1.9791666666666667,
              "duration": 0.3229166666666667
            },
            {
              "pitch": 64,
              "velocity": 65,
              "position": 2,
              "duration": 0.3645833333333333
            },
            {
              "pitch": 59,
              "velocity": 65,
              "position": 2.9895833333333335,
              "duration": 0.375
            },
            {
              "pitch": 55,
              "velocity": 68,
              "position": 3,
              "duration": 0.375
            },
            {
              "pitch": 64,
              "velocity": 69,
              "position": 2.9791666666666665,
              "duration": 0.4166666666666667
            }
          ]
        },
        "12": {
          "ctab": {
            "srcChannel": 12,
            "name": "Piano",
            "accType": "CHORD2",
            "editable": false,
            "mutedNotes": [],
            "mutedChords": [],
            "autoStart": false,
            "sourceChordNote": 0,
            "sourceChordType": "Maj7",
            "ctb2Low": null,
            "ctb2Main": {
              "ntr": "ROOT_FIXED",
              "ntt": "CHORD",
              "bassOn": false,
              "chordRootUpperLimit": 6,
              "noteLowLimit": 0,
              "noteHighLimit": 127,
              "rtr": "PITCH_SHIFT"
            },
            "ctb2High": null
          },
          "notes": [
            {
              "pitch": 55,
              "velocity": 60,
              "position": 0.5,
              "duration": 1.1041666666666667
            },
            {
              "pitch": 64,
              "velocity": 71,
              "position": 0.5,
              "duration": 1.1770833333333333
            },
            {
              "pitch": 59,
              "velocity": 61,
              "position": 0.5,
              "duration": 1.1979166666666667
            },
            {
              "pitch": 55,
              "velocity": 62,
              "position": 2,
              "duration": 0.3645833333333333
            },
            {
              "pitch": 64,
              "velocity": 62,
              "position": 2,
              "duration": 0.3645833333333333
            },
            {
              "pitch": 59,
              "velocity": 62,
              "position": 2,
              "duration": 0.375
            },
            {
              "pitch": 55,
              "velocity": 59,
              "position": 3,
              "duration": 0.4166666666666667
            },
            {
              "pitch": 59,
              "velocity": 59,
              "position": 3,
              "duration": 0.4270833333333333
            },
            {
              "pitch": 64,
              "velocity": 59,
              "position": 3,
              "duration": 0.5
            }
          ]
        },
        "13": {
          "ctab": {
            "srcChannel": 13,
            "name": "Strings",
            "accType": "PAD",
            "editable": false,
            "mutedNotes": [],
            "mutedChords": [],
            "autoStart": false,
            "sourceChordNote": 0,
            "sourceChordType": "Maj7",
            "ctb2Low": null,
            "ctb2Main": {
              "ntr": "ROOT_FIXED",
              "ntt": "CHORD",
              "bassOn": false,
              "chordRootUpperLimit": 6,
              "noteLowLimit": 0,
              "noteHighLimit": 127,
              "rtr": "PITCH_SHIFT"
            },
            "ctb2High": null
          },
          "notes": [
            {
              "pitch": 55,
              "velocity": 40,
              "position": 0,
              "duration": 3.9895833333333335
            },
            {
              "pitch": 59,
              "velocity": 40,
              "position": 0,
              "duration": 3.9895833333333335
            },
            {
              "pitch": 64,
              "velocity": 40,
              "position": 0,
              "duration": 3.9895833333333335
            }
          ]
        }
      }
    },
    "Fill_In_DD": {
      "type": "Fill_In_DD",
      "sizeInBeats": 4,
      "channels": {
        "1": {
          "ctab": {
            "srcChannel": 1,
            "name": "CC_Crash",
            "accType": "RHYTHM",
            "editable": false,
            "mutedNotes": [],
            "mutedChords": [
              "1+2+5",
              "sus4",
              "1+5",
              "1+8",
              "7aug",
              "Maj7aug",
              "7(#9)",
              "7(b13)",
              "7(b9)",
              "7(13)",
              "7#11",
              "7(9)",
              "7b5",
              "7sus4",
              "7th",
              "dim7",
              "dim",
              "minMaj7(9)",
              "minMaj7",
              "min7(11)",
              "min7(9)",
              "min(9)",
              "m7b5",
              "min7",
              "min6",
              "min",
              "aug",
              "Maj6(9)",
              "Maj7(9)",
              "Maj(9)",
              "Maj7#11",
              "Maj7",
              "Maj6",
              "Maj"
            ],
            "autoStart": true,
            "sourceChordNote": 0,
            "sourceChordType": "Maj",
            "ctb2Low": null,
            "ctb2Main": {
              "ntr": "ROOT_FIXED",
              "ntt": "BYPASS",
              "bassOn": false,
              "chordRootUpperLimit": 0,
              "noteLowLimit": 0,
              "noteHighLimit": 127,
              "rtr": "RETRIGGER"
            },
            "ctb2High": null
          },
          "notes": []
        },
        "3": {
          "ctab": {
            "srcChannel": 3,
            "name": "NylRoot",
            "accType": "CHORD1",
            "editable": false,
            "mutedNotes": [],
            "mutedChords": [
              "1+2+5",
              "sus4",
              "1+5",
              "1+8",
              "Maj7aug",
              "dim",
              "minMaj7(9)",
              "minMaj7",
              "min6",
              "min",
              "aug",
              "Maj7(9)",
              "Maj7#11",
              "Maj7",
              "Maj6",
              "Maj"
            ],
            "autoStart": false,
            "sourceChordNote": 0,
            "sourceChordType": "Maj7",
            "ctb2Low": null,
            "ctb2Main": {
              "ntr": "ROOT_TRANSPOSITION",
              "ntt": "MELODY",
              "bassOn": false,
              "chordRootUpperLimit": 6,
              "noteLowLimit": 40,
              "noteHighLimit": 127,
              "rtr": "PITCH_SHIFT"
            },
            "ctb2High": null
          },
          "notes": [
            {
              "pitch": 60,
              "velocity": 61,
              "position": 1,
              "duration": 1.4895833333333333
            },
            {
              "pitch": 60,
              "velocity": 73,
              "position": 2.5,
              "duration": 1.4895833333333333
            }
          ]
        },
        "5": {
          "ctab": {
            "srcChannel": 5,
            "name": "StrRoot",
            "accType": "PAD",
            "editable": false,
            "mutedNotes": [],
            "mutedChords": [
              "1+2+5",
              "sus4",
              "1+5",
              "1+8",
              "Maj7aug",
              "dim",
              "minMaj7(9)",
              "minMaj7",
              "min6",
              "min",
              "aug",
              "Maj7(9)",
              "Maj7#11",
              "Maj7",
              "Maj6",
              "Maj"
            ],
            "autoStart": false,
            "sourceChordNote": 0,
            "sourceChordType": "Maj7",
            "ctb2Low": null,
            "ctb2Main": {
              "ntr": "ROOT_TRANSPOSITION",
              "ntt": "MELODY",
              "bassOn": false,
              "chordRootUpperLimit": 6,
              "noteLowLimit": 0,
              "noteHighLimit": 127,
              "rtr": "PITCH_SHIFT"
            },
            "ctb2High": null
          },
          "notes": [
            {
              "pitch": 60,
              "velocity": 40,
              "position": 0,
              "duration": 3.9895833333333335
            }
          ]
        },
        "8": {
          "ctab": {
            "srcChannel": 8,
            "name": "CubanP",
            "accType": "SUBRHYTHM",
            "editable": false,
            "mutedNotes": [],
            "mutedChords": [],
            "autoStart": true,
            "sourceChordNote": 0,
            "sourceChordType": "Maj7",
            "ctb2Low": null,
            "ctb2Main": {
              "ntr": "ROOT_FIXED",
              "ntt": "BYPASS",
              "bassOn": false,
              "chordRootUpperLimit": 6,
              "noteLowLimit": 0,
              "noteHighLimit": 127,
              "rtr": "PITCH_SHIFT"
            },
            "ctb2High": null
          },
          "notes": [
            {
              "pitch": 25,
              "velocity": 58,
              "position": 0,
              "duration": 0.010416666666666666
            },
            {
              "pitch": 68,
              "velocity": 68,
              "position": 0,
              "duration": 0.010416666666666666
            },
            {
              "pitch": 73,
              "velocity": 43,
              "position": 0,
              "duration": 0.010416666666666666
            },
            {
              "pitch": 73,
              "velocity": 32,
              "position": 0.4895833333333333,
              "duration": 0.010416666666666666
            },
            {
              "pitch": 73,
              "velocity": 95,
              "position": 0.9895833333333334,
              "duration": 0.010416666666666666
            },
            {
              "pitch": 29,
              "velocity": 100,
              "position": 1,
              "duration": 0.010416666666666666
            },
            {
              "pitch": 64,
              "velocity": 67,
              "position": 1,
              "duration": 0.010416666666666666
            },
            {
              "pitch": 73,
              "velocity": 36,
              "position": 1.4895833333333333,
              "duration": 0.010416666666666666
            },
            {
              "pitch": 64,
              "velocity": 59,
              "position": 1.5,
              "duration": 0.010416666666666666
            },
            {
              "pitch": 68,
              "velocity": 43,
              "position": 1.5,
              "duration": 0.010416666666666666
            },
            {
              "pitch": 25,
              "velocity": 74,
              "position": 2,
              "duration": 0.010416666666666666
            },
            {
              "pitch": 68,
              "velocity": 68,
              "position": 2,
              "duration": 0.010416666666666666
            },
            {
              "pitch": 73,
              "velocity": 40,
              "position": 2,
              "duration": 0.010416666666666666
            },
            {
              "pitch": 37,
              "velocity": 73,
              "position": 2.4895833333333335,
              "duration": 0.010416666666666666
            },
            {
              "pitch": 28,
              "velocity": 105,
              "position": 2.5,
              "duration": 0.010416666666666666
            },
            {
              "pitch": 73,
              "velocity": 38,
              "position": 2.5,
              "duration": 0.010416666666666666
            },
            {
              "pitch": 73,
              "velocity": 94,
              "position": 2.9895833333333335,
              "duration": 0.010416666666666666
            },
            {
              "pitch": 64,
              "velocity": 82,
              "position": 3,
              "duration": 0.010416666666666666
            },
            {
              "pitch": 36,
              "velocity": 53,
              "position": 3.4895833333333335,
              "duration": 0.010416666666666666
            },
            {
              "pitch": 29,
              "velocity": 96,
              "position": 3.5,
              "duration": 0.010416666666666666
            },
            {
              "pitch": 68,
              "velocity": 35,
              "position": 3.5,
              "duration": 0.010416666666666666
            },
            {
              "pitch": 73,
              "velocity": 31,
              "position": 3.5,
              "duration": 0.010416666666666666
            }
          ]
        },
        "9": {
          "ctab": {
            "srcChannel": 9,
            "name": "Drums",
            "accType": "RHYTHM",
            "editable": false,
            "mutedNotes": [],
            "mutedChords": [],
            "autoStart": true,
            "sourceChordNote": 0,
            "sourceChordType": "Maj7",
            "ctb2Low": null,
            "ctb2Main": {
              "ntr": "ROOT_FIXED",
              "ntt": "BYPASS",
              "bassOn": false,
              "chordRootUpperLimit": 6,
              "noteLowLimit": 0,
              "noteHighLimit": 127,
              "rtr": "PITCH_SHIFT"
            },
            "ctb2High": null
          },
          "notes": [
            {
              "pitch": 33,
              "velocity": 80,
              "position": 0,
              "duration": 0.010416666666666666
            },
            {
              "pitch": 42,
              "velocity": 67,
              "position": 0,
              "duration": 0.010416666666666666
            },
            {
              "pitch": 48,
              "velocity": 24,
              "position": 0,
              "duration": 0.010416666666666666
            },
            {
              "pitch": 75,
              "velocity": 50,
              "position": 0,
              "duration": 0.010416666666666666
            },
            {
              "pitch": 48,
              "velocity": 32,
              "position": 0.16666666666666666,
              "duration": 0.010416666666666666
            },
            {
              "pitch": 48,
              "velocity": 40,
              "position": 0.3333333333333333,
              "duration": 0.010416666666666666
            },
            {
              "pitch": 42,
              "velocity": 69,
              "position": 0.5,
              "duration": 0.010416666666666666
            },
            {
              "pitch": 48,
              "velocity": 48,
              "position": 0.5,
              "duration": 0.010416666666666666
            },
            {
              "pitch": 42,
              "velocity": 67,
              "position": 1,
              "duration": 0.010416666666666666
            },
            {
              "pitch": 48,
              "velocity": 56,
              "position": 1,
              "duration": 0.010416666666666666
            },
            {
              "pitch": 33,
              "velocity": 64,
              "position": 1.5,
              "duration": 0.010416666666666666
            },
            {
              "pitch": 42,
              "velocity": 71,
              "position": 1.5,
              "duration": 0.010416666666666666
            },
            {
              "pitch": 47,
              "velocity": 73,
              "position": 1.5,
              "duration": 0.010416666666666666
            },
            {
              "pitch": 75,
              "velocity": 48,
              "position": 1.5,
              "duration": 0.010416666666666666
            },
            {
              "pitch": 33,
              "velocity": 80,
              "position": 2,
              "duration": 0.010416666666666666
            },
            {
              "pitch": 41,
              "velocity": 73,
              "position": 2,
              "duration": 0.010416666666666666
            },
            {
              "pitch": 46,
              "velocity": 59,
              "position": 2,
              "duration": 0.010416666666666666
            },
            {
              "pitch": 41,
              "velocity": 73,
              "position": 3,
              "duration": 0.010416666666666666
            },
            {
              "pitch": 46,
              "velocity": 59,
              "position": 3,
              "duration": 0.010416666666666666
            },
            {
              "pitch": 75,
              "velocity": 41,
              "position": 3,
              "duration": 0.010416666666666666
            },
            {
              "pitch": 33,
              "velocity": 79,
              "position": 3.5,
              "duration": 0.010416666666666666
            }
          ]
        },
        "10": {
          "ctab": {
            "srcChannel": 10,
            "name": "Bass",
            "accType": "BASS",
            "editable": false,
            "mutedNotes": [],
            "mutedChords": [],
            "autoStart": false,
            "sourceChordNote": 0,
            "sourceChordType": "Maj7",
            "ctb2Low": null,
            "ctb2Main": {
              "ntr": "ROOT_TRANSPOSITION",
              "ntt": "MELODY",
              "bassOn": true,
              "chordRootUpperLimit": 3,
              "noteLowLimit": 28,
              "noteHighLimit": 127,
              "rtr": "PITCH_SHIFT_TO_ROOT"
            },
            "ctb2High": null
          },
          "notes": [
            {
              "pitch": 24,
              "velocity": 85,
              "position": 0,
              "duration": 1.4791666666666667
            },
            {
              "pitch": 31,
              "velocity": 60,
              "position": 1.5,
              "duration": 0.2604166666666667
            },
            {
              "pitch": 31,
              "velocity": 83,
              "position": 2,
              "duration": 1.4583333333333333
            },
            {
              "pitch": 24,
              "velocity": 73,
              "position": 3.5,
              "duration": 0.25
            }
          ]
        },
        "11": {
          "ctab": {
            "srcChannel": 11,
            "name": "NylonGtr",
            "accType": "CHORD1",
            "editable": false,
            "mutedNotes": [],
            "mutedChords": [],
            "autoStart": false,
            "sourceChordNote": 0,
            "sourceChordType": "Maj7",
            "ctb2Low": null,
            "ctb2Main": {
              "ntr": "ROOT_FIXED",
              "ntt": "CHORD",
              "bassOn": false,
              "chordRootUpperLimit": 6,
              "noteLowLimit": 0,
              "noteHighLimit": 127,
              "rtr": "PITCH_SHIFT"
            },
            "ctb2High": null
          },
          "notes": [
            {
              "pitch": 55,
              "velocity": 71,
              "position": 0.9895833333333334,
              "duration": 1.4895833333333333
            },
            {
              "pitch": 64,
              "velocity": 68,
              "position": 1.0104166666666667,
              "duration": 1.46875
            },
            {
              "pitch": 59,
              "velocity": 61,
              "position": 1,
              "duration": 1.4895833333333333
            },
            {
              "pitch": 64,
              "velocity": 73,
              "position": 2.4895833333333335,
              "duration": 1.4895833333333333
            },
            {
              "pitch": 59,
              "velocity": 73,
              "position": 2.5,
              "duration": 1.4895833333333333
            }
          ]
        },
        "12": {
          "ctab": {
            "srcChannel": 12,
            "name": "Piano",
            "accType": "CHORD2",
            "editable": false,
            "mutedNotes": [],
            "mutedChords": [],
            "autoStart": false,
            "sourceChordNote": 0,
            "sourceChordType": "Maj7",
            "ctb2Low": null,
            "ctb2Main": {
              "ntr": "ROOT_FIXED",
              "ntt": "CHORD",
              "bassOn": false,
              "chordRootUpperLimit": 6,
              "noteLowLimit": 0,
              "noteHighLimit": 127,
              "rtr": "PITCH_SHIFT"
            },
            "ctb2High": null
          },
          "notes": [
            {
              "pitch": 64,
              "velocity": 69,
              "position": 1,
              "duration": 0.3020833333333333
            },
            {
              "pitch": 59,
              "velocity": 62,
              "position": 1,
              "duration": 0.3958333333333333
            },
            {
              "pitch": 67,
              "velocity": 65,
              "position": 1,
              "duration": 0.4895833333333333
            },
            {
              "pitch": 59,
              "velocity": 64,
              "position": 2.5,
              "duration": 0.40625
            },
            {
              "pitch": 64,
              "velocity": 74,
              "position": 2.5,
              "duration": 0.40625
            },
            {
              "pitch": 67,
              "velocity": 64,
              "position": 2.5,
              "duration": 0.40625
            }
          ]
        },
        "13": {
          "ctab": {
            "srcChannel": 13,
            "name": "Strings",
            "accType": "PAD",
            "editable": false,
            "mutedNotes": [],
            "mutedChords": [],
            "autoStart": false,
            "sourceChordNote": 0,
            "sourceChordType": "Maj7",
            "ctb2Low": null,
            "ctb2Main": {
              "ntr": "ROOT_FIXED",
              "ntt": "CHORD",
              "bassOn": false,
              "chordRootUpperLimit": 6,
              "noteLowLimit": 0,
              "noteHighLimit": 127,
              "rtr": "PITCH_SHIFT"
            },
            "ctb2High": null
          },
          "notes": [
            {
              "pitch": 55,
              "velocity": 40,
              "position": 0,
              "duration": 3.9895833333333335
            },
            {
              "pitch": 59,
              "velocity": 40,
              "position": 0,
              "duration": 3.9895833333333335
            },
            {
              "pitch": 64,
              "velocity": 40,
              "position": 0,
              "duration": 3.9895833333333335
            }
          ]
        }
      }
    },
    "Intro_A": {
      "type": "Intro_A",
      "sizeInBeats": 4,
      "channels": {
        "1": {
          "ctab": {
            "srcChannel": 1,
            "name": "CC_Crash",
            "accType": "RHYTHM",
            "editable": false,
            "mutedNotes": [],
            "mutedChords": [
              "1+2+5",
              "sus4",
              "1+5",
              "1+8",
              "7aug",
              "Maj7aug",
              "7(#9)",
              "7(b13)",
              "7(b9)",
              "7(13)",
              "7#11",
              "7(9)",
              "7b5",
              "7sus4",
              "7th",
              "dim7",
              "dim",
              "minMaj7(9)",
              "minMaj7",
              "min7(11)",
              "min7(9)",
              "min(9)",
              "m7b5",
              "min7",
              "min6",
              "min",
              "aug",
              "Maj6(9)",
              "Maj7(9)",
              "Maj(9)",
              "Maj7#11",
              "Maj7",
              "Maj6",
              "Maj"
            ],
            "autoStart": true,
            "sourceChordNote": 0,
            "sourceChordType": "Maj",
            "ctb2Low": null,
            "ctb2Main": {
              "ntr": "ROOT_FIXED",
              "ntt": "BYPASS",
              "bassOn": false,
              "chordRootUpperLimit": 0,
              "noteLowLimit": 0,
              "noteHighLimit": 127,
              "rtr": "RETRIGGER"
            },
            "ctb2High": null
          },
          "notes": []
        },
        "3": {
          "ctab": {
            "srcChannel": 3,
            "name": "NylRoot",
            "accType": "CHORD1",
            "editable": false,
            "mutedNotes": [],
            "mutedChords": [
              "1+2+5",
              "sus4",
              "1+5",
              "1+8",
              "Maj7aug",
              "dim",
              "minMaj7(9)",
              "minMaj7",
              "min6",
              "min",
              "aug",
              "Maj7(9)",
              "Maj7#11",
              "Maj7",
              "Maj6",
              "Maj"
            ],
            "autoStart": false,
            "sourceChordNote": 0,
            "sourceChordType": "Maj7",
            "ctb2Low": null,
            "ctb2Main": {
              "ntr": "ROOT_TRANSPOSITION",
              "ntt": "MELODY",
              "bassOn": false,
              "chordRootUpperLimit": 6,
              "noteLowLimit": 40,
              "noteHighLimit": 127,
              "rtr": "PITCH_SHIFT"
            },
            "ctb2High": null
          },
          "notes": []
        },
        "5": {
          "ctab": {
            "srcChannel": 5,
            "name": "StrRoot",
            "accType": "PAD",
            "editable": false,
            "mutedNotes": [],
            "mutedChords": [
              "1+2+5",
              "sus4",
              "1+5",
              "1+8",
              "Maj7aug",
              "dim",
              "minMaj7(9)",
              "minMaj7",
              "min6",
              "min",
              "aug",
              "Maj7(9)",
              "Maj7#11",
              "Maj7",
              "Maj6",
              "Maj"
            ],
            "autoStart": false,
            "sourceChordNote": 0,
            "sourceChordType": "Maj7",
            "ctb2Low": null,
            "ctb2Main": {
              "ntr": "ROOT_TRANSPOSITION",
              "ntt": "MELODY",
              "bassOn": false,
              "chordRootUpperLimit": 6,
              "noteLowLimit": 0,
              "noteHighLimit": 127,
              "rtr": "PITCH_SHIFT"
            },
            "ctb2High": null
          },
          "notes": []
        },
        "8": {
          "ctab": {
            "srcChannel": 8,
            "name": "CubanP",
            "accType": "SUBRHYTHM",
            "editable": false,
            "mutedNotes": [],
            "mutedChords": [],
            "autoStart": true,
            "sourceChordNote": 0,
            "sourceChordType": "Maj7",
            "ctb2Low": null,
            "ctb2Main": {
              "ntr": "ROOT_FIXED",
              "ntt": "BYPASS",
              "bassOn": false,
              "chordRootUpperLimit": 6,
              "noteLowLimit": 0,
              "noteHighLimit": 127,
              "rtr": "PITCH_SHIFT"
            },
            "ctb2High": null
          },
          "notes": [
            {
              "pitch": 73,
              "velocity": 25,
              "position": 1.9895833333333333,
              "duration": 0.20833333333333334
            },
            {
              "pitch": 73,
              "velocity": 29,
              "position": 2.5,
              "duration": 0.16666666666666666
            },
            {
              "pitch": 73,
              "velocity": 89,
              "position": 2.9895833333333335,
              "duration": 0.1875
            },
            {
              "pitch": 73,
              "velocity": 27,
              "position": 3.4895833333333335,
              "duration": 0.21875
            }
          ]
        },
        "9": {
          "ctab": {
            "srcChannel": 9,
            "name": "Drums",
            "accType": "RHYTHM",
            "editable": false,
            "mutedNotes": [],
            "mutedChords": [],
            "autoStart": true,
            "sourceChordNote": 0,
            "sourceChordType": "Maj7",
            "ctb2Low": null,
            "ctb2Main": {
              "ntr": "ROOT_FIXED",
              "ntt": "BYPASS",
              "bassOn": false,
              "chordRootUpperLimit": 6,
              "noteLowLimit": 0,
              "noteHighLimit": 127,
              "rtr": "PITCH_SHIFT"
            },
            "ctb2High": null
          },
          "notes": [
            {
              "pitch": 42,
              "velocity": 68,
              "position": 0,
              "duration": 0.010416666666666666
            },
            {
              "pitch": 42,
              "velocity": 22,
              "position": 0.5,
              "duration": 0.010416666666666666
            },
            {
              "pitch": 42,
              "velocity": 49,
              "position": 1,
              "duration": 0.010416666666666666
            },
            {
              "pitch": 46,
              "velocity": 49,
              "position": 1.5,
              "duration": 0.010416666666666666
            },
            {
              "pitch": 42,
              "velocity": 29,
              "position": 2,
              "duration": 0.010416666666666666
            },
            {
              "pitch": 46,
              "velocity": 49,
              "position": 2.5,
              "duration": 0.010416666666666666
            }
          ]
        },
        "10": {
          "ctab": {
            "srcChannel": 10,
            "name": "Bass",
            "accType": "BASS",
            "editable": false,
            "mutedNotes": [],
            "mutedChords": [],
            "autoStart": false,
            "sourceChordNote": 0,
            "sourceChordType": "Maj7",
            "ctb2Low": null,
            "ctb2Main": {
              "ntr": "ROOT_TRANSPOSITION",
              "ntt": "MELODY",
              "bassOn": true,
              "chordRootUpperLimit": 3,
              "noteLowLimit": 28,
              "noteHighLimit": 127,
              "rtr": "PITCH_SHIFT_TO_ROOT"
            },
            "ctb2High": null
          },
          "notes": []
        },
        "11": {
          "ctab": {
            "srcChannel": 11,
            "name": "NylonGtr",
            "accType": "CHORD1",
            "editable": false,
            "mutedNotes": [],
            "mutedChords": [],
            "autoStart": false,
            "sourceChordNote": 0,
            "sourceChordType": "Maj7",
            "ctb2Low": null,
            "ctb2Main": {
              "ntr": "ROOT_FIXED",
              "ntt": "CHORD",
              "bassOn": false,
              "chordRootUpperLimit": 6,
              "noteLowLimit": 0,
              "noteHighLimit": 127,
              "rtr": "PITCH_SHIFT"
            },
            "ctb2High": null
          },
          "notes": []
        },
        "12": {
          "ctab": {
            "srcChannel": 12,
            "name": "Piano",
            "accType": "CHORD2",
            "editable": false,
            "mutedNotes": [],
            "mutedChords": [],
            "autoStart": false,
            "sourceChordNote": 0,
            "sourceChordType": "Maj7",
            "ctb2Low": null,
            "ctb2Main": {
              "ntr": "ROOT_FIXED",
              "ntt": "CHORD",
              "bassOn": false,
              "chordRootUpperLimit": 6,
              "noteLowLimit": 0,
              "noteHighLimit": 127,
              "rtr": "PITCH_SHIFT"
            },
            "ctb2High": null
          },
          "notes": []
        },
        "13": {
          "ctab": {
            "srcChannel": 13,
            "name": "Strings",
            "accType": "PAD",
            "editable": false,
            "mutedNotes": [],
            "mutedChords": [],
            "autoStart": false,
            "sourceChordNote": 0,
            "sourceChordType": "Maj7",
            "ctb2Low": null,
            "ctb2Main": {
              "ntr": "ROOT_FIXED",
              "ntt": "CHORD",
              "bassOn": false,
              "chordRootUpperLimit": 6,
              "noteLowLimit": 0,
              "noteHighLimit": 127,
              "rtr": "PITCH_SHIFT"
            },
            "ctb2High": null
          },
          "notes": []
        }
      }
    },
    "Ending_A": {
      "type": "Ending_A",
      "sizeInBeats": 8,
      "channels": {
        "1": {
          "ctab": {
            "srcChannel": 1,
            "name": "CC_Crash",
            "accType": "RHYTHM",
            "editable": false,
            "mutedNotes": [],
            "mutedChords": [
              "1+2+5",
              "sus4",
              "1+5",
              "1+8",
              "7aug",
              "Maj7aug",
              "7(#9)",
              "7(b13)",
              "7(b9)",
              "7(13)",
              "7#11",
              "7(9)",
              "7b5",
              "7sus4",
              "7th",
              "dim7",
              "dim",
              "minMaj7(9)",
              "minMaj7",
              "min7(11)",
              "min7(9)",
              "min(9)",
              "m7b5",
              "min7",
              "min6",
              "min",
              "aug",
              "Maj6(9)",
              "Maj7(9)",
              "Maj(9)",
              "Maj7#11",
              "Maj7",
              "Maj6",
              "Maj"
            ],
            "autoStart": true,
            "sourceChordNote": 0,
            "sourceChordType": "Maj",
            "ctb2Low": null,
            "ctb2Main": {
              "ntr": "ROOT_FIXED",
              "ntt": "BYPASS",
              "bassOn": false,
              "chordRootUpperLimit": 0,
              "noteLowLimit": 0,
              "noteHighLimit": 127,
              "rtr": "RETRIGGER"
            },
            "ctb2High": null
          },
          "notes": []
        },
        "3": {
          "ctab": {
            "srcChannel": 3,
            "name": "NylRoot",
            "accType": "CHORD1",
            "editable": false,
            "mutedNotes": [],
            "mutedChords": [
              "1+2+5",
              "sus4",
              "1+5",
              "1+8",
              "Maj7aug",
              "dim",
              "minMaj7(9)",
              "minMaj7",
              "min6",
              "min",
              "aug",
              "Maj7(9)",
              "Maj7#11",
              "Maj7",
              "Maj6",
              "Maj"
            ],
            "autoStart": false,
            "sourceChordNote": 0,
            "sourceChordType": "Maj7",
            "ctb2Low": null,
            "ctb2Main": {
              "ntr": "ROOT_TRANSPOSITION",
              "ntt": "MELODY",
              "bassOn": false,
              "chordRootUpperLimit": 6,
              "noteLowLimit": 40,
              "noteHighLimit": 127,
              "rtr": "PITCH_SHIFT"
            },
            "ctb2High": null
          },
          "notes": [
            {
              "pitch": 60,
              "velocity": 46,
              "position": 0,
              "duration": 7.989583333333333
            }
          ]
        },
        "5": {
          "ctab": {
            "srcChannel": 5,
            "name": "StrRoot",
            "accType": "PAD",
            "editable": false,
            "mutedNotes": [],
            "mutedChords": [
              "1+2+5",
              "sus4",
              "1+5",
              "1+8",
              "Maj7aug",
              "dim",
              "minMaj7(9)",
              "minMaj7",
              "min6",
              "min",
              "aug",
              "Maj7(9)",
              "Maj7#11",
              "Maj7",
              "Maj6",
              "Maj"
            ],
            "autoStart": false,
            "sourceChordNote": 0,
            "sourceChordType": "Maj7",
            "ctb2Low": null,
            "ctb2Main": {
              "ntr": "ROOT_TRANSPOSITION",
              "ntt": "MELODY",
              "bassOn": false,
              "chordRootUpperLimit": 6,
              "noteLowLimit": 0,
              "noteHighLimit": 127,
              "rtr": "PITCH_SHIFT"
            },
            "ctb2High": null
          },
          "notes": [
            {
              "pitch": 60,
              "velocity": 40,
              "position": 0,
              "duration": 7.989583333333333
            }
          ]
        },
        "8": {
          "ctab": {
            "srcChannel": 8,
            "name": "CubanP",
            "accType": "SUBRHYTHM",
            "editable": false,
            "mutedNotes": [],
            "mutedChords": [],
            "autoStart": true,
            "sourceChordNote": 0,
            "sourceChordType": "Maj7",
            "ctb2Low": null,
            "ctb2Main": {
              "ntr": "ROOT_FIXED",
              "ntt": "BYPASS",
              "bassOn": false,
              "chordRootUpperLimit": 6,
              "noteLowLimit": 0,
              "noteHighLimit": 127,
              "rtr": "PITCH_SHIFT"
            },
            "ctb2High": null
          },
          "notes": [
            {
              "pitch": 35,
              "velocity": 127,
              "position": 0,
              "duration": 7.989583333333333
            }
          ]
        },
        "9": {
          "ctab": {
            "srcChannel": 9,
            "name": "Drums",
            "accType": "RHYTHM",
            "editable": false,
            "mutedNotes": [],
            "mutedChords": [],
            "autoStart": true,
            "sourceChordNote": 0,
            "sourceChordType": "Maj7",
            "ctb2Low": null,
            "ctb2Main": {
              "ntr": "ROOT_FIXED",
              "ntt": "BYPASS",
              "bassOn": false,
              "chordRootUpperLimit": 6,
              "noteLowLimit": 0,
              "noteHighLimit": 127,
              "rtr": "PITCH_SHIFT"
            },
            "ctb2High": null
          },
          "notes": [
            {
              "pitch": 33,
              "velocity": 80,
              "position": 0,
              "duration": 0.010416666666666666
            }
          ]
        },
        "10": {
          "ctab": {
            "srcChannel": 10,
            "name": "Bass",
            "accType": "BASS",
            "editable": false,
            "mutedNotes": [],
            "mutedChords": [],
            "autoStart": false,
            "sourceChordNote": 0,
            "sourceChordType": "Maj7",
            "ctb2Low": null,
            "ctb2Main": {
              "ntr": "ROOT_TRANSPOSITION",
              "ntt": "MELODY",
              "bassOn": true,
              "chordRootUpperLimit": 3,
              "noteLowLimit": 28,
              "noteHighLimit": 127,
              "rtr": "PITCH_SHIFT_TO_ROOT"
            },
            "ctb2High": null
          },
          "notes": [
            {
              "pitch": 24,
              "velocity": 74,
              "position": 0,
              "duration": 7.989583333333333
            }
          ]
        },
        "11": {
          "ctab": {
            "srcChannel": 11,
            "name": "NylonGtr",
            "accType": "CHORD1",
            "editable": false,
            "mutedNotes": [],
            "mutedChords": [],
            "autoStart": false,
            "sourceChordNote": 0,
            "sourceChordType": "Maj7",
            "ctb2Low": null,
            "ctb2Main": {
              "ntr": "ROOT_FIXED",
              "ntt": "CHORD",
              "bassOn": false,
              "chordRootUpperLimit": 6,
              "noteLowLimit": 0,
              "noteHighLimit": 127,
              "rtr": "PITCH_SHIFT"
            },
            "ctb2High": null
          },
          "notes": [
            {
              "pitch": 55,
              "velocity": 46,
              "position": 0,
              "duration": 7.989583333333333
            },
            {
              "pitch": 59,
              "velocity": 46,
              "position": 0,
              "duration": 7.989583333333333
            },
            {
              "pitch": 64,
              "velocity": 46,
              "position": 0,
              "duration": 7.989583333333333
            }
          ]
        },
        "12": {
          "ctab": {
            "srcChannel": 12,
            "name": "Piano",
            "accType": "CHORD2",
            "editable": false,
            "mutedNotes": [],
            "mutedChords": [],
            "autoStart": false,
            "sourceChordNote": 0,
            "sourceChordType": "Maj7",
            "ctb2Low": null,
            "ctb2Main": {
              "ntr": "ROOT_FIXED",
              "ntt": "CHORD",
              "bassOn": false,
              "chordRootUpperLimit": 6,
              "noteLowLimit": 0,
              "noteHighLimit": 127,
              "rtr": "PITCH_SHIFT"
            },
            "ctb2High": null
          },
          "notes": [
            {
              "pitch": 55,
              "velocity": 64,
              "position": 0,
              "duration": 7.989583333333333
            },
            {
              "pitch": 59,
              "velocity": 59,
              "position": 0,
              "duration": 7.989583333333333
            },
            {
              "pitch": 64,
              "velocity": 68,
              "position": 0,
              "duration": 7.989583333333333
            }
          ]
        },
        "13": {
          "ctab": {
            "srcChannel": 13,
            "name": "Strings",
            "accType": "PAD",
            "editable": false,
            "mutedNotes": [],
            "mutedChords": [],
            "autoStart": false,
            "sourceChordNote": 0,
            "sourceChordType": "Maj7",
            "ctb2Low": null,
            "ctb2Main": {
              "ntr": "ROOT_FIXED",
              "ntt": "CHORD",
              "bassOn": false,
              "chordRootUpperLimit": 6,
              "noteLowLimit": 0,
              "noteHighLimit": 127,
              "rtr": "PITCH_SHIFT"
            },
            "ctb2High": null
          },
          "notes": [
            {
              "pitch": 55,
              "velocity": 41,
              "position": 0,
              "duration": 7.989583333333333
            },
            {
              "pitch": 59,
              "velocity": 41,
              "position": 0,
              "duration": 7.989583333333333
            },
            {
              "pitch": 64,
              "velocity": 41,
              "position": 0,
              "duration": 7.989583333333333
            }
          ]
        }
      }
    },
    "Ending_B": {
      "type": "Ending_B",
      "sizeInBeats": 8,
      "channels": {
        "1": {
          "ctab": {
            "srcChannel": 1,
            "name": "CC_Crash",
            "accType": "RHYTHM",
            "editable": false,
            "mutedNotes": [],
            "mutedChords": [
              "1+2+5",
              "sus4",
              "1+5",
              "1+8",
              "7aug",
              "Maj7aug",
              "7(#9)",
              "7(b13)",
              "7(b9)",
              "7(13)",
              "7#11",
              "7(9)",
              "7b5",
              "7sus4",
              "7th",
              "dim7",
              "dim",
              "minMaj7(9)",
              "minMaj7",
              "min7(11)",
              "min7(9)",
              "min(9)",
              "m7b5",
              "min7",
              "min6",
              "min",
              "aug",
              "Maj6(9)",
              "Maj7(9)",
              "Maj(9)",
              "Maj7#11",
              "Maj7",
              "Maj6",
              "Maj"
            ],
            "autoStart": true,
            "sourceChordNote": 0,
            "sourceChordType": "Maj",
            "ctb2Low": null,
            "ctb2Main": {
              "ntr": "ROOT_FIXED",
              "ntt": "BYPASS",
              "bassOn": false,
              "chordRootUpperLimit": 0,
              "noteLowLimit": 0,
              "noteHighLimit": 127,
              "rtr": "RETRIGGER"
            },
            "ctb2High": null
          },
          "notes": []
        },
        "3": {
          "ctab": {
            "srcChannel": 3,
            "name": "NylRoot",
            "accType": "CHORD1",
            "editable": false,
            "mutedNotes": [],
            "mutedChords": [
              "1+2+5",
              "sus4",
              "1+5",
              "1+8",
              "Maj7aug",
              "dim",
              "minMaj7(9)",
              "minMaj7",
              "min6",
              "min",
              "aug",
              "Maj7(9)",
              "Maj7#11",
              "Maj7",
              "Maj6",
              "Maj"
            ],
            "autoStart": false,
            "sourceChordNote": 0,
            "sourceChordType": "Maj7",
            "ctb2Low": null,
            "ctb2Main": {
              "ntr": "ROOT_TRANSPOSITION",
              "ntt": "MELODY",
              "bassOn": false,
              "chordRootUpperLimit": 6,
              "noteLowLimit": 40,
              "noteHighLimit": 127,
              "rtr": "PITCH_SHIFT"
            },
            "ctb2High": null
          },
          "notes": [
            {
              "pitch": 60,
              "velocity": 60,
              "position": 0,
              "duration": 0.4895833333333333
            },
            {
              "pitch": 60,
              "velocity": 50,
              "position": 0.5,
              "duration": 0.40625
            },
            {
              "pitch": 60,
              "velocity": 57,
              "position": 1.5,
              "duration": 0.4166666666666667
            },
            {
              "pitch": 60,
              "velocity": 57,
              "position": 3,
              "duration": 0.5
            },
            {
              "pitch": 60,
              "velocity": 69,
              "position": 4.5,
              "duration": 0.4166666666666667
            },
            {
              "pitch": 60,
              "velocity": 48,
              "position": 5,
              "duration": 0.4166666666666667
            },
            {
              "pitch": 60,
              "velocity": 55,
              "position": 5.5,
              "duration": 0.4166666666666667
            },
            {
              "pitch": 60,
              "velocity": 70,
              "position": 6,
              "duration": 0.5
            }
          ]
        },
        "5": {
          "ctab": {
            "srcChannel": 5,
            "name": "StrRoot",
            "accType": "PAD",
            "editable": false,
            "mutedNotes": [],
            "mutedChords": [
              "1+2+5",
              "sus4",
              "1+5",
              "1+8",
              "Maj7aug",
              "dim",
              "minMaj7(9)",
              "minMaj7",
              "min6",
              "min",
              "aug",
              "Maj7(9)",
              "Maj7#11",
              "Maj7",
              "Maj6",
              "Maj"
            ],
            "autoStart": false,
            "sourceChordNote": 0,
            "sourceChordType": "Maj7",
            "ctb2Low": null,
            "ctb2Main": {
              "ntr": "ROOT_TRANSPOSITION",
              "ntt": "MELODY",
              "bassOn": false,
              "chordRootUpperLimit": 6,
              "noteLowLimit": 0,
              "noteHighLimit": 127,
              "rtr": "PITCH_SHIFT"
            },
            "ctb2High": null
          },
          "notes": [
            {
              "pitch": 60,
              "velocity": 85,
              "position": 0,
              "duration": 0.65625
            },
            {
              "pitch": 60,
              "velocity": 85,
              "position": 6,
              "duration": 0.4791666666666667
            }
          ]
        },
        "8": {
          "ctab": {
            "srcChannel": 8,
            "name": "CubanP",
            "accType": "SUBRHYTHM",
            "editable": false,
            "mutedNotes": [],
            "mutedChords": [],
            "autoStart": true,
            "sourceChordNote": 0,
            "sourceChordType": "Maj7",
            "ctb2Low": null,
            "ctb2Main": {
              "ntr": "ROOT_FIXED",
              "ntt": "BYPASS",
              "bassOn": false,
              "chordRootUpperLimit": 6,
              "noteLowLimit": 0,
              "noteHighLimit": 127,
              "rtr": "PITCH_SHIFT"
            },
            "ctb2High": null
          },
          "notes": [
            {
              "pitch": 38,
              "velocity": 127,
              "position": 0,
              "duration": 0.010416666666666666
            },
            {
              "pitch": 73,
              "velocity": 27,
              "position": 0,
              "duration": 0.17708333333333334
            },
            {
              "pitch": 73,
              "velocity": 30,
              "position": 0.5,
              "duration": 0.13541666666666666
            },
            {
              "pitch": 27,
              "velocity": 64,
              "position": 1,
              "duration": 0.010416666666666666
            },
            {
              "pitch": 38,
              "velocity": 58,
              "position": 1,
              "duration": 0.010416666666666666
            },
            {
              "pitch": 73,
              "velocity": 96,
              "position": 1,
              "duration": 0.1875
            },
            {
              "pitch": 25,
              "velocity": 36,
              "position": 1.4895833333333333,
              "duration": 0.010416666666666666
            },
            {
              "pitch": 39,
              "velocity": 124,
              "position": 1.4895833333333333,
              "duration": 0.010416666666666666
            },
            {
              "pitch": 38,
              "velocity": 108,
              "position": 1.5104166666666667,
              "duration": 0.010416666666666666
            },
            {
              "pitch": 73,
              "velocity": 29,
              "position": 1.4895833333333333,
              "duration": 0.19791666666666666
            },
            {
              "pitch": 23,
              "velocity": 36,
              "position": 2,
              "duration": 0.010416666666666666
            },
            {
              "pitch": 73,
              "velocity": 25,
              "position": 1.9895833333333333,
              "duration": 0.20833333333333334
            },
            {
              "pitch": 25,
              "velocity": 126,
              "position": 2.4895833333333335,
              "duration": 0.010416666666666666
            },
            {
              "pitch": 36,
              "velocity": 68,
              "position": 2.5,
              "duration": 0.010416666666666666
            },
            {
              "pitch": 73,
              "velocity": 29,
              "position": 2.5,
              "duration": 0.16666666666666666
            },
            {
              "pitch": 39,
              "velocity": 114,
              "position": 2.9895833333333335,
              "duration": 0.010416666666666666
            },
            {
              "pitch": 24,
              "velocity": 50,
              "position": 3,
              "duration": 0.010416666666666666
            },
            {
              "pitch": 38,
              "velocity": 103,
              "position": 3.0104166666666665,
              "duration": 0.010416666666666666
            },
            {
              "pitch": 73,
              "velocity": 89,
              "position": 2.9895833333333335,
              "duration": 0.1875
            },
            {
              "pitch": 23,
              "velocity": 52,
              "position": 3.4895833333333335,
              "duration": 0.010416666666666666
            },
            {
              "pitch": 73,
              "velocity": 27,
              "position": 3.4895833333333335,
              "duration": 0.21875
            },
            {
              "pitch": 36,
              "velocity": 53,
              "position": 4,
              "duration": 0.010416666666666666
            },
            {
              "pitch": 73,
              "velocity": 27,
              "position": 3.9895833333333335,
              "duration": 0.1875
            },
            {
              "pitch": 27,
              "velocity": 57,
              "position": 4.489583333333333,
              "duration": 0.010416666666666666
            },
            {
              "pitch": 39,
              "velocity": 118,
              "position": 4.489583333333333,
              "duration": 0.010416666666666666
            },
            {
              "pitch": 38,
              "velocity": 94,
              "position": 4.53125,
              "duration": 0.010416666666666666
            },
            {
              "pitch": 73,
              "velocity": 36,
              "position": 4.489583333333333,
              "duration": 0.17708333333333334
            },
            {
              "pitch": 73,
              "velocity": 87,
              "position": 5,
              "duration": 0.25
            },
            {
              "pitch": 23,
              "velocity": 57,
              "position": 5.489583333333333,
              "duration": 0.010416666666666666
            },
            {
              "pitch": 36,
              "velocity": 64,
              "position": 5.5,
              "duration": 0.010416666666666666
            },
            {
              "pitch": 73,
              "velocity": 27,
              "position": 5.489583333333333,
              "duration": 0.2708333333333333
            },
            {
              "pitch": 25,
              "velocity": 106,
              "position": 5.989583333333333,
              "duration": 0.010416666666666666
            },
            {
              "pitch": 39,
              "velocity": 118,
              "position": 5.989583333333333,
              "duration": 0.010416666666666666
            },
            {
              "pitch": 38,
              "velocity": 101,
              "position": 6.010416666666667,
              "duration": 0.010416666666666666
            },
            {
              "pitch": 73,
              "velocity": 30,
              "position": 5.989583333333333,
              "duration": 0.19791666666666666
            }
          ]
        },
        "9": {
          "ctab": {
            "srcChannel": 9,
            "name": "Drums",
            "accType": "RHYTHM",
            "editable": false,
            "mutedNotes": [],
            "mutedChords": [],
            "autoStart": true,
            "sourceChordNote": 0,
            "sourceChordType": "Maj7",
            "ctb2Low": null,
            "ctb2Main": {
              "ntr": "ROOT_FIXED",
              "ntt": "BYPASS",
              "bassOn": false,
              "chordRootUpperLimit": 6,
              "noteLowLimit": 0,
              "noteHighLimit": 127,
              "rtr": "PITCH_SHIFT"
            },
            "ctb2High": null
          },
          "notes": [
            {
              "pitch": 33,
              "velocity": 87,
              "position": 0,
              "duration": 0.010416666666666666
            },
            {
              "pitch": 37,
              "velocity": 99,
              "position": 0,
              "duration": 0.010416666666666666
            },
            {
              "pitch": 42,
              "velocity": 73,
              "position": 0,
              "duration": 0.010416666666666666
            },
            {
              "pitch": 42,
              "velocity": 67,
              "position": 0.5,
              "duration": 0.010416666666666666
            },
            {
              "pitch": 42,
              "velocity": 68,
              "position": 1,
              "duration": 0.010416666666666666
            },
            {
              "pitch": 33,
              "velocity": 54,
              "position": 1.5,
              "duration": 0.010416666666666666
            },
            {
              "pitch": 37,
              "velocity": 116,
              "position": 1.5,
              "duration": 0.010416666666666666
            },
            {
              "pitch": 46,
              "velocity": 59,
              "position": 1.5,
              "duration": 0.010416666666666666
            },
            {
              "pitch": 33,
              "velocity": 84,
              "position": 2,
              "duration": 0.010416666666666666
            },
            {
              "pitch": 42,
              "velocity": 72,
              "position": 2,
              "duration": 0.010416666666666666
            },
            {
              "pitch": 42,
              "velocity": 66,
              "position": 2.5,
              "duration": 0.010416666666666666
            },
            {
              "pitch": 37,
              "velocity": 107,
              "position": 3,
              "duration": 0.010416666666666666
            },
            {
              "pitch": 46,
              "velocity": 59,
              "position": 3,
              "duration": 0.010416666666666666
            },
            {
              "pitch": 42,
              "velocity": 63,
              "position": 3.5,
              "duration": 0.010416666666666666
            },
            {
              "pitch": 42,
              "velocity": 67,
              "position": 4,
              "duration": 0.010416666666666666
            },
            {
              "pitch": 33,
              "velocity": 86,
              "position": 4.5,
              "duration": 0.010416666666666666
            },
            {
              "pitch": 42,
              "velocity": 69,
              "position": 4.5,
              "duration": 0.010416666666666666
            },
            {
              "pitch": 45,
              "velocity": 73,
              "position": 4.5,
              "duration": 0.010416666666666666
            },
            {
              "pitch": 33,
              "velocity": 48,
              "position": 5,
              "duration": 0.010416666666666666
            },
            {
              "pitch": 43,
              "velocity": 48,
              "position": 5,
              "duration": 0.010416666666666666
            },
            {
              "pitch": 46,
              "velocity": 59,
              "position": 5,
              "duration": 0.010416666666666666
            },
            {
              "pitch": 33,
              "velocity": 56,
              "position": 5.5,
              "duration": 0.010416666666666666
            },
            {
              "pitch": 42,
              "velocity": 71,
              "position": 5.5,
              "duration": 0.010416666666666666
            },
            {
              "pitch": 43,
              "velocity": 56,
              "position": 5.5,
              "duration": 0.010416666666666666
            },
            {
              "pitch": 33,
              "velocity": 89,
              "position": 6,
              "duration": 0.010416666666666666
            },
            {
              "pitch": 41,
              "velocity": 73,
              "position": 6,
              "duration": 0.010416666666666666
            },
            {
              "pitch": 55,
              "velocity": 88,
              "position": 6,
              "duration": 0.010416666666666666
            }
          ]
        },
        "10": {
          "ctab": {
            "srcChannel": 10,
            "name": "Bass",
            "accType": "BASS",
            "editable": false,
            "mutedNotes": [],
            "mutedChords": [],
            "autoStart": false,
            "sourceChordNote": 0,
            "sourceChordType": "Maj7",
            "ctb2Low": null,
            "ctb2Main": {
              "ntr": "ROOT_TRANSPOSITION",
              "ntt": "MELODY",
              "bassOn": true,
              "chordRootUpperLimit": 3,
              "noteLowLimit": 28,
              "noteHighLimit": 127,
              "rtr": "PITCH_SHIFT_TO_ROOT"
            },
            "ctb2High": null
          },
          "notes": [
            {
              "pitch": 24,
              "velocity": 98,
              "position": 0,
              "duration": 0.4166666666666667
            },
            {
              "pitch": 24,
              "velocity": 98,
              "position": 0.5,
              "duration": 0.4166666666666667
            },
            {
              "pitch": 24,
              "velocity": 98,
              "position": 1.5,
              "duration": 0.4166666666666667
            },
            {
              "pitch": 24,
              "velocity": 98,
              "position": 3,
              "duration": 0.4166666666666667
            },
            {
              "pitch": 24,
              "velocity": 98,
              "position": 4.5,
              "duration": 0.4166666666666667
            },
            {
              "pitch": 24,
              "velocity": 69,
              "position": 5,
              "duration": 0.4166666666666667
            },
            {
              "pitch": 24,
              "velocity": 88,
              "position": 5.5,
              "duration": 0.4166666666666667
            },
            {
              "pitch": 24,
              "velocity": 98,
              "position": 6,
              "duration": 0.4166666666666667
            }
          ]
        },
        "11": {
          "ctab": {
            "srcChannel": 11,
            "name": "NylonGtr",
            "accType": "CHORD1",
            "editable": false,
            "mutedNotes": [],
            "mutedChords": [],
            "autoStart": false,
            "sourceChordNote": 0,
            "sourceChordType": "Maj7",
            "ctb2Low": null,
            "ctb2Main": {
              "ntr": "ROOT_FIXED",
              "ntt": "CHORD",
              "bassOn": false,
              "chordRootUpperLimit": 6,
              "noteLowLimit": 0,
              "noteHighLimit": 127,
              "rtr": "PITCH_SHIFT"
            },
            "ctb2High": null
          },
          "notes": [
            {
              "pitch": 55,
              "velocity": 73,
              "position": 0,
              "duration": 0.4895833333333333
            },
            {
              "pitch": 59,
              "velocity": 73,
              "position": 0,
              "duration": 0.4895833333333333
            },
            {
              "pitch": 64,
              "velocity": 73,
              "position": 0,
              "duration": 0.4895833333333333
            },
            {
              "pitch": 55,
              "velocity": 63,
              "position": 0.5,
              "duration": 0.40625
            },
            {
              "pitch": 59,
              "velocity": 63,
              "position": 0.5,
              "duration": 0.40625
            },
            {
              "pitch": 64,
              "velocity": 63,
              "position": 0.5,
              "duration": 0.40625
            },
            {
              "pitch": 55,
              "velocity": 69,
              "position": 1.5,
              "duration": 0.4166666666666667
            },
            {
              "pitch": 59,
              "velocity": 69,
              "position": 1.5,
              "duration": 0.4166666666666667
            },
            {
              "pitch": 64,
              "velocity": 69,
              "position": 1.5,
              "duration": 0.4166666666666667
            },
            {
              "pitch": 55,
              "velocity": 69,
              "position": 3,
              "duration": 0.5
            },
            {
              "pitch": 59,
              "velocity": 69,
              "position": 3,
              "duration": 0.5
            },
            {
              "pitch": 64,
              "velocity": 69,
              "position": 3,
              "duration": 0.5
            },
            {
              "pitch": 55,
              "velocity": 82,
              "position": 4.5,
              "duration": 0.4166666666666667
            },
            {
              "pitch": 59,
              "velocity": 82,
              "position": 4.5,
              "duration": 0.4166666666666667
            },
            {
              "pitch": 64,
              "velocity": 82,
              "position": 4.5,
              "duration": 0.4166666666666667
            },
            {
              "pitch": 55,
              "velocity": 61,
              "position": 5,
              "duration": 0.4166666666666667
            },
            {
              "pitch": 59,
              "velocity": 61,
              "position": 5,
              "duration": 0.4166666666666667
            },
            {
              "pitch": 64,
              "velocity": 61,
              "position": 5,
              "duration": 0.4166666666666667
            },
            {
              "pitch": 55,
              "velocity": 68,
              "position": 5.5,
              "duration": 0.4166666666666667
            },
            {
              "pitch": 59,
              "velocity": 68,
              "position": 5.5,
              "duration": 0.4166666666666667
            },
            {
              "pitch": 64,
              "velocity": 68,
              "position": 5.5,
              "duration": 0.4166666666666667
            },
            {
              "pitch": 55,
              "velocity": 83,
              "position": 6,
              "duration": 0.5
            },
            {
              "pitch": 59,
              "velocity": 83,
              "position": 6,
              "duration": 0.5
            },
            {
              "pitch": 64,
              "velocity": 83,
              "position": 6,
              "duration": 0.5
            }
          ]
        },
        "12": {
          "ctab": {
            "srcChannel": 12,
            "name": "Piano",
            "accType": "CHORD2",
            "editable": false,
            "mutedNotes": [],
            "mutedChords": [],
            "autoStart": false,
            "sourceChordNote": 0,
            "sourceChordType": "Maj7",
            "ctb2Low": null,
            "ctb2Main": {
              "ntr": "ROOT_FIXED",
              "ntt": "CHORD",
              "bassOn": false,
              "chordRootUpperLimit": 6,
              "noteLowLimit": 0,
              "noteHighLimit": 127,
              "rtr": "PITCH_SHIFT"
            },
            "ctb2High": null
          },
          "notes": [
            {
              "pitch": 59,
              "velocity": 80,
              "position": 0,
              "duration": 0.3333333333333333
            },
            {
              "pitch": 64,
              "velocity": 80,
              "position": 0,
              "duration": 0.3333333333333333
            },
            {
              "pitch": 67,
              "velocity": 80,
              "position": 0,
              "duration": 0.3333333333333333
            },
            {
              "pitch": 59,
              "velocity": 67,
              "position": 0.5,
              "duration": 0.3333333333333333
            },
            {
              "pitch": 64,
              "velocity": 67,
              "position": 0.5,
              "duration": 0.3333333333333333
            },
            {
              "pitch": 67,
              "velocity": 67,
              "position": 0.5,
              "duration": 0.3333333333333333
            },
            {
              "pitch": 59,
              "velocity": 67,
              "position": 1.5,
              "duration": 0.3333333333333333
            },
            {
              "pitch": 64,
              "velocity": 67,
              "position": 1.5,
              "duration": 0.3333333333333333
            },
            {
              "pitch": 67,
              "velocity": 67,
              "position": 1.5,
              "duration": 0.3333333333333333
            },
            {
              "pitch": 59,
              "velocity": 67,
              "position": 3,
              "duration": 0.3333333333333333
            },
            {
              "pitch": 64,
              "velocity": 67,
              "position": 3,
              "duration": 0.3333333333333333
            },
            {
              "pitch": 67,
              "velocity": 67,
              "position": 3,
              "duration": 0.3333333333333333
            },
            {
              "pitch": 59,
              "velocity": 75,
              "position": 4.5,
              "duration": 0.3333333333333333
            },
            {
              "pitch": 64,
              "velocity": 75,
              "position": 4.5,
              "duration": 0.3333333333333333
            },
            {
              "pitch": 67,
              "velocity": 75,
              "position": 4.5,
              "duration": 0.3333333333333333
            },
            {
              "pitch": 59,
              "velocity": 47,
              "position": 5,
              "duration": 0.3333333333333333
            },
            {
              "pitch": 64,
              "velocity": 47,
              "position": 5,
              "duration": 0.3333333333333333
            },
            {
              "pitch": 67,
              "velocity": 47,
              "position": 5,
              "duration": 0.3333333333333333
            },
            {
              "pitch": 59,
              "velocity": 61,
              "position": 5.5,
              "duration": 0.3333333333333333
            },
            {
              "pitch": 64,
              "velocity": 61,
              "position": 5.5,
              "duration": 0.3333333333333333
            },
            {
              "pitch": 67,
              "velocity": 61,
              "position": 5.5,
              "duration": 0.3333333333333333
            },
            {
              "pitch": 59,
              "velocity": 80,
              "position": 6,
              "duration": 0.3333333333333333
            },
            {
              "pitch": 64,
              "velocity": 80,
              "position": 6,
              "duration": 0.3333333333333333
            },
            {
              "pitch": 67,
              "velocity": 80,
              "position": 6,
              "duration": 0.3333333333333333
            }
          ]
        },
        "13": {
          "ctab": {
            "srcChannel": 13,
            "name": "Strings",
            "accType": "PAD",
            "editable": false,
            "mutedNotes": [],
            "mutedChords": [],
            "autoStart": false,
            "sourceChordNote": 0,
            "sourceChordType": "Maj7",
            "ctb2Low": null,
            "ctb2Main": {
              "ntr": "ROOT_FIXED",
              "ntt": "CHORD",
              "bassOn": false,
              "chordRootUpperLimit": 6,
              "noteLowLimit": 0,
              "noteHighLimit": 127,
              "rtr": "PITCH_SHIFT"
            },
            "ctb2High": null
          },
          "notes": [
            {
              "pitch": 55,
              "velocity": 85,
              "position": 0,
              "duration": 0.65625
            },
            {
              "pitch": 59,
              "velocity": 85,
              "position": 0,
              "duration": 0.65625
            },
            {
              "pitch": 64,
              "velocity": 79,
              "position": 0,
              "duration": 0.65625
            },
            {
              "pitch": 59,
              "velocity": 85,
              "position": 6,
              "duration": 0.4270833333333333
            },
            {
              "pitch": 64,
              "velocity": 79,
              "position": 6,
              "duration": 0.4270833333333333
            },
            {
              "pitch": 55,
              "velocity": 85,
              "position": 6,
              "duration": 0.4791666666666667
            }
          ]
        }
      }
    },
    "Fill_In_BA": {
      "type": "Fill_In_BA",
      "sizeInBeats": 4,
      "channels": {
        "1": {
          "ctab": {
            "srcChannel": 1,
            "name": "CC_Crash",
            "accType": "RHYTHM",
            "editable": false,
            "mutedNotes": [],
            "mutedChords": [
              "1+2+5",
              "sus4",
              "1+5",
              "1+8",
              "7aug",
              "Maj7aug",
              "7(#9)",
              "7(b13)",
              "7(b9)",
              "7(13)",
              "7#11",
              "7(9)",
              "7b5",
              "7sus4",
              "7th",
              "dim7",
              "dim",
              "minMaj7(9)",
              "minMaj7",
              "min7(11)",
              "min7(9)",
              "min(9)",
              "m7b5",
              "min7",
              "min6",
              "min",
              "aug",
              "Maj6(9)",
              "Maj7(9)",
              "Maj(9)",
              "Maj7#11",
              "Maj7",
              "Maj6",
              "Maj"
            ],
            "autoStart": true,
            "sourceChordNote": 0,
            "sourceChordType": "Maj",
            "ctb2Low": null,
            "ctb2Main": {
              "ntr": "ROOT_FIXED",
              "ntt": "BYPASS",
              "bassOn": false,
              "chordRootUpperLimit": 0,
              "noteLowLimit": 0,
              "noteHighLimit": 127,
              "rtr": "RETRIGGER"
            },
            "ctb2High": null
          },
          "notes": []
        },
        "3": {
          "ctab": {
            "srcChannel": 3,
            "name": "NylRoot",
            "accType": "CHORD1",
            "editable": false,
            "mutedNotes": [],
            "mutedChords": [
              "1+2+5",
              "sus4",
              "1+5",
              "1+8",
              "Maj7aug",
              "dim",
              "minMaj7(9)",
              "minMaj7",
              "min6",
              "min",
              "aug",
              "Maj7(9)",
              "Maj7#11",
              "Maj7",
              "Maj6",
              "Maj"
            ],
            "autoStart": false,
            "sourceChordNote": 0,
            "sourceChordType": "Maj7",
            "ctb2Low": null,
            "ctb2Main": {
              "ntr": "ROOT_TRANSPOSITION",
              "ntt": "MELODY",
              "bassOn": false,
              "chordRootUpperLimit": 6,
              "noteLowLimit": 40,
              "noteHighLimit": 127,
              "rtr": "PITCH_SHIFT"
            },
            "ctb2High": null
          },
          "notes": [
            {
              "pitch": 60,
              "velocity": 61,
              "position": 0.010416666666666666,
              "duration": 0.4791666666666667
            },
            {
              "pitch": 60,
              "velocity": 53,
              "position": 2.5104166666666665,
              "duration": 1.4791666666666667
            }
          ]
        },
        "5": {
          "ctab": {
            "srcChannel": 5,
            "name": "StrRoot",
            "accType": "PAD",
            "editable": false,
            "mutedNotes": [],
            "mutedChords": [
              "1+2+5",
              "sus4",
              "1+5",
              "1+8",
              "Maj7aug",
              "dim",
              "minMaj7(9)",
              "minMaj7",
              "min6",
              "min",
              "aug",
              "Maj7(9)",
              "Maj7#11",
              "Maj7",
              "Maj6",
              "Maj"
            ],
            "autoStart": false,
            "sourceChordNote": 0,
            "sourceChordType": "Maj7",
            "ctb2Low": null,
            "ctb2Main": {
              "ntr": "ROOT_TRANSPOSITION",
              "ntt": "MELODY",
              "bassOn": false,
              "chordRootUpperLimit": 6,
              "noteLowLimit": 0,
              "noteHighLimit": 127,
              "rtr": "PITCH_SHIFT"
            },
            "ctb2High": null
          },
          "notes": [
            {
              "pitch": 60,
              "velocity": 40,
              "position": 0,
              "duration": 0.4895833333333333
            }
          ]
        },
        "8": {
          "ctab": {
            "srcChannel": 8,
            "name": "CubanP",
            "accType": "SUBRHYTHM",
            "editable": false,
            "mutedNotes": [],
            "mutedChords": [],
            "autoStart": true,
            "sourceChordNote": 0,
            "sourceChordType": "Maj7",
            "ctb2Low": null,
            "ctb2Main": {
              "ntr": "ROOT_FIXED",
              "ntt": "BYPASS",
              "bassOn": false,
              "chordRootUpperLimit": 6,
              "noteLowLimit": 0,
              "noteHighLimit": 127,
              "rtr": "PITCH_SHIFT"
            },
            "ctb2High": null
          },
          "notes": [
            {
              "pitch": 73,
              "velocity": 59,
              "position": 0,
              "duration": 0.17708333333333334
            },
            {
              "pitch": 39,
              "velocity": 118,
              "position": 0.5,
              "duration": 0.010416666666666666
            },
            {
              "pitch": 38,
              "velocity": 50,
              "position": 1,
              "duration": 0.010416666666666666
            },
            {
              "pitch": 36,
              "velocity": 52,
              "position": 1.5,
              "duration": 0.010416666666666666
            },
            {
              "pitch": 37,
              "velocity": 127,
              "position": 2.0208333333333335,
              "duration": 0.010416666666666666
            },
            {
              "pitch": 36,
              "velocity": 63,
              "position": 2.1666666666666665,
              "duration": 0.010416666666666666
            },
            {
              "pitch": 73,
              "velocity": 59,
              "position": 2,
              "duration": 0.20833333333333334
            },
            {
              "pitch": 73,
              "velocity": 46,
              "position": 3,
              "duration": 0.1875
            },
            {
              "pitch": 35,
              "velocity": 89,
              "position": 3,
              "duration": 0.7604166666666666
            }
          ]
        },
        "9": {
          "ctab": {
            "srcChannel": 9,
            "name": "Drums",
            "accType": "RHYTHM",
            "editable": false,
            "mutedNotes": [],
            "mutedChords": [],
            "autoStart": true,
            "sourceChordNote": 0,
            "sourceChordType": "Maj7",
            "ctb2Low": null,
            "ctb2Main": {
              "ntr": "ROOT_FIXED",
              "ntt": "BYPASS",
              "bassOn": false,
              "chordRootUpperLimit": 6,
              "noteLowLimit": 0,
              "noteHighLimit": 127,
              "rtr": "PITCH_SHIFT"
            },
            "ctb2High": null
          },
          "notes": [
            {
              "pitch": 33,
              "velocity": 80,
              "position": 0,
              "duration": 0.010416666666666666
            },
            {
              "pitch": 46,
              "velocity": 54,
              "position": 0,
              "duration": 0.010416666666666666
            },
            {
              "pitch": 41,
              "velocity": 26,
              "position": 2.5,
              "duration": 0.010416666666666666
            },
            {
              "pitch": 41,
              "velocity": 73,
              "position": 3,
              "duration": 0.010416666666666666
            },
            {
              "pitch": 57,
              "velocity": 50,
              "position": 3.9895833333333335,
              "duration": 0.010416666666666666
            }
          ]
        },
        "10": {
          "ctab": {
            "srcChannel": 10,
            "name": "Bass",
            "accType": "BASS",
            "editable": false,
            "mutedNotes": [],
            "mutedChords": [],
            "autoStart": false,
            "sourceChordNote": 0,
            "sourceChordType": "Maj7",
            "ctb2Low": null,
            "ctb2Main": {
              "ntr": "ROOT_TRANSPOSITION",
              "ntt": "MELODY",
              "bassOn": true,
              "chordRootUpperLimit": 3,
              "noteLowLimit": 28,
              "noteHighLimit": 127,
              "rtr": "PITCH_SHIFT_TO_ROOT"
            },
            "ctb2High": null
          },
          "notes": [
            {
              "pitch": 24,
              "velocity": 89,
              "position": 0,
              "duration": 0.6041666666666666
            },
            {
              "pitch": 24,
              "velocity": 65,
              "position": 2.5,
              "duration": 1.4895833333333333
            }
          ]
        },
        "11": {
          "ctab": {
            "srcChannel": 11,
            "name": "NylonGtr",
            "accType": "CHORD1",
            "editable": false,
            "mutedNotes": [],
            "mutedChords": [],
            "autoStart": false,
            "sourceChordNote": 0,
            "sourceChordType": "Maj7",
            "ctb2Low": null,
            "ctb2Main": {
              "ntr": "ROOT_FIXED",
              "ntt": "CHORD",
              "bassOn": false,
              "chordRootUpperLimit": 6,
              "noteLowLimit": 0,
              "noteHighLimit": 127,
              "rtr": "PITCH_SHIFT"
            },
            "ctb2High": null
          },
          "notes": [
            {
              "pitch": 64,
              "velocity": 65,
              "position": 0,
              "duration": 0.4895833333333333
            },
            {
              "pitch": 59,
              "velocity": 61,
              "position": 0.010416666666666666,
              "duration": 0.4791666666666667
            },
            {
              "pitch": 67,
              "velocity": 64,
              "position": 0.010416666666666666,
              "duration": 0.4791666666666667
            },
            {
              "pitch": 64,
              "velocity": 58,
              "position": 2.5,
              "duration": 1.4895833333333333
            },
            {
              "pitch": 55,
              "velocity": 56,
              "position": 2.5104166666666665,
              "duration": 1.4791666666666667
            },
            {
              "pitch": 59,
              "velocity": 53,
              "position": 2.5104166666666665,
              "duration": 1.4791666666666667
            }
          ]
        },
        "12": {
          "ctab": {
            "srcChannel": 12,
            "name": "Piano",
            "accType": "CHORD2",
            "editable": false,
            "mutedNotes": [],
            "mutedChords": [],
            "autoStart": false,
            "sourceChordNote": 0,
            "sourceChordType": "Maj7",
            "ctb2Low": null,
            "ctb2Main": {
              "ntr": "ROOT_FIXED",
              "ntt": "CHORD",
              "bassOn": false,
              "chordRootUpperLimit": 6,
              "noteLowLimit": 0,
              "noteHighLimit": 127,
              "rtr": "PITCH_SHIFT"
            },
            "ctb2High": null
          },
          "notes": [
            {
              "pitch": 55,
              "velocity": 76,
              "position": 0,
              "duration": 0.53125
            },
            {
              "pitch": 64,
              "velocity": 80,
              "position": 0,
              "duration": 0.5416666666666666
            },
            {
              "pitch": 59,
              "velocity": 70,
              "position": 0,
              "duration": 0.5520833333333334
            },
            {
              "pitch": 55,
              "velocity": 73,
              "position": 2.5,
              "duration": 1.4895833333333333
            },
            {
              "pitch": 59,
              "velocity": 71,
              "position": 2.5,
              "duration": 1.4895833333333333
            },
            {
              "pitch": 64,
              "velocity": 78,
              "position": 2.5,
              "duration": 1.4895833333333333
            }
          ]
        },
        "13": {
          "ctab": {
            "srcChannel": 13,
            "name": "Strings",
            "accType": "PAD",
            "editable": false,
            "mutedNotes": [],
            "mutedChords": [],
            "autoStart": false,
            "sourceChordNote": 0,
            "sourceChordType": "Maj7",
            "ctb2Low": null,
            "ctb2Main": {
              "ntr": "ROOT_FIXED",
              "ntt": "CHORD",
              "bassOn": false,
              "chordRootUpperLimit": 6,
              "noteLowLimit": 0,
              "noteHighLimit": 127,
              "rtr": "PITCH_SHIFT"
            },
            "ctb2High": null
          },
          "notes": [
            {
              "pitch": 55,
              "velocity": 72,
              "position": 0,
              "duration": 0.4895833333333333
            },
            {
              "pitch": 59,
              "velocity": 72,
              "position": 0,
              "duration": 0.4895833333333333
            },
            {
              "pitch": 64,
              "velocity": 72,
              "position": 0,
              "duration": 0.4895833333333333
            }
          ]
        }
      }
    },
    "Intro_B": {
      "type": "Intro_B",
      "sizeInBeats": 16,
      "channels": {
        "2": {
          "ctab": {
            "srcChannel": 2,
            "name": "Bass",
            "accType": "BASS",
            "editable": false,
            "mutedNotes": [],
            "mutedChords": [
              "1+2+5",
              "sus4",
              "1+5",
              "1+8",
              "7aug",
              "Maj7aug",
              "7(#9)",
              "7(b13)",
              "7(b9)",
              "7(13)",
              "7#11",
              "7(9)",
              "7b5",
              "7sus4",
              "7th",
              "aug",
              "Maj6(9)",
              "Maj7(9)",
              "Maj(9)",
              "Maj7#11",
              "Maj7",
              "Maj6",
              "Maj"
            ],
            "autoStart": false,
            "sourceChordNote": 0,
            "sourceChordType": "min",
            "ctb2Low": null,
            "ctb2Main": {
              "ntr": "ROOT_TRANSPOSITION",
              "ntt": "BYPASS",
              "bassOn": false,
              "chordRootUpperLimit": 3,
              "noteLowLimit": 28,
              "noteHighLimit": 127,
              "rtr": "PITCH_SHIFT"
            },
            "ctb2High": null
          },
          "notes": [
            {
              "pitch": 43,
              "velocity": 89,
              "position": 5.5,
              "duration": 0.9166666666666666
            },
            {
              "pitch": 43,
              "velocity": 84,
              "position": 6.5,
              "duration": 0.5
            },
            {
              "pitch": 31,
              "velocity": 101,
              "position": 7,
              "duration": 1
            },
            {
              "pitch": 36,
              "velocity": 101,
              "position": 8,
              "duration": 1.3333333333333333
            },
            {
              "pitch": 36,
              "velocity": 94,
              "position": 9.5,
              "duration": 0.3333333333333333
            },
            {
              "pitch": 31,
              "velocity": 101,
              "position": 10,
              "duration": 1.9166666666666667
            },
            {
              "pitch": 36,
              "velocity": 101,
              "position": 12,
              "duration": 1.3333333333333333
            },
            {
              "pitch": 31,
              "velocity": 94,
              "position": 13.5,
              "duration": 0.8333333333333334
            },
            {
              "pitch": 31,
              "velocity": 94,
              "position": 14.5,
              "duration": 0.3333333333333333
            },
            {
              "pitch": 31,
              "velocity": 101,
              "position": 15,
              "duration": 0.5
            }
          ]
        },
        "3": {
          "ctab": {
            "srcChannel": 3,
            "name": "NylonGtr",
            "accType": "CHORD1",
            "editable": false,
            "mutedNotes": [],
            "mutedChords": [
              "1+2+5",
              "sus4",
              "1+5",
              "1+8",
              "7aug",
              "Maj7aug",
              "7(#9)",
              "7(b13)",
              "7(b9)",
              "7(13)",
              "7#11",
              "7(9)",
              "7b5",
              "7sus4",
              "7th",
              "aug",
              "Maj6(9)",
              "Maj7(9)",
              "Maj(9)",
              "Maj7#11",
              "Maj7",
              "Maj6",
              "Maj"
            ],
            "autoStart": false,
            "sourceChordNote": 0,
            "sourceChordType": "min",
            "ctb2Low": null,
            "ctb2Main": {
              "ntr": "ROOT_TRANSPOSITION",
              "ntt": "BYPASS",
              "bassOn": false,
              "chordRootUpperLimit": 5,
              "noteLowLimit": 40,
              "noteHighLimit": 127,
              "rtr": "PITCH_SHIFT"
            },
            "ctb2High": null
          },
          "notes": [
            {
              "pitch": 48,
              "velocity": 64,
              "position": 0,
              "duration": 0.4166666666666667
            },
            {
              "pitch": 58,
              "velocity": 67,
              "position": 0,
              "duration": 0.4166666666666667
            },
            {
              "pitch": 63,
              "velocity": 67,
              "position": 0,
              "duration": 0.4166666666666667
            },
            {
              "pitch": 67,
              "velocity": 73,
              "position": 0,
              "duration": 0.4166666666666667
            },
            {
              "pitch": 48,
              "velocity": 46,
              "position": 1,
              "duration": 0.4166666666666667
            },
            {
              "pitch": 58,
              "velocity": 60,
              "position": 1,
              "duration": 0.4166666666666667
            },
            {
              "pitch": 63,
              "velocity": 60,
              "position": 1,
              "duration": 0.4166666666666667
            },
            {
              "pitch": 67,
              "velocity": 67,
              "position": 1,
              "duration": 0.4166666666666667
            },
            {
              "pitch": 43,
              "velocity": 46,
              "position": 2,
              "duration": 0.4583333333333333
            },
            {
              "pitch": 58,
              "velocity": 60,
              "position": 2,
              "duration": 0.4583333333333333
            },
            {
              "pitch": 62,
              "velocity": 60,
              "position": 2,
              "duration": 0.4583333333333333
            },
            {
              "pitch": 65,
              "velocity": 67,
              "position": 2,
              "duration": 0.4583333333333333
            },
            {
              "pitch": 43,
              "velocity": 67,
              "position": 2.5,
              "duration": 0.375
            },
            {
              "pitch": 58,
              "velocity": 67,
              "position": 2.5,
              "duration": 0.375
            },
            {
              "pitch": 62,
              "velocity": 67,
              "position": 2.5,
              "duration": 0.375
            },
            {
              "pitch": 65,
              "velocity": 73,
              "position": 2.5,
              "duration": 0.375
            },
            {
              "pitch": 48,
              "velocity": 53,
              "position": 3.5,
              "duration": 0.4166666666666667
            },
            {
              "pitch": 58,
              "velocity": 53,
              "position": 3.5,
              "duration": 0.4166666666666667
            },
            {
              "pitch": 63,
              "velocity": 53,
              "position": 3.5,
              "duration": 0.4166666666666667
            },
            {
              "pitch": 67,
              "velocity": 64,
              "position": 3.5,
              "duration": 0.4166666666666667
            },
            {
              "pitch": 48,
              "velocity": 64,
              "position": 4.5,
              "duration": 0.4166666666666667
            },
            {
              "pitch": 58,
              "velocity": 67,
              "position": 4.5,
              "duration": 0.4166666666666667
            },
            {
              "pitch": 63,
              "velocity": 67,
              "position": 4.5,
              "duration": 0.4166666666666667
            },
            {
              "pitch": 67,
              "velocity": 73,
              "position": 4.5,
              "duration": 0.4166666666666667
            },
            {
              "pitch": 43,
              "velocity": 67,
              "position": 5.5,
              "duration": 0.9166666666666666
            },
            {
              "pitch": 58,
              "velocity": 67,
              "position": 5.5,
              "duration": 0.9166666666666666
            },
            {
              "pitch": 62,
              "velocity": 67,
              "position": 5.5,
              "duration": 0.9166666666666666
            },
            {
              "pitch": 65,
              "velocity": 73,
              "position": 5.5,
              "duration": 0.9166666666666666
            },
            {
              "pitch": 43,
              "velocity": 38,
              "position": 6.5,
              "duration": 0.4583333333333333
            },
            {
              "pitch": 58,
              "velocity": 38,
              "position": 6.5,
              "duration": 0.4583333333333333
            },
            {
              "pitch": 62,
              "velocity": 38,
              "position": 6.5,
              "duration": 0.4583333333333333
            },
            {
              "pitch": 65,
              "velocity": 46,
              "position": 6.5,
              "duration": 0.4583333333333333
            },
            {
              "pitch": 43,
              "velocity": 67,
              "position": 7,
              "duration": 0.375
            },
            {
              "pitch": 58,
              "velocity": 67,
              "position": 7,
              "duration": 0.375
            },
            {
              "pitch": 62,
              "velocity": 67,
              "position": 7,
              "duration": 0.375
            },
            {
              "pitch": 65,
              "velocity": 73,
              "position": 7,
              "duration": 0.375
            },
            {
              "pitch": 48,
              "velocity": 64,
              "position": 8,
              "duration": 0.4166666666666667
            },
            {
              "pitch": 58,
              "velocity": 67,
              "position": 8,
              "duration": 0.4166666666666667
            },
            {
              "pitch": 63,
              "velocity": 67,
              "position": 8,
              "duration": 0.4166666666666667
            },
            {
              "pitch": 67,
              "velocity": 73,
              "position": 8,
              "duration": 0.4166666666666667
            },
            {
              "pitch": 48,
              "velocity": 46,
              "position": 9,
              "duration": 0.4166666666666667
            },
            {
              "pitch": 58,
              "velocity": 60,
              "position": 9,
              "duration": 0.4166666666666667
            },
            {
              "pitch": 63,
              "velocity": 60,
              "position": 9,
              "duration": 0.4166666666666667
            },
            {
              "pitch": 67,
              "velocity": 67,
              "position": 9,
              "duration": 0.4166666666666667
            },
            {
              "pitch": 43,
              "velocity": 46,
              "position": 10,
              "duration": 0.4583333333333333
            },
            {
              "pitch": 58,
              "velocity": 60,
              "position": 10,
              "duration": 0.4583333333333333
            },
            {
              "pitch": 62,
              "velocity": 60,
              "position": 10,
              "duration": 0.4583333333333333
            },
            {
              "pitch": 65,
              "velocity": 67,
              "position": 10,
              "duration": 0.4583333333333333
            },
            {
              "pitch": 43,
              "velocity": 67,
              "position": 10.5,
              "duration": 0.375
            },
            {
              "pitch": 58,
              "velocity": 67,
              "position": 10.5,
              "duration": 0.375
            },
            {
              "pitch": 62,
              "velocity": 67,
              "position": 10.5,
              "duration": 0.375
            },
            {
              "pitch": 65,
              "velocity": 73,
              "position": 10.5,
              "duration": 0.375
            },
            {
              "pitch": 48,
              "velocity": 53,
              "position": 11.5,
              "duration": 0.4166666666666667
            },
            {
              "pitch": 58,
              "velocity": 53,
              "position": 11.5,
              "duration": 0.4166666666666667
            },
            {
              "pitch": 63,
              "velocity": 53,
              "position": 11.5,
              "duration": 0.4166666666666667
            },
            {
              "pitch": 67,
              "velocity": 64,
              "position": 11.5,
              "duration": 0.4166666666666667
            },
            {
              "pitch": 48,
              "velocity": 64,
              "position": 12.5,
              "duration": 0.4166666666666667
            },
            {
              "pitch": 58,
              "velocity": 67,
              "position": 12.5,
              "duration": 0.4166666666666667
            },
            {
              "pitch": 63,
              "velocity": 67,
              "position": 12.5,
              "duration": 0.4166666666666667
            },
            {
              "pitch": 67,
              "velocity": 73,
              "position": 12.5,
              "duration": 0.4166666666666667
            },
            {
              "pitch": 43,
              "velocity": 67,
              "position": 13.5,
              "duration": 0.9166666666666666
            },
            {
              "pitch": 58,
              "velocity": 67,
              "position": 13.5,
              "duration": 0.9166666666666666
            },
            {
              "pitch": 62,
              "velocity": 67,
              "position": 13.5,
              "duration": 0.9166666666666666
            },
            {
              "pitch": 65,
              "velocity": 73,
              "position": 13.5,
              "duration": 0.9166666666666666
            },
            {
              "pitch": 43,
              "velocity": 38,
              "position": 14.5,
              "duration": 0.4583333333333333
            },
            {
              "pitch": 58,
              "velocity": 38,
              "position": 14.5,
              "duration": 0.4583333333333333
            },
            {
              "pitch": 62,
              "velocity": 38,
              "position": 14.5,
              "duration": 0.4583333333333333
            },
            {
              "pitch": 65,
              "velocity": 46,
              "position": 14.5,
              "duration": 0.4583333333333333
            },
            {
              "pitch": 43,
              "velocity": 67,
              "position": 15,
              "duration": 0.375
            },
            {
              "pitch": 58,
              "velocity": 67,
              "position": 15,
              "duration": 0.375
            },
            {
              "pitch": 62,
              "velocity": 67,
              "position": 15,
              "duration": 0.375
            },
            {
              "pitch": 65,
              "velocity": 73,
              "position": 15,
              "duration": 0.375
            }
          ]
        },
        "4": {
          "ctab": {
            "srcChannel": 4,
            "name": "Piano",
            "accType": "CHORD2",
            "editable": false,
            "mutedNotes": [],
            "mutedChords": [
              "1+2+5",
              "sus4",
              "1+5",
              "1+8",
              "7aug",
              "Maj7aug",
              "7(#9)",
              "7(b13)",
              "7(b9)",
              "7(13)",
              "7#11",
              "7(9)",
              "7b5",
              "7sus4",
              "7th",
              "aug",
              "Maj6(9)",
              "Maj7(9)",
              "Maj(9)",
              "Maj7#11",
              "Maj7",
              "Maj6",
              "Maj"
            ],
            "autoStart": false,
            "sourceChordNote": 0,
            "sourceChordType": "min",
            "ctb2Low": null,
            "ctb2Main": {
              "ntr": "ROOT_TRANSPOSITION",
              "ntt": "BYPASS",
              "bassOn": false,
              "chordRootUpperLimit": 5,
              "noteLowLimit": 0,
              "noteHighLimit": 79,
              "rtr": "PITCH_SHIFT"
            },
            "ctb2High": null
          },
          "notes": [
            {
              "pitch": 58,
              "velocity": 73,
              "position": 7.5,
              "duration": 8
            },
            {
              "pitch": 62,
              "velocity": 80,
              "position": 7.75,
              "duration": 7.75
            },
            {
              "pitch": 67,
              "velocity": 87,
              "position": 8,
              "duration": 7.5
            },
            {
              "pitch": 79,
              "velocity": 76,
              "position": 11.75,
              "duration": 3.75
            },
            {
              "pitch": 91,
              "velocity": 77,
              "position": 12,
              "duration": 3.5
            }
          ]
        },
        "8": {
          "ctab": {
            "srcChannel": 8,
            "name": "CubanP",
            "accType": "SUBRHYTHM",
            "editable": false,
            "mutedNotes": [],
            "mutedChords": [],
            "autoStart": true,
            "sourceChordNote": 0,
            "sourceChordType": "Maj7",
            "ctb2Low": null,
            "ctb2Main": {
              "ntr": "ROOT_FIXED",
              "ntt": "BYPASS",
              "bassOn": false,
              "chordRootUpperLimit": 6,
              "noteLowLimit": 0,
              "noteHighLimit": 127,
              "rtr": "PITCH_SHIFT"
            },
            "ctb2High": null
          },
          "notes": [
            {
              "pitch": 73,
              "velocity": 27,
              "position": 0,
              "duration": 0.17708333333333334
            },
            {
              "pitch": 73,
              "velocity": 30,
              "position": 0.5,
              "duration": 0.13541666666666666
            },
            {
              "pitch": 27,
              "velocity": 64,
              "position": 1,
              "duration": 0.010416666666666666
            },
            {
              "pitch": 73,
              "velocity": 96,
              "position": 1,
              "duration": 0.1875
            },
            {
              "pitch": 25,
              "velocity": 36,
              "position": 1.4895833333333333,
              "duration": 0.010416666666666666
            },
            {
              "pitch": 73,
              "velocity": 29,
              "position": 1.4895833333333333,
              "duration": 0.19791666666666666
            },
            {
              "pitch": 23,
              "velocity": 36,
              "position": 2,
              "duration": 0.010416666666666666
            },
            {
              "pitch": 73,
              "velocity": 25,
              "position": 1.9895833333333333,
              "duration": 0.20833333333333334
            },
            {
              "pitch": 25,
              "velocity": 126,
              "position": 2.4895833333333335,
              "duration": 0.010416666666666666
            },
            {
              "pitch": 73,
              "velocity": 29,
              "position": 2.5,
              "duration": 0.16666666666666666
            },
            {
              "pitch": 24,
              "velocity": 50,
              "position": 3,
              "duration": 0.010416666666666666
            },
            {
              "pitch": 73,
              "velocity": 89,
              "position": 2.9895833333333335,
              "duration": 0.1875
            },
            {
              "pitch": 23,
              "velocity": 52,
              "position": 3.4895833333333335,
              "duration": 0.010416666666666666
            },
            {
              "pitch": 73,
              "velocity": 27,
              "position": 3.4895833333333335,
              "duration": 0.21875
            },
            {
              "pitch": 73,
              "velocity": 27,
              "position": 3.9895833333333335,
              "duration": 0.1875
            },
            {
              "pitch": 27,
              "velocity": 57,
              "position": 4.489583333333333,
              "duration": 0.010416666666666666
            },
            {
              "pitch": 73,
              "velocity": 36,
              "position": 4.489583333333333,
              "duration": 0.17708333333333334
            },
            {
              "pitch": 73,
              "velocity": 87,
              "position": 5,
              "duration": 0.25
            },
            {
              "pitch": 23,
              "velocity": 57,
              "position": 5.489583333333333,
              "duration": 0.010416666666666666
            },
            {
              "pitch": 73,
              "velocity": 27,
              "position": 5.489583333333333,
              "duration": 0.2708333333333333
            },
            {
              "pitch": 25,
              "velocity": 106,
              "position": 5.989583333333333,
              "duration": 0.010416666666666666
            },
            {
              "pitch": 73,
              "velocity": 30,
              "position": 5.989583333333333,
              "duration": 0.19791666666666666
            },
            {
              "pitch": 73,
              "velocity": 33,
              "position": 6.5,
              "duration": 0.15625
            },
            {
              "pitch": 25,
              "velocity": 93,
              "position": 7,
              "duration": 0.010416666666666666
            },
            {
              "pitch": 73,
              "velocity": 90,
              "position": 7,
              "duration": 0.1875
            },
            {
              "pitch": 73,
              "velocity": 22,
              "position": 7.489583333333333,
              "duration": 0.19791666666666666
            },
            {
              "pitch": 73,
              "velocity": 27,
              "position": 8,
              "duration": 0.17708333333333334
            },
            {
              "pitch": 73,
              "velocity": 30,
              "position": 8.5,
              "duration": 0.13541666666666666
            },
            {
              "pitch": 27,
              "velocity": 64,
              "position": 9,
              "duration": 0.010416666666666666
            },
            {
              "pitch": 73,
              "velocity": 96,
              "position": 9,
              "duration": 0.1875
            },
            {
              "pitch": 25,
              "velocity": 36,
              "position": 9.489583333333334,
              "duration": 0.010416666666666666
            },
            {
              "pitch": 73,
              "velocity": 29,
              "position": 9.489583333333334,
              "duration": 0.19791666666666666
            },
            {
              "pitch": 23,
              "velocity": 36,
              "position": 10,
              "duration": 0.010416666666666666
            },
            {
              "pitch": 73,
              "velocity": 25,
              "position": 9.989583333333334,
              "duration": 0.20833333333333334
            },
            {
              "pitch": 25,
              "velocity": 126,
              "position": 10.489583333333334,
              "duration": 0.010416666666666666
            },
            {
              "pitch": 73,
              "velocity": 29,
              "position": 10.5,
              "duration": 0.16666666666666666
            },
            {
              "pitch": 24,
              "velocity": 50,
              "position": 11,
              "duration": 0.010416666666666666
            },
            {
              "pitch": 73,
              "velocity": 89,
              "position": 10.989583333333334,
              "duration": 0.1875
            },
            {
              "pitch": 23,
              "velocity": 52,
              "position": 11.489583333333334,
              "duration": 0.010416666666666666
            },
            {
              "pitch": 73,
              "velocity": 27,
              "position": 11.489583333333334,
              "duration": 0.21875
            },
            {
              "pitch": 73,
              "velocity": 27,
              "position": 11.989583333333334,
              "duration": 0.1875
            },
            {
              "pitch": 27,
              "velocity": 57,
              "position": 12.489583333333334,
              "duration": 0.010416666666666666
            },
            {
              "pitch": 73,
              "velocity": 36,
              "position": 12.489583333333334,
              "duration": 0.17708333333333334
            },
            {
              "pitch": 73,
              "velocity": 87,
              "position": 13,
              "duration": 0.25
            },
            {
              "pitch": 23,
              "velocity": 57,
              "position": 13.489583333333334,
              "duration": 0.010416666666666666
            },
            {
              "pitch": 73,
              "velocity": 27,
              "position": 13.489583333333334,
              "duration": 0.2708333333333333
            },
            {
              "pitch": 25,
              "velocity": 106,
              "position": 13.989583333333334,
              "duration": 0.010416666666666666
            },
            {
              "pitch": 73,
              "velocity": 30,
              "position": 13.989583333333334,
              "duration": 0.19791666666666666
            },
            {
              "pitch": 73,
              "velocity": 33,
              "position": 14.5,
              "duration": 0.15625
            },
            {
              "pitch": 25,
              "velocity": 93,
              "position": 15,
              "duration": 0.010416666666666666
            },
            {
              "pitch": 73,
              "velocity": 90,
              "position": 15,
              "duration": 0.1875
            },
            {
              "pitch": 73,
              "velocity": 22,
              "position": 15.489583333333334,
              "duration": 0.19791666666666666
            }
          ]
        },
        "9": {
          "ctab": {
            "srcChannel": 9,
            "name": "MainD",
            "accType": "RHYTHM",
            "editable": false,
            "mutedNotes": [],
            "mutedChords": [],
            "autoStart": true,
            "sourceChordNote": 0,
            "sourceChordType": "Maj7",
            "ctb2Low": null,
            "ctb2Main": {
              "ntr": "ROOT_FIXED",
              "ntt": "BYPASS",
              "bassOn": false,
              "chordRootUpperLimit": 6,
              "noteLowLimit": 0,
              "noteHighLimit": 127,
              "rtr": "PITCH_SHIFT"
            },
            "ctb2High": null
          },
          "notes": [
            {
              "pitch": 46,
              "velocity": 48,
              "position": 7,
              "duration": 0.010416666666666666
            },
            {
              "pitch": 33,
              "velocity": 39,
              "position": 7.5,
              "duration": 0.010416666666666666
            },
            {
              "pitch": 42,
              "velocity": 47,
              "position": 7.5,
              "duration": 0.010416666666666666
            },
            {
              "pitch": 33,
              "velocity": 80,
              "position": 8,
              "duration": 0.010416666666666666
            },
            {
              "pitch": 37,
              "velocity": 78,
              "position": 8,
              "duration": 0.010416666666666666
            },
            {
              "pitch": 42,
              "velocity": 58,
              "position": 8,
              "duration": 0.010416666666666666
            },
            {
              "pitch": 42,
              "velocity": 52,
              "position": 8.5,
              "duration": 0.010416666666666666
            },
            {
              "pitch": 42,
              "velocity": 53,
              "position": 9,
              "duration": 0.010416666666666666
            },
            {
              "pitch": 33,
              "velocity": 39,
              "position": 9.5,
              "duration": 0.010416666666666666
            },
            {
              "pitch": 37,
              "velocity": 78,
              "position": 9.5,
              "duration": 0.010416666666666666
            },
            {
              "pitch": 42,
              "velocity": 56,
              "position": 9.5,
              "duration": 0.010416666666666666
            },
            {
              "pitch": 33,
              "velocity": 80,
              "position": 10,
              "duration": 0.010416666666666666
            },
            {
              "pitch": 42,
              "velocity": 57,
              "position": 10,
              "duration": 0.010416666666666666
            },
            {
              "pitch": 42,
              "velocity": 51,
              "position": 10.5,
              "duration": 0.010416666666666666
            },
            {
              "pitch": 37,
              "velocity": 78,
              "position": 11,
              "duration": 0.010416666666666666
            },
            {
              "pitch": 42,
              "velocity": 55,
              "position": 11,
              "duration": 0.010416666666666666
            },
            {
              "pitch": 42,
              "velocity": 48,
              "position": 11.5,
              "duration": 0.010416666666666666
            },
            {
              "pitch": 33,
              "velocity": 80,
              "position": 12,
              "duration": 0.010416666666666666
            },
            {
              "pitch": 42,
              "velocity": 52,
              "position": 12,
              "duration": 0.010416666666666666
            },
            {
              "pitch": 42,
              "velocity": 54,
              "position": 12.5,
              "duration": 0.010416666666666666
            },
            {
              "pitch": 37,
              "velocity": 78,
              "position": 13,
              "duration": 0.010416666666666666
            },
            {
              "pitch": 42,
              "velocity": 52,
              "position": 13,
              "duration": 0.010416666666666666
            },
            {
              "pitch": 33,
              "velocity": 39,
              "position": 13.5,
              "duration": 0.010416666666666666
            },
            {
              "pitch": 41,
              "velocity": 49,
              "position": 13.5,
              "duration": 0.010416666666666666
            },
            {
              "pitch": 42,
              "velocity": 56,
              "position": 13.5,
              "duration": 0.010416666666666666
            },
            {
              "pitch": 33,
              "velocity": 80,
              "position": 14,
              "duration": 0.010416666666666666
            },
            {
              "pitch": 41,
              "velocity": 73,
              "position": 14,
              "duration": 0.010416666666666666
            },
            {
              "pitch": 42,
              "velocity": 48,
              "position": 14,
              "duration": 0.010416666666666666
            },
            {
              "pitch": 37,
              "velocity": 78,
              "position": 14.5,
              "duration": 0.010416666666666666
            },
            {
              "pitch": 42,
              "velocity": 58,
              "position": 14.5,
              "duration": 0.010416666666666666
            },
            {
              "pitch": 42,
              "velocity": 48,
              "position": 15,
              "duration": 0.010416666666666666
            },
            {
              "pitch": 43,
              "velocity": 73,
              "position": 15,
              "duration": 0.010416666666666666
            },
            {
              "pitch": 42,
              "velocity": 47,
              "position": 15.5,
              "duration": 0.010416666666666666
            }
          ]
        },
        "10": {
          "ctab": {
            "srcChannel": 10,
            "name": "Bass",
            "accType": "BASS",
            "editable": false,
            "mutedNotes": [],
            "mutedChords": [
              "dim7",
              "dim",
              "minMaj7(9)",
              "minMaj7",
              "min7(11)",
              "min7(9)",
              "min(9)",
              "m7b5",
              "min7",
              "min6",
              "min"
            ],
            "autoStart": false,
            "sourceChordNote": 0,
            "sourceChordType": "Maj",
            "ctb2Low": null,
            "ctb2Main": {
              "ntr": "ROOT_TRANSPOSITION",
              "ntt": "BYPASS",
              "bassOn": false,
              "chordRootUpperLimit": 3,
              "noteLowLimit": 28,
              "noteHighLimit": 127,
              "rtr": "PITCH_SHIFT"
            },
            "ctb2High": null
          },
          "notes": [
            {
              "pitch": 43,
              "velocity": 90,
              "position": 5.5,
              "duration": 0.9166666666666666
            },
            {
              "pitch": 43,
              "velocity": 85,
              "position": 6.5,
              "duration": 0.5
            },
            {
              "pitch": 31,
              "velocity": 98,
              "position": 7,
              "duration": 1
            },
            {
              "pitch": 24,
              "velocity": 98,
              "position": 8,
              "duration": 1.3333333333333333
            },
            {
              "pitch": 24,
              "velocity": 91,
              "position": 9.5,
              "duration": 0.3333333333333333
            },
            {
              "pitch": 31,
              "velocity": 98,
              "position": 10,
              "duration": 1.9166666666666667
            },
            {
              "pitch": 24,
              "velocity": 98,
              "position": 12,
              "duration": 1.3333333333333333
            },
            {
              "pitch": 31,
              "velocity": 91,
              "position": 13.5,
              "duration": 0.8333333333333334
            },
            {
              "pitch": 31,
              "velocity": 91,
              "position": 14.5,
              "duration": 0.3333333333333333
            },
            {
              "pitch": 31,
              "velocity": 98,
              "position": 15,
              "duration": 0.5
            }
          ]
        },
        "11": {
          "ctab": {
            "srcChannel": 11,
            "name": "NylonGtr",
            "accType": "CHORD1",
            "editable": false,
            "mutedNotes": [],
            "mutedChords": [
              "dim7",
              "dim",
              "minMaj7(9)",
              "minMaj7",
              "min7(11)",
              "min7(9)",
              "min(9)",
              "m7b5",
              "min7",
              "min6",
              "min"
            ],
            "autoStart": false,
            "sourceChordNote": 0,
            "sourceChordType": "Maj",
            "ctb2Low": null,
            "ctb2Main": {
              "ntr": "ROOT_TRANSPOSITION",
              "ntt": "BYPASS",
              "bassOn": false,
              "chordRootUpperLimit": 5,
              "noteLowLimit": 40,
              "noteHighLimit": 127,
              "rtr": "PITCH_SHIFT"
            },
            "ctb2High": null
          },
          "notes": [
            {
              "pitch": 52,
              "velocity": 64,
              "position": 0,
              "duration": 0.4166666666666667
            },
            {
              "pitch": 57,
              "velocity": 67,
              "position": 0,
              "duration": 0.4166666666666667
            },
            {
              "pitch": 62,
              "velocity": 67,
              "position": 0,
              "duration": 0.4166666666666667
            },
            {
              "pitch": 67,
              "velocity": 73,
              "position": 0,
              "duration": 0.4166666666666667
            },
            {
              "pitch": 52,
              "velocity": 46,
              "position": 1,
              "duration": 0.4166666666666667
            },
            {
              "pitch": 57,
              "velocity": 60,
              "position": 1,
              "duration": 0.4166666666666667
            },
            {
              "pitch": 62,
              "velocity": 60,
              "position": 1,
              "duration": 0.4166666666666667
            },
            {
              "pitch": 67,
              "velocity": 67,
              "position": 1,
              "duration": 0.4166666666666667
            },
            {
              "pitch": 55,
              "velocity": 46,
              "position": 2,
              "duration": 0.4583333333333333
            },
            {
              "pitch": 60,
              "velocity": 60,
              "position": 2,
              "duration": 0.4583333333333333
            },
            {
              "pitch": 65,
              "velocity": 60,
              "position": 2,
              "duration": 0.4583333333333333
            },
            {
              "pitch": 70,
              "velocity": 67,
              "position": 2,
              "duration": 0.4583333333333333
            },
            {
              "pitch": 55,
              "velocity": 67,
              "position": 2.5,
              "duration": 0.375
            },
            {
              "pitch": 60,
              "velocity": 67,
              "position": 2.5,
              "duration": 0.375
            },
            {
              "pitch": 65,
              "velocity": 67,
              "position": 2.5,
              "duration": 0.375
            },
            {
              "pitch": 70,
              "velocity": 73,
              "position": 2.5,
              "duration": 0.375
            },
            {
              "pitch": 52,
              "velocity": 53,
              "position": 3.5,
              "duration": 0.4166666666666667
            },
            {
              "pitch": 57,
              "velocity": 53,
              "position": 3.5,
              "duration": 0.4166666666666667
            },
            {
              "pitch": 62,
              "velocity": 53,
              "position": 3.5,
              "duration": 0.4166666666666667
            },
            {
              "pitch": 67,
              "velocity": 64,
              "position": 3.5,
              "duration": 0.4166666666666667
            },
            {
              "pitch": 52,
              "velocity": 64,
              "position": 4.5,
              "duration": 0.4166666666666667
            },
            {
              "pitch": 57,
              "velocity": 67,
              "position": 4.5,
              "duration": 0.4166666666666667
            },
            {
              "pitch": 62,
              "velocity": 67,
              "position": 4.5,
              "duration": 0.4166666666666667
            },
            {
              "pitch": 67,
              "velocity": 73,
              "position": 4.5,
              "duration": 0.4166666666666667
            },
            {
              "pitch": 55,
              "velocity": 67,
              "position": 5.5,
              "duration": 0.9166666666666666
            },
            {
              "pitch": 60,
              "velocity": 67,
              "position": 5.5,
              "duration": 0.9166666666666666
            },
            {
              "pitch": 65,
              "velocity": 67,
              "position": 5.5,
              "duration": 0.9166666666666666
            },
            {
              "pitch": 70,
              "velocity": 73,
              "position": 5.5,
              "duration": 0.9166666666666666
            },
            {
              "pitch": 55,
              "velocity": 38,
              "position": 6.5,
              "duration": 0.4583333333333333
            },
            {
              "pitch": 60,
              "velocity": 38,
              "position": 6.5,
              "duration": 0.4583333333333333
            },
            {
              "pitch": 65,
              "velocity": 38,
              "position": 6.5,
              "duration": 0.4583333333333333
            },
            {
              "pitch": 70,
              "velocity": 46,
              "position": 6.5,
              "duration": 0.4583333333333333
            },
            {
              "pitch": 55,
              "velocity": 67,
              "position": 7,
              "duration": 0.375
            },
            {
              "pitch": 60,
              "velocity": 67,
              "position": 7,
              "duration": 0.375
            },
            {
              "pitch": 65,
              "velocity": 67,
              "position": 7,
              "duration": 0.375
            },
            {
              "pitch": 70,
              "velocity": 73,
              "position": 7,
              "duration": 0.375
            },
            {
              "pitch": 52,
              "velocity": 64,
              "position": 8,
              "duration": 0.4166666666666667
            },
            {
              "pitch": 57,
              "velocity": 67,
              "position": 8,
              "duration": 0.4166666666666667
            },
            {
              "pitch": 62,
              "velocity": 67,
              "position": 8,
              "duration": 0.4166666666666667
            },
            {
              "pitch": 67,
              "velocity": 73,
              "position": 8,
              "duration": 0.4166666666666667
            },
            {
              "pitch": 52,
              "velocity": 46,
              "position": 9,
              "duration": 0.4166666666666667
            },
            {
              "pitch": 57,
              "velocity": 60,
              "position": 9,
              "duration": 0.4166666666666667
            },
            {
              "pitch": 62,
              "velocity": 60,
              "position": 9,
              "duration": 0.4166666666666667
            },
            {
              "pitch": 67,
              "velocity": 67,
              "position": 9,
              "duration": 0.4166666666666667
            },
            {
              "pitch": 55,
              "velocity": 46,
              "position": 10,
              "duration": 0.4583333333333333
            },
            {
              "pitch": 60,
              "velocity": 60,
              "position": 10,
              "duration": 0.4583333333333333
            },
            {
              "pitch": 65,
              "velocity": 60,
              "position": 10,
              "duration": 0.4583333333333333
            },
            {
              "pitch": 70,
              "velocity": 67,
              "position": 10,
              "duration": 0.4583333333333333
            },
            {
              "pitch": 55,
              "velocity": 67,
              "position": 10.5,
              "duration": 0.375
            },
            {
              "pitch": 60,
              "velocity": 67,
              "position": 10.5,
              "duration": 0.375
            },
            {
              "pitch": 65,
              "velocity": 67,
              "position": 10.5,
              "duration": 0.375
            },
            {
              "pitch": 70,
              "velocity": 73,
              "position": 10.5,
              "duration": 0.375
            },
            {
              "pitch": 52,
              "velocity": 53,
              "position": 11.5,
              "duration": 0.4166666666666667
            },
            {
              "pitch": 57,
              "velocity": 53,
              "position": 11.5,
              "duration": 0.4166666666666667
            },
            {
              "pitch": 62,
              "velocity": 53,
              "position": 11.5,
              "duration": 0.4166666666666667
            },
            {
              "pitch": 67,
              "velocity": 64,
              "position": 11.5,
              "duration": 0.4166666666666667
            },
            {
              "pitch": 52,
              "velocity": 64,
              "position": 12.5,
              "duration": 0.4166666666666667
            },
            {
              "pitch": 57,
              "velocity": 67,
              "position": 12.5,
              "duration": 0.4166666666666667
            },
            {
              "pitch": 62,
              "velocity": 67,
              "position": 12.5,
              "duration": 0.4166666666666667
            },
            {
              "pitch": 67,
              "velocity": 73,
              "position": 12.5,
              "duration": 0.4166666666666667
            },
            {
              "pitch": 55,
              "velocity": 67,
              "position": 13.5,
              "duration": 0.9166666666666666
            },
            {
              "pitch": 60,
              "velocity": 67,
              "position": 13.5,
              "duration": 0.9166666666666666
            },
            {
              "pitch": 65,
              "velocity": 67,
              "position": 13.5,
              "duration": 0.9166666666666666
            },
            {
              "pitch": 70,
              "velocity": 73,
              "position": 13.5,
              "duration": 0.9166666666666666
            },
            {
              "pitch": 55,
              "velocity": 38,
              "position": 14.5,
              "duration": 0.4583333333333333
            },
            {
              "pitch": 60,
              "velocity": 38,
              "position": 14.5,
              "duration": 0.4583333333333333
            },
            {
              "pitch": 65,
              "velocity": 38,
              "position": 14.5,
              "duration": 0.4583333333333333
            },
            {
              "pitch": 70,
              "velocity": 46,
              "position": 14.5,
              "duration": 0.4583333333333333
            },
            {
              "pitch": 55,
              "velocity": 67,
              "position": 15,
              "duration": 0.375
            },
            {
              "pitch": 60,
              "velocity": 67,
              "position": 15,
              "duration": 0.375
            },
            {
              "pitch": 65,
              "velocity": 67,
              "position": 15,
              "duration": 0.375
            },
            {
              "pitch": 70,
              "velocity": 73,
              "position": 15,
              "duration": 0.375
            }
          ]
        },
        "12": {
          "ctab": {
            "srcChannel": 12,
            "name": "Piano",
            "accType": "CHORD2",
            "editable": false,
            "mutedNotes": [],
            "mutedChords": [
              "dim7",
              "dim",
              "minMaj7(9)",
              "minMaj7",
              "min7(11)",
              "min7(9)",
              "min(9)",
              "m7b5",
              "min7",
              "min6",
              "min"
            ],
            "autoStart": false,
            "sourceChordNote": 0,
            "sourceChordType": "Maj",
            "ctb2Low": null,
            "ctb2Main": {
              "ntr": "ROOT_TRANSPOSITION",
              "ntt": "BYPASS",
              "bassOn": false,
              "chordRootUpperLimit": 5,
              "noteLowLimit": 0,
              "noteHighLimit": 79,
              "rtr": "PITCH_SHIFT"
            },
            "ctb2High": null
          },
          "notes": [
            {
              "pitch": 57,
              "velocity": 73,
              "position": 7.5,
              "duration": 7.989583333333333
            },
            {
              "pitch": 62,
              "velocity": 80,
              "position": 7.75,
              "duration": 7.739583333333333
            },
            {
              "pitch": 67,
              "velocity": 87,
              "position": 8,
              "duration": 7.489583333333333
            },
            {
              "pitch": 79,
              "velocity": 76,
              "position": 11.75,
              "duration": 3.7395833333333335
            },
            {
              "pitch": 91,
              "velocity": 77,
              "position": 12,
              "duration": 3.4895833333333335
            }
          ]
        },
        "13": {
          "ctab": {
            "srcChannel": 13,
            "name": "Strings",
            "accType": "PAD",
            "editable": false,
            "mutedNotes": [],
            "mutedChords": [],
            "autoStart": false,
            "sourceChordNote": 0,
            "sourceChordType": "Maj",
            "ctb2Low": null,
            "ctb2Main": {
              "ntr": "ROOT_TRANSPOSITION",
              "ntt": "BYPASS",
              "bassOn": false,
              "chordRootUpperLimit": 5,
              "noteLowLimit": 0,
              "noteHighLimit": 79,
              "rtr": "PITCH_SHIFT"
            },
            "ctb2High": null
          },
          "notes": [
            {
              "pitch": 84,
              "velocity": 67,
              "position": 0.010416666666666666,
              "duration": 15.5
            }
          ]
        }
      }
    },
    "Intro_C": {
      "type": "Intro_C",
      "sizeInBeats": 32,
      "channels": {
        "2": {
          "ctab": {
            "srcChannel": 2,
            "name": "Bass",
            "accType": "BASS",
            "editable": false,
            "mutedNotes": [],
            "mutedChords": [
              "1+2+5",
              "sus4",
              "1+5",
              "1+8",
              "7aug",
              "Maj7aug",
              "7(#9)",
              "7(b13)",
              "7(b9)",
              "7(13)",
              "7#11",
              "7(9)",
              "7b5",
              "7sus4",
              "7th",
              "aug",
              "Maj6(9)",
              "Maj7(9)",
              "Maj(9)",
              "Maj7#11",
              "Maj7",
              "Maj6",
              "Maj"
            ],
            "autoStart": false,
            "sourceChordNote": 0,
            "sourceChordType": "min",
            "ctb2Low": null,
            "ctb2Main": {
              "ntr": "ROOT_TRANSPOSITION",
              "ntt": "BYPASS",
              "bassOn": false,
              "chordRootUpperLimit": 3,
              "noteLowLimit": 28,
              "noteHighLimit": 127,
              "rtr": "PITCH_SHIFT"
            },
            "ctb2High": null
          },
          "notes": [
            {
              "pitch": 24,
              "velocity": 81,
              "position": 0,
              "duration": 1.125
            },
            {
              "pitch": 24,
              "velocity": 75,
              "position": 1.5,
              "duration": 0.2916666666666667
            },
            {
              "pitch": 19,
              "velocity": 82,
              "position": 2,
              "duration": 1.03125
            },
            {
              "pitch": 19,
              "velocity": 67,
              "position": 3.5,
              "duration": 0.3333333333333333
            },
            {
              "pitch": 24,
              "velocity": 77,
              "position": 4,
              "duration": 1.125
            },
            {
              "pitch": 24,
              "velocity": 70,
              "position": 5.5,
              "duration": 0.4166666666666667
            },
            {
              "pitch": 19,
              "velocity": 74,
              "position": 6,
              "duration": 0.9791666666666666
            },
            {
              "pitch": 24,
              "velocity": 74,
              "position": 7,
              "duration": 0.375
            },
            {
              "pitch": 19,
              "velocity": 60,
              "position": 7.5,
              "duration": 0.3645833333333333
            },
            {
              "pitch": 24,
              "velocity": 83,
              "position": 8,
              "duration": 1.1145833333333333
            },
            {
              "pitch": 24,
              "velocity": 75,
              "position": 9.5,
              "duration": 0.3229166666666667
            },
            {
              "pitch": 19,
              "velocity": 82,
              "position": 10,
              "duration": 1.1770833333333333
            },
            {
              "pitch": 24,
              "velocity": 83,
              "position": 11.5,
              "duration": 1.6354166666666667
            },
            {
              "pitch": 24,
              "velocity": 72,
              "position": 13.5,
              "duration": 0.3541666666666667
            },
            {
              "pitch": 19,
              "velocity": 82,
              "position": 14,
              "duration": 0.9895833333333334
            },
            {
              "pitch": 24,
              "velocity": 74,
              "position": 15,
              "duration": 0.3958333333333333
            },
            {
              "pitch": 19,
              "velocity": 58,
              "position": 15.5,
              "duration": 0.375
            },
            {
              "pitch": 24,
              "velocity": 83,
              "position": 16,
              "duration": 1.1770833333333333
            },
            {
              "pitch": 24,
              "velocity": 70,
              "position": 17.5,
              "duration": 0.4583333333333333
            },
            {
              "pitch": 19,
              "velocity": 82,
              "position": 18,
              "duration": 1.1875
            },
            {
              "pitch": 19,
              "velocity": 69,
              "position": 19.5,
              "duration": 0.4583333333333333
            },
            {
              "pitch": 24,
              "velocity": 76,
              "position": 20,
              "duration": 1.2291666666666667
            },
            {
              "pitch": 24,
              "velocity": 72,
              "position": 21.5,
              "duration": 0.375
            },
            {
              "pitch": 19,
              "velocity": 69,
              "position": 22,
              "duration": 0.9270833333333334
            },
            {
              "pitch": 24,
              "velocity": 70,
              "position": 23,
              "duration": 0.46875
            },
            {
              "pitch": 19,
              "velocity": 62,
              "position": 23.5,
              "duration": 0.21875
            },
            {
              "pitch": 19,
              "velocity": 88,
              "position": 24,
              "duration": 6.239583333333333
            },
            {
              "pitch": 19,
              "velocity": 70,
              "position": 30.5,
              "duration": 0.3958333333333333
            },
            {
              "pitch": 21,
              "velocity": 77,
              "position": 31,
              "duration": 0.4375
            },
            {
              "pitch": 19,
              "velocity": 74,
              "position": 31.5,
              "duration": 0.3125
            }
          ]
        },
        "3": {
          "ctab": {
            "srcChannel": 3,
            "name": "NylonGtr",
            "accType": "CHORD1",
            "editable": false,
            "mutedNotes": [],
            "mutedChords": [
              "1+2+5",
              "sus4",
              "1+5",
              "1+8",
              "7aug",
              "Maj7aug",
              "7(#9)",
              "7(b13)",
              "7(b9)",
              "7(13)",
              "7#11",
              "7(9)",
              "7b5",
              "7sus4",
              "7th",
              "aug",
              "Maj6(9)",
              "Maj7(9)",
              "Maj(9)",
              "Maj7#11",
              "Maj7",
              "Maj6",
              "Maj"
            ],
            "autoStart": false,
            "sourceChordNote": 0,
            "sourceChordType": "min",
            "ctb2Low": null,
            "ctb2Main": {
              "ntr": "ROOT_TRANSPOSITION",
              "ntt": "BYPASS",
              "bassOn": false,
              "chordRootUpperLimit": 5,
              "noteLowLimit": 40,
              "noteHighLimit": 127,
              "rtr": "PITCH_SHIFT"
            },
            "ctb2High": null
          },
          "notes": [
            {
              "pitch": 67,
              "velocity": 127,
              "position": 0.010416666666666666,
              "duration": 0.84375
            },
            {
              "pitch": 67,
              "velocity": 116,
              "position": 1,
              "duration": 0.4166666666666667
            },
            {
              "pitch": 60,
              "velocity": 94,
              "position": 1.5,
              "duration": 0.3854166666666667
            },
            {
              "pitch": 63,
              "velocity": 100,
              "position": 2.5,
              "duration": 0.34375
            },
            {
              "pitch": 67,
              "velocity": 114,
              "position": 2.5,
              "duration": 0.34375
            },
            {
              "pitch": 60,
              "velocity": 99,
              "position": 3.5,
              "duration": 0.22916666666666666
            },
            {
              "pitch": 62,
              "velocity": 103,
              "position": 3.5,
              "duration": 2.7395833333333335
            },
            {
              "pitch": 65,
              "velocity": 120,
              "position": 3.5,
              "duration": 3.0833333333333335
            },
            {
              "pitch": 60,
              "velocity": 91,
              "position": 6.5,
              "duration": 0.4895833333333333
            },
            {
              "pitch": 63,
              "velocity": 103,
              "position": 7,
              "duration": 0.4895833333333333
            },
            {
              "pitch": 65,
              "velocity": 100,
              "position": 7.5,
              "duration": 0.4895833333333333
            },
            {
              "pitch": 67,
              "velocity": 127,
              "position": 8,
              "duration": 0.7708333333333334
            },
            {
              "pitch": 67,
              "velocity": 127,
              "position": 9,
              "duration": 0.5208333333333334
            },
            {
              "pitch": 60,
              "velocity": 95,
              "position": 9.5,
              "duration": 0.3333333333333333
            },
            {
              "pitch": 67,
              "velocity": 127,
              "position": 10.5,
              "duration": 0.4166666666666667
            },
            {
              "pitch": 65,
              "velocity": 127,
              "position": 11.5,
              "duration": 1.9895833333333333
            },
            {
              "pitch": 63,
              "velocity": 127,
              "position": 13.5,
              "duration": 1.4895833333333333
            },
            {
              "pitch": 62,
              "velocity": 116,
              "position": 15,
              "duration": 0.6354166666666666
            },
            {
              "pitch": 67,
              "velocity": 127,
              "position": 16,
              "duration": 0.7395833333333334
            },
            {
              "pitch": 67,
              "velocity": 127,
              "position": 17,
              "duration": 0.5625
            },
            {
              "pitch": 60,
              "velocity": 101,
              "position": 17.5,
              "duration": 0.3020833333333333
            },
            {
              "pitch": 67,
              "velocity": 116,
              "position": 18.5,
              "duration": 0.6770833333333334
            },
            {
              "pitch": 60,
              "velocity": 90,
              "position": 19,
              "duration": 0.2604166666666667
            },
            {
              "pitch": 62,
              "velocity": 105,
              "position": 19.5,
              "duration": 2.4375
            },
            {
              "pitch": 65,
              "velocity": 123,
              "position": 19.5,
              "duration": 2.9895833333333335
            },
            {
              "pitch": 63,
              "velocity": 120,
              "position": 22.5,
              "duration": 0.4895833333333333
            },
            {
              "pitch": 65,
              "velocity": 105,
              "position": 23,
              "duration": 0.4895833333333333
            },
            {
              "pitch": 67,
              "velocity": 127,
              "position": 23.5,
              "duration": 3.0729166666666665
            },
            {
              "pitch": 59,
              "velocity": 103,
              "position": 26.5,
              "duration": 0.4895833333333333
            },
            {
              "pitch": 63,
              "velocity": 104,
              "position": 27,
              "duration": 0.4895833333333333
            },
            {
              "pitch": 68,
              "velocity": 127,
              "position": 27.5,
              "duration": 1.9895833333333333
            },
            {
              "pitch": 63,
              "velocity": 116,
              "position": 29.5,
              "duration": 1.4895833333333333
            },
            {
              "pitch": 65,
              "velocity": 123,
              "position": 31,
              "duration": 0.9895833333333334
            }
          ]
        },
        "4": {
          "ctab": {
            "srcChannel": 4,
            "name": "Piano",
            "accType": "CHORD2",
            "editable": false,
            "mutedNotes": [],
            "mutedChords": [
              "1+2+5",
              "sus4",
              "1+5",
              "1+8",
              "7aug",
              "Maj7aug",
              "7(#9)",
              "7(b13)",
              "7(b9)",
              "7(13)",
              "7#11",
              "7(9)",
              "7b5",
              "7sus4",
              "7th",
              "aug",
              "Maj6(9)",
              "Maj7(9)",
              "Maj(9)",
              "Maj7#11",
              "Maj7",
              "Maj6",
              "Maj"
            ],
            "autoStart": false,
            "sourceChordNote": 0,
            "sourceChordType": "min",
            "ctb2Low": null,
            "ctb2Main": {
              "ntr": "ROOT_TRANSPOSITION",
              "ntt": "BYPASS",
              "bassOn": false,
              "chordRootUpperLimit": 5,
              "noteLowLimit": 0,
              "noteHighLimit": 79,
              "rtr": "PITCH_SHIFT"
            },
            "ctb2High": null
          },
          "notes": [
            {
              "pitch": 58,
              "velocity": 61,
              "position": 0,
              "duration": 0.9895833333333334
            },
            {
              "pitch": 62,
              "velocity": 65,
              "position": 0,
              "duration": 0.9895833333333334
            },
            {
              "pitch": 63,
              "velocity": 55,
              "position": 0,
              "duration": 0.9895833333333334
            },
            {
              "pitch": 67,
              "velocity": 65,
              "position": 0,
              "duration": 0.9895833333333334
            },
            {
              "pitch": 58,
              "velocity": 64,
              "position": 1,
              "duration": 0.25
            },
            {
              "pitch": 67,
              "velocity": 69,
              "position": 1,
              "duration": 0.4375
            },
            {
              "pitch": 62,
              "velocity": 69,
              "position": 1,
              "duration": 0.4791666666666667
            },
            {
              "pitch": 63,
              "velocity": 60,
              "position": 1,
              "duration": 0.4791666666666667
            },
            {
              "pitch": 58,
              "velocity": 58,
              "position": 1.5,
              "duration": 0.3020833333333333
            },
            {
              "pitch": 58,
              "velocity": 64,
              "position": 2.5,
              "duration": 0.3645833333333333
            },
            {
              "pitch": 67,
              "velocity": 67,
              "position": 2.5,
              "duration": 0.3958333333333333
            },
            {
              "pitch": 63,
              "velocity": 61,
              "position": 2.5,
              "duration": 0.5208333333333334
            },
            {
              "pitch": 62,
              "velocity": 69,
              "position": 2.5,
              "duration": 0.6041666666666666
            },
            {
              "pitch": 60,
              "velocity": 64,
              "position": 3.5,
              "duration": 0.4583333333333333
            },
            {
              "pitch": 62,
              "velocity": 65,
              "position": 3.5,
              "duration": 0.4583333333333333
            },
            {
              "pitch": 65,
              "velocity": 65,
              "position": 3.5,
              "duration": 0.4583333333333333
            },
            {
              "pitch": 69,
              "velocity": 69,
              "position": 3.5,
              "duration": 0.4583333333333333
            },
            {
              "pitch": 60,
              "velocity": 61,
              "position": 4.5,
              "duration": 0.28125
            },
            {
              "pitch": 65,
              "velocity": 61,
              "position": 4.5,
              "duration": 0.5
            },
            {
              "pitch": 62,
              "velocity": 62,
              "position": 4.5,
              "duration": 0.5208333333333334
            },
            {
              "pitch": 69,
              "velocity": 63,
              "position": 4.5,
              "duration": 0.5208333333333334
            },
            {
              "pitch": 60,
              "velocity": 59,
              "position": 5,
              "duration": 0.3020833333333333
            },
            {
              "pitch": 69,
              "velocity": 69,
              "position": 6,
              "duration": 0.75
            },
            {
              "pitch": 62,
              "velocity": 65,
              "position": 6,
              "duration": 0.7708333333333334
            },
            {
              "pitch": 65,
              "velocity": 65,
              "position": 6,
              "duration": 0.7708333333333334
            },
            {
              "pitch": 60,
              "velocity": 65,
              "position": 6,
              "duration": 0.78125
            },
            {
              "pitch": 62,
              "velocity": 64,
              "position": 7,
              "duration": 0.3333333333333333
            },
            {
              "pitch": 60,
              "velocity": 61,
              "position": 7,
              "duration": 0.3645833333333333
            },
            {
              "pitch": 65,
              "velocity": 62,
              "position": 7,
              "duration": 0.3854166666666667
            },
            {
              "pitch": 69,
              "velocity": 69,
              "position": 7,
              "duration": 0.5104166666666666
            },
            {
              "pitch": 70,
              "velocity": 66,
              "position": 8,
              "duration": 0.8333333333333334
            },
            {
              "pitch": 63,
              "velocity": 61,
              "position": 8,
              "duration": 0.8541666666666666
            },
            {
              "pitch": 67,
              "velocity": 63,
              "position": 8,
              "duration": 0.8541666666666666
            },
            {
              "pitch": 62,
              "velocity": 61,
              "position": 8,
              "duration": 0.9166666666666666
            },
            {
              "pitch": 62,
              "velocity": 61,
              "position": 9,
              "duration": 0.3333333333333333
            },
            {
              "pitch": 67,
              "velocity": 68,
              "position": 9,
              "duration": 0.4479166666666667
            },
            {
              "pitch": 70,
              "velocity": 70,
              "position": 9,
              "duration": 0.4583333333333333
            },
            {
              "pitch": 63,
              "velocity": 63,
              "position": 9,
              "duration": 0.53125
            },
            {
              "pitch": 62,
              "velocity": 58,
              "position": 9.5,
              "duration": 0.28125
            },
            {
              "pitch": 67,
              "velocity": 68,
              "position": 10.5,
              "duration": 0.375
            },
            {
              "pitch": 70,
              "velocity": 73,
              "position": 10.5,
              "duration": 0.3854166666666667
            },
            {
              "pitch": 63,
              "velocity": 65,
              "position": 10.5,
              "duration": 0.4583333333333333
            },
            {
              "pitch": 62,
              "velocity": 63,
              "position": 10.5,
              "duration": 0.5416666666666666
            },
            {
              "pitch": 60,
              "velocity": 71,
              "position": 11.5,
              "duration": 0.4895833333333333
            },
            {
              "pitch": 62,
              "velocity": 69,
              "position": 11.5,
              "duration": 0.5104166666666666
            },
            {
              "pitch": 69,
              "velocity": 69,
              "position": 11.5,
              "duration": 0.5104166666666666
            },
            {
              "pitch": 65,
              "velocity": 66,
              "position": 11.5,
              "duration": 0.5520833333333334
            },
            {
              "pitch": 64,
              "velocity": 61,
              "position": 12.5,
              "duration": 0.21875
            },
            {
              "pitch": 60,
              "velocity": 61,
              "position": 12.5,
              "duration": 0.34375
            },
            {
              "pitch": 62,
              "velocity": 66,
              "position": 12.5,
              "duration": 0.4479166666666667
            },
            {
              "pitch": 65,
              "velocity": 64,
              "position": 12.5,
              "duration": 0.4791666666666667
            },
            {
              "pitch": 69,
              "velocity": 69,
              "position": 12.5,
              "duration": 0.5208333333333334
            },
            {
              "pitch": 60,
              "velocity": 55,
              "position": 13,
              "duration": 0.2604166666666667
            },
            {
              "pitch": 69,
              "velocity": 66,
              "position": 14,
              "duration": 0.7708333333333334
            },
            {
              "pitch": 62,
              "velocity": 65,
              "position": 14,
              "duration": 0.8333333333333334
            },
            {
              "pitch": 65,
              "velocity": 65,
              "position": 14,
              "duration": 0.8541666666666666
            },
            {
              "pitch": 69,
              "velocity": 69,
              "position": 15,
              "duration": 0.3333333333333333
            },
            {
              "pitch": 65,
              "velocity": 65,
              "position": 15,
              "duration": 0.375
            },
            {
              "pitch": 62,
              "velocity": 65,
              "position": 15,
              "duration": 0.40625
            },
            {
              "pitch": 60,
              "velocity": 65,
              "position": 14,
              "duration": 1.625
            },
            {
              "pitch": 67,
              "velocity": 69,
              "position": 16,
              "duration": 0.8541666666666666
            },
            {
              "pitch": 62,
              "velocity": 67,
              "position": 16,
              "duration": 0.8958333333333334
            },
            {
              "pitch": 58,
              "velocity": 65,
              "position": 16,
              "duration": 0.90625
            },
            {
              "pitch": 63,
              "velocity": 62,
              "position": 16,
              "duration": 0.96875
            },
            {
              "pitch": 62,
              "velocity": 68,
              "position": 17,
              "duration": 0.28125
            },
            {
              "pitch": 67,
              "velocity": 65,
              "position": 17,
              "duration": 0.3125
            },
            {
              "pitch": 63,
              "velocity": 54,
              "position": 17,
              "duration": 0.3229166666666667
            },
            {
              "pitch": 58,
              "velocity": 64,
              "position": 17,
              "duration": 0.7916666666666666
            },
            {
              "pitch": 67,
              "velocity": 73,
              "position": 18.5,
              "duration": 0.34375
            },
            {
              "pitch": 62,
              "velocity": 72,
              "position": 18.5,
              "duration": 0.375
            },
            {
              "pitch": 58,
              "velocity": 73,
              "position": 18.5,
              "duration": 0.3854166666666667
            },
            {
              "pitch": 63,
              "velocity": 63,
              "position": 18.5,
              "duration": 0.4375
            },
            {
              "pitch": 60,
              "velocity": 66,
              "position": 19.5,
              "duration": 0.4479166666666667
            },
            {
              "pitch": 62,
              "velocity": 66,
              "position": 19.5,
              "duration": 0.5625
            },
            {
              "pitch": 69,
              "velocity": 71,
              "position": 19.5,
              "duration": 0.6041666666666666
            },
            {
              "pitch": 65,
              "velocity": 67,
              "position": 19.5,
              "duration": 0.71875
            },
            {
              "pitch": 62,
              "velocity": 66,
              "position": 20.5,
              "duration": 0.3854166666666667
            },
            {
              "pitch": 65,
              "velocity": 68,
              "position": 20.5,
              "duration": 0.40625
            },
            {
              "pitch": 69,
              "velocity": 69,
              "position": 20.5,
              "duration": 0.4375
            },
            {
              "pitch": 60,
              "velocity": 61,
              "position": 20.5,
              "duration": 0.5729166666666666
            },
            {
              "pitch": 69,
              "velocity": 73,
              "position": 22,
              "duration": 0.6875
            },
            {
              "pitch": 62,
              "velocity": 66,
              "position": 22,
              "duration": 0.75
            },
            {
              "pitch": 60,
              "velocity": 61,
              "position": 22,
              "duration": 0.7708333333333334
            },
            {
              "pitch": 65,
              "velocity": 68,
              "position": 22,
              "duration": 0.7708333333333334
            },
            {
              "pitch": 65,
              "velocity": 69,
              "position": 23,
              "duration": 0.4791666666666667
            },
            {
              "pitch": 62,
              "velocity": 67,
              "position": 23,
              "duration": 0.5
            },
            {
              "pitch": 69,
              "velocity": 69,
              "position": 23,
              "duration": 0.5416666666666666
            },
            {
              "pitch": 60,
              "velocity": 65,
              "position": 23,
              "duration": 0.59375
            },
            {
              "pitch": 59,
              "velocity": 66,
              "position": 24.5,
              "duration": 1.6770833333333333
            },
            {
              "pitch": 63,
              "velocity": 69,
              "position": 25,
              "duration": 1.6458333333333333
            },
            {
              "pitch": 70,
              "velocity": 77,
              "position": 25.5,
              "duration": 1.9270833333333333
            },
            {
              "pitch": 63,
              "velocity": 66,
              "position": 27,
              "duration": 2.3333333333333335
            },
            {
              "pitch": 59,
              "velocity": 61,
              "position": 26.5,
              "duration": 2.9583333333333335
            },
            {
              "pitch": 68,
              "velocity": 77,
              "position": 27.5,
              "duration": 2.1875
            },
            {
              "pitch": 43,
              "velocity": 68,
              "position": 24,
              "duration": 7.09375
            },
            {
              "pitch": 63,
              "velocity": 66,
              "position": 29.5,
              "duration": 2.4895833333333335
            }
          ]
        },
        "8": {
          "ctab": {
            "srcChannel": 8,
            "name": "CubanP",
            "accType": "SUBRHYTHM",
            "editable": false,
            "mutedNotes": [],
            "mutedChords": [],
            "autoStart": true,
            "sourceChordNote": 0,
            "sourceChordType": "Maj7",
            "ctb2Low": null,
            "ctb2Main": {
              "ntr": "ROOT_FIXED",
              "ntt": "BYPASS",
              "bassOn": false,
              "chordRootUpperLimit": 6,
              "noteLowLimit": 0,
              "noteHighLimit": 127,
              "rtr": "PITCH_SHIFT"
            },
            "ctb2High": null
          },
          "notes": [
            {
              "pitch": 31,
              "velocity": 79,
              "position": 0,
              "duration": 0.010416666666666666
            },
            {
              "pitch": 73,
              "velocity": 34,
              "position": 0,
              "duration": 0.16666666666666666
            },
            {
              "pitch": 73,
              "velocity": 27,
              "position": 0.4895833333333333,
              "duration": 0.125
            },
            {
              "pitch": 31,
              "velocity": 72,
              "position": 1,
              "duration": 0.010416666666666666
            },
            {
              "pitch": 73,
              "velocity": 93,
              "position": 0.9895833333333334,
              "duration": 0.1875
            },
            {
              "pitch": 29,
              "velocity": 27,
              "position": 1.4895833333333333,
              "duration": 0.010416666666666666
            },
            {
              "pitch": 73,
              "velocity": 36,
              "position": 1.5,
              "duration": 0.19791666666666666
            },
            {
              "pitch": 25,
              "velocity": 57,
              "position": 1.9895833333333333,
              "duration": 0.010416666666666666
            },
            {
              "pitch": 73,
              "velocity": 38,
              "position": 2,
              "duration": 0.20833333333333334
            },
            {
              "pitch": 30,
              "velocity": 123,
              "position": 2.5,
              "duration": 0.010416666666666666
            },
            {
              "pitch": 73,
              "velocity": 32,
              "position": 2.5,
              "duration": 0.16666666666666666
            },
            {
              "pitch": 31,
              "velocity": 30,
              "position": 3,
              "duration": 0.010416666666666666
            },
            {
              "pitch": 73,
              "velocity": 91,
              "position": 3,
              "duration": 0.1875
            },
            {
              "pitch": 31,
              "velocity": 115,
              "position": 3.4895833333333335,
              "duration": 0.010416666666666666
            },
            {
              "pitch": 73,
              "velocity": 27,
              "position": 3.5,
              "duration": 0.21875
            },
            {
              "pitch": 73,
              "velocity": 33,
              "position": 3.9895833333333335,
              "duration": 0.19791666666666666
            },
            {
              "pitch": 31,
              "velocity": 79,
              "position": 4.489583333333333,
              "duration": 0.010416666666666666
            },
            {
              "pitch": 73,
              "velocity": 33,
              "position": 4.5,
              "duration": 0.1875
            },
            {
              "pitch": 29,
              "velocity": 31,
              "position": 5,
              "duration": 0.010416666666666666
            },
            {
              "pitch": 73,
              "velocity": 84,
              "position": 4.989583333333333,
              "duration": 0.25
            },
            {
              "pitch": 25,
              "velocity": 41,
              "position": 5.5,
              "duration": 0.010416666666666666
            },
            {
              "pitch": 73,
              "velocity": 34,
              "position": 5.489583333333333,
              "duration": 0.2708333333333333
            },
            {
              "pitch": 30,
              "velocity": 106,
              "position": 6,
              "duration": 0.010416666666666666
            },
            {
              "pitch": 73,
              "velocity": 42,
              "position": 6,
              "duration": 0.1875
            },
            {
              "pitch": 73,
              "velocity": 36,
              "position": 6.5,
              "duration": 0.15625
            },
            {
              "pitch": 30,
              "velocity": 106,
              "position": 6.989583333333333,
              "duration": 0.010416666666666666
            },
            {
              "pitch": 73,
              "velocity": 102,
              "position": 7,
              "duration": 0.1875
            },
            {
              "pitch": 25,
              "velocity": 52,
              "position": 7.5,
              "duration": 0.010416666666666666
            },
            {
              "pitch": 73,
              "velocity": 34,
              "position": 7.5,
              "duration": 0.19791666666666666
            },
            {
              "pitch": 31,
              "velocity": 79,
              "position": 8,
              "duration": 0.010416666666666666
            },
            {
              "pitch": 73,
              "velocity": 34,
              "position": 8,
              "duration": 0.16666666666666666
            },
            {
              "pitch": 73,
              "velocity": 27,
              "position": 8.489583333333334,
              "duration": 0.125
            },
            {
              "pitch": 31,
              "velocity": 72,
              "position": 9,
              "duration": 0.010416666666666666
            },
            {
              "pitch": 73,
              "velocity": 93,
              "position": 8.989583333333334,
              "duration": 0.1875
            },
            {
              "pitch": 29,
              "velocity": 27,
              "position": 9.489583333333334,
              "duration": 0.010416666666666666
            },
            {
              "pitch": 73,
              "velocity": 36,
              "position": 9.5,
              "duration": 0.19791666666666666
            },
            {
              "pitch": 25,
              "velocity": 57,
              "position": 9.989583333333334,
              "duration": 0.010416666666666666
            },
            {
              "pitch": 73,
              "velocity": 38,
              "position": 10,
              "duration": 0.20833333333333334
            },
            {
              "pitch": 30,
              "velocity": 123,
              "position": 10.5,
              "duration": 0.010416666666666666
            },
            {
              "pitch": 73,
              "velocity": 32,
              "position": 10.5,
              "duration": 0.16666666666666666
            },
            {
              "pitch": 31,
              "velocity": 30,
              "position": 11,
              "duration": 0.010416666666666666
            },
            {
              "pitch": 73,
              "velocity": 91,
              "position": 11,
              "duration": 0.1875
            },
            {
              "pitch": 31,
              "velocity": 115,
              "position": 11.489583333333334,
              "duration": 0.010416666666666666
            },
            {
              "pitch": 73,
              "velocity": 27,
              "position": 11.5,
              "duration": 0.21875
            },
            {
              "pitch": 73,
              "velocity": 33,
              "position": 11.989583333333334,
              "duration": 0.19791666666666666
            },
            {
              "pitch": 31,
              "velocity": 79,
              "position": 12.489583333333334,
              "duration": 0.010416666666666666
            },
            {
              "pitch": 73,
              "velocity": 33,
              "position": 12.5,
              "duration": 0.1875
            },
            {
              "pitch": 29,
              "velocity": 31,
              "position": 13,
              "duration": 0.010416666666666666
            },
            {
              "pitch": 73,
              "velocity": 84,
              "position": 12.989583333333334,
              "duration": 0.25
            },
            {
              "pitch": 25,
              "velocity": 41,
              "position": 13.5,
              "duration": 0.010416666666666666
            },
            {
              "pitch": 73,
              "velocity": 34,
              "position": 13.489583333333334,
              "duration": 0.2708333333333333
            },
            {
              "pitch": 30,
              "velocity": 106,
              "position": 14,
              "duration": 0.010416666666666666
            },
            {
              "pitch": 73,
              "velocity": 42,
              "position": 14,
              "duration": 0.1875
            },
            {
              "pitch": 73,
              "velocity": 36,
              "position": 14.5,
              "duration": 0.15625
            },
            {
              "pitch": 30,
              "velocity": 106,
              "position": 14.989583333333334,
              "duration": 0.010416666666666666
            },
            {
              "pitch": 73,
              "velocity": 102,
              "position": 15,
              "duration": 0.1875
            },
            {
              "pitch": 25,
              "velocity": 52,
              "position": 15.5,
              "duration": 0.010416666666666666
            },
            {
              "pitch": 73,
              "velocity": 34,
              "position": 15.5,
              "duration": 0.19791666666666666
            },
            {
              "pitch": 31,
              "velocity": 79,
              "position": 16,
              "duration": 0.010416666666666666
            },
            {
              "pitch": 73,
              "velocity": 34,
              "position": 16,
              "duration": 0.16666666666666666
            },
            {
              "pitch": 73,
              "velocity": 27,
              "position": 16.489583333333332,
              "duration": 0.125
            },
            {
              "pitch": 31,
              "velocity": 72,
              "position": 17,
              "duration": 0.010416666666666666
            },
            {
              "pitch": 73,
              "velocity": 93,
              "position": 16.989583333333332,
              "duration": 0.1875
            },
            {
              "pitch": 29,
              "velocity": 27,
              "position": 17.489583333333332,
              "duration": 0.010416666666666666
            },
            {
              "pitch": 73,
              "velocity": 36,
              "position": 17.5,
              "duration": 0.19791666666666666
            },
            {
              "pitch": 25,
              "velocity": 57,
              "position": 17.989583333333332,
              "duration": 0.010416666666666666
            },
            {
              "pitch": 73,
              "velocity": 38,
              "position": 18,
              "duration": 0.20833333333333334
            },
            {
              "pitch": 30,
              "velocity": 123,
              "position": 18.5,
              "duration": 0.010416666666666666
            },
            {
              "pitch": 73,
              "velocity": 32,
              "position": 18.5,
              "duration": 0.16666666666666666
            },
            {
              "pitch": 31,
              "velocity": 30,
              "position": 19,
              "duration": 0.010416666666666666
            },
            {
              "pitch": 73,
              "velocity": 91,
              "position": 19,
              "duration": 0.1875
            },
            {
              "pitch": 31,
              "velocity": 115,
              "position": 19.489583333333332,
              "duration": 0.010416666666666666
            },
            {
              "pitch": 73,
              "velocity": 27,
              "position": 19.5,
              "duration": 0.21875
            },
            {
              "pitch": 73,
              "velocity": 33,
              "position": 19.989583333333332,
              "duration": 0.19791666666666666
            },
            {
              "pitch": 31,
              "velocity": 79,
              "position": 20.489583333333332,
              "duration": 0.010416666666666666
            },
            {
              "pitch": 73,
              "velocity": 33,
              "position": 20.5,
              "duration": 0.1875
            },
            {
              "pitch": 29,
              "velocity": 31,
              "position": 21,
              "duration": 0.010416666666666666
            },
            {
              "pitch": 73,
              "velocity": 84,
              "position": 20.989583333333332,
              "duration": 0.25
            },
            {
              "pitch": 25,
              "velocity": 41,
              "position": 21.5,
              "duration": 0.010416666666666666
            },
            {
              "pitch": 73,
              "velocity": 34,
              "position": 21.489583333333332,
              "duration": 0.2708333333333333
            },
            {
              "pitch": 30,
              "velocity": 106,
              "position": 22,
              "duration": 0.010416666666666666
            },
            {
              "pitch": 73,
              "velocity": 42,
              "position": 22,
              "duration": 0.1875
            },
            {
              "pitch": 73,
              "velocity": 36,
              "position": 22.5,
              "duration": 0.15625
            },
            {
              "pitch": 30,
              "velocity": 106,
              "position": 22.989583333333332,
              "duration": 0.010416666666666666
            },
            {
              "pitch": 73,
              "velocity": 102,
              "position": 23,
              "duration": 0.1875
            },
            {
              "pitch": 25,
              "velocity": 52,
              "position": 23.5,
              "duration": 0.010416666666666666
            },
            {
              "pitch": 73,
              "velocity": 34,
              "position": 23.5,
              "duration": 0.19791666666666666
            },
            {
              "pitch": 31,
              "velocity": 79,
              "position": 24,
              "duration": 0.010416666666666666
            },
            {
              "pitch": 73,
              "velocity": 34,
              "position": 24,
              "duration": 0.16666666666666666
            },
            {
              "pitch": 73,
              "velocity": 27,
              "position": 24.489583333333332,
              "duration": 0.125
            },
            {
              "pitch": 31,
              "velocity": 72,
              "position": 25,
              "duration": 0.010416666666666666
            },
            {
              "pitch": 73,
              "velocity": 93,
              "position": 24.989583333333332,
              "duration": 0.1875
            },
            {
              "pitch": 29,
              "velocity": 27,
              "position": 25.489583333333332,
              "duration": 0.010416666666666666
            },
            {
              "pitch": 73,
              "velocity": 36,
              "position": 25.5,
              "duration": 0.19791666666666666
            },
            {
              "pitch": 25,
              "velocity": 57,
              "position": 25.989583333333332,
              "duration": 0.010416666666666666
            },
            {
              "pitch": 73,
              "velocity": 38,
              "position": 26,
              "duration": 0.20833333333333334
            },
            {
              "pitch": 30,
              "velocity": 123,
              "position": 26.5,
              "duration": 0.010416666666666666
            },
            {
              "pitch": 73,
              "velocity": 32,
              "position": 26.5,
              "duration": 0.16666666666666666
            },
            {
              "pitch": 31,
              "velocity": 30,
              "position": 27,
              "duration": 0.010416666666666666
            },
            {
              "pitch": 73,
              "velocity": 91,
              "position": 27,
              "duration": 0.1875
            },
            {
              "pitch": 31,
              "velocity": 115,
              "position": 27.489583333333332,
              "duration": 0.010416666666666666
            },
            {
              "pitch": 73,
              "velocity": 27,
              "position": 27.5,
              "duration": 0.21875
            },
            {
              "pitch": 73,
              "velocity": 33,
              "position": 27.989583333333332,
              "duration": 0.19791666666666666
            },
            {
              "pitch": 31,
              "velocity": 79,
              "position": 28.489583333333332,
              "duration": 0.010416666666666666
            },
            {
              "pitch": 73,
              "velocity": 33,
              "position": 28.5,
              "duration": 0.1875
            },
            {
              "pitch": 29,
              "velocity": 31,
              "position": 29,
              "duration": 0.010416666666666666
            },
            {
              "pitch": 73,
              "velocity": 84,
              "position": 28.989583333333332,
              "duration": 0.25
            },
            {
              "pitch": 25,
              "velocity": 41,
              "position": 29.5,
              "duration": 0.010416666666666666
            },
            {
              "pitch": 73,
              "velocity": 34,
              "position": 29.489583333333332,
              "duration": 0.2708333333333333
            },
            {
              "pitch": 30,
              "velocity": 106,
              "position": 30,
              "duration": 0.010416666666666666
            },
            {
              "pitch": 73,
              "velocity": 42,
              "position": 30,
              "duration": 0.1875
            },
            {
              "pitch": 73,
              "velocity": 36,
              "position": 30.5,
              "duration": 0.15625
            },
            {
              "pitch": 30,
              "velocity": 106,
              "position": 30.989583333333332,
              "duration": 0.010416666666666666
            },
            {
              "pitch": 73,
              "velocity": 102,
              "position": 31,
              "duration": 0.1875
            },
            {
              "pitch": 25,
              "velocity": 52,
              "position": 31.5,
              "duration": 0.010416666666666666
            },
            {
              "pitch": 73,
              "velocity": 34,
              "position": 31.5,
              "duration": 0.19791666666666666
            }
          ]
        },
        "9": {
          "ctab": {
            "srcChannel": 9,
            "name": "MainD",
            "accType": "RHYTHM",
            "editable": false,
            "mutedNotes": [],
            "mutedChords": [],
            "autoStart": true,
            "sourceChordNote": 0,
            "sourceChordType": "Maj7",
            "ctb2Low": null,
            "ctb2Main": {
              "ntr": "ROOT_FIXED",
              "ntt": "BYPASS",
              "bassOn": false,
              "chordRootUpperLimit": 6,
              "noteLowLimit": 0,
              "noteHighLimit": 127,
              "rtr": "PITCH_SHIFT"
            },
            "ctb2High": null
          },
          "notes": [
            {
              "pitch": 33,
              "velocity": 84,
              "position": 0,
              "duration": 0.010416666666666666
            },
            {
              "pitch": 59,
              "velocity": 60,
              "position": 0,
              "duration": 0.010416666666666666
            },
            {
              "pitch": 59,
              "velocity": 20,
              "position": 0.5,
              "duration": 0.010416666666666666
            },
            {
              "pitch": 44,
              "velocity": 45,
              "position": 1,
              "duration": 0.010416666666666666
            },
            {
              "pitch": 59,
              "velocity": 50,
              "position": 1,
              "duration": 0.010416666666666666
            },
            {
              "pitch": 33,
              "velocity": 42,
              "position": 1.5,
              "duration": 0.010416666666666666
            },
            {
              "pitch": 37,
              "velocity": 68,
              "position": 1.5,
              "duration": 0.010416666666666666
            },
            {
              "pitch": 59,
              "velocity": 20,
              "position": 1.5,
              "duration": 0.010416666666666666
            },
            {
              "pitch": 33,
              "velocity": 84,
              "position": 2,
              "duration": 0.010416666666666666
            },
            {
              "pitch": 59,
              "velocity": 55,
              "position": 2,
              "duration": 0.010416666666666666
            },
            {
              "pitch": 37,
              "velocity": 71,
              "position": 2.5,
              "duration": 0.010416666666666666
            },
            {
              "pitch": 59,
              "velocity": 35,
              "position": 2.5,
              "duration": 0.010416666666666666
            },
            {
              "pitch": 44,
              "velocity": 45,
              "position": 3,
              "duration": 0.010416666666666666
            },
            {
              "pitch": 59,
              "velocity": 20,
              "position": 3,
              "duration": 0.010416666666666666
            },
            {
              "pitch": 33,
              "velocity": 42,
              "position": 3.5,
              "duration": 0.010416666666666666
            },
            {
              "pitch": 59,
              "velocity": 54,
              "position": 3.5,
              "duration": 0.010416666666666666
            },
            {
              "pitch": 33,
              "velocity": 84,
              "position": 4,
              "duration": 0.010416666666666666
            },
            {
              "pitch": 59,
              "velocity": 20,
              "position": 4,
              "duration": 0.010416666666666666
            },
            {
              "pitch": 37,
              "velocity": 67,
              "position": 4.5,
              "duration": 0.010416666666666666
            },
            {
              "pitch": 59,
              "velocity": 60,
              "position": 4.5,
              "duration": 0.010416666666666666
            },
            {
              "pitch": 44,
              "velocity": 45,
              "position": 5,
              "duration": 0.010416666666666666
            },
            {
              "pitch": 59,
              "velocity": 20,
              "position": 5,
              "duration": 0.010416666666666666
            },
            {
              "pitch": 33,
              "velocity": 42,
              "position": 5.5,
              "duration": 0.010416666666666666
            },
            {
              "pitch": 59,
              "velocity": 36,
              "position": 5.5,
              "duration": 0.010416666666666666
            },
            {
              "pitch": 33,
              "velocity": 75,
              "position": 6,
              "duration": 0.010416666666666666
            },
            {
              "pitch": 37,
              "velocity": 72,
              "position": 6,
              "duration": 0.010416666666666666
            },
            {
              "pitch": 59,
              "velocity": 55,
              "position": 6,
              "duration": 0.010416666666666666
            },
            {
              "pitch": 59,
              "velocity": 20,
              "position": 6.5,
              "duration": 0.010416666666666666
            },
            {
              "pitch": 37,
              "velocity": 67,
              "position": 7,
              "duration": 0.010416666666666666
            },
            {
              "pitch": 44,
              "velocity": 45,
              "position": 7,
              "duration": 0.010416666666666666
            },
            {
              "pitch": 59,
              "velocity": 57,
              "position": 7,
              "duration": 0.010416666666666666
            },
            {
              "pitch": 33,
              "velocity": 42,
              "position": 7.5,
              "duration": 0.010416666666666666
            },
            {
              "pitch": 59,
              "velocity": 20,
              "position": 7.5,
              "duration": 0.010416666666666666
            },
            {
              "pitch": 33,
              "velocity": 84,
              "position": 8,
              "duration": 0.010416666666666666
            },
            {
              "pitch": 59,
              "velocity": 51,
              "position": 8,
              "duration": 0.010416666666666666
            },
            {
              "pitch": 59,
              "velocity": 20,
              "position": 8.5,
              "duration": 0.010416666666666666
            },
            {
              "pitch": 44,
              "velocity": 45,
              "position": 9,
              "duration": 0.010416666666666666
            },
            {
              "pitch": 59,
              "velocity": 50,
              "position": 9,
              "duration": 0.010416666666666666
            },
            {
              "pitch": 33,
              "velocity": 42,
              "position": 9.5,
              "duration": 0.010416666666666666
            },
            {
              "pitch": 37,
              "velocity": 65,
              "position": 9.5,
              "duration": 0.010416666666666666
            },
            {
              "pitch": 59,
              "velocity": 20,
              "position": 9.5,
              "duration": 0.010416666666666666
            },
            {
              "pitch": 33,
              "velocity": 84,
              "position": 10,
              "duration": 0.010416666666666666
            },
            {
              "pitch": 59,
              "velocity": 55,
              "position": 10,
              "duration": 0.010416666666666666
            },
            {
              "pitch": 37,
              "velocity": 59,
              "position": 10.5,
              "duration": 0.010416666666666666
            },
            {
              "pitch": 59,
              "velocity": 35,
              "position": 10.5,
              "duration": 0.010416666666666666
            },
            {
              "pitch": 44,
              "velocity": 45,
              "position": 11,
              "duration": 0.010416666666666666
            },
            {
              "pitch": 59,
              "velocity": 20,
              "position": 11,
              "duration": 0.010416666666666666
            },
            {
              "pitch": 33,
              "velocity": 42,
              "position": 11.5,
              "duration": 0.010416666666666666
            },
            {
              "pitch": 59,
              "velocity": 54,
              "position": 11.5,
              "duration": 0.010416666666666666
            },
            {
              "pitch": 33,
              "velocity": 84,
              "position": 12,
              "duration": 0.010416666666666666
            },
            {
              "pitch": 59,
              "velocity": 20,
              "position": 12,
              "duration": 0.010416666666666666
            },
            {
              "pitch": 37,
              "velocity": 66,
              "position": 12.5,
              "duration": 0.010416666666666666
            },
            {
              "pitch": 59,
              "velocity": 60,
              "position": 12.5,
              "duration": 0.010416666666666666
            },
            {
              "pitch": 44,
              "velocity": 45,
              "position": 13,
              "duration": 0.010416666666666666
            },
            {
              "pitch": 59,
              "velocity": 20,
              "position": 13,
              "duration": 0.010416666666666666
            },
            {
              "pitch": 33,
              "velocity": 42,
              "position": 13.5,
              "duration": 0.010416666666666666
            },
            {
              "pitch": 59,
              "velocity": 36,
              "position": 13.5,
              "duration": 0.010416666666666666
            },
            {
              "pitch": 33,
              "velocity": 75,
              "position": 14,
              "duration": 0.010416666666666666
            },
            {
              "pitch": 37,
              "velocity": 68,
              "position": 14,
              "duration": 0.010416666666666666
            },
            {
              "pitch": 59,
              "velocity": 55,
              "position": 14,
              "duration": 0.010416666666666666
            },
            {
              "pitch": 59,
              "velocity": 20,
              "position": 14.5,
              "duration": 0.010416666666666666
            },
            {
              "pitch": 37,
              "velocity": 70,
              "position": 15,
              "duration": 0.010416666666666666
            },
            {
              "pitch": 44,
              "velocity": 45,
              "position": 15,
              "duration": 0.010416666666666666
            },
            {
              "pitch": 59,
              "velocity": 57,
              "position": 15,
              "duration": 0.010416666666666666
            },
            {
              "pitch": 33,
              "velocity": 42,
              "position": 15.5,
              "duration": 0.010416666666666666
            },
            {
              "pitch": 59,
              "velocity": 20,
              "position": 15.5,
              "duration": 0.010416666666666666
            },
            {
              "pitch": 33,
              "velocity": 84,
              "position": 16,
              "duration": 0.010416666666666666
            },
            {
              "pitch": 59,
              "velocity": 51,
              "position": 16,
              "duration": 0.010416666666666666
            },
            {
              "pitch": 59,
              "velocity": 20,
              "position": 16.5,
              "duration": 0.010416666666666666
            },
            {
              "pitch": 44,
              "velocity": 45,
              "position": 17,
              "duration": 0.010416666666666666
            },
            {
              "pitch": 59,
              "velocity": 50,
              "position": 17,
              "duration": 0.010416666666666666
            },
            {
              "pitch": 33,
              "velocity": 42,
              "position": 17.5,
              "duration": 0.010416666666666666
            },
            {
              "pitch": 37,
              "velocity": 68,
              "position": 17.5,
              "duration": 0.010416666666666666
            },
            {
              "pitch": 59,
              "velocity": 20,
              "position": 17.5,
              "duration": 0.010416666666666666
            },
            {
              "pitch": 33,
              "velocity": 84,
              "position": 18,
              "duration": 0.010416666666666666
            },
            {
              "pitch": 59,
              "velocity": 55,
              "position": 18,
              "duration": 0.010416666666666666
            },
            {
              "pitch": 37,
              "velocity": 71,
              "position": 18.5,
              "duration": 0.010416666666666666
            },
            {
              "pitch": 59,
              "velocity": 35,
              "position": 18.5,
              "duration": 0.010416666666666666
            },
            {
              "pitch": 44,
              "velocity": 45,
              "position": 19,
              "duration": 0.010416666666666666
            },
            {
              "pitch": 59,
              "velocity": 20,
              "position": 19,
              "duration": 0.010416666666666666
            },
            {
              "pitch": 33,
              "velocity": 42,
              "position": 19.5,
              "duration": 0.010416666666666666
            },
            {
              "pitch": 59,
              "velocity": 54,
              "position": 19.5,
              "duration": 0.010416666666666666
            },
            {
              "pitch": 33,
              "velocity": 84,
              "position": 20,
              "duration": 0.010416666666666666
            },
            {
              "pitch": 59,
              "velocity": 20,
              "position": 20,
              "duration": 0.010416666666666666
            },
            {
              "pitch": 37,
              "velocity": 67,
              "position": 20.5,
              "duration": 0.010416666666666666
            },
            {
              "pitch": 59,
              "velocity": 60,
              "position": 20.5,
              "duration": 0.010416666666666666
            },
            {
              "pitch": 44,
              "velocity": 45,
              "position": 21,
              "duration": 0.010416666666666666
            },
            {
              "pitch": 59,
              "velocity": 20,
              "position": 21,
              "duration": 0.010416666666666666
            },
            {
              "pitch": 33,
              "velocity": 42,
              "position": 21.5,
              "duration": 0.010416666666666666
            },
            {
              "pitch": 59,
              "velocity": 36,
              "position": 21.5,
              "duration": 0.010416666666666666
            },
            {
              "pitch": 33,
              "velocity": 75,
              "position": 22,
              "duration": 0.010416666666666666
            },
            {
              "pitch": 37,
              "velocity": 72,
              "position": 22,
              "duration": 0.010416666666666666
            },
            {
              "pitch": 59,
              "velocity": 55,
              "position": 22,
              "duration": 0.010416666666666666
            },
            {
              "pitch": 59,
              "velocity": 20,
              "position": 22.5,
              "duration": 0.010416666666666666
            },
            {
              "pitch": 37,
              "velocity": 67,
              "position": 23,
              "duration": 0.010416666666666666
            },
            {
              "pitch": 44,
              "velocity": 45,
              "position": 23,
              "duration": 0.010416666666666666
            },
            {
              "pitch": 59,
              "velocity": 57,
              "position": 23,
              "duration": 0.010416666666666666
            },
            {
              "pitch": 33,
              "velocity": 42,
              "position": 23.5,
              "duration": 0.010416666666666666
            },
            {
              "pitch": 59,
              "velocity": 20,
              "position": 23.5,
              "duration": 0.010416666666666666
            },
            {
              "pitch": 33,
              "velocity": 84,
              "position": 24,
              "duration": 0.010416666666666666
            },
            {
              "pitch": 59,
              "velocity": 51,
              "position": 24,
              "duration": 0.010416666666666666
            },
            {
              "pitch": 59,
              "velocity": 20,
              "position": 24.5,
              "duration": 0.010416666666666666
            },
            {
              "pitch": 44,
              "velocity": 45,
              "position": 25,
              "duration": 0.010416666666666666
            },
            {
              "pitch": 59,
              "velocity": 50,
              "position": 25,
              "duration": 0.010416666666666666
            },
            {
              "pitch": 33,
              "velocity": 42,
              "position": 25.5,
              "duration": 0.010416666666666666
            },
            {
              "pitch": 37,
              "velocity": 65,
              "position": 25.5,
              "duration": 0.010416666666666666
            },
            {
              "pitch": 59,
              "velocity": 20,
              "position": 25.5,
              "duration": 0.010416666666666666
            },
            {
              "pitch": 33,
              "velocity": 84,
              "position": 26,
              "duration": 0.010416666666666666
            },
            {
              "pitch": 59,
              "velocity": 55,
              "position": 26,
              "duration": 0.010416666666666666
            },
            {
              "pitch": 37,
              "velocity": 59,
              "position": 26.5,
              "duration": 0.010416666666666666
            },
            {
              "pitch": 59,
              "velocity": 35,
              "position": 26.5,
              "duration": 0.010416666666666666
            },
            {
              "pitch": 44,
              "velocity": 45,
              "position": 27,
              "duration": 0.010416666666666666
            },
            {
              "pitch": 59,
              "velocity": 20,
              "position": 27,
              "duration": 0.010416666666666666
            },
            {
              "pitch": 33,
              "velocity": 42,
              "position": 27.5,
              "duration": 0.010416666666666666
            },
            {
              "pitch": 59,
              "velocity": 54,
              "position": 27.5,
              "duration": 0.010416666666666666
            },
            {
              "pitch": 33,
              "velocity": 84,
              "position": 28,
              "duration": 0.010416666666666666
            },
            {
              "pitch": 59,
              "velocity": 20,
              "position": 28,
              "duration": 0.010416666666666666
            },
            {
              "pitch": 37,
              "velocity": 66,
              "position": 28.5,
              "duration": 0.010416666666666666
            },
            {
              "pitch": 45,
              "velocity": 73,
              "position": 28.5,
              "duration": 0.010416666666666666
            },
            {
              "pitch": 59,
              "velocity": 60,
              "position": 28.5,
              "duration": 0.010416666666666666
            },
            {
              "pitch": 44,
              "velocity": 45,
              "position": 29,
              "duration": 0.010416666666666666
            },
            {
              "pitch": 59,
              "velocity": 20,
              "position": 29,
              "duration": 0.010416666666666666
            },
            {
              "pitch": 33,
              "velocity": 42,
              "position": 29.5,
              "duration": 0.010416666666666666
            },
            {
              "pitch": 43,
              "velocity": 37,
              "position": 29.5,
              "duration": 0.010416666666666666
            },
            {
              "pitch": 59,
              "velocity": 36,
              "position": 29.5,
              "duration": 0.010416666666666666
            },
            {
              "pitch": 33,
              "velocity": 75,
              "position": 30,
              "duration": 0.010416666666666666
            },
            {
              "pitch": 37,
              "velocity": 68,
              "position": 30,
              "duration": 0.010416666666666666
            },
            {
              "pitch": 43,
              "velocity": 66,
              "position": 30,
              "duration": 0.010416666666666666
            },
            {
              "pitch": 59,
              "velocity": 55,
              "position": 30,
              "duration": 0.010416666666666666
            },
            {
              "pitch": 59,
              "velocity": 20,
              "position": 30.5,
              "duration": 0.010416666666666666
            },
            {
              "pitch": 37,
              "velocity": 70,
              "position": 31,
              "duration": 0.010416666666666666
            },
            {
              "pitch": 41,
              "velocity": 67,
              "position": 31,
              "duration": 0.010416666666666666
            },
            {
              "pitch": 44,
              "velocity": 45,
              "position": 31,
              "duration": 0.010416666666666666
            },
            {
              "pitch": 59,
              "velocity": 57,
              "position": 31,
              "duration": 0.010416666666666666
            },
            {
              "pitch": 33,
              "velocity": 42,
              "position": 31.5,
              "duration": 0.010416666666666666
            },
            {
              "pitch": 59,
              "velocity": 20,
              "position": 31.5,
              "duration": 0.010416666666666666
            }
          ]
        },
        "10": {
          "ctab": {
            "srcChannel": 10,
            "name": "Bass",
            "accType": "BASS",
            "editable": false,
            "mutedNotes": [],
            "mutedChords": [
              "dim7",
              "dim",
              "minMaj7(9)",
              "minMaj7",
              "min7(11)",
              "min7(9)",
              "min(9)",
              "m7b5",
              "min7",
              "min6",
              "min"
            ],
            "autoStart": false,
            "sourceChordNote": 0,
            "sourceChordType": "Maj",
            "ctb2Low": null,
            "ctb2Main": {
              "ntr": "ROOT_TRANSPOSITION",
              "ntt": "BYPASS",
              "bassOn": false,
              "chordRootUpperLimit": 3,
              "noteLowLimit": 28,
              "noteHighLimit": 127,
              "rtr": "PITCH_SHIFT"
            },
            "ctb2High": null
          },
          "notes": [
            {
              "pitch": 36,
              "velocity": 81,
              "position": 0,
              "duration": 1.2083333333333333
            },
            {
              "pitch": 36,
              "velocity": 75,
              "position": 1.5,
              "duration": 0.4895833333333333
            },
            {
              "pitch": 31,
              "velocity": 82,
              "position": 2,
              "duration": 1.6875
            },
            {
              "pitch": 34,
              "velocity": 70,
              "position": 4,
              "duration": 1.2395833333333333
            },
            {
              "pitch": 34,
              "velocity": 70,
              "position": 5.5,
              "duration": 0.4895833333333333
            },
            {
              "pitch": 31,
              "velocity": 68,
              "position": 6,
              "duration": 0.9166666666666666
            },
            {
              "pitch": 34,
              "velocity": 72,
              "position": 7,
              "duration": 0.4895833333333333
            },
            {
              "pitch": 31,
              "velocity": 60,
              "position": 7.5,
              "duration": 0.46875
            },
            {
              "pitch": 33,
              "velocity": 90,
              "position": 8,
              "duration": 1.1145833333333333
            },
            {
              "pitch": 33,
              "velocity": 80,
              "position": 9.5,
              "duration": 0.3854166666666667
            },
            {
              "pitch": 29,
              "velocity": 63,
              "position": 10,
              "duration": 1.4895833333333333
            },
            {
              "pitch": 32,
              "velocity": 83,
              "position": 11.5,
              "duration": 1.4791666666666667
            },
            {
              "pitch": 32,
              "velocity": 86,
              "position": 13.5,
              "duration": 0.4895833333333333
            },
            {
              "pitch": 29,
              "velocity": 65,
              "position": 14,
              "duration": 0.9895833333333334
            },
            {
              "pitch": 32,
              "velocity": 74,
              "position": 15,
              "duration": 0.4895833333333333
            },
            {
              "pitch": 29,
              "velocity": 63,
              "position": 15.5,
              "duration": 0.4270833333333333
            },
            {
              "pitch": 36,
              "velocity": 89,
              "position": 16,
              "duration": 1.2708333333333333
            },
            {
              "pitch": 36,
              "velocity": 85,
              "position": 17.5,
              "duration": 0.4895833333333333
            },
            {
              "pitch": 31,
              "velocity": 82,
              "position": 18,
              "duration": 1.75
            },
            {
              "pitch": 34,
              "velocity": 72,
              "position": 20,
              "duration": 1.2916666666666667
            },
            {
              "pitch": 34,
              "velocity": 75,
              "position": 21.5,
              "duration": 0.4895833333333333
            },
            {
              "pitch": 31,
              "velocity": 67,
              "position": 22,
              "duration": 0.8854166666666666
            },
            {
              "pitch": 34,
              "velocity": 70,
              "position": 23,
              "duration": 0.4895833333333333
            },
            {
              "pitch": 31,
              "velocity": 62,
              "position": 23.5,
              "duration": 0.4583333333333333
            },
            {
              "pitch": 33,
              "velocity": 95,
              "position": 24,
              "duration": 1.1875
            },
            {
              "pitch": 33,
              "velocity": 85,
              "position": 25.5,
              "duration": 0.375
            },
            {
              "pitch": 29,
              "velocity": 65,
              "position": 26,
              "duration": 0.4895833333333333
            },
            {
              "pitch": 33,
              "velocity": 77,
              "position": 26.5,
              "duration": 0.7916666666666666
            },
            {
              "pitch": 31,
              "velocity": 98,
              "position": 27.5,
              "duration": 0.6979166666666666
            }
          ]
        },
        "11": {
          "ctab": {
            "srcChannel": 11,
            "name": "NylonGtr",
            "accType": "CHORD1",
            "editable": false,
            "mutedNotes": [],
            "mutedChords": [
              "dim7",
              "dim",
              "minMaj7(9)",
              "minMaj7",
              "min7(11)",
              "min7(9)",
              "min(9)",
              "m7b5",
              "min7",
              "min6",
              "min"
            ],
            "autoStart": false,
            "sourceChordNote": 0,
            "sourceChordType": "Maj",
            "ctb2Low": null,
            "ctb2Main": {
              "ntr": "ROOT_TRANSPOSITION",
              "ntt": "BYPASS",
              "bassOn": false,
              "chordRootUpperLimit": 5,
              "noteLowLimit": 40,
              "noteHighLimit": 127,
              "rtr": "PITCH_SHIFT"
            },
            "ctb2High": null
          },
          "notes": [
            {
              "pitch": 64,
              "velocity": 127,
              "position": 0.010416666666666666,
              "duration": 1.2395833333333333
            },
            {
              "pitch": 64,
              "velocity": 114,
              "position": 1.5,
              "duration": 0.4270833333333333
            },
            {
              "pitch": 67,
              "velocity": 127,
              "position": 2.5,
              "duration": 0.4895833333333333
            },
            {
              "pitch": 64,
              "velocity": 85,
              "position": 3,
              "duration": 0.3229166666666667
            },
            {
              "pitch": 67,
              "velocity": 123,
              "position": 3.5,
              "duration": 3.0625
            },
            {
              "pitch": 67,
              "velocity": 127,
              "position": 6.927083333333333,
              "duration": 0.0625
            },
            {
              "pitch": 69,
              "velocity": 122,
              "position": 7,
              "duration": 0.9895833333333334
            },
            {
              "pitch": 67,
              "velocity": 127,
              "position": 8,
              "duration": 1.4583333333333333
            },
            {
              "pitch": 65,
              "velocity": 127,
              "position": 9.5,
              "duration": 0.46875
            },
            {
              "pitch": 64,
              "velocity": 127,
              "position": 10.5,
              "duration": 0.3541666666666667
            },
            {
              "pitch": 62,
              "velocity": 120,
              "position": 11.5,
              "duration": 3.4895833333333335
            },
            {
              "pitch": 60,
              "velocity": 110,
              "position": 15,
              "duration": 0.4895833333333333
            },
            {
              "pitch": 62,
              "velocity": 108,
              "position": 15.5,
              "duration": 0.4895833333333333
            },
            {
              "pitch": 64,
              "velocity": 127,
              "position": 16,
              "duration": 1.40625
            },
            {
              "pitch": 55,
              "velocity": 116,
              "position": 17.5,
              "duration": 0.9895833333333334
            },
            {
              "pitch": 60,
              "velocity": 116,
              "position": 18.5,
              "duration": 0.9895833333333334
            },
            {
              "pitch": 65,
              "velocity": 115,
              "position": 19.5,
              "duration": 3.4895833333333335
            },
            {
              "pitch": 67,
              "velocity": 127,
              "position": 23,
              "duration": 0.6979166666666666
            },
            {
              "pitch": 67,
              "velocity": 127,
              "position": 24,
              "duration": 1.4895833333333333
            },
            {
              "pitch": 65,
              "velocity": 127,
              "position": 25.5,
              "duration": 0.4270833333333333
            },
            {
              "pitch": 64,
              "velocity": 125,
              "position": 26.5,
              "duration": 0.9895833333333334
            },
            {
              "pitch": 62,
              "velocity": 127,
              "position": 27.5,
              "duration": 0.4791666666666667
            }
          ]
        },
        "12": {
          "ctab": {
            "srcChannel": 12,
            "name": "Piano",
            "accType": "CHORD2",
            "editable": false,
            "mutedNotes": [],
            "mutedChords": [
              "dim7",
              "dim",
              "minMaj7(9)",
              "minMaj7",
              "min7(11)",
              "min7(9)",
              "min(9)",
              "m7b5",
              "min7",
              "min6",
              "min"
            ],
            "autoStart": false,
            "sourceChordNote": 0,
            "sourceChordType": "Maj",
            "ctb2Low": null,
            "ctb2Main": {
              "ntr": "ROOT_TRANSPOSITION",
              "ntt": "BYPASS",
              "bassOn": false,
              "chordRootUpperLimit": 5,
              "noteLowLimit": 0,
              "noteHighLimit": 79,
              "rtr": "PITCH_SHIFT"
            },
            "ctb2High": null
          },
          "notes": [
            {
              "pitch": 59,
              "velocity": 64,
              "position": 0,
              "duration": 1.4166666666666667
            },
            {
              "pitch": 62,
              "velocity": 65,
              "position": 0,
              "duration": 1.4166666666666667
            },
            {
              "pitch": 67,
              "velocity": 66,
              "position": 0,
              "duration": 1.4166666666666667
            },
            {
              "pitch": 64,
              "velocity": 65,
              "position": 0,
              "duration": 1.4583333333333333
            },
            {
              "pitch": 64,
              "velocity": 62,
              "position": 1.5,
              "duration": 0.28125
            },
            {
              "pitch": 67,
              "velocity": 64,
              "position": 1.5,
              "duration": 0.28125
            },
            {
              "pitch": 62,
              "velocity": 68,
              "position": 1.5,
              "duration": 0.2916666666666667
            },
            {
              "pitch": 59,
              "velocity": 63,
              "position": 1.5,
              "duration": 0.3020833333333333
            },
            {
              "pitch": 64,
              "velocity": 64,
              "position": 2.5,
              "duration": 0.2708333333333333
            },
            {
              "pitch": 62,
              "velocity": 63,
              "position": 2.5,
              "duration": 0.3125
            },
            {
              "pitch": 59,
              "velocity": 65,
              "position": 2.5,
              "duration": 0.3541666666666667
            },
            {
              "pitch": 67,
              "velocity": 69,
              "position": 2.5,
              "duration": 0.375
            },
            {
              "pitch": 61,
              "velocity": 65,
              "position": 3.5,
              "duration": 0.3020833333333333
            },
            {
              "pitch": 58,
              "velocity": 66,
              "position": 3.5,
              "duration": 0.3541666666666667
            },
            {
              "pitch": 63,
              "velocity": 60,
              "position": 3.5,
              "duration": 0.3541666666666667
            },
            {
              "pitch": 67,
              "velocity": 68,
              "position": 3.5,
              "duration": 0.375
            },
            {
              "pitch": 58,
              "velocity": 70,
              "position": 4.5,
              "duration": 1.21875
            },
            {
              "pitch": 61,
              "velocity": 66,
              "position": 4.5,
              "duration": 1.25
            },
            {
              "pitch": 67,
              "velocity": 68,
              "position": 4.5,
              "duration": 1.25
            },
            {
              "pitch": 63,
              "velocity": 61,
              "position": 4.5,
              "duration": 1.2916666666666667
            },
            {
              "pitch": 61,
              "velocity": 66,
              "position": 6,
              "duration": 0.2708333333333333
            },
            {
              "pitch": 63,
              "velocity": 61,
              "position": 6,
              "duration": 0.2708333333333333
            },
            {
              "pitch": 58,
              "velocity": 68,
              "position": 6,
              "duration": 0.3125
            },
            {
              "pitch": 67,
              "velocity": 70,
              "position": 6,
              "duration": 0.3333333333333333
            },
            {
              "pitch": 58,
              "velocity": 60,
              "position": 7,
              "duration": 0.3854166666666667
            },
            {
              "pitch": 61,
              "velocity": 65,
              "position": 7,
              "duration": 0.40625
            },
            {
              "pitch": 63,
              "velocity": 59,
              "position": 7,
              "duration": 0.4583333333333333
            },
            {
              "pitch": 67,
              "velocity": 62,
              "position": 7,
              "duration": 0.4791666666666667
            },
            {
              "pitch": 60,
              "velocity": 70,
              "position": 8,
              "duration": 1.3854166666666667
            },
            {
              "pitch": 57,
              "velocity": 64,
              "position": 8,
              "duration": 1.40625
            },
            {
              "pitch": 62,
              "velocity": 64,
              "position": 8,
              "duration": 1.4166666666666667
            },
            {
              "pitch": 67,
              "velocity": 68,
              "position": 8,
              "duration": 1.4583333333333333
            },
            {
              "pitch": 62,
              "velocity": 64,
              "position": 9.5,
              "duration": 0.2916666666666667
            },
            {
              "pitch": 60,
              "velocity": 66,
              "position": 9.5,
              "duration": 0.3020833333333333
            },
            {
              "pitch": 57,
              "velocity": 64,
              "position": 9.5,
              "duration": 0.3333333333333333
            },
            {
              "pitch": 65,
              "velocity": 63,
              "position": 9.5,
              "duration": 0.3958333333333333
            },
            {
              "pitch": 62,
              "velocity": 61,
              "position": 10.5,
              "duration": 0.3645833333333333
            },
            {
              "pitch": 65,
              "velocity": 63,
              "position": 10.5,
              "duration": 0.40625
            },
            {
              "pitch": 57,
              "velocity": 64,
              "position": 10.5,
              "duration": 0.4375
            },
            {
              "pitch": 60,
              "velocity": 68,
              "position": 10.5,
              "duration": 0.46875
            },
            {
              "pitch": 56,
              "velocity": 60,
              "position": 11.5,
              "duration": 0.34375
            },
            {
              "pitch": 60,
              "velocity": 69,
              "position": 11.5,
              "duration": 0.3958333333333333
            },
            {
              "pitch": 62,
              "velocity": 66,
              "position": 11.5,
              "duration": 0.4166666666666667
            },
            {
              "pitch": 65,
              "velocity": 63,
              "position": 11.5,
              "duration": 0.4375
            },
            {
              "pitch": 65,
              "velocity": 70,
              "position": 12.5,
              "duration": 1.2083333333333333
            },
            {
              "pitch": 56,
              "velocity": 69,
              "position": 12.5,
              "duration": 1.25
            },
            {
              "pitch": 60,
              "velocity": 74,
              "position": 12.5,
              "duration": 1.3020833333333333
            },
            {
              "pitch": 62,
              "velocity": 70,
              "position": 12.5,
              "duration": 1.375
            },
            {
              "pitch": 56,
              "velocity": 60,
              "position": 14,
              "duration": 0.2708333333333333
            },
            {
              "pitch": 60,
              "velocity": 70,
              "position": 14,
              "duration": 0.2916666666666667
            },
            {
              "pitch": 62,
              "velocity": 52,
              "position": 14,
              "duration": 0.2916666666666667
            },
            {
              "pitch": 65,
              "velocity": 70,
              "position": 14,
              "duration": 0.34375
            },
            {
              "pitch": 56,
              "velocity": 61,
              "position": 15,
              "duration": 0.3333333333333333
            },
            {
              "pitch": 60,
              "velocity": 68,
              "position": 15,
              "duration": 0.3541666666666667
            },
            {
              "pitch": 62,
              "velocity": 64,
              "position": 15,
              "duration": 0.3958333333333333
            },
            {
              "pitch": 65,
              "velocity": 66,
              "position": 15,
              "duration": 0.5208333333333334
            },
            {
              "pitch": 62,
              "velocity": 70,
              "position": 16,
              "duration": 1.4270833333333333
            },
            {
              "pitch": 67,
              "velocity": 71,
              "position": 16,
              "duration": 1.4375
            },
            {
              "pitch": 59,
              "velocity": 71,
              "position": 16,
              "duration": 1.46875
            },
            {
              "pitch": 64,
              "velocity": 71,
              "position": 16,
              "duration": 1.46875
            },
            {
              "pitch": 62,
              "velocity": 70,
              "position": 17.5,
              "duration": 0.2708333333333333
            },
            {
              "pitch": 64,
              "velocity": 64,
              "position": 17.5,
              "duration": 0.2708333333333333
            },
            {
              "pitch": 59,
              "velocity": 63,
              "position": 17.5,
              "duration": 0.3125
            },
            {
              "pitch": 67,
              "velocity": 61,
              "position": 17.5,
              "duration": 0.3333333333333333
            },
            {
              "pitch": 64,
              "velocity": 61,
              "position": 18.5,
              "duration": 0.2708333333333333
            },
            {
              "pitch": 62,
              "velocity": 63,
              "position": 18.5,
              "duration": 0.3020833333333333
            },
            {
              "pitch": 59,
              "velocity": 64,
              "position": 18.5,
              "duration": 0.3333333333333333
            },
            {
              "pitch": 67,
              "velocity": 70,
              "position": 18.5,
              "duration": 0.40625
            },
            {
              "pitch": 58,
              "velocity": 65,
              "position": 19.5,
              "duration": 0.28125
            },
            {
              "pitch": 61,
              "velocity": 68,
              "position": 19.5,
              "duration": 0.3125
            },
            {
              "pitch": 63,
              "velocity": 51,
              "position": 19.5,
              "duration": 0.3333333333333333
            },
            {
              "pitch": 67,
              "velocity": 65,
              "position": 19.5,
              "duration": 0.3541666666666667
            },
            {
              "pitch": 58,
              "velocity": 76,
              "position": 20.5,
              "duration": 1.2291666666666667
            },
            {
              "pitch": 67,
              "velocity": 66,
              "position": 20.5,
              "duration": 1.2291666666666667
            },
            {
              "pitch": 61,
              "velocity": 71,
              "position": 20.5,
              "duration": 1.2604166666666667
            },
            {
              "pitch": 63,
              "velocity": 60,
              "position": 20.5,
              "duration": 1.3125
            },
            {
              "pitch": 61,
              "velocity": 66,
              "position": 22,
              "duration": 0.3333333333333333
            },
            {
              "pitch": 58,
              "velocity": 61,
              "position": 22,
              "duration": 0.375
            },
            {
              "pitch": 63,
              "velocity": 51,
              "position": 22,
              "duration": 0.375
            },
            {
              "pitch": 67,
              "velocity": 63,
              "position": 22,
              "duration": 0.3958333333333333
            },
            {
              "pitch": 58,
              "velocity": 68,
              "position": 23,
              "duration": 0.3229166666666667
            },
            {
              "pitch": 61,
              "velocity": 69,
              "position": 23,
              "duration": 0.34375
            },
            {
              "pitch": 67,
              "velocity": 65,
              "position": 23,
              "duration": 0.4479166666666667
            },
            {
              "pitch": 63,
              "velocity": 61,
              "position": 23,
              "duration": 0.5104166666666666
            },
            {
              "pitch": 57,
              "velocity": 70,
              "position": 24,
              "duration": 1.3229166666666667
            },
            {
              "pitch": 60,
              "velocity": 68,
              "position": 24,
              "duration": 1.34375
            },
            {
              "pitch": 62,
              "velocity": 70,
              "position": 24,
              "duration": 1.3541666666666667
            },
            {
              "pitch": 67,
              "velocity": 70,
              "position": 24,
              "duration": 1.3958333333333333
            },
            {
              "pitch": 62,
              "velocity": 71,
              "position": 25.5,
              "duration": 0.28125
            },
            {
              "pitch": 60,
              "velocity": 69,
              "position": 25.5,
              "duration": 0.3020833333333333
            },
            {
              "pitch": 57,
              "velocity": 64,
              "position": 25.5,
              "duration": 0.3541666666666667
            },
            {
              "pitch": 65,
              "velocity": 65,
              "position": 25.5,
              "duration": 0.375
            },
            {
              "pitch": 62,
              "velocity": 63,
              "position": 26.5,
              "duration": 0.3958333333333333
            },
            {
              "pitch": 57,
              "velocity": 64,
              "position": 26.5,
              "duration": 0.40625
            },
            {
              "pitch": 60,
              "velocity": 70,
              "position": 26.5,
              "duration": 0.40625
            },
            {
              "pitch": 65,
              "velocity": 65,
              "position": 26.5,
              "duration": 0.5
            },
            {
              "pitch": 57,
              "velocity": 68,
              "position": 27.5,
              "duration": 0.5416666666666666
            },
            {
              "pitch": 60,
              "velocity": 69,
              "position": 27.5,
              "duration": 0.5416666666666666
            },
            {
              "pitch": 62,
              "velocity": 69,
              "position": 27.5,
              "duration": 0.5416666666666666
            },
            {
              "pitch": 65,
              "velocity": 69,
              "position": 27.5,
              "duration": 0.5416666666666666
            }
          ]
        },
        "13": {
          "ctab": {
            "srcChannel": 13,
            "name": "Strings",
            "accType": "PAD",
            "editable": false,
            "mutedNotes": [],
            "mutedChords": [],
            "autoStart": false,
            "sourceChordNote": 0,
            "sourceChordType": "Maj",
            "ctb2Low": null,
            "ctb2Main": {
              "ntr": "ROOT_TRANSPOSITION",
              "ntt": "BYPASS",
              "bassOn": false,
              "chordRootUpperLimit": 5,
              "noteLowLimit": 0,
              "noteHighLimit": 79,
              "rtr": "PITCH_SHIFT"
            },
            "ctb2High": null
          },
          "notes": []
        }
      }
    },
    "Ending_C": {
      "type": "Ending_C",
      "sizeInBeats": 28,
      "channels": {
        "2": {
          "ctab": {
            "srcChannel": 2,
            "name": "Bass",
            "accType": "BASS",
            "editable": false,
            "mutedNotes": [],
            "mutedChords": [
              "1+2+5",
              "sus4",
              "1+5",
              "1+8",
              "7aug",
              "Maj7aug",
              "7(#9)",
              "7(b13)",
              "7(b9)",
              "7(13)",
              "7#11",
              "7(9)",
              "7b5",
              "7sus4",
              "7th",
              "aug",
              "Maj6(9)",
              "Maj7(9)",
              "Maj(9)",
              "Maj7#11",
              "Maj7",
              "Maj6",
              "Maj"
            ],
            "autoStart": false,
            "sourceChordNote": 0,
            "sourceChordType": "min",
            "ctb2Low": null,
            "ctb2Main": {
              "ntr": "ROOT_TRANSPOSITION",
              "ntt": "BYPASS",
              "bassOn": false,
              "chordRootUpperLimit": 3,
              "noteLowLimit": 28,
              "noteHighLimit": 127,
              "rtr": "PITCH_SHIFT"
            },
            "ctb2High": null
          },
          "notes": [
            {
              "pitch": 36,
              "velocity": 98,
              "position": 0,
              "duration": 1.0416666666666667
            },
            {
              "pitch": 36,
              "velocity": 77,
              "position": 1.5,
              "duration": 0.2916666666666667
            },
            {
              "pitch": 31,
              "velocity": 83,
              "position": 2,
              "duration": 1.1145833333333333
            },
            {
              "pitch": 31,
              "velocity": 77,
              "position": 3.5,
              "duration": 0.3645833333333333
            },
            {
              "pitch": 37,
              "velocity": 98,
              "position": 4,
              "duration": 1.1354166666666667
            },
            {
              "pitch": 37,
              "velocity": 87,
              "position": 5.5,
              "duration": 0.4895833333333333
            },
            {
              "pitch": 31,
              "velocity": 91,
              "position": 6,
              "duration": 0.9166666666666666
            },
            {
              "pitch": 37,
              "velocity": 76,
              "position": 7,
              "duration": 0.4895833333333333
            },
            {
              "pitch": 31,
              "velocity": 68,
              "position": 7.5,
              "duration": 0.3958333333333333
            },
            {
              "pitch": 36,
              "velocity": 98,
              "position": 8,
              "duration": 1.0833333333333333
            },
            {
              "pitch": 36,
              "velocity": 77,
              "position": 9.5,
              "duration": 0.2708333333333333
            },
            {
              "pitch": 31,
              "velocity": 75,
              "position": 10,
              "duration": 1.0833333333333333
            },
            {
              "pitch": 31,
              "velocity": 75,
              "position": 11.5,
              "duration": 0.2916666666666667
            },
            {
              "pitch": 37,
              "velocity": 70,
              "position": 12,
              "duration": 1.1354166666666667
            },
            {
              "pitch": 37,
              "velocity": 81,
              "position": 13.5,
              "duration": 0.4270833333333333
            },
            {
              "pitch": 31,
              "velocity": 89,
              "position": 14,
              "duration": 0.9895833333333334
            },
            {
              "pitch": 37,
              "velocity": 81,
              "position": 15,
              "duration": 0.4895833333333333
            },
            {
              "pitch": 31,
              "velocity": 82,
              "position": 15.5,
              "duration": 0.4583333333333333
            },
            {
              "pitch": 36,
              "velocity": 98,
              "position": 16,
              "duration": 1.0520833333333333
            },
            {
              "pitch": 36,
              "velocity": 89,
              "position": 17.5,
              "duration": 0.3541666666666667
            },
            {
              "pitch": 31,
              "velocity": 98,
              "position": 18,
              "duration": 1.1770833333333333
            },
            {
              "pitch": 31,
              "velocity": 77,
              "position": 19.5,
              "duration": 0.2916666666666667
            },
            {
              "pitch": 37,
              "velocity": 98,
              "position": 20,
              "duration": 1.1041666666666667
            },
            {
              "pitch": 37,
              "velocity": 98,
              "position": 21.5,
              "duration": 0.3958333333333333
            },
            {
              "pitch": 31,
              "velocity": 98,
              "position": 22,
              "duration": 0.9895833333333334
            },
            {
              "pitch": 37,
              "velocity": 77,
              "position": 23,
              "duration": 0.4895833333333333
            },
            {
              "pitch": 31,
              "velocity": 77,
              "position": 23.5,
              "duration": 0.4895833333333333
            },
            {
              "pitch": 36,
              "velocity": 98,
              "position": 24,
              "duration": 0.28125
            },
            {
              "pitch": 36,
              "velocity": 98,
              "position": 24.5,
              "duration": 0.22916666666666666
            },
            {
              "pitch": 36,
              "velocity": 98,
              "position": 25,
              "duration": 0.375
            },
            {
              "pitch": 36,
              "velocity": 98,
              "position": 26.5,
              "duration": 0.2708333333333333
            },
            {
              "pitch": 36,
              "velocity": 98,
              "position": 27,
              "duration": 0.25
            },
            {
              "pitch": 36,
              "velocity": 98,
              "position": 27.5,
              "duration": 0.4166666666666667
            }
          ]
        },
        "3": {
          "ctab": {
            "srcChannel": 3,
            "name": "NylonGtr",
            "accType": "CHORD1",
            "editable": false,
            "mutedNotes": [],
            "mutedChords": [
              "1+2+5",
              "sus4",
              "1+5",
              "1+8",
              "7aug",
              "Maj7aug",
              "7(#9)",
              "7(b13)",
              "7(b9)",
              "7(13)",
              "7#11",
              "7(9)",
              "7b5",
              "7sus4",
              "7th",
              "aug",
              "Maj6(9)",
              "Maj7(9)",
              "Maj(9)",
              "Maj7#11",
              "Maj7",
              "Maj6",
              "Maj"
            ],
            "autoStart": false,
            "sourceChordNote": 0,
            "sourceChordType": "min",
            "ctb2Low": null,
            "ctb2Main": {
              "ntr": "ROOT_TRANSPOSITION",
              "ntt": "BYPASS",
              "bassOn": false,
              "chordRootUpperLimit": 5,
              "noteLowLimit": 40,
              "noteHighLimit": 127,
              "rtr": "PITCH_SHIFT"
            },
            "ctb2High": null
          },
          "notes": [
            {
              "pitch": 67,
              "velocity": 112,
              "position": 0,
              "duration": 2.4791666666666665
            },
            {
              "pitch": 58,
              "velocity": 99,
              "position": 1.5,
              "duration": 0.9895833333333334
            },
            {
              "pitch": 60,
              "velocity": 86,
              "position": 2,
              "duration": 0.9895833333333334
            },
            {
              "pitch": 63,
              "velocity": 73,
              "position": 2.5,
              "duration": 0.9895833333333334
            },
            {
              "pitch": 67,
              "velocity": 73,
              "position": 3,
              "duration": 0.4895833333333333
            },
            {
              "pitch": 59,
              "velocity": 63,
              "position": 3.5,
              "duration": 0.052083333333333336
            },
            {
              "pitch": 68,
              "velocity": 120,
              "position": 3.5,
              "duration": 1.7708333333333333
            },
            {
              "pitch": 63,
              "velocity": 67,
              "position": 5,
              "duration": 0.3333333333333333
            },
            {
              "pitch": 68,
              "velocity": 127,
              "position": 5.5,
              "duration": 1.6041666666666667
            },
            {
              "pitch": 70,
              "velocity": 100,
              "position": 7,
              "duration": 0.5729166666666666
            },
            {
              "pitch": 59,
              "velocity": 75,
              "position": 4.5,
              "duration": 3.2916666666666665
            },
            {
              "pitch": 60,
              "velocity": 91,
              "position": 8,
              "duration": 0.9895833333333334
            },
            {
              "pitch": 63,
              "velocity": 93,
              "position": 8,
              "duration": 0.9895833333333334
            },
            {
              "pitch": 67,
              "velocity": 99,
              "position": 8,
              "duration": 0.9895833333333334
            },
            {
              "pitch": 63,
              "velocity": 86,
              "position": 9,
              "duration": 0.4479166666666667
            },
            {
              "pitch": 60,
              "velocity": 78,
              "position": 9,
              "duration": 0.4791666666666667
            },
            {
              "pitch": 67,
              "velocity": 86,
              "position": 9,
              "duration": 0.4895833333333333
            },
            {
              "pitch": 60,
              "velocity": 74,
              "position": 9.5,
              "duration": 0.010416666666666666
            },
            {
              "pitch": 63,
              "velocity": 74,
              "position": 9.5,
              "duration": 0.010416666666666666
            },
            {
              "pitch": 67,
              "velocity": 74,
              "position": 9.5,
              "duration": 0.010416666666666666
            },
            {
              "pitch": 67,
              "velocity": 83,
              "position": 10.5,
              "duration": 0.23958333333333334
            },
            {
              "pitch": 63,
              "velocity": 78,
              "position": 10.5,
              "duration": 0.2708333333333333
            },
            {
              "pitch": 60,
              "velocity": 83,
              "position": 10.5,
              "duration": 0.3125
            },
            {
              "pitch": 68,
              "velocity": 105,
              "position": 11.5,
              "duration": 1.4895833333333333
            },
            {
              "pitch": 63,
              "velocity": 73,
              "position": 13,
              "duration": 0.4895833333333333
            },
            {
              "pitch": 68,
              "velocity": 116,
              "position": 13.5,
              "duration": 1.4895833333333333
            },
            {
              "pitch": 70,
              "velocity": 97,
              "position": 15,
              "duration": 0.6041666666666666
            },
            {
              "pitch": 59,
              "velocity": 66,
              "position": 12.5,
              "duration": 3.3645833333333335
            },
            {
              "pitch": 58,
              "velocity": 82,
              "position": 16,
              "duration": 0.4895833333333333
            },
            {
              "pitch": 60,
              "velocity": 83,
              "position": 16,
              "duration": 0.4895833333333333
            },
            {
              "pitch": 63,
              "velocity": 93,
              "position": 16,
              "duration": 0.4895833333333333
            },
            {
              "pitch": 67,
              "velocity": 83,
              "position": 16,
              "duration": 0.4895833333333333
            },
            {
              "pitch": 58,
              "velocity": 72,
              "position": 16.5,
              "duration": 0.4895833333333333
            },
            {
              "pitch": 60,
              "velocity": 72,
              "position": 16.5,
              "duration": 0.4895833333333333
            },
            {
              "pitch": 63,
              "velocity": 69,
              "position": 16.5,
              "duration": 0.4895833333333333
            },
            {
              "pitch": 67,
              "velocity": 73,
              "position": 16.5,
              "duration": 0.4895833333333333
            },
            {
              "pitch": 58,
              "velocity": 97,
              "position": 17,
              "duration": 0.3958333333333333
            },
            {
              "pitch": 60,
              "velocity": 97,
              "position": 17,
              "duration": 0.3958333333333333
            },
            {
              "pitch": 63,
              "velocity": 105,
              "position": 17,
              "duration": 0.3958333333333333
            },
            {
              "pitch": 67,
              "velocity": 105,
              "position": 17,
              "duration": 0.4583333333333333
            },
            {
              "pitch": 63,
              "velocity": 86,
              "position": 18.5,
              "duration": 0.3020833333333333
            },
            {
              "pitch": 60,
              "velocity": 88,
              "position": 18.5,
              "duration": 0.3958333333333333
            },
            {
              "pitch": 67,
              "velocity": 95,
              "position": 18.5,
              "duration": 0.4375
            },
            {
              "pitch": 58,
              "velocity": 93,
              "position": 18.5,
              "duration": 0.7291666666666666
            },
            {
              "pitch": 68,
              "velocity": 102,
              "position": 19.5,
              "duration": 1.4895833333333333
            },
            {
              "pitch": 63,
              "velocity": 70,
              "position": 21,
              "duration": 0.4895833333333333
            },
            {
              "pitch": 68,
              "velocity": 127,
              "position": 21.5,
              "duration": 1.4895833333333333
            },
            {
              "pitch": 70,
              "velocity": 102,
              "position": 23,
              "duration": 0.7083333333333334
            },
            {
              "pitch": 59,
              "velocity": 80,
              "position": 20.5,
              "duration": 3.4895833333333335
            },
            {
              "pitch": 58,
              "velocity": 82,
              "position": 24,
              "duration": 0.4895833333333333
            },
            {
              "pitch": 60,
              "velocity": 86,
              "position": 24,
              "duration": 0.4895833333333333
            },
            {
              "pitch": 63,
              "velocity": 83,
              "position": 24,
              "duration": 0.4895833333333333
            },
            {
              "pitch": 67,
              "velocity": 83,
              "position": 24,
              "duration": 0.4895833333333333
            },
            {
              "pitch": 58,
              "velocity": 67,
              "position": 24.5,
              "duration": 0.4895833333333333
            },
            {
              "pitch": 60,
              "velocity": 73,
              "position": 24.5,
              "duration": 0.4895833333333333
            },
            {
              "pitch": 63,
              "velocity": 68,
              "position": 24.5,
              "duration": 0.4895833333333333
            },
            {
              "pitch": 67,
              "velocity": 69,
              "position": 24.5,
              "duration": 0.4895833333333333
            },
            {
              "pitch": 63,
              "velocity": 108,
              "position": 25,
              "duration": 0.375
            },
            {
              "pitch": 60,
              "velocity": 112,
              "position": 25,
              "duration": 0.3958333333333333
            },
            {
              "pitch": 58,
              "velocity": 108,
              "position": 25,
              "duration": 0.4479166666666667
            },
            {
              "pitch": 67,
              "velocity": 108,
              "position": 25,
              "duration": 0.6041666666666666
            },
            {
              "pitch": 58,
              "velocity": 86,
              "position": 26.5,
              "duration": 0.4895833333333333
            },
            {
              "pitch": 60,
              "velocity": 95,
              "position": 26.5,
              "duration": 0.4895833333333333
            },
            {
              "pitch": 63,
              "velocity": 93,
              "position": 26.5,
              "duration": 0.4895833333333333
            },
            {
              "pitch": 67,
              "velocity": 99,
              "position": 26.5,
              "duration": 0.4895833333333333
            },
            {
              "pitch": 58,
              "velocity": 69,
              "position": 27,
              "duration": 0.4895833333333333
            },
            {
              "pitch": 60,
              "velocity": 69,
              "position": 27,
              "duration": 0.4895833333333333
            },
            {
              "pitch": 63,
              "velocity": 69,
              "position": 27,
              "duration": 0.4895833333333333
            },
            {
              "pitch": 67,
              "velocity": 71,
              "position": 27,
              "duration": 0.4895833333333333
            },
            {
              "pitch": 58,
              "velocity": 112,
              "position": 27.5,
              "duration": 0.4895833333333333
            },
            {
              "pitch": 60,
              "velocity": 120,
              "position": 27.5,
              "duration": 0.4895833333333333
            },
            {
              "pitch": 63,
              "velocity": 112,
              "position": 27.5,
              "duration": 0.4895833333333333
            },
            {
              "pitch": 67,
              "velocity": 100,
              "position": 27.5,
              "duration": 0.4895833333333333
            }
          ]
        },
        "4": {
          "ctab": {
            "srcChannel": 4,
            "name": "Piano",
            "accType": "CHORD2",
            "editable": false,
            "mutedNotes": [],
            "mutedChords": [
              "1+2+5",
              "sus4",
              "1+5",
              "1+8",
              "7aug",
              "Maj7aug",
              "7(#9)",
              "7(b13)",
              "7(b9)",
              "7(13)",
              "7#11",
              "7(9)",
              "7b5",
              "7sus4",
              "7th",
              "aug",
              "Maj6(9)",
              "Maj7(9)",
              "Maj(9)",
              "Maj7#11",
              "Maj7",
              "Maj6",
              "Maj"
            ],
            "autoStart": false,
            "sourceChordNote": 0,
            "sourceChordType": "min",
            "ctb2Low": null,
            "ctb2Main": {
              "ntr": "ROOT_TRANSPOSITION",
              "ntt": "BYPASS",
              "bassOn": false,
              "chordRootUpperLimit": 5,
              "noteLowLimit": 0,
              "noteHighLimit": 79,
              "rtr": "PITCH_SHIFT"
            },
            "ctb2High": null
          },
          "notes": [
            {
              "pitch": 60,
              "velocity": 79,
              "position": 0,
              "duration": 0.25
            },
            {
              "pitch": 58,
              "velocity": 81,
              "position": 0,
              "duration": 0.2916666666666667
            },
            {
              "pitch": 67,
              "velocity": 75,
              "position": 0,
              "duration": 0.4583333333333333
            },
            {
              "pitch": 63,
              "velocity": 81,
              "position": 0,
              "duration": 0.5416666666666666
            },
            {
              "pitch": 58,
              "velocity": 59,
              "position": 1,
              "duration": 0.28125
            },
            {
              "pitch": 60,
              "velocity": 69,
              "position": 1,
              "duration": 0.3541666666666667
            },
            {
              "pitch": 63,
              "velocity": 73,
              "position": 1,
              "duration": 0.375
            },
            {
              "pitch": 67,
              "velocity": 75,
              "position": 1,
              "duration": 0.4270833333333333
            },
            {
              "pitch": 58,
              "velocity": 61,
              "position": 1.5,
              "duration": 0.3333333333333333
            },
            {
              "pitch": 63,
              "velocity": 77,
              "position": 2.5,
              "duration": 0.28125
            },
            {
              "pitch": 60,
              "velocity": 75,
              "position": 2.5,
              "duration": 0.3229166666666667
            },
            {
              "pitch": 67,
              "velocity": 75,
              "position": 2.5,
              "duration": 0.3541666666666667
            },
            {
              "pitch": 58,
              "velocity": 79,
              "position": 2.5,
              "duration": 0.46875
            },
            {
              "pitch": 59,
              "velocity": 69,
              "position": 3.5,
              "duration": 0.4583333333333333
            },
            {
              "pitch": 63,
              "velocity": 71,
              "position": 3.5,
              "duration": 0.4895833333333333
            },
            {
              "pitch": 68,
              "velocity": 88,
              "position": 3.5,
              "duration": 0.5104166666666666
            },
            {
              "pitch": 59,
              "velocity": 67,
              "position": 4.5,
              "duration": 0.1875
            },
            {
              "pitch": 63,
              "velocity": 85,
              "position": 4.5,
              "duration": 0.3020833333333333
            },
            {
              "pitch": 68,
              "velocity": 85,
              "position": 4.5,
              "duration": 0.34375
            },
            {
              "pitch": 59,
              "velocity": 53,
              "position": 5,
              "duration": 0.34375
            },
            {
              "pitch": 63,
              "velocity": 43,
              "position": 5.5,
              "duration": 0.16666666666666666
            },
            {
              "pitch": 68,
              "velocity": 91,
              "position": 6,
              "duration": 0.8645833333333334
            },
            {
              "pitch": 59,
              "velocity": 79,
              "position": 6,
              "duration": 1.1458333333333333
            },
            {
              "pitch": 63,
              "velocity": 94,
              "position": 6,
              "duration": 1.3020833333333333
            },
            {
              "pitch": 70,
              "velocity": 85,
              "position": 7,
              "duration": 0.4375
            },
            {
              "pitch": 59,
              "velocity": 57,
              "position": 7.5,
              "duration": 0.3229166666666667
            },
            {
              "pitch": 60,
              "velocity": 81,
              "position": 8,
              "duration": 0.3333333333333333
            },
            {
              "pitch": 63,
              "velocity": 75,
              "position": 8,
              "duration": 0.3645833333333333
            },
            {
              "pitch": 58,
              "velocity": 79,
              "position": 8,
              "duration": 0.3958333333333333
            },
            {
              "pitch": 67,
              "velocity": 84,
              "position": 8,
              "duration": 0.4166666666666667
            },
            {
              "pitch": 58,
              "velocity": 75,
              "position": 9,
              "duration": 0.19791666666666666
            },
            {
              "pitch": 60,
              "velocity": 85,
              "position": 9,
              "duration": 0.3125
            },
            {
              "pitch": 63,
              "velocity": 91,
              "position": 9,
              "duration": 0.3541666666666667
            },
            {
              "pitch": 67,
              "velocity": 85,
              "position": 9,
              "duration": 0.3541666666666667
            },
            {
              "pitch": 58,
              "velocity": 55,
              "position": 9.5,
              "duration": 0.25
            },
            {
              "pitch": 63,
              "velocity": 70,
              "position": 10.5,
              "duration": 0.2604166666666667
            },
            {
              "pitch": 67,
              "velocity": 79,
              "position": 10.5,
              "duration": 0.2708333333333333
            },
            {
              "pitch": 60,
              "velocity": 73,
              "position": 10.5,
              "duration": 0.2916666666666667
            },
            {
              "pitch": 58,
              "velocity": 77,
              "position": 10.5,
              "duration": 0.3125
            },
            {
              "pitch": 63,
              "velocity": 88,
              "position": 11.5,
              "duration": 0.3541666666666667
            },
            {
              "pitch": 68,
              "velocity": 77,
              "position": 11.5,
              "duration": 0.4166666666666667
            },
            {
              "pitch": 59,
              "velocity": 70,
              "position": 11.5,
              "duration": 0.4791666666666667
            },
            {
              "pitch": 63,
              "velocity": 85,
              "position": 12.5,
              "duration": 0.3020833333333333
            },
            {
              "pitch": 59,
              "velocity": 71,
              "position": 12.5,
              "duration": 0.3125
            },
            {
              "pitch": 68,
              "velocity": 91,
              "position": 12.5,
              "duration": 0.375
            },
            {
              "pitch": 59,
              "velocity": 36,
              "position": 13,
              "duration": 0.3541666666666667
            },
            {
              "pitch": 59,
              "velocity": 85,
              "position": 14,
              "duration": 0.8125
            },
            {
              "pitch": 68,
              "velocity": 86,
              "position": 14,
              "duration": 0.8229166666666666
            },
            {
              "pitch": 59,
              "velocity": 38,
              "position": 15,
              "duration": 0.0625
            },
            {
              "pitch": 70,
              "velocity": 82,
              "position": 15,
              "duration": 0.34375
            },
            {
              "pitch": 63,
              "velocity": 95,
              "position": 14,
              "duration": 1.5
            },
            {
              "pitch": 59,
              "velocity": 59,
              "position": 15.25,
              "duration": 0.3541666666666667
            },
            {
              "pitch": 58,
              "velocity": 72,
              "position": 16,
              "duration": 0.4895833333333333
            },
            {
              "pitch": 60,
              "velocity": 76,
              "position": 16,
              "duration": 0.4895833333333333
            },
            {
              "pitch": 63,
              "velocity": 76,
              "position": 16,
              "duration": 0.4895833333333333
            },
            {
              "pitch": 67,
              "velocity": 76,
              "position": 16,
              "duration": 0.4895833333333333
            },
            {
              "pitch": 58,
              "velocity": 63,
              "position": 16.5,
              "duration": 0.4895833333333333
            },
            {
              "pitch": 60,
              "velocity": 63,
              "position": 16.5,
              "duration": 0.4895833333333333
            },
            {
              "pitch": 63,
              "velocity": 60,
              "position": 16.5,
              "duration": 0.4895833333333333
            },
            {
              "pitch": 67,
              "velocity": 55,
              "position": 16.5,
              "duration": 0.4895833333333333
            },
            {
              "pitch": 63,
              "velocity": 76,
              "position": 17,
              "duration": 0.3333333333333333
            },
            {
              "pitch": 60,
              "velocity": 84,
              "position": 17,
              "duration": 0.34375
            },
            {
              "pitch": 58,
              "velocity": 74,
              "position": 17,
              "duration": 0.4375
            },
            {
              "pitch": 67,
              "velocity": 84,
              "position": 17,
              "duration": 0.4375
            },
            {
              "pitch": 58,
              "velocity": 72,
              "position": 18.5,
              "duration": 0.2916666666666667
            },
            {
              "pitch": 63,
              "velocity": 70,
              "position": 18.5,
              "duration": 0.3229166666666667
            },
            {
              "pitch": 67,
              "velocity": 76,
              "position": 18.5,
              "duration": 0.3229166666666667
            },
            {
              "pitch": 60,
              "velocity": 74,
              "position": 18.5,
              "duration": 0.3541666666666667
            },
            {
              "pitch": 58,
              "velocity": 37,
              "position": 19,
              "duration": 0.2916666666666667
            },
            {
              "pitch": 63,
              "velocity": 83,
              "position": 19.5,
              "duration": 0.46875
            },
            {
              "pitch": 59,
              "velocity": 74,
              "position": 19.5,
              "duration": 0.5625
            },
            {
              "pitch": 68,
              "velocity": 84,
              "position": 19.5,
              "duration": 0.6354166666666666
            },
            {
              "pitch": 63,
              "velocity": 87,
              "position": 20.5,
              "duration": 0.3125
            },
            {
              "pitch": 59,
              "velocity": 72,
              "position": 20.5,
              "duration": 0.3645833333333333
            },
            {
              "pitch": 68,
              "velocity": 90,
              "position": 20.5,
              "duration": 0.3645833333333333
            },
            {
              "pitch": 68,
              "velocity": 93,
              "position": 22,
              "duration": 1.0729166666666667
            },
            {
              "pitch": 63,
              "velocity": 99,
              "position": 22,
              "duration": 1.2708333333333333
            },
            {
              "pitch": 70,
              "velocity": 84,
              "position": 23,
              "duration": 0.3958333333333333
            },
            {
              "pitch": 59,
              "velocity": 90,
              "position": 22,
              "duration": 1.4895833333333333
            },
            {
              "pitch": 67,
              "velocity": 84,
              "position": 24,
              "duration": 0.3333333333333333
            },
            {
              "pitch": 58,
              "velocity": 84,
              "position": 24,
              "duration": 0.3854166666666667
            },
            {
              "pitch": 60,
              "velocity": 84,
              "position": 24,
              "duration": 0.3854166666666667
            },
            {
              "pitch": 63,
              "velocity": 84,
              "position": 24,
              "duration": 0.3958333333333333
            },
            {
              "pitch": 67,
              "velocity": 72,
              "position": 24.5,
              "duration": 0.13541666666666666
            },
            {
              "pitch": 58,
              "velocity": 63,
              "position": 24.5,
              "duration": 0.2604166666666667
            },
            {
              "pitch": 60,
              "velocity": 63,
              "position": 24.5,
              "duration": 0.2604166666666667
            },
            {
              "pitch": 63,
              "velocity": 60,
              "position": 24.5,
              "duration": 0.2916666666666667
            },
            {
              "pitch": 67,
              "velocity": 81,
              "position": 25,
              "duration": 0.3645833333333333
            },
            {
              "pitch": 63,
              "velocity": 83,
              "position": 25,
              "duration": 0.375
            },
            {
              "pitch": 58,
              "velocity": 84,
              "position": 25,
              "duration": 0.3854166666666667
            },
            {
              "pitch": 60,
              "velocity": 84,
              "position": 25,
              "duration": 0.3854166666666667
            },
            {
              "pitch": 58,
              "velocity": 83,
              "position": 26.5,
              "duration": 0.34375
            },
            {
              "pitch": 60,
              "velocity": 83,
              "position": 26.5,
              "duration": 0.34375
            },
            {
              "pitch": 63,
              "velocity": 78,
              "position": 26.5,
              "duration": 0.34375
            },
            {
              "pitch": 67,
              "velocity": 87,
              "position": 26.5,
              "duration": 0.34375
            },
            {
              "pitch": 58,
              "velocity": 74,
              "position": 27,
              "duration": 0.2916666666666667
            },
            {
              "pitch": 60,
              "velocity": 74,
              "position": 27,
              "duration": 0.2916666666666667
            },
            {
              "pitch": 63,
              "velocity": 76,
              "position": 27,
              "duration": 0.2916666666666667
            },
            {
              "pitch": 67,
              "velocity": 70,
              "position": 27,
              "duration": 0.2916666666666667
            },
            {
              "pitch": 58,
              "velocity": 87,
              "position": 27.5,
              "duration": 0.4583333333333333
            },
            {
              "pitch": 60,
              "velocity": 87,
              "position": 27.5,
              "duration": 0.4583333333333333
            },
            {
              "pitch": 63,
              "velocity": 84,
              "position": 27.5,
              "duration": 0.4583333333333333
            },
            {
              "pitch": 67,
              "velocity": 93,
              "position": 27.5,
              "duration": 0.4583333333333333
            }
          ]
        },
        "8": {
          "ctab": {
            "srcChannel": 8,
            "name": "CubanP",
            "accType": "SUBRHYTHM",
            "editable": false,
            "mutedNotes": [],
            "mutedChords": [],
            "autoStart": true,
            "sourceChordNote": 0,
            "sourceChordType": "Maj7",
            "ctb2Low": null,
            "ctb2Main": {
              "ntr": "ROOT_FIXED",
              "ntt": "BYPASS",
              "bassOn": false,
              "chordRootUpperLimit": 6,
              "noteLowLimit": 0,
              "noteHighLimit": 127,
              "rtr": "PITCH_SHIFT"
            },
            "ctb2High": null
          },
          "notes": [
            {
              "pitch": 31,
              "velocity": 79,
              "position": 0,
              "duration": 0.010416666666666666
            },
            {
              "pitch": 68,
              "velocity": 79,
              "position": 0,
              "duration": 0.010416666666666666
            },
            {
              "pitch": 73,
              "velocity": 34,
              "position": 0,
              "duration": 0.16666666666666666
            },
            {
              "pitch": 73,
              "velocity": 27,
              "position": 0.4895833333333333,
              "duration": 0.125
            },
            {
              "pitch": 39,
              "velocity": 93,
              "position": 0.9270833333333334,
              "duration": 0.010416666666666666
            },
            {
              "pitch": 31,
              "velocity": 72,
              "position": 1,
              "duration": 0.010416666666666666
            },
            {
              "pitch": 64,
              "velocity": 67,
              "position": 1,
              "duration": 0.010416666666666666
            },
            {
              "pitch": 73,
              "velocity": 93,
              "position": 0.9895833333333334,
              "duration": 0.1875
            },
            {
              "pitch": 38,
              "velocity": 78,
              "position": 1.4375,
              "duration": 0.010416666666666666
            },
            {
              "pitch": 29,
              "velocity": 27,
              "position": 1.4895833333333333,
              "duration": 0.010416666666666666
            },
            {
              "pitch": 64,
              "velocity": 59,
              "position": 1.5,
              "duration": 0.010416666666666666
            },
            {
              "pitch": 68,
              "velocity": 43,
              "position": 1.5,
              "duration": 0.010416666666666666
            },
            {
              "pitch": 73,
              "velocity": 36,
              "position": 1.5,
              "duration": 0.19791666666666666
            },
            {
              "pitch": 36,
              "velocity": 55,
              "position": 1.9583333333333333,
              "duration": 0.010416666666666666
            },
            {
              "pitch": 25,
              "velocity": 57,
              "position": 1.9895833333333333,
              "duration": 0.010416666666666666
            },
            {
              "pitch": 68,
              "velocity": 79,
              "position": 2,
              "duration": 0.010416666666666666
            },
            {
              "pitch": 73,
              "velocity": 38,
              "position": 2,
              "duration": 0.20833333333333334
            },
            {
              "pitch": 30,
              "velocity": 123,
              "position": 2.5,
              "duration": 0.010416666666666666
            },
            {
              "pitch": 39,
              "velocity": 96,
              "position": 2.5520833333333335,
              "duration": 0.010416666666666666
            },
            {
              "pitch": 73,
              "velocity": 32,
              "position": 2.5,
              "duration": 0.16666666666666666
            },
            {
              "pitch": 31,
              "velocity": 30,
              "position": 3,
              "duration": 0.010416666666666666
            },
            {
              "pitch": 64,
              "velocity": 82,
              "position": 3,
              "duration": 0.010416666666666666
            },
            {
              "pitch": 73,
              "velocity": 91,
              "position": 3,
              "duration": 0.1875
            },
            {
              "pitch": 31,
              "velocity": 115,
              "position": 3.4895833333333335,
              "duration": 0.010416666666666666
            },
            {
              "pitch": 68,
              "velocity": 35,
              "position": 3.5,
              "duration": 0.010416666666666666
            },
            {
              "pitch": 38,
              "velocity": 99,
              "position": 3.5520833333333335,
              "duration": 0.010416666666666666
            },
            {
              "pitch": 39,
              "velocity": 93,
              "position": 3.625,
              "duration": 0.010416666666666666
            },
            {
              "pitch": 73,
              "velocity": 27,
              "position": 3.5,
              "duration": 0.21875
            },
            {
              "pitch": 68,
              "velocity": 85,
              "position": 4,
              "duration": 0.010416666666666666
            },
            {
              "pitch": 73,
              "velocity": 33,
              "position": 3.9895833333333335,
              "duration": 0.19791666666666666
            },
            {
              "pitch": 31,
              "velocity": 79,
              "position": 4.489583333333333,
              "duration": 0.010416666666666666
            },
            {
              "pitch": 39,
              "velocity": 112,
              "position": 4.541666666666667,
              "duration": 0.010416666666666666
            },
            {
              "pitch": 73,
              "velocity": 33,
              "position": 4.5,
              "duration": 0.1875
            },
            {
              "pitch": 29,
              "velocity": 31,
              "position": 5,
              "duration": 0.010416666666666666
            },
            {
              "pitch": 64,
              "velocity": 82,
              "position": 5,
              "duration": 0.010416666666666666
            },
            {
              "pitch": 73,
              "velocity": 84,
              "position": 4.989583333333333,
              "duration": 0.25
            },
            {
              "pitch": 36,
              "velocity": 61,
              "position": 5.46875,
              "duration": 0.010416666666666666
            },
            {
              "pitch": 25,
              "velocity": 41,
              "position": 5.5,
              "duration": 0.010416666666666666
            },
            {
              "pitch": 64,
              "velocity": 67,
              "position": 5.5,
              "duration": 0.010416666666666666
            },
            {
              "pitch": 68,
              "velocity": 37,
              "position": 5.5,
              "duration": 0.010416666666666666
            },
            {
              "pitch": 73,
              "velocity": 34,
              "position": 5.489583333333333,
              "duration": 0.2708333333333333
            },
            {
              "pitch": 30,
              "velocity": 106,
              "position": 6,
              "duration": 0.010416666666666666
            },
            {
              "pitch": 68,
              "velocity": 85,
              "position": 6,
              "duration": 0.010416666666666666
            },
            {
              "pitch": 38,
              "velocity": 84,
              "position": 6.020833333333333,
              "duration": 0.010416666666666666
            },
            {
              "pitch": 40,
              "velocity": 106,
              "position": 6.0625,
              "duration": 0.010416666666666666
            },
            {
              "pitch": 73,
              "velocity": 42,
              "position": 6,
              "duration": 0.1875
            },
            {
              "pitch": 73,
              "velocity": 36,
              "position": 6.5,
              "duration": 0.15625
            },
            {
              "pitch": 30,
              "velocity": 106,
              "position": 6.989583333333333,
              "duration": 0.010416666666666666
            },
            {
              "pitch": 64,
              "velocity": 103,
              "position": 7,
              "duration": 0.010416666666666666
            },
            {
              "pitch": 38,
              "velocity": 96,
              "position": 7.020833333333333,
              "duration": 0.010416666666666666
            },
            {
              "pitch": 39,
              "velocity": 102,
              "position": 7.041666666666667,
              "duration": 0.010416666666666666
            },
            {
              "pitch": 73,
              "velocity": 102,
              "position": 7,
              "duration": 0.1875
            },
            {
              "pitch": 25,
              "velocity": 52,
              "position": 7.5,
              "duration": 0.010416666666666666
            },
            {
              "pitch": 68,
              "velocity": 40,
              "position": 7.5,
              "duration": 0.010416666666666666
            },
            {
              "pitch": 73,
              "velocity": 34,
              "position": 7.5,
              "duration": 0.19791666666666666
            },
            {
              "pitch": 36,
              "velocity": 49,
              "position": 7.958333333333333,
              "duration": 0.010416666666666666
            },
            {
              "pitch": 31,
              "velocity": 79,
              "position": 8,
              "duration": 0.010416666666666666
            },
            {
              "pitch": 68,
              "velocity": 79,
              "position": 8,
              "duration": 0.010416666666666666
            },
            {
              "pitch": 73,
              "velocity": 34,
              "position": 8,
              "duration": 0.16666666666666666
            },
            {
              "pitch": 39,
              "velocity": 106,
              "position": 8.520833333333334,
              "duration": 0.010416666666666666
            },
            {
              "pitch": 38,
              "velocity": 67,
              "position": 8.583333333333334,
              "duration": 0.010416666666666666
            },
            {
              "pitch": 73,
              "velocity": 27,
              "position": 8.489583333333334,
              "duration": 0.125
            },
            {
              "pitch": 31,
              "velocity": 72,
              "position": 9,
              "duration": 0.010416666666666666
            },
            {
              "pitch": 64,
              "velocity": 67,
              "position": 9,
              "duration": 0.010416666666666666
            },
            {
              "pitch": 73,
              "velocity": 93,
              "position": 8.989583333333334,
              "duration": 0.1875
            },
            {
              "pitch": 36,
              "velocity": 45,
              "position": 9.427083333333334,
              "duration": 0.010416666666666666
            },
            {
              "pitch": 29,
              "velocity": 27,
              "position": 9.489583333333334,
              "duration": 0.010416666666666666
            },
            {
              "pitch": 64,
              "velocity": 59,
              "position": 9.5,
              "duration": 0.010416666666666666
            },
            {
              "pitch": 68,
              "velocity": 43,
              "position": 9.5,
              "duration": 0.010416666666666666
            },
            {
              "pitch": 73,
              "velocity": 36,
              "position": 9.5,
              "duration": 0.19791666666666666
            },
            {
              "pitch": 39,
              "velocity": 106,
              "position": 9.96875,
              "duration": 0.010416666666666666
            },
            {
              "pitch": 25,
              "velocity": 57,
              "position": 9.989583333333334,
              "duration": 0.010416666666666666
            },
            {
              "pitch": 68,
              "velocity": 79,
              "position": 10,
              "duration": 0.010416666666666666
            },
            {
              "pitch": 38,
              "velocity": 93,
              "position": 10.083333333333334,
              "duration": 0.010416666666666666
            },
            {
              "pitch": 73,
              "velocity": 38,
              "position": 10,
              "duration": 0.20833333333333334
            },
            {
              "pitch": 30,
              "velocity": 123,
              "position": 10.5,
              "duration": 0.010416666666666666
            },
            {
              "pitch": 73,
              "velocity": 32,
              "position": 10.5,
              "duration": 0.16666666666666666
            },
            {
              "pitch": 36,
              "velocity": 46,
              "position": 10.958333333333334,
              "duration": 0.010416666666666666
            },
            {
              "pitch": 31,
              "velocity": 30,
              "position": 11,
              "duration": 0.010416666666666666
            },
            {
              "pitch": 64,
              "velocity": 82,
              "position": 11,
              "duration": 0.010416666666666666
            },
            {
              "pitch": 73,
              "velocity": 91,
              "position": 11,
              "duration": 0.1875
            },
            {
              "pitch": 39,
              "velocity": 106,
              "position": 11.46875,
              "duration": 0.010416666666666666
            },
            {
              "pitch": 31,
              "velocity": 115,
              "position": 11.489583333333334,
              "duration": 0.010416666666666666
            },
            {
              "pitch": 68,
              "velocity": 35,
              "position": 11.5,
              "duration": 0.010416666666666666
            },
            {
              "pitch": 38,
              "velocity": 91,
              "position": 11.583333333333334,
              "duration": 0.010416666666666666
            },
            {
              "pitch": 73,
              "velocity": 27,
              "position": 11.5,
              "duration": 0.21875
            },
            {
              "pitch": 68,
              "velocity": 85,
              "position": 12,
              "duration": 0.010416666666666666
            },
            {
              "pitch": 73,
              "velocity": 33,
              "position": 11.989583333333334,
              "duration": 0.19791666666666666
            },
            {
              "pitch": 36,
              "velocity": 51,
              "position": 12.416666666666666,
              "duration": 0.010416666666666666
            },
            {
              "pitch": 31,
              "velocity": 79,
              "position": 12.489583333333334,
              "duration": 0.010416666666666666
            },
            {
              "pitch": 73,
              "velocity": 33,
              "position": 12.5,
              "duration": 0.1875
            },
            {
              "pitch": 39,
              "velocity": 106,
              "position": 12.916666666666666,
              "duration": 0.010416666666666666
            },
            {
              "pitch": 29,
              "velocity": 31,
              "position": 13,
              "duration": 0.010416666666666666
            },
            {
              "pitch": 64,
              "velocity": 82,
              "position": 13,
              "duration": 0.010416666666666666
            },
            {
              "pitch": 38,
              "velocity": 72,
              "position": 13.041666666666666,
              "duration": 0.010416666666666666
            },
            {
              "pitch": 73,
              "velocity": 84,
              "position": 12.989583333333334,
              "duration": 0.25
            },
            {
              "pitch": 25,
              "velocity": 41,
              "position": 13.5,
              "duration": 0.010416666666666666
            },
            {
              "pitch": 64,
              "velocity": 67,
              "position": 13.5,
              "duration": 0.010416666666666666
            },
            {
              "pitch": 68,
              "velocity": 37,
              "position": 13.5,
              "duration": 0.010416666666666666
            },
            {
              "pitch": 73,
              "velocity": 34,
              "position": 13.489583333333334,
              "duration": 0.2708333333333333
            },
            {
              "pitch": 36,
              "velocity": 46,
              "position": 13.927083333333334,
              "duration": 0.010416666666666666
            },
            {
              "pitch": 30,
              "velocity": 106,
              "position": 14,
              "duration": 0.010416666666666666
            },
            {
              "pitch": 68,
              "velocity": 85,
              "position": 14,
              "duration": 0.010416666666666666
            },
            {
              "pitch": 73,
              "velocity": 42,
              "position": 14,
              "duration": 0.1875
            },
            {
              "pitch": 39,
              "velocity": 115,
              "position": 14.458333333333334,
              "duration": 0.010416666666666666
            },
            {
              "pitch": 38,
              "velocity": 96,
              "position": 14.541666666666666,
              "duration": 0.010416666666666666
            },
            {
              "pitch": 73,
              "velocity": 36,
              "position": 14.5,
              "duration": 0.15625
            },
            {
              "pitch": 30,
              "velocity": 106,
              "position": 14.989583333333334,
              "duration": 0.010416666666666666
            },
            {
              "pitch": 64,
              "velocity": 103,
              "position": 15,
              "duration": 0.010416666666666666
            },
            {
              "pitch": 73,
              "velocity": 102,
              "position": 15,
              "duration": 0.1875
            },
            {
              "pitch": 25,
              "velocity": 52,
              "position": 15.5,
              "duration": 0.010416666666666666
            },
            {
              "pitch": 68,
              "velocity": 40,
              "position": 15.5,
              "duration": 0.010416666666666666
            },
            {
              "pitch": 36,
              "velocity": 52,
              "position": 15.520833333333334,
              "duration": 0.010416666666666666
            },
            {
              "pitch": 73,
              "velocity": 34,
              "position": 15.5,
              "duration": 0.19791666666666666
            },
            {
              "pitch": 31,
              "velocity": 79,
              "position": 16,
              "duration": 0.010416666666666666
            },
            {
              "pitch": 38,
              "velocity": 111,
              "position": 16,
              "duration": 0.010416666666666666
            },
            {
              "pitch": 68,
              "velocity": 79,
              "position": 16,
              "duration": 0.010416666666666666
            },
            {
              "pitch": 73,
              "velocity": 34,
              "position": 16,
              "duration": 0.16666666666666666
            },
            {
              "pitch": 38,
              "velocity": 61,
              "position": 16.583333333333332,
              "duration": 0.010416666666666666
            },
            {
              "pitch": 73,
              "velocity": 27,
              "position": 16.489583333333332,
              "duration": 0.125
            },
            {
              "pitch": 31,
              "velocity": 72,
              "position": 17,
              "duration": 0.010416666666666666
            },
            {
              "pitch": 64,
              "velocity": 67,
              "position": 17,
              "duration": 0.010416666666666666
            },
            {
              "pitch": 36,
              "velocity": 37,
              "position": 17.020833333333332,
              "duration": 0.010416666666666666
            },
            {
              "pitch": 73,
              "velocity": 93,
              "position": 16.989583333333332,
              "duration": 0.1875
            },
            {
              "pitch": 29,
              "velocity": 27,
              "position": 17.489583333333332,
              "duration": 0.010416666666666666
            },
            {
              "pitch": 64,
              "velocity": 59,
              "position": 17.5,
              "duration": 0.010416666666666666
            },
            {
              "pitch": 68,
              "velocity": 43,
              "position": 17.5,
              "duration": 0.010416666666666666
            },
            {
              "pitch": 37,
              "velocity": 127,
              "position": 17.614583333333332,
              "duration": 0.010416666666666666
            },
            {
              "pitch": 73,
              "velocity": 36,
              "position": 17.5,
              "duration": 0.19791666666666666
            },
            {
              "pitch": 25,
              "velocity": 57,
              "position": 17.989583333333332,
              "duration": 0.010416666666666666
            },
            {
              "pitch": 68,
              "velocity": 79,
              "position": 18,
              "duration": 0.010416666666666666
            },
            {
              "pitch": 73,
              "velocity": 38,
              "position": 18,
              "duration": 0.20833333333333334
            },
            {
              "pitch": 30,
              "velocity": 123,
              "position": 18.5,
              "duration": 0.010416666666666666
            },
            {
              "pitch": 36,
              "velocity": 55,
              "position": 18.583333333333332,
              "duration": 0.010416666666666666
            },
            {
              "pitch": 73,
              "velocity": 32,
              "position": 18.5,
              "duration": 0.16666666666666666
            },
            {
              "pitch": 31,
              "velocity": 30,
              "position": 19,
              "duration": 0.010416666666666666
            },
            {
              "pitch": 64,
              "velocity": 82,
              "position": 19,
              "duration": 0.010416666666666666
            },
            {
              "pitch": 73,
              "velocity": 91,
              "position": 19,
              "duration": 0.1875
            },
            {
              "pitch": 31,
              "velocity": 115,
              "position": 19.489583333333332,
              "duration": 0.010416666666666666
            },
            {
              "pitch": 68,
              "velocity": 35,
              "position": 19.5,
              "duration": 0.010416666666666666
            },
            {
              "pitch": 39,
              "velocity": 108,
              "position": 19.510416666666668,
              "duration": 0.010416666666666666
            },
            {
              "pitch": 73,
              "velocity": 27,
              "position": 19.5,
              "duration": 0.21875
            },
            {
              "pitch": 68,
              "velocity": 85,
              "position": 20,
              "duration": 0.010416666666666666
            },
            {
              "pitch": 73,
              "velocity": 33,
              "position": 19.989583333333332,
              "duration": 0.19791666666666666
            },
            {
              "pitch": 39,
              "velocity": 106,
              "position": 20.46875,
              "duration": 0.010416666666666666
            },
            {
              "pitch": 31,
              "velocity": 79,
              "position": 20.489583333333332,
              "duration": 0.010416666666666666
            },
            {
              "pitch": 38,
              "velocity": 68,
              "position": 20.59375,
              "duration": 0.010416666666666666
            },
            {
              "pitch": 73,
              "velocity": 33,
              "position": 20.5,
              "duration": 0.1875
            },
            {
              "pitch": 29,
              "velocity": 31,
              "position": 21,
              "duration": 0.010416666666666666
            },
            {
              "pitch": 64,
              "velocity": 82,
              "position": 21,
              "duration": 0.010416666666666666
            },
            {
              "pitch": 73,
              "velocity": 84,
              "position": 20.989583333333332,
              "duration": 0.25
            },
            {
              "pitch": 36,
              "velocity": 41,
              "position": 21.395833333333332,
              "duration": 0.010416666666666666
            },
            {
              "pitch": 25,
              "velocity": 41,
              "position": 21.5,
              "duration": 0.010416666666666666
            },
            {
              "pitch": 64,
              "velocity": 67,
              "position": 21.5,
              "duration": 0.010416666666666666
            },
            {
              "pitch": 68,
              "velocity": 37,
              "position": 21.5,
              "duration": 0.010416666666666666
            },
            {
              "pitch": 73,
              "velocity": 34,
              "position": 21.489583333333332,
              "duration": 0.2708333333333333
            },
            {
              "pitch": 39,
              "velocity": 108,
              "position": 21.989583333333332,
              "duration": 0.010416666666666666
            },
            {
              "pitch": 30,
              "velocity": 106,
              "position": 22,
              "duration": 0.010416666666666666
            },
            {
              "pitch": 68,
              "velocity": 85,
              "position": 22,
              "duration": 0.010416666666666666
            },
            {
              "pitch": 38,
              "velocity": 105,
              "position": 22.041666666666668,
              "duration": 0.010416666666666666
            },
            {
              "pitch": 73,
              "velocity": 42,
              "position": 22,
              "duration": 0.1875
            },
            {
              "pitch": 73,
              "velocity": 36,
              "position": 22.5,
              "duration": 0.15625
            },
            {
              "pitch": 36,
              "velocity": 64,
              "position": 22.9375,
              "duration": 0.010416666666666666
            },
            {
              "pitch": 30,
              "velocity": 106,
              "position": 22.989583333333332,
              "duration": 0.010416666666666666
            },
            {
              "pitch": 64,
              "velocity": 103,
              "position": 23,
              "duration": 0.010416666666666666
            },
            {
              "pitch": 73,
              "velocity": 102,
              "position": 23,
              "duration": 0.1875
            },
            {
              "pitch": 25,
              "velocity": 52,
              "position": 23.5,
              "duration": 0.010416666666666666
            },
            {
              "pitch": 54,
              "velocity": 50,
              "position": 23.5,
              "duration": 0.010416666666666666
            },
            {
              "pitch": 68,
              "velocity": 40,
              "position": 23.5,
              "duration": 0.010416666666666666
            },
            {
              "pitch": 73,
              "velocity": 34,
              "position": 23.5,
              "duration": 0.19791666666666666
            },
            {
              "pitch": 54,
              "velocity": 87,
              "position": 23.75,
              "duration": 0.010416666666666666
            },
            {
              "pitch": 39,
              "velocity": 108,
              "position": 23.958333333333332,
              "duration": 0.010416666666666666
            },
            {
              "pitch": 38,
              "velocity": 108,
              "position": 24,
              "duration": 0.010416666666666666
            },
            {
              "pitch": 54,
              "velocity": 104,
              "position": 24,
              "duration": 0.010416666666666666
            },
            {
              "pitch": 73,
              "velocity": 34,
              "position": 24,
              "duration": 0.16666666666666666
            },
            {
              "pitch": 39,
              "velocity": 93,
              "position": 24.5,
              "duration": 0.010416666666666666
            },
            {
              "pitch": 54,
              "velocity": 75,
              "position": 24.5,
              "duration": 0.010416666666666666
            },
            {
              "pitch": 38,
              "velocity": 61,
              "position": 24.552083333333332,
              "duration": 0.010416666666666666
            },
            {
              "pitch": 73,
              "velocity": 27,
              "position": 24.489583333333332,
              "duration": 0.125
            },
            {
              "pitch": 54,
              "velocity": 126,
              "position": 25,
              "duration": 0.010416666666666666
            },
            {
              "pitch": 39,
              "velocity": 108,
              "position": 25.041666666666668,
              "duration": 0.010416666666666666
            },
            {
              "pitch": 38,
              "velocity": 108,
              "position": 25.072916666666668,
              "duration": 0.010416666666666666
            },
            {
              "pitch": 73,
              "velocity": 93,
              "position": 24.989583333333332,
              "duration": 0.1875
            },
            {
              "pitch": 54,
              "velocity": 68,
              "position": 26.5,
              "duration": 0.010416666666666666
            },
            {
              "pitch": 39,
              "velocity": 108,
              "position": 26.541666666666668,
              "duration": 0.010416666666666666
            },
            {
              "pitch": 37,
              "velocity": 75,
              "position": 26.604166666666668,
              "duration": 0.010416666666666666
            },
            {
              "pitch": 38,
              "velocity": 78,
              "position": 26.604166666666668,
              "duration": 0.010416666666666666
            },
            {
              "pitch": 54,
              "velocity": 102,
              "position": 27,
              "duration": 0.010416666666666666
            },
            {
              "pitch": 39,
              "velocity": 105,
              "position": 27.041666666666668,
              "duration": 0.010416666666666666
            },
            {
              "pitch": 38,
              "velocity": 61,
              "position": 27.125,
              "duration": 0.010416666666666666
            },
            {
              "pitch": 54,
              "velocity": 127,
              "position": 27.5,
              "duration": 0.010416666666666666
            },
            {
              "pitch": 39,
              "velocity": 108,
              "position": 27.541666666666668,
              "duration": 0.010416666666666666
            },
            {
              "pitch": 38,
              "velocity": 108,
              "position": 27.583333333333332,
              "duration": 0.010416666666666666
            },
            {
              "pitch": 36,
              "velocity": 89,
              "position": 27.6875,
              "duration": 0.010416666666666666
            }
          ]
        },
        "9": {
          "ctab": {
            "srcChannel": 9,
            "name": "MainD",
            "accType": "RHYTHM",
            "editable": false,
            "mutedNotes": [],
            "mutedChords": [],
            "autoStart": true,
            "sourceChordNote": 0,
            "sourceChordType": "Maj7",
            "ctb2Low": null,
            "ctb2Main": {
              "ntr": "ROOT_FIXED",
              "ntt": "BYPASS",
              "bassOn": false,
              "chordRootUpperLimit": 6,
              "noteLowLimit": 0,
              "noteHighLimit": 127,
              "rtr": "PITCH_SHIFT"
            },
            "ctb2High": null
          },
          "notes": [
            {
              "pitch": 33,
              "velocity": 84,
              "position": 0,
              "duration": 0.010416666666666666
            },
            {
              "pitch": 59,
              "velocity": 51,
              "position": 0,
              "duration": 0.010416666666666666
            },
            {
              "pitch": 59,
              "velocity": 20,
              "position": 0.5,
              "duration": 0.010416666666666666
            },
            {
              "pitch": 44,
              "velocity": 45,
              "position": 1,
              "duration": 0.010416666666666666
            },
            {
              "pitch": 59,
              "velocity": 50,
              "position": 1,
              "duration": 0.010416666666666666
            },
            {
              "pitch": 33,
              "velocity": 42,
              "position": 1.5,
              "duration": 0.010416666666666666
            },
            {
              "pitch": 37,
              "velocity": 68,
              "position": 1.5,
              "duration": 0.010416666666666666
            },
            {
              "pitch": 59,
              "velocity": 20,
              "position": 1.5,
              "duration": 0.010416666666666666
            },
            {
              "pitch": 33,
              "velocity": 84,
              "position": 2,
              "duration": 0.010416666666666666
            },
            {
              "pitch": 59,
              "velocity": 55,
              "position": 2,
              "duration": 0.010416666666666666
            },
            {
              "pitch": 37,
              "velocity": 71,
              "position": 2.5,
              "duration": 0.010416666666666666
            },
            {
              "pitch": 59,
              "velocity": 35,
              "position": 2.5,
              "duration": 0.010416666666666666
            },
            {
              "pitch": 44,
              "velocity": 45,
              "position": 3,
              "duration": 0.010416666666666666
            },
            {
              "pitch": 59,
              "velocity": 20,
              "position": 3,
              "duration": 0.010416666666666666
            },
            {
              "pitch": 33,
              "velocity": 42,
              "position": 3.5,
              "duration": 0.010416666666666666
            },
            {
              "pitch": 59,
              "velocity": 54,
              "position": 3.5,
              "duration": 0.010416666666666666
            },
            {
              "pitch": 33,
              "velocity": 84,
              "position": 4,
              "duration": 0.010416666666666666
            },
            {
              "pitch": 59,
              "velocity": 20,
              "position": 4,
              "duration": 0.010416666666666666
            },
            {
              "pitch": 37,
              "velocity": 67,
              "position": 4.5,
              "duration": 0.010416666666666666
            },
            {
              "pitch": 59,
              "velocity": 60,
              "position": 4.5,
              "duration": 0.010416666666666666
            },
            {
              "pitch": 44,
              "velocity": 45,
              "position": 5,
              "duration": 0.010416666666666666
            },
            {
              "pitch": 59,
              "velocity": 20,
              "position": 5,
              "duration": 0.010416666666666666
            },
            {
              "pitch": 33,
              "velocity": 42,
              "position": 5.5,
              "duration": 0.010416666666666666
            },
            {
              "pitch": 59,
              "velocity": 36,
              "position": 5.5,
              "duration": 0.010416666666666666
            },
            {
              "pitch": 33,
              "velocity": 75,
              "position": 6,
              "duration": 0.010416666666666666
            },
            {
              "pitch": 37,
              "velocity": 72,
              "position": 6,
              "duration": 0.010416666666666666
            },
            {
              "pitch": 59,
              "velocity": 55,
              "position": 6,
              "duration": 0.010416666666666666
            },
            {
              "pitch": 59,
              "velocity": 20,
              "position": 6.5,
              "duration": 0.010416666666666666
            },
            {
              "pitch": 37,
              "velocity": 67,
              "position": 7,
              "duration": 0.010416666666666666
            },
            {
              "pitch": 44,
              "velocity": 45,
              "position": 7,
              "duration": 0.010416666666666666
            },
            {
              "pitch": 59,
              "velocity": 57,
              "position": 7,
              "duration": 0.010416666666666666
            },
            {
              "pitch": 33,
              "velocity": 42,
              "position": 7.5,
              "duration": 0.010416666666666666
            },
            {
              "pitch": 59,
              "velocity": 20,
              "position": 7.5,
              "duration": 0.010416666666666666
            },
            {
              "pitch": 33,
              "velocity": 84,
              "position": 8,
              "duration": 0.010416666666666666
            },
            {
              "pitch": 59,
              "velocity": 51,
              "position": 8,
              "duration": 0.010416666666666666
            },
            {
              "pitch": 59,
              "velocity": 20,
              "position": 8.5,
              "duration": 0.010416666666666666
            },
            {
              "pitch": 44,
              "velocity": 45,
              "position": 9,
              "duration": 0.010416666666666666
            },
            {
              "pitch": 59,
              "velocity": 50,
              "position": 9,
              "duration": 0.010416666666666666
            },
            {
              "pitch": 33,
              "velocity": 42,
              "position": 9.5,
              "duration": 0.010416666666666666
            },
            {
              "pitch": 37,
              "velocity": 65,
              "position": 9.5,
              "duration": 0.010416666666666666
            },
            {
              "pitch": 59,
              "velocity": 20,
              "position": 9.5,
              "duration": 0.010416666666666666
            },
            {
              "pitch": 33,
              "velocity": 84,
              "position": 10,
              "duration": 0.010416666666666666
            },
            {
              "pitch": 59,
              "velocity": 55,
              "position": 10,
              "duration": 0.010416666666666666
            },
            {
              "pitch": 37,
              "velocity": 59,
              "position": 10.5,
              "duration": 0.010416666666666666
            },
            {
              "pitch": 59,
              "velocity": 35,
              "position": 10.5,
              "duration": 0.010416666666666666
            },
            {
              "pitch": 44,
              "velocity": 45,
              "position": 11,
              "duration": 0.010416666666666666
            },
            {
              "pitch": 59,
              "velocity": 20,
              "position": 11,
              "duration": 0.010416666666666666
            },
            {
              "pitch": 33,
              "velocity": 42,
              "position": 11.5,
              "duration": 0.010416666666666666
            },
            {
              "pitch": 59,
              "velocity": 54,
              "position": 11.5,
              "duration": 0.010416666666666666
            },
            {
              "pitch": 33,
              "velocity": 84,
              "position": 12,
              "duration": 0.010416666666666666
            },
            {
              "pitch": 59,
              "velocity": 20,
              "position": 12,
              "duration": 0.010416666666666666
            },
            {
              "pitch": 37,
              "velocity": 66,
              "position": 12.5,
              "duration": 0.010416666666666666
            },
            {
              "pitch": 59,
              "velocity": 60,
              "position": 12.5,
              "duration": 0.010416666666666666
            },
            {
              "pitch": 44,
              "velocity": 45,
              "position": 13,
              "duration": 0.010416666666666666
            },
            {
              "pitch": 59,
              "velocity": 20,
              "position": 13,
              "duration": 0.010416666666666666
            },
            {
              "pitch": 33,
              "velocity": 42,
              "position": 13.5,
              "duration": 0.010416666666666666
            },
            {
              "pitch": 59,
              "velocity": 36,
              "position": 13.5,
              "duration": 0.010416666666666666
            },
            {
              "pitch": 33,
              "velocity": 75,
              "position": 14,
              "duration": 0.010416666666666666
            },
            {
              "pitch": 37,
              "velocity": 68,
              "position": 14,
              "duration": 0.010416666666666666
            },
            {
              "pitch": 59,
              "velocity": 55,
              "position": 14,
              "duration": 0.010416666666666666
            },
            {
              "pitch": 59,
              "velocity": 20,
              "position": 14.5,
              "duration": 0.010416666666666666
            },
            {
              "pitch": 37,
              "velocity": 70,
              "position": 15,
              "duration": 0.010416666666666666
            },
            {
              "pitch": 44,
              "velocity": 45,
              "position": 15,
              "duration": 0.010416666666666666
            },
            {
              "pitch": 59,
              "velocity": 57,
              "position": 15,
              "duration": 0.010416666666666666
            },
            {
              "pitch": 33,
              "velocity": 42,
              "position": 15.5,
              "duration": 0.010416666666666666
            },
            {
              "pitch": 59,
              "velocity": 20,
              "position": 15.5,
              "duration": 0.010416666666666666
            },
            {
              "pitch": 33,
              "velocity": 84,
              "position": 16,
              "duration": 0.010416666666666666
            },
            {
              "pitch": 59,
              "velocity": 51,
              "position": 16,
              "duration": 0.010416666666666666
            },
            {
              "pitch": 59,
              "velocity": 20,
              "position": 16.5,
              "duration": 0.010416666666666666
            },
            {
              "pitch": 44,
              "velocity": 45,
              "position": 17,
              "duration": 0.010416666666666666
            },
            {
              "pitch": 59,
              "velocity": 50,
              "position": 17,
              "duration": 0.010416666666666666
            },
            {
              "pitch": 33,
              "velocity": 42,
              "position": 17.5,
              "duration": 0.010416666666666666
            },
            {
              "pitch": 37,
              "velocity": 68,
              "position": 17.5,
              "duration": 0.010416666666666666
            },
            {
              "pitch": 59,
              "velocity": 20,
              "position": 17.5,
              "duration": 0.010416666666666666
            },
            {
              "pitch": 33,
              "velocity": 84,
              "position": 18,
              "duration": 0.010416666666666666
            },
            {
              "pitch": 59,
              "velocity": 55,
              "position": 18,
              "duration": 0.010416666666666666
            },
            {
              "pitch": 37,
              "velocity": 71,
              "position": 18.5,
              "duration": 0.010416666666666666
            },
            {
              "pitch": 59,
              "velocity": 35,
              "position": 18.5,
              "duration": 0.010416666666666666
            },
            {
              "pitch": 44,
              "velocity": 45,
              "position": 19,
              "duration": 0.010416666666666666
            },
            {
              "pitch": 59,
              "velocity": 20,
              "position": 19,
              "duration": 0.010416666666666666
            },
            {
              "pitch": 33,
              "velocity": 42,
              "position": 19.5,
              "duration": 0.010416666666666666
            },
            {
              "pitch": 59,
              "velocity": 54,
              "position": 19.5,
              "duration": 0.010416666666666666
            },
            {
              "pitch": 33,
              "velocity": 84,
              "position": 20,
              "duration": 0.010416666666666666
            },
            {
              "pitch": 59,
              "velocity": 20,
              "position": 20,
              "duration": 0.010416666666666666
            },
            {
              "pitch": 37,
              "velocity": 67,
              "position": 20.5,
              "duration": 0.010416666666666666
            },
            {
              "pitch": 59,
              "velocity": 60,
              "position": 20.5,
              "duration": 0.010416666666666666
            },
            {
              "pitch": 44,
              "velocity": 45,
              "position": 21,
              "duration": 0.010416666666666666
            },
            {
              "pitch": 59,
              "velocity": 20,
              "position": 21,
              "duration": 0.010416666666666666
            },
            {
              "pitch": 33,
              "velocity": 42,
              "position": 21.5,
              "duration": 0.010416666666666666
            },
            {
              "pitch": 59,
              "velocity": 36,
              "position": 21.5,
              "duration": 0.010416666666666666
            },
            {
              "pitch": 33,
              "velocity": 75,
              "position": 22,
              "duration": 0.010416666666666666
            },
            {
              "pitch": 37,
              "velocity": 72,
              "position": 22,
              "duration": 0.010416666666666666
            },
            {
              "pitch": 59,
              "velocity": 55,
              "position": 22,
              "duration": 0.010416666666666666
            },
            {
              "pitch": 59,
              "velocity": 20,
              "position": 22.5,
              "duration": 0.010416666666666666
            },
            {
              "pitch": 37,
              "velocity": 67,
              "position": 23,
              "duration": 0.010416666666666666
            },
            {
              "pitch": 44,
              "velocity": 45,
              "position": 23,
              "duration": 0.010416666666666666
            },
            {
              "pitch": 59,
              "velocity": 57,
              "position": 23,
              "duration": 0.010416666666666666
            },
            {
              "pitch": 33,
              "velocity": 42,
              "position": 23.5,
              "duration": 0.010416666666666666
            },
            {
              "pitch": 59,
              "velocity": 20,
              "position": 23.5,
              "duration": 0.010416666666666666
            },
            {
              "pitch": 33,
              "velocity": 84,
              "position": 24,
              "duration": 0.010416666666666666
            },
            {
              "pitch": 46,
              "velocity": 59,
              "position": 24,
              "duration": 0.010416666666666666
            },
            {
              "pitch": 59,
              "velocity": 51,
              "position": 24,
              "duration": 0.010416666666666666
            },
            {
              "pitch": 33,
              "velocity": 84,
              "position": 25,
              "duration": 0.010416666666666666
            },
            {
              "pitch": 44,
              "velocity": 45,
              "position": 25,
              "duration": 0.010416666666666666
            },
            {
              "pitch": 33,
              "velocity": 84,
              "position": 27.5,
              "duration": 0.010416666666666666
            },
            {
              "pitch": 59,
              "velocity": 61,
              "position": 27.5,
              "duration": 0.010416666666666666
            }
          ]
        },
        "10": {
          "ctab": {
            "srcChannel": 10,
            "name": "Bass",
            "accType": "BASS",
            "editable": false,
            "mutedNotes": [],
            "mutedChords": [
              "dim7",
              "dim",
              "minMaj7(9)",
              "minMaj7",
              "min7(11)",
              "min7(9)",
              "min(9)",
              "m7b5",
              "min7",
              "min6",
              "min"
            ],
            "autoStart": false,
            "sourceChordNote": 0,
            "sourceChordType": "Maj",
            "ctb2Low": null,
            "ctb2Main": {
              "ntr": "ROOT_TRANSPOSITION",
              "ntt": "BYPASS",
              "bassOn": false,
              "chordRootUpperLimit": 3,
              "noteLowLimit": 28,
              "noteHighLimit": 127,
              "rtr": "PITCH_SHIFT"
            },
            "ctb2High": null
          },
          "notes": [
            {
              "pitch": 36,
              "velocity": 98,
              "position": 0,
              "duration": 1.0416666666666667
            },
            {
              "pitch": 36,
              "velocity": 77,
              "position": 1.5,
              "duration": 0.2916666666666667
            },
            {
              "pitch": 31,
              "velocity": 83,
              "position": 2,
              "duration": 1.1145833333333333
            },
            {
              "pitch": 31,
              "velocity": 77,
              "position": 3.5,
              "duration": 0.3645833333333333
            },
            {
              "pitch": 37,
              "velocity": 98,
              "position": 4,
              "duration": 1.1354166666666667
            },
            {
              "pitch": 37,
              "velocity": 87,
              "position": 5.5,
              "duration": 0.4895833333333333
            },
            {
              "pitch": 37,
              "velocity": 91,
              "position": 6,
              "duration": 0.9166666666666666
            },
            {
              "pitch": 37,
              "velocity": 76,
              "position": 7,
              "duration": 0.4895833333333333
            },
            {
              "pitch": 37,
              "velocity": 68,
              "position": 7.5,
              "duration": 0.3958333333333333
            },
            {
              "pitch": 36,
              "velocity": 98,
              "position": 8,
              "duration": 1.0833333333333333
            },
            {
              "pitch": 36,
              "velocity": 77,
              "position": 9.5,
              "duration": 0.2708333333333333
            },
            {
              "pitch": 31,
              "velocity": 75,
              "position": 10,
              "duration": 1.0833333333333333
            },
            {
              "pitch": 31,
              "velocity": 75,
              "position": 11.5,
              "duration": 0.2916666666666667
            },
            {
              "pitch": 37,
              "velocity": 91,
              "position": 12,
              "duration": 1.1354166666666667
            },
            {
              "pitch": 37,
              "velocity": 81,
              "position": 13.5,
              "duration": 0.4270833333333333
            },
            {
              "pitch": 37,
              "velocity": 89,
              "position": 14,
              "duration": 0.9895833333333334
            },
            {
              "pitch": 37,
              "velocity": 81,
              "position": 15,
              "duration": 0.4895833333333333
            },
            {
              "pitch": 37,
              "velocity": 82,
              "position": 15.5,
              "duration": 0.4583333333333333
            },
            {
              "pitch": 36,
              "velocity": 98,
              "position": 16,
              "duration": 1.0520833333333333
            },
            {
              "pitch": 36,
              "velocity": 89,
              "position": 17.5,
              "duration": 0.3541666666666667
            },
            {
              "pitch": 31,
              "velocity": 98,
              "position": 18,
              "duration": 1.1770833333333333
            },
            {
              "pitch": 31,
              "velocity": 77,
              "position": 19.5,
              "duration": 0.2916666666666667
            },
            {
              "pitch": 37,
              "velocity": 98,
              "position": 20,
              "duration": 1.1041666666666667
            },
            {
              "pitch": 37,
              "velocity": 98,
              "position": 21.5,
              "duration": 0.3958333333333333
            },
            {
              "pitch": 37,
              "velocity": 98,
              "position": 22,
              "duration": 0.9895833333333334
            },
            {
              "pitch": 37,
              "velocity": 77,
              "position": 23,
              "duration": 0.4895833333333333
            },
            {
              "pitch": 31,
              "velocity": 77,
              "position": 23.5,
              "duration": 0.4895833333333333
            },
            {
              "pitch": 36,
              "velocity": 98,
              "position": 24,
              "duration": 0.28125
            },
            {
              "pitch": 36,
              "velocity": 98,
              "position": 24.5,
              "duration": 0.22916666666666666
            },
            {
              "pitch": 36,
              "velocity": 98,
              "position": 25,
              "duration": 0.375
            },
            {
              "pitch": 36,
              "velocity": 98,
              "position": 26.5,
              "duration": 0.2708333333333333
            },
            {
              "pitch": 36,
              "velocity": 98,
              "position": 27,
              "duration": 0.25
            },
            {
              "pitch": 36,
              "velocity": 98,
              "position": 27.5,
              "duration": 0.4166666666666667
            }
          ]
        },
        "11": {
          "ctab": {
            "srcChannel": 11,
            "name": "NylonGtr",
            "accType": "CHORD1",
            "editable": false,
            "mutedNotes": [],
            "mutedChords": [
              "dim7",
              "dim",
              "minMaj7(9)",
              "minMaj7",
              "min7(11)",
              "min7(9)",
              "min(9)",
              "m7b5",
              "min7",
              "min6",
              "min"
            ],
            "autoStart": false,
            "sourceChordNote": 0,
            "sourceChordType": "Maj",
            "ctb2Low": null,
            "ctb2Main": {
              "ntr": "ROOT_TRANSPOSITION",
              "ntt": "BYPASS",
              "bassOn": false,
              "chordRootUpperLimit": 5,
              "noteLowLimit": 40,
              "noteHighLimit": 127,
              "rtr": "PITCH_SHIFT"
            },
            "ctb2High": null
          },
          "notes": [
            {
              "pitch": 67,
              "velocity": 116,
              "position": 0,
              "duration": 2.4791666666666665
            },
            {
              "pitch": 62,
              "velocity": 90,
              "position": 2,
              "duration": 0.65625
            },
            {
              "pitch": 59,
              "velocity": 102,
              "position": 1.5,
              "duration": 1.1875
            },
            {
              "pitch": 64,
              "velocity": 77,
              "position": 2.5,
              "duration": 0.5833333333333334
            },
            {
              "pitch": 67,
              "velocity": 77,
              "position": 3,
              "duration": 0.17708333333333334
            },
            {
              "pitch": 59,
              "velocity": 66,
              "position": 3.5,
              "duration": 0.052083333333333336
            },
            {
              "pitch": 68,
              "velocity": 127,
              "position": 3.5,
              "duration": 1.7708333333333333
            },
            {
              "pitch": 63,
              "velocity": 70,
              "position": 5,
              "duration": 0.3333333333333333
            },
            {
              "pitch": 68,
              "velocity": 127,
              "position": 5.5,
              "duration": 1.6041666666666667
            },
            {
              "pitch": 70,
              "velocity": 104,
              "position": 7,
              "duration": 0.5729166666666666
            },
            {
              "pitch": 59,
              "velocity": 78,
              "position": 4.5,
              "duration": 4.041666666666667
            },
            {
              "pitch": 62,
              "velocity": 94,
              "position": 8,
              "duration": 0.9895833333333334
            },
            {
              "pitch": 64,
              "velocity": 97,
              "position": 8,
              "duration": 0.9895833333333334
            },
            {
              "pitch": 67,
              "velocity": 102,
              "position": 8,
              "duration": 0.9895833333333334
            },
            {
              "pitch": 59,
              "velocity": 77,
              "position": 9,
              "duration": 0.19791666666666666
            },
            {
              "pitch": 64,
              "velocity": 90,
              "position": 9,
              "duration": 0.4479166666666667
            },
            {
              "pitch": 62,
              "velocity": 82,
              "position": 9,
              "duration": 0.4791666666666667
            },
            {
              "pitch": 67,
              "velocity": 90,
              "position": 9,
              "duration": 0.4895833333333333
            },
            {
              "pitch": 59,
              "velocity": 77,
              "position": 9.5,
              "duration": 0.010416666666666666
            },
            {
              "pitch": 62,
              "velocity": 77,
              "position": 9.5,
              "duration": 0.010416666666666666
            },
            {
              "pitch": 64,
              "velocity": 77,
              "position": 9.5,
              "duration": 0.010416666666666666
            },
            {
              "pitch": 67,
              "velocity": 77,
              "position": 9.5,
              "duration": 0.010416666666666666
            },
            {
              "pitch": 67,
              "velocity": 87,
              "position": 10.5,
              "duration": 0.23958333333333334
            },
            {
              "pitch": 64,
              "velocity": 82,
              "position": 10.5,
              "duration": 0.2708333333333333
            },
            {
              "pitch": 62,
              "velocity": 87,
              "position": 10.5,
              "duration": 0.3125
            },
            {
              "pitch": 59,
              "velocity": 50,
              "position": 10,
              "duration": 1.1875
            },
            {
              "pitch": 63,
              "velocity": 77,
              "position": 13,
              "duration": 0.3854166666666667
            },
            {
              "pitch": 68,
              "velocity": 108,
              "position": 11.5,
              "duration": 1.9895833333333333
            },
            {
              "pitch": 68,
              "velocity": 120,
              "position": 13.5,
              "duration": 1.4895833333333333
            },
            {
              "pitch": 70,
              "velocity": 100,
              "position": 15,
              "duration": 0.6041666666666666
            },
            {
              "pitch": 59,
              "velocity": 69,
              "position": 12.5,
              "duration": 3.3645833333333335
            },
            {
              "pitch": 59,
              "velocity": 85,
              "position": 16,
              "duration": 0.4895833333333333
            },
            {
              "pitch": 62,
              "velocity": 87,
              "position": 16,
              "duration": 0.4895833333333333
            },
            {
              "pitch": 64,
              "velocity": 97,
              "position": 16,
              "duration": 0.4895833333333333
            },
            {
              "pitch": 67,
              "velocity": 87,
              "position": 16,
              "duration": 0.4895833333333333
            },
            {
              "pitch": 59,
              "velocity": 75,
              "position": 16.5,
              "duration": 0.4895833333333333
            },
            {
              "pitch": 62,
              "velocity": 75,
              "position": 16.5,
              "duration": 0.4895833333333333
            },
            {
              "pitch": 64,
              "velocity": 73,
              "position": 16.5,
              "duration": 0.4895833333333333
            },
            {
              "pitch": 67,
              "velocity": 76,
              "position": 16.5,
              "duration": 0.4895833333333333
            },
            {
              "pitch": 59,
              "velocity": 100,
              "position": 17,
              "duration": 0.3958333333333333
            },
            {
              "pitch": 62,
              "velocity": 100,
              "position": 17,
              "duration": 0.3958333333333333
            },
            {
              "pitch": 64,
              "velocity": 108,
              "position": 17,
              "duration": 0.3958333333333333
            },
            {
              "pitch": 67,
              "velocity": 108,
              "position": 17,
              "duration": 0.4583333333333333
            },
            {
              "pitch": 64,
              "velocity": 90,
              "position": 18.5,
              "duration": 0.3020833333333333
            },
            {
              "pitch": 62,
              "velocity": 91,
              "position": 18.5,
              "duration": 0.3958333333333333
            },
            {
              "pitch": 67,
              "velocity": 99,
              "position": 18.5,
              "duration": 0.4375
            },
            {
              "pitch": 59,
              "velocity": 97,
              "position": 18.5,
              "duration": 0.7291666666666666
            },
            {
              "pitch": 68,
              "velocity": 106,
              "position": 19.5,
              "duration": 1.4895833333333333
            },
            {
              "pitch": 63,
              "velocity": 73,
              "position": 21,
              "duration": 0.4895833333333333
            },
            {
              "pitch": 68,
              "velocity": 127,
              "position": 21.5,
              "duration": 1.4895833333333333
            },
            {
              "pitch": 70,
              "velocity": 106,
              "position": 23,
              "duration": 0.7083333333333334
            },
            {
              "pitch": 59,
              "velocity": 83,
              "position": 20.5,
              "duration": 3.4895833333333335
            },
            {
              "pitch": 59,
              "velocity": 85,
              "position": 24,
              "duration": 0.4895833333333333
            },
            {
              "pitch": 62,
              "velocity": 90,
              "position": 24,
              "duration": 0.4895833333333333
            },
            {
              "pitch": 64,
              "velocity": 87,
              "position": 24,
              "duration": 0.4895833333333333
            },
            {
              "pitch": 67,
              "velocity": 87,
              "position": 24,
              "duration": 0.4895833333333333
            },
            {
              "pitch": 59,
              "velocity": 70,
              "position": 24.5,
              "duration": 0.4895833333333333
            },
            {
              "pitch": 62,
              "velocity": 76,
              "position": 24.5,
              "duration": 0.4895833333333333
            },
            {
              "pitch": 64,
              "velocity": 71,
              "position": 24.5,
              "duration": 0.4895833333333333
            },
            {
              "pitch": 67,
              "velocity": 73,
              "position": 24.5,
              "duration": 0.4895833333333333
            },
            {
              "pitch": 64,
              "velocity": 112,
              "position": 25,
              "duration": 0.375
            },
            {
              "pitch": 62,
              "velocity": 116,
              "position": 25,
              "duration": 0.3958333333333333
            },
            {
              "pitch": 59,
              "velocity": 112,
              "position": 25,
              "duration": 0.4479166666666667
            },
            {
              "pitch": 67,
              "velocity": 112,
              "position": 25,
              "duration": 0.6041666666666666
            },
            {
              "pitch": 59,
              "velocity": 90,
              "position": 26.5,
              "duration": 0.4895833333333333
            },
            {
              "pitch": 62,
              "velocity": 99,
              "position": 26.5,
              "duration": 0.4895833333333333
            },
            {
              "pitch": 64,
              "velocity": 97,
              "position": 26.5,
              "duration": 0.4895833333333333
            },
            {
              "pitch": 67,
              "velocity": 102,
              "position": 26.5,
              "duration": 0.4895833333333333
            },
            {
              "pitch": 59,
              "velocity": 73,
              "position": 27,
              "duration": 0.4895833333333333
            },
            {
              "pitch": 62,
              "velocity": 73,
              "position": 27,
              "duration": 0.4895833333333333
            },
            {
              "pitch": 64,
              "velocity": 73,
              "position": 27,
              "duration": 0.4895833333333333
            },
            {
              "pitch": 67,
              "velocity": 74,
              "position": 27,
              "duration": 0.4895833333333333
            },
            {
              "pitch": 59,
              "velocity": 116,
              "position": 27.5,
              "duration": 0.4895833333333333
            },
            {
              "pitch": 62,
              "velocity": 127,
              "position": 27.5,
              "duration": 0.4895833333333333
            },
            {
              "pitch": 64,
              "velocity": 116,
              "position": 27.5,
              "duration": 0.4895833333333333
            },
            {
              "pitch": 67,
              "velocity": 104,
              "position": 27.5,
              "duration": 0.4895833333333333
            }
          ]
        },
        "12": {
          "ctab": {
            "srcChannel": 12,
            "name": "Piano",
            "accType": "CHORD2",
            "editable": false,
            "mutedNotes": [],
            "mutedChords": [
              "dim7",
              "dim",
              "minMaj7(9)",
              "minMaj7",
              "min7(11)",
              "min7(9)",
              "min(9)",
              "m7b5",
              "min7",
              "min6",
              "min"
            ],
            "autoStart": false,
            "sourceChordNote": 0,
            "sourceChordType": "Maj",
            "ctb2Low": null,
            "ctb2Main": {
              "ntr": "ROOT_TRANSPOSITION",
              "ntt": "BYPASS",
              "bassOn": false,
              "chordRootUpperLimit": 5,
              "noteLowLimit": 0,
              "noteHighLimit": 79,
              "rtr": "PITCH_SHIFT"
            },
            "ctb2High": null
          },
          "notes": [
            {
              "pitch": 62,
              "velocity": 79,
              "position": 0,
              "duration": 0.25
            },
            {
              "pitch": 59,
              "velocity": 81,
              "position": 0,
              "duration": 0.2916666666666667
            },
            {
              "pitch": 67,
              "velocity": 75,
              "position": 0,
              "duration": 0.4583333333333333
            },
            {
              "pitch": 64,
              "velocity": 81,
              "position": 0,
              "duration": 0.5416666666666666
            },
            {
              "pitch": 59,
              "velocity": 59,
              "position": 1,
              "duration": 0.28125
            },
            {
              "pitch": 62,
              "velocity": 69,
              "position": 1,
              "duration": 0.3541666666666667
            },
            {
              "pitch": 64,
              "velocity": 73,
              "position": 1,
              "duration": 0.375
            },
            {
              "pitch": 67,
              "velocity": 75,
              "position": 1,
              "duration": 0.4270833333333333
            },
            {
              "pitch": 59,
              "velocity": 61,
              "position": 1.5,
              "duration": 0.3333333333333333
            },
            {
              "pitch": 64,
              "velocity": 77,
              "position": 2.5,
              "duration": 0.28125
            },
            {
              "pitch": 62,
              "velocity": 75,
              "position": 2.5,
              "duration": 0.3229166666666667
            },
            {
              "pitch": 67,
              "velocity": 75,
              "position": 2.5,
              "duration": 0.3541666666666667
            },
            {
              "pitch": 59,
              "velocity": 79,
              "position": 2.5,
              "duration": 0.46875
            },
            {
              "pitch": 59,
              "velocity": 69,
              "position": 3.5,
              "duration": 0.4583333333333333
            },
            {
              "pitch": 63,
              "velocity": 71,
              "position": 3.5,
              "duration": 0.4895833333333333
            },
            {
              "pitch": 68,
              "velocity": 88,
              "position": 3.5,
              "duration": 0.5104166666666666
            },
            {
              "pitch": 59,
              "velocity": 67,
              "position": 4.5,
              "duration": 0.1875
            },
            {
              "pitch": 63,
              "velocity": 85,
              "position": 4.5,
              "duration": 0.3020833333333333
            },
            {
              "pitch": 68,
              "velocity": 85,
              "position": 4.5,
              "duration": 0.34375
            },
            {
              "pitch": 59,
              "velocity": 53,
              "position": 5,
              "duration": 0.34375
            },
            {
              "pitch": 63,
              "velocity": 43,
              "position": 5.5,
              "duration": 0.16666666666666666
            },
            {
              "pitch": 68,
              "velocity": 91,
              "position": 6,
              "duration": 0.8645833333333334
            },
            {
              "pitch": 59,
              "velocity": 79,
              "position": 6,
              "duration": 1.1458333333333333
            },
            {
              "pitch": 63,
              "velocity": 94,
              "position": 6,
              "duration": 1.3020833333333333
            },
            {
              "pitch": 70,
              "velocity": 85,
              "position": 7,
              "duration": 0.4375
            },
            {
              "pitch": 59,
              "velocity": 57,
              "position": 7.5,
              "duration": 0.3229166666666667
            },
            {
              "pitch": 62,
              "velocity": 81,
              "position": 8,
              "duration": 0.3333333333333333
            },
            {
              "pitch": 64,
              "velocity": 75,
              "position": 8,
              "duration": 0.3645833333333333
            },
            {
              "pitch": 59,
              "velocity": 79,
              "position": 8,
              "duration": 0.3958333333333333
            },
            {
              "pitch": 67,
              "velocity": 84,
              "position": 8,
              "duration": 0.4166666666666667
            },
            {
              "pitch": 59,
              "velocity": 75,
              "position": 9,
              "duration": 0.19791666666666666
            },
            {
              "pitch": 62,
              "velocity": 85,
              "position": 9,
              "duration": 0.3125
            },
            {
              "pitch": 64,
              "velocity": 91,
              "position": 9,
              "duration": 0.3541666666666667
            },
            {
              "pitch": 67,
              "velocity": 85,
              "position": 9,
              "duration": 0.3541666666666667
            },
            {
              "pitch": 59,
              "velocity": 55,
              "position": 9.5,
              "duration": 0.25
            },
            {
              "pitch": 64,
              "velocity": 70,
              "position": 10.5,
              "duration": 0.2604166666666667
            },
            {
              "pitch": 67,
              "velocity": 79,
              "position": 10.5,
              "duration": 0.2708333333333333
            },
            {
              "pitch": 62,
              "velocity": 73,
              "position": 10.5,
              "duration": 0.2916666666666667
            },
            {
              "pitch": 59,
              "velocity": 77,
              "position": 10.5,
              "duration": 0.3125
            },
            {
              "pitch": 63,
              "velocity": 88,
              "position": 11.5,
              "duration": 0.3541666666666667
            },
            {
              "pitch": 68,
              "velocity": 77,
              "position": 11.5,
              "duration": 0.4166666666666667
            },
            {
              "pitch": 59,
              "velocity": 70,
              "position": 11.5,
              "duration": 0.4791666666666667
            },
            {
              "pitch": 63,
              "velocity": 85,
              "position": 12.5,
              "duration": 0.3020833333333333
            },
            {
              "pitch": 59,
              "velocity": 71,
              "position": 12.5,
              "duration": 0.3125
            },
            {
              "pitch": 68,
              "velocity": 91,
              "position": 12.5,
              "duration": 0.375
            },
            {
              "pitch": 59,
              "velocity": 36,
              "position": 13,
              "duration": 0.3541666666666667
            },
            {
              "pitch": 59,
              "velocity": 85,
              "position": 14,
              "duration": 0.8125
            },
            {
              "pitch": 68,
              "velocity": 86,
              "position": 14,
              "duration": 0.8229166666666666
            },
            {
              "pitch": 59,
              "velocity": 38,
              "position": 15,
              "duration": 0.0625
            },
            {
              "pitch": 70,
              "velocity": 82,
              "position": 15,
              "duration": 0.34375
            },
            {
              "pitch": 63,
              "velocity": 95,
              "position": 14,
              "duration": 1.5
            },
            {
              "pitch": 59,
              "velocity": 59,
              "position": 15.25,
              "duration": 0.3541666666666667
            },
            {
              "pitch": 59,
              "velocity": 72,
              "position": 16,
              "duration": 0.4895833333333333
            },
            {
              "pitch": 62,
              "velocity": 76,
              "position": 16,
              "duration": 0.4895833333333333
            },
            {
              "pitch": 64,
              "velocity": 76,
              "position": 16,
              "duration": 0.4895833333333333
            },
            {
              "pitch": 67,
              "velocity": 76,
              "position": 16,
              "duration": 0.4895833333333333
            },
            {
              "pitch": 59,
              "velocity": 63,
              "position": 16.5,
              "duration": 0.4895833333333333
            },
            {
              "pitch": 62,
              "velocity": 63,
              "position": 16.5,
              "duration": 0.4895833333333333
            },
            {
              "pitch": 64,
              "velocity": 60,
              "position": 16.5,
              "duration": 0.4895833333333333
            },
            {
              "pitch": 67,
              "velocity": 55,
              "position": 16.5,
              "duration": 0.4895833333333333
            },
            {
              "pitch": 64,
              "velocity": 76,
              "position": 17,
              "duration": 0.3333333333333333
            },
            {
              "pitch": 62,
              "velocity": 84,
              "position": 17,
              "duration": 0.34375
            },
            {
              "pitch": 59,
              "velocity": 74,
              "position": 17,
              "duration": 0.4375
            },
            {
              "pitch": 67,
              "velocity": 84,
              "position": 17,
              "duration": 0.4375
            },
            {
              "pitch": 59,
              "velocity": 72,
              "position": 18.5,
              "duration": 0.2916666666666667
            },
            {
              "pitch": 64,
              "velocity": 70,
              "position": 18.5,
              "duration": 0.3229166666666667
            },
            {
              "pitch": 67,
              "velocity": 76,
              "position": 18.5,
              "duration": 0.3229166666666667
            },
            {
              "pitch": 62,
              "velocity": 74,
              "position": 18.5,
              "duration": 0.3541666666666667
            },
            {
              "pitch": 59,
              "velocity": 37,
              "position": 19,
              "duration": 0.2916666666666667
            },
            {
              "pitch": 63,
              "velocity": 83,
              "position": 19.5,
              "duration": 0.46875
            },
            {
              "pitch": 59,
              "velocity": 74,
              "position": 19.5,
              "duration": 0.5625
            },
            {
              "pitch": 68,
              "velocity": 84,
              "position": 19.5,
              "duration": 0.6354166666666666
            },
            {
              "pitch": 63,
              "velocity": 87,
              "position": 20.5,
              "duration": 0.3125
            },
            {
              "pitch": 59,
              "velocity": 72,
              "position": 20.5,
              "duration": 0.3645833333333333
            },
            {
              "pitch": 68,
              "velocity": 90,
              "position": 20.5,
              "duration": 0.3645833333333333
            },
            {
              "pitch": 68,
              "velocity": 93,
              "position": 22,
              "duration": 1.0729166666666667
            },
            {
              "pitch": 63,
              "velocity": 99,
              "position": 22,
              "duration": 1.2708333333333333
            },
            {
              "pitch": 70,
              "velocity": 84,
              "position": 23,
              "duration": 0.3958333333333333
            },
            {
              "pitch": 59,
              "velocity": 90,
              "position": 22,
              "duration": 1.4895833333333333
            },
            {
              "pitch": 67,
              "velocity": 84,
              "position": 24,
              "duration": 0.3333333333333333
            },
            {
              "pitch": 59,
              "velocity": 84,
              "position": 24,
              "duration": 0.3854166666666667
            },
            {
              "pitch": 62,
              "velocity": 84,
              "position": 24,
              "duration": 0.3854166666666667
            },
            {
              "pitch": 64,
              "velocity": 84,
              "position": 24,
              "duration": 0.3958333333333333
            },
            {
              "pitch": 67,
              "velocity": 72,
              "position": 24.5,
              "duration": 0.13541666666666666
            },
            {
              "pitch": 59,
              "velocity": 63,
              "position": 24.5,
              "duration": 0.2604166666666667
            },
            {
              "pitch": 62,
              "velocity": 63,
              "position": 24.5,
              "duration": 0.2604166666666667
            },
            {
              "pitch": 64,
              "velocity": 60,
              "position": 24.5,
              "duration": 0.2916666666666667
            },
            {
              "pitch": 67,
              "velocity": 81,
              "position": 25,
              "duration": 0.3645833333333333
            },
            {
              "pitch": 64,
              "velocity": 83,
              "position": 25,
              "duration": 0.375
            },
            {
              "pitch": 59,
              "velocity": 84,
              "position": 25,
              "duration": 0.3854166666666667
            },
            {
              "pitch": 62,
              "velocity": 84,
              "position": 25,
              "duration": 0.3854166666666667
            },
            {
              "pitch": 59,
              "velocity": 83,
              "position": 26.5,
              "duration": 0.34375
            },
            {
              "pitch": 62,
              "velocity": 83,
              "position": 26.5,
              "duration": 0.34375
            },
            {
              "pitch": 64,
              "velocity": 78,
              "position": 26.5,
              "duration": 0.34375
            },
            {
              "pitch": 67,
              "velocity": 87,
              "position": 26.5,
              "duration": 0.34375
            },
            {
              "pitch": 59,
              "velocity": 74,
              "position": 27,
              "duration": 0.2916666666666667
            },
            {
              "pitch": 62,
              "velocity": 74,
              "position": 27,
              "duration": 0.2916666666666667
            },
            {
              "pitch": 64,
              "velocity": 76,
              "position": 27,
              "duration": 0.2916666666666667
            },
            {
              "pitch": 67,
              "velocity": 70,
              "position": 27,
              "duration": 0.2916666666666667
            },
            {
              "pitch": 59,
              "velocity": 87,
              "position": 27.5,
              "duration": 0.4583333333333333
            },
            {
              "pitch": 62,
              "velocity": 87,
              "position": 27.5,
              "duration": 0.4583333333333333
            },
            {
              "pitch": 64,
              "velocity": 84,
              "position": 27.5,
              "duration": 0.4583333333333333
            },
            {
              "pitch": 67,
              "velocity": 93,
              "position": 27.5,
              "duration": 0.4583333333333333
            }
          ]
        },
        "13": {
          "ctab": {
            "srcChannel": 13,
            "name": "Strings",
            "accType": "PAD",
            "editable": false,
            "mutedNotes": [],
            "mutedChords": [],
            "autoStart": false,
            "sourceChordNote": 0,
            "sourceChordType": "Maj",
            "ctb2Low": null,
            "ctb2Main": {
              "ntr": "ROOT_TRANSPOSITION",
              "ntt": "BYPASS",
              "bassOn": false,
              "chordRootUpperLimit": 5,
              "noteLowLimit": 0,
              "noteHighLimit": 79,
              "rtr": "PITCH_SHIFT"
            },
            "ctb2High": null
          },
          "notes": []
        }
      }
    }
  }
}